<?xml version="1.0" encoding="UTF-8"?>
<svg xmlns="http://www.w3.org/2000/svg" xmlns:xlink="http://www.w3.org/1999/xlink" width="153px" height="188px" viewBox="0 0 153 188" version="1.1">
<g id="surface1">
<path style=" stroke:none;fill-rule:evenodd;fill:rgb(0%,0%,0%);fill-opacity:1;" d="M 91.894531 117.324219 L 90.140625 117.324219 L 84.316406 117.964844 L 48.179688 118.121094 L 51.53125 118.601562 L 74.824219 120.195312 L 87.1875 121.3125 L 91.496094 120.59375 L 97.640625 120.277344 L 98.117188 120.355469 C 98.4375 118.921875 98.914062 117.699219 99.554688 116.6875 L 91.894531 117.324219 M 38.929688 118.441406 L 33.503906 117.484375 L 33.34375 118.28125 L 33.34375 119.957031 L 32.945312 123.703125 L 37.570312 123.863281 L 68.203125 123.625 L 69.71875 123.464844 L 72.113281 123.144531 L 82.722656 122.191406 L 50.097656 119.71875 L 38.929688 118.441406 M 63.335938 104.246094 L 88.863281 104.644531 L 96.921875 104.246094 C 97.507812 103.554688 99.5 103.210938 102.902344 103.210938 L 103.703125 103.289062 L 108.25 102.332031 L 109.605469 102.492188 L 109.765625 102.332031 C 110.347656 102.332031 110.5625 102.679688 110.402344 103.371094 L 108.007812 106.878906 L 101.230469 116.925781 C 99.421875 119.796875 98.515625 123.519531 98.515625 128.089844 L 98.914062 133.59375 C 99.234375 133.644531 99.339844 133.804688 99.234375 134.070312 L 98.996094 134.550781 L 99.394531 138.21875 C 100.246094 139.492188 101.601562 143.667969 103.460938 150.738281 L 110.722656 163.65625 L 110.640625 164.136719 L 112.636719 167.960938 L 114.3125 172.507812 L 113.59375 173.226562 L 113.273438 172.988281 C 112.582031 173.625 110.90625 174.316406 108.25 175.058594 L 100.910156 176.972656 L 75.304688 180.960938 L 35.257812 180.960938 L 28.796875 179.925781 C 26.511719 179.285156 25.367188 178.753906 25.367188 178.328125 C 25.367188 177.902344 25.5 177.664062 25.765625 177.613281 C 26.402344 176.601562 26.722656 175.191406 26.722656 173.386719 C 26.351562 171.152344 26.164062 169.53125 26.164062 168.519531 C 26.164062 168.148438 26.351562 167.960938 26.722656 167.960938 L 26.164062 157.597656 L 26.246094 156.957031 L 26.003906 156.71875 L 26.722656 151.773438 L 26.882812 148.105469 L 26.960938 147.789062 L 27.121094 146.910156 C 27.121094 142.496094 27.441406 139.253906 28.078125 137.179688 L 30.550781 127.292969 L 32.308594 119 L 31.988281 118.441406 L 31.988281 117.804688 L 32.066406 116.765625 L 31.828125 116.367188 L 32.148438 115.808594 L 32.308594 110.625 L 32.066406 104.726562 L 32.386719 104.726562 L 31.988281 104.40625 C 31.988281 103.929688 32.441406 103.6875 33.34375 103.6875 L 36.613281 104.167969 L 63.335938 104.246094 M 92.851562 112.460938 L 88.625 112.9375 L 66.847656 113.894531 L 45.308594 115.09375 L 33.742188 113.578125 L 33.664062 115.890625 L 41.160156 117.324219 L 44.992188 117.722656 L 44.992188 117.5625 L 58.074219 116.925781 C 63.550781 117.296875 72.351562 117.164062 84.476562 116.527344 L 90.460938 115.808594 L 92.136719 115.808594 L 99.871094 115.492188 C 100.191406 115.171875 100.457031 115.011719 100.671875 115.011719 L 100.75 115.011719 L 104.339844 109.910156 L 98.355469 111.34375 L 92.851562 112.460938 M 93.96875 106.957031 L 93.570312 107.117188 C 91.496094 107.914062 90.167969 108.15625 89.582031 107.835938 L 86.230469 107.597656 C 85.382812 107.382812 84.398438 107.542969 83.28125 108.074219 L 69.480469 109.269531 L 36.613281 109.269531 L 33.664062 108.554688 L 33.664062 110.785156 L 33.742188 112.222656 L 34.621094 112.140625 L 38.371094 112.9375 L 45.390625 113.738281 L 66.847656 112.539062 L 88.625 111.582031 L 93.171875 110.867188 L 104.5 108.710938 L 104.976562 108.871094 L 105.777344 107.753906 L 105.617188 107.597656 L 106.734375 106.242188 L 107.609375 104.726562 L 107.851562 104.726562 L 108.726562 103.609375 L 104.101562 104.644531 L 103.859375 104.726562 L 101.386719 105.042969 L 97.878906 105.601562 L 97.320312 106 L 95.246094 106.082031 L 93.96875 106.957031 M 33.664062 107.753906 L 36.535156 107.914062 L 69.558594 107.914062 L 82.5625 106.71875 L 84.15625 106.082031 L 36.054688 105.441406 L 33.503906 105.042969 L 33.664062 107.753906 M 30.871094 132.554688 L 65.570312 132.554688 L 48.023438 130.402344 L 31.988281 128.25 L 30.871094 132.554688 M 89.820312 136.941406 L 87.589844 137.738281 L 70.117188 138.535156 L 45.230469 138.058594 L 41.480469 137.421875 L 30.550781 136.222656 L 29.835938 136.066406 L 29.035156 138.695312 L 28.796875 140.292969 L 29.035156 140.292969 L 30.394531 140.53125 C 30.550781 140.371094 30.871094 140.292969 31.351562 140.292969 L 45.707031 141.40625 L 82.003906 141.40625 L 89.902344 139.492188 L 90.9375 139.175781 L 95.324219 138.21875 L 97.480469 137.582031 L 97.957031 137.261719 L 97.640625 135.265625 L 91.019531 136.464844 L 89.820312 136.941406 M 90.699219 132.316406 L 87.1875 133.273438 C 85.59375 133.753906 74.398438 133.992188 53.605469 133.992188 L 30.472656 133.832031 L 30.234375 134.628906 C 31.242188 134.683594 31.855469 134.894531 32.066406 135.265625 L 39.246094 136.222656 L 69.878906 137.179688 L 89.980469 135.585938 L 90.859375 135.347656 L 97.558594 133.59375 L 97.398438 131.121094 L 97.320312 131.121094 L 91.019531 132.398438 L 90.699219 132.316406 M 91.335938 122.667969 L 84.238281 123.386719 C 82.324219 124.183594 79.929688 124.582031 77.058594 124.582031 L 72.113281 124.421875 L 69.558594 124.820312 L 67.726562 125.058594 L 37.492188 125.21875 L 32.707031 124.902344 L 32.226562 127.132812 L 50.253906 129.367188 L 52.410156 129.605469 L 52.96875 129.527344 L 55.917969 129.84375 C 72.9375 129.84375 84.398438 129.152344 90.300781 127.773438 L 91.179688 127.613281 C 93.675781 126.972656 95.511719 126.335938 96.683594 125.699219 L 97.320312 125.777344 L 97.796875 121.550781 L 91.335938 122.667969 M 90.460938 146.03125 L 87.90625 146.433594 L 70.757812 149.460938 L 38.929688 149.460938 L 28.636719 148.425781 L 28.320312 148.585938 L 28.238281 149.859375 L 40.285156 153.289062 L 73.390625 153.289062 L 86.789062 152.253906 L 90.9375 151.773438 L 97.320312 151.457031 L 102.34375 151.695312 L 102.503906 151.773438 L 102.265625 151.375 C 101.679688 150.3125 100.855469 148 99.792969 144.4375 L 99.792969 144.359375 L 97.082031 145.15625 L 90.460938 146.03125 M 28.398438 147.230469 L 54.722656 148.105469 L 72.671875 147.789062 L 45.230469 144.996094 C 35.816406 143.5625 30.3125 142.390625 28.71875 141.488281 L 28.398438 147.230469 M 90.9375 153.050781 L 87.03125 153.527344 C 79.742188 153.527344 75.195312 153.902344 73.390625 154.644531 L 40.125 154.644531 L 28.160156 151.214844 L 28 153.847656 L 27.441406 156.796875 L 27.441406 156.878906 L 27.679688 156.878906 L 46.507812 158.554688 L 71.234375 159.988281 L 86.789062 159.109375 L 90.378906 158.3125 L 94.609375 157.039062 L 103.703125 153.925781 L 102.746094 152.253906 L 90.9375 153.050781 M 89.902344 141.167969 L 82.082031 142.761719 L 46.105469 142.761719 L 36.535156 142.363281 L 48.421875 143.960938 L 58.710938 145.234375 L 74.503906 146.191406 C 76.472656 146.351562 77.5625 146.644531 77.777344 147.070312 L 86.949219 145.15625 L 90.21875 144.519531 L 99.3125 142.761719 L 98.277344 138.617188 L 98.277344 138.535156 C 97.054688 139.28125 94.261719 140.160156 89.902344 141.167969 M 90.9375 130.800781 L 91.097656 130.882812 C 92.960938 129.976562 95.035156 129.5 97.320312 129.445312 L 97.242188 127.929688 L 97.242188 126.894531 C 96.441406 127.480469 94.394531 128.144531 91.097656 128.886719 L 89.183594 129.285156 C 82.589844 130.5625 75.25 131.199219 67.167969 131.199219 L 67.085938 131.199219 L 67.246094 131.28125 C 69.480469 131.652344 70.597656 132.050781 70.597656 132.476562 L 70.597656 132.636719 L 80.566406 132.714844 L 87.429688 131.679688 C 89.128906 130.933594 90.300781 130.640625 90.9375 130.800781 M 87.667969 163.816406 L 87.746094 163.816406 L 89.105469 163.578125 L 94.6875 163.019531 C 96.015625 162.433594 97.132812 162.0625 98.039062 161.902344 L 106.894531 159.351562 L 104.261719 154.964844 C 103.410156 155.761719 100.324219 156.878906 95.007812 158.3125 L 89.902344 159.507812 C 83.890625 160.734375 77.75 161.34375 71.472656 161.34375 L 46.265625 159.828125 L 27.601562 157.996094 L 27.679688 159.667969 L 27.761719 161.183594 L 27.917969 161.183594 L 46.507812 162.699219 L 60.707031 163.976562 L 87.667969 163.816406 M 90.300781 172.109375 L 100.03125 170.117188 L 105.695312 168.363281 L 109.925781 166.128906 L 109.207031 164.375 L 98.757812 167.324219 L 89.820312 169 L 87.589844 169.71875 L 87.507812 169.71875 L 87.347656 169.796875 C 85.0625 170.007812 77.378906 170.117188 64.296875 170.117188 C 46.585938 170.117188 36.03125 169.902344 32.625 169.476562 L 27.601562 168.761719 L 27.601562 168.839844 L 27.917969 171.152344 L 28.636719 171.074219 C 32.042969 171.074219 37.757812 171.816406 45.789062 173.304688 L 62.539062 174.421875 L 69.480469 175.300781 L 70.675781 175.140625 C 76.84375 174.609375 81.738281 173.863281 85.355469 172.90625 L 89.503906 172.269531 L 89.582031 172.1875 L 89.820312 172.269531 L 90.0625 172.269531 L 90.21875 172.109375 L 90.300781 172.109375 M 96.28125 176.734375 L 100.191406 175.855469 L 112.636719 171.789062 L 111.441406 168.679688 L 110.480469 167.164062 L 107.691406 169.238281 L 100.75 171.230469 L 91.734375 173.226562 L 91.578125 173.144531 L 91.257812 173.226562 L 91.179688 173.226562 L 91.257812 173.304688 L 86.550781 174.101562 L 71.472656 176.257812 C 71.207031 177.691406 56.796875 178.277344 28.238281 178.011719 L 35.257812 179.605469 L 75.144531 179.605469 L 84 178.089844 L 94.210938 177.132812 L 95.804688 176.8125 L 95.882812 176.8125 L 96.203125 176.734375 L 96.28125 176.734375 M 86.789062 168.601562 L 86.789062 168.839844 L 86.871094 168.917969 L 87.1875 168.917969 L 87.1875 168.601562 L 87.988281 168.519531 C 89.210938 168.414062 89.820312 168.148438 89.820312 167.722656 L 97.480469 166.128906 L 109.125 162.9375 L 107.53125 160.386719 C 106.785156 161.023438 104.234375 161.902344 99.871094 163.019531 L 87.269531 164.851562 L 74.027344 165.332031 C 45.894531 164.585938 30.472656 163.578125 27.761719 162.300781 L 27.679688 163.976562 L 27.679688 167.804688 L 27.761719 167.804688 C 33.929688 168.441406 46.054688 168.761719 64.136719 168.761719 L 86.789062 168.601562 M 63.976562 176.257812 L 65.171875 176.097656 L 63.976562 176.015625 L 57.355469 175.855469 L 49.296875 175.378906 L 44.191406 174.421875 L 31.910156 172.988281 L 28 172.269531 L 28 173.386719 C 27.894531 175.40625 27.679688 176.894531 27.359375 177.851562 L 27.839844 177.929688 L 27.839844 177.769531 C 27.839844 177.347656 28.664062 177.105469 30.3125 177.054688 L 60.625 176.8125 L 63.976562 176.257812 "/>
<path style=" stroke:none;fill-rule:evenodd;fill:rgb(88.235295%,88.235295%,88.235295%);fill-opacity:1;" d="M 91.496094 120.59375 L 87.1875 121.3125 L 74.824219 120.195312 L 51.53125 118.601562 L 48.179688 118.121094 L 84.316406 117.964844 L 90.140625 117.324219 L 91.894531 117.324219 C 91.683594 118.386719 91.550781 119.476562 91.496094 120.59375 M 38.929688 118.441406 L 50.097656 119.71875 L 82.722656 122.191406 L 72.113281 123.144531 L 69.71875 123.464844 L 68.203125 123.625 L 37.570312 123.863281 L 32.945312 123.703125 L 33.34375 119.957031 L 33.34375 118.28125 L 33.503906 117.484375 L 38.929688 118.441406 M 92.136719 115.808594 L 90.460938 115.808594 L 84.476562 116.527344 C 72.351562 117.164062 63.550781 117.296875 58.074219 116.925781 L 44.992188 117.5625 L 44.992188 117.722656 L 41.160156 117.324219 L 33.664062 115.890625 L 33.742188 113.578125 L 45.308594 115.09375 L 66.847656 113.894531 L 88.625 112.9375 L 92.851562 112.460938 L 92.136719 115.808594 M 93.171875 110.867188 L 88.625 111.582031 L 66.847656 112.539062 L 45.390625 113.738281 L 38.371094 112.9375 L 34.621094 112.140625 L 33.742188 112.222656 L 33.664062 110.785156 L 33.664062 108.554688 L 36.613281 109.269531 L 69.480469 109.269531 L 83.28125 108.074219 C 84.398438 107.542969 85.382812 107.382812 86.230469 107.597656 L 89.582031 107.835938 C 90.167969 108.15625 91.496094 107.914062 93.570312 107.117188 L 93.96875 106.957031 L 93.171875 110.867188 M 28.796875 140.292969 L 29.035156 138.695312 L 29.835938 136.066406 L 30.550781 136.222656 L 41.480469 137.421875 L 45.230469 138.058594 L 70.117188 138.535156 L 87.589844 137.738281 L 89.820312 136.941406 L 89.820312 137.660156 L 89.902344 139.492188 L 82.003906 141.40625 L 45.707031 141.40625 L 31.351562 140.292969 C 30.871094 140.292969 30.550781 140.371094 30.394531 140.53125 L 29.035156 140.292969 L 28.796875 140.292969 M 30.871094 132.554688 L 31.988281 128.25 L 48.023438 130.402344 L 65.570312 132.554688 L 30.871094 132.554688 M 33.664062 107.753906 L 33.503906 105.042969 L 36.054688 105.441406 L 84.15625 106.082031 L 82.5625 106.71875 L 69.558594 107.914062 L 36.535156 107.914062 L 33.664062 107.753906 M 89.980469 135.585938 L 69.878906 137.179688 L 39.246094 136.222656 L 32.066406 135.265625 C 31.855469 134.894531 31.242188 134.683594 30.234375 134.628906 L 30.472656 133.832031 L 53.605469 133.992188 C 74.398438 133.992188 85.59375 133.753906 87.1875 133.273438 L 90.699219 132.316406 L 90.378906 133.273438 C 90.167969 133.910156 90.035156 134.683594 89.980469 135.585938 M 91.179688 127.613281 L 90.300781 127.773438 C 84.398438 129.152344 72.9375 129.84375 55.917969 129.84375 L 52.96875 129.527344 L 52.410156 129.605469 L 50.253906 129.367188 L 32.226562 127.132812 L 32.707031 124.902344 L 37.492188 125.21875 L 67.726562 125.058594 L 69.558594 124.820312 L 72.113281 124.421875 L 77.058594 124.582031 C 79.929688 124.582031 82.324219 124.183594 84.238281 123.386719 L 91.335938 122.667969 L 91.179688 126.816406 L 91.179688 127.613281 M 90.9375 151.773438 L 86.789062 152.253906 L 73.390625 153.289062 L 40.285156 153.289062 L 28.238281 149.859375 L 28.320312 148.585938 L 28.636719 148.425781 L 38.929688 149.460938 L 70.757812 149.460938 L 87.90625 146.433594 L 90.460938 146.03125 L 90.9375 151.773438 M 90.378906 158.3125 L 86.789062 159.109375 L 71.234375 159.988281 L 46.507812 158.554688 L 27.679688 156.878906 L 27.441406 156.878906 L 27.441406 156.796875 L 28 153.847656 L 28.160156 151.214844 L 40.125 154.644531 L 73.390625 154.644531 C 75.195312 153.902344 79.742188 153.527344 87.03125 153.527344 L 90.9375 153.050781 L 90.9375 153.847656 C 90.9375 155.441406 90.753906 156.929688 90.378906 158.3125 M 28.398438 147.230469 L 28.71875 141.488281 C 30.3125 142.390625 35.816406 143.5625 45.230469 144.996094 L 72.671875 147.789062 L 54.722656 148.105469 L 28.398438 147.230469 M 90.21875 144.519531 L 86.949219 145.15625 L 77.777344 147.070312 C 77.5625 146.644531 76.472656 146.351562 74.503906 146.191406 L 58.710938 145.234375 L 48.421875 143.960938 L 36.535156 142.363281 L 46.105469 142.761719 L 82.082031 142.761719 L 89.902344 141.167969 L 90.21875 144.519531 M 91.097656 128.886719 L 90.9375 130.800781 C 90.300781 130.640625 89.128906 130.933594 87.429688 131.679688 L 80.566406 132.714844 L 70.597656 132.636719 L 70.597656 132.476562 C 70.597656 132.050781 69.480469 131.652344 67.246094 131.28125 L 67.167969 131.199219 C 75.25 131.199219 82.589844 130.5625 89.183594 129.285156 L 91.097656 128.886719 M 89.902344 159.507812 L 88.863281 161.582031 L 87.667969 163.816406 L 60.707031 163.976562 L 46.507812 162.699219 L 27.917969 161.183594 L 27.761719 161.183594 L 27.679688 159.667969 L 27.601562 157.996094 L 46.265625 159.828125 L 71.472656 161.34375 C 77.75 161.34375 83.890625 160.734375 89.902344 159.507812 M 87.429688 169.957031 L 89.503906 172.109375 L 89.421875 172.109375 L 89.503906 172.269531 L 85.355469 172.90625 C 81.738281 173.863281 76.84375 174.609375 70.675781 175.140625 L 69.480469 175.300781 L 62.539062 174.421875 L 45.789062 173.304688 C 37.757812 171.816406 32.042969 171.074219 28.636719 171.074219 L 27.917969 171.152344 L 27.601562 168.839844 L 27.601562 168.761719 L 32.625 169.476562 C 36.03125 169.902344 46.585938 170.117188 64.296875 170.117188 C 77.378906 170.117188 85.0625 170.007812 87.347656 169.796875 L 87.269531 169.796875 L 87.429688 169.957031 M 91.257812 173.304688 C 93.492188 175.539062 95.007812 176.707031 95.804688 176.8125 L 94.210938 177.132812 L 84 178.089844 L 75.144531 179.605469 L 35.257812 179.605469 L 28.238281 178.011719 C 56.796875 178.277344 71.207031 177.691406 71.472656 176.257812 L 86.550781 174.101562 L 91.257812 173.304688 M 87.269531 164.851562 C 87.054688 165.492188 86.921875 166.101562 86.871094 166.6875 L 86.789062 166.6875 L 86.789062 168.601562 L 64.136719 168.761719 C 46.054688 168.761719 33.929688 168.441406 27.761719 167.804688 L 27.679688 167.804688 L 27.679688 163.976562 L 27.761719 162.300781 C 30.472656 163.578125 45.894531 164.585938 74.027344 165.332031 L 87.269531 164.851562 M 63.976562 176.015625 L 63.976562 176.257812 L 60.625 176.8125 L 30.3125 177.054688 C 28.664062 177.105469 27.839844 177.347656 27.839844 177.769531 L 27.839844 177.929688 L 27.359375 177.851562 C 27.679688 176.894531 27.894531 175.40625 28 173.386719 L 28 172.269531 L 31.910156 172.988281 L 44.191406 174.421875 L 49.296875 175.378906 L 57.355469 175.855469 L 63.976562 176.015625 "/>
<path style=" stroke:none;fill-rule:evenodd;fill:rgb(98.823529%,98.823529%,98.823529%);fill-opacity:1;" d="M 28.796875 140.292969 L 29.035156 140.292969 L 28.796875 140.292969 M 67.246094 131.28125 L 67.085938 131.199219 L 67.167969 131.199219 L 67.246094 131.28125 M 89.421875 172.109375 L 89.582031 172.1875 L 89.503906 172.269531 L 89.421875 172.109375 M 90.21875 172.109375 L 90.21875 171.949219 L 90.300781 172.109375 L 90.21875 172.109375 M 96.203125 176.734375 L 96.203125 176.574219 L 96.28125 176.734375 L 96.203125 176.734375 M 87.269531 169.796875 L 87.347656 169.796875 L 87.507812 169.71875 L 87.269531 169.796875 M 63.976562 176.015625 L 65.171875 176.097656 L 63.976562 176.257812 L 63.976562 176.015625 "/>
<path style=" stroke:none;fill-rule:evenodd;fill:rgb(64.313728%,63.921571%,63.137257%);fill-opacity:1;" d="M 91.496094 120.59375 C 91.550781 119.476562 91.683594 118.386719 91.894531 117.324219 L 99.554688 116.6875 C 98.914062 117.699219 98.4375 118.921875 98.117188 120.355469 L 97.640625 120.277344 L 91.496094 120.59375 M 92.136719 115.808594 L 92.851562 112.460938 L 98.355469 111.34375 L 104.339844 109.910156 L 100.75 115.011719 L 100.671875 115.011719 C 100.457031 115.011719 100.191406 115.171875 99.871094 115.492188 L 92.136719 115.808594 M 93.171875 110.867188 L 93.96875 106.957031 L 95.246094 106.082031 L 97.320312 106 L 97.878906 105.601562 L 101.386719 105.042969 L 103.859375 104.726562 L 104.101562 104.726562 L 104.101562 104.644531 L 108.726562 103.609375 L 107.851562 104.726562 L 107.609375 104.726562 L 106.734375 106.242188 L 105.617188 107.597656 L 105.777344 107.753906 L 104.976562 108.871094 L 104.5 108.710938 L 93.171875 110.867188 M 89.902344 139.492188 L 89.820312 137.660156 L 89.820312 136.941406 L 91.019531 136.464844 L 97.640625 135.265625 L 97.957031 137.261719 L 97.480469 137.582031 L 95.324219 138.21875 L 90.9375 139.175781 L 89.902344 139.492188 M 89.980469 135.585938 C 90.035156 134.683594 90.167969 133.910156 90.378906 133.273438 L 90.699219 132.316406 L 91.019531 132.398438 L 97.320312 131.121094 L 97.398438 131.121094 L 97.558594 133.59375 L 90.859375 135.347656 L 89.980469 135.585938 M 91.179688 127.613281 L 91.179688 126.816406 L 91.335938 122.667969 L 97.796875 121.550781 L 97.320312 125.777344 L 96.683594 125.699219 C 95.511719 126.335938 93.675781 126.972656 91.179688 127.613281 M 90.9375 151.773438 L 90.460938 146.03125 L 97.082031 145.15625 L 99.792969 144.359375 L 99.792969 144.4375 C 100.855469 148 101.679688 150.3125 102.265625 151.375 L 102.34375 151.695312 L 97.320312 151.457031 L 90.9375 151.773438 M 90.378906 158.3125 C 90.753906 156.929688 90.9375 155.441406 90.9375 153.847656 L 90.9375 153.050781 L 102.746094 152.253906 L 103.703125 153.925781 L 94.609375 157.039062 L 90.378906 158.3125 M 90.21875 144.519531 L 89.902344 141.167969 C 94.261719 140.160156 97.054688 139.28125 98.277344 138.535156 L 98.277344 138.617188 L 99.3125 142.761719 L 90.21875 144.519531 M 91.097656 128.886719 C 94.394531 128.144531 96.441406 127.480469 97.242188 126.894531 L 97.242188 127.929688 L 97.320312 129.445312 C 95.035156 129.5 92.960938 129.976562 91.097656 130.882812 L 90.9375 130.800781 L 91.097656 128.886719 M 89.902344 159.507812 L 95.007812 158.3125 C 100.324219 156.878906 103.410156 155.761719 104.261719 154.964844 L 106.894531 159.351562 L 98.039062 161.902344 C 97.132812 162.0625 96.015625 162.433594 94.6875 163.019531 L 89.105469 163.578125 L 87.746094 163.816406 L 87.667969 163.816406 L 88.863281 161.582031 L 89.902344 159.507812 M 87.589844 169.71875 L 89.820312 169 L 98.757812 167.324219 L 109.207031 164.375 L 109.925781 166.128906 L 105.695312 168.363281 L 100.03125 170.117188 L 90.300781 172.109375 L 90.21875 171.949219 L 90.21875 172.109375 L 90.0625 172.269531 L 89.820312 172.269531 L 89.582031 172.1875 L 89.421875 172.109375 L 89.503906 172.109375 L 87.429688 169.957031 L 87.589844 169.71875 M 91.257812 173.226562 L 91.578125 173.144531 L 91.734375 173.226562 L 100.75 171.230469 L 107.691406 169.238281 L 110.480469 167.164062 L 111.441406 168.679688 L 112.636719 171.789062 L 100.191406 175.855469 L 96.28125 176.734375 L 96.203125 176.574219 L 96.203125 176.734375 L 95.882812 176.8125 L 95.804688 176.8125 C 95.007812 176.707031 93.492188 175.539062 91.257812 173.304688 L 91.257812 173.226562 M 87.269531 164.851562 L 99.871094 163.019531 C 104.234375 161.902344 106.785156 161.023438 107.53125 160.386719 L 109.125 162.9375 L 97.480469 166.128906 L 89.820312 167.722656 C 89.820312 168.148438 89.210938 168.414062 87.988281 168.519531 L 87.1875 168.601562 L 87.1875 168.917969 L 86.871094 168.917969 L 86.789062 168.839844 L 86.789062 166.6875 L 86.871094 166.6875 C 86.921875 166.101562 87.054688 165.492188 87.269531 164.851562 "/>
<path style=" stroke:none;fill-rule:evenodd;fill:rgb(70.980394%,71.764708%,71.372551%);fill-opacity:1;" d="M 102.265625 151.375 L 102.503906 151.773438 L 102.34375 151.695312 L 102.265625 151.375 M 87.589844 169.71875 L 87.429688 169.957031 L 87.269531 169.796875 L 87.507812 169.71875 L 87.589844 169.71875 M 91.257812 173.226562 L 91.257812 173.304688 L 91.179688 173.226562 L 91.257812 173.226562 "/>
</g>
</svg>
