<?xml version="1.0" encoding="UTF-8"?>
<svg xmlns="http://www.w3.org/2000/svg" xmlns:xlink="http://www.w3.org/1999/xlink" width="17px" height="11px" viewBox="0 0 17 11" version="1.1">
<g id="surface1">
<path style=" stroke:none;fill-rule:evenodd;fill:rgb(0%,0%,0%);fill-opacity:1;" d="M 11.296875 5.089844 C 10.117188 4.441406 9.234375 4.117188 8.648438 4.117188 L 5.410156 4.414062 L 5.335938 4.488281 L 5.113281 4.488281 L 4.894531 4.414062 L 3.863281 4.265625 L 3.128906 4.566406 L 2.980469 4.714844 L 2.6875 5.164062 L 2.023438 4.9375 C 2.417969 3.890625 3.003906 3.367188 3.789062 3.367188 L 5.484375 3.742188 C 5.777344 3.390625 6.488281 3.21875 7.617188 3.21875 C 8.449219 3.21875 9.898438 3.667969 11.957031 4.566406 C 11.714844 4.914062 11.492188 5.089844 11.296875 5.089844 M 8.792969 6.0625 C 8.792969 6.511719 8.550781 6.808594 8.058594 6.960938 L 8.132812 7.109375 L 8.058594 7.257812 L 8.058594 7.933594 L 7.617188 8.304688 L 6.21875 8.828125 C 5.582031 8.828125 5.3125 8.457031 5.410156 7.707031 C 5.359375 7.40625 5.382812 7.160156 5.484375 6.960938 L 4.597656 6.808594 L 4.453125 6.808594 L 4.15625 6.511719 C 4.15625 6.3125 4.378906 6.210938 4.820312 6.210938 L 7.324219 6.359375 L 8.351562 6.210938 L 8.425781 6.0625 L 8.5 6.0625 L 8.5 5.835938 L 8.792969 6.0625 M 5.851562 7.035156 L 5.703125 7.035156 L 5.628906 7.332031 L 5.554688 7.632812 L 5.554688 7.707031 L 5.703125 8.082031 L 5.703125 8.15625 L 6.292969 8.53125 C 7.222656 8.53125 7.714844 8.132812 7.765625 7.332031 L 7.765625 7.257812 L 7.617188 7.035156 L 5.851562 7.035156 "/>
<path style=" stroke:none;fill-rule:evenodd;fill:rgb(80.000001%,80.000001%,80.000001%);fill-opacity:1;" d="M 5.851562 7.035156 C 5.753906 7.132812 5.726562 7.332031 5.777344 7.632812 C 5.726562 7.980469 5.800781 8.15625 5.996094 8.15625 L 6.660156 7.484375 L 6.585938 7.035156 L 7.617188 7.035156 L 7.765625 7.332031 C 7.714844 8.132812 7.222656 8.53125 6.292969 8.53125 L 5.703125 8.15625 L 5.703125 8.082031 L 5.554688 7.707031 L 5.554688 7.632812 L 5.628906 7.40625 L 5.628906 7.332031 L 5.703125 7.035156 L 5.851562 7.035156 "/>
<path style=" stroke:none;fill-rule:evenodd;fill:rgb(100%,100%,100%);fill-opacity:1;" d="M 6.585938 7.035156 L 6.660156 7.484375 L 5.996094 8.15625 C 5.800781 8.15625 5.726562 7.980469 5.777344 7.632812 C 5.726562 7.332031 5.753906 7.132812 5.851562 7.035156 L 6.585938 7.035156 "/>
</g>
</svg>
