<?xml version="1.0" encoding="UTF-8"?>
<svg xmlns="http://www.w3.org/2000/svg" xmlns:xlink="http://www.w3.org/1999/xlink" width="17px" height="11px" viewBox="0 0 17 11" version="1.1">
<g id="surface1">
<path style=" stroke:none;fill-rule:evenodd;fill:rgb(0%,0%,0%);fill-opacity:1;" d="M 6.585938 1.945312 L 1.140625 1.871094 L 3.496094 5.613281 C 3.59375 5.460938 3.765625 5.363281 4.011719 5.3125 L 4.378906 5.238281 L 9.382812 4.9375 L 13.285156 5.386719 C 13.871094 4.339844 14.289062 2.917969 14.535156 1.121094 C 13.554688 1.671875 10.902344 1.945312 6.585938 1.945312 M 14.828125 0.375 L 14.902344 0.375 L 14.976562 0.597656 L 14.976562 1.421875 C 14.976562 2.570312 14.558594 3.992188 13.726562 5.6875 L 13.726562 6.136719 L 13.355469 6.433594 L 13.429688 6.210938 L 12.914062 7.109375 C 11.445312 9.503906 10.09375 10.699219 8.867188 10.699219 C 6.710938 10.699219 4.871094 9.253906 3.347656 6.359375 L 0.847656 1.871094 L 0.332031 1.871094 L 0.257812 1.496094 L 14.609375 0.449219 L 14.609375 0.375 L 14.828125 0.375 M 3.863281 6.0625 L 3.789062 6.0625 C 5.800781 8.804688 7.445312 10.175781 8.722656 10.175781 C 9.898438 10.175781 11.34375 8.707031 13.0625 5.761719 L 8.574219 5.3125 L 4.894531 5.460938 C 4.648438 5.511719 4.378906 5.6875 4.085938 5.988281 L 3.789062 5.988281 L 3.863281 6.0625 "/>
<path style=" stroke:none;fill-rule:evenodd;fill:rgb(80.000001%,20%,40.000001%);fill-opacity:1;" d="M 6.585938 1.945312 C 10.902344 1.945312 13.554688 1.671875 14.535156 1.121094 C 14.289062 2.917969 13.871094 4.339844 13.285156 5.386719 L 9.382812 4.9375 L 4.378906 5.238281 L 4.011719 5.3125 C 3.765625 5.363281 3.59375 5.460938 3.496094 5.613281 L 1.140625 1.871094 L 6.585938 1.945312 "/>
<path style=" stroke:none;fill-rule:evenodd;fill:rgb(100%,60.000002%,80.000001%);fill-opacity:1;" d="M 3.863281 6.0625 L 3.789062 5.988281 L 4.085938 5.988281 C 4.378906 5.6875 4.648438 5.511719 4.894531 5.460938 L 8.574219 5.3125 L 13.0625 5.761719 C 11.34375 8.707031 9.898438 10.175781 8.722656 10.175781 C 7.445312 10.175781 5.800781 8.804688 3.789062 6.0625 L 3.863281 6.0625 "/>
</g>
</svg>
