<?xml version="1.0" encoding="UTF-8"?>
<svg xmlns="http://www.w3.org/2000/svg" xmlns:xlink="http://www.w3.org/1999/xlink" width="17px" height="11px" viewBox="0 0 17 11" version="1.1">
<g id="surface1">
<path style=" stroke:none;fill-rule:evenodd;fill:rgb(0%,0%,0%);fill-opacity:1;" d="M 14.535156 2.019531 L 15.050781 1.644531 L 15.566406 2.019531 L 16.152344 1.421875 L 15.933594 0.671875 L 14.242188 1.570312 C 12.570312 2.269531 10.535156 2.617188 8.132812 2.617188 L 6.144531 2.542969 L 5.925781 2.46875 L 3.644531 2.617188 L 11.8125 3.441406 C 14.410156 3.441406 15.859375 2.96875 16.152344 2.019531 L 15.566406 2.617188 L 15.125 2.320312 L 14.609375 2.695312 L 14.019531 2.320312 L 13.726562 2.695312 L 13.429688 2.617188 L 13.429688 2.46875 C 13.429688 2.019531 13.578125 1.796875 13.871094 1.796875 L 14.535156 2.019531 M 16.082031 0 C 16.472656 0 16.667969 0.523438 16.667969 1.570312 L 16.667969 1.871094 L 16.816406 2.246094 L 16.523438 2.394531 L 16.082031 2.992188 L 15.566406 3.59375 L 11.8125 3.964844 L 6.585938 3.515625 L 1.214844 2.769531 L 1.066406 2.769531 L 0.992188 2.542969 L 1.214844 2.394531 L 1.214844 2.320312 L 1.65625 2.320312 L 8.132812 2.09375 C 11.273438 2.09375 13.285156 1.769531 14.167969 1.121094 L 15.933594 0.0742188 L 15.933594 0 L 16.082031 0 "/>
<path style=" stroke:none;fill-rule:evenodd;fill:rgb(100%,100%,100%);fill-opacity:1;" d="M 14.535156 2.019531 L 13.871094 1.796875 C 13.578125 1.796875 13.429688 2.019531 13.429688 2.46875 L 13.429688 2.617188 L 13.726562 2.695312 L 14.019531 2.320312 L 14.609375 2.695312 L 15.125 2.320312 L 15.566406 2.617188 L 16.152344 2.019531 C 15.859375 2.96875 14.410156 3.441406 11.8125 3.441406 L 3.644531 2.617188 L 5.925781 2.46875 L 6.144531 2.542969 L 8.132812 2.617188 C 10.535156 2.617188 12.570312 2.269531 14.242188 1.570312 L 15.933594 0.671875 L 16.152344 1.421875 L 15.566406 2.019531 L 15.050781 1.644531 L 14.535156 2.019531 "/>
</g>
</svg>
