<?xml version="1.0" encoding="UTF-8"?>
<svg xmlns="http://www.w3.org/2000/svg" xmlns:xlink="http://www.w3.org/1999/xlink" width="160px" height="333px" viewBox="0 0 160 333" version="1.1">
<g id="surface1">
<path style=" stroke:none;fill-rule:evenodd;fill:rgb(0%,0%,0%);fill-opacity:1;" d="M 18.929688 184.59375 L 18.929688 183.671875 C 18.929688 178.941406 19.269531 173.691406 19.945312 167.917969 L 14.433594 167.917969 C 11.484375 168.488281 9.644531 167.660156 8.921875 165.4375 C 8.679688 164.726562 8.558594 162.882812 8.558594 159.902344 C 8.558594 156.921875 8.75 154.390625 9.140625 152.308594 C 9.71875 149.421875 10.128906 146.300781 10.371094 142.941406 L 10.226562 126.125 C 9.9375 122.101562 9.9375 119.144531 10.226562 117.253906 C 10.757812 113.328125 11.316406 110.9375 11.894531 110.085938 C 12.523438 109.1875 14.023438 108.738281 16.390625 108.738281 L 20.019531 108.953125 L 19.875 104.125 L 19.945312 102.917969 L 16.246094 100.4375 C 15.617188 99.585938 15.304688 98.589844 15.304688 97.457031 L 18.566406 78.4375 C 18.953125 76.261719 19.148438 73.09375 19.148438 68.929688 L 19.148438 65.3125 C 18.90625 64.933594 18.785156 63.914062 18.785156 62.257812 C 18.785156 59.847656 19.003906 58.167969 19.4375 57.222656 C 19.535156 51.164062 20.453125 44.519531 22.195312 37.28125 C 22.773438 34.773438 23.0625 31.226562 23.0625 26.636719 L 23.210938 20.960938 L 22.773438 20.535156 C 23.160156 19.683594 23.355469 18.382812 23.355469 16.632812 L 23.28125 14.929688 L 23.71875 14.503906 L 25.457031 11.027344 L 25.820312 11.167969 L 25.964844 10.953125 C 29.832031 12.5625 33.605469 13.699219 37.28125 14.359375 L 57.660156 17.980469 L 87.035156 17.980469 C 89.597656 17.933594 92.546875 17.4375 95.882812 16.488281 L 102.992188 14.359375 L 110.316406 12.941406 L 111.984375 12.160156 L 111.914062 12.089844 L 111.984375 11.664062 C 112.226562 11.429688 112.445312 11.308594 112.636719 11.308594 C 113.992188 11.308594 115.320312 13.675781 116.628906 18.40625 L 116.554688 19.46875 L 115.828125 19.683594 L 115.976562 25.855469 C 116.023438 27.84375 116.988281 31.058594 118.875 35.507812 C 119.070312 36.3125 119.699219 37.894531 120.761719 40.261719 C 121.679688 42.296875 122.1875 43.929688 122.285156 45.15625 L 122.574219 54.667969 L 122.503906 56.867188 L 122.355469 56.9375 L 123.445312 70.5625 C 124.363281 74.820312 124.992188 79.714844 125.332031 85.25 C 125.378906 86.8125 125.71875 89.273438 126.347656 92.628906 C 126.296875 94.191406 126.804688 96.652344 127.871094 100.011719 L 128.738281 114.628906 C 128.738281 115.761719 128.015625 117.136719 126.5625 118.742188 C 126.902344 120.824219 126.976562 123.710938 126.78125 127.402344 L 127.433594 136.34375 L 127.578125 136.484375 L 127.578125 165.222656 C 129.707031 175.0625 131.738281 182.75 133.671875 188.285156 L 133.890625 188.214844 C 134.566406 188.214844 134.90625 189.632812 134.90625 192.472656 L 134.757812 199.496094 L 136.71875 204.535156 C 138.023438 207.75 138.675781 209.785156 138.675781 210.636719 L 138.3125 212.625 L 138.097656 218.515625 L 137.949219 230.578125 C 138.53125 231.335938 138.941406 235.09375 139.183594 241.859375 C 139.523438 251.890625 139.859375 258.085938 140.199219 260.453125 L 142.230469 275.566406 C 142.664062 278.878906 142.738281 283.890625 142.449219 290.609375 C 142.691406 296.191406 142.519531 299.789062 141.941406 301.394531 C 142.472656 302.058594 142.785156 303.691406 142.882812 306.292969 L 143.027344 314.523438 L 144.988281 328.003906 L 145.203125 328.289062 L 144.914062 328.644531 C 144.816406 328.832031 144.625 328.929688 144.332031 328.929688 L 144.117188 328.929688 L 125.476562 330.632812 L 119.457031 332.050781 L 107.5625 332.832031 L 106.980469 332.832031 C 106.207031 332.832031 105.507812 331.339844 104.878906 328.359375 L 103.210938 321.691406 C 102.289062 320.175781 101.6875 318.332031 101.394531 316.15625 L 100.671875 310.476562 L 97.988281 288.125 C 92.910156 259.457031 90.371094 244.554688 90.371094 243.421875 C 90.371094 242.902344 90.492188 242.570312 90.734375 242.425781 C 90.347656 240.820312 89.914062 238.074219 89.429688 234.195312 C 88.558594 226.628906 87.566406 221.519531 86.457031 218.867188 C 85.875 217.542969 85.320312 215.4375 84.785156 212.554688 L 84.570312 212.554688 L 83.917969 212.339844 L 82.972656 196.941406 L 82.972656 192.257812 C 83.070312 189.277344 83.289062 187.789062 83.625 187.789062 L 83.84375 188 L 84.351562 185.800781 L 84.496094 182.183594 C 84.496094 178.019531 84.304688 173.691406 83.917969 169.195312 C 83.144531 168.867188 82.488281 167.304688 81.957031 164.511719 C 81.378906 161.675781 81.136719 159.097656 81.234375 156.777344 C 81.28125 155.21875 80.917969 153.183594 80.144531 150.675781 L 78.257812 144.359375 L 75.214844 132.011719 L 73.328125 120.871094 L 73.109375 124.421875 L 73.109375 124.632812 L 73.039062 129.03125 L 73.183594 129.03125 L 73.253906 129.316406 L 72.964844 129.53125 C 72.722656 134.921875 72.070312 141.6875 71.007812 149.824219 L 71.078125 149.824219 L 71.152344 149.894531 L 70.933594 150.25 L 69.992188 156.847656 L 69.847656 156.777344 L 69.484375 158.625 L 69.554688 158.835938 L 69.410156 159.050781 L 68.539062 162.953125 L 68.324219 163.875 C 67.210938 169.457031 66.65625 174.046875 66.65625 177.640625 C 66.65625 180.761719 66.992188 183.980469 67.671875 187.292969 L 68.03125 188.496094 L 68.324219 188.640625 L 68.03125 188.640625 L 67.960938 190.699219 C 67.960938 194.625 67.332031 198.503906 66.074219 202.335938 C 66.074219 204.132812 66.484375 207.113281 67.308594 211.277344 C 67.308594 212.128906 67.089844 212.554688 66.65625 212.554688 L 66.582031 212.554688 C 66.726562 214.585938 67.042969 216.976562 67.523438 219.71875 L 67.378906 221.707031 C 68.007812 224.023438 68.566406 228.210938 69.046875 234.265625 C 69.820312 237.769531 70.207031 242.664062 70.207031 248.957031 L 69.917969 262.296875 L 68.683594 275.496094 C 68.152344 288.269531 67.257812 296.429688 66 299.976562 L 62.59375 316.226562 L 62.230469 326.375 L 61.867188 331.980469 L 62.085938 332.121094 L 61.722656 332.6875 L 61.578125 332.6875 L 61.433594 332.761719 L 51.785156 332.761719 L 24.441406 330.914062 L 24.296875 330.914062 L 23.933594 330.703125 L 23.644531 330.417969 L 23.71875 330.207031 C 23.523438 329.449219 23.476562 328.078125 23.570312 326.089844 C 24.199219 324.007812 24.515625 320.414062 24.515625 315.304688 L 24.226562 304.730469 C 24.226562 303.972656 24.417969 303.546875 24.804688 303.453125 L 23.570312 295.578125 L 21.179688 279.824219 C 18.90625 265.300781 17.769531 256.761719 17.769531 254.207031 L 17.914062 253.78125 L 17.117188 247.394531 L 16.609375 240.371094 C 16.609375 236.917969 17.09375 232.964844 18.058594 228.519531 C 18.980469 224.121094 19.4375 220.5 19.4375 217.664062 L 18.929688 209.003906 L 19.003906 209.003906 L 18.929688 208.652344 L 18.859375 206.238281 L 19.511719 194.246094 C 18.589844 189.277344 18.132812 186.582031 18.132812 186.15625 C 18.132812 185.117188 18.351562 184.59375 18.785156 184.59375 L 18.929688 184.59375 M 25.457031 11.523438 C 24.878906 12.183594 24.441406 13.011719 24.152344 14.007812 L 23.863281 15.285156 L 24.078125 16.703125 L 23.863281 15.285156 L 24.152344 14.007812 C 24.441406 13.011719 24.878906 12.183594 25.457031 11.523438 L 25.601562 11.664062 L 25.675781 11.523438 L 25.53125 11.378906 L 25.53125 11.453125 L 25.457031 11.523438 M 112.421875 13.15625 L 110.679688 13.226562 L 108.070312 13.792969 C 105.84375 14.171875 103.863281 14.714844 102.121094 15.425781 C 97.914062 17.035156 92.835938 18.144531 86.890625 18.761719 L 57.660156 18.761719 L 37.933594 14.929688 C 33.144531 13.984375 29.035156 12.894531 25.601562 11.664062 C 29.035156 12.894531 33.144531 13.984375 37.933594 14.929688 L 57.660156 18.761719 L 86.890625 18.761719 C 92.835938 18.144531 97.914062 17.035156 102.121094 15.425781 C 103.863281 14.714844 105.84375 14.171875 108.070312 13.792969 L 110.679688 13.226562 L 112.421875 13.15625 M 118.367188 125.910156 L 118.078125 125.554688 L 123.082031 121.226562 C 126.371094 118.390625 128.015625 116.1875 128.015625 114.628906 L 127.144531 100.152344 C 126.082031 96.792969 125.574219 94.378906 125.621094 92.914062 C 124.992188 89.792969 124.652344 87.402344 124.605469 85.746094 C 124.316406 79.503906 123.757812 74.699219 122.9375 71.34375 L 121.632812 56.9375 L 121.632812 55.945312 L 121.921875 55.945312 L 121.847656 54.097656 L 121.558594 45.015625 C 121.558594 44.023438 121.003906 42.53125 119.890625 40.546875 C 118.828125 38.511719 118.246094 36.972656 118.152344 35.933594 C 118.054688 34.84375 117.570312 33.332031 116.699219 31.390625 C 115.828125 29.355469 115.347656 27.84375 115.25 26.851562 L 114.960938 18.191406 L 114.960938 18.050781 C 113.605469 19.894531 107.511719 21.410156 96.683594 22.59375 C 95.667969 21.597656 94.867188 21.101562 94.289062 21.101562 C 93.707031 21.101562 93.417969 21.339844 93.417969 21.8125 L 94.507812 22.804688 L 83.554688 23.65625 L 52.945312 22.167969 C 34.476562 20.84375 24.851562 19.28125 24.078125 17.484375 L 23.933594 18.832031 L 24.007812 23.726562 C 24.007812 29.355469 23.402344 35.246094 22.195312 41.398438 C 20.9375 47.734375 20.261719 54.242188 20.164062 60.910156 L 19.800781 61.054688 L 19.800781 60.980469 L 19.726562 60.839844 L 19.726562 61.054688 L 19.875 63.679688 L 19.875 67.792969 C 19.875 73.847656 19.246094 80.140625 17.988281 86.667969 C 16.683594 93.246094 16.027344 96.839844 16.027344 97.457031 C 16.027344 98.496094 16.367188 99.324219 17.042969 99.9375 L 19.367188 101.855469 L 19.367188 101.785156 L 19.726562 101.714844 L 20.019531 101.855469 L 20.234375 101.359375 L 20.378906 102.066406 L 22.992188 104.054688 C 24.585938 105.332031 25.507812 106.113281 25.746094 106.398438 L 25.601562 106.398438 L 25.601562 106.609375 L 25.457031 106.609375 C 24.972656 106.609375 23.355469 105.449219 20.597656 103.132812 L 21.105469 110.726562 L 20.960938 110.582031 L 20.671875 110.9375 L 20.671875 111.007812 L 20.886719 111.152344 L 21.105469 111.222656 L 21.105469 112.074219 L 21.832031 116.046875 C 22.507812 116.238281 23.523438 116.6875 24.878906 117.394531 L 28.722656 118.105469 L 29.738281 118.390625 L 63.027344 118.390625 L 72.746094 118.601562 L 73.253906 110.511719 L 73.691406 105.261719 L 73.691406 105.191406 L 73.761719 104.765625 L 73.761719 104.695312 C 74.003906 101.808594 74.320312 99.488281 74.707031 97.738281 L 74.707031 97.667969 C 74.707031 96.34375 74.828125 95.609375 75.066406 95.46875 L 75.214844 95.824219 L 75.359375 95.46875 L 75.429688 95.539062 L 75.503906 95.539062 L 75.503906 95.46875 L 74.996094 77.019531 C 74.996094 73.421875 75.890625 70.066406 77.679688 66.941406 L 85.003906 56.085938 L 85.367188 56.582031 L 80.582031 64.105469 C 77.339844 68.691406 75.722656 72.996094 75.722656 77.019531 L 75.792969 81.84375 L 75.574219 82.695312 L 75.792969 82.765625 L 76.011719 99.371094 L 75.722656 99.511719 L 75.648438 100.292969 L 76.734375 105.191406 L 76.882812 106.609375 L 76.664062 106.539062 L 76.15625 106.679688 L 75.214844 102.066406 L 73.980469 111.152344 L 73.472656 119.242188 L 73.472656 119.382812 L 73.691406 119.242188 C 74.511719 119.242188 76.542969 127.496094 79.78125 144.003906 L 81.523438 150.109375 C 82.25 152.617188 82.585938 154.695312 82.539062 156.351562 C 82.488281 158.199219 82.902344 160.398438 83.773438 162.953125 L 84.714844 166.214844 L 84.785156 166.570312 L 85.003906 168.628906 L 84.785156 169.195312 L 84.785156 170.261719 L 85.222656 182.253906 L 85.222656 183.8125 L 85.078125 183.957031 L 85.148438 184.167969 C 84.761719 184.5 84.570312 185.46875 84.570312 187.078125 L 84.640625 188 L 84.496094 188.496094 L 84.640625 188.640625 L 83.988281 188.640625 L 84.351562 199.496094 C 84.351562 201.816406 84.570312 204.984375 85.003906 209.003906 L 85.367188 209.003906 C 85.996094 212.835938 86.671875 215.722656 87.398438 217.664062 C 88.800781 221.210938 90.300781 229.371094 91.894531 242.144531 L 91.675781 243.777344 C 92.933594 248.175781 95.425781 262.675781 99.148438 287.273438 L 102.121094 309.839844 C 102.894531 315.707031 103.691406 319.441406 104.515625 321.050781 C 105.480469 322.992188 106.523438 326.46875 107.632812 331.484375 C 109.472656 330.820312 114.039062 330.253906 121.339844 329.78125 L 124.316406 329.355469 L 124.386719 329.425781 L 124.96875 329.636719 L 125.695312 329.140625 L 142.59375 327.652344 L 143.101562 327.652344 C 142.472656 326.136719 142.0625 323.324219 141.867188 319.207031 C 141.433594 310.3125 141.046875 305.109375 140.707031 303.59375 L 140.707031 302.175781 L 140.417969 301.609375 L 140.417969 300.898438 L 141.070312 290.46875 C 141.070312 286.871094 140.394531 277.007812 139.039062 260.878906 C 137.734375 245.550781 137.054688 235.875 137.007812 231.855469 L 136.789062 231.710938 L 136.71875 212.980469 L 136.71875 209.078125 L 136.066406 206.949219 C 134.613281 204.25 133.769531 202.289062 133.527344 201.058594 L 133.238281 189.421875 L 133.382812 188.710938 L 133.382812 188.640625 L 133.089844 188.640625 C 129.804688 177.996094 127.917969 171.160156 127.433594 168.132812 C 127.046875 165.765625 126.855469 160.042969 126.855469 150.960938 L 127 140.386719 C 126.371094 138.351562 126.054688 136.082031 126.054688 133.574219 L 126.054688 133.21875 L 126.128906 133.21875 L 126.707031 133.078125 L 126.5625 132.792969 L 126.054688 132.9375 L 126.054688 126.40625 C 126.054688 123.046875 126.128906 120.613281 126.273438 119.097656 L 124.894531 120.445312 L 118.585938 125.839844 L 118.511719 125.769531 L 118.367188 125.910156 M 52.582031 55.304688 L 54.6875 56.867188 L 62.519531 63.039062 L 73.109375 73.046875 L 72.746094 73.257812 C 72.117188 73.257812 70.59375 72.050781 68.175781 69.640625 L 61.578125 63.183594 C 55.242188 58.261719 51.300781 55.117188 49.753906 53.742188 L 49.972656 53.742188 L 50.046875 53.460938 L 49.175781 53.246094 L 49.03125 53.105469 L 49.390625 53.035156 L 52.582031 55.304688 M 24.078125 16.703125 L 24.078125 16.84375 L 24.152344 16.773438 L 24.078125 16.703125 M 20.378906 116.402344 C 20.285156 116.117188 20.378906 115.953125 20.671875 115.90625 L 20.089844 109.449219 C 14.238281 107.933594 11.195312 110.441406 10.953125 116.96875 L 11.097656 141.023438 C 11.097656 144.382812 10.808594 147.601562 10.226562 150.675781 C 9.597656 153.703125 9.285156 156.753906 9.285156 159.828125 L 9.285156 163.945312 C 9.285156 164.65625 9.476562 165.339844 9.863281 166.003906 L 11.460938 166.785156 L 20.089844 167.210938 L 20.164062 166.214844 L 21.035156 160.894531 L 20.527344 160.46875 L 20.597656 160.253906 L 20.960938 160.183594 L 21.179688 160.253906 L 21.613281 157.488281 L 21.976562 155.5 L 21.542969 155.359375 L 22.050781 154.933594 L 22.703125 151.03125 L 22.558594 151.03125 L 22.484375 150.675781 L 22.703125 150.535156 L 22.773438 150.535156 L 22.917969 149.753906 L 22.628906 149.683594 L 22.773438 144.929688 L 22.628906 144.855469 L 22.773438 144.644531 L 22.773438 143.933594 L 22.484375 134.851562 L 22.339844 134.78125 L 22.484375 134.425781 L 22.265625 130.664062 L 22.195312 130.382812 L 22.265625 130.167969 L 21.902344 124.066406 L 21.542969 122.007812 L 21.542969 121.722656 L 20.742188 116.542969 L 20.378906 116.402344 M 23.789062 117.75 L 21.976562 117.039062 L 22.558594 121.441406 L 23.355469 121.441406 L 29.375 122.222656 L 41.414062 122.859375 L 57.082031 124.066406 L 72.382812 123.640625 L 72.675781 119.027344 L 72.457031 119.097656 L 41.996094 119.242188 L 27.707031 119.097656 C 28.042969 118.910156 27.753906 118.71875 26.835938 118.53125 C 25.433594 118.4375 24.417969 118.175781 23.789062 117.75 M 22.628906 122.648438 L 22.773438 129.386719 L 23.71875 129.246094 L 28.9375 129.246094 L 43.878906 130.808594 L 62.738281 130.59375 L 63.535156 130.382812 L 66.871094 129.882812 L 72.023438 129.105469 L 72.3125 125.839844 L 72.238281 125.699219 L 72.3125 124.632812 L 61.433594 124.773438 L 22.628906 122.148438 L 22.628906 122.648438 M 22.992188 134.355469 L 34.304688 138.46875 C 42.769531 140.125 49.609375 140.953125 54.832031 140.953125 C 61.648438 140.953125 65.6875 140.859375 66.945312 140.671875 L 63.898438 140.671875 C 39.527344 136.601562 25.84375 133.480469 22.847656 131.304688 L 22.992188 134.355469 M 25.3125 129.957031 L 23.28125 130.167969 L 29.953125 133.21875 L 40.980469 135.347656 L 53.089844 137.761719 L 62.519531 139.535156 L 69.265625 139.890625 L 71.367188 139.320312 L 71.949219 131.660156 L 72.023438 129.8125 L 67.015625 130.59375 L 52.875 131.515625 L 36.554688 131.304688 C 36.796875 131.113281 36.09375 130.902344 34.453125 130.664062 L 30.679688 130.238281 L 25.3125 129.957031 M 71.007812 140.316406 L 70.933594 140.671875 L 69.484375 140.671875 L 59.257812 141.664062 C 47.167969 141.664062 38.296875 140.789062 32.636719 139.039062 C 30.125 138.28125 26.910156 136.980469 22.992188 135.136719 L 23.5 143.933594 L 23.5 144.574219 L 25.023438 145.355469 C 26.328125 146.109375 27.949219 146.75 29.882812 147.269531 C 36.554688 149.160156 47.507812 150.109375 62.738281 150.109375 L 70.136719 149.964844 L 71.222656 140.316406 L 71.222656 140.03125 L 70.859375 140.171875 L 71.007812 140.316406 M 23.5 150.535156 L 35.394531 150.746094 L 47.941406 150.535156 C 41.414062 150.203125 36.480469 149.585938 33.144531 148.6875 C 29.179688 147.648438 25.964844 146.511719 23.5 145.28125 L 23.355469 149.257812 L 23.5 150.320312 L 23.5 150.535156 M 34.015625 151.242188 L 23.425781 151.101562 L 22.847656 154.863281 C 29.519531 157.605469 42.890625 158.976562 62.957031 158.976562 L 66.65625 158.695312 L 68.46875 158.550781 C 68.804688 157.179688 69.167969 156.1875 69.554688 155.570312 L 69.484375 154.933594 L 70.0625 150.535156 L 62.738281 150.890625 L 50.046875 150.675781 L 41.558594 151.457031 L 34.015625 151.242188 M 79.855469 134.214844 L 79.855469 134.78125 L 79.710938 133.644531 L 79.855469 134.214844 M 67.089844 165.292969 L 67.453125 163.164062 L 58.386719 164.160156 L 48.015625 163.164062 L 25.167969 161.957031 L 30.390625 163.945312 C 36.578125 165.601562 42.503906 166.429688 48.160156 166.429688 L 64.550781 165.648438 L 67.015625 165.789062 L 67.089844 165.292969 M 65.421875 209.003906 C 64.9375 206.308594 64.695312 204.085938 64.695312 202.335938 L 64.839844 199.070312 L 66.21875 194.671875 C 66.074219 191.878906 66.121094 189.871094 66.363281 188.640625 C 66.507812 187.976562 66.703125 187.550781 66.945312 187.363281 C 66.269531 184.335938 65.929688 181.09375 65.929688 177.640625 C 65.929688 175.371094 66.121094 172.671875 66.507812 169.550781 L 66.582031 169.480469 L 66.65625 169.195312 L 66.582031 169.054688 L 66.945312 166.289062 L 55.484375 166.785156 L 48.085938 167.210938 C 45.28125 167.210938 39.359375 166.359375 30.316406 164.65625 L 25.023438 162.667969 L 22.847656 161.746094 L 21.832031 161.25 L 20.816406 167.421875 L 20.816406 167.5625 L 20.742188 167.917969 L 20.089844 171.679688 L 20.019531 173.097656 L 19.65625 173.3125 L 19.726562 173.597656 L 20.019531 173.597656 L 19.875 185.660156 L 20.597656 188.640625 L 20.671875 189.421875 L 20.960938 194.246094 L 20.597656 200.207031 L 20.308594 206.097656 L 20.742188 210.425781 L 20.742188 210.851562 L 20.453125 210.992188 L 20.742188 217.589844 C 20.742188 220.335938 20.285156 224.023438 19.367188 228.660156 C 18.445312 233.296875 17.988281 237.175781 17.988281 240.296875 C 17.988281 245.125 18.472656 249.59375 19.4375 253.710938 C 19.4375 254.371094 19.292969 254.773438 19.003906 254.917969 L 19.945312 259.953125 L 20.164062 261.375 L 22.265625 278.476562 L 25.964844 303.59375 L 25.675781 305.15625 L 25.964844 308.351562 L 25.964844 313.386719 C 25.964844 316.085938 25.699219 319.066406 25.167969 322.328125 L 25.023438 327.652344 L 24.949219 329.78125 L 25.242188 329.78125 L 37.136719 330.84375 L 41.847656 331.269531 L 47.722656 331.339844 L 48.304688 331.484375 L 48.8125 331.410156 L 60.78125 331.835938 L 60.78125 326.300781 C 60.78125 320.4375 61.167969 315.800781 61.941406 312.394531 L 63.246094 304.234375 L 63.753906 301.820312 L 63.679688 301.75 L 63.679688 300.613281 C 67.113281 282.449219 68.832031 265.230469 68.832031 248.957031 C 68.832031 244.082031 68.296875 238.144531 67.234375 231.144531 C 66.121094 225.042969 65.566406 221.660156 65.566406 220.996094 C 65.566406 220.050781 65.785156 219.554688 66.21875 219.507812 L 64.988281 209.855469 L 65.058594 209.003906 L 65.421875 209.003906 M 68.25 159.332031 L 55.992188 159.6875 C 46.757812 159.6875 38.539062 159.027344 31.332031 157.699219 L 22.703125 155.644531 L 21.902344 160.609375 L 23.355469 161.179688 L 23.425781 161.179688 L 48.304688 162.457031 L 51.207031 163.164062 L 54.398438 163.023438 L 56.066406 163.449219 L 67.523438 162.738281 L 68.25 159.332031 M 23.0625 188.640625 L 22.195312 188.640625 L 22.847656 188 L 23.210938 188.496094 L 23.0625 188.496094 L 23.0625 188.640625 "/>
<path style=" stroke:none;fill-rule:evenodd;fill:rgb(18.039216%,36.078432%,35.294119%);fill-opacity:1;" d="M 25.457031 11.523438 L 25.53125 11.453125 L 25.53125 11.378906 L 25.675781 11.523438 L 25.601562 11.664062 L 25.457031 11.523438 M 84.640625 188.640625 L 84.496094 188.496094 L 84.640625 188 L 84.785156 188.640625 L 84.640625 188.640625 M 85.222656 183.8125 L 85.222656 183.671875 L 85.367188 183.671875 L 85.222656 183.8125 M 73.691406 119.242188 L 73.472656 119.382812 L 73.472656 119.242188 L 73.691406 119.242188 M 63.027344 118.390625 L 62.957031 118.390625 L 62.957031 118.035156 L 63.027344 118.390625 M 49.175781 53.246094 L 49.03125 53.175781 L 49.03125 53.105469 L 49.175781 53.246094 M 24.078125 16.84375 L 24.078125 16.703125 L 24.152344 16.773438 L 24.078125 16.84375 M 55.339844 186.582031 L 55.414062 183.671875 L 55.773438 183.246094 L 55.558594 186.722656 L 55.339844 186.582031 M 55.773438 180.976562 L 55.773438 182.890625 C 55.484375 180.859375 55.339844 178.609375 55.339844 176.152344 L 55.773438 180.976562 "/>
<path style=" stroke:none;fill-rule:evenodd;fill:rgb(10.588235%,18.82353%,19.215687%);fill-opacity:1;" d="M 118.367188 125.910156 L 118.511719 125.769531 L 118.585938 125.839844 L 118.367188 125.910156 M 126.054688 132.9375 L 126.5625 132.792969 L 126.707031 133.078125 L 126.128906 133.21875 L 126.054688 132.9375 M 133.089844 188.640625 L 133.382812 188.640625 L 133.382812 188.710938 L 133.089844 188.640625 M 21.105469 111.222656 L 20.886719 111.152344 L 20.671875 111.007812 L 20.671875 110.9375 L 20.960938 110.582031 L 21.105469 110.726562 L 20.960938 111.078125 L 21.105469 111.222656 M 45.984375 45.511719 L 46.203125 45.726562 L 45.910156 45.65625 L 45.984375 45.511719 M 65.421875 209.003906 L 65.058594 209.003906 L 65.421875 209.003906 M 23.210938 188.496094 L 23.355469 188.425781 L 23.71875 188.640625 L 23.0625 188.640625 L 23.0625 188.496094 L 23.210938 188.496094 "/>
<path style=" stroke:none;fill-rule:evenodd;fill:rgb(0%,0%,40.000001%);fill-opacity:1;" d="M 114.960938 18.191406 L 115.25 26.851562 C 115.347656 27.84375 115.828125 29.355469 116.699219 31.390625 C 117.570312 33.332031 118.054688 34.84375 118.152344 35.933594 C 118.246094 36.972656 118.828125 38.511719 119.890625 40.546875 C 121.003906 42.53125 121.558594 44.023438 121.558594 45.015625 L 121.847656 54.097656 L 121.921875 55.945312 L 121.632812 55.945312 L 121.632812 56.9375 L 122.9375 71.34375 C 123.757812 74.699219 124.316406 79.503906 124.605469 85.746094 C 124.652344 87.402344 124.992188 89.792969 125.621094 92.914062 C 125.574219 94.378906 126.082031 96.792969 127.144531 100.152344 L 128.015625 114.628906 C 128.015625 116.1875 126.371094 118.390625 123.082031 121.226562 L 118.078125 125.554688 L 118.367188 125.910156 L 118.585938 125.839844 L 124.894531 120.445312 L 126.273438 119.097656 C 126.128906 120.613281 126.054688 123.046875 126.054688 126.40625 L 126.054688 132.9375 L 126.128906 133.21875 L 126.054688 133.21875 L 126.054688 133.574219 C 126.054688 136.082031 126.371094 138.351562 127 140.386719 L 126.855469 150.960938 C 126.855469 160.042969 127.046875 165.765625 127.433594 168.132812 C 127.917969 171.160156 129.804688 177.996094 133.089844 188.640625 L 133.382812 188.710938 L 133.238281 189.421875 L 133.527344 201.058594 C 133.769531 202.289062 134.613281 204.25 136.066406 206.949219 L 136.71875 209.078125 L 136.71875 212.980469 L 136.789062 231.710938 L 137.007812 231.855469 C 137.054688 235.875 137.734375 245.550781 139.039062 260.878906 C 140.394531 277.007812 141.070312 286.871094 141.070312 290.46875 L 140.417969 300.898438 L 140.417969 301.609375 L 140.707031 302.175781 L 140.707031 303.59375 C 141.046875 305.109375 141.433594 310.3125 141.867188 319.207031 C 142.0625 323.324219 142.472656 326.136719 143.101562 327.652344 L 142.59375 327.652344 L 125.695312 329.140625 L 124.96875 329.636719 L 124.386719 329.425781 L 124.316406 329.355469 L 124.316406 329 C 124.316406 328.621094 124.460938 328.40625 124.75 328.359375 L 124.75 328.289062 C 127.941406 319.917969 129.5625 313.03125 129.609375 307.640625 L 130.191406 287.132812 C 130.191406 285.003906 129.03125 279.585938 126.707031 270.882812 C 124.386719 262.179688 123.226562 256.429688 123.226562 253.640625 L 123.589844 252.789062 C 123.492188 251.179688 123.46875 248.957031 123.519531 246.117188 L 123.953125 230.152344 C 123.953125 227.40625 122.210938 223.148438 118.730469 217.378906 L 114.523438 210.992188 C 113.507812 209.574219 111.839844 208.128906 109.519531 206.664062 L 106.472656 204.605469 C 106.472656 204.085938 106.738281 203.824219 107.269531 203.824219 L 107.34375 203.824219 C 107.199219 203.730469 107.125 203.566406 107.125 203.328125 C 113.074219 196.707031 116.046875 190.769531 116.046875 185.515625 C 116.046875 184.617188 115.585938 182.796875 114.667969 180.054688 C 113.75 177.308594 113.292969 175.582031 113.292969 174.875 L 113.292969 157.914062 L 113.4375 154.292969 L 113.4375 150.960938 C 115.175781 146.230469 116.046875 142.300781 116.046875 139.179688 L 115.320312 135.5625 L 105.386719 137.265625 L 104.371094 137.121094 L 112.128906 131.375 L 114.160156 129.671875 L 113.652344 127.1875 L 114.304688 126.265625 L 114.160156 125.980469 C 113.195312 123.949219 112.664062 122.269531 112.566406 120.945312 C 112.128906 117.914062 111.914062 115.242188 111.914062 112.925781 C 114.28125 98.96875 115.46875 90.097656 115.46875 86.316406 L 113.4375 72.050781 C 113.4375 71.71875 113.507812 71.484375 113.652344 71.34375 L 113.074219 68.21875 L 111.695312 60.910156 L 108.867188 53.671875 L 106.835938 50.054688 C 101.46875 51.945312 97.480469 52.890625 94.867188 52.890625 C 92.160156 52.890625 90.203125 52.492188 88.992188 51.6875 C 87.929688 50.691406 86.9375 49.984375 86.019531 49.558594 L 79.128906 46.789062 C 79.273438 46.128906 80.074219 45.703125 81.523438 45.511719 C 82.730469 45.371094 83.214844 45.109375 82.972656 44.730469 L 91.675781 44.378906 L 98.929688 44.875 L 99.726562 45.085938 L 106.980469 45.15625 L 103.425781 34.726562 C 102.410156 31.320312 99.4375 27.347656 94.507812 22.804688 L 93.417969 21.8125 C 93.417969 21.339844 93.707031 21.101562 94.289062 21.101562 C 94.867188 21.101562 95.667969 21.597656 96.683594 22.59375 C 107.511719 21.410156 113.605469 19.894531 114.960938 18.050781 L 114.960938 18.191406 M 84.640625 188 L 84.570312 187.078125 C 84.570312 185.46875 84.761719 184.5 85.148438 184.167969 L 85.078125 183.957031 L 85.222656 183.8125 L 85.367188 183.671875 C 86.429688 184.808594 88.363281 186.464844 91.167969 188.640625 L 84.785156 188.640625 L 84.640625 188 M 75.792969 82.765625 L 75.574219 82.695312 L 75.792969 81.84375 L 75.722656 77.019531 C 75.722656 72.996094 77.339844 68.691406 80.582031 64.105469 L 85.367188 56.582031 L 85.003906 56.085938 L 77.679688 66.941406 C 75.890625 70.066406 74.996094 73.421875 74.996094 77.019531 L 75.503906 95.46875 L 75.429688 95.539062 L 75.359375 95.46875 L 75.214844 95.824219 L 75.066406 95.46875 C 74.828125 95.609375 74.707031 96.34375 74.707031 97.667969 L 74.707031 97.738281 C 74.320312 99.488281 74.003906 101.808594 73.761719 104.695312 L 73.761719 104.765625 L 73.691406 105.191406 L 73.691406 105.261719 L 73.253906 110.511719 L 72.746094 118.601562 L 63.027344 118.390625 L 62.957031 118.035156 C 62.519531 118.035156 62.304688 117.75 62.304688 117.183594 L 62.304688 116.828125 L 62.375 116.6875 L 62.664062 116.332031 L 62.808594 116.046875 L 63.171875 115.691406 C 64.914062 111.007812 65.785156 107.578125 65.785156 105.402344 C 65.785156 102.28125 65.421875 100.011719 64.695312 98.589844 C 64.40625 97.738281 64.261719 95.492188 64.261719 91.851562 L 64.261719 87.519531 L 64.769531 87.378906 L 61.433594 78.722656 C 60.5625 76.074219 57.683594 71.648438 52.800781 65.453125 L 41.050781 52.394531 C 41.050781 52.207031 41.511719 52.113281 42.429688 52.113281 C 44.074219 52.113281 46.273438 52.464844 49.03125 53.175781 L 49.175781 53.246094 L 50.046875 53.460938 L 49.972656 53.742188 L 49.753906 53.742188 C 51.300781 55.117188 55.242188 58.261719 61.578125 63.183594 L 68.175781 69.640625 C 70.59375 72.050781 72.117188 73.257812 72.746094 73.257812 L 73.109375 73.046875 L 62.519531 63.039062 L 54.6875 56.867188 L 52.582031 55.304688 L 52.582031 55.234375 C 52.292969 55.234375 50.167969 52.066406 46.203125 45.726562 L 45.984375 45.511719 C 46.128906 45.324219 46.394531 45.230469 46.78125 45.230469 C 48.570312 45.230469 53.695312 46.03125 62.15625 47.640625 L 78.113281 50.480469 C 83.144531 51.425781 87.082031 53.105469 89.9375 55.519531 C 91.726562 57.03125 94.917969 59.160156 99.511719 61.90625 C 99.511719 62.613281 94.988281 66.089844 85.949219 72.335938 C 80.53125 76.027344 77.242188 79.480469 76.082031 82.695312 L 75.867188 82.765625 L 75.792969 82.765625 M 21.105469 110.726562 L 20.597656 103.132812 C 23.355469 105.449219 24.972656 106.609375 25.457031 106.609375 L 25.601562 106.609375 L 25.601562 106.398438 L 25.746094 106.398438 L 25.964844 106.324219 L 35.613281 114.484375 L 35.539062 114.769531 L 34.160156 114.769531 L 24.949219 113.136719 L 21.105469 111.222656 L 20.960938 111.078125 L 21.105469 110.726562 M 24.734375 54.808594 L 29.808594 58.710938 L 37.425781 62.332031 L 41.921875 66.019531 L 43.226562 67.4375 L 44.386719 69.425781 L 46.203125 70.277344 L 46.273438 70.5625 C 46.273438 70.84375 45.8125 70.988281 44.894531 70.988281 C 40.980469 70.988281 38.078125 70.46875 36.191406 69.425781 C 34.789062 68.621094 32.710938 66.585938 29.953125 63.324219 C 26.570312 59.398438 24.734375 56.582031 24.441406 54.878906 L 24.734375 54.808594 M 71.222656 140.316406 L 71.007812 140.316406 L 70.859375 140.171875 L 71.222656 140.03125 L 71.222656 140.316406 M 101.613281 142.160156 C 105.867188 141.074219 109.179688 140.527344 111.550781 140.527344 L 111.839844 140.953125 C 111.839844 141.664062 110.339844 142.65625 107.34375 143.933594 C 104.007812 145.355469 100.863281 146.0625 97.914062 146.0625 C 95.738281 146.0625 94.652344 145.851562 94.652344 145.425781 C 94.652344 144.429688 96.972656 143.34375 101.613281 142.160156 M 20.019531 173.597656 L 19.726562 173.597656 L 19.65625 173.3125 L 20.019531 173.097656 L 20.089844 171.679688 L 20.742188 167.917969 L 20.816406 167.5625 L 20.816406 167.421875 L 21.832031 161.25 L 22.847656 161.746094 L 25.023438 162.667969 L 30.316406 164.65625 C 39.359375 166.359375 45.28125 167.210938 48.085938 167.210938 L 55.484375 166.785156 L 66.945312 166.289062 L 66.582031 169.054688 L 66.65625 169.195312 L 66.582031 169.480469 L 66.507812 169.550781 C 66.121094 172.671875 65.929688 175.371094 65.929688 177.640625 C 65.929688 181.09375 66.269531 184.335938 66.945312 187.363281 C 66.703125 187.550781 66.507812 187.976562 66.363281 188.640625 C 66.121094 189.871094 66.074219 191.878906 66.21875 194.671875 L 64.839844 199.070312 L 64.695312 202.335938 C 64.695312 204.085938 64.9375 206.308594 65.421875 209.003906 L 65.058594 209.003906 L 64.988281 209.855469 L 66.21875 219.507812 C 65.785156 219.554688 65.566406 220.050781 65.566406 220.996094 C 65.566406 221.660156 66.121094 225.042969 67.234375 231.144531 C 68.296875 238.144531 68.832031 244.082031 68.832031 248.957031 C 68.832031 265.230469 67.113281 282.449219 63.679688 300.613281 L 63.679688 301.75 L 63.753906 301.820312 L 63.246094 304.234375 L 61.941406 312.394531 C 61.167969 315.800781 60.78125 320.4375 60.78125 326.300781 L 60.78125 331.835938 L 48.8125 331.410156 L 48.304688 331.484375 L 47.722656 331.339844 L 47.507812 330.914062 C 47.507812 330.488281 47.699219 330.253906 48.085938 330.207031 C 47.84375 328.929688 47.722656 326.375 47.722656 322.542969 L 47.722656 314.167969 C 47.722656 302.4375 47.941406 295.222656 48.378906 292.527344 L 52.074219 271.023438 C 52.898438 266.386719 53.238281 257.636719 53.089844 244.769531 C 52.996094 236.441406 53.042969 231.214844 53.238281 229.085938 L 53.019531 228.730469 L 52.730469 227.808594 C 52.632812 227.429688 51.929688 226.816406 50.625 225.964844 C 49.417969 225.207031 48.8125 224.023438 48.8125 222.417969 L 51.929688 203.542969 C 53.089844 199.238281 53.71875 196.066406 53.816406 194.03125 L 53.382812 184.664062 C 53.382812 184.144531 53.453125 183.765625 53.597656 183.53125 L 53.597656 183.316406 C 53.597656 182.183594 53.671875 181.402344 53.816406 180.976562 L 53.816406 180.691406 L 54.46875 172.460938 L 54.105469 170.898438 L 54.105469 170.757812 L 37.933594 169.835938 L 34.8125 168.558594 C 31.285156 166.996094 28.648438 166.214844 26.910156 166.214844 C 25.214844 166.214844 24.226562 167.164062 23.933594 169.054688 L 22.847656 173.597656 L 20.019531 173.597656 M 55.773438 180.976562 L 55.339844 176.152344 C 55.339844 178.609375 55.484375 180.859375 55.773438 182.890625 L 55.773438 180.976562 M 55.339844 186.582031 L 55.558594 186.722656 L 55.773438 183.246094 L 55.414062 183.671875 L 55.339844 186.582031 "/>
<path style=" stroke:none;fill-rule:evenodd;fill:rgb(100%,100%,100%);fill-opacity:1;" d="M 23.789062 117.75 C 24.417969 118.175781 25.433594 118.4375 26.835938 118.53125 C 27.753906 118.71875 28.042969 118.910156 27.707031 119.097656 L 41.996094 119.242188 L 72.457031 119.097656 L 72.675781 119.027344 L 72.382812 123.640625 L 57.082031 124.066406 L 41.414062 122.859375 L 29.375 122.222656 L 23.355469 121.441406 L 22.558594 121.441406 L 21.976562 117.039062 L 23.789062 117.75 M 22.628906 122.648438 L 22.628906 122.148438 L 61.433594 124.773438 L 72.3125 124.632812 L 72.238281 125.699219 L 72.3125 125.839844 L 72.023438 129.105469 L 66.871094 129.882812 L 63.535156 130.382812 L 62.738281 130.59375 L 43.878906 130.808594 L 28.9375 129.246094 L 23.71875 129.246094 L 22.773438 129.386719 L 22.628906 122.648438 M 25.3125 129.957031 L 30.679688 130.238281 L 34.453125 130.664062 C 36.09375 130.902344 36.796875 131.113281 36.554688 131.304688 L 52.875 131.515625 L 67.015625 130.59375 L 72.023438 129.8125 L 71.949219 131.660156 L 71.367188 139.320312 L 69.265625 139.890625 L 62.519531 139.535156 L 53.089844 137.761719 L 40.980469 135.347656 L 29.953125 133.21875 L 23.28125 130.167969 L 25.3125 129.957031 M 22.992188 134.355469 L 22.847656 131.304688 C 25.84375 133.480469 39.527344 136.601562 63.898438 140.671875 L 66.945312 140.671875 C 65.6875 140.859375 61.648438 140.953125 54.832031 140.953125 C 49.609375 140.953125 42.769531 140.125 34.304688 138.46875 L 22.992188 134.355469 M 23.5 150.535156 L 23.5 150.320312 L 23.355469 149.257812 L 23.5 145.28125 C 25.964844 146.511719 29.179688 147.648438 33.144531 148.6875 C 36.480469 149.585938 41.414062 150.203125 47.941406 150.535156 L 35.394531 150.746094 L 23.5 150.535156 M 34.015625 151.242188 L 41.558594 151.457031 L 50.046875 150.675781 L 62.738281 150.890625 L 70.0625 150.535156 L 69.484375 154.933594 L 69.554688 155.570312 C 69.167969 156.1875 68.804688 157.179688 68.46875 158.550781 L 66.65625 158.695312 L 62.957031 158.976562 C 42.890625 158.976562 29.519531 157.605469 22.847656 154.863281 L 23.425781 151.101562 L 34.015625 151.242188 M 67.089844 165.292969 L 67.015625 165.789062 L 64.550781 165.648438 L 48.160156 166.429688 C 42.503906 166.429688 36.578125 165.601562 30.390625 163.945312 L 25.167969 161.957031 L 48.015625 163.164062 L 58.386719 164.160156 L 67.453125 163.164062 L 67.089844 165.292969 M 68.25 159.332031 L 67.523438 162.738281 L 56.066406 163.449219 L 54.398438 163.023438 L 51.207031 163.164062 L 48.304688 162.457031 L 23.425781 161.179688 L 23.355469 161.179688 L 21.902344 160.609375 L 22.703125 155.644531 L 31.332031 157.699219 C 38.539062 159.027344 46.757812 159.6875 55.992188 159.6875 L 68.25 159.332031 "/>
<path style=" stroke:none;fill-rule:evenodd;fill:rgb(0%,20%,40.000001%);fill-opacity:1;" d="M 124.316406 329.355469 L 121.339844 329.78125 C 114.039062 330.253906 109.472656 330.820312 107.632812 331.484375 C 106.523438 326.46875 105.480469 322.992188 104.515625 321.050781 C 103.691406 319.441406 102.894531 315.707031 102.121094 309.839844 L 99.148438 287.273438 C 95.425781 262.675781 92.933594 248.175781 91.675781 243.777344 L 91.894531 242.144531 C 90.300781 229.371094 88.800781 221.210938 87.398438 217.664062 C 86.671875 215.722656 85.996094 212.835938 85.367188 209.003906 L 85.003906 209.003906 C 84.570312 204.984375 84.351562 201.816406 84.351562 199.496094 L 83.988281 188.640625 L 91.167969 188.640625 C 88.363281 186.464844 86.429688 184.808594 85.367188 183.671875 L 85.222656 183.671875 L 85.222656 182.253906 L 84.785156 170.261719 L 84.785156 169.195312 L 85.003906 168.628906 L 84.785156 166.570312 L 84.785156 166.074219 L 84.714844 166.214844 L 83.773438 162.953125 C 82.902344 160.398438 82.488281 158.199219 82.539062 156.351562 C 82.585938 154.695312 82.25 152.617188 81.523438 150.109375 L 79.78125 144.003906 C 76.542969 127.496094 74.511719 119.242188 73.691406 119.242188 L 73.472656 119.242188 L 73.980469 111.152344 L 75.214844 102.066406 L 76.15625 106.679688 L 76.664062 106.539062 L 76.882812 106.609375 L 76.734375 105.191406 L 75.648438 100.292969 L 75.722656 99.511719 L 76.011719 99.371094 L 75.792969 82.765625 L 75.867188 82.765625 L 76.082031 82.695312 C 77.242188 79.480469 80.53125 76.027344 85.949219 72.335938 C 94.988281 66.089844 99.511719 62.613281 99.511719 61.90625 C 94.917969 59.160156 91.726562 57.03125 89.9375 55.519531 C 87.082031 53.105469 83.144531 51.425781 78.113281 50.480469 L 62.15625 47.640625 C 53.695312 46.03125 48.570312 45.230469 46.78125 45.230469 C 46.394531 45.230469 46.128906 45.324219 45.984375 45.511719 L 45.910156 45.65625 L 46.203125 45.726562 C 50.167969 52.066406 52.292969 55.234375 52.582031 55.234375 L 52.582031 55.304688 L 49.390625 53.035156 L 49.03125 53.105469 L 49.03125 53.175781 C 46.273438 52.464844 44.074219 52.113281 42.429688 52.113281 C 41.511719 52.113281 41.050781 52.207031 41.050781 52.394531 L 52.800781 65.453125 C 57.683594 71.648438 60.5625 76.074219 61.433594 78.722656 L 64.769531 87.378906 L 64.261719 87.519531 L 64.261719 91.851562 C 64.261719 95.492188 64.40625 97.738281 64.695312 98.589844 C 65.421875 100.011719 65.785156 102.28125 65.785156 105.402344 C 65.785156 107.578125 64.914062 111.007812 63.171875 115.691406 L 62.808594 116.046875 L 62.664062 116.332031 L 62.375 116.6875 L 62.304688 116.828125 L 62.304688 117.183594 C 62.304688 117.75 62.519531 118.035156 62.957031 118.035156 L 62.957031 118.390625 L 29.738281 118.390625 L 28.722656 118.105469 L 24.878906 117.394531 C 23.523438 116.6875 22.507812 116.238281 21.832031 116.046875 L 21.105469 112.074219 L 21.105469 111.222656 L 24.949219 113.136719 L 34.160156 114.769531 L 35.539062 114.769531 L 35.613281 114.484375 L 25.964844 106.324219 L 25.746094 106.398438 C 25.507812 106.113281 24.585938 105.332031 22.992188 104.054688 L 20.378906 102.066406 L 20.234375 101.359375 L 20.019531 101.855469 L 19.726562 101.714844 L 19.367188 101.785156 L 19.367188 101.855469 L 17.042969 99.9375 C 16.367188 99.324219 16.027344 98.496094 16.027344 97.457031 C 16.027344 96.839844 16.683594 93.246094 17.988281 86.667969 C 19.246094 80.140625 19.875 73.847656 19.875 67.792969 L 19.875 63.679688 L 19.726562 61.054688 L 19.726562 60.839844 L 19.800781 60.980469 L 19.800781 61.054688 L 20.164062 60.910156 C 20.261719 54.242188 20.9375 47.734375 22.195312 41.398438 C 23.402344 35.246094 24.007812 29.355469 24.007812 23.726562 L 23.933594 18.832031 L 24.078125 17.484375 C 24.851562 19.28125 34.476562 20.84375 52.945312 22.167969 L 83.554688 23.65625 L 94.507812 22.804688 C 99.4375 27.347656 102.410156 31.320312 103.425781 34.726562 L 106.980469 45.15625 L 99.726562 45.085938 L 98.929688 44.875 L 91.675781 44.378906 L 82.972656 44.730469 C 83.214844 45.109375 82.730469 45.371094 81.523438 45.511719 C 80.074219 45.703125 79.273438 46.128906 79.128906 46.789062 L 86.019531 49.558594 C 86.9375 49.984375 87.929688 50.691406 88.992188 51.6875 C 90.203125 52.492188 92.160156 52.890625 94.867188 52.890625 C 97.480469 52.890625 101.46875 51.945312 106.835938 50.054688 L 108.867188 53.671875 L 111.695312 60.910156 L 113.074219 68.21875 L 113.652344 71.34375 C 113.507812 71.484375 113.4375 71.71875 113.4375 72.050781 L 115.46875 86.316406 C 115.46875 90.097656 114.28125 98.96875 111.914062 112.925781 C 111.914062 115.242188 112.128906 117.914062 112.566406 120.945312 C 112.664062 122.269531 113.195312 123.949219 114.160156 125.980469 L 114.304688 126.265625 L 113.652344 127.1875 L 114.160156 129.671875 L 112.128906 131.375 L 104.371094 137.121094 L 105.386719 137.265625 L 115.320312 135.5625 L 116.046875 139.179688 C 116.046875 142.300781 115.175781 146.230469 113.4375 150.960938 L 113.4375 154.292969 L 113.292969 157.914062 L 113.292969 174.875 C 113.292969 175.582031 113.75 177.308594 114.667969 180.054688 C 115.585938 182.796875 116.046875 184.617188 116.046875 185.515625 C 116.046875 190.769531 113.074219 196.707031 107.125 203.328125 C 107.125 203.566406 107.199219 203.730469 107.34375 203.824219 L 107.269531 203.824219 C 106.738281 203.824219 106.472656 204.085938 106.472656 204.605469 L 109.519531 206.664062 C 111.839844 208.128906 113.507812 209.574219 114.523438 210.992188 L 118.730469 217.378906 C 122.210938 223.148438 123.953125 227.40625 123.953125 230.152344 L 123.519531 246.117188 C 123.46875 248.957031 123.492188 251.179688 123.589844 252.789062 L 123.226562 253.640625 C 123.226562 256.429688 124.386719 262.179688 126.707031 270.882812 C 129.03125 279.585938 130.191406 285.003906 130.191406 287.132812 L 129.609375 307.640625 C 129.5625 313.03125 127.941406 319.917969 124.75 328.289062 L 124.75 328.359375 C 124.460938 328.40625 124.316406 328.621094 124.316406 329 L 124.316406 329.355469 M 24.734375 54.808594 L 24.441406 54.878906 C 24.734375 56.582031 26.570312 59.398438 29.953125 63.324219 C 32.710938 66.585938 34.789062 68.621094 36.191406 69.425781 C 38.078125 70.46875 40.980469 70.988281 44.894531 70.988281 C 45.8125 70.988281 46.273438 70.84375 46.273438 70.5625 L 46.203125 70.277344 L 44.386719 69.425781 L 43.226562 67.4375 L 41.921875 66.019531 L 37.425781 62.332031 L 29.808594 58.710938 L 24.734375 54.808594 M 79.855469 134.214844 L 79.710938 133.644531 L 79.855469 134.78125 L 79.855469 134.214844 M 101.613281 142.160156 C 96.972656 143.34375 94.652344 144.429688 94.652344 145.425781 C 94.652344 145.851562 95.738281 146.0625 97.914062 146.0625 C 100.863281 146.0625 104.007812 145.355469 107.34375 143.933594 C 110.339844 142.65625 111.839844 141.664062 111.839844 140.953125 L 111.550781 140.527344 C 109.179688 140.527344 105.867188 141.074219 101.613281 142.160156 M 47.722656 331.339844 L 41.847656 331.269531 L 37.136719 330.84375 L 25.242188 329.78125 L 24.949219 329.78125 L 25.023438 327.652344 L 25.167969 322.328125 C 25.699219 319.066406 25.964844 316.085938 25.964844 313.386719 L 25.964844 308.351562 L 25.675781 305.15625 L 25.964844 303.59375 L 22.265625 278.476562 L 20.164062 261.375 L 19.945312 259.953125 L 19.003906 254.917969 C 19.292969 254.773438 19.4375 254.371094 19.4375 253.710938 C 18.472656 249.59375 17.988281 245.125 17.988281 240.296875 C 17.988281 237.175781 18.445312 233.296875 19.367188 228.660156 C 20.285156 224.023438 20.742188 220.335938 20.742188 217.589844 L 20.453125 210.992188 L 20.742188 210.851562 L 20.742188 210.425781 L 20.308594 206.097656 L 20.597656 200.207031 L 20.960938 194.246094 L 20.671875 189.421875 L 20.597656 188.640625 L 19.875 185.660156 L 20.019531 173.597656 L 22.847656 173.597656 L 23.933594 169.054688 C 24.226562 167.164062 25.214844 166.214844 26.910156 166.214844 C 28.648438 166.214844 31.285156 166.996094 34.8125 168.558594 L 37.933594 169.835938 L 54.105469 170.757812 L 54.105469 170.898438 L 54.46875 172.460938 L 53.816406 180.691406 L 53.816406 180.976562 C 53.671875 181.402344 53.597656 182.183594 53.597656 183.316406 L 53.597656 183.53125 C 53.453125 183.765625 53.382812 184.144531 53.382812 184.664062 L 53.816406 194.03125 C 53.71875 196.066406 53.089844 199.238281 51.929688 203.542969 L 48.8125 222.417969 C 48.8125 224.023438 49.417969 225.207031 50.625 225.964844 C 51.929688 226.816406 52.632812 227.429688 52.730469 227.808594 L 53.019531 228.730469 L 53.238281 229.085938 C 53.042969 231.214844 52.996094 236.441406 53.089844 244.769531 C 53.238281 257.636719 52.898438 266.386719 52.074219 271.023438 L 48.378906 292.527344 C 47.941406 295.222656 47.722656 302.4375 47.722656 314.167969 L 47.722656 322.542969 C 47.722656 326.375 47.84375 328.929688 48.085938 330.207031 C 47.699219 330.253906 47.507812 330.488281 47.507812 330.914062 L 47.722656 331.339844 M 23.0625 188.640625 L 23.71875 188.640625 L 23.355469 188.425781 L 23.210938 188.496094 L 22.847656 188 L 22.195312 188.640625 L 23.0625 188.640625 "/>
<path style=" stroke:none;fill-rule:evenodd;fill:rgb(20%,20%,20%);fill-opacity:1;" d="M 20.378906 116.402344 L 20.742188 116.542969 L 21.542969 121.722656 L 21.542969 122.007812 L 21.902344 124.066406 L 22.265625 130.167969 L 22.195312 130.382812 L 22.265625 130.664062 L 22.484375 134.425781 L 22.339844 134.78125 L 22.484375 134.851562 L 22.773438 143.933594 L 22.773438 144.644531 L 22.628906 144.855469 L 22.773438 144.929688 L 22.628906 149.683594 L 22.917969 149.753906 L 22.773438 150.535156 L 22.703125 150.535156 L 22.484375 150.675781 L 22.558594 151.03125 L 22.703125 151.03125 L 22.050781 154.933594 L 21.542969 155.359375 L 21.976562 155.5 L 21.613281 157.488281 L 21.179688 160.253906 L 20.960938 160.183594 L 20.597656 160.253906 L 20.527344 160.46875 L 21.035156 160.894531 L 20.164062 166.214844 L 20.089844 167.210938 L 11.460938 166.785156 L 9.863281 166.003906 C 9.476562 165.339844 9.285156 164.65625 9.285156 163.945312 L 9.285156 159.828125 C 9.285156 156.753906 9.597656 153.703125 10.226562 150.675781 C 10.808594 147.601562 11.097656 144.382812 11.097656 141.023438 L 10.953125 116.96875 C 11.195312 110.441406 14.238281 107.933594 20.089844 109.449219 L 20.671875 115.90625 C 20.378906 115.953125 20.285156 116.117188 20.378906 116.402344 M 71.222656 140.316406 L 70.136719 149.964844 L 62.738281 150.109375 C 47.507812 150.109375 36.554688 149.160156 29.882812 147.269531 C 27.949219 146.75 26.328125 146.109375 25.023438 145.355469 L 23.5 144.574219 L 23.5 143.933594 L 22.992188 135.136719 C 26.910156 136.980469 30.125 138.28125 32.636719 139.039062 C 38.296875 140.789062 47.167969 141.664062 59.257812 141.664062 L 69.484375 140.671875 L 70.933594 140.671875 L 71.007812 140.316406 L 71.222656 140.316406 "/>
<path style="fill:none;stroke-width:1;stroke-linecap:round;stroke-linejoin:round;stroke:rgb(0%,0%,0%);stroke-opacity:1;stroke-miterlimit:4;" d="M 76.099231 -1.350818 L 74.949375 -0.800334 L 69.900241 0.198794 L 64.999216 1.698862 C 62.699504 2.3677 60.666386 2.717257 58.899862 2.750286 L 38.649471 2.750286 L 24.600762 0.198794 C 22.066771 -0.266365 19.465457 -1.067319 16.799515 -2.201315 L 16.699878 -2.049932 L 16.449441 -2.149019 L 15.251114 0.300633 L 14.949512 0.600647 L 15.000677 1.800701 C 15.000677 3.033785 14.866033 3.95034 14.599439 4.550368 L 14.90104 4.850381 L 14.798711 8.849646 C 14.798711 12.083738 14.599439 14.582934 14.200894 16.349987 C 12.999873 21.450218 12.367049 26.132083 12.299727 30.401084 C 12.000818 31.067169 11.850017 32.250709 11.850017 33.948952 C 11.850017 35.115977 11.933496 35.834358 12.100454 36.101343 L 12.100454 38.650083 C 12.100454 41.584161 11.965811 43.816373 11.699217 45.34947 L 9.450669 58.750996 C 9.450669 59.549198 9.666099 60.251065 10.099651 60.851092 L 12.6498 62.598878 L 12.601328 63.449375 L 12.700965 66.851365 L 10.199287 66.699982 C 8.567407 66.699982 7.533345 67.01651 7.099793 67.649566 C 6.701248 68.249593 6.316167 69.934074 5.949937 72.700254 C 5.750664 74.032425 5.750664 76.116006 5.949937 78.950997 L 6.049573 90.80016 C 5.882615 93.16724 5.599863 95.366422 5.201319 97.40046 C 4.932031 98.867499 4.800081 100.651066 4.800081 102.751162 C 4.800081 104.851257 4.88356 106.150399 5.050518 106.651339 C 5.548699 108.217465 6.817041 108.800978 8.850159 108.399125 L 12.6498 108.399125 C 12.183933 112.4672 11.949654 116.16645 11.949654 119.499629 L 11.949654 120.1492 M 45.5513 122.051121 C 45.082741 119.71707 44.851154 117.449077 44.851154 115.249895 C 44.851154 112.71767 45.233541 109.483578 46.00101 105.550371 L 46.149117 104.900801 L 46.749628 102.151134 L 46.849264 101.999751 L 46.800792 101.851121 L 47.051229 100.549227 L 47.150866 100.59877 L 47.799848 95.949935 L 47.950648 95.699465 L 47.899484 95.649921 L 47.851012 95.649921 C 48.583473 89.916633 49.033183 85.149444 49.200141 81.351106 L 49.399413 81.199723 L 49.350941 80.998797 L 49.251305 80.998797 L 49.299777 77.899573 L 49.299777 77.750943 L 49.450578 75.248994 M 56.750951 109.299166 C 57.017546 112.4672 57.149496 115.516879 57.149496 118.450958 L 57.04986 120.999697 L 56.699787 122.549309 M 91.050051 122.750236 C 89.71708 118.850058 88.316787 113.433299 86.849172 106.499956 L 86.849172 86.250412 L 86.749536 86.151324 L 86.299827 79.851038 C 86.43447 77.250002 86.383306 75.215965 86.149026 73.748926 C 87.150774 72.617682 87.648955 71.64883 87.648955 70.850629 L 87.051138 60.551078 C 86.315984 58.183998 85.965911 56.449974 86.000918 55.349007 C 85.567366 52.984679 85.333086 51.250656 85.300771 50.149688 C 85.066492 46.249511 84.632939 42.80073 84.000115 39.800594 L 83.248804 30.200157 L 83.351133 30.150614 L 83.399604 28.601002 L 83.200332 21.898863 C 83.13301 21.034603 82.782937 19.884092 82.150112 18.450082 C 81.417651 16.782116 80.984099 15.667387 80.849455 15.100388 C 79.548799 11.965384 78.883659 9.700143 78.851345 8.299162 L 78.749016 3.95034 M 15.498858 1.850245 L 15.35075 0.851117 L 15.550022 -0.048924 C 15.749295 -0.750791 16.050896 -1.334304 16.449441 -1.799462 L 16.500606 -1.849006 L 16.500606 -1.901302 L 16.600242 -1.799462 L 16.549078 -1.700375 C 18.916111 -0.833363 21.749012 -0.0654385 25.050472 0.600647 L 38.649471 3.30077 L 58.800226 3.30077 C 62.898776 2.865887 66.399509 2.084201 69.299731 0.950204 C 70.500751 0.449264 71.866037 0.0666776 73.400974 -0.200307 L 75.199812 -0.599408 L 76.400832 -0.648951 M 78.151198 2.898916 L 78.350471 9.001029 C 78.417793 9.700143 78.749016 10.765329 79.349526 12.199339 C 79.950036 13.567291 80.283952 14.632477 80.351274 15.400402 C 80.415903 16.132545 80.817141 17.216998 81.549602 18.651009 C 82.31707 20.049237 82.699458 21.100661 82.699458 21.799776 L 82.89873 28.199149 L 82.949895 29.501043 L 82.750622 29.501043 L 82.750622 30.200157 L 83.650041 40.351078 C 84.215544 42.715405 84.600625 46.10088 84.799897 50.499245 C 84.832212 51.666271 85.066492 53.350751 85.500044 55.549934 C 85.467729 56.582091 85.817803 58.283085 86.550264 60.650165 L 87.150774 70.850629 C 87.150774 71.948844 86.017075 73.501208 83.749678 75.499464 L 80.30011 78.549144 L 80.499382 78.799614 M 49.550214 74.200323 L 49.550214 74.101235 L 49.900287 68.400976 L 50.751234 61.99885 L 51.400216 65.249457 M 51.149779 48.39915 L 50.998978 48.349606 L 51.149779 47.749579 L 51.101308 44.350342 C 51.101308 41.515351 52.216156 38.482185 54.451239 35.250846 L 57.750006 29.949687 L 57.499569 29.60013 L 52.450436 37.249102 C 51.217101 39.451037 50.600434 41.815364 50.600434 44.350342 L 50.950507 57.350015 M 49.701015 64.250329 L 49.399413 67.94958 L 49.04934 73.649839 L 42.349476 73.501208 L 19.400828 73.501208 L 18.700682 73.300282 L 16.050896 72.799341 C 15.11647 72.301154 14.416324 71.984625 13.950457 71.849757 L 13.449583 69.050547 L 13.449583 68.45052 M 16.648714 65.051283 C 16.484449 64.850356 15.848931 64.299873 14.75024 63.399832 L 12.948709 61.99885 L 12.849073 61.500663 L 12.700965 61.85022 L 12.498999 61.751133 L 12.251255 61.800676 M 12.251255 61.85022 L 10.648997 60.498782 C 10.18313 60.066653 9.94885 59.48314 9.94885 58.750996 C 9.94885 58.316114 10.401253 55.783889 11.300672 51.148816 C 12.167776 46.549524 12.601328 42.115378 12.601328 37.849129 L 12.601328 34.950832 L 12.498999 33.101207 L 12.498999 32.949824 L 12.550164 33.048911 L 12.550164 33.101207 L 12.800601 32.999367 C 12.867923 28.300989 13.333789 23.715459 14.200894 19.251036 C 15.032991 14.915976 15.450386 10.765329 15.450386 6.799094 L 15.399222 3.350313 L 15.498858 2.400729 M 35.148739 29.049646 L 36.600196 30.150614 L 41.999403 34.499435 L 49.299777 41.551132 L 49.04934 41.699763 C 48.615787 41.699763 47.565568 40.849265 45.89868 39.151023 L 41.350421 34.601275 C 36.982584 31.133227 34.265477 28.91753 33.1991 27.948679 L 33.349901 27.948679 L 33.401065 27.750505 L 32.800555 27.599122 M 15.498858 1.949332 L 15.498858 1.850245 M 14.499803 76.501345 L 14.599439 81.249267 L 15.251114 81.15018 L 18.84879 81.15018 L 29.149022 82.251147 L 42.150204 82.099764 L 42.69955 81.951134 L 44.999262 81.598824 L 48.551159 81.051093 L 48.750431 78.750071 L 48.699266 78.650984 L 48.750431 77.899573 L 41.250785 77.99866 L 14.499803 76.149035 L 14.499803 76.501345 M 47.851012 88.950534 L 47.799848 89.201004 L 46.800792 89.201004 L 39.750856 89.900119 C 31.416419 89.900119 25.300909 89.283577 21.398939 88.050493 C 19.667422 87.516524 17.451189 86.599969 14.75024 85.300827 L 15.100313 91.499274 L 15.100313 91.950671 L 16.150533 92.501154 C 17.049952 93.032371 18.167493 93.483768 19.500464 93.84984 C 24.099888 95.18201 31.650699 95.850848 42.150204 95.850848 L 47.250502 95.749008 L 47.99912 88.950534 M 47.851012 88.950534 L 47.748683 88.848695 L 47.99912 88.749608 L 47.99912 88.950534 M 22.349522 96.649049 L 15.049148 96.549962 L 14.650603 99.200541 C 19.250027 101.132739 28.467725 102.098838 42.301005 102.098838 L 44.851154 101.900664 L 46.100646 101.798825 C 46.332233 100.832726 46.58267 100.133611 46.849264 99.698729 L 46.800792 99.250085 L 47.199337 96.150862 L 42.150204 96.401332 L 33.401065 96.249949 L 27.549456 96.800432 L 22.349522 96.649049 M 45.150062 106.549499 L 45.400499 105.049431 L 39.150345 105.751298 L 32.000772 105.049431 L 16.250169 104.198934 L 19.850538 105.599915 C 24.116046 106.76694 28.201131 107.350453 32.100409 107.350453 L 43.399696 106.799969 L 45.098898 106.899057 L 45.150062 106.549499 M 45.949845 102.349308 L 37.499615 102.599779 C 31.133668 102.599779 25.467867 102.13462 20.49952 101.198797 L 14.550967 99.751025 L 13.998929 103.249349 L 15.000677 103.651203 L 15.049148 103.651203 L 32.200045 104.551243 L 34.200848 105.049431 L 36.400924 104.950344 L 37.55078 105.250358 L 45.448971 104.749418 L 45.949845 102.349308 " transform="matrix(1.450589,0,0,1.419206,1.595648,14.077246)"/>
</g>
</svg>
