<?xml version="1.0" encoding="UTF-8"?>
<svg xmlns="http://www.w3.org/2000/svg" xmlns:xlink="http://www.w3.org/1999/xlink" width="160px" height="333px" viewBox="0 0 160 333" version="1.1">
<g id="surface1">
<path style=" stroke:none;fill-rule:evenodd;fill:rgb(0%,0%,0%);fill-opacity:1;" d="M 112.710938 8.117188 L 111.914062 5.917969 C 111.914062 5.585938 111.671875 5.421875 111.1875 5.421875 L 106.835938 8.117188 L 107.199219 8.117188 L 105.675781 8.613281 L 104.226562 9.109375 L 99.4375 10.457031 C 88.511719 13.535156 78.164062 15.070312 68.394531 15.070312 C 64.625 15.070312 60.34375 14.289062 55.558594 12.730469 C 51.15625 11.027344 48.523438 10.078125 47.652344 9.890625 C 46.492188 9.652344 44.265625 8.589844 40.980469 6.699219 C 38.175781 5.042969 35.371094 4.214844 32.566406 4.214844 C 29.761719 4.214844 28.359375 5.65625 28.359375 8.542969 C 28.359375 9.441406 28.09375 10.457031 27.5625 11.59375 L 28.140625 11.523438 C 29.398438 11.523438 30.632812 11.972656 31.839844 12.871094 L 34.234375 14.433594 C 38.730469 15.1875 41.777344 16.0625 43.371094 17.058594 C 44.726562 17.910156 46.152344 18.335938 47.652344 18.335938 L 50.988281 18.335938 L 56.789062 19.613281 L 59.546875 21.171875 C 61.191406 22.070312 63.34375 22.523438 66 22.523438 C 81.523438 22.523438 93.25 21.246094 101.179688 18.691406 L 107.777344 15.992188 C 109.664062 15.1875 111.285156 14.785156 112.636719 14.785156 L 113.074219 14.859375 C 112.6875 12.632812 112.492188 10.578125 112.492188 8.683594 L 112.492188 8.117188 L 112.710938 8.117188 M 42.066406 5.347656 C 45.5 7.335938 47.507812 8.375 48.085938 8.472656 L 55.773438 11.238281 C 59.449219 12.753906 61.769531 13.507812 62.738281 13.507812 C 78.886719 13.507812 91.433594 11.878906 100.378906 8.613281 L 103.570312 7.335938 L 103.71875 7.40625 L 107.125 5.917969 L 111.769531 3.71875 C 112.542969 3.71875 113.460938 5.894531 114.523438 10.246094 L 114.453125 11.664062 L 114.378906 11.804688 C 115.105469 15.402344 116.144531 19.542969 117.496094 24.222656 C 118.125 26.542969 120.59375 33.355469 124.894531 44.660156 L 124.824219 45.867188 L 124.605469 46.007812 L 126.636719 61.195312 C 127.121094 65.5 129.367188 74.132812 133.382812 87.09375 C 136.960938 98.78125 138.75 107.699219 138.75 113.847656 L 138.53125 123.074219 C 138.335938 125.011719 137.949219 126.574219 137.371094 127.753906 L 137.296875 128.253906 L 135.121094 136.058594 L 136.136719 140.953125 L 137.007812 147.484375 L 136.355469 151.03125 C 136.355469 153.066406 137.226562 156.257812 138.964844 160.609375 C 140.902344 165.53125 141.964844 168.582031 142.15625 169.765625 C 142.542969 172.175781 143.632812 175.179688 145.421875 178.777344 L 150.207031 188.214844 C 156.734375 202.546875 160 214.847656 160 225.113281 C 160 229.65625 159.03125 234.3125 157.097656 239.09375 C 155.453125 242.972656 154.511719 245.527344 154.269531 246.757812 C 155.140625 247.703125 156.035156 251.203125 156.953125 257.257812 L 158.257812 268.042969 C 158.257812 271.828125 157.777344 274.429688 156.808594 275.851562 C 156.132812 276.890625 153.933594 278.710938 150.207031 281.3125 L 144.625 284.4375 C 141.382812 285.761719 139.472656 286.566406 138.894531 286.847656 C 133.769531 289.214844 122.695312 290.398438 105.675781 290.398438 C 102.726562 290.398438 99.316406 288.316406 95.449219 284.152344 C 92.304688 280.746094 90.492188 278.214844 90.007812 276.558594 C 88.460938 269.792969 87.203125 264.828125 86.238281 261.65625 C 85.414062 259.007812 84.375 253.496094 83.117188 245.125 C 82.007812 237.507812 81.449219 233.039062 81.449219 231.710938 L 81.742188 227.953125 L 80.289062 229.230469 C 80.675781 229.371094 80.871094 229.632812 80.871094 230.007812 L 80.289062 258.675781 L 80.871094 263.503906 L 79.273438 266.269531 C 78.210938 268.066406 77.65625 269.746094 77.605469 271.308594 L 76.734375 279.113281 C 76.347656 282.710938 75.332031 285.3125 73.691406 286.917969 L 69.121094 290.679688 L 66.800781 292.171875 L 64.769531 292.808594 L 52.367188 293.09375 C 40.664062 293.09375 32.878906 292.5 29.011719 291.320312 C 22.484375 288.480469 15.0625 285.382812 6.746094 282.023438 L 5.730469 283.441406 C 4.132812 282.589844 3.023438 281.597656 2.394531 280.460938 C 0.847656 279.988281 0.242188 277.789062 0.582031 273.863281 L 2.683594 259.175781 L 2.902344 244.414062 C 2.804688 239.445312 3.917969 234.550781 6.238281 229.726562 C 6.816406 228.402344 7.351562 225.941406 7.832031 222.347656 L 8.195312 220.21875 L 8.632812 220.5 L 9.71875 213.476562 C 8.460938 197.15625 7.832031 186.296875 7.832031 180.90625 L 7.976562 179.628906 C 7.203125 178.777344 6.671875 177.949219 6.382812 177.144531 C 6.238281 176.765625 6.164062 175.015625 6.164062 171.894531 C 6.164062 168.816406 6.457031 165.8125 7.035156 162.882812 C 7.566406 159.949219 7.832031 157.25 7.832031 154.792969 C 7.300781 151.433594 7.035156 146.679688 7.035156 140.527344 C 7.035156 133.667969 7.640625 125.746094 8.847656 116.757812 C 10.007812 107.722656 10.589844 101.144531 10.589844 97.03125 C 10.589844 96.179688 10.300781 95.183594 9.71875 94.050781 L 9.355469 93.339844 L 9.140625 93.339844 L 9.140625 92.914062 L 8.847656 91.992188 C 8.847656 91.707031 8.96875 91.496094 9.210938 91.351562 C 9.257812 88.042969 9.453125 85.792969 9.792969 84.613281 L 13.417969 72.621094 L 17.695312 52.039062 C 17.503906 48.917969 18.398438 45.464844 20.378906 41.679688 C 20.378906 36.996094 20.574219 33.519531 20.960938 31.25 L 21.542969 25.644531 L 21.613281 25.714844 L 22.703125 21.246094 L 23.5 18.691406 C 24.175781 14.714844 25 11.710938 25.964844 9.675781 C 26.789062 4.996094 29.035156 2.652344 32.710938 2.652344 C 35.855469 2.652344 38.972656 3.550781 42.066406 5.347656 M 128.015625 156.070312 L 127.652344 156.070312 L 126.636719 156.28125 L 126.707031 157.132812 L 127.289062 157.417969 L 127.070312 157.488281 C 126.589844 157.347656 126.347656 156.945312 126.347656 156.28125 C 126.347656 155.714844 127.871094 150.792969 130.914062 141.523438 C 132.703125 136.035156 134.082031 132.132812 135.050781 129.8125 C 134.757812 129.625 134.613281 129.363281 134.613281 129.03125 L 137.296875 121.511719 L 137.296875 113.917969 C 137.296875 108.101562 135.460938 99.253906 131.785156 87.378906 C 127.773438 74.558594 125.574219 66.066406 125.1875 61.90625 L 122.792969 43.3125 L 122.863281 43.3125 C 117.691406 32.386719 114.476562 23.207031 113.21875 15.78125 L 108.359375 17.625 L 99.511719 20.394531 C 94.144531 22.804688 85.390625 24.011719 73.253906 24.011719 C 67.355469 24.011719 59.449219 22.710938 49.539062 20.109375 C 41.367188 17.980469 33.847656 15.519531 26.980469 12.730469 C 25.628906 18.59375 24.757812 22.972656 24.371094 25.855469 L 24.226562 27.132812 L 23.28125 27.488281 L 22.917969 27.417969 C 22.582031 29.734375 22.410156 31.675781 22.410156 33.238281 C 22.316406 37.636719 21.929688 41.019531 21.25 43.382812 C 20.285156 46.601562 19.460938 49.9375 18.785156 53.390625 L 14.722656 73.542969 L 11.316406 85.25 C 10.878906 86.621094 10.636719 88.988281 10.589844 92.347656 L 11.316406 93.625 C 11.796875 94.664062 12.039062 95.800781 12.039062 97.03125 C 12.039062 101.429688 11.460938 108.171875 10.300781 117.253906 C 9.089844 126.289062 8.484375 134.046875 8.484375 140.527344 C 8.484375 144.550781 8.777344 149.304688 9.355469 154.792969 C 9.355469 157.582031 9.066406 160.445312 8.484375 163.378906 C 7.90625 166.3125 7.617188 169.148438 7.617188 171.894531 C 7.617188 174.683594 7.710938 176.363281 7.90625 176.929688 L 10.152344 179.058594 L 10.808594 179.628906 L 22.339844 188 L 23.28125 188.640625 L 28.867188 192.046875 C 32.007812 194.078125 33.679688 195.640625 33.871094 196.730469 L 33.507812 197.226562 L 33.074219 197.082031 L 33 197.367188 C 31.839844 197.226562 28.457031 195.050781 22.847656 190.839844 L 11.96875 182.324219 L 11.316406 182.464844 L 9.863281 181.402344 C 10.347656 184.144531 10.492188 189.113281 10.300781 196.304688 C 10.203125 199.945312 10.492188 205.695312 11.167969 213.546875 L 10.660156 219.933594 L 10.660156 220.003906 L 10.515625 220.714844 L 9.644531 225.964844 L 9.210938 226.175781 L 7.90625 229.796875 C 5.585938 234.480469 4.425781 239.375 4.425781 244.484375 L 4.277344 259.246094 L 2.03125 273.722656 C 2.03125 274.289062 2.488281 275.875 3.410156 278.476562 L 18.421875 285.785156 C 24.804688 289.617188 32.128906 291.53125 40.398438 291.53125 L 64.625 291.105469 L 65.058594 290.964844 L 67.308594 290.253906 L 70.0625 288.054688 C 71.949219 287.15625 73.183594 285.878906 73.761719 284.222656 C 74.390625 282.332031 74.945312 279.492188 75.429688 275.707031 L 76.300781 269.816406 L 76.734375 269.816406 L 77.605469 268.894531 L 76.519531 268.46875 L 76.808594 267.050781 C 78.550781 265.160156 79.347656 263.714844 79.203125 262.722656 L 78.839844 258.605469 L 79.128906 243.703125 L 78.910156 236.113281 C 78.863281 233.226562 79.226562 231.003906 80 229.441406 L 79.128906 230.152344 C 77.535156 231.664062 75.359375 234.171875 72.601562 237.671875 L 66.4375 245.480469 L 60.417969 252.859375 C 59.886719 252.90625 59.546875 253.046875 59.402344 253.285156 L 59.039062 252.503906 C 59.039062 252.078125 60.585938 249.902344 63.679688 245.976562 C 66.824219 242 69.339844 239.019531 71.222656 237.035156 C 78.429688 229.039062 82.03125 224.074219 82.03125 222.132812 C 82.03125 220.335938 81.546875 218.160156 80.582031 215.605469 C 79.566406 213.050781 79.058594 210.753906 79.058594 208.722656 C 79.058594 207.726562 78.136719 204.605469 76.300781 199.355469 L 73.183594 189.773438 L 73.90625 189.5625 C 74.199219 189.5625 75.140625 191.691406 76.734375 195.949219 L 77.96875 199.285156 L 78.1875 198.714844 C 77.414062 196.964844 76.734375 194.007812 76.15625 189.847656 L 75.574219 185.375 C 74.800781 182.347656 74.101562 171.253906 73.472656 152.09375 C 73.472656 148.121094 73.714844 144.125 74.199219 140.101562 L 75.285156 125.839844 L 74.996094 117.820312 L 75.503906 117.324219 L 74.996094 116.96875 L 74.921875 112.355469 C 74.875 107.152344 75.722656 102.992188 77.460938 99.867188 L 78.1875 100.507812 C 78.1875 103.535156 77.703125 107.910156 76.734375 113.632812 L 76.734375 126.40625 C 76.6875 131.28125 76.375 135.917969 75.792969 140.316406 C 75.261719 144.429688 74.996094 148.382812 74.996094 152.167969 C 74.996094 159.402344 75.285156 165.578125 75.867188 170.6875 L 76.734375 181.898438 L 77.316406 186.867188 C 77.898438 192.117188 78.574219 195.734375 79.347656 197.722656 L 79.925781 198.503906 L 79.925781 198.929688 L 82.902344 205.101562 C 83.238281 205.246094 83.410156 205.480469 83.410156 205.8125 L 83.410156 206.097656 C 85.828125 211.347656 87.035156 214.800781 87.035156 216.457031 L 86.960938 217.308594 C 87.011719 217.542969 86.792969 217.664062 86.308594 217.664062 L 82.757812 208.082031 L 82.175781 209.078125 L 81.160156 210.636719 L 82.609375 215.25 C 83.238281 217.046875 83.554688 219.390625 83.554688 222.273438 C 83.554688 224.5 83.335938 225.964844 82.902344 226.675781 C 83.433594 227.335938 83.625 228.046875 83.480469 228.804688 L 82.972656 231.785156 C 82.972656 233.0625 83.554688 237.484375 84.714844 245.054688 C 85.972656 253.238281 86.988281 258.582031 87.761719 261.089844 L 91.460938 275.566406 C 91.992188 277.175781 93.707031 279.632812 96.609375 282.945312 C 100.089844 286.871094 102.945312 288.835938 105.167969 288.835938 C 125.234375 288.835938 139.644531 286.019531 148.394531 280.390625 C 153.132812 277.316406 155.867188 273.886719 156.589844 270.101562 L 158.113281 269.390625 C 158.113281 269.0625 157.65625 268.847656 156.734375 268.753906 L 156.734375 268.042969 C 156.734375 266.105469 156.179688 262.484375 155.066406 257.1875 C 153.957031 252.125 153.230469 249.476562 152.890625 249.238281 L 150.28125 253 C 148.152344 255.695312 146.414062 257.566406 145.058594 258.605469 C 143.269531 259.976562 141.648438 261.871094 140.199219 264.285156 L 136.9375 269.605469 L 135.992188 269.890625 L 135.773438 269.25 C 135.773438 268.871094 136.886719 267.097656 139.113281 263.929688 C 141.433594 260.664062 143.199219 258.417969 144.40625 257.1875 L 152.890625 246.117188 C 153.328125 244.605469 154.222656 242.121094 155.574219 238.667969 C 157.558594 233.605469 158.550781 229.109375 158.550781 225.183594 C 158.550781 215.203125 155.1875 202.832031 148.46875 188.070312 L 143.609375 178.632812 C 141.820312 175.039062 140.78125 171.964844 140.488281 169.410156 C 140.101562 165.957031 139.015625 162.597656 137.226562 159.332031 L 136.71875 158.339844 C 137.203125 157.960938 137.441406 157.441406 137.441406 156.777344 C 137.441406 156.304688 137.203125 155.972656 136.71875 155.785156 C 136.1875 156.210938 136.015625 156.636719 136.210938 157.0625 L 136.210938 157.132812 C 135.339844 155.050781 134.90625 152.992188 134.90625 150.960938 L 135.484375 147.554688 L 134.179688 138.824219 L 133.308594 141.308594 L 128.015625 156.070312 M 66.074219 80.355469 L 73.761719 96.105469 L 73.691406 96.886719 L 73.039062 97.101562 C 71.199219 97.101562 68.878906 92.558594 66.074219 83.476562 C 66.21875 81.632812 65.976562 80.613281 65.347656 80.425781 L 65.566406 80.210938 L 66.074219 80.355469 M 60.417969 121.371094 L 59.113281 122.078125 L 42.792969 119.738281 C 33.796875 118.082031 27.078125 116.449219 22.628906 114.839844 L 22.992188 113.988281 L 22.917969 113.707031 C 23.546875 113.800781 24.636719 114.203125 26.183594 114.910156 C 28.261719 115.859375 30.4375 116.472656 32.710938 116.757812 L 43.011719 118.105469 L 58.242188 120.730469 C 58.820312 121.15625 59.425781 121.371094 60.054688 121.371094 L 60.417969 121.371094 M 94 47.570312 L 94.941406 47.570312 L 95.519531 47.710938 L 95.667969 47.710938 L 95.8125 48.136719 C 95.28125 50.3125 92.933594 56.417969 88.777344 66.445312 C 83.746094 78.605469 79.78125 87.378906 76.882812 92.773438 C 76.398438 92.628906 76.15625 92.371094 76.15625 91.992188 L 94 47.570312 M 110.609375 182.820312 L 110.390625 183.035156 L 110.535156 183.460938 L 109.953125 183.53125 C 109.035156 183.53125 108.699219 180.808594 108.9375 175.371094 C 108.9375 171.445312 109.207031 168.746094 109.738281 167.28125 L 114.089844 159.546875 L 114.8125 160.183594 L 114.523438 161.035156 L 114.378906 160.964844 C 113.894531 160.964844 113.652344 161.484375 113.652344 162.527344 L 113.652344 162.808594 L 112.636719 164.796875 C 111.140625 167.917969 110.390625 170.261719 110.390625 171.820312 C 110.390625 176.601562 110.460938 180.265625 110.609375 182.820312 M 79.203125 201.554688 L 78.765625 201.695312 L 79.925781 205.953125 L 80.433594 207.941406 L 81.886719 206.023438 L 79.417969 200.914062 L 79.203125 201.554688 M 31.984375 160.398438 L 32.128906 159.476562 C 32.128906 159.050781 31.890625 158.695312 31.40625 158.410156 L 31.042969 158.835938 L 30.679688 157.914062 C 30.679688 157.347656 30.921875 157.0625 31.40625 157.0625 L 44.96875 171.964844 C 54.878906 182.511719 61.914062 189.347656 66.074219 192.472656 L 65.785156 193.253906 L 65.710938 193.179688 L 65.203125 193.039062 L 64.839844 193.324219 C 62.808594 192.945312 59.667969 190.53125 55.414062 186.085938 L 45.765625 175.652344 C 38.660156 168.367188 34.066406 163.28125 31.984375 160.398438 M 104.804688 254.136719 L 103.355469 252.503906 L 102.628906 252.714844 L 102.628906 253.496094 L 102.121094 253.214844 L 102.121094 252.503906 L 102.847656 252.148438 L 106.328125 252.714844 C 108.792969 252.714844 113.4375 251.15625 120.253906 248.035156 C 126.441406 245.195312 130.988281 242.734375 133.890625 240.652344 L 134.613281 241.363281 L 134.542969 241.574219 L 134.46875 241.574219 C 134.179688 241.574219 133.960938 241.8125 133.816406 242.285156 C 132.222656 243.46875 128.472656 245.480469 122.574219 248.316406 C 114.304688 252.292969 108.914062 254.277344 106.402344 254.277344 L 104.804688 254.136719 "/>
<path style=" stroke:none;fill-rule:evenodd;fill:rgb(40.000001%,60.000002%,40.000001%);fill-opacity:1;" d="M 112.492188 8.117188 L 112.492188 8.683594 C 112.492188 10.578125 112.6875 12.632812 113.074219 14.859375 L 112.636719 14.785156 C 111.285156 14.785156 109.664062 15.1875 107.777344 15.992188 L 101.179688 18.691406 C 93.25 21.246094 81.523438 22.523438 66 22.523438 C 63.34375 22.523438 61.191406 22.070312 59.546875 21.171875 L 56.789062 19.613281 L 50.988281 18.335938 L 47.652344 18.335938 C 46.152344 18.335938 44.726562 17.910156 43.371094 17.058594 C 41.777344 16.0625 38.730469 15.1875 34.234375 14.433594 L 31.839844 12.871094 C 30.632812 11.972656 29.398438 11.523438 28.140625 11.523438 L 27.5625 11.59375 C 28.09375 10.457031 28.359375 9.441406 28.359375 8.542969 C 28.359375 5.65625 29.761719 4.214844 32.566406 4.214844 C 35.371094 4.214844 38.175781 5.042969 40.980469 6.699219 C 44.265625 8.589844 46.492188 9.652344 47.652344 9.890625 C 48.523438 10.078125 51.15625 11.027344 55.558594 12.730469 C 60.34375 14.289062 64.625 15.070312 68.394531 15.070312 C 78.164062 15.070312 88.511719 13.535156 99.4375 10.457031 L 104.226562 9.109375 L 105.675781 8.613281 L 107.199219 8.117188 L 106.835938 8.117188 L 111.1875 5.421875 C 111.671875 5.421875 111.914062 5.585938 111.914062 5.917969 L 112.710938 8.117188 L 112.492188 8.117188 M 128.015625 156.070312 L 133.308594 141.308594 L 134.179688 138.824219 L 135.484375 147.554688 L 134.90625 150.960938 C 134.90625 152.992188 135.339844 155.050781 136.210938 157.132812 L 131.496094 157.488281 C 130.285156 156.636719 129.125 156.164062 128.015625 156.070312 M 136.9375 269.605469 L 140.199219 264.285156 C 141.648438 261.871094 143.269531 259.976562 145.058594 258.605469 C 146.414062 257.566406 148.152344 255.695312 150.28125 253 L 152.890625 249.238281 C 153.230469 249.476562 153.957031 252.125 155.066406 257.1875 C 156.179688 262.484375 156.734375 266.105469 156.734375 268.042969 L 156.734375 268.753906 L 155.214844 268.683594 L 149.917969 269.746094 L 137.734375 269.675781 L 137.082031 269.605469 L 136.9375 269.605469 M 76.734375 116.542969 L 76.734375 113.632812 C 77.703125 107.910156 78.1875 103.535156 78.1875 100.507812 L 77.460938 99.867188 C 75.722656 102.992188 74.875 107.152344 74.921875 112.355469 L 74.996094 116.96875 L 72.964844 116.757812 C 72.480469 116.757812 68.492188 118.4375 60.996094 121.796875 L 60.488281 121.722656 C 60.152344 121.722656 58.335938 124.183594 55.050781 129.105469 C 50.988281 134.023438 46.828125 136.484375 42.574219 136.484375 C 40.300781 136.484375 33.460938 129.457031 22.050781 115.410156 L 22.628906 114.839844 C 27.078125 116.449219 33.796875 118.082031 42.792969 119.738281 L 59.113281 122.078125 L 60.417969 121.371094 L 60.78125 121.015625 C 60.101562 119.546875 58.554688 117.300781 56.136719 114.273438 C 54.300781 112.050781 53.382812 110.132812 53.382812 108.527344 L 57.007812 104.695312 C 59.570312 101.855469 61.214844 99.0625 61.941406 96.320312 L 66.074219 83.617188 L 66.074219 83.476562 C 68.878906 92.558594 71.199219 97.101562 73.039062 97.101562 L 73.691406 96.886719 L 73.761719 96.105469 L 66.074219 80.355469 L 66.292969 80.355469 C 68.566406 80.355469 70.472656 78.4375 72.023438 74.605469 C 73.617188 69.6875 74.875 66.136719 75.792969 63.960938 C 76.421875 62.449219 78.644531 59.632812 82.464844 55.519531 L 85.730469 50.90625 C 87.761719 48.492188 89.914062 47.285156 92.183594 47.285156 L 94 47.570312 L 76.15625 91.992188 C 76.15625 92.371094 76.398438 92.628906 76.882812 92.773438 C 79.78125 87.378906 83.746094 78.605469 88.777344 66.445312 C 92.933594 56.417969 95.28125 50.3125 95.8125 48.136719 C 96.632812 50.03125 97.429688 52.679688 98.203125 56.085938 C 99.074219 59.871094 99.847656 62.589844 100.527344 64.246094 L 104.296875 73.117188 C 105.214844 75.625 105.675781 78.273438 105.675781 81.0625 C 98.519531 85.273438 94.117188 87.996094 92.476562 89.222656 C 87.785156 92.675781 85.078125 95.679688 84.351562 98.234375 C 83.773438 100.175781 83.480469 103.34375 83.480469 107.746094 C 83.433594 111.152344 82.296875 113.632812 80.074219 115.195312 C 78.960938 115.953125 77.847656 116.402344 76.734375 116.542969 M 60.417969 252.859375 L 66.4375 245.480469 L 72.601562 237.671875 C 75.359375 234.171875 77.535156 231.664062 79.128906 230.152344 L 80 229.441406 C 79.226562 231.003906 78.863281 233.226562 78.910156 236.113281 L 79.128906 243.703125 L 78.839844 258.605469 L 79.203125 262.722656 C 79.347656 263.714844 78.550781 265.160156 76.808594 267.050781 L 76.519531 268.46875 C 73.664062 267.050781 70.886719 264.78125 68.175781 261.65625 L 61.648438 254.066406 L 61.941406 253.496094 L 61.796875 252.929688 L 60.632812 252.789062 L 60.417969 252.859375 M 10.660156 219.933594 L 11.167969 213.546875 C 10.492188 205.695312 10.203125 199.945312 10.300781 196.304688 C 10.492188 189.113281 10.347656 184.144531 9.863281 181.402344 L 11.316406 182.464844 L 11.96875 182.324219 L 22.847656 190.839844 C 28.457031 195.050781 31.839844 197.226562 33 197.367188 L 30.535156 203.1875 L 26.253906 209.644531 C 22.628906 213.144531 17.503906 216.597656 10.878906 220.003906 L 10.660156 219.933594 M 110.609375 182.820312 C 110.460938 180.265625 110.390625 176.601562 110.390625 171.820312 C 110.390625 170.261719 111.140625 167.917969 112.636719 164.796875 L 113.652344 162.808594 C 113.796875 164.277344 114.984375 167.304688 117.207031 171.894531 C 117.207031 174.164062 116.070312 176.601562 113.796875 179.203125 L 110.609375 182.820312 M 31.984375 160.398438 C 34.066406 163.28125 38.660156 168.367188 45.765625 175.652344 L 55.414062 186.085938 C 59.667969 190.53125 62.808594 192.945312 64.839844 193.324219 L 59.546875 196.941406 C 55.484375 199.070312 52.96875 200.136719 52.003906 200.136719 C 50.070312 200.136719 46.175781 195.429688 40.328125 186.015625 C 34.28125 176.316406 31.261719 169.316406 31.261719 165.011719 L 31.984375 160.398438 M 104.804688 254.136719 L 106.402344 254.277344 C 108.914062 254.277344 114.304688 252.292969 122.574219 248.316406 C 128.472656 245.480469 132.222656 243.46875 133.816406 242.285156 C 133.671875 242.617188 133.597656 243.066406 133.597656 243.632812 L 133.308594 246.402344 L 128.523438 251.582031 C 121.847656 257.730469 116.144531 260.804688 111.40625 260.804688 C 110.875 260.804688 108.671875 258.582031 104.804688 254.136719 "/>
<path style=" stroke:none;fill-rule:evenodd;fill:rgb(40.000001%,80.000001%,40.000001%);fill-opacity:1;" d="M 10.660156 220.003906 L 10.660156 219.933594 L 10.878906 220.003906 L 10.660156 220.003906 "/>
<path style=" stroke:none;fill-rule:evenodd;fill:rgb(60.000002%,80.000001%,60.000002%);fill-opacity:1;" d="M 33 197.367188 L 33.074219 197.082031 L 33.507812 197.226562 L 33.871094 196.730469 C 33.679688 195.640625 32.007812 194.078125 28.867188 192.046875 L 23.28125 188.640625 L 22.339844 188 L 10.808594 179.628906 L 10.152344 179.058594 L 7.90625 176.929688 C 7.710938 176.363281 7.617188 174.683594 7.617188 171.894531 C 7.617188 169.148438 7.90625 166.3125 8.484375 163.378906 C 9.066406 160.445312 9.355469 157.582031 9.355469 154.792969 C 8.777344 149.304688 8.484375 144.550781 8.484375 140.527344 C 8.484375 134.046875 9.089844 126.289062 10.300781 117.253906 C 11.460938 108.171875 12.039062 101.429688 12.039062 97.03125 C 12.039062 95.800781 11.796875 94.664062 11.316406 93.625 L 10.589844 92.347656 C 10.636719 88.988281 10.878906 86.621094 11.316406 85.25 L 14.722656 73.542969 L 18.785156 53.390625 C 19.460938 49.9375 20.285156 46.601562 21.25 43.382812 C 21.929688 41.019531 22.316406 37.636719 22.410156 33.238281 C 22.410156 31.675781 22.582031 29.734375 22.917969 27.417969 L 23.28125 27.488281 L 24.226562 27.132812 L 24.371094 25.855469 C 24.757812 22.972656 25.628906 18.59375 26.980469 12.730469 C 33.847656 15.519531 41.367188 17.980469 49.539062 20.109375 C 59.449219 22.710938 67.355469 24.011719 73.253906 24.011719 C 85.390625 24.011719 94.144531 22.804688 99.511719 20.394531 L 108.359375 17.625 L 113.21875 15.78125 C 114.476562 23.207031 117.691406 32.386719 122.863281 43.3125 L 122.792969 43.3125 L 125.1875 61.90625 C 125.574219 66.066406 127.773438 74.558594 131.785156 87.378906 C 135.460938 99.253906 137.296875 108.101562 137.296875 113.917969 L 137.296875 121.511719 L 134.613281 129.03125 C 134.613281 129.363281 134.757812 129.625 135.050781 129.8125 C 134.082031 132.132812 132.703125 136.035156 130.914062 141.523438 C 127.871094 150.792969 126.347656 155.714844 126.347656 156.28125 C 126.347656 156.945312 126.589844 157.347656 127.070312 157.488281 L 127.289062 157.417969 L 126.707031 157.132812 L 126.636719 156.28125 L 127.652344 156.070312 L 128.015625 156.070312 C 129.125 156.164062 130.285156 156.636719 131.496094 157.488281 L 136.210938 157.132812 L 136.210938 157.0625 C 136.015625 156.636719 136.1875 156.210938 136.71875 155.785156 C 137.203125 155.972656 137.441406 156.304688 137.441406 156.777344 C 137.441406 157.441406 137.203125 157.960938 136.71875 158.339844 L 137.226562 159.332031 C 139.015625 162.597656 140.101562 165.957031 140.488281 169.410156 C 140.78125 171.964844 141.820312 175.039062 143.609375 178.632812 L 148.46875 188.070312 C 155.1875 202.832031 158.550781 215.203125 158.550781 225.183594 C 158.550781 229.109375 157.558594 233.605469 155.574219 238.667969 C 154.222656 242.121094 153.328125 244.605469 152.890625 246.117188 L 144.40625 257.1875 C 143.199219 258.417969 141.433594 260.664062 139.113281 263.929688 C 136.886719 267.097656 135.773438 268.871094 135.773438 269.25 L 135.992188 269.890625 L 136.9375 269.605469 L 137.082031 269.605469 L 137.734375 269.675781 L 149.917969 269.746094 L 155.214844 268.683594 L 156.734375 268.753906 C 157.65625 268.847656 158.113281 269.0625 158.113281 269.390625 L 156.589844 270.101562 C 155.867188 273.886719 153.132812 277.316406 148.394531 280.390625 C 139.644531 286.019531 125.234375 288.835938 105.167969 288.835938 C 102.945312 288.835938 100.089844 286.871094 96.609375 282.945312 C 93.707031 279.632812 91.992188 277.175781 91.460938 275.566406 L 87.761719 261.089844 C 86.988281 258.582031 85.972656 253.238281 84.714844 245.054688 C 83.554688 237.484375 82.972656 233.0625 82.972656 231.785156 L 83.480469 228.804688 C 83.625 228.046875 83.433594 227.335938 82.902344 226.675781 C 83.335938 225.964844 83.554688 224.5 83.554688 222.273438 C 83.554688 219.390625 83.238281 217.046875 82.609375 215.25 L 81.160156 210.636719 L 82.175781 209.078125 L 82.757812 208.082031 L 86.308594 217.664062 C 86.792969 217.664062 87.011719 217.542969 86.960938 217.308594 L 87.035156 216.457031 C 87.035156 214.800781 85.828125 211.347656 83.410156 206.097656 L 83.410156 205.8125 C 83.410156 205.480469 83.238281 205.246094 82.902344 205.101562 L 79.925781 198.929688 L 79.925781 198.503906 L 79.347656 197.722656 C 78.574219 195.734375 77.898438 192.117188 77.316406 186.867188 L 76.734375 181.898438 L 75.867188 170.6875 C 75.285156 165.578125 74.996094 159.402344 74.996094 152.167969 C 74.996094 148.382812 75.261719 144.429688 75.792969 140.316406 C 76.375 135.917969 76.6875 131.28125 76.734375 126.40625 L 76.734375 116.542969 C 77.847656 116.402344 78.960938 115.953125 80.074219 115.195312 C 82.296875 113.632812 83.433594 111.152344 83.480469 107.746094 C 83.480469 103.34375 83.773438 100.175781 84.351562 98.234375 C 85.078125 95.679688 87.785156 92.675781 92.476562 89.222656 C 94.117188 87.996094 98.519531 85.273438 105.675781 81.0625 C 105.675781 78.273438 105.214844 75.625 104.296875 73.117188 L 100.527344 64.246094 C 99.847656 62.589844 99.074219 59.871094 98.203125 56.085938 C 97.429688 52.679688 96.632812 50.03125 95.8125 48.136719 L 95.667969 47.710938 L 95.519531 47.710938 L 94.941406 47.570312 L 94 47.570312 L 92.183594 47.285156 C 89.914062 47.285156 87.761719 48.492188 85.730469 50.90625 L 82.464844 55.519531 C 78.644531 59.632812 76.421875 62.449219 75.792969 63.960938 C 74.875 66.136719 73.617188 69.6875 72.023438 74.605469 C 70.472656 78.4375 68.566406 80.355469 66.292969 80.355469 L 66.074219 80.355469 L 65.566406 80.210938 L 65.347656 80.425781 C 65.976562 80.613281 66.21875 81.632812 66.074219 83.476562 L 66.074219 83.617188 L 61.941406 96.320312 C 61.214844 99.0625 59.570312 101.855469 57.007812 104.695312 L 53.382812 108.527344 C 53.382812 110.132812 54.300781 112.050781 56.136719 114.273438 C 58.554688 117.300781 60.101562 119.546875 60.78125 121.015625 L 60.417969 121.371094 L 60.054688 121.371094 C 59.425781 121.371094 58.820312 121.15625 58.242188 120.730469 L 43.011719 118.105469 L 32.710938 116.757812 C 30.4375 116.472656 28.261719 115.859375 26.183594 114.910156 C 24.636719 114.203125 23.546875 113.800781 22.917969 113.707031 L 22.992188 113.988281 L 22.628906 114.839844 L 22.050781 115.410156 C 33.460938 129.457031 40.300781 136.484375 42.574219 136.484375 C 46.828125 136.484375 50.988281 134.023438 55.050781 129.105469 C 58.335938 124.183594 60.152344 121.722656 60.488281 121.722656 L 60.996094 121.796875 C 68.492188 118.4375 72.480469 116.757812 72.964844 116.757812 L 74.996094 116.96875 L 75.503906 117.324219 L 74.996094 117.820312 L 75.285156 125.839844 L 74.199219 140.101562 C 73.714844 144.125 73.472656 148.121094 73.472656 152.09375 C 74.101562 171.253906 74.800781 182.347656 75.574219 185.375 L 76.15625 189.847656 C 76.734375 194.007812 77.414062 196.964844 78.1875 198.714844 L 77.96875 199.285156 L 76.734375 195.949219 C 75.140625 191.691406 74.199219 189.5625 73.90625 189.5625 L 73.183594 189.773438 L 76.300781 199.355469 C 78.136719 204.605469 79.058594 207.726562 79.058594 208.722656 C 79.058594 210.753906 79.566406 213.050781 80.582031 215.605469 C 81.546875 218.160156 82.03125 220.335938 82.03125 222.132812 C 82.03125 224.074219 78.429688 229.039062 71.222656 237.035156 C 69.339844 239.019531 66.824219 242 63.679688 245.976562 C 60.585938 249.902344 59.039062 252.078125 59.039062 252.503906 L 59.402344 253.285156 C 59.546875 253.046875 59.886719 252.90625 60.417969 252.859375 L 60.632812 252.789062 L 61.796875 252.929688 L 61.941406 253.496094 L 61.648438 254.066406 L 68.175781 261.65625 C 70.886719 264.78125 73.664062 267.050781 76.519531 268.46875 L 77.605469 268.894531 L 76.734375 269.816406 L 76.300781 269.816406 L 75.429688 275.707031 C 74.945312 279.492188 74.390625 282.332031 73.761719 284.222656 C 73.183594 285.878906 71.949219 287.15625 70.0625 288.054688 L 67.308594 290.253906 L 65.058594 290.964844 L 64.625 291.105469 L 40.398438 291.53125 C 32.128906 291.53125 24.804688 289.617188 18.421875 285.785156 L 3.410156 278.476562 C 2.488281 275.875 2.03125 274.289062 2.03125 273.722656 L 4.277344 259.246094 L 4.425781 244.484375 C 4.425781 239.375 5.585938 234.480469 7.90625 229.796875 L 9.210938 226.175781 L 9.644531 225.964844 L 10.515625 220.714844 L 10.660156 220.003906 L 10.878906 220.003906 C 17.503906 216.597656 22.628906 213.144531 26.253906 209.644531 L 30.535156 203.1875 L 33 197.367188 M 113.652344 162.808594 L 113.652344 162.527344 C 113.652344 161.484375 113.894531 160.964844 114.378906 160.964844 L 114.523438 161.035156 L 114.8125 160.183594 L 114.089844 159.546875 L 109.738281 167.28125 C 109.207031 168.746094 108.9375 171.445312 108.9375 175.371094 C 108.699219 180.808594 109.035156 183.53125 109.953125 183.53125 L 110.535156 183.460938 L 110.390625 183.035156 L 110.609375 182.820312 L 113.796875 179.203125 C 116.070312 176.601562 117.207031 174.164062 117.207031 171.894531 C 114.984375 167.304688 113.796875 164.277344 113.652344 162.808594 M 64.839844 193.324219 L 65.203125 193.039062 L 65.710938 193.179688 L 65.785156 193.253906 L 66.074219 192.472656 C 61.914062 189.347656 54.878906 182.511719 44.96875 171.964844 L 31.40625 157.0625 C 30.921875 157.0625 30.679688 157.347656 30.679688 157.914062 L 31.042969 158.835938 L 31.40625 158.410156 C 31.890625 158.695312 32.128906 159.050781 32.128906 159.476562 L 31.984375 160.398438 L 31.261719 165.011719 C 31.261719 169.316406 34.28125 176.316406 40.328125 186.015625 C 46.175781 195.429688 50.070312 200.136719 52.003906 200.136719 C 52.96875 200.136719 55.484375 199.070312 59.546875 196.941406 L 64.839844 193.324219 M 133.816406 242.285156 C 133.960938 241.8125 134.179688 241.574219 134.46875 241.574219 L 134.542969 241.574219 L 134.613281 241.363281 L 133.890625 240.652344 C 130.988281 242.734375 126.441406 245.195312 120.253906 248.035156 C 113.4375 251.15625 108.792969 252.714844 106.328125 252.714844 L 102.847656 252.148438 L 102.121094 252.503906 L 102.121094 253.214844 L 102.628906 253.496094 L 102.628906 252.714844 L 103.355469 252.503906 L 104.804688 254.136719 C 108.671875 258.582031 110.875 260.804688 111.40625 260.804688 C 116.144531 260.804688 121.847656 257.730469 128.523438 251.582031 L 133.308594 246.402344 L 133.597656 243.632812 C 133.597656 243.066406 133.671875 242.617188 133.816406 242.285156 "/>
</g>
</svg>
