<?xml version="1.0" encoding="UTF-8"?>
<svg xmlns="http://www.w3.org/2000/svg" xmlns:xlink="http://www.w3.org/1999/xlink" width="160px" height="333px" viewBox="0 0 160 333" version="1.1">
<g id="surface1">
<path style=" stroke:none;fill-rule:evenodd;fill:rgb(20%,20%,20%);fill-opacity:1;" d="M 25.386719 2.511719 C 23.546875 8.800781 22.582031 13.652344 22.484375 17.058594 C 24.804688 17.058594 28.503906 18.214844 33.582031 20.535156 C 36.773438 21.621094 40.664062 22.523438 45.257812 23.230469 L 53.816406 24.507812 L 57.878906 24.648438 L 62.519531 25.003906 L 64.625 25.574219 L 64.914062 25.644531 L 64.988281 25.429688 L 65.277344 25.644531 L 66 25.714844 L 67.523438 25.925781 L 67.523438 25.855469 L 67.597656 25.925781 L 69.121094 26.070312 L 69.554688 26.140625 L 74.125 26.636719 L 74.269531 26.140625 L 74.632812 26.636719 L 85.949219 27.277344 C 95.039062 27.277344 101.613281 26.046875 105.675781 23.585938 C 107.5625 22.402344 110.777344 20.582031 115.320312 18.121094 L 115.03125 10.457031 C 115.03125 7.761719 114.304688 5.207031 112.855469 2.792969 C 111.742188 3.457031 110.65625 4.355469 109.59375 5.492188 C 109.15625 5.964844 108.019531 6.414062 106.183594 6.839844 L 102.484375 7.902344 C 101.324219 8.660156 99.195312 9.25 96.101562 9.675781 L 90.371094 10.316406 C 88.777344 11.074219 86.914062 11.523438 84.785156 11.664062 L 74.125 12.871094 L 65.785156 13.011719 L 56.574219 12.730469 C 55.847656 12.585938 53.816406 11.734375 50.480469 10.175781 C 46.660156 8.519531 44.144531 7.621094 42.9375 7.476562 C 41.730469 7.335938 39.019531 6.246094 34.8125 4.214844 L 31.695312 2.792969 L 25.386719 1.871094 L 25.386719 2.511719 M 11.167969 139.109375 L 11.097656 137.546875 C 12.160156 130.972656 12.546875 126.265625 12.257812 123.425781 L 12.257812 109.375 L 11.824219 81.277344 L 11.460938 77.730469 C 11.363281 76.355469 11.554688 75.480469 12.039062 75.101562 L 12.183594 74.675781 L 11.894531 74.324219 C 11.074219 73.28125 10.660156 71.34375 10.660156 68.503906 C 10.660156 65.144531 11.363281 60.792969 12.765625 55.445312 L 16.101562 42.816406 L 18.421875 29.832031 C 19.339844 24.863281 20.5 20.746094 21.902344 17.484375 L 21.757812 17.269531 L 21.832031 17.199219 L 21.757812 16.488281 C 21.757812 12.988281 22.726562 8.046875 24.660156 1.660156 L 24.226562 1.375 L 24.804688 1.089844 L 24.878906 0.878906 L 25.023438 0.878906 L 25.242188 1.019531 L 25.601562 1.019531 C 28.457031 1.019531 31.71875 1.871094 35.394531 3.574219 C 39.550781 5.515625 42.355469 6.601562 43.808594 6.839844 C 45.210938 7.074219 47.554688 7.976562 50.84375 9.535156 L 53.746094 10.953125 L 54.90625 11.734375 L 65.566406 12.230469 L 74.34375 12.019531 L 84.640625 10.953125 L 88.632812 9.675781 L 102.050781 7.335938 C 102.484375 7.050781 104.804688 6.246094 109.011719 4.921875 L 112.785156 1.941406 L 113.4375 2.015625 L 113.507812 2.367188 L 113.363281 2.511719 C 114.765625 4.214844 115.539062 6.414062 115.683594 9.109375 L 116.046875 16.136719 L 116.046875 18.40625 L 115.902344 18.617188 L 116.191406 24.863281 C 116.289062 27.558594 116.917969 29.808594 118.078125 31.605469 C 119.238281 33.402344 120.445312 37.871094 121.703125 45.015625 C 124.21875 59.253906 125.695312 68.21875 126.128906 71.910156 L 126.128906 79.574219 C 126.757812 81.039062 127.554688 84.707031 128.523438 90.574219 L 130.261719 102.351562 C 130.261719 103.867188 129.683594 105.261719 128.523438 106.539062 C 129.925781 113.683594 130.601562 118.792969 130.554688 121.867188 C 130.457031 125.226562 130.554688 130.429688 130.84375 137.476562 C 130.84375 138.375 130.433594 139.773438 129.609375 141.664062 L 129.683594 141.59375 C 129.925781 141.59375 130.140625 145.140625 130.335938 152.238281 C 130.527344 159.804688 130.503906 165.671875 130.261719 169.835938 C 129.972656 173.714844 130.261719 178.398438 131.132812 183.886719 L 133.597656 197.296875 C 134.277344 197.816406 134.878906 200.015625 135.414062 203.894531 C 136.378906 210.425781 137.878906 216.265625 139.910156 221.421875 L 141.648438 229.796875 L 141.503906 229.796875 L 141.433594 229.65625 C 140.804688 226.53125 140.054688 223.859375 139.183594 221.636719 C 137.925781 218.5625 136.667969 214.066406 135.414062 208.152344 L 133.019531 197.792969 C 132.679688 197.367188 132.488281 196.800781 132.4375 196.089844 L 132.148438 193.75 L 131.421875 189.207031 C 130.40625 184.949219 129.828125 181.898438 129.683594 180.054688 L 129.320312 161.605469 L 129.320312 142.230469 L 128.886719 143.082031 C 127.628906 145.589844 126.539062 147.105469 125.621094 147.625 L 126.78125 155.003906 L 127.144531 162.808594 C 127.144531 165.789062 126.757812 169.527344 125.984375 174.023438 C 125.402344 177.191406 125.113281 180.859375 125.113281 185.019531 C 125.113281 189.324219 125.402344 191.761719 125.984375 192.328125 L 125.984375 192.613281 L 130.625 203.117188 C 133.1875 208.460938 134.832031 212.625 135.558594 215.605469 L 138.964844 229.726562 L 138.386719 229.726562 L 138.386719 229.796875 L 140.925781 240.441406 L 140.707031 240.652344 L 143.972656 263.21875 L 145.277344 273.4375 L 144.769531 274.429688 L 144.1875 273.152344 L 144.117188 272.515625 L 144.117188 272.445312 L 143.972656 270.527344 L 143.464844 264.355469 L 140.996094 248.316406 L 140.5625 244.980469 L 140.054688 240.085938 L 139.257812 237.816406 L 139.691406 237.746094 L 139.691406 237.390625 L 138.964844 236.894531 L 137.589844 231.144531 L 137.296875 229.796875 L 137.296875 229.726562 L 137.878906 229.726562 L 137.660156 228.875 L 137.660156 228.660156 L 134.757812 215.746094 C 133.9375 212.8125 132.316406 208.675781 129.898438 203.328125 L 125.257812 192.683594 C 124.917969 192.402344 124.679688 191.738281 124.53125 190.699219 L 124.386719 188.921875 L 124.386719 185.019531 C 124.386719 179.957031 124.679688 176.246094 125.257812 173.878906 C 126.03125 170.570312 126.417969 166.878906 126.417969 162.808594 C 126.417969 159.261719 126.203125 156.234375 125.765625 153.726562 C 125.332031 151.171875 125.113281 149.328125 125.113281 148.191406 L 125.113281 147.765625 L 124.171875 147.765625 C 124.800781 147.625 125.546875 146.960938 126.417969 145.78125 L 126.417969 145.707031 L 126.347656 145.707031 C 125.960938 144.480469 125.644531 141.617188 125.402344 137.121094 C 125.113281 133.148438 124.726562 130.285156 124.242188 128.535156 L 122.792969 120.234375 L 121.777344 112.144531 L 120.398438 113.351562 L 120.035156 112.996094 C 120.035156 112.429688 121.609375 110.984375 124.75 108.667969 L 125.1875 108.382812 L 124.824219 105.046875 L 124.097656 101.570312 C 124 98.023438 123.734375 95.707031 123.300781 94.617188 L 120.472656 87.875 C 119.261719 84.941406 118.65625 82.601562 118.65625 80.851562 C 118.65625 80.613281 118.730469 80.449219 118.875 80.355469 L 118.367188 73.472656 L 118.65625 68.574219 L 117.570312 57.929688 C 116.796875 51.308594 116.144531 46.980469 115.613281 44.945312 L 112.128906 33.804688 L 112.785156 33.519531 L 116.335938 44.875 C 116.773438 46.8125 117.402344 51.070312 118.222656 57.648438 L 119.382812 68.574219 L 119.09375 73.472656 C 119.09375 75.882812 119.238281 78.15625 119.527344 80.285156 L 119.527344 81.132812 C 120.15625 82.460938 120.664062 84.210938 121.050781 86.386719 L 123.519531 92.558594 L 124.824219 98.734375 L 124.75 101.640625 C 124.75 102.917969 125.015625 103.960938 125.546875 104.765625 L 125.546875 108.101562 C 128.160156 105.972656 129.464844 104.03125 129.464844 102.28125 L 127.941406 91.992188 C 126.828125 85.417969 125.910156 81.0625 125.1875 78.933594 L 125.402344 78.863281 L 125.257812 76.59375 L 125.332031 72.832031 L 124.460938 65.382812 L 121.921875 50.550781 C 120.617188 43.3125 119.601562 38.371094 118.875 35.71875 C 117.183594 32.265625 116.191406 29.757812 115.902344 28.199219 C 115.613281 26.921875 115.46875 24.460938 115.46875 20.820312 L 115.613281 18.761719 L 110.535156 21.8125 L 110.824219 24.082031 C 111.164062 27.109375 111.742188 30.066406 112.566406 32.953125 L 112.710938 33.308594 L 111.769531 32.882812 L 111.769531 32.8125 C 110.558594 28.980469 109.90625 25.429688 109.808594 22.167969 L 105.601562 24.367188 C 104.105469 25.125 102.316406 25.785156 100.234375 26.351562 C 96.222656 27.488281 91.484375 28.054688 86.019531 28.054688 L 74.632812 27.0625 L 74.414062 31.886719 L 74.34375 31.886719 L 74.269531 32.242188 L 74.414062 32.527344 C 74.078125 36.167969 73.449219 40.167969 72.53125 44.519531 C 72.09375 48.113281 71.320312 50.765625 70.207031 52.464844 L 70.136719 52.609375 L 70.0625 52.539062 L 68.832031 54.027344 C 66.945312 55.96875 64.867188 58.570312 62.59375 61.832031 L 62.519531 61.832031 L 62.519531 76.804688 L 62.375 87.308594 L 62.230469 87.378906 L 62.230469 90.429688 L 62.882812 94.050781 L 63.027344 94.617188 L 63.171875 95.679688 L 64.40625 101.855469 C 66.726562 108.289062 68.007812 112.144531 68.25 113.421875 C 69.652344 121.273438 70.570312 125.816406 71.007812 127.046875 C 72.261719 130.640625 74.199219 135.207031 76.808594 140.742188 L 82.757812 154.222656 L 82.757812 155.570312 L 82.394531 155.714844 C 78.71875 147.484375 75.769531 140.625 73.542969 135.136719 L 73.398438 141.804688 L 73.980469 151.101562 L 74.199219 153.230469 L 75.359375 157.203125 L 76.519531 160.183594 L 77.242188 161.816406 C 78.644531 164.890625 80.433594 168.132812 82.609375 171.539062 L 82.539062 171.894531 L 83.046875 172.320312 L 83.117188 172.246094 L 85.65625 176.007812 L 85.585938 176.578125 L 85.441406 176.078125 L 85.148438 176.71875 L 84.933594 176.648438 C 84.496094 175.464844 83.480469 173.785156 81.886719 171.609375 L 80.796875 170.046875 L 80.507812 180.691406 C 80.507812 189.585938 80.992188 195.949219 81.957031 199.78125 C 82.441406 201.765625 82.441406 204.9375 81.957031 209.289062 C 82.199219 211.75 83.359375 213.878906 85.441406 215.675781 L 85.730469 216.597656 L 86.09375 216.386719 L 86.09375 216.171875 C 87.109375 216.929688 88.339844 217.613281 89.792969 218.230469 L 89.71875 218.585938 L 89.574219 218.371094 L 89.285156 218.65625 C 87.929688 218.609375 86.695312 218.113281 85.585938 217.164062 C 86.40625 221.140625 86.816406 225.042969 86.816406 228.875 L 86.816406 229.511719 L 86.890625 229.726562 L 86.308594 229.726562 L 86.308594 229.796875 C 86.601562 231.6875 86.695312 234.386719 86.601562 237.886719 L 87.761719 247.109375 C 88.726562 249.710938 90.058594 255.816406 91.75 265.417969 L 92.984375 274.5 L 93.054688 275.777344 L 93.054688 276.277344 L 92.621094 276.914062 L 92.328125 274.5 L 90.589844 263.359375 C 89.140625 255.320312 88.050781 250.257812 87.324219 248.175781 C 86.261719 245.335938 85.730469 240.324219 85.730469 233.132812 L 85.511719 231.003906 L 85.441406 231.003906 L 85.441406 230.648438 L 85.511719 229.867188 L 85.511719 229.726562 L 86.09375 229.726562 L 86.09375 228.804688 L 85.078125 218.015625 L 85.222656 216.882812 L 83.480469 214.753906 C 82.03125 212.71875 81.28125 210.992188 81.234375 209.574219 L 81.234375 199.992188 C 80.265625 195.734375 79.78125 192.519531 79.78125 190.34375 L 79.78125 174.800781 C 79.925781 171.773438 80.121094 169.976562 80.363281 169.410156 C 79.539062 168.226562 78.984375 167.28125 78.695312 166.570312 L 74.269531 156.496094 C 73.835938 155.5 73.472656 153.703125 73.183594 151.101562 C 72.890625 148.074219 72.722656 143.980469 72.675781 138.824219 L 71.660156 151.101562 L 71.660156 151.242188 L 72.09375 151.386719 L 71.585938 151.597656 L 71.515625 152.238281 L 71.875 152.238281 L 71.949219 152.449219 L 71.515625 152.734375 L 71.152344 155.855469 L 71.152344 155.925781 L 71.078125 157.203125 L 70.5 163.449219 L 69.554688 163.234375 L 69.554688 162.882812 L 66.148438 163.023438 L 65.492188 163.023438 L 65.566406 162.667969 C 65.566406 162.480469 64.988281 162.242188 63.824219 161.957031 L 69.554688 162.382812 L 69.699219 160.183594 L 70.136719 157.488281 L 70.136719 157.203125 L 70.859375 152.875 L 63.316406 154.578125 L 63.390625 154.292969 L 63.246094 153.867188 L 71.007812 152.238281 L 71.078125 151.667969 L 67.597656 151.742188 L 61.796875 151.667969 L 61.433594 151.597656 L 64.332031 151.101562 L 64.480469 150.890625 L 70.28125 151.101562 L 71.152344 151.171875 L 71.152344 151.101562 L 71.804688 146.488281 L 72.382812 135.632812 L 72.382812 133.644531 L 72.890625 133.714844 L 72.964844 133.714844 L 70.714844 128.039062 L 69.628906 124.136719 L 69.628906 124.066406 L 69.699219 123.640625 C 69.652344 121.984375 69.386719 121.109375 68.902344 121.015625 L 68.757812 120.234375 L 68.757812 120.164062 L 68.613281 119.59375 L 67.597656 114.203125 C 64.695312 107.4375 63.246094 102.847656 63.246094 100.4375 L 63.316406 100.222656 C 62.351562 96.4375 61.433594 91.96875 60.5625 86.8125 L 57.589844 69.851562 L 54.613281 53.601562 C 52.921875 43.808594 52.074219 38.0625 52.074219 36.359375 L 52.074219 35.507812 L 52.582031 34.941406 L 52.222656 34.515625 L 52.148438 34.585938 L 52.292969 33.804688 L 52.4375 33.804688 L 52.730469 35.71875 L 52.800781 36.144531 C 54.929688 50.527344 56.667969 61.242188 58.023438 68.289062 L 61.070312 84.328125 L 61.503906 86.882812 C 61.503906 85.792969 61.578125 84.941406 61.722656 84.328125 L 61.648438 82.128906 L 61.796875 76.378906 L 61.796875 42.25 L 62.15625 39.550781 L 62.738281 38.984375 L 62.664062 38.769531 L 62.304688 38.699219 L 62.304688 38.769531 L 63.027344 33.023438 L 63.464844 30.539062 L 63.464844 30.46875 L 63.679688 30.042969 L 63.609375 29.902344 L 63.535156 29.902344 C 63.824219 28.53125 64.140625 27.417969 64.480469 26.566406 L 62.230469 26.140625 L 57.660156 25.574219 L 57.804688 25.429688 L 57.660156 25.429688 L 44.097656 23.65625 L 35.683594 22.023438 L 32.421875 20.890625 L 28.359375 18.832031 L 22.558594 17.839844 L 22.484375 17.765625 L 22.484375 18.121094 C 21.273438 22.144531 20.429688 25.382812 19.945312 27.84375 L 19.65625 28.269531 L 19.800781 28.554688 L 19.726562 28.695312 L 19.367188 30.824219 L 16.828125 43.382812 L 13.492188 55.730469 C 12.089844 61.078125 11.386719 65.335938 11.386719 68.503906 C 11.386719 71.058594 11.652344 72.738281 12.183594 73.542969 C 12.765625 74.347656 15.0625 76.355469 19.074219 79.574219 L 19.074219 79.929688 L 18.785156 80 L 18.785156 79.929688 L 18.566406 79.433594 L 18.496094 80 C 17.140625 79.859375 15.207031 78.296875 12.691406 75.316406 L 12.691406 75.953125 L 12.328125 77.445312 L 12.546875 83.617188 L 12.984375 92.132812 L 12.984375 123.570312 L 13.054688 125.273438 L 12.910156 125.839844 L 13.054688 126.40625 L 13.054688 126.832031 L 12.546875 131.730469 C 12.0625 133.8125 11.824219 135.75 11.824219 137.546875 C 11.824219 141.097656 13.851562 144.148438 17.914062 146.703125 L 24.371094 147.128906 L 31.042969 147.835938 L 37.207031 148.617188 L 41.777344 149.257812 L 45.113281 149.753906 L 48.667969 150.535156 L 51.496094 150.390625 L 53.960938 150.746094 L 57.804688 150.816406 L 57.804688 151.101562 L 57.949219 151.457031 L 58.023438 151.527344 L 52.582031 151.171875 L 42.9375 150.179688 L 37.207031 149.46875 L 17.335938 147.339844 L 18.058594 157.773438 L 19.292969 157.699219 C 23.933594 157.699219 28.722656 158.148438 33.652344 159.050781 L 37.207031 158.199219 L 38.660156 157.914062 L 44.679688 157.0625 L 52.582031 155.714844 L 54.46875 155.429688 L 58.894531 154.71875 L 58.386719 155.144531 L 58.605469 155.5 L 56.066406 155.925781 L 52.582031 156.566406 L 37.207031 159.121094 L 35.46875 159.402344 L 37.207031 159.757812 L 38.585938 160.042969 L 52.582031 161.035156 L 53.382812 161.105469 L 55.265625 161.179688 L 55.121094 161.460938 L 55.992188 161.816406 L 55.847656 161.816406 L 53.382812 161.746094 L 52.582031 161.675781 L 37.644531 160.609375 L 37.207031 160.539062 L 30.609375 159.332031 L 18.058594 158.339844 L 18.566406 165.082031 L 18.496094 165.152344 L 18.132812 164.65625 C 17.9375 164.65625 17.792969 164.75 17.695312 164.9375 L 17.625 164.015625 L 17.261719 158.269531 L 17.191406 158.269531 L 17.191406 157.84375 L 17.261719 157.84375 L 16.898438 151.742188 L 16.898438 147.128906 L 15.449219 146.347656 L 14.359375 145.210938 L 14.433594 145 C 14.433594 144.621094 14.167969 144.40625 13.636719 144.359375 L 13.054688 143.578125 L 13.128906 143.863281 L 12.476562 143.296875 L 12.621094 142.941406 L 12.257812 142.375 C 11.773438 141.617188 11.433594 140.671875 11.242188 139.535156 L 11.242188 139.464844 L 11.167969 139.109375 M 141.070312 229.796875 L 141.722656 233.628906 L 143.972656 245.761719 L 143.824219 245.90625 L 144.625 251.511719 L 145.855469 258.535156 L 147.308594 267.476562 C 146.921875 267.808594 146.726562 268.421875 146.726562 269.320312 C 144.308594 256.972656 143.101562 249.191406 143.101562 245.976562 L 143.101562 245.90625 L 141.503906 233.558594 L 140.925781 229.796875 L 140.925781 229.726562 L 141.070312 229.726562 L 141.070312 229.796875 M 120.761719 301.679688 L 117.714844 301.253906 L 116.480469 301.394531 L 115.902344 300.898438 L 130.261719 300.898438 C 130.3125 301.277344 130.601562 301.464844 131.132812 301.464844 L 131.351562 300.898438 L 133.308594 300.96875 L 133.527344 300.96875 L 133.164062 301.113281 L 133.238281 301.609375 L 133.238281 301.539062 L 133.308594 301.609375 L 124.53125 301.609375 L 120.761719 301.679688 M 71.949219 180.125 L 73.109375 186.582031 L 73.109375 186.722656 L 74.199219 192.402344 L 74.632812 194.601562 L 74.707031 194.957031 C 75.671875 201.152344 76.203125 209.171875 76.300781 219.011719 L 77.96875 220.855469 C 80.097656 222.746094 81.59375 224.925781 82.464844 227.382812 L 82.320312 227.382812 L 81.667969 227.527344 L 81.667969 228.589844 L 81.742188 229.796875 L 81.160156 229.796875 L 81.089844 232.492188 C 81.089844 237.507812 80.796875 241.175781 80.21875 243.492188 L 78.332031 254.277344 L 76.082031 268.753906 L 75.722656 268.683594 L 75.285156 268.824219 L 77.605469 254.066406 C 78.378906 248.671875 79.007812 245.101562 79.492188 243.351562 C 80.074219 241.03125 80.363281 237.460938 80.363281 232.636719 L 80.21875 229.796875 L 80.21875 229.726562 L 80.796875 229.726562 L 80.652344 225.75 C 79.78125 224.332031 78.644531 222.796875 77.242188 221.140625 L 69.628906 213.476562 L 69.484375 213.332031 L 69.484375 213.617188 L 68.105469 229.726562 L 67.671875 229.726562 L 68.105469 225.609375 L 68.105469 224.972656 L 68.175781 224.121094 L 68.175781 218.160156 C 68.175781 216.078125 68.445312 214.304688 68.976562 212.835938 L 66.800781 210.777344 C 62.691406 206.851562 59.714844 203.683594 57.878906 201.269531 L 57.878906 201.199219 L 57.589844 200.703125 L 57.515625 200.632812 L 57.296875 200.347656 L 57.152344 200.207031 C 57.296875 200.0625 57.417969 199.992188 57.515625 199.992188 L 62.085938 205.246094 L 64.1875 207.375 L 64.695312 207.871094 L 64.625 206.949219 L 65.058594 199.355469 L 64.914062 195.027344 L 64.332031 194.957031 L 61.359375 194.957031 L 56.5 195.734375 L 53.960938 196.230469 L 53.816406 195.949219 L 53.746094 196.019531 L 53.597656 196.230469 L 48.667969 196.445312 L 36.121094 196.375 L 35.394531 196.375 L 35.175781 196.304688 L 33.4375 196.230469 L 31.695312 196.304688 L 30.96875 196.230469 L 26.835938 195.949219 L 21.757812 195.238281 L 18.496094 197.507812 L 17.695312 198.078125 L 17.261719 198.359375 L 17.191406 198.433594 L 16.898438 199 C 16.5625 199.664062 16.390625 200.394531 16.390625 201.199219 L 16.246094 201.269531 L 14.652344 212.765625 L 14.578125 212.765625 C 14.867188 214.707031 14.988281 217.402344 14.941406 220.855469 L 14.941406 229.726562 L 14.359375 229.726562 L 14.359375 254.492188 L 15.8125 263.433594 L 15.8125 264.636719 L 15.738281 264.710938 L 15.304688 264.140625 L 15.230469 264.070312 C 15.183594 263.359375 15.039062 262.886719 14.796875 262.652344 L 14.796875 262.367188 L 14.941406 262.367188 L 13.636719 254.703125 L 13.636719 229.726562 L 14.214844 229.726562 L 14.214844 221.070312 L 13.925781 216.667969 C 14.3125 216.433594 14.507812 216.101562 14.507812 215.675781 L 14.433594 215.109375 L 13.925781 215.035156 L 14.070312 212.765625 L 13.925781 212.765625 L 15.667969 200.417969 L 15.667969 200.277344 C 15.667969 199.472656 16.054688 198.667969 16.828125 197.863281 C 16.921875 197.390625 17.550781 196.753906 18.710938 195.949219 L 19.65625 195.378906 L 19.945312 195.238281 L 19.800781 195.167969 L 19.800781 194.386719 C 19.800781 190.839844 19.632812 187.597656 19.292969 184.664062 L 19.875 185.019531 L 19.875 185.164062 L 24.441406 183.460938 L 25.53125 183.246094 L 48.085938 183.035156 L 50.191406 182.75 L 52.582031 182.679688 L 53.382812 182.679688 L 53.382812 182.535156 L 53.597656 182.535156 C 53.695312 182.773438 53.9375 182.890625 54.324219 182.890625 L 54.976562 182.890625 L 55.121094 182.253906 L 55.628906 181.96875 L 57.949219 181.757812 L 56.9375 182.183594 L 56.28125 182.535156 L 58.605469 182.394531 L 57.734375 182.679688 C 60.199219 182.960938 62.253906 183.578125 63.898438 184.523438 L 66.871094 185.660156 L 70.355469 186.15625 L 72.3125 186.367188 L 71.441406 181.402344 L 61.433594 181.613281 L 59.113281 181.683594 L 63.171875 181.257812 L 65.785156 180.761719 L 66.726562 180.761719 L 71.367188 180.90625 L 71.222656 179.984375 L 71.585938 180.125 L 71.949219 180.125 M 128.015625 107.320312 L 128.015625 106.964844 L 127.433594 107.460938 L 122.285156 111.71875 L 124.894531 127.753906 C 125.574219 132.34375 126.175781 138.019531 126.707031 144.785156 L 126.707031 145.28125 L 126.925781 144.929688 L 127.941406 143.152344 C 129.390625 140.457031 130.117188 138.566406 130.117188 137.476562 L 129.753906 122.222656 L 128.015625 107.320312 M 64.40625 30.539062 L 63.824219 34.371094 L 63.027344 39.410156 L 63.027344 39.480469 L 62.957031 39.480469 L 62.957031 39.90625 L 62.519531 42.816406 L 62.519531 60.554688 L 64.695312 57.574219 C 66.535156 55.117188 67.960938 53.4375 68.976562 52.539062 L 69.554688 52.039062 L 69.554688 51.96875 L 70.0625 51.617188 L 70.136719 51.542969 L 69.992188 51.472656 C 70.714844 50.480469 71.175781 49.367188 71.367188 48.136719 L 71.949219 43.738281 L 73.039062 35.011719 L 73.542969 32.3125 L 73.761719 32.242188 L 73.542969 32.242188 L 73.542969 30.539062 C 73.542969 29.074219 73.691406 27.890625 73.980469 26.992188 L 69.628906 26.566406 L 69.628906 26.636719 L 68.976562 26.707031 L 65.347656 26.636719 L 64.40625 30.113281 L 64.40625 30.539062 M 65.421875 130.027344 L 65.492188 129.882812 L 65.566406 129.601562 L 65.566406 129.386719 L 68.03125 119.59375 L 68.175781 119.59375 L 68.539062 120.164062 L 68.539062 121.085938 C 68.25 121.320312 68.105469 122.078125 68.105469 123.355469 L 68.25 123.425781 C 67.765625 125.933594 66.800781 128.9375 65.347656 132.4375 C 63.078125 137.878906 61.84375 142.183594 61.648438 145.355469 L 61.359375 149.964844 L 60.851562 149.964844 L 60.925781 142.800781 L 65.132812 131.089844 L 65.421875 130.097656 L 65.421875 130.027344 M 54.90625 195.308594 L 56.066406 195.097656 L 56.644531 194.957031 L 59.113281 194.601562 L 61.796875 194.601562 L 64.550781 194.742188 L 64.839844 194.8125 L 65.566406 194.601562 L 65.566406 194.742188 L 67.453125 194.671875 L 68.03125 194.601562 L 70.136719 194.246094 L 73.691406 194.386719 L 73.398438 192.472656 L 72.457031 187.007812 L 70.644531 187.007812 C 67.550781 186.441406 64.960938 185.707031 62.882812 184.808594 L 57.007812 183.53125 L 55.847656 183.386719 L 55.339844 183.53125 L 54.976562 183.386719 L 54.6875 183.601562 L 54.398438 183.460938 C 54.300781 183.222656 53.960938 183.105469 53.382812 183.105469 L 52.582031 183.175781 L 51.785156 183.246094 L 48.230469 183.742188 L 26.039062 184.097656 L 25.09375 184.382812 L 24.660156 184.3125 L 19.945312 185.660156 L 20.527344 194.316406 L 20.527344 194.386719 L 22.121094 194.386719 L 27.417969 195.027344 L 48.523438 195.664062 L 54.179688 195.453125 L 54.253906 195.523438 L 54.46875 195.523438 L 54.90625 195.308594 M 75.648438 218.230469 L 75.503906 214.257812 L 75.359375 206.023438 L 73.835938 195.167969 L 73.398438 195.167969 L 68.03125 195.308594 L 65.566406 195.027344 L 65.785156 199.355469 L 65.347656 208.152344 L 65.203125 208.296875 L 67.742188 210.496094 C 70.0625 212.386719 72.699219 214.964844 75.648438 218.230469 M 15.304688 264.140625 L 15.304688 264.070312 L 15.304688 264.140625 M 60.054688 287.84375 L 59.910156 287.769531 L 59.402344 288.765625 L 58.894531 289.617188 L 59.039062 288.695312 L 60.5625 279.257812 L 60.78125 277.835938 L 61.289062 274.5 L 61.578125 272.65625 L 66.292969 237.886719 L 66.074219 237.746094 L 66.074219 235.96875 L 67.089844 229.796875 L 67.089844 229.726562 L 67.523438 229.726562 L 67.523438 229.796875 L 67.015625 235.757812 L 67.089844 236.394531 C 67.089844 240.085938 65.542969 252.171875 62.449219 272.65625 L 62.15625 274.5 L 61.648438 277.835938 L 61.433594 279.257812 L 60.054688 287.84375 M 51.132812 300.757812 L 51.0625 300.96875 L 51.0625 301.039062 L 47.578125 301.324219 L 46.855469 301.324219 L 36.699219 301.113281 L 36.84375 300.828125 L 36.699219 300.402344 L 41.269531 300.472656 L 46.5625 300.472656 L 51.132812 300.757812 "/>
<path style=" stroke:none;fill-rule:evenodd;fill:rgb(0%,0%,0%);fill-opacity:1;" d="M 25.386719 2.511719 L 25.386719 1.871094 L 31.695312 2.792969 L 34.8125 4.214844 C 39.019531 6.246094 41.730469 7.335938 42.9375 7.476562 C 44.144531 7.621094 46.660156 8.519531 50.480469 10.175781 C 53.816406 11.734375 55.847656 12.585938 56.574219 12.730469 L 65.785156 13.011719 L 74.125 12.871094 L 84.785156 11.664062 C 86.914062 11.523438 88.777344 11.074219 90.371094 10.316406 L 96.101562 9.675781 C 99.195312 9.25 101.324219 8.660156 102.484375 7.902344 L 106.183594 6.839844 C 108.019531 6.414062 109.15625 5.964844 109.59375 5.492188 C 110.65625 4.355469 111.742188 3.457031 112.855469 2.792969 C 114.304688 5.207031 115.03125 7.761719 115.03125 10.457031 L 115.320312 18.121094 C 110.777344 20.582031 107.5625 22.402344 105.675781 23.585938 C 101.613281 26.046875 95.039062 27.277344 85.949219 27.277344 L 74.632812 26.636719 L 74.269531 26.140625 L 74.125 26.636719 L 69.554688 26.140625 L 69.121094 26.070312 L 67.597656 25.925781 L 67.523438 25.855469 L 67.523438 25.925781 L 66 25.714844 L 65.277344 25.644531 L 64.988281 25.429688 L 64.914062 25.644531 L 64.625 25.574219 L 62.519531 25.003906 L 57.878906 24.648438 L 53.816406 24.507812 L 45.257812 23.230469 C 40.664062 22.523438 36.773438 21.621094 33.582031 20.535156 C 28.503906 18.214844 24.804688 17.058594 22.484375 17.058594 C 22.582031 13.652344 23.546875 8.800781 25.386719 2.511719 M 147.308594 267.476562 L 147.453125 267.335938 L 148.613281 274.5 L 149.265625 279.183594 L 149.265625 284.578125 L 148.976562 284.71875 C 150.039062 287.652344 150.570312 289.496094 150.570312 290.253906 C 150.570312 291.058594 148.25 293.1875 143.609375 296.640625 L 137.589844 300.6875 L 137.589844 301.183594 L 136.066406 301.539062 L 136.066406 301.394531 L 135.339844 301.679688 L 133.960938 301.890625 L 133.308594 301.609375 L 133.238281 301.539062 L 133.238281 301.609375 L 133.164062 301.113281 L 133.527344 300.96875 L 133.890625 300.757812 L 134.035156 300.613281 L 134.976562 300.117188 L 137.660156 298.558594 L 141.867188 296.074219 L 146.4375 293.09375 C 148.175781 291.910156 149.046875 290.894531 149.046875 290.042969 C 149.046875 289 147.402344 284.222656 144.117188 275.707031 L 143.609375 274.5 L 143.171875 273.367188 C 143.171875 272.894531 143.414062 272.585938 143.898438 272.445312 L 144.1875 273.152344 L 144.769531 274.429688 L 144.769531 274.5 L 147.378906 280.746094 L 147.523438 281.101562 L 147.523438 280.746094 C 147.1875 278.996094 146.96875 276.914062 146.871094 274.5 L 146.726562 269.890625 L 146.726562 269.320312 C 146.726562 268.421875 146.921875 267.808594 147.308594 267.476562 M 132.148438 302.105469 L 126.855469 302.390625 L 128.230469 301.609375 L 132.65625 301.609375 L 132.148438 302.105469 M 116.480469 301.394531 L 115.46875 301.679688 L 107.996094 300.828125 L 106.546875 301.113281 L 106.472656 301.039062 L 98.566406 295.648438 L 92.691406 291.25 C 91.675781 290.253906 91.167969 289.023438 91.167969 287.558594 L 92.402344 281.738281 L 92.328125 278.757812 C 92.28125 278.003906 92.378906 277.386719 92.621094 276.914062 L 93.054688 276.277344 L 93.128906 276.203125 C 93.464844 276.535156 93.707031 277.386719 93.851562 278.757812 L 93.851562 280.25 C 93.851562 281.761719 93.464844 284.292969 92.691406 287.84375 C 92.691406 288.835938 93.5625 290.019531 95.304688 291.390625 L 100.527344 295.433594 L 105.894531 298.984375 L 107.5625 299.410156 L 109.519531 299.621094 L 111.261719 299.761719 L 112.710938 299.90625 L 114.378906 300.261719 L 115.902344 300.898438 L 116.480469 301.394531 M 70.5 163.449219 L 70.789062 163.519531 L 71.007812 163.378906 L 71.222656 163.660156 L 71.660156 164.160156 L 71.441406 164.585938 L 71.660156 170.96875 C 71.660156 172.53125 71.875 174.992188 72.3125 178.351562 L 72.3125 179.769531 L 71.949219 180.125 L 71.585938 180.125 L 71.222656 179.984375 L 71.078125 179.769531 L 71.007812 179.558594 L 69.773438 179.910156 L 65.785156 180.761719 L 63.171875 181.257812 L 59.113281 181.683594 L 57.949219 181.757812 L 55.628906 181.96875 L 53.382812 182.109375 C 45.984375 182.535156 37.28125 182.75 27.269531 182.75 L 20.671875 182.535156 L 20.527344 182.535156 L 20.597656 183.8125 C 20.597656 184.617188 20.355469 185.019531 19.875 185.019531 L 19.292969 184.664062 L 19.21875 184.664062 L 18.859375 182.464844 L 18.566406 182.464844 L 18.566406 182.109375 L 18.785156 181.96875 C 17.816406 176.007812 17.335938 171.417969 17.335938 168.203125 L 17.335938 166.429688 L 17.261719 166.359375 L 17.117188 165.933594 L 17.480469 165.507812 L 17.695312 164.9375 C 17.792969 164.75 17.9375 164.65625 18.132812 164.65625 L 18.496094 165.152344 L 18.566406 165.082031 L 18.640625 165.082031 L 19.074219 164.230469 L 36.410156 163.734375 L 42.066406 163.945312 L 55.703125 163.449219 L 62.59375 163.164062 L 58.820312 162.457031 L 55.992188 161.816406 L 55.121094 161.460938 L 55.265625 161.179688 C 55.414062 160.894531 55.800781 160.753906 56.429688 160.753906 L 56.5 160.753906 L 61.648438 161.460938 L 63.824219 161.957031 C 64.988281 162.242188 65.566406 162.480469 65.566406 162.667969 L 65.492188 163.023438 L 65.421875 163.09375 L 66.507812 163.09375 L 69.554688 163.234375 L 70.5 163.449219 M 76.082031 268.753906 L 76.445312 269.320312 L 75.429688 274.5 L 72.53125 286.636719 C 70.691406 295.71875 69.339844 300.6875 68.46875 301.539062 C 67.742188 302.199219 66.460938 302.554688 64.625 302.601562 L 59.835938 302.53125 L 59.835938 302.742188 L 58.457031 302.742188 L 58.457031 302.460938 L 57.007812 302.460938 L 51.132812 302.316406 L 50.554688 302.105469 L 49.898438 301.609375 L 46.855469 301.539062 L 47.214844 301.324219 L 46.855469 301.324219 L 47.578125 301.324219 L 51.0625 301.039062 L 51.0625 300.96875 L 51.132812 300.757812 L 52.074219 299.410156 L 53.453125 297.847656 L 56.355469 294.230469 L 58.53125 290.253906 L 58.894531 289.617188 L 59.402344 288.765625 L 59.910156 287.769531 L 60.054688 287.84375 L 60.199219 287.84375 L 60.488281 287.984375 L 60.78125 288.339844 L 59.472656 291.460938 L 57.878906 295.222656 C 56.910156 297.066406 55.703125 298.652344 54.253906 299.976562 L 53.089844 301.039062 L 57.441406 300.96875 L 58.457031 300.898438 L 65.710938 300.898438 C 66.679688 300.898438 67.308594 300.589844 67.597656 299.976562 L 68.175781 297.777344 L 69.265625 293.660156 C 70.28125 289.921875 70.910156 287.109375 71.152344 285.214844 C 71.636719 280.722656 72.191406 277.152344 72.820312 274.5 C 73.0625 273.273438 73.351562 272.253906 73.691406 271.449219 C 74.171875 269.984375 74.707031 269.109375 75.285156 268.824219 L 75.722656 268.683594 L 76.082031 268.753906 M 35.175781 301.679688 L 31.914062 301.890625 L 29.375 301.890625 L 29.375 301.964844 L 28.140625 301.890625 L 27.777344 301.964844 L 27.777344 301.890625 L 22.265625 301.253906 C 20.914062 300.542969 20.164062 298.582031 20.019531 295.363281 L 20.019531 290.609375 L 11.386719 279.539062 L 12.621094 274.5 L 13.273438 270.882812 C 13.417969 266.625 13.851562 263.808594 14.578125 262.4375 L 14.796875 262.652344 C 15.039062 262.886719 15.183594 263.359375 15.230469 264.070312 L 15.304688 265.277344 C 15.304688 266.886719 14.941406 269.296875 14.214844 272.515625 L 13.78125 274.5 C 13.34375 276.726562 13.128906 278.453125 13.128906 279.683594 C 13.128906 280.535156 15.351562 283.347656 19.800781 288.125 L 20.019531 288.339844 L 20.019531 287.984375 L 20.816406 287.769531 C 21.300781 287.769531 21.589844 288.550781 21.6875 290.113281 L 24.152344 292.667969 L 23.28125 293.519531 L 21.6875 292.382812 L 21.542969 294.867188 L 22.195312 298.273438 L 22.558594 299.835938 L 27.5625 299.90625 L 29.15625 299.621094 L 29.738281 299.480469 L 34.378906 299.835938 L 36.699219 300.332031 L 36.699219 300.402344 L 36.84375 300.828125 L 36.699219 301.113281 C 36.457031 301.347656 35.949219 301.539062 35.175781 301.679688 M 13.925781 216.667969 L 12.039062 217.023438 C 10.007812 217.023438 7.976562 216.667969 5.949219 215.960938 C 3.964844 215.25 2.972656 214.5625 2.972656 213.902344 L 3.046875 213.6875 C 2.707031 213.214844 2.515625 212.269531 2.464844 210.851562 C 3.046875 208.25 3.289062 206.261719 3.191406 204.890625 L 2.972656 199.070312 L 2.902344 187.433594 L 3.554688 162.527344 L 3.554688 150.179688 C 3.554688 145.402344 3.699219 142.5625 3.988281 141.664062 C 4.667969 139.773438 6.480469 138.824219 9.429688 138.824219 L 11.167969 139.109375 L 11.242188 139.464844 L 11.242188 139.535156 C 11.195312 139.867188 10.660156 140.078125 9.644531 140.171875 C 8.148438 140.269531 6.9375 140.597656 6.019531 141.167969 C 5.390625 141.5 5.027344 142.230469 4.933594 143.367188 L 4.933594 157.347656 L 4.785156 168.839844 L 4.785156 168.914062 L 5.292969 168.839844 L 5.367188 168.839844 C 6.382812 167.847656 6.960938 167.066406 7.109375 166.5 C 7.832031 165.128906 8.097656 164.0625 7.90625 163.308594 L 8.847656 156.777344 C 9.71875 148.5 11.265625 144.359375 13.492188 144.359375 L 13.636719 144.359375 C 14.167969 144.40625 14.433594 144.621094 14.433594 145 L 14.359375 145.210938 L 12.621094 146.773438 L 12.546875 146.773438 L 12.546875 146.84375 C 11.289062 148.074219 10.636719 149.613281 10.589844 151.457031 L 10.300781 157.984375 L 9.644531 164.9375 C 9.066406 168.15625 7.855469 169.882812 6.019531 170.117188 L 4.785156 170.542969 L 4.640625 176.152344 C 4.640625 195.5 4.449219 207.871094 4.0625 213.261719 L 6.164062 214.539062 L 6.382812 214.609375 L 6.816406 214.824219 C 8.269531 215.390625 9.863281 215.675781 11.605469 215.675781 C 12.570312 215.675781 13.296875 215.460938 13.78125 215.035156 L 13.925781 215.035156 L 14.433594 215.109375 L 14.507812 215.675781 C 14.507812 216.101562 14.3125 216.433594 13.925781 216.667969 M 58.605469 155.5 L 58.386719 155.144531 L 58.894531 154.71875 L 59.257812 154.507812 L 60.199219 154.152344 L 62.59375 153.585938 L 63.246094 153.867188 L 63.390625 154.292969 L 63.316406 154.578125 C 63.125 154.910156 62.375 155.195312 61.070312 155.429688 L 59.039062 156.070312 L 58.75 155.714844 L 58.605469 155.5 M 58.023438 151.527344 L 57.949219 151.457031 L 57.804688 151.101562 L 57.804688 150.816406 C 57.855469 150.25 58.726562 149.964844 60.417969 149.964844 L 61.359375 149.964844 C 63.921875 150.011719 64.960938 150.320312 64.480469 150.890625 L 64.332031 151.101562 L 61.433594 151.597656 L 60.78125 151.667969 L 58.457031 151.667969 L 58.023438 151.527344 M 104.152344 287.628906 L 104.585938 287.488281 C 105.121094 287.488281 106.28125 288.882812 108.070312 291.675781 L 108.359375 292.101562 L 109.300781 293.660156 L 109.59375 294.085938 C 110.414062 295.269531 112.347656 297.066406 115.394531 299.480469 C 115.394531 299.953125 115.054688 300.1875 114.378906 300.1875 C 113.945312 300.1875 113.4375 300 112.855469 299.621094 C 110.777344 298.25 107.777344 294.441406 103.863281 288.195312 L 104.152344 287.628906 M 130.261719 300.898438 L 130.261719 300.757812 L 137.007812 282.164062 L 137.152344 281.667969 L 138.3125 278.546875 L 138.457031 278.050781 C 139.039062 278.050781 139.257812 278.378906 139.113281 279.042969 C 139.113281 280.320312 138.433594 282.828125 137.082031 286.566406 L 135.628906 290.398438 L 131.351562 300.898438 L 131.132812 301.464844 C 130.601562 301.464844 130.3125 301.277344 130.261719 300.898438 M 44.605469 180.761719 L 45.332031 180.976562 L 46.78125 180.621094 L 48.59375 180.550781 L 60.125 180.125 L 69.917969 178.207031 L 71.007812 178.28125 C 70.472656 173.925781 70.207031 171.113281 70.207031 169.835938 L 70.207031 166.570312 L 70.355469 165.011719 L 68.394531 165.082031 L 59.472656 165.082031 L 56.71875 165.222656 C 56.621094 165.082031 56.476562 165.011719 56.28125 165.011719 L 56.210938 165.292969 C 52.246094 165.4375 48.910156 165.386719 46.203125 165.152344 L 23.136719 165.863281 L 18.785156 166.5 L 19.21875 174.164062 L 20.453125 181.757812 L 35.757812 181.046875 L 44.460938 180.761719 L 44.605469 180.761719 M 23.136719 265.703125 C 24.347656 265.703125 25.507812 267.617188 26.617188 271.449219 L 26.980469 272.65625 L 27.417969 274.5 L 28.867188 280.816406 C 29.445312 283.136719 30.195312 285.265625 31.113281 287.203125 L 32.347656 289.617188 C 33.847656 292.125 35.660156 294.203125 37.789062 295.859375 L 37.714844 296.214844 L 37.0625 296.640625 C 35.855469 296.640625 33.824219 294.324219 30.96875 289.6875 L 30.609375 289.121094 L 29.300781 286.847656 C 28.429688 285.050781 27.804688 283.277344 27.417969 281.527344 L 27.125 280.675781 L 25.023438 274.5 L 24.441406 272.65625 L 22.410156 266.414062 C 22.410156 265.9375 22.652344 265.703125 23.136719 265.703125 M 46.636719 299.976562 C 46.054688 299.976562 45.765625 299.761719 45.765625 299.335938 L 49.683594 283.371094 C 50.167969 283.371094 50.40625 283.609375 50.40625 284.082031 C 48.714844 294.679688 47.457031 299.976562 46.636719 299.976562 "/>
<path style=" stroke:none;fill-rule:evenodd;fill:rgb(7.450981%,10.588235%,15.686275%);fill-opacity:1;" d="M 141.503906 229.796875 L 141.070312 229.796875 L 141.070312 229.726562 L 141.433594 229.65625 L 141.503906 229.796875 M 61.722656 84.328125 C 61.578125 84.941406 61.503906 85.792969 61.503906 86.882812 L 61.070312 84.328125 L 61.722656 84.328125 M 68.613281 119.59375 L 68.757812 120.164062 L 68.539062 120.164062 L 68.175781 119.59375 L 68.613281 119.59375 M 68.757812 120.234375 L 68.902344 121.015625 L 68.539062 121.085938 L 68.539062 120.164062 L 68.757812 120.234375 M 69.699219 123.640625 L 69.628906 124.066406 L 69.628906 124.136719 L 69.699219 123.640625 M 112.566406 32.953125 L 112.785156 33.519531 L 112.710938 33.308594 L 112.566406 32.953125 M 127.433594 107.460938 L 128.015625 106.964844 L 128.015625 107.320312 L 127.433594 107.460938 M 128.886719 143.082031 L 129.320312 142.230469 L 129.320312 143.082031 L 128.886719 143.082031 M 63.316406 39.410156 L 63.464844 39.695312 L 62.957031 39.90625 L 62.957031 39.480469 L 63.027344 39.480469 L 63.316406 39.410156 M 108.070312 291.675781 L 108.503906 292.027344 L 108.359375 292.101562 L 108.070312 291.675781 M 137.007812 282.164062 L 136.9375 281.527344 L 137.734375 278.332031 L 138.3125 278.546875 L 137.152344 281.667969 L 137.007812 282.164062 M 139.910156 246.472656 C 139.910156 245.621094 140.03125 245.125 140.273438 244.980469 L 140.5625 246.402344 L 139.910156 246.472656 M 12.691406 146.914062 L 12.546875 146.84375 L 12.546875 146.773438 L 12.621094 146.773438 L 12.691406 146.914062 M 44.460938 180.335938 L 44.605469 180.761719 L 44.460938 180.410156 L 44.460938 180.335938 M 57.152344 200.914062 L 57.515625 200.632812 L 57.589844 200.703125 L 57.152344 200.914062 M 64.1875 207.375 L 64.625 206.949219 L 64.695312 207.871094 L 64.1875 207.375 M 67.378906 225.46875 L 67.960938 225.46875 L 67.816406 225.539062 L 67.378906 225.46875 M 67.671875 229.726562 L 68.105469 229.726562 L 67.523438 229.796875 L 67.523438 229.726562 L 67.671875 229.726562 M 89.285156 218.65625 L 89.574219 218.371094 L 89.71875 218.585938 L 89.285156 218.65625 M 86.890625 229.726562 L 86.308594 229.796875 L 86.308594 229.726562 L 86.890625 229.726562 M 93.054688 275.777344 L 93.128906 276.203125 L 93.054688 276.203125 L 93.054688 275.777344 M 112.710938 299.90625 L 112.855469 299.621094 C 113.4375 300 113.945312 300.1875 114.378906 300.1875 L 114.378906 300.261719 L 112.710938 299.90625 M 35.175781 196.304688 L 35.394531 196.375 L 35.683594 196.515625 L 36.121094 196.445312 L 35.757812 196.585938 L 35.683594 196.941406 L 35.03125 196.941406 L 35.175781 196.304688 M 132.65625 229.796875 L 132.65625 229.726562 L 132.65625 229.796875 M 131.929688 227.171875 L 131.859375 226.957031 L 132.511719 226.886719 L 131.929688 227.171875 "/>
<path style=" stroke:none;fill-rule:evenodd;fill:rgb(16.078432%,19.215687%,26.666668%);fill-opacity:1;" d="M 13.054688 126.832031 L 13.054688 126.40625 L 13.417969 126.761719 L 13.054688 126.832031 M 52.800781 36.144531 L 52.730469 35.71875 L 53.238281 35.648438 L 52.875 35.71875 L 52.875 36.003906 L 52.800781 36.144531 M 63.246094 95.679688 L 63.171875 95.679688 L 63.246094 95.679688 M 4.785156 168.839844 L 5.292969 168.839844 L 4.785156 168.914062 L 4.785156 168.839844 M 44.460938 180.410156 L 44.605469 180.761719 L 44.460938 180.761719 L 44.460938 180.410156 M 18.640625 229.796875 L 18.640625 229.726562 L 19.21875 229.726562 L 18.640625 229.796875 M 6.816406 214.824219 L 6.382812 214.609375 L 6.816406 214.683594 L 6.816406 214.824219 M 46.636719 299.976562 L 46.636719 300.472656 L 46.5625 300.472656 L 46.636719 299.976562 "/>
<path style=" stroke:none;fill-rule:evenodd;fill:rgb(100%,40.000001%,0%);fill-opacity:1;" d="M 18.496094 80 L 18.566406 79.433594 L 18.785156 79.929688 L 18.785156 80 L 18.496094 80 M 57.660156 25.429688 L 57.804688 25.429688 L 57.660156 25.574219 L 57.660156 25.429688 M 68.757812 120.164062 L 68.757812 120.234375 L 68.539062 120.164062 L 68.757812 120.164062 M 126.925781 144.929688 L 126.707031 145.28125 L 126.707031 144.785156 L 126.925781 144.929688 M 137.660156 228.730469 L 137.660156 228.875 L 137.589844 228.875 L 137.660156 228.730469 M 144.117188 272.515625 L 144.1875 273.152344 L 143.898438 272.445312 L 144.117188 272.515625 M 70.0625 51.617188 L 69.992188 51.472656 L 70.136719 51.542969 L 70.0625 51.617188 M 73.542969 32.3125 L 73.542969 32.242188 L 73.761719 32.242188 L 73.542969 32.3125 M 70.5 52.539062 L 70.570312 52.679688 L 70.28125 52.75 L 70.5 52.539062 M 110.316406 293.730469 L 110.96875 294.300781 L 110.027344 293.804688 L 110.316406 293.730469 M 40.980469 72.265625 L 40.90625 72.335938 L 40.90625 72.265625 L 40.980469 72.265625 M 83.046875 172.320312 L 83.117188 172.246094 L 83.046875 172.320312 M 65.347656 208.152344 L 65.203125 208.296875 L 65.347656 208.152344 M 53.960938 196.230469 L 53.746094 196.019531 L 53.816406 195.949219 L 53.960938 196.230469 M 69.484375 213.617188 L 69.484375 213.332031 L 69.628906 213.476562 L 69.484375 213.617188 M 15.304688 264.140625 L 15.304688 264.070312 L 15.304688 264.140625 M 93.128906 276.203125 L 93.054688 276.277344 L 93.054688 276.203125 L 93.128906 276.203125 M 133.960938 300.6875 L 133.890625 300.757812 L 134.035156 300.542969 L 133.960938 300.6875 M 137.226562 290.824219 L 137.515625 290.894531 L 137.226562 291.53125 L 137.226562 290.824219 "/>
<path style=" stroke:none;fill-rule:evenodd;fill:rgb(7.450981%,6.666667%,10.980392%);fill-opacity:1;" d="M 22.484375 18.121094 L 22.484375 17.765625 L 22.558594 17.839844 L 22.484375 18.121094 M 126.707031 144.785156 L 126.925781 144.929688 L 126.707031 144.785156 M 144.117188 272.445312 L 144.117188 272.515625 L 143.898438 272.445312 L 144.117188 272.445312 M 147.523438 280.746094 L 147.523438 280.816406 L 147.378906 280.746094 L 147.523438 280.746094 "/>
<path style=" stroke:none;fill-rule:evenodd;fill:rgb(100%,60.000002%,0%);fill-opacity:1;" d="M 13.128906 143.863281 L 13.054688 143.578125 L 13.636719 144.359375 L 13.5625 144.359375 L 13.128906 143.863281 M 126.347656 145.707031 L 126.417969 145.707031 L 126.417969 145.78125 L 126.347656 145.707031 M 140.5625 244.980469 L 140.996094 248.316406 L 140.925781 248.386719 L 140.5625 246.402344 L 140.273438 244.980469 L 140.5625 244.980469 M 63.027344 39.410156 L 63.316406 39.410156 L 63.027344 39.480469 L 63.027344 39.410156 M 69.554688 52.039062 L 69.484375 51.96875 L 69.554688 51.96875 L 69.554688 52.039062 M 62.59375 61.832031 L 62.519531 61.832031 L 62.59375 61.832031 M 69.917969 53.816406 L 69.917969 53.957031 L 69.847656 53.957031 L 69.917969 53.816406 M 65.132812 130.027344 L 65.421875 130.027344 L 65.421875 130.097656 L 65.132812 130.027344 M 19.800781 194.457031 L 19.800781 195.167969 L 19.945312 195.238281 L 19.65625 195.378906 L 19.726562 194.53125 L 19.800781 194.457031 M 57.296875 200.347656 L 57.152344 200.277344 L 57.152344 200.207031 L 57.296875 200.347656 M 67.960938 225.46875 L 68.105469 225.113281 L 68.105469 225.609375 L 67.816406 225.539062 L 67.960938 225.46875 M 30.96875 196.230469 L 31.695312 196.304688 L 31.042969 196.304688 L 30.96875 196.230469 M 35.394531 196.375 L 36.046875 196.375 L 36.121094 196.445312 L 35.683594 196.515625 L 35.394531 196.375 M 94.289062 269.675781 L 94.289062 269.320312 L 94.359375 269.675781 L 94.289062 269.675781 "/>
<path style=" stroke:none;fill-rule:evenodd;fill:rgb(23.921569%,23.529412%,28.627452%);fill-opacity:1;" d="M 19.726562 28.695312 L 19.800781 28.554688 L 20.019531 28.695312 L 19.726562 28.695312 M 63.464844 30.46875 L 63.464844 30.539062 L 63.101562 30.46875 L 63.464844 30.46875 M 70.207031 52.464844 L 70.5 52.539062 L 70.28125 52.75 L 70.136719 52.609375 L 70.207031 52.464844 M 63.027344 94.617188 L 63.246094 95.253906 L 63.246094 95.679688 L 63.171875 95.679688 L 63.027344 94.617188 M 65.132812 130.027344 L 65.421875 130.097656 L 65.132812 130.027344 M 36.046875 196.375 L 36.121094 196.375 L 36.121094 196.445312 L 36.046875 196.375 "/>
<path style=" stroke:none;fill-rule:evenodd;fill:rgb(100%,100%,100%);fill-opacity:1;" d="M 18.566406 165.082031 L 18.058594 158.339844 L 30.609375 159.332031 L 37.207031 160.539062 L 37.644531 160.609375 L 52.582031 161.675781 L 53.382812 161.746094 L 55.847656 161.816406 L 55.992188 161.816406 C 55.847656 162.054688 55.773438 162.359375 55.773438 162.738281 L 55.773438 163.234375 L 55.703125 163.449219 L 42.066406 163.945312 L 36.410156 163.734375 L 19.074219 164.230469 L 18.640625 165.082031 L 18.566406 165.082031 M 55.265625 161.179688 L 53.382812 161.105469 L 52.582031 161.035156 L 38.585938 160.042969 L 37.207031 159.757812 L 35.46875 159.402344 L 37.207031 159.121094 L 52.582031 156.566406 L 56.066406 155.925781 L 58.605469 155.5 L 58.75 155.714844 L 57.949219 157.203125 L 56.5 159.476562 L 56.5 159.757812 L 56.429688 160.539062 L 56.5 160.679688 L 56.5 160.753906 L 56.429688 160.753906 C 55.800781 160.753906 55.414062 160.894531 55.265625 161.179688 M 58.894531 154.71875 L 54.46875 155.429688 L 52.582031 155.714844 L 44.679688 157.0625 L 38.660156 157.914062 L 37.207031 158.199219 L 33.652344 159.050781 C 28.722656 158.148438 23.933594 157.699219 19.292969 157.699219 L 18.058594 157.773438 L 17.335938 147.339844 L 37.207031 149.46875 L 42.9375 150.179688 L 52.582031 151.171875 L 58.023438 151.527344 L 58.457031 151.667969 L 58.894531 151.667969 L 58.894531 152.519531 L 59.257812 152.664062 L 59.183594 152.734375 L 59.113281 152.734375 L 58.894531 153.941406 L 59.257812 154.507812 L 58.894531 154.71875 M 53.597656 182.535156 L 53.382812 182.535156 L 53.382812 182.679688 L 52.582031 182.679688 L 50.191406 182.75 L 48.085938 183.035156 L 25.53125 183.246094 L 24.441406 183.460938 L 19.875 185.164062 L 19.875 185.019531 C 20.355469 185.019531 20.597656 184.617188 20.597656 183.8125 L 20.527344 182.535156 L 20.671875 182.535156 L 27.269531 182.75 C 37.28125 182.75 45.984375 182.535156 53.382812 182.109375 L 53.597656 182.535156 M 54.6875 183.601562 L 54.324219 183.8125 L 54.324219 186.226562 L 53.527344 191.40625 L 53.382812 191.476562 C 53.089844 191.574219 52.945312 191.855469 52.945312 192.328125 L 53.816406 194.457031 L 53.816406 194.8125 L 53.890625 194.957031 L 54.179688 195.453125 L 48.523438 195.664062 L 27.417969 195.027344 L 22.121094 194.386719 L 20.527344 194.386719 L 20.527344 194.316406 L 19.945312 185.660156 L 24.660156 184.3125 L 25.09375 184.382812 L 26.039062 184.097656 L 48.230469 183.742188 L 51.785156 183.246094 L 52.582031 183.175781 L 53.382812 183.105469 C 53.960938 183.105469 54.300781 183.222656 54.398438 183.460938 L 54.6875 183.601562 "/>
<path style=" stroke:none;fill-rule:evenodd;fill:rgb(80.000001%,80.000001%,80.000001%);fill-opacity:1;" d="M 61.433594 151.597656 L 61.796875 151.667969 L 67.597656 151.742188 L 71.078125 151.667969 L 71.007812 152.238281 L 63.246094 153.867188 L 62.59375 153.585938 L 60.199219 154.152344 L 59.257812 154.507812 L 58.894531 153.941406 L 59.113281 152.734375 L 59.183594 152.734375 L 59.257812 152.664062 L 58.894531 152.519531 L 58.894531 151.667969 L 60.78125 151.667969 L 61.433594 151.597656 M 63.316406 154.578125 L 70.859375 152.875 L 70.136719 157.203125 L 70.136719 157.488281 L 69.699219 160.183594 L 69.554688 162.382812 L 63.824219 161.957031 L 61.648438 161.460938 L 56.5 160.753906 L 56.5 160.679688 L 56.429688 160.539062 L 56.5 159.757812 L 56.5 159.476562 L 57.949219 157.203125 L 58.75 155.714844 L 59.039062 156.070312 L 61.070312 155.429688 C 62.375 155.195312 63.125 154.910156 63.316406 154.578125 M 65.492188 163.023438 L 66.148438 163.023438 L 69.554688 162.882812 L 69.554688 163.234375 L 66.507812 163.09375 L 65.421875 163.09375 L 65.492188 163.023438 M 69.773438 179.910156 L 71.078125 179.769531 L 71.222656 179.984375 L 71.367188 180.90625 L 66.726562 180.761719 L 65.785156 180.761719 L 69.773438 179.910156 M 59.113281 181.683594 L 61.433594 181.613281 L 71.441406 181.402344 L 72.3125 186.367188 L 70.355469 186.15625 L 66.871094 185.660156 L 63.898438 184.523438 C 62.253906 183.578125 60.199219 182.960938 57.734375 182.679688 L 58.605469 182.394531 L 56.28125 182.535156 L 56.9375 182.183594 L 57.949219 181.757812 L 59.113281 181.683594 M 55.628906 181.96875 L 55.121094 182.253906 L 54.976562 182.890625 L 54.324219 182.890625 C 53.9375 182.890625 53.695312 182.773438 53.597656 182.535156 L 53.382812 182.109375 L 55.628906 181.96875 M 55.339844 183.53125 L 55.847656 183.386719 L 57.007812 183.53125 L 62.882812 184.808594 C 64.960938 185.707031 67.550781 186.441406 70.644531 187.007812 L 72.457031 187.007812 L 73.398438 192.472656 L 73.691406 194.386719 L 70.136719 194.246094 L 68.03125 194.601562 L 67.453125 194.671875 L 65.566406 194.742188 L 65.566406 194.601562 L 64.839844 194.8125 L 64.550781 194.742188 L 61.796875 194.601562 L 59.113281 194.601562 L 56.644531 194.957031 L 56.066406 195.097656 L 54.90625 195.308594 L 54.46875 195.523438 L 54.253906 195.523438 L 54.179688 195.453125 L 53.890625 194.957031 L 53.816406 194.8125 L 53.816406 194.457031 L 52.945312 192.328125 C 52.945312 191.855469 53.089844 191.574219 53.382812 191.476562 L 53.527344 191.40625 L 54.324219 186.226562 L 54.324219 183.8125 L 54.6875 183.601562 L 54.976562 183.386719 L 55.339844 183.53125 M 55.703125 163.449219 L 55.773438 163.234375 L 55.773438 162.738281 C 55.773438 162.359375 55.847656 162.054688 55.992188 161.816406 L 58.820312 162.457031 L 62.59375 163.164062 L 55.703125 163.449219 "/>
<path style=" stroke:none;fill-rule:evenodd;fill:rgb(63.137257%,63.137257%,63.137257%);fill-opacity:1;" d="M 136.066406 301.539062 L 135.339844 301.679688 L 136.066406 301.394531 L 136.066406 301.539062 M 133.960938 301.890625 L 132.148438 302.105469 L 132.65625 301.609375 L 133.308594 301.609375 L 133.960938 301.890625 M 126.855469 302.390625 L 125.402344 302.390625 L 124.605469 302.175781 L 124.53125 301.609375 L 128.230469 301.609375 L 126.855469 302.390625 M 58.457031 302.742188 L 51.421875 302.53125 L 51.132812 302.316406 L 57.007812 302.460938 L 58.457031 302.460938 L 58.457031 302.742188 M 134.035156 300.613281 L 133.960938 300.6875 L 134.035156 300.542969 L 134.035156 300.613281 "/>
<path style=" stroke:none;fill-rule:evenodd;fill:rgb(89.019608%,89.019608%,89.019608%);fill-opacity:1;" d="M 124.605469 302.175781 L 120.90625 301.679688 L 120.761719 301.679688 L 124.53125 301.609375 L 124.605469 302.175781 M 46.855469 301.539062 L 42.503906 301.464844 L 35.175781 301.679688 C 35.949219 301.539062 36.457031 301.347656 36.699219 301.113281 L 46.855469 301.324219 L 47.214844 301.324219 L 46.855469 301.539062 M 31.914062 301.890625 L 30.679688 302.035156 L 29.375 301.964844 L 29.375 301.890625 L 31.914062 301.890625 "/>
<path style=" stroke:none;fill-rule:evenodd;fill:rgb(23.529412%,22.745098%,25.882354%);fill-opacity:1;" d="M 11.242188 139.535156 C 11.433594 140.671875 11.773438 141.617188 12.257812 142.375 L 12.621094 142.941406 L 12.476562 143.296875 L 13.128906 143.863281 L 13.5625 144.359375 L 13.492188 144.359375 C 11.265625 144.359375 9.71875 148.5 8.847656 156.777344 L 7.90625 163.308594 C 8.097656 164.0625 7.832031 165.128906 7.109375 166.5 C 6.960938 167.066406 6.382812 167.847656 5.367188 168.839844 L 4.785156 168.839844 L 4.933594 157.347656 L 4.933594 143.367188 C 5.027344 142.230469 5.390625 141.5 6.019531 141.167969 C 6.9375 140.597656 8.148438 140.269531 9.644531 140.171875 C 10.660156 140.078125 11.195312 139.867188 11.242188 139.535156 M 57.804688 150.816406 L 53.960938 150.746094 L 51.496094 150.390625 L 48.667969 150.535156 L 45.113281 149.753906 L 41.777344 149.257812 L 37.207031 148.617188 L 31.042969 147.835938 L 24.371094 147.128906 L 17.914062 146.703125 C 13.851562 144.148438 11.824219 141.097656 11.824219 137.546875 C 11.824219 135.75 12.0625 133.8125 12.546875 131.730469 L 13.054688 126.832031 L 13.417969 126.761719 L 13.5625 126.621094 L 17.191406 104.410156 C 18.351562 97.503906 18.929688 90.050781 18.929688 82.058594 L 18.785156 80 L 19.074219 79.929688 L 19.074219 79.574219 C 15.0625 76.355469 12.765625 74.347656 12.183594 73.542969 C 11.652344 72.738281 11.386719 71.058594 11.386719 68.503906 C 11.386719 65.335938 12.089844 61.078125 13.492188 55.730469 L 16.828125 43.382812 L 19.367188 30.824219 L 19.726562 28.695312 L 20.019531 28.695312 C 22.917969 26.566406 27.683594 25.5 34.304688 25.5 C 45.039062 25.5 52.464844 26.328125 56.574219 27.984375 L 59.835938 29.6875 C 60.804688 30.207031 61.890625 30.46875 63.101562 30.46875 L 63.464844 30.539062 L 63.027344 33.023438 L 62.304688 38.769531 C 60.707031 39.527344 59.691406 39.90625 59.257812 39.90625 C 57.804688 39.90625 56.453125 39.195312 55.195312 37.777344 L 53.238281 35.648438 L 52.730469 35.71875 L 52.4375 33.804688 L 52.292969 33.804688 L 52.148438 34.585938 C 48.328125 37.753906 45.28125 42.296875 43.011719 48.210938 L 39.820312 55.375 C 38.609375 58.214844 38.003906 60.554688 38.003906 62.402344 C 38.003906 64.53125 38.488281 66.660156 39.457031 68.789062 L 40.980469 72.265625 L 40.90625 72.265625 L 40.90625 72.335938 C 47.097656 88.042969 51.0625 97.667969 52.800781 101.214844 C 55.558594 106.847656 59.667969 116.449219 65.132812 130.027344 L 65.421875 130.097656 L 65.132812 131.089844 L 60.925781 142.800781 L 60.851562 149.964844 L 60.417969 149.964844 C 58.726562 149.964844 57.855469 150.25 57.804688 150.816406 M 74.414062 32.527344 L 74.632812 32.597656 L 94.070312 32.738281 L 107.488281 32.457031 C 107.828125 32.457031 109.351562 32.90625 112.058594 33.804688 L 112.128906 33.804688 L 115.613281 44.945312 C 116.144531 46.980469 116.796875 51.308594 117.570312 57.929688 L 118.65625 68.574219 L 118.367188 73.472656 L 118.875 80.355469 C 118.730469 80.449219 118.65625 80.613281 118.65625 80.851562 C 118.65625 82.601562 119.261719 84.941406 120.472656 87.875 L 123.300781 94.617188 C 123.734375 95.707031 124 98.023438 124.097656 101.570312 L 124.824219 105.046875 L 125.1875 108.382812 L 124.75 108.667969 C 121.609375 110.984375 120.035156 112.429688 120.035156 112.996094 L 120.398438 113.351562 L 121.777344 112.144531 L 122.792969 120.234375 L 124.242188 128.535156 C 124.726562 130.285156 125.113281 133.148438 125.402344 137.121094 C 125.644531 141.617188 125.960938 144.480469 126.347656 145.707031 L 126.417969 145.78125 C 125.546875 146.960938 124.800781 147.625 124.171875 147.765625 L 125.113281 147.765625 L 125.113281 148.191406 C 125.113281 149.328125 125.332031 151.171875 125.765625 153.726562 C 126.203125 156.234375 126.417969 159.261719 126.417969 162.808594 C 126.417969 166.878906 126.03125 170.570312 125.257812 173.878906 C 124.679688 176.246094 124.386719 179.957031 124.386719 185.019531 L 124.386719 188.921875 L 124.53125 190.699219 C 124.679688 191.738281 124.917969 192.402344 125.257812 192.683594 L 129.898438 203.328125 C 132.316406 208.675781 133.9375 212.8125 134.757812 215.746094 L 137.660156 228.660156 L 137.660156 228.730469 L 137.589844 228.875 L 137.515625 228.875 C 136.9375 227.550781 135.265625 226.886719 132.511719 226.886719 L 131.859375 226.957031 L 131.929688 227.171875 L 133.164062 229.726562 L 132.65625 229.726562 L 132.65625 229.796875 C 135.316406 235.140625 137.441406 237.816406 139.039062 237.816406 L 139.257812 237.816406 L 140.054688 240.085938 L 140.5625 244.980469 L 140.273438 244.980469 C 140.03125 245.125 139.910156 245.621094 139.910156 246.472656 C 139.910156 247.609375 140.199219 249.570312 140.78125 252.363281 L 140.925781 258.535156 C 140.925781 261.707031 140.125 267.027344 138.53125 274.5 L 137.734375 278.332031 L 136.9375 281.527344 L 137.007812 282.164062 L 130.261719 300.757812 L 130.261719 300.898438 L 124.460938 300.898438 L 124.53125 300.542969 L 124.386719 300.472656 L 116.988281 298.558594 L 116.773438 298.484375 L 113.21875 296.074219 L 110.96875 294.300781 L 110.316406 293.730469 L 108.503906 292.027344 L 108.070312 291.675781 C 106.28125 288.882812 105.121094 287.488281 104.585938 287.488281 L 104.152344 287.628906 L 102.195312 285.289062 C 100.742188 283.300781 99.582031 281.265625 98.710938 279.183594 L 96.828125 274.5 C 95.761719 271.710938 95.109375 269.582031 94.867188 268.113281 L 94.433594 265.703125 L 94.507812 262.226562 L 94.359375 245.550781 C 94.359375 241.527344 94.554688 238.691406 94.941406 237.035156 C 95.519531 234.289062 96.777344 231.878906 98.710938 229.796875 L 98.785156 229.726562 L 99.4375 229.726562 L 100.234375 228.945312 L 93.707031 223.765625 L 89.71875 218.585938 L 89.792969 218.230469 C 88.339844 217.613281 87.109375 216.929688 86.09375 216.171875 L 86.09375 215.320312 C 85.222656 212.8125 84.785156 210.1875 84.785156 207.445312 C 84.785156 202.949219 84.957031 199.589844 85.292969 197.367188 C 85.390625 196.421875 85.828125 194.71875 86.601562 192.257812 C 86.84375 191.265625 87.398438 190.390625 88.269531 189.632812 L 90.953125 187.148438 C 88.484375 183.507812 86.769531 180.195312 85.800781 177.214844 L 85.800781 177.144531 L 85.730469 176.929688 L 85.585938 176.578125 L 85.65625 176.007812 L 83.117188 172.246094 L 87.6875 165.71875 L 82.757812 155.570312 L 82.757812 154.222656 L 76.808594 140.742188 C 74.199219 135.207031 72.261719 130.640625 71.007812 127.046875 C 70.570312 125.816406 69.652344 121.273438 68.25 113.421875 C 68.007812 112.144531 66.726562 108.289062 64.40625 101.855469 L 63.171875 95.679688 L 63.246094 95.679688 L 63.679688 95.753906 L 63.824219 95.679688 C 66.628906 89.578125 68.683594 85.769531 69.992188 84.257812 C 72.457031 81.371094 74.292969 79.503906 75.503906 78.652344 C 78.164062 76.757812 81.160156 74.9375 84.496094 73.1875 L 77.824219 68.078125 L 73.617188 62.898438 C 72.554688 61.480469 71.828125 59.726562 71.441406 57.648438 L 70.570312 52.679688 L 70.5 52.539062 L 70.207031 52.464844 C 71.320312 50.765625 72.09375 48.113281 72.53125 44.519531 C 73.449219 40.167969 74.078125 36.167969 74.414062 32.527344 M 6.164062 214.539062 L 4.0625 213.261719 C 4.449219 207.871094 4.640625 195.5 4.640625 176.152344 L 4.785156 170.542969 L 6.019531 170.117188 C 7.855469 169.882812 9.066406 168.15625 9.644531 164.9375 L 10.300781 157.984375 L 10.589844 151.457031 C 10.636719 149.613281 11.289062 148.074219 12.546875 146.84375 L 12.691406 146.914062 C 12.257812 146.914062 12.136719 155.144531 12.328125 171.609375 C 12.234375 177.238281 11.871094 181.378906 11.242188 184.027344 L 9.210938 196.585938 L 8.558594 205.246094 L 8.195312 209.503906 L 6.527344 213.332031 C 6.140625 213.429688 5.949219 213.6875 5.949219 214.113281 L 6.164062 214.539062 M 56.210938 165.292969 L 53.164062 172.886719 C 51.132812 176.007812 48.230469 178.492188 44.460938 180.335938 L 44.460938 180.761719 L 35.757812 181.046875 L 20.453125 181.757812 L 19.21875 174.164062 L 18.785156 166.5 L 23.136719 165.863281 L 46.203125 165.152344 C 48.910156 165.386719 52.246094 165.4375 56.210938 165.292969 M 53.597656 196.230469 L 53.453125 197.226562 C 53.453125 198.644531 54.6875 199.875 57.152344 200.914062 C 58.894531 206.449219 62.304688 214.632812 67.378906 225.46875 L 67.816406 225.539062 L 68.105469 225.609375 L 67.671875 229.726562 L 67.089844 229.726562 L 67.089844 229.796875 L 66.074219 235.96875 L 66.074219 237.746094 L 66.292969 237.886719 L 61.578125 272.65625 L 61.289062 274.5 L 60.78125 277.835938 L 60.5625 279.257812 L 59.039062 288.695312 L 58.894531 289.617188 L 58.53125 290.253906 L 56.355469 294.230469 L 53.453125 297.847656 L 52.074219 299.410156 L 51.132812 300.757812 L 46.5625 300.472656 L 46.636719 300.472656 L 46.636719 299.976562 C 47.457031 299.976562 48.714844 294.679688 50.40625 284.082031 C 50.40625 283.609375 50.167969 283.371094 49.683594 283.371094 L 45.765625 299.335938 C 45.765625 299.761719 46.054688 299.976562 46.636719 299.976562 L 46.5625 300.472656 L 41.269531 300.472656 L 36.699219 300.402344 L 36.699219 300.332031 L 34.378906 299.835938 L 33.871094 299.054688 L 32.636719 296.996094 L 28.648438 289.6875 L 27.851562 287.984375 L 25.675781 282.378906 L 25.3125 281.738281 L 21.757812 274.5 L 20.378906 271.734375 L 18.132812 267.832031 L 17.335938 259.953125 L 16.246094 248.601562 L 16.390625 248.53125 C 16.488281 244.699219 17.238281 238.453125 18.640625 229.796875 L 19.21875 229.726562 L 20.378906 222.558594 C 20.816406 219.671875 22.050781 215.390625 24.078125 209.714844 C 24.320312 208.957031 25.867188 206.78125 28.722656 203.1875 L 31.261719 199.921875 C 31.695312 199.164062 32.25 198.621094 32.929688 198.289062 L 33.945312 197.582031 C 34.332031 197.34375 34.691406 197.132812 35.03125 196.941406 L 35.683594 196.941406 L 35.757812 196.585938 L 36.121094 196.445312 L 36.121094 196.375 L 48.667969 196.445312 L 53.597656 196.230469 M 23.136719 265.703125 C 22.652344 265.703125 22.410156 265.9375 22.410156 266.414062 L 24.441406 272.65625 L 25.023438 274.5 L 27.125 280.675781 L 27.417969 281.527344 C 27.804688 283.277344 28.429688 285.050781 29.300781 286.847656 L 30.609375 289.121094 L 30.96875 289.6875 C 33.824219 294.324219 35.855469 296.640625 37.0625 296.640625 L 37.714844 296.214844 L 37.789062 295.859375 C 35.660156 294.203125 33.847656 292.125 32.347656 289.617188 L 31.113281 287.203125 C 30.195312 285.265625 29.445312 283.136719 28.867188 280.816406 L 27.417969 274.5 L 26.980469 272.65625 L 26.617188 271.449219 C 25.507812 267.617188 24.347656 265.703125 23.136719 265.703125 M 133.890625 300.757812 L 133.527344 300.96875 L 133.308594 300.96875 L 131.351562 300.898438 L 135.628906 290.398438 L 137.082031 286.566406 L 137.226562 290.824219 L 137.226562 291.53125 L 136.355469 293.804688 L 135.992188 294.867188 L 134.757812 298.34375 L 134.179688 300.046875 L 134.035156 300.542969 L 133.890625 300.757812 "/>
<path style=" stroke:none;fill-rule:evenodd;fill:rgb(6.27451%,6.27451%,7.058824%);fill-opacity:1;" d="M 14.359375 145.210938 L 15.449219 146.347656 L 16.898438 147.128906 L 16.898438 151.742188 L 17.261719 157.84375 L 17.191406 157.84375 L 17.191406 158.269531 L 17.261719 158.269531 L 17.625 164.015625 L 17.695312 164.9375 L 17.480469 165.507812 L 17.117188 165.933594 L 17.261719 166.359375 L 17.335938 166.429688 L 17.335938 168.203125 C 17.335938 171.417969 17.816406 176.007812 18.785156 181.96875 L 18.566406 182.109375 L 18.566406 182.464844 L 18.859375 182.464844 L 19.21875 184.664062 L 19.292969 184.664062 C 19.632812 187.597656 19.800781 190.839844 19.800781 194.386719 L 19.800781 194.457031 L 19.726562 194.53125 L 19.65625 195.378906 L 18.710938 195.949219 C 17.550781 196.753906 16.921875 197.390625 16.828125 197.863281 C 16.054688 198.667969 15.667969 199.472656 15.667969 200.277344 L 15.667969 200.417969 L 13.925781 212.765625 L 14.070312 212.765625 L 13.925781 215.035156 L 13.78125 215.035156 C 13.296875 215.460938 12.570312 215.675781 11.605469 215.675781 C 9.863281 215.675781 8.269531 215.390625 6.816406 214.824219 L 6.816406 214.683594 L 6.382812 214.609375 L 6.164062 214.539062 L 5.949219 214.113281 C 5.949219 213.6875 6.140625 213.429688 6.527344 213.332031 L 8.195312 209.503906 L 8.558594 205.246094 L 9.210938 196.585938 L 11.242188 184.027344 C 11.871094 181.378906 12.234375 177.238281 12.328125 171.609375 C 12.136719 155.144531 12.257812 146.914062 12.691406 146.914062 L 12.621094 146.773438 L 14.359375 145.210938 M 13.054688 126.40625 L 12.910156 125.839844 L 13.054688 125.273438 L 12.984375 123.570312 L 12.984375 92.132812 L 12.546875 83.617188 L 12.328125 77.445312 L 12.691406 75.953125 L 12.691406 75.316406 C 15.207031 78.296875 17.140625 79.859375 18.496094 80 L 18.785156 80 L 18.929688 82.058594 C 18.929688 90.050781 18.351562 97.503906 17.191406 104.410156 L 13.5625 126.621094 L 13.417969 126.761719 L 13.054688 126.40625 M 19.800781 28.554688 L 19.65625 28.269531 L 19.945312 27.84375 C 20.429688 25.382812 21.273438 22.144531 22.484375 18.121094 L 22.558594 17.839844 L 28.359375 18.832031 L 32.421875 20.890625 L 35.683594 22.023438 L 44.097656 23.65625 L 57.660156 25.429688 L 57.660156 25.574219 L 62.230469 26.140625 L 64.480469 26.566406 C 64.140625 27.417969 63.824219 28.53125 63.535156 29.902344 L 63.609375 29.902344 L 63.679688 30.042969 L 63.464844 30.46875 L 63.101562 30.46875 C 61.890625 30.46875 60.804688 30.207031 59.835938 29.6875 L 56.574219 27.984375 C 52.464844 26.328125 45.039062 25.5 34.304688 25.5 C 27.683594 25.5 22.917969 26.566406 20.019531 28.695312 L 19.800781 28.554688 M 62.304688 38.769531 L 62.304688 38.699219 L 62.664062 38.769531 L 62.738281 38.984375 L 62.15625 39.550781 L 61.796875 42.25 L 61.796875 76.378906 L 61.648438 82.128906 L 61.722656 84.328125 L 61.070312 84.328125 L 58.023438 68.289062 C 56.667969 61.242188 54.929688 50.527344 52.800781 36.144531 L 52.875 36.003906 L 52.875 35.71875 L 53.238281 35.648438 L 55.195312 37.777344 C 56.453125 39.195312 57.804688 39.90625 59.257812 39.90625 C 59.691406 39.90625 60.707031 39.527344 62.304688 38.769531 M 52.148438 34.585938 L 52.222656 34.515625 L 52.582031 34.941406 L 52.074219 35.507812 L 52.074219 36.359375 C 52.074219 38.0625 52.921875 43.808594 54.613281 53.601562 L 57.589844 69.851562 L 60.5625 86.8125 C 61.433594 91.96875 62.351562 96.4375 63.316406 100.222656 L 63.246094 100.4375 C 63.246094 102.847656 64.695312 107.4375 67.597656 114.203125 L 68.613281 119.59375 L 68.03125 119.59375 L 65.566406 129.386719 L 65.566406 129.601562 L 65.492188 129.882812 L 65.421875 130.027344 L 65.132812 130.027344 C 59.667969 116.449219 55.558594 106.847656 52.800781 101.214844 C 51.0625 97.667969 47.097656 88.042969 40.90625 72.335938 L 40.980469 72.265625 L 39.457031 68.789062 C 38.488281 66.660156 38.003906 64.53125 38.003906 62.402344 C 38.003906 60.554688 38.609375 58.214844 39.820312 55.375 L 43.011719 48.210938 C 45.28125 42.296875 48.328125 37.753906 52.148438 34.585938 M 68.902344 121.015625 C 69.386719 121.109375 69.652344 121.984375 69.699219 123.640625 L 69.628906 124.136719 L 70.714844 128.039062 L 72.964844 133.714844 L 72.890625 133.714844 L 72.382812 133.644531 L 72.382812 135.632812 L 71.804688 146.488281 L 71.152344 151.101562 L 71.152344 151.171875 L 70.28125 151.101562 L 64.480469 150.890625 C 64.960938 150.320312 63.921875 150.011719 61.359375 149.964844 L 61.648438 145.355469 C 61.84375 142.183594 63.078125 137.878906 65.347656 132.4375 C 66.800781 128.9375 67.765625 125.933594 68.25 123.425781 L 68.105469 123.355469 C 68.105469 122.078125 68.25 121.320312 68.539062 121.085938 L 68.902344 121.015625 M 112.566406 32.953125 C 111.742188 30.066406 111.164062 27.109375 110.824219 24.082031 L 110.535156 21.8125 L 115.613281 18.761719 L 115.46875 20.820312 C 115.46875 24.460938 115.613281 26.921875 115.902344 28.199219 C 116.191406 29.757812 117.183594 32.265625 118.875 35.71875 C 119.601562 38.371094 120.617188 43.3125 121.921875 50.550781 L 124.460938 65.382812 L 125.332031 72.832031 L 125.257812 76.59375 L 125.402344 78.863281 L 125.1875 78.933594 C 125.910156 81.0625 126.828125 85.417969 127.941406 91.992188 L 129.464844 102.28125 C 129.464844 104.03125 128.160156 105.972656 125.546875 108.101562 L 125.546875 104.765625 C 125.015625 103.960938 124.75 102.917969 124.75 101.640625 L 124.824219 98.734375 L 123.519531 92.558594 L 121.050781 86.386719 C 120.664062 84.210938 120.15625 82.460938 119.527344 81.132812 L 119.527344 80.285156 C 119.238281 78.15625 119.09375 75.882812 119.09375 73.472656 L 119.382812 68.574219 L 118.222656 57.648438 C 117.402344 51.070312 116.773438 46.8125 116.335938 44.875 L 112.785156 33.519531 L 112.566406 32.953125 M 112.710938 33.308594 L 112.785156 33.519531 L 112.128906 33.804688 L 112.058594 33.804688 C 109.351562 32.90625 107.828125 32.457031 107.488281 32.457031 L 94.070312 32.738281 L 74.632812 32.597656 L 74.414062 32.527344 L 74.269531 32.242188 L 74.34375 31.886719 L 74.414062 31.886719 L 74.632812 27.0625 L 86.019531 28.054688 C 91.484375 28.054688 96.222656 27.488281 100.234375 26.351562 C 102.316406 25.785156 104.105469 25.125 105.601562 24.367188 L 109.808594 22.167969 C 109.90625 25.429688 110.558594 28.980469 111.769531 32.8125 L 111.769531 32.882812 L 112.710938 33.308594 M 127.433594 107.460938 L 128.015625 107.320312 L 129.753906 122.222656 L 130.117188 137.476562 C 130.117188 138.566406 129.390625 140.457031 127.941406 143.152344 L 126.925781 144.929688 L 126.707031 144.785156 C 126.175781 138.019531 125.574219 132.34375 124.894531 127.753906 L 122.285156 111.71875 L 127.433594 107.460938 M 128.886719 143.082031 L 129.320312 143.082031 L 129.320312 161.605469 L 129.683594 180.054688 C 129.828125 181.898438 130.40625 184.949219 131.421875 189.207031 L 132.148438 193.75 L 132.4375 196.089844 C 132.488281 196.800781 132.679688 197.367188 133.019531 197.792969 L 135.414062 208.152344 C 136.667969 214.066406 137.925781 218.5625 139.183594 221.636719 C 140.054688 223.859375 140.804688 226.53125 141.433594 229.65625 L 141.070312 229.726562 L 140.925781 229.726562 L 140.925781 229.796875 L 141.503906 233.558594 L 143.101562 245.90625 L 143.101562 245.976562 C 143.101562 249.191406 144.308594 256.972656 146.726562 269.320312 L 146.726562 269.890625 L 146.871094 274.5 C 146.96875 276.914062 147.1875 278.996094 147.523438 280.746094 L 147.378906 280.746094 L 144.769531 274.5 L 144.769531 274.429688 L 145.277344 273.4375 L 143.972656 263.21875 L 140.707031 240.652344 L 140.925781 240.441406 L 138.386719 229.796875 L 138.386719 229.726562 L 138.964844 229.726562 L 135.558594 215.605469 C 134.832031 212.625 133.1875 208.460938 130.625 203.117188 L 125.984375 192.613281 L 125.984375 192.328125 C 125.402344 191.761719 125.113281 189.324219 125.113281 185.019531 C 125.113281 180.859375 125.402344 177.191406 125.984375 174.023438 C 126.757812 169.527344 127.144531 165.789062 127.144531 162.808594 L 126.78125 155.003906 L 125.621094 147.625 C 126.539062 147.105469 127.628906 145.589844 128.886719 143.082031 M 137.660156 228.875 L 137.878906 229.726562 L 137.296875 229.726562 L 137.296875 229.796875 L 137.589844 231.144531 L 138.964844 236.894531 L 139.691406 237.390625 L 139.691406 237.746094 L 139.257812 237.816406 L 139.039062 237.816406 C 137.441406 237.816406 135.316406 235.140625 132.65625 229.796875 L 132.65625 229.726562 L 133.164062 229.726562 L 131.929688 227.171875 L 132.511719 226.886719 C 135.265625 226.886719 136.9375 227.550781 137.515625 228.875 L 137.660156 228.875 M 140.996094 248.316406 L 143.464844 264.355469 L 143.972656 270.527344 L 144.117188 272.445312 L 143.898438 272.445312 C 143.414062 272.585938 143.171875 272.894531 143.171875 273.367188 L 143.609375 274.5 L 144.117188 275.707031 C 147.402344 284.222656 149.046875 289 149.046875 290.042969 C 149.046875 290.894531 148.175781 291.910156 146.4375 293.09375 L 141.867188 296.074219 L 137.660156 298.558594 L 134.976562 300.117188 L 134.035156 300.613281 L 134.035156 300.542969 L 134.179688 300.046875 L 134.757812 298.34375 L 135.992188 294.867188 L 136.355469 293.804688 L 137.226562 291.53125 L 137.515625 290.894531 L 137.226562 290.824219 L 137.082031 286.566406 C 138.433594 282.828125 139.113281 280.320312 139.113281 279.042969 C 139.257812 278.378906 139.039062 278.050781 138.457031 278.050781 L 138.3125 278.546875 L 137.734375 278.332031 L 138.53125 274.5 C 140.125 267.027344 140.925781 261.707031 140.925781 258.535156 L 140.78125 252.363281 C 140.199219 249.570312 139.910156 247.609375 139.910156 246.472656 L 140.5625 246.402344 L 140.925781 248.386719 L 140.996094 248.316406 M 63.027344 39.410156 L 63.824219 34.371094 L 64.40625 30.539062 L 64.40625 30.113281 L 65.347656 26.636719 L 68.976562 26.707031 L 69.628906 26.636719 L 69.628906 26.566406 L 73.980469 26.992188 C 73.691406 27.890625 73.542969 29.074219 73.542969 30.539062 L 73.542969 32.3125 L 73.039062 35.011719 L 71.949219 43.738281 L 71.367188 48.136719 C 71.175781 49.367188 70.714844 50.480469 69.992188 51.472656 L 70.0625 51.617188 L 69.554688 51.96875 L 69.484375 51.96875 L 69.554688 52.039062 L 68.976562 52.539062 C 67.960938 53.4375 66.535156 55.117188 64.695312 57.574219 L 62.519531 60.554688 L 62.519531 42.816406 L 62.957031 39.90625 L 63.464844 39.695312 L 63.316406 39.410156 L 63.027344 39.410156 M 70.570312 52.679688 L 71.441406 57.648438 C 71.828125 59.726562 72.554688 61.480469 73.617188 62.898438 L 77.824219 68.078125 L 84.496094 73.1875 C 81.160156 74.9375 78.164062 76.757812 75.503906 78.652344 C 74.292969 79.503906 72.457031 81.371094 69.992188 84.257812 C 68.683594 85.769531 66.628906 89.578125 63.824219 95.679688 L 63.679688 95.753906 L 63.246094 95.679688 L 63.246094 95.253906 L 63.027344 94.617188 L 62.882812 94.050781 L 62.230469 90.429688 L 62.230469 87.378906 L 62.375 87.308594 L 62.519531 76.804688 L 62.519531 61.832031 L 62.59375 61.832031 C 64.867188 58.570312 66.945312 55.96875 68.832031 54.027344 L 70.0625 52.539062 L 70.136719 52.609375 L 70.28125 52.75 L 70.570312 52.679688 M 82.757812 155.570312 L 87.6875 165.71875 L 83.117188 172.246094 L 83.046875 172.320312 L 82.539062 171.894531 L 82.609375 171.539062 C 80.433594 168.132812 78.644531 164.890625 77.242188 161.816406 L 76.519531 160.183594 L 75.359375 157.203125 L 74.199219 153.230469 L 73.980469 151.101562 L 73.398438 141.804688 L 73.542969 135.136719 C 75.769531 140.625 78.71875 147.484375 82.394531 155.714844 L 82.757812 155.570312 M 85.585938 176.578125 L 85.730469 176.929688 L 85.800781 177.144531 L 85.800781 177.214844 C 86.769531 180.195312 88.484375 183.507812 90.953125 187.148438 L 88.269531 189.632812 C 87.398438 190.390625 86.84375 191.265625 86.601562 192.257812 C 85.828125 194.71875 85.390625 196.421875 85.292969 197.367188 C 84.957031 199.589844 84.785156 202.949219 84.785156 207.445312 C 84.785156 210.1875 85.222656 212.8125 86.09375 215.320312 L 86.09375 216.386719 L 85.730469 216.597656 L 85.441406 215.675781 C 83.359375 213.878906 82.199219 211.75 81.957031 209.289062 C 82.441406 204.9375 82.441406 201.765625 81.957031 199.78125 C 80.992188 195.949219 80.507812 189.585938 80.507812 180.691406 L 80.796875 170.046875 L 81.886719 171.609375 C 83.480469 173.785156 84.496094 175.464844 84.933594 176.648438 L 85.148438 176.71875 L 85.441406 176.078125 L 85.585938 176.578125 M 89.71875 218.585938 L 93.707031 223.765625 L 100.234375 228.945312 L 99.4375 229.726562 L 98.785156 229.726562 L 98.710938 229.796875 C 96.777344 231.878906 95.519531 234.289062 94.941406 237.035156 C 94.554688 238.691406 94.359375 241.527344 94.359375 245.550781 L 94.507812 262.226562 L 94.433594 265.703125 L 94.867188 268.113281 C 95.109375 269.582031 95.761719 271.710938 96.828125 274.5 L 98.710938 279.183594 C 99.582031 281.265625 100.742188 283.300781 102.195312 285.289062 L 104.152344 287.628906 L 103.863281 288.195312 C 107.777344 294.441406 110.777344 298.25 112.855469 299.621094 L 112.710938 299.90625 L 111.261719 299.761719 L 109.519531 299.621094 L 107.5625 299.410156 L 105.894531 298.984375 L 100.527344 295.433594 L 95.304688 291.390625 C 93.5625 290.019531 92.691406 288.835938 92.691406 287.84375 C 93.464844 284.292969 93.851562 281.761719 93.851562 280.25 L 93.851562 278.757812 C 93.707031 277.386719 93.464844 276.535156 93.128906 276.203125 L 93.054688 275.777344 L 92.984375 274.5 L 91.75 265.417969 C 90.058594 255.816406 88.726562 249.710938 87.761719 247.109375 L 86.601562 237.886719 C 86.695312 234.386719 86.601562 231.6875 86.308594 229.796875 L 86.890625 229.726562 L 86.816406 229.511719 L 86.816406 228.875 C 86.816406 225.042969 86.40625 221.140625 85.585938 217.164062 C 86.695312 218.113281 87.929688 218.609375 89.285156 218.65625 L 89.71875 218.585938 M 108.503906 292.027344 L 110.316406 293.730469 L 110.027344 293.804688 L 110.96875 294.300781 L 113.21875 296.074219 L 116.773438 298.484375 L 116.988281 298.558594 L 124.386719 300.472656 L 124.53125 300.542969 L 124.460938 300.898438 L 115.902344 300.898438 L 114.378906 300.261719 L 114.378906 300.1875 C 115.054688 300.1875 115.394531 299.953125 115.394531 299.480469 C 112.347656 297.066406 110.414062 295.269531 109.59375 294.085938 L 109.300781 293.660156 L 108.359375 292.101562 L 108.503906 292.027344 M 69.917969 53.816406 L 69.847656 53.957031 L 69.917969 53.957031 L 69.917969 53.816406 M 56.210938 165.292969 L 56.28125 165.011719 C 56.476562 165.011719 56.621094 165.082031 56.71875 165.222656 L 59.472656 165.082031 L 68.394531 165.082031 L 70.355469 165.011719 L 70.207031 166.570312 L 70.207031 169.835938 C 70.207031 171.113281 70.472656 173.925781 71.007812 178.28125 L 69.917969 178.207031 L 60.125 180.125 L 48.59375 180.550781 L 46.78125 180.621094 L 45.332031 180.976562 L 44.605469 180.761719 L 44.460938 180.335938 C 48.230469 178.492188 51.132812 176.007812 53.164062 172.886719 L 56.210938 165.292969 M 65.566406 195.027344 L 68.03125 195.308594 L 73.398438 195.167969 L 73.835938 195.167969 L 75.359375 206.023438 L 75.503906 214.257812 L 75.648438 218.230469 C 72.699219 214.964844 70.0625 212.386719 67.742188 210.496094 L 65.203125 208.296875 L 65.347656 208.152344 L 65.785156 199.355469 L 65.566406 195.027344 M 53.960938 196.230469 L 56.5 195.734375 L 61.359375 194.957031 L 64.332031 194.957031 L 64.914062 195.027344 L 65.058594 199.355469 L 64.625 206.949219 L 64.1875 207.375 L 62.085938 205.246094 L 57.515625 199.992188 C 57.417969 199.992188 57.296875 200.0625 57.152344 200.207031 L 57.152344 200.277344 L 57.296875 200.347656 L 57.515625 200.632812 L 57.152344 200.914062 C 54.6875 199.875 53.453125 198.644531 53.453125 197.226562 L 53.597656 196.230469 L 53.746094 196.019531 L 53.960938 196.230469 M 69.484375 213.617188 L 69.628906 213.476562 L 77.242188 221.140625 C 78.644531 222.796875 79.78125 224.332031 80.652344 225.75 L 80.796875 229.726562 L 80.21875 229.726562 L 80.21875 229.796875 L 80.363281 232.636719 C 80.363281 237.460938 80.074219 241.03125 79.492188 243.351562 C 79.007812 245.101562 78.378906 248.671875 77.605469 254.066406 L 75.285156 268.824219 C 74.707031 269.109375 74.171875 269.984375 73.691406 271.449219 C 73.351562 272.253906 73.0625 273.273438 72.820312 274.5 C 72.191406 277.152344 71.636719 280.722656 71.152344 285.214844 C 70.910156 287.109375 70.28125 289.921875 69.265625 293.660156 L 68.175781 297.777344 L 67.597656 299.976562 C 67.308594 300.589844 66.679688 300.898438 65.710938 300.898438 L 58.457031 300.898438 L 57.441406 300.96875 L 53.089844 301.039062 L 54.253906 299.976562 C 55.703125 298.652344 56.910156 297.066406 57.878906 295.222656 L 59.472656 291.460938 L 60.78125 288.339844 L 60.488281 287.984375 L 60.199219 287.84375 L 60.054688 287.84375 L 61.433594 279.257812 L 61.648438 277.835938 L 62.15625 274.5 L 62.449219 272.65625 C 65.542969 252.171875 67.089844 240.085938 67.089844 236.394531 L 67.015625 235.757812 L 67.523438 229.796875 L 68.105469 229.726562 L 69.484375 213.617188 M 57.589844 200.703125 L 57.878906 201.199219 L 57.878906 201.269531 C 59.714844 203.683594 62.691406 206.851562 66.800781 210.777344 L 68.976562 212.835938 C 68.445312 214.304688 68.175781 216.078125 68.175781 218.160156 L 68.175781 224.121094 L 68.105469 224.972656 L 68.105469 225.113281 L 67.960938 225.46875 L 67.378906 225.46875 C 62.304688 214.632812 58.894531 206.449219 57.152344 200.914062 L 57.589844 200.703125 M 17.261719 198.359375 L 17.695312 198.078125 L 18.496094 197.507812 L 21.757812 195.238281 L 26.835938 195.949219 L 30.96875 196.230469 L 31.042969 196.304688 L 31.695312 196.304688 L 33.4375 196.230469 L 35.175781 196.304688 L 35.03125 196.941406 C 34.691406 197.132812 34.332031 197.34375 33.945312 197.582031 L 32.929688 198.289062 C 32.25 198.621094 31.695312 199.164062 31.261719 199.921875 L 28.722656 203.1875 C 25.867188 206.78125 24.320312 208.957031 24.078125 209.714844 C 22.050781 215.390625 20.816406 219.671875 20.378906 222.558594 L 19.21875 229.726562 L 18.640625 229.726562 L 18.640625 229.796875 C 17.238281 238.453125 16.488281 244.699219 16.390625 248.53125 L 16.246094 248.601562 L 17.335938 259.953125 L 18.132812 267.832031 L 20.378906 271.734375 L 21.757812 274.5 L 25.3125 281.738281 L 25.675781 282.378906 L 27.851562 287.984375 L 28.648438 289.6875 L 32.636719 296.996094 L 33.871094 299.054688 L 34.378906 299.835938 L 29.738281 299.480469 L 29.15625 299.621094 L 27.5625 299.90625 L 22.558594 299.835938 L 22.195312 298.273438 L 21.542969 294.867188 L 21.6875 292.382812 L 23.28125 293.519531 L 24.152344 292.667969 L 21.6875 290.113281 C 21.589844 288.550781 21.300781 287.769531 20.816406 287.769531 L 20.019531 287.984375 L 19.800781 288.125 C 15.351562 283.347656 13.128906 280.535156 13.128906 279.683594 C 13.128906 278.453125 13.34375 276.726562 13.78125 274.5 L 14.214844 272.515625 C 14.941406 269.296875 15.304688 266.886719 15.304688 265.277344 L 15.230469 264.070312 L 15.304688 264.140625 L 15.738281 264.710938 L 15.8125 264.636719 L 15.8125 263.433594 L 14.359375 254.492188 L 14.359375 229.726562 L 14.941406 229.726562 L 14.941406 220.855469 C 14.988281 217.402344 14.867188 214.707031 14.578125 212.765625 L 14.652344 212.765625 L 16.246094 201.269531 L 16.390625 201.199219 C 16.390625 200.394531 16.5625 199.664062 16.898438 199 L 17.261719 198.359375 M 94.289062 269.675781 L 94.359375 269.675781 L 94.289062 269.320312 L 94.289062 269.675781 "/>
<path style="fill:none;stroke-width:1;stroke-linecap:round;stroke-linejoin:round;stroke:rgb(0%,0%,0%);stroke-opacity:1;stroke-miterlimit:4;" d="M 6.598919 88.100037 L 6.550447 86.999069 C 7.282908 82.366749 7.549502 79.050084 7.35023 77.049076 L 7.35023 67.148626 L 7.051321 47.350478 L 6.800884 44.851282 C 6.733562 43.882431 6.865513 43.265889 7.199429 42.998904 L 7.299065 42.698891 L 7.099793 42.451173 C 6.53429 41.716277 6.248845 40.351078 6.248845 38.350069 C 6.248845 35.982989 6.733562 32.916795 7.700303 29.148733 L 10.000015 20.250164 L 11.59958 11.101124 C 12.232405 7.600048 13.032188 4.698998 13.998929 2.400729 L 13.899292 2.249346 L 13.950457 2.199802 L 13.899292 1.698862 C 13.899292 -0.767305 14.567124 -4.249115 15.900096 -8.749319 L 15.601187 -8.950246 L 15.999732 -9.151173 L 16.050896 -9.299803 L 16.150533 -9.299803 L 16.301333 -9.200716 L 16.549078 -9.200716 C 18.517566 -9.200716 20.766114 -8.600689 23.300106 -7.400634 C 26.165321 -6.032682 28.098802 -5.26751 29.10055 -5.099612 C 30.067291 -4.934467 31.683014 -4.298658 33.950411 -3.200443 L 35.951214 -2.201315 L 36.750997 -1.650832 L 44.099843 -1.301274 L 50.150724 -1.449905 L 57.249132 -2.201315 L 60.001247 -3.101356 L 69.251259 -4.750055 C 69.550168 -4.950982 71.149733 -5.51798 74.049956 -6.45105 L 76.651269 -8.551145 L 77.100979 -8.498849 L 77.14945 -8.251132 L 77.049814 -8.149292 C 78.016555 -6.949238 78.549743 -5.399626 78.64938 -3.500457 L 78.899817 1.451144 L 78.899817 3.050299 L 78.80018 3.19893 L 78.999453 7.600048 C 79.066775 9.499216 79.500327 11.08461 80.30011 12.350722 C 81.099892 13.616835 81.93199 16.765602 82.799094 21.799776 C 84.533303 31.832342 85.551208 38.149143 85.850117 40.750178 L 85.850117 46.150424 C 86.283669 47.182581 86.833015 49.767102 87.500847 53.901235 L 88.699175 62.199777 C 88.699175 63.267716 88.30063 64.250329 87.500847 65.15037 C 88.467588 70.184544 88.933455 73.784707 88.90114 75.950861 C 88.833818 78.317941 88.90114 81.984163 89.100413 86.949526 C 89.100413 87.582582 88.817661 88.567948 88.249465 89.900119 L 88.30063 89.850575 C 88.467588 89.850575 88.615696 92.349771 88.750339 97.350916 C 88.88229 102.682351 88.866133 106.816484 88.699175 109.750562 C 88.499902 112.483714 88.699175 115.783864 89.299685 119.651012 L 90.998887 129.100066 C 91.467446 129.466137 91.882149 131.015749 92.251072 133.748901 C 92.916211 138.350945 93.950274 142.465811 95.350567 146.099004 L 96.548894 152.000189 M 96.150349 152.000189 L 96.600059 154.700312 L 98.151153 163.249324 L 98.048824 163.351164 L 98.600862 167.300885 L 99.449117 172.249733 L 100.450865 178.55002 M 62.750668 185.199863 L 62.548703 183.498869 L 61.350375 175.648971 C 60.35132 169.984493 59.600009 166.417358 59.099135 164.950319 C 58.366674 162.949311 58.000444 159.417958 58.000444 154.350755 L 57.849643 152.850687 L 57.801171 152.850687 L 57.801171 152.600216 L 57.849643 152.049733 L 57.849643 151.950646 M 58.250881 151.950646 L 58.250881 151.301075 L 57.550734 143.698894 L 57.65037 142.900693 L 56.44935 141.400625 C 55.450295 139.966615 54.933263 138.750046 54.900949 137.750918 L 54.900949 130.999235 C 54.233117 127.999098 53.899201 125.733858 53.899201 124.20076 L 53.899201 113.248886 C 53.998837 111.115762 54.133481 109.849649 54.300439 109.450549 C 53.732243 108.616566 53.349855 107.95048 53.150583 107.44954 L 50.099559 100.351052 C 49.800651 99.649186 49.550214 98.383073 49.350941 96.549962 C 49.148976 94.416838 49.033183 91.532303 49.000868 87.89911 L 48.300722 96.549962 L 48.300722 96.649049 L 48.59963 96.750889 L 48.249557 96.899519 L 48.201085 97.350916 L 48.448829 97.350916 L 48.499994 97.499547 L 48.201085 97.700473 L 47.950648 99.899656 L 47.950648 99.949199 L 47.899484 100.84924 L 47.500939 105.250358 M 48.499994 117.000433 L 49.299777 121.550181 L 49.299777 121.649268 L 50.051088 125.651285 L 50.349997 127.200897 L 50.401161 127.451367 C 51.0663 131.816703 51.432531 137.467419 51.499853 144.400761 L 52.649708 145.699903 C 54.117323 147.032073 55.148693 148.567923 55.749203 150.299194 L 55.649567 150.299194 L 55.199857 150.401034 L 55.199857 151.149692 L 55.251022 152.000189 M 54.849784 152.000189 L 54.801313 153.899358 C 54.801313 157.433464 54.599347 160.017985 54.200802 161.650169 L 52.900146 169.249597 L 51.349052 179.450061 M 9.100596 175.150783 L 9.100596 174.949856 L 9.200232 174.949856 L 8.300813 169.549611 L 8.300813 151.950646 M 8.699358 151.950646 L 8.699358 145.851286 L 8.500086 142.74931 M 6.650083 88.400051 C 6.782034 89.201004 7.016314 89.86709 7.35023 90.401059 L 7.600667 90.80016 L 7.50103 91.05063 L 7.95074 91.44973 M 8.798994 92.399315 L 9.550305 93.200269 L 10.549361 93.750752 L 10.549361 97.001359 L 10.799798 101.300637 L 10.751326 101.300637 L 10.751326 101.600651 L 10.799798 101.600651 L 11.050235 105.649458 L 11.098706 106.299029 M 11.699217 106.400869 L 11.349143 101.650194 L 20.001338 102.349308 L 24.549598 103.199806 L 24.851199 103.249349 L 35.148739 104.00076 L 35.700777 104.050303 L 37.399979 104.099847 L 37.499615 104.099847 M 39.500419 99.098702 L 36.449396 99.599642 L 35.148739 99.800569 L 29.70106 100.750153 L 25.551346 101.35018 L 24.549598 101.551107 L 22.099085 102.151134 C 18.700682 101.515326 15.399222 101.198797 12.200091 101.198797 L 11.349143 101.251093 L 10.850962 93.899383 L 24.549598 95.399451 L 28.50004 95.900391 L 35.148739 96.599506 L 38.899908 96.849976 M 7.899575 79.149171 L 7.799939 78.750071 L 7.899575 78.35097 L 7.851104 77.150915 L 7.851104 54.99945 L 7.549502 48.999177 L 7.398701 44.650356 L 7.649138 43.598932 L 7.649138 43.150287 C 9.383347 45.250383 10.716319 46.35135 11.650745 46.450437 L 11.699217 46.051337 L 11.850017 46.400894 L 11.850017 46.450437 M 34.84983 14.450818 L 34.900995 14.401274 L 35.148739 14.701288 L 34.798666 15.100388 L 34.798666 15.700416 C 34.798666 16.90047 35.383019 20.949278 36.549032 27.849592 L 38.601 39.299654 L 40.650275 51.250656 C 41.250785 54.883848 41.88361 58.032615 42.548749 60.699709 L 42.500277 60.851092 C 42.500277 62.549334 43.499332 65.783426 45.500136 70.550615 L 46.200282 74.348953 L 46.299918 74.750806 L 46.299918 74.80035 L 46.399555 75.350834 C 46.733471 75.416892 46.916586 76.033433 46.9489 77.200459 L 46.900429 77.500473 L 46.900429 77.550016 L 47.649047 80.299682 L 49.200141 84.298947 L 49.148976 84.298947 L 48.798903 84.249403 L 48.798903 85.650384 L 48.400358 93.299356 L 47.950648 96.549962 L 47.950648 96.599506 L 47.350138 96.549962 L 43.351224 96.401332 M 41.250785 96.899519 L 41.501222 96.949063 L 45.500136 97.001359 L 47.899484 96.949063 L 47.851012 97.350916 L 42.500277 98.498675 M 47.748683 97.79956 L 47.250502 100.84924 L 47.250502 101.050167 L 46.9489 102.949336 L 46.849264 104.498947 M 44.048678 104.950344 L 44.50108 104.950344 L 46.849264 104.851257 L 46.849264 105.098975 M 86.000918 92.748872 C 85.734324 91.884613 85.516201 89.86709 85.349243 86.699056 C 85.149971 83.899846 84.883376 81.882323 84.54946 80.64924 L 83.550405 74.80035 L 82.850259 69.100091 L 81.899675 69.950588 L 81.649238 69.700118 C 81.649238 69.301017 82.734465 68.282622 84.899534 66.650438 L 85.201135 66.449512 L 84.950698 64.098946 L 84.449824 61.649293 C 84.382502 59.150097 84.199387 57.517913 83.900478 56.749988 L 81.95084 51.999313 C 81.11605 49.932247 80.698655 48.283548 80.698655 47.050465 C 80.698655 46.882567 80.749819 46.766965 80.849455 46.700907 L 80.499382 41.851146 L 80.698655 38.399613 L 79.950036 30.899272 C 79.416848 26.233922 78.967138 23.184242 78.600908 21.750232 L 76.198867 13.900334 M 87.150774 65.700854 L 87.150774 65.450384 L 86.749536 65.799941 M 87.150774 65.700854 L 88.349102 76.201331 L 88.599539 86.949526 C 88.599539 87.717451 88.098665 89.049621 87.099609 90.94879 L 86.399463 92.201141 L 86.248662 92.448858 L 86.248662 92.099301 C 85.882432 87.332112 85.467729 83.332848 84.99917 80.098756 L 83.200332 68.800077 L 86.749536 65.799941 M 86.04939 92.801168 L 86.04939 92.748872 L 86.000918 92.748872 M 86.04939 92.801168 C 85.448879 93.632398 84.934541 94.10031 84.500989 94.199397 L 85.149971 94.199397 L 85.149971 94.49941 C 85.149971 95.300364 85.300771 96.599506 85.59968 98.399588 C 85.901282 100.16664 86.04939 102.299765 86.04939 104.798961 C 86.04939 107.666981 85.782795 110.268017 85.249607 112.599316 C 84.851062 114.267281 84.649097 116.882079 84.649097 120.449214 L 84.649097 123.19888 L 84.748733 124.451231 C 84.851062 125.183374 85.015327 125.651285 85.249607 125.849459 L 88.448738 133.3498 C 90.115625 137.117861 91.233167 140.032673 91.79867 142.099739 L 93.799473 151.199235 L 93.799473 151.350618 L 93.950274 151.950646 M 93.549036 151.950646 L 93.549036 152.000189 L 93.751001 152.949774 L 94.698892 157.001334 L 95.199766 157.350891 L 95.199766 157.601361 L 94.900857 157.650905 L 95.450203 159.25006 L 95.800276 162.698841 L 96.099185 165.049406 L 97.801079 176.350837 L 98.151153 180.699659 L 98.250789 182.051096 L 98.250789 182.10064 L 98.299261 182.549284 M 43.30006 11.599312 L 42.898822 14.299435 L 42.349476 17.850055 M 42.301005 18.199612 L 41.999403 20.250164 L 41.999403 32.748897 L 43.499332 30.648802 C 44.767675 28.91753 45.750573 27.73399 46.450719 27.100934 L 46.849264 26.748624 M 47.150866 26.349524 C 47.649047 25.650409 47.966806 24.86597 48.098756 23.998958 L 48.499994 20.899735 L 49.251305 14.750831 L 49.598685 12.84891 M 49.598685 12.799366 L 49.598685 11.599312 C 49.598685 10.567155 49.701015 9.733172 49.900287 9.100116 L 46.900429 8.800102 L 46.900429 8.849646 L 46.450719 8.899189 L 43.949042 8.849646 L 43.30006 11.299298 L 43.30006 11.599312 M 49.598685 12.799366 L 49.749486 12.799366 L 49.598685 12.84891 M 42.301005 18.199612 L 42.301005 17.899598 L 42.349476 17.899598 L 42.349476 17.850055 M 42.449113 57.498646 L 43.30006 61.85022 C 44.899625 66.383453 45.782887 69.100091 45.949845 70.000132 C 46.916586 75.532493 47.549411 78.733556 47.851012 79.600568 C 48.715424 82.132793 50.051088 85.350371 51.849926 89.250548 L 55.951169 98.749145 L 55.951169 99.698729 M 56.198913 111.448805 L 57.949279 114.099384 L 57.900807 114.501237 M 41.999403 33.648938 L 41.999403 44.198959 L 41.899767 51.600213 L 41.800131 51.649756 L 41.800131 53.799395 L 42.24984 56.350887 L 42.349476 56.749988 L 42.449113 57.498646 M 44.000206 81.700663 L 44.048678 81.598824 L 44.099843 81.40065 L 44.099843 81.249267 L 45.799044 74.348953 L 45.89868 74.348953 L 46.149117 74.750806 M 46.149117 75.400377 L 46.149117 74.750806 M 41.19962 95.749008 L 41.398893 92.501154 C 41.533536 90.26619 42.384484 87.233025 43.949042 83.398906 C 44.95079 80.932739 45.615929 78.816129 45.949845 77.049076 L 45.850209 76.999532 C 45.850209 76.099491 45.949845 75.565522 46.149117 75.400377 M 44.250643 117.449077 L 44.899625 117.449077 L 48.098756 117.550917 L 47.99912 116.901346 M 37.249178 118.299575 L 36.899105 118.500501 M 35.848885 118.698675 L 35.700777 118.698675 L 35.700777 118.800515 L 35.148739 118.800515 L 33.500702 118.850058 L 32.049244 119.050985 L 16.500606 119.199616 L 15.749295 119.350999 L 12.601328 120.551053 L 12.601328 120.449214 M 12.200091 120.198744 C 12.43437 122.26581 12.550164 124.550318 12.550164 127.049514 L 12.550164 127.099057 M 12.450528 127.748628 L 11.798853 128.150481 C 10.99907 128.717479 10.565518 129.166124 10.500889 129.499166 C 9.9677 130.066165 9.701106 130.633163 9.701106 131.200161 L 9.701106 131.299248 L 8.500086 139.999644 L 8.599722 139.999644 L 8.500086 141.598799 M 36.750997 127.699085 L 37.55078 127.550454 L 37.949325 127.451367 L 39.651219 127.200897 L 41.501222 127.200897 L 43.399696 127.299984 L 43.598968 127.349527 L 44.099843 127.200897 L 44.099843 127.299984 L 45.400499 127.25044 L 45.799044 127.200897 L 47.250502 126.950427 L 49.701015 127.049514 L 49.499049 125.700829 L 48.850067 121.850195 L 47.600575 121.850195 C 45.467821 121.451094 43.682448 120.933639 42.24984 120.300583 L 38.199762 119.400542 L 37.399979 119.298703 L 37.049906 119.400542 M 51.050143 143.850277 L 50.950507 141.051068 L 50.850871 135.248969 L 49.800651 127.599998 L 49.499049 127.599998 L 45.799044 127.699085 L 44.099843 127.50091 M 43.450861 135.901292 L 43.749769 130.55059 L 43.650133 127.50091 L 43.248895 127.451367 L 41.19962 127.451367 L 37.849689 127.999098 L 36.099322 128.348655 L 35.999686 128.150481 L 35.951214 128.200025 L 35.848885 128.348655 M 38.549835 131.450631 L 38.399034 131.249705 M 43.450861 135.901292 L 43.499332 136.550863 M 46.900429 140.500584 L 46.800792 140.398744 L 46.800792 140.599671 M 46.900429 140.500584 L 52.148834 145.900829 C 53.115575 147.067855 53.899201 148.149555 54.499711 149.148683 L 54.599347 151.950646 M 54.200802 151.950646 L 54.200802 152.000189 L 54.300439 154.001198 C 54.300439 157.400435 54.101166 159.916145 53.699928 161.551082 C 53.366012 162.784166 52.93246 165.299876 52.399271 169.100966 L 50.799706 179.499604 M 43.949042 136.749037 L 43.849406 136.850877 M 45.850209 148.700039 L 45.850209 148.600952 L 45.89868 148.000925 L 45.89868 143.800734 C 45.89868 142.333695 46.084489 141.084097 46.450719 140.049187 L 44.95079 138.598663 C 42.117889 135.832482 40.065922 133.60027 38.800272 131.899275 L 38.800272 131.849732 L 38.601 131.500175 L 38.549835 131.450631 M 45.850209 151.950646 L 46.800792 140.599671 M 60.749865 144.100748 L 60.650229 143.949365 L 60.450956 144.150291 C 59.51653 144.117262 58.665583 143.767705 57.900807 143.098867 C 58.46631 145.900829 58.749062 148.650496 58.749062 151.350618 L 58.749062 151.799263 L 58.800226 151.950646 M 58.398988 152.000189 C 58.600954 153.33236 58.665583 155.234281 58.600954 157.700448 L 59.400737 164.198909 C 60.065876 166.03202 60.984145 170.33405 62.150158 177.099495 L 63.001105 183.498869 L 63.049577 184.39891 L 63.049577 184.751219 M 12.6498 120.90061 L 13.051038 126.99997 L 13.051038 127.049514 L 14.149729 127.049514 L 17.801263 127.50091 L 32.350846 127.949555 L 36.250123 127.800924 M 36.600196 119.450086 L 36.400924 119.350999 C 36.333602 119.183101 36.099322 119.100529 35.700777 119.100529 L 35.148739 119.150072 L 34.599393 119.199616 M 10.799798 129.848724 L 11.098706 129.650549 L 11.650745 129.248696 L 13.899292 127.649541 L 17.400025 128.150481 L 20.249083 128.348655 M 23.300106 128.450495 L 23.80098 128.450495 L 32.450482 128.500038 L 35.848885 128.348655 M 31.699171 202.399728 L 31.20099 202.399728 M 58.398988 151.950646 L 58.398988 152.000189 M 45.448971 152.000189 L 45.448971 151.950646 M 40.300201 192.901131 L 41.250785 186.851315 L 41.398893 185.849434 L 41.748966 183.498869 L 41.950931 182.199727 C 44.083685 167.766043 45.150062 159.25006 45.150062 156.649024 L 45.098898 156.20038 L 45.448971 152.000189 M 78.80018 202.099714 L 84.700261 202.099714 M 96.150349 151.950646 L 96.150349 152.000189 M 90.799614 202.600654 L 84.748733 202.600654 L 82.150112 202.650198 M 24.199525 202.251097 L 31.20099 202.399728 " transform="matrix(1.450589,0,0,1.419206,1.595648,14.077246)"/>
</g>
</svg>
