<?xml version="1.0" encoding="UTF-8" standalone="no"?>
<!-- Created with Inkscape (http://www.inkscape.org/) -->

<svg
   width="36.829578mm"
   height="85.728508mm"
   viewBox="0 0 36.829578 85.728508"
   version="1.1"
   id="svg5"
   inkscape:version="1.1.2 (76b9e6a115, 2022-02-25)"
   sodipodi:docname="40.svg"
   xmlns:inkscape="http://www.inkscape.org/namespaces/inkscape"
   xmlns:sodipodi="http://sodipodi.sourceforge.net/DTD/sodipodi-0.dtd"
   xmlns="http://www.w3.org/2000/svg"
   xmlns:svg="http://www.w3.org/2000/svg">
  <sodipodi:namedview
     id="namedview7"
     pagecolor="#ffffff"
     bordercolor="#666666"
     borderopacity="1.0"
     inkscape:pageshadow="2"
     inkscape:pageopacity="0.0"
     inkscape:pagecheckerboard="0"
     inkscape:document-units="mm"
     showgrid="false"
     showguides="true"
     inkscape:guide-bbox="true"
     fit-margin-top="0"
     fit-margin-left="0"
     fit-margin-right="0"
     fit-margin-bottom="0"
     inkscape:zoom="1.0998546"
     inkscape:cx="-54.552665"
     inkscape:cy="-45.460554"
     inkscape:window-width="2011"
     inkscape:window-height="1133"
     inkscape:window-x="2378"
     inkscape:window-y="249"
     inkscape:window-maximized="0"
     inkscape:current-layer="layer1" />
  <defs
     id="defs2" />
  <g
     inkscape:label="Calque 1"
     inkscape:groupmode="layer"
     id="layer1"
     transform="translate(-72.377321,-206.02884)">
    <g
       id="g83728">
      <path
         style="fill:#bdbdbd;fill-opacity:1;stroke:#000000;stroke-width:0.376752px;stroke-linecap:butt;stroke-linejoin:miter;stroke-opacity:1"
         d="m 75.882525,214.47076 -0.118553,6.90887 -0.551064,2.4054 -0.877111,3.51376 c 0,0 -0.262711,2.76212 -0.435491,3.13908 -0.172795,0.37695 0.04828,3.11682 -0.266036,3.59062 -0.314326,0.47379 -0.553477,4.54141 -0.553477,4.54141 l 0.182782,4.60954 -0.380929,5.35556 -0.316465,2.00088 0.0834,2.55226 0.509177,3.17595 0.607086,3.15371 0.522951,2.08152 -0.03209,3.46031 -0.04004,3.64185 0.04698,0.20852 0.0058,0.74061 0.189821,0.96534 c 0.575216,0.50652 0.298569,0.63415 0.692925,0.76244 l 0.793088,0.19824 c -0.03021,0.20977 1.628201,0.007 0.66855,0.45961 l -1.414863,0.74737 -0.505057,1.62157 -3.91e-4,4.11678 0.723439,4.41802 c 0,0 0.08455,1.40428 0.580737,1.93819 l 0.233009,1.22309 0.271543,1.2057 0.27121,0.89474 0.465917,1.60632 0.596925,0.93258 1.457009,0.84211 1.318784,0.0858 1.528398,-0.11556 1.401634,-0.007 1.254049,-0.12048 1.201426,-0.0559 1.028815,-0.12619 0.22187,-0.28213 c 0,0 0.139512,-0.49868 0.225357,-1.00905 0.08586,-0.51039 0.405107,-1.91881 0.405107,-1.91881 l 0.275853,-1.8763 0.382733,-2.0553 0.63079,-1.84242 c 0,0 0.694315,-0.96431 0.694315,-2.2277 0,-1.26341 0.173849,-2.23084 0.173849,-2.83156 0,-0.60073 -0.427614,-3.21487 -0.427614,-3.21487 l 0.538208,-6.41162 c -0.03577,-0.35361 0.02028,-0.68448 -0.393417,-1.13166 l -0.549857,0.0937 0.04689,-0.57295 0.127964,-0.61812 0.146238,-0.71782 0.223114,-0.98869 0.582948,-0.95869 0.06165,-2.14328 -0.186713,-4.47631 0.03816,-2.7946 0.380596,-2.06354 c 0,0 0.07458,-1.83192 0.203754,-2.54822 0.129217,-0.71632 -0.06961,-2.6866 -0.06961,-2.6866 l -0.05752,-1.55167 0.121276,-0.85498 0.07358,-3.53735 0.155253,-1.79038 0.689568,5.86529 0.158659,0.60298 0.141502,1.50475 0.09453,1.94531 0.396582,1.79872 c 0,0 0.719261,2.58769 0.719261,3.19376 0,0.60607 0.259677,0.9012 0.17385,2.04031 -0.08585,1.13912 -0.08585,1.43017 -0.08585,2.71144 0,1.28125 0.260789,5.70157 0.260789,5.70157 l 0.514423,2.96362 c 0,0 0.911931,1.71132 0.911931,2.38696 0,0.67563 0.867918,2.89718 0.867918,2.89718 l 0.787397,3.37725 c 0,0 -0.08687,1.79419 -0.17385,2.78525 -0.08687,0.99108 0,2.73091 0,2.73091 0,0 0.663601,3.67288 0.627857,4.01672 -0.0357,0.34383 0.750843,1.55442 0.750843,1.55442 l 0.460178,1.30711 0.784189,0.92715 1.331426,0.16811 2.1732,0.18969 2.10127,0.0153 1.66033,-0.29686 1.93847,-0.57166 0.0529,-2.45361 0.28838,-4.47019 0.34142,-3.39912 -0.10619,-6.13454 -0.71112,-4.62283 -0.49446,-4.79196 c 0,0 -0.24771,-0.92374 -0.27532,-3.0527 -0.0207,-1.59695 0.0928,-5.13982 0.0928,-5.13982 l 0.28039,-6.62157 c 0,0 0.40925,-2.04061 0.58068,-4.21515 0.17165,-2.17454 0.16342,-3.54705 0.16342,-3.54705 l -0.3477,-3.16092 -1.25491,-2.31038 -0.44636,0.25074 -0.2431,0.12871 0.17278,-0.48564 v 0 l 0.24859,-0.47145 -0.12401,-1.28739 v -1.62506 l -0.26077,-1.18931 c 0,0 -0.0435,-0.86464 -0.0435,-1.06741 0,-0.20276 -0.44503,-1.62375 -0.44503,-1.85282 0,-0.22906 -0.39061,-2.27816 -0.47755,-2.63299 -0.0869,-0.35483 0.0439,-0.35413 -0.30422,-1.36339 -0.34824,-1.00926 -0.55797,-5.16663 -0.6449,-5.71501 -0.0869,-0.54838 -0.44894,-0.84799 -0.75208,-1.30934 -0.30314,-0.46134 -1.08124,-1.37614 -1.08124,-1.37614 l -1.6122,0.87623 -2.122301,0.81907 -1.182013,0.11265 -3.603956,-0.63344 -1.080779,-0.33742 -1.014523,-0.5242 -0.718669,-0.18321 -1.177272,0.82317 -1.804073,0.32133 -0.972926,-0.0487 -3.679895,0.17372 -3.229068,-0.0331 -2.110479,-0.2563 z"
         id="path2378"
         sodipodi:nodetypes="ccccssccccccccccccccccccccccccccccccccccsccccsscccccccccccccsccccccccccsssccsccccsccccccccccccccsccccccccccccccssssssccccccccccccccc" />
      <path
         style="fill:#8b8d8c;fill-opacity:1;stroke:#000000;stroke-width:0.376752px;stroke-linecap:butt;stroke-linejoin:miter;stroke-opacity:1"
         d="m 82.815117,221.13395 0.504219,1.38895 -0.01575,0.77428 c 0,0 0.28205,0.70762 0.239137,1.15034 -0.04293,0.44271 0.421341,1.62333 0.421341,1.62333 l 0.361228,2.0851 0.346312,1.35776 -7.52e-4,1.76387 0.644507,1.53698 c 0,0 0.212673,1.02551 0.17385,1.43474 -0.03888,0.40922 0.332451,1.49222 0.289538,1.80779 -0.04293,0.31556 0.295521,2.75358 0.295521,2.75358 l 0.4252,0.14941 1.025378,0.0509 c 0,0 0.157922,-0.58532 0.157922,-0.80279 0,-0.21746 0.130373,-0.49056 0,-0.91273 -0.130373,-0.42216 -0.571863,-1.80938 -0.571863,-1.80938 0,0 -0.173315,-1.46221 -0.303702,-1.81391 -0.130373,-0.35171 -0.92491,-2.87633 -0.92491,-2.87633 l -0.347511,-3.39966 c 0,0 -0.26157,-1.28148 -0.348495,-1.62392 -0.08687,-0.34241 -0.56556,-1.38155 -0.609023,-1.81617 -0.0435,-0.43462 -0.130373,-1.78292 -0.130373,-1.78292 l -0.940996,-1.15379 -0.810769,-0.35282 z"
         id="path2380" />
      <path
         style="fill:#8b8d8c;fill-opacity:1;stroke:#000000;stroke-width:0.376752px;stroke-linecap:butt;stroke-linejoin:miter;stroke-opacity:1"
         d="m 92.046581,220.30507 -0.131529,1.4447 c 0,0 -0.08687,1.36131 -0.08687,1.66129 0,0.29997 -0.08571,1.73724 -0.04278,2.13298 0.04293,0.39574 0.08643,1.30713 0.173301,2.06322 0.08687,0.7561 0.130372,0.62448 0.260774,1.55199 0.130373,0.92752 0.0782,1.47538 0.260775,1.4332 0.182536,-0.0422 0.399299,0 0.399299,0 l 0.315005,-0.0843 0.04351,-0.37918 0.0357,-0.32337 c 0,0 0.223022,-0.14028 0.222473,-0.6654 -3.76e-4,-0.52516 -0.130373,-1.16767 -0.130373,-1.16767 l -0.0011,-2.49193 c 0,0 0,-0.77876 0,-1.36722 0,-0.58846 -0.04351,-1.65736 -0.04351,-1.9378 0,-0.28045 0.217312,-0.39863 0,-1.07356 -0.217312,-0.67495 -0.434624,-0.88587 -0.434624,-0.88587 0,0 -0.390352,-0.89671 -0.59827,-0.54455 -0.207902,0.35214 -0.241623,0.63355 -0.241623,0.63355 z"
         id="path2382" />
      <path
         style="fill:#8b8d8c;fill-opacity:1;stroke:#000000;stroke-width:0.376752px;stroke-linecap:butt;stroke-linejoin:miter;stroke-opacity:1"
         d="m 100.34916,219.65764 -0.0869,1.57008 c 0,0 -0.385246,1.11253 -0.471636,1.38589 -0.08643,0.27335 -0.302604,1.562 -0.302604,1.562 l -0.317621,2.27606 -0.556426,1.0696 -0.460568,0.99547 -0.733326,1.37096 c 0,0 -0.10927,0.29944 -0.674339,1.10092 -0.565026,0.8015 -0.733152,0.86829 -0.948412,1.20383 -0.215274,0.33556 -0.412394,0.47526 -0.580506,0.87236 -0.168111,0.3971 -0.559273,1.24078 -0.559273,1.24078 l -0.434075,1.27104 0.916353,0.3352 0.698261,0.21746 c 0,0 0.455784,-0.28515 0.539153,-0.47226 0.0834,-0.18713 0.614921,-1.01556 0.635329,-1.2275 0.02038,-0.21192 0.281314,-1.31132 0.281314,-1.31132 0,0 0.409807,-0.29672 0.625081,-0.8873 0.215259,-0.59057 1.012731,-2.2177 1.012731,-2.2177 l 0.722933,-0.95485 0.905961,-1.8078 c 0,0 0.24709,-0.50366 0.29055,-1.09211 0.0435,-0.58846 0.3477,-1.60087 0.3477,-1.60087 0,0 0.0435,-1.04719 0.0435,-1.45054 0,-0.40334 0.521,-1.19116 0.47809,-1.80394 -0.0429,-0.61278 -0.17329,-1.53171 -0.17329,-1.53171 l -0.36427,-0.33299 -0.74385,-0.11883 z"
         id="path2384" />
      <path
         style="fill:#bcb8b2;fill-opacity:1;stroke:#000000;stroke-width:0.376752px;stroke-linecap:butt;stroke-linejoin:miter;stroke-opacity:1"
         d="m 75.658705,211.50991 0.272439,1.32345 -0.01301,1.58411 1.446776,0.62063 1.7596,0.22194 2.132491,0.0598 2.471201,0.0297 3.563499,-0.14662 2.776999,-0.27268 1.177272,-0.82317 -0.517141,-2.41417 -0.550803,-1.54566 -0.867124,-1.68986 -0.792138,0.003 -1.833934,-0.16873 -2.294143,1.10896 -1.79225,-0.21029 -1.618213,-0.31214 -1.223148,-0.41756 -1.139924,-0.32939 -1.093093,-0.16338 -0.570302,0.38122 0.08195,-0.60927 0.171277,-0.56261 0.186063,-0.76456 -0.797572,0.34604 -0.649075,0.66138 -0.26751,1.21924 -0.05117,1.51425 z"
         id="path898"
         sodipodi:nodetypes="cccccccccccccccccccccccccccccc" />
      <path
         style="fill:#bfbdbc;fill-opacity:1;stroke:#000000;stroke-width:0.376752px;stroke-linecap:butt;stroke-linejoin:miter;stroke-opacity:1"
         d="m 94.108915,208.3257 -0.541554,0.67313 -0.588657,0.97818 -0.434625,0.8411 -0.202482,1.13278 -0.278278,0.70215 -0.04249,0.88026 -0.05608,0.75695 1.014523,0.5242 1.080779,0.33741 1.033978,0.25245 1.154869,0.19004 1.415109,0.19096 c 0,0 0.616727,-0.0922 1.150446,-0.20973 0.533719,-0.11755 1.060529,-0.31133 1.271297,-0.38437 0.21078,-0.0731 0.88256,-0.33764 0.88256,-0.33764 l 0.91478,-0.4798 0.69742,-0.39642 0.11664,-1.35917 -0.0568,-1.42964 0.10696,-1.14576 -0.0496,-0.83927 -0.0642,-0.95478 -0.1855,-0.73545 -0.47647,-0.75754 -0.60555,-0.50318 -0.44765,0.22524 -0.23142,0.30301 0.0471,0.51755 0.14548,0.40584 -0.21303,0.67001 -0.843967,0.64555 -1.107894,0.19085 -1.731776,0.0404 -1.239207,-0.0454 z"
         id="path1142"
         sodipodi:nodetypes="cccccccccccccssccccccccccccccccccccc" />
      <path
         style="fill:#20211f;fill-opacity:1;stroke:#000000;stroke-width:0.376752px;stroke-linecap:butt;stroke-linejoin:miter;stroke-opacity:1"
         d="m 91.363743,213.15585 0.699576,0.0264 v 0 l 0.462,0.73014 0.02891,0.66205 c 0,0 0.425041,0.76922 0.425041,0.76922 v 0 l 1.080779,0.33741 1.033978,0.25247 v 0 l 1.128664,0.95049 0.702149,0.75953 0.377994,0.46446 0.294322,0.86346 0.447517,1.42901 c 0,0 0,0.6814 0.03079,0.80842 0.03079,0.1271 0.03079,1.14121 0.03079,1.14121 l 0.122568,1.17895 c 0,0 0.07906,0.51114 -0.0568,0.65138 -0.135866,0.14028 -1.714244,1.59486 -1.714244,1.59486 l -0.482249,-0.47698 -0.194099,-1.23373 -0.257783,-1.53476 -0.154193,-0.9852 -0.331439,-1.23091 -0.483969,-0.98292 -0.915573,-0.91395 -1.00176,-0.70427 -0.415935,-0.22441 -0.988868,1.24406 -0.217861,1.0207 -0.390786,0.80217 -0.270893,1.45229 -0.370102,1.58415 -0.15798,1.0678 -0.0043,1.24732 -2.176517,1.14542 -0.674369,-0.49789 -0.395151,-0.79564 -0.09438,-0.91533 -0.09352,-0.89438 c 0,0 0.0701,-0.61274 0.09771,-0.86405 0.02761,-0.25129 0.489519,-1.55872 0.489519,-1.55872 0,0 -0.0043,-0.44969 0.133842,-0.60911 0.138322,-0.15941 0.425836,-0.90576 0.599281,-1.25968 0.17346,-0.35391 0.749904,-1.46352 0.749904,-1.46352 l 0.941965,-1.01767 0.363498,-0.97429 0.878383,-1.06824 -0.09597,-0.90818 0.115341,-0.6588 c 0,0 -0.334417,-0.16723 -0.01301,-0.2876 0.322044,-0.12036 0.716776,-0.12303 0.716776,-0.12303 z"
         id="path2376" />
    </g>
  </g>
</svg>
