<?xml version="1.0" encoding="UTF-8" standalone="no"?>
<svg
   width="160px"
   height="333px"
   viewBox="0 0 160 333"
   version="1.1"
   id="svg15"
   sodipodi:docname="45.png"
   inkscape:version="1.1.1 (1:1.1+202109281944+c3084ef5ed)"
   xmlns:inkscape="http://www.inkscape.org/namespaces/inkscape"
   xmlns:sodipodi="http://sodipodi.sourceforge.net/DTD/sodipodi-0.dtd"
   xmlns="http://www.w3.org/2000/svg"
   xmlns:svg="http://www.w3.org/2000/svg">
  <defs
     id="defs19" />
  <sodipodi:namedview
     id="namedview17"
     pagecolor="#ffffff"
     bordercolor="#666666"
     borderopacity="1.0"
     inkscape:pageshadow="2"
     inkscape:pageopacity="0.0"
     inkscape:pagecheckerboard="0"
     showgrid="false"
     objecttolerance="1"
     guidetolerance="1"
     inkscape:zoom="1"
     inkscape:cx="248"
     inkscape:cy="93.5"
     inkscape:window-width="2477"
     inkscape:window-height="1266"
     inkscape:window-x="2268"
     inkscape:window-y="62"
     inkscape:window-maximized="0"
     inkscape:current-layer="svg15" />
  <path
     style="fill:#000000;fill-opacity:1;fill-rule:evenodd;stroke:none"
     d="m 29.519531,283.9375 -11.605469,-1.34766 -1.304687,0.21485 -5.800781,-3.05078 -1.453125,-1.13672 c -1.015625,-0.85157 -1.617188,-1.70313 -1.8125,-2.55469 L 6.816406,268.32812 C 6.09375,262.12891 5.730469,256.97266 5.730469,252.85937 l 0.363281,-8.58593 c 0.480469,-5.58203 1.230469,-8.44532 2.246094,-8.58594 l -1.230469,-2.48438 c -0.824219,-1.75 -1.523437,-3.99609 -2.105469,-6.74218 -0.433594,-2.03516 -1.257812,-4.44532 -2.464844,-7.23828 -0.917968,-2.12891 -1.378906,-4.21094 -1.378906,-6.24219 0,-3.87891 1.089844,-10.95313 3.265625,-21.21875 l 1.882813,-13.05469 c 0.726562,-4.40234 1.546875,-7.00391 2.46875,-7.80859 l -0.21875,-1.63282 0.144531,-0.42578 -1.304687,-2.625 -2.105469,-5.53515 C 4.085938,156.14062 3.410156,153.18359 3.265625,151.8125 1.089844,141.875 0,135.94141 0,134 l 0.289062,-0.99219 c 0.339844,-3.73828 1.160157,-8.58593 2.46875,-14.54687 L 5.949219,102.99219 8.484375,87.519531 c 0.242187,-1.417969 0.992187,-4.207031 2.25,-8.371093 1.207031,-3.878907 2.101563,-6.101563 2.683594,-6.671876 v -0.566406 c 0,-3.738281 0.554687,-8.421875 1.667969,-14.050781 1.210937,-6.054687 1.886718,-10.40625 2.03125,-13.054687 L 19.21875,31.25 C 19.800781,24.722656 20.5,20.605469 21.324219,18.902344 L 21.25,18.761719 v -0.921875 c 0,-1.042969 0.726562,-3.90625 2.175781,-8.589844 L 24.441406,4.214844 25.09375,1.871094 24.804688,1.375 c 0,-0.472656 0.4375,-0.710938 1.304687,-0.710938 l 7.253906,1.421876 4.28125,1.488281 c 4.300781,1.847656 6.839844,2.863281 7.613281,3.050781 12.332032,3.597656 19.730469,5.394531 22.195313,5.394531 13.730469,0 24.585937,-1.441406 32.566405,-4.328125 l 7.32422,-2.554687 c 0.0977,-0.285157 0.3125,-0.425781 0.65234,-0.425781 L 108.21484,4.78125 113,3.078125 l 0.50781,-0.636719 0.58203,0.707032 0.28907,0.570312 v 0.070312 l 0.21875,0.566407 0.65234,2.980469 0.14453,1.492187 v 0.351563 l 0.28906,3.050781 2.03125,9.867187 v 0.425782 c 0.48438,1.179687 1.08985,3.6875 1.8125,7.519531 l 3.1211,8.230469 2.97265,8.304687 c 1.20704,3.359375 1.95704,6.125 2.25,8.300781 l 1.66797,16.535156 c -0.0977,1.65625 0.65235,7.167969 2.2461,16.53125 l -0.0703,0.996094 c 0.53125,1.75 1.25391,5.769532 2.17578,12.062504 1.54688,10.73828 2.75391,17.8125 3.625,21.21875 1.78907,7.1875 3.02344,12.89062 3.69922,17.09765 l 2.75782,15.54297 c 0.57812,0.28125 1.01562,1.48828 1.30468,3.61719 0.53125,3.59765 1.32813,6.57812 2.39453,8.9414 1.20704,2.64844 2.58594,6.83594 4.13282,12.5625 3.09375,7.71094 4.64062,16.0586 4.64062,25.04688 0,1.46484 -0.45703,3.00391 -1.3789,4.61328 0.6289,0.70703 1.16015,3.38281 1.59765,8.01953 l 1.16016,13.55078 0.36328,10.92969 1.52344,10.85547 -0.36328,4.96875 c -0.38672,1.55859 -1.37891,3.26172 -2.97266,5.10937 0.33594,0.1875 0.45703,0.78125 0.35937,1.77344 l -1.66796,8.44531 -0.79688,2.05469 -2.46484,1.91797 -1.37891,1.34766 -1.37891,1.27734 c -0.91796,0.1875 -1.88281,0.61328 -2.89843,1.27734 l -0.58203,0.35547 h -0.14454 l -4.13281,0.85157 -11.24219,1.48828 -6.09374,0.42578 h -0.94141 l -6.89063,-0.63672 -21.542965,-2.12891 -1.304687,0.21094 -2.613282,-1.0625 -1.59375,-0.71094 h -0.289062 l -0.363282,-0.35547 -1.453124,-0.99218 -0.07031,-0.21094 0.144531,-0.42578 -0.289062,-0.28516 -0.507813,-0.5664 L 82.25,274.42969 c -0.242188,-0.1875 -0.4375,-0.61328 -0.582031,-1.27735 l -0.507813,1.70313 -2.101562,3.76172 -1.089844,1.70312 c -0.53125,0.14063 -1.136719,0.42578 -1.8125,0.85156 l -1.523438,-0.14062 -8.847656,1.70312 -1.523437,0.14063 -22.050781,1.13672 -0.07031,0.14062 H 40.90625 l 0.07422,-0.14062 H 36.265625 C 36.167969,283.82031 36,283.72656 35.757812,283.72656 l -1.015624,0.28516 -5.222657,-0.0742 M 25.53125,7.050781 25.457031,6.980469 25.386719,7.265625 25.53125,7.050781 m -1.089844,4.117188 -1.085937,4.683593 c 0.917969,0.04688 2.464843,0.542969 4.640625,1.488282 l 3.335937,0.425781 -0.07031,-0.425781 v -1.347656 l 0.359375,-4.398438 c -3.625,-0.992188 -5.824219,-1.988281 -6.597656,-2.980469 l -0.582032,2.554688 m 7.398438,-1.773438 -0.07031,0.210938 h 0.07031 V 9.394531 m 82.175784,0.210938 -4.42188,1.421875 0.79688,8.515625 h 0.14453 l 4.57031,-1.632813 -0.80078,-4.683594 -0.28906,-3.621093 m -7.90625,11.921875 c -0.28907,-0.140625 -0.4336,-0.355469 -0.4336,-0.636719 0,-0.570313 0.96485,-0.972656 2.90235,-1.207031 l -0.14844,-4.257813 -0.35938,-3.902343 -5.07812,1.558593 0.14453,5.183594 c 0,5.722656 0.0742,9.269531 0.21875,10.640625 l 2.82812,21.148438 v 0.285156 l 1.30469,8.441406 1.01563,9.011719 0.36328,-0.496094 c 2.94922,-3.878906 4.6914,-5.816406 5.22265,-5.816406 0.48438,0 0.72266,0.234375 0.72266,0.707031 l -0.14453,0.425781 c -0.48047,0.04687 -0.72266,0.285157 -0.72266,0.710938 l 0.14453,0.425781 -7.2539,9.222656 c 0.33984,0.996094 0.50781,3.453125 0.50781,7.382813 -0.14453,0.140625 -0.21875,0.328125 -0.21875,0.566406 0,0.285156 0.0742,0.496094 0.21875,0.636719 l -0.0742,3.40625 -0.28906,15.683596 c 0,2.17578 0.21875,4.44531 0.65234,6.8125 0.4375,2.36719 0.65235,4.80078 0.65235,7.30859 0,1.1836 -0.24219,1.84375 -0.72266,1.98828 v 3.54688 l -0.14453,5.53515 -0.29297,5.46485 c 0,10.12109 0.17188,17.26562 0.50781,21.42968 0.62891,7.9961 0.94532,15.08985 0.94532,21.28907 l -0.0742,0.35156 c 0.48437,2.69922 0.60547,9.65234 0.36328,20.86328 -0.0977,2.98047 0.1914,6.78906 0.87109,11.42578 0.72266,4.82422 1.08594,8.39453 1.08594,10.71485 l -0.21484,0.85156 0.21484,3.97265 0.58203,5.32422 c 0,1.08594 -0.96875,4.11328 -2.90234,9.08203 -0.53125,1.32422 -0.79688,4.32813 -0.79688,9.01172 l 0.14453,8.51563 c -0.0469,2.3164 0.1211,4.51562 0.50782,6.59765 h 0.0703 c 0.6289,0 0.87109,0.66407 0.72656,1.98829 l 0.0742,0.78125 c 0.82031,0.0469 1.37891,2.1289 1.66797,6.24218 l 0.21484,6.2461 0.0742,2.625 -0.36328,3.83203 11.89453,0.35547 h 2.39453 c -0.33984,-0.85157 -0.55469,-2.2461 -0.65234,-4.1875 l -0.0742,-0.92188 0.58203,-7.16797 c 0,-2.3164 0.0703,-4.0664 0.21875,-5.25 -0.58203,-0.66406 -0.99219,-2.76953 -1.23437,-6.3164 0,-2.64844 0.14453,-6.57422 0.43359,-11.77735 v -0.21484 l 0.36328,-0.35547 -0.14453,-0.42578 -0.21875,-0.14063 v -0.0703 l 0.0742,-6.03125 c 0,-1.23047 0.0703,-2.19922 0.21875,-2.91015 l -8.26953,8.72656 h -0.28907 c -0.6289,0 -0.94531,0.23828 -0.94531,0.71094 l 0.0742,0.0703 -0.58203,-0.56641 c 0,-0.51953 2.08203,-2.93359 6.23828,-7.23828 l 0.36328,-0.35547 -0.28906,-0.5664 c 0,-9.5586 0.38672,-17.10157 1.16016,-22.63672 l 0.57812,-13.91016 c 0.0508,-3.87891 0.24219,-6.45703 0.58203,-7.73437 -0.28906,-0.23438 -0.46094,-0.92188 -0.50781,-2.0586 v -2.19922 l 0.43359,-13.69531 c 0,-4.96484 -0.55468,-10.59766 -1.66797,-16.88672 l -1.44921,-8.73047 c -0.48438,-0.5664 -0.75,-2.00781 -0.79688,-4.32812 l 0.21484,-7.44922 -1.59375,-11.99219 -2.10546,-24.05468 v -2.12891 c 0.0508,-1.183595 0.24218,-1.871095 0.58203,-2.058595 l 0.43359,-10.714844 -0.14453,-18.308593 c -0.38672,-2.316407 -0.57813,-4.375 -0.57813,-6.171876 0,-1.089843 0.0703,-1.917968 0.21485,-2.484374 -0.77344,-1.941407 -1.98047,-7.832032 -3.625,-17.671876 -2.3711,-11.164062 -3.55469,-17.265624 -3.55469,-18.304687 v -0.07422 c 0.38672,-0.09375 0.58203,-0.351562 0.58203,-0.777344 -0.33984,-0.996093 -0.70312,-1.65625 -1.08984,-1.988281 l -0.65235,-0.285156 -1.88671,0.355469 m 4.5,2.695312 c 0.67578,2.652344 1.76171,8.304688 3.26171,16.960938 l 3.55469,18.59375 v 0.07031 c 0.53125,1.75 0.8711,6.90625 1.01563,15.46875 0.0469,16.839844 -0.36328,25.757817 -1.23438,26.750007 l 0.36328,5.39453 c 0.38672,7.85156 0.79688,13.1289 1.23438,15.82422 1.49609,9.93359 2.32031,17.8125 2.46484,23.6289 l 0.8711,4.61328 1.23046,9.15235 c 0.8711,4.63672 1.3086,9.58203 1.3086,14.83203 -0.0977,9.22656 -0.33985,14.92578 -0.72656,17.10156 0.53125,0.0937 0.72656,0.75781 0.57812,1.98828 l -1.01172,22.13672 c -0.33984,2.46094 -0.65625,6.15234 -0.94531,11.07031 l 0.0742,6.53125 -0.14453,2.76563 6.16406,-6.45703 4.57031,-4.32813 -0.4375,-0.57031 c 3.77344,-17.97656 5.65625,-27.81641 5.65625,-29.51953 l -4.56641,-46.1211 v -0.71093 l 0.0703,-0.28516 c -0.77344,-1.37109 -1.54688,-4.23437 -2.32032,-8.58594 l -2.25,-15.2539 c -0.91796,-5.34766 -1.2539,-9.51172 -1.01171,-12.49219 -0.8711,-5.91016 -1.3086,-10.02734 -1.3086,-12.34375 0,-0.804691 0.0742,-1.398441 0.21875,-1.777347 L 127,94.832031 126.78125,86.597656 124.24219,73.046875 c -0.96485,-5.347656 -1.44922,-9.863281 -1.44922,-13.554687 l -0.14453,-13.484376 c 0,-0.425781 0.26562,-0.636718 0.79687,-0.636718 l -2.03125,-6.101563 -3.26172,-8.375 -1.3789,-4.328125 0.43359,-0.640625 c 0,-0.328125 -0.1914,-0.542969 -0.57812,-0.636719 h -0.0742 l -0.28906,-2.839843 0.0703,-0.210938 -0.86719,-2.839843 -2.61328,0.921874 -2.39453,0.710938 v 2.414062 c -0.14453,0.09375 -0.21485,0.234376 -0.21485,0.425782 l 0.36329,0.351562 m 35.60937,191.238284 v -0.0703 l -0.0703,-1.0625 -0.21875,-0.57031 v -0.77734 l 0.79687,-13.26953 0.4375,-13.12891 c 0,-3.69141 -0.53515,-8.49219 -1.59765,-14.40625 l -1.66797,-9.15234 c 0,-0.47266 0.19531,-0.73438 0.58203,-0.78125 l -0.0742,-0.42578 c -0.77344,-2.08204 -1.25781,-3.76172 -1.44922,-5.03907 -0.58203,-0.7539 -1.13672,-2.91015 -1.66797,-6.45703 l -1.45312,-10.21875 -1.30469,-8.58594 L 136.13672,123 c -0.96485,-3.30859 -2.19922,-9.74219 -3.69922,-19.30078 -1.30469,-8.609376 -1.95703,-13.550782 -1.95703,-14.828126 l 0.0742,-0.425782 -1.23438,-7.097656 -1.23437,-8.515625 c 0.0508,-3.074219 -0.45703,-8.65625 -1.52344,-16.746093 l -2.68359,-9.152344 0.36328,11.917968 c 0,4.070313 0.48437,8.585938 1.45312,13.554688 l 2.53516,14.476562 c 0.29297,2.507813 0.4375,6.644532 0.4375,12.417969 l -0.21875,0.636719 0.50781,3.05469 c 0.58203,3.35547 0.87109,5.98437 0.87109,7.875 -0.0977,4.35156 0.19141,8.60937 0.8711,12.77344 l 2.10156,12.77343 1.08984,6.38672 c 0.0937,1.13281 0.69922,3.23828 1.8125,6.3125 l -0.28906,0.92578 c 0.86719,2.78906 1.57031,10.26563 2.10156,22.42188 0.24219,5.34375 0.72657,9.93359 1.44922,13.76562 0.62891,3.3125 0.94532,6.64844 0.94532,10.00391 0,1.84765 -0.89454,6.95703 -2.6836,15.32812 -1.40234,7.09766 -2.41797,11.71094 -3.04687,13.83985 l 2.53906,-2.48438 c 5.07812,-5.10937 7.76172,-7.66406 8.05078,-7.66406 h 0.21875 l -0.29297,0.28516 0.72656,0.70703 h 0.0703 c -0.38672,1.08984 -2.6836,3.40625 -6.88672,6.95703 0.1914,0.66015 0.28906,1.86719 0.28906,3.61719 l -0.94531,12.70312 v 0.21094 l -0.0703,0.21484 0.0703,0.35156 c 0.0508,6.2461 0.50781,12.39454 1.3789,18.45313 0.67969,4.82422 1.11329,10.07422 1.30469,15.75 -0.33594,0.19141 -0.50781,0.47656 -0.50781,0.85156 0,0.33203 0.19531,0.57031 0.58203,0.71094 v 4.04687 l -0.14453,1.77344 c 1.25781,-0.23828 2.15234,-0.52344 2.68359,-0.85156 l 2.82813,-1.06641 1.3789,-1.34765 c 0.82032,-0.66407 1.95704,-1.48828 3.40625,-2.48438 1.55079,-1.13281 2.53907,-2.60156 2.97657,-4.39844 l 1.16015,-6.17187 0.28907,-1.27734 -3.48047,4.04296 -3.41016,3.1211 -0.36328,0.28515 c -1.35156,1.03907 -2.32031,1.5625 -2.89844,1.5625 l -0.0742,-0.0742 0.21875,-0.21094 c 0.0469,-0.42578 -0.14453,-0.66406 -0.58203,-0.71094 l 2.75781,-2.26953 c 2.27344,-10.26563 3.40625,-16.76953 3.40625,-19.51563 -1.49609,-8.5625 -2.63281,-15.80078 -3.40625,-21.71093 l 0.28907,-1.13672 c 0,-0.42578 -0.16797,-0.66406 -0.50782,-0.71094 -0.6289,-4.77734 -0.96484,-8.60937 -1.01562,-11.49609 M 91.824219,19.117188 l 0.07031,13.976562 0.871094,11.285156 1.378906,9.933594 c 3.964844,-5.0625 6.042971,-7.59375 6.234381,-7.59375 0.48437,0 0.72656,0.261719 0.72656,0.78125 l -8.62891,11.351562 c 0.722657,0.996094 1.0625,4.730469 1.015626,11.214844 l -0.292969,6.386719 0.292969,5.53125 0.433593,4.542969 2.394531,-2.980469 5.875,-7.378906 5.22266,-6.953125 c -0.62891,-0.898438 -1.06641,-4.046875 -1.30859,-9.4375 l -1.23047,-9.722656 c -0.48438,-1.371094 -1.01563,-4.375 -1.59766,-9.011719 -0.72266,-4.542969 -1.13672,-7.832031 -1.23047,-9.863281 -0.29297,-5.773438 -0.46094,-11.664063 -0.50781,-17.671876 l -9.718753,2.769532 v 2.839844 M 90.44531,34.371094 C 90.300779,30.207031 90.22656,24.320312 90.22656,16.703125 l -9.285156,1.703125 -0.07031,0.566406 c 0.386718,1.609375 0.675781,3.832032 0.871094,6.671875 l 0.578124,13.269531 1.453126,26.609376 0.07031,1.914062 0.07422,-0.140625 8.992187,-11.425781 C 92.328125,54.40625 91.796875,50.929688 91.316406,45.441406 L 90.445312,34.371094 m -20.164062,21.855468 0.652344,5.75 -0.652344,8.585938 0.07422,4.113281 -0.07422,6.457031 12.257812,-12.203124 c -0.726562,-2.980469 -1.210937,-12.0625 -1.449218,-27.25 L 80.433594,27.488281 79.492188,19.46875 79.347656,18.335938 68.03125,17.199219 68.539062,37.210938 c 0,3.546874 0.21875,7.710937 0.652344,12.488281 l 0.363282,2.554687 h 0.363281 l 2.972656,-0.496094 c 0.386719,0 0.582031,0.1875 0.582031,0.566407 0,0.191406 -0.265625,0.332031 -0.796875,0.425781 h -0.21875 l -1.8125,0.140625 L 69.992188,52.75 c -0.484376,0 -0.726563,0.167969 -0.726563,0.496094 l 0.433594,0.355468 -0.07031,0.214844 0.21875,0.351563 h -0.07422 l 0.07422,0.144531 0.07031,0.07031 0.144531,0.78125 -0.07031,0.28125 0.289062,0.78125 M 60.632814,52.679686 67.96094,52.324217 67.74219,50.765623 C 67.308596,46.269529 67.089846,42.578123 67.089846,39.69531 L 66.800781,17.554688 v -0.496094 l -2.105469,-0.285156 c -0.191406,0.378906 -0.554687,0.566406 -1.085937,0.566406 -0.53125,0 -0.894531,-0.1875 -1.089844,-0.566406 l -0.07031,-0.210938 -7.90625,-0.996094 -0.4375,3.761719 c -0.09375,0.898437 -0.121094,2.058594 -0.07031,3.476563 l 0.07031,4.824218 c 0,5.015625 0.292969,13.058594 0.871093,24.128906 l 0.07422,1.632813 5.367188,-0.710937 h 0.214843 m 0.871094,-20.4375 c 0.195313,-0.28125 0.53125,-0.425782 1.015625,-0.425782 0.773438,0 1.136719,0.378906 1.089844,1.136719 0,0.710937 -0.265625,1.109375 -0.800781,1.207031 h -0.289063 c -0.53125,0 -0.894531,-0.191406 -1.085937,-0.570312 l -0.144532,-0.566406 c 0,-0.332032 0.07031,-0.589844 0.214844,-0.78125 m 2.03125,5.253906 0.07422,0.566406 c 0,0.757812 -0.363281,1.132812 -1.089844,1.132812 L 61.722656,38.984375 61.433594,38.628906 61.289062,38.0625 61.433594,37.496094 c 0.191406,-0.378906 0.554687,-0.570313 1.085937,-0.570313 0.53125,0 0.871094,0.191407 1.015625,0.570313 m 0.796875,-15.328125 c 0,0.707031 -0.386719,1.0625 -1.160156,1.0625 -0.53125,0 -0.867187,-0.1875 -1.015625,-0.566407 l -0.07031,-0.566406 c 0,-0.757812 0.363281,-1.136718 1.085937,-1.136718 0.824219,0 1.210937,0.402343 1.160156,1.207031 m -0.507812,5.535156 c 0,0.753906 -0.410157,1.132813 -1.230469,1.132813 l -1.160156,-1.132813 c 0,-0.804687 0.386718,-1.207031 1.160156,-1.207031 0.722656,0 1.136719,0.402344 1.230469,1.207031 m -0.214844,16.105469 c 0,0.804687 -0.363281,1.207031 -1.089844,1.207031 -0.53125,0 -0.894531,-0.1875 -1.085937,-0.566406 l -0.144532,-0.570313 c 0,-0.800781 0.410157,-1.203125 1.230469,-1.203125 0.773438,0 1.136719,0.375 1.089844,1.132813 m 4.859375,12.136718 0.07031,-0.214843 -0.144531,-0.425781 -0.363281,-2.128907 -6.890625,0.566407 h -0.144531 l -5.945313,0.851562 -0.21875,2.484375 0.507813,7.734375 -0.433594,0.425781 c 0,0.425781 0.167969,0.710938 0.507812,0.851563 v 3.691406 c 0,1.65625 0.410157,4.257812 1.230469,7.804688 L 56.789062,85.25 C 56.9375,89.460938 56.839844,92.277344 56.5,93.695312 l 6.816406,-5.820312 5.515625,-5.320312 0.07031,-6.03125 0.144531,-4.402344 -0.289063,-0.636719 V 70.632812 C 69.242188,68.21875 69.484375,65.3125 69.484375,61.90625 L 68.46875,55.945312 m -7.6875,-6.53125 c 0,-0.804687 0.433594,-1.203124 1.304688,-1.203124 0.628906,0 0.992187,0.398437 1.085937,1.203124 0,0.757813 -0.363281,1.136719 -1.085937,1.136719 -0.53125,0 -0.894532,-0.1875 -1.089844,-0.566406 L 60.78125,49.414062 m 20.597656,23.0625 -11.171875,11.140626 -0.796875,8.660156 -1.523437,10.640626 -0.796875,4.82812 0.796875,-0.14453 7.035156,-1.13281 4.496094,-0.92187 c 1.453125,-4.40235 2.175781,-7.214849 2.175781,-8.445318 l -0.289062,-22.992187 0.07422,-1.632813 m 1.085938,-1.207031 c 0.582031,1.753907 0.773437,7.5 0.582031,17.246094 v 9.152344 c 0,1.417969 -0.339844,3.218751 -1.015625,5.394531 l -0.796875,2.12891 7.105469,-0.9961 c 1.015625,0 1.621094,0.16797 1.8125,0.5 v -0.99609 l -0.289063,-9.082032 v -2.058594 c 0,-0.613282 0.07422,-1.085938 0.21875,-1.417969 L 89.863281,90.925781 92.765625,87.875 c -0.289063,-0.945312 -0.53125,-2.695312 -0.726563,-5.25 L 91.75,76.378906 l 0.289062,-6.242187 -0.652343,-9.863281 -6.238281,7.875 -2.683594,3.121093 m 23.355466,12.988281 -0.14453,-9.933593 -2.25,2.695312 -7.976561,9.792969 c -1.933594,2.460938 -3.335938,3.972656 -4.207031,4.539062 l 0.144531,1.777344 -0.07031,4.042969 0.144532,3.335935 -0.4375,0.56641 c 0,0.37891 0.171874,0.61719 0.507812,0.71094 l 0.07422,2.05859 c 0.144531,2.03125 0.02344,3.35547 -0.363281,3.97266 l 0.21875,2.41015 v 3.40625 l -0.945313,11.56641 c -0.144531,1.46875 -0.214844,5.23047 -0.214844,11.28515 0,7.42579 0.121094,13.8125 0.359375,19.16016 0.195313,4.01953 0.507813,7.63672 0.945313,10.85547 0.386719,2.64844 0.578125,5.32031 0.578125,8.01953 0,0.51953 -0.214844,0.78125 -0.652344,0.78125 l 0.21875,8.08594 c 0.04687,8.13672 0.265625,13.60156 0.652344,16.39453 l 2.539062,11.84766 2.03125,10.85937 -0.289062,0.49609 0.359375,0.28516 0.148437,2.90625 v 1.63281 l -1.597656,7.59375 c -0.144531,0.0937 -0.21875,0.26172 -0.21875,0.4961 l 0.07422,0.0703 -1.378907,5.60547 -0.289062,0.35547 0.21875,0.21484 -0.363281,2.625 c 0,1.08594 0.242187,3.07422 0.722656,5.96094 l 1.089844,5.89062 -0.07422,0.42578 2.25,0.99219 9.499996,4.39844 c -0.67578,-2.36328 -0.96484,-7.96875 -0.87109,-16.81641 0,-4.82422 0.21875,-7.82812 0.65625,-9.01172 2.02734,-4.68359 3.04297,-7.66406 3.04297,-8.9414 -0.53125,-5.0625 -0.79688,-8.13672 -0.79688,-9.22656 v -0.85157 l 0.0742,-0.28125 c -0.19531,-0.71093 -0.31641,-1.75 -0.36328,-3.125 l -0.4375,-6.88281 c -0.77344,-3.5 -1.10938,-7.21484 -1.01172,-11.14062 L 107.26953,174.375 c -0.57812,-0.99219 -0.89453,-3.61719 -0.9414,-7.875 l -0.14454,-13.33984 c -0.33984,-4.30469 -0.50781,-11.58985 -0.50781,-21.85547 L 106.10938,123 c 0,-5.29687 0.24218,-8.01562 0.72656,-8.16016 v -0.14062 c 0,-2.55469 -0.21875,-4.84766 -0.65235,-6.88281 -0.4375,-2.08203 -0.65234,-4.47266 -0.65234,-7.16797 l 0.28906,-13.410159 V 84.257812 M 50.046875,15 l -3.699219,-0.566406 -0.07422,1.488281 c 0,5.441406 -0.339844,13.859375 -1.015626,25.261719 0,4.589844 -0.652343,9.816406 -1.957031,15.683594 -0.773437,2.980468 -1.453125,8.042968 -2.03125,15.183593 l 1.015625,15.042969 0.796875,16.82031 2.394531,-1.77343 h 0.07031 c 0.4375,0 0.679687,-0.19141 0.726563,-0.57032 L 55.339844,94.617188 54.832031,94.121094 55.339844,85.25 c 0,-3.214844 -0.460938,-8.019531 -1.378906,-14.40625 l 0.07422,-4.183594 0.363282,-0.710937 -0.363282,-0.566407 -0.07422,-1.773437 C 53.1875,61.527344 52.800781,59.136719 52.800781,56.441406 v -1.207031 l 0.144531,-0.496094 -2.753906,0.07031 c -3.09375,0 -4.644531,-0.378906 -4.644531,-1.136719 0,-0.378906 0.195313,-0.566406 0.582031,-0.566406 l 4.0625,0.496093 3.335938,-0.07031 L 53.238281,42.67578 C 52.851562,36.855469 52.65625,31.816406 52.65625,27.558594 l 0.07422,-5.109375 c 0.335937,-0.09375 0.507812,-0.351563 0.507812,-0.777344 L 52.73047,20.820312 52.80078,18.617188 52.945311,15.355469 50.046875,15 M 44.679688,14.21875 33.074219,11.949219 c -0.144531,1.9375 -0.21875,3.925781 -0.21875,5.960937 l 0.582031,0.07031 h 0.289062 c 0.917969,0.140625 1.378907,0.425781 1.378907,0.851562 0,0.425781 -0.242188,0.660157 -0.726563,0.710938 l -0.07422,1.558593 c 0,1.894532 -0.191407,4.046876 -0.578126,6.457032 l -1.015624,6.386718 -1.304688,7.59375 -0.726562,3.832032 0.07422,0.636718 -0.582031,18.027344 -0.578125,9.011719 0.07031,5.605469 c 0,2.03125 -0.21875,3.144531 -0.652343,3.332031 v 28.242188 c 0.195312,0.23828 0.289062,1.11328 0.289062,2.62891 l 0.07422,1.13281 2.394531,-1.77344 10.078125,-7.30859 C 41.269531,102.49219 40.929688,96.863281 40.835938,88.019531 L 39.820312,69.78125 c 0,-0.613281 0.191407,-0.96875 0.578126,-1.066406 V 67.4375 c 0,-1.273438 0.703124,-6.289062 2.105468,-15.042969 0.964844,-6.574219 1.351563,-11.566406 1.160156,-14.972656 0.53125,-3.359375 0.722657,-5.839844 0.578126,-7.449219 l 0.582031,-7.523437 -0.144531,-8.230469 m -12.765626,5.25 -5.804687,-1.0625 -3.117187,-1.136719 -0.21875,0.851563 0.21875,0.570312 -0.21875,1.488282 v 0.214843 c -0.191407,1.277344 -0.386719,2.007813 -0.578126,2.199219 l -0.871093,3.050781 -0.652344,6.953125 -1.304687,6.8125 -0.21875,1.417969 c 0.289062,0.378906 0.433593,1.5625 0.433593,3.550781 l -0.289062,3.757813 V 75.101562 C 18.375,80.589844 17.964844,87.945312 18.058594,97.171875 17.09375,109.14063 16.003906,116.26172 14.796875,118.53125 l -0.07422,0.63672 -0.796875,6.24609 10.445313,-7.80468 -0.07422,-0.21485 c 0,-0.51953 0.242187,-0.78125 0.726563,-0.78125 l 0.363281,0.21485 2.898437,-2.0586 C 27.609375,112.97266 27.367188,106.42188 27.5625,95.113281 v -7.945312 c 0.09375,-4.355469 0.289062,-6.910157 0.578125,-7.664063 v -2.980468 l 0.582031,-15.753907 c 0,-7.425781 0.214844,-12.207031 0.652344,-14.335937 l -0.21875,-0.566406 2.320312,-14.121094 1.160157,-7.023438 0.07422,-4.046875 0.07422,-0.566406 v -0.566406 l -0.800781,-0.07422 h -0.07031 M 13.492188,250.58984 13.851562,249.94922 13.636719,249.38281 14,246.47266 l 0.652344,-3.47657 c 0.335937,-0.0937 0.507812,-0.35547 0.507812,-0.78125 l -0.21875,-0.35547 c 0.339844,-1.18359 0.699219,-1.77343 1.085938,-1.77343 l 0.800781,0.5664 c 1.015625,-4.16015 1.546875,-7.04687 1.59375,-8.65625 0,-5.15625 0.09766,-8.23047 0.289063,-9.22265 v -3.125 c 0.582031,-0.0469 0.871093,-0.28125 0.871093,-0.70703 l -0.871093,-0.71094 -0.144532,-12.13281 0.292969,-0.64063 -0.292969,-0.85156 v -3.26563 l 0.292969,-2.41015 -0.4375,-3.55078 -0.21875,-7.51954 C 17.09375,182.37109 16.464844,178.32812 16.320312,175.72656 14.09375,161.25 12.984375,153.13672 12.984375,151.38672 c 0,-0.42578 0.07031,-0.75781 0.214844,-0.9961 l -0.578125,-2.76562 -0.796875,-6.24609 c -1.015625,-3.97266 -1.523438,-7.35547 -1.523438,-10.14454 v -1.42187 l 0.07031,-0.42578 -0.363282,-0.35547 c 0,-0.28125 0.921876,-1.15625 2.757813,-2.625 l -0.07422,-0.35547 v -1.27734 l 0.292969,-3.47656 0.359375,-2.19922 -0.214844,-0.70703 c 2.367188,-9.22657 3.527344,-16.51172 3.480469,-21.85938 -0.09766,-9.128906 0.3125,-16.390625 1.234375,-21.78125 V 50.765625 l -1.816406,9.4375 -0.796875,8.371094 c -0.242188,3.074219 -0.53125,4.824219 -0.871094,5.25 l -2.898437,6.8125 c -0.726563,2.367187 -1.257813,4.898437 -1.597657,7.59375 L 9.5,90.785156 9.429688,91.28125 l -0.652344,9.36719 -0.582032,7.23828 c 0,3.3125 -0.484374,8.49219 -1.449218,15.53906 0.097656,4.02344 -0.144532,7.12109 -0.726563,9.29688 -0.578125,2.26953 -0.871093,4.39843 -0.871093,6.38671 l 1.742187,19.65625 v 1.63282 l 3.117187,8.30078 -0.214843,0.78125 2.390625,6.24609 0.292968,0.63672 v 0.0703 l 0.867188,2.27344 0.871094,5.10547 c 0,0.57031 0.507812,2.25 1.523437,5.03906 l -0.433593,0.71094 -0.726563,-0.56641 c -0.191406,0 -0.339844,0.0469 -0.433594,0.14063 -0.628906,-0.71094 -1.066406,-2.2461 -1.308593,-4.61328 L 11.96875,179.41406 11.75,178.84766 9.644531,184.52344 8.777344,192.68359 7.253906,208.72266 7.46875,210 l -0.289062,0.56641 0.652343,1.0625 0.871094,3.48046 c 0.96875,4.25782 1.449219,8.41797 1.449219,12.48829 0.09766,3.5 0,5.72265 -0.289063,6.66796 1.210938,1.94141 1.886719,3.38282 2.03125,4.32813 l -0.363281,-0.0703 c -0.53125,0 -0.796875,0.23828 -0.796875,0.71093 l 0.582031,0.71094 h -0.148437 c -0.386719,0 -1.0625,-0.92578 -2.027344,-2.76953 l -0.945313,5.10938 -0.144531,0.85156 c -0.386719,0.0469 -0.582031,0.33203 -0.582031,0.85156 l 0.363281,0.49609 c -0.433593,2.83985 -0.652343,5.62891 -0.652343,8.375 0,4.82422 0.386718,9.88672 1.160156,15.1836 l 0.652344,7.59375 c 0.195312,0.80469 1.210937,1.79687 3.046874,2.98047 l 2.105469,1.27734 0.07031,0.0703 -0.07031,-1.34765 -0.292969,-11.4961 -0.578124,-14.26172 0.21875,-2.26953 m 39.453124,-134.40234 0.507813,-0.28125 -0.507813,-0.64062 v -4.89454 l 0.144532,-1.70312 -0.144532,-1.70313 c 0,-0.66406 0.242188,-0.99218 0.726563,-0.99218 l 0.144531,-3.05469 c -0.339844,-2.03125 -0.507812,-3.640626 -0.507812,-4.82422 l -10.152344,7.73438 -0.652344,0.42578 -2.832031,2.1289 c 0.292969,0.61719 0.4375,1.75 0.4375,3.40625 l -0.144531,6.38672 0.07031,2.0586 -0.07031,0.14062 0.144531,0.42578 0.871094,7.73438 0.433593,10.43359 c 1.0625,4.53906 1.597657,7.96875 1.597657,10.28906 l -0.07422,0.56641 1.085938,5.96094 0.07422,0.35546 v 1.41797 c 0.04687,0.33203 0.167969,0.56641 0.363282,0.71094 l 1.59375,10.28906 c 0.921874,6.52735 1.378906,13.19922 1.378906,20.01172 L 47,192.61328 l 0.144531,0.14063 v 29.23828 l 0.144531,7.16406 -0.144531,4.96875 c -0.242187,0.0937 -0.363281,0.30859 -0.363281,0.64062 l 0.289062,0.56641 -0.363281,3.97266 -0.722656,6.88281 -0.21875,1.63281 h 11.605469 c -0.242188,-0.89844 -0.363282,-2.55469 -0.363282,-4.96875 0.339844,-0.14062 0.507813,-0.375 0.507813,-0.70703 L 56.9375,241.78906 v -19.23047 l 0.214844,-6.10156 c -0.191406,-0.19141 -0.3125,-0.57031 -0.363282,-1.13672 v -1.27734 c 0.582032,-4.91797 0.871094,-10.40625 0.871094,-16.46094 0,-2.32031 -0.289062,-4.70703 -0.871094,-7.16797 l -1.738281,-6.95312 0.07031,-0.21485 -0.07031,-0.21093 v -0.9961 L 56.5,166.00391 c -1.113281,-4.875 -1.789062,-8.28125 -2.03125,-10.21875 -0.433594,-0.0937 -0.652344,-0.33204 -0.652344,-0.71094 l 0.289063,-11.99219 C 53.382812,131.58594 52.996094,122.62109 52.945312,116.1875 m 11.75,-6.38672 0.07422,-0.5664 c 0.04687,-0.37891 -0.09766,-0.58985 -0.4375,-0.63672 l 1.160157,-0.42578 2.976562,-19.230474 0.289062,-3.976562 -4.132812,3.761718 -10.15625,8.445313 c 0.339844,0.757813 0.605469,2.4375 0.796875,5.039065 l 0.148437,5.60547 c 0,0.47265 -0.21875,0.71093 -0.65625,0.71093 h -0.144531 v 0.14063 l 0.07422,0.56641 0.289062,3.33593 c 0,0.42578 -0.167968,0.66407 -0.507812,0.71094 l -0.07031,1.13281 -0.582032,0.35547 c 0,0.37891 0.195313,0.61719 0.582032,0.71094 l 0.578124,10.85547 c 0.386719,5.25 0.582032,10.92968 0.582032,17.03125 l -0.144532,10.35937 1.375,5.82031 1.160157,6.38672 -0.722657,9.15235 -0.945312,7.80468 0.800781,1.77344 v 0.14453 l 0.144531,0.35547 1.015626,4.89453 0.871093,7.52344 c -0.292969,9.12891 -0.65625,14.94922 -1.089843,17.45313 l 0.363281,7.45312 v 20.29297 c -0.339844,0.0469 -0.507813,0.26172 -0.507813,0.64062 l 0.507813,0.63672 -0.289063,3.76172 h 5.65625 l 0.507813,0.0703 0.578125,-0.0703 h 3.554687 c 0.09766,-0.14062 0.21875,-0.21094 0.363281,-0.21094 0.53125,0 0.820313,0.23438 0.871094,0.70704 l -0.363281,-0.0703 c -0.484375,0 -1.039063,0.35547 -1.667969,1.06641 H 55.558594 l 0.289062,4.75391 v 5.60546 l -0.07422,0.21094 0.07422,0.35547 -0.144531,11.42578 -0.652344,6.95313 -0.726562,3.6914 11.167969,-0.92578 2.105468,-0.28125 v -0.0703 l 0.289063,-2.41406 1.453125,-15.32813 0.796875,-14.33203 0.289062,-2.98047 c -0.144531,-1.79687 -0.21875,-4.42578 -0.21875,-7.8789 L 69.917969,227.10156 70.207031,211.98437 70.5,199.92187 c -0.242188,-0.1875 -0.386719,-0.58984 -0.4375,-1.20703 v -1.41797 l 0.292969,-6.24609 c 0,-2.50391 -0.4375,-4.98828 -1.308594,-7.44922 l 0.144531,-0.35547 c 0,-0.3789 -0.167968,-0.58984 -0.507812,-0.63672 l -0.652344,-1.5625 -1.882812,-3.54687 -2.613282,1.77344 -4.929687,5.03906 -0.65625,-0.21484 -0.433594,0.0703 -0.289063,-0.28125 c 0,-0.42578 1.691407,-2.25 5.078126,-5.46485 1.253906,-1.23046 2.390624,-2.22265 3.40625,-2.98046 l -0.07031,-0.4961 v -1.77344 c 0,-1.9414 0.167969,-3.59765 0.507813,-4.96875 0.335937,-1.37109 0.507812,-3.5 0.507812,-6.38671 l -1.453125,-15.04297 v -0.0703 c -0.191406,-0.75781 -0.3125,-2.03515 -0.363281,-3.83203 l -0.07031,-7.23828 c -0.675781,-5.82031 -1.015625,-9.76953 -1.015625,-11.85156 0,-3.5 0.144532,-6.07812 0.433594,-7.73437 0.484375,-2.9336 1.039062,-5.01563 1.667969,-6.2461 h -1.160163 m -59.980468,40.9453 v -0.14062 C 3.988281,145.54297 3.625,141.71094 3.625,139.10937 c 0,-1.65625 0.460938,-4.42187 1.378906,-8.30078 l 0.289063,-8.23437 c 0,-1.70313 0.242187,-4.73047 0.726562,-9.08203 l 0.726563,-5.25 0.070312,-1.5625 -2.609375,11.99219 C 2.851562,124.96484 2.007812,130.07422 1.667969,134 H 1.304688 c 0.726562,2.31641 1.839843,7.90234 3.335937,16.74609 l 0.144531,0.64063 -0.070312,-0.64063 m 21.324218,-25.12109 -1.378906,-6.52734 -0.726562,0.49609 -12.039063,9.29687 -0.578125,0.42579 c 0,0.47265 0.167969,0.75781 0.507813,0.85156 l 1.085937,9.4375 c 1.207032,5.53515 1.8125,9.25 1.8125,11.14062 l -0.214844,0.64063 c 0.867188,2.93359 1.980469,10.61719 3.335938,23.0625 l 1.738281,12.76953 c 0.582031,3.97656 0.871094,7.85547 0.871094,11.64062 l -0.363281,1.13282 0.144531,2.05859 -0.144531,5.60547 v 0.21484 c -0.242188,0.0937 -0.363282,0.32813 -0.363282,0.70703 l 0.363282,1.34766 0.07422,6.88672 0.07031,2.76562 -0.07031,0.14063 0.07031,0.0742 c 0,12.4414 -0.652344,19.70312 -1.957031,21.78125 l 8.484375,3.33594 h 0.07422 l 0.652343,0.28515 2.757813,0.78125 C 31.40625,233.72266 31.984375,221.73047 31.984375,210 l -0.289063,-15.32813 v -3.97265 l 0.144532,-2.20313 v -0.92187 c 0.582031,-4.96485 0.871094,-10.78516 0.871094,-17.45703 l -0.652344,-9.50782 c -0.4375,-4.16015 -0.824219,-6.6914 -1.160156,-7.59375 l -3.628907,-17.09765 v -0.5 l 0.148438,-0.28125 -0.07422,-0.57031 -0.941406,-7.23828 -0.07422,-0.42579 0.289063,-0.63671 c 0.05078,-0.37891 -0.144532,-0.58985 -0.578126,-0.64063 m 18.71094,43.99609 -0.144531,-0.85156 -0.652344,-4.32812 c -1.210937,-7.47266 -1.886719,-12.25 -2.03125,-14.33204 -0.339844,-0.42578 -0.582031,-1.42187 -0.726563,-2.98046 l -1.085937,-7.23829 c -0.242187,-0.94531 -0.4375,-4.44921 -0.582031,-10.5039 l -0.652344,-7.875 v -0.35547 l -0.722656,-11.63672 -12.113282,8.58594 1.59375,6.95312 c -0.242187,0.14063 -0.363281,0.3086 -0.363281,0.4961 l 0.507813,0.35547 1.234375,8.9414 -0.07422,1.5625 c 0.871094,2.36328 2.007812,7.75781 3.410156,16.17578 1.210938,7.28907 1.8125,13.12891 1.8125,17.52735 L 33.582031,180.19531 33,187.71875 l 0.21875,3.47656 -0.07422,7.16406 L 33.4375,210 C 33,229.91406 32.398438,242 31.621094,246.25781 l 8.632812,1.5625 h 3.988282 v -0.71094 c 0,-2.55468 0.339843,-5.6289 1.015624,-9.22265 l 0.582032,-5.17969 0.433594,-0.78125 -0.363282,-1.20703 -0.07031,-3.47656 -0.144532,-19.72657 v -7.66406 l 0.214844,-5.82031 -0.507812,-0.70703 v -0.71094 c 0.386718,-1.32422 0.582031,-2.64844 0.582031,-3.97266 0,-6.00781 -0.410156,-12.34765 -1.234375,-19.01953 m 50.917969,55.91797 0.433593,-1.20703 c 0,-0.51953 -0.242187,-0.78125 -0.726562,-0.78125 v -0.0703 l -0.652344,-6.66797 -2.609375,-10.71484 c -1.210937,-5.58594 -1.8125,-12.67969 -1.8125,-21.28907 v -5.75 c 0.04687,-2.60156 0.167969,-4.30468 0.359375,-5.10937 l -0.214844,-2.41016 -0.292968,-5.96094 c -0.578125,-4.02343 -0.894532,-7.23828 -0.941406,-9.65234 -0.242188,-4.87109 -0.363282,-11.30469 -0.363282,-19.30078 0,-8.37109 0.21875,-13.33984 0.652344,-14.90234 0.242188,-1.27735 0.386719,-3.94922 0.4375,-8.01563 L 90.152344,112.99609 89.9375,112.5 l 0.289062,-4.47266 -0.363281,-0.77734 0.21875,-2.12891 c -0.289062,0.47266 -1.476562,0.82422 -3.554687,1.0625 L 82.03125,106.75 c -0.09766,1.94141 -0.554688,5.10938 -1.378906,9.51172 l -0.07031,0.0703 -1.015625,7.875 -0.07422,0.56641 -0.289063,4.61328 c 0,4.25781 0.335937,8.30469 1.015625,12.13672 0.675781,3.83203 1.015625,8.53906 1.015625,14.12109 l -0.292969,11.84766 c 0,2.36718 0.21875,4.5664 0.652344,6.60156 l 0.292969,1.34766 0.433593,6.38671 c 0,4.82422 0.07422,7.64063 0.21875,8.44532 l 1.523438,8.4414 0.433594,8.23438 c 0.195312,5.67578 0.07422,9.33984 -0.363282,10.99609 l 7.035157,12.70313 -0.214844,0.71093 -0.652344,-0.5 c -0.242187,0 -0.4375,0.0742 -0.582031,0.21485 -0.773438,-0.66406 -1.742188,-2.08203 -2.902344,-4.25781 l -0.433594,1.27734 c -0.433593,0.94531 -0.605468,2.60156 -0.507812,4.96875 l -0.21875,5.17969 c -0.144531,0.0937 -0.214844,0.23437 -0.214844,0.42578 l 0.144532,0.21094 -0.21875,2.625 c 0,2.50781 0.144531,4.49609 0.433593,5.96093 l 1.453125,5.10938 c 0.433594,0 0.652344,0.26172 0.652344,0.78125 l -0.07422,0.71094 6.09375,2.33984 c -0.726562,-1.70313 -1.304687,-5.55859 -1.742187,-11.56641 L 92.691406,242 c 0.386719,-0.0937 0.582032,-0.32813 0.582032,-0.70703 l -0.4375,-0.28516 L 94,235.33203 v -0.0703 l 0.433594,0.0703 c 0.433594,0 0.652344,-0.26172 0.652344,-0.78125 l -0.796876,-0.63672 c 0.722657,-3.45703 1.304688,-5.75 1.738282,-6.88672 l -0.359375,-1.48828 M 76.011719,116.6875 78.765625,107.25 75.9375,107.74609 c -2.660156,0.94532 -5.292969,1.5586 -7.90625,1.84375 l -2.390625,6.88282 -0.292969,2.41406 v 0.14062 l -0.144531,4.75391 c 0,2.03516 0.21875,4.58984 0.652344,7.66406 0.4375,3.07422 0.652343,6.57422 0.652343,10.50391 l -0.07031,4.32812 c 0.339844,1.1836 0.675781,3.59375 1.015625,7.23828 l 0.652344,8.23047 c 0,3.35938 -0.242188,5.91407 -0.726563,7.66407 l -0.214844,4.32812 v 0.56641 c 1.0625,-0.70703 1.882813,-1.0625 2.464844,-1.0625 h 0.21875 l -0.07422,0.5664 0.144531,0.78125 -2.464844,1.98828 0.941406,1.70313 1.160157,2.19922 -0.07031,0.14062 0.214844,0.21485 0.945312,2.33984 c 0.773438,2.50781 1.160157,5.10938 1.160157,7.80469 l -0.507813,7.09765 0.363281,5.17969 v 6.03125 l -0.292968,17.66797 0.292968,13.19922 c 0.144532,5.01562 0.02344,7.92578 -0.363281,8.73047 l -0.07422,1.6289 c -0.242187,14.05079 -0.75,23.41797 -1.523437,28.10157 l -0.507813,2.26953 6.820313,-0.63672 H 76.375 l 0.722656,-1.63281 2.757813,-4.75391 c 0.578125,-3.12109 1.085937,-5.13281 1.523437,-6.03125 0.04687,-2.08203 0.167969,-3.45312 0.363282,-4.11719 0,-3.35937 0.214843,-5.10937 0.652343,-5.25 -2.320312,-1.98828 -3.601562,-3.26562 -3.84375,-3.83203 -0.4375,-0.89844 -0.652343,-4.35156 -0.652343,-10.35937 0,-7.00391 0.191406,-11.4961 0.578124,-13.48438 l 0.144532,-0.5664 c -0.335938,-0.0469 -0.605469,-0.33204 -0.796875,-0.85157 l -0.144531,-0.92187 v -0.9961 l -2.539063,5.53516 c -0.628906,3.64453 -1.304687,5.46484 -2.03125,5.46484 -0.53125,0 -0.796875,-0.23437 -0.796875,-0.70703 0,-1.18359 1.015625,-4.1875 3.046875,-9.01562 2.03125,-4.82422 3.046875,-9.19922 3.046875,-13.125 -0.824219,-5.15625 -1.234375,-8.58594 -1.234375,-10.28906 v -0.14454 c 0,-0.32812 0.167969,-0.51953 0.507813,-0.5664 l 0.144531,-1.91406 c 0,-0.80469 0.07422,-1.39844 0.21875,-1.77735 l -1.453125,-8.4414 c -1.257813,-7.52344 -1.882813,-12.46485 -1.882813,-14.83204 l 0.289063,-3.76171 0.21875,-1.48829 v -0.14453 l 0.652344,-6.59765 c 0,-3.1211 -0.171876,-5.62891 -0.507813,-7.52344 l -0.363281,-7.51953 c -0.726563,-5.53516 -1.089844,-10.55078 -1.089844,-15.04297 0,-2.55469 0.265625,-5.01563 0.800781,-7.38281 l 0.144531,-7.23438 1.160157,-4.25781 m 3.769531,-9.58203 -2.03125,8.58594 c -0.386719,0.0937 -0.578125,0.30859 -0.578125,0.64062 l 0.363281,0.21094 -1.234375,4.75391 c -0.144531,1.51562 -0.167969,3.8789 -0.07422,7.09765 -0.578124,3.07422 -0.867187,5.39453 -0.867187,6.95313 0,5.10937 0.363281,10.19531 1.085937,15.25781 0.09766,6.90625 0.386719,11.92187 0.871094,15.04297 0.195313,3.3125 0.07422,5.51172 -0.363281,6.59765 L 76.15625,177.5 c 0,3.07422 1.378906,11.96875 4.132812,26.67969 l 2.46875,10.0039 0.289063,-7.23437 -0.4375,-7.73828 -1.304687,-7.80469 -0.433594,-7.80469 -0.582032,-7.73437 v -0.28516 c -0.335937,-0.75781 -0.578124,-1.98437 -0.722656,-3.6875 l 0.214844,-16.32422 c 0,-5.20312 -0.335938,-9.71875 -1.015625,-13.55078 C 78.089844,138.14062 77.75,133.92969 77.75,129.38672 l 0.148438,-2.98047 0.07031,-0.92187 -0.07031,-0.0703 1.085937,-8.375 0.652344,-0.70703 -0.433594,-0.57031 v -0.28125 c 0.628906,-4.16406 1.136719,-7.00391 1.523437,-8.51563 l -0.945312,0.14063 m -1.085938,98.63672 0.722657,4.32812 0.4375,5.60547 -0.21875,3.33594 c 0.339843,0.23437 0.460937,0.92187 0.363281,2.05859 l -0.289062,2.33985 v 0.0703 l -0.07422,0.92187 1.015625,-4.60937 -0.363282,-0.35547 0.800782,-1.34766 c 0.144531,-0.42578 0.265625,-0.64062 0.359375,-0.64062 h 0.07422 l 0.363281,-0.56641 c -0.679688,-1.5625 -1.257813,-3.45312 -1.742188,-5.67969 l -1.160156,-5.88671 -0.289063,0.42578 m 5.367188,32.64062 h 0.07031 c 0.679688,0 1.015626,-0.23828 1.015626,-0.71094 l -1.015626,-0.85156 0.292969,-4.39844 c 0.335938,-4.0664 0.722657,-6.76562 1.160157,-8.08984 l -3.046876,-6.17187 -0.363281,0.70703 -1.378906,8.30468 -0.941406,7.37891 c -0.289063,0.14063 -0.4375,0.35547 -0.4375,0.64063 l 0.363281,0.28125 c -0.289062,2.93359 -0.433594,5.84375 -0.433594,8.73046 0,5.29688 0.144532,8.51172 0.433594,9.64844 l -0.289062,0.56641 0.871093,0.71094 h 0.363281 l 4.421876,4.04687 0.726562,0.63672 v -0.49609 l 0.289062,-3.40625 0.07422,-0.71094 c -0.917969,-0.37891 -1.570312,-0.66016 -1.960937,-0.85156 l 0.07422,-0.35547 -0.363281,-0.56641 0.652344,-0.14062 0.945313,0.14062 c -1.066407,-1.41797 -1.621094,-5.36719 -1.667969,-11.85156 l 0.14453,-3.19142 M 9.644531,173.66797 7.398438,181.82812 5.875,192.25781 c -0.433594,1.65625 -1.089844,5.32422 -1.957031,11 l -0.507813,3.26563 c -0.484375,0 -0.703125,0.23437 -0.652344,0.70703 l 0.433594,0.85156 -0.582031,4.82422 c 0,1.98828 0.460937,3.97656 1.378906,5.96094 1.210938,2.55468 2.007813,4.89843 2.394531,7.02734 0.386719,2.17578 1.160157,4.32813 2.320313,6.45703 l -0.070313,-2.55469 0.070313,-7.875 C 6.722656,214.39844 5.730469,210.09375 5.730469,209.00391 v -0.14063 l 0.070312,-0.35547 c 0.339844,-5.4414 0.847657,-10.85547 1.523438,-16.25 1.066406,-8.5625 2.203125,-13.8125 3.410156,-15.7539 l -1.089844,-2.83594 m 30.464844,91.67969 v -0.21094 L 40.253906,264 c 0.144532,-0.56641 0.04687,-0.92188 -0.289062,-1.06641 l -0.144532,-6.10156 v -4.25781 l 0.289063,-3.33594 -8.921875,-1.48828 -0.289062,0.28516 -0.582032,-0.5 -2.101562,-0.4961 -0.726563,-0.21094 -0.871093,3.33594 -0.144532,4.32813 c -0.191406,1.55859 -0.3125,3.42968 -0.363281,5.60547 -0.289063,0.0937 -0.433594,0.30468 -0.433594,0.63671 l 0.433594,0.28516 -0.07031,2.12891 c 0,3.92578 0.265626,7.04687 0.796876,9.36718 l 0.507812,4.61329 0.289062,1.48828 0.652344,3.1914 v 0.64063 l 11.171875,0.0703 h 1.882813 l -0.359375,-3.90234 -0.582031,-7.94922 -0.289063,-5.32031 m 14.289063,-4.46875 v -0.21485 l 0.144531,-1.13672 -0.144531,-0.49609 c 0.04687,-4.91797 0.191406,-8.16016 0.433593,-9.71875 h -13.78125 c 0.4375,1.9375 0.53125,7 0.289063,15.18359 l -0.214844,0.0703 0.289062,0.64062 0.941407,13.41016 0.07422,2.55468 v 1.34766 l 10.515624,-0.21094 v -0.78125 l 1.160157,-8.30468 0.292969,-8.3711 v -3.97265 M 24.66016,260.30856 c 0.339844,-0.0469 0.507813,-0.28125 0.507813,-0.70703 l -0.433594,-0.57031 0.289063,-5.03906 c 0.242187,-3.64063 0.578124,-6.19532 1.015624,-7.66016 l -5.078124,-2.05859 -4.425782,-2.12891 -1.375,8.37109 c -0.386718,0.0469 -0.582031,0.28516 -0.582031,0.71094 l 0.363281,0.35547 -0.21875,1.20703 0.4375,9.86328 0.144532,9.79297 v 6.17188 l -0.144532,1.84375 1.667969,0.92187 1.015625,-0.0703 2.683594,0.21484 0.214844,0.42578 6.382812,0.42579 c -0.242188,-0.71094 -0.507812,-1.96485 -0.796875,-3.76172 l -0.871094,-5.46485 c -0.578125,-3.54687 -0.871093,-6.88281 -0.871093,-10.0039 l 0.07422,-2.83985 M 41.5586,284.15232 v -0.14062 h -0.07031 l 0.07031,0.14062 M 85.875,267.97266 h 0.07422 c 0.433593,0 0.652343,-0.23438 0.652343,-0.71094 l -0.582031,-0.92188 c 0.144531,-1.41797 0.410157,-2.43359 0.796875,-3.05078 -1.160156,-1.75 -2.078125,-2.88672 -2.753906,-3.40625 l -1.015625,-0.85156 0.144531,2.55469 -0.144531,3.40625 c -0.386719,0.0469 -0.582031,0.28515 -0.582031,0.71093 l 0.582031,0.71094 -0.144531,2.625 0.144531,2.41016 c 0.191406,1.51562 0.554687,2.48437 1.085937,2.91015 l 1.667969,1.20704 -0.07031,-0.4961 v -2.76953 L 85.875,267.97266 m 10.226562,2.69531 0.507813,-0.63672 -0.21875,-0.21484 0.945313,-1.70313 1.375,-1.91406 -0.578126,-5.96094 0.07031,-0.21094 -2.972656,-1.42187 -7.542969,-2.83594 -0.796875,5.03516 1.378906,1.77734 c 0.289063,0.0937 0.410157,0.30469 0.363281,0.63672 v 0.28516 l 0.07031,0.5664 -0.21875,0.78125 -0.507813,2.91016 -0.214843,0.49609 0.144531,0.14063 -0.726562,3.90234 0.582031,4.47266 0.871093,1.13281 1.957032,0.71094 2.683594,1.27734 3.480468,0.85156 0.289063,-0.0703 0.871093,0.0703 -0.578124,-2.1289 -1.453126,-6.52735 c 0,-0.47265 0.07422,-0.94531 0.21875,-1.42187 m 11.605464,-6.88281 v -0.21094 l -0.0742,-0.0703 -0.21484,0.14062 h -0.21875 c -0.82422,0 -2.94922,-0.80469 -6.38281,-2.41406 l -1.234375,-0.56641 0.437495,2.41406 0.28906,3.47657 -1.449211,2.19922 -1.089844,1.98828 -0.652343,0.14062 0.07422,0.35547 0.289063,0.21094 -0.144531,0.71094 c 0,1.23046 0.433593,3.38281 1.304687,6.45703 l 0.507813,1.70312 v 0.56641 l 5.437506,0.85156 4.78906,0.64063 0.28906,-6.38672 -1.23437,-11.21094 -0.28906,-0.0703 -0.4336,-0.92578 M 150.5,213.61719 l 1.73828,-2.41407 c 1.83984,-2.17578 2.75781,-4.20703 2.75781,-6.10156 0,-3.26172 -0.53125,-7.61719 -1.59765,-13.05469 -1.01563,-5.34765 -2.05469,-9.25 -3.11719,-11.71093 -1.16016,-5.25 -2.37109,-9.17578 -3.625,-11.77735 l 0.79687,5.89063 c 0.77344,2.22265 1.16016,6.26562 1.16016,12.13281 -0.24219,14.05078 -0.67578,22.80078 -1.30469,26.25391 l 0.50782,0.85156 -0.14454,0.42578 0.14454,0.42578 0.28906,0.21485 -0.0742,7.3789 0.36328,3.19141 v 0.57031 l 0.14453,0.28125 0.72656,5.39453 1.30469,9.57813 1.74219,9.36718 c 0,1.51563 -0.55859,5.0625 -1.66797,10.64454 l -1.16016,6.60156 -0.0742,0.5664 5.29687,-5.60546 c 1.73828,-2.12891 2.80469,-3.83204 3.19141,-5.10938 l 0.35937,-4.54297 c 0,-2.45703 -0.16797,-4.25781 -0.50781,-5.39062 -0.28906,-0.75782 -0.62891,-2.53125 -1.01563,-5.32422 l -0.35937,-10.71485 -1.52344,-13.69531 0.28906,-0.49609 c 0.0469,-0.33203 -0.0977,-0.54297 -0.43359,-0.63672 l -0.65625,-5.67969 -0.21484,0.28516 c -0.67969,0.80469 -1.86328,2.8164 -3.55469,6.03125 l -0.79688,-0.85156 0.36329,-1.63282 c 0.67578,-0.0469 1.01171,-0.28125 1.01171,-0.70703 0.0977,-0.28515 -0.0234,-0.5 -0.35937,-0.64062 m -14,27.88672 c 0.19531,-0.14063 0.36328,-0.25782 0.50781,-0.35547 0,-0.375 -0.16797,-0.58985 -0.50781,-0.63672 v -0.99219 l 0.58203,-8.58594 c -0.14453,-2.88672 -0.12109,-5.01562 0.0703,-6.38672 l -7.2539,6.88282 -4.13281,4.46875 c 0.24218,0.61718 0.3164,1.91797 0.21875,3.90234 l -0.14454,6.45703 -0.0742,0.0742 0.0742,0.28125 -0.4375,12.34766 0.8711,5.32422 v 0.0703 l 0.14453,4.04297 c 0,4.02343 -0.19141,7.14453 -0.57813,9.36718 l 0.0703,0.85157 0.4375,2.83984 -0.4375,0.56641 0.65234,0.5664 v 0.21485 h 0.14453 l 12.91406,-0.78125 c -0.19531,-0.66407 -0.33984,-1.79688 -0.4375,-3.40625 l -0.0703,-1.91407 0.21484,-0.64062 -0.28906,-0.63672 -0.0742,-1.06641 -0.57812,-13.26953 c -0.96875,-4.96875 -1.5,-8.5625 -1.59766,-10.78515 L 136.5,241.50391"
     id="path4" />
  <path
     id="path99207"
     style="fill:#362c38;stroke:none;stroke-width:1px;stroke-linecap:butt;stroke-linejoin:miter;stroke-opacity:1;fill-opacity:1"
     d="m 57.233574,184.10809 c 0,0 0.361183,-0.0573 0.487511,-0.0573 0.126327,0 0.827941,0.0338 0.827941,0.0338 l 1.152298,-1.20423 1.20987,-1.24402 1.185905,-1.31216 1.513855,-1.43461 1.34877,-0.7947 1.22419,-0.86993 1.176903,-0.66386 1.387245,-1.06615 0.954811,-0.84617 -0.01537,-0.63923 -0.08728,-0.72369 -0.118187,-0.33119 0.733712,-0.63488 h 0.593154 l 0.477349,0.50337 c 0,0 0.23159,0.64526 0.292618,0.78083 0.06103,0.13557 0.217666,1.28361 0.248916,1.50158 0.03125,0.21798 0.218804,1.79486 0.218804,1.79486 l -0.650048,2.26538 c 0,0 -0.09872,1.07568 -0.216423,1.31478 -0.117698,0.23909 -0.590721,0.8875 -0.715721,1.35625 -0.125,0.46875 -0.06502,0.64935 -0.340652,1.04959 -0.275627,0.40023 -0.524506,0.77871 -0.741066,1.14769 -0.216561,0.36899 0.01666,0.13988 -0.390518,0.64081 -0.407181,0.50093 -0.899468,1.13412 -1.062226,1.21282 -0.162758,0.0787 -0.599869,0.48457 -0.881119,0.82832 -0.28125,0.34375 -0.436912,0.34277 -0.992851,0.6534 -0.555939,0.31063 -0.630577,0.34461 -0.955765,0.4661 -0.325187,0.12149 -0.01111,0.15235 -0.760307,0.21485 -0.749199,0.0625 -1.616577,0.27941 -1.953011,0.15625 -0.336433,-0.12315 -0.568901,-0.12746 -1.057395,-0.24861 -0.488495,-0.12114 -1.321579,-0.21915 -1.499474,-0.30825 -0.177895,-0.0891 -0.385849,-0.0724 -0.775742,-0.43085 -0.389892,-0.35847 -0.608444,-0.4222 -0.759826,-0.7566 -0.151383,-0.3344 -0.463494,-0.89503 -0.463494,-0.89503 0,0 -0.230613,-0.23077 -0.292747,-0.52692 -0.06213,-0.29615 -0.304634,-0.93224 -0.304634,-0.93224 z m 57.871906,-166.197931 -1.34867,0.509216 -2.28742,0.807811 -1.07876,0.315783 c 0,0 0.80078,-0.136731 0,0 -0.80078,0.136731 -1.8125,0.140625 -1.8125,0.140625 l -3.33984,0.4922 0.26049,0.863025 0.17702,1.05884 v 0 l 0.96302,0.907287 2.2987,1.217713 1.04484,0.34095 1.42393,0.08484 0.56217,0.563652 2.18091,1.049218 0.87361,0.377327 1.87999,0.05246 0.30406,-0.765328 8.2e-4,-0.417631 -0.49752,-0.334841 -0.20427,-1.272717 -0.24041,-1.451373 0.0703,-0.210938 -0.31849,-1.226319 -0.5487,-1.613524 z m -90.081506,-9.425115 -0.415809,1.5964 -0.562834,2.1609 -0.562585,2.446545 -0.407194,1.866015 -0.469676,1.434117 0.150423,0.560364 0.107097,0.390354 -0.138608,1.084505 -0.414154,1.605918 -1.165901,3.813592 -0.543256,5.796995 -0.607951,3.754158 -0.867893,5.098596 0.0555,1.574136 -0.145077,1.677092 -0.768931,4.791194 -0.647743,3.29403 -0.80363,4.051369 -0.96377,4.7222 -0.446063,3.978684 -0.352388,4.022177 -0.312251,3.678701 c 0,0 -0.786454,2.010063 -0.786454,2.39017 0,0.380107 -2.072098,5.016184 -2.072098,5.016184 l -1.535747,4.72349 -0.665071,4.727223 -0.5464066,5.240236 -1.384348,11.966941 -0.845192,0.83442 -0.8698138,2.48985 -1.0889073,4.77641 -0.8863004,4.08859 -1.1458763,5.96395 -0.7969194,4.41507 -0.7912872,5.24614 0.5075425,3.01132 1.5649442,7.76542 1.0583943,5.46747 0.7807997,4.4636 0.8946083,5.04555 1.3726305,2.4338 1.1247719,3.98611 c 0,0 1.1935448,2.0627 1.2399401,2.52279 0.046395,0.4601 -0.235704,1.0442 -0.235704,1.0442 l 1.0321355,2.31452 1.24855,3.4997 0.908508,2.38284 0.543083,1.08049 0.398674,3.40061 0.572174,2.7385 0.563385,2.02237 0.70926,1.68301 -0.314347,0.77001 -0.646339,-0.46512 -0.61174,0.0139 -0.793557,-2.23905 -0.839942,-4.97738 -0.622597,-2.74818 -1.043968,-2.83814 -0.8866657,-1.97194 -0.1882325,-0.70523 -0.6328964,1.87063 c 0,0 -1.1496887,4.4484 -1.2036896,4.61097 -0.054001,0.16256 -0.9127426,3.33307 -0.9127426,3.33307 l -0.314682,2.53268 -0.5302124,3.67977 -0.2387542,2.81833 -0.8152695,3.87244 -1.0045471,4.56675 -0.5987397,4.37856 -0.1738586,1.30339 -0.4755859,0.24634 -0.2487793,0.66372 0.4139404,0.80304 c 0,0 -0.3245239,3.48915 -0.3245239,3.74703 0,0.25788 -0.062439,3.49535 -0.062439,3.49535 l 0.7123566,2.05708 1.4658508,3.92832 1.114212,3.44142 0.7888184,3.24053 1.1836853,3.26475 1.0702515,2.15138 1.9660184,3.0316 c 0,0 0.29158,1.11142 0.5943,1.40033 0.302719,0.28891 0.05885,0.51325 -0.198182,0.57575 -0.257034,0.0625 -0.568771,0.30269 -0.568771,0.30269 l -0.423584,-0.20798 -1.0503387,-1.28728 -0.63237,1.02367 -0.1790466,1.81038 -0.064407,2.0896 -0.5453186,0.70679 -0.6630096,0.6404 0.4209442,1.1281 1.3661041,1.42851 2.1040032,2.61295 0.981781,1.33826 c 0,0 0.898987,0.68426 1.223969,0.8063 0.324982,0.12203 2.206146,1.55712 2.206146,1.55712 l 2.417496,2.1867 3.834701,3.77888 2.746888,2.04415 1.6277,1.2477 1.487213,1.15573 2.80806,1.68625 c 0,0 1.472229,1.30237 1.806549,1.36564 0.33432,0.0633 2.24971,1.12023 2.24971,1.12023 l 2.227143,0.66282 c 0,0 1.17041,-0.80109 1.45111,-0.86373 0.280701,-0.0627 1.954895,-0.77292 2.306809,-0.79489 0.351913,-0.022 2.717056,-0.52656 2.717056,-0.52656 l 2.682014,-0.6709 c 0,0 1.780984,-0.84051 2.171988,-0.95405 0.391004,-0.11354 3.509121,-1.00408 3.509121,-1.00408 0,0 1.368779,-0.76407 1.553712,-0.84807 0.184934,-0.084 2.34255,-1.19703 2.558288,-1.2649 0.215738,-0.0679 2.136761,-0.34315 2.136761,-0.34315 l 3.062831,-0.8153 1.017135,-0.87577 2.362608,-1.94561 c 0,0 1.423007,-1.73614 1.613216,-1.73614 0.19021,0 1.9438,-2.44384 1.9438,-2.44384 0,0 0.984507,-1.61116 1.233455,-1.77172 0.248948,-0.16056 1.239552,-1.61022 1.239552,-1.61022 l -0.01637,-0.90157 -1.143837,-0.47335 c 0,0 -1.0985,-0.77694 -1.749047,-0.86598 -0.650548,-0.089 -2.527667,-0.51934 -2.527667,-0.51934 0,0 -2.820508,-2.34389 -3.17213,-2.38974 -0.351622,-0.0458 -4.23183,-2.59305 -4.23183,-2.59305 l -4.806828,-3.36448 -2.614588,-2.35187 -2.032857,-2.03184 -1.247449,-1.39031 -0.754646,-2.63158 -0.780217,-2.63701 -0.517534,-2.54269 -0.385879,-3.40552 c 0,0 -0.04425,-1.4671 -0.176248,-1.76894 -0.132,-0.30183 -1.172106,-2.53161 -1.240825,-2.71082 -0.06872,-0.1792 -0.688591,-1.59343 -0.864818,-2.34142 -0.176226,-0.74798 -1.06079,-3.17031 -1.06079,-3.52011 0,-0.34979 -0.168608,-1.78977 -0.168608,-1.78977 0,0 -0.523371,-6.0154 -0.523371,-6.22303 0,-0.20762 -0.199467,-4.18949 -0.199467,-4.18949 l 0.268855,-3.65643 0.284165,-2.47288 c 0,0 0.261529,-4.42403 0.387325,-4.67202 0.125796,-0.24799 0.698939,-4.58663 0.698939,-4.58663 l 0.653439,-3.67918 c 0,0 1.102794,-3.80016 1.235376,-4.1081 0.132583,-0.30793 0.465086,-3.28448 0.745292,-3.60019 0.280205,-0.31572 0.658488,-2.46181 0.658488,-2.46181 l 0.108889,-4.16647 c 0,0 -0.104033,-4.52911 0.04738,-4.89644 0.15141,-0.36733 0.372824,-3.76618 0.372824,-3.76618 l 0.682452,-3.74248 c 0,0 0.218802,-4.39492 0.262457,-4.62593 0.04366,-0.23102 -0.05342,-4.04785 -0.0092,-4.36377 0.04419,-0.31592 -0.20893,-4.39083 -0.20893,-4.39083 l 0.01817,-4.21486 0.07041,-5.11074 0.05184,-4.45774 0.06632,-2.3632 0.18831,-2.83261 0.03717,-1.36469 c 0,0 3.990916,-1.36205 4.389445,-1.57851 0.398529,-0.21646 3.26448,-1.51726 3.26448,-1.51726 l 2.739686,-1.11748 2.755828,-1.33428 c 0,0 1.713562,-1.11081 2.019303,-1.3179 0.30574,-0.20709 2.143127,-1.55289 2.143127,-1.55289 l 1.528748,-0.43703 c 0,0 -0.650818,1.30434 -0.761093,1.60962 -0.110276,0.30527 -0.483719,2.23377 -0.483719,2.23377 0,0 -0.344544,3.38301 -0.530899,3.69321 -0.186356,0.31019 -0.06622,1.65252 -0.06622,1.65252 l 1.422119,0.27057 1.987304,0.45522 c 0,0 1.469086,-0.3031 1.833512,-0.39263 0.364425,-0.0895 2.805984,-1.24274 3.074875,-1.24274 0.26889,0 3.102981,-0.6667 3.102981,-0.6667 0,0 1.026962,-0.96173 0.847138,-0.64259 -0.179825,0.31913 1.595466,-5.99606 1.595466,-5.99606 l 0.643686,-1.97762 0.578937,-1.62118 0.466046,-1.26431 c 0,0 0.191774,-1.01573 0.434151,-1.08781 0.242378,-0.0721 1.929881,-0.19034 1.929881,-0.19034 l -1.321369,1.98994 -0.528324,1.06555 -0.682506,3.44556 -1.042895,3.40484 c 0,0 -0.06887,0.62683 -0.275885,0.72473 -0.20702,0.0979 -0.426787,0.21884 -0.426787,0.21884 l -0.150316,0.42657 0.354735,0.31613 c 0,0 -0.237781,0.61558 -0.237781,0.73606 0,0.12047 -0.519022,1.94956 -0.519022,1.94956 l -0.506313,2.31296 -0.02511,1.75135 0.03392,3.88617 0.05256,1.0814 -0.324847,1.30459 -0.478718,3.44426 -0.203487,2.27255 0.02897,2.17922 0.100829,2.34369 0.368082,5.38777 0.255923,2.31925 0.224559,2.01261 0.151351,1.27927 0.0419,1.60795 0.0098,1.45212 0.07026,1.83008 0.128461,2.15608 0.134487,2.31174 0.270743,3.82385 0.153299,1.19656 0.15845,1.93658 -0.0277,1.52147 -0.01239,1.59046 -0.170373,1.00663 -0.162119,0.846 -0.288535,1.39086 c 0,0 -0.309365,2.1515 -0.309365,2.24548 0,0.094 -0.248317,1.46715 -0.248317,1.46715 l -0.08402,0.75839 0.142115,1.81156 0.40475,2.80418 0.21905,1.43748 0.667552,4.46552 0.335098,2.44654 0.265705,1.64818 0.749752,3.63251 c 0,0 0.68925,3.95885 0.68925,4.08606 0,0.1272 0.481615,2.45643 0.481615,2.45643 l 0.10433,1.02778 2.904516,11.72728 0.521774,1.60412 3.473234,5.78384 1.006626,1.86858 1.203029,2.08478 0.9195,1.72325 0.65236,1.42294 -0.214626,0.89238 c 0,0 -0.503691,0.0533 -0.720421,-0.18141 -0.216731,-0.23468 -1.656742,-1.22528 -1.656742,-1.41028 0,-0.18501 -1.097787,-2.21199 -1.097787,-2.21199 l -1.200483,-2.8344 -2.133124,-4.27885 -1.215156,-2.27117 c 0,0 -0.269686,0.96725 -0.419586,1.22672 -0.1499,0.25947 -0.466974,2.35638 -0.466974,2.35638 l -0.497152,3.42808 -0.526338,2.94595 -0.362519,3.81578 -0.453509,2.3683 c 0,0 0.352648,0.40153 0.01438,0.57364 -0.338265,0.17211 -0.552794,0.26618 -0.552794,0.26618 l -0.04419,0.56736 0.707312,0.64635 1.059516,1.07466 c 0,0 1.729593,1.12041 2.053292,1.27203 0.323699,0.15162 1.81372,0.51942 1.81372,0.51942 l 1.285084,0.5853 1.011923,0.94972 1.562581,0.98872 c 0,0 1.990481,0.70719 2.129854,0.73844 0.139374,0.0312 1.72686,0.28403 1.72686,0.28403 0,0 1.598626,0.29393 1.740906,0.32556 0.142281,0.0316 1.531059,0.13181 1.79068,0.1118 0.259621,-0.02 1.305702,-0.02 1.449463,-0.02 0.143761,0 0.940186,0.0211 1.17569,0 0.235504,-0.0211 -0.286309,0.0124 0.757065,-0.0211 1.043375,-0.0335 1.829945,0.29728 1.829945,0.29728 0,0 0.74821,-0.36808 0.89699,-0.42683 0.14878,-0.0588 0.37998,-0.0565 0.77201,-0.21134 0.39203,-0.1548 0.23631,-0.0314 0.5775,-0.23234 0.3412,-0.20093 0.67858,-0.21358 0.65144,-0.36219 -0.0271,-0.14861 0.0483,-0.0818 -0.20171,-0.5193 -0.25,-0.4375 -0.39724,-0.49748 -0.80976,-0.74962 -0.41252,-0.25214 -1.72083,-0.98088 -1.87148,-1.14667 -0.15065,-0.1658 -1.924686,-1.62506 -1.924686,-1.62506 l -0.894271,-0.91305 c 0,0 -0.509072,-0.61961 -0.585617,-0.77002 -0.07655,-0.1504 -0.254845,-0.52244 -0.603341,-0.73514 -0.348495,-0.2127 -1.559394,-0.84435 -1.559394,-0.84435 0,0 -0.904503,-0.78685 -1.031929,-0.86646 -0.127427,-0.0796 -1.906296,-1.42157 -1.906296,-1.42157 l 0.455261,-0.45689 0.234055,-1.63111 -0.02229,-1.60004 1.279305,-1.93583 c 0,0 1.508972,-1.21574 1.571068,-1.3643 0.06209,-0.14856 1.109512,-1.28534 1.109512,-1.28534 l 2.160057,-1.53956 2.613546,-2.12115 1.98091,-1.44866 1.45941,-1.20624 -1.05374,-1.5258 -2.2365,-3.60746 -0.90861,-1.62389 -1.638941,-3.69474 -0.320192,-2.5806 0.07738,-2.91311 0.126734,-2.89877 0.08712,-3.38423 0.407999,-2.11787 c 0,0 0.0326,-2.02543 0.10761,-2.4539 0.075,-0.42846 -0.667008,-2.17019 -0.667008,-2.65397 0,-0.48377 -0.608814,-1.63592 -0.608814,-2.06522 0,-0.42929 -0.172612,-2.37126 -0.172612,-2.37126 l -0.184308,-2.90202 -0.0659,-2.18022 0.647008,-1.74763 c 0,0 0.347576,-1.39196 0.793964,-1.61862 0.44639,-0.22666 1.70444,-2.12828 1.70444,-2.12828 l 1.15539,-1.20849 -0.29902,-2.17695 -0.78003,-3.1513 -0.82598,-4.32714 -1.009892,-3.87606 -0.677781,-4.40353 -0.408192,-4.23325 -0.799983,-5.20564 -0.618719,-6.61658 -0.464923,-4.60067 -0.554413,-5.05706 0.145099,-3.6539 0.240284,-4.02564 c 0,0 0.58158,-2.04702 0.503313,-2.95099 -0.07827,-0.90397 0.805616,-3.54923 0.805616,-3.54923 l 0.870504,-2.69548 -1.043677,-2.66555 c 0,0 -0.466219,-3.44615 -0.37783,-4.33251 0.08839,-0.88635 0,-3.14529 0,-3.14529 l 0.454759,-4.023258 0.289679,-2.061438 1.63799,-2.793593 3.025646,-3.636919 3.53471,-4.434665 3.17747,-4.034904 1.49492,-3.674493 1.38688,-2.753763 1.45661,-4.018597 2.38068,-6.082779 -1.18323,-2.350799 -0.87275,-0.257342 -1.94927,0.615459 -1.96944,2.986722 -5.82591,6.43678 -2.42621,4.336672 -4.168931,5.860524 -2.724372,2.690779 -0.948514,1.689305 -0.855575,-6.588498 -0.123321,-6.793251 0.6427,-5.870484 c 0,0 -0.430786,-3.716858 -0.182281,-4.730339 0.248504,-1.013481 -1.47284,-4.594673 -1.47284,-4.594673 0,0 -2.557068,0.07133 -2.769623,0.876152 -0.212555,0.804825 -1.825378,2.391197 -2.073669,2.915764 -0.248291,0.524567 -6.099121,7.283363 -6.099121,7.283363 l -2.651489,3.552803 -6.171265,4.902886 -6.970489,7.760612 c 0,0 -3.211365,2.881096 -4.287018,3.831757 -1.075653,0.95066 -5.11789,3.631057 -5.478363,4.364837 -0.360474,0.73378 -3.660736,2.849053 -4.645783,3.709359 -0.985046,0.860305 -3.415069,2.048805 -3.415069,2.048805 0,0 -1.200135,-1.086579 -1.133972,-1.734368 0.06616,-0.647789 -1.026398,-4.113594 -0.805329,-4.770858 0.221069,-0.657265 0.971161,-5.877732 0.971161,-5.877732 l 1.737061,-6.173965 2.057434,-6.01783 3.644531,-6.291626 2.791809,-2.265671 4.076263,-3.848434 c 0,0 2.380127,-2.540642 3.535248,-3.028114 1.155121,-0.487473 3.859039,-1.442948 3.859039,-1.442948 l 2.73285,-0.931045 2.230102,-2.314781 -0.04327,-2.731743 c 0,0 -1.810974,-0.121521 -2.8349,0.0035 -1.023925,0.125 -3.26889,0.599998 -4.308624,0.724998 -1.039734,0.125 -4.335449,0.469574 -4.335449,0.469574 l -0.982697,-1.867889 -1.528564,-2.372696 -0.844422,-3.779682 0.658265,-1.670563 c 0,0 0.905395,-2.272579 1.497039,-2.397579 0.591645,-0.125 3.301758,-1.866444 3.301758,-1.866444 0,0 0.686463,0.464775 1.121948,-0.527218 0.435486,-0.991993 -1.146759,-3.76382 -1.146759,-3.76382 L 61.844574,30.758003 58.341766,25.317242 55.764404,22.04641 54.046509,20.717655 52.070038,19.018108 51.125,16.212685 49.894317,14.536423 46.370483,14.108601 40.032104,12.869928 c 0,0 -5.565368,-1.256277 -6.128326,-1.256277 -0.562958,0 -2.630829,-0.88466 -3.147705,-0.88466 -0.516876,0 -2.86142,-0.705855 -2.86142,-0.705855 L 26.46283,9.0723572 Z m 129.260756,199.510646 -0.23392,3.13712 0.18539,1.41551 0.42546,2.7469 0.0454,1.51728 0.36037,0.061 0.17926,0.35991 -0.10604,0.21583 -0.28906,0.49609 -0.82795,1.38932 -1.35199,2.17928 -0.87199,1.36109 -1.22453,1.52787 -1.45421,1.91744 -0.58184,-0.14453 -1.08594,2.62889 -0.73559,2.77701 -1.16544,3.93522 -3.71228,3.72705 -3.89059,1.0529 -1.44941,1.20706 -4.37548,2.58509 -2.32119,1.95054 -3.9633,0.57372 -1.45313,0.35549 -2.21466,0.31041 -1.77362,0.045 -1.54203,0.13202 -3.5361,-0.5578 -0.14455,-0.42575 -0.50783,-0.49611 1.11193,-1.43578 1.23477,-1.48506 2.62081,-2.97754 2.86841,-2.97271 3.84298,-3.52992 3.76044,-4.20471 4.8294,-5.10715 4.17907,-4.15372 3.23177,-3.17791 2.66365,-2.10296 1.62475,-1.50622 0.67251,-0.48694 0.55501,0.0215 c 0,0 0.60515,0.54881 0.60515,0.54881 l 1.71805,-0.0323 0.54338,-0.39736 c 0,0 1.47921,-2.21469 1.55702,-2.26199 0.0778,-0.0473 1.30831,-1.76045 1.30831,-1.76045 z m 2.31766,52.7741 -1.31727,3.51537 -0.58271,3.92405 -0.85867,3.74395 -0.45418,1.37892 -0.75497,1.27895 -1.72177,1.69957 -1.93448,1.29514 -1.52526,1.01145 -0.897,1.11233 -1.38697,0.76104 -1.92306,0.54069 -1.24547,0.62465 -2.37949,0.36751 -2.31843,0.2851 c 0,0 -4.42017,0.30301 -4.54583,0.30301 -0.12565,0 -3.40519,0.23699 -3.40519,0.23699 l -4.23837,-0.0438 1.23419,-1.34764 10.00781,-4.25781 2.6838,-1.77349 1.5937,-0.92575 1.01568,-0.21096 4.95861,-3.66815 2.80293,-2.29277 1.84597,-2.27862 1.27317,-1.23217 c 0,0 1.30562,-1.2624 1.32199,-1.30904 0.0164,-0.0466 0.56294,-0.57466 0.56294,-0.57466 l 1.86516,-2.04042 z m -73.621766,4.16838 -0.291991,0.10192 c 0,0 -0.171421,0.1261 -0.171421,0.14253 0,0.0164 -0.10334,0.30076 -0.09943,0.31882 0.0039,0.0181 0.01643,0.27669 0.01643,0.27669 l 0.138881,0.20316 0.266063,0.2882 0.248495,0.23563 0.570995,0.57857 0.552342,0.32858 0.819061,0.34489 1.131626,0.46373 1.703499,0.289 1.248776,0.36188 2.911238,0.9745 1.520307,0.53734 0.221823,0.0221 1.455619,0.62509 0.892051,-0.12212 1.643374,0.60746 1.407373,0.38943 1.761465,-0.23008 3.60669,-0.4899 2.39222,-0.0273 1.20828,-0.13483 0.32297,-0.7092 0.14125,-1.73759 -0.0462,-1.94092 -0.15832,-1.68361 -0.5924,-1.75151 -0.82205,-1.339 -3.30814,-1.48255 -4.23757,-1.96448 -3.390295,-1.53503 -4.118193,-1.56499 -3.674828,-1.29334 -3.446142,-0.86234 -2.209213,-0.33204 -1.802962,0.29709 -0.890778,0.45765 -0.311895,0.26524 -0.209566,0.47418 c 0,0 -0.042,0.40866 0.188526,0.45285 0.230531,0.0442 0.685152,0.45986 0.685152,0.45986 l 0.399528,-0.009 0.462124,0.3573 1.321087,1.23491 0.974121,1.23144 -0.434738,0.97328 c 0,0 0.05449,0.89528 0.05449,1.1455 0,0.25023 0.07217,1.94188 0.07217,1.94188 l -0.200058,1.67828 z" />
  <path
     id="path978"
     style="fill:#5d515f;fill-opacity:1;stroke:none;stroke-width:1px;stroke-linecap:butt;stroke-linejoin:miter;stroke-opacity:1"
     d="m 60.83211,179.82624 -2.61228,2.1201 -0.99326,1.94036 1.73828,2.55467 c 0,0 1.79142,1.14641 2.09566,1.14641 0.30423,0 2.37493,0.29553 3.25795,0.0696 0.88303,-0.22596 2.77139,-1.92693 2.77139,-1.92693 l 1.95703,-2.12891 1.23425,-2.26949 1.52344,-4.25781 -0.28906,-2.19922 c 0,0 -0.36329,-2.77345 -1.01563,-2.20313 -0.65234,0.57032 -3.33594,1.63282 -3.33594,1.63282 l -1.45299,1.1367 c 0,0 -2.56918,2.58779 -3.03518,2.76653 -0.466,0.17874 -1.84366,1.61833 -1.84366,1.61833 z M 46.418,118.95706 c 0,0 2.43155,-1.04473 2.77268,-1.13282 0.34113,-0.0881 3.75467,-1.63671 3.75467,-1.63671 l 1.45312,-0.70706 3.32704,-1.35066 2.49164,-1.47549 3.31804,-2.42776 1.16016,-0.42578 h 1.16015 l -0.94169,2.88901 -0.65867,3.73832 -0.54424,2.61829 1.7109,0.40673 1.52344,0.35546 2.40349,-0.8968 1.97232,-0.59476 c 0,0 1.66092,-0.34023 2.57929,-0.51089 0.91836,-0.17067 2.11129,-1.11866 2.11129,-1.11866 l -1.16016,4.25781 -0.053,4.64804 -0.0634,4.18458 c 0,0 -0.93662,4.26966 -0.87607,4.82911 0.0606,0.55945 0.27193,5.15798 0.27193,5.15798 0,0 0.26151,4.59211 0.26151,4.87643 0,0.28431 0.60357,5.96402 0.60357,5.96402 l 0.38977,5.46916 0.25973,3.80133 0.22159,5.77248 -0.43625,5.04042 -0.60478,5.52534 0.175723,4.83679 1.164207,6.2949 0.65096,5.74977 c 0,0 1.04417,5.86856 1.16821,6.14183 0.12403,0.27328 -0.16098,3.45392 -0.16098,3.45392 l -0.14454,1.91406 -0.23636,1.46187 0.29083,4.74198 0.6721,4.79615 -0.0513,4.41286 -1.19447,4.06251 -1.51175,4.29669 -1.78081,4.07174 -1.3105,3.8695 -0.16279,1.79701 0.829742,0.25316 0.721305,-0.98645 c 0,0 0.399084,-1.9358 0.688564,-2.25209 0.28948,-0.31629 0.506419,-2.14212 0.506419,-2.14212 l 1.225228,-2.87685 1.31383,-2.65829 0.144542,1.91795 0.79687,0.85157 -0.1584,1.69853 -0.0617,2.94974 -0.41227,7.69116 0.02263,4.15763 0.07533,4.51871 0.590821,3.56374 2.190898,2.17144 1.526179,1.49123 -0.65235,5.25 -0.36328,4.11719 -0.96977,3.56085 -0.55366,2.4704 -1.511752,2.86699 -1.968728,3.51975 c 0,0 -4.640062,0.42904 -5.069362,0.60895 -0.4293,0.17994 -4.531941,0.49357 -4.531941,0.49357 l -4.940094,0.45169 -5.325771,0.52584 -2.183502,-0.0215 -1.37906,4e-5 -6.45142,0.26082 -4.345976,0.21668 -2.68919,-0.17282 -6.539162,0.0336 -4.634392,-0.19763 -2.49757,-0.13918 -5.04538,-0.35692 -0.21484,-0.42578 -3.69922,-0.14454 -2.68343,-1.48825 -3.683566,-2.23755 -1.2420335,-1.14145 -0.2269425,-0.87882 c -0.04283,-0.22456 -0.1553681,-1.3887 -0.2560979,-1.83137 l -0.059513,-1.43635 -0.180851,-1.38218 -0.7165366,-6.90154 -0.38618,-5.10577 -0.3516,-6.444 0.34131,-4.45409 0.44951,-3.59704 1.8049,1.90814 2.3317995,3.1309 1.52345,1.06642 1.44906,0.99217 2.27716,2.00757 3.29228,2.78017 4.00478,3.93882 1.59373,0.71094 2.74852,2.16636 5.07737,3.23895 2.25614,0.83688 3.48047,-1.62891 1.74219,-0.42577 3.28736,-0.38953 3.23998,-1.31359 3.84396,-1.15775 2.61308,-1.46725 1.44935,-0.64067 3.99103,-0.54967 2.87555,-2.08619 4.05379,-4.13599 1.81958,-2.75901 1.54911,-1.75039 -1.74219,-1.13672 -3.04687,-0.63672 -2.10349,-1.41389 -4.49417,-3.05876 -1.81247,-0.92182 -3.45964,-2.39079 -1.47396,-1.15608 -3.04212,-2.99808 -1.45397,-1.18942 -0.36328,0.0703 -1.23444,-3.40627 -1.8125,-5.89063 -0.21365,-3.99466 -1.70898,-3.99543 -1.41939,-4.33171 -0.67137,-3.87871 -0.40891,-9.75849 0.29199,-5.63166 0.70524,-6.41874 0.93474,-4.82114 1.47208,-5.40614 1.03893,-5.1195 0.63167,-1.85085 c 0,0 -0.14949,-4.80426 -0.14949,-5.21203 0,-0.40778 0.22378,-5.99887 0.22378,-5.99887 l 1.06117,-5.97782 0.38803,-7.2214 -0.3403,-7.79209 0.16222,-13.29052 0.19068,-3.09133 z m 3.62897,-103.957071 4.49607,0.56641 12.2578,1.49219 12.54685,1.27735 1.59377,0.0703 9.28515,-1.70312 1.59766,-0.42578 9.71875,-2.76954 1.4492,-0.42577 5.07812,-1.55859 5.9453,-1.91797 1.08984,8.30469 -4.57031,1.63281 -1.95701,0.14063 -2.00425,0.36371 c 0,0 -1.09957,0.0918 -1.01063,0.30577 0.0889,0.21393 -0.0645,0.68574 -0.0645,0.68574 l 0.17702,1.05884 1.25895,0.82617 2.00277,1.29883 2.46877,0.42579 1.27749,0.92308 1.46559,0.68979 1.82723,0.37541 0.79688,-0.0703 0.61289,1.39227 1.05065,2.99145 1.20712,3.39421 0.96679,2.5668 1.51696,4.04687 0.9109,2.88824 0.40652,1.52483 0.92881,3.31651 1.2969,3.88929 0.8915,3.50906 0.47949,2.73045 0.35746,4.54102 0.61399,4.56273 0.13561,3.587943 0.25312,2.774297 0.51377,4.406078 0.58751,3.813991 0.73359,2.971528 0.31765,2.971334 0.30084,3.196276 0.31634,2.003323 0.92276,6.815521 0.6939,4.81184 0.93453,6.60184 0.76948,4.19152 1.23325,5.62711 0.78579,2.45312 1.28448,4.19211 0.73521,3.17765 1.01588,6.15371 0.92427,6.23842 0.96955,6.29534 0.69398,4.46152 0.8221,2.11273 1.44922,5.03907 0.0742,0.42578 1.0395,2.46107 1.1361,3.85531 1.46042,3.41481 1.49154,4.14611 0.67304,4.21643 2.37465,7.54724 1.0965,4.56931 0.84325,6.41309 0.50065,5.49437 c 0,0 -0.22279,2.02252 -0.22279,2.70551 0,0.68299 -1.61817,2.72013 -1.61817,2.72013 l -1.95886,2.76112 -0.79648,1.07048 -2.03125,-0.21094 -1.16016,-0.57031 -1.15997,1.4922 -0.72657,0.49606 -5.0027,4.3277 -2.21594,2.21584 -4.02354,4.03072 -4.07243,3.97238 -3.76044,4.20471 -3.84291,3.52992 -2.98784,3.33968 -2.50145,2.61057 -2.34665,2.92082 0.65233,0.92188 5.07813,0.42578 3.98828,-0.35547 1.45294,-0.35542 3.96349,-0.57377 2.32119,-1.95054 4.37548,-2.58509 1.44941,-1.20706 3.89059,-1.0529 1.74645,-1.67662 c 0,0 1.53821,-1.61611 1.77838,-2.19721 0.24018,-0.58111 1.30903,-3.87495 1.30903,-3.87495 l 0.77945,-2.6905 1.08575,-2.62889 0.58203,0.14453 3.09275,-4.15782 2.63773,-4.21718 1.11657,6.10729 0.40687,7.58802 0.0776,5.21375 0.28176,5.5011 1.01563,5.32422 0.50781,5.39062 -0.35937,4.54297 -1.29588,3.15651 -1.89553,1.95287 -3.27941,3.2826 -2.01746,2.32286 -1.95686,1.70311 -2.97265,2.26953 -2.83203,1.98828 -1.01563,0.21094 -1.59396,0.9258 -2.68359,1.77346 -3.77344,1.55859 -6.23437,2.69922 -1.2342,1.34762 -3.09574,0.0452 -5.65828,-0.17039 -5.53504,-0.23039 -1.44937,-0.0703 -5.74791,-0.69013 -6.87302,-0.94261 -3.48061,-0.85162 -2.68359,-1.27734 -1.95704,-0.71094 -2.83203,-2.33986 -1.938208,-1.27011 -0.841992,-1.4621 -0.0883,-2.45721 -0.03,-1.33793 0.14453,-2.625 1.16432,0.99833 1.66381,0.56027 c 0,0 1.246,0.32167 2.03124,0.4258 0.78524,0.10413 2.46505,0.8907 2.96285,0.96749 0.4978,0.0768 2.29848,0.88392 2.63845,0.83227 0.33998,-0.0517 1.14089,0.61817 1.86745,0.54397 l 0.72656,-0.0742 2.53905,0.92576 c 0,0 3.03258,-0.24798 3.36781,-0.31346 0.33523,-0.0655 3.89331,-0.3632 3.89331,-0.3632 l 1.97178,-0.0982 0.34131,-0.71731 0.21485,-2.1289 -0.28906,-3.26171 -1.01538,-2.27346 -2.19145,-1.05261 -4.70296,-2.40978 -4.04876,-1.5398 -2.25618,-1.02905 -5.33496,-2.14861 -0.75879,-0.19123 -3.1915,-0.78125 -2.73297,-0.16724 -2.244254,0.77035 -0.289956,-2.71453 -0.26779,-5.97787 0.0778,-4.16276 c 0,0 0.13746,-4.18727 0.19802,-4.33885 0.0606,-0.15159 0.39978,-1.2216 0.39978,-1.2216 l 1.88263,1.49568 2.39862,1.41447 c 0,0 0.71426,0.14329 1.52353,0.4961 0.80927,0.35281 2.95073,1.88271 2.95073,1.88271 l 2.46818,0.92328 1.68656,0.3151 2.57168,0.40553 c 0,0 1.66253,-0.0816 2.10219,-0.0816 0.43965,0 0.344,0.0964 1.34576,0.0316 1.00176,-0.0648 2.10802,0.54977 2.97656,0.28515 0.86854,-0.26463 2.10156,-0.99218 2.10156,-0.99218 l -0.82444,-0.69944 -3.08962,-2.42556 -1.37757,-1.25927 c 0,0 -0.83581,-1.2163 -1.07355,-1.36131 -0.23774,-0.145 -1.17937,-0.81966 -1.17937,-0.81966 l -0.83631,-0.30436 -1.60097,-1.41196 -1.405,-0.87468 0.51638,-0.36936 c 0,0 0.28363,-1.56909 0.28363,-1.69311 0,-0.12401 -0.14767,-1.9805 -0.14767,-1.9805 0,0 0.71366,-0.82933 0.86112,-0.92943 0.14746,-0.10009 1.28236,-1.56168 1.28236,-1.56168 l 2.28244,-2.26281 c 0,0 1.68351,-1.15459 2.17657,-1.57574 0.49306,-0.42115 3.17023,-2.63501 3.41884,-2.75202 0.24861,-0.11701 2.31084,-1.70349 2.31084,-1.70349 l -1.44066,-2.16486 -1.7559,-2.68122 -1.33341,-2.3447 -1.70293,-3.83552 -0.29444,-3.45026 0.43374,-4.5833 0.38238,-4.78529 0.34403,-2.26813 -0.94787,-3.27898 -0.62342,-4.63027 -0.34325,-2.62504 0.37437,-3.82376 1.72723,-2.57108 1.48091,-1.73493 0.87109,-1.13673 -1.04626,-5.06695 -1.19055,-5.61118 -1.39209,-7.06015 -0.90059,-8.38556 -0.85668,-6.12768 -0.73896,-7.14309 -0.43064,-5.63482 0.3636,-5.22729 c 0,0 0.13325,-2.97427 0.22062,-3.17301 0.0874,-0.19874 0.7037,-3.12483 0.7037,-3.12483 l 0.98661,-3.26575 c 0,0 -0.94156,-5.43342 -0.94156,-5.63014 0,-0.19672 -0.44302,-5.08219 -0.44302,-5.08219 l 0.51348,-5.53767 1.41762,-2.371694 1.05113,-1.671336 c 0,0 1.70942,-2.25146 2.00833,-2.557217 0.29891,-0.305756 2.22689,-2.697299 2.22689,-2.697299 l 1.63587,-2.124394 1.59759,-2.69922 0.58203,0.21484 0.94141,-1.06639 1.54722,-3.190623 1.1647,-3.286134 c 0,0 1.45583,-3.383569 1.56902,-3.887907 0.11318,-0.504338 1.50078,-4.718957 1.50078,-4.718957 l 0.74562,-1.66247 0.28906,-0.63672 -0.79687,-0.71094 -0.0742,-0.42578 -0.77372,-0.80227 -1.09404,1.0423 -2.23742,2.67847 -2.20341,2.68697 -1.08592,1.421865 -2.23214,3.034622 -3.46171,4.380235 -2.8206,4.00809 -2.19175,2.637026 -2.78599,3.252523 -0.25316,-2.807185 -0.49727,-4.457775 0.0239,-2.80925 -0.0805,-5.988434 0.30267,-3.882757 -0.2335,-5.33884 -0.71133,-2.39154 -0.83548,-1.26526 -1.45419,1.8683 -2.28134,2.61788 -2.14886,3.06855 -1.91294,2.29647 -2.34695,2.377566 -4.24633,4.159421 -4.03674,3.98039 -2.9325,3.177944 -1.44917,1.42187 -4.5541,4.513709 -4.97166,3.720133 -2.26114,2.11217 -1.70529,1.716488 -5.14784,3.348746 -3.91858,3.393444 v 0 l -1.21672,-6.379345 -0.30901,-4.911361 0.93952,-4.961063 c 0,0 1.49696,-4.708687 1.85397,-5.258938 0.357,-0.55025 1.41703,-4.525722 1.41703,-4.525722 l 2.33682,-3.575813 2.37683,-4.946359 1.7422,-0.71093 4.0586,-3.83204 0.87109,-2.48046 5.07813,-1.84766 3.04686,-1.98438 2.17574,0.35156 1.73828,-1.84375 0.50782,-2.6953 v 0 l -4.92966,0.5664 -3.4029,0.0159 -3.92523,0.33955 c 0,0 -2.52711,-5.26566 -2.52711,-5.45764 0,-0.19197 -0.20617,-2.86943 -0.20617,-2.86943 0,0 0.23982,-2.26939 0.43017,-2.54186 0.19035,-0.27248 0.42806,-0.45712 0.99842,-1.05295 0.57036,-0.59583 1.07406,-1.50093 1.73429,-1.63718 0.66024,-0.13625 2.47276,-1.62453 2.47276,-1.62453 0,0 1.48504,-0.27778 0.94532,-0.78125 -0.53972,-0.50347 -1.67188,-2.55469 -1.67188,-2.55469 l -1.30469,-1.91797 -2.98954,-4.78133 -3.08657,-4.88702 -1.33743,-0.64972 c 0,0 -1.41755,-1.68158 -1.53117,-1.73804 -0.11362,-0.0565 -0.94305,-1.53057 -1.01039,-1.63329 -0.0673,-0.10272 -0.92257,-2.22449 -0.92257,-2.22449 z"
     sodipodi:nodetypes="ccccsscccccsccscccsccccccccccccccsccccccscccccccccscccccccccccccscccccccccccccccccccsccccccccccccccccccccccccccccccccccccccccccccccccccccccccccccccccccccccccscccccccccccccccccccccccccccccccccccccccccccccccccccccccccccccccccccccccccccccsccccccccccccccccccccccccccscccccccccccccccccccccccccccccccccccccccccccssssccsccccccccccccccccccscccsccccsssccccscccccscsccssccccccccccccccccccccccccsccsccccscccccccsccccccccccccccccccccccccccccccccccccccccccscccccccccccccccscssscsccccccccc" />
  <path
     style="fill:#999999;fill-opacity:1;fill-rule:evenodd;stroke:none"
     d="m 36.265625,284.08203 -5.875,-0.0703 -0.871094,-0.0742 5.222657,0.0742 1.015624,-0.28516 c 0.242188,0 0.410157,0.0937 0.507813,0.28516 v 0.0703"
     id="path2" />
  <path
     style="fill:#3f3528;fill-opacity:1;fill-rule:evenodd;stroke:none"
     d="m 123.95313,284.29297 -0.50782,0.0703 -0.43359,-0.0703 h 0.94141 m -58.167974,-1.5586 -3.917968,0.70704 -19.726563,0.71093 0.07031,-0.14062 22.050781,-1.13672 1.523437,-0.14063 m -24.226562,1.41797 -0.07031,-0.14062 h 0.07031 v 0.14062"
     id="path10" />
  <path
     style="fill:#cccccc;fill-opacity:1;fill-rule:evenodd;stroke:none"
     d="m 40.90625,284.15234 -4.640625,-0.0703 v -0.0703 h 4.714844 l -0.07422,0.14062"
     id="path12" />
  <path
     style="fill:none;stroke:#000000;stroke-width:1px;stroke-linecap:butt;stroke-linejoin:miter;stroke-opacity:1"
     d="m 114.17456,62.320236 -2.9379,4.182213 -2.94519,3.985542 -2.35882,2.852684 -3.54703,4.155831 -2.27902,2.930938 -3.004855,4.210861 -2.719391,2.947052 -3.450256,3.657082 0.03992,-0.167564"
     id="path81601" />
  <path
     style="fill:none;stroke:#000000;stroke-width:1px;stroke-linecap:butt;stroke-linejoin:miter;stroke-opacity:1"
     d="m 91.554718,58.774925 -2.198761,3.593666 -5.90625,6.642891 -6.076691,6.513794 -5.995666,6.233704 -10.669953,9.628227 -9.766601,7.000816 -8.63913,6.501207 -6.484466,5.0249 -7.501221,5.67783 -6.843048,4.44576 -6.332581,5.24356 -4.456176,3.56015"
     id="path81603" />
  <path
     style="fill:none;stroke:#000000;stroke-width:1px;stroke-linecap:butt;stroke-linejoin:miter;stroke-opacity:1"
     d="m 23.01651,16.332777 3.577789,1.296633 c 0,0 -0.54483,-0.204302 1.691773,0.375 2.236602,0.579302 3.376587,0.832514 3.376587,0.832514 l 2.790588,-0.03631"
     id="path81720" />
  <path
     style="fill:none;stroke:#000000;stroke-width:1px;stroke-linecap:butt;stroke-linejoin:miter;stroke-opacity:1"
     d="m 66.092773,108.56882 2.98938,-0.1372 c 0,0 1.862824,-0.34783 2.906616,-0.46694 1.043793,-0.1191 5.00055,-1.12866 5.532227,-1.12866 0.531677,0 4.666351,-0.97626 4.666351,-0.97626 l 3.037445,-0.25 3.657166,-0.92418 h 1.028076"
     id="path81854" />
  <path
     style="fill:none;stroke:#000000;stroke-width:1px;stroke-linecap:butt;stroke-linejoin:miter;stroke-opacity:1"
     d="m 69.324356,173.91653 -2.451614,1.53553 c 0,0 -1.690125,1.61682 -2.034333,1.79748 -0.344207,0.18065 -2.407592,1.64702 -2.407592,1.64702 l -2.013489,1.61723 -1.683045,1.05801 -1.369629,2.30072 -0.120727,0.1996"
     id="path81856" />
  <path
     style="fill:none;stroke:#000000;stroke-width:1px;stroke-linecap:butt;stroke-linejoin:miter;stroke-opacity:1"
     d="m 15.891862,241.09182 5.54693,2.89092 5.105506,2.19372 7.114787,1.88697 5.127776,0.52703 5.424317,1.14335 5.440501,-0.51059 6.553125,0.26819 5.555777,0.17952 6.991613,-1.088"
     id="path81858" />
  <path
     style="fill:none;stroke:#000000;stroke-width:1px;stroke-linecap:butt;stroke-linejoin:miter;stroke-opacity:1"
     d="m 10.152619,171.50693 2.141605,4.88899 2.028831,5.17143 0.625408,3.69126 0.350101,3.87368"
     id="path81860" />
  <path
     style="fill:none;stroke:#000000;stroke-width:1px;stroke-linecap:butt;stroke-linejoin:miter;stroke-opacity:1"
     d="m 9.5980768,235.68714 1.8953862,3.37814 1.161047,0.88131"
     id="path81862" />
  <path
     style="fill:none;stroke:#000000;stroke-width:1px;stroke-linecap:butt;stroke-linejoin:miter;stroke-opacity:1"
     d="m 79.079906,219.09509 -1.83436,6.52652 -1.414213,3.9103 -1.862586,4.33442 -0.753373,3.41497 -0.149889,0.93857 v 0"
     id="path81996" />
  <path
     style="fill:none;stroke:#000000;stroke-width:1px;stroke-linecap:butt;stroke-linejoin:miter;stroke-opacity:1"
     d="m 85.413354,254.71851 4.19029,1.45664 4.128055,1.03842 2.859415,1.30025 3.381113,1.72234 2.283593,1.17853 3.21103,1.15215 3.50981,1.56995"
     id="path81998" />
  <path
     style="fill:none;stroke:#000000;stroke-width:1px;stroke-linecap:butt;stroke-linejoin:miter;stroke-opacity:1"
     d="m 145.12081,216.414 -4.82606,3.89562 -4.46007,4.66121 -5.81158,5.10309 -2.61048,3.59654 -4.94823,4.25841 v 0 l -3.42384,3.16826 -2.31795,3.20382 -1.82319,1.90824"
     id="path82000" />
  <path
     style="fill:none;stroke:#000000;stroke-width:1px;stroke-linecap:butt;stroke-linejoin:miter;stroke-opacity:1"
     d="m 154.61163,209.76166 -2.62726,3.48145 -1.94493,3.76239"
     id="path82002" />
  <path
     style="fill:none;stroke:#000000;stroke-width:1px;stroke-linecap:butt;stroke-linejoin:miter;stroke-opacity:1"
     d="m 155.12945,263.22397 -4.34381,3.98259 -4.52036,3.46713 -2.25766,1.09836 -1.12781,0.26974 v 0"
     id="path82004" />
  <path
     style="fill:none;stroke:#000000;stroke-width:1px;stroke-linecap:butt;stroke-linejoin:miter;stroke-opacity:1"
     d="m 79.495392,255.08184 3.795908,4.18242 3.264586,2.53175 1.269547,1.23992"
     id="path82006" />
  <path
     style="fill:none;stroke:#000000;stroke-width:1px;stroke-linecap:butt;stroke-linejoin:miter;stroke-opacity:1"
     d="m 116.03554,18.363354 -2.32954,1.055281 -2.02527,0.434529 -2.88378,0.811372 -2.9639,0.254807"
     id="path99092" />
  <path
     style="fill:none;stroke:#000000;stroke-width:1px;stroke-linecap:butt;stroke-linejoin:miter;stroke-opacity:1"
     d="m 45.753693,53.945553 c 0,0 4.277557,0.264396 4.871582,0.264396 0.594024,0 6.562469,-0.362594 6.562469,-0.362594 l 7.807617,-0.959137 c 0,0 4.544984,-0.0586 4.996827,-0.138218 0.451843,-0.07962 3.146423,-0.432766 3.146423,-0.432766 v 0"
     id="path81718" />
  <path
     style="fill:#000000;stroke:#000000;stroke-width:1px;stroke-linecap:butt;stroke-linejoin:miter;stroke-opacity:1;fill-opacity:1"
     d="m 62.430885,16.513231 0.272392,0.595296 0.544198,0.234118 c 0,0 0.537674,-0.03044 0.686416,-0.05885 0.148743,-0.02842 0.744499,-0.355471 0.744499,-0.355471 l 0.0818,-0.345046 c 0,0 0.166191,-0.170465 -0.125,-0.309313 -0.291191,-0.138848 0.206138,-0.230387 -0.662606,-0.263848 -0.868743,-0.03346 -1.119636,-0.09641 -1.119636,-0.09641 z"
     id="path82121" />
  <path
     style="fill:#000000;stroke:#000000;stroke-width:1px;stroke-linecap:butt;stroke-linejoin:miter;stroke-opacity:1;fill-opacity:1"
     d="m 62.667557,21.077091 -0.547707,0.318681 -0.0685,0.512275 0.0046,0.817284 c 0,0 0.346405,0.5256 0.638412,0.555833 0.292008,0.03023 0.857216,0.11882 1.008583,0.03023 0.151368,-0.08859 0.523972,-0.272065 0.523972,-0.272065 0,0 0.356232,-0.37956 0.387482,-0.584539 0.03125,-0.204979 -0.06208,-0.945604 -0.06208,-0.945604 l -0.316864,-0.469411 c 0,0 -0.283004,-0.350053 -0.564148,-0.350053 -0.281143,0 -0.487678,-0.05256 -0.747375,0.05819 -0.259697,0.110754 -0.256378,0.329173 -0.256378,0.329173 z"
     id="path82123" />
  <path
     style="fill:#000000;stroke:#000000;stroke-width:1px;stroke-linecap:butt;stroke-linejoin:miter;stroke-opacity:1;fill-opacity:1"
     d="m 62.015949,26.939928 -0.547707,0.318681 -0.0685,0.512275 0.0046,0.817284 c 0,0 0.346405,0.5256 0.638412,0.555833 0.292008,0.03023 0.857216,0.11882 1.008583,0.03023 0.151368,-0.08859 0.523972,-0.272065 0.523972,-0.272065 0,0 0.356232,-0.37956 0.387482,-0.584539 0.03125,-0.204979 -0.06208,-0.945604 -0.06208,-0.945604 l -0.316864,-0.469411 c 0,0 -0.283004,-0.350053 -0.564148,-0.350053 -0.281143,0 -0.487678,-0.05256 -0.747375,0.05819 -0.259697,0.110754 -0.256378,0.329173 -0.256378,0.329173 z"
     id="path82123-6" />
  <path
     style="fill:#000000;stroke:#000000;stroke-width:1px;stroke-linecap:butt;stroke-linejoin:miter;stroke-opacity:1;fill-opacity:1"
     d="m 61.922199,32.221178 -0.547707,0.318681 -0.0685,0.512275 0.0046,0.817284 c 0,0 0.346405,0.5256 0.638412,0.555833 0.292008,0.03023 0.857216,0.11882 1.008583,0.03023 0.151368,-0.08859 0.523972,-0.272065 0.523972,-0.272065 0,0 0.356232,-0.37956 0.387482,-0.584539 0.03125,-0.204979 -0.06208,-0.945604 -0.06208,-0.945604 l -0.316864,-0.469411 c 0,0 -0.283004,-0.350053 -0.564148,-0.350053 -0.281143,0 -0.487678,-0.05256 -0.747375,0.05819 -0.259697,0.110754 -0.256378,0.329173 -0.256378,0.329173 z"
     id="path82123-7" />
  <path
     style="fill:#000000;stroke:#000000;stroke-width:1px;stroke-linecap:butt;stroke-linejoin:miter;stroke-opacity:1;fill-opacity:1"
     d="m 61.765949,37.252428 -0.547707,0.318681 -0.0685,0.512275 0.0046,0.817284 c 0,0 0.346405,0.5256 0.638412,0.555833 0.292008,0.03023 0.857216,0.11882 1.008583,0.03023 0.151368,-0.08859 0.523972,-0.272065 0.523972,-0.272065 0,0 0.356232,-0.37956 0.387482,-0.584539 0.03125,-0.204979 -0.06208,-0.945604 -0.06208,-0.945604 l -0.316864,-0.469411 c 0,0 -0.283004,-0.350053 -0.564148,-0.350053 -0.281143,0 -0.487678,-0.05256 -0.747375,0.05819 -0.259697,0.110754 -0.256378,0.329173 -0.256378,0.329173 z"
     id="path82123-5" />
  <path
     style="fill:#000000;stroke:#000000;stroke-width:1px;stroke-linecap:butt;stroke-linejoin:miter;stroke-opacity:1;fill-opacity:1"
     d="m 61.609699,48.564928 -0.547707,0.318681 -0.0685,0.512275 0.0046,0.817284 c 0,0 0.346405,0.5256 0.638412,0.555833 0.292008,0.03023 0.857216,0.11882 1.008583,0.03023 0.151368,-0.08859 0.523972,-0.272065 0.523972,-0.272065 0,0 0.356232,-0.37956 0.387482,-0.584539 0.03125,-0.204979 -0.06208,-0.945604 -0.06208,-0.945604 l -0.316864,-0.469411 c 0,0 -0.283004,-0.350053 -0.564148,-0.350053 -0.281143,0 -0.487678,-0.05256 -0.747375,0.05819 -0.259697,0.110754 -0.256378,0.329173 -0.256378,0.329173 z"
     id="path82123-5-5" />
  <path
     style="fill:#000000;stroke:#000000;stroke-width:1px;stroke-linecap:butt;stroke-linejoin:miter;stroke-opacity:1;fill-opacity:1"
     d="m 61.859699,42.971178 -0.547707,0.318681 -0.0685,0.512275 0.0046,0.817284 c 0,0 0.346405,0.5256 0.638412,0.555833 0.292008,0.03023 0.857216,0.11882 1.008583,0.03023 0.151368,-0.08859 0.523972,-0.272065 0.523972,-0.272065 0,0 0.356232,-0.37956 0.387482,-0.584539 0.03125,-0.204979 -0.06208,-0.945604 -0.06208,-0.945604 l -0.316864,-0.469411 c 0,0 -0.283004,-0.350053 -0.564148,-0.350053 -0.281143,0 -0.487678,-0.05256 -0.747375,0.05819 -0.259697,0.110754 -0.256378,0.329173 -0.256378,0.329173 z"
     id="path82123-3" />
</svg>
