<?xml version="1.0" encoding="UTF-8"?>
<svg xmlns="http://www.w3.org/2000/svg" xmlns:xlink="http://www.w3.org/1999/xlink" width="160px" height="333px" viewBox="0 0 160 333" version="1.1">
<g id="surface1">
<path style=" stroke:none;fill-rule:evenodd;fill:rgb(20%,20%,20%);fill-opacity:1;" d="M 11.894531 73.96875 C 11.167969 72.832031 10.808594 70.964844 10.808594 68.363281 C 10.808594 65.003906 11.507812 60.652344 12.910156 55.304688 L 16.246094 42.675781 L 18.566406 29.6875 C 19.484375 24.722656 20.648438 20.605469 22.050781 17.339844 L 21.902344 17.128906 L 21.976562 17.058594 L 21.902344 16.347656 C 21.902344 12.847656 22.871094 7.902344 24.804688 1.515625 L 24.371094 1.234375 L 24.949219 0.949219 L 25.023438 0.738281 L 25.167969 0.738281 L 25.386719 0.878906 L 25.746094 0.878906 C 28.601562 0.878906 31.863281 1.730469 35.539062 3.433594 C 39.699219 5.371094 42.503906 6.460938 43.953125 6.699219 C 45.355469 6.933594 47.699219 7.832031 50.988281 9.394531 L 53.890625 10.8125 L 55.050781 11.59375 L 65.710938 12.089844 L 74.488281 11.878906 L 84.785156 10.8125 C 85.511719 10.765625 86.84375 10.339844 88.777344 9.535156 L 102.195312 7.195312 L 109.15625 4.78125 L 112.929688 1.800781 L 113.582031 1.871094 L 113.652344 2.226562 L 113.507812 2.367188 C 114.378906 3.410156 115.007812 4.664062 115.394531 6.128906 C 116.070312 7.5 116.457031 9.085938 116.554688 10.882812 L 116.917969 17.910156 L 116.917969 20.179688 L 116.773438 20.394531 L 117.0625 26.636719 C 117.109375 28.007812 117.304688 29.261719 117.644531 30.398438 L 118.222656 31.460938 L 119.457031 34.371094 C 120.472656 36.546875 121.511719 40.6875 122.574219 46.789062 C 125.089844 61.03125 126.5625 69.992188 127 73.683594 L 127 81.347656 C 127.628906 82.8125 128.425781 86.480469 129.390625 92.347656 L 131.132812 104.125 C 131.132812 105.640625 130.554688 107.035156 129.390625 108.3125 C 130.792969 115.457031 131.472656 120.566406 131.421875 123.640625 C 131.328125 127 131.421875 132.203125 131.714844 139.25 C 131.714844 140.148438 131.300781 141.546875 130.480469 143.4375 L 130.554688 143.367188 C 130.792969 143.367188 131.011719 146.914062 131.207031 154.011719 C 131.398438 161.582031 131.375 167.445312 131.132812 171.609375 C 130.84375 175.488281 131.132812 180.171875 132.003906 185.660156 L 134.253906 197.863281 L 134.757812 199.355469 C 135.292969 200.207031 135.800781 202.3125 136.28125 205.671875 C 137.152344 211.394531 138.410156 216.597656 140.054688 221.28125 L 140.125 221.421875 L 140.78125 223.199219 L 143.171875 235.472656 L 145.421875 247.609375 L 145.277344 247.75 L 146.074219 253.355469 L 147.308594 260.378906 L 149.628906 274.5 L 153.398438 294.796875 L 153.472656 294.796875 L 154.125 296.855469 C 154.125 297.46875 153.085938 298.460938 151.007812 299.835938 L 151.007812 299.90625 L 151.875 300.96875 C 150.714844 302.105469 149.53125 302.765625 148.324219 302.957031 L 148.03125 303.453125 L 102.703125 303.59375 L 100.960938 303.738281 L 100.960938 303.667969 L 100.527344 302.886719 L 101.324219 302.886719 L 101.105469 302.816406 L 96.101562 302.035156 C 95.230469 301.75 94.867188 301.0625 95.011719 299.976562 C 94.386719 299.597656 94.144531 298.960938 94.289062 298.058594 L 94.433594 293.589844 L 93.492188 278.476562 C 93.296875 275.730469 92.570312 270.667969 91.316406 263.289062 C 89.863281 255.246094 88.777344 250.1875 88.050781 248.105469 C 86.988281 245.265625 86.457031 240.25 86.457031 233.0625 L 86.238281 230.933594 L 86.164062 230.933594 L 86.164062 230.578125 L 86.238281 229.796875 L 86.238281 228.660156 L 85.222656 217.875 L 85.222656 217.734375 L 84.351562 216.527344 C 83.238281 214.964844 82.539062 213.59375 82.25 212.410156 C 81.714844 211.277344 81.425781 210.28125 81.378906 209.429688 L 81.378906 199.851562 C 80.410156 195.59375 79.925781 192.375 79.925781 190.199219 L 79.925781 174.660156 C 80.023438 172.296875 80.167969 170.6875 80.363281 169.835938 L 79.566406 168.34375 L 75.140625 158.269531 L 74.777344 157.132812 L 74.414062 156.351562 C 73.738281 154.886719 73.277344 151.789062 73.039062 147.058594 L 72.53125 153.015625 L 72.964844 153.160156 L 72.457031 153.371094 L 72.382812 154.011719 L 72.746094 154.011719 L 72.820312 154.222656 L 72.382812 154.507812 L 72.023438 157.628906 L 72.023438 157.699219 L 71.152344 167.210938 C 71.152344 171.183594 72.09375 178.230469 73.980469 188.355469 L 73.980469 188.496094 L 75.066406 194.175781 C 76.324219 200.464844 77.027344 208.957031 77.171875 219.648438 L 78.113281 220.714844 C 80.242188 222.605469 81.742188 224.78125 82.609375 227.242188 L 82.464844 227.242188 L 83.335938 229.15625 L 83.191406 229.15625 L 82.539062 229.300781 L 82.539062 234.339844 C 82.539062 239.351562 82.25 243.019531 81.667969 245.335938 L 79.78125 256.121094 L 76.519531 276.628906 L 76.589844 276.84375 L 75.140625 283.726562 C 74.171875 288.03125 73.691406 291.058594 73.691406 292.808594 L 74.050781 298.414062 L 73.980469 298.558594 L 74.125 299.835938 C 74.125 300.828125 73.570312 302.128906 72.457031 303.738281 L 72.167969 303.667969 L 72.167969 303.878906 L 70.714844 303.878906 L 67.015625 303.523438 L 34.960938 302.886719 L 29.59375 302.035156 L 18.929688 301.75 L 18.710938 301.113281 C 14.3125 297.988281 12.113281 296.050781 12.113281 295.292969 L 12.257812 294.65625 L 11.386719 293.378906 C 11.386719 292.902344 11.703125 291.746094 12.328125 289.898438 L 13.128906 287.769531 L 12.835938 287.558594 L 14.941406 276.703125 L 15.519531 262.296875 L 15.667969 262.296875 L 14.359375 254.632812 L 14.359375 220.925781 C 14.167969 219.980469 14.070312 218.089844 14.070312 215.25 L 14.214844 212.625 L 14.070312 212.625 L 15.8125 200.277344 L 15.8125 200.136719 C 15.8125 199.332031 16.199219 198.527344 16.972656 197.722656 C 17.070312 197.25 17.695312 196.609375 18.859375 195.804688 L 19.800781 195.238281 L 20.089844 195.097656 L 19.945312 195.027344 L 19.945312 194.246094 L 19.367188 184.097656 C 18.640625 178.328125 18.300781 174.707031 18.351562 173.242188 L 17.40625 158.125 L 17.335938 158.125 L 17.335938 157.699219 L 17.40625 157.699219 L 17.042969 151.597656 L 17.042969 148.617188 L 16.320312 148.121094 L 14.941406 146.632812 L 14.578125 146.277344 L 13.925781 145.355469 L 14 145.636719 L 13.34375 145.070312 L 13.492188 144.714844 L 13.128906 144.148438 L 12.257812 141.949219 C 11.582031 140.8125 11.242188 139.296875 11.242188 137.40625 C 12.304688 130.832031 12.691406 126.125 12.402344 123.285156 L 12.402344 109.234375 L 11.96875 81.132812 L 11.605469 77.585938 C 11.507812 76.214844 11.703125 75.339844 12.183594 74.960938 L 11.894531 73.96875 C 11.652344 72.972656 11.53125 71.746094 11.53125 70.277344 L 11.53125 69.425781 L 11.53125 70.277344 C 11.53125 71.746094 11.652344 72.972656 11.894531 73.96875 M 18.859375 33.945312 L 16.972656 43.242188 L 13.636719 55.589844 C 12.234375 60.933594 11.53125 65.191406 11.53125 68.363281 L 11.53125 69.425781 C 11.675781 66.164062 12.378906 62.09375 13.636719 57.222656 L 16.972656 44.589844 L 18.859375 33.945312 L 19.074219 33.023438 L 19.292969 31.605469 L 19.65625 29.832031 L 19.945312 28.410156 L 19.65625 29.832031 L 19.292969 31.605469 L 19.074219 33.023438 L 18.859375 33.945312 M 22.628906 17.980469 C 21.421875 22 20.574219 25.242188 20.089844 27.703125 L 19.800781 28.128906 L 19.945312 28.410156 C 20.71875 24.863281 21.664062 21.8125 22.773438 19.257812 L 22.628906 19.042969 L 22.703125 18.972656 L 22.628906 18.265625 L 22.628906 17.625 L 22.703125 16.914062 L 22.628906 17.625 L 22.628906 17.980469 M 25.3125 3.363281 C 23.621094 9.132812 22.726562 13.652344 22.628906 16.914062 L 22.703125 16.914062 C 22.894531 13.507812 23.839844 9.015625 25.53125 3.433594 L 25.3125 3.363281 L 25.09375 3.148438 L 25.386719 2.9375 L 25.09375 3.148438 L 25.3125 3.363281 M 113.652344 3.789062 L 113 2.652344 L 109.738281 5.347656 C 109.300781 5.820312 108.164062 6.273438 106.328125 6.699219 L 102.628906 7.761719 C 101.46875 8.519531 99.339844 9.109375 96.246094 9.535156 L 90.515625 10.175781 C 88.921875 10.929688 87.058594 11.378906 84.933594 11.523438 L 74.269531 12.730469 L 65.929688 12.871094 L 56.71875 12.585938 C 55.992188 12.445312 53.960938 11.59375 50.625 10.03125 C 46.804688 8.375 44.292969 7.476562 43.082031 7.335938 C 41.875 7.195312 39.164062 6.105469 34.960938 4.070312 L 31.839844 2.652344 L 25.53125 1.730469 L 25.53125 2.367188 L 25.386719 2.9375 L 25.675781 2.867188 L 25.746094 2.652344 L 25.894531 2.652344 L 26.109375 2.792969 L 26.472656 2.792969 C 29.324219 2.792969 32.589844 3.644531 36.265625 5.347656 C 40.421875 7.289062 43.226562 8.375 44.679688 8.613281 C 46.082031 8.851562 48.425781 9.75 51.714844 11.308594 L 54.613281 12.730469 L 55.773438 13.507812 L 66.4375 14.007812 L 75.214844 13.792969 L 85.511719 12.730469 C 86.238281 12.683594 87.566406 12.257812 89.5 11.453125 L 102.917969 9.109375 C 103.355469 8.828125 105.675781 8.023438 109.882812 6.699219 L 113.652344 3.789062 L 113.652344 3.71875 L 114.304688 3.789062 L 114.378906 4.144531 L 114.234375 4.285156 L 115.394531 6.128906 L 114.234375 4.285156 L 114.378906 4.144531 L 114.304688 3.789062 L 113.652344 3.71875 L 113.652344 3.789062 M 26.253906 4.285156 C 24.757812 9.488281 23.839844 13.722656 23.5 16.988281 L 23.425781 17.910156 L 23.355469 18.832031 C 25.675781 18.832031 29.375 19.992188 34.453125 22.308594 C 37.644531 23.398438 41.535156 24.296875 46.128906 25.003906 L 54.6875 26.28125 L 58.75 26.425781 L 63.390625 26.777344 L 65.347656 27.347656 L 65.785156 27.417969 L 65.855469 27.203125 L 66.148438 27.417969 L 66.871094 27.488281 L 68.394531 27.703125 L 68.394531 27.628906 L 68.46875 27.703125 L 69.992188 27.84375 L 70.425781 27.914062 L 73.835938 28.269531 L 74.777344 28.339844 L 74.996094 28.410156 L 75.140625 27.914062 L 75.503906 28.410156 L 86.816406 29.050781 C 95.90625 29.050781 102.484375 27.820312 106.546875 25.359375 L 110.027344 23.300781 L 110.898438 22.875 L 115.613281 20.25 L 116.121094 19.96875 L 116.191406 19.894531 L 116.121094 18.476562 L 115.902344 12.230469 C 115.902344 10.101562 115.46875 8.070312 114.597656 6.128906 L 113.726562 4.570312 C 112.613281 5.230469 111.527344 6.128906 110.460938 7.265625 C 110.027344 7.738281 108.890625 8.1875 107.054688 8.613281 L 103.355469 9.675781 C 102.195312 10.433594 100.066406 11.027344 96.972656 11.453125 L 91.242188 12.089844 C 89.644531 12.847656 87.785156 13.296875 85.65625 13.4375 L 74.996094 14.644531 L 66.65625 14.785156 L 57.441406 14.503906 C 56.71875 14.359375 54.6875 13.507812 51.351562 11.949219 C 47.53125 10.292969 45.015625 9.394531 43.808594 9.25 C 42.597656 9.109375 39.890625 8.023438 35.683594 5.988281 L 32.566406 4.570312 L 26.253906 3.644531 L 26.253906 4.285156 M 127.214844 160.46875 L 127.144531 159.828125 L 126.636719 155.5 C 126.203125 152.945312 125.984375 151.101562 125.984375 149.964844 L 125.984375 149.539062 L 125.039062 149.539062 L 125.332031 149.46875 L 125.984375 148.972656 L 127.289062 147.484375 L 127.214844 147.484375 L 127 146.417969 C 126.707031 144.855469 126.46875 142.351562 126.273438 138.894531 C 125.984375 134.921875 125.597656 132.0625 125.113281 130.308594 C 124.871094 129.507812 124.386719 126.738281 123.664062 122.007812 L 122.648438 113.917969 L 122.140625 114.34375 L 121.269531 115.125 L 120.90625 114.769531 L 122.066406 113.351562 L 122.648438 112.78125 L 125.621094 110.441406 L 126.054688 110.15625 L 125.984375 108.667969 L 125.839844 107.816406 L 125.695312 106.824219 L 124.96875 103.34375 L 124.96875 102.28125 L 124.894531 101.5 C 124.75 98.992188 124.507812 97.289062 124.171875 96.390625 L 123.734375 95.253906 L 121.339844 89.648438 L 120.617188 87.734375 C 119.890625 85.699219 119.527344 83.996094 119.527344 82.625 C 119.527344 82.386719 119.601562 82.222656 119.746094 82.128906 L 119.238281 75.246094 L 119.527344 70.347656 L 119.527344 69.355469 L 118.441406 59.703125 C 117.667969 53.082031 117.015625 48.753906 116.480469 46.71875 L 113 35.578125 L 112.855469 35.578125 C 110.195312 34.679688 108.699219 34.230469 108.359375 34.230469 L 94.941406 34.515625 L 75.503906 34.371094 L 75.285156 34.300781 C 74.945312 37.945312 74.320312 41.941406 73.398438 46.292969 C 72.964844 49.886719 72.191406 52.539062 71.078125 54.242188 L 71.007812 54.382812 L 71.078125 54.453125 L 71.152344 54.523438 L 71.441406 54.453125 L 72.3125 59.421875 L 72.675781 60.980469 C 73.109375 62.402344 73.714844 63.632812 74.488281 64.671875 L 78.695312 69.851562 L 83.554688 73.613281 L 85.367188 74.960938 C 82.03125 76.710938 79.03125 78.53125 76.375 80.425781 C 75.164062 81.277344 73.328125 83.144531 70.859375 86.03125 C 69.554688 87.542969 67.5 91.351562 64.695312 97.457031 L 64.550781 97.527344 L 64.117188 97.457031 L 64.117188 97.03125 L 63.898438 96.390625 L 63.753906 95.824219 L 63.753906 95.609375 L 63.101562 92.203125 L 63.101562 89.152344 L 63.246094 89.082031 L 63.390625 78.582031 L 63.390625 63.609375 L 63.390625 78.582031 L 63.246094 89.082031 L 63.101562 89.152344 L 63.101562 92.203125 L 63.753906 95.609375 L 63.753906 95.824219 L 63.898438 96.390625 L 64.042969 97.457031 L 65.277344 103.628906 C 67.597656 110.0625 68.878906 113.917969 69.121094 115.195312 C 70.523438 123.046875 71.441406 127.589844 71.875 128.820312 L 72.238281 129.8125 C 73.496094 133.21875 75.308594 137.453125 77.679688 142.515625 L 82.902344 154.292969 L 83.625 155.996094 L 83.625 157.347656 L 87.761719 165.863281 L 88.558594 167.492188 L 84.277344 173.667969 L 83.988281 174.023438 L 85.367188 176.152344 L 85.875 176.789062 L 85.949219 176.929688 L 86.527344 177.78125 L 86.457031 178.351562 L 86.601562 178.707031 L 86.671875 178.917969 L 86.671875 178.988281 C 87.496094 181.542969 88.898438 184.359375 90.878906 187.433594 L 91.824219 188.921875 L 89.140625 191.40625 C 88.269531 192.164062 87.710938 193.039062 87.46875 194.03125 C 86.695312 196.492188 86.261719 198.195312 86.164062 199.140625 C 85.828125 201.363281 85.65625 204.722656 85.65625 209.21875 C 85.65625 211.679688 86.019531 214.066406 86.746094 216.386719 L 86.960938 217.09375 L 86.960938 217.945312 C 87.976562 218.703125 89.210938 219.390625 90.660156 220.003906 L 90.589844 220.359375 L 94.578125 225.539062 L 99.582031 229.582031 L 101.105469 230.71875 C 98.640625 232.988281 97.070312 235.710938 96.390625 238.878906 C 96.003906 240.535156 95.8125 243.375 95.8125 247.394531 L 95.957031 264.070312 L 95.882812 267.546875 L 96.320312 269.960938 C 96.511719 271.238281 97.019531 273.011719 97.84375 275.28125 L 100.164062 281.03125 C 101.808594 284.910156 104.441406 288.597656 108.070312 292.101562 L 114.089844 297.5625 L 118.222656 300.332031 L 120.179688 300.828125 L 123.011719 301.539062 L 125.984375 302.390625 L 125.910156 302.742188 L 106.617188 302.742188 C 106.617188 302.460938 106.015625 302.339844 104.804688 302.390625 L 96.683594 301.464844 C 96.101562 301.371094 95.789062 300.96875 95.738281 300.261719 L 95.738281 299.410156 L 95.882812 294.867188 L 95.230469 285.640625 L 94.722656 279.683594 L 94.507812 279.609375 L 94.507812 277.625 L 93.199219 267.261719 C 91.507812 257.660156 90.179688 251.558594 89.210938 248.957031 L 88.050781 239.730469 C 88.148438 235.992188 88.027344 233.179688 87.6875 231.285156 L 87.6875 230.648438 C 87.6875 226.816406 87.277344 222.914062 86.457031 218.941406 C 87.566406 219.886719 88.800781 220.382812 90.152344 220.429688 L 90.445312 220.144531 L 90.589844 220.359375 L 90.445312 220.144531 L 90.152344 220.429688 C 88.800781 220.382812 87.566406 219.886719 86.457031 218.941406 C 87.277344 222.914062 87.6875 226.816406 87.6875 230.648438 L 87.6875 231.285156 C 88.027344 233.179688 88.148438 235.992188 88.050781 239.730469 L 89.210938 248.957031 C 90.179688 251.558594 91.507812 257.660156 93.199219 267.261719 L 94.507812 277.625 L 94.507812 279.609375 L 94.722656 279.683594 L 95.230469 285.640625 L 95.882812 294.867188 L 95.738281 299.410156 L 95.738281 300.261719 C 95.789062 300.96875 96.101562 301.371094 96.683594 301.464844 L 104.804688 302.390625 C 106.015625 302.339844 106.617188 302.460938 106.617188 302.742188 L 129.03125 302.742188 L 135.847656 302.816406 L 135.921875 302.816406 L 135.847656 302.742188 L 135.265625 302.601562 L 136.210938 301.539062 L 136.71875 300.898438 C 137.734375 299.527344 138.289062 298.484375 138.386719 297.777344 L 138.675781 292.667969 L 138.386719 283.371094 C 141.046875 272.160156 142.375 264.496094 142.375 260.378906 L 142.230469 254.207031 C 141.648438 251.414062 141.359375 249.453125 141.359375 248.316406 L 141.503906 247.324219 L 141.796875 247.253906 L 142.375 250.234375 L 142.449219 250.164062 L 142.011719 246.757812 L 141.503906 241.929688 L 140.707031 239.660156 L 140.488281 239.660156 C 138.605469 239.660156 136.042969 236.042969 132.800781 228.804688 L 132.875 228.730469 L 133.382812 228.660156 C 135.800781 228.660156 137.394531 229.179688 138.167969 230.222656 L 138.386719 230.648438 L 138.457031 230.648438 L 138.53125 230.507812 L 138.53125 230.433594 L 135.628906 217.519531 L 133.816406 212.199219 L 130.769531 205.101562 L 126.128906 194.457031 C 125.789062 194.222656 125.574219 193.628906 125.476562 192.683594 L 125.402344 192.472656 L 125.257812 190.699219 L 125.257812 184.878906 C 125.355469 180.761719 125.644531 177.6875 126.128906 175.652344 C 126.902344 172.34375 127.289062 168.652344 127.289062 164.585938 L 127.289062 162.101562 L 127.214844 160.46875 M 128.304688 109.234375 L 128.378906 109.234375 L 128.886719 108.738281 L 130.625 123.996094 L 130.988281 137.902344 L 130.988281 139.25 L 130.046875 142.445312 L 129.464844 143.722656 L 128.8125 144.929688 L 127.578125 147.058594 L 127.578125 146.558594 L 127.507812 145.636719 L 127.433594 144.289062 L 125.765625 129.53125 L 123.15625 113.492188 L 128.304688 109.234375 L 123.15625 113.492188 L 125.765625 129.53125 L 127.433594 144.289062 L 127.507812 145.636719 L 127.578125 146.558594 L 127.578125 147.058594 L 128.8125 144.929688 L 129.464844 143.722656 L 130.046875 142.445312 L 130.988281 139.25 L 130.988281 137.902344 L 130.625 123.996094 L 128.886719 108.738281 L 128.378906 109.234375 L 128.304688 109.234375 M 65.277344 32.3125 L 65.277344 31.886719 L 65.492188 31.320312 L 66.21875 28.410156 L 69.847656 28.480469 L 70.5 28.410156 L 70.5 28.339844 L 73.761719 28.625 L 74.777344 28.765625 L 74.851562 28.765625 L 74.707031 29.191406 L 74.414062 32.101562 L 74.414062 34.015625 L 74.632812 34.015625 L 74.414062 34.089844 L 74.632812 34.015625 L 74.414062 34.015625 L 74.414062 32.101562 L 74.707031 29.191406 L 74.851562 28.765625 L 74.777344 28.765625 L 73.761719 28.625 L 70.5 28.339844 L 70.5 28.410156 L 69.847656 28.480469 L 66.21875 28.410156 L 65.492188 31.320312 L 65.277344 31.886719 L 65.277344 32.3125 L 64.695312 36.144531 L 63.898438 41.183594 L 63.898438 41.253906 L 64.1875 41.183594 L 65.855469 45.371094 L 65.929688 45.511719 L 66.582031 47.285156 L 66.726562 47.925781 C 67.113281 49.628906 67.984375 51.046875 69.339844 52.183594 L 69.992188 52.679688 L 70.859375 53.246094 C 71.585938 52.253906 72.046875 51.140625 72.238281 49.914062 L 72.820312 45.511719 L 73.691406 39.125 L 73.90625 36.785156 L 74.125 36.144531 L 74.414062 34.089844 L 73.398438 34.230469 L 72.09375 34.230469 L 67.308594 33.308594 L 66.21875 33.238281 C 65.785156 33.1875 65.46875 32.882812 65.277344 32.3125 M 119.457031 34.371094 L 118.949219 33.378906 C 118.367188 32.480469 117.933594 31.484375 117.644531 30.398438 C 117.933594 31.484375 118.367188 32.480469 118.949219 33.378906 L 119.457031 34.371094 M 70.425781 53.816406 L 69.847656 54.3125 C 68.832031 55.210938 67.402344 56.890625 65.566406 59.351562 L 63.390625 62.332031 L 63.390625 44.589844 L 63.824219 41.679688 L 63.824219 41.253906 L 63.898438 41.253906 L 63.824219 41.253906 L 63.824219 41.679688 L 63.390625 44.589844 L 63.390625 62.332031 L 65.566406 59.351562 C 67.402344 56.890625 68.832031 55.210938 69.847656 54.3125 L 70.425781 53.816406 L 70.425781 53.742188 L 70.355469 53.742188 L 70.425781 53.816406 M 53.019531 36.359375 L 53.164062 35.578125 L 53.308594 35.578125 L 53.671875 37.917969 L 53.746094 37.777344 L 53.746094 37.496094 L 54.105469 37.421875 L 56.066406 39.550781 C 57.324219 40.972656 58.675781 41.679688 60.125 41.679688 L 62.085938 41.042969 L 63.027344 40.617188 L 63.171875 40.546875 L 63.316406 39.339844 L 63.898438 34.796875 L 64.042969 34.089844 L 64.332031 32.242188 L 63.316406 32.242188 C 62.351562 32.148438 61.480469 31.886719 60.707031 31.460938 L 57.441406 29.757812 C 53.332031 28.105469 45.910156 27.277344 35.175781 27.277344 C 28.550781 27.277344 23.789062 28.339844 20.886719 30.46875 L 20.671875 30.328125 L 20.597656 30.46875 L 20.234375 32.597656 L 17.695312 45.15625 L 14.359375 57.503906 C 12.957031 62.851562 12.257812 67.109375 12.257812 70.277344 C 12.257812 71.601562 12.328125 72.714844 12.476562 73.613281 C 12.621094 74.371094 12.8125 74.9375 13.054688 75.316406 L 17.769531 79.644531 L 19.003906 80.636719 L 19.945312 81.347656 L 19.945312 81.703125 L 19.65625 81.773438 L 19.4375 81.207031 L 19.367188 81.773438 L 19.074219 81.773438 C 17.816406 81.441406 16.101562 80.023438 13.925781 77.515625 C 16.101562 80.023438 17.816406 81.441406 19.074219 81.773438 L 19.367188 81.773438 L 19.4375 81.207031 L 19.65625 81.773438 L 19.800781 83.832031 C 19.800781 91.824219 19.21875 99.277344 18.058594 106.183594 L 14.433594 128.394531 L 14.289062 128.535156 L 13.925781 128.179688 L 13.925781 128.605469 L 13.417969 133.503906 C 12.933594 135.585938 12.691406 137.523438 12.691406 139.320312 L 12.984375 141.449219 C 13.417969 143.390625 14.554688 145.164062 16.390625 146.773438 L 17.042969 147.269531 L 17.480469 147.625 L 18.785156 148.476562 L 31.914062 149.613281 L 42.648438 151.03125 L 45.984375 151.527344 L 49.539062 152.308594 L 52.367188 152.167969 L 54.832031 152.519531 L 61.648438 152.589844 L 61.722656 151.457031 L 61.722656 150.675781 L 61.796875 145.210938 L 61.796875 144.574219 L 61.867188 144.359375 L 66 132.863281 L 66.292969 131.800781 L 66.363281 131.660156 L 66.4375 131.375 L 66.4375 131.160156 L 67.453125 126.976562 L 68.324219 123.710938 L 68.902344 121.371094 L 69.121094 121.371094 L 68.902344 121.371094 L 68.324219 123.710938 L 67.453125 126.976562 L 66.4375 131.160156 L 66.4375 131.375 L 66.363281 131.660156 L 66.292969 131.800781 L 66 131.800781 L 65.855469 131.445312 L 65.421875 130.382812 C 60.246094 117.5625 56.332031 108.429688 53.671875 102.992188 C 51.929688 99.441406 47.964844 89.816406 41.777344 74.109375 L 41.847656 74.039062 L 41.339844 72.832031 L 40.328125 70.5625 L 39.601562 68.644531 L 39.601562 68.574219 C 39.117188 67.109375 38.875 65.640625 38.875 64.175781 C 38.875 62.332031 39.480469 59.988281 40.6875 57.148438 L 43.878906 49.984375 C 46.007812 44.449219 48.8125 40.121094 52.292969 36.996094 L 53.019531 36.359375 L 53.089844 36.289062 L 53.453125 36.714844 L 53.164062 37.140625 L 52.945312 37.28125 L 52.945312 38.132812 C 52.945312 39.835938 53.792969 45.582031 55.484375 55.375 L 58.457031 71.625 L 61.433594 88.585938 C 62.304688 93.742188 63.222656 98.210938 64.1875 101.996094 L 64.117188 102.210938 C 64.117188 103.820312 64.769531 106.421875 66.074219 110.015625 L 67.816406 114.414062 L 68.46875 115.976562 L 69.484375 121.226562 L 68.46875 115.976562 L 67.816406 114.414062 L 66.074219 110.015625 C 64.769531 106.421875 64.117188 103.820312 64.117188 102.210938 L 64.1875 101.996094 C 63.222656 98.210938 62.304688 93.742188 61.433594 88.585938 L 58.457031 71.625 L 55.484375 55.375 C 53.792969 45.582031 52.945312 39.835938 52.945312 38.132812 L 52.945312 37.28125 L 53.164062 37.140625 L 53.453125 36.714844 L 53.089844 36.289062 L 53.019531 36.359375 M 69.773438 122.789062 L 69.628906 121.9375 L 69.484375 121.226562 L 69.121094 121.371094 C 69.3125 121.417969 69.410156 121.605469 69.410156 121.9375 L 69.410156 122.859375 C 69.121094 123.097656 68.976562 123.851562 68.976562 125.128906 L 69.121094 125.199219 C 68.636719 127.707031 67.671875 130.710938 66.21875 134.214844 C 63.945312 139.652344 62.714844 143.957031 62.519531 147.128906 L 62.304688 150.675781 L 62.304688 151.527344 L 62.304688 150.675781 L 62.519531 147.128906 C 62.714844 143.957031 63.945312 139.652344 66.21875 134.214844 C 67.671875 130.710938 68.636719 127.707031 69.121094 125.199219 L 68.976562 125.128906 C 68.976562 123.851562 69.121094 123.097656 69.410156 122.859375 L 69.773438 122.789062 L 69.847656 122.789062 L 70.355469 123.425781 L 70.5 124.207031 L 70.570312 125.414062 L 70.5 124.207031 L 70.355469 123.425781 L 69.847656 122.789062 L 69.773438 122.789062 M 70.5 125.910156 L 70.5 125.839844 L 70.570312 125.414062 L 70.5 125.910156 L 71.515625 129.601562 L 72.3125 131.660156 L 72.964844 133.289062 L 72.3125 131.660156 L 71.515625 129.601562 L 70.5 125.910156 M 73.039062 133.574219 L 72.964844 133.289062 L 72.53125 133.503906 L 73.039062 133.574219 L 73.691406 135.136719 L 73.039062 133.574219 M 73.691406 135.492188 L 73.835938 135.492188 L 73.691406 135.136719 L 73.691406 135.492188 L 73.253906 135.417969 L 73.253906 137.40625 L 72.964844 144.855469 L 73.253906 137.40625 L 73.253906 135.417969 L 73.691406 135.492188 M 72.09375 152.308594 L 72.675781 148.261719 L 72.964844 144.855469 L 72.820312 138.683594 L 71.804688 151.101562 L 72.238281 151.242188 L 71.730469 151.457031 L 71.660156 152.09375 L 72.023438 152.09375 L 72.09375 152.308594 L 72.023438 152.945312 L 71.585938 152.945312 L 71.007812 152.875 L 71.585938 152.945312 L 72.023438 152.945312 L 72.09375 152.308594 M 70.570312 152.875 L 71.007812 152.875 L 71.007812 152.734375 L 70.570312 152.875 L 68.105469 152.734375 L 70.570312 152.875 M 62.304688 151.527344 L 62.230469 152.589844 L 68.105469 152.734375 L 71.152344 152.09375 L 71.222656 151.527344 L 67.742188 151.597656 L 62.304688 151.527344 M 13.5625 77.730469 L 13.199219 79.21875 L 13.417969 85.390625 L 13.851562 93.90625 L 13.851562 125.554688 L 13.925781 127.046875 L 13.78125 127.613281 L 13.925781 128.179688 L 13.78125 127.613281 L 13.925781 127.046875 L 13.851562 125.554688 L 13.851562 93.90625 L 13.417969 85.390625 L 13.199219 79.21875 L 13.5625 77.730469 L 13.925781 77.515625 L 13.5625 77.089844 L 13.5625 77.730469 M 70.789062 55.589844 L 70.714844 55.730469 L 70.789062 55.730469 L 70.789062 55.589844 M 63.390625 63.609375 L 63.464844 63.609375 L 63.390625 63.609375 M 23.355469 19.894531 L 23.425781 19.613281 L 23.355469 19.542969 L 23.355469 19.894531 M 12.183594 74.960938 L 12.765625 76.097656 L 12.835938 76.167969 L 12.765625 76.097656 L 12.183594 74.960938 M 12.476562 77.515625 L 12.910156 76.878906 L 13.054688 76.453125 L 12.835938 76.167969 L 12.476562 77.304688 L 12.476562 77.515625 L 12.328125 79.503906 L 12.691406 82.910156 L 12.691406 83.476562 L 12.765625 84.894531 L 12.765625 85.535156 L 13.128906 104.976562 L 13.128906 125.273438 L 13.128906 104.976562 L 12.765625 85.535156 L 12.765625 84.894531 L 12.691406 83.476562 L 12.691406 82.910156 L 12.328125 79.503906 L 12.476562 77.515625 M 13.199219 126.335938 L 13.128906 125.273438 L 13.054688 125.699219 L 13.199219 126.265625 L 12.691406 131.585938 C 12.210938 133.667969 11.96875 135.609375 11.96875 137.40625 L 12.113281 138.753906 C 12.933594 133.265625 13.296875 129.128906 13.199219 126.335938 M 12.257812 141.949219 L 11.96875 139.320312 L 12.113281 138.753906 L 11.96875 139.320312 L 12.257812 141.949219 M 17.042969 148.617188 L 17.550781 148.832031 L 17.042969 148.617188 M 17.769531 151.882812 L 17.769531 148.902344 L 17.550781 148.832031 L 17.769531 151.882812 L 17.769531 153.515625 L 18.132812 159.617188 L 18.058594 159.617188 L 18.058594 160.042969 L 18.132812 160.042969 L 19.074219 175.15625 C 19.027344 176.625 19.367188 180.242188 20.089844 186.015625 L 20.671875 193.535156 L 20.671875 195.949219 L 20.671875 193.535156 L 20.089844 186.015625 C 19.367188 180.242188 19.027344 176.625 19.074219 175.15625 L 18.132812 160.042969 L 18.058594 160.042969 L 18.058594 159.617188 L 18.132812 159.617188 L 17.769531 153.515625 L 17.769531 151.882812 M 20.671875 196.230469 L 20.671875 195.949219 L 18.640625 197.367188 L 17.84375 197.933594 L 17.40625 198.21875 L 17.335938 198.289062 L 17.042969 198.859375 C 16.707031 199.519531 16.535156 200.253906 16.535156 201.058594 L 16.390625 201.128906 L 14.796875 212.625 L 14.722656 212.625 L 14.867188 214.113281 L 16.535156 202.191406 L 16.535156 202.050781 C 16.535156 201.246094 16.921875 200.441406 17.695312 199.636719 C 17.792969 199.164062 18.421875 198.527344 19.582031 197.722656 L 20.527344 197.15625 L 20.816406 197.011719 L 20.671875 196.941406 L 20.671875 196.230469 M 16.246094 264.78125 L 16.246094 264.210938 L 16.390625 264.210938 L 15.085938 256.546875 L 15.085938 222.84375 L 14.796875 217.164062 L 14.941406 214.539062 L 14.796875 214.539062 L 14.867188 214.113281 L 14.796875 214.539062 L 14.941406 214.539062 L 14.796875 217.164062 L 15.085938 222.84375 L 15.085938 256.546875 L 16.390625 264.210938 L 16.246094 264.210938 L 16.246094 264.78125 L 16.175781 264.78125 L 16.027344 264 L 16.175781 266.765625 L 16.246094 264.78125 M 15.8125 275.425781 L 16.175781 266.765625 L 15.8125 275.425781 L 13.5625 288.195312 L 13.492188 288.125 L 11.75 293.378906 L 12.328125 294.15625 L 13.054688 291.816406 L 13.851562 289.6875 L 13.5625 289.472656 L 15.667969 278.617188 L 15.8125 275.425781 M 12.257812 294.65625 L 12.328125 294.15625 L 12.257812 294.65625 M 18.203125 149.113281 L 18.929688 159.546875 L 20.164062 159.476562 L 34.523438 160.824219 L 36.554688 160.253906 L 38.585938 159.902344 L 39.527344 159.6875 L 45.546875 158.835938 L 55.339844 157.203125 L 70.789062 154.222656 L 71.515625 154.082031 L 71.875 154.011719 L 71.949219 153.441406 L 71.515625 153.515625 L 64.550781 153.515625 L 62.664062 153.441406 L 62.085938 153.371094 L 61.648438 153.441406 L 61.648438 153.371094 L 43.808594 151.953125 L 18.203125 149.113281 M 62.375 88.300781 L 62.304688 88.300781 L 62.375 88.65625 L 62.375 88.300781 M 73.039062 147.058594 L 73.542969 140.597656 L 73.542969 141.949219 C 73.640625 149.421875 74.050781 154.484375 74.777344 157.132812 C 74.050781 154.484375 73.640625 149.421875 73.542969 141.949219 L 73.542969 140.597656 L 73.039062 147.058594 M 80.941406 172.886719 C 80.992188 172.035156 81.089844 171.46875 81.234375 171.183594 L 80.941406 170.757812 L 80.941406 172.886719 L 80.652344 176.578125 L 80.652344 192.117188 C 80.652344 194.292969 81.136719 197.507812 82.101562 201.765625 L 82.175781 208.722656 L 82.101562 201.765625 C 81.136719 197.507812 80.652344 194.292969 80.652344 192.117188 L 80.652344 176.578125 L 80.941406 172.886719 M 82.175781 209.503906 L 82.175781 208.722656 L 82.101562 209.148438 L 82.175781 209.503906 L 82.101562 211.347656 L 82.25 212.410156 L 82.101562 211.347656 L 82.175781 209.503906 M 80.363281 169.835938 L 80.941406 170.757812 L 80.363281 169.835938 M 71.441406 154.792969 L 70.644531 154.933594 L 56.9375 157.699219 L 42.066406 160.253906 L 39.527344 160.679688 L 36.335938 161.179688 L 39.457031 161.816406 L 57.296875 162.953125 L 61.070312 163.589844 L 69.699219 164.015625 L 70.425781 164.160156 L 70.570312 161.957031 L 71.007812 159.261719 L 71.007812 159.050781 L 71.078125 158.550781 L 71.730469 154.648438 L 71.441406 154.792969 M 69.992188 170.402344 C 63.800781 170.261719 56.910156 170.921875 49.320312 172.390625 L 37.644531 174.09375 C 29.277344 175.417969 23.378906 176.503906 19.945312 177.355469 L 20.527344 184.238281 L 20.597656 184.808594 L 20.671875 185.445312 L 20.742188 186.9375 L 25.3125 185.234375 L 26.402344 185.019531 L 48.957031 184.808594 L 51.0625 184.523438 L 54.253906 184.453125 L 54.253906 184.3125 L 55.628906 184.3125 C 55.824219 184.074219 56.257812 183.789062 56.9375 183.460938 L 57.082031 183.386719 L 59.835938 182.820312 L 67.597656 182.535156 L 72.238281 182.679688 L 71.875 180.761719 C 71.199219 176.789062 70.765625 173.335938 70.570312 170.402344 L 69.992188 170.402344 M 69.699219 164.726562 L 67.015625 164.796875 L 59.765625 164.230469 L 56.71875 163.589844 L 38.511719 162.382812 L 31.476562 161.105469 L 18.929688 160.113281 L 19.800781 172.246094 L 19.875 174.800781 L 19.875 175.300781 L 19.945312 176.859375 C 39.578125 172.367188 55.121094 170.117188 66.582031 170.117188 L 69.992188 170.191406 L 70.570312 170.261719 L 70.425781 167.210938 L 70.425781 164.65625 L 69.699219 164.726562 M 62.085938 183.460938 C 61.070312 183.742188 60.367188 183.742188 59.980469 183.460938 L 58.675781 183.601562 L 57.804688 183.957031 C 57.5625 184.050781 57.347656 184.167969 57.152344 184.3125 L 59.472656 184.167969 L 58.605469 184.453125 C 61.070312 184.738281 63.125 185.351562 64.769531 186.296875 L 67.742188 187.433594 L 71.222656 187.929688 L 72.820312 188.070312 L 73.183594 188.144531 L 72.3125 183.175781 L 62.304688 183.386719 L 62.085938 183.460938 M 71.515625 188.78125 C 68.417969 188.214844 65.832031 187.480469 63.753906 186.582031 C 62.640625 186.0625 60.683594 185.636719 57.878906 185.304688 L 56.71875 185.164062 L 55.265625 185.234375 L 52.65625 185.019531 L 49.101562 185.515625 L 26.910156 185.871094 C 26.761719 186.0625 26.449219 186.15625 25.964844 186.15625 L 25.53125 186.085938 L 20.816406 187.433594 L 21.324219 194.246094 L 21.394531 195.453125 L 21.394531 196.160156 L 22.992188 196.160156 L 28.285156 196.800781 L 34.378906 197.296875 L 49.390625 197.4375 L 53.597656 197.367188 L 56.9375 196.871094 L 62.664062 196.375 L 65.132812 196.515625 L 65.421875 196.515625 L 65.710938 196.585938 L 65.855469 196.585938 L 66.4375 196.375 L 66.4375 196.515625 L 68.324219 196.445312 L 71.007812 196.019531 L 74.125 196.089844 L 74.558594 196.160156 L 74.269531 194.246094 L 73.328125 188.78125 L 71.515625 188.78125 M 54.46875 198.007812 L 54.6875 197.722656 L 54.832031 198.007812 L 57.371094 197.507812 C 59.691406 196.847656 62.277344 196.585938 65.132812 196.730469 L 65.785156 196.800781 L 65.929688 200.347656 L 65.929688 201.554688 L 65.640625 206.664062 L 65.492188 208.722656 L 65.566406 209.289062 L 65.566406 209.644531 L 62.957031 207.019531 L 60.632812 204.25 L 59.039062 202.40625 L 58.386719 201.765625 C 58.289062 201.765625 58.167969 201.839844 58.023438 201.980469 C 58.167969 201.839844 58.289062 201.765625 58.386719 201.765625 L 59.039062 202.40625 L 60.632812 204.25 L 62.957031 207.019531 L 65.566406 209.644531 L 65.566406 209.289062 L 65.492188 208.722656 L 65.640625 206.664062 L 65.929688 201.554688 L 65.929688 200.347656 L 65.785156 196.800781 L 65.132812 196.730469 C 62.277344 196.585938 59.691406 196.847656 57.371094 197.507812 L 54.832031 198.007812 L 54.6875 197.722656 L 54.46875 198.007812 L 53.816406 198.078125 L 49.539062 198.21875 L 36.917969 198.148438 L 36.265625 198.148438 L 36.554688 198.289062 L 36.988281 198.21875 L 36.628906 198.359375 L 36.554688 198.714844 L 35.902344 198.714844 L 34.8125 199.355469 L 33.796875 200.0625 C 33.121094 200.394531 32.566406 200.9375 32.128906 201.695312 L 29.59375 204.960938 C 26.738281 208.554688 25.191406 210.730469 24.949219 211.488281 C 22.917969 217.164062 21.6875 221.445312 21.25 224.332031 C 19.074219 236.867188 17.9375 245.550781 17.84375 250.375 L 17.695312 250.445312 L 18.785156 261.800781 C 19.367188 264.828125 19.65625 269.039062 19.65625 274.429688 C 19.65625 278.453125 19.292969 282.308594 18.566406 285.996094 L 17.40625 292.667969 L 17.625 294.300781 C 17.914062 295.386719 18.496094 296.59375 19.367188 297.917969 L 20.378906 299.480469 L 20.671875 299.90625 L 21.179688 300.828125 L 30.753906 301.539062 L 48.378906 302.316406 L 58.675781 302.742188 L 58.675781 300.613281 L 59.183594 297.988281 L 66.4375 250.234375 L 66.726562 247.890625 L 67.308594 243.277344 L 67.742188 239.730469 L 67.742188 239.660156 L 67.671875 239.660156 L 67.523438 239.589844 L 67.523438 237.816406 L 67.816406 236.324219 L 68.976562 227.382812 L 68.976562 226.886719 L 68.832031 227.242188 L 68.683594 227.3125 L 68.25 227.242188 L 68.105469 226.886719 L 62.882812 215.179688 L 59.039062 205.742188 L 58.023438 202.691406 L 57.949219 202.691406 C 55.535156 201.648438 54.324219 200.417969 54.324219 199 L 54.324219 198.859375 L 54.46875 198.007812 M 74.269531 196.941406 L 74.707031 196.941406 L 76.226562 207.800781 L 76.375 215.035156 L 76.375 216.03125 L 76.519531 220.003906 C 73.761719 216.976562 71.296875 214.539062 69.121094 212.695312 L 68.613281 212.269531 L 66.074219 210.070312 L 66.21875 209.925781 L 66.292969 209.003906 L 66.65625 201.128906 L 66.4375 196.800781 L 68.902344 197.082031 L 74.199219 196.941406 L 74.269531 196.941406 L 74.199219 196.941406 L 68.902344 197.082031 L 66.4375 196.800781 L 66.65625 201.128906 L 66.292969 209.003906 L 66.21875 209.925781 L 66.074219 210.070312 L 68.613281 212.269531 L 69.121094 212.695312 C 71.296875 214.539062 73.761719 216.976562 76.519531 220.003906 L 76.375 216.03125 L 76.375 215.035156 L 76.226562 207.800781 L 74.707031 196.941406 L 74.269531 196.941406 M 58.167969 202.121094 L 58.457031 202.476562 L 58.75 202.972656 L 58.75 203.042969 C 60.585938 205.457031 63.558594 208.625 67.671875 212.554688 L 68.832031 213.617188 L 69.554688 214.328125 L 69.847656 214.609375 L 69.410156 216.03125 C 69.167969 217.164062 69.046875 218.464844 69.046875 219.933594 L 69.046875 225.894531 L 68.976562 226.746094 L 68.976562 226.886719 L 68.976562 226.746094 L 69.046875 225.894531 L 69.046875 219.933594 C 69.046875 218.464844 69.167969 217.164062 69.410156 216.03125 L 69.847656 214.609375 L 69.554688 214.328125 L 68.832031 213.617188 L 67.671875 212.554688 C 63.558594 208.625 60.585938 205.457031 58.75 203.042969 L 58.75 202.972656 L 58.457031 202.476562 L 58.167969 202.121094 L 58.023438 201.980469 L 58.023438 202.050781 L 58.167969 202.121094 M 70.5 215.25 L 70.355469 215.109375 L 70.355469 215.390625 L 70.5 215.25 L 78.113281 222.914062 L 80.796875 226.390625 L 81.523438 227.527344 L 81.8125 234.265625 L 81.8125 234.480469 C 81.8125 239.304688 81.523438 242.878906 80.941406 245.195312 C 80.460938 246.945312 79.832031 250.515625 79.058594 255.910156 L 75.722656 276.558594 C 74.078125 284.554688 73.183594 289.757812 73.039062 292.171875 L 72.964844 292.808594 L 73.328125 298.558594 L 73.472656 299.691406 L 73.472656 299.761719 C 73.519531 299.667969 73.59375 299.621094 73.691406 299.621094 L 73.617188 299.410156 L 73.472656 299.691406 L 73.328125 298.558594 L 72.964844 292.808594 L 73.039062 292.171875 C 73.183594 289.757812 74.078125 284.554688 75.722656 276.558594 L 79.058594 255.910156 C 79.832031 250.515625 80.460938 246.945312 80.941406 245.195312 C 81.523438 242.878906 81.8125 239.304688 81.8125 234.480469 L 81.8125 234.265625 L 81.523438 227.527344 L 80.796875 226.390625 L 78.113281 222.914062 L 70.5 215.25 M 77.171875 219.648438 L 77.171875 220.785156 L 77.390625 220.996094 L 78.839844 222.628906 C 80.386719 224 81.59375 225.539062 82.464844 227.242188 C 81.59375 225.539062 80.386719 224 78.839844 222.628906 L 77.390625 220.996094 L 77.171875 220.785156 L 77.171875 219.648438 M 86.09375 218.796875 L 86.09375 218.65625 L 86.019531 218.585938 L 86.09375 218.796875 L 85.949219 219.792969 L 86.960938 230.578125 L 86.960938 231.710938 L 86.890625 232.492188 L 86.890625 232.847656 L 86.960938 232.847656 L 87.179688 234.976562 C 87.179688 242.167969 87.710938 247.183594 88.777344 250.019531 C 89.5 252.101562 90.589844 257.164062 92.039062 265.207031 L 93.78125 276.347656 L 92.039062 265.207031 C 90.589844 257.164062 89.5 252.101562 88.777344 250.019531 C 87.710938 247.183594 87.179688 242.167969 87.179688 234.976562 L 86.960938 232.847656 L 86.890625 232.847656 L 86.890625 232.492188 L 86.960938 231.710938 L 86.960938 230.578125 L 85.949219 219.792969 L 86.09375 218.796875 M 94 277.765625 L 93.78125 276.347656 L 93.78125 277.695312 L 94 277.765625 L 94.214844 280.390625 L 95.160156 295.007812 L 94.214844 280.390625 L 94 277.765625 M 95.085938 298.699219 L 95.160156 295.503906 L 95.160156 295.007812 L 95.011719 297.492188 C 94.964844 297.964844 94.988281 298.367188 95.085938 298.699219 L 95.011719 299.976562 L 95.085938 298.699219 M 85.222656 217.734375 L 86.019531 218.585938 L 85.222656 217.734375 M 18.566406 199.851562 L 19.367188 199.285156 L 22.628906 197.011719 L 27.707031 197.722656 L 31.839844 198.007812 L 27.707031 197.722656 L 22.628906 197.011719 L 19.367188 199.285156 L 18.566406 199.851562 M 31.839844 198.007812 L 31.914062 198.078125 L 32.566406 198.078125 L 31.839844 198.007812 M 16.753906 266.765625 L 16.898438 266.695312 L 16.753906 265.914062 L 16.753906 266.765625 M 71.007812 303.027344 L 59.472656 302.742188 L 59.691406 301.464844 L 59.765625 300.898438 C 65.613281 264.1875 68.539062 243.300781 68.539062 238.242188 L 68.46875 237.601562 L 70.355469 215.390625 L 68.46875 237.601562 L 68.539062 238.242188 C 68.539062 243.300781 65.613281 264.1875 59.765625 300.898438 L 59.691406 301.464844 L 59.472656 302.742188 L 71.007812 303.027344 L 70.933594 303.167969 L 71.007812 303.167969 L 71.007812 303.027344 M 72.3125 303.027344 L 72.3125 303.097656 L 71.007812 303.167969 L 72.3125 303.097656 L 72.3125 303.027344 L 72.746094 302.460938 L 72.675781 302.246094 L 72.675781 301.820312 L 72.3125 303.027344 M 95.738281 271.519531 L 95.8125 271.519531 L 95.738281 271.167969 L 95.738281 271.519531 M 138.53125 230.507812 L 139.039062 232.988281 L 139.980469 237.035156 L 140.199219 237.746094 L 140.417969 238.738281 L 141.140625 239.234375 L 141.140625 239.589844 L 140.707031 239.660156 L 141.140625 239.589844 L 141.140625 239.234375 L 140.417969 238.738281 L 140.199219 237.746094 L 139.980469 237.035156 L 139.039062 232.988281 L 138.53125 230.507812 M 134.757812 199.355469 L 134.46875 199.070312 L 134.253906 197.863281 L 134.46875 199.070312 L 134.757812 199.355469 M 142.449219 250.164062 L 144.914062 266.199219 L 145.421875 272.371094 C 145.566406 274.878906 145.882812 276.914062 146.363281 278.476562 C 147.089844 280.792969 148.007812 284.53125 149.121094 289.6875 L 149.046875 289.972656 L 149.847656 297.351562 L 149.917969 298.34375 L 150.0625 299.125 L 150.136719 299.90625 L 150.355469 299.550781 L 150.425781 299.691406 L 151.152344 300.898438 L 148.976562 301.890625 L 147.453125 302.816406 L 135.921875 302.816406 L 147.453125 302.816406 L 148.976562 301.890625 L 151.152344 300.898438 L 150.425781 299.691406 L 150.355469 299.550781 L 150.136719 299.90625 L 150.0625 299.125 L 149.917969 298.34375 L 149.847656 297.351562 L 149.046875 289.972656 L 149.121094 289.6875 C 148.007812 284.53125 147.089844 280.792969 146.363281 278.476562 C 145.882812 276.914062 145.566406 274.878906 145.421875 272.371094 L 144.914062 266.199219 L 142.449219 250.164062 M 150.859375 299.621094 L 150.570312 299.265625 L 150.714844 299.480469 L 150.789062 299.621094 L 150.859375 299.621094 "/>
<path style=" stroke:none;fill-rule:evenodd;fill:rgb(0%,0%,0%);fill-opacity:1;" d="M 22.703125 16.914062 L 22.628906 16.914062 C 22.726562 13.652344 23.621094 9.132812 25.3125 3.363281 L 25.53125 3.433594 C 23.839844 9.015625 22.894531 13.507812 22.703125 16.914062 M 25.386719 2.9375 L 25.53125 2.367188 L 25.53125 1.730469 L 31.839844 2.652344 L 34.960938 4.070312 C 39.164062 6.105469 41.875 7.195312 43.082031 7.335938 C 44.292969 7.476562 46.804688 8.375 50.625 10.03125 C 53.960938 11.59375 55.992188 12.445312 56.71875 12.585938 L 65.929688 12.871094 L 74.269531 12.730469 L 84.933594 11.523438 C 87.058594 11.378906 88.921875 10.929688 90.515625 10.175781 L 96.246094 9.535156 C 99.339844 9.109375 101.46875 8.519531 102.628906 7.761719 L 106.328125 6.699219 C 108.164062 6.273438 109.300781 5.820312 109.738281 5.347656 L 113 2.652344 L 113.652344 3.789062 L 109.882812 6.699219 C 105.675781 8.023438 103.355469 8.828125 102.917969 9.109375 L 89.5 11.453125 C 87.566406 12.257812 86.238281 12.683594 85.511719 12.730469 L 75.214844 13.792969 L 66.4375 14.007812 L 55.773438 13.507812 L 54.613281 12.730469 L 51.714844 11.308594 C 48.425781 9.75 46.082031 8.851562 44.679688 8.613281 C 43.226562 8.375 40.421875 7.289062 36.265625 5.347656 C 32.589844 3.644531 29.324219 2.792969 26.472656 2.792969 L 26.109375 2.792969 L 25.894531 2.652344 L 25.746094 2.652344 L 25.675781 2.867188 L 25.386719 2.9375 M 26.253906 4.285156 L 26.253906 3.644531 L 32.566406 4.570312 L 35.683594 5.988281 C 39.890625 8.023438 42.597656 9.109375 43.808594 9.25 C 45.015625 9.394531 47.53125 10.292969 51.351562 11.949219 C 54.6875 13.507812 56.71875 14.359375 57.441406 14.503906 L 66.65625 14.785156 L 74.996094 14.644531 L 85.65625 13.4375 C 87.785156 13.296875 89.644531 12.847656 91.242188 12.089844 L 96.972656 11.453125 C 100.066406 11.027344 102.195312 10.433594 103.355469 9.675781 L 107.054688 8.613281 C 108.890625 8.1875 110.027344 7.738281 110.460938 7.265625 C 111.527344 6.128906 112.613281 5.230469 113.726562 4.570312 L 114.597656 6.128906 C 115.46875 8.070312 115.902344 10.101562 115.902344 12.230469 L 116.121094 18.476562 L 116.191406 19.894531 L 116.121094 19.96875 L 115.613281 20.25 L 110.898438 22.875 L 110.027344 23.300781 L 106.546875 25.359375 C 102.484375 27.820312 95.90625 29.050781 86.816406 29.050781 L 75.503906 28.410156 L 75.140625 27.914062 L 74.996094 28.410156 L 74.777344 28.339844 L 73.835938 28.269531 L 70.425781 27.914062 L 69.992188 27.84375 L 68.46875 27.703125 L 68.394531 27.628906 L 68.394531 27.703125 L 66.871094 27.488281 L 66.148438 27.417969 L 65.855469 27.203125 L 65.785156 27.417969 L 65.347656 27.347656 L 63.390625 26.777344 L 58.75 26.425781 L 54.6875 26.28125 L 46.128906 25.003906 C 41.535156 24.296875 37.644531 23.398438 34.453125 22.308594 C 29.375 19.992188 25.675781 18.832031 23.355469 18.832031 L 23.425781 17.910156 L 23.5 16.988281 C 23.839844 13.722656 24.757812 9.488281 26.253906 4.285156 "/>
<path style=" stroke:none;fill-rule:evenodd;fill:rgb(100%,40.000001%,0%);fill-opacity:1;" d="M 19.945312 28.410156 L 19.800781 28.128906 L 20.089844 27.703125 C 20.574219 25.242188 21.421875 22 22.628906 17.980469 L 22.628906 18.265625 L 22.703125 18.972656 L 22.628906 19.042969 L 22.773438 19.257812 C 21.664062 21.8125 20.71875 24.863281 19.945312 28.410156 M 113 35.578125 L 112.855469 35.578125 L 113 35.578125 M 71.152344 54.523438 L 71.367188 54.3125 L 71.441406 54.453125 L 71.152344 54.523438 M 141.503906 247.324219 L 141.578125 247.039062 L 141.722656 246.828125 L 141.796875 247.253906 L 141.503906 247.324219 M 132.800781 228.804688 L 132.730469 228.730469 L 132.875 228.730469 L 132.800781 228.804688 M 69.484375 121.226562 L 69.628906 121.9375 L 69.773438 122.789062 L 69.410156 122.859375 L 69.410156 121.9375 C 69.410156 121.605469 69.3125 121.417969 69.121094 121.371094 L 69.484375 121.226562 M 70.570312 125.414062 L 70.5 125.839844 L 70.5 125.910156 L 70.570312 125.414062 M 72.964844 133.289062 L 73.039062 133.574219 L 72.53125 133.503906 L 72.964844 133.289062 M 73.691406 135.136719 L 73.835938 135.492188 L 73.691406 135.492188 L 73.691406 135.136719 M 72.964844 144.855469 L 72.675781 148.261719 L 72.09375 152.308594 L 72.023438 152.09375 L 71.660156 152.09375 L 71.730469 151.457031 L 72.238281 151.242188 L 71.804688 151.101562 L 72.820312 138.683594 L 72.964844 144.855469 M 71.007812 152.875 L 70.570312 152.875 L 71.007812 152.734375 L 71.007812 152.875 M 68.105469 152.734375 L 62.230469 152.589844 L 62.304688 151.527344 L 67.742188 151.597656 L 71.222656 151.527344 L 71.152344 152.09375 L 68.105469 152.734375 M 13.5625 77.730469 L 13.5625 77.089844 L 13.925781 77.515625 L 13.5625 77.730469 M 23.355469 19.894531 L 23.355469 19.542969 L 23.425781 19.613281 L 23.355469 19.894531 M 12.835938 76.167969 L 13.054688 76.453125 L 12.910156 76.878906 L 12.476562 77.515625 L 12.476562 77.304688 L 12.835938 76.167969 M 13.128906 125.273438 L 13.199219 126.335938 L 13.199219 126.265625 L 13.054688 125.699219 L 13.128906 125.273438 M 41.777344 74.039062 L 41.847656 74.039062 L 41.777344 74.109375 L 41.777344 74.039062 M 20.671875 195.949219 L 20.671875 196.230469 L 20.597656 196.304688 L 20.527344 197.15625 L 19.582031 197.722656 C 18.421875 198.527344 17.792969 199.164062 17.695312 199.636719 C 16.921875 200.441406 16.535156 201.246094 16.535156 202.050781 L 16.535156 202.191406 L 14.867188 214.113281 L 14.722656 212.625 L 14.796875 212.625 L 16.390625 201.128906 L 16.535156 201.058594 C 16.535156 200.253906 16.707031 199.519531 17.042969 198.859375 L 17.40625 198.21875 L 17.84375 197.933594 L 18.640625 197.367188 L 20.671875 195.949219 M 16.246094 264.78125 L 16.175781 266.765625 L 16.027344 264 L 16.175781 264.78125 L 16.246094 264.78125 M 15.8125 275.425781 L 15.667969 278.617188 L 13.5625 289.472656 L 13.851562 289.6875 L 13.054688 291.816406 L 12.328125 294.15625 L 11.75 293.378906 L 13.492188 288.125 L 13.5625 288.195312 L 15.8125 275.425781 M 62.375 88.300781 L 62.375 88.65625 L 62.304688 88.300781 L 62.375 88.300781 M 80.941406 170.757812 L 81.234375 171.183594 C 81.089844 171.46875 80.992188 172.035156 80.941406 172.886719 L 80.941406 170.757812 M 82.175781 208.722656 L 82.175781 209.503906 L 82.101562 209.148438 L 82.175781 208.722656 M 70.355469 215.390625 L 70.355469 215.109375 L 70.5 215.25 L 70.355469 215.390625 M 86.019531 218.585938 L 86.09375 218.65625 L 86.09375 218.796875 L 86.019531 218.585938 M 93.78125 276.347656 L 94 277.765625 L 93.78125 277.695312 L 93.78125 276.347656 M 95.160156 295.007812 L 95.160156 295.503906 L 95.085938 298.699219 C 94.988281 298.367188 94.964844 297.964844 95.011719 297.492188 L 95.160156 295.007812 M 16.753906 266.765625 L 16.753906 265.914062 L 16.898438 266.695312 L 16.753906 266.765625 M 71.007812 303.027344 L 71.007812 303.167969 L 70.933594 303.167969 L 71.007812 303.027344 M 150.859375 299.621094 L 150.789062 299.621094 L 150.714844 299.480469 L 150.570312 299.265625 L 150.859375 299.621094 "/>
<path style=" stroke:none;fill-rule:evenodd;fill:rgb(100%,60.000002%,0%);fill-opacity:1;" d="M 19.800781 195.238281 L 19.875 194.386719 L 19.945312 194.316406 L 19.945312 195.027344 L 20.089844 195.097656 L 19.800781 195.238281 M 14.578125 146.277344 L 14 145.636719 L 13.925781 145.355469 L 14.578125 146.277344 M 11.53125 69.425781 L 11.53125 68.363281 C 11.53125 65.191406 12.234375 60.933594 13.636719 55.589844 L 16.972656 43.242188 L 18.859375 33.945312 L 16.972656 44.589844 L 13.636719 57.222656 C 12.378906 62.09375 11.675781 66.164062 11.53125 69.425781 M 64.117188 97.457031 L 64.042969 97.457031 L 63.898438 96.390625 L 64.117188 97.03125 L 64.117188 97.457031 M 125.984375 302.390625 L 125.984375 302.742188 L 125.910156 302.742188 L 125.984375 302.390625 M 135.847656 302.816406 L 135.847656 302.742188 L 135.921875 302.816406 L 135.847656 302.816406 M 141.722656 246.828125 L 142.011719 246.757812 L 142.449219 250.164062 L 142.375 250.234375 L 141.796875 247.253906 L 141.722656 246.828125 M 64.1875 41.183594 L 63.898438 41.253906 L 63.898438 41.183594 L 64.1875 41.183594 M 70.425781 53.816406 L 70.355469 53.742188 L 70.425781 53.742188 L 70.425781 53.816406 M 13.925781 128.605469 L 13.925781 128.179688 L 14.289062 128.535156 L 13.925781 128.605469 M 20.597656 30.46875 L 20.671875 30.328125 L 20.886719 30.46875 L 20.597656 30.46875 M 70.789062 55.589844 L 70.789062 55.730469 L 70.714844 55.730469 L 70.789062 55.589844 M 63.390625 63.609375 L 63.464844 63.609375 L 63.390625 63.609375 M 13.199219 126.335938 C 13.296875 129.128906 12.933594 133.265625 12.113281 138.753906 L 11.96875 137.40625 C 11.96875 135.609375 12.210938 133.667969 12.691406 131.585938 L 13.199219 126.265625 L 13.199219 126.335938 M 41.777344 74.039062 L 41.847656 74.039062 L 41.777344 74.039062 M 20.671875 196.230469 L 20.671875 196.941406 L 20.816406 197.011719 L 20.527344 197.15625 L 20.597656 196.304688 L 20.671875 196.230469 M 61.214844 169.550781 L 61.140625 169.339844 L 61.214844 169.339844 L 61.214844 169.550781 M 68.683594 227.3125 L 68.832031 227.242188 L 68.976562 226.886719 L 68.976562 227.382812 L 68.683594 227.3125 M 58.167969 202.121094 L 58.023438 202.050781 L 58.023438 201.980469 L 58.167969 202.121094 M 36.988281 198.21875 L 36.554688 198.289062 L 36.265625 198.148438 L 36.917969 198.148438 L 36.988281 198.21875 M 31.839844 198.007812 L 32.566406 198.078125 L 31.914062 198.078125 L 31.839844 198.007812 M 95.738281 271.519531 L 95.738281 271.167969 L 95.8125 271.519531 L 95.738281 271.519531 "/>
<path style=" stroke:none;fill-rule:evenodd;fill:rgb(100%,100%,100%);fill-opacity:1;" d="M 17.550781 148.832031 L 17.769531 148.902344 L 17.769531 151.882812 L 17.550781 148.832031 M 18.203125 149.113281 L 43.808594 151.953125 L 61.648438 153.371094 L 61.648438 153.441406 L 62.085938 153.371094 L 62.664062 153.441406 L 64.550781 153.515625 L 71.515625 153.515625 L 71.949219 153.441406 L 71.875 154.011719 L 71.515625 154.082031 L 70.789062 154.222656 L 55.339844 157.203125 L 45.546875 158.835938 L 39.527344 159.6875 L 38.585938 159.902344 L 36.554688 160.253906 L 34.523438 160.824219 L 20.164062 159.476562 L 18.929688 159.546875 L 18.203125 149.113281 M 71.441406 154.792969 L 71.730469 154.648438 L 71.078125 158.550781 L 71.007812 159.050781 L 71.007812 159.261719 L 70.570312 161.957031 L 70.425781 164.160156 L 69.699219 164.015625 L 61.070312 163.589844 L 57.296875 162.953125 L 39.457031 161.816406 L 36.335938 161.179688 L 39.527344 160.679688 L 42.066406 160.253906 L 56.9375 157.699219 L 70.644531 154.933594 L 71.441406 154.792969 M 61.214844 169.550781 L 61.214844 169.339844 L 61.140625 169.339844 L 61.214844 169.550781 M 69.699219 164.726562 L 70.425781 164.65625 L 70.425781 167.210938 L 70.570312 170.261719 L 69.992188 170.191406 L 66.582031 170.117188 C 55.121094 170.117188 39.578125 172.367188 19.945312 176.859375 L 19.875 175.300781 L 19.875 174.800781 L 19.800781 172.246094 L 18.929688 160.113281 L 31.476562 161.105469 L 38.511719 162.382812 L 56.71875 163.589844 L 59.765625 164.230469 L 67.015625 164.796875 L 69.699219 164.726562 M 69.992188 170.402344 L 70.570312 170.402344 C 70.765625 173.335938 71.199219 176.789062 71.875 180.761719 L 72.238281 182.679688 L 67.597656 182.535156 L 59.835938 182.820312 L 57.082031 183.386719 L 56.9375 183.460938 C 56.257812 183.789062 55.824219 184.074219 55.628906 184.3125 L 54.253906 184.3125 L 54.253906 184.453125 L 51.0625 184.523438 L 48.957031 184.808594 L 26.402344 185.019531 L 25.3125 185.234375 L 20.742188 186.9375 L 20.671875 185.445312 L 20.597656 184.808594 L 20.527344 184.238281 L 19.945312 177.355469 C 23.378906 176.503906 29.277344 175.417969 37.644531 174.09375 L 49.320312 172.390625 C 56.910156 170.921875 63.800781 170.261719 69.992188 170.402344 M 62.085938 183.460938 L 62.304688 183.386719 L 72.3125 183.175781 L 73.183594 188.144531 L 72.820312 188.070312 L 71.222656 187.929688 L 67.742188 187.433594 L 64.769531 186.296875 C 63.125 185.351562 61.070312 184.738281 58.605469 184.453125 L 59.472656 184.167969 L 57.152344 184.3125 C 57.347656 184.167969 57.5625 184.050781 57.804688 183.957031 L 58.675781 183.601562 L 59.980469 183.460938 C 60.367188 183.742188 61.070312 183.742188 62.085938 183.460938 M 71.515625 188.78125 L 73.328125 188.78125 L 74.269531 194.246094 L 74.558594 196.160156 L 74.125 196.089844 L 71.007812 196.019531 L 68.324219 196.445312 L 66.4375 196.515625 L 66.4375 196.375 L 65.855469 196.585938 L 65.710938 196.585938 L 65.421875 196.515625 L 65.132812 196.515625 L 62.664062 196.375 L 56.9375 196.871094 L 53.597656 197.367188 L 49.390625 197.4375 L 34.378906 197.296875 L 28.285156 196.800781 L 22.992188 196.160156 L 21.394531 196.160156 L 21.394531 195.453125 L 21.324219 194.246094 L 20.816406 187.433594 L 25.53125 186.085938 L 25.964844 186.15625 C 26.449219 186.15625 26.761719 186.0625 26.910156 185.871094 L 49.101562 185.515625 L 52.65625 185.019531 L 55.265625 185.234375 L 56.71875 185.164062 L 57.878906 185.304688 C 60.683594 185.636719 62.640625 186.0625 63.753906 186.582031 C 65.832031 187.480469 68.417969 188.214844 71.515625 188.78125 "/>
<path style=" stroke:none;fill-rule:evenodd;fill:rgb(40.000001%,40.000001%,40.000001%);fill-opacity:1;" d="M 113 35.578125 L 116.480469 46.71875 C 117.015625 48.753906 117.667969 53.082031 118.441406 59.703125 L 119.527344 69.355469 L 119.527344 70.347656 L 119.238281 75.246094 L 119.746094 82.128906 C 119.601562 82.222656 119.527344 82.386719 119.527344 82.625 C 119.527344 83.996094 119.890625 85.699219 120.617188 87.734375 L 121.339844 89.648438 L 123.734375 95.253906 L 124.171875 96.390625 C 124.507812 97.289062 124.75 98.992188 124.894531 101.5 L 124.96875 102.28125 L 124.96875 103.34375 L 125.695312 106.824219 L 125.839844 107.816406 L 125.984375 108.667969 L 126.054688 110.15625 L 125.621094 110.441406 L 122.648438 112.78125 L 122.066406 113.351562 L 120.90625 114.769531 L 121.269531 115.125 L 122.140625 114.34375 L 122.648438 113.917969 L 123.664062 122.007812 C 124.386719 126.738281 124.871094 129.507812 125.113281 130.308594 C 125.597656 132.0625 125.984375 134.921875 126.273438 138.894531 C 126.46875 142.351562 126.707031 144.855469 127 146.417969 L 127.214844 147.484375 L 127.289062 147.484375 L 125.984375 148.972656 L 125.332031 149.46875 L 125.039062 149.539062 L 125.984375 149.539062 L 125.984375 149.964844 C 125.984375 151.101562 126.203125 152.945312 126.636719 155.5 L 127.144531 159.828125 L 127.214844 160.46875 L 127.289062 162.101562 L 127.289062 164.585938 C 127.289062 168.652344 126.902344 172.34375 126.128906 175.652344 C 125.644531 177.6875 125.355469 180.761719 125.257812 184.878906 L 125.257812 190.699219 L 125.402344 192.472656 L 125.476562 192.683594 C 125.574219 193.628906 125.789062 194.222656 126.128906 194.457031 L 130.769531 205.101562 L 133.816406 212.199219 L 135.628906 217.519531 L 138.53125 230.433594 L 138.53125 230.507812 L 138.457031 230.648438 L 138.386719 230.648438 L 138.167969 230.222656 C 137.394531 229.179688 135.800781 228.660156 133.382812 228.660156 L 132.875 228.730469 L 132.730469 228.730469 L 132.800781 228.804688 C 136.042969 236.042969 138.605469 239.660156 140.488281 239.660156 L 140.707031 239.660156 L 141.503906 241.929688 L 142.011719 246.757812 L 141.722656 246.828125 L 141.578125 247.039062 L 141.503906 247.324219 L 141.359375 248.316406 C 141.359375 249.453125 141.648438 251.414062 142.230469 254.207031 L 142.375 260.378906 C 142.375 264.496094 141.046875 272.160156 138.386719 283.371094 L 138.675781 292.667969 L 138.386719 297.777344 C 138.289062 298.484375 137.734375 299.527344 136.71875 300.898438 L 136.210938 301.539062 L 135.265625 302.601562 L 135.847656 302.742188 L 135.847656 302.816406 L 129.03125 302.742188 L 125.984375 302.742188 L 125.984375 302.390625 L 123.011719 301.539062 L 120.179688 300.828125 L 118.222656 300.332031 L 114.089844 297.5625 L 108.070312 292.101562 C 104.441406 288.597656 101.808594 284.910156 100.164062 281.03125 L 97.84375 275.28125 C 97.019531 273.011719 96.511719 271.238281 96.320312 269.960938 L 95.882812 267.546875 L 95.957031 264.070312 L 95.8125 247.394531 C 95.8125 243.375 96.003906 240.535156 96.390625 238.878906 C 97.070312 235.710938 98.640625 232.988281 101.105469 230.71875 L 99.582031 229.582031 L 94.578125 225.539062 L 90.589844 220.359375 L 90.660156 220.003906 C 89.210938 219.390625 87.976562 218.703125 86.960938 217.945312 L 86.960938 217.09375 L 86.746094 216.386719 C 86.019531 214.066406 85.65625 211.679688 85.65625 209.21875 C 85.65625 204.722656 85.828125 201.363281 86.164062 199.140625 C 86.261719 198.195312 86.695312 196.492188 87.46875 194.03125 C 87.710938 193.039062 88.269531 192.164062 89.140625 191.40625 L 91.824219 188.921875 L 90.878906 187.433594 C 88.898438 184.359375 87.496094 181.542969 86.671875 178.988281 L 86.671875 178.917969 L 86.601562 178.707031 L 86.457031 178.351562 L 86.527344 177.78125 L 85.949219 176.929688 L 85.875 176.789062 L 85.367188 176.152344 L 83.988281 174.023438 L 84.277344 173.667969 L 88.558594 167.492188 L 87.761719 165.863281 L 83.625 157.347656 L 83.625 155.996094 L 82.902344 154.292969 L 77.679688 142.515625 C 75.308594 137.453125 73.496094 133.21875 72.238281 129.8125 L 71.875 128.820312 C 71.441406 127.589844 70.523438 123.046875 69.121094 115.195312 C 68.878906 113.917969 67.597656 110.0625 65.277344 103.628906 L 64.042969 97.457031 L 64.117188 97.457031 L 64.550781 97.527344 L 64.695312 97.457031 C 67.5 91.351562 69.554688 87.542969 70.859375 86.03125 C 73.328125 83.144531 75.164062 81.277344 76.375 80.425781 C 79.03125 78.53125 82.03125 76.710938 85.367188 74.960938 L 83.554688 73.613281 L 78.695312 69.851562 L 74.488281 64.671875 C 73.714844 63.632812 73.109375 62.402344 72.675781 60.980469 L 72.3125 59.421875 L 71.441406 54.453125 L 71.367188 54.3125 L 71.152344 54.523438 L 71.078125 54.453125 L 71.007812 54.382812 L 71.078125 54.242188 C 72.191406 52.539062 72.964844 49.886719 73.398438 46.292969 C 74.320312 41.941406 74.945312 37.945312 75.285156 34.300781 L 75.503906 34.371094 L 94.941406 34.515625 L 108.359375 34.230469 C 108.699219 34.230469 110.195312 34.679688 112.855469 35.578125 L 113 35.578125 M 65.277344 32.3125 C 65.46875 32.882812 65.785156 33.1875 66.21875 33.238281 L 67.308594 33.308594 L 72.09375 34.230469 L 73.398438 34.230469 L 74.414062 34.089844 L 74.125 36.144531 L 73.90625 36.785156 L 73.691406 39.125 L 72.820312 45.511719 L 72.238281 49.914062 C 72.046875 51.140625 71.585938 52.253906 70.859375 53.246094 L 69.992188 52.679688 L 69.339844 52.183594 C 67.984375 51.046875 67.113281 49.628906 66.726562 47.925781 L 66.582031 47.285156 L 65.929688 45.511719 L 65.855469 45.371094 L 64.1875 41.183594 L 63.898438 41.183594 L 64.695312 36.144531 L 65.277344 32.3125 M 20.886719 30.46875 C 23.789062 28.339844 28.550781 27.277344 35.175781 27.277344 C 45.910156 27.277344 53.332031 28.105469 57.441406 29.757812 L 60.707031 31.460938 C 61.480469 31.886719 62.351562 32.148438 63.316406 32.242188 L 64.332031 32.242188 L 64.042969 34.089844 L 63.898438 34.796875 L 63.316406 39.339844 L 63.171875 40.546875 L 63.027344 40.617188 L 62.085938 41.042969 L 60.125 41.679688 C 58.675781 41.679688 57.324219 40.972656 56.066406 39.550781 L 54.105469 37.421875 L 53.746094 37.496094 L 53.746094 37.777344 L 53.671875 37.917969 L 53.308594 35.578125 L 53.164062 35.578125 L 53.019531 36.359375 L 52.292969 36.996094 C 48.8125 40.121094 46.007812 44.449219 43.878906 49.984375 L 40.6875 57.148438 C 39.480469 59.988281 38.875 62.332031 38.875 64.175781 C 38.875 65.640625 39.117188 67.109375 39.601562 68.574219 L 39.601562 68.644531 L 40.328125 70.5625 L 41.339844 72.832031 L 41.847656 74.039062 L 41.777344 74.039062 L 41.777344 74.109375 C 47.964844 89.816406 51.929688 99.441406 53.671875 102.992188 C 56.332031 108.429688 60.246094 117.5625 65.421875 130.382812 L 65.855469 131.445312 L 66 131.800781 L 66.292969 131.800781 L 66 132.863281 L 61.867188 144.359375 L 61.796875 144.574219 L 61.796875 145.210938 L 61.722656 150.675781 L 61.722656 151.457031 L 61.648438 152.589844 L 54.832031 152.519531 L 52.367188 152.167969 L 49.539062 152.308594 L 45.984375 151.527344 L 42.648438 151.03125 L 31.914062 149.613281 L 18.785156 148.476562 L 17.480469 147.625 L 17.042969 147.269531 L 16.390625 146.773438 C 14.554688 145.164062 13.417969 143.390625 12.984375 141.449219 L 12.691406 139.320312 C 12.691406 137.523438 12.933594 135.585938 13.417969 133.503906 L 13.925781 128.605469 L 14.289062 128.535156 L 14.433594 128.394531 L 18.058594 106.183594 C 19.21875 99.277344 19.800781 91.824219 19.800781 83.832031 L 19.65625 81.773438 L 19.945312 81.703125 L 19.945312 81.347656 L 19.003906 80.636719 L 17.769531 79.644531 L 13.054688 75.316406 C 12.8125 74.9375 12.621094 74.371094 12.476562 73.613281 C 12.328125 72.714844 12.257812 71.601562 12.257812 70.277344 C 12.257812 67.109375 12.957031 62.851562 14.359375 57.503906 L 17.695312 45.15625 L 20.234375 32.597656 L 20.597656 30.46875 L 20.886719 30.46875 M 54.46875 198.007812 L 54.324219 198.859375 L 54.324219 199 C 54.324219 200.417969 55.535156 201.648438 57.949219 202.691406 L 58.023438 202.691406 L 59.039062 205.742188 L 62.882812 215.179688 L 68.105469 226.886719 L 68.25 227.242188 L 68.683594 227.3125 L 68.976562 227.382812 L 67.816406 236.324219 L 67.523438 237.816406 L 67.523438 239.589844 L 67.671875 239.660156 L 67.742188 239.660156 L 67.742188 239.730469 L 67.308594 243.277344 L 66.726562 247.890625 L 66.4375 250.234375 L 59.183594 297.988281 L 58.675781 300.613281 L 58.675781 302.742188 L 48.378906 302.316406 L 30.753906 301.539062 L 21.179688 300.828125 L 20.671875 299.90625 L 20.378906 299.480469 L 19.367188 297.917969 C 18.496094 296.59375 17.914062 295.386719 17.625 294.300781 L 17.40625 292.667969 L 18.566406 285.996094 C 19.292969 282.308594 19.65625 278.453125 19.65625 274.429688 C 19.65625 269.039062 19.367188 264.828125 18.785156 261.800781 L 17.695312 250.445312 L 17.84375 250.375 C 17.9375 245.550781 19.074219 236.867188 21.25 224.332031 C 21.6875 221.445312 22.917969 217.164062 24.949219 211.488281 C 25.191406 210.730469 26.738281 208.554688 29.59375 204.960938 L 32.128906 201.695312 C 32.566406 200.9375 33.121094 200.394531 33.796875 200.0625 L 34.8125 199.355469 L 35.902344 198.714844 L 36.554688 198.714844 L 36.628906 198.359375 L 36.988281 198.21875 L 36.917969 198.148438 L 49.539062 198.21875 L 53.816406 198.078125 L 54.46875 198.007812 "/>
<path style="fill:none;stroke-width:1;stroke-linecap:round;stroke-linejoin:round;stroke:rgb(0%,0%,0%);stroke-opacity:1;stroke-miterlimit:4;" d="M 78.450107 -5.600552 C 78.915974 -4.634454 79.182568 -3.516972 79.24989 -2.250859 L 79.500327 2.700742 L 79.500327 4.299898 L 79.400691 4.451281 L 79.599963 8.849646 C 79.632278 9.815745 79.766921 10.699271 80.001201 11.500225 C 80.200473 12.265397 80.499382 12.967264 80.90062 13.60032 L 81.250693 14.299435 C 81.95084 15.832532 82.667143 18.750096 83.399604 23.049374 C 85.133813 33.084692 86.149026 39.398741 86.450627 41.999776 L 86.450627 47.400022 C 86.88418 48.432179 87.433525 51.0167 88.098665 55.150833 L 89.299685 63.449375 C 89.299685 64.517314 88.90114 65.499927 88.098665 66.399968 C 89.065405 71.434142 89.533965 75.034305 89.498958 77.200459 C 89.434329 79.567539 89.498958 83.233761 89.700923 88.199124 C 89.700923 88.83218 89.415479 89.817546 88.849976 91.149717 L 88.90114 91.100173 C 89.065405 91.100173 89.216206 93.599369 89.35085 98.600514 C 89.4828 103.934702 89.466643 108.066082 89.299685 111.00016 C 89.100413 113.733312 89.299685 117.033462 89.900195 120.90061 L 91.451289 129.499166 L 91.599397 130.349664 L 91.79867 130.55059 C 92.167593 131.150618 92.517666 132.634171 92.848889 135.001251 C 93.4494 139.033545 94.316504 142.699766 95.450203 145.999916 L 95.498675 146.099004 L 95.951077 147.351354 L 97.599114 155.999454 L 99.150208 164.551218 L 99.050572 164.650305 L 99.599917 168.600026 L 100.450865 173.548875 L 102.05043 183.498869 L 104.649051 197.800436 L 104.700215 197.800436 L 105.149925 199.250961 C 105.149925 199.683091 104.433621 200.382205 103.001014 201.351056 L 103.001014 201.4006 L 103.598831 202.149258 C 102.799048 202.950212 101.983108 203.41537 101.151011 203.550239 L 100.949046 203.899796 L 69.700969 203.998883 L 68.499948 204.100723 L 68.499948 204.051179 L 68.201039 203.500695 L 68.750385 203.500695 L 68.599584 203.451152 L 65.150016 202.900668 C 64.549506 202.699741 64.299069 202.215316 64.398705 201.450143 M 57.65037 143.50072 L 57.04986 142.650223 C 56.282392 141.549255 55.800368 140.583156 55.601095 139.749174 M 54.300439 109.750562 L 53.751093 108.699138 L 50.70007 101.600651 L 50.449633 100.799697 C 49.948759 98.933557 49.666007 95.366422 49.598685 90.101045 L 49.598685 89.148708 L 49.251305 93.701209 L 48.901232 97.898647 L 49.200141 98.000487 L 48.850067 98.149118 L 48.798903 98.600514 L 49.04934 98.600514 L 49.100504 98.749145 L 48.798903 98.950071 L 48.551159 101.149254 L 48.551159 101.198797 L 47.950648 107.900937 C 47.950648 110.700147 48.59963 115.66551 49.900287 122.799779 L 49.900287 122.898866 L 50.648905 126.900883 C 51.51601 131.332277 52.000727 137.316035 52.100363 144.849405 M 55.749203 150.200107 L 56.349713 151.548793 L 56.250077 151.548793 L 55.800368 151.650632 L 55.800368 155.201252 C 55.800368 158.732605 55.601095 161.317126 55.199857 162.949311 L 53.899201 170.548739 L 51.650653 184.998937 L 51.699125 185.15032 L 50.70007 190.000082 C 50.032238 193.033247 49.701015 195.166371 49.701015 196.399455 L 49.948759 200.349176 L 49.900287 200.451015 L 49.999923 201.351056 C 49.999923 202.050171 49.617536 202.966726 48.850067 204.100723 L 48.650795 204.051179 L 48.650795 204.19981 L 47.649047 204.19981 L 45.098898 203.949339 L 23.001197 203.500695 L 19.301192 202.900668 L 11.949654 202.699741 L 11.798853 202.251097 C 8.76668 200.049162 7.250593 198.683963 7.250593 198.149993 L 7.35023 197.701349 M 10.648997 94.799424 L 10.150816 94.449867 L 9.200232 93.401195 L 8.949795 93.150725 M 8.55125 92.699329 L 8.098848 92.300228 L 8.201177 92.049758 L 7.95074 91.650657 L 7.35023 90.101045 M 7.299065 42.899817 L 7.099793 42.200703 C 6.932835 41.498836 6.849356 40.634577 6.849356 39.599667 L 6.849356 38.99964 C 6.948992 36.70137 7.433709 33.83335 8.300813 30.401084 L 10.600525 21.499762 L 11.901182 13.999421 L 12.04929 13.34985 L 12.200091 12.350722 L 12.450528 11.101124 L 12.6498 10.099244 C 13.182989 7.600048 13.834663 5.450409 14.599439 3.650327 L 14.499803 3.498944 L 14.550967 3.4494 L 14.499803 2.951212 L 14.499803 2.499816 L 14.550967 1.998876 C 14.682918 -0.401234 15.334593 -3.566515 16.500606 -7.499721 L 16.349805 -7.549265 L 16.199004 -7.700648 L 16.40097 -7.849279 L 16.600242 -7.898822 L 16.648714 -8.050205 L 16.751043 -8.050205 L 16.899151 -7.951118 L 17.149588 -7.951118 C 19.115384 -7.951118 21.366624 -7.351091 23.900616 -6.151036 C 26.765831 -4.783084 28.699312 -4.017912 29.70106 -3.850014 C 30.667801 -3.682117 32.283524 -3.04906 34.550921 -1.950845 L 36.549032 -0.948965 L 37.348815 -0.401234 L 44.700353 -0.048924 L 50.751234 -0.200307 L 57.849643 -0.948965 C 58.350517 -0.981994 59.266093 -1.282008 60.599064 -1.849006 L 69.849077 -3.500457 C 70.150678 -3.698631 71.750244 -4.265629 74.650466 -5.198699 L 77.249087 -7.249251 L 77.249087 -7.298795 L 77.698796 -7.249251 L 77.749961 -6.998781 L 77.650324 -6.899694 L 78.450107 -5.600552 M 86.598735 103.150262 L 86.550264 102.698866 L 86.20019 99.649186 C 85.901282 97.849104 85.750481 96.549962 85.750481 95.749008 L 85.750481 95.448995 L 85.098806 95.448995 L 85.300771 95.399451 L 85.750481 95.049894 L 86.6499 94.001223 L 86.598735 94.001223 L 86.450627 93.249812 C 86.248662 92.148845 86.084397 90.384544 85.949753 87.948654 C 85.750481 85.149444 85.483887 83.134674 85.149971 81.898838 C 84.983013 81.334592 84.649097 79.383127 84.150915 76.049948 L 83.450769 70.349689 L 83.100696 70.649702 L 82.500185 71.200186 L 82.249748 70.949716 L 83.049531 69.950588 L 83.450769 69.548735 L 85.500044 67.900036 L 85.798953 67.69911 L 85.750481 66.650438 L 85.650845 66.050411 L 85.551208 65.351296 L 85.050334 62.898891 L 85.050334 62.150234 L 84.99917 61.59975 C 84.899534 59.832697 84.732576 58.632642 84.500989 57.999586 L 84.199387 57.198632 L 82.548657 53.248911 L 82.050476 51.900226 C 81.549602 50.466216 81.299165 49.266162 81.299165 48.300063 C 81.299165 48.132165 81.350329 48.016564 81.449966 47.950506 L 81.099892 43.100744 L 81.299165 39.649211 L 81.299165 38.950096 L 80.550547 32.14887 C 80.017358 27.48352 79.567649 24.43384 79.198725 22.99983 L 76.799377 15.149932 M 43.049623 58.750996 L 43.90057 63.099818 C 45.500136 67.633052 46.383397 70.349689 46.550355 71.24973 C 47.517096 76.782091 48.149921 79.983154 48.448829 80.850166 L 48.699266 81.54928 C 49.566371 83.94939 50.815863 86.933011 52.450436 90.500146 L 56.050805 98.798688 L 56.548986 99.998743 L 56.548986 100.95108 M 56.799423 112.701155 L 57.750006 114.201223 L 58.10008 114.649868 L 58.151244 114.748955 L 58.549789 115.348982 L 58.501318 115.750835 M 96.799331 163.951191 L 96.449258 160.549202 L 95.899912 158.950046 L 96.198821 158.900503 L 96.198821 158.650033 L 95.70064 158.300476 L 95.549839 157.601361 L 95.399038 157.100421 L 94.750056 154.248915 L 94.399983 152.501129 L 94.399983 152.448833 L 92.39918 143.349337 L 91.149688 139.600543 L 89.049248 134.599398 L 85.850117 127.099057 C 85.615837 126.933912 85.467729 126.515545 85.400408 125.849459 L 85.349243 125.700829 L 85.249607 124.451231 L 85.249607 120.39967 M 85.249607 120.350127 C 85.316929 117.449077 85.516201 115.282924 85.850117 113.848914 C 86.383306 111.517615 86.6499 108.916579 86.6499 106.051312 L 86.6499 104.950344 M 86.6499 104.699874 L 86.6499 104.300773 M 87.350046 67.049539 L 83.800842 70.049675 L 85.59968 81.351106 L 86.749536 91.749744 L 86.800701 92.699329 L 86.849172 93.348899 L 86.849172 93.701209 L 87.70012 92.201141 L 88.149829 91.350643 L 88.551067 90.450602 L 89.200049 88.199124 L 89.200049 87.24954 L 88.949612 77.450929 L 87.751284 66.699982 L 87.401211 67.049539 L 87.350046 67.049539 M 50.199196 14.10126 L 50.349997 14.048965 L 50.199196 14.048965 L 50.199196 12.700279 L 50.401161 10.649727 L 50.500797 10.349714 L 50.449633 10.349714 L 49.749486 10.250627 L 47.500939 10.0497 L 47.500939 10.099244 L 47.051229 10.148787 L 44.549552 10.099244 L 44.048678 12.149796 L 43.90057 12.548896 L 43.90057 12.84891 L 43.499332 15.549033 L 42.949987 19.099653 M 50.199196 14.10126 L 49.999923 15.549033 L 49.849122 16.000429 L 49.701015 17.649128 L 49.100504 22.149333 L 48.699266 25.251309 C 48.567316 26.115568 48.249557 26.900007 47.748683 27.599122 M 42.949987 19.149196 L 42.898822 19.149196 L 42.898822 19.44921 L 42.599913 21.499762 L 42.599913 34.001248 L 44.099843 31.901152 C 45.365492 30.167128 46.351083 28.983588 47.051229 28.350532 L 47.449774 28.000975 M 35.45034 15.700416 L 35.498812 15.650872 L 35.749249 15.950886 L 35.549977 16.250899 L 35.399176 16.349987 L 35.399176 16.950014 C 35.399176 18.150068 35.983529 22.198876 37.149542 29.09919 L 39.198817 40.549252 L 41.250785 52.500254 C 41.851295 56.133446 42.48412 59.282213 43.149259 61.949307 L 43.100787 62.10069 C 43.100787 63.234686 43.550497 65.067797 44.449916 67.600023 L 45.650936 70.699246 L 46.100646 71.800213 L 46.800792 75.499464 L 46.900429 76.000404 L 47.000065 76.600432 L 47.051229 76.600432 L 47.401303 77.049076 L 47.500939 77.59956 L 47.549411 78.450057 L 47.500939 78.750071 L 47.500939 78.799614 L 48.201085 81.40065 L 48.750431 82.851174 L 49.200141 83.998933 L 49.251305 84.19986 L 49.701015 85.300827 L 49.800651 85.551297 L 49.701015 85.551297 L 49.399413 85.499001 L 49.399413 86.899982 L 49.200141 92.148845 L 49.000868 94.548954 L 48.59963 97.40046 L 48.551159 97.849104 L 48.249557 97.849104 L 47.851012 97.79956 L 47.549411 97.79956 L 45.850209 97.700473 L 41.800131 97.598634 L 41.851295 96.849976 L 41.851295 96.249949 L 41.999403 93.750752 C 42.134047 91.515789 42.982301 88.482623 44.549552 84.651256 C 45.5513 82.182337 46.216439 80.065727 46.550355 78.298674 L 46.450719 78.24913 C 46.450719 77.34909 46.550355 76.817873 46.749628 76.649975 L 46.749628 76.000404 C 46.749628 75.766449 46.682306 75.634333 46.550355 75.601304 L 46.399555 75.601304 L 46.00101 77.250002 L 45.400499 79.551024 L 44.700353 82.498865 L 44.700353 82.650248 L 44.649188 82.851174 L 44.600717 82.950262 M 8.500086 80.398769 L 8.400449 79.999669 L 8.500086 79.600568 L 8.448921 78.549144 L 8.448921 56.249048 L 8.150012 50.248775 L 7.999212 45.899954 L 8.249649 44.851282 L 8.249649 44.399885 L 8.500086 44.699899 C 10.000015 46.466952 11.182185 47.46608 12.04929 47.700035 L 12.251255 47.700035 L 12.299727 47.300935 L 12.450528 47.700035 M 42.949987 19.149196 L 42.949987 19.099653 M 42.599913 34.901289 L 42.599913 45.451309 L 42.500277 52.849811 L 42.400641 52.899354 L 42.400641 55.048993 L 42.85035 57.449102 L 42.85035 57.600485 L 42.949987 57.999586 L 43.049623 58.750996 M 7.748775 43.750315 L 7.700303 43.700771 L 7.299065 42.899817 M 7.50103 44.699899 L 7.799939 44.251255 L 7.899575 43.951241 L 7.748775 43.750315 M 7.50103 44.699899 L 7.398701 46.10088 L 7.649138 48.500989 L 7.649138 48.90009 L 7.700303 49.899218 L 7.700303 50.350615 L 7.95074 64.049402 L 7.95074 78.35097 L 7.999212 79.099628 C 8.066533 81.067607 7.816096 83.982419 7.250593 87.849567 L 7.150957 88.248668 L 7.35023 90.101045 M 10.99907 94.950807 L 10.648997 94.799424 M 11.149871 97.100446 L 11.149871 95.000351 L 10.99907 94.950807 M 11.149871 97.100446 L 11.149871 98.250957 L 11.400308 102.550235 L 11.349143 102.550235 L 11.349143 102.850249 L 11.400308 102.850249 L 12.04929 113.499357 C 12.016975 114.534266 12.251255 117.083006 12.749436 121.151081 L 13.150674 126.449486 L 13.150674 128.348655 M 13.051038 129.000979 L 12.399363 129.400079 C 11.59958 129.967078 11.166028 130.415722 11.098706 130.748764 C 10.565518 131.315763 10.298924 131.882761 10.298924 132.449759 L 10.298924 132.548846 L 9.149068 140.949228 L 9.100596 141.249242 L 9.200232 141.249242 L 9.100596 143.098867 L 9.299868 147.100884 L 9.299868 170.848752 L 10.199287 176.248998 L 10.099651 176.248998 L 10.099651 176.650851 L 10.051179 178.04908 L 9.800742 184.151192 L 9.701106 186.399918 L 8.249649 194.048889 L 8.448921 194.200273 L 7.899575 195.700341 L 7.398701 197.349039 L 7.35023 197.701349 M 11.44878 95.148981 L 11.949654 102.500691 L 12.800601 102.451148 L 22.699595 103.400732 L 24.099888 102.998879 L 25.500181 102.751162 L 26.149163 102.599779 L 30.298878 101.999751 L 37.049906 100.84924 L 47.700211 98.749145 L 48.201085 98.650058 L 48.448829 98.600514 L 48.499994 98.198661 L 48.201085 98.250957 L 43.399696 98.250957 L 42.099039 98.198661 L 41.700494 98.149118 L 41.398893 98.198661 L 41.398893 98.149118 L 29.10055 97.14999 L 11.44878 95.148981 M 54.698983 111.900201 C 54.733991 111.300174 54.801313 110.901073 54.900949 110.700147 L 54.698983 110.400133 L 54.300439 109.750562 M 54.698983 111.900201 L 54.499711 114.501237 L 54.499711 125.450359 C 54.499711 126.983456 54.833627 129.248696 55.498766 132.248833 L 55.549931 137.15089 L 55.549931 137.701374 L 55.498766 139.000516 L 55.601095 139.749174 M 48.149921 99.150998 L 47.600575 99.250085 L 38.15129 101.198797 L 27.89953 102.998879 L 26.149163 103.298893 L 23.949088 103.651203 L 26.100692 104.099847 L 38.399034 104.900801 L 41.000348 105.349445 L 46.9489 105.649458 L 47.449774 105.751298 L 47.549411 104.198934 L 47.851012 102.299765 L 47.851012 102.151134 L 47.899484 101.798825 L 48.349193 99.049158 L 48.149921 99.150998 M 41.099984 109.549636 L 41.04882 109.401005 L 41.099984 109.401005 L 41.099984 109.549636 M 47.150866 110.149663 C 42.882665 110.050576 38.13244 110.515735 32.900191 111.550644 L 24.851199 112.750699 C 19.083069 113.683769 15.016834 114.448941 12.6498 115.048968 L 13.051038 119.89873 L 13.09951 120.300583 L 13.150674 120.749227 L 13.199146 121.800651 L 16.349805 120.600597 L 17.101116 120.449214 L 32.649754 120.300583 L 34.101212 120.099657 L 36.301288 120.050113 L 36.301288 119.951026 L 37.249178 119.951026 C 37.383822 119.783128 37.682731 119.582202 38.15129 119.350999 L 38.250926 119.298703 L 40.149401 118.899602 L 45.500136 118.698675 L 48.699266 118.800515 L 48.448829 117.449077 C 47.982963 114.649868 47.684054 112.216729 47.549411 110.149663 L 47.150866 110.149663 M 46.9489 106.150399 L 45.098898 106.199942 L 40.100929 105.800841 L 38.000489 105.349445 L 25.449017 104.498947 L 20.599156 103.598907 L 11.949654 102.899792 L 12.550164 111.448805 L 12.601328 113.248886 L 12.601328 113.601196 L 12.6498 114.699411 C 26.184171 111.53413 36.899105 109.948736 44.799989 109.948736 L 47.150866 110.001032 L 47.549411 110.050576 L 47.449774 107.900937 L 47.449774 106.100855 L 46.9489 106.150399 M 48.201085 123.099793 C 46.065638 122.700692 44.282958 122.183238 42.85035 121.550181 C 42.082882 121.18411 40.733754 120.884096 38.800272 120.65014 L 38.000489 120.551053 L 36.998741 120.600597 L 35.199903 120.449214 L 32.749391 120.798771 L 17.451189 121.049241 C 17.34886 121.18411 17.133431 121.250168 16.799515 121.250168 L 16.500606 121.200624 L 13.25031 122.150209 L 13.600384 126.950427 L 13.648855 127.800924 L 13.648855 128.299112 L 14.75024 128.299112 L 18.39908 128.750509 L 22.599959 129.100066 L 32.948663 129.199153 L 35.848885 129.149609 L 38.15129 128.800052 L 42.099039 128.450495 L 43.800934 128.549582 L 44.000206 128.549582 L 44.199479 128.599125 L 44.299115 128.599125 L 44.700353 128.450495 L 44.700353 128.549582 L 46.00101 128.500038 L 47.851012 128.200025 L 49.999923 128.249568 L 50.298832 128.299112 L 50.099559 126.950427 L 49.450578 123.099793 L 48.201085 123.099793 M 50.099559 128.849596 L 50.051088 128.849596 L 46.399555 128.948683 L 44.700353 128.750509 L 44.851154 131.800188 L 44.600717 137.349065 L 44.549552 137.998635 L 44.449916 138.100475 L 46.200282 139.650087 L 46.550355 139.9501 C 48.050285 141.249242 49.749486 142.966751 51.650653 145.099876 L 51.551017 142.300666 L 51.551017 141.598799 L 51.448688 136.50132 L 50.401161 128.849596 L 50.099559 128.849596 M 38.899908 132.400216 C 38.999545 132.301129 39.083024 132.248833 39.150345 132.248833 L 39.600055 132.700229 L 40.698746 133.999371 L 42.301005 135.950836 L 44.099843 137.800461 L 44.099843 137.549991 L 44.048678 137.15089 L 44.151007 135.700366 L 44.35028 132.100202 L 44.35028 131.249705 L 44.250643 128.750509 L 43.800934 128.700965 C 41.832445 128.599125 40.049764 128.783538 38.450199 129.248696 L 36.699833 129.601006 L 36.600196 129.400079 L 36.449396 129.601006 M 46.450719 149.949637 L 46.450719 149.85055 L 46.499191 149.250523 L 46.499191 145.050332 C 46.499191 144.015423 46.58267 143.098867 46.749628 142.300666 L 47.051229 141.298785 L 46.849264 141.100611 L 46.351083 140.599671 L 45.5513 139.851013 C 42.715707 137.08208 40.666432 134.849868 39.400782 133.148874 L 39.400782 133.09933 L 39.198817 132.749773 L 38.999545 132.499303 M 47.500939 141.750182 L 47.401303 141.651095 L 47.401303 141.849269 L 46.100646 157.499522 L 46.149117 157.950918 C 46.149117 161.515301 44.132157 176.232483 40.100929 202.099714 L 40.049764 202.498815 L 39.898964 203.398856 L 47.851012 203.599782 L 47.799848 203.698869 L 47.851012 203.698869 L 48.750431 203.649326 L 48.750431 203.599782 M 47.500939 141.750182 L 52.749345 147.150427 L 54.599347 149.60008 L 55.100221 150.401034 L 55.299494 155.148956 L 55.299494 155.300339 C 55.299494 158.699576 55.100221 161.218039 54.698983 162.850224 C 54.36776 164.083307 53.934208 166.599018 53.40102 170.400108 L 51.101308 184.949393 C 49.967609 190.583594 49.350941 194.249816 49.251305 195.950811 L 49.200141 196.399455 L 49.450578 200.451015 L 49.550214 201.249217 M 55.749203 150.200107 C 55.148693 149.000053 54.316596 147.9156 53.250219 146.949501 L 52.251164 145.79899 L 52.100363 145.650359 L 52.100363 144.849405 M 58.250881 144.249378 L 58.250881 144.150291 L 58.199716 144.100748 L 57.65037 143.50072 M 58.250881 144.249378 L 58.151244 144.951245 L 58.848698 152.550673 L 58.848698 153.348874 L 58.800226 153.899358 L 58.800226 154.149828 L 58.848698 154.149828 L 58.999499 155.649896 C 58.999499 160.717099 59.365729 164.251205 60.100883 166.249461 C 60.599064 167.7165 61.350375 171.283635 62.34943 176.950865 L 63.550451 184.800763 L 63.701252 185.799891 L 63.84936 187.649516 L 64.501035 197.949067 L 64.501035 198.298624 L 64.44987 200.550102 L 64.398705 201.450143 M 61.350375 145.350346 L 61.250739 145.198963 L 61.048774 145.399889 C 60.11704 145.36686 59.266093 145.017303 58.501318 144.351218 C 59.06682 147.150427 59.349572 149.900094 59.349572 152.600216 L 59.349572 153.048861 C 59.583852 154.383784 59.667331 156.365525 59.600009 158.99959 L 60.399792 165.500803 C 61.067624 167.333914 61.9832 171.633192 63.149213 178.398637 L 64.051325 185.700804 L 64.051325 187.099032 L 64.199433 187.151328 L 64.549506 191.348767 L 64.999216 197.84998 L 64.899579 201.051043 L 64.899579 201.65107 C 64.934587 202.149258 65.150016 202.432757 65.551254 202.498815 L 71.149733 203.151138 C 71.984523 203.115357 72.399226 203.200682 72.399226 203.398856 L 85.699316 203.398856 M 20.849593 129.601006 L 18.000535 129.400079 L 14.499803 128.899139 L 12.251255 130.501047 L 11.699217 130.900148 M 23.900616 129.700093 L 24.350325 129.700093 L 33.050992 129.749637 L 35.999686 129.650549 L 36.449396 129.601006 M 97.100933 166.3513 L 96.799331 163.951191 M 92.601145 203.451152 L 100.550501 203.451152 L 101.600721 202.798828 L 103.10065 202.099714 L 102.599776 201.249217 L 102.551304 201.15013 L 102.400503 201.4006 L 102.349339 200.850116 L 102.249703 200.299632 L 102.201231 199.600518 L 101.649192 194.401199 L 101.700357 194.200273 C 100.932889 190.56708 100.300064 187.933015 99.79919 186.300831 C 99.467967 185.199863 99.249844 183.765853 99.150208 181.9988 L 98.800135 177.649979 L 97.100933 166.3513 " transform="matrix(1.450589,0,0,1.419206,1.595648,14.077246)"/>
</g>
</svg>
