<?xml version="1.0" encoding="UTF-8"?>
<svg xmlns="http://www.w3.org/2000/svg" xmlns:xlink="http://www.w3.org/1999/xlink" width="160px" height="333px" viewBox="0 0 160 333" version="1.1">
<g id="surface1">
<path style=" stroke:none;fill-rule:evenodd;fill:rgb(89.411765%,92.54902%,93.333334%);fill-opacity:1;" d="M 20.527344 27.984375 L 20.527344 27.773438 L 20.960938 26.210938 C 21.734375 23.515625 23.160156 19.019531 25.242188 12.730469 L 25.53125 12.800781 L 25.457031 13.082031 L 29.300781 13.792969 L 32.347656 14.859375 L 48.085938 16.488281 L 49.175781 16.632812 L 48.8125 24.296875 L 48.8125 28.410156 L 48.523438 28.980469 L 47.214844 30.183594 C 45.28125 31.132812 41.292969 31.605469 35.25 31.605469 C 33.558594 31.605469 31.066406 31.011719 27.777344 29.832031 L 20.671875 27.914062 L 20.527344 27.984375 M 112.785156 177.996094 L 105.023438 178.207031 L 97.695312 177.925781 L 96.175781 177.640625 L 94.796875 177.355469 L 94.652344 177.285156 L 94.578125 177.285156 L 89.285156 177.074219 L 83.335938 176.007812 L 82.394531 174.945312 L 81.886719 174.023438 C 81.304688 173.027344 81.0625 171.609375 81.160156 169.765625 L 80.289062 163.378906 L 79.273438 154.4375 L 79.347656 154.507812 C 83.3125 157.535156 87.46875 159.050781 91.824219 159.050781 L 92.039062 158.835938 L 91.894531 158.695312 L 92.039062 158.625 C 87.929688 155.265625 85.125 152.449219 83.625 150.179688 C 80.289062 146.253906 78.40625 143.414062 77.96875 141.664062 L 77.824219 141.664062 L 76.226562 125.058594 L 76.082031 125.058594 L 76.226562 107.175781 L 76.082031 89.011719 L 76.082031 88.585938 L 76.15625 88.585938 L 76.375 88.445312 L 76.375 87.804688 L 76.519531 87.734375 L 76.953125 87.378906 L 77.097656 87.238281 L 85.292969 77.941406 C 89.40625 72.597656 91.460938 68.8125 91.460938 66.585938 L 91.316406 66.304688 L 91.097656 66.304688 L 90.953125 66.871094 L 90.734375 67.15625 C 83.578125 75.199219 77.898438 79.527344 73.691406 80.140625 C 72.964844 78.203125 72.601562 75.578125 72.601562 72.265625 L 71.296875 67.863281 L 75.648438 60.058594 C 78.9375 54.382812 81.449219 50.691406 83.191406 48.988281 L 89.140625 39.410156 C 90.589844 37.234375 93.03125 34.277344 96.464844 30.539062 L 96.535156 31.179688 C 96.921875 32.503906 98.300781 33.164062 100.671875 33.164062 C 104.972656 33.164062 109.277344 32.550781 113.582031 31.320312 C 119.671875 35.011719 123.347656 47.476562 124.605469 68.714844 L 124.460938 68.789062 L 124.679688 69.640625 L 124.679688 69.992188 L 124.75 69.992188 L 125.910156 79.007812 L 126.203125 84.113281 L 126.347656 89.296875 L 126.492188 89.222656 C 126.203125 87.898438 127.484375 85.039062 130.335938 80.636719 L 130.40625 80.636719 L 130.699219 82.199219 L 130.625 83.050781 L 130.554688 83.050781 C 130.070312 85.890625 128.957031 89.601562 127.214844 94.191406 L 127.070312 94.476562 L 127.070312 94.546875 L 126.855469 95.113281 L 127.144531 94.617188 L 127.214844 94.6875 L 127.433594 94.546875 L 127.652344 94.617188 L 128.085938 94.332031 C 128.765625 96.132812 129.101562 97.335938 129.101562 97.953125 L 128.085938 102.707031 L 126.855469 107.601562 L 122.210938 112.429688 L 120.980469 113.5625 L 125.332031 120.304688 C 126.296875 122.195312 127.265625 124.515625 128.230469 127.257812 L 129.753906 134.992188 L 130.554688 141.023438 L 129.609375 150.960938 L 128.886719 156.707031 L 128.8125 156.707031 L 128.8125 156.847656 L 128.304688 159.402344 L 126.347656 165.222656 L 125.476562 166.855469 L 122.285156 171.820312 L 118.441406 174.800781 L 117.644531 175.371094 L 115.539062 176.503906 L 115.394531 176.433594 L 114.304688 177.144531 L 113.796875 177.355469 L 113.582031 177.429688 L 112.710938 177.78125 L 112.855469 177.855469 L 112.929688 177.925781 L 112.785156 177.996094 M 75.9375 87.519531 L 76.082031 87.875 L 76.011719 87.875 L 76.011719 88.445312 L 75.9375 88.445312 L 75.9375 87.519531 M 75.867188 88.515625 L 75.867188 88.726562 L 68.613281 84.683594 L 62.15625 80 C 60.417969 78.816406 58.796875 77.253906 57.296875 75.316406 L 53.816406 70.703125 L 53.671875 70.703125 L 53.746094 70.773438 C 56.839844 75.363281 59.5 78.484375 61.722656 80.140625 L 63.609375 81.558594 L 63.535156 81.488281 L 63.390625 81.558594 C 63.390625 82.175781 63.875 82.886719 64.839844 83.6875 C 64.839844 85.722656 61.84375 87.640625 55.847656 89.4375 L 59.039062 94.546875 C 61.3125 98.378906 62.859375 102.066406 63.679688 105.617188 C 64.066406 107.367188 64.308594 110.0625 64.40625 113.707031 C 64.792969 115.644531 64.988281 118.339844 64.988281 121.796875 L 64.550781 126.40625 L 64.117188 127.542969 C 63.585938 127.78125 63.101562 128.179688 62.664062 128.75 L 61.503906 130.167969 L 61.433594 130.167969 L 60.851562 130.808594 L 60.632812 130.949219 L 60.78125 131.019531 L 60.851562 131.160156 L 52.511719 131.515625 L 43.371094 131.375 L 41.414062 128.75 L 41.195312 128.820312 C 41.535156 129.957031 42.042969 130.808594 42.71875 131.375 L 31.261719 130.308594 C 29.179688 129.316406 26.835938 127.804688 24.226562 125.769531 L 20.671875 122.648438 L 20.816406 122.503906 C 20.089844 120.566406 19.292969 119.242188 18.421875 118.53125 L 18.351562 118.601562 L 17.914062 115.125 L 17.335938 109.449219 L 17.335938 109.09375 L 17.261719 109.023438 C 16.875 105.519531 16.632812 102.542969 16.535156 100.082031 L 16.828125 100.082031 L 16.898438 98.804688 C 16.414062 96.15625 16.175781 93.222656 16.175781 90.003906 L 16.320312 88.871094 L 17.042969 82.269531 L 16.898438 82.058594 L 16.753906 82.410156 L 16.320312 79.433594 L 16.175781 76.097656 L 15.957031 76.097656 L 15.957031 76.027344 L 15.882812 75.175781 L 15.738281 67.582031 C 15.738281 64.886719 16.535156 59.136719 18.132812 50.339844 C 19.726562 41.539062 20.527344 35.886719 20.527344 33.378906 L 20.378906 30.894531 L 20.527344 28.480469 C 21.6875 29.097656 24.105469 29.855469 27.777344 30.753906 C 32.082031 31.792969 35.46875 32.3125 37.933594 32.3125 C 44.171875 32.3125 47.941406 31.484375 49.246094 29.832031 C 54.46875 36.121094 58.484375 42.507812 61.289062 48.988281 C 66.269531 60.816406 69.460938 67.414062 70.859375 68.789062 L 71.875 72.265625 L 71.875 77.160156 C 71.875 77.824219 72.09375 78.675781 72.53125 79.714844 L 72.457031 79.929688 L 74.488281 84.1875 C 75.117188 87.070312 75.503906 88.515625 75.648438 88.515625 L 75.867188 88.515625 M 66.871094 130.382812 L 67.015625 130.453125 L 66.871094 130.453125 L 66.871094 130.382812 M 61.214844 131.160156 L 60.996094 131.160156 L 61.140625 131.089844 L 61.214844 131.089844 L 61.214844 131.160156 M 20.527344 122.503906 L 20.308594 122.574219 C 23.0625 125.980469 26.207031 128.464844 29.738281 130.027344 L 26.691406 129.316406 L 19.074219 125.699219 L 18.421875 118.742188 L 20.527344 122.503906 M 106.328125 15.355469 L 106.328125 15.566406 C 107.390625 16.230469 109.035156 18.074219 111.261719 21.101562 C 111.9375 22.046875 112.277344 23.988281 112.277344 26.921875 C 112.277344 28.859375 112.035156 30.183594 111.550781 30.894531 L 112.058594 31.035156 C 108.671875 31.9375 104.902344 32.386719 100.742188 32.386719 C 98.859375 32.386719 97.578125 31.628906 96.898438 30.113281 L 97.117188 29.832031 L 97.042969 29.546875 L 96.683594 29.476562 L 96.683594 29.546875 L 95.8125 25.359375 C 94.3125 21.246094 93.296875 18.902344 92.765625 18.335938 C 97.792969 17.671875 102.316406 16.679688 106.328125 15.355469 M 92.039062 18.40625 L 92.039062 18.476562 L 95.160156 25.925781 C 95.738281 27.015625 96.148438 28.316406 96.390625 29.832031 C 93.828125 32.386719 89.285156 38.582031 82.757812 48.421875 L 75.722656 58 C 75.042969 58.996094 74.027344 60.839844 72.675781 63.535156 L 71.078125 66.871094 C 70.449219 64.648438 70.136719 63.207031 70.136719 62.542969 C 70.136719 58.617188 70.449219 53.671875 71.078125 47.710938 L 72.023438 34.941406 L 71.660156 26.921875 C 71.902344 23.230469 71.730469 20.558594 71.152344 18.902344 L 78.332031 19.117188 L 92.039062 18.40625 M 71.007812 18.902344 L 70.714844 19.683594 L 71.296875 34.867188 L 70.355469 47.5 C 69.726562 53.554688 69.410156 58.570312 69.410156 62.542969 L 69.917969 65.453125 L 62.15625 48.847656 L 56.863281 38.84375 C 53.089844 33.449219 50.648438 30.234375 49.539062 29.191406 L 49.683594 16.703125 L 59.402344 17.910156 L 71.007812 18.902344 M 127.722656 93.339844 L 127.796875 93.625 L 127.363281 94.050781 L 127.722656 93.339844 M 120.035156 111.503906 L 123.011719 104.054688 L 119.527344 111.433594 L 119.601562 111.578125 L 120.035156 111.503906 M 30.753906 72.050781 L 30.824219 71.980469 L 30.679688 71.839844 L 30.390625 71.980469 L 30.171875 71.980469 L 30.171875 72.121094 L 29.882812 72.761719 L 30.171875 73.613281 L 30.171875 73.753906 L 36.410156 81.417969 L 36.410156 81.488281 L 36.480469 81.347656 C 39.433594 84.421875 45.113281 85.960938 53.527344 85.960938 C 55.414062 85.960938 56.742188 85.652344 57.515625 85.039062 L 57.660156 84.894531 L 57.296875 84.753906 L 57.660156 84.683594 L 57.589844 84.539062 L 46.347656 76.453125 C 43.785156 74.84375 40.929688 73.824219 37.789062 73.398438 L 30.753906 72.050781 M 56.5 124.277344 L 56.355469 122.929688 L 56.136719 122.929688 C 56.332031 123.875 55.703125 125.933594 54.253906 129.105469 L 54.6875 129.246094 C 55.894531 126.691406 56.5 125.035156 56.5 124.277344 M 57.371094 180.621094 L 53.164062 180.761719 L 49.539062 180.761719 L 37.0625 179.984375 L 31.042969 179.558594 L 27.996094 179.558594 L 26.835938 179.273438 L 20.527344 177.285156 C 17.964844 176.339844 16.222656 175.25 15.304688 174.023438 L 15.449219 173.878906 L 15.160156 171.46875 L 15.230469 171.46875 L 15.375 171.394531 L 15.449219 167.492188 L 15.59375 167.351562 L 15.449219 167.351562 L 15.449219 166.925781 L 16.609375 161.105469 C 18.445312 162.148438 21.46875 163.09375 25.675781 163.945312 C 30.074219 164.796875 33.144531 165.554688 34.886719 166.214844 L 45.332031 166.570312 L 59.835938 166.5 L 59.621094 166.5 L 59.472656 166.570312 L 60.417969 169.90625 C 60.902344 171.089844 61.769531 172.058594 63.027344 172.816406 L 63.101562 172.886719 L 63.316406 173.027344 C 62.785156 174.542969 61.3125 176.578125 58.894531 179.132812 L 59.113281 178.707031 L 58.605469 179.203125 L 58.457031 179.484375 L 57.371094 180.621094 M 63.824219 171.679688 L 63.753906 171.609375 L 63.824219 171.679688 M 63.316406 172.816406 L 63.390625 172.746094 L 63.390625 172.816406 L 63.316406 172.816406 M 24.804688 165.71875 L 25.3125 165.222656 C 23.28125 166.359375 20.742188 167.234375 17.695312 167.847656 L 17.769531 168.0625 L 17.914062 168.0625 L 17.84375 168.132812 L 18.132812 168.414062 L 18.929688 169.195312 L 21.902344 169.835938 L 22.992188 169.410156 L 23.0625 169.410156 L 23.355469 168.984375 L 23.863281 168.414062 L 25.601562 165.222656 L 25.457031 164.9375 L 25.3125 165.222656 L 24.878906 166.144531 L 24.804688 165.71875 M 24.296875 167.636719 L 24.296875 167.707031 L 23.863281 168.273438 L 24.371094 167.421875 L 24.296875 167.636719 M 19.074219 169.054688 L 19.148438 169.054688 L 19.148438 169.125 L 19.074219 169.054688 M 125.402344 167.5625 L 125.546875 167.351562 L 124.96875 168.628906 L 122.648438 171.609375 L 125.402344 167.5625 "/>
<path style=" stroke:none;fill-rule:evenodd;fill:rgb(0%,0%,0%);fill-opacity:1;" d="M 49.175781 16.632812 L 48.085938 16.488281 L 32.347656 14.859375 L 29.300781 13.792969 L 25.457031 13.082031 L 25.53125 12.800781 L 25.242188 12.730469 C 23.160156 19.019531 21.734375 23.515625 20.960938 26.210938 L 20.527344 27.773438 L 20.527344 27.984375 L 20.234375 28.054688 L 20.234375 28.339844 L 20.527344 28.480469 L 20.378906 30.894531 L 20.527344 33.378906 C 20.527344 35.886719 19.726562 41.539062 18.132812 50.339844 C 16.535156 59.136719 15.738281 64.886719 15.738281 67.582031 L 15.882812 75.175781 L 15.957031 76.027344 L 15.957031 76.378906 L 15.957031 76.097656 L 16.175781 76.097656 L 16.320312 79.433594 L 16.753906 82.410156 L 16.898438 82.058594 L 17.042969 82.269531 L 16.320312 88.871094 L 16.175781 90.003906 C 16.175781 93.222656 16.414062 96.15625 16.898438 98.804688 L 16.828125 100.082031 L 16.609375 100.082031 L 16.535156 99.511719 L 16.535156 100.082031 C 16.632812 102.542969 16.875 105.519531 17.261719 109.023438 L 17.335938 109.09375 L 17.335938 109.449219 L 17.914062 115.125 L 18.351562 118.601562 L 18.277344 118.601562 L 18.421875 118.742188 L 19.074219 125.699219 L 26.691406 129.316406 L 29.738281 130.027344 C 26.207031 128.464844 23.0625 125.980469 20.308594 122.574219 L 20.527344 122.503906 L 20.597656 122.71875 L 20.671875 122.648438 L 24.226562 125.769531 C 26.835938 127.804688 29.179688 129.316406 31.261719 130.308594 L 42.71875 131.375 C 42.042969 130.808594 41.535156 129.957031 41.195312 128.820312 L 41.414062 128.75 L 43.371094 131.375 L 52.511719 131.515625 L 60.851562 131.160156 L 61.214844 131.160156 L 66.871094 130.453125 L 67.015625 130.453125 L 66.871094 130.382812 C 69.820312 128.773438 71.320312 127.046875 71.367188 125.199219 L 71.585938 125.199219 L 71.730469 125.554688 C 71.730469 126.40625 70.355469 127.992188 67.597656 130.308594 L 75.574219 128.324219 L 75.722656 128.394531 L 75.722656 125.34375 L 75.867188 125.34375 L 75.867188 89.011719 L 72.601562 87.378906 L 68.105469 84.824219 L 64.261719 81.984375 L 63.609375 81.207031 L 63.390625 81.277344 L 63.609375 81.558594 L 61.722656 80.140625 C 59.5 78.484375 56.839844 75.363281 53.746094 70.773438 L 53.671875 70.703125 L 53.816406 70.703125 L 57.296875 75.316406 C 58.796875 77.253906 60.417969 78.816406 62.15625 80 L 68.613281 84.683594 L 75.867188 88.726562 L 75.867188 88.515625 L 75.9375 88.445312 L 76.011719 88.445312 L 76.011719 87.875 L 76.082031 87.875 L 75.9375 87.519531 L 75.9375 86.8125 L 76.226562 87.449219 L 76.15625 87.664062 L 76.226562 87.875 L 76.375 87.804688 L 76.375 88.445312 L 76.15625 88.585938 L 76.082031 88.585938 L 76.082031 89.011719 L 76.226562 107.175781 L 76.082031 125.058594 L 76.226562 125.058594 L 77.824219 141.664062 L 77.96875 141.664062 C 78.40625 143.414062 80.289062 146.253906 83.625 150.179688 C 85.125 152.449219 87.929688 155.265625 92.039062 158.625 L 91.894531 158.695312 L 91.316406 158.410156 L 88.050781 155.5 C 85.828125 153.371094 84.253906 151.714844 83.335938 150.535156 C 80.871094 147.460938 79.058594 144.855469 77.898438 142.726562 L 78.839844 150.605469 L 79.273438 154.4375 L 80.289062 163.378906 L 81.160156 169.765625 C 81.0625 171.609375 81.304688 173.027344 81.886719 174.023438 L 82.394531 174.945312 L 83.335938 176.007812 L 89.285156 177.074219 L 94.578125 177.285156 L 94.652344 177.285156 L 94.796875 177.355469 L 96.175781 177.640625 L 97.695312 177.925781 L 105.023438 178.207031 L 112.785156 177.996094 L 112.277344 178.207031 L 112.492188 178.351562 L 104.804688 178.5625 L 103.863281 178.492188 L 96.753906 178.492188 C 97.191406 178.398438 96.34375 178.183594 94.214844 177.855469 L 87.179688 177.214844 L 83.917969 176.648438 L 83.410156 176.648438 L 83.335938 176.578125 L 81.742188 176.433594 L 81.667969 176.292969 L 81.742188 176.152344 L 82.394531 176.152344 C 81.183594 174.351562 80.652344 172.414062 80.796875 170.332031 L 80 164.300781 C 79.03125 158.90625 78.523438 154.863281 78.476562 152.167969 C 77.800781 146.773438 77.414062 142.726562 77.316406 140.03125 C 77.027344 134.828125 76.617188 130.878906 76.082031 128.179688 L 76.082031 131.730469 L 76.226562 131.871094 L 76.082031 131.941406 L 75.9375 140.316406 L 76.226562 140.386719 L 76.15625 140.457031 L 75.9375 140.316406 L 75.9375 140.671875 L 75.648438 151.742188 L 75.792969 151.742188 L 75.648438 151.882812 L 75.574219 154.507812 L 75.574219 156.210938 L 75.648438 156.28125 L 75.574219 156.351562 L 75.359375 160.113281 L 75.792969 160.253906 L 75.359375 160.398438 L 75.359375 161.320312 L 75.648438 160.398438 L 75.214844 164.371094 L 74.777344 169.765625 C 74.585938 172.695312 74.101562 175.226562 73.328125 177.355469 L 72.964844 178.707031 L 72.890625 178.707031 L 72.890625 178.917969 L 72.601562 178.988281 L 72.53125 179.132812 L 72.3125 179.132812 L 72.238281 179.058594 C 65.953125 180.480469 61.3125 181.1875 58.3125 181.1875 L 53.816406 181.1875 L 50.117188 181.332031 L 48.738281 181.332031 L 47.941406 181.257812 L 40.761719 180.691406 L 38.367188 180.550781 L 39.964844 180.621094 L 37.644531 180.335938 L 37.644531 180.480469 L 31.113281 180.054688 L 32.277344 180.195312 L 29.011719 179.910156 L 27.199219 179.839844 L 27.125 179.769531 L 26.183594 179.558594 L 20.453125 177.640625 C 16.585938 176.410156 14.601562 174.875 14.507812 173.027344 L 14.652344 173.027344 L 14.652344 170.332031 L 14.867188 170.332031 L 14.941406 170.472656 L 15.085938 168.558594 L 15.085938 167.5625 C 7.253906 167.5625 3.335938 166.570312 3.335938 164.585938 C 3.335938 163.257812 3.867188 160.253906 4.933594 155.570312 C 5.996094 150.839844 6.527344 145.875 6.527344 140.671875 C 6.671875 134.566406 6.574219 130.050781 6.238281 127.117188 L 4.785156 113.707031 L 4.714844 112.285156 L 4.640625 111.078125 C 4.640625 108.953125 5.5625 107.886719 7.398438 107.886719 C 8.316406 107.460938 9.5 107.296875 10.953125 107.390625 L 10.953125 107.320312 L 16.464844 107.320312 L 16.246094 105.617188 L 16.246094 97.527344 C 15.957031 94.972656 15.8125 92.441406 15.8125 89.933594 L 15.882812 87.875 L 15.8125 87.09375 L 15.957031 86.597656 L 15.957031 85.960938 L 16.027344 85.320312 L 15.957031 85.25 L 15.957031 79.289062 L 15.519531 75.101562 L 15.375 67.582031 C 15.375 65.261719 15.738281 62.164062 16.464844 58.285156 L 18.132812 48.917969 L 19.65625 39.621094 C 20.1875 35.839844 20.308594 32.667969 20.019531 30.113281 L 20.089844 30.113281 L 20.019531 27.914062 L 20.164062 27.703125 L 20.089844 27.628906 C 21.492188 22.570312 23.113281 17.601562 24.949219 12.730469 L 24.878906 12.445312 L 25.167969 12.304688 L 26.402344 12.730469 C 28.867188 13.058594 30.996094 13.699219 32.785156 14.644531 L 48.378906 16.207031 L 49.246094 16.347656 L 49.175781 16.632812 M 49.609375 16.417969 L 59.472656 17.554688 L 78.257812 18.691406 C 88.511719 18.691406 97.191406 17.625 104.296875 15.496094 L 112.128906 12.585938 C 112.664062 11.59375 113.386719 11.097656 114.304688 11.097656 L 114.453125 11.097656 L 114.523438 11.167969 L 114.742188 11.238281 L 115.105469 11.378906 L 114.960938 11.523438 L 116.121094 13.652344 C 117.183594 15.734375 118.175781 18.429688 119.09375 21.742188 C 120.15625 23.824219 121.148438 27.15625 122.066406 31.746094 L 124.96875 42.035156 L 125.1875 42.816406 L 125.546875 43.878906 L 127.796875 56.652344 L 128.886719 64.175781 L 130.046875 71.769531 L 129.828125 71.839844 L 129.753906 71.414062 L 131.0625 82.199219 L 130.769531 85.25 L 130.988281 89.152344 L 131.0625 89.152344 C 131.449219 92.039062 131.640625 94.855469 131.640625 97.597656 L 131.570312 98.308594 L 131.570312 98.378906 C 131.859375 103.394531 132.511719 110.84375 133.527344 120.730469 L 136.28125 146.132812 L 136.210938 148.191406 L 136.136719 148.191406 L 137.007812 164.015625 L 136.9375 167.066406 L 137.441406 172.390625 L 137.441406 173.027344 L 137.589844 172.886719 L 137.371094 173.097656 L 137.296875 173.171875 L 137.226562 173.171875 L 137.082031 173.242188 L 137.152344 173.3125 L 135.992188 174.023438 L 135.921875 174.09375 L 135.628906 174.375 L 135.484375 174.304688 C 132.921875 175.960938 130.722656 176.8125 128.886719 176.859375 C 128.304688 177.429688 127.046875 177.757812 125.113281 177.855469 L 112.636719 178.351562 L 112.929688 178.207031 L 113.4375 177.925781 L 125.332031 177.429688 C 126.78125 177.332031 127.84375 177.050781 128.523438 176.578125 L 128.523438 176.433594 L 128.738281 176.433594 L 128.957031 176.152344 L 131.714844 175.511719 L 135.703125 173.808594 C 136.089844 173.289062 136.378906 172.578125 136.574219 171.679688 L 135.773438 147.625 L 135.773438 146.632812 L 135.921875 146.632812 L 131.132812 101.925781 L 131.132812 96.179688 L 131.0625 95.824219 L 131.0625 96.179688 L 130.988281 96.390625 L 130.769531 96.390625 L 130.84375 92.347656 L 130.84375 92.0625 L 131.207031 91.777344 L 131.0625 91.566406 L 130.769531 91.777344 L 130.480469 86.742188 L 129.03125 90.429688 L 127.796875 93.128906 L 127.652344 93.199219 L 127.722656 93.339844 L 127.363281 94.050781 L 127.214844 94.191406 C 128.957031 89.601562 130.070312 85.890625 130.554688 83.050781 L 130.625 83.050781 L 130.699219 82.199219 L 130.40625 80.636719 C 129.390625 74.867188 128.957031 71.105469 129.101562 69.355469 L 129.101562 66.800781 L 127.941406 59.421875 L 127.578125 57.292969 L 127.433594 56.582031 L 125.113281 43.808594 C 123.90625 40.78125 122.839844 36.949219 121.921875 32.3125 C 121.292969 31.652344 120.929688 30.847656 120.835938 29.902344 L 120.835938 28.128906 L 121.050781 27.558594 L 120.90625 27.277344 L 120.6875 27.277344 L 120.6875 27.203125 C 120.398438 25.597656 119.746094 23.824219 118.730469 21.882812 L 116.265625 14.929688 L 115.03125 12.304688 L 114.667969 11.664062 C 112.203125 13.132812 109.421875 14.359375 106.328125 15.355469 C 102.316406 16.679688 97.792969 17.671875 92.765625 18.335938 L 92.476562 18.121094 L 92.113281 18.191406 L 92.039062 18.40625 L 78.332031 19.117188 L 71.152344 18.902344 L 71.078125 18.832031 L 71.007812 18.902344 L 59.402344 17.910156 L 49.683594 16.703125 L 49.683594 16.632812 L 49.609375 16.417969 M 90.953125 66.871094 L 91.097656 66.304688 L 91.316406 66.304688 L 91.460938 66.585938 C 91.460938 68.8125 89.40625 72.597656 85.292969 77.941406 L 77.097656 87.238281 L 77.027344 87.09375 C 84.714844 78.675781 89.332031 72.027344 90.878906 67.15625 L 91.023438 66.941406 L 91.316406 66.445312 L 90.953125 66.871094 M 76.953125 87.378906 L 76.519531 87.734375 L 76.953125 87.378906 M 127.070312 94.546875 L 127.144531 94.617188 L 126.855469 95.113281 L 127.070312 94.546875 M 120.035156 111.503906 L 119.601562 111.578125 L 119.527344 111.433594 L 123.011719 104.054688 L 120.035156 111.503906 M 30.753906 72.050781 L 37.789062 73.398438 C 40.929688 73.824219 43.785156 74.84375 46.347656 76.453125 L 57.589844 84.539062 L 57.660156 84.683594 L 57.296875 84.753906 C 51.496094 80.449219 47.628906 77.65625 45.695312 76.378906 C 44 75.292969 41.535156 74.394531 38.296875 73.683594 L 30.535156 72.265625 L 30.753906 72.050781 M 30.171875 72.121094 L 30.171875 71.980469 L 30.316406 71.980469 L 30.171875 72.121094 M 16.390625 82.554688 L 16.320312 81.914062 L 16.246094 83.761719 L 16.390625 83.40625 L 16.390625 82.554688 M 6.308594 108.597656 C 5.441406 108.832031 5.003906 109.425781 5.003906 110.371094 L 5.003906 110.582031 L 5.292969 109.875 L 6.308594 108.597656 M 16.101562 160.539062 L 16.246094 159.121094 C 16.296875 156.28125 16.5625 154.175781 17.042969 152.804688 L 17.40625 148.261719 L 17.261719 148.191406 L 17.335938 148.050781 L 17.40625 148.050781 L 17.550781 145.851562 L 18.785156 136.625 L 18.710938 136.625 L 18.785156 136.554688 L 19.003906 132.15625 L 18.640625 125.554688 L 18.566406 125.484375 L 18.640625 125.484375 L 16.609375 108.3125 L 16.464844 107.746094 C 9.9375 107.886719 6.40625 108.3125 5.875 109.023438 C 5.488281 109.449219 5.269531 109.992188 5.222656 110.652344 L 5.148438 113.777344 C 5.148438 116.757812 5.632812 121.273438 6.601562 127.328125 L 6.890625 140.671875 C 6.890625 146.394531 6.359375 151.480469 5.292969 155.925781 C 4.230469 160.375 3.699219 163.257812 3.699219 164.585938 C 3.699219 165.4375 4.304688 165.980469 5.511719 166.214844 L 6.960938 166.570312 L 7.761719 166.996094 L 15.085938 167.351562 C 15.132812 165.222656 15.375 162.953125 15.8125 160.539062 L 16.027344 160.539062 L 16.101562 160.609375 L 16.101562 160.539062 M 16.390625 107.675781 L 13.925781 107.675781 L 16.464844 107.746094 L 16.390625 107.675781 M 19.582031 129.175781 C 21.371094 129.835938 23.863281 130.996094 27.054688 132.652344 C 30.339844 133.976562 34.136719 134.640625 38.441406 134.640625 L 68.613281 133.433594 C 71.609375 133.054688 73.980469 132.535156 75.722656 131.871094 L 75.722656 128.535156 L 68.175781 130.382812 C 63.34375 131.421875 58.191406 131.941406 52.730469 131.941406 L 32.855469 131.089844 C 27.296875 130.238281 22.703125 128.511719 19.074219 125.910156 L 19.367188 132.226562 L 19.367188 132.4375 L 19.4375 132.4375 L 21.542969 133.21875 L 21.542969 133.148438 L 21.6875 133.148438 L 27.488281 135.207031 L 34.304688 136.839844 L 47.289062 137.902344 L 64.839844 137.121094 L 68.03125 137.195312 L 71.875 136.625 L 74.414062 136.269531 L 75.648438 136.414062 L 75.722656 132.085938 C 73.398438 132.886719 70.742188 133.457031 67.742188 133.789062 L 62.519531 134.640625 C 59.230469 134.921875 51.207031 135.066406 38.441406 135.066406 C 34.089844 135.066406 30.074219 134.308594 26.402344 132.792969 L 19.4375 129.175781 L 19.582031 129.175781 M 19.003906 136.269531 L 30.824219 139.605469 L 46.417969 140.597656 L 62.304688 141.308594 L 72.457031 141.167969 L 72.382812 140.953125 L 75.574219 140.742188 L 75.648438 136.484375 C 74.199219 137.714844 64.746094 138.328125 47.289062 138.328125 C 40.421875 138.328125 35.371094 137.855469 32.128906 136.910156 C 29.519531 136.53125 26.183594 135.441406 22.121094 133.644531 L 19.367188 132.722656 L 19.003906 136.269531 M 17.769531 148.121094 C 18.832031 148.261719 21.757812 149.351562 26.546875 151.386719 C 31.140625 152.992188 34.863281 153.894531 37.714844 154.082031 L 53.597656 154.222656 L 70.644531 153.65625 L 72.675781 153.089844 L 75.285156 151.667969 L 75.574219 140.882812 L 73.253906 141.378906 L 70.644531 141.734375 L 51.0625 141.804688 L 30.609375 139.890625 C 28.671875 139.746094 24.78125 138.683594 18.929688 136.695312 L 17.914062 146.207031 L 17.769531 148.121094 M 17.625 152.734375 L 17.769531 152.734375 L 21.324219 154.011719 L 25.023438 155.003906 L 32.203125 156.421875 L 41.339844 158.199219 L 54.035156 159.332031 C 57.804688 159.332031 64.867188 158.292969 75.214844 156.210938 L 75.285156 152.09375 L 72.964844 153.441406 L 70.5 154.082031 L 53.597656 154.648438 C 44.894531 154.648438 39.550781 154.554688 37.570312 154.367188 C 34.574219 154.082031 30.679688 153.113281 25.894531 151.457031 C 24.199219 150.511719 23.0625 149.964844 22.484375 149.824219 L 17.769531 148.40625 L 16.972656 156.707031 L 17.042969 156.707031 C 17.625 156.707031 22.558594 157.960938 31.839844 160.46875 L 42.503906 161.957031 C 43.035156 162.054688 43.542969 162.289062 44.023438 162.667969 L 51.640625 163.164062 C 60.875 163.164062 65.761719 162.761719 66.292969 161.957031 L 72.890625 160.894531 L 75.140625 160.183594 L 75.214844 156.421875 C 64.71875 158.648438 58.75 159.757812 57.296875 159.757812 C 49.511719 159.757812 41.222656 158.835938 32.421875 156.992188 C 25.941406 155.667969 20.984375 154.320312 17.550781 152.945312 L 17.625 152.734375 M 56.5 124.277344 C 56.5 125.035156 55.894531 126.691406 54.6875 129.246094 L 54.253906 129.105469 C 55.703125 125.933594 56.332031 123.875 56.136719 122.929688 L 56.355469 122.929688 L 56.5 124.277344 M 76.011719 125.910156 L 76.011719 126.476562 L 76.011719 125.910156 M 63.898438 165.789062 C 69.652344 165.507812 73.253906 165.058594 74.707031 164.441406 L 75.066406 162.3125 L 75.140625 160.46875 C 73.449219 161.035156 70.621094 161.652344 66.65625 162.3125 L 54.398438 163.589844 C 44.824219 163.589844 32.347656 161.4375 16.972656 157.132812 L 16.609375 159.617188 L 16.609375 160.679688 L 25.386719 163.519531 C 30.269531 164.558594 33.460938 165.386719 34.960938 166.003906 L 45.257812 166.144531 L 63.679688 165.789062 L 63.679688 166.289062 L 59.835938 166.5 L 45.332031 166.570312 L 34.886719 166.214844 C 33.144531 165.554688 30.074219 164.796875 25.675781 163.945312 C 21.46875 163.09375 18.445312 162.148438 16.609375 161.105469 L 15.449219 166.925781 L 15.449219 167.351562 L 15.59375 167.351562 L 15.449219 167.492188 L 15.375 171.394531 L 15.230469 171.46875 L 15.160156 170.828125 L 15.160156 171.46875 L 15.449219 173.878906 L 15.304688 174.023438 C 16.222656 175.25 17.964844 176.339844 20.527344 177.285156 L 26.835938 179.273438 L 27.996094 179.558594 L 31.042969 179.558594 L 37.0625 179.984375 L 49.539062 180.761719 L 53.164062 180.761719 L 57.371094 180.621094 L 57.152344 180.761719 L 57.226562 180.835938 L 57.296875 180.761719 L 57.371094 180.835938 L 57.589844 180.90625 L 57.878906 180.550781 L 71.222656 178.847656 L 72.3125 178.207031 L 72.382812 177.996094 L 72.601562 177.429688 L 72.964844 176.859375 L 73.039062 176.789062 L 74.269531 171.609375 L 74.558594 169.621094 L 74.558594 169.480469 C 74.464844 167.824219 74.488281 166.3125 74.632812 164.9375 L 74.199219 165.292969 L 67.015625 165.933594 L 64.332031 166.214844 L 64.117188 166.289062 L 63.898438 165.789062 M 63.101562 172.886719 L 63.316406 172.816406 L 63.390625 172.816406 L 63.316406 173.027344 L 63.101562 172.886719 M 63.027344 172.816406 C 61.769531 172.058594 60.902344 171.089844 60.417969 169.90625 L 59.472656 166.570312 L 59.621094 166.5 L 59.980469 166.5 C 60.660156 169.386719 61.675781 171.394531 63.027344 172.53125 L 62.957031 172.671875 L 63.027344 172.816406 M 82.757812 176.152344 L 82.902344 176.152344 L 82.757812 176.007812 L 82.757812 176.152344 M 24.804688 165.71875 L 24.734375 165.648438 L 24.515625 165.648438 L 24.515625 165.863281 C 22.582031 167.328125 20.648438 168.085938 18.710938 168.132812 L 18.132812 167.917969 L 17.914062 167.917969 L 17.914062 168.0625 L 17.769531 168.0625 L 17.695312 167.847656 C 20.742188 167.234375 23.28125 166.359375 25.3125 165.222656 L 24.804688 165.71875 M 137.152344 173.097656 L 137.082031 171.894531 L 136.71875 172.746094 L 136.71875 173.3125 L 137.007812 173.171875 L 137.152344 173.097656 M 136.574219 173.027344 L 136.28125 173.597656 L 136.574219 173.382812 L 136.574219 173.027344 "/>
<path style=" stroke:none;fill-rule:evenodd;fill:rgb(60.000002%,60.000002%,60.000002%);fill-opacity:1;" d="M 49.175781 16.632812 L 49.246094 16.347656 L 49.246094 16.277344 L 49.609375 16.347656 L 49.609375 16.417969 L 49.683594 16.632812 L 49.683594 16.703125 L 49.539062 29.191406 C 50.648438 30.234375 53.089844 33.449219 56.863281 38.84375 L 62.15625 48.847656 L 69.917969 65.453125 L 69.410156 62.542969 C 69.410156 58.570312 69.726562 53.554688 70.355469 47.5 L 71.296875 34.867188 L 70.714844 19.683594 L 71.007812 18.902344 L 71.078125 18.832031 L 71.152344 18.902344 C 71.730469 20.558594 71.902344 23.230469 71.660156 26.921875 L 72.023438 34.941406 L 71.078125 47.710938 C 70.449219 53.671875 70.136719 58.617188 70.136719 62.542969 C 70.136719 63.207031 70.449219 64.648438 71.078125 66.871094 L 72.675781 63.535156 C 74.027344 60.839844 75.042969 58.996094 75.722656 58 L 82.757812 48.421875 C 89.285156 38.582031 93.828125 32.386719 96.390625 29.832031 C 96.148438 28.316406 95.738281 27.015625 95.160156 25.925781 L 92.039062 18.476562 L 92.039062 18.40625 L 92.113281 18.191406 L 92.476562 18.121094 L 92.765625 18.335938 C 93.296875 18.902344 94.3125 21.246094 95.8125 25.359375 L 96.683594 29.546875 L 96.683594 29.476562 L 97.042969 29.546875 L 97.117188 29.832031 L 96.898438 30.113281 C 97.578125 31.628906 98.859375 32.386719 100.742188 32.386719 C 104.902344 32.386719 108.671875 31.9375 112.058594 31.035156 L 111.550781 30.894531 C 112.035156 30.183594 112.277344 28.859375 112.277344 26.921875 C 112.277344 23.988281 111.9375 22.046875 111.261719 21.101562 C 109.035156 18.074219 107.390625 16.230469 106.328125 15.566406 L 106.328125 15.355469 C 109.421875 14.359375 112.203125 13.132812 114.667969 11.664062 L 115.03125 12.304688 L 116.265625 14.929688 L 118.730469 21.882812 C 119.746094 23.824219 120.398438 25.597656 120.6875 27.203125 L 120.6875 27.277344 L 120.90625 27.277344 L 121.050781 27.558594 L 120.835938 28.128906 L 120.835938 29.902344 C 120.929688 30.847656 121.292969 31.652344 121.921875 32.3125 C 122.839844 36.949219 123.90625 40.78125 125.113281 43.808594 L 127.433594 56.582031 L 127.578125 57.292969 L 127.941406 59.421875 L 129.101562 66.800781 L 129.101562 69.355469 C 128.957031 71.105469 129.390625 74.867188 130.40625 80.636719 L 130.335938 80.636719 C 127.484375 85.039062 126.203125 87.898438 126.492188 89.222656 L 126.347656 89.296875 L 126.203125 84.113281 L 125.910156 79.007812 L 124.75 69.992188 L 124.679688 69.992188 L 124.679688 69.640625 L 124.460938 68.789062 L 124.605469 68.714844 C 123.347656 47.476562 119.671875 35.011719 113.582031 31.320312 C 109.277344 32.550781 104.972656 33.164062 100.671875 33.164062 C 98.300781 33.164062 96.921875 32.503906 96.535156 31.179688 L 96.464844 30.539062 C 93.03125 34.277344 90.589844 37.234375 89.140625 39.410156 L 83.191406 48.988281 C 81.449219 50.691406 78.9375 54.382812 75.648438 60.058594 L 71.296875 67.863281 L 72.601562 72.265625 C 72.601562 75.578125 72.964844 78.203125 73.691406 80.140625 C 77.898438 79.527344 83.578125 75.199219 90.734375 67.15625 L 90.878906 67.15625 C 89.332031 72.027344 84.714844 78.675781 77.027344 87.09375 L 77.097656 87.238281 L 76.953125 87.378906 L 76.519531 87.734375 L 76.375 87.804688 L 76.226562 87.875 L 76.15625 87.664062 L 76.226562 87.449219 L 75.9375 86.8125 L 75.9375 88.445312 L 75.867188 88.515625 L 75.648438 88.515625 C 75.503906 88.515625 75.117188 87.070312 74.488281 84.1875 L 72.457031 79.929688 L 72.53125 79.714844 C 72.09375 78.675781 71.875 77.824219 71.875 77.160156 L 71.875 72.265625 L 70.859375 68.789062 C 69.460938 67.414062 66.269531 60.816406 61.289062 48.988281 C 58.484375 42.507812 54.46875 36.121094 49.246094 29.832031 C 47.941406 31.484375 44.171875 32.3125 37.933594 32.3125 C 35.46875 32.3125 32.082031 31.792969 27.777344 30.753906 C 24.105469 29.855469 21.6875 29.097656 20.527344 28.480469 L 20.234375 28.339844 L 20.234375 28.054688 L 20.527344 27.984375 L 20.671875 27.914062 L 27.777344 29.832031 C 31.066406 31.011719 33.558594 31.605469 35.25 31.605469 C 41.292969 31.605469 45.28125 31.132812 47.214844 30.183594 L 48.523438 28.980469 L 48.8125 28.410156 L 48.8125 24.296875 L 49.175781 16.632812 M 112.492188 178.351562 L 112.277344 178.207031 L 112.785156 177.996094 L 112.929688 177.925781 L 112.855469 177.855469 L 112.710938 177.78125 L 113.582031 177.429688 L 113.796875 177.355469 L 114.304688 177.144531 L 115.394531 176.433594 L 115.539062 176.503906 L 117.644531 175.371094 L 118.441406 174.800781 L 122.285156 171.820312 L 125.476562 166.855469 L 126.347656 165.222656 L 128.304688 159.402344 L 128.8125 156.847656 L 128.8125 156.707031 L 128.886719 156.707031 L 129.609375 150.960938 L 130.554688 141.023438 L 129.753906 134.992188 L 128.230469 127.257812 C 127.265625 124.515625 126.296875 122.195312 125.332031 120.304688 L 120.980469 113.5625 L 122.210938 112.429688 L 126.855469 107.601562 L 128.085938 102.707031 L 129.101562 97.953125 C 129.101562 97.335938 128.765625 96.132812 128.085938 94.332031 L 127.652344 94.617188 L 127.433594 94.546875 L 127.214844 94.6875 L 127.144531 94.617188 L 127.070312 94.546875 L 127.070312 94.476562 L 127.214844 94.191406 L 127.363281 94.050781 L 127.796875 93.625 L 127.722656 93.339844 L 127.652344 93.199219 L 127.796875 93.128906 L 129.03125 90.429688 L 130.480469 86.742188 L 130.769531 91.777344 L 131.0625 91.566406 L 131.207031 91.777344 L 130.84375 92.0625 L 130.84375 92.347656 L 130.769531 96.390625 L 130.988281 96.390625 L 131.0625 96.179688 L 131.132812 96.179688 L 131.132812 101.925781 L 135.921875 146.632812 L 135.773438 146.632812 L 135.773438 147.625 L 136.574219 171.679688 C 136.378906 172.578125 136.089844 173.289062 135.703125 173.808594 L 131.714844 175.511719 L 128.957031 176.152344 L 128.738281 176.433594 L 128.523438 176.433594 L 128.523438 176.578125 C 127.84375 177.050781 126.78125 177.332031 125.332031 177.429688 L 113.4375 177.925781 L 112.929688 178.207031 L 112.636719 178.351562 L 112.492188 178.351562 M 79.273438 154.4375 L 78.839844 150.605469 L 77.898438 142.726562 C 79.058594 144.855469 80.871094 147.460938 83.335938 150.535156 C 84.253906 151.714844 85.828125 153.371094 88.050781 155.5 L 91.316406 158.410156 L 91.894531 158.695312 L 92.039062 158.835938 L 91.824219 159.050781 C 87.46875 159.050781 83.3125 157.535156 79.347656 154.507812 L 79.273438 154.4375 M 63.609375 81.558594 L 63.390625 81.277344 L 63.609375 81.207031 L 64.261719 81.984375 L 68.105469 84.824219 L 72.601562 87.378906 L 75.867188 89.011719 L 75.867188 125.34375 L 75.722656 125.34375 L 75.722656 128.394531 L 75.574219 128.324219 L 67.597656 130.308594 C 70.355469 127.992188 71.730469 126.40625 71.730469 125.554688 L 71.585938 125.199219 L 71.367188 125.199219 C 71.320312 127.046875 69.820312 128.773438 66.871094 130.382812 L 66.871094 130.453125 L 61.214844 131.160156 L 61.214844 131.089844 L 61.140625 131.089844 L 60.996094 131.160156 L 60.851562 131.160156 L 60.78125 131.019531 L 60.632812 130.949219 L 60.851562 130.808594 L 61.433594 130.167969 L 61.503906 130.167969 L 62.664062 128.75 C 63.101562 128.179688 63.585938 127.78125 64.117188 127.542969 L 64.550781 126.40625 L 64.988281 121.796875 C 64.988281 118.339844 64.792969 115.644531 64.40625 113.707031 C 64.308594 110.0625 64.066406 107.367188 63.679688 105.617188 C 62.859375 102.066406 61.3125 98.378906 59.039062 94.546875 L 55.847656 89.4375 C 61.84375 87.640625 64.839844 85.722656 64.839844 83.6875 C 63.875 82.886719 63.390625 82.175781 63.390625 81.558594 L 63.535156 81.488281 L 63.609375 81.558594 M 57.515625 85.039062 C 56.742188 85.652344 55.414062 85.960938 53.527344 85.960938 C 45.113281 85.960938 39.433594 84.421875 36.480469 81.347656 L 36.410156 81.417969 L 30.171875 73.753906 L 30.171875 73.613281 L 29.882812 72.761719 L 30.171875 72.121094 L 30.316406 71.980469 L 30.390625 71.980469 L 30.535156 72.265625 L 38.296875 73.683594 C 41.535156 74.394531 44 75.292969 45.695312 76.378906 C 47.628906 77.65625 51.496094 80.449219 57.296875 84.753906 L 57.515625 85.039062 M 63.679688 165.789062 L 63.898438 165.789062 L 64.117188 166.289062 L 64.332031 166.214844 L 67.015625 165.933594 L 74.199219 165.292969 L 74.632812 164.9375 C 74.488281 166.3125 74.464844 167.824219 74.558594 169.480469 L 74.558594 169.621094 L 74.269531 171.609375 L 73.039062 176.789062 L 72.964844 176.859375 L 72.601562 177.429688 L 72.382812 177.996094 L 72.3125 178.207031 L 71.222656 178.847656 L 57.878906 180.550781 L 57.589844 180.90625 L 57.371094 180.835938 L 57.296875 180.761719 L 57.226562 180.835938 L 57.152344 180.761719 L 57.371094 180.621094 L 58.457031 179.484375 L 58.605469 179.203125 L 58.894531 179.132812 C 61.3125 176.578125 62.785156 174.542969 63.316406 173.027344 L 63.390625 172.816406 L 63.390625 172.746094 L 63.316406 172.816406 L 63.101562 172.886719 L 63.027344 172.816406 L 62.957031 172.671875 L 63.027344 172.53125 C 61.675781 171.394531 60.660156 169.386719 59.980469 166.5 L 59.835938 166.5 L 63.679688 166.289062 L 63.679688 165.789062 M 63.824219 171.679688 L 63.753906 171.609375 L 63.824219 171.679688 M 17.914062 168.0625 L 17.914062 167.917969 L 18.132812 167.917969 L 18.710938 168.132812 C 20.648438 168.085938 22.582031 167.328125 24.515625 165.863281 L 24.515625 165.648438 L 24.734375 165.648438 L 24.804688 165.71875 L 24.878906 166.144531 L 25.3125 165.222656 L 25.457031 164.9375 L 25.601562 165.222656 L 23.863281 168.414062 L 23.355469 168.984375 L 23.0625 169.410156 L 22.992188 169.410156 L 21.902344 169.835938 L 18.929688 169.195312 L 18.132812 168.414062 L 17.84375 168.132812 L 17.914062 168.0625 M 19.074219 169.054688 L 19.148438 169.125 L 19.148438 169.054688 L 19.074219 169.054688 M 24.296875 167.636719 L 24.371094 167.421875 L 23.863281 168.273438 L 24.296875 167.707031 L 24.296875 167.636719 M 125.402344 167.5625 L 122.648438 171.609375 L 124.96875 168.628906 L 125.546875 167.351562 L 125.402344 167.5625 "/>
<path style=" stroke:none;fill-rule:evenodd;fill:rgb(40.000001%,40.000001%,40.000001%);fill-opacity:1;" d="M 20.671875 122.648438 L 20.597656 122.71875 L 20.527344 122.503906 L 18.421875 118.742188 L 18.277344 118.601562 L 18.351562 118.601562 L 18.421875 118.53125 C 19.292969 119.242188 20.089844 120.566406 20.816406 122.503906 L 20.671875 122.648438 M 90.734375 67.15625 L 90.953125 66.871094 L 91.316406 66.445312 L 91.023438 66.941406 L 90.878906 67.15625 L 90.734375 67.15625 M 30.390625 71.980469 L 30.679688 71.839844 L 30.824219 71.980469 L 30.753906 72.050781 L 30.535156 72.265625 L 30.390625 71.980469 M 57.296875 84.753906 L 57.660156 84.894531 L 57.515625 85.039062 L 57.296875 84.753906 M 36.480469 81.347656 L 36.410156 81.488281 L 36.410156 81.417969 L 36.480469 81.347656 M 58.894531 179.132812 L 58.605469 179.203125 L 59.113281 178.707031 L 58.894531 179.132812 M 59.621094 166.5 L 59.835938 166.5 L 59.621094 166.5 "/>
<path style=" stroke:none;fill-rule:evenodd;fill:rgb(100%,100%,100%);fill-opacity:1;" d="M 16.535156 100.082031 L 16.535156 100.011719 L 16.609375 100.082031 L 16.535156 100.082031 M 19.003906 136.269531 L 19.367188 132.722656 L 22.121094 133.644531 C 26.183594 135.441406 29.519531 136.53125 32.128906 136.910156 C 35.371094 137.855469 40.421875 138.328125 47.289062 138.328125 C 64.746094 138.328125 74.199219 137.714844 75.648438 136.484375 L 75.574219 140.742188 L 72.382812 140.953125 L 72.457031 141.167969 L 62.304688 141.308594 L 46.417969 140.597656 L 30.824219 139.605469 L 19.003906 136.269531 M 19.582031 129.175781 L 19.4375 129.175781 L 26.402344 132.792969 C 30.074219 134.308594 34.089844 135.066406 38.441406 135.066406 C 51.207031 135.066406 59.230469 134.921875 62.519531 134.640625 L 67.742188 133.789062 C 70.742188 133.457031 73.398438 132.886719 75.722656 132.085938 L 75.648438 136.414062 L 74.414062 136.269531 L 71.875 136.625 L 68.03125 137.195312 L 64.839844 137.121094 L 47.289062 137.902344 L 34.304688 136.839844 L 27.488281 135.207031 L 21.6875 133.148438 L 21.542969 133.148438 L 21.542969 133.21875 L 19.4375 132.4375 L 19.367188 132.4375 L 19.367188 132.226562 L 19.074219 125.910156 C 22.703125 128.511719 27.296875 130.238281 32.855469 131.089844 L 52.730469 131.941406 C 58.191406 131.941406 63.34375 131.421875 68.175781 130.382812 L 75.722656 128.535156 L 75.722656 131.871094 C 73.980469 132.535156 71.609375 133.054688 68.613281 133.433594 L 38.441406 134.640625 C 34.136719 134.640625 30.339844 133.976562 27.054688 132.652344 C 23.863281 130.996094 21.371094 129.835938 19.582031 129.175781 M 17.625 152.734375 L 17.550781 152.945312 C 20.984375 154.320312 25.941406 155.667969 32.421875 156.992188 C 41.222656 158.835938 49.511719 159.757812 57.296875 159.757812 C 58.75 159.757812 64.71875 158.648438 75.214844 156.421875 L 75.140625 160.183594 L 72.890625 160.894531 L 66.292969 161.957031 C 65.761719 162.761719 60.875 163.164062 51.640625 163.164062 L 44.023438 162.667969 C 43.542969 162.289062 43.035156 162.054688 42.503906 161.957031 L 31.839844 160.46875 C 22.558594 157.960938 17.625 156.707031 17.042969 156.707031 L 16.972656 156.707031 L 17.769531 148.40625 L 22.484375 149.824219 C 23.0625 149.964844 24.199219 150.511719 25.894531 151.457031 C 30.679688 153.113281 34.574219 154.082031 37.570312 154.367188 C 39.550781 154.554688 44.894531 154.648438 53.597656 154.648438 L 70.5 154.082031 L 72.964844 153.441406 L 75.285156 152.09375 L 75.214844 156.210938 C 64.867188 158.292969 57.804688 159.332031 54.035156 159.332031 L 41.339844 158.199219 L 32.203125 156.421875 L 25.023438 155.003906 L 21.324219 154.011719 L 17.769531 152.734375 L 17.625 152.734375 M 63.679688 165.789062 L 45.257812 166.144531 L 34.960938 166.003906 C 33.460938 165.386719 30.269531 164.558594 25.386719 163.519531 L 16.609375 160.679688 L 16.609375 159.617188 L 16.972656 157.132812 C 32.347656 161.4375 44.824219 163.589844 54.398438 163.589844 L 66.65625 162.3125 C 70.621094 161.652344 73.449219 161.035156 75.140625 160.46875 L 75.066406 162.3125 L 74.707031 164.441406 C 73.253906 165.058594 69.652344 165.507812 63.898438 165.789062 L 63.679688 165.789062 M 15.160156 171.46875 L 15.160156 170.828125 L 15.230469 171.46875 L 15.160156 171.46875 "/>
<path style=" stroke:none;fill-rule:evenodd;fill:rgb(0%,0%,40.000001%);fill-opacity:1;" d="M 16.027344 160.539062 L 15.8125 160.539062 C 15.375 162.953125 15.132812 165.222656 15.085938 167.351562 L 7.761719 166.996094 L 6.960938 166.570312 L 5.511719 166.214844 C 4.304688 165.980469 3.699219 165.4375 3.699219 164.585938 C 3.699219 163.257812 4.230469 160.375 5.292969 155.925781 C 6.359375 151.480469 6.890625 146.394531 6.890625 140.671875 L 6.601562 127.328125 C 5.632812 121.273438 5.148438 116.757812 5.148438 113.777344 L 5.222656 110.652344 C 5.269531 109.992188 5.488281 109.449219 5.875 109.023438 C 6.40625 108.3125 9.9375 107.886719 16.464844 107.746094 L 16.609375 108.3125 L 18.640625 125.484375 L 18.566406 125.484375 L 18.640625 125.554688 L 19.003906 132.15625 L 18.785156 136.554688 L 18.710938 136.625 L 18.785156 136.625 L 17.550781 145.851562 L 17.40625 148.050781 L 17.335938 148.050781 L 17.261719 148.191406 L 17.40625 148.261719 L 17.042969 152.804688 C 16.5625 154.175781 16.296875 156.28125 16.246094 159.121094 L 16.101562 160.539062 L 16.027344 160.539062 M 17.769531 148.121094 L 17.914062 146.207031 L 18.929688 136.695312 C 24.78125 138.683594 28.671875 139.746094 30.609375 139.890625 L 51.0625 141.804688 L 70.644531 141.734375 L 73.253906 141.378906 L 75.574219 140.882812 L 75.285156 151.667969 L 72.675781 153.089844 L 70.644531 153.65625 L 53.597656 154.222656 L 37.714844 154.082031 C 34.863281 153.894531 31.140625 152.992188 26.546875 151.386719 C 21.757812 149.351562 18.832031 148.261719 17.769531 148.121094 "/>
<path style="fill:none;stroke-width:1;stroke-linecap:round;stroke-linejoin:round;stroke:rgb(0%,0%,0%);stroke-opacity:1;stroke-miterlimit:4;" d="M 13.051038 9.79923 L 13.051038 9.650599 L 13.349947 8.549632 C 13.883135 6.650463 14.866033 3.482429 16.301333 -0.948965 L 16.500606 -0.899421 L 16.449441 -0.701247 L 19.099227 -0.200307 L 21.199666 0.551103 L 32.049244 1.698862 L 32.800555 1.800701 M 32.849027 1.599775 L 32.251209 1.500688 L 21.501268 0.39972 C 20.267933 -0.266365 18.800318 -0.717762 17.101116 -0.948965 L 16.250169 -1.248979 L 16.050896 -1.149891 L 16.099368 -0.948965 C 14.833719 2.483301 13.716177 5.984378 12.749436 9.54876 L 12.800601 9.601056 L 12.700965 9.749687 L 12.749436 11.299298 L 12.700965 11.299298 C 12.900237 13.09938 12.816758 15.334344 12.450528 17.998685 L 11.400308 24.549442 L 10.250452 31.149742 C 9.749578 33.882894 9.499141 36.065562 9.499141 37.700498 L 9.598777 42.998904 L 9.900379 45.949497 L 9.900379 50.149688 L 9.94885 50.199232 L 9.900379 50.650628 L 9.900379 51.099272 L 9.800742 51.44883 L 9.849214 51.999313 L 9.800742 53.449838 C 9.800742 55.216891 9.900379 57.000458 10.099651 58.80054 L 10.099651 64.500799 L 10.250452 65.700854 L 6.450811 65.700854 L 6.450811 65.750397 C 5.449063 65.684339 4.633123 65.799941 4.000298 66.099954 C 2.734649 66.099954 2.099131 66.851365 2.099131 68.34868 L 2.150295 69.199178 L 2.198767 70.201058 L 3.200515 79.650112 C 3.432102 81.717178 3.499424 84.898974 3.399788 89.201004 C 3.399788 92.867226 3.033557 96.36555 2.301096 99.698729 C 1.565942 102.998879 1.199712 105.115489 1.199712 106.051312 C 1.199712 107.44954 3.900662 108.148655 9.299868 108.148655 L 9.299868 108.850521 L 9.200232 110.199207 L 9.149068 110.100119 L 9.00096 110.100119 L 9.00096 111.999288 L 8.901323 111.999288 C 8.965952 113.301182 10.333931 114.382883 12.999873 115.249895 L 16.950315 116.601332 L 17.599297 116.749963 L 17.650462 116.799507 L 18.899954 116.84905 L 21.151194 117.049977 L 20.348719 116.95089 L 24.851199 117.250903 L 24.851199 117.149064 L 26.450765 117.34999 L 25.349381 117.300447 L 27.000111 117.399534 L 31.949608 117.798635 L 32.498954 117.850931 L 33.449537 117.850931 L 35.999686 117.749091 L 39.099181 117.749091 C 41.167306 117.749091 44.366437 117.250903 48.699266 116.249023 L 48.750431 116.301319 L 48.901232 116.301319 L 48.949704 116.199479 L 49.148976 116.149936 L 49.148976 116.001305 L 49.200141 116.001305 L 49.450578 115.048968 C 49.983766 113.5489 50.317682 111.765333 50.449633 109.701019 L 50.751234 105.899929 L 51.050143 103.100719 L 50.850871 103.75029 L 50.850871 103.100719 L 51.149779 102.998879 L 50.850871 102.899792 L 50.998978 100.249213 L 51.050143 100.199669 L 50.998978 100.150126 L 50.998978 98.950071 L 51.050143 97.100446 L 51.149779 97.001359 L 51.050143 97.001359 L 51.249415 89.201004 L 51.249415 88.950534 L 51.400216 89.049621 L 51.448688 89.000078 L 51.249415 88.950534 L 51.349052 83.049349 L 51.448688 82.999805 L 51.349052 82.900718 L 51.349052 80.398769 C 51.717975 82.300691 52.000727 85.083386 52.199999 88.749608 C 52.267321 90.648777 52.533915 93.500282 52.999782 97.301373 C 53.032096 99.200541 53.382169 102.049295 54.050002 105.850385 L 54.599347 110.100119 C 54.499711 111.567159 54.865941 112.932358 55.700732 114.201223 L 55.251022 114.201223 L 55.199857 114.30031 L 55.251022 114.399397 L 56.349713 114.501237 L 56.400878 114.550781 L 56.750951 114.550781 L 58.999499 114.949881 L 63.84936 115.401278 C 65.316974 115.632481 65.901328 115.783864 65.599726 115.849922 L 70.500751 115.849922 L 71.149733 115.899466 L 76.449304 115.750835 M 53.549127 98.900528 L 53.250219 96.200405 L 52.601237 90.648777 C 53.40102 92.148845 54.650512 93.984708 56.349713 96.150862 C 56.982538 96.982092 58.067765 98.149118 59.600009 99.649186 L 61.851249 101.699738 L 62.249794 101.900664 M 51.200944 52.45071 L 51.200944 52.599341 L 46.200282 49.750587 L 41.748966 46.450437 C 40.550638 45.616454 39.433097 44.515487 38.399034 43.150287 L 35.999686 39.899681 L 35.90005 39.899681 L 35.951214 39.949224 C 38.083968 43.183316 39.917814 45.382499 41.450057 46.549524 L 42.750714 47.548652 L 42.599913 47.350478 L 42.750714 47.300935 L 43.200424 47.848666 L 45.850209 49.849674 L 48.949704 51.649756 L 51.200944 52.800267 L 51.200944 78.400513 L 51.101308 78.400513 L 51.101308 80.550152 L 50.998978 80.500609 L 45.500136 81.898838 C 47.401303 80.266653 48.349193 79.149171 48.349193 78.549144 L 48.249557 78.298674 L 48.098756 78.298674 C 48.066442 79.600568 47.032379 80.817137 44.999262 81.951134 M 40.849547 82.498865 L 35.100267 82.749335 L 28.798949 82.650248 L 27.44982 80.800623 L 27.299019 80.850166 C 27.533299 81.65112 27.883372 82.251147 28.349239 82.650248 L 20.451048 81.898838 C 19.015748 81.199723 17.400025 80.134537 15.601187 78.700527 L 13.150674 76.501345 M 10.350088 60.600622 L 10.500889 60.600622 L 10.549361 59.700581 C 10.215445 57.834441 10.051179 55.767375 10.051179 53.499382 L 10.150816 52.70118 L 10.648997 48.049593 L 10.549361 47.900962 L 10.449724 48.14868 L 10.150816 46.051337 L 10.051179 43.700771 L 9.900379 43.700771 M 9.900379 43.651228 L 9.849214 43.0512 L 9.749578 37.700498 C 9.749578 35.801329 10.298924 31.749769 11.400308 25.551322 C 12.498999 19.350123 13.051038 15.367373 13.051038 13.60032 L 12.948709 11.849782 L 13.051038 10.148787 M 13.051038 9.79923 L 13.150674 9.749687 L 18.049007 11.101124 C 20.316404 11.932355 22.034456 12.350722 23.200469 12.350722 C 27.366341 12.350722 30.115763 12.01768 31.448734 11.348842 L 32.350846 10.501097 L 32.550118 10.099244 L 32.550118 7.200947 L 32.800555 1.800701 M 33.099464 1.649318 L 39.898964 2.450272 L 52.848981 3.251226 C 59.917768 3.251226 65.901328 2.499816 70.79966 0.999748 L 76.198867 -1.050804 C 76.56779 -1.749919 77.065971 -2.099476 77.698796 -2.099476 L 77.801125 -2.099476 L 77.849597 -2.049932 L 78.000398 -2.000389 L 78.250835 -1.901302 L 78.151198 -1.799462 L 78.950981 -0.299394 C 79.683442 1.167645 80.367431 3.066814 81.000256 5.400865 C 81.732717 6.867904 82.416706 9.215717 83.049531 12.449809 L 85.050334 19.69968 L 85.201135 20.250164 L 85.448879 20.998822 L 86.999973 29.999231 L 87.751284 35.300389 L 88.551067 40.651091 L 88.400266 40.700635 L 88.349102 40.400621 L 89.251213 48.000049 L 89.049248 50.149688 L 89.200049 52.899354 L 89.251213 52.899354 C 89.517808 54.933392 89.649758 56.917886 89.649758 58.850084 L 89.601287 59.351024 L 89.601287 59.400567 C 89.800559 62.934673 90.250269 68.183535 90.950415 75.149907 L 92.848889 93.048886 L 92.800418 94.49941 L 92.749253 94.49941 L 93.349763 105.649458 L 93.301292 107.799097 L 93.648672 111.550644 L 93.648672 111.999288 L 93.751001 111.900201 L 93.6002 112.048832 L 93.549036 112.101128 L 93.500564 112.101128 L 93.400928 112.150671 L 93.4494 112.200215 L 92.649617 112.701155 L 92.601145 112.750699 L 92.39918 112.948873 L 92.299544 112.899329 C 90.53302 114.066355 89.016934 114.666382 87.751284 114.699411 C 87.350046 115.101264 86.482942 115.332467 85.149971 115.401278 L 76.54894 115.750835 L 76.750905 115.648996 L 77.100979 115.450821 L 85.300771 115.101264 C 86.299827 115.032454 87.032288 114.83428 87.500847 114.501237 L 87.500847 114.399397 L 87.648955 114.399397 L 87.799756 114.201223 L 89.700923 113.749827 L 92.450344 112.549772 C 92.716939 112.1837 92.916211 111.68276 93.050855 111.049704 L 92.498816 94.10031 L 92.498816 93.401195 L 92.601145 93.401195 L 89.299685 61.899763 L 89.299685 57.850956 M 62.34943 3.050299 L 62.34943 3.099843 L 64.501035 8.348705 C 64.899579 9.11663 65.182331 10.033186 65.349289 11.101124 C 63.582765 12.901206 60.450956 17.266542 55.951169 24.199885 L 51.101308 30.948815 C 50.632748 31.650682 49.932601 32.949824 49.000868 34.848993 L 47.899484 37.199558 C 47.465931 35.633432 47.250502 34.617789 47.250502 34.149878 C 47.250502 31.383697 47.465931 27.899135 47.899484 23.698944 L 48.551159 14.701288 L 48.300722 9.050572 C 48.46768 6.449537 48.349193 4.566882 47.950648 3.399857 M 47.851012 3.399857 L 47.649047 3.95034 L 48.050285 14.648992 L 47.401303 23.550314 C 46.96775 27.816563 46.749628 31.350668 46.749628 34.149878 L 47.099701 36.20043 L 41.748966 24.499898 L 38.100126 17.450954 C 35.498812 13.649864 33.815768 11.384623 33.050992 10.649727 L 33.150628 1.850245 M 88.798811 46.899082 L 88.750339 46.899082 C 86.784543 50.001057 85.901282 52.015828 86.100554 52.948898 L 86.000918 53.001194 L 85.901282 49.348734 L 85.699316 45.751323 L 84.899534 39.398741 L 84.851062 39.398741 L 84.851062 39.151023 L 84.700261 38.550996 L 84.799897 38.4987 C 83.932793 23.533799 81.398801 14.750831 77.200615 12.149796 C 74.233071 13.016808 71.265527 13.448937 68.300676 13.448937 C 66.666103 13.448937 65.715519 12.983779 65.448925 12.050709 L 65.400453 11.599312 C 63.03342 14.233377 61.350375 16.316958 60.35132 17.850055 L 56.250077 24.598985 C 55.049057 25.79904 53.317541 28.400076 51.050143 32.39934 L 48.050285 37.898672 L 48.949704 41.000648 C 48.949704 43.334699 49.200141 45.184325 49.701015 46.549524 C 52.601237 46.117395 56.516671 43.067715 61.450011 37.400485 M 61.600812 37.199558 L 61.700448 36.800457 L 61.851249 36.800457 L 61.950886 36.998632 C 61.950886 38.56751 60.534435 41.234604 57.698842 44.999913 L 52.049198 51.550669 M 89.251213 57.850956 L 89.200049 57.999586 L 89.049248 57.999586 L 89.100413 55.150833 L 89.100413 54.949906 L 89.35085 54.74898 L 89.251213 54.600349 L 89.049248 54.74898 L 88.849976 51.201112 L 87.85092 53.799395 L 86.999973 55.701317 L 86.900337 55.75086 L 86.948809 55.849947 M 81.649238 68.648694 L 81.350329 68.70099 L 81.299165 68.599151 L 83.701206 63.399832 L 81.649238 68.648694 M 62.34943 3.050299 L 52.900146 3.55124 L 47.950648 3.399857 M 19.950174 41.000648 L 25.300909 41.999776 C 27.533299 42.500717 29.232501 43.133773 30.401207 43.898945 C 31.734178 44.798986 34.400121 46.766965 38.399034 49.800131 M 12.399363 81.100636 C 13.632698 81.565795 15.35075 82.383263 17.550826 83.550289 C 19.81553 84.483359 22.433001 84.95127 25.400545 84.95127 L 46.200282 84.100773 C 48.265714 83.833788 49.900287 83.467716 51.101308 82.999805 L 51.101308 80.64924 L 45.89868 81.951134 C 42.567599 82.683277 39.015702 83.049349 35.251068 83.049349 L 21.549739 82.449321 C 17.717784 81.849294 14.550967 80.632725 12.04929 78.799614 L 12.251255 83.250275 L 12.251255 83.398906 L 12.299727 83.398906 L 13.751184 83.94939 L 13.751184 83.899846 L 13.850821 83.899846 L 17.849734 85.350371 L 22.548795 86.500882 L 31.499898 87.24954 L 43.598968 86.699056 L 45.799044 86.751352 L 48.448829 86.349499 L 50.199196 86.099029 L 51.050143 86.200868 L 51.101308 83.151188 C 49.499049 83.715434 47.667897 84.117287 45.599772 84.351243 L 41.999403 84.95127 C 39.732006 85.149444 34.200848 85.251284 25.400545 85.251284 C 22.400687 85.251284 19.632415 84.717314 17.101116 83.649376 L 12.299727 81.100636 L 12.399363 81.100636 M 12.000818 86.099029 L 20.149446 88.449594 L 30.899388 89.148708 L 41.851295 89.649649 L 48.850067 89.550562 L 48.798903 89.399179 L 50.998978 89.250548 L 51.050143 86.250412 C 50.051088 87.117423 43.53434 87.549553 31.499898 87.549553 C 26.765831 87.549553 23.283948 87.216511 21.048865 86.550425 C 19.250027 86.283441 16.950315 85.515516 14.149729 84.249403 L 12.251255 83.599832 L 12.000818 86.099029 M 11.149871 94.449867 C 11.882332 94.548954 13.899292 95.316879 17.200752 96.750889 C 20.367569 97.882133 22.933875 98.517942 24.899671 98.650058 L 35.848885 98.749145 L 47.600575 98.350044 L 49.000868 97.950943 L 50.799706 96.949063 L 50.998978 89.349635 L 49.399413 89.699192 L 47.600575 89.949662 L 34.101212 89.999206 L 20.001338 88.650521 C 18.665674 88.548681 15.983575 87.800023 11.949654 86.399042 L 11.249507 93.101182 L 11.149871 94.449867 M 11.050235 97.700473 L 11.149871 97.700473 L 13.600384 98.600514 L 16.150533 99.299629 L 21.10003 100.298757 L 27.398656 101.551107 L 36.150487 102.349308 C 38.749108 102.349308 43.617819 101.617165 50.751234 100.150126 L 50.799706 97.249077 L 49.200141 98.198661 L 47.500939 98.650058 L 35.848885 99.049158 C 29.849168 99.049158 26.165321 98.9831 24.800035 98.850984 C 22.734603 98.650058 20.04981 97.967458 16.751043 96.800432 C 15.582337 96.134347 14.798711 95.749008 14.400166 95.649921 L 11.149871 94.650793 L 10.600525 100.499683 L 10.648997 100.499683 C 11.050235 100.499683 14.451331 101.38321 20.849593 103.150262 L 28.201131 104.198934 C 28.567362 104.267744 28.917435 104.432889 29.248658 104.699874 L 34.499757 105.049431 C 40.865704 105.049431 44.234486 104.765932 44.600717 104.198934 L 49.148976 103.450276 L 50.70007 102.949336 L 50.751234 100.298757 C 43.515489 101.867635 39.400782 102.649322 38.399034 102.649322 C 33.032142 102.649322 27.317869 101.999751 21.250831 100.70061 C 16.783357 99.76754 13.366104 98.817955 10.99907 97.849104 L 11.050235 97.700473 M 37.849689 77.649103 C 37.849689 78.183072 37.432294 79.350098 36.600196 81.15018 L 36.301288 81.051093 C 37.300343 78.816129 37.733895 77.365604 37.599252 76.699519 L 37.750052 76.699519 L 37.849689 77.649103 M 42.949987 106.899057 C 46.916586 106.700882 49.399413 106.384354 50.401161 105.949472 L 50.648905 104.449404 L 50.70007 103.150262 C 49.534057 103.549363 47.584418 103.984245 44.851154 104.449404 L 36.400924 105.349445 C 29.800697 105.349445 21.199666 103.832862 10.600525 100.799697 L 10.350088 102.550235 L 10.350088 103.298893 L 16.40097 105.299901 C 19.767059 106.032045 21.967134 106.615557 23.001197 107.05044 L 30.099605 107.149527 L 42.799186 106.899057 L 42.949987 106.899057 M 40.149401 107.399997 L 40.249037 107.399997 C 40.717596 109.434034 41.417743 110.848777 42.349476 111.649731 L 42.301005 111.748818 L 42.349476 111.850658 M 11.249507 108.500964 L 11.249507 108.399125 L 11.400308 108.399125 L 11.798853 108.550508 C 13.134517 108.517479 14.467488 107.98351 15.800459 106.951353 L 15.800459 106.799969 L 15.95126 106.799969 L 15.999732 106.849513 " transform="matrix(1.450589,0,0,1.419206,1.595648,14.077246)"/>
</g>
</svg>
