<?xml version="1.0" encoding="UTF-8"?>
<svg xmlns="http://www.w3.org/2000/svg" xmlns:xlink="http://www.w3.org/1999/xlink" width="59px" height="26px" viewBox="0 0 59 26" version="1.1">
<g id="surface1">
<path style=" stroke:none;fill-rule:evenodd;fill:rgb(0%,0%,0%);fill-opacity:1;" d="M 34.46875 17.496094 L 34.15625 17.746094 C 33.691406 17.746094 33.460938 17.558594 33.460938 17.1875 L 34.65625 15.328125 L 36.042969 13.652344 L 37.804688 12.347656 L 39.816406 11.542969 L 40.949219 11.167969 L 50.195312 11.167969 L 50.195312 11.046875 L 50.570312 10.984375 C 50.738281 10.570312 50.949219 10.320312 51.199219 10.238281 L 51.261719 10.300781 L 52.207031 9.0625 C 52.585938 9.0625 52.730469 9.289062 52.648438 9.742188 L 52.332031 11.046875 L 52.585938 11.046875 L 55.101562 9.558594 C 55.476562 9.558594 55.667969 9.765625 55.667969 10.175781 L 55.039062 10.859375 L 56.042969 10.488281 L 55.730469 10.859375 L 56.296875 10.859375 C 57.511719 10.859375 58.121094 11.046875 58.121094 11.417969 C 58.121094 11.789062 57.46875 11.976562 56.167969 11.976562 L 55.730469 11.976562 C 54.472656 14.953125 53.402344 16.960938 52.519531 17.992188 L 52.269531 18.304688 L 53.023438 18.988281 L 53.589844 19.730469 C 53.589844 20.1875 53.402344 20.414062 53.023438 20.414062 L 51.640625 18.800781 L 51.453125 18.863281 L 46.609375 19.421875 L 44.785156 19.421875 C 39.542969 19.378906 36.503906 18.945312 35.664062 18.117188 L 35.726562 17.933594 L 35.476562 17.871094 L 35.414062 17.621094 C 35.414062 17.289062 35.621094 17.105469 36.042969 17.0625 L 36.105469 17.1875 L 36.230469 17.0625 L 36.417969 17.0625 L 39.753906 17.496094 L 39.4375 17.0625 L 38.996094 14.769531 L 39.0625 14.644531 L 38.933594 14.457031 L 39.0625 13.277344 C 37.71875 13.859375 36.964844 14.273438 36.796875 14.519531 L 34.65625 17.4375 L 34.59375 17.4375 L 34.34375 17.496094 L 34.46875 17.496094 M 56.796875 5.277344 L 53.90625 6.207031 L 47.425781 6.578125 L 45.097656 7.261719 C 44.007812 7.46875 41.660156 8.316406 38.054688 9.804688 C 37.257812 10.054688 36.648438 10.34375 36.230469 10.671875 C 35.433594 10.878906 34.972656 11.085938 34.847656 11.292969 L 32.140625 12.90625 L 31.511719 12.90625 L 31.449219 12.597656 L 31.511719 12.597656 L 30.882812 11.914062 L 30.882812 11.046875 L 35.160156 7.757812 C 35.414062 7.425781 37.132812 6.929688 40.320312 6.269531 L 43.148438 5.585938 C 44.660156 5.050781 46.460938 4.78125 48.558594 4.78125 L 55.539062 5.089844 L 56.734375 5.089844 L 56.796875 5.277344 M 54.34375 5.460938 L 48.558594 5.277344 L 46.230469 5.460938 C 43.003906 5.917969 40.320312 6.601562 38.179688 7.507812 C 36 7.714844 34.59375 8.335938 33.964844 9.371094 L 31.074219 11.542969 L 31.828125 12.347656 L 34.910156 10.425781 C 35.160156 10.136719 36.0625 9.824219 37.613281 9.496094 L 39.625 8.503906 C 39.710938 8.417969 40.488281 8.128906 41.953125 7.632812 C 42.164062 7.386719 43.128906 7.054688 44.847656 6.640625 L 46.355469 6.207031 L 53.023438 5.898438 L 54.34375 5.460938 M 49.566406 10.425781 L 49.878906 10.550781 L 49.691406 10.859375 L 49.25 10.859375 L 49.125 10.488281 L 47.804688 10.488281 L 47.550781 10.550781 L 45.855469 10.488281 L 45.792969 10.796875 L 40.128906 10.796875 C 38.746094 11.003906 37.46875 11.605469 36.292969 12.597656 L 34.910156 13.960938 L 34.089844 15.449219 L 33.777344 15.449219 C 33.691406 15.449219 33.671875 15.328125 33.714844 15.078125 C 33.671875 14.996094 33.691406 14.890625 33.777344 14.769531 L 33.839844 14.644531 L 33.777344 14.457031 L 36.417969 12.039062 C 37.550781 10.714844 39.480469 10.054688 42.207031 10.054688 L 42.332031 10.054688 L 42.644531 9.929688 L 45.035156 9.992188 L 44.910156 10.117188 L 45.289062 10.175781 L 47.804688 10.054688 L 47.867188 9.929688 L 49.691406 10.238281 L 49.566406 10.425781 M 50.066406 12.222656 L 50.066406 12.164062 L 41.136719 12.535156 L 39.816406 12.84375 C 40.109375 13.300781 40.191406 14.292969 40.066406 15.824219 C 40.277344 16.648438 40.738281 17.289062 41.449219 17.746094 L 41.449219 17.871094 L 41.828125 17.933594 L 42.207031 17.871094 L 45.351562 18.304688 L 46.355469 18.242188 C 47.613281 17.828125 48.515625 16.898438 49.0625 15.449219 L 49.753906 13.277344 L 50.195312 12.347656 L 50.066406 12.222656 M 53.96875 13.589844 L 54.34375 13.402344 L 54.21875 13.277344 L 55.039062 11.851562 L 50.761719 12.101562 L 50.507812 13.277344 L 50.445312 13.277344 L 50.445312 13.402344 L 50.066406 15.824219 L 48.9375 17.933594 L 50.949219 17.621094 L 53.339844 14.644531 L 53.96875 13.589844 M 42.898438 14.457031 L 43.023438 14.457031 L 43.085938 14.332031 L 43.023438 14.085938 C 43.148438 13.507812 43.589844 13.21875 44.34375 13.21875 C 44.972656 13.21875 45.351562 13.628906 45.476562 14.457031 L 45.351562 15.574219 L 45.160156 15.824219 L 45.226562 15.824219 L 44.597656 16.257812 L 43.96875 16.503906 C 43.378906 16.503906 43.023438 16.277344 42.898438 15.824219 L 42.898438 14.457031 M 29.941406 11.292969 L 30.316406 10.859375 L 30.316406 11.789062 L 29.941406 11.292969 M 17.675781 8.128906 L 21.195312 11.046875 L 21.195312 11.109375 L 21.386719 11.109375 L 21.386719 11.355469 L 20.695312 12.84375 L 20.695312 12.90625 L 20.441406 13.21875 L 18.679688 11.726562 L 17.800781 11.046875 L 17.863281 11.355469 L 16.855469 10.300781 C 15.894531 9.226562 14.214844 8.6875 11.824219 8.6875 L 11.195312 8.6875 L 11.320312 8.75 L 11.132812 8.6875 C 8.367188 8.730469 5.640625 9.082031 2.957031 9.742188 L 2.578125 9.742188 L 2.578125 9.496094 L 2.515625 9.496094 L 2.453125 9.246094 C 2.410156 8.875 3.019531 8.398438 4.277344 7.820312 L 5.21875 7.324219 L 5.785156 7.074219 L 6.414062 7.011719 L 10.945312 6.953125 L 16.292969 7.261719 L 17.484375 8.128906 L 17.675781 8.128906 M 18.617188 9.371094 L 18.367188 9.558594 L 17.234375 8.8125 L 16.417969 8.128906 L 15.660156 7.882812 L 15.347656 7.507812 L 10.882812 7.507812 C 7.066406 7.507812 4.71875 7.882812 3.835938 8.625 L 3.207031 9.121094 C 6.058594 8.417969 8.972656 8.089844 11.949219 8.128906 L 14.59375 8.191406 L 14.71875 8.378906 L 15.097656 8.503906 L 15.726562 8.75 C 16.1875 8.957031 16.5625 9.207031 16.855469 9.496094 L 17.421875 10.117188 L 17.484375 10.117188 L 20.316406 12.535156 L 20.757812 11.230469 L 19.121094 9.742188 L 18.617188 9.371094 M 18.617188 12.285156 L 18.617188 12.410156 L 18.617188 12.285156 M 17.421875 13.960938 L 17.675781 14.148438 L 17.738281 14.148438 C 16.730469 11.996094 15.199219 10.878906 13.144531 10.796875 L 13.144531 10.859375 L 12.644531 10.921875 L 10.441406 10.921875 L 9.75 10.984375 L 9.5625 10.921875 L 8.804688 10.921875 L 8.679688 11.230469 L 8.367188 11.230469 L 8.304688 10.984375 L 8.429688 10.796875 L 8.367188 10.671875 L 8.429688 10.613281 L 8.429688 10.550781 L 8.554688 10.425781 L 9.496094 10.300781 L 9.5625 10.425781 L 10.945312 10.425781 L 11.320312 10.363281 L 11.257812 10.363281 L 12.203125 10.300781 L 12.957031 10.300781 C 15.683594 10.261719 17.589844 11.8125 18.679688 14.953125 L 18.554688 15.386719 L 18.367188 15.386719 L 18.367188 15.511719 L 18.304688 15.882812 L 18.179688 15.882812 L 17.421875 13.960938 M 17.863281 17.933594 L 17.925781 17.871094 L 17.800781 17.808594 L 17.738281 17.808594 L 16.417969 14.953125 L 15.597656 14.085938 L 15.03125 13.652344 L 15.097656 14.890625 L 15.03125 15.015625 L 15.097656 15.078125 L 14.78125 17.4375 L 14.59375 17.871094 L 15.597656 17.621094 L 16.667969 17.4375 L 16.730469 17.4375 L 16.855469 17.558594 L 16.855469 17.4375 C 17.109375 17.476562 17.253906 17.664062 17.296875 17.992188 L 17.296875 18.242188 L 17.109375 18.367188 L 17.171875 18.492188 C 16.921875 18.863281 16.394531 19.152344 15.597656 19.359375 L 11.449219 19.730469 L 10.253906 19.730469 C 8.867188 19.691406 7.882812 19.503906 7.296875 19.171875 L 7.171875 19.171875 L 6.289062 20.785156 C 6.039062 20.785156 5.933594 20.558594 5.976562 20.101562 L 6.289062 19.359375 L 6.792969 18.675781 L 6.667969 18.367188 C 6.082031 17.332031 5.386719 15.304688 4.589844 12.285156 L 4.277344 12.285156 C 3.523438 12.285156 3.144531 12.101562 3.144531 11.726562 C 3.144531 11.355469 3.523438 11.191406 4.277344 11.230469 L 4.589844 11.230469 L 4.402344 10.921875 L 5.03125 11.230469 L 4.65625 10.488281 C 4.65625 10.117188 4.78125 9.949219 5.03125 9.992188 L 6.605469 11.417969 L 6.730469 11.417969 C 6.605469 11.128906 6.542969 10.671875 6.542969 10.054688 C 6.5 9.597656 6.605469 9.371094 6.855469 9.371094 L 7.421875 10.671875 L 7.863281 11.355469 L 8.050781 11.417969 L 8.050781 11.542969 L 13.902344 11.542969 L 14.402344 11.726562 L 14.46875 11.789062 L 14.59375 12.039062 L 14.65625 12.039062 L 16.039062 12.96875 L 16.921875 14.023438 L 17.738281 15.761719 L 18.554688 17.558594 C 18.554688 17.890625 18.410156 18.054688 18.113281 18.054688 L 17.863281 17.933594 M 8.175781 12.535156 L 8.113281 12.535156 L 8.113281 12.597656 L 8.050781 12.78125 L 8.367188 13.652344 L 8.804688 15.882812 C 9.140625 17.289062 9.6875 18.179688 10.441406 18.550781 L 11.132812 18.675781 L 13.082031 18.242188 L 13.273438 18.367188 L 13.460938 18.242188 L 13.460938 18.054688 C 13.921875 17.640625 14.234375 17.023438 14.402344 16.195312 C 14.320312 14.664062 14.363281 13.671875 14.53125 13.21875 L 13.710938 12.90625 L 8.175781 12.535156 M 28.117188 15.265625 L 28.117188 15.328125 L 27.992188 15.265625 L 28.117188 15.265625 M 7.925781 13.835938 L 7.925781 13.652344 L 7.863281 13.652344 L 7.738281 12.472656 L 5.03125 12.222656 L 5.597656 13.652344 L 5.535156 13.835938 L 5.722656 13.960938 L 6.164062 15.015625 L 7.609375 17.992188 L 8.867188 18.367188 L 8.175781 16.195312 L 7.925781 13.835938 M 11.132812 16.195312 L 11.257812 16.195312 L 11.132812 15.945312 L 11.007812 14.832031 C 11.089844 14.003906 11.34375 13.589844 11.761719 13.589844 C 12.179688 13.589844 12.453125 13.878906 12.578125 14.457031 L 12.515625 14.707031 L 12.578125 14.832031 L 12.644531 14.890625 L 12.644531 16.195312 C 12.558594 16.648438 12.347656 16.878906 12.015625 16.878906 L 11.511719 16.628906 L 11.132812 16.195312 "/>
<path style=" stroke:none;fill-rule:evenodd;fill:rgb(11.764706%,8.627451%,7.450981%);fill-opacity:1;" d="M 50.066406 12.164062 L 50.066406 12.222656 L 50.195312 12.347656 L 49.753906 13.277344 L 46.355469 16.070312 L 45.226562 15.824219 L 45.160156 15.824219 L 45.351562 15.574219 L 45.476562 14.457031 C 45.351562 13.628906 44.972656 13.21875 44.34375 13.21875 C 43.589844 13.21875 43.148438 13.507812 43.023438 14.085938 L 43.085938 14.332031 L 43.023438 14.457031 L 42.898438 14.457031 L 42.773438 14.519531 C 42.5625 13.941406 42.375 13.652344 42.207031 13.652344 L 41.703125 14.644531 L 42.207031 16.257812 L 42.457031 17.0625 L 42.207031 17.871094 L 41.828125 17.933594 L 41.449219 17.871094 L 41.449219 17.746094 C 40.738281 17.289062 40.277344 16.648438 40.066406 15.824219 C 40.191406 14.292969 40.109375 13.300781 39.816406 12.84375 L 41.136719 12.535156 L 50.066406 12.164062 M 8.175781 12.535156 L 13.710938 12.90625 L 14.53125 13.21875 C 14.363281 13.671875 14.320312 14.664062 14.402344 16.195312 C 14.234375 17.023438 13.921875 17.640625 13.460938 18.054688 L 13.460938 18.242188 L 13.273438 18.367188 L 13.082031 18.242188 C 12.957031 18.078125 12.894531 17.808594 12.894531 17.4375 C 12.851562 16.980469 12.914062 16.710938 13.082031 16.628906 L 13.398438 15.015625 L 13.082031 14.023438 C 12.914062 14.023438 12.789062 14.332031 12.707031 14.953125 L 12.644531 14.890625 L 12.578125 14.832031 L 12.515625 14.707031 L 12.578125 14.457031 C 12.453125 13.878906 12.179688 13.589844 11.761719 13.589844 C 11.34375 13.589844 11.089844 14.003906 11.007812 14.832031 L 11.132812 15.945312 L 11.257812 16.195312 L 11.132812 16.195312 L 10.441406 16.441406 L 8.367188 13.652344 L 8.050781 12.78125 L 8.113281 12.597656 L 8.175781 12.535156 "/>
<path style=" stroke:none;fill-rule:evenodd;fill:rgb(30.588236%,26.274511%,25.490198%);fill-opacity:1;" d="M 49.753906 13.277344 L 49.0625 15.449219 C 48.515625 16.898438 47.613281 17.828125 46.355469 18.242188 L 45.351562 18.304688 L 42.207031 17.871094 L 42.457031 17.0625 L 42.207031 16.257812 L 41.703125 14.644531 L 42.207031 13.652344 C 42.375 13.652344 42.5625 13.941406 42.773438 14.519531 L 42.898438 14.457031 L 42.898438 15.824219 C 43.023438 16.277344 43.378906 16.503906 43.96875 16.503906 L 44.597656 16.257812 L 45.226562 15.824219 L 46.355469 16.070312 L 49.753906 13.277344 M 13.082031 18.242188 L 11.132812 18.675781 L 10.441406 18.550781 C 9.6875 18.179688 9.140625 17.289062 8.804688 15.882812 L 8.367188 13.652344 L 10.441406 16.441406 L 11.132812 16.195312 L 11.511719 16.628906 L 12.015625 16.878906 C 12.347656 16.878906 12.558594 16.648438 12.644531 16.195312 L 12.644531 14.890625 L 12.707031 14.953125 C 12.789062 14.332031 12.914062 14.023438 13.082031 14.023438 L 13.398438 15.015625 L 13.082031 16.628906 C 12.914062 16.710938 12.851562 16.980469 12.894531 17.4375 C 12.894531 17.808594 12.957031 18.078125 13.082031 18.242188 "/>
<path style=" stroke:none;fill-rule:evenodd;fill:rgb(80.000001%,80.000001%,80.000001%);fill-opacity:1;" d="M 35.664062 18.117188 L 35.539062 18.179688 L 34.46875 17.496094 L 34.34375 17.496094 L 34.59375 17.4375 L 34.65625 17.4375 L 36.796875 14.519531 C 36.964844 14.273438 37.71875 13.859375 39.0625 13.277344 L 38.933594 14.457031 L 39.0625 14.644531 L 38.996094 14.769531 L 36.292969 17 L 36.105469 17.1875 L 36.042969 17.0625 C 35.621094 17.105469 35.414062 17.289062 35.414062 17.621094 L 35.476562 17.871094 L 35.726562 17.933594 L 35.664062 18.117188 M 50.445312 13.402344 L 50.445312 13.277344 L 50.507812 13.277344 L 50.761719 12.101562 L 55.039062 11.851562 L 54.21875 13.277344 L 54.34375 13.402344 L 53.96875 13.589844 L 53.527344 13.652344 L 51.199219 13.527344 L 51.074219 13.777344 L 50.570312 13.777344 L 50.445312 13.402344 M 51.199219 13.527344 L 50.695312 13.21875 L 50.695312 13.277344 L 51.136719 13.527344 L 51.199219 13.527344 M 17.863281 17.933594 L 17.234375 18.492188 L 17.171875 18.492188 L 17.109375 18.367188 L 17.296875 18.242188 L 17.296875 17.992188 C 17.253906 17.664062 17.109375 17.476562 16.855469 17.4375 L 16.855469 17.558594 L 16.730469 17.4375 L 16.730469 17.375 L 15.597656 15.882812 L 15.097656 15.078125 L 15.03125 15.015625 L 15.097656 14.890625 L 15.03125 13.652344 L 15.597656 14.085938 L 16.417969 14.953125 L 17.738281 17.808594 L 17.800781 17.808594 L 17.925781 17.871094 L 17.863281 17.933594 M 5.722656 13.960938 L 5.535156 13.835938 L 5.597656 13.652344 L 5.03125 12.222656 L 7.738281 12.472656 L 7.863281 13.652344 L 7.925781 13.652344 L 7.925781 13.835938 L 7.863281 14.148438 L 7.484375 14.148438 L 7.421875 13.898438 L 5.976562 14.023438 L 5.722656 13.960938 M 7.421875 13.898438 L 7.484375 13.898438 L 7.738281 13.652344 L 7.738281 13.589844 L 7.421875 13.898438 "/>
<path style=" stroke:none;fill-rule:evenodd;fill:rgb(100%,100%,100%);fill-opacity:1;" d="M 38.996094 14.769531 L 39.4375 17.0625 L 39.753906 17.496094 L 36.417969 17.0625 L 36.292969 17 L 38.996094 14.769531 M 53.96875 13.589844 L 53.339844 14.644531 L 50.949219 17.621094 L 48.9375 17.933594 L 50.066406 15.824219 L 50.445312 13.402344 L 50.570312 13.777344 L 51.074219 13.777344 L 51.199219 13.527344 L 53.527344 13.652344 L 53.96875 13.589844 M 15.097656 15.078125 L 15.597656 15.882812 L 16.730469 17.375 L 16.667969 17.4375 L 15.597656 17.621094 L 14.59375 17.871094 L 14.78125 17.4375 L 15.097656 15.078125 M 7.925781 13.835938 L 8.175781 16.195312 L 8.867188 18.367188 L 7.609375 17.992188 L 6.164062 15.015625 L 5.722656 13.960938 L 5.976562 14.023438 L 7.421875 13.898438 L 7.484375 14.148438 L 7.863281 14.148438 L 7.925781 13.835938 "/>
<path style=" stroke:none;fill-rule:evenodd;fill:rgb(55.29412%,21.176471%,27.450982%);fill-opacity:1;" d="M 54.34375 5.460938 L 53.023438 5.898438 L 46.355469 6.207031 L 44.847656 6.640625 C 43.128906 7.054688 42.164062 7.386719 41.953125 7.632812 C 40.488281 8.128906 39.710938 8.417969 39.625 8.503906 L 37.613281 9.496094 C 36.0625 9.824219 35.160156 10.136719 34.910156 10.425781 L 31.828125 12.347656 L 31.074219 11.542969 L 33.964844 9.371094 C 34.59375 8.335938 36 7.714844 38.179688 7.507812 C 40.320312 6.601562 43.003906 5.917969 46.230469 5.460938 L 48.558594 5.277344 L 54.34375 5.460938 M 18.617188 9.371094 L 19.121094 9.742188 L 20.757812 11.230469 L 20.316406 12.535156 L 17.484375 10.117188 L 17.421875 10.117188 L 16.855469 9.496094 C 16.5625 9.207031 16.1875 8.957031 15.726562 8.75 L 15.097656 8.503906 L 14.71875 8.378906 L 14.59375 8.191406 L 11.949219 8.128906 C 8.972656 8.089844 6.058594 8.417969 3.207031 9.121094 L 3.835938 8.625 C 4.71875 7.882812 7.066406 7.507812 10.882812 7.507812 L 15.347656 7.507812 L 15.660156 7.882812 L 16.417969 8.128906 L 17.234375 8.8125 L 18.367188 9.558594 L 18.617188 9.371094 "/>
</g>
</svg>
