<?xml version="1.0" encoding="UTF-8"?>
<svg xmlns="http://www.w3.org/2000/svg" xmlns:xlink="http://www.w3.org/1999/xlink" width="59px" height="26px" viewBox="0 0 59 26" version="1.1">
<g id="surface1">
<path style=" stroke:none;fill-rule:evenodd;fill:rgb(12.54902%,11.764706%,12.941177%);fill-opacity:1;" d="M 54.410156 3.910156 L 54.21875 3.972656 L 52.710938 4.347656 L 51.957031 4.71875 L 47.363281 5.835938 C 44.429688 6.332031 42.773438 6.785156 42.394531 7.199219 L 40.257812 7.882812 C 39.082031 8.128906 37.320312 8.8125 34.972656 9.929688 L 32.394531 11.355469 L 32.140625 11.542969 L 31.765625 11.667969 L 31.703125 11.667969 L 31.765625 11.667969 L 32.898438 10.238281 L 33.273438 9.867188 L 33.714844 9.308594 L 36.355469 7.945312 L 39.3125 6.578125 L 44.15625 5.214844 L 45.289062 4.84375 L 49.3125 4.035156 L 51.578125 3.230469 L 52.710938 3.105469 L 54.09375 3.105469 L 54.410156 3.910156 M 35.035156 14.644531 L 34.910156 14.644531 L 34.847656 14.519531 L 34.65625 14.394531 L 34.71875 14.394531 L 34.65625 14.332031 L 37.046875 12.101562 C 37.132812 11.933594 37.65625 11.625 38.621094 11.167969 C 39.460938 10.757812 40.128906 10.507812 40.632812 10.425781 C 42.5625 9.515625 44.574219 9.0625 46.671875 9.0625 C 49.0625 9.0625 50.78125 9.390625 51.828125 10.054688 C 52.792969 10.671875 53.757812 10.984375 54.722656 10.984375 L 56.105469 10.921875 C 56.191406 10.714844 56.628906 10.589844 57.425781 10.550781 L 58.621094 10.550781 C 58.875 10.589844 59 10.671875 59 10.796875 C 59 11.003906 58.75 11.148438 58.246094 11.230469 L 57.425781 11.789062 L 55.101562 13.339844 L 52.269531 15.824219 L 52.019531 16.007812 L 51.957031 16.007812 L 52.019531 15.882812 L 51.957031 15.761719 L 51.765625 15.761719 L 51.703125 15.824219 L 51.578125 15.699219 L 51.703125 15.449219 L 51.765625 15.449219 L 52.019531 15.015625 L 52.019531 14.769531 L 52.207031 14.023438 L 52.394531 13.09375 L 51.390625 11.789062 L 48.683594 10.859375 L 48.496094 10.859375 L 48.808594 11.480469 L 49.375 12.597656 L 49.375 12.660156 C 49.292969 12.660156 49.273438 12.699219 49.3125 12.78125 L 49.375 12.78125 L 49.691406 14.769531 L 49.25 17.496094 L 48.621094 18.800781 L 48.308594 19.730469 L 49.125 19.484375 L 49.503906 19.484375 L 49.4375 19.730469 L 49.3125 19.855469 L 47.050781 20.042969 L 47.300781 19.855469 L 47.550781 19.792969 L 47.679688 19.792969 L 47.550781 19.730469 C 48.558594 17.582031 49.082031 15.925781 49.125 14.769531 C 49.125 13.238281 48.664062 11.933594 47.742188 10.859375 L 46.042969 10.859375 L 43.652344 11.230469 L 43.210938 11.230469 L 41.261719 11.726562 L 40.886719 11.726562 C 40.214844 11.6875 39.542969 11.933594 38.871094 12.472656 L 38.683594 12.597656 L 38.496094 13.714844 C 38.496094 15.121094 39.101562 17.167969 40.320312 19.855469 L 40.320312 19.980469 L 40.886719 19.980469 L 40.949219 20.042969 L 41.074219 19.980469 L 43.527344 19.980469 L 46.796875 19.855469 L 46.984375 20.042969 L 46.230469 20.101562 L 46.921875 20.164062 L 47.804688 20.164062 L 47.488281 20.226562 L 41.074219 20.660156 L 38.808594 20.660156 L 38.433594 20.597656 L 38.179688 20.164062 L 39.753906 19.980469 C 39.375 19.605469 38.957031 18.574219 38.496094 16.878906 L 38.054688 15.140625 L 37.929688 13.589844 L 37.929688 13.03125 L 37.488281 13.339844 L 36.796875 13.714844 L 35.285156 14.644531 L 35.285156 14.519531 L 34.972656 14.519531 L 35.035156 14.644531 M 43.023438 7.945312 L 44.46875 7.695312 L 45.539062 7.632812 C 46.421875 7.632812 46.859375 7.738281 46.859375 7.945312 L 43.96875 8.378906 L 42.644531 8.625 C 42.394531 8.542969 42.121094 8.605469 41.828125 8.8125 L 39.375 9.804688 C 38.285156 10.21875 37.59375 10.570312 37.300781 10.859375 L 35.914062 12.101562 L 35.539062 11.726562 C 35.539062 11.191406 36.585938 10.40625 38.683594 9.371094 C 40.109375 8.667969 41.515625 8.191406 42.898438 7.945312 L 43.023438 7.945312 M 17.550781 11.851562 L 17.421875 12.285156 L 16.417969 11.109375 C 16.164062 10.820312 15.683594 10.507812 14.96875 10.175781 L 13.335938 9.308594 L 12.769531 9.183594 L 11.949219 9.0625 L 10.0625 8.75 C 10.023438 8.542969 10.292969 8.417969 10.882812 8.378906 L 12.015625 8.378906 L 12.078125 8.441406 C 13.082031 8.605469 14.109375 9 15.160156 9.617188 L 15.660156 9.867188 L 17.359375 11.292969 L 17.550781 11.605469 L 17.550781 11.851562 M 19.058594 10.238281 L 19.183594 10.300781 L 19.121094 10.238281 L 19.058594 10.238281 M 18.492188 10.300781 L 15.914062 8.8125 L 13.144531 7.570312 L 12.894531 7.570312 L 9.625 7.261719 L 9.371094 7.324219 L 8.238281 7.011719 L 7.988281 7.011719 L 5.472656 6.394531 L 5.15625 6.457031 C 4.78125 6.332031 4.527344 6.207031 4.402344 6.082031 L 4.84375 5.402344 L 7.042969 5.710938 L 8.050781 5.957031 L 9.183594 5.957031 L 11.761719 6.207031 L 15.535156 7.136719 L 15.597656 7.199219 L 15.535156 7.199219 L 16.101562 7.449219 L 16.855469 7.820312 L 17.988281 8.75 L 20.882812 11.605469 C 19.835938 10.777344 19.039062 10.34375 18.492188 10.300781 M 7.609375 17.0625 L 7.421875 16.9375 L 5.347656 14.582031 L 3.773438 13.21875 L 3.144531 12.722656 L 2.640625 12.285156 L 2.894531 12.039062 L 2.957031 11.976562 L 3.648438 11.976562 C 4.109375 11.976562 4.402344 12.078125 4.527344 12.285156 L 5.347656 12.222656 C 5.933594 12.183594 6.519531 11.832031 7.109375 11.167969 L 7.546875 10.796875 C 8.136719 10.300781 9.058594 9.992188 10.316406 9.867188 C 11.617188 9.742188 12.914062 10.074219 14.214844 10.859375 C 14.550781 10.902344 15.011719 11.109375 15.597656 11.480469 L 16.667969 12.347656 L 18.367188 14.394531 L 18.304688 14.457031 L 18.367188 14.457031 L 18.304688 14.582031 L 18.242188 14.769531 L 18.179688 14.769531 L 18.179688 14.582031 L 18.050781 14.582031 L 17.988281 14.707031 L 16.984375 13.898438 L 16.480469 13.589844 L 16.164062 13.277344 L 16.226562 13.835938 L 16.292969 15.386719 L 16.164062 17.1875 L 15.976562 19.171875 L 15.660156 20.351562 L 16.730469 20.414062 L 16.605469 20.847656 L 16.355469 20.910156 L 14.90625 21.035156 C 13.105469 21.199219 11.742188 21.199219 10.820312 21.035156 L 10.628906 20.972656 L 11.195312 20.910156 L 11.574219 20.847656 L 11.132812 20.785156 L 11.195312 20.660156 L 11.257812 20.597656 L 11.320312 20.597656 L 13.335938 20.539062 L 14.84375 20.351562 L 14.96875 20.414062 L 14.96875 20.351562 L 15.285156 20.351562 L 15.285156 20.226562 L 15.472656 19.234375 C 15.851562 16.960938 15.996094 15.222656 15.914062 14.023438 L 15.660156 12.90625 L 15.535156 12.78125 C 15.03125 12.285156 14.59375 12.078125 14.214844 12.164062 L 13.964844 12.222656 L 12.644531 11.789062 L 12.390625 11.851562 L 10.882812 11.605469 L 9.8125 11.726562 C 9.308594 12.804688 9.121094 14.128906 9.246094 15.699219 C 9.332031 16.648438 9.707031 17.972656 10.378906 19.667969 L 10.691406 20.539062 L 10.628906 20.597656 L 10.882812 20.597656 L 11.070312 20.785156 L 9.625 20.722656 L 9.5625 20.660156 L 9.433594 20.414062 L 9.6875 20.351562 L 10.253906 20.597656 L 10 19.730469 L 10 19.667969 L 9.433594 18.429688 C 9.140625 17.4375 8.972656 16.527344 8.933594 15.699219 L 8.933594 13.714844 L 8.996094 13.714844 L 8.867188 13.589844 L 8.867188 13.527344 L 9.183594 12.410156 L 9.308594 11.789062 L 9.183594 11.789062 L 7.738281 12.722656 L 7.546875 12.84375 L 7.042969 14.210938 L 7.296875 15.140625 L 7.484375 15.882812 L 7.484375 16.070312 L 7.671875 16.503906 L 7.800781 16.753906 L 7.738281 16.878906 L 7.671875 16.816406 L 7.609375 16.816406 L 7.546875 16.9375 L 7.609375 17.0625 "/>
<path style=" stroke:none;fill-rule:evenodd;fill:rgb(80.000001%,80.000001%,80.000001%);fill-opacity:1;" d="M 35.789062 16.195312 L 35.035156 14.953125 L 35.035156 14.644531 L 34.972656 14.519531 L 35.285156 14.519531 L 35.285156 14.644531 L 36.796875 13.714844 L 37.488281 13.339844 L 37.929688 13.03125 L 37.929688 13.589844 L 38.054688 15.140625 L 37.992188 15.140625 C 37.992188 15.347656 37.257812 15.699219 35.789062 16.195312 M 49.375 12.78125 L 49.3125 12.78125 C 49.273438 12.699219 49.292969 12.660156 49.375 12.660156 L 49.375 12.597656 L 48.808594 11.480469 L 48.496094 10.859375 L 48.683594 10.859375 L 51.390625 11.789062 L 52.394531 13.09375 L 52.207031 14.023438 L 52.019531 14.769531 L 52.019531 15.015625 L 51.765625 15.449219 L 51.578125 15.449219 L 51.578125 15.078125 L 51.765625 15.015625 L 51.328125 13.835938 C 51.074219 13.382812 50.425781 13.03125 49.375 12.78125 M 7.671875 16.503906 L 7.484375 16.070312 L 7.484375 15.882812 L 7.296875 15.140625 L 7.042969 14.210938 L 7.546875 12.84375 L 7.738281 12.722656 L 9.183594 11.789062 L 9.308594 11.789062 L 9.183594 12.410156 L 8.867188 13.527344 L 8.867188 13.589844 L 8.996094 13.714844 L 8.933594 13.714844 C 8.386719 13.960938 8.050781 14.273438 7.925781 14.644531 L 7.800781 14.890625 L 7.609375 16.070312 L 7.738281 16.132812 L 7.800781 16.503906 L 7.671875 16.503906 M 16.292969 15.386719 L 16.226562 13.835938 L 16.164062 13.277344 L 16.480469 13.589844 L 16.984375 13.898438 L 17.988281 14.707031 L 18.050781 14.582031 L 18.179688 14.582031 L 18.179688 15.015625 C 18.011719 15.304688 17.90625 15.738281 17.863281 16.320312 C 16.855469 15.945312 16.332031 15.636719 16.292969 15.386719 "/>
<path style=" stroke:none;fill-rule:evenodd;fill:rgb(35.686275%,32.156864%,28.627452%);fill-opacity:1;" d="M 47.550781 19.730469 L 47.679688 19.792969 L 47.550781 19.792969 L 47.550781 19.730469 M 46.796875 19.855469 L 46.609375 19.730469 L 46.671875 19.667969 L 46.859375 19.792969 L 46.796875 19.855469 M 10.691406 20.597656 L 10.628906 20.597656 L 10.691406 20.539062 L 10.691406 20.597656 M 11.257812 20.597656 L 11.195312 20.660156 L 11.132812 20.597656 L 11.320312 20.414062 L 11.320312 20.476562 L 11.257812 20.597656 "/>
<path style=" stroke:none;fill-rule:evenodd;fill:rgb(30.980393%,47.843137%,40.392157%);fill-opacity:1;" d="M 46.921875 19.855469 L 46.859375 19.917969 L 46.796875 19.855469 L 46.859375 19.792969 L 46.921875 19.855469 "/>
<path style=" stroke:none;fill-rule:evenodd;fill:rgb(0%,0%,0%);fill-opacity:1;" d="M 50.445312 18.863281 L 50.507812 19.046875 L 50.382812 19.296875 L 50.382812 19.421875 L 49.941406 19.730469 L 49.125 19.980469 L 48.371094 20.164062 L 46.921875 20.164062 L 46.230469 20.101562 L 46.984375 20.042969 L 47.050781 20.042969 L 49.3125 19.855469 L 49.4375 19.730469 L 49.503906 19.484375 L 50.003906 19.109375 L 50.066406 19.046875 L 50.195312 19.046875 L 50.445312 18.863281 M 9.433594 20.414062 L 9.5625 20.660156 L 9.625 20.722656 L 11.070312 20.785156 L 11.132812 20.785156 L 11.574219 20.847656 L 11.195312 20.910156 L 10.628906 20.972656 L 10.253906 21.035156 L 9.246094 20.660156 L 8.933594 20.414062 L 8.867188 20.289062 L 8.804688 19.980469 L 8.804688 19.792969 L 8.867188 19.855469 L 9.058594 20.042969 L 9.121094 19.980469 L 9.121094 20.042969 L 9.433594 20.414062 "/>
<path style=" stroke:none;fill-rule:evenodd;fill:rgb(100%,100%,100%);fill-opacity:1;" d="M 51.957031 16.007812 L 50.886719 17.683594 L 50.445312 18.863281 L 50.195312 19.046875 L 50.066406 19.046875 L 50.003906 19.109375 L 49.503906 19.484375 L 49.125 19.484375 L 48.308594 19.730469 L 48.621094 18.800781 L 49.25 17.496094 L 49.691406 14.769531 L 49.375 12.78125 C 50.425781 13.03125 51.074219 13.382812 51.328125 13.835938 L 51.765625 15.015625 L 51.578125 15.078125 L 51.578125 15.449219 L 51.703125 15.449219 L 51.578125 15.699219 L 51.703125 15.824219 L 51.765625 15.761719 L 51.957031 15.761719 L 52.019531 15.882812 L 51.957031 16.007812 M 38.179688 20.164062 C 37.339844 18.675781 36.609375 17.640625 35.980469 17.0625 L 35.789062 16.195312 C 37.257812 15.699219 37.992188 15.347656 37.992188 15.140625 L 38.054688 15.140625 L 38.496094 16.878906 C 38.957031 18.574219 39.375 19.605469 39.753906 19.980469 L 38.179688 20.164062 M 7.609375 17.0625 L 7.546875 16.9375 L 7.609375 16.816406 L 7.671875 16.816406 L 7.738281 16.878906 L 7.800781 16.753906 L 7.671875 16.503906 L 7.800781 16.503906 L 7.738281 16.132812 L 7.609375 16.070312 L 7.800781 14.890625 L 7.925781 14.644531 C 8.050781 14.273438 8.386719 13.960938 8.933594 13.714844 L 8.933594 15.699219 C 8.972656 16.527344 9.140625 17.4375 9.433594 18.429688 L 10 19.667969 L 10 19.730469 L 10.253906 20.597656 L 9.6875 20.351562 L 9.433594 20.414062 L 9.121094 20.042969 L 9.121094 19.980469 L 9.058594 20.042969 L 8.867188 19.855469 L 8.804688 19.792969 L 8.804688 19.855469 L 8.429688 18.675781 L 8.238281 18.304688 L 7.609375 17.0625 M 16.730469 20.414062 L 15.660156 20.351562 L 15.976562 19.171875 L 16.164062 17.1875 L 16.292969 15.386719 C 16.332031 15.636719 16.855469 15.945312 17.863281 16.320312 L 17.800781 17.1875 L 17.109375 19.109375 L 16.730469 20.414062 "/>
<path style=" stroke:none;fill-rule:evenodd;fill:rgb(63.921571%,58.431375%,54.901963%);fill-opacity:1;" d="M 11.320312 20.597656 L 11.257812 20.597656 L 11.320312 20.476562 L 11.320312 20.597656 "/>
<path style=" stroke:none;fill-rule:evenodd;fill:rgb(63.137257%,44.705883%,27.450982%);fill-opacity:1;" d="M 41.074219 19.980469 L 41.136719 19.730469 C 40.925781 19.605469 40.757812 19.191406 40.632812 18.492188 L 40.445312 17.0625 L 40.632812 15.449219 L 40.949219 14.457031 L 41.199219 13.777344 L 41.578125 13.777344 L 44.15625 13.402344 L 45.601562 13.402344 L 46.167969 13.464844 C 46.503906 13.464844 46.671875 13.527344 46.671875 13.652344 L 46.671875 13.714844 C 46.882812 13.753906 47.113281 14.394531 47.363281 15.636719 L 47.363281 17.496094 C 47.363281 19.070312 47.214844 19.855469 46.921875 19.855469 L 46.859375 19.792969 L 46.671875 19.667969 L 46.609375 19.730469 L 46.796875 19.855469 L 43.527344 19.980469 L 41.074219 19.980469 M 14.84375 20.351562 L 13.335938 20.539062 L 11.320312 20.597656 L 11.320312 20.414062 L 11.132812 20.597656 L 10.820312 19.667969 L 10.628906 18.304688 L 10.441406 16.441406 C 10.484375 15.203125 10.589844 14.5625 10.757812 14.519531 L 10.691406 14.394531 L 11.007812 14.210938 C 11.089844 14.128906 11.21875 14.085938 11.386719 14.085938 L 12.265625 14.023438 L 13.964844 14.210938 L 14.152344 14.273438 L 14.46875 14.890625 L 14.71875 15.882812 L 14.96875 17.4375 L 14.96875 19.296875 L 14.78125 20.164062 L 14.84375 20.351562 "/>
<path style=" stroke:none;fill-rule:evenodd;fill:rgb(47.843137%,30.980393%,14.117648%);fill-opacity:1;" d="M 41.074219 19.980469 L 40.949219 20.042969 L 40.886719 19.980469 L 40.320312 19.980469 L 40.320312 19.855469 C 39.101562 17.167969 38.496094 15.121094 38.496094 13.714844 L 38.683594 12.597656 L 38.871094 12.472656 C 39.542969 11.933594 40.214844 11.6875 40.886719 11.726562 L 41.261719 11.726562 L 43.210938 11.230469 L 43.652344 11.230469 L 46.042969 10.859375 L 47.742188 10.859375 C 48.664062 11.933594 49.125 13.238281 49.125 14.769531 C 49.082031 15.925781 48.558594 17.582031 47.550781 19.730469 L 47.550781 19.792969 L 47.300781 19.855469 L 47.050781 20.042969 L 46.984375 20.042969 L 46.859375 19.917969 L 46.921875 19.855469 C 47.214844 19.855469 47.363281 19.070312 47.363281 17.496094 L 47.363281 15.636719 C 47.113281 14.394531 46.882812 13.753906 46.671875 13.714844 L 46.671875 13.652344 C 46.671875 13.527344 46.503906 13.464844 46.167969 13.464844 L 45.601562 13.402344 L 44.15625 13.402344 L 41.578125 13.777344 L 41.199219 13.777344 L 40.949219 14.457031 L 40.632812 15.449219 L 40.445312 17.0625 L 40.632812 18.492188 C 40.757812 19.191406 40.925781 19.605469 41.136719 19.730469 L 41.074219 19.980469 M 11.070312 20.785156 L 10.882812 20.597656 L 10.691406 20.597656 L 10.691406 20.539062 L 10.378906 19.667969 C 9.707031 17.972656 9.332031 16.648438 9.246094 15.699219 C 9.121094 14.128906 9.308594 12.804688 9.8125 11.726562 L 10.882812 11.605469 L 12.390625 11.851562 L 12.644531 11.789062 L 13.964844 12.222656 L 14.214844 12.164062 C 14.59375 12.078125 15.03125 12.285156 15.535156 12.78125 L 15.660156 12.90625 L 15.914062 14.023438 C 15.996094 15.222656 15.851562 16.960938 15.472656 19.234375 L 15.285156 20.226562 L 15.285156 20.351562 L 14.96875 20.351562 L 14.96875 20.414062 L 14.84375 20.351562 L 14.78125 20.164062 L 14.96875 19.296875 L 14.96875 17.4375 L 14.71875 15.882812 L 14.46875 14.890625 L 14.152344 14.273438 L 13.964844 14.210938 L 12.265625 14.023438 L 11.386719 14.085938 C 11.21875 14.085938 11.089844 14.128906 11.007812 14.210938 L 10.691406 14.394531 L 10.757812 14.519531 C 10.589844 14.5625 10.484375 15.203125 10.441406 16.441406 L 10.628906 18.304688 L 10.820312 19.667969 L 11.132812 20.597656 L 11.195312 20.660156 L 11.132812 20.785156 L 11.070312 20.785156 "/>
</g>
</svg>
