<?xml version="1.0" encoding="UTF-8"?>
<svg xmlns="http://www.w3.org/2000/svg" xmlns:xlink="http://www.w3.org/1999/xlink" width="59px" height="26px" viewBox="0 0 59 26" version="1.1">
<g id="surface1">
<path style=" stroke:none;fill-rule:evenodd;fill:rgb(0%,0%,0%);fill-opacity:1;" d="M 49.0625 4.902344 L 49.125 5.152344 L 48.808594 5.152344 L 48.875 5.402344 L 43.839844 6.332031 C 43.296875 6.25 42.875 6.351562 42.582031 6.640625 L 41.261719 6.953125 L 41.136719 6.953125 C 40.128906 7.449219 39.3125 7.921875 38.683594 8.378906 C 35.035156 10.859375 32.980469 12.101562 32.519531 12.101562 C 32.058594 12.101562 31.367188 11.605469 30.445312 10.613281 L 30.003906 10.175781 L 30.003906 10.117188 L 30.066406 10.054688 L 30.253906 10.054688 C 30.632812 10.589844 31.199219 10.859375 31.953125 10.859375 C 34.554688 8.957031 36.105469 7.964844 36.609375 7.882812 L 38.621094 6.953125 L 38.621094 6.890625 C 38.578125 6.683594 39.332031 6.332031 40.886719 5.835938 C 42.8125 5.171875 44.953125 4.84375 47.300781 4.84375 L 49.0625 4.902344 M 35.351562 16.503906 L 35.285156 16.441406 L 35.285156 16.320312 L 36.292969 15.078125 L 37.804688 12.597656 L 37.109375 12.96875 C 36.480469 13.464844 35.832031 14.148438 35.160156 15.015625 L 35.035156 14.890625 C 35.621094 13.734375 36.230469 12.90625 36.859375 12.410156 L 36.984375 12.410156 L 37.171875 12.285156 L 38.496094 11.726562 L 41.199219 10.796875 L 41.386719 10.796875 L 41.703125 10.613281 L 48.875 10.175781 L 51.828125 10.921875 C 51.957031 10.589844 52.207031 10.238281 52.585938 9.867188 L 53.652344 9.121094 L 53.84375 9.246094 L 52.269531 11.046875 L 54.09375 11.480469 L 54.09375 12.597656 L 52.457031 14.890625 L 49.878906 18.179688 L 49.753906 18.367188 L 50.320312 18.863281 L 50.320312 18.988281 L 50.507812 19.484375 L 50.445312 19.667969 L 50.195312 19.667969 L 49.566406 18.738281 L 49.503906 18.675781 L 49.125 19.171875 L 48.558594 19.730469 L 48.558594 19.792969 L 49.628906 20.972656 L 49.566406 21.15625 L 49.4375 21.15625 C 49.3125 21.15625 49.082031 20.992188 48.746094 20.660156 L 48.371094 20.101562 L 48.308594 20.042969 L 48.242188 19.980469 L 46.859375 20.351562 L 46.796875 20.289062 L 43.96875 20.660156 L 39.5 19.855469 L 36.859375 19.421875 L 35.980469 19.171875 L 35.914062 18.863281 L 36.230469 18.863281 L 36.292969 18.800781 C 37.804688 18.839844 40.382812 19.339844 44.03125 20.289062 L 46.421875 20.101562 L 46.546875 20.101562 C 47.050781 20.101562 47.636719 19.730469 48.308594 18.988281 L 48.875 18.179688 L 49.753906 17.3125 L 49.878906 17 L 50.445312 16.257812 L 50.695312 15.945312 L 51.261719 14.769531 L 51.390625 14.769531 L 51.578125 14.457031 L 51.703125 14.394531 L 51.765625 14.273438 L 51.703125 14.148438 L 52.019531 13.15625 C 52.019531 12.617188 51.828125 12.265625 51.453125 12.101562 L 47.804688 11.292969 L 47.804688 11.230469 L 47.742188 11.230469 L 47.992188 12.660156 L 47.929688 13.21875 L 47.804688 13.277344 L 47.929688 13.464844 L 47.175781 16.257812 C 46.253906 18.324219 44.828125 19.359375 42.898438 19.359375 C 40.339844 19.359375 38.871094 18.015625 38.496094 15.328125 L 38.621094 15.140625 L 38.433594 15.078125 L 38.367188 13.898438 L 38.746094 13.09375 L 38.054688 13.652344 L 35.476562 16.503906 L 35.476562 16.441406 C 35.390625 16.402344 35.351562 16.421875 35.351562 16.503906 M 46.167969 15.824219 L 46.355469 15.386719 L 46.796875 12.90625 L 46.355469 11.230469 L 43.714844 11.355469 L 40.320312 12.472656 L 39.625 12.660156 L 39.4375 13.464844 L 39.4375 13.589844 L 39.375 13.589844 L 39.375 13.714844 L 39.4375 13.898438 C 39.5625 16.710938 40.800781 18.117188 43.148438 18.117188 C 44.070312 18.078125 44.910156 17.582031 45.664062 16.628906 L 46.167969 15.882812 L 46.167969 15.824219 M 43.464844 14.394531 C 43.503906 14.890625 43.339844 15.160156 42.960938 15.203125 L 42.332031 14.890625 L 41.953125 14.394531 C 41.914062 14.148438 41.933594 13.941406 42.015625 13.777344 C 42.101562 13.363281 42.332031 13.175781 42.707031 13.21875 C 43.210938 13.175781 43.464844 13.570312 43.464844 14.394531 M 39.5625 6.765625 L 36.984375 8.066406 L 34.21875 9.558594 C 33.671875 10.632812 32.917969 11.167969 31.953125 11.167969 L 31.136719 11.046875 C 31.679688 11.542969 32.164062 11.789062 32.582031 11.789062 C 33.042969 11.75 34.027344 11.230469 35.539062 10.238281 C 37.089844 9.039062 38.117188 8.296875 38.621094 8.007812 C 39.417969 7.425781 40.128906 6.992188 40.757812 6.703125 L 41.074219 6.703125 C 41.285156 6.164062 43.484375 5.648438 47.679688 5.152344 L 41.515625 5.898438 L 39.5625 6.765625 L 39.4375 6.765625 L 39.5625 6.765625 M 36.167969 12.410156 L 36.167969 12.597656 L 34.027344 14.519531 L 33.964844 14.394531 L 34.910156 13.402344 C 35.414062 12.699219 35.769531 12.347656 35.980469 12.347656 L 36.167969 12.410156 M 30.128906 12.410156 L 30.066406 12.660156 L 29.6875 12.660156 C 28.933594 11.914062 28.429688 11.253906 28.179688 10.671875 C 27.84375 9.765625 27.695312 9.101562 27.738281 8.6875 L 27.863281 8.503906 L 28.492188 10.550781 C 28.746094 11.335938 29.289062 11.957031 30.128906 12.410156 M 39.1875 12.84375 L 39.25 12.84375 L 39.1875 12.84375 M 23.148438 8.8125 L 22.832031 10.796875 L 21.699219 12.78125 L 21.511719 12.78125 L 21.449219 12.535156 C 22.035156 12.078125 22.414062 11.460938 22.582031 10.671875 L 23.019531 8.625 L 23.148438 8.8125 M 17.988281 10.613281 C 18.828125 11.4375 19.414062 11.871094 19.75 11.914062 L 20.191406 11.726562 L 20.757812 11.167969 L 20.191406 11.292969 C 19.730469 11.292969 19.351562 11.066406 19.058594 10.613281 L 18.617188 9.679688 L 16.667969 8.191406 L 14.71875 6.765625 L 14.53125 6.703125 L 14.46875 6.703125 L 13.207031 6.144531 L 10.191406 5.648438 L 13.964844 6.953125 L 14.152344 6.890625 L 15.535156 8.128906 L 17.675781 10.363281 L 17.988281 10.613281 M 17.359375 12.472656 C 17.527344 12.472656 17.78125 12.824219 18.113281 13.527344 L 18.742188 14.519531 L 18.742188 14.644531 L 17.234375 12.722656 L 17.234375 12.535156 L 17.359375 12.472656 M 20.191406 10.984375 L 21.386719 10.175781 L 21.511719 10.175781 L 21.511719 10.238281 L 21.574219 10.300781 L 21.261719 10.734375 L 20.191406 12.039062 L 19.8125 12.222656 C 19.5625 12.222656 18.871094 11.6875 17.738281 10.613281 L 15.472656 8.503906 L 14.089844 7.386719 L 8.554688 5.402344 L 8.492188 5.152344 L 8.804688 5.152344 L 9.75 5.214844 L 9.6875 5.089844 L 9.875 5.089844 L 10 5.152344 L 10 5.214844 C 12.015625 5.296875 13.605469 5.730469 14.78125 6.515625 L 14.84375 6.457031 L 14.90625 6.515625 L 15.097656 6.640625 L 15.160156 6.703125 L 15.160156 6.765625 C 15.660156 7.34375 16.25 7.757812 16.921875 8.007812 L 19.8125 10.613281 L 20.191406 10.984375 M 17.359375 18.988281 L 17.421875 18.988281 L 17.421875 19.296875 L 16.730469 19.542969 L 14.90625 19.980469 L 11.824219 20.785156 L 9.875 20.414062 L 9.8125 20.476562 C 9.433594 20.476562 9.097656 20.351562 8.804688 20.101562 L 8.679688 20.226562 L 8.429688 20.785156 L 7.988281 21.28125 L 7.863281 21.28125 L 7.800781 21.097656 L 8.617188 19.917969 L 8.617188 19.855469 L 8.175781 19.296875 L 7.925781 18.800781 L 7.863281 18.863281 L 7.484375 19.792969 L 7.234375 19.792969 L 7.171875 19.605469 C 7.171875 19.398438 7.234375 19.234375 7.359375 19.109375 L 7.359375 18.988281 L 7.738281 18.492188 L 7.671875 18.304688 L 5.914062 15.015625 L 4.71875 12.722656 L 4.71875 11.605469 L 6.039062 11.167969 L 5.597656 10.613281 L 4.90625 9.371094 L 5.03125 9.246094 L 5.722656 9.992188 L 6.101562 10.613281 L 6.289062 11.046875 L 7.484375 10.613281 L 8.367188 10.300781 L 8.679688 10.300781 L 12.957031 10.613281 L 13.335938 10.734375 L 13.585938 10.921875 L 13.710938 10.921875 L 14.027344 11.046875 L 15.597656 11.851562 L 16.480469 12.410156 L 16.667969 12.535156 L 16.730469 12.535156 L 17.988281 15.015625 L 17.925781 15.140625 L 16.605469 13.09375 L 16.101562 12.722656 L 17.171875 15.203125 L 17.863281 16.441406 L 17.863281 16.566406 L 17.800781 16.628906 L 17.738281 16.566406 L 17.675781 16.628906 L 15.976562 13.777344 L 15.472656 13.21875 L 15.660156 14.023438 L 15.660156 15.203125 L 15.535156 15.265625 L 15.597656 15.449219 C 15.347656 18.140625 14.320312 19.484375 12.515625 19.484375 C 11.257812 19.484375 10.316406 18.59375 9.6875 16.816406 L 9.5625 16.382812 C 9.265625 15.429688 9.097656 14.5 9.058594 13.589844 L 9.121094 13.402344 L 9.058594 13.339844 L 8.996094 12.78125 L 9.183594 11.355469 L 9.121094 11.355469 L 9.121094 11.417969 L 8.679688 11.542969 C 7.546875 11.789062 6.855469 12.019531 6.605469 12.222656 C 6.3125 12.390625 6.164062 12.742188 6.164062 13.277344 L 6.351562 14.273438 L 6.351562 14.519531 L 6.480469 14.582031 L 6.667969 14.890625 L 7.109375 16.070312 L 7.234375 16.382812 L 7.671875 17.125 L 7.738281 17.4375 L 8.367188 18.304688 L 8.804688 19.109375 C 9.226562 19.855469 9.625 20.226562 10 20.226562 L 10.125 20.226562 L 11.761719 20.414062 C 14.277344 19.460938 16.082031 18.964844 17.171875 18.925781 L 17.171875 18.988281 L 17.359375 18.988281 M 14.90625 14.023438 L 15.03125 13.835938 L 15.03125 13.714844 L 14.90625 13.714844 L 14.90625 13.589844 L 14.78125 12.78125 L 14.339844 12.597656 L 14.027344 12.472656 L 12.015625 11.480469 L 10.125 11.355469 L 9.875 13.03125 C 9.832031 13.941406 9.917969 14.769531 10.125 15.511719 L 10.253906 15.945312 L 10.628906 16.753906 L 10.628906 16.816406 C 11.132812 17.726562 11.699219 18.199219 12.328125 18.242188 C 13.964844 18.242188 14.824219 16.835938 14.90625 14.023438 M 15.097656 12.96875 L 15.160156 12.96875 L 15.097656 12.96875 M 12.644531 13.339844 C 12.894531 13.300781 13.0625 13.484375 13.144531 13.898438 L 13.207031 14.519531 L 12.957031 15.015625 L 12.515625 15.328125 C 12.222656 15.285156 12.097656 15.015625 12.140625 14.519531 C 12.140625 13.691406 12.308594 13.300781 12.644531 13.339844 "/>
<path style=" stroke:none;fill-rule:evenodd;fill:rgb(80.000001%,80.000001%,80.000001%);fill-opacity:1;" d="M 35.351562 16.503906 C 35.351562 16.421875 35.390625 16.402344 35.476562 16.441406 L 35.476562 16.503906 L 38.054688 13.652344 L 38.746094 13.09375 L 38.367188 13.898438 L 38.433594 15.078125 L 38.621094 15.140625 L 38.496094 15.328125 C 38.074219 16.03125 37.132812 16.917969 35.664062 17.992188 L 35.601562 18.054688 L 35.476562 17.746094 L 35.601562 17.683594 L 35.351562 16.566406 L 35.351562 16.503906 M 47.929688 13.464844 L 47.804688 13.277344 L 47.929688 13.21875 L 47.992188 12.660156 L 47.742188 11.230469 L 47.804688 11.230469 L 47.804688 11.292969 L 51.453125 12.101562 C 51.828125 12.265625 52.019531 12.617188 52.019531 13.15625 L 51.703125 14.148438 L 51.765625 14.273438 L 51.703125 14.394531 L 51.578125 14.457031 L 49.941406 13.898438 C 48.851562 14.023438 48.179688 13.878906 47.929688 13.464844 M 17.800781 16.628906 L 17.800781 16.691406 L 17.675781 17.808594 L 17.738281 17.871094 L 17.675781 18.179688 L 17.550781 18.117188 C 16.542969 17.042969 15.894531 16.152344 15.597656 15.449219 L 15.535156 15.265625 L 15.660156 15.203125 L 15.660156 14.023438 L 15.472656 13.21875 L 15.976562 13.777344 L 17.675781 16.628906 L 17.738281 16.566406 L 17.800781 16.628906 M 6.480469 14.582031 L 6.351562 14.519531 L 6.351562 14.273438 L 6.164062 13.277344 C 6.164062 12.742188 6.3125 12.390625 6.605469 12.222656 C 6.855469 12.019531 7.546875 11.789062 8.679688 11.542969 L 9.121094 11.417969 L 9.121094 11.355469 L 9.183594 11.355469 L 8.996094 12.78125 L 9.058594 13.339844 L 9.121094 13.402344 L 9.058594 13.589844 L 8.679688 13.960938 L 7.609375 14.023438 L 6.480469 14.582031 "/>
<path style=" stroke:none;fill-rule:evenodd;fill:rgb(63.137257%,44.705883%,27.450982%);fill-opacity:1;" d="M 46.167969 15.824219 L 46.167969 15.882812 L 46.042969 15.824219 L 46.167969 15.824219 M 45.726562 13.652344 L 45.792969 13.589844 L 45.792969 13.652344 L 45.726562 13.652344 M 10.503906 13.777344 L 10.503906 13.714844 L 10.566406 13.777344 L 10.503906 13.777344 "/>
<path style=" stroke:none;fill-rule:evenodd;fill:rgb(100%,100%,100%);fill-opacity:1;" d="M 38.496094 15.328125 C 38.871094 18.015625 40.339844 19.359375 42.898438 19.359375 C 44.828125 19.359375 46.253906 18.324219 47.175781 16.257812 L 47.929688 13.464844 C 48.179688 13.878906 48.851562 14.023438 49.941406 13.898438 L 51.578125 14.457031 L 51.390625 14.769531 L 51.261719 14.769531 L 50.695312 15.945312 L 50.445312 16.257812 L 49.878906 17 L 49.753906 17.3125 L 48.875 18.179688 L 48.308594 18.988281 C 47.636719 19.730469 47.050781 20.101562 46.546875 20.101562 L 46.421875 20.101562 L 44.03125 20.289062 C 40.382812 19.339844 37.804688 18.839844 36.292969 18.800781 L 36.230469 18.863281 L 35.980469 18.863281 L 35.914062 18.800781 L 35.664062 17.992188 C 37.132812 16.917969 38.074219 16.03125 38.496094 15.328125 M 17.550781 18.117188 L 17.421875 18.925781 L 17.359375 18.988281 L 17.171875 18.988281 L 17.171875 18.925781 C 16.082031 18.964844 14.277344 19.460938 11.761719 20.414062 L 10.125 20.226562 L 10 20.226562 C 9.625 20.226562 9.226562 19.855469 8.804688 19.109375 L 8.367188 18.304688 L 7.738281 17.4375 L 7.671875 17.125 L 7.234375 16.382812 L 7.109375 16.070312 L 6.667969 14.890625 L 6.480469 14.582031 L 7.609375 14.023438 L 8.679688 13.960938 L 9.058594 13.589844 C 9.097656 14.5 9.265625 15.429688 9.5625 16.382812 L 9.6875 16.816406 C 10.316406 18.59375 11.257812 19.484375 12.515625 19.484375 C 14.320312 19.484375 15.347656 18.140625 15.597656 15.449219 C 15.894531 16.152344 16.542969 17.042969 17.550781 18.117188 "/>
<path style=" stroke:none;fill-rule:evenodd;fill:rgb(73.725492%,66.666669%,52.549022%);fill-opacity:1;" d="M 39.5625 6.765625 L 41.515625 5.898438 L 47.679688 5.152344 C 43.484375 5.648438 41.285156 6.164062 41.074219 6.703125 L 40.757812 6.703125 C 40.128906 6.992188 39.417969 7.425781 38.621094 8.007812 C 38.117188 8.296875 37.089844 9.039062 35.539062 10.238281 C 34.027344 11.230469 33.042969 11.75 32.582031 11.789062 C 32.164062 11.789062 31.679688 11.542969 31.136719 11.046875 L 31.953125 11.167969 C 32.917969 11.167969 33.671875 10.632812 34.21875 9.558594 L 36.984375 8.066406 L 39.5625 6.765625 M 17.988281 10.613281 L 17.675781 10.363281 L 15.535156 8.128906 L 14.152344 6.890625 L 13.964844 6.953125 L 10.191406 5.648438 L 13.207031 6.144531 L 14.46875 6.703125 L 14.53125 6.703125 L 14.71875 6.765625 L 16.667969 8.191406 L 18.617188 9.679688 L 19.058594 10.613281 C 19.351562 11.066406 19.730469 11.292969 20.191406 11.292969 L 20.757812 11.167969 L 20.191406 11.726562 L 19.75 11.914062 C 19.414062 11.871094 18.828125 11.4375 17.988281 10.613281 "/>
<path style=" stroke:none;fill-rule:evenodd;fill:rgb(50.980395%,65.098041%,59.607846%);fill-opacity:1;" d="M 46.167969 15.882812 L 45.664062 16.628906 C 44.910156 17.582031 44.070312 18.078125 43.148438 18.117188 C 40.800781 18.117188 39.5625 16.710938 39.4375 13.898438 L 40.507812 14.890625 L 42.269531 16.132812 C 43.570312 16.089844 44.722656 15.265625 45.726562 13.652344 L 45.792969 13.652344 L 46.042969 15.824219 L 46.167969 15.882812 M 10.253906 15.945312 L 10.316406 15.945312 L 10.503906 13.777344 L 10.566406 13.777344 C 11.238281 15.386719 12.054688 16.214844 13.019531 16.257812 L 14.027344 15.265625 L 14.214844 15.015625 L 14.90625 14.023438 C 14.824219 16.835938 13.964844 18.242188 12.328125 18.242188 C 11.699219 18.199219 11.132812 17.726562 10.628906 16.816406 L 10.628906 16.753906 L 10.253906 15.945312 "/>
<path style=" stroke:none;fill-rule:evenodd;fill:rgb(30.980393%,47.843137%,40.392157%);fill-opacity:1;" d="M 39.4375 13.898438 L 39.375 13.714844 L 39.375 13.589844 L 39.4375 13.589844 L 39.4375 13.464844 L 39.625 12.660156 L 40.320312 12.472656 L 43.714844 11.355469 L 46.355469 11.230469 L 46.796875 12.90625 L 46.355469 15.386719 L 46.167969 15.824219 L 46.042969 15.824219 L 45.792969 13.652344 L 45.792969 13.589844 L 45.726562 13.652344 C 44.722656 15.265625 43.570312 16.089844 42.269531 16.132812 L 40.507812 14.890625 L 39.4375 13.898438 M 43.464844 14.394531 C 43.464844 13.570312 43.210938 13.175781 42.707031 13.21875 C 42.332031 13.175781 42.101562 13.363281 42.015625 13.777344 C 41.933594 13.941406 41.914062 14.148438 41.953125 14.394531 L 42.332031 14.890625 L 42.960938 15.203125 C 43.339844 15.160156 43.503906 14.890625 43.464844 14.394531 M 10.253906 15.945312 L 10.125 15.511719 C 9.917969 14.769531 9.832031 13.941406 9.875 13.03125 L 10.125 11.355469 L 12.015625 11.480469 L 14.027344 12.472656 L 14.339844 12.597656 L 14.78125 12.78125 L 14.90625 13.589844 L 14.90625 13.714844 L 15.03125 13.714844 L 15.03125 13.835938 L 14.90625 14.023438 L 14.214844 15.015625 L 14.027344 15.265625 L 13.019531 16.257812 C 12.054688 16.214844 11.238281 15.386719 10.566406 13.777344 L 10.503906 13.714844 L 10.503906 13.777344 L 10.316406 15.945312 L 10.253906 15.945312 M 12.644531 13.339844 C 12.308594 13.300781 12.140625 13.691406 12.140625 14.519531 C 12.097656 15.015625 12.222656 15.285156 12.515625 15.328125 L 12.957031 15.015625 L 13.207031 14.519531 L 13.144531 13.898438 C 13.0625 13.484375 12.894531 13.300781 12.644531 13.339844 "/>
</g>
</svg>
