<?xml version="1.0" encoding="UTF-8"?>
<svg xmlns="http://www.w3.org/2000/svg" xmlns:xlink="http://www.w3.org/1999/xlink" width="59px" height="26px" viewBox="0 0 59 26" version="1.1">
<g id="surface1">
<path style=" stroke:none;fill-rule:evenodd;fill:rgb(0%,0%,0%);fill-opacity:1;" d="M 50.761719 2.917969 C 54.199219 2.917969 56.316406 3.3125 57.113281 4.097656 L 57.300781 5.523438 L 57.238281 6.144531 L 57.175781 6.332031 L 56.988281 6.457031 L 56.734375 6.457031 L 44.21875 5.710938 C 39.144531 5.710938 35.851562 6.082031 34.34375 6.828125 L 33.777344 6.332031 C 34.070312 5.957031 34.46875 5.667969 34.972656 5.460938 L 35.664062 4.902344 C 39.269531 3.582031 44.300781 2.917969 50.761719 2.917969 M 36.105469 5.402344 L 37.550781 5.152344 L 44.21875 5.027344 L 56.671875 5.835938 L 56.671875 5.460938 C 56.671875 4.222656 54.660156 3.601562 50.632812 3.601562 C 43.503906 3.601562 38.621094 4.179688 35.980469 5.339844 L 35.097656 5.773438 L 34.910156 6.082031 L 36.105469 5.402344 M 32.457031 14.148438 C 32.164062 14.105469 32.015625 13.941406 32.015625 13.652344 C 32.015625 12.867188 32.664062 11.851562 33.964844 10.613281 C 35.726562 8.957031 38.035156 8.128906 40.886719 8.128906 C 43.652344 8.128906 46.378906 8.976562 49.0625 10.671875 L 49.3125 10.859375 L 49.25 10.550781 C 49.25 9.472656 49.503906 8.9375 50.003906 8.9375 C 50.382812 8.9375 50.570312 9.246094 50.570312 9.867188 C 50.570312 10.695312 50.320312 11.109375 49.816406 11.109375 L 49.753906 11.109375 L 50.886719 11.914062 L 50.886719 11.851562 C 50.886719 10.734375 51.199219 10.175781 51.828125 10.175781 C 52.25 10.175781 52.457031 10.382812 52.457031 10.796875 C 52.457031 11.832031 52.144531 12.371094 51.515625 12.410156 L 51.765625 12.660156 C 52.480469 12.742188 53.316406 13.320312 54.28125 14.394531 L 54.28125 14.457031 L 53.464844 16.503906 C 52.835938 17.621094 52.3125 18.179688 51.890625 18.179688 L 51.828125 18.117188 L 51.890625 17.992188 L 51.765625 17.746094 L 51.011719 13.777344 L 48.875 11.851562 L 48.433594 11.480469 L 48.433594 13.21875 C 47.929688 17.269531 46.839844 19.855469 45.160156 20.972656 L 45.980469 20.972656 C 46.316406 20.972656 46.839844 20.539062 47.550781 19.667969 C 48.011719 19.667969 48.242188 19.855469 48.242188 20.226562 L 48.179688 20.289062 L 48.242188 20.351562 C 48.160156 21.632812 46.984375 22.273438 44.722656 22.273438 C 38.933594 22.273438 36.042969 21.984375 36.042969 21.40625 L 36.105469 21.097656 L 36.230469 21.097656 L 36.542969 20.785156 L 36.609375 20.785156 L 39.5 20.847656 C 38.621094 20.476562 37.886719 19.460938 37.300781 17.808594 L 36.542969 14.582031 C 36.542969 13.921875 36.734375 12.96875 37.109375 11.726562 C 37.363281 10.902344 37.636719 10.28125 37.929688 9.867188 C 36.671875 10.238281 35.601562 10.878906 34.71875 11.789062 L 32.832031 14.148438 L 32.707031 14.023438 L 32.457031 14.148438 M 46.859375 15.015625 L 47.175781 13.339844 C 46.753906 12.058594 46.546875 11.210938 46.546875 10.796875 L 46.609375 10.488281 C 45.015625 9.785156 43.128906 9.433594 40.949219 9.433594 L 39.5625 9.558594 L 39.625 9.867188 L 38.683594 11.667969 L 38.433594 12.164062 L 38.367188 12.222656 C 37.949219 13.09375 37.738281 13.859375 37.738281 14.519531 C 37.738281 15.71875 38.117188 16.898438 38.871094 18.054688 L 40.507812 19.917969 L 40.695312 19.855469 C 41.15625 19.855469 41.785156 20.042969 42.582031 20.414062 C 44.386719 20.414062 45.75 18.839844 46.671875 15.699219 L 46.671875 15.636719 L 46.796875 15.511719 L 46.859375 15.203125 L 46.859375 15.015625 M 40.570312 13.777344 C 40.738281 13.527344 41.011719 13.402344 41.386719 13.402344 C 42.226562 13.402344 42.582031 13.878906 42.457031 14.832031 C 42.457031 15.492188 42.144531 15.824219 41.515625 15.824219 C 40.84375 15.824219 40.421875 15.636719 40.257812 15.265625 L 40.257812 14.707031 L 40.507812 13.777344 L 40.570312 13.777344 M 20.378906 7.199219 L 20.441406 7.324219 L 19.8125 7.695312 L 19.246094 7.507812 L 19.121094 7.507812 L 19.058594 7.449219 C 16.332031 6.578125 13.859375 6.144531 11.636719 6.144531 L 5.410156 6.765625 L 3.585938 7.386719 L 3.523438 7.386719 L 3.332031 7.324219 L 3.207031 7.011719 L 3.332031 6.890625 L 3.207031 6.207031 C 3.207031 4.550781 5.410156 3.726562 9.8125 3.726562 C 12.035156 3.726562 14.234375 4.261719 16.417969 5.339844 L 18.617188 6.578125 L 20.378906 7.199219 M 18.050781 9.617188 L 18.367188 9.742188 L 18.242188 9.742188 L 18.050781 9.617188 M 19.5 14.519531 L 19.4375 14.519531 L 19.4375 14.582031 L 19.183594 14.644531 C 18.890625 14.644531 18.410156 13.859375 17.738281 12.285156 C 17.152344 11.375 16.4375 10.734375 15.597656 10.363281 L 16.101562 12.222656 L 16.542969 15.078125 L 15.976562 18.304688 C 15.597656 19.957031 15.117188 20.972656 14.53125 21.34375 L 16.292969 21.28125 L 16.292969 21.34375 L 16.667969 21.652344 L 16.855469 21.59375 L 16.855469 21.902344 C 16.855469 22.480469 14.886719 22.769531 10.945312 22.769531 C 9.394531 22.769531 8.597656 22.128906 8.554688 20.847656 L 8.742188 20.660156 L 8.617188 20.539062 C 8.660156 20.289062 8.804688 20.164062 9.058594 20.164062 C 9.519531 21.035156 9.875 21.46875 10.125 21.46875 L 10.691406 21.46875 C 9.519531 20.351562 8.765625 17.765625 8.429688 13.714844 L 8.429688 11.976562 L 8.113281 12.347656 L 6.667969 14.273438 L 6.164062 18.492188 L 5.976562 18.675781 L 5.03125 17 L 4.464844 14.953125 L 4.464844 14.890625 C 5.09375 13.816406 5.660156 13.238281 6.164062 13.15625 L 6.351562 12.90625 C 5.890625 12.867188 5.660156 12.328125 5.660156 11.292969 C 5.660156 10.878906 5.808594 10.671875 6.101562 10.671875 C 6.519531 10.671875 6.730469 11.230469 6.730469 12.347656 L 6.730469 12.410156 L 7.546875 11.605469 L 7.484375 11.605469 C 7.148438 11.605469 6.980469 11.191406 6.980469 10.363281 C 6.941406 9.742188 7.066406 9.433594 7.359375 9.433594 C 7.695312 9.433594 7.863281 9.96875 7.863281 11.046875 L 7.863281 11.355469 L 7.988281 11.167969 C 9.832031 9.472656 11.699219 8.625 13.585938 8.625 C 15.515625 8.625 17.066406 9.453125 18.242188 11.109375 C 19.121094 12.347656 19.582031 13.363281 19.625 14.148438 L 19.5 14.519531 M 14.96875 12.039062 L 14.402344 10.363281 L 14.46875 10.054688 L 13.523438 9.929688 C 12.015625 9.929688 10.734375 10.28125 9.6875 10.984375 L 9.6875 11.292969 L 9.308594 13.835938 L 9.308594 14.148438 C 9.894531 18.65625 10.921875 20.910156 12.390625 20.910156 C 12.9375 20.539062 13.375 20.351562 13.710938 20.351562 L 13.839844 20.414062 C 15.097656 18.675781 15.726562 16.878906 15.726562 15.015625 L 15.222656 12.597656 L 15.285156 12.285156 L 15.03125 12.101562 L 14.96875 12.039062 M 13.144531 15.203125 L 13.144531 15.761719 C 13.019531 16.132812 12.726562 16.320312 12.265625 16.320312 C 11.847656 16.320312 11.636719 15.988281 11.636719 15.328125 C 11.550781 14.375 11.804688 13.898438 12.390625 13.898438 C 12.894531 13.898438 13.144531 14.332031 13.144531 15.203125 M 11.699219 5.402344 C 13.542969 5.402344 15.496094 5.691406 17.550781 6.269531 C 15.578125 5.027344 13.042969 4.40625 9.9375 4.40625 C 6.5 4.40625 4.527344 5.109375 4.027344 6.515625 L 5.410156 6.082031 C 7.210938 5.628906 9.308594 5.402344 11.699219 5.402344 "/>
<path style=" stroke:none;fill-rule:evenodd;fill:rgb(100%,60.000002%,80.000001%);fill-opacity:1;" d="M 35.980469 5.339844 C 38.621094 4.179688 43.503906 3.601562 50.632812 3.601562 C 54.660156 3.601562 56.671875 4.222656 56.671875 5.460938 L 56.671875 5.835938 L 44.21875 5.027344 L 37.550781 5.152344 L 36.105469 5.402344 L 35.980469 5.339844 M 11.699219 5.402344 C 9.308594 5.402344 7.210938 5.628906 5.410156 6.082031 L 4.027344 6.515625 C 4.527344 5.109375 6.5 4.40625 9.9375 4.40625 C 13.042969 4.40625 15.578125 5.027344 17.550781 6.269531 C 15.496094 5.691406 13.542969 5.402344 11.699219 5.402344 "/>
<path style=" stroke:none;fill-rule:evenodd;fill:rgb(100%,100%,100%);fill-opacity:1;" d="M 51.828125 18.117188 C 50.277344 19.8125 49.167969 20.660156 48.496094 20.660156 L 48.242188 20.351562 L 48.179688 20.289062 L 48.242188 20.226562 C 48.242188 19.855469 48.011719 19.667969 47.550781 19.667969 C 46.839844 20.539062 46.316406 20.972656 45.980469 20.972656 L 45.160156 20.972656 C 46.839844 19.855469 47.929688 17.269531 48.433594 13.21875 L 48.433594 11.480469 L 48.875 11.851562 L 51.011719 13.777344 L 51.765625 17.746094 L 51.890625 17.992188 L 51.828125 18.117188 M 36.105469 21.097656 C 35.433594 20.929688 34.554688 19.8125 33.460938 17.746094 C 32.75 16.421875 32.394531 15.328125 32.394531 14.457031 L 32.457031 14.148438 L 32.707031 14.023438 L 32.832031 14.148438 L 34.71875 11.789062 C 35.601562 10.878906 36.671875 10.238281 37.929688 9.867188 C 37.636719 10.28125 37.363281 10.902344 37.109375 11.726562 C 36.734375 12.96875 36.542969 13.921875 36.542969 14.582031 L 37.300781 17.808594 C 37.886719 19.460938 38.621094 20.476562 39.5 20.847656 L 36.609375 20.785156 L 36.542969 20.785156 L 36.230469 21.097656 L 36.105469 21.097656 M 40.886719 12.472656 L 40.445312 13.652344 L 40.382812 13.714844 C 39.960938 14.375 39.5 14.707031 38.996094 14.707031 C 38.578125 14.707031 38.328125 14.519531 38.242188 14.148438 L 38.242188 13.589844 L 38.746094 12.597656 C 39.082031 12.058594 39.355469 11.789062 39.5625 11.789062 C 40.402344 11.789062 40.84375 12.019531 40.886719 12.472656 M 16.855469 21.59375 L 16.667969 21.652344 L 16.292969 21.34375 L 16.292969 21.28125 L 14.53125 21.34375 C 15.117188 20.972656 15.597656 19.957031 15.976562 18.304688 L 16.542969 15.078125 L 16.101562 12.222656 L 15.597656 10.363281 C 16.4375 10.734375 17.152344 11.375 17.738281 12.285156 C 18.410156 13.859375 18.890625 14.644531 19.183594 14.644531 L 19.4375 14.582031 L 19.4375 14.519531 L 19.5 14.519531 C 19.667969 14.519531 19.75 14.644531 19.75 14.890625 C 18.324219 18.988281 17.359375 21.21875 16.855469 21.59375 M 5.976562 18.675781 L 6.164062 18.492188 L 6.667969 14.273438 L 8.113281 12.347656 L 8.429688 11.976562 L 8.429688 13.714844 C 8.765625 17.765625 9.519531 20.351562 10.691406 21.46875 L 10.125 21.46875 C 9.875 21.46875 9.519531 21.035156 9.058594 20.164062 C 8.804688 20.164062 8.660156 20.289062 8.617188 20.539062 L 8.742188 20.660156 L 8.554688 20.847656 L 8.304688 20.972656 L 5.976562 18.738281 L 5.976562 18.675781 M 9.8125 13.464844 L 9.8125 13.339844 C 9.9375 12.761719 10.167969 12.472656 10.503906 12.472656 L 10.757812 12.597656 C 11.050781 12.886719 11.320312 13.796875 11.574219 15.328125 C 11.574219 15.78125 11.34375 16.007812 10.882812 16.007812 C 9.792969 16.007812 9.394531 15.429688 9.6875 14.273438 L 9.8125 13.464844 "/>
<path style=" stroke:none;fill-rule:evenodd;fill:rgb(0%,60.000002%,40.000001%);fill-opacity:1;" d="M 38.433594 12.164062 L 38.496094 12.222656 L 38.367188 12.222656 L 38.433594 12.164062 M 46.671875 15.636719 L 46.671875 15.699219 L 46.546875 15.636719 L 46.671875 15.636719 M 14.96875 12.101562 L 14.96875 12.039062 L 15.03125 12.101562 L 14.96875 12.101562 "/>
<path style=" stroke:none;fill-rule:evenodd;fill:rgb(30.980393%,47.843137%,40.392157%);fill-opacity:1;" d="M 38.433594 12.164062 L 38.683594 11.667969 L 39.625 9.867188 L 39.5625 9.558594 L 40.949219 9.433594 C 43.128906 9.433594 45.015625 9.785156 46.609375 10.488281 L 46.546875 10.796875 C 46.546875 11.210938 46.753906 12.058594 47.175781 13.339844 L 46.859375 15.015625 L 45.792969 13.03125 C 44.785156 11.789062 43.503906 11.167969 41.953125 11.167969 C 39.648438 11.167969 38.496094 11.519531 38.496094 12.222656 L 38.433594 12.164062 M 43.777344 15.015625 C 44.15625 15.015625 44.511719 15.304688 44.847656 15.882812 C 44.847656 16.214844 44.699219 16.382812 44.40625 16.382812 L 43.402344 15.449219 C 43.402344 15.160156 43.527344 15.015625 43.777344 15.015625 M 44.972656 15.140625 L 43.96875 14.023438 C 43.96875 13.734375 44.132812 13.589844 44.46875 13.589844 C 44.972656 13.589844 45.289062 13.921875 45.414062 14.582031 C 45.414062 14.953125 45.265625 15.140625 44.972656 15.140625 M 42.773438 16.566406 C 42.773438 16.277344 42.917969 16.132812 43.210938 16.132812 L 44.09375 17.125 L 44.03125 17.4375 C 43.988281 17.558594 43.863281 17.621094 43.652344 17.621094 L 42.773438 16.566406 M 38.558594 16.628906 C 38.558594 16.175781 38.808594 15.945312 39.3125 15.945312 L 39.625 16.257812 C 39.625 16.753906 39.394531 17 38.933594 17 C 38.683594 17 38.558594 16.878906 38.558594 16.628906 M 42.078125 18.242188 L 41.828125 17.25 C 41.828125 16.960938 41.976562 16.816406 42.269531 16.816406 C 42.6875 16.816406 42.898438 17.125 42.898438 17.746094 L 42.457031 18.367188 L 42.078125 18.242188 M 40.382812 17.0625 C 40.003906 17.972656 39.710938 18.429688 39.5 18.429688 C 39.207031 18.429688 39.0625 18.285156 39.0625 17.992188 L 39.941406 16.628906 C 40.234375 16.628906 40.382812 16.773438 40.382812 17.0625 M 40.445312 17.25 L 41.074219 16.382812 L 41.515625 16.753906 C 41.515625 17.828125 41.285156 18.367188 40.820312 18.367188 L 40.445312 18.242188 L 40.445312 17.25 M 9.308594 14.148438 L 9.308594 13.835938 L 9.6875 11.292969 L 9.6875 10.984375 C 10.734375 10.28125 12.015625 9.929688 13.523438 9.929688 L 14.46875 10.054688 L 14.402344 10.363281 L 14.96875 12.039062 L 14.96875 12.101562 L 14.90625 12.039062 L 14.65625 12.222656 L 13.144531 12.039062 C 12.140625 12.039062 11.34375 12.222656 10.757812 12.597656 L 10.503906 12.472656 C 10.167969 12.472656 9.9375 12.761719 9.8125 13.339844 L 9.8125 13.464844 L 9.433594 14.085938 L 9.308594 14.148438 M 10.191406 17.1875 C 10.191406 16.773438 10.398438 16.566406 10.820312 16.566406 C 11.027344 16.566406 11.132812 16.710938 11.132812 17 C 11.132812 17.414062 10.921875 17.621094 10.503906 17.621094 C 10.292969 17.621094 10.191406 17.476562 10.191406 17.1875 M 14.90625 16.382812 L 13.839844 15.449219 C 13.839844 15.160156 14.003906 15.015625 14.339844 15.015625 C 14.761719 15.015625 15.097656 15.304688 15.347656 15.882812 L 15.285156 16.257812 L 14.90625 16.382812 M 15.160156 14.332031 C 15.160156 14.625 14.96875 14.769531 14.59375 14.769531 L 13.773438 13.960938 C 13.773438 13.628906 13.902344 13.464844 14.152344 13.464844 L 15.160156 14.332031 M 13.398438 13.09375 C 13.398438 12.679688 13.671875 12.472656 14.214844 12.472656 C 14.632812 12.472656 14.84375 12.574219 14.84375 12.78125 C 14.84375 13.15625 14.53125 13.339844 13.902344 13.339844 L 13.398438 13.09375 M 13.585938 16.9375 C 13.585938 16.566406 13.710938 16.382812 13.964844 16.382812 L 14.65625 17.3125 C 14.65625 17.640625 14.53125 17.808594 14.277344 17.808594 L 13.585938 17.375 L 13.585938 16.9375 M 12.078125 17.496094 C 12.078125 18.242188 11.824219 18.613281 11.320312 18.613281 L 10.945312 18.492188 L 11.574219 17.0625 C 11.910156 17.0625 12.078125 17.207031 12.078125 17.496094 M 12.203125 17.4375 C 12.246094 16.734375 12.414062 16.382812 12.707031 16.382812 C 13 16.382812 13.125 16.710938 13.082031 17.375 C 13.167969 18.078125 13 18.429688 12.578125 18.429688 L 12.140625 17.992188 L 12.203125 17.4375 "/>
<path style=" stroke:none;fill-rule:evenodd;fill:rgb(50.980395%,65.098041%,59.607846%);fill-opacity:1;" d="M 38.496094 12.222656 C 38.496094 11.519531 39.648438 11.167969 41.953125 11.167969 C 43.503906 11.167969 44.785156 11.789062 45.792969 13.03125 L 46.859375 15.015625 L 46.859375 15.203125 L 46.796875 15.511719 L 46.671875 15.636719 L 46.546875 15.636719 L 46.671875 15.699219 C 45.75 18.839844 44.386719 20.414062 42.582031 20.414062 C 41.785156 20.042969 41.15625 19.855469 40.695312 19.855469 L 40.507812 19.917969 L 38.871094 18.054688 C 38.117188 16.898438 37.738281 15.71875 37.738281 14.519531 C 37.738281 13.859375 37.949219 13.09375 38.367188 12.222656 L 38.496094 12.222656 M 42.773438 16.566406 L 43.652344 17.621094 C 43.863281 17.621094 43.988281 17.558594 44.03125 17.4375 L 44.09375 17.125 L 43.210938 16.132812 C 42.917969 16.132812 42.773438 16.277344 42.773438 16.566406 M 44.972656 15.140625 C 45.265625 15.140625 45.414062 14.953125 45.414062 14.582031 C 45.289062 13.921875 44.972656 13.589844 44.46875 13.589844 C 44.132812 13.589844 43.96875 13.734375 43.96875 14.023438 L 44.972656 15.140625 M 43.777344 15.015625 C 43.527344 15.015625 43.402344 15.160156 43.402344 15.449219 L 44.40625 16.382812 C 44.699219 16.382812 44.847656 16.214844 44.847656 15.882812 C 44.511719 15.304688 44.15625 15.015625 43.777344 15.015625 M 40.886719 12.472656 C 40.84375 12.019531 40.402344 11.789062 39.5625 11.789062 C 39.355469 11.789062 39.082031 12.058594 38.746094 12.597656 L 38.242188 13.589844 L 38.242188 14.148438 C 38.328125 14.519531 38.578125 14.707031 38.996094 14.707031 C 39.5 14.707031 39.960938 14.375 40.382812 13.714844 L 40.445312 13.652344 L 40.886719 12.472656 M 40.570312 13.777344 L 40.507812 13.777344 L 40.257812 14.707031 L 40.257812 15.265625 C 40.421875 15.636719 40.84375 15.824219 41.515625 15.824219 C 42.144531 15.824219 42.457031 15.492188 42.457031 14.832031 C 42.582031 13.878906 42.226562 13.402344 41.386719 13.402344 C 41.011719 13.402344 40.738281 13.527344 40.570312 13.777344 M 40.445312 17.25 L 40.445312 18.242188 L 40.820312 18.367188 C 41.285156 18.367188 41.515625 17.828125 41.515625 16.753906 L 41.074219 16.382812 L 40.445312 17.25 M 40.382812 17.0625 C 40.382812 16.773438 40.234375 16.628906 39.941406 16.628906 L 39.0625 17.992188 C 39.0625 18.285156 39.207031 18.429688 39.5 18.429688 C 39.710938 18.429688 40.003906 17.972656 40.382812 17.0625 M 42.078125 18.242188 L 42.457031 18.367188 L 42.898438 17.746094 C 42.898438 17.125 42.6875 16.816406 42.269531 16.816406 C 41.976562 16.816406 41.828125 16.960938 41.828125 17.25 L 42.078125 18.242188 M 38.558594 16.628906 C 38.558594 16.878906 38.683594 17 38.933594 17 C 39.394531 17 39.625 16.753906 39.625 16.257812 L 39.3125 15.945312 C 38.808594 15.945312 38.558594 16.175781 38.558594 16.628906 M 9.308594 14.148438 L 9.433594 14.085938 L 9.8125 13.464844 L 9.6875 14.273438 C 9.394531 15.429688 9.792969 16.007812 10.882812 16.007812 C 11.34375 16.007812 11.574219 15.78125 11.574219 15.328125 C 11.320312 13.796875 11.050781 12.886719 10.757812 12.597656 C 11.34375 12.222656 12.140625 12.039062 13.144531 12.039062 L 14.65625 12.222656 L 14.90625 12.039062 L 14.96875 12.101562 L 15.03125 12.101562 L 15.285156 12.285156 L 15.222656 12.597656 L 15.726562 15.015625 C 15.726562 16.878906 15.097656 18.675781 13.839844 20.414062 L 13.710938 20.351562 C 13.375 20.351562 12.9375 20.539062 12.390625 20.910156 C 10.921875 20.910156 9.894531 18.65625 9.308594 14.148438 M 15.160156 14.332031 L 14.152344 13.464844 C 13.902344 13.464844 13.773438 13.628906 13.773438 13.960938 L 14.59375 14.769531 C 14.96875 14.769531 15.160156 14.625 15.160156 14.332031 M 14.90625 16.382812 L 15.285156 16.257812 L 15.347656 15.882812 C 15.097656 15.304688 14.761719 15.015625 14.339844 15.015625 C 14.003906 15.015625 13.839844 15.160156 13.839844 15.449219 L 14.90625 16.382812 M 10.191406 17.1875 C 10.191406 17.476562 10.292969 17.621094 10.503906 17.621094 C 10.921875 17.621094 11.132812 17.414062 11.132812 17 C 11.132812 16.710938 11.027344 16.566406 10.820312 16.566406 C 10.398438 16.566406 10.191406 16.773438 10.191406 17.1875 M 13.144531 15.203125 C 13.144531 14.332031 12.894531 13.898438 12.390625 13.898438 C 11.804688 13.898438 11.550781 14.375 11.636719 15.328125 C 11.636719 15.988281 11.847656 16.320312 12.265625 16.320312 C 12.726562 16.320312 13.019531 16.132812 13.144531 15.761719 L 13.144531 15.203125 M 12.203125 17.4375 L 12.140625 17.992188 L 12.578125 18.429688 C 13 18.429688 13.167969 18.078125 13.082031 17.375 C 13.125 16.710938 13 16.382812 12.707031 16.382812 C 12.414062 16.382812 12.246094 16.734375 12.203125 17.4375 M 12.078125 17.496094 C 12.078125 17.207031 11.910156 17.0625 11.574219 17.0625 L 10.945312 18.492188 L 11.320312 18.613281 C 11.824219 18.613281 12.078125 18.242188 12.078125 17.496094 M 13.585938 16.9375 L 13.585938 17.375 L 14.277344 17.808594 C 14.53125 17.808594 14.65625 17.640625 14.65625 17.3125 L 13.964844 16.382812 C 13.710938 16.382812 13.585938 16.566406 13.585938 16.9375 M 13.398438 13.09375 L 13.902344 13.339844 C 14.53125 13.339844 14.84375 13.15625 14.84375 12.78125 C 14.84375 12.574219 14.632812 12.472656 14.214844 12.472656 C 13.671875 12.472656 13.398438 12.679688 13.398438 13.09375 "/>
</g>
</svg>
