<?xml version="1.0" encoding="UTF-8"?>
<svg xmlns="http://www.w3.org/2000/svg" xmlns:xlink="http://www.w3.org/1999/xlink" width="65px" height="39px" viewBox="0 0 65 39" version="1.1">
<g id="surface1">
<path style=" stroke:none;fill-rule:evenodd;fill:rgb(100%,80.000001%,0%);fill-opacity:1;" d="M 52.691406 3.320312 C 53.207031 4.664062 53.847656 5.855469 54.617188 6.898438 C 51.078125 8.988281 45.152344 11.449219 36.847656 14.28125 C 38.898438 12.34375 41.820312 10.03125 45.617188 7.347656 C 49.460938 4.664062 51.769531 3.320312 52.539062 3.320312 L 52.691406 3.320312 M 21.847656 14.652344 C 21.847656 15.050781 21.769531 15.101562 21.617188 14.804688 L 19.460938 14.355469 L 19.617188 14.058594 L 18.921875 13.984375 L 17.769531 13.683594 L 15.617188 12.789062 L 15.308594 12.566406 L 15.230469 12.492188 L 15.152344 12.269531 L 14.308594 11.96875 L 14.230469 11.894531 L 12.460938 10.480469 L 11.152344 10.328125 C 7.511719 8.144531 5.691406 6.675781 5.691406 5.929688 L 5.921875 4.515625 L 7.152344 5.335938 L 9.078125 6.75 L 16.152344 11 L 16.230469 11.074219 L 17.617188 11.820312 C 20.4375 13.410156 21.847656 14.355469 21.847656 14.652344 "/>
<path style=" stroke:none;fill-rule:evenodd;fill:rgb(0%,0%,0%);fill-opacity:1;" d="M 55.078125 6.824219 C 55.078125 7.769531 49.488281 10.402344 38.308594 14.726562 L 36.769531 15.773438 L 33.847656 17.1875 L 33.152344 16.964844 L 33.769531 16.441406 L 32.921875 16.742188 C 32.769531 16.941406 32.691406 16.867188 32.691406 16.519531 C 32.691406 16.167969 35.359375 14.15625 40.691406 10.480469 C 45.871094 6.851562 49.820312 4.242188 52.539062 2.648438 L 53.230469 2.648438 C 53.230469 3.246094 53.847656 4.636719 55.078125 6.824219 M 52.691406 3.320312 L 52.539062 3.320312 C 51.769531 3.320312 49.460938 4.664062 45.617188 7.347656 C 41.820312 10.03125 38.898438 12.34375 36.847656 14.28125 C 45.152344 11.449219 51.078125 8.988281 54.617188 6.898438 C 53.847656 5.855469 53.207031 4.664062 52.691406 3.320312 M 34.539062 18.605469 L 33.691406 19.203125 L 33.617188 18.753906 L 33.847656 18.15625 L 33.847656 18.082031 C 33.847656 17.835938 34.152344 17.5625 34.769531 17.261719 L 35.617188 16.59375 L 36.769531 15.921875 C 37.949219 15.273438 39.152344 14.953125 40.382812 14.953125 L 47.230469 14.878906 L 47.230469 14.804688 L 49.617188 15.25 L 49.921875 15.25 C 50.691406 15.5 51.230469 15.894531 51.539062 16.441406 L 52.691406 18.082031 L 52.769531 18.605469 C 52.769531 19.101562 52.617188 19.351562 52.308594 19.351562 L 52.308594 19.5 L 52.382812 19.648438 L 52.308594 19.722656 L 52 19.722656 L 51.230469 19.203125 L 51.152344 19.128906 L 49.308594 17.414062 L 48.921875 17.414062 C 48.5625 16.867188 47.921875 16.46875 47 16.21875 L 47 16.292969 L 46.308594 16.144531 L 46.152344 16.144531 L 46.230469 16.070312 L 45.382812 15.921875 L 41.460938 15.921875 L 40.769531 16.070312 L 39.769531 16.292969 L 39.230469 16.367188 L 39.382812 16.292969 L 36.382812 17.1875 L 34.691406 18.457031 L 34.617188 18.53125 L 34.539062 18.53125 L 34.539062 18.605469 M 50 24.195312 L 47.308594 24.496094 L 43.847656 24.496094 L 42.921875 24.421875 C 39.691406 24.222656 37.792969 23.847656 37.230469 23.300781 L 37 22.929688 L 37.078125 22.929688 L 37.308594 22.78125 L 38.152344 23.453125 L 38.921875 23.527344 L 38.382812 22.035156 C 38.382812 21.238281 38.71875 20.171875 39.382812 18.828125 C 40.308594 16.941406 41.511719 15.996094 43 15.996094 C 45.921875 15.996094 47.691406 16.914062 48.308594 18.753906 L 48.308594 18.902344 L 48.539062 20.46875 C 48.539062 21.8125 48.308594 22.90625 47.847656 23.75 L 48.847656 23.75 L 49.617188 23.675781 L 49.769531 23.453125 C 49.769531 23.253906 49.949219 23.152344 50.308594 23.152344 L 50.617188 23.226562 L 50.691406 23.453125 L 50 24.195312 M 47.921875 20.917969 L 48.152344 20.765625 L 47.921875 20.320312 C 47.871094 18.976562 47.101562 18.035156 45.617188 17.488281 L 42.382812 16.816406 L 42.152344 16.890625 C 41.332031 16.890625 40.5625 17.710938 39.847656 19.351562 L 39.847656 19.425781 L 39.382812 20.171875 L 39.460938 20.394531 L 39 21.960938 L 39.769531 23.527344 L 42.691406 23.675781 L 43.382812 23.75 L 44 23.824219 L 44.921875 23.824219 L 46.078125 23.75 L 46.847656 23.824219 L 47 23.824219 C 47.5625 23.078125 47.871094 22.109375 47.921875 20.917969 M 42.460938 20.320312 C 42.667969 20.070312 43.027344 19.949219 43.539062 19.949219 C 44.617188 19.949219 45.152344 20.394531 45.152344 21.289062 C 45.152344 22.183594 44.488281 22.632812 43.152344 22.632812 L 42.382812 21.585938 L 42.539062 20.691406 L 42.460938 20.320312 M 21.847656 14.652344 C 21.847656 14.355469 20.4375 13.410156 17.617188 11.820312 L 16.230469 11.074219 L 16.152344 11 L 9.078125 6.75 L 7.152344 5.335938 L 5.921875 4.515625 L 5.691406 5.929688 C 5.691406 6.675781 7.511719 8.144531 11.152344 10.328125 L 12.460938 10.480469 L 14.230469 11.894531 L 14.308594 11.96875 L 15.152344 12.269531 L 15.230469 12.492188 L 15.308594 12.566406 L 15.617188 12.789062 L 17.769531 13.683594 L 18.921875 13.984375 L 19.617188 14.058594 L 19.460938 14.355469 L 21.617188 14.804688 C 21.769531 15.101562 21.847656 15.050781 21.847656 14.652344 M 22.769531 15.398438 L 20.617188 15.175781 L 22.460938 16.292969 L 22.308594 16.292969 C 21.589844 16.292969 20.972656 16.121094 20.460938 15.773438 L 16.847656 13.984375 L 15.460938 13.3125 L 13.382812 12.34375 C 11.742188 11.894531 9.769531 10.828125 7.460938 9.136719 C 5.820312 8.492188 5 7.96875 5 7.570312 L 5.152344 6.304688 L 5.078125 6.003906 L 5.230469 5.035156 L 5.230469 3.992188 L 5.539062 3.84375 C 6.101562 3.84375 7.4375 4.5625 9.539062 6.003906 L 15.382812 9.808594 C 20.152344 12.9375 22.691406 14.679688 23 15.027344 L 23 15.175781 L 22.769531 15.398438 M 33.921875 15.398438 L 35.308594 14.953125 L 34.617188 14.953125 C 34.460938 14.953125 34.230469 15.101562 33.921875 15.398438 M 5.539062 7.050781 L 5.460938 7.570312 L 5.460938 7.644531 L 5.539062 7.347656 L 5.847656 7.347656 L 5.539062 7.050781 M 7.691406 19.351562 L 7.382812 19.351562 C 6.972656 19.351562 6.820312 19.078125 6.921875 18.53125 L 7.691406 16.667969 L 8.230469 15.847656 L 9.769531 15.25 L 11.152344 14.652344 L 12.460938 14.726562 L 12.617188 14.652344 L 15.382812 15.175781 L 16.539062 15.472656 L 17.691406 15.472656 C 19.230469 15.472656 20.207031 15.996094 20.617188 17.039062 L 21.152344 19.5 L 20.921875 19.722656 L 20.691406 19.425781 L 19.691406 18.308594 L 19.617188 18.234375 L 19.617188 18.308594 L 19.539062 18.753906 L 17.921875 17.039062 L 17.617188 16.964844 L 17.460938 16.816406 C 16.589844 16.417969 15.921875 16.195312 15.460938 16.144531 L 13.382812 15.773438 L 12.921875 15.847656 L 12.308594 15.847656 C 11.230469 15.847656 10.332031 16.019531 9.617188 16.367188 L 9.691406 16.441406 L 8.617188 18.457031 L 7.691406 19.351562 M 20.460938 22.480469 L 20.617188 22.78125 L 20.382812 23.003906 L 19.617188 23.527344 L 19.382812 23.675781 L 19.230469 23.824219 L 19.078125 23.898438 L 18.921875 23.898438 L 14.691406 23.972656 L 13.691406 23.972656 L 10.308594 23.898438 L 9 23.898438 C 8.382812 23.648438 8.078125 23.328125 8.078125 22.929688 L 8.152344 22.707031 L 8.460938 22.632812 L 8.921875 22.78125 L 9 22.855469 L 9.078125 22.78125 L 9.078125 22.855469 L 9.152344 23.152344 L 10.460938 23.300781 L 10.078125 21.289062 L 10.078125 20.84375 C 10.128906 19.402344 10.511719 18.332031 11.230469 17.636719 C 11.847656 16.941406 12.742188 16.59375 13.921875 16.59375 L 15.382812 16.890625 L 15.769531 16.59375 C 17.207031 16.59375 18.027344 17.660156 18.230469 19.796875 L 18.230469 20.84375 C 18.230469 21.738281 18.050781 22.480469 17.691406 23.078125 L 18.617188 23.226562 L 18.769531 23.226562 C 18.972656 22.980469 19.488281 22.707031 20.308594 22.40625 L 20.460938 22.480469 M 17.617188 20.246094 C 17.359375 18.257812 15.898438 17.261719 13.230469 17.261719 C 12.359375 17.261719 11.667969 17.933594 11.152344 19.277344 L 11 19.949219 C 10.640625 20.246094 10.460938 20.691406 10.460938 21.289062 L 10.691406 21.4375 L 11.078125 23.003906 L 11.152344 23.003906 L 13.152344 23.152344 L 16.847656 23.003906 C 17.308594 22.507812 17.5625 21.835938 17.617188 20.992188 L 17.691406 21.066406 L 17.769531 21.066406 L 17.847656 20.765625 L 17.617188 20.246094 M 13.539062 20.542969 C 13.691406 20.144531 14 19.949219 14.460938 19.949219 C 14.667969 19.949219 14.820312 20.023438 14.921875 20.171875 C 15.332031 20.320312 15.4375 20.644531 15.230469 21.140625 L 15.230469 22.109375 L 14.847656 22.183594 L 14.230469 22.40625 L 14 22.183594 L 13.460938 21.738281 L 13.382812 21.289062 L 13.382812 21.140625 L 13.460938 20.917969 L 13.539062 20.542969 "/>
<path style=" stroke:none;fill-rule:evenodd;fill:rgb(100%,100%,100%);fill-opacity:1;" d="M 52.382812 19.648438 L 52.539062 20.097656 C 52.4375 20.992188 51.742188 22.40625 50.460938 24.347656 L 50 24.195312 L 50.691406 23.453125 L 50.617188 23.226562 L 50.308594 23.152344 C 49.949219 23.152344 49.769531 23.253906 49.769531 23.453125 L 49.617188 23.675781 L 48.847656 23.75 L 47.847656 23.75 C 48.308594 22.90625 48.539062 21.8125 48.539062 20.46875 L 48.308594 18.902344 L 48.308594 18.753906 C 47.691406 16.914062 45.921875 15.996094 43 15.996094 C 41.511719 15.996094 40.308594 16.941406 39.382812 18.828125 C 38.71875 20.171875 38.382812 21.238281 38.382812 22.035156 L 38.921875 23.527344 L 38.152344 23.453125 L 37.308594 22.78125 L 37.078125 22.929688 L 37 22.929688 L 37.230469 23.300781 L 37.847656 24.347656 L 37.769531 24.421875 L 37.382812 24.644531 L 36.847656 23.226562 L 34.382812 18.976562 L 34.539062 18.605469 L 34.539062 18.53125 L 34.769531 18.53125 L 34.691406 18.457031 L 36.382812 17.1875 L 39.382812 16.292969 L 39.230469 16.367188 L 39.769531 16.292969 L 40.769531 16.070312 L 41.460938 15.921875 L 45.382812 15.921875 L 46.152344 16.144531 L 46.308594 16.144531 L 47 16.292969 L 47 16.21875 C 47.921875 16.46875 48.5625 16.867188 48.921875 17.414062 L 49.308594 17.414062 L 51.152344 19.128906 L 51.230469 19.203125 L 52 19.722656 L 52.308594 19.722656 L 52.382812 19.648438 M 42.382812 21.585938 L 42.230469 22.109375 L 41.691406 22.183594 C 41.027344 22.183594 40.691406 21.886719 40.691406 21.289062 L 40.230469 20.617188 L 40.769531 20.023438 L 41.539062 19.5 C 41.949219 19.5 42.257812 19.773438 42.460938 20.320312 L 42.539062 20.691406 L 42.382812 21.585938 M 7.691406 19.351562 L 8.617188 18.457031 L 9.691406 16.441406 L 9.617188 16.367188 C 10.332031 16.019531 11.230469 15.847656 12.308594 15.847656 L 12.921875 15.847656 L 13.382812 15.773438 L 15.460938 16.144531 C 15.921875 16.195312 16.589844 16.417969 17.460938 16.816406 L 17.617188 16.964844 L 17.921875 17.039062 L 19.539062 18.753906 L 19.617188 18.308594 L 19.691406 18.308594 L 20.691406 19.425781 L 20.539062 19.425781 L 20.691406 20.542969 L 20.460938 22.480469 L 20.308594 22.40625 C 19.488281 22.707031 18.972656 22.980469 18.769531 23.226562 L 18.617188 23.226562 L 17.691406 23.078125 C 18.050781 22.480469 18.230469 21.738281 18.230469 20.84375 L 18.460938 20.84375 L 18.230469 20.617188 L 18.230469 19.796875 C 18.027344 17.660156 17.207031 16.59375 15.769531 16.59375 L 15.382812 16.890625 L 13.921875 16.59375 C 12.742188 16.59375 11.847656 16.941406 11.230469 17.636719 C 10.511719 18.332031 10.128906 19.402344 10.078125 20.84375 L 10.078125 21.289062 L 10.460938 23.300781 L 9.152344 23.152344 L 9.078125 22.855469 L 9.078125 22.78125 L 9 22.855469 L 8.921875 22.78125 L 7.691406 19.949219 L 7.691406 19.351562 M 20.382812 23.003906 L 20.308594 23.527344 L 19.617188 23.527344 L 20.382812 23.003906 M 13.382812 21.140625 C 13.027344 21.585938 12.667969 21.8125 12.308594 21.8125 L 11.460938 20.765625 L 11.691406 19.722656 L 12.230469 19.648438 L 13.539062 20.542969 L 13.460938 20.917969 L 13.382812 21.140625 "/>
<path style=" stroke:none;fill-rule:evenodd;fill:rgb(0%,20%,60.000002%);fill-opacity:1;" d="M 45.382812 15.921875 L 46.230469 16.070312 L 46.152344 16.144531 L 45.382812 15.921875 M 39.847656 19.351562 C 40.5625 17.710938 41.332031 16.890625 42.152344 16.890625 L 42.382812 16.816406 L 45.617188 17.488281 C 47.101562 18.035156 47.871094 18.976562 47.921875 20.320312 L 48.152344 20.765625 L 47.921875 20.917969 C 45.769531 19.476562 44.460938 18.753906 44 18.753906 C 42.308594 18.753906 41.257812 19.050781 40.847656 19.648438 L 39.847656 20.46875 L 39.460938 20.394531 L 39.382812 20.171875 L 39.847656 19.425781 L 39.847656 19.351562 M 17.617188 20.246094 L 16.617188 19.425781 C 15.691406 18.828125 14.769531 18.53125 13.847656 18.53125 C 12.460938 18.53125 11.589844 18.929688 11.230469 19.722656 L 11.152344 19.722656 L 11 19.949219 L 11.152344 19.277344 C 11.667969 17.933594 12.359375 17.261719 13.230469 17.261719 C 15.898438 17.261719 17.359375 18.257812 17.617188 20.246094 "/>
<path style=" stroke:none;fill-rule:evenodd;fill:rgb(0%,60.000002%,80.000001%);fill-opacity:1;" d="M 39.847656 19.351562 L 39.847656 19.425781 L 39.847656 19.351562 M 39.460938 20.394531 L 39.847656 20.46875 L 40.847656 19.648438 C 41.257812 19.050781 42.308594 18.753906 44 18.753906 C 44.460938 18.753906 45.769531 19.476562 47.921875 20.917969 C 47.871094 22.109375 47.5625 23.078125 47 23.824219 L 46.847656 23.824219 L 46.078125 23.75 L 44.921875 23.824219 L 43.382812 23.75 L 42.691406 23.675781 L 39.769531 23.527344 L 39 21.960938 L 39.460938 20.394531 M 42.382812 21.585938 L 43.152344 22.632812 C 44.488281 22.632812 45.152344 22.183594 45.152344 21.289062 C 45.152344 20.394531 44.617188 19.949219 43.539062 19.949219 C 43.027344 19.949219 42.667969 20.070312 42.460938 20.320312 C 42.257812 19.773438 41.949219 19.5 41.539062 19.5 L 40.769531 20.023438 L 40.230469 20.617188 L 40.691406 21.289062 C 40.691406 21.886719 41.027344 22.183594 41.691406 22.183594 L 42.230469 22.109375 L 42.382812 21.585938 M 11 19.949219 L 11.152344 19.722656 L 11.230469 19.722656 C 11.589844 18.929688 12.460938 18.53125 13.847656 18.53125 C 14.769531 18.53125 15.691406 18.828125 16.617188 19.425781 L 17.617188 20.246094 L 17.847656 20.765625 L 17.769531 21.066406 L 17.691406 21.066406 L 17.617188 20.992188 C 17.5625 21.835938 17.308594 22.507812 16.847656 23.003906 L 13.152344 23.152344 L 11.152344 23.003906 L 11.078125 23.003906 L 10.691406 21.4375 L 10.460938 21.289062 C 10.460938 20.691406 10.640625 20.246094 11 19.949219 M 13.382812 21.140625 L 13.382812 21.289062 L 13.460938 21.738281 L 14 22.183594 L 14.230469 22.40625 L 14.847656 22.183594 L 15.230469 22.109375 L 15.230469 21.140625 C 15.4375 20.644531 15.332031 20.320312 14.921875 20.171875 C 14.820312 20.023438 14.667969 19.949219 14.460938 19.949219 C 14 19.949219 13.691406 20.144531 13.539062 20.542969 L 12.230469 19.648438 L 11.691406 19.722656 L 11.460938 20.765625 L 12.308594 21.8125 C 12.667969 21.8125 13.027344 21.585938 13.382812 21.140625 "/>
<path style=" stroke:none;fill-rule:evenodd;fill:rgb(100%,80.000001%,20%);fill-opacity:1;" d="M 5.539062 7.050781 L 5.847656 7.347656 L 5.539062 7.347656 L 5.460938 7.644531 L 5.460938 7.570312 L 5.539062 7.050781 "/>
</g>
</svg>
