<?xml version="1.0" encoding="UTF-8"?>
<svg xmlns="http://www.w3.org/2000/svg" xmlns:xlink="http://www.w3.org/1999/xlink" width="65px" height="39px" viewBox="0 0 65 39" version="1.1">
<g id="surface1">
<path style=" stroke:none;fill-rule:evenodd;fill:rgb(100%,80.000001%,0%);fill-opacity:1;" d="M 52.230469 1.234375 L 54.152344 4.8125 C 50.617188 6.898438 44.691406 9.359375 36.382812 12.195312 C 38.4375 10.253906 41.359375 7.945312 45.152344 5.257812 C 49 2.574219 51.308594 1.234375 52.078125 1.234375 L 52.230469 1.234375 M 21.382812 12.566406 C 21.382812 12.964844 21.308594 13.011719 21.152344 12.714844 L 19 12.269531 L 19.152344 11.96875 L 18.460938 11.894531 L 17.308594 11.597656 L 15.152344 10.703125 L 14.847656 10.480469 L 14.769531 10.402344 L 14.691406 10.179688 L 13.847656 9.882812 L 13.769531 9.808594 L 12 8.390625 L 10.691406 8.242188 C 7.050781 6.054688 5.230469 4.589844 5.230469 3.84375 L 5.460938 2.425781 L 6.691406 3.246094 L 8.617188 4.664062 L 15.691406 8.914062 L 15.769531 8.988281 L 17.152344 9.734375 L 21.382812 12.566406 "/>
<path style=" stroke:none;fill-rule:evenodd;fill:rgb(0%,0%,0%);fill-opacity:1;" d="M 52.230469 1.234375 L 52.078125 1.234375 C 51.308594 1.234375 49 2.574219 45.152344 5.257812 C 41.359375 7.945312 38.4375 10.253906 36.382812 12.195312 C 44.691406 9.359375 50.617188 6.898438 54.152344 4.8125 L 52.230469 1.234375 M 54.617188 4.738281 C 54.617188 5.683594 49.027344 8.316406 37.847656 12.640625 L 36.308594 13.683594 L 33.382812 15.101562 L 32.691406 14.878906 L 33.308594 14.355469 L 32.460938 14.652344 C 32.308594 14.851562 32.230469 14.777344 32.230469 14.429688 C 32.230469 14.082031 34.898438 12.070312 40.230469 8.390625 C 45.410156 4.761719 49.359375 2.152344 52.078125 0.5625 L 52.769531 0.5625 C 52.769531 1.160156 53.382812 2.550781 54.617188 4.738281 M 34.078125 16.519531 L 33.230469 17.113281 L 33.152344 16.667969 L 33.382812 16.070312 L 33.382812 15.996094 C 33.382812 15.746094 33.691406 15.472656 34.308594 15.175781 L 35.152344 14.503906 L 36.308594 13.832031 C 37.488281 13.1875 38.691406 12.863281 39.921875 12.863281 L 48.460938 12.640625 L 48.921875 13.3125 L 49.308594 13.535156 L 50.230469 14.207031 C 50.691406 14.453125 50.921875 14.828125 50.921875 15.324219 L 50.691406 15.398438 L 50.847656 15.472656 L 51.617188 16.144531 L 52.539062 15.472656 L 53 15.101562 L 53.078125 15.101562 L 53.308594 14.953125 L 53.691406 15.175781 C 53.898438 15.027344 54.152344 14.925781 54.460938 14.878906 L 54.617188 15.101562 C 54.617188 15.5 54.230469 16.019531 53.460938 16.667969 L 52.078125 17.5625 L 51.921875 17.414062 L 51.847656 17.636719 L 51.539062 17.636719 L 50.769531 17.113281 L 50.691406 17.039062 L 48.847656 15.324219 L 48.460938 15.324219 C 48.101562 14.777344 47.460938 14.378906 46.539062 14.132812 C 46.898438 14.976562 47.078125 16.742188 47.078125 19.425781 C 47.589844 23.105469 47.027344 25.214844 45.382812 25.761719 L 48.539062 25.167969 L 48.382812 24.570312 L 48.382812 24.496094 C 48.488281 24.296875 48.792969 24.148438 49.308594 24.046875 L 49.382812 24.347656 L 48.921875 24.867188 C 48.617188 25.015625 48.460938 25.488281 48.460938 26.285156 L 41.691406 26.507812 C 40.152344 26.507812 39.152344 26.257812 38.691406 25.761719 L 38.308594 25.464844 L 38.308594 25.316406 L 38.382812 25.167969 L 38.691406 25.390625 L 38.691406 25.167969 L 38.617188 25.015625 L 38.691406 24.941406 C 39.308594 25.539062 40.308594 25.835938 41.691406 25.835938 L 43.078125 25.835938 C 40.667969 25.539062 38.972656 24.347656 38 22.257812 L 37.308594 18.53125 C 37.308594 16.441406 37.847656 15 38.921875 14.207031 L 35.921875 15.101562 C 35.410156 15.449219 34.847656 15.871094 34.230469 16.367188 L 34.152344 16.441406 L 34.078125 16.441406 L 34.078125 16.519531 M 51.460938 17.113281 L 51.539062 17.113281 L 51.460938 17.113281 M 46.539062 18.082031 L 46.847656 17.859375 L 46.460938 16.964844 C 46.359375 15.324219 46.101562 14.40625 45.691406 14.207031 L 45.769531 13.984375 L 43.230469 13.757812 L 40.308594 13.984375 L 39.152344 14.878906 C 38.382812 15.324219 37.949219 15.796875 37.847656 16.292969 L 37.847656 18.53125 L 37.921875 20.023438 C 38.332031 23.601562 40.460938 25.390625 44.308594 25.390625 C 46.308594 25.390625 47.050781 23.375 46.539062 19.351562 L 46.539062 18.082031 M 48.382812 13.757812 L 49.230469 14.503906 L 50.382812 15.175781 L 50.691406 15.398438 C 49.410156 14.15625 48.5625 13.535156 48.152344 13.535156 L 47.769531 13.535156 L 48.382812 13.757812 M 45.382812 27.476562 L 45.382812 27.703125 L 40.308594 27.03125 L 40.308594 26.804688 L 40.539062 26.730469 L 45.230469 27.179688 L 45.382812 27.476562 M 41 19.5 C 41 18.257812 41.460938 17.636719 42.382812 17.636719 C 43.207031 17.636719 43.667969 18.507812 43.769531 20.246094 C 43.769531 20.84375 43.28125 21.140625 42.308594 21.140625 C 41.742188 21.140625 41.359375 20.867188 41.152344 20.320312 L 41 19.5 M 22 14.207031 L 21.847656 14.207031 L 20 13.683594 C 18.152344 12.890625 16.949219 12.292969 16.382812 11.894531 L 15 11.222656 L 12.921875 10.253906 C 11.28125 9.808594 9.308594 8.738281 7 7.050781 C 5.359375 6.402344 4.539062 5.882812 4.539062 5.484375 L 4.691406 4.214844 L 4.617188 3.917969 L 4.769531 2.949219 L 4.769531 1.90625 L 5.078125 1.753906 C 5.640625 1.753906 6.972656 2.476562 9.078125 3.917969 L 14.921875 7.71875 L 22.539062 12.9375 L 22.539062 13.089844 L 22.308594 13.3125 L 20.152344 13.089844 L 22 14.207031 M 21.382812 12.566406 L 17.152344 9.734375 L 15.769531 8.988281 L 15.691406 8.914062 L 8.617188 4.664062 L 6.691406 3.246094 L 5.460938 2.425781 L 5.230469 3.84375 C 5.230469 4.589844 7.050781 6.054688 10.691406 8.242188 L 12 8.390625 L 13.769531 9.808594 L 13.847656 9.882812 L 14.691406 10.179688 L 14.769531 10.402344 L 14.847656 10.480469 L 15.152344 10.703125 L 17.308594 11.597656 L 18.460938 11.894531 L 19.152344 11.96875 L 19 12.269531 L 21.152344 12.714844 C 21.308594 13.011719 21.382812 12.964844 21.382812 12.566406 M 19.382812 23.675781 L 19.382812 23.824219 C 19.382812 24.621094 19.128906 25.015625 18.617188 25.015625 C 11.847656 25.015625 8.71875 24.273438 9.230469 22.78125 L 9.691406 22.78125 L 10.691406 23.527344 L 12.308594 24.121094 C 11.898438 23.726562 11.617188 23.152344 11.460938 22.40625 L 11.460938 19.949219 L 11.382812 16.816406 C 11.539062 15.324219 12.027344 14.304688 12.847656 13.757812 L 11.847656 13.757812 C 9.949219 13.808594 8.640625 14.304688 7.921875 15.25 L 7.539062 15.996094 L 7.152344 16.816406 L 7.078125 16.742188 L 7.078125 16.890625 L 6.847656 16.890625 L 6.921875 17.113281 L 6.382812 17.636719 C 4.898438 17.636719 4.152344 16.867188 4.152344 15.324219 L 4.539062 15.101562 L 6.847656 16.519531 L 7.078125 15.996094 L 7.078125 15.773438 L 7.617188 14.355469 C 8.078125 13.511719 8.511719 13.089844 8.921875 13.089844 L 9.617188 13.164062 L 9.691406 13.089844 L 13.769531 13.3125 L 17.230469 13.386719 C 18.769531 13.386719 19.742188 13.910156 20.152344 14.953125 L 20.691406 17.414062 L 20.460938 17.636719 L 20.230469 17.335938 L 19.230469 16.21875 L 19.152344 16.144531 L 19.152344 16.21875 L 19.078125 16.667969 L 17.460938 14.953125 L 17 14.804688 L 17.308594 18.53125 C 17.871094 21.761719 17.4375 23.75 16 24.496094 L 16.308594 24.496094 L 18.691406 24.195312 L 18.847656 23.601562 L 19.078125 23.601562 L 19.078125 23.675781 L 19.382812 23.675781 M 33.460938 13.3125 L 34.847656 12.863281 L 34.152344 12.863281 C 34 12.863281 33.769531 13.011719 33.460938 13.3125 M 5 5.558594 L 5.078125 5.257812 L 5.382812 5.257812 L 5.078125 4.960938 L 5 5.484375 L 5 5.558594 M 16.617188 16.441406 L 16.382812 14.578125 L 14 13.984375 L 14 13.910156 L 13.617188 13.832031 C 12.691406 14.726562 12.152344 16.292969 12 18.53125 L 11.691406 18.753906 L 11.691406 22.109375 L 11.921875 22.109375 L 11.921875 22.257812 C 12.027344 23.253906 12.332031 23.898438 12.847656 24.195312 L 14.230469 24.121094 L 14.230469 24.195312 L 14.308594 24.195312 C 16.617188 23.800781 17.4375 21.933594 16.769531 18.605469 L 16.691406 17.113281 L 16.769531 17.113281 L 16.617188 16.519531 L 16.617188 16.441406 M 18.617188 14.878906 L 18.539062 14.726562 L 18.382812 14.726562 L 18.617188 14.878906 M 14.230469 20.917969 C 13.667969 20.917969 13.308594 20.644531 13.152344 20.097656 L 13.152344 19.277344 C 13.152344 18.183594 13.511719 17.636719 14.230469 17.636719 C 15.152344 17.636719 15.488281 18.234375 15.230469 19.425781 C 15.230469 20.417969 14.898438 20.917969 14.230469 20.917969 M 12.382812 25.167969 L 18.617188 25.613281 L 18.230469 25.835938 L 11.921875 25.464844 L 12 25.167969 L 12.382812 25.167969 "/>
<path style=" stroke:none;fill-rule:evenodd;fill:rgb(0%,20%,60.000002%);fill-opacity:1;" d="M 37.921875 20.023438 L 37.847656 18.53125 L 37.847656 16.292969 C 37.949219 15.796875 38.382812 15.324219 39.152344 14.878906 L 40.308594 13.984375 L 43.230469 13.757812 L 45.769531 13.984375 L 45.691406 14.207031 C 46.101562 14.40625 46.359375 15.324219 46.460938 16.964844 L 46.847656 17.859375 L 46.539062 18.082031 C 44.949219 17.039062 43.871094 16.519531 43.308594 16.519531 C 40.691406 16.519531 39.101562 17.164062 38.539062 18.457031 L 38.460938 20.765625 L 38.230469 20.917969 C 38.078125 20.765625 38 20.417969 38 19.871094 L 37.921875 20.023438 M 11.921875 22.109375 L 11.691406 22.109375 L 11.691406 18.753906 L 12 18.53125 C 12.152344 16.292969 12.691406 14.726562 13.617188 13.832031 L 14 13.910156 L 14 13.984375 L 16.382812 14.578125 L 16.617188 16.441406 L 16.539062 16.441406 L 16.617188 16.519531 L 16.769531 17.113281 L 16.691406 17.113281 C 13.921875 17.3125 12.4375 17.984375 12.230469 19.128906 C 12.128906 19.773438 12.101562 20.765625 12.152344 22.109375 L 11.921875 22.109375 "/>
<path style=" stroke:none;fill-rule:evenodd;fill:rgb(0%,60.000002%,80.000001%);fill-opacity:1;" d="M 37.921875 20.023438 L 38 19.871094 C 38 20.417969 38.078125 20.765625 38.230469 20.917969 L 38.460938 20.765625 L 38.539062 18.457031 C 39.101562 17.164062 40.691406 16.519531 43.308594 16.519531 C 43.871094 16.519531 44.949219 17.039062 46.539062 18.082031 L 46.539062 19.351562 C 47.050781 23.375 46.308594 25.390625 44.308594 25.390625 C 40.460938 25.390625 38.332031 23.601562 37.921875 20.023438 M 45.617188 23.152344 L 44.691406 23.152344 L 44.078125 23.824219 L 44.230469 24.347656 L 45.460938 24.347656 L 45.617188 24.273438 L 45.617188 23.152344 M 41 19.5 L 41.152344 20.320312 C 41.359375 20.867188 41.742188 21.140625 42.308594 21.140625 C 43.28125 21.140625 43.769531 20.84375 43.769531 20.246094 C 43.667969 18.507812 43.207031 17.636719 42.382812 17.636719 C 41.460938 17.636719 41 18.257812 41 19.5 M 11.921875 22.109375 L 12.152344 22.109375 C 12.101562 20.765625 12.128906 19.773438 12.230469 19.128906 C 12.4375 17.984375 13.921875 17.3125 16.691406 17.113281 L 16.769531 18.605469 C 17.4375 21.933594 16.617188 23.800781 14.308594 24.195312 L 14.230469 24.121094 L 12.847656 24.195312 C 12.332031 23.898438 12.027344 23.253906 11.921875 22.257812 L 11.921875 22.109375 M 16.617188 16.519531 L 16.539062 16.441406 L 16.617188 16.441406 L 16.617188 16.519531 M 16.539062 21.363281 L 15.847656 20.992188 L 14.921875 22.109375 C 15.078125 22.40625 15.4375 22.558594 16 22.558594 L 16.539062 22.480469 L 16.539062 21.363281 M 14.230469 20.917969 C 14.898438 20.917969 15.230469 20.417969 15.230469 19.425781 C 15.488281 18.234375 15.152344 17.636719 14.230469 17.636719 C 13.511719 17.636719 13.152344 18.183594 13.152344 19.277344 L 13.152344 20.097656 C 13.308594 20.644531 13.667969 20.917969 14.230469 20.917969 "/>
<path style=" stroke:none;fill-rule:evenodd;fill:rgb(100%,100%,100%);fill-opacity:1;" d="M 52.078125 17.5625 L 52.078125 17.785156 C 52.078125 18.976562 50.847656 21.164062 48.382812 24.347656 L 48.382812 24.570312 L 48.539062 25.167969 L 45.382812 25.761719 C 47.027344 25.214844 47.589844 23.105469 47.078125 19.425781 C 47.078125 16.742188 46.898438 14.976562 46.539062 14.132812 C 47.460938 14.378906 48.101562 14.777344 48.460938 15.324219 L 48.847656 15.324219 L 50.691406 17.039062 L 50.769531 17.113281 L 51.539062 17.636719 L 51.847656 17.636719 L 51.921875 17.414062 L 52.078125 17.5625 M 38.382812 25.167969 C 37.871094 24.769531 37.460938 24.171875 37.152344 23.375 L 36.382812 21.140625 L 33.921875 16.890625 L 34.078125 16.519531 L 34.078125 16.441406 L 34.308594 16.441406 L 34.230469 16.367188 C 34.847656 15.871094 35.410156 15.449219 35.921875 15.101562 L 38.921875 14.207031 C 37.847656 15 37.308594 16.441406 37.308594 18.53125 L 38 22.257812 C 38.972656 24.347656 40.667969 25.539062 43.078125 25.835938 L 41.691406 25.835938 C 40.308594 25.835938 39.308594 25.539062 38.691406 24.941406 L 38.617188 25.015625 L 38.691406 25.167969 L 38.691406 25.390625 L 38.382812 25.167969 M 45.617188 23.152344 L 45.617188 24.273438 L 45.460938 24.347656 L 44.230469 24.347656 L 44.078125 23.824219 L 44.691406 23.152344 L 45.617188 23.152344 M 20.230469 17.335938 L 20.078125 17.335938 L 20.230469 18.457031 L 19.382812 23.675781 L 19.078125 23.675781 L 19.078125 23.601562 L 18.847656 23.601562 L 18.691406 24.195312 L 16.308594 24.496094 L 16 24.496094 C 17.4375 23.75 17.871094 21.761719 17.308594 18.53125 L 17 14.804688 L 17.460938 14.953125 L 19.078125 16.667969 L 19.152344 16.21875 L 19.230469 16.21875 L 20.230469 17.335938 M 9.382812 22.78125 L 6.921875 17.113281 L 6.847656 16.890625 L 7.078125 16.890625 L 7.078125 16.742188 L 7.152344 16.816406 L 7.539062 15.996094 L 7.921875 15.25 C 8.640625 14.304688 9.949219 13.808594 11.847656 13.757812 L 12.847656 13.757812 C 12.027344 14.304688 11.539062 15.324219 11.382812 16.816406 L 11.460938 19.949219 L 11.460938 22.40625 C 11.617188 23.152344 11.898438 23.726562 12.308594 24.121094 L 10.691406 23.527344 L 9.691406 22.78125 L 9.382812 22.78125 M 16.539062 21.363281 L 16.539062 22.480469 L 16 22.558594 C 15.4375 22.558594 15.078125 22.40625 14.921875 22.109375 L 15.847656 20.992188 L 16.539062 21.363281 "/>
<path style=" stroke:none;fill-rule:evenodd;fill:rgb(100%,80.000001%,20%);fill-opacity:1;" d="M 5 5.558594 L 5 5.484375 L 5.078125 4.960938 L 5.382812 5.257812 L 5.078125 5.257812 L 5 5.558594 "/>
</g>
</svg>
