<?xml version="1.0" encoding="UTF-8"?>
<svg xmlns="http://www.w3.org/2000/svg" xmlns:xlink="http://www.w3.org/1999/xlink" width="65px" height="39px" viewBox="0 0 65 39" version="1.1">
<g id="surface1">
<path style=" stroke:none;fill-rule:evenodd;fill:rgb(0%,0%,0%);fill-opacity:1;" d="M 52 9.210938 L 50.847656 9.660156 L 50.230469 9.957031 L 49 10.703125 L 41.847656 13.535156 L 41.691406 13.609375 C 41.28125 13.808594 40.792969 14.082031 40.230469 14.429688 L 37.617188 15.921875 L 32.691406 18.902344 L 31.921875 17.933594 L 32.769531 16.367188 C 33.078125 15.472656 33.972656 14.851562 35.460938 14.503906 L 40.308594 13.089844 L 40.921875 12.9375 L 47.769531 10.105469 C 51.921875 8.21875 54.410156 7.273438 55.230469 7.273438 C 55.488281 7.273438 55.640625 7.398438 55.691406 7.644531 C 55.691406 7.992188 55.257812 8.21875 54.382812 8.316406 C 53.308594 8.464844 52.511719 8.765625 52 9.210938 M 37.769531 21.140625 L 43 21.738281 L 48.691406 22.257812 C 49.617188 22.257812 50.71875 21.664062 52 20.46875 C 53.230469 19.277344 54.027344 18.679688 54.382812 18.679688 L 54.460938 18.679688 L 54.691406 18.902344 L 54.921875 18.902344 L 55 19.128906 L 53.152344 20.84375 L 53.308594 20.765625 C 54.230469 20.171875 55 19.871094 55.617188 19.871094 L 56.230469 20.246094 L 54.382812 21.289062 C 53.101562 21.835938 52.230469 22.109375 51.769531 22.109375 L 51.539062 21.960938 L 48.769531 23.078125 L 42.078125 22.480469 C 38.640625 22.183594 36.921875 21.886719 36.921875 21.585938 L 37.230469 21.214844 L 37.382812 21.363281 L 37.691406 21.140625 L 37.769531 21.140625 M 56.769531 15.921875 L 56.152344 15.472656 L 55.847656 15.699219 L 53.539062 15.25 L 46 15.996094 L 46 16.816406 C 46 18.15625 44.949219 18.828125 42.847656 18.828125 C 41.921875 18.828125 41.257812 18.554688 40.847656 18.007812 L 40.460938 17.1875 L 40.460938 17.039062 L 37.847656 17.488281 L 36.152344 19.351562 L 36.078125 19.351562 C 35.71875 19.351562 35.539062 19.5 35.539062 19.796875 L 35.308594 19.871094 L 34.921875 19.351562 L 36.230469 17.859375 C 37.050781 17.066406 37.5625 16.667969 37.769531 16.667969 L 37.847656 16.667969 L 39.078125 16.21875 L 42.460938 15.625 C 43.949219 14.828125 47.667969 14.429688 53.617188 14.429688 C 55.207031 14.429688 56.332031 14.777344 57 15.472656 L 56.769531 15.921875 M 41.382812 17.1875 C 41.640625 17.6875 42.152344 17.933594 42.921875 17.933594 C 44.460938 17.933594 45.230469 17.585938 45.230469 16.890625 L 45.308594 16.070312 L 42.921875 16.367188 L 41.230469 16.816406 L 41.382812 17.1875 M 22.691406 16.667969 L 23 17.710938 L 23.152344 19.277344 L 22.769531 19.351562 L 19.152344 16.367188 L 17.308594 14.878906 L 16.230469 14.058594 L 16.152344 13.984375 L 10.921875 11.148438 L 10.078125 10.402344 L 9.617188 10.105469 L 8.769531 9.660156 L 7.078125 8.765625 C 6.410156 8.664062 6.078125 8.441406 6.078125 8.09375 C 6.128906 7.84375 6.257812 7.71875 6.460938 7.71875 C 7.027344 7.71875 8.820312 8.664062 11.847656 10.554688 L 16.769531 13.386719 L 16.921875 13.460938 L 17 13.460938 L 17.847656 13.910156 L 18.921875 14.578125 L 19.078125 14.578125 L 19.460938 14.878906 L 22.691406 16.667969 M 5.308594 16.367188 L 5.152344 15.921875 C 5.617188 15.226562 6.4375 14.878906 7.617188 14.878906 C 11.871094 14.878906 14.5625 15.273438 15.691406 16.070312 L 18.152344 16.667969 L 19 17.113281 L 19.078125 17.113281 L 20.152344 18.308594 L 21.152344 19.796875 L 20.847656 20.320312 L 20.539062 20.097656 L 19 17.933594 L 17.152344 17.488281 L 17.152344 17.636719 L 16.847656 18.457031 C 16.539062 19.003906 16.050781 19.277344 15.382812 19.277344 C 13.847656 19.277344 13.101562 18.605469 13.152344 17.261719 L 13.152344 16.441406 L 7.691406 15.699219 C 6.972656 15.699219 6.332031 15.894531 5.769531 16.292969 L 5.691406 16.21875 L 5.308594 16.367188 M 19.691406 22.035156 C 19.640625 22.332031 18.382812 22.632812 15.921875 22.929688 L 11.078125 23.527344 C 10.769531 23.527344 10.128906 23.152344 9.152344 22.40625 L 8.921875 22.558594 L 7.078125 21.738281 L 5.691406 20.691406 C 5.742188 20.445312 5.898438 20.320312 6.152344 20.320312 C 6.617188 20.320312 7.179688 20.617188 7.847656 21.214844 L 8 21.289062 L 6.617188 19.574219 L 6.691406 19.351562 L 7.152344 19.203125 L 8.769531 20.917969 C 9.691406 22.109375 10.488281 22.707031 11.152344 22.707031 L 15.308594 22.183594 C 16.179688 21.785156 17.4375 21.585938 19.078125 21.585938 L 19.152344 21.585938 L 19.691406 22.035156 M 13.617188 16.519531 L 13.691406 17.335938 C 13.640625 18.035156 14.179688 18.382812 15.308594 18.382812 L 16.460938 17.636719 L 16.539062 17.261719 L 15.308594 16.816406 L 13.617188 16.519531 "/>
<path style=" stroke:none;fill-rule:evenodd;fill:rgb(100%,100%,100%);fill-opacity:1;" d="M 54.921875 18.902344 L 54.691406 18.902344 L 54.460938 18.679688 L 54.382812 18.679688 C 54.027344 18.679688 53.230469 19.277344 52 20.46875 C 50.71875 21.664062 49.617188 22.257812 48.691406 22.257812 L 43 21.738281 L 37.769531 21.140625 L 37.691406 21.140625 L 37.382812 21.363281 L 37.230469 21.214844 L 37.152344 21.140625 L 37.078125 21.140625 L 35.539062 19.796875 C 35.539062 19.5 35.71875 19.351562 36.078125 19.351562 L 36.152344 19.351562 L 37.847656 17.488281 L 40.460938 17.039062 L 40.460938 17.1875 L 40.847656 18.007812 C 41.257812 18.554688 41.921875 18.828125 42.847656 18.828125 C 44.949219 18.828125 46 18.15625 46 16.816406 L 46 15.996094 L 53.539062 15.25 L 55.847656 15.699219 L 56.152344 15.472656 L 56.769531 15.921875 L 56.769531 16.070312 L 56 17.636719 L 54.921875 18.902344 M 6.691406 19.351562 L 6.617188 19.351562 C 6.101562 19.351562 5.847656 18.902344 5.847656 18.007812 L 5.152344 16.667969 L 5.308594 16.367188 L 5.691406 16.21875 L 5.769531 16.292969 C 6.332031 15.894531 6.972656 15.699219 7.691406 15.699219 L 13.152344 16.441406 L 13.152344 17.261719 C 13.101562 18.605469 13.847656 19.277344 15.382812 19.277344 C 16.050781 19.277344 16.539062 19.003906 16.847656 18.457031 L 17.152344 17.636719 L 17.152344 17.488281 L 19 17.933594 L 20.539062 20.097656 L 20.847656 20.320312 L 20.921875 20.542969 C 20.921875 21.539062 20.511719 22.035156 19.691406 22.035156 L 19.152344 21.585938 L 19.078125 21.585938 C 17.4375 21.585938 16.179688 21.785156 15.308594 22.183594 L 11.152344 22.707031 C 10.488281 22.707031 9.691406 22.109375 8.769531 20.917969 L 7.152344 19.203125 L 6.691406 19.351562 "/>
<path style=" stroke:none;fill-rule:evenodd;fill:rgb(20%,20%,20%);fill-opacity:1;" d="M 41.382812 17.1875 L 41.230469 16.816406 L 42.921875 16.367188 L 45.308594 16.070312 L 45.230469 16.890625 C 45.230469 17.585938 44.460938 17.933594 42.921875 17.933594 C 42.152344 17.933594 41.640625 17.6875 41.382812 17.1875 M 13.617188 16.519531 L 15.308594 16.816406 L 16.539062 17.261719 L 16.460938 17.636719 L 15.308594 18.382812 C 14.179688 18.382812 13.640625 18.035156 13.691406 17.335938 L 13.617188 16.519531 "/>
</g>
</svg>
