<?xml version="1.0" encoding="UTF-8"?>
<svg xmlns="http://www.w3.org/2000/svg" xmlns:xlink="http://www.w3.org/1999/xlink" width="65px" height="39px" viewBox="0 0 65 39" version="1.1">
<g id="surface1">
<path style=" stroke:none;fill-rule:evenodd;fill:rgb(100%,100%,100%);fill-opacity:1;" d="M 49.847656 19.796875 L 48.539062 21.289062 L 47.308594 21.4375 L 47.230469 21.664062 L 45.382812 21.585938 L 45 21.585938 C 45.5625 20.992188 46.027344 19.996094 46.382812 18.605469 C 46.382812 17.710938 46.179688 17.039062 45.769531 16.59375 L 52 16.367188 L 52 16.59375 C 50.410156 17.785156 49.617188 18.730469 49.617188 19.425781 L 49.617188 19.574219 L 49.769531 19.5 L 49.921875 19.648438 L 49.847656 19.796875 M 38.460938 22.332031 L 38.539062 22.480469 L 38.308594 22.707031 L 34.308594 18.53125 L 34.617188 18.382812 L 34.691406 18.457031 L 39.382812 16.742188 L 40.308594 16.742188 C 39.691406 17.289062 39.382812 18.109375 39.382812 19.203125 L 39.691406 20.765625 L 41 21.8125 L 38.230469 22.035156 L 38.152344 22.109375 L 38.230469 22.109375 L 38.460938 22.332031 M 44.847656 20.992188 L 44.921875 20.917969 L 44.921875 20.992188 L 44.847656 20.992188 M 8.617188 19.128906 L 8.460938 18.976562 L 8.691406 18.902344 L 8.691406 18.234375 L 7.539062 16.667969 L 7.691406 16.667969 L 8.078125 16.890625 L 8.382812 16.667969 L 12.539062 16.441406 C 10.949219 17.289062 10.152344 18.308594 10.152344 19.5 C 10.257812 20.890625 10.792969 21.738281 11.769531 22.035156 L 11 21.960938 L 10.617188 21.8125 L 10.460938 21.8125 L 10.382812 21.664062 L 8.617188 19.128906 M 16.769531 22.257812 L 16.230469 22.183594 L 15.691406 22.183594 L 15.691406 22.257812 L 13.382812 22.183594 C 15.382812 21.933594 16.382812 20.71875 16.382812 18.53125 L 16.230469 17.414062 L 16.691406 17.710938 L 18.691406 18.902344 L 18.539062 18.902344 L 18.691406 19.574219 C 18.691406 20.121094 18.488281 20.59375 18.078125 20.992188 L 16.769531 22.257812 "/>
<path style=" stroke:none;fill-rule:evenodd;fill:rgb(0%,0%,0%);fill-opacity:1;" d="M 52.769531 6.824219 L 52.847656 7.125 C 52.847656 8.664062 50.230469 10.230469 45 11.820312 L 44.078125 11.96875 L 41.769531 12.417969 L 41.691406 12.417969 C 35.640625 13.511719 32.050781 14.503906 30.921875 15.398438 L 30.691406 15.25 L 29.769531 16.070312 L 29.460938 15.773438 C 29.460938 15.425781 29.921875 14.953125 30.847656 14.355469 C 31.820312 13.261719 35.207031 12.144531 41 11 L 42.539062 10.703125 L 46.152344 9.660156 L 48.078125 8.839844 L 52.078125 6.75 L 52.769531 6.824219 M 34.308594 18.53125 L 33.078125 18.902344 C 32.972656 19.050781 32.921875 19.027344 32.921875 18.828125 L 32.769531 18.753906 L 32.691406 18.382812 C 32.691406 17.785156 33.949219 17.1875 36.460938 16.59375 L 47.308594 15.546875 L 50.152344 15.625 L 50.617188 15.398438 L 50.769531 15.25 L 50.847656 15.25 L 52 14.652344 L 52.382812 14.804688 L 52.152344 15.472656 L 54.230469 14.652344 L 54.617188 14.804688 L 53.769531 15.625 L 53.617188 15.921875 L 53.617188 15.996094 L 51.078125 18.976562 L 50.308594 19.949219 L 50.152344 19.871094 L 50.230469 19.871094 L 50.078125 19.871094 L 49.847656 19.796875 L 49.921875 19.648438 L 49.769531 19.5 L 49.617188 19.574219 L 49.617188 19.425781 C 49.617188 18.730469 50.410156 17.785156 52 16.59375 L 52 16.367188 L 45.769531 16.59375 C 46.179688 17.039062 46.382812 17.710938 46.382812 18.605469 C 46.027344 19.996094 45.5625 20.992188 45 21.585938 L 45.382812 21.585938 L 47.230469 21.664062 L 47.308594 21.4375 L 48.539062 21.289062 L 49 20.992188 L 49.308594 21.140625 L 48.308594 21.8125 C 49.230469 21.859375 49.972656 22.085938 50.539062 22.480469 L 50.230469 22.78125 L 48.921875 22.40625 L 47.691406 22.183594 L 47.539062 22.257812 L 47.460938 22.257812 C 47 22.753906 46.128906 23.003906 44.847656 23.003906 L 43.617188 22.855469 L 43.921875 22.40625 L 41.078125 22.40625 L 38.460938 22.332031 L 38.230469 22.109375 L 38.230469 22.035156 L 41 21.8125 L 39.691406 20.765625 L 39.382812 19.203125 C 39.382812 18.109375 39.691406 17.289062 40.308594 16.742188 L 39.382812 16.742188 L 34.691406 18.457031 L 34.617188 18.382812 L 34.308594 18.53125 M 36.460938 15.847656 L 32.617188 17.488281 L 32.152344 17.335938 C 35.179688 15.398438 38.207031 14.429688 41.230469 14.429688 L 43.617188 14.726562 C 42.792969 15.324219 41.921875 15.449219 41 15.101562 L 39 15.175781 L 36.460938 15.847656 M 44.921875 20.917969 C 45.640625 20.417969 46 19.523438 46 18.234375 C 46 17.1875 44.949219 16.667969 42.847656 16.667969 C 41.050781 16.667969 40.152344 17.414062 40.152344 18.902344 C 40.152344 20.394531 40.921875 21.238281 42.460938 21.4375 L 42 20.917969 L 42.152344 20.542969 C 41.488281 20.296875 41.152344 19.75 41.152344 18.902344 C 40.898438 18.804688 40.769531 18.605469 40.769531 18.308594 C 40.769531 17.808594 41.027344 17.5625 41.539062 17.5625 L 41.691406 17.5625 C 42 17.261719 42.511719 17.113281 43.230469 17.113281 C 44.308594 17.113281 45 17.386719 45.308594 17.933594 L 45.691406 18.53125 L 45.382812 19.128906 C 45.179688 20.222656 44.539062 20.765625 43.460938 20.765625 L 43.460938 20.84375 L 43.078125 21.4375 L 44.847656 20.992188 L 44.921875 20.992188 L 44.921875 20.917969 M 42.152344 18.082031 L 41.460938 18.902344 C 41.460938 19.75 41.871094 20.246094 42.691406 20.394531 L 42.847656 20.394531 L 43.230469 20.46875 L 43.382812 20.46875 C 44.308594 20.46875 44.847656 20.046875 45 19.203125 L 44.921875 19.203125 C 44.460938 19.203125 44.230469 19.027344 44.230469 18.679688 C 44.230469 18.28125 44.4375 18.058594 44.847656 18.007812 C 44.539062 17.609375 43.847656 17.414062 42.769531 17.414062 C 42.410156 17.414062 42.128906 17.488281 41.921875 17.636719 L 42.152344 18.082031 M 46.382812 22.257812 L 44.769531 22.40625 L 46.152344 22.332031 L 46.382812 22.257812 M 41.769531 23.453125 L 38.617188 23.898438 L 37.078125 23.898438 L 37 23.527344 L 41.617188 23.300781 L 41.769531 23.453125 M 42.382812 19.050781 C 42.382812 18.65625 42.617188 18.457031 43.078125 18.457031 C 43.382812 18.457031 43.5625 18.753906 43.617188 19.351562 C 43.617188 19.796875 43.410156 20.023438 43 20.023438 C 42.589844 20.023438 42.382812 19.699219 42.382812 19.050781 M 19.769531 14.878906 L 19.230469 14.953125 C 17.382812 14.007812 16.382812 13.535156 16.230469 13.535156 C 13.769531 13.535156 11.179688 13.113281 8.460938 12.269531 C 6.460938 11.570312 4.488281 10.527344 2.539062 9.136719 L 2.921875 8.839844 C 3.742188 8.839844 5.078125 9.285156 6.921875 10.179688 C 8.921875 11.125 10.511719 11.671875 11.691406 11.820312 C 14.308594 12.117188 16.128906 12.542969 17.152344 13.089844 L 19.769531 14.503906 L 19.769531 14.878906 M 20 18.082031 L 19.921875 17.710938 L 21.382812 17.636719 L 20.617188 16.21875 L 20.847656 16.21875 L 21.769531 17.488281 C 21.769531 17.933594 21.460938 18.15625 20.847656 18.15625 L 20 18.082031 M 30.921875 17.488281 L 31.539062 17.5625 L 31.617188 17.710938 C 31.617188 17.859375 31.4375 17.933594 31.078125 17.933594 C 30.71875 17.933594 30.539062 17.761719 30.539062 17.414062 C 30.539062 16.367188 30.792969 16.019531 31.308594 16.367188 L 31.460938 16.519531 C 31.101562 16.714844 30.921875 16.988281 30.921875 17.335938 L 30.921875 17.488281 M 10.382812 21.664062 L 10.460938 21.8125 L 10.617188 21.8125 L 11 21.960938 L 11.769531 22.035156 C 10.792969 21.738281 10.257812 20.890625 10.152344 19.5 C 10.152344 18.308594 10.949219 17.289062 12.539062 16.441406 L 8.382812 16.667969 L 8.078125 16.890625 L 7.691406 16.667969 L 7.539062 16.667969 L 8.691406 18.234375 L 8.691406 18.902344 L 8.460938 18.976562 L 8.617188 19.128906 L 8.382812 19.128906 L 8.078125 19.050781 L 8 19.128906 L 7.078125 18.308594 C 6.460938 17.910156 5.769531 17.140625 5 15.996094 L 5.308594 15.699219 L 6.308594 16.292969 L 6.152344 15.472656 L 6.539062 15.324219 C 6.742188 15.324219 7.078125 15.5 7.539062 15.847656 L 11.769531 15.546875 C 13.460938 15.546875 15.152344 15.996094 16.847656 16.890625 L 17.847656 17.335938 L 18.921875 18.234375 L 19.308594 18.53125 L 19.308594 18.753906 L 19.460938 19.050781 L 19.152344 19.203125 L 18.769531 18.976562 L 18.691406 18.902344 L 16.691406 17.710938 L 16.230469 17.414062 L 16.382812 18.53125 C 16.382812 20.71875 15.382812 21.933594 13.382812 22.183594 L 15.691406 22.257812 L 15.691406 22.183594 L 16.230469 22.183594 L 16.769531 22.257812 L 16.847656 22.332031 L 17.460938 22.332031 L 17.308594 22.480469 L 17.460938 22.480469 L 17.230469 22.707031 L 11 22.632812 L 10.921875 22.480469 L 9.691406 22.78125 L 8.617188 22.632812 C 8.71875 22.285156 9.152344 22.085938 9.921875 22.035156 L 9.308594 21.289062 L 9.539062 20.992188 L 9.921875 21.4375 L 10 21.511719 L 10.382812 21.664062 M 12.691406 18.007812 C 12.230469 18.308594 11.972656 19.003906 11.921875 20.097656 L 12 20.097656 L 12.539062 20.617188 L 13.382812 20.691406 L 14.078125 20.542969 L 14.078125 20.394531 L 14.460938 20.171875 L 14.617188 19.425781 C 14.617188 18.679688 14.4375 18.207031 14.078125 18.007812 C 14.078125 18.257812 13.792969 18.382812 13.230469 18.382812 L 12.691406 18.007812 M 13.921875 17.5625 C 14.589844 17.761719 14.921875 18.382812 14.921875 19.425781 L 14.847656 20.023438 L 15.230469 20.46875 C 15.230469 20.867188 14.949219 21.066406 14.382812 21.066406 L 14.078125 20.992188 L 14.078125 20.917969 L 13.308594 20.992188 L 12.539062 20.917969 C 12.488281 21.117188 12.28125 21.214844 11.921875 21.214844 C 11.511719 21.214844 11.308594 20.992188 11.308594 20.542969 L 11.617188 20.171875 L 11.617188 19.949219 C 11.617188 18.605469 12.027344 17.808594 12.847656 17.5625 C 12.949219 17.460938 13.101562 17.414062 13.308594 17.414062 L 13.921875 17.5625 M 12.847656 14.578125 C 14.28125 14.578125 16.488281 15.472656 19.460938 17.261719 L 19.230469 17.488281 C 15.949219 15.945312 13.691406 15.050781 12.460938 14.804688 L 12.460938 14.578125 L 12.847656 14.578125 M 15.921875 18.902344 C 15.921875 17.710938 15.128906 17.113281 13.539062 17.113281 C 11.847656 17.113281 11 17.984375 11 19.722656 C 10.898438 21.117188 11.410156 21.8125 12.539062 21.8125 C 14.792969 21.8125 15.921875 20.84375 15.921875 18.902344 M 17.078125 23.375 L 17.230469 23.375 L 19.308594 23.003906 L 19.460938 23.152344 C 19.257812 23.601562 18.589844 23.824219 17.460938 23.824219 L 14.847656 23.601562 L 14.769531 23.226562 L 16.152344 23.226562 L 17.078125 23.375 M 12.691406 19.5 C 12.691406 18.953125 12.972656 18.679688 13.539062 18.679688 C 14.050781 18.679688 14.308594 18.902344 14.308594 19.351562 C 14.308594 19.996094 13.898438 20.320312 13.078125 20.320312 L 12.769531 20.246094 L 12.691406 19.5 "/>
<path style=" stroke:none;fill-rule:evenodd;fill:rgb(60.000002%,0%,0%);fill-opacity:1;" d="M 44.847656 20.992188 L 43.078125 21.4375 L 43.460938 20.84375 L 43.460938 20.765625 C 44.539062 20.765625 45.179688 20.222656 45.382812 19.128906 L 45.691406 18.53125 L 45.308594 17.933594 C 45 17.386719 44.308594 17.113281 43.230469 17.113281 C 42.511719 17.113281 42 17.261719 41.691406 17.5625 L 41.539062 17.5625 C 41.027344 17.5625 40.769531 17.808594 40.769531 18.308594 C 40.769531 18.605469 40.898438 18.804688 41.152344 18.902344 C 41.152344 19.75 41.488281 20.296875 42.152344 20.542969 L 42 20.917969 L 42.460938 21.4375 C 40.921875 21.238281 40.152344 20.394531 40.152344 18.902344 C 40.152344 17.414062 41.050781 16.667969 42.847656 16.667969 C 44.949219 16.667969 46 17.1875 46 18.234375 C 46 19.523438 45.640625 20.417969 44.921875 20.917969 L 44.847656 20.992188 M 42.152344 18.082031 L 41.921875 17.636719 C 42.128906 17.488281 42.410156 17.414062 42.769531 17.414062 C 43.847656 17.414062 44.539062 17.609375 44.847656 18.007812 C 44.4375 18.058594 44.230469 18.28125 44.230469 18.679688 C 44.230469 19.027344 44.460938 19.203125 44.921875 19.203125 L 45 19.203125 C 44.847656 20.046875 44.308594 20.46875 43.382812 20.46875 L 43.230469 20.46875 L 42.847656 20.394531 L 42.691406 20.394531 C 41.871094 20.246094 41.460938 19.75 41.460938 18.902344 L 42.152344 18.082031 M 42.382812 19.050781 C 42.382812 19.699219 42.589844 20.023438 43 20.023438 C 43.410156 20.023438 43.617188 19.796875 43.617188 19.351562 C 43.5625 18.753906 43.382812 18.457031 43.078125 18.457031 C 42.617188 18.457031 42.382812 18.65625 42.382812 19.050781 M 13.921875 17.5625 L 13.308594 17.414062 C 13.101562 17.414062 12.949219 17.460938 12.847656 17.5625 C 12.027344 17.808594 11.617188 18.605469 11.617188 19.949219 L 11.617188 20.171875 L 11.308594 20.542969 C 11.308594 20.992188 11.511719 21.214844 11.921875 21.214844 C 12.28125 21.214844 12.488281 21.117188 12.539062 20.917969 L 13.308594 20.992188 L 14.078125 20.917969 L 14.078125 20.992188 L 14.382812 21.066406 C 14.949219 21.066406 15.230469 20.867188 15.230469 20.46875 L 14.847656 20.023438 L 14.921875 19.425781 C 14.921875 18.382812 14.589844 17.761719 13.921875 17.5625 M 12.691406 18.007812 L 13.230469 18.382812 C 13.792969 18.382812 14.078125 18.257812 14.078125 18.007812 C 14.4375 18.207031 14.617188 18.679688 14.617188 19.425781 L 14.460938 20.171875 L 14.078125 20.394531 L 14.078125 20.542969 L 13.382812 20.691406 L 12.539062 20.617188 L 12 20.097656 L 11.921875 20.097656 C 11.972656 19.003906 12.230469 18.308594 12.691406 18.007812 M 15.921875 18.902344 C 15.921875 20.84375 14.792969 21.8125 12.539062 21.8125 C 11.410156 21.8125 10.898438 21.117188 11 19.722656 C 11 17.984375 11.847656 17.113281 13.539062 17.113281 C 15.128906 17.113281 15.921875 17.710938 15.921875 18.902344 M 12.691406 19.5 L 12.769531 20.246094 L 13.078125 20.320312 C 13.898438 20.320312 14.308594 19.996094 14.308594 19.351562 C 14.308594 18.902344 14.050781 18.679688 13.539062 18.679688 C 12.972656 18.679688 12.691406 18.953125 12.691406 19.5 "/>
</g>
</svg>
