<?xml version="1.0" encoding="UTF-8"?>
<svg xmlns="http://www.w3.org/2000/svg" xmlns:xlink="http://www.w3.org/1999/xlink" width="65px" height="39px" viewBox="0 0 65 39" version="1.1">
<g id="surface1">
<path style=" stroke:none;fill-rule:evenodd;fill:rgb(0%,0%,0%);fill-opacity:1;" d="M 58.230469 11.820312 L 59 11.597656 L 53.921875 11.523438 L 52.308594 11.671875 L 45.691406 12.640625 L 42.308594 13.386719 C 41.949219 13.4375 41.230469 13.734375 40.152344 14.28125 C 38.511719 15.375 36.820312 15.921875 35.078125 15.921875 L 33.230469 15.625 L 33.769531 17.261719 L 33.769531 17.414062 L 33.847656 17.859375 C 34.101562 18.308594 34.667969 18.53125 35.539062 18.53125 C 36.460938 18.53125 38 17.859375 40.152344 16.519531 C 42.050781 16.070312 44.257812 15.351562 46.769531 14.355469 L 50.230469 13.3125 C 51.207031 12.714844 52.4375 12.441406 53.921875 12.492188 L 55.460938 12.195312 L 58.230469 11.820312 M 55 17.261719 L 54.460938 16.441406 L 54.460938 16.21875 L 53.769531 16.21875 L 54.078125 17.414062 L 54.308594 18.382812 L 54.921875 17.636719 L 55 17.335938 L 55 17.261719 M 51.847656 16.21875 L 50.769531 16.292969 L 51.152344 17.414062 C 50.640625 19.996094 49.792969 21.289062 48.617188 21.289062 L 46.539062 20.992188 C 45.460938 20.792969 44.691406 20.417969 44.230469 19.871094 L 43.921875 19.277344 L 44.078125 19.203125 L 44 19.128906 L 43.769531 19.050781 L 43.769531 18.976562 L 43.617188 18.53125 L 43 18.902344 L 43.539062 19.425781 L 44.152344 20.246094 C 44.972656 21.191406 46.101562 21.664062 47.539062 21.664062 C 50.308594 21.664062 51.820312 20.371094 52.078125 17.785156 L 51.847656 16.519531 L 51.847656 16.21875 M 52.617188 17.414062 L 52.617188 17.710938 C 52.617188 18.953125 52.332031 19.796875 51.769531 20.246094 L 49.691406 21.960938 L 47.617188 22.257812 C 45.511719 22.257812 43.921875 21.390625 42.847656 19.648438 L 42.539062 19.128906 L 41.921875 19.5 L 41.847656 19.5 L 42.078125 19.871094 L 42.539062 20.992188 L 43.539062 21.960938 L 45.847656 22.480469 L 49.921875 22.183594 L 52 20.617188 L 52.078125 20.617188 L 53.617188 18.007812 L 53.382812 17.414062 L 53 16.21875 L 52.460938 16.21875 L 52.617188 17.414062 M 58.230469 16.59375 L 58.230469 16.742188 L 56.921875 18.679688 L 56.230469 19.425781 L 51.921875 23.226562 C 51.101562 23.726562 50.230469 24.121094 49.308594 24.421875 L 48.847656 24.421875 L 47 24.347656 L 47 24.273438 L 42.382812 23.898438 L 42.308594 23.898438 C 41.128906 23.351562 39.511719 23.105469 37.460938 23.152344 L 36.460938 23.152344 L 35.382812 22.929688 C 35.539062 22.480469 35.769531 22.058594 36.078125 21.664062 L 37.617188 19.796875 L 36.382812 20.171875 L 36.152344 20.097656 L 36.078125 19.871094 C 36.078125 19.625 37.949219 18.730469 41.691406 17.1875 L 44.769531 15.546875 L 40.539062 16.816406 C 38.078125 18.257812 36.4375 19.003906 35.617188 19.050781 C 34.589844 19.003906 33.898438 18.679688 33.539062 18.082031 L 33.230469 17.414062 C 32.769531 16.964844 32.539062 16.292969 32.539062 15.398438 C 32.539062 15.101562 32.667969 14.953125 32.921875 14.953125 L 35.152344 15.472656 C 37.410156 15.425781 39.382812 14.652344 41.078125 13.164062 C 46.257812 11.722656 50.511719 11 53.847656 11 L 60.617188 11.222656 L 62.617188 10.777344 L 63.308594 11 L 61.078125 11.597656 L 52.691406 13.164062 L 46.691406 14.804688 L 45.847656 15.175781 L 44.539062 15.996094 L 47 15.324219 L 52.460938 15.027344 L 56.230469 15.101562 L 58.691406 15.175781 L 58.617188 15.546875 L 58.308594 16.292969 L 58.308594 16.441406 L 58.230469 16.59375 M 55.539062 16.742188 L 55.847656 16.21875 L 55.308594 16.21875 L 55.539062 16.742188 M 49.152344 16.59375 C 47.5625 16.890625 45.871094 17.488281 44.078125 18.382812 L 44.308594 18.605469 L 44.152344 18.828125 L 45 19.871094 C 45.5625 20.417969 46.382812 20.691406 47.460938 20.691406 L 49 20.46875 L 49.308594 20.394531 L 49.617188 20.246094 L 49.691406 20.320312 C 50.101562 20.320312 50.308594 19.824219 50.308594 18.828125 L 50.230469 18.53125 L 50.230469 18.457031 C 50.230469 17.414062 49.972656 16.839844 49.460938 16.742188 L 49.460938 16.519531 L 49.308594 16.59375 L 49.308594 16.519531 L 49.152344 16.59375 M 48.308594 18.828125 C 48.257812 19.324219 48.050781 19.574219 47.691406 19.574219 C 47.027344 19.574219 46.71875 19.25 46.769531 18.605469 C 46.71875 18.308594 47.027344 18.15625 47.691406 18.15625 L 48.308594 18.828125 M 41.382812 19.648438 L 39.847656 20.320312 L 40.078125 20.84375 L 40.152344 21.289062 L 40.617188 21.738281 L 42.078125 21.886719 L 41.847656 21.363281 L 41.460938 20.171875 L 41.382812 19.648438 M 39.460938 21.140625 L 39.382812 20.765625 L 39.382812 20.542969 L 38.078125 21.664062 L 38.152344 21.664062 L 38 21.738281 L 38.230469 21.738281 L 38.460938 21.8125 L 38.617188 21.738281 L 39.617188 21.738281 L 39.460938 21.140625 M 52.152344 21.289062 L 51.539062 21.738281 L 52 21.511719 L 52.152344 21.289062 M 25.539062 14.207031 L 25.230469 14.726562 L 25.152344 14.804688 L 24.382812 15.996094 L 24.382812 16.144531 C 24.382812 17.488281 23.511719 18.15625 21.769531 18.15625 L 17.382812 16.144531 L 12.152344 14.503906 L 6.691406 12.640625 C 6.078125 12.042969 5.28125 11.722656 4.308594 11.671875 L 1.382812 10.777344 L 1.539062 10.628906 L 1.230469 10.480469 C 1.382812 10.179688 1.691406 10.03125 2.152344 10.03125 C 2.617188 10.03125 3.460938 10.28125 4.691406 10.777344 L 10.078125 11.296875 L 14.691406 12.492188 L 22.691406 15.027344 L 24.769531 14.578125 L 25.308594 13.832031 L 25.539062 14.207031 M 23.769531 16.144531 L 24 15.773438 L 24.308594 15.25 L 22.617188 15.546875 C 20.871094 15.5 19.640625 15.125 18.921875 14.429688 C 18.617188 14.132812 17.71875 13.832031 16.230469 13.535156 L 9.230469 11.746094 L 9.230469 11.597656 L 5.152344 11.375 L 5.152344 11.222656 L 2.308594 10.554688 L 2.691406 10.777344 L 7.382812 12.417969 L 13.078125 14.28125 C 15.027344 14.726562 16.617188 15.300781 17.847656 15.996094 L 21.691406 17.710938 C 22.71875 17.660156 23.4375 17.1875 23.847656 16.292969 L 23.769531 16.144531 M 8 17.414062 L 7.921875 16.890625 L 8 16.21875 L 7.078125 16.292969 L 7.539062 17.414062 L 7.921875 19.5 L 8.078125 19.574219 L 8.921875 20.691406 C 8.511719 19.898438 8.207031 18.804688 8 17.414062 M 6.460938 17.335938 L 6.308594 16.59375 L 6.308594 16.519531 C 6 16.667969 5.898438 16.890625 6 17.1875 L 6.078125 17.261719 L 6.691406 18.308594 L 6.460938 17.335938 M 15.308594 20.46875 L 14 20.617188 L 11.382812 20.097656 C 10.921875 19.699219 10.820312 19.101562 11.078125 18.308594 L 11.152344 17.414062 L 11.152344 17.335938 L 11.308594 17.1875 L 11.230469 17.1875 L 11.382812 16.59375 L 10.769531 16.519531 L 10.382812 16.441406 L 10.382812 16.59375 L 9.921875 17.785156 C 9.921875 18.332031 10.332031 19.027344 11.152344 19.871094 L 11.382812 20.171875 C 12.152344 20.917969 12.921875 21.3125 13.691406 21.363281 L 15.769531 20.542969 L 15.382812 20.617188 L 15.308594 20.542969 L 15.382812 20.542969 L 15.382812 20.46875 L 15.308594 20.46875 M 8.382812 16.21875 L 8.769531 17.414062 L 9.078125 18.828125 C 9.4375 19.972656 10.078125 20.890625 11 21.585938 L 10.691406 21.738281 L 13.617188 22.558594 L 15.847656 22.558594 L 17.078125 21.664062 L 17.308594 21.363281 L 17.921875 20.691406 L 17.460938 20.171875 L 16.691406 20.84375 C 15.71875 21.585938 14.921875 21.960938 14.308594 21.960938 C 11.640625 21.960938 9.949219 20.542969 9.230469 17.710938 L 9.230469 17.414062 L 9.691406 16.367188 L 8.382812 16.21875 M 13 15.847656 L 12.308594 15.546875 L 12.230469 15.25 L 12.539062 15.027344 L 22.230469 19.871094 L 22.078125 20.171875 L 21.921875 20.246094 L 18.152344 18.308594 L 19.152344 19.203125 L 23.078125 23.078125 C 20.617188 23.921875 18 24.347656 15.230469 24.347656 C 11.179688 24.296875 7.898438 22.53125 5.382812 19.050781 C 5.027344 18.65625 4.589844 17.609375 4.078125 15.921875 L 4 15.175781 L 4.847656 14.878906 C 7.972656 14.878906 10.691406 15.199219 13 15.847656 M 12.460938 16.816406 L 12.308594 16.742188 L 12.308594 16.964844 L 12 17.710938 L 12 17.859375 C 12 19.402344 13.027344 20.195312 15.078125 20.246094 C 15.589844 20.195312 16.128906 19.796875 16.691406 19.050781 L 16.382812 18.605469 L 16.152344 18.828125 C 15.28125 17.933594 14.179688 17.289062 12.847656 16.890625 L 12.617188 16.742188 L 12.460938 16.816406 M 13.847656 18.007812 C 14.257812 17.960938 14.460938 18.15625 14.460938 18.605469 L 13.847656 19.128906 L 13.230469 18.457031 L 13.847656 18.007812 M 16.152344 20.320312 L 16.078125 20.394531 L 15.921875 20.46875 L 16.152344 20.320312 M 17 19.871094 L 17.078125 19.796875 L 17.078125 19.722656 L 17 19.871094 M 17.691406 21.738281 L 17 22.558594 L 19.460938 22.558594 L 18.308594 21.066406 L 17.691406 21.738281 "/>
<path style=" stroke:none;fill-rule:evenodd;fill:rgb(100%,100%,100%);fill-opacity:1;" d="M 54.078125 17.414062 L 54.617188 17.414062 L 55 17.261719 L 55 17.335938 L 54.921875 17.636719 L 54.308594 18.382812 L 54.078125 17.414062 M 42.847656 19.648438 C 43.921875 21.390625 45.511719 22.257812 47.617188 22.257812 L 49.691406 21.960938 L 51.769531 20.246094 C 52.332031 19.796875 52.617188 18.953125 52.617188 17.710938 L 52.617188 17.414062 L 53.382812 17.414062 L 53.617188 18.007812 L 52.078125 20.617188 L 52 20.617188 L 49.921875 22.183594 L 45.847656 22.480469 L 43.539062 21.960938 L 42.539062 20.992188 L 42.078125 19.871094 L 42.847656 19.648438 M 49.152344 16.59375 L 49 16.816406 L 48.847656 17.113281 L 49.539062 18.382812 L 49.617188 18.53125 C 49.308594 19.523438 48.589844 20.046875 47.460938 20.097656 C 46.691406 20.046875 46.050781 19.773438 45.539062 19.277344 L 44.460938 18.382812 L 44.308594 18.605469 L 44.078125 18.382812 C 45.871094 17.488281 47.5625 16.890625 49.152344 16.59375 M 48.308594 18.828125 L 47.691406 18.15625 C 47.027344 18.15625 46.71875 18.308594 46.769531 18.605469 C 46.71875 19.25 47.027344 19.574219 47.691406 19.574219 C 48.050781 19.574219 48.257812 19.324219 48.308594 18.828125 M 38.617188 21.738281 L 39.460938 21.140625 L 39.617188 21.738281 L 38.617188 21.738281 M 52.152344 21.289062 L 52 21.511719 L 51.539062 21.738281 L 52.152344 21.289062 M 7.539062 17.414062 L 8 17.414062 C 8.207031 18.804688 8.511719 19.898438 8.921875 20.691406 L 8.078125 19.574219 L 7.921875 19.5 L 7.539062 17.414062 M 6 17.1875 L 6.152344 17.1875 C 6.101562 17.488281 6.128906 17.535156 6.230469 17.335938 L 6.460938 17.335938 L 6.691406 18.308594 L 6.078125 17.261719 L 6 17.1875 M 15.308594 20.542969 L 15.382812 20.617188 L 15.769531 20.542969 L 13.691406 21.363281 C 12.921875 21.3125 12.152344 20.917969 11.382812 20.171875 L 11.152344 19.871094 C 10.332031 19.027344 9.921875 18.332031 9.921875 17.785156 L 10.382812 16.59375 L 10.382812 16.441406 L 10.769531 16.519531 L 11.382812 16.59375 L 11.230469 17.1875 L 11.308594 17.1875 L 11.152344 17.335938 L 11.152344 17.414062 L 11.078125 18.308594 C 10.820312 19.101562 10.921875 19.699219 11.382812 20.097656 L 14 20.617188 L 15.308594 20.46875 L 15.308594 20.542969 M 15.308594 20.46875 L 15.382812 20.46875 L 15.382812 20.542969 L 15.308594 20.46875 M 16.152344 18.828125 L 15 19.574219 C 13.460938 19.574219 12.691406 19.003906 12.691406 17.859375 L 12.921875 17.1875 L 12.847656 16.890625 C 14.179688 17.289062 15.28125 17.933594 16.152344 18.828125 M 13.847656 18.007812 L 13.230469 18.457031 L 13.847656 19.128906 L 14.460938 18.605469 C 14.460938 18.15625 14.257812 17.960938 13.847656 18.007812 M 16.152344 20.320312 L 15.921875 20.46875 L 16.078125 20.394531 L 16.152344 20.320312 M 18.617188 22.558594 L 17 22.558594 L 17.691406 21.738281 L 18.617188 22.558594 "/>
<path style=" stroke:none;fill-rule:evenodd;fill:rgb(80.000001%,80.000001%,80.000001%);fill-opacity:1;" d="M 54.078125 17.414062 L 53.769531 16.21875 L 54.460938 16.21875 L 54.460938 16.441406 L 55 17.261719 L 54.617188 17.414062 L 54.078125 17.414062 M 51.847656 16.21875 L 51.847656 16.519531 L 52.078125 17.785156 C 51.820312 20.371094 50.308594 21.664062 47.539062 21.664062 C 46.101562 21.664062 44.972656 21.191406 44.152344 20.246094 L 43.539062 19.425781 L 43 18.902344 L 43.617188 18.53125 L 43.769531 18.976562 L 43.769531 19.050781 L 44 19.128906 L 44.078125 19.203125 L 43.921875 19.277344 L 44.230469 19.871094 C 44.691406 20.417969 45.460938 20.792969 46.539062 20.992188 L 48.617188 21.289062 C 49.792969 21.289062 50.640625 19.996094 51.152344 17.414062 L 50.769531 16.292969 L 51.847656 16.21875 M 42.847656 19.648438 L 42.078125 19.871094 L 41.847656 19.5 L 41.921875 19.5 L 42.539062 19.128906 L 42.847656 19.648438 M 53.382812 17.414062 L 52.617188 17.414062 L 52.460938 16.21875 L 53 16.21875 L 53.382812 17.414062 M 55.539062 16.742188 L 55.308594 16.21875 L 55.847656 16.21875 L 55.539062 16.742188 M 44.308594 18.605469 L 44.460938 18.382812 L 45.539062 19.277344 C 46.050781 19.773438 46.691406 20.046875 47.460938 20.097656 C 48.589844 20.046875 49.308594 19.523438 49.617188 18.53125 L 49.539062 18.382812 L 48.847656 17.113281 L 49 16.816406 L 49.152344 16.59375 L 49.308594 16.519531 L 49.308594 16.59375 L 49.382812 16.742188 L 49.460938 16.742188 C 49.972656 16.839844 50.230469 17.414062 50.230469 18.457031 L 50.230469 18.53125 L 50.308594 18.828125 C 50.308594 19.824219 50.101562 20.320312 49.691406 20.320312 L 49.617188 20.246094 L 49.539062 20.171875 L 49 20.46875 L 47.460938 20.691406 C 46.382812 20.691406 45.5625 20.417969 45 19.871094 L 44.152344 18.828125 L 44.308594 18.605469 M 38.152344 21.664062 L 38.078125 21.664062 L 39.382812 20.542969 L 39.382812 20.765625 L 39.460938 21.140625 L 38.617188 21.738281 L 38.460938 21.8125 L 38.230469 21.738281 L 38.152344 21.664062 M 41.382812 19.648438 L 41.460938 20.171875 L 41.847656 21.363281 L 42.078125 21.886719 L 40.617188 21.738281 L 40.152344 21.289062 L 40.078125 20.84375 L 39.847656 20.320312 L 41.382812 19.648438 M 7.539062 17.414062 L 7.078125 16.292969 L 8 16.21875 L 7.921875 16.890625 L 8 17.414062 L 7.539062 17.414062 M 6 17.1875 C 5.898438 16.890625 6 16.667969 6.308594 16.519531 L 6.308594 16.59375 L 6.460938 17.335938 L 6.230469 17.335938 C 6.128906 17.535156 6.101562 17.488281 6.152344 17.1875 L 6 17.1875 M 8.382812 16.21875 L 9.691406 16.367188 L 9.230469 17.414062 L 9.230469 17.710938 C 9.949219 20.542969 11.640625 21.960938 14.308594 21.960938 C 14.921875 21.960938 15.71875 21.585938 16.691406 20.84375 L 17.460938 20.171875 L 17.921875 20.691406 L 17.308594 21.363281 L 17.078125 21.664062 L 15.847656 22.558594 L 13.617188 22.558594 L 10.691406 21.738281 L 11 21.585938 C 10.078125 20.890625 9.4375 19.972656 9.078125 18.828125 L 8.769531 17.414062 L 8.382812 16.21875 M 12.308594 16.964844 L 12.460938 16.816406 L 12.617188 16.742188 L 12.847656 16.890625 L 12.921875 17.1875 L 12.691406 17.859375 C 12.691406 19.003906 13.460938 19.574219 15 19.574219 L 16.152344 18.828125 L 16.382812 18.605469 L 16.691406 19.050781 C 16.128906 19.796875 15.589844 20.195312 15.078125 20.246094 C 13.027344 20.195312 12 19.402344 12 17.859375 L 12 17.710938 L 12.308594 16.964844 M 17 19.871094 L 17.078125 19.722656 L 17.078125 19.796875 L 17 19.871094 M 18.617188 22.558594 L 17.691406 21.738281 L 18.308594 21.066406 L 19.460938 22.558594 L 18.617188 22.558594 "/>
<path style=" stroke:none;fill-rule:evenodd;fill:rgb(94.509804%,51.764709%,4.313726%);fill-opacity:1;" d="M 49 20.46875 L 49.539062 20.171875 L 49.617188 20.246094 L 49.308594 20.394531 L 49 20.46875 M 49.460938 16.742188 L 49.382812 16.742188 L 49.308594 16.59375 L 49.460938 16.519531 L 49.460938 16.742188 M 12.460938 16.816406 L 12.308594 16.964844 L 12.308594 16.742188 L 12.460938 16.816406 "/>
<path style=" stroke:none;fill-rule:evenodd;fill:rgb(39.607844%,15.294118%,0.784314%);fill-opacity:1;" d="M 15.308594 20.542969 L 15.308594 20.46875 L 15.382812 20.542969 L 15.308594 20.542969 "/>
<path style=" stroke:none;fill-rule:evenodd;fill:rgb(73.725492%,32.549021%,23.921569%);fill-opacity:1;" d="M 58.230469 11.820312 L 55.460938 12.195312 L 53.921875 12.492188 C 52.4375 12.441406 51.207031 12.714844 50.230469 13.3125 L 46.769531 14.355469 C 44.257812 15.351562 42.050781 16.070312 40.152344 16.519531 C 38 17.859375 36.460938 18.53125 35.539062 18.53125 C 34.667969 18.53125 34.101562 18.308594 33.847656 17.859375 L 33.769531 17.414062 L 33.769531 17.261719 L 33.230469 15.625 L 35.078125 15.921875 C 36.820312 15.921875 38.511719 15.375 40.152344 14.28125 C 41.230469 13.734375 41.949219 13.4375 42.308594 13.386719 L 45.691406 12.640625 L 52.308594 11.671875 L 53.921875 11.523438 L 59 11.597656 L 58.230469 11.820312 M 23.769531 16.144531 L 23.847656 16.292969 C 23.4375 17.1875 22.71875 17.660156 21.691406 17.710938 L 17.847656 15.996094 C 16.617188 15.300781 15.027344 14.726562 13.078125 14.28125 L 7.382812 12.417969 L 2.691406 10.777344 L 2.308594 10.554688 L 5.152344 11.222656 L 5.152344 11.375 L 9.230469 11.597656 L 9.230469 11.746094 L 16.230469 13.535156 C 17.71875 13.832031 18.617188 14.132812 18.921875 14.429688 C 19.640625 15.125 20.871094 15.5 22.617188 15.546875 L 24.308594 15.25 L 24 15.773438 L 23.769531 16.144531 "/>
</g>
</svg>
