<?xml version="1.0" encoding="UTF-8"?>
<svg xmlns="http://www.w3.org/2000/svg" xmlns:xlink="http://www.w3.org/1999/xlink" width="65px" height="39px" viewBox="0 0 65 39" version="1.1">
<g id="surface1">
<path style=" stroke:none;fill-rule:evenodd;fill:rgb(0%,0%,0%);fill-opacity:1;" d="M 48.460938 16.742188 L 48.539062 16.964844 L 48.847656 18.753906 C 48.847656 19.300781 48.539062 19.949219 47.921875 20.691406 C 47.050781 21.6875 45.949219 22.183594 44.617188 22.183594 C 43.078125 22.183594 42.050781 21.636719 41.539062 20.542969 L 41.230469 18.828125 L 41.308594 18.007812 L 41.382812 18.007812 L 41.539062 17.859375 L 41.308594 17.859375 L 41.539062 16.964844 L 41.769531 16.59375 L 39.847656 16.964844 L 39.769531 17.039062 L 39.691406 17.039062 L 39.539062 17.113281 L 38.152344 17.785156 L 37.078125 18.457031 L 37.152344 18.605469 C 37 18.703125 36.921875 18.855469 36.921875 19.050781 C 36.769531 19.25 36.691406 19.5 36.691406 19.796875 L 36.691406 20.023438 L 36.382812 19.949219 L 36.230469 19.949219 L 36.152344 20.171875 L 36.152344 20.246094 L 35.847656 19.574219 L 35.847656 19.277344 L 35.078125 19.796875 C 34.71875 19.796875 34.539062 19.625 34.539062 19.277344 L 34.539062 19.128906 L 34.382812 18.753906 C 34.382812 18.605469 34.742188 18.382812 35.460938 18.082031 L 36.078125 17.636719 L 36.769531 16.964844 C 37.589844 16.367188 38.972656 15.773438 40.921875 15.175781 L 42.921875 14.652344 L 43 14.578125 L 47.078125 14.207031 L 52.078125 14.578125 L 54.691406 14.878906 L 56.617188 15.847656 L 56.921875 16.070312 L 56.308594 16.964844 L 56 17.414062 L 54.460938 19.203125 L 53.152344 20.617188 L 53.078125 20.46875 L 52.921875 20.542969 L 53.617188 18.976562 L 53.691406 18.828125 L 53.847656 18.976562 L 53.847656 18.679688 L 54.308594 18.007812 L 54.152344 17.933594 L 54.230469 17.414062 L 54.152344 16.964844 L 53.539062 16.367188 C 53.078125 15.820312 52.179688 15.546875 50.847656 15.546875 L 50.539062 15.625 L 50.460938 15.546875 L 47.539062 15.625 L 48.460938 16.742188 M 38.847656 22.855469 L 39.230469 23.078125 L 39.308594 22.929688 L 39.230469 22.707031 L 39.308594 22.707031 L 40.308594 22.929688 L 40.460938 22.929688 L 44.617188 23.078125 L 44.847656 23.003906 L 47.769531 23.375 L 47.691406 23.527344 L 47.847656 23.601562 L 47.847656 23.675781 L 48 23.75 L 48 23.824219 L 47.921875 24.195312 L 47.078125 24.273438 C 41.539062 24.273438 38.769531 23.972656 38.769531 23.375 L 38.691406 23.375 C 38.589844 23.078125 38.640625 22.90625 38.847656 22.855469 M 52.691406 21.140625 L 52.691406 21.066406 L 52.921875 20.917969 L 52.769531 21.140625 L 52.691406 21.140625 M 41.617188 13.460938 L 41.539062 13.535156 L 41.152344 13.609375 L 41.382812 13.460938 L 41.617188 13.460938 M 6.921875 21.066406 L 6.769531 21.140625 L 5.230469 19.648438 L 5.078125 19.277344 L 3.921875 16.964844 L 3.460938 16.292969 L 3 15.773438 L 3 15.546875 L 3.460938 15.398438 L 3.769531 15.398438 L 3.847656 15.324219 L 4.308594 15.25 L 7.921875 15.101562 L 8.078125 15.101562 L 14.769531 15.847656 L 15.921875 16.144531 L 15.921875 16.21875 L 17.078125 16.667969 L 17.769531 16.964844 L 18.460938 17.335938 L 20.078125 18.308594 L 20.230469 18.308594 L 20.847656 18.976562 L 20.847656 19.050781 L 20.921875 19.277344 L 20.847656 19.722656 L 20.539062 19.796875 L 20.382812 19.722656 L 19.921875 19.574219 L 19.921875 19.871094 L 19.769531 19.871094 L 19.769531 20.320312 L 18.769531 18.902344 L 17.769531 18.382812 L 17.769531 19.722656 C 17.71875 21.117188 17.128906 22.035156 16 22.480469 L 14 22.78125 C 12.5625 22.78125 11.410156 21.539062 10.539062 19.050781 L 10.617188 18.082031 L 10.691406 18.082031 L 10.617188 17.933594 L 10.769531 17.710938 L 10.691406 17.710938 L 10.847656 17.414062 L 10.847656 17.261719 L 10.921875 17.261719 L 11.382812 16.667969 L 9.769531 16.519531 L 8.382812 16.59375 L 8.382812 16.667969 L 6.460938 16.964844 L 5.382812 17.488281 L 5.230469 17.785156 L 5.921875 18.976562 L 5.847656 19.128906 C 5.847656 19.375 5.921875 19.425781 6.078125 19.277344 L 6.308594 19.722656 L 6.691406 20.542969 L 6.617188 20.542969 L 6.921875 21.066406 M 19.308594 23.75 L 19.460938 23.75 L 19.617188 24.046875 L 10.617188 24.644531 L 10.152344 24.273438 L 10.230469 24.046875 L 10.382812 23.972656 L 10.382812 23.898438 L 11.539062 23.601562 L 11 23.300781 L 12.847656 23.601562 L 14.460938 23.527344 L 14.308594 23.601562 L 19.308594 23.75 "/>
<path style=" stroke:none;fill-rule:evenodd;fill:rgb(80.000001%,80.000001%,80.000001%);fill-opacity:1;" d="M 53.691406 18.828125 L 52.691406 17.488281 C 52.488281 17.289062 52.179688 17.113281 51.769531 16.964844 L 48.460938 16.742188 L 47.539062 15.625 L 50.460938 15.546875 L 50.539062 15.625 L 50.847656 15.546875 C 52.179688 15.546875 53.078125 15.820312 53.539062 16.367188 L 54.152344 16.964844 L 54.230469 17.414062 L 54.152344 17.933594 L 54.308594 18.007812 L 53.847656 18.679688 L 53.847656 18.976562 L 53.691406 18.828125 M 41.308594 18.007812 C 39.308594 19.449219 37.667969 20.296875 36.382812 20.542969 L 36.308594 20.320312 L 36.539062 20.097656 L 36.691406 20.023438 L 36.691406 19.796875 C 36.691406 19.5 36.769531 19.25 36.921875 19.050781 C 36.921875 18.855469 37 18.703125 37.152344 18.605469 L 37.078125 18.457031 L 38.152344 17.785156 L 39.539062 17.113281 L 39.691406 17.039062 L 39.769531 17.039062 L 39.847656 16.964844 L 41.769531 16.59375 L 41.539062 16.964844 L 41.308594 17.859375 L 41.539062 17.859375 L 41.382812 18.007812 L 41.308594 18.007812 M 41.230469 17.859375 L 41.230469 17.785156 L 41.152344 17.785156 L 41.230469 17.859375 M 20.382812 19.722656 L 20.308594 19.871094 L 20.230469 20.171875 L 20.382812 20.246094 L 20.382812 20.320312 L 20.230469 20.765625 L 20.152344 21.214844 L 20.152344 21.363281 L 20.078125 21.4375 L 19.847656 21.4375 L 17.769531 19.722656 L 17.769531 18.382812 L 18.769531 18.902344 L 19.769531 20.320312 L 19.847656 20.320312 L 19.847656 20.246094 L 19.921875 20.246094 L 19.921875 19.574219 L 20.382812 19.722656 M 6.078125 19.277344 C 5.921875 19.425781 5.847656 19.375 5.847656 19.128906 L 5.921875 18.976562 L 5.230469 17.785156 L 5.382812 17.488281 L 6.460938 16.964844 L 8.382812 16.667969 L 8.382812 16.59375 L 9.769531 16.519531 L 11.382812 16.667969 L 10.921875 17.261719 L 10.847656 17.261719 L 10.847656 17.414062 L 10.691406 17.710938 L 10.769531 17.710938 L 10.617188 17.933594 L 10.691406 18.082031 L 10.617188 18.082031 L 7.078125 18.234375 L 6.921875 18.15625 L 6.769531 18.382812 L 6.847656 18.382812 L 6.078125 19.277344 "/>
<path style=" stroke:none;fill-rule:evenodd;fill:rgb(100%,100%,100%);fill-opacity:1;" d="M 48.460938 16.742188 L 51.769531 16.964844 C 52.179688 17.113281 52.488281 17.289062 52.691406 17.488281 L 53.691406 18.828125 L 53.617188 18.976562 L 52.921875 20.542969 L 53.078125 20.46875 L 53.152344 20.617188 L 53.152344 20.691406 L 52.921875 20.917969 L 52.691406 21.066406 L 52.691406 21.140625 L 48.847656 23.601562 L 49.152344 23.824219 L 49.152344 23.898438 L 48.769531 23.972656 L 48.460938 23.898438 L 48.230469 23.972656 L 48 23.898438 L 48.230469 23.824219 L 48 23.75 L 47.847656 23.675781 L 47.847656 23.601562 L 47.691406 23.527344 L 47.769531 23.375 L 44.847656 23.003906 L 44.617188 23.078125 L 40.460938 22.929688 L 40.308594 22.929688 L 39.308594 22.707031 L 39.230469 22.707031 L 39.308594 22.929688 L 39.230469 23.078125 L 38.847656 22.855469 C 37.257812 21.710938 36.382812 20.890625 36.230469 20.394531 L 36.152344 20.246094 L 36.152344 20.171875 L 36.230469 19.949219 L 36.382812 19.949219 L 36.691406 20.023438 L 36.539062 20.097656 L 36.308594 20.320312 L 36.382812 20.542969 C 37.667969 20.296875 39.308594 19.449219 41.308594 18.007812 L 41.230469 18.828125 L 41.539062 20.542969 C 42.050781 21.636719 43.078125 22.183594 44.617188 22.183594 C 45.949219 22.183594 47.050781 21.6875 47.921875 20.691406 C 48.539062 19.949219 48.847656 19.300781 48.847656 18.753906 L 48.539062 16.964844 L 48.460938 16.742188 M 41.230469 17.859375 L 41.152344 17.785156 L 41.230469 17.785156 L 41.230469 17.859375 M 20.308594 19.871094 L 20.308594 19.949219 L 20.382812 20.246094 L 20.230469 20.171875 L 20.308594 19.871094 M 20.382812 20.320312 L 20.382812 20.542969 L 20.230469 21.214844 L 20.152344 21.289062 L 20.152344 21.214844 L 20.230469 21.214844 L 20.230469 20.765625 L 20.382812 20.320312 M 20.078125 21.4375 L 20.078125 21.886719 L 20.078125 21.8125 L 20.078125 22.035156 L 19.921875 23.003906 L 19.847656 23.078125 L 19.691406 23.601562 L 19.308594 23.675781 L 19.308594 23.75 L 14.308594 23.601562 L 14.460938 23.527344 L 12.847656 23.601562 L 11 23.300781 L 11.539062 23.601562 L 10.382812 23.898438 L 10.382812 23.972656 L 10.230469 24.046875 C 9.207031 24.046875 8.101562 23.054688 6.921875 21.066406 L 6.617188 20.542969 L 6.691406 20.542969 L 6.308594 19.722656 L 6.078125 19.277344 L 6.847656 18.382812 L 6.769531 18.382812 L 6.921875 18.15625 L 7.078125 18.234375 L 10.617188 18.082031 L 10.539062 19.050781 C 11.410156 21.539062 12.5625 22.78125 14 22.78125 L 16 22.480469 C 17.128906 22.035156 17.71875 21.117188 17.769531 19.722656 L 19.847656 21.4375 L 20.078125 21.4375 M 19.769531 20.320312 L 19.769531 19.871094 L 19.921875 19.871094 L 19.921875 20.246094 L 19.847656 20.246094 L 19.847656 20.320312 L 19.769531 20.320312 "/>
<path style=" stroke:none;fill-rule:evenodd;fill:rgb(0%,0%,0%);fill-opacity:1;" d="M 52.230469 7.945312 C 52.128906 8.242188 51.539062 8.441406 50.460938 8.539062 L 44.921875 9.359375 L 41 10.253906 L 38.382812 10.777344 L 35.308594 11.894531 L 32.847656 12.863281 L 32.617188 12.789062 L 32.539062 12.640625 L 36 11.148438 L 36.460938 11 L 40.539062 9.359375 L 43.078125 8.464844 L 43.382812 8.316406 L 47.847656 7.570312 L 50.921875 7.125 L 51.539062 7.050781 L 52.078125 7.71875 L 52.230469 7.871094 L 52.230469 7.945312 M 56.921875 13.683594 L 56.691406 13.832031 C 55.5625 12.441406 52.949219 11.746094 48.847656 11.746094 C 47.410156 11.746094 45 12.316406 41.617188 13.460938 L 41.382812 13.460938 L 41.152344 13.609375 L 40.382812 13.910156 L 39.691406 14.132812 L 38.230469 14.652344 C 36.589844 15.152344 35.4375 15.699219 34.769531 16.292969 L 32.617188 17.933594 L 32.460938 17.933594 L 32.382812 17.859375 L 32.308594 17.785156 L 32.691406 17.414062 L 33.230469 16.964844 L 34.382812 16.070312 L 34.460938 15.996094 C 35.179688 15.5 35.972656 15.078125 36.847656 14.726562 L 37.691406 14.429688 L 37.921875 14.355469 L 38.617188 14.132812 L 44.078125 12.042969 C 45.207031 11.546875 46.769531 11.296875 48.769531 11.296875 C 51.691406 11.296875 54.410156 12.042969 56.921875 13.535156 L 56.921875 13.683594 M 21 13.164062 L 18.847656 12.195312 L 18.769531 12.195312 L 7.847656 10.105469 L 1 9.957031 L 0.617188 9.734375 L 0.460938 9.0625 L 0.460938 8.988281 L 0.691406 8.839844 L 0.691406 8.765625 L 0.769531 8.839844 L 1.078125 8.765625 L 1.691406 8.988281 L 5.539062 9.0625 L 5.691406 9.136719 L 8.921875 9.433594 L 14.769531 10.703125 L 15.230469 10.777344 L 18.539062 11.746094 L 19.078125 11.820312 L 19.152344 11.894531 L 19.152344 11.96875 L 21.308594 12.9375 L 21 13.164062 M 20.230469 18.308594 L 20.078125 18.308594 L 18.460938 17.335938 L 18.847656 17.488281 L 20.230469 18.308594 M 22.230469 18.234375 L 22.152344 18.382812 L 22 18.457031 L 20.078125 16.964844 L 17.847656 15.472656 L 17.152344 15.027344 C 14.332031 13.335938 10.949219 12.492188 7 12.492188 C 3.460938 12.492188 1.230469 12.914062 0.308594 13.757812 L 0.078125 13.683594 L 0 13.535156 C 0 12.542969 2.332031 12.042969 7 12.042969 C 10.949219 12.042969 14.207031 12.765625 16.769531 14.207031 L 17.460938 14.578125 L 20.691406 16.964844 L 22.230469 18.234375 M 3.847656 15.324219 L 3.769531 15.398438 L 3.460938 15.398438 L 3.847656 15.324219 "/>
</g>
</svg>
