<?xml version="1.0" encoding="UTF-8"?>
<svg xmlns="http://www.w3.org/2000/svg" xmlns:xlink="http://www.w3.org/1999/xlink" width="65px" height="39px" viewBox="0 0 65 39" version="1.1">
<g id="surface1">
<path style=" stroke:none;fill-rule:evenodd;fill:rgb(0%,0%,0%);fill-opacity:1;" d="M 52.691406 8.988281 C 49.972656 8.988281 46.511719 9.609375 42.308594 10.851562 L 41.308594 11.296875 L 45.691406 10.554688 L 50.691406 10.03125 L 57.539062 10.03125 L 57.617188 9.734375 C 57.617188 9.234375 55.972656 8.988281 52.691406 8.988281 M 55.691406 13.386719 L 56.152344 13.3125 C 56 13.710938 55.921875 14.207031 55.921875 14.804688 L 55.847656 15.101562 L 55.617188 15.625 L 55.617188 16.367188 L 55.308594 17.785156 L 55.460938 18.007812 L 55.382812 18.082031 C 54.921875 18.929688 54.617188 19.75 54.460938 20.542969 C 53.898438 22.085938 53.078125 22.855469 52 22.855469 L 51.847656 22.855469 L 50.460938 23.152344 L 50.382812 23.226562 L 49.382812 23.226562 L 48.382812 23.601562 L 48.078125 23.675781 L 44.617188 24.121094 L 44.460938 24.046875 L 36.460938 24.273438 L 35.691406 24.421875 L 35.308594 24.570312 L 32.539062 24.71875 L 32.382812 24.421875 L 32.382812 24.273438 L 32.308594 24.273438 L 34.921875 20.394531 L 35.152344 20.023438 L 35.617188 19.574219 L 36.152344 18.976562 L 37.539062 17.261719 L 39.691406 16.144531 L 41.847656 15.921875 L 44.078125 16.070312 C 47.921875 15.871094 50.488281 15.5 51.769531 14.953125 L 53.308594 14.132812 L 55.691406 13.386719 M 57.769531 10.554688 L 57.617188 10.554688 L 50.308594 10.703125 L 48.152344 11 C 47.742188 10.800781 47.179688 10.800781 46.460938 11 L 42.308594 11.671875 L 38.078125 13.164062 L 37 13.164062 L 36.921875 12.9375 C 36.921875 12.691406 37.179688 12.492188 37.691406 12.34375 L 41.460938 10.402344 C 42.332031 9.90625 43.152344 9.757812 43.921875 9.957031 L 46 9.433594 C 46.769531 9.039062 47.691406 8.863281 48.769531 8.914062 L 49.847656 8.6875 L 50.078125 8.464844 L 52.617188 8.390625 C 56.308594 8.390625 58.152344 8.886719 58.152344 9.882812 L 57.769531 10.554688 M 54.230469 14.058594 L 52.617188 15.25 C 51.382812 16.195312 49.207031 16.691406 46.078125 16.742188 L 43.769531 16.667969 L 42.769531 16.519531 C 40.152344 16.519531 38.5625 16.941406 38 17.785156 L 37.921875 17.859375 L 37.382812 18.308594 C 36.871094 18.65625 36.589844 18.976562 36.539062 19.277344 L 36.152344 19.5 L 34.230469 22.558594 L 33.921875 23.003906 L 33.847656 22.929688 L 33.078125 24.273438 L 35.308594 23.898438 L 35.847656 23.75 L 38.539062 23.675781 L 41.617188 23.972656 L 44.921875 23.675781 L 49.769531 22.78125 L 52.617188 21.664062 L 52.691406 21.738281 L 53.921875 20.097656 L 54.769531 17.636719 L 55 15.101562 L 55.308594 13.832031 L 54.382812 14.058594 L 54.230469 14.058594 M 54.539062 15.25 L 54.539062 15.398438 L 54.691406 16.59375 L 52.921875 20.542969 C 52.460938 21.289062 51.179688 21.910156 49.078125 22.40625 L 46.769531 22.855469 L 46 23.078125 L 44.769531 23.226562 L 44.308594 23.300781 L 39.921875 23.300781 L 38.769531 23.226562 L 35 23.527344 L 34.769531 23.601562 L 34.460938 23.226562 C 34.410156 23.128906 34.511719 23.054688 34.769531 23.003906 L 34.691406 22.855469 L 34.847656 22.707031 L 34.921875 22.332031 C 35.027344 21.785156 35.28125 21.363281 35.691406 21.066406 L 36.152344 20.394531 L 36.617188 19.796875 L 39 18.082031 L 42.382812 17.039062 L 43.769531 17.039062 L 48.921875 16.964844 L 52 16.144531 L 54.152344 14.953125 L 54.539062 15.25 M 50.921875 20.992188 L 50.921875 21.140625 L 51.078125 21.140625 L 51.617188 20.617188 L 52.691406 19.722656 L 53.847656 17.488281 L 54 16.070312 L 54 15.921875 L 52.847656 16.519531 L 52.078125 16.890625 L 50.847656 17.261719 L 50.769531 17.261719 L 49.847656 17.488281 L 49.691406 17.488281 L 48.078125 17.5625 L 43.847656 17.710938 C 44.308594 17.660156 44.5625 17.984375 44.617188 18.679688 L 44.617188 19.128906 C 44.617188 19.425781 44.308594 19.574219 43.691406 19.574219 C 43.128906 19.574219 42.792969 19.375 42.691406 18.976562 L 42.691406 18.605469 C 42.640625 18.355469 42.71875 18.183594 42.921875 18.082031 L 42.921875 18.007812 C 43.027344 17.859375 43.207031 17.761719 43.460938 17.710938 L 43.691406 17.710938 L 43.691406 17.785156 L 43.847656 17.710938 L 42.078125 17.710938 L 39.152344 18.605469 L 38.691406 18.902344 L 37.308594 20.097656 L 36.078125 22.035156 L 36.078125 22.109375 L 35.847656 22.558594 L 35.617188 22.855469 L 35.617188 22.929688 L 38.539062 22.707031 L 39.308594 22.855469 L 39.460938 22.707031 L 39.382812 22.707031 L 44.078125 22.632812 C 47.152344 22.183594 49.4375 21.636719 50.921875 20.992188 M 39.152344 15.25 L 39.230469 15.101562 L 40.460938 15.175781 L 40.691406 15.175781 L 40.921875 15.398438 L 38.617188 15.921875 L 36.617188 17.335938 L 34.691406 19.648438 L 34.382812 19.648438 C 35.050781 18.457031 35.667969 17.6875 36.230469 17.335938 L 38 16.070312 L 36.539062 16.59375 L 35 17.933594 L 34.539062 17.933594 L 34.460938 17.710938 C 34.460938 17.3125 35.152344 16.765625 36.539062 16.070312 C 37.460938 15.625 38.332031 15.351562 39.152344 15.25 M 9.847656 8.988281 L 10 9.210938 L 10.769531 9.433594 C 11.539062 9.386719 12.207031 9.558594 12.769531 9.957031 L 14.308594 10.480469 C 14.871094 10.28125 15.460938 10.429688 16.078125 10.925781 L 18.847656 12.863281 L 19.382812 13.460938 L 19.308594 13.683594 L 18.539062 13.683594 L 15.460938 12.195312 L 12.460938 11.523438 C 11.949219 11.324219 11.539062 11.324219 11.230469 11.523438 L 9.691406 11.222656 L 4.382812 11.074219 L 4.308594 11.074219 L 4 10.402344 C 4 9.410156 5.332031 8.914062 8 8.914062 L 9.847656 8.988281 M 21.078125 18.457031 L 20.769531 18.457031 L 19.617188 17.113281 L 18.617188 16.59375 L 19.847656 17.859375 L 21.230469 20.171875 L 21 20.171875 L 19.617188 17.859375 L 18.152344 16.441406 L 16.460938 15.921875 C 16.410156 15.773438 16.460938 15.699219 16.617188 15.699219 L 16.847656 15.699219 L 17.691406 15.625 L 17.769531 15.773438 C 18.332031 15.871094 18.949219 16.144531 19.617188 16.59375 C 20.640625 17.289062 21.152344 17.835938 21.152344 18.234375 L 21.078125 18.457031 M 4.382812 10.253906 L 4.460938 10.554688 L 9.382812 10.554688 L 13 11.074219 L 16.230469 11.820312 L 15.460938 11.375 C 12.4375 10.128906 9.949219 9.507812 8 9.507812 C 5.589844 9.507812 4.382812 9.757812 4.382812 10.253906 M 5.847656 13.910156 L 7.539062 14.652344 L 8.617188 15.472656 C 9.539062 16.019531 11.410156 16.394531 14.230469 16.59375 L 15.847656 16.441406 L 17.382812 16.667969 L 18.921875 17.785156 L 19.921875 19.5 L 20.308594 20.097656 L 20.617188 20.542969 L 20.847656 20.917969 L 22.691406 24.792969 L 22.691406 24.941406 L 22.539062 25.242188 L 20.539062 25.089844 L 20.308594 24.941406 L 19.769531 24.792969 L 13.921875 24.570312 L 13.847656 24.644531 L 11.308594 24.195312 L 11.078125 24.121094 L 10.382812 23.75 L 9.691406 23.75 L 9.617188 23.675781 L 8.617188 23.375 L 8.460938 23.375 C 7.640625 23.375 7.050781 22.605469 6.691406 21.066406 L 6 18.605469 L 6 18.53125 L 6.078125 18.308594 L 5.847656 16.890625 L 5.847656 16.144531 L 5.691406 15.625 L 5.617188 15.324219 L 5.460938 13.832031 L 5.847656 13.910156 M 6.617188 15.773438 C 6.667969 15.523438 6.769531 15.425781 6.921875 15.472656 L 8.460938 16.667969 L 10.691406 17.488281 L 14.382812 17.5625 L 15.460938 17.5625 C 15.667969 17.859375 16.488281 18.207031 17.921875 18.605469 L 19.617188 20.320312 L 19.921875 20.917969 L 20.230469 21.585938 L 20.847656 22.855469 L 20.921875 23.226562 L 21 23.375 L 20.921875 23.527344 L 21.152344 23.75 L 20.921875 24.121094 L 20.769531 24.046875 L 18.078125 23.75 L 17.230469 23.824219 L 14.078125 23.824219 L 13.691406 23.75 L 12.769531 23.601562 L 12.308594 23.375 L 10.617188 22.929688 C 9.078125 22.433594 8.152344 21.8125 7.847656 21.066406 L 6.539062 17.113281 L 6.691406 15.921875 L 6.617188 15.773438 M 13.847656 19.203125 C 13.847656 18.507812 14.027344 18.183594 14.382812 18.234375 L 11.308594 18.082031 L 10.152344 18.007812 L 10.078125 18.007812 L 9.382812 17.785156 L 9.308594 17.785156 L 8.382812 17.414062 L 7.847656 17.039062 L 7.078125 16.441406 L 7.078125 16.59375 C 7.027344 17.335938 7.050781 17.808594 7.152344 18.007812 L 8 20.246094 L 8.769531 21.140625 L 9.152344 21.664062 L 9.308594 21.664062 L 9.308594 21.511719 C 10.332031 22.160156 11.972656 22.707031 14.230469 23.152344 L 17.617188 23.226562 L 17.539062 23.226562 L 17.617188 23.375 L 18.230469 23.226562 L 20.308594 23.453125 L 20.308594 23.375 L 20.152344 23.078125 L 20 22.632812 L 20 22.558594 L 19.078125 20.617188 L 18.152344 19.425781 L 17.769531 19.128906 C 16.640625 18.828125 15.949219 18.53125 15.691406 18.234375 L 14.382812 18.234375 L 14.539062 18.308594 L 14.539062 18.234375 L 14.617188 18.234375 L 15.078125 18.53125 L 15.078125 18.605469 L 15.230469 19.128906 L 15.230469 19.5 L 14.539062 20.097656 L 13.847656 19.648438 L 13.847656 19.203125 M 8.078125 15.773438 L 6.847656 14.578125 L 6.769531 14.578125 L 6.078125 14.355469 L 6.308594 15.625 L 6.460938 18.15625 L 7.078125 20.617188 L 8 22.257812 L 8.078125 22.183594 L 10.078125 23.300781 L 13.617188 24.195312 L 16 24.496094 L 18.230469 24.195312 L 20.152344 24.273438 L 20.539062 24.421875 L 22.152344 24.792969 L 21.617188 23.453125 L 21.539062 23.527344 L 21.308594 23.078125 L 19.921875 20.023438 L 19.691406 19.796875 L 19.078125 18.828125 L 18.617188 18.382812 L 18.617188 18.308594 C 18.152344 17.460938 17 17.039062 15.152344 17.039062 L 14.382812 17.1875 L 12.769531 17.261719 C 10.511719 17.214844 8.949219 16.714844 8.078125 15.773438 "/>
<path style=" stroke:none;fill-rule:evenodd;fill:rgb(100%,100%,100%);fill-opacity:1;" d="M 44.617188 18.679688 L 47 18.457031 C 50.078125 18.457031 51.617188 18.828125 51.617188 19.574219 L 50.921875 20.617188 L 50.921875 20.992188 C 49.4375 21.636719 47.152344 22.183594 44.078125 22.632812 L 39.382812 22.707031 L 38.539062 22.40625 L 37.539062 21.4375 L 38.078125 20.542969 L 38.691406 19.871094 L 40.921875 19.277344 L 40.921875 19.128906 L 41 19.128906 L 42.308594 18.976562 L 42.460938 19.050781 L 42.691406 18.976562 C 42.792969 19.375 43.128906 19.574219 43.691406 19.574219 C 44.308594 19.574219 44.617188 19.425781 44.617188 19.128906 L 44.617188 18.679688 M 13.847656 19.203125 L 13.847656 19.648438 L 14.539062 20.097656 L 15.230469 19.5 L 15.382812 19.574219 L 15.539062 19.5 L 16.460938 19.648438 L 16.539062 19.648438 L 16.539062 19.796875 L 18.078125 20.394531 L 18.539062 21.066406 L 18.921875 21.960938 L 18.230469 22.929688 L 17.617188 23.226562 L 14.230469 23.152344 C 11.972656 22.707031 10.332031 22.160156 9.308594 21.511719 L 9.308594 21.140625 C 8.898438 20.890625 8.71875 20.542969 8.769531 20.097656 C 8.71875 19.351562 9.820312 18.976562 12.078125 18.976562 L 13.847656 19.203125 "/>
<path style=" stroke:none;fill-rule:evenodd;fill:rgb(80.000001%,80.000001%,80.000001%);fill-opacity:1;" d="M 44.617188 18.679688 C 44.5625 17.984375 44.308594 17.660156 43.847656 17.710938 L 48.078125 17.5625 L 49.691406 17.488281 L 49.847656 17.488281 L 50.769531 17.261719 L 50.847656 17.261719 L 52.078125 16.890625 L 52.847656 16.519531 L 54 15.921875 L 54 16.070312 L 53.847656 17.488281 L 52.691406 19.722656 L 51.617188 20.617188 L 51.078125 21.140625 L 50.921875 21.140625 L 50.921875 20.617188 L 51.617188 19.574219 C 51.617188 18.828125 50.078125 18.457031 47 18.457031 L 44.617188 18.679688 M 39.382812 22.707031 L 39.460938 22.707031 L 39.308594 22.855469 L 38.539062 22.707031 L 35.617188 22.929688 L 35.617188 22.855469 L 35.847656 22.558594 L 36.078125 22.109375 L 36.078125 22.035156 L 37.308594 20.097656 L 38.691406 18.902344 L 39.152344 18.605469 L 42.078125 17.710938 L 43.847656 17.710938 L 43.691406 17.785156 L 43.691406 17.710938 L 43.460938 17.710938 C 43.207031 17.761719 43.027344 17.859375 42.921875 18.007812 L 42.921875 18.082031 C 42.71875 18.183594 42.640625 18.355469 42.691406 18.605469 L 42.691406 18.976562 L 42.460938 19.050781 L 42.308594 18.976562 L 41 19.128906 L 40.921875 19.128906 L 40.921875 19.277344 L 38.691406 19.871094 L 38.078125 20.542969 L 37.539062 21.4375 L 38.539062 22.40625 L 39.382812 22.707031 M 9.308594 21.511719 L 9.308594 21.664062 L 9.152344 21.664062 L 8.769531 21.140625 L 8 20.246094 L 7.152344 18.007812 C 7.050781 17.808594 7.027344 17.335938 7.078125 16.59375 L 7.078125 16.441406 L 7.847656 17.039062 L 8.382812 17.414062 L 9.308594 17.785156 L 9.382812 17.785156 L 10.078125 18.007812 L 10.152344 18.007812 L 11.308594 18.082031 L 14.382812 18.234375 C 14.027344 18.183594 13.847656 18.507812 13.847656 19.203125 L 12.078125 18.976562 C 9.820312 18.976562 8.71875 19.351562 8.769531 20.097656 C 8.71875 20.542969 8.898438 20.890625 9.308594 21.140625 L 9.308594 21.511719 M 15.230469 19.5 L 15.230469 19.128906 L 15.078125 18.605469 L 15.078125 18.53125 L 14.617188 18.234375 L 14.539062 18.234375 L 14.539062 18.308594 L 14.382812 18.234375 L 15.691406 18.234375 C 15.949219 18.53125 16.640625 18.828125 17.769531 19.128906 L 18.152344 19.425781 L 19.078125 20.617188 L 20 22.558594 L 20 22.632812 L 20.152344 23.078125 L 20.308594 23.375 L 20.308594 23.453125 L 18.230469 23.226562 L 17.617188 23.375 L 17.539062 23.226562 L 17.617188 23.226562 L 18.230469 22.929688 L 18.921875 21.960938 L 18.539062 21.066406 L 18.078125 20.394531 L 16.539062 19.796875 L 16.539062 19.648438 L 16.460938 19.648438 L 15.539062 19.5 L 15.382812 19.574219 L 15.230469 19.5 "/>
<path style=" stroke:none;fill-rule:evenodd;fill:rgb(49.803922%,25.098041%,36.470589%);fill-opacity:1;" d="M 54.539062 15.25 L 54.152344 14.953125 L 52 16.144531 L 48.921875 16.964844 L 43.769531 17.039062 L 42.382812 17.039062 L 39 18.082031 L 36.617188 19.796875 L 36.152344 20.394531 L 35.691406 21.066406 C 35.28125 21.363281 35.027344 21.785156 34.921875 22.332031 L 34.847656 22.707031 L 34.691406 22.855469 L 34.769531 23.003906 C 34.511719 23.054688 34.410156 23.128906 34.460938 23.226562 L 34.769531 23.601562 L 35 23.527344 L 38.769531 23.226562 L 39.921875 23.300781 L 44.308594 23.300781 L 44.769531 23.226562 L 46 23.078125 L 46.769531 22.855469 L 49.078125 22.40625 C 51.179688 21.910156 52.460938 21.289062 52.921875 20.542969 L 54.691406 16.59375 L 54.539062 15.398438 L 54.539062 15.25 M 54.230469 14.058594 L 54.382812 14.058594 L 55.308594 13.832031 L 55 15.101562 L 54.769531 17.636719 L 53.921875 20.097656 L 52.691406 21.738281 L 52.617188 21.664062 L 49.769531 22.78125 L 44.921875 23.675781 L 41.617188 23.972656 L 38.539062 23.675781 L 35.847656 23.75 L 35.308594 23.898438 L 33.078125 24.273438 L 33.847656 22.929688 L 33.921875 23.003906 L 34.230469 22.558594 L 36.152344 19.5 L 36.539062 19.277344 C 36.589844 18.976562 36.871094 18.65625 37.382812 18.308594 L 37.921875 17.859375 L 38 17.785156 C 38.5625 16.941406 40.152344 16.519531 42.769531 16.519531 L 43.769531 16.667969 L 46.078125 16.742188 C 49.207031 16.691406 51.382812 16.195312 52.617188 15.25 L 54.230469 14.058594 M 6.617188 15.773438 L 6.691406 15.921875 L 6.539062 17.113281 L 7.847656 21.066406 C 8.152344 21.8125 9.078125 22.433594 10.617188 22.929688 L 12.308594 23.375 L 12.769531 23.601562 L 13.691406 23.75 L 14.078125 23.824219 L 17.230469 23.824219 L 18.078125 23.75 L 20.769531 24.046875 L 20.921875 24.121094 L 21.152344 23.75 L 20.921875 23.527344 L 21 23.375 L 20.921875 23.226562 L 20.847656 22.855469 L 20.230469 21.585938 L 19.921875 20.917969 L 19.617188 20.320312 L 17.921875 18.605469 C 16.488281 18.207031 15.667969 17.859375 15.460938 17.5625 L 14.382812 17.5625 L 10.691406 17.488281 L 8.460938 16.667969 L 6.921875 15.472656 C 6.769531 15.425781 6.667969 15.523438 6.617188 15.773438 M 8.078125 15.773438 C 8.949219 16.714844 10.511719 17.214844 12.769531 17.261719 L 14.382812 17.1875 L 15.152344 17.039062 C 17 17.039062 18.152344 17.460938 18.617188 18.308594 L 18.617188 18.382812 L 19.078125 18.828125 L 19.691406 19.796875 L 19.921875 20.023438 L 21.308594 23.078125 L 21.539062 23.527344 L 21.617188 23.453125 L 22.152344 24.792969 L 20.539062 24.421875 L 20.152344 24.273438 L 18.230469 24.195312 L 16 24.496094 L 13.617188 24.195312 L 10.078125 23.300781 L 8.078125 22.183594 L 8 22.257812 L 7.078125 20.617188 L 6.460938 18.15625 L 6.308594 15.625 L 6.078125 14.355469 L 6.769531 14.578125 L 6.847656 14.578125 L 8.078125 15.773438 "/>
<path style=" stroke:none;fill-rule:evenodd;fill:rgb(38.82353%,25.098041%,16.470589%);fill-opacity:1;" d="M 52.691406 8.988281 C 55.972656 8.988281 57.617188 9.234375 57.617188 9.734375 L 57.539062 10.03125 L 50.691406 10.03125 L 45.691406 10.554688 L 41.308594 11.296875 L 42.308594 10.851562 C 46.511719 9.609375 49.972656 8.988281 52.691406 8.988281 M 4.382812 10.253906 C 4.382812 9.757812 5.589844 9.507812 8 9.507812 C 9.949219 9.507812 12.4375 10.128906 15.460938 11.375 L 16.230469 11.820312 L 13 11.074219 L 9.382812 10.554688 L 4.460938 10.554688 L 4.382812 10.253906 "/>
</g>
</svg>
