<?xml version="1.0" encoding="UTF-8"?>
<svg xmlns="http://www.w3.org/2000/svg" xmlns:xlink="http://www.w3.org/1999/xlink" width="65px" height="39px" viewBox="0 0 65 39" version="1.1">
<g id="surface1">
<path style=" stroke:none;fill-rule:evenodd;fill:rgb(100%,100%,100%);fill-opacity:1;" d="M 50 19.949219 L 47.921875 21.886719 L 47.617188 21.8125 L 47.617188 21.886719 L 45.539062 21.738281 L 45.152344 21.738281 C 45.71875 21.140625 46.179688 20.144531 46.539062 18.753906 C 46.539062 17.859375 46.332031 17.1875 45.921875 16.742188 L 52.152344 16.519531 L 52.152344 16.742188 C 50.5625 17.933594 49.769531 18.878906 49.769531 19.574219 L 49.769531 19.722656 L 49.921875 19.648438 L 50.078125 19.796875 L 50 19.949219 M 38.617188 22.480469 L 38.691406 22.632812 L 38.460938 22.855469 L 34.460938 18.679688 L 34.769531 18.53125 L 34.847656 18.605469 L 39.539062 16.890625 L 40.460938 16.890625 C 39.847656 17.4375 39.539062 18.257812 39.539062 19.351562 L 39.847656 20.917969 C 40.101562 21.363281 40.539062 21.710938 41.152344 21.960938 L 38.382812 22.183594 L 38.308594 22.257812 L 38.382812 22.257812 L 38.617188 22.480469 M 44.460938 21.214844 L 43.847656 21.140625 L 43.769531 20.691406 C 43.769531 19.996094 44.050781 19.675781 44.617188 19.722656 L 45.078125 19.796875 L 45.152344 20.46875 L 45.078125 21.140625 L 44.460938 21.214844 M 8.539062 19.277344 L 8.382812 19.128906 L 8.617188 19.050781 L 8.617188 18.382812 L 7.460938 16.816406 L 12.460938 16.59375 C 10.871094 17.4375 10.078125 18.457031 10.078125 19.648438 C 10.179688 21.039062 10.71875 21.886719 11.691406 22.183594 L 10.921875 22.109375 L 10.539062 21.960938 L 10.382812 21.960938 L 10.308594 21.8125 L 8.539062 19.277344 M 16.691406 22.40625 L 16.152344 22.332031 L 15.617188 22.332031 L 15.617188 22.40625 L 13.308594 22.332031 C 15.308594 22.085938 16.308594 20.867188 16.308594 18.679688 L 16.152344 17.5625 L 16.617188 17.859375 L 18.617188 19.050781 L 18.460938 19.050781 L 18.617188 19.722656 C 18.617188 20.269531 18.410156 20.742188 18 21.140625 L 16.691406 22.40625 M 14.460938 20.171875 L 15.152344 20.246094 L 15.230469 20.617188 L 14.230469 21.511719 C 13.871094 21.511719 13.691406 21.289062 13.691406 20.84375 C 13.691406 20.394531 13.949219 20.171875 14.460938 20.171875 "/>
<path style=" stroke:none;fill-rule:evenodd;fill:rgb(0%,0%,0%);fill-opacity:1;" d="M 52.921875 6.972656 L 53 7.273438 C 53 8.8125 50.382812 10.378906 45.152344 11.96875 L 44.230469 12.117188 L 41.921875 12.566406 L 41.847656 12.566406 C 35.792969 13.660156 32.207031 14.652344 31.078125 15.546875 L 30.691406 15.101562 C 30.691406 13.808594 34.179688 12.492188 41.152344 11.148438 L 42.691406 10.851562 L 46.308594 9.808594 L 48.230469 8.988281 L 52.230469 6.898438 L 52.921875 6.972656 M 34.460938 18.679688 L 33.230469 19.050781 C 33.128906 19.203125 33.078125 19.175781 33.078125 18.976562 L 32.921875 18.902344 L 32.847656 18.53125 C 32.847656 17.933594 34.101562 17.335938 36.617188 16.742188 C 39.539062 16.046875 43.152344 15.699219 47.460938 15.699219 L 53.691406 15.921875 L 53.769531 16.070312 L 51.230469 19.128906 L 50.460938 20.097656 L 50.308594 20.023438 L 50.382812 20.023438 L 50.230469 20.023438 L 50 19.949219 L 50.078125 19.796875 L 49.921875 19.648438 L 49.769531 19.722656 L 49.769531 19.574219 C 49.769531 18.878906 50.5625 17.933594 52.152344 16.742188 L 52.152344 16.519531 L 45.921875 16.742188 C 46.332031 17.1875 46.539062 17.859375 46.539062 18.753906 C 46.179688 20.144531 45.71875 21.140625 45.152344 21.738281 L 45.539062 21.738281 L 47.617188 21.886719 L 48.078125 22.035156 L 41.230469 22.558594 L 38.617188 22.480469 L 38.382812 22.257812 L 38.382812 22.183594 L 41.152344 21.960938 C 40.539062 21.710938 40.101562 21.363281 39.847656 20.917969 L 39.539062 19.351562 C 39.539062 18.257812 39.847656 17.4375 40.460938 16.890625 L 39.539062 16.890625 L 34.847656 18.605469 L 34.769531 18.53125 L 34.460938 18.679688 M 36.617188 15.996094 L 32.769531 17.636719 L 32.308594 17.488281 C 35.332031 15.546875 38.359375 14.578125 41.382812 14.578125 L 43.769531 14.878906 C 42.949219 15.472656 42.078125 15.597656 41.152344 15.25 L 39.152344 15.324219 L 36.617188 15.996094 M 44.460938 21.214844 L 45.078125 21.140625 L 45.152344 20.46875 L 45.078125 19.796875 L 44.617188 19.722656 C 44.050781 19.675781 43.769531 19.996094 43.769531 20.691406 L 43.847656 21.140625 L 44.460938 21.214844 M 11.617188 11.96875 C 14.230469 12.269531 16.050781 12.691406 17.078125 13.238281 L 19.691406 14.652344 L 19.691406 15.027344 L 19.152344 15.101562 L 16.152344 13.683594 C 13.691406 13.683594 11.101562 13.261719 8.382812 12.417969 C 6.382812 11.722656 4.410156 10.675781 2.460938 9.285156 L 2.847656 8.988281 C 3.667969 8.988281 5 9.433594 6.847656 10.328125 C 8.847656 11.273438 10.4375 11.820312 11.617188 11.96875 M 8.539062 19.277344 L 8.308594 19.277344 L 8 19.203125 L 7.921875 19.277344 L 6.921875 18.382812 L 6.691406 17.414062 L 6.691406 17.113281 L 6.460938 16.519531 L 6.691406 16.21875 L 11.691406 15.699219 C 13.382812 15.699219 15.078125 16.144531 16.769531 17.039062 L 17.769531 17.488281 L 18.847656 18.382812 L 19.230469 18.679688 L 19.230469 18.902344 L 19.382812 19.203125 L 19.078125 19.351562 L 18.691406 19.128906 L 18.617188 19.050781 L 16.617188 17.859375 L 16.152344 17.5625 L 16.308594 18.679688 C 16.308594 20.867188 15.308594 22.085938 13.308594 22.332031 L 15.617188 22.40625 L 15.617188 22.332031 L 16.152344 22.332031 L 16.691406 22.40625 L 16.769531 22.480469 L 17.382812 22.480469 L 17.230469 22.632812 L 17.382812 22.632812 L 17.152344 22.855469 L 10.921875 22.78125 L 10.847656 22.632812 L 9.847656 22.480469 L 9.617188 21.8125 L 9.691406 21.585938 L 9.847656 21.585938 L 10.308594 21.8125 L 10.382812 21.960938 L 10.539062 21.960938 L 10.921875 22.109375 L 11.691406 22.183594 C 10.71875 21.886719 10.179688 21.039062 10.078125 19.648438 C 10.078125 18.457031 10.871094 17.4375 12.460938 16.59375 L 7.460938 16.816406 L 8.617188 18.382812 L 8.617188 19.050781 L 8.382812 19.128906 L 8.539062 19.277344 M 12.769531 14.726562 C 14.207031 14.726562 16.410156 15.625 19.382812 17.414062 L 19.152344 17.636719 C 15.871094 16.09375 13.617188 15.199219 12.382812 14.953125 L 12.382812 14.726562 L 12.769531 14.726562 M 14.460938 20.171875 C 13.949219 20.171875 13.691406 20.394531 13.691406 20.84375 C 13.691406 21.289062 13.871094 21.511719 14.230469 21.511719 L 15.230469 20.617188 L 15.152344 20.246094 L 14.460938 20.171875 "/>
</g>
</svg>
