<?xml version="1.0" encoding="UTF-8"?>
<svg xmlns="http://www.w3.org/2000/svg" xmlns:xlink="http://www.w3.org/1999/xlink" width="65px" height="39px" viewBox="0 0 65 39" version="1.1">
<g id="surface1">
<path style=" stroke:none;fill-rule:evenodd;fill:rgb(100%,100%,100%);fill-opacity:1;" d="M 47.460938 21.738281 L 45.382812 21.585938 L 45 21.585938 C 45.5625 20.992188 46.027344 19.996094 46.382812 18.605469 C 46.382812 17.710938 46.179688 17.039062 45.769531 16.59375 L 52 16.367188 L 52 16.59375 C 50.410156 17.785156 49.617188 18.730469 49.617188 19.425781 L 49.617188 19.574219 L 49.769531 19.5 L 49.921875 19.648438 L 49.847656 19.796875 L 47.769531 21.738281 L 47.460938 21.664062 L 47.460938 21.738281 M 34.308594 18.53125 L 34.617188 18.382812 L 34.691406 18.457031 L 39.382812 16.742188 L 40.308594 16.742188 C 39.691406 17.289062 39.382812 18.109375 39.382812 19.203125 L 39.691406 20.765625 L 41 21.8125 L 38.230469 22.035156 L 38.152344 22.109375 L 38.230469 22.109375 L 38.460938 22.332031 L 38.539062 22.480469 L 38.308594 22.707031 L 34.308594 18.53125 M 44.921875 20.917969 L 44.921875 20.992188 L 44.847656 20.992188 L 44.921875 20.917969 M 18.691406 18.902344 L 18.539062 18.902344 L 18.691406 19.574219 C 18.691406 20.121094 18.488281 20.59375 18.078125 20.992188 L 16.769531 22.257812 L 16.230469 22.183594 L 15.691406 22.183594 L 15.691406 22.257812 L 13.382812 22.183594 C 15.382812 21.933594 16.382812 20.71875 16.382812 18.53125 L 16.230469 17.414062 L 16.691406 17.710938 L 18.691406 18.902344 M 10.382812 21.664062 L 8.617188 19.128906 L 8.460938 18.976562 L 8.691406 18.902344 L 8.691406 18.234375 L 7.539062 16.667969 L 12.539062 16.441406 C 10.949219 17.289062 10.152344 18.308594 10.152344 19.5 C 10.257812 20.890625 10.792969 21.738281 11.769531 22.035156 L 11 21.960938 L 10.617188 21.8125 L 10.460938 21.8125 L 10.382812 21.664062 "/>
<path style=" stroke:none;fill-rule:evenodd;fill:rgb(0%,0%,0%);fill-opacity:1;" d="M 49.847656 19.796875 L 49.921875 19.648438 L 49.769531 19.5 L 49.617188 19.574219 L 49.617188 19.425781 C 49.617188 18.730469 50.410156 17.785156 52 16.59375 L 52 16.367188 L 45.769531 16.59375 C 46.179688 17.039062 46.382812 17.710938 46.382812 18.605469 C 46.027344 19.996094 45.5625 20.992188 45 21.585938 L 45.382812 21.585938 L 47.460938 21.738281 L 47.921875 21.886719 L 41.078125 22.40625 L 38.460938 22.332031 L 38.230469 22.109375 L 38.230469 22.035156 L 41 21.8125 L 39.691406 20.765625 L 39.382812 19.203125 C 39.382812 18.109375 39.691406 17.289062 40.308594 16.742188 L 39.382812 16.742188 L 34.691406 18.457031 L 34.617188 18.382812 L 34.308594 18.53125 L 33.078125 18.902344 C 32.972656 19.050781 32.921875 19.027344 32.921875 18.828125 L 32.769531 18.753906 L 32.691406 18.382812 C 32.691406 17.785156 33.949219 17.1875 36.460938 16.59375 L 47.308594 15.546875 L 53.539062 15.773438 L 53.617188 15.921875 L 51.078125 18.976562 L 50.308594 19.949219 L 50.152344 19.871094 L 50.230469 19.871094 L 50.078125 19.871094 L 49.847656 19.796875 M 52.847656 7.125 C 52.847656 8.664062 50.230469 10.230469 45 11.820312 L 44.078125 11.96875 L 41.769531 12.417969 L 41.691406 12.417969 C 35.640625 13.511719 32.050781 14.503906 30.921875 15.398438 L 30.539062 14.953125 C 30.539062 13.660156 34.027344 12.34375 41 11 L 42.539062 10.703125 L 46.152344 9.660156 L 48.078125 8.839844 L 52.078125 6.75 L 52.769531 6.824219 L 52.847656 7.125 M 36.460938 15.847656 L 32.617188 17.488281 L 32.152344 17.335938 C 35.179688 15.398438 38.207031 14.429688 41.230469 14.429688 L 43.617188 14.726562 C 42.792969 15.324219 41.921875 15.449219 41 15.101562 L 39 15.175781 L 36.460938 15.847656 M 42.847656 17.414062 L 42.691406 17.488281 L 42.539062 17.113281 L 42.769531 17.113281 L 42.921875 17.261719 L 42.847656 17.414062 M 41.847656 17.710938 L 41.382812 18.007812 L 41.308594 18.15625 C 41.820312 18.109375 42.078125 18.28125 42.078125 18.679688 L 41.617188 19.128906 C 41.101562 19.128906 40.847656 18.902344 40.847656 18.457031 C 40.847656 17.808594 41.128906 17.511719 41.691406 17.5625 L 41.847656 17.710938 M 44.921875 20.917969 C 45.640625 20.417969 46 19.523438 46 18.234375 C 46 17.1875 44.949219 16.667969 42.847656 16.667969 C 41.050781 16.667969 40.152344 17.414062 40.152344 18.902344 C 40.152344 20.59375 41.128906 21.4375 43.078125 21.4375 L 44.847656 20.992188 L 44.921875 20.992188 L 44.921875 20.917969 M 43.769531 17.1875 L 43.847656 17.335938 L 43.769531 17.5625 L 43.617188 17.636719 L 43.460938 17.261719 L 43.769531 17.1875 M 44.847656 18.605469 L 45.078125 18.605469 L 45.230469 18.753906 L 45.152344 18.902344 L 45 18.976562 L 44.847656 18.605469 M 44.769531 18.234375 L 44.617188 18.308594 L 44.460938 17.933594 L 44.769531 17.859375 L 44.847656 18.007812 L 44.769531 18.234375 M 44.691406 19.277344 C 45 19.277344 45.179688 19.425781 45.230469 19.722656 C 45.230469 20.417969 44.871094 20.765625 44.152344 20.765625 L 43.921875 20.617188 L 44.382812 20.246094 L 44.152344 19.722656 C 44.152344 19.425781 44.332031 19.277344 44.691406 19.277344 M 43.152344 20.992188 L 43.078125 20.617188 L 43.382812 20.617188 L 43.539062 20.765625 L 43.152344 20.992188 M 42.382812 19.050781 C 42.382812 18.65625 42.617188 18.457031 43.078125 18.457031 C 43.382812 18.457031 43.5625 18.753906 43.617188 19.351562 C 43.617188 19.796875 43.410156 20.023438 43 20.023438 C 42.589844 20.023438 42.382812 19.699219 42.382812 19.050781 M 41.382812 19.722656 L 41.230469 19.796875 L 41.078125 19.425781 L 41.382812 19.351562 L 41.460938 19.5 L 41.382812 19.722656 M 41.539062 20.097656 L 41.691406 20.246094 L 41.617188 20.394531 L 41.460938 20.46875 L 41.308594 20.097656 L 41.539062 20.097656 M 42.539062 20.917969 L 42.382812 20.992188 L 42.230469 20.617188 L 42.460938 20.617188 L 42.617188 20.765625 L 42.539062 20.917969 M 41.769531 23.453125 L 38.617188 23.898438 L 37.078125 23.898438 L 37 23.527344 L 41.617188 23.300781 L 41.769531 23.453125 M 19.769531 14.878906 L 19.230469 14.953125 C 17.382812 14.007812 16.382812 13.535156 16.230469 13.535156 C 13.769531 13.535156 11.179688 13.113281 8.460938 12.269531 C 6.460938 11.570312 4.488281 10.527344 2.539062 9.136719 L 2.921875 8.839844 C 3.742188 8.839844 5.078125 9.285156 6.921875 10.179688 C 8.921875 11.125 10.511719 11.671875 11.691406 11.820312 C 14.308594 12.117188 16.128906 12.542969 17.152344 13.089844 L 19.769531 14.503906 L 19.769531 14.878906 M 20.847656 18.15625 L 20 18.082031 L 19.921875 17.710938 L 21.382812 17.636719 L 20.617188 16.21875 L 20.847656 16.21875 L 21.769531 17.488281 C 21.769531 17.933594 21.460938 18.15625 20.847656 18.15625 M 30.921875 17.488281 L 31.539062 17.5625 L 31.617188 17.710938 C 31.617188 17.859375 31.4375 17.933594 31.078125 17.933594 C 30.71875 17.933594 30.539062 17.761719 30.539062 17.414062 C 30.539062 16.367188 30.792969 16.019531 31.308594 16.367188 L 31.460938 16.519531 C 31.101562 16.714844 30.921875 16.988281 30.921875 17.335938 L 30.921875 17.488281 M 8.617188 19.128906 L 8.382812 19.128906 L 8.078125 19.050781 L 8 19.128906 L 7 18.234375 L 6.769531 17.261719 L 6.769531 16.964844 L 6.539062 16.367188 L 6.769531 16.070312 L 11.769531 15.546875 C 13.460938 15.546875 15.152344 15.996094 16.847656 16.890625 L 17.847656 17.335938 L 18.921875 18.234375 L 19.308594 18.53125 L 19.308594 18.753906 L 19.460938 19.050781 L 19.152344 19.203125 L 18.769531 18.976562 L 18.691406 18.902344 L 16.691406 17.710938 L 16.230469 17.414062 L 16.382812 18.53125 C 16.382812 20.71875 15.382812 21.933594 13.382812 22.183594 L 15.691406 22.257812 L 15.691406 22.183594 L 16.230469 22.183594 L 16.769531 22.257812 L 16.847656 22.332031 L 17.460938 22.332031 L 17.308594 22.480469 L 17.460938 22.480469 L 17.230469 22.707031 L 11 22.632812 L 10.921875 22.480469 L 9.921875 22.332031 L 9.691406 21.664062 L 9.769531 21.4375 L 9.921875 21.4375 L 10.382812 21.664062 L 10.460938 21.8125 L 10.617188 21.8125 L 11 21.960938 L 11.769531 22.035156 C 10.792969 21.738281 10.257812 20.890625 10.152344 19.5 C 10.152344 18.308594 10.949219 17.289062 12.539062 16.441406 L 7.539062 16.667969 L 8.691406 18.234375 L 8.691406 18.902344 L 8.460938 18.976562 L 8.617188 19.128906 M 12.460938 14.578125 L 12.847656 14.578125 C 14.28125 14.578125 16.488281 15.472656 19.460938 17.261719 L 19.230469 17.488281 C 15.949219 15.945312 13.691406 15.050781 12.460938 14.804688 L 12.460938 14.578125 M 13.769531 17.859375 L 13.921875 18.007812 L 13.847656 18.15625 L 13.691406 18.234375 L 13.539062 17.859375 L 13.769531 17.859375 M 12 18.605469 L 12.230469 18.605469 L 12.382812 18.753906 L 12.308594 18.902344 L 12.152344 18.976562 L 12 18.605469 M 12.769531 18.15625 L 12.921875 18.308594 L 12.847656 18.457031 L 12.691406 18.53125 L 12.539062 18.15625 L 12.769531 18.15625 M 14.308594 18.15625 L 14.847656 17.859375 C 15.050781 17.859375 15.230469 17.984375 15.382812 18.234375 L 15.460938 18.308594 L 15.460938 18.382812 L 15.617188 18.902344 L 15.539062 19.351562 L 15.382812 19.425781 L 15.230469 18.679688 L 15.152344 18.679688 L 14.769531 18.828125 C 14.410156 18.828125 14.230469 18.605469 14.230469 18.15625 L 14.308594 18.15625 M 15.921875 18.902344 C 15.921875 17.710938 15.128906 17.113281 13.539062 17.113281 C 11.847656 17.113281 11 17.984375 11 19.722656 C 10.898438 21.117188 11.410156 21.8125 12.539062 21.8125 C 14.792969 21.8125 15.921875 20.84375 15.921875 18.902344 M 17.078125 23.375 L 17.230469 23.375 L 19.308594 23.003906 L 19.460938 23.152344 C 19.257812 23.601562 18.589844 23.824219 17.460938 23.824219 L 14.847656 23.601562 L 14.769531 23.226562 L 16.152344 23.226562 L 17.078125 23.375 M 15 19.949219 L 14.847656 19.574219 L 15.078125 19.574219 L 15.230469 19.722656 L 15.152344 19.871094 L 15 19.949219 M 15.308594 20.171875 L 15.308594 20.246094 L 15.230469 20.097656 L 15.308594 20.171875 M 14.460938 20.691406 L 14.382812 20.84375 L 14.230469 20.917969 L 14.078125 20.542969 L 14.308594 20.542969 L 14.460938 20.691406 M 14.539062 20.171875 L 14.769531 20.171875 L 14.921875 20.320312 L 14.847656 20.46875 L 14.691406 20.542969 L 14.539062 20.171875 M 12.691406 19.5 C 12.691406 18.953125 12.972656 18.679688 13.539062 18.679688 C 14.050781 18.679688 14.308594 18.902344 14.308594 19.351562 C 14.308594 19.996094 13.898438 20.320312 13.078125 20.320312 L 12.769531 20.246094 L 12.691406 19.5 M 12.691406 21.140625 L 12.230469 21.4375 C 11.667969 21.4375 11.382812 21.140625 11.382812 20.542969 L 11.460938 20.023438 L 11.617188 20.023438 L 11.769531 20.542969 L 11.769531 20.617188 L 12.152344 20.46875 C 12.511719 20.46875 12.691406 20.691406 12.691406 21.140625 M 13.308594 20.84375 L 13.539062 20.84375 L 13.691406 20.992188 L 13.617188 21.140625 L 13.460938 21.214844 L 13.308594 20.84375 M 11.921875 19.203125 L 12.078125 19.351562 L 11.691406 19.574219 L 11.539062 19.203125 L 11.921875 19.203125 "/>
<path style=" stroke:none;fill-rule:evenodd;fill:rgb(60.000002%,0%,0%);fill-opacity:1;" d="M 41.847656 17.710938 L 41.691406 17.5625 C 41.128906 17.511719 40.847656 17.808594 40.847656 18.457031 C 40.847656 18.902344 41.101562 19.128906 41.617188 19.128906 L 42.078125 18.679688 C 42.078125 18.28125 41.820312 18.109375 41.308594 18.15625 L 41.382812 18.007812 L 41.847656 17.710938 M 42.847656 17.414062 L 42.921875 17.261719 L 42.769531 17.113281 L 42.539062 17.113281 L 42.691406 17.488281 L 42.847656 17.414062 M 44.847656 20.992188 L 43.078125 21.4375 C 41.128906 21.4375 40.152344 20.59375 40.152344 18.902344 C 40.152344 17.414062 41.050781 16.667969 42.847656 16.667969 C 44.949219 16.667969 46 17.1875 46 18.234375 C 46 19.523438 45.640625 20.417969 44.921875 20.917969 L 44.847656 20.992188 M 42.539062 20.917969 L 42.617188 20.765625 L 42.460938 20.617188 L 42.230469 20.617188 L 42.382812 20.992188 L 42.539062 20.917969 M 41.539062 20.097656 L 41.308594 20.097656 L 41.460938 20.46875 L 41.617188 20.394531 L 41.691406 20.246094 L 41.539062 20.097656 M 41.382812 19.722656 L 41.460938 19.5 L 41.382812 19.351562 L 41.078125 19.425781 L 41.230469 19.796875 L 41.382812 19.722656 M 42.382812 19.050781 C 42.382812 19.699219 42.589844 20.023438 43 20.023438 C 43.410156 20.023438 43.617188 19.796875 43.617188 19.351562 C 43.5625 18.753906 43.382812 18.457031 43.078125 18.457031 C 42.617188 18.457031 42.382812 18.65625 42.382812 19.050781 M 43.152344 20.992188 L 43.539062 20.765625 L 43.382812 20.617188 L 43.078125 20.617188 L 43.152344 20.992188 M 44.691406 19.277344 C 44.332031 19.277344 44.152344 19.425781 44.152344 19.722656 L 44.382812 20.246094 L 43.921875 20.617188 L 44.152344 20.765625 C 44.871094 20.765625 45.230469 20.417969 45.230469 19.722656 C 45.179688 19.425781 45 19.277344 44.691406 19.277344 M 44.769531 18.234375 L 44.847656 18.007812 L 44.769531 17.859375 L 44.460938 17.933594 L 44.617188 18.308594 L 44.769531 18.234375 M 44.847656 18.605469 L 45 18.976562 L 45.152344 18.902344 L 45.230469 18.753906 L 45.078125 18.605469 L 44.847656 18.605469 M 43.769531 17.1875 L 43.460938 17.261719 L 43.617188 17.636719 L 43.769531 17.5625 L 43.847656 17.335938 L 43.769531 17.1875 M 14.308594 18.15625 L 14.230469 18.15625 C 14.230469 18.605469 14.410156 18.828125 14.769531 18.828125 L 15.152344 18.679688 L 15.230469 18.679688 L 15.382812 19.425781 L 15.539062 19.351562 L 15.617188 18.902344 L 15.460938 18.382812 L 15.460938 18.308594 L 15.382812 18.234375 C 15.230469 17.984375 15.050781 17.859375 14.847656 17.859375 L 14.308594 18.15625 M 12.769531 18.15625 L 12.539062 18.15625 L 12.691406 18.53125 L 12.847656 18.457031 L 12.921875 18.308594 L 12.769531 18.15625 M 12 18.605469 L 12.152344 18.976562 L 12.308594 18.902344 L 12.382812 18.753906 L 12.230469 18.605469 L 12 18.605469 M 13.769531 17.859375 L 13.539062 17.859375 L 13.691406 18.234375 L 13.847656 18.15625 L 13.921875 18.007812 L 13.769531 17.859375 M 15.921875 18.902344 C 15.921875 20.84375 14.792969 21.8125 12.539062 21.8125 C 11.410156 21.8125 10.898438 21.117188 11 19.722656 C 11 17.984375 11.847656 17.113281 13.539062 17.113281 C 15.128906 17.113281 15.921875 17.710938 15.921875 18.902344 M 11.921875 19.203125 L 11.539062 19.203125 L 11.691406 19.574219 L 12.078125 19.351562 L 11.921875 19.203125 M 13.308594 20.84375 L 13.460938 21.214844 L 13.617188 21.140625 L 13.691406 20.992188 L 13.539062 20.84375 L 13.308594 20.84375 M 12.691406 21.140625 C 12.691406 20.691406 12.511719 20.46875 12.152344 20.46875 L 11.769531 20.617188 L 11.769531 20.542969 L 11.617188 20.023438 L 11.460938 20.023438 L 11.382812 20.542969 C 11.382812 21.140625 11.667969 21.4375 12.230469 21.4375 L 12.691406 21.140625 M 12.691406 19.5 L 12.769531 20.246094 L 13.078125 20.320312 C 13.898438 20.320312 14.308594 19.996094 14.308594 19.351562 C 14.308594 18.902344 14.050781 18.679688 13.539062 18.679688 C 12.972656 18.679688 12.691406 18.953125 12.691406 19.5 M 14.539062 20.171875 L 14.691406 20.542969 L 14.847656 20.46875 L 14.921875 20.320312 L 14.769531 20.171875 L 14.539062 20.171875 M 14.460938 20.691406 L 14.308594 20.542969 L 14.078125 20.542969 L 14.230469 20.917969 L 14.382812 20.84375 L 14.460938 20.691406 M 15.308594 20.171875 L 15.230469 20.097656 L 15.308594 20.246094 L 15.308594 20.171875 M 15 19.949219 L 15.152344 19.871094 L 15.230469 19.722656 L 15.078125 19.574219 L 14.847656 19.574219 L 15 19.949219 "/>
</g>
</svg>
