<?xml version="1.0" encoding="UTF-8"?>
<svg xmlns="http://www.w3.org/2000/svg" xmlns:xlink="http://www.w3.org/1999/xlink" width="65px" height="39px" viewBox="0 0 65 39" version="1.1">
<g id="surface1">
<path style=" stroke:none;fill-rule:evenodd;fill:rgb(0%,0%,0%);fill-opacity:1;" d="M 52.382812 16.441406 L 53 15.625 L 49.769531 15.625 L 48.078125 15.773438 L 48.308594 16.367188 L 48.308594 16.519531 L 48.382812 16.742188 L 48.382812 17.335938 C 48.382812 19.027344 47.742188 19.871094 46.460938 19.871094 C 44.71875 19.871094 43.511719 19.5 42.847656 18.753906 L 42.617188 18.234375 L 42.847656 18.15625 L 42.539062 18.082031 L 42.460938 18.007812 L 42.382812 17.636719 L 40.921875 18.457031 C 39.332031 18.902344 38.207031 19.523438 37.539062 20.320312 L 37.617188 20.394531 L 37.460938 20.394531 L 37.691406 20.394531 L 37.847656 20.46875 L 38 20.394531 L 44.308594 20.992188 C 47.128906 20.992188 48.898438 20.71875 49.617188 20.171875 L 52.382812 16.519531 L 52.382812 16.441406 M 42.847656 18.15625 C 43.101562 19.003906 44.027344 19.425781 45.617188 19.425781 C 47.71875 19.425781 48.511719 18.703125 48 17.261719 L 47.460938 15.847656 C 45.972656 16.144531 44.410156 16.691406 42.769531 17.488281 L 42.691406 17.488281 L 42.847656 18.15625 M 55.617188 14.726562 L 54.769531 16.890625 L 52.921875 19.574219 C 52.5625 20.519531 52.027344 21.289062 51.308594 21.886719 C 49.972656 23.027344 47.71875 23.601562 44.539062 23.601562 L 40.769531 23.300781 L 39.152344 23.003906 L 38.152344 23.003906 C 36.460938 22.457031 35.257812 22.183594 34.539062 22.183594 L 33.691406 22.332031 L 33.460938 22.109375 C 37.257812 16.246094 42.847656 13.3125 50.230469 13.3125 C 53.207031 13.3125 55 13.785156 55.617188 14.726562 M 5.152344 14.726562 L 7.382812 14.652344 C 12.769531 14.652344 17.539062 17.238281 21.691406 22.40625 L 21.847656 22.480469 L 22.078125 22.78125 L 22.230469 23.003906 C 21.921875 23.699219 19.949219 24.046875 16.308594 24.046875 C 9.128906 24.046875 5.257812 21.339844 4.691406 15.921875 L 4.847656 14.953125 L 4.539062 14.878906 L 4.769531 14.726562 L 4.921875 14.726562 L 5.078125 14.503906 L 5.152344 14.726562 M 6.847656 17.414062 L 6.847656 17.488281 L 8.617188 19.5 C 9.488281 20.890625 11.101562 21.738281 13.460938 22.035156 L 18.539062 22.035156 L 16.230469 19.351562 L 16.152344 19.277344 L 16.078125 19.425781 L 16 19.574219 L 15.847656 19.796875 L 15.617188 19.796875 L 15.539062 20.023438 L 15.617188 20.097656 C 15.410156 20.296875 15.207031 20.394531 15 20.394531 L 14.921875 20.320312 L 15 20.320312 L 13.769531 20.394531 C 11.617188 20.394531 10.769531 19.722656 11.230469 18.382812 L 11.308594 17.636719 L 11.308594 17.5625 L 11.460938 17.414062 L 11.382812 17.414062 L 11.539062 16.890625 L 11 16.816406 C 8.078125 16.367188 6.691406 16.566406 6.847656 17.414062 M 11.617188 18.308594 C 11.359375 19.449219 12.101562 20.023438 13.847656 20.023438 L 15.152344 20.023438 L 15.769531 18.976562 L 15.691406 18.828125 C 14.71875 17.882812 13.460938 17.261719 11.921875 16.964844 L 11.617188 18.308594 M 21.617188 22.929688 L 21.769531 22.855469 L 21.539062 22.855469 L 21.617188 22.929688 "/>
<path style=" stroke:none;fill-rule:evenodd;fill:rgb(100%,100%,100%);fill-opacity:1;" d="M 48.308594 16.367188 L 48.382812 16.367188 L 48.308594 16.519531 L 48.308594 16.367188 M 48.382812 16.742188 L 48.382812 16.667969 L 51.921875 16.667969 L 52.382812 16.367188 L 52.382812 16.519531 L 49.617188 20.171875 C 48.898438 20.71875 47.128906 20.992188 44.308594 20.992188 L 38 20.394531 C 38.972656 19.648438 40.511719 18.929688 42.617188 18.234375 L 42.847656 18.753906 C 43.511719 19.5 44.71875 19.871094 46.460938 19.871094 C 47.742188 19.871094 48.382812 19.027344 48.382812 17.335938 L 48.382812 16.742188 M 42.460938 18.007812 L 42.539062 18.082031 L 42.460938 18.007812 M 6.847656 17.414062 L 6.921875 17.414062 L 7 17.5625 L 11.230469 17.636719 L 11.308594 17.5625 L 11.308594 17.636719 L 11.230469 18.382812 C 10.769531 19.722656 11.617188 20.394531 13.769531 20.394531 L 15 20.320312 L 14.921875 20.320312 L 15 20.394531 C 15.207031 20.394531 15.410156 20.296875 15.617188 20.097656 L 17.769531 22.035156 L 13.460938 22.035156 C 11.101562 21.738281 9.488281 20.890625 8.617188 19.5 L 6.847656 17.488281 L 6.847656 17.414062 M 16.230469 19.351562 L 16.078125 19.425781 L 16.152344 19.277344 L 16.230469 19.351562 "/>
<path style=" stroke:none;fill-rule:evenodd;fill:rgb(80.000001%,80.000001%,80.000001%);fill-opacity:1;" d="M 48.308594 16.367188 L 48.078125 15.773438 L 49.769531 15.625 L 53 15.625 L 52.382812 16.441406 L 52.382812 16.367188 L 51.921875 16.667969 L 48.382812 16.667969 L 48.382812 16.742188 L 48.308594 16.519531 L 48.382812 16.367188 L 48.308594 16.367188 M 38 20.394531 L 37.847656 20.46875 L 37.691406 20.394531 L 37.617188 20.394531 L 37.539062 20.320312 C 38.207031 19.523438 39.332031 18.902344 40.921875 18.457031 L 42.382812 17.636719 L 42.460938 18.007812 L 42.539062 18.082031 L 42.847656 18.15625 L 42.617188 18.234375 C 40.511719 18.929688 38.972656 19.648438 38 20.394531 M 11.308594 17.5625 L 11.230469 17.636719 L 7 17.5625 L 6.921875 17.414062 L 6.847656 17.414062 C 6.691406 16.566406 8.078125 16.367188 11 16.816406 L 11.539062 16.890625 L 11.382812 17.414062 L 11.460938 17.414062 L 11.308594 17.5625 M 17.769531 22.035156 L 15.617188 20.097656 L 15.539062 20.023438 L 15.617188 19.796875 L 15.847656 19.796875 L 16 19.574219 L 16.078125 19.425781 L 16.230469 19.351562 L 18.539062 22.035156 L 17.769531 22.035156 "/>
<path style=" stroke:none;fill-rule:evenodd;fill:rgb(60.000002%,100%,80.000001%);fill-opacity:1;" d="M 42.847656 18.15625 L 42.691406 17.488281 L 42.769531 17.488281 C 44.410156 16.691406 45.972656 16.144531 47.460938 15.847656 L 48 17.261719 C 48.511719 18.703125 47.71875 19.425781 45.617188 19.425781 C 44.027344 19.425781 43.101562 19.003906 42.847656 18.15625 M 11.617188 18.308594 L 11.921875 16.964844 C 13.460938 17.261719 14.71875 17.882812 15.691406 18.828125 L 15.769531 18.976562 L 15.152344 20.023438 L 13.847656 20.023438 C 12.101562 20.023438 11.359375 19.449219 11.617188 18.308594 "/>
</g>
</svg>
