<?xml version="1.0" encoding="UTF-8"?>
<svg xmlns="http://www.w3.org/2000/svg" xmlns:xlink="http://www.w3.org/1999/xlink" width="65px" height="39px" viewBox="0 0 65 39" version="1.1">
<g id="surface1">
<path style=" stroke:none;fill-rule:evenodd;fill:rgb(0%,0%,0%);fill-opacity:1;" d="M 52.691406 18.234375 L 52.308594 18.007812 C 51.539062 17.609375 50.179688 17.414062 48.230469 17.414062 L 44.460938 17.859375 L 44.230469 17.710938 L 44 17.785156 L 44 17.933594 L 43.921875 17.933594 L 44.078125 18.15625 L 44.078125 18.976562 C 44.078125 20.070312 43.332031 20.617188 41.847656 20.617188 C 41.027344 20.617188 40.488281 20.296875 40.230469 19.648438 L 40.152344 18.902344 L 40.230469 18.753906 L 40.078125 18.753906 L 40.078125 18.679688 L 40.152344 18.382812 L 35.617188 18.902344 L 34.230469 19.128906 L 34.078125 18.902344 L 33.847656 18.976562 L 33.847656 19.050781 L 33.382812 19.128906 L 33 19.050781 L 32.847656 18.679688 C 32.847656 18.082031 33.847656 17.609375 35.847656 17.261719 L 34.460938 17.335938 L 34 17.261719 L 33.921875 16.890625 C 33.921875 16.59375 34.511719 16.441406 35.691406 16.441406 C 36.359375 16.441406 36.691406 16.566406 36.691406 16.816406 L 36.617188 17.113281 L 48.230469 16.59375 C 51.359375 16.59375 53.050781 17.164062 53.308594 18.308594 L 53.230469 18.308594 L 52.847656 18.234375 L 52.847656 18.308594 L 52.691406 18.234375 M 53.308594 18.53125 L 53.308594 18.457031 L 53.308594 18.605469 L 53.308594 18.53125 M 55.230469 12.417969 L 59.460938 12.789062 L 59.382812 13.164062 L 41.847656 14.503906 L 35.460938 15.996094 L 34.921875 15.921875 L 34.847656 15.546875 C 34.847656 15.351562 37.230469 14.804688 42 13.910156 L 51.382812 12.492188 L 55.230469 12.417969 M 36.460938 23.972656 L 37.769531 23.75 L 38.691406 23.824219 L 48.617188 22.109375 L 49.460938 21.664062 L 50 21.738281 L 50.078125 21.960938 L 50.078125 21.886719 L 50.152344 21.886719 L 50.230469 22.183594 L 49.308594 22.558594 L 48.152344 23.003906 L 47.847656 22.929688 L 47.769531 22.929688 L 44.769531 23.601562 L 38.078125 24.644531 L 36.921875 24.496094 L 36.769531 24.496094 L 36.382812 23.972656 L 36.460938 23.972656 M 40.847656 18.753906 C 40.847656 19.5 41.027344 19.871094 41.382812 19.871094 C 42.921875 19.871094 43.5625 19.550781 43.308594 18.902344 L 43 18.234375 L 43.152344 18.007812 L 41.152344 18.234375 L 40.847656 18.753906 M 35.769531 24.941406 L 37.617188 26.285156 C 38.898438 27.277344 40.078125 27.652344 41.152344 27.402344 L 41.078125 27.777344 L 38.617188 27.777344 L 35.308594 25.390625 L 35.769531 24.941406 M 22.230469 16.070312 C 22.230469 16.519531 22.027344 16.742188 21.617188 16.742188 L 21.308594 16.667969 L 21.152344 16.292969 C 21.152344 15.945312 21.382812 15.699219 21.847656 15.546875 L 22.230469 16.070312 M 20.230469 18.679688 L 20.078125 18.457031 L 19.847656 18.457031 L 19.847656 18.53125 L 19.769531 18.605469 L 16.769531 18.382812 L 16.691406 18.753906 L 16.691406 18.902344 L 16.617188 19.050781 L 16.617188 19.203125 C 16.410156 19.75 15.820312 20.023438 14.847656 20.023438 C 13.460938 20.023438 12.847656 19.523438 13 18.53125 L 13 18.457031 L 13.152344 17.859375 L 9.921875 17.710938 L 7 17.859375 L 7.152344 18.15625 L 6.691406 18.15625 L 6.617188 18.308594 L 6.691406 18.53125 C 6.28125 18.480469 6.078125 18.183594 6.078125 17.636719 C 6.078125 17.089844 6.769531 16.867188 8.152344 16.964844 L 10.152344 16.890625 C 15.792969 16.890625 19.359375 17.386719 20.847656 18.382812 L 20.847656 18.753906 L 20.308594 18.828125 L 20.230469 18.679688 M 19.847656 23.300781 L 19.921875 23.527344 L 19.847656 23.898438 L 11.847656 23.898438 C 10.667969 23.699219 9.511719 23.300781 8.382812 22.707031 L 8 22.632812 L 8 22.480469 L 7.921875 22.257812 L 8 21.886719 L 8.691406 21.8125 C 9.359375 21.8125 9.820312 22.011719 10.078125 22.40625 L 10.769531 22.855469 L 19.539062 23.152344 L 19.617188 23.300781 L 19.847656 23.300781 M 6.847656 18.53125 L 6.691406 18.53125 L 6.691406 18.457031 L 6.847656 18.457031 L 6.847656 18.53125 M 32.230469 14.652344 L 32.617188 14.726562 L 32.539062 15.472656 L 33.460938 16.890625 L 33.152344 17.039062 C 32.230469 17.039062 31.769531 16.492188 31.769531 15.398438 C 31.769531 14.902344 31.921875 14.652344 32.230469 14.652344 M 14.308594 18.234375 L 14.078125 18.007812 L 13.769531 18.457031 C 13.769531 19.003906 13.898438 19.277344 14.152344 19.277344 C 15.332031 19.277344 15.921875 19.078125 15.921875 18.679688 L 15.769531 18.308594 L 14.308594 18.234375 M 19 16.292969 L 12.847656 15.027344 L 7.847656 14.652344 L 3.769531 13.832031 L 4.847656 13.609375 C 10.589844 13.609375 15.460938 14.355469 19.460938 15.847656 L 19.460938 16.21875 L 19 16.292969 M 16.230469 16.144531 C 18.179688 16.144531 19.152344 16.367188 19.152344 16.816406 L 19.078125 17.1875 L 16.769531 17.1875 C 16.101562 17.1875 15.769531 16.964844 15.769531 16.519531 L 15.847656 16.21875 L 16.230469 16.144531 M 15 25.613281 L 18.230469 25.242188 L 20.691406 24.496094 C 21.410156 24.496094 21.769531 24.621094 21.769531 24.867188 L 21.691406 25.242188 L 18.921875 25.6875 L 16.847656 26.285156 L 15.078125 25.988281 L 15 25.613281 "/>
<path style=" stroke:none;fill-rule:evenodd;fill:rgb(40.000001%,40.000001%,40.000001%);fill-opacity:1;" d="M 40.847656 18.753906 L 41.152344 18.234375 L 43.152344 18.007812 L 43 18.234375 L 43.308594 18.902344 C 43.5625 19.550781 42.921875 19.871094 41.382812 19.871094 C 41.027344 19.871094 40.847656 19.5 40.847656 18.753906 M 14.308594 18.234375 L 15.769531 18.308594 L 15.921875 18.679688 C 15.921875 19.078125 15.332031 19.277344 14.152344 19.277344 C 13.898438 19.277344 13.769531 19.003906 13.769531 18.457031 L 14.078125 18.007812 L 14.308594 18.234375 "/>
<path style=" stroke:none;fill-rule:evenodd;fill:rgb(100%,100%,100%);fill-opacity:1;" d="M 52.308594 18.007812 L 52.691406 18.234375 L 52.152344 18.15625 L 52.308594 18.007812 M 52.847656 18.308594 L 52.847656 18.234375 L 53.230469 18.308594 L 52.847656 18.308594 M 40.152344 18.902344 L 40.230469 19.648438 C 40.488281 20.296875 41.027344 20.617188 41.847656 20.617188 C 43.332031 20.617188 44.078125 20.070312 44.078125 18.976562 L 44.078125 18.308594 L 44.152344 18.457031 L 44.230469 18.53125 L 45.230469 18.828125 L 45.460938 18.605469 L 45.308594 18.457031 L 53.230469 18.53125 L 53.308594 18.53125 L 53.308594 18.605469 L 51.617188 20.617188 L 50.078125 21.886719 L 50.078125 21.960938 L 50 21.738281 L 49.460938 21.664062 L 48.617188 22.109375 L 38.691406 23.824219 L 37.769531 23.75 L 36.460938 23.972656 C 35.949219 23.625 35.4375 22.90625 34.921875 21.8125 L 34.078125 19.722656 L 39.769531 19.128906 L 39.847656 19.128906 L 40 18.976562 L 40.078125 18.902344 L 40.152344 18.902344 M 44.078125 18.15625 L 43.921875 17.933594 L 44 17.933594 L 44.078125 18.15625 M 13 18.457031 L 13 18.53125 C 12.847656 19.523438 13.460938 20.023438 14.847656 20.023438 C 15.820312 20.023438 16.410156 19.75 16.617188 19.203125 L 16.847656 19.203125 L 20 19.277344 L 20.230469 19.128906 L 20.230469 19.5 L 19.921875 23.226562 L 19.847656 23.300781 L 19.617188 23.300781 L 19.539062 23.152344 L 10.769531 22.855469 L 10.078125 22.40625 C 9.820312 22.011719 9.359375 21.8125 8.691406 21.8125 L 8 21.886719 L 7.921875 22.257812 L 8 22.480469 C 7.230469 22.132812 6.792969 21.089844 6.691406 19.351562 L 6.847656 18.53125 L 6.847656 18.457031 L 12.769531 18.679688 L 13 18.457031 M 19.769531 18.605469 L 19.847656 18.53125 L 19.847656 18.679688 L 19.769531 18.605469 "/>
<path style=" stroke:none;fill-rule:evenodd;fill:rgb(80.000001%,80.000001%,80.000001%);fill-opacity:1;" d="M 52.308594 18.007812 L 52.152344 18.15625 L 52.691406 18.234375 L 52.847656 18.308594 L 53.460938 18.308594 L 53.308594 18.457031 L 53.308594 18.53125 L 53.230469 18.53125 L 45.308594 18.457031 L 45.460938 18.605469 L 45.230469 18.828125 L 44.230469 18.53125 L 44.152344 18.457031 L 44.078125 18.308594 L 44.078125 18.15625 L 44 17.933594 L 44 17.785156 L 44.230469 17.710938 L 44.460938 17.859375 L 48.230469 17.414062 C 50.179688 17.414062 51.539062 17.609375 52.308594 18.007812 M 33.847656 19.050781 L 33.847656 18.976562 L 34.078125 18.902344 L 34.230469 19.128906 L 35.617188 18.902344 L 40.152344 18.382812 L 40.078125 18.679688 L 40.078125 18.753906 L 40.230469 18.753906 L 40.152344 18.902344 L 40.078125 18.902344 L 40 18.976562 L 39.847656 19.128906 L 39.769531 19.128906 L 34.078125 19.722656 L 33.847656 19.722656 L 33.847656 19.050781 M 19.847656 18.53125 L 19.847656 18.457031 L 20.078125 18.457031 L 20.230469 18.679688 L 20.230469 19.128906 L 20 19.277344 L 16.847656 19.203125 L 16.617188 19.203125 L 16.617188 19.050781 L 16.691406 18.902344 L 16.691406 18.753906 L 16.769531 18.382812 L 19.769531 18.605469 L 19.847656 18.679688 L 19.847656 18.53125 M 6.691406 18.53125 L 6.617188 18.308594 L 6.691406 18.15625 L 7.152344 18.15625 L 7 17.859375 L 9.921875 17.710938 L 13.152344 17.859375 L 13 18.457031 L 12.769531 18.679688 L 6.847656 18.457031 L 6.691406 18.457031 L 6.691406 18.53125 "/>
</g>
</svg>
