<?xml version="1.0" encoding="UTF-8"?>
<svg xmlns="http://www.w3.org/2000/svg" xmlns:xlink="http://www.w3.org/1999/xlink" width="65px" height="39px" viewBox="0 0 65 39" version="1.1">
<g id="surface1">
<path style=" stroke:none;fill-rule:evenodd;fill:rgb(0%,0%,0%);fill-opacity:1;" d="M 51.078125 12.714844 C 49.691406 11.074219 47.460938 10.253906 44.382812 10.253906 C 41.050781 10.253906 38 12.167969 35.230469 15.996094 L 34.691406 15.472656 C 34.691406 14.925781 35.847656 13.832031 38.152344 12.195312 C 40.667969 10.355469 42.71875 9.433594 44.308594 9.433594 C 46.511719 9.433594 49.078125 10.402344 52 12.34375 C 54.050781 13.683594 55.101562 14.777344 55.152344 15.625 L 54.769531 15.699219 L 51.078125 12.714844 M 38.617188 14.878906 L 38.691406 15.175781 L 36.308594 17.039062 L 35.847656 16.964844 L 35.769531 16.59375 C 35.769531 15.847656 36.589844 15.25 38.230469 14.804688 L 38.617188 14.878906 M 49.617188 21.8125 L 49.230469 21.363281 L 48.847656 21.585938 L 48.382812 21.511719 L 46.078125 21.4375 L 46.078125 21.511719 L 46.230469 22.109375 C 46.230469 22.707031 45.820312 23.003906 45 23.003906 C 44.488281 23.003906 44.179688 22.804688 44.078125 22.40625 L 44.078125 21.738281 L 44.308594 21.140625 L 42.230469 21.289062 L 42.078125 21.289062 L 40.308594 21.585938 L 39.539062 21.960938 L 39.460938 21.960938 L 39.078125 21.886719 L 38.539062 22.035156 L 36.382812 22.929688 L 36.308594 22.855469 L 36.078125 22.855469 L 35.617188 22.558594 L 35.617188 21.960938 L 35.308594 21.511719 C 35.308594 21.117188 35.488281 20.917969 35.847656 20.917969 C 36.257812 20.917969 36.511719 21.117188 36.617188 21.511719 L 36.769531 21.585938 L 38.539062 20.84375 L 41.769531 20.097656 C 42.28125 19.648438 43.382812 19.402344 45.078125 19.351562 L 46.921875 19.128906 L 49.617188 19.574219 L 51.617188 20.46875 C 53.101562 20.71875 53.691406 21.089844 53.382812 21.585938 L 53.308594 22.109375 L 52.769531 22.332031 L 52.691406 22.257812 L 52.152344 22.332031 L 51.382812 21.8125 L 49.617188 21.8125 M 40.539062 23.453125 L 40.847656 23.453125 L 41.152344 23.226562 L 44.617188 23.152344 L 48.230469 23.375 L 48.539062 23.453125 L 48.691406 23.453125 L 48.691406 23.527344 L 48.617188 23.898438 L 40.921875 23.898438 L 40.539062 23.453125 M 20.460938 17.039062 L 17.921875 15.398438 L 18 15.027344 L 18.308594 14.953125 C 19.230469 14.953125 20.078125 15.5 20.847656 16.59375 L 20.847656 16.964844 L 20.460938 17.039062 M 21.460938 16.441406 L 18.230469 13.683594 C 15.769531 11.796875 13 10.851562 9.921875 10.851562 C 8.382812 10.851562 6.460938 11.96875 4.152344 14.207031 L 3.691406 14.132812 L 3.617188 13.757812 C 3.617188 13.410156 4.359375 12.742188 5.847656 11.746094 C 7.488281 10.601562 8.871094 10.03125 10 10.03125 C 13.847656 10.03125 17.769531 11.894531 21.769531 15.625 L 21.769531 16.292969 L 21.460938 16.441406 M 20.382812 22.558594 L 20.382812 22.480469 L 20 21.960938 L 19.691406 22.109375 L 19.617188 22.109375 L 16.382812 21.886719 L 16.539062 22.035156 L 16.539062 23.078125 L 15.769531 23.152344 C 15.152344 23.152344 14.847656 22.855469 14.847656 22.257812 L 14.921875 21.886719 L 12.230469 21.960938 L 11.921875 21.8125 L 11.539062 22.035156 L 10.539062 22.109375 L 10.078125 22.40625 L 8.769531 23.226562 C 8.257812 23.226562 8.078125 23.054688 8.230469 22.707031 C 8.230469 21.8125 8.921875 21.164062 10.308594 20.765625 C 11.4375 20.171875 12.667969 19.871094 14 19.871094 L 15.921875 20.320312 C 19.871094 20.371094 21.640625 20.816406 21.230469 21.664062 L 21.691406 21.363281 L 21.769531 21.4375 L 21.769531 21.363281 L 22.382812 21.511719 L 22.460938 21.960938 C 22.460938 22.707031 22.050781 23.078125 21.230469 23.078125 L 20.382812 22.558594 M 12.308594 23.527344 L 12.382812 23.601562 L 12.691406 23.453125 L 12.691406 23.375 L 15.617188 23.300781 L 18.921875 23.527344 L 19 23.675781 L 18.921875 24.046875 L 12.617188 24.046875 L 12.230469 23.527344 L 12.308594 23.527344 "/>
<path style=" stroke:none;fill-rule:evenodd;fill:rgb(100%,100%,100%);fill-opacity:1;" d="M 39.539062 21.960938 L 40.308594 21.585938 L 42.078125 21.289062 L 42.230469 21.289062 L 44.308594 21.140625 L 44.078125 21.738281 L 44.078125 22.40625 C 44.179688 22.804688 44.488281 23.003906 45 23.003906 C 45.820312 23.003906 46.230469 22.707031 46.230469 22.109375 L 46.078125 21.511719 L 46.078125 21.4375 L 48.382812 21.511719 L 48.847656 21.585938 L 49.230469 21.363281 L 49.617188 21.8125 L 49.617188 22.035156 C 49.617188 22.929688 49.308594 23.402344 48.691406 23.453125 L 48.539062 23.453125 L 48.230469 23.375 L 44.617188 23.152344 L 41.152344 23.226562 L 40.847656 23.453125 L 40.539062 23.453125 L 39.769531 22.632812 L 39.539062 21.960938 M 11.539062 22.035156 L 11.921875 21.8125 L 12.230469 21.960938 L 14.921875 21.886719 L 14.847656 22.257812 C 14.847656 22.855469 15.152344 23.152344 15.769531 23.152344 L 16.539062 23.078125 L 16.539062 22.035156 L 16.382812 21.886719 L 19.617188 22.109375 L 19.691406 22.109375 L 20 21.960938 L 20.382812 22.480469 L 20.382812 22.558594 L 19.230469 23.75 L 18.921875 23.527344 L 15.617188 23.300781 L 12.691406 23.375 L 12.691406 23.453125 L 12.382812 23.601562 L 12.308594 23.527344 L 11.460938 22.332031 L 11.539062 22.035156 "/>
</g>
</svg>
