<svg xmlns="http://www.w3.org/2000/svg" viewBox="0 0 512 512" style="height: 64px; width: 64px;"><defs><radialGradient id="delapouite-shopping-cart-gradient-2"><stop offset="0%" stop-color="#9b9b9b" stop-opacity="1"></stop><stop offset="100%" stop-color="#4a4a4a" stop-opacity="1"></stop></radialGradient><radialGradient id="delapouite-shopping-cart-gradient-3"><stop offset="0%" stop-color="#ffffff" stop-opacity="1"></stop><stop offset="100%" stop-color="#c9c9c9" stop-opacity="1"></stop></radialGradient><radialGradient id="delapouite-shopping-cart-gradient-4"><stop offset="0%" stop-color="#fff" stop-opacity="1"></stop><stop offset="100%" stop-color="#c9c9c9" stop-opacity="1"></stop></radialGradient><radialGradient id="delapouite-shopping-cart-gradient-5"><stop offset="0%" stop-color="#fff" stop-opacity="1"></stop><stop offset="100%" stop-color="#c9c9c9" stop-opacity="1"></stop></radialGradient><radialGradient id="delapouite-shopping-cart-gradient-6"><stop offset="0%" stop-color="#fff" stop-opacity="1"></stop><stop offset="100%" stop-color="#c9c9c9" stop-opacity="1"></stop></radialGradient><radialGradient id="delapouite-shopping-cart-gradient-7"><stop offset="0%" stop-color="#fff" stop-opacity="1"></stop><stop offset="100%" stop-color="#c9c9c9" stop-opacity="1"></stop></radialGradient><radialGradient id="delapouite-shopping-cart-gradient-8"><stop offset="0%" stop-color="#fff" stop-opacity="1"></stop><stop offset="100%" stop-color="#c9c9c9" stop-opacity="1"></stop></radialGradient><radialGradient id="delapouite-shopping-cart-gradient-9"><stop offset="0%" stop-color="#fff" stop-opacity="1"></stop><stop offset="100%" stop-color="#c9c9c9" stop-opacity="1"></stop></radialGradient><radialGradient id="delapouite-shopping-cart-gradient-10"><stop offset="0%" stop-color="#fff" stop-opacity="1"></stop><stop offset="100%" stop-color="#c9c9c9" stop-opacity="1"></stop></radialGradient><radialGradient id="delapouite-shopping-cart-gradient-11"><stop offset="0%" stop-color="#fff" stop-opacity="1"></stop><stop offset="100%" stop-color="#c9c9c9" stop-opacity="1"></stop></radialGradient><radialGradient id="delapouite-shopping-cart-gradient-12"><stop offset="0%" stop-color="#fff" stop-opacity="1"></stop><stop offset="100%" stop-color="#c9c9c9" stop-opacity="1"></stop></radialGradient><radialGradient id="delapouite-shopping-cart-gradient-13"><stop offset="0%" stop-color="#fff" stop-opacity="1"></stop><stop offset="100%" stop-color="#c9c9c9" stop-opacity="1"></stop></radialGradient></defs><g class="" transform="translate(0,0)" style=""><g><path d="M25.45 63.043L21.086 80.506L29.816 82.686L90.44 97.846L119.842 141.946L182.282 329.266L145.437 402.959L163.264 402.959C161.178 407.197 160 411.949 160 416.959C160 434.526 174.433 448.959 192 448.959C209.567 448.959 224 434.526 224 416.959C224 411.949 222.822 407.197 220.736 402.959L323.264 402.959C321.178 407.197 320 411.949 320 416.959C320 434.526 334.433 448.959 352 448.959C369.567 448.959 384 434.526 384 416.959C384 411.949 382.822 407.197 380.736 402.959L393 402.959L393 384.959L174.562 384.959L197.562 338.959L390.486 338.959L460.486 128.959L132.816 128.959L101.56 82.07L34.183 65.227L25.45 63.043Z" class="" fill="url(#delapouite-shopping-cart-gradient-2)" stroke="#4a4a4a" stroke-opacity="1" stroke-width="4"></path><path d="M140.488 146.957L231 146.957L231 192.957L155.822 192.957L140.488 146.957Z" class="" fill="url(#delapouite-shopping-cart-gradient-3)" stroke="#4a4a4a" stroke-opacity="1" stroke-width="4"></path><path d="M249 146.957L327 146.957L327 192.957L249 192.957L249 146.957Z" class="" fill="url(#delapouite-shopping-cart-gradient-4)" stroke="#4a4a4a" stroke-opacity="1" stroke-width="4"></path><path d="M345 146.957L435.512 146.957L420.178 192.957L345 192.957L345 146.957Z" class="" fill="url(#delapouite-shopping-cart-gradient-5)" stroke="#4a4a4a" stroke-opacity="1" stroke-width="4"></path><path d="M161.82 210.957L231 210.957L231 256.957L177.154 256.957L161.82 210.957Z" class="" fill="url(#delapouite-shopping-cart-gradient-6)" stroke="#4a4a4a" stroke-opacity="1" stroke-width="4"></path><path d="M249 210.957L327 210.957L327 256.957L249 256.957L249 210.957Z" class="" fill="url(#delapouite-shopping-cart-gradient-7)" stroke="#4a4a4a" stroke-opacity="1" stroke-width="4"></path><path d="M345 210.957L414.18 210.957L398.846 256.957L345 256.957L345 210.957Z" class="" fill="url(#delapouite-shopping-cart-gradient-8)" stroke="#4a4a4a" stroke-opacity="1" stroke-width="4"></path><path d="M183.154 274.957L231 274.957L231 320.957L198.486 320.957L183.154 274.957Z" class="" fill="url(#delapouite-shopping-cart-gradient-9)" stroke="#4a4a4a" stroke-opacity="1" stroke-width="4"></path><path d="M249 274.957L327 274.957L327 320.957L249 320.957L249 274.957Z" class="" fill="url(#delapouite-shopping-cart-gradient-10)" stroke="#4a4a4a" stroke-opacity="1" stroke-width="4"></path><path d="M345 274.957L392.846 274.957L377.514 320.957L345 320.957L345 274.957Z" class="" fill="url(#delapouite-shopping-cart-gradient-11)" stroke="#4a4a4a" stroke-opacity="1" stroke-width="4"></path><path d="M192 402.957C199.84 402.957 206 409.117 206 416.957C206 424.797 199.84 430.957 192 430.957C184.16 430.957 178 424.797 178 416.957C178 409.117 184.16 402.957 192 402.957Z" class="selected" fill="url(#delapouite-shopping-cart-gradient-12)" stroke="#4a4a4a" stroke-opacity="1" stroke-width="4"></path><path d="M352 402.957C359.84 402.957 366 409.117 366 416.957C366 424.797 359.84 430.957 352 430.957C344.16 430.957 338 424.797 338 416.957C338 409.117 344.16 402.957 352 402.957Z" class="" fill="url(#delapouite-shopping-cart-gradient-13)" stroke="#4a4a4a" stroke-opacity="1" stroke-width="4"></path></g></g><g class="" transform="translate(326,245)" style=""><g transform="translate(9.6, 9.6) scale(0.7, 0.7) rotate(0, 128, 128)"><circle cx="128" cy="128" r="128" fill="#ffffff" fill-opacity="1"></circle><circle stroke="#417505" stroke-opacity="1" fill="#ffffff" fill-opacity="1" stroke-width="18" cx="128" cy="128" r="101"></circle><path fill="#417505" fill-opacity="1" d="M119 64v55H64v18h55v55h18v-55h55v-18h-55V64h-18z"></path></g></g></svg>