<svg xmlns="http://www.w3.org/2000/svg" viewBox="0 0 512 512" style="height: 64px; width: 64px;"><defs><radialGradient id="lorc-comet-spark-gradient-2"><stop offset="0%" stop-color="#90c1f8" stop-opacity="1"></stop><stop offset="100%" stop-color="#4a90e2" stop-opacity="1"></stop></radialGradient></defs><g class="" transform="translate(0,0)" style=""><g transform="translate(0, 0) scale(1, 1) rotate(-90, 256, 256) skewX(0) skewY(0)"><path d="M20.916 15.648C168.861 217.648 223.472 328.293 17.77 268.086C219.53 351.012 243.285 444.596 66.9 448.846C257.822 500.002 381.957 509.104 444.06 459.276C511.82 404.908 506.66 281.628 457.37 97.676C457.368 277.619 369.03 247.611 286.19 57.716C346.436 249.106 204.782 174.069 20.916 15.648Z" class="" fill="url(#lorc-comet-spark-gradient-2)" stroke="#4a4a4a" stroke-opacity="1" stroke-width="4"></path><path d="M457.37 97.676L457.37 97.668L457.37 97.676Z" class="" fill="#4a90e2" fill-opacity="1" stroke="#4a4a4a" stroke-opacity="1" stroke-width="4"></path><path d="M377.578 248.516C383.035 248.57 388.572 249.306 394.086 250.783C397.849 251.793 401.438 253.123 404.856 254.707C404.803 254.649 404.754 254.587 404.701 254.529C455.949 275.609 484.687 331.793 469.954 386.779C453.946 446.521 392.78 481.833 333.04 465.825C273.75 449.939 238.533 389.585 253.645 330.278C254.789 338.121 257.355 345.743 261.453 352.842C276.491 378.887 307.933 390.587 340.188 385.176C348.575 384.794 357.518 382.244 365.938 377.383C388.118 364.576 398.255 340.609 388.58 323.853C378.904 307.093 353.08 303.887 330.898 316.693C323.598 320.907 317.615 326.333 313.201 332.311C310.151 321.311 309.891 309.383 313.061 297.561C321.039 267.783 348.114 248.221 377.579 248.514Z" class="selected" fill="#ffffff" fill-opacity="1" stroke="#4a4a4a" stroke-opacity="1" stroke-width="4"></path></g></g></svg>