<svg xmlns="http://www.w3.org/2000/svg" viewBox="0 0 512 512" style="height: 64px; width: 64px;"><defs><radialGradient id="delapouite-dice-target-gradient-2"><stop offset="0%" stop-color="#d0021b" stop-opacity="1"></stop><stop offset="100%" stop-color="#ff001f" stop-opacity="1"></stop></radialGradient><radialGradient id="delapouite-dice-target-gradient-4"><stop offset="0%" stop-color="#d0021b" stop-opacity="1"></stop><stop offset="100%" stop-color="#ff001f" stop-opacity="1"></stop></radialGradient><radialGradient id="delapouite-dice-target-gradient-8"><stop offset="0%" stop-color="#d0021b" stop-opacity="1"></stop><stop offset="100%" stop-color="#ff001f" stop-opacity="1"></stop></radialGradient><radialGradient id="delapouite-dice-target-gradient-9"><stop offset="0%" stop-color="#d0021b" stop-opacity="1"></stop><stop offset="100%" stop-color="#ff001f" stop-opacity="1"></stop></radialGradient></defs><g class="" transform="translate(0,0)" style=""><g><path d="M247 16L247 39.2C134.4 43.81 43.81 134.4 39.2 247L16 247L16 265L39.2 265C43.81 377.6 134.4 468.2 247 472.8L247 496L265 496L265 472.8C377.6 468.2 468.2 377.6 472.8 265L496 265L496 247L472.8 247C468.2 134.4 377.6 43.81 265 39.2L265 16L247 16Z" class="" fill="url(#delapouite-dice-target-gradient-2)" stroke="#4a4a4a" stroke-opacity="1" stroke-width="8"></path><path d="M247 57.21L247 80L265 80L265 57.21C367.8 61.78 450.2 144.2 454.8 247L432 247L432 265L454.8 265C450.2 367.8 367.8 450.2 265 454.8L265 432L247 432L247 454.8C144.2 450.2 61.78 367.8 57.21 265L80 265L80 247L57.21 247C61.78 144.2 144.2 61.78 247 57.21Z" class="" fill="#fff" fill-opacity="1" stroke="#4a4a4a" stroke-opacity="1" stroke-width="8"></path><path d="M255.9 95.33C250.9 95.33 246.4 96.43 243 98.23L126.8 165.3C119.5 169.4 119.5 176.2 126.8 180.5L243 247.4C250.2 251.7 261.5 251.7 268.7 247.4L384.6 180.5C392 176.2 392 169.4 384.6 165.3L268.7 98.23C265.3 96.43 260.4 95.33 255.9 95.33Z" class="" fill="url(#delapouite-dice-target-gradient-4)" stroke="#4a4a4a" stroke-opacity="1" stroke-width="8"></path><path d="M166.9 157.9C172.9 158 178.6 159.5 182.9 162C190.9 167.7 190.2 176.1 181.4 181.4C172.4 186.6 158.3 187 148.7 182.2C133.8 172.9 145.3 157.5 166.9 157.9Z" class="" fill="#fff" fill-opacity="1" stroke="#4a4a4a" stroke-opacity="1" stroke-width="8"></path><path d="M345.5 158L347.5 158C353.5 158.2 359.2 159.8 363.4 162.2C371.7 167.9 371.1 176.5 362.2 181.8C353.1 187.1 338.8 187.4 329.2 182.5C314.2 173.5 324.7 158.4 345.5 158Z" class="" fill="#fff" fill-opacity="1" stroke="#4a4a4a" stroke-opacity="1" stroke-width="8"></path><path d="M256.5 158C277.9 158.2 288.3 173.5 273.3 182.5C264 188.7 248.1 188.9 238.2 183.1C228.4 177.3 228.6 167.8 238.8 162.2C243.5 159.5 249.9 157.9 256.5 158Z" class="" fill="#fff" fill-opacity="1" stroke="#4a4a4a" stroke-opacity="1" stroke-width="8"></path><path d="M115.5 199C111 199 108 202 108 208.2L108 327.9C108 336.3 113.8 346.2 121.2 350.5L232.6 414.9C239.8 419 245.5 415.6 245.5 407.3L245.5 287.6C245.5 279.3 239.8 269.2 232.6 265.1L121.1 200.6C118.9 199.5 117 199.1 115.5 199Z" class="" fill="url(#delapouite-dice-target-gradient-8)" stroke="#4a4a4a" stroke-opacity="1" stroke-width="8"></path><path d="M396.8 199C395.2 199.1 393.1 199.5 391 200.6L279.5 265.1C272.3 269.2 266.6 279.3 266.6 287.6L266.6 407.3C266.6 415.6 272.3 419 279.5 414.9L391 350.5C398 346.2 404 336.3 404 327.9L404 208.2C404 202 401 199 396.8 199Z" class="selected" fill="url(#delapouite-dice-target-gradient-9)" stroke="#4a4a4a" stroke-opacity="1" stroke-width="8"></path><path d="M211.8 264.5C223 264.9 236.5 281.8 236.3 296C236.7 307 228.9 311.5 219.1 305.9C209.4 300.2 201.6 286.5 202.2 276.1C202.2 269.3 205.4 264.9 210.7 264.5L211.8 264.5Z" class="" fill="#fff" fill-opacity="1" stroke="#4a4a4a" stroke-opacity="1" stroke-width="8"></path><path d="M342.7 286.3L343.8 286.3C349 286.7 352.3 291.1 352.3 297.8C352.2 308.3 344.6 321.1 335.2 326.6C325.7 332.1 318.1 328.1 318 317.7C317.9 303.5 331.5 286.4 342.7 286.3Z" class="" fill="#fff" fill-opacity="1" stroke="#4a4a4a" stroke-opacity="1" stroke-width="8"></path><path d="M125.8 308.8C137.2 308.3 151.3 325.6 151.3 340.1C151.7 351.2 143.9 355.7 134.1 350.2C124.4 344.5 116.6 330.9 117.1 320.4C117.1 313.5 120.4 309.1 125.8 308.8Z" class="" fill="#fff" fill-opacity="1" stroke="#4a4a4a" stroke-opacity="1" stroke-width="8"></path></g></g></svg>