<?xml version="1.0" encoding="UTF-8" standalone="no"?>
<svg xmlns:rdf="http://www.w3.org/1999/02/22-rdf-syntax-ns#" xmlns="http://www.w3.org/2000/svg" height="750" width="1e3" version="1.1" xmlns:cc="http://creativecommons.org/ns#" xmlns:dc="http://purl.org/dc/elements/1.1/" viewBox="0 0 1000 750">
 <g transform="translate(18.431,453.36)">
  <path fill="#4e3213" d="m510.8-93.23c2 21.38 7.8 46.46 1 60.84-6.8 14.48-6.8 20.12-16.5 26.53 1.9 2.82-7.8 5.45-6.8 9.53 0 5.44-9.8 3.69-9.8 7.38-0.9 5.74-9.7 0-10.6 2.92-2 3.3-8.8-5.54-6.8-16.72-2-24.78-14.6 21.87-6.8 29.16 5.8 26.82 42.7 32.17 45.6 55.59-7.7 22.36-14.5 45-19.4 68.33-12.6 20.5-3.9 46.06-8.8 64.04-13.6 0.98-36.9 1.46-24.3-19.43 2-16.92 13.7-47.92 11.7-61.53-8.7 20.03-28.2 49.09-27.2 70.76-14.6-2.92-41.8 1.07-23.3-22.06 16.5-30.13 35-61.23 25.2-86.4-11.6-25.47-28.1-55.69-53.4-67.65-11.7-8.84-17.5-13.12-20.4-25.75-23.1 14.77-55.4 11.95-77.1 16.23-17.4 2.23-41.9-12.54-58.4-2.24 4.4 19.34 8.8 44.81 13.8 64.44 3.7 28.86-2 57.53 9.5 85.52 6.1 12.54 20 31.49-2 22.75-4.7-1.27-11.1-1.75-14.8-3.02-11-3.88-1.9-41.88-16.2-56.46-15.1-15.55-11.1-45.68-15.1-68.91-4-10.11-15.4-43.64-15.4-13.51 2.5 28.38-7.6 55.2-20.5 79.89-11.2 24.2 4.1 58.22-6.9 77.56-11 1.36-20.3-1.17-26.8-2.24-4.7-0.97 0-14.28 7.1-21.77 1.6-11.86-2.3-17.69-1.5-26.43 1.4-16.53 5.3-33.15 1.8-49.67 5.4-25.75 12.3-68.81 5-96.12-6.9-6.7-35.7-25.36-41.3-51.41-5.4-12.73-6.7-21.96-13.4-34.11-18-23.62-15.3-28.48-13.7-75.52 1-5.34-4.2-21.58-1.8-26.24-14.4 10.11-29.6-11.27-25.1-15.84 4.1-4.18 0 0 4.7-10.01 1.8-3.99-2-12.25-1.2-15.07-3.3-6.9-3-13.12-3.2-18.37 2.7 6.61 7.9-1.84 5.7-6.7 0-1.17-1.1-1.36-2-1.27-1 0-1.8 0.98-2.8 0.98 0-2.04-1-4.86 0-6.32-26.7-6.03-40.6-32.46-40.2-58.8 1-7.39 3.5996-10.2 7.8996-10.2 11.1 0 30.5 18.27 35.6 25.85 4.1 9.04 10.7 16.23 14.2 22.74 6.5 3.79 12.3 1.46 23.5 1.75 11.1 0 16.1 3.6 19.5 0.97 5.1-4.37 3.8-13.99 8.6-21.77 8.7-14.09 27.2-21.67 33.3-20.12 7.2 2.04 6.5 19.34 1.8 35.09-3.1 12.44-11.2 24.1-26.9 26.82 1.4 6.71-5.7 14.68-9.8 19.63-1.7 2.14 0 9.63 1 13.03 2.1 26.63 5.8 57.73 34 68.03 22.8 13.51 31.5 4.76 65.4 15.06 26-2.13 57.6 1.95 86.2-0.97l8.8-1.07c23.8-3.88 46.1-14.38 71-15.06 27.2-0.97 54.5 1.94 79.7 10.4 35 12.63 46.7 20.99 49.6 46.84zm-402.4-144.81c-3.1-2.33-6.3-3.4-9.5-3.21-4 0-7.9 2.53-10.8 6.61 2.2 0 4.1 3.79 7.2 3.98 6.2 0.98 9.1-6.41 13.1-7.38z"/>
  <path d="m154.91-43.66c11.95 6.31-6.22 13.99-3.01 1.65 0.97-0.97 1.84-1.65 3.01-1.65zm162.4-9.14c6.42-0.97 17.59 3.4 17.2 8.16-5.54 11.38-10.49-4.85-19.24 0-9.33 0.98-5.25-2.23-1.36-6.8 0.97-0.97 2.04-1.07 3.5-1.16zm-172.9-6.02c2.43 0 4.57 2.33 4.76 4.85 1.95 14.19-16.61 1.27-6.51-4.27 0.97 0 1.17-0.97 1.75-0.97zm140.73-2.73c8.07 0 20.99 17.69 10.69 19.54-10.49 3.4-24.2-18.18-10.69-19.54zm-35.37-7.09c1.16-0.97 2.81-0.97 4.66-0.97 2.92 0 6.03 1.26 6.61 3.5 1.46 10.69-8.85 2.23-12.44 7.48-2.53 10.11-12.83-0.97-6.42-5.83 4.57 5.34 7.49-4.57 7.59-4.57zv0m-119.35-9.53c5.05 0 10.88 14.97 3.01 10.7-11.27 0.97 1.07 22.06-10.98 17-4.67-8.06-2.14-25.56 7.48-27.6h0.97zm217.31-4.85c7.78-0.98 3.21 16.42 1.75 21.28-8.65 5.64-6.51-14.97-4.57-20.51 1.17-0.97 2.14-0.97 2.92-0.97zm-107.2-7.88c7.78 4.38 1.75 23.43-4.18 10.6-1.07-3.89 0-8.85 4.18-10.6zm-26.72-4.08c6.99 0.97 1.16 30.03-5.16 21.77-5.63-5.44-4.95-17.4 2.63-20.99 0.97-0.97 1.75-0.97 2.53-0.97zm54.13-0.58c0.97 0 1.85 0 2.82 0.97 12.73 10.98-13.9 17.2-10.6 2.82 2.05-1.75 4.86-3.6 7.78-3.6zm137.91-12.05c1.94 0 3.89 1.94 5.83 2.91 4.86 11.76-15.55 6.9-7.77-2.52h1.94zm-72.11-2.73h-1.85 1.07 0.97zc3.3 0 6.8 0 8.94 3.31 8.55 11.66-16.23 24.1-14.87 7.48-2.24-3.98 7.29-9.72 6.02-10.79zm-33.05-0.48c4.08 0 4.18 9.62 1.17 14.97-6.8 14.57-16.72 8.45-11.28-2.63 1.75-2.72 2.92-5.83 4.57-8.65 2.33-2.72 4.18-3.79 5.54-3.69zm-119.15-0.58c6.22-0.98 3.89 21.86-1.95 20.02-7.96-7.97 1.85-10.01 0.98-19.64 0.97 0 0.97-0.97 1.36-0.97zm58.6-0.49c1.56 0 2.92 2.04 2.82 4.28 2.14 12.63-12.73 6.41-5.64-2.24 0.98-1.55 1.85-2.14 2.82-2.04zm17.79-0.49c1.85 0 3.01 3.6 2.91 5.54 0.98 11.47-8.06 2.34-5.05-4.18 0.97-0.97 1.46-1.36 2.14-1.36zm11.08 0.2c0.97-0.97 1.36-0.97 2.04-0.97 2.53 0 4.18 3.4 2.92 6.31-7.59 7.49-3.31-6.02-4.96-5.63zs-0.97 0-0.97 0.97c0 0 0.97 0 0.97-0.97zm-142.29-1.17c1.27 0 2.92 1.46 4.28 0.97-3.4 7.97-2.62 19.64-8.94 25.47-11.96-3.7 2.43-17.01 3.3-24.98 0-0.97 0.98-1.17 1.36-1.17zm95.15-0.87c9.92 0-4.95 13.99-3.11 2.14 0-1.66 2.43-1.95 3.11-2.24zm67.16-3.99c9.33 0-9.43 16.82-3.4 1.85l1.16-1.65h2.24zm-88.15-0.48c11.56 0-1.56 18.27-3.79 3.88 0.97-1.36 1.26-2.91 2.62-3.79h1.17zm164.15-2.63c8.75 2.24 5.83 21.19 2.92 28.58-12.35-0.98-3.89-19.25-3.89-27.51l0.97-1.07zm58.31-4.95c2.92 0.97 4.86 1.26 6.81 3.2 6.8 13.42-15.55 4.09-6.81-3.2zm-251.23-0.49c6.9 5.25 5.35 26.44-3.69 27.12-2.33-7-3.89-23.23 3.69-27.12zm61.23-3.11c6.9 0-5.15 11.95-4.18 0.97 1.85-0.97 3.21-0.97 4.18-0.97zm24.98-0.68h2.33c11.18 2.43-2.23 8.65-5.44 1.65 0.97-1.36 1.84-2.04 3.11-2.14zm145.59-5.44c2.91 0 6.8 1.16 8.74 3.98 6.81 16.62-21.38 4.76-8.74-3.98zm-242.88-0.2c3.89 0 3.11 7.39 3.11 9.92-3.98 11.27-7.68-5.25-3.98-9.72h0.97zm141.02 8.39c0-2.14 1.85-4.57 4.08-4.57h1.07c1.75 1.07 2.82 2.14 3.5 3.21 3.89 7.09-13.9 14.38-8.74 2.04v-0.98zm30.03-11.79c1.85 0 3.79 5.35 4.57 6.42 0 10.3-13.9 1.55-5.83-5.06 0-0.97 0.97-1.26 1.26-1.36zm23.23-1.85c2.82 0 4.86 2.82 4.86 5.25 0 12.64-16.42 0-4.95-5.25zm19.44-0.1h0.97c4.86 0 4.86 2.82 2.92 7.19-6.81 4.37-1.95-6.22-3.89-7.1zh-0.97 0.97zm15.55-1.17c4.86 0-1.94 10.98-2.92 0.97 0.98 0 1.95-0.97 2.92-0.97z" stroke="#1b171b" stroke-width="2.4297" fill="#cccdce"/>
  <g fill="#1b171b">
   <path d="m98.539-241.15c3.211 0 6.411 0.97 9.431 3.21-3.99 0.97-6.9 7.87-13.027 7.38-3.11 0-5.054-3.5-7.192-3.98 2.819-4.18 6.706-6.51 10.788-6.71z"/>
   <path d="m53.055-244.65c2.138 4.86-2.916 13.41-5.735 6.8v-4.56c0.972 0 0.972-0.98 0.972-1.95 0.972 0 1.944-0.97 2.819-0.97 0.972 0 1.555 0 2.041 1.26z"/>
   <path d="m48.195-245.04c0 1.07 0 1.85-0.972 1.94v-1.84h1.458z"/>
   <path d="m47.223-238.53z"/>
  </g>
  <path fill="#4e3213" d="m47.223-243.1v4.57c-2.624-3.2-5.345-5.15 0-4.57z"/>
  <g stroke="#1b171b" stroke-width="2.4297" fill="none">
   <path d="m47.2-238.24c0 5.25 0 11.47 3.2 18.37-0.9 2.82 3 11.08 1.2 15.16-4.5 9.72-1 5.84-4.7 9.92-4.5 4.66 10.7 25.95 25 15.84-2.3 4.66 2.8 20.9 2 26.24-1.7 47.04-4.4 51.9 13.6 75.52 6.7 12.15 7.9 21.38 13.4 34.11 5.6 26.05 34.4 44.8 41.3 51.51 7.3 27.21 0 70.27-5 96.02 3.5 16.62 0 33.14-1.8 49.76-1 8.65 3.1 14.48 1.4 26.34-6.5 7.49-11.7 20.99-7.1 21.77 6.7 1.17 15.9 3.6 27 2.24 10.9-19.25-4.4-53.36 6.9-77.56 12.8-24.69 22.8-51.41 20.4-79.79 0-30.13 11.3 3.4 15.4 13.41 4 23.23 0 53.45 15.1 68.91 14.3 14.67 5.2 52.67 16.2 56.46 3.6 1.27 10.1 1.85 14.8 3.02 22 8.74 8.2-10.11 2-22.75-11.5-27.99-5.8-56.66-9.5-85.52-4.9-19.54-9.4-45.1-13.8-64.44 16.4-10.3 41 4.47 58.3 2.24 21.7-4.28 54.2-1.46 76.7-16.23 2.9 12.63 8.8 16.91 21.4 25.75 24.3 11.96 41.8 42.18 52.5 67.74 9.7 25.17-8.8 56.18-25.3 86.31-18.5 23.13 9.7 19.24 24.3 22.06-1.9-21.67 18.5-50.73 27.2-70.76 2 13.61-10.7 44.61-11.7 61.62-13.6 20.8 9.8 19.93 24.3 19.44 4.9-18.08-3.8-43.64 7.8-64.14 4.9-23.33 11.7-45.88 19.5-68.33-2-23.32-39.9-28.77-44.7-55.59-8.8-7.19 4.8-53.94 6.8-29.16-2 11.18 3.8 20.12 5.8 16.72 1.9-2.82 10.7 2.82 10.7-2.82 0.9-3.79 9.7-2.04 9.7-7.48 0-4.08 9.7-6.71 6.8-9.53 9.7-6.31 9.7-12.05 16.5-26.43 6.8-14.39 1-39.56-1-60.94-1.9-25.85-13.6-34.21-47.6-46.75-26.2-8.45-52.5-11.17-80.6-10.4-24.8 0.97-47.1 11.18-71 15.07"/>
   <path d="m47.223-243.1c-4.956-0.97-2.235 1.37 0 4.57"/>
   <path d="m311.53-135.45c-0.7 0.1-9.69 1.34-10.39 1.4-28.28 2.34-59.97-1.49-85.34 0.78-34-10.3-42.6-1.46-65.5-14.97-28-10.4-31.7-41.5-33.9-68.13-0.9-3.4-2.5-10.88-0.9-13.02 4-4.96 11.1-12.93 9.6-19.63 15.7-2.73 23.8-14.39 27-26.73 4.8-15.75 5.3-33.14-1.9-35.09-6-1.65-24.4 5.93-33.2 20.02-4.8 7.78-3.6 17.5-8.5 21.78-3.4 2.91-8.5 0-19.7-0.98-11.1 0-16.9 2.04-23.4-1.75-3.6-6.51-10.1-13.7-14.3-22.74-5-7.58-24.4-25.85-35.5-25.85-4.3 0-7.3001 2.82-7.8001 10.2 0 26.34 13.4 52.88 40 58.8-1 1.46 0 4.38 0 6.32"/>
   <path d="m48.195-245.04c0.972 0 1.944-0.97 2.819-0.97 0.972 0 1.555 0 2.041 1.26 2.138 4.86-2.916 13.41-5.735 6.81v-4.57-1.85h1.458z"/>
   <path d="m98.539-241.15c3.211 0 6.411 0.97 9.431 3.21-3.99 0.97-6.9 7.87-13.027 7.38-3.11 0-5.054-3.5-7.192-3.98 2.819-4.18 6.706-6.51 10.788-6.71z"/>
   <path d="m457.36-9.26s59.29-61.32 52.48-83.87"/>
   <path d="m72.007-178.95s46.063-35.47 43.733-50.73"/>
  </g>
  <polygon points="1005.6 545.68 1003.6 543.66 1002.8 542.54 1001.6 540.07 1009.7 547.92 1009.3 547.56 1008.5 547.24 1007.6 547.34 1006.6 546.66" fill="#4e3213" transform="matrix(9.7189,0,0,9.7189,-9359.7,-5332.3)"/>
  <g fill="#3d2f13">
   <polygon points="1004.9 553.88 1004.8 553.81 1004.8 553.78" transform="matrix(9.7189,0,0,9.7189,-9359.7,-5332.3)"/>
   <polygon points="1003.5 551.36 1004.8 552.22 1004.8 553.78 1004.8 553.81" transform="matrix(9.7189,0,0,9.7189,-9359.7,-5332.3)"/>
   <polygon points="1003.5 551.36 1003.1 551.06 1001.8 549 1001.5 547.53" transform="matrix(9.7189,0,0,9.7189,-9359.7,-5332.3)"/>
   <polygon points="1001.8 549 1001.2 547.38 1000.8 546.34 1001.5 547.53" transform="matrix(9.7189,0,0,9.7189,-9359.7,-5332.3)"/>
   <polygon points="1001.3 546.83 1001.5 547.53 1000.8 546.34 1000.6 545.77 1000.2 545.13 1000.2 545.13" transform="matrix(9.7189,0,0,9.7189,-9359.7,-5332.3)"/>
   <polygon points="1000.6 545.77 1000.8 546.34 1000.2 545.13" transform="matrix(9.7189,0,0,9.7189,-9359.7,-5332.3)"/>
  </g>
  <path d="m1004.9 553.56-0.1-0.13v-1.21l-1.3-0.86-0.4-0.3-1.3-2.06-0.3-1.47-0.2-0.7-1.1-1.7" transform="matrix(9.7189,0,0,9.7189,-9359.7,-5332.3)" stroke="#000" stroke-width=".25" fill="none"/>
  <polyline transform="matrix(9.7189,0,0,9.7189,-9359.7,-5332.3)" stroke="#000" points="1001.6 540.07 1002.8 542.54 1003.6 543.66 1005.6 545.68 1006.6 546.66 1007.6 547.34 1008.5 547.24 1009.3 547.56 1009.7 547.92" stroke-width=".25" fill="none"/>
  <g transform="translate(-1e3)">
   <path fill="#684129" d="m1920-439.13-7.8 1.75 1 12.25-1 17.4-4.9 13.12-7.7 18.27-7.8 13.99-11.7 10.4-12.6 7-11.7 14-12.6 13.02 11.7-14.77 11.6-15.75 11.7-19.14 4.8-20.03-0.9-18.36-2.9-12.15-5.9-7v3.5l3.9 11.27-2.9 18.37-2.9 15.65-5.9 9.62-3.8 7.87 1.9-18.37-5.8-18.27-3.9-4.37-5.8-4.37v2.62l4.8 7v11.37l2.9 13.9-4.8 10.49-2.9 8.65-6.8 1.75-12.7-2.62-14.6-4.28v2.63l19.5 6.02 10.7 7 4.8 1.75-7.7 10.49-14.6 12.15-9.7 11.37-9.8 9.63-2.9 1.75-16.5-3.5-7.8-6.13-6.8-5.24 1-12.15-7.8-13.12-5.8-7.88-3.9-10.39v-11.38l1-6.99 3.9-15.65 2.9-11.37-5.9-0.97-4.8 11.37-3.9 15.64-1 21.77 2.9 13.13 2 6.99 3.9 7.88-2.9 4.27-18.5-2.62-26.3-10.4-13.6-9.62-12.6-13.03-9.7-7.87 11.7-18.37 10.6-15.65 5.9-14.87-2-8.65-3.9-1.74-0.9 7.87-2 6.9-14.6 23.62-8.7 16.52-11.7-7.88-7.7-7.77-12.7-13.12-1.9-9.62v-13.03-16.61l-4.9-0.98-2.9 7v13.12l1 19.15 11.6 17.2 17.5 18.56 9.8 10.5 0.9 1.55 10.7 12.35 3.9 6.31 19.4 14.58 11.7 7 3.9 7 1.9-8.75 2-4.28h1.9 13.6l6.8 3.89h1l8.8 5.25 1.9 1.75 9.7 9.62 23 0.88-23-0.88 28.2 9.23h35l5.8-6.6 1-6.13 3.9-11.37 6.8-4.37 7.7-5.15 4.9-4.57 8.8-7.68 9.7-7.87 15.5-14.77 18.5-12.25 11.7-20.02 18.4-20.02 11.3-12.64h-13.2l-6.8 10.5-5.9 10.5-7.7 6.12-2.6 2.08 4.5-12.58-1.9-27.89zm33.6 23.52h2.3l-1.9-0.48zm-276.6 58.8 36 42.77-6.8-3.5-5.9-5.25-11.6-15.65z"/>
   <path d="m1898.6-317.54 1 14.77-5.9 19.24-9.7 15.65-13.6 8.75-11.6 3.5-3.9 4.37-2 6.12 4.9 6.03 10.7 12.25 6.8 6.99 1 9.53-1 3.01v-1.65l-1-10.5-5.8-4.37-2-2.14-0.9 6.51-4.9 0.97h-4.9l-3.8 0.98v3.49l-3 3.5-3.9 1.27-3.8 1.75v4.37l2.9 3.89 3.9 3.11 1.9 2.62h1l-6.8 5.25-1-0.97-71.9-49.76 12.6 18.37 10.7 12.14 5.8 8.75 3 3.5 4.8 4.37-7.8 2.63-5.8 1.75-5.8 5.15-1 6.12 4.9 6.12 8.7 9.63 5.8 10.39 3 13.9 0.7 29.26 2.2 6.9-2.9 8.65-11.7 18.37-18.5 18.27-15.5 15.74-2.9 5.15-4.9 17.5-11.7 21.77-12.6 15.74-13.6 15.65-4.9 19.15-5.8 30.51-2.9 34.89-1.9 27.9h-3l-18.4 6.61h-2l-1.9-7-2.9-14.77-1-19.25-1.9-26.14 6.8-17.4 1.9-7.77 6.8-20.12 2.9-14.87 8.8-10.4-9.8 11.27-3.8 14.87-4.9 19.25-3.9 11.27-7.8 13.9-0.9 34.89-3 22.45h-0.9l0.9-4.76-2.9-3.99-4.8-1.26-6.8 0.97-3.9 3.5 0.5 9.27-4.4 0.84-1.9-4.96 0.9-11.27-4.8-32.27-5.9-47.14-2.9-20.89-9.7-3.5-33 2.62h-34.1l-35.9-1.75-31.1-9.52-29.2-18.37-1.9 9.62-7.8 31.39-3.9 22.65-6.8 36.64v23.52l3.9 16.62 10.7 28.77 12.6 28.76 4.9 13.9 6.8 8.75 13.6 9.62 16.5 16.52-1 9.63-5.8 3.49-8.7-1.75-17.5-6.99-10.7-9.62-3.9-4.38-7.8-20.89-7.8-19.15-12.6-30.52-5.8-21.87-9.7-22.64-3-13.9-6.8-17.49 3-8.75v-14.77l0.9-20.9-3.8 1.74-12.7-20.212-12.8-21.417-8.8-26.773-7.6-17.498-8.4-12.15-4.4-15.65-1.2-6.78-0.6-43.25-1.8-0.22-1.2-16.52 17.6-13.12 25.3-17.4 32.1-15.74 25.2-0.97 37 1.75 36 4.37 26.2 4.37 32.1 2.63 34 5.25h22.3l44.7-2.63 41.8 2.63 15.6-12.25 11.6-21.77 8.8-27.89 3.9-24.49-7.8-2.53-8.7-5.25-10.7-13.99-7.8-16.53-2-18.37v-5.24l3.9-6.81 8.8 0.97 11.6 3.12 12.7 7.28 8.7 9.63 28.2 9.13h35l5.8-6.51 6.8 7 2-11.37 3.9-9.63 4.8-8.65 7.8-7.87 6.8-3.5 8.7-2.62 16.6-2.62 5.3 9.83zm-27.2 17.88s8.7-3.11 6.8-4.76c-2-1.75-4.9-1.75-4.9-1.75l-2.9-2.24 4.9-6.99 2.9-7.39-14.6 5.25-8.7 9.13 6.8 4.38-2 5.25-5.8 7.38 3.9 1.75 2.9 1.36 9.7 6.03 2-17.59zm-60.3 47.04v-2.14l-2.9-2.23-5.8-5.25-5.8-1.26-3.9 1.26-2.9 1.36-3 3.01-3.9 6.12 3.9 1.27 3-3.01 3.8-1.27 3.9-0.97h3.9l9.7 2.92zm-35.9 186.41 15.2-21.304-3.6 3.614-8.7 12.25-2.9 5.34-11.7 13.32-3.4 6.294-10.2 3.716-5.8 7.87-4.9 11.27-27.2 30.81-1 0.97-8.7 11.38 9.7-11.96 11.7-9.82 8.7-8.74 4.9-9.62 2.1-5.717 24.1-26.063h0.6l8.2-7.88 1.9-4.86zm-9.7-38.59 1.4-2.78-46.9 2.44 10.5 14.24 15.5 22.74-1.9 6.13h1.9l7.8-17.5-2.9-9.62 2.9-4.27 10.7-11.28zm-12.7-176.1-3.9-10.5-2.9-4.27-11.6-3.5v11.27l-4.9-0.97 1.9 6.12 10.7 7 6.8 3.5 2.9-8.75zm-51.5 411.11-1.9-2.63-4.9-7.87-6.8 9.62-2.9 2.63-3.1 9.12 19.3-12.19z" fill="#4e3213"/>
   <path d="m1877.2-304.42c2 1.75-6.8 4.76-6.8 4.76l-1 17.49-9.7-6.12-2.9-1.36-2.9-1.65 5.8-7.48 1-5.25-5.8-4.28 7.7-9.23 14.6-5.15-2.9 7.38-4.9 7 3 2.14c-1 0 2.9 0 3.8 1.94z" fill="#cccdce"/>
   <polygon points="1053.1 527.69 1053 528 1053.1 527.33" fill="#3d2f13" transform="matrix(9.7189,0,0,9.7189,-8359.7,-5332.3)"/>
   <polygon points="1050.4 526.97 1050.6 526.61 1050.7 526.25 1051.1 526.16 1051.6 526.16 1052.1 526.07 1052.2 525.4 1052.4 525.62 1053 526.07 1053.1 527.15 1053.1 527.33 1053 528 1052.9 528.27 1052.7 528.29 1052.4 528.32 1051.5 528.32 1051.1 528.41 1050.8 528.61 1050.6 528.68 1050.6 528.69 1050.5 528.72 1050.2 528.45 1049.9 528.14 1049.6 527.73 1049.6 527.28 1050 527.11" fill="#1b171b" transform="matrix(9.7189,0,0,9.7189,-8359.7,-5332.3)"/>
   <g fill="#3d2f13">
    <polygon points="1052.7 528.29 1052.9 528.27 1053 528 1053 528.27" transform="matrix(9.7189,0,0,9.7189,-8359.7,-5332.3)"/>
    <polygon points="1052.4 528.32 1052.4 528.32 1052.7 528.29" transform="matrix(9.7189,0,0,9.7189,-8359.7,-5332.3)"/>
    <polygon points="1051.1 528.41 1051.5 528.32 1052.4 528.32 1051.8 528.36 1050.8 528.61" transform="matrix(9.7189,0,0,9.7189,-8359.7,-5332.3)"/>
    <polygon points="1050.6 528.68 1050.8 528.61 1050.8 528.63 1050.6 528.69" transform="matrix(9.7189,0,0,9.7189,-8359.7,-5332.3)"/>
   </g>
   <polygon points="1048.7 529.44 1049.4 529.26 1049.8 529.17 1049.9 529.23 1049.4 529.62 1049.2 530.24 1048.4 533.03 1047.2 536.79 1046.7 538.32 1046.5 538.26 1046.5 535.27 1046.4 534.63 1046.2 528.9 1047 529.35 1047.8 529.62" fill="#cccdce" transform="matrix(9.7189,0,0,9.7189,-8359.7,-5332.3)"/>
   <path fill="#4e3213" d="m1803.4-196.35-3-3.5-5.8-8.65-10.7-12.24-12.6-19.15 74.8 46.07-6.8 5.44-6.8 1.75-8.7 1.75-7.8-2.62-7.8-4.38z"/>
   <polygon points="1046.5 538.26 1046.4 534.63 1046.5 535.27" fill="#3d2f13" transform="matrix(9.7189,0,0,9.7189,-8359.7,-5332.3)"/>
   <polygon points="1046.5 522.66 1045.5 522.35 1045.1 522.35 1044.7 522.44 1044.3 522.58 1044 522.89 1043.6 522.76 1044 522.13 1044.3 521.81 1044.6 521.68 1045 521.54 1045.6 521.68 1046.2 522.22 1046.5 522.44" fill="#1b171b" transform="matrix(9.7189,0,0,9.7189,-8359.7,-5332.3)"/>
   <polygon points="1044.8 529.35 1045.4 529.17 1046.2 528.9 1046.4 534.63 1046.1 533.21 1045.4 532.13 1044.5 531.14 1044.1 530.52 1044.2 529.89" fill="#cccdce" transform="matrix(9.7189,0,0,9.7189,-8359.7,-5332.3)"/>
   <polygon points="1044 540.02 1044.8 539.48 1042.8 541.84 1043.1 541.28" fill="#3d2f13" transform="matrix(9.7189,0,0,9.7189,-8359.7,-5332.3)"/>
   <polygon points="1041.6 543.21 1042.8 541.84 1042.5 542.36 1041.7 543.16" fill="#3d2f13" transform="matrix(9.7189,0,0,9.7189,-8359.7,-5332.3)"/>
   <polygon points="1040.2 539.48 1040.6 540.47 1039.8 542.27 1039.6 542.27 1039.8 541.64 1038.2 539.31 1037.1 537.78 1042 537.42 1041.8 537.87 1040.6 539.04" fill="#4e3213" transform="matrix(9.7189,0,0,9.7189,-8359.7,-5332.3)"/>
   <polygon points="1040.2 544.24 1041 543.61 1041.6 543.21 1039 546.21 1039.5 545.05" fill="#3d2f13" transform="matrix(9.7189,0,0,9.7189,-8359.7,-5332.3)"/>
   <polygon points="1039.4 520.29 1038.3 519.57 1038.1 518.94 1038.6 519.03 1038.6 518.67 1038.6 517.86 1039.8 518.22 1040.1 518.67 1040.5 519.75 1040.2 520.65" fill="#cccdce" transform="matrix(9.7189,0,0,9.7189,-8359.7,-5332.3)"/>
   <polygon points="1035.3 564.51 1035.3 566.31 1035.4 568.64 1035.8 572.32 1036.3 573.93 1037.2 574.83 1038.3 575.82 1039.3 576.36 1039.8 577.16 1039.3 577.61 1037.9 577.25 1036 576.72 1034.9 576.27 1034.3 574.92 1033.6 573.04 1033.5 569.9 1033.2 565.32 1033 564.69 1033.2 564.65 1033.6 564.69 1033.9 564.65 1034.8 564.47 1035 564.29 1035.1 563.98 1035.4 563.98" fill="#4e3213" transform="matrix(9.7189,0,0,9.7189,-8359.7,-5332.3)"/>
   <g fill="#3d2f13">
    <polygon points="1037.6 516.52 1039.1 516.52 1039.7 516.93 1038.5 516.61 1037.6 516.53" transform="matrix(9.7189,0,0,9.7189,-8359.7,-5332.3)"/>
    <polygon points="1037.5 548.37 1036.3 549.38 1039 546.21 1038.9 546.48 1038.4 547.47" transform="matrix(9.7189,0,0,9.7189,-8359.7,-5332.3)"/>
    <polygon points="1035.1 515.44 1033.9 513.83 1032.7 511.94 1036.4 516.34 1035.7 515.98" transform="matrix(9.7189,0,0,9.7189,-8359.7,-5332.3)"/>
    <polygon points="1035.2 550.61 1036.2 549.44 1036.3 549.38" transform="matrix(9.7189,0,0,9.7189,-8359.7,-5332.3)"/>
   </g>
   <polygon points="1035.2 562.05 1033.2 563.35 1033.4 562.23 1033.8 561.96 1034.5 560.97 1035 561.78" fill="#4e3213" transform="matrix(9.7189,0,0,9.7189,-8359.7,-5332.3)"/>
   <g fill="#3d2f13">
    <polygon points="1035 564.29 1034.8 564.47 1033.9 564.65 1033.6 564.69 1033.2 564.65 1035.1 563.98" transform="matrix(9.7189,0,0,9.7189,-8359.7,-5332.3)"/>
    <polygon points="1034.1 551.6 1033.8 553.12 1033.1 555.2 1033.6 553.21 1034 551.69 1035 550.52" transform="matrix(9.7189,0,0,9.7189,-8359.7,-5332.3)"/>
    <polygon points="1033.5 515.17 1033.3 514.82 1033.4 514.92" transform="matrix(9.7189,0,0,9.7189,-8359.7,-5332.3)"/>
   </g>
   <polygon points="1025.3 505.4 1025.4 504.95 1026.2 505.58 1026.6 506.92 1027.7 508.62 1028.6 509.43 1029 509.86 1029.1 510.06 1030.4 511.32 1031.5 512.57 1031.9 513.01 1033.3 514.82 1032.9 514.55 1031.5 513.11 1029.4 511.05 1028 510.06 1026.4 508.27 1025.9 507.19" fill="#684129" transform="matrix(9.7189,0,0,9.7189,-8359.7,-5332.3)"/>
   <polygon points="1031.7 577.79 1030.5 577.43 1029 576.36 1028.8 573.93 1029.3 568.28 1029.4 564.51 1029.2 564.12 1029.5 564.02 1029.7 564.29 1030.6 564.6 1031.4 563.66 1031.5 563.68 1031.5 563.71 1030.7 565.5 1030.7 568.64 1030.7 573.31 1030.9 574.38 1032 575.82 1033.2 577.16 1033.2 577.7" fill="#4e3213" transform="matrix(9.7189,0,0,9.7189,-8359.7,-5332.3)"/>
   <polygon points="1031.9 513.01 1031.5 512.57 1030.4 511.32 1029.1 510.06 1029 509.86 1030.8 511.76 1031.8 512.84" fill="#3d2f13" transform="matrix(9.7189,0,0,9.7189,-8359.7,-5332.3)"/>
   <polygon points="1030 562.72 1030.7 562.63 1031.2 562.76 1031.5 563.17 1031.4 563.66 1030.6 564.6 1029.7 564.29 1029.5 564.02 1029.6 563.08" fill="#4e3213" transform="matrix(9.7189,0,0,9.7189,-8359.7,-5332.3)"/>
   <path d="m1393.2 26.31 12.6 23.81-11.6 8.07-20.4 19.24-1 0.98-1-1.07-30 17.24-3.8-2.37 1-30.03 1-15.65 19.2-12.25 10.7-17.39 6.8-13.13 12.6 20.03 3.9 3.11zm-16.5 28.48 12.6-7-8.7-4.76-16.5 15.65-3.9 4.86 4.8-1.75zm-2-24.01-5.8-7.38-6.8 9.13-3.7 5.25-11.3 8.65 3.5 0.97 3.5 5.74 2.6-2.24 18-20.02z" fill="#4e3213"/>
   <polygon points="1000.1 555.18 1000.5 554.69 1002.2 553.08 1003.1 553.57 1001.8 554.29 1000.5 555" fill="#cccdce" transform="matrix(9.7189,0,0,9.7189,-8359.7,-5332.3)"/>
   <polygon points="999.96 559.67 999.78 561.73 999.69 563.44 999.33 567.02 999.6 567.92 1000.9 568.73 1001.9 570.7 1001.3 570.79 999.69 570.79 998.44 569.99 997.54 568.73 996.91 568.01 996.73 566.67 997.09 564.87 997.54 561.37 997.81 558.5 997.82 558.1 998.03 558.1 998.21 558.68 998.7 558.86 999.6 558.37 1000.3 557.47 1001.3 556.58 1001.4 556.68 1000.4 558.06" fill="#4e3213" transform="matrix(9.7189,0,0,9.7189,-8359.7,-5332.3)"/>
   <polygon points="998.75 553.44 999.92 552.54 1000.3 552 1001 551.06 1001.6 551.82 999.74 553.88 999.47 554.11 999.11 553.52" fill="#cccdce" transform="matrix(9.7189,0,0,9.7189,-8359.7,-5332.3)"/>
   <polygon points="998.7 558.86 998.21 558.68 998.03 558.1 1001.3 556.58 1000.3 557.47 999.6 558.37" fill="#4e3213" transform="matrix(9.7189,0,0,9.7189,-8359.7,-5332.3)"/>
   <polygon points="997 538.41 996.91 537.51 997.54 536.62 998.35 535.45 998.48 537.15 997.76 538.63 998.3 540.47 998.84 542.09 998.88 542.27 998.35 543.34 997.72 544.15 997.45 541.82 997.27 540.56" fill="#cccdce" transform="matrix(9.7189,0,0,9.7189,-8359.7,-5332.3)"/>
   <polygon points="998.75 537.2 998.84 542.09 998.3 540.47 997.76 538.63 998.48 537.15" fill="#4e3213" transform="matrix(9.7189,0,0,9.7189,-8359.7,-5332.3)"/>
   <g stroke="#000" fill="none">
    <g stroke-width=".25">
     <polyline transform="matrix(9.7189,0,0,9.7189,-8359.7,-5332.3)" points="1004.8 553.78 1004.9 553.75 1004.8 555.9 1004.8 557.43 1004.4 558.32 1005.2 560.12 1005.5 561.55 1006.5 563.89 1007.1 566.13 1008.4 569.27 1009.2 571.24 1010 573.4 1010.4 573.84 1011.5 574.83 1013.3 575.55 1014.2 575.73 1014.8 575.37 1014.9 574.38 1013.2 572.68 1011.8 571.69 1011.1 570.79 1010.6 569.36 1009.3 566.4 1008.2 563.44 1007.8 561.73 1007.8 559.31 1008.5 555.54 1008.9 553.21 1009.7 549.98 1009.9 549 1012.9 550.88 1016.1 551.86 1019.8 552.04 1023.3 552.04 1026.7 551.78 1027.7 552.14 1028 554.29 1028.6 559.13 1029.1 562.45 1029 563.62 1029.2 564.12 1029.4 564.51 1029.3 568.28 1028.8 573.93 1029 576.36 1030.5 577.43 1031.7 577.79 1033.2 577.7 1033.2 577.16 1032 575.82 1030.9 574.38 1030.7 573.31 1030.7 568.64 1030.7 565.5 1031.5 563.71 1031.5 563.68 1031.8 561.37 1031.9 557.78 1032.7 556.35 1033.1 555.2"/>
     <polyline transform="matrix(9.7189,0,0,9.7189,-8359.7,-5332.3)" points="1000.8 546.34 1001.2 547.38 1001.8 549 1001.1 550.34 1000.1 552.14 997.99 553.39 997.9 555 997.82 558.1 997.81 558.5 997.54 561.37 997.09 564.87 996.73 566.67 996.91 568.01 997.54 568.73 998.44 569.99 999.69 570.79 1001.3 570.79 1001.9 570.7 1000.9 568.73 999.6 567.92 999.33 567.02 999.69 563.44 999.78 561.73 999.96 559.67 1000.4 558.06 1001.4 556.68 1001.5 556.62 1003.6 554.65 1004.8 553.81"/>
     <polyline transform="matrix(9.7189,0,0,9.7189,-8359.7,-5332.3)" points="1041.9 518.67 1041 517.69 1039.7 516.93 1039.1 516.52 1037.6 516.52 1037.6 516.53 1037.2 517.24 1037.2 517.78 1037.4 519.66 1038.2 521.36 1039.3 522.8 1040.2 523.34 1041 523.61 1040.6 526.12 1039.7 528.99 1038.5 531.23 1036.9 532.49 1032.6 532.22 1028 532.49 1025.7 532.49 1022.2 531.95 1018.9 531.68 1016.2 531.23 1012.5 530.78 1008.7 530.6 1006.1 530.69 1002.8 532.31 1000.2 534.1 998.35 535.45 997.54 536.62 996.91 537.51 997 538.41 997.27 540.56 997.45 541.82 997.72 544.15 998.35 543.34 998.88 542.27"/>
     <polyline transform="matrix(9.7189,0,0,9.7189,-8359.7,-5332.3)" points="1053.1 527.33 1053.2 527.02 1053.1 526.03 1052.4 525.31 1051.3 524.06 1050.8 523.43 1051 522.8 1051.4 522.35 1052.6 521.99 1054 521.1 1055 519.48 1055.6 517.51 1055.5 515.98 1054.9 514.9 1053.2 515.17 1052.4 515.44 1051.6 515.8 1050.8 516.61 1050.3 517.51 1049.9 518.49 1049.7 519.66 1049 518.94 1049.1 518.31 1049.6 517.15 1050.2 516.7 1051 516.16 1051.5 515.69 1052.4 514.9 1053.4 514.1 1055 512.57 1056.9 511.32 1058.1 509.25 1060.1 507.19 1061.2 505.84 1059.8 505.84 1059.2 506.92 1058.5 508 1057.7 508.62 1057.4 508.98 1057.9 507.55 1057.7 504.68 1057.7 503.42 1056.9 503.6 1057 504.86 1056.9 506.65 1056.5 508 1055.7 509.88 1054.9 511.32 1053.6 512.39 1052.4 513.11 1051.1 514.55 1049.8 515.89 1051 514.37 1052.3 512.75 1053.4 510.78 1054 508.72 1053.9 506.83 1053.5 505.58 1053 504.86 1052.9 505.22 1053.3 506.38 1053.1 508.27 1052.7 509.88 1052.2 510.87 1051.7 511.68 1051.9 509.79 1051.4 507.91 1050.9 507.46 1050.4 507.01 1050.3 507.28 1050.8 508 1050.8 509.16 1051.1 510.6 1050.6 511.68 1050.3 512.57 1049.7 512.75 1048.3 512.48 1046.9 512.03 1046.9 512.3 1048.9 512.93 1049.9 513.65 1050.5 513.83 1049.7 514.9 1048.1 516.16 1047.1 517.33 1046.2 518.31 1045.8 518.49 1044.1 518.14 1043.3 517.51 1042.7 516.97 1042.8 515.71 1041.9 514.37 1041.3 513.56 1041 512.48 1041 511.32 1041 510.6 1041.4 508.98 1041.8 507.82 1041.1 507.73 1040.6 508.9 1040.2 510.51 1040.2 512.75 1040.4 514.1 1040.6 514.82 1041 515.62 1040.8 516.07 1038.8 515.8 1036.1 514.73 1034.8 513.74 1033.4 512.39 1032.4 511.58 1033.6 509.7 1034.8 508.09 1035.3 506.56 1035.1 505.66 1034.8 505.48 1034.6 506.29 1034.4 507.01 1033 509.43 1032 511.14 1030.8 510.33 1030 509.52 1028.8 508.18 1028.6 507.19 1028.5 505.84 1028.5 504.14 1028 504.05 1027.8 504.77 1027.8 506.11 1027.9 508.09 1029 509.86 1029.1 510.06 1030.4 511.32 1031.5 512.57 1031.9 513.01 1033.1 514.28 1033.4 514.92 1033.5 515.17 1033.3 514.82 1031.9 513.01 1031.8 512.84 1030.8 511.76 1029 509.86 1028.6 509.43 1027.7 508.62 1026.6 506.92 1026.2 505.58 1025.4 504.95 1025.3 505.4 1025.9 507.19 1026.4 508.27 1028 510.06 1029.4 511.05 1031.5 513.11 1032.9 514.55 1033.3 514.82 1033.4 514.92 1035.4 516.43 1036.7 517.15 1037 517.86 1037.2 516.97 1037.5 516.52 1037.6 516.53 1038.5 516.61 1039.7 516.93 1039.9 516.97 1040.8 517.51 1041 517.69"/>
     <polyline transform="matrix(9.7189,0,0,9.7189,-8359.7,-5332.3)" points="1052.7 528.29 1053 528.27 1053 528"/>
     <polyline transform="matrix(9.7189,0,0,9.7189,-8359.7,-5332.3)" points="1050.8 528.61 1051.8 528.36 1052.4 528.32"/>
     <polyline transform="matrix(9.7189,0,0,9.7189,-8359.7,-5332.3)" points="1033.1 555.2 1032.9 555.99 1032.2 557.78 1032.3 560.48 1032.5 562.45 1032.8 563.98 1033 564.69 1033.2 565.32 1033.5 569.9 1033.6 573.04 1034.3 574.92 1034.9 576.27 1036 576.72 1037.9 577.25 1039.3 577.61 1039.8 577.16 1039.3 576.36 1038.3 575.82 1037.2 574.83 1036.3 573.93 1035.8 572.32 1035.4 568.64 1035.3 566.31 1035.3 564.51 1035.4 563.98 1035.6 561.1 1035.9 557.52 1036.5 554.38 1037 552.4 1038.4 550.79 1039.7 549.17 1040.9 546.93 1041.4 545.14 1041.7 544.6 1043.3 542.98 1045.2 541.1 1046.4 539.22 1046.7 538.32 1047.2 536.79 1048.4 533.03 1049.2 530.24 1049.4 529.62 1049.9 529.23 1050.6 528.69"/>
     <polygon transform="matrix(9.7189,0,0,9.7189,-8359.7,-5332.3)" points="1033.8 553.12 1034.1 551.6 1035 550.52 1034 551.69 1033.6 553.21 1033.1 555.2"/>
     <polyline transform="matrix(9.7189,0,0,9.7189,-8359.7,-5332.3)" points="1032.7 511.94 1033.9 513.83 1035.1 515.44 1035.7 515.98 1036.4 516.34"/>
     <polygon transform="matrix(9.7189,0,0,9.7189,-8359.7,-5332.3)" points="1040.5 519.75 1040.2 520.65 1039.4 520.29 1038.3 519.57 1038.1 518.94 1038.6 519.03 1038.6 518.67 1038.6 517.86 1039.8 518.22 1040.1 518.67"/>
    </g>
    <path d="m1853.9-291.4 5.8-7.38 2-5.25-6.8-4.38 7.7-9.13 14.6-5.25-2.9 7.39-4.9 6.99 3 2.24s2.9 0 4.8 1.75c2 1.65-5.8 4.76-5.8 4.76l-1 17.4-10.7-6.03-2.9-1.36-3.9-1.55z" stroke-width="2.4297"/>
    <g stroke-width=".25">
     <polygon transform="matrix(9.7189,0,0,9.7189,-8359.7,-5332.3)" points="1044 522.13 1044.3 521.81 1044.6 521.68 1045 521.54 1045.6 521.68 1046.2 522.22 1046.5 522.44 1046.5 522.66 1045.5 522.35 1045.1 522.35 1044.7 522.44 1044.3 522.58 1044 522.89 1043.6 522.76"/>
     <polygon transform="matrix(9.7189,0,0,9.7189,-8359.7,-5332.3)" points="1053 526.07 1053.1 527.15 1053.1 527.33 1053.1 527.69 1053 528 1052.9 528.27 1052.7 528.29 1052.4 528.32 1052.4 528.32 1051.5 528.32 1051.1 528.41 1050.8 528.61 1050.8 528.63 1050.6 528.69 1050.5 528.72 1050.2 528.45 1049.9 528.14 1049.6 527.73 1049.6 527.28 1050 527.11 1050.4 526.97 1050.6 526.61 1050.7 526.25 1051.1 526.16 1051.6 526.16 1052.1 526.07 1052.2 525.4 1052.4 525.62"/>
     <polyline transform="matrix(9.7189,0,0,9.7189,-8359.7,-5332.3)" points="1033.2 564.65 1033.6 564.69 1033.9 564.65 1034.8 564.47 1035 564.29 1035.1 563.98"/>
     <polyline transform="matrix(9.7189,0,0,9.7189,-8359.7,-5332.3)" points="1033.2 563.35 1033.4 562.23 1033.8 561.96 1034.5 560.97 1035 561.78 1035.2 562.05"/>
     <polyline transform="matrix(9.7189,0,0,9.7189,-8359.7,-5332.3)" points="1029.5 564.02 1029.7 564.29 1030.6 564.6 1031.4 563.66 1031.5 563.17 1031.2 562.76 1030.7 562.63 1030 562.72 1029.6 563.08"/>
     <polyline transform="matrix(9.7189,0,0,9.7189,-8359.7,-5332.3)" points="1001.3 556.58 1000.3 557.47 999.6 558.37 998.7 558.86 998.21 558.68 998.03 558.1"/>
     <polyline transform="matrix(9.7189,0,0,9.7189,-8359.7,-5332.3)" points="1002.2 553.08 1000.5 554.69 1000.1 555.18 1000.5 555 1001.8 554.29 1003.1 553.57"/>
     <polyline transform="matrix(9.7189,0,0,9.7189,-8359.7,-5332.3)" points="1001.6 551.82 999.74 553.88 999.47 554.11 999.11 553.52 998.75 553.44 999.92 552.54 1000.3 552 1001 551.06"/>
     <polyline transform="matrix(9.7189,0,0,9.7189,-8359.7,-5332.3)" points="998.84 542.09 998.3 540.47 997.76 538.63 998.48 537.15 998.75 537.2"/>
     <polyline transform="matrix(9.7189,0,0,9.7189,-8359.7,-5332.3)" points="1042.4 524.06 1043.7 525.94 1044.8 527.2 1045.4 528.09 1045.7 528.45 1046.2 528.9 1047 529.35 1047.8 529.62 1048.7 529.44 1049.4 529.26 1049.8 529.17"/>
     <polyline transform="matrix(9.7189,0,0,9.7189,-8359.7,-5332.3)" points="1046.5 538.26 1046.5 535.27 1046.4 534.63 1046.1 533.21 1045.4 532.13 1044.5 531.14 1044.1 530.52 1044.2 529.89 1044.8 529.35 1045.4 529.17 1046.2 528.9"/>
    </g>
    <line stroke-width="2.4297" y2="-136.28" y1="-191.97" x2="1810.2" x1="1808.2"/>
    <polyline transform="matrix(9.7189,0,0,9.7189,-8359.7,-5332.3)" points="1037.1 537.78 1038.2 539.31 1039.8 541.64 1039.6 542.27 1039.8 542.27 1040.6 540.47 1040.2 539.48 1040.6 539.04 1041.8 537.87 1042 537.42" stroke-width=".25"/>
    <polyline transform="matrix(9.7189,0,0,9.7189,-8359.7,-5332.3)" points="1035.2 550.61 1036.2 549.44 1036.3 549.38 1037.5 548.37 1038.4 547.47 1038.9 546.48 1039 546.21 1039.5 545.05 1040.2 544.24 1041 543.61 1041.6 543.21 1041.7 543.16 1042.5 542.36 1042.8 541.84 1043.1 541.28 1044 540.02 1044.8 539.48" stroke-width=".25"/>
    <line stroke-width="2.4297" y2="7.07" y1="-23.74" x2="1712" x1="1738.2"/>
    <line stroke-width="2.4297" y2="-52.9" y1="-66.21" x2="1763.5" x1="1775.2"/>
    <polyline transform="matrix(9.7189,0,0,9.7189,-8359.7,-5332.3)" points="1041.9 518.67 1044.8 519.62 1048.4 519.62 1049 518.94" stroke-width=".25"/>
    <line stroke-width="2.4297" y2="-128.31" y1="-111.79" x2="1343.2" x1="1344.4"/>
   </g>
  </g>
 </g>
</svg>
