<svg xmlns="http://www.w3.org/2000/svg" viewBox="0 0 512 512" style="height: 64px; width: 64px;"><defs><radialGradient id="delapouite-samurai-helmet-gradient-2"><stop offset="0%" stop-color="#9b9b9b" stop-opacity="1"></stop><stop offset="100%" stop-color="#4a4a4a" stop-opacity="1"></stop></radialGradient><radialGradient id="delapouite-samurai-helmet-gradient-3"><stop offset="0%" stop-color="#4a4a4a" stop-opacity="1"></stop><stop offset="100%" stop-color="#9b9b9b" stop-opacity="1"></stop></radialGradient><radialGradient id="delapouite-samurai-helmet-gradient-4"><stop offset="0%" stop-color="#8b572a" stop-opacity="1"></stop><stop offset="100%" stop-color="#5e320c" stop-opacity="1"></stop></radialGradient><radialGradient id="delapouite-samurai-helmet-gradient-5"><stop offset="0%" stop-color="#4a4a4a" stop-opacity="1"></stop><stop offset="100%" stop-color="#9b9b9b" stop-opacity="1"></stop></radialGradient><radialGradient id="delapouite-samurai-helmet-gradient-6"><stop offset="0%" stop-color="#4a4a4a" stop-opacity="1"></stop><stop offset="100%" stop-color="#9b9b9b" stop-opacity="1"></stop></radialGradient><radialGradient id="delapouite-samurai-helmet-gradient-7"><stop offset="0%" stop-color="#8b572a" stop-opacity="1"></stop><stop offset="100%" stop-color="#5e320c" stop-opacity="1"></stop></radialGradient><radialGradient id="delapouite-samurai-helmet-gradient-8"><stop offset="0%" stop-color="#8b572a" stop-opacity="1"></stop><stop offset="100%" stop-color="#5e320c" stop-opacity="1"></stop></radialGradient><radialGradient id="delapouite-samurai-helmet-gradient-9"><stop offset="0%" stop-color="#8b572a" stop-opacity="1"></stop><stop offset="100%" stop-color="#5e320c" stop-opacity="1"></stop></radialGradient><radialGradient id="delapouite-samurai-helmet-gradient-10"><stop offset="0%" stop-color="#8b572a" stop-opacity="1"></stop><stop offset="100%" stop-color="#5e320c" stop-opacity="1"></stop></radialGradient><radialGradient id="delapouite-samurai-helmet-gradient-11"><stop offset="0%" stop-color="#8b572a" stop-opacity="1"></stop><stop offset="100%" stop-color="#5e320c" stop-opacity="1"></stop></radialGradient><radialGradient id="delapouite-samurai-helmet-gradient-12"><stop offset="0%" stop-color="#4a4a4a" stop-opacity="1"></stop><stop offset="100%" stop-color="#9b9b9b" stop-opacity="1"></stop></radialGradient><radialGradient id="delapouite-samurai-helmet-gradient-13"><stop offset="0%" stop-color="#8b572a" stop-opacity="1"></stop><stop offset="100%" stop-color="#5e320c" stop-opacity="1"></stop></radialGradient><radialGradient id="delapouite-samurai-helmet-gradient-14"><stop offset="0%" stop-color="#8b572a" stop-opacity="1"></stop><stop offset="100%" stop-color="#5e320c" stop-opacity="1"></stop></radialGradient></defs><g class="" transform="translate(0,0)" style=""><g><path d="M356.1 32.57L406.1 57.57C403.9 66.25 396.9 80.04 386 94.86C372.7 113 354.4 133.3 335.6 152C316.9 170.8 297.5 188.2 282.1 200.7C274.4 206.9 267.6 212 262.5 215.3C260 216.9 257.9 218.2 256.5 218.9C256.2 219 256.2 219 256 219C255.8 219 255.8 219 255.5 218.9C254.1 218.2 252 216.9 249.5 215.3C244.4 212 237.6 206.9 229.9 200.7C214.5 188.2 195.1 170.8 176.4 152C157.6 133.3 139.3 113 126 94.87C115.1 80.04 108.1 66.25 105.9 57.57L155.9 32.57C170.5 62.3 185.2 94.71 200.1 122.6C216.3 153.1 231.7 178.3 252 188.5L256 190.5L260 188.5C280.3 178.3 295.7 153.1 311.9 122.6C326.8 94.71 341.5 62.29 356.1 32.57Z" class="" fill="url(#delapouite-samurai-helmet-gradient-2)" stroke="#4a4a4a" stroke-opacity="1" stroke-width="8"></path><path d="M256 141.4C263.9 141.4 271.5 142.1 278.7 143.3C270.5 155.5 262.7 164.8 256 169.8C249.3 164.8 241.5 155.5 233.3 143.3C240.5 142.1 248.1 141.4 256 141.4Z" class="" fill="url(#delapouite-samurai-helmet-gradient-3)" stroke="#4a4a4a" stroke-opacity="1" stroke-width="8"></path><path d="M339.1 173.9C362.4 196.6 375 228.5 375 260.4L375 261C342 249 299.1 243.4 256 243.4C212.9 243.4 170 249 137 261L137 260.4C137 228.5 149.6 196.6 172.9 173.9C189.1 189.5 205.1 203.7 218.6 214.6C226.6 221.1 233.7 226.5 239.6 230.3C242.5 232.3 245.1 233.8 247.6 235C250.1 236.2 252 237.4 256 237.4C260 237.4 261.9 236.2 264.4 235C266.9 233.8 269.5 232.3 272.4 230.3C278.3 226.5 285.4 221.1 293.4 214.6C306.9 203.7 322.9 189.5 339.1 173.9Z" class="" fill="url(#delapouite-samurai-helmet-gradient-4)" stroke="#4a4a4a" stroke-opacity="1" stroke-width="8"></path><path d="M403.4 212.2C424 232.2 434.9 238.4 467.2 249.5C454.6 274.4 441.3 296.6 410.2 310.7L392.9 258.7C392.8 253 392.4 247.3 391.6 241.6Z" class="" fill="url(#delapouite-samurai-helmet-gradient-5)" stroke="#4a4a4a" stroke-opacity="1" stroke-width="8"></path><path d="M108.6 212.2L120.4 241.6C119.6 247.3 119.2 253 119.1 258.7L101.8 310.7C70.69 296.6 57.39 274.4 44.79 249.5C77.09 238.4 87.99 232.2 108.6 212.2Z" class="selected" fill="url(#delapouite-samurai-helmet-gradient-6)" stroke="#4a4a4a" stroke-opacity="1" stroke-width="8"></path><path d="M265 261.5C310.1 262.4 354.3 270.2 382.2 283.7L410.6 368.7L367.3 348.9C363.4 325.3 361 302.6 361 290.4L361 275.8L348 282.3C320.1 296.3 292.5 303.9 265 305.3Z" class="" fill="url(#delapouite-samurai-helmet-gradient-7)" stroke="#4a4a4a" stroke-opacity="1" stroke-width="8"></path><path d="M247 261.5L247 305.3C219.5 303.9 191.9 296.3 164 282.3L151 275.8L151 290.4C151 302.6 148.6 325.3 144.7 348.9L101.4 368.7L129.8 283.7C157.7 270.2 201.9 262.4 247 261.5Z" class="" fill="url(#delapouite-samurai-helmet-gradient-8)" stroke="#4a4a4a" stroke-opacity="1" stroke-width="8"></path><path d="M343.6 304.3C344.9 322.9 348.4 347.8 353.2 371.9C356.2 387.3 359.8 402.1 363.7 414.3C367.6 426.6 371 436.1 377.6 442.8L380.3 445.4L384 445.4C398.1 445.4 422.9 446.6 436.7 455C434.9 456.4 431.9 458.2 428 459.9C418.6 463.9 404.1 467.6 386.5 470.5C351.3 476.4 303.6 479.4 256 479.4C208.4 479.4 160.7 476.4 125.5 470.5C107.9 467.6 93.39 463.9 83.99 459.9C80.09 458.2 77.09 456.4 75.29 455C88.99 446.6 113.9 445.4 128 445.4L131.7 445.4L134.4 442.8C141 436.1 144.4 426.6 148.3 414.3C152.2 402.1 155.8 387.3 158.8 371.9C163.6 347.8 167.1 322.9 168.4 304.3C226.4 329.6 285.6 329.6 343.6 304.3Z" class="" fill="url(#delapouite-samurai-helmet-gradient-9)" stroke="#4a4a4a" stroke-opacity="1" stroke-width="8"></path><path d="M140.8 370.5C137.9 384.6 134.6 398.1 131.2 408.9C128.3 418 125.1 424.2 123.1 427.4C111.9 427.3 95.39 427.4 80.09 432.5L93.59 392.1Z" class="" fill="url(#delapouite-samurai-helmet-gradient-10)" stroke="#4a4a4a" stroke-opacity="1" stroke-width="8"></path><path d="M371.2 370.5L418.4 392.1L431.9 432.5C416.6 427.4 400.1 427.3 388.9 427.4C386.9 424.2 383.7 418 380.8 408.9C377.4 398.1 374.1 384.6 371.2 370.5Z" class="" fill="url(#delapouite-samurai-helmet-gradient-11)" stroke="#4a4a4a" stroke-opacity="1" stroke-width="8"></path></g></g></svg>