<svg xmlns="http://www.w3.org/2000/svg" viewBox="0 0 512 512" style="height: 64px; width: 64px;"><g class="" transform="translate(0,0)" style="touch-action: none;"><g><path d="M64 48C55.274 48 48 55.274 48 64L48 448C48 456.726 55.274 464 64 464L300.25 464L284.25 448L64 448L64 64L127.375 64L127.375 161.53C127.375 165.454 130.818 168.625 135.095 168.625L304.905 168.625C309.182 168.625 312.625 165.455 312.625 161.531L312.625 64L381.845 64C382.273 64.318 382.645 64.548 383.312 65.094C385.362 66.769 388.274 69.358 391.687 72.5C398.514 78.783 407.337 87.337 416 96C424.663 104.663 433.217 113.486 439.5 120.313C442.642 123.726 445.23 126.637 446.906 128.687C447.452 129.355 447.682 129.727 448 130.157L448 366L464 366L464 128C464 125.32 463.343 124.598 462.97 123.844C462.595 123.09 462.245 122.55 461.875 122C461.135 120.9 460.3 119.81 459.281 118.562C457.245 116.07 454.513 113.012 451.251 109.469C444.727 102.379 436.096 93.469 427.313 84.687C418.531 75.904 409.621 67.273 402.533 60.749C398.988 57.487 395.933 54.755 393.439 52.719C392.192 51.699 391.102 50.864 390.001 50.124C389.451 49.754 388.911 49.404 388.157 49.03C387.403 48.657 386.68 48 384.001 48L64 48Z" class="selected" fill="#c9c9c9" fill-opacity="1" stroke="#000000" stroke-opacity="1" stroke-width="15"></path><path d="M151.72 64L200.28 64C204.557 64 208 68.425 208 73.938L208 144.062C208 149.575 204.557 154 200.28 154L151.72 154C147.443 154 144 149.575 144 144.062L144 73.938C144 68.426 147.443 64.001 151.72 64.001Z" class="" fill="#4a4a4a" fill-opacity="1"></path><path d="M114 212C109.568 212 106 215.568 106 220L106 404C106 408.432 109.568 412 114 412L248.25 412L217.625 381.375L202.28 366L279 366L279 238L406 238L406 220C406 215.568 402.432 212 398 212L114 212Z" class="" fill="#c3dcec" fill-opacity="1" stroke="#4a90e2" stroke-opacity="1" stroke-width="19"></path><path d="M297 256L297 384L245.75 384L352 490.25L458.25 384L407 384L407 256L297 256Z" class="" fill="#417505" fill-opacity="1" stroke="#000000" stroke-opacity="1" stroke-width="8"></path><path d="M464 403.75L448 419.75L448 448L419.75 448L403.75 464L448 464C456.726 464 464 456.726 464 448L464 403.75Z" class="" fill="#c9c9c9" fill-opacity="1" stroke="#000000" stroke-opacity="1" stroke-width="15"></path></g></g></svg>