<?xml version="1.0" encoding="UTF-8" standalone="no"?>
<svg
   xmlns:dc="http://purl.org/dc/elements/1.1/"
   xmlns:cc="http://creativecommons.org/ns#"
   xmlns:rdf="http://www.w3.org/1999/02/22-rdf-syntax-ns#"
   xmlns:svg="http://www.w3.org/2000/svg"
   xmlns="http://www.w3.org/2000/svg"
   xmlns:sodipodi="http://sodipodi.sourceforge.net/DTD/sodipodi-0.dtd"
   xmlns:inkscape="http://www.inkscape.org/namespaces/inkscape"
   viewBox="0 0 512 512"
   style="height: 64px; width: 64px;"
   version="1.1"
   id="svg25"
   sodipodi:docname="magic-gate.svg"
   inkscape:export-filename="/home/plic/Documents/dev/conaruto.github.io/images/ways/way-8-portes-celestes.png"
   inkscape:export-xdpi="12"
   inkscape:export-ydpi="12"
   inkscape:version="1.0.1 (3bc2e813f5, 2020-09-07)">
  <metadata
     id="metadata29">
    <rdf:RDF>
      <cc:Work
         rdf:about="">
        <dc:format>image/svg+xml</dc:format>
        <dc:type
           rdf:resource="http://purl.org/dc/dcmitype/StillImage" />
        <dc:title></dc:title>
      </cc:Work>
    </rdf:RDF>
  </metadata>
  <sodipodi:namedview
     pagecolor="#ffffff"
     bordercolor="#666666"
     borderopacity="1"
     objecttolerance="10"
     gridtolerance="10"
     guidetolerance="10"
     inkscape:pageopacity="0"
     inkscape:pageshadow="2"
     inkscape:window-width="1660"
     inkscape:window-height="1091"
     id="namedview27"
     showgrid="false"
     inkscape:zoom="0.22627417"
     inkscape:cx="-1176.8144"
     inkscape:cy="-365.07862"
     inkscape:window-x="4126"
     inkscape:window-y="93"
     inkscape:window-maximized="0"
     inkscape:current-layer="svg25" />
  <defs
     id="defs7">
    <radialGradient
       id="gradient-5"
       gradientTransform="scale(0.78215353,1.2785214)"
       cx="327.69447"
       cy="243.79802"
       fx="327.69447"
       fy="243.79802"
       r="136.49826"
       gradientUnits="userSpaceOnUse">
      <stop
         offset="0%"
         stop-color="#bd10e0"
         stop-opacity="1"
         id="stop2" />
      <stop
         offset="100%"
         stop-color="#fc88fc"
         stop-opacity="1"
         id="stop4" />
    </radialGradient>
    <radialGradient
       id="gradient-5-5">
      <stop
         offset="0%"
         stop-color="#bd10e0"
         stop-opacity="1"
         id="stop1048" />
      <stop
         offset="100%"
         stop-color="#fc88fc"
         stop-opacity="1"
         id="stop1050" />
    </radialGradient>
    <radialGradient
       id="gradient-5-2"
       gradientTransform="scale(0.78215353,1.2785214)"
       cx="327.69446"
       cy="243.79802"
       fx="327.69446"
       fy="243.79802"
       r="136.49826"
       gradientUnits="userSpaceOnUse">
      <stop
         offset="0%"
         stop-color="#bd10e0"
         stop-opacity="1"
         id="stop2-5" />
      <stop
         offset="100%"
         stop-color="#fc88fc"
         stop-opacity="1"
         id="stop4-4" />
    </radialGradient>
    <radialGradient
       id="gradient-5-2-8"
       gradientTransform="scale(0.78215353,1.2785214)"
       cx="327.69446"
       cy="243.79802"
       fx="327.69446"
       fy="243.79802"
       r="136.49826"
       gradientUnits="userSpaceOnUse">
      <stop
         offset="0%"
         stop-color="#bd10e0"
         stop-opacity="1"
         id="stop2-5-8" />
      <stop
         offset="100%"
         stop-color="#fc88fc"
         stop-opacity="1"
         id="stop4-4-4" />
    </radialGradient>
  </defs>
  <g
     id="g1086"
     transform="matrix(1.2175427,0,0,1.2175427,543.72952,-184.92217)">
    <g
       id="g1061"
       transform="translate(-491.32568,75.110696)">
      <path
         d="m 115.203,86.143 c 15.54,46.39 34.697,99.995 66.936,134.448 C 190.86,250.992 192,268 214.56,310 192,348 176,412 167.21,471 l -48,6 v 15 H 192 c 16,-48 64,-144 64,-144 0,0 48,96 64,144 h 72.79 v -15 l -48,-6 C 336,412 320,348 294,310 c 26,-42 24.175,-59.585 35.83,-89.377 32.25,-34.452 51.42,-88.075 66.967,-134.478"
         class="selected"
         fill="#417505"
         fill-opacity="1"
         stroke="#000000"
         stroke-opacity="1"
         stroke-width="8"
         id="path1055"
         sodipodi:nodetypes="ccccccccccccccc" />
      <path
         d="m 148.178,82.443 c -32.975,3.7 -14.03389,2.685219 -32.975,3.7 m 281.594,0.002 c -37.87479,-2.650431 0,0 -37.87479,-2.650431 C 344.84021,118.35257 325.368,155.947 300.619,184.41 290.293,199.27 274.35,209 256,209 237.65,209 221.706,199.27 211.38,184.41 186.632,155.947 162.26,117.3 148.178,82.443"
         class=""
         fill="#ffffff"
         fill-opacity="1"
         stroke="#000000"
         stroke-opacity="1"
         stroke-width="8"
         id="path1057"
         sodipodi:nodetypes="cccccscc" />
      <path
         d="m 256,97 c -20.835,0 -39,20.24 -39,47 0,26.76 18.165,47 39,47 20.835,0 39,-20.24 39,-47 0,-26.76 -18.165,-47 -39,-47 z"
         class=""
         fill="#ffe0af"
         fill-opacity="1"
         stroke="#000000"
         stroke-opacity="1"
         stroke-width="8"
         id="path1059" />
    </g>
  </g>
  <g
     class=""
     transform="matrix(0.46885664,0,0,0.46885664,140.18322,144.97962)"
     id="g23">
    <g
       id="g21">
      <path
         d="M 43.72,13.844 18.155,64.97 c 27.97,13.658 58.89,24.446 91.53,32.436 L 20.155,490.844 H 123.5 l 41.25,-373.438 1.03,-9.437 9.44,1.186 c 52.986,6.706 108.616,6.364 161.56,-0.594 l 9.44,-1.218 1.06,9.47 41.25,374.03 H 491.844 L 402.156,96.75 C 433.81,88.828 463.8,78.25 491,64.97 L 465.47,13.844 c -112.422,54.9 -309.332,54.9 -421.75,0 z"
         class=""
         fill="#8b572a"
         fill-opacity="1"
         stroke="#000000"
         stroke-opacity="1"
         stroke-width="8"
         id="path9" />
      <path
         d="m 329.72,128.188 c -14.14,1.644 -28.428,2.836 -42.783,3.562 -21.804,10.4 -32.54,26.267 -35.312,54.406 27.25,-30.575 55.034,-36.127 81.188,-29.906 l -3.094,-28.063 z"
         class=""
         fill="#fc88fc"
         fill-opacity="1"
         stroke="#000000"
         stroke-opacity="1"
         stroke-width="8"
         id="path11" />
      <path
         d="m 182.28,128.718 -10.03,90.97 c 8.553,-37.432 27.04,-73.21 54.875,-87.625 -15.038,-0.6 -30.02,-1.7 -44.844,-3.344 z"
         class=""
         fill="#fc88fc"
         fill-opacity="1"
         stroke="#000000"
         stroke-opacity="1"
         stroke-width="8"
         id="path13" />
      <path
         d="m 247.25,142.031 c -34.87,17.008 -72.704,109.172 -38.156,162.907 -23.665,3.18 -37.152,-6.345 -43.406,-26 l -4.313,39.125 c 9.257,32.188 30.822,44 56.844,44 -12.7,21.47 -47.05,23.77 -62.94,11.188 l -1.655,15.188 c 10.71,28.704 37.626,43.795 74.344,42.093 -18.365,23.685 -30.833,24.123 -63.064,14 39.07,48.74 103.567,18.582 119.125,-31.53 13.896,22.31 -2.982,63.977 -44.374,67.75 82.914,13.18 105.38,-62.936 57.125,-124.406 21.172,2.414 47.277,11.1 62.314,38.312 l -10.813,-98.22 c -25.328,-31.6 -75.52,-19.695 -66.56,-46.373 4.55,-13.55 34.584,-16.545 42.03,11.093 12.44,-41.053 -37.255,-49.697 -52.563,-29.78 16.442,-29.484 50.19,-27.943 69.125,-7.157 l -5.03,-45.5 c -33.345,-13.155 -72.762,8.446 -89.188,52.655 -12.81,-21.176 -21.274,-66.546 1.156,-89.344 z"
         class="selected"
         fill="url(#gradient-5)"
         stroke="#000000"
         stroke-opacity="1"
         stroke-width="8"
         id="path15"
         style="fill:url(#gradient-5)" />
      <path
         d="m 339.28,397.251 c 9.187,42.963 -7.44,81.635 -44.81,93 l 75.217,0.25 L 363,429.875 c -7.54,-14.486 -14.178,-24.364 -23.72,-32.625 z"
         class=""
         fill="#fc88fc"
         fill-opacity="1"
         stroke="#000000"
         stroke-opacity="1"
         stroke-width="8"
         id="path17" />
      <path
         d="m 146.813,450.031 -4.5,40.845 h 67.843 c -27.745,-8.302 -48.728,-18.543 -63.344,-40.844 z"
         class=""
         fill="#fc88fc"
         fill-opacity="1"
         stroke="#000000"
         stroke-opacity="1"
         stroke-width="8"
         id="path19" />
    </g>
  </g>
</svg>
