<svg xmlns="http://www.w3.org/2000/svg" viewBox="0 0 512 512" style="height: 64px; width: 64px;"><defs><radialGradient id="delapouite-notebook-gradient-1"><stop offset="0%" stop-color="#4a4a4a" stop-opacity="1"></stop><stop offset="100%" stop-color="#4a4a4a" stop-opacity="1"></stop></radialGradient><radialGradient id="delapouite-notebook-gradient-2"><stop offset="0%" stop-color="#ffe0af" stop-opacity="1"></stop><stop offset="100%" stop-color="#d3bb97" stop-opacity="1"></stop></radialGradient><radialGradient id="delapouite-notebook-gradient-3"><stop offset="0%" stop-color="#ffffff" stop-opacity="1"></stop><stop offset="100%" stop-color="#ffffff" stop-opacity="1"></stop></radialGradient><radialGradient id="delapouite-notebook-gradient-4"><stop offset="0%" stop-color="#ffffff" stop-opacity="1"></stop><stop offset="100%" stop-color="#ffffff" stop-opacity="1"></stop></radialGradient><radialGradient id="delapouite-notebook-gradient-5"><stop offset="0%" stop-color="#ffe0af" stop-opacity="1"></stop><stop offset="100%" stop-color="#fde9ca" stop-opacity="1"></stop></radialGradient><radialGradient id="delapouite-notebook-gradient-6"><stop offset="0%" stop-color="#ffffff" stop-opacity="1"></stop><stop offset="100%" stop-color="#ffffff" stop-opacity="1"></stop></radialGradient><radialGradient id="delapouite-notebook-gradient-7"><stop offset="0%" stop-color="#8b572a" stop-opacity="1"></stop><stop offset="100%" stop-color="#612e03" stop-opacity="1"></stop></radialGradient><radialGradient id="delapouite-notebook-gradient-8"><stop offset="0%" stop-color="#8b572a" stop-opacity="1"></stop><stop offset="100%" stop-color="#7f3e04" stop-opacity="1"></stop></radialGradient><radialGradient id="delapouite-notebook-gradient-9"><stop offset="0%" stop-color="#ffffff" stop-opacity="1"></stop><stop offset="100%" stop-color="#ffffff" stop-opacity="1"></stop></radialGradient><radialGradient id="delapouite-notebook-gradient-10"><stop offset="0%" stop-color="#ffffff" stop-opacity="1"></stop><stop offset="100%" stop-color="#ffffff" stop-opacity="1"></stop></radialGradient><radialGradient id="delapouite-notebook-gradient-11"><stop offset="0%" stop-color="#ffffff" stop-opacity="1"></stop><stop offset="100%" stop-color="#ffffff" stop-opacity="1"></stop></radialGradient><radialGradient id="delapouite-notebook-gradient-12"><stop offset="0%" stop-color="#8b572a" stop-opacity="1"></stop><stop offset="100%" stop-color="#b57204" stop-opacity="1"></stop></radialGradient><radialGradient id="delapouite-notebook-gradient-13"><stop offset="0%" stop-color="#ffffff" stop-opacity="1"></stop><stop offset="100%" stop-color="#ffffff" stop-opacity="1"></stop></radialGradient><radialGradient id="delapouite-notebook-gradient-14"><stop offset="0%" stop-color="#ffe0af" stop-opacity="1"></stop><stop offset="100%" stop-color="#fde9ca" stop-opacity="1"></stop></radialGradient><radialGradient id="delapouite-notebook-gradient-15"><stop offset="0%" stop-color="#ffffff" stop-opacity="1"></stop><stop offset="100%" stop-color="#ffffff" stop-opacity="1"></stop></radialGradient></defs><g class="" transform="translate(0,0)" style=""><g><path d="M131.3 20.35C116.7 20.45 103.2 30.35 99.37 45.17C97.04 54.3 98.82 63.57 103.5 71.01C95.83 75.27 89.81 82.54 87.47 91.67C85.15 100.8 86.91 110 91.57 117.5C83.624 121.857 77.844 129.318 75.61 138.1C73.27 147.2 75.07 156.5 79.79 163.9C72.07 168.2 66.04 175.4 63.7 184.6C61.37 193.7 63.16 203 67.89 210.4C60.17 214.7 54.14 221.9 51.8 231.1C49.46 240.2 51.26 249.5 55.98 256.9C48.26 261.2 42.23 268.4 39.9 277.6C37.56 286.7 39.36 296 44.08 303.4C36.36 307.7 30.33 314.9 27.99 324.1C25.64 333.3 27.48 342.6 32.29 350.1C24.197 354.456 18.295 361.998 16.01 370.9C11.53 388.4 22.26 406.5 39.8 411L39.9 410.8L71.61 419L70.14 424.7L331.7 491.7L374 326.5L351.6 347.7L263.8 374.2L279.3 331.7L127.6 292.9L132 275.5L285.5 314.8L295.2 288.1L310.5 273.7L143.5 230.9L147.9 213.5L325.9 259.1L365.5 221.7L159.4 168.9L163.8 151.5L380.7 207L380.6 207.4L412.1 177.6L430.4 106.2L168.8 39.16L164 57.82C166.2 41.5 155.9 25.55 139.5 21.38C136.8 20.68 134 20.34 131.3 20.35Z" class="selected" fill="url(#delapouite-notebook-gradient-2)" stroke="#4a4a4a" stroke-opacity="1" stroke-width="8"></path><path d="M131.6 38.34C132.8 38.34 134 38.53 135.1 38.82C143.2 40.91 148 48.95 145.9 57.09L163.1 61.49L152.1 104.3C154.3 87.95 143.9 72.04 127.6 67.87L127 67.72C119.2 65.38 114.8 57.57 116.8 49.65C118.5 43.04 124.1 38.65 130.5 38.35L131.6 38.35Z" class="" fill="url(#delapouite-notebook-gradient-3)" stroke="#4a4a4a" stroke-opacity="1" stroke-width="8"></path><path d="M119.7 84.85C120.6 84.85 121.6 84.99 122.6 85.21L123.2 85.36C131.3 87.44 136.1 95.48 134 103.6L151.2 108L140.2 151C142.6 134.6 132.2 118.4 115.8 114.3C115.1 114.1 114.5 113.9 113.9 113.8C106.9 111.1 103 103.7 104.9 96.18C106.6 89.21 112.8 84.73 119.7 84.89Z" class="" fill="url(#delapouite-notebook-gradient-4)" stroke="#4a4a4a" stroke-opacity="1" stroke-width="8"></path><path d="M179.6 89.44L396.6 145.1L392.2 162.5L175.2 106.9Z" class="" fill="url(#delapouite-notebook-gradient-5)" stroke="#4a4a4a" stroke-opacity="1" stroke-width="8"></path><path d="M106.7 131.3L108 131.3C108.5 131.3 108.9 131.3 109.4 131.4C110 131.6 110.6 131.7 111.2 131.9L111.3 131.7C119.4 133.8 124.2 141.8 122.1 150L139.3 154.4L128.3 197.4C130.6 181.1 120.2 165 103.9 160.8C95.72 158.7 90.96 150.7 93.05 142.5C94.74 135.9 100.3 131.6 106.7 131.3Z" class="" fill="url(#delapouite-notebook-gradient-6)" stroke="#4a4a4a" stroke-opacity="1" stroke-width="8"></path><path d="M465.4 152L455.2 161.6L486.8 195.1L497 185.5Z" class="" fill="url(#delapouite-notebook-gradient-7)" stroke="#4a4a4a" stroke-opacity="1" stroke-width="8"></path><path d="M442.1 174L315.7 293.5L347.2 327L473.7 207.5Z" class="" fill="url(#delapouite-notebook-gradient-8)" stroke="#4a4a4a" stroke-opacity="1" stroke-width="8"></path><path d="M94.87 177.7C96.35 177.7 97.87 177.8 99.4 178.2C107.5 180.3 112.3 188.3 110.2 196.5L127.4 200.9L116.4 243.9C118.7 227.5 108.3 211.5 91.96 207.3C83.82 205.2 79.06 197.2 81.14 189C82.84 182.4 88.46 178 94.87 177.7Z" class="" fill="url(#delapouite-notebook-gradient-9)" stroke="#4a4a4a" stroke-opacity="1" stroke-width="8"></path><path d="M82.96 224.2C84.44 224.2 85.96 224.3 87.49 224.7C95.63 226.8 100.4 234.8 98.3 243L115.5 247.4L104.5 290.3C106.8 274 96.4 258 80.05 253.8C71.91 251.7 67.16 243.7 69.24 235.5C70.93 228.9 76.55 224.5 82.96 224.2Z" class="" fill="url(#delapouite-notebook-gradient-10)" stroke="#4a4a4a" stroke-opacity="1" stroke-width="8"></path><path d="M71.06 270.7C72.54 270.7 74.06 270.8 75.59 271.2C83.72 273.3 88.48 281.3 86.4 289.5L103.6 293.8L92.66 336.6C94.82 320.3 84.41 304.5 68.15 300.3C60.01 298.2 55.25 290.2 57.33 282C59.03 275.4 64.65 271 71.06 270.7Z" class="" fill="url(#delapouite-notebook-gradient-11)" stroke="#4a4a4a" stroke-opacity="1" stroke-width="8"></path><path d="M306.4 309.9L293 346.6L330.4 335.3Z" class="" fill="url(#delapouite-notebook-gradient-12)" stroke="#4a4a4a" stroke-opacity="1" stroke-width="8"></path><path d="M59.15 317.2C60.63 317.2 62.15 317.3 63.68 317.7C71.82 319.8 76.58 327.8 74.49 336L91.7 340.3L80.7 383.3C82.8 367.1 72.4 351.3 56.17 347.1L56.27 346.8C48.11 344.7 43.35 336.7 45.43 328.5C47.12 321.9 52.74 317.5 59.15 317.2Z" class="" fill="url(#delapouite-notebook-gradient-13)" stroke="#4a4a4a" stroke-opacity="1" stroke-width="8"></path><path d="M116.1 337.5L333.2 393L328.8 410.4L111.7 354.9Z" class="" fill="url(#delapouite-notebook-gradient-14)" stroke="#4a4a4a" stroke-opacity="1" stroke-width="8"></path><path d="M47.18 364C48.66 364 50.18 364.1 51.7 364.5C59.84 366.6 64.6 374.6 62.52 382.8L79.72 387.1L76.03 401.5L44.11 393.3L44.11 393.5C36.1 391.3 31.44 383.4 33.5 375.3C35.2 368.7 40.82 364.3 47.23 364Z" class="" fill="url(#delapouite-notebook-gradient-15)" stroke="#4a4a4a" stroke-opacity="1" stroke-width="8"></path></g></g></svg>