<?xml version="1.0" encoding="utf-8"?>
<!DOCTYPE svg PUBLIC "-//W3C//DTD SVG 1.1//EN" "http://www.w3.org/Graphics/SVG/1.1/DTD/svg11.dtd">
<svg version="1.1" xmlns="http://www.w3.org/2000/svg" xmlns:xlink="http://www.w3.org/1999/xlink" x="0px" y="0px"
	 width="515.555px" height="427.995px" viewBox="0 0 515.555 427.995" enable-background="new 0 0 515.555 427.995"
	 xml:space="preserve">
<g id="Layer_1">
</g>
<g id="Layer_2">
	<rect x="243.889" y="96.11" fill="#FFFFFF" width="30.833" height="51.333"/>
	<path fill="#FFFFFF" stroke="#000000" stroke-width="2" d="M257.725,139.501c1.609-8.444,0.831-17.159,2.681-25.575
		c1.918-8.724,5.432-17.1,7.675-25.763c1.294-4.997,5.644-37.711,17.359-28.295c4.705,3.781,0.627,11.393-1.038,15.689
		c-2.817,7.27-4.716,14.414-5.704,22.06c-0.471,3.647-2.015,7.153-2.867,10.723c-0.861,3.603-0.315,7.875-1.958,11.239
		c-1.304,2.672,1.21,7.949,0.706,11.693c-0.564,4.193-1.844,8.315-1.454,12.592"/>
	<path fill="#FFFFFF" stroke="#000000" stroke-width="2" d="M0.555,312.609c21.794,0,43.235-5.087,65.037-4.971
		c18.995,0.102,38.765,3.11,55.542-8.028c7.585-5.035,16.923-7.391,25.932-7.995c3.412-0.229,7.666-0.151,10.422-2.53
		c3.429-2.959,4.417-7.599,6.279-11.523c4.468-9.413,5.526-19.342,7.742-29.371c2.5-11.316,5.204-22.23,6.078-33.836
		c0.653-8.659-1.286-19.251,1.997-27.429c3.119-7.771,11-10.679,17.13-15.52c6.273-4.954,11.204-14.5,13.562-22.081
		c2.958-9.512,6.173-18.709,8.815-28.335c5.673-20.673,12.446-41.067,18.285-61.707c2.571-9.088,4.066-19.218,7.989-27.79
		c1.913-4.18,3.044-7.911,2.914-12.552c-0.136-4.835-0.98-10.707,2.245-14.817c3.817-4.865,11.586-3.531,15.498,0.471
		c5.768,5.901,6.671,17.891,5.549,25.57c-2.971,20.313-7.206,40.38-9.585,60.819c-1.043,8.96-1.934,18.38-4.102,27.105
		c-2.25,9.058-5.171,17.406-5.773,26.763c-0.589,9.169-1.793,18.252-2.555,27.426c-0.37,4.456,1.288,9.19,1.264,13.743
		c-0.03,5.998-0.524,11.979-0.985,17.956c-0.792,10.277-0.952,20.474-0.433,30.77c0.545,10.823,2.642,20.718,4.541,31.323
		c1.773,9.899,2.987,20.678,2.634,30.737c-0.3,8.548-0.035,18.242-3.329,26.271c-7.155,17.443-28.424,28.697-43.692,37.702
		c-17.742,10.465-36.977,20.118-57.233,24.511c-12.642,2.742-25.348,3.965-37.917,7.333c-12.731,3.411-25.558,6.354-38.323,9.622
		c-12.752,3.267-25.125,7.866-37.872,11.07c-12.536,3.15-25.391,4.762-37.989,7.627"/>
	<path fill="#FFFFFF" stroke="#000000" stroke-width="2" d="M512.222,310.777c-21.274,5.539-43.418,5.348-65.18,7.205
		c-10.821,0.924-21.839,1.529-32.511,3.647c-6.511,1.292-12.838,3.69-19.267,5.523c-1.284,0.367-2.572,0.707-3.856,0.988
		c-15.021,0.635-36.021,3.635-40.697-13.085c-0.695-0.889-1.478-1.71-2.305-2.493c-1.654-1.564-3.491-2.971-5.178-4.43
		c-12.441-10.759-17.097-28.134-21.746-43.25c-6.059-19.693-13.114-38.974-18.023-59.022c-2.478-10.119-4.429-19.887-4.151-30.353
		c0.297-11.178,1.206-22.221,0.216-33.402c-1.921-21.699-9.85-42.323-13.582-63.715c-1.598-9.156-2.548-16.977-1.771-26.228
		c0.555-6.614-0.589-18.82-10.325-16.62c-15.939,3.603-15.574,31.893-15.178,44.108c0.648,19.95,5.743,39.494,5.722,59.447
		c-0.005,5.389-0.171,10.782,0.078,16.168c0.219,4.725,1.499,9.691,0.639,14.403c-0.794,4.345-3.135,8.291-4.352,12.52
		c-1.503,5.223-2.641,10.332-4.782,15.367c-2.647,6.222-8.309,12.618-12.898,17.491c-5.135,5.452-10.18,16.532-7.882,23.885
		c2.57,8.225,9.246,14.362,12.136,22.449c3.496,9.783,9.273,16.892,9.378,27.622c0.098,9.934-0.715,19.591-3.089,29.258
		c-2.46,10.017-2.739,16.273,1.98,25.784c8.094,16.311,17.41,35.23,32.434,46.162c6.803,4.95,14.472,8.509,22.124,11.92
		c9.668,4.31,19.121,9.303,29.021,13.055c14.095,5.343,27.795,3.127,42.432,3.611c14.787,0.489,29.254,4.198,43.984,5.391
		c14.673,1.188,29.445,1.83,44.146,2.645c15.429,0.855,30.448-1.887,45.816-1.887"/>
	<path fill="#FFFFFF" stroke="#000000" stroke-width="2" d="M242.389,143.61c4.831-2.647,9.465-5.209,14.4-7.738
		c4.451-2.28,8.917-7.275,14.087-7.215c6.916,0.081,8.629,3.987,12.559,8.628c3.67,4.335,7.666,8.577,11.148,13
		c3.622,4.597,6.267,9.354,9.422,14.37c2.839,4.508,5.229,10.029,8.514,14.162c3.591,4.52,2.799,9.881,3.741,15.245
		c1.001,5.698,3.935,11.16,6.194,16.448c1.957,4.581,4.27,8.642,1.095,13.333c-2.888,4.267-8.74,4.98-13.2,2.892
		c-11.227-5.258-12.463-14.718-19.257-23.954c-3.645-4.952-6.594-10.345-10.295-15.309c-3.358-4.5-5.085-9.558-8.617-13.934
		c-3.277-4.06-4.031-8.863-9.211-11.16c-3.77-1.671-9.631-2.674-12.914,0.564"/>
	<path fill="#FFFFFF" stroke="#000000" stroke-width="2" d="M205.654,160.231c4.734-6.455,11.734-10.455,17.408-16.085
		c0.974-0.872,1.942-1.751,2.919-2.619c7.586-6.742,14.18-12.188,23.889-5.042c4.411,3.246,9.219,5.892,13.761,8.941
		c4.159,2.793,6.836,6.404,10.55,9.559c7.403,6.289,15.151,12.738,23.558,17.623c5.655,3.285,19.653,6.023,13.771,15.747
		c-5.293,8.75-20.328,3.927-27.43,1.106c-8.768-3.482-14.999-10.321-23.835-13.628c-1.396-0.522-2.799-0.953-4.211-1.306
		c-1.414-0.353-2.837-0.628-4.279-0.835c-8.366-1.914-15.366-1.914-23.063-0.32"/>
	<path fill="#FFFFFF" stroke="#000000" stroke-width="2" d="M284.4,201.628c-4.012-7.852-10.012-15.852-15.282-23.985
		c-0.744-0.831-1.473-1.697-2.198-2.575c-2.178-2.635-4.326-5.384-6.756-7.667c-6.552-6.153-13.097-10.776-21.417-4.696
		c-6.074,4.438-9.339,15.288-11.512,22.156c-2.685,8.483-4.98,16.846-5.304,25.851c-0.133,3.725-0.656,6.546,2.943,8.634
		c1.647,0.955,3.297,1.887,4.928,2.832c4.425,2.1,7.97,6.036,11.94,9.479c0.284,0.246,0.568,0.489,0.851,0.726
		c1.795,0.394,2.795,2.394,4.734,3.064"/>
	<path fill="#FFFFFF" stroke="#000000" stroke-width="2" d="M279.889,224.11c-7.941-3.416-12.113-10.582-18.088-16.129
		c-3.305-3.067-7.159-5.445-10.774-8.113c-3.991-2.945-7.965-7.145-13.42-6.172c-7.398,1.318-11.104,10.026-13.974,16.019
		c-3.439,7.183-9.124,13.48-10.8,21.395c-1.661,7.84,0.38,16.092,5.451,22.289c2.431,2.972,5.477,5.41,8.864,7.207
		c2.65,2.823,3.966,6.346,7.094,8.854c5.839,4.682,15.183,2.75,14.217-6.239c-0.462-4.299-1.808-8.684-2.37-13.07
		c-0.538-4.204-0.568-8.883-4.868-10.624"/>
</g>
<g id="Layer_3">
	<path fill="none" stroke="#000000" d="M250.055,242.443c-1.188,0.269-3.074-0.997-4.165-1.5c-2.97-1.37-6.298-2.164-8.082-5.188
		c-1.416-2.4-1.46-5.278-1.542-7.983"/>
	<path fill="none" stroke="#000000" d="M226.465,243.679c4.923-0.902,11.923,3.098,15.173-4.215"/>
	<path fill="none" stroke="#000000" stroke-width="0.5" d="M252.638,245.151c-1.247,0-2.236-1.354-2.375-2.5
		c-0.164-1.354,0.656-2.501,1.625-3.125"/>
	<path fill="none" stroke="#000000" stroke-width="0.25" d="M231.138,200.651c-0.242,1.93-0.15,3.322,0.66,5.088
		c0.629,1.371,2.22,2.05,2.715,3.412"/>
	<path fill="none" stroke="#000000" stroke-width="0.25" d="M238.013,207.276c-2.336-2.843-2.276-6.509-1.75-9.875"/>
	<path fill="none" stroke="#000000" stroke-width="0.25" d="M243.263,207.651c2.11-0.117,3.213-2.225,3.508-4.011
		c0.161-0.975-0.008-2.128-0.008-3.114"/>
	<path fill="none" stroke="#000000" stroke-width="0.25" d="M245.763,210.401c1.342-0.907,1.884-1.679,2.414-3.28
		c0.502-1.517,0.221-3.153,0.711-4.595"/>
	<path fill="none" stroke="#000000" stroke-width="0.25" d="M238.638,177.526c-0.796-0.847-1.785-0.945-2.218-2.179
		c-0.52-1.481-0.282-3.673-0.282-5.196"/>
	<path fill="none" stroke="#000000" stroke-width="0.25" d="M240.513,175.901c-1.399-2.028-1.125-3.999-1.125-6.375"/>
	<path fill="none" stroke="#000000" stroke-width="0.25" d="M255.138,174.276c1.553-0.657,3.96-3.204,3.125-5"/>
	<path fill="none" stroke="#000000" stroke-width="0.25" d="M256.388,178.901c1.393-1.57,3.443-4.187,3.125-6.5"/>
	<path fill="none" stroke="#000000" stroke-width="0.25" d="M226.513,106.276c1.19,0.203,3.648-0.813,4.639-1.503
		c0.729-0.507,1-1.378,1.611-1.997"/>
	<path fill="none" stroke="#000000" stroke-width="0.25" d="M226.638,103.151c1.726-0.551,3.456-1.036,4.125-2.75"/>
	<path fill="none" stroke="#000000" stroke-width="0.25" d="M230.638,88.901c0.454,0.707,0.939,1.407,1.125,2.278
		c0.142,0.667,0.008,1.54,0.25,2.097"/>
	<path fill="none" stroke="#000000" stroke-width="0.25" d="M234.763,92.776c-0.118-1.199-0.934-2.211-1.349-3.212
		c-0.249-0.6-0.294-1.302-0.626-1.884c-0.344-0.602-0.837-0.85-1.399-1.154"/>
	<path fill="none" stroke="#000000" stroke-width="0.25" d="M294.388,134.026c-0.104-1.443,0.883-3.261,1.875-4.375"/>
	<path fill="none" stroke="#000000" stroke-width="0.25" d="M293.388,129.276c0.08-0.913,0.964-1.969,1.875-2"/>
	<path fill="none" stroke="#000000" stroke-width="0.25" d="M294.513,139.401c0.41,1.455,0.472,2.777,2.125,3.25"/>
	<path fill="none" stroke="#000000" stroke-width="0.25" d="M295.638,144.151c0.974,0.096,1.519,0.757,2.375,1"/>
	<path fill="none" stroke="#000000" stroke-width="0.25" d="M282.513,78.026c0.243-0.418,0.268-0.917,0.531-1.343
		c0.271-0.438,0.816-0.727,1.094-1.157"/>
	<path fill="none" stroke="#000000" stroke-width="0.25" d="M283.263,81.151c0.09,0.303,0.28,0.632,0.5,0.875"/>
	<path fill="none" stroke="#000000" stroke-width="0.25" d="M242.138,50.401c0.881-0.375,2.692-1.394,2.875-2.5"/>
	<path fill="none" stroke="#000000" stroke-width="0.25" d="M244.388,40.526c0.836,0.627,1.239,1.909,1.375,2.875"/>
	<path fill="none" stroke="#000000" stroke-width="0.25" d="M280.388,137.651c0.861,0.125,1.372-0.534,1.625-1.25"/>
	<path fill="none" stroke="#000000" stroke-width="0.25" d="M281.888,140.276c0.666,0.448,1.412-0.526,1.75-1.125"/>
	<path fill="none" stroke="#000000" stroke-width="0.25" d="M263.763,134.151c-0.468-0.438-0.64-1.349-0.375-1.875"/>
	<path fill="none" stroke="#000000" stroke-width="0.25" d="M265.388,133.026c-0.14-0.688-0.358-1.276-0.375-2"/>
	<path fill="none" stroke="#000000" stroke-width="0.25" d="M251.763,138.401c0.092,0.917-0.093,1.576-0.875,2.125"/>
	<path fill="none" stroke="#000000" stroke-width="0.25" d="M249.263,139.276c0.677-0.605,0.926-1.324,1-2.25"/>
	<path fill="none" stroke="#000000" stroke-width="0.25" d="M231.263,139.901c-0.07-0.162-0.177-1.013-0.125-1.5"/>
	<path fill="none" stroke="#000000" stroke-width="0.25" d="M230.513,141.776c-0.391-0.654-0.755-1.411-0.875-2.125"/>
	<path fill="none" stroke="#000000" stroke-width="0.25" d="M272.138,154.526c-0.449,1.536-0.756,1.802-0.062,3.14
		c0.39,0.751,0.684,1.494,0.938,2.36"/>
	<path fill="none" stroke="#000000" stroke-width="0.25" d="M276.138,161.151c-1.47-0.91-1.626-3.246-1.625-4.875"/>
	<path fill="none" stroke="#000000" stroke-width="0.25" d="M284.263,164.276c-0.988,0.719-1.46,1.542-2.875,1"/>
	<path fill="none" stroke="#000000" stroke-width="0.25" d="M279.888,163.901c0.769,0.08,2.213-0.589,2.5-1.125"/>
</g>
<g id="Layer_4">
	<path fill="#DBDBDB" stroke="#000000" stroke-width="0.5" d="M252.392,21.029c0.671-2.606,0.875-5.305,1.582-7.904
		c0.562-2.068,1.037-4.045-0.503-5.798c-0.957-1.089-3.018-2.967-4.49-1.629c-1.065,0.969-1.285,2.712-1.519,4.05
		c-0.719,4.124-0.718,8.574-0.092,12.721c0.127,0.841,0.41,2.952,1.632,2.911C250.712,25.323,252.042,22.385,252.392,21.029"/>
	<path fill="#DBDBDB" stroke="#000000" stroke-width="0.5" d="M283.745,53.726c-0.194,1.044-0.542,7.552-2.357,6.868
		c-3.593-1.356-2.778-8.123-3.188-11.041c-0.325-2.313-0.313-10.224,4.292-8.097C285.844,43.004,284.257,50.982,283.745,53.726"/>
	<path fill="#DBDBDB" stroke="#000000" stroke-width="0.5" d="M295.313,170.938c-1.438-0.221-3.376-0.376-2.119,1.489
		c1.084,1.608,2.974,2.784,4.502,3.922c2.779,2.069,6.842,5.645,10.466,3.831c1.138-0.569,3.469-1.257,2.174-2.532
		c-1.118-1.1-2.728-1.656-4.152-2.23C302.493,173.932,299.35,171.56,295.313,170.938"/>
	<path fill="#DBDBDB" stroke="#000000" stroke-width="0.5" d="M324.834,213.35c-0.255-2.045-1.02-4.001-1.934-5.835
		c-0.76-1.524-1.592-3.221-2.722-4.499c-0.756-0.854-1.581-1.741-2.546-2.359c-1.791-1.148-1.679,0.534-2.003,1.941
		c-1.068,4.624-0.367,10.326,2.307,14.332c1.037,1.553,2.628,2.095,4.434,2.097C325.032,219.028,325.579,215.271,324.834,213.35"/>
</g>
</svg>
