<?xml version="1.0" encoding="utf-8"?>
<!DOCTYPE svg PUBLIC "-//W3C//DTD SVG 1.1//EN" "http://www.w3.org/Graphics/SVG/1.1/DTD/svg11.dtd">
<svg version="1.1" xmlns="http://www.w3.org/2000/svg" xmlns:xlink="http://www.w3.org/1999/xlink" x="0px" y="0px"
	 width="520.595px" height="422.842px" viewBox="0 0 520.595 422.842" enable-background="new 0 0 520.595 422.842"
	 xml:space="preserve">
<g id="Layer_1">
</g>
<g id="Layer_6">
	<g id="Layer_2">
		<path fill="#FFFFFF" stroke="#000000" stroke-width="2" d="M179.5,128.342c-6.036,3.6-9.251,10.481-15.714,13.532
			c-5.625,2.655-8.718,5.962-5.684,12.521c4.678,10.114,20.773,3.819,28.897,3.447"/>
		<path fill="#FFFFFF" stroke="#000000" stroke-width="2" d="M319,131.342c2.459,11.062,8.705,20.727,14.786,30.105
			c3.836,5.917,11.089,22.949,20.615,19.81c6.07-2.001,2.749-6.712,0.823-10.657c-2.688-5.503-2.209-10.282-3.1-15.983
			c-0.75-4.815-4.994-9.112-6.979-13.467c-2.023-4.439-3.745-10.855-4.646-15.683"/>
		<path fill="#FFFFFF" stroke="#000000" stroke-width="2" d="M0,421.842c10.14,0,20.304-1.38,30.002-4.374
			c10.431-3.219,21.782-2.077,32.524-3.29c21.475-2.426,42.414-6.298,63.696-9.762c10.12-1.647,20.112-2.279,30.001-5.214
			c10.22-3.033,20.159-6.908,30.338-10.059c17.075-5.285,35.749-8.53,49.979-20.13c7.34-5.982,12.317-14.077,16.877-22.248
			c2.208-3.957,3.123-8.405,4.405-12.705c1.645-5.519,4.97-10.313,7.246-15.562c3.905-9.006,6.591-18.562,11.46-27.134
			c4.593-8.085,10.848-15.408,13.389-24.517c2.758-9.887,1.379-20.396,3.505-30.397c2.311-10.873,5.858-21.484,7.268-32.542
			c1.324-10.395,1.477-20.913,3.718-31.184c1.924-8.817,5.131-19.785-1.6-27.4c-4.908-5.554-12.521-8.918-18.689-12.847
			c-8.094-5.156-16.577-9.333-24.936-14.005c-7.4-4.137-13.928-7.436-22.552-6.956c-8.931,0.496-17.388-1.544-25.944,2.126
			c-15.561,6.674-24.894,21.73-30.528,36.96c-6.587,17.804-11.941,36.781-16.489,55.208c-2.17,8.796-3.792,17.699-4.801,26.7
			c-1.006,8.974-2.387,17.574-9.393,23.88c-5.499,4.948-9.924,9.516-14.396,15.427c-5.495,7.265-11.497,8.936-20.323,9.731
			c-20.949,1.891-42.139,2.438-63.091,0.29c-9.391-0.963-18.931-1.966-28.197-3.789c-6.703-1.32-15.433-3.916-21.97-0.708"/>
		<path fill="#FFFFFF" stroke="#000000" stroke-width="2" d="M518.5,410.342c-22.69,0.011-45.232-2.932-67.722-5.617
			c-21.883-2.614-44.002-2.602-65.842-5.633c-10.837-1.504-21.546-3.353-32.278-5.458c-10.48-2.057-19.944-6.126-30.175-8.965
			c-19.493-5.407-39.581-10.112-54.906-24.415c-12.898-12.037-15.398-30.215-16.782-46.885c-0.87-10.484-2.079-20.951-2.87-31.438
			c-0.659-8.741,3.354-18.185-0.407-26.315c-18.552-40.107-8.588-83.713-0.509-125.13c1.81-9.281,3.329-18.757,5.755-27.901
			c1.732-6.527,4.722-13.374,11.698-15.442c11.728-3.478,29.662,1.043,39.004,8.822c6.991,5.821,10.273,14.602,16.576,21.021
			c5.791,5.898,12.743,10.689,19.115,15.932c7.139,5.873,9.251,10.651,9.212,19.782c-0.021,4.835,1.624,9.256,2.416,13.979
			c0.986,5.885,1.59,11.842,2.414,17.752c1.326,9.514,2.674,19.019,3.425,28.599c0.584,7.442,0.972,15.981,5.055,22.489
			c4.377,6.977,12.988,9.762,17.45,16.723c4.3,6.71,10.223,11.114,18.364,11.495c8.992,0.42,19.295-0.735,27.942-3.257
			c9.704-2.828,18.82-4.204,28.946-4.968c10.299-0.776,20.639-1.082,30.964-0.764c11.773,0.362,23.463-1.292,35.154-2.405"/>
		<path fill="#FFFFFF" stroke="#000000" stroke-width="2" d="M334,126.342c4.598,3.118,10.469,1.979,15.553,1.06
			c6.205-1.123,11.795,0.501,17.414-3.093c9.996-6.394-4.719-16.54-7.188-23.149c-2.006-5.362-2.188-10.93-2.711-16.561
			c-0.55-5.919-2.55-11.723-4.866-17.162c-5.307-12.461-15.084-22.618-25.018-31.549c-9.405-8.457-21.105-13.617-31.346-20.899
			C286.671,8.47,276.398-1.27,264.131,1.477C253.886,3.77,248.433,14.2,243.912,22.676c-5.38,10.087-7.438,26.343-2.412,37.167"/>
		<path fill="#FFFFFF" stroke="#000000" stroke-width="2" d="M163.5,122.842c-1.428-14.689,0.588-27.829,6.443-41.42
			c5.684-13.195,12.44-25.887,18.174-39.078c2.458-5.654,5.364-11.209,9.639-15.719c4.147-4.376,9.667-10.602,15.829-11.745
			c11.506-2.134,22.166,8.709,29.367,16.171c9.479,9.822,20.369,18.83,16.028,34.103c-2.17,7.635-6.973,14.229-12.242,20.036
			c-2.693,2.968-5.561,5.771-8.472,8.524c-1.368,1.293-3.004,2.51-4.218,3.946c-1.449,1.715-0.628,3.878-1.173,5.933"/>
		<path fill="#FFFFFF" stroke="#000000" stroke-width="2" d="M223,76.342c2.637-7,7.147-13.035,11.364-19.136
			c3.489-5.048,6.964-10.726,12.856-13.235c13.146-5.598,29.025,2.929,41.059,7.824c14.838,6.035,30.471,12.985,43.907,21.766
			c5.51,3.601,10.319,8.297,12.529,14.63c2.272,6.515,3.759,13.317,5.288,20.02c0.322,1.416,1.371,2.479,2.201,3.616
			c0.97,1.332,1.698,2.73,2.478,4.187c1.828,3.421,3.812,6.762,6.007,9.962c2.992,4.364,2.998,9.374-0.854,13.432
			c-6.716,7.072-19.702,6.956-27.005,1.064c-5.231-4.221-9.129-9.804-14.393-14.021c-6.26-5.016-13.162-9.541-20.428-12.965
			c-5.158-2.431-11.02-4.272-15.157-8.383c-4.846-4.815-9.718-4.022-13.853,1.74"/>
		<path fill="#FFFFFF" stroke="#000000" stroke-width="2" d="M300,115.342c-2.731-0.62-4.853-2.984-6.953-4.659
			c-2.834-2.259-6.242-3.707-9.307-5.613c-7.094-4.409-13.624-9.92-20.231-15.012c-10.54-8.123-21.387-16.519-34.488-20.004
			c-5.248-1.396-10.985-1.919-16.192-0.062c-6.666,2.378-11.219,8.603-16.731,12.753c-12.358,9.301-23.234,20.035-31.465,33.305
			c-7.981,12.866-7.88,27.713,0.852,40.222c6.116,8.763,27.334,10.379,26.99-3.478c-0.083-3.344,0.839-6.195,3.625-8.182
			c3.297-2.351,6.753-3.584,9.37-6.899c0.735-0.931,1.287-1.76,1.688-2.972c0.305-0.921,0.631-2.517,1.951-1.628
			c0.803,0.884,1.186,1.981,1.924,2.938c5.411,7.016,17.263,4.82,24.896,5.448c8.328,0.686,16.73,0.903,25.072,0.343"/>
		<path fill="#FFFFFF" stroke="#000000" stroke-width="2" d="M207,151.342c2.87-4.59,7.646-7.635,10.339-12.1
			c3.056-5.067,5.389-9.898,9.303-14.479c8.562-10.019,19.042-14.399,31.905-16.215c11.984-1.692,24.544-2.828,36.636-2.007
			c10.29,0.698,21.817,3.048,26.054,13.735c3.807,9.602,8.531,20.558,10.508,30.674c1.045,5.345-4.268,9.842-8.82,11.338
			c-5.88,1.932-10.783-0.537-16.152-2.637c-0.438-0.171-6.567-3.431-6.14-3.588c-5.438,2.007-11.448,1.215-17.104,1.844
			c-5.989,0.666-9.682,3.415-13.671,7.7c-3.964,4.258-8.651,7.705-12.357,12.236"/>
		<path fill="#FFFFFF" stroke="#000000" stroke-width="2" d="M274.5,159.342c-1.499,10.412-15.294,6.077-20.949,3.651
			c-9.9-4.247-17.663-10.905-28.379-13.469c-10.717-2.563-21.656-3.944-32.38-6.55c-9.209-2.237-18.675-2.617-24.994,5.652
			c-5.425,7.099-7.243,17.697-4.345,26.179c3.111,9.105,12.016,14.774,20.441,18.362c10.289,4.382,22.294,3.2,32.285,8.312
			c10.441,5.344,19.77,15.446,28.822,22.862"/>
	</g>
	<g id="Layer_3">
		<path fill="none" stroke="#000000" d="M313.333,110.842c1.324,0.076,2.227-0.512,3.395-0.985c-0.469,0.19-1.061,2.117-1.061,2.651
			"/>
		<path fill="none" stroke="#000000" stroke-width="2" d="M207.5,133.842c-0.543-1.476-0.413-2.717-1.198-4.118
			c-0.277-0.495-1.098-1.866-0.242-2.229c0.999-0.424,1.495,2.386,1.749,2.944c0.468,1.032,1.03,2.275,1.691,3.278"/>
		<path fill="none" stroke="#000000" d="M275.5,159.717c-1.891,0.199-3.439-0.823-5.355-0.731c0.062,1.184,3.714,1.59,4.73,1.481"/>
		<path fill="none" stroke="#000000" d="M207.25,73.467c-0.461-0.546-1.203-1.466-1.25-2.212c0,1.432-0.286,2.53-0.625,3.837"/>
		<path fill="none" stroke="#000000" stroke-width="2" d="M284.5,105.842c-1.356-1.195-2.522-2.472-3.55-3.963
			c-0.848-1.23-1.63-3.172-2.754-4.145c-0.063,1.066,0.115,2.294-0.196,3.275"/>
		<path fill="none" stroke="#000000" d="M286.5,51.676c0.027-1.047-0.391-2.624-0.666-3.617c0.126,1.345,1.662,2.125,1.499,3.95"/>
		<path fill="none" stroke="#000000" d="M299.249,155.843c2.341-0.87,4.038-1.591,5.832-3.258c-0.045,2.211-3.699,2.94-4.998,4.257"
			/>
	</g>
	<g id="Layer_4">
		<path fill="none" stroke="#000000" stroke-width="0.25" d="M222,176.842c5.495-0.503,11.01-9.845,11.5-14.5"/>
		<path fill="none" stroke="#000000" stroke-width="0.25" d="M204.5,173.842c0-7.683-0.355-16.088,8-19"/>
		<path fill="none" stroke="#000000" stroke-width="0.25" d="M226,180.842c7.696-0.909,6.391-9.817,9.5-14"/>
		<path fill="none" stroke="#000000" stroke-width="0.25" d="M198.5,172.342c1.334-3.089,0.727-6.706,1.477-9.936
			c0.848-3.651,3.665-5.881,6.023-8.564"/>
		<path fill="none" stroke="#000000" stroke-width="0.25" d="M261.5,110.842c1.51,4.412,4.031,18.125-0.5,21"/>
		<path fill="none" stroke="#000000" stroke-width="0.25" d="M247.5,132.342c-4.877-2.934-7.406-12.941-5.5-18.5"/>
		<path fill="none" stroke="#000000" stroke-width="0.25" d="M270,111.842c0.071,4.235,8.078,19.599-0.5,21"/>
		<path fill="none" stroke="#000000" stroke-width="0.25" d="M233.5,120.342c-0.97,6.933,4.721,10.241,7.5,15"/>
		<path fill="none" stroke="#000000" stroke-width="0.25" d="M316.5,130.342c-4.236-3.7-4.722-9.724-5.5-15"/>
		<path fill="none" stroke="#000000" stroke-width="0.25" d="M219.5,95.342c8.161,0.2,7.893-10.248,10.5-15"/>
		<path fill="none" stroke="#000000" stroke-width="0.25" d="M204.5,91.842c-0.003-5.917,0.864-10.756,4.5-14.5"/>
		<path fill="none" stroke="#000000" stroke-width="0.25" d="M227,99.842c6.257-2.57,6.68-11.394,7-17.5"/>
		<path fill="none" stroke="#000000" stroke-width="0.25" d="M200.5,100.842c-1.928-5.645-1.224-16.134,3-20"/>
		<path fill="none" stroke="#000000" stroke-width="0.25" d="M222.5,35.342c3.01-0.552,8.437-7.527,9-10.5"/>
		<path fill="none" stroke="#000000" stroke-width="0.25" d="M218.5,29.342c3.746-0.518,6.312-4.762,6.5-8.5"/>
		<path fill="none" stroke="#000000" stroke-width="0.25" d="M243,60.842c-2.777-2.271-4.238-5.653-4-9.5"/>
		<path fill="none" stroke="#000000" stroke-width="0.25" d="M247.5,52.842c-0.601-2.8-2.752-4.366-2-7.5"/>
		<path fill="none" stroke="#000000" stroke-width="0.25" d="M265.5,45.342c0,3.115,1.274,9.155-1.5,11"/>
		<path fill="none" stroke="#000000" stroke-width="0.25" d="M266,60.842c3.105-1.602,4.386-8.352,4-12"/>
		<path fill="none" stroke="#000000" stroke-width="0.25" d="M285.5,8.342c0.201,1.972-0.957,3.567-2.5,4.5"/>
		<path fill="none" stroke="#000000" stroke-width="0.25" d="M258,6.342c-0.407,1.797-0.165,3.36,1,4"/>
		<path fill="none" stroke="#000000" stroke-width="0.25" d="M288,10.842c-0.348,1.602-1.521,2.988-3,3.5"/>
		<path fill="none" stroke="#000000" stroke-width="0.25" d="M254.5,8.842c0.084,1.579,0.605,3.13,1.5,4.5"/>
		<path fill="none" stroke="#000000" stroke-width="0.25" d="M333,74.842c-1.519,2.383-2.813,5.164-1.5,8"/>
		<path fill="none" stroke="#000000" stroke-width="0.25" d="M338.5,90.342c1.966-1.5,1.773-3.811,2.5-6"/>
		<path fill="none" stroke="#000000" stroke-width="0.25" d="M342,56.342c-1.458,1.383-2.345,3.417-2,5.5"/>
		<path fill="none" stroke="#000000" stroke-width="0.25" d="M346,70.342c1.729-0.248,3.049-1.356,3.5-3"/>
		<path fill="none" stroke="#000000" stroke-width="0.25" d="M166.5,164.342c1.271-4.141,4.903-5.645,4.5-10.5"/>
		<path fill="none" stroke="#000000" stroke-width="0.25" d="M320.5,131.342c0-5.414-0.455-7.6-2.5-12"/>
	</g>
	<g id="Layer_5">
		<path fill="#DBDBDB" stroke="#000000" stroke-width="0.5" d="M357.695,177.342c3.113-5.912-0.68-16.364-4.612-21.098
			c-3.554-4.277-1.858,6.032-1.57,7.273c0.515,2.22,0.878,5.536,2.115,7.398C354.981,172.956,355.602,175.893,357.695,177.342"/>
		<path fill="#DBDBDB" stroke="#000000" stroke-width="0.5" d="M332.556,142.564c-0.555-2.172-1.908-3.943-3.41-5.555
			c-1.524-1.637-2.41-3.027-3.545-4.917c-0.204-0.339-0.67-1.334-1.158-1.356c-1.249-0.057,0.15,4.389,0.298,5.059
			c0.55,2.492,1.34,4.929,1.758,7.449c0.154,0.937,5.23,8.656,6.23,8.699C333.989,149.15,333.279,145.404,332.556,142.564"/>
		<path fill="#DBDBDB" stroke="#000000" stroke-width="0.5" d="M358.034,117.786c-1.604-2.403-2.871-4.888-4.738-7.118
			c-0.855-1.022-1.742-2.016-2.321-3.227c-0.463-0.969-0.876-2.22-1.827-2.833c0.52,2.129-0.184,4.327,0.398,6.528
			c0.581,2.194,0.731,4.349,1.644,6.454c1.701,3.923,3.186,7.938,4.954,11.853c0.547,1.211,1.521,3.122,3.1,3.128
			c1.729,0.008,2.746-2.573,3.129-3.924C363.575,124.411,360.188,121.014,358.034,117.786"/>
		<path fill="#DBDBDB" stroke="#000000" stroke-width="0.5" d="M360.01,93.588c-0.549-1.311-2.107-5.346-3.788-2.62
			c-0.797,1.294-0.588,3.578-0.532,5.061c0.068,1.826,0.514,3.697,0.971,5.458c0.963,3.709,2.403,7.312,4.185,10.703
			c1.066,2.03,2.422,3.41,4.74,3.882c1.724,0.352,5.255,0.032,4.6-2.551c-0.544-2.142-2.032-4.325-2.919-6.351
			C365.188,102.42,362.003,98.342,360.01,93.588z"/>
	</g>
</g>
</svg>
