<?xml version="1.0" encoding="utf-8"?>
<!DOCTYPE svg PUBLIC "-//W3C//DTD SVG 1.1//EN" "http://www.w3.org/Graphics/SVG/1.1/DTD/svg11.dtd">
<svg version="1.1" xmlns="http://www.w3.org/2000/svg" xmlns:xlink="http://www.w3.org/1999/xlink" x="0px" y="0px"
	 width="501.225px" height="411.911px" viewBox="0 0 501.225 411.911" enable-background="new 0 0 501.225 411.911"
	 xml:space="preserve">
<g id="Layer_1">
</g>
<g id="Layer_2">
	<path fill="#FFFFFF" d="M7.106,179.155c7.346,0.665,14.125,1.47,21.41,1.707c1.457,0.047,2.934,0.072,4.441,0.069
		c12.964,1.022,34.964-0.978,31.964-18.978c-1-6-3-11-5.402-15.519c-0.734-1.651-1.47-3.306-2.208-4.966
		c-7.375-16.595-14.909-33.606-22.622-50.226c-0.771-1.662-1.544-3.32-2.319-4.973c-0.681-1.165-1.371-2.402-2.08-3.677
		c-0.709-1.275-1.438-2.588-2.208-3.92c-5.162-7.72-13.162-22.72-23.162-14.72c-1.167,0.833-2.083,1.806-2.794,2.887
		c-0.71,1.081-1.214,2.271-1.556,3.539c-0.65,15.574,1.35,32.574,0.038,49.034c-0.065,1.594-0.146,3.218-0.223,4.865
		c-0.388,8.231-0.625,17.007-0.007,25.263c0.154,2.064,0.357,4.094,0.504,6.062c0.038,8.35-0.962,17.35,6.232,23.678"/>
	<path fill="#FFFFFF" d="M492.687,311.805c-6.766-2.852-14.766-4.852-23-5.333c-1.64-0.167-3.313-0.328-5.023-0.49
		c-1.711-0.103-3.428-0.153-5.142-0.169c-6.856-0.062-13.688,0.441-19.572,0.396c-4.156-0.032-7.494-0.62-11.625,0.3
		c-4.37,0.971-8.701,2.146-12.903,3.698c-7.915,2.922-15.246,7.266-21.238,13.245c-19.634,19.592,8.907,44.778,23.418,56.832
		c2.686,2.23,5.363,4.434,8.071,6.568c1.354,1.067,2.716,2.117,4.09,3.149c5.482,4.979,11.633,9.447,18.264,12.98
		c1.325,0.707,2.671,1.376,4.034,2.005c14.861-0.033,46.861,16.967,49.165-6.774c-0.126-1.26-0.37-2.511-0.653-3.762
		c-0.851-3.753-2.051-7.508-1.45-11.519c0.069-1.601,0.179-3.137,0.376-4.588c-0.061-1.347-0.127-2.688-0.193-4.03
		c-0.2-4.026-0.403-8.052-0.539-12.08c-0.25-7.438,0.949-15.615,0.433-23.208c-0.103-1.519-0.264-3.017-0.435-4.511
		C496.921,326.953,497.921,318.953,492.687,311.805"/>
	<path fill="#FFFFFF" stroke="#000000" stroke-width="2" d="M359.421,368.953c-1.37-9.104-25.184-13.459-31.489-21.083
		c-10.162-12.291-27.129-24.552-33.452-39.131c-7.438-17.145-2.954-34.294-7.115-51.756c-5.15-21.612-18.222-34.798-11.538-58.382
		c5.756-20.308,0.374-41.1-0.263-61.653c-0.626-20.19-1.478-36.179-8.142-55.411c-5.15-14.863-13.944-28.458-19.01-43.322
		c-0.253-0.743-0.498-1.49-0.731-2.238c-2.759-6.024-2.759-13.024-2.338-20.125c0.044-0.757,0.116-1.499,0.223-2.229
		c0.646-4.38,2.578-8.34,7.244-11.092c0.635-0.359,1.328-0.67,2.084-0.925c0.757-0.255,1.576-0.456,2.465-0.594
		c0.604,0.101,1.232,0.322,1.887,0.68c1.31,0.717,2.723,1.982,4.24,3.911c1.515,1.923,2.079,4.21,2.451,6.571
		c0.093,0.59,0.174,1.185,0.254,1.776c3.731,11.002,11.731,20.002,16.377,30.339c0.399,0.646,0.801,1.275,1.201,1.907
		c8.426,13.169,17.12,27.477,21.354,42.268c5.17,18.052,14.139,35.078,22.415,51.852c9.044,18.33,15.818,32.625,20.649,52.404
		c3.59,14.704,8.126,28.443,12.417,42.975c0.964,3.266,1.773,6.397,2.531,9.414c0.758,3.018,1.466,5.92,2.227,8.728
		c1.468,7.224,4.008,13.325,7.391,18.493c0.846,1.292,1.744,2.529,2.698,3.753c5.883,7.454,13.363,11.862,21.584,14.754
		c1.645,0.578,3.318,1.097,5.015,1.565c10.077,4.332,20.594,6.758,31.321,8.489c1.788,0.289,3.583,0.558,5.389,0.813
		c4.541,1.062,9.07,1.921,13.586,2.669c1.506,0.249,3.009,0.485,4.511,0.714c1.678,0.311,3.358,0.541,5.05,0.725
		c9.016,1.141,18.016,1.141,27.372,4.22"/>
	<path fill="#FFFFFF" stroke="#000000" stroke-width="2" d="M11.921,61.953c14.566,8.209,24.918,16.984,41.051,21.864
		c7.488,2.265,13.768,7.18,20.501,10.97c9.871,5.556,20.99,7.826,31.525,11.714c6.905,1.693,12.861,6.054,19.937,7.195
		c8.686,1.4,18.809,0.543,27.669,0.961c21.91,1.035,45.924,2.141,67.795,0.382c19.978-1.608,40.059-4.124,59.24-10.161
		c10.584-3.331,21.341-5.266,32.023-7.559c0.764-0.164,1.526-0.329,2.298-0.497c12.959-2.868,24.959-10.868,38.259-5.836
		c0.729,0.123,1.455,0.257,2.18,0.403c9.416,1.895,18.621,5.635,28.167,7.868c16.052,3.755,32.907,4.69,48.557,9.101
		c24.611,6.938-10.275,21.381-18.209,21.948c-22.117,1.582-44.289-1.255-66.516,0.587c-17.362,1.439-37.031,0.122-48.508,15.054
		c-9.021,11.741-5.07,29.172-21.19,36.841c-13.855,6.591-31.854,2.465-46.143,0.172c-9.745-1.563-17.494-0.425-26.748,2.123
		c-11.705,3.224-23.361,1.407-35.296,2.255c-21.125,1.5-42.396-3.133-63.073,0.06c-17.593,2.713-35.835,1.287-51.664-7.547"/>
	<path fill="#FFFFFF" stroke="#000000" stroke-width="2" d="M326.921,109.453c-5.78-12.205-4.48-42.716-22.552-45.366
		c-12.057-1.768-22.859,8.414-33.318,12.576c-13.946,5.549-28.283,10.054-41.085,18.007c-8.863,5.506-19.828-0.731-28.81,5.336
		c-9.652,6.521-0.178,18.045,7.759,19.627c17.493,3.486,35.83-2.631,52.316-10.959c0.717-0.362,1.43-0.728,2.14-1.098
		c1.888-0.656,3.928-1.023,5.958-1.376c0.681-0.121,1.359-0.24,2.036-0.372c0.781,0.018,1.571-0.027,2.355-0.136
		c4.2-1.74,9.2-2.74,12.2-6.74c1,3,1,6,2.182,9.324c0.318,0.722,0.671,1.442,1.031,2.155c1.801,3.561,3.725,6.92,5.398,9.443"/>
	<path fill="#FFFFFF" stroke="#000000" stroke-width="2" d="M309.421,109.953c12.652-3.868,28.074-15.604,41.861-12.625
		c8.378,1.8,15.329,6.171,24.009,7.393c8.047,1.133,15.674,1.473,23.346,4.351c14.406,5.404,29.897,5.84,44.494,11.254
		c8.674,3.218,26.914-2.46,27.479,12.726c1.029,27.647-56.998,17.184-69.651,14.914c-13.324-2.391-27.146-5.81-40.824-5.739
		c-0.76,0.004-1.52,0.019-2.284,0.047c-11.93,2.679-23.93,6.679-35.814,7.37"/>
	<path fill="#FFFFFF" stroke="#000000" stroke-width="2" d="M330.921,157.953c0-16.225-2.093-52.845-21.646-55.82
		c-28.821-4.385-61.232,2.993-88.718-6.247c-10.139-3.408-17.1,1.113-18.887,11.65c-1.267,10.868,12.769,16.495,20.989,19.406
		c7.286,2.581,23.254,2.565,37.772,4.4c0.415,0.053,0.829,0.106,1.239,0.162c2.136,0.302,4.65,0.411,7.288,0.537
		c0.531,0.025,1.069,0.051,1.623,0.079c9.34-1.167,19.34-0.167,18.938,10.376c0.079,0.599,0.135,1.205,0.172,1.811
		c0.112,1.819,0.062,3.651-0.01,5.368c-0.1,0.604-0.182,1.184-0.229,1.729"/>
	<path fill="#FFFFFF" stroke="#000000" stroke-width="2" d="M253.496,144.949c4.425,0.004,7.425-1.996,11.055-2.716
		c0.579-0.073,1.157-0.134,1.736-0.187c2.894-0.265,5.793-0.324,8.83-0.592c10.876-0.959,21.733-3.156,32.696-2.407
		c14.561,0.995,32.997,9.784,46.014,16.192c11.797,5.807,24.964,9.747,38.07,12.602c0.771,0.171,1.542,0.337,2.308,0.512
		c5.716,1.6,11.716,3.6,17.602,5.538c0.747,0.18,1.496,0.357,2.25,0.515c11.316,2.42,24.044,0.776,32.837,9.479
		c4.68,7.098,4.355,12.016,0.915,15.35c-0.431,0.416-0.909,0.809-1.433,1.177c-4.519,3.541-9.551,5.44-14.813,6.32
		c-0.752,0.126-1.509,0.23-2.269,0.316c-23.373-0.095-45.373-3.095-67.429-8.515c-0.757-0.171-1.521-0.345-2.283-0.521
		c-6.863-1.588-13.624-3.395-20.238-5.448c-0.729-0.176-1.487-0.352-2.249-0.527c-1.522-0.352-3.045-0.704-4.567-1.057
		c-11.519-2.67-38.194,0.435-47.106-8.026"/>
	<path fill="#FFFFFF" stroke="#000000" stroke-width="2" d="M492.106,410.895c-15.186,0.059-31.186,0.059-46.432-1.714
		c-1.707-0.176-3.411-0.359-5.117-0.55c-3.412-0.381-6.834-0.788-10.273-1.21c-1.694-0.196-3.372-0.363-5.041-0.507
		c-16.688-1.427-32.687-0.422-49.51-2.727c-1.521-0.283-3.045-0.586-4.57-0.907c-21.36-4.491-43.05-12.185-60.298-22.99
		c-23.615-14.795-40.968-40.789-51.055-66.269c-5.864-14.812-12.237-30.523-15.977-46.038c-2.748-11.402-7.83-30.442-5.888-42.165
		c-0.039-10.985,9.456-32.635,17.648-39.998c9.127-8.205-0.748-26.356-4.425-36.895c-4.021-11.525-34.704-62.593-8.228-67.881
		c17.444-3.484,37.162,39.65,41.122,50.933c4.187,11.928,17.528,27.741,17.68,39.711c0.191,15.1-1.038,30.764-0.321,45.765"/>
	<path fill="#FFFFFF" stroke="#000000" stroke-width="2" d="M8.267,179.473c12.654,1.48,24.654,9.48,36.845,14.712
		c0.635,0.457,1.268,0.917,1.897,1.379c5.667,4.161,11.114,8.497,16.512,12.173c3.212,2.188,6.525,4.152,9.922,5.919
		c0.679,0.353,1.362,0.698,2.048,1.036c18.431,9.261,37.431,14.261,57.482,14.731c0.782,0.088,1.551,0.168,2.321,0.238
		c25.394,2.401,51.621-4.939,76.813-6.064c13.01-0.58,21.458-12.669,35.592-12.264c11.63,0.333,25.211,3.12,36.359,6.295
		c7.091,2.02,82.415,22.393,89.513,2.828c0.187-0.515,0.326-1.057,0.418-1.631c1.932-8.873-3.068-16.873-12.292-18.505
		c-0.673-0.244-1.361-0.465-2.062-0.668c-6.301-1.827-13.548-2.163-18.917-3.873c-11.472-3.653-23.623-6.206-34.709-10.927
		c-14.267-6.076-26.843-10.412-42.403-11.807c-2.992-0.269-6.991-0.097-11.327,0.068c-0.619,0.023-1.244,0.047-1.863,0.073
		c-2.496-0.234-5.496,0.766-7.73-1.123"/>
</g>
<g id="Layer_3">
	<path fill="#DBDBDB" stroke="#000000" stroke-width="0.25" d="M337.921,211.828c1.402,3.713,11.53,6.862,14.805,4.63
		c3.757-2.562,11.227-9.256,11.177-14.236c-6.305-0.366-14.458-3.422-20.62-0.849C340.618,202.486,335.417,210.54,337.921,211.828"
		/>
	<path fill="#DBDBDB" stroke="#000000" stroke-width="0.25" d="M429.546,194.078c-4.913-0.325-16.416-2.675-16.619-8.979
		c-0.043-1.333-0.617-3.156,0.087-4.362c0.809-1.385,1.933-2.754,3.469-3.295c0.171-0.06,0.341-0.113,0.509-0.159
		c0.169-0.046,0.337-0.084,0.506-0.114c1.99-0.548,3.693-0.242,5.303,0.164c0.179,0.045,0.356,0.091,0.533,0.138
		c0.971,0.181,1.999,0.293,3.046,0.364c0.174,0.012,0.349,0.022,0.524,0.033c2.018,0.084,4.018,0.084,6.476,0.337
		c0.183,0.051,0.356,0.105,0.529,0.161c1.54,0.503,3.076,1.171,4.764,1.65c0.084,0.124,0.156,0.271,0.212,0.445
		c0.057,0.175,0.098,0.378,0.122,0.615c0.058,0.563-0.078,0.922-0.29,1.22c-0.07,0.099-0.149,0.191-0.232,0.282
		c-1.562,1.374-1.562,3.374-2.718,4.231c-0.093,0.135-0.185,0.271-0.276,0.411c-0.921,1.39-1.851,3.01-3.26,4.403
		c-0.11,0.129-0.223,0.256-0.337,0.381C431.207,192.751,430.436,193.414,429.546,194.078"/>
	<path fill="#DBDBDB" stroke="#000000" stroke-width="0.25" d="M455.796,133.078c1.057,0.057,2.194,0.152,2.993-0.616
		c0.907-0.871,0.701-2.109,1.375-3.144c0.94-1.441,2.916-3.379,3.139-5.24c0.483-4.045-8.047-2.398-10.284-2.278
		c-1.521,0.082-3.049-0.226-4.598-0.222c-1.357,0.003-3.111-0.397-4.378-0.128c-1.743,0.371-2.811,2.263-2.994,3.917
		C440.429,130.95,452.053,132.875,455.796,133.078z"/>
	<path fill="#DBDBDB" stroke="#000000" stroke-width="0.25" d="M423.365,114.087c-2.406-0.543-9.761-1.059-7.05-5.581
		c0.059-0.093,0.118-0.183,0.18-0.271c0.061-0.087,0.123-0.172,0.188-0.254c0.979-1.324,2.104-1.687,3.336-1.76
		c0.177-0.01,0.354-0.015,0.536-0.016c3.366-0.251,6.366-0.251,9.148,0.684c0.109,0.031,0.219,0.063,0.328,0.096
		c2.627,0.785,5.272,2.103,4.555,4.25C432.476,117.527,428.841,115.337,423.365,114.087"/>
	<path fill="#DBDBDB" stroke="#000000" stroke-width="0.25" d="M266.796,20.828c-2.028,1.09-4.324-0.943-5.5-2.375
		c-1.299-1.581-3.066-3.391-3.603-5.457c-0.605-2.332-1.168-4.466,0.637-6.266c0.466-0.465,1.646-1.527,2.219-1.53
		c0.732-0.004,1.922,1.263,2.372,1.849c1.785,2.326,2.095,5.014,2.751,7.649c0.411,1.652,1.653,4.311,0.874,6.128H266.796z"/>
	<path fill="#DBDBDB" stroke="#000000" stroke-width="0.25" d="M251.171,108.203c3.016-0.877,5.598-2.717,8.417-4.037
		c0.873-0.409,2.469-0.862,2.515-2.082c0.046-1.229-1.95-3.097-2.546-4.178c-1.474-2.676-3.13-5.25-4.551-7.955
		c-0.945-1.797-1.715-6.841-4.443-6.234c-2.061,0.458-4.366,2.12-5.68,3.738c-1.6,1.987-4.756,4.771-4.573,7.575
		c0.192,2.924,3.068,5.679,4.939,7.697C246.639,104.226,248.847,108.225,251.171,108.203"/>
	<path fill="#DBDBDB" stroke="#000000" stroke-width="0.25" d="M231.953,100.844c-0.032,0.109-0.032,1.109-0.223,1.123
		c-0.071,0.174-0.155,0.339-0.25,0.496c-0.664,1.1-1.839,1.822-2.493,2.594c-0.153,0.114-0.308,0.226-0.464,0.335
		c-3.444,2.406-7.732,3.69-11.792,3.304c-2.279-0.217-6.019-0.59-7.724-2.337c-1.358-1.392-0.358-5.244,0.449-6.694
		c1.179-2.119,2.009-3.13,4.134-4.27c2.126-1.141,4.012-0.063,6.151,0.11c0.431,0.035,0.874,0.122,1.32,0.248
		c0.149,0.042,0.298,0.089,0.448,0.14c0.301,0.133,0.596,0.249,0.884,0.354c0.144,0.053,0.286,0.103,0.426,0.15
		c1.624,0.816,3.495,1.479,5.27,2.098c0.162,0.057,0.322,0.112,0.482,0.168C229.921,98.953,231.921,98.953,231.953,100.844"/>
</g>
<g id="Layer_4">
	<path fill="none" stroke="#000000" stroke-width="0.25" d="M258.171,194.703c-2.002-6.043,5.012-16.057,11.25-16.25"/>
	<path fill="none" stroke="#000000" stroke-width="0.25" d="M261.671,194.703c3.047-4.437,3.821-8.521,8.5-11.5"/>
	<path fill="none" stroke="#000000" stroke-width="0.25" d="M273.171,183.703c0.429,3.109-2.146,10.276-4.75,12"/>
	<path fill="none" stroke="#000000" stroke-width="0.25" d="M268.421,198.953c5.156,0.188,12.74-9.911,9.75-15"/>
	<path fill="none" stroke="#000000" stroke-width="0.25" d="M321.921,144.703c-6.742,3.116-5.205,9.643-5.5,15.25"/>
	<path fill="none" stroke="#000000" stroke-width="0.25" d="M310.921,162.203c-1.209-4.549-0.197-15.07,3.75-17.5"/>
	<path fill="none" stroke="#000000" stroke-width="0.25" d="M320.421,164.953c-0.122-5.149,4-9.833,4-15.5"/>
	<path fill="none" stroke="#000000" stroke-width="0.25" d="M322.671,168.203c6.23-3.039,7-10.896,7-17"/>
	<path fill="none" stroke="#000000" stroke-width="0.25" d="M299.671,176.953c-1.968,0.318-2.836,1.697-4.25,3"/>
	<path fill="none" stroke="#000000" stroke-width="0.25" d="M292.171,177.453c0.814-1.438,4.305-4.175,6.25-4"/>
	<path fill="none" stroke="#000000" stroke-width="0.25" d="M266.421,135.953c3.591,0.002,7.236-0.888,8.75-4.5"/>
	<path fill="none" stroke="#000000" stroke-width="0.25" d="M298.171,113.953c2.363-1.917,7.261-6.83,9-9.25"/>
	<path fill="none" stroke="#000000" stroke-width="0.25" d="M293.671,112.203c1.054-3.68,4.535-6.887,7.5-9"/>
	<path fill="none" stroke="#000000" stroke-width="0.25" d="M311.671,128.453c4.114-1.024,8.232-5.604,8-10"/>
	<path fill="none" stroke="#000000" stroke-width="0.25" d="M315.671,132.953c2.286-2.261,7.037-4.41,6.25-8.25"/>
	<path fill="none" stroke="#000000" stroke-width="0.25" d="M353.921,111.703c2.634-1.885,5.432-3.948,5-7.5"/>
	<path fill="none" stroke="#000000" stroke-width="0.25" d="M357.671,114.203c2.906-0.825,7.643-5.007,7-8.5"/>
	<path fill="none" stroke="#000000" stroke-width="0.25" d="M343.671,109.703c-1.896-1.33,1.426-6.597,2.25-8.5"/>
	<path fill="none" stroke="#000000" stroke-width="0.25" d="M336.671,109.953c0.091-3.295,1.091-6.295,3-9"/>
	<path fill="none" stroke="#000000" stroke-width="0.25" d="M333.671,98.453c-0.536-2.475-0.37-4.891,0.5-7.25"/>
	<path fill="none" stroke="#000000" stroke-width="0.25" d="M350.921,93.453c-0.005,1.446,0.344,3.284-0.75,4.25"/>
	<path fill="none" stroke="#000000" stroke-width="0.25" d="M353.421,98.203c0.167-1.134,0.367-2.302,0.25-3.5"/>
	<path fill="none" stroke="#000000" stroke-width="0.25" d="M337.421,98.953c0.473-4.509-0.172-4.091,1.75-8.75"/>
	<path fill="none" stroke="#000000" stroke-width="0.25" d="M266.671,129.203c-0.41-2.362,2.296-4.009,3.75-5.5"/>
	<path fill="none" stroke="#000000" stroke-width="0.25" d="M377.921,183.287c0.027-5.509,1.852-8.895,5.333-13"/>
	<path fill="none" stroke="#000000" stroke-width="0.25" d="M386.588,185.287c0.03-3.541,2.974-6.553,2.666-10.667"/>
	<path fill="none" stroke="#000000" stroke-width="0.25" d="M411.254,114.287c-1.608,2.307-1.654,7.323-1.666,10.333"/>
	<path fill="none" stroke="#000000" stroke-width="0.25" d="M419.254,124.953c1.563-3.396,0.283-7.5,0-11"/>
	<path fill="none" stroke="#000000" stroke-width="0.25" d="M393.254,107.953c-2.011-1.822-0.403-5.232,0.334-7.667"/>
	<path fill="none" stroke="#000000" stroke-width="0.25" d="M397.254,108.62c0.872-2.516,1.626-3.116,1.667-6"/>
	<path fill="none" stroke="#000000" stroke-width="0.25" d="M304.588,207.953c-0.083-4.193,2.138-14.205,6.666-15.667"/>
	<path fill="none" stroke="#000000" stroke-width="0.25" d="M309.921,209.286c3.933-2.509,3.623-9.58,6.333-12.666"/>
	<path fill="none" stroke="#000000" stroke-width="0.25" d="M275.588,32.953c-2.419-0.176-3.325,2.479-4.334,4"/>
	<path fill="none" stroke="#000000" stroke-width="0.25" d="M278.254,38.62c-1.591,0.266-3.193,0.83-4.666,1.333"/>
	<path fill="none" stroke="#000000" stroke-width="0.25" d="M315.921,76.62c-0.926,4.07-5.585,5.488-9,6.667"/>
	<path fill="none" stroke="#000000" stroke-width="0.25" d="M307.921,88.62c2.287,0.22,8.143-1.895,8-4.667"/>
	<path fill="none" stroke="#000000" stroke-width="0.25" d="M286.254,79.287c-0.062-2.595,1.018-6.613,2-8.667"/>
	<path fill="none" stroke="#000000" stroke-width="0.25" d="M281.254,80.953c-0.181-1.708,0.376-6.947,1.667-7.667"/>
</g>
</svg>
