<?xml version="1.0" encoding="utf-8"?>
<!DOCTYPE svg PUBLIC "-//W3C//DTD SVG 1.1//EN" "http://www.w3.org/Graphics/SVG/1.1/DTD/svg11.dtd">
<svg version="1.1" xmlns="http://www.w3.org/2000/svg" xmlns:xlink="http://www.w3.org/1999/xlink" x="0px" y="0px"
	 width="513.353px" height="430.122px" viewBox="0 0 513.353 430.122" enable-background="new 0 0 513.353 430.122"
	 xml:space="preserve">
<g id="Layer_1">
</g>
<g id="Layer_2">
	<path fill="#FFFFFF" stroke="#000000" stroke-width="2" d="M513.007,10.016c-9.323-1.006-18.567,2-27.613,3.763
		c-10.658,2.078-21.63,2.527-32.353,4.335c-10.452,1.763-20.668,3.92-31.265,4.754c-11.578,0.912-23.215,1.178-34.741,2.689
		c-20.32,2.665-40.886,5.431-60.251,12.442c-15.858,5.741-32.455,13.904-46.553,23.218c-14.867,9.823-24.378,23.57-31.132,39.887
		c-3.364,8.128-5.859,16.571-7.576,25.196c-1.969,9.891-2.112,20.114-4.128,29.95c-1.884,9.19-4.574,17.692-5.44,27.134
		c-0.971,10.585-2.789,20.758-4.654,31.207c-1.807,10.12-1.272,20.207-0.512,30.405c0.834,11.184,0.921,22.312,1.42,33.503
		c0.434,9.712,2.371,19.157,3.21,28.805c0.938,10.777-0.66,21.515-1.398,32.249c-0.656,9.547,0.061,18.269,2.594,27.484
		c1.983,7.216,2.354,15.119,5.718,21.903c2.991,6.031,10.754,9.269,16.438,12.152c9.752,4.947,19.254,10.452,29.111,15.178
		c6.917,4.118,15.277,7.445,23.32,8.413c7.841,0.944,12.857-6.303,15.93-12.585c3.95-8.075,4.906-16.967,6.312-25.72
		c1.625-10.117,4.516-19.945,6.219-29.979c3.394-19.992,10.37-39,13.483-59.092c1.649-10.643,3.001-21.327,4.482-31.994
		c1.584-11.409,4.299-22.89,4.309-34.441c0.015-18.599-2.056-38.387,4.315-56.336c3.983-11.156,11.255-22.917,21.677-29.072
		c12.873-7.603,29.196-8.179,43.639-9.969c15.027-1.862,28.701-2.604,43.847-1.346c13.686,1.137,28.407,2.717,41.593-2.134"/>
	<path fill="#FFFFFF" stroke="#000000" stroke-width="2" d="M0.007,119.016c21.393,0.154,42.228,8.264,61.864,16.008
		c17.275,6.814,33.32,17.75,44.809,32.467c5.23,6.7,9.329,14.25,11.854,22.377c2.951,9.497,2.646,18.923,3.71,28.67
		c2.224,20.344,10.049,39.519,12.329,59.944c2.521,22.594,6.347,44.952,8.379,67.611c1.884,21.016-3.553,43.692,3.726,63.883
		c2.777,7.702,8.039,17.166,16.831,18.846c8.392,1.604,16.6-3.598,23.811-7.102c8.664-4.209,18.096-5.559,26.493-10.564
		c7.631-4.55,17.697-10.62,23.313-17.582c4.741-5.876,4.301-14.105,2.935-21.084c-1.913-9.766,3.201-19.227,1.762-28.982
		c-0.41-2.78-3.931-7.249-1.542-9.723c2.737-2.835,4.797-4.189,5.812-8.299c2.058-8.331,0.546-17.729,0.751-26.245
		c0.231-9.615-0.338-18.52-3.439-27.683c-3.216-9.503-5.394-17.491-1.633-27.172c3.503-9.026,2.332-18.844,1.876-28.267
		c-0.546-11.311-0.622-22.679-0.482-34c0.133-10.778-0.176-21.486-0.526-32.256c-0.352-10.835,0.147-21.983-2.591-32.568
		c-4.594-17.763-17.252-33.45-32.361-43.512c-16.946-11.286-36.461-17.663-54.886-26.007c-19.29-8.73-39.824-15.695-60.136-21.643
		c-15.607-4.571-31.452-7.521-46.831-12.923C31.072,8.024,15.163,6.903,0.644,0.925"/>
	<path fill="none" stroke="#000000" stroke-width="2" d="M240.507,339.016c-0.474-6.757-11.936-6.331-16.573-6.061
		c-7.816,0.455-18.108,7.385-19.401,15.586c-1.571,9.974,1.927,20.885-4.355,29.747c-3.409,4.808-8.393,8.271-11.309,13.478
		c-2.807,5.011-5.657,10.247-10.361,13.75"/>
	<path fill="none" stroke="#000000" stroke-width="2" d="M217.507,394.016c-5.575,1.749-12.764-19.709-14.5-24"/>
	<path fill="none" stroke="#000000" stroke-width="2" d="M205.001,344.518c2.006-4.502,1.006-9.502,4.016-14.255"/>
	<path fill="none" stroke="#000000" stroke-width="2" d="M169.507,216.016c-0.904,5.13,3.856,12.073,4.913,17.106
		c1.448,6.893,2.758,14.205,5.279,20.797c4.995,13.061,7.238,26.3,9.183,40.151c1.005,7.162,4.632,11.473,8.236,17.447
		c2.856,4.736,4.324,10.181,7.376,14.818c3.318,5.042,8.463,6.992,14.383,6.518c3.39-0.272,6.723-0.787,10.128-0.336
		c3.289,0.435,6.626,3.076,10.002,1.498"/>
	<path fill="none" stroke="#000000" stroke-width="2" d="M246.507,322.516c0.381,3.193,2.784,6.131,5.303,7.964
		c2.966,2.157,4.432,5.347,6.371,8.329c3.643,5.604,9.268,9.053,16.089,8.501c12.403-1.003,18.699-14.338,22.859-24.381
		c2.509-6.054,5.941-11.96,7.688-18.289c2.399-8.698,0.471-18.222-0.896-26.937c-1.202-7.667-4.006-16.613-1.087-24.177
		c3.178-8.231,7.113-15.385,7.174-24.511"/>
	<path fill="none" stroke="#000000" stroke-width="2" d="M305.007,403.016c-4.357-5.08-7.97-10.749-12.386-15.781
		c-3.549-4.043-7.824-7.38-11.3-11.492c-8.048-9.523-4.421-19.824-0.645-30.403"/>
	<path fill="none" stroke="#000000" stroke-width="2" d="M267.007,388.516c0.213-6.966,7.607-12.571,8.819-19.731
		c1.275-7.529-1.192-15.008-4.319-21.769"/>
	<path fill="none" stroke="#000000" stroke-width="2" d="M245.007,274.016c0.171-5.659,1.502-11.262,1.01-16.942
		c-0.523-6.021-0.605-13.845-2.512-19.561"/>
</g>
<g id="Layer_3">
	<path fill="#DBDBDB" stroke="#000000" stroke-width="0.5" d="M206.214,321.435c6.327,4.334,14.94,3.69,22.063,2.131
		c3.586-0.784,7.566-1.641,10.097-4.492c2.627-2.96,6.022-5.85,7.448-9.634c0.122,1.667-0.144,3.362,0.269,5.004
		c0.362,1.442,1.042,2.773,1.528,4.173c0.464,1.336,0.665,2.816,0.385,4.214c-0.239,1.193-1.198,1.969-1.363,3.166
		c-0.462,3.335-2.58,3.962-5.159,5.627c-0.757,0.489-1.095,1.476-1.904,1.905c-0.871,0.462-3.067-0.643-4.048-0.733
		c-6.527-0.602-13.42,1.849-19.877,0.24c-2.702-0.674-4.514-2.372-6.113-4.566c-0.841-1.153-1.873-2.256-2.518-3.535
		C206.606,324.11,206.953,321.938,206.214,321.435"/>
	<path fill="#DBDBDB" stroke="#000000" stroke-width="0.5" d="M283.328,332.899c-3.029-3.412-10.813-1.643-14.938-1.98
		c-4.878-0.4-9.007-1.407-13.409-3.621c-1.93-0.971-3.748-2.393-5.861-2.958c-3.932-1.052-0.52,5.112,0.186,6.135
		c3.73,5.409,6.93,11.857,12.69,15.443C270.369,351.129,294.499,345.484,283.328,332.899z"/>
	<path fill="none" stroke="#000000" stroke-width="2" d="M197.507,312.516c1.209,1.681,1.826,3.156,3.567,4.413
		c4.502,3.249,9.906,4.26,15.433,4.087"/>
	<path fill="none" stroke="#000000" stroke-width="2" d="M247.007,301.683c-2.932,6.629-6.24,13.737-14.5,14.833"/>
	<path fill="none" stroke="#000000" stroke-width="2" d="M286.007,325.016c5.594,0.222,12.26-9.48,15.5-13"/>
	<path fill="none" stroke="#000000" stroke-width="2" d="M247.174,312.349c0.47,5.298,3.373,8.235,7.833,10.834"/>
	<path fill="none" stroke="#000000" stroke-width="0.25" d="M207.507,312.183c2.081-1.421,4.354-2.532,6.602-3.66
		c1.847-0.927,3.845-2.449,5.919-2.771c3.927-0.61,9.241,0.474,12.312,3.098"/>
	<path fill="none" stroke="#000000" stroke-width="0.25" d="M258.507,316.349c3.425-2.23,7.884-2.508,11.853-2.505
		c1.724,0.001,3.822-0.347,5.328,0.682c0.908,0.621,1.643,1.365,2.688,1.771c0.858,0.334,1.902,0.583,2.466,1.386"/>
	<path fill="none" stroke="#000000" stroke-width="0.25" d="M206.841,308.849c1.899-1.466,4.281-2.112,6.412-3.149
		c2.236-1.088,3.77-2.212,6.326-2.402c2.475-0.184,7.849-1.221,9.762,0.886"/>
	<path fill="none" stroke="#000000" stroke-width="0.25" d="M260.674,313.183c2.521-3.002,7.446-3.066,11.023-3.08
		c2.556-0.01,9.311-1.227,9.977,2.08"/>
	<path fill="none" stroke="#000000" stroke-width="0.25" d="M228.007,315.516c-1.533,2.317-4.16,3.445-7,3"/>
	<path fill="none" stroke="#000000" stroke-width="0.25" d="M263.007,323.016c5.274,1.355,9.718,4.47,15.5,2"/>
	<path fill="none" stroke="#000000" stroke-width="0.25" d="M220.507,321.016c2.535,0.921,5.876,0.938,8-1"/>
	<path fill="none" stroke="#000000" stroke-width="0.25" d="M261.007,323.516c-0.126,3.006,12.622,4.833,16,4.5"/>
</g>
</svg>
