<svg xmlns="http://www.w3.org/2000/svg" viewBox="0 0 512 512" style="height: 64px; width: 64px;"><defs><radialGradient id="lorc-gear-hammer-gradient-2"><stop offset="0%" stop-color="#8b572a" stop-opacity="1"></stop><stop offset="100%" stop-color="#492a10" stop-opacity="1"></stop></radialGradient><radialGradient id="lorc-gear-hammer-gradient-3"><stop offset="0%" stop-color="#4a4a4a" stop-opacity="1"></stop><stop offset="100%" stop-color="#000000" stop-opacity="1"></stop></radialGradient><radialGradient id="lorc-gear-hammer-gradient-4"><stop offset="0%" stop-color="#9b9b9b" stop-opacity="1"></stop><stop offset="100%" stop-color="#4a4a4a" stop-opacity="1"></stop></radialGradient></defs><g class="" transform="translate(0,0)" style=""><g><path d="M265.344 17.5L261.156 42.813C243.162 42.713 225.536 44.879 208.594 49.093L199.156 24.031L144.031 44.781L153.938 71.063C138.93 79.65 124.978 90.013 112.438 101.939L90 83.53L52.625 129.03L75.75 148C67.21 162.428 60.28 178.036 55.25 194.594L25.187 189.624L15.594 247.719L46 252.75C45.626 269.968 47.313 286.877 50.906 303.188L22 314.063L42.75 369.188L71.375 358.406C79.445 373.433 89.285 387.452 100.655 400.156L81.688 423.25L127.22 460.594L145.563 438.25C159.949 447.368 175.603 454.827 192.25 460.375L187.72 487.875L245.813 497.469L250.156 471.186C268.202 472.06 285.92 470.646 303.031 467.156L312.001 490.936L367.095 470.186L358.565 447.53C374.691 439.187 389.699 428.847 403.22 416.75L421.156 431.47L458.5 385.937L441.312 371.844C451.045 356.494 458.918 339.719 464.562 321.814L485.969 325.344L495.529 267.25L474.469 263.78C475.077 244.94 473.187 226.475 469.061 208.72L488.905 201.25L468.155 146.125L447.968 153.719C439.078 137.605 428.151 122.686 415.468 109.343L429.623 92.093L384.123 54.718L369.403 72.654C354.007 63.538 337.273 56.284 319.467 51.184L323.434 27.092L265.341 17.498Z" class="" fill="url(#lorc-gear-hammer-gradient-2)"></path><path d="M257.314 65.438C268.45 65.288 279.751 66.123 291.124 68C395.113 85.164 465.665 183.606 448.5 287.594C431.336 391.58 332.894 462.134 228.906 444.97C124.92 427.803 54.366 329.36 71.53 225.374C86.55 134.384 163.822 68.988 252.562 65.561C254.147 65.501 255.722 65.458 257.312 65.437Z" class="" fill="url(#lorc-gear-hammer-gradient-3)"></path><path d="M257.531 84.125C256.094 84.143 254.651 84.165 253.221 84.219C173.067 87.256 103.549 146.136 89.971 228.405C74.451 322.427 137.948 411.011 231.971 426.53C325.991 442.05 414.544 378.553 430.064 284.53C445.584 190.51 382.117 101.957 288.094 86.438C277.811 84.74 267.598 83.998 257.532 84.125Z" class="" fill="url(#lorc-gear-hammer-gradient-4)"></path><path d="M257.939 102.281C266.939 102.165 276.084 102.827 285.282 104.345C369.378 118.225 426.132 197.437 412.252 281.532C398.372 365.628 319.192 422.382 235.096 408.502C209.288 404.242 186.066 393.822 166.658 379.002L276.346 245.377L329.19 288.752L387.627 217.564L279.407 128.784L177.565 164.314L248.565 222.564L140.78 353.938C113.795 320.872 100.615 276.812 108.125 231.313C120.271 157.73 182.408 105.09 254.095 102.376C255.375 102.328 256.652 102.299 257.938 102.282Z" class="selected" fill="#ffffff" fill-opacity="1"></path></g></g><g class="" transform="translate(240,252)" style=""><g><circle cx="128" cy="128" r="128" fill="#ffffff" fill-opacity="1"></circle><circle stroke="#8b572a" stroke-opacity="1" fill="#ffffff" fill-opacity="1" stroke-width="18" cx="128" cy="128" r="101"></circle><path fill="#8b572a" fill-opacity="1" d="M142.4 151.1h-33.8v-4.5q0-7.7 3.1-13.6 3.1-6 13-15.2l6-5.5q5.3-4.8 7.8-9.2 2.5-4.26 2.5-8.58 0-6.56-4.5-10.21-4.5-3.75-12.6-3.75-7.6 0-16.4 3.18-8.78 3.1-18.34 9.28V63.59q11.34-3.94 20.74-5.82 9.4-1.87 18.1-1.87 22.8 0 34.8 9.37 12 9.29 12 27.19 0 9.14-3.6 16.54-3.7 7.2-12.5 15.5l-6 5.4q-6.4 5.8-8.3 9.3-2 3.5-2 7.7zM108.6 165h33.8v33.4h-33.8z"></path></g></g></svg>