<?xml version="1.0" encoding="UTF-8" standalone="no"?>
<!-- Created with Inkscape (http://www.inkscape.org/) -->

<svg
   width="128"
   height="128"
   id="svg2"
   sodipodi:version="0.32"
   inkscape:version="1.1 (ce6663b3b7, 2021-05-25)"
   sodipodi:docname="Parchemin_explosif.svg"
   inkscape:output_extension="org.inkscape.output.svg.inkscape"
   version="1.0"
   xmlns:inkscape="http://www.inkscape.org/namespaces/inkscape"
   xmlns:sodipodi="http://sodipodi.sourceforge.net/DTD/sodipodi-0.dtd"
   xmlns:xlink="http://www.w3.org/1999/xlink"
   xmlns="http://www.w3.org/2000/svg"
   xmlns:svg="http://www.w3.org/2000/svg"
   xmlns:rdf="http://www.w3.org/1999/02/22-rdf-syntax-ns#"
   xmlns:cc="http://creativecommons.org/ns#"
   xmlns:dc="http://purl.org/dc/elements/1.1/">
  <defs
     id="defs4">
    <inkscape:perspective
       sodipodi:type="inkscape:persp3d"
       inkscape:vp_x="0 : -345.81891 : 1"
       inkscape:vp_y="0 : 1000 : 0"
       inkscape:vp_z="744.09448 : -345.81891 : 1"
       inkscape:persp3d-origin="372.04724 : -521.21261 : 1"
       id="perspective10" />
    <inkscape:perspective
       id="perspective2481"
       inkscape:persp3d-origin="372.04724 : -521.21261 : 1"
       inkscape:vp_z="744.09448 : -345.81891 : 1"
       inkscape:vp_y="0 : 1000 : 0"
       inkscape:vp_x="0 : -345.81891 : 1"
       sodipodi:type="inkscape:persp3d" />
    <inkscape:perspective
       id="perspective3046"
       inkscape:persp3d-origin="372.04724 : -521.21261 : 1"
       inkscape:vp_z="744.09448 : -345.81891 : 1"
       inkscape:vp_y="0 : 1000 : 0"
       inkscape:vp_x="0 : -345.81891 : 1"
       sodipodi:type="inkscape:persp3d" />
  </defs>
  <sodipodi:namedview
     id="base"
     pagecolor="#ffffff"
     bordercolor="#666666"
     borderopacity="1.0"
     inkscape:pageopacity="0.0"
     inkscape:pageshadow="2"
     inkscape:zoom="1.4500711"
     inkscape:cx="42.411713"
     inkscape:cy="-73.444674"
     inkscape:document-units="px"
     inkscape:current-layer="g4062"
     showgrid="false"
     inkscape:window-width="1280"
     inkscape:window-height="968"
     inkscape:window-x="2830"
     inkscape:window-y="223"
     showguides="true"
     inkscape:guide-bbox="true"
     inkscape:pagecheckerboard="0"
     inkscape:window-maximized="0">
    <sodipodi:guide
       orientation="1,0"
       position="350.63822,784.44064"
       id="guide3889" />
    <sodipodi:guide
       orientation="0,1"
       position="464.80479,532.38768"
       id="guide3976" />
  </sodipodi:namedview>
  <metadata
     id="metadata7">
    <rdf:RDF>
      <cc:Work
         rdf:about="">
        <dc:format>image/svg+xml</dc:format>
        <dc:type
           rdf:resource="http://purl.org/dc/dcmitype/StillImage" />
      </cc:Work>
    </rdf:RDF>
  </metadata>
  <g
     inkscape:label="source"
     inkscape:groupmode="layer"
     id="layer1">
    <g
       id="g4062"
       transform="translate(-17.930156,-15.12263)">
      <g
         id="g1016"
         transform="matrix(0.13442563,0,0,0.13442563,34.1038,10.708316)">
        <g
           transform="matrix(0.9822669,0,0,0.9379341,24.464384,-7.7595245)"
           id="g3826"
           style="display:inline">
          <rect
             style="opacity:1;fill:#ff0000;fill-opacity:1;fill-rule:nonzero;stroke:none;stroke-width:5;stroke-linecap:round;stroke-miterlimit:4;stroke-dasharray:none;stroke-opacity:1"
             id="rect3052"
             width="700"
             height="1000"
             x="0"
             y="52.362183" />
          <rect
             style="opacity:1;fill:#fbf2c1;fill-opacity:1;fill-rule:nonzero;stroke:none;stroke-width:5;stroke-linecap:round;stroke-miterlimit:4;stroke-dasharray:none;stroke-opacity:1"
             id="rect3824"
             width="650"
             height="950"
             x="25"
             y="77.362183" />
        </g>
        <g
           transform="translate(519.92328,4.4692855)"
           id="g2918"
           style="display:inline">
          <g
             id="g2615"
             transform="translate(-535.7707,-16.639035)">
            <path
               sodipodi:nodetypes="cccc"
               id="path2525"
               d="m 295.21518,461.27151 c -3.89709,12.51163 -7.79417,25.02327 -11.69125,37.5349 -2.96582,9.60932 -20.17715,8.66199 -24.04732,0.38905 -3.12725,-8.18261 20.8117,-13.72408 35.73857,-37.92395 z"
               style="fill:#000000;fill-rule:evenodd;stroke:#000000;stroke-width:1px;stroke-linecap:butt;stroke-linejoin:miter;stroke-opacity:1" />
            <path
               sodipodi:nodetypes="cccccc"
               id="path2527"
               d="m 307.3125,389.60391 c 9.13117,69.71615 16.5289,112.56586 -8.63932,181.42546 -6.41263,15.21685 -22.75756,28.41722 -34.55722,44.43071 80.22035,-27.8595 67.15734,-118.90228 66.64608,-191.80319 8.83855,-5.37666 8.72506,-4.24179 14.81024,-5.66668 -16.08271,-13.76133 -22.75616,-22.39588 -38.25978,-28.3863 z"
               style="fill:#000000;fill-rule:evenodd;stroke:#000000;stroke-width:1px;stroke-linecap:butt;stroke-linejoin:miter;stroke-opacity:1" />
            <use
               height="1052.3622"
               width="744.09448"
               transform="rotate(-73.160201,363.37467,479.06143)"
               id="use2529"
               xlink:href="#path2525"
               y="0"
               x="0" />
            <path
               sodipodi:nodetypes="cccc"
               id="path2531"
               d="m 331.95044,487.8155 c 7.87406,-10.47509 15.74813,-20.95018 23.62219,-31.42526 -0.99839,-7.09996 14.46826,12.71913 14.4019,14.25914 -9.01865,2.90883 -23.96678,5.90341 -38.02409,17.16612 z"
               style="fill:#000000;fill-rule:evenodd;stroke:#000000;stroke-width:1px;stroke-linecap:butt;stroke-linejoin:miter;stroke-opacity:1" />
          </g>
          <g
             id="g2608"
             transform="translate(-527.46585,-16.639035)">
            <path
               sodipodi:nodetypes="cccccc"
               id="path2553"
               d="m 387.48761,455.15906 c 0.67835,2.7134 7.70293,-4.87703 10.41633,-5.55538 0.52602,-18.71226 -0.8148,-37.02086 0.48714,-58.08516 2.78604,-0.28446 4.27747,0.17083 8.82152,0.0845 -2.18233,-4.11972 -16.37784,-12.59227 -18.33615,-13.52482 -1.09131,18.93994 -0.41885,59.06911 -1.38884,77.08087 z"
               style="fill:#000000;fill-rule:evenodd;stroke:#000000;stroke-width:1px;stroke-linecap:butt;stroke-linejoin:miter;stroke-opacity:1" />
            <path
               sodipodi:nodetypes="cccccc"
               id="path2555"
               d="m 463.82722,459.93261 c 0.67835,2.7134 7.70293,-4.87703 10.41633,-5.55538 0.52602,-18.71226 -0.8148,-37.02086 0.48714,-58.08516 2.78604,-0.28446 4.27747,0.17083 8.82152,0.0845 -2.18233,-4.11972 -16.37784,-12.59227 -18.33615,-13.52482 -1.09131,18.93994 -0.41885,59.06911 -1.38884,77.08087 z"
               style="fill:#000000;fill-rule:evenodd;stroke:#000000;stroke-width:1px;stroke-linecap:butt;stroke-linejoin:miter;stroke-opacity:1" />
            <rect
               y="391.75507"
               x="394.04211"
               height="1.6257331"
               width="76.544304"
               id="rect2557"
               style="opacity:1;fill:#000000;fill-opacity:1;fill-rule:nonzero;stroke:#000000;stroke-width:3.71481;stroke-linecap:round;stroke-miterlimit:4;stroke-dasharray:none;stroke-opacity:1" />
            <use
               height="1052.3622"
               width="744.09448"
               transform="translate(-0.7605329,25.937697)"
               id="use2559"
               xlink:href="#rect2557"
               y="0"
               x="0" />
            <use
               height="1052.3622"
               width="744.09448"
               transform="translate(0.0794549,24.802611)"
               id="use2561"
               xlink:href="#use2559"
               y="0"
               x="0" />
          </g>
          <path
             style="fill:#000000;fill-rule:evenodd;stroke:#000000;stroke-width:1px;stroke-linecap:butt;stroke-linejoin:miter;stroke-opacity:1"
             d="m -120.84918,481.77449 c 3.7432,-0.0109 6.68131,-0.10948 9.39471,-0.78783 0.31331,-19.5209 0.54736,-22.76117 0.48714,-33.9069 2.78604,-0.28446 4.27747,0.17083 8.82152,0.0845 -2.18233,-4.11972 -16.37784,-12.59227 -18.33615,-13.52482 0.27085,18.93994 -0.41885,30.1233 -0.36722,48.13506 z"
             id="path2563"
             sodipodi:nodetypes="cccccc" />
          <use
             x="0"
             y="0"
             xlink:href="#path2563"
             id="use2565"
             transform="translate(33.089272,0.6016155)"
             width="744.09448"
             height="1052.3622" />
          <g
             id="g2577"
             transform="translate(-525.80488,8.2153455)">
            <path
               sodipodi:nodetypes="cccc"
               id="path2567"
               d="m 441.83115,562.87506 c 7.87406,-10.47509 15.74813,-20.95018 23.62219,-31.42526 -0.99839,-7.09996 14.46826,12.71913 14.4019,14.25914 -9.01865,2.90883 -23.96678,5.90341 -38.02409,17.16612 z"
               style="fill:#000000;fill-rule:evenodd;stroke:#000000;stroke-width:1px;stroke-linecap:butt;stroke-linejoin:miter;stroke-opacity:1" />
            <use
               height="1052.3622"
               width="744.09448"
               transform="rotate(-73.160201,377.61502,435.72231)"
               id="use2569"
               xlink:href="#path2525"
               y="0"
               x="0" />
            <use
               height="1052.3622"
               width="744.09448"
               transform="matrix(0.3964685,-0.5333892,1.309878,0.161444,-283.06485,659.65522)"
               id="use2571"
               xlink:href="#path2525"
               y="0"
               x="0" />
            <path
               sodipodi:nodetypes="cccc"
               id="path2573"
               d="m 418.36094,573.36507 c -11.309,11.54048 -22.61802,23.08096 -33.92703,34.62143 1.43393,7.82208 -14.76359,-9.80139 -14.66828,-11.49803 12.9529,-3.20468 28.4057,-10.71519 48.59531,-23.1234 z"
               style="fill:#000000;fill-rule:evenodd;stroke:#000000;stroke-width:1.2579px;stroke-linecap:butt;stroke-linejoin:miter;stroke-opacity:1" />
            <path
               sodipodi:nodetypes="cccccscccc"
               id="path2575"
               d="m 425.71263,594.27174 c 0.0562,6.22315 -0.0543,12.52421 -2.82816,17.33116 -6.86903,4.38534 -10.92014,2.87507 -16.0864,3.42747 6.46942,2.15962 10.85648,4.63732 9.88249,9.64022 11.60861,0.47149 18.80401,-2.81276 18.97256,-7.85885 0.0534,-4.4593 0.0776,-9.79056 0.0912,-15.62033 0.0549,-23.61309 -0.0649,-55.40489 0.87178,-70.56021 2.78604,-0.28446 4.27747,0.17083 8.82152,0.0845 -2.18233,-4.11972 -16.37784,-12.59227 -18.33615,-13.52482 -1.09131,18.93994 -0.41885,59.06911 -1.38884,77.08087 z"
               style="fill:#000000;fill-rule:evenodd;stroke:#000000;stroke-width:1px;stroke-linecap:butt;stroke-linejoin:miter;stroke-opacity:1" />
          </g>
          <g
             style="fill:none;fill-opacity:1"
             id="g3417"
             transform="matrix(0.4573483,0.02268524,-0.02351904,0.4741581,144.40134,210.38826)">
            <g
               id="g2853"
               transform="matrix(1.3241881,-0.01551019,-0.0166713,1.0007976,-148.81488,11.035066)">
              <path
                 style="fill:none;fill-opacity:1;fill-rule:evenodd;stroke:#000000;stroke-width:10.2537;stroke-linecap:butt;stroke-linejoin:miter;stroke-miterlimit:4;stroke-dasharray:none;stroke-opacity:1"
                 d="m -339.54977,530.99721 c 171.13781,-6.89474 171.13781,-6.89474 171.13781,-6.89474"
                 id="path3394" />
              <path
                 sodipodi:nodetypes="ccc"
                 style="fill:#000000;fill-opacity:1;fill-rule:evenodd;stroke:#000000;stroke-width:1.65588px;stroke-linecap:butt;stroke-linejoin:miter;stroke-opacity:1"
                 d="m -177.11447,504.70271 c 0,0 2.28223,2.7428 21.95613,24.22516 -36.62744,0.7832 -43.50429,0.0541 -43.50429,0.0541"
                 id="path3402" />
              <path
                 style="fill:#000000;fill-opacity:1;fill-rule:evenodd;stroke:#000000;stroke-width:1.24695px;stroke-linecap:butt;stroke-linejoin:miter;stroke-opacity:1"
                 d="m -335.62817,543.50212 c 0,0 0.0158,0.48447 15.70858,-18.07333 -33.0343,1.4009 -33.72931,1.08287 -33.72931,1.08287"
                 id="path3404"
                 sodipodi:nodetypes="ccc" />
            </g>
            <use
               x="0"
               y="0"
               xlink:href="#g2853"
               id="use2858"
               transform="matrix(0.9994767,-0.01017554,-0.01093729,0.7873148,5.8193711,113.16277)"
               width="744.09448"
               height="1052.3622" />
            <use
               x="0"
               y="0"
               xlink:href="#use2858"
               id="use2860"
               transform="matrix(1.2054255,-0.00982822,-0.01056397,1.0005054,104.55517,47.542565)"
               width="744.09448"
               height="1052.3622" />
          </g>
          <path
             style="fill:#000000;fill-rule:evenodd;stroke:#000000;stroke-width:0.965386px;stroke-linecap:butt;stroke-linejoin:miter;stroke-opacity:1"
             d="m -122.63839,483.43411 c -7.22748,28.43332 -21.16771,43.62744 -45.24473,58.16775 23.1337,-1.21856 41.92429,-23.12411 57.33808,-58.16857"
             id="path2862"
             sodipodi:nodetypes="ccc" />
          <use
             x="0"
             y="0"
             xlink:href="#path2862"
             id="use2864"
             transform="rotate(95.065523,-96.929692,549.69342)"
             width="744.09448"
             height="1052.3622" />
        </g>
        <path
           id="path3910"
           d="m 135.02869,643.64322 c -6.97734,2.78725 -11.51512,10.20017 -13.79243,19.3094 -1.69033,6.76132 0,16.4414 0,23.44712 0,11.7381 -2.10453,15.24299 -6.89621,24.82637 -4.4877,8.97538 -10.8689,15.3927 -17.930156,20.68864 -6.19385,4.64539 -10.72941,4.97962 -17.93016,1.37924 -5.37327,-2.68663 -6.89621,-11.04541 -6.89621,-17.93015 0,-6.91379 11.8953,-9.99817 15.17167,-16.55091 3.1188,-6.23761 11.19505,-12.57429 15.171666,-16.55092 6.5436,-6.5436 9.6547,-12.24125 9.6547,-20.68864 0,-9.2256 1.84095,-12.87489 6.89621,-17.93015 3.34468,-3.34468 12.85177,-0.73983 16.55092,0 z"
           style="display:inline;fill:#000000;fill-rule:evenodd;stroke:#000000;stroke-width:1px;stroke-linecap:butt;stroke-linejoin:miter;stroke-opacity:1" />
        <path
           id="path3912"
           d="m 151.5796,832.59947 c 5.96078,-5.96077 -9.74247,8.64221 -19.30939,11.03394 -10.07369,2.51842 -9.30612,-5.69126 -17.93016,-1.37924 -5.35227,2.67613 -4.56074,11.99017 0,16.55091 8.63042,8.63043 15.17167,12.04916 15.17167,24.82637 0,9.53671 0.30329,13.48914 -4.13773,17.93015 -2.65393,2.65393 -19.09346,-0.63563 -22.06789,-1.37924 -8.894666,-2.22367 -0.42963,9.22507 2.75849,12.41319 2.20634,2.20634 19.80792,0 23.44713,0 6.9124,0 11.03394,-3.76758 11.03394,-11.03395 0,-5.89213 5.83631,-14.43109 8.27546,-19.30939 3.06319,-6.12638 5.51697,-10.50584 5.51697,-17.93016 0,-7.49727 1.37924,-13.1962 1.37924,-20.68864 0,-5.74653 -1.31055,-3.966 -4.13773,-11.03394 z"
           style="display:inline;fill:#000000;fill-rule:evenodd;stroke:#000000;stroke-width:1px;stroke-linecap:butt;stroke-linejoin:miter;stroke-opacity:1" />
        <path
           id="path3914"
           d="m 288.12463,782.94673 c 0,-10.33683 -6.16958,-15.35333 -17.93016,-12.41319 -7.25186,1.81297 -9.6547,12.73986 -9.6547,19.3094 0,8.6946 9.85419,6.89622 16.55092,6.89622 10.53263,0 13.43324,-1.79594 11.03394,-13.79243 z"
           style="display:inline;fill:#000000;fill-rule:evenodd;stroke:#000000;stroke-width:1px;stroke-linecap:butt;stroke-linejoin:miter;stroke-opacity:1" />
        <path
           sodipodi:nodetypes="cssssc"
           id="path3916"
           d="m 386.05085,719.44553 c -13.55657,-6.29064 -16.34853,-3.49326 -23.44712,0.056 -6.52317,3.26158 -3.99228,12.99499 -2.75849,17.93015 2.64554,10.58215 16.30679,17.30157 24.82637,15.17167 7.94454,-1.98613 11.05274,-8.36943 12.41318,-15.17167 0.86003,-4.30015 -6.35391,-14.75726 -11.03394,-17.98619 z"
           style="display:inline;fill:#000000;fill-rule:evenodd;stroke:#000000;stroke-width:1px;stroke-linecap:butt;stroke-linejoin:miter;stroke-opacity:1" />
        <path
           id="path3918"
           d="m 588.69784,929.03557 c 1.15339,-8.72442 1.37005,-31.95526 1.37005,-47.67133 0,-7.34564 -11.0039,-18.71986 -13.70046,-22.79934 -4.83016,-7.30729 -14.36829,0.50517 -16.44054,2.07267 -8.89944,6.73173 5.28387,17.54342 8.22027,18.65399 12.59827,4.76482 9.64033,9.08245 16.44055,22.79934 2.52133,5.08585 1.86032,20.13745 4.11013,26.94467 z"
           style="display:inline;fill:#000000;fill-rule:evenodd;stroke:#000000;stroke-width:1.22178px;stroke-linecap:butt;stroke-linejoin:miter;stroke-opacity:1" />
        <path
           id="path3920"
           d="m 145.28649,95.850346 c 3.58212,-0.28003 5.86221,-0.70389 7.82523,3.22215 1.44447,2.888944 3.76499,2.301544 7.36492,2.301544 5.67934,0 0.0819,5.984 7.82523,5.984 0.76718,0 1.53436,0 2.30154,0 1.13959,0 6.6513,10.01145 7.82523,11.968 3.11983,5.19971 10.97334,8.21149 14.72984,11.96799 2.33116,2.33116 1.56582,5.34268 2.30154,8.28554 0.77249,3.08998 -4.00609,5.03605 -6.44431,5.52369 -5.01889,1.00378 -5.32997,-6.83174 -8.74584,0 -2.56187,5.12373 -2.32004,6.35965 -8.28554,8.74584 -5.4535,2.1814 -6.65361,5.02169 -8.74584,9.20615 -1.64068,3.28137 -3.97887,4.64405 -7.82523,3.68246 -4.04381,-1.01095 1.38092,-8.26004 1.38092,-12.4283 0,-4.63361 1.84123,-9.23645 1.84123,-13.80923 0,-5.03957 -0.35235,-8.87279 -2.76184,-12.88861 -2.23698,-3.72829 -2.56848,-4.28989 -3.68246,-8.74584 -0.92698,-3.70789 -2.68552,-7.21227 -4.14277,-10.12677 -1.36488,-2.72975 -3.68246,-3.49607 -3.68246,-7.36492 0,-2.253324 0.0366,-3.313694 0.92061,-5.523694 z"
           style="display:inline;fill:#000000;fill-rule:evenodd;stroke:#000000;stroke-width:1px;stroke-linecap:butt;stroke-linejoin:miter;stroke-opacity:1" />
        <path
           id="path3922"
           d="m 103.85881,106.89773 c 16.73601,4.21718 21.28048,23.21287 24.6653,35.39476 15.52467,6.54745 22.01579,24.41722 19.37944,38.88321 11.97873,8.41903 26.15438,19.6248 16.41957,35.52101 1.95199,14.85408 36.09963,19.47355 26.63646,-0.58863 0.4385,-16.44273 22.08113,-22.21025 20.42728,-39.27553 -1.22206,-12.29279 1.18491,-26.80607 10.86012,-9.32785 9.77821,11.0292 17.77245,30.85082 4.08103,41.92451 -10.39974,12.15616 -16.60794,33.36872 -5.76363,46.85937 18.66938,9.93049 24.85524,-17.25934 26.87402,-30.54081 2.99382,-8.4484 2.09918,-31.97332 11.66482,-14.4885 9.65718,13.49091 6.61337,30.52245 11.02314,45.62242 0.8029,18.35107 -31.37198,-5.3536 -29.68754,17.48491 -0.11457,7.99329 -7.6039,35.98255 8.86608,28.77014 10.05014,-5.59416 10.18107,21.50565 22.01166,18.14002 -1.36549,11.59818 21.55314,24.2644 16.51383,5.76244 -7.05653,-5.19265 -14.22863,-27.63727 0.34301,-15.36008 12.98663,14.48357 30.84252,6.86912 46.80088,4.64332 14.44318,-5.02125 30.16513,8.76663 41.66464,2.71695 -3.04017,-7.41124 -26.25769,-21.73828 -6.39421,-23.76434 18.98222,8.22988 25.33674,-21.98208 14.26431,-32.56912 -9.16325,-13.91963 -32.87831,-17.36854 -34.31837,3.79754 -3.22319,18.12828 -34.24893,20.28199 -27.12974,-2.44112 2.76135,-23.44732 29.12274,-22.44473 44.32313,-33.25689 14.45372,-8.03306 14.58735,-37.9694 -4.79454,-38.67171 -8.0873,-0.76317 -22.76365,24.24686 -22.1849,5.46149 8.49106,-21.42786 41.00056,-20.64843 45.96972,-44.63037 2.61262,-12.95483 -1.6881,-44.95948 20.68914,-34.98227 5.26978,11.32217 -10.15133,23.4574 -3.13558,36.94459 -2.93553,13.36684 -5.8689,25.93373 4.97991,37.36531 1.82376,11.48082 -13.58157,18.61427 -6.19528,31.85999 2.98702,13.32975 -21.47572,14.73253 -9.49667,29.22571 15.16299,12.97603 8.55352,30.96582 10.19462,47.82752 6.21339,11.19641 6.49531,36.86968 -12.60328,26.75567 -21.30215,-0.54902 -42.82644,0.056 -63.87335,3.34376 -15.84163,6.73095 -30.00014,16.94014 -45.35528,24.71745 -14.46393,8.05499 -20.81226,23.49321 -27.54286,37.60634 -7.38442,14.69516 -20.54328,-0.69235 -11.32963,-11.06258 10.07997,-14.8367 24.71384,-32.58937 8.97587,-49.48522 -7.50684,-16.98223 -31.16129,-18.27543 -34.23372,2.3152 -2.37311,13.53036 -22.13922,24.15638 -18.29793,2.71991 0.66346,-18.10796 5.81819,-35.04428 13.18567,-51.81966 10.50354,-17.11611 -18.91733,-19.36715 -10.70686,-35.34037 -0.0797,-22.91088 -24.67884,-7.40139 -36.59873,-12.44188 -17.33258,-1.28204 -25.91311,-19.08886 -13.90881,-31.91381 -1.05295,-16.08111 -22.58035,-10.62637 -24.21068,2.70033 -12.75801,13.32515 -27.211426,-5.38247 -20.34525,-18.71972 -6.24039,-11.66766 -27.408786,-18.47869 -14.778446,-34.69355 4.66521,-9.518 -7.88566,-25.37938 -3.97803,-29.22309 14.741946,20.16449 20.942916,-8.17306 16.049666,-19.76677 z"
           style="display:inline;fill:#000000;fill-rule:evenodd;stroke:#000000;stroke-width:1px;stroke-linecap:butt;stroke-linejoin:miter;stroke-opacity:1" />
        <path
           id="path3926"
           d="m 323.42551,217.37155 c 6.11379,-7.41625 4.29729,-13.96049 0,-22.55507 -5.53996,-11.07993 -7.82523,-6.23753 -7.82523,-21.63446 0,-10.30638 4.60912,-7.36855 13.80922,-12.88861 9.55247,-5.73148 9.77586,-3.65973 12.88862,-16.11077 1.99427,-7.97709 -1.71742,-14.0219 -5.06339,-20.71384 -5.77729,-11.55458 -19.79725,-10.13079 -27.15813,-17.49168 -6.1398,-6.139804 -1.94598,7.61574 -0.92062,9.66646 3.32659,6.65318 7.51987,12.81569 10.12676,19.33291 1.93388,4.83472 -2.85847,11.62712 -3.68246,16.57108 -0.7451,4.47056 -6.90479,7.97891 -9.20614,11.04738 -3.4027,4.53693 -3.22216,8.75136 -3.22216,14.26953 0,6.12817 5.20019,11.7813 7.82523,17.03138 1.60035,3.20072 0.92061,9.18415 0.92061,12.88861 0,5.44584 4.91938,11.9104 9.66646,13.80923 1.14856,0.45942 1.3818,-2.07359 1.84123,-3.22215 z"
           style="display:inline;fill:#000000;fill-rule:evenodd;stroke:#000000;stroke-width:1px;stroke-linecap:butt;stroke-linejoin:miter;stroke-opacity:1" />
        <path
           id="path3928"
           d="m 468.39046,99.586573 c 4.50631,1.802517 7.32667,8.975397 5.984,17.031377 -1.54439,9.26637 -2.66313,13.44763 4.60308,20.71384 4.67227,4.67227 -0.50518,9.06767 -5.06338,10.58707 -5.83913,1.94638 -12.99609,6.95368 -18.87261,4.60308 -8.1877,-3.27508 -7.399,-4.85315 -3.68246,-11.04739 2.92118,-4.86864 3.22215,-11.43702 3.22215,-17.03137 0,-5.96136 3.72803,-10.63265 7.82523,-14.72985 2.49249,-2.49249 3.68246,-5.3149 3.68246,-8.74584 0,-0.89468 1.53436,-0.92062 2.30153,-1.380917 z"
           style="display:inline;fill:#000000;fill-rule:evenodd;stroke:#000000;stroke-width:1px;stroke-linecap:butt;stroke-linejoin:miter;stroke-opacity:1" />
        <path
           sodipodi:nodetypes="cccsccssssssssssscccssssssssssssssccssssssssssssc"
           id="path3930"
           d="m 511.6913,418.06564 c -9.1665,-30.04567 -31.32343,-57.29079 -59.83999,-69.96675 -7.78326,-3.54169 -13.86864,-8.17447 -8.28554,-13.80923 2.57167,-2.57166 20.41552,-1.38092 23.47569,-1.38092 6.44061,0 8.92277,1.59385 10.58708,-5.06338 15.67694,-24.23137 16.27018,-38.15151 16.57107,-56.15752 0,-6.60656 -6.09794,-8.28554 -12.42831,-8.28554 -5.66502,0 -8.09875,4.00268 -11.96799,6.90461 -4.03446,3.02585 -6.11964,-10.41751 -0.46031,-17.49168 4.13433,-5.16791 8.29927,-10.59738 13.80923,-14.72984 1.86375,-1.39782 3.62895,-10.53357 6.4443,-13.34892 5.08399,-5.08399 4.60308,8.73222 4.60308,10.58707 0,8.94591 16.70052,8.28554 22.09476,8.28554 5.00336,0 6.21129,-2.06853 9.20615,-5.06339 6.31623,-6.31622 -0.33113,-10.56827 -4.14277,-15.65045 -3.14304,-4.19073 -1.48235,-13.55565 1.38093,-20.71384 2.05795,-5.14488 11.04738,-2.99132 11.04738,-8.74585 0,-5.23076 0.14814,-21.26411 -1.84123,-26.23753 -3.62777,-10.1913 -16.63784,-37.02698 5.06338,-21.63445 24.92111,35.86725 5.04179,37.24051 10.12677,54.7766 8.19621,2.04905 14.76926,9.12731 11.50769,15.65045 -2.88722,5.77443 -5.984,7.61571 -5.984,14.26954 0,5.29256 1.93864,16.7105 6.90461,17.95199 12.97394,3.24349 17.12738,-10.05046 19.33292,-18.87261 1.41678,-5.66712 9.35691,-20.10076 16.11076,-18.4123 9.1795,2.29488 14.90595,13.06471 21.17415,19.33292 4.53915,4.53914 14.74216,9.6911 17.03138,14.26953 2.4318,4.86361 -9.27594,4.93086 -12.4283,4.14277 -9.32457,-2.33114 -7.08722,-11.04738 -17.49169,-11.04738 -4.59846,0 1.26936,12.27956 2.76184,14.26953 1.98981,2.65308 -0.67847,7.41348 -3.22215,9.20616 -6.86628,4.83907 -9.27369,-5.71384 -11.96799,5.06337 -1.44013,5.7605 -4.92973,9.13184 -6.44431,15.19015 -3.34262,13.37047 -9.19344,5.92369 -19.79322,1.38092 -6.54308,-2.80417 -10.59652,-3.59417 -16.57108,-5.98399 -8.78768,-6.7083 -20.63494,-18.48318 -27.61845,6.90461 0,2.34066 -8.33765,30.48454 -10.12677,34.06276 -3.17736,6.35472 -4.20404,13.47147 -7.36492,19.79323 -2.89375,5.78749 -1.40922,12.27958 5.984,11.04738 11.87918,-1.97987 21.67369,-13.84846 28.99938,-21.17415 3.80749,-3.8075 7.00549,-7.39645 12.4283,-4.14277 7.60509,4.56306 8.2556,14.3294 4.60308,21.63446 -3.59015,7.18028 -12.73651,12.5814 -20.71384,10.58707 -5.35888,-1.33972 -8.53625,-5.06338 -14.26954,-5.06338 -3.72093,0 -5.89084,5.97853 -6.4443,8.74584 -1.23026,6.15127 11.04738,16.76547 11.04738,25.31692 0,6.96812 -0.51979,13.64631 -1.84123,20.25353 -0.6582,3.29098 -1.93622,6.9996 -3.68246,8.74584 -2.06196,2.06196 -3.9937,3.25459 -7.36492,4.60308 z"
           style="display:inline;fill:#000000;fill-rule:evenodd;stroke:#000000;stroke-width:1px;stroke-linecap:butt;stroke-linejoin:miter;stroke-opacity:1" />
        <path
           sodipodi:nodetypes="csssssssssssc"
           id="path3932"
           d="m 618.9564,84.888652 c 6.50989,-8.84189 20.69476,17.101028 29.45968,28.078758 2.27049,2.8437 0.46031,10.68985 0.46031,14.26953 0,6.5628 -3.43564,13.787 -6.90462,18.4123 -3.16661,4.22215 -3.68246,10.46418 -3.68246,16.57107 0,6.37933 3.81811,13.56682 5.06339,19.79323 0.76258,3.81291 -1.9419,7.50516 -5.06339,8.28554 -1.84357,0.46089 -6.15758,-2.73922 -7.36492,-3.22216 -1.25808,-0.50323 -2.1555,-13.83142 -2.76184,-15.65045 -1.79936,-5.39807 -0.81356,-9.45234 -3.22216,-14.26954 -2.99729,-5.9946 -9.66645,-4.04815 -9.66645,-11.50769 0,-6.56021 1.28354,-8.18815 5.52369,-12.4283 4.00692,-4.00692 7.06999,-15.85168 -1.38092,-47.871988"
           style="display:inline;fill:#000000;fill-rule:evenodd;stroke:#000000;stroke-width:1px;stroke-linecap:butt;stroke-linejoin:miter;stroke-opacity:1" />
        <path
           sodipodi:nodetypes="ccccccccccccccccccccccccccc"
           id="path3934"
           d="m 524.57992,438.31916 c 7.53978,14.39589 18.93422,36.3796 17.11212,53.13249 -1.9708,5.91227 7.07738,11.94871 10.08486,1.52551 -0.65078,-12.4534 3.92294,-21.28108 12.50365,-29.15287 8.29035,-5.64227 19.88095,-7.39245 24.76932,-17.16684 6.77002,-7.47418 8.16125,-18.48642 14.91924,-25.57249 10.38126,-0.23835 10.80259,17.18709 5.22725,23.4033 -9.07449,7.28996 -21.60397,16.61809 -13.43827,29.60782 5.17225,6.42717 -1.41067,26.88761 12.21028,20.17643 10.935,-6.00473 2.3051,-19.97969 9.64315,-28.27146 9.08581,-5.47745 16.59312,-14.95799 12.82865,-26.33738 -4.63356,-13.74622 -3.59262,-28.48527 -4.21425,-42.72982 3.48058,-10.65 17.23436,-10.6835 24.95814,-17.12036 22.85463,13.5303 5.33177,-37.36873 19.84045,-67.83925 0.21682,-11.50478 0.45058,-23.92703 -5.97568,-34.01433 -8.731,10.84435 -9.06687,25.5225 -7.78167,38.73276 0.32613,11.37993 -4.09071,22.75694 -12.52704,30.49988 -4.92849,5.86628 -14.38376,20.54572 -22.1658,12.70137 5.06734,-8.60667 15.03133,-15.03308 13.7,-26.89082 1.69621,-7.7858 -2.77605,-22.06337 -11.86849,-13.02271 -11.42433,4.18186 -9.8054,16.70904 -14.02808,25.6284 -5.76009,7.60831 -14.26163,12.23252 -22.6054,16.07702 -12.31088,-0.59641 -19.2413,17.87945 -10.11855,24.85966 7.75507,7.09541 5.14266,13.8917 6.51488,23.41785 1.94453,11.70414 -9.60077,19.77465 -20.32987,16.72917 -9.10567,-3.47961 -21.6572,-2.03758 -20.7202,10.23659 -2.94677,10.77862 -16.83196,-6.58583 -18.53869,1.39008 z"
           style="display:inline;fill:#000000;fill-rule:evenodd;stroke:#000000;stroke-width:1px;stroke-linecap:butt;stroke-linejoin:miter;stroke-opacity:1" />
        <path
           sodipodi:nodetypes="cscccc"
           id="path3938"
           d="m 616.64142,569.96713 c 4.74006,-1.42244 11.78423,-13.53449 13.80922,-21.63446 2.13016,-8.52065 6.53363,-16.95576 5.06339,-25.77722 1.80708,-12.00665 -12.60538,-21.92373 -22.09477,-17.03138 2.84573,9.99361 3.27744,46.51098 1.38093,60.7606 0.31119,1.24475 1.23146,2.66619 1.84123,3.68246 z"
           style="display:inline;fill:#000000;fill-rule:evenodd;stroke:#000000;stroke-width:1px;stroke-linecap:butt;stroke-linejoin:miter;stroke-opacity:1" />
        <path
           id="path3904"
           d="m 85.375954,370.55316 c -1.3885,-6.67212 -9.25198,-21.66515 -15.17167,-27.58485 -7.20619,-7.20618 -11.03395,20.72309 -11.03395,24.82637 0,10.64891 2.01137,20.20008 5.51697,28.96409 5.1239,12.80974 27.96834,6.2638 34.48107,1.37925 6.234906,-4.67619 12.413186,-8.22174 12.413186,-16.55091 0,-5.07455 -6.55717,-9.63164 -4.13773,-19.3094 1.50793,-6.03174 12.90592,-8.86716 15.17167,-17.93016 2.26486,-9.05943 -4.07125,-17.79721 -6.89621,-23.44712 -4.22617,-8.45235 -15.770956,-14.991 -19.309396,-22.06789 -3.8301,-7.6602 -1.45346,-21.69682 0,-28.96409 1.59156,-7.95783 0,-18.03797 0,-26.20562 0,-8.86266 -25.61802,4.34178 -28.9641,11.03395 -2.48141,4.96281 0,17.90035 0,23.44712 0,10.01015 1.16777,29.92039 5.51697,38.6188 5.53006,11.06012 13.38266,18.78768 23.44713,24.82637 6.179296,3.70758 -0.05874,24.88511 -2.75849,27.58485 -2.42235,2.42235 -4.42792,1.37924 -8.27545,1.37924 z"
           style="display:inline;fill:#000000;fill-rule:evenodd;stroke:#000000;stroke-width:1px;stroke-linecap:butt;stroke-linejoin:miter;stroke-opacity:1" />
        <path
           id="path3906"
           d="m 227.43795,418.82666 c -4.5163,4.5163 -10.16389,-9.6547 -16.55091,-9.6547 -13.00448,0 -18.81104,-2.37596 -24.82637,9.6547 -3.00246,6.00493 -3.65856,14.21334 -5.51697,17.93015 -2.19657,4.39314 -14.50325,-2.75848 -19.3094,-2.75848 -9.92281,0 5.66968,19.38575 -8.27545,12.41318 -6.99059,-3.49529 3.49529,-16.45654 0,-23.44712 -5.55179,-11.10357 -12.7806,4.59554 -13.79243,9.6547 -2.33113,11.65563 -5.3375,11.63382 -15.17168,16.55091 -11.56531,5.78265 -12.41318,8.19801 -12.41318,20.68864 0,8.57049 1.22467,15.93261 1.37924,16.55091 0.41635,1.66539 19.81137,-11.53591 20.68865,-12.41318 6.64081,-6.64081 15.37053,-7.29394 19.3094,-15.17167 3.69099,-7.38199 9.40609,12.79801 9.65469,13.79242 0.37466,1.49861 9.2723,-8.42581 12.41319,4.13773 2.44705,9.78819 -1.78963,19.71979 9.6547,8.27546 7.57699,-7.57699 12.41318,-19.08715 12.41318,-1.37924 0,10.06977 -1.16577,18.14362 4.13773,23.44712 8.99462,8.99462 12.05602,0.0494 13.79243,-6.89621 1.67574,-6.70297 0,-16.44017 0,-23.44713 0,-6.8513 1.37924,-13.30478 1.37924,-20.68864 0,-8.58025 0.86532,-13.116 2.75849,-20.68864 1.16918,-4.67674 5.86305,-12.53024 8.27545,-16.55091 z"
           style="display:inline;fill:#000000;fill-rule:evenodd;stroke:#000000;stroke-width:1px;stroke-linecap:butt;stroke-linejoin:miter;stroke-opacity:1" />
        <path
           sodipodi:nodetypes="csssssssssssssssssssc"
           id="path3908"
           d="m 180.5437,520.89062 c 3.3417,5.82268 -5.51697,15.62107 -5.51697,23.74781 0,7.18858 3.7286,11.29423 6.89621,17.62947 2.4022,4.80439 14.78168,16.55091 1.37925,16.55091 -9.88817,0 -13.2933,0.4162 -13.61375,-6.1044 -1.51976,-30.92474 -19.97027,3.63954 -22.24656,6.1044 -2.63285,2.85096 -1.58389,15.99023 -2.75849,20.68864 -0.44589,1.78357 -19.53629,-2.98281 -22.06789,-4.13773 -18.67378,-8.51903 -29.619996,-22.01319 -15.17167,11.03395 2.94673,6.73995 0,14.71192 0,22.06788 0,8.69951 -6.04967,14.85782 -9.654696,22.06788 -3.07832,6.15664 -9.97176,11.27174 -15.17167,15.17167 -10.32103,7.74078 -4.36887,-9.19241 -1.37924,-15.17167 5.52672,-11.05344 7.96154,-18.05373 11.03394,-30.34334 2.11711,-8.46843 -6.66175,-16.49229 -12.41318,-17.93015 -19.38309,-4.84577 -4.61602,-11.9349 4.13772,-20.68864 16.199146,-16.19915 13.90827,-12.87656 19.309396,-34.48107 1.9054,-7.6216 15.04112,4.76207 22.06789,8.27546 5.21904,2.60952 17.71367,-11.31486 26.20561,-9.6547 12.18742,2.38261 10.00753,-4.91075 17.57279,-20.04126 2.73905,-5.4781 5.4202,-9.38856 11.39131,-4.78511 z"
           style="display:inline;fill:#000000;fill-rule:evenodd;stroke:#000000;stroke-width:1px;stroke-linecap:butt;stroke-linejoin:miter;stroke-opacity:1" />
        <path
           sodipodi:nodetypes="cccccccccccccccccccccccccc"
           id="path3940"
           d="m 555.88079,538.66621 c -0.54406,9.19929 -0.5532,18.49025 -2.68269,27.49058 -0.2615,10.73396 15.12147,11.21023 18.44674,20.97286 6.29518,8.71372 12.80864,17.28126 18.74762,26.2275 6.90191,8.67531 20.69198,7.16701 28.23612,0.18296 7.4248,-3.93724 15.19183,-8.61669 17.64749,-17.26962 4.95019,-10.34281 5.72395,-21.92449 5.16347,-33.20233 -0.71128,-11.42503 11.60349,1.45982 14.86771,4.68993 3.96466,8.48212 2.41467,18.50383 -1.13991,26.87347 -2.44803,9.26286 -4.62087,18.67686 -7.75021,27.71031 -2.79616,6.87717 -9.14039,12.3334 -16.91739,11.5952 -8.00306,-1.61475 -16.02688,3.20444 -17.80091,11.32701 -2.63347,10.89399 -6.42879,21.93556 -5.55507,33.28903 2.66759,10.81799 14.45976,1.30424 21.15167,0.67834 9.37989,-4.96196 17.23025,5.9969 12.41146,14.307 -4.69944,9.62941 -16.29008,12.80974 -25.92537,14.92711 -8.34434,0.99796 -16.22465,-2.94162 -23.85078,-5.69057 -5.68929,-6.2036 -16.78951,-8.3466 -16.35713,-18.49528 -1.78525,-14.99856 5.86691,-28.71209 10.94696,-42.26578 3.96648,-16.70406 -8.52421,-31.9172 -21.22813,-41.09557 -9.41808,-9.2785 -18.74025,2.53233 -25.2249,8.99933 -9.90569,2.53766 -13.53398,12.75263 -18.75856,20.35521 -4.15622,6.10222 -14.45441,-8.19863 -8.93025,-11.51987 18.88038,-29.7922 30.40152,-67.079 28.85164,-103.10219 9.06409,-3.59888 12.34409,9.71321 14.40305,16.19462 0.57208,2.24012 1.04615,4.51428 1.24737,6.82075 z"
           style="display:inline;fill:#000000;fill-rule:evenodd;stroke:#000000;stroke-width:1px;stroke-linecap:butt;stroke-linejoin:miter;stroke-opacity:1" />
        <path
           id="path3943"
           d="m 498.80268,679.98064 c -3.16135,-1.82208 -7.18105,-2.94572 -10.12676,0 -2.32465,2.32465 -0.5797,5.82481 0.92061,7.82522 2.89232,3.85642 4.9284,7.71793 6.44431,11.50769 1.37302,3.43255 -0.27083,9.63968 -0.92062,12.88861 -0.71819,3.59097 -0.87897,7.99178 0,11.50769 1.33022,5.32085 4.30646,9.66646 10.12677,9.66646 5.91751,0 10.18754,-3.89968 8.74584,-9.66646 -0.73184,-2.92737 -1.22113,-5.64537 -1.84123,-8.74584 -0.66086,-3.30433 -1.17995,-7.02135 -1.84123,-9.66646 -0.7294,-2.91759 -3.2683,-5.61598 -4.60307,-8.28553 -1.62617,-3.25234 -1.84123,-5.98306 -1.84123,-9.66646 0,-3.38058 0.27568,-4.7877 -1.84123,-6.90462 -0.8034,-0.8034 -2.37398,-0.4603 -3.22216,-0.4603 z"
           style="display:inline;fill:#000000;fill-rule:evenodd;stroke:#000000;stroke-width:1px;stroke-linecap:butt;stroke-linejoin:miter;stroke-opacity:1" />
        <path
           sodipodi:nodetypes="ccccccsssccccc"
           id="path3945"
           d="m 515.83406,669.85387 c -2.39757,-2.39757 20.25354,4.55931 20.25354,13.80923 15.73222,6.75168 7.64631,44.40053 11.50769,63.06213 12.48357,22.39538 32.16303,35.00146 57.07813,32.22153 4.06755,0 9.9589,-2.92971 12.88861,0 -1.51629,11.32185 -14.93429,15.72031 -5.52369,28.07876 3.44984,4.31231 5.52369,5.04086 5.52369,10.58707 0,2.64208 -7.98501,3.06713 -9.20615,2.76185 -6.39897,-1.59974 -13.02913,-10.26729 -17.49169,-14.72984 -5.08826,-5.08827 -6.27411,-6.77851 -13.80922,-8.28554 -28.37944,-5.47023 -52.71725,-24.71122 -52.93537,-63.98275 0,-8.24629 3.22216,-17.01265 3.22216,-25.31692 0.25325,-13.07623 -19.48313,-18.12912 -14.26954,-31.76121 -0.77613,-3.10453 0.72154,-3.89394 2.76184,-6.44431 z"
           style="display:inline;fill:#000000;fill-rule:evenodd;stroke:#000000;stroke-width:1px;stroke-linecap:butt;stroke-linejoin:miter;stroke-opacity:1" />
        <path
           sodipodi:nodetypes="cccccccccccccccccccccccccccccc"
           id="path3966"
           d="m 212.1354,527.09225 c 5.22077,16.33865 7.04402,33.686 15.82318,48.76602 8.402,15.01974 13.80984,32.79996 25.91668,44.84197 11.13769,4.60451 10.73123,14.6254 -1.67386,15.57962 -7.14237,9.37883 18.97345,27.73058 3.58066,29.41469 -10.03041,-4.4055 -20.51047,-7.98124 -28.03439,1.97819 -14.84708,1.78382 -30.05003,0.37983 -44.49764,5.69725 -18.21608,6.20989 7.15834,21.3435 -1.4277,32.47536 -7.17179,12.33328 -21.92265,26.19224 -11.68809,41.19958 8.92815,12.57476 -6.99893,24.00277 -3.3405,37.36574 -0.19017,15.08964 17.77383,13.46224 15.16406,-0.89215 -1.56539,-11.74831 27.34855,-8.17238 20.52896,-25.5391 4.61894,-17.34964 15.78361,10.16502 6.55267,15.96671 -14.43597,12.35106 -11.22932,29.88967 -9.02052,46.32616 0.0474,17.17398 -19.78022,22.03887 -27.32619,35.07495 -1.02295,6.07054 -11.93569,22.39595 -11.50037,7.47715 1.34791,-17.11637 13.92083,-30.86926 16.52486,-47.3998 -4.70872,-11.30391 -18.76794,-8.94999 -20.79461,-22.06309 -9.63139,10.10975 -28.12288,5.77886 -35.13466,-5.48091 -9.04617,-13.40038 13.68785,-33.47051 22.02742,-42.35433 10.00629,-6.12496 14.84121,-31.27615 -3.37334,-24.00823 -8.5073,2.73848 -17.70405,24.16754 -24.02241,17.16156 1.02528,-19.55892 25.85143,-25.8454 27.82353,-45.07551 0.38386,-16.19078 14.96803,-24.08539 28.92853,-26.99645 10.07742,-6.35187 14.56247,-23.81563 30.18457,-16.5238 18.26391,8.39946 16.74087,-14.69173 8.72193,-24.14093 -4.94372,-5.73379 -18.51511,-25.25299 -4.28502,-25.09751 4.52576,5.3214 27.49599,24.32554 15.21752,-2.01704 -5.90594,-11.3659 -6.49256,-24.59456 -13.84421,-35.47317 -5.38724,-10.5514 -5.63517,-26.7572 1.39628,-36.78714"
           style="display:inline;fill:#000000;fill-rule:evenodd;stroke:#000000;stroke-width:1px;stroke-linecap:butt;stroke-linejoin:miter;stroke-opacity:1" />
        <path
           id="path3970"
           d="m 190.11813,626.16997 c -0.17474,0 -0.34948,0 -0.52422,0 -9.6143,0 -0.0449,-8.89679 -15.72662,-3.66955 -5.38811,1.79604 -4.47473,6.96448 -1.04845,11.53286 0.67133,0.89511 1.39793,1.7474 2.09689,2.6211 4.87517,6.09397 11.33599,2.94891 16.25084,0 2.36584,-1.4195 -0.35513,-9.32888 -1.04844,-10.48441 z"
           style="display:inline;fill:#000000;fill-rule:evenodd;stroke:#000000;stroke-width:1px;stroke-linecap:butt;stroke-linejoin:miter;stroke-opacity:1" />
        <path
           id="path3972"
           d="m 286.05051,640.84817 c 31.04143,19.17021 68.00508,27.624 104.31988,25.19675 15.01604,1.38767 34.6446,0.58653 45.92208,-9.39747 5.23977,-3.46501 26.91849,-15.26287 19.35608,-0.12872 -1.37572,4.55581 -24.07724,12.15517 -10.23496,8.44357 14.26723,-1.87626 20.50183,-28.76833 35.01914,-20.58713 0.82235,11.28504 -11.93271,19.54653 -11.32488,31.35029 -12.10482,4.51991 -28.20375,0.88839 -36.31536,14.76331 -11.82282,12.79153 -1.95162,29.46357 5.50251,41.54166 8.12434,14.86941 -2.04933,30.55977 -8.32869,43.98927 -5.003,10.25315 -10.71104,20.93682 -11.2842,32.47149 1.9866,15.22235 17.78938,10.78343 20.19155,-1.43072 4.13454,-5.61936 6.61944,-24.41296 12.81492,-21.41009 3.13914,14.20829 2.45526,29.08202 8.9371,42.4919 4.23799,16.40131 -7.28099,29.92776 -17.62975,40.99805 -11.81966,11.04683 -16.21568,26.53365 -8.43858,41.17113 1.55898,19.35464 -23.82401,4.53616 -22.9176,-7.95856 -6.79944,-13.73783 -2.03572,-30.25404 10.43457,-38.94734 7.04736,-3.94812 25.43576,-18.55951 10.3912,-22.63953 -11.87977,2.38997 -37.65777,2.75376 -31.92404,-15.9992 2.90305,-15.73356 -7.51399,-31.64895 -1.05009,-47.05635 -0.58776,-16.70976 9.0833,-30.29745 17.12712,-43.50889 -0.17664,-12.58122 1.38487,-32.4788 -12.5873,-37.94105 -14.62856,-1.02656 -29.24313,-2.71663 -43.91995,-3.70418 -15.02441,-2.46648 -27.80129,8.62043 -31.13512,22.77516 -6.00848,15.13005 2.33698,29.99028 10.39394,42.42617 10.12392,17.85181 4.26997,39.4301 -2.49935,57.3473 -8.02538,10.05899 -20.85612,20.99241 -12.48082,34.12447 -1.39224,16.87318 19.89177,9.69958 27.17465,15.58067 -3.25372,12.71497 -11.39701,23.71744 -14.04153,36.86521 -8.97055,14.34876 -22.90864,26.6488 -40.3354,28.5121 -6.93425,4.01664 -24.63787,-3.13758 -12.03224,-8.85422 16.35469,0.10959 24.77422,-13.61325 31.88507,-26.27286 14.34794,-13.88069 0.82583,-30.07327 -3.36351,-44.9629 -2.19525,-5.84128 5.93917,-23.25419 -2.67422,-10.04511 -7.89787,13.99104 0.85909,31.48524 -5.54922,45.20833 -11.93295,4.52487 -6.99975,-17.16816 -14.04028,-23.30696 -7.9923,-14.1106 -3.49521,-32.63679 9.70786,-41.91605 10.88058,-8.99097 24.19252,-17.33426 28.30608,-31.75452 -3.84669,-16.33832 -23.39658,-23.77523 -24.61068,-41.51062 -4.97902,-15.74134 -5.86518,-33.91643 5.63358,-47.02704 9.11497,-12.62079 5.59067,-29.11935 -8.52535,-36.05257 -6.6846,-6.21409 -24.9992,-10.66104 -15.87421,-22.84475 z"
           style="display:inline;fill:#000000;fill-rule:evenodd;stroke:#000000;stroke-width:1px;stroke-linecap:butt;stroke-linejoin:miter;stroke-opacity:1"
           sodipodi:nodetypes="ccccccccccccccccccccccccccccccccccccccccccc" />
      </g>
    </g>
  </g>
</svg>
