<svg xmlns="http://www.w3.org/2000/svg" viewBox="0 0 512 512" style="height: 64px; width: 64px;"><defs><radialGradient id="delapouite-opened-food-can-gradient-1"><stop offset="0%" stop-color="#4a4a4a" stop-opacity="1"></stop><stop offset="100%" stop-color="#4a4a4a" stop-opacity="1"></stop></radialGradient><radialGradient id="delapouite-opened-food-can-gradient-2"><stop offset="0%" stop-color="#9b9b9b" stop-opacity="1"></stop><stop offset="100%" stop-color="#c9c9c9" stop-opacity="1"></stop></radialGradient><radialGradient id="delapouite-opened-food-can-gradient-3"><stop offset="0%" stop-color="#9b9b9b" stop-opacity="1"></stop><stop offset="100%" stop-color="#4a4a4a" stop-opacity="1"></stop></radialGradient><radialGradient id="delapouite-opened-food-can-gradient-4"><stop offset="0%" stop-color="#9b9b9b" stop-opacity="1"></stop><stop offset="100%" stop-color="#c9c9c9" stop-opacity="1"></stop></radialGradient><radialGradient id="delapouite-opened-food-can-gradient-5"><stop offset="0%" stop-color="#9b9b9b" stop-opacity="1"></stop><stop offset="100%" stop-color="#4a4a4a" stop-opacity="1"></stop></radialGradient><radialGradient id="delapouite-opened-food-can-gradient-6"><stop offset="0%" stop-color="#f5a623" stop-opacity="1"></stop><stop offset="100%" stop-color="#b57204" stop-opacity="1"></stop></radialGradient><radialGradient id="delapouite-opened-food-can-gradient-7"><stop offset="0%" stop-color="#f5a623" stop-opacity="1"></stop><stop offset="100%" stop-color="#b57204" stop-opacity="1"></stop></radialGradient><radialGradient id="delapouite-opened-food-can-gradient-8"><stop offset="0%" stop-color="#ff0300" stop-opacity="0.94"></stop><stop offset="100%" stop-color="#fc7805" stop-opacity="1"></stop></radialGradient><radialGradient id="delapouite-opened-food-can-gradient-9"><stop offset="0%" stop-color="#d0021b" stop-opacity="1"></stop><stop offset="100%" stop-color="#fc7805" stop-opacity="1"></stop></radialGradient><radialGradient id="delapouite-opened-food-can-gradient-10"><stop offset="0%" stop-color="#d0021b" stop-opacity="1"></stop><stop offset="100%" stop-color="#fc7805" stop-opacity="1"></stop></radialGradient><radialGradient id="delapouite-opened-food-can-gradient-11"><stop offset="0%" stop-color="#f5a623" stop-opacity="1"></stop><stop offset="100%" stop-color="#f8e71c" stop-opacity="1"></stop></radialGradient><radialGradient id="delapouite-opened-food-can-gradient-12"><stop offset="0%" stop-color="#f8e71c" stop-opacity="1"></stop><stop offset="100%" stop-color="#ffe0af" stop-opacity="1"></stop></radialGradient><radialGradient id="delapouite-opened-food-can-gradient-13"><stop offset="0%" stop-color="#f8e71c" stop-opacity="1"></stop><stop offset="100%" stop-color="#ffe0af" stop-opacity="1"></stop></radialGradient></defs><g class="" transform="translate(0,0)" style=""><g><path d="M373.344 38.504C372.914 38.513 354.51 52.875 354.51 52.875L325.545 47.083C325.333 47.143 301.402 69.945 301.402 69.945L275.754 68.406L260.294 85.23L232.221 84.508L213.705 105.123L188.334 108.051L171.211 126.421L143.996 135.371L127.934 157.969L104.214 164.193L91.21 184.67L70.058 195.959L62.657 217.739L38.989 231.689L35.913 255.588C50.625 250.252 64.381 256.293 74.864 263.988L100.589 248.018L135.511 242.468L165.528 215.383L210.738 210.092L243.708 180.385L276.39 172.207L296.644 145.619C307.089 139.779 322.169 135.629 335.501 130.061L345.3 105.166L373.614 94.396C373.768 94.228 373.934 94.055 374.087 93.886L377.169 75.125L397.655 59.561C397.702 59.438 397.749 59.315 397.794 59.193L381.87 53.25Z" class="" fill="url(#delapouite-opened-food-can-gradient-2)" stroke="#4a4a4a" stroke-opacity="1" stroke-width="8"></path><path d="M256 207.496C255.764 207.496 255.531 207.5 255.295 207.5C252.428 209.198 249.551 210.88 246.665 212.545C238.667 217.143 230.594 221.611 222.451 225.947C233.392 225.65 244.595 225.497 256 225.497C317.422 225.497 373.054 229.973 412.81 237.072C432.689 240.622 448.644 244.888 458.896 249.217C464.023 251.381 467.69 253.608 469.531 255.215C470.326 255.908 470.584 256.257 470.761 256.496C470.584 256.736 470.326 257.084 469.531 257.777C467.691 259.384 464.023 261.611 458.896 263.775C448.644 268.104 432.689 272.37 412.811 275.92C373.054 283.02 317.421 287.496 256 287.496C195.815 287.496 141.229 283.192 101.65 276.34C100.588 276.634 99.502 276.95 98.453 277.23C83.496 281.22 69.95 283.773 57.984 284.668C68.602 288.046 81.328 291.016 96.025 293.641C137.341 301.018 193.71 305.496 256 305.496C318.29 305.496 374.659 301.018 415.975 293.641C436.633 289.951 453.481 285.6 465.898 280.357C472.108 277.737 477.241 274.939 481.368 271.337C485.494 267.737 489 262.662 489 256.497C489 250.33 485.494 245.255 481.367 241.654C477.241 238.054 472.107 235.256 465.898 232.634C453.481 227.392 436.633 223.04 415.975 219.352C374.659 211.974 318.29 207.496 256 207.496Z" class="" fill="url(#delapouite-opened-food-can-gradient-3)" stroke="#4a4a4a" stroke-opacity="1" stroke-width="8"></path><path d="M480 288.422C462.114 297.783 437.703 304.125 409.146 309.439C364.879 317.677 310.486 321.872 256.062 322.254C201.639 322.636 147.262 319.203 103.041 311.938C80.931 308.305 61.366 303.73 45.412 298.038C40.617 296.326 36.14 294.538 32 292.618L32 405.113C86.727 424.971 171.481 435.496 256 435.496C340.519 435.496 425.273 424.971 480 405.113Z" class="" fill="url(#delapouite-opened-food-can-gradient-4)" stroke="#4a4a4a" stroke-opacity="1" stroke-width="8"></path><path d="M23.354 421.135C23.119 422.24 23 423.366 23 424.496C23 430.662 26.506 435.736 30.633 439.338C34.759 442.939 39.893 445.736 46.102 448.358C58.519 453.6 75.367 457.952 96.025 461.641C137.341 469.018 193.71 473.496 256 473.496C318.29 473.496 374.659 469.018 415.975 461.641C436.633 457.951 453.481 453.6 465.898 448.357C472.108 445.737 477.241 442.939 481.368 439.337C485.494 435.737 489 430.662 489 424.497C489 423.337 488.875 422.215 488.646 421.135C430.119 443.117 343.196 453.496 256 453.496C168.804 453.496 81.881 443.116 23.354 421.135Z" class="selected" fill="url(#delapouite-opened-food-can-gradient-5)" stroke="#4a4a4a" stroke-opacity="1" stroke-width="8"></path></g></g><g font-family="Arial, Helvetica, sans-serif" font-size="78" font-style="normal" font-weight="bold" text-anchor="middle" text-decoration=" rgba(255, 255, 255, 1)" class="" transform="translate(253,398)" style=""><g><text stroke="rgba(0, 0, 0, 1)" stroke-width="19.5"><tspan x="0" y="0">rations</tspan></text><text fill="rgba(255, 255, 255, 1)"><tspan x="0" y="0">rations</tspan></text></g></g></svg>