<?xml version="1.0" encoding="UTF-8" standalone="no"?>
<svg
   viewBox="0 0 512 512"
   style="height: 64px; width: 64px;"
   version="1.1"
   id="svg16"
   sodipodi:docname="save-svg-pressed.svg"
   inkscape:version="1.1.2 (0a00cf5339, 2022-02-04)"
   inkscape:export-filename="/home/plic/Documents/dev/conaruto.github.io/images/ui/save-svg-pressed.png"
   inkscape:export-xdpi="24"
   inkscape:export-ydpi="24"
   xmlns:inkscape="http://www.inkscape.org/namespaces/inkscape"
   xmlns:sodipodi="http://sodipodi.sourceforge.net/DTD/sodipodi-0.dtd"
   xmlns="http://www.w3.org/2000/svg"
   xmlns:svg="http://www.w3.org/2000/svg"
   xmlns:rdf="http://www.w3.org/1999/02/22-rdf-syntax-ns#"
   xmlns:cc="http://creativecommons.org/ns#"
   xmlns:dc="http://purl.org/dc/elements/1.1/">
  <metadata
     id="metadata22">
    <rdf:RDF>
      <cc:Work
         rdf:about="">
        <dc:format>image/svg+xml</dc:format>
        <dc:type
           rdf:resource="http://purl.org/dc/dcmitype/StillImage" />
      </cc:Work>
    </rdf:RDF>
  </metadata>
  <defs
     id="defs20" />
  <sodipodi:namedview
     pagecolor="#ffffff"
     bordercolor="#666666"
     borderopacity="1"
     objecttolerance="10"
     gridtolerance="10"
     guidetolerance="10"
     inkscape:pageopacity="0"
     inkscape:pageshadow="2"
     inkscape:window-width="1996"
     inkscape:window-height="1169"
     id="namedview18"
     showgrid="false"
     inkscape:zoom="0.69605824"
     inkscape:cx="-68.959747"
     inkscape:cy="140.79282"
     inkscape:window-x="2220"
     inkscape:window-y="130"
     inkscape:window-maximized="0"
     inkscape:current-layer="svg16"
     inkscape:document-rotation="0"
     inkscape:pagecheckerboard="0" />
  <g
     class=""
     transform="translate(0,0)"
     style="touch-action: none;"
     id="g14">
    <g
       id="g12">
      <path
         d="M64 48C55.274 48 48 55.274 48 64L48 448C48 456.726 55.274 464 64 464L279 464L279 448L64 448L64 64L127.375 64L127.375 161.53C127.375 165.454 130.818 168.625 135.095 168.625L304.905 168.625C309.182 168.625 312.625 165.455 312.625 161.531L312.625 64L381.845 64C382.273 64.318 382.645 64.548 383.312 65.094C385.362 66.769 388.274 69.358 391.687 72.5C398.514 78.783 407.337 87.337 416 96C424.663 104.663 433.217 113.486 439.5 120.313C442.642 123.726 445.23 126.637 446.906 128.687C447.452 129.355 447.682 129.727 448 130.157L448 330.25L464 346.25L464 128C464 125.32 463.343 124.598 462.97 123.844C462.595 123.09 462.245 122.55 461.875 122C461.135 120.9 460.3 119.81 459.281 118.562C457.245 116.07 454.513 113.012 451.251 109.469C444.727 102.379 436.096 93.469 427.313 84.687C418.531 75.904 409.621 67.273 402.533 60.749C398.988 57.487 395.933 54.755 393.439 52.719C392.192 51.699 391.102 50.864 390.001 50.124C389.451 49.754 388.911 49.404 388.157 49.03C387.403 48.657 386.68 48 384.001 48L64 48Z"
         class=""
         fill="#c9c9c9"
         fill-opacity="1"
         stroke="#000000"
         stroke-opacity="1"
         stroke-width="15"
         id="path2" />
      <path
         d="M151.72 64L200.28 64C204.557 64 208 68.425 208 73.938L208 144.062C208 149.575 204.557 154 200.28 154L151.72 154C147.443 154 144 149.575 144 144.062L144 73.938C144 68.426 147.443 64.001 151.72 64.001Z"
         class=""
         fill="#4a4a4a"
         fill-opacity="1"
         id="path4" />
      <path
         d="M114 212C109.568 212 106 215.568 106 220L106 404C106 408.432 109.568 412 114 412L279 412L279 384L202.28 384L217.625 368.625L345.625 240.625L352 234.28L358.375 240.625L406 288.25L406 220C406 215.568 402.432 212 398 212L114 212Z"
         class=""
         fill="#c3dcec"
         fill-opacity="1"
         stroke="#4a90e2"
         stroke-opacity="1"
         stroke-width="19"
         id="path6" />
      <path
         d="M352 259.75L245.75 366L297 366L297 494L407 494L407 366L458.25 366L352 259.75Z"
         class=""
         fill="#417505"
         fill-opacity="1"
         stroke="#000000"
         stroke-opacity="1"
         stroke-width="8"
         id="path8" />
      <path
         d="M448 384L448 448L425 448L425 464L448 464C456.726 464 464 456.726 464 448L464 384L448 384Z"
         class="selected"
         fill="#c9c9c9"
         fill-opacity="1"
         stroke="#000000"
         stroke-opacity="1"
         stroke-width="15"
         id="path10" />
    </g>
  </g>
  <svg
     x="273.16"
     y="98.459999"
     version="1.1"
     id="svg1159"
     width="100%"
     height="100%">
    <!--?xml version="1.0" encoding="UTF-8"?-->
    <svg
       width="97"
       height="214"
       viewBox="0 0 97 214"
       version="1.1"
       id="svg1157">
      <g
         id="g1155" />
    </svg>
  </svg>
  <svg
     x="121.895"
     y="19.621"
     version="1.1"
     id="svg1229"
     width="100%"
     height="100%">
    <!--?xml version="1.0" encoding="UTF-8"?-->
    <svg
       width="529"
       height="758"
       viewBox="0 0 529 758"
       version="1.1"
       id="svg1227">
      <g
         id="g1225" />
    </svg>
  </svg>
  <g
     id="g1255"
     transform="matrix(0.37295866,0,0,0.37295866,36.555986,308.89997)">
    <path
       style="fill:#e2e5e7"
       d="M 128,0 C 110.4,0 96,14.4 96,32 v 448 c 0,17.6 14.4,32 32,32 h 320 c 17.6,0 32,-14.4 32,-32 V 128 L 352,0 Z"
       id="path1176" />
    <path
       style="fill:#b0b7bd"
       d="m 384,128 h 96 L 352,0 v 96 c 0,17.6 14.4,32 32,32 z"
       id="path1178" />
    <polygon
       style="fill:#cad1d8"
       points="480,224 384,128 480,128 "
       id="polygon1180" />
    <path
       style="fill:#f7b84e"
       d="m 416,416 c 0,8.8 -7.2,16 -16,16 H 48 c -8.8,0 -16,-7.2 -16,-16 V 256 c 0,-8.8 7.2,-16 16,-16 h 352 c 8.8,0 16,7.2 16,16 z"
       id="path1182" />
    <g
       id="g1190">
      <path
         style="fill:#ffffff"
         d="m 96.816,314.656 c 2.944,-24.816 40.416,-29.28 58.08,-15.712 8.704,7.024 -0.512,18.16 -8.192,12.528 -9.472,-6.016 -30.96,-8.832 -33.648,4.464 -3.456,20.992 52.192,8.976 51.312,42.992 -0.896,32.496 -47.984,33.264 -65.648,18.672 -4.224,-3.44 -4.096,-9.056 -1.792,-12.528 3.328,-3.312 7.04,-4.464 11.392,-0.896 10.48,7.168 37.488,12.544 39.392,-5.648 -1.648,-18.912 -54.864,-7.52 -50.896,-43.872 z"
         id="path1184" />
      <path
         style="fill:#ffffff"
         d="m 209.12,378.256 -33.776,-70.752 c -4.992,-10.112 10.112,-18.416 15.728,-7.808 l 11.392,25.712 14.704,33.776 14.448,-33.776 11.392,-25.712 c 5.12,-9.712 19.952,-3.584 15.616,7.04 L 226,378.256 c -2.944,8.064 -12.016,9.968 -16.88,0 z"
         id="path1186" />
      <path
         style="fill:#ffffff"
         d="m 345.76,374.16 c -9.088,7.536 -20.224,10.752 -31.472,10.752 -26.88,0 -45.936,-15.36 -45.936,-45.808 0,-25.84 20.096,-45.92 47.072,-45.92 10.112,0 21.232,3.456 29.168,11.264 7.792,7.664 -3.456,19.056 -11.12,12.288 -4.736,-4.624 -11.392,-8.064 -18.048,-8.064 -15.472,0 -30.432,12.4 -30.432,30.432 0,18.944 12.528,30.448 29.296,30.448 7.792,0 14.448,-2.304 19.184,-5.76 V 348.08 h -19.184 c -11.392,0 -10.24,-15.632 0,-15.632 h 25.584 c 4.736,0 9.072,3.6 9.072,7.568 v 27.248 c 0.016,2.288 -1.008,4.448 -3.184,6.896 z"
         id="path1188" />
    </g>
    <path
       style="fill:#cad1d8"
       d="M 400,432 H 96 v 16 h 304 c 8.8,0 16,-7.2 16,-16 v -16 c 0,8.8 -7.2,16 -16,16 z"
       id="path1192" />
    <g
       id="g1194" />
    <g
       id="g1196" />
    <g
       id="g1198" />
    <g
       id="g1200" />
    <g
       id="g1202" />
    <g
       id="g1204" />
    <g
       id="g1206" />
    <g
       id="g1208" />
    <g
       id="g1210" />
    <g
       id="g1212" />
    <g
       id="g1214" />
    <g
       id="g1216" />
    <g
       id="g1218" />
    <g
       id="g1220" />
    <g
       id="g1222" />
  </g>
  <rect
     style="opacity:0.5;fill:#f2f2f2;stroke-width:1.79481"
     id="rect881"
     width="512"
     height="512"
     x="0"
     y="0" />
</svg>
