<svg xmlns="http://www.w3.org/2000/svg" viewBox="0 0 512 512" style="height: 64px; width: 64px;"><defs><radialGradient id="darkzaitzev-sharp-shuriken-gradient-2"><stop offset="0%" stop-color="#4a4a4a" stop-opacity="1"></stop><stop offset="100%" stop-color="#9b9b9b" stop-opacity="1"></stop></radialGradient><radialGradient id="darkzaitzev-sharp-shuriken-gradient-3"><stop offset="0%" stop-color="#9b9b9b" stop-opacity="1"></stop><stop offset="100%" stop-color="#4a4a4a" stop-opacity="1"></stop></radialGradient></defs><g class="" transform="translate(0,0)" style=""><g><path d="M395.13 313L484.999 212.143L388.08 212.143C342.332 212.143 305.256 175.08 305.256 129.319L304.959 96.111L204.102 18.964L204.102 115.881C204.102 161.632 167.042 198.705 121.28 198.705L111.436 199.003L27.001 299.86L123.921 299.86C169.671 299.86 206.743 336.922 206.743 382.684L207.041 403.168L307.895 493.036L307.895 396.123C307.895 350.374 344.957 313.3 390.719 313.3Z" class="" fill="url(#darkzaitzev-sharp-shuriken-gradient-2)" stroke="#4a4a4a" stroke-opacity="1" stroke-width="8"></path><path d="M256 306.669C228.01 306.669 205.334 283.984 205.334 256.004C205.334 228.014 228.013 205.333 255.999 205.333C283.989 205.333 306.669 228.015 306.669 256.004C306.669 283.984 283.986 306.669 255.999 306.669Z" class="selected" fill="url(#darkzaitzev-sharp-shuriken-gradient-3)" stroke="#4a4a4a" stroke-opacity="1" stroke-width="8"></path></g></g></svg>