<?xml version="1.0" encoding="UTF-8" standalone="no"?>
<svg
   xmlns:dc="http://purl.org/dc/elements/1.1/"
   xmlns:cc="http://creativecommons.org/ns#"
   xmlns:rdf="http://www.w3.org/1999/02/22-rdf-syntax-ns#"
   xmlns:svg="http://www.w3.org/2000/svg"
   xmlns="http://www.w3.org/2000/svg"
   xmlns:sodipodi="http://sodipodi.sourceforge.net/DTD/sodipodi-0.dtd"
   xmlns:inkscape="http://www.inkscape.org/namespaces/inkscape"
   version="1.1"
   x="0px"
   y="0px"
   width="513.667px"
   height="202.019px"
   viewBox="0 0 513.667 202.019"
   enable-background="new 0 0 513.667 202.019"
   xml:space="preserve"
   id="svg84"
   sodipodi:docname="singe.svg"
   inkscape:export-filename="/home/plic/Documents/dev/conaruto.github.io/images/ways/singe.png"
   inkscape:export-xdpi="24"
   inkscape:export-ydpi="24"
   inkscape:version="1.0.1 (3bc2e813f5, 2020-09-07)"><metadata
   id="metadata90"><rdf:RDF><cc:Work
       rdf:about=""><dc:format>image/svg+xml</dc:format><dc:type
         rdf:resource="http://purl.org/dc/dcmitype/StillImage" /><dc:title></dc:title></cc:Work></rdf:RDF></metadata><defs
   id="defs88" /><sodipodi:namedview
   pagecolor="#ffffff"
   bordercolor="#666666"
   borderopacity="1"
   objecttolerance="10"
   gridtolerance="10"
   guidetolerance="10"
   inkscape:pageopacity="0"
   inkscape:pageshadow="2"
   inkscape:window-width="2512"
   inkscape:window-height="1373"
   id="namedview86"
   showgrid="false"
   inkscape:zoom="2.8442552"
   inkscape:cx="256.8335"
   inkscape:cy="101.0095"
   inkscape:window-x="3888"
   inkscape:window-y="30"
   inkscape:window-maximized="1"
   inkscape:current-layer="svg84" />
<g
   id="Layer_1">
</g>
<g
   id="Layer_2"
   style="fill:#ffccaa;fill-opacity:1;stroke-width:6;stroke-miterlimit:4;stroke-dasharray:none">
	<path
   fill="#FFFFFF"
   stroke="#000000"
   stroke-width="2"
   d="M444.001,71.41c2.563,0.576,5.48-1.02,8.057-1.024   c3.047-0.006,6.092,0.473,8.941,1.581c3.396,1.321,5.178,4.556,6.801,7.639c0.928,1.763,1.122,3.086,0.701,5.055"
   id="path3"
   style="fill:#ffccaa;fill-opacity:1;stroke-width:6;stroke-miterlimit:4;stroke-dasharray:none" />
	<path
   fill="#FFFFFF"
   stroke="#000000"
   stroke-width="2"
   d="M513.251,184.16c-9.503,0.933-17.775,6.135-26.729,8.975   c-9.973,3.162-20.297,5.439-30.779,5.837c-22.653,0.857-45.327,0.484-67.99,0.526c-45.105,0.083-90.235,2.999-135.323,0.531   c-21.725-1.189-43.336-4.58-65.126-4.474c-21.216,0.104-42.813,4.021-63.759-1.06c-10.55-2.56-20.896-6.043-31.355-8.946   c-10.437-2.896-21.428-4.291-31.178-9.271c-8.238-4.209-15.11-8.787-24.171-11.138c-7.735-2.007-9.571-11.92-2.658-16.491   c-3.038,0.463-8.68-0.416-11.673-0.905c-2.986-0.487-4.82-3.356-5.65-6.028c-2.462-7.921,3.654-13.551,10.312-16.533   c8.53-3.822,17.948-5.337,27.064-7.072c4.268-0.812,8.65-1.486,12.748-2.978c4.724-1.719,8.141-5.154,12.143-8.028   c8.25-5.926,18.853-9.696,27.909-14.308c10.477-5.335,20.958-10.671,31.655-15.556c7.75-3.54,13.632-9.009,18.929-15.583   c5.763-7.151,13.605-11.587,22.486-13.67c20.692-4.854,41.823-9.396,63.187-9.178c21.182,0.215,40.722,9.205,60.944,14.293   c19.075,4.799,36.779,14.363,56.408,17.056c10.152,1.393,20.446,0.783,30.648,1.45c11.349,0.741,22.204,3.957,33.354,5.917   c7.903,1.39,16.078,1.414,23.825,3.643c7.019,2.019,13.213,6.982,20.673,7.399c7.336,0.411,13.732-3.856,20.568-5.753   c7.73-2.145,16.123-1.268,23.537-4.655"
   id="path5"
   style="fill:#ffccaa;fill-opacity:1;stroke-width:6;stroke-miterlimit:4;stroke-dasharray:none" />
	<path
   fill="#FFFFFF"
   stroke="#000000"
   stroke-width="2"
   d="M1.251,124.16c4.12-0.763,7.945,2.77,11.506,4.242   c4.537,1.876,9.344,3.205,13.991,4.786c10.34,3.52,19.272,8.155,28.306,14.29c16.906,11.479,35.544,15.229,55.288,19.063   c21.941,4.262,44.234,4.748,66.497,5.739c10.625,0.474,21.138,2.58,31.788,2.53c10.837-0.05,22.896-1.074,33.574-2.873   c4.583-0.771,9.404-1.511,13.704-3.324c4.631-1.953,8.356-3.216,13.254-1.299c10.153,3.976,20.424,5.525,30.842,8.505   c20.82,5.953,42.657,8.538,63.704,13.895c15.267,3.887,32.777,10.279,48.565,5.268c6.729-2.137,11.757-7.036,12.607-14.245   c1.091-9.256-7.557-13.629-15.274-15.58c-19.602-4.957-37.813-13.628-56.946-20.04c-9.016-3.022-18-4.993-26.93-8.422   c-10.526-4.043-21.793-5.907-32.371-9.878c-8.695-3.264-17.709-8.092-25.479-13.185c-3.688-2.418-6.742-5.874-2.028-8.566   c4.692-2.68,10.271-3.121,15.298-4.924c8.928-3.204,17.156-6.779,25.577-11.122c9.229-4.758,19.535-10.088,29.947-11.487   c9.917-1.333,18.523,2.732,27.404,6.482c8.42,3.555,19.137,4.374,26.458,9.948c15.963,12.155,33.175,22.95,53.928,23.209   c5.612,0.07,8.569-0.492,12.594-4.149c2.378-2.162,3.821-0.896,6.445-0.273c2.613,0.62,5.521,0.709,8.198,1.099   c5.377,0.782,11.847,1.78,16.431-1.917c7.146-5.763,5.108-15.402-0.947-21.021c-3.404-3.159-8.033-4.323-12.448-5.316   c-4.332-0.975-6.626-4.323-10.646-6.082c-3.826-1.673-7.147-4.633-11.02-6.586c-6.827-3.443-13.785-6.625-20.855-9.538   c-8.617-3.55-16.581-7.659-25.726-9.753c-9.869-2.26-18.647-7.416-28.639-9.32c-10.76-2.05-21.785-1.677-32.66-1.012   c-10.38,0.635-18.01-0.945-27.782-4.158c-9.488-3.12-19.66-4.088-28.702-8.445c-8.98-4.327-17.304-8.98-27.562-9.268   c-10.401-0.292-19.726,4.69-30.257,4.187c-10.694-0.511-21.428-1.365-32.139-0.959c-10.067,0.381-19.76,3.417-29.284,6.46   c-9.743,3.112-19.469,5.884-29.636,7.232c-11.378,1.508-22.037-0.875-33.351-1.089c-10.132-0.192-19.333-2.446-29.137-4.788   c-9.077-2.168-16.674-6.817-25.052-10.686c-8.777-4.054-18.369-5.979-27.254-9.779c-4.272-1.827-8.52-3.766-12.743-5.705   C8.722,4.668,3.417,3.692,0.751,0.66"
   id="path7"
   style="fill:#ffccaa;fill-opacity:1;stroke-width:6;stroke-miterlimit:4;stroke-dasharray:none" />
	<path
   fill="none"
   stroke="#000000"
   stroke-width="2"
   d="M283.751,46.66c12.685,0,25.466,3.514,38,0"
   id="path9"
   style="fill:#ffccaa;fill-opacity:1;stroke-width:6;stroke-miterlimit:4;stroke-dasharray:none" />
	<path
   fill="#FFFFFF"
   stroke="#000000"
   stroke-width="2"
   d="M375.751,153.66c-18.699-3.728-37.162-6.367-55.456-11.948   c-8.836-2.696-17.543-6.19-26.557-8.227c-8.316-1.878-16.829-2.75-25.114-4.779c-16.248-3.979-29.348-16.481-45.65-20.061   c-7.748-1.701-15.997-4.887-23.297-8.06c-6.181-2.687-13.634-6.3-17.487-12.085c-8.209-12.322-3.762-31.432,10.288-36.854   c6.946-2.681,14.611-1.833,21.692-0.192c8.832,2.047,17.994,3.957,26.699,6.407c15.983,4.498,30.108,14.276,45.812,19.585   c17.905,6.053,34.817,0.215,53.07,0.215"
   id="path11"
   style="fill:#ffccaa;fill-opacity:1;stroke-width:6;stroke-miterlimit:4;stroke-dasharray:none" />
	<path
   fill="#FFFFFF"
   stroke="#000000"
   stroke-width="2"
   d="M457.251,112.66c3.624-3.354,4.585-8.549,3.164-13.168   c-1.289-4.19-4.152-5.373-8.501-5.438c-8.229-0.123-11.051-5.867-16.303-10.7c-9.283-8.543-18.378-14.828-30.143-19.683   c-11.679-4.819-23.221-9.386-35.201-13.394c-10.049-3.362-19.567-10.199-30.276-11.192c-10.67-0.987-19.021,4.628-27.74,9.075"
   id="path13"
   style="fill:#ffccaa;fill-opacity:1;stroke-width:6;stroke-miterlimit:4;stroke-dasharray:none" />
	<path
   fill="none"
   stroke="#000000"
   stroke-width="2"
   d="M262.751,66.66c4.289-0.986,8.551-2.402,12.772-3.949   c1.407-0.515,2.81-1.045,4.208-1.579c2.63-0.993,5.353-1.988,8.127-3.003c1.388-0.508,2.788-1.021,4.195-1.544   c7.197-2.425,14.197-5.425,21.063-8.823"
   id="path15"
   style="fill:#ffccaa;fill-opacity:1;stroke-width:6;stroke-miterlimit:4;stroke-dasharray:none" />
	<path
   fill="none"
   stroke="#000000"
   stroke-width="2"
   d="M33.501,149.036c4.002-2.259,7.342-7.202,12.458-7.125"
   id="path17"
   style="fill:#ffccaa;fill-opacity:1;stroke-width:6;stroke-miterlimit:4;stroke-dasharray:none" />
</g>
<g
   id="Layer_3">
	<path
   fill="#DBDBDB"
   stroke="#000000"
   stroke-width="0.75"
   d="M394.933,179.716c-1.903-3.81-3.546-10.795-0.471-14.416   c2.27-2.674,6.2-1.474,9.068-0.739c3.99,1.021,8.037,1.157,11.957,2.534c3.72,1.307,5.34,3.761,4.568,7.749   c-0.636,3.29-3.047,8.684-6.132,10.337c-2.986,1.601-6.63,0.021-9.5-1.084C401.487,182.966,396.494,182.844,394.933,179.716"
   id="path20" />
	<path
   fill="#DBDBDB"
   stroke="#000000"
   stroke-width="0.75"
   d="M436.688,91.164c-0.742-2.432-2.292-5.832-1.542-8.399   c0.422-1.444,2.793,0.308,3.596,0.704c4.482,2.211,8.825,4.688,13.28,6.952c2.375,1.207,5.85,1.824,6.261,4.998   c0.409,3.167-2.122,7.414-4.857,8.923c-3.37,1.858-6.921-1.984-9.26-3.921C440.89,97.706,437.989,95.418,436.688,91.164"
   id="path22" />
	<path
   fill="#DBDBDB"
   stroke="#000000"
   stroke-width="0.75"
   d="M485.925,87.486c4.384,3.191,5.229,9.85,1.608,13.944   c-3.011,3.405-5.657,1.111-9.008-0.446c-3.133-1.456-6.916-2.708-9.038-5.607c-2.844-3.888-2.928-8.151-2.698-12.679   c3.129-0.159,4.857,0.586,7.752,1.278C478.397,84.898,482.574,85.047,485.925,87.486"
   id="path24" />
	<path
   fill="#DBDBDB"
   stroke="#000000"
   stroke-width="0.75"
   d="M463.464,78.372c-2.281-0.52-4.897-2.812-6.88-4.042   c-1.479-0.921-4.692-2.065-1.322-2.483c2.279-0.283,4.505,0.244,6.26,1.821c0.746,0.67,1.53,1.64,1.712,2.655   C463.265,76.498,463.471,78.373,463.464,78.372"
   id="path26" />
	<path
   fill="#DBDBDB"
   stroke="#000000"
   stroke-width="0.75"
   d="M223.525,63.552c2.074,1.315-0.497,8.387-0.99,10.103   c-1.505,5.243-4.296,10.08-7.382,14.552c-2.954,4.28-7.174,5.717-12.21,4.961c-2.724-0.409-5.358-1.228-8.031-1.865   c-2.01-0.479-4.235-0.881-5.909-2.179c-4.308-3.34-2.802-11.527-1.657-15.981c1.51-5.882,4.481-11.717,9.013-15.849   C205.285,49.158,215.605,58.528,223.525,63.552"
   id="path28" />
</g>
<g
   id="Layer_4">
	<path
   fill="none"
   stroke="#000000"
   stroke-width="0.25"
   d="M232.918,97.827c0-7.748,2.858-15.223,8-20.667"
   id="path31" />
	<path
   fill="none"
   stroke="#000000"
   stroke-width="0.25"
   d="M249.918,106.494c6.725-4.689,7.603-14.395,7.333-22.333"
   id="path33" />
	<path
   fill="none"
   stroke="#000000"
   stroke-width="0.25"
   d="M227.918,95.494c0.016-4.46,0.144-9.457,2.575-13.074   c1.543-2.297,3.094-3.813,4.425-6.592"
   id="path35" />
	<path
   fill="none"
   stroke="#000000"
   stroke-width="0.25"
   d="M257.251,108.494c1.563-4.275,4.83-7.777,5.341-12.359   c0.462-4.156-2.107-7.879-1.674-11.641"
   id="path37" />
	<path
   fill="none"
   stroke="#000000"
   stroke-width="0.25"
   d="M297.919,137.494c0.547,1.665,0.516,4.152,1.318,6.083   c0.817,1.967,2.5,4.032,3.682,5.917"
   id="path39" />
	<path
   fill="none"
   stroke="#000000"
   stroke-width="0.25"
   d="M296.253,152.16c-2.195-2.394-4.079-10.109-3.667-13.666"
   id="path41" />
	<path
   fill="none"
   stroke="#000000"
   stroke-width="0.25"
   d="M321.919,161.494c0.978-1.938,3.334-2.444,4.424-4.242   c1.005-1.657,0.979-3.686,1.576-5.425"
   id="path43" />
	<path
   fill="none"
   stroke="#000000"
   stroke-width="0.25"
   d="M324.253,166.494c3.541-0.689,6.443-8.227,8.333-10.667"
   id="path45" />
	<path
   fill="none"
   stroke="#000000"
   stroke-width="0.25"
   d="M362.253,158.827c-1.71,0.768-1.657,8.459-1,10.333"
   id="path47" />
	<path
   fill="none"
   stroke="#000000"
   stroke-width="0.25"
   d="M367.253,175.494c2.425-3.472,5.859-8.652,5.333-13.334"
   id="path49" />
	<path
   fill="none"
   stroke="#000000"
   stroke-width="0.25"
   d="M327.253,44.827c-1.528,1.79-8.476,10.947-4.667,12.667"
   id="path51" />
	<path
   fill="none"
   stroke="#000000"
   stroke-width="0.25"
   d="M342.586,67.16c5.769-4.7,6.461-11.395,8-18.333"
   id="path53" />
	<path
   fill="none"
   stroke="#000000"
   stroke-width="0.25"
   d="M327.586,60.16c0.988-1.37,1.247-4.747,1.842-6.566   c0.773-2.368,1.483-4.255,2.825-5.767"
   id="path55" />
	<path
   fill="none"
   stroke="#000000"
   stroke-width="0.25"
   d="M333.253,62.494c3.976,0.349,10.187-11.031,10.333-14"
   id="path57" />
	<path
   fill="none"
   stroke="#000000"
   stroke-width="0.25"
   d="M417.586,69.827c-2.85,1.255-2,4.982-2,7.667"
   id="path59" />
	<path
   fill="none"
   stroke="#000000"
   stroke-width="0.25"
   d="M421.253,82.494c1.048-1.674,2.899-3.395,3-5.667"
   id="path61" />
	<path
   fill="none"
   stroke="#000000"
   stroke-width="0.25"
   d="M445.586,81.827c-2.224-2.333-0.284-6.337,0.333-9"
   id="path63" />
	<path
   fill="none"
   stroke="#000000"
   stroke-width="0.25"
   d="M452.586,85.827c2.481-1.704,2.963-5.621,3-8.333"
   id="path65" />
	<path
   fill="none"
   stroke="#000000"
   stroke-width="0.25"
   d="M381.586,45.16c0.466,2,0.993,5.772-0.667,7"
   id="path67" />
	<path
   fill="none"
   stroke="#000000"
   stroke-width="0.25"
   d="M385.253,55.16c2.32-0.673,2.726-3.431,2.666-5.667"
   id="path69" />
	<path
   fill="none"
   stroke="#000000"
   stroke-width="0.25"
   d="M368.919,43.827c-2.055,0.224-2.455,2.584-2.333,4.333"
   id="path71" />
	<path
   fill="none"
   stroke="#000000"
   stroke-width="0.25"
   d="M361.586,46.827c-0.164-1.239,0.246-2.498,1-3.333"
   id="path73" />
	<path
   fill="none"
   stroke="#000000"
   stroke-width="0.25"
   d="M133.584,191.494c1.731,0.438,3.437,1.839,4,3.666"
   id="path75" />
	<path
   fill="none"
   stroke="#000000"
   stroke-width="0.25"
   d="M128.251,191.494c-1.324-0.074-2.579,0.293-3.667,1"
   id="path77" />
	<path
   fill="none"
   stroke="#000000"
   stroke-width="0.25"
   d="M137.251,189.827c1.058,1.351,3.338,3.094,3.333,5"
   id="path79" />
	<path
   fill="none"
   stroke="#000000"
   stroke-width="0.25"
   d="M124.918,189.827c-1.467,0.368-3.064,0.812-3.667,2.333"
   id="path81" />
</g>
</svg>
