<?xml version="1.0" encoding="UTF-8" standalone="no"?>
<!-- Created with Inkscape (http://www.inkscape.org/) -->

<svg
   version="1.1"
   id="svg2"
   width="128"
   height="128"
   viewBox="0 0 128 128"
   sodipodi:docname="tanto.svg"
   inkscape:version="1.1 (ce6663b3b7, 2021-05-25)"
   xmlns:inkscape="http://www.inkscape.org/namespaces/inkscape"
   xmlns:sodipodi="http://sodipodi.sourceforge.net/DTD/sodipodi-0.dtd"
   xmlns="http://www.w3.org/2000/svg"
   xmlns:svg="http://www.w3.org/2000/svg">
  <defs
     id="defs6" />
  <sodipodi:namedview
     id="namedview4"
     pagecolor="#ffffff"
     bordercolor="#666666"
     borderopacity="1.0"
     inkscape:pageshadow="2"
     inkscape:pageopacity="0.0"
     inkscape:pagecheckerboard="0"
     showgrid="false"
     width="128px"
     inkscape:zoom="5.6571133"
     inkscape:cx="46.136605"
     inkscape:cy="66.906915"
     inkscape:window-width="1559"
     inkscape:window-height="1082"
     inkscape:window-x="2712"
     inkscape:window-y="256"
     inkscape:window-maximized="0"
     inkscape:current-layer="g8" />
  <g
     inkscape:groupmode="layer"
     inkscape:label="Image"
     id="g8">
    <g
       id="g54417"
       transform="matrix(0.429088,0,0,0.429088,144.80897,-2.3588291)">
      <path
         style="fill:#b3b3b3;stroke:#000000;stroke-width:1px;stroke-linecap:butt;stroke-linejoin:miter;stroke-opacity:1"
         d="m -127.46449,7.7731248 -8.89427,2.8617282 -4.89884,2.876701 -6.09909,5.005495 -4.9232,5.228084 6.51989,4.143437 4.45347,-6.317836 3.82153,-3.714418 z"
         id="path890"
         sodipodi:nodetypes="ccccccccc" />
      <path
         style="fill:#333333;stroke:#000000;stroke-width:1px;stroke-linecap:butt;stroke-linejoin:miter;stroke-opacity:1"
         d="m -127.46449,7.7731248 c 0,0 -30.61525,57.2109322 -44.31766,86.9640412 -13.7024,29.753114 -37.89676,91.554614 -37.89676,91.554614 l -1.66744,-0.8637 c 0,0 22.34158,-57.09923 35.01885,-85.02606 12.67726,-27.926835 41.04475,-82.534943 41.04475,-82.534943 z"
         id="path894"
         sodipodi:nodetypes="csccscc" />
      <path
         style="fill:#4d4d4d;stroke:#000000;stroke-width:1px;stroke-linecap:butt;stroke-linejoin:miter;stroke-opacity:1"
         d="m -132.3447,12.95142 -5.1403,4.904896 -8.275,10.032254 c 0,0 -26.57617,50.334899 -38.45524,76.19951 -11.87908,25.86461 -32.81921,78.98815 -32.81921,78.98815 l 5.6881,2.35185 c 0,0 22.47635,-57.51269 35.15361,-85.439526 12.67727,-27.926835 43.84804,-87.037134 43.84804,-87.037134 z"
         id="path896"
         sodipodi:nodetypes="cccsccsc" />
      <path
         style="fill:#808080;stroke:#000000;stroke-width:1px;stroke-linecap:butt;stroke-linejoin:miter;stroke-opacity:1"
         d="m -145.76,27.88857 -6.51989,-4.143437 c 0,0 -28.11195,49.394638 -40.40962,75.060034 -12.29767,25.665393 -34.21685,80.035293 -34.21685,80.035293 l 9.87191,4.23577 c 0,0 21.11792,-53.30115 32.997,-79.16576 11.87907,-25.864609 38.27745,-76.0219 38.27745,-76.0219 z"
         id="path898"
         sodipodi:nodetypes="ccsccsc" />
      <path
         style="fill:#d0b27e;fill-opacity:1;stroke:#000000;stroke-width:1px;stroke-linecap:butt;stroke-linejoin:miter;stroke-opacity:1"
         d="m -226.90636,178.84046 -6.64516,16.34344 15.57926,6.74676 6.62591,-16.50258 z"
         id="path900" />
      <path
         style="fill:#634b31;fill-opacity:1;stroke:#000000;stroke-width:1px;stroke-linecap:butt;stroke-linejoin:miter;stroke-opacity:1"
         d="m -211.34635,185.42808 1.66744,0.8637 -5.59169,16.45852 -2.70166,-0.81964 z"
         id="path902" />
      <path
         style="fill:#552200;stroke:#000000;stroke-width:1px;stroke-linecap:butt;stroke-linejoin:miter;stroke-opacity:1"
         d="m -241.65832,195.16717 2.32391,1.906 23.10405,9.24183 5.0976,1.11477 2.15115,-0.0768 0.4217,-1.92048 -2.5502,0.15713 -5.00763,-1.53559 -21.81169,-9.09007 -2.69605,-1.90536 z"
         id="path904" />
      <path
         style="fill:#2b1100;stroke:#000000;stroke-width:1px;stroke-linecap:butt;stroke-linejoin:miter;stroke-opacity:1"
         d="m -214.28672,201.96403 5.72681,3.46846 -2.5502,0.15713 -5.00763,-1.53559 -21.81169,-9.09007 -2.69605,-1.90536 3.66729,0.48415 1.85597,0.15606 1.8382,0.61017 -0.2875,0.87492 15.57926,6.74676 2.70166,0.81964 0.39807,-1.14322 z"
         id="path906" />
      <path
         style="fill:#1a1a1a;stroke:#000000;stroke-width:1px;stroke-linecap:butt;stroke-linejoin:miter;stroke-opacity:1"
         d="m -236.48824,198.80008 -2.06225,6.18865 16.73083,5.79618 2.36751,-5.16699 z"
         id="path908" />
      <path
         style="fill:#630000;fill-opacity:1;stroke:#000000;stroke-width:1px;stroke-linecap:butt;stroke-linejoin:miter;stroke-opacity:1"
         d="m -238.2764,205.22684 -27.05691,84.94014 5.45328,2.86145 11.24697,3.26201 26.8134,-85.50553 z"
         id="path934" />
      <path
         style="fill:#000000;stroke:#000000;stroke-width:1px;stroke-linecap:butt;stroke-linejoin:miter;stroke-opacity:1"
         d="m -219.45215,205.61792 3.68735,1.27821 -2.02257,4.80873 -4.03229,-0.91995 z"
         id="path910" />
      <path
         style="fill:#b3b3b3;stroke:#000000;stroke-width:1px;stroke-linecap:butt;stroke-linejoin:miter;stroke-opacity:1"
         d="m -236.17673,210.32913 3.20775,5.0559 6.89051,-1.10297 z"
         id="path912" />
      <path
         style="fill:#b3b3b3;fill-opacity:1;stroke:#000000;stroke-width:1px;stroke-linecap:butt;stroke-linejoin:miter;stroke-opacity:1"
         d="m -240.05247,218.89291 3.27393,5.9035 8.02502,-1.30254 -5.66206,-5.74366 z"
         id="path914" />
      <path
         style="fill:#b3b3b3;stroke:#000000;stroke-width:1px;stroke-linecap:butt;stroke-linejoin:miter;stroke-opacity:1"
         d="m -238.48775,226.91692 6.46375,6.01055 -7.89361,0.44664 -3.60036,-5.03877 z"
         id="path916" />
      <path
         style="fill:#b3b3b3;stroke:#000000;stroke-width:1px;stroke-linecap:butt;stroke-linejoin:miter;stroke-opacity:1"
         d="m -247.01241,236.65065 3.3343,6.64244 9.7806,-0.81415 -7.47868,-5.28373 z"
         id="path918" />
      <path
         style="fill:#b3b3b3;stroke:#000000;stroke-width:1px;stroke-linecap:butt;stroke-linejoin:miter;stroke-opacity:1"
         d="m -245.67275,245.91045 6.90692,5.04917 -7.182,1.8196 -4.32921,-7.33182 z"
         id="path920" />
      <path
         style="fill:#b3b3b3;stroke:#000000;stroke-width:1px;stroke-linecap:butt;stroke-linejoin:miter;stroke-opacity:1"
         d="m -252.12463,256.04693 3.61754,5.67074 6.9621,-1.38736 -5.06115,-4.67983 z"
         id="path922" />
      <path
         style="fill:#b3b3b3;stroke:#000000;stroke-width:1px;stroke-linecap:butt;stroke-linejoin:miter;stroke-opacity:1"
         d="m -255.23368,264.49841 3.44893,5.20838 6.77367,-0.79279 -5.08926,-4.94801 z"
         id="path924" />
      <path
         style="fill:#b3b3b3;stroke:#000000;stroke-width:1px;stroke-linecap:butt;stroke-linejoin:miter;stroke-opacity:1"
         d="m -257.78082,274.1159 3.11706,5.07105 6.94138,-0.92319 -5.31389,-5.65078 z"
         id="path926" />
      <path
         style="fill:#b3b3b3;stroke:#000000;stroke-width:1px;stroke-linecap:butt;stroke-linejoin:miter;stroke-opacity:1"
         d="m -261.00573,282.17438 4.59409,4.55482 6.64615,0.86541 -6.35269,-5.65626 z"
         id="path928" />
      <path
         style="fill:#1a1a1a;stroke:#000000;stroke-width:1px;stroke-linecap:butt;stroke-linejoin:miter;stroke-opacity:1"
         d="m -265.59428,289.98851 -0.46538,2.82208 0.36666,1.86048 5.03154,2.9178 10.27774,3.57329 1.75066,-4.87172 -11.24697,-3.26201 z"
         id="path930" />
      <path
         style="fill:#000000;stroke:#000000;stroke-width:1px;stroke-linecap:butt;stroke-linejoin:miter;stroke-opacity:1"
         d="m -248.63306,296.29044 3.25612,0.32006 -1.60177,2.93595 -1.42593,1.48125 -1.97908,0.13446 z"
         id="path932" />
      <path
         style="fill:#4f0000;fill-opacity:1;stroke:#000000;stroke-width:1px;stroke-linecap:butt;stroke-linejoin:miter;stroke-opacity:1"
         d="m -221.81966,210.78491 4.03229,0.91995 -27.58957,84.90564 -3.25612,-0.32006 z"
         id="path936" />
    </g>
  </g>
</svg>
