<?xml version="1.0" encoding="UTF-8" standalone="no"?>
<svg
   viewBox="0 0 512 512"
   style="height: 64px; width: 64px;"
   version="1.1"
   id="svg22"
   sodipodi:docname="update-pressed.svg"
   inkscape:version="1.1.2 (0a00cf5339, 2022-02-04)"
   xmlns:inkscape="http://www.inkscape.org/namespaces/inkscape"
   xmlns:sodipodi="http://sodipodi.sourceforge.net/DTD/sodipodi-0.dtd"
   xmlns="http://www.w3.org/2000/svg"
   xmlns:svg="http://www.w3.org/2000/svg">
  <sodipodi:namedview
     id="namedview24"
     pagecolor="#ffffff"
     bordercolor="#666666"
     borderopacity="1.0"
     inkscape:pageshadow="2"
     inkscape:pageopacity="0.0"
     inkscape:pagecheckerboard="0"
     showgrid="false"
     inkscape:zoom="0.85253906"
     inkscape:cx="234.59336"
     inkscape:cy="331.36312"
     inkscape:window-width="1559"
     inkscape:window-height="1082"
     inkscape:window-x="2493"
     inkscape:window-y="254"
     inkscape:window-maximized="0"
     inkscape:current-layer="svg22" />
  <defs
     id="defs12">
    <linearGradient
       x1="19.40948"
       x2="19.40948"
       y1="17.136513"
       y2="404.75301"
       id="gradient-2"
       gradientTransform="scale(0.85888868,1.1642952)"
       gradientUnits="userSpaceOnUse">
      <stop
         offset="0%"
         stop-color="#7ed321"
         stop-opacity="1"
         id="stop2" />
      <stop
         offset="100%"
         stop-color="#417505"
         stop-opacity="1"
         id="stop4" />
    </linearGradient>
    <linearGradient
       x1="184.35432"
       x2="184.35432"
       y1="36.030115"
       y2="423.12398"
       id="gradient-3"
       gradientTransform="scale(0.85761485,1.1660246)"
       gradientUnits="userSpaceOnUse">
      <stop
         offset="0%"
         stop-color="#417505"
         stop-opacity="1"
         id="stop7" />
      <stop
         offset="100%"
         stop-color="#7ed321"
         stop-opacity="1"
         id="stop9" />
    </linearGradient>
  </defs>
  <g
     class=""
     transform="matrix(0.87142022,0,0,0.87142022,34.145008,32.043487)"
     id="g20">
    <g
       transform="matrix(-0.8660254,-0.5,-0.5,0.8660254,605.7025,162.2975)"
       id="g18">
      <path
         d="m 252.314,19.957 c -72.036,0.363 -142.99,33.534 -189.18,95.97 -69.83,94.39 -59.125,223.32 19.85,304.993 L 45.746,471.252 196.966,448.639 174.35,297.42 131.213,355.728 c -44.08,-54.382 -47.723,-133.646 -4.16,-192.53 30.676,-41.466 77.863,-63.504 125.758,-63.753 16.344,-0.085 32.766,2.382 48.645,7.467 l -6.963,-46.55 C 270.635,55.502 246.585,55.336 223.476,59.365 164.244,66.687 109.482,99.283 75.319,150.58 110.969,84.69 179.093,44.662 251.362,42.836 c 1.673,-0.042 3.347,-0.063 5.023,-0.065 14.8,-0.01 29.748,1.596 44.597,4.905 L 349.59,40.408 C 318.45,26.502 285.27,19.788 252.316,19.955 Z"
         class="selected"
         fill="url(#gradient-2)"
         id="path14"
         style="fill:url(#gradient-2)" />
      <path
         d="m 465.244,42.012 -151.217,22.61 22.614,151.22 41.126,-55.588 c 42.204,54.29 45.092,132.048 2.187,190.043 -40.22,54.367 -108.82,75.32 -170.19,57.566 l 6.522,43.598 c 28.726,5.533 58.236,4.414 86.203,-3.07 37.448,-5.957 73.34,-22.05 103.16,-47.728 -49.196,54.65 -122.615,77.514 -191.744,64.34 l -55.8,8.344 c 99.03,43.7 218.402,14.77 285.51,-75.938 69.13,-93.445 59.34,-220.743 -17.483,-302.53 l 39.114,-52.866 z"
         class=""
         fill="url(#gradient-3)"
         id="path16"
         style="fill:url(#gradient-3)" />
    </g>
  </g>
  <rect
     style="opacity:0.5;fill:#f2f2f2;stroke-width:1.8"
     id="rect861"
     width="512"
     height="512"
     x="0"
     y="0"
     inkscape:export-filename="/home/plic/Documents/dev/conaruto.github.io/images/ui/update-item-pressed.png"
     inkscape:export-xdpi="24"
     inkscape:export-ydpi="24" />
</svg>
