<svg xmlns="http://www.w3.org/2000/svg" viewBox="0 0 512 512" style="height: 64px; width: 64px;"><g class="" transform="translate(0,0)" style="touch-action: none;"><g><path d="M117.842 26.268C116.34 26.302 114.851 26.558 113.424 27.028C107.799 28.886 103.259 34.076 100.824 42.729C98.389 51.382 98.569 62.999 102.492 74.774C106.415 86.549 113.246 95.972 120.392 101.46C127.539 106.948 134.292 108.406 139.918 106.548C145.543 104.69 150.081 99.502 152.515 90.848C154.95 82.195 154.771 70.577 150.847 58.802C146.924 47.026 140.094 37.606 132.947 32.118C127.587 28.002 122.449 26.152 117.842 26.268Z" class="selected" fill="#ffe0af" fill-opacity="1" stroke="#000000" stroke-opacity="1" stroke-width="8"></path><path d="M301.775 38.641C298.314 38.798 295.27 40.39 293.525 43.985L279.89 68.73L253.157 101.039C253.157 101.039 199.325 91.511 181.118 94.176C177.339 94.723 173.566 95.312 169.8 95.943C166.186 108.599 157.991 119.535 145.608 123.625C134.095 127.428 121.934 124.327 111.847 117.447C107.282 120.958 103.06 125.028 99.29 129.777C80.616 144.437 72.905 154.524 57.19 164.697C60.273 149.833 67.873 135.02 76.216 122.818C77.586 120.815 87.711 112.263 89.104 110.412C96.584 95.706 80.64 69.196 65.628 94.552C64.203 96.531 58.282 113.429 56.811 115.648C42.237 144.515 33.135 163.465 41.337 191.973C44.093 201.551 72.247 187.068 96.567 169.814C123.036 207.154 155.931 218.418 174.94 232.892C151.674 316.276 185.207 380.155 204.216 440.613L175.067 476.699C166.199 487.326 223.778 489.812 227.479 477.449L235.189 443.609C206.358 353.101 232.047 285.923 252.809 235.887C308.017 176.844 368.039 153.583 421.709 107.096L467.011 97.461C477.859 77.545 477.247 67.713 453.157 66.764L408.233 84.359C351.647 116.166 262.223 137.707 221.737 182.349C220.84 168.304 204.337 135.049 200.835 123.912C220.208 126.485 246.503 128.135 261.477 121.23C277.482 113.85 295.107 80.434 295.107 80.434L314.77 65.883C331.835 55.825 314.14 38.085 301.776 38.643Z" class="" fill="#417505" fill-opacity="1" stroke="#000000" stroke-opacity="1" stroke-width="8"></path></g></g></svg>