<?xml version="1.0" encoding="UTF-8" standalone="no"?>
<svg
   viewBox="0 0 512 512"
   style="height: 64px; width: 64px;"
   version="1.1"
   id="svg48"
   sodipodi:docname="weight-g.svg"
   inkscape:version="1.1 (ce6663b3b7, 2021-05-25)"
   inkscape:export-filename="/home/plic/Documents/dev/conaruto.github.io/ressources/images/weight-g.png"
   inkscape:export-xdpi="24"
   inkscape:export-ydpi="24"
   xmlns:inkscape="http://www.inkscape.org/namespaces/inkscape"
   xmlns:sodipodi="http://sodipodi.sourceforge.net/DTD/sodipodi-0.dtd"
   xmlns="http://www.w3.org/2000/svg"
   xmlns:svg="http://www.w3.org/2000/svg">
  <sodipodi:namedview
     id="namedview50"
     pagecolor="#ffffff"
     bordercolor="#666666"
     borderopacity="1.0"
     inkscape:pageshadow="2"
     inkscape:pageopacity="0.0"
     inkscape:pagecheckerboard="0"
     showgrid="false"
     inkscape:zoom="1.7050781"
     inkscape:cx="255.70676"
     inkscape:cy="256"
     inkscape:window-width="2504"
     inkscape:window-height="1376"
     inkscape:window-x="1976"
     inkscape:window-y="27"
     inkscape:window-maximized="1"
     inkscape:current-layer="g46" />
  <defs
     id="defs32">
    <radialGradient
       id="delapouite-weight-gradient-2"
       gradientTransform="scale(1.017596,0.98270827)"
       cx="251.57332"
       cy="267.62775"
       fx="251.57332"
       fy="267.62775"
       r="222.85352"
       gradientUnits="userSpaceOnUse">
      <stop
         offset="0%"
         stop-color="#b57204"
         stop-opacity="1"
         id="stop2" />
      <stop
         offset="100%"
         stop-color="#8b572a"
         stop-opacity="1"
         id="stop4" />
    </radialGradient>
    <radialGradient
       id="delapouite-weight-gradient-4"
       gradientTransform="scale(1.0047602,0.99526236)"
       cx="218.75955"
       cy="332.0843"
       fx="218.75955"
       fy="332.0843"
       r="47.788404"
       gradientUnits="userSpaceOnUse">
      <stop
         offset="0%"
         stop-color="#4a4a4a"
         stop-opacity="1"
         id="stop7" />
      <stop
         offset="100%"
         stop-color="#000000"
         stop-opacity="1"
         id="stop9" />
    </radialGradient>
    <radialGradient
       id="delapouite-weight-gradient-5"
       gradientTransform="matrix(0.87581147,0,0,1.1417982,-50,0)"
       cx="344.28814"
       cy="310.5807"
       fx="344.28814"
       fy="310.5807"
       r="44.16761"
       gradientUnits="userSpaceOnUse">
      <stop
         offset="0%"
         stop-color="#4a4a4a"
         stop-opacity="1"
         id="stop12" />
      <stop
         offset="100%"
         stop-color="#000000"
         stop-opacity="1"
         id="stop14" />
    </radialGradient>
    <radialGradient
       id="delapouite-weight-gradient-6"
       gradientTransform="matrix(0.88018967,0,0,1.1361188,-50,0)"
       cx="342.95676"
       cy="300.20717"
       fx="342.95676"
       fy="300.20717"
       r="18.602809"
       gradientUnits="userSpaceOnUse">
      <stop
         offset="0%"
         stop-color="#b57204"
         stop-opacity="1"
         id="stop17" />
      <stop
         offset="100%"
         stop-color="#8b572a"
         stop-opacity="1"
         id="stop19" />
    </radialGradient>
    <radialGradient
       id="delapouite-weight-gradient-7">
      <stop
         offset="0%"
         stop-color="#48baff"
         stop-opacity="1"
         id="stop22" />
      <stop
         offset="100%"
         stop-color="#4a90e2"
         stop-opacity="1"
         id="stop24" />
    </radialGradient>
    <radialGradient
       id="delapouite-weight-gradient-24">
      <stop
         offset="0%"
         stop-color="#4a4a4a"
         stop-opacity="1"
         id="stop27" />
      <stop
         offset="100%"
         stop-color="#000000"
         stop-opacity="1"
         id="stop29" />
    </radialGradient>
  </defs>
  <g
     class=""
     transform="translate(0,0)"
     style=""
     id="g46">
    <g
       id="g847"
       transform="matrix(0.60580013,0,0,0.60580013,102.0363,88.728565)">
      <path
         d="m 256,46 c -45.074,0 -82,36.926 -82,82 0,25.812 12.123,48.936 30.938,64 H 128 L 32,480 H 480 L 384,192 H 307.062 C 325.877,176.936 338,153.812 338,128 338,82.926 301.074,46 256,46 Z"
         class=""
         fill="url(#delapouite-weight-gradient-2)"
         stroke="#4a4a4a"
         stroke-opacity="1"
         stroke-width="4"
         id="path34"
         style="fill:url(#delapouite-weight-gradient-2)" />
      <path
         d="m 256,82 c 25.618,0 46,20.382 46,46 0,25.618 -20.382,46 -46,46 -25.618,0 -46,-20.382 -46,-46 0,-25.618 20.382,-46 46,-46 z"
         class=""
         fill="#ffffff"
         fill-opacity="1"
         stroke="#4a4a4a"
         stroke-opacity="1"
         stroke-width="4"
         id="path36" />
      <path
         d="m 243.719,306.19 c 4.76,0 8.952,0.934 12.573,2.806 3.62,1.872 6.938,4.82 9.95,8.85 v -10.13 h 21.972 v 61.462 c 0,10.986 -3.48,19.368 -10.438,25.146 -6.917,5.82 -16.968,8.727 -30.152,8.727 -4.272,0 -8.4,-0.325 -12.39,-0.976 -3.986,-0.65 -7.996,-1.647 -12.024,-2.99 v -17.03 c 3.826,2.198 7.57,3.826 11.23,4.884 3.664,1.098 7.347,1.648 11.05,1.648 7.162,0 12.41,-1.566 15.746,-4.7 3.337,-3.132 5.006,-8.035 5.006,-14.708 v -4.7 c -3.01,3.986 -6.328,6.916 -9.95,8.788 -3.62,1.87 -7.813,2.808 -12.573,2.808 -8.343,0 -15.238,-3.275 -20.69,-9.826 -5.453,-6.592 -8.18,-14.974 -8.18,-25.146 0,-10.214 2.727,-18.576 8.18,-25.086 5.452,-6.55 12.347,-9.827 20.69,-9.827 z"
         class=""
         fill="url(#delapouite-weight-gradient-5)"
         stroke="#4a4a4a"
         stroke-opacity="1"
         stroke-width="4"
         id="path40"
         style="fill:url(#delapouite-weight-gradient-5)" />
      <path
         d="m 251.837,321.936 c -4.517,0 -8.038,1.67 -10.56,5.005 -2.523,3.338 -3.784,8.058 -3.784,14.162 0,6.266 1.22,11.026 3.662,14.28 2.442,3.215 6.003,4.823 10.682,4.823 4.557,0 8.096,-1.67 10.62,-5.006 2.522,-3.337 3.784,-8.036 3.784,-14.098 0,-6.104 -1.262,-10.824 -3.785,-14.16 -2.523,-3.337 -6.062,-5.006 -10.62,-5.006 z"
         class="selected"
         fill="url(#delapouite-weight-gradient-6)"
         stroke="#4a4a4a"
         stroke-opacity="1"
         stroke-width="4"
         id="path42"
         style="fill:url(#delapouite-weight-gradient-6)" />
    </g>
  </g>
</svg>
