<?xml version="1.0" encoding="UTF-8"?>
<svg xmlns="http://www.w3.org/2000/svg" xmlns:xlink="http://www.w3.org/1999/xlink" width="149px" height="159px" viewBox="0 0 149 159" version="1.1">
<g id="surface1">
<path style=" stroke:none;fill-rule:evenodd;fill:rgb(0%,0%,0%);fill-opacity:1;" d="M 71.769531 7.777344 L 71.480469 7.136719 C 71.480469 5.996094 72.71875 4.613281 75.191406 2.996094 L 77.449219 1.285156 L 78.03125 0.429688 L 85.816406 0 L 108.304688 1.070312 L 120.09375 1.070312 L 121.40625 1.5 L 123.222656 2.425781 C 124.632812 2.757812 125.941406 3.164062 127.152344 3.640625 C 130.210938 4.734375 131.738281 5.683594 131.738281 6.496094 C 131.738281 6.96875 131.421875 7.207031 130.792969 7.207031 L 130.429688 7.136719 L 133.050781 9.207031 C 133.339844 10.109375 133.484375 12.894531 133.484375 17.554688 C 133.484375 21.171875 133.753906 23.953125 134.285156 25.90625 L 134.796875 30.042969 C 135.28125 31.519531 135.523438 32.898438 135.523438 34.183594 L 135.449219 35.324219 L 135.523438 35.824219 L 136.105469 38.464844 L 136.105469 42.675781 L 136.398438 51.167969 C 136.25 54.972656 136.421875 58.136719 136.90625 60.660156 L 137.707031 68.152344 C 137.660156 71.53125 137.441406 73.980469 137.050781 75.503906 C 136.664062 76.929688 136.492188 79.738281 136.542969 83.925781 C 136.347656 86.398438 136.347656 88.230469 136.542969 89.417969 C 137.464844 91.847656 137.925781 93.652344 137.925781 94.84375 L 137.925781 94.984375 C 138.3125 95.320312 138.554688 96.292969 138.652344 97.910156 C 138.796875 100.625 138.992188 102.335938 139.234375 103.050781 L 140.980469 111.328125 C 142.972656 120.605469 143.964844 126.125 143.964844 127.886719 C 143.964844 129.550781 143.675781 131.144531 143.09375 132.667969 L 143.238281 133.023438 C 144.257812 133.214844 145.640625 134.640625 147.386719 137.304688 C 147.773438 137.828125 147.96875 139.304688 147.96875 141.730469 C 147.96875 144.0625 147.773438 145.488281 147.386719 146.011719 C 145.058594 148.390625 142.898438 149.578125 140.910156 149.578125 L 136.105469 149.082031 L 134.285156 149.4375 L 133.851562 149.367188 L 132.613281 149.652344 C 130.574219 149.9375 128.65625 150.414062 126.863281 151.078125 C 124.921875 151.792969 123.441406 152.078125 122.421875 151.933594 L 119.949219 152.007812 L 116.601562 151.863281 L 116.164062 152.148438 L 111.070312 152.933594 L 110.632812 153.578125 L 110.269531 153.003906 L 109.6875 153.078125 L 109.179688 153.003906 L 108.523438 153.21875 L 105.101562 153.578125 L 101.464844 154.074219 C 99.960938 154.074219 99.207031 152.171875 99.207031 148.367188 L 98.261719 143.441406 C 96.175781 142.871094 94.839844 142.277344 94.257812 141.660156 C 93.046875 140.328125 92.222656 138.542969 91.785156 136.304688 L 90.039062 125.671875 C 88.535156 117.25 87.78125 110.234375 87.78125 104.621094 L 87.78125 102.050781 L 88 99.910156 C 87.757812 98.339844 87.34375 96.867188 86.761719 95.484375 L 84.871094 91.847656 C 83.949219 90.226562 83.390625 88.945312 83.195312 87.992188 C 82.90625 86.46875 82.761719 83.972656 82.761719 80.5 C 82.421875 78.882812 82.421875 76.382812 82.761719 73.003906 C 81.789062 65.535156 80.84375 60.539062 79.921875 58.019531 C 78.660156 54.832031 77.910156 52.238281 77.664062 50.242188 L 77.519531 43.246094 L 77.519531 42.105469 L 76.867188 39.320312 C 76.039062 37.65625 75.046875 34.824219 73.882812 30.828125 L 71.480469 23.265625 C 70.023438 18.269531 69.296875 15.105469 69.296875 13.773438 C 69.296875 11.632812 70.074219 9.65625 71.625 7.851562 L 71.769531 7.777344 M 121.550781 3.78125 L 121.625 4.925781 L 121.476562 5.636719 C 121.769531 8.492188 122.15625 10.65625 122.640625 12.132812 L 123.589844 16.34375 L 123.660156 16.984375 L 124.535156 22.121094 C 124.726562 26.5 125.019531 29.78125 125.40625 31.972656 C 126.570312 36.539062 127.152344 39.84375 127.152344 41.890625 L 127.152344 41.960938 C 128.027344 43.292969 128.511719 47.339844 128.609375 54.09375 L 129.703125 60.445312 L 130.066406 66.65625 C 130.453125 72.269531 130.816406 76.480469 131.15625 79.285156 L 131.15625 85.707031 L 131.738281 91.988281 L 131.738281 92.132812 L 132.832031 98.125 L 133.996094 105.90625 L 136.03125 113.828125 C 136.519531 115.871094 136.761719 118.488281 136.761719 121.675781 C 136.421875 122.914062 136.25 125.839844 136.25 130.453125 L 135.816406 139.230469 C 135.816406 140.707031 136.347656 143.632812 137.414062 148.011719 L 138.144531 147.9375 L 137.851562 148.152344 L 139.015625 148.296875 L 139.671875 148.507812 C 142.195312 148.460938 144.449219 147.34375 146.441406 145.15625 C 146.683594 144.726562 146.828125 143.515625 146.875 141.515625 C 146.875 138.945312 146.148438 136.996094 144.695312 135.664062 L 144.546875 135.519531 C 144.402344 134.808594 143.964844 134.449219 143.238281 134.449219 L 142.21875 134.664062 L 142.21875 134.523438 L 138.945312 140.089844 C 138.554688 140.039062 138.363281 139.851562 138.363281 139.515625 L 140.691406 135.234375 C 142.195312 132.382812 142.945312 129.953125 142.945312 127.957031 C 142.945312 125.625 141.976562 120.082031 140.035156 111.328125 C 138.046875 102.71875 137.050781 97.4375 137.050781 95.484375 L 136.613281 93.058594 L 135.449219 89.847656 L 135.449219 83.925781 C 135.449219 79.5 135.644531 76.527344 136.03125 75.003906 C 136.421875 73.433594 136.613281 71.125 136.613281 68.082031 C 136.613281 66.035156 136.347656 63.515625 135.816406 60.515625 C 135.328125 57.804688 135.160156 54.808594 135.304688 51.523438 C 135.402344 49.765625 135.304688 47.027344 135.015625 43.316406 L 135.015625 39.179688 L 134.503906 35.824219 L 134.648438 34.96875 L 133.851562 32.898438 L 134.214844 33.328125 L 133.851562 31.398438 C 133.65625 30.640625 133.511719 29.1875 133.414062 27.046875 L 132.394531 18.410156 L 132.394531 14.058594 L 132.613281 11.847656 C 132.613281 10.941406 132.417969 10.253906 132.03125 9.777344 L 128.753906 7.136719 L 127.953125 6.566406 L 124.753906 4.496094 L 123.296875 3.640625 L 121.550781 3.78125 M 102.628906 2.070312 L 102.992188 4.996094 C 103.285156 8.945312 103.746094 12.726562 104.375 16.34375 L 104.519531 16.914062 L 104.59375 17.414062 L 107.214844 34.113281 L 108.8125 50.8125 C 108.863281 54.425781 109.03125 57.164062 109.324219 59.019531 L 110.488281 67.296875 L 110.488281 67.582031 L 110.925781 70.078125 L 112.527344 81.570312 C 114.03125 88.46875 114.902344 93.628906 115.144531 97.054688 C 115.292969 99.292969 116.09375 104.3125 117.546875 112.113281 C 118.808594 119.34375 119.441406 124.625 119.441406 127.957031 L 119.441406 128.097656 L 119.875 130.527344 L 120.75 138.304688 L 122.058594 144.585938 L 123.371094 147.652344 C 123.953125 148.84375 124.265625 149.792969 124.316406 150.507812 L 125.625 150.4375 L 126.863281 149.9375 L 128.171875 149.578125 L 130.429688 149.222656 L 133.703125 148.367188 L 134.140625 148.4375 L 135.015625 147.796875 L 136.324219 148.011719 L 135.449219 144.15625 L 134.722656 139.230469 L 135.160156 130.382812 L 135.742188 121.675781 C 135.742188 119.296875 135.476562 116.941406 134.941406 114.609375 L 133.195312 106.902344 C 131.546875 98.671875 130.695312 93.796875 130.648438 92.273438 C 130.164062 91.65625 129.894531 90.132812 129.847656 87.707031 L 130.136719 80.070312 L 129.191406 67.4375 L 127.445312 54.808594 C 127.25 53.378906 127.179688 51.238281 127.226562 48.386719 L 126.0625 43.246094 C 125.675781 41.773438 125.285156 38.847656 124.898438 34.46875 C 124.414062 32.375 124.097656 29.117188 123.953125 24.691406 L 122.277344 16.984375 L 122.207031 16.34375 L 121.839844 14.84375 C 120.96875 10.988281 120.554688 7.777344 120.605469 5.210938 L 120.605469 4.566406 L 120.457031 3.78125 L 120.457031 3.710938 L 116.527344 3.140625 L 108.160156 2.570312 L 107.578125 2.570312 L 102.628906 2.070312 M 118.058594 150.9375 L 119.875 150.863281 L 120.75 150.863281 L 120.75 150.722656 L 120.675781 150.578125 L 123.003906 150.578125 L 121.625 146.796875 C 120.652344 143.609375 120.046875 141.015625 119.804688 139.019531 L 117.839844 126.527344 L 117.910156 126.101562 L 117.910156 125.316406 L 117.765625 120.820312 L 116.382812 113.042969 C 115.171875 107.046875 114.417969 101.882812 114.128906 97.554688 L 111.726562 83.355469 C 110.125 74.21875 109.300781 68.699219 109.25 66.796875 C 108.667969 64.5625 108.183594 59.589844 107.796875 51.882812 L 106.921875 43.746094 L 106.265625 35.609375 L 103.9375 21.050781 L 103.355469 16.914062 L 103.210938 16.34375 C 102.238281 9.683594 101.777344 5.304688 101.828125 3.210938 L 101.828125 2 L 99.136719 1.785156 L 91.566406 1.5 L 86.980469 1.425781 L 86.617188 1.785156 L 83.269531 2 L 83.195312 1.925781 L 84.945312 16.34375 L 85.089844 16.914062 L 85.234375 18.839844 C 85.332031 22.695312 85.574219 25.644531 85.960938 27.6875 L 87.34375 36.324219 C 90.839844 57.6875 92.609375 69.367188 92.65625 71.363281 L 92.441406 72.507812 L 94.550781 88.207031 C 95.179688 93.441406 96.734375 99.171875 99.207031 105.40625 L 101.101562 113.96875 L 102.992188 122.605469 L 105.320312 138.375 L 106.632812 140.300781 L 106.558594 140.589844 L 110.34375 146.226562 C 110.78125 147.273438 111.046875 148.984375 111.144531 151.363281 L 117.257812 150.722656 L 117.621094 151.078125 L 118.058594 150.9375 M 118.128906 150.648438 L 118.203125 150.648438 L 118.058594 150.792969 L 118.128906 150.648438 M 77.375 37.039062 L 77.375 36.753906 L 78.683594 38.609375 L 78.613281 39.535156 L 78.613281 43.390625 C 78.613281 48.386719 79.195312 52.570312 80.359375 55.949219 C 81.910156 60.421875 83.050781 65.917969 83.777344 72.433594 L 83.777344 79.714844 L 84.214844 86.992188 C 84.265625 87.898438 84.699219 89.085938 85.527344 90.5625 L 87.492188 94.199219 C 88.703125 97.199219 89.308594 99.578125 89.308594 101.335938 L 88.945312 102.835938 L 89.019531 104.050781 L 89.089844 111.328125 C 89.1875 113.753906 89.675781 117.632812 90.546875 122.960938 L 92.441406 134.808594 C 92.972656 137.472656 93.796875 139.398438 94.914062 140.589844 C 95.253906 141.015625 96.34375 141.585938 98.1875 142.300781 L 98.261719 141.800781 L 98.769531 141.730469 L 99.28125 142.730469 L 99.570312 142.800781 C 101.851562 143.609375 102.992188 144.464844 102.992188 145.371094 L 102.484375 145.867188 L 99.570312 144.011719 L 100.152344 147.4375 C 100.734375 151.148438 101.148438 153.003906 101.390625 153.003906 L 104.882812 152.503906 L 108.8125 152.007812 L 109.90625 151.648438 L 109.324219 147.011719 C 109.226562 146.25 108.570312 145.15625 107.359375 143.726562 C 106.292969 142.492188 105.683594 141.492188 105.539062 140.730469 L 105.03125 140.515625 L 104.882812 140.515625 L 104.667969 140.230469 L 104.15625 139.230469 L 103.71875 137.660156 L 103.792969 136.949219 L 104.011719 136.949219 L 101.972656 123.460938 L 100.152344 114.824219 L 98.261719 106.332031 C 95.203125 99.007812 93.652344 93.296875 93.605469 89.207031 L 91.566406 72.148438 L 91.566406 71.507812 L 91.640625 71.292969 L 91.128906 68.296875 L 89.089844 55.378906 L 86.328125 37.894531 C 85.742188 33.898438 84.945312 27.117188 83.925781 17.554688 L 83.777344 16.914062 L 83.707031 16.34375 C 82.832031 8.253906 82.421875 3.828125 82.46875 3.070312 C 82.421875 2.496094 82.445312 2.070312 82.542969 1.785156 L 79.414062 2.285156 L 78.394531 2.710938 L 78.03125 3.070312 L 76.429688 3.925781 L 74.027344 6.707031 L 73.007812 7.851562 L 71.699219 9.847656 C 70.777344 11.277344 70.339844 12.535156 70.386719 13.628906 C 70.339844 15.34375 71.675781 20.433594 74.390625 28.902344 L 77.300781 37.039062 L 77.449219 37.179688 L 77.375 37.039062 M 60.199219 3.640625 L 61.945312 3.78125 L 62.890625 3.78125 L 68.421875 4.640625 L 69.371094 6.566406 L 68.933594 7.136719 L 69.078125 15.484375 C 70.046875 20.242188 70.535156 23.742188 70.535156 25.976562 L 70.460938 26.332031 L 71.261719 30.828125 L 72.570312 37.824219 C 72.960938 40.914062 73.640625 43.746094 74.609375 46.316406 C 75.386719 48.359375 75.773438 50.144531 75.773438 51.667969 C 75.773438 53.144531 74.367188 58.328125 71.550781 67.226562 C 71.066406 68.652344 70.753906 71.769531 70.605469 76.574219 L 70.097656 81.785156 L 70.023438 82.140625 L 67.332031 90.417969 L 66.238281 94.984375 L 64.929688 98.054688 C 64.300781 102.335938 63.984375 105.167969 63.984375 106.546875 L 63.765625 116.539062 C 62.796875 121.011719 62.382812 124.339844 62.527344 126.527344 C 62.578125 127.765625 61.265625 129.40625 58.597656 131.453125 L 57.359375 133.308594 L 59.253906 143.515625 L 59.398438 144.011719 C 58.136719 149.007812 56.875 151.507812 55.613281 151.507812 L 49.5 150.863281 L 32.035156 152.503906 L 23.957031 151.648438 C 20.171875 150.984375 17.699219 150.246094 16.53125 149.4375 C 14.15625 147.914062 11.292969 146.652344 7.945312 145.65625 L 7.945312 145.582031 L 6.925781 145.296875 C 6.441406 145.058594 6.222656 144.226562 6.273438 142.800781 C 6.707031 136.949219 7.386719 133.785156 8.308594 133.308594 C 7.484375 131.3125 7.097656 129.976562 7.144531 129.3125 C 7.046875 124.03125 6.855469 120.820312 6.5625 119.679688 C 6.660156 115.160156 6.828125 111.757812 7.070312 109.472656 C 6.636719 109.378906 6.464844 109.070312 6.5625 108.546875 C 6.5625 107.878906 6.878906 106.570312 7.507812 104.621094 C 8.1875 102.574219 8.527344 100.671875 8.527344 98.910156 C 8.527344 96.816406 7.65625 89.230469 5.90625 76.144531 C 5.90625 74.625 6.054688 73.765625 6.34375 73.578125 L 6.273438 70.722656 L 6.273438 64.941406 L 5.90625 64.585938 L 6.273438 59.945312 C 6.273438 57.472656 5.398438 52.5 3.652344 45.03125 C 1.855469 37.5625 0.984375 30.640625 1.03125 24.265625 C 1.03125 18.316406 1.734375 14.511719 3.140625 12.84375 L 5.398438 10.0625 L 5.472656 9.917969 L 4.960938 10.0625 C 4.28125 10.0625 3.941406 9.824219 3.941406 9.347656 L 7.871094 5.28125 C 8.019531 4.328125 8.382812 3.59375 8.964844 3.070312 C 10.03125 2.023438 12.167969 1.5 15.367188 1.5 L 31.378906 2.570312 L 31.742188 2.355469 L 32.617188 2.070312 L 33.707031 2.070312 L 37.492188 2.140625 L 39.601562 2.785156 L 51.683594 3.496094 L 55.90625 3.425781 L 57.144531 3.496094 L 60.199219 3.640625 M 65.292969 6.136719 L 55.542969 5.496094 L 55.613281 6.78125 C 55.808594 9.777344 56.148438 12.488281 56.632812 14.914062 L 56.925781 16.484375 L 57.070312 16.914062 C 57.75 19.671875 58.816406 22.742188 60.273438 26.121094 C 62.308594 30.878906 63.621094 34.683594 64.203125 37.539062 C 64.832031 40.296875 65.148438 43.867188 65.148438 48.242188 L 64.785156 56.09375 C 64.300781 60.136719 63.8125 62.585938 63.328125 63.441406 L 61.289062 73.933594 L 60.054688 84.921875 L 58.597656 95.984375 L 57.070312 106.046875 L 57.289062 108.261719 L 56.925781 112.898438 L 57.070312 117.609375 C 57.070312 119.417969 56.875 120.820312 56.488281 121.820312 L 54.230469 125.53125 L 51.464844 129.382812 C 50.203125 130.90625 49.476562 132.214844 49.28125 133.308594 C 48.070312 138.542969 47.464844 141.539062 47.464844 142.300781 L 47.828125 148.652344 L 47.753906 149.9375 L 49.429688 149.792969 L 55.175781 150.507812 C 55.664062 150.507812 56.34375 149.316406 57.214844 146.9375 L 57.726562 145.441406 L 57.070312 145.511719 C 56.777344 145.320312 56.488281 145.203125 56.195312 145.15625 L 58.160156 143.726562 L 57.433594 138.660156 L 56.851562 134.09375 C 55.734375 135.617188 55.054688 136.378906 54.8125 136.378906 C 54.425781 136.328125 54.230469 136.140625 54.230469 135.804688 C 54.230469 135.570312 54.765625 134.734375 55.832031 133.308594 L 57.796875 130.738281 C 60.320312 128.3125 61.535156 126.695312 61.4375 125.886719 C 61.289062 124.886719 61.484375 123.199219 62.019531 120.820312 C 62.019531 119.820312 62.285156 118.179688 62.820312 115.894531 L 63.257812 101.335938 C 63.304688 97.722656 63.765625 95.890625 64.640625 95.84375 L 65.4375 93.773438 L 66.238281 89.632812 C 66.578125 88.347656 67.1875 86.683594 68.058594 84.636719 L 69.078125 82.285156 L 69.003906 81.996094 C 69.003906 81.046875 69.199219 79.761719 69.585938 78.144531 L 69.585938 74.363281 C 69.492188 71.175781 69.804688 68.628906 70.535156 66.726562 C 73.347656 59.304688 74.753906 54.261719 74.753906 51.597656 C 74.753906 50.214844 74.148438 47.957031 72.933594 44.816406 C 72.402344 43.390625 71.917969 41.082031 71.480469 37.894531 L 70.167969 31.1875 C 69.976562 29.710938 69.273438 27.476562 68.058594 24.476562 L 68.351562 23.691406 L 68.714844 23.765625 L 68.132812 19.410156 C 67.792969 17.890625 67.769531 15.535156 68.058594 12.347656 L 68.132812 6.707031 L 67.839844 6.351562 L 67.550781 5.566406 C 67.257812 5.945312 66.507812 6.136719 65.292969 6.136719 M 40.621094 4.496094 L 40.1875 7.207031 L 39.601562 10.777344 C 38.925781 12.773438 38.585938 15.199219 38.585938 18.054688 L 38.65625 18.625 L 38.875 19.410156 C 41.351562 31.542969 42.585938 38.917969 42.585938 41.535156 L 42.515625 44.960938 C 42.417969 46.910156 42.246094 47.957031 42.003906 48.101562 L 41.933594 57.089844 L 41.933594 69.222656 L 41.640625 76.714844 L 41.785156 77.214844 L 38.367188 96.128906 L 36.328125 114.824219 C 35.066406 124.101562 34.507812 130.3125 34.65625 133.453125 L 34.65625 145.15625 L 34.144531 151.222656 L 46.953125 149.9375 L 46.664062 147.367188 L 46.664062 144.15625 C 46.664062 139.921875 47.125 136.496094 48.046875 133.878906 C 48.917969 131.261719 50.640625 128.335938 53.210938 125.101562 C 55.203125 122.484375 56.171875 119.320312 56.125 115.609375 C 56.027344 110.328125 56.050781 107.1875 56.195312 106.191406 L 56.195312 104.976562 L 57.359375 95.34375 C 58.136719 89.347656 58.742188 85.375 59.179688 83.425781 C 58.988281 81.472656 59.398438 77.929688 60.417969 72.792969 L 61.4375 66.441406 C 61.726562 64.539062 62.042969 63.277344 62.382812 62.65625 L 63.183594 57.734375 C 63.71875 53.878906 63.984375 50.714844 63.984375 48.242188 C 63.984375 41.960938 62.429688 34.898438 59.324219 27.046875 C 57.917969 23.667969 56.804688 20.433594 55.976562 17.339844 L 55.90625 16.84375 C 54.933594 13.035156 54.449219 9.46875 54.449219 6.136719 L 54.449219 5.421875 L 40.621094 4.496094 M 31.671875 3.855469 L 24.539062 3.425781 L 22.210938 7.066406 L 19.734375 11.132812 C 18.621094 13.035156 18.039062 15.511719 17.988281 18.554688 L 17.988281 19.484375 C 17.988281 22.242188 18.230469 24.761719 18.714844 27.046875 C 19.152344 29.332031 19.371094 32.589844 19.371094 36.824219 L 19.152344 40.820312 L 19.371094 54.378906 L 19.664062 68.9375 L 19.664062 75.433594 C 19.515625 79.332031 19.152344 81.378906 18.570312 81.570312 L 18.5 81.855469 L 18.5 107.402344 C 18.011719 109.164062 17.769531 112.351562 17.769531 116.964844 C 17.769531 121.820312 18.011719 126.265625 18.5 130.3125 C 18.984375 134.308594 19.226562 137.972656 19.226562 141.300781 C 19.324219 145.726562 19.226562 148.460938 18.933594 149.507812 L 21.628906 150.507812 C 21.722656 150.886719 21.917969 151.078125 22.210938 151.078125 L 22.5 150.648438 L 28.46875 151.433594 L 33.199219 151.292969 L 33.125 150.648438 L 33.125 149.152344 C 33.660156 141.109375 33.855469 135.09375 33.707031 131.097656 C 33.515625 128.621094 33.660156 125.578125 34.144531 121.960938 L 35.457031 112.898438 C 36.230469 104.574219 36.933594 98.507812 37.566406 94.699219 L 39.96875 80.5 C 39.96875 77.265625 40.28125 74.601562 40.914062 72.507812 L 40.914062 41.390625 L 41.421875 40.964844 L 41.496094 41.035156 L 39.53125 29.542969 L 37.636719 19.410156 L 37.492188 18.699219 L 37.492188 18.054688 C 37.492188 15.484375 37.882812 12.894531 38.65625 10.277344 C 38.996094 9.085938 39.167969 7.800781 39.167969 6.421875 C 39.117188 5.613281 39.140625 4.949219 39.238281 4.425781 L 31.671875 3.855469 M 16.460938 2.996094 L 14.785156 2.996094 C 13.523438 3.140625 12.335938 3.566406 11.21875 4.28125 L 10.128906 5.710938 L 8.089844 8.351562 L 5.835938 10.988281 L 5.035156 12.0625 L 3.871094 13.628906 C 2.65625 15.34375 2.050781 18.886719 2.050781 24.265625 C 2.050781 30.304688 2.949219 37.132812 4.742188 44.746094 L 6.707031 54.308594 L 7.144531 51.238281 L 7.144531 51.597656 C 7 53.738281 7.195312 55.234375 7.726562 56.09375 C 7.484375 60.421875 7.363281 66.84375 7.363281 75.359375 C 7.363281 75.933594 7.265625 76.242188 7.070312 76.289062 L 7.144531 79.929688 L 7.871094 86.28125 C 8.117188 89.039062 8.503906 91.417969 9.039062 93.417969 C 9.375 94.890625 9.546875 96.722656 9.546875 98.910156 C 9.546875 100.386719 9.207031 102.195312 8.527344 104.335938 L 8.238281 106.332031 L 8.238281 107.402344 C 7.847656 112.636719 7.679688 116.726562 7.726562 119.679688 C 7.679688 122.390625 7.800781 125.507812 8.089844 129.027344 C 8.238281 130.929688 9.230469 132.953125 11.074219 135.09375 L 13.769531 138.234375 C 13.769531 138.613281 13.574219 138.804688 13.183594 138.804688 L 11.003906 136.449219 L 8.964844 134.59375 L 8.164062 137.089844 C 7.53125 138.996094 7.21875 140.875 7.21875 142.730469 C 7.21875 143.441406 7.289062 143.871094 7.4375 144.011719 L 10.054688 145.082031 C 11.21875 145.464844 12.820312 146.105469 14.859375 147.011719 L 13.914062 146.9375 L 17.261719 148.722656 L 18.28125 149.222656 C 18.085938 148.035156 18.039062 145.394531 18.132812 141.300781 C 18.132812 137.972656 17.890625 134.332031 17.40625 130.382812 C 16.921875 126.433594 16.679688 121.960938 16.679688 116.964844 C 16.628906 113.113281 16.898438 109.78125 17.480469 106.976562 L 17.480469 81.5 C 17.578125 80.402344 17.722656 79.644531 17.914062 79.214844 C 18.011719 77.789062 18.253906 76.335938 18.644531 74.859375 L 18.644531 68.9375 L 18.351562 50.882812 C 18.253906 46.980469 18.28125 44.128906 18.425781 42.320312 C 18.132812 40.605469 18.109375 36.992188 18.351562 31.472656 L 17.261719 24.550781 C 17.019531 23.644531 16.898438 21.980469 16.898438 19.554688 L 16.898438 18.554688 L 17.042969 14.988281 C 17.238281 13.605469 17.792969 12.203125 18.714844 10.777344 L 21.191406 6.421875 L 23.519531 3.355469 L 17.117188 2.996094 L 16.460938 2.996094 "/>
<path style=" stroke:none;fill-rule:evenodd;fill:rgb(83.137256%,55.686277%,27.450982%);fill-opacity:1;" d="M 121.550781 3.78125 L 123.296875 3.640625 L 124.753906 4.496094 L 127.953125 6.566406 L 128.753906 7.136719 L 132.03125 9.777344 C 132.417969 10.253906 132.613281 10.941406 132.613281 11.847656 L 132.394531 14.058594 L 132.394531 18.410156 L 133.414062 27.046875 C 133.511719 29.1875 133.65625 30.640625 133.851562 31.398438 L 134.214844 33.328125 L 133.851562 32.898438 L 134.648438 34.96875 L 134.503906 35.824219 L 135.015625 39.179688 L 135.015625 43.316406 C 135.304688 47.027344 135.402344 49.765625 135.304688 51.523438 C 135.160156 54.808594 135.328125 57.804688 135.816406 60.515625 C 136.347656 63.515625 136.613281 66.035156 136.613281 68.082031 C 136.613281 71.125 136.421875 73.433594 136.03125 75.003906 C 135.644531 76.527344 135.449219 79.5 135.449219 83.925781 L 135.449219 89.847656 L 136.613281 93.058594 L 137.050781 95.484375 C 137.050781 97.4375 138.046875 102.71875 140.035156 111.328125 C 141.976562 120.082031 142.945312 125.625 142.945312 127.957031 C 142.945312 129.953125 142.195312 132.382812 140.691406 135.234375 L 138.363281 139.515625 C 138.363281 139.851562 138.554688 140.039062 138.945312 140.089844 L 142.21875 134.523438 L 142.21875 134.664062 L 143.238281 134.449219 C 143.964844 134.449219 144.402344 134.808594 144.546875 135.519531 L 144.695312 135.664062 C 146.148438 136.996094 146.875 138.945312 146.875 141.515625 C 146.828125 143.515625 146.683594 144.726562 146.441406 145.15625 C 144.449219 147.34375 142.195312 148.460938 139.671875 148.507812 L 139.015625 148.296875 L 137.851562 148.152344 L 138.144531 147.9375 L 137.414062 148.011719 C 136.347656 143.632812 135.816406 140.707031 135.816406 139.230469 L 136.25 130.453125 C 136.25 125.839844 136.421875 122.914062 136.761719 121.675781 C 136.761719 118.488281 136.519531 115.871094 136.03125 113.828125 L 133.996094 105.90625 L 132.832031 98.125 L 131.738281 92.132812 L 131.738281 91.988281 L 131.15625 85.707031 L 131.15625 79.285156 C 130.816406 76.480469 130.453125 72.269531 130.066406 66.65625 L 129.703125 60.445312 L 128.609375 54.09375 C 128.511719 47.339844 128.027344 43.292969 127.152344 41.960938 L 127.152344 41.890625 C 127.152344 39.84375 126.570312 36.539062 125.40625 31.972656 C 125.019531 29.78125 124.726562 26.5 124.535156 22.121094 L 123.660156 16.984375 L 123.589844 16.34375 L 122.640625 12.132812 C 122.15625 10.65625 121.769531 8.492188 121.476562 5.636719 L 121.625 4.925781 L 121.550781 3.78125 M 120.457031 3.710938 L 120.457031 3.78125 L 120.605469 4.566406 L 120.605469 5.210938 C 120.554688 7.777344 120.96875 10.988281 121.839844 14.84375 L 122.207031 16.34375 L 122.277344 16.984375 L 123.953125 24.691406 C 124.097656 29.117188 124.414062 32.375 124.898438 34.46875 C 125.285156 38.847656 125.675781 41.773438 126.0625 43.246094 L 127.226562 48.386719 C 127.179688 51.238281 127.25 53.378906 127.445312 54.808594 L 129.191406 67.4375 L 130.136719 80.070312 L 129.847656 87.707031 C 129.894531 90.132812 130.164062 91.65625 130.648438 92.273438 C 130.695312 93.796875 131.546875 98.671875 133.195312 106.902344 L 134.941406 114.609375 C 135.476562 116.941406 135.742188 119.296875 135.742188 121.675781 L 135.160156 130.382812 L 134.722656 139.230469 L 135.449219 144.15625 L 136.324219 148.011719 L 135.015625 147.796875 L 134.140625 148.4375 L 133.703125 148.367188 L 130.429688 149.222656 L 128.171875 149.578125 L 126.863281 149.9375 L 125.625 150.4375 L 124.316406 150.507812 C 124.265625 149.792969 123.953125 148.84375 123.371094 147.652344 L 122.058594 144.585938 L 120.75 138.304688 L 119.875 130.527344 L 119.441406 128.097656 L 119.441406 127.957031 C 119.441406 124.625 118.808594 119.34375 117.546875 112.113281 C 116.09375 104.3125 115.292969 99.292969 115.144531 97.054688 C 114.902344 93.628906 114.03125 88.46875 112.527344 81.570312 L 110.925781 70.078125 L 110.488281 67.582031 L 110.488281 67.296875 L 109.324219 59.019531 C 109.03125 57.164062 108.863281 54.425781 108.8125 50.8125 L 107.214844 34.113281 L 104.59375 17.414062 L 104.519531 16.914062 L 104.375 16.34375 C 103.746094 12.726562 103.285156 8.945312 102.992188 4.996094 L 102.628906 2.070312 L 107.578125 2.570312 L 108.160156 2.570312 L 116.527344 3.140625 L 120.457031 3.710938 M 99.136719 1.785156 L 101.828125 2 L 101.828125 3.210938 C 101.777344 5.304688 102.238281 9.683594 103.210938 16.34375 L 103.355469 16.914062 L 103.9375 21.050781 L 106.265625 35.609375 L 106.921875 43.746094 L 107.796875 51.882812 C 108.183594 59.589844 108.667969 64.5625 109.25 66.796875 C 109.300781 68.699219 110.125 74.21875 111.726562 83.355469 L 114.128906 97.554688 C 114.417969 101.882812 115.171875 107.046875 116.382812 113.042969 L 117.765625 120.820312 L 117.910156 125.316406 L 117.910156 126.101562 L 117.839844 126.527344 L 119.804688 139.019531 C 120.046875 141.015625 120.652344 143.609375 121.625 146.796875 L 123.003906 150.578125 L 120.675781 150.578125 L 120.75 150.722656 L 120.75 150.863281 L 119.875 150.863281 L 118.058594 150.9375 L 118.058594 150.792969 L 118.203125 150.648438 L 118.128906 150.648438 L 118.203125 150.222656 C 117.667969 149.269531 117.378906 148.390625 117.328125 147.582031 L 116.457031 144.796875 C 118.445312 142.515625 119.441406 141.136719 119.441406 140.660156 C 115.558594 139.042969 113.375 137.6875 112.890625 136.589844 L 111.214844 131.738281 C 110.535156 129.597656 110.222656 126.339844 110.269531 121.960938 C 110.222656 119.820312 110.34375 117.703125 110.632812 115.609375 C 110.632812 114.753906 109.980469 112.898438 108.667969 110.042969 C 107.308594 107.238281 106.632812 104.621094 106.632812 102.195312 L 106.921875 98.769531 C 107.117188 98.007812 107.746094 96.816406 108.8125 95.199219 C 108.765625 94.535156 108.039062 93.25 106.632812 91.347656 L 105.25 87.421875 C 104.375 85.804688 103.769531 83.996094 103.429688 81.996094 L 103.355469 81.355469 C 103.597656 79.40625 103.671875 75.359375 103.574219 69.222656 L 103.574219 58.875 C 103.574219 57.449219 103.257812 55.6875 102.628906 53.59375 L 101.027344 48.457031 L 99.28125 43.316406 L 97.96875 38.109375 L 97.023438 31.1875 L 97.242188 30.757812 L 96.371094 26.691406 C 96.320312 23.359375 96.441406 20.101562 96.734375 16.914062 L 96.804688 16.34375 C 97.242188 11.394531 98.019531 6.566406 99.136719 1.855469 L 99.136719 1.785156 M 65.292969 6.136719 C 66.507812 6.136719 67.257812 5.945312 67.550781 5.566406 L 67.839844 6.351562 L 68.132812 6.707031 L 68.058594 12.347656 C 67.769531 15.535156 67.792969 17.890625 68.132812 19.410156 L 68.714844 23.765625 L 68.351562 23.691406 L 68.058594 24.476562 C 69.273438 27.476562 69.976562 29.710938 70.167969 31.1875 L 71.480469 37.894531 C 71.917969 41.082031 72.402344 43.390625 72.933594 44.816406 C 74.148438 47.957031 74.753906 50.214844 74.753906 51.597656 C 74.753906 54.261719 73.347656 59.304688 70.535156 66.726562 C 69.804688 68.628906 69.492188 71.175781 69.585938 74.363281 L 69.585938 78.144531 C 69.199219 79.761719 69.003906 81.046875 69.003906 81.996094 L 69.078125 82.285156 L 68.058594 84.636719 C 67.1875 86.683594 66.578125 88.347656 66.238281 89.632812 L 65.4375 93.773438 L 64.640625 95.84375 C 63.765625 95.890625 63.304688 97.722656 63.257812 101.335938 L 62.820312 115.894531 C 62.285156 118.179688 62.019531 119.820312 62.019531 120.820312 C 61.484375 123.199219 61.289062 124.886719 61.4375 125.886719 C 61.535156 126.695312 60.320312 128.3125 57.796875 130.738281 L 55.832031 133.308594 C 54.765625 134.734375 54.230469 135.570312 54.230469 135.804688 C 54.230469 136.140625 54.425781 136.328125 54.8125 136.378906 C 55.054688 136.378906 55.734375 135.617188 56.851562 134.09375 L 57.433594 138.660156 L 58.160156 143.726562 L 56.195312 145.15625 C 56.488281 145.203125 56.777344 145.320312 57.070312 145.511719 L 57.726562 145.441406 L 57.214844 146.9375 C 56.34375 149.316406 55.664062 150.507812 55.175781 150.507812 L 49.429688 149.792969 L 47.753906 149.9375 L 47.828125 148.652344 L 47.464844 142.300781 C 47.464844 141.539062 48.070312 138.542969 49.28125 133.308594 C 49.476562 132.214844 50.203125 130.90625 51.464844 129.382812 L 54.230469 125.53125 L 56.488281 121.820312 C 56.875 120.820312 57.070312 119.417969 57.070312 117.609375 L 56.925781 112.898438 L 57.289062 108.261719 L 57.070312 106.046875 L 58.597656 95.984375 L 60.054688 84.921875 L 61.289062 73.933594 L 63.328125 63.441406 C 63.8125 62.585938 64.300781 60.136719 64.785156 56.09375 L 65.148438 48.242188 C 65.148438 43.867188 64.832031 40.296875 64.203125 37.539062 C 63.621094 34.683594 62.308594 30.878906 60.273438 26.121094 C 58.816406 22.742188 57.75 19.671875 57.070312 16.914062 L 56.925781 16.484375 L 56.632812 14.914062 C 56.148438 12.488281 55.808594 9.777344 55.613281 6.78125 L 55.542969 5.496094 L 65.292969 6.136719 M 54.449219 5.421875 L 54.449219 6.136719 C 54.449219 9.46875 54.933594 13.035156 55.90625 16.84375 L 55.976562 17.339844 C 56.804688 20.433594 57.917969 23.667969 59.324219 27.046875 C 62.429688 34.898438 63.984375 41.960938 63.984375 48.242188 C 63.984375 50.714844 63.71875 53.878906 63.183594 57.734375 L 62.382812 62.65625 C 62.042969 63.277344 61.726562 64.539062 61.4375 66.441406 L 60.417969 72.792969 C 59.398438 77.929688 58.988281 81.472656 59.179688 83.425781 C 58.742188 85.375 58.136719 89.347656 57.359375 95.34375 L 56.195312 104.976562 L 56.195312 106.191406 C 56.050781 107.1875 56.027344 110.328125 56.125 115.609375 C 56.171875 119.320312 55.203125 122.484375 53.210938 125.101562 C 50.640625 128.335938 48.917969 131.261719 48.046875 133.878906 C 47.125 136.496094 46.664062 139.921875 46.664062 144.15625 L 46.664062 147.367188 L 46.953125 149.9375 L 34.144531 151.222656 L 34.65625 145.15625 L 34.65625 133.453125 C 34.507812 130.3125 35.066406 124.101562 36.328125 114.824219 L 38.367188 96.128906 L 41.785156 77.214844 L 41.640625 76.714844 L 41.933594 69.222656 L 41.933594 57.089844 L 42.003906 48.101562 C 42.246094 47.957031 42.417969 46.910156 42.515625 44.960938 L 42.585938 41.535156 C 42.585938 38.917969 41.351562 31.542969 38.875 19.410156 L 38.65625 18.625 L 38.585938 18.054688 C 38.585938 15.199219 38.925781 12.773438 39.601562 10.777344 L 40.1875 7.207031 L 40.621094 4.496094 L 54.449219 5.421875 M 22.5 150.648438 L 22.863281 149.152344 C 23.105469 147.582031 23.542969 146.417969 24.175781 145.65625 C 24.464844 145.082031 25.628906 144.179688 27.667969 142.941406 C 29.898438 141.5625 31.039062 140.753906 31.089844 140.515625 C 31.039062 140.183594 30.699219 139.96875 30.070312 139.875 C 29.292969 139.730469 28.785156 139.515625 28.542969 139.230469 L 27.8125 137.804688 L 26.867188 134.808594 L 26.066406 128.742188 C 25.871094 126.03125 25.75 121.984375 25.703125 116.609375 L 26.066406 110.828125 L 26.066406 110.328125 L 26.359375 109.117188 L 26.066406 99.339844 L 25.847656 89.417969 L 26.429688 81.710938 L 26.359375 80.355469 C 26.84375 79.691406 27.253906 77.289062 27.59375 73.148438 L 27.742188 65.441406 C 27.742188 62.207031 28.808594 59.683594 30.941406 57.875 L 36.839844 53.523438 L 40.332031 50.597656 C 40.28125 49.695312 39.019531 46.648438 36.546875 41.460938 C 36.207031 39.84375 35.210938 36.753906 33.5625 32.183594 C 31.960938 27.855469 30.941406 24.644531 30.507812 22.550781 L 29.996094 19.554688 L 29.996094 18.699219 C 29.851562 17.222656 29.777344 15.558594 29.777344 13.703125 L 30.070312 8.707031 C 30.070312 7.515625 30.601562 5.898438 31.671875 3.855469 L 39.238281 4.425781 C 39.140625 4.949219 39.117188 5.613281 39.167969 6.421875 C 39.167969 7.800781 38.996094 9.085938 38.65625 10.277344 C 37.882812 12.894531 37.492188 15.484375 37.492188 18.054688 L 37.492188 18.699219 L 37.636719 19.410156 L 39.53125 29.542969 L 41.496094 41.035156 L 41.421875 40.964844 L 40.914062 41.390625 L 40.914062 72.507812 C 40.28125 74.601562 39.96875 77.265625 39.96875 80.5 L 37.566406 94.699219 C 36.933594 98.507812 36.230469 104.574219 35.457031 112.898438 L 34.144531 121.960938 C 33.660156 125.578125 33.515625 128.621094 33.707031 131.097656 C 33.855469 135.09375 33.660156 141.109375 33.125 149.152344 L 33.125 150.648438 L 33.199219 151.292969 L 28.46875 151.433594 L 22.5 150.648438 "/>
<path style=" stroke:none;fill-rule:evenodd;fill:rgb(58.039218%,39.607844%,12.941177%);fill-opacity:1;" d="M 99.136719 1.785156 L 99.136719 1.855469 C 98.019531 6.566406 97.242188 11.394531 96.804688 16.34375 L 96.734375 16.914062 C 96.441406 20.101562 96.320312 23.359375 96.371094 26.691406 L 97.242188 30.757812 L 97.023438 31.1875 L 97.96875 38.109375 L 99.28125 43.316406 L 101.027344 48.457031 L 102.628906 53.59375 C 103.257812 55.6875 103.574219 57.449219 103.574219 58.875 L 103.574219 69.222656 C 103.671875 75.359375 103.597656 79.40625 103.355469 81.355469 L 103.429688 81.996094 C 103.769531 83.996094 104.375 85.804688 105.25 87.421875 L 106.632812 91.347656 C 108.039062 93.25 108.765625 94.535156 108.8125 95.199219 C 107.746094 96.816406 107.117188 98.007812 106.921875 98.769531 L 106.632812 102.195312 C 106.632812 104.621094 107.308594 107.238281 108.667969 110.042969 C 109.980469 112.898438 110.632812 114.753906 110.632812 115.609375 C 110.34375 117.703125 110.222656 119.820312 110.269531 121.960938 C 110.222656 126.339844 110.535156 129.597656 111.214844 131.738281 L 112.890625 136.589844 C 113.375 137.6875 115.558594 139.042969 119.441406 140.660156 C 119.441406 141.136719 118.445312 142.515625 116.457031 144.796875 L 117.328125 147.582031 C 117.378906 148.390625 117.667969 149.269531 118.203125 150.222656 L 118.128906 150.648438 L 118.058594 150.792969 L 118.058594 150.9375 L 117.621094 151.078125 L 117.257812 150.722656 L 111.144531 151.363281 C 111.046875 148.984375 110.78125 147.273438 110.34375 146.226562 L 106.558594 140.589844 L 106.632812 140.300781 L 105.320312 138.375 L 102.992188 122.605469 L 101.101562 113.96875 L 99.207031 105.40625 C 96.734375 99.171875 95.179688 93.441406 94.550781 88.207031 L 92.441406 72.507812 L 92.65625 71.363281 C 92.609375 69.367188 90.839844 57.6875 87.34375 36.324219 L 85.960938 27.6875 C 85.574219 25.644531 85.332031 22.695312 85.234375 18.839844 L 85.089844 16.914062 L 84.945312 16.34375 L 83.195312 1.925781 L 83.269531 2 L 86.617188 1.785156 L 86.980469 1.425781 L 91.566406 1.5 L 99.136719 1.785156 M 77.300781 37.039062 L 74.390625 28.902344 C 71.675781 20.433594 70.339844 15.34375 70.386719 13.628906 C 70.339844 12.535156 70.777344 11.277344 71.699219 9.847656 L 73.007812 7.851562 L 74.027344 6.707031 L 76.429688 3.925781 L 78.03125 3.070312 L 78.394531 2.710938 L 79.414062 2.285156 L 82.542969 1.785156 C 82.445312 2.070312 82.421875 2.496094 82.46875 3.070312 C 82.421875 3.828125 82.832031 8.253906 83.707031 16.34375 L 83.777344 16.914062 L 83.925781 17.554688 C 84.945312 27.117188 85.742188 33.898438 86.328125 37.894531 L 89.089844 55.378906 L 91.128906 68.296875 L 91.640625 71.292969 L 91.566406 71.507812 L 91.566406 72.148438 L 93.605469 89.207031 C 93.652344 93.296875 95.203125 99.007812 98.261719 106.332031 L 100.152344 114.824219 L 101.972656 123.460938 L 104.011719 136.949219 L 103.792969 136.949219 L 103.71875 137.660156 L 104.15625 139.230469 L 104.667969 140.230469 L 104.882812 140.515625 L 105.03125 140.515625 L 105.539062 140.730469 C 105.683594 141.492188 106.292969 142.492188 107.359375 143.726562 C 108.570312 145.15625 109.226562 146.25 109.324219 147.011719 L 109.90625 151.648438 L 108.8125 152.007812 L 104.882812 152.503906 L 101.390625 153.003906 C 101.148438 153.003906 100.734375 151.148438 100.152344 147.4375 L 99.570312 144.011719 L 102.484375 145.867188 L 102.992188 145.371094 C 102.992188 144.464844 101.851562 143.609375 99.570312 142.800781 L 99.28125 142.730469 L 98.769531 141.730469 L 98.261719 141.800781 L 98.1875 142.300781 C 96.34375 141.585938 95.253906 141.015625 94.914062 140.589844 C 93.796875 139.398438 92.972656 137.472656 92.441406 134.808594 L 90.546875 122.960938 C 89.675781 117.632812 89.1875 113.753906 89.089844 111.328125 L 89.019531 104.050781 L 88.945312 102.835938 L 89.308594 101.335938 C 89.308594 99.578125 88.703125 97.199219 87.492188 94.199219 L 85.527344 90.5625 C 84.699219 89.085938 84.265625 87.898438 84.214844 86.992188 L 83.777344 79.714844 L 83.777344 72.433594 C 83.050781 65.917969 81.910156 60.421875 80.359375 55.949219 C 79.195312 52.570312 78.613281 48.386719 78.613281 43.390625 L 78.613281 39.535156 L 78.683594 38.609375 L 77.375 36.753906 L 77.375 37.039062 L 77.300781 37.039062 M 31.671875 3.855469 C 30.601562 5.898438 30.070312 7.515625 30.070312 8.707031 L 29.777344 13.703125 C 29.777344 15.558594 29.851562 17.222656 29.996094 18.699219 L 29.996094 19.554688 L 30.507812 22.550781 C 30.941406 24.644531 31.960938 27.855469 33.5625 32.183594 C 35.210938 36.753906 36.207031 39.84375 36.546875 41.460938 C 39.019531 46.648438 40.28125 49.695312 40.332031 50.597656 L 36.839844 53.523438 L 30.941406 57.875 C 28.808594 59.683594 27.742188 62.207031 27.742188 65.441406 L 27.59375 73.148438 C 27.253906 77.289062 26.84375 79.691406 26.359375 80.355469 L 26.429688 81.710938 L 25.847656 89.417969 L 26.066406 99.339844 L 26.359375 109.117188 L 26.066406 110.328125 L 26.066406 110.828125 L 25.703125 116.609375 C 25.75 121.984375 25.871094 126.03125 26.066406 128.742188 L 26.867188 134.808594 L 27.8125 137.804688 L 28.542969 139.230469 C 28.785156 139.515625 29.292969 139.730469 30.070312 139.875 C 30.699219 139.96875 31.039062 140.183594 31.089844 140.515625 C 31.039062 140.753906 29.898438 141.5625 27.667969 142.941406 C 25.628906 144.179688 24.464844 145.082031 24.175781 145.65625 C 23.542969 146.417969 23.105469 147.582031 22.863281 149.152344 L 22.5 150.648438 L 22.210938 151.078125 C 21.917969 151.078125 21.722656 150.886719 21.628906 150.507812 L 18.933594 149.507812 C 19.226562 148.460938 19.324219 145.726562 19.226562 141.300781 C 19.226562 137.972656 18.984375 134.308594 18.5 130.3125 C 18.011719 126.265625 17.769531 121.820312 17.769531 116.964844 C 17.769531 112.351562 18.011719 109.164062 18.5 107.402344 L 18.5 81.855469 L 18.570312 81.570312 C 19.152344 81.378906 19.515625 79.332031 19.664062 75.433594 L 19.664062 68.9375 L 19.371094 54.378906 L 19.152344 40.820312 L 19.371094 36.824219 C 19.371094 32.589844 19.152344 29.332031 18.714844 27.046875 C 18.230469 24.761719 17.988281 22.242188 17.988281 19.484375 L 17.988281 18.554688 C 18.039062 15.511719 18.621094 13.035156 19.734375 11.132812 L 22.210938 7.066406 L 24.539062 3.425781 L 31.671875 3.855469 M 16.460938 2.996094 L 17.117188 2.996094 L 23.519531 3.355469 L 21.191406 6.421875 L 18.714844 10.777344 C 17.792969 12.203125 17.238281 13.605469 17.042969 14.988281 L 16.898438 18.554688 L 16.898438 19.554688 C 16.898438 21.980469 17.019531 23.644531 17.261719 24.550781 L 18.351562 31.472656 C 18.109375 36.992188 18.132812 40.605469 18.425781 42.320312 C 18.28125 44.128906 18.253906 46.980469 18.351562 50.882812 L 18.644531 68.9375 L 18.644531 74.859375 C 18.253906 76.335938 18.011719 77.789062 17.914062 79.214844 C 17.722656 79.644531 17.578125 80.402344 17.480469 81.5 L 17.480469 106.976562 C 16.898438 109.78125 16.628906 113.113281 16.679688 116.964844 C 16.679688 121.960938 16.921875 126.433594 17.40625 130.382812 C 17.890625 134.332031 18.132812 137.972656 18.132812 141.300781 C 18.039062 145.394531 18.085938 148.035156 18.28125 149.222656 L 17.261719 148.722656 L 13.914062 146.9375 L 14.859375 147.011719 C 12.820312 146.105469 11.21875 145.464844 10.054688 145.082031 L 7.4375 144.011719 C 7.289062 143.871094 7.21875 143.441406 7.21875 142.730469 C 7.21875 140.875 7.53125 138.996094 8.164062 137.089844 L 8.964844 134.59375 L 11.003906 136.449219 L 13.183594 138.804688 C 13.574219 138.804688 13.769531 138.613281 13.769531 138.234375 L 11.074219 135.09375 C 9.230469 132.953125 8.238281 130.929688 8.089844 129.027344 C 7.800781 125.507812 7.679688 122.390625 7.726562 119.679688 C 7.679688 116.726562 7.847656 112.636719 8.238281 107.402344 L 8.238281 106.332031 L 8.527344 104.335938 C 9.207031 102.195312 9.546875 100.386719 9.546875 98.910156 C 9.546875 96.722656 9.375 94.890625 9.039062 93.417969 C 8.503906 91.417969 8.117188 89.039062 7.871094 86.28125 L 7.144531 79.929688 L 7.070312 76.289062 C 7.265625 76.242188 7.363281 75.933594 7.363281 75.359375 C 7.363281 66.84375 7.484375 60.421875 7.726562 56.09375 C 7.195312 55.234375 7 53.738281 7.144531 51.597656 L 7.144531 51.238281 L 6.707031 54.308594 L 4.742188 44.746094 C 2.949219 37.132812 2.050781 30.304688 2.050781 24.265625 C 2.050781 18.886719 2.65625 15.34375 3.871094 13.628906 L 5.035156 12.0625 L 5.835938 10.988281 L 8.089844 8.351562 L 10.128906 5.710938 L 11.21875 4.28125 C 12.335938 3.566406 13.523438 3.140625 14.785156 2.996094 L 16.460938 2.996094 "/>
<path style=" stroke:none;fill-rule:evenodd;fill:rgb(10.588235%,18.82353%,19.215687%);fill-opacity:1;" d="M 60.199219 3.640625 L 57.144531 3.496094 L 55.90625 3.425781 L 59.253906 3.28125 L 60.199219 3.640625 "/>
<path style=" stroke:none;fill-rule:evenodd;fill:rgb(18.039216%,36.078432%,35.294119%);fill-opacity:1;" d="M 37.492188 2.140625 L 33.707031 2.070312 L 32.617188 2.070312 L 34.945312 2 L 37.492188 2.140625 "/>
<path style="fill:none;stroke-width:1;stroke-linecap:round;stroke-linejoin:round;stroke:rgb(0%,0%,0%);stroke-opacity:1;stroke-miterlimit:4;" d="M 90.950409 11.200192 L 92.751181 12.650712 C 92.949775 13.282921 93.049073 15.234282 93.049073 18.499322 C 93.049073 21.033628 93.234249 22.982252 93.599234 24.350668 L 93.950801 27.248973 C 94.283581 28.283496 94.449971 29.249597 94.449971 30.150015 L 94.398981 30.94917 L 94.449971 31.299484 L 94.849845 33.149583 L 94.849845 36.099887 L 95.051123 42.04976 C 94.949142 44.715434 95.067225 46.932267 95.400006 48.700261 L 95.950167 53.949504 C 95.917963 56.316864 95.767675 58.032857 95.499303 59.100222 C 95.233616 60.099165 95.115532 62.066947 95.15042 65.000831 C 95.016235 66.733246 95.016235 68.01682 95.15042 68.848817 C 95.783777 70.551126 96.100455 71.815542 96.100455 72.650276 L 96.100455 72.748802 C 96.366143 72.984169 96.532533 73.66564 96.599626 74.798689 C 96.698923 76.700787 96.833109 77.899519 96.999499 78.400359 L 98.199119 84.199706 C 99.567813 90.699682 100.249476 94.566825 100.249476 95.801136 C 100.249476 96.967026 100.050881 98.083654 99.651008 99.151018 L 99.750305 99.40007 C 100.450755 99.534175 101.400789 100.533118 102.600409 102.399638 C 102.866097 102.766373 103.000283 103.800895 103.000283 105.500468 C 103.000283 107.134357 102.866097 108.1333 102.600409 108.500036 C 101.000916 110.166766 99.516822 110.998763 98.150812 110.998763 L 94.849845 110.651185 L 93.599234 110.900237 L 93.301342 110.850974 L 92.450605 111.050763 C 91.049706 111.250552 89.732003 111.584445 88.500178 112.049706 C 87.166373 112.550547 86.149245 112.750335 85.448796 112.649073 L 83.750005 112.701072 L 81.450063 112.59981 L 81.149487 112.799598 L 77.649925 113.349702 L 77.349349 113.801279 L 77.099763 113.398965 L 76.69989 113.450964 L 76.351007 113.398965 L 75.900143 113.54949 L 73.54921 113.801279 L 71.050673 114.148856 C 70.017443 114.148856 69.499487 112.816019 69.499487 110.150345 L 68.850028 106.6992 C 67.416925 106.299623 66.499095 105.883624 66.099221 105.451205 C 65.26727 104.517945 64.701007 103.267213 64.400431 101.699009 L 63.200811 94.249352 C 62.167581 88.348743 61.649624 83.433393 61.649624 79.500566 L 61.649624 77.699731 L 61.799912 76.199947 C 61.633522 75.09974 61.349049 74.067955 60.949175 73.099116 L 59.650258 70.551126 C 59.016901 69.415341 58.63313 68.51766 58.498945 67.849873 C 58.30035 66.782509 58.201053 65.033673 58.201053 62.60063 C 57.967569 61.467581 57.967569 59.716009 58.201053 57.348649 C 57.532808 52.115827 56.883349 48.615419 56.249993 46.850163 C 55.383153 44.616908 54.86788 42.799651 54.698806 41.40113 L 54.599509 36.499465 L 54.599509 35.70031 L 54.151329 33.748949 C 53.582382 32.583058 52.900718 30.598855 52.100972 27.799076 L 50.450488 22.50057 C 49.449463 19.000162 48.950292 16.783328 48.950292 15.850069 C 48.950292 14.350285 49.484351 12.965448 50.549785 11.701032 L 50.649083 11.649032 M 71.85042 7.650521 L 72.100005 9.700408 C 72.301283 12.467345 72.617962 15.116598 73.05004 17.650904 L 73.149337 18.050481 L 73.200327 18.400796 L 75.001099 30.100752 L 76.098738 41.800708 C 76.133626 44.332277 76.249026 46.250796 76.450305 47.550791 L 77.250051 53.350138 L 77.250051 53.549927 L 77.550627 55.298762 L 78.65095 63.350521 C 79.684179 68.183766 80.282647 71.799121 80.449038 74.199323 C 80.551019 75.767527 81.10118 79.284356 82.099522 84.749809 C 82.966361 89.815685 83.401123 93.515882 83.401123 95.850399 L 83.401123 95.948925 L 83.699015 97.651234 L 84.300167 103.100266 L 85.199211 107.501092 L 86.100938 109.649505 C 86.500812 110.484239 86.715509 111.149289 86.750397 111.650129 L 87.649441 111.600866 L 88.500178 111.250552 L 89.399222 110.998763 L 90.950409 110.749711 L 93.199361 110.150345 L 93.499937 110.199608 L 94.101088 109.750768 L 95.000132 109.901293 L 94.398981 107.200041 L 93.89981 103.748896 L 94.200386 97.549972 L 94.600259 91.449574 C 94.600259 89.782843 94.417767 88.132533 94.050098 86.498645 L 92.850478 81.098876 C 91.717951 75.332371 91.132901 71.916805 91.100697 70.849441 C 90.767916 70.417021 90.58274 69.349657 90.550535 67.650084 L 90.74913 62.299578 L 90.099672 53.448664 L 88.900052 44.600487 C 88.765866 43.598806 88.717559 42.099023 88.749764 40.101135 L 87.950017 36.499465 C 87.684329 35.467679 87.415958 33.417792 87.15027 30.349804 C 86.81749 28.882862 86.600109 26.600344 86.500812 23.499514 L 85.349499 18.099744 L 85.301192 17.650904 L 85.048923 16.599961 C 84.450455 13.898708 84.165981 11.649032 84.200869 9.850933 L 84.200869 9.399356 L 84.098888 8.849253 L 84.098888 8.79999 M 82.451088 111.951181 L 82.150512 112.049706 L 81.900927 111.800655 L 77.700915 112.249495 C 77.633822 110.582765 77.45133 109.384032 77.150754 108.650561 L 74.550235 104.701313 L 74.601226 104.498788 L 73.699498 103.149529 L 72.100005 92.100939 L 70.801088 86.049804 L 69.499487 80.050669 C 67.800696 75.682686 66.732578 71.667753 66.3005 68.000399 L 64.851295 57.001072 L 64.998899 56.19918 C 64.966694 54.800659 63.750972 46.617532 61.349049 31.649799 L 60.399014 25.598664 C 60.133326 24.167301 59.966936 22.100993 59.899843 19.39974 L 59.800546 18.050481 L 59.701248 17.650904 L 58.498945 7.549258 L 58.549935 7.601258 L 60.849878 7.450732 L 61.099463 7.198943 M 5.101097 13.148816 L 5.050106 13.250079 L 3.49892 15.198703 C 2.532783 16.36733 2.049714 19.033004 2.049714 23.201199 C 2.01751 27.667708 2.615978 32.517374 3.850486 37.750197 C 5.050106 42.983019 5.651258 46.467006 5.651258 48.199421 L 5.398989 51.450777 L 5.651258 51.699828 L 5.651258 55.75034 L 5.699565 57.750964 C 5.50097 57.882331 5.398989 58.484434 5.398989 59.549062 C 6.601292 68.717449 7.199761 74.032376 7.199761 75.499318 C 7.199761 76.733629 6.966278 78.066466 6.499311 79.500566 C 6.067233 80.866245 5.849853 81.783084 5.849853 82.251082 C 5.78276 82.617817 5.900843 82.834027 6.198735 82.899711 C 6.032345 84.500758 5.916946 86.884538 5.849853 90.051052 C 6.051131 90.850207 6.182633 93.099883 6.249726 96.80008 C 6.217521 97.265341 6.483209 98.201338 7.049473 99.599859 C 6.416116 99.933752 5.94915 102.150586 5.651258 106.25036 C 5.61637 107.249303 5.766658 107.832249 6.099438 107.999195 L 6.799887 108.198984 L 6.799887 108.250984 C 9.09983 108.948876 11.066992 109.832873 12.69869 110.900237 C 13.50112 111.466761 15.199911 111.984022 17.800429 112.449284 L 23.350349 113.04865 L 35.349232 111.899181 L 39.549243 112.350758 C 40.416083 112.350758 41.282922 110.599186 42.149762 107.098778 L 42.050465 106.7512 L 40.748863 99.599859 L 41.599601 98.299863 C 43.432577 96.865764 44.334305 95.716294 44.299416 94.848719 C 44.200119 93.316093 44.484593 90.984312 45.150154 87.85064 L 45.300442 80.849824 C 45.300442 79.883722 45.517822 77.899519 45.9499 74.899952 L 46.848944 72.748802 L 47.600384 69.549445 L 49.449463 63.750099 L 49.500453 63.501047 L 49.849336 59.850114 C 49.951317 56.48381 50.166014 54.299819 50.498795 53.300875 C 52.433752 47.066372 53.399889 43.434596 53.399889 42.400074 C 53.399889 41.33271 53.134201 40.081977 52.600142 38.650614 C 51.934581 36.849779 51.467615 34.865576 51.199244 32.700742 L 50.3002 27.799076 L 49.750039 24.648983 L 49.801029 24.399931 C 49.801029 22.834463 49.465565 20.382262 48.800004 17.048801 L 48.700707 11.200192 L 49.001283 10.800614 L 48.34914 9.451356 L 44.549002 8.849253 M 29.249151 9.350093 L 28.951259 11.249454 L 28.548702 13.750919 C 28.084419 15.14944 27.850936 16.849012 27.850936 18.849636 L 27.899243 19.249214 L 28.049531 19.799317 C 29.751005 28.299917 30.599059 33.467055 30.599059 35.300732 L 30.550752 37.700934 C 30.483659 39.066613 30.365576 39.800084 30.199186 39.901347 L 30.150879 46.198797 L 30.150879 54.699396 L 29.9496 59.948639 L 30.048898 60.298954 L 27.700648 73.550694 L 26.29975 86.649171 C 25.43291 93.149146 25.049139 97.500709 25.15112 99.701121 L 25.15112 107.900669 L 24.799554 112.150969 L 33.599451 111.250552 L 33.400856 109.449716 L 33.400856 107.200041 C 33.400856 104.233315 33.717534 101.833113 34.35089 99.999436 C 34.949359 98.165759 36.132876 96.115872 37.89876 93.849775 C 39.267454 92.016098 39.933015 89.799264 39.90081 87.199274 C 39.833717 83.499077 39.849819 81.298664 39.949117 80.600772 L 39.949117 79.749618 L 40.748863 73.00059 C 41.282922 68.799554 41.698898 66.016196 41.999474 64.650517 C 41.867972 63.282101 42.149762 60.799794 42.850211 57.20086 L 43.55066 52.750772 C 43.749255 51.417935 43.966636 50.533938 44.200119 50.098782 L 44.75028 46.650374 C 45.117949 43.949121 45.300442 41.732287 45.300442 39.999873 C 45.300442 35.599047 44.232324 30.650855 42.098771 25.149823 C 41.132634 22.782464 40.367776 20.516367 39.798829 18.348796 L 39.750522 18.001219 C 39.082277 15.332808 38.749497 12.83408 38.749497 10.499563 L 38.749497 9.998722 M 18.200302 8.600201 L 16.600809 11.150929 L 14.899335 13.99997 C 14.134476 15.332808 13.734603 17.067959 13.699715 19.199951 L 13.699715 19.851317 C 13.699715 21.78352 13.866105 23.548777 14.198885 25.149823 C 14.499461 26.75087 14.649749 29.033388 14.649749 32.000113 L 14.499461 34.799892 L 14.649749 44.299435 L 14.851028 54.499607 L 14.851028 59.050959 C 14.749047 61.782317 14.499461 63.216417 14.099588 63.350521 L 14.051281 63.55031 L 14.051281 81.44919 C 13.715817 82.683501 13.549427 84.916756 13.549427 88.148954 C 13.549427 91.550836 13.715817 94.665351 14.051281 97.500709 C 14.384062 100.300488 14.550452 102.867636 14.550452 105.199416 C 14.617545 108.300247 14.550452 110.216029 14.349173 110.9495 L 16.200936 111.650129 C 16.265345 111.915602 16.399531 112.049706 16.600809 112.049706 L 16.799404 111.748655 " transform="matrix(1.455539,0,0,1.427289,-1.952189,-8.849192)"/>
</g>
</svg>
