<?xml version="1.0" encoding="UTF-8"?>
<svg xmlns="http://www.w3.org/2000/svg" xmlns:xlink="http://www.w3.org/1999/xlink" width="225px" height="231px" viewBox="0 0 225 231" version="1.1">
<g id="surface1">
<path style=" stroke:none;fill-rule:evenodd;fill:rgb(0%,0%,0%);fill-opacity:0.701961;" d="M 187.886719 56.4375 L 183.382812 61.613281 L 185.851562 63.457031 L 190.5 67.003906 L 193.695312 64.875 C 193.113281 62.984375 192.4375 61.472656 191.660156 60.339844 C 190.5 58.777344 189.242188 57.476562 187.886719 56.4375 M 188.539062 55.730469 L 192.460938 59.699219 L 193.914062 63.597656 L 194.347656 64.804688 L 194.492188 64.804688 L 194.566406 65.160156 L 194.492188 65.230469 L 194.710938 65.9375 L 195.074219 66.292969 L 195.074219 71.257812 L 195.292969 71.613281 L 195.074219 71.753906 L 195.074219 91.535156 L 195.21875 91.535156 L 195.292969 91.746094 L 195.148438 91.820312 L 195.292969 93.238281 C 195.292969 96.167969 194.589844 97.890625 193.1875 98.414062 C 191.734375 98.886719 190.28125 98.71875 188.828125 97.917969 L 182.800781 98.339844 L 182.074219 98.910156 L 180.914062 99.546875 L 179.605469 99.261719 L 176.917969 99.476562 L 172.5625 101.035156 L 172.050781 101.25 C 171.132812 101.769531 170.1875 102.050781 169.21875 102.097656 L 168.855469 105.21875 L 169.511719 105.644531 L 169.511719 106.355469 L 169.074219 106.566406 L 168.785156 106.425781 L 168.785156 106.496094 L 168.566406 108.339844 L 167.332031 113.871094 L 166.894531 115.570312 L 166.894531 115.640625 L 166.96875 116.066406 L 166.75 116.210938 C 166.121094 118.855469 165.808594 120.886719 165.808594 122.304688 L 165.808594 123.085938 L 165.515625 126.632812 L 165.589844 126.632812 L 165.660156 126.984375 L 165.371094 127.410156 L 164.574219 130.957031 L 164.425781 131.523438 L 164.574219 131.59375 L 164.5 131.878906 L 164.28125 132.019531 C 163.554688 134.714844 162.804688 136.320312 162.03125 136.839844 L 161.230469 138.1875 L 161.667969 138.472656 C 161.667969 138.804688 161.472656 138.96875 161.085938 138.96875 L 160.796875 138.828125 L 160.289062 139.464844 L 159.925781 142.585938 L 159.632812 142.726562 L 159.777344 145.988281 L 159.851562 146.058594 L 159.777344 146.34375 L 159.851562 150.101562 L 159.925781 152.015625 L 160.140625 152.15625 L 160.214844 152.371094 L 159.925781 152.9375 L 159.925781 154.355469 L 160.214844 154.566406 L 159.925781 155.132812 L 159.996094 159.53125 L 160.070312 161.445312 L 160.070312 162.296875 L 159.996094 168.960938 L 160.214844 169.242188 L 160.070312 169.742188 L 160.578125 170.023438 L 160.070312 170.519531 L 160.289062 173.144531 C 160.820312 173.332031 161.109375 173.804688 161.160156 174.5625 L 161.085938 176.6875 L 161.8125 180.304688 L 161.8125 180.941406 L 161.667969 181.226562 L 161.375 181.367188 L 161.230469 181.15625 L 161.011719 181.226562 L 161.011719 181.4375 L 160.503906 181.511719 L 160.289062 181.511719 C 149.101562 185.90625 139.660156 188.105469 131.964844 188.105469 C 117.050781 188.105469 107.296875 187.441406 102.695312 186.117188 L 96.667969 184.0625 C 90.710938 182.265625 87.058594 180.941406 85.703125 180.09375 L 85.628906 180.09375 L 85.046875 180.019531 L 85.046875 174.5625 L 85.265625 173.851562 L 85.410156 173.78125 L 84.902344 169.457031 L 83.8125 163.5 L 83.667969 163.429688 L 83.8125 163.289062 L 83.230469 160.804688 C 82.746094 158.867188 82.359375 156.574219 82.070312 153.929688 L 81.996094 153.859375 L 81.996094 153.007812 C 81.753906 150.359375 81.632812 147.359375 81.632812 144.003906 L 81.632812 143.363281 L 81.707031 142.089844 L 80.542969 136.914062 L 80.542969 136.839844 L 80.183594 136.769531 L 80.035156 136.417969 L 80.398438 136.132812 L 78.730469 132.375 C 77.859375 131.617188 77.375 130.816406 77.277344 129.964844 C 75.777344 127.410156 74.710938 124.101562 74.082031 120.039062 L 73.644531 119.824219 L 74.007812 119.398438 L 73.789062 117.769531 L 73.136719 111.457031 L 73.066406 111.03125 L 72.773438 110.679688 L 72.992188 110.535156 C 72.605469 108.550781 71.925781 106.707031 70.957031 105.007812 L 69.289062 98.625 L 68.34375 95.433594 C 67.375 93.96875 66.890625 92.929688 66.890625 92.316406 L 66.964844 91.890625 L 67.472656 91.820312 L 67.691406 91.890625 L 69.144531 90.046875 L 71.539062 88.132812 L 73.355469 87.917969 L 74.082031 87.988281 C 74.226562 87.847656 74.421875 87.753906 74.664062 87.707031 L 74.664062 87.492188 L 75.027344 87.421875 L 75.316406 87.636719 L 75.386719 87.636719 L 77.710938 87.917969 L 82.214844 87.421875 C 82.410156 87.328125 82.433594 87.140625 82.289062 86.855469 L 83.59375 84.304688 L 84.03125 81.46875 C 84.078125 80.804688 84.199219 80.285156 84.394531 79.90625 L 83.8125 79.695312 L 83.886719 79.269531 C 85.484375 78.703125 86.355469 77.757812 86.5 76.433594 L 86.863281 74.09375 L 86.574219 73.808594 C 86.574219 73.148438 87.589844 72.179688 89.625 70.902344 L 93.035156 68.703125 C 93.90625 67.285156 94.34375 65.253906 94.34375 62.605469 L 94.417969 60.410156 L 94.34375 60.195312 L 94.417969 60.195312 C 94.320312 58.730469 93.980469 58 93.398438 58 C 92.722656 58 91.753906 58.871094 90.496094 60.621094 C 89.285156 62.371094 88.023438 63.246094 86.71875 63.246094 C 85.894531 63.246094 85.484375 63.078125 85.484375 62.75 L 85.484375 62.675781 C 85.484375 61.875 85.871094 60.976562 86.644531 59.984375 C 87.421875 58.992188 87.808594 58.234375 87.808594 57.714844 C 87.808594 57.148438 87.058594 56.675781 85.554688 56.296875 L 84.394531 56.011719 L 83.304688 56.15625 L 73.71875 56.367188 L 71.464844 56.507812 C 70.886719 56.839844 70.472656 57.054688 70.230469 57.148438 L 69.507812 57.429688 L 65.875 62.535156 C 65.535156 63.292969 64.617188 64.402344 63.113281 65.867188 C 61.664062 67.382812 60.742188 68.539062 60.355469 69.34375 L 58.828125 71.683594 L 59.121094 72.179688 L 58.613281 72.320312 L 58.46875 72.179688 L 52.003906 80.96875 L 49.824219 83.734375 L 49.824219 83.878906 C 49.824219 84.207031 48.664062 85.390625 46.339844 87.421875 L 45.828125 87.210938 L 45.683594 87.210938 L 41.910156 85.296875 L 35.953125 83.878906 L 35.734375 83.878906 L 35.152344 83.664062 L 35.515625 83.382812 L 35.953125 82.957031 L 49.027344 70.902344 L 48.953125 70.617188 L 48.808594 70.265625 L 48.953125 70.195312 C 48.953125 67.6875 49.269531 65.679688 49.898438 64.167969 L 50.695312 62.464844 L 50.695312 62.324219 L 50.769531 62.324219 L 52.367188 58.140625 C 52.996094 56.34375 53.792969 54.664062 54.761719 53.105469 L 54.761719 52.539062 L 55.199219 52.46875 C 56.457031 50.625 58.007812 48.921875 59.847656 47.363281 L 61.226562 46.085938 L 61.226562 46.015625 L 61.300781 46.015625 L 66.308594 41.902344 L 66.019531 41.546875 L 66.457031 41.476562 L 66.601562 41.621094 L 66.746094 41.476562 C 70.085938 38.5 73.234375 36.941406 76.1875 36.796875 C 76.234375 35.851562 77.953125 34.71875 81.34375 33.394531 L 82.796875 32.472656 L 84.683594 32.191406 L 88.75 31.054688 L 88.824219 31.054688 L 92.601562 29.921875 L 93.328125 29.566406 L 93.472656 29.425781 L 93.253906 29.140625 C 93.398438 29 93.570312 28.929688 93.761719 28.929688 L 93.980469 29 L 93.980469 28.929688 C 94.367188 28.503906 94.902344 28.265625 95.578125 28.21875 L 95.722656 28.21875 L 96.957031 27.582031 L 96.886719 27.511719 C 96.980469 27.367188 97.152344 27.296875 97.394531 27.296875 L 97.464844 27.296875 C 99.0625 26.542969 100.710938 26.019531 102.40625 25.738281 L 102.40625 25.667969 L 102.769531 25.597656 L 102.984375 25.667969 L 103.710938 25.523438 L 103.929688 25.808594 L 104.074219 25.738281 C 104.558594 25.738281 105.429688 26.28125 106.691406 27.367188 C 107.417969 27.652344 107.925781 27.984375 108.214844 28.359375 L 114.535156 31.835938 L 114.75 31.765625 C 115.621094 31.765625 116.324219 32.023438 116.859375 32.542969 L 130.800781 33.253906 L 138.71875 33.183594 C 139.152344 32.851562 140.023438 32.566406 141.332031 32.332031 L 141.621094 32.261719 L 142.347656 31.90625 L 145.542969 30.417969 L 149.464844 28.433594 L 150.484375 27.652344 C 150.433594 27.320312 150.628906 27.15625 151.0625 27.15625 L 151.574219 27.367188 L 151.644531 27.296875 L 151.863281 27.511719 L 158.90625 31.410156 C 161.183594 32.6875 163.363281 34.339844 165.445312 36.371094 C 167.089844 37.980469 169.558594 40.957031 172.851562 45.304688 L 174.8125 47.363281 L 184.835938 52.324219 L 184.90625 52.46875 L 184.6875 52.894531 L 188.03125 55.304688 L 188.464844 55.515625 L 188.539062 55.660156 L 188.539062 55.730469 M 156.367188 31.695312 L 152.953125 34.53125 C 154.066406 35.003906 155.492188 36.371094 157.238281 38.640625 L 159.269531 41.265625 L 164.136719 36.445312 L 162.828125 35.238281 L 161.160156 33.960938 L 160.140625 33.324219 L 156.367188 31.695312 M 159.777344 41.832031 L 161.230469 43.464844 L 167.914062 49.277344 L 171.035156 45.519531 L 170.816406 45.234375 L 170.382812 44.597656 L 169.292969 43.25 L 168.421875 42.046875 L 164.71875 37.082031 L 164.574219 36.871094 L 160.140625 41.40625 L 159.777344 41.832031 M 156.4375 38.996094 C 154.550781 37.765625 153.242188 36.703125 152.515625 35.804688 C 151.789062 36.988281 150.023438 38.808594 147.214844 41.265625 L 151.425781 43.605469 L 154.40625 46.226562 L 158.761719 41.761719 L 156.4375 38.996094 M 160.359375 43.816406 L 159.199219 42.328125 L 155.492188 46.15625 L 154.914062 46.796875 L 156.875 48.921875 L 163.773438 53.816406 L 167.257812 50.058594 L 160.359375 43.816406 M 154.1875 47.644531 L 150.628906 51.476562 L 149.683594 53.105469 L 157.164062 59.488281 L 162.902344 54.59375 C 159.851562 52.375 157.550781 50.648438 156.003906 49.417969 L 154.1875 47.644531 M 157.816406 60.054688 L 163.046875 64.378906 L 163.121094 64.449219 L 168.132812 59.699219 L 168.929688 58.917969 L 163.628906 55.089844 L 157.816406 60.054688 M 175.03125 48.496094 L 174.523438 48.214844 C 173.261719 47.644531 172.246094 46.9375 171.472656 46.085938 L 168.640625 49.632812 L 168.492188 49.84375 L 171.761719 52.894531 L 174.011719 54.59375 L 178.660156 50.765625 L 175.03125 48.496094 M 181.277344 51.828125 L 181.203125 52.113281 L 181.058594 52.183594 L 179.679688 51.332031 L 175.175781 55.445312 L 182.65625 61.046875 L 187.304688 56.011719 L 182.074219 52.539062 L 182.148438 52.183594 L 182.4375 52.183594 L 180.839844 51.402344 L 181.277344 51.828125 M 168.855469 60.265625 L 164.136719 65.371094 C 165.878906 66.933594 168.347656 68.894531 171.542969 71.257812 L 177.933594 66.011719 L 169.875 59.558594 L 168.855469 60.265625 M 170.527344 59.0625 L 178.371094 65.585938 L 179.894531 64.023438 L 181.855469 61.898438 L 174.304688 56.15625 L 170.527344 59.0625 M 170.601562 53.246094 L 167.839844 50.625 L 164.5 54.3125 L 169.582031 58.28125 L 173.140625 55.234375 L 170.601562 53.246094 M 179.097656 66.222656 L 182.65625 69.34375 L 184.617188 71.1875 L 189.484375 67.710938 L 182.582031 62.464844 L 180.476562 64.804688 L 179.097656 66.222656 M 170.816406 71.753906 L 163.484375 65.9375 L 160.359375 68.351562 L 160.433594 68.492188 L 159.125 69.769531 L 163.046875 72.675781 L 166.023438 75.296875 L 168.929688 73.101562 L 170.816406 71.753906 M 169.4375 73.808594 L 166.679688 75.867188 L 169.945312 79.269531 L 171.90625 80.898438 L 172.5625 80.402344 C 174.207031 79.128906 175.78125 77.921875 177.28125 76.789062 L 171.542969 72.25 L 169.4375 73.808594 M 179.097656 76.644531 L 183.746094 79.976562 L 189.410156 75.722656 L 185.125 72.035156 C 182.800781 73.691406 180.742188 75.203125 178.953125 76.574219 L 179.097656 76.644531 M 178.226562 76.007812 L 184.398438 71.398438 L 178.660156 66.578125 L 172.199219 71.753906 L 178.226562 76.007812 M 161.738281 64.519531 L 157.164062 60.550781 L 152.589844 64.308594 L 154.332031 66.152344 L 158.179688 69.058594 L 162.394531 65.089844 L 161.738281 64.519531 M 157.382812 69.769531 L 153.535156 66.789062 L 151.71875 64.875 L 144.527344 69.839844 L 146.925781 72.25 L 150.484375 74.945312 L 157.382812 69.839844 L 157.382812 69.769531 M 158.253906 70.40625 L 151.425781 75.582031 L 156.730469 79.480469 L 158.542969 80.757812 L 165.082031 76.007812 L 158.253906 70.40625 M 155.347656 79.695312 L 150.554688 76.21875 L 144.308594 80.757812 L 151.5 85.933594 L 157.746094 81.394531 L 155.347656 79.695312 M 155.058594 95.082031 L 159.34375 98.199219 L 161.738281 96.355469 L 163.191406 95.292969 L 158.90625 92.101562 L 158.472656 92.242188 C 158.179688 92.339844 157.480469 93.070312 156.367188 94.441406 L 156.148438 94.511719 L 155.132812 95.007812 L 155.058594 95.082031 M 158.035156 91.464844 L 151.863281 86.785156 L 147.796875 89.691406 L 154.113281 94.371094 L 158.035156 91.464844 M 162.972656 89.195312 L 159.707031 91.746094 L 163.917969 94.726562 L 169.945312 90.1875 L 165.660156 87.066406 L 162.972656 89.195312 M 158.542969 81.890625 L 152.296875 86.5 L 158.617188 90.96875 L 164.71875 86.359375 L 158.542969 81.890625 M 165.589844 85.722656 L 171.035156 81.609375 L 168.929688 79.695312 L 165.734375 76.574219 L 159.34375 81.324219 L 165.589844 85.722656 M 176.992188 86.074219 L 171.542969 90.117188 L 175.464844 93.308594 L 177.425781 92.527344 L 178.878906 91.820312 L 182.21875 91.464844 L 183.019531 90.683594 L 181.785156 89.550781 C 179.460938 87.941406 177.984375 86.855469 177.355469 86.289062 L 176.992188 86.074219 M 172.632812 81.46875 L 176.992188 84.941406 L 182.730469 80.6875 L 178.007812 77.285156 L 173.140625 81.042969 L 172.632812 81.46875 M 171.253906 94.511719 L 171.179688 95.433594 L 171.398438 95.292969 L 174.085938 94.015625 L 174.667969 93.734375 L 170.671875 90.753906 L 164.71875 95.292969 L 168.929688 98.199219 L 169.582031 96.355469 L 170.164062 95.929688 L 170.816406 93.09375 L 171.253906 94.511719 M 171.761719 82.175781 L 166.460938 86.429688 L 170.816406 89.550781 L 176.265625 85.507812 L 171.761719 82.175781 M 193.914062 65.65625 L 191.226562 67.570312 L 194.203125 70.265625 L 194.347656 67.5 L 193.914062 65.65625 M 190.355469 76.007812 L 194.203125 79.054688 L 194.203125 73.03125 L 190.355469 76.007812 M 194.203125 71.257812 L 190.28125 68.277344 L 185.34375 71.824219 L 189.773438 75.511719 L 194.203125 72.25 L 194.203125 71.257812 M 194.203125 81.890625 L 194.203125 79.90625 L 194.058594 79.90625 L 189.992188 76.289062 L 184.472656 80.472656 L 190.5 85.152344 L 194.203125 81.890625 M 194.203125 82.957031 L 191.152344 85.722656 L 194.347656 88.558594 L 194.203125 85.792969 L 194.203125 82.957031 M 188.101562 87.210938 L 189.628906 85.863281 L 183.453125 81.183594 C 181.761719 82.460938 179.847656 83.902344 177.71875 85.507812 L 183.746094 90.046875 C 184.808594 89.195312 186.261719 88.25 188.101562 87.210938 M 185.488281 91.394531 L 190.207031 91.324219 L 194.492188 91.535156 L 194.347656 89.40625 L 194.203125 89.550781 L 190.355469 86.429688 L 188.828125 87.777344 L 184.6875 90.824219 L 185.488281 91.394531 M 168.710938 99.191406 L 168.421875 98.980469 L 163.917969 95.859375 L 162.613281 96.78125 L 159.996094 98.695312 L 168.058594 104.582031 L 168.347656 102.027344 L 168.277344 102.027344 L 168.277344 100.328125 L 168.710938 99.191406 M 167.914062 105.855469 L 158.980469 99.476562 C 156.898438 100.988281 154.890625 102.523438 152.953125 104.085938 L 161.957031 110.253906 L 167.914062 106 L 167.914062 105.855469 M 154.042969 95.789062 L 152.226562 96.78125 L 152.082031 96.78125 L 150.484375 97.84375 L 147.359375 100.113281 L 152.296875 103.589844 L 158.328125 98.980469 L 154.042969 95.789062 M 156.875 108.125 L 152.152344 104.722656 L 147.433594 108.480469 L 146.125 109.613281 L 147.503906 110.535156 L 154.695312 115.570312 L 161.085938 110.960938 L 156.875 108.125 M 166.605469 114.367188 L 162.175781 111.671875 L 155.640625 116.28125 L 160.433594 119.753906 L 166.097656 115.785156 L 166.605469 114.367188 M 164.933594 120.464844 C 164.933594 119.140625 165.054688 118.101562 165.296875 117.34375 L 161.160156 120.320312 L 164.933594 123.226562 L 165.082031 121.953125 L 164.933594 120.464844 M 154.550781 117.058594 L 149.613281 120.390625 L 148.738281 121.03125 L 153.824219 124.433594 L 159.414062 120.464844 L 154.550781 117.058594 M 164.789062 124.148438 L 160.214844 121.03125 L 154.695312 125 L 161.230469 129.398438 L 164.355469 127.128906 L 164.425781 125.355469 L 164.789062 124.148438 M 164.0625 128.476562 L 162.175781 130.035156 L 163.628906 130.957031 L 163.847656 129.253906 L 164.0625 128.476562 M 154.113281 125.425781 L 148.957031 129.183594 L 155.277344 133.792969 L 160.722656 129.824219 L 154.113281 125.425781 M 163.046875 111.03125 L 166.75 113.515625 L 167.695312 107.417969 L 163.046875 111.03125 M 163.484375 131.738281 L 161.59375 130.460938 L 156.21875 134.5 L 160.503906 137.621094 L 161.738281 135.777344 L 161.8125 135.847656 L 163.335938 133.082031 L 163.484375 131.738281 M 155.347656 135.070312 L 149.972656 139.039062 L 155.855469 143.222656 L 159.269531 140.175781 L 159.996094 138.402344 L 155.347656 135.070312 M 159.054688 145.492188 L 159.054688 142.089844 L 157.019531 144.003906 L 159.054688 145.492188 M 156.074219 144.78125 L 150.917969 148.539062 L 158.035156 152.9375 L 158.980469 152.296875 L 158.980469 150.3125 L 159.054688 146.554688 L 156.074219 144.78125 M 158.472656 154.285156 L 153.460938 157.757812 L 154.1875 158.113281 C 156.511719 159.199219 158.15625 160.144531 159.125 160.949219 L 159.054688 154.636719 L 158.472656 154.285156 M 153.097656 165.273438 C 154.9375 163.808594 156.632812 162.648438 158.179688 161.800781 L 152.589844 158.324219 L 147.214844 161.726562 L 152.953125 165.414062 L 153.097656 165.273438 M 159.054688 162.367188 L 153.96875 166.054688 L 159.125 169.171875 L 159.125 162.367188 L 159.054688 162.367188 M 152.515625 29.070312 L 152.808594 29.210938 L 152.445312 29 L 152.515625 29.070312 M 144.09375 39.632812 L 146.34375 40.839844 L 148.957031 37.578125 L 149.539062 36.941406 L 149.25 37.011719 C 147.796875 38.097656 146.101562 38.949219 144.164062 39.5625 L 144.09375 39.632812 M 143.003906 39.917969 L 134.941406 41.050781 L 140.824219 45.449219 L 144.457031 42.613281 L 146.054688 41.125 L 143.003906 39.988281 L 143.003906 39.917969 M 130.21875 41.265625 L 124.773438 41.335938 L 122.160156 41.265625 L 121.503906 41.265625 L 124.699219 43.25 L 127.824219 45.304688 L 133.269531 41.125 L 130.21875 41.265625 M 130.148438 47.078125 L 134.503906 50.410156 L 139.808594 46.300781 C 137.046875 44.3125 135.085938 42.753906 133.925781 41.621094 L 128.621094 45.875 L 130.148438 47.078125 M 127.96875 46.371094 L 121.140625 51.546875 L 127.171875 56.582031 L 133.632812 51.121094 L 128.914062 47.148438 L 127.96875 46.371094 M 123.613281 43.746094 C 122.015625 42.894531 120.949219 42.1875 120.417969 41.621094 L 115.550781 45.378906 L 114.824219 45.945312 L 119.835938 50.339844 L 120.417969 50.90625 L 127.171875 45.804688 L 123.613281 43.746094 M 124.773438 59.984375 L 121.289062 63.457031 L 129.058594 69.414062 L 133.417969 66.222656 L 135.957031 64.378906 L 127.460938 58 L 127.242188 57.855469 L 124.773438 59.984375 M 126.515625 57.21875 L 120.488281 52.042969 L 113.371094 57.429688 L 114.679688 58.351562 L 120.5625 62.960938 L 124.121094 59.417969 L 126.515625 57.21875 M 134.289062 51.617188 L 127.96875 57.21875 L 136.757812 63.742188 L 143.511719 58.496094 L 137.191406 53.816406 L 134.289062 51.617188 M 144.238281 57.714844 L 146.054688 55.375 L 145.90625 55.234375 L 148.085938 52.824219 L 147.070312 51.972656 L 140.535156 46.796875 L 135.230469 50.90625 L 138.28125 53.246094 L 144.238281 57.714844 M 144.164062 59.203125 L 137.554688 64.308594 L 138.574219 64.945312 C 140.121094 65.988281 141.960938 67.5 144.09375 69.484375 C 146.320312 67.78125 148.644531 66.058594 151.0625 64.308594 C 149.320312 62.652344 147.601562 61.285156 145.90625 60.195312 L 144.308594 59.0625 L 144.164062 59.203125 M 148.667969 52.253906 L 153.605469 47.078125 L 150.699219 44.3125 C 149.492188 43.226562 148.207031 42.304688 146.851562 41.546875 L 141.476562 46.015625 L 148.523438 52.113281 L 148.667969 52.253906 M 146.707031 59.558594 L 151.933594 63.671875 L 156.511719 60.054688 L 149.175781 53.742188 L 145.035156 58.28125 L 146.707031 59.558594 M 109.59375 38.785156 L 108.214844 40.203125 L 111.484375 43.039062 L 113.660156 44.953125 C 116.035156 43.015625 117.777344 41.761719 118.890625 41.195312 C 115.597656 40.910156 112.5 40.105469 109.59375 38.785156 M 108.578125 29.851562 L 109.742188 30.488281 L 108.214844 29.496094 L 108.578125 29.851562 M 95.359375 29.707031 L 100.082031 33.324219 L 100.953125 32.613281 C 99.644531 31.292969 98.484375 29.898438 97.464844 28.433594 L 96.59375 28.929688 L 95.359375 29.707031 M 94.269531 30.273438 L 92.457031 31.054688 L 92.527344 31.125 C 92.527344 31.410156 91.027344 32.710938 88.023438 35.027344 L 93.253906 38.996094 L 98.992188 34.246094 L 94.269531 30.273438 M 96.230469 37.578125 L 94.054688 39.632812 L 99.789062 45.09375 L 106.328125 40.203125 L 102.769531 36.941406 L 99.789062 34.8125 L 96.230469 37.578125 M 107.34375 39.492188 L 108.867188 38.429688 L 103.277344 34.742188 L 101.605469 33.253906 L 100.808594 33.960938 L 103.132812 36.019531 L 107.34375 39.492188 M 107.125 50.339844 L 112.789062 45.660156 L 107.199219 40.980469 L 100.300781 46.015625 L 100.808594 46.582031 L 105.019531 51.261719 L 105.457031 51.617188 L 107.125 50.339844 M 98.484375 46.085938 L 96.886719 44.667969 L 96.886719 44.242188 L 97.320312 44.171875 L 97.828125 44.242188 L 93.328125 40.273438 L 90.710938 42.398438 L 87.226562 45.09375 L 93.109375 49.703125 L 97.613281 46.726562 L 98.484375 46.085938 M 94.125 50.484375 L 98.191406 53.53125 L 100.660156 55.375 L 104.945312 52.042969 L 103.566406 50.835938 L 99.210938 46.726562 L 98.339844 47.292969 L 94.125 50.484375 M 95.140625 60.621094 L 95.214844 61.96875 L 95.359375 61.898438 L 100.589844 65.65625 L 107.054688 60.90625 L 101.097656 56.652344 C 98.046875 59.109375 96.0625 60.433594 95.140625 60.621094 M 97.539062 54.242188 L 93.183594 51.191406 C 92.648438 51.523438 92.09375 51.902344 91.511719 52.324219 L 87.007812 55.234375 L 87.953125 55.871094 L 87.953125 56.082031 C 88.4375 56.460938 88.679688 56.980469 88.679688 57.644531 L 88.679688 58 C 89.164062 58.046875 89.695312 58.375 90.277344 58.992188 C 91.34375 57.714844 92.429688 57.078125 93.542969 57.078125 C 94.269531 57.078125 94.78125 57.925781 95.070312 59.628906 L 100.007812 55.871094 L 97.539062 54.242188 M 107.632812 60.480469 L 109.742188 58.917969 L 111.699219 57.5 L 105.671875 52.75 L 101.75 56.15625 L 107.632812 60.480469 M 106.253906 52.253906 L 112.574219 56.863281 L 119.761719 51.402344 L 118.964844 50.695312 L 113.878906 46.582031 L 107.78125 50.90625 L 106.253906 52.253906 M 112.574219 58.070312 L 110.828125 59.34375 L 108.503906 61.117188 L 116.421875 66.789062 L 120.199219 63.316406 L 113.589844 58.707031 L 112.574219 58.070312 M 117.21875 67.355469 L 121.433594 70.40625 L 124.484375 72.675781 L 128.40625 69.839844 L 120.925781 63.8125 L 117.21875 67.355469 M 115.839844 67.355469 L 107.925781 61.542969 L 101.535156 66.363281 L 109.304688 72.25 L 115.332031 67.710938 L 115.839844 67.355469 M 117.003906 78.0625 L 123.683594 73.242188 L 121.289062 71.398438 L 116.566406 67.925781 L 115.914062 68.421875 L 110.03125 72.816406 L 116.929688 78.0625 L 117.003906 78.0625 M 98.410156 68.773438 L 94.488281 71.824219 L 102.113281 77.496094 L 108.503906 72.816406 L 100.660156 67.003906 L 98.410156 68.773438 M 95.214844 62.890625 C 95.214844 65.726562 95.046875 67.476562 94.707031 68.136719 L 92.601562 70.40625 L 93.472656 71.042969 L 99.71875 66.292969 L 95.214844 62.890625 M 102.042969 78.773438 L 97.394531 82.246094 L 103.421875 87.988281 L 103.496094 88.0625 L 108.941406 84.019531 L 107.925781 83.167969 L 102.042969 78.773438 M 102.695312 88.558594 L 96.304688 83.027344 L 92.164062 86.074219 L 98.992188 91.394531 L 102.769531 88.628906 L 102.695312 88.558594 M 103.710938 95.007812 L 106.398438 97.417969 L 110.539062 94.441406 L 103.496094 89.195312 L 99.71875 91.890625 L 103.710938 95.007812 M 98.917969 92.457031 L 93.328125 96.570312 L 100.515625 101.746094 L 105.890625 97.773438 C 105.019531 97.019531 103.882812 96.121094 102.476562 95.082031 L 98.917969 92.457031 M 112.9375 81.042969 L 116.277344 78.628906 L 109.230469 73.382812 L 102.914062 78.0625 L 109.886719 83.308594 L 112.9375 81.042969 M 112.0625 94.582031 L 117.875 98.695312 C 118.164062 98.507812 118.335938 98.390625 118.382812 98.339844 L 123.394531 94.65625 L 117.65625 90.472656 L 114.386719 92.882812 L 112.0625 94.582031 M 118.601562 89.761719 L 124.339844 94.015625 L 130.800781 89.265625 L 129.785156 88.484375 L 124.917969 84.941406 L 120.851562 88.0625 C 120.027344 88.675781 119.277344 89.242188 118.601562 89.761719 M 117.800781 89.195312 C 119.835938 87.683594 122.015625 86.121094 124.339844 84.515625 L 117.148438 79.269531 L 110.757812 83.878906 L 117.800781 89.195312 M 116.859375 89.832031 L 109.742188 84.585938 L 104.222656 88.628906 L 111.191406 93.945312 L 116.859375 89.832031 M 101.242188 78.132812 L 93.835938 72.25 L 89.984375 75.226562 L 96.667969 81.539062 L 101.242188 78.132812 M 143.4375 70.617188 L 136.902344 75.296875 L 143.367188 80.121094 L 149.613281 75.511719 L 143.4375 70.617188 M 134.140625 66.789062 L 129.859375 69.980469 L 131.964844 71.613281 L 136.613281 75.085938 L 143.003906 70.265625 L 137.335938 65.515625 L 136.683594 64.945312 L 134.140625 66.789062 M 125.355469 73.242188 L 132.328125 78.417969 L 136.03125 75.511719 L 131.09375 72.035156 L 129.203125 70.476562 L 125.355469 73.242188 M 131.746094 79.199219 C 129.277344 81.136719 127.800781 82.460938 127.316406 83.167969 L 125.574219 84.445312 L 131.457031 88.769531 L 138.0625 83.949219 L 131.746094 79.199219 M 126.152344 83.167969 L 131.457031 79.054688 L 124.554688 73.878906 L 117.800781 78.773438 L 124.992188 84.019531 L 126.152344 83.167969 M 125.210938 94.65625 L 128.113281 96.851562 L 132.035156 99.757812 L 138.789062 95.007812 L 131.746094 89.902344 L 125.210938 94.65625 M 150.121094 85.507812 L 143.875 81.113281 L 139.953125 83.949219 L 147.070312 89.195312 L 151.136719 86.21875 L 150.121094 85.507812 M 142.929688 80.402344 L 136.320312 75.722656 L 132.542969 78.558594 L 139.007812 83.308594 L 142.929688 80.402344 M 144.308594 91.109375 C 144.84375 90.730469 145.421875 90.328125 146.054688 89.902344 L 139.007812 84.65625 L 132.398438 89.480469 L 139.445312 94.511719 L 144.308594 91.109375 M 140.242188 95.082031 L 146.632812 99.617188 C 147.554688 98.957031 148.789062 98.082031 150.335938 96.996094 C 151.113281 96.425781 151.886719 95.929688 152.660156 95.503906 L 153.097656 95.152344 L 146.777344 90.402344 L 145.109375 91.605469 C 143.414062 92.789062 141.792969 93.945312 140.242188 95.082031 M 89.839844 31.90625 L 85.554688 32.96875 C 85.507812 32.96875 85.433594 33.015625 85.339844 33.113281 L 87.082031 34.316406 L 90.785156 31.695312 L 89.839844 31.90625 M 85.992188 35.167969 L 84.464844 33.535156 L 80.617188 35.097656 L 78.585938 36.585938 L 80.90625 38.855469 L 85.992188 35.167969 M 92.238281 39.421875 L 86.9375 35.875 L 81.851562 39.707031 L 86.574219 44.457031 L 92.527344 39.632812 L 92.238281 39.421875 M 67.398438 42.257812 L 71.683594 45.519531 L 80.253906 39.351562 L 77.859375 37.152344 L 77.203125 37.578125 L 77.058594 37.578125 L 71.320312 39.136719 L 67.546875 42.117188 L 67.398438 42.257812 M 71.976562 46.9375 L 66.09375 51.191406 L 69.507812 55.660156 L 69.867188 55.585938 L 70.230469 55.304688 L 70.449219 55.515625 L 71.613281 55.445312 L 76.625 51.757812 L 77.566406 51.191406 L 74.734375 49.136719 L 71.976562 46.9375 M 78.4375 50.695312 L 85.992188 44.953125 L 81.199219 40.203125 L 72.773438 46.371094 L 75.535156 48.566406 L 78.4375 50.695312 M 70.957031 46.085938 L 66.964844 42.613281 L 62.316406 46.441406 L 65.367188 50.128906 L 68.269531 48 C 69.09375 47.386719 69.988281 46.75 70.957031 46.085938 M 68.78125 56.011719 L 65.292969 51.757812 L 58.902344 56.367188 L 59.265625 56.863281 L 62.316406 60.550781 L 62.386719 60.480469 C 64.035156 59.109375 66.042969 57.925781 68.417969 56.933594 C 68.464844 56.554688 68.585938 56.25 68.78125 56.011719 M 73.863281 55.304688 L 83.667969 55.160156 L 83.8125 55.160156 L 78.367188 51.6875 L 77.203125 52.539062 L 73.210938 55.375 L 73.863281 55.304688 M 85.265625 54.949219 L 85.773438 55.019531 C 87.03125 53.886719 89.140625 52.324219 92.09375 50.339844 L 86.574219 45.519531 L 79.09375 51.121094 L 84.902344 54.949219 L 85.265625 54.949219 M 88.605469 58.847656 L 88.242188 59.839844 C 87.664062 60.410156 87.082031 61.234375 86.5 62.324219 C 87.46875 62.179688 88.507812 61.355469 89.625 59.839844 L 89.113281 59.34375 L 88.605469 58.847656 M 61.371094 47.222656 L 56.070312 52.824219 L 55.925781 53.035156 L 58.105469 55.445312 L 64.496094 50.765625 L 61.589844 47.078125 C 61.492188 47.078125 61.421875 47.125 61.371094 47.222656 M 53.238281 58.917969 L 53.09375 59.34375 L 57.230469 56.15625 L 55.34375 53.957031 C 54.570312 55.1875 53.867188 56.839844 53.238281 58.917969 M 62.242188 61.828125 L 55.488281 66.933594 L 58.175781 70.617188 L 59.703125 68.492188 C 60.425781 67.261719 61.785156 65.5625 63.769531 63.386719 L 62.242188 61.828125 M 64.347656 62.675781 L 65.148438 61.757812 C 65.632812 60.714844 66.164062 59.792969 66.746094 58.992188 L 63.042969 61.332031 L 64.347656 62.675781 M 50.550781 65.015625 C 50.210938 65.960938 49.992188 67.453125 49.898438 69.484375 L 53.890625 66.648438 L 51.277344 63.527344 L 50.550781 65.015625 M 54.761719 66.011719 L 61.589844 61.117188 L 57.957031 57.003906 L 52.4375 60.976562 L 51.710938 62.605469 L 54.691406 65.9375 L 54.761719 66.011719 M 55.78125 74.023438 L 57.742188 71.257812 L 54.617188 67.570312 C 52.292969 69.222656 50.695312 70.21875 49.824219 70.546875 L 49.824219 71.257812 L 48.152344 73.527344 L 51.203125 76.433594 L 55.78125 74.023438 M 54.835938 75.296875 L 51.859375 77.070312 L 52.800781 78.132812 L 54.835938 75.296875 M 43.289062 77.636719 L 42.78125 78.207031 C 43.554688 78.253906 44.425781 78.605469 45.394531 79.269531 C 45.734375 78.9375 47.136719 78.230469 49.605469 77.140625 L 50.261719 76.859375 L 47.355469 74.304688 L 43.289062 77.636719 M 49.097656 82.601562 L 50.839844 80.96875 L 52.292969 78.914062 L 50.988281 77.566406 L 46.121094 79.765625 L 47.355469 80.828125 L 49.097656 82.601562 M 92.238281 70.761719 L 88.171875 73.527344 L 89.1875 74.449219 L 92.964844 71.46875 L 92.238281 70.761719 M 87.226562 77.285156 C 86.886719 78.984375 86.210938 79.929688 85.191406 80.121094 L 85.265625 80.6875 L 91.367188 85.4375 L 92.601562 84.445312 C 93.617188 83.6875 94.609375 82.980469 95.578125 82.316406 L 93.90625 80.6875 L 89.042969 75.9375 L 87.226562 77.285156 M 87.445312 74.945312 L 87.371094 76.007812 L 88.386719 75.15625 L 87.515625 73.953125 L 87.371094 74.09375 L 87.445312 74.945312 M 71.757812 89.550781 L 71.613281 89.691406 L 70.304688 91.039062 L 68.632812 92.953125 L 69.070312 93.945312 L 73.9375 97.703125 L 75.386719 96.921875 L 79.457031 94.085938 C 77.082031 91.914062 75.582031 90.257812 74.953125 89.125 L 72.554688 89.195312 L 71.828125 89.550781 L 71.757812 89.550781 M 76.625 88.984375 L 80.542969 93.308594 L 81.34375 92.667969 L 85.121094 90.046875 L 83.230469 87.566406 C 83.28125 87.941406 83.136719 88.226562 82.796875 88.414062 L 76.984375 88.984375 L 76.625 88.984375 M 84.320312 85.152344 L 83.304688 87.066406 L 83.378906 87.066406 C 83.957031 87.066406 84.878906 87.824219 86.136719 89.335938 C 87.394531 88.34375 88.871094 87.234375 90.566406 86.003906 L 85.265625 81.46875 L 84.320312 85.152344 M 81.199219 94.015625 L 82.722656 95.789062 L 87.734375 99.6875 L 91.875 96.640625 C 89.453125 94.609375 87.394531 92.667969 85.703125 90.824219 L 81.199219 94.015625 M 90.929688 94.582031 L 92.671875 96.074219 L 98.191406 91.960938 L 92.527344 87.636719 L 91.367188 86.714844 L 90.132812 87.566406 L 86.71875 90.046875 L 87.300781 90.824219 L 90.929688 94.582031 M 93.542969 104.296875 L 95.503906 105.785156 L 99.5 102.453125 L 99.71875 102.3125 L 99.355469 102.097656 L 92.527344 97.136719 L 88.386719 100.183594 L 93.542969 104.296875 M 81.996094 103.871094 L 86.863281 100.328125 L 80.109375 94.726562 L 74.734375 98.269531 L 79.601562 102.171875 L 81.996094 103.871094 M 89.261719 110.394531 L 81.851562 104.9375 L 76.332031 108.976562 L 83.304688 113.941406 L 86.644531 112.097656 L 89.261719 110.394531 M 91.292969 110.960938 L 96.378906 114.648438 L 97.757812 113.726562 L 101.535156 110.960938 L 95.796875 106.921875 L 90.929688 110.679688 L 91.292969 110.960938 M 89.113281 111.882812 L 84.394531 114.789062 L 89.984375 119.046875 L 95.722656 115.144531 L 90.277344 111.175781 L 89.113281 111.882812 M 89.984375 109.96875 L 94.925781 106.28125 L 92.746094 104.722656 L 87.515625 100.824219 L 82.652344 104.367188 L 89.984375 109.96875 M 71.757812 104.296875 L 73.210938 107.347656 L 73.28125 107.488281 L 73.644531 107.417969 C 73.886719 107.417969 74.589844 107.796875 75.75 108.550781 L 81.199219 104.511719 L 73.863281 98.839844 L 70.957031 100.398438 L 71.757812 104.296875 M 74.152344 110.535156 C 74.105469 111.765625 74.273438 113.84375 74.664062 116.777344 L 74.664062 117.699219 L 75.535156 118.265625 L 79.820312 115.855469 L 81.925781 114.71875 L 75.171875 109.757812 L 74.152344 110.535156 M 74.664062 109.332031 L 73.71875 108.550781 L 74.082031 109.757812 L 74.664062 109.332031 M 72.992188 98.128906 L 69.652344 95.363281 L 70.742188 99.40625 L 72.992188 98.128906 M 74.664062 118.621094 L 74.664062 118.832031 L 74.808594 118.761719 L 74.664062 118.621094 M 78.367188 120.25 L 83.015625 123.867188 L 87.082031 121.171875 L 89.042969 119.753906 L 83.085938 115.570312 L 76.769531 119.117188 L 78.367188 120.25 M 75.898438 119.542969 L 74.808594 119.96875 C 75.097656 122.613281 75.945312 125.378906 77.347656 128.261719 L 82.289062 124.363281 C 81.269531 123.371094 79.671875 122.140625 77.496094 120.675781 L 75.898438 119.542969 M 78.367188 130.035156 L 80.617188 132.160156 L 82.796875 134.289062 L 87.152344 131.027344 L 88.679688 129.964844 L 83.085938 125.214844 L 77.710938 128.828125 L 78.222656 129.824219 L 78.367188 130.035156 M 83.886719 124.789062 L 89.332031 129.46875 C 91.703125 127.765625 93.421875 126.65625 94.488281 126.136719 C 94.730469 125.804688 95.238281 125.378906 96.015625 124.859375 L 94.054688 123.226562 L 89.914062 120.390625 L 83.8125 124.71875 L 83.886719 124.789062 M 88.386719 139.039062 L 92.382812 136.558594 L 94.632812 135 L 91.582031 132.375 L 89.40625 130.601562 L 87.808594 131.664062 L 83.523438 135.140625 L 87.152344 138.117188 L 88.386719 139.039062 M 80.835938 133.652344 L 79.964844 133.15625 L 80.980469 135.636719 L 81.925781 134.925781 L 80.835938 133.652344 M 81.34375 136.558594 L 82.214844 140.246094 L 84.175781 141.664062 L 86.789062 139.960938 L 87.515625 139.535156 L 85.554688 138.117188 L 82.722656 135.707031 L 81.34375 136.558594 M 83.230469 142.371094 L 82.433594 141.664062 L 82.578125 142.9375 L 83.230469 142.371094 M 82.722656 144.074219 L 83.230469 148.894531 L 83.378906 150.808594 C 84.636719 149.628906 86.160156 148.421875 87.953125 147.195312 L 84.105469 143.152344 L 82.722656 144.074219 M 89.625 147.546875 L 91.945312 150.3125 L 96.59375 154.566406 L 102.550781 150.597656 L 94.632812 144.570312 L 92.457031 145.351562 L 89.625 147.546875 M 91.65625 144.78125 L 93.691406 143.859375 L 88.460938 140.246094 L 85.046875 142.515625 L 88.824219 146.625 L 91.65625 144.78125 M 89.261719 139.675781 L 94.5625 143.507812 L 98.773438 141.875 L 100.953125 140.527344 L 100.152344 139.960938 L 95.214844 135.496094 L 92.890625 137.339844 L 89.261719 139.675781 M 83.449219 153.433594 L 90.277344 159.316406 L 93.980469 156.695312 L 95.867188 155.132812 L 91.222656 150.878906 L 88.824219 148.113281 L 83.449219 151.800781 L 83.449219 153.433594 M 84.394531 162.722656 C 85.265625 162.011719 86.71875 161.207031 88.75 160.308594 L 89.476562 159.8125 C 87.394531 157.546875 85.386719 155.820312 83.449219 154.636719 L 83.378906 157.757812 L 84.394531 162.722656 M 91.003906 160.027344 L 97.25 165.769531 L 103.058594 161.515625 L 102.1875 160.734375 L 96.742188 155.914062 L 93.542969 158.183594 L 91.003906 160.027344 M 85.191406 163.5 L 87.953125 165.984375 L 91.945312 169.742188 L 96.59375 166.265625 L 90.203125 160.59375 C 87.878906 162.152344 86.210938 163.121094 85.191406 163.5 M 92.746094 132.089844 L 95.578125 134.429688 L 102.621094 130.320312 L 97.03125 125.640625 C 96.835938 125.78125 96.667969 125.898438 96.523438 125.992188 L 96.523438 126.136719 C 94.054688 127.601562 91.921875 128.925781 90.132812 130.105469 L 92.746094 132.089844 M 147.796875 101.601562 L 146.5625 100.679688 L 145.398438 101.390625 C 144.335938 102.050781 142.46875 103.328125 139.808594 105.21875 L 145.253906 108.976562 L 146.632812 107.984375 L 151.425781 104.226562 L 147.796875 101.601562 M 138.9375 105.855469 L 133.34375 109.96875 L 138.644531 113.871094 C 139.855469 112.925781 141.71875 111.53125 144.238281 109.6875 L 138.9375 105.855469 M 144.890625 100.679688 L 145.761719 100.113281 L 139.515625 95.578125 L 132.761719 100.257812 L 138.9375 104.652344 L 144.890625 100.679688 M 131.164062 100.328125 L 126.589844 96.996094 L 124.265625 95.292969 L 119.035156 99.050781 L 118.746094 99.335938 L 123.03125 102.3125 L 125.644531 104.226562 L 131.164062 100.328125 M 125.644531 105.359375 L 120.996094 108.695312 L 122.449219 109.757812 L 127.316406 113.300781 L 131.746094 109.898438 L 125.644531 105.359375 M 132.542969 109.332031 L 138.0625 105.289062 L 131.964844 100.894531 L 126.371094 104.792969 L 132.542969 109.332031 M 137.847656 114.4375 L 132.542969 110.535156 L 128.042969 113.871094 L 133.417969 117.769531 L 137.847656 114.4375 M 131.457031 120.390625 L 131.238281 120.390625 L 127.171875 122.804688 L 134.867188 128.191406 L 137.191406 126.984375 L 141.257812 124.71875 L 133.777344 119.117188 L 131.457031 120.390625 M 132.761719 118.335938 L 127.386719 114.367188 L 125.0625 116.066406 L 121.433594 118.761719 L 126.371094 122.234375 L 131.382812 119.613281 L 132.761719 118.335938 M 126.589844 113.796875 L 121.289062 109.96875 L 120.269531 109.261719 L 119.617188 109.6875 L 114.460938 113.65625 L 118.457031 116.707031 L 120.632812 118.195312 L 124.699219 115.214844 L 126.589844 113.796875 M 124.191406 124.644531 L 120.417969 127.484375 L 127.023438 133.296875 C 129.542969 131.453125 131.816406 129.964844 133.851562 128.828125 L 126.445312 123.226562 L 124.191406 124.644531 M 135.667969 128.757812 L 141.839844 133.15625 L 147.289062 129.183594 L 144.746094 127.269531 L 142.058594 125.285156 L 137.917969 127.625 C 137.191406 127.957031 136.441406 128.332031 135.667969 128.757812 M 148.957031 119.683594 L 153.605469 116.351562 L 145.179688 110.324219 L 139.734375 114.648438 L 142.855469 116.917969 L 147.867188 120.464844 L 148.957031 119.683594 M 139.007812 115.289062 L 134.503906 118.621094 L 142.132812 124.148438 L 147.070312 120.960938 L 141.695312 117.273438 L 139.007812 115.289062 M 148.160156 128.617188 L 153.242188 124.859375 L 152.660156 124.503906 L 147.941406 121.527344 L 142.855469 124.71875 L 148.160156 128.617188 M 118.019531 99.832031 L 113.445312 103.234375 L 120.199219 108.125 L 124.847656 104.792969 L 122.378906 102.949219 L 118.019531 99.832031 M 112.574219 102.667969 L 117.148438 99.261719 L 111.339844 95.082031 L 107.125 98.058594 L 112.210938 102.453125 L 112.574219 102.667969 M 110.828125 102.523438 L 106.90625 98.839844 L 106.542969 98.484375 L 101.171875 102.3125 L 106.761719 106.992188 L 111.847656 103.234375 L 110.828125 102.523438 M 113.589844 112.949219 L 118.890625 109.046875 L 119.472656 108.621094 L 112.71875 103.800781 L 107.5625 107.699219 L 109.449219 109.402344 L 113.589844 112.949219 M 106.109375 107.488281 L 100.515625 102.878906 L 96.378906 106.496094 L 102.042969 110.609375 L 106.109375 107.488281 M 105.164062 112.804688 L 109.449219 116.136719 L 112.789062 113.515625 L 108.578125 109.757812 L 106.90625 108.195312 L 102.839844 111.175781 L 105.164062 112.804688 M 104.222656 120.535156 L 110.175781 125.425781 L 114.535156 122.449219 L 114.023438 121.882812 L 109.523438 117.34375 L 107.488281 118.761719 L 104.222656 120.535156 M 106.90625 118.125 L 108.796875 116.632812 L 102.40625 111.53125 L 98.484375 114.292969 L 97.175781 115.214844 L 103.566406 120.109375 L 106.90625 118.125 M 96.8125 124.292969 L 100.445312 121.953125 L 102.769531 120.535156 L 96.523438 115.710938 L 90.859375 119.683594 L 94.925781 122.804688 L 96.8125 124.292969 M 97.757812 125.070312 L 103.496094 129.824219 L 109.378906 125.921875 L 103.347656 121.03125 L 100.371094 122.875 L 97.757812 125.070312 M 117.65625 117.128906 L 113.660156 114.222656 L 110.25 116.847656 C 112.234375 118.5 113.734375 119.992188 114.75 121.3125 L 115.257812 121.953125 L 119.980469 118.691406 L 117.65625 117.128906 M 112.574219 128.828125 L 110.175781 126.632812 L 104.222656 130.460938 L 104.730469 130.886719 L 109.523438 134.359375 L 114.535156 130.671875 L 112.574219 128.828125 M 113.589844 128.402344 L 115.332031 130.035156 L 119.035156 127.269531 L 115.257812 123.300781 L 115.042969 123.441406 L 110.976562 126.066406 L 113.589844 128.402344 M 123.101562 124.222656 L 125.644531 122.660156 L 120.777344 119.257812 L 115.984375 122.804688 L 119.691406 126.773438 L 123.101562 124.222656 M 116.058594 130.671875 L 122.59375 136.417969 L 125.355469 134.429688 L 126.371094 133.722656 L 119.761719 127.980469 L 116.058594 130.671875 M 109.523438 135.496094 L 104.875 138.828125 L 102.332031 140.597656 L 109.378906 145.988281 L 116.566406 140.742188 L 114.535156 139.324219 L 109.523438 135.496094 M 110.25 134.925781 L 115.332031 138.757812 L 117.292969 140.246094 L 121.796875 136.984375 L 115.1875 131.3125 L 110.25 134.925781 M 109.59375 147.195312 L 105.671875 149.675781 L 103.785156 150.878906 L 110.464844 156.128906 L 115.769531 152.226562 L 110.03125 147.546875 L 109.59375 147.195312 M 110.902344 147.121094 L 116.640625 151.589844 C 118.964844 149.886719 121.457031 148.066406 124.121094 146.128906 L 117.65625 141.519531 L 110.320312 146.695312 L 110.902344 147.121094 M 118.308594 141.023438 L 124.699219 145.703125 L 126.515625 144.355469 L 128.984375 142.585938 L 122.667969 137.691406 L 118.308594 141.023438 M 103.421875 130.957031 C 100.757812 132.1875 98.847656 133.15625 97.683594 133.863281 L 96.085938 134.855469 L 101.242188 139.675781 L 101.679688 140.03125 L 103.785156 138.472656 L 108.722656 134.925781 L 103.785156 131.242188 L 103.421875 130.957031 M 95.503906 144.214844 L 103.058594 150.242188 L 104.730469 149.25 L 108.722656 146.414062 L 101.605469 141.023438 C 99.574219 142.253906 97.539062 143.316406 95.503906 144.214844 M 103.785156 160.949219 L 109.667969 156.695312 L 109.160156 156.199219 L 103.277344 151.234375 L 97.464844 155.347656 L 102.914062 160.097656 L 103.785156 160.949219 M 110.320312 157.191406 L 104.367188 161.515625 L 109.742188 165.910156 L 113.300781 163.644531 L 115.914062 162.011719 L 110.320312 157.191406 M 116.496094 152.722656 L 111.121094 156.625 L 116.929688 161.375 L 122.667969 157.402344 L 116.496094 152.722656 M 138.355469 147.335938 L 138.0625 147.617188 L 144.457031 152.015625 L 148.375 149.25 L 149.539062 148.398438 L 147.359375 147.050781 L 142.058594 144.710938 L 138.355469 147.335938 M 138.71875 142.9375 L 134.433594 139.675781 L 130.4375 142.585938 L 135.085938 145.703125 L 137.121094 147.050781 L 141.042969 144.214844 L 138.71875 142.9375 M 150.046875 148.042969 L 154.914062 144.074219 L 148.8125 139.890625 L 143.148438 144.003906 L 147.433594 146.484375 L 150.046875 148.042969 M 149.03125 138.332031 L 154.40625 134.429688 L 148.085938 129.824219 L 142.640625 133.722656 L 149.03125 138.332031 M 147.941406 139.179688 L 141.550781 134.5 L 135.160156 139.179688 L 142.132812 143.363281 L 147.941406 139.179688 M 132.980469 138.683594 L 127.097656 134.289062 L 126.371094 134.785156 L 123.394531 137.125 C 125.574219 138.921875 127.679688 140.550781 129.710938 142.015625 L 133.632812 139.179688 L 132.980469 138.683594 M 134.359375 138.683594 L 140.75 133.933594 L 137.917969 131.949219 L 134.578125 129.398438 C 132.542969 130.53125 130.269531 132.019531 127.75 133.863281 L 133.777344 138.257812 L 134.359375 138.683594 M 125.425781 146.199219 L 131.964844 150.808594 L 136.320312 147.617188 L 134.433594 146.34375 L 129.710938 143.082031 L 125.425781 146.199219 M 137.046875 154.425781 L 138.863281 155.773438 L 143.730469 152.511719 L 137.191406 148.1875 L 132.691406 151.375 L 137.046875 154.425781 M 136.101562 154.851562 L 131.964844 151.871094 L 124.339844 157.261719 L 129.710938 161.230469 C 130.875 160.429688 131.9375 159.789062 132.90625 159.316406 L 138.0625 156.269531 L 136.101562 154.851562 M 129.785156 162.4375 C 128.089844 163.523438 125.984375 164.988281 123.464844 166.832031 L 125.5 168.535156 L 129.785156 171.726562 C 131.429688 170.589844 133.609375 169.125 136.320312 167.328125 L 130.21875 162.722656 L 129.785156 162.4375 M 123.394531 157.898438 L 117.65625 162.011719 L 122.738281 166.195312 L 125.425781 164.210938 L 128.839844 161.800781 L 123.394531 157.898438 M 130.945312 162.082031 L 137.191406 166.761719 L 137.847656 166.265625 L 145.253906 161.585938 L 138.9375 156.90625 L 133.34375 160.167969 L 130.65625 161.871094 L 130.945312 162.082031 M 131.238281 151.304688 L 124.847656 146.695312 L 117.292969 152.15625 L 123.613281 156.765625 L 131.238281 151.304688 M 152.226562 156.976562 L 157.238281 153.503906 L 150.335938 148.964844 L 148.523438 150.171875 L 145.253906 152.582031 L 147.578125 154.210938 L 152.226562 156.976562 M 139.660156 156.410156 L 146.199219 161.019531 L 148.957031 159.175781 L 151.425781 157.546875 L 144.527344 153.078125 L 139.660156 156.410156 M 146.269531 162.296875 L 138.574219 166.976562 L 137.992188 167.402344 L 140.96875 169.667969 L 144.238281 171.726562 L 146.707031 170.308594 L 151.863281 166.265625 L 147.070312 162.933594 L 146.269531 162.296875 M 140.535156 170.589844 L 137.191406 168.039062 L 130.875 172.503906 L 135.957031 175.765625 L 137.554688 174.988281 L 143.074219 172.292969 L 140.535156 170.589844 M 150.847656 176.40625 C 148.957031 175.742188 146.707031 174.585938 144.09375 172.929688 L 139.082031 175.484375 L 136.976562 176.40625 C 138.765625 177.398438 140.507812 178.296875 142.203125 179.097656 L 148.160156 178.601562 L 150.847656 176.40625 M 150.121094 178.175781 L 152.808594 176.972656 L 152.007812 176.832031 L 150.121094 178.175781 M 145.253906 172.292969 C 147.480469 173.472656 149.804688 174.515625 152.226562 175.414062 L 154.332031 173.921875 L 158.398438 170.09375 C 157.09375 169.527344 155.226562 168.464844 152.808594 166.902344 L 147.503906 170.804688 L 145.253906 172.292969 M 128.914062 172.292969 L 126.515625 170.519531 L 122.59375 167.472656 L 117.65625 171.085938 L 117.148438 171.511719 L 123.03125 175.839844 L 127.171875 173.425781 L 128.914062 172.292969 M 128.257812 179.597656 L 130.800781 179.597656 C 131.382812 178.652344 132.714844 177.585938 134.796875 176.40625 L 130.003906 173.144531 L 124.410156 176.832031 L 128.257812 179.597656 M 131.816406 179.523438 L 139.734375 179.242188 L 135.667969 176.972656 L 134.140625 177.753906 L 131.816406 179.523438 M 118.308594 169.457031 L 121.867188 166.902344 L 116.710938 162.722656 L 110.902344 166.832031 L 116.347656 170.945312 L 118.308594 169.457031 M 115.1875 171.796875 L 113.660156 170.589844 L 109.886719 167.542969 C 107.851562 168.960938 105.988281 170.261719 104.292969 171.441406 L 107.054688 173.5 L 109.304688 175.910156 L 111.121094 174.632812 L 115.1875 171.796875 M 110.175781 176.902344 L 113.734375 179.738281 L 117.21875 179.738281 L 121.722656 176.617188 L 115.984375 172.363281 L 110.03125 176.6875 L 110.175781 176.902344 M 109.230469 177.257812 L 106.472656 179.027344 L 112.425781 179.738281 L 112.5 179.738281 L 109.304688 177.328125 L 109.230469 177.257812 M 119.328125 179.738281 L 126.445312 179.667969 L 123.175781 177.609375 L 119.328125 179.738281 M 103.710938 171.867188 L 98.265625 175.765625 L 99.574219 177.183594 L 105.238281 178.816406 L 108.578125 176.335938 L 106.328125 173.996094 L 103.710938 171.867188 M 103.203125 170.519531 C 105.335938 168.960938 107.199219 167.660156 108.796875 166.621094 L 103.640625 162.082031 L 97.828125 166.335938 L 98.191406 166.621094 L 103.132812 170.589844 L 103.203125 170.519531 M 97.175781 166.832031 L 92.457031 170.238281 L 92.601562 170.449219 L 96.667969 174.207031 L 97.539062 174.988281 L 102.621094 171.015625 L 97.539062 167.1875 L 97.175781 166.832031 M 96.667969 175.839844 L 91.730469 170.804688 L 87.664062 173.78125 C 89.210938 173.875 92.117188 174.65625 96.378906 176.121094 L 96.667969 175.839844 M 86.9375 173.5 L 91.148438 170.308594 C 88.144531 167.707031 85.96875 165.558594 84.613281 163.855469 L 86.210938 173.710938 L 87.152344 173.710938 L 86.9375 173.5 M 159.125 170.875 L 153.386719 175.765625 L 154.550781 176.191406 L 159.414062 173.214844 L 159.125 171.230469 L 159.125 170.875 "/>
</g>
</svg>
