<?xml version="1.0" encoding="UTF-8"?>
<svg xmlns="http://www.w3.org/2000/svg" xmlns:xlink="http://www.w3.org/1999/xlink" width="225px" height="231px" viewBox="0 0 225 231" version="1.1">
<g id="surface1">
<path style=" stroke:none;fill-rule:evenodd;fill:rgb(20%,20%,40.000001%);fill-opacity:1;" d="M 87.445312 61.828125 L 87.515625 61.96875 L 87.808594 62.039062 L 87.152344 62.253906 L 87.445312 61.828125 "/>
<path style=" stroke:none;fill-rule:evenodd;fill:rgb(0%,0%,0%);fill-opacity:1;" d="M 186.289062 55.445312 L 186.214844 55.160156 L 185.777344 55.089844 L 184.328125 54.242188 C 180.113281 52.160156 177.402344 50.742188 176.191406 49.984375 L 174.085938 48.710938 L 174.011719 48.640625 L 180.476562 56.367188 L 182.003906 58.992188 L 186.289062 55.445312 M 185.199219 53.957031 C 189.796875 56.652344 192.679688 60.195312 193.839844 64.59375 C 194.46875 67.097656 194.855469 70.855469 195.003906 75.867188 L 195.003906 76.503906 L 194.929688 76.644531 L 195.148438 80.121094 L 195.148438 84.375 L 194.710938 94.511719 L 194.566406 95.082031 L 194.640625 100.46875 L 196.382812 106.425781 C 196.964844 108.21875 197.253906 110.015625 197.253906 111.8125 C 197.253906 113.5625 197.085938 114.863281 196.746094 115.710938 C 198.148438 115.761719 198.851562 116.730469 198.851562 118.621094 C 198.851562 118.996094 198.199219 119.519531 196.890625 120.179688 C 197.328125 120.839844 197.6875 122.519531 197.980469 125.214844 L 198.851562 125.921875 L 198.851562 126.347656 L 198.125 126.5625 C 198.464844 130.4375 198.707031 135.945312 198.851562 143.082031 L 199.070312 143.363281 L 198.996094 143.648438 L 198.851562 143.789062 L 198.851562 147.050781 C 199.140625 147.144531 199.289062 147.359375 199.289062 147.691406 L 198.851562 148.113281 L 198.851562 150.382812 L 198.777344 150.808594 L 198.777344 150.953125 C 200.617188 151.1875 201.417969 151.824219 201.175781 152.867188 C 201.175781 153.289062 200.472656 153.859375 199.070312 154.566406 L 199.289062 154.710938 L 198.050781 154.992188 L 197.6875 155.132812 L 197.472656 155.132812 L 191.296875 156.410156 C 188.730469 156.976562 187.085938 157.546875 186.359375 158.113281 C 184.230469 158.300781 182.632812 158.84375 181.566406 159.742188 C 180.355469 160.734375 178.394531 161.230469 175.683594 161.230469 L 175.03125 161.230469 L 173.722656 161.515625 C 173.09375 161.515625 172.632812 161.253906 172.34375 160.734375 L 171.980469 159.957031 L 173.070312 158.820312 C 172.050781 156.457031 170.453125 149.203125 168.277344 137.054688 L 168.132812 136.914062 L 168.203125 136.628906 L 166.96875 129.398438 L 166.96875 128.546875 C 166.195312 128.261719 165.636719 127.8125 165.296875 127.199219 L 165.082031 126.136719 L 164.933594 126.984375 L 164.5 126.84375 L 164.789062 134.714844 L 164.789062 143.4375 L 166.023438 160.878906 C 166.121094 162.671875 166.582031 165.582031 167.40625 169.597656 C 167.695312 173.378906 168.277344 176.285156 169.148438 178.320312 L 174.011719 189.453125 L 174.011719 189.664062 C 175.707031 191.414062 176.554688 196.328125 176.554688 204.410156 L 176.554688 209.375 L 175.902344 212.917969 L 175.972656 213.132812 L 175.464844 213.628906 L 175.03125 214.054688 L 174.886719 213.984375 L 173.214844 214.691406 L 172.269531 215.1875 L 159.199219 214.976562 L 148.304688 216.039062 L 141.1875 215.046875 C 137.992188 214.339844 134.867188 213.984375 131.816406 213.984375 C 129.253906 213.984375 125.789062 214.433594 121.433594 215.332031 L 111.917969 216.605469 L 107.851562 215.96875 L 96.59375 215.257812 L 89.625 215.613281 L 83.742188 215.1875 C 81.851562 214.574219 79.914062 214.125 77.929688 213.839844 L 69.359375 213.699219 L 68.269531 213.203125 L 67.398438 212.636719 L 66.019531 211.289062 L 65.222656 211.289062 L 68.34375 202.285156 C 69.214844 197.558594 69.964844 194.058594 70.59375 191.789062 L 70.523438 191.789062 L 70.378906 191.367188 C 70.378906 188.433594 70.957031 185.433594 72.121094 182.359375 C 72.070312 181.273438 72.773438 178.296875 74.226562 173.425781 C 76.019531 166.429688 76.914062 160.453125 76.914062 155.488281 C 76.914062 151.613281 76.382812 145.5625 75.316406 137.339844 C 74.25 129.066406 73.71875 124.363281 73.71875 123.226562 L 73.71875 123.085938 L 73.355469 121.457031 C 73.402344 117.15625 73.28125 113.964844 72.992188 111.882812 L 70.667969 102.3125 C 68.730469 98.292969 67.519531 95.503906 67.035156 93.945312 L 66.671875 94.371094 L 66.457031 92.742188 L 66.820312 92.597656 L 66.820312 92.457031 L 67.109375 92.386719 L 67.253906 92.386719 L 68.632812 91.039062 C 70.378906 89.480469 71.636719 88.699219 72.410156 88.699219 L 72.847656 88.699219 L 78.945312 88.203125 L 80.835938 87.847656 L 81.925781 86.785156 L 83.667969 84.800781 L 84.03125 80.6875 L 83.886719 80.332031 L 84.105469 80.121094 C 85.21875 79.078125 85.96875 77.96875 86.355469 76.789062 L 86.9375 74.234375 L 86.425781 74.164062 L 86.355469 73.808594 L 87.226562 73.453125 L 87.300781 73.242188 L 87.445312 73.382812 C 89.769531 72.296875 91.488281 70.902344 92.601562 69.199219 C 92.988281 68.539062 93.183594 66.695312 93.183594 63.671875 L 93.109375 58.917969 L 86.28125 63.457031 L 85.484375 63.316406 L 85.265625 63.316406 L 84.902344 63.246094 L 84.757812 63.03125 L 84.757812 62.890625 L 84.828125 62.820312 L 85.410156 62.324219 C 86.621094 61.234375 87.226562 60.101562 87.226562 58.917969 L 86.789062 57.574219 C 86.210938 56.816406 83.304688 56.4375 78.074219 56.4375 L 71.828125 57.148438 C 70.136719 58.140625 68.804688 59.296875 67.835938 60.621094 L 64.785156 64.734375 L 58.175781 73.171875 L 55.78125 77.285156 C 54.8125 78.984375 53.746094 80.355469 52.585938 81.394531 C 48.324219 86.738281 45.855469 89.40625 45.175781 89.40625 L 44.957031 89.40625 L 43.214844 90.402344 L 42.632812 90.753906 L 40.746094 91.746094 L 40.746094 91.605469 L 39.585938 92.101562 L 37.695312 93.378906 L 36.390625 94.441406 C 35.226562 95.152344 34.160156 95.503906 33.191406 95.503906 L 31.8125 95.433594 C 31.8125 95.765625 31.207031 96.121094 29.996094 96.5 L 28.761719 97.207031 L 28.835938 97.417969 L 28.328125 97.84375 L 28.109375 97.632812 L 21.28125 101.675781 L 21.210938 101.675781 L 21.066406 101.601562 L 20.773438 101.53125 L 20.703125 101.105469 L 20.703125 100.824219 C 23.65625 96.285156 25.617188 92.929688 26.585938 90.753906 L 26.367188 90.046875 C 26.367188 89.007812 27.238281 88.484375 28.980469 88.484375 L 29.707031 88.484375 L 29.707031 88.0625 L 29.78125 87.988281 C 30.167969 84.253906 30.652344 82.011719 31.230469 81.253906 C 32.347656 79.882812 33.96875 78.960938 36.097656 78.488281 L 40.820312 77.285156 L 42.632812 76.433594 C 44.621094 74.304688 46.265625 72.816406 47.574219 71.964844 C 48.347656 71.066406 48.734375 69.980469 48.734375 68.703125 L 48.808594 67.996094 L 48.664062 67.925781 L 48.808594 67.214844 L 48.878906 65.300781 C 48.832031 64.402344 49.171875 63.246094 49.898438 61.828125 L 50.261719 61.257812 C 50.695312 59.652344 51.203125 58.304688 51.785156 57.21875 C 52.609375 55.660156 53.527344 54.167969 54.546875 52.75 C 54.738281 52.183594 55.199219 51.570312 55.925781 50.90625 L 57.742188 48.566406 C 58.128906 47.339844 59.484375 45.730469 61.808594 43.746094 C 64.082031 41.761719 65.972656 40.390625 67.472656 39.632812 L 70.523438 38.003906 L 70.886719 37.71875 L 71.175781 37.578125 L 71.25 37.578125 L 73.71875 36.796875 L 75.242188 35.875 C 75.4375 35.5 75.847656 35.308594 76.476562 35.308594 L 77.058594 35.378906 L 77.203125 35.308594 C 77.832031 35.308594 78.558594 36.253906 79.382812 38.144531 L 80.980469 42.117188 C 81.269531 42.636719 83.136719 43.582031 86.574219 44.953125 C 87.589844 45.472656 89.042969 46.394531 90.929688 47.71875 C 95.578125 50.128906 99.5 51.59375 102.695312 52.113281 L 110.828125 53.957031 L 123.902344 55.515625 C 138.378906 55.515625 146.296875 55.398438 147.652344 55.160156 C 149.734375 54.832031 154.792969 53.320312 162.828125 50.625 C 163.457031 50.484375 164.789062 49.417969 166.824219 47.433594 C 168.808594 45.496094 169.996094 44.527344 170.382812 44.527344 C 170.914062 44.527344 171.761719 44.976562 172.925781 45.875 L 173.867188 46.652344 L 174.011719 46.582031 L 179.679688 49.773438 C 182.148438 51.097656 183.601562 52.230469 184.035156 53.175781 L 185.199219 53.957031 M 173.070312 84.871094 C 173.019531 87.566406 172.390625 90.375 171.179688 93.308594 L 167.984375 101.105469 L 166.386719 108.765625 L 165.371094 121.101562 C 166.386719 120.390625 171.011719 119.164062 179.242188 117.414062 L 179.96875 117.273438 L 178.296875 111.03125 C 177.765625 109.140625 177.5 106.921875 177.5 104.367188 C 177.5 101.152344 178.25 95.175781 179.75 86.429688 C 181.25 77.734375 182.003906 70.902344 182.003906 65.9375 C 182.003906 63.71875 181.664062 61.660156 180.984375 59.769531 C 180.453125 58.257812 179.703125 56.863281 178.734375 55.585938 L 171.542969 47.078125 L 171.761719 47.078125 L 170.890625 46.441406 L 171.179688 46.300781 L 170.671875 45.730469 L 169.945312 47.078125 C 168.785156 48.589844 166.921875 50.035156 164.355469 51.402344 L 163.484375 51.902344 L 160.214844 53.246094 L 157.964844 53.957031 C 151.863281 55.707031 143.898438 56.582031 134.070312 56.582031 L 118.964844 56.226562 C 114.800781 55.847656 109.160156 54.761719 102.042969 52.964844 C 96.378906 51.5 92.261719 49.9375 89.695312 48.285156 C 84.417969 46.15625 81.199219 44.3125 80.035156 42.753906 L 76.984375 36.585938 L 75.242188 37.507812 C 73.546875 38.359375 72.265625 38.785156 71.394531 38.785156 L 70.8125 38.785156 C 66.550781 41.101562 63.210938 43.582031 60.789062 46.226562 L 61.878906 46.441406 L 62.605469 46.371094 L 61.082031 47.503906 L 59.121094 49.632812 L 58.976562 49.5625 L 58.320312 50.269531 L 53.019531 57.644531 C 50.355469 61.851562 49.269531 65.324219 49.75 68.066406 L 49.605469 68.277344 L 49.605469 69.273438 C 49.558594 70.074219 49.316406 70.808594 48.878906 71.46875 L 48.953125 71.46875 L 49.027344 71.753906 L 41.109375 79.199219 L 40.746094 79.695312 L 40.746094 78.628906 L 38.351562 79.269531 C 34.71875 80.121094 32.492188 81.136719 31.667969 82.316406 C 31.183594 82.980469 30.964844 84.089844 31.015625 85.648438 C 31.015625 86.691406 30.871094 87.566406 30.578125 88.273438 L 37.113281 92.171875 L 37.1875 92.171875 C 38.398438 91.132812 39.585938 90.449219 40.746094 90.117188 L 42.5625 89.832031 L 42.78125 89.902344 L 45.105469 88.558594 L 52.148438 80.6875 L 57.742188 72.320312 L 64.277344 64.167969 L 67.398438 60.054688 C 68.5625 58.636719 69.796875 57.550781 71.105469 56.792969 C 71.152344 56.035156 73.5 55.660156 78.148438 55.660156 L 83.304688 55.515625 C 85.144531 55.515625 86.355469 55.800781 86.9375 56.367188 L 87.445312 57.21875 C 87.785156 57.738281 87.953125 58.328125 87.953125 58.992188 L 87.734375 60.621094 L 87.082031 61.046875 L 87.226562 61.402344 L 87.445312 61.472656 L 87.371094 61.613281 L 87.445312 61.828125 L 87.152344 62.253906 L 87.808594 62.039062 L 87.878906 62.039062 L 89.40625 61.117188 L 89.695312 60.835938 L 91.074219 59.699219 L 91.292969 59.273438 L 91.730469 58.140625 C 92.019531 57.382812 92.359375 57.003906 92.746094 57.003906 C 94.683594 57.003906 95.84375 59.535156 96.230469 64.59375 C 96.230469 68.136719 95.359375 71.066406 93.617188 73.382812 C 92.261719 75.226562 91.4375 76.691406 91.148438 77.78125 L 91.367188 77.710938 L 91.875 78.277344 L 91.367188 79.128906 L 89.984375 81.042969 C 88.726562 82.835938 88.097656 84.160156 88.097656 85.011719 L 88.535156 89.265625 C 88.535156 90.730469 86.546875 92.691406 82.578125 95.152344 C 78.65625 97.609375 76.746094 99.734375 76.839844 101.53125 C 77.179688 106.304688 77.253906 110.464844 77.058594 114.011719 C 79.238281 116.707031 81.246094 119.753906 83.085938 123.15625 L 89.332031 135.847656 C 90.6875 138.542969 92.238281 142.75 93.980469 148.46875 C 94.753906 151.023438 96.207031 154.804688 98.339844 159.8125 L 99.425781 160.878906 L 99.425781 161.445312 L 98.773438 161.515625 C 96.742188 161.515625 93.183594 158.160156 88.097656 151.449219 C 85.582031 148.140625 81.828125 145.066406 76.839844 142.230469 C 77.375 148.234375 77.640625 152.652344 77.640625 155.488281 C 77.640625 160.167969 76.746094 166.21875 74.953125 173.640625 L 72.410156 182.714844 C 71.539062 186.117188 71.199219 189.121094 71.394531 191.71875 L 71.25 191.789062 L 71.25 192.074219 C 71.25 195.949219 69.625 202.261719 66.382812 211.003906 L 66.890625 211.289062 L 68.269531 212.210938 L 69.289062 212.917969 L 78.945312 213.273438 C 80.933594 213.464844 82.578125 213.816406 83.886719 214.339844 L 89.625 214.90625 L 96.523438 214.480469 L 107.851562 215.1875 L 111.917969 215.898438 L 132.035156 213.203125 L 136.25 213.417969 L 136.320312 213.417969 L 137.917969 213.203125 C 139.757812 212.917969 142.253906 211.902344 145.398438 210.15625 C 147.964844 208.832031 149.78125 207.578125 150.847656 206.398438 C 152.007812 205.214844 153.605469 202.519531 155.640625 198.3125 C 157.429688 194.863281 158.519531 192.027344 158.90625 189.804688 L 159.125 182.289062 C 159.125 177.609375 158.375 173.898438 156.875 171.160156 C 155.324219 168.417969 154.550781 166.03125 154.550781 163.996094 C 156.003906 155.773438 156.730469 150.976562 156.730469 149.605469 C 156.339844 148.988281 156.050781 147.902344 155.855469 146.34375 C 154.113281 151.304688 151.523438 153.789062 148.085938 153.789062 C 147.601562 153.789062 147.289062 153.667969 147.140625 153.433594 C 147.046875 153.621094 146.996094 153.527344 146.996094 153.148438 L 147.140625 153.148438 L 146.925781 152.792969 C 149.972656 148.636719 152.175781 145.207031 153.535156 142.515625 L 157.308594 134.003906 L 157.238281 133.652344 C 157.238281 128.59375 158.738281 123.628906 161.738281 118.761719 L 161.59375 118.476562 C 159.949219 119.46875 158.277344 119.96875 156.582031 119.96875 L 155.640625 119.824219 L 155.421875 120.039062 L 155.058594 119.613281 L 155.277344 119.117188 L 155.277344 118.902344 L 155.347656 118.902344 C 155.785156 117.816406 156.945312 115.664062 158.835938 112.453125 L 163.992188 103.800781 L 163.917969 103.515625 C 166.582031 97.75 167.914062 93.613281 167.914062 91.109375 L 162.683594 83.097656 C 162.683594 82.578125 163.046875 82.316406 163.773438 82.316406 C 165.226562 82.316406 167.164062 82.957031 169.582031 84.230469 L 169.582031 83.878906 C 168.324219 80.238281 167.695312 77.804688 167.695312 76.574219 L 167.839844 75.582031 L 168.492188 75.511719 C 169.558594 75.511719 171.085938 76.953125 173.070312 79.835938 L 172.851562 80.828125 L 172.777344 80.828125 L 173.070312 83.59375 C 173.554688 82.554688 174.789062 80.804688 176.773438 78.347656 L 177.136719 78.703125 C 177.136719 79.410156 175.804688 81.46875 173.140625 84.871094 L 173.070312 84.871094 M 173.578125 75.085938 L 173.941406 75.371094 L 173.941406 80.898438 L 173.652344 81.042969 L 173.214844 78.0625 C 173.214844 76.410156 173.335938 75.417969 173.578125 75.085938 M 195.726562 120.675781 L 193.042969 121.808594 C 193.574219 122.046875 194.203125 122.402344 194.929688 122.875 L 195.800781 121.882812 L 195.726562 120.746094 L 195.726562 120.675781 M 186.140625 125.566406 L 189.992188 128.121094 L 190.644531 128.617188 L 190.933594 127.695312 L 193.695312 124.292969 L 191.296875 122.449219 L 187.011719 123.9375 L 186.140625 125.566406 M 182.800781 128.972656 L 184.761719 125.921875 L 184.035156 125.496094 L 184.90625 124.859375 L 185.269531 125.070312 L 185.707031 124.363281 L 184.542969 124.789062 L 182.292969 125.710938 L 182.003906 125.640625 L 181.929688 125.640625 L 178.808594 126.632812 L 178.007812 128.050781 C 179.21875 128.523438 180.597656 129.160156 182.148438 129.964844 L 182.800781 128.972656 M 183.164062 130.246094 L 183.019531 130.460938 L 183.308594 130.601562 L 187.230469 133.011719 L 190.207031 129.539062 C 188.367188 128.261719 186.84375 127.246094 185.632812 126.488281 L 184.617188 127.980469 L 183.164062 130.246094 M 194.785156 125.070312 L 192.75 127.625 L 191.515625 129.183594 C 193.40625 130.507812 194.953125 131.714844 196.164062 132.800781 C 196.503906 132.800781 196.722656 132.941406 196.816406 133.226562 L 196.746094 133.367188 L 197.109375 133.722656 L 196.089844 125.851562 L 194.785156 125.070312 M 165.589844 121.738281 L 165.660156 121.808594 L 165.734375 121.738281 L 165.589844 121.738281 M 166.097656 125.78125 L 166.53125 127.484375 L 170.238281 127.484375 L 181.929688 124.503906 L 182.875 123.015625 C 182.875 122.449219 181.882812 121.785156 179.894531 121.03125 C 173.503906 123.582031 169.246094 124.859375 167.113281 124.859375 L 166.316406 124.859375 L 166.097656 125.78125 M 167.621094 128.617188 L 167.621094 128.757812 L 167.984375 128.6875 L 172.050781 131.453125 L 172.925781 130.601562 C 173.652344 129.988281 174.449219 129.324219 175.320312 128.617188 L 173.796875 127.980469 L 168.492188 128.6875 L 167.621094 128.617188 M 177.0625 127.128906 L 175.972656 127.410156 L 176.554688 127.554688 L 177.0625 127.128906 M 183.671875 132.089844 L 182.367188 131.453125 L 180.769531 133.4375 L 178.371094 135.777344 L 179.605469 136.628906 L 181.128906 137.761719 C 182.148438 136.769531 183.285156 135.847656 184.542969 135 L 184.6875 134.855469 L 186.503906 133.582031 L 183.671875 132.089844 M 175.683594 137.90625 L 173.722656 139.535156 L 177.0625 143.011719 L 178.296875 141.238281 L 179.894531 139.109375 L 176.992188 136.984375 L 175.683594 137.90625 M 180.113281 132.515625 L 181.347656 131.027344 L 176.992188 129.324219 L 173.722656 132.585938 L 177.355469 135.070312 L 180.113281 132.515625 M 169.292969 136.417969 C 170.164062 136.652344 171.351562 137.433594 172.851562 138.757812 L 174.304688 137.550781 L 175.972656 136.203125 L 172.632812 133.582031 L 169.582031 136.34375 L 169.292969 136.34375 L 169.292969 136.417969 M 171.109375 132.304688 L 167.769531 129.46875 L 169.003906 135 C 169.292969 134.289062 169.996094 133.390625 171.109375 132.304688 M 171.542969 139.960938 L 169.730469 138.332031 L 170.382812 141.308594 L 171.542969 139.960938 M 170.527344 142.160156 L 171.617188 146.980469 L 172.488281 147.617188 L 176.191406 144.003906 L 172.414062 140.671875 L 170.746094 142.300781 L 170.527344 142.160156 M 177.136719 144.78125 C 175.730469 146.578125 174.546875 147.785156 173.578125 148.398438 L 176.773438 150.597656 L 177.28125 150.953125 L 177.570312 150.667969 L 180.695312 147.546875 L 177.136719 144.78125 M 179.171875 141.945312 L 177.71875 144.003906 C 178.394531 144.804688 179.628906 145.773438 181.421875 146.910156 L 184.617188 144.003906 L 185.5625 143.222656 L 180.839844 139.820312 L 179.171875 141.945312 M 179.824219 153.859375 L 177.5 152.511719 L 173.722656 156.128906 L 173.578125 156.054688 L 174.011719 157.828125 L 177.28125 154.496094 L 179.824219 153.859375 M 181.421875 153.433594 L 183.019531 152.9375 C 183.308594 152.273438 184.058594 151.496094 185.269531 150.597656 L 181.710938 148.328125 L 178.371094 151.660156 L 181.421875 153.433594 M 179.53125 155.132812 L 177.863281 155.347656 L 174.230469 158.75 L 174.230469 158.964844 L 174.160156 159.386719 L 173.722656 159.601562 L 173.578125 159.53125 L 173.289062 159.957031 L 173.359375 160.453125 L 174.8125 160.382812 L 185.269531 157.121094 L 185.996094 156.90625 L 185.925781 156.765625 C 185.925781 156.480469 186.359375 156.152344 187.230469 155.773438 C 188.101562 155.394531 188.539062 155.039062 188.539062 154.710938 L 187.011719 153.714844 L 186.648438 153.714844 L 184.835938 153.859375 C 183.089844 154.238281 182.003906 154.566406 181.566406 154.851562 L 179.53125 155.132812 M 176.191406 151.660156 L 171.980469 148.683594 L 171.980469 148.613281 L 173.433594 155.207031 L 176.484375 151.871094 L 176.191406 151.660156 M 197.035156 134.5 L 196.308594 133.933594 L 193.1875 137.410156 L 196.601562 140.742188 L 197.109375 140.457031 L 197.542969 140.597656 L 197.472656 135.777344 L 197.253906 134.5 L 197.035156 134.5 M 197.617188 143.578125 L 196.816406 143.011719 L 192.894531 146.695312 L 195.945312 149.320312 L 196.238281 149.035156 L 197.835938 147.761719 L 197.617188 143.578125 M 195.582031 133.4375 L 190.789062 129.964844 L 187.738281 133.367188 L 189.410156 134.429688 C 190.28125 135 191.25 135.753906 192.316406 136.699219 L 195.582031 133.4375 M 185.996094 141.308594 L 186.867188 142.015625 L 191.226562 137.761719 L 188.609375 135.140625 L 187.085938 134.003906 L 185.777344 135.140625 L 184.835938 135.992188 L 182.148438 138.472656 L 185.996094 141.308594 M 186.214844 143.933594 L 185.269531 144.710938 L 182.511719 147.546875 L 186.433594 149.746094 L 186.867188 149.390625 L 190.5 146.769531 L 190.570312 146.695312 L 186.359375 143.789062 L 186.214844 143.933594 M 193.769531 140.316406 L 192.023438 138.542969 L 187.667969 142.585938 L 191.734375 145.773438 L 195.074219 143.363281 L 195.800781 142.230469 L 193.769531 140.316406 M 195.292969 149.957031 L 191.878906 147.617188 L 188.320312 150.382812 L 190.28125 151.449219 L 194.277344 151.023438 L 195.292969 149.957031 M 196.308594 150.597656 L 195.945312 150.953125 L 196.671875 150.878906 L 196.308594 150.597656 M 187.59375 151.660156 L 187.667969 151.660156 L 187.523438 151.519531 L 187.375 151.375 L 187.085938 151.304688 L 185.777344 152.296875 L 187.449219 151.945312 L 187.523438 151.660156 L 187.59375 151.660156 M 198.269531 150.953125 C 198.125 150.667969 198.027344 150.03125 197.980469 149.035156 L 196.890625 150.101562 L 197.835938 150.878906 L 198.269531 150.953125 M 35.878906 93.023438 C 34.429688 92.457031 32.613281 91.179688 30.433594 89.195312 L 27.457031 89.550781 L 27.3125 90.257812 C 27.3125 90.730469 27.964844 91.535156 29.273438 92.667969 C 30.675781 93.851562 31.910156 94.441406 32.976562 94.441406 C 33.894531 94.441406 34.765625 94.0625 35.589844 93.308594 L 35.878906 93.023438 M 63.476562 94.867188 L 63.625 94.511719 L 63.625 94.796875 L 63.476562 94.867188 M 91.148438 158.46875 L 91.148438 158.539062 C 99.089844 170.542969 111.726562 184.417969 129.058594 200.15625 L 129.058594 200.371094 L 128.769531 200.582031 L 128.984375 200.726562 L 129.277344 200.652344 L 127.171875 201.007812 C 111.628906 201.007812 100.589844 195.949219 94.054688 185.835938 C 90.375 180.210938 88.535156 174.300781 88.535156 168.109375 C 88.535156 166.359375 88.605469 164.683594 88.75 163.074219 C 89.042969 159.859375 89.625 158.253906 90.496094 158.253906 L 90.785156 158.324219 L 90.929688 158.183594 L 91.074219 158.46875 L 91.148438 158.46875 M 26.4375 95.503906 L 26.222656 94.9375 L 25.785156 95.648438 L 26.4375 95.503906 M 27.527344 95.222656 L 29.996094 94.867188 C 28.738281 94.253906 27.769531 93.285156 27.09375 91.960938 C 27.09375 92.527344 26.949219 93.164062 26.65625 93.875 L 27.527344 95.222656 M 25.203125 96.570312 L 23.316406 99.191406 L 27.457031 96.851562 L 27.238281 96.570312 L 25.203125 96.570312 "/>
<path style=" stroke:none;fill-rule:evenodd;fill:rgb(20%,20%,20%);fill-opacity:1;" d="M 186.289062 55.445312 L 182.003906 58.992188 L 180.476562 56.367188 L 174.011719 48.640625 L 174.085938 48.710938 L 176.191406 49.984375 C 177.402344 50.742188 180.113281 52.160156 184.328125 54.242188 L 185.777344 55.089844 L 186.214844 55.160156 L 186.289062 55.445312 M 48.878906 71.46875 C 49.316406 70.808594 49.558594 70.074219 49.605469 69.273438 L 49.605469 68.277344 L 49.75 68.066406 C 49.269531 65.324219 50.355469 61.851562 53.019531 57.644531 L 58.320312 50.269531 L 58.976562 49.5625 L 59.121094 49.632812 L 61.082031 47.503906 L 62.605469 46.371094 L 61.878906 46.441406 L 60.789062 46.226562 C 63.210938 43.582031 66.550781 41.101562 70.8125 38.785156 L 71.394531 38.785156 C 72.265625 38.785156 73.546875 38.359375 75.242188 37.507812 L 76.984375 36.585938 L 80.035156 42.753906 C 81.199219 44.3125 84.417969 46.15625 89.695312 48.285156 C 92.261719 49.9375 96.378906 51.5 102.042969 52.964844 C 109.160156 54.761719 114.800781 55.847656 118.964844 56.226562 L 134.070312 56.582031 C 143.898438 56.582031 151.863281 55.707031 157.964844 53.957031 L 160.214844 53.246094 L 163.484375 51.902344 L 164.355469 51.402344 C 166.921875 50.035156 168.785156 48.589844 169.945312 47.078125 L 170.671875 45.730469 L 171.179688 46.300781 L 170.890625 46.441406 L 171.761719 47.078125 L 171.542969 47.078125 L 178.734375 55.585938 C 179.703125 56.863281 180.453125 58.257812 180.984375 59.769531 C 181.664062 61.660156 182.003906 63.71875 182.003906 65.9375 C 182.003906 70.902344 181.25 77.734375 179.75 86.429688 C 178.25 95.175781 177.5 101.152344 177.5 104.367188 C 177.5 106.921875 177.765625 109.140625 178.296875 111.03125 L 179.96875 117.273438 L 179.242188 117.414062 C 171.011719 119.164062 166.386719 120.390625 165.371094 121.101562 L 166.386719 108.765625 L 167.984375 101.105469 L 171.179688 93.308594 C 172.390625 90.375 173.019531 87.566406 173.070312 84.871094 L 173.140625 84.871094 C 175.804688 81.46875 177.136719 79.410156 177.136719 78.703125 L 176.773438 78.347656 C 174.789062 80.804688 173.554688 82.554688 173.070312 83.59375 L 172.777344 80.828125 L 172.851562 80.828125 L 173.070312 79.835938 C 171.085938 76.953125 169.558594 75.511719 168.492188 75.511719 L 167.839844 75.582031 L 167.695312 76.574219 C 167.695312 77.804688 168.324219 80.238281 169.582031 83.878906 L 169.582031 84.230469 C 167.164062 82.957031 165.226562 82.316406 163.773438 82.316406 C 163.046875 82.316406 162.683594 82.578125 162.683594 83.097656 L 167.914062 91.109375 C 167.914062 93.613281 166.582031 97.75 163.917969 103.515625 L 163.992188 103.800781 L 158.835938 112.453125 C 156.945312 115.664062 155.785156 117.816406 155.347656 118.902344 L 155.277344 118.902344 L 155.277344 119.117188 L 155.058594 119.613281 L 155.421875 120.039062 L 155.640625 119.824219 L 156.582031 119.96875 C 158.277344 119.96875 159.949219 119.46875 161.59375 118.476562 L 161.738281 118.761719 C 158.738281 123.628906 157.238281 128.59375 157.238281 133.652344 L 157.308594 134.003906 L 153.535156 142.515625 C 152.175781 145.207031 149.972656 148.636719 146.925781 152.792969 L 147.140625 153.148438 L 146.996094 153.148438 C 146.996094 153.527344 147.046875 153.621094 147.140625 153.433594 C 147.289062 153.667969 147.601562 153.789062 148.085938 153.789062 C 151.523438 153.789062 154.113281 151.304688 155.855469 146.34375 C 156.050781 147.902344 156.339844 148.988281 156.730469 149.605469 C 156.730469 150.976562 156.003906 155.773438 154.550781 163.996094 C 154.550781 166.03125 155.324219 168.417969 156.875 171.160156 C 158.375 173.898438 159.125 177.609375 159.125 182.289062 L 158.90625 189.804688 C 158.519531 192.027344 157.429688 194.863281 155.640625 198.3125 C 153.605469 202.519531 152.007812 205.214844 150.847656 206.398438 C 149.78125 207.578125 147.964844 208.832031 145.398438 210.15625 C 142.253906 211.902344 139.757812 212.917969 137.917969 213.203125 L 136.320312 213.417969 L 136.25 213.417969 L 132.035156 213.203125 L 111.917969 215.898438 L 107.851562 215.1875 L 96.523438 214.480469 L 89.625 214.90625 L 83.886719 214.339844 C 82.578125 213.816406 80.933594 213.464844 78.945312 213.273438 L 69.289062 212.917969 L 68.269531 212.210938 L 66.890625 211.289062 L 66.382812 211.003906 C 69.625 202.261719 71.25 195.949219 71.25 192.074219 L 71.25 191.789062 L 71.394531 191.71875 C 71.199219 189.121094 71.539062 186.117188 72.410156 182.714844 L 74.953125 173.640625 C 76.746094 166.21875 77.640625 160.167969 77.640625 155.488281 C 77.640625 152.652344 77.375 148.234375 76.839844 142.230469 C 81.828125 145.066406 85.582031 148.140625 88.097656 151.449219 C 93.183594 158.160156 96.742188 161.515625 98.773438 161.515625 L 99.425781 161.445312 L 99.425781 160.878906 L 98.339844 159.8125 C 96.207031 154.804688 94.753906 151.023438 93.980469 148.46875 C 92.238281 142.75 90.6875 138.542969 89.332031 135.847656 L 83.085938 123.15625 C 81.246094 119.753906 79.238281 116.707031 77.058594 114.011719 C 77.253906 110.464844 77.179688 106.304688 76.839844 101.53125 C 76.746094 99.734375 78.65625 97.609375 82.578125 95.152344 C 86.546875 92.691406 88.535156 90.730469 88.535156 89.265625 L 88.097656 85.011719 C 88.097656 84.160156 88.726562 82.835938 89.984375 81.042969 L 91.367188 79.128906 L 91.875 78.277344 L 91.367188 77.710938 L 91.148438 77.78125 C 91.4375 76.691406 92.261719 75.226562 93.617188 73.382812 C 95.359375 71.066406 96.230469 68.136719 96.230469 64.59375 C 95.84375 59.535156 94.683594 57.003906 92.746094 57.003906 C 92.359375 57.003906 92.019531 57.382812 91.730469 58.140625 L 91.292969 59.273438 L 91.074219 59.699219 L 89.695312 60.835938 L 89.40625 61.117188 L 87.878906 62.039062 L 87.808594 62.039062 L 87.515625 61.96875 L 87.445312 61.828125 L 87.371094 61.613281 L 87.445312 61.472656 L 87.226562 61.402344 L 87.082031 61.046875 L 87.734375 60.621094 L 87.953125 58.992188 C 87.953125 58.328125 87.785156 57.738281 87.445312 57.21875 L 86.9375 56.367188 C 86.355469 55.800781 85.144531 55.515625 83.304688 55.515625 L 78.148438 55.660156 C 73.5 55.660156 71.152344 56.035156 71.105469 56.792969 C 69.796875 57.550781 68.5625 58.636719 67.398438 60.054688 L 64.277344 64.167969 L 57.742188 72.320312 L 52.148438 80.6875 L 45.105469 88.558594 L 42.78125 89.902344 L 42.5625 89.832031 L 40.746094 90.117188 C 39.585938 90.449219 38.398438 91.132812 37.1875 92.171875 L 37.113281 92.171875 L 30.578125 88.273438 C 30.871094 87.566406 31.015625 86.691406 31.015625 85.648438 C 30.964844 84.089844 31.183594 82.980469 31.667969 82.316406 C 32.492188 81.136719 34.71875 80.121094 38.351562 79.269531 L 40.746094 78.628906 L 40.746094 79.695312 L 41.109375 79.199219 L 49.027344 71.753906 L 48.953125 71.46875 L 48.878906 71.46875 M 173.578125 75.085938 C 173.335938 75.417969 173.214844 76.410156 173.214844 78.0625 L 173.652344 81.042969 L 173.941406 80.898438 L 173.941406 75.371094 L 173.578125 75.085938 M 166.097656 125.78125 L 166.316406 124.859375 L 167.113281 124.859375 C 169.246094 124.859375 173.503906 123.582031 179.894531 121.03125 C 181.882812 121.785156 182.875 122.449219 182.875 123.015625 L 181.929688 124.503906 L 170.238281 127.484375 L 166.53125 127.484375 L 166.097656 125.78125 M 179.53125 155.132812 L 181.566406 154.851562 C 182.003906 154.566406 183.089844 154.238281 184.835938 153.859375 L 186.648438 153.714844 L 187.011719 153.714844 L 188.539062 154.710938 C 188.539062 155.039062 188.101562 155.394531 187.230469 155.773438 C 186.359375 156.152344 185.925781 156.480469 185.925781 156.765625 L 185.996094 156.90625 L 185.269531 157.121094 L 174.8125 160.382812 L 173.359375 160.453125 L 173.289062 159.957031 L 173.578125 159.53125 L 173.722656 159.601562 L 174.160156 159.386719 L 174.230469 158.964844 L 174.230469 158.75 L 177.863281 155.347656 L 179.53125 155.132812 M 35.878906 93.023438 L 35.589844 93.308594 C 34.765625 94.0625 33.894531 94.441406 32.976562 94.441406 C 31.910156 94.441406 30.675781 93.851562 29.273438 92.667969 C 27.964844 91.535156 27.3125 90.730469 27.3125 90.257812 L 27.457031 89.550781 L 30.433594 89.195312 C 32.613281 91.179688 34.429688 92.457031 35.878906 93.023438 M 91.148438 158.46875 L 91.074219 158.46875 L 90.929688 158.183594 L 90.785156 158.324219 L 90.496094 158.253906 C 89.625 158.253906 89.042969 159.859375 88.75 163.074219 C 88.605469 164.683594 88.535156 166.359375 88.535156 168.109375 C 88.535156 174.300781 90.375 180.210938 94.054688 185.835938 C 100.589844 195.949219 111.628906 201.007812 127.171875 201.007812 L 129.277344 200.652344 L 128.984375 200.726562 L 128.769531 200.582031 L 129.058594 200.371094 L 129.058594 200.15625 C 111.726562 184.417969 99.089844 170.542969 91.148438 158.539062 L 91.148438 158.46875 "/>
<path style=" stroke:none;fill-rule:evenodd;fill:rgb(100%,100%,100%);fill-opacity:1;" d="M 182.003906 125.640625 L 182.800781 128.972656 L 182.148438 129.964844 C 180.597656 129.160156 179.21875 128.523438 178.007812 128.050781 L 178.808594 126.632812 L 181.929688 125.640625 L 182.003906 125.640625 M 183.308594 130.601562 L 183.019531 130.460938 L 183.164062 130.246094 L 183.308594 130.601562 M 184.542969 135 C 183.285156 135.847656 182.148438 136.769531 181.128906 137.761719 L 179.605469 136.628906 L 178.371094 135.777344 L 180.769531 133.4375 L 182.367188 131.453125 L 183.671875 132.089844 L 184.542969 135 M 177.0625 127.128906 L 176.554688 127.554688 L 175.972656 127.410156 L 177.0625 127.128906 M 167.621094 128.617188 L 168.492188 128.6875 L 173.796875 127.980469 L 175.320312 128.617188 C 174.449219 129.324219 173.652344 129.988281 172.925781 130.601562 L 172.050781 131.453125 L 167.984375 128.6875 L 167.621094 128.757812 L 167.621094 128.617188 M 181.421875 153.433594 L 178.371094 151.660156 L 181.710938 148.328125 L 185.269531 150.597656 C 184.058594 151.496094 183.308594 152.273438 183.019531 152.9375 L 181.421875 153.433594 M 179.824219 153.859375 L 177.28125 154.496094 L 174.011719 157.828125 L 173.578125 156.054688 L 173.722656 156.128906 L 177.5 152.511719 L 179.824219 153.859375 M 179.171875 141.945312 L 180.839844 139.820312 L 185.5625 143.222656 L 184.617188 144.003906 L 181.421875 146.910156 C 179.628906 145.773438 178.394531 144.804688 177.71875 144.003906 L 179.171875 141.945312 M 177.136719 144.78125 L 180.695312 147.546875 L 177.570312 150.667969 L 177.28125 150.953125 L 176.773438 150.597656 L 173.578125 148.398438 C 174.546875 147.785156 175.730469 146.578125 177.136719 144.78125 M 170.527344 142.160156 L 170.746094 142.300781 L 172.414062 140.671875 L 176.191406 144.003906 L 172.488281 147.617188 L 171.617188 146.980469 L 170.527344 142.160156 M 171.542969 139.960938 L 170.382812 141.308594 L 169.730469 138.332031 L 171.542969 139.960938 M 171.109375 132.304688 C 169.996094 133.390625 169.292969 134.289062 169.003906 135 L 167.769531 129.46875 L 171.109375 132.304688 M 169.292969 136.417969 L 169.292969 136.34375 L 169.582031 136.34375 L 172.632812 133.582031 L 175.972656 136.203125 L 174.304688 137.550781 L 172.851562 138.757812 C 171.351562 137.433594 170.164062 136.652344 169.292969 136.417969 M 180.113281 132.515625 L 177.355469 135.070312 L 173.722656 132.585938 L 176.992188 129.324219 L 181.347656 131.027344 L 180.113281 132.515625 M 175.683594 137.90625 L 176.992188 136.984375 L 179.894531 139.109375 L 178.296875 141.238281 L 177.0625 143.011719 L 173.722656 139.535156 L 175.683594 137.90625 M 176.191406 151.660156 L 176.484375 151.871094 L 173.433594 155.207031 L 171.980469 148.613281 L 171.980469 148.683594 L 176.191406 151.660156 M 184.835938 135.992188 L 185.707031 138.96875 L 185.996094 141.308594 L 182.148438 138.472656 L 184.835938 135.992188 M 186.867188 149.390625 L 186.433594 149.746094 L 182.511719 147.546875 L 185.269531 144.710938 L 186.214844 143.933594 L 186.503906 147.265625 L 186.867188 149.390625 M 187.523438 151.519531 L 187.59375 151.660156 L 187.523438 151.660156 L 187.449219 151.945312 L 185.777344 152.296875 L 187.085938 151.304688 L 187.375 151.375 L 187.523438 151.519531 M 25.203125 96.570312 L 27.238281 96.570312 L 27.457031 96.851562 L 23.316406 99.191406 L 25.203125 96.570312 M 27.527344 95.222656 L 26.65625 93.875 C 26.949219 93.164062 27.09375 92.527344 27.09375 91.960938 C 27.769531 93.285156 28.738281 94.253906 29.996094 94.867188 L 27.527344 95.222656 M 26.4375 95.503906 L 25.785156 95.648438 L 26.222656 94.9375 L 26.4375 95.503906 "/>
<path style=" stroke:none;fill-rule:evenodd;fill:rgb(80.000001%,80.000001%,80.000001%);fill-opacity:1;" d="M 195.726562 120.746094 L 195.800781 121.882812 L 194.929688 122.875 C 194.203125 122.402344 193.574219 122.046875 193.042969 121.808594 L 195.726562 120.675781 L 195.726562 120.746094 M 182.003906 125.640625 L 182.292969 125.710938 L 184.542969 124.789062 L 185.707031 124.363281 L 185.269531 125.070312 L 184.90625 124.859375 L 184.035156 125.496094 L 184.761719 125.921875 L 182.800781 128.972656 L 182.003906 125.640625 M 186.140625 125.566406 L 187.011719 123.9375 L 191.296875 122.449219 L 193.695312 124.292969 L 190.933594 127.695312 L 190.644531 128.617188 L 189.992188 128.121094 L 186.140625 125.566406 M 183.308594 130.601562 L 183.164062 130.246094 L 184.617188 127.980469 L 185.632812 126.488281 C 186.84375 127.246094 188.367188 128.261719 190.207031 129.539062 L 187.230469 133.011719 L 183.308594 130.601562 M 194.785156 125.070312 L 196.089844 125.851562 L 197.109375 133.722656 L 196.746094 133.367188 L 196.816406 133.226562 C 196.722656 132.941406 196.503906 132.800781 196.164062 132.800781 C 194.953125 131.714844 193.40625 130.507812 191.515625 129.183594 L 192.75 127.625 L 194.785156 125.070312 M 184.542969 135 L 183.671875 132.089844 L 186.503906 133.582031 L 184.6875 134.855469 L 184.542969 135 M 184.835938 135.992188 L 185.777344 135.140625 L 187.085938 134.003906 L 188.609375 135.140625 L 191.226562 137.761719 L 186.867188 142.015625 L 185.996094 141.308594 L 185.707031 138.96875 L 184.835938 135.992188 M 195.582031 133.4375 L 192.316406 136.699219 C 191.25 135.753906 190.28125 135 189.410156 134.429688 L 187.738281 133.367188 L 190.789062 129.964844 L 195.582031 133.4375 M 197.617188 143.578125 L 197.835938 147.761719 L 196.238281 149.035156 L 195.945312 149.320312 L 192.894531 146.695312 L 196.816406 143.011719 L 197.617188 143.578125 M 197.035156 134.5 L 197.253906 134.5 L 197.472656 135.777344 L 197.542969 140.597656 L 197.109375 140.457031 L 196.601562 140.742188 L 193.1875 137.410156 L 196.308594 133.933594 L 197.035156 134.5 M 186.867188 149.390625 L 186.503906 147.265625 L 186.214844 143.933594 L 186.359375 143.789062 L 190.570312 146.695312 L 190.5 146.769531 L 186.867188 149.390625 M 187.523438 151.519531 L 187.667969 151.660156 L 187.59375 151.660156 L 187.523438 151.519531 M 196.308594 150.597656 L 196.671875 150.878906 L 195.945312 150.953125 L 196.308594 150.597656 M 195.292969 149.957031 L 194.277344 151.023438 L 190.28125 151.449219 L 188.320312 150.382812 L 191.878906 147.617188 L 195.292969 149.957031 M 193.769531 140.316406 L 195.800781 142.230469 L 195.074219 143.363281 L 191.734375 145.773438 L 187.667969 142.585938 L 192.023438 138.542969 L 193.769531 140.316406 M 198.269531 150.953125 L 197.835938 150.878906 L 196.890625 150.101562 L 197.980469 149.035156 C 198.027344 150.03125 198.125 150.667969 198.269531 150.953125 "/>
</g>
</svg>
