<?xml version="1.0" encoding="UTF-8" standalone="no"?>
<svg
   xmlns:dc="http://purl.org/dc/elements/1.1/"
   xmlns:cc="http://creativecommons.org/ns#"
   xmlns:rdf="http://www.w3.org/1999/02/22-rdf-syntax-ns#"
   xmlns:svg="http://www.w3.org/2000/svg"
   xmlns="http://www.w3.org/2000/svg"
   xmlns:sodipodi="http://sodipodi.sourceforge.net/DTD/sodipodi-0.dtd"
   xmlns:inkscape="http://www.inkscape.org/namespaces/inkscape"
   width="225px"
   height="231px"
   viewBox="0 0 225 231"
   version="1.1"
   id="svg11"
   sodipodi:docname="7.svg"
   inkscape:version="1.0.1 (0767f8302a, 2020-10-17)">
  <metadata
     id="metadata17">
    <rdf:RDF>
      <cc:Work
         rdf:about="">
        <dc:format>image/svg+xml</dc:format>
        <dc:type
           rdf:resource="http://purl.org/dc/dcmitype/StillImage" />
        <dc:title></dc:title>
      </cc:Work>
    </rdf:RDF>
  </metadata>
  <defs
     id="defs15" />
  <sodipodi:namedview
     pagecolor="#ffffff"
     bordercolor="#666666"
     borderopacity="1"
     objecttolerance="10"
     gridtolerance="10"
     guidetolerance="10"
     inkscape:pageopacity="0"
     inkscape:pageshadow="2"
     inkscape:window-width="1473"
     inkscape:window-height="1183"
     id="namedview13"
     showgrid="false"
     inkscape:zoom="4.3636364"
     inkscape:cx="112.5"
     inkscape:cy="115.5"
     inkscape:window-x="3900"
     inkscape:window-y="168"
     inkscape:window-maximized="0"
     inkscape:current-layer="svg11" />
  <path
     style="fill:#000000;fill-opacity:1;fill-rule:evenodd;stroke:none"
     d="m 163.19141,140.24609 -0.65235,5.03125 -0.80078,11.0625 -0.43359,6.23828 -0.21875,2.625 c 0.33984,0.94532 0.60547,2.48047 0.80078,4.60938 0.53125,5.24609 0.91797,8.29297 1.16015,9.14453 l 5.23047,14.89063 c -0.0508,3.96875 -0.24218,6.61718 -0.58203,7.9414 v 0.35547 l -0.28906,0.42188 -0.4375,0.28515 -3.84766,2.33985 -5.375,3.12109 c -0.77343,0.47266 -2.15625,1.03906 -4.14062,1.69922 -3.29297,1.08984 -5.85938,1.63281 -7.69922,1.63281 l -23.52734,-1.13672 -14.89063,-1.91406 -16.484374,-2.05469 -8.933594,-2.83594 C 78.875,203.18359 77.035156,202.75781 76.550781,202.42578 75,202.19141 74.105469,201.78906 73.863281,201.22266 h -0.07422 l -0.722656,-0.92188 0.941406,-4.11328 c -0.144531,-1.32422 0.05078,-2.64844 0.582032,-3.97266 0.484375,-4.10937 1.015625,-6.59375 1.597656,-7.4414 l -0.582031,-2.48438 0.4375,-7.01953 0.289062,-4.53516 c -0.191406,-0.33203 -0.3125,-0.92187 -0.363281,-1.77343 v -2.12891 c 0,-2.59766 0.316406,-4.98437 0.945312,-7.16016 l 0.363282,-6.94921 c 0.144531,-2.97657 0.09766,-5.15235 -0.144532,-6.52344 L 76.625,139.67578 c -1.308594,-7.75 -1.960938,-12.05078 -1.960938,-12.90234 v -0.0703 c -0.824218,-2.17579 -1.671874,-6.57032 -2.542968,-13.1875 -0.628906,-4.11329 -1.164063,-6.59375 -1.597656,-7.44532 L 69.070312,102.38281 68.125,99.832031 68.488281,99.40625 67.761719,96.570312 C 66.503906,93.96875 65.875,92.503906 65.875,92.171875 v -0.210937 l 0.433594,-0.566407 c 0.4375,-0.425781 1.164062,-0.96875 2.179687,-1.632812 1.742188,-1.132813 2.882813,-1.699219 3.414063,-1.699219 l 0.945312,0.351562 6.898438,-0.28125 c 0.917968,-0.238281 1.695312,-0.664062 2.324218,-1.277343 l 1.453126,-2.480469 -0.363282,-0.355469 0.144532,-1.347656 0.289062,-0.851563 -0.289062,-1.84375 c 0,-0.375 0.195312,-0.589843 0.582031,-0.636718 l 1.304687,-1.207032 c 0.535156,-0.519531 0.800782,-1.085937 0.800782,-1.699218 l -0.144532,-1.703125 c 0.04687,-0.992188 0.363282,-1.488281 0.941406,-1.488281 l 6.101563,-5.175782 c 0.53125,-1.417968 0.800781,-3.332031 0.800781,-5.742187 0.191406,-3.027344 -0.121094,-4.539063 -0.945312,-4.539063 -1.308594,0 -2.710938,0.945313 -4.210938,2.835938 -1.503906,1.890625 -2.496094,2.835937 -2.980468,2.835937 H 85.410156 L 84.683594,62.75 l 0.21875,-0.285156 0.800781,-1.277344 0.871094,-1.558594 c 0,-1.085937 -0.535157,-1.914062 -1.597657,-2.480468 l -14.308593,-0.851563 -3.484375,3.617187 -1.019532,1.203126 c 0.05078,1.703124 -0.457031,2.578124 -1.523437,2.625 l -0.652344,0.140624 -0.726562,0.78125 v 0.140626 l -6.683594,9.644531 c 0,0.660156 -0.460937,1.320312 -1.378906,1.984375 -5.472657,7.421875 -9.5625,11.980468 -12.273438,13.683594 l -0.144531,-0.07031 c -6.925781,4.0625 -11.644531,6.617187 -14.164062,7.65625 2.179687,1.558594 5.59375,5.292962 10.242187,11.203122 1.113281,1.37109 3.4375,3.64063 6.96875,6.80469 2.035156,1.79687 3.050781,3.59375 3.050781,5.39062 0,1.9375 -0.96875,3.85157 -2.902344,5.74219 l -5.957031,4.60937 c 0,0.56641 -0.53125,1.23047 -1.597656,1.98438 -1.113281,0.80469 -2.203125,1.20703 -3.269531,1.20703 -0.578125,0 -1.304688,-0.28516 -2.175782,-0.85156 L 32.105469,134.5 h -0.582031 l -1.742188,1.63281 -1.527344,0.99219 c -0.386718,0.1875 -0.605468,0.37891 -0.652344,0.56641 l -6.535156,0.0703 -3.851562,0.0742 -1.523438,1.20312 c -1.742187,1.1836 -3.488281,1.77344 -5.230468,1.77344 -2.757813,0 -5.253907,-1.58203 -7.480469,-4.75 -1.789063,-2.55469 -2.6875,-4.53906 -2.6875,-5.95703 0,-0.80469 0.195312,-1.20313 0.582031,-1.20313 0.046875,-1.89062 0.945312,-4.49218 2.6875,-7.80078 1.597656,-3.12109 3.195312,-5.55468 4.792969,-7.30468 l 4.285156,-5.60157 -0.144531,-0.35156 c 0,-0.80469 0.773437,-2.22266 2.324218,-4.25391 1.695313,-2.17578 3.316407,-3.33203 4.863282,-3.47656 l 3.488281,-5.45703 c 1.644531,-2.886719 2.878906,-4.800781 3.703125,-5.746094 0.824219,-0.898437 2.007812,-2.8125 3.558594,-5.742187 1.792968,-2.976563 3.171875,-4.726563 4.140625,-5.246094 l 1.960937,-2.199219 -0.144531,-0.28125 c 0,-0.425781 0.265625,-0.640625 0.796875,-0.640625 l 5.519531,-4.394531 c 0.582031,-1.605469 2.128907,-4.300781 4.648438,-8.082031 3,-4.585938 4.695312,-6.996094 5.082031,-7.234375 l 6.320312,-8.222656 c 0.871094,-1.183594 2.394532,-2.742188 4.574219,-4.679688 2.375,-2.128906 3.921875,-3.191406 4.648438,-3.191406 h 0.21875 l 2.90625,-1.84375 4.210937,-2.339844 c 1.355469,-0.804688 5.179688,-2.269531 11.472656,-4.394531 l 10.894532,-3.6875 9.804686,-5.035157 c 0.4375,-0.519531 0.65235,-1.085937 0.65235,-1.699218 v -2.695313 c 0,-4.160156 -0.26563,-7.160156 -0.79688,-9.003906 V 6.59375 l 0.79688,-0.210938 0.51171,0.421876 c 1.0625,0.191406 4.55079,3.097656 10.45704,8.722656 l 3.55859,-0.78125 4.06641,-2.125 c 3.92187,-1.796875 6.87499,-3.378906 8.85937,-4.75 L 145.25391,0 l 0.72656,0.210938 c 0.33984,0.050781 0.50781,0.261718 0.50781,0.640624 l -2.54297,20.488282 11.76563,9.503906 7.41015,4.183594 c 2.8086,1.652344 4.6211,3.308594 5.44532,4.960937 1.83984,3.640625 5.61718,6.855469 11.32812,9.644531 6.58594,3.308594 10.19531,6.167969 10.82422,8.578126 l 0.94141,1.207031 1.30859,2.761719 0.87109,2.554687 c 0.72657,0.04687 1.08985,0.234375 1.08985,0.566406 l -0.65235,0.355469 h -0.14843 l 0.29296,1.0625 c 0.58204,1.277344 0.91797,4.347656 1.01563,9.21875 l -0.50781,6.167969 -0.0742,3.898437 0.36328,2.128906 0.4375,0.566407 -0.4375,0.636719 v 5.105468 l 0.4375,0.566406 -0.36328,0.640626 0.14453,1.273437 0.87109,5.531255 c 0.29297,1.9375 0.72657,3.61718 1.3086,5.03515 l 0.58203,6.73438 c 0.24219,1.84375 0.53125,3.33203 0.87109,4.46875 l 0.14453,1.41797 0.72657,12.6914 c 0.0977,2.83594 0.0234,4.58594 -0.21875,5.24609 l 1.45312,20.34766 c 0.28906,4.82422 1.67188,9.21875 4.14063,13.1875 2.27343,3.64063 3.4375,6.26563 3.48437,7.87109 0.58203,2.31641 1.57422,9.07813 2.97656,20.27735 l 1.67188,5.25 h 4.86719 c 0.28906,0 0.57812,0.23437 0.87109,0.70703 l 1.08984,3.12109 0.0703,0.28125 2.61718,6.8086 c 1.16016,3.40234 1.74219,6.64062 1.74219,9.71484 0,0.89453 -0.14453,1.46484 -0.4375,1.69922 l -2.83203,1.77344 -0.65234,-0.71094 v -0.0703 c -1.45313,-1.51172 -2.375,-2.71875 -2.76172,-3.61328 l -1.16016,-0.0742 -1.30859,0.21484 -0.0703,-0.21484 -2.76171,-0.28125 -0.36329,-0.14063 -7.91406,-0.0742 -3.41406,-0.21093 -2.6875,1.34765 -0.29297,-0.0703 2.90625,5.17578 c 0.0977,0.42578 -0.24219,0.63672 -1.01562,0.63672 -1.59766,0 -3.09766,-0.875 -4.50391,-2.625 l -1.74219,-2.69141 -0.0742,-0.14453 -0.21484,-0.21094 h 0.0703 l -0.21875,-0.42578 -0.21484,-0.49609 c -1.55078,-1.75 -3.34375,-5.95703 -5.375,-12.62109 0,-0.56641 0.0703,-0.94532 0.21875,-1.13282 0.0469,-1.04297 0.26562,-1.72656 0.65234,-2.05859 l 0.72656,-0.63672 -1.89062,-3.12109 h 0.29297 l -0.0742,-0.21094 h -0.28906 l -5.23047,-10.70703 c -0.77344,-1.41797 -1.6211,-3.73438 -2.54297,-6.94922 l -2.90234,-5.38672 c -0.58204,-0.61719 -1.01954,-1.82031 -1.3086,-3.61719 l -0.87109,-6.52343 c -0.28906,-1.17969 -0.33985,-2.92969 -0.14453,-5.2461 l 0.0703,-5.3164 -3.70313,-9.14844 c -0.6289,-0.14063 -1.33203,-0.85156 -2.10546,-2.125 l -0.65235,-0.99219 -0.50781,-0.99609 -0.875,-1.91407 0.0742,-0.63671 -0.8711,-2.05469 c 0.0469,-0.0977 0.1211,-0.14453 0.21875,-0.14453 l -2.39843,-3.61328 c -0.33985,0 -0.50782,0.1875 -0.50782,0.5664 l 0.14454,0.42578 m 0.72656,1.34766 -0.28906,0.14062 -0.14454,-0.85156 0.4336,0.71094 m 36.24219,63.38672 h 9.4414 l -0.0742,-0.14453 h 1.16016 l 0.0742,0.14453 h 1.23437 l -1.16015,-4.75391 c -0.39063,-1.65234 -0.99219,-5.36328 -1.81641,-11.1289 l -1.23437,-10 0.0703,-0.21094 c -0.8711,-2.50391 -2.12891,-5.01172 -3.77344,-7.51563 -1.83984,-2.78906 -3.00391,-5.8125 -3.48828,-9.07422 -1.11328,-7.375 -1.66797,-13.44921 -1.66797,-18.22265 v -3.54688 c 0,-1.08593 0.0703,-1.91406 0.21484,-2.48047 -0.28906,-0.70703 -0.48437,-2.57421 -0.57812,-5.60156 l -0.14844,-9.28906 -0.72656,-4.67969 -1.52344,-10.42187 0.0742,-0.42578 C 195.125,104.32031 194.34766,100.44531 193.91406,96 h -0.80078 c -3.92187,0 -7.40625,-1.511719 -10.45703,-4.535156 l -4.06641,-5.390625 c -0.48437,-0.613281 -0.99218,-2.316407 -1.52734,-5.105469 -0.48438,-2.597656 -0.72656,-4.605469 -0.72656,-6.023438 0,-2.835937 0.70312,-5.886718 2.10937,-9.148437 0,-0.378906 1.25781,-1.75 3.77344,-4.113281 1.89062,-1.84375 3.53516,-3.046875 4.94141,-3.613282 l -9.51563,-6.808593 9.66016,6.453125 1.01562,-0.07031 c -2.46875,-2.695312 -5.66406,-4.964843 -9.58594,-6.808593 -3.92187,-1.890626 -7.69921,-5.128907 -11.32812,-9.710938 -1.11328,-1.46875 -5.76172,-4.847656 -13.94531,-10.140625 -6.05078,-3.96875 -9.58594,-6.808594 -10.60547,-8.507813 l -0.28906,-0.851562 0.28906,-0.496094 -0.0703,-0.921875 c 0.82421,-8.320312 1.5,-14.039062 2.03125,-17.160156 l -4.71875,3.757813 c -4.98829,2.839843 -8.375,4.609374 -10.16797,5.320312 -3.58203,1.464844 -6.34375,2.765625 -8.27735,3.898438 l -3.05078,0.285156 h -0.14453 c -0.48437,-0.566406 -1.04297,-0.921875 -1.67187,-1.066406 l -7.55469,-6.308594 c 0.24219,1.796875 0.39062,4.632812 0.4375,8.507812 0,3.972656 -0.84766,5.957032 -2.54297,5.957032 l -5.30078,3.117187 h 1.59766 c -3.48438,1.46875 -8.425786,3.097656 -14.816411,4.894531 -3.871094,0.992188 -7.578125,2.269532 -11.109375,3.828125 l -0.582032,0.425781 0.652344,-0.07031 1.890625,-0.140625 c 0.578125,0 0.871094,0.210937 0.871094,0.636719 0,0.28125 -2.253906,0.851562 -6.753906,1.699218 l -5.667969,3.191407 -0.433594,-0.351563 c -2.519531,1.890625 -4.503906,3.636719 -5.957031,5.246094 0.679687,0.519531 1.355469,1.605469 2.035156,3.261719 L 64.496094,52.75 65.875,59.0625 66.09375,58.777344 c 1.597656,-1.890625 2.757812,-3.09375 3.484375,-3.617188 l 0.652344,-0.351562 h 1.671875 c 10.023437,-0.472656 15.371094,0.898437 16.050781,4.109375 l 0.945313,-1.488281 c 0.820312,-0.753907 2.175781,-1.132813 4.066406,-1.132813 1.453125,0 2.175781,2.03125 2.175781,6.097656 l -0.214844,3.757813 -0.07422,0.355468 v 0.140626 L 94.5625,68.066406 v 0.07031 c 0,1.085937 -1.140625,2.199219 -3.414062,3.332031 l -3.632813,3.050781 -0.07031,0.992188 c 0,2.835937 -0.824218,4.464843 -2.46875,4.890625 l 0.214844,1.277344 0.511719,2.125 c -0.292969,1.988281 -0.65625,2.980468 -1.089844,2.980468 l -0.148437,-0.07031 c -1.5,2.03125 -4.742188,3.09375 -9.730469,3.1875 L 73.863281,90.1875 72.628906,89.902344 71.976562,89.761719 c -0.679687,0 -1.671874,0.496093 -2.980468,1.488281 l 3.851562,3.261719 1.667969,1.773437 c 0,0.472656 -0.265625,0.710938 -0.796875,0.710938 l -1.816406,-1.277344 -0.4375,-0.140625 -2.394532,-1.988281 -0.871093,-0.921875 c 0.582031,1.089843 1.066406,2.910156 1.453125,5.460937 l 0.214844,1.417969 2.109374,5.886715 c 0.726563,2.3125 1.234376,4.75 1.523438,7.30079 0.289062,2.55468 1.332031,7.32812 3.125,14.32421 l 0.722656,3.96875 0.726563,8.29688 0.511719,6.73437 0.144531,6.66407 c 0,3.12109 -0.292969,6.1914 -0.871094,9.21875 l -0.363281,5.46093 -0.07422,0.99219 c 0.53125,0.14063 0.726563,0.99219 0.582031,2.55078 l -0.726562,13.75391 0.07031,0.85156 -1.667968,7.94141 -0.4375,4.53906 -0.433594,2.125 c 0.578125,0 1.910156,0.49609 3.992187,1.48828 1.984375,0.28516 3.898438,0.78125 5.738281,1.49219 l 9.222657,2.62109 2.46875,0.35547 0.511719,0.56641 0.652343,-0.42578 13.652352,1.20703 11.18359,1.6289 3.70703,0.4961 19.53516,0.57031 c 2.71093,0 6.67968,-1.01953 11.91015,-3.05078 l 8.85938,-5.17578 0.58203,-8.15235 -3.26953,-7.30468 -2.17969,-7.23047 c -0.57813,-1.89063 -0.91797,-4.32422 -1.01563,-7.30469 -0.77343,-3.40234 -1.16015,-5.78906 -1.16015,-7.16016 0,-0.3789 0.14453,-0.61328 0.43359,-0.71093 l 1.08985,-15.10157 c 0.48437,-0.0469 0.72656,-0.30468 0.72656,-0.77734 0,-0.28516 -0.21875,-0.51953 -0.65235,-0.71094 l 0.28907,-4.89062 1.30859,-8.65235 1.08984,-2.33984 c -0.0977,-0.51953 -0.3164,-0.77734 -0.65625,-0.77734 l 0.80079,-4.53907 c 0.0977,-1.70312 0.24218,-2.97656 0.43359,-3.82812 l -0.36328,-0.78125 v -0.92188 c 0,-1.22656 0.53515,-4.34765 1.59765,-9.35937 -0.33593,-4.25391 -0.0703,-7.37109 0.80079,-9.35938 l 3.26953,-7.585934 -0.14844,-0.28125 -0.0703,-0.921875 0.58203,-3.757812 c 0.43359,-2.414063 0.87109,-3.617188 1.30469,-3.617188 0.4375,0 0.65625,0.257813 0.65625,0.78125 l -0.4375,3.472657 c 1.98437,-4.539063 3.12109,-6.808594 3.41406,-6.808594 0.43359,0 0.65234,0.238281 0.65234,0.710937 l -0.50781,1.628907 c -0.48438,0.05078 -0.72656,0.308593 -0.72656,0.78125 v 1.0625 L 167.1875,103.375 c -0.33984,1.03906 -0.48438,2.625 -0.4375,4.75 l -0.28906,4.89453 -1.45313,8.01172 c 0.53125,0.0469 0.72656,0.68359 0.58203,1.91406 0,2.41016 -0.58203,6.14453 -1.74218,11.20313 v 0.42578 l 0.43359,1.20312 v 0.92188 l 0.80078,1.91406 0.21484,0.92188 1.01954,1.5625 0.36328,-0.14454 1.45312,3.19141 0.35938,0.63672 v 0.35547 l 0.65625,1.63281 0.21875,0.35156 -0.0742,0.14453 0.14453,0.42579 0.29297,-0.14454 0.28906,0.21485 0.65234,1.0625 0.50782,0.99219 c 2.71093,5.57812 4.16406,9.07421 4.35937,10.49218 0.24219,2.26953 0.21875,5.81641 -0.0742,10.63672 l 1.01953,5.31641 1.37891,4.53906 3.92188,9.07422 c 2.71093,6.62109 4.91406,11.53516 6.60937,14.75 h 0.28906 l 0.0742,0.21094 h 0.21485 l 0.21875,0.28515 1.30859,1.77344 c 0.72656,-0.51953 1.35547,-0.82812 1.88672,-0.92187 l 1.08984,-0.57032 v -0.42187 h 4.57422 l 0.0742,0.14062 0.28906,0.21094 0.51172,-0.21094 0.14453,-0.14062 h 0.0703 l 0.14844,0.14062 0.35938,0.21094 0.51172,-0.21094 v -0.14062 m -99.5,-81.96484 c 0.72656,-0.94532 1.40625,-1.41797 2.03515,-1.41797 0.53125,0 0.80078,0.21093 0.80078,0.63672 l -4.867184,7.73046 -2.761718,7.23047 h -0.07031 c -0.292969,0 -0.507813,0.14453 -0.65625,0.42578 l -0.289063,-0.5664 v -0.71094 c 0,-0.84766 0.871094,-3.35547 2.613282,-7.51563 0.875,-2.12499 1.71875,-3.75781 2.542963,-4.89062 l 0.65235,-0.78125 v -0.14062 m 53.59765,24.67578 h -0.14453 l -0.72656,-0.78125 2.6875,-3.82813 0.65625,-2.05859 c 0.28906,-0.99219 0.72265,-1.48828 1.30469,-1.48828 l 0.4375,0.14062 0.14453,0.14453 0.0742,0.14063 v 0.21484 c -1.11719,3.49609 -2.17969,5.78906 -3.19922,6.875 -0.4336,0.37891 -0.84375,0.58984 -1.23438,0.64063 m 7.77344,-98.699222 -3.41406,0.921874 -5.08203,-0.140624 -5.08594,0.496093 c -0.62891,0.285157 -4.06641,0.355469 -10.3125,0.214844 l -4.42969,0.707031 c -1.25781,0.1875 -2.58984,0.828125 -3.99609,1.914063 l -0.8711,0.710937 h -0.14453 c -0.6289,0 -0.94531,0.234375 -0.94531,0.707032 l 0.0742,0.140624 -0.14453,0.07422 -0.72656,-0.851562 c 0,-0.472657 0.67578,-1.230469 2.03124,-2.269531 1.35547,-0.992188 2.39844,-1.535157 3.125,-1.632813 l 19.46485,-1.628906 10.45703,0.636719 m 15.75781,25.953124 c 0,3.96875 0.72656,7.492188 2.17969,10.5625 2.61328,5.625 7.21484,8.554688 13.80078,8.792969 l -0.21875,-4.679687 h -0.4375 c -3.14453,0 -6.41406,-1.84375 -9.80469,-5.53125 -1.0625,-1.277344 -1.59765,-3.496094 -1.59765,-6.664063 0,-3.308593 0.41406,-5.625 1.23437,-6.949219 0.14453,-0.425781 1.3086,-1.417968 3.48828,-2.976562 2.22657,-1.609375 4.16407,-2.53125 5.8086,-2.765625 l -0.72657,-2.269531 -2.6875,-3.402344 -5.51953,3.046875 -3.48437,4.253906 c -1.35547,2.554688 -2.03516,5.414063 -2.03516,8.582031 m 16.125,-2.199218 c -0.14453,-2.550782 -0.50781,-4.46875 -1.08984,-5.742188 l -0.2187,-1.066407 c -0.48438,0.144531 -1.01563,0.355469 -1.59766,0.640625 l -2.97656,1.203125 c -0.96875,0.425781 -2.13281,1.492188 -3.48828,3.191406 -0.91797,1.136719 -1.37891,3.332032 -1.37891,6.59375 0,6.664063 3.4375,10.140625 10.3125,10.421875 v -1.699219 l 0.0742,-0.285156 -0.0742,-0.425781 v -6.167969 l 0.50781,-3.472656 v -2.058594 l -1.59765,0.851563 c -1.5,0.804687 -2.25,1.65625 -2.25,2.554687 0,1.320313 0.6289,2.339844 1.88672,3.046875 0,0.519531 -0.26563,0.78125 -0.79688,0.78125 -1.16406,0 -1.9375,-0.640625 -2.32422,-1.914062 l -0.21875,-1.988281 c 0,-0.753907 0.38672,-1.605469 1.16407,-2.550782 1.01562,-1.277344 2.32031,-1.914062 3.92187,-1.914062 h 0.14453 M 128.40625,35.875 l -0.4375,-0.566406 c 0,-1.417969 1.04297,-4.300782 3.125,-8.648438 l 0.0703,-0.144531 h 0.4375 l -0.14453,-0.421875 c 0,-0.523438 0.23828,-0.78125 0.72266,-0.78125 l 0.65625,0.285156 -0.0742,0.28125 0.14453,0.566406 v 0.07031 l -0.43359,0.285156 -2.25391,7.375 -1.8125,1.699219 m 6.82422,-3.1875 1.01953,-2.128906 c 0.77344,-1.371094 1.37891,-2.054688 1.8125,-2.054688 0.39062,0 0.63281,0.234375 0.72656,0.707032 L 135.95703,33.75 c -0.38672,0 -0.62891,-0.164062 -0.72656,-0.496094 V 32.6875 m -11.10938,12.121094 -1.30859,0.710937 -0.72656,-0.78125 0.72656,-0.921875 c 0.58203,-0.519531 1.16406,-0.777344 1.74219,-0.777344 0.4375,0 0.65625,0.234376 0.65625,0.707032 l -1.08985,1.0625 m -22.66015,0.570312 2.03515,-0.07422 2.17579,0.144531 c 0.39062,-0.425781 1.23437,-0.332031 2.54296,0.28125 l 1.01563,0.496093 3.125,1.773438 c 2.22656,2.363281 3.33984,3.78125 3.33984,4.253906 0,0.570313 -0.24218,0.851563 -0.72656,0.851563 -1.64453,-2.222657 -2.92969,-3.640625 -3.84766,-4.253907 -1.79296,-1.230468 -5.47265,-2.03125 -11.03906,-2.410156 -4.890624,-0.285156 -7.335936,-0.660156 -7.335936,-1.136718 0,-0.421876 0.53125,-0.636719 1.597656,-0.636719 l 2.179688,0.285156 4.937502,0.425781 m 17.35937,35.875 -0.65625,0.636719 c -0.38672,0 -0.65234,-0.753906 -0.79687,-2.265625 l -0.14844,-2.484375 c 0.33984,-1.371094 0.48438,-3.117187 0.4375,-5.246094 -0.24219,-3.167969 0.14453,-4.84375 1.16406,-5.035156 l -0.0742,0.285156 0.79688,1.207031 -0.43359,2.410157 v 3.191406 l -0.21875,6.308594 v 0.636719 l -0.21875,0.214843 0.14843,0.140625 m -6.46484,11.984375 c -3.39063,3.921875 -5.51953,6.074219 -6.39063,6.449219 -7.117184,2.742192 -11.476559,4.113282 -13.074215,4.113282 l -0.871094,-0.70703 c 0,-0.19141 4.140625,-1.65625 12.417969,-4.39844 1.26172,-0.425781 2.61719,-1.605468 4.06641,-3.542968 1.26172,-1.75 2.27734,-2.625 3.05078,-2.625 0.53515,0 0.80078,0.238281 0.80078,0.710937 m 38.19922,9.781251 v 0.14453 c 0,0.70703 -1.5,1.0625 -4.5,1.0625 l -4.28516,0.35547 c -3.00391,0 -5.08594,-0.33203 -6.24609,-0.99219 l -5.15625,-4.468748 c -3.4375,-3.355469 -5.15625,-5.339844 -5.15625,-5.957032 0,-0.472656 0.26562,-0.707031 0.79687,-0.707031 l 5.01172,5.386719 c 3.29297,3.546882 6.875,5.320312 10.75,5.320312 l 3.92188,-0.35547 3.12109,-0.35546 1.52344,0.5664 h 0.21875 M 59.992188,47.71875 55.925781,53.105469 c 0.484375,0.191406 0.992188,0.613281 1.523438,1.277343 l 1.527343,2.125 c 0.917969,0.992188 1.378907,2.175782 1.378907,3.546876 0,4.539062 -1.527344,8.152343 -4.574219,10.847656 -2.664062,2.316406 -5.761719,3.472656 -9.296875,3.472656 -1.550781,0 -2.808594,-0.304688 -3.777344,-0.921875 L 42.199219,72.957031 41.691406,73.3125 c -1.5,0.898438 -2.542968,1.65625 -3.125,2.269531 l 1.164063,0.707031 c 1.453125,0.996094 2.566406,1.492188 3.339843,1.492188 4.597657,0 8.328126,-0.921875 11.183594,-2.765625 l 6.464844,-8.792969 -0.144531,-0.707031 2.25,-2.058594 -0.21875,-0.140625 0.871093,-1.277344 0.945313,-1.203124 0.144531,-0.851563 -1.523437,-6.949219 -2.6875,-5.742187 -0.363281,0.425781 m -5.011719,6.664062 -1.160157,1.558594 -0.363281,0.566406 c -0.871093,0.664063 -1.769531,1.632813 -2.6875,2.910157 l -0.507812,0.777343 c -1.308594,1.464844 -2.15625,2.742188 -2.542969,3.828126 l 0.652344,0.78125 c 0.386718,0.710937 1.042968,1.0625 1.960937,1.0625 1.5,0 2.496094,-1.132813 2.976563,-3.402344 -0.628906,-0.660156 -0.941406,-1.230469 -0.941406,-1.703125 0,-0.472657 0.265624,-0.707031 0.796874,-0.707031 0.824219,0 1.382813,0.730468 1.671876,2.199218 -0.582032,3.449219 -2.082032,5.175782 -4.503907,5.175782 -1.210937,0 -2.203125,-0.449219 -2.976562,-1.347657 l -0.21875,-0.285156 -1.597657,3.402344 -2.03125,3.050781 0.289063,0.140625 2.832031,0.496094 c 4.164063,0 7.382813,-1.605469 9.660156,-4.820313 1.742188,-2.457031 2.613282,-5.105468 2.613282,-7.941406 0,-1.179688 -0.773438,-2.597656 -2.324219,-4.253906 L 54.980469,54.382812 M 42.125,79.199219 C 41.15625,78.960938 40.019531,78.371094 38.710938,77.425781 L 37.625,76.644531 35.445312,79.054688 34.71875,79.976562 31.378906,84.019531 C 30.601562,85.625 29.34375,87.515625 27.601562,89.691406 l -3.125,5.390625 -1.304687,1.914063 v 0.351562 l -0.871094,1.417969 c 0.433594,-0.28125 0.847657,-0.496094 1.234375,-0.636719 l 0.507813,-0.210937 1.886719,-0.5 v -0.421875 c 0.144531,-0.144532 0.386718,-0.214844 0.726562,-0.214844 l 0.65625,0.140625 c 6.921875,-3.683594 11.8125,-6.167969 14.667969,-7.441406 l -0.652344,-0.425781 c 4.695313,-4.113282 8.328125,-7.847657 10.894531,-11.203126 -2.421875,0.851563 -5.085937,1.324219 -7.992187,1.417969 H 43.796875 C 43.75,78.796875 43.53125,78.558594 43.144531,78.558594 c -0.484375,0 -0.824219,0.214844 -1.019531,0.640625 m 2.105469,0.140625 v 0.210937 l -0.144531,-0.07031 0.144531,-0.140625 m 28.542969,13.542968 -0.07031,0.07031 0.289063,-1.347656 v 0.851562 l -0.21875,0.425781 m 9.441406,7.300779 c 0,-0.472653 0.265625,-0.707029 0.800781,-0.707029 0.96875,0 1.8125,0.472657 2.539063,1.417969 0,0.51953 -0.242188,0.78125 -0.726563,0.78125 -1.742187,0 -2.613281,-0.5 -2.613281,-1.49219 m -60.570313,18.86329 v 0.28125 l 0.363281,0.14062 c 6.875,9.3125 11.257813,13.96875 13.144532,13.96875 1.019531,0 2.203125,-0.66016 3.558594,-1.98438 l -0.07031,-0.0703 4.574219,-3.75781 c 3.050781,-2.45703 4.574218,-4.63281 4.574218,-6.52344 0,-0.99218 -2.515624,-4.23047 -7.550781,-9.71484 l -0.726562,-0.77734 0.07422,-0.57032 -0.511719,-0.70703 -0.289063,0.4961 C 34.671875,105.43359 30.773438,101.625 27.09375,98.414062 l -4.066406,2.124998 h -0.07422 v 0.35547 l -1.523437,0.35547 -0.07422,0.14063 -1.816407,0.85156 -0.652343,-0.14453 c -1.210938,0.52343 -2.035157,1.08984 -2.46875,1.70312 l -2.105469,2.33985 c -0.390625,0.3789 -0.582031,0.94531 -0.582031,1.70312 l 7.914062,11.20313 m 59.191407,20.13281 6.316406,10.14062 c 0,0.61328 -0.265625,0.92188 -0.796875,0.92188 -0.339844,0 -2.445313,-3.44922 -6.320313,-10.35157 0,-0.47265 0.269532,-0.71093 0.800782,-0.71093 m 59.042974,-3.96875 0.29296,-0.71094 -0.72656,-0.77734 -1.67187,-3.26172 -2.25,-3.26172 -8.71485,-6.3125 -0.29296,-0.21094 c 0,-0.47265 0.29296,-0.70703 0.87109,-0.70703 1.40625,0 4.82031,2.36328 10.24219,7.08984 l 3.33984,7.01953 c 0,0.75391 -0.3125,1.13282 -0.94531,1.13282 h -0.14453 m -26.50782,-12.97656 -0.0703,0.28515 0.57813,1.34766 -0.0703,1.48828 -0.36328,8.29687 -0.21875,6.94532 -0.28906,0.85156 0.0703,0.0703 -0.21875,0.28516 c -0.72656,0 -0.99218,-2.36328 -0.79687,-7.08985 -0.0508,-2.88281 0.0234,-4.98828 0.21875,-6.3125 l -0.0742,-3.75781 c 0.0469,-1.65234 0.38672,-2.48047 1.01562,-2.48047 l 0.21875,0.0703 m 0.65235,31.48046 1.16406,3.26172 c 0.0977,1.23047 0.38672,2.67188 0.87109,4.32813 l 0.28907,2.19531 -0.0703,0.64062 v 0.28125 l -0.21875,0.21485 0.28907,0.35156 -0.57813,0.21484 c -0.53515,0 -0.89844,-0.75781 -1.08984,-2.26953 l -0.36328,-3.1914 -1.3086,-5.38672 c 0,-0.47266 0.26563,-0.71094 0.80078,-0.71094 l 0.21485,0.0703 m 0.29297,17.23047 c 0.77343,0 1.35547,0.73438 1.74218,2.19922 0,0.47266 -0.24218,0.70703 -0.72656,0.70703 l -1.8164,-2.19531 c 0,-0.47266 0.26562,-0.71094 0.80078,-0.71094 m 107.6289,46.44141 -0.0703,-0.14063 -1.16406,-3.6875 c -0.53125,-1.27734 -1.1875,-2.1289 -1.96094,-2.55468 l -1.08984,-4.53516 -0.57813,-0.21484 h -6.17578 l -0.28906,0.0703 -0.14453,-0.0703 h -0.36329 l -0.65625,-0.14063 -1.66796,0.14063 h -7.19141 l -0.21875,-0.28125 -0.36328,-0.0703 -0.57813,0.35157 -4.28515,-0.0703 c -0.62891,0.37891 -1.1875,0.73438 -1.67188,1.0625 l -1.8164,1.13672 0.21875,0.28125 c 0,0.47266 -0.16797,0.71094 -0.50782,0.71094 l -0.94531,-0.35547 -0.50781,0.21484 c -0.62891,0.66016 -0.96875,1.44141 -1.01563,2.33985 l 4.57422,10.5625 0.29297,0.85156 c 0.48047,0.0937 0.84375,0.44922 1.08594,1.0625 l 0.72656,-0.70703 h 0.50781 l 0.29297,-0.0703 -0.36328,-0.14453 4.14063,-0.35547 0.28906,-0.0703 0.14453,0.0703 h 0.0742 v -0.0703 h 1.23437 l 0.79688,0.35547 0.80078,-0.42578 h 1.23437 l 13.28907,1.0625 0.21875,-0.14062 h 0.0742 l -0.0742,-0.14063 0.58203,-0.14062 h 0.0703 l 0.65625,-0.14453 c 1.01563,0 2.46875,0.51953 4.35547,1.5625 v -0.4961 l -0.72656,-2.76562 -1.01563,-3.97266 v -0.0703 l -0.50781,-1.62891 0.28906,1.48828 v 0.14063 m 1.3086,8.72265 0.21875,-0.28515 c -1.06641,-0.66016 -1.9375,-1.0625 -2.61719,-1.20703 h -1.08985 l 1.81641,2.83593 0.65625,-0.42187 1.08594,-0.85156 0.0742,-0.0703 h -0.14453 m -51.85547,-45.66406 -0.14453,-0.77734 h 0.14453 v 0.77734 m 24.76562,44.17188 -1.08984,0.64062 v 0.0703 l 3.55859,4.04297 c -1.0664,-2.3164 -1.64453,-3.90234 -1.74219,-4.7539 h -0.72656 M 20.339844,100.04297 h -0.21875 0.21875 m 3.339844,23.46875 -1.816407,-2.19922 -5.445312,-7.23047 -3.125,-4.67969 -4.429688,5.38672 c -3.148437,4.53907 -4.839843,7.1875 -5.082031,7.94141 l -0.292969,1.13672 -1.960937,6.3789 1.671875,4.1836 c 2.082031,3.5 4.503906,5.24609 7.261719,5.24609 2.082031,0 3.632812,-0.58984 4.648437,-1.76953 l 0.144531,-0.14453 v -0.35156 l -0.07031,-0.21485 0.796875,-0.21094 c 0.582031,-0.5664 1.042969,-0.85156 1.378906,-0.85156 0.390625,0 0.582031,0.21094 0.582031,0.63672 v 0.0703 l 8.496094,-0.49609 c 0.777344,-0.0469 1.574219,-0.35156 2.398438,-0.92188 l 2.394531,-2.26562 v -0.42578 l 0.292969,-0.0703 -3.125,-3.26172 -3.339844,-4.1836 -1.378906,-1.70312"
     id="path2" />
  <path
     style="fill:#3a383f;fill-opacity:1;fill-rule:evenodd;stroke:none"
     d="m 94.925781,66.152344 0.214844,-3.757813 c 0,-4.066406 -0.722656,-6.097656 -2.175781,-6.097656 -1.890625,0 -3.246094,0.378906 -4.066406,1.132813 l -0.945313,1.488281 C 87.273438,55.707031 81.925781,54.335938 71.902344,54.808594 h -1.671875 l -0.652344,0.351562 c -0.726563,0.523438 -1.886719,1.726563 -3.484375,3.617188 L 65.875,59.0625 64.496094,52.75 63.550781,49.136719 c -0.679687,-1.65625 -1.355469,-2.742188 -2.035156,-3.261719 1.453125,-1.609375 3.4375,-3.355469 5.957031,-5.246094 l 0.433594,0.351563 5.667969,-3.191407 c 4.5,-0.847656 6.753906,-1.417968 6.753906,-1.699218 0,-0.425782 -0.292969,-0.636719 -0.871094,-0.636719 l -1.890625,0.140625 -0.652344,0.07031 0.582032,-0.425781 c 3.53125,-1.558593 7.238281,-2.835937 11.109375,-3.828125 6.390625,-1.796875 11.332031,-3.425781 14.816411,-4.894531 h -1.59766 l 5.30078,-3.117187 c 1.69531,0 2.54297,-1.984376 2.54297,-5.957032 -0.0469,-3.875 -0.19531,-6.710937 -0.4375,-8.507812 l 7.55469,6.308594 c 0.6289,0.144531 1.1875,0.5 1.67187,1.066406 h 0.14453 l 3.05078,-0.285156 c 1.9336,-1.132813 4.69532,-2.433594 8.27735,-3.898438 1.79297,-0.710938 5.17968,-2.480469 10.16797,-5.320312 l 4.71875,-3.757813 c -0.53125,3.121094 -1.20704,8.839844 -2.03125,17.160156 l 0.0703,0.921875 -0.28906,0.496094 0.28906,0.851562 c 1.01953,1.699219 4.55469,4.539063 10.60547,8.507813 8.18359,5.292969 12.83203,8.671875 13.94531,10.140625 3.62891,4.582031 7.40625,7.820312 11.32812,9.710938 3.92188,1.84375 7.11719,4.113281 9.58594,6.808593 l -1.01562,0.07031 -9.66016,-6.453125 9.51563,6.808593 c -1.40625,0.566407 -3.05079,1.769532 -4.94141,3.613282 -2.51563,2.363281 -3.77344,3.734375 -3.77344,4.113281 -1.40625,3.261719 -2.10937,6.3125 -2.10937,9.148437 0,1.417969 0.24218,3.425782 0.72656,6.023438 0.53516,2.789062 1.04297,4.492188 1.52734,5.105469 l 4.06641,5.390625 C 185.70703,94.488281 189.19141,96 193.11328,96 h 0.80078 c 0.4336,4.44531 1.21094,8.32031 2.32422,11.62891 l -0.0742,0.42578 1.52344,10.42187 0.72656,4.67969 0.14844,9.28906 c 0.0937,3.02735 0.28906,4.89453 0.57812,5.60156 -0.14453,0.56641 -0.21484,1.39454 -0.21484,2.48047 v 3.54688 c 0,4.77344 0.55469,10.84765 1.66797,18.22265 0.48437,3.26172 1.64844,6.28516 3.48828,9.07422 1.64453,2.50391 2.90234,5.01172 3.77344,7.51563 l -0.0703,0.21094 1.23437,10 c 0.82422,5.76562 1.42578,9.47656 1.81641,11.1289 l 1.16015,4.75391 h -1.23437 l -0.0742,-0.14453 h -1.16016 l 0.0742,0.14453 h -9.4414 v -0.14453 h 3.48437 l -1.16016,-2.69141 -3.19531,-6.94922 c -2.47265,-3.6875 -4.09375,-6.26562 -4.86719,-7.73047 -2.71093,-4.86718 -4.52734,-7.42187 -5.44921,-7.65625 l -4.57422,-7.01953 c 0.4375,0.23828 1.9375,1.27735 4.5039,3.1211 1.69532,1.22656 2.97657,1.84375 3.84766,1.84375 0.62891,0 0.94531,-0.23829 0.94531,-0.71094 l -2.32422,-4.75 -1.01562,-4.75 c -1.06641,-4.39844 -1.67188,-7.60938 -1.81641,-9.64453 -0.72656,-4.39453 -1.11328,-7.5625 -1.16406,-9.5 l -0.57813,-4.82032 -1.16406,-2.83593 -0.21875,-1.27735 c -0.77344,-4.16015 -1.44922,-7.01953 -2.03125,-8.57812 -1.59765,-3.26172 -2.58984,-5.76953 -2.97656,-7.51563 l -2.32422,-7.51562 -0.51172,-3.75781 -0.72265,-3.75782 c -0.29297,-1.46484 -0.48438,-3.99609 -0.58204,-7.58593 l 0.0703,-9.429691 c -0.0469,-3.785157 -0.53125,-5.675781 -1.44922,-5.675781 h -0.0742 l 0.50781,-1.628907 c 0,-0.472656 -0.21875,-0.710937 -0.65234,-0.710937 -0.29297,0 -1.42969,2.269531 -3.41406,6.808594 l 0.4375,-3.472657 c 0,-0.523437 -0.21875,-0.78125 -0.65625,-0.78125 -0.4336,0 -0.8711,1.203125 -1.30469,3.617188 l -0.58203,3.757812 0.0703,0.921875 0.14844,0.28125 -3.26953,7.585934 c -0.8711,1.98829 -1.13672,5.10547 -0.80079,9.35938 -1.0625,5.01172 -1.59765,8.13281 -1.59765,9.35937 v 0.92188 l 0.36328,0.78125 c -0.19141,0.85156 -0.33594,2.125 -0.43359,3.82812 l -0.80079,4.53907 h -0.0703 c -3.14844,5.33984 -4.72265,8.10546 -4.72265,8.29296 l 0.4375,0.56641 -0.4375,-0.14062 c -0.58204,0 -1.01563,0.49609 -1.30469,1.48828 l -0.65625,2.05859 -2.6875,3.82813 0.72656,0.78125 h 0.14453 c 0,0.23437 0.96875,0.51953 2.90625,0.84765 l 3.41406,0.42578 h 0.14454 l -1.08985,15.10157 c -0.28906,0.0977 -0.43359,0.33203 -0.43359,0.71093 0,1.3711 0.38672,3.75782 1.16015,7.16016 0.0977,2.98047 0.4375,5.41406 1.01563,7.30469 l 2.17969,7.23047 3.26953,7.30468 -0.58203,8.15235 -8.85938,5.17578 c -5.23047,2.03125 -9.19922,3.05078 -11.91015,3.05078 l -19.53516,-0.57031 -3.70703,-0.4961 -11.18359,-1.6289 -13.652349,-1.20703 0.07031,-0.4961 -1.015625,-6.66406 -0.945313,-6.94922 c 0,-2.41016 0.753906,-5.45703 2.253906,-9.14453 0.484376,-1.46484 1.742188,-3.40234 3.777351,-5.81641 l 2.83203,-3.54297 -1.3086,-6.45312 -1.45312,-4.75 c -0.14453,-1.65625 -1.52344,-4.79688 -4.140629,-9.42969 -0.386719,-0.66406 -0.796875,-2.26953 -1.234375,-4.82031 -0.191407,-0.66406 -0.289063,-2.26953 -0.289063,-4.82422 l 0.507813,-5.31641 c 0.144531,-0.5664 -0.04687,-0.85156 -0.582031,-0.85156 l 2.761718,-7.23047 4.867187,-7.73046 c 0,-0.42579 -0.26953,-0.63672 -0.80078,-0.63672 -0.6289,0 -1.30859,0.47265 -2.03515,1.41797 -0.14453,-0.37891 -0.722663,-0.58985 -1.742194,-0.63672 l -0.796875,-0.14453 -4.359375,0.64062 c -4.40625,0 -7.988281,-3.02734 -10.746094,-9.07812 -1.9375,-4.25391 -2.90625,-7.5625 -2.90625,-9.92579 0,-1.27343 0.410156,-2.69531 1.234375,-4.253902 1.015625,-1.890626 2.277344,-3.046876 3.777344,-3.472657 2.421875,-0.757812 4.234375,-1.9375 5.445312,-3.546875 1.066406,-1.417968 1.476563,-2.8125 1.234375,-4.183594 -0.53125,-2.835937 0.292969,-5.71875 2.46875,-8.648437 2.375,-3.167969 3.558594,-5.695313 3.558594,-7.585937 -0.578125,-4.253907 -1.304687,-6.382813 -2.175781,-6.382813 -0.339844,0 -0.582032,0.117187 -0.726563,0.355469 M 199.14062,204.98047 h -0.0703 0.0703 M 127.82422,54.664062 c 0.14453,0.617188 1.62109,0.921876 4.42969,0.921876 4.69531,0 11.08593,-0.777344 19.17187,-2.339844 8.03906,-1.558594 12.05859,-2.789063 12.05859,-3.683594 0.0937,-0.472656 -0.26953,-0.710938 -1.08984,-0.710938 l -0.36328,0.140626 -10.45703,-0.636719 -19.46485,1.628906 c -0.72656,0.09766 -1.76953,0.640625 -3.125,1.632813 -1.35546,1.039062 -2.03124,1.796874 -2.03124,2.269531 l 0.72656,0.851562 0.14453,-0.07422 m 65.94531,18.082032 h 0.14453 -0.14453 m -35.07812,67.214847 -0.0742,-0.14063 0.14453,0.14063 h -0.0703 M 128.40625,35.875 l -0.0742,0.07422 0.87109,0.707031 c 2.71094,0 4.84375,-3.378906 6.39063,-10.140625 h -0.28906 v -0.07031 c -0.0977,-0.898437 -0.58203,-1.347656 -1.45313,-1.347656 -0.53125,0 -0.87109,0.167969 -1.01562,0.5 l -0.65627,-0.28516 c -0.48438,0 -0.72266,0.257812 -0.72266,0.78125 l 0.14453,0.421875 h -0.4375 l -0.0703,0.144531 c -2.08203,4.347656 -3.125,7.230469 -3.125,8.648438 l 0.4375,0.566406 m 4.5,-9.429688 0.0742,0.07031 h -0.0742 v -0.07031 M 101.46094,45.378906 96.523438,44.953125 94.34375,44.667969 c -1.066406,0 -1.597656,0.214843 -1.597656,0.636719 0,0.476562 2.445312,0.851562 7.335936,1.136718 5.56641,0.378906 9.2461,1.179688 11.03906,2.410156 0.91797,0.613282 2.20313,2.03125 3.84766,4.253907 0.48438,0 0.72656,-0.28125 0.72656,-0.851563 0,-0.472656 -1.11328,-1.890625 -3.33984,-4.253906 l -3.125,-1.773438 -1.01563,-0.496093 c -1.30859,-0.613281 -2.15234,-0.707031 -2.54296,-0.28125 l -2.17579,-0.144531 -2.03515,0.07422 m 22.66015,-0.570312 1.08985,-1.0625 c 0,-0.472656 -0.21875,-0.707032 -0.65625,-0.707032 -0.57813,0 -1.16016,0.257813 -1.74219,0.777344 l -0.72656,0.921875 0.72656,0.78125 1.30859,-0.710937 M 135.23047,32.6875 v 0.566406 c 0.0977,0.332032 0.33984,0.496094 0.72656,0.496094 l 2.83203,-4.539062 c -0.0937,-0.472657 -0.33594,-0.707032 -0.72656,-0.707032 -0.43359,0 -1.03906,0.683594 -1.8125,2.054688 l -1.01953,2.128906 m -16.41016,34.171875 c -1.01953,0.191406 -1.40625,1.867187 -1.16406,5.035156 0.0469,2.128907 -0.0977,3.875 -0.4375,5.246094 l 0.14844,2.484375 c 0.14453,1.511719 0.41015,2.265625 0.79687,2.265625 l 0.65625,-0.636719 0.65235,0.566406 c 1.98437,0 2.92968,-3.285156 2.83203,-9.855468 -0.33985,-3.6875 -1.23438,-5.53125 -2.6875,-5.53125 -0.4375,0 -0.70313,0.144531 -0.79688,0.425781 m 7.1875,25.597656 c -0.53125,0 -0.79687,0.234375 -0.79687,0.707031 0,0.617188 1.71875,2.601563 5.15625,5.957032 l 5.15625,4.468746 c 1.16015,0.66016 3.24218,0.99219 6.24609,0.99219 l 4.28516,-0.35547 c 3,0 4.5,-0.35547 4.5,-1.0625 v -0.14453 l 0.50781,-0.70703 c 0,-1.18359 -5.03516,-2.789062 -15.10547,-4.820312 l -8.78515,-5.816407 C 127.07422,91.394531 126.85547,91.25 126.51563,91.25 c -0.53125,0 -0.79688,0.238281 -0.79688,0.710938 v 0.07031 l 0.28906,0.425781 m -13.65234,0.78125 c 0,-0.472656 -0.26563,-0.710937 -0.80078,-0.710937 -0.77344,0 -1.78906,0.875 -3.05078,2.625 -1.44922,1.9375 -2.80469,3.117187 -4.06641,3.542968 -8.277344,2.74219 -12.417969,4.20703 -12.417969,4.39844 l 0.871094,0.70703 c 1.597656,0 5.957031,-1.37109 13.074215,-4.113282 0.8711,-0.375 3,-2.527344 6.39063,-6.449219 m -87.878908,1.84375 3.125,-5.390625 c 1.742188,-2.175781 3,-4.066406 3.777344,-5.671875 l 3.339844,-4.042969 0.726562,-0.921874 2.179688,-2.410157 1.085938,0.78125 c 1.308593,0.945313 2.445312,1.535157 3.414062,1.773438 l -0.144531,0.566406 c -0.675781,0.566406 -1.574219,1.652344 -2.6875,3.261719 l -2.394531,1.558594 -0.726563,0.566406 -0.582031,-0.07031 c -1.402344,0.898438 -3.800782,2.90625 -7.191406,6.027344 l -3.921876,3.972656 m -0.433593,2.835938 -0.507813,0.210937 c -0.386718,0.140625 -0.800781,0.355469 -1.234375,0.636719 l 0.871094,-1.417969 v 0.496094 h 0.796875 l 0.07422,0.07422 m 58.171875,2.265619 c 0,0.99219 0.871094,1.49219 2.613281,1.49219 0.484375,0 0.726563,-0.26172 0.726563,-0.78125 -0.726563,-0.945309 -1.570313,-1.417966 -2.539063,-1.417966 -0.535156,0 -0.800781,0.234376 -0.800781,0.707026 M 21.644532,119.04688 13.73047,107.84375 c 0,-0.75781 0.191406,-1.32422 0.582031,-1.70312 l 2.105469,-2.33985 c 0.433593,-0.61328 1.257812,-1.17969 2.46875,-1.70312 l 0.652343,0.14453 1.816407,-0.85156 0.07422,-0.14063 1.523437,-0.35547 v -0.35547 h 0.07422 l 4.066406,-2.124996 c 3.679688,3.210936 7.578125,7.019526 11.691406,11.414066 -0.582031,1.08593 -1.378906,3.26171 -2.394531,6.52343 -1.503906,3.44922 -3.679687,5.17578 -6.539063,5.17578 -1.839843,0 -3.558593,-0.51953 -5.15625,-1.55859 v -0.0742 c -0.824218,-0.1875 -1.644531,-0.66015 -2.46875,-1.41797 l -0.582031,-0.14062 v 0.71094 m 118.234376,16.16406 h 0.14453 c 0.63281,0 0.94531,-0.37891 0.94531,-1.13282 l -3.33984,-7.01953 c -5.42188,-4.72656 -8.83594,-7.08984 -10.24219,-7.08984 -0.57813,0 -0.87109,0.23438 -0.87109,0.70703 l 0.29296,0.21094 h -0.0742 c -0.58204,0 -0.8711,0.23828 -0.8711,0.71094 0,0.66015 2.00781,2.95312 6.02734,6.8789 4.64844,4.53516 7.16407,6.80469 7.55469,6.80469 l 0.4336,-0.0703 m -26.50782,-12.97656 -0.21875,-0.0703 c -0.6289,0 -0.96875,0.82813 -1.01562,2.48047 l 0.0742,3.75781 c -0.19531,1.32422 -0.26953,3.42969 -0.21875,6.3125 -0.19531,4.72657 0.0703,7.08985 0.79687,7.08985 l 0.21875,-0.28516 0.8711,0.64063 c 2.375,0 3.41406,-3.61719 3.125,-10.84766 l -0.0742,-4.75 c -0.4336,-3.16797 -1.37891,-4.75391 -2.83203,-4.75391 -0.38672,0 -0.62891,0.14454 -0.72657,0.42579 m 2.97657,42.7539 0.0742,0.0742 0.4375,0.35156 h 0.43359 l 0.94531,-0.92187 0.28906,-0.99219 -0.36328,-0.99219 -0.72656,-3.40234 v -0.21485 l -0.21875,-0.70703 -0.14453,-0.49609 c -0.0469,-1.51172 -0.3125,-2.41016 -0.79688,-2.69531 -0.53515,-1.41797 -1.01953,-2.125 -1.45312,-2.125 -0.53125,0 -0.80078,0.23437 -0.80078,0.70703 v 0.14062 l -0.21485,-0.0703 c -0.53515,0 -0.80078,0.23828 -0.80078,0.71094 l 1.3086,5.38672 0.36328,3.1914 c 0.1914,1.51172 0.55469,2.26953 1.08984,2.26953 l 0.57813,-0.21484 m -0.28907,-3.68359 0.36329,1.48828 -0.0742,0.70703 -0.28907,-2.19531 m 94.05078,44.94922 h 0.36329 l 0.14453,0.0703 0.28906,-0.0703 h 6.17578 l 0.57813,0.21484 1.08984,4.53516 c 0.77344,0.42578 1.42969,1.27734 1.96094,2.55468 l 1.16406,3.6875 0.0703,0.14063 0.21875,0.0703 1.01563,3.97266 0.72656,2.76562 v 0.4961 c -1.88672,-1.04297 -3.33984,-1.5625 -4.35547,-1.5625 l -0.65625,0.14453 -0.0703,-0.14453 v 0.14453 l -0.58203,0.14062 0.0742,0.14063 h -0.0742 l -0.21875,0.14062 -13.28907,-1.0625 H 203.5 v -0.28125 l -2.83203,-1.49219 v -0.14062 l -0.29297,-0.14063 -2.39453,-1.27734 -1.37891,-0.70703 -0.29297,-1.34766 c 0,-1.37109 0.17188,-2.29297 0.50782,-2.76562 l 2.90625,-3.1211 0.65234,-0.63671 0.29297,-0.28516 v -0.21094 l 2.46875,-1.77344 c 4.79297,-0.66015 7.1875,-1.2539 7.1875,-1.77343 l -0.21485,-0.42578 m -95.79296,-35.3086 c -0.53516,0 -0.80078,0.23828 -0.80078,0.71094 l 1.8164,2.19531 c 0.48438,0 0.72656,-0.23437 0.72656,-0.70703 -0.38671,-1.46484 -0.96875,-2.19922 -1.74218,-2.19922 m 77.85156,5.2461 h -0.0703 0.0703 M 23.679688,123.51172 c -2.613282,1.75 -5.519532,2.97656 -8.714844,3.6875 h -0.07422 v -0.14063 c 0.582031,-0.94531 0.871094,-1.70312 0.871094,-2.26953 0,-0.42578 -0.242188,-0.64062 -0.726563,-0.64062 l -2.175781,0.78125 c -1.164063,0.51953 -2.496094,0.78125 -3.996094,0.78125 -1.886719,0 -3.121093,-0.40235 -3.703125,-1.20703 -0.582031,-0.80469 -0.992187,-1.20313 -1.234375,-1.20313 -0.289062,0 -0.4375,0.1875 -0.4375,0.56641 l 0.292969,-1.13672 c 0.242188,-0.75391 1.933594,-3.40234 5.082031,-7.94141 l 4.429688,-5.38672 3.125,4.67969 5.445312,7.23047 1.816407,2.19922"
     id="path4" />
  <path
     style="fill:#0f0f11;fill-opacity:1;fill-rule:evenodd;stroke:none"
     d="m 165.73437,143.01172 c -0.53125,-0.9961 -0.99218,-1.49219 -1.3789,-1.49219 l -0.4375,0.0742 -0.4336,-0.71094 -0.29296,-0.63672 -0.14454,-0.42578 c 0,-0.3789 0.16797,-0.5664 0.50782,-0.5664 l 2.39843,3.61328 c -0.0977,0 -0.17187,0.0469 -0.21875,0.14453 M 94.925781,66.152344 c 0.144531,-0.238282 0.386719,-0.355469 0.726563,-0.355469 0.871094,0 1.597656,2.128906 2.175781,6.382813 0,1.890624 -1.183594,4.417968 -3.558594,7.585937 -2.175781,2.929687 -3,5.8125 -2.46875,8.648437 0.242188,1.371094 -0.167969,2.765626 -1.234375,4.183594 -1.210937,1.609375 -3.023437,2.789063 -5.445312,3.546875 -1.5,0.425781 -2.761719,1.582031 -3.777344,3.472657 -0.824219,1.558592 -1.234375,2.980472 -1.234375,4.253902 0,2.36329 0.96875,5.67188 2.90625,9.92579 2.757813,6.05078 6.339844,9.07812 10.746094,9.07812 l 4.359375,-0.64062 0.796875,0.14453 c 1.019531,0.0469 1.597661,0.25781 1.742191,0.63672 v 0.14062 l -0.65235,0.78125 c -0.824216,1.13281 -1.667966,2.76563 -2.542966,4.89062 -1.742188,4.16016 -2.613282,6.66797 -2.613282,7.51563 v 0.71094 l 0.289063,0.5664 c 0.148437,-0.28125 0.363281,-0.42578 0.65625,-0.42578 h 0.07031 c 0.535156,0 0.726562,0.28516 0.582031,0.85156 l -0.507813,5.31641 c 0,2.55469 0.09766,4.16016 0.289063,4.82422 0.4375,2.55078 0.847656,4.15625 1.234375,4.82031 2.617189,4.63281 3.996099,7.77344 4.140629,9.42969 l 1.45312,4.75 1.3086,6.45312 -2.83203,3.54297 C 99.5,179.59766 98.242188,181.53516 97.757812,183 c -1.5,3.6875 -2.253906,6.73437 -2.253906,9.14453 l 0.945313,6.94922 1.015625,6.66406 -0.07031,0.4961 -0.652343,0.42578 -0.511719,-0.56641 -2.46875,-0.35547 -9.222657,-2.62109 c -1.839843,-0.71094 -3.753906,-1.20703 -5.738281,-1.49219 -2.082031,-0.99219 -3.414062,-1.48828 -3.992187,-1.48828 l 0.433594,-2.125 0.4375,-4.53906 1.667968,-7.94141 -0.07031,-0.85156 0.726562,-13.75391 c 0.144532,-1.55859 -0.05078,-2.41015 -0.582031,-2.55078 l 0.07422,-0.99219 0.363281,-5.46093 c 0.578125,-3.02735 0.871094,-6.09766 0.871094,-9.21875 l -0.144531,-6.66407 -0.511719,-6.73437 -0.726563,-8.29688 -0.722656,-3.96875 c -1.792969,-6.99609 -2.835938,-11.76953 -3.125,-14.32421 -0.289062,-2.55079 -0.796875,-4.98829 -1.523438,-7.30079 l -2.10938,-5.886715 -0.214844,-1.417969 C 69.265625,95.578125 68.78125,93.757812 68.199219,92.667969 l 0.871093,0.921875 2.394532,1.988281 0.4375,0.140625 1.816406,1.277344 c 0.53125,0 0.796875,-0.238282 0.796875,-0.710938 L 72.847656,94.511719 68.996094,91.25 c 1.308594,-0.992188 2.300781,-1.488281 2.980468,-1.488281 l 0.652344,0.140625 1.234375,0.285156 0.871094,-0.285156 c 4.988281,-0.09375 8.230469,-1.15625 9.730469,-3.1875 l 0.148437,0.07031 c 0.433594,0 0.796875,-0.992187 1.089844,-2.980468 l -0.511719,-2.125 -0.214844,-1.277344 c 1.644532,-0.425782 2.46875,-2.054688 2.46875,-4.890625 l 0.07031,-0.992188 3.632813,-3.050781 c 2.27344,-1.13281 3.414065,-2.246092 3.414065,-3.332029 v -0.07031 l 0.289062,-1.417968 v -0.140626 l 0.07422,-0.355468 m 65.796878,82.812493 h -0.14454 l -3.41406,-0.42578 c -1.9375,-0.32812 -2.90625,-0.61328 -2.90625,-0.84765 0.39063,-0.0508 0.80078,-0.26172 1.23438,-0.64063 1.01953,-1.08594 2.08203,-3.37891 3.19922,-6.875 v -0.21484 h 0.0703 l -0.14453,-0.14063 -0.14453,-0.14453 -0.4375,-0.56641 c 0,-0.1875 1.57421,-2.95312 4.72265,-8.29296 h 0.0703 c 0.33985,0 0.5586,0.25781 0.65625,0.77734 l -1.08984,2.33984 -1.30859,8.65235 -0.28907,4.89062 c 0.4336,0.19141 0.65235,0.42578 0.65235,0.71094 0,0.47266 -0.24219,0.73047 -0.72656,0.77734 M 174.8125,85.648438 h 0.0742 c 0.91797,0 1.40234,1.890624 1.44922,5.675781 l -0.0703,9.429691 c 0.0977,3.58984 0.28907,6.12109 0.58204,7.58593 l 0.72265,3.75782 0.51172,3.75781 2.32422,7.51562 c 0.38672,1.7461 1.37891,4.25391 2.97656,7.51563 0.58203,1.55859 1.25781,4.41797 2.03125,8.57812 l 0.21875,1.27735 1.16406,2.83593 0.57813,4.82032 c 0.0508,1.9375 0.4375,5.10547 1.16406,9.5 0.14453,2.03515 0.75,5.24609 1.81641,9.64453 l 1.01562,4.75 2.32422,4.75 c 0,0.47265 -0.3164,0.71094 -0.94531,0.71094 -0.87109,0 -2.15234,-0.61719 -3.84766,-1.84375 -2.5664,-1.84375 -4.0664,-2.88282 -4.5039,-3.1211 l 4.57422,7.01953 c 0.92187,0.23438 2.73828,2.78907 5.44921,7.65625 0.77344,1.46485 2.39454,4.04297 4.86719,7.73047 l 3.19531,6.94922 1.16016,2.69141 h -3.48437 v 0.28515 l -0.51172,0.21094 -0.35938,-0.21094 -0.14844,-0.14062 h -0.0703 l -0.14453,0.14062 -0.51172,0.21094 -0.28906,-0.21094 -0.0742,-0.14062 h -4.57422 v 0.42187 l -1.08984,0.57032 c -0.53125,0.0937 -1.16016,0.40234 -1.88672,0.92187 l -1.30859,-1.77344 -0.21875,-0.28515 h -0.21485 l -0.0742,-0.21094 h -0.28906 c -1.69531,-3.21484 -3.89844,-8.12891 -6.60937,-14.75 l -3.92188,-9.07422 -1.37891,-4.53906 -1.01953,-5.31641 c 0.29297,-4.82031 0.31641,-8.36719 0.0742,-10.63672 -0.19531,-1.41797 -1.64844,-4.91406 -4.35937,-10.49218 l -0.50782,-0.99219 -0.65234,-1.0625 -0.28906,-0.21485 -0.29297,0.14454 -0.14453,-0.42579 0.0742,-0.14453 -0.21875,-0.35156 -0.65625,-1.63281 v -0.35547 l -0.35938,-0.63672 -1.45312,-3.19141 -0.36328,0.14454 -1.01954,-1.5625 -0.21484,-0.92188 -0.80078,-1.91406 v -0.92188 l -0.43359,-1.20312 v -0.42578 c 1.16015,-5.0586 1.74218,-8.79297 1.74218,-11.20313 0.14453,-1.23047 -0.0508,-1.86718 -0.58203,-1.91406 l 1.45313,-8.01172 0.28906,-4.89453 c -0.0469,-2.125 0.0977,-3.71094 0.4375,-4.75 l 6.89844,-15.882812 v -1.0625 c 0,-0.472657 0.24218,-0.730469 0.72656,-0.78125 m -12.78125,-36.65625 0.36328,-0.140626 c 0.82031,0 1.18359,0.238282 1.08984,0.710938 0,0.894531 -4.01953,2.125 -12.05859,3.683594 -8.08594,1.5625 -14.47656,2.339844 -19.17187,2.339844 -2.8086,0 -4.28516,-0.304688 -4.42969,-0.921876 L 127.75,54.523438 c 0,-0.472657 0.31641,-0.707032 0.94531,-0.707032 h 0.14453 l 0.8711,-0.710937 c 1.40625,-1.085938 2.73828,-1.726563 3.99609,-1.914063 l 4.42969,-0.707031 c 6.24609,0.140625 9.68359,0.07031 10.3125,-0.214844 l 5.08594,-0.496093 5.08203,0.140624 3.41406,-0.921874 M 132.83594,25.597656 c 0.14453,-0.332031 0.48437,-0.5 1.01562,-0.5 0.8711,0 1.35547,0.449219 1.45313,1.347656 v 0.07031 h 0.28906 c -1.54688,6.761719 -3.67969,10.140625 -6.39063,10.140625 l -0.87109,-0.707031 0.0742,-0.07422 1.8125,-1.699219 2.25391,-7.375 0.43359,-0.285156 h 0.0742 l -0.0742,-0.07031 -0.14453,-0.566406 0.0742,-0.28125 m -14.01563,55.65625 -0.14843,-0.140625 0.21875,-0.214843 v -0.636719 l 0.21875,-6.308594 v -3.191406 l 0.43359,-2.410157 -0.79688,-1.207031 0.0742,-0.285156 c 0.0937,-0.28125 0.35938,-0.425781 0.79688,-0.425781 1.45312,0 2.34765,1.84375 2.6875,5.53125 0.0977,6.570312 -0.84766,9.855468 -2.83203,9.855468 l -0.65235,-0.566406 m 7.1875,11.203125 -0.28906,-0.425781 v -0.07031 c 0,-0.472657 0.26563,-0.710938 0.79688,-0.710938 0.33984,0 0.55859,0.144531 0.65625,0.425781 l 8.78515,5.816407 c 10.07031,2.03125 15.10547,3.636721 15.10547,4.820311 l -0.50781,0.70703 h -0.21875 l -1.52344,-0.5664 -3.12109,0.35546 -3.92188,0.35547 c -3.875,0 -7.45703,-1.77343 -10.75,-5.320309 l -5.01172,-5.386719 m -101.531248,2.625 3.921876,-3.972656 c 3.390624,-3.121094 5.789062,-5.128906 7.191406,-6.027344 l 0.582031,0.07031 0.726563,-0.566406 2.394531,-1.558594 c 1.113281,-1.609375 2.011719,-2.695313 2.6875,-3.261719 L 42.125,79.199219 c 0.195312,-0.425781 0.535156,-0.640625 1.019531,-0.640625 0.386719,0 0.605469,0.238281 0.652344,0.710937 h 0.433594 c 2.90625,-0.09375 5.570312,-0.566406 7.992187,-1.417969 -2.566406,3.355469 -6.199218,7.089844 -10.894531,11.203126 l 0.652344,0.425781 C 39.125,90.753906 34.234375,93.238281 27.3125,96.921875 L 26.65625,96.78125 c -0.339844,0 -0.582031,0.07031 -0.726562,0.214844 v 0.421875 l -1.886719,0.5 -0.07422,-0.07422 h -0.796875 v -0.847656 l 1.304687,-1.914063 m 48.296876,-2.199219 0.21875,-0.425781 v -0.851562 l -0.289063,1.347656 0.07031,-0.07031 m -28.542969,-13.542968 -0.144531,0.140625 0.144531,0.07031 v -0.210937 m 4.648437,21.269536 v -0.14063 l 0.07422,0.0703 -0.07422,0.0703 m -10.09375,9.21875 0.289063,-0.4961 0.511719,0.70703 -0.07422,0.57032 0.726562,0.77734 c 5.035157,5.48437 7.550781,8.72266 7.550781,9.71484 0,1.89063 -1.523437,4.06641 -4.574218,6.52344 l -4.574219,3.75781 0.07031,0.0703 c -1.355469,1.32422 -2.539063,1.98438 -3.558594,1.98438 -1.886719,0 -6.269532,-4.65625 -13.144532,-13.96875 l -0.363281,-0.14062 v -0.99219 l 0.582031,0.14062 c 0.824219,0.75782 1.644532,1.23047 2.46875,1.41797 v 0.0742 c 1.597657,1.03906 3.316407,1.55859 5.15625,1.55859 2.859376,0 5.035157,-1.72656 6.539063,-5.17578 1.015625,-3.26172 1.8125,-5.4375 2.394531,-6.52343 m 42.050782,29.35156 c -0.53125,0 -0.800782,0.23828 -0.800782,0.71093 3.875,6.90235 5.980469,10.35157 6.320313,10.35157 0.53125,0 0.796875,-0.3086 0.796875,-0.92188 L 80.83593,139.17963 m 45.97265,-18.29297 8.71485,6.3125 2.25,3.26172 1.67187,3.26172 0.72656,0.77734 -0.29296,0.71094 -0.4336,0.0703 c -0.39062,0 -2.90625,-2.26953 -7.55469,-6.80469 -4.01953,-3.92578 -6.02734,-6.21875 -6.02734,-6.8789 0,-0.47266 0.28906,-0.71094 0.8711,-0.71094 h 0.0742 m -13.80078,20.63281 -0.0703,-0.0703 0.28906,-0.85156 0.21875,-6.94532 0.36328,-8.29687 0.0703,-1.48828 -0.57813,-1.34766 0.0703,-0.28515 c 0.0977,-0.28125 0.33985,-0.42579 0.72657,-0.42579 1.45312,0 2.39843,1.58594 2.83203,4.75391 l 0.0742,4.75 c 0.28906,7.23047 -0.75,10.84766 -3.125,10.84766 l -0.8711,-0.64063 m 1.01563,12.19531 v -0.14062 c 0,-0.47266 0.26953,-0.70703 0.80078,-0.70703 0.43359,0 0.91797,0.70703 1.45312,2.125 0.48438,0.28515 0.75,1.18359 0.79688,2.69531 l 0.14453,0.49609 0.21875,0.70703 v 0.21485 l 0.72656,3.40234 0.36328,0.99219 -0.28906,0.99219 -0.94531,0.92187 h -0.43359 l -0.4375,-0.35156 -0.0742,-0.0742 -0.28907,-0.35156 0.21875,-0.21485 v -0.28125 l 0.0703,-0.64062 0.0742,-0.70703 -0.36329,-1.48828 c -0.48437,-1.65625 -0.77343,-3.09766 -0.87109,-4.32813 l -1.16406,-3.26172 m 96.08593,52.53907 0.21485,0.42578 c 0,0.51953 -2.39453,1.11328 -7.1875,1.77343 l -2.46875,1.77344 v 0.21094 l -0.29297,0.28516 -0.65234,0.63671 -2.90625,3.1211 c -0.33594,0.47265 -0.50782,1.39453 -0.50782,2.76562 l 0.29297,1.34766 1.37891,0.70703 2.39453,1.27734 0.29297,0.14063 v 0.14062 l 2.83203,1.49219 v 0.28125 l -0.80078,0.42578 -0.79688,-0.35547 h -1.23437 v 0.0703 h -0.0742 l -0.14453,-0.0703 -0.28906,0.0703 -4.14063,0.35547 0.0703,0.21484 h -0.50781 l -0.72656,0.70703 c -0.24219,-0.61328 -0.60547,-0.96875 -1.08594,-1.0625 l -0.29297,-0.85156 -4.57422,-10.5625 c 0.0469,-0.89844 0.38672,-1.67969 1.01563,-2.33985 l 0.50781,-0.21484 0.94531,0.35547 c 0.33985,0 0.50782,-0.23828 0.50782,-0.71094 l -0.21875,-0.28125 1.8164,-1.13672 c 0.48438,-0.32812 1.04297,-0.68359 1.67188,-1.0625 l 4.28515,0.0703 0.57813,-0.35157 0.36328,0.0703 0.21875,0.28125 h 7.19141 l 1.66796,-0.14063 0.65625,0.14063 m 13.21485,19.92578 -1.08594,0.85156 -0.65625,0.42187 -1.81641,-2.83593 h 1.08985 c 0.67969,0.14453 1.55078,0.54687 2.61719,1.20703 l -0.21875,0.28515 0.0703,0.0703 m -31.15625,-49.98828 h -0.0703 0.0703 m 3.99609,48.42578 h 0.72656 c 0.0977,0.85156 0.67579,2.4375 1.74219,4.7539 l -3.55859,-4.04297 v -0.0703 l 1.08984,-0.64062 M 3.488281,123.86719 c 0,-0.37891 0.148438,-0.56641 0.4375,-0.56641 0.242188,0 0.652344,0.39844 1.234375,1.20313 0.582032,0.80468 1.816406,1.20703 3.703125,1.20703 1.5,0 2.832031,-0.26172 3.996094,-0.78125 l 2.175781,-0.78125 c 0.484375,0 0.726563,0.21484 0.726563,0.64062 0,0.56641 -0.289063,1.32422 -0.871094,2.26953 v 0.14063 h 0.07422 c 3.195312,-0.71094 6.101562,-1.9375 8.714844,-3.6875 l 1.378906,1.70312 3.339844,4.1836 3.125,3.26172 -0.292969,0.0703 -0.144531,0.21094 0.144531,0.14062 v 0.0742 l -2.394531,2.26562 c -0.824219,0.57032 -1.621094,0.875 -2.398438,0.92188 l -8.496094,0.49609 v -0.0703 c 0,-0.42578 -0.191406,-0.63672 -0.582031,-0.63672 -0.335937,0 -0.796875,0.28516 -1.378906,0.85156 l -0.796875,0.21094 0.07031,0.21485 v 0.35156 l -0.144531,0.14453 c -1.015625,1.17969 -2.566406,1.76953 -4.648437,1.76953 -2.757813,0 -5.179688,-1.74609 -7.261719,-5.24609 l -1.671875,-4.1836 1.960937,-6.3789"
     id="path6" />
  <path
     style="fill:#9c2b42;fill-opacity:1;fill-rule:evenodd;stroke:none"
     d="m 193.76953,72.746094 c -1.60156,0 -2.90625,0.636718 -3.92187,1.914062 -0.77735,0.945313 -1.16407,1.796875 -1.16407,2.550782 l 0.21875,1.988281 c 0.38672,1.273437 1.16016,1.914062 2.32422,1.914062 0.53125,0 0.79688,-0.261719 0.79688,-0.78125 -1.25782,-0.707031 -1.88672,-1.726562 -1.88672,-3.046875 0,-0.898437 0.75,-1.75 2.25,-2.554687 l 1.59765,-0.851563 V 75.9375 l -0.50781,3.472656 v 6.167969 l 0.0742,0.425781 -0.0742,0.285156 v 1.699219 c -6.875,-0.28125 -10.3125,-3.757812 -10.3125,-10.421875 0,-3.261718 0.46094,-5.457031 1.37891,-6.59375 1.35547,-1.699218 2.51953,-2.765625 3.48828,-3.191406 l 2.97656,-1.203125 c 0.58203,-0.285156 1.11328,-0.496094 1.59766,-0.640625 l 0.21875,1.066406 c 0.58203,1.273438 0.94531,3.191406 1.08984,5.742188 h -0.14453 m -15.98047,2.199218 c 0,-3.167968 0.67969,-6.027343 2.03516,-8.582031 l 3.48437,-4.253906 5.51953,-3.046875 2.6875,3.402344 0.72657,2.269531 c -1.64453,0.234375 -3.58203,1.15625 -5.8086,2.765625 -2.17968,1.558594 -3.34375,2.550781 -3.48828,2.976562 -0.82031,1.324219 -1.23437,3.640626 -1.23437,6.949219 0,3.167969 0.53515,5.386719 1.59765,6.664063 3.39063,3.6875 6.66016,5.53125 9.80469,5.53125 h 0.4375 l 0.21875,4.679687 c -6.58594,-0.238281 -11.1875,-3.167969 -13.80078,-8.792969 -1.45313,-3.070312 -2.17969,-6.59375 -2.17969,-10.5625 m -122.808591,-20.5625 1.597656,1.488282 c 1.550781,1.65625 2.324219,3.074218 2.324219,4.253906 0,2.835938 -0.871094,5.484375 -2.613282,7.941406 -2.277343,3.214844 -5.496093,4.820313 -9.660156,4.820313 L 43.796875,72.390625 43.507812,72.25 l 2.03125,-3.050781 1.597657,-3.402344 0.21875,0.285156 c 0.773437,0.898438 1.765625,1.347657 2.976562,1.347657 2.421875,0 3.921875,-1.726563 4.503907,-5.175782 -0.289063,-1.46875 -0.847657,-2.199218 -1.671876,-2.199218 -0.53125,0 -0.796874,0.234374 -0.796874,0.707031 0,0.472656 0.3125,1.042969 0.941406,1.703125 -0.480469,2.269531 -1.476563,3.402344 -2.976563,3.402344 -0.917969,0 -1.574219,-0.351563 -1.960937,-1.0625 l -0.652344,-0.78125 c 0.386719,-1.085938 1.234375,-2.363282 2.542969,-3.828126 l 0.507812,-0.777343 c 0.917969,-1.277344 1.816407,-2.246094 2.6875,-2.910157 l 0.363281,-0.566406 1.160157,-1.558594 m 5.011719,-6.664062 0.363281,-0.425781 2.6875,5.742187 1.523437,6.949219 -0.144531,0.851563 -0.945313,1.203124 -0.871093,1.277344 0.21875,0.140625 -2.25,2.058594 0.144531,0.707031 -6.464844,8.792969 c -2.855468,1.84375 -6.585937,2.765625 -11.183594,2.765625 -0.773437,0 -1.886718,-0.496094 -3.339843,-1.492188 l -1.164063,-0.707031 c 0.582032,-0.613281 1.625,-1.371093 3.125,-2.269531 l 0.507813,-0.355469 0.507812,0.496094 c 0.96875,0.617187 2.226563,0.921875 3.777344,0.921875 3.535156,0 6.632813,-1.15625 9.296875,-3.472656 3.046875,-2.695313 4.574219,-6.308594 4.574219,-10.847656 0,-1.371094 -0.460938,-2.554688 -1.378907,-3.546876 l -1.527343,-2.125 c -0.53125,-0.664062 -1.039063,-1.085937 -1.523438,-1.277343 l 4.066407,-5.386719"
     id="path8" />
</svg>
