<?xml version="1.0" encoding="UTF-8"?>
<svg xmlns="http://www.w3.org/2000/svg" xmlns:xlink="http://www.w3.org/1999/xlink" width="73px" height="68px" viewBox="0 0 73 68" version="1.1">
<g id="surface1">
<path style=" stroke:none;fill-rule:evenodd;fill:rgb(0%,0%,0%);fill-opacity:1;" d="M 65.617188 45.488281 L 65.539062 45.863281 L 55.691406 45.863281 L 45.460938 42.941406 L 46.539062 42.71875 C 47.152344 42.71875 48.820312 43.242188 51.539062 44.289062 L 65.617188 45.488281 M 60.539062 50.277344 L 60.460938 50.652344 L 56.617188 50.652344 C 49.332031 48.554688 44.898438 46.910156 43.308594 45.710938 C 43.410156 45.414062 43.5625 45.261719 43.769531 45.261719 L 49.230469 47.808594 L 53 49.15625 L 60.539062 50.277344 M 55.539062 55.890625 L 53.539062 55.890625 C 52.050781 55.839844 49.667969 54.667969 46.382812 52.371094 C 43.308594 50.226562 41.769531 48.878906 41.769531 48.332031 L 42.152344 47.957031 L 47.308594 52.148438 C 51.667969 55.09375 54.4375 56.214844 55.617188 55.515625 L 55.539062 55.890625 M 20.308594 43.09375 L 20.382812 43.390625 C 20.382812 43.890625 19.332031 44.589844 17.230469 45.488281 C 14.769531 46.535156 12.257812 47.058594 9.691406 47.058594 L 6.230469 46.535156 L 6.308594 46.234375 L 9.539062 46.234375 C 14.921875 46.234375 18.359375 45.164062 19.847656 43.019531 L 20.308594 43.09375 M 21.078125 46.835938 L 21.152344 47.132812 C 21.152344 47.632812 19.691406 48.429688 16.769531 49.527344 C 13.949219 50.578125 12.078125 51.101562 11.152344 51.101562 L 10.617188 51.027344 L 10.539062 50.652344 C 13.511719 50.003906 16.898438 48.707031 20.691406 46.761719 L 21.078125 46.835938 M 22.921875 49.527344 L 23 49.828125 C 23 50.027344 20.410156 51.5 15.230469 54.242188 L 14.460938 54.167969 L 14.382812 53.792969 C 16.078125 53.296875 18.792969 51.847656 22.539062 49.453125 L 22.921875 49.527344 "/>
</g>
</svg>
