<?xml version="1.0" encoding="UTF-8"?>
<svg xmlns="http://www.w3.org/2000/svg" xmlns:xlink="http://www.w3.org/1999/xlink" width="73px" height="68px" viewBox="0 0 73 68" version="1.1">
<g id="surface1">
<path style=" stroke:none;fill-rule:evenodd;fill:rgb(0%,0%,0%);fill-opacity:1;" d="M 47.847656 49.15625 L 47.769531 49.15625 C 46.847656 49.15625 42.4375 46.734375 34.539062 41.894531 C 31.71875 40.097656 29.488281 37.253906 27.847656 33.363281 L 27.691406 33.214844 L 27.691406 32.839844 L 28.152344 32.765625 L 28.382812 32.765625 L 28.460938 32.839844 L 28.921875 33.140625 L 37.460938 40.921875 C 38.332031 41.621094 40.308594 42.941406 43.382812 44.890625 C 45.640625 46.335938 47.28125 47.632812 48.308594 48.78125 L 48.308594 49.078125 L 48.152344 49.15625 L 47.847656 49.15625 M 28.539062 33.8125 C 30.128906 36.605469 32.257812 39.125 34.921875 41.371094 C 37.078125 43.117188 40.972656 45.3125 46.617188 47.957031 L 42.847656 45.039062 C 40.691406 43.941406 38.71875 42.695312 36.921875 41.296875 C 32.71875 38.003906 29.972656 35.484375 28.691406 33.738281 L 28.460938 33.738281 L 28.539062 33.8125 "/>
<path style=" stroke:none;fill-rule:evenodd;fill:rgb(83.529413%,51.372552%,45.882353%);fill-opacity:1;" d="M 28.691406 33.738281 C 29.972656 35.484375 32.71875 38.003906 36.921875 41.296875 C 38.71875 42.695312 40.691406 43.941406 42.847656 45.039062 L 46.617188 47.957031 C 40.972656 45.3125 37.078125 43.117188 34.921875 41.371094 C 32.257812 39.125 30.128906 36.605469 28.539062 33.8125 L 28.691406 33.738281 "/>
</g>
</svg>
