<?xml version="1.0" encoding="UTF-8"?>
<svg xmlns="http://www.w3.org/2000/svg" xmlns:xlink="http://www.w3.org/1999/xlink" width="73px" height="68px" viewBox="0 0 73 68" version="1.1">
<g id="surface1">
<path style=" stroke:none;fill-rule:evenodd;fill:rgb(74.901962%,36.470589%,42.352942%);fill-opacity:1;" d="M 60.785156 25.835938 C 58.40625 29.371094 56.644531 31.140625 55.5 31.140625 L 55.183594 31.097656 C 55.09375 30.46875 54.3125 29.742188 52.835938 28.917969 L 50.714844 27.632812 C 50.714844 27.375 51.601562 26.976562 53.378906 26.4375 C 55.484375 25.835938 57.609375 25.550781 59.746094 25.582031 C 60.5 25.550781 60.84375 25.636719 60.785156 25.835938 M 14.277344 27.207031 C 13.671875 27.492188 12.542969 28.929688 10.890625 31.523438 C 9.777344 31.523438 8.148438 29.785156 6.011719 26.308594 C 6.011719 25.9375 7.140625 25.765625 9.398438 25.792969 L 14.003906 26.136719 C 14.335938 26.277344 14.425781 26.636719 14.277344 27.207031 "/>
</g>
</svg>
