<?xml version="1.0" encoding="UTF-8"?>
<svg xmlns="http://www.w3.org/2000/svg" xmlns:xlink="http://www.w3.org/1999/xlink" width="73px" height="68px" viewBox="0 0 73 68" version="1.1">
<g id="surface1">
<path style=" stroke:none;fill-rule:evenodd;fill:rgb(0%,0%,0%);fill-opacity:1;" d="M 24.769531 0.210938 C 25.230469 0.210938 26.359375 2.855469 28.152344 8.144531 L 28.230469 8.367188 L 29.308594 11.660156 L 27.308594 14.28125 L 23.921875 18.320312 L 21.230469 22.511719 C 20.257812 23.960938 19.511719 24.683594 19 24.683594 L 18.382812 24.234375 L 19.691406 22.0625 L 18.691406 21.765625 C 18.332031 21.464844 17.847656 21.339844 17.230469 21.390625 L 14.769531 24.757812 C 13.078125 26.953125 11.691406 28.050781 10.617188 28.050781 C 10.257812 28.050781 10.101562 27.875 10.152344 27.527344 L 14 23.859375 L 15.308594 21.914062 C 16.027344 20.867188 16.617188 20.34375 17.078125 20.34375 C 18.820312 20.34375 19.972656 20.542969 20.539062 20.941406 L 23 17.871094 L 28.152344 11.4375 L 27.152344 8.742188 L 23.308594 9.488281 L 18.769531 10.089844 L 16.691406 9.789062 L 15.847656 7.621094 L 14.921875 5 C 14.921875 4.652344 15.078125 4.476562 15.382812 4.476562 L 16.460938 6.199219 C 17.078125 7.394531 17.460938 8.367188 17.617188 9.117188 L 20.230469 9.117188 C 22.847656 8.316406 25.027344 7.894531 26.769531 7.84375 L 24.152344 0.734375 L 24.769531 0.210938 M 9.078125 35.832031 C 9.078125 35.632812 11.742188 34.039062 17.078125 31.042969 C 17.589844 31.042969 18.871094 31.792969 20.921875 33.289062 L 23.691406 35.382812 L 27.078125 32.765625 C 27.382812 32.765625 27.539062 32.964844 27.539062 33.363281 L 18.382812 40.398438 L 22.539062 48.480469 L 23.617188 48.40625 L 24.308594 45.339844 C 24.71875 44.089844 27.617188 43.46875 33 43.46875 C 33.308594 43.46875 33.949219 43.917969 34.921875 44.8125 L 36.230469 46.160156 L 42.617188 45.261719 L 51.539062 44.589844 L 53.691406 36.058594 C 52.871094 35.910156 51.332031 35.109375 49.078125 33.664062 L 45.691406 31.34375 C 45.691406 30.992188 45.871094 30.820312 46.230469 30.820312 L 48 31.792969 C 48 30.195312 47.742188 28.574219 47.230469 26.925781 C 45.691406 27.226562 44.308594 27.75 43.078125 28.5 L 40.078125 30.296875 C 35.871094 32.390625 33.488281 33.4375 32.921875 33.4375 L 26.847656 26.554688 C 26.847656 26.203125 27 26.03125 27.308594 26.03125 C 27.71875 26.03125 28.742188 27.050781 30.382812 29.097656 L 33 32.167969 L 40 29.097656 L 42.691406 27.453125 C 44.539062 26.402344 46.078125 25.90625 47.308594 25.953125 C 48.230469 25.90625 48.769531 27.5 48.921875 30.746094 L 48.769531 32.242188 L 53.921875 35.160156 L 54.460938 33.066406 L 56.769531 27.226562 L 57 25.730469 C 57.152344 25.179688 57.972656 24.78125 59.460938 24.53125 L 62.539062 23.335938 C 63.769531 22.785156 64.617188 22.539062 65.078125 22.585938 C 65.539062 22.585938 65.769531 22.761719 65.769531 23.109375 L 60 25.429688 C 58.617188 25.78125 57.847656 26.179688 57.691406 26.628906 L 57.460938 28.199219 L 55.382812 33.960938 L 53.539062 40.996094 L 52.460938 44.890625 L 52.539062 45.113281 L 52.152344 45.488281 L 52 45.5625 L 51.847656 45.5625 L 51.078125 45.636719 L 44.078125 46.011719 L 40.617188 46.535156 L 40.769531 48.183594 L 40.691406 51.398438 C 44.792969 51.25 47.28125 51.574219 48.152344 52.371094 L 48.691406 53.496094 L 48.617188 54.617188 C 48.71875 55.367188 49.207031 56.789062 50.078125 58.882812 L 49.617188 59.40625 C 49 59.40625 48.460938 58.609375 48 57.011719 C 47.589844 55.566406 47.382812 54.167969 47.382812 52.820312 L 42.921875 52.523438 L 40.617188 52.597656 L 40.308594 52.449219 L 40 52.523438 L 40 53.644531 L 41 58.285156 L 40.460938 59.035156 C 40.152344 59.035156 39.691406 57.011719 39.078125 52.972656 L 39.078125 52.074219 C 39.128906 51.773438 39.359375 51.601562 39.769531 51.550781 L 39.691406 49.15625 L 39.847656 46.609375 L 36.460938 46.910156 L 36.078125 46.835938 L 35.847656 46.910156 L 34.460938 45.710938 C 33.792969 44.863281 33.027344 44.441406 32.152344 44.441406 C 27.128906 44.441406 24.617188 45.585938 24.617188 47.882812 L 24.617188 49.003906 C 24.308594 49.355469 23.359375 49.578125 21.769531 49.679688 L 18.691406 50.054688 L 19.617188 50.949219 L 21.152344 52.449219 L 22.460938 53.496094 L 22.617188 54.09375 L 27.921875 54.46875 C 28.332031 54.417969 28.511719 54.566406 28.460938 54.917969 C 28.460938 55.367188 27.4375 55.617188 25.382812 55.664062 C 23.640625 55.617188 22.332031 55.21875 21.460938 54.46875 L 20.152344 52.898438 L 17.617188 50.277344 L 14.539062 51.027344 L 13.847656 50.578125 C 13.847656 50.128906 14.898438 49.703125 17 49.304688 L 21.539062 48.554688 L 19.382812 44.589844 C 18.050781 42.445312 17.410156 41.023438 17.460938 40.324219 L 23 35.910156 L 16.847656 32.089844 L 13.152344 34.5625 C 11.359375 35.707031 10.207031 36.28125 9.691406 36.28125 L 9.078125 35.832031 M 29.691406 60.378906 C 30.050781 60.378906 30.972656 61.03125 32.460938 62.328125 L 33.769531 63.449219 L 34.078125 64.273438 L 33.769531 65.246094 L 33.308594 65.992188 L 32.847656 65.84375 L 32.847656 65.171875 L 33.078125 64.273438 L 29.847656 61.503906 L 27.539062 62.402344 C 27.078125 62.402344 26.898438 62.25 27 61.953125 L 28 60.980469 L 29.691406 60.378906 M 52.230469 2.457031 L 45.769531 8.441406 C 45.769531 9.289062 46.128906 10.664062 46.847656 12.558594 L 47.847656 16.375 L 44.617188 18.996094 L 41 21.464844 L 35.691406 26.402344 C 35.382812 26.402344 35.230469 26.253906 35.230469 25.953125 C 35.179688 25.554688 36.820312 23.910156 40.152344 21.015625 L 40.382812 20.789062 L 38.460938 19.894531 L 37.078125 18.769531 L 37.152344 18.097656 L 35.382812 18.246094 C 34.359375 18.246094 33.847656 18.097656 33.847656 17.796875 C 33.847656 17.25 34.972656 17 37.230469 17.050781 L 37.382812 17.050781 C 37.691406 15.550781 37.972656 14.804688 38.230469 14.804688 C 38.589844 14.804688 38.742188 15.054688 38.691406 15.550781 C 38.382812 17.296875 38.257812 18.347656 38.308594 18.695312 C 38.257812 18.84375 38.847656 19.144531 40.078125 19.59375 L 41.382812 20.117188 L 43.847656 18.320312 L 46.617188 16.074219 C 46.617188 15.378906 46 12.757812 44.769531 8.21875 C 44.769531 7.71875 46.050781 6.621094 48.617188 4.925781 L 49.921875 3.351562 C 50.742188 2.40625 51.308594 1.929688 51.617188 1.929688 C 52.027344 1.929688 52.230469 2.105469 52.230469 2.457031 "/>
</g>
</svg>
