<?xml version="1.0" encoding="UTF-8"?>
<svg xmlns="http://www.w3.org/2000/svg" xmlns:xlink="http://www.w3.org/1999/xlink" width="73px" height="68px" viewBox="0 0 73 68" version="1.1">
<g id="surface1">
<path style=" stroke:none;fill-rule:evenodd;fill:rgb(60.000002%,0%,0%);fill-opacity:1;" d="M 55.230469 36.882812 L 55.539062 35.984375 L 63.847656 35.535156 L 63.847656 35.460938 L 64.078125 35.460938 L 64.230469 35.683594 L 64.230469 36.65625 C 64.230469 37.703125 63.359375 39.699219 61.617188 42.644531 L 58.078125 47.957031 L 52.382812 53.421875 C 47.207031 56.863281 44.359375 58.585938 43.847656 58.585938 L 43.460938 58.585938 L 43.230469 58.433594 C 50.820312 48.90625 54.820312 41.722656 55.230469 36.882812 M 5.078125 36.433594 L 9.382812 36.65625 L 10.152344 38.453125 C 10.769531 41.097656 12.359375 43.941406 14.921875 46.984375 L 17.382812 49.605469 L 19.617188 52.820312 L 23.152344 56.714844 L 23 56.640625 C 20.027344 56.589844 15.792969 53.71875 10.308594 48.03125 C 8.359375 46.683594 7.050781 45.113281 6.382812 43.316406 L 5.539062 39.277344 L 5.078125 36.957031 L 5.078125 36.433594 "/>
</g>
</svg>
