<?xml version="1.0" encoding="UTF-8"?>
<svg xmlns="http://www.w3.org/2000/svg" xmlns:xlink="http://www.w3.org/1999/xlink" width="73px" height="68px" viewBox="0 0 73 68" version="1.1">
<g id="surface1">
<path style=" stroke:none;fill-rule:evenodd;fill:rgb(0%,0%,0%);fill-opacity:1;" d="M 70.617188 26.402344 C 71.640625 26.402344 72.382812 27.652344 72.847656 30.144531 C 72.847656 30.644531 72.382812 31.542969 71.460938 32.839844 C 71.460938 33.140625 71.871094 33.5625 72.691406 34.113281 L 73 34.488281 C 73 35.382812 72.539062 35.832031 71.617188 35.832031 L 71.308594 35.832031 L 70.921875 36.132812 C 69.488281 36.132812 68.589844 35.085938 68.230469 32.988281 C 67.921875 31.441406 67.027344 30.519531 65.539062 30.21875 L 63.230469 30.144531 C 62.617188 30.144531 61.359375 29.046875 59.460938 26.851562 C 59.460938 26.554688 59.640625 26.402344 60 26.402344 C 60.359375 26.402344 60.871094 26.628906 61.539062 27.078125 L 65.921875 27.375 L 67.308594 28.5 L 69.539062 30.746094 L 70.230469 30.667969 C 69.617188 29.523438 69.308594 28.648438 69.308594 28.050781 C 69.257812 27.800781 69.28125 27.527344 69.382812 27.226562 C 69.589844 26.679688 70 26.402344 70.617188 26.402344 M 44.382812 28.574219 C 41.921875 28.125 40.488281 27.625 40.078125 27.078125 L 39.308594 25.582031 C 39.308594 25.230469 39.460938 25.058594 39.769531 25.058594 C 40.230469 25.058594 41.257812 25.605469 42.847656 26.703125 C 43.71875 27.300781 45.050781 27.675781 46.847656 27.824219 C 47.871094 28.625 48.488281 29.820312 48.691406 31.417969 C 48.640625 31.566406 48.511719 31.640625 48.308594 31.640625 L 46 29.996094 C 45.488281 30.496094 44.359375 30.746094 42.617188 30.746094 L 41.847656 30.667969 L 41.769531 30.296875 L 44.617188 28.796875 L 44.382812 28.574219 M 40.691406 26.554688 L 40.460938 26.402344 L 40.691406 26.628906 L 40.691406 26.554688 M 40.308594 31.941406 L 40.308594 31.867188 L 40.152344 31.941406 L 40.308594 31.941406 M 40.539062 33.140625 L 39 31.867188 L 36.152344 31.492188 C 34.921875 31.59375 34.050781 31.34375 33.539062 30.746094 C 31.847656 29.847656 31 29.121094 31 28.574219 L 31.078125 28.273438 L 31.460938 28.199219 L 32.921875 28.796875 L 37.617188 29.246094 L 40.078125 29.921875 L 41.308594 32.167969 C 41.308594 32.816406 41.050781 33.140625 40.539062 33.140625 M 36.691406 33.289062 C 37.921875 33.289062 38.949219 33.988281 39.769531 35.382812 C 40.332031 35.585938 40.539062 35.984375 40.382812 36.582031 C 40.382812 37.980469 39.078125 38.675781 36.460938 38.675781 L 35.308594 38.601562 L 34.382812 38.675781 C 34.027344 38.675781 33.128906 38.378906 31.691406 37.78125 C 30.511719 38.128906 29.539062 37.828125 28.769531 36.882812 L 27.769531 34.710938 L 28.382812 34.488281 L 33.539062 35.683594 L 33.847656 35.460938 L 34.769531 34.488281 C 35.230469 34.085938 35.617188 33.835938 35.921875 33.738281 C 35.921875 33.4375 36.179688 33.289062 36.691406 33.289062 M 44.691406 34.488281 C 44.691406 33.789062 45.5625 33.4375 47.308594 33.4375 L 51.308594 33.8125 L 54.460938 33.140625 L 58.617188 34.113281 C 59.742188 34.113281 60.71875 33.761719 61.539062 33.066406 C 62.359375 32.316406 63.359375 31.941406 64.539062 31.941406 C 65.152344 31.941406 65.617188 32.089844 65.921875 32.390625 L 61.152344 35.757812 C 60.230469 36.40625 59.257812 36.730469 58.230469 36.730469 C 58.28125 36.382812 57.179688 36.207031 54.921875 36.207031 L 50 37.179688 L 44.691406 34.488281 M 61.539062 27.902344 L 61.539062 27.824219 L 61.460938 27.824219 L 61.539062 27.902344 M 64.078125 23.035156 C 64.078125 24.285156 62.5625 24.90625 59.539062 24.90625 C 58.71875 24.808594 58.078125 24.53125 57.617188 24.082031 C 58.179688 22.636719 59.589844 21.914062 61.847656 21.914062 C 63.332031 21.914062 64.078125 22.289062 64.078125 23.035156 M 57.769531 29.246094 C 58.847656 30.894531 59.617188 31.84375 60.078125 32.089844 L 60.078125 32.464844 L 59.539062 32.539062 C 58.460938 32.539062 57.359375 32.066406 56.230469 31.117188 L 54.539062 29.621094 C 51.5625 28.875 50.078125 27.902344 50.078125 26.703125 C 50.078125 26.402344 50.667969 26.253906 51.847656 26.253906 C 56.359375 26.253906 58.332031 27.253906 57.769531 29.246094 M 65.617188 39.574219 C 66.742188 39.574219 67.667969 39.898438 68.382812 40.546875 L 68.769531 40.175781 L 69.152344 40.699219 L 69 41.222656 L 69 41.597656 L 68.691406 41.671875 L 68.382812 42.046875 L 67.308594 43.167969 L 67.230469 43.316406 C 64.410156 42.71875 62.308594 43.019531 60.921875 44.214844 C 59.332031 45.613281 58.128906 46.3125 57.308594 46.3125 L 56.460938 46.234375 L 56.382812 45.863281 C 56.382812 45.761719 56.667969 45.5625 57.230469 45.261719 L 57.230469 45.1875 C 56.617188 45.539062 55.921875 45.710938 55.152344 45.710938 C 54.589844 45.710938 54.128906 45.539062 53.769531 45.1875 L 56.691406 43.242188 C 55.101562 44.191406 53.207031 44.664062 51 44.664062 C 49.511719 44.664062 48.488281 44.441406 47.921875 43.992188 C 48.179688 43.59375 49 43.167969 50.382812 42.71875 C 51.972656 42.269531 53.027344 41.84375 53.539062 41.445312 L 54.847656 40.023438 C 55.820312 39.226562 56.847656 38.828125 57.921875 38.828125 C 58.847656 38.828125 59.617188 39.050781 60.230469 39.5 C 60.847656 39.898438 61.589844 40.097656 62.460938 40.097656 L 65.617188 39.574219 M 58.382812 45.1875 L 58.460938 45.1875 L 58.460938 45.113281 L 58.382812 45.1875 M 56.691406 44.515625 L 56.691406 44.441406 L 56.617188 44.515625 L 56.691406 44.515625 M 52.691406 49.605469 C 54.589844 49.605469 56.257812 49.953125 57.691406 50.652344 C 58.871094 51.25 59.460938 51.75 59.460938 52.148438 L 58.847656 53.195312 L 58.078125 53.945312 C 54.898438 53.945312 52.792969 52.648438 51.769531 50.054688 C 51.769531 49.753906 52.078125 49.605469 52.691406 49.605469 M 46.078125 42.792969 L 44.308594 42.867188 L 40.230469 43.765625 L 37.460938 43.542969 L 37.152344 42.941406 C 35.820312 42.84375 34.949219 42.570312 34.539062 42.121094 C 34.949219 41.621094 35.382812 41.371094 35.847656 41.371094 L 43.847656 41.074219 C 45.742188 41.074219 47 41.371094 47.617188 41.96875 C 47.410156 42.46875 46.898438 42.742188 46.078125 42.792969 M 48.617188 47.359375 C 48.101562 47.757812 47.667969 48.457031 47.308594 49.453125 C 46.589844 51.152344 45.71875 52 44.691406 52 L 44.230469 51.925781 L 44.078125 51.550781 L 45.230469 49.378906 C 44.667969 49.378906 44.28125 49.679688 44.078125 50.277344 C 43.871094 50.828125 43.152344 51.101562 41.921875 51.101562 C 40.949219 51.101562 40.027344 50.800781 39.152344 50.203125 C 39.410156 49.652344 39.871094 49.378906 40.539062 49.378906 C 41.257812 49.328125 41.769531 49.054688 42.078125 48.554688 C 42.589844 47.609375 44.28125 47.210938 47.152344 47.359375 L 48.691406 46.609375 L 49.230469 46.683594 L 49.308594 46.984375 L 48.617188 47.359375 M 37.769531 46.683594 L 36.769531 48.332031 C 35.847656 49.179688 34.667969 49.605469 33.230469 49.605469 L 30 49.003906 L 29.921875 48.707031 L 33.921875 47.359375 C 35.359375 46.660156 36.332031 46.3125 36.847656 46.3125 C 37.460938 46.3125 37.769531 46.4375 37.769531 46.683594 M 41.617188 50.277344 L 41.617188 50.351562 L 41.691406 50.351562 L 41.617188 50.277344 M 45.308594 50.652344 L 45.382812 50.652344 L 45.308594 50.578125 L 45.308594 50.652344 M 49.230469 53.792969 C 50.257812 53.792969 51.769531 54.769531 53.769531 56.714844 L 53.769531 58.210938 L 53.308594 58.285156 L 49.382812 56.265625 C 48.921875 56.265625 48.640625 56.613281 48.539062 57.3125 L 48.539062 58.359375 C 48.28125 59.558594 47.382812 59.90625 45.847656 59.40625 L 43.847656 60.230469 L 43.382812 60.15625 L 43.308594 59.78125 C 43.308594 58.882812 43.769531 58.160156 44.691406 57.613281 L 44.691406 57.460938 L 43.382812 57.164062 C 42.921875 57.511719 42.308594 57.6875 41.539062 57.6875 C 40.152344 57.6875 39.359375 57.3125 39.152344 56.5625 C 39.769531 55.464844 42.027344 54.917969 45.921875 54.917969 C 47.207031 54.917969 48.308594 54.542969 49.230469 53.792969 M 53 57.3125 L 52.539062 56.789062 L 52.921875 57.3125 L 53 57.3125 M 34.691406 35.984375 L 34.769531 35.984375 L 34.691406 35.910156 L 34.691406 35.984375 "/>
</g>
</svg>
