<?xml version="1.0" encoding="UTF-8"?>
<svg xmlns="http://www.w3.org/2000/svg" xmlns:xlink="http://www.w3.org/1999/xlink" width="73px" height="68px" viewBox="0 0 73 68" version="1.1">
<g id="surface1">
<path style=" stroke:none;fill-rule:evenodd;fill:rgb(60.000002%,0%,0%);fill-opacity:1;" d="M 58.691406 45.9375 L 58.921875 47.65625 L 58.847656 49.304688 L 58.230469 50.875 C 57.359375 52.773438 55.898438 53.71875 53.847656 53.71875 C 52.769531 53.71875 51.949219 53.519531 51.382812 53.121094 L 50.539062 52.371094 L 48.691406 50.875 C 47.71875 49.730469 47.230469 48.65625 47.230469 47.65625 C 47.230469 46.359375 47.539062 45.386719 48.152344 44.738281 L 50.308594 42.570312 L 52.308594 42.417969 C 55.539062 42.371094 57.179688 44.039062 57.230469 47.433594 L 56.847656 49.828125 L 55.617188 51.027344 C 55.207031 51.476562 54.460938 51.722656 53.382812 51.773438 C 51.078125 51.773438 49.4375 50.476562 48.460938 47.882812 L 48.460938 47.808594 L 48.308594 47.808594 L 48.230469 47.507812 C 48.230469 46.761719 48.511719 45.960938 49.078125 45.113281 C 49.792969 43.765625 50.871094 43.09375 52.308594 43.09375 C 53.539062 43.09375 54.511719 43.59375 55.230469 44.589844 C 55.691406 45.238281 55.949219 45.8125 56 46.3125 C 56 49.203125 55.101562 50.675781 53.308594 50.726562 C 51.101562 50.675781 50 49.605469 50 47.507812 C 50 45.460938 50.820312 44.441406 52.460938 44.441406 C 54.101562 44.441406 54.921875 45.261719 54.921875 46.910156 C 54.921875 48.355469 54.410156 49.078125 53.382812 49.078125 C 51.898438 49.078125 51.152344 48.582031 51.152344 47.582031 C 51.152344 46.386719 51.589844 45.789062 52.460938 45.789062 C 53.382812 45.789062 53.847656 46.261719 53.847656 47.210938 C 53.847656 47.957031 53.539062 48.332031 52.921875 48.332031 C 52.359375 48.28125 52.078125 48.03125 52.078125 47.582031 C 52.078125 47.132812 52.207031 46.910156 52.460938 46.910156 L 52.691406 46.984375 L 52.769531 47.132812 L 52.460938 47.507812 L 52.539062 47.808594 L 53.460938 47.808594 L 53.460938 47.210938 C 53.460938 46.558594 53.128906 46.261719 52.460938 46.3125 C 51.847656 46.261719 51.539062 46.683594 51.539062 47.582031 C 51.539062 48.230469 52.078125 48.554688 53.152344 48.554688 C 54.078125 48.554688 54.539062 48.03125 54.539062 46.984375 C 54.539062 45.585938 53.820312 44.914062 52.382812 44.964844 C 51.050781 44.914062 50.382812 45.761719 50.382812 47.507812 C 50.382812 49.355469 51.230469 50.277344 52.921875 50.277344 C 54.71875 50.277344 55.617188 48.980469 55.617188 46.386719 L 54.921875 44.890625 C 54.207031 44.039062 53.359375 43.617188 52.382812 43.617188 L 51.691406 43.691406 C 49.742188 44.441406 48.71875 45.636719 48.617188 47.285156 L 49.769531 49.527344 L 52.230469 51.324219 L 54.769531 51.175781 L 55.152344 50.949219 L 55.617188 50.425781 L 56.460938 49.679688 L 56.847656 47.433594 C 56.847656 44.390625 55.382812 42.894531 52.460938 42.941406 C 51.078125 42.894531 50.050781 43.21875 49.382812 43.917969 L 48.539062 45.113281 C 47.921875 45.710938 47.617188 46.558594 47.617188 47.65625 C 47.617188 48.507812 48.128906 49.554688 49.152344 50.800781 C 50.742188 52.398438 52.308594 53.195312 53.847656 53.195312 C 55.179688 53.195312 56.359375 52.621094 57.382812 51.476562 L 58.539062 49.753906 L 58.539062 46.011719 L 58.691406 45.9375 M 20.078125 48.03125 L 20.078125 46.460938 L 19.617188 45.1875 L 19.152344 44.214844 L 18.847656 43.839844 C 18.332031 43.09375 17.488281 42.71875 16.308594 42.71875 C 15.128906 42.71875 14.308594 43.066406 13.847656 43.765625 L 13.382812 45.113281 L 13.382812 46.535156 L 13.691406 49.304688 L 14.691406 50.578125 C 14.742188 50.625 15.4375 50.949219 16.769531 51.550781 L 16.847656 51.550781 C 17.5625 51.199219 18.128906 50.652344 18.539062 49.902344 C 18.691406 49.503906 18.769531 48.832031 18.769531 47.882812 C 18.769531 46.785156 18.4375 45.789062 17.769531 44.890625 C 17.5625 44.691406 17.332031 44.589844 17.078125 44.589844 L 16.691406 44.515625 L 16.539062 44.515625 L 15.617188 45.113281 L 15.382812 45.339844 L 15 45.789062 L 14.691406 46.984375 L 14.460938 46.984375 L 14.539062 48.105469 L 15.078125 49.003906 L 15.152344 49.078125 L 16.921875 49.230469 L 17.152344 49.15625 L 17.308594 48.78125 L 17.308594 47.285156 C 17.050781 46.785156 16.410156 46.585938 15.382812 46.683594 L 15.382812 47.285156 C 15.382812 47.832031 15.589844 48.105469 16 48.105469 L 16.230469 47.734375 L 16.152344 47.65625 L 15.921875 47.210938 L 15.921875 47.132812 L 15.769531 47.058594 L 15.921875 47.058594 L 16.230469 46.835938 L 16.460938 47.058594 L 16.539062 47.058594 L 16.539062 48.480469 L 16.230469 48.554688 L 15.539062 48.554688 L 15.539062 48.480469 C 15.230469 48.28125 15.078125 47.808594 15.078125 47.058594 C 15.078125 46.359375 15.460938 46.011719 16.230469 46.011719 C 17.152344 46.011719 17.617188 46.609375 17.617188 47.808594 C 17.617188 48.308594 17.539062 48.707031 17.382812 49.003906 C 17.28125 49.605469 17.027344 49.902344 16.617188 49.902344 L 15.078125 49.527344 C 14.308594 49.128906 14.027344 48.230469 14.230469 46.835938 C 14.230469 45.835938 14.332031 45.261719 14.539062 45.113281 L 14.769531 45.039062 L 14.847656 45.039062 C 15.050781 44.289062 15.742188 43.917969 16.921875 43.917969 L 17.382812 43.992188 L 17.539062 43.917969 L 18.539062 44.964844 L 18.382812 45.1875 L 18.769531 46.011719 L 19.078125 47.882812 L 19.078125 49.078125 C 18.820312 50.578125 18.152344 51.5 17.078125 51.847656 L 16.460938 51.847656 L 15.382812 51.625 C 14.460938 51.324219 13.820312 50.625 13.460938 49.527344 L 13.308594 49.378906 L 13.152344 48.554688 L 13.078125 46.460938 L 13.152344 44.890625 L 13.539062 43.542969 L 14.078125 42.792969 C 14.28125 42.34375 14.847656 42.121094 15.769531 42.121094 C 17.410156 42.121094 18.589844 42.519531 19.308594 43.316406 L 20.078125 44.890625 L 20.382812 45.9375 L 20.460938 47.433594 L 20 50.351562 C 19.792969 51.449219 19.308594 52.347656 18.539062 53.046875 L 18.152344 53.046875 L 17.691406 53.195312 L 16.078125 53.421875 L 15.230469 53.121094 L 14 52.371094 L 12.769531 50.277344 L 12.691406 50.203125 L 12.308594 49.15625 L 12.308594 48.929688 L 12.152344 48.480469 L 12.078125 46.683594 L 12.152344 44.066406 L 12.308594 43.917969 L 12.382812 44.066406 L 12.308594 44.664062 L 12.308594 47.507812 L 12.539062 48.929688 L 12.769531 49.527344 C 13.28125 50.726562 13.847656 51.574219 14.460938 52.074219 L 16.078125 52.746094 L 18.152344 52.597656 L 18.152344 52.671875 L 18.617188 52.296875 L 19 51.773438 L 19.691406 50.277344 L 20.078125 48.03125 M 15.769531 53.195312 L 16.460938 53.195312 L 15.769531 53.195312 "/>
</g>
</svg>
