<?xml version="1.0" encoding="UTF-8"?>
<svg xmlns="http://www.w3.org/2000/svg" xmlns:xlink="http://www.w3.org/1999/xlink" width="73px" height="68px" viewBox="0 0 73 68" version="1.1">
<g id="surface1">
<path style=" stroke:none;fill-rule:evenodd;fill:rgb(60.000002%,40.000001%,60.000002%);fill-opacity:1;" d="M 41.308594 35.984375 L 36.152344 41.597656 L 32.152344 47.359375 L 31.769531 46.910156 C 31.769531 45.0625 32.847656 42.320312 35 38.675781 C 37.050781 35.183594 38.382812 33.4375 39 33.4375 L 41.308594 35.984375 M 20.617188 34.636719 C 20.972656 34.636719 22.230469 36.15625 24.382812 39.203125 C 25.207031 40.300781 25.617188 41.796875 25.617188 43.691406 C 25.617188 45.039062 25.382812 46.113281 24.921875 46.910156 C 24.359375 44.964844 23.617188 43.492188 22.691406 42.496094 C 20.640625 39.949219 19.617188 38.453125 19.617188 38.003906 L 20.617188 34.636719 M 24.921875 44.214844 L 24.769531 44.214844 L 24.847656 44.289062 L 24.921875 44.214844 M 33.230469 44.664062 L 33.152344 44.589844 L 33.152344 44.664062 L 33.230469 44.664062 "/>
</g>
</svg>
