<?xml version="1.0" encoding="UTF-8"?>
<svg xmlns="http://www.w3.org/2000/svg" xmlns:xlink="http://www.w3.org/1999/xlink" width="73px" height="68px" viewBox="0 0 73 68" version="1.1">
<g id="surface1">
<path style=" stroke:none;fill-rule:evenodd;fill:rgb(0%,0%,0%);fill-opacity:1;" d="M 63.769531 36.957031 L 63.921875 36.957031 L 64 38.304688 L 63.078125 41.820312 L 61.308594 45.1875 C 58.792969 47.132812 57.28125 48.183594 56.769531 48.332031 C 54.359375 48.878906 52.972656 49.28125 52.617188 49.527344 L 48.078125 50.503906 L 51.460938 53.347656 L 53.308594 56.265625 C 59.460938 51.027344 63 47.734375 63.921875 46.386719 L 67.152344 41.148438 L 69.460938 36.730469 L 66.769531 36.65625 L 66.539062 19.894531 L 66.539062 17.199219 C 67.460938 16.5 69.230469 15.652344 71.847656 14.652344 L 71 11.808594 L 69.230469 8.964844 L 64.691406 6.121094 C 63.152344 5.324219 61.691406 4.925781 60.308594 4.925781 L 49.769531 4.25 L 49.769531 4.175781 L 47.539062 3.878906 L 27.382812 3.878906 L 23.382812 3.578125 L 21.460938 3.652344 L 17.617188 4.699219 L 17.539062 4.773438 L 17.539062 4.402344 L 17 4.476562 L 15.691406 4.851562 L 1.769531 4.925781 L 1.308594 8.367188 L 1 8.367188 L 1.230469 7.695312 C 1.539062 6.398438 1.617188 5.398438 1.460938 4.699219 C 8.488281 4.800781 13.230469 4.699219 15.691406 4.402344 L 16.921875 4.25 L 17.847656 4.101562 L 18.152344 3.953125 L 18.230469 3.953125 C 19.207031 3.554688 20.128906 3.328125 21 3.277344 L 21.382812 3.277344 L 49.847656 3.878906 L 49.921875 3.953125 L 60.308594 4.699219 C 62.101562 4.851562 63.667969 5.300781 65 6.046875 L 69.769531 9.042969 C 71.152344 10.488281 71.949219 12.558594 72.152344 15.253906 C 69.179688 16.25 67.511719 16.875 67.152344 17.125 C 66.949219 17.222656 66.847656 18.148438 66.847656 19.894531 L 67.078125 36.433594 L 69.691406 36.359375 L 69.921875 35.984375 L 70 36.132812 L 70 36.433594 L 69.847656 36.730469 L 67.308594 41.445312 L 64.152344 46.535156 L 59.382812 51.699219 L 56.308594 54.09375 C 54.820312 55.691406 53.847656 56.488281 53.382812 56.488281 L 53 56.488281 C 52.691406 55.441406 52.050781 54.394531 51.078125 53.347656 C 48.667969 51.898438 47.460938 50.902344 47.460938 50.351562 L 52.847656 49.078125 C 54.949219 48.679688 56.4375 48.257812 57.308594 47.808594 L 61.769531 44.363281 C 62.128906 42.519531 62.539062 41.296875 63 40.699219 C 63.359375 40.148438 63.617188 38.902344 63.769531 36.957031 M 0.921875 8.515625 L 0.769531 9.265625 C 0.769531 10.414062 0.617188 11.660156 0.308594 13.007812 C 0.308594 14.15625 0.589844 15.703125 1.152344 17.648438 L 1.539062 22.289062 C 1.539062 23.585938 1.742188 25.132812 2.152344 26.925781 L 3.078125 29.246094 C 3.847656 29.648438 4.230469 30.394531 4.230469 31.492188 C 4.382812 32.242188 4.460938 33.1875 4.460938 34.335938 L 5.460938 37.554688 L 5.460938 43.46875 C 5.71875 45.113281 6.640625 46.785156 8.230469 48.480469 L 12.230469 51.398438 L 15.382812 54.09375 L 17.230469 51.324219 C 17.691406 49.929688 18.207031 49.03125 18.769531 48.632812 L 16.308594 48.105469 L 12.847656 46.984375 C 11.101562 46.234375 10.128906 45.6875 9.921875 45.339844 L 8.152344 42.269531 L 8.152344 39.277344 L 8.308594 39.203125 C 8.617188 39.203125 9.050781 39.574219 9.617188 40.324219 L 10 40.847656 L 10.308594 41.148438 L 14.152344 41.148438 L 15.308594 41.296875 L 15.382812 41.296875 L 15.382812 41.519531 L 15.769531 43.390625 C 16.691406 42.84375 17.589844 41.796875 18.460938 40.25 L 19.617188 38.601562 L 17.308594 38.675781 L 12.382812 38.078125 C 11.5625 37.980469 10.898438 37.679688 10.382812 37.179688 L 8.152344 35.460938 L 7.769531 33.140625 L 7.691406 33.140625 L 5.382812 23.484375 C 4.972656 20.042969 4.769531 16.824219 4.769531 13.832031 L 4.921875 11.285156 L 5.539062 9.042969 L 7.230469 8.890625 C 9.179688 8.890625 11.101562 9.640625 13 11.136719 C 14.027344 11.785156 14.972656 12.632812 15.847656 13.679688 L 20.152344 18.996094 C 22 21.039062 23.308594 22.886719 24.078125 24.53125 C 25.152344 26.628906 26.207031 30.296875 27.230469 35.535156 L 27.308594 35.535156 L 27.308594 30.296875 C 27 27.699219 26.589844 25.753906 26.078125 24.457031 L 26.078125 24.160156 L 24.078125 17.273438 C 23.71875 14.777344 22.742188 12.359375 21.152344 10.015625 L 21.152344 9.566406 L 21.308594 9.566406 L 21.460938 9.640625 L 20.152344 6.496094 L 20.152344 6.347656 L 20.382812 6.273438 L 24.308594 8.367188 L 25.691406 9.640625 L 27.078125 11.511719 L 29.847656 14.578125 L 36.617188 9.566406 C 37.027344 9.214844 37.410156 8.917969 37.769531 8.667969 L 38.230469 8.367188 L 40.308594 6.945312 L 40.382812 7.019531 L 39.617188 7.621094 L 44.460938 6.121094 L 44.847656 6.121094 L 44.921875 6.273438 C 44.921875 7.371094 44.511719 8.34375 43.691406 9.191406 L 43.617188 9.191406 L 40.769531 12.859375 L 38.769531 15.101562 L 36.230469 17.199219 C 33.308594 21.238281 31.742188 24.058594 31.539062 25.65625 L 32.078125 30.820312 L 33.308594 37.253906 L 33.382812 37.332031 L 34.152344 33.589844 L 35.078125 29.921875 C 35.792969 28.125 36.382812 26.878906 36.847656 26.179688 L 39.539062 22.4375 C 40.101562 21.289062 43.027344 18.820312 48.308594 15.027344 L 56.539062 8.964844 C 56.949219 7.820312 57.460938 7.246094 58.078125 7.246094 C 60.382812 7.246094 61.792969 9.566406 62.308594 14.207031 L 62.847656 21.238281 L 62.617188 26.253906 L 62 29.324219 C 61.949219 30.171875 60.949219 32.191406 59 35.382812 C 57.359375 37.828125 55.027344 39.351562 52 39.949219 L 44.230469 40.324219 L 45.691406 41.222656 L 48.230469 42.269531 L 54.308594 44.066406 L 54.539062 44.066406 L 54.539062 41.519531 L 54.847656 41.445312 L 54.847656 41.597656 L 55.078125 41.597656 L 57.382812 41.820312 C 59.332031 41.820312 60.667969 41.421875 61.382812 40.625 C 62.101562 39.226562 62.871094 37.902344 63.691406 36.65625 L 63.769531 36.882812 L 62.230469 39.574219 C 61.667969 41.273438 60.050781 42.121094 57.382812 42.121094 L 54.847656 41.820312 L 55 44.441406 L 54.769531 44.515625 L 48.382812 42.570312 L 45.769531 41.519531 L 43.382812 40.324219 L 43.308594 40.324219 L 43.382812 40.25 L 43.382812 40.175781 L 43.539062 40.097656 L 43.617188 40.097656 L 44.308594 40.023438 L 49.617188 39.875 L 53.078125 39.425781 C 55.027344 38.726562 56.050781 38.328125 56.152344 38.226562 L 58.691406 35.160156 C 59.820312 32.265625 60.898438 30.269531 61.921875 29.171875 L 62 29.246094 L 62 29.171875 L 62.308594 26.105469 L 62.539062 21.238281 C 62.539062 12.109375 61.28125 7.542969 58.769531 7.542969 C 58.410156 7.542969 58.050781 7.71875 57.691406 8.066406 L 57.769531 8.144531 L 57.382812 8.441406 L 56.769531 9.265625 L 56.460938 9.117188 L 55.382812 10.089844 L 52.847656 11.886719 L 48.152344 15.476562 C 43.640625 18.472656 40.792969 20.964844 39.617188 22.960938 L 36.921875 26.777344 L 35.078125 30.445312 L 33.539062 38.003906 C 33.027344 37.65625 32.488281 35.558594 31.921875 31.71875 L 31.152344 24.832031 L 31.230469 24.382812 L 31.382812 24.90625 C 31.539062 23.160156 33.179688 20.441406 36.308594 16.75 L 38.769531 14.652344 L 40.617188 12.484375 L 43.769531 8.515625 C 43.972656 7.621094 44.230469 6.921875 44.539062 6.421875 L 44.539062 6.347656 C 40.847656 7.246094 38.792969 8.042969 38.382812 8.742188 L 36.847656 9.863281 L 36.152344 10.386719 L 35.460938 10.914062 L 30.078125 14.878906 L 26.769531 11.660156 C 25.792969 10.261719 24.972656 9.289062 24.308594 8.742188 L 20.460938 6.644531 L 22.078125 9.9375 L 21.921875 10.089844 C 22.589844 10.9375 23.410156 13.183594 24.382812 16.824219 L 25.230469 20.492188 L 26.539062 23.933594 L 26.460938 24.609375 L 27.539062 30.144531 L 27.539062 37.628906 L 27.382812 37.703125 C 26.511719 32.863281 25.511719 28.847656 24.382812 25.65625 C 23.921875 24.109375 22.589844 22.089844 20.382812 19.59375 L 16.921875 15.027344 L 15.617188 13.832031 C 14.742188 12.832031 13.792969 11.984375 12.769531 11.285156 C 12.410156 10.988281 11.667969 10.636719 10.539062 10.238281 C 9.5625 9.539062 8.511719 9.191406 7.382812 9.191406 L 5.617188 9.339844 L 5.152344 11.511719 L 5 13.757812 L 5.617188 23.261719 L 7.308594 30.371094 L 7.308594 28.648438 L 7.460938 28.648438 L 7.847656 32.089844 L 8 32.691406 L 7.921875 33.140625 L 8 34.039062 C 8.207031 35.335938 8.792969 36.183594 9.769531 36.582031 C 10.230469 36.730469 10.539062 36.90625 10.691406 37.105469 L 12 37.628906 L 19.460938 38.304688 L 19.921875 38.378906 L 20.152344 38.226562 L 20.539062 38.378906 L 20.539062 38.453125 C 19.820312 39 18.972656 40.097656 18 41.746094 C 17.28125 43.09375 16.511719 43.765625 15.691406 43.765625 L 15.152344 42.792969 L 15.152344 41.519531 L 14.078125 41.519531 L 10.921875 41.445312 L 10.691406 41.445312 L 11.152344 41.671875 L 10.382812 41.445312 C 9.308594 41.347656 8.847656 41.046875 9 40.546875 L 9 40.175781 L 9.078125 40.175781 L 8.460938 39.648438 L 9 43.691406 C 10.332031 45.4375 12.71875 46.785156 16.152344 47.734375 C 18.050781 47.734375 19.128906 47.980469 19.382812 48.480469 L 19.382812 48.554688 C 19.382812 48.90625 18.742188 49.828125 17.460938 51.324219 C 17.207031 51.972656 16.5625 52.921875 15.539062 54.167969 L 15.691406 54.320312 L 15.691406 54.394531 L 15.460938 54.320312 L 15.152344 54.320312 L 15.308594 54.167969 L 12.308594 52 L 8.921875 49.527344 L 6.382812 46.910156 L 5.230469 44.363281 L 5.230469 42.644531 L 5.308594 42.644531 L 5.230469 38.976562 C 5.28125 38.078125 4.847656 36.457031 3.921875 34.113281 L 3.921875 31.71875 C 3.871094 31.316406 3.5625 30.59375 3 29.546875 L 2.460938 28.949219 L 2.460938 28.351562 L 1.847656 27.226562 L 1.308594 22.511719 L 1.308594 20.191406 L 0.921875 17.796875 C 0.308594 15.902344 0 14.328125 0 13.082031 L 0.460938 9.117188 L 0.769531 7.695312 L 1.078125 7.695312 L 0.921875 8.515625 M 43.539062 63.148438 L 43.382812 63.226562 L 43.078125 63.226562 C 38.617188 66.269531 35.792969 67.789062 34.617188 67.789062 C 33.382812 67.789062 31.230469 66.316406 28.152344 63.375 L 27.921875 63.375 L 27.847656 63.226562 C 27.847656 61.128906 29.128906 58.535156 31.691406 55.441406 C 34.460938 58.785156 38.308594 61.304688 43.230469 63 L 43.308594 62.925781 L 43.382812 63 L 43.539062 63.074219 L 43.539062 63.148438 M 39.539062 65.171875 L 42.921875 63.226562 C 41.382812 62.976562 39.027344 61.753906 35.847656 59.558594 C 34.207031 58.410156 32.871094 57.164062 31.847656 55.816406 C 30.308594 57.5625 29.101562 60.054688 28.230469 63.300781 L 28.308594 63.226562 L 34 67.566406 C 35.28125 67.566406 36.28125 67.316406 37 66.816406 C 38.230469 65.917969 39.078125 65.371094 39.539062 65.171875 "/>
<path style=" stroke:none;fill-rule:evenodd;fill:rgb(49.803922%,25.098041%,36.470589%);fill-opacity:1;" d="M 1 8.367188 L 1.308594 8.367188 L 1.769531 4.925781 L 15.691406 4.851562 L 17 4.476562 L 17.539062 4.402344 L 17.539062 4.773438 L 17.617188 4.699219 L 21.460938 3.652344 L 23.382812 3.578125 L 27.382812 3.878906 L 47.539062 3.878906 L 49.769531 4.175781 L 49.769531 4.25 L 60.308594 4.925781 C 61.691406 4.925781 63.152344 5.324219 64.691406 6.121094 L 69.230469 8.964844 L 71 11.808594 L 71.847656 14.652344 C 69.230469 15.652344 67.460938 16.5 66.539062 17.199219 L 66.539062 19.894531 L 66.769531 36.65625 L 69.460938 36.730469 L 67.152344 41.148438 L 63.921875 46.386719 C 63 47.734375 59.460938 51.027344 53.308594 56.265625 L 51.460938 53.347656 L 48.078125 50.503906 L 52.617188 49.527344 C 52.972656 49.28125 54.359375 48.878906 56.769531 48.332031 C 57.28125 48.183594 58.792969 47.132812 61.308594 45.1875 L 63.078125 41.820312 L 64 38.304688 L 63.921875 36.957031 L 63.769531 36.957031 L 63.769531 36.882812 L 63.691406 36.65625 C 62.871094 37.902344 62.101562 39.226562 61.382812 40.625 C 60.667969 41.421875 59.332031 41.820312 57.382812 41.820312 L 55.078125 41.597656 L 54.847656 41.597656 L 54.847656 41.445312 L 54.539062 41.519531 L 54.539062 44.066406 L 54.308594 44.066406 L 48.230469 42.269531 L 45.691406 41.222656 L 44.230469 40.324219 L 52 39.949219 C 55.027344 39.351562 57.359375 37.828125 59 35.382812 C 60.949219 32.191406 61.949219 30.171875 62 29.324219 L 62.617188 26.253906 L 62.847656 21.238281 L 62.308594 14.207031 C 61.792969 9.566406 60.382812 7.246094 58.078125 7.246094 C 57.460938 7.246094 56.949219 7.820312 56.539062 8.964844 L 48.308594 15.027344 C 43.027344 18.820312 40.101562 21.289062 39.539062 22.4375 L 36.847656 26.179688 C 36.382812 26.878906 35.792969 28.125 35.078125 29.921875 L 34.152344 33.589844 L 33.382812 37.332031 L 33.308594 37.253906 L 32.078125 30.820312 L 31.539062 25.65625 C 31.742188 24.058594 33.308594 21.238281 36.230469 17.199219 L 38.769531 15.101562 L 40.769531 12.859375 L 43.617188 9.191406 L 43.691406 9.191406 C 44.511719 8.34375 44.921875 7.371094 44.921875 6.273438 L 44.847656 6.121094 L 44.460938 6.121094 L 39.617188 7.621094 L 40.382812 7.019531 L 40.308594 6.945312 L 38.230469 8.367188 L 37.769531 8.667969 C 37.410156 8.917969 37.027344 9.214844 36.617188 9.566406 L 29.847656 14.578125 L 27.078125 11.511719 L 25.691406 9.640625 L 24.308594 8.367188 L 20.382812 6.273438 L 20.152344 6.347656 L 20.152344 6.496094 L 21.460938 9.640625 L 21.308594 9.566406 L 21.152344 9.566406 L 21.152344 10.015625 C 22.742188 12.359375 23.71875 14.777344 24.078125 17.273438 L 26.078125 24.160156 L 26.078125 24.457031 C 26.589844 25.753906 27 27.699219 27.308594 30.296875 L 27.308594 35.535156 L 27.230469 35.535156 C 26.207031 30.296875 25.152344 26.628906 24.078125 24.53125 C 23.308594 22.886719 22 21.039062 20.152344 18.996094 L 15.847656 13.679688 C 14.972656 12.632812 14.027344 11.785156 13 11.136719 C 11.101562 9.640625 9.179688 8.890625 7.230469 8.890625 L 5.539062 9.042969 L 4.921875 11.285156 L 4.769531 13.832031 C 4.769531 16.824219 4.972656 20.042969 5.382812 23.484375 L 7.691406 33.140625 L 7.769531 33.140625 L 8.152344 35.460938 L 10.382812 37.179688 C 10.898438 37.679688 11.5625 37.980469 12.382812 38.078125 L 17.308594 38.675781 L 19.617188 38.601562 L 18.460938 40.25 C 17.589844 41.796875 16.691406 42.84375 15.769531 43.390625 L 15.382812 41.519531 L 15.382812 41.296875 L 15.308594 41.296875 L 14.152344 41.148438 L 10.308594 41.148438 L 10 40.847656 L 9.617188 40.324219 C 9.050781 39.574219 8.617188 39.203125 8.308594 39.203125 L 8.152344 39.277344 L 8.152344 42.269531 L 9.921875 45.339844 C 10.128906 45.6875 11.101562 46.234375 12.847656 46.984375 L 16.308594 48.105469 L 18.769531 48.632812 C 18.207031 49.03125 17.691406 49.929688 17.230469 51.324219 L 15.382812 54.09375 L 12.230469 51.398438 L 8.230469 48.480469 C 6.640625 46.785156 5.71875 45.113281 5.460938 43.46875 L 5.460938 37.554688 L 4.460938 34.335938 C 4.460938 33.1875 4.382812 32.242188 4.230469 31.492188 C 4.230469 30.394531 3.847656 29.648438 3.078125 29.246094 L 2.152344 26.925781 C 1.742188 25.132812 1.539062 23.585938 1.539062 22.289062 L 1.152344 17.648438 C 0.589844 15.703125 0.308594 14.15625 0.308594 13.007812 C 0.617188 11.660156 0.769531 10.414062 0.769531 9.265625 L 0.921875 8.515625 L 1 8.367188 M 39.539062 65.171875 C 39.078125 65.371094 38.230469 65.917969 37 66.816406 C 36.28125 67.316406 35.28125 67.566406 34 67.566406 L 28.308594 63.226562 L 28.230469 63.300781 C 29.101562 60.054688 30.308594 57.5625 31.847656 55.816406 C 32.871094 57.164062 34.207031 58.410156 35.847656 59.558594 C 39.027344 61.753906 41.382812 62.976562 42.921875 63.226562 L 39.539062 65.171875 "/>
</g>
</svg>
