<?xml version="1.0" encoding="UTF-8"?>
<svg xmlns="http://www.w3.org/2000/svg" xmlns:xlink="http://www.w3.org/1999/xlink" width="355px" height="648px" viewBox="0 0 355 648" version="1.1">
<g id="surface1">
<path style=" stroke:none;fill-rule:evenodd;fill:rgb(0%,0%,0%);fill-opacity:1;" d="M 168.015625 94.144531 L 168.523438 94.144531 L 173.828125 94.570312 C 174.75 94.902344 176.082031 96.058594 177.828125 98.046875 L 177.898438 97.835938 L 178.335938 97.90625 L 178.410156 98.191406 L 169.105469 124.886719 L 175.574219 130.992188 C 180.417969 134.492188 183.277344 136.671875 184.152344 137.523438 C 188.367188 141.5 194.523438 145.734375 202.613281 150.230469 C 208.140625 153.308594 211.144531 157.59375 211.628906 163.082031 L 212.863281 175.863281 L 213.15625 178.984375 L 212.71875 188.570312 L 213.007812 194.960938 C 213.007812 196.191406 213.589844 198.273438 214.753906 201.207031 C 215.042969 204.996094 216.789062 209.183594 219.988281 213.773438 L 219.914062 213.917969 L 219.988281 214.484375 C 219.988281 215.382812 218.726562 217.394531 216.207031 220.519531 C 213.734375 223.550781 211.652344 225.230469 209.957031 225.5625 L 209.664062 225.632812 L 209.375 225.632812 L 209.082031 225.5625 L 208.9375 225.347656 C 208.453125 224.828125 208.066406 223.808594 207.777344 222.296875 L 207.410156 219.101562 L 195.855469 221.015625 C 194.886719 221.113281 191.855469 221.941406 186.769531 223.503906 L 179.425781 227.265625 L 180.226562 229.324219 C 180.417969 230.601562 180.78125 231.5 181.316406 232.023438 L 181.316406 233.015625 L 180.953125 233.15625 L 178.480469 233.441406 L 176.15625 233.085938 L 175.644531 235.570312 L 175.792969 236.496094 C 175.792969 237.726562 175.039062 239.523438 173.539062 241.890625 L 173.539062 242.246094 L 173.394531 242.316406 L 175.863281 254.03125 C 177.949219 260.46875 179.402344 264.515625 180.226562 266.171875 C 180.90625 267.59375 181.484375 269.628906 181.96875 272.277344 C 182.453125 274.929688 183.035156 276.941406 183.714844 278.3125 C 185.945312 282.902344 187.324219 286.335938 187.859375 288.605469 L 187.421875 287.753906 L 187.203125 287.828125 L 188.003906 290.027344 L 187.421875 290.097656 C 187.421875 288.679688 187.035156 287.046875 186.257812 285.199219 L 183.351562 279.164062 C 182.671875 277.746094 182.066406 275.757812 181.535156 273.199219 C 180.953125 270.457031 180.394531 268.46875 179.863281 267.238281 C 175.210938 256.304688 172.882812 248.328125 172.882812 243.3125 L 172.882812 242.882812 L 172.8125 242.957031 L 169.394531 247.640625 C 165.324219 252.753906 162.222656 255.949219 160.089844 257.226562 C 153.984375 261.722656 149.042969 265.15625 145.261719 267.519531 C 143.808594 268.371094 140.246094 270.007812 134.578125 272.417969 C 129.632812 274.503906 126.410156 275.734375 124.910156 276.113281 L 124.835938 276.113281 L 124.183594 276.183594 L 123.890625 276.113281 L 123.746094 275.757812 C 134.261719 271.96875 141.410156 268.964844 145.1875 266.738281 C 149.164062 264.375 154.15625 260.871094 160.164062 256.230469 C 162.390625 254.671875 164.308594 252.894531 165.90625 250.90625 L 169.105469 246.71875 L 169.324219 246.789062 L 169.6875 246.648438 L 169.902344 245.652344 L 173.246094 240.824219 C 173.34375 239.785156 173.515625 239.027344 173.757812 238.554688 C 174.871094 236.234375 175.523438 233.15625 175.71875 229.324219 L 176.226562 222.011719 L 176.082031 221.726562 C 176.082031 221.160156 176.375 220.355469 176.953125 219.3125 L 177.027344 218.886719 L 176.953125 217.113281 C 176.953125 208.640625 178.261719 201.539062 180.878906 195.8125 L 181.027344 195.601562 L 180.878906 195.742188 L 180.808594 195.742188 L 172.957031 201.421875 L 158.347656 207.597656 C 143.613281 212.996094 129.898438 215.691406 117.203125 215.691406 L 115.3125 215.691406 L 114.367188 215.410156 C 114.175781 215.410156 114.054688 215.480469 114.003906 215.621094 L 113.859375 215.621094 L 113.496094 215.550781 L 113.421875 215.195312 L 133.847656 213.5625 L 140.246094 211.714844 C 146.789062 210.484375 152.773438 208.875 158.199219 206.886719 C 166.390625 203.8125 171.261719 201.753906 172.8125 200.710938 C 177.609375 197.445312 180.660156 194.984375 181.96875 193.328125 L 182.988281 190.773438 L 182.988281 190.699219 L 183.351562 190.417969 L 183.277344 190.132812 L 184.441406 187.222656 L 184.152344 185.304688 C 184.199219 183.835938 184.101562 182.867188 183.859375 182.394531 L 181.027344 177.636719 L 181.316406 176.925781 L 181.027344 176.429688 L 181.027344 176.359375 C 181.847656 176.359375 182.820312 177.828125 183.933594 180.761719 L 184.003906 181.117188 L 184.078125 181.117188 L 184.222656 181.472656 L 185.3125 185.164062 L 189.601562 176.074219 L 190.183594 175.292969 L 190.113281 175.011719 L 190.039062 175.011719 L 190.113281 174.796875 L 190.476562 175.367188 C 190.476562 176.359375 189.820312 178.183594 188.511719 180.832031 L 185.386719 187.082031 L 184.878906 188.003906 L 184.078125 189.636719 L 182.332031 193.753906 L 182.1875 194.25 C 181.121094 196.949219 180.25 199.648438 179.570312 202.34375 C 182.238281 201.113281 183.957031 201.042969 184.734375 202.132812 L 188.003906 202.0625 C 194.496094 202.0625 197.746094 202.414062 197.746094 203.125 L 197.746094 203.269531 L 197.234375 203.195312 L 196.800781 203.480469 L 195.925781 203.480469 L 193.820312 202.699219 L 181.460938 203.054688 L 179.425781 203.054688 L 178.554688 207.386719 L 178.261719 207.386719 L 178.261719 207.457031 L 178.480469 207.8125 L 178.480469 207.882812 C 177.949219 210.960938 177.683594 214.035156 177.683594 217.113281 C 177.683594 220.425781 177.875 222.578125 178.261719 223.574219 L 178.261719 226.414062 C 179.378906 225.65625 181.535156 224.636719 184.734375 223.359375 C 189.628906 221.417969 193.066406 220.425781 195.054688 220.378906 C 200.722656 220.1875 205.375 219.335938 209.011719 217.824219 L 211.554688 216.757812 L 211.699219 217.394531 L 211.992188 217.253906 L 211.992188 216.542969 L 218.898438 213.347656 C 217.492188 211.503906 215.796875 207.363281 213.808594 200.925781 C 212.886719 198.179688 212.378906 196.121094 212.28125 194.746094 L 211.992188 188.570312 C 211.992188 184.972656 212.136719 182.773438 212.425781 181.96875 L 212.0625 178.277344 C 211.96875 177.234375 212.039062 176.453125 212.28125 175.933594 C 211.992188 174.75 211.53125 170.488281 210.902344 163.152344 C 210.464844 157.996094 207.242188 153.710938 201.234375 150.304688 C 194.109375 146.234375 188.148438 142.019531 183.351562 137.664062 L 174.554688 131.347656 C 171.261719 129.027344 169.25 127.085938 168.523438 125.523438 L 163.871094 129.429688 L 155.074219 133.261719 C 148.289062 135.582031 141.917969 136.90625 135.957031 137.238281 L 133.847656 137.167969 C 133.605469 137.167969 133.460938 137.214844 133.414062 137.308594 L 133.050781 137.308594 L 132.6875 137.238281 L 132.613281 136.882812 L 140.027344 136.03125 C 145.503906 135.226562 150.132812 134.210938 153.910156 132.980469 L 154.128906 132.910156 L 154.277344 132.910156 L 154.421875 132.765625 C 157.472656 131.679688 160.40625 130.398438 163.214844 128.933594 C 164.914062 128.175781 166.585938 126.898438 168.230469 125.097656 L 168.230469 124.460938 C 170.703125 118.78125 173.804688 110.308594 177.535156 99.042969 L 173.609375 101.8125 C 172.980469 102.425781 171.550781 103.183594 169.324219 104.082031 L 161.980469 105.859375 L 161.90625 105.789062 L 161.90625 105.859375 L 153.621094 106.355469 L 140.464844 105.574219 L 130.140625 104.722656 C 124.472656 104.722656 120.597656 105.195312 118.511719 106.140625 C 116.378906 107.042969 112.359375 107.492188 106.445312 107.492188 C 100.097656 107.492188 95.398438 106.332031 92.34375 104.011719 C 95.492188 111.253906 98.496094 117.476562 101.355469 122.683594 L 101.429688 122.542969 L 101.71875 123.324219 L 101.9375 123.75 L 101.792969 123.960938 L 101.792969 124.53125 C 101.792969 125.476562 101.597656 126.328125 101.210938 127.085938 L 103.539062 128.863281 L 106.664062 129.714844 C 107.585938 129.855469 108.042969 130.042969 108.042969 130.28125 L 108.042969 130.496094 L 107.828125 130.636719 L 105.792969 130.636719 C 104.386719 130.351562 102.761719 129.335938 100.921875 127.582031 C 100.289062 128.4375 99.371094 129.074219 98.160156 129.5 L 97.359375 129.855469 L 96.851562 129.644531 L 96.488281 129.714844 L 96.414062 129.996094 L 96.488281 130.210938 C 90.816406 132.386719 87.011719 134.019531 85.074219 135.109375 C 77.660156 139.085938 72.839844 142.992188 70.609375 146.824219 C 68.816406 149.804688 65.640625 153.851562 61.085938 158.964844 C 60.746094 159.390625 59.921875 160.03125 58.617188 160.882812 L 65.230469 160.457031 C 66.925781 160.457031 68.378906 160.8125 69.589844 161.519531 L 69.664062 162.019531 L 69.664062 162.089844 L 69.589844 162.089844 L 69.664062 162.019531 L 69.300781 161.734375 L 68.792969 162.089844 L 65.230469 161.238281 L 58.105469 161.875 L 57.308594 161.664062 L 53.019531 163.933594 C 51.417969 164.738281 50.039062 165.6875 48.875 166.773438 L 48.730469 166.773438 L 48.730469 166.988281 L 46.914062 169.046875 C 48.269531 169.1875 50.136719 169.898438 52.507812 171.175781 C 54.691406 172.359375 56.3125 173.425781 57.378906 174.371094 C 58.882812 175.742188 60.480469 177.828125 62.175781 180.621094 C 62.417969 179.910156 63.4375 178.371094 65.230469 176.003906 L 71.410156 167.699219 C 71.941406 166.894531 73.785156 164.738281 76.933594 161.238281 L 79.769531 157.972656 L 80.929688 156.265625 L 81.511719 155.414062 L 81.875 154.988281 L 90.382812 154.917969 L 98.886719 155.132812 L 98.957031 155.132812 L 98.886719 155.058594 C 100 153.167969 100.628906 151.769531 100.777344 150.871094 C 100.921875 148.21875 101.042969 146.824219 101.140625 146.683594 L 101.355469 147.25 L 101.503906 149.023438 C 101.503906 151.675781 100.824219 153.804688 99.46875 155.414062 L 99.46875 155.484375 L 99.832031 155.628906 L 100.414062 156.410156 L 100.484375 157.6875 L 99.539062 160.171875 C 99.78125 159.933594 100.074219 159.675781 100.414062 159.390625 C 101.71875 157.972656 102.980469 157.167969 104.191406 156.976562 L 105.355469 157.402344 C 105.792969 158.207031 106.007812 160.007812 106.007812 162.796875 C 106.007812 166.347656 105.644531 168.335938 104.917969 168.761719 C 102.980469 169.804688 100.945312 171.390625 98.8125 173.519531 L 98.886719 174.585938 C 98.886719 176.144531 98.472656 177.28125 97.648438 177.992188 C 96.824219 178.796875 96.367188 180.050781 96.269531 181.753906 C 96.171875 183.175781 95.808594 184.382812 95.179688 185.375 C 93.871094 187.175781 92.875 188.167969 92.199219 188.359375 L 85.730469 188.359375 L 85.511719 188.785156 L 85.21875 188.996094 L 85.292969 189.140625 L 84.636719 189.992188 L 94.304688 196.027344 L 97.359375 197.375 L 97.285156 197.375 L 97.503906 197.445312 L 97.503906 197.585938 L 97.867188 197.660156 L 98.011719 197.660156 L 107.753906 201.777344 L 107.753906 202.132812 L 107.609375 202.203125 L 107.609375 202.132812 L 107.535156 201.847656 L 106.882812 201.777344 L 106.15625 201.917969 C 104.070312 201.160156 99.710938 199.292969 93.070312 196.308594 C 90.066406 194.984375 87.160156 192.996094 84.347656 190.347656 C 83.328125 191.625 82.359375 192.261719 81.441406 192.261719 C 80.421875 192.261719 79.769531 192.027344 79.476562 191.554688 L 78.679688 192.40625 L 78.460938 192.546875 L 78.460938 192.617188 C 79.960938 195.457031 80.714844 197.210938 80.714844 197.871094 L 80.714844 197.941406 L 82.023438 201.136719 L 82.09375 201.351562 L 82.09375 201.421875 L 82.167969 201.5625 C 82.941406 204.121094 83.328125 206.273438 83.328125 208.023438 L 83.328125 209.089844 L 83.402344 208.875 L 83.765625 209.585938 L 83.765625 209.800781 L 82.675781 214.769531 C 81.949219 218.367188 81.585938 221.371094 81.585938 223.785156 C 81.585938 227.242188 82.3125 229.964844 83.765625 231.949219 C 84.6875 233.179688 86.941406 235.644531 90.527344 239.335938 L 90.597656 239.40625 L 90.597656 239.265625 L 98.011719 246.433594 L 102.738281 250.550781 L 105.574219 254.597656 L 105.210938 254.882812 L 97.214844 246.648438 L 91.835938 241.394531 L 91.035156 241.039062 C 89.628906 240.234375 87.546875 238.058594 84.785156 234.507812 L 84.785156 242.246094 L 84.566406 242.386719 L 84.636719 247.144531 L 84.636719 251.476562 C 84.492188 257.582031 84.058594 262.644531 83.328125 266.667969 C 84.394531 270.503906 87.351562 274.054688 92.199219 277.320312 L 93.070312 277.886719 L 93.070312 278.242188 L 92.5625 278.3125 L 94.886719 279.308594 C 97.699219 280.488281 100.21875 281.222656 102.449219 281.507812 L 108.261719 282.644531 L 121.492188 283.566406 C 128.277344 283.566406 134.429688 282.597656 139.957031 280.65625 C 143.058594 279.613281 146.886719 277.980469 151.441406 275.757812 L 151.875 275.828125 L 151.949219 276.113281 L 151.949219 276.253906 L 151.804688 276.183594 L 151.660156 276.464844 C 150.496094 277.269531 146.304688 279.09375 139.082031 281.933594 C 134.625 283.496094 128.761719 284.277344 121.492188 284.277344 L 107.316406 283.210938 L 101.429688 282.148438 L 91.6875 278.667969 L 91.90625 278.101562 L 89.4375 276.253906 L 86.238281 273.128906 C 84.492188 270.761719 83.449219 269.082031 83.113281 268.089844 C 82.628906 270.171875 81.5625 273.34375 79.914062 277.601562 C 78.558594 281.011719 77.636719 283.851562 77.152344 286.121094 L 76.640625 285.980469 L 76.640625 285.695312 L 76.933594 285.058594 L 76.789062 284.914062 C 76.546875 285.011719 76.304688 285.222656 76.0625 285.554688 L 76.0625 285.484375 L 80.277344 274.125 C 81.972656 269.53125 82.941406 265.769531 83.183594 262.835938 L 83.910156 251.546875 L 83.910156 245.867188 C 83.910156 243.214844 84.007812 241.488281 84.203125 240.683594 L 83.910156 233.371094 L 83.476562 232.804688 C 82.070312 230.863281 81.246094 229.277344 81.003906 228.046875 L 80.859375 223.785156 C 80.859375 221.75 81.101562 219.265625 81.585938 216.332031 C 81.972656 213.679688 82.457031 211.527344 83.039062 209.871094 L 82.675781 210.15625 L 82.601562 208.523438 C 82.507812 205.871094 82.191406 204.097656 81.65625 203.195312 L 80.277344 199.222656 L 78.824219 200.996094 C 77.804688 202.035156 77.078125 202.628906 76.640625 202.769531 L 76.207031 202.914062 L 70.101562 198.085938 L 71.410156 196.378906 C 72.28125 195.386719 72.886719 194.84375 73.226562 194.746094 L 78.023438 191.835938 L 78.167969 191.835938 L 79.550781 190.417969 L 79.621094 190.417969 L 79.914062 190.488281 L 79.984375 190.699219 L 80.929688 191.554688 C 82.820312 191.554688 84.203125 190.464844 85.074219 188.285156 L 84.785156 188.285156 L 84.785156 188.074219 L 85.292969 187.789062 L 85.367188 187.433594 L 85.730469 187.507812 L 85.730469 187.648438 L 88.5625 187.933594 C 90.308594 188.40625 91.738281 188.167969 92.851562 187.222656 L 93.652344 186.300781 L 94.816406 184.238281 C 95.347656 182.726562 95.589844 181.425781 95.542969 180.335938 C 95.492188 179.71875 95.808594 179.011719 96.488281 178.207031 L 98.011719 176.429688 L 98.011719 174.230469 L 97.722656 173.804688 L 98.375 172.878906 L 98.523438 172.527344 L 98.59375 172.597656 L 103.609375 168.335938 L 105.28125 166.988281 L 105.28125 162.796875 C 105.429688 159.390625 105.210938 157.6875 104.628906 157.6875 C 103.222656 157.6875 101.867188 158.492188 100.558594 160.101562 C 99.347656 161.617188 98.496094 162.394531 98.011719 162.445312 L 97.578125 162.585938 L 97.285156 162.515625 L 97.140625 162.160156 C 98.886719 159.605469 99.757812 158.089844 99.757812 157.617188 L 99.613281 156.550781 L 99.105469 156.054688 L 98.742188 155.839844 L 81.949219 155.910156 L 81.730469 156.550781 L 81.003906 157.402344 L 79.839844 159.035156 L 77.441406 162.089844 C 75.503906 163.699219 73.589844 165.851562 71.699219 168.550781 L 62.539062 181.328125 L 62.25 181.257812 L 62.25 181.542969 L 61.960938 181.613281 L 56.871094 175.011719 L 56.796875 174.9375 L 54.835938 176.714844 L 52.363281 178.488281 L 51.929688 178.488281 L 51.710938 178.417969 L 51.710938 178.347656 L 49.820312 176.644531 L 47.785156 174.085938 C 46.28125 171.4375 45.53125 169.851562 45.53125 169.332031 L 45.605469 169.1875 L 45.53125 169.1875 L 45.605469 169.1875 L 45.894531 168.976562 L 45.96875 169.046875 L 46.039062 169.046875 C 46.136719 168.101562 46.914062 167.128906 48.367188 166.136719 L 53.234375 163.152344 L 61.085938 157.898438 L 70.828125 145.402344 C 74.847656 140.148438 80.011719 136.199219 86.308594 133.546875 C 88.296875 132.648438 92.539062 131.015625 99.03125 128.648438 C 100 128.082031 100.558594 126.992188 100.703125 125.382812 L 100.992188 123.324219 C 100.121094 122 98.496094 118.828125 96.125 113.808594 L 91.472656 103.515625 L 91.542969 103.300781 L 91.035156 102.804688 L 91.109375 102.734375 L 91.035156 102.519531 C 91.035156 101.386719 92.804688 100.25 96.339844 99.113281 C 98.523438 98.402344 100.945312 97.882812 103.609375 97.550781 L 106.226562 97.339844 C 106.277344 96.914062 106.519531 96.699219 106.953125 96.699219 L 118.511719 105.21875 L 118.65625 105.359375 C 119.289062 105.078125 120.0625 104.839844 120.984375 104.652344 L 120.546875 104.367188 L 121.347656 104.011719 L 121.929688 104.507812 L 130.070312 103.941406 L 140.320312 104.792969 L 146.933594 105.503906 L 147.660156 105.007812 L 149.40625 105.21875 L 148.824219 105.574219 L 150.714844 105.644531 L 150.351562 105.21875 L 150.351562 105.148438 L 157.253906 99.113281 L 159.871094 95.988281 C 161.421875 94.191406 162.539062 93.292969 163.214844 93.292969 L 167.722656 93.859375 L 168.015625 94.144531 M 177.171875 98.546875 L 177.246094 98.546875 L 175.574219 96.914062 C 174.363281 95.585938 171.988281 94.925781 168.449219 94.925781 L 166.050781 94.996094 L 166.125 94.851562 L 166.34375 94.640625 L 165.761719 94.5 C 163.96875 93.976562 162.660156 94.664062 161.835938 96.558594 C 160.234375 97.695312 159.144531 98.804688 158.5625 99.894531 C 158.03125 100.886719 156.867188 102.09375 155.074219 103.515625 L 153.402344 104.792969 L 151.804688 105.644531 L 154.492188 105.644531 C 159.628906 105.644531 164.550781 104.769531 169.25 103.019531 C 173.078125 101.597656 175.71875 100.105469 177.171875 98.546875 M 104.410156 153.710938 C 105.671875 153 106.613281 152.597656 107.246094 152.503906 L 113.859375 152.21875 C 117.929688 151.984375 120.328125 151.605469 121.054688 151.085938 L 121.417969 151.367188 L 120.839844 151.9375 L 107.898438 153.144531 L 103.609375 155.203125 L 103.390625 155.058594 L 102.957031 155.203125 L 102.957031 155.484375 L 102.664062 155.414062 L 102.519531 155.058594 C 102.519531 154.871094 102.957031 154.539062 103.828125 154.066406 L 103.828125 154.207031 L 104.046875 154.136719 L 104.121094 153.925781 L 104.410156 153.710938 M 99.105469 192.40625 L 99.175781 192.40625 L 111.460938 190.273438 L 122.074219 187.433594 L 122.4375 187.789062 L 122.363281 188.074219 L 122.074219 188.359375 C 120.378906 189.683594 112.722656 191.269531 99.105469 193.113281 L 95.25 192.6875 L 92.125 192.121094 L 92.34375 191.835938 L 92.34375 191.625 L 92.5625 191.554688 L 97.503906 192.332031 L 97.648438 192.40625 L 99.105469 192.40625 M 178.554688 180.40625 L 179.570312 182.394531 L 178.410156 181.753906 C 177.390625 180.144531 175.9375 177.117188 174.046875 172.667969 C 173.222656 170.773438 171.84375 168.527344 169.902344 165.921875 L 167.796875 162.941406 L 167.796875 162.515625 L 167.433594 162.019531 L 167.433594 161.945312 L 167.796875 161.875 C 168.472656 161.875 169.878906 163.652344 172.011719 167.199219 L 174.703125 172.382812 L 178.335938 179.910156 L 178.480469 180.265625 L 178.554688 180.40625 M 179.136719 182.890625 L 179.28125 182.890625 L 179.71875 182.820312 L 179.71875 182.75 L 179.863281 182.960938 L 179.71875 183.175781 L 179.570312 183.175781 L 179.136719 182.890625 M 180.589844 176.644531 L 180.660156 176.429688 L 180.953125 176.429688 L 180.589844 176.644531 M 176.808594 221.726562 L 176.519531 229.890625 C 176.808594 229.132812 177.246094 228.425781 177.828125 227.761719 L 177.464844 227.691406 L 177.390625 227.335938 L 177.683594 226.910156 C 177.390625 226.246094 177.195312 224.660156 177.101562 222.152344 L 177.101562 220.875 L 176.808594 221.515625 L 176.808594 221.726562 M 178.773438 227.621094 L 178.699219 227.550781 L 178.554688 227.621094 L 178.554688 227.691406 L 176.664062 232.730469 L 180.445312 232.589844 C 179.523438 230.082031 178.964844 228.425781 178.773438 227.621094 M 198.179688 170.183594 L 198.109375 170.324219 L 197.890625 170.679688 L 193.238281 175.4375 L 191.929688 177.992188 C 191.492188 178.890625 191.300781 179.695312 191.347656 180.40625 C 191.058594 180.453125 190.910156 180.570312 190.910156 180.761719 L 190.984375 180.902344 L 190.621094 180.761719 L 190.621094 179.058594 C 192.414062 175.082031 194.8125 171.957031 197.816406 169.683594 L 198.179688 170.039062 L 198.179688 170.183594 M 211.773438 224.070312 L 213.589844 222.792969 L 218.171875 216.472656 L 219.332031 214.273438 L 209.59375 218.390625 L 207.921875 218.957031 L 209.8125 224.566406 L 211.773438 224.070312 M 117.132812 105.859375 L 117.421875 105.789062 L 117.058594 105.644531 L 107.972656 98.902344 L 107.246094 98.261719 L 103.609375 98.6875 L 96.558594 99.753906 L 91.980469 102.664062 L 95.46875 104.652344 C 98.617188 106.023438 102.253906 106.710938 106.371094 106.710938 L 117.132812 105.859375 M 56.289062 174.441406 C 54.449219 172.738281 51.199219 171.105469 46.546875 169.542969 L 46.402344 169.757812 L 48.4375 173.734375 L 50.402344 175.933594 L 52.074219 177.78125 L 56.289062 174.441406 M 77.949219 193.113281 L 78.023438 192.832031 L 77.878906 192.832031 L 77.949219 192.902344 L 77.949219 193.113281 L 77.371094 195.457031 L 77.371094 198.015625 L 77.078125 201.707031 C 78.871094 200.570312 79.816406 199.410156 79.914062 198.226562 L 79.839844 197.941406 L 79.839844 197.871094 C 78.582031 196.027344 77.949219 194.441406 77.949219 193.113281 M 71.117188 198.015625 C 71.117188 198.820312 72.789062 200.167969 76.132812 202.0625 L 76.570312 193.96875 C 72.933594 195.765625 71.117188 197.113281 71.117188 198.015625 M 84.855469 222.792969 L 84.855469 222.296875 L 84.929688 222.863281 L 84.855469 222.792969 M 179.789062 288.960938 L 180.152344 290.738281 L 179.0625 287.402344 L 179.789062 288.960938 "/>
<path style=" stroke:none;fill-rule:evenodd;fill:rgb(0%,0%,40.000001%);fill-opacity:1;" d="M 118.511719 105.21875 L 119.675781 104.722656 L 120.402344 104.4375 L 120.546875 104.367188 L 120.984375 104.652344 C 120.0625 104.839844 119.289062 105.078125 118.65625 105.359375 L 118.511719 105.21875 M 149.40625 105.21875 L 150.351562 105.21875 L 150.714844 105.644531 L 148.824219 105.574219 L 149.40625 105.21875 M 211.554688 216.757812 L 211.992188 216.757812 L 211.992188 217.253906 L 211.699219 217.394531 L 211.554688 216.757812 M 178.261719 207.457031 L 178.261719 207.386719 L 178.554688 207.386719 L 178.261719 207.457031 M 184.078125 181.117188 L 184.003906 181.117188 L 183.933594 180.761719 L 184.078125 181.117188 M 181.027344 176.359375 L 181.027344 176.429688 L 180.589844 176.644531 L 180.953125 176.429688 L 180.953125 176.359375 L 181.027344 176.359375 M 124.835938 276.113281 L 124.910156 276.113281 L 124.835938 276.113281 M 172.8125 242.957031 L 172.882812 242.882812 L 172.882812 243.027344 L 172.8125 242.957031 M 165.761719 94.5 L 166.34375 94.640625 L 166.125 94.851562 L 165.761719 94.5 M 161.980469 105.859375 L 161.90625 105.859375 L 161.90625 105.789062 L 161.980469 105.859375 M 48.875 166.988281 L 48.730469 166.988281 L 48.730469 166.773438 L 48.875 166.773438 L 48.875 166.988281 M 105.71875 254.953125 L 105.644531 255.308594 L 105.210938 255.308594 L 105.210938 254.882812 L 105.71875 254.953125 M 151.949219 276.253906 L 152.167969 276.253906 L 152.238281 276.539062 L 151.949219 276.253906 M 139.664062 314.949219 L 139.664062 314.875 L 139.738281 314.875 L 139.738281 315.019531 L 139.664062 314.949219 M 171.648438 292.582031 L 171.429688 292.65625 L 171.574219 292.511719 L 171.648438 292.582031 M 197.890625 203.550781 L 197.746094 203.269531 L 197.816406 203.269531 L 197.890625 203.550781 M 178.554688 227.691406 L 178.554688 227.621094 L 178.699219 227.550781 L 178.773438 227.621094 L 178.554688 227.691406 M 197.960938 170.679688 L 198.109375 170.394531 L 198.324219 170.464844 L 197.960938 170.679688 M 117.132812 105.859375 L 117.058594 105.644531 L 117.421875 105.789062 L 117.132812 105.859375 M 103.828125 154.066406 L 104.191406 153.710938 L 104.121094 153.925781 L 104.046875 154.136719 L 103.828125 154.207031 L 103.828125 154.066406 M 99.832031 155.628906 L 99.46875 155.484375 L 99.46875 155.414062 L 99.832031 155.628906 M 77.949219 193.113281 L 77.949219 192.902344 L 77.878906 192.832031 L 78.023438 192.832031 L 77.949219 193.113281 M 79.113281 300.535156 L 79.113281 300.675781 L 79.042969 300.535156 L 79.113281 300.535156 "/>
<path style=" stroke:none;fill-rule:evenodd;fill:rgb(0%,20%,40.000001%);fill-opacity:1;" d="M 190.113281 174.796875 L 190.039062 175.011719 L 189.75 174.9375 L 190.113281 174.796875 M 182.988281 190.699219 L 182.988281 190.773438 L 182.914062 190.699219 L 182.988281 190.699219 M 104.191406 153.710938 L 104.410156 153.710938 L 104.121094 153.925781 L 104.191406 153.710938 M 107.753906 202.132812 L 107.535156 202.488281 L 107.609375 202.203125 L 107.753906 202.132812 M 79.769531 300.675781 L 79.695312 300.820312 L 79.621094 300.820312 L 79.621094 300.675781 L 79.769531 300.675781 M 198.179688 170.183594 L 198.398438 170.253906 L 198.324219 170.464844 L 198.109375 170.394531 L 197.960938 170.679688 L 197.890625 170.75 L 197.890625 170.679688 L 198.109375 170.324219 L 198.179688 170.183594 M 197.816406 203.269531 L 197.746094 203.269531 L 197.746094 203.125 L 197.816406 203.269531 "/>
<path style=" stroke:none;fill-rule:evenodd;fill:rgb(0%,0%,60.000002%);fill-opacity:1;" d="M 178.480469 207.882812 L 178.480469 207.8125 L 178.625 207.882812 L 178.480469 207.882812 M 197.746094 203.269531 L 197.746094 203.125 L 197.746094 203.269531 M 113.859375 215.621094 L 114.003906 215.621094 L 113.859375 215.835938 L 113.859375 215.621094 M 180.808594 195.742188 L 180.878906 195.742188 L 180.878906 195.8125 L 180.808594 195.742188 M 154.128906 132.910156 L 153.910156 132.980469 L 153.839844 132.835938 L 154.128906 132.910156 M 101.140625 146.683594 L 101.792969 146.824219 C 101.597656 146.824219 101.453125 146.964844 101.355469 147.25 L 101.140625 146.683594 M 121.054688 151.085938 L 121.492188 151.226562 L 121.417969 151.367188 L 121.054688 151.085938 M 82.386719 201.492188 L 82.167969 201.5625 L 82.09375 201.421875 L 82.09375 201.351562 L 82.386719 201.351562 L 82.386719 201.492188 M 105.574219 254.597656 L 105.71875 254.953125 L 105.210938 254.882812 L 105.574219 254.597656 M 124.910156 276.324219 L 124.835938 276.113281 L 124.910156 276.113281 L 124.910156 276.324219 M 178.554688 180.40625 L 178.480469 180.265625 L 178.335938 179.910156 L 178.410156 179.839844 L 178.480469 180.265625 L 178.625 180.335938 L 178.554688 180.40625 M 177.101562 221.726562 L 176.808594 221.726562 L 176.808594 221.515625 L 177.101562 220.875 L 177.101562 221.726562 M 197.960938 172.097656 L 198.035156 172.027344 L 198.035156 172.097656 L 197.960938 172.097656 M 48.730469 166.988281 L 48.730469 166.917969 L 48.730469 166.988281 M 106.15625 201.917969 L 106.082031 201.917969 L 106.15625 201.917969 M 79.40625 300.675781 L 79.621094 300.675781 L 79.621094 300.820312 L 79.40625 300.675781 M 140.753906 315.160156 L 140.535156 315.089844 L 140.683594 315.089844 L 140.753906 315.160156 "/>
<path style=" stroke:none;fill-rule:evenodd;fill:rgb(0%,0%,20%);fill-opacity:1;" d="M 187.859375 288.605469 C 188.34375 289.886719 188.828125 291.851562 189.3125 294.5 C 189.84375 297.433594 190.71875 299.707031 191.929688 301.316406 L 189.964844 301.742188 L 189.820312 301.671875 C 182.84375 302.757812 175.5 305.648438 167.796875 310.332031 C 160.769531 314.640625 156.09375 316.792969 153.765625 316.792969 L 151.078125 316.722656 L 151.222656 316.863281 L 150.277344 317.078125 L 130.871094 313.953125 L 111.460938 312.390625 L 101.066406 310.972656 C 97.722656 310.074219 93.335938 308.296875 87.910156 305.648438 L 89.871094 306.429688 L 85.074219 304.226562 L 85.292969 304.367188 C 78.945312 301.101562 74.292969 298.949219 71.335938 297.90625 L 71.117188 297.835938 L 71.046875 297.765625 L 71.046875 297.554688 C 71.140625 296.558594 72.015625 294.359375 73.664062 290.949219 L 74.027344 290.242188 L 74.824219 288.039062 C 75.261719 286.902344 75.671875 286.074219 76.0625 285.554688 C 76.304688 285.222656 76.546875 285.011719 76.789062 284.914062 L 76.933594 285.058594 L 76.640625 285.695312 L 76.640625 285.980469 C 76.304688 287.304688 74.605469 291.164062 71.554688 297.554688 L 71.625 297.554688 C 73.128906 297.554688 75.625 298.546875 79.113281 300.535156 L 79.042969 300.535156 L 79.113281 300.675781 L 79.40625 300.675781 L 79.621094 300.820312 L 79.695312 300.820312 C 82.117188 301.578125 86.578125 303.847656 93.070312 307.636719 L 92.996094 307.707031 L 93.070312 307.707031 C 96.558594 309.078125 99.757812 310.121094 102.664062 310.828125 L 132.25 313.742188 L 139.664062 314.949219 L 139.738281 315.019531 L 140.535156 315.089844 L 140.753906 315.160156 L 142.574219 315.375 L 145.625 316.082031 L 148.386719 316.4375 L 149.839844 316.15625 L 150.714844 316.4375 C 154.929688 316.15625 158.902344 315.042969 162.636719 313.101562 L 170.339844 308.558594 C 178.238281 304.535156 184.636719 302.191406 189.53125 301.527344 L 189.675781 301.601562 C 189.917969 301.222656 190.449219 301.03125 191.273438 301.03125 L 188.65625 294.429688 L 188.511719 291.09375 L 188.003906 290.027344 L 187.203125 287.828125 L 187.421875 287.753906 L 187.859375 288.605469 "/>
<path style=" stroke:none;fill-rule:evenodd;fill:rgb(99.215686%,78.431374%,80.784315%);fill-opacity:1;" d="M 133.414062 137.308594 L 133.339844 137.453125 L 133.414062 137.738281 L 153.765625 140.148438 L 180.953125 142.492188 C 183.667969 143.628906 188.707031 146.160156 196.074219 150.089844 L 196.289062 150.089844 C 199.828125 153.355469 203.269531 158.277344 206.613281 164.859375 C 207.289062 166.230469 207.921875 169.449219 208.503906 174.511719 C 208.746094 176.5 209.035156 178.015625 209.375 179.058594 L 209.375 179.128906 C 209.375 182.820312 209.519531 187.742188 209.8125 193.894531 C 209.8125 197.777344 209.664062 200.402344 209.375 201.777344 C 209.179688 202.535156 208.261719 203.835938 206.613281 205.679688 C 205.933594 206.722656 204.578125 207.929688 202.542969 209.300781 L 202.613281 209.585938 C 205.667969 210.484375 208.066406 211.738281 209.8125 213.347656 C 210.390625 213.917969 210.972656 215.054688 211.554688 216.757812 L 209.011719 217.824219 C 205.375 219.335938 200.722656 220.1875 195.054688 220.378906 C 193.066406 220.425781 189.628906 221.417969 184.734375 223.359375 C 181.535156 224.636719 179.378906 225.65625 178.261719 226.414062 L 178.261719 223.574219 C 177.875 222.578125 177.683594 220.425781 177.683594 217.113281 C 177.683594 214.035156 177.949219 210.960938 178.480469 207.882812 L 178.84375 207.882812 L 178.625 208.09375 L 180.808594 208.167969 C 184.394531 208.167969 188.222656 207.550781 192.292969 206.320312 C 196.023438 205.183594 197.890625 204.261719 197.890625 203.550781 L 197.816406 203.269531 L 197.746094 203.125 C 197.746094 202.414062 194.496094 202.0625 188.003906 202.0625 L 184.734375 202.132812 C 183.957031 201.042969 182.238281 201.113281 179.570312 202.34375 C 180.25 199.648438 181.121094 196.949219 182.1875 194.25 L 182.332031 193.753906 L 184.078125 189.636719 L 184.878906 188.003906 L 185.386719 187.082031 L 188.511719 180.832031 C 189.820312 178.183594 190.476562 176.359375 190.476562 175.367188 L 190.113281 174.796875 L 189.75 174.9375 C 189.117188 175.175781 188.222656 176.144531 187.058594 177.851562 C 185.121094 179.601562 184.078125 180.570312 183.933594 180.761719 C 182.820312 177.828125 181.847656 176.359375 181.027344 176.359375 L 180.953125 176.359375 L 180.953125 176.429688 L 180.660156 176.429688 L 180.589844 176.644531 C 179.523438 177.542969 178.917969 178.464844 178.773438 179.414062 L 178.410156 179.839844 L 178.335938 179.910156 L 174.703125 172.382812 L 172.011719 167.199219 C 169.878906 163.652344 168.472656 161.875 167.796875 161.875 L 167.433594 161.945312 L 167.433594 162.019531 C 166.996094 162.207031 166.777344 163.25 166.777344 165.140625 C 166.777344 165.945312 167.140625 167.648438 167.867188 170.253906 L 169.105469 174.300781 C 169.976562 175.71875 171.1875 177.257812 172.738281 178.914062 C 175.160156 181.519531 177.292969 182.84375 179.136719 182.890625 L 179.570312 183.175781 L 179.71875 183.175781 L 179.570312 184.238281 L 180.808594 187.578125 C 181.726562 189.660156 182.429688 190.699219 182.914062 190.699219 L 182.988281 190.773438 L 181.96875 193.328125 C 180.660156 194.984375 177.609375 197.445312 172.8125 200.710938 C 171.261719 201.753906 166.390625 203.8125 158.199219 206.886719 C 152.773438 208.875 146.789062 210.484375 140.246094 211.714844 L 133.847656 213.5625 L 113.421875 215.195312 L 113.496094 215.550781 L 113.859375 215.621094 L 113.859375 215.835938 C 120.304688 218.957031 125.488281 220.945312 129.414062 221.796875 L 145.335938 222.792969 L 163.941406 222.082031 L 164.308594 222.152344 L 164.960938 222.507812 L 165.398438 223.003906 L 165.613281 223.289062 L 167.652344 225.5625 L 169.324219 229.820312 C 169.757812 231.050781 169.976562 233.867188 169.976562 238.269531 C 169.976562 242.480469 169.636719 244.871094 168.957031 245.441406 L 168.957031 246.648438 L 169.105469 246.71875 L 165.90625 250.90625 C 164.308594 252.894531 162.390625 254.671875 160.164062 256.230469 C 154.15625 260.871094 149.164062 264.375 145.1875 266.738281 C 141.410156 268.964844 134.261719 271.96875 123.746094 275.757812 L 123.890625 276.113281 L 124.183594 276.183594 L 124.835938 276.113281 L 124.910156 276.324219 C 131.257812 276.417969 137.75 275.734375 144.390625 274.265625 C 151.175781 272.75 155.921875 271.992188 158.636719 271.992188 L 161.90625 272.207031 L 162.34375 272.773438 L 163.726562 273.839844 L 166.34375 275.6875 L 169.6875 279.875 C 171.722656 283.425781 172.738281 286.195312 172.738281 288.179688 C 172.738281 289.980469 172.570312 291.140625 172.230469 291.660156 L 171.574219 292.511719 L 171.429688 292.65625 L 171.648438 292.582031 L 166.125 299.46875 L 165.832031 299.398438 L 157.109375 307.5625 C 152.265625 310.828125 146.472656 313.265625 139.738281 314.875 L 139.664062 314.875 L 139.664062 314.949219 L 132.25 313.742188 L 102.664062 310.828125 C 99.757812 310.121094 96.558594 309.078125 93.070312 307.707031 L 93.070312 307.636719 C 86.578125 303.847656 82.117188 301.578125 79.695312 300.820312 L 79.769531 300.675781 L 79.839844 300.675781 L 82.675781 300.75 L 82.75 300.75 L 91.835938 301.175781 C 101.234375 301.175781 108.527344 300.511719 113.714844 299.1875 C 116.523438 298.429688 119.382812 297.363281 122.292969 295.992188 C 124.859375 295.09375 128.496094 293.578125 133.195312 291.449219 C 135.714844 290.5 138.210938 289.082031 140.683594 287.1875 L 142.71875 286.195312 C 144.414062 285.152344 146.304688 283.636719 148.386719 281.648438 C 150.957031 279.28125 152.238281 277.578125 152.238281 276.539062 L 152.167969 276.253906 L 151.949219 276.253906 L 151.949219 276.113281 L 151.875 275.828125 L 151.441406 275.757812 C 146.886719 277.980469 143.058594 279.613281 139.957031 280.65625 C 134.429688 282.597656 128.277344 283.566406 121.492188 283.566406 L 108.261719 282.644531 L 102.449219 281.507812 C 100.21875 281.222656 97.699219 280.488281 94.886719 279.308594 L 92.5625 278.3125 L 93.070312 278.242188 L 93.070312 277.886719 L 92.199219 277.320312 C 87.351562 274.054688 84.394531 270.503906 83.328125 266.667969 C 84.058594 262.644531 84.492188 257.582031 84.636719 251.476562 L 90.527344 253.746094 L 92.34375 253.746094 L 92.925781 254.03125 L 92.996094 254.316406 L 98.667969 255.308594 L 105.644531 255.308594 L 105.71875 254.953125 L 105.574219 254.597656 L 102.738281 250.550781 L 98.011719 246.433594 L 90.597656 239.265625 L 90.527344 239.335938 C 86.941406 235.644531 84.6875 233.179688 83.765625 231.949219 C 82.3125 229.964844 81.585938 227.242188 81.585938 223.785156 C 81.585938 221.371094 81.949219 218.367188 82.675781 214.769531 L 83.765625 209.800781 L 83.765625 209.585938 L 83.402344 208.875 L 83.328125 209.089844 L 83.328125 208.023438 C 83.328125 206.273438 82.941406 204.121094 82.167969 201.5625 L 82.386719 201.492188 L 83.695312 201.5625 L 84.710938 201.917969 L 85.367188 201.847656 L 85.367188 201.632812 L 88.199219 201.777344 L 95.03125 202.203125 L 101.867188 202.914062 L 107.535156 202.488281 L 107.753906 202.132812 L 107.753906 201.777344 L 98.011719 197.660156 L 98.8125 197.515625 L 99.105469 197.515625 C 107.34375 197.515625 113.375 196.144531 117.203125 193.398438 C 120.984375 190.75 122.875 189.117188 122.875 188.5 L 122.800781 188.214844 L 122.363281 188.144531 L 122.148438 188.359375 L 122.074219 188.359375 L 122.363281 188.074219 L 122.4375 187.789062 L 122.074219 187.433594 L 111.460938 190.273438 L 99.175781 192.40625 L 99.105469 192.40625 L 99.175781 192.261719 C 100 192.214844 100.777344 191.671875 101.503906 190.628906 C 102.179688 189.683594 102.519531 188.925781 102.519531 188.359375 L 101.9375 185.875 C 103.632812 183.601562 104.554688 181.921875 104.699219 180.832031 L 104.628906 178.277344 C 104.628906 177.28125 105.089844 176.40625 106.007812 175.648438 C 108.625 173.472656 110.199219 171.648438 110.734375 170.183594 L 111.097656 165.285156 L 110.953125 161.308594 C 110.757812 160.550781 110.152344 159.746094 109.136719 158.894531 C 108.554688 158.375 107.996094 157.996094 107.464844 157.757812 L 110.660156 157.898438 C 114.246094 157.898438 116.574219 157.496094 117.640625 156.691406 L 118.949219 155.058594 C 120.886719 153.308594 121.855469 152.171875 121.855469 151.652344 L 121.492188 151.226562 L 121.054688 151.085938 C 120.328125 151.605469 117.929688 151.984375 113.859375 152.21875 L 107.246094 152.503906 C 106.613281 152.597656 105.671875 153 104.410156 153.710938 L 104.191406 153.710938 L 104.265625 151.863281 L 103.828125 149.308594 C 103.441406 147.652344 102.761719 146.824219 101.792969 146.824219 L 101.140625 146.683594 C 101.042969 146.824219 100.921875 148.21875 100.777344 150.871094 C 100.628906 151.769531 100 153.167969 98.886719 155.058594 L 98.886719 155.132812 L 90.382812 154.917969 L 81.875 154.988281 L 81.511719 155.414062 L 80.929688 156.265625 L 79.769531 157.972656 L 76.933594 161.238281 C 73.785156 164.738281 71.941406 166.894531 71.410156 167.699219 L 65.230469 176.003906 C 63.4375 178.371094 62.417969 179.910156 62.175781 180.621094 C 60.480469 177.828125 58.882812 175.742188 57.378906 174.371094 C 56.3125 173.425781 54.691406 172.359375 52.507812 171.175781 C 50.136719 169.898438 48.269531 169.1875 46.914062 169.046875 L 48.730469 166.988281 L 48.875 166.988281 C 59.050781 167.175781 65.957031 165.542969 69.589844 162.089844 L 69.664062 162.089844 L 69.664062 162.019531 L 69.589844 161.519531 C 68.378906 160.8125 66.925781 160.457031 65.230469 160.457031 L 58.617188 160.882812 C 59.921875 160.03125 60.746094 159.390625 61.085938 158.964844 C 65.640625 153.851562 68.816406 149.804688 70.609375 146.824219 C 72.839844 142.992188 77.660156 139.085938 85.074219 135.109375 C 87.011719 134.019531 90.816406 132.386719 96.488281 130.210938 L 98.375 131.347656 C 99.976562 132.105469 101.625 132.484375 103.320312 132.484375 C 104.726562 132.484375 106.035156 132.199219 107.246094 131.628906 C 108.261719 131.15625 108.773438 130.800781 108.773438 130.566406 L 108.625 130.28125 L 108.261719 130.210938 L 108.042969 130.496094 L 108.042969 130.28125 C 108.042969 130.042969 107.585938 129.855469 106.664062 129.714844 L 103.539062 128.863281 L 101.210938 127.085938 C 101.597656 126.328125 101.792969 125.476562 101.792969 124.53125 L 101.792969 123.960938 L 101.9375 123.75 L 101.71875 123.324219 L 101.429688 122.542969 L 101.355469 122.683594 C 98.496094 117.476562 95.492188 111.253906 92.34375 104.011719 C 95.398438 106.332031 100.097656 107.492188 106.445312 107.492188 C 112.359375 107.492188 116.378906 107.042969 118.511719 106.140625 C 120.597656 105.195312 124.472656 104.722656 130.140625 104.722656 L 140.464844 105.574219 L 153.621094 106.355469 L 161.90625 105.859375 C 161.375 107.371094 161.109375 109.574219 161.109375 112.460938 L 159.726562 119.207031 C 158.273438 124.222656 156.261719 128.648438 153.695312 132.484375 L 153.839844 132.835938 L 153.910156 132.980469 C 150.132812 134.210938 145.503906 135.226562 140.027344 136.03125 L 132.613281 136.882812 L 132.6875 137.238281 L 133.050781 137.308594 L 133.414062 137.308594 M 198.398438 170.253906 L 198.179688 170.183594 L 198.179688 170.039062 L 197.816406 169.683594 C 194.8125 171.957031 192.414062 175.082031 190.621094 179.058594 L 190.621094 180.761719 L 190.984375 180.902344 L 190.984375 181.117188 L 191.566406 181.1875 L 191.492188 181.1875 L 191.855469 181.613281 C 194.667969 179.910156 196.53125 178.441406 197.453125 177.210938 C 198.324219 176.074219 198.761719 174.585938 198.761719 172.738281 L 198.398438 170.253906 M 84.855469 222.792969 L 84.929688 222.863281 L 84.855469 222.296875 L 84.855469 222.792969 "/>
<path style=" stroke:none;fill-rule:evenodd;fill:rgb(81.568629%,61.960787%,63.137257%);fill-opacity:1;" d="M 133.414062 137.308594 C 133.460938 137.214844 133.605469 137.167969 133.847656 137.167969 L 135.957031 137.238281 C 141.917969 136.90625 148.289062 135.582031 155.074219 133.261719 L 163.871094 129.429688 L 168.523438 125.523438 C 169.25 127.085938 171.261719 129.027344 174.554688 131.347656 L 183.351562 137.664062 C 188.148438 142.019531 194.109375 146.234375 201.234375 150.304688 C 207.242188 153.710938 210.464844 157.996094 210.902344 163.152344 C 211.53125 170.488281 211.992188 174.75 212.28125 175.933594 C 212.039062 176.453125 211.96875 177.234375 212.0625 178.277344 L 212.425781 181.96875 C 212.136719 182.773438 211.992188 184.972656 211.992188 188.570312 L 212.28125 194.746094 C 212.378906 196.121094 212.886719 198.179688 213.808594 200.925781 C 215.796875 207.363281 217.492188 211.503906 218.898438 213.347656 L 211.992188 216.542969 L 211.992188 216.757812 L 211.554688 216.757812 C 210.972656 215.054688 210.390625 213.917969 209.8125 213.347656 C 208.066406 211.738281 205.667969 210.484375 202.613281 209.585938 L 202.542969 209.300781 C 204.578125 207.929688 205.933594 206.722656 206.613281 205.679688 C 208.261719 203.835938 209.179688 202.535156 209.375 201.777344 C 209.664062 200.402344 209.8125 197.777344 209.8125 193.894531 C 209.519531 187.742188 209.375 182.820312 209.375 179.128906 L 209.375 179.058594 C 209.035156 178.015625 208.746094 176.5 208.503906 174.511719 C 207.921875 169.449219 207.289062 166.230469 206.613281 164.859375 C 203.269531 158.277344 199.828125 153.355469 196.289062 150.089844 L 196.074219 150.089844 C 188.707031 146.160156 183.667969 143.628906 180.953125 142.492188 L 153.765625 140.148438 L 133.414062 137.738281 L 133.339844 137.453125 L 133.414062 137.308594 M 178.480469 207.8125 L 178.261719 207.457031 L 178.554688 207.386719 L 179.425781 203.054688 L 181.460938 203.054688 L 193.820312 202.699219 L 195.925781 203.480469 L 196.800781 203.480469 L 197.234375 203.195312 L 197.746094 203.269531 L 197.890625 203.550781 C 197.890625 204.261719 196.023438 205.183594 192.292969 206.320312 C 188.222656 207.550781 184.394531 208.167969 180.808594 208.167969 L 178.625 208.09375 L 178.84375 207.882812 L 178.625 207.882812 L 178.480469 207.8125 M 190.039062 175.011719 L 190.113281 175.011719 L 190.183594 175.292969 L 189.601562 176.074219 L 185.3125 185.164062 L 184.222656 181.472656 L 183.933594 180.761719 C 184.078125 180.570312 185.121094 179.601562 187.058594 177.851562 C 188.222656 176.144531 189.117188 175.175781 189.75 174.9375 L 190.039062 175.011719 M 181.027344 176.429688 L 181.316406 176.925781 L 181.027344 177.636719 L 183.859375 182.394531 C 184.101562 182.867188 184.199219 183.835938 184.152344 185.304688 L 184.441406 187.222656 L 183.277344 190.132812 L 183.351562 190.417969 L 182.988281 190.699219 L 182.914062 190.699219 C 182.429688 190.699219 181.726562 189.660156 180.808594 187.578125 L 179.570312 184.238281 L 179.71875 183.175781 L 179.863281 182.960938 L 179.71875 182.75 L 179.71875 182.820312 L 179.28125 182.890625 L 179.136719 182.890625 C 177.292969 182.84375 175.160156 181.519531 172.738281 178.914062 C 171.1875 177.257812 169.976562 175.71875 169.105469 174.300781 L 167.867188 170.253906 C 167.140625 167.648438 166.777344 165.945312 166.777344 165.140625 C 166.777344 163.25 166.996094 162.207031 167.433594 162.019531 L 167.796875 162.515625 L 167.796875 162.941406 L 169.902344 165.921875 C 171.84375 168.527344 173.222656 170.773438 174.046875 172.667969 C 175.9375 177.117188 177.390625 180.144531 178.410156 181.753906 L 179.570312 182.394531 L 178.554688 180.40625 L 178.625 180.335938 L 178.480469 180.265625 L 178.410156 179.839844 L 178.773438 179.414062 C 178.917969 178.464844 179.523438 177.542969 180.589844 176.644531 L 181.027344 176.429688 M 114.003906 215.621094 C 114.054688 215.480469 114.175781 215.410156 114.367188 215.410156 L 115.3125 215.691406 L 117.203125 215.691406 C 129.898438 215.691406 143.613281 212.996094 158.347656 207.597656 L 172.957031 201.421875 L 180.808594 195.742188 L 180.878906 195.8125 C 178.261719 201.539062 176.953125 208.640625 176.953125 217.113281 L 177.027344 218.886719 L 176.953125 219.3125 C 176.375 220.355469 176.082031 221.160156 176.082031 221.726562 L 176.226562 222.011719 L 175.71875 229.324219 C 175.523438 233.15625 174.871094 236.234375 173.757812 238.554688 C 173.515625 239.027344 173.34375 239.785156 173.246094 240.824219 L 169.902344 245.652344 L 169.6875 246.648438 L 169.324219 246.789062 L 169.105469 246.71875 L 168.957031 246.648438 L 168.957031 245.441406 C 169.636719 244.871094 169.976562 242.480469 169.976562 238.269531 C 169.976562 233.867188 169.757812 231.050781 169.324219 229.820312 L 167.652344 225.5625 L 165.613281 223.289062 L 165.398438 223.003906 L 164.960938 222.507812 L 164.308594 222.152344 L 163.941406 222.082031 L 145.335938 222.792969 L 129.414062 221.796875 C 125.488281 220.945312 120.304688 218.957031 113.859375 215.835938 L 114.003906 215.621094 M 124.910156 276.113281 C 126.410156 275.734375 129.632812 274.503906 134.578125 272.417969 C 140.246094 270.007812 143.808594 268.371094 145.261719 267.519531 C 149.042969 265.15625 153.984375 261.722656 160.089844 257.226562 C 162.222656 255.949219 165.324219 252.753906 169.394531 247.640625 L 172.8125 242.957031 L 172.882812 243.027344 L 172.8125 243.238281 L 172.882812 243.3125 C 172.882812 248.328125 175.210938 256.304688 179.863281 267.238281 C 180.394531 268.46875 180.953125 270.457031 181.535156 273.199219 C 182.066406 275.757812 182.671875 277.746094 183.351562 279.164062 L 186.257812 285.199219 C 187.035156 287.046875 187.421875 288.679688 187.421875 290.097656 L 188.003906 290.027344 L 188.511719 291.09375 L 188.65625 294.429688 L 191.273438 301.03125 C 190.449219 301.03125 189.917969 301.222656 189.675781 301.601562 L 189.53125 301.527344 C 184.636719 302.191406 178.238281 304.535156 170.339844 308.558594 L 162.636719 313.101562 C 158.902344 315.042969 154.929688 316.15625 150.714844 316.4375 L 149.839844 316.15625 L 148.386719 316.4375 L 145.625 316.082031 L 142.574219 315.375 L 140.753906 315.160156 L 140.683594 315.089844 L 140.535156 315.089844 L 139.738281 315.019531 L 139.738281 314.875 C 146.472656 313.265625 152.265625 310.828125 157.109375 307.5625 L 165.832031 299.398438 L 166.125 299.46875 L 171.648438 292.582031 L 171.574219 292.511719 L 172.230469 291.660156 C 172.570312 291.140625 172.738281 289.980469 172.738281 288.179688 C 172.738281 286.195312 171.722656 283.425781 169.6875 279.875 L 166.34375 275.6875 L 163.726562 273.839844 L 162.34375 272.773438 L 161.90625 272.207031 L 158.636719 271.992188 C 155.921875 271.992188 151.175781 272.75 144.390625 274.265625 C 137.75 275.734375 131.257812 276.417969 124.910156 276.324219 L 124.910156 276.113281 M 177.171875 98.546875 C 175.71875 100.105469 173.078125 101.597656 169.25 103.019531 C 164.550781 104.769531 159.628906 105.644531 154.492188 105.644531 L 151.804688 105.644531 L 153.402344 104.792969 L 155.074219 103.515625 C 156.867188 102.09375 158.03125 100.886719 158.5625 99.894531 C 159.144531 98.804688 160.234375 97.695312 161.835938 96.558594 C 162.660156 94.664062 163.96875 93.976562 165.761719 94.5 L 166.125 94.851562 L 166.050781 94.996094 L 168.449219 94.925781 C 171.988281 94.925781 174.363281 95.585938 175.574219 96.914062 L 177.246094 98.546875 L 177.171875 98.546875 M 161.980469 105.859375 L 169.324219 104.082031 C 171.550781 103.183594 172.980469 102.425781 173.609375 101.8125 L 177.535156 99.042969 C 173.804688 110.308594 170.703125 118.78125 168.230469 124.460938 L 168.230469 125.097656 C 166.585938 126.898438 164.914062 128.175781 163.214844 128.933594 C 160.40625 130.398438 157.472656 131.679688 154.421875 132.765625 L 154.277344 132.910156 L 154.128906 132.910156 L 153.839844 132.835938 L 153.695312 132.484375 C 156.261719 128.648438 158.273438 124.222656 159.726562 119.207031 L 161.109375 112.460938 C 161.109375 109.574219 161.375 107.371094 161.90625 105.859375 L 161.980469 105.859375 M 108.042969 130.496094 L 108.261719 130.210938 L 108.625 130.28125 L 108.773438 130.566406 C 108.773438 130.800781 108.261719 131.15625 107.246094 131.628906 C 106.035156 132.199219 104.726562 132.484375 103.320312 132.484375 C 101.625 132.484375 99.976562 132.105469 98.375 131.347656 L 96.488281 130.210938 L 96.414062 129.996094 L 96.488281 129.714844 L 96.851562 129.644531 L 97.359375 129.855469 L 98.160156 129.5 C 99.371094 129.074219 100.289062 128.4375 100.921875 127.582031 C 102.761719 129.335938 104.386719 130.351562 105.792969 130.636719 L 107.828125 130.636719 L 108.042969 130.496094 M 69.589844 162.089844 C 65.957031 165.542969 59.050781 167.175781 48.875 166.988281 L 48.875 166.773438 C 50.039062 165.6875 51.417969 164.738281 53.019531 163.933594 L 57.308594 161.664062 L 58.105469 161.875 L 65.230469 161.238281 L 68.792969 162.089844 L 69.300781 161.734375 L 69.664062 162.019531 L 69.589844 162.089844 M 101.792969 146.824219 C 102.761719 146.824219 103.441406 147.652344 103.828125 149.308594 L 104.265625 151.863281 L 104.191406 153.710938 L 103.828125 154.066406 C 102.957031 154.539062 102.519531 154.871094 102.519531 155.058594 L 102.664062 155.414062 L 102.957031 155.484375 L 102.957031 155.203125 L 103.390625 155.058594 L 103.609375 155.203125 L 107.898438 153.144531 L 120.839844 151.9375 L 121.417969 151.367188 L 121.492188 151.226562 L 121.855469 151.652344 C 121.855469 152.171875 120.886719 153.308594 118.949219 155.058594 L 117.640625 156.691406 C 116.574219 157.496094 114.246094 157.898438 110.660156 157.898438 L 107.464844 157.757812 C 107.996094 157.996094 108.554688 158.375 109.136719 158.894531 C 110.152344 159.746094 110.757812 160.550781 110.953125 161.308594 L 111.097656 165.285156 L 110.734375 170.183594 C 110.199219 171.648438 108.625 173.472656 106.007812 175.648438 C 105.089844 176.40625 104.628906 177.28125 104.628906 178.277344 L 104.699219 180.832031 C 104.554688 181.921875 103.632812 183.601562 101.9375 185.875 L 102.519531 188.359375 C 102.519531 188.925781 102.179688 189.683594 101.503906 190.628906 C 100.777344 191.671875 100 192.214844 99.175781 192.261719 L 99.105469 192.40625 L 97.648438 192.40625 L 97.503906 192.332031 L 92.5625 191.554688 L 92.34375 191.625 L 92.34375 191.835938 L 92.125 192.121094 L 95.25 192.6875 L 99.105469 193.113281 C 112.722656 191.269531 120.378906 189.683594 122.074219 188.359375 L 122.148438 188.359375 L 122.363281 188.144531 L 122.800781 188.214844 L 122.875 188.5 C 122.875 189.117188 120.984375 190.75 117.203125 193.398438 C 113.375 196.144531 107.34375 197.515625 99.105469 197.515625 L 98.8125 197.515625 L 98.011719 197.660156 L 97.867188 197.660156 L 97.503906 197.585938 L 97.503906 197.445312 L 97.285156 197.375 L 97.359375 197.375 L 94.304688 196.027344 L 84.636719 189.992188 L 85.292969 189.140625 L 85.21875 188.996094 L 85.511719 188.785156 L 85.730469 188.359375 L 92.199219 188.359375 C 92.875 188.167969 93.871094 187.175781 95.179688 185.375 C 95.808594 184.382812 96.171875 183.175781 96.269531 181.753906 C 96.367188 180.050781 96.824219 178.796875 97.648438 177.992188 C 98.472656 177.28125 98.886719 176.144531 98.886719 174.585938 L 98.8125 173.519531 C 100.945312 171.390625 102.980469 169.804688 104.917969 168.761719 C 105.644531 168.335938 106.007812 166.347656 106.007812 162.796875 C 106.007812 160.007812 105.792969 158.207031 105.355469 157.402344 L 104.191406 156.976562 C 102.980469 157.167969 101.71875 157.972656 100.414062 159.390625 C 100.074219 159.675781 99.78125 159.933594 99.539062 160.171875 L 100.484375 157.6875 L 100.414062 156.410156 L 99.832031 155.628906 L 99.46875 155.414062 C 100.824219 153.804688 101.503906 151.675781 101.503906 149.023438 L 101.355469 147.25 C 101.453125 146.964844 101.597656 146.824219 101.792969 146.824219 M 107.535156 202.488281 L 101.867188 202.914062 L 95.03125 202.203125 L 88.199219 201.777344 L 85.367188 201.632812 L 85.367188 201.847656 L 84.710938 201.917969 L 83.695312 201.5625 L 82.386719 201.492188 L 82.386719 201.351562 L 82.09375 201.351562 L 82.023438 201.136719 L 80.714844 197.941406 L 80.714844 197.871094 C 80.714844 197.210938 79.960938 195.457031 78.460938 192.617188 L 78.460938 192.546875 L 78.679688 192.40625 L 79.476562 191.554688 C 79.769531 192.027344 80.421875 192.261719 81.441406 192.261719 C 82.359375 192.261719 83.328125 191.625 84.347656 190.347656 C 87.160156 192.996094 90.066406 194.984375 93.070312 196.308594 C 99.710938 199.292969 104.070312 201.160156 106.15625 201.917969 L 106.882812 201.777344 L 107.535156 201.847656 L 107.609375 202.132812 L 107.609375 202.203125 L 107.535156 202.488281 M 105.210938 255.308594 L 98.667969 255.308594 L 92.996094 254.316406 L 92.925781 254.03125 L 92.34375 253.746094 L 90.527344 253.746094 L 84.636719 251.476562 L 84.636719 247.144531 L 84.566406 242.386719 L 84.785156 242.246094 L 84.785156 234.507812 C 87.546875 238.058594 89.628906 240.234375 91.035156 241.039062 L 91.835938 241.394531 L 97.214844 246.648438 L 105.210938 254.882812 L 105.210938 255.308594 M 152.238281 276.539062 C 152.238281 277.578125 150.957031 279.28125 148.386719 281.648438 C 146.304688 283.636719 144.414062 285.152344 142.71875 286.195312 L 140.683594 287.1875 C 138.210938 289.082031 135.714844 290.5 133.195312 291.449219 C 128.496094 293.578125 124.859375 295.09375 122.292969 295.992188 C 119.382812 297.363281 116.523438 298.429688 113.714844 299.1875 C 108.527344 300.511719 101.234375 301.175781 91.835938 301.175781 L 82.75 300.75 L 82.675781 300.75 L 79.839844 300.675781 L 79.113281 300.675781 L 79.113281 300.535156 C 75.625 298.546875 73.128906 297.554688 71.625 297.554688 L 71.554688 297.554688 C 74.605469 291.164062 76.304688 287.304688 76.640625 285.980469 L 77.152344 286.121094 C 77.636719 283.851562 78.558594 281.011719 79.914062 277.601562 C 81.5625 273.34375 82.628906 270.171875 83.113281 268.089844 C 83.449219 269.082031 84.492188 270.761719 86.238281 273.128906 L 89.4375 276.253906 L 91.90625 278.101562 L 91.6875 278.667969 L 101.429688 282.148438 L 107.316406 283.210938 L 121.492188 284.277344 C 128.761719 284.277344 134.625 283.496094 139.082031 281.933594 C 146.304688 279.09375 150.496094 277.269531 151.660156 276.464844 L 151.804688 276.183594 L 151.949219 276.253906 L 152.238281 276.539062 M 177.101562 221.726562 L 177.101562 222.152344 C 177.195312 224.660156 177.390625 226.246094 177.683594 226.910156 L 177.390625 227.335938 L 177.464844 227.691406 L 177.828125 227.761719 C 177.246094 228.425781 176.808594 229.132812 176.519531 229.890625 L 176.808594 221.726562 L 177.101562 221.726562 M 178.554688 227.691406 L 178.773438 227.621094 C 178.964844 228.425781 179.523438 230.082031 180.445312 232.589844 L 176.664062 232.730469 L 178.554688 227.691406 M 197.890625 170.679688 L 197.890625 170.75 L 197.960938 170.679688 L 198.324219 170.464844 L 198.398438 170.253906 L 198.761719 172.738281 C 198.761719 174.585938 198.324219 176.074219 197.453125 177.210938 C 196.53125 178.441406 194.667969 179.910156 191.855469 181.613281 L 191.492188 181.1875 L 191.566406 181.1875 L 190.984375 181.117188 L 190.984375 180.902344 L 190.910156 180.761719 C 190.910156 180.570312 191.058594 180.453125 191.347656 180.40625 C 191.300781 179.695312 191.492188 178.890625 191.929688 177.992188 L 193.238281 175.4375 L 197.890625 170.679688 M 197.960938 172.097656 L 198.035156 172.097656 L 198.035156 172.027344 L 197.960938 172.097656 M 211.773438 224.070312 L 209.8125 224.566406 L 207.921875 218.957031 L 209.59375 218.390625 L 219.332031 214.273438 L 218.171875 216.472656 L 213.589844 222.792969 L 211.773438 224.070312 M 117.058594 105.644531 L 117.132812 105.859375 L 106.371094 106.710938 C 102.253906 106.710938 98.617188 106.023438 95.46875 104.652344 L 91.980469 102.664062 L 96.558594 99.753906 L 103.609375 98.6875 L 107.246094 98.261719 L 107.972656 98.902344 L 117.058594 105.644531 M 56.289062 174.441406 L 52.074219 177.78125 L 50.402344 175.933594 L 48.4375 173.734375 L 46.402344 169.757812 L 46.546875 169.542969 C 51.199219 171.105469 54.449219 172.738281 56.289062 174.441406 M 71.117188 198.015625 C 71.117188 197.113281 72.933594 195.765625 76.570312 193.96875 L 76.132812 202.0625 C 72.789062 200.167969 71.117188 198.820312 71.117188 198.015625 M 79.839844 197.871094 L 79.839844 197.941406 L 79.914062 198.226562 C 79.816406 199.410156 78.871094 200.570312 77.078125 201.707031 L 77.371094 198.015625 L 77.371094 195.457031 L 77.949219 193.113281 C 77.949219 194.441406 78.582031 196.027344 79.839844 197.871094 M 106.15625 201.917969 L 106.082031 201.917969 L 106.15625 201.917969 M 179.789062 288.960938 L 179.0625 287.402344 L 180.152344 290.738281 L 179.789062 288.960938 "/>
<path style="fill:none;stroke-width:1;stroke-linecap:round;stroke-linejoin:round;stroke:rgb(0%,0%,0%);stroke-opacity:1;stroke-miterlimit:4;" d="M 110.901155 -0.149291 L 111.250455 -0.149291 L 114.899292 0.150563 C 115.533405 0.384394 116.449645 1.198676 117.650698 2.59891 L 117.699063 2.450359 L 117.999998 2.499876 L 118.051049 2.700696 L 111.650806 21.500705 L 116.100345 25.800444 C 119.432126 28.265297 121.398951 29.800329 122.000822 30.400036 C 124.900008 33.200506 129.134594 36.182538 134.699205 39.348885 C 138.501197 41.516635 140.567438 44.53443 140.900616 48.399518 L 141.749683 57.400635 L 141.951202 59.598646 L 141.650267 66.349483 L 141.849099 70.850042 C 141.849099 71.716592 142.24945 73.182849 143.050152 75.248815 C 143.248984 77.917239 144.450038 80.86626 146.650625 84.098629 L 146.599574 84.200414 L 146.650625 84.599302 C 146.650625 85.232021 145.78275 86.648762 144.049687 88.849524 C 142.348866 90.984263 140.916738 92.167172 139.750615 92.401003 L 139.549096 92.450521 L 139.350264 92.450521 L 139.148745 92.401003 L 139.049329 92.249701 C 138.71615 91.883824 138.450145 91.165826 138.251313 90.101207 L 137.998743 87.850928 L 130.050834 89.198895 C 129.384477 89.267669 127.299428 89.85087 123.801058 90.951251 L 118.749648 93.600419 L 119.300467 95.050171 C 119.432126 95.949732 119.68201 96.582451 120.050118 96.951079 L 120.050118 97.649821 L 119.800234 97.748855 L 118.099414 97.949675 L 116.500696 97.699338 L 116.14871 99.448944 L 116.250813 100.100919 C 116.250813 100.967469 115.732237 102.232908 114.70046 103.899985 L 114.70046 104.150322 L 114.601044 104.199839 L 116.299177 112.449945 C 117.733993 116.983515 118.733527 119.833502 119.300467 120.999905 C 119.767991 122.001252 120.165655 123.434498 120.498833 125.299644 C 120.832011 127.167541 121.232362 128.584281 121.699886 129.549866 C 123.234118 132.782235 124.1826 135.200322 124.550709 136.798626 C 124.883887 137.700938 125.217065 139.084667 125.550243 140.949813 C 125.915664 143.015778 126.517534 144.616833 127.350479 145.750225 L 125.998958 146.050079 L 125.899542 146.000562 C 121.100703 146.765326 116.049294 148.801031 110.750688 152.099423 C 105.916919 155.133724 102.700676 156.649499 101.099271 156.649499 L 99.25067 156.599982 L 99.350086 156.699016 L 98.699852 156.850318 L 85.351234 154.649556 L 71.999928 153.549175 L 64.850034 152.55058 C 62.550031 151.91786 59.53262 150.666177 55.800488 148.801031 L 57.149322 149.351222 L 53.849784 147.799685 L 54.000252 147.898719 C 49.634007 145.598923 46.433885 144.083148 44.399887 143.348643 L 44.249419 143.299126 L 44.201055 143.249609 L 44.201055 143.101058 C 44.265541 142.399565 44.867411 140.850779 46.001291 138.449197 L 46.251175 137.951275 L 46.799306 136.399738 C 47.100241 135.59921 47.382368 135.016008 47.65106 134.650132 L 47.65106 134.600615 L 50.550247 126.600845 C 51.71637 123.365725 52.382726 120.716557 52.549315 118.650592 L 53.049082 110.700339 L 53.049082 106.700454 C 53.049082 104.832558 53.116255 103.616637 53.250601 103.049941 L 53.049082 97.900157 L 52.750834 97.501269 C 51.783543 96.134046 51.216603 95.017159 51.050014 94.150609 L 50.950598 91.14932 C 50.950598 89.716074 51.117187 87.966468 51.450365 85.900503 C 51.71637 84.032606 52.049548 82.516831 52.449899 81.350427 L 52.200015 81.551247 L 52.148964 80.401349 C 52.084478 78.533452 51.866837 77.28452 51.498729 76.64905 L 50.550247 73.851331 L 49.550712 75.100263 C 48.849426 75.832017 48.349659 76.250161 48.048724 76.349196 L 47.750476 76.450981 L 43.55082 73.050804 L 44.450938 71.848637 C 45.050121 71.149895 45.466594 70.767513 45.700356 70.698739 L 48.999894 68.64928 L 49.09931 68.64928 L 50.050479 67.650684 L 50.098844 67.650684 L 50.300363 67.700201 L 50.348728 67.848752 L 50.998962 68.451211 C 52.299431 68.451211 53.250601 67.683695 53.849784 66.148664 L 53.650952 66.148664 L 53.650952 66.000112 L 54.000252 65.799293 L 54.051303 65.548956 L 54.301187 65.601224 L 54.301187 65.700259 L 56.249204 65.901078 C 57.450257 66.233943 58.43367 66.066135 59.199442 65.400405 L 59.75026 64.75118 L 60.550963 63.298677 C 60.916384 62.234058 61.082973 61.317991 61.05073 60.550476 C 61.0158 60.115825 61.23344 59.617903 61.700964 59.051206 L 62.748863 57.799523 L 62.748863 56.250737 L 62.550031 55.950883 L 62.998747 55.298907 L 63.10085 55.051322 L 63.149214 55.100839 L 66.599219 52.09955 L 67.749221 51.150471 L 67.749221 48.198699 C 67.851324 45.799868 67.700856 44.600453 67.300505 44.600453 C 66.333214 44.600453 65.400853 45.167149 64.500735 46.300542 C 63.66779 47.367911 63.082041 47.915351 62.748863 47.951113 L 62.450615 48.050147 L 62.249096 48.00063 L 62.14968 47.750294 C 63.350733 45.951171 63.949916 44.883801 63.949916 44.550936 L 63.8505 43.799926 L 63.501201 43.450555 L 63.251317 43.299253 L 51.700248 43.34877 L 51.549781 43.799926 L 51.050014 44.399634 L 50.249311 45.549532 L 48.599543 47.700776 C 47.26683 48.834169 45.95024 50.349944 44.64977 52.250852 L 38.348943 61.249217 L 38.150111 61.1997 L 38.150111 61.40052 L 37.951279 61.450037 L 34.450222 56.800927 L 34.399171 56.748659 L 33.050337 58.000343 L 31.349517 59.249275 L 31.051269 59.249275 L 30.900801 59.199758 L 30.900801 59.150241 L 29.600332 57.950825 L 28.200446 56.148952 C 27.165982 54.283806 26.650094 53.166919 26.650094 52.801042 L 26.701145 52.699257 L 26.650094 52.699257 L 26.701145 52.699257 L 26.899977 52.550706 L 26.951029 52.600223 L 26.999393 52.600223 C 27.066566 51.934492 27.601263 51.249505 28.600798 50.550763 L 31.9487 48.449036 L 37.349409 44.749004 L 44.050587 35.948707 C 46.815428 32.248676 50.367536 29.467463 54.698851 27.599567 C 56.066493 26.966848 58.984488 25.816949 63.450149 24.149872 C 64.116505 23.750984 64.500735 22.983468 64.600151 21.850076 L 64.798983 20.400324 C 64.1998 19.467751 63.082041 17.233978 61.451081 13.699004 L 58.250959 6.450244 L 58.299324 6.298942 L 57.950024 5.949571 L 58.001076 5.900053 L 57.950024 5.748751 C 57.950024 4.950975 59.167199 4.150448 61.598861 3.34992 C 63.10085 2.849247 64.76674 2.48337 66.599219 2.24954 L 68.399456 2.100988 M 78.800523 6.799615 L 79.200874 7.148986 L 84.800415 6.750098 L 91.850893 7.349805 L 96.399848 7.850479 L 96.899615 7.501108 M 141.1505 86.200357 L 141.1505 86.049054 L 145.900974 83.798775 C 144.933683 82.500325 143.76756 79.584316 142.399918 75.050746 C 141.765805 73.116827 141.416505 71.667075 141.349332 70.698739 L 141.1505 66.349483 C 141.1505 63.815856 141.249916 62.26707 141.448748 61.700374 L 141.198864 59.100724 C 141.134378 58.366219 141.182743 57.816029 141.349332 57.450152 C 141.1505 56.616613 140.833443 53.615324 140.400849 48.449036 C 140.099914 44.817778 137.883205 41.799983 133.750722 39.401153 C 128.84978 36.53466 124.749541 33.566383 121.450003 30.499071 L 115.399059 26.05078 C 113.133986 24.416715 111.750222 23.049491 111.250455 21.94911 L 108.050333 24.700063 L 101.999389 27.398747 C 97.33221 29.032813 92.949843 29.965386 88.849603 30.199217 L 87.398667 30.1497 C 87.232078 30.1497 87.132661 30.182711 87.100418 30.248734 M 141.1505 86.200357 L 141.1505 86.549728 L 140.948981 86.648762 L 140.849565 86.200357 L 139.10038 86.951367 C 136.598858 88.015985 133.398736 88.615693 129.500015 88.750489 C 128.132373 88.783501 125.767883 89.482243 122.401173 90.849466 C 120.200585 91.749028 118.717405 92.467026 117.948946 93.000711 L 117.948946 91.000769 C 117.682941 90.299276 117.551282 88.783501 117.551282 86.450693 C 117.551282 84.282943 117.733993 82.117943 118.099414 79.950192 L 118.099414 79.900675 M 131.351303 76.701318 L 131.351303 76.599532 C 131.351303 76.098859 129.115786 75.851273 124.650125 75.851273 L 122.401173 75.90079 C 121.866476 75.133275 120.684231 75.182792 118.849064 76.049342 C 119.316588 74.151185 119.915772 72.250276 120.649301 70.349368 L 120.748717 69.999997 L 121.94977 67.100493 L 122.500589 65.950595 L 122.849888 65.30137 L 124.999424 60.899847 C 125.899542 59.034701 126.350945 57.750006 126.350945 57.051264 L 126.101061 56.649625 L 126.05001 56.800927 L 126.101061 56.800927 L 126.149426 56.998996 L 125.749075 57.549186 L 122.798837 63.950653 L 122.049186 61.351003 L 121.94977 61.100666 L 121.898719 61.100666 L 121.850354 60.850329 C 121.084582 58.784364 120.415539 57.750006 119.851286 57.750006 M 73.749113 85.399829 C 73.784043 85.300795 73.867338 85.251278 73.998997 85.251278 L 74.649231 85.449347 L 75.949701 85.449347 C 84.68219 85.449347 94.115966 83.551189 104.251028 79.749373 L 114.300109 75.400117 L 119.700818 71.400232 M 119.749183 71.449749 C 117.948946 75.482646 117.048828 80.483877 117.048828 86.450693 L 117.09988 87.699626 L 117.048828 87.999479 C 116.651164 88.733984 116.449645 89.30068 116.449645 89.699568 L 116.549061 89.900388 L 116.199761 95.050171 C 116.065415 97.748855 115.6167 99.916606 114.850928 101.550671 C 114.684339 101.883537 114.566114 102.417221 114.498941 103.148975 L 112.198938 106.549152 L 112.051157 107.250645 L 111.801273 107.349679 L 111.650806 107.300162 M 81.199942 128.00108 L 81.250994 128.00108 C 82.282771 127.734237 84.49948 126.867687 87.901121 125.398679 C 91.799841 123.701341 94.250312 122.548692 95.249847 121.948984 C 97.850785 120.284658 101.249739 117.866571 105.449395 114.700224 C 106.916453 113.800663 109.049867 111.550384 111.849638 107.949387 L 114.200693 104.650995 L 114.249057 104.598727 L 114.249057 104.700512 M 117.199296 2.951032 C 116.199761 4.048662 114.383403 5.099526 111.750222 6.100873 C 108.517857 7.3333 105.132338 7.949513 101.599038 7.949513 L 99.750438 7.949513 M 109.549635 0.450417 L 111.199403 0.400899 C 113.633753 0.400899 115.2674 0.86581 116.100345 1.801134 L 117.250347 2.951032 M 99.000787 7.949513 L 97.700318 7.899996 L 98.100669 7.649659 M 106.698812 8.100815 L 100.999855 8.450186 L 91.950309 7.899996 L 84.84878 7.300288 C 80.950059 7.300288 78.284634 7.633154 76.849819 8.298884 C 75.382761 8.934354 72.61792 9.250714 68.549923 9.250714 C 64.183678 9.250714 60.951314 8.433681 58.850142 6.799615 C 61.0158 11.899881 63.082041 16.282148 65.048867 19.949168 L 65.099918 19.850134 L 65.29875 20.400324 L 65.449218 20.700178 L 65.349802 20.848729 L 65.349802 21.250368 C 65.349802 21.916099 65.215456 22.515806 64.94945 23.049491 L 66.550855 24.301175 L 68.700391 24.900882 C 69.334504 24.999917 69.648873 25.131962 69.648873 25.29977 L 69.648873 25.451073 M 63.350733 42.749062 C 64.116505 41.417601 64.549099 40.43276 64.651202 39.800041 C 64.750618 37.932144 64.833913 36.950054 64.901086 36.85102 M 67.150038 41.799983 C 68.017913 41.29931 68.665461 41.015962 69.100742 40.949939 L 73.649697 40.74912 C 76.449468 40.584062 78.099237 40.31722 78.599004 39.951343 M 57.649089 102.051345 L 62.748863 107.099343 L 66.000036 109.998846 L 67.95074 112.848833 M 59.349909 150.250783 C 61.749329 151.216368 63.949916 151.950872 65.948985 152.448794 L 86.299716 154.501005 L 91.39949 155.351049 M 110.500804 47.651259 L 110.750688 48.00063 L 110.750688 48.300484 L 112.198938 50.399461 C 113.534337 52.234346 114.48282 53.816144 115.04976 55.150356 C 116.350229 58.283691 117.349763 60.415679 118.051049 61.549071 L 118.849064 62.000228 L 118.150465 60.599993 M 126.700244 60.949364 L 126.649193 60.850329 C 126.649193 60.715533 126.751296 60.633004 126.950128 60.599993 C 126.917885 60.099319 127.049544 59.532623 127.350479 58.899904 L 128.250597 57.100781 L 131.450719 53.750121 M 43.249885 47.651259 L 43.000001 47.45044 L 42.650702 47.700776 L 40.200231 47.101069 L 35.299289 47.549474 L 34.751157 47.400923 L 31.800919 48.999226 C 30.699282 49.565922 29.750799 50.234404 28.950097 50.999169 L 28.850681 50.999169 L 28.850681 51.100954 M 78.848887 40.149412 L 78.599004 39.951343 M 66.951206 41.951286 L 67.150038 41.799983 M 65.048867 37.249908 L 64.901086 36.85102 M 63.501201 69.050919 L 62.498979 69.050919 L 62.399563 68.998651 L 59.00061 68.451211 L 58.850142 68.500728 L 58.850142 68.64928 L 58.699675 68.850099 L 60.849211 69.248987 L 63.501201 69.548841 C 72.867804 68.250392 78.134167 67.133505 79.30029 66.200932 M 68.351091 75.749488 C 66.916276 75.215803 63.917673 73.900848 59.349909 71.79912 C 57.283668 70.866547 55.284599 69.466313 53.350017 67.601167 C 52.648731 68.500728 51.982375 68.949133 51.350949 68.949133 C 50.649663 68.949133 50.200947 68.784076 49.999428 68.451211 L 49.451296 69.050919 L 49.300829 69.149953 L 49.300829 69.19947 C 50.332606 71.199413 50.851182 72.43459 50.851182 72.899501 L 50.851182 72.949018 L 51.7513 75.199298 L 51.799664 75.3506 M 67.700856 113.049653 L 67.95074 112.848833 M 99.849854 128.100114 L 99.750438 128.050597 L 99.651021 128.248665 C 98.850319 128.815362 95.967254 130.100056 90.999139 132.099999 C 87.933364 133.20038 83.900297 133.75057 78.899939 133.75057 L 69.149106 132.99956 L 65.099918 132.251301 L 58.39874 129.800202 L 58.549207 129.401314 L 56.851074 128.100114 L 54.650486 125.899352 C 53.449433 124.232275 52.732026 123.049365 52.50095 122.350623 C 52.167772 123.816881 51.434243 126.050654 50.300363 129.049192 C 49.368002 131.450774 48.733889 133.450716 48.400711 135.04902 L 48.048724 134.949986 " transform="matrix(1.453802,0,0,1.419963,6.787286,94.356519)"/>
</g>
</svg>
