<?xml version="1.0" encoding="UTF-8"?>
<svg xmlns="http://www.w3.org/2000/svg" xmlns:xlink="http://www.w3.org/1999/xlink" width="355px" height="648px" viewBox="0 0 355 648" version="1.1">
<g id="surface1">
<path style=" stroke:none;fill-rule:evenodd;fill:rgb(0%,0%,0%);fill-opacity:1;" d="M 197.597656 152.71875 C 203.65625 155.9375 207.582031 161.472656 209.375 169.332031 C 210.101562 172.5 210.539062 177.472656 210.683594 184.238281 C 211.167969 185.140625 211.363281 186.417969 211.265625 188.074219 L 210.683594 193.613281 C 210.683594 197.398438 210.34375 203.789062 209.664062 212.78125 L 209.449219 215.195312 C 209.398438 215.667969 209.664062 216.640625 210.246094 218.105469 L 213.082031 223.074219 L 213.082031 223.359375 L 212.9375 223.714844 L 212.425781 223.929688 L 212.355469 223.929688 C 210.367188 224.875 204.722656 226.292969 195.417969 228.1875 C 191.007812 229.464844 188.246094 230.4375 187.132812 231.097656 L 184.804688 232.730469 L 183.496094 233.371094 C 183.15625 233.511719 182.792969 233.703125 182.40625 233.9375 C 180.710938 234.933594 179.378906 235.429688 178.410156 235.429688 L 177.316406 235.359375 C 177.027344 232.28125 176.761719 230.507812 176.519531 230.035156 L 176.519531 225.417969 L 176.445312 225.0625 C 175.960938 226.816406 175.429688 227.691406 174.847656 227.691406 L 174.265625 227.476562 L 174.265625 227.40625 L 172.882812 227.476562 L 159.726562 226.839844 L 154.203125 226.414062 L 154.203125 226.34375 L 152.96875 226.414062 C 152.09375 226.414062 151.585938 226.269531 151.441406 225.988281 C 140.683594 226.035156 133.582031 225.84375 130.140625 225.417969 L 125.199219 224.992188 L 124.617188 225.207031 L 124.546875 224.921875 L 116.839844 224.710938 L 98.230469 225.347656 L 89 225.988281 C 86.820312 225.988281 85.730469 225.773438 85.730469 225.347656 L 86.382812 225.347656 C 85.996094 224.828125 85.558594 223.929688 85.074219 222.648438 L 84.636719 221.230469 L 85.21875 221.300781 L 82.238281 211.574219 C 80.253906 205.515625 79.257812 201.515625 79.257812 199.574219 L 77.949219 195.527344 L 77.660156 195.527344 L 77.007812 192.261719 L 77.296875 192.050781 L 77.222656 191.90625 L 77.878906 191.554688 L 77.949219 191.480469 C 81.632812 189.492188 83.667969 188.5 84.058594 188.5 L 84.421875 188.714844 L 90.746094 188.074219 L 92.925781 186.652344 C 94.039062 185.800781 94.695312 184.925781 94.886719 184.027344 L 94.742188 180.972656 L 94.667969 180.050781 L 94.742188 179.414062 L 95.03125 179.414062 L 95.105469 179.339844 L 94.886719 179.058594 C 94.886719 178.867188 95.90625 177.96875 97.941406 176.359375 C 98.328125 176.074219 98.449219 175.648438 98.304688 175.082031 L 98.085938 174.230469 L 97.941406 173.804688 L 98.011719 173.804688 L 97.941406 173.449219 L 98.59375 173.378906 L 98.667969 173.378906 C 99.394531 172.902344 99.804688 172.382812 99.902344 171.816406 L 99.683594 171.746094 L 99.46875 171.246094 C 99.46875 170.632812 100.144531 169.96875 101.503906 169.257812 L 104.484375 167.273438 C 104.773438 166.894531 104.917969 165.425781 104.917969 162.871094 C 104.917969 160.171875 104.628906 158.445312 104.046875 157.6875 L 97.648438 162.371094 L 97.140625 162.371094 L 97.070312 162.300781 L 96.632812 162.089844 L 96.632812 161.519531 L 98.449219 158.46875 L 97.722656 156.765625 C 97.722656 156.667969 92.660156 156.550781 82.53125 156.410156 L 79.40625 160.171875 L 79.257812 160.597656 C 79.257812 160.738281 79.113281 160.8125 78.824219 160.8125 L 77.515625 162.230469 C 73.347656 166.820312 70.5625 170.113281 69.15625 172.097656 L 68.9375 172.382812 C 63.800781 179.199219 60.652344 183.105469 59.488281 184.097656 L 59.632812 184.238281 L 59.488281 184.738281 L 71.84375 194.960938 L 72.0625 194.746094 C 73.613281 194.746094 75.042969 197.210938 76.351562 202.132812 L 67.121094 210.367188 L 64.140625 215.550781 L 62.175781 217.679688 L 62.03125 217.539062 L 61.449219 218.035156 C 58.640625 220.636719 56.847656 222.507812 56.070312 223.644531 C 53.40625 227.382812 49.796875 231.171875 45.242188 235.003906 L 44.003906 235.996094 L 44.078125 236.210938 C 44.078125 237.0625 43.421875 237.914062 42.113281 238.765625 L 41.023438 240.042969 C 39.425781 240.753906 37.730469 241.085938 35.9375 241.039062 L 32.230469 240.96875 L 26.339844 243.3125 L 26.195312 243.3125 C 24.789062 244.304688 23.410156 244.800781 22.050781 244.800781 C 16.964844 244.800781 12.746094 240.234375 9.402344 231.097656 C 9.402344 229.964844 9.671875 228.589844 10.203125 226.980469 L 11.074219 224.78125 L 11.074219 224.710938 L 12.382812 223.148438 L 12.3125 223.003906 L 16.964844 215.550781 L 19.652344 211.503906 L 20.234375 210.4375 L 20.164062 210.15625 L 20.164062 209.160156 C 20.164062 208.640625 20.9375 207.410156 22.488281 205.46875 C 24.085938 203.480469 25.226562 202.4375 25.90625 202.34375 C 26.535156 201.257812 28.109375 199.550781 30.628906 197.234375 L 34.773438 193.398438 L 34.410156 193.1875 L 39.207031 187.933594 L 38.769531 187.648438 L 41.460938 184.027344 C 43.785156 180.855469 45.917969 178.511719 47.855469 177 L 48.292969 177.140625 C 51.976562 174.160156 55.152344 171.128906 57.816406 168.050781 C 57.914062 166.207031 58.277344 164.03125 58.90625 161.519531 C 59.679688 158.585938 60.480469 156.644531 61.304688 155.699219 L 66.757812 148.882812 C 68.9375 146.136719 70.464844 144.433594 71.335938 143.769531 L 71.191406 143.699219 L 71.554688 143.203125 C 73.976562 140.742188 76.8125 138.730469 80.058594 137.167969 L 89.144531 131.914062 C 92.78125 129.878906 96.4375 128.578125 100.121094 128.007812 L 112.332031 123.75 C 114.125 123.132812 115.773438 122.210938 117.277344 120.980469 L 116.765625 119.5625 L 116.550781 117.785156 L 115.53125 115.867188 L 114.152344 112.675781 C 113.277344 111.066406 112.84375 109.242188 112.84375 107.207031 L 112.84375 104.296875 C 112.988281 102.875 113.253906 102.070312 113.640625 101.882812 L 120.691406 106.496094 L 122.4375 109.691406 L 125.78125 113.453125 C 127.574219 115.585938 128.46875 117.050781 128.46875 117.855469 L 128.46875 117.929688 L 130.359375 119.84375 L 130.652344 119.988281 C 130.992188 119.183594 131.5 118.898438 132.175781 119.136719 L 132.6875 119.207031 L 135.667969 116.578125 L 135.8125 116.578125 C 136.78125 114.734375 140.441406 111.941406 146.789062 108.199219 C 150.132812 106.308594 152.3125 104.816406 153.332031 103.726562 L 155.292969 100.816406 L 155.800781 100.179688 L 155.949219 99.894531 L 155.949219 100.105469 L 156.675781 99.964844 L 157.253906 100.105469 L 157.253906 99.964844 L 158.347656 102.734375 C 159.171875 105.195312 159.605469 107.042969 159.65625 108.273438 L 160.308594 117.359375 C 160.308594 118.117188 160.089844 118.496094 159.65625 118.496094 L 159.507812 118.496094 L 159.726562 121.195312 L 159.726562 121.265625 L 167.503906 127.371094 C 170.21875 129.265625 173.5625 132.199219 177.535156 136.175781 L 179.207031 137.878906 L 179.71875 138.445312 L 185.894531 144.550781 C 189.433594 147.769531 193.335938 150.492188 197.597656 152.71875 M 156.238281 101.597656 L 156.3125 101.882812 L 156.527344 101.597656 L 156.238281 101.597656 M 153.476562 121.40625 L 154.710938 120.554688 L 154.566406 119.84375 L 153.984375 119.703125 L 153.621094 119.988281 L 153.621094 119.0625 L 154.203125 118.921875 L 154.421875 118.992188 C 153.257812 112.699219 152.675781 108.675781 152.675781 106.921875 L 153.039062 106.355469 L 151.585938 107.347656 C 149.9375 108.152344 148.703125 108.792969 147.878906 109.265625 L 141.992188 113.527344 L 138.429688 116.578125 L 136.902344 117.855469 L 136.394531 118.210938 L 133.121094 120.554688 L 133.484375 120.554688 C 133.148438 122.683594 132.371094 125.523438 131.160156 129.074219 L 131.085938 129.144531 L 131.160156 129.289062 L 130.652344 130.566406 L 129.199219 142.917969 C 128.566406 149.640625 128.253906 157.875 128.253906 167.625 L 128.253906 167.839844 L 126.945312 202.558594 C 126.945312 204.925781 127.234375 207.007812 127.816406 208.804688 L 127.816406 223.503906 C 133.535156 223.644531 135.789062 223.929688 134.578125 224.355469 L 153.113281 225.0625 L 154.492188 224.992188 L 155.292969 225.136719 L 155.292969 225.207031 L 167.722656 226.199219 L 167.722656 226.625 L 168.304688 226.625 C 168.691406 226.625 168.863281 226.554688 168.8125 226.414062 L 168.8125 226.269531 L 174.339844 226.695312 C 174.433594 225.5625 175.210938 222.769531 176.664062 218.320312 L 176.953125 212.921875 L 176.519531 212.851562 L 176.519531 213.632812 L 176.011719 213.917969 L 175.644531 212.640625 L 168.957031 209.941406 L 168.449219 209.726562 L 168.160156 209.375 L 168.160156 209.585938 C 164.039062 207.691406 161.058594 206.058594 159.21875 204.6875 C 154.082031 200.804688 150.59375 197.492188 148.75 194.746094 C 146.667969 191.578125 145.335938 188.121094 144.753906 184.382812 C 144.511719 182.679688 144.390625 179.292969 144.390625 174.230469 L 144.390625 170.039062 L 144.824219 169.96875 L 145.335938 166.347656 L 145.335938 161.238281 C 145.335938 157.59375 145.820312 153.996094 146.789062 150.445312 L 147.078125 150.445312 C 147.371094 148.789062 147.832031 146.847656 148.460938 144.625 C 149.769531 140.175781 150.445312 136.90625 150.496094 134.824219 L 151.078125 134.46875 L 153.546875 123.820312 L 153.546875 123.75 L 153.402344 123.75 L 152.894531 123.609375 L 152.675781 123.109375 C 152.675781 122.78125 152.941406 122.210938 153.476562 121.40625 M 157.765625 121.902344 L 157.691406 122.046875 L 157.835938 121.976562 L 157.765625 121.902344 M 127.816406 129.429688 L 128.324219 128.863281 L 128.035156 128.648438 L 129.777344 120.625 C 129.003906 120.152344 127.839844 119.015625 126.289062 117.21875 L 125.78125 116.578125 L 126.070312 116.578125 L 121.273438 110.542969 L 118.730469 106.285156 C 116.402344 105.101562 114.925781 104.128906 114.296875 103.375 L 114.296875 107.207031 C 114.296875 108.910156 114.878906 110.921875 116.039062 113.242188 L 117.566406 116.578125 L 117.859375 116.578125 L 118.074219 118.851562 C 118.125 119.136719 118.730469 120.082031 119.894531 121.691406 L 120.691406 121.121094 L 120.621094 122.046875 L 120.328125 122.257812 L 120.910156 122.96875 L 120.910156 123.039062 L 120.691406 122.898438 L 119.964844 123.535156 L 120.328125 123.890625 L 120.476562 126.589844 C 120.476562 128.199219 120.257812 129.570312 119.820312 130.707031 C 119.335938 131.84375 119.09375 133.878906 119.09375 136.8125 L 118.65625 146.964844 L 118.65625 157.191406 C 118.65625 160.3125 118.003906 163.601562 116.695312 167.058594 C 115.824219 169.285156 115.09375 172.691406 114.515625 177.28125 C 113.933594 181.875 113.230469 185.210938 112.40625 187.292969 L 110.007812 189.992188 L 108.625 192.332031 L 103.390625 197.445312 C 101.597656 199.292969 98.132812 201.160156 92.996094 203.054688 L 85 205.398438 L 85 205.328125 L 83.546875 205.609375 L 82.457031 205.609375 L 82.894531 210.011719 L 86.457031 221.089844 L 86.601562 221.515625 L 86.601562 222.222656 L 87.546875 225.207031 L 107.101562 223.644531 L 116.984375 223.429688 L 124.253906 223.503906 C 123.769531 220.757812 123.527344 216.332031 123.527344 210.226562 L 123.746094 197.660156 L 124.546875 173.164062 C 124.546875 169.519531 125.125 164.859375 126.289062 159.179688 L 126.289062 145.332031 C 126.53125 139.179688 126.847656 134.542969 127.234375 131.417969 L 127.816406 129.429688 M 131.960938 120.769531 L 131.304688 120.769531 L 131.015625 120.695312 C 130.675781 123.441406 129.683594 128.175781 128.035156 134.894531 L 127.597656 150.65625 L 126.582031 166.5625 L 125.925781 181.96875 L 125.199219 206.886719 L 124.761719 210.226562 L 125.199219 213.277344 L 125.199219 223.503906 L 127.160156 223.503906 C 126.871094 222.128906 126.726562 218.699219 126.726562 213.207031 C 126.046875 209.703125 125.707031 206.15625 125.707031 202.558594 L 126.726562 184.523438 L 126.582031 175.648438 C 126.582031 172.476562 126.871094 169.804688 127.453125 167.625 L 127.160156 165.636719 L 127.816406 153.425781 L 128.253906 141.285156 C 128.589844 135.75 129.101562 131.703125 129.777344 129.144531 L 131.960938 120.769531 M 152.238281 137.308594 L 151.875 137.238281 C 151.488281 139.890625 150.230469 145.332031 148.097656 153.570312 L 147.734375 153.425781 L 147.078125 156.90625 C 146.59375 159.128906 146.425781 160.929688 146.570312 162.300781 C 146.765625 164.433594 146.425781 167.886719 145.550781 172.667969 L 145.550781 174.230469 C 145.550781 183.554688 146.789062 190.085938 149.261719 193.824219 C 152.457031 198.699219 158.710938 203.339844 168.015625 207.742188 L 167.941406 206.605469 C 167.941406 200.78125 168.621094 194.890625 169.976562 188.925781 L 171.285156 178.558594 C 171.914062 173.828125 172.789062 171.460938 173.902344 171.460938 L 177.609375 183.886719 L 178.191406 165.285156 L 179.0625 165.140625 C 179.839844 165.140625 180.710938 165.734375 181.679688 166.917969 L 182.84375 168.480469 L 183.0625 168.335938 C 184.613281 168.335938 185.410156 170.253906 185.460938 174.085938 L 185.386719 182.464844 C 187.714844 178.300781 189.238281 176.21875 189.964844 176.21875 L 190.183594 176.289062 L 190.183594 176.21875 L 190.910156 176.359375 L 191.058594 176.785156 C 191.058594 178.820312 189.894531 182.9375 187.566406 189.140625 C 186.550781 191.695312 185.265625 195.742188 183.714844 201.28125 L 183.714844 203.835938 L 187.132812 202.628906 L 187.785156 202.769531 L 188.003906 203.195312 L 184.585938 209.300781 C 182.019531 213.703125 180.273438 217.160156 179.355469 219.667969 C 181.050781 219.808594 181.898438 220.210938 181.898438 220.875 C 181.898438 221.253906 180.953125 222.320312 179.0625 224.070312 C 179.257812 225.0625 179.039062 225.84375 178.410156 226.414062 L 178.480469 226.625 L 178.261719 226.554688 L 177.972656 226.769531 C 178.261719 228.140625 178.410156 230.578125 178.410156 234.082031 C 178.988281 233.65625 180.03125 233.15625 181.535156 232.589844 L 181.460938 232.234375 L 186.042969 230.175781 C 188.511719 228.804688 191.492188 227.785156 194.980469 227.121094 L 200.144531 226.058594 C 199.511719 226.011719 199.199219 225.820312 199.199219 225.488281 L 202.394531 223.574219 C 204.480469 222.34375 205.523438 221.089844 205.523438 219.808594 C 205.523438 219.527344 204.796875 218.652344 203.339844 217.183594 L 203.050781 217.253906 L 202.542969 216.6875 C 202.105469 216.449219 201.742188 214.980469 201.453125 212.285156 L 200.433594 205.539062 C 199.320312 202.273438 197.71875 199.480469 195.636719 197.160156 C 193.792969 195.503906 192.875 194.558594 192.875 194.320312 C 192.875 193.992188 192.996094 193.777344 193.238281 193.683594 C 195.128906 188.902344 196.074219 186.015625 196.074219 185.019531 L 195.273438 175.578125 C 195.175781 173.734375 194.28125 170.65625 192.582031 166.347656 C 191.128906 162.5625 188.320312 159.4375 184.152344 156.976562 L 177.390625 152.078125 L 172.8125 148.316406 L 171.210938 151.4375 C 170.242188 153.472656 169.105469 157.875 167.796875 164.644531 C 167.019531 168.480469 166.222656 173.757812 165.398438 180.476562 L 165.398438 180.832031 L 165.105469 182.890625 L 165.398438 184.808594 L 164.671875 186.582031 L 164.378906 189.566406 L 164.453125 189.566406 L 164.742188 190.0625 L 164.234375 190.558594 L 164.234375 190.628906 L 164.160156 190.558594 L 163.726562 190.628906 L 162.269531 190.628906 L 153.183594 190.347656 L 152.75 190.417969 L 152.675781 190.273438 L 152.457031 190.273438 L 152.09375 189.992188 L 152.238281 189.492188 C 151.949219 188.546875 151.804688 186.960938 151.804688 184.738281 L 152.3125 181.398438 L 152.09375 180.691406 C 152.09375 179.128906 152.363281 177.828125 152.894531 176.785156 L 153.039062 176.5 C 154.929688 164.195312 155.972656 157.828125 156.164062 157.402344 C 157.667969 151.722656 159.050781 147.132812 160.308594 143.628906 C 160.792969 142.113281 161.640625 140.316406 162.851562 138.234375 L 162.707031 138.234375 L 159.4375 130.992188 L 154.785156 124.671875 L 153.621094 127.582031 L 152.238281 135.890625 L 152.238281 137.308594 M 172.300781 147.816406 L 172.59375 147.890625 C 173.125 147.890625 173.394531 147.675781 173.394531 147.25 L 172.957031 146.824219 L 178.410156 138.800781 L 176.226562 136.316406 L 169.539062 131.488281 C 167.3125 133.191406 165.589844 135.15625 164.378906 137.382812 L 163.941406 138.515625 L 163.871094 138.800781 L 163.796875 138.871094 L 163.796875 138.941406 L 161.398438 144.195312 C 160.914062 145.191406 159.605469 149.6875 157.472656 157.6875 L 155.292969 164.503906 C 155.097656 166.015625 155.050781 168.265625 155.148438 171.246094 L 154.640625 174.796875 C 155.707031 173.992188 157.109375 173.566406 158.855469 173.519531 L 159 173.378906 L 159.074219 173.449219 L 159.21875 173.378906 L 159.292969 173.449219 L 160.089844 173.234375 L 160.382812 173.519531 C 162.851562 173.707031 164.429688 175.058594 165.105469 177.566406 L 166.851562 163.652344 L 168.015625 156.835938 C 168.546875 154.183594 169.347656 152.054688 170.414062 150.445312 L 172.300781 147.816406 M 173.683594 175.933594 L 173.609375 175.71875 L 173.609375 175.933594 L 173.683594 175.933594 M 160.453125 174.796875 L 160.382812 174.65625 L 159.871094 174.65625 L 159.363281 174.511719 L 159.21875 174.65625 C 159.265625 174.796875 159.121094 174.867188 158.78125 174.867188 L 158.273438 174.726562 L 158.273438 174.796875 C 156.382812 174.9375 155.074219 175.460938 154.347656 176.359375 L 152.894531 184.808594 L 153.332031 188.570312 L 153.332031 189.28125 L 153.984375 189.28125 L 153.839844 188.714844 L 155.292969 181.753906 C 155.292969 180.621094 155.4375 179.53125 155.730469 178.488281 C 156.214844 176.832031 157.085938 175.863281 158.347656 175.578125 L 158.636719 175.863281 C 158.734375 175.71875 158.925781 175.601562 159.21875 175.507812 L 159.507812 175.71875 L 159.871094 175.578125 C 162.539062 175.863281 163.773438 177.96875 163.578125 181.898438 L 162.925781 189.28125 L 162.925781 189.492188 L 163.652344 189.566406 L 164.160156 185.234375 L 164.089844 182.109375 C 164.574219 177.613281 163.363281 175.175781 160.453125 174.796875 M 159.074219 177 L 159 177 L 158.710938 176.855469 C 156.917969 177.519531 155.730469 181.636719 155.148438 189.210938 L 157.621094 189.210938 L 161.761719 189.421875 C 161.519531 188.664062 161.398438 187.8125 161.398438 186.867188 C 161.980469 185.070312 162.269531 183.410156 162.269531 181.898438 C 162.320312 178.773438 161.472656 177.09375 159.726562 176.855469 L 159.582031 176.925781 L 159.507812 177 L 159.074219 177 M 116.039062 102.023438 L 116.113281 102.09375 L 115.96875 102.023438 L 116.039062 102.023438 M 81.222656 200.925781 L 82.238281 204.402344 C 82.722656 204.074219 83.402344 203.859375 84.273438 203.765625 L 86.238281 203.621094 L 94.523438 201.28125 C 96.609375 200.804688 99.273438 199.246094 102.519531 196.59375 C 106.105469 193.800781 109.085938 190.324219 111.460938 186.15625 C 112.816406 183.789062 113.542969 180.167969 113.640625 175.292969 C 114.757812 170.371094 115.363281 166.820312 115.460938 164.644531 C 116.914062 161.898438 117.617188 158.300781 117.566406 153.851562 C 117.277344 148.976562 117.226562 145.402344 117.421875 143.132812 C 117.761719 141.996094 117.929688 140.222656 117.929688 137.808594 C 117.980469 135.347656 118.148438 133.5 118.4375 132.269531 C 118.730469 130.992188 118.898438 127.890625 118.949219 122.96875 L 118.003906 122.1875 C 115.773438 123.75 111.992188 125.429688 106.664062 127.230469 L 106.664062 127.300781 L 103.390625 134.042969 L 101.285156 140.648438 C 98.765625 145.804688 97.890625 150.207031 98.667969 153.851562 L 98.667969 155.839844 L 98.886719 156.125 L 99.320312 156.976562 L 99.683594 158.679688 L 99.683594 158.964844 L 99.832031 158.894531 L 100.046875 158.679688 C 102.277344 157.117188 103.609375 156.339844 104.046875 156.339844 C 104.726562 156.339844 105.234375 156.644531 105.574219 157.261719 C 107.851562 157.542969 108.796875 160.433594 108.40625 165.921875 C 108.40625 168.003906 108.261719 169.308594 107.972656 169.828125 C 107.4375 170.726562 105.644531 172.265625 102.59375 174.441406 C 101.574219 175.152344 101.164062 176.574219 101.355469 178.703125 L 101.9375 183.601562 C 101.9375 186.535156 101.769531 188.238281 101.429688 188.714844 C 100.074219 190.558594 96.414062 191.554688 90.453125 191.695312 L 90.527344 191.765625 L 90.453125 191.90625 L 87.765625 191.765625 C 87.085938 191.765625 86.625 191.882812 86.382812 192.121094 C 84.976562 192.261719 82.675781 193.328125 79.476562 195.316406 L 81.730469 200.925781 L 81.367188 200.855469 L 81.148438 200.855469 L 81.222656 200.925781 M 99.902344 129.289062 C 97.820312 129.902344 95.664062 130.660156 93.433594 131.558594 C 93.335938 133.5 92.753906 136.90625 91.6875 141.785156 C 90.769531 146.183594 90.597656 149.757812 91.179688 152.503906 L 91.179688 155.273438 L 97.648438 155.058594 C 97.40625 154.066406 97.285156 152.742188 97.285156 151.085938 C 97.285156 145.832031 100 138.019531 105.429688 127.65625 L 99.902344 129.289062 M 90.308594 155.273438 C 89.871094 153.617188 89.652344 151.273438 89.652344 148.242188 L 89.945312 144.625 L 91.253906 139.296875 L 91.542969 134.613281 L 91.980469 132.199219 C 87.765625 133.996094 83.207031 136.316406 78.3125 139.15625 C 76.328125 140.339844 74.4375 141.949219 72.644531 143.984375 L 72.355469 144.339844 L 72.0625 144.625 L 72.0625 144.695312 L 72.0625 144.625 L 68.71875 147.960938 C 65.714844 151.035156 63.535156 153.972656 62.175781 156.765625 C 61.402344 158.375 60.773438 160.621094 60.289062 163.507812 C 59.851562 166.113281 59.195312 168.125 58.324219 169.542969 L 58.25 169.472656 C 57.136719 171.414062 53.746094 174.488281 48.074219 178.703125 L 47.929688 178.84375 L 44.660156 183.105469 L 40.152344 188.5 L 40.007812 188.429688 L 36.515625 193.113281 L 36.515625 193.1875 C 36.515625 194.226562 33.222656 197.660156 26.632812 203.480469 L 27.429688 204.402344 L 29.976562 202.414062 L 30.339844 202.132812 C 34.070312 200.855469 36.832031 199.574219 38.625 198.296875 C 39.496094 197.066406 40.417969 196.003906 41.386719 195.101562 L 41.242188 194.675781 C 41.242188 194.15625 42.140625 193.164062 43.933594 191.695312 C 45 190.75 46.425781 189.660156 48.21875 188.429688 L 48.21875 187.433594 L 49.964844 184.027344 C 50.835938 182.464844 51.78125 181.683594 52.800781 181.683594 L 52.871094 181.683594 L 53.890625 179.339844 C 55.152344 175.886719 56.242188 173.707031 57.160156 172.808594 C 57.5 172.902344 57.671875 173.355469 57.671875 174.160156 L 54.980469 180.121094 L 57.597656 176.855469 L 57.816406 177 L 59.921875 175.292969 L 59.777344 175.082031 C 59.921875 174.796875 60.214844 174.65625 60.652344 174.65625 L 61.160156 174.300781 L 61.160156 174.230469 L 61.230469 174.230469 C 61.667969 173.851562 62.175781 173.449219 62.757812 173.023438 C 67.023438 169.851562 69.589844 168.265625 70.464844 168.265625 L 70.535156 168.265625 L 72.136719 166.347656 L 71.773438 165.851562 C 71.773438 165.425781 72.476562 163.367188 73.878906 159.675781 C 75.382812 155.605469 76.496094 153.570312 77.222656 153.570312 C 77.949219 153.570312 78.605469 155.15625 79.1875 158.324219 L 81.65625 155.839844 L 81.65625 155.769531 L 81.804688 155.273438 L 90.308594 155.273438 M 48.875 153.851562 L 48.949219 153.925781 L 48.875 153.851562 M 62.902344 170.464844 L 62.25 170.890625 C 61.714844 170.890625 61.257812 170.65625 60.867188 170.183594 L 60.433594 169.402344 L 60.433594 168.90625 L 61.085938 168.90625 C 61.863281 168.90625 62.46875 169.425781 62.902344 170.464844 M 62.394531 215.480469 L 65.15625 211.21875 L 65.011719 210.722656 C 65.011719 210.390625 65.546875 209.515625 66.609375 208.09375 L 66.976562 208.59375 L 70.609375 205.253906 L 74.824219 201.917969 C 74.824219 201.066406 74.269531 199.765625 73.152344 198.015625 L 72.207031 196.664062 L 56.652344 183.742188 L 43.421875 194.320312 L 43.640625 194.746094 L 41.53125 197.234375 C 40.804688 198.179688 39.933594 198.890625 38.917969 199.363281 L 31.210938 203.054688 C 27.238281 207.125 24.378906 209.65625 22.632812 210.652344 L 19.582031 215.90625 C 17.011719 220.164062 15.726562 224.332031 15.726562 228.402344 C 15.726562 235.738281 19.046875 239.40625 25.6875 239.40625 L 29.464844 238.980469 C 29.613281 238.835938 29.855469 238.765625 30.195312 238.765625 C 31.257812 238.765625 31.988281 238.910156 32.375 239.191406 L 32.519531 239.191406 L 34.265625 238.980469 C 34.84375 238.980469 35.210938 239.097656 35.355469 239.335938 C 37.390625 239.476562 39.011719 239.214844 40.226562 238.554688 L 38.84375 238.625 L 44.441406 234.363281 L 50.039062 228.683594 L 54.980469 223.003906 L 61.960938 216.046875 L 62.324219 215.691406 L 62.394531 215.480469 M 24.886719 206.390625 L 25.6875 205.753906 L 26.195312 205.398438 L 25.757812 204.546875 L 25.6875 204.332031 L 22.925781 207.457031 L 23.214844 207.457031 L 24.8125 206.390625 L 24.378906 206.886719 L 24.886719 206.390625 M 95.976562 179.484375 C 96.511719 179.71875 96.777344 180.289062 96.777344 181.1875 C 96.777344 182.703125 96.875 183.578125 97.070312 183.8125 L 97.070312 186.15625 L 97.503906 185.09375 L 97.503906 182.324219 L 97.433594 179.484375 L 97.503906 178.417969 L 95.976562 179.484375 M 95.46875 185.09375 L 94.234375 187.152344 L 94.453125 187.363281 L 95.976562 186.726562 C 95.734375 186.300781 95.566406 185.753906 95.46875 185.09375 "/>
<path style=" stroke:none;fill-rule:evenodd;fill:rgb(20%,20%,20%);fill-opacity:1;" d="M 131.160156 129.289062 L 131.085938 129.144531 L 131.160156 129.074219 C 132.371094 125.523438 133.148438 122.683594 133.484375 120.554688 L 133.121094 120.554688 L 136.394531 118.210938 L 136.902344 117.855469 L 138.429688 116.578125 L 141.992188 113.527344 L 147.878906 109.265625 C 148.703125 108.792969 149.9375 108.152344 151.585938 107.347656 L 153.039062 106.355469 L 152.675781 106.921875 C 152.675781 108.675781 153.257812 112.699219 154.421875 118.992188 L 154.203125 118.921875 L 153.621094 119.0625 L 153.621094 119.988281 L 153.984375 119.703125 L 154.566406 119.84375 L 154.710938 120.554688 L 153.476562 121.40625 C 146.738281 126.140625 141.144531 128.886719 136.683594 129.644531 L 133.269531 129.996094 C 131.8125 129.996094 131.085938 129.808594 131.085938 129.429688 L 131.160156 129.289062 M 168.160156 209.585938 L 168.160156 209.375 L 168.449219 209.726562 L 168.957031 209.941406 L 175.644531 212.640625 L 176.011719 213.917969 L 176.519531 213.632812 L 176.519531 212.851562 L 176.953125 212.921875 L 176.664062 218.320312 C 175.210938 222.769531 174.433594 225.5625 174.339844 226.695312 L 168.8125 226.269531 L 168.8125 226.414062 C 168.863281 226.554688 168.691406 226.625 168.304688 226.625 L 167.722656 226.625 L 167.722656 226.199219 L 167.578125 217.964844 L 168.160156 209.585938 M 120.328125 123.890625 L 119.964844 123.535156 L 120.691406 122.898438 L 120.910156 123.039062 L 120.910156 122.96875 L 120.328125 122.257812 L 120.621094 122.046875 L 120.691406 121.121094 L 119.894531 121.691406 C 118.730469 120.082031 118.125 119.136719 118.074219 118.851562 L 117.859375 116.578125 L 117.566406 116.578125 L 116.039062 113.242188 C 114.878906 110.921875 114.296875 108.910156 114.296875 107.207031 L 114.296875 103.375 C 114.925781 104.128906 116.402344 105.101562 118.730469 106.285156 L 121.273438 110.542969 L 126.070312 116.578125 L 125.78125 116.578125 L 126.289062 117.21875 C 127.839844 119.015625 129.003906 120.152344 129.777344 120.625 L 128.035156 128.648438 L 128.324219 128.863281 L 127.816406 129.429688 L 127.597656 129.5 C 126.484375 129.5 124.957031 128.578125 123.019531 126.730469 L 120.328125 123.890625 M 152.238281 137.308594 L 152.238281 135.890625 L 153.621094 127.582031 L 154.785156 124.671875 L 159.4375 130.992188 L 162.707031 138.234375 L 162.851562 138.234375 C 161.640625 140.316406 160.792969 142.113281 160.308594 143.628906 C 159.050781 147.132812 157.667969 151.722656 156.164062 157.402344 C 155.972656 157.828125 154.929688 164.195312 153.039062 176.5 L 152.894531 176.785156 C 152.363281 177.828125 152.09375 179.128906 152.09375 180.691406 L 152.3125 181.398438 L 151.804688 184.738281 C 151.804688 186.960938 151.949219 188.546875 152.238281 189.492188 L 152.09375 189.992188 L 152.457031 190.273438 L 152.675781 190.273438 L 152.75 190.417969 L 153.183594 190.347656 L 162.269531 190.628906 L 163.726562 190.628906 L 164.160156 190.558594 L 164.234375 190.628906 L 164.234375 190.558594 L 164.742188 190.0625 L 164.453125 189.566406 L 164.378906 189.566406 L 164.671875 186.582031 L 165.398438 184.808594 L 165.105469 182.890625 L 165.398438 180.832031 L 165.398438 180.476562 C 166.222656 173.757812 167.019531 168.480469 167.796875 164.644531 C 169.105469 157.875 170.242188 153.472656 171.210938 151.4375 L 172.8125 148.316406 L 177.390625 152.078125 L 184.152344 156.976562 C 188.320312 159.4375 191.128906 162.5625 192.582031 166.347656 C 194.28125 170.65625 195.175781 173.734375 195.273438 175.578125 L 196.074219 185.019531 C 196.074219 186.015625 195.128906 188.902344 193.238281 193.683594 C 192.996094 193.777344 192.875 193.992188 192.875 194.320312 C 192.875 194.558594 193.792969 195.503906 195.636719 197.160156 C 197.71875 199.480469 199.320312 202.273438 200.433594 205.539062 L 201.453125 212.285156 C 201.742188 214.980469 202.105469 216.449219 202.542969 216.6875 L 203.050781 217.253906 L 203.339844 217.183594 C 204.796875 218.652344 205.523438 219.527344 205.523438 219.808594 C 205.523438 221.089844 204.480469 222.34375 202.394531 223.574219 L 199.199219 225.488281 C 199.199219 225.820312 199.511719 226.011719 200.144531 226.058594 L 194.980469 227.121094 C 191.492188 227.785156 188.511719 228.804688 186.042969 230.175781 L 181.460938 232.234375 L 181.535156 232.589844 C 180.03125 233.15625 178.988281 233.65625 178.410156 234.082031 C 178.410156 230.578125 178.261719 228.140625 177.972656 226.769531 L 178.261719 226.554688 L 178.480469 226.625 L 178.410156 226.414062 C 179.039062 225.84375 179.257812 225.0625 179.0625 224.070312 C 180.953125 222.320312 181.898438 221.253906 181.898438 220.875 C 181.898438 220.210938 181.050781 219.808594 179.355469 219.667969 C 180.273438 217.160156 182.019531 213.703125 184.585938 209.300781 L 188.003906 203.195312 L 187.785156 202.769531 L 187.132812 202.628906 L 183.714844 203.835938 L 183.714844 201.28125 C 185.265625 195.742188 186.550781 191.695312 187.566406 189.140625 C 189.894531 182.9375 191.058594 178.820312 191.058594 176.785156 L 190.910156 176.359375 L 190.183594 176.21875 L 190.183594 176.289062 L 189.964844 176.21875 C 189.238281 176.21875 187.714844 178.300781 185.386719 182.464844 L 185.460938 174.085938 C 185.410156 170.253906 184.613281 168.335938 183.0625 168.335938 L 182.84375 168.480469 L 181.679688 166.917969 C 180.710938 165.734375 179.839844 165.140625 179.0625 165.140625 L 178.191406 165.285156 L 177.609375 183.886719 L 173.902344 171.460938 C 172.789062 171.460938 171.914062 173.828125 171.285156 178.558594 L 169.976562 188.925781 C 168.621094 194.890625 167.941406 200.78125 167.941406 206.605469 L 168.015625 207.742188 C 158.710938 203.339844 152.457031 198.699219 149.261719 193.824219 C 146.789062 190.085938 145.550781 183.554688 145.550781 174.230469 L 145.550781 172.667969 C 146.425781 167.886719 146.765625 164.433594 146.570312 162.300781 C 146.425781 160.929688 146.59375 159.128906 147.078125 156.90625 L 147.734375 153.425781 L 148.097656 153.570312 C 150.230469 145.332031 151.488281 139.890625 151.875 137.238281 L 152.238281 137.308594 M 173.683594 175.933594 L 173.609375 175.933594 L 173.609375 175.71875 L 173.683594 175.933594 M 99.683594 158.679688 L 99.320312 156.976562 L 98.886719 156.125 L 98.667969 155.839844 L 98.667969 153.851562 C 97.890625 150.207031 98.765625 145.804688 101.285156 140.648438 L 103.390625 134.042969 L 106.664062 127.300781 L 106.664062 127.230469 C 111.992188 125.429688 115.773438 123.75 118.003906 122.1875 L 118.949219 122.96875 C 118.898438 127.890625 118.730469 130.992188 118.4375 132.269531 C 118.148438 133.5 117.980469 135.347656 117.929688 137.808594 C 117.929688 140.222656 117.761719 141.996094 117.421875 143.132812 C 117.226562 145.402344 117.277344 148.976562 117.566406 153.851562 C 117.617188 158.300781 116.914062 161.898438 115.460938 164.644531 C 115.363281 166.820312 114.757812 170.371094 113.640625 175.292969 C 113.542969 180.167969 112.816406 183.789062 111.460938 186.15625 C 109.085938 190.324219 106.105469 193.800781 102.519531 196.59375 C 99.273438 199.246094 96.609375 200.804688 94.523438 201.28125 L 86.238281 203.621094 L 84.273438 203.765625 C 83.402344 203.859375 82.722656 204.074219 82.238281 204.402344 L 81.222656 200.925781 L 81.367188 200.855469 L 81.730469 200.925781 L 79.476562 195.316406 C 82.675781 193.328125 84.976562 192.261719 86.382812 192.121094 C 86.625 191.882812 87.085938 191.765625 87.765625 191.765625 L 90.453125 191.90625 L 90.527344 191.765625 L 90.453125 191.695312 C 96.414062 191.554688 100.074219 190.558594 101.429688 188.714844 C 101.769531 188.238281 101.9375 186.535156 101.9375 183.601562 L 101.355469 178.703125 C 101.164062 176.574219 101.574219 175.152344 102.59375 174.441406 C 105.644531 172.265625 107.4375 170.726562 107.972656 169.828125 C 108.261719 169.308594 108.40625 168.003906 108.40625 165.921875 C 108.796875 160.433594 107.851562 157.542969 105.574219 157.261719 C 105.234375 156.644531 104.726562 156.339844 104.046875 156.339844 C 103.609375 156.339844 102.277344 157.117188 100.046875 158.679688 L 99.832031 158.894531 L 99.683594 158.679688 M 90.089844 155.273438 L 81.804688 155.273438 L 81.65625 155.769531 L 81.65625 155.839844 L 79.1875 158.324219 C 78.605469 155.15625 77.949219 153.570312 77.222656 153.570312 C 76.496094 153.570312 75.382812 155.605469 73.878906 159.675781 C 72.476562 163.367188 71.773438 165.425781 71.773438 165.851562 L 72.136719 166.347656 L 70.535156 168.265625 L 70.464844 168.265625 C 69.589844 168.265625 67.023438 169.851562 62.757812 173.023438 C 62.175781 173.449219 61.667969 173.851562 61.230469 174.230469 L 61.160156 174.230469 L 61.160156 174.300781 L 60.652344 174.65625 C 60.214844 174.65625 59.921875 174.796875 59.777344 175.082031 L 59.921875 175.292969 L 57.816406 177 L 57.597656 176.855469 L 54.980469 180.121094 L 57.671875 174.160156 C 57.671875 173.355469 57.5 172.902344 57.160156 172.808594 C 56.242188 173.707031 55.152344 175.886719 53.890625 179.339844 L 52.871094 181.683594 L 52.800781 181.683594 C 51.78125 181.683594 50.835938 182.464844 49.964844 184.027344 L 48.21875 187.433594 L 48.21875 188.429688 C 46.425781 189.660156 45 190.75 43.933594 191.695312 C 42.140625 193.164062 41.242188 194.15625 41.242188 194.675781 L 41.386719 195.101562 C 40.417969 196.003906 39.496094 197.066406 38.625 198.296875 C 36.832031 199.574219 34.070312 200.855469 30.339844 202.132812 L 29.976562 202.414062 L 27.429688 204.402344 L 26.632812 203.480469 C 33.222656 197.660156 36.515625 194.226562 36.515625 193.1875 L 36.515625 193.113281 L 40.007812 188.429688 L 40.152344 188.5 L 44.660156 183.105469 L 47.929688 178.84375 L 48.074219 178.703125 C 53.746094 174.488281 57.136719 171.414062 58.25 169.472656 L 58.324219 169.542969 C 59.195312 168.125 59.851562 166.113281 60.289062 163.507812 C 60.773438 160.621094 61.402344 158.375 62.175781 156.765625 C 63.535156 153.972656 65.714844 151.035156 68.71875 147.960938 L 72.0625 144.625 L 72.0625 144.695312 L 72.0625 144.625 L 72.355469 144.339844 L 72.644531 143.984375 C 74.4375 141.949219 76.328125 140.339844 78.3125 139.15625 C 83.207031 136.316406 87.765625 133.996094 91.980469 132.199219 L 91.542969 134.613281 L 91.253906 139.296875 L 89.945312 144.625 L 89.652344 148.242188 C 89.652344 151.273438 89.871094 153.617188 90.308594 155.273438 L 90.089844 155.273438 M 61.960938 216.046875 L 54.980469 223.003906 L 50.039062 228.683594 L 44.441406 234.363281 L 38.84375 238.625 L 40.226562 238.554688 C 39.011719 239.214844 37.390625 239.476562 35.355469 239.335938 C 35.210938 239.097656 34.84375 238.980469 34.265625 238.980469 L 32.519531 239.191406 L 32.375 239.191406 C 31.988281 238.910156 31.257812 238.765625 30.195312 238.765625 C 29.855469 238.765625 29.613281 238.835938 29.464844 238.980469 L 25.6875 239.40625 C 19.046875 239.40625 15.726562 235.738281 15.726562 228.402344 C 15.726562 224.332031 17.011719 220.164062 19.582031 215.90625 L 22.632812 210.652344 C 24.378906 209.65625 27.238281 207.125 31.210938 203.054688 L 38.917969 199.363281 C 39.933594 198.890625 40.804688 198.179688 41.53125 197.234375 L 43.640625 194.746094 L 43.421875 194.320312 L 56.652344 183.742188 L 72.207031 196.664062 L 73.152344 198.015625 C 74.269531 199.765625 74.824219 201.066406 74.824219 201.917969 L 70.609375 205.253906 L 66.976562 208.59375 L 66.609375 208.09375 C 65.546875 209.515625 65.011719 210.390625 65.011719 210.722656 L 65.15625 211.21875 L 62.394531 215.480469 L 61.960938 216.046875 M 62.902344 170.464844 C 62.46875 169.425781 61.863281 168.90625 61.085938 168.90625 L 60.433594 168.90625 L 60.433594 169.402344 L 60.867188 170.183594 C 61.257812 170.65625 61.714844 170.890625 62.25 170.890625 L 62.902344 170.464844 M 24.8125 206.390625 L 23.214844 207.457031 L 22.925781 207.457031 L 25.6875 204.332031 L 25.757812 204.546875 L 26.195312 205.398438 L 25.6875 205.753906 L 24.886719 206.390625 L 24.8125 206.390625 "/>
<path style=" stroke:none;fill-rule:evenodd;fill:rgb(40.000001%,40.000001%,40.000001%);fill-opacity:1;" d="M 131.160156 129.289062 L 131.085938 129.429688 C 131.085938 129.808594 131.8125 129.996094 133.269531 129.996094 L 136.683594 129.644531 C 141.144531 128.886719 146.738281 126.140625 153.476562 121.40625 C 152.941406 122.210938 152.675781 122.78125 152.675781 123.109375 L 152.894531 123.609375 L 153.402344 123.75 L 153.546875 123.820312 L 151.078125 134.46875 L 150.496094 134.824219 C 150.445312 136.90625 149.769531 140.175781 148.460938 144.625 C 147.832031 146.847656 147.371094 148.789062 147.078125 150.445312 L 146.789062 150.445312 C 145.820312 153.996094 145.335938 157.59375 145.335938 161.238281 L 145.335938 166.347656 L 144.824219 169.96875 L 144.390625 170.039062 L 144.390625 174.230469 C 144.390625 179.292969 144.511719 182.679688 144.753906 184.382812 C 145.335938 188.121094 146.667969 191.578125 148.75 194.746094 C 150.59375 197.492188 154.082031 200.804688 159.21875 204.6875 C 161.058594 206.058594 164.039062 207.691406 168.160156 209.585938 L 167.578125 217.964844 L 167.722656 226.199219 L 155.292969 225.207031 L 155.292969 225.136719 L 154.492188 224.992188 L 153.113281 225.0625 L 134.578125 224.355469 C 135.789062 223.929688 133.535156 223.644531 127.816406 223.503906 L 127.816406 208.804688 C 127.234375 207.007812 126.945312 204.925781 126.945312 202.558594 L 128.253906 167.839844 L 128.253906 167.625 C 128.253906 157.875 128.566406 149.640625 129.199219 142.917969 L 130.652344 130.566406 L 131.160156 129.289062 M 127.816406 129.429688 L 127.234375 131.417969 C 126.847656 134.542969 126.53125 139.179688 126.289062 145.332031 L 126.289062 159.179688 C 125.125 164.859375 124.546875 169.519531 124.546875 173.164062 L 123.746094 197.660156 L 123.527344 210.226562 C 123.527344 216.332031 123.769531 220.757812 124.253906 223.503906 L 116.984375 223.429688 L 107.101562 223.644531 L 87.546875 225.207031 L 86.601562 222.222656 L 86.601562 221.515625 L 86.457031 221.089844 L 82.894531 210.011719 L 82.457031 205.609375 L 83.546875 205.609375 L 85 205.328125 L 85 205.398438 L 92.996094 203.054688 C 98.132812 201.160156 101.597656 199.292969 103.390625 197.445312 L 108.625 192.332031 L 110.007812 189.992188 L 112.40625 187.292969 C 113.230469 185.210938 113.933594 181.875 114.515625 177.28125 C 115.09375 172.691406 115.824219 169.285156 116.695312 167.058594 C 118.003906 163.601562 118.65625 160.3125 118.65625 157.191406 L 118.65625 146.964844 L 119.09375 136.8125 C 119.09375 133.878906 119.335938 131.84375 119.820312 130.707031 C 120.257812 129.570312 120.476562 128.199219 120.476562 126.589844 L 120.328125 123.890625 L 123.019531 126.730469 C 124.957031 128.578125 126.484375 129.5 127.597656 129.5 L 127.816406 129.429688 M 95.976562 179.484375 L 97.503906 178.417969 L 97.433594 179.484375 L 97.503906 182.324219 L 97.503906 185.09375 L 97.070312 186.15625 L 97.070312 183.8125 C 96.875 183.578125 96.777344 182.703125 96.777344 181.1875 C 96.777344 180.289062 96.511719 179.71875 95.976562 179.484375 "/>
<path style=" stroke:none;fill-rule:evenodd;fill:rgb(80.000001%,80.000001%,80.000001%);fill-opacity:1;" d="M 131.960938 120.769531 L 129.777344 129.144531 C 129.101562 131.703125 128.589844 135.75 128.253906 141.285156 L 127.816406 153.425781 L 127.160156 165.636719 L 127.453125 167.625 C 126.871094 169.804688 126.582031 172.476562 126.582031 175.648438 L 126.726562 184.523438 L 125.707031 202.558594 C 125.707031 206.15625 126.046875 209.703125 126.726562 213.207031 C 126.726562 218.699219 126.871094 222.128906 127.160156 223.503906 L 125.199219 223.503906 L 125.199219 213.277344 L 124.761719 210.226562 L 125.199219 206.886719 L 125.925781 181.96875 L 126.582031 166.5625 L 127.597656 150.65625 L 128.035156 134.894531 C 129.683594 128.175781 130.675781 123.441406 131.015625 120.695312 L 131.304688 120.769531 L 131.960938 120.769531 M 159.871094 175.578125 L 160.527344 175.011719 L 160.453125 174.796875 C 163.363281 175.175781 164.574219 177.613281 164.089844 182.109375 L 164.160156 185.234375 L 163.652344 189.566406 L 162.925781 189.492188 L 162.925781 189.28125 L 163.578125 181.898438 C 163.773438 177.96875 162.539062 175.863281 159.871094 175.578125 "/>
<path style=" stroke:none;fill-rule:evenodd;fill:rgb(40.000001%,0%,0%);fill-opacity:1;" d="M 163.871094 138.800781 L 163.796875 138.941406 L 163.796875 138.871094 L 163.871094 138.800781 M 95.46875 185.09375 C 95.566406 185.753906 95.734375 186.300781 95.976562 186.726562 L 94.453125 187.363281 L 94.234375 187.152344 L 95.46875 185.09375 "/>
<path style=" stroke:none;fill-rule:evenodd;fill:rgb(60.000002%,60.000002%,60.000002%);fill-opacity:1;" d="M 160.453125 174.796875 L 160.527344 175.011719 L 159.871094 175.578125 L 159.507812 175.71875 L 159.21875 175.507812 C 158.925781 175.601562 158.734375 175.71875 158.636719 175.863281 L 158.347656 175.578125 C 157.085938 175.863281 156.214844 176.832031 155.730469 178.488281 C 155.4375 179.53125 155.292969 180.621094 155.292969 181.753906 L 153.839844 188.714844 L 153.984375 189.28125 L 153.332031 189.28125 L 153.332031 188.570312 L 152.894531 184.808594 L 154.347656 176.359375 C 155.074219 175.460938 156.382812 174.9375 158.273438 174.796875 L 158.273438 174.726562 L 158.78125 174.867188 C 159.121094 174.867188 159.265625 174.796875 159.21875 174.65625 L 159.363281 174.511719 L 159.871094 174.65625 L 160.382812 174.65625 L 160.453125 174.796875 "/>
<path style=" stroke:none;fill-rule:evenodd;fill:rgb(100%,60.000002%,0%);fill-opacity:1;" d="M 163.796875 138.941406 C 168.351562 144.195312 171.1875 147.15625 172.300781 147.816406 L 170.414062 150.445312 C 169.347656 152.054688 168.546875 154.183594 168.015625 156.835938 L 166.851562 163.652344 L 165.105469 177.566406 C 164.429688 175.058594 162.851562 173.707031 160.382812 173.519531 L 160.089844 173.234375 L 159.292969 173.449219 L 159.21875 173.378906 L 159.074219 173.449219 L 159 173.378906 L 158.855469 173.519531 C 157.109375 173.566406 155.707031 173.992188 154.640625 174.796875 L 155.148438 171.246094 C 155.050781 168.265625 155.097656 166.015625 155.292969 164.503906 L 157.472656 157.6875 C 159.605469 149.6875 160.914062 145.191406 161.398438 144.195312 L 163.796875 138.941406 M 159.074219 177 L 159.507812 177 L 159.582031 176.925781 L 159.726562 176.855469 C 161.472656 177.09375 162.320312 178.773438 162.269531 181.898438 C 162.269531 183.410156 161.980469 185.070312 161.398438 186.867188 C 161.398438 187.8125 161.519531 188.664062 161.761719 189.421875 L 157.621094 189.210938 L 155.148438 189.210938 C 155.730469 181.636719 156.917969 177.519531 158.710938 176.855469 L 159 177 L 159.074219 177 M 99.902344 129.289062 L 105.429688 127.65625 C 100 138.019531 97.285156 145.832031 97.285156 151.085938 C 97.285156 152.742188 97.40625 154.066406 97.648438 155.058594 L 91.179688 155.273438 L 91.179688 152.503906 C 90.597656 149.757812 90.769531 146.183594 91.6875 141.785156 C 92.753906 136.90625 93.335938 133.5 93.433594 131.558594 C 95.664062 130.660156 97.820312 129.902344 99.902344 129.289062 "/>
<path style=" stroke:none;fill-rule:evenodd;fill:rgb(100%,40.000001%,0%);fill-opacity:1;" d="M 163.871094 138.800781 L 163.941406 138.515625 L 164.378906 137.382812 C 165.589844 135.15625 167.3125 133.191406 169.539062 131.488281 L 176.226562 136.316406 L 178.410156 138.800781 L 172.957031 146.824219 L 173.394531 147.25 C 173.394531 147.675781 173.125 147.890625 172.59375 147.890625 L 172.300781 147.816406 C 171.1875 147.15625 168.351562 144.195312 163.796875 138.941406 L 163.871094 138.800781 "/>
</g>
</svg>
