<?xml version="1.0" encoding="UTF-8"?>
<svg xmlns="http://www.w3.org/2000/svg" xmlns:xlink="http://www.w3.org/1999/xlink" width="355px" height="648px" viewBox="0 0 355 648" version="1.1">
<g id="surface1">
<path style=" stroke:none;fill-rule:evenodd;fill:rgb(0%,0%,0%);fill-opacity:1;" d="M 101.210938 83.28125 L 101.210938 83.847656 C 101.308594 83.46875 101.476562 83.28125 101.71875 83.28125 C 102.300781 83.28125 102.519531 84.132812 102.375 85.835938 L 102.300781 87.1875 L 102.230469 87.753906 L 102.300781 87.753906 L 102.449219 87.894531 L 103.828125 87.964844 L 104.335938 88.039062 L 104.992188 88.179688 L 105.28125 88.25 L 105.355469 88.25 L 105.355469 88.179688 L 106.445312 88.320312 L 106.445312 88.675781 L 107.246094 88.960938 L 138.9375 89.953125 L 154.277344 89.953125 L 163.144531 89.742188 L 163.144531 89.601562 L 164.234375 89.527344 L 164.160156 89.742188 L 165.25 89.527344 L 165.179688 89.316406 L 166.488281 89.101562 L 166.414062 88.960938 L 166.414062 88.109375 C 166.414062 87.113281 166.65625 86.003906 167.140625 84.773438 C 167.964844 82.785156 169.152344 81.789062 170.703125 81.789062 L 171.210938 81.859375 L 171.359375 81.859375 L 174.554688 82.003906 L 181.753906 82.214844 L 183.132812 82.5 L 184.296875 82.710938 L 184.660156 82.785156 L 184.660156 82.925781 L 184.949219 83.066406 L 184.734375 83.28125 L 184.734375 83.566406 C 183.570312 89.433594 182.914062 93.246094 182.769531 94.996094 C 182.964844 100.011719 182.671875 103.800781 181.898438 106.355469 L 180.878906 110.828125 L 180.953125 111.042969 L 180.734375 111.46875 L 179.644531 117.574219 C 178.867188 122.164062 177.875 125.808594 176.664062 128.507812 C 181.027344 130.496094 187.253906 134.992188 195.34375 141.996094 L 205.160156 149.59375 C 208.597656 152.339844 210.804688 154.703125 211.773438 156.691406 L 213.589844 158.75 L 215.335938 161.589844 L 215.480469 166.84375 C 215.335938 169.070312 215.578125 172.527344 216.207031 177.210938 L 217.441406 198.085938 L 217.441406 225.988281 C 217.929688 228.164062 218.097656 231.570312 217.953125 236.210938 C 218.242188 240.945312 218.945312 244.492188 220.058594 246.859375 L 229.074219 268.160156 C 231.546875 274.265625 234.695312 281.367188 238.523438 289.460938 L 248.191406 310.617188 L 248.046875 310.757812 L 249.0625 313.457031 L 251.460938 320.273438 C 252.140625 322.828125 252.429688 324.699219 252.335938 325.882812 L 252.769531 328.4375 L 252.914062 328.722656 L 252.84375 328.863281 L 253.644531 331.277344 L 253.425781 331.347656 C 254.199219 332.578125 255.121094 335.109375 256.1875 338.945312 C 256.671875 340.839844 256.914062 343.679688 256.914062 347.464844 L 256.695312 353.640625 C 256.257812 356.007812 255.144531 357.285156 253.351562 357.476562 C 241.578125 360.550781 229.144531 362.089844 216.0625 362.089844 L 209.15625 361.949219 L 208.792969 361.734375 L 208.355469 361.027344 L 207.992188 359.675781 L 207.992188 346.1875 C 207.265625 345.714844 206.613281 345.050781 206.03125 344.199219 L 205.667969 344.058594 L 205.886719 343.984375 L 204.867188 341.925781 C 204.140625 340.175781 203.632812 338.542969 203.339844 337.027344 C 202.421875 333.335938 201.765625 330.496094 201.378906 328.507812 L 201.234375 328.507812 L 200.796875 328.4375 L 200.871094 327.726562 L 193.238281 308.699219 C 190.039062 301.503906 188.171875 295.210938 187.640625 289.8125 C 187.011719 283.757812 185.433594 277.507812 182.914062 271.070312 L 184.078125 276.820312 C 184.855469 278.90625 185.554688 281.746094 186.1875 285.339844 L 190.183594 302.382812 L 190.039062 305.859375 L 189.457031 307.066406 L 188.730469 310.757812 C 188.730469 311.421875 189.773438 312.605469 191.855469 314.308594 C 193.890625 316.058594 194.910156 317.386719 194.910156 318.285156 C 194.910156 321.457031 193.988281 323.515625 192.148438 324.460938 L 186.621094 325.171875 L 173.03125 324.53125 L 155.582031 326.09375 L 136.101562 327.65625 L 126.433594 327.015625 C 125.5625 326.542969 124.882812 326.308594 124.398438 326.308594 L 114.515625 325.953125 C 114.707031 325.808594 114.222656 325.621094 113.058594 325.382812 L 103.757812 322.6875 C 101.816406 321.976562 99.855469 321.621094 97.867188 321.621094 L 83.910156 320.484375 L 80.566406 319.847656 L 76.714844 319.632812 L 72.789062 319.207031 C 72.113281 319.019531 71.773438 318.378906 71.773438 317.289062 C 71.773438 315.871094 71.964844 314.949219 72.355469 314.523438 C 72.742188 314.144531 74.511719 313.101562 77.660156 311.398438 C 76.398438 309.125 75.769531 307.304688 75.769531 305.929688 C 75.769531 305.03125 75.867188 304.394531 76.0625 304.015625 L 75.914062 303.089844 C 75.914062 302.476562 77.078125 298.191406 79.40625 290.242188 L 80.203125 282.785156 C 80.351562 280.417969 80.714844 278.832031 81.292969 278.027344 L 81.222656 277.886719 C 81.222656 276.84375 81.707031 275.261719 82.675781 273.128906 L 82.75 271.355469 L 82.3125 270.929688 C 82.3125 270.644531 82.457031 270.335938 82.75 270.007812 L 82.820312 258.929688 C 82.820312 250.648438 82.046875 242.933594 80.496094 235.785156 C 78.3125 225.609375 76.859375 218.367188 76.132812 214.058594 L 75.550781 215.265625 L 75.550781 215.480469 L 75.40625 215.550781 C 73.46875 219.195312 68.816406 225.890625 61.449219 235.644531 C 58.589844 239.761719 54.421875 243.476562 48.949219 246.789062 C 44.972656 249.0625 41.679688 250.199219 39.0625 250.199219 C 31.988281 253.085938 26.996094 254.527344 24.085938 254.527344 C 19 254.527344 14.613281 251.238281 10.929688 244.660156 C 7.152344 240.070312 5.261719 236.589844 5.261719 234.222656 C 5.261719 231.855469 5.746094 229.632812 6.714844 227.550781 L 10.347656 219.953125 C 13.839844 211.527344 15.921875 206.792969 16.601562 205.753906 L 16.746094 205.964844 L 20.890625 200.285156 L 27.429688 192.121094 L 30.703125 188.214844 L 34.84375 184.738281 L 41.605469 177 C 51.441406 163.601562 59.246094 153.617188 65.011719 147.039062 C 65.253906 144.90625 68.089844 142.492188 73.515625 139.796875 C 76.328125 138.328125 79.960938 135.890625 84.421875 132.484375 C 87.039062 131.15625 91.882812 129.167969 98.957031 126.519531 L 108.40625 122.753906 L 107.898438 121.976562 C 107.511719 121.21875 107.292969 120.671875 107.246094 120.34375 L 105.574219 116.578125 L 100.628906 104.367188 L 96.921875 96.203125 C 95.613281 92.890625 95.152344 90.050781 95.542969 87.683594 L 95.542969 85.269531 L 95.976562 85.199219 L 96.269531 85.269531 L 98.304688 84.132812 L 101.210938 83.28125 M 99.105469 84.84375 L 97.578125 85.625 L 100.992188 87.113281 L 100.992188 85.90625 L 101.140625 84.273438 L 99.105469 84.84375 M 111.023438 90.308594 L 110.878906 89.8125 L 110.589844 90.308594 L 107.390625 89.8125 L 106.007812 89.601562 L 105.863281 89.601562 C 102.617188 89.078125 100.800781 88.699219 100.414062 88.464844 L 100.339844 88.394531 C 99.757812 88.25 99.078125 88.039062 98.304688 87.753906 C 97.625 87.515625 97.09375 87.234375 96.703125 86.902344 C 97.191406 88.699219 97.433594 91.089844 97.433594 94.074219 L 98.449219 96.984375 L 106.882812 98.828125 L 113.132812 100.105469 L 113.277344 100.460938 L 113.714844 100.25 L 113.714844 100.179688 L 117.566406 100.746094 L 127.671875 100.746094 L 124.980469 91.089844 L 124.980469 90.59375 L 111.96875 90.308594 L 111.023438 90.308594 M 127.816406 90.664062 L 126.144531 90.664062 C 126.628906 91.375 126.96875 93.007812 127.160156 95.5625 C 127.210938 96.605469 127.621094 98.332031 128.398438 100.746094 L 129.996094 100.746094 C 129.511719 99.941406 129.050781 98.472656 128.617188 96.34375 L 127.742188 91.089844 L 127.816406 90.664062 M 128.46875 90.664062 L 129.488281 95.5625 L 130.070312 98.332031 C 130.117188 99.136719 130.335938 99.679688 130.722656 99.964844 L 131.304688 100.746094 L 132.832031 100.746094 L 132.46875 99.113281 C 131.839844 97.929688 131.476562 97.054688 131.378906 96.488281 C 130.652344 93.550781 130.289062 91.800781 130.289062 91.234375 L 130.359375 90.734375 L 128.46875 90.664062 M 165.832031 90.238281 L 163.871094 90.523438 L 163.652344 90.523438 L 158.636719 90.664062 L 158.128906 90.664062 L 149.476562 90.878906 L 130.941406 90.734375 C 132.542969 95.847656 133.460938 99.183594 133.703125 100.746094 L 145.117188 100.886719 L 145.117188 100.816406 L 163.214844 100.105469 L 167.722656 99.964844 L 171.210938 99.253906 L 173.394531 98.757812 L 173.246094 98.402344 L 173.394531 98.332031 L 178.625 97.265625 C 179.597656 97.21875 180.660156 96.746094 181.824219 95.847656 L 181.824219 95.351562 L 183.640625 84.488281 L 183.640625 84.347656 L 183.570312 84.417969 L 181.535156 85.554688 C 180.855469 86.453125 178.382812 87.421875 174.121094 88.464844 L 166.777344 89.882812 L 165.832031 90.238281 M 167.867188 88.890625 L 168.886719 88.675781 L 173.828125 87.539062 L 178.046875 86.332031 L 181.171875 84.488281 L 181.390625 84.558594 L 182.042969 83.917969 L 182.988281 83.210938 L 174.121094 82.925781 L 171.210938 82.925781 L 170.777344 83.210938 L 170.121094 85.054688 C 169.539062 86.144531 168.933594 86.6875 168.304688 86.6875 L 167.867188 88.890625 M 222.894531 338.589844 L 229.875 336.390625 C 232.296875 335.726562 239.613281 333.097656 251.824219 328.507812 C 251.535156 327.46875 251.414062 326.566406 251.460938 325.808594 L 250.589844 320.910156 L 246.882812 311.042969 L 246.882812 309.621094 C 244.410156 304.699219 238.523438 291.851562 229.21875 271.070312 L 220.570312 250.976562 C 218.726562 247.097656 217.613281 243.570312 217.226562 240.398438 C 217.03125 239.027344 216.933594 235.902344 216.933594 231.027344 L 216.644531 228.1875 L 216.714844 226.839844 L 216.570312 226.769531 L 216.570312 198.511719 C 216.136719 194.582031 215.699219 187.578125 215.261719 177.496094 C 214.777344 172.714844 214.535156 169.210938 214.535156 166.988281 L 214.171875 161.804688 C 212.71875 159.863281 211.675781 158.253906 211.046875 156.976562 C 207.652344 153 205.402344 150.609375 204.285156 149.804688 C 199.828125 146.304688 196.410156 143.722656 194.035156 142.066406 L 183.714844 134.328125 C 179.449219 131.25 175.308594 128.980469 171.285156 127.511719 L 172.230469 127.300781 C 173.246094 127.300781 174.460938 127.605469 175.863281 128.222656 L 177.683594 122.683594 L 178.261719 119.914062 L 178.773438 119.277344 L 178.480469 118.921875 L 178.480469 118.851562 L 178.773438 117.21875 L 179.644531 112.25 L 178.699219 112.816406 C 177.101562 113.714844 175.695312 114.308594 174.484375 114.589844 C 173.464844 115.347656 171.648438 115.726562 169.03125 115.726562 L 164.234375 116.367188 L 162.925781 116.082031 L 162.269531 116.152344 L 162.269531 116.4375 L 161.542969 116.011719 C 161.542969 115.585938 163.023438 115.253906 165.980469 115.015625 L 173.464844 114.023438 L 177.898438 112.320312 C 178.820312 111.515625 179.5 110.992188 179.933594 110.757812 L 180.953125 106.285156 C 181.484375 104.152344 181.777344 101.078125 181.824219 97.054688 L 179.136719 97.90625 L 177.972656 98.191406 C 177.488281 98.710938 175.644531 99.300781 172.449219 99.964844 L 163.433594 101.101562 L 162.925781 100.960938 L 162.707031 101.171875 L 155.65625 101.3125 L 146.496094 101.171875 L 146.496094 101.242188 L 146.570312 101.597656 L 133.847656 101.527344 C 134.867188 103.609375 135.398438 106.214844 135.449219 109.335938 L 135.304688 117.574219 C 135.351562 122.023438 135.59375 127.417969 136.03125 133.761719 L 135.8125 137.949219 L 133.558594 142.992188 C 133.121094 143.84375 132.734375 145.308594 132.394531 147.390625 L 131.742188 150.730469 L 131.886719 151.15625 C 131.886719 152.386719 129.828125 163.011719 125.707031 183.03125 C 125.367188 185.683594 125.246094 190.9375 125.34375 198.792969 C 125.394531 204.757812 125.03125 209.679688 124.253906 213.5625 L 124.398438 213.773438 L 123.601562 215.90625 C 123.066406 216.945312 122.800781 217.847656 122.800781 218.601562 L 122.800781 227.335938 L 140.390625 220.589844 L 163.652344 211.363281 L 164.308594 211.789062 L 164.816406 210.933594 L 169.757812 208.949219 C 169.855469 208.949219 169.976562 209.019531 170.121094 209.160156 L 170.195312 209.375 L 170.121094 209.515625 L 169.832031 209.445312 L 168.957031 210.15625 L 157.109375 214.839844 L 141.480469 221.160156 L 122.800781 228.1875 L 122.800781 233.441406 L 122.511719 233.441406 L 122.4375 233.867188 L 122.800781 234.011719 L 122.945312 248.847656 C 123.089844 250.363281 123.695312 253.0625 124.761719 256.941406 L 125.125 263.546875 C 125.707031 265.105469 126.070312 269.578125 126.21875 276.964844 L 126.21875 291.019531 L 126.144531 309.695312 L 151.367188 309.976562 L 153.546875 310.050781 L 155.292969 310.402344 L 156.601562 310.261719 L 159.945312 310.402344 L 172.449219 309.90625 L 185.96875 307.421875 C 188.199219 306.996094 189.3125 305.339844 189.3125 302.453125 L 182.699219 274.90625 L 182.1875 275.261719 C 181.605469 275.261719 180.324219 274.3125 178.335938 272.417969 L 173.464844 267.875 C 171.671875 266.457031 169.226562 265.558594 166.125 265.179688 L 152.605469 263.617188 L 152.605469 262.90625 L 152.820312 262.90625 L 161.617188 263.546875 L 161.980469 263.898438 L 162.5625 263.6875 L 168.523438 264.46875 C 170.171875 264.65625 172.253906 265.746094 174.773438 267.734375 C 177.003906 269.390625 179.621094 271.6875 182.625 274.621094 C 181.898438 271.402344 181.535156 269.554688 181.535156 269.082031 L 181.824219 268.371094 L 181.316406 267.164062 C 178.167969 259.972656 176.589844 254.90625 176.589844 251.972656 C 175.960938 250.316406 175.550781 247.050781 175.355469 242.175781 L 175.792969 213.207031 L 176.445312 204.476562 L 176.445312 200.78125 C 176.300781 200.167969 176.226562 199.316406 176.226562 198.226562 C 176.617188 196.710938 176.808594 194.914062 176.808594 192.832031 L 176.953125 190.203125 L 177.683594 188.429688 L 177.609375 188.074219 L 177.316406 188.074219 L 177.609375 187.433594 L 178.046875 188.214844 C 178.046875 190.0625 177.851562 191.957031 177.464844 193.894531 L 177.171875 197.019531 L 177.609375 195.601562 L 178.046875 196.878906 L 177.828125 198.792969 C 179.039062 198.132812 181.269531 197.210938 184.515625 196.027344 L 192.292969 193.328125 L 192.65625 193.539062 L 192.730469 193.753906 C 192.730469 194.132812 187.6875 196.261719 177.609375 200.144531 L 177.316406 201.28125 L 177.171875 205.539062 C 176.832031 206.914062 176.640625 208.949219 176.589844 211.644531 L 176.519531 212 L 176.589844 212.425781 L 176.589844 214.058594 C 176.347656 215.859375 176.226562 221.515625 176.226562 231.027344 L 176.226562 241.960938 C 176.226562 246.078125 176.882812 249.769531 178.191406 253.039062 L 177.828125 253.25 L 178.335938 255.878906 C 178.722656 258.054688 179.160156 259.664062 179.644531 260.707031 L 183.351562 270.148438 C 185.726562 274.359375 187.421875 280.703125 188.441406 289.175781 C 189.070312 294.382812 190.886719 300.75 193.890625 308.273438 L 201.816406 327.300781 L 201.816406 328.296875 L 204.066406 336.460938 C 204.941406 339.726562 205.789062 342.164062 206.613281 343.773438 L 221.296875 339.085938 L 222.09375 339.511719 C 222.53125 339.511719 222.796875 339.207031 222.894531 338.589844 M 155.367188 118.355469 C 155.460938 118.683594 155.800781 118.851562 156.382812 118.851562 L 157.109375 118.355469 L 164.671875 118.28125 L 164.886719 118.28125 L 166.050781 118.140625 L 166.050781 118.496094 L 166.488281 118.851562 C 164.257812 119.085938 158.5625 119.160156 149.40625 119.0625 L 148.75 118.78125 L 148.386719 119.0625 L 148.242188 119.0625 L 148.242188 118.851562 L 148.316406 118.425781 L 155.367188 118.355469 M 154.710938 132.199219 L 155.292969 132.339844 L 155.875 132.128906 L 162.34375 131.347656 C 165.492188 130.777344 167.941406 129.878906 169.6875 128.648438 L 169.6875 129.144531 L 170.050781 129.5 L 167.070312 130.707031 L 162.707031 132.054688 L 150.714844 133.617188 L 149.914062 133.335938 L 149.769531 133.476562 L 148.605469 133.191406 L 148.679688 132.765625 L 154.710938 132.199219 M 196.800781 257.367188 L 197.453125 257.511719 L 197.890625 257.367188 L 198.035156 256.941406 L 198.398438 256.375 L 203.632812 252.753906 C 206.394531 250.480469 210.464844 247.640625 215.84375 244.234375 L 216.425781 244.304688 L 216.570312 244.589844 L 216.28125 244.945312 L 216.136719 244.800781 L 215.769531 245.296875 L 204.359375 253.320312 L 198.398438 257.652344 C 196.265625 259.070312 193.941406 260.253906 191.421875 261.203125 L 190.839844 260.777344 L 190.402344 260.988281 L 190.691406 261.484375 L 190.113281 261.628906 L 189.675781 261.203125 C 189.675781 260.824219 190.8125 260.113281 193.09375 259.070312 L 196.800781 257.367188 M 197.089844 299.683594 L 197.234375 299.613281 L 197.164062 299.753906 L 197.089844 299.683594 M 197.453125 299.042969 L 196.800781 298.121094 C 196.945312 295.753906 197.648438 292.535156 198.90625 288.464844 C 200.023438 284.394531 201.355469 280.84375 202.90625 277.816406 L 208.210938 267.023438 L 210.390625 261.558594 C 211.070312 260.042969 211.96875 258.8125 213.082031 257.863281 C 213.664062 257.390625 214.21875 257.132812 214.753906 257.085938 L 214.464844 256.730469 L 214.535156 256.660156 L 214.972656 256.730469 L 215.117188 257.011719 L 211.335938 262.550781 L 208.792969 267.875 L 203.632812 278.527344 C 202.226562 281.082031 201.015625 284.65625 199.996094 289.246094 L 199.851562 290.027344 L 199.78125 290.3125 L 199.78125 290.523438 L 197.453125 299.042969 M 252.042969 329.289062 L 242.882812 333.050781 L 233 336.886719 C 230.769531 337.40625 226.09375 338.921875 218.96875 341.429688 C 213.300781 343.417969 209.300781 344.4375 206.976562 344.484375 L 208.210938 345.832031 L 208.355469 345.761719 L 208.503906 345.902344 L 208.648438 345.902344 C 212.425781 345.902344 216.886719 344.863281 222.023438 342.777344 L 232.34375 338.164062 C 234.28125 337.40625 237.746094 336.199219 242.738281 334.542969 L 251.972656 331.207031 L 251.972656 330.566406 L 252.40625 330.496094 L 252.042969 329.289062 M 220.640625 361.027344 L 222.605469 361.167969 C 227.839844 361.167969 237.675781 359.675781 252.117188 356.695312 C 254.683594 356.550781 255.96875 353.453125 255.96875 347.394531 C 255.96875 343.84375 255.800781 341.265625 255.460938 339.65625 C 255.023438 337.429688 253.957031 334.804688 252.261719 331.773438 L 236.199219 337.667969 L 236.125 337.667969 L 235.542969 337.878906 L 232.34375 339.085938 C 221.488281 344.246094 214.21875 346.824219 210.539062 346.824219 L 208.648438 346.472656 C 208.839844 347.558594 208.9375 349.925781 208.9375 353.570312 L 208.9375 359.390625 C 208.9375 359.769531 212.378906 360.269531 219.261719 360.882812 L 219.625 361.238281 L 220.640625 361.027344 M 213.300781 162.796875 L 208.429688 164.574219 C 207.363281 165 206.273438 165.636719 205.160156 166.492188 L 199.925781 170.183594 L 199.488281 169.757812 C 199.488281 169.425781 201.089844 168.171875 204.285156 165.992188 C 207.777344 163.628906 210.390625 162.445312 212.136719 162.445312 C 212.71875 162.445312 213.105469 162.5625 213.300781 162.796875 M 170.414062 128.507812 L 169.832031 128.578125 L 170.050781 128.363281 L 170.703125 128.4375 L 170.703125 128.507812 L 170.414062 128.507812 M 133.050781 101.527344 L 131.378906 101.527344 C 132.347656 103.894531 132.929688 107.46875 133.121094 112.25 L 133.847656 118.210938 L 133.847656 123.960938 C 133.847656 130.589844 133.679688 134.589844 133.339844 135.960938 C 131.691406 142.398438 130.554688 147.25 129.925781 150.515625 L 130.070312 151.511719 L 125.78125 169.332031 C 124.519531 176.667969 123.769531 182.582031 123.527344 187.082031 L 123.601562 195.882812 C 123.792969 199.671875 123.746094 202.628906 123.453125 204.757812 C 123.019531 208.167969 122.023438 213.277344 120.476562 220.09375 L 120.621094 221.015625 L 120.257812 228.328125 L 121.855469 227.691406 C 121.808594 225.609375 121.832031 223.929688 121.929688 222.648438 L 121.78125 217.75 C 121.832031 216.425781 122.21875 215.289062 122.945312 214.34375 C 123.914062 210.367188 124.425781 207.765625 124.472656 206.535156 L 124.472656 198.511719 C 124.472656 189.566406 124.59375 184.214844 124.835938 182.464844 C 124.933594 180.621094 125.949219 175.246094 127.890625 166.347656 L 129.5625 158.324219 C 129.949219 155.15625 130.359375 152.929688 130.796875 151.652344 L 130.652344 151.511719 C 130.652344 150.800781 130.917969 149.214844 131.449219 146.753906 C 131.984375 144.386719 132.371094 142.992188 132.613281 142.5625 L 134.941406 137.59375 L 135.15625 133.761719 C 134.722656 127.703125 134.480469 122.425781 134.429688 117.929688 L 134.285156 110.046875 C 133.65625 106.59375 133.339844 103.988281 133.339844 102.238281 L 133.414062 101.8125 L 133.269531 101.882812 L 133.050781 101.527344 M 79.695312 227.195312 L 81.003906 234.863281 L 83.402344 248.066406 C 83.597656 249.769531 83.695312 253.414062 83.695312 259 L 83.695312 268.941406 L 86.238281 266.882812 C 86.914062 265.984375 87.617188 265.25 88.34375 264.679688 L 89.800781 263.472656 L 90.453125 262.976562 L 90.597656 262.765625 L 95.6875 262.691406 L 101.066406 262.90625 L 101.503906 263.261719 L 101.066406 263.757812 L 91.179688 263.617188 C 90.597656 263.617188 90.066406 264.019531 89.582031 264.824219 L 87.546875 267.238281 L 83.621094 270.714844 L 82.238281 278.101562 C 82.191406 279.519531 81.753906 281.554688 80.929688 284.207031 C 80.6875 285.4375 80.496094 287.519531 80.351562 290.453125 L 76.789062 302.949219 C 76.789062 305.695312 80.277344 307.304688 87.253906 307.777344 L 95.976562 308.414062 L 95.976562 308.34375 L 98.304688 308.34375 L 100.777344 308.84375 L 110.152344 309.480469 L 120.839844 309.695312 C 120.691406 308.367188 120.621094 306.121094 120.621094 302.949219 L 120.839844 295.210938 C 119.722656 282.761719 119.167969 274.550781 119.167969 270.574219 L 119.238281 268.65625 L 119.601562 268.585938 L 119.675781 268.65625 C 119.480469 267.566406 119.433594 265.960938 119.53125 263.828125 L 119.53125 257.296875 C 117.832031 252.988281 116.984375 248.707031 116.984375 244.445312 L 117.421875 230.105469 L 115.96875 230.53125 L 115.53125 230.105469 L 117.421875 229.394531 L 117.566406 215.835938 L 117.640625 214.34375 L 117.710938 214.34375 L 117.710938 213.847656 C 119.117188 209.539062 119.917969 204.191406 120.109375 197.800781 L 120.257812 181.753906 C 120.449219 177.351562 121.371094 172.027344 123.019531 165.78125 L 127.160156 150.019531 L 127.160156 149.878906 C 127.160156 149.355469 127.890625 145.78125 129.34375 139.15625 C 130.796875 132.484375 131.523438 127.0625 131.523438 122.898438 C 131.523438 118.164062 131.355469 114.96875 131.015625 113.3125 L 127.378906 101.742188 L 127.378906 101.527344 L 116.476562 101.527344 L 116.113281 101.386719 L 113.933594 101.171875 L 112.261719 100.675781 L 106.445312 99.679688 L 98.886719 97.976562 L 101.140625 102.804688 L 104.847656 110.613281 L 107.171875 116.296875 L 107.316406 116.578125 L 108.261719 120.554688 L 108.261719 120.625 L 108.699219 121.335938 L 109.28125 122.402344 L 112.40625 120.910156 L 112.84375 120.980469 L 112.988281 121.335938 C 112.988281 121.902344 111 122.992188 107.027344 124.601562 L 106.519531 124.460938 L 106.445312 124.816406 L 99.394531 127.441406 C 92.996094 129.808594 88.417969 131.679688 85.65625 133.050781 C 81.003906 136.554688 77.25 138.992188 74.390625 140.363281 C 71.675781 141.640625 69.226562 143.488281 67.046875 145.902344 L 66.539062 145.902344 L 66.464844 146.328125 L 66.683594 146.398438 L 65.59375 147.675781 L 65.449219 147.605469 L 60.578125 153.996094 C 60.042969 154.136719 59.777344 154.253906 59.777344 154.351562 L 60.289062 154.492188 L 54.179688 162.300781 L 52.65625 164.289062 C 52.316406 164.335938 52.144531 164.457031 52.144531 164.644531 L 52.292969 164.714844 L 42.1875 177.707031 L 35.425781 185.589844 L 31.066406 189.066406 L 27.867188 192.972656 L 16.601562 207.742188 L 11.222656 220.308594 L 8.023438 227.335938 C 6.761719 229.9375 6.132812 232.210938 6.132812 234.152344 C 6.132812 236.09375 8.023438 239.476562 11.804688 244.304688 C 16.550781 250.503906 20.234375 253.605469 22.851562 253.605469 L 27.578125 252.894531 L 27.941406 252.894531 L 28.375 252.753906 L 36.515625 250.410156 C 42.71875 248.46875 46.863281 246.957031 48.949219 245.867188 C 54.132812 243.027344 58.058594 239.335938 60.722656 234.789062 C 65.277344 229.632812 68.066406 225.867188 69.082031 223.503906 C 69.421875 222.648438 70.707031 220.734375 72.933594 217.75 L 74.316406 215.335938 C 73.105469 214.4375 70.851562 211.433594 67.554688 206.320312 L 63.921875 198.792969 L 63.921875 198.582031 C 63.921875 198.15625 63.753906 197.917969 63.414062 197.871094 L 62.976562 197.160156 C 61.472656 194.652344 58.640625 190.84375 54.472656 185.730469 L 49.09375 178.984375 L 44.511719 183.175781 C 42.769531 184.972656 41.144531 187.007812 39.644531 189.28125 L 30.265625 201.492188 C 25.710938 207.171875 23.019531 211.3125 22.199219 213.917969 L 19.582031 220.023438 L 17.835938 225.488281 L 17.546875 225.417969 L 17.328125 225.488281 L 17.253906 225.417969 C 17.253906 222.816406 18.878906 218.484375 22.125 212.425781 C 25.03125 206.984375 27.503906 203.148438 29.539062 200.925781 L 41.097656 186.15625 C 45.894531 179.910156 48.921875 176.785156 50.183594 176.785156 L 50.621094 176.855469 L 54.542969 172.808594 C 56.484375 170.917969 57.960938 169.636719 58.980469 168.976562 L 59.269531 169.117188 L 59.632812 168.976562 L 59.707031 168.621094 L 60.070312 168.480469 L 60.214844 168.335938 L 62.03125 168.976562 L 62.175781 168.976562 C 63.386719 169.496094 64.890625 170.441406 66.683594 171.816406 L 67.628906 172.527344 L 74.242188 163.507812 L 78.167969 159.035156 L 81.148438 154.988281 L 83.839844 154.777344 L 85.875 154.988281 L 91.035156 154.777344 C 97.042969 154.777344 100.121094 155.273438 100.265625 156.265625 L 100.414062 158.183594 L 99.832031 159.957031 C 102.542969 157.6875 104.386719 156.550781 105.355469 156.550781 C 106.277344 156.550781 106.832031 156.8125 107.027344 157.332031 L 107.027344 157.402344 L 107.101562 157.402344 L 107.101562 157.617188 L 106.808594 159.25 L 106.808594 161.875 L 107.101562 164.929688 C 107.148438 166.207031 106.882812 167.152344 106.300781 167.769531 L 99.683594 172.242188 L 99.683594 173.875 C 99.539062 175.292969 98.910156 176.714844 97.796875 178.132812 C 96.679688 179.554688 96.292969 181.257812 96.632812 183.246094 L 95.542969 185.730469 L 94.234375 186.867188 C 94.089844 186.867188 93.726562 187.054688 93.144531 187.433594 L 84.929688 187.789062 C 84.25 190.867188 82.941406 192.40625 81.003906 192.40625 L 80.714844 192.261719 L 81.148438 193.613281 L 83.402344 201.136719 L 83.328125 201.136719 L 83.621094 202.203125 L 83.695312 202.699219 L 83.695312 203.125 C 83.695312 205.113281 83.355469 206.582031 82.675781 207.527344 L 77.007812 212.355469 C 77.007812 212.78125 77.371094 213.113281 78.097656 213.347656 L 77.515625 213.847656 L 77.078125 213.847656 L 79.476562 226.269531 L 78.824219 226.769531 L 78.96875 227.195312 L 79.695312 227.195312 M 109.644531 114.519531 L 109.644531 114.378906 L 110.078125 114.308594 L 117.710938 116.082031 L 124.328125 118.070312 L 124.398438 118.210938 L 124.253906 118.636719 L 124.183594 118.425781 C 124.035156 118.28125 123.820312 118.210938 123.527344 118.210938 L 123.164062 118.496094 L 116.839844 116.863281 C 113.449219 116.390625 111.242188 115.917969 110.226562 115.441406 L 110.445312 114.945312 L 110.371094 114.734375 L 109.863281 114.519531 L 109.644531 114.519531 M 70.171875 146.113281 L 70.246094 146.113281 L 75.84375 150.445312 L 75.84375 150.585938 L 75.40625 150.515625 L 75.117188 150.65625 L 71.84375 148.671875 C 70.535156 147.816406 69.832031 147.15625 69.738281 146.683594 L 70.246094 146.257812 L 70.171875 146.113281 M 128.6875 101.527344 C 129.5625 102.898438 130.503906 106.332031 131.523438 111.820312 C 132.105469 115.324219 132.394531 118.992188 132.394531 122.828125 C 132.394531 128.082031 132.007812 132.054688 131.234375 134.753906 C 129.828125 139.675781 128.710938 144.742188 127.890625 149.949219 L 128.035156 150.445312 L 124.691406 164.359375 C 122.414062 173.589844 121.226562 179.71875 121.128906 182.75 C 120.839844 189.894531 120.839844 195.269531 121.128906 198.867188 C 121.273438 200.804688 120.402344 206.179688 118.511719 214.980469 L 118.292969 215.125 L 118.585938 220.234375 L 118.511719 228.96875 L 119.09375 228.757812 C 119.140625 226.199219 119.261719 224.1875 119.457031 222.722656 L 119.3125 222.722656 L 118.949219 222.648438 L 118.804688 221.726562 C 118.804688 219.3125 120.085938 213.347656 122.65625 203.835938 L 122.65625 186.15625 C 123.089844 179.53125 123.867188 173.589844 124.980469 168.335938 L 126.796875 159.390625 C 128.15625 155.9375 128.882812 153.261719 128.980469 151.367188 L 128.832031 150.800781 L 131.742188 137.382812 C 132.566406 135.535156 132.976562 131.0625 132.976562 123.960938 C 132.976562 119.65625 132.734375 115.84375 132.25 112.53125 L 130.503906 101.527344 L 128.6875 101.527344 M 75.042969 164.289062 L 68.355469 173.09375 L 72.28125 176.855469 L 78.167969 185.660156 L 80.496094 191.480469 C 81.609375 191.152344 82.457031 190.511719 83.039062 189.566406 C 83.523438 188.335938 83.984375 187.457031 84.421875 186.9375 C 85.679688 185.472656 86.601562 184.714844 87.183594 184.667969 L 88.34375 185.800781 C 89.410156 187.601562 91.230469 187.671875 93.796875 186.015625 L 95.105469 184.878906 C 95.589844 183.980469 95.785156 183.128906 95.6875 182.324219 L 95.6875 179.839844 C 95.6875 178.984375 96.195312 178.132812 97.214844 177.28125 C 98.085938 176.335938 98.691406 175.199219 99.03125 173.875 C 98.886719 173.683594 98.8125 173.355469 98.8125 172.878906 L 98.8125 172.808594 L 98.667969 172.878906 L 98.230469 172.808594 L 98.085938 172.453125 C 98.085938 171.601562 99.273438 170.488281 101.648438 169.117188 L 105.863281 166.492188 L 105.863281 157.472656 L 104.628906 157.472656 C 100.605469 160.882812 98.328125 162.585938 97.796875 162.585938 L 96.996094 162.371094 L 96.921875 162.371094 L 96.632812 162.300781 L 96.414062 161.875 C 98.496094 160.597656 99.539062 159.367188 99.539062 158.183594 L 99.320312 156.265625 L 96.777344 155.769531 L 86.164062 155.414062 L 82.09375 155.699219 L 81.65625 156.265625 L 80.859375 157.472656 L 78.894531 159.746094 C 77.878906 160.597656 76.59375 162.113281 75.042969 164.289062 M 72.863281 179.199219 L 71.335938 177.210938 C 66.003906 172.003906 62.152344 169.402344 59.777344 169.402344 C 58.90625 169.402344 56.070312 172.003906 51.273438 177.210938 C 55.925781 182.132812 60.503906 188.003906 65.011719 194.820312 L 65.230469 195.175781 L 65.375 195.316406 L 75.769531 212.285156 L 75.84375 212.285156 L 75.769531 211.929688 L 75.769531 210.863281 L 76.207031 210.722656 L 76.640625 211.859375 L 81.367188 207.667969 C 82.335938 206.816406 82.820312 205.328125 82.820312 203.195312 C 82.820312 201.777344 82.046875 198.769531 80.496094 194.179688 C 79.042969 189.921875 77.925781 187.152344 77.152344 185.875 L 73.664062 180.335938 L 73.808594 179.839844 C 73.808594 179.363281 73.589844 179.128906 73.152344 179.128906 L 72.863281 179.199219 M 49.746094 178.347656 C 50.765625 178.867188 52.824219 181.164062 55.925781 185.234375 C 59.414062 189.730469 62.03125 193.566406 63.777344 196.734375 L 68.574219 205.964844 C 70.511719 209.277344 72.597656 212.09375 74.824219 214.414062 L 75.335938 213.347656 L 73.589844 211.714844 L 72.5 209.445312 L 69.953125 204.757812 C 67.824219 200.640625 66.003906 197.585938 64.503906 195.601562 L 57.886719 186.371094 C 53.625 181.542969 51.175781 178.609375 50.546875 177.566406 L 49.746094 178.347656 M 19 214.058594 C 19 216.378906 18.78125 218.390625 18.34375 220.09375 L 17.761719 219.667969 C 17.761719 217.917969 17.910156 215.433594 18.199219 212.214844 L 18.5625 212.140625 C 18.855469 212.378906 19 213.019531 19 214.058594 M 118.511719 229.75 L 118.4375 232.449219 L 117.859375 244.375 C 117.859375 248.113281 118.707031 252.042969 120.402344 256.160156 C 120.839844 258.574219 120.910156 262.480469 120.621094 267.875 L 120.621094 270.148438 L 120.183594 270.289062 L 120.039062 270.078125 L 120.546875 275.117188 L 120.765625 281.863281 L 121.710938 295.140625 L 121.417969 309.695312 L 123.164062 309.695312 L 122.65625 308.0625 L 122.65625 273.839844 C 122.316406 271.710938 122.171875 268.46875 122.21875 264.113281 C 122.21875 259.710938 122.074219 256.46875 121.78125 254.386719 C 119.941406 248.234375 119.019531 241.820312 119.019531 235.144531 L 119.09375 229.535156 L 118.511719 229.75 M 121.855469 228.542969 L 120.257812 229.109375 L 119.894531 235.289062 C 119.894531 239.640625 120.863281 246.007812 122.800781 254.386719 L 123.019531 263.828125 C 123.019531 267.851562 123.1875 271.046875 123.527344 273.414062 L 123.527344 307.636719 L 123.671875 308.0625 L 123.671875 309.695312 L 125.199219 309.695312 L 125.199219 283 L 125.34375 277.53125 L 125.199219 270.359375 L 124.398438 266.242188 L 124.109375 263.332031 L 124.109375 258.363281 C 122.945312 254.480469 122.269531 251.59375 122.074219 249.699219 L 121.929688 232.449219 L 121.855469 228.542969 M 103.175781 271.78125 L 103.609375 271.851562 L 103.902344 287.96875 L 103.902344 297.554688 C 104.09375 301.101562 102.785156 304.203125 99.976562 306.855469 L 99.539062 306.355469 L 102.519531 301.742188 C 102.859375 300.890625 103.027344 299.375 103.027344 297.199219 L 103.027344 288.039062 L 102.664062 271.992188 L 103.175781 271.78125 M 122.65625 310.617188 L 121.417969 310.617188 L 121.054688 310.757812 L 120.984375 310.617188 L 112.84375 310.476562 L 107.535156 310.191406 L 96.125 308.984375 L 95.105469 308.984375 C 84.734375 308.984375 78.582031 307.707031 76.640625 305.148438 L 76.640625 305.929688 C 76.640625 307.351562 77.296875 309.171875 78.605469 311.398438 C 78.605469 311.824219 77.613281 312.558594 75.625 313.597656 C 73.636719 314.59375 72.644531 315.800781 72.644531 317.21875 C 72.644531 317.929688 73.417969 318.332031 74.96875 318.425781 L 91.835938 320.128906 L 104.699219 321.976562 L 114.003906 324.675781 C 116.621094 325.382812 118.488281 325.644531 119.601562 325.457031 C 120.910156 325.21875 122.605469 325.242188 124.691406 325.527344 C 124.0625 324.53125 123.527344 322.734375 123.089844 320.128906 L 122.4375 313.8125 L 122.4375 311.683594 L 122.65625 310.617188 M 157.765625 311.042969 L 139.957031 310.757812 L 123.964844 310.617188 L 123.308594 313.8125 C 123.308594 318.308594 124.304688 322.308594 126.289062 325.808594 L 128.035156 326.308594 L 136.175781 326.734375 L 140.902344 326.589844 C 140.902344 326.96875 141.117188 327.160156 141.554688 327.160156 L 143.808594 326.378906 L 155.511719 325.171875 L 172.957031 323.609375 L 186.550781 324.175781 C 189.265625 324.175781 191.152344 323.824219 192.21875 323.113281 C 193.429688 322.261719 194.035156 320.675781 194.035156 318.355469 C 194.035156 317.644531 193.019531 316.4375 190.984375 314.734375 C 188.898438 313.03125 187.859375 311.707031 187.859375 310.757812 L 188.585938 307.636719 L 186.621094 308.203125 L 178.554688 309.976562 L 159.945312 311.328125 L 158.417969 311.042969 L 157.910156 310.828125 L 157.765625 311.042969 M 151.949219 278.667969 L 152.167969 279.164062 C 152.75 280.726562 152.941406 282.925781 152.75 285.765625 L 153.113281 292.9375 L 153.476562 300.179688 C 153.523438 301.742188 154.347656 304.0625 155.949219 307.136719 L 155.730469 307.136719 L 155.875 307.988281 L 155.730469 308.132812 C 153.9375 306.285156 152.847656 304.015625 152.457031 301.316406 L 152.238281 294.359375 L 151.511719 280.371094 L 151.511719 278.738281 L 151.949219 278.667969 "/>
<path style=" stroke:none;fill-rule:evenodd;fill:rgb(20%,20%,20%);fill-opacity:1;" d="M 102.300781 87.1875 C 102.691406 87.46875 103.199219 87.707031 103.828125 87.894531 L 103.828125 87.964844 L 104.121094 87.964844 L 104.335938 88.039062 L 103.828125 87.964844 L 102.449219 87.894531 L 102.300781 87.753906 L 102.230469 87.753906 L 102.300781 87.1875 M 104.992188 88.179688 L 105.355469 88.179688 L 105.355469 88.25 L 105.28125 88.25 L 104.992188 88.179688 M 164.234375 89.527344 C 164.960938 89.339844 165.6875 89.007812 166.414062 88.535156 L 166.414062 88.960938 L 166.488281 89.101562 L 165.179688 89.316406 L 165.25 89.527344 L 164.160156 89.742188 L 164.234375 89.527344 M 99.105469 84.84375 L 101.140625 84.273438 L 100.992188 85.90625 L 100.992188 87.113281 L 97.578125 85.625 L 99.105469 84.84375 M 167.867188 88.890625 L 168.304688 86.6875 C 168.933594 86.6875 169.539062 86.144531 170.121094 85.054688 L 170.777344 83.210938 L 171.210938 82.925781 L 174.121094 82.925781 L 182.988281 83.210938 L 182.042969 83.917969 L 181.390625 84.558594 L 181.171875 84.488281 L 178.046875 86.332031 L 173.828125 87.539062 L 168.886719 88.675781 L 167.867188 88.890625 "/>
<path style=" stroke:none;fill-rule:evenodd;fill:rgb(60.000002%,60.000002%,60.000002%);fill-opacity:1;" d="M 113.714844 100.179688 L 113.714844 100.25 L 113.277344 100.460938 L 113.132812 100.105469 L 106.882812 98.828125 L 98.449219 96.984375 L 97.433594 94.074219 C 97.433594 91.089844 97.191406 88.699219 96.703125 86.902344 C 97.09375 87.234375 97.625 87.515625 98.304688 87.753906 C 99.078125 88.039062 99.757812 88.25 100.339844 88.394531 L 100.414062 88.464844 C 100.800781 88.699219 102.617188 89.078125 105.863281 89.601562 L 106.007812 89.601562 L 107.390625 89.8125 L 110.589844 90.308594 L 110.878906 89.8125 L 111.023438 90.308594 C 111.945312 93.8125 112.84375 96.769531 113.714844 99.183594 L 113.714844 100.179688 M 128.46875 90.664062 L 130.359375 90.734375 L 130.289062 91.234375 C 130.289062 91.800781 130.652344 93.550781 131.378906 96.488281 C 131.476562 97.054688 131.839844 97.929688 132.46875 99.113281 L 132.832031 100.746094 L 131.304688 100.746094 L 130.722656 99.964844 C 130.335938 99.679688 130.117188 99.136719 130.070312 98.332031 L 129.488281 95.5625 L 128.46875 90.664062 M 127.816406 90.664062 L 127.742188 91.089844 L 128.617188 96.34375 C 129.050781 98.472656 129.511719 99.941406 129.996094 100.746094 L 128.398438 100.746094 C 127.621094 98.332031 127.210938 96.605469 127.160156 95.5625 C 126.96875 93.007812 126.628906 91.375 126.144531 90.664062 L 127.816406 90.664062 M 163.214844 100.105469 L 163.214844 99.46875 C 162.878906 99.46875 162.660156 99.351562 162.5625 99.113281 L 162.34375 98.757812 L 162.34375 98.261719 C 162.34375 97.316406 163.144531 96.011719 164.742188 94.355469 C 164.742188 91.941406 165.15625 90.734375 165.980469 90.734375 L 165.832031 90.238281 L 166.777344 89.882812 L 174.121094 88.464844 C 178.382812 87.421875 180.855469 86.453125 181.535156 85.554688 L 183.570312 84.417969 L 183.640625 84.488281 L 181.824219 95.351562 L 181.824219 95.847656 C 180.660156 96.746094 179.597656 97.21875 178.625 97.265625 L 173.394531 98.332031 L 173.246094 98.402344 L 173.394531 98.757812 L 171.210938 99.253906 L 167.722656 99.964844 L 163.214844 100.105469 M 178.261719 119.914062 L 177.683594 122.683594 L 175.863281 128.222656 C 174.460938 127.605469 173.246094 127.300781 172.230469 127.300781 L 171.285156 127.511719 C 175.308594 128.980469 179.449219 131.25 183.714844 134.328125 L 194.035156 142.066406 C 196.410156 143.722656 199.828125 146.304688 204.285156 149.804688 C 205.402344 150.609375 207.652344 153 211.046875 156.976562 C 211.675781 158.253906 212.71875 159.863281 214.171875 161.804688 L 214.535156 166.988281 C 214.535156 169.210938 214.777344 172.714844 215.261719 177.496094 C 215.699219 187.578125 216.136719 194.582031 216.570312 198.511719 L 216.570312 226.769531 L 216.714844 226.839844 L 216.644531 228.1875 L 216.933594 231.027344 C 216.933594 235.902344 217.03125 239.027344 217.226562 240.398438 C 217.613281 243.570312 218.726562 247.097656 220.570312 250.976562 L 229.21875 271.070312 C 238.523438 291.851562 244.410156 304.699219 246.882812 309.621094 L 246.882812 311.042969 L 250.589844 320.910156 L 251.460938 325.808594 C 251.414062 326.566406 251.535156 327.46875 251.824219 328.507812 C 239.613281 333.097656 232.296875 335.726562 229.875 336.390625 L 222.894531 338.589844 C 222.796875 339.207031 222.53125 339.511719 222.09375 339.511719 L 221.296875 339.085938 L 221.222656 338.945312 L 221.296875 338.875 C 220.90625 338.828125 220.714844 338.566406 220.714844 338.09375 C 225.800781 330.992188 228.347656 324.675781 228.347656 319.136719 C 228.347656 317.054688 227.425781 314.167969 225.585938 310.476562 C 224.082031 307.445312 222.894531 305.480469 222.023438 304.582031 L 212.28125 297.339844 C 209.8125 295.542969 207.023438 293.910156 203.921875 292.441406 L 200.871094 290.949219 L 200.433594 291.019531 C 199.996094 291.019531 199.78125 290.808594 199.78125 290.382812 L 199.78125 290.3125 L 199.851562 290.027344 L 199.996094 289.246094 C 201.015625 284.65625 202.226562 281.082031 203.632812 278.527344 L 208.792969 267.875 L 211.335938 262.550781 L 215.117188 257.011719 L 214.972656 256.730469 L 214.535156 256.660156 L 214.464844 256.730469 L 214.753906 257.085938 C 214.21875 257.132812 213.664062 257.390625 213.082031 257.863281 C 211.96875 258.8125 211.070312 260.042969 210.390625 261.558594 L 208.210938 267.023438 L 202.90625 277.816406 C 201.355469 280.84375 200.023438 284.394531 198.90625 288.464844 C 197.648438 292.535156 196.945312 295.753906 196.800781 298.121094 L 197.453125 299.042969 L 197.671875 299.257812 L 197.234375 299.613281 L 197.089844 299.683594 L 196.871094 299.753906 L 196.074219 299.683594 C 196.074219 297.363281 195.828125 295.09375 195.34375 292.867188 L 194.035156 286.265625 C 194.035156 283.707031 194.570312 281.269531 195.636719 278.953125 L 197.597656 275.542969 L 197.890625 273.34375 L 197.234375 266.03125 C 196.167969 266.03125 194.714844 265.226562 192.875 263.617188 L 190.691406 261.484375 L 190.402344 260.988281 L 190.839844 260.777344 L 191.421875 261.203125 C 193.941406 260.253906 196.265625 259.070312 198.398438 257.652344 L 204.359375 253.320312 L 215.769531 245.296875 L 216.136719 244.800781 L 216.28125 244.945312 L 216.570312 244.589844 L 216.425781 244.304688 L 215.84375 244.234375 C 210.464844 247.640625 206.394531 250.480469 203.632812 252.753906 L 198.398438 256.375 L 198.035156 256.941406 L 197.890625 257.367188 L 197.453125 257.511719 L 196.800781 257.367188 L 196.652344 257.15625 L 196.363281 256.585938 C 198.109375 250.625 198.980469 246.152344 198.980469 243.167969 C 198.980469 237.203125 197.574219 231.972656 194.765625 227.476562 C 192 223.125 188.148438 219.574219 183.207031 216.828125 C 179.765625 214.886719 177.777344 213.492188 177.246094 212.640625 L 176.664062 212.425781 L 176.589844 212.425781 L 176.519531 212 L 176.589844 211.644531 C 176.640625 208.949219 176.832031 206.914062 177.171875 205.539062 L 177.316406 201.28125 L 177.609375 200.144531 C 187.6875 196.261719 192.730469 194.132812 192.730469 193.753906 L 192.65625 193.539062 L 192.292969 193.328125 L 184.515625 196.027344 C 181.269531 197.210938 179.039062 198.132812 177.828125 198.792969 L 178.046875 196.878906 L 177.609375 195.601562 L 177.171875 197.019531 L 177.464844 193.894531 C 177.851562 191.957031 178.046875 190.0625 178.046875 188.214844 L 177.609375 187.433594 L 177.316406 188.074219 L 177.609375 188.074219 L 177.683594 188.429688 L 176.953125 190.203125 L 176.808594 192.832031 C 176.808594 194.914062 176.617188 196.710938 176.226562 198.226562 C 176.226562 199.316406 176.300781 200.167969 176.445312 200.78125 L 176.445312 204.476562 L 175.792969 213.207031 L 175.355469 242.175781 C 175.550781 247.050781 175.960938 250.316406 176.589844 251.972656 C 176.589844 254.90625 178.167969 259.972656 181.316406 267.164062 L 181.824219 268.371094 L 181.535156 269.082031 C 181.535156 269.554688 181.898438 271.402344 182.625 274.621094 C 179.621094 271.6875 177.003906 269.390625 174.773438 267.734375 C 172.253906 265.746094 170.171875 264.65625 168.523438 264.46875 L 162.5625 263.6875 L 161.980469 263.898438 L 161.617188 263.546875 L 161.542969 263.117188 L 161.617188 262.410156 L 162.054688 262.339844 L 162.851562 262.195312 C 162.125 261.203125 161.328125 259.167969 160.453125 256.089844 C 159.292969 252.019531 158.515625 248.375 158.128906 245.15625 C 156.578125 237.726562 155.582031 232.613281 155.148438 229.820312 C 152.871094 232.425781 150.882812 234.246094 149.1875 235.289062 C 147.054688 236.613281 144.195312 237.277344 140.609375 237.277344 C 136.34375 237.277344 132.734375 236.753906 129.777344 235.714844 C 126.917969 234.625 124.8125 234.035156 123.453125 233.9375 L 122.800781 234.011719 L 122.4375 233.867188 L 122.511719 233.441406 L 122.800781 233.441406 L 122.800781 228.1875 L 141.480469 221.160156 L 157.109375 214.839844 L 168.957031 210.15625 L 169.832031 209.445312 L 170.121094 209.515625 L 170.195312 209.375 L 170.121094 209.160156 C 169.976562 209.019531 169.855469 208.949219 169.757812 208.949219 L 164.816406 210.933594 L 164.308594 211.789062 L 163.652344 211.363281 L 163.578125 211.078125 L 163.578125 210.296875 L 168.957031 201.136719 L 167.503906 200.355469 C 166.101562 199.503906 164.792969 199.03125 163.578125 198.9375 C 159.65625 198.511719 157.691406 197.894531 157.691406 197.089844 C 157.691406 196.144531 159.871094 191.980469 164.234375 184.59375 C 168.59375 177.210938 170.777344 170.324219 170.777344 163.933594 C 170.777344 160.386719 169.832031 156.457031 167.941406 152.148438 C 167.070312 149.261719 166.222656 147.320312 165.398438 146.328125 L 160.382812 141.429688 L 160.308594 141.429688 C 159.679688 141.429688 157.957031 140.386719 155.148438 138.304688 L 149.332031 133.972656 L 149.769531 133.476562 L 149.914062 133.335938 L 150.714844 133.617188 L 162.707031 132.054688 L 167.070312 130.707031 L 170.050781 129.5 L 169.6875 129.144531 L 169.6875 128.648438 C 167.941406 129.878906 165.492188 130.777344 162.34375 131.347656 L 155.875 132.128906 L 155.292969 132.339844 L 154.710938 132.199219 L 154.492188 132.128906 L 154.421875 131.628906 L 155.292969 128.507812 C 154.808594 127.277344 154.492188 126.257812 154.347656 125.453125 L 151.367188 122.753906 L 148.242188 119.277344 L 148.242188 119.207031 L 148.386719 119.0625 L 148.75 118.78125 L 149.40625 119.0625 C 158.5625 119.160156 164.257812 119.085938 166.488281 118.851562 L 166.050781 118.496094 L 166.050781 118.140625 L 164.886719 118.28125 L 164.671875 118.28125 L 157.109375 118.355469 L 156.382812 118.851562 C 155.800781 118.851562 155.460938 118.683594 155.367188 118.355469 L 155.367188 118.210938 C 155.367188 118.023438 155.4375 117.878906 155.582031 117.785156 L 155.367188 117.5 C 155.367188 117.125 156.480469 114.308594 158.710938 109.054688 C 160.210938 105.597656 161.328125 103.253906 162.054688 102.023438 L 162.488281 101.457031 L 162.707031 101.171875 L 162.925781 100.960938 L 163.433594 101.101562 L 172.449219 99.964844 C 175.644531 99.300781 177.488281 98.710938 177.972656 98.191406 L 179.136719 97.90625 L 181.824219 97.054688 C 181.777344 101.078125 181.484375 104.152344 180.953125 106.285156 L 179.933594 110.757812 C 179.5 110.992188 178.820312 111.515625 177.898438 112.320312 L 173.464844 114.023438 L 165.980469 115.015625 C 163.023438 115.253906 161.542969 115.585938 161.542969 116.011719 L 162.269531 116.4375 L 162.269531 116.152344 L 162.925781 116.082031 L 164.234375 116.367188 L 169.03125 115.726562 C 171.648438 115.726562 173.464844 115.347656 174.484375 114.589844 C 175.695312 114.308594 177.101562 113.714844 178.699219 112.816406 L 179.644531 112.25 L 178.773438 117.21875 L 178.480469 118.851562 L 178.335938 118.78125 L 178.480469 118.921875 L 178.773438 119.277344 L 178.261719 119.914062 M 252.042969 329.289062 L 252.40625 330.496094 L 251.972656 330.566406 L 251.972656 331.207031 L 242.738281 334.542969 C 237.746094 336.199219 234.28125 337.40625 232.34375 338.164062 L 222.023438 342.777344 C 216.886719 344.863281 212.425781 345.902344 208.648438 345.902344 L 208.503906 345.902344 L 208.355469 345.761719 L 208.210938 345.832031 L 206.976562 344.484375 C 209.300781 344.4375 213.300781 343.417969 218.96875 341.429688 C 226.09375 338.921875 230.769531 337.40625 233 336.886719 L 242.882812 333.050781 L 252.042969 329.289062 M 236.199219 337.667969 L 252.261719 331.773438 C 253.957031 334.804688 255.023438 337.429688 255.460938 339.65625 C 255.800781 341.265625 255.96875 343.84375 255.96875 347.394531 C 255.96875 353.453125 254.683594 356.550781 252.117188 356.695312 C 237.675781 359.675781 227.839844 361.167969 222.605469 361.167969 L 220.640625 361.027344 L 219.625 361.238281 L 219.261719 360.882812 L 218.824219 360.386719 L 219.332031 359.820312 L 218.824219 359.25 L 220.859375 358.613281 L 221.804688 358.257812 L 221.878906 358.257812 C 224.25 357.355469 226.652344 356.269531 229.074219 354.992188 C 235.90625 351.488281 239.324219 348.007812 239.324219 344.554688 C 239.324219 343.324219 238.667969 342.023438 237.359375 340.648438 L 235.398438 338.304688 L 235.542969 337.878906 L 236.125 337.667969 L 236.199219 337.667969 M 213.300781 162.796875 C 213.105469 162.5625 212.71875 162.445312 212.136719 162.445312 C 210.390625 162.445312 207.777344 163.628906 204.285156 165.992188 C 201.089844 168.171875 199.488281 169.425781 199.488281 169.757812 L 199.925781 170.183594 L 205.160156 166.492188 C 206.273438 165.636719 207.363281 165 208.429688 164.574219 L 213.300781 162.796875 M 133.050781 101.527344 L 133.269531 101.882812 L 133.414062 101.8125 L 133.339844 102.238281 C 133.339844 103.988281 133.65625 106.59375 134.285156 110.046875 L 134.429688 117.929688 C 134.480469 122.425781 134.722656 127.703125 135.15625 133.761719 L 134.941406 137.59375 L 132.613281 142.5625 C 132.371094 142.992188 131.984375 144.386719 131.449219 146.753906 C 130.917969 149.214844 130.652344 150.800781 130.652344 151.511719 L 130.796875 151.652344 C 130.359375 152.929688 129.949219 155.15625 129.5625 158.324219 L 127.890625 166.347656 C 125.949219 175.246094 124.933594 180.621094 124.835938 182.464844 C 124.59375 184.214844 124.472656 189.566406 124.472656 198.511719 L 124.472656 206.535156 C 124.425781 207.765625 123.914062 210.367188 122.945312 214.34375 C 122.21875 215.289062 121.832031 216.425781 121.78125 217.75 L 121.929688 222.648438 C 121.832031 223.929688 121.808594 225.609375 121.855469 227.691406 L 120.257812 228.328125 L 120.621094 221.015625 L 120.476562 220.09375 C 122.023438 213.277344 123.019531 208.167969 123.453125 204.757812 C 123.746094 202.628906 123.792969 199.671875 123.601562 195.882812 L 123.527344 187.082031 C 123.769531 182.582031 124.519531 176.667969 125.78125 169.332031 L 130.070312 151.511719 L 129.925781 150.515625 C 130.554688 147.25 131.691406 142.398438 133.339844 135.960938 C 133.679688 134.589844 133.847656 130.589844 133.847656 123.960938 L 133.847656 118.210938 L 133.121094 112.25 C 132.929688 107.46875 132.347656 103.894531 131.378906 101.527344 L 133.050781 101.527344 M 170.414062 128.507812 L 170.703125 128.507812 L 170.703125 128.4375 L 170.050781 128.363281 L 169.832031 128.578125 L 170.414062 128.507812 M 107.171875 116.296875 C 107.269531 116.152344 107.390625 116.082031 107.535156 116.082031 L 108.117188 115.371094 C 108.601562 114.898438 109.109375 114.613281 109.644531 114.519531 L 109.863281 114.519531 L 110.371094 114.734375 L 110.445312 114.945312 L 110.226562 115.441406 C 111.242188 115.917969 113.449219 116.390625 116.839844 116.863281 L 123.164062 118.496094 L 123.527344 118.210938 C 123.820312 118.210938 124.035156 118.28125 124.183594 118.425781 L 124.253906 118.636719 L 119.382812 122.1875 C 117.542969 124.269531 114.488281 125.3125 110.226562 125.3125 L 106.445312 124.886719 L 106.445312 124.816406 L 106.519531 124.460938 L 107.027344 124.601562 C 111 122.992188 112.988281 121.902344 112.988281 121.335938 L 112.84375 120.980469 L 112.40625 120.910156 L 109.28125 122.402344 L 108.699219 121.335938 L 108.261719 120.625 L 108.261719 120.554688 L 107.316406 116.578125 L 107.171875 116.296875 M 67.046875 145.902344 L 68.355469 145.902344 L 70.171875 146.113281 L 70.246094 146.257812 L 69.738281 146.683594 C 69.832031 147.15625 70.535156 147.816406 71.84375 148.671875 L 75.117188 150.65625 L 75.40625 150.515625 L 75.84375 150.585938 L 75.988281 150.730469 L 76.0625 150.871094 C 76.0625 151.582031 74.148438 152.433594 70.320312 153.425781 L 61.742188 154.777344 L 60.289062 154.492188 L 59.777344 154.351562 C 59.777344 154.253906 60.042969 154.136719 60.578125 153.996094 L 65.449219 147.605469 L 65.59375 147.675781 L 66.683594 146.398438 L 66.464844 146.328125 L 66.539062 145.902344 L 67.046875 145.902344 M 52.65625 164.289062 L 53.164062 164.21875 C 53.792969 164.21875 55.054688 164.882812 56.945312 166.207031 C 58.785156 167.484375 59.707031 168.265625 59.707031 168.550781 L 59.707031 168.621094 L 59.632812 168.976562 L 59.269531 169.117188 L 58.980469 168.976562 C 57.960938 169.636719 56.484375 170.917969 54.542969 172.808594 L 50.621094 176.855469 L 50.183594 176.785156 C 48.921875 176.785156 45.894531 179.910156 41.097656 186.15625 L 29.539062 200.925781 C 27.503906 203.148438 25.03125 206.984375 22.125 212.425781 C 18.878906 218.484375 17.253906 222.816406 17.253906 225.417969 L 17.253906 225.488281 L 17.328125 225.488281 L 17.546875 225.417969 L 17.835938 225.488281 L 18.054688 225.488281 C 18.25 227.761719 20.695312 230.625 25.394531 234.082031 L 27.359375 235.570312 C 27.40625 235.289062 27.601562 235.144531 27.941406 235.144531 L 28.523438 235.429688 C 36.226562 231.972656 40.976562 229.679688 42.769531 228.542969 C 44.417969 227.40625 45.96875 225.890625 47.421875 224 L 51.347656 218.746094 C 55.464844 213.964844 57.839844 210.652344 58.46875 208.804688 C 60.214844 203.835938 61.449219 200.757812 62.175781 199.574219 L 62.175781 199.503906 C 62.175781 199.171875 62.296875 198.960938 62.539062 198.867188 L 62.46875 198.652344 C 62.46875 198.132812 62.734375 197.871094 63.265625 197.871094 L 63.414062 197.871094 C 63.753906 197.917969 63.921875 198.15625 63.921875 198.582031 L 63.921875 198.792969 L 67.554688 206.320312 C 70.851562 211.433594 73.105469 214.4375 74.316406 215.335938 L 72.933594 217.75 C 70.707031 220.734375 69.421875 222.648438 69.082031 223.503906 C 68.066406 225.867188 65.277344 229.632812 60.722656 234.789062 C 58.058594 239.335938 54.132812 243.027344 48.949219 245.867188 C 46.863281 246.957031 42.71875 248.46875 36.515625 250.410156 L 28.375 252.753906 L 27.941406 252.894531 L 27.792969 252.894531 L 27.578125 252.824219 L 27.578125 252.894531 L 22.851562 253.605469 C 20.234375 253.605469 16.550781 250.503906 11.804688 244.304688 C 8.023438 239.476562 6.132812 236.09375 6.132812 234.152344 C 6.132812 232.210938 6.761719 229.9375 8.023438 227.335938 L 11.222656 220.308594 L 16.601562 207.742188 L 27.867188 192.972656 L 31.066406 189.066406 L 35.425781 185.589844 L 42.1875 177.707031 L 52.292969 164.714844 L 52.144531 164.644531 C 52.144531 164.457031 52.316406 164.335938 52.65625 164.289062 M 107.027344 157.332031 L 107.027344 156.621094 L 107.464844 156.550781 C 108.675781 156.550781 111.050781 157.875 114.585938 160.527344 C 116.523438 161.898438 117.496094 163.367188 117.496094 164.929688 L 114.515625 172.382812 C 113.933594 173.566406 113.570312 174.796875 113.421875 176.074219 L 111.898438 179.695312 C 111.414062 181.257812 110.976562 183.695312 110.589844 187.007812 C 110.152344 188.714844 109.402344 189.921875 108.335938 190.628906 L 102.8125 194.109375 C 98.933594 197.183594 96.632812 199.625 95.90625 201.421875 C 95.664062 202.035156 95.542969 204.425781 95.542969 208.59375 C 95.347656 214.652344 92.222656 219.289062 86.164062 222.507812 L 83.257812 224.566406 L 79.769531 227.195312 L 78.96875 227.195312 L 78.824219 226.769531 L 79.476562 226.269531 L 77.078125 213.847656 L 77.515625 213.847656 L 78.097656 213.347656 C 77.371094 213.113281 77.007812 212.78125 77.007812 212.355469 L 82.675781 207.527344 C 83.355469 206.582031 83.695312 205.113281 83.695312 203.125 L 83.695312 202.699219 L 83.621094 202.203125 L 83.328125 201.136719 L 83.402344 201.136719 L 81.148438 193.613281 L 80.714844 192.261719 L 81.003906 192.40625 C 82.941406 192.40625 84.25 190.867188 84.929688 187.789062 L 93.144531 187.433594 C 93.726562 187.054688 94.089844 186.867188 94.234375 186.867188 L 95.542969 185.730469 L 96.632812 183.246094 C 96.292969 181.257812 96.679688 179.554688 97.796875 178.132812 C 98.910156 176.714844 99.539062 175.292969 99.683594 173.875 L 99.683594 172.242188 L 106.300781 167.769531 C 106.882812 167.152344 107.148438 166.207031 107.101562 164.929688 L 106.808594 161.875 L 106.808594 159.25 L 107.101562 157.617188 L 107.101562 157.402344 L 107.027344 157.402344 L 107.027344 157.332031 M 128.6875 101.527344 L 130.503906 101.527344 L 132.25 112.53125 C 132.734375 115.84375 132.976562 119.65625 132.976562 123.960938 C 132.976562 131.0625 132.566406 135.535156 131.742188 137.382812 L 128.832031 150.800781 L 128.980469 151.367188 C 128.882812 153.261719 128.15625 155.9375 126.796875 159.390625 L 124.980469 168.335938 C 123.867188 173.589844 123.089844 179.53125 122.65625 186.15625 L 122.65625 203.835938 C 120.085938 213.347656 118.804688 219.3125 118.804688 221.726562 L 118.949219 222.648438 L 119.3125 222.722656 L 119.457031 222.722656 C 119.261719 224.1875 119.140625 226.199219 119.09375 228.757812 L 118.511719 228.96875 L 118.585938 220.234375 L 118.292969 215.125 L 118.511719 214.980469 C 120.402344 206.179688 121.273438 200.804688 121.128906 198.867188 C 120.839844 195.269531 120.839844 189.894531 121.128906 182.75 C 121.226562 179.71875 122.414062 173.589844 124.691406 164.359375 L 128.035156 150.445312 L 127.890625 149.949219 C 128.710938 144.742188 129.828125 139.675781 131.234375 134.753906 C 132.007812 132.054688 132.394531 128.082031 132.394531 122.828125 C 132.394531 118.992188 132.105469 115.324219 131.523438 111.820312 C 130.503906 106.332031 129.5625 102.898438 128.6875 101.527344 M 65.230469 195.175781 C 65.230469 194.558594 65.472656 194.25 65.957031 194.25 C 66.488281 194.25 66.730469 194.488281 66.683594 194.960938 C 70.804688 193.066406 72.863281 190.628906 72.863281 187.648438 L 72.207031 180.832031 L 72.207031 179.625 L 72.5 179.554688 C 72.546875 179.363281 72.667969 179.246094 72.863281 179.199219 L 73.152344 179.128906 C 73.589844 179.128906 73.808594 179.363281 73.808594 179.839844 L 73.664062 180.335938 L 77.152344 185.875 C 77.925781 187.152344 79.042969 189.921875 80.496094 194.179688 C 82.046875 198.769531 82.820312 201.777344 82.820312 203.195312 C 82.820312 205.328125 82.335938 206.816406 81.367188 207.667969 L 76.640625 211.859375 L 76.207031 210.722656 L 75.769531 210.863281 L 75.769531 211.929688 L 75.84375 212.285156 L 75.769531 212.285156 L 65.375 195.316406 L 65.230469 195.175781 M 49.746094 178.347656 L 50.546875 177.566406 C 51.175781 178.609375 53.625 181.542969 57.886719 186.371094 L 64.503906 195.601562 C 66.003906 197.585938 67.824219 200.640625 69.953125 204.757812 L 72.5 209.445312 L 73.589844 211.714844 L 75.335938 213.347656 L 74.824219 214.414062 C 72.597656 212.09375 70.511719 209.277344 68.574219 205.964844 L 63.777344 196.734375 C 62.03125 193.566406 59.414062 189.730469 55.925781 185.234375 C 52.824219 181.164062 50.765625 178.867188 49.746094 178.347656 M 19 214.058594 C 19 213.019531 18.855469 212.378906 18.5625 212.140625 L 18.199219 212.214844 C 17.910156 215.433594 17.761719 217.917969 17.761719 219.667969 L 18.34375 220.09375 C 18.78125 218.390625 19 216.378906 19 214.058594 M 121.855469 228.542969 L 121.929688 232.449219 L 122.074219 249.699219 C 122.269531 251.59375 122.945312 254.480469 124.109375 258.363281 L 124.109375 263.332031 L 124.398438 266.242188 L 125.199219 270.359375 L 125.34375 277.53125 L 125.199219 283 L 125.199219 309.695312 L 123.671875 309.695312 L 123.671875 308.0625 L 123.527344 307.636719 L 123.527344 273.414062 C 123.1875 271.046875 123.019531 267.851562 123.019531 263.828125 L 122.800781 254.386719 C 120.863281 246.007812 119.894531 239.640625 119.894531 235.289062 L 120.257812 229.109375 L 121.855469 228.542969 M 118.511719 229.75 L 119.09375 229.535156 L 119.019531 235.144531 C 119.019531 241.820312 119.941406 248.234375 121.78125 254.386719 C 122.074219 256.46875 122.21875 259.710938 122.21875 264.113281 C 122.171875 268.46875 122.316406 271.710938 122.65625 273.839844 L 122.65625 308.0625 L 123.164062 309.695312 L 121.417969 309.695312 L 121.710938 295.140625 L 120.765625 281.863281 L 120.546875 275.117188 L 120.039062 270.078125 L 120.183594 270.289062 L 120.621094 270.148438 L 120.621094 267.875 C 120.910156 262.480469 120.839844 258.574219 120.402344 256.160156 C 118.707031 252.042969 117.859375 248.113281 117.859375 244.375 L 118.4375 232.449219 L 118.511719 229.75 M 28.375 252.753906 C 29.296875 251.949219 29.925781 248.636719 30.265625 242.8125 L 30.046875 238.695312 L 28.230469 236.421875 L 30.046875 238.695312 L 30.265625 242.8125 C 29.925781 248.636719 29.296875 251.949219 28.375 252.753906 M 140.902344 326.589844 L 140.902344 326.519531 L 152.238281 318.851562 L 157.765625 311.042969 L 157.910156 310.828125 L 158.417969 311.042969 L 159.945312 311.328125 L 178.554688 309.976562 L 186.621094 308.203125 L 188.585938 307.636719 L 187.859375 310.757812 C 187.859375 311.707031 188.898438 313.03125 190.984375 314.734375 C 193.019531 316.4375 194.035156 317.644531 194.035156 318.355469 C 194.035156 320.675781 193.429688 322.261719 192.21875 323.113281 C 191.152344 323.824219 189.265625 324.175781 186.550781 324.175781 L 172.957031 323.609375 L 155.511719 325.171875 L 143.808594 326.378906 L 141.554688 327.160156 C 141.117188 327.160156 140.902344 326.96875 140.902344 326.589844 M 152.605469 262.90625 L 152.605469 263.617188 L 166.125 265.179688 C 169.226562 265.558594 171.671875 266.457031 173.464844 267.875 L 178.335938 272.417969 C 180.324219 274.3125 181.605469 275.261719 182.1875 275.261719 L 182.699219 274.90625 L 189.3125 302.453125 C 189.3125 305.339844 188.199219 306.996094 185.96875 307.421875 L 172.449219 309.90625 L 159.945312 310.402344 L 156.601562 310.261719 L 155.292969 310.402344 L 153.546875 310.050781 C 152.09375 309.433594 151.199219 307.964844 150.859375 305.648438 L 150.785156 299.46875 L 150.640625 288.464844 C 150.398438 284.441406 150.277344 277.105469 150.277344 266.457031 L 150.277344 264.753906 C 150.421875 263.898438 150.785156 263.332031 151.367188 263.046875 L 151.367188 262.976562 L 151.441406 262.621094 L 151.949219 262.550781 L 152.53125 262.621094 L 152.605469 262.90625 M 152.167969 279.164062 L 152.09375 278.738281 L 151.949219 278.667969 L 151.511719 278.738281 L 151.511719 280.371094 L 152.238281 294.359375 L 152.457031 301.316406 C 152.847656 304.015625 153.9375 306.285156 155.730469 308.132812 L 155.875 308.132812 L 155.875 307.988281 L 155.730469 307.136719 L 155.949219 307.136719 C 154.347656 304.0625 153.523438 301.742188 153.476562 300.179688 L 153.113281 292.9375 L 152.75 285.765625 C 152.941406 282.925781 152.75 280.726562 152.167969 279.164062 "/>
<path style=" stroke:none;fill-rule:evenodd;fill:rgb(80.000001%,80.000001%,80.000001%);fill-opacity:1;" d="M 111.023438 90.308594 L 111.96875 90.308594 L 124.980469 90.59375 L 124.980469 91.089844 L 127.671875 100.746094 L 117.566406 100.746094 L 113.714844 100.179688 L 113.714844 99.183594 C 112.84375 96.769531 111.945312 93.8125 111.023438 90.308594 M 163.214844 100.105469 L 145.117188 100.816406 L 145.117188 100.886719 L 133.703125 100.746094 C 133.460938 99.183594 132.542969 95.847656 130.941406 90.734375 L 149.476562 90.878906 L 158.128906 90.664062 L 158.636719 90.664062 L 163.652344 90.523438 L 163.871094 90.523438 L 165.832031 90.238281 L 165.980469 90.734375 C 165.15625 90.734375 164.742188 91.941406 164.742188 94.355469 C 163.144531 96.011719 162.34375 97.316406 162.34375 98.261719 L 162.34375 98.757812 L 162.5625 99.113281 C 162.660156 99.351562 162.878906 99.46875 163.214844 99.46875 L 163.214844 100.105469 M 178.480469 118.921875 L 178.335938 118.78125 L 178.480469 118.851562 L 178.480469 118.921875 M 162.707031 101.171875 L 162.488281 101.457031 L 162.054688 102.023438 C 161.328125 103.253906 160.210938 105.597656 158.710938 109.054688 C 156.480469 114.308594 155.367188 117.125 155.367188 117.5 L 155.582031 117.785156 C 155.4375 117.878906 155.367188 118.023438 155.367188 118.210938 L 155.367188 118.355469 L 148.316406 118.425781 L 148.242188 118.851562 L 148.242188 119.0625 L 148.386719 119.0625 L 148.242188 119.207031 L 148.242188 119.277344 L 151.367188 122.753906 L 154.347656 125.453125 C 154.492188 126.257812 154.808594 127.277344 155.292969 128.507812 L 154.421875 131.628906 L 154.492188 132.128906 L 154.710938 132.199219 L 148.679688 132.765625 L 148.605469 133.191406 L 149.769531 133.476562 L 149.332031 133.972656 L 155.148438 138.304688 C 157.957031 140.386719 159.679688 141.429688 160.308594 141.429688 L 160.382812 141.429688 L 165.398438 146.328125 C 166.222656 147.320312 167.070312 149.261719 167.941406 152.148438 C 169.832031 156.457031 170.777344 160.386719 170.777344 163.933594 C 170.777344 170.324219 168.59375 177.210938 164.234375 184.59375 C 159.871094 191.980469 157.691406 196.144531 157.691406 197.089844 C 157.691406 197.894531 159.65625 198.511719 163.578125 198.9375 C 164.792969 199.03125 166.101562 199.503906 167.503906 200.355469 L 168.957031 201.136719 L 163.578125 210.296875 L 163.578125 211.078125 L 163.652344 211.363281 L 140.390625 220.589844 L 122.800781 227.335938 L 122.800781 218.601562 C 122.800781 217.847656 123.066406 216.945312 123.601562 215.90625 L 124.398438 213.773438 L 124.253906 213.5625 C 125.03125 209.679688 125.394531 204.757812 125.34375 198.792969 C 125.246094 190.9375 125.367188 185.683594 125.707031 183.03125 C 129.828125 163.011719 131.886719 152.386719 131.886719 151.15625 L 131.742188 150.730469 L 132.394531 147.390625 C 132.734375 145.308594 133.121094 143.84375 133.558594 142.992188 L 135.8125 137.949219 L 136.03125 133.761719 C 135.59375 127.417969 135.351562 122.023438 135.304688 117.574219 L 135.449219 109.335938 C 135.398438 106.214844 134.867188 103.609375 133.847656 101.527344 L 146.570312 101.597656 L 146.496094 101.242188 L 146.496094 101.171875 L 155.65625 101.3125 L 162.707031 101.171875 M 122.800781 234.011719 L 123.453125 233.9375 C 124.8125 234.035156 126.917969 234.625 129.777344 235.714844 C 132.734375 236.753906 136.34375 237.277344 140.609375 237.277344 C 144.195312 237.277344 147.054688 236.613281 149.1875 235.289062 C 150.882812 234.246094 152.871094 232.425781 155.148438 229.820312 C 155.582031 232.613281 156.578125 237.726562 158.128906 245.15625 C 158.515625 248.375 159.292969 252.019531 160.453125 256.089844 C 161.328125 259.167969 162.125 261.203125 162.851562 262.195312 L 162.054688 262.339844 L 161.617188 262.410156 L 161.542969 263.117188 L 161.617188 263.546875 L 152.820312 262.90625 L 152.605469 262.90625 L 152.53125 262.621094 L 151.949219 262.550781 L 151.441406 262.621094 L 151.367188 262.976562 L 151.367188 263.046875 C 150.785156 263.332031 150.421875 263.898438 150.277344 264.753906 L 150.277344 266.457031 C 150.277344 277.105469 150.398438 284.441406 150.640625 288.464844 L 150.785156 299.46875 L 150.859375 305.648438 C 151.199219 307.964844 152.09375 309.433594 153.546875 310.050781 L 151.367188 309.976562 L 126.144531 309.695312 L 126.21875 291.019531 L 126.21875 276.964844 C 126.070312 269.578125 125.707031 265.105469 125.125 263.546875 L 124.761719 256.941406 C 123.695312 253.0625 123.089844 250.363281 122.945312 248.847656 L 122.800781 234.011719 M 176.589844 212.425781 L 176.664062 212.425781 L 177.246094 212.640625 C 177.777344 213.492188 179.765625 214.886719 183.207031 216.828125 C 188.148438 219.574219 192 223.125 194.765625 227.476562 C 197.574219 231.972656 198.980469 237.203125 198.980469 243.167969 C 198.980469 246.152344 198.109375 250.625 196.363281 256.585938 L 196.652344 257.15625 L 196.800781 257.367188 L 193.09375 259.070312 C 190.8125 260.113281 189.675781 260.824219 189.675781 261.203125 L 190.113281 261.628906 L 190.691406 261.484375 L 192.875 263.617188 C 194.714844 265.226562 196.167969 266.03125 197.234375 266.03125 L 197.890625 273.34375 L 197.597656 275.542969 L 195.636719 278.953125 C 194.570312 281.269531 194.035156 283.707031 194.035156 286.265625 L 195.34375 292.867188 C 195.828125 295.09375 196.074219 297.363281 196.074219 299.683594 L 196.871094 299.753906 L 197.089844 299.683594 L 197.164062 299.753906 L 197.234375 299.613281 L 197.671875 299.257812 L 197.453125 299.042969 L 199.78125 290.523438 L 199.78125 290.3125 L 199.78125 290.382812 C 199.78125 290.808594 199.996094 291.019531 200.433594 291.019531 L 200.871094 290.949219 L 203.921875 292.441406 C 207.023438 293.910156 209.8125 295.542969 212.28125 297.339844 L 222.023438 304.582031 C 222.894531 305.480469 224.082031 307.445312 225.585938 310.476562 C 227.425781 314.167969 228.347656 317.054688 228.347656 319.136719 C 228.347656 324.675781 225.800781 330.992188 220.714844 338.09375 C 220.714844 338.566406 220.90625 338.828125 221.296875 338.875 L 221.222656 338.945312 L 221.296875 339.085938 L 206.613281 343.773438 C 205.789062 342.164062 204.941406 339.726562 204.066406 336.460938 L 201.816406 328.296875 L 201.816406 327.300781 L 193.890625 308.273438 C 190.886719 300.75 189.070312 294.382812 188.441406 289.175781 C 187.421875 280.703125 185.726562 274.359375 183.351562 270.148438 L 179.644531 260.707031 C 179.160156 259.664062 178.722656 258.054688 178.335938 255.878906 L 177.828125 253.25 L 178.191406 253.039062 C 176.882812 249.769531 176.226562 246.078125 176.226562 241.960938 L 176.226562 231.027344 C 176.226562 221.515625 176.347656 215.859375 176.589844 214.058594 L 176.589844 212.425781 M 236.199219 337.667969 L 236.125 337.667969 L 236.199219 337.667969 M 235.542969 337.878906 L 235.398438 338.304688 L 237.359375 340.648438 C 238.667969 342.023438 239.324219 343.324219 239.324219 344.554688 C 239.324219 348.007812 235.90625 351.488281 229.074219 354.992188 C 226.652344 356.269531 224.25 357.355469 221.878906 358.257812 L 221.804688 358.257812 L 220.859375 358.613281 L 218.824219 359.25 L 219.332031 359.820312 L 218.824219 360.386719 L 219.261719 360.882812 C 212.378906 360.269531 208.9375 359.769531 208.9375 359.390625 L 208.9375 353.570312 C 208.9375 349.925781 208.839844 347.558594 208.648438 346.472656 L 210.539062 346.824219 C 214.21875 346.824219 221.488281 344.246094 232.34375 339.085938 L 235.542969 337.878906 M 107.171875 116.296875 L 104.847656 110.613281 L 101.140625 102.804688 L 98.886719 97.976562 L 106.445312 99.679688 L 112.261719 100.675781 L 113.933594 101.171875 L 116.113281 101.386719 L 116.476562 101.527344 L 127.378906 101.527344 L 127.378906 101.742188 L 131.015625 113.3125 C 131.355469 114.96875 131.523438 118.164062 131.523438 122.898438 C 131.523438 127.0625 130.796875 132.484375 129.34375 139.15625 C 127.890625 145.78125 127.160156 149.355469 127.160156 149.878906 L 127.160156 150.019531 L 123.019531 165.78125 C 121.371094 172.027344 120.449219 177.351562 120.257812 181.753906 L 120.109375 197.800781 C 119.917969 204.191406 119.117188 209.539062 117.710938 213.847656 L 117.710938 214.34375 L 117.640625 214.34375 L 117.566406 215.835938 L 117.421875 229.394531 L 115.53125 230.105469 L 115.96875 230.53125 L 117.421875 230.105469 L 116.984375 244.445312 C 116.984375 248.707031 117.832031 252.988281 119.53125 257.296875 L 119.53125 263.828125 C 119.433594 265.960938 119.480469 267.566406 119.675781 268.65625 L 119.601562 268.585938 L 119.238281 268.65625 L 119.167969 270.574219 C 119.167969 274.550781 119.722656 282.761719 120.839844 295.210938 L 120.621094 302.949219 C 120.621094 306.121094 120.691406 308.367188 120.839844 309.695312 L 110.152344 309.480469 L 100.777344 308.84375 L 98.304688 308.34375 L 95.976562 308.34375 L 95.976562 308.414062 L 87.253906 307.777344 C 80.277344 307.304688 76.789062 305.695312 76.789062 302.949219 L 80.351562 290.453125 C 80.496094 287.519531 80.6875 285.4375 80.929688 284.207031 C 81.753906 281.554688 82.191406 279.519531 82.238281 278.101562 L 83.621094 270.714844 L 87.546875 267.238281 L 89.582031 264.824219 C 90.066406 264.019531 90.597656 263.617188 91.179688 263.617188 L 101.066406 263.757812 L 101.503906 263.261719 L 101.066406 262.90625 L 95.6875 262.691406 L 90.597656 262.765625 L 90.453125 262.976562 L 89.800781 263.472656 L 88.34375 264.679688 C 87.617188 265.25 86.914062 265.984375 86.238281 266.882812 L 83.695312 268.941406 L 83.695312 259 C 83.695312 253.414062 83.597656 249.769531 83.402344 248.066406 L 81.003906 234.863281 L 79.695312 227.195312 L 79.769531 227.195312 L 83.257812 224.566406 L 86.164062 222.507812 C 92.222656 219.289062 95.347656 214.652344 95.542969 208.59375 C 95.542969 204.425781 95.664062 202.035156 95.90625 201.421875 C 96.632812 199.625 98.933594 197.183594 102.8125 194.109375 L 108.335938 190.628906 C 109.402344 189.921875 110.152344 188.714844 110.589844 187.007812 C 110.976562 183.695312 111.414062 181.257812 111.898438 179.695312 L 113.421875 176.074219 C 113.570312 174.796875 113.933594 173.566406 114.515625 172.382812 L 117.496094 164.929688 C 117.496094 163.367188 116.523438 161.898438 114.585938 160.527344 C 111.050781 157.875 108.675781 156.550781 107.464844 156.550781 L 107.027344 156.621094 L 107.027344 157.332031 C 106.832031 156.8125 106.277344 156.550781 105.355469 156.550781 C 104.386719 156.550781 102.542969 157.6875 99.832031 159.957031 L 100.414062 158.183594 L 100.265625 156.265625 C 100.121094 155.273438 97.042969 154.777344 91.035156 154.777344 L 85.875 154.988281 L 83.839844 154.777344 L 81.148438 154.988281 L 78.167969 159.035156 L 74.242188 163.507812 L 67.628906 172.527344 L 66.683594 171.816406 C 64.890625 170.441406 63.386719 169.496094 62.175781 168.976562 L 62.03125 168.976562 L 60.214844 168.335938 L 60.070312 168.480469 L 59.707031 168.621094 L 59.707031 168.550781 C 59.707031 168.265625 58.785156 167.484375 56.945312 166.207031 C 55.054688 164.882812 53.792969 164.21875 53.164062 164.21875 L 52.65625 164.289062 L 54.179688 162.300781 L 60.289062 154.492188 L 61.742188 154.777344 L 70.320312 153.425781 C 74.148438 152.433594 76.0625 151.582031 76.0625 150.871094 L 75.988281 150.730469 L 75.84375 150.585938 L 75.84375 150.445312 L 70.246094 146.113281 L 70.171875 146.113281 L 68.355469 145.902344 L 67.046875 145.902344 C 69.226562 143.488281 71.675781 141.640625 74.390625 140.363281 C 77.25 138.992188 81.003906 136.554688 85.65625 133.050781 C 88.417969 131.679688 92.996094 129.808594 99.394531 127.441406 L 106.445312 124.816406 L 106.445312 124.886719 L 110.226562 125.3125 C 114.488281 125.3125 117.542969 124.269531 119.382812 122.1875 L 124.253906 118.636719 L 124.398438 118.210938 L 124.328125 118.070312 L 117.710938 116.082031 L 110.078125 114.308594 L 109.644531 114.378906 L 109.644531 114.519531 C 109.109375 114.613281 108.601562 114.898438 108.117188 115.371094 L 107.535156 116.082031 C 107.390625 116.082031 107.269531 116.152344 107.171875 116.296875 M 17.253906 225.417969 L 17.328125 225.488281 L 17.253906 225.488281 L 17.253906 225.417969 M 17.835938 225.488281 L 19.582031 220.023438 L 22.199219 213.917969 C 23.019531 211.3125 25.710938 207.171875 30.265625 201.492188 L 39.644531 189.28125 C 41.144531 187.007812 42.769531 184.972656 44.511719 183.175781 L 49.09375 178.984375 L 54.472656 185.730469 C 58.640625 190.84375 61.472656 194.652344 62.976562 197.160156 L 63.414062 197.871094 L 63.265625 197.871094 C 62.734375 197.871094 62.46875 198.132812 62.46875 198.652344 L 62.539062 198.867188 C 62.296875 198.960938 62.175781 199.171875 62.175781 199.503906 L 62.175781 199.574219 C 61.449219 200.757812 60.214844 203.835938 58.46875 208.804688 C 57.839844 210.652344 55.464844 213.964844 51.347656 218.746094 L 47.421875 224 C 45.96875 225.890625 44.417969 227.40625 42.769531 228.542969 C 40.976562 229.679688 36.226562 231.972656 28.523438 235.429688 L 27.941406 235.144531 C 27.601562 235.144531 27.40625 235.289062 27.359375 235.570312 L 25.394531 234.082031 C 20.695312 230.625 18.25 227.761719 18.054688 225.488281 L 17.835938 225.488281 M 27.792969 252.894531 L 27.578125 252.894531 L 27.578125 252.824219 L 27.792969 252.894531 M 65.230469 195.175781 L 65.011719 194.820312 C 60.503906 188.003906 55.925781 182.132812 51.273438 177.210938 C 56.070312 172.003906 58.90625 169.402344 59.777344 169.402344 C 62.152344 169.402344 66.003906 172.003906 71.335938 177.210938 L 72.863281 179.199219 C 72.667969 179.246094 72.546875 179.363281 72.5 179.554688 L 72.207031 179.625 L 72.207031 180.832031 L 72.863281 187.648438 C 72.863281 190.628906 70.804688 193.066406 66.683594 194.960938 C 66.730469 194.488281 66.488281 194.25 65.957031 194.25 C 65.472656 194.25 65.230469 194.558594 65.230469 195.175781 M 103.175781 271.78125 L 102.664062 271.992188 L 103.027344 288.039062 L 103.027344 297.199219 C 103.027344 299.375 102.859375 300.890625 102.519531 301.742188 L 99.539062 306.355469 L 99.976562 306.855469 C 102.785156 304.203125 104.09375 301.101562 103.902344 297.554688 L 103.902344 287.96875 L 103.609375 271.851562 L 103.175781 271.78125 M 140.902344 326.589844 L 136.175781 326.734375 L 128.035156 326.308594 L 126.289062 325.808594 C 124.304688 322.308594 123.308594 318.308594 123.308594 313.8125 L 123.964844 310.617188 L 139.957031 310.757812 L 157.765625 311.042969 L 152.238281 318.851562 L 140.902344 326.519531 L 140.902344 326.589844 M 122.65625 310.617188 L 122.4375 311.683594 L 122.4375 313.8125 L 123.089844 320.128906 C 123.527344 322.734375 124.0625 324.53125 124.691406 325.527344 C 122.605469 325.242188 120.910156 325.21875 119.601562 325.457031 C 118.488281 325.644531 116.621094 325.382812 114.003906 324.675781 L 104.699219 321.976562 L 91.835938 320.128906 L 74.96875 318.425781 C 73.417969 318.332031 72.644531 317.929688 72.644531 317.21875 C 72.644531 315.800781 73.636719 314.59375 75.625 313.597656 C 77.613281 312.558594 78.605469 311.824219 78.605469 311.398438 C 77.296875 309.171875 76.640625 307.351562 76.640625 305.929688 L 76.640625 305.148438 C 78.582031 307.707031 84.734375 308.984375 95.105469 308.984375 L 96.125 308.984375 L 107.535156 310.191406 L 112.84375 310.476562 L 120.984375 310.617188 L 121.054688 310.757812 L 121.417969 310.617188 L 122.65625 310.617188 M 152.167969 279.164062 L 151.949219 278.667969 L 152.09375 278.738281 L 152.167969 279.164062 M 155.730469 308.132812 L 155.875 307.988281 L 155.875 308.132812 L 155.730469 308.132812 "/>
<path style="fill:none;stroke-width:1;stroke-linecap:round;stroke-linejoin:round;stroke:rgb(0%,0%,0%);stroke-opacity:1;stroke-miterlimit:4;" d="M 68.549923 -4.250961 L 68.549923 -4.000625 L 69.100742 -3.799805 L 90.899723 -3.101063 L 101.451258 -3.101063 L 107.550566 -3.249615 L 107.550566 -3.348649 M 113.099056 -8.801037 L 113.201159 -8.801037 L 115.399059 -8.699251 L 120.351053 -8.5507 L 121.299535 -8.34988 L 122.100238 -8.201329 L 122.350121 -8.149061 L 122.350121 -8.050027 L 122.548953 -7.950992 L 122.401173 -7.79969 L 122.401173 -7.59887 C 121.60047 -3.46694 121.149068 -0.78201 121.049652 0.450417 C 121.183998 3.98264 120.982479 6.651063 120.450469 8.450186 L 119.749183 11.600027 L 119.800234 11.751329 L 119.649767 12.051183 L 118.900116 16.350922 C 118.365419 19.583291 117.682941 22.14993 116.849996 24.050838 C 119.851286 25.451073 124.134236 28.617419 129.698847 33.549877 L 136.451077 38.900479 C 138.815566 40.834399 140.333676 42.498725 141.000032 43.89896 L 142.24945 45.348712 L 143.450503 47.348655 L 143.549919 51.048686 C 143.450503 52.616729 143.617092 55.051322 144.049687 58.349714 L 144.898753 73.050804 L 144.898753 92.700857 C 145.234618 94.233138 145.350156 96.631968 145.25074 99.9001 C 145.449572 103.234254 145.933217 105.732119 146.69899 107.399196 L 152.900401 122.40014 C 154.601221 126.699879 156.766879 131.701111 159.40006 137.401084 L 166.050187 152.300243 L 165.950771 152.399277 L 166.64937 154.300185 L 168.299139 159.100597 C 168.766663 160.89972 168.965495 162.217427 168.901009 163.050965 L 169.199257 164.850088 L 169.298673 165.050908 L 169.250309 165.149942 L 169.801127 166.850031 L 169.65066 166.899548 C 170.18267 167.766098 170.816783 169.548715 171.550312 172.25015 C 171.88349 173.584362 172.050079 175.584305 172.050079 178.249978 L 171.899612 182.599234 C 171.598677 184.266311 170.832904 185.165872 169.599608 185.300669 C 161.501232 187.465669 152.948765 188.549544 143.95027 188.549544 L 139.199796 188.45051 L 138.949912 188.299207 L 138.648977 187.801285 L 138.399094 186.849455 L 138.399094 177.350416 C 137.899327 177.017551 137.450611 176.549889 137.05026 175.950181 L 136.800377 175.851147 L 136.950844 175.798879 L 136.249558 174.349127 C 135.749791 173.1167 135.400491 171.966802 135.198972 170.899433 C 134.567546 168.299783 134.116144 166.29984 133.850138 164.899605 L 133.750722 164.899605 L 133.449787 164.850088 L 133.500839 164.349415 L 128.250597 150.949525 C 126.05001 145.882271 124.765662 141.450486 124.400241 137.64867 C 123.967647 133.384694 122.882131 128.98317 121.149068 124.4496 L 121.94977 128.499002 C 122.484467 129.968011 122.965426 131.967953 123.400707 134.498829 L 126.149426 146.501235 L 126.05001 148.949583 L 125.649659 149.799627 L 125.149892 152.399277 C 125.149892 152.866939 125.867299 153.700478 127.299428 154.899893 C 128.699313 156.13232 129.400599 157.067644 129.400599 157.700363 C 129.400599 159.934136 128.766486 161.383888 127.500947 162.049618 L 123.698955 162.550292 L 114.35116 162.099136 L 102.348689 163.199517 L 88.949019 164.299898 L 82.298893 163.848741 C 81.699709 163.515876 81.232185 163.350819 80.899007 163.350819 L 74.1011 163.100482 C 74.232759 162.998697 73.899581 162.866651 73.098879 162.698843 L 66.701322 160.800686 C 65.365923 160.300013 64.017089 160.049676 62.649447 160.049676 L 53.049082 159.249149 L 50.749079 158.800744 L 48.099776 158.649441 L 45.399421 158.349587 C 44.934584 158.217542 44.700822 157.766385 44.700822 156.99887 C 44.700822 156.000274 44.832481 155.351049 45.101173 155.051195 C 45.367178 154.784353 46.584353 154.049849 48.75001 152.850433 C 47.882135 151.249379 47.449541 149.967435 47.449541 148.9991 C 47.449541 148.366381 47.516714 147.917976 47.65106 147.651133 L 47.548957 146.999157 C 47.548957 146.567258 48.349659 143.549463 49.951063 137.951275 L 50.499195 132.699706 C 50.601298 131.032629 50.851182 129.915743 51.248846 129.349046 L 51.200481 129.250012 C 51.200481 128.515508 51.533659 127.401372 52.200015 125.899352 L 52.251067 124.650419 L 51.950132 124.350566 C 51.950132 124.149746 52.049548 123.932421 52.251067 123.701341 L 52.299431 115.89964 C 52.299431 110.06762 51.767421 104.634489 50.700714 99.600246 C 49.198726 92.434015 48.199192 87.333749 47.699424 84.299448 L 47.299073 85.149493 L 47.299073 85.300795 L 47.199657 85.350312 C 45.866945 87.916951 42.666823 92.632083 37.599292 99.501212 C 35.632467 102.400716 32.765523 105.016872 29.001149 107.349679 C 26.265864 108.950734 24.000791 109.751261 22.200554 109.751261 C 17.334542 111.784215 13.900659 112.799316 11.898903 112.799316 C 8.400533 112.799316 5.383122 110.483014 2.849357 105.85041 C 0.251105 102.618041 -1.049364 100.166942 -1.049364 98.499865 C -1.049364 96.832788 -0.716186 95.267496 -0.0498298 93.801238 L 2.449006 88.450636 C 4.851112 82.516831 6.283241 79.182677 6.750765 78.450923 L 6.850181 78.599475 L 9.701003 74.59959 L 14.198907 68.850099 L 16.450546 66.099147 L 19.298681 63.650799 L 23.949739 58.201162 C 30.715404 48.765395 36.08387 41.733961 40.049763 37.101357 C 40.216352 35.599336 42.167056 33.899248 45.899188 32.001091 C 47.83377 30.966733 50.332606 29.250138 53.401069 26.851308 C 55.201305 25.915984 58.533086 24.515749 63.399098 22.650603 L 69.898757 19.998685 L 69.549457 19.451245 C 69.283452 18.917561 69.132985 18.532427 69.100742 18.301347 L 67.95074 15.649429 L 64.549099 7.049952 L 61.999212 1.300461 C 61.099094 -1.032347 60.782038 -3.032289 61.05073 -4.699366 L 61.05073 -6.399455 L 61.348978 -6.448972 L 61.550497 -6.399455 L 62.950382 -7.199982 L 64.94945 -7.79969 " transform="matrix(1.453802,0,0,1.419963,6.787286,94.356519)"/>
<path style="fill:none;stroke-width:1;stroke-linecap:round;stroke-linejoin:round;stroke:rgb(0%,0%,0%);stroke-opacity:1;stroke-miterlimit:4;" d="M 71.698993 -2.850726 L 72.349228 -2.850726 L 81.299358 -2.649907 L 81.299358 -2.300536 L 83.150646 4.499819 L 76.199584 4.499819 L 73.550281 4.100931 M 109.399167 -2.900244 L 108.050333 -2.699424 L 107.899866 -2.699424 L 104.44986 -2.60039 L 104.100561 -2.60039 L 98.149033 -2.449087 L 85.399598 -2.550873 C 86.501235 1.050124 87.132661 3.399438 87.299251 4.499819 L 95.150431 4.598853 L 95.150431 4.549336 L 107.598931 4.048662 M 109.399167 -2.900244 L 110.049402 -3.15058 L 115.100811 -4.149176 C 118.032241 -4.88368 119.733061 -5.565917 120.200585 -6.198636 L 121.60047 -6.999163 L 121.648835 -6.949646 L 120.399417 0.700753 L 120.399417 1.050124 C 119.598715 1.682843 118.867873 2.015709 118.19883 2.04872 L 114.601044 2.79973 L 114.498941 2.849247 L 114.601044 3.099584 L 113.099056 3.448955 L 110.699636 3.949628 L 107.598931 4.048662 M 148.649693 171.999814 L 153.451219 170.451027 C 155.11711 169.983365 160.149711 168.131974 168.549023 164.899605 C 168.35019 164.167852 168.266896 163.532382 168.299139 162.998697 L 167.699956 159.549003 L 165.150069 152.600097 L 165.150069 151.59875 C 163.449248 148.13255 159.40006 139.084667 152.999817 124.4496 L 147.050976 110.2987 C 145.78275 107.567004 145.016978 105.082894 144.750973 102.849121 C 144.616627 101.883537 144.549454 99.682775 144.549454 96.249586 L 144.350622 94.249644 L 144.398986 93.300565 L 144.29957 93.251048 L 144.29957 73.350657 C 144.001322 70.583199 143.700387 65.650741 143.399452 58.550533 C 143.066274 55.183367 142.899685 52.715763 142.899685 51.150471 L 142.649801 47.499957 C 141.650267 46.132734 140.932859 44.999341 140.500265 44.09978 C 138.165332 41.29931 136.617666 39.615727 135.849207 39.049031 C 132.783431 36.584177 130.432376 34.765798 128.798729 33.599394 L 121.699886 28.149757 C 118.76577 25.982007 115.917635 24.383703 113.150107 23.349345 L 113.800342 23.200794 C 114.498941 23.200794 115.334573 23.415368 116.299177 23.850018 L 117.551282 19.949168 L 117.948946 17.998742 M 106.948696 15.550395 L 106.448929 15.250541 C 106.448929 14.950687 107.467272 14.716856 109.50127 14.549048 L 114.649409 13.850306 L 117.699063 12.650891 C 118.333176 12.084195 118.8007 11.715567 119.098948 11.55051 L 119.800234 8.400669 C 120.165655 6.898649 120.367174 4.73365 120.399417 1.900169 L 118.550816 2.499876 L 117.750114 2.700696 C 117.416936 3.066572 116.14871 3.481966 113.950809 3.949628 L 107.749398 4.750155 M 108.601152 16.848844 L 108.748932 16.848844 L 109.549635 16.74981 L 109.549635 17.000147 L 109.85057 17.250483 C 108.316338 17.415541 104.398809 17.467809 98.100669 17.399035 L 97.649266 17.200966 L 97.399383 17.399035 M 112.051157 24.149872 L 112.051157 24.499243 L 112.301041 24.74958 L 110.250921 25.599624 L 107.249631 26.548703 L 99.000787 27.649084 L 98.449968 27.451015 L 98.350552 27.55005 M 108.700568 82.098686 L 112.099522 80.701203 C 112.166695 80.701203 112.249989 80.75072 112.349405 80.849754 L 112.400457 81.001056 L 112.349405 81.100091 L 112.150573 81.050573 L 111.548703 81.551247 L 103.399275 84.849639 L 92.648908 89.30068 L 79.800057 94.249644 L 79.800057 97.949675 L 79.601225 97.949675 L 79.550173 98.249528 L 79.800057 98.351314 M 117.298712 66.000112 L 117.500231 65.548956 L 117.801166 66.099147 C 117.801166 67.400347 117.66682 68.734559 117.400815 70.099032 L 117.199296 72.299794 L 117.500231 71.301198 L 117.801166 72.200759 L 117.650698 73.548726 C 118.483643 73.083815 120.017875 72.43459 122.250705 71.601052 L 127.600363 69.700144 L 127.850246 69.848695 L 127.901298 69.999997 C 127.901298 70.26684 124.432484 71.766109 117.500231 74.500556 L 117.298712 75.301083 L 117.199296 78.299621 C 116.965534 79.267956 116.833874 80.701203 116.798945 82.59936 M 144.100738 106.05123 L 144.001322 105.949444 L 143.748751 106.298815 L 135.900258 111.949272 L 131.800019 115.000078 C 130.33296 115.998674 128.734243 116.832212 127.00118 117.500694 L 126.600828 117.20084 L 126.299893 117.349392 L 126.498725 117.698763 M 142.85132 114.350853 L 142.899685 114.301336 L 143.20062 114.350853 L 143.300036 114.548922 L 140.699097 118.449773 L 138.949912 122.199321 L 135.400491 129.701168 C 134.4332 131.500291 133.600255 134.017413 132.898969 137.249782 L 132.799553 137.799972 L 132.751188 138.000792 L 132.751188 138.149343 L 131.149784 144.149171 M 147.099341 187.801285 L 148.450861 187.900319 C 152.051334 187.900319 158.816998 186.849455 168.750542 184.750478 C 170.515848 184.648693 171.399845 182.467188 171.399845 178.200461 C 171.399845 175.699845 171.284307 173.884216 171.050545 172.750824 C 170.74961 171.182781 170.016081 169.334141 168.849958 167.199402 L 157.801343 171.350589 L 157.750291 171.350589 L 157.34994 171.49914 L 155.149353 172.349185 C 147.682402 175.983193 142.682044 177.798821 140.150966 177.798821 L 138.850496 177.551236 C 138.982156 178.316001 139.049329 179.983078 139.049329 182.549716 L 139.049329 186.648636 C 139.049329 186.915478 141.416505 187.2676 146.150858 187.699499 M 142.050618 48.198699 L 138.700029 49.450382 C 137.9665 49.750236 137.216849 50.198641 136.451077 50.8011 L 132.850604 53.40075 L 132.549669 53.100896 C 132.549669 52.867065 133.651306 51.98401 135.849207 50.448978 C 138.251313 48.784652 140.048863 47.951113 141.249916 47.951113 C 141.650267 47.951113 141.916272 48.033642 142.050618 48.198699 M 107.249631 4.799672 L 102.399741 4.898707 L 96.098913 4.799672 L 96.098913 4.84919 L 96.149965 5.099526 L 87.398667 5.050009 C 88.099953 6.516267 88.465374 8.351152 88.500304 10.549163 L 88.400888 16.350922 C 88.433131 19.484257 88.59972 23.283322 88.900655 27.750869 L 88.750187 30.69989 L 87.199834 34.25137 C 86.898899 34.851077 86.632894 35.882685 86.399132 37.348942 L 85.950417 39.701007 L 86.049833 40.00086 C 86.049833 40.867411 84.633826 48.350001 81.799125 62.448633 C 81.565363 64.31653 81.482069 68.016561 81.549242 73.548726 C 81.584172 77.74943 81.334288 81.215631 80.799591 83.950077 L 80.899007 84.098629 L 80.350876 85.600649 C 79.982768 86.332402 79.800057 86.967872 79.800057 87.498806 L 79.800057 93.649936 L 91.899257 88.899041 L 107.899866 82.401291 M 50.149895 93.550902 L 51.050014 98.951021 L 52.699782 108.249241 C 52.834128 109.448656 52.901301 112.015295 52.901301 115.949157 L 52.901301 122.950331 L 54.650486 121.500579 C 55.115323 120.86786 55.598969 120.350681 56.098736 119.949042 L 57.100957 119.098997 L 57.549673 118.749626 L 57.649089 118.601075 L 61.150146 118.548807 L 64.850034 118.700109 L 65.150969 118.950446 L 64.850034 119.299817 L 58.04944 119.200783 C 57.649089 119.200783 57.283668 119.484131 56.95049 120.050827 L 55.550605 121.750916 L 52.85025 124.199263 L 51.89908 129.401314 C 51.866837 130.39991 51.565902 131.833156 50.998962 133.701053 C 50.832373 134.567603 50.700714 136.033861 50.601298 138.099826 L 48.150827 146.900123 C 48.150827 148.834043 50.550247 149.967435 55.349086 150.3003 L 61.348978 150.748706 L 61.348978 150.699189 L 62.950382 150.699189 L 64.651202 151.05131 L 71.09981 151.499716 L 78.451223 151.651018 C 78.34912 150.715694 78.300756 149.133897 78.300756 146.900123 L 78.451223 141.450486 C 77.682764 132.683201 77.301221 126.900699 77.301221 124.100229 L 77.349586 122.749511 L 77.59947 122.699994 L 77.650521 122.749511 C 77.516175 121.981996 77.483932 120.851354 77.551105 119.349334 L 77.551105 114.749741 C 76.382295 111.715441 75.799233 108.700397 75.799233 105.699108 L 76.100168 95.600361 L 75.100634 95.900215 L 74.799699 95.600361 L 76.100168 95.099688 L 76.199584 85.551132 L 76.250636 84.500268 L 76.299 84.500268 L 76.299 84.150897 C 77.266291 81.116596 77.81711 77.350542 77.948769 72.849984 L 78.050872 61.549071 C 78.182531 58.448748 78.816644 54.6992 79.950524 50.300427 L 82.79866 39.200333 L 82.79866 39.101299 C 82.79866 38.732671 83.301114 36.21555 84.300648 31.549934 C 85.300182 26.851308 85.799949 23.032986 85.799949 20.10047 C 85.799949 16.766316 85.684412 14.516037 85.45065 13.349633 L 82.949127 5.201312 L 82.949127 5.050009 L 75.449934 5.050009 L 75.20005 4.950975 L 73.700749 4.799672 L 72.550747 4.450301 L 68.549923 3.748809 L 63.350733 2.549393 L 64.901086 5.949571 L 67.450973 11.448725 L 69.04969 15.45136 M 116.798945 83.14955 L 116.798945 84.299448 C 116.632355 85.567637 116.549061 89.551017 116.549061 96.249586 L 116.549061 103.949502 C 116.549061 106.849006 117.000464 109.448656 117.900582 111.751203 L 117.650698 111.899755 L 117.999998 113.751146 C 118.266003 115.283426 118.566938 116.416819 118.900116 117.151323 L 121.450003 123.800375 C 123.08365 126.765902 124.249773 131.233449 124.95106 137.200265 C 125.383654 140.867284 126.633071 145.351337 128.699313 150.649671 L 134.151073 164.049561 L 134.151073 164.751054 L 135.698739 170.500545 C 136.300609 172.800341 136.883671 174.516935 137.450611 175.650328 L 147.550743 172.349185 M 70.750511 14.199677 L 70.900978 14.199677 L 71.250278 14.350979 L 71.301329 14.499531 L 71.150862 14.848902 C 71.849461 15.184518 73.367571 15.517383 75.699817 15.850249 L 80.049941 17.000147 L 80.299824 16.799327 C 80.501343 16.799327 80.649124 16.848844 80.751227 16.95063 L 80.799591 17.099181 M 43.599185 36.449381 L 43.650236 36.551166 L 43.300937 36.85102 C 43.365423 37.183885 43.849068 37.648796 44.749186 38.251255 L 47.000825 39.648739 L 47.199657 39.549704 L 47.500592 39.599221 M 46.949774 49.249563 L 42.349767 55.45021 L 45.050121 58.099377 L 49.09931 64.300024 L 50.700714 68.398943 C 51.466486 68.167863 52.049548 67.716707 52.449899 67.050976 C 52.783077 66.184426 53.100134 65.565462 53.401069 65.199585 C 54.266257 64.167978 54.90037 63.634293 55.300721 63.601282 L 56.098736 64.399058 C 56.832265 65.667247 58.08437 65.716764 59.849676 64.55036 L 60.749795 63.749833 C 61.082973 63.117114 61.217319 62.517407 61.150146 61.95071 L 61.150146 60.201105 C 61.150146 59.598646 61.499445 58.998938 62.200731 58.399231 C 62.799915 57.7335 63.216387 56.932973 63.450149 56.0004 C 63.350733 55.865603 63.299682 55.634523 63.299682 55.298907 L 63.299682 55.24939 L 63.200266 55.298907 L 62.899331 55.24939 L 62.799915 54.999053 C 62.799915 54.399346 63.616738 53.615324 65.250385 52.64974 L 68.149572 50.8011 L 68.149572 44.449151 L 67.300505 44.449151 C 64.532978 46.850732 62.966504 48.050147 62.601082 48.050147 L 62.050264 47.898845 L 61.999212 47.898845 L 61.80038 47.849328 L 61.649913 47.549474 C 63.082041 46.649913 63.799449 45.783363 63.799449 44.949824 L 63.648981 43.599106 L 61.899796 43.249735 L 54.599435 42.999399 L 51.799664 43.200218 L 51.498729 43.599106 L 50.950598 44.449151 L 49.599077 46.050205 C 48.900478 46.649913 48.016481 47.717282 46.949774 49.249563 M 7.599831 92.348735 L 8.800885 88.500153 L 10.601121 84.200414 C 11.165374 82.365529 13.016662 79.449519 16.149611 75.449634 L 22.600905 66.850157 C 23.632683 65.249102 24.750441 63.815856 25.948808 62.550418 L 29.100565 59.598646 L 32.800453 64.349541 C 35.667397 67.950538 37.615414 70.632716 38.649878 72.398828 L 38.950813 72.899501 M 39.300113 73.548726 L 41.798948 78.849811 C 44.066709 82.450808 45.617062 84.566291 46.450007 85.19901 L 45.498837 86.899098 C 43.967293 89.000826 43.083296 90.348793 42.849534 90.951251 C 42.150935 92.615578 40.232474 95.267496 37.099525 98.898753 C 35.267046 102.100862 32.566691 104.700512 29.001149 106.700454 C 27.566333 107.46797 24.715511 108.532589 20.448682 109.899812 L 14.849141 111.550384 M 45.450472 59.749948 L 44.399887 58.349714 C 40.732241 54.682694 38.082938 52.85056 36.449291 52.85056 C 35.850108 52.85056 33.899404 54.682694 30.599866 58.349714 C 33.799988 61.815914 36.949058 65.950595 40.049763 70.751007 L 40.200231 71.001344 M 46.001291 60.550476 L 48.400711 64.451326 C 48.932721 65.350888 49.70118 67.301313 50.700714 70.299851 C 51.767421 73.53222 52.299431 75.650454 52.299431 76.64905 C 52.299431 78.15107 51.966253 79.199182 51.299897 79.79889 L 48.048724 82.750662 L 47.750476 81.950135 L 47.449541 82.049169 L 47.449541 82.800179 L 47.500592 83.050516 L 47.449541 83.050516 L 40.299647 71.100378 M 8.400533 84.299448 C 8.400533 85.933514 8.250066 87.350255 7.949131 88.54967 L 7.54878 88.249816 C 7.54878 87.017389 7.650883 85.267784 7.849715 83.000999 L 8.099598 82.948731 C 8.301117 83.116539 8.400533 83.567695 8.400533 84.299448 M 7.599831 92.348735 L 7.750299 92.348735 C 7.884645 93.94979 9.566657 95.966238 12.799021 98.400831 L 14.150542 99.448944 M 66.300971 124.950273 L 66.599219 124.99979 L 66.800738 136.35022 L 66.800738 143.101058 C 66.932397 145.598923 66.032279 147.783179 64.100384 149.651076 L 63.799449 149.298954 L 65.849569 146.050079 C 66.083331 145.450371 66.198868 144.383002 66.198868 142.850721 L 66.198868 136.399738 L 65.948985 125.098825 L 66.300971 124.950273 M 14.749725 100.048651 L 15.999143 101.649706 L 16.149611 104.54921 C 15.915849 108.65088 15.483254 110.983687 14.849141 111.550384 M 100.948804 151.901355 L 99.449502 151.849087 L 82.10006 151.651018 L 82.151112 138.498714 L 82.151112 128.600787 C 82.049009 123.398736 81.799125 120.248895 81.398774 119.151265 L 81.148891 114.499405 C 80.415362 111.767709 79.998889 109.866801 79.899473 108.799431 L 79.800057 98.351314 M 99.849854 129.800202 L 100.000321 130.149573 M 102.60126 149.849144 C 101.499622 147.684145 100.932682 146.050079 100.900439 144.949698 L 100.650556 139.849432 L 100.400672 134.798683 C 100.532331 132.798741 100.400672 131.249954 100.000321 130.149573 " transform="matrix(1.453802,0,0,1.419963,6.787286,94.356519)"/>
</g>
</svg>
