<?xml version="1.0" encoding="UTF-8"?>
<svg xmlns="http://www.w3.org/2000/svg" xmlns:xlink="http://www.w3.org/1999/xlink" width="355px" height="648px" viewBox="0 0 355 648" version="1.1">
<g id="surface1">
<path style=" stroke:none;fill-rule:evenodd;fill:rgb(30.980393%,38.039216%,29.411766%);fill-opacity:1;" d="M 70.101562 148.527344 L 68.648438 149.167969 L 68.648438 149.097656 L 69.375 148.03125 L 70.101562 148.527344 M 168.886719 101.953125 L 169.394531 101.3125 L 168.957031 101.953125 L 168.886719 101.953125 M 186.476562 290.097656 L 186.769531 290.097656 L 186.476562 290.097656 M 118.292969 146.328125 L 118.4375 146.539062 L 117.859375 146.609375 L 118.292969 146.328125 M 170.414062 193.113281 L 169.6875 193.042969 L 170.414062 193.042969 L 170.414062 193.113281 M 117.566406 110.117188 L 118.148438 110.1875 L 117.566406 110.117188 M 116.695312 137.308594 L 116.984375 136.246094 L 117.132812 136.246094 L 117.203125 136.742188 L 117.347656 137.308594 L 116.984375 137.308594 L 116.914062 137.382812 L 116.695312 137.308594 M 101.210938 147.464844 L 100.847656 146.964844 L 100.847656 146.894531 L 101.210938 147.464844 M 117.058594 147.039062 L 116.984375 147.25 L 116.914062 147.109375 L 117.058594 147.039062 M 112.332031 174.441406 L 112.332031 174.867188 L 108.480469 175.011719 L 104.265625 175.4375 L 104.265625 175.292969 L 108.261719 174.726562 L 108.480469 174.726562 L 112.332031 174.441406 M 99.683594 177.566406 L 99.03125 177.496094 L 99.683594 177.496094 L 99.683594 177.566406 M 107.679688 181.613281 L 107.679688 180.902344 L 107.828125 181.328125 L 107.679688 181.613281 M 97.359375 273.058594 L 97.214844 273.414062 L 96.996094 273.625 L 97.359375 273.058594 M 124.546875 278.738281 L 124.472656 278.738281 L 124.398438 278.101562 L 124.546875 278.738281 M 79.984375 240.824219 L 79.621094 241.179688 L 79.550781 240.257812 L 79.984375 240.824219 M 76.714844 293.507812 L 76.570312 293.082031 L 76.640625 292.867188 L 76.496094 292.226562 C 77.757812 293.082031 81.320312 294.382812 87.183594 296.132812 L 85.945312 295.992188 C 81.292969 295.519531 78.386719 294.855469 77.222656 294.003906 L 76.714844 293.507812 M 140.683594 298.832031 L 140.609375 297.980469 L 149.332031 297.695312 L 158.347656 296.914062 L 155.148438 297.625 L 149.40625 298.191406 L 140.683594 298.832031 "/>
<path style=" stroke:none;fill-rule:evenodd;fill:rgb(0%,0%,0%);fill-opacity:1;" d="M 192.363281 153.285156 L 184.515625 154.492188 C 182.769531 155.105469 181.582031 155.910156 180.953125 156.90625 L 177.609375 161.238281 L 177.683594 161.238281 C 177.683594 161.664062 177.464844 161.898438 177.027344 161.945312 L 176.808594 161.945312 L 169.25 156.976562 L 167.578125 155.699219 L 163.433594 151.722656 L 158.054688 146.113281 C 156.746094 144.648438 156.09375 142.964844 156.09375 141.074219 L 156.601562 137.097656 L 155.148438 137.097656 L 154.640625 137.664062 L 153.402344 141.855469 L 153.695312 142.492188 L 153.402344 142.992188 C 153.789062 144.695312 155.460938 146.941406 158.417969 149.734375 L 164.671875 155.058594 L 165.105469 154.917969 C 165.398438 154.917969 166.050781 155.367188 167.070312 156.265625 L 171.140625 160.242188 C 173.367188 162.515625 175.429688 163.886719 177.316406 164.359375 L 177.609375 164.433594 C 177.949219 162.871094 179.960938 160.835938 183.640625 158.324219 C 188.199219 155.203125 192.511719 153.78125 196.582031 154.066406 L 198.109375 153.996094 L 199.34375 154.136719 L 198.324219 152.929688 L 197.378906 153 L 196.507812 152.789062 L 192.363281 153.285156 M 195.78125 151.582031 L 196.652344 151.652344 L 197.089844 151.4375 L 196.652344 150.941406 L 193.308594 146.824219 L 181.679688 136.316406 L 177.246094 132.554688 L 176.519531 131.914062 L 175.792969 131.277344 L 172.8125 128.363281 L 172.449219 128.082031 L 171.648438 127.300781 L 170.703125 128.933594 L 168.667969 130.921875 L 166.050781 132.695312 L 166.125 132.765625 L 163.652344 133.476562 L 162.707031 133.335938 C 162.320312 133.335938 162.054688 133.453125 161.90625 133.691406 L 161.691406 133.761719 L 159.074219 134.753906 L 159.292969 135.960938 L 159.363281 137.097656 L 158.199219 137.097656 L 158.347656 135.960938 L 158.492188 134.894531 L 157.253906 135.324219 L 157.621094 135.960938 L 157.328125 137.097656 L 157.835938 137.097656 L 157.546875 141.214844 C 157.546875 142.917969 159.242188 145.476562 162.636719 148.882812 L 162.851562 149.097656 L 163 149.238281 L 165.398438 151.511719 L 170.703125 155.910156 L 176.375 160.3125 C 176.761719 159.035156 177.851562 157.640625 179.644531 156.125 L 182.769531 153.496094 C 184.660156 152.21875 188.996094 151.582031 195.78125 151.582031 M 119.382812 136.175781 L 121.054688 136.175781 L 121.128906 136.671875 C 122.339844 137.523438 124.0625 139.675781 126.289062 143.132812 L 130.871094 146.328125 L 134.285156 149.167969 L 144.679688 142.210938 L 150.859375 138.375 L 153.183594 136.246094 L 151.078125 136.386719 C 148.21875 136.386719 146.28125 135.867188 145.261719 134.824219 C 144.730469 134.542969 144.292969 133.238281 143.953125 130.921875 L 143.152344 124.671875 L 141.699219 114.519531 L 141.699219 113.101562 C 141.796875 112.675781 141.964844 112.367188 142.207031 112.175781 L 142.5 111.113281 L 142.28125 110.828125 L 142.28125 110.332031 L 142.863281 109.976562 L 142.863281 109.835938 L 143.007812 109.835938 L 151.730469 103.871094 L 157.183594 99.679688 L 159.507812 97.621094 L 159 97.550781 C 159 96.984375 159.726562 96.699219 161.179688 96.699219 C 164.1875 96.699219 166.65625 97.292969 168.59375 98.472656 L 170.414062 99.894531 C 171.042969 100.320312 171.453125 101.859375 171.648438 104.507812 C 172.132812 106.023438 172.351562 108.25 172.300781 111.183594 L 172.519531 112.886719 C 172.859375 112.933594 173.03125 113.195312 173.03125 113.667969 L 172.375 123.535156 L 172.300781 125.167969 L 172.15625 126.09375 L 177.246094 130.210938 L 177.246094 130.351562 L 182.914062 135.394531 L 193.527344 145.121094 C 194.15625 145.308594 194.957031 146.042969 195.925781 147.320312 L 198.253906 150.445312 L 201.015625 153.070312 C 201.742188 153.828125 202.179688 154.609375 202.324219 155.414062 L 202.6875 155.628906 L 202.324219 156.195312 L 201.667969 156.621094 L 200.871094 155.910156 L 198.109375 155.558594 C 191.128906 155.558594 186.066406 157.261719 182.914062 160.667969 C 181.269531 163.414062 179.933594 165.046875 178.917969 165.566406 C 179.402344 167.507812 180.03125 172.097656 180.808594 179.339844 C 181.96875 184.453125 182.550781 189.421875 182.550781 194.25 L 182.550781 194.605469 L 182.699219 195.03125 L 179.570312 207.882812 L 178.117188 214.273438 L 177.972656 220.519531 L 176.15625 228.472656 C 177.222656 229.324219 178.796875 235.074219 180.878906 245.722656 C 180.878906 246.386719 180.25 247.476562 178.988281 248.992188 C 179.28125 249.320312 179.523438 250.199219 179.71875 251.617188 C 181.171875 252.421875 182.722656 256.113281 184.371094 262.691406 L 182.914062 265.746094 C 184.273438 267.261719 185.75 270.90625 187.347656 276.679688 C 187.738281 277.058594 187.929688 277.722656 187.929688 278.667969 L 187.929688 278.738281 L 187.640625 282.429688 L 187.929688 287.683594 L 188.65625 290.523438 L 188.148438 292.085938 C 189.3125 293.128906 190.523438 295.824219 191.785156 300.179688 C 192.316406 301.882812 192.582031 304.722656 192.582031 308.699219 C 192.390625 313.195312 192.027344 316.105469 191.492188 317.433594 L 191.492188 317.644531 L 190.984375 318.214844 L 190.765625 318.285156 L 184.878906 319.351562 L 174.046875 320.984375 L 163.507812 321.90625 L 153.113281 322.542969 L 148.242188 323.398438 L 146.644531 323.324219 L 127.089844 324.035156 C 104.507812 324.035156 89.21875 322.164062 81.222656 318.425781 C 76.230469 316.105469 73.734375 312.558594 73.734375 307.777344 C 73.734375 305.835938 74.027344 303.847656 74.605469 301.8125 L 75.480469 298.121094 L 75.261719 294.785156 L 74.96875 292.226562 L 74.679688 292.226562 C 74.195312 291.375 73.785156 290.121094 73.445312 288.464844 L 72.425781 286.621094 L 71.992188 283.992188 L 73.878906 278.738281 L 73.296875 278.738281 L 72.425781 272.417969 C 72.476562 270.382812 72.597656 268.371094 72.789062 266.386719 L 73.082031 263.6875 C 73.128906 263.261719 73.542969 262.410156 74.316406 261.132812 L 74.96875 260.066406 L 74.390625 258.078125 C 74.390625 256.375 75.019531 254.597656 76.277344 252.753906 C 77.492188 250.859375 78.097656 248.515625 78.097656 245.722656 L 77.078125 237.558594 C 77.078125 237.132812 77.222656 236.875 77.515625 236.777344 L 75.769531 233.085938 C 75.480469 232.1875 75.335938 230.484375 75.335938 227.976562 C 75.335938 225.941406 75.429688 224.660156 75.625 224.140625 L 77.441406 219.457031 L 78.824219 215.691406 L 79.914062 211.289062 C 79.429688 208.6875 79.1875 206.722656 79.1875 205.398438 C 78.460938 202.464844 78.097656 200.570312 78.097656 199.71875 L 78.386719 199.078125 L 77.804688 193.398438 C 77.804688 192.640625 78.023438 192.238281 78.460938 192.191406 L 77.949219 191.695312 L 81.511719 189.140625 L 82.023438 189.351562 L 83.695312 187.859375 L 83.839844 187.71875 L 84.128906 187.789062 L 84.710938 187.71875 L 89.800781 188.074219 L 93.359375 187.71875 C 94.039062 187.386719 94.621094 186.394531 95.105469 184.738281 L 95.976562 181.472656 L 95.832031 180.546875 L 95.6875 180.335938 L 95.6875 179.839844 L 95.761719 179.765625 L 95.832031 179.625 L 97.285156 177.425781 L 96.851562 177.140625 L 96.777344 176.785156 L 97.941406 176.359375 L 98.230469 174.585938 L 98.667969 173.449219 C 98.910156 173.023438 99.394531 172.550781 100.121094 172.027344 L 102.300781 170.394531 L 105.574219 166.773438 L 105.644531 166.5625 L 105.5 166.417969 L 105.644531 165.851562 L 105.644531 164.503906 L 105.9375 162.160156 L 105.644531 158.253906 L 105.644531 157.472656 L 105.5 157.117188 L 104.773438 156.976562 C 100.460938 160.859375 97.890625 162.796875 97.070312 162.796875 L 96.269531 162.089844 C 96.269531 161.757812 97.382812 160.574219 99.613281 158.539062 L 99.976562 157.472656 C 99.976562 156.621094 97.769531 156.148438 93.359375 156.054688 C 93.214844 155.535156 92.730469 154.964844 91.90625 154.351562 C 90.839844 153.59375 89.605469 153.144531 88.199219 153 C 83.546875 150.585938 80.058594 149.378906 77.734375 149.378906 L 70.171875 150.089844 L 68.066406 150.730469 L 67.847656 150.730469 C 67.796875 152.339844 67.289062 153.144531 66.320312 153.144531 C 65.882812 153.144531 65.617188 153 65.519531 152.71875 L 65.519531 152.21875 L 66.828125 149.878906 L 66.828125 149.523438 C 66.828125 149.191406 67.21875 148.480469 67.992188 147.390625 L 69.011719 145.972656 L 69.519531 145.261719 C 71.410156 142.800781 72.910156 141.5 74.027344 141.355469 L 75.261719 140.222656 L 78.023438 137.808594 C 80.980469 135.441406 83.085938 133.972656 84.347656 133.40625 C 86.09375 132.601562 89.265625 131.417969 93.871094 129.855469 L 94.523438 129.644531 L 98.085938 128.507812 L 98.085938 129.074219 L 101.210938 128.292969 L 101.066406 126.875 C 101.066406 122.378906 101.503906 118 102.375 113.738281 C 102.90625 109.859375 103.34375 107.65625 103.683594 107.136719 C 104.121094 106.425781 105.5 105.359375 107.828125 103.941406 C 109.863281 102.710938 111.460938 101.976562 112.625 101.742188 C 112.625 101.171875 112.867188 100.886719 113.351562 100.886719 L 119.964844 106.285156 L 119.53125 110.046875 C 120.015625 110.09375 120.257812 110.332031 120.257812 110.757812 L 120.257812 110.828125 C 120.257812 113.101562 119.867188 116.816406 119.09375 121.976562 L 119.238281 133.121094 L 119.238281 135.25 L 119.09375 135.605469 L 118.949219 135.820312 L 118.65625 135.960938 L 118.730469 136.175781 L 118.730469 136.246094 L 119.019531 137.308594 L 118.4375 137.308594 L 116.765625 142.210938 L 116.839844 142.636719 L 116.039062 143.34375 L 115.460938 143.628906 L 106.445312 147.390625 L 92.925781 151.722656 C 92.390625 151.722656 90.382812 150.894531 86.890625 149.238281 C 83.402344 147.582031 79.015625 146.753906 73.734375 146.753906 C 71.84375 146.753906 70.585938 146.917969 69.953125 147.25 L 69.375 148.03125 L 68.648438 149.097656 L 68.574219 149.167969 L 68.648438 149.167969 L 70.101562 148.527344 L 75.117188 147.960938 C 78.652344 147.960938 82.699219 148.953125 87.253906 150.941406 C 89.773438 152.03125 91.519531 152.929688 92.488281 153.640625 C 94.425781 152.929688 98.910156 151.535156 105.9375 149.449219 L 106.808594 149.238281 L 109.136719 148.03125 C 109.425781 148.03125 109.644531 148.101562 109.789062 148.242188 C 116.863281 145.925781 120.402344 143.84375 120.402344 141.996094 L 119.820312 138.089844 L 119.675781 137.59375 L 119.382812 136.957031 L 119.53125 136.882812 L 119.382812 136.175781 M 169.394531 101.3125 L 169.25 100.605469 C 168.621094 99.515625 165.882812 98.59375 161.035156 97.835938 C 160.9375 99.492188 158.371094 101.8125 153.332031 104.792969 L 147.152344 108.839844 L 154.421875 105.789062 L 154.710938 105.714844 L 154.347656 106.070312 L 158.78125 104.582031 L 168.886719 101.953125 L 168.957031 101.953125 L 169.394531 101.3125 M 160.816406 105.929688 L 153.113281 108.128906 C 153.5 108.367188 153.816406 109.078125 154.058594 110.261719 L 154.277344 110.261719 L 154.785156 112.675781 L 155.875 120.910156 L 157.765625 131.703125 L 157.328125 132.339844 L 157.328125 132.910156 L 157.546875 133.335938 L 157.621094 133.335938 L 158.128906 133.476562 L 158.128906 133.617188 L 158.273438 133.546875 L 158.925781 133.335938 L 162.488281 131.984375 L 166.488281 130.28125 L 166.414062 130.421875 L 166.488281 130.351562 L 169.324219 127.65625 C 170.339844 126.425781 170.847656 125.027344 170.847656 123.464844 L 170.921875 123.464844 L 171.285156 118.355469 L 171.359375 115.726562 L 171.210938 115.726562 L 171.066406 114.734375 L 169.539062 103.941406 L 168.085938 104.4375 C 167.601562 104.4375 167.285156 104.34375 167.140625 104.152344 L 162.125 105.574219 L 161.691406 105.433594 C 161.15625 105.433594 160.867188 105.597656 160.816406 105.929688 M 147.152344 108.839844 L 143.664062 110.96875 L 143.664062 111.324219 L 147.152344 108.839844 M 151.511719 134.894531 L 156.527344 134.042969 C 155.609375 132.246094 154.929688 128.105469 154.492188 121.621094 L 153.402344 114.875 L 151.367188 108.628906 L 148.242188 109.835938 L 147.078125 110.898438 C 147.855469 111.703125 148.363281 115.65625 148.605469 122.753906 L 151.441406 134.683594 L 151.441406 134.894531 L 151.511719 134.894531 M 143.152344 114.589844 C 143.152344 117.714844 144.050781 123.726562 145.84375 132.625 L 145.988281 133.261719 C 146.230469 134.304688 147.710938 134.847656 150.421875 134.894531 C 149.839844 133.335938 148.800781 129.523438 147.296875 123.464844 C 146.425781 120.625 145.988281 116.722656 145.988281 111.75 L 144.246094 112.886719 L 143.152344 114.589844 M 152.53125 139.441406 C 150.933594 140.527344 148.847656 141.734375 146.28125 143.0625 C 138.621094 148.125 134.550781 150.65625 134.066406 150.65625 L 133.703125 150.65625 C 133.121094 150.65625 130.117188 148.363281 124.691406 143.769531 C 123.867188 143.109375 122.875 141.972656 121.710938 140.363281 L 121.855469 142.066406 L 121.636719 143.0625 C 122.703125 143.769531 124.519531 145.308594 127.089844 147.675781 L 130.652344 149.878906 C 132.300781 150.824219 133.121094 151.675781 133.121094 152.433594 L 133.050781 152.859375 C 133.390625 153.425781 133.511719 155.105469 133.414062 157.898438 C 133.414062 160.21875 133.195312 162.371094 132.757812 164.359375 C 132.371094 166.253906 132.203125 169 132.25 172.597656 C 132.25 175.816406 131.476562 180.691406 129.925781 187.222656 C 127.890625 199.625 126.871094 209.351562 126.871094 216.402344 C 126.871094 217.160156 126.703125 217.609375 126.363281 217.75 L 126.582031 221.65625 L 125.125 239.40625 C 125.125 241.015625 125.367188 243.664062 125.855469 247.359375 L 125.855469 247.570312 L 126.871094 247.570312 L 126.652344 246.222656 L 126.652344 244.019531 C 127.332031 235.925781 127.621094 229.914062 127.527344 225.988281 C 127.332031 217.796875 127.453125 212.402344 127.890625 209.800781 L 127.816406 209.726562 C 127.816406 205.421875 128.226562 202.0625 129.050781 199.648438 L 130.433594 193.46875 L 130.796875 191.835938 L 131.160156 190.628906 C 133.582031 182.582031 134.792969 174.5625 134.792969 166.5625 L 134.503906 160.457031 L 135.085938 156.195312 L 135.8125 152.71875 L 135.375 152.289062 C 135.375 151.816406 136.734375 150.800781 139.445312 149.238281 C 141.773438 147.867188 143.179688 147.109375 143.664062 146.964844 C 147.636719 144.597656 150.351562 143.039062 151.804688 142.28125 L 152.53125 139.441406 M 175.644531 231.242188 C 175.890625 233.890625 175.523438 235.21875 174.554688 235.21875 L 173.828125 234.222656 L 174.339844 231.027344 L 173.609375 230.175781 C 173.851562 228.378906 174.242188 226.980469 174.773438 225.988281 C 175.550781 222.957031 176.179688 220.851562 176.664062 219.667969 C 176.324219 215.738281 176.882812 211.480469 178.335938 206.886719 L 179.933594 199.222656 C 180.371094 197.136719 180.808594 195.71875 181.242188 194.960938 L 180.445312 190.203125 L 179.71875 181.398438 L 177.972656 168.90625 L 178.191406 168.335938 L 177.828125 168.125 L 177.683594 166.917969 L 177.683594 165.566406 C 175.9375 165.425781 173.273438 163.886719 169.6875 160.953125 L 165.980469 157.6875 C 164.71875 157.214844 161.519531 154.632812 156.382812 149.949219 C 154.058594 147.769531 152.628906 145.78125 152.09375 143.984375 L 145.480469 147.675781 L 137.121094 152.574219 L 137.121094 153.496094 L 136.539062 157.402344 L 135.957031 160.667969 L 136.25 166.5625 L 135.304688 180.050781 L 132.6875 189.992188 L 132.6875 190.558594 L 130.433594 200.5 C 129.996094 202.296875 129.683594 204.710938 129.488281 207.742188 L 129.414062 208.804688 L 129.414062 209.160156 C 129.125 231.644531 128.617188 244.445312 127.890625 247.570312 L 135.085938 247.640625 L 145.988281 247.5 L 146.425781 247.429688 L 147.152344 247.144531 L 150.566406 246.859375 L 152.605469 245.9375 C 153.332031 245.9375 153.695312 246.175781 153.695312 246.648438 L 153.695312 246.789062 L 153.402344 246.71875 L 152.3125 247.855469 L 135.304688 249.132812 L 128.832031 249.0625 L 128.832031 249.132812 L 128.179688 253.25 C 127.839844 253.390625 127.671875 253.652344 127.671875 254.03125 L 127.960938 254.316406 L 127.234375 258.148438 C 127.234375 260.089844 127.5 262.148438 128.035156 264.324219 C 128.808594 264.375 129.199219 264.988281 129.199219 266.171875 L 129.199219 266.667969 L 128.832031 269.011719 L 130.070312 273.699219 L 130.503906 277.320312 L 130.652344 278.738281 L 130.652344 287.683594 L 130.578125 288.605469 L 130.578125 292.226562 L 129.996094 292.226562 L 130.652344 295.777344 L 130.652344 296.273438 L 137.847656 296.558594 L 165.035156 294.714844 L 165.613281 294.570312 L 165.6875 294.570312 L 168.449219 294.074219 L 174.121094 292.796875 L 176.519531 292.226562 L 186.476562 290.097656 L 186.769531 290.097656 L 186.332031 287.683594 L 186.476562 287.683594 C 186.332031 286.691406 186.257812 285.222656 186.257812 283.28125 C 185.871094 281.484375 185.628906 279.96875 185.53125 278.738281 L 185.386719 276.964844 C 185.386719 276.679688 185.460938 276.464844 185.605469 276.324219 L 184.515625 273.699219 L 181.605469 268.371094 L 179.207031 273.273438 L 179.207031 273.34375 L 178.699219 273.273438 C 178.117188 273.273438 177.828125 273.601562 177.828125 274.265625 L 178.191406 274.761719 C 177.753906 274.667969 177.535156 274.265625 177.535156 273.554688 L 178.699219 270.785156 L 179.933594 267.734375 L 180.589844 266.386719 L 180.445312 265.886719 C 180.445312 265.320312 180.710938 265.011719 181.242188 264.964844 L 182.332031 262.195312 L 178.625 253.390625 L 178.191406 253.675781 L 177.898438 250.199219 L 176.375 251.6875 L 169.324219 256.660156 L 168.886719 256.515625 C 168.402344 256.515625 168.160156 256.730469 168.160156 257.15625 L 168.304688 257.367188 L 168.230469 257.367188 C 167.699219 257.367188 167.433594 257.132812 167.433594 256.660156 C 167.433594 256.5625 169.445312 255 173.464844 251.972656 C 177.4375 248.894531 179.425781 246.765625 179.425781 245.582031 L 177.609375 237.347656 L 175.71875 231.242188 L 175.71875 231.027344 L 175.644531 231.242188 M 166.414062 173.378906 L 166.488281 173.378906 L 167.070312 173.589844 L 167.941406 173.234375 L 171.867188 172.738281 L 172.8125 172.808594 L 172.882812 172.738281 L 173.609375 173.023438 L 173.683594 173.449219 L 173.683594 173.519531 L 171.722656 194.675781 C 171.1875 199.929688 170.945312 203.480469 170.996094 205.328125 C 171.140625 211.148438 170.847656 214.53125 170.121094 215.480469 L 169.539062 215.410156 L 168.886719 215.691406 L 140.464844 214.769531 C 140.171875 214.25 139.785156 213.988281 139.300781 213.988281 L 138.71875 214.273438 L 138.648438 213.917969 L 138.648438 213.773438 C 138.648438 206.914062 139.300781 200.097656 140.609375 193.328125 C 140.707031 188.738281 140.875 185.304688 141.117188 183.03125 L 141.554688 176.785156 C 141.796875 174.183594 142.28125 172.878906 143.007812 172.878906 C 143.492188 172.878906 143.734375 173.117188 143.734375 173.589844 L 143.734375 174.230469 L 144.171875 174.160156 L 162.636719 173.589844 L 166.414062 173.378906 M 157.546875 259.144531 C 157.691406 259.332031 157.957031 259.425781 158.347656 259.425781 C 158.832031 259.425781 159.074219 259.191406 159.074219 258.71875 L 159.21875 258.503906 L 164.886719 256.445312 L 165.613281 257.226562 L 165.324219 257.226562 C 164.839844 257.226562 164.597656 257.464844 164.597656 257.9375 L 164.671875 258.078125 L 155.148438 261.484375 C 149.140625 263.09375 143.128906 263.921875 137.121094 263.972656 L 136.976562 263.757812 C 136.828125 263.472656 136.464844 263.332031 135.886719 263.332031 C 135.59375 263.332031 135.425781 263.449219 135.375 263.6875 L 135.304688 263.617188 L 135.230469 263.261719 C 135.230469 262.691406 137.75 262.171875 142.789062 261.699219 L 154.566406 260.136719 L 157.546875 259.144531 M 120.183594 247.285156 L 120.839844 247.5 L 121.203125 247.359375 L 124.253906 247.5 C 123.820312 246.078125 123.625 243.359375 123.671875 239.335938 C 123.671875 235.59375 123.914062 231.714844 124.398438 227.691406 L 125.125 221.65625 L 124.835938 217.964844 L 125.125 216.898438 L 125.273438 212.851562 C 125.273438 210.34375 125.902344 204.804688 127.160156 196.238281 C 128.324219 188.664062 129.078125 184.144531 129.414062 182.679688 C 130.335938 179.128906 130.796875 176.597656 130.796875 175.082031 C 130.796875 170.917969 130.871094 168.429688 131.015625 167.625 L 131.378906 162.515625 L 131.597656 160.597656 L 131.523438 160.171875 C 131.8125 156.480469 132.105469 154.136719 132.394531 153.144531 L 125.273438 148.386719 L 120.621094 144.480469 L 118.4375 146.183594 L 118.292969 146.328125 L 117.859375 146.609375 L 117.058594 147.039062 L 116.914062 147.109375 C 115.214844 148.007812 113.328125 148.71875 111.242188 149.238281 L 108.042969 150.230469 L 107.972656 150.160156 L 106.882812 150.375 L 106.664062 150.375 L 106.664062 150.445312 L 106.808594 150.585938 L 93.796875 154.5625 C 98.546875 154.753906 101.089844 155.558594 101.429688 156.976562 C 102.691406 155.886719 103.585938 155.34375 104.121094 155.34375 L 105.71875 155.558594 L 105.9375 155.484375 L 106.953125 155.769531 C 107.730469 156.242188 107.972656 157.425781 107.679688 159.320312 L 107.464844 162.65625 L 107.535156 164.003906 L 107.246094 166.347656 L 107.246094 166.988281 C 107.246094 167.414062 107.101562 167.648438 106.808594 167.699219 L 103.828125 170.964844 L 100.921875 173.660156 L 107.753906 173.164062 C 107.898438 173.355469 108.140625 173.449219 108.480469 173.449219 L 109.136719 173.09375 L 115.242188 173.023438 L 120.910156 173.164062 L 121.054688 173.378906 L 121.128906 173.734375 L 120.839844 173.804688 C 121.175781 173.898438 121.324219 174.109375 121.273438 174.441406 L 121.054688 174.585938 C 121.589844 176.761719 121.734375 183.082031 121.492188 193.539062 L 121.566406 203.480469 L 121.566406 208.449219 C 121.566406 210.105469 121.757812 211.738281 122.148438 213.347656 L 121.929688 213.917969 L 121.273438 213.703125 L 120.984375 213.988281 L 120.984375 214.058594 L 119.601562 215.335938 L 117.929688 216.472656 L 117.566406 216.261719 L 114.441406 216.472656 L 103.757812 215.90625 L 94.378906 215.761719 L 93.726562 214.839844 C 93.480469 214.839844 93.3125 214.933594 93.214844 215.125 L 93.214844 215.054688 L 93.359375 214.839844 C 93.167969 214.035156 93.046875 212.734375 92.996094 210.933594 L 92.632812 203.339844 C 92.148438 200.074219 91.859375 196.757812 91.761719 193.398438 L 91.835938 192.972656 L 91.6875 192.476562 L 91.6875 190.914062 C 91.6875 190.15625 91.808594 189.660156 92.054688 189.421875 L 90.164062 189.566406 L 84.058594 189.140625 L 83.113281 190.347656 L 83.113281 190.628906 L 81.949219 191.765625 L 81.367188 192.121094 L 79.332031 193.328125 L 79.257812 193.328125 L 80.132812 197.375 L 79.695312 197.730469 C 79.695312 198.109375 79.914062 198.367188 80.351562 198.511719 L 80.496094 199.574219 L 80.277344 199.859375 L 80.566406 200.355469 L 81.292969 206.675781 L 81.441406 207.597656 L 81.367188 207.667969 L 81.65625 211.148438 C 81.65625 212 80.929688 214.746094 79.476562 219.382812 C 77.976562 224.070312 77.222656 226.933594 77.222656 227.976562 C 77.222656 232.851562 79.355469 237.511719 83.621094 241.960938 L 85.582031 243.949219 C 86.648438 245.699219 87.667969 246.671875 88.636719 246.859375 L 88.78125 247.003906 L 89.871094 248.777344 L 90.960938 249.488281 C 92.367188 250.339844 93.09375 251.167969 93.144531 251.972656 L 94.960938 253.25 L 101.867188 255.949219 L 102.085938 255.664062 L 104.335938 256.089844 C 107.679688 256.753906 109.765625 257.296875 110.589844 257.722656 C 111.800781 258.339844 113.738281 258.8125 116.402344 259.144531 C 118.488281 259.425781 119.53125 259.78125 119.53125 260.207031 L 119.457031 260.5625 C 119.359375 260.375 119.167969 260.277344 118.875 260.277344 L 118.875 260.351562 L 118.511719 260.277344 L 114.949219 260.421875 L 109.570312 258.859375 L 103.464844 257.15625 C 103.367188 257.390625 103.078125 257.511719 102.59375 257.511719 L 100.777344 257.296875 L 95.542969 255.238281 L 94.234375 254.101562 L 93.652344 254.246094 C 90.164062 252.351562 88.417969 250.976562 88.417969 250.125 L 88.492188 249.769531 L 85.582031 247.074219 L 85.582031 247.003906 L 84.492188 245.9375 C 82.554688 243.949219 81.078125 242.269531 80.058594 240.898438 L 79.984375 240.824219 L 79.550781 240.257812 L 79.621094 241.179688 L 79.839844 245.796875 C 79.839844 247.640625 79.621094 249.296875 79.1875 250.765625 C 78.605469 250.765625 78.3125 251.003906 78.3125 251.476562 L 78.824219 251.757812 L 78.023438 253.464844 C 76.761719 255.59375 76.132812 257.085938 76.132812 257.9375 L 76.425781 259.144531 L 76.789062 259.996094 L 76.789062 260.136719 L 77.296875 261.34375 L 79.695312 263.261719 C 80.375 263.921875 81.777344 264.609375 83.910156 265.320312 L 84.058594 265.390625 C 85.753906 266.007812 86.601562 266.714844 86.601562 267.519531 L 95.613281 271.921875 L 96.195312 272.5625 L 95.613281 272.632812 L 93.796875 272.703125 L 88.492188 270.078125 L 85.21875 268.371094 L 84.203125 268.160156 L 83.765625 268.019531 C 82.75 266.976562 82.046875 266.457031 81.65625 266.457031 L 81.222656 266.597656 L 78.167969 264.183594 L 77.441406 264.539062 C 76.859375 264.539062 76.304688 263.828125 75.769531 262.410156 L 75.042969 263.617188 L 74.753906 267.734375 L 74.460938 267.519531 C 73.976562 267.519531 73.734375 267.757812 73.734375 268.230469 C 73.734375 268.609375 74 269.035156 74.535156 269.507812 L 74.171875 272.277344 C 74.171875 274.503906 74.605469 276.65625 75.480469 278.738281 L 74.824219 278.738281 L 74.824219 278.808594 L 73.296875 283.992188 C 73.296875 285.035156 73.855469 286.265625 74.96875 287.683594 L 75.480469 287.683594 L 75.625 288.109375 L 76.496094 290.453125 L 91.542969 292.226562 L 101.429688 293.433594 L 123.527344 295.707031 L 123.601562 295.707031 L 124.398438 296.0625 L 125.054688 295.847656 L 126.871094 295.992188 L 126.726562 295.140625 L 126.726562 292.015625 L 126.582031 291.519531 L 126.726562 291.519531 L 126.726562 291.234375 L 126.945312 291.234375 L 126.796875 287.683594 L 126.289062 281.71875 L 126.289062 279.519531 L 126.433594 278.738281 L 126.726562 277.886719 L 125.855469 272.703125 L 124.980469 268.726562 L 124.980469 268.65625 L 124.691406 266.738281 L 124.691406 266.03125 L 124.835938 265.605469 L 124.035156 262.480469 C 123.648438 262.007812 123.359375 261.179688 123.164062 259.996094 L 122.800781 257.011719 C 122.847656 255.878906 122.96875 254.789062 123.164062 253.746094 L 123.453125 253.179688 L 123.308594 252.894531 L 123.382812 252.539062 C 123.722656 250.789062 124.132812 249.582031 124.617188 248.917969 L 113.496094 247.996094 L 110.152344 247.5 L 108.480469 246.222656 C 107.996094 246.222656 107.730469 246.410156 107.679688 246.789062 L 106.808594 246.078125 C 106.808594 245.605469 107.101562 245.371094 107.679688 245.371094 C 109.957031 245.371094 112.1875 245.820312 114.367188 246.71875 L 119.09375 247.214844 L 120.183594 247.285156 M 154.640625 135.960938 L 155.367188 135.960938 L 155.4375 135.820312 L 154.640625 135.960938 M 175.5 153.851562 L 174.773438 153.214844 C 174.628906 153.070312 173.902344 153.070312 172.59375 153.214844 L 174.046875 154.988281 L 175.5 153.851562 M 171.722656 154.632812 L 171.9375 151.863281 L 173.394531 151.582031 C 175.71875 151.582031 176.980469 152.316406 177.171875 153.78125 C 176.542969 155.863281 175.742188 156.90625 174.773438 156.90625 C 173.707031 156.90625 172.761719 156.289062 171.9375 155.058594 L 171.722656 154.632812 M 162.269531 175.863281 L 161.542969 185.019531 L 161.542969 190.914062 L 170.558594 191.695312 C 171.332031 182.703125 171.964844 176.902344 172.449219 174.300781 L 162.34375 175.4375 L 162.269531 175.863281 M 160.089844 190.914062 L 159.945312 182.535156 C 160.042969 178.796875 160.355469 176.453125 160.890625 175.507812 L 151.003906 175.71875 L 151.003906 175.792969 L 149.839844 185.445312 L 149.839844 191.554688 L 155.65625 190.84375 L 160.089844 190.914062 M 158.492188 192.332031 L 149.839844 192.972656 L 149.839844 196.167969 L 160.089844 196.167969 L 160.089844 192.476562 L 158.492188 192.332031 M 156.238281 197.660156 L 149.839844 198.085938 C 149.792969 206.273438 149.503906 211.265625 148.96875 213.066406 C 153.332031 213.066406 157.039062 213.136719 160.089844 213.277344 L 159.945312 212.496094 L 159.945312 211.789062 L 159.800781 211.503906 L 159.800781 210.4375 L 160.089844 197.585938 L 156.238281 197.660156 M 161.542969 197.585938 L 161.179688 210.082031 L 161.542969 213.207031 L 161.542969 213.347656 L 169.03125 214.203125 L 169.539062 209.726562 L 169.539062 204.402344 L 170.121094 197.019531 L 168.015625 197.160156 L 161.542969 197.585938 M 169.6875 193.042969 L 161.542969 192.546875 L 161.542969 196.097656 L 167.867188 195.671875 L 170.195312 195.882812 L 170.339844 193.824219 L 170.414062 193.113281 L 170.414062 193.042969 L 169.6875 193.042969 M 143.664062 175.71875 L 142.574219 183.886719 C 142.332031 185.824219 142.136719 188.832031 141.992188 192.902344 L 148.242188 191.765625 L 148.386719 191.765625 C 148.4375 183.058594 148.824219 177.707031 149.550781 175.71875 L 143.664062 175.71875 M 141.628906 196.167969 L 148.386719 196.167969 L 148.386719 193.1875 L 142.789062 194.039062 L 141.917969 194.039062 L 141.917969 194.179688 L 141.628906 196.167969 M 146.714844 198.296875 L 141.410156 197.730469 L 140.390625 204.476562 L 140.464844 210.722656 L 140.320312 213.347656 L 146.207031 213.066406 L 147.734375 213.066406 L 147.660156 212.78125 L 147.660156 211.714844 L 148.386719 202.414062 L 148.386719 198.226562 L 146.714844 198.296875 M 111.386719 110.1875 L 110.226562 118.425781 L 110.660156 129.429688 L 110.515625 132.765625 L 112.117188 133.40625 L 114.367188 133.972656 L 114.367188 133.761719 L 114.660156 123.820312 L 114.222656 112.035156 L 114.222656 111.539062 L 114.660156 111.183594 L 114.660156 111.042969 L 111.460938 109.976562 L 111.386719 109.976562 L 111.386719 110.1875 M 117.929688 134.398438 L 117.640625 130.496094 L 117.640625 125.027344 C 117.640625 121.195312 117.785156 118.636719 118.074219 117.359375 L 118.292969 113.171875 L 118.511719 111.539062 L 118.4375 111.539062 L 116.113281 111.324219 L 116.113281 111.394531 L 115.824219 112.816406 C 116.160156 114.804688 116.257812 118.519531 116.113281 123.960938 C 116.257812 129.3125 116.113281 132.71875 115.675781 134.1875 L 117.566406 134.398438 L 117.929688 134.46875 L 117.929688 134.398438 M 109.933594 109.335938 C 107.800781 108.4375 106.398438 107.75 105.71875 107.277344 L 104.847656 107.988281 C 104.554688 108.554688 104.214844 110.640625 103.828125 114.234375 C 102.957031 120.625 102.519531 124.816406 102.519531 126.800781 C 102.519531 127.558594 103.054688 128.292969 104.121094 129.003906 L 108.191406 131.417969 L 108.988281 131.914062 L 109.207031 129.5 C 108.917969 125.335938 108.773438 121.597656 108.773438 118.28125 L 109.0625 113.597656 C 109.304688 111.417969 109.644531 110.023438 110.078125 109.40625 L 109.933594 109.335938 M 118.148438 110.1875 L 118.367188 107.066406 C 118.367188 106.6875 117.421875 105.789062 115.53125 104.367188 L 113.933594 103.160156 L 112.480469 103.800781 C 110.6875 104.367188 109.546875 104.816406 109.0625 105.148438 C 108.433594 105.527344 107.875 105.882812 107.390625 106.214844 C 108.457031 106.542969 110.03125 107.300781 112.117188 108.484375 C 113.519531 109.242188 115.335938 109.785156 117.566406 110.117188 L 118.148438 110.1875 M 91.253906 144.765625 C 92.609375 144.101562 93.917969 143.769531 95.179688 143.769531 C 96.632812 143.769531 97.433594 144.316406 97.578125 145.402344 L 96.414062 147.179688 C 95.445312 148.171875 94.5 148.671875 93.578125 148.671875 L 90.453125 148.101562 C 89.726562 147.722656 89.363281 147.132812 89.363281 146.328125 C 89.363281 145.902344 89.992188 145.378906 91.253906 144.765625 M 91.035156 146.46875 L 92.925781 147.179688 C 94.136719 147.179688 95.128906 146.585938 95.90625 145.402344 L 95.832031 145.261719 L 94.304688 145.261719 L 91.035156 146.46875 M 95.90625 130.847656 L 93.871094 131.558594 C 89.605469 133.027344 86.890625 133.996094 85.730469 134.46875 C 83.695312 135.273438 81.199219 136.980469 78.242188 139.582031 L 74.027344 143.0625 L 73.953125 143.0625 L 71.554688 145.332031 L 73.515625 145.261719 C 78.847656 145.261719 83.449219 146.089844 87.328125 147.746094 L 90.015625 148.953125 L 92.78125 150.230469 L 99.105469 148.101562 L 101.066406 147.535156 L 101.210938 147.464844 L 101.648438 147.960938 L 103.683594 146.683594 L 105.355469 146.113281 C 110.105469 144.03125 113.277344 142.730469 114.878906 142.210938 L 116.914062 137.382812 L 116.984375 137.308594 L 117.347656 137.308594 L 117.203125 136.742188 L 117.132812 136.246094 L 117.132812 135.960938 L 117.058594 135.960938 L 116.984375 136.175781 L 116.984375 136.246094 L 116.695312 137.308594 L 115.386719 137.308594 L 115.96875 135.960938 L 115.09375 135.820312 C 113.640625 135.582031 111.992188 135.039062 110.152344 134.1875 C 109.957031 133.902344 109.742188 133.761719 109.5 133.761719 C 109.257812 133.761719 109.085938 133.878906 108.988281 134.117188 L 108.917969 133.832031 L 108.917969 133.546875 L 105.792969 131.773438 L 101.9375 129.289062 L 98.085938 130.566406 L 96.050781 131.277344 L 96.050781 130.847656 L 95.90625 130.847656 M 80.929688 158.75 L 81.003906 158.539062 L 81.148438 158.539062 L 80.929688 158.75 M 112.332031 174.867188 L 116.695312 175.011719 L 116.839844 174.867188 L 117.132812 175.011719 L 117.277344 175.011719 L 117.421875 175.222656 L 118.148438 174.726562 L 119.675781 173.945312 L 112.332031 174.441406 L 108.480469 174.726562 L 108.261719 174.726562 L 104.265625 175.292969 L 104.121094 175.292969 L 99.683594 175.4375 L 99.539062 176.074219 L 102.15625 175.648438 L 104.191406 175.4375 L 104.265625 175.4375 L 108.480469 175.011719 L 112.332031 174.867188 M 120.402344 213.207031 C 120.0625 212.261719 119.894531 210.628906 119.894531 208.308594 L 120.109375 199.078125 L 119.820312 183.957031 L 119.820312 178.84375 L 120.039062 175.222656 L 117.566406 176.785156 L 117.566406 210.863281 L 118.003906 213.773438 L 118.003906 214.910156 L 120.183594 213.207031 L 120.476562 213.277344 L 120.402344 213.207031 M 99.683594 177.566406 L 99.683594 177.496094 L 99.03125 177.496094 L 97.503906 180.335938 L 97.433594 181.257812 C 97.433594 185.800781 95.808594 188.5 92.5625 189.351562 L 92.78125 189.847656 C 93.3125 190.039062 93.53125 190.960938 93.433594 192.617188 L 93.359375 193.257812 L 93.359375 194.25 L 93.433594 195.246094 L 99.25 195.175781 L 99.25 191.554688 L 99.03125 191.054688 L 99.25 189.707031 L 99.25 189.421875 L 99.394531 188.003906 L 99.25 187.933594 L 99.25 185.660156 C 99.296875 181.542969 99.441406 178.84375 99.683594 177.566406 M 109.570312 176.644531 L 109.136719 186.726562 L 109.351562 194.675781 L 114.515625 194.464844 L 116.113281 194.605469 L 116.113281 183.742188 C 116.160156 179.910156 116.28125 177.328125 116.476562 176.003906 L 109.570312 176.574219 L 109.570312 176.644531 M 107.679688 181.613281 L 107.828125 181.328125 L 107.679688 180.902344 C 107.777344 178.820312 107.949219 177.402344 108.191406 176.644531 L 105.9375 176.714844 L 100.703125 177.425781 L 100.703125 186.726562 L 100.558594 187.007812 L 100.777344 187.789062 L 100.777344 189.210938 L 100.703125 191.054688 L 100.703125 195.101562 L 103.175781 194.960938 L 103.902344 194.820312 L 107.898438 194.746094 C 107.753906 192.382812 107.679688 189.683594 107.679688 186.652344 L 107.679688 181.613281 M 100.703125 197.871094 L 108.042969 197.730469 L 107.972656 196.878906 L 107.972656 196.167969 L 103.609375 196.167969 L 103.175781 196.59375 L 100.703125 196.664062 L 100.703125 197.871094 M 108.40625 213.988281 C 108.699219 212.617188 108.84375 210.34375 108.84375 207.171875 L 108.117188 199.222656 L 101.71875 199.148438 L 100.777344 199.363281 L 100.703125 199.363281 L 100.703125 211.789062 C 101.089844 212.402344 101.285156 213.277344 101.285156 214.414062 L 108.40625 214.699219 L 108.40625 213.988281 M 99.25 196.734375 L 93.578125 196.808594 L 93.507812 196.949219 L 93.652344 198.652344 L 99.175781 197.941406 L 99.25 196.734375 M 96.851562 199.648438 L 94.304688 200 L 93.726562 200 L 93.796875 201.492188 L 94.667969 213.632812 L 94.667969 214.554688 L 98.667969 214.34375 L 99.832031 214.34375 C 99.296875 212.167969 99.078125 207.195312 99.175781 199.433594 L 96.851562 199.648438 M 109.5 197.800781 L 116.039062 197.941406 L 116.113281 196.167969 L 109.425781 196.167969 L 109.425781 196.949219 L 109.5 197.800781 M 115.242188 199.292969 L 109.570312 199.222656 C 109.667969 201.824219 109.910156 204.449219 110.296875 207.101562 C 110.296875 210.984375 110.128906 213.539062 109.789062 214.769531 L 110.078125 214.769531 L 116.765625 215.335938 C 116.234375 213.398438 115.992188 208.09375 116.039062 199.433594 L 115.242188 199.292969 M 97.214844 273.414062 L 97.503906 273.484375 C 97.84375 273.484375 98.085938 273.390625 98.230469 273.199219 C 98.230469 273.675781 98.039062 273.933594 97.648438 273.980469 C 97.503906 273.792969 97.285156 273.675781 96.996094 273.625 L 97.214844 273.414062 M 85.511719 234.292969 L 85.730469 233.65625 L 85.945312 235.429688 C 85.65625 235.003906 85.511719 234.625 85.511719 234.292969 M 92.125 242.175781 L 92.054688 241.820312 L 92.199219 241.960938 L 92.125 242.175781 M 87.183594 296.132812 C 81.320312 294.382812 77.757812 293.082031 76.496094 292.226562 L 76.640625 292.867188 L 76.570312 293.082031 L 76.714844 293.507812 L 76.789062 294.570312 L 76.859375 298.191406 C 76.859375 299.089844 76.570312 300.535156 75.988281 302.523438 C 75.359375 304.464844 75.042969 306.285156 75.042969 307.988281 C 75.042969 310.5 75.238281 312.085938 75.625 312.746094 C 76.546875 314.5 78.96875 316.105469 82.894531 317.574219 C 85.609375 318.570312 90.210938 319.5625 96.703125 320.554688 L 126.871094 322.6875 L 147.007812 321.621094 L 161.835938 320.34375 L 162.269531 320.34375 L 172.519531 319.777344 L 190.183594 317.007812 C 190.8125 314.5 191.128906 311.777344 191.128906 308.84375 C 191.128906 304.769531 190.886719 302.074219 190.402344 300.75 L 186.40625 292.796875 L 185.386719 292.226562 L 184.878906 291.945312 L 183.496094 292.226562 L 176.519531 293.71875 C 161.207031 297.980469 146.496094 300.320312 132.394531 300.75 L 127.453125 300.820312 C 110.878906 300.820312 98.933594 299.683594 91.617188 297.410156 L 87.183594 296.132812 M 140.609375 297.980469 C 130.09375 297.980469 116.160156 296.867188 98.8125 294.640625 L 80.929688 292.371094 L 83.328125 293.933594 C 86.671875 295.066406 89.363281 295.730469 91.398438 295.921875 L 114.367188 298.972656 L 118.074219 299.46875 L 119.167969 299.46875 L 140.683594 298.832031 L 149.40625 298.191406 L 155.148438 297.625 L 158.347656 296.914062 L 149.332031 297.695312 L 140.609375 297.980469 M 126.289062 248.992188 L 126.289062 249.132812 L 125.273438 251.757812 C 124.59375 253.558594 124.253906 255.355469 124.253906 257.15625 C 124.253906 258.480469 124.496094 259.757812 124.980469 260.988281 L 125.855469 262.90625 L 126.945312 266.667969 L 126.289062 266.667969 L 127.816406 274.054688 L 128.324219 278.738281 L 127.308594 278.738281 L 128.035156 286.546875 L 127.960938 287.683594 L 128.324219 287.683594 L 128.398438 291.519531 L 128.398438 292.085938 L 128.46875 292.226562 L 128.832031 292.226562 L 128.617188 291.519531 L 128.90625 291.519531 L 128.832031 289.601562 L 128.90625 287.683594 L 129.269531 287.683594 C 129.171875 286.597656 129.148438 285.105469 129.199219 283.210938 L 129.199219 279.660156 L 129.269531 278.738281 L 128.90625 278.738281 L 128.832031 275.1875 C 128.011719 271.542969 127.574219 268.703125 127.527344 266.667969 L 127.308594 266.667969 C 126.289062 263.496094 125.78125 260.679688 125.78125 258.21875 L 126.21875 253.320312 C 126.507812 251.191406 126.871094 249.769531 127.308594 249.0625 L 126.289062 248.992188 "/>
<path style=" stroke:none;fill-rule:evenodd;fill:rgb(0%,60.000002%,40.000001%);fill-opacity:1;" d="M 196.652344 150.941406 L 197.089844 151.4375 L 196.652344 151.652344 L 195.78125 151.582031 L 196.652344 150.941406 M 147.152344 108.839844 L 143.664062 111.324219 L 143.664062 110.96875 L 147.152344 108.839844 M 151.441406 134.683594 L 151.511719 134.894531 L 151.441406 134.894531 L 151.441406 134.683594 M 143.734375 174.160156 L 144.171875 174.160156 L 143.734375 174.230469 L 143.734375 174.160156 M 114.367188 133.972656 L 114.367188 133.761719 L 114.367188 133.972656 M 116.984375 136.246094 L 116.984375 136.175781 L 117.058594 135.960938 L 117.132812 135.960938 L 117.132812 136.175781 L 116.984375 136.246094 M 120.183594 213.207031 L 120.402344 213.207031 L 120.476562 213.277344 L 120.183594 213.207031 M 104.191406 175.4375 L 104.121094 175.292969 L 104.265625 175.4375 L 104.191406 175.4375 "/>
<path style=" stroke:none;fill-rule:evenodd;fill:rgb(47.450981%,55.29412%,44.705883%);fill-opacity:1;" d="M 170.703125 155.910156 L 165.398438 151.511719 L 163 149.238281 L 162.851562 149.097656 L 162.636719 148.882812 C 159.242188 145.476562 157.546875 142.917969 157.546875 141.214844 L 157.835938 137.097656 L 157.328125 137.097656 L 157.621094 135.960938 L 157.253906 135.324219 L 158.492188 134.894531 L 158.347656 135.960938 L 158.199219 137.097656 L 159.363281 137.097656 L 159.292969 135.960938 L 159.074219 134.753906 L 161.691406 133.761719 L 161.90625 133.691406 L 161.835938 134.117188 L 168.8125 142.492188 C 169.878906 144.054688 170.414062 146.941406 170.414062 151.15625 L 170.777344 155.769531 L 170.703125 155.910156 M 160.816406 105.929688 L 160.816406 106 C 160.816406 107.042969 161.375 109.125 162.488281 112.25 C 162.828125 113.101562 163 115.207031 163 118.566406 C 163 121.546875 162.078125 124.648438 160.234375 127.867188 L 157.984375 131.773438 L 157.472656 132.625 L 157.546875 133.335938 L 157.328125 132.910156 L 157.328125 132.339844 L 157.765625 131.703125 L 155.875 120.910156 L 154.785156 112.675781 L 154.277344 110.261719 L 154.058594 110.261719 C 153.816406 109.078125 153.5 108.367188 153.113281 108.128906 L 160.816406 105.929688 M 158.128906 133.476562 L 158.199219 133.546875 L 158.273438 133.546875 L 158.128906 133.617188 L 158.128906 133.476562 M 136.539062 157.402344 C 136.539062 157.875 136.828125 158.113281 137.410156 158.113281 L 143.226562 154.277344 C 147.199219 151.675781 149.9375 150.375 151.441406 150.375 L 169.03125 164.078125 L 168.886719 164.785156 L 168.449219 167.699219 L 166.414062 172.738281 L 166.414062 173.378906 L 162.636719 173.589844 L 144.171875 174.160156 L 143.734375 174.160156 L 143.734375 173.589844 C 143.734375 173.117188 143.492188 172.878906 143.007812 172.878906 C 142.28125 172.878906 141.796875 174.183594 141.554688 176.785156 L 141.117188 183.03125 C 140.875 185.304688 140.707031 188.738281 140.609375 193.328125 C 139.300781 200.097656 138.648438 206.914062 138.648438 213.773438 L 138.648438 213.917969 L 138.71875 214.273438 L 138.574219 214.769531 L 139.445312 217.324219 L 139.519531 218.675781 L 139.808594 218.957031 L 163.507812 218.957031 L 164.886719 228.613281 C 164.886719 233.15625 163.773438 239.144531 161.542969 246.578125 L 158.417969 256.941406 C 158.078125 257.035156 157.910156 257.273438 157.910156 257.652344 L 157.984375 258.078125 C 157.644531 258.125 157.472656 258.339844 157.472656 258.71875 L 157.546875 259.144531 L 154.566406 260.136719 L 142.789062 261.699219 C 137.75 262.171875 135.230469 262.691406 135.230469 263.261719 L 135.304688 264.042969 C 135.304688 264.5625 135.835938 265.15625 136.902344 265.816406 L 138.285156 266.667969 L 155.511719 266.667969 L 161.835938 265.390625 L 161.90625 265.390625 L 164.886719 272.632812 L 165.542969 276.039062 C 165.203125 276.417969 164.984375 277.199219 164.886719 278.382812 L 164.886719 281.082031 L 165.324219 288.394531 L 165.761719 288.605469 L 165.761719 291.875 L 165.832031 292.582031 C 165.832031 293.433594 165.519531 293.957031 164.886719 294.144531 C 164.9375 294.429688 165.179688 294.570312 165.613281 294.570312 L 165.035156 294.714844 L 137.847656 296.558594 L 130.652344 296.273438 L 130.652344 295.777344 L 129.996094 292.226562 L 130.578125 292.226562 L 130.578125 288.605469 L 130.652344 287.683594 L 130.652344 278.738281 L 130.503906 277.320312 L 130.070312 273.699219 L 128.832031 269.011719 L 129.199219 266.667969 L 129.199219 266.171875 C 129.199219 264.988281 128.808594 264.375 128.035156 264.324219 C 127.5 262.148438 127.234375 260.089844 127.234375 258.148438 L 127.960938 254.316406 L 128.542969 254.742188 L 129.707031 254.457031 L 129.925781 254.457031 L 130.941406 254.171875 L 148.242188 252.113281 C 152.167969 250.742188 154.128906 249.203125 154.128906 247.5 C 154.128906 247.074219 153.984375 246.835938 153.695312 246.789062 L 153.695312 246.648438 C 153.695312 246.175781 153.332031 245.9375 152.605469 245.9375 L 150.566406 246.859375 L 147.152344 247.144531 L 146.425781 247.429688 L 145.988281 247.5 L 135.085938 247.640625 L 127.890625 247.570312 C 128.617188 244.445312 129.125 231.644531 129.414062 209.160156 L 129.414062 208.804688 L 129.488281 207.742188 C 129.683594 204.710938 129.996094 202.296875 130.433594 200.5 L 132.6875 190.558594 L 132.6875 189.992188 L 135.304688 180.050781 L 136.25 166.5625 L 135.957031 160.667969 L 136.539062 157.402344 M 118.4375 146.539062 C 121.347656 146.539062 124.980469 149.78125 129.34375 156.265625 L 128.980469 160.457031 L 129.125 160.8125 C 128.589844 163.886719 127.648438 171.222656 126.289062 182.820312 L 123.089844 206.605469 L 123.238281 207.527344 L 123.308594 207.597656 L 122.65625 213.277344 L 122.148438 213.347656 C 121.757812 211.738281 121.566406 210.105469 121.566406 208.449219 L 121.566406 203.480469 L 121.492188 193.539062 C 121.734375 183.082031 121.589844 176.761719 121.054688 174.585938 L 121.273438 174.441406 C 121.324219 174.109375 121.175781 173.898438 120.839844 173.804688 L 121.128906 173.734375 L 121.054688 173.378906 L 120.910156 173.164062 L 115.242188 173.023438 L 109.136719 173.09375 C 109.667969 172.476562 110.152344 171.152344 110.589844 169.117188 C 112.089844 166.703125 112.84375 165.117188 112.84375 164.359375 C 112.648438 160.195312 112.117188 157.308594 111.242188 155.699219 L 106.808594 150.585938 L 106.664062 150.445312 L 106.664062 150.375 L 106.882812 150.375 L 107.972656 150.160156 L 108.042969 150.230469 L 111.242188 149.238281 C 113.328125 148.71875 115.214844 148.007812 116.914062 147.109375 L 116.984375 147.25 L 117.058594 147.039062 L 117.859375 146.609375 L 118.4375 146.539062 M 122.65625 213.421875 L 121.710938 225.84375 C 120.691406 232.328125 120.183594 239.121094 120.183594 246.222656 C 120.039062 246.363281 119.964844 246.554688 119.964844 246.789062 L 120.183594 247.285156 L 119.09375 247.214844 L 114.367188 246.71875 C 112.1875 245.820312 109.957031 245.371094 107.679688 245.371094 C 107.101562 245.371094 106.808594 245.605469 106.808594 246.078125 L 107.679688 246.789062 L 107.679688 246.929688 L 109.570312 249.0625 L 111.824219 250.976562 C 113.132812 251.640625 114.5625 252.113281 116.113281 252.398438 L 120.402344 253.464844 L 120.402344 253.535156 C 120.402344 256.136719 120.933594 259.191406 122 262.691406 C 122.824219 265.34375 123.359375 267.945312 123.601562 270.503906 C 124.425781 271.6875 124.691406 274.21875 124.398438 278.101562 L 124.472656 278.738281 L 124.546875 278.738281 L 124.546875 287.683594 L 124.472656 287.683594 C 124.570312 289.8125 124.496094 291.328125 124.253906 292.226562 L 124.398438 292.300781 L 123.527344 295.351562 L 123.601562 295.707031 L 123.527344 295.707031 L 101.429688 293.433594 L 91.542969 292.226562 L 76.496094 290.453125 L 75.625 288.109375 L 75.480469 287.683594 L 74.96875 287.683594 C 73.855469 286.265625 73.296875 285.035156 73.296875 283.992188 L 74.824219 278.808594 L 74.824219 278.738281 L 75.480469 278.738281 C 74.605469 276.65625 74.171875 274.503906 74.171875 272.277344 L 74.535156 269.507812 L 77.878906 271.640625 C 81.414062 273.4375 85.632812 274.335938 90.527344 274.335938 L 96.996094 273.625 C 97.285156 273.675781 97.503906 273.792969 97.648438 273.980469 C 98.039062 273.933594 98.230469 273.675781 98.230469 273.199219 C 98.085938 273.390625 97.84375 273.484375 97.503906 273.484375 L 97.214844 273.414062 L 97.359375 273.058594 C 97.457031 272.632812 97.191406 272.417969 96.558594 272.417969 L 96.195312 272.5625 L 95.613281 271.921875 L 86.601562 267.519531 C 86.601562 266.714844 85.753906 266.007812 84.058594 265.390625 L 83.910156 265.320312 C 81.777344 264.609375 80.375 263.921875 79.695312 263.261719 L 77.296875 261.34375 L 76.789062 260.136719 L 76.789062 259.996094 L 76.425781 259.144531 L 76.132812 257.9375 C 76.132812 257.085938 76.761719 255.59375 78.023438 253.464844 L 78.824219 251.757812 L 88.128906 257.085938 L 94.160156 260.136719 C 98.667969 261.984375 103.054688 262.90625 107.316406 262.90625 L 111.535156 262.195312 L 118.222656 261.273438 L 119.3125 260.988281 C 119.3125 260.609375 119.167969 260.398438 118.875 260.351562 L 118.875 260.277344 C 119.167969 260.277344 119.359375 260.375 119.457031 260.5625 L 119.53125 260.207031 C 119.53125 259.78125 118.488281 259.425781 116.402344 259.144531 C 113.738281 258.8125 111.800781 258.339844 110.589844 257.722656 C 109.765625 257.296875 107.679688 256.753906 104.335938 256.089844 L 102.085938 255.664062 L 101.867188 255.949219 L 94.960938 253.25 L 93.144531 251.972656 C 93.09375 251.167969 92.367188 250.339844 90.960938 249.488281 L 89.871094 248.777344 L 88.78125 247.003906 L 88.636719 246.859375 C 87.667969 246.671875 86.648438 245.699219 85.582031 243.949219 L 83.621094 241.960938 C 79.355469 237.511719 77.222656 232.851562 77.222656 227.976562 C 77.222656 226.933594 77.976562 224.070312 79.476562 219.382812 C 80.929688 214.746094 81.65625 212 81.65625 211.148438 L 81.367188 207.667969 L 81.441406 207.597656 L 81.292969 206.675781 L 80.566406 200.355469 L 80.277344 199.859375 L 80.496094 199.574219 C 81.027344 199.054688 82.820312 198.203125 85.875 197.019531 L 85.945312 196.59375 L 86.671875 196.308594 C 87.304688 196.074219 88.683594 195.199219 90.816406 193.683594 L 91.761719 193.398438 C 91.859375 196.757812 92.148438 200.074219 92.632812 203.339844 L 92.996094 210.933594 C 93.046875 212.734375 93.167969 214.035156 93.359375 214.839844 L 93.214844 215.054688 L 93.214844 215.125 C 93.070312 215.3125 92.996094 215.621094 92.996094 216.046875 C 92.996094 216.566406 93.507812 217.371094 94.523438 218.460938 C 95.882812 219.929688 97.527344 220.664062 99.46875 220.664062 L 114.367188 219.882812 L 119.820312 219.382812 L 120.910156 218.390625 C 121.636719 216.640625 122 215.457031 122 214.839844 L 121.929688 213.917969 L 122.148438 213.347656 L 122.65625 213.421875 M 111.460938 109.976562 L 111.386719 110.1875 L 111.386719 109.976562 L 111.460938 109.976562 M 109.933594 109.335938 L 110.078125 109.40625 C 109.644531 110.023438 109.304688 111.417969 109.0625 113.597656 L 108.773438 118.28125 C 108.773438 121.597656 108.917969 125.335938 109.207031 129.5 L 108.988281 131.914062 L 108.191406 131.417969 L 104.121094 129.003906 C 103.054688 128.292969 102.519531 127.558594 102.519531 126.800781 C 102.519531 124.816406 102.957031 120.625 103.828125 114.234375 C 104.214844 110.640625 104.554688 108.554688 104.847656 107.988281 L 105.71875 107.277344 C 106.398438 107.75 107.800781 108.4375 109.933594 109.335938 M 91.253906 144.765625 C 89.992188 145.378906 89.363281 145.902344 89.363281 146.328125 C 89.363281 147.132812 89.726562 147.722656 90.453125 148.101562 L 93.578125 148.671875 C 94.5 148.671875 95.445312 148.171875 96.414062 147.179688 L 97.578125 145.402344 C 97.433594 144.316406 96.632812 143.769531 95.179688 143.769531 C 93.917969 143.769531 92.609375 144.101562 91.253906 144.765625 M 101.210938 147.464844 L 101.066406 147.535156 L 99.105469 148.101562 L 92.78125 150.230469 L 90.015625 148.953125 L 87.328125 147.746094 C 83.449219 146.089844 78.847656 145.261719 73.515625 145.261719 L 71.554688 145.332031 L 73.953125 143.0625 L 74.027344 143.0625 L 78.242188 139.582031 C 81.199219 136.980469 83.695312 135.273438 85.730469 134.46875 C 86.890625 133.996094 89.605469 133.027344 93.871094 131.558594 L 95.90625 130.847656 L 96.050781 131.277344 L 98.085938 130.566406 L 101.9375 129.289062 L 105.792969 131.773438 L 108.917969 133.546875 L 108.917969 133.832031 L 108.988281 134.117188 C 109.085938 133.878906 109.257812 133.761719 109.5 133.761719 C 109.742188 133.761719 109.957031 133.902344 110.152344 134.1875 L 110.808594 136.386719 L 110.660156 137.308594 L 110.808594 137.382812 L 108.261719 140.648438 L 100.847656 146.894531 L 100.847656 146.964844 L 101.210938 147.464844 M 117.132812 136.175781 L 117.132812 136.246094 L 116.984375 136.246094 L 117.132812 136.175781 M 104.265625 175.292969 L 104.265625 175.4375 L 104.121094 175.292969 L 104.265625 175.292969 M 85.511719 234.292969 C 85.511719 234.625 85.65625 235.003906 85.945312 235.429688 L 85.730469 233.65625 L 85.511719 234.292969 M 124.980469 268.65625 L 124.980469 268.726562 L 124.835938 268.726562 L 124.980469 268.65625 M 92.125 242.175781 L 92.199219 241.960938 L 92.054688 241.820312 L 92.125 242.175781 M 87.183594 296.132812 L 91.617188 297.410156 C 98.933594 299.683594 110.878906 300.820312 127.453125 300.820312 L 132.394531 300.75 L 148.894531 301.601562 L 159.363281 300.675781 L 167.285156 299.894531 L 168.230469 300.890625 C 169.636719 302.40625 170.339844 303.894531 170.339844 305.363281 C 170.339844 308.296875 169.976562 310.425781 169.25 311.753906 C 168.230469 313.597656 165.832031 315.894531 162.054688 318.640625 L 162.054688 318.996094 L 160.964844 319.632812 C 160.964844 320.105469 161.253906 320.34375 161.835938 320.34375 L 147.007812 321.621094 L 126.871094 322.6875 L 96.703125 320.554688 C 90.210938 319.5625 85.609375 318.570312 82.894531 317.574219 C 78.96875 316.105469 76.546875 314.5 75.625 312.746094 C 75.238281 312.085938 75.042969 310.5 75.042969 307.988281 C 75.042969 306.285156 75.359375 304.464844 75.988281 302.523438 C 76.570312 300.535156 76.859375 299.089844 76.859375 298.191406 L 76.789062 294.570312 L 76.714844 293.507812 L 77.222656 294.003906 C 78.386719 294.855469 81.292969 295.519531 85.945312 295.992188 L 87.183594 296.132812 M 114.367188 298.972656 L 119.167969 299.46875 L 118.074219 299.46875 L 114.367188 298.972656 "/>
<path style=" stroke:none;fill-rule:evenodd;fill:rgb(60.000002%,60.000002%,60.000002%);fill-opacity:1;" d="M 152.53125 139.441406 L 151.804688 142.28125 C 150.351562 143.039062 147.636719 144.597656 143.664062 146.964844 C 143.179688 147.109375 141.773438 147.867188 139.445312 149.238281 C 136.734375 150.800781 135.375 151.816406 135.375 152.289062 L 135.8125 152.71875 L 135.085938 156.195312 L 134.503906 160.457031 L 134.792969 166.5625 C 134.792969 174.5625 133.582031 182.582031 131.160156 190.628906 L 130.796875 191.835938 L 130.433594 193.46875 L 129.050781 199.648438 C 128.226562 202.0625 127.816406 205.421875 127.816406 209.726562 L 127.890625 209.800781 C 127.453125 212.402344 127.332031 217.796875 127.527344 225.988281 C 127.621094 229.914062 127.332031 235.925781 126.652344 244.019531 L 126.652344 246.222656 L 126.871094 247.570312 L 125.855469 247.570312 L 125.855469 247.359375 C 125.367188 243.664062 125.125 241.015625 125.125 239.40625 L 126.582031 221.65625 L 126.363281 217.75 C 126.703125 217.609375 126.871094 217.160156 126.871094 216.402344 C 126.871094 209.351562 127.890625 199.625 129.925781 187.222656 C 131.476562 180.691406 132.25 175.816406 132.25 172.597656 C 132.203125 169 132.371094 166.253906 132.757812 164.359375 C 133.195312 162.371094 133.414062 160.21875 133.414062 157.898438 C 133.511719 155.105469 133.390625 153.425781 133.050781 152.859375 L 133.121094 152.433594 C 133.121094 151.675781 132.300781 150.824219 130.652344 149.878906 L 127.089844 147.675781 C 124.519531 145.308594 122.703125 143.769531 121.636719 143.0625 L 121.855469 142.066406 L 121.710938 140.363281 C 122.875 141.972656 123.867188 143.109375 124.691406 143.769531 C 130.117188 148.363281 133.121094 150.65625 133.703125 150.65625 L 134.066406 150.65625 C 134.550781 150.65625 138.621094 148.125 146.28125 143.0625 C 148.847656 141.734375 150.933594 140.527344 152.53125 139.441406 M 175.5 153.851562 L 174.046875 154.988281 L 172.59375 153.214844 C 173.902344 153.070312 174.628906 153.070312 174.773438 153.214844 L 175.5 153.851562 M 91.035156 146.46875 L 94.304688 145.261719 L 95.832031 145.261719 L 95.90625 145.402344 C 95.128906 146.585938 94.136719 147.179688 92.925781 147.179688 L 91.035156 146.46875 M 126.289062 248.992188 L 127.308594 249.0625 C 126.871094 249.769531 126.507812 251.191406 126.21875 253.320312 L 125.78125 258.21875 C 125.78125 260.679688 126.289062 263.496094 127.308594 266.667969 L 127.527344 266.667969 C 127.574219 268.703125 128.011719 271.542969 128.832031 275.1875 L 128.90625 278.738281 L 129.269531 278.738281 L 129.199219 279.660156 L 129.199219 283.210938 C 129.148438 285.105469 129.171875 286.597656 129.269531 287.683594 L 128.90625 287.683594 L 128.832031 289.601562 L 128.90625 291.519531 L 128.617188 291.519531 L 128.832031 292.226562 L 128.46875 292.226562 L 128.398438 292.085938 L 128.398438 291.519531 L 128.324219 287.683594 L 127.960938 287.683594 L 128.035156 286.546875 L 127.308594 278.738281 L 128.324219 278.738281 L 127.816406 274.054688 L 126.289062 266.667969 L 126.945312 266.667969 L 125.855469 262.90625 L 124.980469 260.988281 C 124.496094 259.757812 124.253906 258.480469 124.253906 257.15625 C 124.253906 255.355469 124.59375 253.558594 125.273438 251.757812 L 126.289062 249.132812 L 126.289062 248.992188 "/>
<path style=" stroke:none;fill-rule:evenodd;fill:rgb(20%,80.000001%,60.000002%);fill-opacity:1;" d="M 122.65625 213.277344 L 122.65625 213.421875 L 122.148438 213.347656 L 122.65625 213.277344 M 108.40625 214.699219 L 108.40625 213.988281 L 108.40625 214.699219 "/>
<path style=" stroke:none;fill-rule:evenodd;fill:rgb(40.000001%,60.000002%,40.000001%);fill-opacity:1;" d="M 118.292969 146.328125 L 118.4375 146.539062 L 118.292969 146.328125 M 112.332031 174.867188 L 112.332031 174.441406 L 119.675781 173.945312 L 118.148438 174.726562 L 117.421875 175.222656 L 117.277344 175.011719 L 117.132812 175.011719 L 116.839844 174.867188 L 116.695312 175.011719 L 112.332031 174.867188 M 104.191406 175.4375 L 102.15625 175.648438 L 99.539062 176.074219 L 99.683594 175.4375 L 104.121094 175.292969 L 104.191406 175.4375 M 79.621094 241.179688 L 79.984375 240.824219 L 80.058594 240.898438 L 79.621094 241.179688 "/>
<path style=" stroke:none;fill-rule:evenodd;fill:rgb(40.000001%,80.000001%,60.000002%);fill-opacity:1;" d="M 135.375 263.6875 L 135.304688 264.042969 L 135.230469 263.261719 L 135.304688 263.617188 L 135.375 263.6875 M 117.566406 134.398438 L 117.929688 134.398438 L 117.929688 134.46875 L 117.566406 134.398438 "/>
<path style=" stroke:none;fill-rule:evenodd;fill:rgb(54.11765%,58.431375%,51.764709%);fill-opacity:1;" d="M 143.152344 114.589844 L 144.246094 112.886719 L 145.988281 111.75 C 145.988281 116.722656 146.425781 120.625 147.296875 123.464844 C 148.800781 129.523438 149.839844 133.335938 150.421875 134.894531 C 147.710938 134.847656 146.230469 134.304688 145.988281 133.261719 L 145.84375 132.625 C 144.050781 123.726562 143.152344 117.714844 143.152344 114.589844 M 160.089844 190.914062 L 155.65625 190.84375 L 149.839844 191.554688 L 149.839844 185.445312 L 151.003906 175.792969 L 151.003906 175.71875 L 160.890625 175.507812 C 160.355469 176.453125 160.042969 178.796875 159.945312 182.535156 L 160.089844 190.914062 M 162.269531 175.863281 L 162.34375 175.4375 L 172.449219 174.300781 C 171.964844 176.902344 171.332031 182.703125 170.558594 191.695312 L 161.542969 190.914062 L 161.542969 185.019531 L 162.269531 175.863281 M 161.542969 197.585938 L 168.015625 197.160156 L 170.121094 197.019531 L 169.539062 204.402344 L 169.539062 209.726562 L 169.03125 214.203125 L 161.542969 213.347656 L 161.542969 213.207031 L 161.179688 210.082031 L 161.542969 197.585938 M 156.238281 197.660156 L 160.089844 197.585938 L 159.800781 210.4375 L 159.800781 211.503906 L 159.945312 211.789062 L 159.945312 212.496094 L 160.089844 213.277344 C 157.039062 213.136719 153.332031 213.066406 148.96875 213.066406 C 149.503906 211.265625 149.792969 206.273438 149.839844 198.085938 L 156.238281 197.660156 M 143.664062 175.71875 L 149.550781 175.71875 C 148.824219 177.707031 148.4375 183.058594 148.386719 191.765625 L 148.242188 191.765625 L 141.992188 192.902344 C 142.136719 188.832031 142.332031 185.824219 142.574219 183.886719 L 143.664062 175.71875 M 146.714844 198.296875 L 148.386719 198.226562 L 148.386719 202.414062 L 147.660156 211.714844 L 147.660156 212.78125 L 147.734375 213.066406 L 146.207031 213.066406 L 140.320312 213.347656 L 140.464844 210.722656 L 140.390625 204.476562 L 141.410156 197.730469 L 146.714844 198.296875 M 117.566406 134.398438 L 115.675781 134.1875 C 116.113281 132.71875 116.257812 129.3125 116.113281 123.960938 C 116.257812 118.519531 116.160156 114.804688 115.824219 112.816406 L 116.113281 111.394531 L 116.113281 111.324219 L 118.4375 111.539062 L 118.511719 111.539062 L 118.292969 113.171875 L 118.074219 117.359375 C 117.785156 118.636719 117.640625 121.195312 117.640625 125.027344 L 117.640625 130.496094 L 117.929688 134.398438 L 117.566406 134.398438 M 95.90625 130.847656 L 96.050781 130.847656 L 96.050781 131.277344 L 95.90625 130.847656 M 110.808594 137.382812 L 110.660156 137.308594 L 110.878906 137.308594 L 110.808594 137.382812 M 93.433594 192.617188 C 94.789062 192.617188 96.21875 192.027344 97.722656 190.84375 L 99.25 189.492188 L 99.25 189.707031 L 99.03125 191.054688 L 99.25 191.554688 L 99.25 195.175781 L 93.433594 195.246094 L 93.359375 194.25 L 93.359375 193.257812 L 93.433594 192.617188 M 109.570312 176.644531 L 109.570312 176.574219 L 116.476562 176.003906 C 116.28125 177.328125 116.160156 179.910156 116.113281 183.742188 L 116.113281 194.605469 L 114.515625 194.464844 L 109.351562 194.675781 L 109.136719 186.726562 L 109.570312 176.644531 M 100.777344 187.789062 L 101.285156 188.144531 C 102.980469 188.144531 103.804688 187.054688 103.757812 184.878906 L 107.679688 181.613281 L 107.679688 186.652344 C 107.679688 189.683594 107.753906 192.382812 107.898438 194.746094 L 103.902344 194.820312 L 103.175781 194.960938 L 100.703125 195.101562 L 100.703125 191.054688 L 100.777344 189.210938 L 100.777344 187.789062 M 108.40625 214.699219 L 101.285156 214.414062 C 101.285156 213.277344 101.089844 212.402344 100.703125 211.789062 L 100.703125 199.363281 L 100.777344 199.363281 L 101.71875 199.148438 L 108.117188 199.222656 L 108.84375 207.171875 C 108.84375 210.34375 108.699219 212.617188 108.40625 213.988281 L 108.40625 214.699219 M 96.851562 199.648438 L 99.175781 199.433594 C 99.078125 207.195312 99.296875 212.167969 99.832031 214.34375 L 98.667969 214.34375 L 94.667969 214.554688 L 94.667969 213.632812 L 93.796875 201.492188 L 93.726562 200 L 94.304688 200 L 96.851562 199.648438 M 115.242188 199.292969 L 116.039062 199.433594 C 115.992188 208.09375 116.234375 213.398438 116.765625 215.335938 L 110.078125 214.769531 L 109.789062 214.769531 C 110.128906 213.539062 110.296875 210.984375 110.296875 207.101562 C 109.910156 204.449219 109.667969 201.824219 109.570312 199.222656 L 115.242188 199.292969 M 124.398438 292.300781 L 124.253906 292.226562 L 124.398438 292.226562 L 124.398438 292.300781 "/>
<path style=" stroke:none;fill-rule:evenodd;fill:rgb(39.607844%,43.921569%,37.64706%);fill-opacity:1;" d="M 192.363281 153.285156 L 196.507812 152.789062 L 197.378906 153 L 198.324219 152.929688 L 199.34375 154.136719 L 198.109375 153.996094 L 196.582031 154.066406 C 192.511719 153.78125 188.199219 155.203125 183.640625 158.324219 C 179.960938 160.835938 177.949219 162.871094 177.609375 164.433594 L 177.316406 164.359375 C 175.429688 163.886719 173.367188 162.515625 171.140625 160.242188 L 167.070312 156.265625 C 166.050781 155.367188 165.398438 154.917969 165.105469 154.917969 L 164.671875 155.058594 L 158.417969 149.734375 C 155.460938 146.941406 153.789062 144.695312 153.402344 142.992188 L 153.695312 142.492188 L 153.402344 141.855469 L 154.640625 137.664062 L 155.148438 137.097656 L 156.601562 137.097656 L 156.09375 141.074219 C 156.09375 142.964844 156.746094 144.648438 158.054688 146.113281 L 163.433594 151.722656 L 167.578125 155.699219 L 169.25 156.976562 L 176.808594 161.945312 L 177.027344 161.945312 C 177.464844 161.898438 177.683594 161.664062 177.683594 161.238281 L 177.609375 161.238281 L 180.953125 156.90625 C 181.582031 155.910156 182.769531 155.105469 184.515625 154.492188 L 192.363281 153.285156 M 195.78125 151.582031 C 188.996094 151.582031 184.660156 152.21875 182.769531 153.496094 L 179.644531 156.125 C 177.851562 157.640625 176.761719 159.035156 176.375 160.3125 L 170.703125 155.910156 L 170.777344 155.769531 L 170.414062 151.15625 C 170.414062 146.941406 169.878906 144.054688 168.8125 142.492188 L 161.835938 134.117188 L 161.90625 133.691406 C 162.054688 133.453125 162.320312 133.335938 162.707031 133.335938 L 163.652344 133.476562 L 166.125 132.765625 L 166.050781 132.695312 L 168.667969 130.921875 L 170.703125 128.933594 L 171.648438 127.300781 L 172.449219 128.082031 L 172.8125 128.363281 L 175.792969 131.277344 L 176.519531 131.914062 L 177.246094 132.554688 L 181.679688 136.316406 L 193.308594 146.824219 L 196.652344 150.941406 L 195.78125 151.582031 M 118.730469 136.175781 L 119.382812 136.175781 L 119.53125 136.882812 L 119.382812 136.957031 L 119.675781 137.59375 L 119.820312 138.089844 L 120.402344 141.996094 C 120.402344 143.84375 116.863281 145.925781 109.789062 148.242188 C 109.644531 148.101562 109.425781 148.03125 109.136719 148.03125 L 106.808594 149.238281 L 105.9375 149.449219 C 98.910156 151.535156 94.425781 152.929688 92.488281 153.640625 C 91.519531 152.929688 89.773438 152.03125 87.253906 150.941406 C 82.699219 148.953125 78.652344 147.960938 75.117188 147.960938 L 70.101562 148.527344 L 69.375 148.03125 L 69.953125 147.25 C 70.585938 146.917969 71.84375 146.753906 73.734375 146.753906 C 79.015625 146.753906 83.402344 147.582031 86.890625 149.238281 C 90.382812 150.894531 92.390625 151.722656 92.925781 151.722656 L 106.445312 147.390625 L 115.460938 143.628906 L 116.039062 143.34375 L 116.839844 142.636719 L 116.765625 142.210938 L 118.4375 137.308594 L 119.019531 137.308594 L 118.730469 136.246094 L 118.730469 136.175781 M 168.886719 101.953125 L 158.78125 104.582031 L 154.347656 106.070312 L 154.710938 105.714844 L 154.421875 105.789062 L 147.152344 108.839844 L 153.332031 104.792969 C 158.371094 101.8125 160.9375 99.492188 161.035156 97.835938 C 165.882812 98.59375 168.621094 99.515625 169.25 100.605469 L 169.394531 101.3125 L 168.886719 101.953125 M 157.546875 133.335938 L 157.472656 132.625 L 157.984375 131.773438 L 160.234375 127.867188 C 162.078125 124.648438 163 121.546875 163 118.566406 C 163 115.207031 162.828125 113.101562 162.488281 112.25 C 161.375 109.125 160.816406 107.042969 160.816406 106 L 160.816406 105.929688 C 160.867188 105.597656 161.15625 105.433594 161.691406 105.433594 L 162.125 105.574219 L 167.140625 104.152344 C 167.285156 104.34375 167.601562 104.4375 168.085938 104.4375 L 169.539062 103.941406 L 171.066406 114.734375 L 171.210938 115.726562 L 171.359375 115.726562 L 171.285156 118.355469 L 170.921875 123.464844 L 170.847656 123.464844 C 170.847656 125.027344 170.339844 126.425781 169.324219 127.65625 L 166.488281 130.351562 L 166.488281 130.28125 L 162.488281 131.984375 L 158.925781 133.335938 L 158.273438 133.546875 L 158.199219 133.546875 L 158.128906 133.476562 L 157.621094 133.335938 L 157.546875 133.335938 M 151.441406 134.683594 L 148.605469 122.753906 C 148.363281 115.65625 147.855469 111.703125 147.078125 110.898438 L 148.242188 109.835938 L 151.367188 108.628906 L 153.402344 114.875 L 154.492188 121.621094 C 154.929688 128.105469 155.609375 132.246094 156.527344 134.042969 L 151.511719 134.894531 L 151.441406 134.683594 M 136.539062 157.402344 L 137.121094 153.496094 L 137.121094 152.574219 L 145.480469 147.675781 L 152.09375 143.984375 C 152.628906 145.78125 154.058594 147.769531 156.382812 149.949219 C 161.519531 154.632812 164.71875 157.214844 165.980469 157.6875 L 169.6875 160.953125 C 173.273438 163.886719 175.9375 165.425781 177.683594 165.566406 L 177.683594 166.917969 L 177.828125 168.125 L 178.191406 168.335938 L 177.972656 168.90625 L 179.71875 181.398438 L 180.445312 190.203125 L 181.242188 194.960938 C 180.808594 195.71875 180.371094 197.136719 179.933594 199.222656 L 178.335938 206.886719 C 176.882812 211.480469 176.324219 215.738281 176.664062 219.667969 C 176.179688 220.851562 175.550781 222.957031 174.773438 225.988281 C 174.242188 226.980469 173.851562 228.378906 173.609375 230.175781 L 174.339844 231.027344 L 173.828125 234.222656 L 174.554688 235.21875 C 175.523438 235.21875 175.890625 233.890625 175.644531 231.242188 L 175.71875 231.242188 L 177.609375 237.347656 L 179.425781 245.582031 C 179.425781 246.765625 177.4375 248.894531 173.464844 251.972656 C 169.445312 255 167.433594 256.5625 167.433594 256.660156 C 167.433594 257.132812 167.699219 257.367188 168.230469 257.367188 L 168.304688 257.367188 L 168.160156 257.15625 C 168.160156 256.730469 168.402344 256.515625 168.886719 256.515625 L 169.324219 256.660156 L 176.375 251.6875 L 177.898438 250.199219 L 178.191406 253.675781 L 178.625 253.390625 L 182.332031 262.195312 L 181.242188 264.964844 C 180.710938 265.011719 180.445312 265.320312 180.445312 265.886719 L 180.589844 266.386719 L 179.933594 267.734375 L 178.699219 270.785156 L 177.535156 273.554688 C 177.535156 274.265625 177.753906 274.667969 178.191406 274.761719 L 177.828125 274.265625 C 177.828125 273.601562 178.117188 273.273438 178.699219 273.273438 L 179.207031 273.34375 L 179.207031 273.273438 L 181.605469 268.371094 L 184.515625 273.699219 L 185.605469 276.324219 C 185.460938 276.464844 185.386719 276.679688 185.386719 276.964844 L 185.53125 278.738281 C 185.628906 279.96875 185.871094 281.484375 186.257812 283.28125 C 186.257812 285.222656 186.332031 286.691406 186.476562 287.683594 L 186.332031 287.683594 L 186.769531 290.097656 L 186.476562 290.097656 L 176.519531 292.226562 L 174.121094 292.796875 L 168.449219 294.074219 L 165.6875 294.570312 L 165.613281 294.570312 C 165.179688 294.570312 164.9375 294.429688 164.886719 294.144531 C 165.519531 293.957031 165.832031 293.433594 165.832031 292.582031 L 165.761719 291.875 L 165.761719 288.605469 L 165.324219 288.394531 L 164.886719 281.082031 L 164.886719 278.382812 C 164.984375 277.199219 165.203125 276.417969 165.542969 276.039062 L 164.886719 272.632812 L 161.90625 265.390625 L 161.835938 265.390625 L 155.511719 266.667969 L 138.285156 266.667969 L 136.902344 265.816406 C 135.835938 265.15625 135.304688 264.5625 135.304688 264.042969 L 135.375 263.6875 C 135.425781 263.449219 135.59375 263.332031 135.886719 263.332031 C 136.464844 263.332031 136.828125 263.472656 136.976562 263.757812 L 137.121094 263.972656 C 143.128906 263.921875 149.140625 263.09375 155.148438 261.484375 L 164.671875 258.078125 L 164.597656 257.9375 C 164.597656 257.464844 164.839844 257.226562 165.324219 257.226562 L 165.613281 257.226562 L 164.886719 256.445312 L 159.21875 258.503906 L 159.074219 258.71875 C 159.074219 259.191406 158.832031 259.425781 158.347656 259.425781 C 157.957031 259.425781 157.691406 259.332031 157.546875 259.144531 L 157.472656 258.71875 C 157.472656 258.339844 157.644531 258.125 157.984375 258.078125 L 157.910156 257.652344 C 157.910156 257.273438 158.078125 257.035156 158.417969 256.941406 L 161.542969 246.578125 C 163.773438 239.144531 164.886719 233.15625 164.886719 228.613281 L 163.507812 218.957031 L 139.808594 218.957031 L 139.519531 218.675781 L 139.445312 217.324219 L 138.574219 214.769531 L 138.71875 214.273438 L 139.300781 213.988281 C 139.785156 213.988281 140.171875 214.25 140.464844 214.769531 L 168.886719 215.691406 L 169.539062 215.410156 L 170.121094 215.480469 C 170.847656 214.53125 171.140625 211.148438 170.996094 205.328125 C 170.945312 203.480469 171.1875 199.929688 171.722656 194.675781 L 173.683594 173.519531 L 173.683594 173.449219 L 173.609375 173.023438 L 172.882812 172.738281 L 172.8125 172.808594 L 171.867188 172.738281 L 167.941406 173.234375 L 167.070312 173.589844 L 166.488281 173.378906 L 166.414062 173.378906 L 166.414062 172.738281 L 168.449219 167.699219 L 168.886719 164.785156 L 169.03125 164.078125 L 151.441406 150.375 C 149.9375 150.375 147.199219 151.675781 143.226562 154.277344 L 137.410156 158.113281 C 136.828125 158.113281 136.539062 157.875 136.539062 157.402344 M 122.65625 213.277344 L 123.308594 207.597656 L 123.238281 207.527344 L 123.089844 206.605469 L 126.289062 182.820312 C 127.648438 171.222656 128.589844 163.886719 129.125 160.8125 L 128.980469 160.457031 L 129.34375 156.265625 C 124.980469 149.78125 121.347656 146.539062 118.4375 146.539062 L 118.292969 146.328125 L 118.4375 146.183594 L 120.621094 144.480469 L 125.273438 148.386719 L 132.394531 153.144531 C 132.105469 154.136719 131.8125 156.480469 131.523438 160.171875 L 131.597656 160.597656 L 131.378906 162.515625 L 131.015625 167.625 C 130.871094 168.429688 130.796875 170.917969 130.796875 175.082031 C 130.796875 176.597656 130.335938 179.128906 129.414062 182.679688 C 129.078125 184.144531 128.324219 188.664062 127.160156 196.238281 C 125.902344 204.804688 125.273438 210.34375 125.273438 212.851562 L 125.125 216.898438 L 124.835938 217.964844 L 125.125 221.65625 L 124.398438 227.691406 C 123.914062 231.714844 123.671875 235.59375 123.671875 239.335938 C 123.625 243.359375 123.820312 246.078125 124.253906 247.5 L 121.203125 247.359375 L 120.839844 247.5 L 120.183594 247.285156 L 119.964844 246.789062 C 119.964844 246.554688 120.039062 246.363281 120.183594 246.222656 C 120.183594 239.121094 120.691406 232.328125 121.710938 225.84375 L 122.65625 213.421875 L 122.65625 213.277344 M 153.695312 246.789062 C 153.984375 246.835938 154.128906 247.074219 154.128906 247.5 C 154.128906 249.203125 152.167969 250.742188 148.242188 252.113281 L 130.941406 254.171875 L 129.925781 254.457031 L 129.707031 254.457031 L 128.542969 254.742188 L 127.960938 254.316406 L 127.671875 254.03125 C 127.671875 253.652344 127.839844 253.390625 128.179688 253.25 L 128.832031 249.132812 L 128.832031 249.0625 L 135.304688 249.132812 L 152.3125 247.855469 L 153.402344 246.71875 L 153.695312 246.789062 M 171.722656 154.632812 L 171.9375 155.058594 C 172.761719 156.289062 173.707031 156.90625 174.773438 156.90625 C 175.742188 156.90625 176.542969 155.863281 177.171875 153.78125 C 176.980469 152.316406 175.71875 151.582031 173.394531 151.582031 L 171.9375 151.863281 L 171.722656 154.632812 M 158.492188 192.332031 L 160.089844 192.476562 L 160.089844 196.167969 L 149.839844 196.167969 L 149.839844 192.972656 L 158.492188 192.332031 M 170.414062 193.113281 L 170.339844 193.824219 L 170.195312 195.882812 L 167.867188 195.671875 L 161.542969 196.097656 L 161.542969 192.546875 L 169.6875 193.042969 L 170.414062 193.113281 M 141.628906 196.167969 L 141.917969 194.179688 L 141.917969 194.039062 L 142.789062 194.039062 L 148.386719 193.1875 L 148.386719 196.167969 L 141.628906 196.167969 M 111.386719 110.1875 L 111.460938 109.976562 L 114.660156 111.042969 L 114.660156 111.183594 L 114.222656 111.539062 L 114.222656 112.035156 L 114.660156 123.820312 L 114.367188 133.761719 L 114.367188 133.972656 L 112.117188 133.40625 L 110.515625 132.765625 L 110.660156 129.429688 L 110.226562 118.425781 L 111.386719 110.1875 M 117.566406 110.117188 C 115.335938 109.785156 113.519531 109.242188 112.117188 108.484375 C 110.03125 107.300781 108.457031 106.542969 107.390625 106.214844 C 107.875 105.882812 108.433594 105.527344 109.0625 105.148438 C 109.546875 104.816406 110.6875 104.367188 112.480469 103.800781 L 113.933594 103.160156 L 115.53125 104.367188 C 117.421875 105.789062 118.367188 106.6875 118.367188 107.066406 L 118.148438 110.1875 L 117.566406 110.117188 M 110.152344 134.1875 C 111.992188 135.039062 113.640625 135.582031 115.09375 135.820312 L 115.96875 135.960938 L 115.386719 137.308594 L 116.695312 137.308594 L 116.914062 137.382812 L 114.878906 142.210938 C 113.277344 142.730469 110.105469 144.03125 105.355469 146.113281 L 103.683594 146.683594 L 101.648438 147.960938 L 101.210938 147.464844 L 100.847656 146.894531 L 108.261719 140.648438 L 110.808594 137.382812 L 110.878906 137.308594 L 110.660156 137.308594 L 110.808594 136.386719 L 110.152344 134.1875 M 106.808594 150.585938 L 111.242188 155.699219 C 112.117188 157.308594 112.648438 160.195312 112.84375 164.359375 C 112.84375 165.117188 112.089844 166.703125 110.589844 169.117188 C 110.152344 171.152344 109.667969 172.476562 109.136719 173.09375 L 108.480469 173.449219 C 108.140625 173.449219 107.898438 173.355469 107.753906 173.164062 L 100.921875 173.660156 L 103.828125 170.964844 L 106.808594 167.699219 C 107.101562 167.648438 107.246094 167.414062 107.246094 166.988281 L 107.246094 166.347656 L 107.535156 164.003906 L 107.464844 162.65625 L 107.679688 159.320312 C 107.972656 157.425781 107.730469 156.242188 106.953125 155.769531 L 105.9375 155.484375 L 105.71875 155.558594 L 104.121094 155.34375 C 103.585938 155.34375 102.691406 155.886719 101.429688 156.976562 C 101.089844 155.558594 98.546875 154.753906 93.796875 154.5625 L 106.808594 150.585938 M 120.183594 213.207031 L 118.003906 214.910156 L 118.003906 213.773438 L 117.566406 210.863281 L 117.566406 176.785156 L 120.039062 175.222656 L 119.820312 178.84375 L 119.820312 183.957031 L 120.109375 199.078125 L 119.894531 208.308594 C 119.894531 210.628906 120.0625 212.261719 120.402344 213.207031 L 120.183594 213.207031 M 99.03125 177.496094 L 99.683594 177.566406 C 99.441406 178.84375 99.296875 181.542969 99.25 185.660156 L 99.25 187.933594 L 99.394531 188.003906 L 99.25 189.421875 L 99.25 189.492188 L 97.722656 190.84375 C 96.21875 192.027344 94.789062 192.617188 93.433594 192.617188 C 93.53125 190.960938 93.3125 190.039062 92.78125 189.847656 L 92.5625 189.351562 C 95.808594 188.5 97.433594 185.800781 97.433594 181.257812 L 97.503906 180.335938 L 99.03125 177.496094 M 107.679688 180.902344 L 107.679688 181.613281 L 103.757812 184.878906 C 103.804688 187.054688 102.980469 188.144531 101.285156 188.144531 L 100.777344 187.789062 L 100.558594 187.007812 L 100.703125 186.726562 L 100.703125 177.425781 L 105.9375 176.714844 L 108.191406 176.644531 C 107.949219 177.402344 107.777344 178.820312 107.679688 180.902344 M 100.703125 197.871094 L 100.703125 196.664062 L 103.175781 196.59375 L 103.609375 196.167969 L 107.972656 196.167969 L 107.972656 196.878906 L 108.042969 197.730469 L 100.703125 197.871094 M 99.25 196.734375 L 99.175781 197.941406 L 93.652344 198.652344 L 93.507812 196.949219 L 93.578125 196.808594 L 99.25 196.734375 M 109.5 197.800781 L 109.425781 196.949219 L 109.425781 196.167969 L 116.113281 196.167969 L 116.039062 197.941406 L 109.5 197.800781 M 80.496094 199.574219 L 80.351562 198.511719 C 79.914062 198.367188 79.695312 198.109375 79.695312 197.730469 L 80.132812 197.375 L 79.257812 193.328125 L 79.332031 193.328125 L 81.367188 192.121094 L 81.949219 191.765625 L 83.113281 190.628906 L 83.113281 190.347656 L 84.058594 189.140625 L 90.164062 189.566406 L 92.054688 189.421875 C 91.808594 189.660156 91.6875 190.15625 91.6875 190.914062 L 91.6875 192.476562 L 91.835938 192.972656 L 91.761719 193.398438 L 90.816406 193.683594 C 88.683594 195.199219 87.304688 196.074219 86.671875 196.308594 L 85.945312 196.59375 L 85.875 197.019531 C 82.820312 198.203125 81.027344 199.054688 80.496094 199.574219 M 93.214844 215.125 C 93.3125 214.933594 93.480469 214.839844 93.726562 214.839844 L 94.378906 215.761719 L 103.757812 215.90625 L 114.441406 216.472656 L 117.566406 216.261719 L 117.929688 216.472656 L 119.601562 215.335938 L 120.984375 214.058594 L 120.984375 213.988281 L 121.273438 213.703125 L 121.929688 213.917969 L 122 214.839844 C 122 215.457031 121.636719 216.640625 120.910156 218.390625 L 119.820312 219.382812 L 114.367188 219.882812 L 99.46875 220.664062 C 97.527344 220.664062 95.882812 219.929688 94.523438 218.460938 C 93.507812 217.371094 92.996094 216.566406 92.996094 216.046875 C 92.996094 215.621094 93.070312 215.3125 93.214844 215.125 M 118.875 260.351562 C 119.167969 260.398438 119.3125 260.609375 119.3125 260.988281 L 118.222656 261.273438 L 111.535156 262.195312 L 107.316406 262.90625 C 103.054688 262.90625 98.667969 261.984375 94.160156 260.136719 L 88.128906 257.085938 L 78.824219 251.757812 L 78.3125 251.476562 C 78.3125 251.003906 78.605469 250.765625 79.1875 250.765625 C 79.621094 249.296875 79.839844 247.640625 79.839844 245.796875 L 79.621094 241.179688 L 80.058594 240.898438 C 81.078125 242.269531 82.554688 243.949219 84.492188 245.9375 L 85.582031 247.003906 L 85.582031 247.074219 L 88.492188 249.769531 L 88.417969 250.125 C 88.417969 250.976562 90.164062 252.351562 93.652344 254.246094 L 94.234375 254.101562 L 95.542969 255.238281 L 100.777344 257.296875 L 102.59375 257.511719 C 103.078125 257.511719 103.367188 257.390625 103.464844 257.15625 L 109.570312 258.859375 L 114.949219 260.421875 L 118.511719 260.277344 L 118.875 260.351562 M 96.195312 272.5625 L 96.558594 272.417969 C 97.191406 272.417969 97.457031 272.632812 97.359375 273.058594 L 96.996094 273.625 L 90.527344 274.335938 C 85.632812 274.335938 81.414062 273.4375 77.878906 271.640625 L 74.535156 269.507812 C 74 269.035156 73.734375 268.609375 73.734375 268.230469 C 73.734375 267.757812 73.976562 267.519531 74.460938 267.519531 L 74.753906 267.734375 L 75.042969 263.617188 L 75.769531 262.410156 C 76.304688 263.828125 76.859375 264.539062 77.441406 264.539062 L 78.167969 264.183594 L 81.222656 266.597656 L 81.65625 266.457031 C 82.046875 266.457031 82.75 266.976562 83.765625 268.019531 L 84.203125 268.160156 L 85.21875 268.371094 L 88.492188 270.078125 L 93.796875 272.703125 L 95.613281 272.632812 L 96.195312 272.5625 M 123.601562 295.707031 L 123.527344 295.351562 L 124.398438 292.300781 L 124.398438 292.226562 L 124.253906 292.226562 C 124.496094 291.328125 124.570312 289.8125 124.472656 287.683594 L 124.546875 287.683594 L 124.546875 278.738281 L 124.398438 278.101562 C 124.691406 274.21875 124.425781 271.6875 123.601562 270.503906 C 123.359375 267.945312 122.824219 265.34375 122 262.691406 C 120.933594 259.191406 120.402344 256.136719 120.402344 253.535156 L 120.402344 253.464844 L 116.113281 252.398438 C 114.5625 252.113281 113.132812 251.640625 111.824219 250.976562 L 109.570312 249.0625 L 107.679688 246.929688 L 107.679688 246.789062 C 107.730469 246.410156 107.996094 246.222656 108.480469 246.222656 L 110.152344 247.5 L 113.496094 247.996094 L 124.617188 248.917969 C 124.132812 249.582031 123.722656 250.789062 123.382812 252.539062 L 123.308594 252.894531 L 123.453125 253.179688 L 123.164062 253.746094 C 122.96875 254.789062 122.847656 255.878906 122.800781 257.011719 L 123.164062 259.996094 C 123.359375 261.179688 123.648438 262.007812 124.035156 262.480469 L 124.835938 265.605469 L 124.691406 266.03125 L 124.691406 266.738281 L 124.980469 268.65625 L 124.835938 268.726562 L 124.980469 268.726562 L 125.855469 272.703125 L 126.726562 277.886719 L 126.433594 278.738281 L 126.289062 279.519531 L 126.289062 281.71875 L 126.796875 287.683594 L 126.945312 291.234375 L 126.726562 291.234375 L 126.726562 291.519531 L 126.582031 291.519531 L 126.726562 292.015625 L 126.726562 295.140625 L 126.871094 295.992188 L 125.054688 295.847656 L 124.398438 296.0625 L 123.601562 295.707031 M 132.394531 300.75 C 146.496094 300.320312 161.207031 297.980469 176.519531 293.71875 L 183.496094 292.226562 L 184.878906 291.945312 L 185.386719 292.226562 L 186.40625 292.796875 L 190.402344 300.75 C 190.886719 302.074219 191.128906 304.769531 191.128906 308.84375 C 191.128906 311.777344 190.8125 314.5 190.183594 317.007812 L 172.519531 319.777344 L 162.269531 320.34375 L 161.835938 320.34375 C 161.253906 320.34375 160.964844 320.105469 160.964844 319.632812 L 162.054688 318.996094 L 162.054688 318.640625 C 165.832031 315.894531 168.230469 313.597656 169.25 311.753906 C 169.976562 310.425781 170.339844 308.296875 170.339844 305.363281 C 170.339844 303.894531 169.636719 302.40625 168.230469 300.890625 L 167.285156 299.894531 L 159.363281 300.675781 L 148.894531 301.601562 L 132.394531 300.75 M 114.367188 298.972656 L 91.398438 295.921875 C 89.363281 295.730469 86.671875 295.066406 83.328125 293.933594 L 80.929688 292.371094 L 98.8125 294.640625 C 116.160156 296.867188 130.09375 297.980469 140.609375 297.980469 L 140.683594 298.832031 L 119.167969 299.46875 L 114.367188 298.972656 "/>
</g>
</svg>
