<?xml version="1.0" encoding="UTF-8"?>
<svg xmlns="http://www.w3.org/2000/svg" xmlns:xlink="http://www.w3.org/1999/xlink" width="355px" height="648px" viewBox="0 0 355 648" version="1.1">
<g id="surface1">
<path style=" stroke:none;fill-rule:evenodd;fill:rgb(0%,0%,0%);fill-opacity:1;" d="M 262.582031 103.65625 C 265.347656 108.628906 266.726562 112.792969 266.726562 116.152344 C 266.726562 117.574219 265.855469 119.324219 264.109375 121.40625 C 262.171875 123.773438 259.992188 125.050781 257.566406 125.242188 L 257.785156 126.304688 L 258.003906 128.933594 L 257.714844 131.703125 L 258.003906 136.882812 L 258.003906 138.445312 C 258.003906 146.304688 257.664062 152.007812 256.988281 155.558594 L 251.535156 175.933594 C 250.03125 181.472656 245.597656 187.671875 238.234375 194.535156 C 233.824219 198.179688 230.238281 201.304688 227.472656 203.90625 C 221.949219 208.828125 216.011719 211.289062 209.664062 211.289062 L 206.320312 211.078125 L 205.957031 211.289062 L 205.8125 210.933594 L 205.085938 210.4375 L 205.59375 210.367188 C 204.769531 208.285156 204.359375 205.65625 204.359375 202.488281 C 204.941406 197.234375 205.230469 190.371094 205.230469 181.898438 L 204.359375 166.84375 C 203.875 160.597656 200.75 155.984375 194.980469 153 L 194.765625 153.425781 L 194.765625 153.570312 L 194.691406 153.640625 C 192.945312 157.238281 184.175781 169.425781 168.378906 190.203125 C 156.164062 206.109375 147.46875 217.964844 142.28125 225.773438 L 142.644531 225.988281 L 142.644531 226.199219 C 142.644531 226.671875 142.0625 227.644531 140.902344 229.109375 C 139.738281 230.578125 138.890625 231.3125 138.355469 231.3125 L 142.136719 240.613281 L 151.441406 256.230469 C 156.335938 263.472656 162.949219 268.917969 171.285156 272.5625 L 170.195312 267.804688 L 169.976562 267.519531 L 169.976562 265.816406 L 170.195312 265.816406 L 170.195312 265.746094 L 170.339844 265.390625 L 170.777344 265.25 L 175.71875 267.945312 C 179.257812 270.171875 181.632812 272.300781 182.84375 274.335938 C 184.101562 276.324219 184.734375 279.660156 184.734375 284.347656 L 184.734375 285.695312 C 186.042969 285.839844 186.984375 287.257812 187.566406 289.957031 L 188.441406 296.488281 C 188.730469 298.855469 188.875 302.429688 188.875 307.207031 C 188.875 311.183594 188.441406 313.71875 187.566406 314.804688 L 184.660156 318.355469 C 182.382812 320.25 179.476562 321.195312 175.9375 321.195312 C 172.882812 321.195312 168.351562 319.777344 162.34375 316.9375 C 157.304688 314.570312 154.324219 312.9375 153.402344 312.035156 C 151.5625 310.378906 148.75 308.296875 144.972656 305.789062 C 145.164062 307.683594 145.261719 311.824219 145.261719 318.214844 L 145.261719 349.808594 L 144.679688 368.125 L 145.480469 375.792969 C 145.480469 377.164062 145.09375 378.65625 144.316406 380.265625 C 143.105469 382.773438 141.238281 384.027344 138.71875 384.027344 C 137.800781 384.027344 136.199219 383.320312 133.921875 381.898438 C 131.5 380.433594 130.191406 379.226562 129.996094 378.277344 L 129.925781 376.359375 L 129.632812 376.359375 C 128.179688 376.359375 123.890625 373.308594 116.765625 367.203125 C 115.167969 365.828125 114.199219 362.800781 113.859375 358.113281 C 113.664062 355.085938 113.519531 349.027344 113.421875 339.9375 C 112.308594 323.46875 111.75 311.304688 111.75 303.445312 L 112.1875 301.175781 L 111.824219 301.175781 L 102.519531 301.601562 L 95.25 301.101562 C 95.105469 300.675781 94.695312 300.417969 94.015625 300.320312 L 90.960938 299.753906 C 90.527344 301.554688 90.308594 303.089844 90.308594 304.367188 C 90.308594 310.332031 90.210938 313.953125 90.015625 315.230469 L 90.089844 315.230469 L 89.945312 315.730469 L 86.890625 315.730469 C 85 315.207031 83.765625 314.78125 83.183594 314.449219 L 82.601562 314.449219 C 77.175781 314.449219 70.804688 312.675781 63.484375 309.125 C 57.039062 306.003906 52.460938 302.949219 49.746094 299.96875 C 43.496094 293.292969 38.988281 287.519531 36.226562 282.644531 C 31.1875 273.980469 28.15625 264.988281 27.140625 255.664062 L 26.851562 255.453125 L 27.066406 255.238281 L 26.703125 248.28125 C 26.703125 246.859375 26.851562 244.96875 27.140625 242.601562 C 27.335938 240.945312 27.578125 239.691406 27.867188 238.835938 L 28.15625 237.488281 L 28.59375 237.488281 L 28.886719 237.347656 L 29.25 237.488281 L 35.355469 237.132812 L 35.574219 237.0625 L 37.972656 235.785156 L 41.460938 232.804688 C 44.511719 231.003906 46.644531 229.441406 47.855469 228.117188 C 53.671875 221.726562 56.992188 217.894531 57.816406 216.617188 C 61.691406 210.179688 64.648438 205.421875 66.683594 202.34375 C 70.269531 196.808594 73.082031 193.539062 75.117188 192.546875 C 75.359375 192.59375 75.527344 192.6875 75.625 192.832031 L 77.660156 191.269531 L 77.878906 191.339844 L 78.023438 191.269531 C 79.527344 191.269531 81.441406 195.246094 83.765625 203.195312 C 84.542969 205.753906 84.832031 209.65625 84.636719 214.910156 C 85.269531 218.175781 87.835938 225.5625 92.34375 237.0625 C 92.828125 236.210938 93.3125 235.523438 93.796875 235.003906 L 93.796875 234.507812 C 97.285156 229.488281 99.976562 225.890625 101.867188 223.714844 L 102.300781 223.855469 L 100.992188 220.875 C 99.683594 217.894531 98.375 212.378906 97.070312 204.332031 L 92.488281 187.71875 L 92.925781 187.433594 L 93.652344 187.789062 C 95.058594 185.328125 95.761719 183.269531 95.761719 181.613281 C 95.179688 181.09375 94.886719 180.40625 94.886719 179.554688 L 95.105469 179.414062 L 95.105469 179.339844 L 98.160156 175.933594 L 98.304688 174.230469 L 98.449219 173.519531 L 98.449219 173.449219 L 98.523438 173.378906 L 98.957031 173.023438 L 101.792969 170.183594 C 104.023438 167.863281 105.136719 165.402344 105.136719 162.796875 C 104.605469 160.761719 104.335938 159.179688 104.335938 158.042969 L 97.070312 162.726562 C 96.777344 162.632812 96.632812 162.421875 96.632812 162.089844 C 96.632812 161.238281 97.457031 160.3125 99.105469 159.320312 L 99.46875 158.679688 C 99.46875 156.550781 98.328125 155.484375 96.050781 155.484375 C 95.371094 155.484375 94.984375 155.605469 94.886719 155.839844 L 94.453125 156.195312 C 89.652344 156.574219 86.890625 156.574219 86.164062 156.195312 L 83.765625 156.125 L 83.621094 155.628906 L 83.839844 155.558594 L 83.839844 155.484375 L 83.257812 154.703125 L 83.765625 154.703125 L 82.964844 146.539062 C 82.773438 144.835938 81.996094 143.179688 80.640625 141.570312 C 79.378906 140.101562 78.75 138.683594 78.75 137.308594 C 78.75 134.753906 80.15625 132.152344 82.964844 129.5 C 84.710938 127.890625 86.722656 127.179688 89 127.371094 C 91.761719 127.605469 93.796875 127.394531 95.105469 126.730469 L 97.503906 125.097656 L 97.503906 125.027344 L 97.648438 125.027344 L 99.683594 123.535156 C 100.121094 123.535156 100.339844 123.679688 100.339844 123.960938 L 100.628906 123.820312 L 102.519531 121.621094 C 105.332031 118.96875 109.136719 117.644531 113.933594 117.644531 C 115.824219 117.644531 117.738281 118.09375 119.675781 118.992188 L 119.746094 118.921875 L 119.964844 119.136719 L 119.964844 119.207031 L 120.257812 120.695312 C 120.257812 122.023438 119.433594 122.898438 117.785156 123.324219 L 114.222656 125.097656 L 114.222656 125.523438 L 114.730469 137.453125 L 115.75 147.320312 L 122.21875 153.851562 C 128.226562 159.203125 134.671875 163.460938 141.554688 166.632812 L 141.628906 166.417969 C 153.304688 149.949219 161.421875 137.972656 165.980469 130.496094 L 164.453125 128.933594 L 157.328125 123.75 C 156.40625 123.085938 155.949219 120.839844 155.949219 117.003906 C 155.949219 113.40625 156.382812 110.472656 157.253906 108.199219 L 157.183594 103.726562 C 157.183594 102.308594 157.402344 101.101562 157.835938 100.105469 L 157.691406 99.894531 C 157.691406 99.609375 159.535156 97.242188 163.214844 92.792969 L 168.378906 85.835938 L 168.449219 85.90625 L 171.792969 84.558594 C 174.992188 83.46875 178.433594 82.902344 182.117188 82.855469 L 193.238281 81.363281 L 196.800781 81.292969 C 204.308594 81.292969 212.792969 83.492188 222.242188 87.894531 C 222.242188 86.429688 222.675781 84.890625 223.550781 83.28125 C 225.003906 80.582031 227.183594 79.234375 230.089844 79.234375 C 234.9375 79.234375 240.753906 81.789062 247.535156 86.902344 L 255.242188 93.363281 L 255.386719 93.21875 L 255.75 93.929688 L 258.441406 97.125 L 262.511719 103.515625 C 262.367188 103.515625 262.21875 103.585938 262.074219 103.726562 C 260.574219 101.171875 258.632812 98.617188 256.257812 96.058594 L 256.476562 99.894531 C 256.476562 100.792969 256.1875 101.363281 255.605469 101.597656 C 254.78125 101.929688 254.054688 102.804688 253.425781 104.226562 L 253.351562 104.792969 L 253.28125 104.792969 C 253.085938 104.792969 252.988281 104.863281 252.988281 105.007812 L 253.207031 105.21875 L 252.550781 106.566406 C 251.875 107.515625 250.542969 108.011719 248.554688 108.058594 C 253.0625 114.257812 255.96875 119.585938 257.277344 124.035156 C 258.054688 123.609375 259.289062 123.015625 260.984375 122.257812 C 264.085938 120.507812 265.636719 118.449219 265.636719 116.082031 C 265.636719 112.152344 264.546875 108.199219 262.367188 104.226562 L 262.582031 103.65625 M 181.753906 84.132812 L 172.085938 85.835938 L 171.648438 85.625 L 168.742188 86.902344 L 164.453125 93.292969 C 161.785156 96.890625 159.871094 99.183594 158.710938 100.179688 L 158.78125 100.675781 C 158.78125 102.570312 158.492188 105.289062 157.910156 108.839844 C 157.328125 112.390625 157.039062 115.089844 157.039062 116.933594 C 157.039062 120.152344 157.230469 122.023438 157.621094 122.542969 L 164.671875 128.082031 L 168.523438 127.582031 C 168.863281 126.589844 170.195312 125.097656 172.519531 123.109375 C 175.089844 120.933594 177.5625 119.183594 179.933594 117.855469 L 184.804688 115.941406 C 187.132812 115.039062 188.488281 114.332031 188.875 113.808594 L 190.839844 111.183594 L 192.074219 109.835938 L 192.148438 109.691406 L 192.800781 109.480469 L 202.179688 109.265625 L 203.269531 109.691406 C 204.625 109.691406 206.078125 109.101562 207.628906 107.917969 L 210.027344 105.859375 C 213.277344 103.632812 215.238281 102.519531 215.917969 102.519531 C 216.835938 102.519531 218.460938 103.183594 220.785156 104.507812 C 222.96875 105.691406 224.421875 106.640625 225.148438 107.347656 L 235.324219 112.957031 C 233.96875 108.414062 233.167969 105.195312 232.925781 103.300781 C 232.78125 101.789062 232.222656 99.894531 231.253906 97.621094 C 230.332031 95.445312 229.875 94.097656 229.875 93.574219 L 230.089844 93.078125 L 223.1875 89.457031 L 222.894531 89.671875 L 222.53125 89.171875 L 221.367188 88.605469 C 212.304688 84.441406 205.402344 82.359375 200.652344 82.359375 L 187.058594 83.210938 L 187.929688 83.351562 L 183.789062 83.917969 L 182.769531 83.917969 L 181.753906 84.132812 M 252.625 103.230469 C 253.0625 102.425781 253.644531 101.8125 254.371094 101.386719 C 255.046875 101.007812 255.386719 100.4375 255.386719 99.679688 L 254.878906 94.570312 L 251.609375 91.515625 C 243.175781 84.039062 236.292969 80.300781 230.964844 80.300781 C 227.570312 80.300781 225.292969 81.742188 224.128906 84.628906 C 223.695312 85.671875 223.453125 86.925781 223.402344 88.394531 L 225.148438 89.246094 C 231.496094 92.414062 236.535156 95.539062 240.269531 98.617188 L 240.195312 98.617188 L 240.195312 98.902344 C 240.777344 99.089844 241.40625 99.730469 242.085938 100.816406 L 242.375 100.605469 L 242.375 100.535156 L 244.703125 103.089844 L 247.828125 107.136719 L 248.992188 106.851562 C 250.203125 106.710938 250.953125 106.332031 251.242188 105.714844 L 252.40625 103.585938 L 252.480469 103.515625 L 252.84375 103.300781 L 252.625 103.230469 M 180.371094 136.957031 L 180.445312 137.027344 L 184.152344 140.222656 L 189.386719 143.0625 C 191.324219 144.054688 192.558594 145.097656 193.09375 146.183594 C 194.109375 148.078125 194.667969 149.972656 194.765625 151.863281 L 194.835938 151.863281 C 195.464844 151.863281 196.847656 152.691406 198.980469 154.351562 C 201.257812 156.148438 202.761719 157.6875 203.488281 158.964844 C 204.503906 160.761719 205.160156 163.320312 205.449219 166.632812 C 206.03125 174.109375 206.320312 179.152344 206.320312 181.753906 C 206.320312 190.085938 206.03125 197.066406 205.449219 202.699219 C 205.449219 203.503906 205.8125 206.011719 206.539062 210.226562 C 214.730469 209.042969 219.480469 208.046875 220.785156 207.242188 L 227.472656 202.414062 C 232.609375 198.488281 236.683594 195.054688 239.6875 192.121094 C 246.324219 185.496094 250.394531 178.535156 251.898438 171.246094 L 253.132812 166.136719 L 250.152344 168.125 C 249.910156 168.691406 249.570312 169.070312 249.136719 169.257812 L 242.519531 170.394531 L 237.070312 177.921875 L 235.253906 181.753906 C 234.1875 183.316406 232.394531 184.453125 229.875 185.164062 C 227.304688 185.875 225.65625 187.007812 224.929688 188.570312 C 224.496094 189.46875 224.128906 190.867188 223.839844 192.761719 C 223.453125 194.179688 221.539062 196.734375 218.097656 200.429688 L 215.699219 200.429688 C 215.554688 200.476562 215.480469 200.332031 215.480469 200 L 218.242188 199.148438 C 220.328125 197.964844 221.878906 195.578125 222.894531 191.980469 C 224.058594 187.53125 226.09375 184.972656 229 184.3125 C 231.472656 183.789062 233.265625 182.726562 234.378906 181.117188 L 236.199219 177.210938 C 236.777344 176.027344 237.796875 174.464844 239.25 172.527344 L 240.632812 170.75 C 237.289062 171.507812 234.890625 172.953125 233.433594 175.082031 C 231.882812 177.402344 229.097656 178.84375 225.074219 179.414062 L 212.425781 181.683594 L 211.773438 181.472656 L 211.773438 181.046875 C 211.773438 180.429688 213.734375 179.839844 217.660156 179.269531 L 224.421875 178.488281 C 227.328125 178.253906 229.386719 177.753906 230.601562 177 C 231.570312 176.429688 232.296875 175.507812 232.78125 174.230469 C 236.5625 171.390625 239.445312 169.851562 241.429688 169.613281 L 241.722656 169.613281 L 242.15625 169.332031 L 242.667969 169.472656 L 248.191406 168.621094 L 249.28125 167.484375 L 253.425781 164.785156 L 253.859375 162.796875 C 249.402344 165.023438 242.183594 166.136719 232.199219 166.136719 C 227.742188 166.136719 225.292969 165.851562 224.859375 165.285156 L 222.894531 158.253906 C 222.699219 154.375 222.363281 151.558594 221.878906 149.804688 C 220.8125 140.480469 220.277344 134.871094 220.277344 132.980469 C 220.277344 131.558594 221.199219 130.445312 223.039062 129.644531 L 231.183594 126.589844 C 233.410156 125.644531 236.777344 124.507812 241.285156 123.183594 C 247.148438 121.429688 251.292969 120.554688 253.714844 120.554688 L 254.585938 120.625 L 254.007812 119.488281 L 254.296875 119.277344 L 254.296875 119.136719 L 253.789062 118.921875 L 251.824219 115.371094 C 248.871094 110.355469 245.9375 106.214844 243.03125 102.949219 C 240.074219 99.730469 236.074219 96.628906 231.035156 93.648438 C 232.199219 95.539062 233.992188 102 236.414062 113.027344 C 236.414062 113.785156 236.125 114.164062 235.542969 114.164062 C 235.105469 114.164062 231.933594 112.414062 226.019531 108.910156 C 220.109375 105.359375 216.742188 103.585938 215.917969 103.585938 C 215.140625 103.585938 213.929688 104.203125 212.28125 105.433594 L 209.375 107.632812 C 208.019531 108.34375 207.195312 109.125 206.902344 109.976562 L 202.394531 110.332031 L 193.019531 110.046875 L 192.65625 110.757812 L 192.4375 111.042969 L 191.785156 111.609375 L 190.839844 112.886719 L 188.949219 115.230469 C 186.769531 115.941406 183.789062 117.21875 180.007812 119.0625 C 177.488281 120.292969 175.257812 121.832031 173.320312 123.679688 L 169.902344 127.582031 L 171.722656 127.9375 C 173.515625 128.222656 174.871094 129.074219 175.792969 130.496094 C 176.421875 131.441406 176.953125 132.601562 177.390625 133.972656 L 180.371094 136.957031 M 256.550781 137.453125 C 255.53125 137.546875 254.953125 138.164062 254.804688 139.296875 L 254.371094 141.710938 L 254.371094 146.824219 L 253.714844 153.425781 C 253.183594 155.367188 251.851562 156.339844 249.71875 156.339844 C 248.023438 156.339844 246.929688 155.722656 246.445312 154.492188 L 246.226562 152.644531 L 247.972656 142.777344 L 247.609375 140.007812 C 243.636719 139.34375 241.722656 142.042969 241.867188 148.101562 C 241.867188 150.609375 241.503906 153.640625 240.777344 157.191406 L 240.121094 157.402344 L 239.613281 157.191406 C 239.324219 157.519531 238.597656 157.6875 237.433594 157.6875 C 235.105469 157.6875 233.703125 156.125 233.21875 153 L 233.21875 148.101562 C 233.21875 142.515625 233.628906 139.039062 234.453125 137.664062 L 235.179688 137.453125 C 235.324219 136.980469 236.171875 136.339844 237.722656 135.535156 C 239.710938 134.542969 241.769531 134.042969 243.902344 134.042969 L 245.066406 134.117188 C 251.171875 132.03125 254.976562 130.824219 256.476562 130.496094 L 256.476562 129.359375 C 256.476562 129.027344 256.625 128.765625 256.914062 128.578125 L 256.695312 126.660156 L 243.25 130.777344 C 233.507812 133.855469 228.636719 136.054688 228.636719 137.382812 C 228.636719 138.800781 229.121094 142.707031 230.089844 149.097656 C 230.332031 153.875 230.890625 156.859375 231.761719 158.042969 C 232.683594 159.320312 234.816406 159.957031 238.160156 159.957031 L 248.84375 159.746094 L 249.789062 159.53125 L 250.371094 159.179688 C 251.582031 159.035156 252.1875 158.726562 252.1875 158.253906 C 253.011719 157.734375 253.980469 157.261719 255.097656 156.835938 L 256.332031 150.160156 C 256.816406 147.367188 256.988281 143.890625 256.839844 139.722656 L 256.769531 137.453125 L 256.550781 137.453125 M 147.222656 159.957031 L 146.789062 160.597656 L 143.808594 165.285156 L 152.894531 172.808594 L 149.914062 178.207031 L 149.839844 178.132812 L 149.476562 178.132812 L 149.113281 177.992188 L 149.332031 178.207031 L 151.003906 180.121094 C 151.003906 180.738281 150.472656 181.046875 149.40625 181.046875 L 148.316406 180.902344 L 147.589844 182.039062 C 145.988281 184.359375 144.800781 185.519531 144.027344 185.519531 C 143.300781 185.519531 141.601562 184.617188 138.9375 182.820312 C 136.757812 181.351562 135.277344 180.121094 134.503906 179.128906 C 130.09375 185.660156 127.332031 189.46875 126.21875 190.558594 L 126.289062 190.914062 L 126.144531 190.914062 L 126.070312 191.128906 L 126.507812 191.765625 L 128.832031 202.203125 L 128.90625 202.203125 L 128.980469 203.195312 L 129.5625 206.035156 L 129.5625 207.457031 C 130.046875 209.539062 131.207031 212.996094 133.050781 217.824219 L 133.269531 217.609375 L 133.996094 218.816406 L 133.558594 219.171875 L 137.992188 230.390625 L 140.753906 227.265625 L 140.320312 226.839844 C 140.320312 226.082031 144.074219 220.710938 151.585938 210.722656 L 167.722656 189.351562 L 181.824219 170.75 C 187.15625 163.699219 191.152344 157.921875 193.820312 153.425781 C 194.207031 149.78125 190.765625 145.640625 183.496094 141.003906 L 176.738281 134.257812 C 173.394531 130.660156 171.1875 128.863281 170.121094 128.863281 C 169.25 128.863281 168.570312 129.191406 168.085938 129.855469 L 167.214844 130.777344 L 167.285156 130.992188 L 166.851562 131.417969 L 166.632812 131.203125 L 158.199219 144.269531 L 147.222656 159.957031 M 235.542969 138.304688 L 235.617188 138.304688 L 235.542969 138.234375 L 235.542969 138.304688 M 166.050781 129.074219 L 165.980469 129.074219 L 166.050781 129.144531 L 166.488281 129.5 L 166.414062 129.644531 L 166.851562 128.933594 L 167.070312 129.074219 L 167.433594 128.789062 C 167.773438 128.554688 168.085938 128.363281 168.378906 128.222656 L 168.378906 128.082031 C 167.941406 128.128906 167.164062 128.460938 166.050781 129.074219 M 118.949219 162.371094 L 124.617188 167.554688 C 129.320312 171.722656 132.757812 174.488281 134.941406 175.863281 L 140.246094 168.335938 L 140.464844 168.335938 L 140.683594 168.050781 L 140.535156 167.980469 L 140.753906 167.699219 L 140.753906 167.625 L 140.683594 167.625 L 138.648438 167.058594 C 136.078125 165.828125 131.839844 162.773438 125.925781 157.898438 L 115.96875 149.167969 L 117.132812 156.765625 L 118.074219 161.589844 L 118.804688 162.230469 L 118.730469 162.300781 L 118.949219 162.371094 M 143.808594 165.285156 L 143.734375 165.285156 L 143.808594 165.285156 M 142.9375 166.988281 C 143.710938 166.988281 146.011719 169.117188 149.839844 173.378906 L 148.53125 176.003906 L 148.75 176.429688 L 148.605469 176.785156 L 148.460938 177 L 148.386719 177.210938 L 148.96875 177.851562 L 148.96875 177.566406 L 149.113281 177.351562 L 151.585938 173.164062 L 143.226562 166.066406 L 142.574219 167.058594 L 142.9375 166.988281 M 138.066406 173.875 L 135.738281 177.351562 L 136.101562 177.210938 C 137.167969 177.210938 139.445312 178.703125 142.9375 181.683594 C 143.226562 181.683594 143.90625 180.878906 144.972656 179.269531 L 145.042969 179.414062 L 145.117188 179.339844 L 145.261719 178.488281 L 145.40625 178.488281 L 145.042969 177.496094 L 145.117188 176.644531 L 145.261719 176.644531 L 145.480469 176.574219 L 145.625 175.71875 L 146.207031 175.507812 L 147.515625 176.359375 L 147.660156 176.074219 L 147.152344 175.792969 L 148.316406 173.660156 C 148.316406 173.046875 147.347656 171.886719 145.40625 170.183594 L 142.355469 167.34375 L 138.5 173.304688 C 138.210938 173.355469 138.066406 173.496094 138.066406 173.734375 L 138.066406 173.875 M 145.988281 177.566406 L 146.570312 178.488281 L 146.570312 178.558594 L 148.96875 179.980469 L 149.476562 179.980469 L 146.132812 177.28125 L 145.988281 177.566406 M 135.449219 177.851562 L 135.011719 178.488281 L 143.589844 184.3125 L 145.625 182.464844 L 145.550781 182.324219 L 146.132812 181.753906 L 146.644531 181.117188 L 146.714844 181.257812 L 147.515625 180.546875 L 146.496094 179.839844 L 145.84375 180.40625 L 144.027344 183.03125 L 143.371094 183.175781 L 135.449219 177.851562 L 135.449219 177.78125 L 135.449219 177.851562 M 124.835938 170.113281 L 118.511719 163.4375 C 120.351562 171.910156 122.824219 180.40625 125.925781 188.925781 L 134.214844 176.925781 C 132.175781 176.40625 129.050781 174.132812 124.835938 170.113281 M 176.226562 274.621094 C 175.984375 274.90625 175.695312 275.046875 175.355469 275.046875 C 172.496094 275.046875 166.898438 272.113281 158.5625 266.242188 C 156.480469 264.824219 154.808594 263.191406 153.546875 261.34375 L 150.496094 256.660156 C 149.089844 254.90625 146.765625 251.285156 143.515625 245.796875 L 142.574219 244.234375 L 141.699219 242.671875 C 139.714844 239.359375 138.71875 237.535156 138.71875 237.203125 L 139.011719 236.496094 L 132.832031 219.808594 L 132.46875 219.027344 L 132.46875 218.957031 L 129.996094 213.421875 C 128.882812 210.816406 128.324219 208.757812 128.324219 207.242188 L 128.035156 204.546875 L 124.398438 188.714844 L 122 181.046875 C 119.773438 173.660156 118.101562 167.175781 116.984375 161.589844 L 116.695312 161.238281 L 116.839844 160.953125 L 116.113281 157.191406 L 114.730469 147.746094 L 114.585938 147.390625 L 114.660156 147.109375 C 113.109375 135.890625 112.332031 126.496094 112.332031 118.921875 C 108.070312 119.394531 104.941406 120.792969 102.957031 123.109375 C 102.230469 125.195312 101.476562 126.707031 100.703125 127.65625 L 100.339844 127.65625 L 100.339844 128.007812 L 99.757812 128.507812 C 99.417969 128.410156 99.25 128.222656 99.25 127.9375 C 99.25 127.085938 99.417969 126.234375 99.757812 125.382812 L 99.25 125.523438 L 96.921875 127.085938 L 96.851562 126.945312 L 96.414062 126.945312 L 96.414062 127.371094 C 95.25 127.9375 94.453125 128.363281 94.015625 128.648438 C 91.980469 129.925781 90.429688 130.328125 89.363281 129.855469 L 84.855469 129.714844 C 81.511719 130.898438 79.839844 133.359375 79.839844 137.097656 C 79.839844 138.847656 81.078125 141.308594 83.546875 144.480469 L 83.910156 148.03125 C 83.910156 149.640625 84.226562 150.847656 84.855469 151.652344 L 84.855469 154.988281 L 85.367188 154.703125 L 91.035156 155.132812 L 94.597656 154.703125 C 94.742188 154.421875 95.179688 154.277344 95.90625 154.277344 C 99.152344 154.277344 100.703125 155.675781 100.558594 158.46875 C 101.71875 157.804688 102.785156 157.332031 103.757812 157.046875 L 103.828125 157.6875 L 103.828125 156.976562 L 104.554688 156.765625 L 105.355469 156.976562 L 106.226562 162.726562 C 106.226562 168.21875 103.949219 171.886719 99.394531 173.734375 L 99.46875 174.511719 C 99.46875 177.636719 98.570312 179.4375 96.777344 179.910156 L 96.851562 181.613281 C 96.851562 183.742188 95.976562 186.085938 94.234375 188.640625 C 94.910156 189.871094 95.589844 192.097656 96.269531 195.316406 L 96.195312 195.316406 L 96.269531 195.386719 L 96.996094 199.222656 C 98.789062 209.539062 100.339844 216.402344 101.648438 219.808594 L 108.84375 237.914062 L 108.917969 238.058594 L 108.917969 238.199219 L 114.515625 251.972656 L 114.515625 252.398438 C 115.046875 253.15625 115.582031 254.621094 116.113281 256.800781 L 117.277344 262.054688 L 117.347656 262.410156 L 117.859375 264.753906 C 118.972656 268.253906 120.839844 272.585938 123.453125 277.746094 C 126.652344 284.039062 129.050781 288.394531 130.652344 290.808594 L 134.648438 297.339844 C 135.230469 298.429688 136.585938 299.800781 138.71875 301.457031 L 138.71875 301.246094 L 139.300781 301.03125 C 139.59375 301.03125 141.722656 302.382812 145.699219 305.078125 C 149.960938 307.917969 152.75 309.976562 154.058594 311.253906 C 155.171875 312.296875 158.199219 313.953125 163.144531 316.226562 C 168.863281 318.828125 173.078125 320.128906 175.792969 320.128906 C 179.863281 320.128906 182.988281 318.640625 185.167969 315.65625 C 186.914062 313.242188 187.785156 310.402344 187.785156 307.136719 C 187.738281 302.453125 187.59375 298.972656 187.347656 296.703125 L 184.660156 288.253906 L 184.515625 290.097656 L 184.078125 290.167969 C 183.738281 288.9375 183.617188 286.785156 183.714844 283.707031 C 183.761719 280.867188 183.519531 278.691406 182.988281 277.175781 C 181.875 274.101562 180.492188 272.113281 178.84375 271.210938 L 178.84375 271 L 178.625 270.714844 L 178.480469 271.070312 C 174.703125 269.554688 172.230469 268.253906 171.066406 267.164062 L 170.996094 267.59375 L 172.375 272.773438 L 172.375 272.988281 L 175.863281 274.265625 L 175.792969 274.335938 L 175.792969 274.550781 L 176.226562 274.621094 M 103.027344 132.625 L 104.265625 136.246094 L 106.007812 142.777344 L 107.609375 153.355469 L 109.136719 163.863281 L 110.589844 169.046875 C 111.316406 171.320312 111.679688 173.046875 111.679688 174.230469 L 111.679688 174.867188 L 111.535156 174.726562 C 111.339844 174.207031 111.050781 173.828125 110.660156 173.589844 C 109.207031 169.660156 108.382812 166.679688 108.191406 164.644531 L 106.664062 154.421875 C 106.46875 152.054688 105.695312 147.984375 104.335938 142.210938 L 102.300781 133.691406 C 102.300781 132.980469 102.398438 132.53125 102.59375 132.339844 L 102.8125 132.765625 L 102.957031 132.695312 L 103.027344 132.625 M 111.316406 175.082031 L 111.242188 175.082031 L 111.242188 175.011719 L 111.316406 175.082031 M 103.902344 182.253906 C 110.25 195.222656 118.949219 213.917969 129.996094 238.339844 L 129.996094 239.265625 C 130.046875 239.40625 129.898438 239.476562 129.5625 239.476562 C 129.414062 239.476562 128.859375 238.460938 127.890625 236.421875 L 128.035156 236.636719 L 128.105469 236.421875 L 127.234375 235.074219 L 123.746094 227.195312 L 115.242188 207.667969 C 105.015625 187.457031 99.902344 176.902344 99.902344 176.003906 C 99.902344 175.769531 100.074219 175.554688 100.414062 175.367188 L 103.683594 181.828125 L 103.609375 181.96875 L 103.902344 182.253906 M 119.238281 119.914062 L 116.039062 118.707031 L 113.351562 118.851562 C 113.691406 119.609375 113.957031 121.171875 114.152344 123.535156 C 114.972656 123.109375 116.332031 122.613281 118.222656 122.046875 C 118.949219 121.808594 119.289062 121.289062 119.238281 120.484375 L 119.238281 119.914062 M 67.191406 219.882812 L 67.265625 219.3125 L 67.191406 218.957031 L 67.046875 219.101562 L 66.757812 217.609375 L 67.628906 214.273438 C 67.628906 213.183594 67.046875 212 65.882812 210.722656 C 65.738281 210.582031 65.667969 210.058594 65.667969 209.160156 C 65.667969 208.734375 65.496094 208.402344 65.15625 208.167969 L 64.792969 207.882812 L 58.980469 216.898438 C 58.203125 218.273438 55.394531 221.5625 50.546875 226.769531 L 51.273438 227.265625 L 51.199219 227.621094 L 51.78125 227.976562 C 51.976562 227.738281 54.035156 226.816406 57.960938 225.207031 L 63.847656 223.003906 L 64.140625 223.003906 L 64.429688 222.792969 L 66.320312 222.4375 L 68.066406 222.578125 C 67.726562 222.058594 67.460938 221.347656 67.265625 220.449219 L 67.191406 219.882812 M 43.933594 232.589844 L 44.003906 232.730469 L 44.949219 232.589844 C 47.324219 232.589844 52.703125 236.613281 61.085938 244.660156 C 61.085938 245.273438 60.433594 246.601562 59.125 248.636719 C 57.863281 250.574219 56.992188 251.710938 56.507812 252.042969 L 48.800781 258.859375 L 48.21875 258.789062 L 48.074219 258.574219 L 46.402344 258.644531 C 45.484375 258.644531 44.925781 258.480469 44.730469 258.148438 L 44.730469 257.652344 C 44.730469 255.804688 45.484375 253.984375 46.984375 252.183594 L 52.4375 246.078125 L 47.128906 243.097656 L 43.132812 248.707031 C 40.757812 251.59375 39.230469 253.039062 38.554688 253.039062 L 34.046875 250.480469 L 34.046875 250.199219 C 34.046875 249.015625 35.28125 247.074219 37.753906 244.375 C 40.226562 241.726562 41.460938 239.902344 41.460938 238.910156 C 41.460938 238.484375 41 237.867188 40.078125 237.0625 L 39.351562 236.421875 L 38.625 236.851562 L 36.664062 238.128906 L 35.9375 238.410156 L 33.246094 242.957031 C 31.308594 245.699219 29.902344 247.074219 29.03125 247.074219 C 28.546875 247.074219 28.230469 246.835938 28.085938 246.363281 L 27.722656 248.351562 L 27.722656 248.636719 L 38.84375 256.730469 C 43.109375 259.804688 46.523438 262.007812 49.09375 263.332031 C 50.0625 262.007812 52.921875 258.667969 57.671875 253.320312 C 59.65625 251.238281 62.105469 247.734375 65.011719 242.8125 C 54.011719 235.996094 47.882812 231.925781 46.621094 230.601562 L 43.933594 232.589844 M 55.925781 230.886719 L 60.214844 234.082031 C 64.769531 237.109375 68.160156 238.886719 70.390625 239.40625 C 71.3125 239.59375 71.773438 239.785156 71.773438 239.972656 C 71.773438 241.394531 69.082031 245.84375 63.703125 253.320312 C 58.277344 261.082031 55.027344 265.25 53.964844 265.816406 L 50.183594 270.503906 C 48.535156 270.503906 44.609375 268.324219 38.40625 263.972656 L 28.375 256.515625 C 29.25 262.621094 31.136719 268.988281 34.046875 275.613281 L 34.046875 275.6875 L 34.046875 275.613281 L 44.296875 282.925781 L 49.601562 282.714844 L 50.402344 282.714844 L 50.472656 282.644531 L 52.507812 282.074219 C 53.527344 281.460938 54.207031 281.152344 54.542969 281.152344 C 55.707031 281.152344 58.203125 282.050781 62.03125 283.851562 C 65.859375 285.601562 68.257812 286.476562 69.226562 286.476562 C 76.253906 286.476562 79.574219 285.933594 79.1875 284.84375 C 81.902344 284.609375 83.574219 284.277344 84.203125 283.851562 L 84.929688 283.425781 L 84.710938 282.21875 C 83.695312 276.726562 82.722656 273.058594 81.804688 271.210938 C 80.980469 269.554688 79.792969 265.886719 78.242188 260.207031 C 76.691406 254.433594 75.914062 250.789062 75.914062 249.273438 C 75.914062 248.042969 76.035156 247.332031 76.277344 247.144531 C 76.425781 247.003906 77.902344 246.199219 80.714844 244.730469 L 82.964844 242.386719 C 84.324219 241.109375 85.65625 240.46875 86.964844 240.46875 L 90.089844 240.753906 L 91.835938 237.84375 L 89.074219 231.878906 L 88.5625 231.949219 C 87.738281 231.949219 85.777344 230.863281 82.675781 228.683594 L 81.441406 227.832031 L 81.367188 227.121094 L 80.929688 227.121094 L 80.929688 227.40625 L 80.785156 227.335938 L 77.878906 225.417969 L 73.808594 225.988281 C 72.304688 225.988281 71.117188 225.585938 70.246094 224.78125 C 69.375 223.929688 68.5 223.503906 67.628906 223.503906 L 63.265625 224.425781 L 62.976562 224.496094 L 62.613281 224.355469 L 62.25 224.710938 C 59.679688 225.5625 56.433594 226.816406 52.507812 228.472656 L 55.925781 230.886719 M 80.859375 225.632812 L 81.148438 226.058594 L 81.441406 225.917969 L 88.492188 230.460938 C 86.214844 225.015625 84.589844 219.976562 83.621094 215.335938 C 83.765625 209.988281 83.449219 205.964844 82.675781 203.269531 C 80.398438 198.722656 78.773438 195.125 77.804688 192.476562 L 74.605469 194.746094 L 66.757812 204.757812 L 65.375 206.960938 C 65.761719 207.148438 66.417969 208.332031 67.339844 210.507812 L 68.71875 214.34375 C 68.71875 215.289062 68.378906 216.402344 67.703125 217.679688 L 67.773438 217.894531 L 67.703125 217.894531 L 67.773438 217.964844 C 67.871094 218.675781 68.550781 220.285156 69.808594 222.792969 L 69.808594 223.003906 L 70.753906 223.714844 C 71.382812 224.519531 72.039062 224.921875 72.71875 224.921875 L 77.441406 224.355469 C 78.121094 224.355469 79.257812 224.78125 80.859375 225.632812 M 97.214844 231.878906 L 95.46875 234.222656 L 95.542969 234.292969 L 94.089844 236.636719 L 95.6875 239.050781 L 97.941406 243.453125 C 99.441406 243.074219 100.195312 242.625 100.195312 242.105469 C 97.964844 237.511719 96.851562 234.460938 96.851562 232.945312 C 96.851562 232.519531 97.019531 232.1875 97.359375 231.949219 L 101.648438 242.316406 C 101.648438 242.835938 101.113281 243.40625 100.046875 244.019531 C 99.128906 244.542969 98.375 244.800781 97.796875 244.800781 C 97.554688 244.800781 96.777344 243.761719 95.46875 241.675781 L 93.359375 237.84375 L 92.925781 238.554688 L 92.996094 238.765625 L 92.996094 238.835938 L 97.578125 248.566406 L 104.917969 243.453125 L 97.648438 231.382812 L 97.285156 231.808594 L 97.214844 231.878906 M 106.808594 239.335938 C 106.082031 239.003906 105.476562 238.199219 104.992188 236.921875 L 103.828125 233.085938 C 101.988281 230.484375 100.847656 228.636719 100.414062 227.550781 L 98.085938 230.742188 L 106.226562 243.238281 C 101.332031 247.6875 98.449219 249.914062 97.578125 249.914062 C 97.285156 249.914062 96.4375 248.515625 95.03125 245.722656 C 93.726562 243.121094 92.851562 241.015625 92.417969 239.40625 L 89.726562 243.664062 L 89.652344 243.453125 L 89.289062 243.738281 L 89.363281 243.949219 L 89.144531 243.949219 L 89.144531 244.019531 C 90.257812 248.234375 91.15625 254.457031 91.835938 262.691406 C 92.175781 264.824219 93.191406 268.160156 94.886719 272.703125 C 96.4375 276.726562 97.433594 279.898438 97.867188 282.21875 L 104.335938 275.613281 C 111.460938 268.042969 115.433594 263.496094 116.257812 261.984375 L 116.621094 261.914062 L 113.933594 254.03125 L 113.640625 253.960938 L 108.40625 239.265625 L 107.535156 239.476562 L 106.953125 239.40625 L 106.953125 238.980469 L 106.808594 239.335938 M 101.066406 226.625 L 107.101562 238.339844 L 107.316406 238.410156 L 107.972656 238.058594 L 102.519531 224.355469 L 101.066406 226.625 M 120.621094 244.304688 C 120.667969 243.878906 120.839844 243.664062 121.128906 243.664062 C 121.757812 245.179688 122.484375 247.570312 123.308594 250.835938 C 124.085938 253.960938 124.933594 256.539062 125.855469 258.574219 C 128.375 264.398438 131.0625 269.367188 133.921875 273.484375 C 139.640625 281.4375 143.710938 286.359375 146.132812 288.253906 C 153.355469 294.074219 157.835938 297.53125 159.582031 298.617188 C 163.121094 300.75 166.921875 301.8125 170.996094 301.8125 C 171.671875 301.8125 173.199219 301.339844 175.574219 300.394531 C 178.289062 299.257812 180.175781 298.167969 181.242188 297.128906 L 181.679688 297.625 L 181.242188 297.554688 L 181.027344 297.765625 L 181.027344 297.980469 L 181.390625 298.261719 L 177.316406 300.675781 C 174.3125 302.144531 172.277344 302.878906 171.210938 302.878906 C 164.429688 302.878906 156.382812 298.59375 147.078125 290.027344 C 140.292969 283.78125 135.644531 278.476562 133.121094 274.125 C 125.273438 260.492188 121.128906 250.953125 120.691406 245.511719 L 120.839844 244.515625 L 120.621094 244.304688 M 112.332031 269.011719 L 119.167969 270.078125 L 117.566406 265.179688 L 117.058594 263.332031 L 112.332031 269.011719 M 94.816406 275.96875 L 94.886719 275.828125 L 94.816406 275.828125 L 90.960938 263.757812 C 90.527344 262.054688 89.96875 258.410156 89.289062 252.824219 L 88.34375 243.664062 C 88.34375 243.285156 88.492188 242.957031 88.78125 242.671875 L 88.925781 243.027344 L 89.507812 241.820312 L 86.382812 241.535156 C 85.460938 241.535156 84.445312 242.152344 83.328125 243.382812 L 81.441406 245.582031 L 77.949219 247.5 C 77.320312 247.925781 77.007812 248.539062 77.007812 249.34375 C 77.007812 250.859375 77.804688 254.410156 79.40625 259.996094 C 80.859375 265.203125 82.023438 268.847656 82.894531 270.929688 L 84.128906 276.253906 L 85.148438 280.941406 L 84.855469 280.941406 L 84.855469 281.152344 L 85.21875 281.367188 L 85.65625 283.355469 L 85.800781 283.355469 L 85.945312 283.707031 L 85.800781 284.207031 L 86.820312 287.898438 L 87.546875 288.179688 L 87.691406 288.394531 L 87.183594 288.890625 C 88.007812 290.878906 88.925781 291.875 89.945312 291.875 C 91.835938 291.875 93.601562 290.808594 95.25 288.679688 L 97.214844 285.269531 L 97.359375 284.84375 L 96.996094 285.199219 L 97.070312 284.347656 L 96.851562 283.210938 L 97.070312 283 L 94.816406 275.96875 M 81.148438 252.46875 C 84.636719 251.238281 87.085938 252.398438 88.492188 255.949219 C 89.265625 257.890625 89.871094 260.609375 90.308594 264.113281 C 92.199219 270.03125 93.144531 273.957031 93.144531 275.898438 L 91.324219 277.53125 C 89.871094 278.289062 88.441406 278.667969 87.039062 278.667969 C 85.488281 278.667969 84.566406 277.839844 84.273438 276.183594 L 83.984375 272.417969 L 82.457031 266.242188 C 79.984375 259.046875 78.75 254.953125 78.75 253.960938 L 80.058594 252.964844 L 81.222656 252.46875 L 81.148438 252.46875 M 80.058594 255.238281 L 83.839844 266.527344 L 83.910156 266.597656 L 85 273.34375 C 85.535156 276.183594 86.457031 277.601562 87.765625 277.601562 L 92.054688 276.113281 C 92.054688 274.597656 91.714844 272.679688 91.035156 270.359375 L 89.289062 264.609375 L 87.039062 255.308594 C 86.40625 254.21875 84.542969 253.675781 81.441406 253.675781 C 80.90625 253.675781 80.519531 253.9375 80.277344 254.457031 C 80.132812 254.742188 80.058594 255 80.058594 255.238281 M 84.636719 262.835938 L 84.636719 263.472656 L 84.785156 262.90625 L 84.929688 262.410156 C 85.171875 261.839844 85.488281 261.558594 85.875 261.558594 C 87.523438 261.558594 88.371094 263.496094 88.417969 267.378906 C 88.417969 268.042969 88.199219 268.371094 87.765625 268.371094 L 86.671875 267.804688 C 86.578125 267.996094 86.550781 268.324219 86.601562 268.800781 C 86.550781 269.128906 86.261719 269.296875 85.730469 269.296875 C 85.097656 269.296875 84.515625 268.398438 83.984375 266.597656 L 83.402344 263.828125 L 83.621094 262.835938 L 84.203125 262.621094 L 84.636719 262.835938 M 85.730469 263.046875 C 86.214844 264.703125 85.921875 265.558594 84.855469 265.605469 L 85.511719 267.308594 C 86.527344 266.691406 87.039062 266.054688 87.039062 265.390625 C 87.039062 264.585938 86.601562 263.804688 85.730469 263.046875 M 85.21875 284.84375 L 81.804688 285.765625 L 85.582031 287.328125 L 85.21875 284.84375 M 46.039062 293.71875 L 47.710938 296.0625 C 49.019531 297.8125 50.449219 299.234375 52 300.320312 L 57.742188 305.007812 C 60.214844 306.996094 62.347656 308.203125 64.140625 308.628906 C 65.59375 309.007812 68.28125 309.929688 72.207031 311.398438 L 83.476562 313.527344 L 83.546875 313.527344 L 84.421875 313.742188 L 89 314.949219 L 89.21875 303.375 C 89.074219 299.589844 89.800781 296.085938 91.398438 292.867188 L 89.871094 293.082031 C 87.980469 293.082031 86.625 291.613281 85.800781 288.679688 L 83.546875 287.828125 L 80.058594 286.121094 L 80.058594 285.980469 L 79.1875 286.050781 C 78.265625 287.046875 75.988281 287.542969 72.355469 287.542969 C 69.011719 287.542969 65.472656 286.667969 61.742188 284.914062 C 58.007812 283.117188 55.902344 282.21875 55.417969 282.21875 C 54.398438 282.21875 53.382812 282.523438 52.363281 283.140625 L 49.746094 283.851562 L 49.527344 283.496094 L 49.3125 283.921875 L 47.058594 283.992188 C 44.828125 283.992188 41.898438 282.761719 38.261719 280.300781 L 35.136719 278.027344 L 37.609375 283.070312 L 44.511719 291.800781 L 46.039062 293.71875 M 123.453125 288.820312 L 123.308594 288.605469 L 123.019531 288.820312 L 121.78125 288.820312 L 111.535156 288.039062 L 111.535156 287.753906 L 105.355469 287.753906 L 101.503906 287.683594 L 100.558594 287.753906 L 97.578125 287.328125 L 95.90625 289.53125 C 94.789062 290.902344 93.652344 291.875 92.488281 292.441406 L 92.488281 292.511719 L 92.269531 294.640625 C 91.445312 295.542969 91.035156 296.300781 91.035156 296.914062 L 91.617188 297.554688 L 91.398438 298.121094 L 91.253906 298.617188 L 94.523438 299.398438 L 110.589844 300.179688 L 111.535156 300.25 L 111.898438 300.25 L 112.332031 300.320312 L 112.332031 300.179688 L 112.550781 300.320312 L 129.996094 300.535156 L 132.90625 300.605469 C 133.582031 300.984375 134.238281 301.175781 134.867188 301.175781 C 135.253906 301.175781 135.375 301.101562 135.230469 300.960938 L 135.230469 300.675781 L 136.25 300.75 L 134.359375 298.546875 C 132.226562 295.800781 130.628906 293.339844 129.5625 291.164062 L 122.582031 278.171875 C 121.46875 276.183594 120.378906 273.675781 119.3125 270.644531 L 118.949219 270.714844 L 111.535156 270.21875 L 111.535156 269.863281 L 104.699219 276.679688 L 98.59375 283.636719 L 98.375 283.851562 L 98.449219 285.269531 L 98.160156 286.265625 L 98.742188 286.265625 L 99.105469 286.335938 L 101.285156 286.691406 L 111.535156 286.691406 L 111.535156 286.621094 L 116.039062 286.972656 C 121.324219 287.351562 123.964844 287.777344 123.964844 288.253906 L 123.890625 288.820312 L 123.453125 288.820312 M 113.496094 305.433594 C 113.980469 311.351562 114.320312 322.214844 114.515625 338.023438 L 115.09375 347.535156 C 115.386719 351.371094 115.335938 354.515625 114.949219 356.980469 C 114.515625 360.101562 115.410156 363.0625 117.640625 365.851562 L 117.710938 365.925781 L 120.910156 369.046875 L 129.851562 375.582031 L 129.632812 371.535156 L 129.34375 357.902344 C 128.46875 345.59375 128.035156 336.484375 128.035156 330.566406 L 128.179688 320.984375 L 128.90625 317.078125 L 128.761719 316.367188 L 128.46875 316.367188 L 128.253906 317.007812 L 128.324219 315.730469 L 128.90625 315.515625 C 129.390625 315.515625 129.5625 316.367188 129.414062 318.070312 L 128.980469 330.710938 L 129.632812 343.984375 L 130.433594 357.40625 L 130.652344 370.679688 L 131.085938 377.425781 C 131.234375 378.609375 132.300781 379.863281 134.285156 381.1875 C 136.128906 382.371094 137.628906 382.964844 138.792969 382.964844 L 139.664062 382.894531 L 140.101562 383.601562 L 140.464844 383.390625 L 140.320312 382.75 C 141.628906 382.324219 142.644531 381.308594 143.371094 379.699219 C 144.050781 378.277344 144.390625 377 144.390625 375.863281 C 143.953125 372.265625 143.734375 369.734375 143.734375 368.265625 L 144.171875 305.433594 L 144.316406 305.433594 L 144.246094 305.363281 L 141.410156 303.515625 L 140.902344 303.941406 C 139.929688 303.941406 138.742188 303.28125 137.339844 301.953125 L 134.867188 302.027344 L 112.914062 301.246094 L 113.496094 305.433594 M 131.085938 251.617188 L 130.652344 252.113281 L 130.433594 251.757812 L 130.941406 251.546875 L 131.085938 251.617188 C 132.007812 252.421875 137.265625 259.144531 146.859375 271.78125 L 150.132812 276.113281 C 151.828125 278.289062 153.574219 280.136719 155.367188 281.648438 C 160.84375 286.144531 167.988281 288.394531 176.808594 288.394531 L 179.933594 288.679688 L 179.570312 289.175781 L 174.046875 289.460938 L 171.648438 289.53125 C 165.785156 289.53125 159.898438 286.832031 153.984375 281.4375 L 145.699219 271.992188 C 140.367188 266.03125 135.472656 259.59375 131.015625 252.683594 L 131.085938 251.617188 "/>
<path style=" stroke:none;fill-rule:evenodd;fill:rgb(100%,100%,100%);fill-opacity:1;" d="M 100.703125 127.65625 C 101.476562 126.707031 102.230469 125.195312 102.957031 123.109375 C 104.941406 120.792969 108.070312 119.394531 112.332031 118.921875 C 112.332031 126.496094 113.109375 135.890625 114.660156 147.109375 L 114.585938 147.390625 L 114.730469 147.746094 L 116.113281 157.191406 L 116.839844 160.953125 L 116.695312 161.238281 L 116.984375 161.589844 C 118.101562 167.175781 119.773438 173.660156 122 181.046875 L 124.398438 188.714844 L 128.035156 204.546875 L 128.324219 207.242188 C 128.324219 208.757812 128.882812 210.816406 129.996094 213.421875 L 132.46875 218.957031 L 132.46875 219.027344 L 132.832031 219.808594 L 139.011719 236.496094 L 138.71875 237.203125 C 138.71875 237.535156 139.714844 239.359375 141.699219 242.671875 L 142.574219 244.234375 L 143.515625 245.796875 C 146.765625 251.285156 149.089844 254.90625 150.496094 256.660156 L 153.546875 261.34375 C 154.808594 263.191406 156.480469 264.824219 158.5625 266.242188 C 166.898438 272.113281 172.496094 275.046875 175.355469 275.046875 C 175.695312 275.046875 175.984375 274.90625 176.226562 274.621094 L 176.664062 274.621094 L 178.84375 271.210938 C 180.492188 272.113281 181.875 274.101562 182.988281 277.175781 C 183.519531 278.691406 183.761719 280.867188 183.714844 283.707031 C 183.617188 286.785156 183.738281 288.9375 184.078125 290.167969 L 184.515625 290.097656 L 184.660156 288.253906 L 187.347656 296.703125 C 187.59375 298.972656 187.738281 302.453125 187.785156 307.136719 C 187.785156 310.402344 186.914062 313.242188 185.167969 315.65625 C 182.988281 318.640625 179.863281 320.128906 175.792969 320.128906 C 173.078125 320.128906 168.863281 318.828125 163.144531 316.226562 C 158.199219 313.953125 155.171875 312.296875 154.058594 311.253906 C 152.75 309.976562 149.960938 307.917969 145.699219 305.078125 C 141.722656 302.382812 139.59375 301.03125 139.300781 301.03125 L 138.71875 301.246094 L 138.71875 301.457031 C 136.585938 299.800781 135.230469 298.429688 134.648438 297.339844 L 130.652344 290.808594 C 129.050781 288.394531 126.652344 284.039062 123.453125 277.746094 C 120.839844 272.585938 118.972656 268.253906 117.859375 264.753906 L 117.347656 262.410156 L 117.277344 262.054688 L 116.113281 256.800781 C 115.582031 254.621094 115.046875 253.15625 114.515625 252.398438 L 114.515625 251.972656 L 108.917969 238.199219 L 108.917969 238.058594 L 108.84375 237.914062 L 101.648438 219.808594 C 100.339844 216.402344 98.789062 209.539062 96.996094 199.222656 L 96.269531 195.386719 L 97.359375 195.527344 L 101.71875 193.824219 C 103.269531 193.824219 105.234375 196.710938 107.609375 202.488281 C 110.660156 209.777344 112.601562 214.011719 113.421875 215.195312 L 120.546875 226.128906 C 123.261719 230.390625 125.707031 233.820312 127.890625 236.421875 C 128.859375 238.460938 129.414062 239.476562 129.5625 239.476562 C 129.898438 239.476562 130.046875 239.40625 129.996094 239.265625 L 129.996094 238.339844 C 118.949219 213.917969 110.25 195.222656 103.902344 182.253906 L 104.046875 182.324219 C 104.578125 181.851562 105.28125 180.191406 106.15625 177.351562 C 106.882812 174.84375 107.632812 173.589844 108.40625 173.589844 C 108.988281 173.589844 109.933594 174.0625 111.242188 175.011719 L 111.242188 175.082031 L 111.316406 175.082031 L 111.679688 174.867188 L 111.679688 174.230469 C 111.679688 173.046875 111.316406 171.320312 110.589844 169.046875 L 109.136719 163.863281 L 107.609375 153.355469 L 106.007812 142.777344 L 104.265625 136.246094 L 103.027344 132.625 L 103.027344 132.199219 C 101.671875 130.210938 100.992188 128.695312 100.992188 127.65625 L 100.703125 127.65625 M 96.414062 127.371094 L 96.414062 127.796875 C 97.09375 131.015625 98.570312 136.054688 100.847656 142.917969 L 103.757812 157.046875 C 102.785156 157.332031 101.71875 157.804688 100.558594 158.46875 C 100.703125 155.675781 99.152344 154.277344 95.90625 154.277344 C 95.179688 154.277344 94.742188 154.421875 94.597656 154.703125 L 91.035156 155.132812 L 85.367188 154.703125 L 84.855469 154.988281 L 84.855469 151.652344 C 84.226562 150.847656 83.910156 149.640625 83.910156 148.03125 L 83.546875 144.480469 C 81.078125 141.308594 79.839844 138.847656 79.839844 137.097656 C 79.839844 133.359375 81.511719 130.898438 84.855469 129.714844 L 89.363281 129.855469 C 90.429688 130.328125 91.980469 129.925781 94.015625 128.648438 C 94.453125 128.363281 95.25 127.9375 96.414062 127.371094 M 90.527344 133.335938 C 89.507812 135.796875 89 138.542969 89 141.570312 C 89 142.941406 89.074219 143.792969 89.21875 144.125 L 91.035156 147.390625 C 93.167969 150.988281 94.910156 152.789062 96.269531 152.789062 L 96.703125 152.71875 C 94.039062 144.054688 92.199219 137.59375 91.179688 133.335938 L 90.527344 133.335938 M 96.050781 151.722656 C 96.050781 152.101562 96.027344 152.148438 95.976562 151.863281 L 96.050781 151.722656 M 120.621094 244.304688 L 120.546875 244.375 L 120.621094 243.878906 L 120.402344 243.878906 L 120.402344 244.515625 C 119.964844 244.945312 119.746094 246.125 119.746094 248.066406 C 119.746094 250.054688 119.917969 252.585938 120.257812 255.664062 L 120.476562 255.804688 C 120.8125 259.640625 121.515625 262.691406 122.582031 264.964844 L 125.636719 272.347656 C 126.894531 275.566406 128.132812 278.003906 129.34375 279.660156 L 134.578125 286.832031 C 136.855469 289.386719 139.761719 291.707031 143.300781 293.789062 L 142.136719 292.867188 L 149.695312 298.40625 L 153.984375 301.527344 L 154.421875 301.882812 C 159.703125 305.433594 164.550781 307.207031 168.957031 307.207031 C 172.300781 307.207031 175.453125 305.953125 178.410156 303.445312 C 180.878906 301.363281 182.117188 299.683594 182.117188 298.40625 C 182.210938 297.980469 182.066406 297.71875 181.679688 297.625 L 181.242188 297.128906 C 180.175781 298.167969 178.289062 299.257812 175.574219 300.394531 C 173.199219 301.339844 171.671875 301.8125 170.996094 301.8125 C 166.921875 301.8125 163.121094 300.75 159.582031 298.617188 C 157.835938 297.53125 153.355469 294.074219 146.132812 288.253906 C 143.710938 286.359375 139.640625 281.4375 133.921875 273.484375 C 131.0625 269.367188 128.375 264.398438 125.855469 258.574219 C 124.933594 256.539062 124.085938 253.960938 123.308594 250.835938 C 122.484375 247.570312 121.757812 245.179688 121.128906 243.664062 C 120.839844 243.664062 120.667969 243.878906 120.621094 244.304688 M 120.183594 248.28125 L 120.183594 248.210938 L 120.257812 247.855469 L 120.257812 248.28125 L 120.183594 248.28125 M 91.617188 297.554688 L 93.871094 294.640625 L 96.269531 293.507812 L 111.605469 292.9375 C 112.429688 292.890625 112.84375 292.703125 112.84375 292.371094 L 112.695312 292.15625 L 118.222656 291.019531 C 121.757812 290.074219 123.527344 289.386719 123.527344 288.960938 L 123.453125 288.820312 L 123.890625 288.820312 L 123.964844 288.253906 C 123.964844 287.777344 121.324219 287.351562 116.039062 286.972656 L 111.535156 286.621094 L 111.535156 286.691406 L 101.285156 286.691406 C 103.175781 285.839844 107.003906 283.78125 112.769531 280.511719 L 113.570312 280.511719 L 120.691406 283.921875 C 122.484375 285.011719 123.769531 286.429688 124.546875 288.179688 L 126.363281 292.65625 L 129.199219 297.054688 C 130.503906 298.761719 131.742188 299.945312 132.90625 300.605469 L 129.996094 300.535156 L 112.550781 300.320312 L 112.332031 300.179688 L 112.332031 300.320312 L 111.898438 300.25 L 111.535156 300.25 L 110.589844 300.179688 L 94.523438 299.398438 L 91.253906 298.617188 L 91.398438 298.121094 L 91.617188 297.554688 M 117.710938 365.925781 L 117.640625 365.851562 C 115.410156 363.0625 114.515625 360.101562 114.949219 356.980469 C 115.335938 354.515625 115.386719 351.371094 115.09375 347.535156 L 114.515625 338.023438 C 114.320312 322.214844 113.980469 311.351562 113.496094 305.433594 C 116.644531 307.660156 119.09375 309.078125 120.839844 309.695312 C 126.992188 311.777344 130.554688 313.148438 131.523438 313.8125 C 133.269531 315.042969 134.40625 316.699219 134.941406 318.78125 C 135.230469 319.917969 135.425781 321.574219 135.519531 323.75 C 136.054688 328.011719 136.175781 334.683594 135.886719 343.773438 C 136.371094 348.222656 136.152344 354.871094 135.230469 363.722656 C 134.941406 371.34375 136.417969 377.734375 139.664062 382.894531 L 138.792969 382.964844 C 137.628906 382.964844 136.128906 382.371094 134.285156 381.1875 C 132.300781 379.863281 131.234375 378.609375 131.085938 377.425781 L 130.652344 370.679688 L 130.433594 357.40625 L 129.632812 343.984375 L 128.980469 330.710938 L 129.414062 318.070312 C 129.5625 316.367188 129.390625 315.515625 128.90625 315.515625 L 128.324219 315.730469 L 128.253906 317.007812 C 127.136719 320.367188 126.582031 324.414062 126.582031 329.148438 L 126.726562 341.714844 L 126.507812 354.28125 C 126.460938 355.984375 125.707031 358.421875 124.253906 361.59375 C 122.65625 365.191406 121.152344 366.988281 119.746094 366.988281 L 117.859375 365.570312 L 117.785156 365.78125 L 117.710938 365.925781 M 131.085938 251.617188 L 130.941406 251.546875 L 130.433594 251.757812 L 130.652344 252.113281 C 130.503906 252.304688 130.433594 252.5625 130.433594 252.894531 C 130.433594 254.125 130.871094 255.855469 131.742188 258.078125 C 132.664062 260.304688 133.605469 261.886719 134.578125 262.835938 C 135.59375 263.875 136.636719 265.582031 137.703125 267.945312 C 138.816406 270.503906 139.738281 272.230469 140.464844 273.128906 C 142.113281 275.164062 145.917969 278.429688 151.875 282.925781 L 158.128906 287.96875 C 158.613281 288.535156 159.726562 289.316406 161.472656 290.3125 L 163.144531 291.375 L 164.089844 291.800781 L 164.453125 292.015625 L 165.035156 292.726562 L 175.355469 292.441406 C 176.664062 292.441406 177.851562 291.945312 178.917969 290.949219 C 179.789062 290.097656 180.226562 289.460938 180.226562 289.035156 L 180.007812 288.605469 L 179.933594 288.679688 L 176.808594 288.394531 C 167.988281 288.394531 160.84375 286.144531 155.367188 281.648438 C 153.574219 280.136719 151.828125 278.289062 150.132812 276.113281 L 146.859375 271.78125 C 137.265625 259.144531 132.007812 252.421875 131.085938 251.617188 M 158.78125 303.941406 L 158.710938 303.871094 L 158.855469 303.730469 L 158.78125 303.941406 "/>
<path style=" stroke:none;fill-rule:evenodd;fill:rgb(80.000001%,80.000001%,80.000001%);fill-opacity:1;" d="M 100.703125 127.65625 L 100.992188 127.65625 C 100.992188 128.695312 101.671875 130.210938 103.027344 132.199219 L 103.027344 132.625 L 102.957031 132.695312 L 102.8125 132.765625 L 102.59375 132.339844 C 102.398438 132.53125 102.300781 132.980469 102.300781 133.691406 L 104.335938 142.210938 C 105.695312 147.984375 106.46875 152.054688 106.664062 154.421875 L 108.191406 164.644531 C 108.382812 166.679688 109.207031 169.660156 110.660156 173.589844 C 111.050781 173.828125 111.339844 174.207031 111.535156 174.726562 L 111.679688 174.867188 L 111.316406 175.082031 L 111.242188 175.011719 C 109.933594 174.0625 108.988281 173.589844 108.40625 173.589844 C 107.632812 173.589844 106.882812 174.84375 106.15625 177.351562 C 105.28125 180.191406 104.578125 181.851562 104.046875 182.324219 L 103.902344 182.253906 L 103.609375 181.96875 L 103.683594 181.828125 L 100.414062 175.367188 C 100.074219 175.554688 99.902344 175.769531 99.902344 176.003906 C 99.902344 176.902344 105.015625 187.457031 115.242188 207.667969 L 123.746094 227.195312 L 127.234375 235.074219 L 128.105469 236.421875 L 128.035156 236.636719 L 127.890625 236.421875 C 125.707031 233.820312 123.261719 230.390625 120.546875 226.128906 L 113.421875 215.195312 C 112.601562 214.011719 110.660156 209.777344 107.609375 202.488281 C 105.234375 196.710938 103.269531 193.824219 101.71875 193.824219 L 97.359375 195.527344 L 96.269531 195.386719 L 96.195312 195.316406 L 96.269531 195.316406 C 95.589844 192.097656 94.910156 189.871094 94.234375 188.640625 C 95.976562 186.085938 96.851562 183.742188 96.851562 181.613281 L 96.777344 179.910156 C 98.570312 179.4375 99.46875 177.636719 99.46875 174.511719 L 99.394531 173.734375 C 103.949219 171.886719 106.226562 168.21875 106.226562 162.726562 L 105.355469 156.976562 L 104.554688 156.765625 L 103.828125 156.976562 L 103.828125 157.6875 L 103.757812 157.046875 L 100.847656 142.917969 C 98.570312 136.054688 97.09375 131.015625 96.414062 127.796875 L 96.414062 126.945312 L 96.851562 126.945312 L 96.921875 127.085938 L 99.25 125.523438 L 99.757812 125.382812 C 99.417969 126.234375 99.25 127.085938 99.25 127.9375 C 99.25 128.222656 99.417969 128.410156 99.757812 128.507812 L 100.339844 128.007812 L 100.339844 127.65625 L 100.703125 127.65625 M 178.84375 271.210938 L 176.664062 274.621094 L 176.226562 274.621094 L 175.792969 274.550781 L 175.792969 274.335938 L 175.863281 274.265625 L 172.375 272.988281 L 172.375 272.773438 L 170.996094 267.59375 L 171.066406 267.164062 C 172.230469 268.253906 174.703125 269.554688 178.480469 271.070312 L 178.625 270.714844 L 178.84375 271 L 178.84375 271.210938 M 119.238281 119.914062 L 119.238281 120.484375 C 119.289062 121.289062 118.949219 121.808594 118.222656 122.046875 C 116.332031 122.613281 114.972656 123.109375 114.152344 123.535156 C 113.957031 121.171875 113.691406 119.609375 113.351562 118.851562 L 116.039062 118.707031 L 119.238281 119.914062 M 90.527344 133.335938 L 91.179688 133.335938 C 92.199219 137.59375 94.039062 144.054688 96.703125 152.71875 L 96.269531 152.789062 C 94.910156 152.789062 93.167969 150.988281 91.035156 147.390625 L 89.21875 144.125 C 89.074219 143.792969 89 142.941406 89 141.570312 C 89 138.542969 89.507812 135.796875 90.527344 133.335938 M 96.050781 151.722656 L 95.976562 151.863281 C 96.027344 152.148438 96.050781 152.101562 96.050781 151.722656 M 181.679688 297.625 C 182.066406 297.71875 182.210938 297.980469 182.117188 298.40625 C 182.117188 299.683594 180.878906 301.363281 178.410156 303.445312 C 175.453125 305.953125 172.300781 307.207031 168.957031 307.207031 C 164.550781 307.207031 159.703125 305.433594 154.421875 301.882812 L 153.984375 301.527344 L 149.695312 298.40625 L 142.136719 292.867188 L 143.300781 293.789062 C 139.761719 291.707031 136.855469 289.386719 134.578125 286.832031 L 129.34375 279.660156 C 128.132812 278.003906 126.894531 275.566406 125.636719 272.347656 L 122.582031 264.964844 C 121.515625 262.691406 120.8125 259.640625 120.476562 255.804688 L 120.257812 255.664062 C 119.917969 252.585938 119.746094 250.054688 119.746094 248.066406 C 119.746094 246.125 119.964844 244.945312 120.402344 244.515625 L 120.402344 243.878906 L 120.621094 243.878906 L 120.546875 244.375 L 120.621094 244.304688 L 120.839844 244.515625 L 120.691406 245.511719 C 121.128906 250.953125 125.273438 260.492188 133.121094 274.125 C 135.644531 278.476562 140.292969 283.78125 147.078125 290.027344 C 156.382812 298.59375 164.429688 302.878906 171.210938 302.878906 C 172.277344 302.878906 174.3125 302.144531 177.316406 300.675781 L 181.390625 298.261719 L 181.027344 297.980469 L 181.027344 297.765625 L 181.242188 297.554688 L 181.679688 297.625 M 120.183594 248.28125 L 120.257812 248.28125 L 120.257812 247.855469 L 120.183594 248.210938 L 120.183594 248.28125 M 91.617188 297.554688 L 91.035156 296.914062 C 91.035156 296.300781 91.445312 295.542969 92.269531 294.640625 L 92.488281 292.511719 L 92.488281 292.441406 C 93.652344 291.875 94.789062 290.902344 95.90625 289.53125 L 97.578125 287.328125 L 100.558594 287.753906 L 101.503906 287.683594 L 105.355469 287.753906 L 111.535156 287.753906 L 111.535156 288.039062 L 121.78125 288.820312 L 123.019531 288.820312 L 123.308594 288.605469 L 123.453125 288.820312 L 123.527344 288.960938 C 123.527344 289.386719 121.757812 290.074219 118.222656 291.019531 L 112.695312 292.15625 L 112.84375 292.371094 C 112.84375 292.703125 112.429688 292.890625 111.605469 292.9375 L 96.269531 293.507812 L 93.871094 294.640625 L 91.617188 297.554688 M 101.285156 286.691406 L 99.105469 286.335938 L 98.742188 286.265625 L 98.160156 286.265625 L 98.449219 285.269531 L 98.375 283.851562 L 98.59375 283.636719 L 104.699219 276.679688 L 111.535156 269.863281 L 111.535156 270.21875 L 118.949219 270.714844 L 119.3125 270.644531 C 120.378906 273.675781 121.46875 276.183594 122.582031 278.171875 L 129.5625 291.164062 C 130.628906 293.339844 132.226562 295.800781 134.359375 298.546875 L 136.25 300.75 L 135.230469 300.675781 L 135.230469 300.960938 C 135.375 301.101562 135.253906 301.175781 134.867188 301.175781 C 134.238281 301.175781 133.582031 300.984375 132.90625 300.605469 C 131.742188 299.945312 130.503906 298.761719 129.199219 297.054688 L 126.363281 292.65625 L 124.546875 288.179688 C 123.769531 286.429688 122.484375 285.011719 120.691406 283.921875 L 113.570312 280.511719 L 112.769531 280.511719 C 107.003906 283.78125 103.175781 285.839844 101.285156 286.691406 M 117.710938 365.925781 L 117.785156 365.78125 L 117.859375 365.570312 L 119.746094 366.988281 C 121.152344 366.988281 122.65625 365.191406 124.253906 361.59375 C 125.707031 358.421875 126.460938 355.984375 126.507812 354.28125 L 126.726562 341.714844 L 126.582031 329.148438 C 126.582031 324.414062 127.136719 320.367188 128.253906 317.007812 L 128.46875 316.367188 L 128.761719 316.367188 L 128.90625 317.078125 L 128.179688 320.984375 L 128.035156 330.566406 C 128.035156 336.484375 128.46875 345.59375 129.34375 357.902344 L 129.632812 371.535156 L 129.851562 375.582031 L 120.910156 369.046875 L 117.710938 365.925781 M 139.664062 382.894531 C 136.417969 377.734375 134.941406 371.34375 135.230469 363.722656 C 136.152344 354.871094 136.371094 348.222656 135.886719 343.773438 C 136.175781 334.683594 136.054688 328.011719 135.519531 323.75 C 135.425781 321.574219 135.230469 319.917969 134.941406 318.78125 C 134.40625 316.699219 133.269531 315.042969 131.523438 313.8125 C 130.554688 313.148438 126.992188 311.777344 120.839844 309.695312 C 119.09375 309.078125 116.644531 307.660156 113.496094 305.433594 L 112.914062 301.246094 L 134.867188 302.027344 L 137.339844 301.953125 C 138.742188 303.28125 139.929688 303.941406 140.902344 303.941406 L 141.410156 303.515625 L 144.246094 305.363281 L 144.171875 305.433594 L 143.734375 368.265625 C 143.734375 369.734375 143.953125 372.265625 144.390625 375.863281 C 144.390625 377 144.050781 378.277344 143.371094 379.699219 C 142.644531 381.308594 141.628906 382.324219 140.320312 382.75 L 140.464844 383.390625 L 140.101562 383.601562 L 139.664062 382.894531 M 130.652344 252.113281 L 131.085938 251.617188 L 131.015625 252.683594 C 135.472656 259.59375 140.367188 266.03125 145.699219 271.992188 L 153.984375 281.4375 C 159.898438 286.832031 165.785156 289.53125 171.648438 289.53125 L 174.046875 289.460938 L 179.570312 289.175781 L 179.933594 288.679688 L 180.007812 288.605469 L 180.226562 289.035156 C 180.226562 289.460938 179.789062 290.097656 178.917969 290.949219 C 177.851562 291.945312 176.664062 292.441406 175.355469 292.441406 L 165.035156 292.726562 L 164.453125 292.015625 L 164.089844 291.800781 L 163.144531 291.375 L 161.472656 290.3125 C 159.726562 289.316406 158.613281 288.535156 158.128906 287.96875 L 151.875 282.925781 C 145.917969 278.429688 142.113281 275.164062 140.464844 273.128906 C 139.738281 272.230469 138.816406 270.503906 137.703125 267.945312 C 136.636719 265.582031 135.59375 263.875 134.578125 262.835938 C 133.605469 261.886719 132.664062 260.304688 131.742188 258.078125 C 130.871094 255.855469 130.433594 254.125 130.433594 252.894531 C 130.433594 252.5625 130.503906 252.304688 130.652344 252.113281 M 158.78125 303.941406 L 158.855469 303.730469 L 158.710938 303.871094 L 158.78125 303.941406 "/>
<path style=" stroke:none;fill-rule:evenodd;fill:rgb(57.254905%,36.078432%,26.666668%);fill-opacity:1;" d="M 147.222656 159.957031 L 147.953125 160.171875 C 148.871094 159.082031 151.851562 156.953125 156.890625 153.78125 C 162.367188 149.378906 165.566406 147.179688 166.488281 147.179688 L 185.242188 160.597656 L 184.441406 161.734375 L 179.933594 168.335938 L 171.285156 180.691406 C 168.570312 184.808594 165.953125 188.40625 163.433594 191.480469 C 153.257812 200.191406 146.109375 204.546875 141.992188 204.546875 C 139.761719 204.546875 135.835938 201.609375 130.214844 195.742188 L 130.140625 195.8125 L 128.105469 192.972656 L 128.253906 192.761719 C 127.960938 191.53125 127.378906 190.914062 126.507812 190.914062 L 126.289062 190.914062 L 126.21875 190.558594 C 127.332031 189.46875 130.09375 185.660156 134.503906 179.128906 C 135.277344 180.121094 136.757812 181.351562 138.9375 182.820312 C 141.601562 184.617188 143.300781 185.519531 144.027344 185.519531 C 144.800781 185.519531 145.988281 184.359375 147.589844 182.039062 L 148.316406 180.902344 L 149.40625 181.046875 C 150.472656 181.046875 151.003906 180.738281 151.003906 180.121094 L 149.332031 178.207031 L 149.476562 178.132812 L 149.839844 178.132812 L 149.914062 178.207031 L 152.894531 172.808594 L 143.808594 165.285156 L 146.789062 160.597656 L 147.222656 159.957031 M 118.949219 162.371094 L 119.382812 162.515625 L 119.746094 162.160156 C 119.746094 161.214844 119.820312 160.550781 119.964844 160.171875 C 120.257812 159.035156 120.960938 158.421875 122.074219 158.324219 L 125.636719 160.597656 L 125.78125 160.527344 L 130.140625 163.367188 C 135.328125 166.539062 138.695312 168.195312 140.246094 168.335938 L 134.941406 175.863281 C 132.757812 174.488281 129.320312 171.722656 124.617188 167.554688 L 118.949219 162.371094 M 140.535156 167.980469 L 138.648438 167.199219 L 138.648438 167.058594 L 140.683594 167.625 L 140.753906 167.699219 L 140.535156 167.980469 M 138.066406 173.875 L 138.066406 174.015625 L 139.15625 174.015625 L 139.375 173.449219 L 140.027344 172.738281 L 139.957031 172.667969 C 141.894531 171.578125 143.128906 171.035156 143.664062 171.035156 C 145.457031 171.035156 146.351562 171.671875 146.351562 172.953125 L 145.550781 174.300781 C 144.972656 174.773438 144.679688 175.246094 144.679688 175.71875 L 144.824219 176.644531 L 145.117188 176.644531 L 145.042969 177.496094 L 145.40625 178.488281 L 145.261719 178.488281 L 145.117188 179.339844 L 144.972656 179.269531 C 143.90625 180.878906 143.226562 181.683594 142.9375 181.683594 C 139.445312 178.703125 137.167969 177.210938 136.101562 177.210938 L 135.738281 177.351562 L 138.066406 173.875 M 97.359375 231.949219 L 97.214844 231.878906 L 97.285156 231.808594 L 97.359375 231.949219 M 89.726562 243.664062 L 92.417969 239.40625 C 92.851562 241.015625 93.726562 243.121094 95.03125 245.722656 C 96.4375 248.515625 97.285156 249.914062 97.578125 249.914062 C 98.449219 249.914062 101.332031 247.6875 106.226562 243.238281 L 98.085938 230.742188 L 100.414062 227.550781 C 100.847656 228.636719 101.988281 230.484375 103.828125 233.085938 L 104.992188 236.921875 C 105.476562 238.199219 106.082031 239.003906 106.808594 239.335938 C 106.566406 239.855469 106.445312 240.847656 106.445312 242.316406 C 106.445312 247.003906 108.335938 252.351562 112.117188 258.363281 C 112.117188 259.308594 108.261719 262.859375 100.558594 269.011719 L 89.726562 243.664062 M 89.144531 244.019531 L 89.144531 243.949219 L 89.363281 243.949219 L 89.144531 244.019531 "/>
<path style=" stroke:none;fill-rule:evenodd;fill:rgb(38.82353%,25.098041%,16.470589%);fill-opacity:1;" d="M 126.289062 190.914062 L 126.507812 190.914062 C 127.378906 190.914062 127.960938 191.53125 128.253906 192.761719 L 128.105469 192.972656 L 130.140625 195.8125 L 130.214844 195.742188 C 135.835938 201.609375 139.761719 204.546875 141.992188 204.546875 C 146.109375 204.546875 153.257812 200.191406 163.433594 191.480469 C 165.953125 188.40625 168.570312 184.808594 171.285156 180.691406 L 179.933594 168.335938 L 184.441406 161.734375 L 185.242188 160.597656 L 166.488281 147.179688 C 165.566406 147.179688 162.367188 149.378906 156.890625 153.78125 C 151.851562 156.953125 148.871094 159.082031 147.953125 160.171875 L 147.222656 159.957031 L 158.199219 144.269531 L 166.632812 131.203125 L 166.851562 131.417969 L 167.285156 130.992188 L 167.214844 130.777344 L 168.085938 129.855469 C 168.570312 129.191406 169.25 128.863281 170.121094 128.863281 C 171.1875 128.863281 173.394531 130.660156 176.738281 134.257812 L 183.496094 141.003906 C 190.765625 145.640625 194.207031 149.78125 193.820312 153.425781 C 191.152344 157.921875 187.15625 163.699219 181.824219 170.75 L 167.722656 189.351562 L 151.585938 210.722656 C 144.074219 220.710938 140.320312 226.082031 140.320312 226.839844 L 140.753906 227.265625 L 137.992188 230.390625 L 133.558594 219.171875 L 133.996094 218.816406 L 133.269531 217.609375 L 133.050781 217.824219 C 131.207031 212.996094 130.046875 209.539062 129.5625 207.457031 L 129.5625 206.035156 L 128.980469 203.195312 L 128.90625 202.203125 L 128.832031 202.203125 L 126.507812 191.765625 L 126.070312 191.128906 L 126.144531 190.914062 L 126.289062 190.914062 M 140.246094 168.335938 C 138.695312 168.195312 135.328125 166.539062 130.140625 163.367188 L 125.78125 160.527344 L 125.636719 160.597656 L 122.074219 158.324219 C 120.960938 158.421875 120.257812 159.035156 119.964844 160.171875 C 119.820312 160.550781 119.746094 161.214844 119.746094 162.160156 L 119.382812 162.515625 L 118.949219 162.371094 L 118.730469 162.300781 L 118.804688 162.230469 L 118.074219 161.589844 L 117.132812 156.765625 L 115.96875 149.167969 L 125.925781 157.898438 C 131.839844 162.773438 136.078125 165.828125 138.648438 167.058594 L 138.648438 167.199219 L 140.535156 167.980469 L 140.683594 168.050781 L 140.464844 168.335938 L 140.246094 168.335938 M 145.117188 176.644531 L 144.824219 176.644531 L 144.679688 175.71875 C 144.679688 175.246094 144.972656 174.773438 145.550781 174.300781 L 146.351562 172.953125 C 146.351562 171.671875 145.457031 171.035156 143.664062 171.035156 C 143.128906 171.035156 141.894531 171.578125 139.957031 172.667969 L 140.027344 172.738281 L 139.375 173.449219 L 139.15625 174.015625 L 138.066406 174.015625 L 138.066406 173.734375 C 138.066406 173.496094 138.210938 173.355469 138.5 173.304688 L 142.355469 167.34375 L 145.40625 170.183594 C 147.347656 171.886719 148.316406 173.046875 148.316406 173.660156 L 147.152344 175.792969 L 147.660156 176.074219 L 147.515625 176.359375 L 146.207031 175.507812 L 145.625 175.71875 L 145.480469 176.574219 L 145.261719 176.644531 L 145.117188 176.644531 M 97.359375 231.949219 C 97.019531 232.1875 96.851562 232.519531 96.851562 232.945312 C 96.851562 234.460938 97.964844 237.511719 100.195312 242.105469 C 100.195312 242.625 99.441406 243.074219 97.941406 243.453125 L 95.6875 239.050781 L 94.089844 236.636719 L 95.542969 234.292969 L 95.46875 234.222656 L 97.214844 231.878906 L 97.359375 231.949219 M 89.726562 243.664062 L 100.558594 269.011719 C 108.261719 262.859375 112.117188 259.308594 112.117188 258.363281 C 108.335938 252.351562 106.445312 247.003906 106.445312 242.316406 C 106.445312 240.847656 106.566406 239.855469 106.808594 239.335938 L 106.953125 238.980469 L 106.953125 239.40625 L 107.535156 239.476562 L 108.40625 239.265625 L 113.640625 253.960938 L 113.933594 254.03125 L 116.621094 261.914062 L 116.257812 261.984375 C 115.433594 263.496094 111.460938 268.042969 104.335938 275.613281 L 97.867188 282.21875 C 97.433594 279.898438 96.4375 276.726562 94.886719 272.703125 C 93.191406 268.160156 92.175781 264.824219 91.835938 262.691406 C 91.15625 254.457031 90.257812 248.234375 89.144531 244.019531 L 89.363281 243.949219 L 89.289062 243.738281 L 89.652344 243.453125 L 89.726562 243.664062 "/>
<path style=" stroke:none;fill-rule:evenodd;fill:rgb(60.000002%,60.000002%,60.000002%);fill-opacity:1;" d="M 142.9375 166.988281 L 142.574219 167.058594 L 143.226562 166.066406 L 151.585938 173.164062 L 149.113281 177.351562 L 148.96875 177.566406 L 148.96875 177.851562 L 148.386719 177.210938 L 148.460938 177 L 148.605469 176.785156 L 148.75 176.429688 L 148.53125 176.003906 L 149.839844 173.378906 C 146.011719 169.117188 143.710938 166.988281 142.9375 166.988281 M 145.988281 177.566406 L 146.132812 177.28125 L 149.476562 179.980469 L 148.96875 179.980469 L 146.570312 178.558594 L 146.570312 178.488281 L 145.988281 177.566406 M 135.449219 177.851562 L 143.371094 183.175781 L 144.027344 183.03125 L 145.84375 180.40625 L 146.496094 179.839844 L 147.515625 180.546875 L 146.714844 181.257812 L 146.644531 181.117188 L 146.132812 181.753906 L 145.550781 182.324219 L 145.625 182.464844 L 143.589844 184.3125 L 135.011719 178.488281 L 135.449219 177.851562 M 97.285156 231.808594 L 97.648438 231.382812 L 104.917969 243.453125 L 97.578125 248.566406 L 92.996094 238.835938 L 92.996094 238.765625 L 92.925781 238.554688 L 93.359375 237.84375 L 95.46875 241.675781 C 96.777344 243.761719 97.554688 244.800781 97.796875 244.800781 C 98.375 244.800781 99.128906 244.542969 100.046875 244.019531 C 101.113281 243.40625 101.648438 242.835938 101.648438 242.316406 L 97.359375 231.949219 L 97.285156 231.808594 M 101.066406 226.625 L 102.519531 224.355469 L 107.972656 238.058594 L 107.316406 238.410156 L 107.101562 238.339844 L 101.066406 226.625 M 80.058594 255.238281 C 80.058594 255 80.132812 254.742188 80.277344 254.457031 C 80.519531 253.9375 80.90625 253.675781 81.441406 253.675781 C 84.542969 253.675781 86.40625 254.21875 87.039062 255.308594 L 89.289062 264.609375 L 91.035156 270.359375 C 91.714844 272.679688 92.054688 274.597656 92.054688 276.113281 L 87.765625 277.601562 C 86.457031 277.601562 85.535156 276.183594 85 273.34375 L 83.910156 266.597656 L 83.839844 266.527344 L 80.058594 255.238281 M 84.785156 262.90625 L 84.636719 262.835938 L 84.203125 262.621094 L 83.621094 262.835938 L 83.402344 263.828125 L 83.984375 266.597656 C 84.515625 268.398438 85.097656 269.296875 85.730469 269.296875 C 86.261719 269.296875 86.550781 269.128906 86.601562 268.800781 C 86.550781 268.324219 86.578125 267.996094 86.671875 267.804688 L 87.765625 268.371094 C 88.199219 268.371094 88.417969 268.042969 88.417969 267.378906 C 88.371094 263.496094 87.523438 261.558594 85.875 261.558594 C 85.488281 261.558594 85.171875 261.839844 84.929688 262.410156 L 84.785156 262.90625 M 85.730469 263.046875 C 86.601562 263.804688 87.039062 264.585938 87.039062 265.390625 C 87.039062 266.054688 86.527344 266.691406 85.511719 267.308594 L 84.855469 265.605469 C 85.921875 265.558594 86.214844 264.703125 85.730469 263.046875 "/>
<path style=" stroke:none;fill-rule:evenodd;fill:rgb(82.352942%,70.980394%,53.725493%);fill-opacity:1;" d="M 253.351562 104.792969 L 253.425781 104.226562 C 254.054688 102.804688 254.78125 101.929688 255.605469 101.597656 C 256.1875 101.363281 256.476562 100.792969 256.476562 99.894531 L 256.257812 96.058594 C 258.632812 98.617188 260.574219 101.171875 262.074219 103.726562 C 261.734375 103.917969 261.371094 104.34375 260.984375 105.007812 C 260.304688 106.140625 259.117188 106.710938 257.421875 106.710938 L 254.804688 105.007812 L 254.078125 104.582031 L 253.859375 104.4375 L 253.859375 104.507812 L 253.644531 104.4375 L 253.496094 104.863281 L 253.351562 104.792969 M 240.269531 98.617188 C 236.535156 95.539062 231.496094 92.414062 225.148438 89.246094 L 223.402344 88.394531 C 223.453125 86.925781 223.695312 85.671875 224.128906 84.628906 C 225.292969 81.742188 227.570312 80.300781 230.964844 80.300781 C 236.292969 80.300781 243.175781 84.039062 251.609375 91.515625 L 254.878906 94.570312 L 255.386719 99.679688 C 255.386719 100.4375 255.046875 101.007812 254.371094 101.386719 C 253.644531 101.8125 253.0625 102.425781 252.625 103.230469 L 243.683594 99.824219 L 243.683594 99.539062 C 243.054688 98.925781 242.183594 98.617188 241.066406 98.617188 L 240.777344 98.617188 L 240.777344 98.6875 L 240.414062 98.617188 L 240.269531 98.617188 M 181.753906 84.132812 L 182.769531 83.917969 L 183.789062 83.917969 L 187.929688 83.351562 L 187.058594 83.210938 L 200.652344 82.359375 C 205.402344 82.359375 212.304688 84.441406 221.367188 88.605469 L 222.53125 89.171875 L 222.894531 89.671875 L 223.1875 89.457031 L 230.089844 93.078125 L 229.875 93.574219 C 229.875 94.097656 230.332031 95.445312 231.253906 97.621094 C 232.222656 99.894531 232.78125 101.789062 232.925781 103.300781 C 233.167969 105.195312 233.96875 108.414062 235.324219 112.957031 L 225.148438 107.347656 C 224.421875 106.640625 222.96875 105.691406 220.785156 104.507812 C 218.460938 103.183594 216.835938 102.519531 215.917969 102.519531 C 215.238281 102.519531 213.277344 103.632812 210.027344 105.859375 L 207.628906 107.917969 C 206.078125 109.101562 204.625 109.691406 203.269531 109.691406 L 202.179688 109.265625 L 192.800781 109.480469 L 192.148438 109.691406 L 192.074219 109.835938 L 190.839844 111.183594 L 188.875 113.808594 C 188.488281 114.332031 187.132812 115.039062 184.804688 115.941406 L 179.933594 117.855469 C 177.5625 119.183594 175.089844 120.933594 172.519531 123.109375 C 170.195312 125.097656 168.863281 126.589844 168.523438 127.582031 L 164.671875 128.082031 L 157.621094 122.542969 C 157.230469 122.023438 157.039062 120.152344 157.039062 116.933594 C 157.039062 115.089844 157.328125 112.390625 157.910156 108.839844 C 158.492188 105.289062 158.78125 102.570312 158.78125 100.675781 L 158.710938 100.179688 C 159.871094 99.183594 161.785156 96.890625 164.453125 93.292969 L 168.742188 86.902344 L 171.648438 85.625 L 172.085938 85.835938 L 181.753906 84.132812 M 252.480469 103.515625 L 252.40625 103.585938 L 252.40625 103.515625 L 252.480469 103.515625 M 253.789062 118.921875 C 249.425781 117.40625 246.738281 116.507812 245.71875 116.222656 C 244.75 115.988281 239.976562 115.867188 231.398438 115.867188 C 227.378906 115.867188 221.878906 116.792969 214.898438 118.636719 C 207.777344 120.53125 201.816406 122.683594 197.015625 125.097656 C 195.417969 125.949219 192.292969 127.984375 187.640625 131.203125 C 182.792969 134.519531 180.371094 136.363281 180.371094 136.742188 L 180.371094 136.957031 L 177.390625 133.972656 C 176.953125 132.601562 176.421875 131.441406 175.792969 130.496094 C 174.871094 129.074219 173.515625 128.222656 171.722656 127.9375 L 169.902344 127.582031 L 173.320312 123.679688 C 175.257812 121.832031 177.488281 120.292969 180.007812 119.0625 C 183.789062 117.21875 186.769531 115.941406 188.949219 115.230469 L 190.839844 112.886719 L 191.785156 111.609375 L 192.4375 111.042969 L 192.65625 110.757812 L 193.019531 110.046875 L 202.394531 110.332031 L 206.902344 109.976562 C 207.195312 109.125 208.019531 108.34375 209.375 107.632812 L 212.28125 105.433594 C 213.929688 104.203125 215.140625 103.585938 215.917969 103.585938 C 216.742188 103.585938 220.109375 105.359375 226.019531 108.910156 C 231.933594 112.414062 235.105469 114.164062 235.542969 114.164062 C 236.125 114.164062 236.414062 113.785156 236.414062 113.027344 C 233.992188 102 232.199219 95.539062 231.035156 93.648438 C 236.074219 96.628906 240.074219 99.730469 243.03125 102.949219 C 245.9375 106.214844 248.871094 110.355469 251.824219 115.371094 L 253.789062 118.921875 M 64.429688 222.792969 C 65.933594 221.609375 66.855469 220.636719 67.191406 219.882812 L 67.265625 220.449219 C 67.460938 221.347656 67.726562 222.058594 68.066406 222.578125 L 66.320312 222.4375 L 64.429688 222.792969 M 55.925781 230.886719 L 63.265625 224.566406 L 62.976562 224.496094 L 63.265625 224.425781 L 67.628906 223.503906 C 68.5 223.503906 69.375 223.929688 70.246094 224.78125 C 71.117188 225.585938 72.304688 225.988281 73.808594 225.988281 L 77.878906 225.417969 L 80.785156 227.335938 L 80.929688 227.40625 L 80.859375 227.691406 L 80.714844 227.476562 C 79.890625 230.269531 78.824219 234.742188 77.515625 240.898438 C 76.15625 246.480469 74.414062 251.097656 72.28125 254.742188 C 71.410156 256.304688 69.300781 258.621094 65.957031 261.699219 L 59.125 268.445312 L 54.328125 274.621094 C 51.128906 278.878906 49.527344 281.484375 49.527344 282.429688 L 49.601562 282.714844 L 44.296875 282.925781 L 34.046875 275.613281 L 34.046875 275.6875 L 34.046875 275.613281 C 31.136719 268.988281 29.25 262.621094 28.375 256.515625 L 38.40625 263.972656 C 44.609375 268.324219 48.535156 270.503906 50.183594 270.503906 L 53.964844 265.816406 C 55.027344 265.25 58.277344 261.082031 63.703125 253.320312 C 69.082031 245.84375 71.773438 241.394531 71.773438 239.972656 C 71.773438 239.785156 71.3125 239.59375 70.390625 239.40625 C 68.160156 238.886719 64.769531 237.109375 60.214844 234.082031 L 55.925781 230.886719 M 67.703125 217.679688 L 67.847656 217.75 L 67.773438 217.894531 L 67.703125 217.679688 M 67.773438 217.964844 L 68.5 218.105469 C 71.019531 214.128906 73.664062 212.140625 76.425781 212.140625 C 76.8125 212.140625 76.859375 212.167969 76.570312 212.214844 C 77.199219 213.824219 77.492188 216.140625 77.441406 219.171875 C 77.78125 220.636719 78.921875 222.792969 80.859375 225.632812 C 79.257812 224.78125 78.121094 224.355469 77.441406 224.355469 L 72.71875 224.921875 C 72.039062 224.921875 71.382812 224.519531 70.753906 223.714844 L 69.808594 223.003906 L 69.808594 222.792969 C 68.550781 220.285156 67.871094 218.675781 67.773438 217.964844 M 49.3125 283.921875 L 49.238281 284.132812 C 48.65625 284.324219 47.976562 285.4375 47.203125 287.472656 C 46.28125 289.839844 45.820312 291.519531 45.820312 292.511719 C 45.820312 293.128906 45.894531 293.53125 46.039062 293.71875 L 44.511719 291.800781 L 37.609375 283.070312 L 35.136719 278.027344 L 38.261719 280.300781 C 41.898438 282.761719 44.828125 283.992188 47.058594 283.992188 L 49.3125 283.921875 "/>
<path style=" stroke:none;fill-rule:evenodd;fill:rgb(68.627453%,58.823532%,42.745098%);fill-opacity:1;" d="M 262.511719 103.515625 L 262.582031 103.515625 L 262.582031 103.65625 L 262.367188 104.226562 C 264.546875 108.199219 265.636719 112.152344 265.636719 116.082031 C 265.636719 118.449219 264.085938 120.507812 260.984375 122.257812 C 259.289062 123.015625 258.054688 123.609375 257.277344 124.035156 C 255.96875 119.585938 253.0625 114.257812 248.554688 108.058594 C 250.542969 108.011719 251.875 107.515625 252.550781 106.566406 L 253.207031 105.21875 L 252.988281 105.007812 C 252.988281 104.863281 253.085938 104.792969 253.28125 104.792969 L 253.351562 104.792969 L 253.496094 104.863281 L 253.644531 104.4375 L 253.859375 104.507812 L 253.859375 104.4375 L 254.078125 104.582031 L 254.804688 105.007812 L 257.421875 106.710938 C 259.117188 106.710938 260.304688 106.140625 260.984375 105.007812 C 261.371094 104.34375 261.734375 103.917969 262.074219 103.726562 C 262.21875 103.585938 262.367188 103.515625 262.511719 103.515625 M 240.269531 98.617188 L 240.414062 98.617188 L 240.777344 98.6875 L 240.777344 98.617188 L 241.066406 98.617188 C 242.183594 98.617188 243.054688 98.925781 243.683594 99.539062 L 243.683594 99.824219 L 252.625 103.230469 L 252.84375 103.300781 L 252.480469 103.515625 L 252.40625 103.515625 L 252.40625 103.585938 L 251.242188 105.714844 C 250.953125 106.332031 250.203125 106.710938 248.992188 106.851562 L 247.828125 107.136719 L 244.703125 103.089844 L 242.375 100.535156 L 242.375 100.605469 L 242.085938 100.816406 C 241.40625 99.730469 240.777344 99.089844 240.195312 98.902344 L 240.195312 98.617188 L 240.269531 98.617188 M 253.789062 118.921875 L 254.296875 119.136719 L 254.296875 119.277344 L 254.007812 119.488281 L 254.585938 120.625 L 253.714844 120.554688 C 251.292969 120.554688 247.148438 121.429688 241.285156 123.183594 C 236.777344 124.507812 233.410156 125.644531 231.183594 126.589844 L 223.039062 129.644531 C 221.199219 130.445312 220.277344 131.558594 220.277344 132.980469 C 220.277344 134.871094 220.8125 140.480469 221.878906 149.804688 C 222.363281 151.558594 222.699219 154.375 222.894531 158.253906 L 224.859375 165.285156 C 225.292969 165.851562 227.742188 166.136719 232.199219 166.136719 C 242.183594 166.136719 249.402344 165.023438 253.859375 162.796875 L 253.425781 164.785156 L 249.28125 167.484375 L 248.191406 168.621094 L 242.667969 169.472656 L 242.15625 169.332031 L 241.722656 169.613281 L 241.429688 169.613281 C 239.445312 169.851562 236.5625 171.390625 232.78125 174.230469 C 232.296875 175.507812 231.570312 176.429688 230.601562 177 C 229.386719 177.753906 227.328125 178.253906 224.421875 178.488281 L 217.660156 179.269531 C 213.734375 179.839844 211.773438 180.429688 211.773438 181.046875 L 211.773438 181.472656 L 212.425781 181.683594 L 225.074219 179.414062 C 229.097656 178.84375 231.882812 177.402344 233.433594 175.082031 C 234.890625 172.953125 237.289062 171.507812 240.632812 170.75 L 239.25 172.527344 C 237.796875 174.464844 236.777344 176.027344 236.199219 177.210938 L 234.378906 181.117188 C 233.265625 182.726562 231.472656 183.789062 229 184.3125 C 226.09375 184.972656 224.058594 187.53125 222.894531 191.980469 C 221.878906 195.578125 220.328125 197.964844 218.242188 199.148438 L 215.480469 200 C 215.480469 200.332031 215.554688 200.476562 215.699219 200.429688 L 218.097656 200.429688 C 221.539062 196.734375 223.453125 194.179688 223.839844 192.761719 C 224.128906 190.867188 224.496094 189.46875 224.929688 188.570312 C 225.65625 187.007812 227.304688 185.875 229.875 185.164062 C 232.394531 184.453125 234.1875 183.316406 235.253906 181.753906 L 237.070312 177.921875 L 242.519531 170.394531 L 249.136719 169.257812 C 249.570312 169.070312 249.910156 168.691406 250.152344 168.125 L 253.132812 166.136719 L 251.898438 171.246094 C 250.394531 178.535156 246.324219 185.496094 239.6875 192.121094 C 236.683594 195.054688 232.609375 198.488281 227.472656 202.414062 L 220.785156 207.242188 C 219.480469 208.046875 214.730469 209.042969 206.539062 210.226562 C 205.8125 206.011719 205.449219 203.503906 205.449219 202.699219 C 206.03125 197.066406 206.320312 190.085938 206.320312 181.753906 C 206.320312 179.152344 206.03125 174.109375 205.449219 166.632812 C 205.160156 163.320312 204.503906 160.761719 203.488281 158.964844 C 202.761719 157.6875 201.257812 156.148438 198.980469 154.351562 C 196.847656 152.691406 195.464844 151.863281 194.835938 151.863281 L 194.765625 151.863281 C 194.667969 149.972656 194.109375 148.078125 193.09375 146.183594 C 192.558594 145.097656 191.324219 144.054688 189.386719 143.0625 L 184.152344 140.222656 L 180.445312 137.027344 L 180.371094 136.957031 L 180.371094 136.742188 C 180.371094 136.363281 182.792969 134.519531 187.640625 131.203125 C 192.292969 127.984375 195.417969 125.949219 197.015625 125.097656 C 201.816406 122.683594 207.777344 120.53125 214.898438 118.636719 C 221.878906 116.792969 227.378906 115.867188 231.398438 115.867188 C 239.976562 115.867188 244.75 115.988281 245.71875 116.222656 C 246.738281 116.507812 249.425781 117.40625 253.789062 118.921875 M 166.050781 129.144531 L 166.050781 129.074219 C 167.164062 128.460938 167.941406 128.128906 168.378906 128.082031 L 168.378906 128.222656 C 168.085938 128.363281 167.773438 128.554688 167.433594 128.789062 L 167.070312 129.074219 L 166.851562 128.933594 L 166.414062 129.644531 L 166.488281 129.5 L 166.050781 129.144531 M 64.429688 222.792969 L 64.140625 223.003906 L 63.847656 223.003906 L 57.960938 225.207031 C 54.035156 226.816406 51.976562 227.738281 51.78125 227.976562 L 51.199219 227.621094 L 51.273438 227.265625 L 50.546875 226.769531 C 55.394531 221.5625 58.203125 218.273438 58.980469 216.898438 L 64.792969 207.882812 L 65.15625 208.167969 C 65.496094 208.402344 65.667969 208.734375 65.667969 209.160156 C 65.667969 210.058594 65.738281 210.582031 65.882812 210.722656 C 67.046875 212 67.628906 213.183594 67.628906 214.273438 L 66.757812 217.609375 L 67.046875 219.101562 L 67.191406 218.957031 L 67.265625 219.3125 L 67.191406 219.882812 C 66.855469 220.636719 65.933594 221.609375 64.429688 222.792969 M 62.976562 224.496094 L 63.265625 224.566406 L 55.925781 230.886719 L 52.507812 228.472656 C 56.433594 226.816406 59.679688 225.5625 62.25 224.710938 L 62.613281 224.355469 L 62.976562 224.496094 M 49.601562 282.714844 L 49.527344 282.429688 C 49.527344 281.484375 51.128906 278.878906 54.328125 274.621094 L 59.125 268.445312 L 65.957031 261.699219 C 69.300781 258.621094 71.410156 256.304688 72.28125 254.742188 C 74.414062 251.097656 76.15625 246.480469 77.515625 240.898438 C 78.824219 234.742188 79.890625 230.269531 80.714844 227.476562 L 80.859375 227.691406 L 80.929688 227.40625 L 80.929688 227.121094 L 81.367188 227.121094 L 81.441406 227.832031 L 82.675781 228.683594 C 85.777344 230.863281 87.738281 231.949219 88.5625 231.949219 L 89.074219 231.878906 L 91.835938 237.84375 L 90.089844 240.753906 L 86.964844 240.46875 C 85.65625 240.46875 84.324219 241.109375 82.964844 242.386719 L 80.714844 244.730469 C 77.902344 246.199219 76.425781 247.003906 76.277344 247.144531 C 76.035156 247.332031 75.914062 248.042969 75.914062 249.273438 C 75.914062 250.789062 76.691406 254.433594 78.242188 260.207031 C 79.792969 265.886719 80.980469 269.554688 81.804688 271.210938 C 82.722656 273.058594 83.695312 276.726562 84.710938 282.21875 L 84.929688 283.425781 L 84.203125 283.851562 C 83.574219 284.277344 81.902344 284.609375 79.1875 284.84375 C 79.574219 285.933594 76.253906 286.476562 69.226562 286.476562 C 68.257812 286.476562 65.859375 285.601562 62.03125 283.851562 C 58.203125 282.050781 55.707031 281.152344 54.542969 281.152344 C 54.207031 281.152344 53.527344 281.460938 52.507812 282.074219 L 50.472656 282.644531 L 50.402344 282.714844 L 49.601562 282.714844 M 67.703125 217.679688 C 68.378906 216.402344 68.71875 215.289062 68.71875 214.34375 L 67.339844 210.507812 C 66.417969 208.332031 65.761719 207.148438 65.375 206.960938 L 66.757812 204.757812 L 74.605469 194.746094 L 77.804688 192.476562 C 78.773438 195.125 80.398438 198.722656 82.675781 203.269531 C 83.449219 205.964844 83.765625 209.988281 83.621094 215.335938 C 84.589844 219.976562 86.214844 225.015625 88.492188 230.460938 L 81.441406 225.917969 L 81.148438 226.058594 L 80.859375 225.632812 C 78.921875 222.792969 77.78125 220.636719 77.441406 219.171875 C 77.492188 216.140625 77.199219 213.824219 76.570312 212.214844 C 76.859375 212.167969 76.8125 212.140625 76.425781 212.140625 C 73.664062 212.140625 71.019531 214.128906 68.5 218.105469 L 67.773438 217.964844 L 67.703125 217.894531 L 67.773438 217.894531 L 67.847656 217.75 L 67.703125 217.679688 M 49.3125 283.921875 L 49.527344 283.496094 L 49.746094 283.851562 L 52.363281 283.140625 C 53.382812 282.523438 54.398438 282.21875 55.417969 282.21875 C 55.902344 282.21875 58.007812 283.117188 61.742188 284.914062 C 65.472656 286.667969 69.011719 287.542969 72.355469 287.542969 C 75.988281 287.542969 78.265625 287.046875 79.1875 286.050781 L 80.058594 285.980469 L 80.058594 286.121094 L 83.546875 287.828125 L 85.800781 288.679688 C 86.625 291.613281 87.980469 293.082031 89.871094 293.082031 L 91.398438 292.867188 C 89.800781 296.085938 89.074219 299.589844 89.21875 303.375 L 89 314.949219 L 84.421875 313.742188 L 83.546875 313.527344 L 83.476562 313.527344 L 72.207031 311.398438 C 68.28125 309.929688 65.59375 309.007812 64.140625 308.628906 C 62.347656 308.203125 60.214844 306.996094 57.742188 305.007812 L 52 300.320312 C 50.449219 299.234375 49.019531 297.8125 47.710938 296.0625 L 46.039062 293.71875 C 45.894531 293.53125 45.820312 293.128906 45.820312 292.511719 C 45.820312 291.519531 46.28125 289.839844 47.203125 287.472656 C 47.976562 285.4375 48.65625 284.324219 49.238281 284.132812 L 49.3125 283.921875 M 85.21875 284.84375 L 85.582031 287.328125 L 81.804688 285.765625 L 85.21875 284.84375 "/>
<path style=" stroke:none;fill-rule:evenodd;fill:rgb(56.862748%,51.764709%,25.098041%);fill-opacity:1;" d="M 256.769531 137.453125 L 256.839844 139.722656 C 256.988281 143.890625 256.816406 147.367188 256.332031 150.160156 L 255.097656 156.835938 C 253.980469 157.261719 253.011719 157.734375 252.1875 158.253906 C 252.1875 158.726562 251.582031 159.035156 250.371094 159.179688 L 249.789062 159.53125 L 248.84375 159.746094 L 238.160156 159.957031 C 234.816406 159.957031 232.683594 159.320312 231.761719 158.042969 C 230.890625 156.859375 230.332031 153.875 230.089844 149.097656 C 229.121094 142.707031 228.636719 138.800781 228.636719 137.382812 C 228.636719 136.054688 233.507812 133.855469 243.25 130.777344 L 256.695312 126.660156 L 256.914062 128.578125 C 256.625 128.765625 256.476562 129.027344 256.476562 129.359375 L 256.476562 130.496094 C 254.976562 130.824219 251.171875 132.03125 245.066406 134.117188 L 243.902344 134.042969 C 241.769531 134.042969 239.710938 134.542969 237.722656 135.535156 C 236.171875 136.339844 235.324219 136.980469 235.179688 137.453125 L 234.453125 137.664062 C 233.628906 139.039062 233.21875 142.515625 233.21875 148.101562 L 233.21875 153 C 233.703125 156.125 235.105469 157.6875 237.433594 157.6875 C 238.597656 157.6875 239.324219 157.519531 239.613281 157.191406 L 240.121094 157.402344 L 240.777344 157.191406 C 241.503906 153.640625 241.867188 150.609375 241.867188 148.101562 C 241.722656 142.042969 243.636719 139.34375 247.609375 140.007812 L 247.972656 142.777344 L 246.226562 152.644531 L 246.445312 154.492188 C 246.929688 155.722656 248.023438 156.339844 249.71875 156.339844 C 251.851562 156.339844 253.183594 155.367188 253.714844 153.425781 L 254.371094 146.824219 L 254.371094 141.710938 L 254.804688 139.296875 C 254.953125 138.164062 255.53125 137.546875 256.550781 137.453125 L 256.769531 137.453125 M 43.933594 232.589844 L 46.621094 230.601562 C 47.882812 231.925781 54.011719 235.996094 65.011719 242.8125 C 62.105469 247.734375 59.65625 251.238281 57.671875 253.320312 C 52.921875 258.667969 50.0625 262.007812 49.09375 263.332031 C 46.523438 262.007812 43.109375 259.804688 38.84375 256.730469 L 27.722656 248.636719 L 27.722656 248.351562 L 28.085938 246.363281 C 28.230469 246.835938 28.546875 247.074219 29.03125 247.074219 C 29.902344 247.074219 31.308594 245.699219 33.246094 242.957031 L 35.9375 238.410156 L 36.664062 238.128906 L 38.625 236.851562 L 39.351562 236.421875 L 40.078125 237.0625 C 41 237.867188 41.460938 238.484375 41.460938 238.910156 C 41.460938 239.902344 40.226562 241.726562 37.753906 244.375 C 35.28125 247.074219 34.046875 249.015625 34.046875 250.199219 L 34.046875 250.480469 L 38.554688 253.039062 C 39.230469 253.039062 40.757812 251.59375 43.132812 248.707031 L 47.128906 243.097656 L 52.4375 246.078125 L 46.984375 252.183594 C 45.484375 253.984375 44.730469 255.804688 44.730469 257.652344 L 44.730469 258.148438 C 44.925781 258.480469 45.484375 258.644531 46.402344 258.644531 L 48.074219 258.574219 L 48.21875 258.789062 L 48.800781 258.859375 L 56.507812 252.042969 C 56.992188 251.710938 57.863281 250.574219 59.125 248.636719 C 60.433594 246.601562 61.085938 245.273438 61.085938 244.660156 C 52.703125 236.613281 47.324219 232.589844 44.949219 232.589844 L 44.003906 232.730469 L 43.933594 232.589844 "/>
<path style=" stroke:none;fill-rule:evenodd;fill:rgb(14.117648%,13.725491%,20.784314%);fill-opacity:1;" d="M 85.21875 281.367188 L 85.800781 281.367188 L 86.019531 281.222656 L 88.5625 281.578125 C 90.40625 281.578125 92.488281 279.710938 94.816406 275.96875 L 97.070312 283 L 96.851562 283.210938 L 97.070312 284.347656 L 96.996094 285.199219 L 97.214844 285.269531 L 95.25 288.679688 C 93.601562 290.808594 91.835938 291.875 89.945312 291.875 C 88.925781 291.875 88.007812 290.878906 87.183594 288.890625 L 87.691406 288.394531 L 87.546875 288.179688 L 86.820312 287.898438 L 85.800781 284.207031 L 85.945312 283.707031 L 85.800781 283.355469 L 85.65625 283.355469 L 85.21875 281.367188 "/>
<path style=" stroke:none;fill-rule:evenodd;fill:rgb(25.098041%,20%,23.529412%);fill-opacity:1;" d="M 85.21875 281.367188 L 84.855469 281.152344 L 84.855469 280.941406 L 85.148438 280.941406 L 84.128906 276.253906 L 82.894531 270.929688 C 82.023438 268.847656 80.859375 265.203125 79.40625 259.996094 C 77.804688 254.410156 77.007812 250.859375 77.007812 249.34375 C 77.007812 248.539062 77.320312 247.925781 77.949219 247.5 L 81.441406 245.582031 L 83.328125 243.382812 C 84.445312 242.152344 85.460938 241.535156 86.382812 241.535156 L 89.507812 241.820312 L 88.925781 243.027344 L 88.78125 242.671875 C 88.492188 242.957031 88.34375 243.285156 88.34375 243.664062 L 89.289062 252.824219 C 89.96875 258.410156 90.527344 262.054688 90.960938 263.757812 L 94.816406 275.828125 L 94.886719 275.828125 L 94.816406 275.96875 C 92.488281 279.710938 90.40625 281.578125 88.5625 281.578125 L 86.019531 281.222656 L 85.800781 281.367188 L 85.21875 281.367188 M 81.148438 252.46875 L 81.222656 252.46875 L 80.058594 252.964844 L 78.75 253.960938 C 78.75 254.953125 79.984375 259.046875 82.457031 266.242188 L 83.984375 272.417969 L 84.273438 276.183594 C 84.566406 277.839844 85.488281 278.667969 87.039062 278.667969 C 88.441406 278.667969 89.871094 278.289062 91.324219 277.53125 L 93.144531 275.898438 C 93.144531 273.957031 92.199219 270.03125 90.308594 264.113281 C 89.871094 260.609375 89.265625 257.890625 88.492188 255.949219 C 87.085938 252.398438 84.636719 251.238281 81.148438 252.46875 "/>
</g>
</svg>
