<?xml version="1.0" encoding="UTF-8" standalone="no"?>
<svg
   width="355px"
   height="648px"
   viewBox="0 0 355 648"
   version="1.1"
   id="svg21"
   sodipodi:docname="71.svg"
   inkscape:version="1.1.1 (1:1.1+202109281944+c3084ef5ed)"
   xmlns:inkscape="http://www.inkscape.org/namespaces/inkscape"
   xmlns:sodipodi="http://sodipodi.sourceforge.net/DTD/sodipodi-0.dtd"
   xmlns="http://www.w3.org/2000/svg"
   xmlns:svg="http://www.w3.org/2000/svg"
   xmlns:rdf="http://www.w3.org/1999/02/22-rdf-syntax-ns#"
   xmlns:cc="http://creativecommons.org/ns#"
   xmlns:dc="http://purl.org/dc/elements/1.1/">
  <metadata
     id="metadata27">
    <rdf:RDF>
      <cc:Work
         rdf:about="">
        <dc:format>image/svg+xml</dc:format>
        <dc:type
           rdf:resource="http://purl.org/dc/dcmitype/StillImage" />
      </cc:Work>
    </rdf:RDF>
  </metadata>
  <defs
     id="defs25" />
  <sodipodi:namedview
     pagecolor="#ffffff"
     bordercolor="#666666"
     borderopacity="1"
     objecttolerance="1"
     gridtolerance="10.1"
     guidetolerance="10"
     inkscape:pageopacity="0"
     inkscape:pageshadow="2"
     inkscape:window-width="2504"
     inkscape:window-height="1376"
     id="namedview23"
     showgrid="false"
     inkscape:zoom="1.0999439"
     inkscape:cx="322.28916"
     inkscape:cy="390.47445"
     inkscape:window-x="1976"
     inkscape:window-y="27"
     inkscape:window-maximized="1"
     inkscape:current-layer="svg21"
     inkscape:document-rotation="0"
     inkscape:pagecheckerboard="0" />
  <path
     style="fill:#333333;fill-opacity:1;fill-rule:evenodd;stroke:none"
     d="m 199.78127,492.08985 0.21484,-2.48828 v -0.5664 h 0.0742 v 0.35546 l -0.0742,2.76954 -0.21484,-0.0703"
     id="path967"
     sodipodi:nodetypes="ccccccc" />
  <path
     style="fill:#333333;fill-opacity:1;fill-rule:evenodd;stroke:none"
     d="m 198.32421,255.37892 h 0.14844 v 0.0742 l -0.14844,-0.0742"
     id="path963"
     sodipodi:nodetypes="cccc" />
  <path
     style="fill:#333333;fill-opacity:1;fill-rule:evenodd;stroke:none"
     d="m 16.019521,214.34378 h 0.07031 -0.07031"
     id="path959"
     sodipodi:nodetypes="ccc" />
  <path
     style="fill:#333333;fill-opacity:1;fill-rule:evenodd;stroke:none"
     d="m 58.542959,184.52347 0.582031,-0.92188 c 0.484375,-0.71094 1.285156,-1.44531 2.398438,-2.20312 l -0.65625,0.85547 -2.324219,2.26953"
     id="path957"
     sodipodi:nodetypes="ccccc" />
  <path
     style="fill:#333333;fill-opacity:1;fill-rule:evenodd;stroke:none"
     d="m 49.746084,194.74612 v -0.0703 0.0703"
     id="path955"
     sodipodi:nodetypes="ccc" />
  <path
     style="fill:#333333;fill-opacity:1;fill-rule:evenodd;stroke:none"
     d="m 46.183584,196.02737 -0.144532,0.14063 v -0.28516 l 0.144532,0.14453"
     id="path953"
     sodipodi:nodetypes="cccc" />
  <path
     style="fill:#333333;fill-opacity:1;fill-rule:evenodd;stroke:none"
     d="m 114.58593,131.62894 -1.3086,-0.21094 -3.77734,-0.21485 v -0.28125 c 0,-0.71093 -0.60547,-0.97265 -1.82031,-0.78125 l -4.50391,-0.42578 c -3.636718,-1.5625 -5.914061,-2.34375 -6.835936,-2.34375 -1.066406,0 -1.597656,0.3086 -1.597656,0.92188 0,0.28515 1.550781,0.97265 4.652343,2.05859 3.246099,1.1836 5.597659,1.77735 7.050779,1.77735 h 0.65625 l 3.77735,0.35546 c 2.47265,0 3.70703,-0.28515 3.70703,-0.85546"
     id="path951"
     sodipodi:nodetypes="cccsccsscsccc" />
  <path
     style="fill:#333333;fill-opacity:1;fill-rule:evenodd;stroke:none"
     d="m 189.53121,221.58597 -0.0742,-0.14453 h 0.14453 l -0.0703,0.14453"
     id="path949"
     sodipodi:nodetypes="cccc" />
  <path
     style="fill:#333333;fill-opacity:1;fill-rule:evenodd;stroke:none"
     d="m 160.59762,230.95706 v 0.14063 h -0.0703 l 0.0703,-0.14063"
     id="path947"
     sodipodi:nodetypes="cccc" />
  <path
     style="fill:#333333;fill-opacity:1;fill-rule:evenodd;stroke:none"
     d="m 164.9609,187.8594 -0.94532,0.64063 9.8125,8.09375 c 0.48438,0 0.72657,-0.21484 0.72657,-0.64063 0,-0.7539 -0.46094,-1.46484 -1.37891,-2.1289 1.5,-0.89844 0.33984,-1.82031 -3.48828,-2.76953 -2.8125,-2.12891 -4.38672,-3.19532 -4.72656,-3.19532"
     id="path945"
     sodipodi:nodetypes="cccsccc" />
  <path
     style="fill:#333333;fill-opacity:1;fill-rule:evenodd;stroke:none"
     d="m 161.69137,190.62894 -0.65625,0.85156 c 0,0.3789 1.26171,2.48828 3.78125,6.32031 2.71484,4.02344 4.48046,6.03516 5.30468,6.03516 l 0.72657,-0.21485 0.14843,-0.49609 -9.30468,-12.49609"
     id="path943"
     sodipodi:nodetypes="ccccccc" />
  <path
     style="fill:#333333;fill-opacity:1;fill-rule:evenodd;stroke:none"
     d="m 147.80468,134.11722 -0.14453,-0.0742 h 0.0742 l 0.0703,0.0742"
     id="path941"
     sodipodi:nodetypes="cccc" />
  <path
     style="fill:#333333;fill-opacity:1;fill-rule:evenodd;stroke:none"
     d="m 135.44921,365.07425 h 0.0703 -0.0703"
     id="path939"
     sodipodi:nodetypes="ccc" />
  <path
     style="fill:#333333;fill-opacity:1;fill-rule:evenodd;stroke:none"
     d="m 140.02735,507.92189 v -0.14453 0.14453"
     id="path937"
     sodipodi:nodetypes="ccc" />
  <path
     style="fill:#333333;fill-opacity:1;fill-rule:evenodd;stroke:none"
     d="m 197.96087,370.32816 0.14843,-0.0742 v 0.0742 h -0.14843"
     id="path933"
     sodipodi:nodetypes="cccc" />
  <path
     style="fill:#333333;fill-opacity:1;fill-rule:evenodd;stroke:none"
     d="m 37.82422,184.52342 -0.289063,0.28515 -0.21875,0.28516 0.144532,-0.28516 0.21875,-0.35547 v -0.0703 l 0.144531,0.14063"
     id="path929"
     sodipodi:nodetypes="ccccccc" />
  <path
     style="fill:#333333;fill-opacity:1;fill-rule:evenodd;stroke:none"
     d="m 75.48049,244.16406 v -0.14453 0.14453"
     id="path925"
     sodipodi:nodetypes="ccc" />
  <path
     style="fill:#333333;fill-opacity:1;fill-rule:evenodd;stroke:none"
     d="m 90.671897,121.97657 -0.507813,-1.20703 0.289063,0.0703 v 0.14063 l 0.292969,0.28516 -0.07422,0.71093"
     id="path923"
     sodipodi:nodetypes="cccccc" />
  <path
     style="fill:none;stroke:#000000;stroke-width:1.43678;stroke-linecap:round;stroke-linejoin:round;stroke-miterlimit:4;stroke-opacity:1"
     d="m 70.683586,141.21485 c -3.249999,2.88672 -6.835937,6.39063 -10.761717,10.50782 l -1.523437,1.63281 -0.582031,0.71094 -4.945313,6.10547 c -3.390624,4.35547 -5.499999,7.38281 -6.324217,9.08594 l -0.144537,-0.0703 c -1.890625,3.125 -3.148438,5.42188 -3.777344,6.88672 l -0.148438,-0.14062 -5.085936,7.95313 -2.398437,3.90234 -1.746095,2.0586 -2.324218,2.05859 0.07032,0.21484 0.875,-0.49609 -6.835937,9.01563 c -6.492188,9.13672 -10.054688,14.41406 -10.683594,15.83203 h -0.07422 c -2.617187,3.03125 -3.92578,7.40625 -3.92578,13.13672 l 0.07422,1.27735 -0.07422,1.48828 0.148437,1.5625 0.07031,1.77734 c -0.04687,0.70703 0.484375,1.77344 1.601562,3.19532 l 0.144533,0.14057"
     id="path16" />
  <path
     style="fill:none;stroke:#000000;stroke-width:1.43678;stroke-linecap:round;stroke-linejoin:round;stroke-miterlimit:4;stroke-opacity:1"
     d="m 59.269525,153.42579 1.671875,-1.84375 8.867186,-9.16016 1.164063,-1.0664 m -21.00781,37.20313 -4.359375,3.55078 m -9.234374,4.54297 0.07422,-0.14063 0.218749,-0.28516 1.890626,-2.55469 -0.730468,0.85157 -0.289063,0.28515 -0.21875,0.28516 0.144537,-0.28516 0.21875,-0.35547 v -0.0703 l 3.92578,-5.75 -0.4375,0.92187 1.019531,-1.70312 c 1.503906,-3.125 2.835938,-5.5625 3.996094,-7.3125 l 0.07422,0.0703 c 2.570312,-4.35547 4.699217,-7.50391 6.398437,-9.44531 l 5.523436,-6.46093 m 166.386861,77.67175 -0.50781,-1.20313 v -0.0742 l -4.4336,-11.00391 -2.83594,-6.10547 c -0.33984,-0.80469 -0.50781,-1.87109 -0.50781,-3.19531 l -0.0743,-3.05078 h -0.21875 v -5.89454 l -0.14451,-0.14061 h -0.0743 v -2.5586 c 0,-1.70313 -0.24219,-3.33594 -0.72656,-4.89844 l -0.28906,-1.20703 -0.4375,-2.98047 v -0.57031 c -0.72656,-13.25 -1.52344,-20.06641 -2.39844,-20.44532 l -0.28906,-1.63281 c -0.53515,-1.75 -1.79297,-4.54297 -3.78125,-8.37891 -3.0039,-3.73828 -5.01563,-6.57812 -6.03125,-8.51953 -0.53516,-0.99219 -1.64844,-2.17578 -3.34375,-3.55078 m -1.89063,-0.4961 0.14451,0.14064 2.61718,1.98828 c 1.11328,0.80469 1.76954,1.53906 1.96095,2.20312 0.14843,0.51953 1.69922,2.7461 4.65234,6.67188 3.0039,4.40234 4.77343,7.95313 5.30858,10.65234 l 1.23438,8.09376 v -0.28516 l -0.1445,-2.83984 1.23438,11.21875 -0.21876,-1.63282 0.36329,3.05079 0.14844,2.69922 c -0.14844,0.28515 -0.21876,0.78125 -0.21876,1.49218 0,1.32422 0.26563,3.02735 0.80079,5.10938 l 0.43359,1.91797 0.50782,5.60937 h 0.14843 v 6.46094 l 0.36327,0.42578 v 4.04688 c 2.22658,4.16406 4.89453,10.03516 7.9961,17.60547 v 0.0742 l 0.0704,0.0703 0.43751,1.20703 1.67187,4.1875 c 15.89818,32.59738 3.49677,53.79226 -17.22665,79.87111 l 0.0704,0.0743 m -16.71875,-25.27736 0.14451,-3.83203 -0.50781,-11.00782 v -0.0703 l -0.14451,-2.19923 0.0741,-2.34374 -1.60155,-9.30079 v -0.0703 l -0.50781,-3.19531 v -0.0703 l -1.52735,-9.08985 m -0.87109,-2.41407 1.3789,6.81642 m 3.34375,30.17578 v 2.76954 l -0.0704,5.39452 h 0.0704 v 4.75781 c 0.73047,5.82032 2.15625,13.62892 4.28906,23.42971 l 2.98047,11.85547 m -68.76555,-81.00785 0.0742,-0.0703 v -0.42579"
     id="path18"
     sodipodi:nodetypes="ccccccccccccccccccccccccccccccccccsccccccccccccccccccccccsccccccccccccccccccccccccccccccccccccc" />
  <path
     style="fill:#000000;stroke:#000000;stroke-width:1px;stroke-linecap:butt;stroke-linejoin:miter;stroke-opacity:1;fill-opacity:1"
     d="m 157.69139,109.90624 0.24435,-5.28308 0.19315,-2.59972 -0.0742,-1.98828 2.47265,-2.769535 0.14453,1.066406 3.98412,-4.430431 1.68776,-2.315662 h 0.87109 l 2.47266,-0.351563 1.91638,0.05297 2.64515,0.260223 4.61759,0.602727 3.26594,0.573468 2.30883,0.569205 2.86654,1.000336 4.98502,1.694976 -4.02845,2.706348 -3.96892,2.180082 -5.14565,2.03431 -4.6559,1.70506 -4.84633,1.81808 -4.27037,1.55314 -5.18309,1.60376 -1.12004,0.24688 z"
     id="path969" />
  <path
     style="fill:#000000;stroke:#000000;stroke-width:1px;stroke-linecap:butt;stroke-linejoin:miter;stroke-opacity:1"
     d="m 102.73833,90.45313 0.41156,3.911895 1.54938,1.908413 6.76172,6.246092 0.43748,-0.99219 7.19531,5.89454 0.0742,1.0625 -14.61329,-3.83204 -0.4336,0.21094 -0.51171,-0.63672 -6.832034,-2.48437 -16.28125,-8.02344 2.99321,-1.393969 13.651319,-1.375562 0.582083,-0.214842 v 0 z"
     id="path971" />
  <path
     style="fill:none;stroke:#000000;stroke-width:1px;stroke-linecap:butt;stroke-linejoin:miter;stroke-opacity:1"
     d="m 72.404471,166.26555 1.366366,-1.78289 1.233843,-1.47484 1.408565,-1.83311 1.979717,-2.14742 1.425907,-1.41819 0.984513,-1.39046"
     id="path20467" />
  <path
     style="fill:none;stroke:#000000;stroke-width:1px;stroke-linecap:butt;stroke-linejoin:miter;stroke-opacity:1"
     d="m 72.381565,166.50775 0.923911,-1.46398 1.274105,-1.6319 1.63054,-1.87537 1.407043,-1.67601 1.477015,-1.45097 1.447897,-1.60491 1.001305,-1.06066 1.451379,-0.23243 2.308038,-0.0653 2.003581,-0.0257 2.406905,-0.16957 3.126033,0.0323 1.951269,-0.0498 2.503471,0.23059 0.747205,0.48221 0.745083,0.75473 0.09317,1.10588 -0.389757,1.31458 -1.029757,1.12865 -0.739965,0.85586 -0.53604,0.90824 0.170283,0.55801 1.213426,-0.5014 1.250577,-0.97415 1.890398,-1.59247 1.20377,-1.05215 1.0512,-0.91148 0.92885,-0.64052 0.72342,0.15418 0.5688,0.52608 -0.11293,1.01045 -0.0234,1.24978 0.005,1.79861 -0.14745,1.60787 0.056,1.87452 -0.21845,1.6616 -0.67164,1.21155 -1.50308,1.51999 -1.54396,1.181 -1.493121,1.12387 -1.252353,0.76991 -0.597912,0.52516 -0.01909,1.07619 -0.171837,1.57198 -0.496296,1.2386 -0.510322,0.98346 -1.139848,0.69763 -0.609925,0.61342 0.133577,0.7649 0.113642,0.75551 0.01042,0.86908 -0.0028,1.43862 -0.3605,1.70349 -0.974463,1.24454 -1.233944,1.29136 -1.599618,0.29784 -3.192718,-0.0481 -2.958442,-0.0515 -1.335392,-0.31798 -0.641304,-0.70778 -0.761786,0.82917 c -0.03513,-0.005 -5.959298,4.74575 -5.959298,4.74575"
     id="path20681"
     sodipodi:nodetypes="ccccccccccccccccccccccccccccccccccccccccccccccccccccccccccccccc" />
  <path
     id="path965"
     style="fill:#231d24;fill-opacity:1;fill-rule:evenodd;stroke:#000000;stroke-opacity:1;stroke-width:2.1;stroke-miterlimit:4;stroke-dasharray:none"
     d="m 230.66251,325.6089 -4.83594,0.3086 -1.51172,0.45508 c 0.62314,-0.0187 1.38557,-0.0571 1.99219,-0.14258 1.14014,-0.16071 3.06641,-0.48242 3.06641,-0.48242 l 1.40625,0.12304 z m 0.11719,0.26172 0.82226,1.83985 0.88672,2.4082 0.95117,4.60156 1.50586,3.52539 0.70313,2.5293 1.21289,0.084 1.91992,-1.82031 1.1875,-2.03711 -0.13477,-3.09375 -1.12695,-3.23437 -2.6582,-2.96485 -1.9375,-1.09961 -2.91602,-0.70117 z m -6.46485,0.50196 c -0.54804,0.0165 -0.99804,0.0176 -0.99804,0.0176 l -1.97657,0.47266 -3.60742,1.13086 -2.68359,1.42383 -2.16211,1.65039 -1.32813,2.13086 0.6543,-0.79883 c -0.4264,0.62 -0.86914,1.24609 -0.86914,1.24609 l -1.33594,1.9336 -0.97265,1.92187 -0.58399,1.26172 c 0,0 -0.31473,0.44062 -0.23437,0.91797 0.0804,0.47735 -0.0781,1.64744 -0.0781,2.0625 0,0.41506 1.11914,2.52734 1.11914,2.52734 l 2.98047,0.81055 2.16602,-0.0606 2.12109,-0.15234 0.80274,-0.30273 0.15234,-0.84766 -0.92578,-2.375 -1.03321,-3.4375 -0.61328,-1.85352 -0.55273,-1.9375 -0.64258,-1.45507 c 0,0 -0.31418,-1.04195 -0.56641,-1.34571 l 2.98047,-2.05078 3.45313,-1.46875 z m -12.75586,6.82617 -1.04296,1.27344 -1.73829,2.96679 0.88672,-1.44922 1.44336,-2.06836 z m -13.55859,7.89648 v 0.21485 l 0.0703,-0.21485 z" />
  <path
     style="fill:none;stroke:#000000;stroke-width:1.9;stroke-linecap:butt;stroke-linejoin:miter;stroke-opacity:1;stroke-miterlimit:4;stroke-dasharray:none"
     d="m 187.48631,248.4166 1.83994,5.77404 1.07545,4.97035 0.32999,3.69632 c 0,0 0.78939,4.16815 1.42225,5.47005 0.6325,1.30191 0.77394,8.49952 0.77394,8.49952 l 0.0174,7.22561 0.40278,7.73903 0.97098,5.56336 c 0,0 1.06168,6.94094 1.69695,8.36817 0.63529,1.42723 1.68256,6.04091 1.68256,6.04091 l 1.86038,8.01 2.07967,6.72126 1.71328,6.05343 4.62395,10.49271 -0.15778,-2.4894 2.19017,-4.97232 2.56244,-3.58994 3.34899,-2.99474 c 0,0 2.54985,-1.52908 3.30127,-1.68979 0.75143,-0.16072 7.14347,-1.78801 7.14347,-1.78801 l 5.98802,-0.002 5.1527,3.44283 1.83099,2.91027 0.50938,6.09161 -2.52509,2.79835 -1.43902,0.79148 2.06449,-0.93498 1.76809,-1.99037 1.51147,-4.33146 -0.98687,-6.92508 -2.08885,-15.70255 -1.08322,-13.17881 -1.88304,-17.79641 -2.27422,-15.04267 -1.69814,-9.4056 -2.15075,-9.62291 -3.20002,-11.00029 -6.14147,-15.29149 -3.20554,-5.77741 -3.46163,3.66522 -5.13588,5.05173 -7.3876,8.92046 c 0,0 -5.56469,6.01427 -6.04683,6.93677 -0.48214,0.92251 -6.99504,9.2924 -6.99504,9.2924 z"
     id="path29643"
     sodipodi:nodetypes="cccccccccscccccccccscccccccccccccccccccccccscc" />
  <path
     id="path8"
     style="fill:#3c323e;fill-opacity:1;fill-rule:evenodd;stroke:none"
     d="m 192.875,98.828125 c -2.375,1.800785 -6.64063,3.929685 -12.79297,6.390625 l -3.78125,1.42187 -0.80078,-0.14453 c -0.19141,0 -0.41016,0.21485 -0.65234,0.64063 -0.4375,0.66406 -0.92188,1.79687 -1.45313,3.40625 l -0.14844,0.42578 h -0.14453 L 170.92188,117.5 v 0.14453 l -3.92579,6.74609 -5.16015,2.83985 -2.83594,1.55859 -3.5625,1.06641 -1.74219,0.42578 v -0.49609 h -0.29297 c -1.11328,0.0937 -1.76953,0.44921 -1.96093,1.0625 l -0.58203,0.21484 c -1.30861,0.0937 -2.59376,0.42578 -3.85157,0.99219 -1.45703,0.71093 -2.18359,1.35156 -2.18359,1.91797 v 0.14453 c 0.14844,0.61328 1.21484,1.37109 3.19922,2.26953 2.85937,1.27734 6.46875,1.91797 10.83203,1.91797 l 4.94141,-0.21485 4.14453,9.08985 2.54297,8.80469 0.14453,3.12109 -0.0703,3.97656 -2.39843,5.82422 -1.89063,4.89844 c -0.14453,1.03906 -1.30859,2.60156 -3.48828,4.68359 l 0.14453,0.64063 c 1.21094,0.75781 2.64063,0.89843 4.28906,0.42578 l 4.50782,0.21093 c -2.66797,1.70706 -4,2.69922 -4,2.98438 l 3.85156,2.69531 c 1.60156,0.9961 2.98047,1.70703 4.14453,2.13281 l 0.29297,6.46094 0.14453,0.0703 0.72656,9.23046 -0.36328,6.2461 -0.29297,1.5625 v 0.21484 l -4.86718,-1.42187 -7.34376,-1.63282 c -0.72656,0 -1.08984,0.1875 -1.08984,0.56641 0,0.85156 4.07031,4.8047 12.21094,11.85938 -11.19531,5.72657 -16.78906,9.3008 -16.78906,10.71874 0,0.89844 3.85156,1.70313 11.55468,2.41407 l -0.21484,0.28515 c -1.06641,0.85157 -2.32813,2.625 -3.78125,5.32422 -1.50391,2.69922 -2.25391,4.66406 -2.25391,5.89453 v 0.42579 l 2.17969,0.42578 6.46875,-0.78125 1.3086,-0.0703 v 0.35157 l 2.18359,18.39062 0.87109,18.38672 0.21875,18.46094 c 0.58203,7.57422 1.21094,12.82812 1.89063,15.76172 -0.24219,0.1875 -0.36328,0.66406 -0.36328,1.42187 0,1.51172 1.01562,6.43359 3.05078,14.76563 0.38672,1.42187 1.40628,3.85937 3.05468,7.3125 l 1.01563,4.47265 c 0.58686,58.02574 -1.72428,60.28931 8.25977,117.88281 l 0.82031,14.8711 c 0,3.50391 0.36328,9.60938 1.08984,18.32031 1.06641,11.45313 1.91406,17.51172 2.54297,18.17188 h 0.0742 l 0.28906,-0.0703 10.61328,-1.84375 7.19532,-1.49218 5.30859,-1.84375 5.88672,-1.84766 -0.0742,-0.14063 c 0,-0.28514 0.87501,-0.59375 2.61719,-0.92578 1.7461,-0.37891 2.61718,-0.80468 2.61718,-1.27734 0,-1.65625 -0.26562,-3.9297 -0.80078,-6.81641 l -0.72656,-6.24609 c -1.45313,-6.39062 -2.6875,-13.46484 -3.70703,-21.23047 l -0.58203,-4.1875 c 0.6836,-2.13777 -9.93512,-35.57523 -10.81615,-40.74111 -1.67188,9.23047 1.6599,1.62002 -0.23073,10.85049 l -3.63867,8.55078 -4.13867,11.25781 -0.65625,-0.21094 v -2.76953 c 1.12467,-3.07918 2.23616,-5.44611 3.11817,-7.64755 0.75082,-1.87401 3.35714,-7.61303 4.13871,-9.42271 0.7331,-1.69745 0.3415,-7.08994 0.22008,-8.70129 -0.16054,-2.13045 -1.23953,-11.48511 -1.85963,-13.31843 l -2.84894,-13.73887 c 0,0 -1.94479,-8.81681 -2.77528,-10.50232 -0.83049,-1.68551 -1.54916,-8.23939 -2.08555,-10.33067 -0.53638,-2.09129 -0.80813,-9.3638 -1.22817,-11.21479 -0.42005,-1.85099 -0.11956,-5.23736 -0.60102,-6.202 l -0.55555,-7.36894 c 0.4098,0.54226 -0.34723,-4.97604 -0.62148,-7.93535 -0.31125,-1.31289 -0.3804,-0.81644 -0.63776,-1.94236 l -0.20185,-1.05633 c -0.28907,-2.89062 -1.20038,-6.40353 -2.26679,-10.66524 L 196.2891,321.05473 C 194.15617,311.25383 192.73047,303.44531 192,297.625 v -4.75781 h -0.0703 L 192,287.47266 v -3.19532 l -0.28906,-4.75781 v -0.0703 l -0.21875,-3.48047 -0.21875,-2.98047 v -1.84766 l -1.16016,-8.58984 v -0.0703 l -0.58203,-3.19531 -0.875,-4.75782 -1.37891,-6.8164 0.36328,0.28515 1.08985,1.84766 2.33845,7.81194 c 0.3494,3.12066 0.47146,4.60323 0.87003,7.17331 l 1.1206,3.39843 0.5692,5.10287 0.20985,8.50211 c 0.076,3.07718 -0.2041,4.84186 0.38315,10.4235 0.4375,2.03516 0.93732,9.69573 2.43732,13.19964 l 2.26569,7.61755 1.8093,8.22087 c 0,0.37891 1.7889,6.59264 2.07639,6.14126 l 0.825,2.92827 0.68629,2.32856 c 0.47351,1.84577 1.31887,3.25944 2.89258,6.72754 3.84642,-7.74877 3.54877,-6.73306 8.14817,-11.00749 l 2.64953,-1.65773 3.4309,-1.00014 c 0.89209,-0.12316 3.41968,-0.68262 3.75562,-0.68262 0.58203,0 1.99352,-0.23742 3.91754,-0.25925 l 2.81121,0.14211 c 1.54457,0.63006 3.49759,0.14268 7.79366,5.60511 0,0 0.14961,-1.61927 -0.40133,-4.64988 0,0 -1.21761,-8.04394 -1.99108,-14.22019 -0.99106,-13.59922 -1.39236,-16.34242 -2.23374,-26.84188 -0.7218,-4.10884 -0.73294,-6.95691 -1.36185,-11.59362 0,0 0.10136,-1.72272 -1.31158,-6.80057 -0.0508,-0.71094 -0.95622,-3.63031 -0.85852,-4.19672 l -1.01022,-5.95131 c -0.54953,-3.18373 -0.71237,-4.82824 -1.71068,-7.92025 l -3.14824,-11.45937 -1.63236,-4.09282 -0.66694,-1.33565 -0.41584,-1.4542 -0.71672,-1.67141 c -3.10156,-7.57032 -4.11756,-10.71547 -6.34412,-14.87953 v -4.04688 l -0.36328,-0.42578 v -6.46094 h -0.14844 l -0.50781,-5.60937 -0.4336,-1.91797 c -0.53515,-2.08203 -0.80078,-3.78517 -0.80078,-5.10937 0,-0.71093 0.0703,-1.20704 0.21875,-1.49219 l -0.14843,-2.69922 -0.36329,-3.05078 0.21875,1.63281 -1.23437,-11.21875 0.14453,2.83984 v 0.28516 l -1.23438,-8.09375 c -0.53514,-2.69922 -2.30468,-6.25 -5.30859,-10.65234 -2.95312,-3.92579 -4.50391,-6.15235 -4.65234,-6.67188 -0.19141,-0.66406 -0.84766,-1.39844 -1.96094,-2.20312 l -2.61719,-1.98828 -0.14453,-0.14063 -3.05469,-2.19922 -6.83203,-4.54687 c -5.42578,-3.26563 -8.35937,-5.79688 -8.79687,-7.59375 l -0.65235,-0.5 -0.36328,-0.78125 0.50781,-1.13282 v -0.14453 c -1.30859,-0.1875 -1.96093,-0.63672 -1.96093,-1.34765 l 1.88672,-2.83985 3.49218,-5.18359 1.81641,-4.04688 0.50781,-0.92187 c 0.72656,-1.375 1.38281,-2.17969 1.96485,-2.41406 l 1.23437,-1.84766 4.57813,-6.67187 z M 87.253906,110.75781 c -0.53125,0.0469 -0.796875,0.28516 -0.796875,0.71094 l 1.234375,1.27734 h -0.871094 l 0.945313,2.98047 0.507813,0.85156 c 0.437499,0.66407 0.679692,1.46876 0.726562,2.41407 l 1.164062,1.77734 0.289063,0.0703 v 0.14063 l 0.292969,0.28515 -0.07422,0.71094 -0.07422,0.4961 0.148438,0.14062 0.941406,0.71094 c 0.4375,0 0.753908,-0.16798 0.945312,-0.4961 l 2.398438,0.14063 -0.144531,0.14063 h 11.847663 l -0.4336,-0.4961 0.21875,-0.5664 c 0,-0.57033 -1.52734,-1.44532 -4.58203,-2.62891 l -6.105471,-2.48438 -8.359375,-6.17578 z m 9.085938,16.61328 c -1.066406,0 -1.597656,0.3086 -1.597656,0.92188 -10e-7,0.28515 1.550781,0.97265 4.652343,2.05859 3.246099,1.1836 5.597659,1.77735 7.050779,1.77735 h 0.65625 l 3.77735,0.35547 c 2.47265,0 3.70703,-0.28516 3.70703,-0.85547 l -1.3086,-0.21094 -3.77734,-0.21485 v -0.28124 c 0,-0.71098 -0.60547,-0.97264 -1.82031,-0.78126 l -4.50391,-0.42578 c -3.636715,-1.5625 -5.914061,-2.34375 -6.835936,-2.34375 z m 55.535156,5.46485 v 0.0742 h -0.0703 z m -4.21484,1.20703 h 0.0742 l 0.0703,0.0742 z m -54.162113,14.05664 -2.193359,0.17773 -2.242188,0.69727 -2.205078,0.86914 -2.140625,1.47852 -8.802735,0.96679 -15.917968,1.98828 v -0.0703 c 0,-0.42578 -0.242188,-0.68355 -0.726563,-0.78125 l -0.726562,-0.0703 h -0.144531 l -0.582032,0.71094 c 0,0.28515 0.121094,0.49609 0.363282,0.63671 l -5.523438,6.46094 c -1.699219,1.94141 -3.828125,5.08984 -6.398438,9.44532 l -0.07422,-0.0703 c -1.160156,1.75 -2.492188,4.1875 -3.996094,7.3125 l -1.019531,1.70313 0.4375,-0.92188 -3.925781,5.75 0.144531,0.14063 0.730469,-0.85156 -1.890626,2.55468 -0.21875,0.28516 -0.07422,0.14062 h -0.144532 v 0.21485 c 8.217796,-4.38048 0.145484,-0.21522 8.21875,-4.38086 l 1.160157,-0.37695 -0.117188,0.67968 5.6875,-5.24023 c 0.395177,-1.3577 1.231652,-1.03299 6.214844,-5.34961 l 2.75,-3.08203 0.148437,-0.21094 0.871094,-0.64063 -0.07422,0.14063 10.96875,-2.34961 c 4.855362,-5.60357 6.648438,-8.61133 9.800781,-10.74414 l 4.929687,-0.24023 c 0.13916,-0.012 0.342874,-0.0175 0.591797,-0.0195 0.248923,-0.003 0.542878,-0.003 0.865235,0 0.322355,0.003 8.837809,0.27825 9.197265,0.28125 0.08986,7.5e-4 0.847832,1.02968 1.480469,1.16016 0.632637,0.13048 -0.05393,2.09989 -1.81836,4.04883 -0.558329,0.61672 -0.980396,1.66293 -0.347656,1.79297 0.63273,0.13004 7.52997,-5.5261 7.55273,-5.61328 l 0.0566,-0.21875 0.44141,0.13281 0.37304,0.31445 0.34375,0.29688 -0.4375,9.56836 c -10e-4,0.0321 -0.52471,0.71896 -1.33593,1.75781 -0.81122,1.03884 -4.529546,2.91712 -5.685546,4.36133 -1.156,1.44421 0.250643,2.45492 -0.785156,3.70312 -1.035799,1.24819 -1.895078,2.24647 -2.345703,2.69727 0,0 0.921876,0.0195 -0.433594,5.74609 -0.4375,1.75 -1.575979,0.84613 -1.921875,2.29688 l -1.619141,0.18359 c -3.860186,0.21695 -8.414375,-0.99157 -8.861328,-0.23047 l -1.480469,2.52149 -0.06445,2.39648 c 0,0 -0.0059,3.03111 0.002,6.60547 -1.21094,1.60938 0.119142,8.52734 -1.43164,9.33203 -0.242187,1.70312 -1.074213,3.2316 -4.650391,5.72461 l -3.4375,2.39648 0.474609,1.2168 1.029297,4.61523 0.585938,5.32422 0.392578,4.5586 0.4375,2.19922 -0.21875,0.35546 0.871094,5.03907 0.875,4.40234 v 0.49609 h 0.07031 l 0.800781,0.21485 c 0.871094,0 3.878907,-0.96875 9.015626,-2.91016 l 2.832031,-0.71093 4.289062,-0.42579 10.105467,-0.42578 5.59766,-1.91797 2.46875,-1.98828 v -0.0703 c 1.26172,-0.94531 2.35156,-3.17187 3.27343,-6.67187 0.53125,-1.80081 0.75005,-4.33204 0.65235,-7.59766 v -14.98047 c 0.82422,-10.17578 1.23828,-20.25781 1.23828,-30.24609 -0.97266,-13.77344 -2.74852,-22.03211 -6.45508,-20.5918 l -1.95312,-0.41406 -1.20118,-0.92969 -0.58203,-0.59961 -0.39062,-0.49609 -1.14844,-1.83789 -1.87305,-1.22852 -3.44726,-1.62891 -2.230469,-0.71289 z m 98.431643,14.20117 c 0.58204,0 0.80078,0.30859 0.65234,0.92578 l -2.83203,8.58985 c -2.03516,6.39062 -3.27344,12.09375 -3.70703,17.10937 l -2.03906,13.91406 c -1.25782,7.76563 -2.03516,11.64454 -2.32422,11.64454 l -0.65235,-0.21094 v -2.69922 l 3.92188,-24.56641 c 0.77734,-4.35156 1.625,-8.5664 2.54687,-12.63672 1.89063,-8.04687 3.36719,-12.07031 4.4336,-12.07031 z m -26.96875,25.5586 -0.94532,0.64062 9.8125,8.09375 c 0.48439,0 0.72657,-0.21481 0.72657,-0.64063 0,-0.75389 -0.46094,-1.46484 -1.37891,-2.1289 1.5,-0.89844 0.33984,-1.82031 -3.48828,-2.76953 -2.8125,-2.12891 -4.38672,-3.19531 -4.72656,-3.19531 z m -3.26953,2.76953 -0.65625,0.85156 c 0,0.3789 1.26171,2.48828 3.78125,6.32031 2.71484,4.02344 4.48046,6.03516 5.30468,6.03516 l 0.72657,-0.21485 0.14843,-0.49609 z m 27.76562,30.8125 h 0.14453 l -0.0703,0.14453 z m -8.79687,1.91797 c 0.77734,0.80466 1.97655,5.49805 4.78905,13.25977 l 2.77345,9.88476 -0.4375,-0.0703 -0.4375,0.0703 c -0.91797,-4.39844 -1.76563,-7.54688 -2.54297,-9.44141 l -5.23438,-13.13281 c 0,-0.23828 0.0742,-0.4023 0.21875,-0.5 h 0.21875 z m -20.0625,7.59765 v 0.14063 h -0.0703 z m -84.609379,20.80078 -0.07422,2.76953 c 0,1.89453 -0.386718,5.39844 -1.160156,10.50782 h -0.21875 c -0.484375,0 -0.726562,0.21484 -0.726562,0.64062 0,0.28516 0.167968,0.56641 0.507812,0.85156 1.019532,0.75782 3.441404,1.5625 7.269532,2.41407 4.554687,1.03906 7.753904,1.5625 9.59375,1.5625 0.726561,0 1.089843,-0.21485 1.089843,-0.64063 l -0.214843,-0.21094 -0.07422,-0.0742 c -1.550781,-0.89843 -3.902346,-3.0039 -7.050781,-6.3164 -4.3125,-4.59375 -7.292969,-8.42578 -8.941407,-11.50391 z m 111.433599,2.27344 c 0.72656,0 1.08984,0.16406 1.08984,0.49609 l -0.50781,-0.28125 z m 10.90234,1.34766 h 0.14844 v 0.0742 z m -7.19531,21.86718 h 0.21875 l 0.14453,2.20313 -0.0703,0.71094 z"
     sodipodi:nodetypes="ccccccccccccccccccccscccccccccccccccccccccccccscscccscccccccccscccccccccccccccsccccccccccsssccsssccccccccccccccccccccccccccccsccccsccccccscccccccccccccccccccccccsccccccccccccccccccccccccccccccccccccccccccccccccccccccsscscccccsccscccccccccccccccsccccccccccccccccccccccccccccccccsssssccccccssscccccccccccccccccccccccccccccccccccccccccccscccccccccscccscccccccccccccccccccccccccccccccssccsccccccccccccccccccc" />
  <path
     style="fill:#000000;stroke:#000000;stroke-width:1px;stroke-linecap:butt;stroke-linejoin:miter;stroke-opacity:1;fill-opacity:1"
     d="m 233.73168,272.43803 -1.32781,2.77485 -0.62963,1.57473 -0.99572,1.897 -1.56756,3.00402 -1.32825,2.86312 -1.39727,2.73427 -1.05626,2.62926 -1.44203,2.57455 -1.51836,3.38706 -1.23206,1.83837 -1.78292,3.09617 -3.38113,4.84799 -2.19436,3.14108 -1.8165,2.62165 -1.82936,2.53742 -1.24357,1.85833 -0.57953,0.8114 0.9705,-0.78961 1.57017,-2.41393 1.95287,-2.42556 1.85697,-2.84983 1.23099,-1.51859 2.21141,-3.34093 1.46877,-2.25535 1.99835,-2.8347 1.77358,-3.12071 1.61715,-2.65826 1.49342,-3.28045 2.29429,-5.34606 1.68596,-3.14582 1.77939,-3.76488 1.14634,-1.89497 0.81237,-1.97487 z"
     id="path33331" />
  <path
     style="fill:#5d515f;fill-opacity:1;fill-rule:evenodd;stroke:none"
     d="m 59.269531,153.42578 1.671875,-1.84375 8.867188,-9.16016 1.164062,-1.0664 0.363282,0.0742 h 0.07422 c 0.433594,0 1.089844,-0.3086 1.960938,-0.92578 l 0.726562,-0.56641 h -0.07031 l 5.378906,-4.6875 5.523438,-2.91016 c 2.957031,-0.61328 4.796874,-1.2539 5.523437,-1.91797 h 0.07422 c 0.871094,0 1.308594,-0.44921 1.308594,-1.34765 L 91.6875,128.36328 90.234375,126.58984 88.5625,125.09766 c 0,-0.28125 0.363281,-0.66016 1.089844,-1.13672 l 1.09375,-1.34766 0.941406,0.71094 c 0.4375,0 0.753906,-0.16797 0.945312,-0.49609 l 2.398438,0.14062 -0.144531,0.14063 h 11.847661 l -0.4336,-0.4961 0.21875,-0.5664 c 0,-0.57032 -1.52734,-1.44532 -4.58203,-2.62891 l -6.105469,-2.48438 -8.359375,-6.17578 h -0.21875 l -1.671875,-1.63281 -2.617187,-5.25391 -1.816406,-7.171871 6.617187,3.621091 c 5.863281,2.98047 9.59375,4.73438 11.191406,5.25391 11.390629,3.40625 19.117189,5.37109 23.191409,5.89453 l 13.46435,0.55874 5.37119,255.55117 1.70996,9.20478 0.95575,11.98514 c 0.13911,1.74446 -7.35412,7.14999 -7.35412,7.14999 l -2.79878,16.19292 c 0,0 -1.99227,15.01006 -3.26807,25.13686 -1.94856,9.56275 -1.14256,7.09089 -1.58221,7.98471 l -0.80007,4.59727 -0.59363,3.11728 -0.24879,3.61186 -0.0455,2.51999 c -0.4375,0.19141 -0.20091,2.30831 -0.20091,2.5466 0,0.28125 -0.47113,2.46991 -0.18204,2.56366 -0.28907,1.04297 -0.39841,1.47712 -0.39841,6.39899 l -1.1184,9.87982 c 0,6.4375 -1.1576,12.83264 -0.0404,20.45373 0.68925,3.71953 -0.46524,5.66485 -0.48106,7.57285 -0.0158,1.908 0.36711,2.81027 0.001,3.49451 -0.36572,0.68423 -0.0777,1.87192 -0.43811,1.92015 -0.36045,0.0482 0.0644,0.13001 0.0644,0.13001 l -5.32549,-0.13461 -4.57774,0.29111 -4.65881,-0.35658 -3.18532,-0.76543 -5.32573,-1.85033 -5.237064,-1.51925 -5.618463,-1.92581 -4.623494,-1.42396 -8.543194,-2.07523 -12.674919,-2.78963 -2.680126,-1.30454 -2.055289,-1.87101 -0.870786,-1.99935 0.158082,-3.32598 c 0,0 -0.116029,-2.7132 -0.01234,-4.19414 l 0.149549,-5.54546 c 0.292968,-2.22656 0.135238,-32.76671 1.017699,-39.27914 -1.026618,-14.1124 2.519679,-12.41622 2.494603,-19.14331 l 2.559831,-13.88967 0.07422,-0.42578 -0.07422,-3.19531 c 0,-1.46875 0.195312,-2.65235 0.582031,-3.55079 l -0.289062,-0.85156 v -2.625 c 0,-2.03515 0.121093,-3.62109 0.363281,-4.75781 -0.242188,-0.47266 -0.363281,-1.06641 -0.363281,-1.77734 l 0.582031,-4.6836 -0.363281,-2.69922 v -3.125 L 66.175781,356.625 c 0,-5.53906 0.144531,-10.17969 0.433594,-13.91797 l -0.363281,-0.85156 -0.07031,-2.19922 c 0,-1.65625 0.191407,-3.38672 0.582031,-5.18359 l 0.433594,-1.49219 -0.289062,-0.92188 -0.363282,-3.6914 2.035157,-14.83985 c -0.195313,-3.55078 -0.195313,-6.36718 0,-8.44922 l 0.289062,-1.84375 -0.07031,-1.28125 v -0.21093 l -0.21875,-1.13672 0.363281,-0.92188 0.582031,-5.89453 c 0.339844,-1.98828 0.726563,-3.59765 1.164063,-4.82812 0,-2.46094 0.242187,-4.21094 0.726562,-5.25391 l 0.144532,-1.70312 c 0.144531,-1.13672 0.4375,-2.0586 0.871093,-2.76954 L 72.5,278.02734 c 0.386719,-2.60156 0.871094,-4.73047 1.453125,-6.38672 -0.144531,-0.33203 -0.21875,-0.73437 -0.21875,-1.20703 v -0.14453 l -0.07031,-1.48828 c 0.04688,-0.99609 0.265626,-1.75391 0.652344,-2.27344 1.019532,0.75782 3.441406,1.5625 7.269532,2.41407 4.554687,1.03906 7.753906,1.5625 9.59375,1.5625 0.726562,0 1.089843,-0.21485 1.089843,-0.64063 l -0.214843,-0.21094 1.304687,0.42578 c 0.488281,0 0.730469,-0.21484 0.730469,-0.64062 l -9.453125,-8.94531 c -3.921875,-3.83203 -6.371094,-6.95703 -7.339844,-9.3711 -0.535156,-1.46875 -1.113281,-3.66797 -1.746094,-6.60547 l 0.800781,0.21485 c 0.871094,0 3.878907,-0.96875 9.015626,-2.91016 l 2.832031,-0.71094 4.289062,-0.42578 10.105466,-0.42578 5.59766,-1.91797 2.46875,-1.98828 v -0.0703 c 1.26172,-0.94531 2.35156,-3.17188 3.27343,-6.67188 0.53125,-1.80078 0.75,-4.33203 0.65235,-7.59765 v -14.98047 c 0.82422,-10.17578 1.23828,-20.25781 1.23828,-30.24609 -0.97266,-13.77344 -3.44141,-20.66016 -7.41797,-20.66016 -0.57812,0 -0.87109,0.26172 -0.87109,0.78125 l -0.0703,0.0703 c -0.58203,-1.13672 -1.48046,-2.15234 -2.6914,-3.05078 l 0.14453,-0.5 c 0,-0.51953 -1.1875,-1.46484 -3.5625,-2.83984 -2.566405,-1.41797 -4.917967,-2.17578 -7.050779,-2.26953 h -0.507813 l -0.652344,0.14062 c -3.585937,0.0937 -6.398437,1.08984 -8.433593,2.98047 h -0.07422 c -0.578125,0 -1.5,0.37891 -2.761719,1.13672 l -5.960938,-0.28516 -15.917968,1.98828 v -0.0703 c 0,-0.42578 -0.242188,-0.68359 -0.726563,-0.78125"
     id="path6"
     sodipodi:nodetypes="cccccsccccccsccccccccccccccccccccccccccscccsccccsccccsssccccccccccccccccccccccccscccccccccccccccccccccccccccsccccscccccccccccccccccccscccccccccscccsc" />
  <path
     style="fill:#000000;fill-opacity:1;fill-rule:evenodd;stroke:none"
     d="m 97.503906,91.089844 v -0.140625 h -0.363281 v 0.140625 l -10.976563,0.921875 c -1.792968,0.09766 -3.125,0.402343 -3.996093,0.925781 l -1.601563,0.636719 -0.07031,0.144531 16.28125,8.02344 6.832034,2.48437 0.51171,0.63672 0.4336,-0.21094 -0.0703,-0.14453 7.77734,2.27344 5.44922,1.41797 1.45703,0.28516 -0.0742,-1.0625 -2.39844,-2.27344 -4.79687,-3.6211 -0.0742,0.21485 -0.36328,0.77734 -1.3086,-1.13281 -5.45312,-5.113282 -0.14453,-0.07031 -0.79688,-0.851563 v -0.07031 c -0.67968,-0.902344 -1.01953,-2.4375 -1.01953,-4.617188 V 90.45313 l -0.4375,0.07031 -3.195309,0.210937 h -1.382813 l 0.363282,0.285156 -0.582032,0.07031 m -26.820312,50.124997 -0.21875,-0.35547 -0.21875,-0.21093 0.4375,-0.42578 0.214844,-0.28516 h 0.07422 l 5.886719,-5.67969 c 0.96875,-0.66406 2.957031,-1.65625 5.960937,-2.98047 l 5.453126,-2.13281 h 0.507812 l 1.089844,-0.0703 v -0.14063 l -3.632813,-4.04687 c 1.695313,-1.42188 2.542969,-2.34375 2.542969,-2.76953 l -0.582031,-0.64063 v -0.14062 l -0.796875,-1.70313 c -0.292969,-1.60937 -1.066406,-3.71484 -2.328125,-6.32031 l -2.253907,-4.68359 -0.07031,-0.5 -0.582031,-0.99219 -0.4375,-0.99609 C 80.277344,102.11719 79.5,99.65625 79.40625,98.757812 l -1.382812,-3.691406 -0.4375,-1.773437 0.07422,-0.425781 L 78.75,92.15625 82.820312,90.734375 88.78125,89.601562 96.703125,89.03125 h 0.07422 l 0.726562,0.07031 4.582033,-0.496093 h 0.21484 l 1.01953,0.07031 0.28907,-0.07031 0.21875,0.07031 c 0.0508,1.230469 0.26562,2.4375 0.65625,3.621094 l 0.50781,1.421875 v 0.566406 l 0.36328,0.496094 c 0.0977,0.425781 0.67969,1.066406 1.74609,1.917969 l 0.36328,0.425781 1.67188,1.136719 3.85156,3.335945 2.47266,1.77734 4.57812,3.26563 -0.0742,2.05859 4.65235,0.70703 1.52734,0.42969 0.14453,0.0703 v 0.0703 l 2.91016,0.35547 1.59765,-0.35547 2.61719,0.35547 2.54297,-0.14453 7.92188,0.14453 0.0742,-0.14453 h 4.65235 l 7.92187,-0.28125 h 0.21875 l 0.36328,-1.27734 v -3.83594 l 0.29297,-4.25781 h -0.14843 l -0.36329,-0.42969 c 0,-0.187505 0.82422,-1.085943 2.47266,-2.695318 l 1.01953,-1.277344 -0.0742,-0.285156 1.67188,-1.917968 3.34375,-3.691407 4.21484,0.07031 8.57813,0.214844 5.3789,0.992187 4.21875,1.351563 3.70703,0.992187 c 0.33594,0.191406 0.75,0.355469 1.23438,0.496094 0.92187,0.664062 1.86719,1.113281 2.83594,1.351562 l -0.14844,0.707031 -0.79688,3.054688 -2.39843,6.035157 -4.4336,7.80859 -1.60156,1.84766 -1.59766,2.91015 -1.52734,2.48438 -5.23437,7.24219 c 1.74609,0.47265 2.61718,1.13671 2.61718,1.98828 0,0.42578 -0.28906,0.75781 -0.87109,0.99218 l 0.43359,0.78125 -0.0703,0.42578 2.03516,2.83985 6.54297,3.83594 c 6.83203,4.73046 10.24609,7.28906 10.24609,7.66796 l -0.21484,0.63672 c 1.69531,1.375 2.80859,2.5586 3.34375,3.55078 1.01562,1.94141 3.02734,4.78125 6.03125,8.51954 1.98828,3.83593 3.24609,6.6289 3.78125,8.3789 l 0.28906,1.63281 c 0.875,0.37891 1.67187,7.19532 2.39844,20.44532 v 0.57031 l 0.4375,2.98047 0.28906,1.20703 c 0.48437,1.5625 0.72656,3.19531 0.72656,4.89844 v 2.55859 h 0.0742 l 0.14453,0.14063 v 5.89453 h 0.21875 l 0.0742,3.05078 c 1.10789,5.20149 -3.61103,8.38442 -6.76842,12.40865 l -28.22312,1.34164 1.46278,2.73148 c 0.77817,2.45235 1.45116,4.39656 2.08513,6.23664 0.63396,1.84008 1.22889,3.57603 1.85096,5.61184 0.62207,2.0358 1.27127,4.37147 2.01376,7.411 0.74249,3.03953 1.57827,6.78292 2.5735,11.63416 0.0436,0.21267 0.16898,0.99826 0.34513,2.28095 0.17616,1.28269 0.43233,3.0594 0.64998,5.26357 l 0.76936,7.79132 0.46065,11.08267 -0.0994,13.88398 2.84654,14.32337 2.46164,11.47326 2.05835,7.81656 1.30659,5.59225 1.27948,7.81275 1.06128,5.51473 0.57306,9.09931 0.54683,8.32063 0.53891,7.79596 1.06887,5.50743 1.38304,6.59208 1.63408,6.30027 1.65525,6.42998 1.25603,6.52515 1.25603,6.52514 1.25603,6.52515 2.89113,8.98744 1.63524,6.1431 1.7771,6.2247 c 1.11328,5.58594 2.45412,8.89516 3.03225,10.40688 1.79297,4.54688 3.12891,10.4375 4,17.67969 l 3.19922,17.60937 0.58203,2.69532 -0.0742,1.70312 0.72656,5.32813 0.72657,7.38281 c 0,0.80469 -0.36329,1.4414 -1.08985,1.91797 l 0.0742,0.42578 -10.39453,2.83984 c 1.01562,0.0937 1.33203,0.32813 0.94141,0.70703 -1.55079,-0.32812 -6.61329,0.61719 -15.19141,2.83985 -5.08594,1.375 -9.93359,2.0625 -14.53516,2.0625 -21.61328,0 -25.86744,0.037 -29.26198,-0.48252 l -4.15777,-1.64815 c -0.19531,0 -1.91786,-7.39467 -1.91786,-7.39467 0,0 -1.64588,-12.84357 -2.37244,-14.35919 0,0 -3.50157,-15.53677 -4.32579,-17.75943 -2.42578,-4.64062 -3.06933,-16.75492 -3.89355,-18.83695 -1.60156,-4.30859 -3.25122,-19.77572 -4.55982,-22.14291 0.10568,0.61806 -4.91224,-26.73074 -5.83066,-34.44086 l -8.41521,57.49979 c -0.24219,0.42578 -2.95202,31.49402 -2.95202,32.06043 l 0.34028,27.26543 v 0.35547 l -13.22656,-0.28125 c -2.13281,0 -5.89063,-0.94922 -11.26953,-2.83984 l -16.425782,-5.04297 c -12.261719,-2.41406 -19.675781,-4.11719 -22.242187,-5.11328 -3.925782,-1.46485 -5.890626,-3.78516 -5.890626,-6.95703 l 1.019521,-12.21086 -0.363282,-0.21094 -0.148437,-23.64453 v -18.74219 c 3.994838,-29.49173 -1.269304,4.86155 5.423645,-27.15975 l 0.507813,-8.875 0.363281,-46.14844 c 0,-13.62891 0.945313,-30.78906 2.835938,-51.47266 1.5,-16.5664 3.199218,-27.94922 5.085937,-34.14843 v -0.78125 L 72.5,269.4375 l 0.21875,-1.13672 c 1.113281,-7.47656 1.671875,-13.51172 1.671875,-18.10156 0,-0.52344 0.214844,-0.78125 0.652344,-0.78125 H 75.1875 l -1.453125,-6.32031 C 72.910156,238.64844 72.5,235.33594 72.5,233.15625 l -0.359914,-4.98823 c -1.382661,-10.6669 -3.476912,-11.33924 -2.978852,-11.11045 L 58.052152,204.40355 C 58.681058,202.9387 44.511726,172.31251 46.402351,169.18751 l 0.144531,0.0703 c 0.824219,-1.70312 2.933594,-4.73047 6.324219,-9.08594 l 4.945312,-6.10546 c 0,0.28515 0.121094,0.49609 0.363282,0.63671 l -5.523438,6.46094 c -1.699219,1.94141 -3.828125,5.08985 -6.398438,9.44531 l -0.07422,-0.0703 c -1.160156,1.75 -2.726658,3.41974 -4.230564,6.54474 l -0.785061,2.47089 4.694309,-8.94147 c 0.469233,0.4206 1.942,9.70521 4.10256,7.94539 0,0 1.360438,0.82734 3.428967,2.69691 2.068529,1.86956 4.510298,24.4525 7.34266,28.62139 2.832362,4.16889 8.330064,-0.96516 10.337636,6.02074 0.944822,3.28777 0.08235,-0.67699 1.571828,6.87725 l 0.955833,9.23058 0.416894,2.58649 0.586808,5.0252 0.875,4.40234 v 0.49609 h 0.07031 c 0.632813,2.9375 1.210938,5.13672 1.746094,6.60547 0.96875,2.41407 3.417969,5.53907 7.339844,9.3711 l 9.453125,8.94531 c 0,0.42578 -0.242188,0.64062 -0.730469,0.64062 l -1.304687,-0.42578 -0.07422,-0.0742 c -1.550781,-0.89843 -3.902344,-3.0039 -7.050781,-6.3164 -4.3125,-4.59375 -7.292969,-8.42578 -8.941407,-11.50391 l -0.07422,2.76953 c 0,1.89453 -0.386718,5.39844 -1.160156,10.50782 h -0.21875 c -0.484375,0 -0.726562,0.21484 -0.726562,0.64062 0,0.28516 0.167968,0.56641 0.507812,0.85156 -0.386718,0.51953 -0.605468,1.27735 -0.652344,2.27344 l 0.07031,1.48828 v 0.14453 c 0,0.47266 0.07422,0.875 0.21875,1.20703 -0.582031,1.65625 -1.066406,3.78516 -1.453125,6.38672 l -0.07422,1.20703 c -0.433593,0.71094 -0.726562,1.63282 -0.871093,2.76954 l -0.144532,1.70312 c -0.484375,1.04297 -0.726562,2.79297 -0.726562,5.25391 -0.4375,1.23047 -0.824219,2.83984 -1.164063,4.82812 l -0.582031,5.89453 -0.363281,0.92188 0.21875,1.13672 v 0.21093 l 0.07031,1.28125 -0.289062,1.84375 c -0.195313,2.08204 -0.195313,4.89844 0,8.44922 l -2.035157,14.83985 0.363282,3.6914 0.289062,0.92188 -0.433594,1.49219 c -0.390624,1.79687 -0.582031,3.52734 -0.582031,5.18359 l 0.07031,2.19922 0.363281,0.85156 c -0.289063,3.73828 -0.433594,8.37891 -0.433594,13.91797 l -0.507812,26.62109 v 3.125 l 0.363281,2.69922 -0.582031,4.6836 c 0,0.71093 0.121093,1.30468 0.363281,1.77734 -0.242188,1.13672 -0.363281,2.72266 -0.363281,4.75781 v 2.625 l 0.289062,0.85156 c -0.386719,0.89844 -0.582031,2.08204 -0.582031,3.55079 l 0.07422,3.19531 -0.07422,0.42578 0.07422,1.06641 v 0.77734 c -0.292969,0.19141 -0.4375,0.45312 -0.4375,0.78125 l 0.363281,0.5 c -4.669956,27.60428 -5.708802,16.85401 -5.708802,68.691 l -0.363281,0.4961 0.144531,5.60937 -0.363281,6.67188 c 0,3.45703 3.707031,5.82422 11.121094,7.10156 l 4.722656,0.92188 v -0.21094 l 1.164063,0.28125 h 0.07422 l -0.07422,0.14453 c 5.429687,1.13672 9.5,2.22266 12.210937,3.26562 l 16.718755,5.32422 c 1.79296,0.85157 4.19531,1.34766 7.19921,1.49219 6.10547,0.1875 10.80911,0.15885 12.21536,-0.64584 l 0.10514,-5.53682 -0.12875,-5.51348 0.49703,-23.08944 c -0.75084,-23.21591 11.90176,-90.08223 12.07733,-88.64937 -8.39325,-138.46139 -24.66501,-163.28564 -6.91663,-278.52168 l -7.70312,-0.42578 c -4.07422,-0.52344 -11.80078,-2.48828 -23.191411,-5.89453 -1.597656,-0.51953 -5.328125,-2.27344 -11.191406,-5.25391 l -6.617187,-3.621091 1.816406,7.171871 2.617187,5.25391 1.671875,1.63281 c -0.53125,0.0469 -0.796875,0.28516 -0.796875,0.71094 l 1.234375,1.27734 H 86.82035 l 0.945313,2.98047 0.507813,0.85157 c 0.4375,0.66406 0.679687,1.46875 0.726562,2.41406 l 1.164062,1.77734 0.507813,1.20703 -0.07422,0.4961 0.148438,0.14062 -1.09375,1.34766 c -0.726563,0.47656 -1.089844,0.85547 -1.089844,1.13672 l 1.671875,1.49218 1.453125,1.77344 0.148438,0.71094 c 0,0.89844 -0.4375,1.34765 -1.308594,1.34765 h -0.07422 c -0.726563,0.66407 -2.566406,1.30469 -5.523437,1.91797 l -5.523438,2.91016 -5.378906,4.6875 h 0.07031 l -0.726562,0.56641 c -0.871094,0.61718 -1.527344,0.92578 -1.960938,0.92578 h -0.07422 l -0.363282,-0.0742 -1.164062,1.0664 -8.867188,9.16016 -1.671875,1.84375 -0.726562,-0.0703 H 58.39847 l 1.523437,-1.63281 c 3.925781,-4.11719 7.511719,-7.6211 10.761719,-10.50782 m 16.136718,-28.46875 h -0.582031 l 0.144531,0.28125 c 0.09766,-0.1875 0.242188,-0.28125 0.4375,-0.28125 M 166.55859,91.585938 h -0.21484 c -0.67969,1.230468 -2.57031,3.480468 -5.67188,6.746093 l -0.14453,-1.066406 -2.47265,2.769535 0.0742,1.98828 -0.29297,4.33203 -0.14453,3.48047 v 0.0703 l 1.38281,-0.0703 c 1.21094,-0.19141 8.14062,-2.60547 20.78906,-7.24219 4.07031,-1.46875 8.21484,-3.667969 12.42969,-6.605469 l -7.85156,-2.695312 C 179.10937,92.0625 174.19141,91.375 169.6875,91.234375 l -2.47266,0.351563 h -0.65625 m 21.61808,159.907242 -8.88474,-27.96992 1.2765,-0.1353 c 0,0 35.34953,0.15696 35.34953,-13.9426 l -0.36328,-0.42578 v -6.46094 h -0.14844 l -0.50781,-5.60937 -0.4336,-1.91797 c -0.53515,-2.08203 -0.80078,-3.78516 -0.80078,-5.10938 0,-0.71093 0.0703,-1.20703 0.21875,-1.49218 l -0.14844,-2.69922 -0.36328,-3.05078 0.21875,1.63281 -1.23437,-11.21875 0.14453,2.83984 v 0.28516 l -1.23438,-8.09375 c -0.53515,-2.69922 -2.30468,-6.25 -5.30859,-10.65234 -2.95312,-3.92579 -4.50391,-6.15235 -4.65234,-6.67188 -0.19141,-0.66406 -0.84766,-1.39844 -1.96094,-2.20312 l -2.61719,-1.98829 -0.14453,-0.14062 -3.05469,-2.19922 -6.83203,-4.54687 c -5.42578,-3.26563 -8.35937,-5.79688 -8.79687,-7.59375 l -0.65235,-0.5 -0.36328,-0.78125 0.50781,-1.13282 0.21875,-0.14453 h -0.21875 c -1.30859,-0.1875 -1.96093,-0.63672 -1.96093,-1.34765 l 1.88672,-2.83985 3.49218,-5.18359 1.81641,-4.04688 0.50781,-0.92187 c 0.72656,-1.375 1.38281,-2.17969 1.96485,-2.41406 l 1.23437,-1.84766 4.57813,-6.67187 1.96484,-5.468755 c -2.375,1.800785 -6.64063,3.929685 -12.79297,6.390625 l -3.78125,1.42188 -0.80078,-0.14454 c -0.19141,0 -0.41016,0.21485 -0.65234,0.64063 -9.74219,3.26562 -19.41016,4.89844 -29.00391,4.89844 h -8.50391 l 0.14453,0.78125 -1.30859,4.47265 c -1.3561,24.76187 -4.61275,40.26819 -4.21484,64.60938 l 0.43359,8.02343 -0.21875,0.70704 0.14844,4.04687 -0.14844,11.07813 0.4375,17.53515 v 0.99219 c 29.4307,133.17856 33.52138,288.88529 33.52138,288.88529 l 27.38231,0.99004 4.72656,-0.21484 h 0.0742 l 0.28906,-0.0703 10.61328,-1.84375 7.19531,-1.49219 5.3086,-1.84375 5.88672,-1.84766 -0.0742,-0.14062 c 0,-0.28516 0.875,-0.59375 2.61718,-0.92578 1.7461,-0.37891 2.61719,-0.80469 2.61719,-1.27735 0,-1.65625 -0.26562,-3.92969 -0.80078,-6.8164 l -0.72656,-6.2461 c -1.45313,-6.39062 -2.6875,-13.46484 -3.70703,-21.23047 l -0.58203,-4.1875 v -0.28515 l -0.14454,-0.56641 c -0.87109,-5.11328 -1.9375,-9.23047 -3.19921,-12.35547 -0.62891,-1.60937 -2.12441,-4.73981 -3.14003,-9.47419 -0.82422,-3.6914 -1.81359,-6.0336 -1.91125,-7.12344 l -0.98229,-4.04576 -1.39939,-5.89848 0.554,4.07357 -0.60542,5.78471 h -0.21875 l -4,9.58594 -3.77734,10.22265 -0.65625,-0.21094 v -2.76953 c 0.72656,-2.98437 2.08593,-6.79297 4.07031,-11.43359 l 2.91016,-5.96094 c 0.6289,-4.11719 -0.0934,-6.22952 0.43781,-8.54983 l -0.87893,-5.42294 -0.87894,-5.42293 -0.87893,-5.42294 -1.27754,-5.5435 -0.91326,-4.3913 -1.84766,-5.98822 -1.06882,-5.19541 -1.00648,-4.24884 -1.21811,-6.03306 -0.57629,-6.03918 -0.58582,-5.18554 -0.565,-5.95408 -0.26844,-5.32202 -0.74254,-4.99063 -0.47725,-6.18344 -0.87893,-5.42294 -0.84158,-4.11529 -0.92755,-4.20306 -1.27413,-4.51738 -1.68888,-6.6979 -1.00744,-5.20685 -1.50578,-7.53528 -1.09877,-6.83202 -0.60122,-5.33974 0.19549,-9.87945 -0.51475,-7.48084 -0.40489,-7.74491 -1.85598,-13.03864 m 3.27818,-94.42817 -2.83203,8.58985 c -2.03516,6.39062 -3.27344,12.09375 -3.70703,17.10937 l -2.03906,13.91406 c -1.25782,7.76563 -3.19974,19.84063 -3.4888,19.84063 l -1.32952,0.26664 1.84175,-11.37289 3.92188,-24.56641 c 0.77734,-4.35156 1.625,-8.5664 2.54687,-12.63672 1.89063,-8.04687 3.36719,-12.07031 4.4336,-12.07031 0.58203,0 0.80078,0.30859 0.65234,0.92578 M 158.41797,97.90625 h -0.0703 0.0703 m -27.54686,125.45314 -0.4375,-18.8125 v -8.3789 c 0.0469,-3.125 0.16797,-5.32422 0.36328,-6.60156 -0.33984,-1.70704 -0.53515,-4.89844 -0.58203,-9.58594 1.89595,-21.37555 -1.29157,-56.2523 5.23439,-67.9453 l -3.5625,-0.0703 c -2.90766,27.32709 -4.20803,42.97788 -4.07032,65.81641 v 19.37891 M 151.875,132.83594 v 0.0742 h -0.0703 l 0.0703,-0.0742 m 24.35156,78.3125 h -0.14453 c -0.24219,0 -3.44141,-5.70313 -9.59375,-17.10938 0.28906,-0.1914 0.55469,-0.40234 0.79688,-0.64062 0.39062,0 2.10937,2.83984 5.16406,8.51953 l 4.07031,7.66797 -0.29297,1.5625"
     id="path2"
     sodipodi:nodetypes="ccccccccccccccccccccccccccsccccccccccccccccccccccccccccccccccccccccccccccccccccccccccccccccccccccccccccccccccccccccccccscccccccccccccccscccccccccssssssccccccccccccccccccccccccccccccccccscccccccccccccccccccccccccccccssccccccccccccccccccssscccccccccccccccccsscccscccccccccccccccccccccccccccsccccccccccccccccccccccccccccccccccccccccccccccccccsccccccsccccccccccccccccccccccccccccccccccccccsccccccccccccccccccccccccccccccccccscccccccccccccccccccccsccccccccccccccccccccccccccccccccccccccccccccccccccccccccccsccccccccccccccccccsccccc" />
  <path
     style="fill:#5d515f;fill-opacity:1;fill-rule:evenodd;stroke:none"
     d="m 201.1212,513.65584 -2.80348,0.28595 c -2.5677,0.22729 -4.80076,0.21484 -4.80076,0.21484 l -8.77328,-0.16807 -8.08446,-0.39564 -6.68615,-0.0991 -5.00589,-0.28612 -3.19448,-0.96709 c 0,0 -2.29371,-9.27237 -2.27736,-10.72541 l -1.14327,-7.71671 -1.35145,-8.17236 -3.2342,-11.51047 c 0.58203,-2.46094 -2.15761,-6.83433 -2.10683,-10.95152 0.0469,-4.875 -1.82862,-10.17756 -1.82862,-10.17756 0,0 -3.32167,-16.17742 -4.81082,-21.20493 -1.4215,-5.7878 -2.4326,-11.96892 -2.81615,-13.39103 -0.6004,-2.39479 -2.01078,-11.51175 -2.01078,-11.51175 l -1.30157,-7.07904 -2.45002,-9.67247 -26.34655,-278.84338 35.74862,0.75123 c 9.59164,0.20156 19.26172,-1.63282 29.00391,-4.89844 -0.4375,0.66406 -0.92188,1.79687 -1.45313,3.40625 l -0.14844,0.42578 h -0.14453 l -2.17964,6.5312 v 0.14453 l -3.92578,6.7461 -5.16015,2.83984 -2.83594,1.55859 -3.5625,1.06641 -1.74219,0.42578 v -0.49609 h -0.29297 c -1.11328,0.0937 -1.76953,0.44921 -1.96093,1.0625 l -0.58204,0.21484 c -1.30859,0.0937 -2.59375,0.42578 -3.85156,0.99219 -1.45703,0.71093 -2.18359,1.35156 -2.18359,1.91797 v 0.14453 c 0.14844,0.61328 1.21484,1.37109 3.19922,2.26953 2.85937,1.27734 6.46875,1.91797 10.83203,1.91797 l 4.9414,-0.21485 4.14454,9.08985 2.54296,8.80468 0.14454,3.1211 -0.0703,3.97656 -2.39843,5.82422 -1.89063,4.89844 c -0.14453,1.03906 -1.30859,2.60156 -3.48828,4.68359 l 0.14453,0.64063 c 1.21094,0.75781 2.64063,0.89843 4.28906,0.42578 l 4.50782,0.21093 c -2.66797,1.70704 -4,2.69922 -4,2.98438 l 3.85156,2.69531 c 1.60156,0.9961 2.98047,1.70703 4.14453,2.13281 l 0.29297,6.46094 0.14453,0.0703 0.72656,9.23047 -0.36328,6.2461 -4.07031,-7.66797 c -3.05469,-5.67969 -4.77344,-8.51953 -5.16406,-8.51953 -0.24219,0.23828 -0.50782,0.44922 -0.79688,0.64062 6.15234,11.40625 9.35156,17.10938 9.59375,17.10938 h 0.14453 v 0.21484 l -4.86719,-1.42187 -7.34375,-1.63282 c -0.72656,0 -1.08984,0.1875 -1.08984,0.56641 0,0.85156 4.07031,4.80469 12.21094,11.85937 -11.19531,5.72657 -16.78906,9.30079 -16.78906,10.71875 0,0.89844 3.85156,1.70313 11.55468,2.41407 l -0.21484,0.28515 c -1.06641,0.85157 -2.32813,2.625 -3.78125,5.32422 -1.50391,2.69922 -2.25391,4.66406 -2.25391,5.89453 v 0.42578 l 2.17969,0.42579 6.46875,-0.78125 1.30859,-0.0703 v 0.35157 l 2.1836,18.39062 0.87109,18.38672 0.21875,18.46094 c 0.58203,7.57422 1.21094,12.82812 1.89063,15.76172 -0.24219,0.1875 -0.36328,0.66406 -0.36328,1.42187 0,1.51172 1.01562,6.43359 3.05078,14.76563 0.38672,1.42187 1.40625,3.85937 3.05468,7.3125 l 1.01563,4.47265 0.72656,2.27344 -0.14453,0.49609 v 0.21485 c 0,0 0.14453,-0.71094 0,-0.21485 0.49456,2.61801 0.27157,13.93473 1.94925,24.62418 l 0.95862,18.66468 c 0.62874,3.87275 1.02036,8.60067 1.88901,17.69943 l 0.0742,0.0703 h 0.14454 c -0.33985,0.0469 -0.5586,0.35547 -0.65235,0.92187 v 0.9961 c 0,3.12109 1.25781,10.93359 3.77735,23.42968 l -0.0703,0.35157 c 0,2.36718 1.28125,10.91015 3.85157,25.63281 0.4375,2.69922 0.6289,8.07031 0.58203,16.11719 l 0.14453,6.8164 c -0.33985,0.0469 -0.50781,0.28125 -0.50781,0.70703 0.38671,5.44532 0.77343,8.37891 1.16406,8.80469 1.18461,6.69261 1.79622,5.83257 1.27847,6.84768 l 1.40013,7.68215 c 1.59503,9.79047 -0.48131,-3.17577 1.11872,6.57847"
     id="path935"
     sodipodi:nodetypes="ccccccccscccccccccccsccccccccccccccccsccccccccccccccccccccccccsccccscscccscccccccccscccccccccccccscccccccccc" />
  <path
     style="fill:#3c323e;stroke:#000000;stroke-width:1px;stroke-linecap:butt;stroke-linejoin:miter;stroke-opacity:1;fill-opacity:1"
     d="m 63.703283,166.81046 -4.729301,3.96812 -4.510201,4.06495 -8.154685,6.86 c 0,0 -2.34337,0.96054 -2.894323,1.22951 -0.550954,0.26896 -3.311049,2.08567 -3.311049,2.08567 l -2.320148,1.13216 -1.439366,0.66772 -2.639863,2.81037 -2.856147,3.67187 -3.508688,4.36824 -3.396211,4.55364 -3.423803,4.70794 -2.921277,4.41285 -1.049319,1.60677 -1.324981,2.0595 -1.24066,1.74229 -1.248901,2.2505 -1.209172,3.09003 -1.057209,3.08513 -0.05091,3.37496 -0.04722,3.32513 0.108804,2.70003 0.236264,1.88469 0.728404,1.53354 1.248567,1.74384 0.996832,1.03103 1.603053,1.89522 1.269136,1.20651 3.078904,0.61928 2.64612,-0.72627 4.017234,-1.57858 5.256726,-2.55892 5.828933,-2.40417 5.410321,-2.5589 7.740318,-4.50036 3.356883,-2.24817 5.566191,-3.75771 4.827739,-3.69028 3.265963,-2.46321 5.058796,-3.11167 2.661463,-1.89014 -2.697448,0.70067 -3.385293,0.3675 -1.698057,-0.79858 -2.641181,-2.14897 -2.543288,-3.13947 -1.894056,-3.16448 -1.198292,-3.64832 -1.184198,-5.23324 -0.810782,-3.98993 -0.291708,-3.93005 -0.03299,-4.00635 0.553839,-4.66852 0.870683,-3.68975 0.963711,-3.06714 1.130374,-2.04137 1.400384,-1.86969 z"
     id="path13244" />
  <path
     style="fill:#000000;fill-opacity:1;stroke:#000000;stroke-width:1px;stroke-linecap:butt;stroke-linejoin:miter;stroke-opacity:1"
     d="m 52.118645,188.99767 -2.102962,2.79691 -4.319484,3.84761 -4.123385,3.77615 c 0,0 -2.948231,3.24845 -3.974174,3.91153 -1.025942,0.66307 -5.401137,4.62105 -5.401137,4.62105 l -2.329193,1.44206 -2.000668,1.11966 c 0,0 -2.514527,1.73557 -3.034629,1.93192 -0.520101,0.19635 -4.004887,3.13658 -4.004887,3.13658 0,0 0.988182,1.19952 1.516968,0.76437 0.528785,-0.43514 -1.262022,-0.1908 1.238105,-1.32722 2.500128,-1.13642 3.188085,-2.0067 3.686296,-2.33179 0.498211,-0.32509 4.99551,-3.99768 4.99551,-3.99768 l 2.431598,-1.45085 c 0,0 4.48193,-3.53147 5.263441,-4.76754 0.781512,-1.23606 3.743505,-4.79558 4.348367,-4.90922 0.604861,-0.11364 5.08568,-4.74828 5.08568,-4.74828 0,0 1.827181,-1.29364 2.278892,-2.08993 0.451711,-0.79629 0.445662,-1.72533 0.445662,-1.72533 z"
     id="path8819" />
  <path
     style="fill:#000000;fill-opacity:1;stroke:#000000;stroke-width:1px;stroke-linecap:butt;stroke-linejoin:miter;stroke-opacity:1"
     d="m 55.536106,209.85122 -4.438398,3.48323 -6.152214,2.79728 -3.788673,2.35313 c 0,0 -6.879984,1.75656 -7.65664,2.02768 -0.776657,0.27112 -4.338184,1.99159 -4.338184,1.99159 l -4.289104,1.37923 0.426325,1.34237 c 0,0 -0.74156,0.0472 1.279085,-0.83706 2.020644,-0.88422 5.939606,-2.45942 5.939606,-2.45942 l 3.428464,-1.30108 c 0,0 0.288849,-0.28331 3.143471,-1.31209 2.854621,-1.02878 4.120083,-1.02878 4.120083,-1.02878 l 3.502181,-2.30787 c 0,0 3.030023,-1.80462 4.037238,-2.03191 1.007215,-0.22728 2.672255,-1.02136 2.672255,-1.02136 z"
     id="path8821" />
  <path
     style="fill:#3c323e;stroke:none;stroke-width:1px;stroke-linecap:butt;stroke-linejoin:miter;stroke-opacity:1;fill-opacity:1"
     d="m 47.33528,169.22709 -1.95535,2.33739 1.591487,7.91182 1.642495,-0.22475 1.289324,-1.27082 z"
     id="path91000" />
  <path
     style="fill:#231d24;stroke:#000000;stroke-width:1.7;stroke-linecap:butt;stroke-linejoin:miter;stroke-opacity:1;fill-opacity:1;stroke-miterlimit:4;stroke-dasharray:none"
     d="m 60.273623,170.19828 -1.991978,4.74484 -0.606229,2.78935 -0.568347,2.19162 -0.264829,3.12157 -0.07722,4.16578 0.31825,4.64722 0.912866,4.96301 0.729002,3.45948 1.160117,3.40078 1.304842,2.88421 2.518478,2.96977 2.410459,2.46016 2.125796,1.50653 2.469158,0.36781 3.590371,-0.62339 2.281016,-1.02552 1.398207,-2.05279 1.344157,-3.54147 0.585101,-6.19981 0.4257,-5.75056 0.237501,-5.2651 -1.791634,1.17603 -3.30612,2.13686 -2.993245,1.39769 -0.92136,1.79481 -1.350838,1.68208 -1.778676,2.32627 -1.587172,2.10669 -2.336586,2.83458 -1.417511,1.83041 -0.781667,1.28753 -1.16408,-1.38554 -1.16664,-2.66347 -1.012194,-2.93773 -0.53934,-2.16542 -0.644309,-3.2304 -0.421149,-2.43467 -0.240209,-2.51529 -0.196459,-2.42374 -0.03089,-1.62196 c 0,0 1.002385,-1.20158 1.200345,-1.20158 0.19796,0 1.064624,-1.11305 1.064624,-1.11305 l 2.330828,-3.23027 2.610253,-3.47998 1.274346,-1.79041 2.971615,-3.96177 1.416236,-1.72468 c 0,0 2.032255,-3.07833 2.212911,-3.13356 0.180656,-0.0552 -1.214264,-0.90879 -1.214264,-0.90879 l -1.198285,-0.67411 -1.555124,-0.31791 -1.447125,0.23095 -2.176676,0.87644 -1.729562,1.18733 -1.583777,1.34692 z"
     id="path4487" />
  <path
     style="fill:#3b303c;fill-opacity:1;stroke:#000000;stroke-width:1px;stroke-linecap:butt;stroke-linejoin:miter;stroke-opacity:1"
     d="m 136.1621,373.18037 -6.21575,0.19167 -2.032,-0.11702 -2.71488,1.23508 -1.42834,2.37248 2.55601,1.69245 4.46127,1.24896 c 0,0 2.85625,0.79151 3.86852,0.79151 1.01227,0 5.15914,-0.15325 5.8864,-0.15325 0.72725,0 5.06544,-0.33279 5.06544,-0.33279 l 2.37658,-1.80296 c 0,0 0.13588,-0.4857 -0.30491,-1.264 -0.44079,-0.77829 -0.0224,-1.09972 -1.51403,-1.58186 -1.49163,-0.48214 -1.51635,-1.125 -3.07618,-1.125 -1.55982,0 -3.88217,-0.49367 -3.88217,-0.49367 z"
     id="path123549-3" />
  <path
     style="fill:#3b303c;fill-opacity:1;stroke:#000000;stroke-width:1px;stroke-linecap:butt;stroke-linejoin:miter;stroke-opacity:1"
     d="m 135.88708,349.31834 -6.21575,0.19167 -2.032,-0.11702 -2.71488,1.23508 -1.42834,2.37248 2.55601,1.69245 4.46127,1.24896 c 0,0 2.85625,0.79151 3.86852,0.79151 1.01227,0 5.15914,-0.15325 5.8864,-0.15325 0.72725,0 5.06544,-0.33279 5.06544,-0.33279 l 2.37658,-1.80296 c 0,0 0.13588,-0.4857 -0.30491,-1.264 -0.44079,-0.77829 -0.0224,-1.09972 -1.51403,-1.58186 -1.49163,-0.48214 -1.51635,-1.125 -3.07618,-1.125 -1.55982,0 -3.88217,-0.49367 -3.88217,-0.49367 z"
     id="path123549-6" />
  <path
     style="fill:#3b303c;fill-opacity:1;stroke:#000000;stroke-width:1px;stroke-linecap:butt;stroke-linejoin:miter;stroke-opacity:1"
     d="m 135.62776,327.03708 -6.21575,0.19167 -2.032,-0.11702 -2.71488,1.23508 -1.42834,2.37248 2.55601,1.69245 4.46127,1.24896 c 0,0 2.85625,0.79151 3.86852,0.79151 1.01227,0 5.15914,-0.15325 5.8864,-0.15325 0.72725,0 5.06544,-0.33279 5.06544,-0.33279 l 2.37658,-1.80296 c 0,0 0.13588,-0.4857 -0.30491,-1.264 -0.44079,-0.77829 -0.0224,-1.09972 -1.51403,-1.58186 -1.49163,-0.48214 -1.51635,-1.125 -3.07618,-1.125 -1.55982,0 -3.88217,-0.49367 -3.88217,-0.49367 z"
     id="path123549-7" />
  <path
     style="fill:#3b303c;fill-opacity:1;stroke:#000000;stroke-width:1px;stroke-linecap:butt;stroke-linejoin:miter;stroke-opacity:1"
     d="m 134.80402,303.4511 -6.21575,0.19167 -2.032,-0.11702 -2.71488,1.23508 -1.42834,2.37248 2.55601,1.69245 4.46127,1.24896 c 0,0 2.85625,0.79151 3.86852,0.79151 1.01227,0 5.15914,-0.15325 5.8864,-0.15325 0.72725,0 5.06544,-0.33279 5.06544,-0.33279 l 2.37658,-1.80296 c 0,0 0.13588,-0.4857 -0.30491,-1.264 -0.44079,-0.77829 -0.0224,-1.09972 -1.51403,-1.58186 -1.49163,-0.48214 -1.51635,-1.125 -3.07618,-1.125 -1.55982,0 -3.88217,-0.49367 -3.88217,-0.49367 z"
     id="path123549-5" />
  <path
     style="fill:#3b303c;fill-opacity:1;stroke:#000000;stroke-width:1px;stroke-linecap:butt;stroke-linejoin:miter;stroke-opacity:1"
     d="m 134.61465,277.5811 -6.21575,0.19167 -2.032,-0.11702 -2.71488,1.23508 -1.42834,2.37248 2.55601,1.69245 4.46127,1.24896 c 0,0 2.85625,0.79151 3.86852,0.79151 1.01227,0 5.15914,-0.15325 5.8864,-0.15325 0.72725,0 5.06544,-0.33279 5.06544,-0.33279 l 2.37658,-1.80296 c 0,0 0.13588,-0.4857 -0.30491,-1.264 -0.44079,-0.77829 -0.0224,-1.09972 -1.51403,-1.58186 -1.49163,-0.48214 -1.51635,-1.125 -3.07618,-1.125 -1.55982,0 -3.88217,-0.49367 -3.88217,-0.49367 z"
     id="path123549-35" />
  <path
     style="fill:#3b303c;fill-opacity:1;stroke:#000000;stroke-width:1px;stroke-linecap:butt;stroke-linejoin:miter;stroke-opacity:1"
     d="m 135.53864,221.39209 -6.21575,0.19167 -2.032,-0.11702 -2.71488,1.23508 -1.42834,2.37248 2.55601,1.69245 4.46127,1.24896 c 0,0 2.85625,0.79151 3.86852,0.79151 1.01227,0 5.15914,-0.15325 5.8864,-0.15325 0.72725,0 5.06544,-0.33279 5.06544,-0.33279 l 2.37658,-1.80296 c 0,0 0.13588,-0.4857 -0.30491,-1.264 -0.44079,-0.77829 -0.0224,-1.09972 -1.51403,-1.58186 -1.49163,-0.48214 -1.51635,-1.125 -3.07618,-1.125 -1.55982,0 -3.88217,-0.49367 -3.88217,-0.49367 z"
     id="path123549-9" />
  <path
     style="fill:#3b303c;fill-opacity:1;stroke:#000000;stroke-width:1px;stroke-linecap:butt;stroke-linejoin:miter;stroke-opacity:1"
     d="m 134.44465,193.56527 -6.21575,0.19167 -2.032,-0.11702 -2.71488,1.23508 -1.42834,2.37248 2.55601,1.69245 4.46127,1.24896 c 0,0 2.85625,0.79151 3.86852,0.79151 1.01227,0 5.15914,-0.15325 5.8864,-0.15325 0.72725,0 5.06544,-0.33279 5.06544,-0.33279 l 2.37658,-1.80296 c 0,0 0.13588,-0.4857 -0.30491,-1.264 -0.44079,-0.77829 -0.0224,-1.09972 -1.51403,-1.58186 -1.49163,-0.48214 -1.51635,-1.125 -3.07618,-1.125 -1.55982,0 -3.88217,-0.49367 -3.88217,-0.49367 z"
     id="path123549-1" />
  <path
     style="fill:#3b303c;fill-opacity:1;stroke:#000000;stroke-width:1px;stroke-linecap:butt;stroke-linejoin:miter;stroke-opacity:1"
     d="m 134.61189,250.32707 -6.21575,0.19167 -2.032,-0.11702 -2.71488,1.23508 -1.42834,2.37248 2.55601,1.69245 4.46127,1.24896 c 0,0 2.85625,0.79151 3.86852,0.79151 1.01227,0 5.15914,-0.15325 5.8864,-0.15325 0.72725,0 5.06544,-0.33279 5.06544,-0.33279 l 2.37658,-1.80296 c 0,0 0.13588,-0.4857 -0.30491,-1.264 -0.44079,-0.77829 -0.0224,-1.09972 -1.51403,-1.58186 -1.49163,-0.48214 -1.51635,-1.125 -3.07618,-1.125 -1.55982,0 -3.88217,-0.49367 -3.88217,-0.49367 z"
     id="path123549-2" />
  <path
     style="fill:#3b303c;fill-opacity:1;stroke:#000000;stroke-width:1px;stroke-linecap:butt;stroke-linejoin:miter;stroke-opacity:1"
     d="m 133.84497,165.10815 -6.21575,0.19167 -2.032,-0.11702 -2.71488,1.23508 -1.42834,2.37248 2.55601,1.69245 4.46127,1.24896 c 0,0 2.85625,0.79151 3.86852,0.79151 1.01227,0 5.15914,-0.15325 5.8864,-0.15325 0.72725,0 5.06544,-0.33279 5.06544,-0.33279 l 2.37658,-1.80296 c 0,0 0.13588,-0.4857 -0.30491,-1.264 -0.44079,-0.77829 -0.0224,-1.09972 -1.51403,-1.58186 -1.49163,-0.48214 -1.51635,-1.125 -3.07618,-1.125 -1.55982,0 -3.88217,-0.49367 -3.88217,-0.49367 z"
     id="path123549-70" />
  <path
     style="fill:#3b303c;fill-opacity:1;stroke:#000000;stroke-width:1px;stroke-linecap:butt;stroke-linejoin:miter;stroke-opacity:1"
     d="m 132.59274,139.83139 -6.21575,0.19167 -2.032,-0.11702 -2.71488,1.23508 -1.42834,2.37248 2.55601,1.69245 4.46127,1.24896 c 0,0 2.85625,0.79151 3.86852,0.79151 1.01227,0 5.15914,-0.15325 5.8864,-0.15325 0.72725,0 5.06544,-0.33279 5.06544,-0.33279 l 2.37658,-1.80296 c 0,0 0.13588,-0.4857 -0.30491,-1.264 -0.44079,-0.77829 -0.0224,-1.09972 -1.51403,-1.58186 -1.49163,-0.48214 -1.51635,-1.125 -3.07618,-1.125 -1.55982,0 -3.88217,-0.49367 -3.88217,-0.49367 z"
     id="path123549-93" />
  <path
     style="fill:#3b303c;fill-opacity:1;stroke:#000000;stroke-width:1px;stroke-linecap:butt;stroke-linejoin:miter;stroke-opacity:1"
     d="m 132.70737,118.50814 -6.21575,0.19167 -2.032,-0.11702 -2.71488,1.23508 -1.42834,2.37248 2.55601,1.69245 4.46127,1.24896 c 0,0 2.85625,0.79151 3.86852,0.79151 1.01227,0 5.15914,-0.15325 5.8864,-0.15325 0.72725,0 5.06544,-0.33279 5.06544,-0.33279 l 2.37658,-1.80296 c 0,0 0.13588,-0.4857 -0.30491,-1.264 -0.44079,-0.77829 -0.0224,-1.09972 -1.51403,-1.58186 -1.49163,-0.48214 -1.51635,-1.125 -3.07618,-1.125 -1.55982,0 -3.88217,-0.49367 -3.88217,-0.49367 z"
     id="path123549-60" />
  <path
     style="fill:none;stroke:#000000;stroke-width:1px;stroke-linecap:butt;stroke-linejoin:miter;stroke-opacity:1"
     d="m 73.320476,139.57796 4.34525,6.40224 5.577366,6.65277 2.64488,3.38954 5.441057,-0.66932 4.817662,0.31389 1.137738,0.0284 1.21838,1.00874 0.475488,1.16313 -0.960132,1.88703 -1.717201,1.42726 -0.272342,0.81541 0.415699,0.79845 1.391062,-0.64965 1.568129,-1.09552 1.672978,-1.13625 1.59526,-1.74091 1.84033,-1.27498 0.97953,1.61925 -0.44725,1.63957 0.0139,2.46124 -0.11364,2.72618 -0.40024,2.23402 -1.74803,1.95828 -2.32237,1.26506 -1.675774,1.20119 -0.564632,0.76983 6.511956,11.26459 9.55418,16.1242 16.76059,31.9949 11.77766,21.37931 12.73425,22.52405 14.24566,31.12058 4.82094,9.99801 14.03447,22.12945 8.11521,14.74338 5.94923,6.51337 2.69423,2.50911 0.97885,-1.70399 -0.44706,-5.3859 -0.95638,-9.32684 -1.89143,-9.54188 -5.36391,-11.65791 -6.56483,-11.75938 -14.06266,-26.81792 -14.50425,-31.44245 -14.73752,-26.51727 -14.43433,-27.32548 -14.9829,-32.16359 -14.3815,-23.32597 -9.249962,-13.28264 -4.9629,-3.88897 -2.275156,-1.32294 -6.08066,2.47565 -4.767755,2.35529 -3.787591,3.25618 z"
     id="path131598"
     sodipodi:nodetypes="ccccccccccccccccccccccccccccccccccccccccccccccccccccccccc" />
</svg>
