<?xml version="1.0" encoding="UTF-8"?>
<svg xmlns="http://www.w3.org/2000/svg" xmlns:xlink="http://www.w3.org/1999/xlink" width="79px" height="91px" viewBox="0 0 79 91" version="1.1">
<g id="surface1">
<path style=" stroke:none;fill-rule:evenodd;fill:rgb(0%,0%,0%);fill-opacity:1;" d="M 65.492188 70.230469 C 65.492188 70.84375 65.316406 71.148438 64.964844 71.148438 C 56.804688 71.148438 51.253906 70.742188 48.308594 69.925781 C 46.617188 69.027344 45.367188 68.488281 44.550781 68.3125 L 44.503906 68.007812 C 44.5625 67.835938 44.652344 67.746094 44.769531 67.746094 L 50.277344 69.1875 C 54.445312 70.378906 59.222656 70.726562 64.617188 70.230469 L 65.230469 69.882812 C 65.402344 69.855469 65.492188 69.96875 65.492188 70.230469 M 43.761719 69.492188 C 44.34375 69.492188 46.722656 70.40625 50.890625 72.238281 C 55.492188 73.921875 59.179688 74.515625 61.949219 74.023438 C 62.152344 74.140625 62.253906 74.3125 62.253906 74.546875 L 62.210938 75.070312 L 61.949219 75.070312 C 56.089844 75.070312 51.484375 74.242188 48.132812 72.585938 C 45.6875 70.8125 44.125 69.8125 43.457031 69.578125 L 43.761719 69.492188 M 48.265625 76.027344 C 50.773438 77.566406 54.023438 78.613281 58.015625 79.164062 L 58.015625 79.515625 C 58.277344 79.542969 58.191406 79.558594 57.753906 79.558594 C 52.535156 79.558594 47.523438 77.234375 42.714844 72.585938 L 43.0625 72.238281 L 48.265625 76.027344 M 19.234375 71.191406 L 17.3125 71.757812 L 12.589844 71.714844 C 12.503906 71.945312 12.460938 71.84375 12.460938 71.410156 C 12.460938 71.148438 13.304688 70.988281 14.996094 70.929688 L 18.054688 70.796875 L 20.023438 70.144531 L 20.855469 70.40625 L 19.234375 71.191406 M 19.28125 73.804688 L 15.34375 73.675781 C 15.257812 73.9375 15.214844 73.847656 15.214844 73.414062 C 15.214844 73.152344 15.417969 73.035156 15.828125 73.066406 L 19.019531 73.019531 C 19.425781 72.757812 19.847656 72.628906 20.285156 72.628906 C 20.695312 72.628906 21.042969 72.714844 21.335938 72.890625 C 20.429688 73.5 19.746094 73.804688 19.28125 73.804688 M 21.246094 74.109375 C 21.945312 74.109375 22.382812 74.199219 22.558594 74.371094 C 21.394531 75.214844 19.949219 75.855469 18.230469 76.289062 L 17.707031 76.027344 L 21.246094 74.109375 "/>
</g>
</svg>
