<?xml version="1.0" encoding="UTF-8"?>
<svg xmlns="http://www.w3.org/2000/svg" xmlns:xlink="http://www.w3.org/1999/xlink" width="79px" height="91px" viewBox="0 0 79 91" version="1.1">
<g id="surface1">
<path style=" stroke:none;fill-rule:evenodd;fill:rgb(60.000002%,0%,0%);fill-opacity:1;" d="M 56.136719 19.679688 L 56.179688 19.679688 L 56.265625 20.246094 C 56.265625 21.085938 53.425781 22.6875 47.742188 25.039062 L 47.914062 24.996094 L 44.375 26.433594 L 44.023438 26.433594 L 44.855469 25.867188 L 43.675781 26.519531 C 43.910156 26.171875 44.460938 25.824219 45.335938 25.476562 C 45.570312 25.183594 46.078125 24.878906 46.867188 24.558594 L 49.882812 22.945312 L 50.496094 22.425781 L 51.105469 21.859375 L 51.894531 21.203125 L 52.507812 20.464844 L 53.425781 19.328125 C 53.597656 18.953125 53.816406 18.691406 54.082031 18.546875 L 54.035156 18.5 L 54.035156 18.371094 L 54.167969 18.371094 L 54.300781 18.457031 L 54.34375 18.457031 L 56.136719 19.636719 L 56.136719 19.679688 M 55.304688 22.46875 L 55.566406 22.25 L 55.917969 22.25 L 56.003906 23.558594 L 56.046875 23.558594 L 56.003906 23.644531 L 56.046875 23.820312 L 55.960938 24.210938 L 56.046875 24.082031 L 55.828125 24.386719 L 55.785156 24.472656 L 54.34375 25.78125 L 54.253906 25.867188 L 54.34375 25.824219 L 54.5625 25.691406 L 54.125 26.042969 L 53.90625 26.214844 L 55.347656 26.042969 C 55.84375 25.953125 56.25 25.839844 56.570312 25.691406 L 56.660156 25.691406 L 56.527344 25.691406 C 56.527344 24.792969 57.054688 24.355469 58.101562 24.386719 C 58.976562 24.386719 59.414062 24.910156 59.414062 25.953125 C 59.414062 26.824219 59.355469 27.378906 59.238281 27.609375 C 58.714844 28.277344 58.292969 28.945312 57.972656 29.613281 L 57.972656 29.875 L 57.839844 29.875 L 57.839844 29.746094 L 57.796875 29.746094 L 57.796875 29.308594 L 57.839844 29.179688 L 57.753906 27.347656 L 56.617188 26.695312 C 54.78125 26.898438 52.886719 27.335938 50.933594 28.003906 L 46.515625 29.484375 L 46.253906 29.484375 L 46.125 29.660156 L 46.078125 29.660156 L 46.035156 30.703125 C 45.890625 31.316406 45.453125 31.621094 44.722656 31.621094 C 44.054688 31.589844 43.734375 31.371094 43.761719 30.964844 C 44.082031 30.355469 44.242188 29.832031 44.242188 29.398438 C 44.242188 28.46875 44.5625 28.003906 45.207031 28.003906 C 45.496094 28.003906 45.789062 28.164062 46.078125 28.480469 L 46.253906 28.480469 L 46.253906 28.65625 L 49.707031 27.699219 L 52.375 26.78125 L 53.6875 26.257812 L 53.863281 26.214844 L 53.6875 26.214844 L 53.730469 26.171875 L 53.6875 26.171875 L 53.730469 26.128906 C 54.488281 24.648438 54.953125 23.484375 55.128906 22.640625 L 55 22.640625 L 55.128906 22.597656 L 55.128906 22.425781 L 55.304688 22.425781 L 55.304688 22.46875 M 50.320312 22.773438 L 50.363281 22.6875 L 50.1875 22.816406 L 50.320312 22.773438 M 51.761719 25.953125 L 51.675781 26.347656 C 51.617188 26.609375 51.457031 26.753906 51.195312 26.78125 C 50.234375 26.78125 49.753906 26.390625 49.753906 25.605469 C 49.753906 25.199219 49.941406 25.039062 50.320312 25.125 L 50.890625 25.125 C 51.238281 25.15625 51.457031 25.269531 51.542969 25.476562 L 51.414062 25.386719 L 51.761719 25.953125 M 49.269531 27.042969 L 49.226562 27.390625 L 49.140625 27.480469 L 49.050781 27.347656 L 47.214844 26.78125 C 47.304688 26.433594 47.652344 26.273438 48.265625 26.304688 L 49.269531 26.304688 L 49.269531 27.042969 M 51.589844 26.347656 L 51.542969 26.347656 L 51.589844 26.390625 L 51.589844 26.347656 M 52.242188 28.785156 C 52.972656 28.992188 53.335938 29.308594 53.335938 29.746094 C 53.335938 29.921875 53.058594 30.109375 52.507812 30.3125 L 51.542969 30.3125 L 51.019531 28.699219 L 52.242188 28.785156 M 55.828125 24.296875 L 55.917969 24.082031 L 55.785156 24.386719 L 55.828125 24.296875 M 55.433594 24.691406 L 55.523438 24.601562 L 55.433594 24.648438 L 55.433594 24.691406 M 54.125 25.867188 L 54.035156 25.867188 L 53.992188 25.953125 L 54.125 25.867188 M 54.515625 28.4375 L 54.515625 28.308594 L 54.605469 28.308594 C 55.011719 28.394531 55.21875 28.640625 55.21875 29.046875 L 55.128906 29.789062 L 55 29.789062 L 54.734375 29.875 C 53.976562 29.875 53.511719 29.410156 53.335938 28.480469 L 54.386719 28.4375 L 54.515625 28.4375 M 46.867188 30.488281 L 46.867188 30.441406 L 46.824219 30.488281 L 46.867188 30.488281 M 48.660156 29.746094 L 49.007812 29.660156 C 49.097656 30.035156 49.503906 30.339844 50.234375 30.574219 L 50.453125 30.617188 L 54.472656 30.488281 L 54.867188 30.355469 L 55.347656 30.09375 L 55.785156 29.398438 L 55.917969 29.398438 L 56.789062 31.054688 L 56.746094 31.445312 L 56.617188 31.664062 L 52.507812 31.75 L 52.507812 31.792969 L 51.632812 31.792969 L 51.414062 31.75 L 51.152344 31.75 L 50.800781 31.621094 L 50.976562 31.621094 L 50.800781 31.53125 L 49.226562 31.097656 L 49.226562 31.054688 L 48.746094 31.054688 L 48.746094 31.53125 L 48.441406 31.621094 L 48.441406 31.097656 L 48.660156 29.746094 M 47.828125 31.097656 C 47.742188 31.792969 47.421875 32.332031 46.867188 32.710938 L 46.167969 32.710938 L 46.167969 32.230469 L 46.253906 32.097656 C 46.429688 31.78125 46.546875 31.285156 46.605469 30.617188 C 46.777344 29.976562 47.375 29.601562 48.398438 29.484375 L 47.828125 31.097656 M 47.261719 35.714844 L 46.953125 35.714844 L 46.910156 35.757812 L 46.867188 35.847656 L 46.605469 35.847656 L 46.648438 35.804688 L 46.648438 35.714844 L 46.429688 35.847656 L 46.691406 35.585938 L 47.128906 35.105469 L 48.527344 33.796875 L 48.878906 32.621094 L 48.921875 32.535156 L 49.007812 32.273438 C 49.15625 31.984375 49.386719 31.808594 49.707031 31.75 L 49.664062 31.835938 L 50.058594 31.792969 L 52.199219 32.011719 L 52.242188 32.011719 C 53.730469 32.011719 54.574219 32.171875 54.78125 32.492188 L 55.085938 32.621094 C 54.941406 32.96875 54.472656 33.507812 53.6875 34.234375 L 55.171875 34.539062 L 61.03125 34.148438 L 61.207031 34.015625 L 61.601562 33.84375 L 61.773438 33.753906 L 61.90625 33.753906 L 61.992188 33.667969 L 62.210938 33.667969 L 62.125 33.753906 L 62.210938 33.753906 L 62.035156 33.929688 C 61.367188 35.324219 59.765625 36.066406 57.226562 36.152344 L 55.917969 36.152344 L 53.992188 35.542969 L 53.511719 35.5 L 52.507812 35.5 C 52.214844 35.847656 51.5 36.296875 50.363281 36.847656 L 49.753906 37.109375 L 48.570312 37.589844 L 47.042969 38.242188 L 46.035156 38.679688 L 46.296875 38.503906 L 45.773438 38.679688 L 48.265625 37.328125 L 51.0625 34.671875 L 51.0625 34.496094 L 50.800781 34.496094 L 49.753906 34.058594 L 47.261719 35.585938 L 47.261719 35.714844 M 61.601562 34.105469 L 61.554688 34.105469 L 61.554688 34.191406 L 61.644531 34.148438 L 61.601562 34.105469 M 61.90625 33.929688 L 61.863281 33.929688 L 61.863281 33.972656 L 61.90625 33.929688 M 61.03125 34.625 L 60.988281 34.625 L 61.03125 34.671875 L 61.03125 34.625 M 60.769531 35.0625 L 60.59375 35.0625 L 60.769531 35.0625 M 60.898438 34.539062 L 60.898438 34.582031 L 60.898438 34.539062 M 60.683594 34.453125 L 60.726562 34.410156 L 59.851562 34.539062 L 60.683594 34.453125 M 54.824219 32.839844 L 54.867188 32.710938 L 54.824219 32.664062 L 54.78125 32.839844 L 54.824219 32.839844 M 50.453125 33.582031 L 50.40625 33.582031 L 51.195312 33.886719 L 52.113281 33.753906 L 52.113281 33.539062 L 51.851562 33.230469 L 50.363281 33.230469 L 50.40625 33.449219 L 50.714844 33.710938 L 50.453125 33.582031 M 52.113281 33.230469 L 51.9375 33.230469 L 52.199219 33.363281 L 52.199219 33.320312 L 52.113281 33.230469 M 50.058594 36.457031 L 50.101562 36.5 L 50.1875 36.5 L 50.101562 36.457031 L 50.058594 36.457031 "/>
</g>
</svg>
