<?xml version="1.0" encoding="UTF-8"?>
<svg xmlns="http://www.w3.org/2000/svg" xmlns:xlink="http://www.w3.org/1999/xlink" width="79px" height="91px" viewBox="0 0 79 91" version="1.1">
<g id="surface1">
<path style=" stroke:none;fill-rule:evenodd;fill:rgb(60.000002%,0%,0%);fill-opacity:1;" d="M 50.582031 64.261719 C 48.628906 65.046875 47.59375 66.296875 47.480469 68.007812 L 48.660156 70.363281 L 51.195312 72.28125 L 53.773438 72.148438 L 54.167969 71.886719 L 54.648438 71.320312 L 55.480469 70.535156 C 55.742188 69.984375 55.871094 69.214844 55.871094 68.226562 C 55.871094 65.058594 54.386719 63.476562 51.414062 63.476562 C 50.015625 63.476562 48.964844 63.824219 48.265625 64.523438 C 47.886719 64.84375 47.59375 65.25 47.390625 65.742188 C 46.777344 66.382812 46.472656 67.28125 46.472656 68.445312 C 46.472656 69.347656 46.984375 70.433594 48.003906 71.714844 C 49.636719 73.398438 51.238281 74.242188 52.8125 74.242188 C 54.152344 74.242188 55.347656 73.632812 56.398438 72.410156 L 57.578125 70.625 L 57.621094 66.703125 L 57.753906 66.613281 L 57.972656 68.445312 L 57.925781 70.144531 L 57.316406 71.800781 C 56.441406 73.746094 54.941406 74.734375 52.8125 74.765625 C 51.703125 74.734375 50.859375 74.53125 50.277344 74.152344 L 49.445312 73.371094 L 47.566406 71.800781 C 46.546875 70.582031 46.035156 69.460938 46.035156 68.445312 C 46.066406 67.078125 46.398438 66.046875 47.042969 65.351562 C 48.148438 64.042969 48.863281 63.289062 49.183594 63.085938 L 51.28125 62.953125 C 54.546875 62.925781 56.191406 64.683594 56.222656 68.226562 C 56.222656 69.476562 56.105469 70.304688 55.871094 70.710938 L 54.648438 71.976562 C 54.242188 72.441406 53.484375 72.6875 52.375 72.714844 C 49.984375 72.714844 48.292969 71.378906 47.304688 68.707031 L 47.304688 68.574219 L 47.128906 68.621094 L 47.128906 68.3125 C 47.128906 67.53125 47.390625 66.671875 47.914062 65.742188 C 48.703125 64.378906 49.824219 63.695312 51.28125 63.695312 C 52.507812 63.695312 53.496094 64.21875 54.253906 65.265625 C 54.75 65.933594 55 66.527344 55 67.050781 C 55 70.070312 54.09375 71.597656 52.289062 71.625 C 50.042969 71.597656 48.921875 70.492188 48.921875 68.3125 C 48.921875 66.164062 49.753906 65.089844 51.414062 65.089844 C 53.074219 65.089844 53.90625 65.933594 53.90625 67.617188 C 53.90625 69.15625 53.394531 69.925781 52.375 69.925781 C 50.859375 69.925781 50.101562 69.402344 50.101562 68.359375 C 50.101562 67.078125 50.539062 66.441406 51.414062 66.441406 C 52.347656 66.441406 52.8125 66.949219 52.8125 67.964844 C 52.8125 68.722656 52.507812 69.097656 51.894531 69.097656 C 51.3125 69.097656 51.019531 68.851562 51.019531 68.359375 C 51.019531 67.863281 51.152344 67.617188 51.414062 67.617188 L 51.675781 67.703125 L 51.71875 67.878906 L 51.414062 68.3125 L 51.457031 68.621094 L 52.417969 68.621094 L 52.417969 67.964844 C 52.449219 67.328125 52.113281 67.007812 51.414062 67.007812 C 50.800781 67.007812 50.496094 67.457031 50.496094 68.359375 C 50.464844 69.054688 50.992188 69.402344 52.070312 69.402344 C 53.03125 69.402344 53.527344 68.835938 53.554688 67.703125 C 53.527344 66.28125 52.785156 65.582031 51.324219 65.613281 C 49.957031 65.582031 49.285156 66.484375 49.316406 68.3125 C 49.285156 70.203125 50.144531 71.148438 51.894531 71.148438 C 53.703125 71.148438 54.621094 69.8125 54.648438 67.136719 C 54.648438 66.671875 54.402344 66.136719 53.90625 65.523438 C 53.175781 64.625 52.316406 64.175781 51.324219 64.175781 L 50.582031 64.261719 M 17.792969 66.136719 L 18.273438 66.917969 C 18.535156 67.210938 18.800781 67.820312 19.0625 68.75 L 19.105469 69.054688 L 19.234375 69.402344 L 19.324219 69.925781 C 19.585938 71.523438 19.351562 72.601562 18.625 73.152344 L 18.316406 73.238281 L 18.316406 73.195312 L 18.144531 73.28125 L 17.226562 73.238281 C 16.4375 73.121094 15.769531 72.554688 15.214844 71.539062 L 15.082031 71.410156 L 14.734375 70.625 L 14.121094 68.53125 L 13.726562 66.917969 L 13.683594 65.480469 L 13.859375 64.566406 C 13.886719 64.101562 14.265625 63.78125 14.996094 63.609375 C 16.25 63.257812 17.238281 63.417969 17.96875 64.085938 C 18.316406 64.40625 18.652344 64.871094 18.972656 65.480469 L 19.019531 65.523438 L 19.5 66.484375 L 19.9375 68.007812 L 20.371094 71.058594 C 20.546875 72.191406 20.429688 73.195312 20.023438 74.066406 L 19.761719 74.109375 L 19.410156 74.371094 L 18.273438 74.9375 L 17.53125 74.765625 C 16.890625 74.765625 16.511719 74.605469 16.394531 74.285156 C 16.042969 74.109375 15.535156 73.484375 14.863281 72.410156 L 14.820312 72.367188 L 14.253906 71.363281 L 14.164062 71.191406 L 14.164062 71.148438 L 13.902344 70.710938 L 13.378906 68.96875 L 12.722656 66.308594 L 12.808594 66.136719 L 12.898438 66.265625 L 13.027344 66.832031 L 13.507812 68.664062 L 13.816406 69.753906 L 14.339844 71.148438 L 14.691406 71.671875 C 15.417969 72.746094 16.089844 73.484375 16.699219 73.894531 C 17.195312 74.242188 17.648438 74.359375 18.054688 74.242188 L 19.628906 73.675781 L 19.628906 73.71875 L 19.890625 73.28125 L 20.023438 72.671875 L 20.15625 71.015625 L 19.847656 68.707031 L 19.847656 68.621094 L 19.367188 67.09375 L 18.710938 65.875 L 18.101562 65.003906 L 17.75 64.695312 C 17.195312 64.027344 16.46875 63.824219 15.5625 64.085938 C 14.660156 64.320312 14.105469 64.828125 13.902344 65.613281 L 13.902344 65.65625 C 13.988281 65.945312 14.003906 66.425781 13.945312 67.09375 L 14.339844 68.53125 C 14.71875 69.984375 15.039062 70.898438 15.300781 71.277344 L 16.4375 72.324219 L 18.273438 72.890625 L 18.363281 72.890625 C 18.800781 72.394531 19.0625 71.726562 19.148438 70.886719 C 19.179688 70.449219 19.0625 69.753906 18.800781 68.792969 C 18.507812 67.691406 17.984375 66.730469 17.226562 65.917969 L 16.613281 65.785156 L 16.308594 65.832031 L 16.175781 65.875 L 15.652344 66.660156 L 15.519531 66.875 L 15.34375 67.441406 L 15.476562 68.707031 L 15.300781 68.75 L 15.652344 69.882812 L 16.308594 70.667969 L 16.394531 70.753906 L 17.792969 70.535156 L 17.925781 70.40625 L 17.96875 70.015625 L 17.707031 69.097656 L 17.53125 68.488281 C 17.179688 68.023438 16.628906 67.953125 15.871094 68.269531 L 16.042969 68.882812 C 16.21875 69.402344 16.46875 69.636719 16.789062 69.578125 C 16.875 69.550781 16.890625 69.417969 16.832031 69.1875 L 16.746094 69.054688 L 16.4375 68.707031 L 16.394531 68.574219 L 16.308594 68.574219 L 16.394531 68.53125 L 16.570312 68.269531 C 16.65625 68.242188 16.746094 68.300781 16.832031 68.445312 L 16.875 68.402344 L 17.269531 69.839844 L 17.050781 70.015625 L 16.527344 70.144531 L 16.480469 70.058594 C 16.21875 69.914062 15.988281 69.460938 15.78125 68.707031 C 15.578125 68.007812 15.78125 67.589844 16.394531 67.441406 C 17.09375 67.238281 17.605469 67.746094 17.925781 68.96875 L 18.054688 70.1875 L 18.054688 70.230469 C 18.144531 70.84375 18.027344 71.191406 17.707031 71.277344 L 16.4375 71.191406 C 15.769531 70.929688 15.316406 70.085938 15.082031 68.664062 C 14.792969 67.644531 14.71875 67.050781 14.863281 66.875 L 14.996094 66.746094 L 15.082031 66.703125 C 15.023438 65.917969 15.449219 65.410156 16.351562 65.175781 L 16.65625 65.132812 L 16.789062 65.046875 L 17.792969 65.917969 L 17.792969 66.136719 "/>
</g>
</svg>
