<?xml version="1.0" encoding="UTF-8"?>
<svg xmlns="http://www.w3.org/2000/svg" xmlns:xlink="http://www.w3.org/1999/xlink" width="79px" height="91px" viewBox="0 0 79 91" version="1.1">
<g id="surface1">
<path style=" stroke:none;fill-rule:evenodd;fill:rgb(60.000002%,40.000001%,60.000002%);fill-opacity:1;" d="M 39.695312 54.542969 L 41.75 56.851562 L 37.160156 62.039062 C 36.257812 63.171875 35.046875 64.945312 33.53125 67.355469 L 33.183594 66.917969 C 33.183594 65.207031 34.160156 62.679688 36.113281 59.335938 C 37.949219 56.113281 39.144531 54.515625 39.695312 54.542969 M 34.449219 64.785156 L 34.449219 64.871094 L 34.496094 64.828125 L 34.449219 64.785156 M 23.171875 55.632812 C 23.492188 55.632812 24.628906 57.027344 26.582031 59.816406 C 27.308594 60.832031 27.675781 62.214844 27.675781 63.957031 C 27.675781 65.207031 27.46875 66.195312 27.0625 66.917969 C 26.539062 65.117188 25.867188 63.765625 25.050781 62.867188 C 23.214844 60.511719 22.296875 59.132812 22.296875 58.726562 L 23.171875 55.632812 M 27.019531 64.4375 L 26.929688 64.4375 L 26.972656 64.523438 L 27.019531 64.4375 "/>
</g>
</svg>
