<?xml version="1.0" encoding="UTF-8"?>
<svg xmlns="http://www.w3.org/2000/svg" xmlns:xlink="http://www.w3.org/1999/xlink" width="79px" height="91px" viewBox="0 0 79 91" version="1.1">
<g id="surface1">
<path style=" stroke:none;fill-rule:evenodd;fill:rgb(100%,60.000002%,80.000001%);fill-opacity:1;" d="M 55 60.992188 C 55 61.429688 53.773438 62.632812 51.324219 64.609375 L 50.976562 64.523438 L 50.800781 64.128906 L 52.417969 62.519531 L 54.5625 60.601562 L 55 60.992188 M 53.25 64.304688 C 53.25 64.160156 53.585938 63.753906 54.253906 63.085938 C 54.925781 62.386719 55.433594 61.964844 55.785156 61.820312 C 56.078125 61.90625 56.222656 62.039062 56.222656 62.214844 C 56.222656 62.621094 55.40625 63.476562 53.773438 64.785156 L 53.425781 64.695312 L 53.25 64.304688 M 52.027344 61.253906 C 52.027344 61.515625 50.683594 62.75 48.003906 64.957031 L 47.523438 64.742188 L 47.480469 64.480469 C 47.480469 63.925781 48.847656 62.691406 51.589844 60.773438 C 51.878906 60.890625 52.027344 61.050781 52.027344 61.253906 M 41.707031 59.773438 C 41.707031 60.179688 39.144531 62.257812 34.011719 66.003906 L 33.664062 65.917969 L 33.488281 65.523438 C 33.488281 65.058594 36.082031 63.011719 41.269531 59.378906 L 41.707031 59.773438 M 45.03125 60.644531 C 45.03125 61.195312 42.726562 63.097656 38.121094 66.351562 C 37.832031 66.265625 37.6875 66.105469 37.6875 65.875 C 37.6875 65.523438 39.988281 63.652344 44.59375 60.253906 L 45.03125 60.644531 M 34.363281 58.683594 C 29.84375 63.679688 27.398438 66.179688 27.019531 66.179688 L 26.539062 66.089844 L 26.492188 65.699219 C 30.429688 60.789062 32.90625 58.335938 33.925781 58.335938 L 34.363281 58.683594 M 37.511719 59.378906 L 29.117188 67.398438 L 28.765625 67.3125 L 28.59375 66.917969 C 28.59375 66.628906 29.976562 65.234375 32.746094 62.734375 L 36.984375 59.03125 C 37.191406 59.03125 37.363281 59.148438 37.511719 59.378906 M 41.707031 65.742188 L 41.53125 65.351562 L 44.59375 62.5625 C 46.691406 60.789062 47.914062 59.902344 48.265625 59.902344 L 48.703125 60.253906 C 47.625 61.589844 45.410156 63.449219 42.058594 65.832031 L 41.707031 65.742188 M 25.621094 59.730469 C 24.949219 60.570312 23.082031 62.316406 20.023438 64.957031 L 19.671875 64.871094 L 19.5 64.480469 C 22.761719 61.078125 24.65625 59.378906 25.183594 59.378906 L 25.621094 59.730469 M 29.292969 59.074219 C 29.292969 59.394531 28.167969 60.644531 25.925781 62.824219 L 22.382812 66.003906 L 21.816406 65.785156 L 21.773438 65.523438 C 21.773438 65.265625 22.820312 64.160156 24.917969 62.214844 L 28.855469 58.683594 C 29.144531 58.800781 29.292969 58.929688 29.292969 59.074219 M 21.597656 59.730469 C 20.839844 60.890625 18.625 62.691406 14.953125 65.132812 L 14.472656 64.914062 L 14.425781 64.652344 C 18.214844 61.136719 20.460938 59.378906 21.160156 59.378906 L 21.597656 59.730469 M 16.875 60.773438 C 16.261719 61.878906 14.746094 63.449219 12.328125 65.480469 L 11.980469 65.394531 L 11.804688 65.003906 C 11.804688 64.742188 12.488281 63.914062 13.859375 62.519531 C 15.230469 61.125 16.058594 60.425781 16.351562 60.425781 C 16.554688 60.425781 16.730469 60.542969 16.875 60.773438 "/>
</g>
</svg>
