<?xml version="1.0" encoding="UTF-8"?>
<svg xmlns="http://www.w3.org/2000/svg" xmlns:xlink="http://www.w3.org/1999/xlink" width="79px" height="91px" viewBox="0 0 79 91" version="1.1">
<g id="surface1">
<path style=" stroke:none;fill-rule:evenodd;fill:rgb(0%,0%,0%);fill-opacity:1;" d="M 77.777344 32.621094 L 77.078125 30.617188 C 76.433594 29.222656 75.824219 28.207031 75.238281 27.566406 C 74.746094 27.015625 73.15625 25.984375 70.476562 24.472656 C 68.84375 23.601562 67.296875 23.179688 65.839844 23.207031 L 54.734375 22.46875 L 54.734375 22.378906 C 53.394531 22.378906 52.621094 22.277344 52.417969 22.074219 L 31.214844 22.074219 L 27.019531 21.726562 L 24.917969 21.769531 C 24.277344 22.175781 22.953125 22.570312 20.941406 22.945312 L 20.855469 22.992188 L 20.855469 22.640625 L 20.285156 22.730469 L 18.929688 23.121094 L 6.820312 23.207031 C 6.558594 23.46875 6.035156 23.628906 5.246094 23.6875 L 0.917969 23.339844 L 0.65625 29.527344 L 1.179688 34.582031 L 0.917969 37.722656 L 1.003906 37.722656 C 1.734375 43.210938 2.273438 46.394531 2.625 47.265625 C 2.855469 47.816406 3.90625 49.386719 5.769531 51.972656 L 7.300781 54.324219 C 7.855469 55.3125 8.132812 56.066406 8.132812 56.589844 L 8.089844 57.246094 L 7.824219 57.289062 L 8.132812 58.378906 L 8.132812 64.742188 C 8.394531 66.484375 9.371094 68.285156 11.0625 70.144531 C 11.703125 70.84375 13.101562 71.886719 15.257812 73.28125 L 18.582031 76.160156 C 19.71875 74.675781 20.371094 73.6875 20.546875 73.195312 C 20.984375 71.683594 21.523438 70.726562 22.164062 70.320312 C 21.027344 70.261719 20.140625 70.058594 19.5 69.707031 C 18.625 69.5625 17.429688 69.171875 15.914062 68.53125 C 14.078125 67.71875 13.058594 67.125 12.851562 66.746094 L 10.972656 63.433594 L 10.972656 60.207031 L 11.148438 60.121094 C 11.46875 60.121094 11.921875 60.527344 12.503906 61.339844 L 12.941406 61.90625 L 13.246094 62.257812 L 17.3125 62.214844 L 18.492188 62.386719 L 18.582031 62.386719 L 18.582031 62.648438 C 18.550781 63.199219 18.683594 63.871094 18.972656 64.652344 C 19.9375 64.074219 20.882812 62.941406 21.816406 61.253906 L 22.996094 59.511719 L 20.589844 59.554688 C 18.171875 59.554688 16.453125 59.351562 15.433594 58.945312 C 14.558594 58.828125 13.859375 58.496094 13.335938 57.941406 C 11.964844 57.128906 11.175781 56.519531 10.972656 56.113281 L 10.535156 53.585938 L 10.492188 53.585938 C 9.210938 48.90625 8.410156 45.449219 8.089844 43.210938 C 7.652344 39.492188 7.433594 36.019531 7.433594 32.796875 L 7.5625 30.050781 L 8.21875 27.609375 L 10.011719 27.480469 C 12.050781 27.449219 14.078125 28.25 16.089844 29.875 C 17.167969 30.574219 18.15625 31.488281 19.0625 32.621094 L 23.609375 38.375 C 25.53125 40.554688 26.902344 42.542969 27.71875 44.34375 C 28.855469 46.582031 29.960938 50.535156 31.039062 56.199219 L 31.128906 56.199219 L 31.128906 50.535156 C 30.808594 47.746094 30.371094 45.652344 29.816406 44.257812 L 29.816406 43.910156 C 28.738281 40.597656 28.039062 38.128906 27.71875 36.5 C 27.339844 33.796875 26.320312 31.199219 24.65625 28.699219 L 24.65625 28.175781 L 24.832031 28.175781 L 24.917969 28.21875 L 23.609375 24.910156 L 23.609375 24.734375 L 23.828125 24.648438 L 27.9375 26.871094 C 28.34375 27.015625 28.839844 27.480469 29.421875 28.265625 L 30.867188 30.3125 L 33.792969 33.582031 C 36.300781 31.574219 38.660156 29.773438 40.878906 28.175781 L 42.144531 27.21875 L 42.625 26.914062 L 44.8125 25.386719 L 44.898438 25.476562 L 44.070312 26.085938 C 45.46875 25.445312 47.171875 24.910156 49.183594 24.472656 L 49.578125 24.472656 L 49.664062 24.648438 C 49.664062 25.808594 49.210938 26.839844 48.308594 27.742188 L 48.265625 27.785156 L 45.292969 31.75 L 43.195312 34.148438 L 40.527344 36.414062 C 37.410156 40.773438 35.746094 43.808594 35.542969 45.523438 L 36.15625 51.101562 C 36.242188 52.320312 36.664062 54.628906 37.421875 58.03125 L 37.511719 58.117188 L 38.339844 54.105469 C 38.691406 52.101562 39.011719 50.78125 39.304688 50.140625 C 40.0625 48.195312 40.6875 46.84375 41.183594 46.089844 C 42.523438 44.433594 43.457031 43.097656 43.980469 42.078125 C 44.5625 40.828125 47.640625 38.171875 53.207031 34.105469 L 61.820312 27.523438 C 62.253906 26.304688 62.808594 25.691406 63.480469 25.691406 C 65.898438 25.691406 67.386719 28.191406 67.9375 33.1875 L 68.507812 40.773438 L 68.289062 46.175781 L 67.632812 49.488281 C 67.574219 50.386719 66.527344 52.566406 64.484375 56.023438 C 62.738281 58.640625 60.273438 60.28125 57.097656 60.949219 L 48.878906 61.339844 L 50.453125 62.300781 L 53.117188 63.433594 C 54.894531 64.128906 57.039062 64.785156 59.546875 65.394531 L 59.765625 65.394531 L 59.765625 62.648438 L 60.113281 62.5625 L 60.113281 62.734375 L 60.332031 62.734375 L 62.78125 62.953125 C 64.820312 62.953125 66.21875 62.53125 66.976562 61.691406 C 67.707031 60.148438 68.507812 58.710938 69.382812 57.375 L 69.46875 57.636719 L 67.851562 60.558594 C 67.269531 62.359375 65.578125 63.273438 62.78125 63.300781 L 60.113281 62.910156 C 60.113281 64.507812 60.15625 65.46875 60.246094 65.785156 L 60.027344 65.875 L 53.292969 63.78125 L 50.539062 62.648438 L 48.046875 61.339844 L 47.960938 61.339844 L 48.046875 61.210938 L 48.046875 61.167969 L 48.222656 61.125 L 49.007812 61.035156 L 54.605469 60.863281 C 55.566406 60.542969 56.777344 60.382812 58.234375 60.382812 L 61.46875 59.074219 L 64.136719 55.761719 C 65.332031 52.65625 66.46875 50.503906 67.546875 49.3125 L 67.589844 49.355469 L 67.589844 49.3125 C 67.824219 48.382812 67.9375 47.28125 67.9375 46 L 68.203125 40.773438 C 68.203125 30.921875 66.875 25.996094 64.222656 25.996094 C 63.875 25.996094 63.496094 26.1875 63.085938 26.5625 L 63.171875 26.652344 L 62.78125 26.957031 L 62.125 27.871094 L 61.820312 27.699219 L 61.820312 27.652344 L 61.773438 27.699219 L 60.683594 28.742188 C 59.222656 29.671875 58.335938 30.328125 58.015625 30.703125 L 53.074219 34.582031 C 48.324219 37.808594 45.320312 40.496094 44.070312 42.644531 L 41.226562 46.742188 C 39.972656 49.09375 39.332031 50.417969 39.304688 50.707031 L 37.6875 58.859375 C 37.132812 58.480469 36.5625 56.214844 35.980469 52.058594 C 35.425781 48.515625 35.164062 46.042969 35.195312 44.648438 L 35.238281 44.171875 L 35.367188 44.695312 C 35.574219 42.835938 37.320312 39.914062 40.613281 35.933594 L 43.195312 33.667969 L 45.117188 31.359375 C 46.050781 30.398438 47.144531 28.976562 48.398438 27.085938 C 48.628906 26.128906 48.921875 25.375 49.269531 24.820312 L 49.269531 24.734375 L 49.226562 24.734375 C 45.351562 25.691406 43.207031 26.550781 42.800781 27.304688 L 41.140625 28.523438 L 40.441406 29.09375 L 39.695312 29.660156 C 36.140625 32.503906 34.261719 33.929688 34.058594 33.929688 C 33.707031 33.929688 32.542969 32.765625 30.558594 30.441406 C 29.539062 28.933594 28.664062 27.886719 27.9375 27.304688 C 27.644531 27.21875 26.304688 26.460938 23.914062 25.039062 C 24.292969 26.289062 24.863281 27.480469 25.621094 28.613281 L 25.445312 28.699219 C 26.171875 29.660156 27.046875 32.097656 28.066406 36.019531 L 28.941406 39.988281 L 30.339844 43.691406 L 30.253906 44.390625 L 30.210938 44.390625 L 31.390625 50.359375 L 31.390625 58.464844 L 31.214844 58.507812 C 30.28125 53.277344 29.234375 48.949219 28.066406 45.523438 C 27.570312 43.867188 26.160156 41.6875 23.828125 38.984375 L 20.199219 34.105469 L 18.84375 32.796875 C 17.910156 31.722656 16.90625 30.804688 15.828125 30.050781 C 15.449219 29.730469 14.675781 29.351562 13.507812 28.917969 C 12.460938 28.164062 11.351562 27.785156 10.1875 27.785156 L 8.304688 27.957031 C 8.132812 28.105469 7.972656 28.886719 7.824219 30.3125 L 7.652344 32.710938 C 7.652344 35.035156 7.871094 38.445312 8.304688 42.949219 C 8.394531 44.082031 8.992188 46.625 10.097656 50.578125 L 10.097656 48.746094 L 10.230469 48.746094 L 10.625 52.449219 L 10.796875 53.105469 L 10.753906 53.585938 L 10.796875 54.585938 C 11.03125 55.980469 11.660156 56.894531 12.679688 57.332031 C 13.175781 57.476562 13.496094 57.667969 13.640625 57.898438 C 14.019531 58.21875 14.484375 58.40625 15.039062 58.464844 C 16.4375 59.046875 19.046875 59.277344 22.863281 59.164062 L 23.300781 59.207031 L 23.609375 59.074219 C 23.753906 59.074219 23.886719 59.132812 24 59.25 L 23.957031 59.292969 C 23.199219 59.875 22.324219 61.066406 21.335938 62.867188 C 20.578125 64.320312 19.777344 65.046875 18.929688 65.046875 C 18.753906 65.046875 18.566406 64.695312 18.363281 64 L 18.363281 62.648438 L 17.226562 62.648438 L 17.226562 62.605469 C 16.46875 62.835938 15.359375 62.824219 13.902344 62.5625 L 13.640625 62.5625 L 14.121094 62.78125 L 13.289062 62.5625 C 12.183594 62.445312 11.703125 62.125 11.847656 61.601562 L 11.847656 61.167969 L 11.890625 61.167969 L 11.28125 60.601562 L 11.847656 64.957031 C 13.246094 66.847656 15.769531 68.300781 19.410156 69.316406 C 21.394531 69.316406 22.515625 69.59375 22.777344 70.144531 L 22.777344 70.230469 C 22.777344 70.582031 22.105469 71.570312 20.765625 73.195312 C 20.503906 73.863281 19.820312 74.894531 18.710938 76.289062 L 18.929688 76.421875 L 18.929688 76.507812 L 18.625 76.375 L 18.582031 76.421875 L 18.363281 76.421875 L 18.449219 76.289062 L 15.34375 73.9375 L 11.804688 71.277344 L 9.136719 68.445312 L 7.914062 65.699219 L 7.914062 63.871094 L 7.957031 63.871094 L 7.914062 59.902344 C 7.941406 59.089844 7.636719 57.78125 6.996094 55.980469 C 5.800781 53.394531 4.34375 50.605469 2.625 47.613281 C 1.3125 45 0.613281 42.296875 0.523438 39.507812 L 0.394531 39.507812 L 0.523438 34.582031 L 0 29.613281 C -0.0273438 24.910156 0.175781 22.554688 0.613281 22.554688 L 6.734375 22.992188 L 18.929688 22.640625 L 20.199219 22.46875 L 21.117188 22.292969 L 21.507812 22.164062 L 21.554688 22.164062 C 22.601562 21.699219 23.578125 21.449219 24.484375 21.421875 L 24.875 21.421875 C 41.140625 21.625 51.121094 21.84375 54.824219 22.074219 L 54.867188 22.164062 L 65.839844 22.945312 C 67.734375 23.09375 69.382812 23.570312 70.78125 24.386719 C 73.460938 25.839844 75.136719 26.914062 75.808594 27.609375 C 76.945312 28.859375 77.703125 30.515625 78.082031 32.578125 L 77.777344 32.621094 M 69.46875 57.722656 L 69.644531 57.722656 L 69.730469 59.164062 C 69.730469 59.859375 69.410156 61.125 68.769531 62.953125 C 67.894531 65.046875 67.269531 66.25 66.890625 66.570312 C 64.238281 68.664062 62.648438 69.796875 62.125 69.96875 C 59.558594 70.550781 58.101562 70.988281 57.753906 71.277344 C 56.324219 71.976562 54.734375 72.324219 52.988281 72.324219 L 56.527344 75.375 L 58.496094 78.46875 C 64.964844 72.832031 68.683594 69.300781 69.644531 67.878906 L 73.054688 62.257812 L 74.101562 59.992188 L 73.839844 60.078125 L 74.015625 59.335938 L 74.101562 58.550781 C 74.101562 58.289062 73.59375 57.476562 72.574219 56.113281 C 71.40625 54.570312 70.648438 53.148438 70.300781 51.839844 C 69.890625 50.300781 69.6875 48.152344 69.6875 45.390625 L 69.6875 44.34375 L 69.644531 43.734375 C 69.671875 42.601562 69.863281 41.613281 70.210938 40.773438 L 70.695312 39.8125 C 71.945312 37.835938 74.265625 37.183594 77.644531 37.851562 L 76.902344 31.835938 L 77.382812 31.835938 L 77.511719 32.621094 L 78.300781 36.804688 L 78.300781 38.503906 C 74.425781 37.691406 71.933594 38.5625 70.824219 41.121094 C 70.476562 41.933594 70.285156 42.878906 70.257812 43.953125 L 70.300781 45.433594 C 70.300781 48.195312 71.058594 51.070312 72.574219 54.0625 L 74.804688 58.640625 L 74.628906 59.46875 L 74.890625 59.511719 L 73.183594 62.5625 L 69.90625 68.054688 L 64.878906 73.632812 L 61.644531 76.203125 C 60.070312 77.917969 59.035156 78.773438 58.539062 78.773438 L 58.410156 78.730469 L 58.144531 78.773438 C 57.824219 77.640625 57.15625 76.507812 56.136719 75.375 C 53.597656 73.804688 52.332031 72.730469 52.332031 72.148438 C 54.75 71.773438 56.644531 71.320312 58.015625 70.796875 C 60.199219 70.363281 61.761719 69.898438 62.691406 69.402344 C 64.851562 68.125 66.410156 66.890625 67.371094 65.699219 C 67.75 63.695312 68.1875 62.371094 68.683594 61.734375 C 69.03125 61.152344 69.292969 59.816406 69.46875 57.722656 M 32.175781 86.050781 L 38.167969 90.714844 C 39.507812 90.714844 40.554688 90.4375 41.3125 89.886719 L 43.980469 88.144531 L 47.523438 86.007812 C 45.917969 85.746094 43.441406 84.4375 40.089844 82.085938 C 38.371094 80.835938 36.972656 79.484375 35.894531 78.03125 C 34.289062 79.890625 33.007812 82.578125 32.046875 86.09375 L 32.175781 86.050781 M 31.785156 86.183594 L 31.695312 86.050781 C 31.695312 83.785156 33.050781 80.980469 35.761719 77.640625 C 38.648438 81.214844 42.683594 83.917969 47.871094 85.746094 L 47.960938 85.703125 L 48.046875 85.789062 L 48.003906 85.789062 L 48.222656 85.878906 L 48.222656 85.964844 L 48.046875 86.050781 L 47.699219 86.050781 C 43.035156 89.304688 40.074219 90.933594 38.824219 90.933594 C 37.511719 90.933594 35.238281 89.347656 32.003906 86.183594 L 31.785156 86.183594 "/>
<path style=" stroke:none;fill-rule:evenodd;fill:rgb(49.803922%,25.098041%,36.470589%);fill-opacity:1;" d="M 69.46875 57.636719 L 69.382812 57.375 C 68.507812 58.710938 67.707031 60.148438 66.976562 61.691406 C 66.21875 62.53125 64.820312 62.953125 62.78125 62.953125 L 60.332031 62.734375 L 60.113281 62.734375 L 60.113281 62.5625 L 59.765625 62.648438 L 59.765625 65.394531 L 59.546875 65.394531 C 57.039062 64.785156 54.894531 64.128906 53.117188 63.433594 L 50.453125 62.300781 L 48.878906 61.339844 L 57.097656 60.949219 C 60.273438 60.28125 62.738281 58.640625 64.484375 56.023438 C 66.527344 52.566406 67.574219 50.386719 67.632812 49.488281 L 68.289062 46.175781 L 68.507812 40.773438 L 67.9375 33.1875 C 67.386719 28.191406 65.898438 25.691406 63.480469 25.691406 C 62.808594 25.691406 62.253906 26.304688 61.820312 27.523438 L 53.207031 34.105469 C 47.640625 38.171875 44.5625 40.828125 43.980469 42.078125 C 43.457031 43.097656 42.523438 44.433594 41.183594 46.089844 C 40.6875 46.84375 40.0625 48.195312 39.304688 50.140625 C 39.011719 50.78125 38.691406 52.101562 38.339844 54.105469 L 37.511719 58.117188 L 37.421875 58.03125 C 36.664062 54.628906 36.242188 52.320312 36.15625 51.101562 L 35.542969 45.523438 C 35.746094 43.808594 37.410156 40.773438 40.527344 36.414062 L 43.195312 34.148438 L 45.292969 31.75 L 48.265625 27.785156 L 48.308594 27.742188 C 49.210938 26.839844 49.664062 25.808594 49.664062 24.648438 L 49.578125 24.472656 L 49.183594 24.472656 C 47.171875 24.910156 45.46875 25.445312 44.070312 26.085938 L 44.898438 25.476562 L 44.8125 25.386719 L 42.625 26.914062 L 42.144531 27.21875 L 40.878906 28.175781 C 38.660156 29.773438 36.300781 31.574219 33.792969 33.582031 L 30.867188 30.3125 L 29.421875 28.265625 C 28.839844 27.480469 28.34375 27.015625 27.9375 26.871094 L 23.828125 24.648438 L 23.609375 24.734375 L 23.609375 24.910156 L 24.917969 28.21875 L 24.832031 28.175781 L 24.65625 28.175781 L 24.65625 28.699219 C 26.320312 31.199219 27.339844 33.796875 27.71875 36.5 C 28.039062 38.128906 28.738281 40.597656 29.816406 43.910156 L 29.816406 44.257812 C 30.371094 45.652344 30.808594 47.746094 31.128906 50.535156 L 31.128906 56.199219 L 31.039062 56.199219 C 29.960938 50.535156 28.855469 46.582031 27.71875 44.34375 C 26.902344 42.542969 25.53125 40.554688 23.609375 38.375 L 19.0625 32.621094 C 18.15625 31.488281 17.167969 30.574219 16.089844 29.875 C 14.078125 28.25 12.050781 27.449219 10.011719 27.480469 L 8.21875 27.609375 L 7.5625 30.050781 L 7.433594 32.796875 C 7.433594 36.019531 7.652344 39.492188 8.089844 43.210938 C 8.410156 45.449219 9.210938 48.90625 10.492188 53.585938 L 10.535156 53.585938 L 10.972656 56.113281 C 11.175781 56.519531 11.964844 57.128906 13.335938 57.941406 C 13.859375 58.496094 14.558594 58.828125 15.433594 58.945312 C 16.453125 59.351562 18.171875 59.554688 20.589844 59.554688 L 22.996094 59.511719 L 21.816406 61.253906 C 20.882812 62.941406 19.9375 64.074219 18.972656 64.652344 C 18.683594 63.871094 18.550781 63.199219 18.582031 62.648438 L 18.582031 62.386719 L 18.492188 62.386719 L 17.3125 62.214844 L 13.246094 62.257812 L 12.941406 61.90625 L 12.503906 61.339844 C 11.921875 60.527344 11.46875 60.121094 11.148438 60.121094 L 10.972656 60.207031 L 10.972656 63.433594 L 12.851562 66.746094 C 13.058594 67.125 14.078125 67.71875 15.914062 68.53125 C 17.429688 69.171875 18.625 69.5625 19.5 69.707031 C 20.140625 70.058594 21.027344 70.261719 22.164062 70.320312 C 21.523438 70.726562 20.984375 71.683594 20.546875 73.195312 C 20.371094 73.6875 19.71875 74.675781 18.582031 76.160156 L 15.257812 73.28125 C 13.101562 71.886719 11.703125 70.84375 11.0625 70.144531 C 9.371094 68.285156 8.394531 66.484375 8.132812 64.742188 L 8.132812 58.378906 L 7.824219 57.289062 L 8.089844 57.246094 L 8.132812 56.589844 C 8.132812 56.066406 7.855469 55.3125 7.300781 54.324219 L 5.769531 51.972656 C 3.90625 49.386719 2.855469 47.816406 2.625 47.265625 C 2.273438 46.394531 1.734375 43.210938 1.003906 37.722656 L 0.917969 37.722656 L 1.179688 34.582031 L 0.65625 29.527344 L 0.917969 23.339844 L 5.246094 23.6875 C 6.035156 23.628906 6.558594 23.46875 6.820312 23.207031 L 18.929688 23.121094 L 20.285156 22.730469 L 20.855469 22.640625 L 20.855469 22.992188 L 20.941406 22.945312 C 22.953125 22.570312 24.277344 22.175781 24.917969 21.769531 L 27.019531 21.726562 L 31.214844 22.074219 L 52.417969 22.074219 C 52.621094 22.277344 53.394531 22.378906 54.734375 22.378906 L 54.734375 22.46875 L 65.839844 23.207031 C 67.296875 23.179688 68.84375 23.601562 70.476562 24.472656 C 73.15625 25.984375 74.746094 27.015625 75.238281 27.566406 C 75.824219 28.207031 76.433594 29.222656 77.078125 30.617188 L 77.777344 32.621094 L 77.511719 32.621094 L 77.382812 31.835938 L 76.902344 31.835938 L 77.644531 37.851562 C 74.265625 37.183594 71.945312 37.835938 70.695312 39.8125 L 70.210938 40.773438 C 69.863281 41.613281 69.671875 42.601562 69.644531 43.734375 L 69.6875 44.34375 L 69.511719 45.390625 L 69.6875 45.390625 C 69.6875 48.152344 69.890625 50.300781 70.300781 51.839844 C 70.648438 53.148438 71.40625 54.570312 72.574219 56.113281 C 73.59375 57.476562 74.101562 58.289062 74.101562 58.550781 L 74.015625 59.335938 L 73.839844 60.078125 L 74.101562 59.992188 L 73.054688 62.257812 L 69.644531 67.878906 C 68.683594 69.300781 64.964844 72.832031 58.496094 78.46875 L 56.527344 75.375 L 52.988281 72.324219 C 54.734375 72.324219 56.324219 71.976562 57.753906 71.277344 C 58.101562 70.988281 59.558594 70.550781 62.125 69.96875 C 62.648438 69.796875 64.238281 68.664062 66.890625 66.570312 C 67.269531 66.25 67.894531 65.046875 68.769531 62.953125 C 69.410156 61.125 69.730469 59.859375 69.730469 59.164062 L 69.644531 57.722656 L 69.46875 57.722656 L 69.46875 57.636719 M 32.175781 86.050781 L 32.046875 86.09375 C 33.007812 82.578125 34.289062 79.890625 35.894531 78.03125 C 36.972656 79.484375 38.371094 80.835938 40.089844 82.085938 C 43.441406 84.4375 45.917969 85.746094 47.523438 86.007812 L 43.980469 88.144531 L 41.3125 89.886719 C 40.554688 90.4375 39.507812 90.714844 38.167969 90.714844 L 32.175781 86.050781 "/>
</g>
</svg>
