<?xml version="1.0" encoding="UTF-8"?>
<svg xmlns="http://www.w3.org/2000/svg" xmlns:xlink="http://www.w3.org/1999/xlink" width="79px" height="91px" viewBox="0 0 79 91" version="1.1">
<g id="surface1">
<path style=" stroke:none;fill-rule:evenodd;fill:rgb(100%,20%,40.000001%);fill-opacity:1;" d="M 52.027344 65.308594 C 52.667969 65.277344 53.277344 65.875 53.863281 67.09375 L 53.816406 67.355469 L 53.863281 67.488281 L 53.554688 67.835938 C 53.554688 68.269531 52.945312 68.792969 51.71875 69.402344 C 50.144531 70.160156 48.25 70.550781 46.035156 70.582031 L 44.332031 70.535156 L 43.152344 70.582031 C 42.597656 70.550781 42.128906 70.40625 41.75 70.144531 C 40.527344 69.824219 39.960938 69.316406 40.046875 68.621094 C 40.046875 66.238281 42.683594 65.046875 47.960938 65.046875 L 51.589844 65.394531 L 52.027344 65.308594 M 49.140625 69.359375 L 49.007812 69.402344 L 49.140625 69.402344 L 49.140625 69.359375 M 21.203125 65.699219 C 22.398438 66.046875 23.140625 66.863281 23.433594 68.140625 C 23.433594 69.332031 22.820312 70.027344 21.597656 70.230469 L 18.449219 70.667969 C 16.175781 70.667969 14.921875 69.796875 14.691406 68.054688 C 14.691406 65.988281 16 64.972656 18.625 65.003906 L 19.019531 65.175781 L 19.367188 65.175781 C 20.15625 65.148438 20.765625 65.320312 21.203125 65.699219 M 15.78125 67.878906 L 15.871094 68.183594 L 15.828125 67.878906 L 15.828125 67.792969 L 15.78125 67.878906 "/>
</g>
</svg>
