<?xml version="1.0" encoding="UTF-8"?>
<svg xmlns="http://www.w3.org/2000/svg" xmlns:xlink="http://www.w3.org/1999/xlink" width="79px" height="91px" viewBox="0 0 79 91" version="1.1">
<g id="surface1">
<path style=" stroke:none;fill-rule:evenodd;fill:rgb(0%,0%,0%);fill-opacity:1;" d="M 21.992188 50.226562 L 22.296875 50.226562 L 22.429688 50.273438 L 23.039062 50.75 C 24.585938 52.03125 28.503906 55.691406 34.800781 61.734375 C 35.996094 62.691406 38.71875 64.550781 42.976562 67.3125 C 46.066406 69.347656 48.324219 71.175781 49.753906 72.804688 L 49.753906 73.238281 L 49.535156 73.28125 L 49.097656 73.324219 L 49.007812 73.324219 C 47.726562 73.324219 41.648438 69.914062 30.777344 63.085938 C 26.902344 60.527344 23.828125 56.519531 21.554688 51.054688 L 21.378906 50.839844 L 21.378906 50.316406 L 21.992188 50.226562 M 22.691406 51.578125 L 22.429688 51.535156 L 22.515625 51.710938 C 24.699219 55.660156 27.628906 59.207031 31.300781 62.34375 C 34.246094 64.785156 39.59375 67.894531 47.347656 71.671875 C 44.898438 69.375 43.195312 67.996094 42.234375 67.53125 C 39.257812 65.988281 36.535156 64.230469 34.058594 62.257812 C 28.226562 57.578125 24.4375 54.019531 22.691406 51.578125 "/>
<path style=" stroke:none;fill-rule:evenodd;fill:rgb(83.529413%,51.372552%,45.882353%);fill-opacity:1;" d="M 22.515625 51.710938 L 22.691406 51.578125 C 24.4375 54.019531 28.226562 57.578125 34.058594 62.257812 C 36.535156 64.230469 39.257812 65.988281 42.234375 67.53125 C 43.195312 67.996094 44.898438 69.375 47.347656 71.671875 C 39.59375 67.894531 34.246094 64.785156 31.300781 62.34375 C 27.628906 59.207031 24.699219 55.660156 22.515625 51.710938 "/>
</g>
</svg>
