<?xml version="1.0" encoding="UTF-8"?>
<svg xmlns="http://www.w3.org/2000/svg" xmlns:xlink="http://www.w3.org/1999/xlink" width="79px" height="91px" viewBox="0 0 79 91" version="1.1">
<g id="surface1">
<path style=" stroke:none;fill-rule:evenodd;fill:rgb(74.901962%,36.470589%,42.352942%);fill-opacity:1;" d="M 61.949219 52.800781 C 59.648438 56.402344 57.941406 58.203125 56.835938 58.203125 L 56.527344 58.160156 C 56.441406 57.519531 55.683594 56.78125 54.253906 55.9375 L 52.199219 54.628906 C 52.199219 54.367188 53.058594 53.960938 54.78125 53.410156 C 56.820312 52.800781 58.875 52.507812 60.945312 52.539062 C 61.671875 52.507812 62.007812 52.597656 61.949219 52.800781 M 16.917969 54.195312 C 16.335938 54.484375 15.242188 55.953125 13.640625 58.597656 C 12.5625 58.597656 10.988281 56.824219 8.917969 53.277344 C 8.917969 52.902344 10.011719 52.726562 12.199219 52.757812 L 16.65625 53.105469 C 16.976562 53.25 17.066406 53.613281 16.917969 54.195312 "/>
</g>
</svg>
