<?xml version="1.0" encoding="UTF-8"?>
<svg xmlns="http://www.w3.org/2000/svg" xmlns:xlink="http://www.w3.org/1999/xlink" width="79px" height="91px" viewBox="0 0 79 91" version="1.1">
<g id="surface1">
<path style=" stroke:none;fill-rule:evenodd;fill:rgb(100%,60.000002%,80.000001%);fill-opacity:1;" d="M 50.625 57.898438 C 51.035156 57.898438 51.222656 58.1875 51.195312 58.769531 C 51.457031 58.769531 51.589844 58.945312 51.589844 59.292969 C 51.9375 58.945312 52.199219 58.769531 52.375 58.769531 C 52.636719 58.769531 52.769531 59.015625 52.769531 59.511719 L 53.816406 58.550781 C 54.082031 58.550781 54.210938 58.785156 54.210938 59.25 L 54.953125 58.769531 C 55.683594 58.769531 56.046875 58.988281 56.046875 59.425781 C 56.046875 59.742188 55.625 59.902344 54.78125 59.902344 C 54.460938 60.511719 54.152344 60.820312 53.863281 60.820312 C 53.542969 60.820312 53.378906 60.730469 53.378906 60.558594 L 53.378906 60.121094 C 53.324219 60.644531 53.046875 60.90625 52.550781 60.90625 C 52.230469 60.90625 52.027344 60.761719 51.9375 60.46875 C 51.53125 60.847656 51.238281 61.035156 51.0625 61.035156 C 50.859375 61.035156 50.683594 60.863281 50.539062 60.511719 L 49.796875 61.125 L 49.316406 60.90625 L 48.222656 61.996094 C 47.988281 61.996094 47.828125 61.761719 47.742188 61.296875 L 47.699219 61.253906 C 47.40625 61.835938 47.101562 62.125 46.777344 62.125 L 46.210938 61.90625 L 46.210938 61.648438 C 46.210938 61.296875 46.398438 60.789062 46.777344 60.121094 L 46.734375 60.078125 L 44.199219 61.90625 L 43.804688 61.386719 L 44.070312 60.382812 L 43.457031 60.820312 C 43.136719 60.820312 42.976562 60.457031 42.976562 59.730469 C 42.714844 60.367188 42.40625 60.6875 42.058594 60.6875 C 41.910156 60.6875 41.75 60.511719 41.578125 60.164062 C 41.285156 60.511719 40.847656 60.6875 40.265625 60.6875 C 39.59375 60.6875 39.257812 60.558594 39.257812 60.296875 C 39.257812 59.683594 39.566406 59.378906 40.175781 59.378906 C 40.351562 59.378906 40.527344 59.480469 40.703125 59.683594 L 42.234375 58.550781 L 42.582031 58.769531 L 43.5 58.074219 C 43.851562 58.074219 44.023438 58.464844 44.023438 59.25 L 44.023438 59.292969 C 44.230469 59.292969 44.753906 58.960938 45.597656 58.289062 C 45.949219 58.289062 46.125 58.464844 46.125 58.8125 L 45.6875 59.640625 L 45.597656 59.730469 L 46.734375 58.683594 C 47.261719 58.132812 47.683594 57.855469 48.003906 57.855469 C 48.265625 57.855469 48.398438 58.117188 48.398438 58.640625 L 48.398438 58.683594 C 48.746094 58.277344 48.996094 58.074219 49.140625 58.074219 C 49.546875 58.074219 49.707031 58.234375 49.621094 58.550781 L 49.445312 59.074219 L 49.402344 59.164062 L 49.839844 58.464844 C 50.074219 58.085938 50.335938 57.898438 50.625 57.898438 M 23.214844 58.945312 L 23.609375 59.117188 L 24.089844 58.945312 C 24.410156 58.945312 24.570312 59.074219 24.570312 59.335938 C 24.570312 60.003906 24.074219 60.339844 23.082031 60.339844 L 22.558594 60.601562 C 22.179688 60.601562 21.960938 60.425781 21.902344 60.078125 L 20.371094 61.90625 C 19.878906 61.90625 19.6875 61.734375 19.804688 61.386719 L 18.582031 62.429688 C 18.054688 62.429688 17.835938 62.214844 17.925781 61.777344 C 17.429688 62.007812 17.136719 62.226562 17.050781 62.429688 C 16.671875 62.429688 16.480469 62.300781 16.480469 62.039062 L 17.269531 60.820312 L 16.613281 60.863281 C 16.410156 60.71875 16.320312 60.527344 16.351562 60.296875 L 15.214844 61.253906 L 14.734375 60.644531 L 13.554688 61.339844 C 12.882812 61.339844 12.707031 61.050781 13.027344 60.46875 L 13.027344 60.425781 C 12.269531 60.601562 11.90625 60.90625 11.933594 61.339844 C 11.613281 61.339844 11.453125 61.195312 11.453125 60.90625 L 12.371094 59.816406 C 13.011719 59.234375 13.507812 58.945312 13.859375 58.945312 L 14.296875 59.425781 L 14.121094 59.859375 L 14.035156 59.945312 C 14.878906 59.308594 15.460938 58.988281 15.78125 58.988281 C 16.101562 58.988281 16.261719 59.089844 16.261719 59.292969 C 16.964844 58.652344 17.386719 58.335938 17.53125 58.335938 C 17.96875 58.335938 18.054688 58.710938 17.792969 59.46875 L 17.792969 59.511719 C 18.40625 58.988281 18.871094 58.726562 19.191406 58.726562 C 19.71875 58.726562 19.980469 58.902344 19.980469 59.25 L 19.804688 59.816406 C 20.589844 58.652344 21.144531 58.074219 21.464844 58.074219 C 21.699219 58.074219 21.816406 58.335938 21.816406 58.859375 L 22.296875 58.726562 L 22.777344 59.117188 L 23.214844 58.945312 "/>
</g>
</svg>
