<?xml version="1.0" encoding="UTF-8"?>
<svg xmlns="http://www.w3.org/2000/svg" xmlns:xlink="http://www.w3.org/1999/xlink" width="79px" height="91px" viewBox="0 0 79 91" version="1.1">
<g id="surface1">
<path style=" stroke:none;fill-rule:evenodd;fill:rgb(0%,0%,0%);fill-opacity:1;" d="M 61.164062 3.03125 C 61.164062 3.292969 58.335938 5.996094 52.679688 11.136719 C 52.679688 12.300781 53.132812 14.160156 54.035156 16.714844 C 54.941406 19.273438 55.390625 20.972656 55.390625 21.8125 C 55.390625 22.164062 53.964844 23.367188 51.105469 25.429688 L 46.386719 28.785156 C 42.1875 33.175781 39.84375 35.367188 39.347656 35.367188 C 38.910156 35.367188 38.691406 35.164062 38.691406 34.757812 C 38.691406 34.261719 40.878906 32.039062 45.25 28.089844 L 45.511719 27.871094 C 44.78125 27.667969 43.953125 27.261719 43.019531 26.652344 C 41.765625 25.808594 41.140625 25.285156 41.140625 25.082031 L 41.3125 24.210938 L 38.910156 24.386719 C 37.597656 24.386719 36.941406 24.183594 36.941406 23.773438 C 36.941406 23.078125 38.414062 22.730469 41.359375 22.730469 L 41.578125 22.773438 C 42.015625 20.769531 42.378906 19.765625 42.667969 19.765625 C 43.164062 19.765625 43.382812 20.101562 43.324219 20.769531 L 42.757812 24.953125 C 42.757812 25.183594 43.558594 25.589844 45.160156 26.171875 L 46.867188 26.871094 L 50.101562 24.515625 C 52.550781 22.714844 53.773438 21.683594 53.773438 21.421875 C 53.773438 20.519531 52.945312 16.992188 51.28125 10.832031 C 51.28125 10.222656 52.972656 8.738281 56.355469 6.386719 L 58.144531 4.292969 C 59.253906 2.988281 59.980469 2.332031 60.332031 2.332031 C 60.886719 2.332031 61.164062 2.566406 61.164062 3.03125 M 35.804688 43.210938 L 44.988281 39.027344 L 48.527344 36.804688 C 51.003906 35.441406 53.046875 34.757812 54.648438 34.757812 C 55.929688 34.757812 56.644531 36.921875 56.789062 41.25 C 56.878906 42.269531 56.820312 42.949219 56.617188 43.300781 L 63.4375 47.265625 L 64.09375 44.390625 L 67.152344 36.542969 L 67.414062 34.539062 C 67.675781 33.8125 68.753906 33.246094 70.648438 32.839844 C 71.496094 32.664062 72.863281 32.15625 74.757812 31.316406 C 76.421875 30.589844 77.527344 30.226562 78.082031 30.226562 C 78.695312 30.226562 79 30.457031 79 30.921875 C 74.65625 32.867188 72.121094 33.929688 71.394531 34.105469 C 69.613281 34.570312 68.59375 35.105469 68.332031 35.714844 C 68.363281 36.5 68.257812 37.199219 68.027344 37.808594 L 65.359375 45.652344 L 62.910156 55.152344 L 61.46875 60.339844 L 61.511719 60.6875 C 61.511719 60.921875 61.351562 61.09375 61.03125 61.210938 L 60.855469 61.339844 L 60.683594 61.339844 L 59.632812 61.429688 L 50.40625 61.953125 L 45.859375 62.605469 L 46.078125 64.828125 L 45.949219 69.1875 C 51.371094 68.984375 54.664062 69.417969 55.828125 70.492188 C 56.238281 70.871094 56.441406 71.378906 56.441406 72.019531 L 56.398438 73.542969 C 56.515625 74.589844 57.167969 76.507812 58.363281 79.296875 C 58.363281 79.761719 58.144531 79.992188 57.707031 79.992188 C 56.921875 79.992188 56.222656 78.90625 55.609375 76.726562 C 55.054688 74.808594 54.78125 72.949219 54.78125 71.148438 L 48.878906 70.710938 L 45.859375 70.753906 L 45.425781 70.667969 L 45.074219 70.667969 L 45.074219 72.238281 L 46.296875 78.511719 C 46.296875 79.152344 46.078125 79.472656 45.640625 79.472656 C 45.207031 79.472656 44.578125 76.738281 43.761719 71.277344 L 43.761719 70.101562 C 43.878906 69.695312 44.199219 69.449219 44.722656 69.359375 L 44.636719 66.179688 C 44.636719 64.550781 44.710938 63.40625 44.855469 62.734375 L 40.394531 63.085938 L 39.828125 63.042969 L 39.523438 63.085938 C 39.257812 63.085938 38.675781 62.546875 37.773438 61.472656 C 36.871094 60.367188 35.835938 59.816406 34.667969 59.816406 C 28.082031 59.816406 24.789062 61.355469 24.789062 64.4375 L 24.746094 65.917969 C 24.335938 66.441406 23.082031 66.746094 20.984375 66.832031 L 16.964844 67.398438 L 18.144531 68.574219 L 20.199219 70.582031 C 21.074219 71.046875 21.625 71.511719 21.859375 71.976562 L 22.121094 72.804688 L 29.117188 73.28125 C 29.640625 73.28125 29.890625 73.5 29.859375 73.9375 C 29.859375 74.605469 28.476562 74.9375 25.707031 74.9375 C 23.433594 74.9375 21.714844 74.402344 20.546875 73.324219 L 18.886719 71.191406 L 15.519531 67.703125 L 11.453125 68.664062 C 10.726562 68.664062 10.417969 68.460938 10.535156 68.054688 C 10.535156 67.5 11.933594 66.917969 14.734375 66.308594 L 20.679688 65.394531 C 20.007812 64.550781 19.0625 62.765625 17.835938 60.035156 C 16.117188 57.128906 15.257812 55.183594 15.257812 54.195312 L 22.644531 48.222656 L 14.515625 43.125 L 9.617188 46.4375 C 7.257812 48.007812 5.742188 48.789062 5.070312 48.789062 C 4.519531 48.789062 4.242188 48.585938 4.242188 48.179688 C 4.242188 47.890625 7.753906 45.738281 14.777344 41.730469 C 15.503906 41.730469 17.210938 42.71875 19.890625 44.695312 L 23.519531 47.527344 L 27.980469 43.996094 C 28.417969 43.996094 28.636719 44.273438 28.636719 44.824219 L 16.570312 54.324219 L 21.992188 65.21875 L 21.992188 65.265625 L 23.433594 65.175781 C 23.578125 63.695312 23.871094 62.300781 24.308594 60.992188 C 24.890625 59.308594 28.707031 58.464844 35.761719 58.464844 C 36.199219 58.464844 37.058594 59.0625 38.339844 60.253906 L 40.046875 62.082031 L 48.441406 60.90625 L 60.199219 60.035156 L 63.128906 48.441406 C 62.023438 48.265625 59.980469 47.207031 57.007812 45.261719 C 54.007812 43.285156 52.507812 42.210938 52.507812 42.035156 C 52.507812 41.597656 52.753906 41.382812 53.25 41.382812 L 55.566406 42.6875 C 55.566406 40.539062 55.21875 38.359375 54.515625 36.152344 C 52.535156 36.558594 50.714844 37.269531 49.050781 38.289062 C 46.691406 39.738281 45.378906 40.523438 45.117188 40.640625 C 39.582031 43.515625 36.433594 44.957031 35.675781 44.957031 L 27.675781 35.585938 C 27.675781 35.148438 27.894531 34.933594 28.328125 34.933594 C 28.882812 34.933594 30.238281 36.3125 32.394531 39.070312 C 34.523438 41.832031 35.660156 43.210938 35.804688 43.210938 M 37.203125 86.617188 L 36.855469 87.882812 C 36.59375 88.550781 36.375 88.882812 36.199219 88.882812 L 35.585938 88.667969 L 35.542969 87.792969 L 35.894531 86.617188 C 35.894531 86.414062 34.480469 85.152344 31.652344 82.828125 L 28.59375 84.003906 C 28.007812 84.003906 27.761719 83.800781 27.847656 83.394531 C 27.847656 83.101562 28.285156 82.679688 29.160156 82.128906 C 30.0625 81.578125 30.835938 81.300781 31.476562 81.300781 C 31.972656 81.300781 33.183594 82.1875 35.105469 83.960938 L 36.855469 85.484375 C 37.089844 85.746094 37.203125 86.125 37.203125 86.617188 M 12.589844 5.820312 C 12.738281 5.820312 13.1875 6.574219 13.945312 8.085938 C 14.792969 9.769531 15.316406 11.09375 15.519531 12.050781 L 18.972656 12.050781 C 22.441406 11.007812 25.328125 10.441406 27.628906 10.351562 L 24.175781 0.722656 C 24.175781 0.285156 24.425781 0.0664062 24.917969 0.0664062 C 25.589844 0.0664062 27.089844 3.625 29.421875 10.746094 L 29.511719 11.050781 L 30.910156 15.453125 C 30.910156 15.769531 30.035156 16.960938 28.285156 19.023438 L 23.78125 24.472656 L 20.242188 30.136719 C 18.988281 32.113281 18.011719 33.101562 17.3125 33.101562 C 16.757812 33.101562 16.480469 32.898438 16.480469 32.492188 L 18.273438 29.570312 L 16.917969 29.136719 C 16.480469 28.785156 15.839844 28.613281 14.996094 28.613281 L 11.714844 33.144531 C 9.5 36.136719 7.695312 37.632812 6.296875 37.632812 C 5.800781 37.632812 5.582031 37.386719 5.640625 36.894531 C 7.855469 35.003906 9.558594 33.347656 10.753906 31.925781 L 12.460938 29.351562 C 13.449219 27.957031 14.222656 27.261719 14.777344 27.261719 C 17.136719 27.261719 18.683594 27.507812 19.410156 28.003906 L 22.558594 23.863281 L 29.378906 15.234375 L 28.066406 11.574219 L 22.996094 12.53125 L 17.050781 13.402344 C 15.503906 13.402344 14.601562 13.242188 14.339844 12.921875 L 13.160156 10.003906 C 12.34375 7.96875 11.933594 6.792969 11.933594 6.472656 C 11.933594 6.039062 12.152344 5.820312 12.589844 5.820312 "/>
</g>
</svg>
