<?xml version="1.0" encoding="UTF-8"?>
<svg xmlns="http://www.w3.org/2000/svg" xmlns:xlink="http://www.w3.org/1999/xlink" width="9px" height="13px" viewBox="0 0 9 13" version="1.1">
<g id="surface1">
<path style=" stroke:none;fill-rule:evenodd;fill:rgb(0%,0%,0%);fill-opacity:1;" d="M 9 10.054688 C 9 10.699219 8.769531 11.019531 8.308594 11.019531 C 7.847656 11.019531 7.617188 10.796875 7.617188 10.351562 C 7.617188 9.90625 7.769531 9.609375 8.078125 9.464844 L 8.769531 9.464844 L 9 10.054688 M 3.308594 10.648438 C 3.308594 10.007812 3.539062 9.683594 4 9.683594 C 4.460938 9.683594 4.691406 9.90625 4.691406 10.351562 L 3.847656 11.316406 L 3.308594 10.648438 "/>
<path style=" stroke:none;fill-rule:evenodd;fill:rgb(40.000001%,0%,0%);fill-opacity:0.329412;" d="M 5.769531 7.757812 C 5.460938 8.15625 5.308594 8.574219 5.308594 9.019531 L 5.539062 9.980469 L 5.078125 11.167969 C 4.820312 11.464844 4.410156 11.660156 3.847656 11.757812 L 2.847656 10.796875 L 2.691406 10.128906 L 2.769531 9.535156 L 3.847656 6.722656 L 4 6.425781 L 5.152344 4.5 L 6.152344 1.464844 L 6.921875 0.128906 L 6.921875 1.609375 L 6.847656 2.128906 L 6.308594 5.980469 L 5.769531 7.757812 M 3.308594 10.648438 L 3.847656 11.316406 L 4.691406 10.351562 C 4.691406 9.90625 4.460938 9.683594 4 9.683594 C 3.539062 9.683594 3.308594 10.007812 3.308594 10.648438 "/>
</g>
</svg>
