<?xml version="1.0" encoding="UTF-8"?>
<svg xmlns="http://www.w3.org/2000/svg" xmlns:xlink="http://www.w3.org/1999/xlink" width="9px" height="13px" viewBox="0 0 9 13" version="1.1">
<g id="surface1">
<path style=" stroke:none;fill-rule:evenodd;fill:rgb(0%,0%,0%);fill-opacity:1;" d="M 3.691406 5.90625 C 3.691406 6.597656 3.257812 7.316406 2.382812 8.054688 L 1.078125 9.683594 C 1.078125 10.179688 1.949219 11.117188 3.691406 12.5 L 3.691406 12.796875 L 3.308594 12.871094 C 1.820312 12.871094 0.898438 12.15625 0.539062 10.722656 L 0.539062 11.167969 L 0.382812 10.128906 L 0.539062 9.242188 L 0.539062 8.945312 C 0.742188 8.253906 1.257812 7.710938 2.078125 7.316406 C 2.949219 6.820312 3.359375 6.007812 3.308594 4.871094 L 3.691406 5.90625 M 7.539062 10.648438 C 7.179688 11.636719 6.691406 12.15625 6.078125 12.203125 L 5.847656 12.128906 L 5.691406 11.757812 L 6.769531 10.871094 L 7.152344 9.980469 L 7.539062 10.648438 "/>
</g>
</svg>
