<?xml version="1.0" encoding="UTF-8"?>
<svg xmlns="http://www.w3.org/2000/svg" xmlns:xlink="http://www.w3.org/1999/xlink" width="203px" height="249px" viewBox="0 0 203 249" version="1.1">
<g id="surface1">
<path style=" stroke:none;fill-rule:evenodd;fill:rgb(0%,0%,0%);fill-opacity:1;" d="M 163.21875 78.507812 L 163.351562 78.070312 L 164.535156 78.027344 L 164.664062 78.027344 L 166.199219 78.246094 L 167.292969 78.464844 L 178.902344 78.597656 L 192.261719 77.898438 C 192.464844 77.78125 192.523438 77.605469 192.4375 77.371094 C 192.378906 77.226562 192.613281 77.152344 193.136719 77.152344 C 193.3125 77.152344 193.457031 77.226562 193.574219 77.371094 C 194.742188 77.371094 195.296875 79.457031 195.238281 83.625 C 195.152344 89.167969 195.253906 92.519531 195.546875 93.6875 C 196.65625 97.796875 197.589844 100.992188 198.351562 103.265625 C 198.582031 104.167969 198.699219 106.457031 198.699219 110.132812 C 199.226562 112.289062 199.300781 113.90625 198.917969 114.988281 C 198.917969 115.890625 197.984375 121.210938 196.117188 130.953125 C 195.941406 132.671875 195.851562 135.296875 195.851562 138.824219 L 195.414062 142.761719 C 195.035156 144.65625 190.042969 145.605469 180.433594 145.605469 L 172.8125 145.167969 L 172.375 145.035156 C 171.351562 145.003906 170.332031 144.40625 169.308594 143.242188 C 168.460938 142.25 167.996094 141.433594 167.90625 140.792969 L 167.03125 135.980469 C 166.710938 135.105469 166.300781 133.34375 165.804688 130.6875 L 165.058594 126.488281 L 165.148438 126.183594 L 164.972656 125.835938 L 164.664062 124.785156 C 164.460938 123.734375 164.300781 122.144531 164.183594 120.015625 L 164.09375 115.335938 C 164.417969 111.402344 164.5625 108.558594 164.535156 106.808594 L 164.664062 105.101562 L 164.972656 98.410156 L 164.664062 96.441406 C 164.375 94.429688 164.257812 92.855469 164.316406 91.71875 C 163.875 88.832031 163.65625 86.617188 163.65625 85.070312 C 163.65625 84.777344 163.804688 84.574219 164.09375 84.457031 L 163.875 81.222656 C 163.875 80.113281 163.992188 79.3125 164.226562 78.816406 L 163.21875 78.507812 M 184.597656 79.734375 L 179.207031 79.777344 L 166.417969 79.472656 L 165.761719 79.253906 L 165.410156 79.164062 L 164.972656 81.222656 L 165.585938 88.65625 L 165.542969 88.65625 L 165.101562 88.699219 L 165.101562 88.746094 L 165.453125 91.585938 L 166.066406 98.496094 C 166.066406 102.199219 165.773438 107.828125 165.191406 115.378906 C 165.191406 119.871094 165.761719 123.867188 166.898438 127.363281 L 166.460938 127.539062 L 166.898438 130.46875 C 167.101562 132.746094 167.453125 134.363281 167.949219 135.324219 C 168.476562 136.34375 168.753906 137.980469 168.78125 140.222656 C 169.046875 141.652344 169.90625 142.789062 171.367188 143.636719 L 171.5 143.066406 C 171.964844 143.589844 172.5625 143.957031 173.292969 144.160156 L 180.128906 144.421875 L 182.316406 144.421875 L 182.710938 144.816406 L 183.019531 144.378906 L 183.71875 144.378906 L 183.808594 144.597656 L 184.246094 144.378906 L 184.246094 144.335938 C 190.933594 144.074219 194.378906 143.050781 194.582031 141.273438 L 194.757812 137.207031 C 194.933594 136.476562 195.007812 135.136719 194.976562 133.183594 C 194.949219 131.34375 195.09375 129.945312 195.414062 128.984375 C 195.503906 127.613281 195.941406 124.886719 196.730469 120.804688 L 197.34375 116.429688 L 197.386719 116.167969 L 197.167969 115.597656 L 197.605469 109.957031 C 197.605469 106.777344 197.414062 104.460938 197.035156 103.003906 L 194.320312 93.90625 C 194.027344 92.855469 193.910156 91.515625 193.96875 89.882812 L 194.101562 85.8125 C 194.101562 84.472656 193.925781 83.027344 193.574219 81.484375 L 193.09375 78.945312 L 193.09375 78.816406 L 192.480469 79.035156 L 185.210938 79.691406 L 184.640625 79.734375 L 184.597656 79.734375 M 180.960938 114.242188 L 178.332031 113.9375 C 177.921875 113.90625 177.703125 113.777344 177.675781 113.542969 L 178.199219 113.238281 L 178.246094 113.0625 L 178.902344 113.019531 L 183.5 113.585938 L 191.910156 113.761719 C 192.261719 113.792969 192.335938 114.097656 192.128906 114.679688 L 191.605469 115.207031 L 183.851562 114.679688 L 182.976562 114.550781 L 181.398438 114.199219 L 180.960938 114.242188 M 174.039062 109.5625 L 167.511719 110.832031 C 167.132812 110.746094 166.941406 110.539062 166.941406 110.21875 C 166.941406 109.871094 168.460938 109.375 171.5 108.734375 L 171.71875 108.6875 L 171.980469 108.949219 L 172.332031 108.558594 L 176.183594 107.8125 C 182.316406 106.707031 187.75 105.960938 192.480469 105.582031 L 193.136719 105.714844 L 193.226562 106.066406 C 193.226562 106.558594 190.875 107.113281 186.171875 107.726562 L 177.105469 109.039062 L 175.046875 108.949219 C 174.375 108.949219 174.039062 109.113281 174.039062 109.433594 L 174.039062 109.5625 M 161.949219 111.3125 L 161.90625 110.613281 C 161.90625 110.03125 161.949219 109.476562 162.035156 108.949219 L 161.949219 111.3125 M 184.859375 188.773438 L 182.054688 188.773438 C 177.5 189.066406 174.183594 189.035156 172.113281 188.683594 L 171.367188 190.523438 C 170.609375 192.476562 170.15625 194.035156 170.007812 195.203125 L 169.441406 200.714844 L 169.441406 200.757812 L 169.570312 200.714844 C 169.980469 200.714844 171.175781 201.53125 173.164062 203.164062 L 172.636719 203.6875 C 171.585938 203.6875 170.621094 203.222656 169.746094 202.289062 L 169.351562 201.761719 L 169.308594 201.980469 L 169.660156 202.289062 C 168.722656 203.949219 167.367188 205.730469 165.585938 207.625 C 164.679688 208.558594 164.226562 210.015625 164.226562 211.996094 L 164.578125 217.378906 L 164.535156 218.953125 L 164.226562 219.082031 L 164.578125 223.457031 C 164.578125 225.933594 163.585938 228.429688 161.597656 230.9375 C 159.613281 233.472656 158.621094 234.945312 158.621094 235.355469 C 158.621094 236.140625 159.042969 236.722656 159.890625 237.101562 L 162.957031 237.539062 C 164.5625 237.539062 165.820312 236.738281 166.722656 235.136719 L 166.679688 234.917969 C 166.679688 234.539062 166.824219 234.332031 167.117188 234.304688 L 168.34375 229.929688 C 168.695312 228.96875 169.730469 227.042969 171.453125 224.15625 L 171.410156 223.894531 L 171.5 223.542969 L 171.804688 223.5 L 172.15625 222.933594 L 172.113281 222.84375 L 172.15625 222.320312 L 172.550781 222.230469 L 172.59375 222.230469 C 171.601562 220.597656 170.914062 219.289062 170.535156 218.296875 C 170.710938 218.121094 170.855469 218.035156 170.972656 218.035156 L 171.5 218.253906 L 172.023438 218.734375 C 172.578125 219.460938 173.191406 220.746094 173.863281 222.582031 C 175.46875 223.515625 176.230469 226.460938 176.140625 231.417969 C 176.140625 232.699219 175.90625 234.128906 175.441406 235.703125 C 174.738281 238.035156 173.734375 239.261719 172.417969 239.378906 L 172.636719 239.859375 C 172.636719 240.003906 172.492188 240.078125 172.199219 240.078125 C 171.878906 240.078125 171.222656 239.496094 170.226562 238.328125 L 169.660156 237.847656 C 168.753906 237.058594 168.167969 236.402344 167.90625 235.878906 L 167.820312 235.878906 L 167.425781 235.835938 C 166.460938 237.613281 165.015625 238.503906 163.089844 238.503906 L 161.730469 238.460938 L 162.257812 239.289062 L 163.175781 240.953125 L 165.847656 243.882812 L 165.628906 243.96875 L 165.671875 244.234375 L 166.460938 244.453125 L 166.503906 244.496094 C 167.847656 245.574219 169.890625 246.464844 172.636719 247.164062 C 174.914062 247.746094 176.683594 248.039062 177.9375 248.039062 C 178.464844 248.039062 179.777344 245.429688 181.878906 240.207031 C 183.953125 234.988281 185.75 232.378906 187.269531 232.378906 C 187.441406 232.378906 187.574219 232.453125 187.660156 232.597656 C 187.3125 232.6875 186.875 233.457031 186.347656 234.917969 L 185.953125 235.441406 C 184.523438 237.394531 183.371094 239.289062 182.492188 241.128906 L 180.523438 245.761719 L 179.515625 247.6875 C 181.238281 247.453125 182.582031 247.0625 183.542969 246.507812 L 183.851562 246.550781 L 184.332031 246.417969 L 184.375 245.851562 L 186.347656 244.320312 C 187.660156 243.503906 188.640625 242.105469 189.28125 240.121094 L 191.910156 231.59375 C 192.40625 229.640625 192.890625 226.765625 193.355469 222.976562 L 194.144531 217.246094 L 193.75 214.402344 L 192.566406 206.878906 L 191.824219 207.363281 C 191.53125 207.273438 191.386719 207.128906 191.386719 206.925781 L 189.546875 207.011719 L 188.273438 206.792969 L 188.230469 206.53125 C 188.230469 206.179688 189.488281 205.933594 192 205.785156 L 192.566406 205.875 C 195.285156 203.453125 196.640625 201.691406 196.640625 200.582031 L 195.765625 194.195312 L 195.371094 192.929688 C 195.078125 191.847656 194.394531 191.089844 193.3125 190.652344 C 190.65625 189.574219 187.953125 188.949219 185.210938 188.773438 L 184.988281 188.640625 L 184.859375 188.773438 M 172.460938 187.636719 L 172.417969 187.898438 L 172.375 187.941406 L 172.550781 187.941406 C 183.558594 187.941406 190.726562 188.683594 194.058594 190.171875 C 195.253906 190.699219 196 191.351562 196.292969 192.140625 C 196.410156 192.433594 196.464844 193.042969 196.464844 193.976562 L 196.421875 194.152344 L 196.992188 196.734375 C 197.34375 198.542969 197.519531 199.824219 197.519531 200.582031 C 197.519531 202.449219 196.101562 204.386719 193.269531 206.398438 C 193.648438 207.1875 194.117188 209.855469 194.671875 214.402344 L 194.757812 214.839844 C 194.960938 215.21875 195.066406 215.992188 195.066406 217.160156 L 195.066406 217.464844 L 194.800781 218.691406 C 194.570312 220.117188 194.453125 221.472656 194.453125 222.757812 L 194.453125 222.84375 L 194.40625 223.371094 L 194.539062 223.152344 L 194.625 223.808594 L 194.714844 223.9375 C 194.511719 223.851562 194.394531 223.703125 194.363281 223.5 C 193.898438 226.882812 193.285156 230.019531 192.523438 232.90625 C 189.835938 243.167969 186.011719 248.300781 181.046875 248.300781 L 179.207031 248.082031 C 178.742188 248.695312 178.332031 249 177.980469 249 C 176.667969 249 174.679688 248.605469 172.023438 247.820312 C 168.957031 246.914062 166.824219 245.9375 165.628906 244.886719 C 163.964844 243.429688 162.328125 241.492188 160.722656 239.070312 L 160.722656 238.285156 C 159.613281 238.050781 158.796875 237.628906 158.269531 237.015625 C 157.917969 236.578125 157.742188 236.023438 157.742188 235.355469 C 157.742188 234.539062 158.519531 233.007812 160.066406 230.761719 L 162.78125 226.957031 C 163.425781 225.878906 163.746094 224.464844 163.746094 222.714844 L 163.527344 218.601562 L 163.527344 218.121094 C 163.292969 217.507812 163.175781 216.722656 163.175781 215.757812 L 163.351562 211.910156 C 163.351562 209.34375 163.921875 207.59375 165.058594 206.660156 L 166.898438 204.167969 C 167.601562 203.207031 168.167969 202.566406 168.605469 202.246094 L 168.433594 200.320312 C 168.433594 199.300781 168.78125 197.054688 169.484375 193.585938 C 170.359375 189.355469 171.207031 187.242188 172.023438 187.242188 C 172.316406 187.242188 172.460938 187.375 172.460938 187.636719 M 43.417969 35.691406 C 45.871094 38.519531 47.386719 40.5 47.972656 41.636719 L 48.453125 41.289062 C 48.746094 41.289062 48.964844 41.433594 49.109375 41.726562 L 48.234375 42.558594 L 48.148438 43.257812 C 48.207031 43.402344 48.058594 43.476562 47.707031 43.476562 L 47.488281 43.167969 L 41.925781 47.28125 L 37.941406 49.949219 L 37.152344 50.429688 L 36.011719 51.042969 L 36.40625 51.347656 C 36.261719 51.609375 36.1875 51.945312 36.1875 52.355469 C 36.160156 52.296875 36.027344 52.207031 35.792969 52.09375 L 36.800781 53.886719 L 37.195312 54.542969 L 37.285156 54.496094 L 45.695312 66 L 45.605469 66.570312 L 45.695312 66.65625 L 45.605469 66.65625 L 45.5625 66.699219 C 44.277344 67.835938 40.714844 70.230469 34.875 73.875 C 27.164062 78.832031 22.199219 81.308594 19.980469 81.308594 C 17.558594 81.308594 15.570312 80.214844 14.023438 78.027344 L 12.535156 75.097656 C 12.066406 74.574219 10.578125 72.269531 8.066406 68.1875 C 7.394531 67.050781 6.269531 64.6875 4.695312 61.101562 C 1.890625 54.714844 0.488281 50.066406 0.488281 47.148438 C 0.488281 45.777344 0.96875 44.554688 1.933594 43.476562 C 3.480469 41.988281 4.867188 40.457031 6.09375 38.882812 C 9.277344 34.539062 11.367188 31.898438 12.359375 30.964844 L 12.316406 30.835938 C 12.316406 30.515625 13.425781 29.40625 15.644531 27.511719 L 19.542969 24.144531 L 22.476562 21.039062 C 24.257812 19.230469 25.324219 18.328125 25.675781 18.328125 C 27.164062 18.328125 29.441406 19.960938 32.507812 23.226562 L 38.378906 30.136719 L 43.417969 35.691406 M 34.917969 50.253906 L 46.832031 42.382812 L 38.90625 32.496094 L 38.90625 32.148438 C 38.90625 31.855469 38.730469 31.652344 38.378906 31.535156 L 38.203125 31.710938 L 38.027344 31.492188 C 31.3125 23.472656 27.265625 19.464844 25.894531 19.464844 C 25.515625 19.464844 24.625 20.28125 23.222656 21.914062 L 20.023438 25.585938 C 19.089844 26.550781 17.585938 27.597656 15.511719 28.734375 L 13.628906 31.097656 C 13.542969 31.652344 11.542969 34.230469 7.628906 38.839844 C 3.597656 43.535156 1.582031 46.332031 1.582031 47.238281 C 1.582031 50.183594 3.015625 54.730469 5.875 60.882812 C 6.578125 62.398438 8.066406 65.109375 10.34375 69.019531 C 12.066406 71.964844 13.015625 73.742188 13.191406 74.355469 L 15.339844 77.109375 C 16.738281 79.121094 18.332031 80.128906 20.113281 80.128906 C 25.222656 77.445312 30.144531 74.894531 34.875 72.472656 L 35.269531 72.210938 L 35.3125 72.210938 C 35.664062 72.210938 35.808594 72.152344 35.75 72.035156 L 35.792969 71.863281 L 40.132812 68.84375 C 42.144531 67.445312 43.605469 66.496094 44.511719 66 L 40.261719 60.96875 L 38.117188 57.691406 L 37.679688 56.945312 L 34.085938 51.917969 L 34.085938 51.085938 L 32.816406 50.386719 C 32.230469 50.035156 31.691406 49.859375 31.195312 49.859375 C 26.203125 49.804688 23.703125 49.539062 23.703125 49.074219 L 23.75 48.417969 L 24.273438 48.285156 C 28.097656 48.285156 31.050781 48.664062 33.121094 49.425781 L 30.539062 47.585938 C 28.320312 45.867188 26.917969 44.46875 26.332031 43.386719 C 26.480469 43.15625 26.667969 43.039062 26.902344 43.039062 C 27.253906 43.039062 28.523438 43.957031 30.714844 45.792969 C 33.136719 47.835938 34.671875 49.03125 35.3125 49.378906 L 34.65625 50.035156 L 34.523438 50.035156 L 34.917969 50.253906 M 17.398438 47.0625 L 17.441406 47.0625 L 18.011719 46.84375 L 18.097656 46.753906 L 23.484375 46.320312 C 23.777344 46.320312 23.996094 46.464844 24.140625 46.753906 C 23.761719 47.28125 23.296875 47.542969 22.742188 47.542969 L 19.0625 47.980469 L 18.886719 47.9375 L 18.886719 47.980469 L 17.789062 48.066406 L 17.351562 47.980469 L 17.132812 47.457031 C 17.132812 47.308594 17.222656 47.179688 17.398438 47.0625 M 39.035156 56.507812 L 38.640625 55.898438 L 39.648438 57.210938 L 39.035156 56.507812 M 65.929688 104.359375 L 65.929688 104.316406 L 65.84375 104.316406 L 64.835938 103.484375 C 63.550781 103.484375 61.84375 104.8125 59.710938 107.464844 L 58.179688 109.605469 L 58.046875 109.5625 C 57.871094 109.5625 57.695312 109.652344 57.519531 109.824219 L 57.652344 110.308594 L 56.820312 111.621094 C 53.988281 115.410156 51.722656 118.164062 50.03125 119.886719 C 50.613281 120.382812 51.140625 121.199219 51.609375 122.335938 C 52.105469 123.5 52.613281 124.347656 53.140625 124.871094 C 53.726562 125.453125 55.886719 126.78125 59.625 128.851562 L 59.054688 131.300781 L 58.746094 131.433594 L 57.171875 134.101562 C 56.003906 136.519531 55.417969 138.957031 55.417969 141.40625 L 54.542969 151.507812 L 54.894531 154.832031 C 54.894531 156.84375 54.71875 157.851562 54.367188 157.851562 C 51.242188 157.851562 48.511719 156.667969 46.175781 154.308594 C 44.367188 152.003906 42.859375 150.3125 41.664062 149.234375 C 41.023438 149.144531 40.421875 148.824219 39.867188 148.273438 C 39.136719 149.261719 38.773438 150.429688 38.773438 151.769531 C 38.773438 152.734375 40.464844 155.574219 43.855469 160.300781 L 43.855469 160.34375 L 43.898438 160.605469 L 44.117188 160.648438 L 44.597656 161.304688 C 45.648438 162.355469 46.394531 163.929688 46.832031 166.027344 C 47.882812 167.71875 50.847656 169.003906 55.726562 169.878906 L 56.339844 169.835938 L 56.207031 169.746094 L 56.953125 169.746094 L 56.953125 169.789062 L 56.996094 169.789062 C 57.902344 169.675781 58.835938 169.339844 59.796875 168.785156 L 61.289062 167.472656 C 61.695312 166.042969 62.019531 165.082031 62.25 164.585938 L 62.472656 161.523438 L 62.515625 161.523438 L 62.910156 161.394531 L 62.953125 160.910156 C 62.808594 158.550781 62.5 157.078125 62.03125 156.496094 L 62.121094 156.277344 C 61.972656 154.644531 61.902344 152.46875 61.902344 149.757812 C 61.902344 148.300781 62.25 145.050781 62.953125 140.003906 C 63.683594 134.816406 64.414062 131.769531 65.144531 130.863281 C 64.820312 130.601562 64.558594 130.089844 64.355469 129.332031 C 64.675781 129.859375 65.054688 130.121094 65.492188 130.121094 L 65.667969 130.121094 L 65.929688 128.285156 L 65.929688 119.625 L 65.757812 107.945312 L 65.757812 105.847656 L 65.929688 104.359375 M 66.28125 104.007812 C 66.574219 104.359375 66.75 107.230469 66.808594 112.625 L 66.808594 121.285156 C 67.011719 127.757812 66.761719 131.242188 66.0625 131.738281 L 64.53125 137.335938 C 64.0625 138.765625 63.710938 140.820312 63.476562 143.503906 C 63.128906 145.050781 62.953125 149.175781 62.953125 155.882812 L 62.953125 156.84375 C 63.449219 156.988281 63.625 157.617188 63.476562 158.726562 L 63.566406 160.867188 C 63.535156 162.355469 63.390625 163.695312 63.128906 164.890625 C 62.28125 168.59375 60.296875 170.445312 57.171875 170.445312 L 56.382812 170.445312 L 55.59375 170.621094 C 52.265625 170.621094 49.738281 169.789062 48.015625 168.128906 C 47.257812 167.429688 45.722656 165.167969 43.417969 161.347656 L 40.351562 156.933594 C 38.714844 154.425781 37.898438 152.660156 37.898438 151.640625 C 37.898438 151.171875 38.042969 150.429688 38.335938 149.410156 C 38.714844 148.039062 39.152344 147.351562 39.648438 147.351562 C 40.964844 147.351562 42.015625 147.820312 42.804688 148.753906 L 42.582031 149.015625 L 43.589844 150.066406 C 44.875 151.40625 45.679688 152.382812 46 152.996094 C 46.378906 153.722656 47.050781 154.378906 48.015625 154.964844 L 47.578125 151.988281 C 47.402344 150.445312 46.90625 149.25 46.089844 148.402344 C 42.964844 144.4375 41.402344 142.089844 41.402344 141.359375 C 41.402344 141.1875 41.5625 141.011719 41.882812 140.835938 C 42.496094 140.515625 43.5625 140.355469 45.082031 140.355469 C 47.621094 140.355469 49.328125 141.070312 50.207031 142.5 C 50.703125 143.257812 51.050781 144.277344 51.257812 145.558594 L 53.710938 149.671875 C 53.796875 146.785156 54.117188 143.535156 54.671875 139.917969 C 55.578125 134.113281 56.746094 131.007812 58.179688 130.601562 L 58.441406 129.375 C 58.441406 129.085938 57.507812 128.429688 55.636719 127.410156 C 53.621094 126.328125 52.46875 125.542969 52.175781 125.046875 L 49.109375 119.972656 C 52.90625 115.367188 55.257812 112.378906 56.164062 111.007812 L 59.449219 106.195312 C 61.316406 103.777344 62.835938 102.566406 64.003906 102.566406 C 65.523438 102.566406 66.28125 102.960938 66.28125 103.746094 L 66.28125 104.007812 M 42.890625 141.667969 L 42.847656 141.667969 L 42.847656 141.753906 L 42.804688 141.886719 L 42.804688 142.105469 L 42.847656 142.28125 L 42.847656 142.367188 L 42.890625 142.367188 C 43.152344 142.949219 44.203125 144.175781 46.042969 146.039062 L 46.308594 146.304688 L 49.199219 152.515625 L 48.980469 153.738281 L 48.933594 153.871094 L 48.933594 154.089844 C 48.964844 154.554688 49.109375 154.875 49.375 155.050781 L 49.59375 155.007812 L 49.769531 155.136719 L 50.601562 155.621094 L 51.652344 156.277344 L 52.613281 156.1875 L 52.789062 156.277344 C 53.609375 156.277344 54.015625 155.867188 54.015625 155.050781 C 54.015625 154.585938 53.726562 153.417969 53.140625 151.550781 L 51.914062 148.097656 L 50.335938 144.117188 C 49.664062 142.660156 48.90625 141.753906 48.058594 141.40625 C 47.941406 140.9375 47.445312 140.703125 46.570312 140.703125 L 45.035156 141.578125 L 43.855469 141.40625 C 43.328125 141.40625 43.007812 141.492188 42.890625 141.667969 M 60.410156 128.632812 L 59.972656 128.546875 L 59.796875 128.152344 L 61.199219 126.882812 C 61.550781 126.882812 61.726562 127.015625 61.726562 127.277344 C 61.726562 127.628906 61.289062 128.078125 60.410156 128.632812 M 61.507812 158.417969 L 61.636719 158.417969 L 61.636719 158.59375 L 61.507812 158.417969 M 168.957031 230.890625 L 169.570312 230.804688 C 170.914062 230.804688 172.140625 231.007812 173.25 231.417969 L 172.242188 227.960938 L 171.761719 225.90625 L 168.957031 230.847656 L 168.957031 230.890625 M 167.949219 234.609375 L 168.039062 234.699219 L 167.996094 234.347656 L 167.949219 234.609375 M 170.710938 231.503906 C 170.15625 231.503906 169.613281 231.898438 169.089844 232.6875 C 168.652344 233.355469 168.433594 233.851562 168.433594 234.171875 C 168.433594 234.347656 168.855469 234.929688 169.703125 235.921875 C 170.667969 237.058594 171.46875 237.628906 172.113281 237.628906 C 173.191406 237.628906 173.953125 236.257812 174.390625 233.515625 C 174.390625 233.285156 174.066406 232.917969 173.425781 232.421875 C 172.609375 231.8125 171.703125 231.503906 170.710938 231.503906 M 170.578125 232.421875 L 170.535156 232.46875 L 170.535156 232.421875 L 170.578125 232.421875 "/>
<path style=" stroke:none;fill-rule:evenodd;fill:rgb(80.784315%,72.941178%,73.725492%);fill-opacity:1;" d="M 182.144531 144.421875 L 182.144531 144.203125 L 182.316406 144.421875 L 182.144531 144.421875 M 184.597656 79.996094 L 184.597656 79.734375 L 184.640625 79.734375 L 184.597656 79.996094 "/>
<path style=" stroke:none;fill-rule:evenodd;fill:rgb(100%,60.000002%,80.000001%);fill-opacity:1;" d="M 165.585938 88.65625 L 165.101562 88.746094 L 165.101562 88.699219 L 165.542969 88.65625 L 165.585938 88.65625 M 178.550781 110.832031 L 178.59375 110.746094 L 178.636719 110.746094 L 178.550781 110.832031 M 171.5 108.734375 L 171.410156 108.25 L 171.71875 108.6875 L 171.5 108.734375 M 184.640625 79.734375 L 185.210938 79.691406 L 185.210938 79.867188 L 184.597656 79.996094 L 184.640625 79.734375 M 183.71875 144.378906 L 183.019531 144.378906 L 183.105469 144.292969 L 183.148438 144.378906 L 183.632812 144.117188 L 183.71875 144.378906 M 35.269531 72.210938 L 34.875 72.472656 L 35.09375 72.167969 L 35.269531 72.210938 "/>
<path style=" stroke:none;fill-rule:evenodd;fill:rgb(69.803923%,54.11765%,57.647061%);fill-opacity:1;" d="M 182.144531 144.203125 L 182.316406 142.0625 L 182.144531 140.050781 L 182.582031 136.417969 L 182.582031 135.28125 C 182.582031 133.035156 183.136719 131.273438 184.246094 129.988281 C 185.324219 128.707031 185.867188 126.753906 185.867188 124.128906 C 185.867188 121.621094 185.75 120.03125 185.515625 119.359375 C 184.875 117.4375 183.179688 115.976562 180.433594 114.988281 L 180.390625 114.679688 C 180.390625 114.449219 180.582031 114.300781 180.960938 114.242188 L 181.398438 114.199219 L 182.976562 114.550781 L 183.851562 114.679688 L 191.605469 115.207031 L 192.128906 114.679688 C 192.335938 114.097656 192.261719 113.792969 191.910156 113.761719 L 183.5 113.585938 L 178.902344 113.019531 L 178.246094 113.0625 L 178.199219 113.238281 L 177.675781 113.542969 C 177.296875 113.164062 177.105469 112.816406 177.105469 112.492188 C 177.105469 111.824219 177.585938 111.269531 178.550781 110.832031 L 178.636719 110.746094 L 178.59375 110.746094 L 174.082031 109.738281 L 174.039062 109.5625 L 174.039062 109.433594 C 174.039062 109.113281 174.375 108.949219 175.046875 108.949219 L 177.105469 109.039062 L 186.171875 107.726562 C 190.875 107.113281 193.226562 106.558594 193.226562 106.066406 L 193.136719 105.714844 L 192.480469 105.582031 C 187.75 105.960938 182.316406 106.707031 176.183594 107.8125 L 172.332031 108.558594 L 171.980469 108.949219 L 171.71875 108.6875 L 171.410156 108.207031 C 171.410156 107.828125 173.789062 105.015625 178.550781 99.765625 C 183.28125 93.964844 185.648438 89.503906 185.648438 86.382812 C 185.648438 85.128906 185.472656 83.84375 185.121094 82.535156 L 184.550781 80.476562 L 184.597656 79.996094 L 185.210938 79.867188 L 185.210938 79.691406 L 192.480469 79.035156 L 193.09375 78.945312 L 193.574219 81.484375 C 193.925781 83.027344 194.101562 84.472656 194.101562 85.8125 L 193.96875 89.882812 C 193.910156 91.515625 194.027344 92.855469 194.320312 93.90625 L 197.035156 103.003906 C 197.414062 104.460938 197.605469 106.777344 197.605469 109.957031 L 197.167969 115.597656 L 197.386719 116.167969 L 197.34375 116.429688 L 196.730469 120.804688 C 195.941406 124.886719 195.503906 127.613281 195.414062 128.984375 C 195.09375 129.945312 194.949219 131.34375 194.976562 133.183594 C 195.007812 135.136719 194.933594 136.476562 194.757812 137.207031 L 194.582031 141.273438 C 194.378906 143.050781 190.933594 144.074219 184.246094 144.335938 L 184.246094 144.378906 L 183.808594 144.597656 L 183.71875 144.378906 L 183.632812 144.117188 L 183.148438 144.378906 L 183.105469 144.292969 L 183.019531 144.378906 L 182.710938 144.816406 L 182.316406 144.421875 L 182.144531 144.203125 M 38.203125 31.710938 L 38.378906 31.535156 C 38.730469 31.652344 38.90625 31.855469 38.90625 32.148438 L 38.90625 32.496094 L 46.832031 42.382812 L 34.917969 50.253906 L 34.65625 50.035156 L 35.3125 49.378906 C 34.671875 49.03125 33.136719 47.835938 30.714844 45.792969 C 28.523438 43.957031 27.253906 43.039062 26.902344 43.039062 C 26.667969 43.039062 26.480469 43.15625 26.332031 43.386719 C 26.917969 44.46875 28.320312 45.867188 30.539062 47.585938 L 33.121094 49.425781 C 31.050781 48.664062 28.097656 48.285156 24.273438 48.285156 L 23.75 48.417969 L 23.703125 49.074219 C 23.703125 49.539062 26.203125 49.804688 31.195312 49.859375 C 31.691406 49.859375 32.230469 50.035156 32.816406 50.386719 L 34.085938 51.085938 L 34.085938 51.917969 L 37.679688 56.945312 L 38.117188 57.691406 L 40.261719 60.96875 L 44.511719 66 C 43.605469 66.496094 42.144531 67.445312 40.132812 68.84375 L 35.792969 71.863281 L 35.269531 72.210938 L 35.09375 72.167969 C 34.566406 71.875 33.765625 70.78125 32.683594 68.886719 L 29.96875 64.25 C 29.210938 63.203125 28.769531 61.890625 28.652344 60.316406 L 28.433594 56.378906 L 26.375 57.339844 L 20.726562 57.777344 C 16.636719 57.777344 15.105469 57.53125 16.125 57.035156 C 16.125 56.597656 17.046875 53.578125 18.886719 47.980469 L 19.0625 47.980469 L 22.742188 47.542969 C 23.296875 47.542969 23.761719 47.28125 24.140625 46.753906 C 23.996094 46.464844 23.777344 46.320312 23.484375 46.320312 L 18.097656 46.753906 L 18.011719 46.84375 L 17.441406 47.0625 L 17.398438 47.0625 C 17.015625 47.03125 16.59375 46.84375 16.125 46.492188 L 15.46875 45.792969 C 15.46875 45.503906 16.257812 45.035156 17.835938 44.394531 L 20.988281 43.039062 L 18.535156 41.945312 C 19.9375 40.925781 21.953125 40.003906 24.582031 39.1875 L 31.238281 37.351562 C 33.371094 36.710938 34.890625 35.808594 35.792969 34.640625 C 36.960938 33.09375 37.765625 32.117188 38.203125 31.710938 "/>
<path style=" stroke:none;fill-rule:evenodd;fill:rgb(100%,40.000001%,60.000002%);fill-opacity:1;" d="M 171.410156 108.25 L 171.410156 108.207031 L 171.71875 108.6875 L 171.410156 108.25 M 192.480469 79.035156 L 193.09375 78.816406 L 193.09375 78.945312 L 192.480469 79.035156 M 34.917969 50.253906 L 34.523438 50.035156 L 34.65625 50.035156 L 34.917969 50.253906 M 35.792969 71.863281 L 35.75 72.035156 C 35.808594 72.152344 35.664062 72.210938 35.3125 72.210938 L 35.269531 72.210938 L 35.792969 71.863281 M 19.0625 47.980469 L 18.886719 47.980469 L 18.886719 47.9375 L 19.0625 47.980469 "/>
<path style=" stroke:none;fill-rule:evenodd;fill:rgb(39.607844%,34.509805%,37.254903%);fill-opacity:1;" d="M 169.441406 200.714844 L 170.007812 195.203125 C 170.15625 194.035156 170.609375 192.476562 171.367188 190.523438 L 172.113281 188.683594 C 174.183594 189.035156 177.5 189.066406 182.054688 188.773438 L 184.859375 188.773438 C 184.566406 189.355469 184.523438 192.300781 184.726562 197.609375 C 184.785156 199.792969 184.625 201.371094 184.246094 202.332031 C 183.515625 204.140625 181.867188 205.613281 179.296875 206.75 C 181.691406 207.945312 183.09375 210.03125 183.5 213.003906 L 184.203125 219.433594 L 184.464844 221.3125 C 184.027344 221.722656 183.691406 222.464844 183.457031 223.542969 L 182.886719 227 C 182.421875 228.808594 181.515625 230.863281 180.171875 233.167969 C 179.878906 233.664062 179.5 234.742188 179.03125 236.402344 C 178.652344 237.714844 178.097656 238.691406 177.367188 239.332031 C 174.886719 241.402344 172.171875 242.761719 169.21875 243.402344 L 165.847656 243.882812 L 163.175781 240.953125 L 162.257812 239.289062 L 161.730469 238.460938 L 163.089844 238.503906 C 165.015625 238.503906 166.460938 237.613281 167.425781 235.835938 L 167.820312 235.878906 L 167.90625 235.878906 C 168.167969 236.402344 168.753906 237.058594 169.660156 237.847656 L 170.226562 238.328125 C 171.222656 239.496094 171.878906 240.078125 172.199219 240.078125 C 172.492188 240.078125 172.636719 240.003906 172.636719 239.859375 L 172.417969 239.378906 C 173.734375 239.261719 174.738281 238.035156 175.441406 235.703125 C 175.90625 234.128906 176.140625 232.699219 176.140625 231.417969 C 176.230469 226.460938 175.46875 223.515625 173.863281 222.582031 C 173.191406 220.746094 172.578125 219.460938 172.023438 218.734375 L 172.460938 218.382812 L 172.113281 216.242188 C 171.9375 215.335938 171.617188 214.882812 171.148438 214.882812 C 169.335938 214.882812 167.964844 218.558594 167.03125 225.90625 C 167.382812 227.421875 166.769531 229.257812 165.191406 231.417969 L 162.34375 234.085938 C 161.527344 234.8125 160.972656 235.425781 160.679688 235.921875 L 160.546875 235.878906 C 159.964844 236.113281 159.671875 236.359375 159.671875 236.621094 L 159.671875 236.664062 L 159.714844 236.882812 L 159.847656 237.015625 L 159.933594 237.058594 L 159.890625 237.101562 C 159.042969 236.722656 158.621094 236.140625 158.621094 235.355469 C 158.621094 234.945312 159.613281 233.472656 161.597656 230.9375 C 163.585938 228.429688 164.578125 225.933594 164.578125 223.457031 L 164.226562 219.082031 L 164.535156 218.953125 L 164.578125 217.378906 L 164.226562 211.996094 C 164.226562 210.015625 164.679688 208.558594 165.585938 207.625 C 167.367188 205.730469 168.722656 203.949219 169.660156 202.289062 L 169.746094 202.289062 C 170.621094 203.222656 171.585938 203.6875 172.636719 203.6875 L 173.164062 203.164062 C 171.175781 201.53125 169.980469 200.714844 169.570312 200.714844 L 169.441406 200.714844 M 183.542969 246.507812 C 182.582031 247.0625 181.238281 247.453125 179.515625 247.6875 L 180.523438 245.761719 L 182.492188 241.128906 C 183.371094 239.289062 184.523438 237.394531 185.953125 235.441406 L 186.347656 234.917969 L 185.035156 239.117188 C 183.894531 243.140625 183.324219 245.457031 183.324219 246.070312 L 183.371094 246.464844 L 183.542969 246.507812 M 166.503906 244.496094 L 166.460938 244.453125 L 166.503906 244.453125 L 166.503906 244.496094 M 43.855469 160.300781 C 40.464844 155.574219 38.773438 152.734375 38.773438 151.769531 C 38.773438 150.429688 39.136719 149.261719 39.867188 148.273438 C 40.421875 148.824219 41.023438 149.144531 41.664062 149.234375 C 42.859375 150.3125 44.367188 152.003906 46.175781 154.308594 C 48.511719 156.667969 51.242188 157.851562 54.367188 157.851562 C 54.71875 157.851562 54.894531 156.84375 54.894531 154.832031 L 54.542969 151.507812 L 55.417969 141.40625 C 55.417969 138.957031 56.003906 136.519531 57.171875 134.101562 L 58.746094 131.433594 L 59.054688 131.300781 L 59.625 128.851562 C 55.886719 126.78125 53.726562 125.453125 53.140625 124.871094 C 52.613281 124.347656 52.105469 123.5 51.609375 122.335938 C 51.140625 121.199219 50.613281 120.382812 50.03125 119.886719 C 51.722656 118.164062 53.988281 115.410156 56.820312 111.621094 L 57.652344 110.308594 L 57.960938 111.007812 L 58.308594 111.574219 L 60.238281 116.957031 C 61.695312 121.445312 62.425781 125.570312 62.425781 129.332031 C 62.425781 130.265625 61.332031 135.5 59.140625 145.035156 C 58.617188 149 58.367188 151.625 58.398438 152.90625 L 58.046875 156.84375 C 58.046875 157.601562 57.8125 158.257812 57.347656 158.8125 C 56.964844 159.21875 56.527344 159.484375 56.03125 159.601562 L 55.726562 159.730469 L 44.292969 159.949219 C 44.03125 160.035156 43.882812 160.152344 43.855469 160.300781 M 60.410156 128.632812 C 61.289062 128.078125 61.726562 127.628906 61.726562 127.277344 C 61.726562 127.015625 61.550781 126.882812 61.199219 126.882812 L 59.796875 128.152344 L 59.972656 128.546875 L 60.410156 128.632812 "/>
<path style=" stroke:none;fill-rule:evenodd;fill:rgb(28.627452%,25.882354%,29.019609%);fill-opacity:1;" d="M 159.890625 237.101562 L 159.933594 237.058594 L 159.847656 237.015625 L 159.714844 236.882812 L 159.671875 236.664062 L 159.671875 236.621094 C 159.671875 236.359375 159.964844 236.113281 160.546875 235.878906 L 160.679688 235.921875 C 160.972656 235.425781 161.527344 234.8125 162.34375 234.085938 L 165.191406 231.417969 C 166.769531 229.257812 167.382812 227.421875 167.03125 225.90625 C 167.964844 218.558594 169.335938 214.882812 171.148438 214.882812 C 171.617188 214.882812 171.9375 215.335938 172.113281 216.242188 L 172.460938 218.382812 L 172.023438 218.734375 L 171.5 218.253906 L 170.972656 218.035156 C 170.855469 218.035156 170.710938 218.121094 170.535156 218.296875 C 170.914062 219.289062 171.601562 220.597656 172.59375 222.230469 L 172.550781 222.230469 L 172.15625 222.320312 L 172.113281 222.84375 L 172.15625 222.933594 L 171.804688 223.5 L 171.5 223.542969 L 171.410156 223.894531 L 171.453125 224.15625 C 169.730469 227.042969 168.695312 228.96875 168.34375 229.929688 L 167.117188 234.304688 C 166.824219 234.332031 166.679688 234.539062 166.679688 234.917969 L 166.722656 235.136719 C 165.820312 236.738281 164.5625 237.539062 162.957031 237.539062 L 159.890625 237.101562 M 165.847656 243.882812 L 169.21875 243.402344 C 172.171875 242.761719 174.886719 241.402344 177.367188 239.332031 C 178.097656 238.691406 178.652344 237.714844 179.03125 236.402344 C 179.5 234.742188 179.878906 233.664062 180.171875 233.167969 C 181.515625 230.863281 182.421875 228.808594 182.886719 227 L 183.457031 223.542969 C 183.691406 222.464844 184.027344 221.722656 184.464844 221.3125 L 184.203125 219.433594 L 183.5 213.003906 C 183.09375 210.03125 181.691406 207.945312 179.296875 206.75 C 181.867188 205.613281 183.515625 204.140625 184.246094 202.332031 C 184.625 201.371094 184.785156 199.792969 184.726562 197.609375 C 184.523438 192.300781 184.566406 189.355469 184.859375 188.773438 L 184.988281 188.640625 L 185.210938 188.773438 C 187.953125 188.949219 190.65625 189.574219 193.3125 190.652344 C 194.394531 191.089844 195.078125 191.847656 195.371094 192.929688 L 195.765625 194.195312 L 196.640625 200.582031 C 196.640625 201.691406 195.285156 203.453125 192.566406 205.875 L 192 205.785156 C 189.488281 205.933594 188.230469 206.179688 188.230469 206.53125 L 188.273438 206.792969 L 189.546875 207.011719 L 191.386719 206.925781 C 191.386719 207.128906 191.53125 207.273438 191.824219 207.363281 L 192.566406 206.878906 L 193.75 214.402344 L 194.144531 217.246094 L 193.355469 222.976562 C 192.890625 226.765625 192.40625 229.640625 191.910156 231.59375 L 189.28125 240.121094 C 188.640625 242.105469 187.660156 243.503906 186.347656 244.320312 L 184.375 245.851562 L 184.332031 246.417969 L 183.851562 246.550781 L 183.542969 246.507812 L 183.371094 246.464844 L 183.324219 246.070312 C 183.324219 245.457031 183.894531 243.140625 185.035156 239.117188 L 186.347656 234.917969 C 186.875 233.457031 187.3125 232.6875 187.660156 232.597656 C 187.574219 232.453125 187.441406 232.378906 187.269531 232.378906 C 185.75 232.378906 183.953125 234.988281 181.878906 240.207031 C 179.777344 245.429688 178.464844 248.039062 177.9375 248.039062 C 176.683594 248.039062 174.914062 247.746094 172.636719 247.164062 C 169.890625 246.464844 167.847656 245.574219 166.503906 244.496094 L 166.503906 244.453125 L 166.460938 244.453125 L 165.671875 244.234375 L 165.628906 243.96875 L 165.847656 243.882812 M 65.84375 104.316406 L 65.929688 104.359375 L 65.757812 105.847656 L 65.757812 107.945312 L 65.929688 119.625 L 65.929688 128.285156 L 65.667969 130.121094 L 65.492188 130.121094 C 65.054688 130.121094 64.675781 129.859375 64.355469 129.332031 C 64.558594 130.089844 64.820312 130.601562 65.144531 130.863281 C 64.414062 131.769531 63.683594 134.816406 62.953125 140.003906 C 62.25 145.050781 61.902344 148.300781 61.902344 149.757812 C 61.902344 152.46875 61.972656 154.644531 62.121094 156.277344 L 62.03125 156.496094 C 62.5 157.078125 62.808594 158.550781 62.953125 160.910156 L 62.910156 161.394531 L 62.515625 161.523438 L 62.472656 161.523438 L 62.25 164.585938 C 62.019531 165.082031 61.695312 166.042969 61.289062 167.472656 L 59.796875 168.785156 C 58.835938 169.339844 57.902344 169.675781 56.996094 169.789062 L 56.953125 169.746094 L 56.207031 169.746094 L 55.726562 169.878906 C 50.847656 169.003906 47.882812 167.71875 46.832031 166.027344 C 46.394531 163.929688 45.648438 162.355469 44.597656 161.304688 L 44.117188 160.648438 L 43.898438 160.605469 L 43.855469 160.34375 L 43.855469 160.300781 C 43.882812 160.152344 44.03125 160.035156 44.292969 159.949219 L 55.726562 159.730469 L 56.03125 159.601562 C 56.527344 159.484375 56.964844 159.21875 57.347656 158.8125 C 57.8125 158.257812 58.046875 157.601562 58.046875 156.84375 L 58.398438 152.90625 C 58.367188 151.625 58.617188 149 59.140625 145.035156 C 61.332031 135.5 62.425781 130.265625 62.425781 129.332031 C 62.425781 125.570312 61.695312 121.445312 60.238281 116.957031 L 58.308594 111.574219 L 57.960938 111.007812 L 57.652344 110.308594 L 57.519531 109.824219 C 57.695312 109.652344 57.871094 109.5625 58.046875 109.5625 L 58.179688 109.605469 L 59.710938 107.464844 C 61.84375 104.8125 63.550781 103.484375 64.835938 103.484375 L 65.84375 104.316406 M 42.890625 141.667969 C 43.007812 141.492188 43.328125 141.40625 43.855469 141.40625 L 45.035156 141.578125 L 46.570312 140.703125 C 47.445312 140.703125 47.941406 140.9375 48.058594 141.40625 C 48.90625 141.753906 49.664062 142.660156 50.335938 144.117188 L 51.914062 148.097656 L 53.140625 151.550781 C 53.726562 153.417969 54.015625 154.585938 54.015625 155.050781 C 54.015625 155.867188 53.609375 156.277344 52.789062 156.277344 L 52.613281 156.1875 L 51.652344 156.277344 L 50.601562 155.621094 L 49.769531 155.136719 L 49.59375 155.007812 L 49.375 155.050781 C 49.109375 154.875 48.964844 154.554688 48.933594 154.089844 L 48.933594 153.871094 L 48.980469 153.738281 L 49.199219 152.515625 L 46.308594 146.304688 L 46.042969 146.039062 C 44.203125 144.175781 43.152344 142.949219 42.890625 142.367188 L 42.847656 142.367188 L 42.847656 142.28125 L 42.804688 142.105469 L 42.804688 141.886719 L 42.847656 141.753906 L 42.847656 141.667969 L 42.890625 141.667969 M 61.507812 158.417969 L 61.636719 158.59375 L 61.636719 158.417969 L 61.507812 158.417969 M 170.578125 232.421875 L 170.535156 232.421875 L 170.535156 232.46875 L 170.578125 232.421875 M 170.710938 231.503906 C 171.703125 231.503906 172.609375 231.8125 173.425781 232.421875 C 174.066406 232.917969 174.390625 233.285156 174.390625 233.515625 C 173.953125 236.257812 173.191406 237.628906 172.113281 237.628906 C 171.46875 237.628906 170.667969 237.058594 169.703125 235.921875 C 168.855469 234.929688 168.433594 234.347656 168.433594 234.171875 C 168.433594 233.851562 168.652344 233.355469 169.089844 232.6875 C 169.613281 231.898438 170.15625 231.503906 170.710938 231.503906 "/>
<path style=" stroke:none;fill-rule:evenodd;fill:rgb(20%,20%,20%);fill-opacity:1;" d="M 56.207031 169.746094 L 56.339844 169.835938 L 55.726562 169.878906 L 56.207031 169.746094 "/>
<path style=" stroke:none;fill-rule:evenodd;fill:rgb(94.509804%,77.64706%,81.568629%);fill-opacity:1;" d="M 165.585938 88.65625 L 164.972656 81.222656 L 165.410156 79.164062 L 165.761719 79.253906 L 166.417969 79.472656 L 179.207031 79.777344 L 184.597656 79.734375 L 184.597656 79.996094 L 184.550781 80.476562 L 185.121094 82.535156 C 185.472656 83.84375 185.648438 85.128906 185.648438 86.382812 C 185.648438 89.503906 183.28125 93.964844 178.550781 99.765625 C 173.789062 105.015625 171.410156 107.828125 171.410156 108.207031 L 171.410156 108.25 L 171.5 108.734375 C 168.460938 109.375 166.941406 109.871094 166.941406 110.21875 C 166.941406 110.539062 167.132812 110.746094 167.511719 110.832031 L 174.039062 109.5625 L 174.082031 109.738281 L 178.59375 110.746094 L 178.550781 110.832031 C 177.585938 111.269531 177.105469 111.824219 177.105469 112.492188 C 177.105469 112.816406 177.296875 113.164062 177.675781 113.542969 C 177.703125 113.777344 177.921875 113.90625 178.332031 113.9375 L 180.960938 114.242188 C 180.582031 114.300781 180.390625 114.449219 180.390625 114.679688 L 180.433594 114.988281 C 183.179688 115.976562 184.875 117.4375 185.515625 119.359375 C 185.75 120.03125 185.867188 121.621094 185.867188 124.128906 C 185.867188 126.753906 185.324219 128.707031 184.246094 129.988281 C 183.136719 131.273438 182.582031 133.035156 182.582031 135.28125 L 182.582031 136.417969 L 182.144531 140.050781 L 182.316406 142.0625 L 182.144531 144.203125 L 182.144531 144.421875 L 180.128906 144.421875 L 173.292969 144.160156 C 172.5625 143.957031 171.964844 143.589844 171.5 143.066406 L 171.367188 143.636719 C 169.90625 142.789062 169.046875 141.652344 168.78125 140.222656 C 168.753906 137.980469 168.476562 136.34375 167.949219 135.324219 C 167.453125 134.363281 167.101562 132.746094 166.898438 130.46875 L 166.460938 127.539062 L 166.898438 127.363281 C 165.761719 123.867188 165.191406 119.871094 165.191406 115.378906 C 165.773438 107.828125 166.066406 102.199219 166.066406 98.496094 L 165.453125 91.585938 L 165.101562 88.746094 L 165.585938 88.65625 M 34.875 72.472656 C 30.144531 74.894531 25.222656 77.445312 20.113281 80.128906 C 18.332031 80.128906 16.738281 79.121094 15.339844 77.109375 L 13.191406 74.355469 C 13.015625 73.742188 12.066406 71.964844 10.34375 69.019531 C 8.066406 65.109375 6.578125 62.398438 5.875 60.882812 C 3.015625 54.730469 1.582031 50.183594 1.582031 47.238281 C 1.582031 46.332031 3.597656 43.535156 7.628906 38.839844 C 11.542969 34.230469 13.542969 31.652344 13.628906 31.097656 L 15.511719 28.734375 C 17.585938 27.597656 19.089844 26.550781 20.023438 25.585938 L 23.222656 21.914062 C 24.625 20.28125 25.515625 19.464844 25.894531 19.464844 C 27.265625 19.464844 31.3125 23.472656 38.027344 31.492188 L 38.203125 31.710938 C 37.765625 32.117188 36.960938 33.09375 35.792969 34.640625 C 34.890625 35.808594 33.371094 36.710938 31.238281 37.351562 L 24.582031 39.1875 C 21.953125 40.003906 19.9375 40.925781 18.535156 41.945312 L 20.988281 43.039062 L 17.835938 44.394531 C 16.257812 45.035156 15.46875 45.503906 15.46875 45.792969 L 16.125 46.492188 C 16.59375 46.84375 17.015625 47.03125 17.398438 47.0625 C 17.222656 47.179688 17.132812 47.308594 17.132812 47.457031 L 17.351562 47.980469 L 17.789062 48.066406 L 18.886719 47.980469 C 17.046875 53.578125 16.125 56.597656 16.125 57.035156 C 15.105469 57.53125 16.636719 57.777344 20.726562 57.777344 L 26.375 57.339844 L 28.433594 56.378906 L 28.652344 60.316406 C 28.769531 61.890625 29.210938 63.203125 29.96875 64.25 L 32.683594 68.886719 C 33.765625 70.78125 34.566406 71.875 35.09375 72.167969 L 34.875 72.472656 "/>
</g>
</svg>
