<?xml version="1.0" encoding="UTF-8"?>
<svg xmlns="http://www.w3.org/2000/svg" xmlns:xlink="http://www.w3.org/1999/xlink" width="203px" height="249px" viewBox="0 0 203 249" version="1.1">
<g id="surface1">
<path style=" stroke:none;fill-rule:evenodd;fill:rgb(0%,0%,0%);fill-opacity:1;" d="M 178.464844 31.710938 L 178.550781 31.972656 L 178.859375 31.929688 L 178.988281 31.535156 L 185.515625 29.304688 C 188.582031 28.253906 190.113281 27.597656 190.113281 27.335938 C 189.824219 25.585938 189.664062 24.214844 189.632812 23.226562 L 184.027344 25.191406 L 179.820312 26.59375 L 179.820312 26.550781 L 179.558594 26.550781 L 179.558594 26.679688 C 177.164062 27.46875 175.734375 27.992188 175.265625 28.253906 C 168.636719 31.433594 164.417969 33.269531 162.605469 33.765625 L 162.648438 34.464844 L 162.519531 37.132812 L 162.867188 37.308594 C 163.597656 37.308594 165.804688 36.59375 169.484375 35.164062 L 176.359375 32.410156 L 178.464844 31.710938 M 190.246094 21.867188 L 190.421875 21.914062 C 190.773438 22 190.933594 22.203125 190.902344 22.523438 L 190.902344 22.570312 C 191.195312 23.386719 191.371094 24.960938 191.429688 27.292969 C 192.128906 28.019531 193.285156 31.011719 194.890625 36.257812 L 197.300781 41.289062 C 197.589844 42.105469 197.738281 43.417969 197.738281 45.226562 C 197.738281 47.703125 197.53125 49.730469 197.125 51.304688 C 196.570312 53.375 196.175781 55.796875 195.941406 58.566406 L 195.589844 62.457031 C 196.730469 63.273438 198.203125 67.414062 200.015625 74.878906 C 200.015625 76.105469 199.648438 77.066406 198.917969 77.765625 C 198.015625 78.640625 197.371094 80.027344 196.992188 81.921875 C 196.875 84.28125 196.714844 86.019531 196.511719 87.125 C 196.917969 87.183594 197.09375 87.492188 197.035156 88.042969 C 197.035156 88.394531 196.859375 89.035156 196.511719 89.96875 L 196.027344 91.019531 L 196.773438 92.941406 C 197.414062 94.808594 197.738281 98.046875 197.738281 102.652344 C 197.738281 103.089844 197.488281 103.308594 196.992188 103.308594 L 198.394531 107.246094 L 199.664062 111.574219 C 199.898438 112.363281 200.015625 113.457031 200.015625 114.855469 C 200.015625 119.257812 199.253906 123.910156 197.738281 128.808594 C 196.21875 133.675781 195.460938 137.746094 195.460938 141.011719 C 195.460938 143.898438 195.808594 146.566406 196.511719 149.015625 C 196.511719 149.570312 196.394531 149.933594 196.160156 150.109375 C 197.589844 151.769531 198.570312 153.082031 199.09375 154.046875 C 200 155.679688 200.511719 157.09375 200.628906 158.289062 L 200.539062 161.960938 C 200.804688 169.164062 199.914062 172.765625 197.867188 172.765625 L 197.824219 172.765625 C 199.195312 174.308594 200.921875 176.539062 202.992188 179.457031 C 202.992188 180.566406 202.453125 181.847656 201.371094 183.304688 C 200 184.9375 199.007812 186.191406 198.394531 187.066406 L 193.488281 194.285156 L 193.136719 194.238281 L 193.355469 194.894531 L 193.050781 197.914062 L 193.179688 198.175781 C 193.179688 198.527344 193.007812 198.746094 192.65625 198.832031 L 192.261719 198.832031 L 187.09375 198.21875 L 182.582031 198.4375 C 181.675781 198.703125 179.660156 198.453125 176.535156 197.695312 C 172.621094 197.316406 170.667969 196.90625 170.667969 196.472656 L 170.710938 196.253906 L 170.359375 195.289062 L 170.316406 193.976562 L 170.226562 193.101562 L 170.273438 192.882812 L 169.527344 191.703125 L 168.652344 189.121094 C 167.890625 187.140625 167.511719 185.742188 167.511719 184.925781 C 167.511719 184.019531 167.996094 179.953125 168.957031 172.722656 C 169.425781 169.132812 169.847656 166.351562 170.226562 164.367188 C 169.5 164.339844 168.535156 163.507812 167.335938 161.875 C 166.226562 160.328125 165.511719 158.988281 165.191406 157.851562 C 164.167969 154.527344 163.65625 152.355469 163.65625 151.332031 L 166.199219 131.34375 C 165.320312 131.023438 164.429688 130.089844 163.527344 128.546875 C 162.476562 126.707031 161.875 124.945312 161.730469 123.253906 L 161.03125 115.160156 C 161.03125 113.90625 161.203125 112.976562 161.554688 112.363281 C 161.90625 111.75 162.082031 110.628906 162.082031 108.996094 C 162.082031 107.972656 161.964844 107.054688 161.730469 106.238281 C 161.496094 105.421875 161.378906 104.269531 161.378906 102.785156 C 161.378906 102.375 161.597656 100.859375 162.035156 98.234375 C 161.160156 97.710938 160.488281 96.164062 160.023438 93.597656 C 159.527344 91.179688 159.277344 89.605469 159.277344 88.875 L 160.589844 83.671875 C 161.46875 80.257812 161.90625 76.980469 161.90625 73.828125 L 161.773438 72.78125 L 160.808594 69.628906 L 159.320312 64.074219 C 158.125 60.578125 157.523438 57.53125 157.523438 54.933594 C 157.789062 52.046875 158.167969 49.191406 158.664062 46.363281 C 159.511719 41.582031 160.460938 38.839844 161.511719 38.140625 C 161.363281 37.878906 161.261719 37.527344 161.203125 37.089844 L 161.203125 35.382812 L 161.292969 33.765625 L 161.074219 33.546875 L 161.03125 33.242188 L 161.511719 33.066406 C 161.597656 32.832031 161.714844 32.714844 161.863281 32.714844 L 162.125 32.757812 L 173.777344 27.597656 C 175.179688 26.871094 180.582031 24.960938 189.984375 21.867188 L 190.246094 21.867188 M 182.316406 191.132812 C 182.347656 191.28125 182.375 191.296875 182.40625 191.179688 L 182.886719 191.222656 L 182.976562 191.132812 L 183.238281 191.132812 L 184.726562 191.046875 C 187.53125 191.046875 189.792969 191.628906 191.515625 192.796875 L 192.789062 193.804688 L 192.742188 193.671875 C 192.742188 192.972656 194.21875 190.464844 197.167969 186.148438 L 201.546875 179.5 L 193.621094 170.710938 C 193.621094 170.273438 193.898438 170.054688 194.453125 170.054688 C 195.007812 170.054688 195.910156 170.722656 197.167969 172.066406 C 198.363281 169.789062 198.992188 168.113281 199.050781 167.035156 L 199.226562 161.960938 C 199.226562 158.492188 197.941406 155.09375 195.371094 151.769531 C 192.800781 149.058594 191.515625 147.425781 191.515625 146.871094 C 191.515625 146.347656 191.734375 146.085938 192.175781 146.085938 C 192.4375 146.085938 193.386719 147.003906 195.019531 148.839844 C 194.816406 148.082031 194.640625 147.019531 194.496094 145.648438 L 194.144531 141.054688 C 194.144531 137.875 194.902344 133.707031 196.421875 128.546875 C 197.941406 123.355469 198.699219 118.777344 198.699219 114.8125 C 198.699219 113.324219 198.613281 112.332031 198.4375 111.835938 C 197.765625 109.855469 197.3125 108.398438 197.078125 107.464844 C 195.125 102.914062 194.144531 100.523438 194.144531 100.292969 C 194.144531 99.796875 194.363281 99.546875 194.800781 99.546875 C 195.035156 99.546875 195.386719 100 195.851562 100.902344 L 195.808594 99.460938 C 195.839844 96.195312 195.75 94.253906 195.546875 93.644531 L 193.621094 88.789062 C 192.070312 87.039062 191.09375 85.710938 190.683594 84.808594 L 182.929688 78.378906 C 182.929688 77.910156 183.238281 77.679688 183.851562 77.679688 C 184.960938 77.679688 187.371094 79.542969 191.078125 83.277344 L 191.121094 83.277344 C 191.5625 83.277344 192.261719 84.019531 193.226562 85.507812 L 193.707031 86.03125 L 193.707031 86.296875 L 193.75 86.382812 L 195.195312 89.136719 L 195.371094 88.746094 L 195.503906 88.480469 C 195.355469 88.363281 195.253906 88.160156 195.195312 87.871094 L 195.195312 87.082031 C 195.195312 84.28125 195.78125 81.585938 196.949219 78.992188 L 198.699219 74.878906 C 198.699219 73.859375 198 71.746094 196.597656 68.539062 L 195.238281 65.257812 C 194.65625 69.398438 194.042969 71.46875 193.398438 71.46875 C 193.019531 71.46875 192.800781 71.292969 192.742188 70.941406 L 192.742188 70.375 L 194.671875 57.734375 C 194.992188 54.554688 195.402344 52.121094 195.898438 50.429688 C 196.246094 49.261719 196.421875 47.515625 196.421875 45.179688 C 196.421875 42.441406 194.496094 36.945312 190.640625 28.691406 C 189.792969 29.332031 188.246094 29.988281 185.996094 30.660156 C 182.785156 31.621094 180.492188 32.367188 179.121094 32.890625 L 179.121094 32.847656 L 178.859375 32.847656 L 178.902344 32.976562 L 177.761719 33.414062 C 176.214844 34.261719 173.71875 35.324219 170.273438 36.609375 C 166.59375 37.949219 164.066406 38.664062 162.695312 38.75 L 160.765625 44.261719 C 159.480469 47.820312 158.839844 51.40625 158.839844 55.023438 C 158.839844 58.230469 159.480469 61.320312 160.765625 64.292969 C 161.699219 66.421875 162.300781 68.40625 162.5625 70.242188 C 163.175781 70.503906 163.394531 71.613281 163.21875 73.566406 C 163.21875 76.863281 162.78125 80.273438 161.90625 83.800781 L 160.589844 88.875 C 160.589844 90.597656 161.21875 92.886719 162.476562 95.742188 C 162.796875 94.082031 163.058594 93.25 163.261719 93.25 C 163.703125 93.25 163.921875 93.496094 163.921875 93.992188 L 163.394531 97.625 L 163.394531 97.667969 L 163.261719 98.234375 C 162.882812 100.015625 162.695312 101.53125 162.695312 102.785156 C 162.695312 104.386719 162.8125 105.496094 163.042969 106.109375 C 163.277344 106.71875 163.394531 107.683594 163.394531 108.996094 C 163.394531 110.539062 163.21875 111.722656 162.867188 112.539062 C 162.519531 113.324219 162.34375 114.199219 162.34375 115.160156 L 163.042969 123.121094 C 163.191406 125.804688 164.316406 128.035156 166.417969 129.8125 L 166.8125 126.621094 C 166.34375 123.910156 166.109375 121.589844 166.109375 119.667969 C 166.109375 119.199219 166.328125 118.96875 166.769531 118.96875 C 167.351562 118.96875 167.804688 121.53125 168.125 126.664062 C 168.125 130.457031 167.601562 134.566406 166.546875 139 L 165.585938 145.078125 C 165.175781 147.558594 164.972656 149.597656 164.972656 151.203125 C 164.972656 152.164062 165.484375 154.261719 166.503906 157.5 C 167 159.277344 168.316406 161.203125 170.445312 163.273438 C 170.796875 161.613281 171.089844 160.78125 171.324219 160.78125 C 171.730469 160.78125 171.949219 161.027344 171.980469 161.523438 L 170.402344 171.671875 C 169.351562 178.203125 168.828125 182.605469 168.828125 184.878906 C 168.828125 186.367188 169.746094 188.757812 171.585938 192.054688 C 173.28125 191.5 176.855469 191.191406 182.316406 191.132812 M 178.113281 86.25 L 177.9375 86.511719 C 177.9375 86.804688 177.96875 86.878906 178.023438 86.730469 L 178.464844 86.6875 L 178.988281 87.34375 C 182.027344 91.367188 183.542969 93.789062 183.542969 94.605469 C 183.542969 95.042969 183.324219 95.261719 182.886719 95.261719 C 178.300781 88.789062 175.03125 84.339844 173.074219 81.921875 C 169.777344 76.703125 167.6875 72.925781 166.8125 70.59375 L 166.679688 69.761719 L 166.503906 69.761719 L 166.285156 68.539062 C 166.285156 67.75 166.503906 67.355469 166.941406 67.355469 L 174.039062 80.957031 L 178.113281 86.25 M 175.003906 115.816406 C 175.585938 115.816406 175.804688 116.285156 175.660156 117.21875 C 174.519531 129.171875 173.777344 135.148438 173.425781 135.148438 L 172.8125 134.929688 L 172.769531 132.089844 L 173.644531 123.910156 C 174.289062 118.515625 174.738281 115.816406 175.003906 115.816406 M 191.910156 197.171875 L 192.042969 195.070312 C 191.894531 194.488281 191.152344 193.90625 189.808594 193.320312 C 188.464844 192.710938 187.195312 192.402344 185.996094 192.402344 L 172.855469 193.148438 C 172.039062 193.148438 171.628906 193.4375 171.628906 194.019531 L 171.980469 195.726562 L 171.980469 195.769531 L 186.917969 196.820312 L 191.910156 197.609375 L 191.910156 197.171875 "/>
<path style=" stroke:none;fill-rule:evenodd;fill:rgb(17.254902%,10.588235%,24.705882%);fill-opacity:1;" d="M 179.558594 26.679688 C 179.472656 27.789062 179.105469 29.390625 178.464844 31.492188 L 178.464844 31.710938 L 176.359375 32.410156 L 169.484375 35.164062 C 165.804688 36.59375 163.597656 37.308594 162.867188 37.308594 L 162.519531 37.132812 L 162.648438 34.464844 L 162.605469 33.765625 C 164.417969 33.269531 168.636719 31.433594 175.265625 28.253906 C 175.734375 27.992188 177.164062 27.46875 179.558594 26.679688 M 191.910156 197.171875 L 191.910156 197.609375 L 186.917969 196.820312 L 171.980469 195.769531 L 171.980469 195.726562 L 171.628906 194.019531 C 171.628906 193.4375 172.039062 193.148438 172.855469 193.148438 L 185.996094 192.402344 C 187.195312 192.402344 188.464844 192.710938 189.808594 193.320312 C 191.152344 193.90625 191.894531 194.488281 192.042969 195.070312 L 191.910156 197.171875 "/>
<path style=" stroke:none;fill-rule:evenodd;fill:rgb(92.156863%,92.54902%,90.196079%);fill-opacity:1;" d="M 182.316406 191.132812 C 176.855469 191.191406 173.28125 191.5 171.585938 192.054688 C 169.746094 188.757812 168.828125 186.367188 168.828125 184.878906 C 168.828125 182.605469 169.351562 178.203125 170.402344 171.671875 L 171.980469 161.523438 C 171.949219 161.027344 171.730469 160.78125 171.324219 160.78125 C 171.089844 160.78125 170.796875 161.613281 170.445312 163.273438 C 168.316406 161.203125 167 159.277344 166.503906 157.5 C 165.484375 154.261719 164.972656 152.164062 164.972656 151.203125 C 164.972656 149.597656 165.175781 147.558594 165.585938 145.078125 L 166.546875 139 C 167.601562 134.566406 168.125 130.457031 168.125 126.664062 C 167.804688 121.53125 167.351562 118.96875 166.769531 118.96875 C 166.328125 118.96875 166.109375 119.199219 166.109375 119.667969 C 166.109375 121.589844 166.34375 123.910156 166.8125 126.621094 L 166.417969 129.8125 C 164.316406 128.035156 163.191406 125.804688 163.042969 123.121094 L 162.34375 115.160156 C 162.34375 114.199219 162.519531 113.324219 162.867188 112.539062 C 163.21875 111.722656 163.394531 110.539062 163.394531 108.996094 C 163.394531 107.683594 163.277344 106.71875 163.042969 106.109375 C 162.8125 105.496094 162.695312 104.386719 162.695312 102.785156 C 162.695312 101.53125 162.882812 100.015625 163.261719 98.234375 L 163.394531 97.667969 L 163.394531 97.625 L 163.921875 93.992188 C 163.921875 93.496094 163.703125 93.25 163.261719 93.25 C 163.058594 93.25 162.796875 94.082031 162.476562 95.742188 C 161.21875 92.886719 160.589844 90.597656 160.589844 88.875 L 161.90625 83.800781 C 162.78125 80.273438 163.21875 76.863281 163.21875 73.566406 C 163.394531 71.613281 163.175781 70.503906 162.5625 70.242188 C 162.300781 68.40625 161.699219 66.421875 160.765625 64.292969 C 159.480469 61.320312 158.839844 58.230469 158.839844 55.023438 C 158.839844 51.40625 159.480469 47.820312 160.765625 44.261719 L 162.695312 38.75 C 164.066406 38.664062 166.59375 37.949219 170.273438 36.609375 C 173.71875 35.324219 176.214844 34.261719 177.761719 33.414062 L 178.902344 32.976562 C 179.28125 34.609375 179.03125 36.957031 178.15625 40.019531 C 177.074219 43.695312 176.535156 46.261719 176.535156 47.71875 C 176.535156 49.933594 177.617188 53.695312 179.777344 59.003906 C 181.9375 64.28125 183.019531 67.894531 183.019531 69.847656 C 183.398438 71.480469 182.027344 72.296875 178.902344 72.296875 L 175.835938 71.90625 L 173.25 71.292969 L 173.03125 71.378906 L 183.019531 85.550781 C 180.273438 85.609375 178.636719 85.84375 178.113281 86.25 L 174.039062 80.957031 L 166.941406 67.355469 C 166.503906 67.355469 166.285156 67.75 166.285156 68.539062 L 166.503906 69.761719 L 166.417969 69.761719 L 166.417969 70.113281 L 166.199219 70.285156 L 166.417969 73.171875 L 166.460938 73.609375 L 166.503906 73.609375 C 166.710938 75.15625 167.074219 76.964844 167.601562 79.035156 C 168.273438 81.863281 169.425781 84.792969 171.058594 87.824219 L 175.964844 96.617188 C 180.199219 102.246094 182.316406 105.234375 182.316406 105.582031 C 182.316406 106.050781 181.617188 107.363281 180.214844 109.519531 C 178.8125 111.675781 178.113281 113.980469 178.113281 116.429688 L 180.566406 121.808594 C 182.144531 125.222656 183.265625 127.992188 183.9375 130.121094 L 183.71875 130.296875 L 184.816406 133.96875 L 185.472656 137.511719 C 185.472656 139.667969 184.652344 141.449219 183.019531 142.847656 C 181.382812 144.246094 180.566406 145.75 180.566406 147.351562 C 180.566406 148.140625 181.734375 150.019531 184.070312 152.996094 C 186.40625 155.941406 187.574219 158.667969 187.574219 161.175781 L 185.558594 165.546875 C 184.214844 168.523438 183.542969 170.503906 183.542969 171.496094 C 183.542969 172.019531 184.070312 172.894531 185.121094 174.121094 C 186.171875 175.34375 186.699219 176.234375 186.699219 176.789062 C 186.699219 177.402344 185.910156 178.320312 184.332031 179.542969 C 182.757812 180.769531 181.96875 182.417969 181.96875 184.488281 C 181.96875 185.449219 182.203125 187.402344 182.667969 190.347656 C 182.667969 190.640625 182.550781 190.785156 182.316406 190.785156 L 182.316406 191.132812 M 175.003906 115.816406 C 174.738281 115.816406 174.289062 118.515625 173.644531 123.910156 L 172.769531 132.089844 L 172.8125 134.929688 L 173.425781 135.148438 C 173.777344 135.148438 174.519531 129.171875 175.660156 117.21875 C 175.804688 116.285156 175.585938 115.816406 175.003906 115.816406 "/>
<path style=" stroke:none;fill-rule:evenodd;fill:rgb(67.843139%,63.529414%,70.19608%);fill-opacity:1;" d="M 178.902344 32.976562 L 178.859375 32.847656 L 179.121094 32.847656 L 179.121094 32.890625 C 180.492188 32.367188 182.785156 31.621094 185.996094 30.660156 C 188.246094 29.988281 189.792969 29.332031 190.640625 28.691406 C 194.496094 36.945312 196.421875 42.441406 196.421875 45.179688 C 196.421875 47.515625 196.246094 49.261719 195.898438 50.429688 C 195.402344 52.121094 194.992188 54.554688 194.671875 57.734375 L 192.742188 70.375 L 192.742188 70.941406 C 192.800781 71.292969 193.019531 71.46875 193.398438 71.46875 C 194.042969 71.46875 194.65625 69.398438 195.238281 65.257812 L 196.597656 68.539062 C 198 71.746094 198.699219 73.859375 198.699219 74.878906 L 196.949219 78.992188 C 195.78125 81.585938 195.195312 84.28125 195.195312 87.082031 L 195.195312 87.871094 C 195.253906 88.160156 195.355469 88.363281 195.503906 88.480469 L 195.371094 88.746094 L 195.195312 89.136719 L 193.75 86.382812 L 193.707031 86.296875 L 193.707031 86.03125 L 193.226562 85.507812 C 192.261719 84.019531 191.5625 83.277344 191.121094 83.277344 L 191.078125 83.277344 C 187.371094 79.542969 184.960938 77.679688 183.851562 77.679688 C 183.238281 77.679688 182.929688 77.910156 182.929688 78.378906 L 190.683594 84.808594 C 191.09375 85.710938 192.070312 87.039062 193.621094 88.789062 L 195.546875 93.644531 C 195.75 94.253906 195.839844 96.195312 195.808594 99.460938 L 195.851562 100.902344 C 195.386719 100 195.035156 99.546875 194.800781 99.546875 C 194.363281 99.546875 194.144531 99.796875 194.144531 100.292969 C 194.144531 100.523438 195.125 102.914062 197.078125 107.464844 C 197.3125 108.398438 197.765625 109.855469 198.4375 111.835938 C 198.613281 112.332031 198.699219 113.324219 198.699219 114.8125 C 198.699219 118.777344 197.941406 123.355469 196.421875 128.546875 C 194.902344 133.707031 194.144531 137.875 194.144531 141.054688 L 194.496094 145.648438 C 194.640625 147.019531 194.816406 148.082031 195.019531 148.839844 C 193.386719 147.003906 192.4375 146.085938 192.175781 146.085938 C 191.734375 146.085938 191.515625 146.347656 191.515625 146.871094 C 191.515625 147.425781 192.800781 149.058594 195.371094 151.769531 C 197.941406 155.09375 199.226562 158.492188 199.226562 161.960938 L 199.050781 167.035156 C 198.992188 168.113281 198.363281 169.789062 197.167969 172.066406 C 195.910156 170.722656 195.007812 170.054688 194.453125 170.054688 C 193.898438 170.054688 193.621094 170.273438 193.621094 170.710938 L 201.546875 179.5 L 197.167969 186.148438 C 194.21875 190.464844 192.742188 192.972656 192.742188 193.671875 L 192.789062 193.804688 L 191.515625 192.796875 C 189.792969 191.628906 187.53125 191.046875 184.726562 191.046875 L 183.238281 191.132812 L 182.976562 191.132812 L 182.886719 191.222656 L 182.40625 191.179688 C 182.375 191.296875 182.347656 191.28125 182.316406 191.132812 L 182.316406 190.785156 C 182.550781 190.785156 182.667969 190.640625 182.667969 190.347656 C 182.203125 187.402344 181.96875 185.449219 181.96875 184.488281 C 181.96875 182.417969 182.757812 180.769531 184.332031 179.542969 C 185.910156 178.320312 186.699219 177.402344 186.699219 176.789062 C 186.699219 176.234375 186.171875 175.34375 185.121094 174.121094 C 184.070312 172.894531 183.542969 172.019531 183.542969 171.496094 C 183.542969 170.503906 184.214844 168.523438 185.558594 165.546875 L 187.574219 161.175781 C 187.574219 158.667969 186.40625 155.941406 184.070312 152.996094 C 181.734375 150.019531 180.566406 148.140625 180.566406 147.351562 C 180.566406 145.75 181.382812 144.246094 183.019531 142.847656 C 184.652344 141.449219 185.472656 139.667969 185.472656 137.511719 L 184.816406 133.96875 L 183.71875 130.296875 L 183.9375 130.121094 C 183.265625 127.992188 182.144531 125.222656 180.566406 121.808594 L 178.113281 116.429688 C 178.113281 113.980469 178.8125 111.675781 180.214844 109.519531 C 181.617188 107.363281 182.316406 106.050781 182.316406 105.582031 C 182.316406 105.234375 180.199219 102.246094 175.964844 96.617188 L 171.058594 87.824219 C 169.425781 84.792969 168.273438 81.863281 167.601562 79.035156 C 167.074219 76.964844 166.710938 75.15625 166.503906 73.609375 L 166.460938 73.609375 L 166.417969 73.171875 L 166.199219 70.285156 L 166.417969 70.113281 L 166.417969 69.761719 L 166.679688 69.761719 L 166.8125 70.59375 C 167.6875 72.925781 169.777344 76.703125 173.074219 81.921875 C 175.03125 84.339844 178.300781 88.789062 182.886719 95.261719 C 183.324219 95.261719 183.542969 95.042969 183.542969 94.605469 C 183.542969 93.789062 182.027344 91.367188 178.988281 87.34375 L 178.464844 86.6875 L 178.023438 86.730469 C 177.96875 86.878906 177.9375 86.804688 177.9375 86.511719 L 178.113281 86.25 C 178.636719 85.84375 180.273438 85.609375 183.019531 85.550781 L 173.03125 71.378906 L 173.25 71.292969 L 175.835938 71.90625 L 178.902344 72.296875 C 182.027344 72.296875 183.398438 71.480469 183.019531 69.847656 C 183.019531 67.894531 181.9375 64.28125 179.777344 59.003906 C 177.617188 53.695312 176.535156 49.933594 176.535156 47.71875 C 176.535156 46.261719 177.074219 43.695312 178.15625 40.019531 C 179.03125 36.957031 179.28125 34.609375 178.902344 32.976562 "/>
<path style=" stroke:none;fill-rule:evenodd;fill:rgb(3.529412%,0%,0.392157%);fill-opacity:1;" d="M 179.558594 26.679688 L 179.558594 26.550781 L 179.820312 26.550781 L 179.820312 26.59375 L 184.027344 25.191406 L 189.632812 23.226562 C 189.664062 24.214844 189.824219 25.585938 190.113281 27.335938 C 190.113281 27.597656 188.582031 28.253906 185.515625 29.304688 L 178.988281 31.535156 L 178.859375 31.929688 L 178.550781 31.972656 L 178.464844 31.710938 L 178.464844 31.492188 C 179.105469 29.390625 179.472656 27.789062 179.558594 26.679688 "/>
</g>
</svg>
