<?xml version="1.0" encoding="UTF-8"?>
<svg xmlns="http://www.w3.org/2000/svg" xmlns:xlink="http://www.w3.org/1999/xlink" width="203px" height="249px" viewBox="0 0 203 249" version="1.1">
<g id="surface1">
<path style=" stroke:none;fill-rule:evenodd;fill:rgb(92.156863%,92.54902%,90.196079%);fill-opacity:1;" d="M 57.433594 109.78125 L 57.125 110.21875 L 53.753906 114.8125 L 51.214844 118.53125 L 47.140625 117 C 44.074219 116.007812 42.25 115.496094 41.664062 115.46875 C 38.363281 115.058594 36.21875 114.332031 35.226562 113.28125 C 34.726562 112.785156 34.40625 111.867188 34.261719 110.527344 L 33.558594 103.441406 C 33.179688 100.496094 32.726562 99.023438 32.203125 99.023438 C 31.765625 99.023438 31.546875 99.589844 31.546875 100.726562 C 31.546875 101.398438 31.894531 103.179688 32.597656 106.066406 L 31.0625 104.972656 L 24.449219 97.972656 L 24.449219 97.667969 C 23.632812 93.234375 23.222656 90.347656 23.222656 89.007812 C 23.222656 86.90625 21.484375 83.976562 18.011719 80.214844 L 10.039062 71.554688 C 9.394531 70.738281 8.519531 69.019531 7.410156 66.394531 L 6.882812 64.996094 L 6.925781 64.511719 C 6.925781 64.222656 5.992188 62.136719 4.125 58.257812 C 2.253906 54.378906 1.320312 51.171875 1.320312 48.636719 C 1.320312 47.527344 1.511719 46.15625 1.890625 44.523438 C 2.328125 42.660156 2.839844 41.40625 3.421875 40.765625 C 6.605469 37.265625 8.300781 34.640625 8.503906 32.890625 C 8.707031 31.023438 9.058594 29.65625 9.554688 28.78125 C 10.375 27.351562 11.90625 26.15625 14.15625 25.191406 C 20.199219 22.65625 23.222656 20.148438 23.222656 17.671875 L 23.222656 17.625 L 28.128906 9.929688 C 29.152344 8.617188 31.050781 7.433594 33.824219 6.386719 L 41.09375 5.117188 C 43.925781 4.710938 45.722656 4.375 46.484375 4.113281 C 47.183594 5.308594 49.652344 7.273438 53.886719 10.015625 L 56.25 12.117188 L 55.855469 11.984375 C 55.039062 12.859375 54.28125 14.289062 53.578125 16.269531 C 52.847656 18.371094 52.132812 19.871094 51.433594 20.777344 C 49.914062 22.757812 48.542969 24.246094 47.316406 25.238281 C 43.460938 27.335938 41.210938 28.765625 40.570312 29.523438 C 39.519531 30.746094 38.992188 32.265625 38.992188 34.070312 L 39.167969 38.445312 C 39.050781 39.40625 38.613281 40.109375 37.851562 40.546875 C 36.742188 41.1875 34.554688 41.683594 31.28125 42.03125 L 24.976562 42.644531 C 20.886719 43.109375 18.84375 43.546875 18.84375 43.957031 C 18.84375 44.25 18.871094 44.335938 18.929688 44.21875 L 21.996094 46.101562 C 19.425781 46.769531 16.828125 48.039062 14.199219 49.90625 L 13.058594 50.605469 L 21.691406 55.285156 C 20.785156 55.460938 19.820312 56.085938 18.796875 57.164062 C 17.894531 58.15625 17.441406 58.886719 17.441406 59.351562 C 17.441406 59.644531 17.46875 59.730469 17.527344 59.613281 L 24.84375 59.660156 L 27.207031 59.175781 L 32.859375 58.957031 L 32.859375 59.046875 L 33.472656 60.621094 C 33.882812 61.613281 34.085938 62.488281 34.085938 63.246094 C 34.085938 64.179688 33.824219 65.054688 33.296875 65.871094 C 32.773438 66.714844 32.507812 67.589844 32.507812 68.492188 C 32.507812 70.011719 33.953125 73.378906 36.84375 78.597656 L 37.328125 83.410156 C 37.472656 85.625 38.042969 87.445312 39.035156 88.875 L 39.296875 89.75 C 39.589844 90.421875 40.757812 91.164062 42.804688 91.980469 L 47.707031 93.773438 C 49.109375 94.386719 50 95.246094 50.382812 96.355469 C 50.613281 96.996094 50.789062 97.898438 50.90625 99.066406 C 51.519531 101.164062 52.570312 103.441406 54.058594 105.890625 C 55.492188 108.28125 56.617188 109.578125 57.433594 109.78125 M 20.636719 46.625 L 21.425781 46.40625 L 20.683594 46.753906 L 20.636719 46.625 "/>
<path style=" stroke:none;fill-rule:evenodd;fill:rgb(0%,0%,0%);fill-opacity:1;" d="M 56.25 12.117188 L 53.886719 10.015625 C 49.652344 7.273438 47.183594 5.308594 46.484375 4.113281 C 45.722656 4.375 43.925781 4.710938 41.09375 5.117188 L 33.824219 6.386719 C 31.050781 7.433594 29.152344 8.617188 28.128906 9.929688 L 23.222656 17.625 L 23.222656 17.671875 C 23.222656 20.148438 20.199219 22.65625 14.15625 25.191406 C 11.90625 26.15625 10.375 27.351562 9.554688 28.78125 C 9.058594 29.65625 8.707031 31.023438 8.503906 32.890625 C 8.300781 34.640625 6.605469 37.265625 3.421875 40.765625 C 2.839844 41.40625 2.328125 42.660156 1.890625 44.523438 C 1.511719 46.15625 1.320312 47.527344 1.320312 48.636719 C 1.320312 51.171875 2.253906 54.378906 4.125 58.257812 C 5.992188 62.136719 6.925781 64.222656 6.925781 64.511719 L 6.882812 64.996094 L 7.410156 66.394531 C 8.519531 69.019531 9.394531 70.738281 10.039062 71.554688 L 18.011719 80.214844 C 21.484375 83.976562 23.222656 86.90625 23.222656 89.007812 C 23.222656 90.347656 23.632812 93.234375 24.449219 97.667969 L 24.449219 97.972656 L 31.0625 104.972656 L 32.597656 106.066406 C 31.894531 103.179688 31.546875 101.398438 31.546875 100.726562 C 31.546875 99.589844 31.765625 99.023438 32.203125 99.023438 C 32.726562 99.023438 33.179688 100.496094 33.558594 103.441406 L 34.261719 110.527344 C 34.40625 111.867188 34.726562 112.785156 35.226562 113.28125 C 36.21875 114.332031 38.363281 115.058594 41.664062 115.46875 C 42.25 115.496094 44.074219 116.007812 47.140625 117 L 51.214844 118.53125 L 53.753906 114.8125 L 57.125 110.21875 L 57.433594 109.78125 L 57.652344 109.824219 C 57.945312 109.824219 58.0625 109.78125 58.003906 109.695312 L 57.960938 109.5625 L 57.738281 109.300781 C 60.601562 105.015625 62.355469 102.578125 62.996094 101.996094 C 62.675781 101.617188 62.585938 100.292969 62.734375 98.015625 C 62.9375 94.953125 62.339844 92.871094 60.9375 91.761719 C 59.914062 90.945312 56.863281 89.066406 51.78125 86.121094 C 47.753906 83.757812 45.738281 82.269531 45.738281 81.660156 C 45.738281 81.105469 45.957031 80.828125 46.394531 80.828125 C 46.65625 80.828125 48.394531 81.949219 51.609375 84.195312 L 53.578125 85.246094 L 53.054688 83.757812 C 52.441406 81.980469 52.046875 80.625 51.871094 79.691406 L 49.15625 73 L 48.058594 69.5 C 47.652344 68.160156 47.066406 67.09375 46.308594 66.308594 C 45.140625 65.082031 43.34375 63.742188 40.917969 62.28125 C 38.992188 61.144531 38.027344 60.359375 38.027344 59.921875 C 38.027344 59.511719 38.277344 59.308594 38.773438 59.308594 L 40.394531 59.703125 L 40.65625 56.597656 C 40.65625 54.730469 39.546875 52.835938 37.328125 50.910156 L 37.019531 50.691406 L 35.925781 49.816406 C 32.773438 47.515625 31.195312 45.9375 31.195312 45.09375 C 31.195312 44.539062 31.414062 44.261719 31.851562 44.261719 L 34.304688 46.710938 C 35.472656 47.820312 36.496094 48.722656 37.371094 49.425781 C 37.925781 48.695312 39.136719 47.980469 41.007812 47.28125 L 46.964844 45.09375 C 48.863281 44.015625 50.703125 42.207031 52.484375 39.671875 L 55.59375 36.957031 C 56.878906 35.761719 57.625 34.773438 57.828125 33.984375 L 58.265625 30.746094 C 58.527344 29.144531 58.835938 28.34375 59.183594 28.34375 C 59.769531 28.34375 59.988281 28.808594 59.84375 29.742188 L 59.578125 32.234375 C 60.191406 32 60.734375 31.652344 61.199219 31.183594 L 61.945312 30.003906 L 62.164062 29.742188 C 61.667969 28.953125 61.128906 27.421875 60.542969 25.148438 L 59.40625 19.902344 L 59.753906 17.015625 L 59.84375 16.53125 L 59.796875 16.488281 L 59.796875 16.007812 L 56.382812 12.246094 L 56.425781 12.160156 L 56.25 12.117188 M 27.078125 9.140625 C 27.984375 7.945312 29.648438 6.792969 32.070312 5.6875 C 35.75 3.996094 40.058594 3.148438 44.992188 3.148438 L 46.351562 3.324219 L 48.191406 1.574219 C 49.503906 0.523438 50.394531 0 50.863281 0 C 51.242188 0 51.503906 0.0859375 51.652344 0.261719 C 53.753906 0.84375 57.332031 4.285156 62.382812 10.585938 L 62.601562 10.890625 L 62.820312 11.152344 C 62.820312 11.503906 62.675781 11.722656 62.382812 11.808594 L 61.289062 13.996094 L 61.199219 14.871094 L 61.246094 15.222656 C 61.246094 16.359375 61.070312 17.945312 60.71875 19.988281 C 60.71875 21.5625 61.1875 23.457031 62.121094 25.675781 C 63.027344 27.773438 63.492188 29.011719 63.523438 29.390625 C 63.640625 29.507812 63.699219 29.667969 63.699219 29.871094 C 63.699219 30.339844 63.230469 31.070312 62.296875 32.058594 C 61.273438 33.140625 60.324219 33.679688 59.449219 33.679688 L 59.140625 33.679688 C 58.148438 36.15625 56.234375 38.519531 53.402344 40.765625 L 51.214844 43.476562 C 50.21875 44.757812 49.125 45.617188 47.929688 46.054688 L 38.90625 50.515625 C 40.394531 51.480469 41.328125 52.5 41.707031 53.578125 C 41.882812 54.074219 41.96875 55.09375 41.96875 56.640625 C 41.96875 58.417969 41.855469 59.660156 41.621094 60.359375 L 43.808594 61.933594 C 45.417969 63.273438 46.644531 64.5 47.488281 65.605469 C 48.277344 66.628906 49.167969 68.769531 50.160156 72.035156 L 52.921875 78.378906 C 54.148438 81.0625 54.761719 83.160156 54.761719 84.675781 L 54.671875 85.8125 L 57.566406 87.605469 L 62.777344 91.367188 C 63.625 91.980469 64.046875 92.957031 64.046875 94.300781 C 63.960938 98.585938 63.753906 101.109375 63.433594 101.867188 C 64.164062 102.011719 65.011719 102.929688 65.976562 104.621094 L 66.105469 104.882812 L 66.148438 104.925781 L 66.148438 105.191406 C 66.148438 105.683594 65.433594 107.15625 64.003906 109.605469 L 61.332031 113.851562 C 57.652344 119.300781 55.390625 122.027344 54.542969 122.027344 C 54.425781 122.234375 54.191406 122.347656 53.839844 122.378906 C 52.789062 122.378906 52 121.839844 51.476562 120.761719 L 51.257812 119.929688 C 50.410156 119.898438 48.671875 119.375 46.042969 118.355469 C 43.152344 117.246094 40.933594 116.605469 39.386719 116.429688 C 36.613281 116.109375 34.832031 115.425781 34.042969 114.375 L 33.167969 111.621094 C 32.933594 111.007812 32.816406 110.089844 32.816406 108.863281 L 32.816406 108.078125 C 32.4375 107.902344 31.894531 107.507812 31.195312 106.894531 L 30.539062 106.328125 L 28.433594 104.535156 L 26.15625 102.039062 C 24.027344 100.117188 22.960938 98.671875 22.960938 97.710938 L 23.046875 97.359375 L 22.609375 95.390625 C 22.140625 93.207031 21.910156 91.414062 21.910156 90.011719 C 21.910156 88.058594 20.332031 85.128906 17.175781 81.222656 L 9.601562 72.515625 C 6.882812 69.164062 5.453125 66.363281 5.308594 64.121094 C 4.578125 62.777344 3.554688 60.402344 2.242188 56.992188 L 0.269531 52.136719 C 0.09375 51.667969 0.0078125 50.503906 0.0078125 48.636719 C 0.0078125 44.816406 0.679688 41.972656 2.023438 40.109375 L 4.253906 37.132812 C 5.335938 35.675781 6.3125 34.027344 7.191406 32.191406 C 7.804688 30.414062 8.34375 29.054688 8.8125 28.125 C 9.628906 26.492188 10.957031 25.222656 12.796875 24.316406 C 16.886719 22.277344 19.046875 21.125 19.28125 20.863281 L 22.082031 17.363281 C 22.230469 16.140625 23.894531 13.398438 27.078125 9.140625 M 58.660156 8.265625 L 56.820312 6.386719 C 53.609375 3.90625 51.59375 2.261719 50.773438 1.441406 L 47.796875 3.585938 C 48.175781 4.023438 50.746094 6.019531 55.507812 9.578125 L 56.777344 10.539062 L 56.6875 10.804688 C 56.6875 10.917969 56.820312 10.992188 57.082031 11.023438 L 57.214844 10.890625 L 60.019531 13.644531 L 60.324219 12.683594 C 60.585938 11.867188 60.878906 11.285156 61.199219 10.933594 L 59.011719 8.617188 L 59.230469 8.222656 C 59.230469 7.929688 59.183594 7.859375 59.097656 8.003906 L 58.660156 8.265625 M 32.683594 49.816406 C 32.683594 50.109375 32.277344 50.253906 31.457031 50.253906 L 22.304688 50.910156 L 19.0625 52.222656 C 18.738281 52.222656 18.535156 52.121094 18.449219 51.917969 L 18.402344 51.609375 C 18.402344 49.976562 21.835938 49.160156 28.699219 49.160156 C 32.085938 49.160156 33.414062 49.378906 32.683594 49.816406 M 63.257812 103.484375 C 61.535156 106.3125 59.785156 108.9375 58.003906 111.355469 L 52.308594 119.097656 C 52.308594 119.476562 52.6875 119.972656 53.445312 120.585938 L 54.058594 121.109375 L 60.410156 112.757812 C 62.367188 108.847656 63.785156 106.328125 64.660156 105.191406 L 64.355469 104.796875 L 63.257812 103.484375 "/>
<path style=" stroke:none;fill-rule:evenodd;fill:rgb(17.254902%,10.588235%,24.705882%);fill-opacity:1;" d="M 56.777344 10.539062 L 55.507812 9.578125 C 50.746094 6.019531 48.175781 4.023438 47.796875 3.585938 L 50.773438 1.441406 C 51.59375 2.261719 53.609375 3.90625 56.820312 6.386719 L 58.660156 8.265625 L 57.566406 9.402344 L 56.777344 10.539062 M 63.257812 103.484375 L 64.355469 104.796875 L 64.660156 105.191406 C 63.785156 106.328125 62.367188 108.847656 60.410156 112.757812 L 54.058594 121.109375 L 53.445312 120.585938 C 52.6875 119.972656 52.308594 119.476562 52.308594 119.097656 L 58.003906 111.355469 C 59.785156 108.9375 61.535156 106.3125 63.257812 103.484375 "/>
<path style=" stroke:none;fill-rule:evenodd;fill:rgb(3.529412%,0%,0.392157%);fill-opacity:1;" d="M 56.777344 10.539062 L 57.566406 9.402344 L 58.660156 8.265625 L 59.097656 8.003906 C 59.183594 7.859375 59.230469 7.929688 59.230469 8.222656 L 59.011719 8.617188 L 61.199219 10.933594 C 60.878906 11.285156 60.585938 11.867188 60.324219 12.683594 L 60.019531 13.644531 L 57.214844 10.890625 L 57.082031 11.023438 C 56.820312 10.992188 56.6875 10.917969 56.6875 10.804688 L 56.777344 10.539062 "/>
<path style=" stroke:none;fill-rule:evenodd;fill:rgb(67.843139%,63.529414%,70.19608%);fill-opacity:1;" d="M 57.433594 109.78125 C 56.617188 109.578125 55.492188 108.28125 54.058594 105.890625 C 52.570312 103.441406 51.519531 101.164062 50.90625 99.066406 C 50.789062 97.898438 50.613281 96.996094 50.382812 96.355469 C 50 95.246094 49.109375 94.386719 47.707031 93.773438 L 42.804688 91.980469 C 40.757812 91.164062 39.589844 90.421875 39.296875 89.75 L 39.035156 88.875 C 38.042969 87.445312 37.472656 85.625 37.328125 83.410156 L 36.84375 78.597656 C 33.953125 73.378906 32.507812 70.011719 32.507812 68.492188 C 32.507812 67.589844 32.773438 66.714844 33.296875 65.871094 C 33.824219 65.054688 34.085938 64.179688 34.085938 63.246094 C 34.085938 62.488281 33.882812 61.613281 33.472656 60.621094 L 32.859375 59.046875 L 32.859375 58.957031 L 27.207031 59.175781 L 24.84375 59.660156 L 17.527344 59.613281 C 17.46875 59.730469 17.441406 59.644531 17.441406 59.351562 C 17.441406 58.886719 17.894531 58.15625 18.796875 57.164062 C 19.820312 56.085938 20.785156 55.460938 21.691406 55.285156 L 13.058594 50.605469 L 14.199219 49.90625 C 16.828125 48.039062 19.425781 46.769531 21.996094 46.101562 L 18.929688 44.21875 C 18.871094 44.335938 18.84375 44.25 18.84375 43.957031 C 18.84375 43.546875 20.886719 43.109375 24.976562 42.644531 L 31.28125 42.03125 C 34.554688 41.683594 36.742188 41.1875 37.851562 40.546875 C 38.613281 40.109375 39.050781 39.40625 39.167969 38.445312 L 38.992188 34.070312 C 38.992188 32.265625 39.519531 30.746094 40.570312 29.523438 C 41.210938 28.765625 43.460938 27.335938 47.316406 25.238281 C 48.542969 24.246094 49.914062 22.757812 51.433594 20.777344 C 52.132812 19.871094 52.847656 18.371094 53.578125 16.269531 C 54.28125 14.289062 55.039062 12.859375 55.855469 11.984375 L 56.25 12.117188 L 56.425781 12.160156 L 56.382812 12.246094 L 59.796875 16.007812 L 59.796875 16.488281 L 59.84375 16.53125 L 59.753906 17.015625 L 59.40625 19.902344 L 60.542969 25.148438 C 61.128906 27.421875 61.667969 28.953125 62.164062 29.742188 L 61.945312 30.003906 L 61.199219 31.183594 C 60.734375 31.652344 60.191406 32 59.578125 32.234375 L 59.84375 29.742188 C 59.988281 28.808594 59.769531 28.34375 59.183594 28.34375 C 58.835938 28.34375 58.527344 29.144531 58.265625 30.746094 L 57.828125 33.984375 C 57.625 34.773438 56.878906 35.761719 55.59375 36.957031 L 52.484375 39.671875 C 50.703125 42.207031 48.863281 44.015625 46.964844 45.09375 L 41.007812 47.28125 C 39.136719 47.980469 37.925781 48.695312 37.371094 49.425781 C 36.496094 48.722656 35.472656 47.820312 34.304688 46.710938 L 31.851562 44.261719 C 31.414062 44.261719 31.195312 44.539062 31.195312 45.09375 C 31.195312 45.9375 32.773438 47.515625 35.925781 49.816406 L 37.019531 50.691406 L 37.328125 50.910156 C 39.546875 52.835938 40.65625 54.730469 40.65625 56.597656 L 40.394531 59.703125 L 38.773438 59.308594 C 38.277344 59.308594 38.027344 59.511719 38.027344 59.921875 C 38.027344 60.359375 38.992188 61.144531 40.917969 62.28125 C 43.34375 63.742188 45.140625 65.082031 46.308594 66.308594 C 47.066406 67.09375 47.652344 68.160156 48.058594 69.5 L 49.15625 73 L 51.871094 79.691406 C 52.046875 80.625 52.441406 81.980469 53.054688 83.757812 L 53.578125 85.246094 L 51.609375 84.195312 C 48.394531 81.949219 46.65625 80.828125 46.394531 80.828125 C 45.957031 80.828125 45.738281 81.105469 45.738281 81.660156 C 45.738281 82.269531 47.753906 83.757812 51.78125 86.121094 C 56.863281 89.066406 59.914062 90.945312 60.9375 91.761719 C 62.339844 92.871094 62.9375 94.953125 62.734375 98.015625 C 62.585938 100.292969 62.675781 101.617188 62.996094 101.996094 C 62.355469 102.578125 60.601562 105.015625 57.738281 109.300781 L 57.960938 109.5625 L 58.003906 109.695312 C 58.0625 109.78125 57.945312 109.824219 57.652344 109.824219 L 57.433594 109.78125 M 32.683594 49.816406 C 33.414062 49.378906 32.085938 49.160156 28.699219 49.160156 C 21.835938 49.160156 18.402344 49.976562 18.402344 51.609375 L 18.449219 51.917969 C 18.535156 52.121094 18.738281 52.222656 19.0625 52.222656 L 22.304688 50.910156 L 31.457031 50.253906 C 32.277344 50.253906 32.683594 50.109375 32.683594 49.816406 M 20.636719 46.625 L 20.683594 46.753906 L 21.425781 46.40625 L 20.636719 46.625 "/>
</g>
</svg>
