<?xml version="1.0" encoding="UTF-8"?>
<svg xmlns="http://www.w3.org/2000/svg" xmlns:xlink="http://www.w3.org/1999/xlink" width="203px" height="249px" viewBox="0 0 203 249" version="1.1">
<g id="surface1">
<path style=" stroke:none;fill-rule:evenodd;fill:rgb(92.156863%,92.54902%,90.196079%);fill-opacity:1;" d="M 57.433594 109.78125 L 57.125 110.21875 L 53.753906 114.8125 L 51.214844 118.53125 L 47.140625 117 C 44.074219 116.007812 42.25 115.496094 41.664062 115.46875 C 38.363281 115.058594 36.21875 114.332031 35.226562 113.28125 C 34.726562 112.785156 34.40625 111.867188 34.261719 110.527344 L 33.558594 103.441406 C 33.179688 100.496094 32.726562 99.023438 32.203125 99.023438 C 31.765625 99.023438 31.546875 99.589844 31.546875 100.726562 C 31.546875 101.398438 31.894531 103.179688 32.597656 106.066406 L 31.0625 104.972656 L 24.449219 97.972656 L 24.449219 97.667969 C 23.632812 93.234375 23.222656 90.347656 23.222656 89.007812 C 23.222656 86.90625 21.484375 83.976562 18.011719 80.214844 L 10.039062 71.554688 C 9.394531 70.738281 8.519531 69.019531 7.410156 66.394531 L 6.882812 64.996094 L 6.925781 64.511719 C 6.925781 64.222656 5.992188 62.136719 4.125 58.257812 C 2.253906 54.378906 1.320312 51.171875 1.320312 48.636719 C 1.320312 47.527344 1.511719 46.15625 1.890625 44.523438 C 2.328125 42.660156 2.839844 41.40625 3.421875 40.765625 C 6.605469 37.265625 8.300781 34.640625 8.503906 32.890625 C 8.707031 31.023438 9.058594 29.65625 9.554688 28.78125 C 10.375 27.351562 11.90625 26.15625 14.15625 25.191406 C 20.199219 22.65625 23.222656 20.148438 23.222656 17.671875 L 23.222656 17.625 L 28.128906 9.929688 C 29.152344 8.617188 31.050781 7.433594 33.824219 6.386719 L 41.09375 5.117188 C 43.925781 4.710938 45.722656 4.375 46.484375 4.113281 C 47.183594 5.308594 49.652344 7.273438 53.886719 10.015625 L 56.25 12.117188 L 55.855469 11.984375 C 55.039062 12.859375 54.28125 14.289062 53.578125 16.269531 C 52.847656 18.371094 52.132812 19.871094 51.433594 20.777344 C 49.914062 22.757812 48.542969 24.246094 47.316406 25.238281 C 43.460938 27.335938 41.210938 28.765625 40.570312 29.523438 C 39.519531 30.746094 38.992188 32.265625 38.992188 34.070312 L 39.167969 38.445312 C 39.050781 39.40625 38.613281 40.109375 37.851562 40.546875 C 36.742188 41.1875 34.554688 41.683594 31.28125 42.03125 L 24.976562 42.644531 C 20.886719 43.109375 18.84375 43.546875 18.84375 43.957031 C 18.84375 44.25 18.871094 44.335938 18.929688 44.21875 L 21.996094 46.101562 C 19.425781 46.769531 16.828125 48.039062 14.199219 49.90625 L 13.058594 50.605469 L 21.691406 55.285156 C 20.785156 55.460938 19.820312 56.085938 18.796875 57.164062 C 17.894531 58.15625 17.441406 58.886719 17.441406 59.351562 C 17.441406 59.644531 17.46875 59.730469 17.527344 59.613281 L 24.84375 59.660156 L 27.207031 59.175781 L 32.859375 58.957031 L 32.859375 59.046875 L 33.472656 60.621094 C 33.882812 61.613281 34.085938 62.488281 34.085938 63.246094 C 34.085938 64.179688 33.824219 65.054688 33.296875 65.871094 C 32.773438 66.714844 32.507812 67.589844 32.507812 68.492188 C 32.507812 70.011719 33.953125 73.378906 36.84375 78.597656 L 37.328125 83.410156 C 37.472656 85.625 38.042969 87.445312 39.035156 88.875 L 39.296875 89.75 C 39.589844 90.421875 40.757812 91.164062 42.804688 91.980469 L 47.707031 93.773438 C 49.109375 94.386719 50 95.246094 50.382812 96.355469 C 50.613281 96.996094 50.789062 97.898438 50.90625 99.066406 C 51.519531 101.164062 52.570312 103.441406 54.058594 105.890625 C 55.492188 108.28125 56.617188 109.578125 57.433594 109.78125 M 182.316406 191.132812 C 176.855469 191.191406 173.28125 191.5 171.585938 192.054688 C 169.746094 188.757812 168.828125 186.367188 168.828125 184.878906 C 168.828125 182.605469 169.351562 178.203125 170.402344 171.671875 L 171.980469 161.523438 C 171.949219 161.027344 171.730469 160.78125 171.324219 160.78125 C 171.089844 160.78125 170.796875 161.613281 170.445312 163.273438 C 168.316406 161.203125 167 159.277344 166.503906 157.5 C 165.484375 154.261719 164.972656 152.164062 164.972656 151.203125 C 164.972656 149.597656 165.175781 147.558594 165.585938 145.078125 L 166.546875 139 C 167.601562 134.566406 168.125 130.457031 168.125 126.664062 C 167.804688 121.53125 167.351562 118.96875 166.769531 118.96875 C 166.328125 118.96875 166.109375 119.199219 166.109375 119.667969 C 166.109375 121.589844 166.34375 123.910156 166.8125 126.621094 L 166.417969 129.8125 C 164.316406 128.035156 163.191406 125.804688 163.042969 123.121094 L 162.34375 115.160156 C 162.34375 114.199219 162.519531 113.324219 162.867188 112.539062 C 163.21875 111.722656 163.394531 110.539062 163.394531 108.996094 C 163.394531 107.683594 163.277344 106.71875 163.042969 106.109375 C 162.8125 105.496094 162.695312 104.386719 162.695312 102.785156 C 162.695312 101.53125 162.882812 100.015625 163.261719 98.234375 L 163.394531 97.667969 L 163.394531 97.625 L 163.921875 93.992188 C 163.921875 93.496094 163.703125 93.25 163.261719 93.25 C 163.058594 93.25 162.796875 94.082031 162.476562 95.742188 C 161.21875 92.886719 160.589844 90.597656 160.589844 88.875 L 161.90625 83.800781 C 162.78125 80.273438 163.21875 76.863281 163.21875 73.566406 C 163.394531 71.613281 163.175781 70.503906 162.5625 70.242188 C 162.300781 68.40625 161.699219 66.421875 160.765625 64.292969 C 159.480469 61.320312 158.839844 58.230469 158.839844 55.023438 C 158.839844 51.40625 159.480469 47.820312 160.765625 44.261719 L 162.695312 38.75 C 164.066406 38.664062 166.59375 37.949219 170.273438 36.609375 C 173.71875 35.324219 176.214844 34.261719 177.761719 33.414062 L 178.902344 32.976562 C 179.28125 34.609375 179.03125 36.957031 178.15625 40.019531 C 177.074219 43.695312 176.535156 46.261719 176.535156 47.71875 C 176.535156 49.933594 177.617188 53.695312 179.777344 59.003906 C 181.9375 64.28125 183.019531 67.894531 183.019531 69.847656 C 183.398438 71.480469 182.027344 72.296875 178.902344 72.296875 L 175.835938 71.90625 L 173.25 71.292969 L 173.03125 71.378906 L 183.019531 85.550781 C 180.273438 85.609375 178.636719 85.84375 178.113281 86.25 L 174.039062 80.957031 L 166.941406 67.355469 C 166.503906 67.355469 166.285156 67.75 166.285156 68.539062 L 166.503906 69.761719 L 166.417969 69.761719 L 166.417969 70.113281 L 166.199219 70.285156 L 166.417969 73.171875 L 166.460938 73.609375 L 166.503906 73.609375 C 166.710938 75.15625 167.074219 76.964844 167.601562 79.035156 C 168.273438 81.863281 169.425781 84.792969 171.058594 87.824219 L 175.964844 96.617188 C 180.199219 102.246094 182.316406 105.234375 182.316406 105.582031 C 182.316406 106.050781 181.617188 107.363281 180.214844 109.519531 C 178.8125 111.675781 178.113281 113.980469 178.113281 116.429688 L 180.566406 121.808594 C 182.144531 125.222656 183.265625 127.992188 183.9375 130.121094 L 183.71875 130.296875 L 184.816406 133.96875 L 185.472656 137.511719 C 185.472656 139.667969 184.652344 141.449219 183.019531 142.847656 C 181.382812 144.246094 180.566406 145.75 180.566406 147.351562 C 180.566406 148.140625 181.734375 150.019531 184.070312 152.996094 C 186.40625 155.941406 187.574219 158.667969 187.574219 161.175781 L 185.558594 165.546875 C 184.214844 168.523438 183.542969 170.503906 183.542969 171.496094 C 183.542969 172.019531 184.070312 172.894531 185.121094 174.121094 C 186.171875 175.34375 186.699219 176.234375 186.699219 176.789062 C 186.699219 177.402344 185.910156 178.320312 184.332031 179.542969 C 182.757812 180.769531 181.96875 182.417969 181.96875 184.488281 C 181.96875 185.449219 182.203125 187.402344 182.667969 190.347656 C 182.667969 190.640625 182.550781 190.785156 182.316406 190.785156 L 182.316406 191.132812 M 175.003906 115.816406 C 174.738281 115.816406 174.289062 118.515625 173.644531 123.910156 L 172.769531 132.089844 L 172.8125 134.929688 L 173.425781 135.148438 C 173.777344 135.148438 174.519531 129.171875 175.660156 117.21875 C 175.804688 116.285156 175.585938 115.816406 175.003906 115.816406 M 20.636719 46.625 L 21.425781 46.40625 L 20.683594 46.753906 L 20.636719 46.625 "/>
<path style=" stroke:none;fill-rule:evenodd;fill:rgb(0%,0%,0%);fill-opacity:1;" d="M 56.25 12.117188 L 53.886719 10.015625 C 49.652344 7.273438 47.183594 5.308594 46.484375 4.113281 C 45.722656 4.375 43.925781 4.710938 41.09375 5.117188 L 33.824219 6.386719 C 31.050781 7.433594 29.152344 8.617188 28.128906 9.929688 L 23.222656 17.625 L 23.222656 17.671875 C 23.222656 20.148438 20.199219 22.65625 14.15625 25.191406 C 11.90625 26.15625 10.375 27.351562 9.554688 28.78125 C 9.058594 29.65625 8.707031 31.023438 8.503906 32.890625 C 8.300781 34.640625 6.605469 37.265625 3.421875 40.765625 C 2.839844 41.40625 2.328125 42.660156 1.890625 44.523438 C 1.511719 46.15625 1.320312 47.527344 1.320312 48.636719 C 1.320312 51.171875 2.253906 54.378906 4.125 58.257812 C 5.992188 62.136719 6.925781 64.222656 6.925781 64.511719 L 6.882812 64.996094 L 7.410156 66.394531 C 8.519531 69.019531 9.394531 70.738281 10.039062 71.554688 L 18.011719 80.214844 C 21.484375 83.976562 23.222656 86.90625 23.222656 89.007812 C 23.222656 90.347656 23.632812 93.234375 24.449219 97.667969 L 24.449219 97.972656 L 31.0625 104.972656 L 32.597656 106.066406 C 31.894531 103.179688 31.546875 101.398438 31.546875 100.726562 C 31.546875 99.589844 31.765625 99.023438 32.203125 99.023438 C 32.726562 99.023438 33.179688 100.496094 33.558594 103.441406 L 34.261719 110.527344 C 34.40625 111.867188 34.726562 112.785156 35.226562 113.28125 C 36.21875 114.332031 38.363281 115.058594 41.664062 115.46875 C 42.25 115.496094 44.074219 116.007812 47.140625 117 L 51.214844 118.53125 L 53.753906 114.8125 L 57.125 110.21875 L 57.433594 109.78125 L 57.652344 109.824219 C 57.945312 109.824219 58.0625 109.78125 58.003906 109.695312 L 57.960938 109.5625 L 57.738281 109.300781 C 60.601562 105.015625 62.355469 102.578125 62.996094 101.996094 C 62.675781 101.617188 62.585938 100.292969 62.734375 98.015625 C 62.9375 94.953125 62.339844 92.871094 60.9375 91.761719 C 59.914062 90.945312 56.863281 89.066406 51.78125 86.121094 C 47.753906 83.757812 45.738281 82.269531 45.738281 81.660156 C 45.738281 81.105469 45.957031 80.828125 46.394531 80.828125 C 46.65625 80.828125 48.394531 81.949219 51.609375 84.195312 L 53.578125 85.246094 L 53.054688 83.757812 C 52.441406 81.980469 52.046875 80.625 51.871094 79.691406 L 49.15625 73 L 48.058594 69.5 C 47.652344 68.160156 47.066406 67.09375 46.308594 66.308594 C 45.140625 65.082031 43.34375 63.742188 40.917969 62.28125 C 38.992188 61.144531 38.027344 60.359375 38.027344 59.921875 C 38.027344 59.511719 38.277344 59.308594 38.773438 59.308594 L 40.394531 59.703125 L 40.65625 56.597656 C 40.65625 54.730469 39.546875 52.835938 37.328125 50.910156 L 37.019531 50.691406 L 35.925781 49.816406 C 32.773438 47.515625 31.195312 45.9375 31.195312 45.09375 C 31.195312 44.539062 31.414062 44.261719 31.851562 44.261719 L 34.304688 46.710938 C 35.472656 47.820312 36.496094 48.722656 37.371094 49.425781 C 37.925781 48.695312 39.136719 47.980469 41.007812 47.28125 L 46.964844 45.09375 C 48.863281 44.015625 50.703125 42.207031 52.484375 39.671875 L 55.59375 36.957031 C 56.878906 35.761719 57.625 34.773438 57.828125 33.984375 L 58.265625 30.746094 C 58.527344 29.144531 58.835938 28.34375 59.183594 28.34375 C 59.769531 28.34375 59.988281 28.808594 59.84375 29.742188 L 59.578125 32.234375 C 60.191406 32 60.734375 31.652344 61.199219 31.183594 L 61.945312 30.003906 L 62.164062 29.742188 C 61.667969 28.953125 61.128906 27.421875 60.542969 25.148438 L 59.40625 19.902344 L 59.753906 17.015625 L 59.84375 16.53125 L 59.796875 16.488281 L 59.796875 16.007812 L 56.382812 12.246094 L 56.425781 12.160156 L 56.25 12.117188 M 27.078125 9.140625 C 27.984375 7.945312 29.648438 6.792969 32.070312 5.6875 C 35.75 3.996094 40.058594 3.148438 44.992188 3.148438 L 46.351562 3.324219 L 48.191406 1.574219 C 49.503906 0.523438 50.394531 0 50.863281 0 C 51.242188 0 51.503906 0.0859375 51.652344 0.261719 C 53.753906 0.84375 57.332031 4.285156 62.382812 10.585938 L 62.601562 10.890625 L 62.820312 11.152344 C 62.820312 11.503906 62.675781 11.722656 62.382812 11.808594 L 61.289062 13.996094 L 61.199219 14.871094 L 61.246094 15.222656 C 61.246094 16.359375 61.070312 17.945312 60.71875 19.988281 C 60.71875 21.5625 61.1875 23.457031 62.121094 25.675781 C 63.027344 27.773438 63.492188 29.011719 63.523438 29.390625 C 63.640625 29.507812 63.699219 29.667969 63.699219 29.871094 C 63.699219 30.339844 63.230469 31.070312 62.296875 32.058594 C 61.273438 33.140625 60.324219 33.679688 59.449219 33.679688 L 59.140625 33.679688 C 58.148438 36.15625 56.234375 38.519531 53.402344 40.765625 L 51.214844 43.476562 C 50.21875 44.757812 49.125 45.617188 47.929688 46.054688 L 38.90625 50.515625 C 40.394531 51.480469 41.328125 52.5 41.707031 53.578125 C 41.882812 54.074219 41.96875 55.09375 41.96875 56.640625 C 41.96875 58.417969 41.855469 59.660156 41.621094 60.359375 L 43.808594 61.933594 C 45.417969 63.273438 46.644531 64.5 47.488281 65.605469 C 48.277344 66.628906 49.167969 68.769531 50.160156 72.035156 L 52.921875 78.378906 C 54.148438 81.0625 54.761719 83.160156 54.761719 84.675781 L 54.671875 85.8125 L 57.566406 87.605469 L 62.777344 91.367188 C 63.625 91.980469 64.046875 92.957031 64.046875 94.300781 C 63.960938 98.585938 63.753906 101.109375 63.433594 101.867188 C 64.164062 102.011719 65.011719 102.929688 65.976562 104.621094 L 66.105469 104.882812 L 66.148438 104.925781 L 66.148438 105.191406 C 66.148438 105.683594 65.433594 107.15625 64.003906 109.605469 L 61.332031 113.851562 C 57.652344 119.300781 55.390625 122.027344 54.542969 122.027344 C 54.425781 122.234375 54.191406 122.347656 53.839844 122.378906 C 52.789062 122.378906 52 121.839844 51.476562 120.761719 L 51.257812 119.929688 C 50.410156 119.898438 48.671875 119.375 46.042969 118.355469 C 43.152344 117.246094 40.933594 116.605469 39.386719 116.429688 C 36.613281 116.109375 34.832031 115.425781 34.042969 114.375 L 33.167969 111.621094 C 32.933594 111.007812 32.816406 110.089844 32.816406 108.863281 L 32.816406 108.078125 C 32.4375 107.902344 31.894531 107.507812 31.195312 106.894531 L 30.539062 106.328125 L 28.433594 104.535156 L 26.15625 102.039062 C 24.027344 100.117188 22.960938 98.671875 22.960938 97.710938 L 23.046875 97.359375 L 22.609375 95.390625 C 22.140625 93.207031 21.910156 91.414062 21.910156 90.011719 C 21.910156 88.058594 20.332031 85.128906 17.175781 81.222656 L 9.601562 72.515625 C 6.882812 69.164062 5.453125 66.363281 5.308594 64.121094 C 4.578125 62.777344 3.554688 60.402344 2.242188 56.992188 L 0.269531 52.136719 C 0.09375 51.667969 0.0078125 50.503906 0.0078125 48.636719 C 0.0078125 44.816406 0.679688 41.972656 2.023438 40.109375 L 4.253906 37.132812 C 5.335938 35.675781 6.3125 34.027344 7.191406 32.191406 C 7.804688 30.414062 8.34375 29.054688 8.8125 28.125 C 9.628906 26.492188 10.957031 25.222656 12.796875 24.316406 C 16.886719 22.277344 19.046875 21.125 19.28125 20.863281 L 22.082031 17.363281 C 22.230469 16.140625 23.894531 13.398438 27.078125 9.140625 M 58.660156 8.265625 L 56.820312 6.386719 C 53.609375 3.90625 51.59375 2.261719 50.773438 1.441406 L 47.796875 3.585938 C 48.175781 4.023438 50.746094 6.019531 55.507812 9.578125 L 56.777344 10.539062 L 56.6875 10.804688 C 56.6875 10.917969 56.820312 10.992188 57.082031 11.023438 L 57.214844 10.890625 L 60.019531 13.644531 L 60.324219 12.683594 C 60.585938 11.867188 60.878906 11.285156 61.199219 10.933594 L 59.011719 8.617188 L 59.230469 8.222656 C 59.230469 7.929688 59.183594 7.859375 59.097656 8.003906 L 58.660156 8.265625 M 190.246094 21.867188 L 190.421875 21.914062 C 190.773438 22 190.933594 22.203125 190.902344 22.523438 L 190.902344 22.570312 C 191.195312 23.386719 191.371094 24.960938 191.429688 27.292969 C 192.128906 28.019531 193.285156 31.011719 194.890625 36.257812 L 197.300781 41.289062 C 197.589844 42.105469 197.738281 43.417969 197.738281 45.226562 C 197.738281 47.703125 197.53125 49.730469 197.125 51.304688 C 196.570312 53.375 196.175781 55.796875 195.941406 58.566406 L 195.589844 62.457031 C 196.730469 63.273438 198.203125 67.414062 200.015625 74.878906 C 200.015625 76.105469 199.648438 77.066406 198.917969 77.765625 C 198.015625 78.640625 197.371094 80.027344 196.992188 81.921875 C 196.875 84.28125 196.714844 86.019531 196.511719 87.125 C 196.917969 87.183594 197.09375 87.492188 197.035156 88.042969 C 197.035156 88.394531 196.859375 89.035156 196.511719 89.96875 L 196.027344 91.019531 L 196.773438 92.941406 C 197.414062 94.808594 197.738281 98.046875 197.738281 102.652344 C 197.738281 103.089844 197.488281 103.308594 196.992188 103.308594 L 198.394531 107.246094 L 199.664062 111.574219 C 199.898438 112.363281 200.015625 113.457031 200.015625 114.855469 C 200.015625 119.257812 199.253906 123.910156 197.738281 128.808594 C 196.21875 133.675781 195.460938 137.746094 195.460938 141.011719 C 195.460938 143.898438 195.808594 146.566406 196.511719 149.015625 C 196.511719 149.570312 196.394531 149.933594 196.160156 150.109375 C 197.589844 151.769531 198.570312 153.082031 199.09375 154.046875 C 200 155.679688 200.511719 157.09375 200.628906 158.289062 L 200.539062 161.960938 C 200.804688 169.164062 199.914062 172.765625 197.867188 172.765625 L 197.824219 172.765625 C 199.195312 174.308594 200.921875 176.539062 202.992188 179.457031 C 202.992188 180.566406 202.453125 181.847656 201.371094 183.304688 C 200 184.9375 199.007812 186.191406 198.394531 187.066406 L 193.488281 194.285156 L 193.136719 194.238281 L 193.355469 194.894531 L 193.050781 197.914062 L 193.179688 198.175781 C 193.179688 198.527344 193.007812 198.746094 192.65625 198.832031 L 192.261719 198.832031 L 187.09375 198.21875 L 182.582031 198.4375 C 181.675781 198.703125 179.660156 198.453125 176.535156 197.695312 C 172.621094 197.316406 170.667969 196.90625 170.667969 196.472656 L 170.710938 196.253906 L 170.359375 195.289062 L 170.316406 193.976562 L 170.226562 193.101562 L 170.273438 192.882812 L 169.527344 191.703125 L 168.652344 189.121094 C 167.890625 187.140625 167.511719 185.742188 167.511719 184.925781 C 167.511719 184.019531 167.996094 179.953125 168.957031 172.722656 C 169.425781 169.132812 169.847656 166.351562 170.226562 164.367188 C 169.5 164.339844 168.535156 163.507812 167.335938 161.875 C 166.226562 160.328125 165.511719 158.988281 165.191406 157.851562 C 164.167969 154.527344 163.65625 152.355469 163.65625 151.332031 L 166.199219 131.34375 C 165.320312 131.023438 164.429688 130.089844 163.527344 128.546875 C 162.476562 126.707031 161.875 124.945312 161.730469 123.253906 L 161.03125 115.160156 C 161.03125 113.90625 161.203125 112.976562 161.554688 112.363281 C 161.90625 111.75 162.082031 110.628906 162.082031 108.996094 C 162.082031 107.972656 161.964844 107.054688 161.730469 106.238281 C 161.496094 105.421875 161.378906 104.269531 161.378906 102.785156 C 161.378906 102.375 161.597656 100.859375 162.035156 98.234375 C 161.160156 97.710938 160.488281 96.164062 160.023438 93.597656 C 159.527344 91.179688 159.277344 89.605469 159.277344 88.875 L 160.589844 83.671875 C 161.46875 80.257812 161.90625 76.980469 161.90625 73.828125 L 161.773438 72.78125 L 160.808594 69.628906 L 159.320312 64.074219 C 158.125 60.578125 157.523438 57.53125 157.523438 54.933594 C 157.789062 52.046875 158.167969 49.191406 158.664062 46.363281 C 159.511719 41.582031 160.460938 38.839844 161.511719 38.140625 C 161.363281 37.878906 161.261719 37.527344 161.203125 37.089844 L 161.203125 35.382812 L 161.292969 33.765625 L 161.074219 33.546875 L 161.03125 33.242188 L 161.511719 33.066406 C 161.597656 32.832031 161.714844 32.714844 161.863281 32.714844 L 162.125 32.757812 L 173.777344 27.597656 C 175.179688 26.871094 180.582031 24.960938 189.984375 21.867188 L 190.246094 21.867188 M 178.464844 31.710938 L 178.550781 31.972656 L 178.859375 31.929688 L 178.988281 31.535156 L 185.515625 29.304688 C 188.582031 28.253906 190.113281 27.597656 190.113281 27.335938 C 189.824219 25.585938 189.664062 24.214844 189.632812 23.226562 L 184.027344 25.191406 L 179.820312 26.59375 L 179.820312 26.550781 L 179.558594 26.550781 L 179.558594 26.679688 C 177.164062 27.46875 175.734375 27.992188 175.265625 28.253906 C 168.636719 31.433594 164.417969 33.269531 162.605469 33.765625 L 162.648438 34.464844 L 162.519531 37.132812 L 162.867188 37.308594 C 163.597656 37.308594 165.804688 36.59375 169.484375 35.164062 L 176.359375 32.410156 L 178.464844 31.710938 M 182.316406 191.132812 C 182.347656 191.28125 182.375 191.296875 182.40625 191.179688 L 182.886719 191.222656 L 182.976562 191.132812 L 183.238281 191.132812 L 184.726562 191.046875 C 187.53125 191.046875 189.792969 191.628906 191.515625 192.796875 L 192.789062 193.804688 L 192.742188 193.671875 C 192.742188 192.972656 194.21875 190.464844 197.167969 186.148438 L 201.546875 179.5 L 193.621094 170.710938 C 193.621094 170.273438 193.898438 170.054688 194.453125 170.054688 C 195.007812 170.054688 195.910156 170.722656 197.167969 172.066406 C 198.363281 169.789062 198.992188 168.113281 199.050781 167.035156 L 199.226562 161.960938 C 199.226562 158.492188 197.941406 155.09375 195.371094 151.769531 C 192.800781 149.058594 191.515625 147.425781 191.515625 146.871094 C 191.515625 146.347656 191.734375 146.085938 192.175781 146.085938 C 192.4375 146.085938 193.386719 147.003906 195.019531 148.839844 C 194.816406 148.082031 194.640625 147.019531 194.496094 145.648438 L 194.144531 141.054688 C 194.144531 137.875 194.902344 133.707031 196.421875 128.546875 C 197.941406 123.355469 198.699219 118.777344 198.699219 114.8125 C 198.699219 113.324219 198.613281 112.332031 198.4375 111.835938 C 197.765625 109.855469 197.3125 108.398438 197.078125 107.464844 C 195.125 102.914062 194.144531 100.523438 194.144531 100.292969 C 194.144531 99.796875 194.363281 99.546875 194.800781 99.546875 C 195.035156 99.546875 195.386719 100 195.851562 100.902344 L 195.808594 99.460938 C 195.839844 96.195312 195.75 94.253906 195.546875 93.644531 L 193.621094 88.789062 C 192.070312 87.039062 191.09375 85.710938 190.683594 84.808594 L 182.929688 78.378906 C 182.929688 77.910156 183.238281 77.679688 183.851562 77.679688 C 184.960938 77.679688 187.371094 79.542969 191.078125 83.277344 L 191.121094 83.277344 C 191.5625 83.277344 192.261719 84.019531 193.226562 85.507812 L 193.707031 86.03125 L 193.707031 86.296875 L 193.75 86.382812 L 195.195312 89.136719 L 195.371094 88.746094 L 195.503906 88.480469 C 195.355469 88.363281 195.253906 88.160156 195.195312 87.871094 L 195.195312 87.082031 C 195.195312 84.28125 195.78125 81.585938 196.949219 78.992188 L 198.699219 74.878906 C 198.699219 73.859375 198 71.746094 196.597656 68.539062 L 195.238281 65.257812 C 194.65625 69.398438 194.042969 71.46875 193.398438 71.46875 C 193.019531 71.46875 192.800781 71.292969 192.742188 70.941406 L 192.742188 70.375 L 194.671875 57.734375 C 194.992188 54.554688 195.402344 52.121094 195.898438 50.429688 C 196.246094 49.261719 196.421875 47.515625 196.421875 45.179688 C 196.421875 42.441406 194.496094 36.945312 190.640625 28.691406 C 189.792969 29.332031 188.246094 29.988281 185.996094 30.660156 C 182.785156 31.621094 180.492188 32.367188 179.121094 32.890625 L 179.121094 32.847656 L 178.859375 32.847656 L 178.902344 32.976562 L 177.761719 33.414062 C 176.214844 34.261719 173.71875 35.324219 170.273438 36.609375 C 166.59375 37.949219 164.066406 38.664062 162.695312 38.75 L 160.765625 44.261719 C 159.480469 47.820312 158.839844 51.40625 158.839844 55.023438 C 158.839844 58.230469 159.480469 61.320312 160.765625 64.292969 C 161.699219 66.421875 162.300781 68.40625 162.5625 70.242188 C 163.175781 70.503906 163.394531 71.613281 163.21875 73.566406 C 163.21875 76.863281 162.78125 80.273438 161.90625 83.800781 L 160.589844 88.875 C 160.589844 90.597656 161.21875 92.886719 162.476562 95.742188 C 162.796875 94.082031 163.058594 93.25 163.261719 93.25 C 163.703125 93.25 163.921875 93.496094 163.921875 93.992188 L 163.394531 97.625 L 163.394531 97.667969 L 163.261719 98.234375 C 162.882812 100.015625 162.695312 101.53125 162.695312 102.785156 C 162.695312 104.386719 162.8125 105.496094 163.042969 106.109375 C 163.277344 106.71875 163.394531 107.683594 163.394531 108.996094 C 163.394531 110.539062 163.21875 111.722656 162.867188 112.539062 C 162.519531 113.324219 162.34375 114.199219 162.34375 115.160156 L 163.042969 123.121094 C 163.191406 125.804688 164.316406 128.035156 166.417969 129.8125 L 166.8125 126.621094 C 166.34375 123.910156 166.109375 121.589844 166.109375 119.667969 C 166.109375 119.199219 166.328125 118.96875 166.769531 118.96875 C 167.351562 118.96875 167.804688 121.53125 168.125 126.664062 C 168.125 130.457031 167.601562 134.566406 166.546875 139 L 165.585938 145.078125 C 165.175781 147.558594 164.972656 149.597656 164.972656 151.203125 C 164.972656 152.164062 165.484375 154.261719 166.503906 157.5 C 167 159.277344 168.316406 161.203125 170.445312 163.273438 C 170.796875 161.613281 171.089844 160.78125 171.324219 160.78125 C 171.730469 160.78125 171.949219 161.027344 171.980469 161.523438 L 170.402344 171.671875 C 169.351562 178.203125 168.828125 182.605469 168.828125 184.878906 C 168.828125 186.367188 169.746094 188.757812 171.585938 192.054688 C 173.28125 191.5 176.855469 191.191406 182.316406 191.132812 M 178.113281 86.25 L 177.9375 86.511719 C 177.9375 86.804688 177.96875 86.878906 178.023438 86.730469 L 178.464844 86.6875 L 178.988281 87.34375 C 182.027344 91.367188 183.542969 93.789062 183.542969 94.605469 C 183.542969 95.042969 183.324219 95.261719 182.886719 95.261719 C 178.300781 88.789062 175.03125 84.339844 173.074219 81.921875 C 169.777344 76.703125 167.6875 72.925781 166.8125 70.59375 L 166.679688 69.761719 L 166.503906 69.761719 L 166.285156 68.539062 C 166.285156 67.75 166.503906 67.355469 166.941406 67.355469 L 174.039062 80.957031 L 178.113281 86.25 M 175.003906 115.816406 C 175.585938 115.816406 175.804688 116.285156 175.660156 117.21875 C 174.519531 129.171875 173.777344 135.148438 173.425781 135.148438 L 172.8125 134.929688 L 172.769531 132.089844 L 173.644531 123.910156 C 174.289062 118.515625 174.738281 115.816406 175.003906 115.816406 M 32.683594 49.816406 C 32.683594 50.109375 32.277344 50.253906 31.457031 50.253906 L 22.304688 50.910156 L 19.0625 52.222656 C 18.738281 52.222656 18.535156 52.121094 18.449219 51.917969 L 18.402344 51.609375 C 18.402344 49.976562 21.835938 49.160156 28.699219 49.160156 C 32.085938 49.160156 33.414062 49.378906 32.683594 49.816406 M 63.257812 103.484375 C 61.535156 106.3125 59.785156 108.9375 58.003906 111.355469 L 52.308594 119.097656 C 52.308594 119.476562 52.6875 119.972656 53.445312 120.585938 L 54.058594 121.109375 L 60.410156 112.757812 C 62.367188 108.847656 63.785156 106.328125 64.660156 105.191406 L 64.355469 104.796875 L 63.257812 103.484375 M 191.910156 197.171875 L 192.042969 195.070312 C 191.894531 194.488281 191.152344 193.90625 189.808594 193.320312 C 188.464844 192.710938 187.195312 192.402344 185.996094 192.402344 L 172.855469 193.148438 C 172.039062 193.148438 171.628906 193.4375 171.628906 194.019531 L 171.980469 195.726562 L 171.980469 195.769531 L 186.917969 196.820312 L 191.910156 197.609375 L 191.910156 197.171875 "/>
<path style=" stroke:none;fill-rule:evenodd;fill:rgb(17.254902%,10.588235%,24.705882%);fill-opacity:1;" d="M 56.777344 10.539062 L 55.507812 9.578125 C 50.746094 6.019531 48.175781 4.023438 47.796875 3.585938 L 50.773438 1.441406 C 51.59375 2.261719 53.609375 3.90625 56.820312 6.386719 L 58.660156 8.265625 L 57.566406 9.402344 L 56.777344 10.539062 M 179.558594 26.679688 C 179.472656 27.789062 179.105469 29.390625 178.464844 31.492188 L 178.464844 31.710938 L 176.359375 32.410156 L 169.484375 35.164062 C 165.804688 36.59375 163.597656 37.308594 162.867188 37.308594 L 162.519531 37.132812 L 162.648438 34.464844 L 162.605469 33.765625 C 164.417969 33.269531 168.636719 31.433594 175.265625 28.253906 C 175.734375 27.992188 177.164062 27.46875 179.558594 26.679688 M 191.910156 197.171875 L 191.910156 197.609375 L 186.917969 196.820312 L 171.980469 195.769531 L 171.980469 195.726562 L 171.628906 194.019531 C 171.628906 193.4375 172.039062 193.148438 172.855469 193.148438 L 185.996094 192.402344 C 187.195312 192.402344 188.464844 192.710938 189.808594 193.320312 C 191.152344 193.90625 191.894531 194.488281 192.042969 195.070312 L 191.910156 197.171875 M 63.257812 103.484375 L 64.355469 104.796875 L 64.660156 105.191406 C 63.785156 106.328125 62.367188 108.847656 60.410156 112.757812 L 54.058594 121.109375 L 53.445312 120.585938 C 52.6875 119.972656 52.308594 119.476562 52.308594 119.097656 L 58.003906 111.355469 C 59.785156 108.9375 61.535156 106.3125 63.257812 103.484375 "/>
<path style=" stroke:none;fill-rule:evenodd;fill:rgb(3.529412%,0%,0.392157%);fill-opacity:1;" d="M 56.777344 10.539062 L 57.566406 9.402344 L 58.660156 8.265625 L 59.097656 8.003906 C 59.183594 7.859375 59.230469 7.929688 59.230469 8.222656 L 59.011719 8.617188 L 61.199219 10.933594 C 60.878906 11.285156 60.585938 11.867188 60.324219 12.683594 L 60.019531 13.644531 L 57.214844 10.890625 L 57.082031 11.023438 C 56.820312 10.992188 56.6875 10.917969 56.6875 10.804688 L 56.777344 10.539062 M 179.558594 26.679688 L 179.558594 26.550781 L 179.820312 26.550781 L 179.820312 26.59375 L 184.027344 25.191406 L 189.632812 23.226562 C 189.664062 24.214844 189.824219 25.585938 190.113281 27.335938 C 190.113281 27.597656 188.582031 28.253906 185.515625 29.304688 L 178.988281 31.535156 L 178.859375 31.929688 L 178.550781 31.972656 L 178.464844 31.710938 L 178.464844 31.492188 C 179.105469 29.390625 179.472656 27.789062 179.558594 26.679688 "/>
<path style=" stroke:none;fill-rule:evenodd;fill:rgb(67.843139%,63.529414%,70.19608%);fill-opacity:1;" d="M 57.433594 109.78125 C 56.617188 109.578125 55.492188 108.28125 54.058594 105.890625 C 52.570312 103.441406 51.519531 101.164062 50.90625 99.066406 C 50.789062 97.898438 50.613281 96.996094 50.382812 96.355469 C 50 95.246094 49.109375 94.386719 47.707031 93.773438 L 42.804688 91.980469 C 40.757812 91.164062 39.589844 90.421875 39.296875 89.75 L 39.035156 88.875 C 38.042969 87.445312 37.472656 85.625 37.328125 83.410156 L 36.84375 78.597656 C 33.953125 73.378906 32.507812 70.011719 32.507812 68.492188 C 32.507812 67.589844 32.773438 66.714844 33.296875 65.871094 C 33.824219 65.054688 34.085938 64.179688 34.085938 63.246094 C 34.085938 62.488281 33.882812 61.613281 33.472656 60.621094 L 32.859375 59.046875 L 32.859375 58.957031 L 27.207031 59.175781 L 24.84375 59.660156 L 17.527344 59.613281 C 17.46875 59.730469 17.441406 59.644531 17.441406 59.351562 C 17.441406 58.886719 17.894531 58.15625 18.796875 57.164062 C 19.820312 56.085938 20.785156 55.460938 21.691406 55.285156 L 13.058594 50.605469 L 14.199219 49.90625 C 16.828125 48.039062 19.425781 46.769531 21.996094 46.101562 L 18.929688 44.21875 C 18.871094 44.335938 18.84375 44.25 18.84375 43.957031 C 18.84375 43.546875 20.886719 43.109375 24.976562 42.644531 L 31.28125 42.03125 C 34.554688 41.683594 36.742188 41.1875 37.851562 40.546875 C 38.613281 40.109375 39.050781 39.40625 39.167969 38.445312 L 38.992188 34.070312 C 38.992188 32.265625 39.519531 30.746094 40.570312 29.523438 C 41.210938 28.765625 43.460938 27.335938 47.316406 25.238281 C 48.542969 24.246094 49.914062 22.757812 51.433594 20.777344 C 52.132812 19.871094 52.847656 18.371094 53.578125 16.269531 C 54.28125 14.289062 55.039062 12.859375 55.855469 11.984375 L 56.25 12.117188 L 56.425781 12.160156 L 56.382812 12.246094 L 59.796875 16.007812 L 59.796875 16.488281 L 59.84375 16.53125 L 59.753906 17.015625 L 59.40625 19.902344 L 60.542969 25.148438 C 61.128906 27.421875 61.667969 28.953125 62.164062 29.742188 L 61.945312 30.003906 L 61.199219 31.183594 C 60.734375 31.652344 60.191406 32 59.578125 32.234375 L 59.84375 29.742188 C 59.988281 28.808594 59.769531 28.34375 59.183594 28.34375 C 58.835938 28.34375 58.527344 29.144531 58.265625 30.746094 L 57.828125 33.984375 C 57.625 34.773438 56.878906 35.761719 55.59375 36.957031 L 52.484375 39.671875 C 50.703125 42.207031 48.863281 44.015625 46.964844 45.09375 L 41.007812 47.28125 C 39.136719 47.980469 37.925781 48.695312 37.371094 49.425781 C 36.496094 48.722656 35.472656 47.820312 34.304688 46.710938 L 31.851562 44.261719 C 31.414062 44.261719 31.195312 44.539062 31.195312 45.09375 C 31.195312 45.9375 32.773438 47.515625 35.925781 49.816406 L 37.019531 50.691406 L 37.328125 50.910156 C 39.546875 52.835938 40.65625 54.730469 40.65625 56.597656 L 40.394531 59.703125 L 38.773438 59.308594 C 38.277344 59.308594 38.027344 59.511719 38.027344 59.921875 C 38.027344 60.359375 38.992188 61.144531 40.917969 62.28125 C 43.34375 63.742188 45.140625 65.082031 46.308594 66.308594 C 47.066406 67.09375 47.652344 68.160156 48.058594 69.5 L 49.15625 73 L 51.871094 79.691406 C 52.046875 80.625 52.441406 81.980469 53.054688 83.757812 L 53.578125 85.246094 L 51.609375 84.195312 C 48.394531 81.949219 46.65625 80.828125 46.394531 80.828125 C 45.957031 80.828125 45.738281 81.105469 45.738281 81.660156 C 45.738281 82.269531 47.753906 83.757812 51.78125 86.121094 C 56.863281 89.066406 59.914062 90.945312 60.9375 91.761719 C 62.339844 92.871094 62.9375 94.953125 62.734375 98.015625 C 62.585938 100.292969 62.675781 101.617188 62.996094 101.996094 C 62.355469 102.578125 60.601562 105.015625 57.738281 109.300781 L 57.960938 109.5625 L 58.003906 109.695312 C 58.0625 109.78125 57.945312 109.824219 57.652344 109.824219 L 57.433594 109.78125 M 178.902344 32.976562 L 178.859375 32.847656 L 179.121094 32.847656 L 179.121094 32.890625 C 180.492188 32.367188 182.785156 31.621094 185.996094 30.660156 C 188.246094 29.988281 189.792969 29.332031 190.640625 28.691406 C 194.496094 36.945312 196.421875 42.441406 196.421875 45.179688 C 196.421875 47.515625 196.246094 49.261719 195.898438 50.429688 C 195.402344 52.121094 194.992188 54.554688 194.671875 57.734375 L 192.742188 70.375 L 192.742188 70.941406 C 192.800781 71.292969 193.019531 71.46875 193.398438 71.46875 C 194.042969 71.46875 194.65625 69.398438 195.238281 65.257812 L 196.597656 68.539062 C 198 71.746094 198.699219 73.859375 198.699219 74.878906 L 196.949219 78.992188 C 195.78125 81.585938 195.195312 84.28125 195.195312 87.082031 L 195.195312 87.871094 C 195.253906 88.160156 195.355469 88.363281 195.503906 88.480469 L 195.371094 88.746094 L 195.195312 89.136719 L 193.75 86.382812 L 193.707031 86.296875 L 193.707031 86.03125 L 193.226562 85.507812 C 192.261719 84.019531 191.5625 83.277344 191.121094 83.277344 L 191.078125 83.277344 C 187.371094 79.542969 184.960938 77.679688 183.851562 77.679688 C 183.238281 77.679688 182.929688 77.910156 182.929688 78.378906 L 190.683594 84.808594 C 191.09375 85.710938 192.070312 87.039062 193.621094 88.789062 L 195.546875 93.644531 C 195.75 94.253906 195.839844 96.195312 195.808594 99.460938 L 195.851562 100.902344 C 195.386719 100 195.035156 99.546875 194.800781 99.546875 C 194.363281 99.546875 194.144531 99.796875 194.144531 100.292969 C 194.144531 100.523438 195.125 102.914062 197.078125 107.464844 C 197.3125 108.398438 197.765625 109.855469 198.4375 111.835938 C 198.613281 112.332031 198.699219 113.324219 198.699219 114.8125 C 198.699219 118.777344 197.941406 123.355469 196.421875 128.546875 C 194.902344 133.707031 194.144531 137.875 194.144531 141.054688 L 194.496094 145.648438 C 194.640625 147.019531 194.816406 148.082031 195.019531 148.839844 C 193.386719 147.003906 192.4375 146.085938 192.175781 146.085938 C 191.734375 146.085938 191.515625 146.347656 191.515625 146.871094 C 191.515625 147.425781 192.800781 149.058594 195.371094 151.769531 C 197.941406 155.09375 199.226562 158.492188 199.226562 161.960938 L 199.050781 167.035156 C 198.992188 168.113281 198.363281 169.789062 197.167969 172.066406 C 195.910156 170.722656 195.007812 170.054688 194.453125 170.054688 C 193.898438 170.054688 193.621094 170.273438 193.621094 170.710938 L 201.546875 179.5 L 197.167969 186.148438 C 194.21875 190.464844 192.742188 192.972656 192.742188 193.671875 L 192.789062 193.804688 L 191.515625 192.796875 C 189.792969 191.628906 187.53125 191.046875 184.726562 191.046875 L 183.238281 191.132812 L 182.976562 191.132812 L 182.886719 191.222656 L 182.40625 191.179688 C 182.375 191.296875 182.347656 191.28125 182.316406 191.132812 L 182.316406 190.785156 C 182.550781 190.785156 182.667969 190.640625 182.667969 190.347656 C 182.203125 187.402344 181.96875 185.449219 181.96875 184.488281 C 181.96875 182.417969 182.757812 180.769531 184.332031 179.542969 C 185.910156 178.320312 186.699219 177.402344 186.699219 176.789062 C 186.699219 176.234375 186.171875 175.34375 185.121094 174.121094 C 184.070312 172.894531 183.542969 172.019531 183.542969 171.496094 C 183.542969 170.503906 184.214844 168.523438 185.558594 165.546875 L 187.574219 161.175781 C 187.574219 158.667969 186.40625 155.941406 184.070312 152.996094 C 181.734375 150.019531 180.566406 148.140625 180.566406 147.351562 C 180.566406 145.75 181.382812 144.246094 183.019531 142.847656 C 184.652344 141.449219 185.472656 139.667969 185.472656 137.511719 L 184.816406 133.96875 L 183.71875 130.296875 L 183.9375 130.121094 C 183.265625 127.992188 182.144531 125.222656 180.566406 121.808594 L 178.113281 116.429688 C 178.113281 113.980469 178.8125 111.675781 180.214844 109.519531 C 181.617188 107.363281 182.316406 106.050781 182.316406 105.582031 C 182.316406 105.234375 180.199219 102.246094 175.964844 96.617188 L 171.058594 87.824219 C 169.425781 84.792969 168.273438 81.863281 167.601562 79.035156 C 167.074219 76.964844 166.710938 75.15625 166.503906 73.609375 L 166.460938 73.609375 L 166.417969 73.171875 L 166.199219 70.285156 L 166.417969 70.113281 L 166.417969 69.761719 L 166.679688 69.761719 L 166.8125 70.59375 C 167.6875 72.925781 169.777344 76.703125 173.074219 81.921875 C 175.03125 84.339844 178.300781 88.789062 182.886719 95.261719 C 183.324219 95.261719 183.542969 95.042969 183.542969 94.605469 C 183.542969 93.789062 182.027344 91.367188 178.988281 87.34375 L 178.464844 86.6875 L 178.023438 86.730469 C 177.96875 86.878906 177.9375 86.804688 177.9375 86.511719 L 178.113281 86.25 C 178.636719 85.84375 180.273438 85.609375 183.019531 85.550781 L 173.03125 71.378906 L 173.25 71.292969 L 175.835938 71.90625 L 178.902344 72.296875 C 182.027344 72.296875 183.398438 71.480469 183.019531 69.847656 C 183.019531 67.894531 181.9375 64.28125 179.777344 59.003906 C 177.617188 53.695312 176.535156 49.933594 176.535156 47.71875 C 176.535156 46.261719 177.074219 43.695312 178.15625 40.019531 C 179.03125 36.957031 179.28125 34.609375 178.902344 32.976562 M 32.683594 49.816406 C 33.414062 49.378906 32.085938 49.160156 28.699219 49.160156 C 21.835938 49.160156 18.402344 49.976562 18.402344 51.609375 L 18.449219 51.917969 C 18.535156 52.121094 18.738281 52.222656 19.0625 52.222656 L 22.304688 50.910156 L 31.457031 50.253906 C 32.277344 50.253906 32.683594 50.109375 32.683594 49.816406 M 20.636719 46.625 L 20.683594 46.753906 L 21.425781 46.40625 L 20.636719 46.625 "/>
</g>
</svg>
