<?xml version="1.0" encoding="UTF-8"?>
<svg xmlns="http://www.w3.org/2000/svg" xmlns:xlink="http://www.w3.org/1999/xlink" width="203px" height="249px" viewBox="0 0 203 249" version="1.1">
<g id="surface1">
<path style=" stroke:none;fill-rule:evenodd;fill:rgb(0%,0%,0%);fill-opacity:1;" d="M 184.859375 188.773438 L 182.054688 188.773438 C 177.5 189.066406 174.183594 189.035156 172.113281 188.683594 L 171.367188 190.523438 C 170.609375 192.476562 170.15625 194.035156 170.007812 195.203125 L 169.441406 200.714844 L 169.441406 200.757812 L 169.570312 200.714844 C 169.980469 200.714844 171.175781 201.53125 173.164062 203.164062 L 172.636719 203.6875 C 171.585938 203.6875 170.621094 203.222656 169.746094 202.289062 L 169.351562 201.761719 L 169.308594 201.980469 L 169.660156 202.289062 C 168.722656 203.949219 167.367188 205.730469 165.585938 207.625 C 164.679688 208.558594 164.226562 210.015625 164.226562 211.996094 L 164.578125 217.378906 L 164.535156 218.953125 L 164.226562 219.082031 L 164.578125 223.457031 L 164.535156 224.246094 L 164.839844 224.199219 C 165.074219 224.199219 165.527344 224.476562 166.199219 225.03125 L 166.15625 224.902344 L 166.285156 224.464844 L 166.8125 224.417969 L 167.207031 224.550781 L 167.90625 224.769531 L 170.929688 225.074219 L 171.453125 224.15625 L 171.410156 223.894531 L 171.5 223.542969 L 171.804688 223.5 L 172.15625 222.933594 L 172.113281 222.84375 L 172.15625 222.320312 L 172.550781 222.230469 L 172.59375 222.230469 C 171.601562 220.597656 170.914062 219.289062 170.535156 218.296875 C 170.710938 218.121094 170.855469 218.035156 170.972656 218.035156 L 171.5 218.253906 L 172.023438 218.734375 C 172.578125 219.460938 173.191406 220.746094 173.863281 222.582031 C 175.46875 223.515625 176.230469 226.460938 176.140625 231.417969 C 176.140625 232.699219 175.90625 234.128906 175.441406 235.703125 C 175.03125 237.101562 174.507812 238.109375 173.863281 238.722656 L 174.957031 240.339844 C 175.046875 240.078125 175.222656 239.945312 175.484375 239.945312 L 176.140625 240.296875 L 176.535156 240.777344 L 177.542969 242.132812 L 177.28125 242.527344 L 178.199219 242.832031 C 178.988281 243.066406 179.71875 243.386719 180.390625 243.796875 L 181.878906 240.207031 C 183.953125 234.988281 185.75 232.378906 187.269531 232.378906 C 187.441406 232.378906 187.574219 232.453125 187.660156 232.597656 C 187.3125 232.6875 186.875 233.457031 186.347656 234.917969 L 185.953125 235.441406 C 184.523438 237.394531 183.371094 239.289062 182.492188 241.128906 L 181.179688 244.1875 C 181.472656 244.335938 181.761719 244.832031 182.054688 245.675781 L 183.324219 246.289062 L 183.9375 246.550781 L 184.332031 246.417969 L 184.375 245.851562 L 186.347656 244.320312 C 187.660156 243.503906 188.640625 242.105469 189.28125 240.121094 L 191.910156 231.59375 C 192.40625 229.640625 192.890625 226.765625 193.355469 222.976562 L 194.144531 217.246094 L 193.75 214.402344 L 192.566406 206.878906 L 191.824219 207.363281 C 191.53125 207.273438 191.386719 207.128906 191.386719 206.925781 L 189.546875 207.011719 L 188.273438 206.792969 L 188.230469 206.53125 C 188.230469 206.179688 189.488281 205.933594 192 205.785156 L 192.566406 205.875 C 195.285156 203.453125 196.640625 201.691406 196.640625 200.582031 L 195.765625 194.195312 L 195.371094 192.929688 C 195.078125 191.847656 194.394531 191.089844 193.3125 190.652344 C 190.65625 189.574219 187.953125 188.949219 185.210938 188.773438 L 184.988281 188.640625 L 184.859375 188.773438 M 172.460938 187.636719 L 172.417969 187.898438 L 172.375 187.941406 L 172.550781 187.941406 C 183.558594 187.941406 190.726562 188.683594 194.058594 190.171875 C 195.253906 190.699219 196 191.351562 196.292969 192.140625 C 196.410156 192.433594 196.464844 193.042969 196.464844 193.976562 L 196.421875 194.152344 L 196.992188 196.734375 C 197.34375 198.542969 197.519531 199.824219 197.519531 200.582031 C 197.519531 202.449219 196.101562 204.386719 193.269531 206.398438 C 193.648438 207.1875 194.117188 209.855469 194.671875 214.402344 L 194.757812 214.839844 C 194.960938 215.21875 195.066406 215.992188 195.066406 217.160156 L 195.066406 217.464844 L 194.800781 218.691406 C 194.570312 220.117188 194.453125 221.472656 194.453125 222.757812 L 194.453125 222.84375 L 194.40625 223.371094 L 194.539062 223.152344 L 194.625 223.808594 L 194.714844 223.9375 C 194.511719 223.851562 194.394531 223.703125 194.363281 223.5 C 193.898438 226.882812 193.285156 230.019531 192.523438 232.90625 C 190.335938 241.273438 187.382812 246.230469 183.675781 247.773438 L 183.195312 247.382812 L 183.148438 247.382812 C 182.097656 247.382812 181.179688 246.726562 180.390625 245.414062 L 180.390625 245.195312 C 178.113281 245.105469 176.183594 244.160156 174.609375 242.351562 C 173.441406 241.011719 172.8125 239.945312 172.726562 239.160156 L 172.417969 238.765625 C 173.878906 237.074219 174.609375 235.355469 174.609375 233.605469 L 174.519531 231.546875 L 174.609375 230.457031 C 174.492188 228.386719 173.628906 227.234375 172.023438 227 L 171.847656 226.300781 L 171.5 226.476562 L 171.453125 226.519531 L 171.191406 226.957031 L 170.710938 227 L 170.535156 226.78125 L 169.132812 226.824219 L 168.695312 226.824219 C 166.914062 226.765625 165.644531 226.417969 164.882812 225.773438 L 164.269531 224.988281 L 164.183594 224.988281 L 163.527344 225.03125 L 163.746094 222.714844 L 163.527344 218.601562 L 163.527344 218.121094 C 163.292969 217.507812 163.175781 216.722656 163.175781 215.757812 L 163.351562 211.910156 C 163.351562 209.34375 163.921875 207.59375 165.058594 206.660156 L 166.898438 204.167969 C 167.601562 203.207031 168.167969 202.566406 168.605469 202.246094 L 168.433594 200.320312 C 168.433594 199.300781 168.78125 197.054688 169.484375 193.585938 C 170.359375 189.355469 171.207031 187.242188 172.023438 187.242188 C 172.316406 187.242188 172.460938 187.375 172.460938 187.636719 M 53.492188 152.734375 L 53.492188 149.363281 L 53.710938 149.671875 C 53.796875 146.785156 54.117188 143.535156 54.671875 139.917969 C 55.578125 134.113281 56.746094 131.007812 58.179688 130.601562 L 58.441406 129.375 C 58.441406 129.085938 57.507812 128.429688 55.636719 127.410156 C 53.621094 126.328125 52.46875 125.542969 52.175781 125.046875 L 49.109375 119.972656 C 52.90625 115.367188 55.257812 112.378906 56.164062 111.007812 L 59.449219 106.195312 C 61.316406 103.777344 62.835938 102.566406 64.003906 102.566406 C 65.523438 102.566406 66.28125 102.960938 66.28125 103.746094 L 66.28125 104.007812 C 66.574219 104.359375 66.75 107.230469 66.808594 112.625 L 66.808594 121.285156 C 67.011719 127.757812 66.761719 131.242188 66.0625 131.738281 L 64.53125 137.335938 C 64.0625 138.765625 63.710938 140.820312 63.476562 143.503906 C 63.128906 145.050781 62.953125 149.175781 62.953125 155.882812 L 62.953125 156.84375 C 63.449219 156.988281 63.625 157.617188 63.476562 158.726562 L 63.566406 160.867188 L 63.347656 163.667969 L 63.257812 163.710938 L 62.910156 163.886719 L 63.433594 164.105469 C 63.433594 164.511719 62.75 164.71875 61.375 164.71875 C 58.6875 164.71875 56.644531 163.914062 55.242188 162.3125 L 54.367188 161.085938 C 54.105469 160.679688 53.945312 160.269531 53.886719 159.863281 L 53.796875 159.164062 L 53.839844 158.636719 C 53.871094 157.792969 54.03125 157.222656 54.324219 156.933594 L 54.367188 156.625 C 54.164062 156.011719 54.046875 155.285156 54.015625 154.4375 L 53.839844 154.046875 L 53.492188 152.734375 M 65.929688 104.359375 L 65.929688 104.316406 L 65.84375 104.316406 L 64.835938 103.484375 C 63.550781 103.484375 61.84375 104.8125 59.710938 107.464844 L 58.179688 109.605469 L 58.046875 109.5625 C 57.871094 109.5625 57.695312 109.652344 57.519531 109.824219 L 57.652344 110.308594 L 56.820312 111.621094 C 53.988281 115.410156 51.722656 118.164062 50.03125 119.886719 C 50.613281 120.382812 51.140625 121.199219 51.609375 122.335938 C 52.105469 123.5 52.613281 124.347656 53.140625 124.871094 C 53.726562 125.453125 55.886719 126.78125 59.625 128.851562 L 59.054688 131.300781 L 58.746094 131.433594 L 57.171875 134.101562 C 56.003906 136.519531 55.417969 138.957031 55.417969 141.40625 L 54.542969 151.507812 L 54.71875 153.125 L 55.988281 155.792969 L 55.988281 158.070312 L 55.460938 158.375 L 55.332031 158.289062 L 54.894531 159.074219 L 55.023438 159.820312 C 55.375 161.070312 56.761719 162.050781 59.183594 162.75 L 62.339844 163.710938 L 62.472656 161.523438 L 62.515625 161.523438 L 62.910156 161.394531 L 62.953125 160.910156 C 62.808594 158.550781 62.5 157.078125 62.03125 156.496094 L 62.121094 156.277344 C 61.972656 154.644531 61.902344 152.46875 61.902344 149.757812 C 61.902344 148.300781 62.25 145.050781 62.953125 140.003906 C 63.683594 134.816406 64.414062 131.769531 65.144531 130.863281 C 64.820312 130.601562 64.558594 130.089844 64.355469 129.332031 C 64.675781 129.859375 65.054688 130.121094 65.492188 130.121094 L 65.667969 130.121094 L 65.929688 128.285156 L 65.929688 119.625 L 65.757812 107.945312 L 65.757812 105.847656 L 65.929688 104.359375 M 60.410156 128.632812 L 59.972656 128.546875 L 59.796875 128.152344 L 61.199219 126.882812 C 61.550781 126.882812 61.726562 127.015625 61.726562 127.277344 C 61.726562 127.628906 61.289062 128.078125 60.410156 128.632812 M 61.636719 158.59375 L 61.507812 158.417969 L 61.636719 158.417969 L 61.636719 158.59375 "/>
<path style=" stroke:none;fill-rule:evenodd;fill:rgb(39.607844%,34.509805%,37.254903%);fill-opacity:1;" d="M 169.441406 200.714844 L 170.007812 195.203125 C 170.15625 194.035156 170.609375 192.476562 171.367188 190.523438 L 172.113281 188.683594 C 174.183594 189.035156 177.5 189.066406 182.054688 188.773438 L 184.859375 188.773438 C 184.566406 189.355469 184.523438 192.300781 184.726562 197.609375 C 184.785156 199.792969 184.625 201.371094 184.246094 202.332031 C 183.515625 204.140625 181.867188 205.613281 179.296875 206.75 C 181.691406 207.945312 183.09375 210.03125 183.5 213.003906 L 184.203125 219.433594 L 184.464844 221.3125 C 184.027344 221.722656 183.691406 222.464844 183.457031 223.542969 L 182.886719 227 C 182.421875 228.808594 181.515625 230.863281 180.171875 233.167969 C 179.878906 233.664062 179.5 234.742188 179.03125 236.402344 C 178.652344 237.714844 178.097656 238.691406 177.367188 239.332031 L 176.140625 240.296875 L 175.484375 239.945312 C 175.222656 239.945312 175.046875 240.078125 174.957031 240.339844 L 173.863281 238.722656 C 174.507812 238.109375 175.03125 237.101562 175.441406 235.703125 C 175.90625 234.128906 176.140625 232.699219 176.140625 231.417969 C 176.230469 226.460938 175.46875 223.515625 173.863281 222.582031 C 173.191406 220.746094 172.578125 219.460938 172.023438 218.734375 L 172.460938 218.382812 L 172.113281 216.242188 C 171.9375 215.335938 171.617188 214.882812 171.148438 214.882812 C 169.453125 214.882812 168.140625 218.105469 167.207031 224.550781 L 166.8125 224.417969 L 166.285156 224.464844 L 166.15625 224.902344 L 166.199219 225.03125 C 165.527344 224.476562 165.074219 224.199219 164.839844 224.199219 L 164.535156 224.246094 L 164.578125 223.457031 L 164.226562 219.082031 L 164.535156 218.953125 L 164.578125 217.378906 L 164.226562 211.996094 C 164.226562 210.015625 164.679688 208.558594 165.585938 207.625 C 167.367188 205.730469 168.722656 203.949219 169.660156 202.289062 L 169.746094 202.289062 C 170.621094 203.222656 171.585938 203.6875 172.636719 203.6875 L 173.164062 203.164062 C 171.175781 201.53125 169.980469 200.714844 169.570312 200.714844 L 169.441406 200.714844 M 183.324219 246.289062 L 182.054688 245.675781 C 181.761719 244.832031 181.472656 244.335938 181.179688 244.1875 L 182.492188 241.128906 C 183.371094 239.289062 184.523438 237.394531 185.953125 235.441406 L 186.347656 234.917969 L 185.035156 239.117188 C 183.894531 243.140625 183.324219 245.457031 183.324219 246.070312 L 183.324219 246.289062 M 53.710938 159.863281 L 53.621094 159.164062 L 53.839844 158.636719 L 53.796875 159.164062 L 53.886719 159.863281 L 53.710938 159.863281 M 55.023438 159.820312 L 54.894531 159.074219 L 55.332031 158.289062 L 55.460938 158.375 L 55.988281 158.070312 L 55.988281 155.792969 L 54.71875 153.125 L 54.542969 151.507812 L 55.417969 141.40625 C 55.417969 138.957031 56.003906 136.519531 57.171875 134.101562 L 58.746094 131.433594 L 59.054688 131.300781 L 59.625 128.851562 C 55.886719 126.78125 53.726562 125.453125 53.140625 124.871094 C 52.613281 124.347656 52.105469 123.5 51.609375 122.335938 C 51.140625 121.199219 50.613281 120.382812 50.03125 119.886719 C 51.722656 118.164062 53.988281 115.410156 56.820312 111.621094 L 57.652344 110.308594 L 57.960938 111.007812 L 58.308594 111.574219 L 60.238281 116.957031 C 61.695312 121.445312 62.425781 125.570312 62.425781 129.332031 C 62.425781 130.265625 61.332031 135.5 59.140625 145.035156 C 58.617188 149 58.367188 151.625 58.398438 152.90625 L 58.046875 156.84375 C 58.046875 157.601562 57.8125 158.257812 57.347656 158.8125 C 56.964844 159.21875 56.527344 159.484375 56.03125 159.601562 L 55.726562 159.730469 L 55.023438 159.820312 M 60.410156 128.632812 C 61.289062 128.078125 61.726562 127.628906 61.726562 127.277344 C 61.726562 127.015625 61.550781 126.882812 61.199219 126.882812 L 59.796875 128.152344 L 59.972656 128.546875 L 60.410156 128.632812 "/>
<path style=" stroke:none;fill-rule:evenodd;fill:rgb(28.627452%,25.882354%,29.019609%);fill-opacity:1;" d="M 167.207031 224.550781 C 168.140625 218.105469 169.453125 214.882812 171.148438 214.882812 C 171.617188 214.882812 171.9375 215.335938 172.113281 216.242188 L 172.460938 218.382812 L 172.023438 218.734375 L 171.5 218.253906 L 170.972656 218.035156 C 170.855469 218.035156 170.710938 218.121094 170.535156 218.296875 C 170.914062 219.289062 171.601562 220.597656 172.59375 222.230469 L 172.550781 222.230469 L 172.15625 222.320312 L 172.113281 222.84375 L 172.15625 222.933594 L 171.804688 223.5 L 171.5 223.542969 L 171.410156 223.894531 L 171.453125 224.15625 L 170.929688 225.074219 L 167.90625 224.769531 L 167.207031 224.550781 M 176.140625 240.296875 L 177.367188 239.332031 C 178.097656 238.691406 178.652344 237.714844 179.03125 236.402344 C 179.5 234.742188 179.878906 233.664062 180.171875 233.167969 C 181.515625 230.863281 182.421875 228.808594 182.886719 227 L 183.457031 223.542969 C 183.691406 222.464844 184.027344 221.722656 184.464844 221.3125 L 184.203125 219.433594 L 183.5 213.003906 C 183.09375 210.03125 181.691406 207.945312 179.296875 206.75 C 181.867188 205.613281 183.515625 204.140625 184.246094 202.332031 C 184.625 201.371094 184.785156 199.792969 184.726562 197.609375 C 184.523438 192.300781 184.566406 189.355469 184.859375 188.773438 L 184.988281 188.640625 L 185.210938 188.773438 C 187.953125 188.949219 190.65625 189.574219 193.3125 190.652344 C 194.394531 191.089844 195.078125 191.847656 195.371094 192.929688 L 195.765625 194.195312 L 196.640625 200.582031 C 196.640625 201.691406 195.285156 203.453125 192.566406 205.875 L 192 205.785156 C 189.488281 205.933594 188.230469 206.179688 188.230469 206.53125 L 188.273438 206.792969 L 189.546875 207.011719 L 191.386719 206.925781 C 191.386719 207.128906 191.53125 207.273438 191.824219 207.363281 L 192.566406 206.878906 L 193.75 214.402344 L 194.144531 217.246094 L 193.355469 222.976562 C 192.890625 226.765625 192.40625 229.640625 191.910156 231.59375 L 189.28125 240.121094 C 188.640625 242.105469 187.660156 243.503906 186.347656 244.320312 L 184.375 245.851562 L 184.332031 246.417969 L 183.9375 246.550781 L 183.324219 246.289062 L 183.324219 246.070312 C 183.324219 245.457031 183.894531 243.140625 185.035156 239.117188 L 186.347656 234.917969 C 186.875 233.457031 187.3125 232.6875 187.660156 232.597656 C 187.574219 232.453125 187.441406 232.378906 187.269531 232.378906 C 185.75 232.378906 183.953125 234.988281 181.878906 240.207031 L 180.390625 243.796875 C 179.71875 243.386719 178.988281 243.066406 178.199219 242.832031 L 177.28125 242.527344 L 177.542969 242.132812 L 176.535156 240.777344 L 176.140625 240.296875 M 54.367188 161.085938 C 54.046875 160.679688 53.828125 160.269531 53.710938 159.863281 L 53.886719 159.863281 C 53.945312 160.269531 54.105469 160.679688 54.367188 161.085938 M 53.839844 154.046875 L 53.492188 153.5625 L 53.492188 152.734375 L 53.839844 154.046875 M 65.84375 104.316406 L 65.929688 104.359375 L 65.757812 105.847656 L 65.757812 107.945312 L 65.929688 119.625 L 65.929688 128.285156 L 65.667969 130.121094 L 65.492188 130.121094 C 65.054688 130.121094 64.675781 129.859375 64.355469 129.332031 C 64.558594 130.089844 64.820312 130.601562 65.144531 130.863281 C 64.414062 131.769531 63.683594 134.816406 62.953125 140.003906 C 62.25 145.050781 61.902344 148.300781 61.902344 149.757812 C 61.902344 152.46875 61.972656 154.644531 62.121094 156.277344 L 62.03125 156.496094 C 62.5 157.078125 62.808594 158.550781 62.953125 160.910156 L 62.910156 161.394531 L 62.515625 161.523438 L 62.472656 161.523438 L 62.339844 163.710938 L 59.183594 162.75 C 56.761719 162.050781 55.375 161.070312 55.023438 159.820312 L 55.726562 159.730469 L 56.03125 159.601562 C 56.527344 159.484375 56.964844 159.21875 57.347656 158.8125 C 57.8125 158.257812 58.046875 157.601562 58.046875 156.84375 L 58.398438 152.90625 C 58.367188 151.625 58.617188 149 59.140625 145.035156 C 61.332031 135.5 62.425781 130.265625 62.425781 129.332031 C 62.425781 125.570312 61.695312 121.445312 60.238281 116.957031 L 58.308594 111.574219 L 57.960938 111.007812 L 57.652344 110.308594 L 57.519531 109.824219 C 57.695312 109.652344 57.871094 109.5625 58.046875 109.5625 L 58.179688 109.605469 L 59.710938 107.464844 C 61.84375 104.8125 63.550781 103.484375 64.835938 103.484375 L 65.84375 104.316406 M 61.636719 158.59375 L 61.636719 158.417969 L 61.507812 158.417969 L 61.636719 158.59375 "/>
</g>
</svg>
