<?xml version="1.0" encoding="UTF-8"?>
<svg xmlns="http://www.w3.org/2000/svg" xmlns:xlink="http://www.w3.org/1999/xlink" width="203px" height="249px" viewBox="0 0 203 249" version="1.1">
<g id="surface1">
<path style=" stroke:none;fill-rule:evenodd;fill:rgb(0%,0%,0%);fill-opacity:1;" d="M 164.972656 49.378906 C 173.351562 48.214844 179.425781 46.828125 183.195312 45.226562 C 185.324219 44.351562 187.691406 43.007812 190.289062 41.199219 L 190.421875 41.417969 L 190.597656 41.070312 L 190.246094 39.757812 C 190.421875 39.554688 190.320312 39.453125 189.941406 39.453125 L 189.414062 39.539062 L 189.722656 40.109375 L 182.011719 44.394531 C 177.25 46.609375 172.769531 47.71875 168.5625 47.71875 L 165.410156 47.675781 L 164.839844 48.15625 C 164.316406 48.15625 163.90625 47.996094 163.613281 47.675781 L 163.570312 47.628906 L 163.527344 47.761719 L 163.527344 49.597656 L 164.972656 49.554688 L 165.015625 49.554688 L 164.972656 49.378906 M 187.707031 39.496094 L 188.101562 39.015625 C 188.625 38.546875 189.195312 38.3125 189.808594 38.3125 C 190.800781 38.3125 191.457031 39.21875 191.78125 41.027344 C 191.78125 41.988281 191.472656 42.46875 190.859375 42.46875 L 186.261719 45.226562 C 187.164062 47.5 188.976562 50.605469 191.691406 54.542969 C 194.234375 58.246094 195.503906 61.085938 195.503906 63.070312 C 195.503906 64.003906 195.285156 65.097656 194.847656 66.351562 C 194.203125 68.214844 193.296875 69.148438 192.128906 69.148438 C 191.253906 69.148438 190.40625 68.332031 189.589844 66.699219 L 188.273438 65.433594 L 189.371094 70.15625 C 189.953125 71.585938 190.246094 73.726562 190.246094 76.585938 L 190.246094 79.867188 C 190.042969 81.761719 189.386719 82.707031 188.273438 82.707031 C 187.75 82.707031 187.339844 81.980469 187.046875 80.523438 C 186.933594 83.144531 186.507812 84.457031 185.777344 84.457031 C 184.699219 84.457031 184.15625 83.902344 184.15625 82.796875 L 184.113281 80.085938 L 184.113281 74.617188 C 183.238281 75.785156 182.113281 76.367188 180.742188 76.367188 C 178.726562 76.367188 177.484375 75.199219 177.019531 72.867188 L 176.886719 69.195312 C 176.886719 64.820312 177.6875 60.796875 179.296875 57.121094 L 181.792969 50.078125 C 182.40625 48.476562 182.976562 47.28125 183.5 46.492188 C 177.25 49.292969 171.191406 50.722656 165.320312 50.78125 L 165.320312 50.691406 L 163.964844 50.78125 C 162.648438 50.78125 161.992188 49.480469 161.992188 46.886719 L 162.035156 46.101562 L 162.78125 45.96875 C 163.308594 45.96875 163.875 46.1875 164.488281 46.625 C 169.890625 47.003906 175.441406 45.835938 181.136719 43.125 L 187.046875 39.84375 L 187.707031 39.496094 M 184.464844 47.28125 L 184.332031 47.28125 L 184.507812 47.761719 L 184.464844 47.28125 M 184.945312 67.445312 C 184.449219 71.207031 183.078125 73.085938 180.828125 73.085938 C 179.777344 73.085938 179.136719 72.589844 178.902344 71.597656 L 178.859375 70.023438 C 178.859375 68.507812 179.367188 64.570312 180.390625 58.214844 L 180.871094 55.589844 L 179.863281 58.257812 C 178.609375 61.320312 177.980469 64.9375 177.980469 69.105469 C 177.980469 70.359375 178.070312 71.4375 178.246094 72.34375 C 178.625 74.238281 179.355469 75.183594 180.433594 75.183594 C 182.945312 75.183594 184.464844 72.589844 184.988281 67.398438 L 184.988281 67.09375 L 184.945312 67.445312 M 188.101562 62.546875 C 187.691406 61.175781 187.3125 59.601562 186.960938 57.820312 L 186.171875 52.617188 L 186.085938 59.265625 L 186.085938 59.570312 L 188.011719 62.546875 L 188.1875 62.808594 L 188.101562 62.546875 M 187.574219 54.585938 L 188.101562 61.058594 C 188.21875 61.960938 188.378906 62.777344 188.582031 63.507812 C 189.488281 65.023438 190.042969 65.78125 190.246094 65.78125 C 192 65.78125 192.65625 65.316406 192.21875 64.382812 C 192.21875 62.574219 191.195312 60.140625 189.152344 57.078125 L 187.574219 54.585938 M 190.289062 67.09375 C 190.84375 67.675781 191.488281 67.96875 192.21875 67.96875 C 193.210938 67.96875 193.941406 66.335938 194.40625 63.070312 C 193.121094 59.335938 192.144531 57.136719 191.472656 56.464844 C 190.800781 55.796875 190.027344 54.65625 189.152344 53.054688 C 188.363281 51.597656 187.675781 50.632812 187.09375 50.167969 L 187.222656 51.128906 L 190.949219 57.472656 C 192.523438 59.949219 193.3125 62.3125 193.3125 64.558594 L 193.226562 66 C 192.875 66.640625 191.925781 66.960938 190.378906 66.960938 L 190.160156 66.960938 L 190.289062 67.09375 M 181.355469 61.320312 C 180.417969 66.335938 179.953125 69.164062 179.953125 69.804688 L 180.828125 71.90625 C 183.164062 70.679688 184.375 68.960938 184.464844 66.742188 C 184.085938 64.179688 183.894531 62.328125 183.894531 61.1875 L 183.675781 50.472656 C 183.121094 52.367188 182.347656 55.984375 181.355469 61.320312 M 186.960938 63.8125 L 187.136719 63.8125 L 187.09375 63.769531 L 186.085938 62.0625 L 186.085938 64.863281 C 186.347656 65.15625 186.550781 65.695312 186.699219 66.480469 C 187.078125 67.035156 187.382812 68.886719 187.617188 72.035156 L 188.273438 81.441406 C 188.859375 80.914062 189.152344 79.269531 189.152344 76.496094 L 189.019531 72.253906 C 188.523438 71 187.835938 68.917969 186.960938 66 L 186.960938 63.8125 M 185.515625 83.234375 C 185.75 82.15625 185.867188 79.894531 185.867188 76.453125 L 185.734375 70.636719 L 184.902344 73.304688 C 185.253906 74.121094 185.429688 77.417969 185.429688 83.191406 L 185.472656 83.277344 L 185.515625 83.234375 "/>
<path style=" stroke:none;fill-rule:evenodd;fill:rgb(80.000001%,0%,0%);fill-opacity:1;" d="M 164.972656 49.554688 L 164.972656 49.378906 L 165.015625 49.554688 L 164.972656 49.554688 M 184.988281 67.398438 C 184.464844 72.589844 182.945312 75.183594 180.433594 75.183594 C 179.355469 75.183594 178.625 74.238281 178.246094 72.34375 C 178.070312 71.4375 177.980469 70.359375 177.980469 69.105469 C 177.980469 64.9375 178.609375 61.320312 179.863281 58.257812 L 180.871094 55.589844 L 180.390625 58.214844 C 179.367188 64.570312 178.859375 68.507812 178.859375 70.023438 L 178.902344 71.597656 C 179.136719 72.589844 179.777344 73.085938 180.828125 73.085938 C 183.078125 73.085938 184.449219 71.207031 184.945312 67.445312 L 184.988281 67.398438 M 188.011719 62.546875 L 188.101562 62.546875 L 188.011719 62.546875 M 190.378906 66.960938 C 191.925781 66.960938 192.875 66.640625 193.226562 66 L 193.3125 64.558594 C 193.3125 62.3125 192.523438 59.949219 190.949219 57.472656 L 187.222656 51.128906 L 187.09375 50.167969 C 187.675781 50.632812 188.363281 51.597656 189.152344 53.054688 C 190.027344 54.65625 190.800781 55.796875 191.472656 56.464844 C 192.144531 57.136719 193.121094 59.335938 194.40625 63.070312 C 193.941406 66.335938 193.210938 67.96875 192.21875 67.96875 C 191.488281 67.96875 190.84375 67.675781 190.289062 67.09375 L 190.378906 66.960938 M 187.09375 63.769531 L 186.960938 63.8125 L 186.960938 66 C 187.835938 68.917969 188.523438 71 189.019531 72.253906 L 189.152344 76.496094 C 189.152344 79.269531 188.859375 80.914062 188.273438 81.441406 L 187.617188 72.035156 C 187.382812 68.886719 187.078125 67.035156 186.699219 66.480469 C 186.550781 65.695312 186.347656 65.15625 186.085938 64.863281 L 186.085938 62.0625 L 187.09375 63.769531 M 185.429688 83.191406 C 185.429688 77.417969 185.253906 74.121094 184.902344 73.304688 L 185.734375 70.636719 L 185.867188 76.453125 C 185.867188 79.894531 185.75 82.15625 185.515625 83.234375 L 185.429688 83.191406 "/>
<path style=" stroke:none;fill-rule:evenodd;fill:rgb(40.000001%,0%,0%);fill-opacity:1;" d="M 163.613281 47.675781 C 163.90625 47.996094 164.316406 48.15625 164.839844 48.15625 L 165.410156 47.675781 L 168.5625 47.71875 C 172.769531 47.71875 177.25 46.609375 182.011719 44.394531 L 189.722656 40.109375 L 189.414062 39.539062 L 189.941406 39.453125 C 190.320312 39.453125 190.421875 39.554688 190.246094 39.757812 L 190.597656 41.070312 L 190.421875 41.417969 L 190.289062 41.199219 C 187.691406 43.007812 185.324219 44.351562 183.195312 45.226562 C 179.425781 46.828125 173.351562 48.214844 164.972656 49.378906 L 164.972656 49.554688 L 163.527344 49.597656 L 163.527344 47.761719 L 163.613281 47.675781 M 188.011719 62.546875 L 186.085938 59.570312 L 186.085938 59.265625 L 186.171875 52.617188 L 186.960938 57.820312 C 187.3125 59.601562 187.691406 61.175781 188.101562 62.546875 L 188.011719 62.546875 "/>
</g>
</svg>
