<?xml version="1.0" encoding="UTF-8" standalone="no"?>
<svg
   xmlns:dc="http://purl.org/dc/elements/1.1/"
   xmlns:cc="http://creativecommons.org/ns#"
   xmlns:rdf="http://www.w3.org/1999/02/22-rdf-syntax-ns#"
   xmlns:svg="http://www.w3.org/2000/svg"
   xmlns="http://www.w3.org/2000/svg"
   xmlns:sodipodi="http://sodipodi.sourceforge.net/DTD/sodipodi-0.dtd"
   xmlns:inkscape="http://www.inkscape.org/namespaces/inkscape"
   width="203px"
   height="249px"
   viewBox="0 0 203 249"
   version="1.1"
   id="svg21"
   sodipodi:docname="21.svg"
   inkscape:version="1.0.1 (0767f8302a, 2020-10-17)">
  <metadata
     id="metadata27">
    <rdf:RDF>
      <cc:Work
         rdf:about="">
        <dc:format>image/svg+xml</dc:format>
        <dc:type
           rdf:resource="http://purl.org/dc/dcmitype/StillImage" />
        <dc:title></dc:title>
      </cc:Work>
    </rdf:RDF>
  </metadata>
  <defs
     id="defs25" />
  <sodipodi:namedview
     pagecolor="#ffffff"
     bordercolor="#666666"
     borderopacity="1"
     objecttolerance="10"
     gridtolerance="10"
     guidetolerance="10"
     inkscape:pageopacity="0"
     inkscape:pageshadow="2"
     inkscape:window-width="1979"
     inkscape:window-height="1177"
     id="namedview23"
     showgrid="false"
     inkscape:zoom="4.0481928"
     inkscape:cx="101.5"
     inkscape:cy="134.38095"
     inkscape:window-x="4238"
     inkscape:window-y="122"
     inkscape:window-maximized="0"
     inkscape:current-layer="svg21" />
  <path
     style="fill:#000000;fill-opacity:1;fill-rule:evenodd;stroke:none"
     d="m 163.21875,78.507812 0.13281,-0.4375 1.1836,-0.04297 h 0.1289 l 1.53516,0.21875 1.09375,0.21875 11.60937,0.132812 13.35938,-0.699218 c 0.20312,-0.117188 0.26172,-0.292969 0.17578,-0.527344 -0.0586,-0.144532 0.17578,-0.21875 0.69922,-0.21875 0.17578,0 0.32031,0.07422 0.4375,0.21875 1.16797,0 1.72265,2.085937 1.66406,6.253906 -0.0859,5.542969 0.0156,8.894531 0.30859,10.0625 1.10938,4.109375 2.04297,7.304692 2.80469,9.578132 0.23047,0.90234 0.34766,3.1914 0.34766,6.86718 0.52734,2.15625 0.60156,3.77344 0.21875,4.85547 0,0.90235 -0.9336,6.22266 -2.80078,15.96484 -0.17578,1.71875 -0.26563,4.34375 -0.26563,7.8711 l -0.4375,3.9375 c -0.3789,1.89453 -5.37109,2.84375 -14.98047,2.84375 l -7.62109,-0.4375 -0.4375,-0.13281 c -1.02344,-0.0312 -2.04297,-0.62891 -3.06641,-1.79297 -0.84765,-0.99219 -1.3125,-1.8086 -1.40234,-2.44922 l -0.875,-4.8125 c -0.32031,-0.875 -0.73047,-2.63672 -1.22656,-5.29297 l -0.7461,-4.19922 0.0898,-0.30469 -0.17578,-0.34765 -0.3086,-1.05078 c -0.20312,-1.05078 -0.36328,-2.64063 -0.48047,-4.76953 l -0.0898,-4.67969 c 0.32422,-3.9336 0.46875,-6.77735 0.44141,-8.52735 l 0.1289,-1.70703 0.3086,-6.691406 -0.3086,-1.96875 c -0.28906,-2.011718 -0.40625,-3.585937 -0.34765,-4.722656 -0.44141,-2.886719 -0.66016,-5.101562 -0.66016,-6.648438 0,-0.292968 0.14844,-0.496093 0.4375,-0.613281 L 163.875,81.222656 c 0,-1.109375 0.11719,-1.910156 0.35156,-2.40625 l -1.00781,-0.308594 m 21.37891,1.226563 -5.39063,0.04297 -12.78906,-0.304688 -0.65625,-0.21875 -0.35156,-0.08984 -0.4375,2.058594 0.61328,7.433594 h -0.043 l -0.44141,0.04297 v 0.04687 l 0.35156,2.839844 0.61329,6.910156 c 0,3.703125 -0.29297,9.332035 -0.875,16.882815 0,4.49218 0.57031,8.48828 1.70703,11.98437 l -0.4375,0.17578 0.4375,2.92969 c 0.20312,2.27734 0.55468,3.89453 1.05078,4.85547 0.52734,1.01953 0.80469,2.65625 0.83203,4.89844 0.26562,1.42968 1.125,2.5664 2.58594,3.41406 L 171.5,143.06641 c 0.46484,0.52343 1.0625,0.89062 1.79297,1.09375 l 6.83594,0.26171 h 2.1875 l 0.39453,0.39454 0.30859,-0.4375 h 0.69922 l 0.0898,0.21875 0.4375,-0.21875 v -0.043 c 6.6875,-0.26172 10.13282,-1.28516 10.33594,-3.0625 l 0.17578,-4.06641 c 0.17578,-0.73047 0.25,-2.07031 0.21875,-4.02344 -0.0273,-1.83984 0.11719,-3.23828 0.4375,-4.19922 0.0898,-1.37109 0.52735,-4.09765 1.31641,-8.17968 l 0.61328,-4.375 0.043,-0.26172 -0.21875,-0.57031 0.4375,-5.64063 c 0,-3.17969 -0.19141,-5.49609 -0.57031,-6.95312 l -2.71485,-9.09766 c -0.29297,-1.050781 -0.41015,-2.390625 -0.35156,-4.023438 l 0.13281,-4.070312 c 0,-1.339844 -0.17578,-2.785156 -0.52734,-4.328125 l -0.48047,-2.539063 v -0.128906 l -0.61328,0.21875 -7.26953,0.65625 -0.57032,0.04297 h -0.043 m -3.63672,34.507814 -2.62891,-0.30469 c -0.41016,-0.0312 -0.62891,-0.16016 -0.65625,-0.39453 l 0.52344,-0.30469 0.0469,-0.17578 0.65625,-0.043 4.59766,0.56641 8.41016,0.17578 c 0.35156,0.0312 0.42578,0.33594 0.21875,0.91797 l -0.52344,0.52734 -7.75391,-0.52734 -0.875,-0.12891 -1.57812,-0.35156 -0.4375,0.043 m -6.92188,-4.67969 -6.52734,1.26953 c -0.37891,-0.0859 -0.57031,-0.29297 -0.57031,-0.61328 0,-0.34766 1.51953,-0.84375 4.55859,-1.48437 l 0.21875,-0.0469 0.26172,0.26172 0.35156,-0.39063 3.85156,-0.74609 c 6.13282,-1.10547 11.56641,-1.85156 16.29688,-2.23047 l 0.65625,0.13281 0.0898,0.35157 c 0,0.49218 -2.35156,1.04687 -7.05469,1.66015 l -9.0664,1.3125 -2.0586,-0.0898 c -0.67187,0 -1.00781,0.16406 -1.00781,0.48437 v 0.12891 m -12.08984,1.75 -0.043,-0.69922 c 0,-0.58203 0.043,-1.13672 0.12891,-1.66406 l -0.0859,2.36328 m 22.91015,77.46094 h -2.80468 c -4.55469,0.29297 -7.8711,0.26172 -9.94141,-0.0898 l -0.74609,1.83985 c -0.75782,1.95312 -1.21094,3.51172 -1.35938,4.67968 l -0.5664,5.51172 v 0.043 l 0.1289,-0.043 c 0.41016,0 1.60547,0.81641 3.59375,2.44922 l -0.52734,0.52344 c -1.05078,0 -2.01563,-0.46484 -2.89063,-1.39844 l -0.39453,-0.52734 -0.043,0.21875 0.35157,0.30859 c -0.9375,1.66016 -2.29297,3.44141 -4.07422,5.33594 -0.90625,0.93359 -1.35938,2.39062 -1.35938,4.37109 l 0.35156,5.38282 -0.043,1.57421 -0.3086,0.12891 0.35156,4.375 c 0,2.47656 -0.99218,4.97266 -2.98046,7.48047 -1.98438,2.53516 -2.97657,4.00781 -2.97657,4.41797 0,0.78515 0.42188,1.36719 1.26953,1.74609 l 3.06641,0.4375 c 1.60547,0 2.86328,-0.80078 3.76563,-2.40234 l -0.043,-0.21875 c 0,-0.37891 0.14453,-0.58594 0.4375,-0.61328 l 1.22656,-4.375 c 0.35156,-0.96094 1.38672,-2.88672 3.10937,-5.77344 l -0.043,-0.26172 0.0898,-0.35156 0.30469,-0.043 0.35156,-0.56641 -0.043,-0.0898 0.043,-0.52344 0.39453,-0.0898 h 0.043 c -0.99219,-1.63281 -1.67969,-2.94141 -2.05859,-3.9336 0.17578,-0.17578 0.32031,-0.26171 0.4375,-0.26171 l 0.52734,0.21875 0.52344,0.48046 c 0.55468,0.72657 1.16797,2.01172 1.83984,3.84766 1.60547,0.93359 2.36719,3.87891 2.27734,8.83594 0,1.28125 -0.23437,2.71094 -0.69921,4.28515 -0.70313,2.33204 -1.70704,3.5586 -3.02344,3.67579 l 0.21875,0.48046 c 0,0.14454 -0.14453,0.21875 -0.4375,0.21875 -0.32031,0 -0.97656,-0.58203 -1.97266,-1.75 l -0.5664,-0.48046 c -0.90625,-0.78907 -1.49219,-1.44532 -1.75391,-1.96875 h -0.0859 l -0.39453,-0.043 c -0.96484,1.77734 -2.41016,2.66797 -4.33594,2.66797 l -1.35937,-0.043 0.52734,0.82812 0.91797,1.66406 2.67188,2.92969 -0.21875,0.0859 0.043,0.26562 0.78907,0.21875 0.043,0.043 c 1.34375,1.07813 3.38671,1.96875 6.13281,2.66797 2.27734,0.58203 4.04687,0.875 5.30078,0.875 0.52734,0 1.83984,-2.60937 3.94141,-7.83203 2.07421,-5.21875 3.87109,-7.82812 5.39062,-7.82812 0.17188,0 0.30469,0.0742 0.39063,0.21875 -0.34766,0.0898 -0.78516,0.85937 -1.3125,2.32031 l -0.39454,0.52344 c -1.42968,1.95312 -2.58203,3.84765 -3.46093,5.6875 l -1.96875,4.63281 -1.00782,1.92578 c 1.72266,-0.23438 3.06641,-0.625 4.02735,-1.17969 l 0.30859,0.043 0.48047,-0.13281 0.043,-0.56641 1.97266,-1.53125 c 1.3125,-0.8164 2.29296,-2.21484 2.93359,-4.19922 l 2.62891,-8.52734 c 0.49609,-1.95313 0.98046,-4.82813 1.44531,-8.61719 l 0.78906,-5.73047 -0.39453,-2.84375 -1.18359,-7.52343 -0.74219,0.48437 c -0.29297,-0.0898 -0.4375,-0.23437 -0.4375,-0.4375 l -1.83985,0.0859 -1.27343,-0.21875 -0.043,-0.26172 c 0,-0.35156 1.25781,-0.59766 3.76953,-0.74609 l 0.56641,0.0898 c 2.71875,-2.42188 4.07421,-4.18359 4.07421,-5.29297 l -0.875,-6.38672 -0.39453,-1.26562 c -0.29297,-1.08203 -0.97656,-1.83985 -2.05859,-2.27735 -2.65625,-1.07812 -5.35938,-1.70312 -8.10156,-1.8789 l -0.22266,-0.13282 -0.12891,0.13282 m -12.39843,-1.13672 -0.043,0.26172 -0.043,0.043 h 0.17578 c 11.00781,0 18.17578,0.74218 21.50781,2.23046 1.19532,0.52735 1.94141,1.17969 2.23438,1.96875 0.11719,0.29297 0.17187,0.90235 0.17187,1.83594 l -0.043,0.17578 0.57032,2.58203 c 0.35156,1.8086 0.52734,3.08985 0.52734,3.84766 0,1.86719 -1.41797,3.80469 -4.25,5.81641 0.37891,0.78906 0.84766,3.45703 1.40234,8.0039 l 0.0859,0.4375 c 0.20313,0.37891 0.3086,1.15235 0.3086,2.32032 v 0.30468 l -0.26563,1.22657 c -0.23047,1.42578 -0.34766,2.78125 -0.34766,4.0664 v 0.0859 l -0.0469,0.52734 0.13281,-0.21875 0.0859,0.65625 0.0898,0.12891 c -0.20312,-0.0859 -0.32031,-0.23438 -0.35156,-0.4375 -0.46484,3.38281 -1.07812,6.51953 -1.83984,9.40625 -2.6875,10.26172 -6.51172,15.39453 -11.47657,15.39453 l -1.83984,-0.21875 c -0.46484,0.61328 -0.875,0.91797 -1.22656,0.91797 -1.3125,0 -3.30078,-0.39453 -5.95703,-1.17969 -3.06641,-0.90625 -5.19922,-1.88281 -6.39453,-2.93359 -1.66407,-1.45703 -3.30079,-3.39453 -4.90625,-5.81641 v -0.78515 c -1.10938,-0.23438 -1.92579,-0.65625 -2.45313,-1.26954 -0.35156,-0.4375 -0.52734,-0.99218 -0.52734,-1.66015 0,-0.81641 0.77734,-2.34766 2.32422,-4.59375 l 2.71484,-3.80469 c 0.64453,-1.07812 0.96484,-2.49219 0.96484,-4.24219 l -0.21875,-4.11328 v -0.48047 c -0.23437,-0.61328 -0.35156,-1.39843 -0.35156,-2.36328 l 0.17578,-3.84765 c 0,-2.56641 0.57031,-4.31641 1.70703,-5.25 l 1.83985,-2.49219 c 0.70312,-0.96094 1.26953,-1.60156 1.70703,-1.92188 l -0.17188,-1.92578 c 0,-1.01953 0.34766,-3.26562 1.05078,-6.73437 0.875,-4.23047 1.72266,-6.34375 2.53907,-6.34375 0.29297,0 0.4375,0.13281 0.4375,0.39453 M 43.417969,35.691406 c 2.453125,2.828125 3.96875,4.808594 4.554687,5.945313 l 0.480469,-0.347657 c 0.292969,0 0.511719,0.144532 0.65625,0.4375 l -0.875,0.832032 -0.08594,0.699218 c 0.05859,0.144532 -0.08984,0.21875 -0.441407,0.21875 l -0.21875,-0.308593 -5.5625,4.113281 -3.984375,2.667969 -0.789062,0.480469 -1.140625,0.613281 0.394531,0.304687 c -0.144531,0.261719 -0.21875,0.597656 -0.21875,1.007813 -0.02734,-0.05859 -0.160156,-0.148438 -0.394531,-0.261719 l 1.007812,1.792969 0.394531,0.65625 0.08984,-0.04687 L 45.695312,66 l -0.08984,0.570312 0.08984,0.08594 h -0.08984 l -0.04297,0.04297 c -1.285156,1.136719 -4.847656,3.53125 -10.6875,7.175781 -7.710938,4.957031 -12.675781,7.433594 -14.894531,7.433594 -2.421875,0 -4.410157,-1.09375 -5.957031,-3.28125 L 12.535156,75.097656 C 12.066406,74.574219 10.578125,72.269531 8.066406,68.1875 7.394531,67.050781 6.269531,64.6875 4.695312,61.101562 1.890625,54.714844 0.488281,50.066406 0.488281,47.148438 c 0,-1.371094 0.480469,-2.59375 1.445313,-3.671876 1.546875,-1.488281 2.933594,-3.019531 4.160156,-4.59375 3.183594,-4.34375 5.273438,-6.984374 6.265625,-7.917968 l -0.04297,-0.128906 c 0,-0.320313 1.109375,-1.429688 3.328125,-3.324219 l 3.898438,-3.367188 2.933593,-3.105469 c 1.78125,-1.808593 2.847657,-2.710937 3.199219,-2.710937 1.488281,0 3.765625,1.632813 6.832031,4.898437 l 5.871094,6.910157 5.039063,5.554687 m -8.5,14.5625 11.914062,-7.871094 -7.925781,-9.886718 v -0.347656 c 0,-0.292969 -0.175781,-0.496094 -0.527344,-0.613282 l -0.175781,0.175782 -0.175781,-0.21875 C 31.3125,23.472656 27.265625,19.464844 25.894531,19.464844 c -0.378906,0 -1.269531,0.816406 -2.671875,2.449218 l -3.199218,3.671876 c -0.933594,0.964843 -2.4375,2.011718 -4.511719,3.148437 l -1.882813,2.363281 c -0.08594,0.554688 -2.085937,3.132813 -6,7.742188 -4.03125,4.695312 -6.046875,7.492187 -6.046875,8.398437 0,2.945313 1.433594,7.492188 4.292969,13.644531 0.703125,1.515626 2.191406,4.226563 4.46875,8.136719 1.722656,2.945313 2.671875,4.722657 2.847656,5.335938 l 2.148438,2.753906 c 1.398437,2.011719 2.992187,3.019531 4.773437,3.019531 5.109375,-2.683594 10.03125,-5.234375 14.761719,-7.65625 l 0.394531,-0.261718 h 0.04297 c 0.351562,0 0.496094,-0.05859 0.4375,-0.175782 l 0.04297,-0.171875 4.339843,-3.019531 C 42.144531,67.445312 43.605469,66.496094 44.511719,66 l -4.25,-5.03125 -2.144531,-3.277344 -0.4375,-0.746094 -3.59375,-5.027343 v -0.832031 l -1.269532,-0.699219 c -0.585937,-0.351563 -1.125,-0.527344 -1.621094,-0.527344 -4.992187,-0.05469 -7.492187,-0.320313 -7.492187,-0.785156 l 0.04687,-0.65625 0.523438,-0.132813 c 3.824218,0 6.777343,0.378906 8.847656,1.140625 l -2.582032,-1.839843 c -2.21875,-1.71875 -3.621093,-3.117188 -4.207031,-4.199219 0.148438,-0.230469 0.335938,-0.347657 0.570313,-0.347657 0.351562,0 1.621094,0.917969 3.8125,2.753907 2.421875,2.042969 3.957031,3.238281 4.597656,3.585937 l -0.65625,0.65625 h -0.132812 l 0.394531,0.21875 M 17.398438,47.0625 h 0.04297 l 0.570313,-0.21875 0.08594,-0.08984 5.386719,-0.433594 c 0.292969,0 0.511719,0.144532 0.65625,0.433594 -0.378906,0.527344 -0.84375,0.789063 -1.398437,0.789063 l -3.679688,0.4375 -0.175781,-0.04297 v 0.04297 l -1.097657,0.08594 -0.4375,-0.08594 -0.21875,-0.523438 c 0,-0.148437 0.08984,-0.277343 0.265626,-0.394531 m 21.636718,9.445312 -0.394531,-0.609374 1.007813,1.3125 -0.613282,-0.703126 m 26.894532,47.851564 v -0.043 h -0.08594 l -1.007812,-0.83203 c -1.285157,0 -2.992188,1.32812 -5.125,3.98046 l -1.53125,2.14063 -0.132813,-0.043 c -0.175781,0 -0.351563,0.0898 -0.527344,0.26172 l 0.132813,0.48437 -0.832032,1.3125 c -2.832031,3.78907 -5.097656,6.54297 -6.789062,8.26563 0.582031,0.49609 1.109375,1.3125 1.578125,2.44922 0.496094,1.16406 1.003906,2.01172 1.53125,2.53515 0.585937,0.58204 2.746094,1.91016 6.484375,3.98047 l -0.570312,2.44922 -0.308594,0.13281 -1.574219,2.66797 c -1.167969,2.41797 -1.753906,4.85547 -1.753906,7.30469 l -0.875,10.10156 0.351562,3.32422 c 0,2.01172 -0.175781,3.01953 -0.527343,3.01953 -3.125,0 -5.855469,-1.18359 -8.191407,-3.54297 -1.808593,-2.30468 -3.316406,-3.99609 -4.511719,-5.07422 -0.640624,-0.0898 -1.242187,-0.41015 -1.796874,-0.96093 -0.730469,0.98828 -1.09375,2.15625 -1.09375,3.49609 0,0.96484 1.691406,3.80469 5.082031,8.53125 v 0.043 l 0.04297,0.26172 0.21875,0.043 0.480468,0.65625 c 1.050782,1.05078 1.796875,2.625 2.234375,4.72265 1.050781,1.69141 4.015625,2.97657 8.894531,3.85157 l 0.613282,-0.043 -0.132813,-0.0898 h 0.746094 v 0.043 h 0.04297 c 0.90625,-0.11328 1.839844,-0.44922 2.800781,-1.0039 l 1.492187,-1.3125 c 0.40625,-1.42969 0.730469,-2.39063 0.960938,-2.88672 l 0.222656,-3.0625 h 0.04297 l 0.394531,-0.12891 0.04297,-0.48437 C 62.808594,158.55078 62.5,157.07812 62.03125,156.49609 l 0.08984,-0.21875 c -0.148438,-1.63281 -0.21875,-3.80859 -0.21875,-6.51953 0,-1.45703 0.347656,-4.70703 1.050781,-9.7539 0.730469,-5.1875 1.460937,-8.23438 2.191406,-9.14063 -0.324219,-0.26172 -0.585937,-0.77344 -0.789062,-1.53125 0.320312,0.52734 0.699219,0.78906 1.136719,0.78906 h 0.175781 l 0.261719,-1.83593 V 119.625 l -0.171876,-11.67969 v -2.09765 l 0.171876,-1.48828 m 0.351562,-0.35157 c 0.292969,0.35157 0.46875,3.22266 0.527344,8.61719 v 8.66016 c 0.203125,6.47265 -0.04687,9.95703 -0.746094,10.45312 l -1.53125,5.59766 c -0.46875,1.42968 -0.820312,3.48437 -1.054688,6.16797 -0.347656,1.54687 -0.523437,5.67187 -0.523437,12.3789 v 0.96094 c 0.496094,0.14453 0.671875,0.77344 0.523437,1.88281 l 0.08984,2.14063 c -0.03125,1.48828 -0.175781,2.82812 -0.4375,4.02343 -0.847656,3.70313 -2.832031,5.55469 -5.957031,5.55469 h -0.789063 l -0.789062,0.17578 c -3.328125,0 -5.855469,-0.83203 -7.578125,-2.49218 -0.757813,-0.69922 -2.292969,-2.96094 -4.597656,-6.78125 l -3.066407,-4.41407 c -1.636718,-2.50781 -2.453124,-4.27343 -2.453124,-5.29297 0,-0.46875 0.144531,-1.21093 0.4375,-2.23046 0.378906,-1.3711 0.816406,-2.0586 1.3125,-2.0586 1.316406,0 2.367187,0.46875 3.15625,1.40235 l -0.222657,0.26171 1.007813,1.05079 c 1.285156,1.33984 2.089844,2.3164 2.410156,2.92968 0.378906,0.72657 1.050781,1.38282 2.015625,1.96875 l -0.4375,-2.97656 c -0.175781,-1.54297 -0.671875,-2.73828 -1.488281,-3.58594 -3.125,-3.96484 -4.6875,-6.3125 -4.6875,-7.04297 0,-0.17187 0.160156,-0.34765 0.480468,-0.52343 0.613282,-0.32032 1.679688,-0.48047 3.199219,-0.48047 2.539063,0 4.246094,0.71484 5.125,2.14453 0.496094,0.75781 0.84375,1.77734 1.050781,3.05859 l 2.453126,4.11328 c 0.08594,-2.88671 0.40625,-6.13671 0.960937,-9.7539 0.90625,-5.80469 2.074219,-8.91016 3.507813,-9.31641 l 0.261718,-1.22656 c 0,-0.28906 -0.933594,-0.94531 -2.804687,-1.96484 -2.015625,-1.08203 -3.167969,-1.86719 -3.460938,-2.36328 l -3.066406,-5.07422 c 3.796875,-4.60547 6.148437,-7.59375 7.054687,-8.96485 l 3.285157,-4.8125 c 1.867187,-2.41797 3.386719,-3.6289 4.554687,-3.6289 1.519532,0 2.277344,0.39453 2.277344,1.17968 v 0.26172 m -23.390625,37.66016 h -0.04297 v 0.0859 l -0.04297,0.13281 v 0.21875 l 0.04297,0.17578 v 0.0859 h 0.04297 c 0.261719,0.58203 1.3125,1.80859 3.152344,3.67187 l 0.265625,0.26563 2.890625,6.21093 -0.21875,1.22266 -0.04687,0.13281 v 0.21875 c 0.03125,0.46485 0.175781,0.78516 0.441406,0.96094 l 0.21875,-0.043 0.175781,0.12891 0.832031,0.48437 1.050782,0.65625 0.960937,-0.0898 0.175781,0.0898 c 0.820313,0 1.226563,-0.41015 1.226563,-1.22656 0,-0.46484 -0.289063,-1.63281 -0.875,-3.5 l -1.226563,-3.45312 -1.578124,-3.98047 c -0.671876,-1.45703 -1.429688,-2.36328 -2.277344,-2.71094 -0.117188,-0.46875 -0.613282,-0.70313 -1.488282,-0.70313 l -1.535156,0.875 -1.179687,-0.17187 c -0.527344,0 -0.847657,0.0859 -0.964844,0.26172 m 17.519531,-13.03516 -0.4375,-0.0859 -0.175781,-0.39453 1.402344,-1.26953 c 0.351562,0 0.527343,0.13282 0.527343,0.39453 0,0.35157 -0.4375,0.80078 -1.316406,1.35547 m 1.097656,29.78516 h 0.128907 v 0.17578 l -0.128907,-0.17578 m 107.449221,72.47265 0.61328,-0.0859 c 1.34375,0 2.57031,0.20312 3.67969,0.61328 l -1.00781,-3.45703 -0.48047,-2.05469 -2.80469,4.94141 v 0.043 m -1.00781,3.71875 0.0898,0.0898 -0.043,-0.35156 -0.0469,0.26171 m 2.76172,-3.10546 c -0.55469,0 -1.09766,0.39453 -1.6211,1.18359 -0.4375,0.66797 -0.65625,1.16406 -0.65625,1.48437 0,0.17579 0.42188,0.75782 1.26953,1.75 0.96485,1.13672 1.76563,1.70704 2.41016,1.70704 1.07813,0 1.83984,-1.3711 2.27734,-4.11329 0,-0.23046 -0.32421,-0.59765 -0.96484,-1.09375 -0.81641,-0.60937 -1.72266,-0.91796 -2.71484,-0.91796 m -0.13282,0.91796 -0.043,0.0469 v -0.0469 h 0.043"
     id="path2" />
  <path
     style="fill:#ccb8ba;fill-opacity:1;fill-rule:evenodd;stroke:none"
     d="m 182.14453,144.42187 v -0.21875 l 0.17188,0.21875 h -0.17188 m 2.45313,-64.425776 v -0.261719 h 0.043 l -0.043,0.261719"
     id="path4" />
  <path
     style="fill:#ff99cc;fill-opacity:1;fill-rule:evenodd;stroke:none"
     d="m 165.58594,88.65625 -0.48438,0.08984 v -0.04687 l 0.44141,-0.04297 h 0.043 m 12.96484,22.17578 0.043,-0.0859 h 0.043 l -0.0859,0.0859 m -7.05078,-2.09765 -0.0898,-0.48438 0.30859,0.4375 -0.21875,0.0469 m 13.14062,-29.000005 0.57032,-0.04297 v 0.175782 l -0.61328,0.128906 0.043,-0.261719 m -0.92187,64.644536 h -0.69922 l 0.0859,-0.0859 0.043,0.0859 0.48437,-0.26172 0.0859,0.26172 M 35.269531,72.210938 34.875,72.472656 l 0.21875,-0.304687 0.175781,0.04297"
     id="path6" />
  <path
     style="fill:#0059ff;fill-opacity:1;fill-rule:evenodd;stroke:none"
     d="m 182.14453,144.20312 0.17188,-2.14062 -0.17188,-2.01172 0.4375,-3.63281 v -1.13672 c 0,-2.24609 0.55469,-4.00781 1.66406,-5.29297 1.07813,-1.28125 1.6211,-3.23437 1.6211,-5.85937 0,-2.50782 -0.11719,-4.09766 -0.35157,-4.76953 -0.64062,-1.92188 -2.33593,-3.38282 -5.08203,-4.3711 l -0.043,-0.30859 c 0,-0.23047 0.19141,-0.37891 0.57032,-0.4375 l 0.4375,-0.043 1.57812,0.35156 0.875,0.12891 7.75391,0.52734 0.52344,-0.52734 c 0.20703,-0.58203 0.13281,-0.88672 -0.21875,-0.91797 l -8.41016,-0.17578 -4.59766,-0.56641 -0.65625,0.043 -0.0469,0.17578 -0.52344,0.30469 c -0.37891,-0.37891 -0.57031,-0.72656 -0.57031,-1.05078 0,-0.66797 0.48047,-1.22266 1.44531,-1.66016 l 0.0859,-0.0859 h -0.043 l -4.51172,-1.00781 -0.043,-0.17578 v -0.12891 c 0,-0.32031 0.33594,-0.48437 1.00781,-0.48437 l 2.0586,0.0898 9.0664,-1.3125 c 4.70313,-0.61328 7.05469,-1.16797 7.05469,-1.66015 l -0.0898,-0.35157 -0.65625,-0.13281 c -4.73047,0.37891 -10.16406,1.125 -16.29688,2.23047 l -3.85156,0.74609 -0.35156,0.39063 -0.26172,-0.26172 -0.30859,-0.48047 c 0,-0.3789 2.3789,-3.1914 7.14062,-8.441405 4.73047,-5.800781 7.09766,-10.261719 7.09766,-13.382813 0,-1.253906 -0.17578,-2.539062 -0.52735,-3.847656 l -0.57031,-2.058594 0.0469,-0.480468 0.61328,-0.128906 v -0.175782 l 7.26953,-0.65625 0.61328,-0.08984 0.48047,2.539063 c 0.35156,1.542969 0.52734,2.988281 0.52734,4.328125 l -0.13281,4.070312 c -0.0586,1.632813 0.0586,2.972657 0.35156,4.023438 l 2.71485,9.097656 c 0.3789,1.45703 0.57031,3.77343 0.57031,6.95312 l -0.4375,5.64063 0.21875,0.57031 -0.043,0.26172 -0.61328,4.375 c -0.78906,4.08203 -1.22656,6.80859 -1.31641,8.17968 -0.32031,0.96094 -0.46484,2.35938 -0.4375,4.19922 0.0312,1.95313 -0.043,3.29297 -0.21875,4.02344 l -0.17578,4.06641 c -0.20312,1.77734 -3.64844,2.80078 -10.33594,3.0625 v 0.043 l -0.4375,0.21875 -0.0898,-0.21875 -0.0859,-0.26172 -0.48437,0.26172 -0.043,-0.0859 -0.0859,0.0859 -0.30859,0.4375 -0.39453,-0.39454 -0.17188,-0.21875 M 38.203125,31.710938 38.378906,31.535156 c 0.351563,0.117188 0.527344,0.320313 0.527344,0.613282 v 0.347656 l 7.925781,9.886718 -11.914062,7.871094 -0.261719,-0.21875 0.65625,-0.65625 c -0.640625,-0.347656 -2.175781,-1.542968 -4.597656,-3.585937 -2.191406,-1.835938 -3.460938,-2.753907 -3.8125,-2.753907 -0.234375,0 -0.421875,0.117188 -0.570313,0.347657 0.585938,1.082031 1.988281,2.480469 4.207031,4.199219 l 2.582032,1.839843 C 31.050781,48.664062 28.097656,48.285156 24.273438,48.285156 L 23.75,48.417969 l -0.04687,0.65625 c 0,0.464843 2.5,0.730469 7.492187,0.785156 0.496094,0 1.035157,0.175781 1.621094,0.527344 l 1.269532,0.699219 v 0.832031 l 3.59375,5.027343 0.4375,0.746094 2.144531,3.277344 4.25,5.03125 c -0.90625,0.496094 -2.367188,1.445312 -4.378907,2.84375 l -4.339843,3.019531 -0.523438,0.347657 -0.175781,-0.04297 C 34.566406,71.875 33.765625,70.78125 32.683594,68.886719 L 29.96875,64.25 c -0.757812,-1.046875 -1.199219,-2.359375 -1.316406,-3.933594 l -0.21875,-3.9375 -2.058594,0.960938 -5.648438,0.4375 c -4.089843,0 -5.621093,-0.246094 -4.601562,-0.742188 0,-0.4375 0.921875,-3.457031 2.761719,-9.054687 H 19.0625 l 3.679688,-0.4375 c 0.554687,0 1.019531,-0.261719 1.398437,-0.789063 -0.144531,-0.289062 -0.363281,-0.433594 -0.65625,-0.433594 l -5.386719,0.433594 -0.08594,0.08984 -0.570313,0.21875 h -0.04297 C 17.015625,47.03125 16.59375,46.84375 16.125,46.492188 l -0.65625,-0.699219 c 0,-0.289063 0.789062,-0.757813 2.367188,-1.398438 l 3.152343,-1.355469 -2.453125,-1.09375 C 19.9375,40.925781 21.953125,40.003906 24.582031,39.1875 l 6.65625,-1.835938 c 2.132813,-0.640624 3.652344,-1.542968 4.554688,-2.710937 1.167969,-1.546875 1.972656,-2.523437 2.410156,-2.929687"
     id="path8" />
  <path
     style="fill:#ff6699;fill-opacity:1;fill-rule:evenodd;stroke:none"
     d="m 171.41016,108.25 v -0.043 l 0.30859,0.48047 -0.30859,-0.4375 m 21.07031,-29.214844 0.61328,-0.21875 v 0.128906 l -0.61328,0.08984 M 34.917969,50.253906 34.523438,50.035156 h 0.132812 l 0.261719,0.21875 m 0.875,21.609375 -0.04297,0.171875 c 0.05859,0.117188 -0.08594,0.175782 -0.4375,0.175782 h -0.04297 l 0.523438,-0.347657 M 19.0625,47.980469 H 18.886719 V 47.9375 l 0.175781,0.04297"
     id="path10" />
  <path
     style="fill:#63575e;fill-opacity:1;fill-rule:evenodd;stroke:none"
     d="m 169.44141,200.71484 0.5664,-5.51172 c 0.14844,-1.16796 0.60156,-2.72656 1.35938,-4.67968 l 0.74609,-1.83985 c 2.07031,0.35157 5.38672,0.38282 9.94141,0.0898 h 2.80468 c -0.29296,0.58203 -0.33593,3.52734 -0.13281,8.83593 0.0586,2.1836 -0.10156,3.76172 -0.48047,4.72266 -0.73047,1.80859 -2.3789,3.28125 -4.94922,4.41797 2.39454,1.19531 3.79688,3.28125 4.20313,6.25391 l 0.70312,6.42968 0.26172,1.87891 c -0.4375,0.41016 -0.77343,1.15234 -1.00781,2.23047 L 182.88672,227 c -0.46485,1.80859 -1.3711,3.86328 -2.71485,6.16797 -0.29296,0.49609 -0.67187,1.57422 -1.14062,3.23437 -0.37891,1.3125 -0.93359,2.28907 -1.66406,2.92969 -2.48047,2.07031 -5.19532,3.42969 -8.14844,4.07031 l -3.37109,0.48047 -2.67188,-2.92969 -0.91797,-1.66406 -0.52734,-0.82812 1.35937,0.043 c 1.92578,0 3.3711,-0.89063 4.33594,-2.66797 l 0.39453,0.043 h 0.0859 c 0.26172,0.52343 0.84766,1.17968 1.75391,1.96875 l 0.5664,0.48046 c 0.9961,1.16797 1.65235,1.75 1.97266,1.75 0.29297,0 0.4375,-0.0742 0.4375,-0.21875 l -0.21875,-0.48046 c 1.3164,-0.11719 2.32031,-1.34375 3.02344,-3.67579 0.46484,-1.57421 0.69921,-3.0039 0.69921,-4.28515 0.0898,-4.95703 -0.67187,-7.90235 -2.27734,-8.83594 -0.67187,-1.83594 -1.28516,-3.12109 -1.83984,-3.84766 l 0.4375,-0.35156 -0.34766,-2.14062 c -0.17578,-0.90625 -0.49609,-1.35938 -0.96484,-1.35938 -1.8125,0 -3.1836,3.67578 -4.11719,11.02344 0.35156,1.51562 -0.26172,3.35156 -1.83984,5.51172 l -2.84766,2.66797 c -0.81641,0.72656 -1.37109,1.33984 -1.66406,1.83593 l -0.13282,-0.043 c -0.58203,0.23437 -0.875,0.48046 -0.875,0.74218 v 0.043 l 0.043,0.21875 0.13282,0.13281 0.0859,0.043 -0.043,0.043 c -0.84765,-0.3789 -1.26953,-0.96094 -1.26953,-1.74609 0,-0.41016 0.99219,-1.88281 2.97657,-4.41797 1.98828,-2.50781 2.98046,-5.00391 2.98046,-7.48047 l -0.35156,-4.375 0.3086,-0.12891 0.043,-1.57421 -0.35156,-5.38282 c 0,-1.98047 0.45313,-3.4375 1.35938,-4.37109 1.78125,-1.89453 3.13672,-3.67578 4.07422,-5.33594 h 0.0859 c 0.875,0.9336 1.83985,1.39844 2.89063,1.39844 l 0.52734,-0.52344 c -1.98828,-1.63281 -3.18359,-2.44922 -3.59375,-2.44922 h -0.1289 m 14.10156,45.79297 c -0.96094,0.55469 -2.30469,0.94531 -4.02735,1.17969 l 1.00782,-1.92578 1.96875,-4.63281 c 0.8789,-1.83985 2.03125,-3.73438 3.46093,-5.6875 l 0.39454,-0.52344 -1.3125,4.19922 c -1.14063,4.02343 -1.71094,6.33984 -1.71094,6.95312 l 0.0469,0.39453 0.17188,0.043 m -17.03906,-2.01172 -0.043,-0.043 h 0.043 v 0.043 M 43.855469,160.30078 c -3.390625,-4.72656 -5.082031,-7.56641 -5.082031,-8.53125 0,-1.33984 0.363281,-2.50781 1.09375,-3.49609 0.554687,0.55078 1.15625,0.87109 1.796874,0.96093 1.195313,1.07813 2.703126,2.76954 4.511719,5.07422 2.335938,2.35938 5.066407,3.54297 8.191407,3.54297 0.351562,0 0.527343,-1.00781 0.527343,-3.01953 l -0.351562,-3.32422 0.875,-10.10156 c 0,-2.44922 0.585937,-4.88672 1.753906,-7.30469 l 1.574219,-2.66797 0.308594,-0.13281 0.570312,-2.44922 c -3.738281,-2.07031 -5.898438,-3.39843 -6.484375,-3.98047 -0.527344,-0.52343 -1.035156,-1.37109 -1.53125,-2.53515 -0.46875,-1.13672 -0.996094,-1.95313 -1.578125,-2.44922 1.691406,-1.72266 3.957031,-4.47656 6.789062,-8.26563 l 0.832032,-1.3125 0.308594,0.69922 0.347656,0.56641 1.929687,5.38281 c 1.457031,4.48828 2.1875,8.61328 2.1875,12.375 0,0.93359 -1.09375,6.16797 -3.285156,15.70313 -0.523437,3.96484 -0.773437,6.58984 -0.742187,7.87109 l -0.351563,3.9375 c 0,0.75781 -0.234375,1.41406 -0.699219,1.96875 -0.382812,0.40625 -0.820312,0.67187 -1.316406,0.78906 l -0.304688,0.12891 -11.433593,0.21875 c -0.261719,0.0859 -0.410157,0.20312 -0.4375,0.35156 m 16.554687,-31.66797 c 0.878906,-0.55469 1.316406,-1.0039 1.316406,-1.35547 0,-0.26171 -0.175781,-0.39453 -0.527343,-0.39453 l -1.402344,1.26953 0.175781,0.39453 0.4375,0.0859"
     id="path12" />
  <path
     style="fill:#473f4a;fill-opacity:1;fill-rule:evenodd;stroke:none"
     d="m 159.89062,237.10156 0.043,-0.043 -0.0859,-0.043 -0.13282,-0.13281 -0.043,-0.21875 v -0.043 c 0,-0.26172 0.29297,-0.50781 0.875,-0.74218 l 0.13282,0.043 c 0.29297,-0.49609 0.84765,-1.10937 1.66406,-1.83593 l 2.84766,-2.66797 c 1.57812,-2.16016 2.1914,-3.9961 1.83984,-5.51172 0.93359,-7.34766 2.30469,-11.02344 4.11719,-11.02344 0.46875,0 0.78906,0.45313 0.96484,1.35938 l 0.34766,2.14062 -0.4375,0.35156 -0.52344,-0.48046 -0.52734,-0.21875 c -0.11719,0 -0.26172,0.0859 -0.4375,0.26171 0.3789,0.99219 1.0664,2.30079 2.05859,3.9336 h -0.043 l -0.39453,0.0898 -0.043,0.52344 0.043,0.0898 -0.35156,0.56641 -0.30469,0.043 -0.0898,0.35156 0.043,0.26172 c -1.72265,2.88672 -2.75781,4.8125 -3.10937,5.77344 l -1.22656,4.375 c -0.29297,0.0273 -0.4375,0.23437 -0.4375,0.61328 l 0.043,0.21875 c -0.90235,1.60156 -2.16016,2.40234 -3.76563,2.40234 l -3.06641,-0.4375 m 5.95704,6.78125 3.37109,-0.48047 c 2.95312,-0.64062 5.66797,-2 8.14844,-4.07031 0.73047,-0.64062 1.28515,-1.61719 1.66406,-2.92969 0.46875,-1.66015 0.84766,-2.73828 1.14062,-3.23437 1.34375,-2.30469 2.25,-4.35938 2.71485,-6.16797 l 0.57031,-3.45703 c 0.23438,-1.07813 0.57031,-1.82031 1.00781,-2.23047 l -0.26172,-1.87891 -0.70312,-6.42968 c -0.40625,-2.97266 -1.80859,-5.0586 -4.20313,-6.25391 2.57032,-1.13672 4.21875,-2.60938 4.94922,-4.41797 0.37891,-0.96094 0.53907,-2.53906 0.48047,-4.72266 -0.20312,-5.30859 -0.16015,-8.2539 0.13281,-8.83593 l 0.12891,-0.13282 0.22266,0.13282 c 2.74218,0.17578 5.44531,0.80078 8.10156,1.8789 1.08203,0.4375 1.76562,1.19532 2.05859,2.27735 l 0.39453,1.26562 0.875,6.38672 c 0,1.10938 -1.35546,2.87109 -4.07421,5.29297 L 192,205.78516 c -2.51172,0.14843 -3.76953,0.39453 -3.76953,0.74609 l 0.043,0.26172 1.27343,0.21875 1.83985,-0.0859 c 0,0.20313 0.14453,0.34766 0.4375,0.4375 l 0.74219,-0.48437 1.18359,7.52343 0.39453,2.84375 -0.78906,5.73047 c -0.46485,3.78906 -0.94922,6.66406 -1.44531,8.61719 l -2.62891,8.52734 c -0.64063,1.98438 -1.62109,3.38282 -2.93359,4.19922 l -1.97266,1.53125 -0.043,0.56641 -0.48047,0.13281 -0.30859,-0.043 -0.17188,-0.043 -0.0469,-0.39453 c 0,-0.61328 0.57031,-2.92969 1.71094,-6.95312 l 1.3125,-4.19922 c 0.52734,-1.46094 0.96484,-2.23047 1.3125,-2.32031 -0.0859,-0.14454 -0.21875,-0.21875 -0.39063,-0.21875 -1.51953,0 -3.31641,2.60937 -5.39062,7.82812 -2.10157,5.22266 -3.41407,7.83203 -3.94141,7.83203 -1.25391,0 -3.02344,-0.29297 -5.30078,-0.875 -2.7461,-0.69922 -4.78906,-1.58984 -6.13281,-2.66797 v -0.043 h -0.043 l -0.78907,-0.21875 -0.043,-0.26562 0.21875,-0.0859 M 65.84365,104.3164 l 0.08594,0.043 -0.171876,1.48828 v 2.09765 l 0.171876,11.67969 v 8.66016 l -0.261719,1.83593 H 65.49209 c -0.4375,0 -0.816407,-0.26172 -1.136719,-0.78906 0.203125,0.75781 0.464843,1.26953 0.789062,1.53125 -0.730469,0.90625 -1.460937,3.95313 -2.191406,9.14063 -0.703125,5.04687 -1.050781,8.29687 -1.050781,9.7539 0,2.71094 0.07031,4.88672 0.21875,6.51953 l -0.08984,0.21875 c 0.46875,0.58203 0.777344,2.05469 0.921875,4.41407 l -0.04297,0.48437 -0.394531,0.12891 H 62.47256 L 62.25,164.58594 c -0.230469,0.49609 -0.554688,1.45703 -0.960938,2.88672 l -1.492187,1.3125 c -0.960937,0.55468 -1.894531,0.89062 -2.800781,1.0039 l -0.04297,-0.043 H 56.20703 l -0.480469,0.13282 c -4.878906,-0.875 -7.84375,-2.16016 -8.894531,-3.85157 -0.4375,-2.09765 -1.183593,-3.67187 -2.234375,-4.72265 l -0.480468,-0.65625 -0.21875,-0.043 -0.04297,-0.26172 v -0.043 c 0.02734,-0.14844 0.175781,-0.26562 0.4375,-0.35156 l 11.433593,-0.21875 0.304688,-0.12891 c 0.496094,-0.11719 0.933594,-0.38281 1.316406,-0.78906 0.464844,-0.55469 0.699219,-1.21094 0.699219,-1.96875 l 0.351563,-3.9375 c -0.03125,-1.28125 0.21875,-3.90625 0.742187,-7.87109 2.191406,-9.53516 3.285156,-14.76954 3.285156,-15.70313 0,-3.76172 -0.730469,-7.88672 -2.1875,-12.375 l -1.929687,-5.38281 -0.347656,-0.56641 -0.308594,-0.69922 -0.132813,-0.48437 c 0.175781,-0.17188 0.351563,-0.26172 0.527344,-0.26172 l 0.132813,0.043 1.53125,-2.14063 c 2.132812,-2.65234 3.839843,-3.98046 5.125,-3.98046 l 1.007812,0.83203 m -22.953125,37.35156 c 0.117187,-0.17578 0.4375,-0.26172 0.964844,-0.26172 l 1.179687,0.17187 1.535156,-0.875 c 0.875,0 1.371094,0.23438 1.488282,0.70313 0.847656,0.34766 1.605468,1.25391 2.277344,2.71094 l 1.578124,3.98047 1.226563,3.45312 c 0.585937,1.86719 0.875,3.03516 0.875,3.5 0,0.81641 -0.40625,1.22656 -1.226563,1.22656 l -0.175781,-0.0898 -0.960937,0.0898 -1.050782,-0.65625 -0.832031,-0.48437 -0.175781,-0.12891 -0.21875,0.043 c -0.265625,-0.17578 -0.410156,-0.49609 -0.441406,-0.96094 v -0.21875 l 0.04687,-0.13281 0.21875,-1.22266 -2.890625,-6.21093 -0.265625,-0.26563 c -1.839844,-1.86328 -2.890625,-3.08984 -3.152344,-3.67187 h -0.04297 v -0.0859 l -0.04297,-0.17578 v -0.21875 l 0.04297,-0.13281 v -0.0859 h 0.04297 m 18.617187,16.75 0.128907,0.17578 v -0.17578 h -0.128907 m 109.070305,74.0039 h -0.043 v 0.0469 l 0.043,-0.0469 m 0.13282,-0.91796 c 0.99218,0 1.89843,0.30859 2.71484,0.91796 0.64063,0.4961 0.96484,0.86329 0.96484,1.09375 -0.4375,2.74219 -1.19921,4.11329 -2.27734,4.11329 -0.64453,0 -1.44531,-0.57032 -2.41016,-1.70704 -0.84765,-0.99218 -1.26953,-1.57421 -1.26953,-1.75 0,-0.32031 0.21875,-0.8164 0.65625,-1.48437 0.52344,-0.78906 1.06641,-1.18359 1.6211,-1.18359"
     id="path14" />
  <path
     style="fill:#333333;fill-opacity:1;fill-rule:evenodd;stroke:none"
     d="m 56.207031,169.74609 0.132813,0.0898 -0.613282,0.043 0.480469,-0.13282"
     id="path16" />
  <path
     style="fill:#00d2ff;fill-opacity:1;fill-rule:evenodd;stroke:none"
     d="m 165.58594,88.65625 -0.61328,-7.433594 0.4375,-2.058594 0.35156,0.08984 0.65625,0.21875 12.78906,0.304688 5.39063,-0.04297 v 0.261719 l -0.0469,0.480468 0.57031,2.058594 c 0.35157,1.308594 0.52735,2.59375 0.52735,3.847656 0,3.121094 -2.36719,7.582032 -7.09766,13.382813 -4.76172,5.25001 -7.14062,8.06251 -7.14062,8.44141 v 0.043 l 0.0898,0.48438 c -3.03906,0.64062 -4.55859,1.13671 -4.55859,1.48437 0,0.32031 0.1914,0.52734 0.57031,0.61328 l 6.52734,-1.26953 0.043,0.17578 4.51172,1.00781 -0.043,0.0859 c -0.96484,0.4375 -1.44531,0.99219 -1.44531,1.66016 0,0.32422 0.1914,0.67187 0.57031,1.05078 0.0273,0.23437 0.24609,0.36328 0.65625,0.39453 l 2.62891,0.30469 c -0.37891,0.0586 -0.57032,0.20703 -0.57032,0.4375 l 0.043,0.30859 c 2.7461,0.98828 4.44141,2.44922 5.08203,4.3711 0.23438,0.67187 0.35157,2.26171 0.35157,4.76953 0,2.625 -0.54297,4.57811 -1.6211,5.85936 -1.10937,1.28516 -1.66406,3.04688 -1.66406,5.29297 v 1.13672 l -0.4375,3.63281 0.17188,2.01172 -0.17188,2.14063 v 0.21875 h -2.01562 l -6.83594,-0.26171 c -0.73047,-0.20313 -1.32813,-0.57032 -1.79297,-1.09375 l -0.13281,0.57031 c -1.46094,-0.84766 -2.32032,-1.98438 -2.58594,-3.41406 -0.0273,-2.24219 -0.30469,-3.87891 -0.83203,-4.89844 -0.4961,-0.96094 -0.84766,-2.57813 -1.05078,-4.85547 l -0.4375,-2.92969 0.4375,-0.17578 c -1.13672,-3.49609 -1.70703,-7.49219 -1.70703,-11.98437 0.58203,-7.55078 0.875,-13.17969 0.875,-16.882821 l -0.61329,-6.910156 -0.35156,-2.839844 0.48438,-0.08984 M 34.875,72.472656 c -4.730469,2.421875 -9.652344,4.972656 -14.761719,7.65625 -1.78125,0 -3.375,-1.007812 -4.773437,-3.019531 L 13.191406,74.355469 C 13.015625,73.742188 12.066406,71.964844 10.34375,69.019531 8.066406,65.109375 6.578125,62.398438 5.875,60.882812 3.015625,54.730469 1.582031,50.183594 1.582031,47.238281 c 0,-0.90625 2.015625,-3.703125 6.046875,-8.398437 3.914063,-4.609375 5.914063,-7.1875 6,-7.742188 l 1.882813,-2.363281 c 2.074219,-1.136719 3.578125,-2.183594 4.511719,-3.148437 l 3.199218,-3.671876 c 1.402344,-1.632812 2.292969,-2.449218 2.671875,-2.449218 1.371094,0 5.417969,4.007812 12.132813,12.027344 l 0.175781,0.21875 c -0.4375,0.40625 -1.242187,1.382812 -2.410156,2.929687 -0.902344,1.167969 -2.421875,2.070313 -4.554688,2.710937 l -6.65625,1.835938 c -2.628906,0.816406 -4.644531,1.738281 -6.046875,2.757812 l 2.453125,1.09375 -3.152343,1.355469 c -1.578126,0.640625 -2.367188,1.109375 -2.367188,1.398438 l 0.65625,0.699219 c 0.46875,0.351562 0.890625,0.539062 1.273438,0.570312 -0.175782,0.117188 -0.265626,0.246094 -0.265626,0.394531 l 0.21875,0.523438 0.4375,0.08594 1.097657,-0.08594 C 17.046875,53.578125 16.125,56.597656 16.125,57.035156 c -1.019531,0.496094 0.511719,0.742188 4.601562,0.742188 l 5.648438,-0.4375 2.058594,-0.960938 0.21875,3.9375 c 0.117187,1.574219 0.558594,2.886719 1.316406,3.933594 l 2.714844,4.636719 c 1.082031,1.894531 1.882812,2.988281 2.410156,3.28125 L 34.875,72.472656"
     id="path18" />
</svg>
