<?xml version="1.0" encoding="UTF-8"?>
<svg xmlns="http://www.w3.org/2000/svg" xmlns:xlink="http://www.w3.org/1999/xlink" width="203px" height="249px" viewBox="0 0 203 249" version="1.1">
<g id="surface1">
<path style=" stroke:none;fill-rule:evenodd;fill:rgb(0%,0%,0%);fill-opacity:0.701961;" d="M 173.820312 154.351562 L 173.734375 154.308594 L 173.6875 154.046875 L 173.734375 153.871094 L 173.425781 152.558594 C 173.074219 151.101562 172.507812 147.730469 171.71875 142.453125 C 171.074219 138.371094 170.273438 135.078125 169.308594 132.570312 L 169.394531 132.480469 C 169.015625 131.839844 168.5625 130.71875 168.039062 129.113281 C 167.160156 126.546875 166.59375 124.332031 166.328125 122.464844 C 165.628906 118.003906 165.191406 114.914062 165.015625 113.195312 L 164.929688 113.148438 L 164.753906 112.757812 L 164.972656 112.667969 L 164.929688 111.835938 C 164.929688 110.058594 165.394531 107.800781 166.328125 105.058594 C 167.265625 102.316406 167.730469 99.808594 167.730469 97.535156 L 167.554688 83.277344 C 167.554688 82.109375 167.601562 81.265625 167.6875 80.738281 C 167.453125 79.660156 167.335938 78.234375 167.335938 76.453125 L 167.207031 71.554688 L 165.804688 61.84375 L 163 42.558594 L 163.042969 41.855469 C 162.722656 41.476562 162.535156 40.9375 162.476562 40.238281 C 162.621094 38.460938 162.621094 37.324219 162.476562 36.828125 L 162.476562 36.566406 L 162.300781 36.433594 L 162.476562 36.257812 L 162.476562 36.039062 L 162.824219 35.953125 C 163.761719 35.3125 165.378906 35.164062 167.6875 35.515625 C 168.828125 35.019531 169.996094 34.667969 171.191406 34.464844 L 180.214844 32.234375 C 182.40625 30.953125 185.75 29.203125 190.246094 26.984375 L 190.773438 27.074219 L 190.859375 27.378906 C 190.859375 27.699219 190.640625 28.066406 190.203125 28.472656 L 190.859375 33.808594 L 190.859375 34.246094 C 190.859375 34.65625 190.523438 35.09375 189.851562 35.558594 C 190.171875 36.667969 190.335938 38.855469 190.335938 42.121094 L 190.335938 48.636719 L 190.421875 48.550781 L 190.421875 48.636719 L 190.773438 49.46875 L 190.335938 49.859375 L 190.378906 54.148438 L 190.421875 54.105469 C 190.714844 54.105469 190.859375 54.234375 190.859375 54.496094 C 190.859375 54.789062 190.699219 55.152344 190.378906 55.589844 L 190.421875 58.785156 L 190.507812 59.175781 L 190.464844 59.570312 L 190.464844 59.660156 L 190.507812 61.890625 L 190.683594 62.414062 L 190.507812 62.894531 L 190.597656 67.707031 L 190.859375 68.230469 L 190.597656 68.625 L 190.597656 76.628906 L 190.640625 78.117188 L 191.035156 78.683594 L 190.640625 79.121094 C 190.757812 83.4375 191.003906 87.199219 191.386719 90.40625 L 191.386719 91.324219 L 191.210938 91.414062 L 193.96875 100.117188 L 194.890625 100.945312 L 194.453125 101.339844 L 194.320312 101.296875 L 195.285156 104.796875 C 195.808594 106.75 196.160156 109.503906 196.335938 113.0625 L 196.730469 113.148438 L 196.816406 113.457031 L 196.378906 114.113281 L 196.464844 119.359375 L 196.117188 123.164062 L 196.292969 123.429688 L 195.984375 123.910156 L 195.414062 127.582031 L 195.109375 129.464844 L 194.714844 132.699219 C 194.949219 132.816406 195.066406 133.007812 195.066406 133.269531 L 194.625 134.320312 L 194.625 134.929688 L 194.890625 134.976562 L 194.671875 135.324219 L 195.066406 135.894531 L 194.933594 138.910156 L 195.066406 139.4375 L 194.890625 139.523438 L 193.839844 148.796875 L 193.488281 151.246094 L 193.488281 153.433594 L 193.839844 153.652344 L 193.488281 154.132812 L 193.488281 154.527344 L 192.960938 154.527344 L 192.085938 154.699219 L 187.53125 154.527344 L 186.917969 154.351562 L 186.875 154.308594 L 186.828125 154.308594 L 184.027344 154.480469 L 181.96875 154.527344 L 179.558594 154.527344 L 174.785156 154.394531 L 173.820312 154.351562 M 183.542969 38.007812 L 181.398438 38.621094 L 179.996094 40.808594 L 180.433594 41.113281 L 183.984375 43.867188 L 186.875 40.238281 L 183.589844 38.007812 L 183.542969 38.007812 M 177.894531 39.496094 L 179.121094 40.238281 L 180.085938 38.925781 L 177.894531 39.496094 M 189.5 35.777344 C 188.507812 36.332031 187.003906 36.929688 184.988281 37.570312 C 185.660156 37.890625 186.507812 38.503906 187.53125 39.40625 L 188.667969 38.183594 C 188.960938 38.183594 189.109375 38.386719 189.109375 38.796875 L 188.449219 40.238281 L 189.328125 41.113281 L 189.28125 38.097656 C 189.28125 37.046875 189.355469 36.273438 189.5 35.777344 M 187.925781 41.070312 L 184.945312 44.832031 L 189.328125 49.6875 L 189.457031 49.554688 L 189.328125 42.207031 L 187.925781 41.070312 M 179.296875 41.769531 L 176.359375 45.574219 L 180.390625 48.460938 L 183.238281 44.832031 L 179.296875 41.769531 M 182.1875 49.730469 L 185.777344 53.011719 L 188.757812 50.210938 C 187.472656 48.695312 185.96875 47.179688 184.246094 45.664062 L 181.308594 49.117188 L 182.1875 49.730469 M 179.953125 49.03125 L 175.878906 46.1875 L 174.039062 48.460938 L 173.644531 49.03125 C 174.375 49.699219 175.222656 50.648438 176.183594 51.875 L 176.972656 52.878906 L 178.859375 50.429688 L 179.953125 49.03125 M 180.785156 49.6875 L 179.515625 51.128906 L 177.632812 53.710938 L 178.988281 55.109375 L 181.046875 56.945312 L 185.210938 53.492188 L 181.53125 50.296875 L 180.785156 49.6875 M 185.691406 53.972656 L 181.53125 57.382812 L 183.71875 59.441406 L 187.398438 56.507812 L 186.609375 55.023438 L 185.691406 53.972656 M 180.476562 61.40625 L 180.828125 61.757812 L 182.84375 60.140625 L 180.523438 58.214844 L 178.769531 59.613281 L 180.476562 61.40625 M 180.039062 57.734375 L 177.894531 55.414062 L 177.0625 54.410156 L 175.441406 56.335938 L 178.246094 59.089844 L 180.039062 57.734375 M 189.371094 50.953125 L 189.28125 50.867188 L 186.261719 53.492188 L 186.960938 54.234375 L 188.363281 55.722656 L 189.5 54.804688 L 189.457031 50.953125 L 189.371094 50.953125 M 188.1875 57.820312 L 184.769531 60.488281 L 187.792969 63.8125 L 189.632812 62.328125 L 189.589844 59.484375 L 188.1875 57.820312 M 189.238281 56.816406 L 189.546875 57.210938 L 189.546875 56.554688 L 189.238281 56.816406 M 169.308594 41.59375 L 165.148438 42.511719 L 168.78125 45.3125 L 170.710938 42.644531 L 169.351562 41.636719 L 169.308594 41.59375 M 171.234375 41.902344 L 171.980469 40.9375 L 170.402344 41.332031 L 171.234375 41.902344 M 169.265625 46.800781 L 169.046875 46.625 L 167.03125 49.511719 C 167.90625 49.976562 169.058594 50.792969 170.492188 51.960938 L 172.285156 49.46875 L 169.265625 46.800781 M 173.03125 48.503906 L 175.089844 45.707031 L 171.71875 43.386719 L 169.613281 45.925781 L 173.03125 48.503906 M 175.617188 45.007812 L 178.417969 41.15625 L 176.449219 39.84375 L 173.734375 40.5 L 172.285156 42.644531 L 175.617188 45.007812 M 164.050781 42.46875 L 163.875 42.425781 L 165.058594 49.160156 L 165.542969 49.03125 L 166.109375 49.117188 L 168.300781 46.011719 L 164.050781 42.511719 L 164.050781 42.46875 M 165.234375 50.429688 L 165.542969 49.992188 L 165.148438 49.773438 L 165.234375 50.429688 M 165.980469 55.898438 L 167.03125 56.640625 L 169.832031 52.792969 L 166.328125 50.472656 L 165.410156 51.699219 L 165.980469 55.898438 M 168.738281 57.996094 L 170.753906 59.703125 C 172.621094 58.359375 173.804688 57.339844 174.300781 56.640625 L 173.121094 55.546875 L 170.445312 53.273438 L 167.601562 57.078125 L 168.738281 57.996094 M 166.199219 57.734375 L 166.503906 57.296875 L 166.109375 56.945312 L 166.199219 57.734375 M 166.503906 58.476562 L 166.285156 58.433594 L 166.328125 58.871094 L 166.988281 63.027344 C 167.394531 63.054688 168.316406 63.683594 169.746094 64.90625 L 172.855469 62.851562 L 170.710938 60.882812 L 167.820312 63.027344 C 167.527344 62.9375 167.382812 62.777344 167.382812 62.546875 C 167.382812 62.253906 168.257812 61.480469 170.007812 60.226562 L 167.074219 57.777344 L 166.503906 58.476562 M 176.449219 53.667969 L 172.855469 50.035156 L 171.058594 52.441406 L 172.8125 53.929688 L 174.914062 55.808594 L 176.449219 53.667969 M 177.457031 59.703125 L 174.785156 57.078125 L 171.410156 60.316406 L 172.898438 61.84375 L 173.46875 62.457031 L 175.570312 61.015625 L 177.457031 59.703125 M 176.183594 65.476562 C 177.585938 64.339844 178.902344 63.289062 180.128906 62.328125 L 179.644531 61.890625 L 178.023438 60.226562 L 174.171875 63.246094 L 176.183594 65.476562 M 173.644531 63.59375 L 170.667969 65.738281 L 172.550781 67.488281 L 173.074219 67.96875 C 173.980469 67.210938 174.871094 66.496094 175.746094 65.824219 L 173.644531 63.59375 M 172.242188 68.625 L 171.234375 67.75 L 169.703125 66.351562 C 168.710938 66.933594 168.023438 67.226562 167.644531 67.226562 L 167.601562 67.226562 L 167.773438 68.363281 L 167.90625 69.457031 C 168.34375 69.628906 168.914062 70.066406 169.613281 70.769531 L 172.242188 68.625 M 170.140625 71.335938 L 171.980469 73.523438 L 172.8125 74.574219 L 176.273438 72.5625 L 172.898438 69.238281 L 170.140625 71.335938 M 177.0625 72.082031 L 179.425781 70.503906 L 177.585938 68.230469 L 176.359375 66.570312 L 173.6875 68.582031 L 177.0625 72.082031 M 167.117188 64.03125 L 167.46875 66.4375 L 168.78125 65.5625 L 167.117188 64.03125 M 168.652344 71.511719 L 168.082031 70.941406 L 168.125 71.90625 L 168.652344 71.511719 M 168.214844 80.523438 L 168.5625 83.363281 C 168.941406 83.042969 169.804688 82.589844 171.148438 82.007812 L 168.257812 78.464844 L 168.214844 80.523438 M 168.257812 76.980469 L 171.980469 75.011719 L 169.175781 72.082031 L 168.167969 72.824219 L 168.257812 76.453125 L 168.257812 76.980469 M 168.519531 77.546875 L 171.980469 81.660156 L 172.59375 81.394531 C 173.703125 80.929688 174.726562 80.507812 175.660156 80.128906 L 172.679688 75.839844 C 170.667969 76.980469 169.308594 77.546875 168.605469 77.546875 L 168.519531 77.546875 M 173.25 83.234375 L 175.835938 86.03125 L 176.054688 85.902344 L 179.472656 84.328125 L 177.0625 81.878906 L 176.011719 80.566406 L 172.375 82.183594 L 173.25 83.234375 M 171.585938 82.535156 C 170.007812 83.292969 169.046875 83.84375 168.695312 84.195312 L 168.5625 84.152344 L 168.652344 88.132812 L 169.441406 88.832031 L 174.957031 86.382812 L 172.066406 83.101562 L 171.585938 82.535156 M 176.753906 79.648438 L 180.171875 77.984375 L 180.523438 77.808594 L 178.550781 75.230469 L 176.886719 73.21875 L 173.425781 75.359375 L 176.753906 79.648438 M 170.273438 89.574219 L 174.652344 93.511719 L 179.339844 90.582031 L 178.15625 89.617188 L 175.746094 87.214844 C 173.351562 88.351562 171.527344 89.136719 170.273438 89.574219 M 168.605469 93.03125 L 168.5625 95.21875 L 169.441406 95.742188 L 172.8125 94.386719 L 173.207031 94.210938 C 171.132812 92.433594 169.671875 91.019531 168.828125 89.96875 L 168.652344 89.96875 L 168.605469 93.03125 M 167.644531 103.351562 L 167.996094 103.265625 L 168.386719 103.394531 C 169.5 102.871094 171.335938 102.054688 173.90625 100.945312 L 173.25 100.378906 L 169.132812 96.617188 L 169.046875 96.617188 C 168.839844 96.617188 168.664062 96.558594 168.519531 96.441406 C 168.375 98.921875 168.082031 101.222656 167.644531 103.351562 M 167.382812 104.445312 L 167.207031 105.144531 C 166.269531 108.675781 165.804688 110.917969 165.804688 111.882812 L 165.847656 112.320312 L 168.125 111.402344 C 170.550781 110.351562 172.214844 109.402344 173.121094 108.558594 L 173.6875 108.121094 L 172.507812 107.289062 L 168.34375 104.402344 L 167.644531 104.488281 L 167.382812 104.445312 M 175.222656 100.378906 L 178.8125 98.804688 L 173.953125 94.867188 C 172.460938 95.597656 171.25 96.105469 170.316406 96.398438 L 175.222656 100.378906 M 169.527344 104.007812 L 174.871094 107.507812 C 175.601562 107.1875 176.519531 106.882812 177.632812 106.589844 C 178.390625 106.386719 179.105469 105.949219 179.777344 105.277344 L 174.828125 101.734375 C 172.550781 102.8125 170.78125 103.570312 169.527344 104.007812 M 189.632812 64.820312 L 189.632812 63.902344 L 188.625 64.820312 L 189.675781 66.21875 L 189.632812 64.820312 M 187.707031 65.5625 L 185.691406 67.136719 C 187.269531 68.945312 188.421875 70.433594 189.152344 71.597656 L 189.675781 71.25 L 189.675781 68.230469 C 189.179688 67.792969 188.582031 67.007812 187.882812 65.871094 L 187.707031 65.5625 M 180.347656 69.804688 L 184.070312 66.832031 L 180.917969 63.203125 L 179.777344 63.945312 L 176.84375 66.175781 L 178.417969 67.882812 L 180.347656 69.804688 M 184.859375 66.21875 L 187.003906 64.46875 L 185.339844 61.976562 L 184.027344 61.015625 L 181.660156 62.675781 L 184.859375 66.21875 M 181.003906 70.417969 L 184.550781 73.785156 L 185.691406 74.878906 L 186.214844 74.574219 L 188.054688 72.691406 L 188.273438 72.472656 L 184.769531 67.792969 L 181.003906 70.417969 M 184.289062 75.449219 L 179.996094 71.117188 L 177.632812 72.691406 L 179.425781 74.878906 L 181.355469 77.328125 L 184.464844 75.578125 L 184.289062 75.449219 M 181.089844 78.464844 L 177.105469 80.085938 L 178.199219 81.484375 L 180.390625 83.890625 L 184.15625 81.921875 L 181.089844 78.464844 M 185.035156 81.484375 L 188.625 79.382812 C 187.835938 78.742188 186.625 77.648438 184.988281 76.105469 L 181.878906 77.984375 L 185.035156 81.484375 M 188.933594 73.390625 L 186.171875 75.316406 C 187.488281 76.65625 188.566406 77.851562 189.414062 78.902344 L 189.675781 78.726562 L 189.632812 78.203125 L 189.675781 74.484375 L 188.933594 73.390625 M 189.546875 79.996094 L 189.414062 79.953125 L 185.648438 82.097656 L 188.667969 84.9375 L 189.765625 84.328125 L 189.722656 79.953125 L 189.546875 79.996094 M 188.363281 86.164062 L 186.042969 87.34375 L 184.816406 88 L 190.507812 92.503906 L 190.335938 90.929688 C 190.335938 90.699219 190.421875 90.492188 190.597656 90.320312 L 189.984375 87.167969 C 189.632812 87.113281 189.09375 86.777344 188.363281 86.164062 M 189.371094 85.550781 L 189.851562 85.988281 L 189.808594 85.289062 L 189.371094 85.550781 M 190.726562 93.644531 L 187.660156 95.261719 L 191.648438 98.234375 L 192.175781 97.972656 L 191.167969 94.953125 L 190.773438 93.644531 L 190.726562 93.644531 M 180.171875 89.882812 L 180.304688 89.75 L 183.371094 88 L 180.171875 84.984375 L 176.625 86.820312 L 179.339844 89.226562 L 180.171875 89.882812 M 183.9375 88.480469 C 182.390625 89.269531 181.367188 89.910156 180.871094 90.40625 L 186.917969 94.738281 C 188.144531 94.09375 189.09375 93.613281 189.765625 93.292969 C 188.714844 92.621094 186.902344 91.136719 184.332031 88.832031 L 183.9375 88.480469 M 184.246094 87.476562 L 187.617188 85.550781 L 184.726562 82.578125 L 181.046875 84.546875 L 184.246094 87.476562 M 185.035156 101.867188 L 190.597656 98.804688 L 187.660156 96.75 L 186.480469 95.875 L 180.652344 98.890625 L 185.035156 101.867188 M 180.257812 98.148438 L 185.734375 95.347656 L 180.039062 91.148438 L 175.308594 94.125 L 179.953125 98.277344 L 180.257812 98.148438 M 179.601562 99.417969 C 178.347656 100.027344 177.191406 100.597656 176.140625 101.121094 L 180.304688 104.664062 L 180.390625 104.535156 L 183.808594 102.566406 C 182.492188 101.632812 181.089844 100.582031 179.601562 99.417969 M 191.691406 99.546875 C 190.496094 100.304688 188.65625 101.3125 186.171875 102.566406 C 188.304688 103.878906 190.859375 105.363281 193.839844 107.027344 L 194.363281 106.765625 L 194.539062 106.808594 C 194.128906 104.59375 193.621094 102.476562 193.007812 100.464844 L 191.691406 99.546875 M 194.625 108.339844 L 194.058594 108.296875 C 193.296875 108.878906 192 109.5625 190.160156 110.351562 L 188.582031 110.964844 C 190.304688 112.160156 192.277344 113.179688 194.496094 114.023438 L 195.371094 113.542969 L 194.800781 108.339844 L 194.625 108.339844 M 194.847656 115.160156 L 190.992188 117.085938 C 192.21875 117.554688 193.429688 117.902344 194.625 118.136719 L 195.503906 117.609375 L 195.589844 117.699219 L 195.503906 115.160156 L 194.847656 115.160156 M 192.347656 107.769531 C 190.480469 107.011719 187.96875 105.511719 184.816406 103.265625 L 181.089844 105.058594 L 180.960938 105.191406 L 187.488281 110.175781 L 192.347656 107.769531 M 187.660156 111.3125 L 183.195312 113.148438 L 186.960938 115.335938 L 189.414062 116.472656 L 193.179688 114.679688 C 191.722656 114.097656 189.882812 112.976562 187.660156 111.3125 M 186.65625 110.570312 L 180.304688 105.628906 L 175.878906 108.207031 L 180.960938 111.792969 L 182.316406 112.625 C 183.371094 112.128906 184.816406 111.445312 186.65625 110.570312 M 179.644531 114.855469 C 181.953125 115.585938 184.40625 116.488281 187.003906 117.566406 L 188.144531 117.042969 L 186.214844 116.035156 L 182.230469 113.632812 L 179.644531 114.855469 M 181.265625 113.105469 L 181.355469 113.0625 L 179.910156 112.1875 L 174.738281 108.820312 C 174.066406 109.167969 173.351562 109.550781 172.59375 109.957031 L 167.6875 112.40625 C 170.753906 112.582031 174.230469 113.238281 178.113281 114.375 L 181.265625 113.105469 M 185.515625 118.222656 L 182.710938 117.261719 L 178.023438 115.644531 C 172.273438 118.355469 168.839844 119.710938 167.730469 119.710938 L 166.8125 119.625 L 166.855469 119.929688 L 167.292969 119.886719 L 179.691406 120.671875 L 185.515625 118.222656 M 181.878906 120.980469 L 184.332031 121.371094 L 187.269531 121.808594 L 190.640625 120.191406 L 187.136719 118.835938 L 184.421875 119.929688 L 181.878906 120.980469 M 179.601562 121.898438 L 173.03125 124.566406 L 177.5 125.835938 L 177.675781 125.878906 C 179.660156 125.03125 181.820312 124.15625 184.15625 123.253906 L 185.472656 122.640625 L 179.910156 121.898438 L 179.601562 121.898438 M 195.328125 119.359375 L 194.890625 119.359375 L 193.269531 120.324219 L 195.546875 121.417969 L 195.589844 119.359375 L 195.328125 119.359375 M 193.007812 119.011719 L 189.589844 117.742188 L 188.539062 118.222656 L 191.734375 119.625 L 193.007812 119.011719 M 190.992188 122.160156 C 193.238281 122.453125 194.683594 122.816406 195.328125 123.253906 L 195.503906 121.636719 L 195.066406 121.984375 L 192.304688 120.847656 L 189.894531 122.074219 L 190.992188 122.160156 M 195.109375 124.609375 C 193.824219 125.511719 191.515625 126.855469 188.1875 128.632812 L 191.734375 129.375 L 194.582031 127.453125 L 194.890625 125.617188 L 195.109375 124.609375 M 187.96875 122.992188 L 179.910156 126.535156 L 186.742188 128.285156 L 194.625 123.867188 L 187.96875 122.992188 M 194.320312 129.859375 L 194.453125 128.503906 L 192.960938 129.640625 L 194.320312 129.859375 M 194.011719 130.734375 L 191.867188 130.425781 L 187.792969 133.226562 L 192.4375 134.363281 L 194.1875 133.050781 L 194.277344 130.734375 L 194.011719 130.734375 M 187.003906 129.246094 L 185.953125 129.769531 L 181.96875 131.78125 L 186.480469 132.875 L 190.554688 130.164062 L 187.003906 129.246094 M 194.625 135.324219 L 194.625 135.414062 L 194.625 135.324219 M 193.75 135.457031 L 193.445312 135.457031 L 191.515625 136.769531 L 188.496094 138.519531 L 192.960938 139.785156 L 193.839844 139.175781 L 194.277344 136.855469 L 194.234375 135.457031 L 193.75 135.457031 M 178.683594 127.058594 L 172.679688 129.507812 L 180.085938 131.300781 L 185.601562 128.851562 L 179.03125 127.101562 L 178.683594 127.058594 M 185.253906 133.707031 L 180.523438 132.4375 C 178.683594 133.253906 177.074219 133.910156 175.703125 134.40625 L 180.171875 136.023438 L 184.640625 134.101562 L 185.253906 133.707031 M 185.253906 134.84375 C 184.492188 135.339844 183.339844 135.953125 181.792969 136.679688 L 182.40625 136.898438 L 187.136719 138.167969 L 191.386719 135.148438 L 186.523438 134.058594 L 185.253906 134.84375 M 186.042969 138.957031 L 180.523438 137.292969 L 178.023438 138.386719 L 177.0625 138.824219 L 181.835938 140.96875 L 185.558594 139.261719 L 186.042969 138.957031 M 183.195312 141.578125 L 186.390625 143.023438 L 189.765625 141.449219 L 191.78125 140.441406 L 187.222656 139.304688 L 186.4375 139.742188 L 183.195312 141.578125 M 180.304688 141.578125 L 175.703125 139.347656 C 173.804688 140.136719 172.726562 140.53125 172.460938 140.53125 L 172.199219 140.53125 L 172.507812 142.804688 C 172.796875 142.804688 173.484375 143.097656 174.566406 143.679688 L 178.417969 142.28125 L 180.304688 141.578125 M 184.769531 143.855469 L 181.75 142.324219 C 179.617188 143.371094 177.734375 144.101562 176.097656 144.511719 L 179.03125 146.304688 L 184.375 144.027344 L 184.769531 143.855469 M 180.304688 147.089844 L 182.097656 148.226562 L 188.230469 148.316406 L 191.386719 146.566406 L 187.488281 145.035156 L 186.214844 144.511719 L 180.304688 147.089844 M 193.398438 140.703125 C 192.378906 141.464844 190.554688 142.46875 187.925781 143.722656 L 192.65625 145.867188 L 192.960938 145.691406 L 193.574219 140.703125 L 193.398438 140.703125 M 192.613281 146.960938 L 190.113281 148.359375 L 192.742188 148.402344 L 192.832031 147.003906 L 192.613281 146.960938 M 165.890625 113.148438 L 166.722656 119.097656 C 167.542969 118.691406 170.8125 117.335938 176.535156 115.03125 C 174.988281 114.390625 171.5 113.746094 166.066406 113.105469 L 165.890625 113.148438 M 167.207031 122.246094 L 167.425781 123.253906 L 167.730469 123.035156 L 171.324219 124.085938 C 172.726562 123.441406 174.609375 122.65625 176.972656 121.722656 C 171.570312 121.371094 168.226562 120.964844 166.941406 120.496094 L 167.207031 122.246094 M 168.476562 125.964844 L 168.433594 125.703125 L 170.097656 124.652344 L 167.554688 123.691406 L 168.957031 127.800781 L 169.484375 129.15625 L 170.621094 128.984375 L 170.839844 129.027344 L 172.285156 128.414062 C 173.191406 127.890625 174.519531 127.25 176.273438 126.488281 L 171.585938 125.132812 L 168.957031 126.183594 L 168.476562 125.964844 M 170.007812 130.644531 L 170.535156 132.613281 L 170.535156 132.746094 L 170.710938 133.050781 L 171.234375 133.007812 L 173.777344 133.707031 L 178.59375 131.914062 L 171.628906 129.902344 L 171.324219 130.03125 L 171.191406 129.988281 L 170.007812 130.644531 M 169.527344 129.332031 L 169.660156 129.683594 C 169.746094 129.59375 169.863281 129.523438 170.007812 129.464844 L 169.527344 129.332031 M 172.113281 134.320312 L 171.058594 133.96875 L 171.28125 134.667969 C 171.453125 134.582031 171.730469 134.464844 172.113281 134.320312 M 171.9375 136.507812 L 175.527344 138.125 L 178.726562 136.679688 L 173.863281 134.976562 L 171.671875 135.28125 L 171.410156 135.28125 L 171.628906 136.550781 L 171.9375 136.507812 M 171.980469 138.867188 L 172.113281 139.785156 L 174.433594 138.605469 L 173.339844 137.992188 L 171.847656 137.730469 L 171.980469 138.867188 M 172.636719 143.898438 L 172.679688 144.421875 L 173.121094 144.246094 L 172.636719 143.898438 M 172.726562 144.730469 L 173.292969 148.359375 C 173.410156 148.273438 173.511719 148.226562 173.601562 148.226562 C 173.6875 148.226562 173.9375 148.359375 174.347656 148.621094 L 174.390625 148.621094 C 174.914062 148.242188 175.980469 147.6875 177.585938 146.960938 L 175.703125 145.867188 L 174.082031 144.859375 L 173.25 144.902344 L 172.8125 144.816406 L 172.726562 144.730469 M 179.910156 148.273438 L 178.859375 147.703125 L 177.28125 148.359375 L 179.910156 148.273438 "/>
<path style=" stroke:none;fill-rule:evenodd;fill:rgb(0%,0%,0%);fill-opacity:0.678431;" d="M 186.917969 154.351562 L 186.523438 154.527344 L 183.851562 154.527344 L 184.027344 154.480469 L 186.828125 154.308594 L 186.875 154.308594 L 186.917969 154.351562 M 181.96875 154.527344 L 181.179688 154.527344 L 181.96875 154.527344 M 174.785156 154.394531 L 174.785156 154.527344 L 173.863281 154.527344 L 173.820312 154.351562 L 174.785156 154.394531 "/>
</g>
</svg>
