<?xml version="1.0" encoding="UTF-8"?>
<svg xmlns="http://www.w3.org/2000/svg" xmlns:xlink="http://www.w3.org/1999/xlink" width="203px" height="249px" viewBox="0 0 203 249" version="1.1">
<g id="surface1">
<path style=" stroke:none;fill-rule:evenodd;fill:rgb(0%,0%,0%);fill-opacity:0.678431;" d="M 33.253906 15.132812 L 32.378906 15.964844 L 28.828125 19.113281 L 28.875 19.113281 L 32.421875 19.417969 L 34.960938 15.613281 C 34.230469 15.671875 33.664062 15.511719 33.253906 15.132812 M 32.726562 14.347656 L 32.640625 14.128906 L 32.902344 13.910156 L 33.121094 13.910156 L 37.414062 9.667969 C 39.574219 7.976562 42.335938 6.632812 45.695312 5.640625 L 46.089844 5.6875 C 46.292969 5.25 46.90625 4.578125 47.929688 3.675781 C 49.210938 2.535156 50.105469 1.910156 50.601562 1.792969 L 51.039062 1.617188 C 51.5625 1.617188 53.667969 3.847656 57.347656 8.308594 C 59.390625 10.90625 60.746094 12.828125 61.417969 14.082031 L 61.464844 14.039062 C 61.753906 14.15625 61.902344 14.359375 61.902344 14.652344 L 61.902344 15.394531 L 61.859375 15.789062 L 61.859375 15.875 C 61.652344 19.695312 61.550781 22.671875 61.550781 24.800781 L 61.550781 25.019531 L 61.464844 25.0625 L 61.332031 25.191406 L 61.375 25.585938 L 61.550781 25.761719 L 61.464844 25.894531 L 62.382812 29 L 62.515625 29 L 62.601562 29.304688 C 62.601562 29.65625 60.5 31.710938 56.292969 35.472656 C 53.492188 37.484375 50.703125 39.277344 47.929688 40.851562 L 46.527344 41.8125 L 46.65625 41.855469 L 45.957031 42.382812 L 45.824219 42.382812 C 44.890625 43.167969 43.898438 44.160156 42.847656 45.355469 L 43.066406 45.445312 L 43.152344 45.75 C 43.152344 46.070312 42.832031 46.230469 42.191406 46.230469 L 42.101562 46.230469 L 41.488281 46.929688 L 40 48.636719 L 39.648438 48.988281 C 38.304688 50.269531 36.960938 51.261719 35.617188 51.960938 C 37.691406 55.082031 39.210938 57.601562 40.175781 59.527344 L 45.386719 70.679688 L 45.605469 70.375 L 46.042969 70.460938 L 46.132812 70.769531 L 45.78125 71.554688 L 47.183594 74.75 L 47.578125 75.621094 L 47.707031 75.621094 L 47.621094 75.753906 L 52.835938 87.167969 L 53.140625 87.257812 L 53.007812 87.519531 L 53.710938 88.917969 L 54.191406 89.269531 L 54.015625 89.488281 L 54.234375 89.882812 L 54.628906 90.582031 C 55.507812 90.816406 55.945312 91.003906 55.945312 91.148438 L 55.898438 91.542969 C 55.929688 91.660156 55.796875 91.71875 55.507812 91.71875 L 55.285156 91.71875 L 56.511719 93.644531 L 56.820312 93.90625 L 56.996094 93.992188 L 56.863281 94.210938 L 59.929688 98.453125 L 60.324219 98.628906 L 60.238281 98.847656 C 61.988281 100.976562 63.886719 102.972656 65.929688 104.839844 L 65.492188 105.320312 C 65.667969 105.730469 65.757812 106.445312 65.757812 107.464844 C 65.757812 109.359375 65.523438 111.210938 65.054688 113.019531 C 64.761719 114.183594 64.558594 115.613281 64.441406 117.304688 L 65.230469 117.609375 C 64.96875 117.960938 64.734375 118.136719 64.53125 118.136719 L 64.398438 118.136719 L 64.355469 120.324219 L 64.355469 125.179688 C 64.558594 126.898438 64.980469 128.078125 65.625 128.722656 C 66.179688 129.332031 66.457031 129.769531 66.457031 130.03125 L 66.457031 130.078125 L 66.28125 132.351562 L 66.457031 132.613281 L 66.195312 132.964844 L 64.355469 144.597656 L 64.003906 148.097656 L 64.089844 147.878906 L 64.53125 148.492188 L 63.828125 158.070312 L 64.003906 158.375 L 63.742188 158.679688 L 63.742188 158.769531 L 64.265625 158.8125 L 64.355469 159.117188 C 64.355469 159.382812 64.121094 159.613281 63.652344 159.820312 L 63.828125 161.4375 L 63.828125 163.1875 L 63.566406 164.890625 C 62.71875 168.128906 60.238281 169.746094 56.121094 169.746094 L 53.273438 169.484375 C 51.257812 169.25 49.546875 168.550781 48.148438 167.386719 L 45.78125 164.761719 L 45.78125 164.671875 L 44.25 162.53125 L 41.53125 158.636719 C 40.859375 158.023438 40.042969 156.960938 39.078125 155.445312 C 37.941406 153.695312 37.371094 152.441406 37.371094 151.683594 C 37.371094 151.246094 37.734375 150.75 38.464844 150.195312 C 39.285156 149.582031 40.175781 149.277344 41.136719 149.277344 C 42.335938 149.277344 43.648438 150.09375 45.082031 151.726562 L 47.882812 155.226562 L 47.882812 155.269531 L 48.191406 155.574219 L 47.664062 153.5625 C 47.285156 152.078125 46.703125 150.777344 45.914062 149.671875 C 43.488281 146.257812 42.277344 143.867188 42.277344 142.5 C 42.277344 141.332031 42.964844 140.734375 44.335938 140.703125 C 44.421875 140.589844 44.585938 140.53125 44.816406 140.53125 L 45.519531 140.921875 C 47.09375 141.417969 48.863281 142.992188 50.820312 145.648438 L 51.125 145.691406 L 51.214844 145.996094 L 51.214844 146.171875 L 51.609375 146.742188 C 52.921875 148.664062 54.003906 150.472656 54.847656 152.164062 L 54.71875 150.808594 L 54.410156 150.632812 L 54.367188 150.371094 L 54.671875 150.019531 L 54.542969 148.796875 C 54.074219 145.820312 53.839844 143.589844 53.839844 142.105469 L 54.367188 139.566406 L 54.367188 139.523438 L 54.5 139.085938 L 54.585938 138.738281 L 55.507812 136.023438 L 55.417969 135.894531 L 55.636719 135.71875 L 55.988281 135.148438 C 56.921875 133.78125 57.855469 132.671875 58.792969 131.824219 C 59.230469 131.417969 59.433594 130.820312 59.40625 130.03125 C 59.40625 129.652344 59.449219 129.347656 59.535156 129.113281 C 56.5 124.039062 52.949219 119.082031 48.890625 114.242188 L 48.761719 114.199219 L 48.585938 113.894531 L 46.132812 111.050781 L 45.035156 109.695312 L 44.554688 109.652344 L 44.378906 109.257812 L 44.46875 108.996094 L 38.335938 101.648438 L 36.890625 99.984375 C 36.566406 99.867188 36.378906 99.707031 36.320312 99.503906 L 36.40625 99.460938 C 32.992188 95.554688 31.164062 93.191406 30.933594 92.375 L 30.714844 92.199219 L 30.625 92.242188 C 30.332031 92.15625 30.1875 91.996094 30.1875 91.761719 L 30.273438 91.632812 L 29.488281 90.582031 C 28.726562 89.503906 28.171875 88.597656 27.820312 87.871094 L 27.734375 87.871094 L 27.382812 87.78125 L 27.207031 87.386719 L 27.472656 87.214844 C 27.09375 86.570312 26.375 85.800781 25.324219 84.894531 L 23.75 83.496094 L 23.398438 83.191406 L 22.523438 82.402344 L 21.691406 81.527344 L 20.726562 81.308594 C 20.8125 81.222656 21.003906 81.148438 21.296875 81.089844 C 16.796875 76.394531 14.183594 73.464844 13.453125 72.296875 L 12.886719 71.25 L 12.839844 71.207031 L 8.199219 62.328125 L 7.933594 62.328125 L 7.585938 62.238281 L 7.410156 61.84375 L 7.761719 61.40625 C 5.421875 56.597656 4.253906 53.449219 4.253906 51.960938 L 4.253906 51.875 C 3.964844 51.085938 3.730469 49.804688 3.554688 48.023438 C 3.554688 47.003906 3.714844 46.171875 4.035156 45.53125 L 5.308594 42.382812 L 5.4375 42.074219 L 5.308594 41.902344 C 5.277344 41.84375 5.351562 41.8125 5.527344 41.8125 C 6.167969 40.152344 7.496094 38.519531 9.511719 36.914062 C 11.089844 35.632812 12.886719 33.808594 14.898438 31.449219 C 16.710938 29.289062 18.300781 27.597656 19.675781 26.375 L 19.5 26.285156 C 19.675781 25.9375 19.878906 25.761719 20.113281 25.761719 L 20.332031 25.761719 L 24.449219 22.261719 L 24.054688 22.175781 L 24.753906 22 C 28.230469 18.910156 30.757812 16.503906 32.332031 14.785156 L 32.726562 14.347656 M 42.890625 9.183594 C 44.144531 9.652344 45.257812 9.988281 46.21875 10.191406 L 46.527344 10.191406 L 47.796875 8.617188 C 48.089844 8.617188 48.234375 8.761719 48.234375 9.054688 L 47.621094 10.191406 L 49.898438 10.234375 C 47.535156 8.195312 46.234375 6.835938 46 6.167969 C 44.191406 6.488281 42.335938 7.320312 40.4375 8.660156 L 42.890625 9.183594 M 37.898438 10.628906 L 34.480469 13.910156 L 35.96875 13.863281 L 36.230469 13.863281 L 38.683594 10.539062 L 39.125 10.976562 L 37.066406 13.910156 L 43.285156 14.609375 L 45.519531 11.546875 L 45.871094 11.109375 L 45.34375 11.066406 C 45.050781 11.066406 44.90625 10.875 44.90625 10.496094 L 41.578125 10.191406 L 39.296875 9.753906 L 39.167969 9.578125 L 37.898438 10.628906 M 36.011719 15.441406 L 33.734375 18.894531 L 33.339844 19.507812 L 35.355469 19.683594 L 38.421875 20.164062 L 38.816406 20.339844 L 42.539062 15.65625 L 40.394531 15.527344 L 39.035156 15.089844 L 36.011719 15.441406 M 50.46875 11.328125 L 46.964844 11.152344 L 44.335938 14.785156 L 47.09375 15.222656 L 49.109375 15.570312 C 49.988281 14.082031 50.71875 13.046875 51.300781 12.464844 L 51.828125 12.554688 L 51.082031 11.546875 L 50.46875 11.328125 M 51.914062 12.902344 C 51.914062 13.457031 51.503906 14.433594 50.6875 15.832031 L 54.671875 16.445312 L 54.058594 15.570312 L 51.914062 12.640625 L 51.914062 12.902344 M 48.671875 16.269531 L 45.5625 15.832031 L 43.589844 15.746094 L 39.910156 20.6875 L 44.117188 20.46875 L 46.4375 20.164062 L 48.628906 16.359375 L 48.671875 16.269531 M 50.25 16.578125 L 47.796875 20.164062 C 48.496094 20.222656 49.109375 20.382812 49.636719 20.644531 C 50.21875 20.9375 50.90625 21.082031 51.695312 21.082031 C 52.71875 19.625 53.652344 18.441406 54.5 17.539062 L 50.25 16.578125 M 59.183594 23.398438 L 58.574219 23.488281 L 58.222656 23.488281 C 58.074219 24.070312 56.835938 25.746094 54.5 28.515625 L 58.132812 29.347656 L 60.585938 26.023438 L 60.410156 24.753906 L 59.230469 23.3125 L 59.183594 23.398438 M 53.929688 22.699219 L 52.265625 22.351562 L 48.761719 27.160156 L 53.535156 28.253906 C 54.761719 26.941406 56.0625 25.308594 57.433594 23.355469 L 53.929688 22.699219 M 57.828125 21.300781 L 55.417969 17.582031 L 52.964844 21.34375 C 54.835938 21.957031 56.734375 22.335938 58.660156 22.480469 L 57.828125 21.300781 M 58.179688 30.441406 L 54.894531 35.121094 L 55.726562 34.554688 L 60.191406 30.441406 L 59.011719 30.484375 L 58.179688 30.441406 M 61.464844 29.304688 C 61.171875 28.894531 60.921875 28.109375 60.71875 26.941406 L 58.835938 29.523438 L 60.71875 29.960938 L 61.464844 29.304688 M 49.285156 21.476562 C 48.789062 21.066406 48.175781 20.804688 47.445312 20.6875 L 43.460938 25.9375 L 47.796875 26.941406 L 49.15625 24.800781 L 50.996094 22.042969 L 49.285156 21.476562 M 46.175781 20.601562 L 43.679688 20.949219 L 39.429688 21.34375 L 37.984375 23.398438 L 37.238281 24.492188 L 42.234375 25.628906 L 46.089844 20.6875 L 46.175781 20.601562 M 37.898438 20.863281 L 35.003906 20.46875 L 33.035156 19.988281 L 31.152344 23.050781 L 36.40625 24.273438 L 37.328125 22.699219 L 38.335938 21.082031 L 37.898438 20.863281 M 42.757812 26.855469 L 40.304688 29.871094 L 39.605469 30.878906 L 40.394531 31.097656 C 41.472656 31.417969 42.730469 31.871094 44.160156 32.453125 L 47.140625 27.949219 L 43.898438 27.117188 L 42.757812 26.855469 M 36.671875 25.28125 L 34.042969 29.21875 L 38.773438 30.617188 L 39.648438 29.21875 L 41.578125 26.550781 L 36.671875 25.28125 M 38.859375 31.929688 C 37.984375 33.269531 36.960938 34.933594 35.792969 36.914062 L 39.472656 38.578125 L 43.285156 33.589844 L 38.859375 31.929688 M 40.132812 38.882812 L 43.195312 40.238281 C 44.597656 38.460938 45.753906 37.0625 46.65625 36.039062 L 47.402344 35.210938 L 43.855469 33.808594 L 40.132812 38.882812 M 37.808594 31.535156 L 33.296875 30.355469 C 32.277344 31.929688 31.414062 33.359375 30.714844 34.640625 L 31.328125 34.902344 L 34.742188 36.433594 L 38.070312 31.621094 L 37.808594 31.535156 M 52.527344 29.261719 L 48.015625 28.167969 L 46.21875 30.617188 L 44.730469 32.671875 L 48.234375 34.203125 L 52.441406 29.347656 L 52.527344 29.261719 M 53.226562 29.960938 L 49.066406 34.597656 L 52.878906 36.476562 L 53.710938 35.910156 L 53.667969 35.777344 C 53.667969 35.515625 54.921875 33.691406 57.433594 30.308594 L 53.621094 29.523438 L 53.226562 29.960938 M 47.09375 36.828125 L 44.203125 40.71875 L 45.738281 41.417969 L 47.007812 40.457031 L 52 37.046875 L 48.234375 35.558594 L 47.09375 36.828125 M 41.621094 44.917969 C 42.378906 44.160156 43.417969 43.269531 44.730469 42.25 L 43.328125 41.8125 L 41.136719 44.699219 L 41.621094 44.917969 M 42.277344 41.417969 L 39.296875 40.019531 L 37.195312 42.863281 L 40.085938 44.261719 L 40.65625 43.476562 L 42.277344 41.417969 M 36.453125 43.867188 L 34.699219 46.273438 L 37.722656 47.457031 L 39.296875 45.269531 L 36.453125 43.867188 M 38.949219 47.980469 L 40.304688 46.363281 L 40.699219 45.835938 L 40.394531 45.707031 L 38.730469 47.894531 L 38.949219 47.980469 M 37.019531 48.460938 L 35.269531 47.675781 L 34.042969 47.148438 L 32.859375 48.769531 L 35.09375 51.21875 L 36.84375 49.859375 L 36.671875 49.816406 L 36.496094 49.425781 L 37.019531 48.460938 M 37.984375 48.8125 L 37.722656 49.160156 L 38.070312 48.8125 L 37.984375 48.8125 M 37.109375 59.613281 L 35.179688 62.371094 L 40.789062 63.550781 L 40.917969 63.464844 L 39.5625 60.226562 L 37.109375 59.613281 M 38.292969 57.648438 L 37.722656 58.652344 C 38.246094 58.855469 38.730469 59.074219 39.167969 59.308594 L 38.292969 57.648438 M 37.808594 56.859375 C 36.84375 55.253906 35.765625 53.753906 34.566406 52.355469 L 34.261719 51.960938 L 34.171875 51.875 L 33.824219 51.828125 L 34.042969 52.3125 L 31.019531 56.859375 L 36.800781 58.347656 L 37.808594 56.859375 M 38.640625 39.671875 L 35.269531 37.878906 L 34.960938 38.359375 L 33.472656 40.894531 L 36.496094 42.511719 L 38.640625 39.671875 M 27.996094 19.855469 L 25.761719 21.914062 L 26.246094 21.914062 L 30.273438 22.875 L 32.113281 19.902344 L 30.40625 19.988281 C 29.382812 20.222656 28.640625 20.222656 28.171875 19.988281 L 27.996094 19.855469 M 28.566406 27.6875 L 33.339844 29.042969 L 35.925781 25.105469 L 30.714844 23.792969 L 28.566406 27.6875 M 29.878906 23.574219 L 25.195312 22.4375 L 21.644531 25.9375 L 22.390625 26.113281 L 23.703125 24.535156 L 24.140625 24.625 L 24.230469 24.929688 L 23.136719 26.285156 L 27.734375 27.421875 L 29.878906 23.574219 M 20.855469 26.769531 L 17.570312 30.136719 L 17.835938 30.136719 L 19.585938 30.441406 L 21.691406 27.03125 L 20.855469 26.769531 M 24.449219 36.785156 L 24.449219 36.828125 L 27.820312 38.140625 L 28.390625 37.003906 L 29.398438 35.121094 L 25.71875 33.632812 L 24.449219 36.785156 M 24.886719 33.328125 C 23.136719 32.628906 21.382812 32.03125 19.628906 31.535156 C 18.929688 32.730469 18.300781 33.96875 17.746094 35.253906 C 19.617188 35.484375 21.558594 35.921875 23.574219 36.566406 L 23.703125 36.214844 L 24.886719 33.328125 M 25.324219 32.367188 L 27.121094 28.648438 L 22.390625 27.25 L 20.15625 30.574219 C 21.46875 30.921875 23.195312 31.519531 25.324219 32.367188 M 19.0625 31.359375 L 16.957031 30.792969 L 16.914062 30.835938 L 13.5 34.246094 L 13.542969 34.378906 L 13.5 35.035156 L 14.332031 35.035156 L 17.222656 35.210938 L 18.710938 32.058594 L 19.0625 31.359375 M 28.699219 38.53125 L 30.144531 39.1875 L 32.597656 40.457031 L 32.773438 39.933594 C 33.035156 38.96875 33.355469 38.242188 33.734375 37.746094 L 34.128906 37.265625 L 31.675781 36.039062 L 30.230469 35.472656 L 29.09375 37.703125 L 28.699219 38.53125 M 32.554688 30.136719 L 27.953125 28.867188 L 26.113281 32.714844 C 27.253906 33.152344 28.507812 33.679688 29.878906 34.289062 L 32.554688 30.136719 M 24.011719 37.878906 L 21.601562 42.382812 L 25.019531 43.082031 L 27.253906 39.1875 L 24.011719 37.878906 M 11.527344 36.214844 L 9.25 38.402344 C 8.199219 39.539062 7.335938 40.648438 6.664062 41.726562 L 9.730469 41.683594 L 10.914062 37.660156 C 11.089844 37.132812 11.292969 36.652344 11.527344 36.214844 M 13.367188 35.558594 C 13.015625 37.015625 12.125 39.058594 10.695312 41.683594 L 13.980469 41.683594 L 14.898438 39.976562 L 16.738281 36.128906 L 13.367188 35.558594 M 15.25 41.726562 L 20.683594 42.25 L 23.179688 37.570312 L 17.308594 36.257812 L 15.644531 40.589844 L 15.25 41.726562 M 9.863281 43.125 L 7.628906 46.800781 L 11.484375 46.753906 L 13.671875 42.292969 C 12.5625 42.265625 11.4375 42.28125 10.300781 42.339844 L 9.863281 43.125 M 13.542969 46.753906 L 17.878906 46.753906 L 20.332031 42.90625 L 14.988281 42.339844 C 14.375 43.796875 13.601562 45.269531 12.664062 46.753906 L 13.542969 46.753906 M 11.089844 47.585938 L 7.191406 47.5 L 4.78125 50.253906 L 5.480469 52.09375 L 5.4375 52.574219 L 5.394531 52.660156 L 6.226562 54.628906 L 6.621094 54.628906 C 6.914062 54.074219 7.367188 53.316406 7.980469 52.355469 C 5.875 52.324219 5.101562 52.164062 5.65625 51.875 L 8.546875 51.480469 L 10.957031 47.847656 L 11.089844 47.585938 M 11.570312 48.460938 L 9.644531 51.347656 L 15.339844 50.5625 L 17.265625 47.71875 L 12.140625 47.585938 L 11.570312 48.460938 M 16.957031 49.640625 L 16.476562 50.429688 L 21.46875 49.730469 L 22.390625 47.804688 L 18.230469 47.71875 L 16.957031 49.640625 M 4.429688 48.023438 L 4.648438 49.378906 L 6.269531 47.457031 L 4.472656 47.410156 L 4.429688 48.023438 M 6.796875 46.800781 C 8.050781 45.167969 8.941406 43.695312 9.46875 42.382812 L 6.050781 42.730469 C 5.234375 44.132812 4.722656 45.488281 4.519531 46.800781 L 6.796875 46.800781 M 7.585938 54.671875 L 12.402344 54.804688 L 14.285156 52.046875 L 14.726562 51.4375 L 14.332031 51.523438 L 8.988281 52.355469 L 7.585938 54.671875 M 9.292969 59.175781 L 11.832031 55.589844 C 10.082031 55.300781 8.988281 55.578125 8.546875 56.421875 C 8.375 56.773438 8.152344 56.917969 7.890625 56.859375 L 6.972656 56.378906 L 8.199219 59.308594 L 9.074219 59.175781 L 9.292969 59.175781 M 8.988281 59.613281 L 8.285156 59.527344 L 8.59375 60.183594 L 8.988281 59.613281 M 12.140625 56.070312 L 10.738281 59.222656 L 15.6875 59.613281 L 18.097656 56.378906 L 17.660156 56.335938 L 13.234375 55.851562 L 12.492188 55.679688 L 12.140625 56.070312 M 14.855469 60.621094 L 10.386719 59.878906 L 9.207031 61.582031 L 10.125 63.59375 L 10.476562 63.375 L 12.140625 63.683594 L 14.417969 61.058594 L 14.855469 60.621094 M 16.785156 59.746094 L 20.289062 60.140625 L 22.523438 56.773438 L 19.0625 56.464844 L 17.265625 59.089844 L 16.785156 59.746094 M 13.191406 54.847656 L 18.796875 55.242188 C 19.617188 53.898438 20.273438 52.585938 20.769531 51.304688 L 21.03125 50.734375 L 15.953125 51.21875 L 13.191406 54.847656 M 32.859375 41.945312 L 30.886719 44.875 L 33.910156 45.96875 L 35.75 43.519531 L 35.355469 43.300781 L 32.859375 41.945312 M 32.070312 41.507812 L 29.222656 40.019531 L 28.128906 39.582031 L 26.027344 43.34375 L 26.683594 43.519531 L 29.925781 44.523438 L 30.1875 44.132812 L 31.765625 41.945312 L 32.070312 41.507812 M 27.777344 44.699219 L 29.265625 45.617188 L 29.441406 45.3125 L 28.523438 44.960938 L 27.777344 44.699219 M 30.054688 50.34375 L 33.210938 50.824219 L 30.144531 48.066406 L 29.660156 48.332031 L 28.652344 48.332031 L 27.996094 50.125 L 30.054688 50.34375 M 27.253906 48.066406 L 23.527344 47.804688 L 22.566406 49.773438 L 26.507812 49.992188 L 27.382812 48.15625 L 27.253906 48.066406 M 29.925781 46.101562 L 31.589844 47.542969 L 32.332031 48.285156 L 33.296875 46.84375 L 30.320312 45.617188 L 29.925781 46.101562 M 24.625 43.78125 L 21.207031 43.039062 L 21.164062 43.082031 L 18.84375 46.753906 L 22.914062 46.800781 L 24.535156 43.914062 L 24.625 43.78125 M 25.238281 44.699219 L 24.054688 46.84375 L 28.699219 46.972656 L 25.851562 45.136719 L 25.808594 44.875 C 25.808594 44.613281 26.15625 44.480469 26.859375 44.480469 L 27.207031 44.523438 L 25.632812 44.042969 L 25.238281 44.699219 M 24.84375 50.648438 L 22.171875 50.691406 L 21.601562 52.003906 C 21.339844 52.703125 20.742188 53.8125 19.804688 55.328125 L 23.222656 55.679688 L 26.113281 50.734375 L 24.84375 50.648438 M 24.929688 55.898438 L 29.835938 56.640625 L 33.515625 51.785156 L 27.558594 50.910156 L 24.625 55.851562 L 24.929688 55.898438 M 21.601562 60.316406 L 24.976562 60.753906 L 26.464844 60.96875 L 29.003906 57.691406 L 26.332031 57.296875 L 23.921875 56.945312 L 22.214844 59.394531 L 21.601562 60.316406 M 27.777344 61.1875 L 34.128906 62.195312 L 36.101562 59.351562 L 30.1875 57.953125 L 27.777344 61.1875 M 15.90625 60.796875 L 13.148438 63.855469 L 17.308594 64.558594 L 19.457031 61.363281 L 15.90625 60.796875 M 33.210938 63.464844 L 26.769531 62.5 L 24.316406 65.738281 L 25.324219 65.914062 L 30.886719 66.570312 L 33.210938 63.464844 M 30.230469 67.398438 L 23.660156 66.65625 L 20.070312 71.335938 L 26.375 72.253906 L 29.925781 67.75 L 30.230469 67.398438 M 32.027344 66.699219 L 34.699219 66.960938 L 37.328125 67.3125 C 38.40625 65.941406 39.3125 64.921875 40.042969 64.25 L 34.304688 63.59375 L 32.027344 66.699219 M 27.558594 72.429688 L 29.046875 72.648438 L 32.773438 73.21875 L 33.078125 72.824219 L 36.625 68.230469 L 31.371094 67.53125 L 30.625 68.492188 L 27.558594 72.429688 M 25.414062 62.328125 L 20.726562 61.582031 L 18.492188 64.730469 L 22.914062 65.519531 L 23.75 64.425781 L 25.414062 62.328125 M 22.171875 66.480469 L 17.660156 65.957031 L 14.199219 70.59375 L 18.667969 71.160156 L 22.171875 66.480469 M 25.851562 72.953125 L 19.410156 72.210938 L 17.132812 75.183594 L 17.570312 75.097656 L 23.222656 76.148438 L 24.625 74.703125 L 25.5 73.390625 L 25.851562 72.953125 M 25.0625 75.140625 L 23.921875 76.324219 L 26.070312 76.761719 L 29.660156 77.152344 L 32.332031 73.699219 L 29.09375 73.261719 L 27.035156 73.042969 L 25.0625 75.140625 M 22.566406 81.046875 L 25.0625 81.089844 L 26.070312 80.214844 L 28.875 78.070312 L 23.003906 77.242188 L 20.8125 79.339844 L 22.566406 81.046875 M 24.535156 82.925781 L 27.820312 86.339844 L 28.875 86.121094 L 32.859375 83.015625 L 31.71875 82.882812 L 25.414062 82.140625 L 24.535156 82.925781 M 23.835938 82.269531 L 24.140625 81.964844 L 23.398438 81.832031 L 23.835938 82.269531 M 21.820312 77.023438 L 17.617188 76.058594 L 20.15625 78.683594 C 20.359375 78.1875 20.914062 77.636719 21.820312 77.023438 M 29.574219 78.160156 L 26.550781 81.132812 L 34.480469 81.703125 L 36.933594 79.601562 L 33.472656 78.640625 L 29.574219 78.160156 M 30.449219 77.242188 L 34.304688 77.898438 L 37.898438 78.726562 L 41.53125 75.183594 L 33.472656 73.875 L 30.449219 77.242188 M 11.175781 65.871094 C 11.996094 67.675781 12.738281 69.179688 13.410156 70.375 L 16.433594 65.78125 L 12.050781 64.949219 L 11.175781 65.871094 M 10.476562 64.382812 L 10.824219 65.082031 L 11.175781 64.6875 L 10.476562 64.382812 M 14.199219 71.816406 L 16.433594 74.75 C 16.636719 74.222656 17.175781 73.320312 18.054688 72.035156 L 13.980469 71.425781 L 14.199219 71.816406 M 28.128906 86.6875 L 28.390625 86.511719 L 27.910156 86.425781 L 28.128906 86.6875 M 28.652344 87.300781 C 29.734375 88.613281 30.566406 89.792969 31.152344 90.84375 C 31.910156 90.171875 33.167969 89.179688 34.917969 87.871094 L 29.441406 86.730469 L 28.652344 87.300781 M 31.71875 91.414062 L 31.5 91.585938 L 31.765625 92.242188 L 33.78125 94.648438 L 34.65625 94.519531 L 35.269531 94.605469 C 36.613281 94.082031 38.015625 93.367188 39.472656 92.460938 L 34.523438 92.066406 L 31.71875 91.414062 M 34.523438 95.566406 L 37.546875 99.242188 L 37.898438 99.242188 L 42.015625 96.75 L 34.875 95.566406 L 34.523438 95.566406 M 30.1875 86.207031 L 35.96875 87.082031 L 39.167969 84.675781 L 40.261719 83.890625 L 34.21875 83.144531 L 30.1875 86.207031 M 42.453125 67.3125 L 41.3125 64.46875 L 38.773438 67.488281 L 42.847656 68.320312 L 42.453125 67.3125 M 43.066406 68.800781 L 42.628906 68.976562 L 38.027344 68.40625 L 33.867188 73.390625 L 42.058594 74.617188 L 44.421875 71.90625 L 43.066406 68.800781 M 39.429688 79.121094 L 44.730469 80.566406 L 47.882812 78.289062 L 46.746094 76.105469 L 42.757812 75.402344 L 39.429688 79.121094 M 43.503906 81.484375 L 41.050781 80.785156 L 38.335938 79.996094 L 35.839844 81.921875 L 39.519531 82.621094 L 41.226562 83.191406 L 43.503906 81.484375 M 44.863281 72.78125 L 43.242188 74.835938 L 46.351562 75.359375 L 46.132812 75.011719 L 44.863281 72.78125 M 45.695312 80.828125 L 49.503906 81.921875 L 48.148438 78.902344 L 45.695312 80.828125 M 49.546875 82.621094 C 48.554688 82.621094 46.875 82.328125 44.511719 81.746094 L 42.234375 83.496094 L 47.753906 85.375 L 49.898438 83.320312 L 50.117188 83.410156 L 49.769531 82.578125 L 49.546875 82.621094 M 50.335938 83.890625 L 50.335938 83.933594 L 48.671875 85.726562 L 51.652344 86.730469 L 50.335938 83.890625 M 47.226562 93.25 L 44.160156 92.679688 L 41.226562 92.550781 L 37.414062 94.910156 L 43.636719 95.699219 L 46.261719 93.90625 L 47.226562 93.25 M 48.585938 93.511719 L 46.875 94.5625 L 45.210938 95.917969 L 49.855469 96.53125 L 52.132812 96.878906 L 55.285156 94.472656 L 49.15625 93.597656 L 48.585938 93.511719 M 52 89.96875 L 52.964844 89.3125 L 52 87.476562 L 48.191406 86.207031 L 45.648438 88.746094 L 49.722656 89.488281 L 52 89.96875 M 50.46875 92.285156 C 52.453125 92.609375 54.089844 92.972656 55.375 93.378906 L 54.367188 91.632812 L 51.871094 91.28125 L 50.46875 92.285156 M 53.226562 90.230469 L 53.535156 90.320312 L 53.492188 90.230469 L 53.402344 90.101562 L 53.226562 90.230469 M 50.425781 91.019531 L 44.421875 89.882812 L 42.714844 91.367188 L 48.933594 92.066406 L 50.425781 91.019531 M 44.511719 88.570312 L 47.226562 85.902344 L 41.445312 84.109375 L 37.238281 87.300781 L 43.066406 88.308594 L 44.511719 88.570312 M 43.285156 89.664062 L 42.363281 89.445312 L 36.101562 88.132812 L 32.464844 90.886719 L 41.183594 91.28125 L 43.285156 89.664062 M 42.453125 104.535156 L 42.320312 104.445312 L 42.277344 104.183594 C 42.277344 103.921875 42.480469 103.789062 42.890625 103.789062 L 43.285156 103.832031 L 46.21875 101.472656 L 44.203125 100.992188 C 43.445312 100.613281 42.539062 100.394531 41.488281 100.335938 L 38.378906 100.246094 L 42.144531 104.839844 L 42.453125 104.535156 M 40.21875 99.328125 L 43.066406 99.679688 L 46.921875 100.554688 L 47.359375 100.597656 L 50.949219 97.796875 L 46.570312 97.140625 L 43.898438 96.921875 L 40.21875 99.328125 M 51.5625 103.527344 L 53.226562 102.085938 L 47.488281 101.691406 L 44.644531 103.921875 L 46.613281 104.097656 L 50.773438 104.226562 L 51.5625 103.527344 M 48.761719 100.640625 L 54.628906 100.945312 L 57.476562 98.714844 L 52.089844 97.929688 L 48.761719 100.640625 M 58.746094 99.199219 L 56.425781 101.078125 L 59.140625 101.339844 L 59.84375 100.773438 L 58.878906 99.417969 L 58.746094 99.199219 M 57.960938 97.839844 L 56.121094 94.648438 L 53.183594 97.011719 L 55.113281 97.273438 L 57.960938 97.839844 M 60.542969 102.171875 L 60.410156 102.171875 L 58.089844 104.402344 L 58.660156 104.402344 L 61.902344 104.578125 L 62.996094 104.707031 L 63.214844 104.535156 C 62.425781 103.949219 61.582031 103.074219 60.675781 101.910156 L 60.542969 102.171875 M 54.980469 102.171875 L 52.089844 104.269531 L 56.074219 104.359375 L 58.179688 102.214844 L 54.980469 102.171875 M 63.039062 106.019531 L 59.578125 110.042969 L 64.355469 110.65625 C 64.355469 110.976562 63.917969 111.136719 63.039062 111.136719 L 58.746094 111.007812 L 55.945312 113.9375 L 60.191406 115.597656 L 64.53125 111.226562 L 64.484375 108.382812 C 64.425781 107.421875 64.484375 106.648438 64.660156 106.066406 L 63.039062 106.019531 M 60.28125 105.628906 L 57.082031 105.320312 L 54.410156 107.507812 L 52.921875 109.300781 L 58.574219 109.957031 C 59.828125 108.238281 60.921875 106.882812 61.859375 105.890625 L 60.28125 105.628906 M 55.285156 105.234375 L 51.214844 105.144531 L 47.753906 108.734375 L 51.914062 109.214844 L 53.972656 106.71875 L 55.285156 105.234375 M 57.871094 110.917969 L 52.046875 110.394531 L 50.773438 112.101562 L 55.066406 113.585938 L 57.871094 110.917969 M 55.199219 114.679688 L 52.746094 117.21875 L 54.324219 118.96875 L 55.550781 120.453125 L 56.339844 119.625 C 55.054688 119.449219 54.28125 118.980469 54.015625 118.222656 C 54.191406 118.046875 54.453125 117.960938 54.804688 117.960938 L 57.519531 118.3125 L 59.449219 116.386719 L 57.738281 115.6875 L 55.199219 114.679688 M 59.316406 118.792969 C 60.746094 119.230469 61.753906 119.679688 62.339844 120.148438 L 63.214844 119.359375 L 63.476562 119.535156 L 63.523438 117.875 L 60.5 116.78125 L 58.660156 118.617188 L 59.316406 118.792969 M 56.074219 121.109375 L 57.609375 123.210938 L 57.519531 122.949219 C 57.695312 122.773438 58.105469 122.683594 58.746094 122.683594 L 59.492188 122.730469 L 61.375 121.023438 C 60.382812 120.820312 59.097656 120.382812 57.519531 119.710938 L 56.074219 121.109375 M 58.132812 123.953125 L 58.222656 123.910156 L 58.003906 123.777344 L 58.132812 123.953125 M 58.703125 124.785156 L 59.929688 127.101562 L 61.289062 125.921875 C 61.902344 125.453125 62.398438 125.132812 62.777344 124.960938 C 62.515625 124.960938 61.683594 124.609375 60.28125 123.910156 L 59.753906 123.867188 L 58.703125 124.785156 M 60.71875 122.902344 C 61.800781 123.164062 62.660156 123.675781 63.304688 124.433594 L 62.996094 124.871094 L 63.304688 124.785156 L 63.476562 124.828125 L 63.476562 120.015625 L 62.734375 120.804688 L 62.472656 121.109375 L 60.71875 122.902344 M 61.289062 116.035156 L 63.566406 116.957031 C 63.652344 115.234375 63.84375 113.9375 64.136719 113.0625 L 61.289062 116.035156 M 45.957031 108.515625 L 46.132812 108.558594 L 49.769531 105.144531 L 43.503906 104.796875 L 42.628906 105.363281 L 42.582031 105.363281 L 45.257812 108.558594 L 45.957031 108.515625 M 46.261719 109.824219 L 46.921875 110.613281 L 48.980469 113.019531 L 49.285156 112.539062 L 49.15625 112.492188 L 49.109375 112.230469 C 49.109375 111.96875 49.285156 111.835938 49.636719 111.835938 L 49.769531 111.835938 L 50.996094 110.261719 L 46.351562 109.78125 L 46.261719 109.824219 M 49.59375 113.675781 L 52.175781 116.5625 C 52.554688 116.035156 53.257812 115.292969 54.28125 114.332031 L 50.207031 112.84375 L 49.59375 113.675781 M 43.152344 142.585938 L 44.03125 144.730469 C 44.085938 144.4375 44.367188 143.96875 44.863281 143.328125 L 45.738281 142.453125 L 44.816406 141.625 L 43.503906 141.667969 L 43.152344 142.585938 M 44.292969 145.210938 L 44.644531 145.820312 L 45.78125 147.789062 L 45.78125 147.746094 C 45.78125 147.601562 45.824219 147.46875 45.914062 147.351562 L 45.257812 146.566406 L 45.695312 146.304688 C 45.925781 146.304688 46.234375 146.433594 46.613281 146.695312 C 47.140625 146.375 47.929688 146.113281 48.980469 145.910156 L 48.585938 145.121094 C 48.351562 144.683594 47.722656 144.058594 46.703125 143.242188 L 45.957031 143.984375 L 44.46875 145.253906 L 44.292969 145.210938 M 47.664062 147.660156 L 49.679688 150.109375 L 50.074219 149.890625 L 51.125 149.453125 L 49.636719 147.132812 L 47.664062 147.660156 M 65.710938 131.695312 L 65.886719 130.558594 C 65.390625 130.527344 64.96875 130.265625 64.617188 129.769531 L 64.136719 130.207031 L 65.710938 131.695312 M 64.222656 129.027344 C 63.871094 128.269531 63.640625 127.203125 63.523438 125.835938 L 60.761719 127.847656 C 61.464844 128.136719 62.339844 128.722656 63.390625 129.59375 L 64.222656 129.027344 M 65.316406 133.445312 L 65.40625 133.707031 L 65.535156 132.699219 L 63.304688 130.90625 L 61.945312 131.957031 L 63.347656 134.144531 L 63.476562 134.058594 L 63.871094 134.230469 L 64.878906 133.355469 L 65.316406 133.445312 M 63.214844 136.332031 L 62.820312 135.980469 L 61.59375 136.8125 L 61.726562 137.03125 L 62.691406 138.824219 L 63.566406 138.253906 L 64.089844 138.34375 L 64.179688 138.648438 C 64.179688 138.941406 63.859375 139.347656 63.214844 139.875 L 64.089844 141.625 L 64.703125 137.90625 L 64.617188 137.90625 L 63.390625 136.199219 L 63.214844 136.332031 M 65.316406 134.101562 L 64.089844 135.542969 L 64.835938 137.03125 L 65.316406 134.101562 M 60.148438 130.820312 L 60.410156 130.734375 C 60.644531 130.734375 60.910156 130.863281 61.199219 131.125 L 62.472656 130.296875 L 60.5 128.894531 L 60.5 129.332031 L 60.457031 129.859375 L 60.324219 130.03125 L 60.148438 130.820312 M 60.019531 131.214844 L 59.359375 132.4375 L 60.367188 131.738281 L 60.019531 131.214844 M 57.519531 134.886719 L 56.558594 136.199219 L 57.566406 137.425781 L 59.054688 136.855469 L 59.667969 136.59375 L 58.089844 134.1875 L 57.519531 134.886719 M 58.703125 133.445312 C 59.347656 133.648438 60.105469 134.421875 60.980469 135.761719 C 61.417969 135.472656 61.902344 135.148438 62.425781 134.800781 L 60.980469 132.613281 L 59.535156 133.183594 L 59.097656 133.09375 L 59.011719 132.964844 L 58.703125 133.445312 M 59.929688 137.644531 L 58.308594 138.386719 L 60.0625 140.617188 L 60.238281 140.53125 L 61.59375 139.566406 L 60.238281 137.511719 L 59.929688 137.644531 M 59.84375 141.84375 L 56.558594 143.242188 L 57.828125 144.816406 C 59.023438 144.292969 60.003906 143.867188 60.761719 143.546875 L 59.929688 141.972656 L 59.84375 141.84375 M 60.632812 141.449219 L 60.894531 141.753906 L 61.683594 143.152344 L 62.953125 142.628906 C 63.15625 142.628906 63.332031 142.746094 63.476562 142.980469 L 62.078125 144.117188 L 62.953125 146.347656 L 63.257812 146.566406 L 63.871094 142.933594 L 62.207031 140.53125 L 60.632812 141.449219 M 56.644531 137.773438 L 56.121094 136.945312 L 55.460938 138.300781 L 56.164062 137.949219 L 56.644531 137.773438 M 55.679688 142.234375 L 56.996094 141.710938 L 59.097656 140.96875 L 57.390625 138.78125 L 54.980469 139.917969 C 54.804688 140.675781 54.71875 141.449219 54.71875 142.234375 L 54.71875 142.324219 C 54.863281 142.0625 55.039062 141.929688 55.242188 141.929688 L 55.679688 142.234375 M 54.71875 142.628906 L 54.9375 142.542969 L 54.71875 142.324219 L 54.71875 142.628906 M 56.953125 145.167969 L 55.636719 143.460938 L 54.894531 143.503906 L 54.761719 143.503906 L 54.9375 145.210938 L 55.679688 145.078125 L 56.207031 145.167969 L 56.292969 145.472656 L 56.953125 145.167969 M 55.066406 146.304688 L 55.199219 147.351562 L 56.425781 149.058594 L 58.527344 148.054688 L 58.921875 147.921875 L 57.652344 146.128906 L 56.121094 146.304688 L 55.59375 146.214844 L 55.15625 146.304688 L 55.066406 146.304688 M 58.660156 145.820312 L 59.359375 146.785156 L 59.886719 147.484375 L 61.945312 146.609375 L 61.59375 145.691406 L 61.199219 144.597656 L 60.585938 144.859375 L 58.660156 145.820312 M 63.214844 146.785156 L 63.171875 146.871094 L 63.171875 146.960938 L 63.214844 146.785156 M 62.996094 158.460938 L 61.726562 157.324219 L 61.464844 157.0625 L 58.398438 156.976562 L 58.308594 157.0625 L 60.238281 159.164062 L 62.996094 158.8125 L 62.953125 158.636719 L 62.996094 158.460938 M 63.039062 156.933594 L 63.085938 154.527344 L 62.691406 156.449219 L 63.039062 156.933594 M 59.011719 152.425781 C 59.914062 152.222656 60.601562 151.902344 61.070312 151.464844 L 61.375 151.160156 L 59.84375 149.144531 L 57.214844 150.195312 L 58.878906 152.46875 L 59.011719 152.425781 M 59.535156 153.390625 L 60.585938 154.875 L 60.675781 154.875 C 60.996094 154.875 61.359375 155.066406 61.769531 155.445312 L 62.339844 152.164062 L 61.988281 151.859375 L 59.710938 153.257812 L 59.535156 153.390625 M 62.515625 150.984375 L 62.953125 148.226562 L 62.382812 147.570312 L 60.804688 148.664062 L 62.515625 150.984375 M 55.507812 149.496094 L 55.769531 149.363281 L 55.417969 148.796875 L 55.507812 149.496094 M 54.628906 153.390625 L 52.441406 150.109375 C 52.148438 150.515625 51.519531 150.925781 50.554688 151.332031 L 52.132812 153.476562 L 54.191406 153.300781 L 54.628906 153.390625 L 54.71875 153.695312 C 54.71875 154.25 54.148438 154.613281 53.007812 154.789062 L 53.972656 156.101562 L 54.234375 155.445312 L 54.9375 153.828125 L 54.628906 153.390625 M 55.945312 153.34375 C 56.441406 153.113281 57.140625 152.894531 58.046875 152.6875 L 56.511719 150.414062 L 55.679688 150.675781 L 55.769531 151.160156 L 55.769531 153.039062 L 55.945312 153.34375 M 57.960938 156.277344 L 58.746094 156.277344 L 60.851562 156.320312 L 60.761719 156.230469 L 60.542969 156.230469 L 58.746094 153.738281 C 57.726562 154.207031 56.878906 154.496094 56.207031 154.613281 C 56.734375 154.789062 57.214844 155.195312 57.652344 155.839844 L 57.960938 156.277344 M 55.199219 156.320312 L 56.382812 156.320312 L 55.550781 155.53125 L 55.199219 156.320312 M 53.929688 158.242188 L 54.105469 158.199219 C 54.511719 158.199219 55.140625 158.695312 55.988281 159.6875 L 56.03125 159.730469 L 56.777344 159.46875 L 56.734375 159.601562 L 59.183594 159.292969 L 57.828125 157.632812 L 57.257812 158.507812 L 57.609375 157.71875 L 56.90625 156.886719 L 54.980469 156.800781 L 53.929688 158.242188 M 58.484375 160.300781 L 56.6875 160.253906 L 60.148438 164.890625 L 62.339844 165.066406 L 62.820312 163.359375 L 60.542969 160.910156 L 60.019531 160.300781 L 58.484375 160.300781 M 56.164062 160.957031 L 56.03125 161.304688 L 55.636719 160.867188 L 54.9375 161.042969 L 52.878906 161.523438 L 54.671875 164.671875 L 54.847656 164.890625 L 58.046875 164.847656 L 58.484375 164.847656 L 56.164062 160.957031 M 54.9375 160.035156 L 53.492188 158.726562 L 53.667969 158.460938 L 52.351562 158.898438 L 51.039062 158.726562 L 52.222656 160.386719 L 53.753906 160.300781 L 54.9375 160.035156 M 55.988281 168.785156 L 56.074219 168.785156 L 54.410156 165.984375 L 52.046875 166.203125 L 53.492188 168.476562 L 53.492188 168.523438 L 53.753906 168.523438 L 55.988281 168.785156 M 56.996094 168.742188 C 58.71875 168.59375 60.078125 168.027344 61.070312 167.035156 L 60.851562 167.121094 C 60.410156 167.121094 59.796875 166.613281 59.011719 165.589844 L 55.242188 165.460938 L 55.945312 166.597656 L 56.996094 168.742188 M 61.375 166.597656 L 61.246094 166.859375 L 62.121094 165.589844 L 61.59375 165.636719 L 60.675781 165.636719 L 61.375 166.597656 M 63.039062 159.992188 L 61.199219 160.210938 L 62.996094 162.222656 L 63.039062 159.992188 M 48.585938 151.289062 L 48.847656 150.765625 L 46.527344 148.097656 L 46.21875 148.226562 L 46 148.140625 L 46.613281 149.015625 C 47.664062 150.179688 48.425781 151.859375 48.890625 154.046875 L 50.730469 153.652344 L 49.679688 151.683594 L 49.023438 151.902344 C 48.730469 151.8125 48.585938 151.609375 48.585938 151.289062 M 49.109375 155.3125 L 49.109375 156.363281 C 50.308594 157.414062 51.375 157.9375 52.308594 157.9375 C 52.6875 157.9375 53.082031 157.617188 53.492188 156.976562 C 52.820312 156.917969 52.117188 156.21875 51.386719 154.875 L 51.214844 154.875 L 49.023438 154.789062 L 49.109375 155.3125 M 46.65625 155.183594 L 44.597656 153.171875 L 44.074219 153.214844 L 42.714844 153.433594 L 45.34375 156.800781 L 47.488281 156.144531 L 46.65625 155.226562 L 46.65625 155.183594 M 46.308594 158.070312 L 48.234375 160.691406 L 50.730469 160.519531 L 49.109375 157.9375 L 49.199219 157.894531 L 48.410156 157.238281 L 48.058594 156.84375 C 48 157.339844 47.476562 157.734375 46.484375 158.023438 L 46.308594 158.070312 M 40.65625 153.171875 L 40.742188 153.039062 L 39.296875 151.203125 C 39.472656 150.851562 39.648438 150.675781 39.824219 150.675781 C 40.144531 150.675781 40.890625 151.332031 42.058594 152.644531 L 43.152344 152.601562 L 44.117188 152.6875 L 41.664062 150.195312 C 40.964844 150.195312 40.203125 150.414062 39.386719 150.851562 C 38.628906 151.261719 38.246094 151.566406 38.246094 151.769531 C 38.246094 152.089844 38.453125 152.628906 38.859375 153.390625 L 40.523438 153.125 L 40.65625 153.171875 M 39.296875 154.175781 C 40.640625 156.421875 43.3125 160.007812 47.316406 164.9375 L 47.359375 164.980469 L 48.234375 165.765625 L 50.46875 165.417969 L 47.664062 161.875 L 44.773438 161.65625 L 44.730469 161.394531 C 44.730469 161.21875 45.445312 161.042969 46.875 160.867188 L 44.992188 158.417969 L 43.417969 158.898438 C 43.125 158.8125 42.976562 158.652344 42.976562 158.417969 C 42.976562 157.921875 43.328125 157.53125 44.03125 157.238281 L 41.402344 153.871094 L 41.050781 154 L 40.964844 154 L 39.472656 154.175781 L 39.296875 154.175781 M 48.890625 166.378906 C 49.972656 167.457031 51.285156 168.144531 52.835938 168.433594 L 51.125 166.246094 L 48.628906 166.117188 L 48.890625 166.378906 M 53.667969 165.109375 L 53.839844 164.980469 L 51.519531 161.699219 L 49.066406 161.875 L 51.476562 165.375 L 53.667969 165.285156 L 53.667969 165.109375 "/>
</g>
</svg>
