<?xml version="1.0" encoding="UTF-8"?>
<svg xmlns="http://www.w3.org/2000/svg" xmlns:xlink="http://www.w3.org/1999/xlink" width="203px" height="249px" viewBox="0 0 203 249" version="1.1">
<g id="surface1">
<path style=" stroke:none;fill-rule:evenodd;fill:rgb(0%,0%,0%);fill-opacity:0.678431;" d="M 32.378906 15.964844 L 28.828125 19.113281 L 28.875 19.113281 L 32.421875 19.417969 L 34.960938 15.613281 C 34.230469 15.671875 33.664062 15.511719 33.253906 15.132812 L 32.378906 15.964844 M 32.640625 14.128906 L 32.902344 13.910156 L 33.121094 13.910156 L 37.414062 9.667969 C 39.574219 7.976562 42.335938 6.632812 45.695312 5.640625 L 46.089844 5.6875 C 46.292969 5.25 46.90625 4.578125 47.929688 3.675781 C 49.210938 2.535156 50.105469 1.910156 50.601562 1.792969 L 51.039062 1.617188 C 51.5625 1.617188 53.667969 3.847656 57.347656 8.308594 C 59.390625 10.90625 60.746094 12.828125 61.417969 14.082031 L 61.464844 14.039062 C 61.753906 14.15625 61.902344 14.359375 61.902344 14.652344 L 61.902344 15.394531 L 61.859375 15.789062 L 61.859375 15.875 C 61.652344 19.695312 61.550781 22.671875 61.550781 24.800781 L 61.550781 25.019531 L 61.464844 25.0625 L 61.332031 25.191406 L 61.375 25.585938 L 61.550781 25.761719 L 61.464844 25.894531 L 62.382812 29 L 62.515625 29 L 62.601562 29.304688 C 62.601562 29.65625 60.5 31.710938 56.292969 35.472656 C 53.492188 37.484375 50.703125 39.277344 47.929688 40.851562 L 46.527344 41.8125 L 46.65625 41.855469 L 45.957031 42.382812 L 45.824219 42.382812 C 44.890625 43.167969 43.898438 44.160156 42.847656 45.355469 L 43.066406 45.445312 L 43.152344 45.75 C 43.152344 46.070312 42.832031 46.230469 42.191406 46.230469 L 42.101562 46.230469 L 41.488281 46.929688 L 40 48.636719 L 39.648438 48.988281 C 38.304688 50.269531 36.960938 51.261719 35.617188 51.960938 C 37.691406 55.082031 39.210938 57.601562 40.175781 59.527344 L 45.386719 70.679688 L 45.605469 70.375 L 46.042969 70.460938 L 46.132812 70.769531 L 45.78125 71.554688 L 47.183594 74.75 L 47.578125 75.621094 L 47.707031 75.621094 L 47.621094 75.753906 L 52.835938 87.167969 L 53.140625 87.257812 L 53.007812 87.519531 L 53.710938 88.917969 L 54.191406 89.269531 L 54.015625 89.488281 L 54.234375 89.882812 L 54.628906 90.582031 C 55.507812 90.816406 55.945312 91.003906 55.945312 91.148438 L 55.898438 91.542969 C 55.929688 91.660156 55.796875 91.71875 55.507812 91.71875 L 55.285156 91.71875 L 56.511719 93.644531 L 56.820312 93.90625 L 56.996094 93.992188 L 56.863281 94.210938 L 59.929688 98.453125 L 60.324219 98.628906 L 60.238281 98.847656 C 61.988281 100.976562 63.886719 102.972656 65.929688 104.839844 L 65.492188 105.320312 C 65.667969 105.730469 65.757812 106.445312 65.757812 107.464844 C 65.757812 109.359375 65.523438 111.210938 65.054688 113.019531 C 64.761719 114.183594 64.558594 115.613281 64.441406 117.304688 L 65.230469 117.609375 C 64.96875 117.960938 64.734375 118.136719 64.53125 118.136719 L 64.398438 118.136719 L 64.355469 120.324219 L 64.355469 125.179688 C 64.558594 126.898438 64.980469 128.078125 65.625 128.722656 C 66.179688 129.332031 66.457031 129.769531 66.457031 130.03125 L 66.457031 130.078125 L 66.28125 132.351562 L 66.457031 132.613281 L 66.195312 132.964844 L 64.355469 144.597656 L 64.003906 148.097656 L 64.089844 147.878906 L 64.53125 148.492188 L 63.828125 158.070312 L 64.003906 158.375 L 63.742188 158.679688 L 63.742188 158.769531 L 64.265625 158.8125 L 64.355469 159.117188 C 64.355469 159.382812 64.121094 159.613281 63.652344 159.820312 L 63.828125 161.4375 L 63.828125 163.1875 L 63.566406 164.890625 C 62.71875 168.128906 60.238281 169.746094 56.121094 169.746094 L 53.273438 169.484375 C 51.257812 169.25 49.546875 168.550781 48.148438 167.386719 L 45.78125 164.761719 L 45.78125 164.671875 L 44.25 162.53125 L 41.53125 158.636719 C 40.859375 158.023438 40.042969 156.960938 39.078125 155.445312 C 37.941406 153.695312 37.371094 152.441406 37.371094 151.683594 C 37.371094 151.246094 37.734375 150.75 38.464844 150.195312 C 39.285156 149.582031 40.175781 149.277344 41.136719 149.277344 C 42.335938 149.277344 43.648438 150.09375 45.082031 151.726562 L 47.882812 155.226562 L 47.882812 155.269531 L 48.191406 155.574219 L 47.664062 153.5625 C 47.285156 152.078125 46.703125 150.777344 45.914062 149.671875 C 43.488281 146.257812 42.277344 143.867188 42.277344 142.5 C 42.277344 141.332031 42.964844 140.734375 44.335938 140.703125 C 44.421875 140.589844 44.585938 140.53125 44.816406 140.53125 L 45.519531 140.921875 C 47.09375 141.417969 48.863281 142.992188 50.820312 145.648438 L 51.125 145.691406 L 51.214844 145.996094 L 51.214844 146.171875 L 51.609375 146.742188 C 52.921875 148.664062 54.003906 150.472656 54.847656 152.164062 L 54.71875 150.808594 L 54.410156 150.632812 L 54.367188 150.371094 L 54.671875 150.019531 L 54.542969 148.796875 C 54.074219 145.820312 53.839844 143.589844 53.839844 142.105469 L 54.367188 139.566406 L 54.367188 139.523438 L 54.5 139.085938 L 54.585938 138.738281 L 55.507812 136.023438 L 55.417969 135.894531 L 55.636719 135.71875 L 55.988281 135.148438 C 56.921875 133.78125 57.855469 132.671875 58.792969 131.824219 C 59.230469 131.417969 59.433594 130.820312 59.40625 130.03125 C 59.40625 129.652344 59.449219 129.347656 59.535156 129.113281 C 56.5 124.039062 52.949219 119.082031 48.890625 114.242188 L 48.761719 114.199219 L 48.585938 113.894531 L 46.132812 111.050781 L 45.035156 109.695312 L 44.554688 109.652344 L 44.378906 109.257812 L 44.46875 108.996094 L 38.335938 101.648438 L 36.890625 99.984375 C 36.566406 99.867188 36.378906 99.707031 36.320312 99.503906 L 36.40625 99.460938 C 32.992188 95.554688 31.164062 93.191406 30.933594 92.375 L 30.714844 92.199219 L 30.625 92.242188 C 30.332031 92.15625 30.1875 91.996094 30.1875 91.761719 L 30.273438 91.632812 L 29.488281 90.582031 C 28.726562 89.503906 28.171875 88.597656 27.820312 87.871094 L 27.734375 87.871094 L 27.382812 87.78125 L 27.207031 87.386719 L 27.472656 87.214844 C 27.09375 86.570312 26.375 85.800781 25.324219 84.894531 L 23.75 83.496094 L 23.398438 83.191406 L 22.523438 82.402344 L 21.691406 81.527344 L 20.726562 81.308594 C 20.8125 81.222656 21.003906 81.148438 21.296875 81.089844 C 16.796875 76.394531 14.183594 73.464844 13.453125 72.296875 L 12.886719 71.25 L 12.839844 71.207031 L 8.199219 62.328125 L 7.933594 62.328125 L 7.585938 62.238281 L 7.410156 61.84375 L 7.761719 61.40625 C 5.421875 56.597656 4.253906 53.449219 4.253906 51.960938 L 4.253906 51.875 C 3.964844 51.085938 3.730469 49.804688 3.554688 48.023438 C 3.554688 47.003906 3.714844 46.171875 4.035156 45.53125 L 5.308594 42.382812 L 5.4375 42.074219 L 5.308594 41.902344 C 5.277344 41.84375 5.351562 41.8125 5.527344 41.8125 C 6.167969 40.152344 7.496094 38.519531 9.511719 36.914062 C 11.089844 35.632812 12.886719 33.808594 14.898438 31.449219 C 16.710938 29.289062 18.300781 27.597656 19.675781 26.375 L 19.5 26.285156 C 19.675781 25.9375 19.878906 25.761719 20.113281 25.761719 L 20.332031 25.761719 L 24.449219 22.261719 L 24.054688 22.175781 L 24.753906 22 C 28.230469 18.910156 30.757812 16.503906 32.332031 14.785156 L 32.726562 14.347656 L 32.640625 14.128906 M 42.890625 9.183594 C 44.144531 9.652344 45.257812 9.988281 46.21875 10.191406 L 46.527344 10.191406 L 47.796875 8.617188 C 48.089844 8.617188 48.234375 8.761719 48.234375 9.054688 L 47.621094 10.191406 L 49.898438 10.234375 C 47.535156 8.195312 46.234375 6.835938 46 6.167969 C 44.191406 6.488281 42.335938 7.320312 40.4375 8.660156 L 42.890625 9.183594 M 37.898438 10.628906 L 34.480469 13.910156 L 35.96875 13.863281 L 36.230469 13.863281 L 38.683594 10.539062 L 39.125 10.976562 L 37.066406 13.910156 L 43.285156 14.609375 L 45.519531 11.546875 L 45.871094 11.109375 L 45.34375 11.066406 C 45.050781 11.066406 44.90625 10.875 44.90625 10.496094 L 41.578125 10.191406 L 39.296875 9.753906 L 39.167969 9.578125 L 37.898438 10.628906 M 36.011719 15.441406 L 33.734375 18.894531 L 33.339844 19.507812 L 35.355469 19.683594 L 38.421875 20.164062 L 38.816406 20.339844 L 42.539062 15.65625 L 40.394531 15.527344 L 39.035156 15.089844 L 36.011719 15.441406 M 51.914062 12.902344 C 51.914062 13.457031 51.503906 14.433594 50.6875 15.832031 L 54.671875 16.445312 L 54.058594 15.570312 L 51.914062 12.640625 L 51.914062 12.902344 M 50.46875 11.328125 L 46.964844 11.152344 L 44.335938 14.785156 L 47.09375 15.222656 L 49.109375 15.570312 C 49.988281 14.082031 50.71875 13.046875 51.300781 12.464844 L 51.828125 12.554688 L 51.082031 11.546875 L 50.46875 11.328125 M 45.5625 15.832031 L 43.589844 15.746094 L 39.910156 20.6875 L 44.117188 20.46875 L 46.4375 20.164062 L 48.628906 16.359375 L 48.671875 16.269531 L 45.5625 15.832031 M 50.25 16.578125 L 47.796875 20.164062 C 48.496094 20.222656 49.109375 20.382812 49.636719 20.644531 C 50.21875 20.9375 50.90625 21.082031 51.695312 21.082031 C 52.71875 19.625 53.652344 18.441406 54.5 17.539062 L 50.25 16.578125 M 175.003906 172.019531 C 174.738281 170.855469 174.625 169.410156 174.652344 167.691406 L 174.738281 162.660156 C 174.59375 159.074219 174.15625 155.707031 173.425781 152.558594 C 173.074219 151.101562 172.507812 147.730469 171.71875 142.453125 C 171.074219 138.371094 170.273438 135.078125 169.308594 132.570312 L 169.394531 132.480469 C 169.015625 131.839844 168.5625 130.71875 168.039062 129.113281 C 167.160156 126.546875 166.59375 124.332031 166.328125 122.464844 C 165.628906 118.003906 165.191406 114.914062 165.015625 113.195312 L 164.929688 113.148438 L 164.753906 112.757812 L 164.972656 112.667969 L 164.929688 111.835938 C 164.929688 110.058594 165.394531 107.800781 166.328125 105.058594 C 167.265625 102.316406 167.730469 99.808594 167.730469 97.535156 L 167.554688 83.277344 C 167.554688 82.109375 167.601562 81.265625 167.6875 80.738281 C 167.453125 79.660156 167.335938 78.234375 167.335938 76.453125 L 167.207031 71.554688 L 165.804688 61.84375 L 163 42.558594 L 163.042969 41.855469 C 162.722656 41.476562 162.535156 40.9375 162.476562 40.238281 C 162.621094 38.460938 162.621094 37.324219 162.476562 36.828125 L 162.476562 36.566406 L 162.300781 36.433594 L 162.476562 36.257812 L 162.476562 36.039062 L 162.824219 35.953125 C 163.761719 35.3125 165.378906 35.164062 167.6875 35.515625 C 168.828125 35.019531 169.996094 34.667969 171.191406 34.464844 L 180.214844 32.234375 C 182.40625 30.953125 185.75 29.203125 190.246094 26.984375 L 190.773438 27.074219 L 190.859375 27.378906 C 190.859375 27.699219 190.640625 28.066406 190.203125 28.472656 L 190.859375 33.808594 L 190.859375 34.246094 C 190.859375 34.65625 190.523438 35.09375 189.851562 35.558594 C 190.171875 36.667969 190.335938 38.855469 190.335938 42.121094 L 190.335938 48.636719 L 190.421875 48.550781 L 190.421875 48.636719 L 190.773438 49.46875 L 190.335938 49.859375 L 190.378906 54.148438 L 190.421875 54.105469 C 190.714844 54.105469 190.859375 54.234375 190.859375 54.496094 C 190.859375 54.789062 190.699219 55.152344 190.378906 55.589844 L 190.421875 58.785156 L 190.507812 59.175781 L 190.464844 59.570312 L 190.464844 59.660156 L 190.507812 61.890625 L 190.683594 62.414062 L 190.507812 62.894531 L 190.597656 67.707031 L 190.859375 68.230469 L 190.597656 68.625 L 190.597656 76.628906 L 190.640625 78.117188 L 191.035156 78.683594 L 190.640625 79.121094 C 190.757812 83.4375 191.003906 87.199219 191.386719 90.40625 L 191.386719 91.324219 L 191.210938 91.414062 L 193.96875 100.117188 L 194.890625 100.945312 L 194.453125 101.339844 L 194.320312 101.296875 L 195.285156 104.796875 C 195.808594 106.75 196.160156 109.503906 196.335938 113.0625 L 196.730469 113.148438 L 196.816406 113.457031 L 196.378906 114.113281 L 196.464844 119.359375 L 196.117188 123.164062 L 196.292969 123.429688 L 195.984375 123.910156 L 195.414062 127.582031 L 195.109375 129.464844 L 194.714844 132.699219 C 194.949219 132.816406 195.066406 133.007812 195.066406 133.269531 L 194.625 134.320312 L 194.625 134.929688 L 194.890625 134.976562 L 194.671875 135.324219 L 195.066406 135.894531 L 194.933594 138.910156 L 195.066406 139.4375 L 194.890625 139.523438 C 194.65625 142.410156 194.1875 146.316406 193.488281 151.246094 L 193.488281 153.433594 L 193.839844 153.652344 L 193.488281 154.132812 L 193.445312 156.539062 L 193.75 156.539062 L 193.839844 156.84375 L 193.445312 157.105469 L 193.398438 161.21875 L 194.011719 161.699219 L 193.488281 162.222656 L 193.355469 162.222656 L 193.839844 162.574219 L 193.355469 163.097656 L 193.3125 166.597656 L 193.3125 168.128906 L 193.839844 168.828125 C 193.839844 168.972656 193.691406 169.046875 193.398438 169.046875 L 193.269531 169.003906 L 193.09375 176.4375 L 193.398438 176.484375 L 193.488281 176.789062 L 193.050781 177.3125 L 192.960938 179.980469 C 193.195312 180.039062 193.3125 180.140625 193.3125 180.289062 L 193.179688 180.726562 L 192.917969 180.855469 L 192.789062 181.949219 L 192.394531 185.40625 L 192.523438 185.40625 L 192.613281 185.710938 L 192.347656 186.015625 C 192.058594 188.757812 191.867188 191.398438 191.78125 193.933594 L 192.175781 193.976562 L 192.261719 194.285156 L 191.78125 194.941406 L 191.734375 197.082031 C 191.734375 200.960938 191.851562 203.613281 192.085938 205.042969 L 191.734375 205.394531 L 191.734375 206.792969 L 191.691406 207.535156 L 191.691406 207.753906 L 191.910156 208.148438 L 191.648438 208.28125 C 191.5625 209.855469 191.648438 211.035156 191.910156 211.824219 L 192.523438 213.660156 C 193.050781 213.6875 193.3125 213.820312 193.3125 214.054688 L 193.179688 214.492188 L 192.832031 214.578125 L 193.574219 216.503906 L 193.96875 218.820312 L 194.539062 219.390625 L 194.496094 219.78125 C 194.523438 219.898438 194.394531 219.957031 194.101562 219.957031 L 194.011719 219.914062 L 194.011719 220.132812 C 194.011719 225.175781 192.902344 230.890625 190.683594 237.277344 C 188.144531 244.625 185.339844 248.300781 182.273438 248.300781 L 179.558594 247.90625 C 178.945312 248.519531 178.332031 248.824219 177.71875 248.824219 C 176.054688 248.824219 173.703125 248.023438 170.667969 246.417969 L 166.285156 243.839844 L 162.125 241.128906 C 161.539062 240.632812 161.25 239.757812 161.25 238.503906 L 161.292969 237.847656 C 160.035156 237.644531 159.203125 237.292969 158.796875 236.796875 C 158.679688 236.652344 158.621094 236.125 158.621094 235.222656 C 158.621094 234.230469 158.882812 233.136719 159.410156 231.941406 L 160.898438 228.835938 L 160.898438 228.75 L 161.074219 228.398438 L 163.175781 221.707031 C 163.703125 220.746094 164.039062 219.375 164.183594 217.597656 L 164.050781 217.246094 L 164.226562 216.722656 L 164.226562 214.929688 C 164.167969 212.59375 164.417969 210.730469 164.972656 209.328125 L 164.929688 209.066406 C 164.929688 208.746094 165.496094 207.492188 166.636719 205.304688 C 167.832031 202.914062 168.957031 200.960938 170.007812 199.445312 C 172.054688 196.382812 172.988281 193.234375 172.8125 189.996094 C 172.609375 186.527344 172.886719 182.242188 173.644531 177.136719 L 173.382812 177.050781 L 173.339844 176.789062 L 173.6875 176.703125 L 174.652344 171.148438 L 174.957031 172.066406 L 175.003906 172.195312 L 175.003906 172.019531 M 175.003906 172.195312 L 175.089844 173.859375 L 174.828125 176.394531 L 178.636719 175.34375 C 177.296875 174.382812 176.214844 173.480469 175.398438 172.632812 L 175.179688 172.722656 L 175.089844 172.285156 L 175.003906 172.195312 M 183.542969 38.007812 L 181.398438 38.621094 L 179.996094 40.808594 L 180.433594 41.113281 L 183.984375 43.867188 L 186.875 40.238281 L 183.589844 38.007812 L 183.542969 38.007812 M 177.894531 39.496094 L 179.121094 40.238281 L 180.085938 38.925781 L 177.894531 39.496094 M 188.667969 38.183594 C 188.960938 38.183594 189.109375 38.386719 189.109375 38.796875 L 188.449219 40.238281 L 189.328125 41.113281 L 189.28125 38.097656 C 189.28125 37.046875 189.355469 36.273438 189.5 35.777344 C 188.507812 36.332031 187.003906 36.929688 184.988281 37.570312 C 185.660156 37.890625 186.507812 38.503906 187.53125 39.40625 L 188.667969 38.183594 M 187.925781 41.070312 L 184.945312 44.832031 L 189.328125 49.6875 L 189.457031 49.554688 L 189.328125 42.207031 L 187.925781 41.070312 M 179.296875 41.769531 L 176.359375 45.574219 L 180.390625 48.460938 L 183.238281 44.832031 L 179.296875 41.769531 M 182.1875 49.730469 L 185.777344 53.011719 L 188.757812 50.210938 C 187.472656 48.695312 185.96875 47.179688 184.246094 45.664062 L 181.308594 49.117188 L 182.1875 49.730469 M 179.953125 49.03125 L 175.878906 46.1875 L 174.039062 48.460938 L 173.644531 49.03125 C 174.375 49.699219 175.222656 50.648438 176.183594 51.875 L 176.972656 52.878906 L 178.859375 50.429688 L 179.953125 49.03125 M 180.785156 49.6875 L 179.515625 51.128906 L 177.632812 53.710938 L 178.988281 55.109375 L 181.046875 56.945312 L 185.210938 53.492188 L 181.53125 50.296875 L 180.785156 49.6875 M 185.691406 53.972656 L 181.53125 57.382812 L 183.71875 59.441406 L 187.398438 56.507812 L 186.609375 55.023438 L 185.691406 53.972656 M 178.769531 59.613281 L 180.476562 61.40625 L 180.828125 61.757812 L 182.84375 60.140625 L 180.523438 58.214844 L 178.769531 59.613281 M 180.039062 57.734375 L 177.894531 55.414062 L 177.0625 54.410156 L 175.441406 56.335938 L 178.246094 59.089844 L 180.039062 57.734375 M 189.371094 50.953125 L 189.28125 50.867188 L 186.261719 53.492188 L 186.960938 54.234375 L 188.363281 55.722656 L 189.5 54.804688 L 189.457031 50.953125 L 189.371094 50.953125 M 188.1875 57.820312 L 184.769531 60.488281 L 187.792969 63.8125 L 189.632812 62.328125 L 189.589844 59.484375 L 188.1875 57.820312 M 189.546875 57.210938 L 189.546875 56.554688 L 189.238281 56.816406 L 189.546875 57.210938 M 169.351562 41.636719 L 169.308594 41.59375 L 165.148438 42.511719 L 168.78125 45.3125 L 170.710938 42.644531 L 169.351562 41.636719 M 171.234375 41.902344 L 171.980469 40.9375 L 170.402344 41.332031 L 171.234375 41.902344 M 169.265625 46.800781 L 169.046875 46.625 L 167.03125 49.511719 C 167.90625 49.976562 169.058594 50.792969 170.492188 51.960938 L 172.285156 49.46875 L 169.265625 46.800781 M 173.03125 48.503906 L 175.089844 45.707031 L 171.71875 43.386719 L 169.613281 45.925781 L 173.03125 48.503906 M 175.617188 45.007812 L 178.417969 41.15625 L 176.449219 39.84375 L 173.734375 40.5 L 172.285156 42.644531 L 175.617188 45.007812 M 164.050781 42.46875 L 163.875 42.425781 L 165.058594 49.160156 L 165.542969 49.03125 L 166.109375 49.117188 L 168.300781 46.011719 L 164.050781 42.511719 L 164.050781 42.46875 M 165.234375 50.429688 L 165.542969 49.992188 L 165.148438 49.773438 L 165.234375 50.429688 M 165.980469 55.898438 L 167.03125 56.640625 L 169.832031 52.792969 L 166.328125 50.472656 L 165.410156 51.699219 L 165.980469 55.898438 M 168.738281 57.996094 L 170.753906 59.703125 C 172.621094 58.359375 173.804688 57.339844 174.300781 56.640625 L 173.121094 55.546875 L 170.445312 53.273438 L 167.601562 57.078125 L 168.738281 57.996094 M 166.503906 57.296875 L 166.109375 56.945312 L 166.199219 57.734375 L 166.503906 57.296875 M 166.285156 58.433594 L 166.328125 58.871094 L 166.988281 63.027344 C 167.394531 63.054688 168.316406 63.683594 169.746094 64.90625 L 172.855469 62.851562 L 170.710938 60.882812 L 167.820312 63.027344 C 167.527344 62.9375 167.382812 62.777344 167.382812 62.546875 C 167.382812 62.253906 168.257812 61.480469 170.007812 60.226562 L 167.074219 57.777344 L 166.503906 58.476562 L 166.285156 58.433594 M 176.449219 53.667969 L 172.855469 50.035156 L 171.058594 52.441406 L 172.8125 53.929688 L 174.914062 55.808594 L 176.449219 53.667969 M 177.457031 59.703125 L 174.785156 57.078125 L 171.410156 60.316406 L 172.898438 61.84375 L 173.46875 62.457031 L 175.570312 61.015625 L 177.457031 59.703125 M 176.183594 65.476562 C 177.585938 64.339844 178.902344 63.289062 180.128906 62.328125 L 179.644531 61.890625 L 178.023438 60.226562 L 174.171875 63.246094 L 176.183594 65.476562 M 173.644531 63.59375 L 170.667969 65.738281 L 172.550781 67.488281 L 173.074219 67.96875 C 173.980469 67.210938 174.871094 66.496094 175.746094 65.824219 L 173.644531 63.59375 M 172.242188 68.625 L 171.234375 67.75 L 169.703125 66.351562 C 168.710938 66.933594 168.023438 67.226562 167.644531 67.226562 L 167.601562 67.226562 L 167.773438 68.363281 L 167.90625 69.457031 C 168.34375 69.628906 168.914062 70.066406 169.613281 70.769531 L 172.242188 68.625 M 170.140625 71.335938 L 171.980469 73.523438 L 172.8125 74.574219 L 176.273438 72.5625 L 172.898438 69.238281 L 170.140625 71.335938 M 177.0625 72.082031 L 179.425781 70.503906 L 177.585938 68.230469 L 176.359375 66.570312 L 173.6875 68.582031 L 177.0625 72.082031 M 167.46875 66.4375 L 168.78125 65.5625 L 167.117188 64.03125 L 167.46875 66.4375 M 168.082031 70.941406 L 168.125 71.90625 L 168.652344 71.511719 L 168.082031 70.941406 M 168.214844 80.523438 L 168.5625 83.363281 C 168.941406 83.042969 169.804688 82.589844 171.148438 82.007812 L 168.257812 78.464844 L 168.214844 80.523438 M 168.257812 76.980469 L 171.980469 75.011719 L 169.175781 72.082031 L 168.167969 72.824219 L 168.257812 76.453125 L 168.257812 76.980469 M 168.519531 77.546875 L 171.980469 81.660156 L 172.59375 81.394531 C 173.703125 80.929688 174.726562 80.507812 175.660156 80.128906 L 172.679688 75.839844 C 170.667969 76.980469 169.308594 77.546875 168.605469 77.546875 L 168.519531 77.546875 M 173.25 83.234375 L 175.835938 86.03125 L 176.054688 85.902344 L 179.472656 84.328125 L 177.0625 81.878906 L 176.011719 80.566406 L 172.375 82.183594 L 173.25 83.234375 M 171.585938 82.535156 C 170.007812 83.292969 169.046875 83.84375 168.695312 84.195312 L 168.5625 84.152344 L 168.652344 88.132812 L 169.441406 88.832031 L 174.957031 86.382812 L 172.066406 83.101562 L 171.585938 82.535156 M 176.753906 79.648438 L 180.171875 77.984375 L 180.523438 77.808594 L 178.550781 75.230469 L 176.886719 73.21875 L 173.425781 75.359375 L 176.753906 79.648438 M 170.273438 89.574219 L 174.652344 93.511719 L 179.339844 90.582031 L 178.15625 89.617188 L 175.746094 87.214844 C 173.351562 88.351562 171.527344 89.136719 170.273438 89.574219 M 168.605469 93.03125 L 168.5625 95.21875 L 169.441406 95.742188 L 172.8125 94.386719 L 173.207031 94.210938 C 171.132812 92.433594 169.671875 91.019531 168.828125 89.96875 L 168.652344 89.96875 L 168.605469 93.03125 M 167.996094 103.265625 L 168.386719 103.394531 C 169.5 102.871094 171.335938 102.054688 173.90625 100.945312 L 173.25 100.378906 L 169.132812 96.617188 L 169.046875 96.617188 C 168.839844 96.617188 168.664062 96.558594 168.519531 96.441406 C 168.375 98.921875 168.082031 101.222656 167.644531 103.351562 L 167.996094 103.265625 M 167.382812 104.445312 L 167.207031 105.144531 C 166.269531 108.675781 165.804688 110.917969 165.804688 111.882812 L 165.847656 112.320312 L 168.125 111.402344 C 170.550781 110.351562 172.214844 109.402344 173.121094 108.558594 L 173.6875 108.121094 L 172.507812 107.289062 L 168.34375 104.402344 L 167.644531 104.488281 L 167.382812 104.445312 M 175.222656 100.378906 L 178.8125 98.804688 L 173.953125 94.867188 C 172.460938 95.597656 171.25 96.105469 170.316406 96.398438 L 175.222656 100.378906 M 169.527344 104.007812 L 174.871094 107.507812 C 175.601562 107.1875 176.519531 106.882812 177.632812 106.589844 C 178.390625 106.386719 179.105469 105.949219 179.777344 105.277344 L 174.828125 101.734375 C 172.550781 102.8125 170.78125 103.570312 169.527344 104.007812 M 189.632812 64.820312 L 189.632812 63.902344 L 188.625 64.820312 L 189.675781 66.21875 L 189.632812 64.820312 M 187.707031 65.5625 L 185.691406 67.136719 C 187.269531 68.945312 188.421875 70.433594 189.152344 71.597656 L 189.675781 71.25 L 189.675781 68.230469 C 189.179688 67.792969 188.582031 67.007812 187.882812 65.871094 L 187.707031 65.5625 M 180.917969 63.203125 L 179.777344 63.945312 L 176.84375 66.175781 L 178.417969 67.882812 L 180.347656 69.804688 L 184.070312 66.832031 L 180.917969 63.203125 M 184.859375 66.21875 L 187.003906 64.46875 L 185.339844 61.976562 L 184.027344 61.015625 L 181.660156 62.675781 L 184.859375 66.21875 M 181.003906 70.417969 L 184.550781 73.785156 L 185.691406 74.878906 L 186.214844 74.574219 L 188.054688 72.691406 L 188.273438 72.472656 L 184.769531 67.792969 L 181.003906 70.417969 M 184.289062 75.449219 L 179.996094 71.117188 L 177.632812 72.691406 L 179.425781 74.878906 L 181.355469 77.328125 L 184.464844 75.578125 L 184.289062 75.449219 M 181.089844 78.464844 L 177.105469 80.085938 L 178.199219 81.484375 L 180.390625 83.890625 L 184.15625 81.921875 L 181.089844 78.464844 M 185.035156 81.484375 L 188.625 79.382812 C 187.835938 78.742188 186.625 77.648438 184.988281 76.105469 L 181.878906 77.984375 L 185.035156 81.484375 M 188.933594 73.390625 L 186.171875 75.316406 C 187.488281 76.65625 188.566406 77.851562 189.414062 78.902344 L 189.675781 78.726562 L 189.632812 78.203125 L 189.675781 74.484375 L 188.933594 73.390625 M 189.546875 79.996094 L 189.414062 79.953125 L 185.648438 82.097656 L 188.667969 84.9375 L 189.765625 84.328125 L 189.722656 79.953125 L 189.546875 79.996094 M 189.371094 85.550781 L 189.851562 85.988281 L 189.808594 85.289062 L 189.371094 85.550781 M 188.363281 86.164062 L 186.042969 87.34375 L 184.816406 88 L 190.507812 92.503906 L 190.335938 90.929688 C 190.335938 90.699219 190.421875 90.492188 190.597656 90.320312 L 189.984375 87.167969 C 189.632812 87.113281 189.09375 86.777344 188.363281 86.164062 M 190.726562 93.644531 L 187.660156 95.261719 L 191.648438 98.234375 L 192.175781 97.972656 L 191.167969 94.953125 L 190.773438 93.644531 L 190.726562 93.644531 M 180.171875 89.882812 L 180.304688 89.75 L 183.371094 88 L 180.171875 84.984375 L 176.625 86.820312 L 179.339844 89.226562 L 180.171875 89.882812 M 183.9375 88.480469 C 182.390625 89.269531 181.367188 89.910156 180.871094 90.40625 L 186.917969 94.738281 C 188.144531 94.09375 189.09375 93.613281 189.765625 93.292969 C 188.714844 92.621094 186.902344 91.136719 184.332031 88.832031 L 183.9375 88.480469 M 184.246094 87.476562 L 187.617188 85.550781 L 184.726562 82.578125 L 181.046875 84.546875 L 184.246094 87.476562 M 185.035156 101.867188 L 190.597656 98.804688 L 187.660156 96.75 L 186.480469 95.875 L 180.652344 98.890625 L 185.035156 101.867188 M 180.257812 98.148438 L 185.734375 95.347656 L 180.039062 91.148438 L 175.308594 94.125 L 179.953125 98.277344 L 180.257812 98.148438 M 180.390625 104.535156 L 183.808594 102.566406 C 182.492188 101.632812 181.089844 100.582031 179.601562 99.417969 C 178.347656 100.027344 177.191406 100.597656 176.140625 101.121094 L 180.304688 104.664062 L 180.390625 104.535156 M 191.691406 99.546875 C 190.496094 100.304688 188.65625 101.3125 186.171875 102.566406 C 188.304688 103.878906 190.859375 105.363281 193.839844 107.027344 L 194.363281 106.765625 L 194.539062 106.808594 C 194.128906 104.59375 193.621094 102.476562 193.007812 100.464844 L 191.691406 99.546875 M 194.625 108.339844 L 194.058594 108.296875 C 193.296875 108.878906 192 109.5625 190.160156 110.351562 L 188.582031 110.964844 C 190.304688 112.160156 192.277344 113.179688 194.496094 114.023438 L 195.371094 113.542969 L 194.800781 108.339844 L 194.625 108.339844 M 194.847656 115.160156 L 190.992188 117.085938 C 192.21875 117.554688 193.429688 117.902344 194.625 118.136719 L 195.503906 117.609375 L 195.589844 117.699219 L 195.503906 115.160156 L 194.847656 115.160156 M 192.347656 107.769531 C 190.480469 107.011719 187.96875 105.511719 184.816406 103.265625 L 181.089844 105.058594 L 180.960938 105.191406 L 187.488281 110.175781 L 192.347656 107.769531 M 187.660156 111.3125 L 183.195312 113.148438 L 186.960938 115.335938 L 189.414062 116.472656 L 193.179688 114.679688 C 191.722656 114.097656 189.882812 112.976562 187.660156 111.3125 M 180.304688 105.628906 L 175.878906 108.207031 L 180.960938 111.792969 L 182.316406 112.625 C 183.371094 112.128906 184.816406 111.445312 186.65625 110.570312 L 180.304688 105.628906 M 179.644531 114.855469 C 181.953125 115.585938 184.40625 116.488281 187.003906 117.566406 L 188.144531 117.042969 L 186.214844 116.035156 L 182.230469 113.632812 L 179.644531 114.855469 M 181.355469 113.0625 L 179.910156 112.1875 L 174.738281 108.820312 C 174.066406 109.167969 173.351562 109.550781 172.59375 109.957031 L 167.6875 112.40625 C 170.753906 112.582031 174.230469 113.238281 178.113281 114.375 L 181.265625 113.105469 L 181.355469 113.0625 M 185.515625 118.222656 L 182.710938 117.261719 L 178.023438 115.644531 C 172.273438 118.355469 168.839844 119.710938 167.730469 119.710938 L 166.8125 119.625 L 166.855469 119.929688 L 167.292969 119.886719 L 179.691406 120.671875 L 185.515625 118.222656 M 181.878906 120.980469 L 184.332031 121.371094 L 187.269531 121.808594 L 190.640625 120.191406 L 187.136719 118.835938 L 184.421875 119.929688 L 181.878906 120.980469 M 185.472656 122.640625 L 179.910156 121.898438 L 179.601562 121.898438 L 173.03125 124.566406 L 177.5 125.835938 L 177.675781 125.878906 C 179.660156 125.03125 181.820312 124.15625 184.15625 123.253906 L 185.472656 122.640625 M 195.328125 119.359375 L 194.890625 119.359375 L 193.269531 120.324219 L 195.546875 121.417969 L 195.589844 119.359375 L 195.328125 119.359375 M 193.007812 119.011719 L 189.589844 117.742188 L 188.539062 118.222656 L 191.734375 119.625 L 193.007812 119.011719 M 190.992188 122.160156 C 193.238281 122.453125 194.683594 122.816406 195.328125 123.253906 L 195.503906 121.636719 L 195.066406 121.984375 L 192.304688 120.847656 L 189.894531 122.074219 L 190.992188 122.160156 M 195.109375 124.609375 C 193.824219 125.511719 191.515625 126.855469 188.1875 128.632812 L 191.734375 129.375 L 194.582031 127.453125 L 194.890625 125.617188 L 195.109375 124.609375 M 187.96875 122.992188 L 179.910156 126.535156 L 186.742188 128.285156 L 194.625 123.867188 L 187.96875 122.992188 M 194.453125 128.503906 L 192.960938 129.640625 L 194.320312 129.859375 L 194.453125 128.503906 M 194.011719 130.734375 L 191.867188 130.425781 L 187.792969 133.226562 L 192.4375 134.363281 L 194.1875 133.050781 L 194.277344 130.734375 L 194.011719 130.734375 M 187.003906 129.246094 L 185.953125 129.769531 L 181.96875 131.78125 L 186.480469 132.875 L 190.554688 130.164062 L 187.003906 129.246094 M 194.625 135.324219 L 194.625 135.414062 L 194.625 135.324219 M 193.75 135.457031 L 193.445312 135.457031 L 191.515625 136.769531 L 188.496094 138.519531 L 192.960938 139.785156 L 193.839844 139.175781 L 194.277344 136.855469 L 194.234375 135.457031 L 193.75 135.457031 M 178.683594 127.058594 L 172.679688 129.507812 L 180.085938 131.300781 L 185.601562 128.851562 L 179.03125 127.101562 L 178.683594 127.058594 M 185.253906 133.707031 L 180.523438 132.4375 C 178.683594 133.253906 177.074219 133.910156 175.703125 134.40625 L 180.171875 136.023438 L 184.640625 134.101562 L 185.253906 133.707031 M 185.253906 134.84375 C 184.492188 135.339844 183.339844 135.953125 181.792969 136.679688 L 182.40625 136.898438 L 187.136719 138.167969 L 191.386719 135.148438 L 186.523438 134.058594 L 185.253906 134.84375 M 186.042969 138.957031 L 180.523438 137.292969 L 178.023438 138.386719 L 177.0625 138.824219 L 181.835938 140.96875 L 185.558594 139.261719 L 186.042969 138.957031 M 183.195312 141.578125 L 186.390625 143.023438 L 189.765625 141.449219 L 191.78125 140.441406 L 187.222656 139.304688 L 186.4375 139.742188 L 183.195312 141.578125 M 180.304688 141.578125 L 175.703125 139.347656 C 173.804688 140.136719 172.726562 140.53125 172.460938 140.53125 L 172.199219 140.53125 L 172.507812 142.804688 C 172.796875 142.804688 173.484375 143.097656 174.566406 143.679688 L 178.417969 142.28125 L 180.304688 141.578125 M 184.769531 143.855469 L 181.75 142.324219 C 179.617188 143.371094 177.734375 144.101562 176.097656 144.511719 L 179.03125 146.304688 L 184.375 144.027344 L 184.769531 143.855469 M 180.304688 147.089844 L 182.710938 148.621094 L 185.296875 149.800781 L 185.558594 149.671875 L 191.386719 146.566406 L 187.488281 145.035156 L 186.214844 144.511719 L 180.304688 147.089844 M 193.398438 140.703125 C 192.378906 141.464844 190.554688 142.46875 187.925781 143.722656 L 192.65625 145.867188 L 192.960938 145.691406 L 193.574219 140.703125 L 193.398438 140.703125 M 192.613281 146.960938 L 186.390625 150.238281 L 188.757812 151.203125 L 189.546875 151.550781 C 190.773438 150.96875 191.675781 150.675781 192.261719 150.675781 C 192.378906 150.675781 192.496094 150.722656 192.613281 150.808594 L 192.613281 150.546875 L 192.832031 147.003906 L 192.613281 146.960938 M 165.890625 113.148438 L 166.722656 119.097656 C 167.542969 118.691406 170.8125 117.335938 176.535156 115.03125 C 174.988281 114.390625 171.5 113.746094 166.066406 113.105469 L 165.890625 113.148438 M 167.425781 123.253906 L 167.730469 123.035156 L 171.324219 124.085938 C 172.726562 123.441406 174.609375 122.65625 176.972656 121.722656 C 171.570312 121.371094 168.226562 120.964844 166.941406 120.496094 L 167.207031 122.246094 L 167.425781 123.253906 M 168.476562 125.964844 L 168.433594 125.703125 L 170.097656 124.652344 L 167.554688 123.691406 L 168.957031 127.800781 L 169.484375 129.15625 L 170.621094 128.984375 L 170.839844 129.027344 L 172.285156 128.414062 C 173.191406 127.890625 174.519531 127.25 176.273438 126.488281 L 171.585938 125.132812 L 168.957031 126.183594 L 168.476562 125.964844 M 170.007812 130.644531 L 170.535156 132.613281 L 170.535156 132.746094 L 170.710938 133.050781 L 171.234375 133.007812 L 173.777344 133.707031 L 178.59375 131.914062 L 171.628906 129.902344 L 171.324219 130.03125 L 171.191406 129.988281 L 170.007812 130.644531 M 169.527344 129.332031 L 169.660156 129.683594 C 169.746094 129.59375 169.863281 129.523438 170.007812 129.464844 L 169.527344 129.332031 M 172.113281 134.320312 L 171.058594 133.96875 L 171.28125 134.667969 C 171.453125 134.582031 171.730469 134.464844 172.113281 134.320312 M 171.9375 136.507812 L 175.527344 138.125 L 178.726562 136.679688 L 173.863281 134.976562 L 171.671875 135.28125 L 171.410156 135.28125 L 171.628906 136.550781 L 171.9375 136.507812 M 172.113281 139.785156 L 174.433594 138.605469 L 173.339844 137.992188 L 171.847656 137.730469 L 171.980469 138.867188 L 172.113281 139.785156 M 172.636719 143.898438 L 172.679688 144.421875 L 173.121094 144.246094 L 172.636719 143.898438 M 172.726562 144.730469 L 173.292969 148.359375 C 173.410156 148.273438 173.511719 148.226562 173.601562 148.226562 L 174.347656 148.664062 C 174.84375 148.285156 175.921875 147.71875 177.585938 146.960938 L 175.703125 145.867188 L 174.082031 144.859375 L 173.25 144.902344 L 172.8125 144.816406 L 172.726562 144.730469 M 177.457031 152.515625 C 175.410156 151.027344 174.097656 149.960938 173.511719 149.320312 L 174.519531 153.300781 L 177.457031 152.515625 M 175.441406 158.550781 L 175.570312 161.523438 L 175.617188 161.523438 C 176.054688 161.523438 176.796875 161.859375 177.851562 162.53125 L 180.917969 161.261719 L 178.769531 159.730469 L 176.929688 158.375 L 175.441406 158.550781 M 175.351562 157.761719 L 175.878906 157.542969 L 175.265625 157.019531 L 175.351562 157.761719 M 177.105469 157.0625 L 181.574219 155.402344 L 178.070312 152.953125 L 175.003906 153.828125 L 174.609375 153.78125 L 175.046875 155.75 L 177.105469 157.0625 M 176.667969 163.796875 L 175.703125 164.671875 L 175.617188 164.628906 L 175.617188 167.210938 C 176.257812 166.832031 177.746094 166.261719 180.085938 165.503906 L 177.28125 163.625 L 176.84375 163.578125 L 176.667969 163.796875 M 175.617188 163.140625 L 175.964844 162.792969 L 175.617188 162.574219 L 175.617188 163.140625 M 175.703125 167.996094 L 175.617188 167.996094 L 175.570312 171.976562 L 176.273438 172.414062 L 181.441406 170.710938 L 175.878906 167.953125 L 175.703125 167.996094 M 174.519531 177.96875 L 174.390625 178.40625 L 173.90625 180.769531 L 177.324219 179.71875 L 174.519531 177.96875 M 174.652344 177.3125 L 174.738281 177.269531 L 174.652344 177.269531 L 174.652344 177.3125 M 174.738281 177.269531 L 178.417969 179.414062 L 183.28125 178.320312 L 180.390625 176.570312 L 175.179688 177.269531 L 174.738281 177.269531 M 173.6875 182.910156 L 173.6875 186.191406 C 173.980469 185.902344 174.59375 185.636719 175.527344 185.40625 L 177.761719 184.925781 L 173.734375 182.300781 L 173.6875 182.910156 M 173.6875 187.375 L 177.410156 189.824219 L 182.976562 188.074219 L 181.792969 187.375 L 179.25 185.84375 L 179.207031 185.84375 L 179.03125 185.796875 L 178.199219 185.972656 C 176.039062 186.410156 174.625 186.777344 173.953125 187.066406 L 173.6875 186.9375 L 173.6875 187.375 M 175.878906 190.304688 L 173.6875 188.640625 L 173.6875 191.003906 L 175.878906 190.304688 M 192.613281 151.160156 L 191.035156 152.164062 L 192.566406 152.90625 L 192.613281 151.160156 M 192.523438 153.828125 L 190.027344 152.734375 L 184.902344 155.3125 L 183.761719 155.839844 L 188.363281 158.199219 L 192.523438 156.582031 L 192.523438 153.828125 M 189.546875 158.855469 C 190.65625 159.4375 191.632812 160.007812 192.480469 160.5625 L 192.480469 157.542969 L 189.546875 158.855469 M 184.550781 154.261719 C 186.070312 153.332031 187.398438 152.585938 188.539062 152.03125 L 185.472656 150.722656 L 179.425781 152.515625 L 182.582031 155.007812 L 184.550781 154.261719 M 184.375 150.238281 L 181.308594 148.925781 L 178.859375 147.703125 L 175.132812 149.191406 L 178.945312 152.121094 L 184.375 150.238281 M 178.375 157.980469 L 182.054688 160.78125 L 182.625 160.519531 L 186.917969 158.769531 L 182.886719 156.230469 L 178.375 157.980469 M 184.550781 162.660156 L 186.214844 163.667969 C 188.992188 162.878906 191.078125 162.414062 192.480469 162.269531 L 192.480469 161.917969 L 188.054688 159.46875 L 186.085938 160.300781 L 183.105469 161.566406 L 184.550781 162.660156 M 183.457031 162.96875 L 182.011719 162.003906 L 178.859375 163.1875 L 181.355469 165.109375 L 182.886719 164.628906 L 185.035156 164.015625 L 183.457031 162.96875 M 186.699219 168.960938 L 190.949219 167.605469 L 186.347656 164.847656 L 183.28125 165.417969 L 182.273438 165.855469 L 184.597656 167.777344 L 186.699219 168.960938 M 184.550781 168.566406 L 181.179688 166.292969 L 177.105469 167.648438 L 182.316406 170.402344 L 185.648438 169.308594 L 184.550781 168.566406 M 189.808594 165.679688 L 192.21875 167.167969 L 192.347656 167.121094 L 192.4375 167.167969 L 192.4375 166.117188 L 192.480469 163.535156 L 189.414062 164.28125 L 187.835938 164.585938 L 189.808594 165.679688 M 187.882812 169.703125 L 191.339844 172.019531 L 192.523438 171.671875 L 192.480469 168.523438 L 192.175781 168.347656 C 191.648438 168.667969 190.773438 168.988281 189.546875 169.308594 L 187.882812 169.703125 M 192.523438 172.632812 L 192.304688 172.765625 L 192.523438 172.984375 L 192.523438 172.632812 M 192.523438 173.421875 L 192.261719 173.421875 L 191.5625 173.113281 L 189.109375 174.03125 C 190.714844 174.9375 191.839844 175.621094 192.480469 176.089844 L 192.523438 173.859375 L 192.523438 173.421875 M 187.835938 174.46875 L 185.996094 175.039062 L 182.230469 176.132812 L 185.164062 177.925781 L 191.472656 176.65625 L 188.1875 174.6875 L 187.835938 174.46875 M 190.160156 172.328125 L 186.65625 170.007812 L 184.289062 170.578125 L 183.457031 170.972656 L 187.3125 173.070312 L 190.160156 172.328125 M 189.5 180.636719 C 190.875 180.140625 191.765625 179.894531 192.175781 179.894531 L 192.21875 179.894531 L 192.394531 177.664062 C 191.371094 178.101562 189.648438 178.609375 187.222656 179.195312 L 189.5 180.636719 M 184.203125 172.066406 L 182.710938 171.320312 C 180.550781 172.253906 178.726562 172.824219 177.238281 173.027344 L 180.304688 174.90625 L 186.214844 173.378906 L 184.203125 172.066406 M 180.476562 180.636719 L 182.535156 181.820312 L 184.550781 182.605469 L 184.859375 182.476562 L 188.320312 181.074219 L 185.515625 179.589844 L 180.476562 180.636719 M 185.164062 183.65625 L 180.917969 185.230469 L 183.195312 186.847656 L 184.246094 187.679688 L 189.851562 185.929688 L 188.273438 185.144531 C 187.105469 184.414062 186.421875 184.019531 186.214844 183.960938 L 185.164062 183.65625 M 179.207031 180.855469 L 174.433594 181.730469 C 175.105469 181.90625 176.40625 182.546875 178.332031 183.65625 L 179.777344 184.488281 L 179.910156 184.441406 L 180.257812 184.488281 L 183.457031 183.085938 L 181.660156 182.34375 L 179.207031 180.855469 M 184.375 189.253906 C 183.472656 189.777344 181.660156 190.316406 178.945312 190.871094 L 180.257812 191.746094 L 183.894531 194.066406 L 189.808594 191.703125 C 188.699219 191.265625 187.003906 190.390625 184.726562 189.078125 L 184.375 189.253906 M 192 181.164062 L 190.949219 181.554688 L 191.867188 182.125 L 191.910156 181.601562 L 192 181.164062 M 191.824219 182.867188 L 189.941406 181.90625 L 186.171875 183.261719 L 187.441406 183.785156 C 189.136719 184.457031 190.347656 185.039062 191.078125 185.535156 L 191.605469 185.40625 L 191.824219 182.867188 M 189.632812 187.15625 L 185.734375 188.640625 C 187.136719 189.457031 188.933594 190.347656 191.121094 191.308594 L 191.515625 186.453125 L 189.632812 187.15625 M 58.574219 23.488281 L 58.222656 23.488281 C 58.074219 24.070312 56.835938 25.746094 54.5 28.515625 L 58.132812 29.347656 L 60.585938 26.023438 L 60.410156 24.753906 L 59.230469 23.3125 L 59.183594 23.398438 L 58.574219 23.488281 M 53.929688 22.699219 L 52.265625 22.351562 L 48.761719 27.160156 L 53.535156 28.253906 C 54.761719 26.941406 56.0625 25.308594 57.433594 23.355469 L 53.929688 22.699219 M 57.828125 21.300781 L 55.417969 17.582031 L 52.964844 21.34375 C 54.835938 21.957031 56.734375 22.335938 58.660156 22.480469 L 57.828125 21.300781 M 54.894531 35.121094 L 55.726562 34.554688 L 60.191406 30.441406 L 59.011719 30.484375 L 58.179688 30.441406 L 54.894531 35.121094 M 60.71875 29.960938 L 61.464844 29.304688 C 61.171875 28.894531 60.921875 28.109375 60.71875 26.941406 L 58.835938 29.523438 L 60.71875 29.960938 M 49.285156 21.476562 C 48.789062 21.066406 48.175781 20.804688 47.445312 20.6875 L 43.460938 25.9375 L 47.796875 26.941406 L 49.15625 24.800781 L 50.996094 22.042969 L 49.285156 21.476562 M 46.175781 20.601562 L 43.679688 20.949219 L 39.429688 21.34375 L 37.984375 23.398438 L 37.238281 24.492188 L 42.234375 25.628906 L 46.089844 20.6875 L 46.175781 20.601562 M 38.335938 21.082031 L 37.898438 20.863281 L 35.003906 20.46875 L 33.035156 19.988281 L 31.152344 23.050781 L 36.40625 24.273438 L 37.328125 22.699219 L 38.335938 21.082031 M 42.757812 26.855469 L 40.304688 29.871094 L 39.605469 30.878906 L 40.394531 31.097656 C 41.472656 31.417969 42.730469 31.871094 44.160156 32.453125 L 47.140625 27.949219 L 43.898438 27.117188 L 42.757812 26.855469 M 36.671875 25.28125 L 34.042969 29.21875 L 38.773438 30.617188 L 39.648438 29.21875 L 41.578125 26.550781 L 36.671875 25.28125 M 43.285156 33.589844 L 38.859375 31.929688 C 37.984375 33.269531 36.960938 34.933594 35.792969 36.914062 L 39.472656 38.578125 L 43.285156 33.589844 M 40.132812 38.882812 L 43.195312 40.238281 C 44.597656 38.460938 45.753906 37.0625 46.65625 36.039062 L 47.402344 35.210938 L 43.855469 33.808594 L 40.132812 38.882812 M 37.808594 31.535156 L 33.296875 30.355469 C 32.277344 31.929688 31.414062 33.359375 30.714844 34.640625 L 31.328125 34.902344 L 34.742188 36.433594 L 38.070312 31.621094 L 37.808594 31.535156 M 52.527344 29.261719 L 48.015625 28.167969 L 46.21875 30.617188 L 44.730469 32.671875 L 48.234375 34.203125 L 52.441406 29.347656 L 52.527344 29.261719 M 53.226562 29.960938 L 49.066406 34.597656 L 52.878906 36.476562 L 53.710938 35.910156 L 53.667969 35.777344 C 53.667969 35.515625 54.921875 33.691406 57.433594 30.308594 L 53.621094 29.523438 L 53.226562 29.960938 M 47.09375 36.828125 L 44.203125 40.71875 L 45.738281 41.417969 L 47.007812 40.457031 L 52 37.046875 L 48.234375 35.558594 L 47.09375 36.828125 M 44.730469 42.25 L 43.328125 41.8125 L 41.136719 44.699219 L 41.621094 44.917969 C 42.378906 44.160156 43.417969 43.269531 44.730469 42.25 M 42.277344 41.417969 L 39.296875 40.019531 L 37.195312 42.863281 L 40.085938 44.261719 L 40.65625 43.476562 L 42.277344 41.417969 M 36.453125 43.867188 L 34.699219 46.273438 L 37.722656 47.457031 L 39.296875 45.269531 L 36.453125 43.867188 M 40.304688 46.363281 L 40.699219 45.835938 L 40.394531 45.707031 L 38.730469 47.894531 L 38.949219 47.980469 L 40.304688 46.363281 M 37.984375 48.8125 L 37.722656 49.160156 L 38.070312 48.8125 L 37.984375 48.8125 M 36.671875 49.816406 L 36.496094 49.425781 L 37.019531 48.460938 L 35.269531 47.675781 L 34.042969 47.148438 L 32.859375 48.769531 L 35.09375 51.21875 L 36.84375 49.859375 L 36.671875 49.816406 M 37.109375 59.613281 L 35.179688 62.371094 L 40.789062 63.550781 L 40.917969 63.464844 L 39.5625 60.226562 L 37.109375 59.613281 M 37.722656 58.652344 C 38.246094 58.855469 38.730469 59.074219 39.167969 59.308594 L 38.292969 57.648438 L 37.722656 58.652344 M 37.808594 56.859375 C 36.84375 55.253906 35.765625 53.753906 34.566406 52.355469 L 34.261719 51.960938 L 34.171875 51.875 L 33.824219 51.828125 L 34.042969 52.3125 L 31.019531 56.859375 L 36.800781 58.347656 L 37.808594 56.859375 M 38.640625 39.671875 L 35.269531 37.878906 L 34.960938 38.359375 L 33.472656 40.894531 L 36.496094 42.511719 L 38.640625 39.671875 M 28.171875 19.988281 L 27.996094 19.855469 L 25.761719 21.914062 L 26.246094 21.914062 L 30.273438 22.875 L 32.113281 19.902344 L 30.40625 19.988281 C 29.382812 20.222656 28.640625 20.222656 28.171875 19.988281 M 28.566406 27.6875 L 33.339844 29.042969 L 35.925781 25.105469 L 30.714844 23.792969 L 28.566406 27.6875 M 29.878906 23.574219 L 25.195312 22.4375 L 21.644531 25.9375 L 22.390625 26.113281 L 23.703125 24.535156 L 24.140625 24.625 L 24.230469 24.929688 L 23.136719 26.285156 L 27.734375 27.421875 L 29.878906 23.574219 M 20.855469 26.769531 L 17.570312 30.136719 L 17.835938 30.136719 L 19.585938 30.441406 L 21.691406 27.03125 L 20.855469 26.769531 M 24.449219 36.828125 L 27.820312 38.140625 L 28.390625 37.003906 L 29.398438 35.121094 L 25.71875 33.632812 L 24.449219 36.785156 L 24.449219 36.828125 M 19.628906 31.535156 C 18.929688 32.730469 18.300781 33.96875 17.746094 35.253906 C 19.617188 35.484375 21.558594 35.921875 23.574219 36.566406 L 23.703125 36.214844 L 24.886719 33.328125 C 23.136719 32.628906 21.382812 32.03125 19.628906 31.535156 M 25.324219 32.367188 L 27.121094 28.648438 L 22.390625 27.25 L 20.15625 30.574219 C 21.46875 30.921875 23.195312 31.519531 25.324219 32.367188 M 19.0625 31.359375 L 16.957031 30.792969 L 16.914062 30.835938 L 13.5 34.246094 L 13.542969 34.378906 L 13.5 35.035156 L 14.332031 35.035156 L 17.222656 35.210938 L 18.710938 32.058594 L 19.0625 31.359375 M 28.699219 38.53125 L 30.144531 39.1875 L 32.597656 40.457031 L 32.773438 39.933594 C 33.035156 38.96875 33.355469 38.242188 33.734375 37.746094 L 34.128906 37.265625 L 31.675781 36.039062 L 30.230469 35.472656 L 29.09375 37.703125 L 28.699219 38.53125 M 32.554688 30.136719 L 27.953125 28.867188 L 26.113281 32.714844 C 27.253906 33.152344 28.507812 33.679688 29.878906 34.289062 L 32.554688 30.136719 M 24.011719 37.878906 L 21.601562 42.382812 L 25.019531 43.082031 L 27.253906 39.1875 L 24.011719 37.878906 M 11.527344 36.214844 L 9.25 38.402344 C 8.199219 39.539062 7.335938 40.648438 6.664062 41.726562 L 9.730469 41.683594 L 10.914062 37.660156 C 11.089844 37.132812 11.292969 36.652344 11.527344 36.214844 M 13.367188 35.558594 C 13.015625 37.015625 12.125 39.058594 10.695312 41.683594 L 13.980469 41.683594 L 14.898438 39.976562 L 16.738281 36.128906 L 13.367188 35.558594 M 15.25 41.726562 L 20.683594 42.25 L 23.179688 37.570312 L 17.308594 36.257812 L 15.644531 40.589844 L 15.25 41.726562 M 9.863281 43.125 L 7.628906 46.800781 L 11.484375 46.753906 L 13.671875 42.292969 C 12.5625 42.265625 11.4375 42.28125 10.300781 42.339844 L 9.863281 43.125 M 13.542969 46.753906 L 17.878906 46.753906 L 20.332031 42.90625 L 14.988281 42.339844 C 14.375 43.796875 13.601562 45.269531 12.664062 46.753906 L 13.542969 46.753906 M 11.089844 47.585938 L 7.191406 47.5 L 4.78125 50.253906 L 5.480469 52.09375 L 5.4375 52.574219 L 5.394531 52.660156 L 6.226562 54.628906 L 6.621094 54.628906 C 6.914062 54.074219 7.367188 53.316406 7.980469 52.355469 C 5.875 52.324219 5.101562 52.164062 5.65625 51.875 L 8.546875 51.480469 L 10.957031 47.847656 L 11.089844 47.585938 M 11.570312 48.460938 L 9.644531 51.347656 L 15.339844 50.5625 L 17.265625 47.71875 L 12.140625 47.585938 L 11.570312 48.460938 M 16.476562 50.429688 L 21.46875 49.730469 L 22.390625 47.804688 L 18.230469 47.71875 L 16.957031 49.640625 L 16.476562 50.429688 M 4.429688 48.023438 L 4.648438 49.378906 L 6.269531 47.457031 L 4.472656 47.410156 L 4.429688 48.023438 M 6.796875 46.800781 C 8.050781 45.167969 8.941406 43.695312 9.46875 42.382812 L 6.050781 42.730469 C 5.234375 44.132812 4.722656 45.488281 4.519531 46.800781 L 6.796875 46.800781 M 7.585938 54.671875 L 12.402344 54.804688 L 14.285156 52.046875 L 14.726562 51.4375 L 14.332031 51.523438 L 8.988281 52.355469 L 7.585938 54.671875 M 7.890625 56.859375 L 6.972656 56.378906 L 8.199219 59.308594 L 9.074219 59.175781 L 9.292969 59.175781 L 11.832031 55.589844 C 10.082031 55.300781 8.988281 55.578125 8.546875 56.421875 C 8.375 56.773438 8.152344 56.917969 7.890625 56.859375 M 8.285156 59.527344 L 8.59375 60.183594 L 8.988281 59.613281 L 8.285156 59.527344 M 12.140625 56.070312 L 10.738281 59.222656 L 15.6875 59.613281 L 18.097656 56.378906 L 17.660156 56.335938 L 13.234375 55.851562 L 12.492188 55.679688 L 12.140625 56.070312 M 16.785156 59.746094 L 20.289062 60.140625 L 22.523438 56.773438 L 19.0625 56.464844 L 17.265625 59.089844 L 16.785156 59.746094 M 14.855469 60.621094 L 10.386719 59.878906 L 9.207031 61.582031 L 10.125 63.59375 L 10.476562 63.375 L 12.140625 63.683594 L 14.417969 61.058594 L 14.855469 60.621094 M 13.191406 54.847656 L 18.796875 55.242188 C 19.617188 53.898438 20.273438 52.585938 20.769531 51.304688 L 21.03125 50.734375 L 15.953125 51.21875 L 13.191406 54.847656 M 32.859375 41.945312 L 30.886719 44.875 L 33.910156 45.96875 L 35.75 43.519531 L 35.355469 43.300781 L 32.859375 41.945312 M 32.070312 41.507812 L 29.222656 40.019531 L 28.128906 39.582031 L 26.027344 43.34375 L 26.683594 43.519531 L 29.925781 44.523438 L 30.1875 44.132812 L 31.765625 41.945312 L 32.070312 41.507812 M 28.523438 44.960938 L 27.777344 44.699219 L 29.265625 45.617188 L 29.441406 45.3125 L 28.523438 44.960938 M 29.660156 48.332031 L 28.652344 48.332031 L 27.996094 50.125 L 30.054688 50.34375 L 33.210938 50.824219 L 30.144531 48.066406 L 29.660156 48.332031 M 27.253906 48.066406 L 23.527344 47.804688 L 22.566406 49.773438 L 26.507812 49.992188 L 27.382812 48.15625 L 27.253906 48.066406 M 29.925781 46.101562 L 31.589844 47.542969 L 32.332031 48.285156 L 33.296875 46.84375 L 30.320312 45.617188 L 29.925781 46.101562 M 25.238281 44.699219 L 24.054688 46.84375 L 28.699219 46.972656 L 25.851562 45.136719 L 25.808594 44.875 C 25.808594 44.613281 26.15625 44.480469 26.859375 44.480469 L 27.207031 44.523438 L 25.632812 44.042969 L 25.238281 44.699219 M 24.625 43.78125 L 21.207031 43.039062 L 21.164062 43.082031 L 18.84375 46.753906 L 22.914062 46.800781 L 24.535156 43.914062 L 24.625 43.78125 M 24.84375 50.648438 L 22.171875 50.691406 L 21.601562 52.003906 C 21.339844 52.703125 20.742188 53.8125 19.804688 55.328125 L 23.222656 55.679688 L 26.113281 50.734375 L 24.84375 50.648438 M 24.929688 55.898438 L 29.835938 56.640625 L 33.515625 51.785156 L 27.558594 50.910156 L 24.625 55.851562 L 24.929688 55.898438 M 21.601562 60.316406 L 24.976562 60.753906 L 26.464844 60.96875 L 29.003906 57.691406 L 26.332031 57.296875 L 23.921875 56.945312 L 22.214844 59.394531 L 21.601562 60.316406 M 27.777344 61.1875 L 34.128906 62.195312 L 36.101562 59.351562 L 30.1875 57.953125 L 27.777344 61.1875 M 15.90625 60.796875 L 13.148438 63.855469 L 17.308594 64.558594 L 19.457031 61.363281 L 15.90625 60.796875 M 27.558594 72.429688 L 29.046875 72.648438 L 32.773438 73.21875 L 33.078125 72.824219 L 36.625 68.230469 L 31.371094 67.53125 L 30.625 68.492188 L 27.558594 72.429688 M 32.027344 66.699219 L 34.699219 66.960938 L 37.328125 67.3125 C 38.40625 65.941406 39.3125 64.921875 40.042969 64.25 L 34.304688 63.59375 L 32.027344 66.699219 M 30.230469 67.398438 L 23.660156 66.65625 L 20.070312 71.335938 L 26.375 72.253906 L 29.925781 67.75 L 30.230469 67.398438 M 33.210938 63.464844 L 26.769531 62.5 L 24.316406 65.738281 L 25.324219 65.914062 L 30.886719 66.570312 L 33.210938 63.464844 M 22.914062 65.519531 L 23.75 64.425781 L 25.414062 62.328125 L 20.726562 61.582031 L 18.492188 64.730469 L 22.914062 65.519531 M 22.171875 66.480469 L 17.660156 65.957031 L 14.199219 70.59375 L 18.667969 71.160156 L 22.171875 66.480469 M 25.0625 75.140625 L 23.921875 76.324219 L 26.070312 76.761719 L 29.660156 77.152344 L 32.332031 73.699219 L 29.09375 73.261719 L 27.035156 73.042969 L 25.0625 75.140625 M 24.625 74.703125 L 25.5 73.390625 L 25.851562 72.953125 L 19.410156 72.210938 L 17.132812 75.183594 L 17.570312 75.097656 L 23.222656 76.148438 L 24.625 74.703125 M 22.566406 81.046875 L 25.0625 81.089844 L 26.070312 80.214844 L 28.875 78.070312 L 23.003906 77.242188 L 20.8125 79.339844 L 22.566406 81.046875 M 24.535156 82.925781 L 27.820312 86.339844 L 28.875 86.121094 L 32.859375 83.015625 L 31.71875 82.882812 L 25.414062 82.140625 L 24.535156 82.925781 M 24.140625 81.964844 L 23.398438 81.832031 L 23.835938 82.269531 L 24.140625 81.964844 M 21.820312 77.023438 L 17.617188 76.058594 L 20.15625 78.683594 C 20.359375 78.1875 20.914062 77.636719 21.820312 77.023438 M 29.574219 78.160156 L 26.550781 81.132812 L 34.480469 81.703125 L 36.933594 79.601562 L 33.472656 78.640625 L 29.574219 78.160156 M 34.304688 77.898438 L 37.898438 78.726562 L 41.53125 75.183594 L 33.472656 73.875 L 30.449219 77.242188 L 34.304688 77.898438 M 11.175781 65.871094 C 11.996094 67.675781 12.738281 69.179688 13.410156 70.375 L 16.433594 65.78125 L 12.050781 64.949219 L 11.175781 65.871094 M 10.824219 65.082031 L 11.175781 64.6875 L 10.476562 64.382812 L 10.824219 65.082031 M 13.980469 71.425781 L 14.199219 71.816406 L 16.433594 74.75 C 16.636719 74.222656 17.175781 73.320312 18.054688 72.035156 L 13.980469 71.425781 M 28.390625 86.511719 L 27.910156 86.425781 L 28.128906 86.6875 L 28.390625 86.511719 M 28.652344 87.300781 C 29.734375 88.613281 30.566406 89.792969 31.152344 90.84375 C 31.910156 90.171875 33.167969 89.179688 34.917969 87.871094 L 29.441406 86.730469 L 28.652344 87.300781 M 31.71875 91.414062 L 31.5 91.585938 L 31.765625 92.242188 L 33.78125 94.648438 L 34.65625 94.519531 L 35.269531 94.605469 C 36.613281 94.082031 38.015625 93.367188 39.472656 92.460938 L 34.523438 92.066406 L 31.71875 91.414062 M 34.65625 95.566406 L 34.523438 95.566406 L 37.546875 99.242188 L 37.898438 99.242188 L 42.015625 96.75 L 34.875 95.566406 L 34.65625 95.566406 M 30.1875 86.207031 L 35.96875 87.082031 L 39.167969 84.675781 L 40.261719 83.890625 L 34.21875 83.144531 L 30.1875 86.207031 M 43.066406 68.800781 L 42.628906 68.976562 L 38.027344 68.40625 L 33.867188 73.390625 L 42.058594 74.617188 L 44.421875 71.90625 L 43.066406 68.800781 M 42.453125 67.3125 L 41.3125 64.46875 L 38.773438 67.488281 L 42.847656 68.320312 L 42.453125 67.3125 M 44.730469 80.566406 L 47.882812 78.289062 L 46.746094 76.105469 L 42.757812 75.402344 L 39.429688 79.121094 L 44.730469 80.566406 M 41.050781 80.785156 L 38.335938 79.996094 L 35.839844 81.921875 L 39.519531 82.621094 L 41.226562 83.191406 L 43.503906 81.484375 L 41.050781 80.785156 M 46.132812 75.011719 L 44.863281 72.78125 L 43.242188 74.835938 L 46.351562 75.359375 L 46.132812 75.011719 M 45.695312 80.828125 L 49.503906 81.921875 L 48.148438 78.902344 L 45.695312 80.828125 M 49.546875 82.621094 C 48.554688 82.621094 46.875 82.328125 44.511719 81.746094 L 42.234375 83.496094 L 47.753906 85.375 L 49.898438 83.320312 L 50.117188 83.410156 L 49.769531 82.578125 L 49.546875 82.621094 M 50.335938 83.890625 L 50.335938 83.933594 L 48.671875 85.726562 L 51.652344 86.730469 L 50.335938 83.890625 M 47.226562 93.25 L 44.160156 92.679688 L 41.226562 92.550781 L 37.414062 94.910156 L 43.636719 95.699219 L 46.261719 93.90625 L 47.226562 93.25 M 48.585938 93.511719 L 46.875 94.5625 L 45.210938 95.917969 L 49.855469 96.53125 L 52.132812 96.878906 L 55.285156 94.472656 L 49.15625 93.597656 L 48.585938 93.511719 M 52.964844 89.3125 L 52 87.476562 L 48.191406 86.207031 L 45.648438 88.746094 L 49.722656 89.488281 L 52 89.96875 L 52.964844 89.3125 M 50.46875 92.285156 C 52.453125 92.609375 54.089844 92.972656 55.375 93.378906 L 54.367188 91.632812 L 51.871094 91.28125 L 50.46875 92.285156 M 53.535156 90.320312 L 53.492188 90.230469 L 53.402344 90.101562 L 53.226562 90.230469 L 53.535156 90.320312 M 50.425781 91.019531 L 44.421875 89.882812 L 42.714844 91.367188 L 48.933594 92.066406 L 50.425781 91.019531 M 44.511719 88.570312 L 47.226562 85.902344 L 41.445312 84.109375 L 37.238281 87.300781 L 43.066406 88.308594 L 44.511719 88.570312 M 43.285156 89.664062 L 42.363281 89.445312 L 36.101562 88.132812 L 32.464844 90.886719 L 41.183594 91.28125 L 43.285156 89.664062 M 42.277344 104.183594 C 42.277344 103.921875 42.480469 103.789062 42.890625 103.789062 L 43.285156 103.832031 L 46.21875 101.472656 L 44.203125 100.992188 C 43.445312 100.613281 42.539062 100.394531 41.488281 100.335938 L 38.378906 100.246094 L 42.144531 104.839844 L 42.453125 104.535156 L 42.320312 104.445312 L 42.277344 104.183594 M 43.066406 99.679688 L 46.921875 100.554688 L 47.359375 100.597656 L 50.949219 97.796875 L 46.570312 97.140625 L 43.898438 96.921875 L 40.21875 99.328125 L 43.066406 99.679688 M 51.5625 103.527344 L 53.226562 102.085938 L 47.488281 101.691406 L 44.644531 103.921875 L 46.613281 104.097656 L 50.773438 104.226562 L 51.5625 103.527344 M 48.761719 100.640625 L 54.628906 100.945312 L 57.476562 98.714844 L 52.089844 97.929688 L 48.761719 100.640625 M 58.746094 99.199219 L 56.425781 101.078125 L 59.140625 101.339844 L 59.84375 100.773438 L 58.878906 99.417969 L 58.746094 99.199219 M 57.960938 97.839844 L 56.121094 94.648438 L 53.183594 97.011719 L 55.113281 97.273438 L 57.960938 97.839844 M 60.542969 102.171875 L 60.410156 102.171875 L 58.089844 104.402344 L 58.660156 104.402344 L 61.902344 104.578125 L 62.996094 104.707031 L 63.214844 104.535156 C 62.425781 103.949219 61.582031 103.074219 60.675781 101.910156 L 60.542969 102.171875 M 58.179688 102.214844 L 54.980469 102.171875 L 52.089844 104.269531 L 56.074219 104.359375 L 58.179688 102.214844 M 63.039062 106.019531 L 59.578125 110.042969 L 64.355469 110.65625 C 64.355469 110.976562 63.917969 111.136719 63.039062 111.136719 L 58.746094 111.007812 L 55.945312 113.9375 L 60.191406 115.597656 L 64.53125 111.226562 L 64.484375 108.382812 C 64.425781 107.421875 64.484375 106.648438 64.660156 106.066406 L 63.039062 106.019531 M 60.28125 105.628906 L 57.082031 105.320312 L 54.410156 107.507812 L 52.921875 109.300781 L 58.574219 109.957031 C 59.828125 108.238281 60.921875 106.882812 61.859375 105.890625 L 60.28125 105.628906 M 55.285156 105.234375 L 51.214844 105.144531 L 47.753906 108.734375 L 51.914062 109.214844 L 53.972656 106.71875 L 55.285156 105.234375 M 57.871094 110.917969 L 52.046875 110.394531 L 50.773438 112.101562 L 55.066406 113.585938 L 57.871094 110.917969 M 55.199219 114.679688 L 52.746094 117.21875 L 54.324219 118.96875 L 55.550781 120.453125 L 56.339844 119.625 C 55.054688 119.449219 54.28125 118.980469 54.015625 118.222656 C 54.191406 118.046875 54.453125 117.960938 54.804688 117.960938 L 57.519531 118.3125 L 59.449219 116.386719 L 57.738281 115.6875 L 55.199219 114.679688 M 62.339844 120.148438 L 63.214844 119.359375 L 63.476562 119.535156 L 63.523438 117.875 L 60.5 116.78125 L 58.660156 118.617188 L 59.316406 118.792969 C 60.746094 119.230469 61.753906 119.679688 62.339844 120.148438 M 56.074219 121.109375 L 57.609375 123.210938 L 57.519531 122.949219 C 57.695312 122.773438 58.105469 122.683594 58.746094 122.683594 L 59.492188 122.730469 L 61.375 121.023438 C 60.382812 120.820312 59.097656 120.382812 57.519531 119.710938 L 56.074219 121.109375 M 58.132812 123.953125 L 58.222656 123.910156 L 58.003906 123.777344 L 58.132812 123.953125 M 59.753906 123.867188 L 58.703125 124.785156 L 59.929688 127.101562 L 61.289062 125.921875 C 61.902344 125.453125 62.398438 125.132812 62.777344 124.960938 C 62.515625 124.960938 61.683594 124.609375 60.28125 123.910156 L 59.753906 123.867188 M 60.71875 122.902344 C 61.800781 123.164062 62.660156 123.675781 63.304688 124.433594 L 62.996094 124.871094 L 63.304688 124.785156 L 63.476562 124.828125 L 63.476562 120.015625 L 62.734375 120.804688 L 62.472656 121.109375 L 60.71875 122.902344 M 63.566406 116.957031 C 63.652344 115.234375 63.84375 113.9375 64.136719 113.0625 L 61.289062 116.035156 L 63.566406 116.957031 M 46.132812 108.558594 L 49.769531 105.144531 L 43.503906 104.796875 L 42.628906 105.363281 L 42.582031 105.363281 L 45.257812 108.558594 L 45.957031 108.515625 L 46.132812 108.558594 M 46.261719 109.824219 L 46.921875 110.613281 L 48.980469 113.019531 L 49.285156 112.539062 L 49.15625 112.492188 L 49.109375 112.230469 C 49.109375 111.96875 49.285156 111.835938 49.636719 111.835938 L 49.769531 111.835938 L 50.996094 110.261719 L 46.351562 109.78125 L 46.261719 109.824219 M 49.59375 113.675781 L 52.175781 116.5625 C 52.554688 116.035156 53.257812 115.292969 54.28125 114.332031 L 50.207031 112.84375 L 49.59375 113.675781 M 44.292969 145.210938 L 44.644531 145.820312 L 45.78125 147.789062 L 45.78125 147.746094 C 45.78125 147.601562 45.824219 147.46875 45.914062 147.351562 L 45.257812 146.566406 L 45.695312 146.304688 C 45.925781 146.304688 46.234375 146.433594 46.613281 146.695312 C 47.140625 146.375 47.929688 146.113281 48.980469 145.910156 L 48.585938 145.121094 C 48.351562 144.683594 47.722656 144.058594 46.703125 143.242188 L 45.957031 143.984375 L 44.46875 145.253906 L 44.292969 145.210938 M 43.152344 142.585938 L 44.03125 144.730469 C 44.085938 144.4375 44.367188 143.96875 44.863281 143.328125 L 45.738281 142.453125 L 44.816406 141.625 L 43.503906 141.667969 L 43.152344 142.585938 M 47.664062 147.660156 L 49.679688 150.109375 L 50.074219 149.890625 L 51.125 149.453125 L 49.636719 147.132812 L 47.664062 147.660156 M 65.710938 131.695312 L 65.886719 130.558594 C 65.390625 130.527344 64.96875 130.265625 64.617188 129.769531 L 64.136719 130.207031 L 65.710938 131.695312 M 64.222656 129.027344 C 63.871094 128.269531 63.640625 127.203125 63.523438 125.835938 L 60.761719 127.847656 C 61.464844 128.136719 62.339844 128.722656 63.390625 129.59375 L 64.222656 129.027344 M 65.40625 133.707031 L 65.535156 132.699219 L 63.304688 130.90625 L 61.945312 131.957031 L 63.347656 134.144531 L 63.476562 134.058594 L 63.871094 134.230469 L 64.878906 133.355469 L 65.316406 133.445312 L 65.40625 133.707031 M 63.214844 136.332031 L 62.820312 135.980469 L 61.59375 136.8125 L 61.726562 137.03125 L 62.691406 138.824219 L 63.566406 138.253906 L 64.089844 138.34375 L 64.179688 138.648438 C 64.179688 138.941406 63.859375 139.347656 63.214844 139.875 L 64.089844 141.625 L 64.703125 137.90625 L 64.617188 137.90625 L 63.390625 136.199219 L 63.214844 136.332031 M 64.089844 135.542969 L 64.835938 137.03125 L 65.316406 134.101562 L 64.089844 135.542969 M 60.148438 130.820312 L 60.410156 130.734375 C 60.644531 130.734375 60.910156 130.863281 61.199219 131.125 L 62.472656 130.296875 L 60.5 128.894531 L 60.5 129.332031 L 60.457031 129.859375 L 60.324219 130.03125 L 60.148438 130.820312 M 60.019531 131.214844 L 59.359375 132.4375 L 60.367188 131.738281 L 60.019531 131.214844 M 56.558594 136.199219 L 57.566406 137.425781 L 59.054688 136.855469 L 59.667969 136.59375 L 58.089844 134.1875 L 57.519531 134.886719 L 56.558594 136.199219 M 59.097656 133.09375 L 59.011719 132.964844 L 58.703125 133.445312 C 59.347656 133.648438 60.105469 134.421875 60.980469 135.761719 C 61.417969 135.472656 61.902344 135.148438 62.425781 134.800781 L 60.980469 132.613281 L 59.535156 133.183594 L 59.097656 133.09375 M 59.929688 137.644531 L 58.308594 138.386719 L 60.0625 140.617188 L 60.238281 140.53125 L 61.59375 139.566406 L 60.238281 137.511719 L 59.929688 137.644531 M 59.84375 141.84375 L 56.558594 143.242188 L 57.828125 144.816406 C 59.023438 144.292969 60.003906 143.867188 60.761719 143.546875 L 59.929688 141.972656 L 59.84375 141.84375 M 60.632812 141.449219 L 60.894531 141.753906 L 61.683594 143.152344 L 62.953125 142.628906 C 63.15625 142.628906 63.332031 142.746094 63.476562 142.980469 L 62.078125 144.117188 L 62.953125 146.347656 L 63.257812 146.566406 L 63.871094 142.933594 L 62.207031 140.53125 L 60.632812 141.449219 M 56.644531 137.773438 L 56.121094 136.945312 L 55.460938 138.300781 L 56.164062 137.949219 L 56.644531 137.773438 M 54.71875 142.324219 C 54.863281 142.0625 55.039062 141.929688 55.242188 141.929688 L 55.679688 142.234375 L 56.996094 141.710938 L 59.097656 140.96875 L 57.390625 138.78125 L 54.980469 139.917969 C 54.804688 140.675781 54.71875 141.449219 54.71875 142.234375 L 54.71875 142.628906 L 54.9375 142.542969 L 54.71875 142.324219 M 56.292969 145.472656 L 56.953125 145.167969 L 55.636719 143.460938 L 54.894531 143.503906 L 54.761719 143.503906 L 54.9375 145.210938 L 55.679688 145.078125 L 56.207031 145.167969 L 56.292969 145.472656 M 55.199219 147.351562 L 56.425781 149.058594 L 58.527344 148.054688 L 58.921875 147.921875 L 57.652344 146.128906 L 56.121094 146.304688 L 55.59375 146.214844 L 55.15625 146.304688 L 55.066406 146.304688 L 55.199219 147.351562 M 59.359375 146.785156 L 59.886719 147.484375 L 61.945312 146.609375 L 61.59375 145.691406 L 61.199219 144.597656 L 60.585938 144.859375 L 58.660156 145.820312 L 59.359375 146.785156 M 63.171875 146.871094 L 63.171875 146.960938 L 63.214844 146.785156 L 63.171875 146.871094 M 62.996094 158.460938 L 61.726562 157.324219 L 61.464844 157.0625 L 58.398438 156.976562 L 58.308594 157.0625 L 60.238281 159.164062 L 62.996094 158.8125 L 62.953125 158.636719 L 62.996094 158.460938 M 63.039062 156.933594 L 63.085938 154.527344 L 62.691406 156.449219 L 63.039062 156.933594 M 62.515625 150.984375 L 62.953125 148.226562 L 62.382812 147.570312 L 60.804688 148.664062 L 62.515625 150.984375 M 59.535156 153.390625 L 60.585938 154.875 L 60.675781 154.875 C 60.996094 154.875 61.359375 155.066406 61.769531 155.445312 L 62.339844 152.164062 L 61.988281 151.859375 L 59.710938 153.257812 L 59.535156 153.390625 M 59.011719 152.425781 C 59.914062 152.222656 60.601562 151.902344 61.070312 151.464844 L 61.375 151.160156 L 59.84375 149.144531 L 57.214844 150.195312 L 58.878906 152.46875 L 59.011719 152.425781 M 55.769531 149.363281 L 55.417969 148.796875 L 55.507812 149.496094 L 55.769531 149.363281 M 54.628906 153.390625 L 52.441406 150.109375 C 52.148438 150.515625 51.519531 150.925781 50.554688 151.332031 L 52.132812 153.476562 L 54.191406 153.300781 L 54.628906 153.390625 L 54.71875 153.695312 C 54.71875 154.25 54.148438 154.613281 53.007812 154.789062 L 53.972656 156.101562 L 54.234375 155.445312 L 54.9375 153.828125 L 54.628906 153.390625 M 55.945312 153.34375 C 56.441406 153.113281 57.140625 152.894531 58.046875 152.6875 L 56.511719 150.414062 L 55.679688 150.675781 L 55.769531 151.160156 L 55.769531 153.039062 L 55.945312 153.34375 M 57.652344 155.839844 L 57.960938 156.277344 L 58.746094 156.277344 L 60.851562 156.320312 L 60.761719 156.230469 L 60.542969 156.230469 L 58.746094 153.738281 C 57.726562 154.207031 56.878906 154.496094 56.207031 154.613281 C 56.734375 154.789062 57.214844 155.195312 57.652344 155.839844 M 55.199219 156.320312 L 56.382812 156.320312 L 55.550781 155.53125 L 55.199219 156.320312 M 53.929688 158.242188 L 54.105469 158.199219 C 54.511719 158.199219 55.140625 158.695312 55.988281 159.6875 L 56.03125 159.730469 L 56.777344 159.46875 L 56.734375 159.601562 L 59.183594 159.292969 L 57.828125 157.632812 L 57.257812 158.507812 L 57.609375 157.71875 L 56.90625 156.886719 L 54.980469 156.800781 L 53.929688 158.242188 M 60.019531 160.300781 L 58.484375 160.300781 L 56.6875 160.253906 L 60.148438 164.890625 L 62.339844 165.066406 L 62.820312 163.359375 L 60.542969 160.910156 L 60.019531 160.300781 M 54.9375 160.035156 L 53.492188 158.726562 L 53.667969 158.460938 L 52.351562 158.898438 L 51.039062 158.726562 L 52.222656 160.386719 L 53.753906 160.300781 L 54.9375 160.035156 M 56.164062 160.957031 L 56.03125 161.304688 L 55.636719 160.867188 L 54.9375 161.042969 L 52.878906 161.523438 L 54.671875 164.671875 L 54.847656 164.890625 L 58.046875 164.847656 L 58.484375 164.847656 L 56.164062 160.957031 M 56.074219 168.785156 L 54.410156 165.984375 L 52.046875 166.203125 L 53.492188 168.476562 L 53.492188 168.523438 L 53.753906 168.523438 L 55.988281 168.785156 L 56.074219 168.785156 M 55.945312 166.597656 L 56.996094 168.742188 C 58.71875 168.59375 60.078125 168.027344 61.070312 167.035156 L 60.851562 167.121094 C 60.410156 167.121094 59.796875 166.613281 59.011719 165.589844 L 55.242188 165.460938 L 55.945312 166.597656 M 61.246094 166.859375 L 62.121094 165.589844 L 61.59375 165.636719 L 60.675781 165.636719 L 61.375 166.597656 L 61.246094 166.859375 M 63.039062 159.992188 L 61.199219 160.210938 L 62.996094 162.222656 L 63.039062 159.992188 M 48.847656 150.765625 L 46.527344 148.097656 L 46.21875 148.226562 L 46 148.140625 L 46.613281 149.015625 C 47.664062 150.179688 48.425781 151.859375 48.890625 154.046875 L 50.730469 153.652344 L 49.679688 151.683594 L 49.023438 151.902344 C 48.730469 151.8125 48.585938 151.609375 48.585938 151.289062 L 48.847656 150.765625 M 49.109375 155.3125 L 49.109375 156.363281 C 50.308594 157.414062 51.375 157.9375 52.308594 157.9375 C 52.6875 157.9375 53.082031 157.617188 53.492188 156.976562 C 52.820312 156.917969 52.117188 156.21875 51.386719 154.875 L 51.214844 154.875 L 49.023438 154.789062 L 49.109375 155.3125 M 46.65625 155.183594 L 44.597656 153.171875 L 44.074219 153.214844 L 42.714844 153.433594 L 45.34375 156.800781 L 47.488281 156.144531 L 46.65625 155.226562 L 46.65625 155.183594 M 46.308594 158.070312 L 48.234375 160.691406 L 50.730469 160.519531 L 49.109375 157.9375 L 49.199219 157.894531 L 48.410156 157.238281 L 48.058594 156.84375 C 48 157.339844 47.476562 157.734375 46.484375 158.023438 L 46.308594 158.070312 M 40.65625 153.171875 L 40.742188 153.039062 L 39.296875 151.203125 C 39.472656 150.851562 39.648438 150.675781 39.824219 150.675781 C 40.144531 150.675781 40.890625 151.332031 42.058594 152.644531 L 43.152344 152.601562 L 44.117188 152.6875 L 41.664062 150.195312 C 40.964844 150.195312 40.203125 150.414062 39.386719 150.851562 C 38.628906 151.261719 38.246094 151.566406 38.246094 151.769531 C 38.246094 152.089844 38.453125 152.628906 38.859375 153.390625 L 40.523438 153.125 L 40.65625 153.171875 M 39.296875 154.175781 C 40.640625 156.421875 43.3125 160.007812 47.316406 164.9375 L 47.359375 164.980469 L 48.234375 165.765625 L 50.46875 165.417969 L 47.664062 161.875 L 44.773438 161.65625 L 44.730469 161.394531 C 44.730469 161.21875 45.445312 161.042969 46.875 160.867188 L 44.992188 158.417969 L 43.417969 158.898438 C 43.125 158.8125 42.976562 158.652344 42.976562 158.417969 C 42.976562 157.921875 43.328125 157.53125 44.03125 157.238281 L 41.402344 153.871094 L 41.050781 154 L 40.964844 154 L 39.472656 154.175781 L 39.296875 154.175781 M 48.890625 166.378906 C 49.972656 167.457031 51.285156 168.144531 52.835938 168.433594 L 51.125 166.246094 L 48.628906 166.117188 L 48.890625 166.378906 M 53.667969 165.109375 L 53.839844 164.980469 L 51.519531 161.699219 L 49.066406 161.875 L 51.476562 165.375 L 53.667969 165.285156 L 53.667969 165.109375 M 190.949219 194.152344 L 191.078125 192.226562 C 190.320312 192.898438 188.320312 193.746094 185.078125 194.765625 L 186.875 195.816406 L 190.949219 194.152344 M 188.449219 196.6875 L 190.859375 197.871094 L 190.859375 197.214844 L 190.902344 195.507812 L 188.449219 196.6875 M 186.917969 197.34375 L 184.945312 198.132812 L 190.507812 201.5 L 190.683594 201.414062 L 190.902344 201.457031 L 190.859375 198.789062 L 190.773438 198.789062 C 190.011719 198.789062 188.726562 198.308594 186.917969 197.34375 M 183.371094 195.289062 L 180.828125 196.035156 L 183.324219 197.257812 L 183.414062 197.300781 L 185.339844 196.472656 L 183.371094 195.289062 M 182.316406 194.632812 L 180.609375 193.539062 L 177.148438 191.222656 L 174.214844 191.617188 L 173.6875 191.570312 L 173.6875 191.835938 L 173.46875 194.019531 C 173.527344 193.933594 173.628906 193.890625 173.777344 193.890625 C 175.207031 193.890625 177.164062 194.429688 179.644531 195.507812 L 182.316406 194.632812 M 181.878906 197.957031 L 178.726562 196.558594 L 173.25 197.914062 L 172.726562 197.871094 L 177.28125 199.96875 L 180.390625 198.613281 L 181.878906 197.957031 M 178.507812 200.539062 L 185.515625 203.820312 L 189.589844 201.894531 C 187.632812 200.785156 185.574219 199.722656 183.414062 198.703125 L 178.507812 200.539062 M 180.960938 208.410156 L 184.203125 209.8125 C 186.363281 208.996094 188.640625 208.28125 191.035156 207.667969 L 191.035156 207.1875 C 190.246094 207.070312 188.390625 206.371094 185.472656 205.085938 L 179.601562 207.710938 L 180.960938 208.410156 M 184.15625 204.476562 L 177.105469 201.0625 C 174.945312 201.878906 173.03125 202.625 171.367188 203.292969 L 178.507812 207.097656 L 184.15625 204.476562 M 179.863281 213.003906 L 181.046875 213.574219 L 185.867188 215.453125 L 190.859375 213.921875 C 189.722656 213.628906 187.515625 212.710938 184.246094 211.167969 L 179.863281 213.003906 M 178.332031 208.234375 L 173.90625 210.117188 L 178.59375 212.390625 C 179.910156 211.664062 181.28125 211.007812 182.710938 210.421875 L 181.574219 209.855469 L 178.332031 208.234375 M 190.378906 202.375 L 186.828125 204.429688 L 191.078125 206.398438 L 191.121094 205.394531 L 190.902344 205.347656 L 190.902344 202.636719 L 190.859375 202.636719 L 190.378906 202.375 M 185.824219 210.511719 L 186.875 210.949219 C 189.035156 211.910156 190.582031 212.753906 191.515625 213.484375 C 191.226562 211.9375 191.0625 210.277344 191.035156 208.5 L 185.824219 210.511719 M 191.824219 214.796875 L 187.3125 215.976562 L 188.84375 216.546875 L 192.789062 218.164062 L 192.085938 215.804688 L 191.824219 214.796875 M 193.050781 219.476562 L 192.699219 219.300781 L 187.398438 221.488281 L 192.917969 223.675781 L 193.007812 223.71875 L 193.136719 220.132812 L 193.050781 219.476562 M 185.601562 216.503906 L 180.085938 218.253906 L 185.953125 220.875 L 191.78125 218.910156 L 186.085938 216.371094 L 185.601562 216.503906 M 178.683594 213.484375 L 173.820312 216.066406 L 178.859375 217.726562 L 184.769531 215.804688 L 180.304688 214.054688 L 178.683594 213.484375 M 179.03125 218.601562 L 178.507812 218.734375 L 172.636719 221.007812 L 173.074219 221.53125 L 173.164062 221.53125 L 173.46875 221.621094 L 173.6875 221.925781 L 173.6875 222.015625 L 178.023438 223.808594 C 179.71875 223.105469 181.980469 222.261719 184.816406 221.269531 L 179.03125 218.601562 M 180.609375 231.984375 L 177.632812 230.410156 L 176.84375 230.585938 L 176.753906 232.773438 L 178.902344 232.25 L 180.609375 231.984375 M 184.640625 231.328125 L 191.035156 229.753906 C 191.238281 229.753906 191.414062 229.871094 191.5625 230.105469 C 191.179688 230.777344 189.222656 231.433594 185.691406 232.074219 L 184.203125 232.421875 L 186.699219 233.648438 L 187.53125 232.378906 L 187.96875 232.46875 L 188.054688 232.773438 C 188.054688 233.328125 187.675781 234.230469 186.917969 235.484375 L 187.835938 234.960938 C 189.355469 234.171875 190.246094 233.777344 190.507812 233.777344 L 190.859375 233.910156 L 192.085938 229.800781 L 191.734375 229.929688 L 185.648438 227.523438 L 179.164062 229.972656 L 182.667969 231.636719 L 184.640625 231.328125 M 182.316406 232.816406 L 176.753906 233.777344 L 176.710938 233.777344 L 176.535156 235.265625 L 176.753906 235.179688 C 177.457031 235.179688 178.464844 235.644531 179.777344 236.578125 C 181.734375 235.996094 183.0625 235.703125 183.761719 235.703125 C 184.523438 235.703125 184.960938 235.804688 185.078125 236.011719 L 186.171875 234.390625 C 185.382812 234.1875 184.097656 233.664062 182.316406 232.816406 M 185.210938 226.476562 L 191.472656 224.070312 L 186.304688 221.96875 L 179.953125 224.507812 L 185.210938 226.476562 M 178.859375 224.945312 L 176.183594 225.949219 C 176.535156 226.855469 176.753906 227.890625 176.84375 229.054688 L 177.28125 229.1875 L 183.984375 226.867188 L 178.859375 224.945312 M 192.960938 224.507812 L 192.523438 224.417969 L 186.742188 227.042969 C 189.398438 228.035156 191.226562 228.777344 192.21875 229.273438 L 192.960938 224.507812 M 170.753906 200.757812 L 169.613281 202.726562 L 170.007812 202.636719 L 170.445312 202.855469 L 176.011719 200.539062 L 171.9375 198.484375 L 170.753906 200.757812 M 172.285156 197.695312 L 172.332031 197.695312 L 172.332031 197.652344 L 172.285156 197.695312 M 177.542969 196.078125 L 173.382812 194.457031 L 172.417969 197.433594 L 177.542969 196.078125 M 165.542969 211.734375 L 166.59375 211.996094 C 167.4375 211.503906 168.78125 210.859375 170.621094 210.074219 L 170.886719 209.984375 C 168.871094 208.9375 167.496094 208.074219 166.769531 207.40625 L 165.980469 208.671875 L 165.542969 211.734375 M 165.585938 212.699219 L 165.367188 212.566406 C 165.160156 213.617188 165.074219 214.5625 165.101562 215.410156 L 164.929688 216.894531 L 166.941406 218.296875 L 171.410156 216.109375 L 170.839844 215.847656 L 166.460938 213.265625 L 165.890625 213.484375 C 165.597656 213.398438 165.453125 213.191406 165.453125 212.871094 L 165.585938 212.699219 M 167.117188 206.835938 L 172.375 209.375 C 174.097656 208.671875 175.660156 208.074219 177.0625 207.582031 L 170.226562 203.773438 L 169.046875 204.210938 L 168.828125 204.125 L 167.117188 206.835938 M 169.484375 202.988281 L 169.265625 203.335938 L 169.484375 203.25 L 169.484375 202.988281 M 172.417969 210.730469 L 167.90625 212.609375 C 169.046875 213.25 170.445312 214.226562 172.113281 215.539062 L 172.375 215.628906 L 177.410156 213.003906 L 172.417969 210.730469 M 170.273438 217.769531 L 171.804688 219.914062 C 174.199219 219.097656 176.128906 218.5 177.585938 218.121094 L 172.679688 216.632812 L 170.273438 217.769531 M 170.710938 221.707031 L 165.933594 223.371094 L 166.8125 223.675781 C 167.863281 224.054688 168.738281 224.449219 169.441406 224.855469 L 170.097656 224.683594 L 170.492188 224.726562 C 170.988281 223.648438 171.46875 222.832031 171.9375 222.277344 L 170.710938 221.707031 M 170.972656 220.175781 L 169.570312 218.078125 L 167.773438 218.863281 L 168.125 219.082031 L 170.402344 220.394531 L 170.972656 220.175781 M 163.964844 222.84375 C 164.839844 222.40625 166.519531 221.75 169 220.875 L 168.914062 220.832031 L 166.328125 219.390625 L 165.191406 219.78125 C 164.898438 219.695312 164.753906 219.535156 164.753906 219.300781 L 165.585938 218.910156 L 164.707031 218.207031 L 164.050781 222.101562 L 163.921875 222.84375 L 163.964844 222.84375 M 163.703125 223.808594 L 162.78125 226.824219 L 162.914062 226.78125 L 163.308594 227.085938 C 163.804688 226.855469 164.402344 226.605469 165.101562 226.34375 L 167.730469 225.382812 L 163.875 223.808594 L 163.703125 223.808594 M 167.511719 226.167969 C 166.199219 226.605469 165.015625 227.101562 163.964844 227.65625 L 168.082031 230.9375 L 168.695312 229.273438 L 169.832031 226.257812 L 168.695312 225.820312 L 167.511719 226.167969 M 162.648438 227.394531 L 162.605469 227.351562 L 162.5625 227.4375 L 162.648438 227.394531 M 162.125 228.660156 L 160.722656 232.421875 C 161.074219 232.539062 161.554688 232.800781 162.167969 233.210938 L 162.519531 233.035156 C 164.269531 232.308594 165.847656 231.753906 167.25 231.375 C 166.664062 231.140625 165.878906 230.601562 164.882812 229.753906 L 163.132812 228.09375 C 162.78125 228.269531 162.445312 228.457031 162.125 228.660156 M 160.371094 233.296875 L 160.023438 234.171875 L 160.984375 233.734375 L 160.371094 233.296875 M 168.519531 231.898438 L 168.125 234.390625 L 167.425781 235.921875 L 168.476562 236.621094 L 168.433594 236.316406 L 168.433594 234.828125 C 168.316406 233.984375 168.316406 233.285156 168.433594 232.730469 C 168.519531 232.320312 168.664062 232 168.871094 231.765625 L 168.519531 231.898438 M 168.695312 231.023438 L 168.78125 230.980469 L 169.570312 231.066406 L 169.613281 231.285156 L 170.359375 231.15625 L 173.207031 231.546875 C 172.738281 230.292969 172.285156 228.09375 171.847656 224.945312 L 171.628906 225.292969 L 171.058594 226.167969 L 170.796875 226.5625 C 169.746094 228.195312 169.074219 229.476562 168.78125 230.410156 L 168.695312 231.023438 M 163.21875 233.953125 C 164.269531 234.710938 164.984375 235.398438 165.367188 236.011719 C 166.066406 235.222656 166.796875 233.984375 167.554688 232.292969 L 163.21875 233.953125 M 176.578125 224.113281 L 174.476562 223.371094 L 175.222656 224.289062 L 175.617188 224.855469 L 176.929688 224.246094 L 176.578125 224.113281 M 174.652344 226.429688 L 174.609375 226.429688 L 175.179688 226.78125 L 175.003906 226.386719 L 174.652344 226.429688 M 174.519531 225.46875 L 173.03125 223.105469 L 172.417969 224.113281 L 173.25 226.476562 C 173.339844 226.328125 173.542969 226.257812 173.863281 226.257812 L 174.171875 226.300781 L 174.039062 225.949219 C 174.039062 225.832031 174.199219 225.671875 174.519531 225.46875 M 175.617188 228.179688 L 173.382812 227 L 174.171875 230.28125 L 175.964844 229.667969 L 175.703125 228.179688 L 175.617188 228.179688 M 170.183594 225.335938 L 170.226562 225.292969 L 170.140625 225.335938 L 170.183594 225.335938 M 172.332031 234.214844 L 174.652344 235.792969 L 175.441406 235.355469 L 175.617188 234.699219 L 175.792969 233.777344 C 173.628906 232.671875 171.863281 232.117188 170.492188 232.117188 C 170.023438 232.117188 169.6875 232.335938 169.484375 232.773438 C 169.949219 232.890625 170.898438 233.371094 172.332031 234.214844 M 174.519531 232.03125 L 175.003906 232.25 L 175.878906 232.730469 L 175.964844 230.761719 L 175.179688 230.804688 L 174.257812 230.671875 L 174.519531 232.03125 M 174.652344 237.410156 L 173.863281 236.882812 L 173.207031 237.234375 C 172.300781 237.816406 171.511719 238.167969 170.839844 238.285156 C 171.921875 238.984375 172.710938 239.332031 173.207031 239.332031 C 173.5 239.332031 173.953125 238.734375 174.566406 237.539062 L 174.652344 237.410156 M 175.132812 239.421875 C 175.777344 239.566406 176.742188 240.148438 178.023438 241.171875 L 179.03125 241.957031 L 180.347656 241.652344 C 180.960938 241.652344 181.308594 241.753906 181.398438 241.957031 L 182.273438 239.988281 L 182.316406 239.945312 C 181.558594 239.625 180.464844 238.882812 179.03125 237.714844 L 175.792969 238.242188 L 175.132812 239.421875 M 176.140625 237.148438 L 177.980469 236.882812 L 176.492188 235.617188 L 176.40625 235.921875 L 176.140625 237.148438 M 169.878906 237.628906 L 170.054688 237.757812 L 173.207031 236.445312 L 169.21875 233.648438 C 169.074219 234.492188 169.132812 235.703125 169.394531 237.277344 L 169.878906 237.628906 M 170.007812 239.027344 C 169.746094 239.40625 169.292969 239.726562 168.652344 239.988281 L 173.46875 243.269531 L 177.410156 242.351562 L 176.972656 242 L 174.476562 239.988281 L 173.511719 240.253906 C 172.460938 240.253906 171.058594 239.625 169.308594 238.371094 L 167.074219 236.445312 C 166.578125 237.03125 165.992188 237.453125 165.320312 237.714844 L 167.601562 239.289062 L 169.484375 238.679688 C 169.6875 238.679688 169.863281 238.792969 170.007812 239.027344 M 171.410156 243.050781 L 167.511719 240.339844 L 163.789062 240.601562 L 163.351562 240.515625 L 163.175781 240.121094 C 163.175781 239.800781 164.183594 239.550781 166.199219 239.378906 L 164.269531 237.976562 L 163.703125 237.976562 L 162.429688 237.933594 L 162.125 238.632812 C 162.125 239.683594 162.605469 240.5 163.570312 241.082031 L 168.039062 243.664062 L 169.132812 244.363281 L 169.132812 244.320312 L 172.15625 243.578125 L 171.410156 243.050781 M 169.878906 244.800781 C 173.265625 246.84375 175.851562 247.863281 177.632812 247.863281 L 178.417969 247.558594 L 173.121094 244.234375 L 169.921875 244.800781 L 169.878906 244.800781 M 164.929688 236.402344 L 161.992188 234.390625 L 159.847656 235.179688 L 159.582031 235.179688 L 159.496094 235.355469 C 159.496094 235.90625 159.582031 236.257812 159.757812 236.402344 C 160.253906 236.8125 161.496094 237.015625 163.480469 237.015625 C 163.949219 237.015625 164.429688 236.8125 164.929688 236.402344 M 189.589844 237.496094 L 190.554688 234.828125 L 188.230469 236.316406 L 189.589844 237.496094 M 187.003906 236.839844 L 185.867188 237.277344 L 185.777344 237.277344 L 183.148438 240.820312 L 184.507812 241.171875 C 185.589844 240.617188 187.003906 239.960938 188.757812 239.203125 L 188.976562 239.246094 L 189.371094 238.152344 L 189.28125 238.152344 C 188.960938 238.152344 188.203125 237.714844 187.003906 236.839844 M 188.40625 240.777344 L 188.539062 240.472656 L 186.128906 241.785156 C 186.683594 242.105469 187.09375 242.484375 187.355469 242.921875 L 188.40625 240.777344 M 184.859375 236.316406 L 180.785156 237.277344 L 182.929688 239.070312 L 184.859375 236.316406 M 178.988281 243.402344 L 178.507812 243.09375 L 174.476562 243.96875 L 178.945312 247.03125 L 180.214844 244.714844 L 180.347656 244.453125 C 179.878906 244.421875 179.515625 244.21875 179.25 243.839844 L 178.988281 243.402344 M 181.441406 244.625 L 182.1875 244.714844 L 182.273438 244.976562 C 182.859375 245.035156 183.425781 245.238281 183.984375 245.589844 C 184.449219 245.878906 184.699219 246.113281 184.726562 246.289062 C 185.488281 245.648438 186.230469 244.742188 186.960938 243.578125 C 186.523438 243.546875 185.71875 243.199219 184.550781 242.527344 L 182.449219 243.402344 C 182.273438 243.402344 182.128906 243.34375 182.011719 243.226562 L 181.441406 244.625 M 180.609375 243.796875 L 181.136719 242.527344 L 179.910156 242.789062 L 180.523438 243.53125 L 180.476562 243.664062 L 180.609375 243.796875 M 181.089844 245.5 L 180.171875 247.121094 L 182.097656 247.339844 C 182.769531 247.339844 183.441406 247.132812 184.113281 246.726562 C 183.035156 246.695312 182.144531 246.332031 181.441406 245.632812 L 181.398438 245.5 L 181.089844 245.5 M 182.757812 241.433594 L 182.316406 242.4375 L 183.324219 241.785156 L 182.757812 241.433594 "/>
<path style=" stroke:none;fill-rule:evenodd;fill:rgb(0%,0%,0%);fill-opacity:1;" d="M 174.957031 172.066406 L 175.003906 172.019531 L 175.003906 172.195312 L 174.957031 172.066406 "/>
</g>
</svg>
