<?xml version="1.0" encoding="UTF-8"?>
<svg xmlns="http://www.w3.org/2000/svg" xmlns:xlink="http://www.w3.org/1999/xlink" width="212px" height="411px" viewBox="0 0 212 411" version="1.1">
<g id="surface1">
<path style=" stroke:none;fill-rule:evenodd;fill:rgb(0%,0%,0%);fill-opacity:1;" d="M 45.878906 230.484375 L 45.835938 230.441406 L 45.878906 230.441406 L 45.878906 230.484375 M 80.714844 240.832031 L 80.671875 240.699219 L 80.714844 240.699219 L 80.714844 240.832031 "/>
<path style=" stroke:none;fill-rule:evenodd;fill:rgb(0%,0%,0%);fill-opacity:0.678431;" d="M 74.710938 229.609375 L 74.273438 230.179688 L 75.019531 230.703125 L 75.5 230.136719 L 74.710938 229.609375 M 76.773438 230.835938 L 76.246094 231.582031 L 77.648438 232.675781 L 77.121094 230.75 L 76.773438 230.835938 M 45.878906 230.484375 L 48.203125 232.109375 L 51.226562 229.652344 L 51.050781 229.519531 L 50.085938 228.820312 L 54.25 228.820312 L 53.371094 229.433594 L 57.449219 232.457031 L 60.515625 229.476562 L 59.59375 228.820312 L 62.792969 228.820312 L 62.53125 229.125 L 65.378906 231.011719 L 67.308594 228.820312 L 69.148438 228.820312 L 66.605469 231.800781 L 69.234375 233.511719 L 71.558594 231.273438 L 71.953125 230.660156 L 69.148438 228.820312 L 72.300781 228.820312 L 72.828125 229.214844 L 73.046875 228.820312 L 75.632812 228.820312 L 76.246094 229.300781 L 76.683594 228.996094 L 76.683594 228.820312 L 77.515625 228.820312 L 79.183594 235.527344 L 79.3125 236.007812 L 79.3125 236.054688 L 79.664062 237.804688 L 79.707031 237.804688 L 80.671875 240.699219 L 80.714844 240.832031 L 82.949219 249.730469 L 82.949219 249.816406 L 82.90625 250.125 C 82.9375 250.210938 82.804688 250.253906 82.511719 250.253906 L 82.382812 250.167969 C 82.117188 250.78125 80.410156 251.554688 77.253906 252.492188 C 72.785156 253.804688 67.4375 254.464844 61.214844 254.464844 C 50.171875 254.464844 44.039062 253.878906 42.8125 252.710938 L 42.8125 252.316406 L 43.25 252.226562 L 43.164062 251.089844 L 43.207031 249.816406 C 43.234375 247.246094 43.453125 243.242188 43.863281 237.804688 L 44.390625 231.097656 L 44.695312 228.820312 L 45.96875 228.820312 L 45.746094 230.398438 C 45.746094 230.398438 45.777344 230.414062 45.835938 230.441406 L 45.878906 230.484375 M 77.957031 234.34375 C 77.808594 234.34375 76.933594 233.832031 75.324219 232.808594 L 73.003906 235.921875 L 76.289062 237.980469 C 77.078125 236.433594 77.765625 235.554688 78.351562 235.351562 L 78.085938 234.34375 L 77.957031 234.34375 M 73.222656 231.492188 L 72.039062 232.808594 L 70.550781 234.34375 C 70.929688 234.578125 71.324219 234.824219 71.734375 235.089844 L 74.011719 231.976562 L 73.222656 231.492188 M 66.082031 237.0625 L 68.097656 234.695312 L 65.511719 232.984375 L 64.941406 233.421875 L 62.488281 235.703125 L 65.730469 237.5 L 66.082031 237.0625 M 69.410156 235.527344 L 67.042969 237.980469 L 66.867188 238.199219 L 68.578125 239.164062 L 69.410156 238.332031 L 70.769531 236.449219 L 69.453125 235.570312 L 69.410156 235.527344 M 65.949219 239.121094 L 62.179688 242.714844 L 63.890625 243.988281 L 67.789062 239.953125 L 67.570312 239.824219 L 65.949219 239.121094 M 69.277344 246.660156 L 70.242188 245.871094 L 72.917969 243.503906 L 69.148438 240.699219 L 65.160156 244.953125 L 67.175781 246.792969 L 69.277344 246.660156 M 72.390625 246.355469 L 75.371094 245.785156 L 74.316406 244.777344 L 74.316406 244.6875 L 74.054688 244.46875 L 72.390625 246.355469 M 73.792969 242.585938 L 74.539062 241.621094 L 75.632812 239.429688 L 71.996094 237.238281 L 70.375 239.339844 L 69.847656 239.953125 C 71.515625 240.976562 72.828125 241.855469 73.792969 242.585938 M 79.488281 239.382812 L 79.359375 239.382812 L 78.742188 237.0625 L 77.734375 238.859375 L 79.621094 240.042969 L 79.488281 239.382812 M 75.5 244.164062 L 76.859375 245.347656 L 77.472656 245.082031 C 78.847656 244.5 79.765625 243.828125 80.234375 243.066406 L 80.320312 243.109375 L 79.925781 241.355469 C 79.402344 241.328125 78.421875 240.933594 76.992188 240.171875 L 74.84375 243.417969 L 75.5 244.164062 M 80.628906 244.292969 L 80.628906 244.335938 L 80.628906 244.292969 M 45.179688 236.535156 C 45.410156 236.535156 46.683594 237.410156 48.992188 239.164062 L 51.402344 237.410156 L 51.925781 237.015625 L 50 235.613281 L 47.851562 233.949219 L 45.527344 235.921875 L 45.003906 235.832031 L 44.914062 236.578125 L 45.179688 236.535156 M 46.929688 233.160156 L 45.527344 231.84375 L 45.132812 234.738281 L 46.929688 233.160156 M 44.695312 242.320312 L 44.519531 242.144531 L 44.519531 242.453125 L 44.695312 242.320312 M 44.738281 240.917969 L 45.746094 241.53125 L 47.808594 239.996094 L 44.828125 237.542969 L 44.738281 239.078125 L 44.609375 240.917969 L 44.738281 240.917969 M 45.703125 243.242188 L 44.652344 243.636719 L 44.433594 243.636719 L 44.300781 246.089844 L 47.675781 246.441406 L 48.550781 245.742188 L 47.589844 244.90625 L 45.703125 243.242188 M 61.480469 230.179688 L 58.367188 233.117188 L 60.296875 234.476562 L 61.214844 235 L 63.757812 232.632812 L 64.285156 232.152344 L 61.480469 230.179688 M 57.402344 233.949219 L 54.203125 236.710938 L 56.789062 238.902344 L 60.164062 235.964844 L 58.9375 235.042969 L 57.402344 233.949219 M 49.121094 232.808594 L 50.21875 233.640625 L 53.285156 235.964844 L 56.484375 233.292969 L 52.1875 230.308594 L 49.605469 232.328125 L 49.121094 232.808594 M 52.847656 237.804688 L 50.085938 240.042969 L 52.890625 242.234375 L 55.78125 239.777344 L 55.738281 239.734375 L 52.976562 237.71875 L 52.847656 237.804688 M 48.945312 240.917969 L 46.929688 242.453125 L 49.777344 244.777344 L 51.75 243.152344 L 51.136719 242.671875 L 48.945312 240.917969 M 52.101562 246.660156 L 54.90625 246.75 L 55.652344 246.136719 L 53.242188 244.292969 L 51.226562 245.960938 L 52.101562 246.660156 M 54.292969 243.375 L 56.746094 245.347656 L 59.945312 243.066406 L 57.054688 240.785156 L 55.605469 242.144531 L 54.292969 243.375 M 64.679688 238.550781 C 63.480469 237.96875 62.382812 237.367188 61.390625 236.753906 L 58.105469 239.824219 L 61.128906 241.96875 L 64.679688 238.550781 M 60.515625 244.207031 L 58.105469 246.398438 L 58.585938 246.835938 L 61.523438 246.835938 L 62.75 245.257812 L 60.953125 243.855469 L 60.515625 244.207031 M 64.851562 246.835938 L 63.976562 246.179688 L 63.363281 246.835938 L 64.851562 246.835938 "/>
<path style=" stroke:none;fill-rule:evenodd;fill:rgb(0%,0%,0%);fill-opacity:0.678431;" d="M 49.078125 68.558594 C 49.664062 68.851562 50.144531 69 50.523438 69 L 51.53125 69.480469 L 56.746094 70.09375 C 58.734375 70.242188 60.078125 70.519531 60.777344 70.925781 L 61.214844 71.367188 L 61.171875 71.191406 L 61.304688 70.796875 L 61.523438 71.714844 L 61.480469 71.714844 L 61.523438 71.761719 C 61.960938 73.894531 62.734375 77.253906 63.84375 81.84375 L 66.125 90.871094 L 65.859375 90.519531 L 64.371094 95.605469 L 64.238281 96.132812 L 66.253906 98.367188 L 67.308594 95.253906 L 67.921875 97.273438 L 67.351562 99.464844 L 69.324219 101.390625 C 70.375 104.578125 71.292969 108.097656 72.082031 111.957031 L 73.179688 117.4375 L 72.476562 115.070312 L 72.082031 115.199219 L 71.25 114.410156 L 69.9375 117.742188 L 71.820312 119.496094 L 72.214844 118.925781 C 72.359375 118.253906 72.652344 117.816406 73.089844 117.613281 L 73.265625 117.785156 L 73.53125 119.015625 C 73.003906 122.023438 72.742188 124.128906 72.742188 125.328125 L 73.179688 135.976562 L 73.398438 136.152344 L 73.308594 136.679688 L 73.222656 136.855469 C 73.925781 154.390625 74.273438 165.652344 74.273438 170.652344 L 73.703125 183.582031 L 73.835938 183.890625 L 73.703125 184.285156 L 73.703125 184.371094 L 73.835938 184.679688 L 73.660156 184.898438 L 73.617188 186.957031 L 73.53125 187.570312 L 73.265625 187.746094 C 73.355469 188.710938 73.484375 189.617188 73.660156 190.464844 C 73.925781 190.550781 74.054688 190.773438 74.054688 191.121094 L 73.96875 191.648438 L 73.96875 191.78125 L 74.230469 192 L 74.097656 192.128906 L 74.316406 192.832031 C 75.457031 196.074219 76.289062 199.378906 76.816406 202.738281 L 76.816406 205.851562 L 77.035156 209.402344 L 77.210938 209.882812 L 77.035156 210.191406 L 76.992188 215.40625 L 76.289062 224.085938 L 77.515625 228.820312 L 76.683594 228.820312 L 76.203125 227.109375 L 75.414062 228.644531 L 75.632812 228.820312 L 73.046875 228.820312 L 73.222656 228.558594 L 70.8125 226.761719 L 70.242188 227.460938 L 72.300781 228.820312 L 67.308594 228.820312 L 67.964844 228.074219 L 65.160156 226.191406 L 63.714844 227.8125 L 62.792969 228.820312 L 59.59375 228.820312 L 57.054688 226.847656 L 56.835938 226.671875 L 54.90625 228.382812 L 54.25 228.820312 L 50.085938 228.820312 C 48.539062 227.710938 47.339844 226.804688 46.492188 226.101562 L 46.40625 226.101562 L 45.96875 228.820312 L 44.695312 228.820312 L 44.785156 227.460938 C 44.929688 226.496094 45.164062 225.765625 45.484375 225.269531 L 45.398438 225.183594 C 44.34375 224.949219 43.015625 222.230469 41.410156 217.027344 C 40.007812 212.675781 39.304688 209.941406 39.304688 208.832031 L 39.394531 208.523438 L 39.175781 207.121094 L 39.042969 207.078125 L 39 206.597656 L 39.085938 206.507812 L 38.957031 203.921875 L 38.738281 203.132812 L 38.910156 202.5625 C 38.824219 200.402344 38.78125 197.726562 38.78125 194.542969 L 38.78125 187.175781 L 38.605469 185.863281 L 38.957031 185.863281 L 38.78125 183.890625 C 38.691406 181.960938 38.472656 180.558594 38.125 179.679688 C 37.625 178.425781 36.722656 176.628906 35.40625 174.289062 L 35.1875 174.378906 C 34.808594 174.203125 34.617188 173.984375 34.617188 173.71875 L 34.96875 173.5 L 33.960938 171.792969 L 32.03125 167.933594 C 31.214844 166.296875 30.761719 164.953125 30.675781 163.902344 L 30.5 162.324219 L 30.453125 162.234375 C 30.132812 160.191406 29.503906 158.113281 28.570312 156.011719 C 27.664062 154.082031 26.921875 151.421875 26.335938 148.03125 C 25.632812 144.085938 25.066406 141.441406 24.625 140.097656 C 21.707031 131.507812 20.246094 126.246094 20.246094 124.316406 L 20.246094 124.097656 C 19.515625 120.621094 18.578125 114.234375 17.441406 104.941406 L 16.257812 93.019531 L 15.863281 92.886719 L 15.644531 92.40625 L 16.125 91.792969 L 15.207031 82.804688 C 15.207031 82.367188 15.292969 82.089844 15.46875 81.972656 L 15.644531 78.421875 L 15.425781 71.933594 L 15.644531 70.972656 L 15.644531 70.925781 C 15.644531 70.195312 18.507812 69.261719 24.230469 68.121094 L 35.714844 68.078125 L 47.984375 68.429688 L 49.078125 68.558594 M 63.84375 85.085938 L 64.765625 86.355469 L 64.503906 85.128906 L 63.84375 85.085938 M 57.84375 84.210938 L 57.097656 86.136719 L 60.339844 91.046875 L 62.398438 85.65625 L 61.699219 84.824219 L 57.84375 84.210938 M 56.265625 83.945312 L 55.78125 83.859375 L 55.5625 83.859375 L 56.046875 84.558594 L 56.265625 83.945312 M 52.757812 83.464844 L 51.007812 87.890625 L 51.136719 88.109375 L 53.589844 91.835938 L 55.34375 86.53125 L 55.652344 85.742188 L 54.378906 83.683594 L 52.757812 83.464844 M 53.285156 95.167969 L 51.3125 99.683594 L 55.167969 103.847656 L 57.230469 99.027344 L 56.878906 98.585938 L 53.679688 94.335938 L 53.285156 95.167969 M 50.304688 89.644531 L 47.9375 95.5625 L 50.699219 98.9375 L 52.714844 94.160156 L 53.023438 93.414062 L 50.304688 89.644531 M 63.277344 86.882812 L 61.304688 92.492188 L 63.320312 95.082031 L 64.808594 89.074219 L 64.371094 88.417969 L 63.277344 86.882812 M 59.726562 92.320312 L 56.613281 87.277344 L 54.292969 92.886719 L 57.710938 97.886719 L 59.8125 92.449219 L 59.726562 92.320312 M 51.882812 83.375 L 47.589844 83.027344 L 50.171875 86.664062 L 51.882812 83.375 M 45.222656 82.894531 L 43.292969 88.8125 C 44.316406 90.535156 45.515625 92.320312 46.886719 94.160156 L 49.386719 88.328125 L 45.792969 82.9375 L 45.222656 82.894531 M 40.183594 82.71875 C 40.824219 84.238281 41.597656 85.816406 42.503906 87.453125 L 42.769531 86.445312 C 43.148438 85.070312 43.558594 83.875 43.996094 82.851562 L 40.183594 82.71875 M 37.992188 82.632812 L 34.660156 82.585938 L 37.160156 87.453125 L 37.378906 85.394531 C 37.496094 84.253906 37.699219 83.332031 37.992188 82.632812 M 33.347656 82.585938 L 31.417969 82.585938 L 28.570312 82.632812 C 28.570312 83.332031 28.453125 84.152344 28.21875 85.085938 L 30.585938 88.8125 L 30.847656 87.933594 C 31.8125 85.042969 32.660156 83.304688 33.390625 82.71875 L 33.347656 82.585938 M 38.035156 89.25 L 40.402344 93.765625 L 40.882812 92.539062 L 42.023438 89.117188 L 39.261719 84.035156 L 38.78125 86.183594 L 38.035156 89.25 M 36.765625 89.734375 L 34.003906 83.945312 L 32.074219 89.382812 L 31.683594 90.519531 L 32.207031 91.398438 L 34.441406 94.949219 L 36.5 90.785156 L 36.765625 89.734375 M 31.15625 92.757812 L 30.9375 92.40625 L 28.921875 97.054688 L 28.832031 97.226562 L 30.847656 100.429688 L 32.46875 98.148438 L 33.652344 96.613281 L 31.15625 92.757812 M 34.878906 95.648438 L 37.773438 100.121094 L 39.699219 95.386719 L 37.464844 91.136719 L 37.160156 91.792969 L 34.878906 95.648438 M 42.769531 90.476562 L 42.722656 90.390625 L 41.671875 93.152344 L 41.015625 94.949219 C 42.328125 97.34375 43.484375 99.304688 44.476562 100.824219 L 46.40625 95.429688 C 44.679688 93.386719 43.46875 91.734375 42.769531 90.476562 M 45.351562 102.09375 L 46.359375 103.410156 L 47.71875 104.941406 L 50.171875 100.078125 L 47.5 96.703125 L 45.351562 102.09375 M 43.996094 102.136719 C 42.769531 100.414062 41.570312 98.558594 40.402344 96.570312 L 38.5625 101.347656 L 42.242188 106.695312 L 43.996094 102.136719 M 45.265625 103.804688 L 44.871094 103.277344 L 43.074219 107.792969 L 43.730469 108.625 L 44.652344 109.894531 L 45.046875 109.28125 L 47.105469 105.996094 L 45.265625 103.804688 M 36.722656 105.820312 L 35.84375 108.1875 L 39 112.832031 L 39.21875 113.183594 L 41.628906 108.230469 L 41.714844 108.011719 L 37.949219 102.925781 L 36.722656 105.820312 M 31.550781 101.523438 L 35.054688 106.960938 L 35.757812 104.898438 L 37.117188 101.699219 L 34.003906 97.140625 L 31.550781 101.523438 M 31.769531 118.007812 L 30.980469 119.582031 L 33.523438 121.863281 L 35.492188 119.144531 L 32.820312 115.726562 L 31.769531 118.007812 M 34.53125 108.363281 L 30.894531 103.101562 L 28.832031 108.1875 L 32.515625 112.964844 L 34.53125 108.363281 M 33.433594 114.234375 L 36.238281 118.050781 L 38.5625 114.367188 L 38.253906 113.886719 L 35.320312 109.546875 L 33.433594 114.234375 M 45.398438 110.992188 L 48.289062 114.980469 L 49.078125 113.929688 L 51.402344 110.683594 L 47.851562 106.828125 L 45.835938 110.289062 L 45.398438 110.992188 M 42.503906 109.195312 L 40.09375 114.367188 L 40.796875 115.375 L 43.953125 110.90625 L 42.855469 109.414062 L 42.550781 109.0625 L 42.503906 109.195312 M 39.394531 115.59375 L 37.117188 119.277344 L 37.640625 119.976562 L 40.050781 116.515625 L 39.394531 115.59375 M 44.785156 112.042969 L 41.890625 116.824219 L 44.433594 120.109375 L 47.589844 115.902344 L 44.785156 112.042969 M 63.757812 97.667969 L 62.136719 102.488281 L 64.414062 104.679688 L 65.773438 99.988281 L 64.941406 99.070312 L 63.757812 97.667969 M 62.882812 96.613281 L 60.734375 93.808594 L 58.675781 98.457031 L 58.5 98.851562 L 61.433594 101.785156 L 62.882812 96.613281 M 61.566406 104.023438 L 59.769531 108.40625 L 62.441406 110.949219 L 63.011719 109.328125 L 63.84375 106.566406 L 61.566406 104.023438 M 57.972656 99.945312 L 55.78125 104.503906 L 56.089844 104.8125 L 59.199219 107.878906 L 60.953125 103.320312 L 57.972656 99.945312 M 55.125 105.730469 L 52.582031 110.464844 L 56 114.0625 L 58.761719 108.886719 L 55.34375 105.90625 L 55.125 105.730469 M 50.742188 100.953125 L 48.421875 105.777344 L 51.96875 109.765625 L 54.511719 105.164062 C 52.730469 103.496094 51.472656 102.09375 50.742188 100.953125 M 49.734375 115.023438 L 48.992188 115.988281 C 49.984375 117.304688 51.019531 118.503906 52.101562 119.582031 L 53.152344 118.09375 L 55.476562 114.894531 L 52.058594 111.34375 L 49.734375 115.023438 M 63.800781 110.511719 L 63.363281 111.78125 L 65.027344 113.359375 L 66.5625 109.457031 L 66.210938 109.105469 L 64.765625 107.574219 L 63.800781 110.511719 M 59.332031 109.371094 L 56.613281 114.71875 L 58.0625 116.078125 L 59.375 117.171875 L 59.59375 116.824219 C 60.558594 115.1875 61.375 113.5625 62.046875 111.957031 L 60.691406 110.640625 L 59.332031 109.371094 M 57.007812 116.429688 L 56.132812 115.550781 L 54.03125 118.925781 L 53.023438 120.417969 C 53.925781 121.207031 54.863281 121.9375 55.828125 122.609375 L 58.761719 118.09375 L 57.007812 116.429688 M 62.925781 112.789062 L 60.253906 117.875 L 62.574219 119.714844 L 64.632812 114.457031 L 62.925781 112.789062 M 70.023438 104.375 L 68.578125 108.886719 L 70.945312 111.695312 L 71.121094 111.472656 L 71.644531 112.21875 L 71.644531 112.703125 L 71.996094 113.273438 L 70.507812 106.695312 L 70.023438 104.375 M 66.824219 101.128906 L 65.421875 105.644531 L 67.308594 107.53125 L 69.015625 103.144531 C 68.433594 102.738281 67.703125 102.066406 66.824219 101.128906 M 65.949219 115.683594 L 65.246094 117.390625 L 63.84375 120.765625 L 66.300781 122.695312 C 66.914062 121.46875 67.539062 119.816406 68.183594 117.742188 L 65.949219 115.683594 M 68.578125 116.515625 C 69.015625 115.140625 69.484375 114.003906 69.980469 113.097656 L 67.832031 110.859375 L 66.386719 114.585938 L 68.578125 116.515625 M 76.949219 128.65625 L 76.816406 128.308594 L 76.949219 128.480469 L 76.949219 128.65625 M 67 123.265625 L 68.316406 124.363281 L 71.25 120.242188 L 69.453125 118.792969 L 67 123.265625 M 65.554688 123.96875 L 64.898438 123.441406 L 63.277344 122.082031 L 61.261719 126.730469 L 63.011719 128.085938 L 65.511719 124.011719 L 65.554688 123.96875 M 66.253906 124.539062 L 65.464844 125.808594 L 63.714844 128.613281 C 64.179688 128.992188 64.632812 129.34375 65.074219 129.664062 L 67.527344 125.589844 L 66.253906 124.539062 M 71.644531 125.195312 L 71.644531 121.949219 L 69.9375 124.492188 L 69.453125 125.28125 L 71.734375 127.125 L 71.644531 125.195312 M 68.621094 126.464844 L 66.082031 130.453125 L 68.664062 132.472656 C 69.949219 130.628906 70.914062 129.550781 71.558594 129.226562 L 71.820312 129.269531 L 71.777344 128.351562 C 71.367188 128.351562 70.316406 127.722656 68.621094 126.464844 M 70.332031 133.742188 L 72.039062 135.101562 L 71.910156 131.023438 L 70.332031 133.742188 M 65.511719 131.636719 C 64.867188 133.304688 64.179688 134.722656 63.449219 135.890625 L 65.511719 137.335938 L 67.789062 133.742188 L 67.964844 133.523438 L 65.511719 131.636719 M 67.089844 138.476562 L 70.023438 140.667969 L 71.777344 137.773438 L 72.171875 137.949219 L 72.128906 136.546875 L 69.671875 134.792969 L 67.089844 138.476562 M 70.113281 142.554688 L 67.65625 146.015625 L 70.066406 147.902344 L 71.863281 145.445312 L 72.433594 145.492188 L 72.476562 145.492188 L 72.433594 144.21875 L 70.113281 142.554688 M 72.390625 142.597656 L 72.214844 138.785156 C 72.039062 139.367188 71.601562 140.214844 70.898438 141.324219 L 72.390625 142.597656 M 66.167969 146.761719 L 65.160156 146.015625 C 64.34375 145.402344 63.566406 144.816406 62.835938 144.261719 L 60.820312 146.804688 L 64.238281 149.433594 L 64.285156 149.480469 L 65.773438 147.332031 L 66.167969 146.761719 M 69.191406 148.996094 L 66.78125 147.242188 L 65.511719 148.867188 L 64.808594 149.828125 L 67.089844 151.40625 L 68.882812 149.390625 L 69.191406 148.996094 M 72.523438 146.234375 C 72.40625 146.847656 71.9375 147.667969 71.121094 148.691406 L 71.6875 149.128906 L 72.566406 148.078125 L 72.523438 146.234375 M 70.199219 149.699219 L 69.058594 150.839844 L 67.875 151.890625 L 68.882812 152.503906 L 70.8125 150.136719 L 70.199219 149.699219 M 72.433594 149.742188 L 72.652344 149.875 L 72.609375 149.480469 L 72.433594 149.742188 M 69.234375 141.941406 L 66.210938 139.703125 L 65.335938 140.886719 L 63.714844 143.035156 L 66.957031 145.492188 L 69.234375 141.941406 M 72.695312 151.144531 L 72.652344 151.144531 C 72.507812 151.144531 72.199219 151 71.734375 150.707031 L 69.890625 153.117188 L 72.128906 154.34375 L 72.785156 153.511719 L 72.695312 151.144531 M 72.347656 155.660156 L 70.988281 157.542969 L 72.917969 158.859375 L 72.828125 155.746094 L 72.347656 155.660156 M 68.007812 155.570312 L 70.15625 156.976562 L 71.425781 155.308594 L 69.191406 154.082031 L 68.007812 155.570312 M 67 152.679688 L 65.554688 153.996094 L 66.914062 154.871094 L 68.140625 153.425781 L 67 152.679688 M 67.089844 156.753906 L 64.238281 160.394531 L 65.640625 161.269531 L 66.519531 161.796875 L 69.277344 158.160156 L 67.089844 156.753906 M 70.199219 158.683594 L 67.613281 162.277344 L 69.890625 163.15625 L 69.9375 163.15625 L 72.433594 159.910156 C 71.910156 159.679688 71.164062 159.269531 70.199219 158.683594 M 60.867188 127.648438 L 59.289062 130.675781 L 58.148438 132.253906 L 59.550781 133.214844 L 62.441406 129.007812 L 60.867188 127.648438 M 62.046875 121.03125 L 59.640625 118.882812 L 56.789062 123.308594 L 60.164062 125.894531 L 62.046875 121.03125 M 52.410156 121.335938 L 49.472656 125.675781 L 52.101562 128.042969 L 54.820312 124.097656 L 55.214844 123.484375 L 52.410156 121.335938 M 48.859375 126.554688 L 46.667969 129.710938 L 49.210938 131.945312 L 51.488281 128.875 L 48.859375 126.554688 M 55.5625 125.105469 L 52.890625 128.703125 L 53.066406 128.832031 L 57.140625 131.550781 L 58.851562 129.269531 L 59.8125 126.816406 L 56.222656 124.144531 L 55.5625 125.105469 M 51.488281 120.460938 C 50.378906 119.378906 49.3125 118.167969 48.289062 116.824219 L 45.132812 120.941406 L 48.464844 124.667969 L 51.488281 120.460938 M 52.582031 129.796875 L 52.234375 129.535156 L 49.953125 132.558594 L 53.722656 135.582031 L 53.765625 135.628906 L 56.351562 132.558594 L 52.582031 129.796875 M 50.960938 138.609375 L 52.847656 136.636719 L 52.363281 136.285156 L 49.078125 133.699219 L 47.808594 135.410156 L 50.960938 138.609375 M 54.03125 137.511719 L 52.101562 139.703125 L 53.152344 140.710938 L 55.214844 138.433594 L 54.03125 137.511719 M 56.132812 137.378906 L 56.527344 136.941406 L 58.761719 134.3125 L 57.402344 133.304688 L 54.90625 136.460938 L 56.132812 137.378906 M 63.101562 129.578125 L 60.296875 133.742188 L 62.441406 135.234375 L 64.589844 130.894531 L 64.328125 130.675781 L 63.101562 129.578125 M 57.316406 137.6875 L 57.007812 138.039062 L 59.550781 139.921875 C 60.019531 138.578125 60.617188 137.511719 61.347656 136.722656 L 61.65625 136.417969 L 59.507812 134.839844 L 57.316406 137.6875 M 62.574219 137.074219 L 62.003906 137.6875 C 61.421875 138.300781 60.925781 139.28125 60.515625 140.625 L 62.355469 142.027344 L 63.449219 140.40625 L 64.679688 138.609375 L 62.574219 137.074219 M 43.644531 121.117188 L 41.148438 118.007812 L 38.910156 121.6875 L 41.277344 124.449219 L 43.644531 121.117188 M 45.574219 128.703125 L 47.851562 125.589844 L 44.390625 121.949219 L 42.023438 125.28125 L 45.574219 128.703125 M 40.621094 125.371094 L 38.296875 122.652344 L 36.941406 124.84375 L 39.527344 127.078125 L 40.621094 125.371094 M 40.535156 127.957031 L 43.820312 131.15625 L 44.785156 129.796875 L 41.410156 126.246094 L 40.359375 127.824219 L 40.535156 127.957031 M 36.722656 120.679688 L 36.414062 120.285156 L 34.617188 122.828125 L 35.273438 123.398438 L 36.941406 120.988281 L 36.722656 120.679688 M 30.234375 120.898438 L 27.871094 124.273438 L 29.445312 125.984375 L 29.929688 126.421875 L 30.894531 125.28125 L 32.734375 122.960938 L 30.847656 121.425781 L 30.234375 120.898438 M 31.902344 128.351562 L 34.574219 124.449219 L 33.828125 123.835938 L 30.9375 127.429688 L 31.902344 128.351562 M 35.933594 126.421875 L 33.652344 130.015625 L 36.371094 132.515625 L 38.253906 129.226562 L 38.867188 128.132812 L 36.28125 125.894531 L 35.933594 126.421875 M 32.164062 138.082031 L 29.929688 135.671875 L 28.964844 136.941406 L 31.023438 139.308594 L 32.164062 138.082031 M 33.917969 138.257812 L 36.414062 140.582031 L 39.4375 136.941406 L 36.632812 134.3125 L 33.917969 138.257812 M 35.714844 133.480469 L 33.082031 130.894531 L 30.453125 134.839844 L 32.863281 137.25 L 35.714844 133.480469 M 44.871094 132.253906 L 47.148438 134.664062 L 48.332031 133.085938 L 45.878906 130.847656 L 44.871094 132.253906 M 42.988281 132.253906 L 39.699219 128.964844 L 38.910156 130.367188 L 37.246094 133.347656 L 40.183594 135.976562 L 41.980469 133.609375 L 42.988281 132.253906 M 42.285156 137.820312 C 42.722656 138.226562 43.222656 138.652344 43.777344 139.089844 L 43.863281 138.914062 L 46.40625 135.671875 L 44.082031 133.390625 L 41.410156 137.074219 L 42.285156 137.820312 M 40.664062 138.039062 L 37.730469 141.765625 L 40.3125 144.042969 L 43.117188 140.011719 L 41.015625 138.34375 L 40.664062 138.039062 M 44.566406 139.746094 L 47.542969 141.984375 L 50.21875 139.398438 L 47.105469 136.371094 L 44.566406 139.746094 M 30.324219 128.132812 L 27.476562 131.332031 L 28.832031 132.996094 L 31.375 129.183594 L 30.324219 128.132812 M 43.953125 140.667969 L 41.191406 144.746094 L 42.417969 145.710938 L 43.03125 146.148438 L 46.753906 142.773438 L 43.953125 140.667969 M 41.101562 146.148438 L 40.445312 145.710938 L 39.132812 147.199219 L 38.515625 147.8125 L 39.570312 148.996094 L 40.183594 148.515625 L 42.15625 146.894531 L 41.101562 146.148438 M 46.492188 150.53125 C 45.820312 151.496094 44.914062 152.53125 43.777344 153.644531 C 44.796875 154.636719 46.023438 155.660156 47.457031 156.710938 L 48.027344 156.011719 L 50.742188 152.8125 L 46.84375 150.136719 L 46.492188 150.53125 M 43.644531 147.945312 L 40.707031 150.3125 L 42.328125 152.152344 L 42.898438 152.765625 L 45.574219 149.828125 L 45.878906 149.480469 L 43.644531 147.945312 M 46.535156 148.601562 L 49.558594 144.832031 L 48.15625 143.824219 L 44.519531 147.199219 L 46.535156 148.601562 M 35.492188 144.394531 L 37.816406 147.023438 L 38.472656 146.324219 L 39.527344 145.050781 L 36.894531 142.773438 L 35.492188 144.394531 M 31.15625 141.71875 L 30.28125 142.597656 L 32.207031 145.050781 L 33.214844 144.042969 L 31.15625 141.71875 M 34.222656 142.949219 L 35.582031 141.5 L 33.214844 139.179688 L 32.121094 140.582031 L 34.222656 142.949219 M 32.339844 147.550781 C 30.996094 148.691406 29.898438 149.363281 29.050781 149.566406 L 30.675781 151.757812 L 32.296875 150.792969 L 34.089844 149.742188 L 32.339844 147.550781 M 33.433594 146.628906 L 35.273438 148.996094 L 36.675781 147.945312 L 34.441406 145.492188 L 33.390625 146.585938 L 33.433594 146.628906 M 35.976562 149.917969 L 36.851562 151.058594 L 38.472656 149.828125 L 37.464844 148.777344 L 35.976562 149.917969 M 31.507812 155.132812 L 30.410156 153.425781 L 29.050781 153.773438 L 29.492188 155.660156 L 30.058594 156.230469 L 31.507812 155.132812 M 32.558594 154.34375 L 35.84375 151.847656 L 34.925781 150.707031 L 33.871094 151.40625 L 31.507812 152.898438 L 32.558594 154.34375 M 33.917969 156.230469 L 35.582031 158.554688 L 36.632812 157.808594 C 37.539062 157.164062 38.386719 156.535156 39.175781 155.921875 L 36.851562 153.117188 L 33.347656 155.441406 L 33.917969 156.230469 M 33.433594 160.042969 L 34.441406 159.34375 L 32.207031 156.097656 L 30.71875 156.976562 L 33.433594 160.042969 M 29.972656 157.851562 L 31.023438 161.710938 L 32.382812 160.746094 L 29.972656 157.851562 M 36.371094 159.605469 C 37.480469 161.125 38.515625 162.484375 39.480469 163.683594 L 43.164062 160.875 L 39.964844 156.929688 L 37.683594 158.640625 L 36.371094 159.605469 M 34.3125 161.050781 L 35.011719 161.882812 L 37.597656 164.910156 L 38.386719 164.425781 L 35.230469 160.394531 L 34.3125 161.050781 M 41.015625 156.097656 C 42.300781 157.414062 43.425781 158.4375 44.390625 159.167969 L 44.738281 159.429688 L 46.886719 157.324219 L 43.117188 154.214844 L 41.015625 156.097656 M 41.234375 152.589844 L 39.65625 151.101562 L 37.902344 152.371094 L 39.699219 154.695312 L 40.140625 155.175781 L 42.199219 153.425781 L 41.234375 152.589844 M 58.105469 143.167969 C 58.398438 142.816406 58.703125 142.21875 59.023438 141.371094 L 56.132812 139.132812 L 54.117188 141.5 L 54.90625 142.160156 L 57.402344 144.132812 L 58.105469 143.167969 M 58.980469 143.957031 L 58.238281 144.789062 L 59.640625 145.882812 L 61.523438 143.253906 L 60.03125 142.113281 C 59.710938 142.933594 59.359375 143.546875 58.980469 143.957031 M 58.675781 149.566406 L 62.398438 151.933594 L 63.625 150.355469 L 60.078125 147.769531 L 58.675781 149.566406 M 57.449219 145.753906 L 55.914062 147.726562 L 57.402344 148.734375 L 57.535156 148.820312 L 58.9375 146.894531 L 57.449219 145.753906 M 48.992188 143.035156 L 50.304688 143.957031 L 52.453125 141.5 L 51.402344 140.492188 L 48.992188 143.035156 M 54.335938 149.875 L 52.277344 152.722656 L 53.765625 153.820312 L 55.257812 151.847656 L 56.789062 149.875 L 55.167969 148.734375 L 54.335938 149.875 M 55.082031 147.199219 L 56.660156 145.140625 L 53.371094 142.378906 L 51.402344 144.746094 L 55.082031 147.199219 M 50.65625 145.621094 L 47.542969 149.304688 L 51.355469 152.023438 L 54.335938 148.207031 L 50.65625 145.621094 M 54.644531 154.433594 L 57.316406 156.449219 C 57.492188 156.566406 57.679688 156.667969 57.886719 156.753906 L 61.480469 153.074219 L 59.417969 151.671875 L 57.84375 150.574219 L 56.222656 152.460938 L 54.644531 154.433594 M 51.3125 159.34375 L 53.636719 160.746094 L 57.230469 157.324219 L 57.359375 157.238281 L 56.613281 156.753906 L 54.160156 155.132812 L 51.925781 158.378906 L 51.3125 159.34375 M 47.761719 157.984375 L 45.660156 160.175781 L 47.589844 161.929688 L 49.515625 159.34375 L 47.761719 157.984375 M 48.332031 157.371094 L 50.128906 158.554688 L 53.242188 154.519531 L 51.707031 153.46875 L 48.992188 156.625 L 48.332031 157.371094 M 50.742188 160.175781 L 48.816406 163.066406 L 50.304688 164.46875 L 52.847656 161.578125 L 50.742188 160.175781 M 62.003906 153.425781 L 58.804688 157.28125 L 59.59375 157.71875 C 60.761719 156.375 62.035156 155.25 63.40625 154.34375 L 62.003906 153.425781 M 64.722656 153.46875 L 66.300781 152.195312 L 64.109375 150.707031 L 62.882812 152.285156 L 64.722656 153.46875 M 64.019531 155.351562 L 61.039062 158.554688 L 63.011719 159.691406 L 65.992188 156.054688 L 64.414062 155.003906 L 64.019531 155.351562 M 58.238281 157.851562 L 57.972656 158.070312 L 54.730469 161.402344 L 56.046875 162.105469 L 58.585938 158.902344 L 59.023438 158.332031 L 58.238281 157.851562 M 60.425781 159.210938 L 57.097656 162.671875 L 59.59375 163.988281 L 62.398438 160.480469 C 61.757812 160.074219 61.097656 159.648438 60.425781 159.210938 M 56.878906 169.730469 L 57.753906 170.257812 L 59.464844 171.265625 L 62.792969 166.835938 L 60.253906 165.480469 L 58.191406 168.066406 L 56.878906 169.730469 M 57.183594 170.695312 L 56.527344 170.214844 L 55.082031 172.054688 L 56.789062 173.632812 L 57.402344 174.070312 L 58.9375 172.011719 L 57.183594 170.695312 M 63.449219 165.917969 L 65.949219 162.585938 L 63.625 161.226562 L 60.910156 164.644531 L 63.449219 165.917969 M 60.601562 171.921875 L 62.617188 173.105469 L 65.949219 168.503906 L 63.890625 167.40625 L 60.601562 171.921875 M 54.90625 164.863281 L 53.066406 167.011719 L 55.652344 168.941406 L 58.9375 164.820312 L 56.308594 163.460938 L 54.90625 164.863281 M 53.941406 162.234375 L 51.179688 165.347656 L 52.144531 166.222656 L 54.46875 163.855469 L 55.300781 162.980469 L 53.941406 162.234375 M 47.851562 164.382812 L 49.253906 165.875 L 49.824219 165.128906 L 48.246094 163.902344 L 47.9375 164.25 L 47.851562 164.382812 M 50.742188 165.875 L 50.042969 166.707031 L 50.394531 167.058594 L 50.875 167.582031 L 51.75 166.617188 L 50.742188 165.875 M 48.769531 168.195312 L 46.1875 171.003906 L 47.371094 172.054688 L 49.558594 169.160156 L 48.769531 168.195312 M 52.804688 171.265625 L 53.285156 171.921875 L 53.371094 171.835938 L 52.804688 171.265625 M 52.804688 167.40625 L 51.839844 168.636719 L 54.03125 171.003906 L 54.074219 170.914062 L 55.34375 169.335938 L 52.804688 167.40625 M 56.222656 175.648438 L 56.746094 174.945312 C 56.277344 174.566406 55.855469 174.203125 55.476562 173.851562 L 54.425781 172.886719 L 54.25 173.148438 L 55.386719 174.597656 L 56.222656 175.648438 M 53.417969 174.203125 L 51.96875 176.085938 L 54.425781 178.101562 L 55.433594 176.746094 L 53.417969 174.203125 M 50.832031 175.078125 L 52.496094 172.976562 L 50.523438 170.433594 L 48.550781 173.105469 L 50.832031 175.078125 M 47.808594 174.113281 L 46.625 175.734375 L 48.683594 177.839844 L 50.128906 175.957031 L 49.253906 175.253906 L 47.808594 174.113281 M 50.917969 179.902344 L 52.277344 181.085938 L 53.8125 178.9375 L 51.3125 176.917969 L 49.777344 178.847656 L 50.917969 179.902344 M 49.558594 180.515625 L 48.992188 179.855469 L 45.746094 184.019531 L 47.851562 185.863281 L 48.992188 185.863281 L 51.355469 182.441406 L 49.558594 180.515625 M 53.285156 181.960938 L 55.167969 183.625 L 56.703125 181.480469 L 55.871094 180.734375 L 54.820312 179.8125 L 53.285156 181.960938 M 55.476562 178.9375 L 57.402344 180.46875 L 57.929688 179.726562 L 56.308594 177.796875 L 55.476562 178.9375 M 61.699219 176.917969 L 64.019531 178.542969 L 65.730469 176.699219 L 63.101562 174.945312 L 61.699219 176.917969 M 58.5 174.773438 L 60.472656 176.128906 L 61.917969 174.113281 L 59.988281 172.753906 L 58.5 174.773438 M 57.097656 176.699219 L 58.71875 178.585938 L 59.683594 177.226562 L 57.796875 175.78125 L 57.097656 176.699219 M 59.726562 179.679688 L 61.390625 181.433594 L 63.054688 179.59375 L 60.867188 178.058594 L 59.726562 179.679688 M 58.894531 180.820312 L 58.5 181.347656 L 60.253906 182.664062 L 60.382812 182.53125 L 58.894531 180.820312 M 65.203125 179.332031 L 66.867188 180.207031 L 68.316406 178.324219 L 66.386719 177.140625 L 66.035156 177.578125 L 64.808594 179.066406 L 65.203125 179.332031 M 62.136719 182.179688 L 64.109375 184.019531 L 65.949219 181.480469 L 64.808594 180.734375 L 63.890625 180.121094 L 62.136719 182.179688 M 43.953125 161.929688 L 42.199219 163.59375 L 40.535156 164.996094 L 42.855469 167.757812 C 43.964844 166.648438 44.960938 165.507812 45.835938 164.339844 L 44.609375 162.761719 L 43.953125 161.929688 M 46.929688 162.847656 L 44.960938 161.226562 L 46.710938 163.113281 L 46.929688 162.847656 M 41.933594 168.589844 L 39.480469 165.785156 L 38.691406 166.269531 L 41.148438 169.25 L 41.933594 168.589844 M 42.066406 170.34375 L 43.382812 172.011719 L 43.425781 172.054688 L 44.433594 171.175781 L 42.898438 169.644531 L 42.066406 170.34375 M 41.191406 171.003906 C 39.730469 172.054688 38.179688 172.976562 36.546875 173.761719 L 37.992188 176.699219 L 41.980469 173.28125 L 42.59375 172.753906 L 42.285156 172.40625 L 41.191406 171.003906 M 40.3125 169.949219 L 37.683594 166.882812 C 36.195312 167.699219 34.851562 168.152344 33.652344 168.242188 L 36.0625 172.800781 L 38.910156 171.003906 L 40.3125 169.949219 M 45.398438 170.300781 L 48.15625 167.363281 L 46.84375 165.699219 L 43.863281 168.808594 L 44.609375 169.554688 L 45.398438 170.300781 M 33.257812 161.753906 L 31.375 162.761719 C 31.871094 164.398438 32.410156 165.828125 32.996094 167.058594 L 33.039062 167.144531 L 36.457031 165.480469 L 34.265625 162.9375 L 33.257812 161.753906 M 38.515625 177.839844 L 41.320312 180.121094 L 41.847656 179.460938 L 45.046875 175.472656 L 43.425781 173.675781 C 41.761719 175.167969 40.082031 176.46875 38.386719 177.578125 L 38.515625 177.839844 M 45.617188 174.683594 L 46.492188 173.324219 L 46.625 173.105469 L 45.265625 171.964844 L 44.171875 173.019531 L 45.617188 174.683594 M 40.488281 181.128906 C 40.140625 180.804688 39.832031 180.515625 39.570312 180.25 L 40.09375 181.609375 L 40.488281 181.128906 M 44.695312 183.054688 L 47.984375 178.761719 L 46.054688 176.570312 L 42.503906 181.128906 L 44.695312 183.054688 M 43.511719 183.84375 L 41.585938 182.136719 L 40.09375 183.449219 L 40.09375 185.863281 L 41.714844 185.863281 L 42.109375 186.257812 L 42.375 185.863281 L 42.679688 185.863281 L 43.90625 184.195312 L 43.511719 183.84375 M 45.921875 185.863281 L 44.960938 185.074219 L 43.117188 187.394531 L 45.222656 189.457031 L 46.492188 188.011719 L 47.019531 187.351562 L 45.046875 185.863281 L 45.921875 185.863281 M 40.09375 187.441406 L 39.746094 187.660156 L 39.917969 189.589844 L 41.277344 187.527344 C 41.101562 187.265625 41.015625 187.046875 41.015625 186.871094 L 40.09375 186.167969 L 40.09375 187.441406 M 40.050781 192.347656 L 40.09375 193.839844 L 40.09375 195.199219 L 41.367188 193.753906 L 40.050781 192.347656 M 40.007812 190.773438 L 40.09375 190.773438 L 42.242188 192.699219 L 44.300781 190.464844 L 43.25 189.542969 L 42.023438 188.40625 L 40.269531 190.683594 L 40.007812 190.640625 L 40.007812 190.773438 M 46.273438 190.464844 L 48.726562 192.742188 L 50.785156 190.070312 L 50.917969 189.9375 L 48.113281 188.097656 L 47.414062 188.972656 L 46.273438 190.464844 M 43.511719 193.839844 C 44.273438 194.542969 45.015625 195.214844 45.746094 195.855469 L 47.675781 193.882812 L 45.441406 191.515625 L 43.511719 193.839844 M 44.695312 196.953125 L 42.550781 194.890625 C 41.4375 196.0625 40.707031 196.644531 40.359375 196.644531 L 40.226562 196.644531 C 40.8125 196.851562 41.425781 197.375 42.066406 198.222656 L 42.503906 198.925781 L 43.996094 197.566406 L 44.695312 196.953125 M 47.589844 197.523438 L 49.386719 195.59375 L 48.683594 194.980469 L 46.886719 196.910156 L 47.589844 197.523438 M 46.535156 198.660156 L 46.492188 198.617188 L 45.792969 197.960938 L 45.441406 198.3125 L 43.382812 200.285156 L 43.996094 201.335938 L 45.878906 199.320312 L 46.535156 198.660156 M 41.015625 200.328125 L 40.050781 199.054688 L 40.050781 201.246094 L 41.015625 200.328125 M 40.050781 202.605469 L 40.050781 203.21875 L 41.015625 204.449219 L 42.8125 202.5625 L 41.933594 201.511719 C 41.03125 202.210938 40.402344 202.578125 40.050781 202.605469 M 43.90625 203.878906 L 42.023438 205.71875 L 42.375 206.203125 L 44.257812 204.316406 L 43.90625 203.878906 M 45.265625 203.351562 L 48.550781 200.460938 L 47.761719 199.757812 L 44.960938 202.824219 L 45.265625 203.351562 M 46.1875 204.667969 C 47.355469 206.304688 48.566406 207.792969 49.824219 209.136719 L 54.160156 205.5 L 49.558594 201.378906 L 47.238281 203.21875 L 46.1875 204.667969 M 63.84375 186.652344 L 63.011719 187.746094 L 62.96875 187.746094 L 62.09375 188.886719 L 66.167969 191.957031 L 66.34375 191.691406 L 68.007812 189.367188 L 64.941406 187.394531 L 63.84375 186.652344 M 58.628906 186.34375 L 60.996094 188.097656 L 62.707031 185.90625 L 60.339844 184.285156 L 58.628906 186.34375 M 59.417969 183.625 L 57.753906 182.355469 L 56.222656 184.546875 L 57.621094 185.816406 L 59.417969 183.625 M 59.859375 189.5 L 57.492188 187.789062 L 55.433594 190.640625 L 57.667969 192.175781 L 59.859375 189.5 M 58.804688 192.964844 L 61.609375 195.023438 L 63.230469 196.25 L 65.027344 193.621094 L 61.214844 190.550781 L 60.953125 190.332031 L 58.804688 192.964844 M 55.214844 186.167969 L 53.152344 189.0625 L 54.378906 189.894531 L 56.613281 187.175781 L 55.433594 186.300781 L 55.214844 186.167969 M 53.546875 185.863281 L 53.636719 185.863281 L 54.117188 185.160156 L 52.234375 183.363281 L 49.734375 186.828125 L 51.96875 188.273438 L 53.546875 185.863281 M 49.777344 193.707031 L 50.480469 194.367188 L 53.195312 191.339844 L 52.058594 190.640625 L 51.75 191.035156 L 49.777344 193.707031 M 54.074219 197.609375 L 58.71875 201.421875 L 58.804688 201.46875 L 60.382812 199.976562 L 62.355469 197.476562 L 60.078125 195.59375 L 57.753906 194.148438 L 56.046875 195.855469 L 54.074219 197.609375 M 55.167969 194.890625 L 56.570312 193.402344 L 54.335938 192.042969 L 51.574219 195.375 L 53.023438 196.6875 L 55.167969 194.890625 M 48.769531 198.617188 L 49.691406 199.449219 L 51.882812 197.609375 L 50.566406 196.558594 L 48.769531 198.617188 M 55.167969 204.625 L 57.929688 202.257812 L 57.402344 201.949219 L 53.023438 198.53125 L 50.742188 200.414062 L 55.167969 204.625 M 64.546875 201.511719 L 65.859375 200.371094 L 63.496094 198.441406 L 61.347656 200.898438 L 59.988281 202.125 L 62.179688 203.441406 L 64.546875 201.511719 M 59.023438 203 L 56.089844 205.542969 L 57.183594 206.640625 L 57.84375 207.210938 L 59.507812 205.632812 L 61.085938 204.359375 L 59.023438 203 M 70.285156 164.777344 L 67.832031 168.285156 L 70.375 169.730469 C 71.398438 168.007812 72.300781 166.707031 73.089844 165.828125 L 73.136719 165.828125 L 73.136719 165.609375 C 72.433594 165.550781 71.484375 165.273438 70.285156 164.777344 M 73.089844 164.734375 L 73.003906 160.832031 L 71.074219 163.636719 L 73.089844 164.734375 M 67 163.15625 L 64.546875 166.488281 L 66.605469 167.625 L 69.105469 164.25 L 67 163.15625 M 67.21875 169.160156 L 63.890625 173.851562 L 66.78125 175.5625 L 69.628906 170.914062 L 69.847656 170.5625 L 67.21875 169.160156 M 70.988281 171.175781 L 67.394531 175.910156 L 69.277344 177.050781 L 72.523438 172.84375 L 73.046875 172.886719 L 73.089844 172.1875 L 72.871094 172.1875 L 70.988281 171.175781 M 71.515625 170.433594 L 73.136719 171.617188 L 73.179688 170.476562 L 73.179688 167.757812 L 71.515625 170.433594 M 70.375 177.707031 L 72.652344 179.113281 L 72.960938 173.808594 L 70.375 177.707031 M 68.097656 180.820312 L 70.285156 181.875 L 72.433594 183.101562 L 72.609375 180.25 C 71.851562 180.105469 70.796875 179.667969 69.453125 178.9375 L 68.097656 180.820312 M 71.6875 184.679688 C 70.578125 184.210938 69.058594 183.378906 67.132812 182.179688 L 65.117188 184.941406 L 66.210938 185.863281 L 66.429688 185.863281 L 66.605469 186.039062 L 69.105469 187.964844 L 69.890625 186.914062 L 70.726562 185.863281 L 70.945312 185.863281 L 71.121094 185.511719 L 71.6875 184.679688 M 71.25 187.921875 L 70.507812 189.019531 L 71.425781 189.761719 L 71.644531 189.71875 L 72.742188 190.640625 L 72.917969 190.550781 C 72.625 189.324219 72.433594 188.113281 72.347656 186.914062 C 71.964844 187.46875 71.601562 187.804688 71.25 187.921875 M 67.613281 193.050781 L 69.71875 194.628906 L 70.15625 193.839844 L 71.734375 191.648438 L 71.644531 191.5625 L 71.425781 191.296875 L 71.382812 191.253906 L 71.339844 191.253906 C 71.191406 191.253906 70.609375 190.945312 69.585938 190.332031 L 68.140625 192.304688 L 67.613281 193.050781 M 73.53125 192.613281 L 73.484375 192.613281 L 71.339844 195.855469 L 71.820312 196.207031 L 73.792969 193.445312 L 73.53125 192.613281 M 70.113281 197.390625 L 68.796875 199.054688 L 67.875 199.933594 L 68.664062 200.546875 L 70.679688 197.785156 L 70.113281 197.390625 M 66.386719 194.671875 L 64.457031 197.214844 L 66.957031 199.230469 C 67.425781 198.707031 67.773438 198.207031 68.007812 197.742188 L 68.710938 196.425781 L 66.386719 194.671875 M 66.648438 201.027344 L 63.277344 204.097656 L 65.117188 205.324219 L 67.65625 201.863281 L 66.648438 201.027344 M 69.847656 201.511719 L 74.1875 205.105469 L 75.5 203.570312 L 75.941406 203.746094 C 76.054688 202.429688 75.941406 201.539062 75.589844 201.074219 L 75.589844 200.898438 L 75.414062 199.976562 L 75.152344 199.976562 C 74.507812 199.976562 73.425781 199.507812 71.910156 198.574219 L 69.847656 201.511719 M 74.582031 195.503906 L 74.316406 194.804688 L 72.960938 197.039062 L 75.152344 198.707031 L 74.582031 195.503906 M 75.941406 206.816406 L 76.027344 205.367188 L 75.984375 205.148438 L 75.941406 204.710938 L 75.105469 205.9375 L 75.941406 206.816406 M 75.5 208.042969 C 75.414062 208.042969 75.003906 207.75 74.273438 207.164062 L 71.382812 211.328125 L 73.003906 212.644531 L 73.484375 213.039062 L 75.019531 210.980469 C 75.046875 209.957031 75.382812 209.371094 76.027344 209.226562 L 75.984375 208 L 75.5 208.042969 M 74.667969 214.046875 L 76.113281 215.363281 L 76.070312 211.679688 L 74.667969 214.046875 M 73.222656 206.375 L 68.882812 202.871094 L 66.34375 206.246094 C 67.65625 207.269531 68.476562 208.144531 68.796875 208.875 C 68.882812 209.078125 69.394531 209.589844 70.332031 210.410156 L 72.960938 206.726562 L 73.222656 206.375 M 69.671875 211.460938 L 67.527344 209.402344 L 65.378906 207.472656 L 63.011719 210.277344 L 62.488281 210.980469 L 67 214.660156 C 68.257812 213.347656 69.148438 212.28125 69.671875 211.460938 M 70.59375 212.46875 L 67.964844 215.449219 L 70.679688 217.6875 L 72.742188 214.265625 L 72.785156 214.222656 L 71.644531 213.214844 L 70.679688 212.382812 L 70.59375 212.46875 M 74.054688 220.449219 L 75.851562 217.992188 L 75.984375 216.851562 L 73.925781 215.1875 L 71.734375 218.519531 L 74.054688 220.449219 M 66.695312 216.765625 L 63.757812 219.878906 L 66.867188 222.199219 L 69.761719 218.914062 L 66.695312 216.765625 M 69.761719 226.015625 L 67.089844 224.042969 L 66.34375 224.875 L 69.148438 226.714844 L 69.761719 226.015625 M 66.125 223.296875 L 62.925781 220.929688 L 61.875 222.027344 C 63.160156 222.84375 64.371094 223.617188 65.511719 224.347656 L 66.125 223.296875 M 73.355469 221.410156 L 70.945312 219.746094 L 67.964844 223.035156 L 70.59375 225.007812 L 73.355469 221.410156 M 71.601562 225.75 L 73.878906 227.503906 C 74.667969 226.277344 75.269531 225.664062 75.675781 225.664062 L 75.808594 225.707031 L 75.414062 224.042969 L 75.457031 222.769531 L 75.324219 222.769531 L 74.363281 222.113281 L 71.644531 225.664062 L 71.601562 225.75 M 74.976562 221.191406 L 75.5 221.632812 L 75.632812 220.316406 L 74.976562 221.191406 M 64.195312 206.550781 L 62.179688 205.105469 L 60.253906 206.816406 L 59.246094 208.347656 L 61.433594 210.101562 L 62.003906 209.269531 L 64.195312 206.550781 M 60.382812 211.503906 L 58.324219 209.488281 L 56.921875 210.761719 L 54.378906 212.996094 L 54.773438 213.257812 L 57.535156 215.230469 L 60.382812 211.503906 M 61.390625 212.46875 L 58.585938 215.976562 L 62.664062 219 L 65.640625 216.019531 L 64.019531 214.878906 L 61.390625 212.46875 M 55.125 206.375 L 51.882812 209.183594 L 50.785156 210.058594 L 53.152344 212.117188 L 56.921875 208.128906 L 55.914062 207.164062 L 55.125 206.375 M 48.816406 209.882812 L 45.441406 205.675781 L 45.398438 205.632812 L 43.6875 207.734375 C 44.710938 208.964844 45.515625 209.824219 46.097656 210.320312 L 47.238281 211.285156 L 48.859375 209.925781 L 48.816406 209.882812 M 48.246094 212.117188 L 50.832031 214.222656 L 52.1875 213.171875 C 51.3125 212.527344 50.496094 211.769531 49.734375 210.890625 L 48.246094 212.117188 M 52.496094 214.484375 L 51.839844 215.054688 L 55.257812 217.730469 L 55.605469 217.421875 L 56.613281 216.285156 L 53.285156 213.960938 L 53.242188 213.917969 L 52.496094 214.484375 M 56.394531 218.519531 L 60.601562 221.191406 L 61.699219 220.007812 L 57.667969 217.074219 L 56.441406 218.429688 L 56.394531 218.519531 M 48.902344 219 L 51.269531 220.84375 L 54.203125 218.5625 L 50.875 215.890625 L 48.027344 218.300781 L 48.902344 219 M 47.851562 225.402344 L 52.410156 228.734375 L 53.984375 227.460938 L 55.78125 225.925781 L 51.445312 222.726562 L 47.851562 225.402344 M 52.582031 221.851562 L 56.746094 225.007812 L 59.464844 222.375 C 57.855469 221.265625 56.511719 220.300781 55.433594 219.484375 L 52.582031 221.851562 M 47.761719 220.054688 L 46.84375 219.308594 L 44.390625 221.410156 L 44.519531 221.675781 L 45.574219 223.734375 L 46.667969 224.566406 L 50.128906 221.761719 L 47.761719 220.054688 M 57.796875 225.796875 L 58.457031 226.277344 C 59.273438 226.890625 60.28125 227.59375 61.480469 228.382812 L 62.617188 226.890625 C 62.765625 226.6875 63.289062 226.25 64.195312 225.578125 L 60.648438 223.210938 L 57.796875 225.796875 M 40.140625 207.121094 L 40.183594 208.964844 C 40.417969 208.496094 40.839844 207.910156 41.453125 207.210938 L 40.925781 206.640625 L 40.140625 207.121094 M 40.050781 209.3125 L 40.09375 209.183594 L 40.007812 209.226562 L 40.050781 209.3125 M 40.359375 210.277344 L 40.664062 211.285156 L 40.796875 211.285156 L 43.777344 214.265625 L 46.40625 211.988281 L 46.097656 211.722656 L 42.855469 208.65625 C 41.832031 209.765625 41.148438 210.320312 40.796875 210.320312 L 40.359375 210.277344 M 42.417969 215.539062 L 41.804688 214.878906 L 42.109375 215.84375 L 42.417969 215.539062 M 44.828125 215.273438 L 47.019531 217.378906 L 49.867188 215.011719 L 47.371094 212.863281 L 46.886719 213.257812 L 44.828125 215.273438 M 43.46875 216.503906 L 42.503906 217.160156 L 43.863281 220.316406 L 45.746094 218.476562 L 43.46875 216.503906 M 27.300781 83.640625 L 27.605469 82.632812 L 26.597656 82.632812 L 27.300781 83.640625 M 24.933594 82.675781 L 22.832031 82.71875 L 21.867188 85.960938 L 24.757812 90.652344 C 25.371094 89.28125 26.015625 87.597656 26.6875 85.613281 L 24.933594 82.675781 M 18.710938 82.851562 L 16.5625 83.070312 L 16.300781 83.289062 C 16.535156 84.457031 16.796875 86.386719 17.089844 89.074219 L 17.570312 90.039062 L 20.246094 86.707031 L 20.289062 86.269531 L 18.710938 82.851562 M 20.683594 82.851562 L 20.289062 82.804688 L 19.9375 82.804688 L 20.8125 84.253906 L 21.472656 82.761719 L 20.683594 82.851562 M 17.441406 92.84375 L 18.097656 100.253906 L 20.113281 97.621094 C 18.972656 95.753906 18.113281 94.144531 17.527344 92.800781 L 17.441406 92.84375 M 20.902344 96.570312 L 23.839844 92.363281 L 21.164062 87.890625 C 20.347656 89.820312 19.484375 91.222656 18.578125 92.097656 L 20.902344 96.570312 M 24.101562 94.292969 L 21.777344 98.148438 L 24.277344 102.269531 C 25.589844 100.429688 26.597656 98.921875 27.300781 97.753906 L 24.539062 93.503906 L 24.101562 94.292969 M 28.132812 96.042969 L 29.929688 90.828125 L 27.605469 87.101562 C 27.082031 88.476562 26.363281 90.039062 25.460938 91.792969 L 28.132812 96.042969 M 23.664062 103.101562 L 21.078125 99.15625 C 20.171875 100.382812 19.414062 101.230469 18.796875 101.699219 L 20.726562 105.730469 L 21.078125 106.433594 L 22.523438 104.546875 L 23.664062 103.101562 M 27.695312 106.785156 L 30.148438 101.960938 L 28 98.804688 L 25.019531 103.363281 L 25.941406 104.59375 L 27.695312 106.785156 M 24.40625 104.199219 L 21.648438 107.617188 L 24.363281 112.789062 L 27.082031 107.96875 L 26.117188 106.652344 L 24.40625 104.199219 M 20.15625 106.960938 L 18.40625 103.410156 L 18.492188 104.152344 L 19.238281 108.800781 L 20.375 107.355469 L 20.15625 106.960938 M 20.246094 114.894531 L 21.953125 116.996094 L 23.75 113.839844 L 20.902344 108.449219 L 19.457031 110.070312 L 20.246094 114.894531 M 25.765625 114.585938 L 29.621094 118.355469 L 31.8125 114.367188 L 28.21875 109.589844 L 27.210938 111.78125 L 25.765625 114.585938 M 28.832031 119.628906 C 27.257812 118.167969 26.015625 116.867188 25.109375 115.726562 L 23.179688 118.488281 L 23.617188 119.058594 L 26.640625 122.828125 L 26.863281 122.566406 L 28.832031 119.628906 M 21.164062 120.722656 L 21.601562 123.75 L 21.820312 123.75 L 23.792969 126.421875 L 25.984375 123.703125 L 22.214844 119.582031 L 21.164062 120.722656 M 23.050781 129.097656 L 23.398438 130.410156 L 23.488281 130.675781 L 24.976562 132.382812 L 25.941406 131.15625 L 23.75 128.480469 L 23.050781 129.097656 M 22.65625 127.824219 L 22.960938 127.429688 L 21.910156 125.765625 L 21.910156 125.808594 L 22.65625 127.824219 M 27.257812 125.019531 L 24.714844 127.648438 L 26.6875 130.28125 L 29.316406 127.125 L 27.257812 125.019531 M 26.773438 132.121094 L 25.722656 133.214844 L 27.429688 135.1875 L 28.308594 133.875 L 26.773438 132.121094 M 24.101562 133.085938 L 24.144531 133.390625 L 24.230469 133.304688 L 24.101562 133.085938 M 24.453125 134.53125 L 24.890625 136.285156 L 25.328125 136.242188 L 26.117188 137.335938 L 26.6875 136.417969 L 24.847656 134.09375 L 24.453125 134.53125 M 24.976562 136.636719 L 25.019531 136.722656 L 24.976562 136.636719 M 27.34375 139.003906 L 29.140625 141.195312 L 30.015625 140.363281 L 28.089844 138.125 L 27.34375 139.003906 M 21.207031 118.355469 L 20.683594 117.742188 L 20.902344 118.925781 L 21.207031 118.355469 M 27.082031 144.789062 L 27.78125 147.855469 L 28.265625 148.472656 L 31.113281 146.058594 L 29.183594 143.648438 C 28.367188 144.292969 27.664062 144.671875 27.082031 144.789062 M 25.941406 140.1875 L 26.773438 143.519531 L 28.042969 142.246094 L 26.335938 140.011719 L 25.941406 140.1875 M 28.878906 152.8125 L 29.664062 152.328125 L 28.308594 150.179688 L 28.789062 152.460938 L 28.878906 152.8125 "/>
</g>
</svg>
