<?xml version="1.0" encoding="UTF-8"?>
<svg xmlns="http://www.w3.org/2000/svg" xmlns:xlink="http://www.w3.org/1999/xlink" width="212px" height="411px" viewBox="0 0 212 411" version="1.1">
<g id="surface1">
<path style=" stroke:none;fill-rule:evenodd;fill:rgb(0%,0%,0%);fill-opacity:1;" d="M 52.933594 168.546875 L 56.570312 168.589844 C 66.386719 168.589844 71.339844 168.546875 71.425781 168.460938 L 71.6875 168.371094 L 72.214844 165.171875 L 72.039062 157.675781 L 72.039062 157.457031 C 71.398438 157.808594 70.460938 158.230469 69.234375 158.726562 C 66.34375 159.925781 63.902344 160.527344 61.917969 160.527344 L 51.269531 160.304688 L 51.136719 160.261719 L 50.917969 160.304688 L 43.425781 160.175781 L 36.019531 159.867188 L 31.289062 159.605469 L 31.726562 160.746094 C 32.132812 162.554688 32.441406 163.667969 32.644531 164.078125 C 33.054688 165.539062 33.449219 166.765625 33.828125 167.757812 L 35.101562 167.625 L 38.738281 167.933594 C 39.320312 168.167969 40.242188 168.300781 41.496094 168.328125 L 52.933594 168.546875 M 73.179688 156.316406 C 73.558594 157.222656 73.675781 159.5625 73.53125 163.332031 C 73.53125 165.523438 73.355469 167.625 73.003906 169.644531 L 72.476562 172.886719 L 72.523438 173.0625 C 72.84375 173.121094 73.003906 173.355469 73.003906 173.761719 L 72.609375 174.15625 L 73.75 187.527344 L 76.160156 198.046875 L 75.765625 198.265625 C 76.203125 200.925781 76.625 205.207031 77.035156 211.109375 L 77.210938 211.769531 C 77.210938 212.03125 76.992188 212.324219 76.554688 212.644531 C 75.941406 215.214844 75.632812 217 75.632812 217.992188 C 75.632812 220.476562 76.832031 226 79.226562 234.5625 C 81.621094 243.152344 82.820312 248.238281 82.820312 249.816406 L 82.777344 251 C 83.390625 251.761719 83.695312 254.464844 83.695312 259.109375 C 83.695312 260.601562 83.492188 262.441406 83.082031 264.632812 C 82.613281 267 82.351562 268.796875 82.292969 270.023438 C 82.03125 275.519531 81.679688 279.15625 81.242188 280.941406 L 79.578125 288.917969 L 79.664062 289.3125 L 79.488281 289.574219 L 79.3125 291.855469 C 79.3125 293.988281 78.976562 296.28125 78.304688 298.738281 C 77.839844 300.429688 77.355469 301.585938 76.859375 302.199219 L 76.859375 303.777344 C 76.859375 304.480469 76.507812 306.070312 75.808594 308.554688 C 75.105469 311.070312 74.757812 313.800781 74.757812 316.753906 L 74.886719 321.925781 C 75.09375 322.042969 75.164062 322.203125 75.105469 322.40625 L 74.933594 322.625 L 75.105469 330.648438 C 75.28125 338.507812 75.136719 343.433594 74.667969 345.421875 C 74.902344 345.507812 74.988281 345.667969 74.933594 345.902344 C 74.933594 346.808594 72.753906 347.261719 68.402344 347.261719 C 54.585938 347.261719 47.675781 346.648438 47.675781 345.421875 L 47.675781 345.332031 C 47.238281 345.273438 47.0625 345.070312 47.148438 344.71875 L 48.378906 338.625 L 48.421875 338.449219 C 49.210938 334.300781 49.605469 330.179688 49.605469 326.089844 C 49.605469 323.867188 49.253906 320.742188 48.550781 316.707031 C 48.347656 315.511719 48.289062 313.976562 48.378906 312.105469 L 48.550781 307.503906 L 48.550781 298.167969 C 48.550781 297.144531 48.203125 295.59375 47.5 293.519531 C 46.917969 291.765625 46.582031 290.40625 46.492188 289.445312 C 45.9375 287.632812 45.46875 284.8125 45.089844 280.984375 L 45.003906 279.710938 C 44.914062 279.59375 44.871094 279.464844 44.871094 279.316406 L 44.960938 279.1875 L 44.171875 270.070312 L 43.292969 264.546875 C 42.945312 262.441406 42.769531 260.644531 42.769531 259.152344 L 42.769531 248.457031 C 42.710938 243.957031 42.722656 240.523438 42.8125 238.15625 L 42.769531 236.007812 C 42.710938 231.917969 43.074219 229.492188 43.863281 228.734375 L 44.34375 225.75 L 41.804688 220.621094 C 40.050781 217.320312 39.085938 215.171875 38.910156 214.179688 C 37.742188 207.253906 37.160156 203.394531 37.160156 202.605469 C 37.363281 194.101562 37.613281 188.214844 37.902344 184.941406 L 37.730469 184.855469 C 38.3125 181.085938 37.1875 176.789062 34.355469 171.964844 C 33.566406 170.59375 32.46875 168.167969 31.066406 164.691406 C 29.753906 161.359375 29.097656 159.488281 29.097656 159.078125 C 29.039062 158.582031 29.257812 158.332031 29.753906 158.332031 L 29.929688 158.332031 L 30.804688 158.160156 L 42.375 158.683594 L 59.113281 158.949219 L 60.339844 159.167969 C 63.085938 159.167969 65.628906 158.597656 67.964844 157.457031 C 69.394531 157.078125 70.914062 156.492188 72.523438 155.703125 C 72.902344 155.703125 73.121094 155.910156 73.179688 156.316406 M 53.765625 187.835938 L 72.476562 188.183594 L 72.390625 187.660156 L 71.339844 174.683594 C 69.265625 175.355469 65.292969 176.261719 59.417969 177.402344 L 54.25 178.367188 C 47.734375 179.507812 42.636719 180.0625 38.957031 180.03125 L 39 181.257812 L 39.042969 182.3125 L 39.175781 183.230469 L 39.175781 184.679688 L 39.085938 186.082031 L 39.832031 185.863281 L 46.886719 187.046875 L 52.101562 187.789062 L 53.765625 187.835938 M 54.117188 177.09375 L 58.980469 176.304688 C 60.792969 176.042969 64.867188 175.0625 71.207031 173.371094 L 71.164062 172.753906 C 71.164062 172.113281 71.265625 171.148438 71.46875 169.863281 C 70.183594 169.949219 67.847656 169.992188 64.457031 169.992188 L 53.152344 169.949219 L 38.691406 169.378906 L 34.3125 168.984375 L 34.75 169.863281 L 38.078125 176 C 38.515625 177.023438 38.808594 178.21875 38.957031 179.59375 L 40.183594 179.550781 C 42.664062 179.492188 46.054688 178.90625 50.347656 177.796875 L 54.117188 177.09375 M 53.636719 189.28125 L 47.457031 188.84375 C 46.753906 188.753906 46.289062 188.59375 46.054688 188.359375 L 44.695312 187.921875 C 41.425781 187.601562 39.539062 187.234375 39.042969 186.828125 L 38.824219 193.621094 L 38.605469 199.40625 L 39.964844 199.320312 C 42.328125 199.496094 45.046875 199.289062 48.113281 198.707031 L 53.546875 197.652344 L 55.914062 196.996094 C 56.878906 196.675781 62.675781 195.535156 73.308594 193.578125 L 73.484375 193.578125 L 72.695312 189.367188 L 71.734375 189.457031 L 53.636719 189.28125 M 53.679688 198.882812 L 42.988281 200.679688 L 38.5625 200.285156 L 38.472656 202.5625 C 38.472656 204.492188 38.855469 207.269531 39.613281 210.890625 L 51.09375 208.261719 L 55.34375 207.164062 L 57.359375 206.597656 L 55.167969 206.640625 L 50.785156 206.640625 L 44.433594 206.421875 C 40.636719 206.214844 38.738281 205.96875 38.738281 205.675781 L 51.007812 205.28125 L 54.820312 205.28125 L 70.945312 204.449219 L 75.019531 203.746094 L 75.019531 200.460938 L 74.011719 196.121094 L 73.96875 195.988281 L 73.96875 195.945312 L 73.703125 194.671875 C 71.863281 195.433594 65.1875 196.835938 53.679688 198.882812 M 59.859375 216.238281 L 60.207031 216.109375 C 62.164062 215.289062 65.277344 214.484375 69.542969 213.695312 C 69.71875 213.667969 70.652344 213.199219 72.347656 212.292969 L 75.414062 211.109375 L 75.5 210.847656 C 75.210938 209.679688 75.046875 207.824219 75.019531 205.28125 C 73.03125 205.894531 68.78125 206.304688 62.269531 206.507812 C 61.566406 206.945312 59.375 207.648438 55.695312 208.613281 L 52.714844 209.3125 C 46.433594 210.804688 42.605469 211.550781 41.234375 211.550781 L 39.746094 211.417969 L 40.226562 213.609375 C 40.605469 215.160156 41.65625 217.394531 43.382812 220.316406 L 43.601562 220.667969 C 44.125 220.082031 46.375 219.367188 50.347656 218.519531 L 59.859375 216.238281 M 62.835938 224.742188 C 70.113281 224.683594 74.171875 224.363281 75.019531 223.777344 C 74.550781 221.441406 74.316406 219.484375 74.316406 217.90625 C 74.316406 216.648438 74.492188 215.160156 74.84375 213.433594 L 70.242188 214.878906 L 61.828125 216.941406 L 60.296875 217.378906 L 44.214844 221.542969 L 44.125 221.542969 L 45.574219 224.085938 L 45.792969 224.085938 L 46.753906 224.304688 L 52.1875 224.4375 L 52.757812 224.65625 L 60.296875 224.742188 L 62.835938 224.742188 M 65.597656 234.035156 L 66.695312 233.773438 L 72.828125 233.464844 C 74.960938 232.792969 76.390625 232.414062 77.121094 232.328125 C 76.304688 229.578125 75.675781 227.125 75.238281 224.960938 C 73.835938 225.605469 69.863281 225.984375 63.320312 226.101562 L 60.164062 226.101562 L 46.097656 225.445312 L 45.746094 225.402344 L 45.308594 227.8125 L 45.089844 228.863281 L 45.132812 229.171875 L 44.257812 234.082031 L 44.476562 234.082031 L 47.589844 234.386719 C 58.863281 234.359375 64.589844 234.300781 64.765625 234.210938 L 65.160156 234.082031 L 65.597656 234.035156 M 66.300781 240.699219 L 72.609375 240.347656 L 78.570312 239.339844 L 79.050781 239.382812 L 77.515625 233.640625 C 76.757812 234.023438 75.28125 234.386719 73.089844 234.738281 L 65.816406 235.484375 L 56.132812 235.746094 L 44.039062 235.265625 L 43.863281 236.007812 L 44.082031 243.109375 L 49.953125 242.363281 L 63.230469 241.179688 L 65.027344 240.832031 L 66.300781 240.699219 M 66.648438 250.605469 L 67.132812 250.519531 L 80.804688 247.230469 L 79.269531 240.261719 L 66.34375 242.101562 L 65.160156 242.234375 L 45.089844 243.988281 L 44.082031 243.898438 L 44.082031 251.964844 L 44.214844 251.964844 L 49.515625 253.894531 C 50.1875 253.015625 55.898438 251.921875 66.648438 250.605469 M 66.648438 252.097656 C 59.609375 253.644531 54.613281 254.507812 51.664062 254.683594 C 55.519531 256.027344 58.292969 256.902344 59.988281 257.3125 L 66.695312 259.023438 L 68.316406 259.417969 L 72.871094 260.207031 L 75.457031 260.863281 L 82.25 261.300781 L 82.382812 259.066406 C 82.382812 257.019531 82.175781 254.640625 81.769531 251.921875 L 81.546875 251.832031 L 81.023438 248.371094 C 79.5625 249.011719 75.398438 250.109375 68.535156 251.65625 L 66.648438 252.097656 M 66.738281 260.46875 C 63.933594 259.796875 60.820312 258.964844 57.402344 257.96875 C 50.070312 255.867188 45.644531 254.316406 44.125 253.324219 C 44.15625 257.824219 44.257812 260.964844 44.433594 262.75 L 45.574219 269.058594 C 47.761719 268.445312 54.160156 267.730469 64.765625 266.914062 L 65.597656 266.78125 L 73.925781 265.289062 L 81.8125 264.238281 L 82.117188 262.179688 L 78.917969 262.222656 C 75.910156 262.222656 71.851562 261.636719 66.738281 260.46875 M 65.292969 268.140625 L 46.582031 270.113281 L 45.703125 270.070312 C 46.113281 272.992188 46.273438 275.328125 46.1875 277.082031 L 46.230469 278.527344 C 48.683594 277.5625 54.628906 276.074219 64.066406 274.058594 L 64.589844 273.925781 L 68.492188 273.3125 C 70.242188 273.019531 71.527344 272.667969 72.347656 272.261719 C 73.136719 271.878906 74.933594 271.382812 77.734375 270.769531 C 78.699219 270.390625 79.679688 269.90625 80.671875 269.324219 L 81.023438 269.367188 L 81.546875 265.597656 C 79.386719 266.183594 74.113281 267 65.730469 268.050781 L 65.292969 268.140625 M 63.800781 275.546875 C 54.863281 278.207031 49.035156 279.667969 46.316406 279.929688 L 46.886719 284.183594 C 47.996094 287.25 48.667969 289.371094 48.902344 290.539062 L 52.410156 291.722656 L 61.609375 291.546875 C 66.3125 291.285156 70.125 290.832031 73.046875 290.1875 L 78.128906 288.875 C 78.277344 287.53125 78.570312 285.90625 79.007812 284.007812 L 65.335938 285.015625 L 62.003906 285.015625 L 50.304688 284.359375 C 48.085938 284.097656 46.976562 283.875 46.976562 283.703125 C 46.976562 283.234375 47.660156 283 49.035156 283 L 50.960938 283.21875 L 58.851562 283.351562 L 59.859375 283.65625 L 62.269531 283.65625 L 72.433594 283.351562 L 79.269531 283 L 79.925781 280.414062 C 80.21875 279.246094 80.539062 276.074219 80.890625 270.902344 C 79.898438 271.71875 77.472656 272.597656 73.617188 273.53125 L 65.074219 275.152344 L 63.800781 275.546875 M 61.875 300.269531 L 63.363281 300.050781 C 66.023438 299.671875 69.117188 300.035156 72.652344 301.148438 C 73.558594 301.441406 74.421875 301.335938 75.238281 300.839844 L 75.632812 300.753906 C 75.925781 299.757812 76.480469 298.371094 77.296875 296.589844 L 78 291.195312 L 78 290.277344 C 77.035156 290.628906 75.632812 291.007812 73.792969 291.417969 C 69.878906 292.351562 65.789062 292.890625 61.523438 293.039062 L 59.023438 293.082031 L 50.917969 292.730469 L 50.742188 292.378906 C 50.683594 292.234375 50.363281 292.132812 49.777344 292.074219 L 48.859375 291.984375 C 49.53125 294.292969 49.867188 296.195312 49.867188 297.683594 L 49.867188 298.957031 L 50.523438 298.78125 C 51.195312 298.78125 52.292969 299.042969 53.8125 299.570312 L 56.921875 300.488281 L 61.875 300.269531 M 62.398438 309.167969 L 66.210938 308.863281 C 67.644531 308.773438 70.492188 308.117188 74.757812 306.890625 L 75.589844 302.683594 L 74.539062 302.726562 L 72.300781 302.417969 L 61.960938 302.332031 L 58.542969 302.289062 L 57.535156 301.894531 L 53.941406 301.148438 L 51.664062 300.535156 C 50.785156 300.242188 50.1875 299.992188 49.867188 299.789062 L 49.867188 307.152344 L 49.953125 310.527344 L 62.398438 309.167969 M 63.101562 318.332031 L 68.972656 318.113281 L 69.542969 318.023438 L 71.820312 317.890625 L 73.484375 318.066406 L 73.441406 316.753906 C 73.441406 315.640625 73.792969 312.867188 74.492188 308.425781 L 74.539062 308.25 L 73.75 308.335938 C 71.820312 308.539062 69.847656 309.023438 67.832031 309.78125 C 65.496094 310.660156 63.859375 311.023438 62.925781 310.878906 L 62.574219 310.835938 L 59.023438 310.703125 L 51.136719 311.492188 L 49.953125 311.449219 L 50.171875 315.832031 C 50.640625 315.976562 51.515625 316.402344 52.804688 317.101562 C 54.410156 317.949219 57.054688 318.375 60.734375 318.375 L 63.101562 318.332031 M 63.230469 323.855469 L 63.449219 323.765625 L 73.574219 321.792969 L 73.484375 318.679688 L 69.890625 319.296875 L 64.457031 319.734375 L 63.054688 319.734375 L 53.8125 318.945312 L 51.882812 318.113281 L 50.261719 317.277344 L 50.875 325.519531 L 51.96875 325.476562 C 54.367188 325.535156 58.121094 324.992188 63.230469 323.855469 M 63.800781 338.449219 L 72.871094 338.144531 L 73.484375 337.882812 L 73.617188 337.882812 L 73.703125 335.03125 L 72.960938 335.164062 L 64.195312 332.796875 L 61.085938 331.964844 C 54.863281 330.179688 51.472656 328.9375 50.917969 328.238281 C 50.859375 331.304688 50.683594 333.878906 50.394531 335.953125 L 50.042969 338.101562 L 52.890625 338.054688 L 63.800781 338.449219 M 64.195312 331.347656 C 69.570312 332.605469 72.753906 333.542969 73.75 334.15625 L 73.792969 330.515625 L 73.617188 323.109375 L 64.632812 324.644531 L 63.320312 324.816406 L 50.917969 325.914062 L 50.917969 327.710938 C 51.035156 327.476562 51.285156 327.359375 51.664062 327.359375 C 52.539062 327.359375 54.015625 328.046875 56.089844 329.421875 L 63.539062 331.175781 L 64.195312 331.347656 M 63.671875 339.808594 L 49.867188 339.019531 L 49.253906 341.519531 L 48.378906 344.761719 L 48.597656 344.71875 C 48.714844 345.1875 50.960938 345.421875 55.34375 345.421875 L 61.609375 345.550781 L 62.355469 345.421875 L 62.792969 345.464844 L 63.40625 345.640625 L 68.140625 345.859375 L 73.484375 345.375 L 73.441406 342.613281 L 73.574219 339.546875 L 66.035156 339.898438 L 63.671875 339.808594 "/>
<path style=" stroke:none;fill-rule:evenodd;fill:rgb(64.313728%,63.921571%,63.137257%);fill-opacity:1;" d="M 51.269531 160.304688 L 61.917969 160.527344 C 63.902344 160.527344 66.34375 159.925781 69.234375 158.726562 C 70.460938 158.230469 71.398438 157.808594 72.039062 157.457031 L 72.039062 157.675781 L 72.214844 165.171875 L 71.6875 168.371094 L 71.425781 168.460938 C 71.339844 168.546875 66.386719 168.589844 56.570312 168.589844 L 52.933594 168.546875 L 52.015625 163.460938 L 52.144531 162.847656 C 51.796875 161.359375 51.503906 160.511719 51.269531 160.304688 M 54.25 178.367188 L 59.417969 177.402344 C 65.292969 176.261719 69.265625 175.355469 71.339844 174.683594 L 72.390625 187.660156 L 72.476562 188.183594 L 53.765625 187.835938 L 54.074219 184.371094 L 54.25 178.367188 M 53.152344 169.949219 L 64.457031 169.992188 C 67.847656 169.992188 70.183594 169.949219 71.46875 169.863281 C 71.265625 171.148438 71.164062 172.113281 71.164062 172.753906 L 71.207031 173.371094 C 64.867188 175.0625 60.792969 176.042969 58.980469 176.304688 L 54.117188 177.09375 L 53.152344 169.949219 M 53.546875 197.652344 L 53.371094 193.753906 L 53.636719 189.28125 L 71.734375 189.457031 L 72.695312 189.367188 L 73.484375 193.578125 L 73.308594 193.578125 C 62.675781 195.535156 56.878906 196.675781 55.914062 196.996094 L 53.546875 197.652344 M 55.34375 207.164062 L 55.167969 206.640625 L 57.359375 206.597656 L 55.34375 207.164062 M 54.820312 205.28125 C 54.292969 203.117188 53.914062 200.984375 53.679688 198.882812 C 65.1875 196.835938 71.863281 195.433594 73.703125 194.671875 L 73.96875 195.945312 L 73.96875 195.988281 L 74.011719 196.121094 L 75.019531 200.460938 L 75.019531 203.746094 L 70.945312 204.449219 L 54.820312 205.28125 M 55.695312 208.613281 C 59.375 207.648438 61.566406 206.945312 62.269531 206.507812 C 68.78125 206.304688 73.03125 205.894531 75.019531 205.28125 C 75.046875 207.824219 75.210938 209.679688 75.5 210.847656 L 75.414062 211.109375 L 72.347656 212.292969 C 70.652344 213.199219 69.71875 213.667969 69.542969 213.695312 C 65.277344 214.484375 62.164062 215.289062 60.207031 216.109375 L 59.859375 216.238281 L 59.417969 215.230469 C 57.8125 211.550781 56.613281 209.460938 55.828125 208.964844 L 55.695312 208.613281 M 60.296875 217.378906 L 61.828125 216.941406 L 70.242188 214.878906 L 74.84375 213.433594 C 74.492188 215.160156 74.316406 216.648438 74.316406 217.90625 C 74.316406 219.484375 74.550781 221.441406 75.019531 223.777344 C 74.171875 224.363281 70.113281 224.683594 62.835938 224.742188 L 61.65625 221.542969 L 60.296875 217.378906 M 63.320312 226.101562 C 69.863281 225.984375 73.835938 225.605469 75.238281 224.960938 C 75.675781 227.125 76.304688 229.578125 77.121094 232.328125 C 76.390625 232.414062 74.960938 232.792969 72.828125 233.464844 L 66.695312 233.773438 L 65.597656 234.035156 C 65.246094 232.050781 64.488281 229.40625 63.320312 226.101562 M 65.816406 235.484375 L 73.089844 234.738281 C 75.28125 234.386719 76.757812 234.023438 77.515625 233.640625 L 79.050781 239.382812 L 78.570312 239.339844 L 72.609375 240.347656 L 66.300781 240.699219 L 65.816406 235.484375 M 66.34375 242.101562 L 79.269531 240.261719 L 80.804688 247.230469 L 67.132812 250.519531 L 66.648438 250.605469 L 66.34375 242.101562 M 66.695312 259.023438 L 66.648438 252.097656 L 68.535156 251.65625 C 75.398438 250.109375 79.5625 249.011719 81.023438 248.371094 L 81.546875 251.832031 L 81.769531 251.921875 C 82.175781 254.640625 82.382812 257.019531 82.382812 259.066406 L 82.25 261.300781 L 75.457031 260.863281 L 72.871094 260.207031 L 68.316406 259.417969 L 66.695312 259.023438 M 65.597656 266.78125 L 66.867188 260.949219 L 66.738281 260.46875 C 71.851562 261.636719 75.910156 262.222656 78.917969 262.222656 L 82.117188 262.179688 L 81.8125 264.238281 L 73.925781 265.289062 L 65.597656 266.78125 M 64.066406 274.058594 L 65.292969 268.140625 L 65.730469 268.050781 C 74.113281 267 79.386719 266.183594 81.546875 265.597656 L 81.023438 269.367188 L 80.671875 269.324219 C 79.679688 269.90625 78.699219 270.390625 77.734375 270.769531 C 74.933594 271.382812 73.136719 271.878906 72.347656 272.261719 C 71.527344 272.667969 70.242188 273.019531 68.492188 273.3125 L 64.589844 273.925781 L 64.066406 274.058594 M 61.609375 291.546875 L 61.609375 288.828125 C 61.609375 287.808594 61.742188 286.535156 62.003906 285.015625 L 65.335938 285.015625 L 79.007812 284.007812 C 78.570312 285.90625 78.277344 287.53125 78.128906 288.875 L 73.046875 290.1875 C 70.125 290.832031 66.3125 291.285156 61.609375 291.546875 M 62.269531 283.65625 L 63.1875 279.492188 L 63.800781 275.546875 L 65.074219 275.152344 L 73.617188 273.53125 C 77.472656 272.597656 79.898438 271.71875 80.890625 270.902344 C 80.539062 276.074219 80.21875 279.246094 79.925781 280.414062 L 79.269531 283 L 72.433594 283.351562 L 62.269531 283.65625 M 61.523438 293.039062 C 65.789062 292.890625 69.878906 292.351562 73.792969 291.417969 C 75.632812 291.007812 77.035156 290.628906 78 290.277344 L 78 291.195312 L 77.296875 296.589844 C 76.480469 298.371094 75.925781 299.757812 75.632812 300.753906 L 75.238281 300.839844 C 74.421875 301.335938 73.558594 301.441406 72.652344 301.148438 C 69.117188 300.035156 66.023438 299.671875 63.363281 300.050781 L 61.875 300.269531 L 61.828125 299.4375 L 61.433594 294.222656 L 61.523438 293.039062 M 61.960938 302.332031 L 72.300781 302.417969 L 74.539062 302.726562 L 75.589844 302.683594 L 74.757812 306.890625 C 70.492188 308.117188 67.644531 308.773438 66.210938 308.863281 L 62.398438 309.167969 L 61.960938 302.332031 M 62.574219 310.835938 L 62.925781 310.878906 C 63.859375 311.023438 65.496094 310.660156 67.832031 309.78125 C 69.847656 309.023438 71.820312 308.539062 73.75 308.335938 L 74.539062 308.25 L 74.492188 308.425781 C 73.792969 312.867188 73.441406 315.640625 73.441406 316.753906 L 73.484375 318.066406 L 71.820312 317.890625 L 69.542969 318.023438 L 68.972656 318.113281 L 63.101562 318.332031 C 63.101562 315.4375 62.96875 313.230469 62.707031 311.710938 L 62.574219 310.835938 M 63.054688 319.734375 L 64.457031 319.734375 L 69.890625 319.296875 L 73.484375 318.679688 L 73.574219 321.792969 L 63.449219 323.765625 L 63.230469 323.855469 L 63.011719 321.707031 L 63.054688 319.734375 M 64.195312 332.796875 L 72.960938 335.164062 L 73.703125 335.03125 L 73.617188 337.882812 L 73.484375 337.882812 L 72.871094 338.144531 L 63.800781 338.449219 L 64.195312 332.796875 M 63.320312 324.816406 L 64.632812 324.644531 L 73.617188 323.109375 L 73.792969 330.515625 L 73.75 334.15625 C 72.753906 333.542969 69.570312 332.605469 64.195312 331.347656 L 63.320312 324.816406 M 62.792969 345.464844 C 63.085938 344.644531 63.378906 342.761719 63.671875 339.808594 L 66.035156 339.898438 L 73.574219 339.546875 L 73.441406 342.613281 L 73.484375 345.375 L 68.140625 345.859375 L 63.40625 345.640625 L 62.792969 345.464844 "/>
<path style=" stroke:none;fill-rule:evenodd;fill:rgb(88.235295%,88.235295%,88.235295%);fill-opacity:1;" d="M 51.269531 160.304688 C 51.503906 160.511719 51.796875 161.359375 52.144531 162.847656 L 52.015625 163.460938 L 52.933594 168.546875 L 41.496094 168.328125 C 40.242188 168.300781 39.320312 168.167969 38.738281 167.933594 L 35.101562 167.625 L 33.828125 167.757812 C 33.449219 166.765625 33.054688 165.539062 32.644531 164.078125 C 32.441406 163.667969 32.132812 162.554688 31.726562 160.746094 L 31.289062 159.605469 L 36.019531 159.867188 L 43.425781 160.175781 L 50.917969 160.304688 L 51.136719 160.261719 L 51.269531 160.304688 M 54.25 178.367188 L 54.074219 184.371094 L 53.765625 187.835938 L 52.101562 187.789062 L 46.886719 187.046875 L 39.832031 185.863281 L 39.085938 186.082031 L 39.175781 184.679688 L 39.175781 183.230469 L 39.042969 182.3125 L 39 181.257812 L 38.957031 180.03125 C 42.636719 180.0625 47.734375 179.507812 54.25 178.367188 M 53.152344 169.949219 L 54.117188 177.09375 L 50.347656 177.796875 C 46.054688 178.90625 42.664062 179.492188 40.183594 179.550781 L 38.957031 179.59375 C 38.808594 178.21875 38.515625 177.023438 38.078125 176 L 34.75 169.863281 L 34.3125 168.984375 L 38.691406 169.378906 L 53.152344 169.949219 M 53.546875 197.652344 L 48.113281 198.707031 C 45.046875 199.289062 42.328125 199.496094 39.964844 199.320312 L 38.605469 199.40625 L 38.824219 193.621094 L 39.042969 186.828125 C 39.539062 187.234375 41.425781 187.601562 44.695312 187.921875 L 46.054688 188.359375 C 46.289062 188.59375 46.753906 188.753906 47.457031 188.84375 L 53.636719 189.28125 L 53.371094 193.753906 L 53.546875 197.652344 M 55.34375 207.164062 L 51.09375 208.261719 L 39.613281 210.890625 C 38.855469 207.269531 38.472656 204.492188 38.472656 202.5625 L 38.5625 200.285156 L 42.988281 200.679688 L 53.679688 198.882812 C 53.914062 200.984375 54.292969 203.117188 54.820312 205.28125 L 51.007812 205.28125 L 38.738281 205.675781 C 38.738281 205.96875 40.636719 206.214844 44.433594 206.421875 L 50.785156 206.640625 L 55.167969 206.640625 L 55.34375 207.164062 M 55.695312 208.613281 L 55.828125 208.964844 C 56.613281 209.460938 57.8125 211.550781 59.417969 215.230469 L 59.859375 216.238281 L 50.347656 218.519531 C 46.375 219.367188 44.125 220.082031 43.601562 220.667969 L 43.382812 220.316406 C 41.65625 217.394531 40.605469 215.160156 40.226562 213.609375 L 39.746094 211.417969 L 41.234375 211.550781 C 42.605469 211.550781 46.433594 210.804688 52.714844 209.3125 L 55.695312 208.613281 M 60.296875 217.378906 L 61.65625 221.542969 L 62.835938 224.742188 L 60.296875 224.742188 L 52.757812 224.65625 L 52.1875 224.4375 L 46.753906 224.304688 L 45.792969 224.085938 L 45.574219 224.085938 L 44.125 221.542969 L 44.214844 221.542969 L 60.296875 217.378906 M 63.320312 226.101562 C 64.488281 229.40625 65.246094 232.050781 65.597656 234.035156 L 65.160156 234.082031 L 64.765625 234.210938 C 64.589844 234.300781 58.863281 234.359375 47.589844 234.386719 L 44.476562 234.082031 L 44.257812 234.082031 L 45.132812 229.171875 L 45.089844 228.863281 L 45.308594 227.8125 L 45.746094 225.402344 L 46.097656 225.445312 L 60.164062 226.101562 L 63.320312 226.101562 M 65.816406 235.484375 L 66.300781 240.699219 L 65.027344 240.832031 L 63.230469 241.179688 L 49.953125 242.363281 L 44.082031 243.109375 L 43.863281 236.007812 L 44.039062 235.265625 L 56.132812 235.746094 L 65.816406 235.484375 M 66.34375 242.101562 L 66.648438 250.605469 C 55.898438 251.921875 50.1875 253.015625 49.515625 253.894531 L 44.214844 251.964844 L 44.082031 251.964844 L 44.082031 243.898438 L 45.089844 243.988281 L 65.160156 242.234375 L 66.34375 242.101562 M 66.695312 259.023438 L 59.988281 257.3125 C 58.292969 256.902344 55.519531 256.027344 51.664062 254.683594 C 54.613281 254.507812 59.609375 253.644531 66.648438 252.097656 L 66.695312 259.023438 M 65.597656 266.78125 L 64.765625 266.914062 C 54.160156 267.730469 47.761719 268.445312 45.574219 269.058594 L 44.433594 262.75 C 44.257812 260.964844 44.15625 257.824219 44.125 253.324219 C 45.644531 254.316406 50.070312 255.867188 57.402344 257.96875 C 60.820312 258.964844 63.933594 259.796875 66.738281 260.46875 L 66.867188 260.949219 L 65.597656 266.78125 M 64.066406 274.058594 C 54.628906 276.074219 48.683594 277.5625 46.230469 278.527344 L 46.1875 277.082031 C 46.273438 275.328125 46.113281 272.992188 45.703125 270.070312 L 46.582031 270.113281 L 65.292969 268.140625 L 64.066406 274.058594 M 61.609375 291.546875 L 52.410156 291.722656 L 48.902344 290.539062 C 48.667969 289.371094 47.996094 287.25 46.886719 284.183594 L 46.316406 279.929688 C 49.035156 279.667969 54.863281 278.207031 63.800781 275.546875 L 63.1875 279.492188 L 62.269531 283.65625 L 59.859375 283.65625 L 58.851562 283.351562 L 50.960938 283.21875 L 49.035156 283 C 47.660156 283 46.976562 283.234375 46.976562 283.703125 C 46.976562 283.875 48.085938 284.097656 50.304688 284.359375 L 62.003906 285.015625 C 61.742188 286.535156 61.609375 287.808594 61.609375 288.828125 L 61.609375 291.546875 M 61.523438 293.039062 L 61.433594 294.222656 L 61.828125 299.4375 L 61.875 300.269531 L 56.921875 300.488281 L 53.8125 299.570312 C 52.292969 299.042969 51.195312 298.78125 50.523438 298.78125 L 49.867188 298.957031 L 49.867188 297.683594 C 49.867188 296.195312 49.53125 294.292969 48.859375 291.984375 L 49.777344 292.074219 C 50.363281 292.132812 50.683594 292.234375 50.742188 292.378906 L 50.917969 292.730469 L 59.023438 293.082031 L 61.523438 293.039062 M 61.960938 302.332031 L 62.398438 309.167969 L 49.953125 310.527344 L 49.867188 307.152344 L 49.867188 299.789062 C 50.1875 299.992188 50.785156 300.242188 51.664062 300.535156 L 53.941406 301.148438 L 57.535156 301.894531 L 58.542969 302.289062 L 61.960938 302.332031 M 62.574219 310.835938 L 62.707031 311.710938 C 62.96875 313.230469 63.101562 315.4375 63.101562 318.332031 L 60.734375 318.375 C 57.054688 318.375 54.410156 317.949219 52.804688 317.101562 C 51.515625 316.402344 50.640625 315.976562 50.171875 315.832031 L 49.953125 311.449219 L 51.136719 311.492188 L 59.023438 310.703125 L 62.574219 310.835938 M 63.054688 319.734375 L 63.011719 321.707031 L 63.230469 323.855469 C 58.121094 324.992188 54.367188 325.535156 51.96875 325.476562 L 50.875 325.519531 L 50.261719 317.277344 L 51.882812 318.113281 L 53.8125 318.945312 L 63.054688 319.734375 M 64.195312 332.796875 L 63.800781 338.449219 L 52.890625 338.054688 L 50.042969 338.101562 L 50.394531 335.953125 C 50.683594 333.878906 50.859375 331.304688 50.917969 328.238281 C 51.472656 328.9375 54.863281 330.179688 61.085938 331.964844 L 64.195312 332.796875 M 63.320312 324.816406 L 64.195312 331.347656 L 63.539062 331.175781 L 56.089844 329.421875 C 54.015625 328.046875 52.539062 327.359375 51.664062 327.359375 C 51.285156 327.359375 51.035156 327.476562 50.917969 327.710938 L 50.917969 325.914062 L 63.320312 324.816406 M 62.792969 345.464844 L 62.355469 345.421875 L 61.609375 345.550781 L 55.34375 345.421875 C 50.960938 345.421875 48.714844 345.1875 48.597656 344.71875 L 48.378906 344.761719 L 49.253906 341.519531 L 49.867188 339.019531 L 63.671875 339.808594 C 63.378906 342.761719 63.085938 344.644531 62.792969 345.464844 "/>
</g>
</svg>
