<?xml version="1.0" encoding="UTF-8"?>
<svg xmlns="http://www.w3.org/2000/svg" xmlns:xlink="http://www.w3.org/1999/xlink" width="212px" height="411px" viewBox="0 0 212 411" version="1.1">
<g id="surface1">
<path style=" stroke:none;fill-rule:evenodd;fill:rgb(0%,0%,0%);fill-opacity:0.678431;" d="M 127.601562 137.160156 L 127.953125 137.160156 L 127.867188 139.308594 L 127.601562 144.175781 L 127.558594 145.753906 L 127.867188 146.367188 C 127.867188 146.6875 127.75 146.953125 127.515625 147.15625 L 127.515625 147.199219 L 127.601562 148.164062 L 128.304688 159.605469 L 128.742188 160.042969 L 128.65625 160.480469 L 128.347656 160.699219 L 128.523438 163.066406 L 128.390625 163.066406 L 128.832031 167.1875 L 128.390625 171.484375 C 128.390625 174.113281 128.800781 176.453125 129.617188 178.496094 C 130.40625 180.515625 130.800781 181.960938 130.800781 182.835938 L 130.757812 183.101562 L 130.800781 183.230469 L 133.519531 192.394531 C 134.863281 197.214844 135.535156 200.632812 135.535156 202.652344 L 135.492188 202.824219 L 135.402344 202.957031 L 135.710938 205.191406 L 135.664062 205.894531 L 135.621094 205.9375 L 135.753906 206.992188 L 135.929688 207.472656 L 135.886719 207.867188 C 136.148438 210 136.453125 211.914062 136.804688 213.609375 L 136.847656 213.566406 C 137.289062 213.566406 137.507812 213.800781 137.507812 214.265625 L 137.113281 214.75 L 137.15625 214.925781 L 137.15625 215.101562 L 137.769531 217.421875 L 138.339844 219 C 139.011719 220.667969 140.765625 223.792969 143.597656 228.382812 L 144.78125 230.308594 L 144.957031 230.265625 C 145.191406 230.265625 147.320312 234.328125 151.351562 242.453125 L 151.308594 242.890625 C 151.308594 243.210938 151.71875 243.871094 152.535156 244.863281 L 152.84375 245.433594 C 154.65625 249.117188 156.363281 254.230469 157.96875 260.777344 C 158.671875 263.699219 159.285156 268.445312 159.8125 275.023438 L 160.074219 275.023438 L 160.160156 275.460938 L 159.855469 275.722656 L 159.855469 276.074219 C 160.351562 282.738281 161.109375 287.820312 162.132812 291.328125 L 162.046875 291.460938 L 162.527344 293.433594 L 162.703125 293.433594 L 162.789062 293.78125 L 162.703125 294.089844 L 162.789062 294.441406 L 162.789062 294.617188 C 164.71875 302.972656 165.859375 309.226562 166.207031 313.378906 C 166.472656 316.445312 166.808594 319.105469 167.214844 321.355469 L 167.390625 321.398438 L 167.304688 321.660156 C 167.507812 322.859375 167.757812 323.941406 168.046875 324.90625 C 168.605469 326.804688 170.035156 330.222656 172.34375 335.164062 C 173.277344 335.28125 173.921875 336.535156 174.269531 338.933594 C 174.796875 342.382812 175.132812 344.28125 175.277344 344.632812 L 177.558594 349.367188 C 179.425781 350.242188 183.210938 354.800781 188.90625 363.042969 C 189.402344 363.21875 190.644531 364.242188 192.632812 366.109375 L 195.566406 368.914062 L 198.414062 370.273438 C 199.527344 370.539062 201.058594 371.488281 203.015625 373.125 C 207.019531 376.484375 209.019531 378.867188 209.019531 380.269531 C 209.019531 381.203125 208.84375 381.730469 208.496094 381.847656 L 210.554688 391.753906 C 210.554688 393.507812 210.335938 395.742188 209.898438 398.460938 L 211.210938 405.125 C 211.210938 409.039062 210.117188 410.996094 207.925781 410.996094 C 202.609375 410.996094 197.160156 409.390625 191.578125 406.175781 L 191.1875 406.613281 C 190.804688 406.527344 190.617188 406.292969 190.617188 405.914062 L 190.792969 405.738281 C 189.507812 404.976562 188.21875 404.128906 186.933594 403.195312 C 180.507812 398.605469 176.550781 394.238281 175.058594 390.089844 C 174.503906 388.511719 173.132812 386.449219 170.941406 383.90625 L 165.988281 378.121094 L 156.960938 366.679688 C 155.707031 366.359375 154.640625 365.015625 153.761719 362.648438 L 152.273438 357.300781 L 148.769531 347.570312 L 146.972656 337.792969 L 146.007812 333.367188 L 145.917969 333.015625 L 144.691406 328.589844 L 144.648438 328.589844 C 144.328125 328.441406 144.167969 328.207031 144.167969 327.886719 L 144.386719 327.753906 C 143.683594 325.738281 142.546875 323.238281 140.96875 320.257812 L 140.660156 320.039062 L 140.792969 319.863281 L 140.179688 318.726562 L 135.183594 309.125 C 133.167969 305.003906 131.707031 301.847656 130.800781 299.65625 C 129.515625 296.675781 128.65625 294.015625 128.214844 291.679688 C 126.871094 288.84375 126.199219 286.785156 126.199219 285.5 L 126.199219 285.410156 C 123.894531 280.53125 120.109375 272.347656 114.851562 260.863281 C 113.480469 257.851562 111.84375 252.167969 109.945312 243.8125 C 108.21875 236.359375 107.359375 232.0625 107.359375 230.925781 L 107.535156 230.398438 L 107.140625 225.882812 C 106.875 224.363281 106.261719 222.304688 105.300781 219.703125 C 104.890625 219.175781 104.628906 218.707031 104.511719 218.300781 L 104.070312 217.421875 L 102.976562 215.011719 L 101.96875 212.339844 L 101.882812 212.382812 L 101.53125 212.292969 L 101.355469 211.898438 L 101.617188 211.375 L 100.304688 207.691406 C 99.71875 206.203125 99.382812 204.214844 99.296875 201.730469 L 98.726562 201.511719 L 98.683594 201.117188 L 99.207031 199.890625 L 99.164062 198.75 L 99.078125 198.617188 L 99.164062 198.574219 L 98.902344 195.726562 C 97.878906 189.820312 96.886719 185.832031 95.921875 183.757812 L 95 181.480469 L 95.613281 181.480469 L 95.265625 180.121094 L 93.597656 174.203125 L 93.117188 173.632812 L 93.160156 173.324219 L 93.25 173.28125 L 90.925781 168.589844 C 89.667969 165.902344 88.953125 164.0625 88.777344 163.066406 L 88.648438 163.066406 L 88.339844 161.488281 C 87.609375 156.726562 86.441406 152.546875 84.835938 148.953125 L 84.484375 148.164062 L 82.863281 144.175781 L 81.636719 140.40625 L 81.285156 139.265625 L 81.109375 139.089844 L 84.179688 137.117188 C 87.363281 135.746094 89.816406 134.839844 91.539062 134.398438 C 95.132812 133.4375 99.207031 132.835938 103.765625 132.601562 L 105.519531 132.515625 L 109.066406 132.425781 L 112.355469 132.820312 L 115.597656 133.214844 L 117.304688 133.085938 L 118.183594 133.261719 C 122.273438 133.699219 125.425781 134.851562 127.648438 136.722656 L 127.601562 137.160156 M 117.789062 139.835938 L 117.742188 139.878906 L 117.832031 139.921875 L 117.789062 139.835938 M 111.039062 144.921875 L 109.988281 147.199219 L 110.425781 147.417969 C 110.863281 147.652344 111.359375 147.902344 111.914062 148.164062 L 112.75 148.558594 L 112.878906 148.164062 L 114.152344 144.921875 L 111.039062 144.921875 M 113.84375 149.085938 L 119.976562 151.757812 L 121.117188 148.164062 L 121.511719 146.980469 L 119.496094 146.015625 L 115.507812 145.097656 L 114.238281 148.164062 L 113.84375 149.085938 M 106.175781 144.964844 L 108.847656 146.542969 L 109.59375 144.921875 L 106.175781 144.964844 M 102.539062 148.164062 L 102.230469 148.777344 L 103.675781 149.433594 L 106.964844 150.75 L 107.664062 149.085938 L 107.753906 148.953125 L 107.839844 148.777344 L 107.882812 148.601562 L 108.367188 147.636719 L 104.597656 145.402344 L 103.503906 146.671875 L 102.539062 148.164062 M 102.582031 145.664062 L 103.109375 145.007812 L 98.550781 145.226562 L 98.507812 145.226562 L 97.894531 146.191406 L 97.628906 146.585938 C 98.683594 147.113281 99.777344 147.636719 100.917969 148.164062 L 100.960938 148.207031 L 102.582031 145.664062 M 108.628906 150.136719 L 108.191406 151.234375 L 111.300781 152.371094 L 111.695312 151.320312 L 112.265625 149.828125 C 111.15625 149.273438 110.234375 148.761719 109.503906 148.296875 L 108.628906 150.136719 M 106.875 154.476562 L 109.769531 156.1875 L 110.644531 154.039062 L 107.839844 152.855469 L 107.578125 152.722656 L 106.875 154.476562 M 106.308594 155.792969 L 105.386719 157.71875 L 108.496094 159.167969 L 109.285156 157.324219 L 106.394531 155.570312 L 106.308594 155.792969 M 106.394531 152.152344 C 104.496094 151.1875 102.945312 150.457031 101.75 149.960938 L 101.265625 151.453125 L 105.691406 153.820312 L 106.394531 152.152344 M 104.949219 154.695312 C 103.488281 154.050781 102.085938 153.425781 100.742188 152.8125 L 99.382812 154.828125 L 99.25 155.046875 L 103.851562 157.019531 L 104.070312 157.105469 L 105.210938 154.871094 L 104.949219 154.695312 M 103.328125 161.007812 L 105.867188 162.542969 L 106.570312 163.066406 L 106.527344 163.066406 L 106.570312 163.113281 L 107.316406 161.929688 L 107.929688 160.480469 L 104.683594 158.949219 L 103.328125 161.007812 M 103.371094 158.332031 L 102.714844 158.027344 C 102.011719 157.675781 100.625 156.988281 98.550781 155.964844 L 97.457031 157.589844 L 97.28125 158.113281 L 97.542969 158.246094 L 102.054688 160.351562 L 103.371094 158.332031 M 112.398438 152.765625 L 118.269531 154.914062 L 118.75 155.089844 L 119.453125 153.160156 L 118.183594 152.589844 L 113.363281 150.398438 L 112.574219 152.285156 L 112.398438 152.765625 M 114.851562 160.480469 L 110.339844 157.894531 L 109.59375 159.738281 L 112.835938 161.445312 C 113.507812 161.445312 114.339844 161.679688 115.332031 162.148438 L 116.078125 161.140625 L 114.851562 160.480469 M 117.917969 160.261719 L 117.699219 160.746094 C 118.898438 161.417969 120.082031 162.03125 121.25 162.585938 L 122.652344 158.378906 L 122.34375 158.246094 L 119.453125 156.886719 L 118.09375 159.867188 L 118.09375 159.957031 L 117.917969 160.261719 M 116.648438 160.175781 L 118.226562 156.359375 L 115.683594 155.441406 C 114.371094 155.207031 113.054688 154.871094 111.742188 154.433594 L 110.777344 156.800781 L 116.472656 160.085938 L 116.648438 160.175781 M 122.652344 147.507812 L 122.433594 148.164062 L 121.117188 152.242188 L 124.40625 153.554688 C 125.28125 151.246094 125.863281 150.09375 126.15625 150.09375 L 126.246094 150.09375 L 126.246094 149.261719 L 124.011719 148.164062 L 122.652344 147.507812 M 125.542969 155.265625 L 125.148438 156.316406 L 124.84375 157.148438 L 125.019531 156.84375 C 125.367188 156.871094 125.542969 157.0625 125.542969 157.414062 L 125.238281 158.027344 L 126.945312 158.859375 L 126.726562 156.800781 L 126.59375 155.441406 L 125.542969 155.265625 M 125.980469 154.167969 L 126.507812 154.34375 L 126.375 152.941406 L 125.980469 154.167969 M 119.976562 155.570312 L 123.132812 157.019531 L 123.921875 154.828125 C 122.988281 154.535156 121.90625 154.140625 120.679688 153.644531 L 119.976562 155.570312 M 124.492188 159.253906 L 123.046875 161.578125 L 122.519531 163.066406 L 122.34375 163.066406 L 124.316406 163.902344 C 125.019531 162.382812 125.863281 161.183594 126.859375 160.304688 L 124.492188 159.253906 M 127.164062 161.796875 L 125.71875 164.46875 L 127.515625 165.039062 L 127.515625 164.339844 C 127.515625 163.785156 127.558594 163.359375 127.648438 163.066406 L 127.253906 163.066406 L 127.164062 161.796875 M 123.835938 164.953125 L 121.511719 163.945312 L 120.546875 165.433594 L 121.335938 166.046875 L 122.957031 167.40625 L 123.746094 165.128906 L 123.835938 164.953125 M 127.207031 165.828125 L 125.238281 165.433594 L 123.878906 168.152344 L 126.945312 170.78125 L 127.339844 170.125 L 127.472656 165.699219 L 127.207031 165.828125 M 120.636719 163.507812 C 119.585938 163.007812 118.445312 162.425781 117.21875 161.753906 L 116.691406 162.804688 L 119.757812 164.820312 L 120.636719 163.507812 M 122.386719 168.898438 L 119.585938 166.96875 L 117.4375 170.257812 L 116.515625 171.703125 C 117.453125 172.289062 118.5625 172.902344 119.847656 173.542969 L 121.425781 170.914062 L 122.386719 168.898438 M 123.265625 169.554688 L 122.167969 172.011719 L 121.074219 174.15625 L 121.773438 174.464844 L 123.660156 175.339844 L 126.289062 171.746094 L 123.265625 169.554688 M 126.726562 176.875 L 127.777344 175.824219 L 127.339844 171.921875 L 124.796875 175.910156 L 126.726562 176.875 M 120.242188 175.429688 L 117.960938 178.542969 L 120.109375 179.988281 L 122.300781 177.09375 L 122.5625 176.746094 C 121.832031 176.363281 121.058594 175.925781 120.242188 175.429688 M 122.34375 181.480469 L 122.828125 181.480469 L 125.632812 178.015625 L 123.835938 177.359375 L 121.425781 180.863281 L 122.34375 181.480469 M 118.796875 181.480469 L 119.058594 181.480469 L 119.363281 180.996094 L 117.175781 179.507812 L 114.589844 182.355469 L 115.816406 183.144531 L 117.347656 184.066406 L 118.796875 181.480469 M 120.503906 182.136719 L 119.015625 183.800781 L 118.445312 184.632812 L 120.460938 185.6875 L 122.125 183.101562 L 120.503906 182.136719 M 127.296875 178.324219 L 126.550781 179.242188 L 124.625 181.480469 L 124.710938 181.480469 L 124.140625 182.398438 L 124.230469 182.441406 L 126.246094 183.144531 L 127.078125 181.875 L 127.078125 181.828125 C 127.078125 181.390625 127.558594 180.835938 128.523438 180.164062 L 128.085938 177.796875 L 127.515625 178.324219 L 127.296875 178.324219 M 128.042969 177.578125 L 127.996094 177.445312 L 127.996094 177.359375 L 127.867188 177.488281 L 128.042969 177.578125 M 128.609375 181.828125 L 127.515625 183.625 L 129.882812 184.679688 L 129.488281 183.582031 L 128.785156 181.480469 L 128.875 181.480469 L 128.875 181.390625 L 128.785156 181.480469 L 128.699219 181.652344 L 128.65625 181.828125 L 128.609375 181.828125 M 113.054688 162.9375 L 109.066406 161.007812 L 108.191406 163.066406 L 108.015625 163.066406 L 107.621094 163.902344 L 111.695312 167.453125 C 112.484375 166.105469 113.375 164.777344 114.371094 163.460938 C 114.136719 163.316406 113.929688 163.183594 113.757812 163.066406 L 113.363281 163.066406 L 113.054688 162.9375 M 110.777344 172.097656 L 110.164062 173.28125 L 113.363281 175.429688 L 115.289062 172.097656 L 114.019531 171.132812 L 112.222656 169.773438 L 110.777344 172.097656 M 116.5625 169.46875 L 118.707031 166.355469 L 115.550781 164.207031 L 112.878906 168.636719 L 114.851562 170.5625 L 115.726562 171.175781 L 116.5625 169.46875 M 103.722656 162.628906 L 102.539062 162.015625 L 101.835938 163.066406 L 101.488281 163.066406 L 99.425781 166.179688 L 103.546875 168.898438 L 105.167969 166.53125 L 105.957031 164.734375 L 103.632812 162.761719 L 103.722656 162.628906 M 102.890625 169.90625 L 100.171875 168.242188 C 99.617188 167.917969 99.105469 167.597656 98.636719 167.277344 L 96.621094 169.773438 L 102.054688 173.589844 C 102.320312 172.886719 102.40625 172.289062 102.320312 171.792969 C 102.230469 171.351562 102.421875 170.722656 102.890625 169.90625 M 109.769531 170.914062 L 110.90625 168.765625 C 109.59375 167.714844 108.25 166.617188 106.875 165.480469 L 104.816406 169.730469 L 108.980469 172.492188 L 109.769531 170.914062 M 107.753906 177.578125 L 110.292969 179.332031 L 112.660156 176.304688 L 110.339844 174.597656 L 109.679688 174.113281 L 107.753906 177.578125 M 108.496094 173.371094 L 104.335938 170.78125 L 103.328125 172.886719 L 102.890625 174.15625 L 106.527344 176.699219 L 108.496094 173.371094 M 102.449219 175.296875 L 101.265625 178.324219 L 101.003906 178.9375 L 103.675781 181.171875 L 104.992188 179.15625 L 105.957031 177.664062 L 102.582031 175.386719 L 102.449219 175.296875 M 102.273438 181.785156 L 100.214844 181.917969 L 99.078125 183.320312 L 100.390625 184.238281 L 102.40625 181.875 L 102.273438 181.785156 M 108.191406 181.480469 L 108.628906 181.480469 L 109.59375 180.25 L 107.183594 178.542969 L 107.09375 178.671875 L 105.078125 181.875 L 106.789062 183.054688 L 108.191406 181.480469 M 109.988281 181.480469 L 110.117188 181.480469 L 108.148438 184.019531 L 109.988281 185.25 L 112.179688 182.269531 L 110.644531 181.480469 L 111.347656 181.480469 L 110.425781 180.863281 L 109.988281 181.480469 M 113.230469 183.101562 L 111.125 186.039062 L 114.632812 188.230469 L 116.648438 185.160156 L 114.589844 183.757812 L 113.582031 183.101562 L 113.40625 183.144531 L 113.230469 183.101562 M 113.363281 181.480469 L 113.449219 181.480469 L 115.902344 178.628906 L 113.230469 176.746094 L 111.082031 179.902344 L 113.363281 181.480469 M 116.691406 177.664062 L 119.015625 174.683594 L 115.945312 172.582031 L 113.84375 175.78125 L 116.691406 177.664062 M 115.726562 188.84375 L 117.742188 189.9375 L 119.585938 187.046875 L 117.65625 185.816406 L 115.726562 188.84375 M 113.492188 189.414062 C 112.820312 189.121094 111.710938 188.449219 110.164062 187.394531 L 108.453125 189.894531 L 111.609375 192.175781 L 113.667969 189.5 L 113.492188 189.414062 M 114.894531 190.113281 L 112.835938 193.050781 L 114.765625 194.542969 L 115.160156 193.882812 L 116.953125 191.167969 L 114.894531 190.113281 M 105.691406 184.285156 C 105.285156 184.050781 104.730469 183.671875 104.027344 183.144531 C 103.675781 183.4375 103.398438 183.582031 103.195312 183.582031 L 102.933594 183.496094 L 101.617188 185.117188 L 103.765625 186.5625 L 105.738281 184.285156 L 105.691406 184.285156 M 107.140625 185.292969 L 105.253906 187.617188 L 107.140625 188.972656 L 108.980469 186.605469 C 108.394531 186.199219 107.78125 185.761719 107.140625 185.292969 M 104.203125 192.832031 L 106.132812 190.289062 L 104.203125 188.886719 L 102.230469 191.121094 L 104.203125 192.832031 M 105.519531 193.925781 L 108.453125 196.292969 L 110.644531 193.445312 L 107.488281 191.253906 L 105.519531 193.925781 M 102.714844 187.835938 L 100.652344 186.300781 L 99.078125 188.230469 L 100.960938 189.984375 L 102.714844 187.835938 M 108.191406 199.144531 L 107.050781 200.679688 L 109.945312 202.871094 L 111.652344 200.589844 L 108.671875 198.53125 L 108.191406 199.144531 M 103.0625 194.320312 L 100.960938 192.523438 C 100.316406 193.167969 99.894531 193.488281 99.691406 193.488281 L 99.425781 193.402344 L 99.644531 195.15625 L 99.691406 196.121094 L 100.128906 196.03125 L 101.398438 196.601562 L 103.0625 194.320312 M 103.898438 196.074219 L 102.84375 197.523438 L 105.867188 199.757812 L 107.445312 197.652344 C 106.335938 196.835938 105.328125 196.089844 104.421875 195.417969 L 103.898438 196.074219 M 104.859375 201.074219 L 101.835938 198.835938 L 100.304688 200.765625 C 100.710938 200.765625 101.691406 201.613281 103.238281 203.308594 L 104.859375 201.074219 M 106.085938 201.992188 L 104.246094 204.449219 L 106.394531 206.992188 L 108.847656 204.007812 L 106.085938 201.992188 M 115.027344 196.46875 C 114.265625 197.785156 113.816406 198.910156 113.667969 199.84375 L 113.625 200.152344 L 115.683594 201.640625 L 117.261719 198.003906 L 115.027344 196.46875 M 116.078125 195.503906 L 117.832031 196.863281 L 120.109375 192.875 L 118.050781 191.734375 L 115.859375 195.109375 L 115.773438 195.285156 L 116.078125 195.503906 M 118.136719 198.96875 L 116.867188 202.476562 L 119.101562 204.054688 L 119.320312 203.570312 L 120.941406 200.460938 L 118.3125 198.707031 L 118.136719 198.96875 M 111.914062 194.320312 L 109.679688 197.257812 L 112.355469 199.230469 L 112.574219 198.792969 L 114.0625 195.8125 L 111.914062 194.320312 M 112.179688 202.210938 L 110.953125 203.660156 L 113.625 205.71875 L 115.113281 202.871094 L 114.632812 202.5625 L 112.878906 201.421875 L 112.179688 202.210938 M 128.171875 186.167969 L 127.734375 186.210938 C 127.589844 186.210938 127.121094 185.980469 126.332031 185.511719 L 125.675781 186.5625 L 124.929688 187.746094 L 126.683594 188.535156 L 127.996094 189.105469 C 128.902344 187.820312 129.546875 187.03125 129.925781 186.738281 L 128.171875 186.167969 M 131.855469 191.078125 L 130.800781 187.570312 L 129.574219 189.851562 L 131.855469 191.078125 M 128.65625 191.472656 L 126.59375 194.804688 L 129.398438 196.339844 L 131.898438 192.613281 L 131.855469 192.613281 C 131.386719 192.613281 130.320312 192.234375 128.65625 191.472656 M 132.246094 192.570312 L 132.246094 192.613281 L 132.246094 192.570312 M 125.148438 184.808594 L 124.972656 184.679688 L 123.265625 183.757812 L 121.644531 186.257812 C 122.257812 186.546875 122.914062 186.855469 123.617188 187.175781 L 125.148438 184.808594 M 120.679688 187.703125 L 118.839844 190.507812 L 120.855469 191.605469 L 122.695312 188.625 L 122.082031 188.359375 C 121.789062 188.273438 121.324219 188.054688 120.679688 187.703125 M 125.324219 193.136719 L 126.945312 190.683594 L 124.011719 189.238281 L 122.082031 192.304688 L 124.886719 193.839844 L 125.324219 193.136719 M 125.761719 196.121094 L 123.089844 200.414062 L 125.675781 201.992188 L 128.480469 197.699219 C 127.894531 197.375 127.265625 197.011719 126.59375 196.601562 L 125.761719 196.121094 M 121.511719 199.40625 L 124.097656 195.109375 L 121.335938 193.53125 L 118.925781 197.609375 C 119.773438 198.253906 120.636719 198.851562 121.511719 199.40625 M 120.371094 204.667969 L 120.285156 204.886719 L 122.652344 206.597656 L 124.972656 203.046875 L 122.433594 201.421875 L 120.371094 204.667969 M 134.703125 203.046875 L 134.527344 203 L 134.308594 201.773438 L 132.074219 205.105469 L 134.789062 206.246094 L 134.878906 206.289062 L 134.832031 205.324219 L 134.65625 203.835938 L 134.703125 203.046875 M 133.738281 198.882812 L 132.554688 193.796875 C 132.410156 194.585938 131.910156 195.753906 131.066406 197.304688 L 133.738281 198.882812 M 133.78125 200.503906 C 133.050781 200.238281 131.867188 199.640625 130.230469 198.707031 L 127.382812 202.914062 L 130.890625 204.625 L 133.78125 200.503906 M 94.738281 146.894531 L 93.25 147.242188 L 93.074219 147.332031 L 94.78125 148.164062 L 95 148.296875 L 95 148.25 L 95.527344 147.289062 L 94.738281 146.894531 M 94.257812 149.875 L 93.25 149.390625 L 91.890625 148.777344 L 91.101562 150.925781 L 93.074219 152.328125 L 93.949219 150.53125 L 94.257812 149.875 M 100.304688 149.390625 L 97.410156 148.164062 L 96.839844 147.902344 L 96.710938 148.164062 L 96.273438 148.910156 L 99.691406 150.617188 L 100.304688 149.390625 M 85.273438 145.710938 L 85.40625 146.105469 L 85.40625 146.015625 L 85.273438 145.710938 M 86.675781 149.65625 L 88.078125 153.644531 L 88.121094 153.644531 L 89.171875 151.011719 L 87.203125 149.609375 L 86.675781 149.65625 M 88.953125 149.128906 L 89.699219 149.742188 L 90.136719 148.644531 L 88.953125 149.128906 M 88.605469 155.617188 L 88.777344 156.753906 L 89.523438 159.429688 L 90.925781 156.582031 C 90.050781 156.140625 89.363281 155.746094 88.867188 155.398438 L 88.605469 155.617188 M 89.65625 154.257812 L 91.582031 155.222656 L 92.679688 153.074219 L 92.589844 153.03125 L 90.707031 151.976562 L 89.65625 154.257812 M 90.09375 161.488281 L 90.53125 163.066406 L 89.785156 163.066406 L 91.144531 165.828125 L 91.890625 164.644531 L 92.984375 163.242188 L 92.898438 163.066406 L 92.460938 163.066406 L 90.136719 161.445312 L 90.09375 161.488281 M 99.03125 152.066406 L 95.484375 150.445312 L 95 151.628906 L 94.519531 152.984375 L 97.804688 154.433594 L 99.03125 152.066406 M 93.203125 156.054688 L 95.921875 157.414062 L 96.449219 156.582031 L 97.28125 155.351562 C 96.34375 154.886719 95.324219 154.375 94.210938 153.820312 L 93.203125 156.054688 M 94.386719 158.203125 L 92.546875 157.371094 L 92.371094 157.675781 L 90.839844 160.4375 L 93.511719 161.929688 L 95.21875 158.597656 L 94.386719 158.203125 M 100.214844 163.066406 L 100.039062 163.066406 L 101.265625 161.359375 L 96.886719 159.34375 L 95.4375 163.066406 L 94.652344 163.066406 L 94.652344 163.15625 L 98.15625 165.347656 L 100.214844 163.066406 M 97.234375 166.441406 C 95.804688 165.507812 94.722656 164.761719 93.992188 164.207031 L 93.160156 165.347656 L 92.152344 166.664062 L 95.265625 168.855469 L 96.886719 166.835938 L 97.234375 166.441406 M 94.125 172.40625 L 94.210938 172.667969 L 94.5625 173.71875 L 99.644531 177.796875 L 100.128906 177.050781 L 101.488281 174.683594 L 95.921875 170.652344 L 95.878906 170.609375 L 94.125 172.40625 M 94.652344 169.6875 L 92.066406 167.714844 L 93.644531 171.308594 L 94.652344 169.6875 M 97.5 182.574219 L 97.5 182.398438 L 97.585938 181.875 L 97.105469 181.785156 L 96.839844 182.046875 L 97.0625 183.363281 L 97.0625 183.800781 L 97.234375 183.496094 L 97.28125 183.449219 L 97.28125 183.230469 L 97.457031 182.707031 L 97.5 182.574219 M 96.710938 181.480469 L 97.675781 181.480469 C 97.878906 180.804688 98.289062 179.957031 98.902344 178.9375 L 95.132812 175.605469 L 95.832031 178.191406 L 96.710938 181.480469 M 99.644531 181.480469 L 101.925781 181.480469 L 100.390625 180.207031 L 99.644531 181.480469 M 73.878906 179.726562 L 73.835938 179.726562 L 73.835938 153.117188 L 74.273438 170.652344 L 73.878906 179.726562 M 97.585938 184.898438 L 97.457031 184.898438 L 98.199219 187.265625 L 99.472656 185.378906 L 98.289062 184.371094 C 98.054688 184.722656 97.820312 184.898438 97.585938 184.898438 M 99.25 192.347656 L 99.820312 191.472656 L 98.902344 190.464844 L 99.25 192.347656 M 99.867188 198.617188 L 99.820312 198.882812 L 100.566406 197.828125 L 99.734375 197.082031 L 99.820312 198.574219 L 99.867188 198.617188 M 136.410156 215.582031 L 135.273438 216.941406 L 136.542969 217.421875 L 137.289062 217.773438 L 137.15625 217.421875 L 137.113281 217.292969 L 137.023438 217.292969 L 136.628906 217.160156 L 136.410156 216.238281 L 136.804688 216.457031 L 136.542969 215.582031 L 136.410156 215.582031 M 137.855469 219.21875 L 137.59375 218.605469 C 137.476562 218.8125 137.289062 218.914062 137.023438 218.914062 L 134.21875 218.210938 L 132.6875 220.316406 L 135.972656 221.191406 C 136.847656 219.847656 137.402344 219.175781 137.636719 219.175781 L 137.855469 219.21875 M 139.871094 223.382812 C 139.753906 223.558594 139.566406 223.648438 139.304688 223.648438 L 136.675781 222.988281 L 134.308594 226.761719 L 138.601562 227.636719 L 138.644531 227.503906 C 139.316406 225.691406 139.917969 224.789062 140.441406 224.789062 L 140.617188 224.789062 L 139.871094 223.382812 M 139.347656 222.332031 L 138.296875 220.226562 L 137.507812 221.632812 L 139.347656 222.332031 M 145.699219 233.554688 C 145.582031 233.847656 145.21875 233.992188 144.605469 233.992188 L 142.019531 233.992188 L 140.179688 237.105469 L 144.605469 237.761719 L 146.488281 235.394531 L 145.699219 233.554688 M 144.515625 230.75 L 143.683594 230.75 L 142.765625 232.675781 L 145.4375 232.941406 L 144.515625 230.75 M 143.773438 230.617188 L 143.730469 230.574219 L 143.683594 230.703125 L 143.773438 230.617188 M 140.96875 229.257812 L 139.652344 229.082031 L 138.820312 230.75 L 138.644531 230.75 L 137.683594 232.328125 L 140.925781 232.503906 C 141.683594 230.953125 142.398438 229.886719 143.070312 229.300781 L 142.851562 228.953125 L 140.96875 229.257812 M 138.164062 228.863281 L 133.519531 228.03125 L 132.074219 230.179688 L 131.855469 230.53125 L 131.898438 230.96875 L 131.066406 232.195312 L 133.082031 232.28125 L 135.621094 232.28125 C 136.117188 231.347656 136.804688 230.617188 137.683594 230.089844 L 138.164062 228.863281 M 136.804688 233.773438 L 135.226562 236.402344 L 138.820312 236.886719 L 140.265625 233.949219 L 136.804688 233.773438 M 142.546875 228.382812 L 141.101562 225.707031 L 140.179688 227.945312 L 142.546875 228.382812 M 142.546875 243.417969 L 147.367188 243.460938 L 148.679688 241.007812 L 149.207031 241.75 C 149.207031 242.132812 149.046875 242.714844 148.722656 243.503906 L 150.039062 243.503906 L 148.199219 239.382812 L 147.367188 239.472656 L 145.21875 239.382812 L 142.546875 243.417969 M 141.273438 242.714844 L 143.554688 239.253906 L 139.082031 238.726562 L 135.578125 243.328125 L 135.621094 243.328125 L 140.878906 243.375 L 141.273438 242.714844 M 141.757812 244.511719 L 138.558594 248.941406 L 144.078125 249.027344 L 144.34375 249.027344 L 146.796875 244.511719 L 141.757812 244.511719 M 147.761719 238.417969 L 146.972656 236.535156 L 146.09375 238.027344 L 147.761719 238.417969 M 150.476562 244.511719 L 148.199219 244.511719 L 145.570312 249.027344 L 151.617188 249.246094 C 151.585938 249.101562 151.703125 248.910156 151.96875 248.675781 L 152.1875 248.5 L 151.003906 245.742188 L 150.476562 244.511719 M 130.933594 213.300781 C 129.648438 212.71875 128.507812 212.148438 127.515625 211.59375 L 125.894531 213.917969 L 129.707031 215.101562 L 130.933594 213.300781 M 131.765625 212.164062 L 134.613281 208.128906 C 133.796875 207.925781 132.597656 207.414062 131.019531 206.597656 L 128.261719 210.539062 C 129.222656 211.066406 130.394531 211.609375 131.765625 212.164062 M 132.160156 213.871094 L 131.019531 215.496094 L 134.394531 216.589844 L 135.445312 215.230469 L 132.160156 213.871094 M 136.058594 214.003906 C 135.652344 212.484375 135.359375 210.949219 135.183594 209.402344 L 132.992188 212.644531 L 136.058594 214.003906 M 125.71875 208.832031 L 127.164062 209.925781 L 129.925781 206.027344 L 126.550781 204.007812 L 123.921875 207.515625 L 125.71875 208.832031 M 121.90625 207.734375 L 119.539062 206.027344 L 117.699219 208.832031 L 120.023438 210.585938 L 120.109375 210.410156 L 121.90625 207.734375 M 120.328125 212.601562 L 118.621094 215.496094 L 121.90625 217.203125 L 122.039062 217.027344 L 123.835938 214.660156 C 123.308594 214.425781 122.914062 214.238281 122.652344 214.089844 L 120.328125 212.601562 M 121.117188 211.328125 L 124.359375 213.476562 L 124.625 213.566406 L 126.421875 210.980469 L 124.449219 209.664062 L 123.089844 208.613281 L 121.117188 211.285156 L 121.117188 211.328125 M 126.945312 219.046875 L 128.042969 217.421875 L 128.742188 216.414062 L 125.019531 215.101562 L 123.394531 217.421875 L 123.132812 217.816406 L 125.105469 218.652344 L 126.945312 219.046875 M 123.175781 219.351562 L 122.214844 219.046875 L 119.890625 222.332031 L 123.527344 223.910156 L 126.113281 220.226562 L 123.175781 219.351562 M 119.363281 222.988281 L 116.605469 226.761719 L 117.128906 227.066406 L 119.933594 228.644531 L 122.914062 224.699219 C 121.570312 224.058594 120.386719 223.488281 119.363281 222.988281 M 126.15625 224.789062 L 127.910156 225.3125 L 130.757812 221.5 L 127.429688 220.578125 L 124.796875 224.347656 L 126.15625 224.789062 M 124.097656 225.269531 L 121.207031 229.300781 L 121.949219 229.652344 L 122.257812 229.609375 L 124.535156 230.046875 L 127.121094 226.453125 C 125.921875 226.074219 124.914062 225.679688 124.097656 225.269531 M 128.304688 219.351562 L 131.765625 220.097656 L 133.386719 217.949219 L 131.808594 217.421875 L 130.1875 216.898438 L 130.058594 216.851562 L 129.664062 217.421875 L 128.304688 219.351562 M 129.3125 225.664062 L 132.730469 226.453125 L 135.050781 222.59375 L 131.898438 221.804688 L 129.3125 225.664062 M 114.324219 208.042969 L 113.976562 207.78125 L 113.316406 208.570312 L 111.519531 210.933594 C 112.367188 211.578125 113.070312 212.089844 113.625 212.46875 L 115.902344 209.3125 L 114.324219 208.042969 M 116.734375 208.085938 L 118.488281 205.238281 L 116.339844 203.746094 L 114.765625 206.597656 L 116.078125 207.605469 L 116.734375 208.085938 M 112.878906 206.992188 L 110.164062 204.972656 L 107.796875 208.128906 L 110.425781 210.101562 L 112.527344 207.472656 L 112.878906 206.992188 M 112.003906 214.53125 L 112.75 213.609375 C 112.105469 213.171875 111.40625 212.644531 110.644531 212.03125 L 109.066406 214.003906 L 111.125 215.667969 L 112.003906 214.53125 M 117.65625 214.96875 L 119.363281 211.898438 C 118.632812 211.375 117.816406 210.761719 116.910156 210.058594 L 114.71875 213.300781 L 114.851562 213.390625 L 117.65625 214.96875 M 104.027344 210.191406 L 105.605469 208 L 103.152344 205.851562 L 101.441406 208 L 102.40625 210.015625 L 102.449219 209.925781 L 102.757812 210.496094 C 102.875 210.203125 103.167969 210.058594 103.632812 210.058594 L 104.027344 210.191406 M 103.898438 213.214844 L 104.378906 214.265625 L 104.554688 214.046875 L 104.90625 214.792969 L 104.730469 215.011719 L 105.34375 216.457031 L 106.875 214.441406 L 104.511719 212.382812 L 103.898438 213.214844 M 103.328125 211.328125 L 102.976562 211.023438 L 102.890625 211.109375 L 103.152344 211.679688 L 103.328125 211.328125 M 109.503906 211.199219 L 107.007812 209.183594 L 105.472656 211.199219 L 107.972656 213.128906 L 109.503906 211.199219 M 105.914062 217.6875 L 107.445312 219.441406 L 107.839844 219.921875 L 109.726562 217.421875 L 110.03125 217.074219 L 107.972656 215.363281 L 106.175781 217.421875 L 105.914062 217.6875 M 107.226562 223.210938 C 107.460938 224.261719 107.722656 225.09375 108.015625 225.707031 L 107.839844 225.707031 L 107.972656 227.066406 L 108.101562 227.066406 L 108.542969 227.285156 L 110.6875 224.523438 L 109.066406 223.253906 L 107.578125 222.027344 L 107.140625 222.070312 L 107.007812 222.070312 L 107.226562 223.210938 M 116.824219 216.414062 L 113.929688 214.484375 L 112.355469 216.679688 L 113.273438 217.421875 L 115.070312 218.957031 L 116.167969 217.421875 L 116.824219 216.414062 M 117.085938 220.667969 L 118.621094 221.632812 L 120.898438 218.519531 C 120.140625 218.199219 119.363281 217.832031 118.578125 217.421875 L 117.742188 216.984375 L 117.613281 217.160156 L 117.4375 217.421875 L 116.035156 219.789062 L 117.085938 220.667969 M 111.300781 218.125 L 108.761719 221.0625 L 109.945312 222.332031 L 111.519531 223.472656 L 114.105469 220.183594 L 111.300781 218.125 M 118.09375 222.375 L 115.289062 220.929688 L 114.71875 221.851562 L 112.96875 224.480469 L 115.421875 226.058594 L 115.597656 225.839844 L 118.09375 222.375 M 113.667969 230.75 L 116.691406 231.933594 L 118.796875 230.089844 L 119.101562 229.695312 L 115.773438 227.855469 L 113.667969 230.617188 L 113.886719 230.75 L 113.667969 230.75 M 112.398438 229.742188 L 114.542969 227.15625 L 112.179688 225.621094 L 110.03125 228.164062 L 112.398438 229.742188 M 111.519531 230.75 L 110.644531 230.75 L 108.191406 228.863281 L 108.453125 230.75 L 108.234375 230.75 L 109.199219 234.035156 L 110.164062 232.589844 L 111.566406 231.054688 L 111.519531 230.75 M 111.914062 237.191406 L 109.550781 235.484375 L 110.382812 239.207031 L 111.609375 237.542969 L 111.914062 237.191406 M 112.792969 236.097656 L 114.28125 234.34375 L 115.070312 233.554688 C 113.871094 233.085938 112.980469 232.617188 112.398438 232.152344 L 110.382812 234.648438 L 112.792969 236.097656 M 114.808594 235.4375 L 113.976562 236.84375 C 115.582031 237.777344 116.953125 238.523438 118.09375 239.078125 L 119.628906 237.542969 L 121.292969 235.4375 C 119.421875 234.972656 117.832031 234.519531 116.515625 234.082031 L 114.808594 235.4375 M 110.777344 241.050781 L 110.996094 241.007812 L 112.574219 242.277344 L 113.976562 243.242188 L 117.085938 240.085938 C 115.742188 239.472656 114.441406 238.785156 113.1875 238.027344 C 112.046875 239.71875 111.214844 240.640625 110.6875 240.785156 L 110.777344 241.050781 M 113.1875 245.742188 L 113.40625 245.871094 C 113.464844 245.636719 113.492188 245.710938 113.492188 246.089844 C 113.492188 246.382812 113.027344 246.777344 112.089844 247.273438 L 112.355469 248.238281 L 112.398438 248.238281 L 116.167969 250.34375 L 119.234375 246.878906 C 117.101562 246.265625 115.363281 245.625 114.019531 244.953125 L 113.1875 245.742188 M 112.921875 244.292969 C 112.105469 243.769531 111.492188 243.226562 111.082031 242.671875 L 111.785156 245.785156 L 112.046875 245.695312 L 111.960938 245.300781 L 112.921875 244.292969 M 117.347656 245.039062 L 119.890625 246.003906 L 122.695312 242.191406 C 121.117188 241.722656 119.613281 241.179688 118.183594 240.566406 L 115.070312 243.898438 C 115.773438 244.308594 116.53125 244.6875 117.347656 245.039062 M 131.066406 229.257812 L 131.984375 227.722656 L 128.4375 226.847656 L 127.515625 227.988281 L 126.15625 230.089844 L 126.199219 230.398438 L 126.15625 230.660156 L 127.207031 231.144531 C 128.085938 231.550781 129.050781 231.859375 130.101562 232.0625 L 130.976562 230.75 L 129.96875 230.75 L 131.066406 229.257812 M 129.53125 232.941406 L 126.464844 232.28125 L 125.5 231.886719 L 123.441406 234.605469 L 125.894531 235.308594 L 127.691406 235.527344 L 129.53125 232.941406 M 127.867188 236.84375 L 124.667969 241.402344 L 128.742188 242.410156 L 132.816406 237.761719 L 128.085938 236.886719 L 127.867188 236.84375 M 128.742188 235.613281 L 133.78125 236.226562 L 135.007812 233.640625 L 130.453125 233.117188 L 128.742188 235.613281 M 122.609375 230.75 L 121.207031 230.75 L 120.546875 230.398438 C 120.226562 230.925781 119.511719 231.667969 118.402344 232.632812 C 119.890625 233.246094 121.191406 233.757812 122.300781 234.167969 L 124.40625 231.449219 L 122.609375 230.75 M 122.476562 235.746094 L 120.109375 238.417969 L 119.101562 239.558594 L 120.199219 239.953125 L 123.441406 241.007812 L 126.8125 236.667969 L 122.476562 235.746094 M 123.878906 242.496094 L 120.988281 246.355469 L 124.449219 247.273438 L 127.121094 244.117188 L 127.867188 243.375 L 125.5 242.890625 L 123.878906 242.496094 M 125.585938 248.28125 L 122.476562 252.578125 L 121.863281 253.410156 C 122.945312 253.878906 124.011719 254.273438 125.0625 254.59375 L 130.101562 248.984375 L 125.894531 248.328125 L 125.585938 248.28125 M 120.371094 247.1875 L 117.261719 250.957031 L 118.75 251.832031 L 120.636719 252.839844 L 123.878906 247.976562 L 120.371094 247.1875 M 130.1875 242.671875 L 133.648438 243.023438 L 134.394531 243.152344 L 137.769531 238.550781 L 134.308594 237.980469 C 133.605469 239.0625 132.628906 240.21875 131.371094 241.445312 L 130.1875 242.671875 M 131.941406 246.53125 L 133.695312 244.117188 L 129.269531 243.59375 L 127.734375 245.082031 L 126.070312 247.582031 L 130.625 248.28125 L 131.941406 246.53125 M 132.074219 248.457031 L 137.242188 248.851562 L 140.179688 244.46875 L 134.964844 244.207031 L 132.90625 247.1875 L 132.074219 248.457031 M 132.246094 255.382812 L 134.4375 252.621094 L 136.628906 249.730469 L 131.589844 249.203125 C 130.128906 251.335938 128.625 253.292969 127.078125 255.078125 L 130.496094 255.382812 L 132.246094 255.382812 M 133.605469 255.382812 L 140.355469 255.339844 L 143.730469 250.167969 L 137.902344 249.816406 L 134.878906 253.628906 L 133.605469 255.382812 M 121.292969 254.15625 C 119.804688 255.96875 118.488281 257.253906 117.347656 258.015625 L 120.417969 259.152344 L 122.214844 257.445312 L 124.316406 255.382812 C 123.382812 255.0625 122.375 254.652344 121.292969 254.15625 M 126.289062 255.953125 L 122.300781 259.898438 C 124.171875 260.484375 126.011719 260.9375 127.820312 261.257812 L 131.414062 256.4375 L 126.375 255.953125 L 126.289062 255.953125 M 121.425781 260.644531 L 117.394531 263.539062 L 117.742188 264.328125 L 118.226562 264.238281 C 118.546875 264.238281 118.984375 264.5 119.539062 265.027344 L 120.285156 264.894531 L 123.527344 265.902344 C 124.929688 264.648438 126.15625 263.363281 127.207031 262.046875 L 122.386719 260.996094 L 121.425781 260.644531 M 122.476562 266.78125 L 121.6875 266.429688 L 121.644531 266.5625 L 120.503906 266.648438 C 119.746094 266.648438 119.117188 266.503906 118.621094 266.210938 L 119.804688 268.710938 L 121.996094 267.132812 L 122.476562 266.78125 M 120.855469 269.761719 L 126.070312 270.902344 L 126.683594 271.03125 L 130.320312 268.007812 L 124.359375 267.351562 C 123.074219 268.609375 121.90625 269.410156 120.855469 269.761719 M 125.28125 266.34375 C 127.296875 266.78125 129.078125 267 130.625 267 L 131.285156 267 L 131.898438 266.253906 L 134.4375 262.835938 L 128.480469 262.265625 L 126.945312 264.28125 L 125.28125 266.34375 M 133.5625 261.738281 L 135.273438 261.695312 L 138.382812 257.707031 L 139.390625 256.566406 L 132.816406 256.480469 L 129.09375 261.433594 L 133.5625 261.738281 M 132.6875 267 L 138.121094 266.957031 L 140.484375 263.625 L 141.101562 262.921875 L 138.910156 262.921875 L 135.929688 262.878906 L 132.6875 267 M 113.449219 252.753906 L 115.378906 251.089844 C 114.472656 250.5625 113.550781 250.007812 112.617188 249.421875 L 113.449219 252.753906 M 117.175781 256.261719 C 118.285156 255.382812 119.234375 254.492188 120.023438 253.585938 L 116.5625 251.746094 C 115.332031 253.03125 114.414062 253.804688 113.800781 254.070312 L 114.851562 257.488281 L 115.246094 257.445312 L 115.464844 257.488281 L 117.175781 256.261719 M 115.289062 258.757812 L 115.816406 260.117188 L 116.910156 262.527344 L 119.585938 259.941406 L 115.902344 258.671875 L 115.289062 258.757812 M 133.914062 271.953125 L 134.21875 271.691406 L 137.15625 268.183594 L 131.765625 268.050781 L 128.390625 271.296875 L 133.914062 271.953125 M 129.222656 277.695312 C 127.9375 278.601562 126.59375 279.421875 125.191406 280.152344 L 125.542969 280.894531 L 125.675781 280.894531 C 126.199219 280.894531 127.136719 281.203125 128.480469 281.816406 L 129.09375 281.949219 L 134.65625 278.351562 L 130.800781 277.914062 L 129.222656 277.695312 M 136.058594 277.476562 L 137.59375 276.511719 L 141.054688 273.226562 L 134.4375 273.003906 L 130.277344 276.863281 L 136.058594 277.476562 M 132.730469 272.875 L 127.207031 272.261719 C 126.070312 273.109375 124.902344 273.867188 123.703125 274.539062 L 126.15625 275.8125 L 128.214844 276.425781 L 132.730469 272.875 M 122.695312 274.144531 L 122.695312 274.015625 L 125.414062 271.953125 C 123.25 271.542969 121.703125 271.148438 120.765625 270.769531 L 122.34375 274.144531 L 122.609375 274.101562 L 122.695312 274.144531 M 123.265625 276.03125 L 123.964844 277.5625 L 124.753906 279.230469 L 127.164062 277.300781 C 125.414062 276.921875 124.113281 276.496094 123.265625 276.03125 M 127.253906 284.621094 L 127.996094 286.199219 C 128.785156 286.257812 129.445312 286.566406 129.96875 287.121094 L 134.65625 283.921875 L 131.722656 283.746094 C 131.839844 283.65625 131.855469 283.585938 131.765625 283.527344 L 129.882812 283.351562 L 128.785156 283.832031 L 128.128906 284.402344 L 127.429688 284.621094 L 127.253906 284.621094 M 127.296875 283.308594 L 127.777344 282.867188 L 126.15625 282.210938 L 126.8125 283.613281 L 127.296875 283.308594 M 128.523438 287.425781 L 128.742188 287.953125 L 129.050781 287.734375 L 128.523438 287.425781 M 129.179688 288.960938 L 129.488281 289.925781 L 129.398438 290.539062 L 129.269531 290.757812 L 129.96875 292.292969 L 130.277344 292.207031 C 131.125 292.207031 131.78125 292.367188 132.246094 292.6875 L 136.628906 289.96875 L 136.847656 289.839844 C 133.722656 289.632812 131.5625 289.28125 130.363281 288.785156 L 130.101562 288.523438 L 129.179688 288.960938 M 155.078125 256.128906 C 154.464844 257.355469 153.457031 259.007812 152.054688 261.082031 L 153.71875 260.644531 L 156.347656 259.636719 L 156.4375 259.636719 L 155.253906 256.085938 L 155.078125 256.128906 M 156.785156 260.820312 C 156.058594 261.519531 154.171875 262.0625 151.132812 262.441406 L 151.003906 262.574219 L 148.15625 266.429688 L 151.179688 265.949219 L 153.148438 265.246094 L 154.464844 264.984375 L 157.007812 261.828125 L 157.050781 261.828125 L 156.875 261.171875 L 156.785156 260.820312 M 157.96875 268.621094 L 158.101562 268.621094 L 157.75 265.730469 L 154.640625 266.429688 L 150.257812 271.820312 L 151.921875 271.648438 C 152.332031 271.558594 152.535156 271.398438 152.535156 271.164062 C 152.566406 270.84375 152.769531 270.59375 153.148438 270.417969 L 156.917969 269.410156 L 157.96875 268.621094 M 157.664062 264.984375 L 157.269531 262.703125 L 155.734375 264.894531 L 156.128906 264.894531 L 157.664062 264.984375 M 153.414062 256.347656 L 147.847656 256.523438 L 143.730469 261.519531 L 144.738281 261.433594 L 146.707031 261.214844 C 147.554688 261.039062 148.679688 261.023438 150.082031 261.171875 L 150.960938 261.214844 L 151.089844 260.996094 C 151.617188 260.292969 152.273438 258.992188 153.0625 257.09375 L 153.414062 256.347656 M 154.113281 254.902344 L 154.550781 254.289062 L 152.84375 250.035156 L 148.855469 255.296875 L 152.84375 255.164062 L 153.28125 255.035156 L 154.113281 254.902344 M 148.242188 250.210938 L 144.867188 250.167969 L 144.253906 251.089844 L 141.363281 255.339844 L 147.277344 255.296875 L 151.441406 250.035156 L 148.242188 250.210938 M 139.039062 258.671875 L 136.847656 261.695312 L 142.238281 261.566406 L 146.269531 256.566406 L 140.53125 256.566406 L 139.039062 258.671875 M 139.390625 266.914062 L 146.707031 266.5625 L 149.863281 262.574219 L 142.546875 262.921875 L 141.230469 264.457031 L 139.390625 266.914062 M 138.382812 268.183594 L 135.273438 272.042969 L 142.195312 272.042969 L 144.957031 268.753906 L 145.746094 267.746094 L 138.910156 268.183594 L 138.382812 268.183594 M 145.832031 269.542969 L 143.859375 271.996094 L 148.722656 271.910156 L 153.0625 266.691406 L 151.527344 266.957031 L 147.277344 267.570312 L 145.832031 269.542969 M 147.890625 272.875 L 142.675781 273.226562 L 137.902344 277.519531 L 139.039062 277.519531 L 143.289062 277.476562 L 145.480469 275.460938 L 147.890625 272.875 M 152.886719 277.390625 L 148.285156 282.691406 L 152.84375 282.5625 C 155.0625 279.699219 156.960938 277.609375 158.539062 276.292969 L 158.847656 276.335938 L 158.804688 276.074219 L 153.28125 277.300781 L 152.886719 277.390625 M 153.5 273.925781 L 155.386719 271.296875 L 153.632812 271.734375 L 149.558594 272.609375 L 146.183594 276.335938 L 145.175781 277.390625 L 151.660156 276.601562 L 153.5 273.925781 M 136.675781 278.527344 C 134.6875 280.136719 133.023438 281.378906 131.679688 282.253906 L 136.542969 282.5625 L 141.714844 278.703125 L 141.449219 278.703125 L 136.675781 278.527344 M 145 283.964844 L 136.847656 283.921875 L 131.238281 287.867188 L 138.558594 288.699219 L 145 283.964844 M 145 282.691406 L 146.488281 282.691406 L 147.671875 281.597656 C 148.375 280.953125 149.425781 279.667969 150.828125 277.738281 L 143.730469 278.660156 L 138.644531 282.648438 L 145 282.691406 M 148.285156 288.828125 L 148.460938 288.566406 L 151.878906 283.832031 L 146.882812 283.964844 L 140.925781 288.785156 L 145.65625 288.828125 L 148.285156 288.828125 M 145.832031 290.101562 C 143.378906 290.101562 141.203125 290.058594 139.304688 289.96875 L 133.695312 293.652344 L 141.011719 294.398438 L 145.175781 291.503906 L 147.058594 290.101562 L 145.832031 290.101562 M 148.636719 290.058594 C 147.585938 291.253906 145.90625 292.730469 143.597656 294.484375 L 148.769531 294.527344 L 149.03125 294.222656 L 153.019531 289.664062 L 148.636719 290.058594 M 154.070312 288.433594 L 158.847656 282.867188 L 159.371094 282.914062 L 159.328125 282.472656 C 158.394531 283.027344 156.480469 283.4375 153.589844 283.703125 L 149.558594 288.785156 L 154.070312 288.433594 M 158.1875 270.332031 L 154.597656 275.152344 L 153.984375 275.984375 L 158.714844 275.023438 L 158.277344 270.289062 L 158.1875 270.332031 M 158.890625 277.257812 L 154.597656 282.472656 C 156.378906 282.328125 157.515625 282.136719 158.015625 281.902344 C 158.21875 281.816406 158.320312 281.640625 158.320312 281.378906 C 158.351562 281.203125 158.640625 281.113281 159.195312 281.113281 L 159.109375 280.0625 L 158.890625 277.257812 M 155.867188 287.953125 C 157.066406 287.339844 158.277344 287.03125 159.503906 287.03125 L 159.855469 287.078125 L 159.460938 283.703125 L 155.558594 288.085938 L 155.867188 287.953125 M 154.421875 289.445312 L 150.214844 294.527344 L 155.121094 294.441406 L 156.347656 292.90625 C 156.902344 292.089844 157.402344 291.066406 157.839844 289.839844 C 158.101562 289.28125 158.46875 288.800781 158.933594 288.390625 L 156.566406 289.003906 L 154.421875 289.445312 M 160.378906 289.707031 C 159.796875 290.875 158.746094 292.335938 157.226562 294.089844 L 157.007812 294.351562 L 159.941406 293.914062 L 161.5625 293.390625 L 161.257812 292.25 L 161.257812 291.722656 C 160.933594 291.429688 160.644531 290.757812 160.378906 289.707031 M 100.039062 202.519531 C 100.1875 204.097656 100.480469 205.484375 100.917969 206.683594 L 102.144531 204.84375 C 101.179688 203.90625 100.480469 203.132812 100.039062 202.519531 M 171.90625 341.738281 C 170.707031 342.234375 169.304688 342.527344 167.699219 342.613281 L 163.621094 347.917969 L 164.542969 348.445312 L 168.09375 349.191406 L 170.457031 344.9375 L 172.386719 341.5625 L 171.90625 341.738281 M 173.4375 342.527344 L 171.554688 345.769531 L 169.363281 349.367188 L 172.5625 349.628906 L 172.78125 349.671875 L 174.753906 347.21875 L 174.972656 347.4375 L 175.148438 347.21875 L 174.183594 345.15625 C 173.890625 344.457031 173.644531 343.578125 173.4375 342.527344 M 172.867188 339.765625 L 171.816406 337.046875 L 168.664062 341.300781 C 170.238281 341.152344 171.234375 340.921875 171.640625 340.597656 L 171.992188 340.027344 C 172.109375 339.882812 172.402344 339.796875 172.867188 339.765625 M 176.507812 349.933594 L 176.375 349.804688 L 176.375 349.714844 L 175.847656 348.621094 L 175.191406 348.972656 L 174.839844 348.796875 L 174.140625 349.761719 L 176.507812 349.980469 L 176.507812 349.933594 M 177.03125 350.898438 L 175.9375 350.945312 L 173.308594 350.855469 L 171.597656 353.046875 L 172.695312 353.089844 L 176.8125 353.3125 C 177.105469 352.636719 177.25 351.996094 177.25 351.382812 L 177.03125 350.898438 M 175.628906 356.160156 L 174.226562 358.089844 C 176.507812 358.03125 178.40625 357.796875 179.925781 357.386719 L 180.667969 355.984375 L 179.355469 354.496094 L 179.308594 354.449219 L 177.558594 354.449219 C 177.03125 355.621094 176.535156 356.203125 176.066406 356.203125 L 175.628906 356.160156 M 178.039062 353.398438 L 178.523438 353.441406 L 178.214844 352.960938 L 178.039062 353.398438 M 181.546875 356.992188 L 181.457031 356.863281 L 181.371094 357.035156 L 181.546875 356.992188 M 182.507812 358.132812 L 180.492188 358.660156 L 177.601562 363.21875 L 182.902344 363.085938 C 183.429688 362.0625 183.984375 361.199219 184.570312 360.5 L 182.507812 358.132812 M 182.335938 367.25 L 187.328125 366.15625 C 187.621094 365.335938 187.871094 364.824219 188.074219 364.621094 L 187.328125 363.789062 L 186.890625 364.007812 L 184.261719 364.355469 L 182.335938 367.25 M 188.554688 365.144531 L 188.644531 365.671875 L 188.644531 365.933594 L 189.257812 365.890625 L 188.554688 365.144531 M 186.320312 362.605469 L 185.621094 361.769531 L 185.136719 362.867188 L 186.144531 362.691406 L 186.320312 362.605469 M 173.4375 359.273438 L 173.308594 359.273438 L 170.589844 362.777344 L 170.285156 363.304688 L 170.808594 363.347656 L 176.242188 363.261719 L 179.046875 358.921875 L 173.4375 359.273438 M 175.410156 366.375 L 173.703125 368.828125 L 180.625 367.6875 L 182.289062 364.488281 L 177.382812 364.53125 L 176.679688 364.53125 L 175.410156 366.375 M 179.355469 369.484375 L 179.835938 368.914062 L 172.78125 370.054688 L 169.363281 374.089844 L 170.722656 374.527344 L 174.710938 374.484375 C 176.285156 373.082031 177.835938 371.414062 179.355469 369.484375 M 175.804688 374.484375 L 182.335938 374.132812 C 182.714844 373.664062 183.3125 373.066406 184.128906 372.335938 C 185.300781 371.253906 186 370.332031 186.234375 369.574219 L 186.804688 367.6875 L 181.328125 368.652344 L 180.011719 370.363281 L 175.804688 374.484375 M 183.429688 374.964844 L 182.640625 375.972656 L 180.230469 380.136719 L 188.160156 379.042969 L 190.046875 373.648438 L 188.996094 373.871094 L 183.429688 374.964844 M 174.402344 375.710938 C 172.707031 377.171875 171.292969 378.207031 170.152344 378.824219 L 171.597656 379.304688 C 173.703125 379.917969 175.234375 380.226562 176.199219 380.226562 L 178.433594 380.226562 C 179.660156 378.765625 180.742188 377.082031 181.675781 375.183594 L 174.402344 375.710938 M 184.128906 373.957031 L 190.308594 372.949219 L 191.929688 368.476562 L 190.351562 366.945312 L 188.160156 367.425781 C 187.488281 368.945312 186.144531 371.121094 184.128906 373.957031 M 196.96875 372.335938 C 196.941406 372.859375 196.632812 374.03125 196.050781 375.84375 L 198.023438 374.394531 L 199.117188 373.605469 L 197.144531 372.378906 L 196.96875 372.335938 M 195.960938 371.808594 L 192.105469 373.125 C 191.695312 374.820312 191.039062 376.617188 190.132812 378.515625 L 193.683594 377.15625 C 194.414062 374.90625 195.230469 373.152344 196.136719 371.898438 L 195.960938 371.808594 M 192.585938 369.179688 L 192.28125 372.335938 C 193.363281 371.898438 194.222656 371.457031 194.867188 371.019531 L 192.632812 369.136719 L 192.585938 369.089844 L 192.585938 369.179688 M 195.042969 378.648438 L 193.332031 383.164062 L 197.976562 382.199219 C 198.5625 381.964844 199.132812 381.714844 199.6875 381.453125 L 201.265625 376.148438 L 201.351562 374.921875 L 200.167969 374.21875 C 199.730469 375.066406 198.152344 376.179688 195.4375 377.550781 L 195.042969 378.648438 M 202.492188 375.535156 L 202.449219 376.324219 C 202.449219 377.785156 202.140625 378.601562 201.527344 378.777344 L 200.957031 380.707031 L 202.492188 379.566406 C 203.894531 378.457031 204.84375 377.769531 205.339844 377.507812 L 204.464844 376.5 L 202.492188 375.535156 M 206.085938 378.472656 L 205.910156 378.824219 L 206.171875 378.558594 L 206.085938 378.472656 M 175.847656 354.449219 L 170.722656 354.144531 L 167.960938 357.652344 L 167.828125 357.914062 L 172.824219 358.089844 L 175.847656 354.449219 M 207.707031 381.101562 L 207.265625 380.226562 C 206.828125 381.65625 205.851562 383.46875 204.332031 385.660156 L 204.289062 385.75 C 206.070312 385.25 207.210938 384.855469 207.707031 384.566406 L 207.707031 381.101562 M 208.363281 387.371094 L 207.882812 385.96875 C 207.441406 386.347656 206.710938 386.667969 205.691406 386.933594 L 203.0625 387.5 C 201.484375 389.78125 200.488281 391.460938 200.082031 392.542969 L 205.996094 390.484375 C 206.640625 389.226562 207.355469 388.175781 208.144531 387.328125 L 208.363281 387.371094 M 208.625 388.289062 L 208.054688 389.605469 L 208.84375 389.253906 L 208.757812 388.859375 L 208.625 388.289062 M 209.238281 394.996094 C 208.390625 395.582031 206.886719 396.269531 204.726562 397.058594 C 203.265625 400.097656 201.980469 402.507812 200.871094 404.289062 L 203.457031 403.105469 L 206.785156 400.871094 L 207.574219 400.390625 C 207.953125 399.425781 208.378906 398.753906 208.84375 398.371094 L 209.238281 394.996094 M 209.152344 390.308594 L 207.488281 391.007812 L 205.515625 395.390625 C 207.765625 394.253906 209.0625 393.625 209.414062 393.507812 L 209.457031 391.839844 L 209.152344 390.308594 M 210.160156 405.605469 L 210.117188 405.035156 L 209.238281 400.476562 L 209.152344 400.519531 C 208.742188 401.71875 207.925781 403.414062 206.699219 405.605469 L 205.164062 408.191406 L 207.835938 407.402344 L 210.160156 405.605469 M 209.941406 407.839844 L 208.714844 408.5 C 207.546875 409.023438 206.097656 409.375 204.375 409.550781 L 207.75 409.8125 C 208.859375 409.8125 209.589844 409.15625 209.941406 407.839844 M 205.644531 379.21875 C 204.828125 380.210938 203.074219 381.277344 200.386719 382.417969 L 198.679688 387.195312 L 202.402344 386.273438 L 203.457031 384.609375 C 203.953125 383.878906 204.464844 382.59375 204.988281 380.75 C 205.164062 380.167969 205.382812 379.65625 205.644531 379.21875 M 192.5 385.003906 L 192.195312 385.574219 L 190.222656 389.695312 L 194.078125 389.035156 C 195.277344 388.683594 196.445312 388.21875 197.582031 387.632812 L 199.25 382.898438 L 198.371094 383.207031 L 192.5 385.003906 M 196.882812 389.125 L 194.429688 390.175781 C 193.289062 390.613281 191.652344 390.921875 189.519531 391.097656 L 188.820312 392.324219 C 188.117188 393.492188 187.300781 394.574219 186.367188 395.566406 C 188.90625 395.273438 191.726562 394.75 194.824219 393.988281 L 196.664062 389.519531 L 196.882812 389.125 M 191.800781 383.425781 L 193.246094 378.601562 L 189.34375 380.007812 L 186.804688 384.257812 L 186.628906 384.566406 L 190.308594 383.644531 L 191.800781 383.425781 M 194.429688 394.953125 C 189.402344 396.296875 186.351562 396.96875 185.269531 396.96875 L 184.832031 396.96875 L 182.640625 398.503906 L 185.183594 400.738281 L 185.136719 400.390625 L 186.015625 400.257812 L 189.433594 400.828125 L 190.265625 400.828125 C 191.871094 399.425781 193.054688 397.890625 193.816406 396.226562 L 194.429688 394.953125 M 194.382812 397.101562 C 193.625 398.445312 192.75 399.644531 191.753906 400.695312 L 194.777344 400.039062 L 198.460938 393.8125 L 198.414062 393.8125 L 195.65625 394.601562 L 194.382812 397.101562 M 196.050781 393.683594 L 198.066406 393.113281 L 198.898438 392.894531 L 199.378906 391.710938 C 199.757812 390.773438 200.445312 389.472656 201.4375 387.808594 L 198.195312 388.554688 L 197.40625 390.527344 L 196.050781 393.683594 M 199.730469 393.417969 C 199.03125 395.261719 197.964844 397.292969 196.53125 399.511719 C 198.253906 398.929688 200.082031 398.140625 202.007812 397.144531 L 203.675781 396.3125 C 204.347656 394.355469 204.886719 392.90625 205.296875 391.972656 L 205.425781 391.710938 L 199.730469 393.417969 M 202.886719 397.671875 C 201.570312 398.605469 200.257812 399.410156 198.941406 400.082031 C 197.65625 400.753906 196.386719 401.25 195.128906 401.574219 L 192.414062 405.167969 L 198.371094 404.992188 L 199.117188 404.027344 C 201.101562 401.574219 202.476562 399.425781 203.234375 397.582031 L 202.886719 397.671875 M 185.183594 384.828125 C 186.144531 383.484375 186.980469 382.039062 187.679688 380.488281 C 185.078125 381.101562 182.40625 381.410156 179.660156 381.410156 L 179.265625 381.410156 C 177.339844 383.894531 175.5 385.136719 173.746094 385.136719 L 173.394531 385.089844 L 173.746094 385.574219 L 175.410156 385.355469 L 175.71875 385.441406 L 185.050781 384.828125 L 185.183594 384.828125 M 174.492188 386.667969 L 175.847656 389.078125 L 180.011719 390.089844 C 181.53125 388.949219 182.890625 387.675781 184.085938 386.273438 L 179.355469 386.449219 L 175.890625 386.363281 L 174.492188 386.667969 M 177.339844 381.363281 C 173.628906 381.160156 170.75 380.503906 168.707031 379.390625 L 168.617188 379.390625 L 171.554688 382.769531 L 172.957031 384.476562 L 175.980469 382.546875 L 177.339844 381.363281 M 179.792969 395.347656 L 180.011719 395.214844 L 182.335938 395.785156 L 184.699219 395.699219 C 186.015625 394.441406 187.210938 392.9375 188.292969 391.183594 L 184.613281 391.273438 L 181.0625 391.183594 C 179.925781 392.117188 178.886719 392.660156 177.953125 392.804688 L 179.792969 395.347656 M 176.550781 390.484375 L 177.339844 391.796875 L 178.742188 390.964844 L 176.550781 390.484375 M 183.296875 396.925781 L 180.757812 396.488281 L 182.070312 397.933594 L 182.070312 397.804688 L 183.296875 396.925781 M 189.082031 389.824219 L 191.140625 385.308594 L 185.53125 386.144531 L 182.246094 390.089844 L 189.082031 389.824219 M 188.425781 403.0625 L 191.40625 404.859375 L 193.550781 401.878906 L 191.625 402.011719 L 190.265625 401.96875 L 188.554688 403.105469 L 188.425781 403.0625 M 187.988281 402.492188 L 188.949219 401.835938 L 187.769531 401.574219 L 185.621094 401.089844 L 188.117188 402.886719 L 187.988281 402.492188 M 206.875 402.097656 C 204.417969 403.707031 202.15625 404.832031 200.082031 405.472656 C 199.261719 406.644531 198.546875 407.433594 197.933594 407.839844 L 200.957031 408.804688 C 201.101562 408.425781 201.613281 408.265625 202.492188 408.324219 L 203.191406 408.367188 L 204.199219 406.789062 L 206.171875 403.984375 L 206.875 402.097656 M 196.003906 406.175781 L 194.035156 406.175781 L 196.53125 407.269531 L 197.453125 406.085938 L 196.003906 406.175781 M 161.257812 301.410156 L 158.277344 301.410156 L 155.253906 305.269531 L 154.859375 305.664062 L 158.101562 306.320312 L 162 301.410156 L 161.257812 301.410156 M 162.878906 300.050781 L 162.132812 295.976562 L 158.933594 300.535156 L 162.878906 300.050781 M 161.386719 294.878906 L 155.824219 295.582031 L 152.40625 299.480469 L 151.574219 300.488281 L 157.707031 300.578125 L 158.714844 299.042969 L 161.386719 294.878906 M 154.597656 310.527344 L 156.785156 307.898438 L 153.019531 307.242188 L 150.125 309.652344 L 154.289062 310.878906 L 154.597656 310.527344 M 161.5625 310.835938 L 162.746094 308.425781 L 158.410156 308.074219 L 155.472656 311.230469 L 160.597656 312.808594 L 161.5625 310.835938 M 163.359375 303.296875 L 163.183594 301.980469 C 162.570312 303.089844 161.402344 304.640625 159.679688 306.625 L 163.359375 307.371094 L 163.84375 306.714844 L 163.359375 303.296875 M 164.0625 308.425781 L 161.476562 313.070312 L 164.851562 314.121094 L 164.894531 314.121094 L 164.105469 308.425781 L 164.0625 308.425781 M 157.136719 301.410156 L 150.652344 301.324219 C 149.660156 302.140625 148.328125 303.0625 146.664062 304.085938 L 147.148438 304.171875 L 153.5 305.398438 L 154.597656 304.390625 L 157.136719 301.410156 M 153.984375 295.667969 L 149.996094 295.710938 L 149.292969 295.710938 C 148.214844 296.878906 146.535156 298.328125 144.253906 300.050781 L 149.953125 300.445312 C 150.828125 299.714844 151.351562 299.132812 151.527344 298.691406 C 151.878906 297.84375 152.609375 296.910156 153.71875 295.886719 L 153.984375 295.667969 M 141.363281 296.0625 C 139.375 297.464844 137.683594 298.53125 136.28125 299.261719 L 137.066406 299.351562 L 142.675781 299.921875 C 144.515625 298.664062 146.183594 297.261719 147.671875 295.710938 L 142.019531 295.625 L 141.363281 296.0625 M 141.101562 300.882812 L 135.007812 300.140625 L 134.613281 300.050781 L 134.351562 300.140625 C 135.550781 300.257812 137.273438 300.78125 139.523438 301.71875 L 139.566406 301.761719 L 141.101562 300.882812 M 137.8125 295.359375 L 132.292969 294.265625 L 131.460938 294.398438 L 130.757812 294.222656 L 131.460938 296.371094 L 131.238281 296.632812 L 131.632812 297.683594 L 131.679688 297.683594 C 132.203125 297.683594 132.757812 297.902344 133.34375 298.34375 L 134 298.738281 L 134.65625 298.386719 C 136.46875 297.449219 138.074219 296.488281 139.476562 295.492188 L 137.8125 295.359375 M 140.96875 302.332031 C 142.457031 302.914062 143.832031 303.382812 145.085938 303.734375 L 148.8125 301.277344 L 142.894531 301.015625 L 140.96875 302.332031 M 143.378906 304.742188 L 139.171875 303.339844 L 138.074219 303.910156 L 138.820312 304.347656 L 141.449219 305.925781 L 143.378906 304.742188 M 144.648438 305.269531 L 142.589844 306.582031 C 144.488281 307.636719 145.90625 308.320312 146.839844 308.644531 L 148.550781 309.167969 L 151.617188 306.933594 C 149.425781 306.464844 147.160156 305.882812 144.824219 305.179688 L 144.648438 305.269531 M 137.199219 304.257812 C 136.207031 304.640625 135.34375 304.859375 134.613281 304.917969 L 136.28125 308.773438 L 136.410156 309.082031 C 136.558594 308.933594 136.703125 308.863281 136.847656 308.863281 L 136.894531 308.863281 C 137.300781 308.511719 138.585938 307.679688 140.75 306.363281 L 137.199219 304.257812 M 144.910156 311.449219 L 147.320312 309.957031 L 145.570312 309.082031 L 141.84375 307.019531 L 137.945312 309.386719 C 138.851562 309.914062 140.3125 310.90625 142.328125 312.367188 L 142.765625 312.675781 L 144.910156 311.449219 M 137.113281 310.484375 L 139.433594 314.824219 L 139.785156 314.472656 L 139.785156 314.386719 L 141.230469 313.550781 L 137.113281 310.484375 M 148.8125 310.660156 L 144.210938 313.726562 L 148.066406 316.402344 C 149.878906 315.117188 151.484375 313.785156 152.886719 312.414062 L 148.8125 310.660156 M 137.417969 302.726562 L 133.957031 301.277344 L 136.71875 303.03125 L 137.417969 302.726562 M 145.699219 323.238281 L 143.289062 322.101562 L 145.394531 327.054688 L 149.425781 324.335938 L 145.699219 323.238281 M 151.792969 323.460938 L 155.824219 324.027344 L 156.480469 324.074219 L 158.671875 321.179688 L 155.429688 320.347656 L 151.96875 323.285156 L 151.792969 323.460938 M 150.914062 323.285156 L 151.617188 322.800781 L 154.769531 320.128906 C 152.785156 319.484375 150.753906 318.667969 148.679688 317.671875 C 146.78125 319.191406 145.175781 320.1875 143.859375 320.652344 L 144.210938 320.828125 C 145.964844 321.851562 147.160156 322.4375 147.804688 322.582031 L 150.914062 323.285156 M 147.234375 316.972656 C 145.628906 316.183594 144.125 315.351562 142.722656 314.472656 L 141.101562 314.957031 C 141.011719 315.304688 140.648438 315.613281 140.003906 315.875 L 141.320312 318.332031 L 142.019531 319.601562 L 142.414062 319.820312 L 146.140625 317.671875 L 147.234375 316.972656 M 149.207031 328.894531 L 150.914062 329.464844 C 152.84375 327.945312 154.378906 326.542969 155.515625 325.257812 L 150.433594 324.554688 L 146.007812 327.84375 L 149.207031 328.894531 M 148.023438 334.285156 C 148.753906 334.285156 149.527344 334.460938 150.34375 334.8125 L 152.667969 335.164062 C 154.421875 333.90625 155.894531 332.578125 157.09375 331.175781 L 151.660156 330.734375 C 149.671875 332.460938 148.125 333.410156 147.015625 333.585938 L 147.191406 334.375 L 148.023438 334.285156 M 153.808594 330.035156 L 157.96875 330.035156 L 158.320312 329.464844 L 160.90625 325.652344 L 156.875 325.386719 L 152.753906 329.726562 L 152.582031 329.902344 L 153.808594 330.035156 M 149.117188 330.121094 C 148.007812 329.539062 146.941406 329.097656 145.917969 328.808594 L 146.753906 332.445312 C 147.367188 331.976562 148.375 331.277344 149.777344 330.339844 L 149.117188 330.121094 M 163.578125 314.78125 L 160.597656 314.5625 C 159.402344 316.488281 158.496094 317.703125 157.882812 318.199219 L 156.960938 319.03125 L 159.855469 319.691406 C 161.519531 317.585938 162.964844 315.933594 164.191406 314.734375 L 163.578125 314.78125 M 166.164062 321.136719 L 166.164062 321.046875 L 166.121094 321.136719 L 166.164062 321.136719 M 166.339844 322.011719 L 165.640625 322.011719 L 164.105469 324.25 L 166.910156 324.203125 L 166.339844 322.011719 M 165.769531 319.296875 L 165.070312 315.304688 L 161.125 319.996094 L 164.542969 320.785156 L 165.769531 319.296875 M 157.226562 317.324219 C 158.015625 316.738281 158.832031 315.757812 159.679688 314.386719 C 157.925781 314.0625 156.027344 313.539062 153.984375 312.808594 L 149.46875 317.015625 L 156 318.769531 L 157.226562 317.324219 M 157.796875 324.160156 L 161.914062 324.25 L 163.621094 321.925781 L 159.898438 321.441406 L 157.796875 324.160156 M 158.363281 331.21875 C 157.109375 332.765625 155.808594 334.109375 154.464844 335.25 L 157.621094 335.292969 L 159.941406 335.292969 L 160.074219 335.074219 L 163.097656 331.128906 L 159.503906 331.21875 L 158.363281 331.21875 M 159.328125 329.945312 L 159.285156 330.035156 L 163.886719 330.035156 L 166.996094 325.695312 L 166.425781 325.738281 L 162.921875 325.695312 L 159.328125 329.945312 M 166.777344 329.070312 L 168.09375 328.414062 L 167.433594 326.265625 L 165.113281 330.035156 L 166.382812 329.992188 C 166.617188 329.960938 166.691406 329.875 166.601562 329.726562 C 166.425781 329.492188 166.484375 329.273438 166.777344 329.070312 M 169.40625 332.09375 L 168.046875 334.199219 L 170.019531 333.496094 L 169.40625 332.09375 M 164.5 331 L 161.652344 335.207031 L 165.417969 334.8125 L 168.835938 330.515625 L 168.574219 329.773438 C 167.84375 330.328125 166.484375 330.734375 164.5 331 M 130.582031 293.78125 L 130.847656 293.609375 L 130.40625 293.390625 L 130.582031 293.78125 M 132.511719 299.132812 L 132.117188 298.867188 L 132.378906 299.570312 L 132.816406 299.351562 L 132.511719 299.132812 M 133.035156 300.488281 L 132.773438 300.535156 L 133.082031 301.234375 L 133.300781 301.015625 L 133.035156 300.882812 L 133.035156 300.488281 M 135.753906 303.425781 L 133.386719 301.980469 L 134.21875 304.039062 L 135.753906 303.425781 M 171.292969 336.257812 L 170.457031 334.550781 L 168.179688 335.292969 L 166.867188 335.644531 L 166.648438 335.863281 L 162.265625 340.863281 L 161.957031 341.34375 L 164.457031 341.429688 L 167.085938 341.386719 C 169.1875 338.523438 170.589844 336.8125 171.292969 336.257812 M 154.378906 340.203125 L 158.804688 336.476562 L 157.664062 336.476562 L 152.976562 336.433594 C 151.425781 337.542969 149.820312 338.40625 148.15625 339.019531 L 148.199219 339.152344 C 148.316406 338.976562 148.621094 338.890625 149.117188 338.890625 L 154.15625 340.160156 L 154.378906 340.203125 M 159.722656 342.265625 L 155.339844 341.5625 L 153.0625 343.007812 L 157.621094 345.070312 L 159.722656 342.265625 M 158.539062 345.507812 L 159.722656 346.035156 C 160.394531 346.238281 161.402344 346.707031 162.746094 347.4375 L 163.578125 346.253906 L 166.207031 342.613281 L 161.167969 342.394531 L 158.539062 345.507812 M 160.511719 341.257812 L 161.386719 340.027344 L 164.457031 336.039062 L 160.773438 336.390625 C 159.519531 337.996094 158.117188 339.429688 156.566406 340.6875 L 160.511719 341.257812 M 162.441406 349.320312 L 160.292969 351.734375 L 165.59375 352.652344 L 166.953125 351.074219 L 167.566406 350.109375 L 162.789062 348.882812 L 162.441406 349.320312 M 161.871094 348.578125 L 157.179688 346.734375 C 156.21875 347.554688 155.222656 348.226562 154.203125 348.753906 L 159.285156 351.382812 C 159.957031 350.855469 160.820312 349.921875 161.871094 348.578125 M 154.640625 353.96875 L 158.539062 351.953125 L 157.53125 351.601562 C 155.925781 351.046875 154.289062 350.328125 152.625 349.453125 L 151.308594 349.847656 C 150.929688 349.761719 150.738281 349.554688 150.738281 349.234375 C 150.738281 349.117188 150.902344 348.941406 151.222656 348.707031 L 150.082031 348.09375 C 150.460938 349.527344 151.148438 351.46875 152.140625 353.925781 L 152.929688 353.792969 L 154.597656 354.011719 L 154.640625 353.96875 M 161.214844 356.816406 L 164.851562 353.441406 L 159.722656 352.300781 C 158.613281 353.382812 157.574219 354.230469 156.613281 354.84375 L 158.757812 355.941406 L 161.214844 356.816406 M 168.707031 350.328125 L 167.523438 351.953125 L 166.867188 352.742188 L 170.066406 353.003906 L 171.859375 350.769531 L 168.707031 350.328125 M 166.078125 353.617188 L 162.746094 357.210938 L 166.472656 357.78125 L 167.171875 356.773438 L 169.277344 354.011719 L 166.078125 353.617188 M 150.519531 336.257812 C 150.785156 335.996094 150.566406 335.746094 149.863281 335.515625 L 147.320312 335.03125 L 147.933594 338.011719 L 150.871094 336.347656 L 150.519531 336.257812 M 149.335938 341.300781 L 151.484375 342.265625 L 153.28125 340.992188 C 151.0625 340.292969 149.394531 339.867188 148.285156 339.722656 L 149.777344 346.824219 C 150.300781 346.96875 151.191406 347.335938 152.449219 347.917969 L 153.808594 347.175781 L 155.910156 346.121094 L 151.574219 343.796875 L 149.777344 344.585938 C 149.394531 344.5 149.207031 344.265625 149.207031 343.886719 L 150.433594 343.007812 L 148.769531 341.652344 C 148.914062 341.417969 149.105469 341.300781 149.335938 341.300781 M 153.371094 356.773438 L 154.378906 360.148438 L 156 360.585938 L 160.160156 357.695312 L 154.945312 355.632812 L 153.0625 355.984375 L 153.019531 355.984375 L 153.371094 356.773438 M 152.492188 354.714844 L 152.582031 354.976562 L 152.800781 354.84375 L 152.492188 354.714844 M 171.859375 359.273438 L 167.128906 359.183594 L 164.71875 362.734375 L 168.96875 363.171875 L 169.714844 362.035156 L 171.859375 359.273438 M 167.785156 367.382812 L 166.953125 368.433594 L 168.398438 369.046875 L 171.859375 368.960938 L 175.324219 364.53125 L 169.714844 364.3125 L 167.785156 367.382812 M 168.3125 364.183594 L 163.886719 363.699219 C 162.367188 365.367188 160.90625 366.300781 159.503906 366.503906 L 160.25 367.117188 L 160.292969 366.988281 L 161.386719 366.945312 C 162.382812 366.945312 163.726562 367.25 165.417969 367.863281 L 166.648438 366.636719 L 168.3125 364.183594 M 161.605469 358.308594 L 157.96875 361.199219 L 161.828125 362.472656 L 162.441406 362.515625 L 165.464844 359.054688 L 162.394531 358.613281 L 161.605469 358.308594 M 154.683594 361.375 L 154.902344 361.246094 L 154.640625 361.15625 L 154.683594 361.375 M 155.035156 362.339844 C 155.648438 363.683594 156.507812 364.796875 157.621094 365.671875 L 158.320312 365.847656 L 161.605469 363.304688 L 159.109375 362.777344 L 156.65625 361.902344 L 155.035156 362.339844 M 162.660156 369.96875 L 164.191406 368.828125 L 160.992188 367.863281 L 162.660156 369.96875 M 163.972656 372.070312 L 167.742188 373.476562 L 170.765625 370.230469 L 166.03125 369.308594 C 165.214844 369.984375 164.292969 370.507812 163.273438 370.886719 L 163.972656 372.070312 M 166.253906 374.351562 L 164.980469 373.738281 L 165.859375 375.359375 L 165.859375 375.316406 L 166.691406 374.527344 L 166.253906 374.351562 M 166.164062 375.84375 L 166.953125 377.375 L 167.960938 378.648438 L 168.046875 378.601562 L 168.046875 378.472656 L 168.617188 378.382812 C 170.167969 377.710938 171.6875 376.820312 173.175781 375.710938 L 168.355469 375.054688 C 167.65625 375.636719 167.085938 375.929688 166.648438 375.929688 L 166.164062 375.84375 "/>
<path style=" stroke:none;fill-rule:evenodd;fill:rgb(0%,0%,0%);fill-opacity:1;" d="M 128.609375 181.828125 L 128.65625 181.828125 L 128.609375 181.917969 L 128.609375 181.828125 M 136.542969 215.582031 L 136.410156 215.582031 L 136.542969 215.582031 "/>
</g>
</svg>
