<?xml version="1.0" encoding="UTF-8"?>
<svg xmlns="http://www.w3.org/2000/svg" xmlns:xlink="http://www.w3.org/1999/xlink" width="212px" height="411px" viewBox="0 0 212 411" version="1.1">
<g id="surface1">
<path style=" stroke:none;fill-rule:evenodd;fill:rgb(0%,0%,0%);fill-opacity:0.678431;" d="M 63.933594 85.21875 L 63.933594 85.171875 L 63.976562 85.261719 L 63.933594 85.21875 M 71.515625 111.5625 L 71.558594 111.519531 C 72.054688 111.519531 72.417969 111.648438 72.652344 111.914062 L 72.214844 111.914062 L 71.515625 111.5625 M 112.484375 121.601562 L 115.246094 124.097656 C 116.414062 124.421875 119.554688 126.378906 124.667969 129.972656 L 124.886719 129.929688 C 126.492188 129.929688 127.339844 130.585938 127.429688 131.902344 L 127.429688 132.078125 L 127.777344 131.902344 C 127.953125 133.449219 127.984375 135.917969 127.867188 139.308594 L 127.515625 147.199219 L 127.601562 148.164062 L 128.304688 159.605469 L 128.742188 160.042969 L 128.65625 160.480469 L 128.347656 160.699219 L 128.523438 163.066406 L 128.390625 163.066406 L 128.832031 167.1875 L 128.390625 171.265625 L 128.960938 173.238281 L 129.050781 176.832031 L 129.617188 178.496094 C 130.40625 180.515625 130.800781 181.960938 130.800781 182.835938 L 130.757812 183.101562 L 130.800781 183.230469 L 133.519531 192.394531 C 134.863281 197.214844 135.535156 200.632812 135.535156 202.652344 L 135.492188 202.824219 L 135.402344 202.957031 L 135.710938 205.191406 L 135.664062 205.894531 L 135.621094 205.9375 L 135.753906 206.992188 L 135.929688 207.472656 L 135.886719 207.867188 L 136.105469 209.53125 L 136.410156 211.417969 L 136.804688 213.609375 L 136.847656 213.566406 C 137.289062 213.566406 137.507812 213.800781 137.507812 214.265625 L 137.113281 214.75 L 137.15625 214.925781 L 137.15625 215.101562 C 137.507812 216.648438 137.902344 217.949219 138.339844 219 C 139.011719 220.667969 140.765625 223.792969 143.597656 228.382812 L 144.78125 230.308594 L 144.957031 230.265625 C 145.191406 230.265625 147.320312 234.328125 151.351562 242.453125 L 151.308594 242.890625 C 151.308594 243.210938 151.71875 243.871094 152.535156 244.863281 L 152.84375 245.433594 C 154.65625 249.117188 156.363281 254.230469 157.96875 260.777344 C 158.671875 263.699219 159.285156 268.445312 159.8125 275.023438 L 160.074219 275.023438 L 160.160156 275.460938 L 159.855469 275.722656 L 159.855469 276.074219 C 160.351562 282.738281 161.109375 287.820312 162.132812 291.328125 L 162.046875 291.460938 L 162.527344 293.433594 L 162.703125 293.433594 L 162.789062 293.78125 L 162.703125 294.089844 L 162.789062 294.441406 L 162.789062 294.617188 C 164.71875 302.972656 165.859375 309.226562 166.207031 313.378906 C 166.441406 316.152344 166.75 318.609375 167.128906 320.742188 L 167.347656 321.398438 L 167.390625 321.398438 L 167.390625 321.53125 L 169.101562 327.800781 L 172.34375 335.164062 C 173.277344 335.28125 173.921875 336.535156 174.269531 338.933594 C 174.796875 342.382812 175.132812 344.28125 175.277344 344.632812 L 177.558594 349.367188 C 179.425781 350.242188 183.210938 354.800781 188.90625 363.042969 C 189.402344 363.21875 190.644531 364.242188 192.632812 366.109375 L 195.566406 368.914062 L 198.414062 370.273438 C 199.527344 370.539062 201.058594 371.488281 203.015625 373.125 C 207.019531 376.484375 209.019531 378.867188 209.019531 380.269531 C 209.019531 381.203125 208.84375 381.730469 208.496094 381.847656 L 210.554688 391.753906 C 210.554688 393.273438 210.394531 395.144531 210.070312 397.363281 L 210.203125 399.777344 L 211.210938 405.125 C 211.210938 409.039062 210.117188 410.996094 207.925781 410.996094 C 203.222656 410.996094 198.414062 409.742188 193.507812 407.226562 L 191.449219 406.351562 L 191.1875 406.613281 C 190.804688 406.527344 190.617188 406.308594 190.617188 405.957031 C 188.832031 405.019531 186.964844 403.851562 185.007812 402.449219 C 180.273438 399.058594 177.628906 396.210938 177.074219 393.902344 C 176.171875 392.617188 175.5 391.34375 175.058594 390.089844 C 174.503906 388.511719 173.132812 386.449219 170.941406 383.90625 L 165.988281 378.121094 L 160.03125 370.582031 L 156.394531 366.460938 C 155.371094 365.90625 154.492188 364.632812 153.761719 362.648438 L 153.71875 362.515625 C 152.8125 360.761719 151.703125 357.738281 150.390625 353.441406 C 149.105469 349.261719 148.460938 346.941406 148.460938 346.472656 L 148.503906 345.992188 L 147.101562 338.40625 L 145.746094 333.671875 L 141.539062 321.355469 L 140.96875 320.257812 L 140.660156 320.039062 L 140.792969 319.863281 L 140.179688 318.726562 L 137.023438 312.71875 L 135.316406 309.519531 L 134.921875 308.597656 C 133.050781 304.742188 131.679688 301.761719 130.800781 299.65625 C 129.515625 296.675781 128.65625 294.015625 128.214844 291.679688 C 126.871094 288.84375 126.199219 286.785156 126.199219 285.5 L 126.199219 285.410156 C 123.894531 280.53125 120.109375 272.347656 114.851562 260.863281 C 113.480469 257.851562 111.84375 252.167969 109.945312 243.8125 C 108.21875 236.359375 107.359375 232.0625 107.359375 230.925781 L 107.535156 230.398438 L 107.359375 228.292969 L 106.921875 224.875 C 106.597656 223.472656 106.058594 221.75 105.300781 219.703125 C 104.890625 219.175781 104.628906 218.707031 104.511719 218.300781 C 104.070312 217.511719 103.5625 216.414062 102.976562 215.011719 L 101.96875 212.339844 L 101.882812 212.382812 L 101.53125 212.292969 L 101.355469 211.898438 L 101.617188 211.375 L 100.304688 207.691406 C 99.71875 206.203125 99.382812 204.214844 99.296875 201.730469 L 98.726562 201.511719 L 98.683594 201.117188 L 99.03125 200.195312 L 98.945312 199.890625 L 99.121094 198.660156 L 99.078125 198.617188 L 99.164062 198.53125 L 98.902344 195.726562 L 98.902344 195.59375 C 98.375 194.015625 97.863281 192.1875 97.367188 190.113281 L 96.007812 183.976562 L 95.921875 183.757812 L 95 181.480469 L 95.570312 181.480469 L 95.4375 180.777344 L 95.265625 180.121094 L 93.597656 174.203125 L 93.117188 173.632812 L 93.160156 173.324219 L 93.25 173.28125 L 90.925781 168.589844 C 89.667969 165.902344 88.953125 164.0625 88.777344 163.066406 L 88.648438 163.066406 L 88.339844 161.488281 C 87.609375 156.726562 86.441406 152.546875 84.835938 148.953125 L 84.484375 148.164062 C 83.285156 145.417969 82.335938 142.832031 81.636719 140.40625 C 81.167969 138.855469 80.292969 136.535156 79.007812 133.4375 L 79.183594 133.699219 L 79.136719 133.566406 L 76.992188 127.035156 L 77.910156 129.097656 L 77.910156 129.269531 C 77.734375 129.5625 77.808594 129.828125 78.128906 130.058594 C 78.800781 130.558594 80.410156 130.804688 82.949219 130.804688 C 85.257812 130.804688 88.136719 130.382812 91.582031 129.535156 L 93.46875 129.710938 L 103.328125 127.300781 C 109.898438 125.515625 113.1875 124.128906 113.1875 123.132812 C 113.15625 122.667969 112.96875 122.359375 112.617188 122.214844 L 112.222656 121.820312 L 112.484375 121.601562 M 74.800781 120.722656 L 73.703125 117.65625 L 73.703125 117.523438 L 74.40625 119.1875 L 74.40625 119.410156 L 74.800781 120.722656 M 73.003906 125.195312 C 73.355469 125.605469 73.457031 126.421875 73.308594 127.648438 L 73.089844 132.734375 L 72.917969 134.792969 L 73.136719 134.707031 L 73.179688 135.976562 L 73.398438 136.152344 L 73.308594 136.679688 L 73.222656 136.855469 L 73.660156 148.164062 L 73.703125 149.304688 L 73.96875 153.949219 L 73.925781 155.792969 L 74.144531 162.671875 L 74.1875 162.980469 L 74.40625 169.730469 L 73.792969 183.714844 L 73.835938 183.890625 L 73.792969 184.066406 L 73.75 184.503906 L 73.835938 184.679688 L 73.75 184.808594 L 73.574219 189.984375 L 73.660156 190.464844 C 73.925781 190.550781 74.054688 190.773438 74.054688 191.121094 L 73.96875 191.648438 L 73.96875 191.78125 L 74.230469 192 L 74.097656 192.128906 L 74.316406 192.832031 C 75.457031 196.074219 76.289062 199.378906 76.816406 202.738281 L 76.816406 205.851562 L 77.035156 209.402344 L 77.210938 209.882812 L 77.035156 210.191406 L 76.992188 215.101562 C 77.109375 215.949219 77.121094 216.957031 77.035156 218.125 L 76.554688 220.535156 L 76.289062 224.085938 L 77.734375 229.609375 C 78.847656 231.714844 79.679688 234.882812 80.234375 239.121094 L 80.671875 240.699219 L 80.714844 240.699219 L 80.714844 240.832031 L 81.242188 242.804688 L 81.417969 242.804688 L 81.328125 243.769531 L 83.476562 254.375 L 83.476562 260.03125 L 83.609375 261.433594 L 83.476562 263.40625 L 83.476562 263.933594 L 83.695312 264.457031 L 83.476562 265.027344 L 83.476562 269.542969 L 83.609375 270.550781 L 83.695312 270.726562 L 83.609375 271.253906 L 83.609375 272.347656 C 83.609375 274.335938 83.113281 277.054688 82.117188 280.5 L 80.761719 285.105469 C 80.46875 286.066406 80.367188 287.734375 80.453125 290.101562 C 80.539062 292.378906 80.378906 294.03125 79.972656 295.054688 L 78.4375 300.621094 L 78.4375 300.710938 L 78.351562 301.105469 C 77.96875 304.726562 77.53125 307.3125 77.035156 308.863281 L 76.378906 311.097656 L 76.816406 311.1875 L 76.902344 311.535156 C 76.902344 311.859375 76.523438 312.414062 75.765625 313.203125 L 75.5 314.167969 C 75.035156 316.765625 74.769531 318.84375 74.710938 320.390625 L 74.710938 320.960938 L 74.800781 321.003906 L 75.0625 321.046875 L 75.0625 321.136719 L 75.371094 321.269531 L 75.28125 321.707031 L 74.710938 321.792969 L 74.667969 321.792969 C 74.582031 324.863281 74.566406 328.867188 74.625 333.804688 C 74.828125 333.980469 74.933594 334.226562 74.933594 334.550781 L 74.667969 335.820312 L 74.710938 339.898438 L 74.710938 341.695312 L 74.84375 344.367188 L 74.625 346.472656 L 74.582031 350.328125 C 74.40625 350.621094 74.273438 351.015625 74.1875 351.511719 C 74.070312 352.273438 74.070312 353.148438 74.1875 354.144531 L 75.019531 359.578125 L 75.238281 360.410156 L 74.886719 361.199219 L 74.933594 361.332031 L 75.371094 362.078125 L 75.28125 362.515625 L 75.808594 364.136719 C 76.21875 365.480469 76.4375 366.578125 76.464844 367.425781 L 76.464844 367.46875 L 76.859375 368.609375 L 76.902344 370.714844 C 76.902344 373.34375 76.21875 375.5625 74.84375 377.375 L 74.933594 377.640625 L 74.84375 378.253906 L 74.1875 378.339844 L 74.097656 378.253906 C 70.855469 381.585938 64.882812 383.292969 56.175781 383.382812 L 55.78125 383.601562 L 55.34375 383.382812 L 48.203125 383.207031 L 48.113281 383.382812 L 47.542969 383.601562 L 46.976562 383.25 L 44.914062 383.382812 L 44.390625 383.601562 L 44.125 383.425781 L 44.082031 383.425781 L 43.558594 383.601562 L 41.628906 383.511719 C 38.855469 383.511719 35.992188 384.230469 33.039062 385.660156 L 31.988281 386.230469 C 31.289062 386.347656 30.308594 386.710938 29.050781 387.328125 C 27.476562 388.085938 25.691406 388.464844 23.707031 388.464844 L 19.414062 388.597656 C 18.972656 388.277344 18.359375 388.117188 17.570312 388.117188 C 16.167969 388.117188 14.753906 388.582031 13.320312 389.519531 L 12.75 389.519531 C 6.644531 389.519531 2.71875 388.875 0.964844 387.589844 C 0.378906 387.210938 0.0585938 386.757812 0 386.230469 L 0.0859375 385.53125 L 0.175781 384.257812 L 1.007812 383.511719 L 0.964844 383.335938 L 3.15625 381.933594 C 3.15625 381.585938 3.359375 381.410156 3.769531 381.410156 L 3.898438 381.453125 C 12.546875 375.871094 18.519531 371.707031 21.820312 368.960938 C 23.457031 367.617188 25.429688 366.417969 27.738281 365.367188 L 34.96875 362.253906 L 39.832031 358.265625 C 41.671875 356.65625 43.132812 355.632812 44.214844 355.195312 L 46.667969 350.109375 C 48.273438 346.371094 49.253906 342.730469 49.605469 339.195312 L 49.515625 339.109375 L 49.648438 338.976562 L 49.734375 336.304688 L 49.867188 331.480469 L 49.734375 331.175781 L 49.777344 330.691406 L 49.867188 330.691406 L 50.171875 316.269531 C 49.589844 307.503906 49.296875 302.023438 49.296875 299.832031 L 49.339844 299.480469 L 49.515625 299.394531 L 49.429688 298.515625 L 49.164062 295.710938 L 47.851562 289.707031 L 47.324219 287.558594 C 46.535156 286.566406 45.996094 285.058594 45.703125 283.042969 C 45.46875 281.289062 45.382812 279.390625 45.441406 277.34375 L 43.511719 269.191406 C 42.695312 266.125 42.285156 262.660156 42.285156 258.804688 C 42.285156 254.417969 42.5625 250.5625 43.117188 247.230469 L 43.074219 246.835938 L 43.074219 245.300781 C 42.988281 245.15625 42.945312 244.996094 42.945312 244.820312 L 43.117188 244.292969 L 43.164062 243.636719 L 43.207031 242.585938 L 43.601562 241.664062 L 43.863281 237.804688 L 44.390625 231.097656 C 44.566406 230.398438 44.695312 229.183594 44.785156 227.460938 C 44.929688 226.496094 45.164062 225.765625 45.484375 225.269531 L 45.398438 225.183594 C 44.34375 224.949219 43.015625 222.230469 41.410156 217.027344 C 40.007812 212.675781 39.304688 209.941406 39.304688 208.832031 L 39.394531 208.523438 L 39.175781 207.121094 L 39.042969 207.078125 L 39 206.597656 L 39.085938 206.507812 L 38.957031 203.921875 L 38.738281 203.132812 L 38.910156 202.5625 C 38.824219 200.402344 38.78125 197.726562 38.78125 194.542969 L 38.78125 187.175781 L 38.605469 185.863281 L 38.957031 185.863281 L 38.78125 183.890625 C 38.691406 181.960938 38.472656 180.558594 38.125 179.679688 C 37.625 178.425781 36.722656 176.628906 35.40625 174.289062 L 35.1875 174.378906 C 34.808594 174.203125 34.617188 173.984375 34.617188 173.71875 L 34.96875 173.5 L 33.960938 171.792969 L 32.03125 167.933594 C 31.214844 166.296875 30.761719 164.953125 30.675781 163.902344 L 30.5 162.324219 L 30.453125 162.234375 C 30.132812 160.191406 29.503906 158.113281 28.570312 156.011719 C 27.664062 154.109375 26.933594 151.496094 26.378906 148.164062 L 26.335938 148.03125 L 26.027344 146.234375 C 24.859375 144.539062 23.648438 140.171875 22.390625 133.128906 L 24.011719 133.65625 L 32.996094 134.398438 L 49.867188 134.96875 C 54.863281 134.96875 60.121094 134.167969 65.640625 132.558594 C 70.460938 131.128906 72.871094 130.105469 72.871094 129.492188 L 72.566406 128.746094 L 73.003906 125.195312 M 73.96875 114.367188 L 73.835938 114.367188 L 73.792969 114.148438 L 74.011719 114.191406 L 73.96875 114.367188 M 117.523438 65.710938 L 117.523438 65.578125 L 117.523438 65.710938 M 124.753906 129.140625 L 124.667969 129.007812 L 125.0625 129.226562 L 124.753906 129.140625 M 75.632812 224.960938 L 75.546875 224.523438 L 75.5 224.699219 L 75.632812 224.960938 M 44.695312 242.320312 L 44.695312 242.277344 L 44.695312 242.320312 M 156.4375 259.636719 L 156.21875 259.023438 L 156.394531 259.636719 L 156.4375 259.636719 M 51.09375 312.414062 L 51.136719 313.246094 L 51.226562 313.246094 L 51.179688 312.71875 L 51.136719 312.457031 L 51.09375 312.414062 M 51.226562 314.734375 L 51.269531 315.570312 L 51.226562 314.734375 M 21.601562 115.859375 L 21.472656 115.902344 L 21.429688 115.8125 L 21.601562 115.859375 M 11.65625 388.335938 L 11.960938 388.335938 L 11.917969 388.289062 L 11.65625 388.335938 M 4.863281 382.417969 L 4.90625 382.375 L 4.820312 382.417969 L 4.863281 382.417969 "/>
<path style=" stroke:none;fill-rule:evenodd;fill:rgb(0%,0%,0%);fill-opacity:1;" d="M 22.390625 133.128906 C 21.867188 132.867188 21.601562 132.53125 21.601562 132.121094 L 21.820312 131.464844 C 21.296875 129.914062 20.699219 127.226562 20.027344 123.398438 L 18.625 114.191406 L 22.523438 114.585938 C 25.09375 115.464844 31.609375 115.902344 42.066406 115.902344 C 52.699219 115.902344 60.558594 115.246094 65.640625 113.929688 C 68.300781 113.257812 70.039062 112.484375 70.855469 111.605469 L 71.121094 111.519531 L 71.515625 111.5625 L 72.214844 111.914062 L 72.652344 111.914062 L 77.078125 112.132812 L 99.601562 107.355469 L 108.585938 104.941406 L 115.464844 102.53125 C 116.195312 102.53125 116.605469 102.898438 116.691406 103.628906 C 116.691406 104.007812 116.386719 104.417969 115.773438 104.855469 L 115.203125 105.777344 L 115.378906 106.347656 C 112.164062 113.796875 110.558594 117.890625 110.558594 118.621094 C 110.558594 119 110.847656 119.351562 111.433594 119.671875 L 112.136719 120.199219 C 112.484375 120.34375 112.691406 120.664062 112.75 121.160156 L 112.484375 121.601562 L 112.222656 121.820312 L 112.617188 122.214844 C 112.96875 122.359375 113.15625 122.667969 113.1875 123.132812 C 113.1875 124.128906 109.898438 125.515625 103.328125 127.300781 L 93.46875 129.710938 L 91.582031 129.535156 C 88.136719 130.382812 85.257812 130.804688 82.949219 130.804688 C 80.410156 130.804688 78.800781 130.558594 78.128906 130.058594 C 77.808594 129.828125 77.734375 129.5625 77.910156 129.269531 L 77.910156 129.097656 L 76.992188 127.035156 L 76.203125 124.933594 L 74.800781 120.722656 L 74.40625 119.410156 L 74.40625 119.1875 L 73.703125 117.523438 L 73.703125 117.65625 L 73.660156 118.3125 L 73.75 118.75 L 73.265625 121.996094 L 73.089844 123.265625 L 73.089844 123.441406 L 73.003906 125.195312 L 72.566406 128.746094 L 72.871094 129.492188 C 72.871094 130.105469 70.460938 131.128906 65.640625 132.558594 C 60.121094 134.167969 54.863281 134.96875 49.867188 134.96875 L 32.996094 134.398438 L 24.011719 133.65625 L 22.390625 133.128906 M 73.96875 114.367188 L 74.011719 114.191406 L 73.792969 114.148438 L 73.835938 114.367188 L 73.96875 114.367188 M 118.226562 116.121094 C 120.652344 109.253906 122.257812 105.820312 123.046875 105.820312 C 123.425781 105.820312 124.082031 108.113281 125.019531 112.703125 C 125.019531 113.460938 124.796875 113.855469 124.359375 113.886719 L 121.90625 113.667969 C 121.324219 113.667969 120.898438 114.410156 120.636719 115.902344 C 120.371094 117.363281 119.933594 118.09375 119.320312 118.09375 C 118.707031 118.09375 118.34375 117.773438 118.226562 117.128906 L 118.226562 116.121094 M 21.601562 115.859375 L 21.429688 115.8125 L 21.472656 115.902344 L 21.601562 115.859375 "/>
</g>
</svg>
