<?xml version="1.0" encoding="UTF-8"?>
<svg xmlns="http://www.w3.org/2000/svg" xmlns:xlink="http://www.w3.org/1999/xlink" width="212px" height="411px" viewBox="0 0 212 411" version="1.1">
<g id="surface1">
<path style=" stroke:none;fill-rule:evenodd;fill:rgb(9.803922%,6.27451%,8.235294%);fill-opacity:1;" d="M 77.210938 11.269531 L 76.683594 11.003906 L 76.902344 10.960938 L 77.515625 11.222656 L 82.820312 9.910156 L 84.570312 9.425781 C 84.601562 9.308594 84.703125 9.25 84.878906 9.25 L 85.054688 9.296875 C 87.246094 8.652344 89.875 7.789062 92.941406 6.710938 C 96.738281 5.363281 99.308594 4.285156 100.652344 3.464844 L 105.519531 15.433594 L 108.671875 27.53125 C 110.132812 32.644531 111.460938 38.578125 112.660156 45.328125 C 113.128906 47.957031 113.550781 49.785156 113.929688 50.808594 L 115.507812 58.917969 C 115.566406 61.78125 115.800781 64.71875 116.210938 67.726562 L 117.960938 76.539062 C 118.519531 79.695312 118.984375 82.003906 119.363281 83.464844 C 118.984375 83.902344 118.472656 84.824219 117.832031 86.226562 C 116.867188 88.386719 116.386719 90.140625 116.386719 91.484375 L 116.386719 99.902344 C 116.617188 102.355469 116.152344 105.164062 114.984375 108.320312 C 114.574219 109.371094 113.652344 110.90625 112.222656 112.921875 C 111.140625 114.441406 110.601562 115.753906 110.601562 116.867188 C 110.511719 117.480469 110.511719 118.078125 110.601562 118.664062 C 110.71875 119.511719 111.039062 120.050781 111.566406 120.285156 L 111.125 121.292969 C 111.125 122.8125 113.550781 124.828125 118.402344 127.34375 C 123.25 129.828125 125.675781 131.183594 125.675781 131.417969 L 125.191406 132.996094 L 126.769531 132.996094 C 126.535156 134.574219 126.464844 137.761719 126.550781 142.554688 L 126.726562 153.160156 C 126.84375 158.128906 126.988281 161.34375 127.164062 162.804688 L 126.769531 162.71875 L 122.039062 163.636719 L 114.542969 164.382812 L 114.5 164.601562 L 114.105469 164.601562 L 114.152344 164.382812 L 114.195312 160.875 C 114.195312 157.894531 112.851562 152.972656 110.164062 146.105469 C 107.476562 139.207031 106.132812 134.152344 106.132812 130.9375 L 106.175781 129.886719 L 105.519531 125.941406 L 104.203125 116.078125 L 99.953125 96.484375 C 97.878906 87.191406 96.609375 80.660156 96.140625 76.890625 C 95.703125 73.382812 94.652344 66.851562 92.984375 57.292969 L 93.03125 56.769531 L 93.117188 56.769531 C 92.707031 54.371094 92.371094 51.433594 92.109375 47.957031 L 92.152344 48.308594 L 91.714844 41.46875 L 91.714844 42.257812 L 91.40625 34.371094 C 91.261719 29.957031 90.5625 25.792969 89.304688 21.875 C 88.371094 18.953125 86.25 16.46875 82.949219 14.425781 L 77.210938 11.269531 M 63.144531 78.554688 L 63.054688 78.554688 C 62.792969 78.523438 62.664062 78.453125 62.664062 78.335938 C 62.664062 78.101562 62.777344 77.910156 63.011719 77.765625 L 63.054688 77.722656 L 63.011719 77.722656 L 61.785156 68.824219 L 61.085938 64.089844 C 61.609375 63.855469 62.09375 62.027344 62.53125 58.609375 C 63.085938 54.195312 63.699219 51.304688 64.371094 49.929688 L 68.140625 43.179688 C 70.332031 39.117188 71.425781 36.589844 71.425781 35.597656 L 71.425781 35.15625 L 70.285156 35.507812 C 66.808594 41.207031 64.53125 45.488281 63.449219 48.351562 C 62.953125 49.636719 62.28125 52.210938 61.433594 56.066406 L 60.382812 61.503906 L 60.164062 61.371094 L 59.859375 61.414062 L 51.925781 50.105469 C 49.355469 46.597656 47.96875 44.582031 47.761719 44.058594 L 46.582031 40.460938 C 45.96875 38.855469 45.441406 38.050781 45.003906 38.050781 C 44.566406 38.050781 44.34375 38.269531 44.34375 38.707031 C 44.34375 40.753906 46.492188 44.789062 50.785156 50.808594 L 55.386719 57.996094 C 57.316406 60.890625 58.675781 62.496094 59.464844 62.816406 C 59.582031 64.164062 59.917969 66.820312 60.472656 70.796875 C 61.230469 76.171875 61.859375 79.707031 62.355469 81.402344 C 65.363281 90.054688 67.320312 96.496094 68.226562 100.734375 C 68.722656 103.101562 69.703125 106.332031 71.164062 110.421875 L 73.398438 116.953125 C 72.929688 116.984375 72.667969 118.355469 72.609375 121.074219 L 72.566406 126.859375 L 71.953125 132.996094 L 72.039062 132.996094 L 71.953125 135.363281 C 72.097656 139.105469 72.128906 141.546875 72.039062 142.683594 C 71.339844 148.558594 70.988281 152.621094 70.988281 154.871094 L 71.6875 165.085938 L 71.121094 165.523438 C 70.886719 166.046875 70.390625 166.457031 69.628906 166.75 C 67.261719 167.625 61.726562 168.167969 53.023438 168.371094 L 52.976562 168.285156 C 51.574219 164.132812 50.640625 160.804688 50.171875 158.289062 C 49.734375 155.804688 49.515625 152.722656 49.515625 149.039062 C 49.515625 144.832031 49.707031 141.808594 50.085938 139.96875 C 50.4375 138.039062 51.226562 135.730469 52.453125 133.042969 L 52.496094 132.996094 L 52.410156 132.996094 L 52.671875 131.199219 C 53.605469 124.652344 54.074219 118.226562 54.074219 111.914062 C 54.074219 107.878906 53.753906 103.65625 53.109375 99.246094 L 51.09375 85.65625 C 50.480469 81.097656 48.902344 72.402344 46.359375 59.574219 L 46.40625 58.960938 C 45.207031 55.714844 43.6875 50.835938 41.847656 44.320312 C 39.714844 36.78125 38.648438 32.628906 38.648438 31.871094 L 38.691406 31.519531 L 38.867188 31.476562 C 41.496094 31.476562 44.914062 33.273438 49.121094 36.867188 C 52.246094 39.527344 54.597656 41.953125 56.175781 44.144531 L 59.375 39.410156 C 61.769531 35.960938 63.21875 33.523438 63.714844 32.089844 L 63.933594 32.003906 C 64.226562 32.003906 64.488281 32.617188 64.722656 33.84375 L 65.378906 36.648438 L 69.410156 34.851562 L 80.933594 33.054688 L 81.152344 33.449219 C 81.152344 33.828125 79.808594 37.015625 77.121094 43.003906 L 70.988281 56.023438 C 68.183594 61.429688 66.371094 65.15625 65.554688 67.203125 C 63.832031 71.613281 63.113281 75.472656 63.40625 78.773438 L 63.230469 78.863281 L 63.144531 78.511719 L 63.144531 78.554688 M 85.710938 9.777344 L 85.710938 9.820312 L 85.710938 9.777344 M 64.019531 33.097656 L 64.019531 33.140625 L 64.066406 33.1875 L 64.019531 33.097656 M 47.148438 60.800781 L 47.195312 61.019531 L 47.195312 60.976562 L 47.148438 60.800781 M 113.976562 98.324219 L 113.976562 98.28125 L 113.886719 98.324219 L 113.976562 98.324219 "/>
<path style=" stroke:none;fill-rule:evenodd;fill:rgb(0%,0%,0%);fill-opacity:1;" d="M 114.152344 164.382812 L 114.105469 164.601562 L 114.5 164.601562 L 114.542969 164.382812 L 122.039062 163.636719 L 126.769531 162.71875 L 127.164062 162.804688 C 126.988281 161.34375 126.84375 158.128906 126.726562 153.160156 L 126.550781 142.554688 C 126.464844 137.761719 126.535156 134.574219 126.769531 132.996094 L 125.191406 132.996094 L 125.675781 131.417969 C 125.675781 131.183594 123.25 129.828125 118.402344 127.34375 C 113.550781 124.828125 111.125 122.8125 111.125 121.292969 L 111.566406 120.285156 C 111.039062 120.050781 110.71875 119.511719 110.601562 118.664062 C 110.511719 118.078125 110.511719 117.480469 110.601562 116.867188 C 110.601562 115.753906 111.140625 114.441406 112.222656 112.921875 C 113.652344 110.90625 114.574219 109.371094 114.984375 108.320312 C 116.152344 105.164062 116.617188 102.355469 116.386719 99.902344 L 116.386719 91.484375 C 116.386719 90.140625 116.867188 88.386719 117.832031 86.226562 C 118.472656 84.824219 118.984375 83.902344 119.363281 83.464844 C 118.984375 82.003906 118.519531 79.695312 117.960938 76.539062 L 116.210938 67.726562 C 115.800781 64.71875 115.566406 61.78125 115.507812 58.917969 L 113.929688 50.808594 C 113.550781 49.785156 113.128906 47.957031 112.660156 45.328125 C 111.460938 38.578125 110.132812 32.644531 108.671875 27.53125 L 105.519531 15.433594 L 100.652344 3.464844 C 99.308594 4.285156 96.738281 5.363281 92.941406 6.710938 C 89.875 7.789062 87.246094 8.652344 85.054688 9.296875 L 84.878906 9.25 C 84.703125 9.25 84.601562 9.308594 84.570312 9.425781 L 82.820312 9.910156 L 77.515625 11.222656 L 76.902344 10.960938 L 76.683594 11.003906 L 77.210938 11.269531 C 64.941406 13.984375 51.839844 15.34375 37.902344 15.34375 C 29.519531 15.34375 24.554688 15.300781 23.003906 15.214844 L 19.28125 14.554688 L 18.140625 14.292969 C 18.140625 15.753906 17.761719 17.929688 17.003906 20.824219 C 16.242188 23.746094 15.863281 25.660156 15.863281 26.566406 L 16.214844 58.785156 L 16.214844 71.058594 C 16.15625 75.996094 16.007812 79.417969 15.773438 81.316406 L 16.039062 81.886719 L 16.039062 82.675781 L 15.6875 84.429688 L 17.132812 97.621094 L 19.191406 113.753906 C 20.1875 120.300781 21.222656 125.164062 22.304688 128.351562 L 24.144531 132.996094 L 23.707031 132.996094 C 24.085938 134.226562 24.539062 136.082031 25.066406 138.5625 C 26.351562 144.644531 27.269531 148.425781 27.824219 149.917969 C 32.03125 160.234375 34.425781 166.3125 35.011719 168.152344 L 35.886719 168.152344 L 44.34375 168.460938 L 53.023438 168.371094 C 61.726562 168.167969 67.261719 167.625 69.628906 166.75 C 70.390625 166.457031 70.886719 166.046875 71.121094 165.523438 L 71.6875 165.085938 L 70.988281 154.871094 C 70.988281 152.621094 71.339844 148.558594 72.039062 142.683594 C 72.128906 141.546875 72.097656 139.105469 71.953125 135.363281 L 72.039062 132.996094 L 71.953125 132.996094 L 72.566406 126.859375 L 72.609375 121.074219 C 72.667969 118.355469 72.929688 116.984375 73.398438 116.953125 L 71.164062 110.421875 C 69.703125 106.332031 68.722656 103.101562 68.226562 100.734375 C 67.320312 96.496094 65.363281 90.054688 62.355469 81.402344 C 61.859375 79.707031 61.230469 76.171875 60.472656 70.796875 C 59.917969 66.820312 59.582031 64.164062 59.464844 62.816406 C 58.675781 62.496094 57.316406 60.890625 55.386719 57.996094 L 50.785156 50.808594 C 46.492188 44.789062 44.34375 40.753906 44.34375 38.707031 C 44.34375 38.269531 44.566406 38.050781 45.003906 38.050781 C 45.441406 38.050781 45.96875 38.855469 46.582031 40.460938 L 47.761719 44.058594 C 47.96875 44.582031 49.355469 46.597656 51.925781 50.105469 L 59.859375 61.414062 L 60.164062 61.371094 L 60.382812 61.503906 L 61.433594 56.066406 C 62.28125 52.210938 62.953125 49.636719 63.449219 48.351562 C 64.53125 45.488281 66.808594 41.207031 70.285156 35.507812 L 71.425781 35.15625 L 71.425781 35.597656 C 71.425781 36.589844 70.332031 39.117188 68.140625 43.179688 L 64.371094 49.929688 C 63.699219 51.304688 63.085938 54.195312 62.53125 58.609375 C 62.09375 62.027344 61.609375 63.855469 61.085938 64.089844 L 61.785156 68.824219 L 63.011719 77.722656 L 63.011719 77.765625 C 62.777344 77.910156 62.664062 78.101562 62.664062 78.335938 C 62.664062 78.453125 62.792969 78.523438 63.054688 78.554688 L 63.144531 78.554688 L 63.539062 80.789062 C 64.066406 83.070312 65.058594 86.3125 66.519531 90.519531 C 68.007812 94.875 69 98.074219 69.5 100.121094 C 70.054688 102.488281 71.03125 105.703125 72.433594 109.765625 L 75.632812 119.453125 C 76.101562 121.265625 77.152344 124.507812 78.789062 129.183594 L 80.015625 131.988281 L 80.585938 132.996094 C 82.394531 136.855469 85.800781 147.316406 90.792969 164.382812 L 103.675781 164.558594 L 114.152344 164.382812 M 101.53125 2.765625 C 102.496094 3.40625 104.21875 7.382812 106.699219 14.6875 L 109.945312 26.652344 C 111.84375 32.058594 112.980469 36.09375 113.363281 38.753906 C 114.617188 44.507812 115.246094 48.484375 115.246094 50.675781 L 115.246094 50.71875 L 115.902344 52.78125 C 116.515625 55.03125 116.824219 56.839844 116.824219 58.214844 C 116.824219 61.285156 117.058594 64.21875 117.523438 67.027344 C 119.746094 75.324219 120.855469 81.15625 120.855469 84.515625 C 120.855469 85.042969 120.636719 85.304688 120.199219 85.304688 L 119.976562 85.085938 C 118.546875 88.269531 117.789062 90.625 117.699219 92.144531 C 117.523438 94.917969 117.523438 97.679688 117.699219 100.429688 C 117.816406 102.679688 117.347656 105.441406 116.296875 108.714844 L 113.886719 112.703125 C 112.574219 114.6875 111.914062 116.105469 111.914062 116.953125 L 112.792969 119.628906 L 112.792969 119.757812 L 112.96875 120.417969 C 113.144531 121.554688 113.363281 122.273438 113.625 122.566406 C 114.265625 123.296875 115.875 124.433594 118.445312 125.984375 L 124.492188 128.875 C 125.515625 129.375 126.246094 129.914062 126.683594 130.5 L 126.859375 130.453125 C 127.441406 130.453125 127.660156 131.230469 127.515625 132.777344 L 127.558594 132.996094 L 127.472656 132.996094 C 127.734375 135.859375 127.925781 144.191406 128.042969 157.984375 C 128.1875 161.78125 127.96875 163.683594 127.382812 163.683594 L 127.339844 163.683594 C 126.757812 164.0625 124.726562 164.484375 121.25 164.953125 L 103.808594 165.960938 L 90.445312 165.699219 L 89.917969 165.523438 C 89.683594 165.433594 89.566406 165.257812 89.566406 164.996094 C 89.566406 164.734375 89.640625 164.542969 89.785156 164.425781 C 89.4375 163.34375 88.894531 161.519531 88.164062 158.949219 C 86.703125 153.949219 85.566406 150.574219 84.746094 148.820312 C 83.871094 146.953125 82.628906 143.75 81.023438 139.222656 L 78.917969 132.996094 L 78.21875 132.996094 C 77.050781 129.839844 75.75 125.53125 74.316406 120.066406 L 74.097656 119.277344 L 74.054688 121.382812 L 73.53125 130.71875 L 73.53125 130.804688 C 73.734375 130.980469 73.792969 131.332031 73.703125 131.859375 C 73.703125 134.109375 73.472656 138.113281 73.003906 143.867188 C 72.535156 149.65625 72.300781 153.292969 72.300781 154.785156 L 72.652344 159.515625 L 73.003906 164.078125 L 72.960938 165.304688 L 73.003906 165.699219 C 73.003906 166.488281 71.792969 167.277344 69.367188 168.066406 C 65.859375 169.234375 60.71875 169.820312 53.941406 169.820312 L 36.328125 169.511719 L 34.835938 169.425781 L 34.484375 169.46875 C 33.8125 169.46875 32.574219 167.070312 30.761719 162.277344 L 26.640625 150.574219 C 24.773438 145.285156 23.78125 142.128906 23.664062 141.105469 C 23.488281 139.703125 23.152344 138.054688 22.65625 136.152344 C 22.332031 134.898438 22.144531 133.65625 22.085938 132.425781 L 21.910156 131.683594 L 21.953125 131.464844 L 20.945312 128.703125 C 19.574219 124.433594 18.550781 119.527344 17.878906 113.972656 C 15.542969 95.417969 14.371094 85.582031 14.371094 84.472656 L 14.722656 82.675781 L 14.765625 82.632812 C 14.535156 82.132812 14.460938 81.140625 14.546875 79.652344 L 14.898438 58.828125 L 14.546875 26.523438 C 15.832031 19.21875 16.738281 14.996094 17.265625 13.855469 L 17.175781 13.679688 C 17.175781 13.210938 17.484375 12.976562 18.097656 12.976562 C 20.8125 13.648438 23.632812 13.984375 26.554688 13.984375 C 43.90625 13.984375 53.753906 13.882812 56.089844 13.679688 C 59.859375 13.359375 68.679688 11.675781 82.554688 8.636719 C 85.769531 7.964844 91.890625 5.613281 100.917969 1.582031 C 101.472656 1.582031 101.75 1.816406 101.75 2.28125 L 101.53125 2.765625 M 123.175781 105.207031 C 124.140625 105.207031 125.003906 107.9375 125.761719 113.402344 C 125.761719 113.839844 125.515625 114.0625 125.019531 114.0625 L 123.660156 113.226562 L 120.636719 113.492188 L 120.371094 113.710938 C 120.109375 114.527344 119.976562 115.214844 119.976562 115.769531 L 120.328125 117.480469 C 120.328125 117.890625 120.050781 118.09375 119.496094 118.09375 C 119.027344 118.09375 118.75 117.714844 118.664062 116.953125 L 118.664062 115.769531 C 120.503906 108.726562 121.949219 105.207031 123.003906 105.207031 L 123.175781 105.207031 M 121.820312 110.289062 L 121.074219 111.867188 L 123.921875 111.78125 L 123.046875 107.835938 L 121.820312 110.289062 "/>
<path style=" stroke:none;fill-rule:evenodd;fill:rgb(24.313726%,20.392157%,23.529412%);fill-opacity:1;" d="M 77.210938 11.269531 L 82.949219 14.425781 C 86.25 16.46875 88.371094 18.953125 89.304688 21.875 C 90.5625 25.792969 91.261719 29.957031 91.40625 34.371094 L 91.714844 42.257812 L 91.714844 41.46875 L 92.152344 48.308594 L 92.109375 47.957031 C 92.371094 51.433594 92.707031 54.371094 93.117188 56.769531 L 93.03125 56.769531 L 92.984375 57.292969 C 94.652344 66.851562 95.703125 73.382812 96.140625 76.890625 C 96.609375 80.660156 97.878906 87.191406 99.953125 96.484375 L 104.203125 116.078125 L 105.519531 125.941406 L 106.175781 129.886719 L 106.132812 130.9375 C 106.132812 134.152344 107.476562 139.207031 110.164062 146.105469 C 112.851562 152.972656 114.195312 157.894531 114.195312 160.875 L 114.152344 164.382812 L 103.675781 164.558594 L 90.792969 164.382812 C 85.800781 147.316406 82.394531 136.855469 80.585938 132.996094 L 80.015625 131.988281 L 78.789062 129.183594 C 77.152344 124.507812 76.101562 121.265625 75.632812 119.453125 L 72.433594 109.765625 C 71.03125 105.703125 70.054688 102.488281 69.5 100.121094 C 69 98.074219 68.007812 94.875 66.519531 90.519531 C 65.058594 86.3125 64.066406 83.070312 63.539062 80.789062 L 63.144531 78.554688 L 63.144531 78.511719 L 63.230469 78.863281 L 63.40625 78.773438 C 63.113281 75.472656 63.832031 71.613281 65.554688 67.203125 C 66.371094 65.15625 68.183594 61.429688 70.988281 56.023438 L 77.121094 43.003906 C 79.808594 37.015625 81.152344 33.828125 81.152344 33.449219 L 80.933594 33.054688 L 69.410156 34.851562 L 65.378906 36.648438 L 64.722656 33.84375 C 64.488281 32.617188 64.226562 32.003906 63.933594 32.003906 L 63.714844 32.089844 C 63.21875 33.523438 61.769531 35.960938 59.375 39.410156 L 56.175781 44.144531 C 54.597656 41.953125 52.246094 39.527344 49.121094 36.867188 C 44.914062 33.273438 41.496094 31.476562 38.867188 31.476562 L 38.691406 31.519531 L 38.648438 31.871094 C 38.648438 32.628906 39.714844 36.78125 41.847656 44.320312 C 43.6875 50.835938 45.207031 55.714844 46.40625 58.960938 L 46.359375 59.574219 C 48.902344 72.402344 50.480469 81.097656 51.09375 85.65625 L 53.109375 99.246094 C 53.753906 103.65625 54.074219 107.878906 54.074219 111.914062 C 54.074219 118.226562 53.605469 124.652344 52.671875 131.199219 L 52.410156 132.996094 L 52.496094 132.996094 L 52.453125 133.042969 C 51.226562 135.730469 50.4375 138.039062 50.085938 139.96875 C 49.707031 141.808594 49.515625 144.832031 49.515625 149.039062 C 49.515625 152.722656 49.734375 155.804688 50.171875 158.289062 C 50.640625 160.804688 51.574219 164.132812 52.976562 168.285156 L 53.023438 168.371094 L 44.34375 168.460938 L 35.886719 168.152344 L 35.011719 168.152344 C 34.425781 166.3125 32.03125 160.234375 27.824219 149.917969 C 27.269531 148.425781 26.351562 144.644531 25.066406 138.5625 C 24.539062 136.082031 24.085938 134.226562 23.707031 132.996094 L 24.144531 132.996094 L 22.304688 128.351562 C 21.222656 125.164062 20.1875 120.300781 19.191406 113.753906 L 17.132812 97.621094 L 15.6875 84.429688 L 16.039062 82.675781 L 16.039062 81.886719 L 15.773438 81.316406 C 16.007812 79.417969 16.15625 75.996094 16.214844 71.058594 L 16.214844 58.785156 L 15.863281 26.566406 C 15.863281 25.660156 16.242188 23.746094 17.003906 20.824219 C 17.761719 17.929688 18.140625 15.753906 18.140625 14.292969 L 19.28125 14.554688 L 23.003906 15.214844 C 24.554688 15.300781 29.519531 15.34375 37.902344 15.34375 C 51.839844 15.34375 64.941406 13.984375 77.210938 11.269531 M 63.011719 77.765625 L 63.011719 77.722656 L 63.054688 77.722656 L 63.011719 77.765625 M 47.148438 60.800781 L 47.195312 60.976562 L 47.195312 61.019531 L 47.148438 60.800781 M 64.019531 33.097656 L 64.066406 33.1875 L 64.019531 33.140625 L 64.019531 33.097656 M 85.710938 9.777344 L 85.710938 9.820312 L 85.710938 9.777344 M 113.976562 98.324219 L 113.886719 98.324219 L 113.976562 98.28125 L 113.976562 98.324219 "/>
</g>
</svg>
