<?xml version="1.0" encoding="UTF-8"?>
<svg xmlns="http://www.w3.org/2000/svg" xmlns:xlink="http://www.w3.org/1999/xlink" width="212px" height="411px" viewBox="0 0 212 411" version="1.1">
<g id="surface1">
<path style=" stroke:none;fill-rule:evenodd;fill:rgb(0%,0%,0%);fill-opacity:1;" d="M 113.800781 158.992188 C 113.683594 158.785156 113.480469 158.683594 113.1875 158.683594 L 112.792969 159.167969 L 101.792969 159.824219 C 96.449219 159.796875 93.175781 159.738281 91.976562 159.648438 L 91.234375 159.34375 C 91.144531 159.34375 90.675781 159.121094 89.832031 158.683594 L 88.867188 158.378906 C 90.328125 162.789062 91.65625 166.574219 92.855469 169.730469 L 111.347656 166.222656 L 113.144531 165.828125 C 116.503906 165.070312 118.75 164.398438 119.890625 163.8125 C 123.6875 161.914062 125.863281 160.964844 126.421875 160.964844 L 126.769531 161.007812 L 126.550781 154.695312 L 126.550781 154.476562 C 125.355469 155.175781 123.222656 155.9375 120.152344 156.753906 C 118.75 157.71875 116.632812 158.464844 113.800781 158.992188 M 109.855469 158.160156 C 110.5 158.101562 111.039062 157.953125 111.476562 157.71875 L 114.675781 157.0625 L 119.496094 155.570312 L 124.535156 153.90625 C 125.792969 153 126.59375 152.546875 126.945312 152.546875 C 127.441406 152.546875 127.691406 152.78125 127.691406 153.25 L 127.429688 153.820312 C 127.632812 154.929688 127.835938 157.617188 128.042969 161.882812 C 128.390625 168.839844 128.757812 173.484375 129.136719 175.824219 C 129.984375 181.230469 130.917969 185 131.941406 187.132812 L 134.132812 192.742188 C 135.300781 195.871094 135.898438 197.710938 135.929688 198.265625 C 136.394531 200.34375 136.6875 204.460938 136.804688 210.628906 C 136.804688 211.476562 137.054688 212.601562 137.550781 214.003906 L 138.777344 217.597656 L 140.660156 221.148438 C 140.808594 222.640625 141.085938 223.777344 141.492188 224.566406 L 142.019531 226.015625 L 143.160156 225.839844 C 143.042969 226.015625 143 226.25 143.027344 226.539062 L 143.117188 226.890625 C 143.117188 226.980469 142.894531 227.066406 142.457031 227.15625 C 143.160156 228.847656 143.917969 230.308594 144.738281 231.539062 L 149.074219 238.507812 L 150.476562 241.75 C 150.710938 241.839844 150.828125 242.027344 150.828125 242.320312 L 150.785156 242.410156 L 154.992188 252.183594 L 156 254.15625 L 157.09375 257.53125 L 157.664062 263.1875 C 157.808594 266.109375 158.363281 269.878906 159.328125 274.496094 L 159.503906 275.242188 L 159.589844 275.636719 L 159.589844 275.765625 C 161.605469 286.519531 162.660156 293.535156 162.746094 296.808594 L 162.921875 297.464844 C 162.921875 298.050781 162.835938 298.457031 162.660156 298.691406 L 163.140625 301.5 L 163.972656 308.292969 L 164.628906 311.582031 L 164.851562 311.582031 L 164.675781 311.886719 C 165.171875 314.019531 165.871094 316.59375 166.777344 319.601562 L 166.734375 319.910156 C 167.054688 321.222656 167.347656 322.070312 167.609375 322.449219 C 168.574219 323.882812 169.113281 325.722656 169.230469 327.972656 C 169.261719 328.675781 170.09375 330.472656 171.730469 333.367188 C 173.335938 336.171875 174.140625 338.101562 174.140625 339.152344 L 174.140625 339.546875 C 174.140625 339.898438 173.90625 340.304688 173.4375 340.773438 L 171.90625 340.773438 L 170.851562 341.476562 L 166.734375 343.753906 C 165.710938 344.28125 163.695312 344.9375 160.6875 345.726562 C 156.832031 346.75 153.589844 347.261719 150.960938 347.261719 L 149.558594 346.953125 L 149.511719 346.734375 L 149.03125 346.515625 L 146.488281 340.074219 L 146.925781 340.074219 L 144.605469 334.199219 C 144.050781 332.738281 143.640625 330.589844 143.378906 327.753906 L 141.273438 321.3125 L 141.320312 321.136719 C 140.558594 319.792969 139.390625 317.175781 137.8125 313.289062 L 132.117188 299.085938 C 131.707031 298.09375 130.65625 296.121094 128.960938 293.167969 C 127.558594 290.714844 126.699219 288.828125 126.375 287.515625 C 125.878906 285.644531 124.519531 281.917969 122.300781 276.335938 C 121.132812 275.546875 119.773438 272.886719 118.226562 268.359375 L 114.808594 260.207031 L 109.855469 244.425781 L 109.59375 244.292969 L 109.550781 240.960938 C 109.109375 239.941406 108.761719 238.054688 108.496094 235.308594 C 108.292969 233.144531 108.175781 230.953125 108.148438 228.734375 L 108.148438 225.226562 L 108.191406 224.917969 L 108.101562 225.269531 L 108.101562 225.925781 L 107.445312 223.078125 L 106.921875 221.761719 L 106.527344 220.492188 C 105.503906 218.242188 103.707031 215.261719 101.136719 211.550781 C 100.640625 210.613281 100.113281 208.613281 99.558594 205.542969 C 99.089844 202.941406 98.855469 201.304688 98.855469 200.632812 L 98.855469 199.976562 L 99.03125 199.625 L 98.464844 195.109375 C 97.878906 190.113281 96.785156 184.957031 95.175781 179.636719 C 94.328125 176.804688 92.078125 170.402344 88.429688 160.4375 L 87.816406 158.726562 L 87.859375 158.113281 L 87.640625 158.027344 C 87.171875 157.910156 86.9375 157.660156 86.9375 157.28125 C 86.9375 156.8125 87.304688 156.582031 88.035156 156.582031 L 88.429688 156.667969 L 90.398438 157.542969 C 91.6875 158.160156 92.957031 158.464844 94.210938 158.464844 C 104.203125 158.4375 109.285156 158.378906 109.460938 158.289062 L 109.855469 158.160156 M 113.316406 175.867188 L 113.535156 175.867188 L 127.910156 176.523438 C 127.472656 173.808594 127.105469 169.132812 126.8125 162.5 C 125.179688 163.609375 120.636719 165.15625 113.1875 167.144531 L 113.144531 167.144531 L 113.011719 167.1875 L 112.96875 167.1875 C 104.699219 169.410156 98.519531 170.519531 94.429688 170.519531 L 93.117188 170.433594 L 94.125 173.148438 L 94.957031 173.0625 C 97.265625 173.0625 99.953125 173.71875 103.019531 175.035156 L 104.027344 175.472656 C 105.050781 176.058594 106.21875 176.304688 107.535156 176.21875 L 113.316406 175.867188 M 114.851562 190.992188 L 119.671875 189.984375 C 120.257812 189.894531 123.804688 188.828125 130.320312 186.78125 C 129.558594 184.707031 128.816406 181.609375 128.085938 177.488281 L 124.011719 177.535156 C 123.894531 178.292969 122.433594 179.199219 119.628906 180.25 L 113.667969 182.53125 L 113.449219 182.664062 C 108.191406 185.789062 103.632812 187.351562 99.777344 187.351562 L 98.636719 187.308594 L 98.726562 187.878906 L 99.382812 192.21875 L 100.523438 192.042969 L 113.492188 191.121094 L 114.851562 190.992188 M 113.316406 177.535156 L 108.761719 177.488281 C 105.957031 177.402344 104.160156 177.109375 103.371094 176.613281 L 99.867188 175.78125 L 94.5625 174.289062 L 96.140625 178.015625 C 96.957031 179.855469 97.734375 182.664062 98.464844 186.433594 L 99.996094 186.300781 C 102.945312 185.746094 106.90625 184.269531 111.871094 181.875 L 113.363281 181.171875 L 121.117188 177.535156 L 113.316406 177.535156 M 117.261719 197.917969 L 117.789062 197.699219 L 126.199219 194.191406 L 132.074219 191.296875 L 130.847656 188.097656 C 129.386719 188.828125 126.113281 189.761719 121.03125 190.902344 L 115.160156 192.085938 C 110.484375 192.90625 106.527344 193.3125 103.28125 193.3125 L 99.472656 193.09375 C 99.703125 195.167969 99.820312 197.023438 99.820312 198.660156 L 99.777344 199.582031 C 100.070312 200.050781 100.40625 201.421875 100.785156 203.703125 L 100.917969 204.535156 C 102.496094 203.746094 107.941406 201.539062 117.261719 197.917969 M 121.25 205.851562 L 133.519531 204.667969 L 134.65625 204.625 L 135.050781 204.625 L 134.4375 197.652344 L 134.484375 197.433594 L 132.6875 192.917969 C 131.664062 193.589844 129.851562 194.367188 127.253906 195.242188 L 123.660156 197.171875 C 122.460938 197.902344 120.839844 198.398438 118.796875 198.660156 L 117.789062 199.054688 L 101.617188 205.414062 L 101.046875 205.367188 L 101.617188 208.613281 C 102.230469 208.117188 104.949219 207.589844 109.769531 207.035156 L 121.25 205.851562 M 124.84375 226.320312 L 128.960938 226.234375 L 135.710938 226.191406 L 140.75 226.101562 L 140.441406 225.402344 C 139.945312 224.027344 138.921875 221.75 137.375 218.5625 L 136.894531 217.421875 C 134.878906 218.035156 130.789062 218.957031 124.625 220.183594 L 122.957031 220.492188 C 115.917969 222.480469 111.460938 223.472656 109.59375 223.472656 L 109.460938 223.472656 L 109.59375 225.882812 L 109.59375 226.585938 L 110.207031 226.539062 L 124.84375 226.320312 M 125.019531 234.476562 L 133.957031 232.675781 L 142.808594 231.273438 L 143.421875 231.320312 L 141.320312 227.285156 C 139.011719 227.460938 134.542969 227.5625 127.910156 227.59375 L 124.84375 227.679688 C 119.203125 227.769531 114.105469 227.722656 109.550781 227.550781 L 109.460938 231.714844 C 110.511719 236.679688 111.039062 239.867188 111.039062 241.269531 L 110.820312 241.796875 L 110.863281 242.714844 L 110.90625 243.636719 L 113.582031 243.417969 L 126.113281 243.066406 L 140.484375 242.671875 L 143.554688 242.144531 L 149.074219 241.621094 L 147.890625 239.207031 L 143.949219 232.238281 C 137.636719 234.140625 131.355469 235.367188 125.105469 235.921875 L 124.273438 235.964844 C 120.242188 237.222656 116.371094 237.851562 112.660156 237.851562 C 111.550781 237.851562 110.878906 237.734375 110.644531 237.5 L 110.601562 237.238281 C 110.601562 236.914062 111.140625 236.679688 112.222656 236.535156 L 122.871094 234.871094 L 125.019531 234.476562 M 132.773438 257.574219 L 136.367188 257.488281 C 137.097656 257.488281 138.355469 257.210938 140.136719 256.65625 L 154.246094 253.585938 L 154.027344 252.972656 C 153.382812 252.535156 152.582031 250.957031 151.617188 248.238281 L 149.601562 242.804688 L 142.808594 243.636719 C 142.019531 244.570312 137.535156 246.472656 129.355469 249.335938 L 128.699219 249.597656 C 126.507812 250.445312 124.683594 251.089844 123.222656 251.527344 C 120.300781 252.460938 117.65625 252.929688 115.289062 252.929688 L 113.84375 252.796875 L 115.683594 258.320312 L 116.910156 258.101562 L 132.773438 257.574219 M 124.183594 216.414062 L 130.144531 217.117188 C 132.714844 216.472656 134.804688 216.121094 136.410156 216.0625 C 135.796875 214.253906 135.492188 212.71875 135.492188 211.460938 L 135.097656 205.542969 L 121.996094 207.339844 L 102.230469 209.445312 L 101.792969 209.359375 L 102.011719 210.234375 C 102.390625 211.316406 103.339844 213.070312 104.859375 215.496094 L 108.890625 215.320312 L 124.183594 216.414062 M 124.492188 218.695312 L 127.472656 217.863281 L 124.359375 217.640625 L 105.300781 216.152344 L 106.699219 218.519531 L 106.875 218.476562 C 107.226562 218.476562 107.839844 219.71875 108.71875 222.199219 L 108.804688 222.15625 L 109.199219 222.464844 C 110.367188 221.703125 114.734375 220.652344 122.300781 219.308594 L 124.492188 218.695312 M 126.59375 244.644531 C 121.921875 244.789062 116.839844 244.863281 111.347656 244.863281 L 111.082031 244.863281 L 113.492188 251.746094 L 115.773438 251.351562 C 118.3125 251.203125 120.199219 250.941406 121.425781 250.5625 L 127.953125 248.457031 L 128.128906 248.414062 L 139.128906 243.988281 L 126.59375 244.644531 M 134.21875 262.878906 C 128.4375 262.382812 125.148438 261.871094 124.359375 261.34375 C 121.761719 260.292969 120.300781 259.605469 119.976562 259.285156 L 115.992188 259.285156 L 116.078125 259.59375 L 119.496094 267.875 L 121.730469 272.042969 L 125.585938 271.296875 C 129.96875 270.59375 133.023438 269.9375 134.746094 269.324219 L 136.980469 268.578125 C 139.523438 267.671875 141.390625 266.882812 142.589844 266.210938 C 143.960938 265.453125 145.746094 265.128906 147.933594 265.246094 L 148.066406 265.203125 L 144.429688 264.546875 L 138.074219 263.144531 L 134.21875 262.878906 M 133.167969 258.757812 L 124.140625 259.199219 L 126.027344 260.6875 L 133.648438 261.34375 L 140.660156 262.441406 C 142.355469 262.910156 145.597656 263.40625 150.390625 263.933594 L 150.609375 263.710938 C 150.960938 263.710938 151.191406 263.828125 151.308594 264.0625 L 156.4375 264.851562 L 156.347656 263.933594 L 155.824219 258.277344 L 154.816406 255.121094 C 153.265625 255.996094 149.351562 256.859375 143.070312 257.707031 L 133.167969 258.757812 M 137.507812 269.847656 L 135.535156 270.507812 C 129.691406 272.203125 125.308594 273.121094 122.386719 273.269531 L 123.660156 275.984375 L 123.570312 276.425781 L 123.878906 277.167969 L 125.191406 277.039062 L 140.3125 276.46875 L 142.28125 276.335938 L 153.238281 275.898438 L 156.742188 275.546875 L 158.101562 275.195312 C 157.34375 271.339844 156.832031 268.226562 156.566406 265.859375 L 155.605469 265.902344 L 150.082031 265.511719 L 148.898438 266.035156 C 147.292969 266.738281 145.789062 267.21875 144.386719 267.480469 C 143.070312 267.746094 141.539062 268.226562 139.785156 268.929688 C 138.910156 269.28125 138.148438 269.585938 137.507812 269.847656 M 144.648438 285.5 L 135.710938 285.71875 L 127.558594 285.191406 C 127.121094 285.015625 126.902344 284.8125 126.902344 284.578125 C 126.902344 284.050781 127.472656 283.789062 128.609375 283.789062 L 135.273438 283.703125 L 143.773438 283.832031 L 159.636719 284.140625 L 158.320312 276.378906 L 152.273438 277.257812 L 140.925781 277.914062 C 136.132812 278.03125 130.582031 278.0625 124.273438 278.003906 L 127.558594 286.8125 C 127.96875 287.953125 128.902344 289.839844 130.363281 292.46875 L 130.757812 293.214844 L 130.757812 293.167969 C 130.757812 292.554688 131.355469 292.234375 132.554688 292.207031 L 138.425781 291.722656 C 141.054688 291.285156 143.640625 290.65625 146.183594 289.839844 L 146.3125 289.792969 C 148.007812 289.238281 151.339844 287.761719 156.304688 285.367188 L 151.222656 285.367188 L 144.648438 285.5 M 148.503906 298.167969 L 150.695312 297.640625 L 153.148438 297.203125 L 155.953125 297.027344 L 158.363281 296.371094 L 160.863281 295.582031 L 160.46875 293.390625 C 160.089844 290.964844 159.882812 288.683594 159.855469 286.550781 L 159.765625 285.324219 L 159.195312 285.324219 C 158.847656 286.082031 157.078125 287.105469 153.894531 288.390625 L 147.671875 290.671875 L 146.707031 291.023438 L 140.136719 292.644531 L 133.429688 293.957031 C 132.117188 293.957031 131.296875 293.828125 130.976562 293.5625 C 132.085938 295.640625 132.847656 297.246094 133.257812 298.386719 L 134.042969 300.578125 C 134.21875 300.199219 134.65625 300.007812 135.359375 300.007812 C 136.117188 299.65625 138.074219 299.335938 141.230469 299.042969 L 148.503906 298.167969 M 164.148438 340.773438 L 165.769531 340.6875 L 170.941406 340.511719 L 171.554688 340.074219 L 172.824219 339.195312 L 172.253906 337.882812 L 170.941406 334.59375 L 168.269531 329.203125 L 167.785156 328.0625 L 159.417969 328.28125 L 152.359375 328.238281 L 152.886719 328.238281 C 150.519531 328.238281 148.214844 328.28125 145.964844 328.367188 L 145 328.324219 L 145.917969 333.542969 L 147.890625 338.714844 C 148.535156 338.21875 150.257812 337.457031 153.0625 336.433594 L 159.242188 334.332031 L 161.957031 333.101562 C 163.417969 332.371094 165.332031 331.394531 167.699219 330.167969 C 168.28125 330.167969 168.558594 330.386719 168.53125 330.824219 L 162.570312 334.285156 C 155.851562 337.910156 151.105469 339.722656 148.328125 339.722656 L 148.285156 339.722656 L 148.460938 340.074219 L 148.636719 340.511719 L 148.722656 340.773438 L 164.148438 340.773438 M 150.390625 304.699219 L 150.652344 304.652344 L 156.261719 303.601562 L 161.738281 302.242188 L 161.257812 298.605469 C 161.257812 298.019531 161.328125 297.613281 161.476562 297.378906 L 161.300781 297.027344 L 159.066406 297.773438 L 154.902344 298.691406 C 153.5 298.839844 151.527344 299.261719 148.988281 299.964844 L 148.242188 300.140625 L 136.585938 300.972656 L 135.929688 300.972656 L 134.746094 301.671875 L 134.4375 301.671875 L 136.367188 306.933594 L 136.980469 306.847656 L 145.21875 305.664062 L 150.390625 304.699219 M 152.359375 310.175781 L 163.054688 311.359375 L 162.746094 309.386719 L 161.871094 303.425781 L 151.089844 305.75 L 150.785156 305.792969 C 143.949219 307.019531 139.230469 307.648438 136.628906 307.679688 L 137.375 309.695312 C 137.578125 309.433594 138.046875 309.300781 138.777344 309.300781 L 152.359375 310.175781 M 155.078125 317.585938 L 158.015625 316.664062 C 160.820312 315.757812 162.71875 315.246094 163.710938 315.128906 L 163.183594 312.195312 L 162.789062 312.195312 L 153.019531 312.019531 L 144.386719 311.230469 L 138.820312 310.703125 L 137.8125 310.570312 C 140.441406 315.335938 142.035156 318.621094 142.589844 320.433594 C 142.707031 320.199219 143.058594 320.027344 143.640625 319.910156 L 152.011719 318.460938 L 155.078125 317.585938 M 155.472656 318.636719 L 155.210938 318.769531 C 154.421875 319.238281 153.867188 319.484375 153.542969 319.515625 C 149.835938 320.710938 146.722656 321.3125 144.210938 321.3125 L 142.984375 321.222656 C 143.597656 321.953125 144.109375 323.472656 144.515625 325.78125 L 144.78125 327.140625 C 144.984375 326.820312 145.410156 326.660156 146.050781 326.660156 L 150.257812 326.964844 L 158.804688 327.097656 L 167.523438 327.40625 C 166.207031 324.21875 165.433594 321.648438 165.199219 319.691406 C 164.820312 319.105469 164.441406 318.097656 164.0625 316.664062 L 162.570312 317.101562 L 157.925781 317.804688 C 157.019531 317.949219 156.203125 318.226562 155.472656 318.636719 M 163.578125 343.316406 L 165.683594 342.878906 L 168.046875 341.300781 L 163.578125 341.429688 L 159.546875 341.519531 L 149.996094 341.871094 L 149.46875 342 L 148.769531 341.824219 L 148.722656 341.824219 L 150.300781 345.507812 L 150.214844 346.253906 C 151.324219 345.875 153.761719 345.289062 157.53125 344.5 L 162.613281 343.492188 L 162.964844 343.578125 L 163.578125 343.316406 M 148.328125 340.773438 L 148.375 340.863281 L 148.417969 340.773438 L 148.328125 340.773438 "/>
<path style=" stroke:none;fill-rule:evenodd;fill:rgb(64.313728%,63.921571%,63.137257%);fill-opacity:1;" d="M 113.800781 158.992188 C 116.632812 158.464844 118.75 157.71875 120.152344 156.753906 C 123.222656 155.9375 125.355469 155.175781 126.550781 154.476562 L 126.550781 154.695312 L 126.769531 161.007812 L 126.421875 160.964844 C 125.863281 160.964844 123.6875 161.914062 119.890625 163.8125 C 118.75 164.398438 116.503906 165.070312 113.144531 165.828125 L 113.84375 159.957031 C 113.929688 159.515625 113.917969 159.195312 113.800781 158.992188 M 113.1875 167.144531 C 120.636719 165.15625 125.179688 163.609375 126.8125 162.5 C 127.105469 169.132812 127.472656 173.808594 127.910156 176.523438 L 113.535156 175.867188 L 113.316406 175.867188 C 113.171875 175.371094 113.085938 174.625 113.054688 173.632812 L 113.054688 170.609375 C 113.054688 169.144531 113.097656 167.992188 113.1875 167.144531 M 112.96875 167.1875 L 113.011719 167.1875 L 112.96875 167.230469 L 112.96875 167.1875 M 113.449219 182.664062 L 113.667969 182.53125 L 119.628906 180.25 C 122.433594 179.199219 123.894531 178.292969 124.011719 177.535156 L 128.085938 177.488281 C 128.816406 181.609375 129.558594 184.707031 130.320312 186.78125 C 123.804688 188.828125 120.257812 189.894531 119.671875 189.984375 L 114.851562 190.992188 C 114.152344 188.273438 113.683594 185.496094 113.449219 182.664062 M 113.363281 181.171875 L 113.316406 178.804688 L 113.316406 177.535156 L 121.117188 177.535156 L 113.363281 181.171875 M 115.160156 192.085938 L 121.03125 190.902344 C 126.113281 189.761719 129.386719 188.828125 130.847656 188.097656 L 132.074219 191.296875 L 126.199219 194.191406 L 117.789062 197.699219 L 117.261719 197.917969 C 116.414062 195.988281 115.714844 194.042969 115.160156 192.085938 M 117.789062 199.054688 L 118.796875 198.660156 C 120.839844 198.398438 122.460938 197.902344 123.660156 197.171875 L 127.253906 195.242188 C 129.851562 194.367188 131.664062 193.589844 132.6875 192.917969 L 134.484375 197.433594 L 134.4375 197.652344 L 135.050781 204.625 L 134.65625 204.625 L 133.519531 204.667969 L 121.25 205.851562 L 118.75 201.027344 L 117.789062 199.054688 M 124.625 220.183594 C 130.789062 218.957031 134.878906 218.035156 136.894531 217.421875 L 137.375 218.5625 C 138.921875 221.75 139.945312 224.027344 140.441406 225.402344 L 140.75 226.101562 L 135.710938 226.191406 L 128.960938 226.234375 L 124.84375 226.320312 L 124.796875 225.226562 L 124.625 220.183594 M 124.84375 227.679688 L 127.910156 227.59375 C 134.542969 227.5625 139.011719 227.460938 141.320312 227.285156 L 143.421875 231.320312 L 142.808594 231.273438 L 133.957031 232.675781 L 125.019531 234.476562 L 124.84375 227.679688 M 125.105469 235.921875 C 131.355469 235.367188 137.636719 234.140625 143.949219 232.238281 L 147.890625 239.207031 L 149.074219 241.621094 L 143.554688 242.144531 L 140.484375 242.671875 L 126.113281 243.066406 L 125.585938 240.875 C 125.382812 239.824219 125.222656 238.171875 125.105469 235.921875 M 128.699219 249.597656 L 129.355469 249.335938 C 137.535156 246.472656 142.019531 244.570312 142.808594 243.636719 L 149.601562 242.804688 L 151.617188 248.238281 C 152.582031 250.957031 153.382812 252.535156 154.027344 252.972656 L 154.246094 253.585938 L 140.136719 256.65625 C 138.355469 257.210938 137.097656 257.488281 136.367188 257.488281 L 132.773438 257.574219 L 130.800781 253.5 L 128.699219 249.597656 M 121.996094 207.339844 L 135.097656 205.542969 L 135.492188 211.460938 C 135.492188 212.71875 135.796875 214.253906 136.410156 216.0625 C 134.804688 216.121094 132.714844 216.472656 130.144531 217.117188 L 124.183594 216.414062 L 124.183594 215.667969 C 124.183594 213.300781 123.617188 210.832031 122.476562 208.261719 L 121.996094 207.339844 M 124.359375 217.640625 L 127.472656 217.863281 L 124.492188 218.695312 L 124.359375 217.640625 M 128.128906 248.414062 C 127.515625 247.097656 127.003906 245.84375 126.59375 244.644531 L 139.128906 243.988281 L 128.128906 248.414062 M 136.980469 268.578125 L 135.007812 264.675781 L 134.4375 263.40625 L 134.21875 262.878906 L 138.074219 263.144531 L 144.429688 264.546875 L 148.066406 265.203125 L 147.933594 265.246094 C 145.746094 265.128906 143.960938 265.453125 142.589844 266.210938 C 141.390625 266.882812 139.523438 267.671875 136.980469 268.578125 M 133.648438 261.34375 C 133.445312 260.671875 133.328125 260.160156 133.300781 259.8125 L 133.167969 258.757812 L 143.070312 257.707031 C 149.351562 256.859375 153.265625 255.996094 154.816406 255.121094 L 155.824219 258.277344 L 156.347656 263.933594 L 156.4375 264.851562 L 151.308594 264.0625 C 151.191406 263.828125 150.960938 263.710938 150.609375 263.710938 L 150.390625 263.933594 C 145.597656 263.40625 142.355469 262.910156 140.660156 262.441406 L 133.648438 261.34375 M 140.3125 276.46875 L 138.121094 271.296875 L 137.507812 269.847656 C 138.148438 269.585938 138.910156 269.28125 139.785156 268.929688 C 141.539062 268.226562 143.070312 267.746094 144.386719 267.480469 C 145.789062 267.21875 147.292969 266.738281 148.898438 266.035156 L 150.082031 265.511719 L 155.605469 265.902344 L 156.566406 265.859375 C 156.832031 268.226562 157.34375 271.339844 158.101562 275.195312 L 156.742188 275.546875 L 153.238281 275.898438 L 142.28125 276.335938 L 140.3125 276.46875 M 143.773438 283.832031 L 143.464844 283.308594 C 143 282.488281 142.152344 280.691406 140.925781 277.914062 L 152.273438 277.257812 L 158.320312 276.378906 L 159.636719 284.140625 L 143.773438 283.832031 M 146.3125 289.792969 L 144.648438 285.5 L 151.222656 285.367188 L 156.304688 285.367188 C 151.339844 287.761719 148.007812 289.238281 146.3125 289.792969 M 146.707031 291.023438 L 147.671875 290.671875 L 153.894531 288.390625 C 157.078125 287.105469 158.847656 286.082031 159.195312 285.324219 L 159.765625 285.324219 L 159.855469 286.550781 C 159.882812 288.683594 160.089844 290.964844 160.46875 293.390625 L 160.863281 295.582031 L 158.363281 296.371094 L 155.953125 297.027344 L 153.148438 297.203125 L 150.695312 297.640625 L 148.503906 298.167969 L 147.320312 293.34375 L 146.707031 291.023438 M 159.417969 328.28125 L 167.785156 328.0625 L 168.269531 329.203125 L 170.941406 334.59375 L 172.253906 337.882812 L 172.824219 339.195312 L 171.554688 340.074219 L 170.941406 340.511719 L 165.769531 340.6875 L 164.148438 340.773438 L 164.015625 340.074219 L 163.621094 338.054688 C 163.273438 336.476562 162.921875 335.222656 162.570312 334.285156 L 168.53125 330.824219 C 168.558594 330.386719 168.28125 330.167969 167.699219 330.167969 C 165.332031 331.394531 163.417969 332.371094 161.957031 333.101562 L 159.417969 328.28125 M 148.988281 299.964844 C 151.527344 299.261719 153.5 298.839844 154.902344 298.691406 L 159.066406 297.773438 L 161.300781 297.027344 L 161.476562 297.378906 C 161.328125 297.613281 161.257812 298.019531 161.257812 298.605469 L 161.738281 302.242188 L 156.261719 303.601562 L 150.652344 304.652344 L 150.390625 304.699219 L 149.863281 303.164062 L 148.988281 299.964844 M 150.785156 305.792969 L 151.089844 305.75 L 161.871094 303.425781 L 162.746094 309.386719 L 163.054688 311.359375 L 152.359375 310.175781 L 150.785156 305.792969 M 153.019531 312.019531 L 162.789062 312.195312 L 163.183594 312.195312 L 163.710938 315.128906 C 162.71875 315.246094 160.820312 315.757812 158.015625 316.664062 L 155.078125 317.585938 L 153.019531 312.019531 M 158.804688 327.097656 C 158.160156 325.722656 157.605469 324.410156 157.136719 323.152344 L 155.472656 318.636719 C 156.203125 318.226562 157.019531 317.949219 157.925781 317.804688 L 162.570312 317.101562 L 164.0625 316.664062 C 164.441406 318.097656 164.820312 319.105469 165.199219 319.691406 C 165.433594 321.648438 166.207031 324.21875 167.523438 327.40625 L 158.804688 327.097656 M 163.578125 343.316406 C 163.695312 343.082031 163.710938 342.746094 163.621094 342.308594 L 163.578125 341.429688 L 168.046875 341.300781 L 165.683594 342.878906 L 163.578125 343.316406 "/>
<path style=" stroke:none;fill-rule:evenodd;fill:rgb(88.235295%,88.235295%,88.235295%);fill-opacity:1;" d="M 113.144531 165.828125 L 111.347656 166.222656 L 92.855469 169.730469 C 91.65625 166.574219 90.328125 162.789062 88.867188 158.378906 L 89.832031 158.683594 C 90.675781 159.121094 91.144531 159.34375 91.234375 159.34375 L 91.976562 159.648438 C 93.175781 159.738281 96.449219 159.796875 101.792969 159.824219 L 112.792969 159.167969 L 113.1875 158.683594 C 113.480469 158.683594 113.683594 158.785156 113.800781 158.992188 C 113.917969 159.195312 113.929688 159.515625 113.84375 159.957031 L 113.144531 165.828125 M 113.1875 167.144531 C 113.097656 167.992188 113.054688 169.144531 113.054688 170.609375 L 113.054688 173.632812 C 113.085938 174.625 113.171875 175.371094 113.316406 175.867188 L 107.535156 176.21875 C 106.21875 176.304688 105.050781 176.058594 104.027344 175.472656 L 103.019531 175.035156 C 99.953125 173.71875 97.265625 173.0625 94.957031 173.0625 L 94.125 173.148438 L 93.117188 170.433594 L 94.429688 170.519531 C 98.519531 170.519531 104.699219 169.410156 112.96875 167.1875 L 112.96875 167.230469 L 113.011719 167.1875 L 113.144531 167.144531 L 113.1875 167.144531 M 113.449219 182.664062 C 113.683594 185.496094 114.152344 188.273438 114.851562 190.992188 L 113.492188 191.121094 L 100.523438 192.042969 L 99.382812 192.21875 L 98.726562 187.878906 L 98.636719 187.308594 L 99.777344 187.351562 C 103.632812 187.351562 108.191406 185.789062 113.449219 182.664062 M 113.363281 181.171875 L 111.871094 181.875 C 106.90625 184.269531 102.945312 185.746094 99.996094 186.300781 L 98.464844 186.433594 C 97.734375 182.664062 96.957031 179.855469 96.140625 178.015625 L 94.5625 174.289062 L 99.867188 175.78125 L 103.371094 176.613281 C 104.160156 177.109375 105.957031 177.402344 108.761719 177.488281 L 113.316406 177.535156 L 113.316406 178.804688 L 113.363281 181.171875 M 115.160156 192.085938 C 115.714844 194.042969 116.414062 195.988281 117.261719 197.917969 C 107.941406 201.539062 102.496094 203.746094 100.917969 204.535156 L 100.785156 203.703125 C 100.40625 201.421875 100.070312 200.050781 99.777344 199.582031 L 99.820312 198.660156 C 99.820312 197.023438 99.703125 195.167969 99.472656 193.09375 L 103.28125 193.3125 C 106.527344 193.3125 110.484375 192.90625 115.160156 192.085938 M 117.789062 199.054688 L 118.75 201.027344 L 121.25 205.851562 L 109.769531 207.035156 C 104.949219 207.589844 102.230469 208.117188 101.617188 208.613281 L 101.046875 205.367188 L 101.617188 205.414062 L 117.789062 199.054688 M 124.625 220.183594 L 124.796875 225.226562 L 124.84375 226.320312 L 110.207031 226.539062 L 109.59375 226.585938 L 109.59375 225.882812 L 109.460938 223.472656 L 109.59375 223.472656 C 111.460938 223.472656 115.917969 222.480469 122.957031 220.492188 L 124.625 220.183594 M 124.84375 227.679688 L 125.019531 234.476562 L 122.871094 234.871094 L 112.222656 236.535156 C 111.140625 236.679688 110.601562 236.914062 110.601562 237.238281 L 110.644531 237.5 C 110.878906 237.734375 111.550781 237.851562 112.660156 237.851562 C 116.371094 237.851562 120.242188 237.222656 124.273438 235.964844 L 125.105469 235.921875 C 125.222656 238.171875 125.382812 239.824219 125.585938 240.875 L 126.113281 243.066406 L 113.582031 243.417969 L 110.90625 243.636719 L 110.863281 242.714844 L 110.820312 241.796875 L 111.039062 241.269531 C 111.039062 239.867188 110.511719 236.679688 109.460938 231.714844 L 109.550781 227.550781 C 114.105469 227.722656 119.203125 227.769531 124.84375 227.679688 M 128.699219 249.597656 L 130.800781 253.5 L 132.773438 257.574219 L 116.910156 258.101562 L 115.683594 258.320312 L 113.84375 252.796875 L 115.289062 252.929688 C 117.65625 252.929688 120.300781 252.460938 123.222656 251.527344 C 124.683594 251.089844 126.507812 250.445312 128.699219 249.597656 M 121.996094 207.339844 L 122.476562 208.261719 C 123.617188 210.832031 124.183594 213.300781 124.183594 215.667969 L 124.183594 216.414062 L 108.890625 215.320312 L 104.859375 215.496094 C 103.339844 213.070312 102.390625 211.316406 102.011719 210.234375 L 101.792969 209.359375 L 102.230469 209.445312 L 121.996094 207.339844 M 124.359375 217.640625 L 124.492188 218.695312 L 122.300781 219.308594 C 114.734375 220.652344 110.367188 221.703125 109.199219 222.464844 L 108.804688 222.15625 L 108.71875 222.199219 C 107.839844 219.71875 107.226562 218.476562 106.875 218.476562 L 106.699219 218.519531 L 105.300781 216.152344 L 124.359375 217.640625 M 128.128906 248.414062 L 127.953125 248.457031 L 121.425781 250.5625 C 120.199219 250.941406 118.3125 251.203125 115.773438 251.351562 L 113.492188 251.746094 L 111.082031 244.863281 L 111.347656 244.863281 C 116.839844 244.863281 121.921875 244.789062 126.59375 244.644531 C 127.003906 245.84375 127.515625 247.097656 128.128906 248.414062 M 134.21875 262.878906 L 134.4375 263.40625 L 135.007812 264.675781 L 136.980469 268.578125 L 134.746094 269.324219 C 133.023438 269.9375 129.96875 270.59375 125.585938 271.296875 L 121.730469 272.042969 L 119.496094 267.875 L 116.078125 259.59375 L 115.992188 259.285156 L 119.976562 259.285156 C 120.300781 259.605469 121.761719 260.292969 124.359375 261.34375 C 125.148438 261.871094 128.4375 262.382812 134.21875 262.878906 M 133.167969 258.757812 L 133.300781 259.8125 C 133.328125 260.160156 133.445312 260.671875 133.648438 261.34375 L 126.027344 260.6875 L 124.140625 259.199219 L 133.167969 258.757812 M 140.3125 276.46875 L 125.191406 277.039062 L 123.878906 277.167969 L 123.570312 276.425781 L 123.660156 275.984375 L 122.386719 273.269531 C 125.308594 273.121094 129.691406 272.203125 135.535156 270.507812 L 137.507812 269.847656 L 138.121094 271.296875 L 140.3125 276.46875 M 143.773438 283.832031 L 135.273438 283.703125 L 128.609375 283.789062 C 127.472656 283.789062 126.902344 284.050781 126.902344 284.578125 C 126.902344 284.8125 127.121094 285.015625 127.558594 285.191406 L 135.710938 285.71875 L 144.648438 285.5 L 146.3125 289.792969 L 146.183594 289.839844 C 143.640625 290.65625 141.054688 291.285156 138.425781 291.722656 L 132.554688 292.207031 C 131.355469 292.234375 130.757812 292.554688 130.757812 293.167969 L 130.757812 293.214844 L 130.363281 292.46875 C 128.902344 289.839844 127.96875 287.953125 127.558594 286.8125 L 124.273438 278.003906 C 130.582031 278.0625 136.132812 278.03125 140.925781 277.914062 C 142.152344 280.691406 143 282.488281 143.464844 283.308594 L 143.773438 283.832031 M 146.707031 291.023438 L 147.320312 293.34375 L 148.503906 298.167969 L 141.230469 299.042969 C 138.074219 299.335938 136.117188 299.65625 135.359375 300.007812 C 134.65625 300.007812 134.21875 300.199219 134.042969 300.578125 L 133.257812 298.386719 C 132.847656 297.246094 132.085938 295.640625 130.976562 293.5625 C 131.296875 293.828125 132.117188 293.957031 133.429688 293.957031 L 140.136719 292.644531 L 146.707031 291.023438 M 159.417969 328.28125 L 161.957031 333.101562 L 159.242188 334.332031 L 153.0625 336.433594 C 150.257812 337.457031 148.535156 338.21875 147.890625 338.714844 L 145.917969 333.542969 L 145 328.324219 L 145.964844 328.367188 C 148.214844 328.28125 150.519531 328.238281 152.886719 328.238281 L 152.359375 328.238281 L 159.417969 328.28125 M 162.570312 334.285156 C 162.921875 335.222656 163.273438 336.476562 163.621094 338.054688 L 164.015625 340.074219 L 164.148438 340.773438 L 148.722656 340.773438 L 148.636719 340.511719 L 148.460938 340.074219 L 148.285156 339.722656 L 148.328125 339.722656 C 151.105469 339.722656 155.851562 337.910156 162.570312 334.285156 M 148.988281 299.964844 L 149.863281 303.164062 L 150.390625 304.699219 L 145.21875 305.664062 L 136.980469 306.847656 L 136.367188 306.933594 L 134.4375 301.671875 L 134.746094 301.671875 L 135.929688 300.972656 L 136.585938 300.972656 L 148.242188 300.140625 L 148.988281 299.964844 M 150.785156 305.792969 L 152.359375 310.175781 L 138.777344 309.300781 C 138.046875 309.300781 137.578125 309.433594 137.375 309.695312 L 136.628906 307.679688 C 139.230469 307.648438 143.949219 307.019531 150.785156 305.792969 M 153.019531 312.019531 L 155.078125 317.585938 L 152.011719 318.460938 L 143.640625 319.910156 C 143.058594 320.027344 142.707031 320.199219 142.589844 320.433594 C 142.035156 318.621094 140.441406 315.335938 137.8125 310.570312 L 138.820312 310.703125 L 144.386719 311.230469 L 153.019531 312.019531 M 158.804688 327.097656 L 150.257812 326.964844 L 146.050781 326.660156 C 145.410156 326.660156 144.984375 326.820312 144.78125 327.140625 L 144.515625 325.78125 C 144.109375 323.472656 143.597656 321.953125 142.984375 321.222656 L 144.210938 321.3125 C 146.722656 321.3125 149.835938 320.710938 153.542969 319.515625 C 153.867188 319.484375 154.421875 319.238281 155.210938 318.769531 L 155.472656 318.636719 L 157.136719 323.152344 C 157.605469 324.410156 158.160156 325.722656 158.804688 327.097656 M 163.578125 341.429688 L 163.621094 342.308594 C 163.710938 342.746094 163.695312 343.082031 163.578125 343.316406 L 162.964844 343.578125 L 162.613281 343.492188 L 157.53125 344.5 C 153.761719 345.289062 151.324219 345.875 150.214844 346.253906 L 150.300781 345.507812 L 148.722656 341.824219 L 148.769531 341.824219 L 149.46875 342 L 149.996094 341.871094 L 159.546875 341.519531 L 163.578125 341.429688 M 148.328125 340.773438 L 148.417969 340.773438 L 148.375 340.863281 L 148.328125 340.773438 "/>
</g>
</svg>
