<?xml version="1.0" encoding="UTF-8"?>
<svg xmlns="http://www.w3.org/2000/svg" xmlns:xlink="http://www.w3.org/1999/xlink" width="212px" height="411px" viewBox="0 0 212 411" version="1.1">
<g id="surface1">
<path style=" stroke:none;fill-rule:evenodd;fill:rgb(0%,0%,0%);fill-opacity:0.678431;" d="M 120.066406 170.957031 L 120.109375 170.652344 L 115.859375 170.5625 L 115.773438 170.5625 L 115.773438 170.609375 L 115.550781 172.054688 L 118.269531 173.761719 L 120.066406 171.265625 L 120.066406 170.957031 M 122.257812 170.738281 L 121.996094 170.738281 L 122.257812 170.914062 L 122.257812 170.738281 M 121.03125 171.617188 C 121.03125 171.9375 120.488281 172.917969 119.410156 174.550781 L 120.066406 175.035156 C 120.476562 175.355469 121.207031 175.765625 122.257812 176.261719 L 123.394531 174.726562 L 123.617188 174.070312 L 122.871094 173.371094 L 121.03125 171.527344 L 121.03125 171.617188 M 124.140625 172.273438 L 124.710938 170.914062 L 123.394531 170.828125 L 123.394531 170.871094 L 122.433594 171.046875 L 124.097656 172.40625 L 124.140625 172.273438 M 126.988281 171.175781 L 126.113281 171.046875 L 126.113281 171.089844 C 126.113281 171.527344 125.851562 172.300781 125.324219 173.414062 L 127.382812 175.035156 L 127.253906 174.070312 L 127.121094 174.421875 L 126.640625 173.019531 L 127.035156 172.230469 L 127.078125 172.230469 L 126.988281 171.175781 M 125.191406 177.402344 L 125.71875 177.621094 L 126.769531 176.128906 C 126.1875 176.015625 125.457031 175.605469 124.578125 174.902344 L 123.484375 176.746094 L 125.191406 177.402344 M 118.707031 175.605469 L 116.734375 178.410156 L 117.699219 178.804688 L 119.757812 179.679688 L 119.847656 179.460938 L 121.46875 177.3125 L 118.707031 175.605469 M 121.160156 180.425781 L 123.046875 181.609375 L 124.886719 178.847656 L 123.394531 178.234375 L 122.78125 177.972656 L 122.039062 179.113281 L 121.160156 180.425781 M 120.199219 181.960938 L 118.445312 184.632812 L 120.460938 185.6875 L 122.125 183.101562 L 120.199219 181.960938 M 126.246094 183.144531 L 128.347656 179.945312 L 128.261719 179.59375 L 127.910156 179.636719 L 126.15625 179.285156 L 124.140625 182.398438 L 124.230469 182.441406 L 126.246094 183.144531 M 128.214844 176.042969 C 128.363281 176.714844 128.597656 177.460938 128.917969 178.277344 L 129.222656 179.066406 C 129.488281 179.15625 129.617188 179.375 129.617188 179.726562 L 129.574219 179.945312 L 130.800781 183.230469 L 133.519531 192.394531 C 134.863281 197.214844 135.535156 200.632812 135.535156 202.652344 L 135.492188 202.824219 L 135.402344 202.957031 L 135.710938 205.191406 L 135.664062 205.894531 L 135.621094 205.9375 L 135.753906 206.992188 L 135.929688 207.472656 L 135.886719 207.867188 C 136.148438 210 136.453125 211.914062 136.804688 213.609375 L 136.847656 213.566406 C 137.289062 213.566406 137.507812 213.800781 137.507812 214.265625 L 137.113281 214.75 L 137.15625 214.925781 L 137.15625 215.101562 C 137.507812 216.648438 137.902344 217.949219 138.339844 219 C 139.011719 220.667969 140.765625 223.792969 143.597656 228.382812 C 146.167969 232.589844 147.453125 234.824219 147.453125 235.089844 L 147.367188 235.4375 L 147.234375 235.527344 C 146.707031 236.667969 142.792969 238.769531 135.492188 241.839844 C 127.136719 245.347656 120.636719 247.097656 115.992188 247.097656 L 111.039062 246.925781 L 110.820312 246.398438 L 110.820312 246.003906 C 109.769531 244.367188 108.773438 239.984375 107.839844 232.851562 C 107.636719 231.421875 107.402344 229.097656 107.140625 225.882812 C 106.875 224.363281 106.261719 222.304688 105.300781 219.703125 C 104.890625 219.175781 104.628906 218.707031 104.511719 218.300781 C 104.070312 217.511719 103.5625 216.414062 102.976562 215.011719 L 101.96875 212.339844 L 101.882812 212.382812 L 101.53125 212.292969 L 101.355469 211.898438 L 101.617188 211.375 L 100.304688 207.691406 C 99.71875 206.203125 99.382812 204.214844 99.296875 201.730469 L 98.726562 201.511719 L 98.683594 201.117188 L 99.207031 199.890625 L 99.164062 198.75 L 99.078125 198.617188 L 99.164062 198.574219 L 98.902344 195.726562 C 97.878906 189.820312 96.886719 185.832031 95.921875 183.757812 C 95.335938 182.5 94.503906 180.207031 93.421875 176.875 C 92.402344 173.777344 91.890625 172.082031 91.890625 171.792969 L 92.242188 171.132812 L 92.242188 171.046875 C 92.242188 170.34375 94.460938 168.78125 98.902344 166.355469 C 100.566406 165.449219 102.523438 164.878906 104.773438 164.644531 C 105.53125 164.585938 106.644531 164.308594 108.101562 163.8125 L 124.230469 163.113281 C 126.039062 163.113281 127.179688 163.34375 127.648438 163.8125 L 127.472656 164.078125 C 127.851562 165.769531 127.96875 168.914062 127.820312 173.5 L 128.042969 175.339844 L 128.214844 176 L 128.214844 176.042969 M 128.65625 181.828125 L 128.609375 181.828125 L 127.515625 183.625 L 129.882812 184.679688 L 129.488281 183.582031 L 128.785156 181.480469 L 128.699219 181.652344 L 128.65625 181.828125 M 127.691406 176.875 L 126.902344 178.058594 L 127.996094 178.542969 L 127.691406 176.875 M 110.03125 171.265625 L 109.332031 172.359375 L 108.761719 173.105469 L 108.628906 173.589844 L 110.339844 175.078125 L 111.609375 175.867188 L 113.710938 172.1875 L 112.179688 171.132812 L 112.222656 170.871094 L 110.03125 171.265625 M 114.632812 170.609375 L 113.40625 170.695312 L 114.28125 171.265625 L 114.632812 170.609375 M 106.921875 172.140625 L 107.488281 172.582031 L 108.058594 171.792969 L 106.921875 172.140625 M 106.21875 175.386719 L 106.789062 174.203125 L 105.429688 173.019531 L 104.117188 175.472656 L 105.691406 176.523438 L 106.21875 175.386719 M 108.015625 175.121094 L 106.921875 177.3125 L 106.921875 177.359375 L 109.679688 179.15625 L 110.90625 177.050781 L 109.375 176.042969 C 108.878906 175.722656 108.425781 175.414062 108.015625 175.121094 M 101.96875 174.070312 L 102.976562 174.726562 L 103.898438 173.238281 L 101.96875 174.070312 M 101.136719 174.683594 L 101.179688 174.464844 L 99.121094 175.5625 L 98.417969 177.140625 L 100.390625 178.585938 L 101.617188 177.09375 L 102.320312 175.910156 C 101.53125 175.269531 101.136719 174.859375 101.136719 174.683594 M 103.851562 177.050781 L 103.414062 176.699219 L 102.582031 178.101562 L 101.75 179.550781 L 103.457031 180.734375 L 103.941406 180.164062 L 105.035156 177.882812 L 103.851562 177.050781 M 100.960938 180.777344 L 99.078125 183.320312 L 100.390625 184.238281 L 102.40625 181.875 L 100.960938 180.777344 M 104.554688 181.523438 L 106.789062 183.054688 L 108.324219 181.304688 L 108.847656 180.558594 L 106.832031 179.15625 L 106.21875 178.71875 L 104.992188 180.953125 L 104.554688 181.523438 M 103.589844 182.707031 L 101.617188 185.117188 L 103.765625 186.5625 L 105.738281 184.285156 L 103.808594 182.882812 L 103.589844 182.707031 M 115.203125 173.195312 L 113.316406 176.832031 C 113.960938 177.183594 114.648438 177.519531 115.378906 177.839844 L 117.523438 174.773438 L 115.203125 173.195312 M 111.125 180.121094 L 112.878906 181.257812 L 114.5 179.066406 L 112.527344 178.015625 L 111.125 180.121094 M 110.25 181.304688 L 108.148438 184.019531 L 109.988281 185.25 L 112.179688 182.269531 L 110.25 181.304688 M 115.859375 179.636719 L 114.0625 182.003906 L 115.816406 183.144531 L 117.347656 184.066406 L 118.925781 181.257812 L 116.210938 179.726562 L 115.859375 179.636719 M 114.589844 183.757812 L 113.363281 182.96875 L 111.125 186.039062 L 114.632812 188.230469 L 116.648438 185.160156 L 114.589844 183.757812 M 115.726562 188.84375 L 117.742188 189.9375 L 119.585938 187.046875 L 117.65625 185.816406 L 115.726562 188.84375 M 113.492188 189.414062 C 112.820312 189.121094 111.710938 188.449219 110.164062 187.394531 L 108.453125 189.894531 L 111.609375 192.175781 L 113.667969 189.5 L 113.492188 189.414062 M 116.953125 191.167969 L 114.894531 190.113281 L 112.835938 193.050781 L 114.765625 194.542969 L 115.160156 193.882812 L 116.953125 191.167969 M 107.140625 185.292969 L 105.253906 187.617188 L 107.140625 188.972656 L 108.980469 186.605469 C 108.394531 186.199219 107.78125 185.761719 107.140625 185.292969 M 104.203125 192.832031 L 106.132812 190.289062 L 104.203125 188.886719 L 102.230469 191.121094 L 104.203125 192.832031 M 105.519531 193.925781 L 108.453125 196.292969 L 110.644531 193.445312 L 107.488281 191.253906 L 105.519531 193.925781 M 102.714844 187.835938 L 100.652344 186.300781 L 99.078125 188.230469 L 100.960938 189.984375 L 102.714844 187.835938 M 108.191406 199.144531 L 107.050781 200.679688 L 109.945312 202.871094 L 111.652344 200.589844 L 108.671875 198.53125 L 108.191406 199.144531 M 103.0625 194.320312 L 100.960938 192.523438 C 100.316406 193.167969 99.894531 193.488281 99.691406 193.488281 L 99.425781 193.402344 L 99.644531 195.15625 L 99.691406 196.121094 L 100.128906 196.03125 L 101.398438 196.601562 L 103.0625 194.320312 M 102.84375 197.523438 L 105.867188 199.757812 L 107.445312 197.652344 C 106.335938 196.835938 105.328125 196.089844 104.421875 195.417969 L 103.898438 196.074219 L 102.84375 197.523438 M 104.859375 201.074219 L 101.835938 198.835938 L 100.304688 200.765625 C 100.710938 200.765625 101.691406 201.613281 103.238281 203.308594 L 104.859375 201.074219 M 106.085938 201.992188 L 104.246094 204.449219 L 106.394531 206.992188 L 108.847656 204.007812 L 106.085938 201.992188 M 118.136719 198.96875 L 116.867188 202.476562 L 119.101562 204.054688 L 119.320312 203.570312 L 120.941406 200.460938 L 118.3125 198.707031 L 118.136719 198.96875 M 115.027344 196.46875 C 114.265625 197.785156 113.816406 198.910156 113.667969 199.84375 L 113.625 200.152344 L 115.683594 201.640625 L 117.261719 198.003906 L 115.027344 196.46875 M 116.078125 195.503906 L 117.832031 196.863281 L 120.109375 192.875 L 118.050781 191.734375 L 115.859375 195.109375 L 115.773438 195.285156 L 116.078125 195.503906 M 111.914062 194.320312 L 109.679688 197.257812 L 112.355469 199.230469 L 112.574219 198.792969 L 114.0625 195.8125 L 111.914062 194.320312 M 110.953125 203.660156 L 113.625 205.71875 L 115.113281 202.871094 L 114.632812 202.5625 L 112.878906 201.421875 L 112.179688 202.210938 L 110.953125 203.660156 M 128.65625 191.472656 L 126.59375 194.804688 L 129.398438 196.339844 L 131.898438 192.613281 L 131.855469 192.613281 C 131.386719 192.613281 130.320312 192.234375 128.65625 191.472656 M 131.855469 191.078125 L 130.800781 187.570312 L 129.574219 189.851562 L 131.855469 191.078125 M 132.246094 192.570312 L 132.246094 192.613281 L 132.246094 192.570312 M 129.925781 186.738281 C 128.992188 186.535156 127.820312 186.097656 126.421875 185.421875 L 125.675781 186.5625 L 124.929688 187.746094 L 126.683594 188.535156 L 127.996094 189.105469 C 128.902344 187.820312 129.546875 187.03125 129.925781 186.738281 M 123.265625 183.757812 L 121.644531 186.257812 C 122.257812 186.546875 122.914062 186.855469 123.617188 187.175781 L 125.148438 184.765625 L 123.265625 183.757812 M 120.679688 187.703125 L 118.839844 190.507812 L 120.855469 191.605469 L 122.695312 188.625 L 122.082031 188.359375 C 121.789062 188.273438 121.324219 188.054688 120.679688 187.703125 M 124.011719 189.238281 L 122.082031 192.304688 L 124.886719 193.839844 L 125.324219 193.136719 L 126.945312 190.683594 L 124.011719 189.238281 M 125.761719 196.121094 L 123.089844 200.414062 L 125.675781 201.992188 L 128.480469 197.699219 C 127.894531 197.375 127.265625 197.011719 126.59375 196.601562 L 125.761719 196.121094 M 121.511719 199.40625 L 124.097656 195.109375 L 121.335938 193.53125 L 118.925781 197.609375 C 119.773438 198.253906 120.636719 198.851562 121.511719 199.40625 M 120.371094 204.667969 L 120.285156 204.886719 L 122.652344 206.597656 L 124.972656 203.046875 L 122.433594 201.421875 L 120.371094 204.667969 M 134.308594 201.773438 L 132.074219 205.105469 L 134.789062 206.246094 L 134.878906 206.289062 L 134.832031 205.324219 L 134.65625 203.835938 L 134.703125 203.046875 L 134.527344 203 L 134.308594 201.773438 M 133.738281 198.882812 L 132.554688 193.796875 C 132.410156 194.585938 131.910156 195.753906 131.066406 197.304688 L 133.738281 198.882812 M 130.230469 198.707031 L 127.382812 202.914062 L 130.890625 204.625 L 133.78125 200.503906 C 133.050781 200.238281 131.867188 199.640625 130.230469 198.707031 M 94.695312 177.839844 L 95.394531 179.726562 L 96.753906 177.402344 L 96.359375 177.050781 C 95.335938 177.578125 94.78125 177.839844 94.695312 177.839844 M 95.746094 180.691406 L 96.753906 183.054688 L 97.0625 183.800781 L 97.234375 183.496094 L 97.28125 183.449219 L 97.28125 183.230469 L 97.457031 182.707031 C 97.71875 182.09375 98.40625 181.085938 99.515625 179.679688 L 97.804688 178.324219 C 96.957031 179.902344 96.300781 180.691406 95.832031 180.691406 L 95.746094 180.691406 M 98.199219 187.265625 L 99.472656 185.378906 L 98.289062 184.371094 C 98.054688 184.722656 97.820312 184.898438 97.585938 184.898438 L 97.457031 184.898438 L 98.199219 187.265625 M 98.902344 190.464844 L 99.25 192.347656 L 99.820312 191.472656 L 98.902344 190.464844 M 99.820312 198.882812 L 100.566406 197.828125 L 99.734375 197.082031 L 99.820312 198.574219 L 99.867188 198.617188 L 99.820312 198.882812 M 136.410156 215.582031 L 135.273438 216.941406 L 137.289062 217.773438 L 137.113281 217.292969 L 137.023438 217.292969 L 136.628906 217.160156 L 136.410156 216.238281 L 136.804688 216.457031 L 136.542969 215.582031 L 136.410156 215.582031 M 137.023438 218.914062 L 134.21875 218.210938 L 132.6875 220.316406 L 135.972656 221.191406 C 136.847656 219.847656 137.402344 219.175781 137.636719 219.175781 L 137.855469 219.21875 L 137.59375 218.605469 C 137.476562 218.8125 137.289062 218.914062 137.023438 218.914062 M 140.617188 224.789062 L 139.871094 223.382812 C 139.753906 223.558594 139.566406 223.648438 139.304688 223.648438 L 136.675781 222.988281 L 134.308594 226.761719 L 138.601562 227.636719 L 138.644531 227.503906 C 139.316406 225.691406 139.917969 224.789062 140.441406 224.789062 L 140.617188 224.789062 M 139.347656 222.332031 L 138.296875 220.226562 L 137.507812 221.632812 L 139.347656 222.332031 M 142.851562 228.953125 L 140.96875 229.257812 L 139.652344 229.082031 L 136.71875 234.605469 L 139.652344 233.421875 L 143.773438 230.617188 L 142.851562 228.953125 M 138.164062 228.863281 L 133.519531 228.03125 L 132.074219 230.179688 L 130.625 232.371094 L 134.964844 233.816406 L 137.242188 230.96875 L 138.164062 228.863281 M 142.546875 228.382812 L 141.101562 225.707031 L 140.179688 227.945312 L 142.546875 228.382812 M 130.933594 213.300781 C 129.648438 212.71875 128.507812 212.148438 127.515625 211.59375 L 125.894531 213.917969 L 129.707031 215.101562 L 130.933594 213.300781 M 131.765625 212.164062 L 134.613281 208.128906 C 133.796875 207.925781 132.597656 207.414062 131.019531 206.597656 L 128.261719 210.539062 C 129.222656 211.066406 130.394531 211.609375 131.765625 212.164062 M 132.160156 213.871094 L 131.019531 215.496094 L 134.394531 216.589844 L 135.445312 215.230469 L 132.160156 213.871094 M 136.058594 214.003906 C 135.652344 212.484375 135.359375 210.949219 135.183594 209.402344 L 132.992188 212.644531 L 136.058594 214.003906 M 127.164062 209.925781 L 129.925781 206.027344 L 126.550781 204.007812 L 123.921875 207.515625 L 125.71875 208.832031 L 127.164062 209.925781 M 119.539062 206.027344 L 117.699219 208.832031 L 120.023438 210.585938 L 120.109375 210.410156 L 121.90625 207.734375 L 119.539062 206.027344 M 121.117188 211.328125 L 124.359375 213.476562 L 124.625 213.566406 L 126.421875 210.980469 L 124.449219 209.664062 L 123.089844 208.613281 L 121.117188 211.285156 L 121.117188 211.328125 M 120.328125 212.601562 L 118.621094 215.496094 L 121.90625 217.203125 L 122.039062 217.027344 L 123.835938 214.660156 C 123.308594 214.425781 122.914062 214.238281 122.652344 214.089844 L 120.328125 212.601562 M 126.945312 219.046875 L 128.742188 216.414062 L 125.019531 215.101562 L 123.132812 217.816406 L 125.105469 218.652344 L 126.945312 219.046875 M 123.175781 219.351562 L 122.214844 219.046875 L 119.890625 222.332031 L 123.527344 223.910156 L 126.113281 220.226562 L 123.175781 219.351562 M 119.363281 222.988281 L 116.605469 226.761719 L 117.128906 227.066406 L 119.933594 228.644531 L 122.914062 224.699219 C 121.570312 224.058594 120.386719 223.488281 119.363281 222.988281 M 124.097656 225.269531 L 121.207031 229.300781 C 122.402344 229.886719 123.382812 230.308594 124.140625 230.574219 L 127.121094 226.453125 C 125.921875 226.074219 124.914062 225.679688 124.097656 225.269531 M 126.15625 224.789062 L 127.910156 225.3125 L 130.757812 221.5 L 127.429688 220.578125 L 124.796875 224.347656 L 126.15625 224.789062 M 128.304688 219.351562 L 131.765625 220.097656 L 133.386719 217.949219 L 130.1875 216.898438 L 130.058594 216.851562 L 128.304688 219.351562 M 129.3125 225.664062 L 132.730469 226.453125 L 135.050781 222.59375 L 131.898438 221.804688 L 129.3125 225.664062 M 116.078125 207.605469 L 116.734375 208.085938 L 118.488281 205.238281 L 116.339844 203.746094 L 114.765625 206.597656 L 116.078125 207.605469 M 114.324219 208.042969 L 113.976562 207.78125 L 113.316406 208.570312 L 111.519531 210.933594 C 112.367188 211.578125 113.070312 212.089844 113.625 212.46875 L 115.902344 209.3125 L 114.324219 208.042969 M 112.527344 207.472656 L 112.878906 206.992188 L 110.164062 204.972656 L 107.796875 208.128906 L 110.425781 210.101562 L 112.527344 207.472656 M 110.644531 212.03125 L 109.066406 214.003906 L 111.125 215.667969 L 112.003906 214.53125 L 112.75 213.609375 C 112.105469 213.171875 111.40625 212.644531 110.644531 212.03125 M 114.851562 213.390625 L 117.65625 214.96875 L 119.363281 211.898438 C 118.632812 211.375 117.816406 210.761719 116.910156 210.058594 L 114.71875 213.300781 L 114.851562 213.390625 M 104.027344 210.191406 L 105.605469 208 L 103.152344 205.851562 L 101.441406 208 L 102.40625 210.015625 L 102.449219 209.925781 L 102.757812 210.496094 C 102.875 210.203125 103.167969 210.058594 103.632812 210.058594 L 104.027344 210.191406 M 103.898438 213.214844 L 104.378906 214.265625 L 104.554688 214.046875 L 104.90625 214.792969 L 104.730469 215.011719 L 105.34375 216.457031 L 106.875 214.441406 L 104.511719 212.382812 L 103.898438 213.214844 M 103.328125 211.328125 L 102.976562 211.023438 L 102.890625 211.109375 L 103.152344 211.679688 L 103.328125 211.328125 M 107.972656 213.128906 L 109.503906 211.199219 L 107.007812 209.183594 L 105.472656 211.199219 L 107.972656 213.128906 M 107.445312 219.441406 L 107.839844 219.921875 L 110.03125 217.074219 L 107.972656 215.363281 L 105.914062 217.6875 L 107.445312 219.441406 M 107.226562 223.210938 C 107.460938 224.261719 107.722656 225.09375 108.015625 225.707031 L 107.839844 225.707031 L 107.972656 227.066406 L 108.101562 227.066406 L 108.542969 227.285156 L 110.6875 224.523438 L 109.066406 223.253906 L 107.578125 222.027344 L 107.140625 222.070312 L 107.007812 222.070312 L 107.226562 223.210938 M 117.085938 220.667969 L 118.621094 221.632812 L 120.898438 218.519531 C 119.847656 218.082031 118.796875 217.570312 117.742188 216.984375 L 116.035156 219.789062 L 117.085938 220.667969 M 116.824219 216.414062 L 113.929688 214.484375 L 112.355469 216.679688 L 115.070312 218.957031 L 116.824219 216.414062 M 111.300781 218.125 L 108.761719 221.0625 L 109.945312 222.332031 L 111.519531 223.472656 L 114.105469 220.183594 L 111.300781 218.125 M 115.597656 225.839844 L 118.09375 222.375 L 115.289062 220.929688 L 114.71875 221.851562 L 112.96875 224.480469 L 115.421875 226.058594 L 115.597656 225.839844 M 112.398438 229.742188 L 114.542969 227.15625 L 112.179688 225.621094 L 110.03125 228.164062 L 112.398438 229.742188 M 113.886719 236.535156 L 115.859375 233.90625 L 115.773438 233.859375 L 112.617188 232.019531 L 110.601562 234.386719 L 113.886719 236.535156 M 109.8125 235.132812 C 109.578125 235.308594 109.417969 235.394531 109.332031 235.394531 L 109.285156 235.394531 L 110.117188 239.382812 L 110.601562 240.917969 L 113.144531 237.542969 L 109.8125 235.132812 M 115.203125 237.367188 L 117.917969 239.164062 L 120.066406 236.140625 L 117.261719 234.695312 L 115.203125 237.367188 M 116.78125 232.722656 L 119.101562 229.695312 L 115.773438 227.855469 L 113.667969 230.617188 L 116.78125 232.722656 M 108.890625 233.246094 L 109.332031 233.554688 L 111.257812 231.144531 L 108.191406 228.863281 L 108.71875 232.414062 L 108.890625 233.246094 M 116.953125 240.085938 L 114.414062 238.417969 L 111.871094 241.3125 L 116.953125 240.085938 M 131.066406 229.257812 L 131.984375 227.722656 L 128.4375 226.847656 L 127.515625 227.988281 L 125.542969 230.96875 L 129.09375 231.933594 L 131.066406 229.257812 M 133.300781 236.007812 L 133.914062 235.175781 L 129.574219 233.949219 L 127.121094 237.367188 L 127.734375 237.675781 L 132.292969 236.402344 L 133.300781 236.007812 M 125.585938 236.667969 L 127.996094 233.378906 L 124.710938 232.195312 L 122.519531 235.351562 L 125.585938 236.667969 M 123.265625 231.714844 C 122.710938 231.507812 121.773438 231.054688 120.460938 230.355469 L 118.183594 233.464844 L 121.117188 234.738281 L 123.265625 231.714844 M 124.316406 238.464844 L 124.578125 238.070312 C 123.644531 237.746094 122.609375 237.339844 121.46875 236.84375 L 119.410156 239.558594 L 121.425781 239.078125 L 124.316406 238.464844 M 102.144531 204.84375 C 101.179688 203.90625 100.480469 203.132812 100.039062 202.519531 C 100.1875 204.097656 100.480469 205.484375 100.917969 206.683594 L 102.144531 204.84375 "/>
<path style=" stroke:none;fill-rule:evenodd;fill:rgb(0%,0%,0%);fill-opacity:1;" d="M 128.609375 181.828125 L 128.65625 181.828125 L 128.609375 181.917969 L 128.609375 181.828125 M 136.542969 215.582031 L 136.410156 215.582031 L 136.542969 215.582031 "/>
</g>
</svg>
