<?xml version="1.0" encoding="UTF-8"?>
<svg xmlns="http://www.w3.org/2000/svg" xmlns:xlink="http://www.w3.org/1999/xlink" width="212px" height="411px" viewBox="0 0 212 411" version="1.1">
<g id="surface1">
<path style=" stroke:none;fill-rule:evenodd;fill:rgb(0%,0%,0%);fill-opacity:0.678431;" d="M 62.222656 266.472656 C 68.941406 266.472656 74.246094 265.699219 78.128906 264.152344 C 80.089844 263.363281 81.664062 262.574219 82.863281 261.785156 L 83.167969 261.828125 L 83.214844 261.433594 C 83.796875 261.433594 84.015625 262.296875 83.871094 264.019531 L 83.519531 267 L 83.871094 269.015625 L 83.871094 269.804688 C 83.871094 271.820312 83.167969 275.824219 81.769531 281.816406 L 81.679688 282.914062 L 81.769531 283.394531 L 81.722656 283.480469 L 81.941406 284.050781 C 81.941406 284.375 81.78125 284.5625 81.460938 284.621094 C 80.992188 288.566406 80.554688 291.195312 80.144531 292.511719 L 80.191406 293.125 L 79.050781 299.964844 L 78.042969 305.3125 L 78.085938 305.574219 L 77.78125 306.671875 L 76.992188 309.957031 C 75.734375 314.898438 75.019531 317.949219 74.84375 319.121094 C 74.667969 320.375 74.582031 322.902344 74.582031 326.703125 L 74.757812 333.453125 L 74.933594 333.628906 L 74.757812 334.109375 L 74.933594 338.800781 C 75.046875 341.285156 74.902344 342.6875 74.492188 343.007812 L 74.582031 343.183594 L 74.757812 343.625 L 74.363281 344.0625 C 74.710938 344.734375 74.960938 346.035156 75.105469 347.964844 C 75.105469 348.78125 74.976562 349.277344 74.710938 349.453125 L 74.757812 349.714844 L 74.757812 349.761719 C 74.757812 350.109375 74.640625 350.300781 74.40625 350.328125 L 73.925781 350.417969 L 73.574219 350.375 L 68.402344 350.417969 C 57.769531 350.007812 51.445312 349.335938 49.429688 348.402344 L 49.210938 348.488281 L 48.597656 348.269531 L 48.550781 347.65625 L 49.253906 343.796875 C 49.488281 342.628906 49.707031 341.753906 49.910156 341.167969 L 49.777344 340.863281 C 49.777344 340.570312 49.941406 340.363281 50.261719 340.246094 L 50.347656 340.160156 L 50.566406 340.203125 L 50.65625 340.203125 C 50.304688 332.402344 50.128906 326.5 50.128906 322.496094 C 50.160156 321.210938 50.230469 319.9375 50.347656 318.679688 C 50.464844 317.570312 50.613281 316.707031 50.785156 316.09375 L 50.65625 314.167969 L 50.832031 312.71875 L 50.21875 306.625 L 48.902344 293.167969 L 47.457031 287.777344 C 46.726562 285.46875 46.390625 283.671875 46.449219 282.386719 L 46.449219 282.296875 C 46.476562 280.984375 46.390625 279.257812 46.1875 277.125 L 46.140625 277.082031 L 46.097656 276.6875 L 46.140625 276.644531 L 45.574219 271.691406 L 45.617188 271.425781 C 45.382812 270.84375 45.132812 270.039062 44.871094 269.015625 L 43.996094 265.464844 C 43.996094 265.230469 44.039062 265.058594 44.125 264.941406 L 43.996094 264.414062 L 44.082031 263.976562 C 43.789062 263.800781 43.644531 263.652344 43.644531 263.539062 C 43.644531 263.070312 43.953125 262.835938 44.566406 262.835938 L 50.4375 264.675781 C 54.730469 265.875 58.660156 266.472656 62.222656 266.472656 M 46.84375 272.042969 L 47.238281 275.066406 L 48.378906 273.398438 L 48.203125 272.65625 L 48.246094 272.480469 C 47.691406 272.304688 47.222656 272.144531 46.84375 271.996094 L 46.84375 272.042969 M 47.542969 278.792969 L 48.070312 280.195312 L 50.128906 277.433594 L 48.992188 274.933594 C 48.378906 276.015625 47.835938 276.730469 47.371094 277.082031 L 47.542969 278.792969 M 61.828125 273.96875 L 60.953125 273.96875 L 60.820312 274.1875 L 63.1875 277.914062 L 63.582031 278.617188 L 66.035156 275.371094 L 65.421875 273.925781 L 61.828125 273.96875 M 58.761719 273.925781 L 54.820312 273.707031 L 56.089844 276.425781 L 56.746094 277.957031 L 59.070312 274.671875 L 58.761719 273.925781 M 58.148438 280.894531 L 59.902344 283.480469 L 62.3125 280.28125 L 61.433594 278.835938 L 59.769531 275.941406 L 57.359375 279.40625 L 58.148438 280.894531 M 49.910156 273.179688 L 51.226562 275.984375 L 53.109375 273.488281 L 50 272.960938 L 49.910156 273.179688 M 51.75 277.257812 L 52.714844 279.667969 L 53.722656 282.167969 L 55.871094 279.140625 C 54.761719 277.007812 54.074219 275.488281 53.8125 274.582031 L 51.75 277.257812 M 54.335938 283.746094 L 56.265625 288.261719 L 58.894531 284.753906 L 57.183594 281.640625 L 56.613281 280.546875 L 55.476562 282.125 L 54.335938 283.746094 M 52.453125 282.253906 L 50.65625 278.617188 L 48.507812 281.335938 L 49.648438 284.050781 L 50.699219 286.375 L 52.933594 283.308594 L 52.453125 282.253906 M 49.691406 287.867188 L 48.464844 285.367188 L 49.164062 288.566406 L 49.691406 287.867188 M 49.953125 291.371094 L 50.699219 295.667969 L 52.582031 293.125 L 50.566406 289.574219 L 50.304688 289.09375 L 49.558594 289.96875 L 49.953125 291.371094 M 55.300781 289.53125 L 54.378906 287.207031 L 53.546875 284.882812 L 51.402344 287.777344 L 53.589844 291.8125 L 55.300781 289.53125 M 63.101562 281.464844 L 60.648438 284.753906 L 62.355469 287.734375 L 64.898438 284.140625 L 63.101562 281.464844 M 59.59375 286.113281 L 56.921875 289.707031 L 57.796875 291.371094 L 58.71875 292.644531 L 58.894531 292.335938 C 59.742188 290.964844 60.558594 289.824219 61.347656 288.917969 L 59.640625 286.066406 L 59.59375 286.113281 M 80.101562 271.910156 C 80.277344 271.996094 80.367188 272.203125 80.367188 272.523438 C 80.367188 272.933594 80.089844 273.675781 79.53125 274.757812 L 81.328125 276.03125 L 81.375 275.941406 C 81.753906 273.75 82.105469 272.085938 82.425781 270.945312 C 81.8125 271.238281 81.039062 271.558594 80.101562 271.910156 M 76.160156 272.917969 L 72.476562 273.445312 L 72.476562 273.839844 L 75.457031 278.046875 L 77.691406 274.804688 L 76.160156 272.917969 M 78.570312 273.488281 L 79.53125 272.085938 L 77.867188 272.523438 L 78.570312 273.488281 M 78.304688 280.675781 L 80.453125 277.34375 L 78.832031 275.984375 L 76.597656 279.40625 L 78.304688 280.675781 M 66.867188 274.277344 L 67.175781 273.882812 L 66.605469 273.882812 L 66.867188 274.277344 M 67.527344 275.328125 L 68.753906 277.300781 L 69.148438 276.378906 C 69.761719 275.09375 70.316406 274.175781 70.8125 273.621094 L 68.007812 273.839844 L 68.097656 274.277344 L 67.527344 275.328125 M 68.097656 278.835938 L 66.695312 276.554688 L 64.285156 279.84375 L 65.859375 282.648438 L 67.21875 280.5 L 68.097656 278.835938 M 69.628906 278.660156 L 71.515625 281.640625 L 72.347656 282.5625 L 74.582031 279.273438 L 71.6875 275.285156 L 69.628906 278.660156 M 73.574219 283.789062 L 75.324219 285.367188 L 77.429688 282.125 L 75.808594 280.632812 L 74.144531 282.957031 L 73.574219 283.789062 M 70.332031 282.210938 L 68.796875 279.929688 L 66.429688 283.613281 L 67.4375 285.191406 L 69.148438 287.164062 L 71.515625 283.746094 L 70.332031 282.210938 M 65.554688 284.972656 L 62.96875 288.917969 C 63.613281 290.175781 64.414062 291.34375 65.378906 292.425781 L 65.992188 291.589844 L 68.402344 288.214844 L 66.210938 285.804688 L 65.554688 284.972656 M 72.214844 290.320312 L 74.449219 286.8125 L 72.652344 285.058594 L 70.242188 288.347656 L 72.214844 290.320312 M 69.5 289.3125 L 67.089844 292.378906 L 66.300781 293.433594 L 68.882812 295.582031 L 71.558594 291.328125 L 69.5 289.3125 M 80.367188 282.167969 L 80.761719 279.710938 L 79.621094 281.597656 L 80.367188 282.167969 M 76.554688 286.460938 L 77.734375 287.515625 L 78.042969 286.769531 C 78.597656 285.511719 79.125 284.546875 79.621094 283.875 L 78.65625 283.132812 L 76.554688 286.460938 M 75.632812 287.910156 L 73.355469 291.417969 L 75.851562 293.914062 L 75.984375 293.257812 C 76.160156 292.058594 76.523438 290.699219 77.078125 289.179688 L 75.632812 287.910156 M 79.578125 287.339844 L 78.964844 288.699219 L 79.359375 289.09375 L 79.578125 287.339844 M 78.394531 290.144531 C 77.867188 291.488281 77.457031 292.832031 77.167969 294.175781 L 76.949219 294.964844 L 77.78125 295.800781 C 78.101562 294.191406 78.464844 293.109375 78.875 292.554688 L 78.875 292.335938 L 79.136719 290.582031 L 78.394531 290.144531 M 77.472656 297.554688 L 76.203125 296.457031 L 74.011719 299.789062 L 76.773438 302.417969 L 77.253906 298.957031 L 77.472656 297.554688 M 70.023438 296.371094 L 73.089844 298.957031 L 73.265625 298.691406 L 75.28125 295.492188 L 72.609375 292.511719 L 70.023438 296.371094 M 65.554688 294.398438 L 62.96875 297.902344 L 65.292969 300.664062 L 67.964844 296.984375 L 68.050781 296.851562 L 67.921875 296.71875 L 65.554688 294.398438 M 66.035156 301.5 L 69.148438 304.128906 L 69.277344 303.910156 L 72.082031 300.226562 L 69.105469 297.726562 L 69.015625 297.859375 L 66.035156 301.5 M 71.953125 306.230469 L 74.710938 308.292969 L 76.246094 306.363281 L 76.597656 303.863281 L 73.089844 301.058594 L 70.15625 304.875 L 71.953125 306.230469 M 69.324219 305.96875 L 66.824219 309.214844 L 70.507812 312.851562 L 72.433594 311.097656 L 73.96875 309.257812 L 69.804688 306.230469 L 69.324219 305.96875 M 66.035156 310.222656 L 63.011719 314.035156 L 66.429688 316.796875 L 69.234375 313.992188 L 66.210938 310.484375 L 66.035156 310.222656 M 68.316406 305.269531 L 65.160156 302.59375 L 63.144531 305.136719 L 65.203125 307.503906 L 66.035156 308.425781 L 68.316406 305.269531 M 75.152344 310.175781 L 71.601562 313.859375 L 74.144531 316.269531 L 75.546875 310.484375 L 75.152344 310.175781 M 73.835938 317.71875 C 72.960938 317.425781 71.792969 316.546875 70.332031 315.085938 L 67.65625 317.628906 L 69.410156 318.679688 L 72.257812 320.257812 L 73.660156 318.726562 L 73.835938 317.71875 M 72.523438 322.363281 L 69.367188 325.519531 L 69.542969 325.605469 L 72.652344 327.140625 L 72.785156 327.011719 L 73.265625 327.140625 L 73.265625 326.789062 L 73.355469 322.714844 L 72.523438 322.363281 M 69.058594 320.171875 L 66.648438 318.507812 L 63.449219 321.925781 L 68.007812 324.863281 L 71.121094 321.53125 L 69.058594 320.171875 M 73.136719 328.894531 C 72.695312 329.539062 71.953125 330.253906 70.898438 331.042969 L 72.257812 331.875 L 73.046875 331.042969 L 73.398438 331.128906 L 73.308594 328.984375 L 73.136719 328.894531 M 66.34375 328.324219 C 67.425781 329.144531 68.328125 329.714844 69.058594 330.035156 L 69.148438 330.078125 L 71.425781 328.195312 L 68.359375 326.484375 L 66.34375 328.324219 M 66.519531 325.34375 L 62.617188 322.714844 L 60.734375 324.554688 C 61.84375 325.34375 62.605469 325.839844 63.011719 326.046875 L 65.292969 327.535156 L 67.132812 325.738281 L 66.519531 325.34375 M 66.5625 334.109375 C 67.46875 334.519531 68.316406 334.914062 69.105469 335.292969 L 70.769531 333.410156 L 71.074219 333.101562 L 69.410156 332.09375 L 66.5625 334.109375 M 72.652344 333.890625 L 70.726562 336.082031 L 73.265625 337.441406 L 73.308594 337.355469 L 73.53125 337.398438 L 73.484375 334.199219 L 72.652344 333.890625 M 64.632812 293.34375 L 62.179688 290.101562 L 59.683594 293.871094 L 62.046875 296.765625 L 64.632812 293.34375 M 56.570312 291.984375 L 55.957031 290.933594 L 54.335938 293.082031 L 56.394531 296.195312 L 56.394531 296.148438 L 57.972656 293.871094 L 56.570312 291.984375 M 59.375 300.269531 L 61.214844 297.859375 L 58.894531 295.011719 L 57.230469 297.421875 L 57.402344 297.640625 L 59.375 300.269531 M 64.414062 301.71875 L 62.136719 299 L 60.253906 301.453125 L 62.488281 304.347656 L 64.457031 301.761719 L 64.414062 301.71875 M 51.3125 301.980469 L 51.402344 302.726562 L 52.144531 301.71875 L 51.136719 300.050781 L 51.3125 301.980469 M 55.433594 297.421875 L 53.328125 294.351562 L 51.226562 296.894531 L 53.242188 300.226562 L 55.433594 297.421875 M 56.441406 298.5625 L 54.117188 301.71875 L 55.914062 304.875 L 58.71875 301.148438 L 56.441406 298.5625 M 53.023438 303.074219 L 51.53125 304.566406 L 51.796875 307.765625 L 52.671875 309.300781 L 54.992188 306.101562 L 53.023438 303.074219 M 51.96875 312.71875 L 52.320312 317.367188 L 54.597656 314.472656 L 52.539062 311.582031 L 51.96875 312.148438 L 51.96875 312.71875 M 55.386719 313.464844 L 57.886719 310.308594 L 57.492188 309.871094 L 55.828125 307.414062 L 53.417969 310.527344 L 55.386719 313.464844 M 56.703125 306.230469 L 58.675781 309.300781 L 61.917969 305.09375 L 59.640625 302.289062 L 58.105469 304.347656 L 56.703125 306.230469 M 59.464844 310.308594 L 62.355469 313.421875 L 65.335938 309.386719 L 62.574219 305.882812 L 60.472656 308.773438 L 59.464844 310.308594 M 62.398438 314.824219 L 60.207031 317.542969 L 59.507812 318.417969 L 62.355469 321.09375 L 65.597656 317.71875 L 64.066406 316.445312 L 62.398438 314.824219 M 61.742188 314.167969 L 58.761719 311.273438 L 56.308594 314.648438 L 59.070312 317.890625 L 61.390625 314.5625 L 61.742188 314.167969 M 57.972656 318.636719 L 55.5625 315.699219 L 52.804688 318.945312 L 55.695312 320.917969 L 57.054688 319.953125 L 58.191406 318.902344 L 57.972656 318.636719 M 59.464844 323.679688 L 61.480469 321.882812 L 58.675781 319.382812 L 56.660156 321.617188 L 56.789062 321.707031 L 59.464844 323.679688 M 51.445312 322.496094 L 51.488281 324.074219 L 53.546875 322.449219 L 53.941406 322.1875 L 51.707031 320.257812 L 51.445312 322.496094 M 55.125 327.316406 L 56.878906 325.828125 L 57.929688 324.949219 L 55.214844 323.109375 L 52.496094 325.34375 L 55.125 327.316406 M 54.992188 329.550781 C 53.621094 330.605469 52.714844 331.128906 52.277344 331.128906 L 51.796875 331.085938 L 51.839844 331.480469 C 52.511719 331.714844 53.925781 332.578125 56.089844 334.066406 L 59.070312 332.136719 L 55.257812 329.726562 L 54.992188 329.550781 M 51.96875 334.988281 L 52.015625 336.128906 L 52.277344 336.390625 L 54.292969 335.164062 L 54.25 335.121094 L 51.882812 333.320312 L 51.96875 334.988281 M 53.636719 328.542969 C 52.671875 327.785156 51.984375 327.125 51.574219 326.570312 L 51.75 330.167969 C 52.101562 329.816406 52.730469 329.273438 53.636719 328.542969 M 58.675781 326.394531 L 56.484375 328.324219 L 60.515625 331.128906 L 63.976562 328.632812 L 60.820312 326.660156 L 59.332031 325.828125 L 58.675781 326.394531 M 57.578125 335.074219 L 60.515625 337.179688 L 63.890625 334.503906 L 63.933594 334.503906 L 61.039062 333.148438 L 60.601562 332.925781 L 57.578125 335.074219 M 65.117188 333.496094 L 67.921875 331.175781 L 65.117188 329.378906 L 61.875 331.964844 L 62.925781 332.53125 L 65.117188 333.496094 M 65.203125 339.152344 L 67.351562 337.355469 L 68.050781 336.523438 L 65.203125 335.121094 L 64.679688 335.601562 L 61.960938 337.792969 L 65.203125 339.152344 M 63.671875 340.421875 L 60.558594 338.84375 L 60.164062 339.109375 L 57.578125 340.863281 L 59.332031 342.394531 L 61.304688 342.484375 L 63.625 340.421875 L 63.671875 340.421875 M 59.070312 338.320312 L 59.246094 338.1875 L 58.191406 337.660156 L 55.78125 336.214844 L 53.460938 337.355469 L 56.570312 339.984375 L 59.070312 338.320312 M 64.371094 342.089844 L 66.867188 341.914062 L 65.117188 341.125 L 63.800781 342.21875 L 64.371094 342.089844 M 51.882812 340.335938 L 54.644531 341.210938 L 55.257812 340.816406 L 53.984375 339.679688 L 52.015625 337.792969 L 51.882812 340.335938 M 56.527344 341.871094 L 56.570312 341.871094 L 56.265625 341.652344 L 56.132812 341.738281 L 56.527344 341.871094 M 73.308594 339.066406 L 70.8125 342.046875 L 70.898438 342.21875 C 70.898438 342.542969 70.726562 342.746094 70.375 342.835938 L 73.046875 342.746094 L 73.660156 342.613281 L 73.574219 339.195312 L 73.308594 339.066406 M 66.695312 339.765625 C 67.980469 340.351562 68.988281 340.847656 69.71875 341.257812 L 72.214844 338.539062 L 69.542969 337.222656 L 68.402344 338.230469 L 66.695312 339.765625 M 72.566406 349.058594 L 72.566406 349.144531 L 72.609375 349.144531 L 72.566406 349.058594 "/>
</g>
</svg>
