<?xml version="1.0" encoding="UTF-8"?>
<svg xmlns="http://www.w3.org/2000/svg" xmlns:xlink="http://www.w3.org/1999/xlink" width="212px" height="411px" viewBox="0 0 212 411" version="1.1">
<g id="surface1">
<path style=" stroke:none;fill-rule:evenodd;fill:rgb(0%,0%,0%);fill-opacity:0.678431;" d="M 90.707031 72.375 C 90.707031 73.542969 90.472656 75.121094 90.003906 77.109375 L 90.355469 77.414062 L 93.25 79.871094 L 94.824219 75.136719 C 92.285156 73.148438 91 72.007812 90.96875 71.714844 L 90.574219 71.804688 L 90.707031 72.375 M 85.40625 73.339844 L 85.449219 73.558594 L 88.558594 75.925781 C 88.734375 74.113281 88.996094 72.871094 89.347656 72.199219 L 85.40625 73.339844 M 83.652344 73.820312 L 79.664062 75.003906 L 82.425781 77.589844 L 83.957031 74.039062 L 83.652344 73.820312 M 96.796875 74.609375 L 100.304688 77.285156 L 101.882812 73.339844 L 101.488281 73.03125 L 98.070312 70.359375 L 96.796875 74.609375 M 95.394531 73.601562 L 96.886719 69.917969 L 92.242188 71.320312 L 95.394531 73.601562 M 92.765625 58.082031 C 100.480469 56.066406 106 55.058594 109.332031 55.058594 L 114.71875 55.234375 L 114.765625 55.234375 L 114.984375 55.277344 L 115.113281 55.234375 L 115.507812 55.367188 L 115.945312 55.453125 L 116.121094 55.9375 L 116.035156 56.023438 C 116.648438 57.25 117.027344 59.9375 117.175781 64.089844 L 117.523438 65.578125 L 117.523438 65.710938 L 117.304688 66.28125 C 118.269531 68.707031 119.570312 74.039062 121.207031 82.28125 L 121.160156 83.15625 C 121.425781 83.246094 121.554688 83.507812 121.554688 83.945312 L 121.378906 84.339844 C 120.796875 84.835938 120.210938 85.597656 119.628906 86.621094 L 118.355469 89.117188 L 117.699219 90.652344 L 117.789062 90.695312 L 117.699219 90.960938 L 117.480469 91.835938 L 117.394531 91.792969 L 117.175781 92.800781 L 116.648438 98.238281 L 116.824219 98.410156 L 116.824219 100.382812 L 116.472656 100.035156 L 116.296875 101.613281 L 115.816406 106.082031 L 115.507812 106.652344 L 115.550781 106.695312 L 113.535156 109.984375 C 112.691406 111.503906 112.265625 112.820312 112.265625 113.929688 L 112.308594 114.324219 L 110.90625 118.3125 C 111.316406 118.488281 111.636719 118.910156 111.871094 119.582031 L 112.441406 121.6875 C 112.644531 122.125 113.273438 122.667969 114.324219 123.308594 L 117.21875 125.0625 L 126.550781 130.015625 L 126.859375 129.929688 L 127.429688 130.5 L 127.867188 130.761719 L 127.648438 131.289062 C 127.9375 132.75 128.011719 135.421875 127.867188 139.308594 L 127.515625 147.199219 L 128.304688 159.605469 L 128.742188 160.042969 L 128.65625 160.480469 L 128.347656 160.699219 L 128.566406 164.558594 C 128.566406 165.433594 128.449219 166.136719 128.214844 166.664062 L 128.390625 169.074219 C 128.480469 170.15625 128.40625 170.929688 128.171875 171.398438 L 128.214844 171.964844 L 128.042969 172.886719 C 128.042969 173.441406 120.285156 176.335938 104.773438 181.566406 L 104.203125 181.480469 L 99.777344 181.917969 L 97.105469 181.785156 C 96.988281 181.988281 96.796875 182.09375 96.535156 182.09375 C 95.890625 182.09375 95.554688 181.625 95.527344 180.691406 L 95.527344 179.679688 C 95.234375 179.390625 94.941406 178.777344 94.652344 177.839844 L 94.125 175.78125 L 94.125 175.691406 L 93.949219 175.429688 C 93.597656 175.398438 93.421875 175.195312 93.421875 174.816406 L 93.421875 174.773438 L 93.554688 174.332031 C 93.03125 173.457031 92.402344 172.097656 91.671875 170.257812 L 90.179688 166.09375 C 89.363281 165.828125 88.75 164.296875 88.339844 161.488281 C 87.609375 156.726562 86.441406 152.546875 84.835938 148.953125 C 83.460938 145.914062 82.394531 143.066406 81.636719 140.40625 C 81.109375 138.621094 80.015625 135.773438 78.351562 131.859375 L 78.351562 131.769531 C 77.53125 130.308594 76.390625 127.371094 74.933594 122.960938 C 72.800781 116.589844 71.324219 111.167969 70.507812 106.695312 C 69.660156 102.167969 68.269531 97.097656 66.34375 91.484375 L 66.300781 91.355469 L 66.210938 91.179688 C 64.722656 86.914062 63.976562 83.40625 63.976562 80.660156 L 63.671875 80.527344 C 63.582031 78.714844 62.894531 75.792969 61.609375 71.761719 C 61.320312 71.671875 61.171875 71.484375 61.171875 71.191406 C 61.171875 69.699219 66.882812 66.777344 78.304688 62.421875 C 81.578125 61.167969 86.398438 59.71875 92.765625 58.082031 M 65.378906 82.0625 L 66.082031 82.761719 L 66.605469 81.667969 L 67.484375 80.132812 L 65.074219 80.921875 L 65.378906 82.0625 M 92.765625 81.359375 L 89.613281 78.730469 L 88.164062 83.507812 L 90.882812 86.269531 L 92.328125 82.71875 L 92.765625 81.359375 M 98.289062 82.410156 L 99.691406 78.816406 L 96.226562 76.230469 L 94.476562 80.921875 L 97.804688 83.726562 L 98.289062 82.410156 M 99.296875 85 L 100.875 86.3125 L 102.539062 87.496094 L 104.421875 82.410156 L 104.070312 82.0625 L 101.222656 80 L 100.347656 82.238281 L 99.296875 85 M 93.949219 82.324219 L 91.976562 87.410156 L 95.21875 90.652344 L 97.324219 85.085938 L 93.949219 82.324219 M 88.339844 77.722656 L 84.964844 74.871094 L 83.476562 78.640625 L 86.105469 81.359375 L 87.507812 82.804688 L 87.640625 82.457031 C 87.816406 82.046875 88.046875 80.46875 88.339844 77.722656 M 84.792969 82.28125 L 82.863281 80.308594 L 82.25 82.238281 L 81.375 85.21875 L 84.964844 89.25 L 86.894531 84.429688 L 84.792969 82.28125 M 83.828125 95.386719 L 86.324219 98.0625 L 86.9375 96.527344 L 87.816406 94.027344 L 85.359375 91.484375 L 84.179688 94.511719 L 83.828125 95.386719 M 88.996094 95.125 L 87.988281 97.621094 L 87.421875 99.15625 L 88.210938 99.902344 L 91.011719 102.707031 L 92.023438 99.59375 L 92.546875 97.972656 L 89.261719 95.34375 L 88.996094 95.125 M 90.882812 94.949219 L 93.03125 96.613281 L 94.695312 92.097656 L 94.300781 91.75 L 91.40625 88.988281 L 89.523438 93.765625 L 90.882812 94.949219 M 88.339844 92.667969 L 90.226562 87.804688 L 87.597656 85.171875 L 85.84375 90.171875 L 88.339844 92.667969 M 96.054688 93.328125 L 94.386719 97.621094 L 97.894531 100.296875 L 99.425781 96.042969 L 96.054688 93.328125 M 96.621094 91.878906 L 99.953125 94.597656 L 102.101562 88.722656 L 99.996094 87.277344 L 98.8125 86.3125 L 96.621094 91.878906 M 79.183594 76.273438 L 77.5625 80.660156 L 80.234375 83.859375 L 81.285156 80.613281 L 81.8125 79.167969 L 79.183594 76.273438 M 74.667969 77.0625 L 76.289062 79.082031 C 76.84375 77.503906 77.34375 76.363281 77.78125 75.660156 L 74.757812 76.714844 L 74.757812 76.800781 L 74.667969 77.0625 M 75.71875 80.660156 L 73.96875 78.292969 L 73.308594 79.519531 L 72.300781 81.667969 L 74.40625 84.253906 L 75.71875 80.660156 M 75.414062 85.480469 L 78.4375 89.117188 L 79.707031 85.347656 L 76.902344 82.148438 L 75.414062 85.480469 M 72.917969 77.503906 L 70.15625 78.90625 L 71.558594 80.703125 L 72.214844 79.429688 C 72.214844 79.140625 72.417969 78.539062 72.828125 77.632812 L 72.917969 77.503906 M 68.796875 80.132812 L 66.914062 83.683594 L 68.839844 86.050781 L 70.945312 81.929688 L 69.191406 79.34375 L 68.621094 79.605469 L 68.796875 80.132812 M 70.726562 85.21875 L 69.804688 87.277344 L 71.953125 90.082031 L 73.792969 85.742188 L 73.835938 85.742188 L 71.734375 82.9375 L 70.726562 85.21875 M 67.964844 90.828125 L 68.578125 92.667969 L 69.628906 95.914062 L 71.03125 92.230469 L 71.25 91.75 L 69.234375 89.207031 L 69.015625 88.945312 L 67.964844 90.828125 M 68.050781 87.671875 L 66.386719 85.613281 L 67.394531 88.945312 L 68.050781 87.671875 M 78.742188 91.925781 L 76.902344 96.660156 L 79.925781 100.558594 L 82.160156 95.605469 L 78.742188 91.925781 M 77.734375 90.742188 L 76.859375 89.6875 L 74.757812 86.972656 L 73.046875 91.574219 L 75.71875 95.125 L 77.734375 90.742188 M 82.820312 94.203125 L 83.125 93.503906 L 84.441406 90.519531 L 80.890625 86.664062 L 79.402344 90.300781 L 82.820312 94.203125 M 72.433594 93.195312 C 71.46875 95.535156 70.753906 97.007812 70.285156 97.621094 L 73.003906 101.261719 L 75.105469 96.527344 L 72.433594 93.195312 M 76.335938 98.191406 L 75.238281 101.042969 L 74.40625 103.191406 L 77.167969 106.871094 L 79.269531 102.050781 L 76.335938 98.191406 M 80.410156 103.496094 L 78.480469 107.878906 L 78.304688 108.320312 L 80.890625 111.824219 L 82.949219 106.652344 L 80.410156 103.496094 M 70.945312 100.953125 L 71.601562 104.546875 L 72.300781 102.839844 L 72.257812 102.75 L 70.945312 100.953125 M 72.039062 107.308594 L 72.609375 109.5 L 75.105469 111.824219 L 76.554688 108.273438 L 73.75 104.679688 C 73.078125 106.023438 72.507812 106.902344 72.039062 107.308594 M 74.230469 114.0625 L 74.363281 113.667969 L 73.878906 113.097656 L 74.230469 114.0625 M 74.886719 115.8125 L 76.027344 119.101562 L 76.902344 122.476562 L 78.4375 118.179688 L 75.371094 114.804688 L 74.886719 115.8125 M 76.554688 113.359375 L 79.183594 116.296875 L 80.320312 113.273438 L 77.691406 109.722656 L 76.203125 112.964844 L 76.554688 113.359375 M 82.949219 114.410156 L 85.535156 117.171875 L 87.683594 111.914062 L 86.9375 111.210938 L 84.132812 108.097656 L 82.117188 113.402344 L 82.949219 114.410156 M 81.59375 114.851562 L 80.410156 117.785156 L 82.117188 119.976562 L 83.519531 121.863281 L 83.785156 121.207031 L 84.964844 118.488281 L 81.769531 115.070312 L 81.59375 114.851562 M 99.25 101.347656 L 103.589844 104.636719 L 105.253906 100.558594 L 100.828125 97.183594 L 99.25 101.347656 M 93.292969 100.515625 L 92.152344 103.847656 L 93.644531 105.335938 L 95.4375 107.046875 L 95.878906 105.996094 L 97.367188 101.742188 L 93.863281 99.027344 L 93.292969 100.515625 M 97.0625 106.914062 L 96.621094 108.097656 L 99.996094 110.683594 L 100.875 111.429688 L 102.40625 107.484375 L 103.019531 106.082031 L 98.726562 102.75 L 97.0625 106.914062 M 86.980469 100.472656 L 84.746094 106.476562 L 88.210938 110.511719 L 90.621094 103.933594 L 86.980469 100.472656 M 83.300781 96.746094 L 81.066406 102.007812 L 83.5625 105.074219 L 85.84375 99.332031 L 83.300781 96.746094 M 95.089844 107.96875 L 91.714844 104.988281 L 89.347656 111.695312 L 92.503906 114.628906 L 95.089844 107.96875 M 96.273438 109.0625 L 93.816406 115.683594 L 96.492188 117.742188 L 97.9375 118.75 L 100.390625 112.613281 L 96.273438 109.0625 M 88.867188 113.007812 L 86.894531 118.398438 L 90.136719 120.988281 L 90.355469 121.160156 L 92.109375 115.683594 L 88.867188 113.007812 M 109.375 66.9375 L 106.394531 67.507812 L 108.585938 69.480469 L 109.375 66.9375 M 105.253906 68.515625 C 105.253906 68.867188 104.800781 70.300781 103.898438 72.8125 L 107.050781 75.617188 L 107.839844 73.6875 L 107.796875 73.46875 L 108.324219 70.664062 L 107.226562 69.742188 L 105.210938 68.078125 L 105.253906 68.515625 M 109.460938 72.023438 L 108.148438 76.582031 L 109.550781 77.808594 L 111.871094 79.78125 L 112.355469 77.679688 L 112.835938 75.835938 L 112.089844 74.785156 L 109.460938 71.714844 L 109.460938 72.023438 M 104.335938 67.992188 L 99.121094 69.261719 C 99.96875 69.671875 101.121094 70.472656 102.582031 71.671875 C 103.371094 69.714844 103.957031 68.488281 104.335938 67.992188 M 116.648438 69.21875 L 116.5625 69.570312 L 116.867188 69.789062 L 116.691406 69.175781 L 116.648438 69.21875 M 115.992188 66.9375 L 115.773438 66.28125 L 113.492188 66.414062 C 114.078125 66.878906 114.660156 67.597656 115.246094 68.558594 L 115.332031 68.296875 L 115.992188 66.9375 M 110.6875 66.980469 L 109.679688 70.53125 L 113.316406 74.128906 C 113.84375 72.34375 114.3125 71.015625 114.71875 70.136719 L 113.84375 69.304688 L 111.257812 66.632812 L 110.6875 66.71875 L 110.6875 66.980469 M 117.570312 72.199219 C 117.128906 72.023438 116.574219 71.6875 115.902344 71.191406 L 114.457031 75.3125 L 118.882812 79.824219 L 119.234375 78.992188 L 118.136719 74.609375 L 117.570312 72.199219 M 119.628906 81.972656 L 118.707031 84.867188 L 118.75 84.910156 C 119.304688 84.035156 119.847656 83.480469 120.371094 83.246094 L 119.976562 81.929688 L 119.628906 81.972656 M 113.1875 79.386719 L 112.921875 80.613281 L 117.304688 83.902344 L 118.183594 81.535156 C 117.011719 80.835938 115.566406 79.371094 113.84375 77.152344 L 113.1875 79.386719 M 111.519531 81.449219 L 108.324219 78.511719 L 107.664062 77.941406 L 106.351562 81.886719 C 107.664062 82.910156 109.097656 84.003906 110.644531 85.171875 L 111.519531 81.449219 M 112.527344 82.367188 L 111.695312 86.007812 L 115.507812 88.945312 L 116.691406 85.523438 C 115.496094 84.765625 114.105469 83.710938 112.527344 82.367188 M 105.035156 80.878906 L 106.527344 76.976562 L 103.328125 74.433594 L 101.835938 78.421875 L 105.035156 80.878906 M 103.546875 89.734375 L 101.355469 95.738281 L 105.824219 99.199219 L 108.148438 93.109375 L 103.546875 89.734375 M 103.984375 88.503906 L 108.628906 91.792969 L 109.898438 88.023438 L 110.117188 87.277344 L 109.988281 87.191406 C 108.996094 86.519531 107.578125 85.335938 105.738281 83.640625 L 104.730469 86.402344 L 103.984375 88.503906 M 110.863281 89.117188 L 109.550781 92.492188 L 113.316406 95.34375 L 114.984375 90.433594 L 111.214844 88.023438 L 110.863281 89.117188 M 114.808594 96.570312 L 115.289062 97.007812 L 115.597656 94.203125 L 115.246094 95.210938 L 114.808594 96.570312 M 114.28125 98.105469 L 112.179688 104.066406 L 114.28125 105.6875 C 114.71875 104.050781 114.953125 102.355469 114.984375 100.601562 L 115.113281 98.851562 L 114.28125 98.105469 M 112.792969 96.878906 L 109.023438 93.808594 L 106.746094 99.902344 L 107.707031 100.648438 L 110.734375 102.96875 L 112.617188 97.402344 L 112.792969 96.878906 M 111.695312 105.335938 L 110.117188 109.675781 L 111.914062 111.125 L 112.398438 110.203125 C 113.011719 109.121094 113.507812 108.027344 113.886719 106.914062 L 111.695312 105.335938 M 106.21875 101.261719 L 104.640625 105.46875 L 108.804688 108.667969 L 110.292969 104.285156 C 109.273438 103.527344 108.101562 102.664062 106.789062 101.699219 L 106.21875 101.261719 M 101.488281 113.578125 L 98.988281 119.539062 L 103.414062 122.652344 L 105.738281 117.171875 L 101.96875 113.972656 L 101.488281 113.578125 M 107.316406 116.910156 L 109.726562 119.015625 L 109.726562 118.882812 L 109.898438 118.355469 C 109.898438 116.484375 110.382812 114.484375 111.347656 112.351562 L 109.59375 111.078125 L 107.316406 116.910156 M 106.21875 115.945312 L 108.277344 110.070312 L 104.117188 106.914062 L 103.546875 108.582031 L 101.96875 112.351562 L 106.21875 115.945312 M 118.96875 127.78125 L 117.085938 131.859375 L 119.144531 132.820312 C 120.023438 130.835938 120.679688 129.535156 121.117188 128.921875 L 118.96875 127.78125 M 126.246094 131.242188 C 125.339844 130.980469 123.980469 130.382812 122.167969 129.445312 L 120.242188 133.347656 L 122.828125 134.792969 L 125.105469 136.066406 L 126.421875 132.820312 L 126.246094 131.242188 M 126.550781 135.933594 L 126.289062 136.765625 L 126.550781 136.984375 L 126.550781 135.933594 M 126.550781 138.695312 L 125.761719 138.257812 L 124.273438 142.640625 L 126.332031 143.691406 L 126.550781 139.265625 L 126.550781 138.695312 M 119.628906 134.707031 L 117.613281 139.835938 L 123.089844 142.070312 L 123.527344 140.625 L 124.578125 137.601562 L 119.628906 134.707031 M 110.601562 121.25 L 109.066406 124.1875 L 108.058594 126.070312 L 111.433594 128.4375 C 112.164062 126.566406 112.808594 125.296875 113.363281 124.625 C 111.988281 123.691406 111.257812 122.886719 111.171875 122.214844 L 110.953125 121.511719 L 110.601562 121.25 M 114.9375 125.546875 L 114.71875 125.414062 L 112.921875 129.445312 L 116.035156 131.332031 L 118.007812 127.300781 L 114.9375 125.546875 M 105.386719 125.675781 L 103.851562 124.539062 L 101.3125 129.753906 C 102.160156 130.398438 102.976562 130.996094 103.765625 131.550781 L 106.261719 126.289062 L 105.386719 125.675781 M 106.4375 124.84375 L 106.832031 125.152344 C 107.882812 122.988281 108.746094 121.351562 109.417969 120.242188 L 106.832031 118.09375 L 104.421875 123.355469 L 106.4375 124.84375 M 108.191406 136.199219 L 105.472656 134.398438 L 104.160156 133.4375 L 102.714844 136.722656 L 106.699219 139.265625 L 108.191406 136.199219 M 103.195312 132.734375 L 100.742188 130.894531 L 98.988281 134.355469 L 101.660156 136.066406 L 103.195312 132.734375 M 104.683594 132.253906 L 107.007812 133.875 L 108.761719 134.96875 L 110.425781 130.894531 L 110.996094 129.445312 L 107.488281 127.125 L 105.738281 130.191406 L 104.683594 132.253906 M 118.355469 133.960938 L 116.605469 132.910156 L 114.238281 138.039062 L 116.429688 139.222656 L 117.128906 137.511719 L 118.578125 134.09375 L 118.355469 133.960938 M 113.097656 137.425781 L 115.550781 132.296875 L 112.484375 130.367188 L 109.945312 135.671875 L 113.097656 137.425781 M 109.375 136.898438 L 107.929688 140.011719 L 108.847656 140.582031 C 109.140625 140.757812 109.914062 141.105469 111.171875 141.632812 L 112.527344 138.695312 L 109.375 136.898438 M 115.945312 140.449219 L 113.667969 139.265625 L 112.355469 142.113281 L 114.851562 143.078125 L 115.945312 140.449219 M 117.175781 141.0625 L 116.121094 143.5625 L 119.277344 144.746094 L 121.90625 145.753906 L 122.5625 143.691406 L 117.613281 141.28125 L 117.175781 141.0625 M 115.683594 144.613281 L 113.84375 149.085938 L 119.976562 151.757812 L 121.511719 146.980469 L 117.65625 145.269531 L 115.683594 144.613281 M 112.75 148.558594 L 114.414062 144.175781 L 111.828125 143.253906 L 109.988281 147.199219 L 110.425781 147.417969 C 111.070312 147.769531 111.84375 148.148438 112.75 148.558594 M 102.539062 144.175781 L 100.128906 142.597656 L 97.894531 146.191406 L 97.628906 146.585938 C 98.710938 147.140625 99.820312 147.683594 100.960938 148.207031 L 102.582031 145.664062 L 103.371094 144.65625 L 102.539062 144.175781 M 103.675781 149.433594 L 106.964844 150.75 L 107.664062 149.085938 L 108.367188 147.636719 L 104.597656 145.402344 L 103.503906 146.671875 C 103.0625 147.171875 102.640625 147.871094 102.230469 148.777344 L 103.675781 149.433594 M 108.628906 150.136719 L 108.191406 151.234375 L 111.300781 152.371094 L 111.695312 151.320312 L 112.265625 149.828125 C 111.15625 149.273438 110.234375 148.761719 109.503906 148.296875 L 108.628906 150.136719 M 105.957031 140.625 C 104.789062 139.921875 103.515625 139.0625 102.144531 138.039062 L 101.003906 140.84375 L 100.699219 141.546875 L 104.070312 143.648438 L 105.957031 140.625 M 105.34375 144.4375 C 106.714844 145.285156 107.882812 145.988281 108.847656 146.542969 L 110.601562 142.773438 C 109.226562 142.21875 108.117188 141.734375 107.269531 141.324219 L 105.34375 144.4375 M 107.578125 152.722656 L 106.308594 155.792969 L 105.386719 157.71875 L 108.496094 159.167969 L 110.644531 154.039062 L 107.839844 152.855469 L 107.578125 152.722656 M 103.371094 158.332031 L 102.714844 158.027344 C 102.011719 157.675781 100.625 156.988281 98.550781 155.964844 L 97.457031 157.589844 L 97.28125 158.113281 L 97.542969 158.246094 L 102.054688 160.351562 L 103.371094 158.332031 M 104.070312 157.105469 L 105.253906 154.738281 L 106.394531 152.152344 C 104.496094 151.1875 102.945312 150.457031 101.75 149.960938 L 101.003906 152.195312 C 100.828125 152.78125 100.289062 153.65625 99.382812 154.828125 L 99.25 155.046875 L 103.851562 157.019531 L 104.070312 157.105469 M 103.328125 161.007812 L 105.867188 162.542969 L 106.746094 163.199219 L 106.875 162.894531 L 107.929688 160.480469 L 104.683594 158.949219 L 103.328125 161.007812 M 118.269531 154.914062 L 118.75 155.089844 L 119.453125 153.160156 L 118.183594 152.589844 L 113.363281 150.398438 L 112.574219 152.285156 L 112.398438 152.765625 L 118.269531 154.914062 M 115.683594 155.441406 C 114.371094 155.207031 113.054688 154.871094 111.742188 154.433594 L 109.59375 159.738281 L 114.371094 162.324219 L 115.507812 162.628906 L 118.226562 156.359375 L 115.683594 155.441406 M 123.746094 144.21875 L 123.089844 146.234375 L 126.199219 147.726562 L 126.199219 147.023438 L 126.246094 145.183594 L 123.746094 144.21875 M 126.246094 149.261719 L 122.652344 147.507812 L 121.117188 152.242188 L 124.40625 153.554688 C 125.28125 151.246094 125.863281 150.09375 126.15625 150.09375 L 126.246094 150.09375 L 126.246094 149.261719 M 125.542969 155.265625 L 125.148438 156.316406 L 124.625 157.71875 L 126.945312 158.859375 L 126.726562 156.800781 L 126.59375 155.441406 L 125.542969 155.265625 M 126.375 152.941406 L 125.980469 154.167969 L 126.507812 154.34375 L 126.375 152.941406 M 119.976562 155.570312 L 123.132812 157.019531 L 123.921875 154.828125 C 122.988281 154.535156 121.90625 154.140625 120.679688 153.644531 L 119.976562 155.570312 M 122.34375 158.246094 L 119.453125 156.886719 L 116.605469 162.9375 L 120.679688 164.207031 L 122.652344 158.378906 L 122.34375 158.246094 M 123.308594 160.699219 L 121.996094 164.691406 L 123.835938 165.433594 C 124.828125 164.820312 125.675781 164.457031 126.375 164.339844 L 126.859375 164.121094 L 127.121094 164.296875 L 127.253906 164.339844 L 127.078125 160.394531 L 124.054688 159.035156 L 123.308594 160.699219 M 119.539062 165.171875 L 116.035156 164.121094 L 115.464844 165.214844 L 113.976562 168.066406 L 116.5625 168.898438 L 117.523438 169.25 L 119.363281 168.242188 L 120.285156 165.480469 L 119.539062 165.171875 M 121.511719 166.003906 L 121.03125 167.230469 L 122.386719 166.355469 L 121.511719 166.003906 M 112.527344 167.453125 L 114.894531 163.683594 C 114.136719 163.417969 113.523438 163.171875 113.054688 162.9375 L 109.066406 161.007812 L 107.796875 164.03125 L 112.441406 167.40625 L 112.527344 167.453125 M 112.441406 170.78125 L 114.414062 170.386719 L 113.054688 169.730469 L 112.441406 170.78125 M 110.339844 171.132812 L 111.652344 168.898438 L 109.242188 167.1875 L 107.140625 165.566406 L 105.5625 168.941406 L 110.292969 171.132812 L 110.339844 171.132812 M 102.539062 162.015625 L 99.910156 166.222656 L 100.960938 166.925781 L 104.027344 168.285156 L 106 164.601562 L 103.851562 162.71875 L 102.539062 162.015625 M 103.328125 169.597656 C 101.3125 168.605469 99.921875 167.890625 99.164062 167.453125 L 98.59375 168.414062 L 97.191406 170.695312 L 99.691406 172.753906 L 101.925781 172.40625 L 103.328125 169.597656 M 103.984375 172.097656 L 107.445312 171.570312 L 106.042969 170.914062 C 105.636719 170.710938 105.253906 170.519531 104.90625 170.34375 L 103.984375 172.097656 M 96.359375 125.941406 L 100.347656 129.007812 L 102.84375 123.835938 C 101.296875 122.695312 99.867188 121.628906 98.550781 120.636719 L 96.359375 125.941406 M 97.5 119.847656 L 93.421875 116.734375 L 91.453125 122.039062 L 95.308594 125.105469 L 97.5 119.847656 M 95.484375 128.042969 L 94.257812 131.289062 L 97.894531 133.609375 L 99.734375 130.148438 L 95.878906 127.167969 L 95.484375 128.042969 M 94.78125 126.335938 L 90.96875 123.308594 L 89.261719 127.738281 L 93.160156 130.542969 L 94.519531 126.949219 L 94.78125 126.335938 M 88.824219 121.644531 L 86.367188 119.757812 L 86.238281 120.109375 L 84.921875 123.527344 C 86.0625 124.816406 87.273438 126.011719 88.558594 127.125 L 89.742188 123.484375 L 89.960938 122.566406 L 88.824219 121.644531 M 84.484375 124.582031 L 82.335938 129.359375 C 83.332031 130.558594 84.03125 131.300781 84.441406 131.59375 L 86.195312 132.648438 L 88.164062 128.132812 L 84.484375 124.582031 M 91.757812 137.773438 L 89.613281 142.113281 L 92.109375 143.605469 C 92.460938 142.640625 93.015625 141.558594 93.773438 140.363281 L 94.476562 139.265625 L 91.800781 137.6875 L 91.757812 137.773438 M 85.625 133.917969 C 84.339844 133.070312 83.476562 132.457031 83.039062 132.078125 L 81.636719 130.675781 C 81.082031 131.578125 80.644531 132.105469 80.320312 132.253906 C 80.933594 133.214844 81.652344 134.824219 82.46875 137.074219 L 83.738281 138.039062 L 85.625 133.917969 M 91.234375 135.628906 L 92.722656 131.726562 L 91.714844 131.023438 L 88.867188 128.746094 L 87.113281 133.171875 L 91.234375 135.628906 M 83.214844 139.179688 L 83.167969 139.132812 L 83.167969 139.179688 L 83.214844 139.179688 M 86.585938 134.53125 L 84.746094 138.785156 L 87.988281 141.0625 L 90.664062 136.984375 L 86.585938 134.53125 M 95.21875 138.082031 L 96.796875 135.539062 L 97.324219 134.664062 L 93.816406 132.472656 L 92.328125 136.328125 L 95.21875 138.082031 M 97.0625 139.222656 L 99.382812 140.710938 L 99.996094 139.746094 L 101.136719 137.25 L 99.691406 136.023438 L 98.507812 135.363281 L 97.847656 136.589844 L 96.492188 138.871094 L 97.0625 139.222656 M 78.128906 126.683594 L 79.578125 130.847656 L 80.277344 129.226562 L 78.394531 127.035156 L 78.128906 126.683594 M 79.707031 119.539062 L 77.867188 123.703125 L 80.144531 126.464844 L 80.980469 127.605469 L 82.996094 123.046875 L 79.707031 119.539062 M 93.511719 144.394531 L 96.273438 145.929688 L 98.769531 141.765625 L 95.878906 140.054688 L 95.832031 140.011719 C 94.8125 141.734375 94.039062 143.195312 93.511719 144.394531 M 92.898438 145.929688 L 92.765625 146.191406 L 91.101562 150.925781 L 93.074219 152.328125 L 93.949219 150.53125 L 95.527344 147.289062 L 92.898438 145.929688 M 96.839844 147.902344 C 95.90625 149.480469 95.292969 150.722656 95 151.628906 L 94.519531 152.984375 L 97.804688 154.433594 L 99.515625 150.96875 L 100.304688 149.390625 L 96.839844 147.902344 M 89.65625 144 L 88.824219 143.429688 L 88.515625 143.867188 L 86.414062 146.804688 L 88.824219 148.996094 L 89.699219 149.742188 L 91.628906 145.183594 L 89.65625 144 M 84.570312 140.273438 L 84.179688 139.96875 L 83.738281 140.886719 L 85.40625 146.105469 C 85.492188 145.226562 86.078125 143.957031 87.15625 142.289062 L 84.570312 140.273438 M 89.171875 151.011719 C 87.945312 150.222656 86.996094 149.507812 86.324219 148.867188 L 88.078125 153.644531 L 88.121094 153.644531 L 89.171875 151.011719 M 88.605469 155.617188 L 88.777344 156.753906 L 89.523438 159.429688 L 90.925781 156.582031 C 90.050781 156.140625 89.363281 155.746094 88.867188 155.398438 L 88.605469 155.617188 M 89.65625 154.257812 L 91.582031 155.222656 L 92.679688 153.074219 L 92.589844 153.03125 L 90.707031 151.976562 L 89.65625 154.257812 M 90.09375 161.488281 L 91.058594 165.304688 L 91.058594 165.390625 L 91.539062 166.355469 L 92.855469 163.332031 L 90.136719 161.445312 L 90.09375 161.488281 M 93.203125 156.054688 L 95.921875 157.414062 L 96.449219 156.582031 L 97.28125 155.351562 C 96.34375 154.886719 95.324219 154.375 94.210938 153.820312 L 93.203125 156.054688 M 94.386719 158.203125 L 92.546875 157.371094 L 92.371094 157.675781 L 90.839844 160.4375 L 93.511719 161.929688 L 95.21875 158.597656 L 94.386719 158.203125 M 92.808594 169.117188 L 94.34375 172.492188 L 94.300781 172.1875 C 94.300781 171.894531 94.503906 171.382812 94.914062 170.652344 L 92.898438 169.117188 L 92.808594 169.117188 M 96.097656 172.140625 C 96.214844 172.347656 96.226562 172.667969 96.140625 173.105469 L 96.140625 173.457031 L 98.070312 173.019531 L 96.402344 171.792969 L 96.097656 172.140625 M 95.613281 169.511719 L 97.585938 166.488281 L 94.738281 164.601562 C 94.152344 165.859375 93.613281 166.792969 93.117188 167.40625 C 93.527344 167.554688 93.714844 167.890625 93.6875 168.414062 L 95.613281 169.511719 M 98.507812 165.214844 L 101.265625 161.359375 L 96.886719 159.34375 L 95.394531 163.113281 L 98.507812 165.214844 M 94.695312 173.324219 L 94.871094 172.976562 C 94.78125 172.945312 94.652344 172.886719 94.476562 172.800781 L 94.695312 173.324219 "/>
</g>
</svg>
