<?xml version="1.0" encoding="UTF-8"?>
<svg xmlns="http://www.w3.org/2000/svg" xmlns:xlink="http://www.w3.org/1999/xlink" width="17px" height="11px" viewBox="0 0 17 11" version="1.1">
<g id="surface1">
<path style=" stroke:none;fill-rule:evenodd;fill:rgb(0%,0%,0%);fill-opacity:1;" d="M 11.074219 5.761719 L 10.855469 5.6875 L 10.339844 5.761719 L 3.644531 5.460938 L 3.203125 5.089844 L 2.613281 4.265625 L 2.390625 3.515625 L 2.390625 3.441406 L 2.246094 3.21875 L 5.113281 3.515625 L 5.777344 3.515625 L 7.691406 3.964844 L 9.089844 3.890625 C 10.609375 4.488281 11.371094 5.011719 11.371094 5.460938 L 11.074219 5.761719 M 8.648438 4.566406 L 7.101562 4.339844 L 4.304688 4.265625 L 3.644531 4.191406 L 3.570312 4.488281 L 3.570312 4.714844 L 3.644531 4.714844 L 8.425781 5.011719 L 10.117188 5.164062 L 9.824219 4.9375 L 8.867188 4.566406 L 8.648438 4.566406 M 6.585938 8.457031 L 7.027344 8.457031 L 8.351562 8.605469 L 8.351562 8.679688 C 8.351562 9.03125 7.542969 9.203125 5.925781 9.203125 L 5.703125 9.054688 C 5.3125 8.953125 5.113281 8.753906 5.113281 8.457031 L 5.484375 8.15625 L 6.585938 8.457031 "/>
<path style=" stroke:none;fill-rule:evenodd;fill:rgb(100%,100%,100%);fill-opacity:1;" d="M 8.648438 4.566406 L 8.867188 4.566406 L 9.824219 4.9375 L 10.117188 5.164062 L 8.425781 5.011719 L 3.644531 4.714844 L 3.570312 4.714844 L 3.570312 4.488281 L 3.644531 4.191406 L 4.304688 4.265625 L 7.101562 4.339844 L 8.648438 4.566406 M 9.75 8.15625 C 8.917969 8.15625 8.5 7.90625 8.5 7.40625 C 8.5 6.558594 8.941406 6.136719 9.824219 6.136719 C 10.460938 6.136719 10.78125 6.535156 10.78125 7.332031 C 10.78125 7.882812 10.4375 8.15625 9.75 8.15625 "/>
</g>
</svg>
