<?xml version="1.0" encoding="UTF-8"?>
<svg xmlns="http://www.w3.org/2000/svg" xmlns:xlink="http://www.w3.org/1999/xlink" width="17px" height="11px" viewBox="0 0 17 11" version="1.1">
<g id="surface1">
<path style=" stroke:none;fill-rule:evenodd;fill:rgb(0%,0%,0%);fill-opacity:1;" d="M 13.429688 5.613281 L 12.914062 5.761719 C 11.296875 5.214844 10.21875 4.9375 9.675781 4.9375 L 7.175781 5.238281 L 6.953125 5.238281 L 6.734375 5.386719 L 4.15625 5.238281 C 3.078125 5.136719 2.269531 5.289062 1.730469 5.6875 L 0.917969 6.210938 L 0.476562 6.136719 L 0.332031 5.761719 C 0.332031 4.964844 1.703125 4.566406 4.453125 4.566406 L 6.660156 4.714844 C 6.757812 4.316406 7.296875 4.117188 8.277344 4.117188 C 10.976562 4.117188 12.695312 4.488281 13.429688 5.238281 L 13.429688 5.613281 M 12.179688 6.433594 L 12.253906 6.734375 L 12.105469 6.882812 L 12.179688 7.707031 C 12.082031 9.355469 11.835938 10.175781 11.445312 10.175781 C 10.953125 10.175781 10.488281 9.378906 10.046875 7.78125 L 7.394531 8.304688 L 4.378906 8.082031 C 3.203125 10.027344 2.367188 11 1.875 11 C 1.632812 11 1.53125 10.75 1.582031 10.25 L 1.804688 7.855469 L 1.65625 7.558594 C 1.65625 7.257812 1.976562 7.109375 2.613281 7.109375 L 7.394531 7.40625 C 10.144531 7.40625 11.542969 7.058594 11.589844 6.359375 L 12.179688 6.433594 M 11.8125 7.109375 L 10.488281 7.632812 L 11.371094 9.355469 L 11.445312 9.355469 L 11.8125 7.109375 M 2.023438 9.652344 L 2.023438 10.402344 L 3.347656 9.128906 L 3.9375 8.082031 L 2.171875 7.933594 L 2.171875 8.082031 L 2.023438 9.652344 "/>
<path style=" stroke:none;fill-rule:evenodd;fill:rgb(80.000001%,80.000001%,80.000001%);fill-opacity:1;" d="M 2.023438 9.652344 L 2.171875 8.082031 L 2.171875 7.933594 L 3.9375 8.082031 L 3.347656 9.128906 L 2.023438 10.402344 L 2.023438 9.652344 M 11.8125 7.109375 L 11.445312 9.355469 L 11.371094 9.355469 L 10.488281 7.632812 L 11.8125 7.109375 "/>
</g>
</svg>
