<?xml version="1.0" encoding="UTF-8"?>
<svg xmlns="http://www.w3.org/2000/svg" xmlns:xlink="http://www.w3.org/1999/xlink" width="532px" height="530px" viewBox="0 0 532 530" version="1.1">
<g id="surface1">
<path style=" stroke:none;fill-rule:evenodd;fill:rgb(0%,0%,0%);fill-opacity:1;" d="M 241.238281 195.347656 C 240.832031 194.90625 240.632812 194.519531 240.632812 194.199219 L 240.691406 193.835938 C 240.449219 192.742188 239.925781 191.53125 239.117188 190.199219 C 237.949219 188.300781 236.839844 187.351562 235.789062 187.351562 C 232.722656 187.351562 230.398438 188.664062 228.824219 191.289062 L 228.28125 192.378906 L 228.339844 191.53125 L 227.976562 191.53125 L 227.976562 192.925781 C 227.535156 193.894531 227.3125 194.804688 227.3125 195.652344 C 227.3125 196.703125 228.058594 198.097656 229.550781 199.832031 C 231.410156 202.015625 233.507812 203.105469 235.847656 203.105469 C 236.898438 203.105469 237.726562 202.578125 238.332031 201.53125 C 238.976562 200.480469 239.5625 199.953125 240.085938 199.953125 L 240.511719 200.074219 L 241.660156 198.863281 L 241.660156 198.984375 L 242.207031 199.226562 L 242.507812 198.863281 L 241.964844 198.621094 L 241.84375 198.683594 C 242.449219 197.914062 242.75 197.226562 242.75 196.621094 L 241.78125 195.894531 L 242.023438 195.589844 C 241.902344 195.46875 241.640625 195.390625 241.238281 195.347656 M 232.214844 198.316406 C 231.367188 197.589844 230.945312 196.519531 230.945312 195.105469 C 230.945312 192.523438 231.972656 191.230469 234.03125 191.230469 C 237.421875 191.230469 239.097656 192.925781 239.058594 196.320312 L 239.058594 196.441406 C 239.019531 198.378906 237.96875 199.347656 235.910156 199.347656 L 233.488281 199.046875 L 233.546875 198.863281 L 232.214844 198.316406 M 235.242188 185.535156 C 238.917969 185.535156 241.378906 188.179688 242.628906 193.472656 L 242.628906 193.53125 C 243.558594 193.894531 244.183594 194.84375 244.507812 196.378906 C 243.699219 200.257812 242.449219 202.195312 240.753906 202.195312 L 240.511719 202.195312 L 239.785156 203.226562 C 238.777344 204.398438 237.566406 204.984375 236.152344 204.984375 C 232.480469 204.984375 229.632812 203.527344 227.617188 200.621094 C 226.242188 198.640625 225.558594 196.925781 225.558594 195.46875 C 225.558594 193.933594 226.222656 192.117188 227.554688 190.015625 C 229.453125 187.027344 232.015625 185.535156 235.242188 185.535156 M 265.335938 195.957031 C 266.421875 195.957031 267.390625 199.914062 268.238281 207.832031 L 268.238281 208.375 L 268.179688 208.738281 L 268.480469 209.347656 C 268.480469 209.871094 263.78125 211.566406 254.375 214.4375 L 253.953125 214.4375 C 253.226562 214.4375 252.378906 213.789062 251.410156 212.496094 L 250.136719 210.4375 C 250.136719 209.910156 250.480469 209.648438 251.167969 209.648438 L 251.46875 209.710938 L 254.558594 207.40625 L 258.917969 204.195312 L 258.554688 203.710938 C 258.554688 203.308594 258.773438 203.085938 259.21875 203.042969 L 259.402344 199.894531 C 259.402344 198.804688 259.542969 198.015625 259.824219 197.53125 L 259.644531 197.347656 L 259.582031 196.984375 C 259.582031 196.296875 260.710938 195.957031 262.972656 195.957031 L 264.910156 196.136719 L 265.335938 195.957031 M 261.398438 198.195312 L 261.761719 198.015625 L 262.609375 197.710938 L 261.398438 197.710938 L 261.398438 198.195312 M 261.035156 203.46875 L 266.90625 207.347656 L 264.851562 198.742188 L 263.882812 199.167969 L 261.398438 200.015625 L 261.035156 203.46875 M 255.222656 209.40625 L 255.222656 212.800781 L 266.179688 208.984375 C 265.214844 208.617188 263.839844 207.8125 262.066406 206.558594 L 260.371094 205.347656 L 256.191406 208.738281 L 255.222656 209.40625 M 252.800781 210.921875 L 253.40625 211.648438 L 253.46875 210.558594 L 252.800781 210.921875 M 237.300781 196.136719 C 237.300781 194.117188 236.113281 193.105469 233.730469 193.105469 C 233.042969 193.105469 232.699219 193.773438 232.699219 195.105469 C 232.699219 195.46875 232.964844 195.933594 233.488281 196.5 C 234.09375 197.148438 234.738281 197.46875 235.425781 197.46875 C 236.675781 197.46875 237.300781 197.027344 237.300781 196.136719 "/>
<path style=" stroke:none;fill-rule:evenodd;fill:rgb(36.078432%,32.941177%,31.764707%);fill-opacity:1;" d="M 228.28125 192.378906 L 228.824219 191.289062 C 230.398438 188.664062 232.722656 187.351562 235.789062 187.351562 C 236.839844 187.351562 237.949219 188.300781 239.117188 190.199219 C 239.925781 191.53125 240.449219 192.742188 240.691406 193.835938 L 240.632812 194.199219 C 240.632812 194.519531 240.832031 194.90625 241.238281 195.347656 L 240.933594 195.347656 L 240.691406 195.410156 L 240.691406 195.53125 C 239.601562 195.570312 239.058594 195.875 239.058594 196.441406 L 239.058594 196.320312 C 239.097656 192.925781 237.421875 191.230469 234.03125 191.230469 C 231.972656 191.230469 230.945312 192.523438 230.945312 195.105469 C 230.945312 196.519531 231.367188 197.589844 232.214844 198.316406 C 230.882812 197.632812 229.855469 196.722656 229.128906 195.589844 C 228.484375 194.5 228.199219 193.429688 228.28125 192.378906 M 261.035156 203.46875 L 261.398438 200.015625 L 263.882812 199.167969 L 264.851562 198.742188 L 266.90625 207.347656 L 261.035156 203.46875 M 261.398438 198.195312 L 261.398438 197.710938 L 262.609375 197.710938 L 261.761719 198.015625 L 261.398438 198.195312 "/>
<path style=" stroke:none;fill-rule:evenodd;fill:rgb(17.254902%,20%,16.862746%);fill-opacity:1;" d="M 228.28125 192.378906 C 228.199219 193.429688 228.484375 194.5 229.128906 195.589844 C 229.855469 196.722656 230.882812 197.632812 232.214844 198.316406 L 233.546875 198.863281 L 233.488281 199.046875 L 235.910156 199.347656 C 237.96875 199.347656 239.019531 198.378906 239.058594 196.441406 C 239.058594 195.875 239.601562 195.570312 240.691406 195.53125 L 240.691406 195.410156 L 240.933594 195.347656 L 241.238281 195.347656 C 241.640625 195.390625 241.902344 195.46875 242.023438 195.589844 L 241.78125 195.894531 L 242.75 196.621094 C 242.75 197.226562 242.449219 197.914062 241.84375 198.683594 L 241.964844 198.621094 L 242.507812 198.863281 L 242.207031 199.226562 L 241.660156 198.984375 L 241.660156 198.863281 L 240.511719 200.074219 L 240.085938 199.953125 C 239.5625 199.953125 238.976562 200.480469 238.332031 201.53125 C 237.726562 202.578125 236.898438 203.105469 235.847656 203.105469 C 233.507812 203.105469 231.410156 202.015625 229.550781 199.832031 C 228.058594 198.097656 227.3125 196.703125 227.3125 195.652344 C 227.3125 194.804688 227.535156 193.894531 227.976562 192.925781 L 227.976562 191.53125 L 228.339844 191.53125 L 228.28125 192.378906 M 252.800781 210.921875 L 253.46875 210.558594 L 253.40625 211.648438 L 252.800781 210.921875 M 255.222656 209.40625 L 256.191406 208.738281 L 260.371094 205.347656 L 262.066406 206.558594 C 263.839844 207.8125 265.214844 208.617188 266.179688 208.984375 L 255.222656 212.800781 L 255.222656 209.40625 "/>
</g>
</svg>
