<?xml version="1.0" encoding="UTF-8"?>
<svg xmlns="http://www.w3.org/2000/svg" xmlns:xlink="http://www.w3.org/1999/xlink" width="532px" height="530px" viewBox="0 0 532 530" version="1.1">
<g id="surface1">
<path style=" stroke:none;fill-rule:evenodd;fill:rgb(0%,0%,0%);fill-opacity:1;" d="M 188.082031 190.199219 C 188.082031 189.1875 200.230469 186.582031 224.527344 182.382812 C 224.929688 182.382812 225.214844 182.542969 225.375 182.867188 L 225.617188 182.808594 C 226.789062 182.808594 229.453125 184.5625 233.609375 188.078125 C 236.839844 190.097656 238.9375 191.550781 239.90625 192.441406 C 240.390625 192.035156 240.933594 191.835938 241.539062 191.835938 C 243.316406 191.835938 244.183594 193.429688 244.144531 196.621094 C 244.144531 200.5 242.769531 202.4375 240.027344 202.4375 C 239.421875 202.4375 238.917969 202.214844 238.511719 201.773438 C 237.785156 202.378906 234.800781 203.308594 229.550781 204.558594 L 224.347656 206.378906 C 224.347656 206.902344 223.941406 207.164062 223.136719 207.164062 C 221.359375 207.164062 209.675781 201.773438 188.082031 190.988281 L 188.203125 190.683594 L 188.082031 190.199219 M 218.535156 185.230469 L 206.847656 186.925781 L 194.253906 190.015625 L 205.09375 192.804688 C 212.238281 194.785156 219.625 195.996094 227.253906 196.441406 L 227.796875 195.773438 C 227.109375 194.84375 226.34375 193.207031 225.496094 190.867188 C 224.769531 188.925781 224.144531 186.96875 223.621094 184.988281 L 223.742188 184.199219 L 218.535156 185.230469 M 224.589844 183.898438 L 229.792969 195.53125 L 229.792969 195.710938 L 237.605469 196.804688 L 238.210938 194.984375 L 238.753906 193.835938 L 232.09375 189.289062 C 227.695312 186.261719 225.273438 184.421875 224.832031 183.777344 L 224.589844 183.898438 M 261.277344 202.800781 L 262.972656 204.4375 C 264.101562 205.851562 265.050781 206.558594 265.820312 206.558594 C 268.601562 206.558594 270.460938 204.800781 271.386719 201.289062 C 271.386719 200.640625 271.246094 199.953125 270.964844 199.226562 L 271.085938 198.441406 C 271.085938 197.875 270.78125 197.589844 270.175781 197.589844 L 270.054688 197.46875 C 268.84375 195.53125 267.148438 194.5625 264.972656 194.5625 C 263.597656 194.5625 262.628906 194.761719 262.066406 195.167969 L 261.21875 195.652344 L 261.21875 195.835938 L 260.613281 201.46875 L 260.492188 201.894531 L 260.550781 201.953125 L 260.429688 202.378906 L 261.277344 202.800781 M 268.421875 199.347656 L 268.480469 199.652344 L 268.664062 201.652344 C 268.664062 203.1875 267.777344 203.953125 266 203.953125 C 265.03125 203.953125 264.203125 203.449219 263.519531 202.4375 L 263.578125 202.074219 C 263.578125 201.710938 263.398438 201.449219 263.035156 201.289062 L 262.609375 200.195312 C 262.609375 197.894531 263.4375 196.742188 265.09375 196.742188 C 266.867188 196.742188 267.976562 197.613281 268.421875 199.347656 M 264.910156 198.742188 L 264.183594 200.257812 L 264.972656 201.46875 L 266.121094 202.257812 C 266.765625 202.257812 267.089844 201.972656 267.089844 201.410156 L 266.242188 199.894531 L 265.09375 198.742188 L 264.910156 198.742188 M 259.644531 195.53125 L 259.402344 195.046875 C 259.402344 194.761719 259.863281 194.359375 260.792969 193.835938 C 261.84375 193.230469 262.914062 192.925781 264.003906 192.925781 C 269.976562 192.925781 272.960938 195.734375 272.960938 201.347656 C 271.75 205.953125 269.511719 208.253906 266.242188 208.253906 C 264.828125 208.253906 263.234375 207.449219 261.460938 205.832031 C 259.925781 204.457031 259.160156 203.628906 259.160156 203.347656 L 259.28125 202.800781 L 259.160156 202.074219 L 259.160156 200.378906 L 259.28125 197.347656 L 259.644531 195.53125 M 241.175781 193.53125 C 240.652344 193.53125 240.128906 194.300781 239.601562 195.835938 C 239.199219 197.046875 238.996094 197.855469 238.996094 198.257812 L 239.480469 200.378906 L 240.148438 200.5 C 240.953125 200.5 241.742188 199.429688 242.507812 197.289062 L 242.207031 194.257812 L 242.023438 193.59375 L 241.175781 193.53125 M 237.785156 200.4375 L 237.363281 198.378906 L 237.421875 198.015625 L 236.394531 198.015625 L 231.246094 197.410156 L 229.128906 196.984375 L 223.316406 205.105469 L 228.039062 203.226562 C 232.800781 201.53125 236.070312 200.660156 237.847656 200.621094 L 237.785156 200.4375 M 223.679688 197.289062 C 220.613281 197.289062 214.539062 196.417969 205.457031 194.683594 L 194.800781 192.257812 L 207.695312 198.5625 L 216.476562 202.195312 L 221.984375 204.742188 L 224.769531 200.015625 L 226.648438 197.289062 L 223.679688 197.289062 "/>
<path style=" stroke:none;fill-rule:evenodd;fill:rgb(36.078432%,32.941177%,31.764707%);fill-opacity:1;" d="M 224.589844 183.898438 L 224.832031 183.777344 C 225.273438 184.421875 227.695312 186.261719 232.09375 189.289062 L 238.753906 193.835938 L 238.210938 194.984375 L 237.605469 196.804688 L 229.792969 195.710938 L 229.792969 195.53125 L 224.589844 183.898438 M 218.535156 185.230469 L 223.742188 184.199219 L 223.621094 184.988281 C 224.144531 186.96875 224.769531 188.925781 225.496094 190.867188 C 226.34375 193.207031 227.109375 194.84375 227.796875 195.773438 L 227.253906 196.441406 C 219.625 195.996094 212.238281 194.785156 205.09375 192.804688 L 194.253906 190.015625 L 206.847656 186.925781 L 218.535156 185.230469 M 261.277344 202.800781 L 260.429688 202.378906 L 260.550781 201.953125 L 260.734375 202.378906 L 261.339844 202.742188 L 261.277344 202.800781 M 260.613281 201.46875 L 261.21875 195.835938 L 261.21875 195.652344 L 262.066406 195.167969 C 262.628906 194.761719 263.597656 194.5625 264.972656 194.5625 C 267.148438 194.5625 268.84375 195.53125 270.054688 197.46875 L 270.175781 197.589844 C 269.855469 197.632812 269.472656 197.894531 269.027344 198.378906 L 268.421875 199.289062 L 268.421875 199.347656 C 267.976562 197.613281 266.867188 196.742188 265.09375 196.742188 C 263.4375 196.742188 262.609375 197.894531 262.609375 200.195312 L 263.035156 201.289062 L 261.519531 201.046875 C 261.035156 201.046875 260.734375 201.1875 260.613281 201.46875 "/>
<path style=" stroke:none;fill-rule:evenodd;fill:rgb(17.254902%,20%,16.862746%);fill-opacity:1;" d="M 270.175781 197.589844 C 270.78125 197.589844 271.085938 197.875 271.085938 198.441406 L 270.964844 199.226562 C 271.246094 199.953125 271.386719 200.640625 271.386719 201.289062 C 270.460938 204.800781 268.601562 206.558594 265.820312 206.558594 C 265.050781 206.558594 264.101562 205.851562 262.972656 204.4375 L 261.277344 202.800781 L 261.339844 202.742188 L 260.734375 202.378906 L 260.550781 201.953125 L 260.492188 201.894531 L 260.613281 201.46875 C 260.734375 201.1875 261.035156 201.046875 261.519531 201.046875 L 263.035156 201.289062 C 263.398438 201.449219 263.578125 201.710938 263.578125 202.074219 L 263.519531 202.4375 C 264.203125 203.449219 265.03125 203.953125 266 203.953125 C 267.777344 203.953125 268.664062 203.1875 268.664062 201.652344 L 268.480469 199.652344 L 268.421875 199.347656 L 268.421875 199.289062 L 269.027344 198.378906 C 269.472656 197.894531 269.855469 197.632812 270.175781 197.589844 M 237.847656 200.621094 C 236.070312 200.660156 232.800781 201.53125 228.039062 203.226562 L 223.316406 205.105469 L 229.128906 196.984375 L 231.246094 197.410156 L 236.394531 198.015625 L 237.421875 198.015625 L 237.363281 198.378906 L 237.785156 200.4375 L 237.847656 200.621094 M 241.175781 193.53125 L 242.023438 193.59375 L 242.207031 194.257812 L 242.507812 197.289062 C 241.742188 199.429688 240.953125 200.5 240.148438 200.5 L 239.480469 200.378906 L 238.996094 198.257812 C 238.996094 197.855469 239.199219 197.046875 239.601562 195.835938 C 240.128906 194.300781 240.652344 193.53125 241.175781 193.53125 M 223.679688 197.289062 L 226.648438 197.289062 L 224.769531 200.015625 L 221.984375 204.742188 L 216.476562 202.195312 L 207.695312 198.5625 L 194.800781 192.257812 L 205.457031 194.683594 C 214.539062 196.417969 220.613281 197.289062 223.679688 197.289062 "/>
</g>
</svg>
