<?xml version="1.0" encoding="UTF-8"?>
<svg xmlns="http://www.w3.org/2000/svg" xmlns:xlink="http://www.w3.org/1999/xlink" width="532px" height="530px" viewBox="0 0 532 530" version="1.1">
<g id="surface1">
<path style=" stroke:none;fill-rule:evenodd;fill:rgb(60.000002%,60.000002%,60.000002%);fill-opacity:1;" d="M 240.390625 195.410156 L 240.328125 195.835938 L 241.417969 197.953125 L 242.507812 197.347656 L 243.296875 196.683594 L 243.839844 197.46875 L 243.296875 198.074219 L 242.75 198.804688 L 241.660156 199.167969 L 240.753906 199.226562 L 240.632812 198.5 L 240.570312 198.378906 L 239.84375 196.378906 L 239.601562 195.957031 L 239.84375 195.53125 L 240.148438 195.410156 L 240.390625 195.410156 M 241.78125 195.53125 L 242.265625 196.257812 L 241.601562 196.742188 C 241.359375 196.5 241.238281 196.21875 241.238281 195.894531 C 241.238281 195.613281 241.417969 195.492188 241.78125 195.53125 M 239.964844 199.652344 L 240.085938 199.773438 L 240.269531 199.894531 L 241.78125 200.136719 L 241.902344 200.136719 L 241.78125 200.4375 L 242.023438 201.226562 L 242.085938 201.347656 L 241.78125 201.347656 C 240.773438 201.347656 240.1875 201.710938 240.027344 202.4375 C 239.503906 202.679688 239.238281 203.125 239.238281 203.773438 L 239.480469 204.742188 L 239.359375 205.769531 L 239.421875 206.5 L 239.359375 207.589844 L 239.421875 209.40625 C 239.582031 210.132812 239.925781 210.617188 240.449219 210.859375 L 240.390625 211.34375 L 129.714844 439.71875 L 129.472656 439.65625 C 129.152344 439.65625 128.160156 441.210938 126.507812 444.324219 C 124.570312 446.828125 123.136719 448.421875 122.207031 449.109375 C 118.777344 451.613281 116.234375 453.027344 114.578125 453.351562 L 107.800781 455.894531 L 117.304688 447.351562 C 122.59375 441.453125 125.234375 438.0625 125.234375 437.171875 L 124.8125 436.75 L 235.605469 208.679688 C 236.089844 208.316406 236.414062 207.8125 236.574219 207.164062 L 236.9375 206.011719 C 237.746094 205.40625 238.210938 204.417969 238.332031 203.042969 L 239.964844 199.652344 "/>
<path style=" stroke:none;fill-rule:evenodd;fill:rgb(0%,0%,0%);fill-opacity:1;" d="M 241.78125 195.53125 C 241.417969 195.492188 241.238281 195.613281 241.238281 195.894531 C 241.238281 196.21875 241.359375 196.5 241.601562 196.742188 L 242.265625 196.257812 L 241.78125 195.53125 M 243.296875 196.683594 L 242.507812 197.347656 L 241.417969 197.953125 L 240.328125 195.835938 L 240.390625 195.410156 L 242.570312 195.410156 L 243.296875 196.683594 M 239.601562 195.957031 L 239.84375 196.378906 L 240.570312 198.378906 L 240.632812 198.5 L 240.753906 199.226562 L 241.660156 199.167969 L 242.75 198.804688 L 241.902344 200.136719 L 241.78125 200.136719 L 240.269531 199.894531 L 240.085938 199.773438 L 239.964844 199.652344 L 239.058594 196.984375 L 239.601562 195.957031 M 124.8125 436.75 L 125.234375 437.171875 C 125.234375 438.0625 122.59375 441.453125 117.304688 447.351562 L 107.800781 455.894531 L 114.578125 453.351562 C 116.234375 453.027344 118.777344 451.613281 122.207031 449.109375 C 123.136719 448.421875 124.570312 446.828125 126.507812 444.324219 C 128.160156 441.210938 129.152344 439.65625 129.472656 439.65625 L 129.714844 439.71875 L 129.957031 440.082031 C 129.957031 441.332031 129.109375 442.910156 127.414062 444.808594 L 123.238281 449.472656 C 122.429688 450.605469 119.785156 452.160156 115.304688 454.136719 C 111.796875 455.714844 109.191406 456.664062 107.496094 456.988281 L 107.4375 456.988281 L 106.46875 457.410156 L 106.164062 457.230469 L 105.984375 457.53125 L 105.4375 457.109375 L 108.949219 451.53125 L 111.917969 446.078125 L 115.425781 439.355469 C 116.921875 436.484375 118.089844 435.050781 118.9375 435.050781 C 119.261719 435.050781 119.421875 435.214844 119.421875 435.535156 L 115.667969 441.109375 L 112.703125 446.6875 C 112.015625 447.734375 110.988281 449.574219 109.617188 452.199219 C 109.253906 452.5625 108.707031 453.308594 107.980469 454.441406 L 116.757812 446.625 C 118.453125 445.128906 120.191406 442.96875 121.964844 440.140625 C 123.378906 437.878906 124.289062 436.75 124.691406 436.75 L 124.8125 436.75 "/>
<path style=" stroke:none;fill-rule:evenodd;fill:rgb(40.000001%,40.000001%,40.000001%);fill-opacity:1;" d="M 239.964844 199.652344 L 238.332031 203.042969 L 238.332031 202.4375 L 238.148438 199.226562 L 238.148438 198.621094 L 238.875 197.226562 L 239.058594 196.984375 L 239.964844 199.652344 M 235.605469 208.679688 L 124.8125 436.75 L 124.691406 436.75 C 124.289062 436.75 123.378906 437.878906 121.964844 440.140625 C 120.191406 442.96875 118.453125 445.128906 116.757812 446.625 L 107.980469 454.441406 C 108.707031 453.308594 109.253906 452.5625 109.617188 452.199219 C 110.988281 449.574219 112.015625 447.734375 112.703125 446.6875 L 115.667969 441.109375 L 119.421875 435.535156 C 119.421875 435.214844 119.261719 435.050781 118.9375 435.050781 L 230.15625 208.316406 L 230.339844 208.558594 C 230.824219 209.203125 231.550781 209.527344 232.519531 209.527344 L 234.515625 209.164062 L 235.605469 208.679688 M 234.941406 202.984375 L 234.636719 203.285156 C 234.234375 203.285156 233.953125 203.085938 233.789062 202.679688 L 234.820312 201.710938 L 234.820312 202.316406 L 234.941406 202.984375 "/>
<path style="fill:none;stroke-width:1;stroke-linecap:round;stroke-linejoin:round;stroke:rgb(0%,0%,0%);stroke-opacity:1;stroke-miterlimit:4;" d="M 111.148897 7.200853 L 109.80044 9.998758 M 107.548712 14.650115 L 16.050462 202.851158 M 20.099057 205.300937 L 111.500528 16.848469 M 103.04848 14.350339 L 11.1986 201.448982 " transform="matrix(1.210875,0,0,1.211844,105.377393,190.926033)"/>
</g>
</svg>
