<?xml version="1.0" encoding="UTF-8"?>
<svg xmlns="http://www.w3.org/2000/svg" xmlns:xlink="http://www.w3.org/1999/xlink" width="532px" height="530px" viewBox="0 0 532 530" version="1.1">
<defs>
<linearGradient id="linear0" gradientUnits="userSpaceOnUse" x1="-819.200012" y1="0" x2="819.200012" y2="0" gradientTransform="matrix(1.210875,0,0,1.211844,105.377393,190.926033)">
<stop offset="0" style="stop-color:rgb(100%,100%,100%);stop-opacity:1;"/>
<stop offset="1" style="stop-color:rgb(0%,0%,0%);stop-opacity:1;"/>
</linearGradient>
</defs>
<g id="surface1">
<path style=" stroke:none;fill-rule:evenodd;fill:rgb(0%,0%,0%);fill-opacity:1;" d="M 241.359375 194.621094 L 241.359375 194.5 L 239.238281 194.199219 C 238.390625 194.199219 237.585938 194.480469 236.816406 195.046875 C 238.269531 195.25 240.691406 197.976562 244.082031 203.226562 L 244.75 202.195312 C 244.304688 202.035156 244.101562 201.507812 244.144531 200.621094 L 244.144531 198.621094 L 243.839844 198.074219 L 241.359375 194.621094 M 0.210938 363.675781 L 0.210938 361.007812 C 3.117188 358.058594 5.601562 356.363281 7.660156 355.917969 L 7.660156 355.070312 L 8.929688 353.796875 L 16.4375 348.164062 C 19.75 345.820312 22.050781 343.839844 23.339844 342.226562 C 28.0625 336.285156 31.351562 332.691406 33.210938 331.4375 L 33.210938 331.257812 L 41.140625 324.472656 C 45.460938 320.957031 48.425781 318.816406 50.039062 318.046875 C 50.847656 316.957031 53.835938 314.070312 59 309.382812 L 72.320312 297.871094 L 97.628906 276.785156 C 110.222656 266.402344 117.949219 259.394531 120.816406 255.757812 C 123.320312 252.570312 127.617188 248.285156 133.710938 242.914062 C 138.757812 238.472656 141.964844 235.925781 143.339844 235.28125 C 143.339844 234.753906 143.601562 234.492188 144.125 234.492188 C 145.175781 234.492188 147.09375 236.492188 149.878906 240.492188 L 155.992188 249.519531 C 158.574219 252.789062 161.582031 255.234375 165.011719 256.851562 C 167.839844 258.183594 171.449219 259.535156 175.851562 260.910156 L 177.847656 261.578125 L 178.574219 261.515625 L 182.996094 262.121094 C 196.03125 247.09375 204.789062 236.449219 209.269531 230.191406 L 221.5 213.949219 L 227.738281 204.074219 C 229.957031 200.558594 231.570312 198.582031 232.578125 198.136719 L 232.578125 197.953125 C 232.578125 197.226562 233.085938 196.257812 234.09375 195.046875 C 235.464844 193.351562 237.222656 192.5 239.359375 192.5 L 240.875 192.621094 L 241.480469 192.5 C 244.304688 192.5 245.941406 195.632812 246.382812 201.894531 C 246.382812 203.265625 246 204.113281 245.234375 204.4375 L 232.335938 221.28125 C 227.210938 228.390625 223.015625 233.824219 219.746094 237.582031 L 219.019531 238.429688 L 218.957031 238.492188 C 216.980469 240.632812 213.429688 245.15625 208.300781 252.0625 L 207.574219 253.03125 L 206.667969 254.246094 L 206.121094 254.972656 L 202.914062 259.273438 C 197.503906 266.625 194.011719 271.027344 192.4375 272.484375 L 192.4375 273.027344 C 192.238281 275.652344 194.011719 279.671875 197.765625 285.085938 C 203.09375 292.800781 209.148438 298.640625 215.929688 302.597656 L 221.621094 305.75 C 222.832031 306.515625 223.519531 307.285156 223.679688 308.050781 C 224.125 308.132812 224.347656 308.375 224.347656 308.777344 L 213.328125 322.894531 L 206.910156 331.558594 L 202.730469 336.648438 L 202.609375 337.074219 L 201.945312 337.195312 L 201.882812 337.195312 C 199.785156 340.832031 198.152344 342.648438 196.980469 342.648438 L 196.132812 342.285156 L 191.289062 339.011719 C 188.140625 336.589844 186.183594 335.238281 185.417969 334.953125 C 183.722656 333.5 181.925781 332.328125 180.027344 331.4375 C 176.4375 329.78125 170.722656 328.953125 162.894531 328.953125 C 159.707031 328.953125 156.394531 329.519531 152.964844 330.652344 C 149.535156 331.742188 147.292969 332.289062 146.246094 332.289062 L 145.457031 332.226562 L 138.859375 338.527344 C 133.367188 343.941406 130.625 349.65625 130.625 355.675781 C 130.625 359.714844 131.066406 362.925781 131.957031 365.308594 C 133.046875 368.378906 135.328125 371.894531 138.796875 375.851562 C 143.316406 381.023438 148.503906 385.589844 154.355469 389.546875 C 158.917969 392.617188 161.199219 394.355469 161.199219 394.757812 C 161.199219 395.203125 161.058594 395.484375 160.773438 395.605469 L 155.144531 402.9375 L 147.273438 411.90625 C 146.265625 412.914062 143.78125 415.984375 139.828125 421.117188 C 136.839844 425.035156 135.003906 427.253906 134.316406 427.78125 L 128.625 434.628906 C 123.460938 440.808594 119.019531 446.542969 115.304688 451.835938 L 96.660156 476.617188 C 93.226562 481.261719 87.878906 488.171875 80.613281 497.339844 L 77.222656 501.523438 L 66.449219 516.304688 L 59.546875 525.273438 C 60.109375 525.433594 60.394531 525.699219 60.394531 526.0625 C 60.394531 526.546875 60.109375 526.808594 59.546875 526.847656 L 48.464844 526.847656 L 36.660156 526.667969 C 35.609375 527.433594 32.664062 528.121094 27.820312 528.726562 L 7.660156 530 L 7.660156 529.515625 L 0.210938 529.515625 L 0.210938 528.363281 L 7.660156 528.605469 L 7.660156 528.183594 L 14.5 528.0625 L 18.859375 527.394531 L 25.15625 526.726562 L 30.726562 526.242188 C 32.261719 525.554688 33.714844 525.191406 35.085938 525.152344 L 35.027344 524.667969 L 46.589844 510.851562 C 50.828125 504.671875 54.015625 500.167969 56.15625 497.339844 L 56.214844 497.21875 L 76.253906 469.890625 C 83.277344 460.601562 92.078125 449.472656 102.652344 436.507812 C 110.523438 426.851562 115.851562 420.53125 118.636719 417.539062 C 118.433594 417.417969 118.332031 417.199219 118.332031 416.875 C 121.722656 414.046875 125.699219 409.703125 130.261719 403.847656 L 135.710938 396.152344 C 137.769531 393.445312 139.484375 391.75 140.855469 391.0625 C 139.402344 389.972656 137.164062 387.832031 134.136719 384.640625 C 129.414062 379.710938 126.304688 375.832031 124.8125 373.003906 C 120.777344 365.53125 118.757812 359.148438 118.757812 353.859375 C 118.757812 347.636719 121.746094 340.789062 127.71875 333.316406 C 129.9375 330.449219 133.609375 327.078125 138.738281 323.199219 C 140.554688 321.785156 143.824219 320.433594 148.546875 319.140625 C 153.832031 317.683594 159.5625 316.714844 165.738281 316.230469 L 169.917969 316.109375 C 173.710938 316.109375 178.472656 316.675781 184.207031 317.804688 C 188.808594 318.734375 191.832031 319.683594 193.285156 320.652344 L 193.589844 320.351562 L 193.710938 320.289062 L 193.648438 320.046875 C 197.402344 316.695312 200.332031 313.34375 202.429688 309.988281 C 205.941406 304.496094 208.464844 301.34375 209.996094 300.539062 L 206.121094 297.628906 C 204.628906 296.457031 202.832031 294.457031 200.734375 291.628906 L 195.890625 285.390625 C 193.710938 283.207031 192.238281 281.1875 191.46875 279.328125 C 191.148438 278.5625 190.984375 277.53125 190.984375 276.238281 L 190.863281 273.210938 C 190.542969 271.757812 189.25 269.714844 186.992188 267.089844 C 185.902344 265.796875 183.820312 264.648438 180.753906 263.636719 L 180.089844 263.453125 L 178.816406 263.699219 C 175.226562 263.699219 170.480469 261.898438 164.589844 258.304688 C 159.503906 255.195312 156.171875 252.589844 154.597656 250.488281 L 144.1875 236.671875 L 136.132812 243.339844 C 129.472656 248.792969 124.691406 253.375 121.785156 257.09375 C 118.433594 261.335938 110.765625 268.300781 98.777344 277.996094 L 86.609375 288.417969 C 81.402344 292.984375 77.023438 296.519531 73.472656 299.023438 C 70.160156 301.367188 65.863281 304.777344 60.574219 309.261719 C 59.605469 309.949219 57.710938 311.886719 54.882812 315.078125 L 51.796875 318.472656 L 51.796875 318.535156 C 51.796875 319.300781 48.628906 321.746094 42.289062 325.863281 L 38.597656 329.257812 L 35.269531 331.683594 C 35.269531 333.902344 26.8125 341.71875 9.898438 355.132812 L 7.660156 357.492188 L 7.660156 356.886719 L 7.417969 357.128906 L 3.84375 360.464844 L 0.210938 363.675781 M 243.234375 204.257812 L 235.789062 196.078125 L 235.304688 196.621094 L 233.789062 198.742188 L 233.789062 198.863281 L 232.761719 201.046875 L 233.789062 200.863281 C 235.527344 200.863281 238.65625 202.015625 243.175781 204.316406 L 243.234375 204.257812 M 232.335938 201.710938 L 232.277344 201.710938 L 232.398438 201.710938 L 232.335938 201.710938 M 239.664062 208.496094 L 231.550781 202.863281 L 228.703125 206.863281 L 228.886719 206.863281 C 232.117188 206.863281 234.679688 208.738281 236.574219 212.496094 L 239.664062 208.496094 M 228.039062 207.832031 L 226.042969 210.558594 C 227.976562 211.003906 229.792969 213.949219 231.488281 219.40625 L 233.125 217.164062 L 235.425781 214.011719 L 234.757812 212.980469 L 233.425781 210.679688 C 233.023438 210.273438 231.953125 209.730469 230.21875 209.042969 C 228.96875 208.558594 228.242188 208.15625 228.039062 207.832031 M 228.644531 216.496094 L 225.011719 211.953125 L 222.652344 215.101562 L 221.320312 216.859375 L 221.925781 216.738281 C 224.425781 216.738281 226.648438 217.484375 228.582031 218.980469 L 229.671875 219.890625 L 229.550781 219.585938 L 228.644531 216.496094 M 235.121094 202.742188 C 236.617188 203.671875 238.390625 205.246094 240.449219 207.46875 L 242.207031 205.347656 L 235.121094 202.742188 M 220.835938 217.464844 L 218.230469 220.917969 C 219.722656 221.445312 221.722656 224.210938 224.226562 229.21875 L 229.25 222.496094 L 228.703125 221.886719 L 227.191406 220.191406 C 222.953125 218.699219 220.835938 217.828125 220.835938 217.585938 L 220.835938 217.464844 M 218.59375 223.949219 L 217.140625 222.375 L 214.234375 226.128906 C 216.980469 226.171875 219.300781 226.976562 221.199219 228.554688 L 220.652344 226.3125 C 220.53125 225.90625 219.84375 225.121094 218.59375 223.949219 M 221.015625 231.402344 L 219.804688 229.703125 L 213.386719 227.34375 L 213.023438 227.828125 L 214.175781 229.039062 C 215.707031 229.765625 217.34375 232.046875 219.078125 235.886719 L 221.863281 232.371094 L 221.015625 231.402344 M 210.359375 231.339844 L 208.484375 233.886719 C 210.015625 233.886719 211.570312 234.671875 213.144531 236.25 L 210.84375 230.734375 L 210.359375 231.339844 M 211.996094 229.160156 L 211.996094 229.21875 L 212.054688 229.28125 L 211.996094 229.160156 M 213.023438 239.097656 L 211.996094 237.398438 L 207.695312 234.976562 L 205.335938 238.128906 C 207.554688 238.25 209.976562 240.125 212.601562 243.761719 L 215.023438 240.613281 L 214.78125 240.613281 C 214.253906 240.613281 213.671875 240.105469 213.023438 239.097656 M 204.304688 239.460938 L 203.035156 241.15625 C 205.011719 241.441406 206.667969 244.429688 208 250.125 L 210.664062 246.367188 L 211.753906 244.914062 L 210.664062 243.761719 L 208.96875 242.003906 L 204.304688 239.460938 M 205.515625 247.457031 L 202.003906 242.429688 L 197.828125 247.578125 L 198.128906 247.578125 C 200.429688 247.578125 202.53125 248.507812 204.425781 250.367188 L 206.242188 252.488281 L 206.789062 251.761719 L 206.484375 250.730469 L 205.515625 247.457031 M 217.808594 237.339844 L 213.507812 231.28125 C 214.316406 233.015625 215.144531 235.722656 215.992188 239.398438 L 217.6875 237.460938 L 217.808594 237.339844 M 205.152344 253.882812 L 203.15625 251.277344 C 201.179688 249.5 199.441406 248.527344 197.949219 248.367188 L 197.039062 248.488281 L 194.859375 250.914062 C 197.082031 251.355469 198.777344 254.042969 199.945312 258.972656 L 199.703125 259.878906 L 199.886719 260.183594 L 204.367188 254.789062 L 205.152344 253.882812 M 124.992188 435.777344 C 129.433594 430.246094 132.320312 427.132812 133.652344 426.449219 C 134.257812 425.355469 135.871094 423.15625 138.496094 419.84375 C 142.007812 415.398438 144.570312 412.371094 146.183594 410.753906 L 153.628906 401.542969 C 156.09375 398.351562 157.867188 396.273438 158.957031 395.304688 C 155.324219 393.769531 147.941406 387.347656 136.800781 376.035156 C 131.59375 370.785156 128.988281 363.996094 128.988281 355.675781 C 128.988281 350.789062 131.835938 344.769531 137.527344 337.621094 C 138.292969 336.609375 141.683594 333.621094 147.699219 328.652344 C 152.621094 324.492188 158.859375 322.390625 166.40625 322.351562 L 172.15625 322.351562 C 179.140625 322.351562 184.667969 323.339844 188.746094 325.320312 L 193.648438 328.832031 L 201.882812 335.378906 C 203.984375 332.429688 210.84375 323.664062 222.46875 309.082031 L 211.570312 301.628906 L 203.578125 311.140625 C 200.390625 316.632812 197.746094 319.847656 195.648438 320.773438 L 194.253906 322.109375 L 193.46875 322.894531 L 193.164062 322.894531 C 192.4375 322.894531 191.269531 322.472656 189.65625 321.625 L 186.566406 320.167969 L 176.941406 318.535156 L 169.796875 317.804688 C 156.355469 317.804688 146.003906 320.128906 138.738281 324.773438 C 136.355469 326.308594 134.238281 328.128906 132.378906 330.226562 L 129.230469 334.042969 C 127.132812 336.066406 125.136719 339.214844 123.238281 343.496094 C 121.339844 347.738281 120.390625 351.210938 120.390625 353.917969 C 120.390625 362.5625 124.207031 371.007812 131.835938 379.246094 L 139.644531 386.820312 C 142.027344 389 143.21875 390.414062 143.21875 391.0625 L 143.21875 391.484375 C 143.21875 392.375 140.996094 394.597656 136.558594 398.152344 L 131.53125 404.878906 L 126.144531 412.269531 C 124.449219 414.328125 122.957031 415.804688 121.664062 416.691406 L 119.605469 419.359375 L 119.484375 418.996094 C 119 418.996094 118.738281 419.460938 118.695312 420.390625 L 118.636719 420.511719 L 110.039062 430.265625 C 109.394531 430.953125 105.742188 435.496094 99.082031 443.898438 L 97.445312 446.019531 L 91.027344 454.078125 L 90.96875 454.078125 L 90.300781 454.988281 L 90.121094 455.230469 L 86.246094 460.015625 L 86.183594 460.078125 L 85.519531 460.925781 L 77.40625 471.226562 L 58.757812 497.339844 C 47.296875 513.09375 40.109375 522.304688 37.207031 524.972656 L 46.164062 524.851562 L 44.289062 524.910156 L 48.164062 524.910156 C 53.046875 524.910156 56.316406 524.972656 57.972656 525.09375 C 58.414062 523.800781 63.378906 516.992188 72.867188 504.671875 L 78.617188 497.339844 L 92.542969 479.34375 L 93.148438 478.496094 L 93.269531 478.375 L 95.265625 475.710938 L 96.71875 473.710938 L 96.78125 473.710938 C 97.304688 473.710938 97.566406 473.40625 97.566406 472.800781 L 97.507812 472.621094 L 103.378906 464.621094 L 103.378906 464.558594 L 104.046875 463.710938 L 104.226562 463.410156 L 116.457031 446.867188 L 124.085938 436.929688 L 124.328125 437.050781 C 124.773438 437.050781 124.992188 436.628906 124.992188 435.777344 M 189.109375 280.117188 L 189.292969 280.785156 C 189.292969 281.308594 185.234375 286.582031 177.121094 296.597656 C 169.9375 306.132812 162.613281 310.898438 155.144531 310.898438 C 153.609375 310.898438 152.761719 310.695312 152.601562 310.292969 L 152.902344 310.171875 C 154.316406 310.375 157.585938 309.484375 162.710938 307.503906 C 163.964844 307.019531 165.878906 305.6875 168.464844 303.507812 C 170.039062 302.496094 171.472656 301.203125 172.761719 299.628906 L 175.730469 295.75 L 182.570312 286.417969 C 184.910156 283.226562 186.585938 281.207031 187.597656 280.359375 L 188.324219 280.722656 C 188.726562 280.722656 188.988281 280.523438 189.109375 280.117188 M 193.710938 252.183594 L 189.59375 256.789062 L 189.714844 256.789062 C 192.902344 256.789062 195.488281 257.253906 197.464844 258.183594 L 198.128906 258.546875 L 197.039062 255.636719 L 193.710938 252.183594 M 192.074219 262.910156 L 186.808594 259.941406 L 184.449219 262.605469 C 186.425781 263.453125 188.140625 264.769531 189.59375 266.546875 C 190.683594 267.917969 191.46875 269.171875 191.953125 270.300781 L 194.4375 267.03125 L 193.40625 265.394531 L 192.074219 262.910156 M 196.3125 264.605469 L 198.855469 261.457031 L 197.644531 260.484375 C 196.839844 259.71875 196.152344 259.273438 195.585938 259.152344 L 188.445312 258.121094 L 187.898438 258.730469 C 190.117188 258.890625 192.035156 259.980469 193.648438 262 C 194.738281 263.375 195.40625 264.546875 195.648438 265.515625 L 196.3125 264.605469 M 169.796875 267.453125 C 169.796875 267.777344 167.332031 270.726562 162.410156 276.300781 L 158.535156 281.511719 C 156.757812 283.933594 155.667969 285.148438 155.265625 285.148438 L 154.539062 284.90625 L 154.476562 284.359375 C 154.476562 284.078125 156.636719 281.085938 160.957031 275.390625 C 165.394531 269.535156 167.960938 266.605469 168.644531 266.605469 C 169.453125 266.605469 169.835938 266.886719 169.796875 267.453125 M 186.75 333.984375 C 187.917969 334.589844 189.9375 335.882812 192.800781 337.863281 L 196.859375 340.890625 L 200.613281 336.589844 L 197.464844 334.226562 L 192.558594 330.105469 C 191.550781 328.976562 189.996094 327.925781 187.898438 326.957031 C 183.742188 324.976562 178.433594 323.988281 171.976562 323.988281 C 163.097656 323.988281 156.859375 324.816406 153.265625 326.472656 C 151.773438 327.15625 149.855469 328.492188 147.515625 330.46875 L 151.753906 329.320312 C 156.960938 327.945312 160.632812 327.257812 162.773438 327.257812 C 172.660156 327.257812 178.734375 328.167969 180.996094 329.984375 C 183.015625 331.683594 184.933594 333.015625 186.75 333.984375 "/>
<path style=" stroke:none;fill-rule:evenodd;fill:rgb(29.803923%,34.509805%,32.941177%);fill-opacity:1;" d="M 241.359375 194.621094 L 243.839844 198.074219 L 244.144531 198.621094 L 244.144531 200.621094 C 244.101562 201.507812 244.304688 202.035156 244.75 202.195312 L 244.082031 203.226562 C 240.691406 197.976562 238.269531 195.25 236.816406 195.046875 C 237.585938 194.480469 238.390625 194.199219 239.238281 194.199219 L 241.359375 194.5 L 241.359375 194.621094 M 205.152344 253.882812 L 204.367188 254.789062 L 199.886719 260.183594 L 199.703125 259.878906 L 199.945312 258.972656 C 198.777344 254.042969 197.082031 251.355469 194.859375 250.914062 L 197.039062 248.488281 L 197.949219 248.367188 C 199.441406 248.527344 201.179688 249.5 203.15625 251.277344 L 205.152344 253.882812 M 217.808594 237.339844 L 217.6875 237.460938 L 215.992188 239.398438 C 215.144531 235.722656 214.316406 233.015625 213.507812 231.28125 L 217.808594 237.339844 M 205.515625 247.457031 L 206.484375 250.730469 L 206.789062 251.761719 L 206.242188 252.488281 L 204.425781 250.367188 C 202.53125 248.507812 200.429688 247.578125 198.128906 247.578125 L 197.828125 247.578125 L 202.003906 242.429688 L 205.515625 247.457031 M 204.304688 239.460938 L 208.96875 242.003906 L 210.664062 243.761719 L 211.753906 244.914062 L 210.664062 246.367188 L 208 250.125 C 206.667969 244.429688 205.011719 241.441406 203.035156 241.15625 L 204.304688 239.460938 M 213.023438 239.097656 C 213.671875 240.105469 214.253906 240.613281 214.78125 240.613281 L 215.023438 240.613281 L 212.601562 243.761719 C 209.976562 240.125 207.554688 238.25 205.335938 238.128906 L 207.695312 234.976562 L 211.996094 237.398438 L 213.023438 239.097656 M 211.996094 229.160156 L 212.054688 229.28125 L 211.996094 229.21875 L 211.996094 229.160156 M 210.359375 231.339844 L 210.84375 230.734375 L 213.144531 236.25 C 211.570312 234.671875 210.015625 233.886719 208.484375 233.886719 L 210.359375 231.339844 M 221.015625 231.402344 L 221.863281 232.371094 L 219.078125 235.886719 C 217.34375 232.046875 215.707031 229.765625 214.175781 229.039062 L 213.023438 227.828125 L 213.386719 227.34375 L 219.804688 229.703125 L 221.015625 231.402344 M 218.59375 223.949219 C 219.84375 225.121094 220.53125 225.90625 220.652344 226.3125 L 221.199219 228.554688 C 219.300781 226.976562 216.980469 226.171875 214.234375 226.128906 L 217.140625 222.375 L 218.59375 223.949219 M 220.835938 217.464844 L 220.835938 217.585938 C 220.835938 217.828125 222.953125 218.699219 227.191406 220.191406 L 228.703125 221.886719 L 229.25 222.496094 L 224.226562 229.21875 C 221.722656 224.210938 219.722656 221.445312 218.230469 220.917969 L 220.835938 217.464844 M 235.121094 202.742188 L 242.207031 205.347656 L 240.449219 207.46875 C 238.390625 205.246094 236.617188 203.671875 235.121094 202.742188 M 228.644531 216.496094 L 229.550781 219.585938 L 229.671875 219.890625 L 228.582031 218.980469 C 226.648438 217.484375 224.425781 216.738281 221.925781 216.738281 L 221.320312 216.859375 L 222.652344 215.101562 L 225.011719 211.953125 L 228.644531 216.496094 M 228.039062 207.832031 C 228.242188 208.15625 228.96875 208.558594 230.21875 209.042969 C 231.953125 209.730469 233.023438 210.273438 233.425781 210.679688 L 234.757812 212.980469 L 235.425781 214.011719 L 233.125 217.164062 L 231.488281 219.40625 C 229.792969 213.949219 227.976562 211.003906 226.042969 210.558594 L 228.039062 207.832031 M 239.664062 208.496094 L 236.574219 212.496094 C 234.679688 208.738281 232.117188 206.863281 228.886719 206.863281 L 228.703125 206.863281 L 231.550781 202.863281 L 239.664062 208.496094 M 232.335938 201.710938 L 232.398438 201.710938 L 232.277344 201.710938 L 232.335938 201.710938 M 243.234375 204.257812 L 243.175781 204.316406 C 238.65625 202.015625 235.527344 200.863281 233.789062 200.863281 L 232.761719 201.046875 L 233.789062 198.863281 L 233.789062 198.742188 L 235.304688 196.621094 L 235.789062 196.078125 L 243.234375 204.257812 M 152.601562 310.292969 L 151.390625 310.414062 C 149.855469 310.414062 148.464844 309.890625 147.214844 308.839844 C 146.203125 307.988281 145.699219 307.34375 145.699219 306.898438 C 145.699219 306.292969 146.324219 305.992188 147.578125 305.992188 C 154.316406 305.992188 161.441406 300.71875 168.949219 290.175781 L 176.636719 281.996094 L 183.480469 274.117188 C 185.78125 274.117188 187.65625 275.976562 189.109375 279.695312 L 189.109375 280.117188 C 188.988281 280.523438 188.726562 280.722656 188.324219 280.722656 L 187.597656 280.359375 C 186.585938 281.207031 184.910156 283.226562 182.570312 286.417969 L 175.730469 295.75 L 172.761719 299.628906 C 171.472656 301.203125 170.039062 302.496094 168.464844 303.507812 C 165.878906 305.6875 163.964844 307.019531 162.710938 307.503906 C 157.585938 309.484375 154.316406 310.375 152.902344 310.171875 L 152.601562 310.292969 M 196.3125 264.605469 L 195.648438 265.515625 C 195.40625 264.546875 194.738281 263.375 193.648438 262 C 192.035156 259.980469 190.117188 258.890625 187.898438 258.730469 L 188.445312 258.121094 L 195.585938 259.152344 C 196.152344 259.273438 196.839844 259.71875 197.644531 260.484375 L 198.855469 261.457031 L 196.3125 264.605469 M 192.074219 262.910156 L 193.40625 265.394531 L 194.4375 267.03125 L 191.953125 270.300781 C 191.46875 269.171875 190.683594 267.917969 189.59375 266.546875 C 188.140625 264.769531 186.425781 263.453125 184.449219 262.605469 L 186.808594 259.941406 L 192.074219 262.910156 M 193.710938 252.183594 L 197.039062 255.636719 L 198.128906 258.546875 L 197.464844 258.183594 C 195.488281 257.253906 192.902344 256.789062 189.714844 256.789062 L 189.59375 256.789062 L 193.710938 252.183594 "/>
<path style=" stroke:none;fill-rule:evenodd;fill:rgb(64.705884%,67.058825%,66.274512%);fill-opacity:1;" d="M 119.605469 419.359375 L 121.664062 416.691406 C 122.957031 415.804688 124.449219 414.328125 126.144531 412.269531 L 131.53125 404.878906 L 136.558594 398.152344 C 140.996094 394.597656 143.21875 392.375 143.21875 391.484375 L 143.21875 391.0625 C 143.21875 390.414062 142.027344 389 139.644531 386.820312 L 131.835938 379.246094 C 124.207031 371.007812 120.390625 362.5625 120.390625 353.917969 C 120.390625 351.210938 121.339844 347.738281 123.238281 343.496094 C 125.136719 339.214844 127.132812 336.066406 129.230469 334.042969 L 132.378906 330.226562 C 134.238281 328.128906 136.355469 326.308594 138.738281 324.773438 C 146.003906 320.128906 156.355469 317.804688 169.796875 317.804688 L 176.941406 318.535156 L 186.566406 320.167969 L 189.65625 321.625 C 191.269531 322.472656 192.4375 322.894531 193.164062 322.894531 L 193.46875 322.894531 L 194.253906 322.109375 L 195.648438 320.773438 C 197.746094 319.847656 200.390625 316.632812 203.578125 311.140625 L 211.570312 301.628906 L 222.46875 309.082031 C 210.84375 323.664062 203.984375 332.429688 201.882812 335.378906 L 193.648438 328.832031 L 188.746094 325.320312 C 184.667969 323.339844 179.140625 322.351562 172.15625 322.351562 L 166.40625 322.351562 C 158.859375 322.390625 152.621094 324.492188 147.699219 328.652344 C 141.683594 333.621094 138.292969 336.609375 137.527344 337.621094 C 131.835938 344.769531 128.988281 350.789062 128.988281 355.675781 C 128.988281 363.996094 131.59375 370.785156 136.800781 376.035156 C 147.941406 387.347656 155.324219 393.769531 158.957031 395.304688 C 157.867188 396.273438 156.09375 398.351562 153.628906 401.542969 L 146.183594 410.753906 C 144.570312 412.371094 142.007812 415.398438 138.496094 419.84375 C 135.871094 423.15625 134.257812 425.355469 133.652344 426.449219 C 132.320312 427.132812 129.433594 430.246094 124.992188 435.777344 L 124.992188 435.71875 L 119.605469 419.359375 M 104.226562 463.410156 L 104.046875 463.710938 L 104.046875 463.289062 L 104.226562 463.410156 M 103.378906 464.558594 L 103.378906 464.621094 L 97.507812 472.621094 L 91.027344 454.078125 L 90.96875 454.078125 L 91.027344 454.078125 L 97.445312 446.019531 L 97.507812 446.019531 L 97.265625 446.929688 C 100.777344 458.683594 102.773438 464.558594 103.257812 464.558594 L 103.378906 464.558594 M 93.269531 478.375 L 93.148438 478.496094 L 93.148438 478.316406 L 93.269531 478.375 M 92.542969 479.34375 L 78.617188 497.339844 L 72.867188 504.671875 C 63.378906 516.992188 58.414062 523.800781 57.972656 525.09375 C 56.316406 524.972656 53.046875 524.910156 48.164062 524.910156 L 44.289062 524.910156 L 46.164062 524.851562 L 37.207031 524.972656 C 40.109375 522.304688 47.296875 513.09375 58.757812 497.339844 L 77.40625 471.226562 L 85.519531 460.925781 L 85.519531 461.105469 C 89.835938 473.265625 92.097656 479.34375 92.300781 479.34375 L 92.542969 479.34375 M 86.183594 460.078125 L 86.246094 460.015625 L 86.304688 460.078125 L 86.183594 460.078125 M 90.121094 455.230469 L 90.300781 454.988281 L 90.242188 455.289062 L 90.121094 455.230469 M 118.636719 420.511719 L 118.695312 420.390625 L 118.695312 420.570312 L 118.636719 420.511719 "/>
<path style=" stroke:none;fill-rule:evenodd;fill:rgb(100%,100%,100%);fill-opacity:1;" d="M 119.605469 419.359375 L 124.992188 435.71875 L 124.992188 435.777344 C 124.992188 436.628906 124.773438 437.050781 124.328125 437.050781 L 124.085938 436.929688 L 116.457031 446.867188 L 104.226562 463.410156 L 104.046875 463.289062 L 104.046875 463.710938 L 103.378906 464.558594 L 103.257812 464.558594 C 102.773438 464.558594 100.777344 458.683594 97.265625 446.929688 L 97.507812 446.019531 L 97.445312 446.019531 L 99.082031 443.898438 C 105.742188 435.496094 109.394531 430.953125 110.039062 430.265625 L 118.636719 420.511719 L 118.695312 420.570312 L 118.695312 420.390625 C 118.738281 419.460938 119 418.996094 119.484375 418.996094 L 119.605469 419.359375 M 97.507812 472.621094 L 97.566406 472.800781 C 97.566406 473.40625 97.304688 473.710938 96.78125 473.710938 L 96.71875 473.710938 L 95.265625 475.710938 L 93.269531 478.375 L 93.148438 478.316406 L 93.148438 478.496094 L 92.542969 479.34375 L 92.300781 479.34375 C 92.097656 479.34375 89.835938 473.265625 85.519531 461.105469 L 85.519531 460.925781 L 86.183594 460.078125 L 86.304688 460.078125 L 86.246094 460.015625 L 90.121094 455.230469 L 90.242188 455.289062 L 90.300781 454.988281 L 90.96875 454.078125 L 91.027344 454.078125 L 97.507812 472.621094 "/>
<path style=" stroke:none;fill-rule:evenodd;fill:rgb(10.588235%,9.803922%,10.980392%);fill-opacity:1;" d="M 186.75 333.984375 C 184.933594 333.015625 183.015625 331.683594 180.996094 329.984375 C 178.734375 328.167969 172.660156 327.257812 162.773438 327.257812 C 160.632812 327.257812 156.960938 327.945312 151.753906 329.320312 L 147.515625 330.46875 C 149.855469 328.492188 151.773438 327.15625 153.265625 326.472656 C 156.859375 324.816406 163.097656 323.988281 171.976562 323.988281 C 178.433594 323.988281 183.742188 324.976562 187.898438 326.957031 C 189.996094 327.925781 191.550781 328.976562 192.558594 330.105469 L 197.464844 334.226562 L 200.613281 336.589844 L 196.859375 340.890625 L 192.800781 337.863281 C 189.9375 335.882812 187.917969 334.589844 186.75 333.984375 "/>
<path style=" stroke:none;fill-rule:evenodd;fill:url(#linear0);" d="M 0.210938 528.363281 L 0.210938 363.675781 L 3.84375 360.464844 L 7.417969 357.128906 L 7.660156 357.492188 L 9.898438 355.132812 C 26.8125 341.71875 35.269531 333.902344 35.269531 331.683594 L 38.597656 329.257812 L 42.289062 325.863281 C 48.628906 321.746094 51.796875 319.300781 51.796875 318.535156 L 51.796875 318.472656 L 54.882812 315.078125 C 57.710938 311.886719 59.605469 309.949219 60.574219 309.261719 C 65.863281 304.777344 70.160156 301.367188 73.472656 299.023438 C 77.023438 296.519531 81.402344 292.984375 86.609375 288.417969 L 98.777344 277.996094 C 110.765625 268.300781 118.433594 261.335938 121.785156 257.09375 C 124.691406 253.375 129.472656 248.792969 136.132812 243.339844 L 144.1875 236.671875 L 154.597656 250.488281 C 156.171875 252.589844 159.503906 255.195312 164.589844 258.304688 C 170.480469 261.898438 175.226562 263.699219 178.816406 263.699219 L 180.089844 263.453125 L 180.753906 263.636719 C 183.820312 264.648438 185.902344 265.796875 186.992188 267.089844 C 189.25 269.714844 190.542969 271.757812 190.863281 273.210938 L 190.984375 276.238281 C 190.984375 277.53125 191.148438 278.5625 191.46875 279.328125 C 192.238281 281.1875 193.710938 283.207031 195.890625 285.390625 L 200.734375 291.628906 C 202.832031 294.457031 204.628906 296.457031 206.121094 297.628906 L 209.996094 300.539062 C 208.464844 301.34375 205.941406 304.496094 202.429688 309.988281 C 200.332031 313.34375 197.402344 316.695312 193.648438 320.046875 L 193.710938 320.289062 L 193.589844 320.351562 L 193.285156 320.652344 C 191.832031 319.683594 188.808594 318.734375 184.207031 317.804688 C 178.472656 316.675781 173.710938 316.109375 169.917969 316.109375 L 165.738281 316.230469 C 159.5625 316.714844 153.832031 317.683594 148.546875 319.140625 C 143.824219 320.433594 140.554688 321.785156 138.738281 323.199219 C 133.609375 327.078125 129.9375 330.449219 127.71875 333.316406 C 121.746094 340.789062 118.757812 347.636719 118.757812 353.859375 C 118.757812 359.148438 120.777344 365.53125 124.8125 373.003906 C 126.304688 375.832031 129.414062 379.710938 134.136719 384.640625 C 137.164062 387.832031 139.402344 389.972656 140.855469 391.0625 C 139.484375 391.75 137.769531 393.445312 135.710938 396.152344 L 130.261719 403.847656 C 125.699219 409.703125 121.722656 414.046875 118.332031 416.875 C 118.332031 417.199219 118.433594 417.417969 118.636719 417.539062 C 115.851562 420.53125 110.523438 426.851562 102.652344 436.507812 C 92.078125 449.472656 83.277344 460.601562 76.253906 469.890625 L 56.214844 497.21875 L 56.15625 497.339844 C 54.015625 500.167969 50.828125 504.671875 46.589844 510.851562 L 35.027344 524.667969 L 35.085938 525.152344 C 33.714844 525.191406 32.261719 525.554688 30.726562 526.242188 L 25.15625 526.726562 L 18.859375 527.394531 L 14.5 528.0625 L 7.660156 528.183594 L 7.660156 528.605469 L 0.210938 528.363281 M 189.109375 280.117188 L 189.109375 279.695312 C 187.65625 275.976562 185.78125 274.117188 183.480469 274.117188 L 176.636719 281.996094 L 168.949219 290.175781 C 161.441406 300.71875 154.316406 305.992188 147.578125 305.992188 C 146.324219 305.992188 145.699219 306.292969 145.699219 306.898438 C 145.699219 307.34375 146.203125 307.988281 147.214844 308.839844 C 148.464844 309.890625 149.855469 310.414062 151.390625 310.414062 L 152.601562 310.292969 C 152.761719 310.695312 153.609375 310.898438 155.144531 310.898438 C 162.613281 310.898438 169.9375 306.132812 177.121094 296.597656 C 185.234375 286.582031 189.292969 281.308594 189.292969 280.785156 L 189.109375 280.117188 M 169.796875 267.453125 C 169.835938 266.886719 169.453125 266.605469 168.644531 266.605469 C 167.960938 266.605469 165.394531 269.535156 160.957031 275.390625 C 156.636719 281.085938 154.476562 284.078125 154.476562 284.359375 L 154.539062 284.90625 L 155.265625 285.148438 C 155.667969 285.148438 156.757812 283.933594 158.535156 281.511719 L 162.410156 276.300781 C 167.332031 270.726562 169.796875 267.777344 169.796875 267.453125 "/>
</g>
</svg>
