<?xml version="1.0" encoding="UTF-8"?>
<svg xmlns="http://www.w3.org/2000/svg" xmlns:xlink="http://www.w3.org/1999/xlink" width="532px" height="530px" viewBox="0 0 532 530" version="1.1">
<g id="surface1">
<path style=" stroke:none;fill-rule:evenodd;fill:rgb(0%,0%,0%);fill-opacity:1;" d="M 312.558594 141.300781 L 312.800781 141 L 312.558594 141.242188 C 311.75 140.230469 310.480469 139.421875 308.742188 138.816406 L 292.699219 150.933594 C 294.476562 151.175781 295.765625 151.925781 296.574219 153.175781 L 296.515625 153.238281 L 296.636719 153.296875 L 297.363281 154.996094 L 297.605469 158.992188 L 314.617188 146.390625 L 313.164062 142.453125 L 312.558594 141.300781 M 295.183594 154.753906 L 295.425781 154.449219 L 295.242188 154.269531 L 295 154.511719 C 294.234375 153.460938 293.042969 152.589844 291.429688 151.90625 L 288.402344 154.148438 C 290.136719 154.589844 291.507812 155.519531 292.519531 156.933594 L 292.335938 157.238281 L 292.640625 157.359375 L 292.699219 157.296875 C 293.425781 158.429688 293.929688 159.863281 294.214844 161.597656 L 296.394531 159.964844 L 296.152344 159.113281 L 295.96875 156.691406 C 295.847656 155.964844 295.585938 155.316406 295.183594 154.753906 M 290.945312 158.265625 L 291.066406 158.144531 L 290.824219 158.023438 L 290.761719 157.902344 C 289.957031 156.730469 288.824219 155.742188 287.371094 154.933594 L 269.691406 168.265625 L 269.511719 168.386719 L 269.753906 168.324219 C 271.246094 168.324219 272.4375 169.074219 273.324219 170.566406 C 274.050781 171.820312 274.578125 173.578125 274.898438 175.839844 L 292.335938 162.933594 L 292.277344 162.75 L 291.550781 159.601562 L 290.945312 158.265625 M 265.273438 176.625 L 265.457031 182.503906 L 265.757812 182.5625 L 273.628906 176.746094 L 272.78125 172.992188 L 272.417969 172.019531 C 271.773438 170.6875 270.742188 169.535156 269.328125 168.566406 L 263.277344 173.113281 C 264.246094 173.796875 264.910156 174.949219 265.273438 176.566406 L 265.273438 176.625 M 261.097656 172.324219 L 261.097656 171.71875 L 285.132812 153.964844 L 318.128906 129.425781 L 318.613281 129.0625 L 380.125 82.828125 L 380.0625 82.648438 L 380.003906 82.40625 L 380.667969 82.285156 L 380.851562 82.285156 L 402.042969 66.347656 L 402.042969 65.925781 L 402.707031 65.804688 L 437.582031 39.566406 L 437.582031 39.324219 C 444.199219 26.277344 447.570312 19.753906 447.691406 19.753906 C 451.808594 19.753906 455.320312 20.824219 458.226562 22.964844 L 476.269531 10.90625 C 482.324219 6.101562 487.347656 2.96875 491.34375 1.515625 C 494.089844 0.503906 497.601562 0 501.878906 0 C 506.480469 0 510.273438 0.667969 513.261719 2 L 513.382812 1.757812 C 513.746094 1.757812 513.96875 1.960938 514.046875 2.363281 C 516.632812 3.695312 518.507812 5.59375 519.679688 8.058594 C 520.847656 8.988281 522.199219 10.804688 523.734375 13.511719 C 525.632812 16.863281 527.125 20.136719 528.214844 23.328125 L 531.484375 32.597656 L 531.789062 39.265625 L 531.484375 46.957031 L 531.789062 47.261719 L 531.667969 47.808594 L 531.363281 47.929688 L 531.0625 50.050781 L 529.246094 62.714844 L 528.09375 67.5 L 528.578125 67.925781 L 528.457031 68.289062 L 527.792969 68.53125 L 527.730469 68.53125 C 527.042969 70.308594 526.136719 72.207031 525.007812 74.226562 L 517.5 86.164062 C 515.238281 89.636719 512.535156 92.90625 509.386719 95.976562 L 509.507812 96.460938 L 509.445312 97.007812 C 509.488281 97.167969 509.304688 97.25 508.902344 97.25 C 508.699219 97.25 508.496094 97.191406 508.296875 97.070312 C 503.492188 101.511719 497.742188 105.570312 491.042969 109.246094 C 484.824219 112.640625 479.960938 116.378906 476.449219 120.457031 C 472.9375 124.539062 471.222656 128.476562 471.304688 132.273438 L 470.757812 132.515625 L 470.636719 132.453125 L 471.847656 134.636719 L 471.363281 136.9375 L 471.847656 138.210938 C 471.769531 138.535156 470.65625 138.777344 468.519531 138.9375 L 469.0625 141.179688 L 469.367188 141.542969 L 469.003906 141.96875 L 469.003906 142.089844 L 468.699219 142.269531 L 468.277344 142.269531 L 467.609375 142.148438 L 467.671875 141.847656 L 467.1875 141.605469 C 466.664062 141.605469 466.257812 141.847656 465.976562 142.332031 C 465.695312 142.816406 465.269531 143.058594 464.703125 143.058594 C 463.976562 143.058594 463.515625 142.816406 463.3125 142.332031 L 463.007812 141.300781 L 461.554688 142.269531 C 461.191406 142.269531 460.851562 141.949219 460.527344 141.300781 L 459.800781 141.785156 C 459.4375 141.785156 459.15625 141.582031 458.953125 141.179688 C 458.75 140.855469 458.710938 140.574219 458.832031 140.332031 L 457.679688 140.816406 C 456.996094 140.816406 456.632812 140.554688 456.589844 140.027344 L 456.773438 138.636719 L 456.773438 138.574219 L 455.140625 139.058594 L 454.109375 138.9375 L 454.050781 138.269531 C 454.050781 137.867188 454.25 137.140625 454.65625 136.089844 C 452.273438 136.089844 451.082031 135.707031 451.082031 134.9375 C 451.082031 134.332031 451.265625 133.867188 451.628906 133.546875 L 453.324219 132.152344 C 452.839844 131.988281 452.515625 131.789062 452.355469 131.546875 C 452.636719 130.941406 453.484375 130.253906 454.898438 129.484375 L 455.078125 129.425781 L 455.078125 129.363281 C 455.078125 128.960938 455.402344 128.757812 456.046875 128.757812 L 456.46875 128.757812 L 457.4375 128.515625 L 457.863281 128.636719 L 457.800781 128.394531 C 457.800781 126.65625 459.902344 122.859375 464.097656 117.003906 C 467.851562 111.832031 470.355469 108.703125 471.605469 107.613281 L 497.519531 86.949219 C 504.21875 81.820312 509.730469 74.953125 514.046875 66.347656 C 516.46875 61.542969 518.023438 57.84375 518.710938 55.261719 C 519.273438 52.957031 519.558594 49.808594 519.558594 45.808594 C 519.558594 43.667969 518.933594 39.140625 517.679688 32.234375 C 517.398438 30.699219 517.195312 28.4375 517.074219 25.449219 L 514.773438 20.84375 L 514.472656 20.84375 L 511.929688 17.511719 C 509.789062 15.289062 506.5 14.179688 502.058594 14.179688 C 500 14.179688 498.085938 14.460938 496.308594 15.027344 C 495.378906 16.683594 494.371094 17.511719 493.28125 17.511719 L 492.796875 17.390625 L 492.554688 16.84375 L 490.4375 18.300781 L 480.628906 22.78125 C 479.941406 23.671875 479.316406 24.15625 478.75 24.238281 L 478.386719 23.933594 C 476.449219 24.984375 474.007812 26.519531 471.0625 28.539062 L 465.308594 32.054688 L 464.886719 31.933594 L 464.824219 31.871094 C 465.792969 34.214844 466.5 36.820312 466.945312 39.6875 L 467.308594 43.6875 C 458.75 48.25 452.535156 50.535156 448.660156 50.535156 L 444.542969 50.472656 C 408.054688 78.304688 358.007812 116.175781 294.394531 164.082031 L 294.394531 164.933594 C 294.3125 165.175781 293.972656 165.335938 293.367188 165.417969 L 293.125 165.054688 L 267.695312 184.140625 L 266.300781 184.140625 L 264.789062 185.046875 L 263.519531 185.046875 C 263.316406 185.046875 263.214844 184.804688 263.214844 184.320312 C 263.214844 183.511719 263.539062 182.261719 264.183594 180.566406 C 264.183594 179.636719 263.617188 178.121094 262.488281 176.019531 L 261.582031 174.382812 L 261.097656 174.746094 L 261.097656 173.71875 L 259.703125 172.386719 L 260.308594 172.261719 L 261.097656 172.324219 M 481.898438 16.117188 L 482.808594 14.359375 L 483.414062 9.753906 C 483.535156 8.542969 483.816406 7.511719 484.261719 6.664062 L 476.390625 12.542969 C 475.863281 12.988281 474.976562 13.390625 473.726562 13.753906 L 473 14.058594 L 473.058594 14.300781 L 471.242188 21.269531 L 470.820312 21.8125 L 471 22.296875 L 469.304688 27.449219 L 471.121094 26.296875 C 474.632812 24.117188 477.195312 22.660156 478.8125 21.933594 L 481.898438 16.117188 M 496.730469 9.996094 L 497.035156 9.148438 L 497.640625 5.089844 C 497.761719 3.554688 498.164062 2.382812 498.851562 1.574219 L 491.34375 2.667969 C 489.890625 3.152344 487.992188 4.160156 485.652344 5.695312 L 485.773438 6.242188 C 485.773438 8.300781 485.351562 10.746094 484.503906 13.574219 L 484.320312 13.816406 L 484.382812 13.9375 L 484.078125 14.300781 L 484.199219 14.664062 L 483.292969 17.148438 L 481.777344 20.722656 C 485.167969 19.226562 488.960938 17.308594 493.160156 14.964844 L 494.671875 14.238281 C 495.441406 13.027344 496.125 11.613281 496.730469 9.996094 M 464.039062 33.566406 L 464.21875 33.265625 L 464.097656 33.023438 L 463.917969 33.144531 C 462.625 28.984375 460.871094 25.914062 458.648438 23.933594 L 458.527344 23.996094 L 457.800781 23.875 L 457.742188 23.328125 L 457.800781 23.265625 C 455.945312 21.855469 453.785156 21.148438 451.324219 21.148438 C 448.941406 21.148438 446.5625 23.671875 444.179688 28.722656 L 439.457031 39.628906 L 439.578125 39.75 L 438.851562 40.355469 C 440.226562 40.476562 441.394531 41.019531 442.363281 41.992188 L 442.484375 42.113281 L 442.425781 42.171875 L 442.667969 42.292969 C 443.917969 43.746094 444.785156 45.929688 445.269531 48.835938 L 445.269531 49.019531 L 445.753906 49.261719 L 465.914062 44.171875 L 466.035156 43.566406 C 465.59375 39.726562 464.925781 36.394531 464.039062 33.566406 M 422.261719 56.53125 C 424.402344 57.421875 425.753906 59.179688 426.320312 61.804688 L 425.652344 62.410156 L 423.59375 59.199219 C 423.109375 58.550781 422.34375 58.007812 421.292969 57.5625 L 421.476562 57.136719 L 421.355469 56.957031 L 420.808594 57.378906 L 418.992188 56.835938 L 420.445312 57.988281 L 420.265625 58.230469 L 420.628906 58.289062 L 420.6875 58.289062 C 421.738281 59.664062 422.445312 61.785156 422.808594 64.652344 L 422.808594 65.074219 L 422.988281 64.894531 L 425.894531 62.714844 L 439.519531 52.535156 L 437.945312 48.957031 C 437.417969 47.867188 436.671875 46.980469 435.703125 46.292969 L 435.703125 46.230469 L 435.582031 46.171875 L 435.402344 46.050781 L 433.039062 45.019531 L 433.039062 44.71875 L 432.917969 44.839844 L 418.507812 55.804688 L 422.082031 56.472656 L 422.140625 56.472656 L 422.140625 56.53125 L 422.261719 56.53125 M 408.398438 68.289062 L 408.882812 68.710938 C 410.457031 70.207031 411.566406 71.660156 412.214844 73.074219 L 422.019531 65.683594 L 420.808594 61.984375 C 420.445312 60.9375 419.902344 60.027344 419.175781 59.257812 L 419.417969 59.015625 L 419.296875 58.773438 L 418.992188 59.078125 L 416.574219 57.320312 L 404.886719 66.167969 C 406.015625 66.53125 407.167969 67.21875 408.339844 68.226562 L 408.398438 68.289062 M 392.535156 80.40625 L 393.203125 81.859375 L 394.171875 86.585938 L 411.304688 73.742188 C 410.859375 72.207031 409.40625 70.652344 406.945312 69.074219 L 403.496094 67.257812 L 389.386719 77.921875 C 390.679688 78.203125 391.710938 78.972656 392.476562 80.222656 L 392.535156 80.34375 L 392.535156 80.40625 M 440.183594 42.414062 L 440.125 42.171875 L 440.003906 42.292969 L 437.761719 41.140625 L 433.644531 44.292969 C 435.140625 44.292969 436.410156 44.675781 437.460938 45.445312 L 437.398438 45.566406 L 437.460938 45.6875 L 437.761719 45.6875 C 439.136719 46.9375 439.984375 49.019531 440.304688 51.925781 L 444.242188 48.957031 L 443.089844 45.808594 C 442.527344 44.476562 441.558594 43.34375 440.183594 42.414062 M 433.644531 44.292969 L 433.585938 44.351562 L 433.644531 44.292969 M 468.519531 24.539062 L 469.0625 23.632812 L 469.003906 23.449219 L 469.851562 21.269531 L 470.699219 17.085938 C 470.859375 16.15625 471.121094 15.390625 471.484375 14.785156 L 471.0625 15.085938 L 467.367188 18.238281 L 459.132812 23.632812 L 462.039062 26.84375 L 462.464844 27.449219 L 464.582031 31.386719 C 464.582031 30.941406 465.351562 30.175781 466.882812 29.085938 L 468.519531 24.539062 M 387.511719 83.859375 L 389.144531 85.070312 C 390.355469 86.203125 391.082031 87.355469 391.324219 88.523438 L 390.960938 88.949219 L 388.660156 86.34375 C 388.015625 85.738281 387.148438 85.210938 386.058594 84.769531 L 385.9375 84.648438 L 385.875 84.707031 L 381.820312 83.679688 L 365.714844 95.855469 C 367.046875 95.976562 368.097656 96.828125 368.863281 98.402344 L 369.53125 100.160156 L 370.378906 104.523438 L 390.960938 89.011719 L 391.445312 88.644531 L 393.261719 87.3125 C 392.699219 86.382812 392.214844 84.871094 391.808594 82.769531 L 391.203125 81.316406 C 390.558594 80.222656 389.691406 79.296875 388.601562 78.527344 L 383.394531 82.464844 C 384.929688 82.707031 386.300781 83.171875 387.511719 83.859375 M 367.472656 99.492188 L 367.472656 99.371094 L 367.410156 99.25 L 367.351562 99.25 C 366.785156 98.039062 366.019531 97.070312 365.050781 96.339844 L 358.449219 101.308594 C 360.265625 101.351562 361.882812 101.714844 363.292969 102.402344 L 363.171875 102.460938 L 363.535156 102.523438 L 365.65625 104.15625 L 367.472656 106.703125 L 369.410156 105.25 C 368.925781 104.398438 368.5 103.1875 368.136719 101.613281 L 367.472656 99.492188 M 344.160156 117.304688 L 345.191406 118.335938 L 347.429688 121.789062 L 366.804688 107.1875 L 364.625 104.945312 L 362.6875 103.550781 L 362.871094 103.1875 L 362.566406 103.066406 L 362.386719 103.429688 C 361.09375 102.824219 359.5 102.359375 357.601562 102.039062 L 357.601562 101.976562 L 339.257812 115.792969 C 341.234375 115.871094 342.808594 116.335938 343.980469 117.183594 L 344.039062 117.304688 L 344.160156 117.304688 M 342.222656 118.277344 C 341.136719 117.550781 339.78125 117.003906 338.167969 116.640625 L 336.472656 117.914062 C 337.964844 118.113281 339.15625 118.78125 340.046875 119.910156 L 339.984375 119.972656 L 340.105469 120.03125 C 341.113281 121.40625 341.699219 123.386719 341.863281 125.972656 L 346.28125 122.636719 L 343.796875 119.730469 L 342.585938 118.578125 L 342.890625 118.398438 L 342.34375 118.277344 L 342.34375 118.335938 L 342.222656 118.277344 M 338.957031 121.546875 L 338.957031 121.425781 L 338.894531 121.246094 L 338.835938 121.304688 C 338.148438 120.253906 337.097656 119.328125 335.6875 118.519531 L 321.457031 129.242188 C 322.667969 129.769531 323.699219 130.738281 324.546875 132.152344 L 324.605469 132.273438 C 325.332031 133.484375 325.917969 135 326.363281 136.816406 L 326.363281 137.605469 L 340.832031 126.757812 L 339.5 122.761719 L 338.957031 121.546875 M 322.972656 134.210938 L 323.214844 134.03125 L 323.09375 133.789062 L 322.789062 134.03125 L 319.945312 130.394531 L 309.953125 137.96875 C 311.648438 138.25 313.003906 139.039062 314.011719 140.332031 L 313.949219 140.332031 L 314.011719 140.390625 C 314.941406 141.644531 315.546875 143.359375 315.828125 145.542969 L 324.425781 139.058594 L 325.394531 138.332031 L 323.214844 134.636719 L 322.972656 134.210938 M 496.1875 95.554688 L 496.792969 94.464844 L 496.429688 94.34375 L 496.246094 94.765625 C 496.449219 92.421875 496.894531 90.464844 497.578125 88.890625 L 488.800781 95.371094 L 488.800781 95.796875 L 485.957031 100.21875 L 484.925781 101.976562 C 483.675781 104.238281 483.050781 106.21875 483.050781 107.914062 L 483.957031 112.460938 L 488.195312 109.609375 L 496.972656 103.914062 C 496.367188 102.378906 496.066406 100.503906 496.066406 98.28125 L 496.1875 95.554688 M 482.382812 103.976562 L 482.566406 103.792969 L 482.503906 103.613281 L 483.472656 101.492188 L 486.925781 96.707031 L 485.230469 97.917969 L 476.691406 104.582031 L 476.8125 104.703125 L 475.601562 108.761719 L 475.785156 109.550781 L 475.722656 109.734375 L 475.785156 109.914062 L 475.90625 109.914062 L 477.722656 117.183594 L 483.050781 113.125 C 482.765625 112.761719 482.484375 111.894531 482.203125 110.519531 L 481.777344 107.792969 C 481.777344 106.460938 481.980469 105.1875 482.382812 103.976562 M 474.332031 111.367188 L 474.632812 111.066406 L 474.332031 110.945312 L 474.332031 108.703125 L 474.453125 106.582031 L 472.515625 108.398438 C 470.132812 110.742188 468.035156 113.125 466.21875 115.550781 L 466.640625 117.488281 L 467.1875 119.789062 L 467.125 119.910156 L 467.1875 120.03125 L 467.246094 120.03125 L 467.609375 120.820312 L 471.363281 125.488281 C 472.210938 123.34375 473.5625 121.304688 475.421875 119.367188 L 476.632812 118.15625 C 475.542969 117.871094 474.835938 116.335938 474.511719 113.550781 L 474.332031 111.367188 M 458.832031 129.363281 L 460.648438 128.335938 L 460.40625 127.546875 L 460.042969 125.972656 L 458.832031 129.183594 L 458.40625 129.304688 L 458.285156 129.183594 L 458.226562 129.605469 L 458.832031 129.363281 M 466.519531 121.0625 L 466.582031 120.941406 L 466.460938 120.941406 C 466.015625 119.769531 465.632812 118.558594 465.308594 117.304688 L 465.371094 116.761719 C 463.554688 119.226562 462.039062 121.710938 460.828125 124.214844 L 462.523438 128.578125 L 462.523438 128.941406 L 462.644531 129.304688 L 462.765625 129.304688 L 462.828125 129.425781 L 464.160156 129.546875 C 464.847656 129.546875 465.230469 129.75 465.308594 130.152344 L 465.25 131.183594 L 465.308594 131.425781 L 468.335938 130.757812 C 468.863281 130.757812 469.40625 131.039062 469.972656 131.605469 L 470.152344 131.847656 L 470.09375 131.484375 C 470.09375 129.871094 470.355469 128.292969 470.878906 126.757812 C 469.507812 126.636719 468.175781 125.082031 466.882812 122.09375 L 466.519531 121.0625 M 463.917969 131.0625 L 463.917969 130.820312 L 463.855469 130.878906 L 461.796875 131.546875 L 461.3125 131.425781 L 460.707031 129.605469 C 458.730469 130.859375 457.640625 131.503906 457.4375 131.546875 L 456.226562 130.699219 L 454.714844 131.183594 L 455.320312 131.910156 C 455.320312 132.636719 454.535156 133.566406 452.960938 134.695312 L 455.441406 134.9375 L 455.320312 135.484375 L 455.925781 136.273438 L 456.347656 136.574219 L 455.867188 136.636719 L 455.804688 137.242188 C 457.054688 137.847656 457.800781 138.414062 458.042969 138.9375 L 458.042969 139.058594 L 458.105469 139.058594 L 459.316406 138.394531 L 459.617188 138.574219 L 460.042969 139.726562 C 461.09375 139.765625 461.71875 140.007812 461.917969 140.453125 C 462.242188 140.453125 462.726562 140.25 463.371094 139.847656 L 464.097656 139.90625 C 464.703125 140.109375 464.96875 140.695312 464.886719 141.664062 L 465.976562 140.269531 L 466.824219 139.96875 L 467.488281 140.089844 L 467.308594 139.058594 L 467.429688 138.574219 C 467.550781 138.210938 467.851562 137.90625 468.335938 137.664062 L 470.09375 137.058594 L 470.273438 135.179688 C 470.273438 134.617188 469.992188 134.109375 469.425781 133.667969 C 468.820312 133.183594 468.457031 132.65625 468.335938 132.089844 C 466.804688 132.253906 465.652344 132.574219 464.886719 133.058594 L 464.523438 133.363281 L 464.523438 133.304688 L 464.402344 132.816406 L 463.554688 132.695312 L 463.070312 133.058594 L 463.917969 131.0625 M 505.511719 11.753906 L 505.753906 11.753906 C 506.15625 11.753906 506.417969 11.554688 506.539062 11.148438 L 506.359375 10.847656 L 509.6875 7.089844 L 512.59375 2.96875 C 511.019531 1.878906 509.566406 1.332031 508.234375 1.332031 L 499.03125 1.574219 L 499.515625 2.121094 L 498.304688 9.089844 L 497.035156 13.390625 L 501.816406 12.785156 L 504.542969 12.964844 L 504.542969 12.90625 L 505.511719 11.753906 M 511.808594 15.570312 C 511.808594 15.371094 512.59375 15.027344 514.167969 14.542969 C 516.429688 13.855469 518.691406 12.964844 520.949219 11.875 C 519.699219 10.179688 518.386719 8.804688 517.015625 7.753906 L 517.316406 7.453125 L 515.378906 5.453125 L 513.441406 3.636719 C 510.171875 8.484375 507.671875 11.652344 505.933594 13.148438 C 508.15625 13.59375 510.09375 14.441406 511.746094 15.695312 L 511.867188 15.816406 L 511.808594 15.570312 M 523.070312 27.207031 L 527.488281 27.085938 L 527.367188 26.78125 L 527.972656 26.238281 L 528.035156 26.238281 L 526.703125 22.722656 C 525.167969 18.84375 523.53125 15.613281 521.796875 13.027344 L 521.496094 13.269531 L 521.3125 12.90625 L 521.070312 12.964844 L 521.191406 13.453125 C 520.667969 13.816406 519.960938 14.199219 519.074219 14.601562 C 516.773438 15.695312 514.59375 16.238281 512.535156 16.238281 L 512.414062 16.238281 L 514.289062 18.238281 L 514.351562 18.238281 C 516.085938 20.5 517.296875 22.417969 517.984375 23.996094 L 521.796875 27.207031 L 523.070312 27.207031 M 523.191406 28.539062 L 522.949219 28.054688 L 522.707031 28.054688 L 522.707031 28.476562 C 520.929688 28.277344 519.515625 27.730469 518.46875 26.84375 L 518.953125 32.054688 L 519.132812 33.144531 L 520.949219 34.417969 L 523.492188 35.324219 L 528.578125 35.75 L 529.910156 35.265625 L 530.273438 35.324219 C 529.910156 32.941406 529.304688 30.375 528.457031 27.628906 C 528.054688 28.234375 526.679688 28.539062 524.339844 28.539062 L 523.191406 28.539062 M 523.917969 36.78125 L 523.976562 36.171875 L 523.613281 36.171875 L 523.554688 36.71875 C 522.464844 36.4375 521.453125 36.050781 520.527344 35.566406 L 519.4375 34.960938 L 520.222656 39.324219 L 520.464844 40.839844 C 521.109375 41 522.039062 41.847656 523.25 43.382812 L 523.25 43.988281 L 523.492188 43.988281 L 523.492188 43.746094 L 523.917969 44.292969 C 524.320312 44.65625 525.1875 45.203125 526.519531 45.929688 C 527.285156 46.617188 528.175781 46.796875 529.183594 46.472656 L 530.335938 46.414062 L 530.515625 39.324219 L 530.335938 36.234375 L 528.761719 37.265625 L 523.917969 36.78125 M 523.371094 46.230469 L 523.371094 45.988281 L 523.3125 45.503906 L 523.070312 45.503906 L 523.007812 45.929688 L 522.34375 45.382812 L 520.769531 43.6875 L 520.828125 45.746094 L 520.285156 51.867188 C 520.6875 52.714844 520.910156 54.070312 520.949219 55.925781 C 520.949219 57.460938 521.132812 58.695312 521.496094 59.621094 L 521.433594 59.925781 L 521.496094 60.046875 L 521.617188 59.984375 L 521.796875 60.351562 C 522.925781 62.371094 524.402344 64.207031 526.21875 65.863281 L 527.1875 66.710938 C 527.671875 65.21875 527.953125 63.824219 528.035156 62.53125 L 529.972656 49.746094 L 530.214844 48.050781 L 529.246094 48.050781 C 527.066406 48.050781 525.105469 47.445312 523.371094 46.230469 M 521.011719 61.621094 L 521.011719 61.320312 L 520.949219 61.015625 L 520.890625 61.199219 C 520 58.734375 519.558594 56.734375 519.558594 55.199219 L 519.558594 55.140625 C 518.75 58.207031 517.601562 61.421875 516.105469 64.773438 L 516.046875 65.378906 L 515.078125 71.679688 L 515.199219 73.316406 L 515.078125 73.5 L 515.199219 73.558594 C 515.5625 76.183594 516.632812 79.132812 518.40625 82.40625 L 523.734375 74.105469 L 526.582031 68.410156 C 524.359375 67.84375 522.5625 65.742188 521.191406 62.105469 L 521.011719 61.621094 M 514.351562 75.921875 L 514.652344 74.953125 L 514.59375 74.769531 L 514.289062 75.316406 L 513.804688 71.621094 L 514.109375 68.832031 C 512.414062 72.023438 510.578125 74.992188 508.597656 77.738281 L 508.539062 78.648438 C 507.769531 80.628906 507.308594 82.769531 507.144531 85.070312 L 507.085938 87.132812 C 507.085938 88.382812 507.488281 90.28125 508.296875 92.828125 L 508.960938 94.707031 C 511.949219 91.835938 514.390625 88.867188 516.289062 85.796875 L 517.378906 84.042969 C 516.367188 83.355469 515.5 81.335938 514.773438 77.980469 L 514.351562 75.921875 M 505.8125 87.191406 L 506.417969 86.164062 L 506.359375 85.917969 L 505.875 86.40625 L 506.296875 81.800781 L 506.539062 80.285156 C 504.28125 83.03125 501.816406 85.476562 499.152344 87.617188 L 498.488281 88.160156 L 498.789062 88.828125 C 498.789062 89.917969 498.589844 91.292969 498.183594 92.949219 L 497.699219 93.371094 L 497.761719 93.492188 L 498.125 93.25 L 498.0625 93.371094 C 497.578125 95.269531 497.335938 96.96875 497.335938 98.460938 C 497.335938 100.078125 497.539062 101.695312 497.941406 103.308594 L 503.453125 99.371094 L 507.449219 96.097656 C 506.921875 95.25 506.460938 93.917969 506.054688 92.101562 C 505.894531 91.496094 505.8125 89.859375 505.8125 87.191406 M 239.179688 196.925781 C 240.269531 198.21875 241.398438 200.054688 242.570312 202.4375 L 243.296875 201.832031 L 243.960938 201.894531 L 244.082031 201.410156 C 244.082031 200.761719 243.296875 199.167969 241.722656 196.621094 L 241.117188 195.652344 L 241.054688 195.589844 L 240.875 195.167969 L 240.8125 195.226562 L 238.816406 192.5 L 238.695312 192.378906 L 239.359375 192.257812 C 241.378906 192.257812 242.972656 193.671875 244.144531 196.5 C 245.03125 198.601562 245.476562 200.601562 245.476562 202.5 L 245.050781 202.921875 L 244.144531 202.921875 C 214.316406 225.707031 175.347656 255.234375 127.234375 291.507812 L 127.234375 292.054688 L 126.871094 292.417969 L 126.75 292.355469 L 126.75 292.417969 C 126.75 292.984375 126.226562 293.953125 125.175781 295.328125 C 126.265625 295.449219 130.320312 298.699219 137.34375 305.082031 C 146.789062 313.644531 155.769531 320.796875 164.285156 326.53125 C 195.125 347.292969 229.25 357.675781 266.664062 357.675781 L 276.898438 356.949219 C 285.171875 354.6875 289.714844 353.3125 290.519531 352.828125 L 290.824219 352.949219 L 291.066406 352.828125 L 291.429688 353.253906 L 291.671875 353.3125 L 291.609375 353.496094 L 291.671875 353.917969 L 290.339844 354.707031 L 286.886719 356.585938 L 280.53125 359.734375 L 280.105469 360.039062 L 269.8125 366.765625 L 264.851562 369.492188 L 264.0625 368.765625 C 257.847656 371.511719 246.523438 374.277344 230.097656 377.066406 L 229.1875 377.125 C 229.027344 377.125 228.945312 376.882812 228.945312 376.398438 L 229.007812 376.15625 L 228.703125 376.21875 L 228.039062 376.460938 C 218.390625 376.378906 211.148438 376.21875 206.304688 375.976562 C 196.535156 375.488281 188.300781 374.441406 181.601562 372.824219 C 174.539062 371.167969 167.394531 368.480469 160.167969 364.765625 C 153.589844 361.371094 145.234375 356.222656 135.105469 349.3125 C 124.207031 341.921875 111.835938 331.175781 97.992188 317.078125 L 97.929688 317.019531 L 96.234375 316.777344 L 96.054688 316.292969 L 96.175781 315.988281 L 96.417969 315.199219 L 96.296875 314.898438 L 89.332031 320.109375 L 89.332031 320.652344 L 88.96875 321.015625 L 88.847656 320.957031 L 88.847656 321.015625 C 88.847656 321.582031 88.324219 322.550781 87.273438 323.925781 C 88.363281 324.046875 92.421875 327.300781 99.445312 333.679688 C 108.890625 342.246094 117.871094 349.394531 126.386719 355.132812 C 157.222656 375.894531 191.347656 386.273438 228.765625 386.273438 L 238.996094 385.546875 C 247.273438 383.285156 251.8125 381.914062 252.621094 381.429688 L 252.921875 381.550781 L 253.164062 381.429688 L 253.527344 381.851562 L 253.769531 381.914062 L 253.710938 382.09375 L 253.769531 382.519531 L 252.4375 383.304688 L 248.988281 385.183594 L 242.628906 388.335938 L 242.207031 388.636719 C 238.855469 391.0625 235.425781 393.304688 231.914062 395.363281 L 226.949219 398.089844 L 226.164062 397.363281 C 219.945312 400.109375 208.625 402.878906 192.195312 405.664062 L 191.289062 405.726562 C 191.128906 405.726562 191.046875 405.484375 191.046875 405 L 191.105469 404.757812 L 190.804688 404.816406 L 190.136719 405.058594 C 180.492188 404.976562 173.246094 404.816406 168.402344 404.574219 C 158.636719 404.089844 150.402344 403.039062 143.703125 401.421875 C 136.636719 399.765625 129.492188 397.082031 122.269531 393.363281 C 115.691406 389.972656 107.335938 384.820312 97.203125 377.914062 C 86.304688 370.519531 73.933594 359.777344 60.089844 345.679688 L 60.03125 345.617188 L 58.335938 345.375 L 58.152344 344.890625 L 58.273438 344.585938 L 58.515625 343.800781 C 58.515625 343.636719 58.476562 343.539062 58.394531 343.496094 L 58.335938 343.4375 L 51.675781 348.464844 L 49.011719 350.40625 L 49.011719 351.070312 L 48.648438 351.433594 L 48.527344 351.375 L 48.527344 351.433594 C 48.527344 352 48.003906 352.96875 46.953125 354.34375 C 48.042969 354.464844 52.097656 357.714844 59.121094 364.097656 C 68.566406 372.664062 77.546875 379.8125 86.0625 385.546875 C 116.902344 406.3125 151.027344 416.691406 188.445312 416.691406 L 198.675781 415.964844 C 206.949219 413.703125 211.492188 412.328125 212.296875 411.84375 L 212.601562 411.964844 L 212.84375 411.84375 L 213.207031 412.269531 L 213.449219 412.328125 L 213.386719 412.511719 L 213.449219 412.9375 L 212.117188 413.722656 L 208.664062 415.601562 L 202.308594 418.753906 L 201.882812 419.054688 C 198.535156 421.480469 195.101562 423.722656 191.589844 425.78125 L 186.628906 428.507812 L 185.839844 427.78125 C 179.625 430.527344 168.300781 433.292969 151.875 436.082031 L 150.96875 436.144531 C 150.804688 436.144531 150.726562 435.898438 150.726562 435.414062 L 150.785156 435.171875 L 150.484375 435.234375 L 149.816406 435.476562 C 140.167969 435.394531 132.925781 435.234375 128.082031 434.992188 C 118.3125 434.507812 110.078125 433.457031 103.378906 431.839844 C 96.316406 430.183594 89.171875 427.5 81.945312 423.78125 C 75.367188 420.390625 67.011719 415.238281 56.882812 408.332031 C 45.984375 400.9375 33.613281 390.195312 19.769531 376.097656 L 19.707031 376.035156 L 18.011719 375.792969 L 17.832031 375.308594 L 17.285156 374.519531 L 17.347656 374.15625 L 15.046875 375.851562 L 15.046875 376.398438 C 14.84375 377.570312 14.300781 378.15625 13.410156 378.15625 C 9.292969 378.15625 6.226562 376.945312 4.207031 374.519531 L 3.601562 373.246094 C 2.835938 372.359375 2.433594 371.632812 2.390625 371.066406 L 1.847656 371.429688 L 1.542969 369.855469 L 2.816406 368.703125 L 2.816406 368.644531 C 3.179688 367.472656 3.542969 366.886719 3.90625 366.886719 L 4.875 366.945312 L 9.414062 363.191406 L 9.65625 362.949219 L 9.535156 363.007812 L 9.292969 361.492188 L 9.355469 361.128906 L 9.292969 361.128906 L 9.292969 360.523438 L 9.113281 360.464844 L 9.355469 360.402344 L 9.476562 360.34375 C 10.324219 357.675781 13.914062 353.980469 20.253906 349.253906 L 31.695312 341.253906 L 32.605469 340.285156 L 33.332031 339.984375 L 33.390625 339.863281 L 33.453125 339.921875 C 34.945312 339.234375 35.933594 338.890625 36.417969 338.890625 C 37.183594 338.890625 38.074219 339.253906 39.082031 339.984375 L 39.445312 339.984375 L 40.777344 339.011719 L 45.621094 335.378906 L 49.738281 332.347656 L 49.617188 331.074219 L 49.675781 330.710938 L 49.617188 330.710938 L 49.617188 330.105469 L 49.433594 330.046875 L 49.675781 329.984375 L 49.796875 329.925781 C 50.644531 327.257812 54.238281 323.5625 60.574219 318.835938 L 72.019531 310.839844 L 72.925781 309.867188 L 73.652344 309.566406 L 73.714844 309.445312 L 73.773438 309.503906 C 75.265625 308.816406 76.253906 308.476562 76.738281 308.476562 C 77.507812 308.476562 78.394531 308.839844 79.402344 309.566406 L 79.765625 309.566406 L 81.097656 308.597656 L 81.644531 308.777344 L 87.757812 304.234375 L 87.636719 304.171875 L 87.878906 303.929688 L 87.757812 303.992188 L 87.515625 302.476562 L 87.578125 302.113281 L 87.515625 302.113281 L 87.515625 301.507812 L 87.335938 301.445312 L 87.578125 301.386719 L 87.699219 301.324219 C 88.546875 298.660156 92.136719 294.960938 98.476562 290.238281 L 109.917969 282.238281 L 110.828125 281.269531 L 111.554688 280.964844 L 111.613281 280.84375 L 111.675781 280.90625 C 113.167969 280.21875 114.15625 279.875 114.640625 279.875 C 115.40625 279.875 116.296875 280.238281 117.304688 280.964844 L 117.667969 280.964844 L 119 279.996094 L 119.90625 280.359375 C 142.511719 263.355469 181.542969 233.964844 237 192.199219 C 237.765625 192.199219 238.3125 192.359375 238.632812 192.683594 L 236.03125 194.742188 C 237.039062 194.984375 238.089844 195.710938 239.179688 196.925781 M 124.386719 283.691406 L 125.902344 285.8125 L 126.871094 288.480469 L 128.382812 287.328125 L 128.625 287.691406 L 128.808594 287.996094 L 241.722656 203.042969 C 241.15625 201.628906 240.085938 200.195312 238.511719 198.742188 L 238.453125 198.5625 L 238.390625 198.621094 L 234.699219 195.710938 L 122.027344 281.085938 L 121.964844 281.027344 L 120.996094 281.691406 L 121.179688 281.753906 C 122.429688 282.199219 123.5 282.84375 124.386719 283.691406 M 124.871094 293.328125 L 124.691406 293.265625 L 124.75 292.480469 L 124.449219 291.328125 L 124.207031 290.84375 L 124.207031 290.117188 L 124.265625 288.359375 L 125.234375 289.691406 L 124.328125 286.84375 L 123.539062 285.632812 C 123.175781 284.90625 122.714844 284.320312 122.148438 283.875 L 121.90625 283.449219 L 121.480469 283.449219 L 119.605469 282.90625 L 118.574219 282.84375 L 118.210938 282.84375 L 117.910156 282.421875 L 117.363281 282.238281 L 114.519531 281.570312 L 114.519531 281.328125 L 112.160156 282.117188 C 110.34375 284.054688 105.820312 287.449219 98.597656 292.296875 C 93.347656 295.8125 90.199219 298.839844 89.152344 301.386719 L 90.785156 301.628906 L 91.816406 300.839844 L 91.875 301.203125 C 92.039062 301.6875 92.542969 302.09375 93.390625 302.414062 L 93.207031 302.535156 L 93.390625 302.65625 C 94.558594 303.304688 95.609375 304.191406 96.539062 305.324219 L 96.234375 305.140625 L 96.355469 305.445312 L 96.597656 305.445312 L 96.660156 305.507812 L 96.539062 305.507812 L 96.660156 305.566406 C 97.265625 306.332031 97.808594 307.222656 98.292969 308.234375 L 98.960938 309.746094 L 99.566406 309.324219 L 99.503906 309.867188 C 99.503906 310.675781 99.644531 311.34375 99.929688 311.867188 L 99.746094 312.050781 L 99.808594 312.230469 L 100.230469 314.835938 L 103.015625 313.078125 L 104.105469 312.898438 L 103.015625 312.59375 L 106.648438 309.808594 C 106.851562 309.6875 107.03125 309.625 107.195312 309.625 L 107.496094 309.746094 L 113.007812 305.203125 C 120.070312 299.265625 124.125 295.304688 125.175781 293.328125 L 125.417969 292.902344 L 124.871094 293.328125 M 214.902344 350.828125 C 206.261719 348.363281 197.929688 345.355469 189.898438 341.800781 C 166.847656 331.621094 145.15625 316.3125 124.8125 295.871094 C 122.914062 298.175781 119.6875 301.507812 115.125 305.871094 C 110.28125 310.472656 106.546875 313.664062 103.925781 315.441406 L 103.621094 315.320312 C 103.136719 315.320312 102.894531 315.382812 102.894531 315.503906 L 103.015625 315.929688 L 103.078125 315.988281 L 102.894531 315.867188 L 102.59375 316.171875 L 102.652344 316.230469 L 101.925781 316.59375 C 110.484375 325.398438 121.160156 334.226562 133.953125 343.074219 C 161.039062 361.816406 186.585938 371.1875 210.601562 371.1875 C 231.792969 371.1875 242.914062 371.046875 243.960938 370.765625 C 247.472656 368.90625 256.171875 366.339844 270.054688 363.070312 L 273.023438 362.339844 L 274.777344 360.585938 C 275.828125 360.058594 276.777344 359.59375 277.625 359.191406 L 277.867188 359.070312 L 277.441406 359.070312 L 278.109375 358.886719 L 276.535156 358.644531 L 273.445312 359.070312 C 252.742188 358.746094 233.386719 356.039062 215.386719 350.949219 L 215.203125 350.890625 L 215.203125 350.828125 L 214.902344 350.828125 M 266 365.675781 L 256.554688 368.523438 L 251.289062 369.792969 C 242.691406 371.652344 234.03125 372.582031 225.316406 372.582031 C 197.019531 372.582031 172.601562 367.453125 152.054688 357.191406 C 145.035156 353.675781 137.929688 349.253906 130.746094 343.921875 L 135.347656 347.800781 C 149.433594 359.757812 167.3125 367.773438 188.988281 371.855469 C 200.007812 373.953125 213.75 375.066406 230.21875 375.1875 L 231.003906 375.003906 L 243.960938 373.1875 C 249.453125 372.417969 253.304688 371.632812 255.527344 370.824219 L 266.058594 365.796875 L 267.996094 366.160156 L 271.628906 363.613281 L 266 365.675781 M 177 379.429688 C 168.363281 376.964844 160.027344 373.953125 151.996094 370.398438 C 128.949219 360.21875 107.253906 344.910156 86.910156 324.472656 C 85.015625 326.773438 81.785156 330.105469 77.222656 334.46875 C 72.382812 339.074219 68.648438 342.265625 66.023438 344.042969 L 65.722656 343.921875 L 64.996094 344.101562 L 65.117188 344.527344 L 65.175781 344.585938 L 64.996094 344.464844 L 64.691406 344.769531 L 64.753906 344.832031 L 64.027344 345.195312 C 72.582031 354 83.257812 362.824219 96.054688 371.671875 C 123.136719 390.414062 148.6875 399.789062 172.703125 399.789062 C 193.890625 399.789062 205.011719 399.644531 206.0625 399.363281 C 209.574219 397.503906 218.269531 394.941406 232.15625 391.667969 L 235.121094 390.941406 L 236.878906 389.183594 L 239.722656 387.789062 L 239.964844 387.667969 L 239.542969 387.667969 L 240.207031 387.488281 L 238.632812 387.246094 L 235.546875 387.667969 C 214.839844 387.347656 195.488281 384.640625 177.484375 379.550781 L 177.304688 379.488281 L 177.304688 379.429688 L 177 379.429688 M 136.679688 409.84375 C 128.039062 407.382812 119.707031 404.371094 111.675781 400.816406 C 88.625 390.636719 66.933594 375.328125 46.589844 354.886719 C 44.691406 357.191406 41.464844 360.523438 36.902344 364.886719 C 32.058594 369.492188 28.324219 372.683594 25.703125 374.460938 L 25.398438 374.339844 C 24.914062 374.339844 24.671875 374.398438 24.671875 374.519531 L 24.792969 374.945312 L 24.855469 375.003906 L 24.671875 374.882812 L 24.371094 375.1875 L 24.429688 375.246094 L 23.703125 375.609375 C 32.261719 384.417969 42.9375 393.242188 55.730469 402.089844 C 82.816406 420.832031 108.363281 430.203125 132.378906 430.203125 C 153.570312 430.203125 164.691406 430.0625 165.738281 429.78125 C 169.25 427.921875 177.949219 425.355469 191.832031 422.085938 L 194.800781 421.359375 L 196.554688 419.601562 C 197.605469 419.074219 198.554688 418.613281 199.402344 418.207031 L 199.644531 418.085938 L 199.21875 418.085938 L 199.886719 417.90625 L 198.3125 417.660156 L 195.222656 418.085938 C 174.519531 417.761719 155.164062 415.054688 137.164062 409.96875 L 136.980469 409.90625 L 136.980469 409.84375 L 136.679688 409.84375 M 187.777344 424.691406 L 178.332031 427.539062 L 173.066406 428.8125 C 164.46875 430.667969 155.808594 431.597656 147.09375 431.597656 C 118.796875 431.597656 94.378906 426.46875 73.835938 416.207031 C 66.8125 412.695312 59.707031 408.269531 52.523438 402.9375 L 57.125 406.816406 C 71.210938 418.773438 89.089844 426.792969 110.765625 430.871094 C 121.785156 432.972656 135.527344 434.082031 151.996094 434.203125 L 152.78125 434.023438 L 165.738281 432.203125 C 171.230469 431.4375 175.082031 430.648438 177.304688 429.839844 L 187.839844 424.8125 C 188.726562 424.8125 189.371094 424.933594 189.777344 425.175781 C 190.664062 424.773438 191.875 423.921875 193.40625 422.628906 L 187.777344 424.691406 M 228.097656 394.273438 L 218.65625 397.121094 L 213.386719 398.394531 C 204.789062 400.25 196.132812 401.179688 187.414062 401.179688 C 159.121094 401.179688 134.699219 396.050781 114.15625 385.789062 C 107.132812 382.277344 100.03125 377.851562 92.84375 372.519531 L 97.445312 376.398438 C 111.53125 388.355469 129.414062 396.375 151.089844 400.453125 C 162.105469 402.554688 175.851562 403.664062 192.316406 403.785156 L 193.105469 403.605469 L 206.0625 401.785156 C 211.550781 401.019531 215.40625 400.230469 217.625 399.421875 C 218.917969 398.9375 222.429688 397.261719 228.160156 394.394531 C 229.046875 394.394531 229.695312 394.515625 230.097656 394.757812 L 233.730469 392.214844 L 228.097656 394.273438 M 83.582031 312.050781 L 81.644531 311.503906 L 80.675781 311.445312 L 80.3125 311.445312 L 80.007812 311.019531 L 79.039062 310.71875 L 76.617188 310.171875 L 76.617188 309.929688 L 74.257812 310.71875 C 72.441406 312.65625 67.921875 316.050781 60.695312 320.894531 C 55.449219 324.410156 52.300781 327.441406 51.25 329.984375 L 52.644531 330.167969 L 52.886719 330.226562 L 53.914062 329.441406 C 53.957031 330.125 54.480469 330.652344 55.488281 331.015625 L 55.308594 331.136719 L 55.429688 331.195312 C 56.597656 331.84375 57.667969 332.753906 58.636719 333.921875 L 58.335938 333.742188 L 58.457031 334.042969 L 58.699219 334.042969 L 58.757812 334.105469 L 58.636719 334.105469 L 58.757812 334.164062 C 59.363281 334.933594 59.910156 335.820312 60.394531 336.832031 L 61.058594 338.285156 L 61.058594 338.347656 L 61.664062 337.921875 L 61.605469 338.46875 C 61.605469 339.277344 61.746094 339.941406 62.027344 340.46875 L 61.847656 340.648438 L 61.847656 340.769531 L 62.332031 343.4375 L 65.117188 341.679688 L 66.207031 341.496094 L 65.117188 341.195312 L 68.75 338.40625 L 69.292969 338.226562 L 69.597656 338.347656 L 75.105469 333.800781 C 82.167969 327.863281 86.226562 323.90625 87.273438 321.925781 L 87.515625 321.503906 L 86.972656 321.925781 L 86.789062 321.867188 L 86.851562 321.078125 L 86.367188 319.5625 L 86.304688 319.441406 L 86.304688 318.714844 L 86.367188 316.957031 L 87.335938 318.289062 L 86.425781 315.441406 L 85.640625 314.230469 C 85.277344 313.503906 84.8125 312.917969 84.246094 312.472656 L 84.003906 312.050781 L 83.582031 312.050781 M 88.789062 302.777344 L 88.789062 303.265625 L 89.089844 302.960938 L 88.789062 302.777344 M 83.15625 310.292969 L 83.097656 310.292969 L 83.21875 310.351562 C 84.511719 310.796875 85.601562 311.445312 86.488281 312.292969 L 86.425781 312.351562 L 86.546875 312.414062 C 87.113281 312.980469 87.597656 313.644531 88 314.414062 L 88.96875 317.078125 L 90.484375 315.929688 L 90.726562 316.292969 L 90.785156 316.351562 L 94.722656 313.382812 L 94.601562 313.261719 L 97.023438 311.324219 L 95.933594 309.503906 L 94.296875 307.324219 C 93.328125 306.191406 92.28125 305.203125 91.148438 304.355469 L 91.027344 304.234375 L 88.726562 305.929688 L 88.847656 306.050781 L 84.125 309.6875 L 84.066406 309.625 L 83.15625 310.292969 M 4.570312 369.429688 C 3.964844 369.914062 3.664062 370.359375 3.664062 370.765625 L 5.296875 372.945312 L 9.292969 376.097656 L 12.261719 375.609375 L 13.773438 374.398438 C 13.652344 373.671875 12.90625 372.703125 11.535156 371.492188 L 9.597656 369.550781 C 8.507812 369.109375 7.316406 368.886719 6.023438 368.886719 C 5.945312 369.855469 5.460938 370.035156 4.570312 369.429688 M 100.171875 317.078125 L 98.960938 317.078125 L 111.976562 328.046875 L 100.957031 316.957031 L 100.171875 317.078125 M 98.113281 313.199219 L 96.296875 314.59375 L 96.417969 314.777344 L 97.75 315.746094 L 99.261719 315.320312 L 98.234375 313.382812 L 98.113281 313.199219 M 46.226562 342.832031 C 46.832031 343.394531 47.316406 344.0625 47.679688 344.832031 L 48.648438 347.496094 L 50.160156 346.34375 L 51.917969 345.011719 L 56.457031 341.679688 L 56.578125 341.738281 L 56.699219 341.859375 L 59.121094 339.921875 L 59.0625 339.742188 L 58.03125 338.105469 L 56.398438 335.921875 C 55.429688 334.792969 54.359375 333.78125 53.1875 332.894531 L 53.128906 332.832031 L 50.828125 334.53125 L 50.949219 334.589844 L 43.742188 340.042969 L 42.773438 340.710938 C 44.105469 341.15625 45.21875 341.800781 46.105469 342.648438 L 46.105469 342.710938 L 46.164062 342.832031 L 46.226562 342.832031 M 60.273438 341.921875 L 60.210938 341.800781 L 58.394531 343.195312 L 58.457031 343.316406 L 59.847656 344.34375 L 61.363281 343.921875 L 60.273438 341.921875 M 61.058594 345.679688 L 74.078125 356.644531 L 63.058594 345.558594 L 62.269531 345.679688 L 61.058594 345.679688 M 43.257812 342.46875 C 42.453125 342.0625 41.484375 341.859375 40.351562 341.859375 L 39.988281 341.859375 L 39.6875 341.4375 L 36.296875 340.589844 L 36.296875 340.347656 L 33.9375 341.132812 C 32.121094 343.074219 27.597656 346.464844 20.375 351.3125 C 15.125 354.828125 11.980469 357.859375 10.929688 360.402344 L 12.5625 360.644531 L 13.59375 359.855469 C 13.632812 360.542969 14.15625 361.070312 15.167969 361.433594 L 14.984375 361.554688 C 16.238281 362.199219 17.347656 363.128906 18.316406 364.339844 L 18.011719 364.160156 L 18.132812 364.460938 L 18.375 364.460938 L 18.4375 364.523438 L 18.316406 364.523438 L 18.4375 364.582031 C 19.042969 365.351562 19.585938 366.238281 20.070312 367.25 L 20.738281 368.765625 L 21.34375 368.339844 L 21.28125 368.886719 C 21.28125 369.691406 21.421875 370.359375 21.707031 370.886719 L 21.523438 371.066406 L 22.007812 373.855469 L 24.792969 372.097656 L 25.882812 371.914062 L 24.792969 371.613281 L 28.425781 368.824219 L 28.972656 368.644531 L 29.273438 368.765625 L 34.785156 364.21875 C 41.847656 358.28125 45.902344 354.324219 46.953125 352.34375 L 47.253906 351.738281 L 46.46875 352.28125 L 46.527344 351.496094 C 46.449219 350.929688 46.265625 350.382812 45.984375 349.859375 L 45.984375 349.132812 L 46.042969 347.375 L 47.011719 348.707031 L 46.105469 345.859375 L 45.316406 344.648438 C 44.953125 343.921875 44.492188 343.335938 43.925781 342.890625 L 43.683594 342.46875 L 43.257812 342.46875 M 50.886719 331.5 L 50.949219 331.4375 L 50.886719 331.378906 L 50.886719 331.5 M 10.867188 361.976562 C 10.746094 361.898438 10.648438 361.835938 10.566406 361.796875 L 10.566406 362.28125 L 10.867188 361.976562 M 8.566406 366.402344 L 8.386719 366.523438 L 8.6875 366.523438 C 9.777344 366.523438 10.769531 366.90625 11.65625 367.671875 C 12.382812 368.320312 13.046875 369.230469 13.652344 370.398438 L 14.136719 371.371094 C 14.621094 372.015625 14.984375 372.621094 15.226562 373.1875 L 16.378906 372.277344 L 18.800781 370.339844 L 17.710938 368.523438 L 16.074219 366.339844 C 15.066406 365.167969 13.976562 364.140625 12.804688 363.25 L 10.503906 364.945312 L 8.566406 366.402344 M 8.144531 367.371094 L 7.902344 366.886719 L 7.476562 367.25 L 8.144531 367.371094 M 19.890625 372.21875 L 18.074219 373.613281 L 19.527344 374.761719 L 21.039062 374.339844 L 19.890625 372.21875 M 20.738281 376.097656 L 33.753906 387.0625 C 30.082031 383.589844 26.40625 379.894531 22.734375 375.976562 L 21.949219 376.097656 L 20.738281 376.097656 M 9.65625 376.761719 L 8.265625 376.21875 L 8.808594 376.761719 L 9.65625 376.761719 "/>
<path style=" stroke:none;fill-rule:evenodd;fill:rgb(74.117649%,70.19608%,61.56863%);fill-opacity:1;" d="M 312.558594 141.300781 L 313.164062 142.453125 L 314.617188 146.390625 L 297.605469 158.992188 L 297.363281 154.996094 L 296.636719 153.296875 L 296.878906 153.359375 L 305.714844 147.179688 C 308.945312 144.875 311.226562 142.917969 312.558594 141.300781 M 295.183594 154.753906 C 295.585938 155.316406 295.847656 155.964844 295.96875 156.691406 L 296.152344 159.113281 L 296.394531 159.964844 L 294.214844 161.597656 C 293.929688 159.863281 293.425781 158.429688 292.699219 157.296875 L 295.183594 154.753906 M 290.945312 158.265625 L 291.550781 159.601562 L 292.277344 162.75 L 292.335938 162.933594 L 274.898438 175.839844 C 274.578125 173.578125 274.050781 171.820312 273.324219 170.566406 L 273.871094 170.6875 L 273.808594 170.6875 L 273.871094 170.75 L 275.503906 169.597656 L 275.808594 169.414062 L 276.835938 168.6875 L 283.132812 164.570312 C 286.082031 162.667969 288.683594 160.570312 290.945312 158.265625 M 290.761719 157.902344 L 290.824219 158.023438 L 290.640625 157.964844 L 290.761719 157.902344 M 265.273438 176.625 L 265.394531 176.625 L 265.457031 176.746094 L 265.941406 176.566406 C 266.542969 176.566406 267.777344 175.898438 269.632812 174.566406 C 271.449219 173.234375 272.355469 172.386719 272.355469 172.019531 L 272.417969 172.019531 L 272.78125 172.992188 L 273.628906 176.746094 L 265.757812 182.5625 L 265.457031 182.503906 L 265.273438 176.625 M 277.5625 167.839844 L 277.5625 167.660156 L 277.625 167.78125 L 277.5625 167.839844 M 422.261719 56.53125 C 422.746094 56.492188 423.109375 56.269531 423.351562 55.867188 C 427.589844 53.441406 431.707031 50.25 435.703125 46.292969 C 436.671875 46.980469 437.417969 47.867188 437.945312 48.957031 L 439.519531 52.535156 L 425.894531 62.714844 L 422.988281 64.894531 L 422.808594 64.652344 C 422.445312 61.785156 421.738281 59.664062 420.6875 58.289062 L 421.292969 57.5625 C 422.34375 58.007812 423.109375 58.550781 423.59375 59.199219 L 425.652344 62.410156 L 426.320312 61.804688 C 425.753906 59.179688 424.402344 57.421875 422.261719 56.53125 M 435.582031 46.171875 L 435.339844 46.109375 L 435.402344 46.050781 L 435.582031 46.171875 M 422.082031 56.472656 L 422.082031 56.410156 L 422.140625 56.472656 L 422.082031 56.472656 M 408.398438 68.289062 L 408.582031 68.289062 L 408.640625 68.226562 L 408.761719 68.226562 L 409.609375 67.742188 L 409.550781 67.558594 L 419.175781 59.257812 C 419.902344 60.027344 420.445312 60.9375 420.808594 61.984375 L 422.019531 65.683594 L 412.214844 73.074219 C 411.566406 71.660156 410.457031 70.207031 408.882812 68.710938 L 408.398438 68.289062 L 408.339844 68.226562 L 408.339844 68.167969 L 408.339844 68.226562 L 408.398438 68.226562 L 408.398438 68.289062 M 392.535156 80.40625 L 392.71875 80.285156 L 393.019531 80.285156 L 400.527344 75.011719 C 404.886719 71.863281 407.066406 69.964844 407.066406 69.316406 L 406.824219 69.136719 L 406.945312 69.074219 C 409.40625 70.652344 410.859375 72.207031 411.304688 73.742188 L 394.171875 86.585938 L 393.203125 81.859375 L 392.535156 80.40625 M 392.476562 80.222656 L 392.535156 80.34375 L 392.476562 80.222656 M 440.183594 42.414062 C 441.558594 43.34375 442.527344 44.476562 443.089844 45.808594 L 444.242188 48.957031 L 440.304688 51.925781 C 439.984375 49.019531 439.136719 46.9375 437.761719 45.6875 L 437.824219 45.6875 L 439.15625 44.171875 C 439.839844 43.402344 440.183594 42.820312 440.183594 42.414062 M 387.511719 83.859375 L 387.511719 83.800781 C 389.894531 82.628906 391.082031 81.820312 391.082031 81.375 L 391.203125 81.316406 L 391.808594 82.769531 C 392.214844 84.871094 392.699219 86.382812 393.261719 87.3125 L 391.445312 88.644531 L 391.324219 88.523438 C 391.082031 87.355469 390.355469 86.203125 389.144531 85.070312 L 387.511719 83.859375 M 393.382812 79.617188 L 393.382812 79.496094 L 393.382812 79.617188 M 386.058594 84.769531 C 387.148438 85.210938 388.015625 85.738281 388.660156 86.34375 L 390.960938 88.949219 L 390.960938 89.011719 L 370.378906 104.523438 L 369.53125 100.160156 L 368.863281 98.402344 L 369.226562 98.402344 L 369.167969 98.523438 L 369.226562 98.644531 L 369.410156 98.644531 C 370.820312 97.269531 373.890625 94.929688 378.613281 91.617188 C 383.574219 87.414062 386.058594 85.132812 386.058594 84.769531 M 367.472656 99.492188 L 368.136719 101.613281 C 368.5 103.1875 368.925781 104.398438 369.410156 105.25 L 367.472656 106.703125 L 365.65625 104.15625 L 363.535156 102.523438 L 363.65625 102.523438 L 363.71875 102.460938 L 363.898438 102.402344 L 364.140625 102.039062 L 364.382812 101.792969 C 366.28125 100.703125 367.308594 99.9375 367.472656 99.492188 M 362.6875 103.550781 L 364.625 104.945312 L 366.804688 107.1875 L 347.429688 121.789062 L 345.191406 118.335938 L 344.160156 117.304688 L 344.464844 117.125 C 344.949219 117.125 348.238281 114.761719 354.332031 110.035156 C 358.734375 107.53125 361.519531 105.371094 362.6875 103.550781 M 340.105469 120.03125 L 340.226562 119.972656 L 340.289062 120.03125 C 340.609375 120.03125 341.035156 119.832031 341.558594 119.425781 L 342.222656 118.761719 L 342.585938 118.578125 L 343.796875 119.730469 L 346.28125 122.636719 L 341.863281 125.972656 C 341.699219 123.386719 341.113281 121.40625 340.105469 120.03125 M 342.34375 118.335938 L 342.285156 118.398438 L 342.164062 118.277344 L 342.222656 118.277344 L 342.34375 118.335938 M 338.957031 121.546875 L 339.5 122.761719 L 340.832031 126.757812 L 326.363281 137.605469 L 326.363281 136.816406 C 325.917969 135 325.332031 133.484375 324.605469 132.273438 L 325.03125 132.273438 C 326.886719 131.0625 329.226562 129.222656 332.054688 126.757812 C 336.371094 123.730469 338.671875 121.992188 338.957031 121.546875 M 322.972656 134.210938 L 323.214844 134.636719 L 325.394531 138.332031 L 324.425781 139.058594 L 315.828125 145.542969 C 315.546875 143.359375 314.941406 141.644531 314.011719 140.390625 L 314.253906 140.453125 C 316.472656 138.675781 319.378906 136.59375 322.972656 134.210938 M 239.179688 196.925781 L 239.238281 196.863281 L 239.785156 197.226562 C 240.632812 196.621094 241.054688 196.097656 241.054688 195.652344 L 241.054688 195.589844 L 241.117188 195.652344 L 241.722656 196.621094 C 243.296875 199.167969 244.082031 200.761719 244.082031 201.410156 L 243.960938 201.894531 L 243.296875 201.832031 L 242.570312 202.4375 C 241.398438 200.054688 240.269531 198.21875 239.179688 196.925781 "/>
<path style=" stroke:none;fill-rule:evenodd;fill:rgb(47.058824%,16.862746%,22.352941%);fill-opacity:1;" d="M 442.363281 41.992188 L 442.425781 41.929688 L 442.546875 41.992188 L 442.484375 42.113281 L 442.363281 41.992188 M 442.667969 42.292969 C 442.949219 42.171875 443.171875 42.070312 443.332031 41.992188 L 454.472656 37.871094 C 460.125 35.6875 463.3125 34.253906 464.039062 33.566406 C 464.925781 36.394531 465.59375 39.726562 466.035156 43.566406 L 465.914062 44.171875 L 445.753906 49.261719 L 445.269531 49.019531 L 445.269531 48.835938 C 444.785156 45.929688 443.917969 43.746094 442.667969 42.292969 M 124.386719 283.691406 L 124.75 283.8125 L 125.539062 283.390625 L 125.234375 283.328125 C 130.605469 280.460938 136.679688 276.359375 143.460938 271.027344 C 154.679688 262.183594 160.53125 257.578125 161.015625 257.214844 C 171.148438 249.742188 177.34375 245.335938 179.605469 244.003906 L 187.777344 237.21875 L 196.859375 230.3125 C 199.96875 228.007812 208.078125 222.191406 221.199219 212.859375 C 232.742188 204.457031 238.511719 199.792969 238.511719 198.863281 L 238.511719 198.742188 C 240.085938 200.195312 241.15625 201.628906 241.722656 203.042969 L 128.808594 287.996094 L 128.625 287.691406 L 128.382812 287.328125 L 126.871094 288.480469 L 125.902344 285.8125 L 124.386719 283.691406 M 103.925781 315.441406 C 106.546875 313.664062 110.28125 310.472656 115.125 305.871094 C 119.6875 301.507812 122.914062 298.175781 124.8125 295.871094 C 145.15625 316.3125 166.847656 331.621094 189.898438 341.800781 C 197.929688 345.355469 206.261719 348.363281 214.902344 350.828125 L 201.824219 349.980469 L 194.316406 348.949219 C 187.777344 347.777344 183.15625 347.191406 180.453125 347.191406 L 169.25 346.042969 L 163.863281 344.101562 L 141.21875 335.800781 C 132.863281 332.894531 124.167969 328.589844 115.125 322.894531 L 103.925781 315.441406 M 215.203125 350.890625 L 215.386719 350.949219 L 215.265625 351.3125 L 215.203125 350.890625 M 177 379.429688 L 163.921875 378.582031 L 156.414062 377.550781 C 149.878906 376.378906 145.253906 375.792969 142.550781 375.792969 L 131.351562 374.640625 L 125.960938 372.703125 L 103.320312 364.402344 C 94.964844 361.492188 86.265625 357.191406 77.222656 351.496094 L 66.023438 344.042969 C 68.648438 342.265625 72.382812 339.074219 77.222656 334.46875 C 81.785156 330.105469 85.015625 326.773438 86.910156 324.472656 C 107.253906 344.910156 128.949219 360.21875 151.996094 370.398438 C 160.027344 373.953125 168.363281 376.964844 177 379.429688 M 177.484375 379.550781 L 177.363281 379.914062 L 177.304688 379.488281 L 177.484375 379.550781 M 136.679688 409.84375 L 123.601562 408.996094 L 116.09375 407.96875 C 109.554688 406.796875 104.933594 406.210938 102.230469 406.210938 L 91.027344 405.058594 L 85.640625 403.121094 L 62.996094 394.820312 C 54.640625 391.910156 45.945312 387.609375 36.902344 381.914062 L 25.703125 374.460938 C 28.324219 372.683594 32.058594 369.492188 36.902344 364.886719 C 41.464844 360.523438 44.691406 357.191406 46.589844 354.886719 C 66.933594 375.328125 88.625 390.636719 111.675781 400.816406 C 119.707031 404.371094 128.039062 407.382812 136.679688 409.84375 M 137.164062 409.96875 L 137.042969 410.332031 L 136.980469 409.90625 L 137.164062 409.96875 M 83.15625 310.292969 L 83.21875 310.351562 L 83.097656 310.292969 L 83.15625 310.292969 M 86.546875 312.414062 L 86.730469 312.414062 L 91.210938 309.082031 L 91.632812 309.082031 L 94.238281 307.324219 L 94.296875 307.324219 L 95.933594 309.503906 L 97.023438 311.324219 L 94.601562 313.261719 L 94.722656 313.382812 L 90.785156 316.351562 L 90.726562 316.292969 L 90.484375 315.929688 L 88.96875 317.078125 L 88 314.414062 C 87.597656 313.644531 87.113281 312.980469 86.546875 312.414062 M 46.226562 342.832031 C 47.761719 342.265625 49.3125 341.296875 50.886719 339.921875 L 53.613281 337.679688 L 53.734375 337.679688 L 56.335938 335.921875 L 56.398438 335.921875 L 58.03125 338.105469 L 59.0625 339.742188 L 59.121094 339.921875 L 56.699219 341.859375 L 56.578125 341.738281 L 56.457031 341.679688 L 51.917969 345.011719 L 50.160156 346.34375 L 48.648438 347.496094 L 47.679688 344.832031 C 47.316406 344.0625 46.832031 343.394531 46.226562 342.832031 M 46.105469 342.648438 L 46.105469 342.589844 L 46.105469 342.710938 L 46.105469 342.648438 M 16.074219 366.339844 L 17.710938 368.523438 L 18.800781 370.339844 L 16.378906 372.277344 L 15.226562 373.1875 C 14.984375 372.621094 14.621094 372.015625 14.136719 371.371094 L 13.652344 370.398438 C 13.046875 369.230469 12.382812 368.320312 11.65625 367.671875 L 11.777344 367.550781 C 11.898438 367.753906 12.261719 367.914062 12.867188 368.035156 L 13.410156 368.097656 L 16.015625 366.339844 L 16.074219 366.339844 "/>
<path style=" stroke:none;fill-rule:evenodd;fill:rgb(71.372551%,23.137255%,21.568628%);fill-opacity:1;" d="M 442.363281 41.992188 C 441.394531 41.019531 440.226562 40.476562 438.851562 40.355469 L 439.578125 39.75 L 439.457031 39.628906 L 444.179688 28.722656 C 446.5625 23.671875 448.941406 21.148438 451.324219 21.148438 C 453.785156 21.148438 455.945312 21.855469 457.800781 23.265625 L 457.742188 23.328125 L 457.800781 23.875 L 458.527344 23.996094 L 458.648438 23.933594 C 460.871094 25.914062 462.625 28.984375 463.917969 33.144531 L 464.097656 33.023438 L 464.21875 33.265625 L 464.039062 33.566406 C 463.3125 34.253906 460.125 35.6875 454.472656 37.871094 L 443.332031 41.992188 C 443.171875 42.070312 442.949219 42.171875 442.667969 42.292969 L 442.425781 42.171875 L 442.484375 42.113281 L 442.546875 41.992188 L 442.425781 41.929688 L 442.363281 41.992188 M 238.511719 198.742188 L 238.511719 198.863281 C 238.511719 199.792969 232.742188 204.457031 221.199219 212.859375 C 208.078125 222.191406 199.96875 228.007812 196.859375 230.3125 L 187.777344 237.21875 L 179.605469 244.003906 C 177.34375 245.335938 171.148438 249.742188 161.015625 257.214844 C 160.53125 257.578125 154.679688 262.183594 143.460938 271.027344 C 136.679688 276.359375 130.605469 280.460938 125.234375 283.328125 L 125.539062 283.390625 L 124.75 283.8125 L 124.386719 283.691406 C 123.5 282.84375 122.429688 282.199219 121.179688 281.753906 L 120.996094 281.691406 L 121.964844 281.027344 L 122.027344 281.085938 L 234.699219 195.710938 L 238.390625 198.621094 L 238.453125 198.5625 L 238.511719 198.742188 M 103.925781 315.441406 L 115.125 322.894531 C 124.167969 328.589844 132.863281 332.894531 141.21875 335.800781 L 163.863281 344.101562 L 169.25 346.042969 L 180.453125 347.191406 C 183.15625 347.191406 187.777344 347.777344 194.316406 348.949219 L 201.824219 349.980469 L 214.902344 350.828125 L 215.203125 350.828125 L 215.203125 350.890625 L 215.265625 351.3125 L 215.386719 350.949219 C 233.386719 356.039062 252.742188 358.746094 273.445312 359.070312 L 272.054688 359.433594 L 267.027344 361.070312 C 261.417969 362.683594 253.507812 363.492188 243.296875 363.492188 C 232.882812 363.492188 212.480469 360.90625 182.085938 355.738281 C 175.347656 355.050781 168.242188 353.554688 160.773438 351.253906 C 154.398438 349.3125 149.675781 347.457031 146.609375 345.679688 C 131.109375 336.589844 117 327.035156 104.289062 317.019531 L 103.078125 315.988281 L 103.015625 315.929688 L 102.894531 315.503906 C 102.894531 315.382812 103.136719 315.320312 103.621094 315.320312 L 103.925781 315.441406 M 66.023438 344.042969 L 77.222656 351.496094 C 86.265625 357.191406 94.964844 361.492188 103.320312 364.402344 L 125.960938 372.703125 L 131.351562 374.640625 L 142.550781 375.792969 C 145.253906 375.792969 149.878906 376.378906 156.414062 377.550781 L 163.921875 378.582031 L 177 379.429688 L 177.304688 379.429688 L 177.304688 379.488281 L 177.363281 379.914062 L 177.484375 379.550781 C 195.488281 384.640625 214.839844 387.347656 235.546875 387.667969 L 234.152344 388.03125 L 229.128906 389.667969 C 223.519531 391.285156 215.605469 392.09375 205.394531 392.09375 C 194.980469 392.09375 174.578125 389.507812 144.1875 384.335938 C 137.445312 383.648438 130.339844 382.15625 122.875 379.851562 C 116.496094 377.914062 111.773438 376.054688 108.707031 374.277344 C 93.207031 365.1875 79.101562 355.636719 66.386719 345.617188 L 65.175781 344.585938 L 65.117188 344.527344 L 64.996094 344.101562 L 65.722656 343.921875 L 66.023438 344.042969 M 25.703125 374.460938 L 36.902344 381.914062 C 45.945312 387.609375 54.640625 391.910156 62.996094 394.820312 L 85.640625 403.121094 L 91.027344 405.058594 L 102.230469 406.210938 C 104.933594 406.210938 109.554688 406.796875 116.09375 407.96875 L 123.601562 408.996094 L 136.679688 409.84375 L 136.980469 409.84375 L 136.980469 409.90625 L 137.042969 410.332031 L 137.164062 409.96875 C 155.164062 415.054688 174.519531 417.761719 195.222656 418.085938 L 193.832031 418.449219 L 188.808594 420.085938 C 183.195312 421.703125 175.285156 422.507812 165.074219 422.507812 C 154.660156 422.507812 134.257812 419.925781 103.863281 414.753906 C 97.125 414.066406 90.019531 412.574219 82.550781 410.269531 C 76.175781 408.332031 71.453125 406.472656 68.386719 404.695312 C 52.886719 395.605469 38.777344 386.054688 26.066406 376.035156 C 25.824219 375.671875 25.417969 375.328125 24.855469 375.003906 L 24.792969 374.945312 L 24.671875 374.519531 C 24.671875 374.398438 24.914062 374.339844 25.398438 374.339844 L 25.703125 374.460938 M 83.21875 310.351562 L 83.15625 310.292969 L 84.066406 309.625 L 84.125 309.6875 L 88.847656 306.050781 L 88.726562 305.929688 L 91.027344 304.234375 L 91.148438 304.355469 C 92.28125 305.203125 93.328125 306.191406 94.296875 307.324219 L 94.238281 307.324219 L 91.632812 309.082031 L 91.210938 309.082031 L 86.730469 312.414062 L 86.546875 312.414062 L 86.425781 312.351562 L 86.488281 312.292969 C 85.601562 311.445312 84.511719 310.796875 83.21875 310.351562 M 4.570312 369.429688 C 5.460938 370.035156 5.945312 369.855469 6.023438 368.886719 C 7.316406 368.886719 8.507812 369.109375 9.597656 369.550781 L 11.535156 371.492188 C 12.90625 372.703125 13.652344 373.671875 13.773438 374.398438 L 12.261719 375.609375 L 9.292969 376.097656 L 5.296875 372.945312 L 3.664062 370.765625 C 3.664062 370.359375 3.964844 369.914062 4.570312 369.429688 M 56.398438 335.921875 L 56.335938 335.921875 L 53.734375 337.679688 L 53.613281 337.679688 L 50.886719 339.921875 C 49.3125 341.296875 47.761719 342.265625 46.226562 342.832031 L 46.164062 342.832031 L 46.105469 342.710938 L 46.105469 342.589844 L 46.105469 342.648438 C 45.21875 341.800781 44.105469 341.15625 42.773438 340.710938 L 43.742188 340.042969 L 50.949219 334.589844 L 50.828125 334.53125 L 53.128906 332.832031 L 53.1875 332.894531 C 54.359375 333.78125 55.429688 334.792969 56.398438 335.921875 M 8.6875 366.523438 L 8.566406 366.402344 L 10.503906 364.945312 L 12.804688 363.25 C 13.976562 364.140625 15.066406 365.167969 16.074219 366.339844 L 16.015625 366.339844 L 13.410156 368.097656 L 12.867188 368.035156 C 12.261719 367.914062 11.898438 367.753906 11.777344 367.550781 L 11.65625 367.671875 C 10.769531 366.90625 9.777344 366.523438 8.6875 366.523438 "/>
<path style=" stroke:none;fill-rule:evenodd;fill:rgb(86.274511%,82.745099%,76.862746%);fill-opacity:1;" d="M 296.636719 153.296875 L 296.515625 153.238281 L 296.574219 153.175781 C 295.765625 151.925781 294.476562 151.175781 292.699219 150.933594 L 308.742188 138.816406 C 310.480469 139.421875 311.75 140.230469 312.558594 141.242188 L 312.800781 141 L 312.558594 141.300781 C 311.226562 142.917969 308.945312 144.875 305.714844 147.179688 L 296.878906 153.359375 L 296.636719 153.296875 M 292.699219 157.296875 L 292.640625 157.359375 L 292.335938 157.238281 L 292.519531 156.933594 C 291.507812 155.519531 290.136719 154.589844 288.402344 154.148438 L 291.429688 151.90625 C 293.042969 152.589844 294.234375 153.460938 295 154.511719 L 295.242188 154.269531 L 295.425781 154.449219 L 295.183594 154.753906 L 292.699219 157.296875 M 290.824219 158.023438 L 291.066406 158.144531 L 290.945312 158.265625 C 288.683594 160.570312 286.082031 162.667969 283.132812 164.570312 L 276.835938 168.6875 L 275.808594 169.414062 L 275.503906 169.597656 L 273.871094 170.75 L 273.808594 170.6875 L 273.871094 170.6875 L 273.324219 170.566406 C 272.4375 169.074219 271.246094 168.324219 269.753906 168.324219 L 269.691406 168.265625 L 287.371094 154.933594 C 288.824219 155.742188 289.957031 156.730469 290.761719 157.902344 L 290.640625 157.964844 L 290.824219 158.023438 M 272.417969 172.019531 L 272.355469 172.019531 C 272.355469 172.386719 271.449219 173.234375 269.632812 174.566406 C 267.777344 175.898438 266.542969 176.566406 265.941406 176.566406 L 265.457031 176.746094 L 265.394531 176.625 L 265.273438 176.625 L 265.273438 176.566406 C 264.910156 174.949219 264.246094 173.796875 263.277344 173.113281 L 269.328125 168.566406 C 270.742188 169.535156 271.773438 170.6875 272.417969 172.019531 M 277.5625 167.839844 L 277.625 167.78125 L 277.5625 167.660156 L 277.5625 167.839844 M 435.703125 46.292969 C 431.707031 50.25 427.589844 53.441406 423.351562 55.867188 C 423.109375 56.269531 422.746094 56.492188 422.261719 56.53125 L 422.140625 56.53125 L 422.140625 56.472656 L 422.082031 56.410156 L 422.082031 56.472656 L 418.507812 55.804688 L 432.917969 44.839844 L 433.039062 45.019531 L 435.402344 46.050781 L 435.339844 46.109375 L 435.582031 46.171875 L 435.703125 46.230469 L 435.703125 46.292969 M 421.292969 57.5625 L 420.6875 58.289062 L 420.628906 58.289062 L 420.265625 58.230469 L 420.445312 57.988281 L 418.992188 56.835938 L 420.808594 57.378906 L 421.355469 56.957031 L 421.476562 57.136719 L 421.292969 57.5625 M 419.175781 59.257812 L 409.550781 67.558594 L 409.609375 67.742188 L 408.761719 68.226562 L 408.640625 68.226562 L 408.582031 68.289062 L 408.398438 68.289062 L 408.398438 68.226562 L 408.339844 68.226562 L 408.339844 68.167969 L 408.339844 68.226562 C 407.167969 67.21875 406.015625 66.53125 404.886719 66.167969 L 416.574219 57.320312 L 418.992188 59.078125 L 419.296875 58.773438 L 419.417969 59.015625 L 419.175781 59.257812 M 406.945312 69.074219 L 406.824219 69.136719 L 407.066406 69.316406 C 407.066406 69.964844 404.886719 71.863281 400.527344 75.011719 L 393.019531 80.285156 L 392.71875 80.285156 L 392.535156 80.40625 L 392.535156 80.34375 L 392.476562 80.222656 C 391.710938 78.972656 390.679688 78.203125 389.386719 77.921875 L 403.496094 67.257812 L 406.945312 69.074219 M 433.644531 44.292969 L 437.761719 41.140625 L 440.003906 42.292969 L 440.125 42.171875 L 440.183594 42.414062 C 440.183594 42.820312 439.839844 43.402344 439.15625 44.171875 L 437.824219 45.6875 L 437.460938 45.6875 L 437.398438 45.566406 L 437.460938 45.445312 C 436.410156 44.675781 435.140625 44.292969 433.644531 44.292969 M 393.382812 79.617188 L 393.382812 79.496094 L 393.382812 79.617188 M 391.203125 81.316406 L 391.082031 81.375 C 391.082031 81.820312 389.894531 82.628906 387.511719 83.800781 L 387.511719 83.859375 C 386.300781 83.171875 384.929688 82.707031 383.394531 82.464844 L 388.601562 78.527344 C 389.691406 79.296875 390.558594 80.222656 391.203125 81.316406 M 368.863281 98.402344 C 368.097656 96.828125 367.046875 95.976562 365.714844 95.855469 L 381.820312 83.679688 L 385.875 84.707031 L 385.9375 84.648438 L 386.058594 84.769531 C 386.058594 85.132812 383.574219 87.414062 378.613281 91.617188 C 373.890625 94.929688 370.820312 97.269531 369.410156 98.644531 L 369.226562 98.644531 L 369.167969 98.523438 L 369.226562 98.402344 L 368.863281 98.402344 M 363.535156 102.523438 L 363.171875 102.460938 L 363.292969 102.402344 C 361.882812 101.714844 360.265625 101.351562 358.449219 101.308594 L 365.050781 96.339844 C 366.019531 97.070312 366.785156 98.039062 367.351562 99.25 L 367.410156 99.25 L 367.472656 99.371094 L 367.472656 99.492188 C 367.308594 99.9375 366.28125 100.703125 364.382812 101.792969 L 364.140625 102.039062 L 363.898438 102.402344 L 363.71875 102.460938 L 363.65625 102.523438 L 363.535156 102.523438 M 362.6875 103.550781 C 361.519531 105.371094 358.734375 107.53125 354.332031 110.035156 C 348.238281 114.761719 344.949219 117.125 344.464844 117.125 L 344.160156 117.304688 L 344.039062 117.304688 L 343.980469 117.183594 C 342.808594 116.335938 341.234375 115.871094 339.257812 115.792969 L 357.601562 101.976562 L 357.601562 102.039062 C 359.5 102.359375 361.09375 102.824219 362.386719 103.429688 L 362.566406 103.066406 L 362.871094 103.1875 L 362.6875 103.550781 M 340.105469 120.03125 L 339.984375 119.972656 L 340.046875 119.910156 C 339.15625 118.78125 337.964844 118.113281 336.472656 117.914062 L 338.167969 116.640625 C 339.78125 117.003906 341.136719 117.550781 342.222656 118.277344 L 342.164062 118.277344 L 342.285156 118.398438 L 342.34375 118.335938 L 342.34375 118.277344 L 342.890625 118.398438 L 342.585938 118.578125 L 342.222656 118.761719 L 341.558594 119.425781 C 341.035156 119.832031 340.609375 120.03125 340.289062 120.03125 L 340.226562 119.972656 L 340.105469 120.03125 M 324.605469 132.273438 L 324.546875 132.152344 C 323.699219 130.738281 322.667969 129.769531 321.457031 129.242188 L 335.6875 118.519531 C 337.097656 119.328125 338.148438 120.253906 338.835938 121.304688 L 338.894531 121.246094 L 338.957031 121.425781 L 338.957031 121.546875 C 338.671875 121.992188 336.371094 123.730469 332.054688 126.757812 C 329.226562 129.222656 326.886719 131.0625 325.03125 132.273438 L 324.605469 132.273438 M 314.011719 140.390625 L 313.949219 140.332031 L 314.011719 140.332031 C 313.003906 139.039062 311.648438 138.25 309.953125 137.96875 L 319.945312 130.394531 L 322.789062 134.03125 L 323.09375 133.789062 L 323.214844 134.03125 L 322.972656 134.210938 C 319.378906 136.59375 316.472656 138.675781 314.253906 140.453125 L 314.011719 140.390625 M 241.054688 195.589844 L 241.054688 195.652344 C 241.054688 196.097656 240.632812 196.621094 239.785156 197.226562 L 239.238281 196.863281 L 239.179688 196.925781 C 238.089844 195.710938 237.039062 194.984375 236.03125 194.742188 L 238.632812 192.683594 L 238.816406 192.5 L 240.8125 195.226562 L 240.875 195.167969 L 241.054688 195.589844 "/>
<path style=" stroke:none;fill-rule:evenodd;fill:rgb(49.019608%,45.882353%,47.058824%);fill-opacity:1;" d="M 121.480469 283.449219 L 121.480469 284.480469 L 122.027344 285.269531 C 120.050781 286.964844 116.578125 290.257812 111.613281 295.144531 L 105.015625 300.171875 C 103.761719 300.941406 102.792969 301.789062 102.109375 302.71875 L 101.804688 303.023438 L 101.746094 302.902344 L 100.535156 303.992188 C 99.160156 304.878906 97.871094 305.382812 96.660156 305.507812 L 96.597656 305.445312 L 96.78125 305.445312 L 96.539062 305.324219 C 95.609375 304.191406 94.558594 303.304688 93.390625 302.65625 L 93.207031 302.535156 L 93.390625 302.414062 C 92.542969 302.09375 92.039062 301.6875 91.875 301.203125 L 91.816406 300.839844 L 90.785156 301.628906 L 89.152344 301.386719 C 90.199219 298.839844 93.347656 295.8125 98.597656 292.296875 C 105.820312 287.449219 110.34375 284.054688 112.160156 282.117188 L 114.519531 281.328125 L 114.519531 281.570312 L 117.363281 282.238281 L 117.910156 282.421875 L 118.210938 282.84375 L 118.574219 282.84375 L 119.605469 282.90625 L 121.480469 283.449219 M 58.636719 333.921875 C 57.667969 332.753906 56.597656 331.84375 55.429688 331.195312 L 55.308594 331.136719 L 55.488281 331.015625 C 54.480469 330.652344 53.957031 330.125 53.914062 329.441406 L 52.886719 330.226562 L 52.644531 330.167969 L 51.25 329.984375 C 52.300781 327.441406 55.449219 324.410156 60.695312 320.894531 C 67.921875 316.050781 72.441406 312.65625 74.257812 310.71875 L 76.617188 309.929688 L 76.617188 310.171875 L 79.039062 310.71875 L 80.007812 311.019531 L 80.3125 311.445312 L 80.675781 311.445312 L 81.644531 311.503906 L 83.582031 312.050781 L 83.582031 313.078125 L 84.125 313.867188 L 73.714844 323.742188 L 67.113281 328.773438 C 65.863281 329.539062 64.894531 330.390625 64.207031 331.316406 L 63.90625 331.621094 L 63.84375 331.5 L 62.632812 332.589844 C 61.261719 333.480469 59.96875 333.984375 58.757812 334.105469 L 58.699219 334.042969 L 58.878906 334.042969 L 58.636719 333.921875 M 98.113281 313.199219 L 98.234375 313.382812 L 99.261719 315.320312 L 97.75 315.746094 L 96.417969 314.777344 L 96.296875 314.59375 L 98.113281 313.199219 M 60.273438 341.921875 L 61.363281 343.921875 L 59.847656 344.34375 L 58.457031 343.316406 L 58.394531 343.195312 L 60.210938 341.800781 L 60.273438 341.921875 M 18.316406 364.339844 C 17.347656 363.128906 16.238281 362.199219 14.984375 361.554688 L 15.167969 361.433594 C 14.15625 361.070312 13.632812 360.542969 13.59375 359.855469 L 12.5625 360.644531 L 10.929688 360.402344 C 11.980469 357.859375 15.125 354.828125 20.375 351.3125 C 27.597656 346.464844 32.121094 343.074219 33.9375 341.132812 L 36.296875 340.347656 L 36.296875 340.589844 L 39.6875 341.4375 L 39.988281 341.859375 L 40.351562 341.859375 C 41.484375 341.859375 42.453125 342.0625 43.257812 342.46875 L 43.257812 343.496094 L 43.804688 344.285156 L 33.390625 354.160156 L 26.792969 359.191406 C 25.539062 359.957031 24.570312 360.804688 23.886719 361.734375 L 23.582031 362.039062 L 23.523438 361.917969 L 22.3125 363.007812 C 20.9375 363.898438 19.648438 364.402344 18.4375 364.523438 L 18.375 364.460938 L 18.558594 364.460938 L 18.316406 364.339844 M 19.890625 372.21875 L 21.039062 374.339844 L 19.527344 374.761719 L 18.074219 373.613281 L 19.890625 372.21875 "/>
<path style=" stroke:none;fill-rule:evenodd;fill:rgb(95.294118%,62.352943%,57.254905%);fill-opacity:1;" d="M 273.445312 359.070312 L 276.535156 358.644531 L 278.109375 358.886719 L 277.441406 359.070312 L 277.5625 359.070312 L 277.625 359.191406 C 276.777344 359.59375 275.828125 360.058594 274.777344 360.585938 L 273.023438 362.339844 L 270.054688 363.070312 C 256.171875 366.339844 247.472656 368.90625 243.960938 370.765625 C 242.914062 371.046875 231.792969 371.1875 210.601562 371.1875 C 186.585938 371.1875 161.039062 361.816406 133.953125 343.074219 C 121.160156 334.226562 110.484375 325.398438 101.925781 316.59375 L 102.652344 316.230469 L 102.59375 316.171875 L 102.894531 315.867188 L 103.078125 315.988281 L 104.289062 317.019531 C 117 327.035156 131.109375 336.589844 146.609375 345.679688 C 149.675781 347.457031 154.398438 349.3125 160.773438 351.253906 C 168.242188 353.554688 175.347656 355.050781 182.085938 355.738281 C 212.480469 360.90625 232.882812 363.492188 243.296875 363.492188 C 253.507812 363.492188 261.417969 362.683594 267.027344 361.070312 L 272.054688 359.433594 L 273.445312 359.070312 M 65.175781 344.585938 L 66.386719 345.617188 C 79.101562 355.636719 93.207031 365.1875 108.707031 374.277344 C 111.773438 376.054688 116.496094 377.914062 122.875 379.851562 C 130.339844 382.15625 137.445312 383.648438 144.1875 384.335938 C 174.578125 389.507812 194.980469 392.09375 205.394531 392.09375 C 215.605469 392.09375 223.519531 391.285156 229.128906 389.667969 L 234.152344 388.03125 L 235.546875 387.667969 L 238.632812 387.246094 L 240.207031 387.488281 L 239.542969 387.667969 L 239.664062 387.667969 L 239.722656 387.789062 L 236.878906 389.183594 L 235.121094 390.941406 L 232.15625 391.667969 C 218.269531 394.941406 209.574219 397.503906 206.0625 399.363281 C 205.011719 399.644531 193.890625 399.789062 172.703125 399.789062 C 148.6875 399.789062 123.136719 390.414062 96.054688 371.671875 C 83.257812 362.824219 72.582031 354 64.027344 345.195312 L 64.753906 344.832031 L 64.691406 344.769531 L 64.996094 344.464844 L 65.175781 344.585938 M 24.855469 375.003906 C 25.417969 375.328125 25.824219 375.671875 26.066406 376.035156 C 38.777344 386.054688 52.886719 395.605469 68.386719 404.695312 C 71.453125 406.472656 76.175781 408.332031 82.550781 410.269531 C 90.019531 412.574219 97.125 414.066406 103.863281 414.753906 C 134.257812 419.925781 154.660156 422.507812 165.074219 422.507812 C 175.285156 422.507812 183.195312 421.703125 188.808594 420.085938 L 193.832031 418.449219 L 195.222656 418.085938 L 198.3125 417.660156 L 199.886719 417.90625 L 199.21875 418.085938 L 199.339844 418.085938 L 199.402344 418.207031 C 198.554688 418.613281 197.605469 419.074219 196.554688 419.601562 L 194.800781 421.359375 L 191.832031 422.085938 C 177.949219 425.355469 169.25 427.921875 165.738281 429.78125 C 164.691406 430.0625 153.570312 430.203125 132.378906 430.203125 C 108.363281 430.203125 82.816406 420.832031 55.730469 402.089844 C 42.9375 393.242188 32.261719 384.417969 23.703125 375.609375 L 24.429688 375.246094 L 24.371094 375.1875 L 24.671875 374.882812 L 24.855469 375.003906 "/>
<path style=" stroke:none;fill-rule:evenodd;fill:rgb(72.156864%,73.725492%,75.686276%);fill-opacity:1;" d="M 121.480469 283.449219 L 121.90625 283.449219 L 122.148438 283.875 C 122.714844 284.320312 123.175781 284.90625 123.539062 285.632812 L 124.328125 286.84375 L 125.234375 289.691406 L 124.265625 288.359375 L 124.207031 290.117188 L 124.207031 290.84375 L 124.449219 291.328125 L 124.75 292.480469 L 124.691406 293.265625 L 124.871094 293.328125 L 125.175781 293.328125 C 124.125 295.304688 120.070312 299.265625 113.007812 305.203125 L 107.496094 309.746094 L 107.195312 309.625 C 107.03125 309.625 106.851562 309.6875 106.648438 309.808594 L 103.015625 312.59375 L 103.015625 313.078125 L 100.230469 314.835938 L 99.808594 312.230469 L 99.746094 312.050781 L 99.929688 311.867188 C 99.644531 311.34375 99.503906 310.675781 99.503906 309.867188 L 99.566406 309.324219 L 98.960938 309.746094 L 98.292969 308.234375 C 97.808594 307.222656 97.265625 306.332031 96.660156 305.566406 L 96.539062 305.507812 L 96.660156 305.507812 C 97.871094 305.382812 99.160156 304.878906 100.535156 303.992188 L 101.746094 302.902344 L 101.804688 303.023438 L 102.109375 302.71875 C 102.792969 301.789062 103.761719 300.941406 105.015625 300.171875 L 111.613281 295.144531 C 116.578125 290.257812 120.050781 286.964844 122.027344 285.269531 L 121.480469 284.480469 L 121.480469 283.449219 M 96.539062 305.324219 L 96.78125 305.445312 L 96.355469 305.445312 L 96.234375 305.140625 L 96.539062 305.324219 M 266.058594 365.796875 L 255.527344 370.824219 C 253.304688 371.632812 249.453125 372.417969 243.960938 373.1875 L 231.003906 375.003906 L 230.21875 375.1875 C 213.75 375.066406 200.007812 373.953125 188.988281 371.855469 C 167.3125 367.773438 149.433594 359.757812 135.347656 347.800781 L 130.746094 343.921875 C 137.929688 349.253906 145.035156 353.675781 152.054688 357.191406 C 172.601562 367.453125 197.019531 372.582031 225.316406 372.582031 C 234.03125 372.582031 242.691406 371.652344 251.289062 369.792969 L 256.554688 368.523438 L 266 365.675781 L 266.058594 365.796875 M 187.839844 424.8125 L 177.304688 429.839844 C 175.082031 430.648438 171.230469 431.4375 165.738281 432.203125 L 152.78125 434.023438 L 151.996094 434.203125 C 135.527344 434.082031 121.785156 432.972656 110.765625 430.871094 C 89.089844 426.792969 71.210938 418.773438 57.125 406.816406 L 52.523438 402.9375 C 59.707031 408.269531 66.8125 412.695312 73.835938 416.207031 C 94.378906 426.46875 118.796875 431.597656 147.09375 431.597656 C 155.808594 431.597656 164.46875 430.667969 173.066406 428.8125 L 178.332031 427.539062 L 187.777344 424.691406 L 187.839844 424.8125 M 228.160156 394.394531 C 222.429688 397.261719 218.917969 398.9375 217.625 399.421875 C 215.40625 400.230469 211.550781 401.019531 206.0625 401.785156 L 193.105469 403.605469 L 192.316406 403.785156 C 175.851562 403.664062 162.105469 402.554688 151.089844 400.453125 C 129.414062 396.375 111.53125 388.355469 97.445312 376.398438 L 92.84375 372.519531 C 100.03125 377.851562 107.132812 382.277344 114.15625 385.789062 C 134.699219 396.050781 159.121094 401.179688 187.414062 401.179688 C 196.132812 401.179688 204.789062 400.25 213.386719 398.394531 L 218.65625 397.121094 L 228.097656 394.273438 L 228.160156 394.394531 M 58.636719 333.921875 L 58.878906 334.042969 L 58.457031 334.042969 L 58.335938 333.742188 L 58.636719 333.921875 M 58.757812 334.105469 C 59.96875 333.984375 61.261719 333.480469 62.632812 332.589844 L 63.84375 331.5 L 63.90625 331.621094 L 64.207031 331.316406 C 64.894531 330.390625 65.863281 329.539062 67.113281 328.773438 L 73.714844 323.742188 L 84.125 313.867188 L 83.582031 313.078125 L 83.582031 312.050781 L 84.003906 312.050781 L 84.246094 312.472656 C 84.8125 312.917969 85.277344 313.503906 85.640625 314.230469 L 86.425781 315.441406 L 87.335938 318.289062 L 86.367188 316.957031 L 86.304688 318.714844 L 86.304688 319.441406 L 86.367188 319.5625 L 86.851562 321.078125 L 86.789062 321.867188 L 86.972656 321.925781 L 87.273438 321.925781 C 86.226562 323.90625 82.167969 327.863281 75.105469 333.800781 L 69.597656 338.347656 L 69.292969 338.226562 L 68.75 338.40625 L 65.117188 341.195312 L 65.117188 341.679688 L 62.332031 343.4375 L 61.847656 340.769531 L 61.847656 340.648438 L 62.027344 340.46875 C 61.746094 339.941406 61.605469 339.277344 61.605469 338.46875 L 61.664062 337.921875 L 61.058594 338.347656 L 61.058594 338.285156 L 60.394531 336.832031 C 59.910156 335.820312 59.363281 334.933594 58.757812 334.164062 L 58.636719 334.105469 L 58.757812 334.105469 M 100.171875 317.078125 L 100.957031 316.957031 L 111.976562 328.046875 L 98.960938 317.078125 L 100.171875 317.078125 M 61.058594 345.679688 L 62.269531 345.679688 L 63.058594 345.558594 L 74.078125 356.644531 L 61.058594 345.679688 M 18.316406 364.339844 L 18.558594 364.460938 L 18.132812 364.460938 L 18.011719 364.160156 L 18.316406 364.339844 M 18.4375 364.523438 C 19.648438 364.402344 20.9375 363.898438 22.3125 363.007812 L 23.523438 361.917969 L 23.582031 362.039062 L 23.886719 361.734375 C 24.570312 360.804688 25.539062 359.957031 26.792969 359.191406 L 33.390625 354.160156 L 43.804688 344.285156 L 43.257812 343.496094 L 43.257812 342.46875 L 43.683594 342.46875 L 43.925781 342.890625 C 44.492188 343.335938 44.953125 343.921875 45.316406 344.648438 L 46.105469 345.859375 L 47.011719 348.707031 L 46.042969 347.375 L 45.984375 349.132812 L 45.984375 349.859375 C 46.265625 350.382812 46.449219 350.929688 46.527344 351.496094 L 46.46875 352.28125 L 46.953125 352.34375 C 45.902344 354.324219 41.847656 358.28125 34.785156 364.21875 L 29.273438 368.765625 L 28.972656 368.644531 L 28.425781 368.824219 L 24.792969 371.613281 L 24.792969 372.097656 L 22.007812 373.855469 L 21.523438 371.066406 L 21.707031 370.886719 C 21.421875 370.359375 21.28125 369.691406 21.28125 368.886719 L 21.34375 368.339844 L 20.738281 368.765625 L 20.070312 367.25 C 19.585938 366.238281 19.042969 365.351562 18.4375 364.582031 L 18.316406 364.523438 L 18.4375 364.523438 M 20.738281 376.097656 L 21.949219 376.097656 L 22.734375 375.976562 C 26.40625 379.894531 30.082031 383.589844 33.753906 387.0625 L 20.738281 376.097656 "/>
<path style=" stroke:none;fill-rule:evenodd;fill:rgb(21.568628%,21.960784%,18.431373%);fill-opacity:1;" d="M 471 22.296875 L 471.425781 22.539062 L 477.539062 19.207031 C 479.839844 17.957031 481.253906 16.886719 481.777344 15.996094 L 481.898438 16.117188 L 478.8125 21.933594 C 477.195312 22.660156 474.632812 24.117188 471.121094 26.296875 L 469.304688 27.449219 L 471 22.296875 M 484.199219 14.664062 L 484.320312 14.84375 L 484.925781 14.964844 L 485.53125 14.542969 C 486.742188 14.421875 488.054688 13.753906 489.46875 12.542969 L 493.222656 11.453125 C 495.441406 10.847656 496.550781 10.320312 496.550781 9.875 L 496.730469 9.996094 C 496.125 11.613281 495.441406 13.027344 494.671875 14.238281 L 493.160156 14.964844 C 488.960938 17.308594 485.167969 19.226562 481.777344 20.722656 L 483.292969 17.148438 L 484.199219 14.664062 M 462.039062 26.84375 L 462.039062 26.78125 L 462.039062 26.84375 M 462.464844 27.449219 L 462.644531 27.507812 C 465.671875 26.296875 467.632812 25.308594 468.519531 24.539062 L 466.882812 29.085938 C 465.351562 30.175781 464.582031 30.941406 464.582031 31.386719 L 462.464844 27.449219 M 484.925781 101.976562 L 484.988281 101.976562 L 485.167969 102.039062 C 485.570312 101.714844 487.75 100.582031 491.707031 98.644531 C 493.847656 97.59375 495.339844 96.5625 496.1875 95.554688 L 496.066406 98.28125 C 496.066406 100.503906 496.367188 102.378906 496.972656 103.914062 L 488.195312 109.609375 L 483.957031 112.460938 L 483.050781 107.914062 C 483.050781 106.21875 483.675781 104.238281 484.925781 101.976562 M 475.90625 109.914062 L 476.148438 109.734375 C 476.148438 109.367188 477.195312 108.339844 479.296875 106.640625 L 482.382812 103.976562 C 481.980469 105.1875 481.777344 106.460938 481.777344 107.792969 L 482.203125 110.519531 C 482.484375 111.894531 482.765625 112.761719 483.050781 113.125 L 477.722656 117.183594 L 475.90625 109.914062 M 467.246094 120.03125 L 467.488281 120.03125 C 468.09375 118.054688 470.375 115.164062 474.332031 111.367188 L 474.511719 113.550781 C 474.835938 116.335938 475.542969 117.871094 476.632812 118.15625 L 475.421875 119.367188 C 473.5625 121.304688 472.210938 123.34375 471.363281 125.488281 L 467.609375 120.820312 L 467.246094 120.03125 M 462.765625 129.304688 L 463.070312 129.304688 L 463.070312 127.789062 C 463.273438 126.65625 463.796875 125.425781 464.644531 124.09375 L 465.007812 123.488281 L 465.066406 123.546875 L 465.550781 123.425781 C 465.792969 122.417969 466.117188 121.628906 466.519531 121.0625 L 466.882812 122.09375 C 468.175781 125.082031 469.507812 126.636719 470.878906 126.757812 C 470.355469 128.292969 470.09375 129.871094 470.09375 131.484375 L 469.972656 131.605469 C 469.40625 131.039062 468.863281 130.757812 468.335938 130.757812 L 465.308594 131.425781 L 465.25 131.183594 L 465.308594 130.152344 C 465.230469 129.75 464.847656 129.546875 464.160156 129.546875 L 462.828125 129.425781 L 462.765625 129.304688 M 463.855469 130.878906 L 463.917969 131.0625 L 463.070312 133.058594 L 461.070312 133.96875 L 461.253906 132.9375 C 461.09375 132.453125 460.203125 132.210938 458.589844 132.210938 C 457.097656 132.210938 456.347656 132.414062 456.347656 132.816406 L 455.441406 134.9375 L 452.960938 134.695312 C 454.535156 133.566406 455.320312 132.636719 455.320312 131.910156 L 454.714844 131.183594 L 456.226562 130.699219 L 457.4375 131.546875 C 457.640625 131.503906 458.730469 130.859375 460.707031 129.605469 L 461.3125 131.425781 L 461.796875 131.546875 L 463.855469 130.878906 M 464.523438 133.363281 L 464.886719 133.058594 C 465.652344 132.574219 466.804688 132.253906 468.335938 132.089844 C 468.457031 132.65625 468.820312 133.183594 469.425781 133.667969 C 469.992188 134.109375 470.273438 134.617188 470.273438 135.179688 L 470.09375 137.058594 L 468.335938 137.664062 L 469.367188 136.332031 C 468.679688 133.625 466.90625 132.898438 464.039062 134.152344 L 464.039062 134.089844 L 464.523438 133.363281 M 467.429688 138.574219 L 467.308594 139.058594 L 467.488281 140.089844 L 466.824219 139.96875 L 465.976562 140.269531 L 464.886719 141.664062 C 464.96875 140.695312 464.703125 140.109375 464.097656 139.90625 L 465.914062 139.96875 L 467.429688 138.574219 M 463.371094 139.847656 C 462.726562 140.25 462.242188 140.453125 461.917969 140.453125 C 461.71875 140.007812 461.09375 139.765625 460.042969 139.726562 L 459.617188 138.574219 L 459.980469 138.757812 C 460.667969 139.28125 461.796875 139.644531 463.371094 139.847656 M 459.316406 138.394531 L 458.105469 139.058594 L 458.042969 138.9375 C 457.800781 138.414062 457.054688 137.847656 455.804688 137.242188 L 455.867188 136.636719 L 456.347656 136.574219 L 459.316406 138.394531 M 498.304688 9.089844 C 498.304688 9.289062 498.570312 9.390625 499.09375 9.390625 C 500.144531 9.433594 501.414062 9.816406 502.90625 10.542969 C 504.078125 11.230469 504.945312 11.632812 505.511719 11.753906 L 504.542969 12.90625 L 504.542969 12.964844 L 501.816406 12.785156 L 497.035156 13.390625 L 498.304688 9.089844 M 521.496094 13.269531 L 521.796875 13.027344 C 523.53125 15.613281 525.167969 18.84375 526.703125 22.722656 L 528.035156 26.238281 L 527.972656 26.238281 L 527.367188 26.78125 L 527.488281 27.085938 L 523.070312 27.207031 L 522.949219 27.144531 L 523.128906 26.238281 C 523.128906 24.78125 522.886719 22.582031 522.402344 19.632812 C 522.402344 16.683594 522.101562 14.5625 521.496094 13.269531 M 523.191406 28.539062 L 524.339844 28.539062 C 526.679688 28.539062 528.054688 28.234375 528.457031 27.628906 C 529.304688 30.375 529.910156 32.941406 530.273438 35.324219 L 529.910156 35.265625 L 528.578125 35.75 L 523.492188 35.324219 L 523.492188 35.265625 L 523.796875 35.144531 L 523.796875 31.023438 C 523.59375 30.984375 523.492188 30.5 523.492188 29.570312 L 523.191406 28.539062 M 523.917969 36.78125 L 528.761719 37.265625 L 530.335938 36.234375 L 530.515625 39.324219 L 530.335938 46.414062 L 529.183594 46.472656 C 528.175781 46.796875 527.285156 46.617188 526.519531 45.929688 C 525.1875 45.203125 524.320312 44.65625 523.917969 44.292969 L 523.492188 43.746094 L 523.492188 41.746094 L 523.917969 36.78125 M 521.617188 59.984375 C 522.785156 59.097656 523.371094 54.511719 523.371094 46.230469 C 525.105469 47.445312 527.066406 48.050781 529.246094 48.050781 L 530.214844 48.050781 L 529.972656 49.746094 L 528.035156 62.53125 C 527.953125 63.824219 527.671875 65.21875 527.1875 66.710938 L 526.21875 65.863281 C 524.402344 64.207031 522.925781 62.371094 521.796875 60.351562 L 521.617188 59.984375 M 515.199219 73.558594 L 515.257812 73.558594 C 516.066406 72.710938 517.175781 70.894531 518.589844 68.105469 C 520.121094 65.15625 520.929688 62.996094 521.011719 61.621094 L 521.191406 62.105469 C 522.5625 65.742188 524.359375 67.84375 526.582031 68.410156 L 523.734375 74.105469 L 518.40625 82.40625 C 516.632812 79.132812 515.5625 76.183594 515.199219 73.558594 M 514.351562 75.921875 L 514.773438 77.980469 C 515.5 81.335938 516.367188 83.355469 517.378906 84.042969 L 516.289062 85.796875 C 514.390625 88.867188 511.949219 91.835938 508.960938 94.707031 L 508.296875 92.828125 C 507.488281 90.28125 507.085938 88.382812 507.085938 87.132812 L 507.144531 85.070312 L 507.265625 85.132812 L 507.507812 85.132812 C 511.304688 80.566406 513.582031 77.496094 514.351562 75.921875 M 498.125 93.25 C 502.160156 90.421875 504.722656 88.402344 505.8125 87.191406 C 505.8125 89.859375 505.894531 91.496094 506.054688 92.101562 C 506.460938 93.917969 506.921875 95.25 507.449219 96.097656 L 503.453125 99.371094 L 497.941406 103.308594 C 497.539062 101.695312 497.335938 100.078125 497.335938 98.460938 C 497.335938 96.96875 497.578125 95.269531 498.0625 93.371094 L 498.125 93.25 "/>
<path style=" stroke:none;fill-rule:evenodd;fill:rgb(34.901962%,34.117648%,28.235295%);fill-opacity:1;" d="M 471 22.296875 L 470.820312 21.8125 L 471.242188 21.269531 L 473.058594 14.300781 L 473 14.058594 L 473.726562 13.753906 C 474.976562 13.390625 475.863281 12.988281 476.390625 12.542969 L 484.261719 6.664062 C 483.816406 7.511719 483.535156 8.542969 483.414062 9.753906 L 482.808594 14.359375 L 481.898438 16.117188 L 481.777344 15.996094 C 481.253906 16.886719 479.839844 17.957031 477.539062 19.207031 L 471.425781 22.539062 L 471 22.296875 M 484.199219 14.664062 L 484.078125 14.300781 L 484.382812 13.9375 L 484.320312 13.816406 L 484.503906 13.574219 C 485.351562 10.746094 485.773438 8.300781 485.773438 6.242188 L 485.652344 5.695312 C 487.992188 4.160156 489.890625 3.152344 491.34375 2.667969 L 498.851562 1.574219 C 498.164062 2.382812 497.761719 3.554688 497.640625 5.089844 L 497.035156 9.148438 L 496.730469 9.996094 L 496.550781 9.875 C 496.550781 10.320312 495.441406 10.847656 493.222656 11.453125 L 489.46875 12.542969 C 488.054688 13.753906 486.742188 14.421875 485.53125 14.542969 L 484.925781 14.964844 L 484.320312 14.84375 L 484.199219 14.664062 M 462.039062 26.84375 L 459.132812 23.632812 L 467.367188 18.238281 L 471.0625 15.085938 L 471.484375 14.785156 C 471.121094 15.390625 470.859375 16.15625 470.699219 17.085938 L 469.851562 21.269531 L 469.003906 23.449219 L 469.0625 23.632812 L 468.519531 24.539062 C 467.632812 25.308594 465.671875 26.296875 462.644531 27.507812 L 462.464844 27.449219 L 462.039062 26.84375 L 462.039062 26.78125 L 462.039062 26.84375 M 484.925781 101.976562 L 485.957031 100.21875 L 488.800781 95.796875 L 488.800781 95.371094 L 497.578125 88.890625 C 496.894531 90.464844 496.449219 92.421875 496.246094 94.765625 L 496.429688 94.34375 L 496.792969 94.464844 L 496.1875 95.554688 C 495.339844 96.5625 493.847656 97.59375 491.707031 98.644531 C 487.75 100.582031 485.570312 101.714844 485.167969 102.039062 L 484.988281 101.976562 L 484.925781 101.976562 M 475.90625 109.914062 L 475.785156 109.914062 L 475.722656 109.734375 L 475.785156 109.550781 L 475.601562 108.761719 L 476.8125 104.703125 L 476.691406 104.582031 L 485.230469 97.917969 L 486.925781 96.707031 L 483.472656 101.492188 L 482.503906 103.613281 L 482.566406 103.792969 L 482.382812 103.976562 L 479.296875 106.640625 C 477.195312 108.339844 476.148438 109.367188 476.148438 109.734375 L 475.90625 109.914062 M 467.246094 120.03125 L 467.1875 120.03125 L 467.125 119.910156 L 467.1875 119.789062 L 466.640625 117.488281 L 466.21875 115.550781 C 468.035156 113.125 470.132812 110.742188 472.515625 108.398438 L 474.453125 106.582031 L 474.332031 108.703125 L 474.332031 110.945312 L 474.632812 111.066406 L 474.332031 111.367188 C 470.375 115.164062 468.09375 118.054688 467.488281 120.03125 L 467.246094 120.03125 M 458.832031 129.183594 L 460.042969 125.972656 L 460.40625 127.546875 L 460.648438 128.335938 L 458.832031 129.363281 L 458.832031 129.183594 M 462.765625 129.304688 L 462.644531 129.304688 L 462.523438 128.941406 L 462.523438 128.578125 L 460.828125 124.214844 C 462.039062 121.710938 463.554688 119.226562 465.371094 116.761719 L 465.308594 117.304688 C 465.632812 118.558594 466.015625 119.769531 466.460938 120.941406 L 466.582031 120.941406 L 466.519531 121.0625 C 466.117188 121.628906 465.792969 122.417969 465.550781 123.425781 L 465.066406 123.546875 L 465.007812 123.488281 L 464.644531 124.09375 C 463.796875 125.425781 463.273438 126.65625 463.070312 127.789062 L 463.070312 129.304688 L 462.765625 129.304688 M 463.070312 133.058594 L 463.554688 132.695312 L 464.402344 132.816406 L 464.523438 133.304688 L 464.523438 133.363281 L 464.039062 134.089844 L 464.039062 134.152344 C 466.90625 132.898438 468.679688 133.625 469.367188 136.332031 L 468.335938 137.664062 C 467.851562 137.90625 467.550781 138.210938 467.429688 138.574219 L 465.914062 139.96875 L 464.097656 139.90625 L 463.371094 139.847656 C 461.796875 139.644531 460.667969 139.28125 459.980469 138.757812 L 459.617188 138.574219 L 459.316406 138.394531 L 456.347656 136.574219 L 455.925781 136.273438 L 455.320312 135.484375 L 455.441406 134.9375 L 456.347656 132.816406 C 456.347656 132.414062 457.097656 132.210938 458.589844 132.210938 C 460.203125 132.210938 461.09375 132.453125 461.253906 132.9375 L 461.070312 133.96875 L 463.070312 133.058594 M 498.304688 9.089844 L 499.515625 2.121094 L 499.03125 1.574219 L 508.234375 1.332031 C 509.566406 1.332031 511.019531 1.878906 512.59375 2.96875 L 509.6875 7.089844 L 506.359375 10.847656 L 506.539062 11.148438 C 506.417969 11.554688 506.15625 11.753906 505.753906 11.753906 L 505.511719 11.753906 C 504.945312 11.632812 504.078125 11.230469 502.90625 10.542969 C 501.414062 9.816406 500.144531 9.433594 499.09375 9.390625 C 498.570312 9.390625 498.304688 9.289062 498.304688 9.089844 M 511.746094 15.695312 C 510.09375 14.441406 508.15625 13.59375 505.933594 13.148438 C 507.671875 11.652344 510.171875 8.484375 513.441406 3.636719 L 515.378906 5.453125 L 517.316406 7.453125 L 517.015625 7.753906 C 518.386719 8.804688 519.699219 10.179688 520.949219 11.875 C 518.691406 12.964844 516.429688 13.855469 514.167969 14.542969 C 512.59375 15.027344 511.808594 15.371094 511.808594 15.570312 L 511.746094 15.695312 M 521.496094 13.269531 C 522.101562 14.5625 522.402344 16.683594 522.402344 19.632812 C 522.886719 22.582031 523.128906 24.78125 523.128906 26.238281 L 522.949219 27.144531 L 523.070312 27.207031 L 521.796875 27.207031 L 517.984375 23.996094 C 517.296875 22.417969 516.085938 20.5 514.351562 18.238281 L 514.289062 18.238281 L 512.472656 16.300781 L 512.535156 16.238281 C 514.59375 16.238281 516.773438 15.695312 519.074219 14.601562 C 519.960938 14.199219 520.667969 13.816406 521.191406 13.453125 L 521.070312 12.964844 L 521.3125 12.90625 L 521.496094 13.269531 M 523.492188 35.324219 L 520.949219 34.417969 L 519.132812 33.144531 L 518.953125 32.054688 L 518.46875 26.84375 C 519.515625 27.730469 520.929688 28.277344 522.707031 28.476562 L 522.707031 28.054688 L 522.949219 28.054688 L 523.191406 28.539062 L 523.492188 29.570312 C 523.492188 30.5 523.59375 30.984375 523.796875 31.023438 L 523.796875 35.144531 L 523.492188 35.265625 L 523.492188 35.324219 M 523.492188 43.746094 L 523.492188 43.988281 L 523.25 43.988281 L 523.25 43.382812 C 522.039062 41.847656 521.109375 41 520.464844 40.839844 L 520.222656 39.324219 L 519.4375 34.960938 L 520.527344 35.566406 C 521.453125 36.050781 522.464844 36.4375 523.554688 36.71875 L 523.613281 36.171875 L 523.976562 36.171875 L 523.917969 36.78125 L 523.492188 41.746094 L 523.492188 43.746094 M 521.617188 59.984375 L 521.496094 60.046875 L 521.433594 59.925781 L 521.496094 59.621094 C 521.132812 58.695312 520.949219 57.460938 520.949219 55.925781 C 520.910156 54.070312 520.6875 52.714844 520.285156 51.867188 L 520.828125 45.746094 L 520.769531 43.6875 L 522.34375 45.382812 L 523.007812 45.929688 L 523.070312 45.503906 L 523.3125 45.503906 L 523.371094 45.988281 L 523.371094 46.230469 C 523.371094 54.511719 522.785156 59.097656 521.617188 59.984375 M 515.199219 73.558594 L 515.078125 73.5 L 515.199219 73.316406 L 515.078125 71.679688 L 516.046875 65.378906 L 516.105469 64.773438 C 517.601562 61.421875 518.75 58.207031 519.558594 55.140625 L 519.558594 55.199219 C 519.558594 56.734375 520 58.734375 520.890625 61.199219 L 520.949219 61.015625 L 521.011719 61.320312 L 521.011719 61.621094 C 520.929688 62.996094 520.121094 65.15625 518.589844 68.105469 C 517.175781 70.894531 516.066406 72.710938 515.257812 73.558594 L 515.199219 73.558594 M 507.144531 85.070312 C 507.308594 82.769531 507.769531 80.628906 508.539062 78.648438 L 508.597656 77.738281 C 510.578125 74.992188 512.414062 72.023438 514.109375 68.832031 L 513.804688 71.621094 L 514.289062 75.316406 L 514.59375 74.769531 L 514.652344 74.953125 L 514.351562 75.921875 C 513.582031 77.496094 511.304688 80.566406 507.507812 85.132812 L 507.265625 85.132812 L 507.144531 85.070312 M 498.125 93.25 L 497.761719 93.492188 L 497.699219 93.371094 L 498.183594 92.949219 C 498.589844 91.292969 498.789062 89.917969 498.789062 88.828125 L 498.488281 88.160156 L 499.152344 87.617188 C 501.816406 85.476562 504.28125 83.03125 506.539062 80.285156 L 506.296875 81.800781 L 505.875 86.40625 L 506.359375 85.917969 L 506.417969 86.164062 L 505.8125 87.191406 C 504.722656 88.402344 502.160156 90.421875 498.125 93.25 "/>
</g>
</svg>
