<?xml version="1.0" encoding="UTF-8"?>
<svg xmlns="http://www.w3.org/2000/svg" xmlns:xlink="http://www.w3.org/1999/xlink" width="246px" height="243px" viewBox="0 0 246 243" version="1.1">
<g id="surface1">
<path style=" stroke:none;fill-rule:evenodd;fill:rgb(0%,0%,0%);fill-opacity:1;" d="M 186.226562 136.230469 L 186.15625 135.945312 C 186.15625 135.285156 188.191406 134.953125 192.261719 134.953125 L 204.625 135.449219 L 214.804688 135.804688 L 214.878906 135.804688 L 214.441406 134.101562 L 214.222656 134.101562 L 214.222656 133.035156 L 213.785156 131.332031 L 213.496094 130.550781 L 213.421875 130.410156 L 211.824219 130.410156 C 210.078125 129.839844 208.648438 129.511719 207.53125 129.414062 L 205.640625 128.847656 C 204.625 128.65625 200.550781 128.5625 193.425781 128.5625 L 186.734375 128.847656 L 184.628906 129.699219 C 185.210938 130.503906 185.667969 132.5625 186.007812 135.875 L 186.15625 136.230469 L 186.15625 136.300781 L 187.246094 138.359375 L 189.570312 141.484375 C 191.460938 140.535156 196.527344 138.597656 204.769531 135.664062 C 200.988281 135.519531 196.84375 135.449219 192.335938 135.449219 L 186.953125 135.875 C 186.953125 136.113281 186.710938 136.230469 186.226562 136.230469 M 183.390625 129.414062 C 183.390625 129.179688 183.535156 128.917969 183.828125 128.632812 C 184.167969 128.113281 184.675781 127.6875 185.355469 127.355469 L 185.425781 127.5 C 186.734375 126.695312 188.722656 125.746094 191.390625 124.660156 C 196.578125 122.578125 200.457031 121.675781 203.023438 121.960938 L 203.097656 121.820312 L 209.058594 121.675781 L 211.679688 121.75 L 211.605469 121.535156 L 211.894531 121.464844 L 212.332031 121.820312 L 212.40625 121.820312 L 212.476562 122.175781 L 212.476562 122.316406 L 213.277344 122.53125 L 213.058594 122.8125 L 212.550781 122.8125 L 212.625 123.453125 L 212.839844 125.582031 L 212.988281 125.582031 L 213.785156 129.203125 L 214.078125 129.839844 C 214.417969 130.550781 214.585938 131.496094 214.585938 132.679688 L 214.585938 133.25 L 215.167969 135.945312 L 215.3125 136.015625 L 215.242188 136.230469 L 217.277344 145.601562 C 217.761719 147.824219 218.683594 151.136719 220.039062 155.539062 L 220.765625 160.507812 L 221.496094 163.0625 L 222.078125 163.136719 L 221.710938 163.347656 L 221.566406 163.347656 L 221.640625 163.417969 L 221.929688 164.199219 L 222.441406 164.199219 L 222.367188 164.484375 L 222.222656 164.484375 L 222.292969 164.554688 C 222.875 165.265625 223.699219 167.535156 224.765625 171.371094 C 226.707031 175.15625 227.722656 177.453125 227.820312 178.257812 L 227.964844 179.179688 C 228.207031 180.269531 228.597656 181.449219 229.128906 182.730469 L 229.640625 183.863281 L 230.292969 185.214844 L 231.238281 187.699219 L 234.65625 195.933594 L 236.328125 199.339844 L 236.402344 199.339844 L 236.402344 199.554688 L 237.203125 202.746094 L 237.347656 203.8125 L 237.636719 205.515625 L 237.929688 207.644531 L 238.21875 207.71875 L 238 208.070312 L 238.292969 209.421875 C 238.292969 211.078125 237.929688 212.378906 237.203125 213.324219 L 235.890625 215.597656 L 235.238281 216.378906 C 234.65625 216.992188 234.316406 217.890625 234.21875 219.074219 L 234.511719 219.429688 L 234.800781 218.578125 L 234.367188 221.703125 L 234 225.605469 L 234 226.101562 L 233.636719 230.433594 L 233.566406 231.5 L 233.710938 231.5 L 233.636719 231.78125 L 233.566406 231.78125 L 233.347656 234.550781 L 233.128906 234.90625 L 232.839844 235.332031 C 230.898438 237.792969 226.925781 239.945312 220.914062 241.792969 L 220.839844 241.722656 L 220.476562 241.792969 L 219.605469 242.929688 L 219.675781 243 L 219.457031 242.855469 L 218.660156 242.289062 L 218.148438 241.082031 L 216.914062 238.808594 L 215.824219 234.550781 L 215.53125 234.550781 L 215.242188 233.628906 L 215.242188 232.917969 L 214.949219 232.917969 L 214.878906 232.707031 L 216.550781 230.292969 L 216.550781 229.226562 L 216.839844 229.226562 L 216.984375 229.441406 L 217.785156 225.960938 L 215.824219 226.03125 C 214.027344 226.882812 212.960938 228.066406 212.625 229.582031 C 212.378906 230.433594 212.234375 231.78125 212.1875 233.628906 L 212.042969 233.628906 L 211.96875 233.910156 L 211.75 233.839844 L 210.585938 233.558594 L 206.660156 232.988281 L 206.441406 232.5625 C 206.878906 231.851562 207.097656 230.71875 207.097656 229.15625 L 207.097656 229.085938 L 206.804688 229.015625 L 206.734375 228.800781 L 206.804688 228.660156 L 207.097656 228.660156 C 207 227.617188 206.683594 226.8125 206.152344 226.246094 L 205.789062 225.890625 L 205.640625 226.101562 L 205.351562 226.742188 L 204.914062 226.246094 L 205.207031 225.960938 L 205.207031 225.820312 L 204.914062 225.109375 L 204.769531 225.109375 L 204.695312 224.824219 L 204.769531 224.824219 L 204.695312 224.542969 L 204.769531 224.542969 L 204.625 224.1875 L 204.332031 223.617188 L 204.40625 223.617188 L 204.117188 222.625 L 204.117188 219.785156 L 204.042969 219.785156 L 203.96875 219.5 L 204.042969 219.289062 L 204.117188 219.289062 C 204.117188 217.0625 204.210938 215.714844 204.40625 215.242188 C 204.695312 214.390625 205.351562 213.539062 206.371094 212.6875 L 206.371094 212.402344 L 206.734375 212.332031 L 206.804688 212.332031 L 208.113281 211.480469 L 209.570312 209.777344 L 209.640625 209.703125 L 209.496094 209.703125 L 209.421875 209.351562 L 212.769531 204.734375 C 213.980469 201.421875 214.367188 199.007812 213.933594 197.496094 L 214.003906 197.496094 C 213.324219 194.75 212.648438 192.644531 211.96875 191.175781 C 210.464844 188.054688 209.421875 185.425781 208.84375 183.296875 C 206.902344 179.746094 205.59375 177.097656 204.914062 175.34375 L 204.261719 175.628906 L 204.1875 175.417969 L 204.695312 174.917969 L 203.898438 173.214844 L 203.824219 173.074219 L 203.824219 173.214844 L 203.75 173.855469 L 203.460938 173.855469 C 199.144531 166.566406 196.527344 161.125 195.609375 157.527344 L 191.828125 149.363281 L 188.117188 141.269531 L 188.410156 141.199219 L 188.480469 141.339844 L 188.480469 141.199219 L 188.554688 141.199219 L 188.335938 140.84375 C 187.074219 139.09375 186.179688 137.671875 185.644531 136.585938 L 185.28125 135.378906 C 184.019531 132.824219 183.390625 131.070312 183.390625 130.125 L 183.464844 129.699219 L 183.390625 129.414062 M 195.316406 123.734375 C 191.148438 124.917969 187.730469 126.550781 185.0625 128.632812 L 193.425781 128.066406 L 206.953125 128.492188 C 207.679688 128.632812 208.234375 128.847656 208.625 129.132812 L 210.441406 129.769531 L 213.277344 130.054688 L 212.476562 127.710938 L 211.824219 122.742188 L 206.515625 122.246094 L 204.695312 122.246094 C 201.496094 122.386719 198.371094 122.882812 195.316406 123.734375 M 93.441406 4.542969 C 93.003906 6.628906 92.421875 7.90625 91.695312 8.378906 L 92.351562 8.378906 L 92.496094 8.589844 L 92.277344 8.804688 C 92.859375 9.324219 93.246094 10.199219 93.441406 11.429688 C 93.441406 12.328125 93.246094 13.253906 92.859375 14.199219 L 95.402344 17.675781 L 95.769531 17.675781 C 95.089844 18.8125 94.386719 19.382812 93.660156 19.382812 L 92.640625 19.382812 L 92.859375 21.226562 L 92.496094 23.355469 L 91.40625 24.207031 L 90.605469 25.203125 L 91.042969 25.273438 L 90.242188 25.699219 L 89.660156 25.984375 L 89.949219 26.195312 L 89.660156 26.410156 L 89.515625 26.339844 L 89.441406 26.339844 L 89.441406 27.6875 C 89.441406 30.8125 88.785156 33.175781 87.476562 34.785156 L 87.113281 34.785156 L 87.042969 34.855469 L 86.894531 34.855469 L 86.824219 35.070312 L 86.679688 35.140625 L 86.386719 35.070312 L 86.386719 34.855469 L 80.132812 34.785156 L 80.0625 34.574219 C 77.683594 34.667969 76.230469 34.90625 75.699219 35.28125 L 74.824219 36.488281 L 72.351562 38.335938 L 69.007812 40.039062 C 67.554688 40.84375 66.875 41.554688 66.972656 42.167969 L 66.753906 42.238281 L 66.609375 42.167969 L 66.464844 42.667969 L 66.316406 42.738281 L 66.246094 42.878906 L 66.316406 43.589844 L 66.246094 43.730469 L 65.953125 43.800781 L 65.882812 43.445312 L 64.136719 45.859375 L 64.355469 46.003906 L 64.355469 46.144531 L 64.0625 46.285156 L 63.773438 46.214844 L 63.191406 46.785156 C 62.367188 47.492188 61.761719 48.367188 61.371094 49.410156 L 61.445312 49.480469 L 61.226562 49.765625 L 61.15625 49.765625 L 59.046875 51.683594 L 57.15625 55.160156 L 53.445312 63.253906 L 53.59375 63.535156 L 53.300781 63.679688 L 53.15625 63.679688 L 51.484375 65.808594 L 49.957031 67.226562 L 50.320312 67.726562 L 50.027344 68.007812 L 49.375 67.796875 L 47.121094 70.421875 L 47.339844 70.566406 L 49.59375 68.292969 L 47.628906 70.777344 L 47.773438 70.847656 L 47.410156 70.992188 L 41.8125 77.308594 L 39.265625 79.367188 L 39.414062 79.4375 L 39.121094 79.722656 L 38.757812 79.652344 L 36.867188 80.789062 L 36.578125 81 L 36.429688 81 L 35.339844 81.566406 L 32.285156 83.484375 C 30.492188 84.480469 28.480469 84.976562 26.25 84.976562 L 23.777344 84.621094 L 23.34375 84.480469 C 22.371094 84.382812 20.652344 83.082031 18.179688 80.574219 C 15.902344 78.253906 14.496094 76.621094 13.960938 75.675781 C 12.699219 73.453125 12 71.84375 11.851562 70.847656 L 11.269531 66.09375 L 11.632812 64.957031 L 11.632812 65.027344 L 11.707031 64.957031 C 14.277344 56.25 21.765625 49.148438 34.175781 43.660156 L 39.195312 40.605469 L 39.195312 40.464844 L 39.414062 40.464844 C 46.488281 36.0625 51.070312 33.25 53.15625 32.019531 L 53.082031 31.945312 C 54.390625 31.140625 55.386719 29.792969 56.0625 27.898438 L 55.628906 27.6875 L 59.410156 21.722656 L 59.265625 21.652344 L 59.554688 21.441406 L 59.84375 21.015625 C 62.558594 18.554688 64.304688 16.566406 65.082031 15.050781 C 65.855469 13.488281 67.917969 10.957031 71.261719 7.457031 L 71.769531 6.957031 C 71.867188 6.628906 72.136719 6.296875 72.570312 5.964844 L 72.644531 6.105469 C 74.679688 4.023438 76.160156 2.792969 77.078125 2.414062 L 75.988281 2.34375 L 75.988281 2.058594 L 83.914062 2.058594 L 91.621094 1.917969 L 92.351562 2.414062 L 92.785156 2.699219 L 93.222656 3.410156 L 93.441406 4.542969 M 89.804688 3.265625 C 88.542969 6.628906 87.261719 8.566406 85.949219 9.089844 L 88.570312 9.089844 L 89.296875 8.945312 L 89.296875 8.804688 L 90.53125 4.261719 L 89.804688 3.265625 M 90.242188 8.09375 L 91.476562 7.171875 L 91.621094 7.3125 L 92.132812 6.601562 C 92.664062 5.847656 92.933594 5.183594 92.933594 4.617188 L 92.566406 3.335938 C 92.421875 3.101562 92.035156 2.886719 91.40625 2.699219 L 90.386719 2.699219 L 91.042969 4.332031 L 90.167969 8.023438 L 90.097656 8.09375 L 90.242188 8.09375 M 89.804688 9.015625 L 89.585938 9.015625 L 89.367188 9.160156 L 91.042969 9.160156 L 90.894531 9.089844 L 90.675781 9.089844 L 89.949219 8.804688 L 89.878906 8.875 L 89.804688 9.015625 M 92.421875 13.632812 L 92.933594 11.5 C 92.933594 10.839844 92.714844 10.34375 92.277344 10.011719 L 92.203125 9.941406 L 92.132812 9.941406 L 92.058594 9.867188 L 91.988281 9.867188 L 91.988281 11.429688 C 91.988281 12.851562 91.792969 13.914062 91.40625 14.625 L 91.550781 14.980469 L 91.839844 14.839844 L 91.914062 14.839844 L 92.203125 14.128906 L 91.988281 13.773438 L 92.351562 13.632812 L 92.421875 13.703125 L 92.421875 13.632812 M 90.675781 9.515625 L 89.367188 9.441406 L 91.1875 14.058594 L 91.550781 12.140625 C 91.5 11.097656 91.527344 10.320312 91.621094 9.796875 L 90.675781 9.515625 M 84.351562 15.335938 L 82.679688 15.265625 L 81.441406 15.121094 L 81.441406 14.839844 L 82.679688 14.765625 L 82.679688 14.625 L 83.988281 14.695312 L 83.695312 14.199219 L 83.261719 12.566406 L 83.261719 10.082031 L 82.898438 10.082031 L 82.96875 9.441406 L 81.589844 9.371094 L 81.515625 9.300781 L 80.714844 9.230469 L 80.933594 8.945312 L 81.660156 8.945312 L 82.96875 9.015625 L 83.113281 7.457031 C 83.113281 5.941406 81.976562 4.355469 79.699219 2.699219 L 79.261719 2.699219 C 78.386719 2.699219 77.441406 2.984375 76.425781 3.550781 C 77.007812 3.789062 77.46875 4.496094 77.808594 5.679688 L 78.753906 9.230469 C 79.382812 10.792969 79.792969 12.660156 79.988281 14.839844 L 80.351562 25.984375 L 80.351562 28.539062 C 81.175781 27.496094 81.78125 26.8125 82.167969 26.480469 C 83.382812 25.535156 83.988281 24.257812 83.988281 22.648438 L 82.023438 21.085938 C 82.121094 20.941406 82.242188 20.871094 82.386719 20.871094 L 84.859375 22.648438 C 85.199219 21.746094 85.34375 20.589844 85.296875 19.167969 C 85.246094 17.652344 85.320312 16.566406 85.515625 15.902344 L 85.441406 15.335938 L 85.152344 15.335938 L 85.222656 15.40625 L 85.152344 15.546875 L 84.789062 15.40625 L 84.570312 15.546875 C 84.425781 15.644531 84.351562 15.570312 84.351562 15.335938 L 84.425781 15.335938 L 84.351562 15.335938 M 85.078125 9.015625 C 86.726562 8.210938 87.839844 6.886719 88.421875 5.042969 L 89.441406 2.699219 L 85.515625 2.558594 L 85.585938 4.617188 C 85.585938 6.601562 85.394531 8.070312 85.003906 9.015625 L 85.078125 9.015625 M 85.296875 2.558594 L 80.859375 2.484375 C 81.441406 2.863281 82 3.527344 82.535156 4.472656 C 83.261719 5.796875 83.625 6.792969 83.625 7.457031 L 83.550781 9.015625 L 84.425781 9.015625 C 84.910156 8.210938 85.125 7.027344 85.078125 5.46875 C 85.03125 4.09375 85.101562 3.125 85.296875 2.558594 M 86.023438 9.796875 L 83.695312 9.515625 L 83.769531 12.210938 C 83.867188 13.15625 84.15625 14.011719 84.640625 14.765625 L 85.152344 14.765625 C 86.363281 13.867188 87.1875 12.992188 87.625 12.140625 L 88.277344 9.796875 L 86.023438 9.796875 M 88.785156 9.796875 L 88.496094 9.796875 L 88.496094 10.367188 C 88.496094 11.925781 87.550781 13.417969 85.660156 14.839844 L 89.949219 15.335938 L 90.824219 14.484375 L 88.933594 9.65625 L 88.785156 9.796875 M 85.804688 19.308594 C 85.757812 20.96875 85.539062 22.148438 85.152344 22.859375 L 86.316406 23.640625 L 86.386719 23.355469 L 86.53125 23.78125 L 88.714844 25.34375 L 88.785156 25.34375 C 87.285156 23.878906 86.316406 22.222656 85.878906 20.375 L 85.804688 19.308594 M 87.839844 22.859375 L 87.839844 22.148438 C 88.714844 21.15625 89.757812 19.308594 90.96875 16.613281 L 90.605469 16.328125 C 89.878906 15.855469 88.375 15.546875 86.097656 15.40625 C 86.339844 16.019531 86.410156 17.628906 86.316406 20.234375 L 87.839844 22.859375 M 84.640625 23.144531 L 84.132812 22.71875 L 84.132812 23.5 C 84.132812 25.25 82.847656 27.449219 80.277344 30.101562 L 80.277344 30.242188 L 80.714844 30.882812 L 80.496094 31.023438 C 80.789062 31.828125 81.152344 32.539062 81.589844 33.152344 C 83.429688 31.734375 84.691406 30.078125 85.371094 28.183594 L 86.242188 24.207031 L 84.859375 23.285156 L 84.714844 23.355469 L 84.570312 23.285156 L 84.640625 23.144531 M 88.132812 23.285156 L 89.152344 25.132812 L 90.242188 24.5625 L 90.460938 24.492188 L 91.988281 22.148438 L 91.988281 20.089844 L 91.914062 19.308594 L 91.769531 19.308594 L 91.621094 19.027344 L 91.839844 18.957031 L 91.769531 18.386719 L 91.695312 18.386719 L 91.257812 17.179688 C 91.164062 17.9375 90.144531 19.949219 88.207031 23.214844 L 88.058594 23.214844 L 88.132812 23.285156 M 86.605469 24.421875 L 86.53125 24.421875 L 86.53125 24.492188 L 86.460938 26.410156 L 86.894531 34.148438 L 87.1875 33.792969 L 87.695312 33.296875 L 87.988281 32.445312 L 88.714844 30.171875 C 88.714844 28.65625 88.785156 27.523438 88.933594 26.765625 L 89.003906 25.984375 L 86.605469 24.421875 M 89.078125 25.558594 L 89.003906 25.558594 L 89.078125 25.558594 M 91.914062 16.472656 L 91.839844 16.472656 L 91.914062 16.542969 L 92.421875 18.671875 L 94.75 18.175781 L 94.894531 18.03125 L 91.914062 16.472656 M 91.769531 16.042969 C 92.300781 16.042969 93.078125 16.351562 94.09375 16.96875 L 92.566406 14.695312 L 91.769531 16.042969 L 91.695312 16.117188 L 91.769531 16.042969 M 91.1875 15.265625 L 91.042969 15.050781 L 90.460938 15.476562 L 90.96875 15.691406 L 91.1875 15.265625 M 92.058594 23.074219 L 92.277344 22.433594 L 92.203125 22.648438 L 92.058594 23.074219 M 91.914062 23.074219 L 91.1875 24.066406 L 91.769531 23.5 L 91.914062 23.074219 M 90.53125 24.777344 L 90.167969 25.0625 L 90.3125 25.132812 L 91.042969 24.421875 L 90.53125 24.777344 M 75.84375 3.90625 L 72.644531 6.53125 L 72.5 9.015625 C 72.5 15.359375 74.875 22.199219 79.625 29.53125 L 79.84375 29.179688 L 79.769531 17.25 C 79.480469 12.09375 78.171875 7.644531 75.84375 3.90625 M 85.878906 28.964844 C 85.246094 30.195312 83.867188 31.640625 81.734375 33.296875 L 82.535156 34.148438 L 83.625 34.289062 C 84.496094 33.863281 85.125 33.933594 85.515625 34.503906 L 86.386719 34.574219 L 86.023438 28.609375 L 85.878906 28.964844 M 79.332031 29.886719 C 74.4375 22.882812 71.988281 15.949219 71.988281 9.089844 L 71.699219 7.527344 L 70.972656 8.308594 L 70.535156 8.804688 L 71.261719 18.601562 L 71.40625 20.589844 L 71.40625 20.941406 C 72.183594 25.109375 74.390625 28.753906 78.023438 31.875 L 78.898438 30.882812 L 78.898438 30.738281 L 79.332031 29.886719 M 74.316406 35.851562 L 74.679688 35.566406 C 75.601562 34.761719 76.351562 34.359375 76.933594 34.359375 L 80.0625 34.503906 L 81.371094 34.148438 L 80.570312 33.222656 L 79.84375 31.875 L 79.84375 30.527344 L 79.769531 30.597656 L 78.460938 32.230469 L 78.605469 32.371094 L 78.679688 32.515625 L 78.316406 32.65625 L 78.023438 32.65625 L 76.28125 34.21875 L 74.171875 35.921875 L 73.878906 35.992188 L 73.445312 35.851562 C 74.753906 35 76.109375 33.863281 77.515625 32.445312 C 76.351562 31.828125 74.996094 30.148438 73.445312 27.402344 C 72.378906 25.605469 71.675781 23.902344 71.335938 22.292969 C 70.945312 26.03125 69.46875 32.300781 66.898438 41.105469 C 67.625 40.300781 69.394531 39.164062 72.207031 37.695312 L 74.316406 35.851562 M 56.644531 27.332031 L 55.992188 29.460938 C 55.941406 36.941406 57.566406 43.304688 60.863281 48.558594 L 63.335938 45.363281 C 62.269531 44.558594 61.566406 43.496094 61.226562 42.167969 L 60.355469 38.546875 C 59.871094 37.414062 59.628906 35.117188 59.628906 31.664062 C 59.628906 28.917969 59.941406 25.4375 60.574219 21.226562 L 59.84375 21.867188 L 56.644531 27.332031 M 66.246094 41.53125 L 69.082031 30.386719 C 69.808594 25.652344 70.414062 22.246094 70.898438 20.164062 C 70.414062 17.558594 70.171875 14.71875 70.171875 11.644531 C 70.171875 10.320312 70.246094 9.441406 70.390625 9.015625 L 66.898438 13.277344 L 67.042969 13.84375 C 67.042969 15.121094 66.753906 16.875 66.171875 19.097656 L 66.171875 24.207031 L 65.953125 34.21875 C 65.953125 37.34375 66.027344 39.777344 66.171875 41.53125 L 66.171875 41.671875 L 66.246094 41.53125 M 66.246094 14.839844 L 63.628906 17.820312 L 60.789062 20.941406 L 61.082031 21.015625 C 60.453125 25.035156 60.136719 28.5625 60.136719 31.589844 C 60.136719 34.382812 60.453125 36.84375 61.082031 38.972656 L 61.953125 42.59375 L 63.480469 45.222656 L 65.734375 42.238281 L 65.445312 34.21875 C 65.445312 29.53125 65.519531 26.03125 65.664062 23.710938 L 65.664062 18.386719 C 65.710938 17.015625 65.90625 15.832031 66.246094 14.839844 M 66.679688 13.632812 L 66.679688 13.703125 L 66.898438 13.277344 L 66.679688 13.632812 M 39.558594 41.035156 C 41.0625 50.828125 44.453125 59.46875 49.738281 66.945312 L 51.265625 65.3125 L 52.792969 63.394531 C 52.210938 62.734375 51.386719 61.21875 50.320312 58.851562 C 48.816406 55.585938 47.871094 52.886719 47.484375 50.757812 C 46.03125 43.375 45.300781 39.140625 45.300781 38.050781 L 45.375 37.414062 L 44.066406 38.050781 L 39.558594 41.035156 M 30.539062 51.964844 C 35.632812 60.578125 41.011719 66.660156 46.683594 70.210938 L 49.082031 67.582031 C 48.113281 66.683594 46.976562 64.53125 45.664062 61.125 L 42.394531 54.378906 C 41.957031 53.433594 41.277344 51.042969 40.359375 47.210938 L 39.195312 41.316406 L 36.867188 42.738281 L 36.867188 42.808594 L 30.46875 46.359375 L 30.394531 51.964844 L 30.394531 52.035156 L 30.539062 51.964844 M 27.195312 48.203125 L 22.542969 50.828125 L 19.632812 53.8125 L 18.6875 54.875 C 19.316406 55.492188 19.753906 56.414062 19.996094 57.644531 C 20.289062 59.300781 20.652344 60.484375 21.085938 61.195312 L 25.597656 67.726562 L 30.6875 74.398438 L 33.011719 77.734375 C 33.886719 78.824219 35.023438 79.746094 36.429688 80.503906 L 38.175781 79.296875 L 35.996094 77.023438 C 34.636719 75.226562 33.789062 73.710938 33.449219 72.480469 C 33.011719 69.3125 32.40625 66.898438 31.632812 65.242188 C 30.566406 63.015625 30.03125 58.1875 30.03125 50.757812 L 30.175781 46.5 L 27.195312 48.203125 M 17.671875 55.941406 C 17.523438 67.109375 20.84375 76.550781 27.632812 84.265625 C 29.910156 83.886719 32.140625 83.058594 34.320312 81.78125 L 35.847656 80.859375 C 34.6875 80.335938 33.011719 78.65625 30.832031 75.816406 L 25.085938 68.007812 L 20.507812 61.335938 L 18.324219 55.160156 L 17.671875 55.941406 M 17.453125 56.226562 C 14.496094 59.679688 12.652344 63.039062 11.925781 66.304688 L 11.78125 66.375 L 12 69.855469 C 12.289062 71.796875 12.945312 73.453125 13.960938 74.824219 L 18.324219 79.722656 L 20.722656 82.207031 C 21.695312 83.199219 22.710938 83.816406 23.777344 84.054688 L 23.777344 84.125 C 24.117188 84.125 24.359375 84.265625 24.503906 84.550781 L 26.832031 84.40625 C 25.863281 83.554688 24.410156 81.542969 22.46875 78.375 C 21.113281 76.101562 20.140625 73.972656 19.5625 71.984375 C 18.058594 66.875 17.304688 62.636719 17.304688 59.277344 L 17.453125 56.226562 M 30.324219 54.238281 C 30.273438 57.691406 30.636719 60.507812 31.414062 62.683594 C 32.140625 64.671875 32.867188 67.511719 33.59375 71.203125 C 34.515625 74.183594 36.238281 76.765625 38.757812 78.941406 L 40.429688 77.734375 L 40.359375 77.523438 C 40.359375 77.097656 42.320312 74.800781 46.246094 70.636719 C 45.132812 70.066406 43.582031 68.835938 41.59375 66.945312 C 39.265625 64.71875 37.691406 63.039062 36.867188 61.902344 L 30.394531 52.460938 L 30.324219 54.238281 M 55.628906 30.242188 L 54.390625 31.804688 C 53.761719 32.609375 51.582031 34.050781 47.847656 36.136719 L 51.992188 43.445312 L 55.046875 47.28125 C 55.386719 47.800781 56.863281 48.84375 59.480469 50.402344 L 60.425781 49.195312 C 59.554688 48.0625 58.441406 45.386719 57.082031 41.175781 L 55.628906 32.65625 L 55.628906 30.242188 M 52.9375 62.046875 L 56.863281 54.875 L 57.664062 53.03125 L 57.738281 53.101562 L 58.535156 51.539062 L 59.191406 50.6875 C 56.816406 49.550781 55.289062 48.535156 54.609375 47.636719 L 51.703125 43.800781 L 47.484375 36.277344 L 45.738281 37.199219 C 46.660156 46.757812 49.011719 55.066406 52.792969 62.117188 L 53.15625 62.828125 L 53.59375 62.117188 L 55.046875 59.207031 L 55.335938 58.566406 L 53.519531 62.046875 L 53.226562 62.117188 L 52.9375 62.046875 M 46.757812 70.847656 L 46.101562 71.699219 L 46.976562 70.917969 L 46.757812 70.847656 M 41.59375 76.882812 C 42.515625 76.269531 43.460938 75.25 44.429688 73.832031 L 41.230469 77.167969 L 41.59375 76.882812 M 207.53125 135.804688 L 207.460938 136.089844 C 204.210938 136.515625 201.765625 137.058594 200.117188 137.722656 L 196.480469 139 C 195.121094 139.234375 193.839844 139.78125 192.625 140.632812 C 191.558594 141.390625 190.757812 141.765625 190.226562 141.765625 L 189.71875 141.765625 L 190.734375 143.046875 L 190.664062 143.683594 L 190.371094 143.683594 L 189.570312 142.621094 L 190.371094 144.039062 L 190.300781 144.179688 L 192.480469 148.296875 L 196.769531 147.589844 L 197.863281 147.375 C 198.878906 146.714844 201.496094 145.601562 205.714844 144.039062 C 207.074219 143.09375 210.03125 141.957031 214.585938 140.632812 L 215.894531 140.773438 L 214.949219 136.300781 L 207.53125 135.804688 M 217.058594 146.523438 L 215.96875 141.058594 C 209.617188 143.09375 206.320312 144.203125 206.078125 144.394531 C 202.925781 145.578125 200.671875 146.523438 199.316406 147.234375 L 203.824219 147.019531 L 217.496094 148.15625 L 217.058594 146.523438 M 192.699219 148.722656 L 196.40625 155.609375 L 196.554688 156.109375 L 208.914062 155.398438 L 219.457031 155.679688 L 217.496094 148.296875 L 203.824219 147.519531 L 198.226562 147.871094 L 197.863281 148.15625 L 197.5 148.085938 L 197.425781 148.015625 L 196.699219 148.15625 L 193.28125 148.722656 L 192.699219 148.722656 M 196.042969 156.25 L 195.972656 156.035156 L 194.226562 152.628906 L 196.042969 157.3125 L 196.625 158.59375 L 196.117188 156.535156 L 195.824219 156.390625 L 196.042969 156.25 M 219.457031 155.964844 L 208.84375 155.894531 L 197.425781 156.25 L 196.625 156.535156 C 197.109375 158.191406 198.417969 161.597656 200.550781 166.757812 L 200.625 166.757812 L 201.425781 168.316406 C 202.589844 167.132812 204.429688 165.976562 206.953125 164.839844 C 208.355469 164.175781 210.394531 163.277344 213.058594 162.140625 L 209.714844 161.359375 L 206.152344 160.152344 C 203.824219 159.539062 201.011719 159.183594 197.714844 159.089844 L 197.644531 158.875 L 197.714844 158.734375 L 199.96875 158.734375 C 203.21875 158.734375 205.667969 159.042969 207.316406 159.65625 L 210.515625 161.148438 L 213.933594 161.785156 L 214.296875 161.574219 L 214.441406 161.859375 L 220.914062 162.992188 L 220.332031 160.933594 L 219.605469 156.109375 L 219.605469 155.964844 L 219.53125 155.753906 L 219.457031 155.964844 M 208.550781 164.839844 C 204.964844 166.542969 202.636719 167.773438 201.570312 168.53125 L 205.132812 174.421875 L 205.859375 173.710938 L 205.859375 173.640625 L 205.933594 173.640625 L 210.222656 169.382812 C 212.210938 166.730469 215.652344 164.957031 220.550781 164.058594 L 221.496094 164.128906 L 221.132812 163.347656 L 213.714844 162.285156 L 208.550781 164.839844 M 214.660156 166.898438 L 210.515625 169.808594 L 207.023438 173.640625 L 220.1875 172.507812 L 222.585938 171.15625 L 223.96875 171.300781 C 222.707031 168.507812 221.929688 166.257812 221.640625 164.554688 C 218.730469 164.746094 216.40625 165.527344 214.660156 166.898438 M 210.152344 185.355469 C 215.484375 184.550781 221.300781 182.539062 227.601562 179.320312 L 227.382812 178.257812 L 224.113281 171.652344 L 216.621094 173.996094 L 206.585938 173.996094 L 205.425781 174.992188 L 205.789062 175.558594 L 205.859375 175.273438 L 206.078125 175.273438 C 206.5625 175.273438 207.605469 175.820312 209.207031 176.90625 C 212.066406 177.996094 216.984375 178.539062 223.96875 178.539062 L 225.347656 178.113281 L 226.949219 178.257812 L 226.875 178.539062 L 224.839844 178.609375 L 223.820312 179.035156 L 214.148438 178.683594 C 212.453125 178.398438 209.664062 177.355469 205.789062 175.558594 C 207.484375 178.398438 208.648438 180.835938 209.277344 182.871094 L 210.152344 185.355469 M 210.660156 186.632812 L 212.839844 186.632812 L 222.148438 187.699219 C 223.023438 187.699219 223.992188 187.957031 225.058594 188.480469 L 226.222656 188.761719 L 230.21875 188.976562 C 229.25 186.5625 228.695312 184.550781 228.546875 182.941406 L 228.183594 181.804688 L 227.601562 179.390625 C 226.4375 180.101562 223.96875 181.285156 220.1875 182.941406 C 215.871094 184.835938 213.445312 185.78125 212.914062 185.78125 L 210.296875 185.710938 L 210.660156 186.632812 M 212.839844 191.53125 C 213.664062 193.234375 214.199219 194.914062 214.441406 196.570312 L 214.878906 196.570312 L 223.3125 197.992188 L 226.003906 198.488281 L 227.09375 199.054688 L 235.164062 199.269531 L 234.367188 197.496094 L 233.128906 197.496094 C 227.214844 195.886719 220.113281 193.117188 211.824219 189.1875 L 212.839844 191.53125 M 211.679688 188.90625 L 212.1875 188.90625 C 212.71875 188.90625 216.039062 190.394531 222.148438 193.378906 L 227.019531 195.152344 L 229.929688 196.214844 L 232.621094 196.855469 L 234.148438 197.070312 L 233.203125 195.152344 L 231.53125 191.886719 L 231.09375 190.890625 L 230.367188 189.332031 L 226.730469 189.332031 L 210.878906 187.058594 L 211.679688 188.90625 M 214.585938 199.90625 C 214.585938 200.996094 214.296875 202.273438 213.714844 203.742188 L 213.714844 203.953125 L 212.914062 205.941406 L 214.003906 205.941406 L 216.621094 206.226562 L 217.058594 206.792969 L 229.421875 207.574219 C 227.046875 206.914062 224.378906 205.683594 221.421875 203.882812 L 214.585938 199.199219 L 214.585938 199.90625 M 214.585938 198.347656 L 214.660156 198.347656 L 222.078125 203.742188 C 224.113281 204.734375 227.578125 206.011719 232.476562 207.574219 L 236.984375 207.574219 L 236.328125 203.882812 L 236.621094 203.8125 L 237.054688 205.515625 C 236.667969 203.625 236.085938 201.660156 235.3125 199.625 L 225.203125 199.199219 C 225.445312 198.914062 224.886719 198.675781 223.53125 198.488281 L 214.515625 196.996094 L 214.585938 198.347656 M 185.0625 133.035156 L 183.828125 130.339844 C 183.875 131.046875 184.3125 132.300781 185.136719 134.101562 L 185.0625 133.035156 M 237.054688 208.070312 L 231.746094 208.144531 L 217.277344 207.289062 C 215.824219 206.722656 214.269531 206.414062 212.625 206.367188 L 211.53125 207.71875 L 210.878906 208.78125 L 212.042969 208.78125 C 214.757812 208.78125 217.808594 209.515625 221.203125 210.984375 L 226.585938 213.609375 C 229.640625 214.933594 232.0625 216.613281 233.855469 218.648438 L 234.292969 216.945312 L 236.183594 212.542969 L 236.472656 212.542969 L 236.546875 212.613281 L 237.417969 209.988281 L 237.054688 208.070312 M 233.855469 219.359375 L 226.65625 213.894531 C 223.265625 212.046875 217.980469 210.460938 210.804688 209.136719 L 210.734375 208.921875 L 208.84375 211.480469 C 209.8125 211.621094 213.203125 213.492188 219.023438 217.085938 L 223.96875 220.351562 C 225.082031 221.109375 226.269531 221.582031 227.53125 221.773438 L 230.148438 222.484375 L 231.894531 222.484375 C 232.765625 222.53125 233.394531 222.71875 233.785156 223.050781 L 233.929688 221.203125 L 233.855469 221.203125 L 233.785156 220.210938 L 233.855469 219.359375 M 234.367188 219.785156 L 234.21875 219.644531 L 234.21875 220.28125 L 234.367188 219.785156 M 233.785156 223.40625 C 229.566406 223.121094 226.367188 222.363281 224.183594 221.132812 C 222.246094 219.667969 220.597656 218.578125 219.242188 217.867188 L 208.625 211.90625 L 207.53125 213.042969 L 210.515625 216.734375 C 212.9375 220 214.636719 221.984375 215.605469 222.695312 C 220.355469 226.339844 226.074219 229.179688 232.765625 231.214844 L 233.566406 225.109375 L 233.785156 223.40625 M 226.875 234.480469 L 226.949219 234.339844 L 228.113281 234.339844 L 230.511719 234.835938 C 231.867188 234.835938 232.644531 234.550781 232.839844 233.984375 L 232.984375 234.265625 L 233.203125 233.839844 L 233.273438 231.710938 L 233.054688 233.132812 L 232.765625 233.132812 L 232.691406 231.925781 L 232.765625 231.570312 C 225.785156 229.535156 220.113281 226.71875 215.75 223.121094 C 213.8125 221.464844 210.902344 218.246094 207.023438 213.46875 C 205.761719 214.320312 205.0625 215.003906 204.914062 215.527344 C 204.671875 216.1875 204.550781 217.441406 204.550781 219.289062 L 205.207031 219.289062 C 207.097656 219.289062 209.15625 220.140625 211.386719 221.84375 C 213.277344 223.359375 214.34375 224.683594 214.585938 225.820312 C 214.925781 225.628906 215.289062 225.511719 215.675781 225.464844 L 217.785156 225.535156 L 217.785156 225.464844 L 218.078125 225.464844 L 218.148438 225.605469 L 218.222656 225.605469 L 218.222656 226.316406 C 218.222656 227.167969 217.808594 228.421875 216.984375 230.078125 L 216.984375 230.292969 L 217.421875 231.285156 L 217.421875 230.078125 L 217.929688 230.078125 L 222.65625 232.5625 L 225.277344 233.910156 L 226.804688 234.480469 L 226.875 234.550781 L 226.875 234.480469 M 223.3125 237.746094 L 223.457031 237.816406 L 223.75 237.746094 L 225.710938 238.597656 L 225.710938 238.667969 L 226.367188 238.953125 C 226.996094 238.621094 227.699219 238.289062 228.476562 237.957031 L 231.964844 235.402344 L 232.039062 235.332031 L 231.53125 235.332031 L 231.675781 235.332031 L 227.238281 234.765625 L 228.476562 235.332031 L 226.367188 235.191406 C 225.492188 234.386719 224.183594 233.675781 222.441406 233.058594 C 220.550781 231.828125 218.972656 230.953125 217.714844 230.433594 C 217.859375 232.28125 219.726562 234.691406 223.3125 237.675781 L 223.238281 237.746094 L 223.3125 237.746094 M 223.023438 237.957031 C 220.644531 236.398438 219.023438 234.835938 218.148438 233.273438 L 219.675781 237.886719 L 219.675781 241.4375 C 219.96875 241.105469 220.332031 240.820312 220.765625 240.585938 L 220.914062 240.941406 L 220.765625 241.296875 L 222.804688 240.230469 L 222.949219 240.585938 L 225.785156 239.234375 L 225.492188 239.234375 L 225.203125 239.164062 L 224.695312 238.953125 L 223.75 238.738281 L 223.75 238.527344 L 223.023438 238.101562 L 223.023438 237.957031 M 232.476562 234.90625 L 232.183594 235.117188 L 232.328125 235.046875 L 232.476562 234.90625 M 210.878906 208.640625 L 211.167969 208.144531 L 210.441406 209.066406 L 210.878906 208.640625 M 205.277344 224.398438 L 207.242188 224.398438 C 209.472656 224.398438 211 224.824219 211.824219 225.675781 L 212.914062 227.382812 L 212.914062 227.453125 C 213.300781 226.742188 213.785156 226.222656 214.367188 225.890625 L 211.75 222.835938 L 208.332031 220.28125 C 207.363281 219.761719 206.101562 219.570312 204.550781 219.714844 L 204.550781 222.835938 L 204.84375 223.832031 L 205.277344 224.398438 M 205.789062 225.039062 L 206.953125 226.386719 C 207.289062 226.90625 207.484375 227.664062 207.53125 228.660156 L 211.96875 228.660156 L 212.257812 229.015625 L 212.695312 227.808594 L 211.097656 226.316406 C 210.757812 225.984375 209.058594 225.535156 206.007812 224.96875 L 205.789062 225.039062 M 205.496094 225.464844 L 205.570312 225.605469 L 205.496094 225.464844 M 206.953125 232.5625 L 207.75 232.5625 C 208.71875 232.5625 209.398438 232.753906 209.789062 233.132812 L 210.515625 232.632812 C 210.707031 232.492188 211.167969 232.777344 211.894531 233.484375 L 211.824219 233.132812 L 211.96875 230.859375 C 209.835938 230.90625 208.285156 231.355469 207.316406 232.207031 L 207.023438 232.207031 L 206.953125 232.5625 M 207.53125 229.15625 L 207.242188 231.5 C 207.53125 231.214844 208.089844 230.953125 208.914062 230.71875 L 212.042969 230.292969 L 212.1875 229.441406 L 207.53125 229.085938 L 207.53125 229.15625 M 215.75 233.484375 L 215.75 232.777344 L 215.96875 232.777344 L 216.476562 231.144531 L 215.53125 232.707031 L 215.75 233.484375 M 216.257812 234.550781 C 216.742188 237.25 217.714844 239.804688 219.167969 242.21875 L 219.3125 241.863281 C 219.410156 239.78125 218.585938 236.300781 216.839844 231.425781 L 216.257812 234.480469 L 216.257812 234.550781 "/>
<path style=" stroke:none;fill-rule:evenodd;fill:rgb(100%,100%,100%);fill-opacity:1;" d="M 186.15625 136.230469 L 186.007812 135.875 C 185.667969 132.5625 185.210938 130.503906 184.628906 129.699219 L 186.734375 128.847656 L 193.425781 128.5625 C 200.550781 128.5625 204.625 128.65625 205.640625 128.847656 L 207.53125 129.414062 C 208.648438 129.511719 210.078125 129.839844 211.824219 130.410156 L 213.421875 130.410156 L 213.496094 130.550781 L 213.785156 131.332031 L 214.222656 133.035156 L 214.222656 134.101562 L 214.441406 134.101562 L 214.878906 135.804688 L 214.804688 135.804688 L 204.625 135.449219 L 192.261719 134.953125 C 188.191406 134.953125 186.15625 135.285156 186.15625 135.945312 L 186.226562 136.230469 L 186.15625 136.230469 M 186.226562 136.230469 C 186.710938 136.230469 186.953125 136.113281 186.953125 135.875 L 192.335938 135.449219 C 196.84375 135.449219 200.988281 135.519531 204.769531 135.664062 C 196.527344 138.597656 191.460938 140.535156 189.570312 141.484375 L 187.246094 138.359375 L 186.15625 136.300781 L 186.226562 136.230469 M 195.316406 123.734375 C 198.371094 122.882812 201.496094 122.386719 204.695312 122.246094 L 206.515625 122.246094 L 211.824219 122.742188 L 212.476562 127.710938 L 213.277344 130.054688 L 210.441406 129.769531 L 208.625 129.132812 C 208.234375 128.847656 207.679688 128.632812 206.953125 128.492188 L 193.425781 128.066406 L 185.0625 128.632812 C 187.730469 126.550781 191.148438 124.917969 195.316406 123.734375 M 90.167969 8.023438 L 91.042969 4.332031 L 90.386719 2.699219 L 91.40625 2.699219 C 92.035156 2.886719 92.421875 3.101562 92.566406 3.335938 L 92.933594 4.617188 C 92.933594 5.183594 92.664062 5.847656 92.132812 6.601562 L 91.621094 7.3125 L 91.476562 7.171875 L 90.242188 8.09375 L 90.167969 8.023438 M 89.804688 3.265625 L 90.53125 4.261719 L 89.296875 8.804688 L 89.296875 8.945312 L 88.570312 9.089844 L 85.949219 9.089844 C 87.261719 8.566406 88.542969 6.628906 89.804688 3.265625 M 92.351562 13.632812 L 91.988281 13.773438 L 92.203125 14.128906 L 91.914062 14.839844 L 91.839844 14.839844 L 91.550781 14.980469 L 91.40625 14.625 C 91.792969 13.914062 91.988281 12.851562 91.988281 11.429688 L 91.988281 9.867188 L 92.058594 9.867188 L 92.132812 9.941406 L 92.203125 9.941406 L 92.277344 10.011719 C 92.714844 10.34375 92.933594 10.839844 92.933594 11.5 L 92.421875 13.632812 L 92.351562 13.632812 M 84.351562 15.335938 C 84.351562 15.570312 84.425781 15.644531 84.570312 15.546875 L 84.789062 15.40625 L 85.152344 15.546875 L 85.222656 15.40625 L 85.152344 15.335938 L 85.441406 15.335938 L 85.515625 15.902344 C 85.320312 16.566406 85.246094 17.652344 85.296875 19.167969 C 85.34375 20.589844 85.199219 21.746094 84.859375 22.648438 L 82.386719 20.871094 C 82.242188 20.871094 82.121094 20.941406 82.023438 21.085938 L 83.988281 22.648438 C 83.988281 24.257812 83.382812 25.535156 82.167969 26.480469 C 81.78125 26.8125 81.175781 27.496094 80.351562 28.539062 L 80.351562 25.984375 L 79.988281 14.839844 C 79.792969 12.660156 79.382812 10.792969 78.753906 9.230469 L 77.808594 5.679688 C 77.46875 4.496094 77.007812 3.789062 76.425781 3.550781 C 77.441406 2.984375 78.386719 2.699219 79.261719 2.699219 L 79.699219 2.699219 C 81.976562 4.355469 83.113281 5.941406 83.113281 7.457031 L 82.96875 9.015625 L 81.660156 8.945312 L 80.933594 8.945312 L 80.714844 9.230469 L 81.515625 9.300781 L 81.589844 9.371094 L 82.96875 9.441406 L 82.898438 10.082031 L 83.261719 10.082031 L 83.261719 12.566406 L 83.695312 14.199219 L 83.988281 14.695312 L 82.679688 14.625 L 82.679688 14.765625 L 81.441406 14.839844 L 81.441406 15.121094 L 82.679688 15.265625 L 84.351562 15.335938 M 90.675781 9.515625 L 91.621094 9.796875 C 91.527344 10.320312 91.5 11.097656 91.550781 12.140625 L 91.1875 14.058594 L 89.367188 9.441406 L 90.675781 9.515625 M 85.003906 9.015625 C 85.394531 8.070312 85.585938 6.601562 85.585938 4.617188 L 85.515625 2.558594 L 89.441406 2.699219 L 88.421875 5.042969 C 87.839844 6.886719 86.726562 8.210938 85.078125 9.015625 L 85.003906 9.015625 M 84.640625 23.144531 L 84.570312 23.285156 L 84.714844 23.355469 L 84.859375 23.285156 L 86.242188 24.207031 L 85.371094 28.183594 C 84.691406 30.078125 83.429688 31.734375 81.589844 33.152344 C 81.152344 32.539062 80.789062 31.828125 80.496094 31.023438 L 80.714844 30.882812 L 80.277344 30.242188 L 80.277344 30.101562 C 82.847656 27.449219 84.132812 25.25 84.132812 23.5 L 84.132812 22.71875 L 84.640625 23.144531 M 87.839844 22.859375 L 86.316406 20.234375 C 86.410156 17.628906 86.339844 16.019531 86.097656 15.40625 C 88.375 15.546875 89.878906 15.855469 90.605469 16.328125 L 90.96875 16.613281 C 89.757812 19.308594 88.714844 21.15625 87.839844 22.148438 L 87.839844 22.859375 M 85.804688 19.308594 L 85.878906 20.375 C 86.316406 22.222656 87.285156 23.878906 88.785156 25.34375 L 88.714844 25.34375 L 86.53125 23.78125 L 86.386719 23.355469 L 86.316406 23.640625 L 85.152344 22.859375 C 85.539062 22.148438 85.757812 20.96875 85.804688 19.308594 M 88.785156 9.796875 L 88.933594 9.65625 L 90.824219 14.484375 L 89.949219 15.335938 L 85.660156 14.839844 C 87.550781 13.417969 88.496094 11.925781 88.496094 10.367188 L 88.496094 9.796875 L 88.785156 9.796875 M 86.023438 9.796875 L 88.277344 9.796875 L 87.625 12.140625 C 87.1875 12.992188 86.363281 13.867188 85.152344 14.765625 L 84.640625 14.765625 C 84.15625 14.011719 83.867188 13.15625 83.769531 12.210938 L 83.695312 9.515625 L 86.023438 9.796875 M 85.296875 2.558594 C 85.101562 3.125 85.03125 4.09375 85.078125 5.46875 C 85.125 7.027344 84.910156 8.210938 84.425781 9.015625 L 83.550781 9.015625 L 83.625 7.457031 C 83.625 6.792969 83.261719 5.796875 82.535156 4.472656 C 82 3.527344 81.441406 2.863281 80.859375 2.484375 L 85.296875 2.558594 M 88.132812 23.285156 L 88.207031 23.214844 C 90.144531 19.949219 91.164062 17.9375 91.257812 17.179688 L 91.695312 18.386719 L 91.769531 18.386719 L 91.839844 18.957031 L 91.621094 19.027344 L 91.769531 19.308594 L 91.914062 19.308594 L 91.988281 20.089844 L 91.988281 22.148438 L 90.460938 24.492188 L 90.242188 24.5625 L 89.152344 25.132812 L 88.132812 23.285156 M 86.53125 24.492188 L 86.605469 24.421875 L 89.003906 25.984375 L 88.933594 26.765625 C 88.785156 27.523438 88.714844 28.65625 88.714844 30.171875 L 87.988281 32.445312 L 87.695312 33.296875 L 87.1875 33.792969 L 86.894531 34.148438 L 86.460938 26.410156 L 86.53125 24.492188 M 91.914062 16.542969 L 91.914062 16.472656 L 94.894531 18.03125 L 94.75 18.175781 L 92.421875 18.671875 L 91.914062 16.542969 M 91.769531 16.042969 L 92.566406 14.695312 L 94.09375 16.96875 C 93.078125 16.351562 92.300781 16.042969 91.769531 16.042969 M 91.1875 15.265625 L 90.96875 15.691406 L 90.460938 15.476562 L 91.042969 15.050781 L 91.1875 15.265625 M 79.332031 29.886719 L 78.898438 30.738281 L 78.898438 30.882812 L 78.023438 31.875 C 74.390625 28.753906 72.183594 25.109375 71.40625 20.941406 L 71.40625 20.589844 L 71.261719 18.601562 L 70.535156 8.804688 L 70.972656 8.308594 L 71.699219 7.527344 L 71.988281 9.089844 C 71.988281 15.949219 74.4375 22.882812 79.332031 29.886719 M 85.878906 28.964844 L 86.023438 28.609375 L 86.386719 34.574219 L 85.515625 34.503906 C 85.125 33.933594 84.496094 33.863281 83.625 34.289062 L 82.535156 34.148438 L 81.734375 33.296875 C 83.867188 31.640625 85.246094 30.195312 85.878906 28.964844 M 75.84375 3.90625 C 78.171875 7.644531 79.480469 12.09375 79.769531 17.25 L 79.84375 29.179688 L 79.625 29.53125 C 74.875 22.199219 72.5 15.359375 72.5 9.015625 L 72.644531 6.53125 L 75.84375 3.90625 M 74.171875 35.921875 L 74.316406 35.851562 L 72.207031 37.695312 C 69.394531 39.164062 67.625 40.300781 66.898438 41.105469 C 69.46875 32.300781 70.945312 26.03125 71.335938 22.292969 C 71.675781 23.902344 72.378906 25.605469 73.445312 27.402344 C 74.996094 30.148438 76.351562 31.828125 77.515625 32.445312 C 76.109375 33.863281 74.753906 35 73.445312 35.851562 L 73.878906 35.992188 L 74.171875 35.921875 M 66.171875 41.53125 C 66.027344 39.777344 65.953125 37.34375 65.953125 34.21875 L 66.171875 24.207031 L 66.171875 19.097656 C 66.753906 16.875 67.042969 15.121094 67.042969 13.84375 L 66.898438 13.277344 L 70.390625 9.015625 C 70.246094 9.441406 70.171875 10.320312 70.171875 11.644531 C 70.171875 14.71875 70.414062 17.558594 70.898438 20.164062 C 70.414062 22.246094 69.808594 25.652344 69.082031 30.386719 L 66.246094 41.53125 L 66.171875 41.53125 M 56.644531 27.332031 L 59.84375 21.867188 L 60.574219 21.226562 C 59.941406 25.4375 59.628906 28.917969 59.628906 31.664062 C 59.628906 35.117188 59.871094 37.414062 60.355469 38.546875 L 61.226562 42.167969 C 61.566406 43.496094 62.269531 44.558594 63.335938 45.363281 L 60.863281 48.558594 C 57.566406 43.304688 55.941406 36.941406 55.992188 29.460938 L 56.644531 27.332031 M 66.246094 14.839844 C 65.90625 15.832031 65.710938 17.015625 65.664062 18.386719 L 65.664062 23.710938 C 65.519531 26.03125 65.445312 29.53125 65.445312 34.21875 L 65.734375 42.238281 L 63.480469 45.222656 L 61.953125 42.59375 L 61.082031 38.972656 C 60.453125 36.84375 60.136719 34.382812 60.136719 31.589844 C 60.136719 28.5625 60.453125 25.035156 61.082031 21.015625 L 60.789062 20.941406 L 63.628906 17.820312 L 66.246094 14.839844 M 30.394531 51.964844 L 30.46875 46.359375 L 36.867188 42.808594 L 36.867188 42.738281 L 39.195312 41.316406 L 40.359375 47.210938 C 41.277344 51.042969 41.957031 53.433594 42.394531 54.378906 L 45.664062 61.125 C 46.976562 64.53125 48.113281 66.683594 49.082031 67.582031 L 46.683594 70.210938 C 41.011719 66.660156 35.632812 60.578125 30.539062 51.964844 L 30.394531 51.964844 M 39.558594 41.035156 L 44.066406 38.050781 L 45.375 37.414062 L 45.300781 38.050781 C 45.300781 39.140625 46.03125 43.375 47.484375 50.757812 C 47.871094 52.886719 48.816406 55.585938 50.320312 58.851562 C 51.386719 61.21875 52.210938 62.734375 52.792969 63.394531 L 51.265625 65.3125 L 49.738281 66.945312 C 44.453125 59.46875 41.0625 50.828125 39.558594 41.035156 M 52.792969 62.117188 C 49.011719 55.066406 46.660156 46.757812 45.738281 37.199219 L 47.484375 36.277344 L 51.703125 43.800781 L 54.609375 47.636719 C 55.289062 48.535156 56.816406 49.550781 59.191406 50.6875 L 58.535156 51.539062 L 57.738281 53.101562 L 57.664062 53.03125 L 56.863281 54.875 L 52.9375 62.046875 L 52.792969 62.117188 M 55.628906 30.242188 L 55.628906 32.65625 L 57.082031 41.175781 C 58.441406 45.386719 59.554688 48.0625 60.425781 49.195312 L 59.480469 50.402344 C 56.863281 48.84375 55.386719 47.800781 55.046875 47.28125 L 51.992188 43.445312 L 47.847656 36.136719 C 51.582031 34.050781 53.761719 32.609375 54.390625 31.804688 L 55.628906 30.242188 M 30.324219 54.238281 L 30.394531 52.460938 L 36.867188 61.902344 C 37.691406 63.039062 39.265625 64.71875 41.59375 66.945312 C 43.582031 68.835938 45.132812 70.066406 46.246094 70.636719 C 42.320312 74.800781 40.359375 77.097656 40.359375 77.523438 L 40.429688 77.734375 L 38.757812 78.941406 C 36.238281 76.765625 34.515625 74.183594 33.59375 71.203125 C 32.867188 67.511719 32.140625 64.671875 31.414062 62.683594 C 30.636719 60.507812 30.273438 57.691406 30.324219 54.238281 M 17.453125 56.226562 L 17.304688 59.277344 C 17.304688 62.636719 18.058594 66.875 19.5625 71.984375 C 20.140625 73.972656 21.113281 76.101562 22.46875 78.375 C 24.410156 81.542969 25.863281 83.554688 26.832031 84.40625 L 24.503906 84.550781 C 24.359375 84.265625 24.117188 84.125 23.777344 84.125 L 23.777344 84.054688 C 22.710938 83.816406 21.695312 83.199219 20.722656 82.207031 L 18.324219 79.722656 L 13.960938 74.824219 C 12.945312 73.453125 12.289062 71.796875 12 69.855469 L 11.78125 66.375 L 11.925781 66.304688 C 12.652344 63.039062 14.496094 59.679688 17.453125 56.226562 M 17.671875 55.941406 L 18.324219 55.160156 L 20.507812 61.335938 L 25.085938 68.007812 L 30.832031 75.816406 C 33.011719 78.65625 34.6875 80.335938 35.847656 80.859375 L 34.320312 81.78125 C 32.140625 83.058594 29.910156 83.886719 27.632812 84.265625 C 20.84375 76.550781 17.523438 67.109375 17.671875 55.941406 M 27.195312 48.203125 L 30.175781 46.5 L 30.03125 50.757812 C 30.03125 58.1875 30.566406 63.015625 31.632812 65.242188 C 32.40625 66.898438 33.011719 69.3125 33.449219 72.480469 C 33.789062 73.710938 34.636719 75.226562 35.996094 77.023438 L 38.175781 79.296875 L 36.429688 80.503906 C 35.023438 79.746094 33.886719 78.824219 33.011719 77.734375 L 30.6875 74.398438 L 25.597656 67.726562 L 21.085938 61.195312 C 20.652344 60.484375 20.289062 59.300781 19.996094 57.644531 C 19.753906 56.414062 19.316406 55.492188 18.6875 54.875 L 19.632812 53.8125 L 22.542969 50.828125 L 27.195312 48.203125 M 192.699219 148.722656 L 193.28125 148.722656 L 196.699219 148.15625 L 197.425781 148.015625 L 197.5 148.085938 L 197.863281 148.15625 L 198.226562 147.871094 L 203.824219 147.519531 L 217.496094 148.296875 L 219.457031 155.679688 L 208.914062 155.398438 L 196.554688 156.109375 L 196.40625 155.609375 L 192.699219 148.722656 M 217.058594 146.523438 L 217.496094 148.15625 L 203.824219 147.019531 L 199.316406 147.234375 C 200.671875 146.523438 202.925781 145.578125 206.078125 144.394531 C 206.320312 144.203125 209.617188 143.09375 215.96875 141.058594 L 217.058594 146.523438 M 207.53125 135.804688 L 214.949219 136.300781 L 215.894531 140.773438 L 214.585938 140.632812 C 210.03125 141.957031 207.074219 143.09375 205.714844 144.039062 C 201.496094 145.601562 198.878906 146.714844 197.863281 147.375 L 196.769531 147.589844 L 192.480469 148.296875 L 190.300781 144.179688 L 190.371094 144.039062 L 189.570312 142.621094 L 190.371094 143.683594 L 190.664062 143.683594 L 190.734375 143.046875 L 189.71875 141.765625 L 190.226562 141.765625 C 190.757812 141.765625 191.558594 141.390625 192.625 140.632812 C 193.839844 139.78125 195.121094 139.234375 196.480469 139 L 200.117188 137.722656 C 201.765625 137.058594 204.210938 136.515625 207.460938 136.089844 L 207.53125 135.804688 M 219.605469 155.964844 L 219.605469 156.109375 L 220.332031 160.933594 L 220.914062 162.992188 L 214.441406 161.859375 L 214.296875 161.574219 L 213.933594 161.785156 L 210.515625 161.148438 L 207.316406 159.65625 C 205.667969 159.042969 203.21875 158.734375 199.96875 158.734375 L 197.714844 158.734375 L 197.644531 158.875 L 197.714844 159.089844 C 201.011719 159.183594 203.824219 159.539062 206.152344 160.152344 L 209.714844 161.359375 L 213.058594 162.140625 C 210.394531 163.277344 208.355469 164.175781 206.953125 164.839844 C 204.429688 165.976562 202.589844 167.132812 201.425781 168.316406 L 200.625 166.757812 L 200.550781 166.757812 C 198.417969 161.597656 197.109375 158.191406 196.625 156.535156 L 197.425781 156.25 L 208.84375 155.894531 L 219.457031 155.964844 L 219.605469 155.964844 M 214.585938 198.347656 L 214.515625 196.996094 L 223.53125 198.488281 C 224.886719 198.675781 225.445312 198.914062 225.203125 199.199219 L 235.3125 199.625 C 236.085938 201.660156 236.667969 203.625 237.054688 205.515625 L 236.621094 203.8125 L 236.328125 203.882812 L 236.984375 207.574219 L 232.476562 207.574219 C 227.578125 206.011719 224.113281 204.734375 222.078125 203.742188 L 214.660156 198.347656 L 214.585938 198.347656 M 214.585938 199.90625 L 214.585938 199.199219 L 221.421875 203.882812 C 224.378906 205.683594 227.046875 206.914062 229.421875 207.574219 L 217.058594 206.792969 L 216.621094 206.226562 L 214.003906 205.941406 L 212.914062 205.941406 L 213.714844 203.953125 L 213.714844 203.742188 C 214.296875 202.273438 214.585938 200.996094 214.585938 199.90625 M 211.679688 188.90625 L 210.878906 187.058594 L 226.730469 189.332031 L 230.367188 189.332031 L 231.09375 190.890625 L 231.53125 191.886719 L 233.203125 195.152344 L 234.148438 197.070312 L 232.621094 196.855469 L 229.929688 196.214844 L 227.019531 195.152344 L 222.148438 193.378906 C 216.039062 190.394531 212.71875 188.90625 212.1875 188.90625 L 211.679688 188.90625 M 212.839844 191.53125 L 211.824219 189.1875 C 220.113281 193.117188 227.214844 195.886719 233.128906 197.496094 L 234.367188 197.496094 L 235.164062 199.269531 L 227.09375 199.054688 L 226.003906 198.488281 L 223.3125 197.992188 L 214.878906 196.570312 L 214.441406 196.570312 C 214.199219 194.914062 213.664062 193.234375 212.839844 191.53125 M 210.660156 186.632812 L 210.296875 185.710938 L 212.914062 185.78125 C 213.445312 185.78125 215.871094 184.835938 220.1875 182.941406 C 223.96875 181.285156 226.4375 180.101562 227.601562 179.390625 L 228.183594 181.804688 L 228.546875 182.941406 C 228.695312 184.550781 229.25 186.5625 230.21875 188.976562 L 226.222656 188.761719 L 225.058594 188.480469 C 223.992188 187.957031 223.023438 187.699219 222.148438 187.699219 L 212.839844 186.632812 L 210.660156 186.632812 M 210.152344 185.355469 L 209.277344 182.871094 C 208.648438 180.835938 207.484375 178.398438 205.789062 175.558594 C 209.664062 177.355469 212.453125 178.398438 214.148438 178.683594 L 223.820312 179.035156 L 224.839844 178.609375 L 226.875 178.539062 L 226.949219 178.257812 L 225.347656 178.113281 L 223.96875 178.539062 C 216.984375 178.539062 212.066406 177.996094 209.207031 176.90625 C 207.605469 175.820312 206.5625 175.273438 206.078125 175.273438 L 205.859375 175.273438 L 205.789062 175.558594 L 205.425781 174.992188 L 206.585938 173.996094 L 216.621094 173.996094 L 224.113281 171.652344 L 227.382812 178.257812 L 227.601562 179.320312 C 221.300781 182.539062 215.484375 184.550781 210.152344 185.355469 M 214.660156 166.898438 C 216.40625 165.527344 218.730469 164.746094 221.640625 164.554688 C 221.929688 166.257812 222.707031 168.507812 223.96875 171.300781 L 222.585938 171.15625 L 220.1875 172.507812 L 207.023438 173.640625 L 210.515625 169.808594 L 214.660156 166.898438 M 208.550781 164.839844 L 213.714844 162.285156 L 221.132812 163.347656 L 221.496094 164.128906 L 220.550781 164.058594 C 215.652344 164.957031 212.210938 166.730469 210.222656 169.382812 L 205.933594 173.640625 L 205.859375 173.640625 L 205.859375 173.710938 L 205.132812 174.421875 L 201.570312 168.53125 C 202.636719 167.773438 204.964844 166.542969 208.550781 164.839844 M 233.855469 219.359375 L 233.785156 220.210938 L 233.855469 221.203125 L 233.929688 221.203125 L 233.785156 223.050781 C 233.394531 222.71875 232.765625 222.53125 231.894531 222.484375 L 230.148438 222.484375 L 227.53125 221.773438 C 226.269531 221.582031 225.082031 221.109375 223.96875 220.351562 L 219.023438 217.085938 C 213.203125 213.492188 209.8125 211.621094 208.84375 211.480469 L 210.734375 208.921875 L 210.804688 209.136719 C 217.980469 210.460938 223.265625 212.046875 226.65625 213.894531 L 233.855469 219.359375 M 237.054688 208.070312 L 237.417969 209.988281 L 236.546875 212.613281 L 236.472656 212.542969 L 236.183594 212.542969 L 234.292969 216.945312 L 233.855469 218.648438 C 232.0625 216.613281 229.640625 214.933594 226.585938 213.609375 L 221.203125 210.984375 C 217.808594 209.515625 214.757812 208.78125 212.042969 208.78125 L 210.878906 208.78125 L 211.53125 207.71875 L 212.625 206.367188 C 214.269531 206.414062 215.824219 206.722656 217.277344 207.289062 L 231.746094 208.144531 L 237.054688 208.070312 M 226.804688 234.480469 L 225.277344 233.910156 L 222.65625 232.5625 L 217.929688 230.078125 L 217.421875 230.078125 L 217.421875 231.285156 L 216.984375 230.292969 L 216.984375 230.078125 C 217.808594 228.421875 218.222656 227.167969 218.222656 226.316406 L 218.222656 225.605469 L 218.148438 225.605469 L 218.078125 225.464844 L 217.785156 225.464844 L 217.785156 225.535156 L 215.675781 225.464844 C 215.289062 225.511719 214.925781 225.628906 214.585938 225.820312 C 214.34375 224.683594 213.277344 223.359375 211.386719 221.84375 C 209.15625 220.140625 207.097656 219.289062 205.207031 219.289062 L 204.550781 219.289062 C 204.550781 217.441406 204.671875 216.1875 204.914062 215.527344 C 205.0625 215.003906 205.761719 214.320312 207.023438 213.46875 C 210.902344 218.246094 213.8125 221.464844 215.75 223.121094 C 220.113281 226.71875 225.785156 229.535156 232.765625 231.570312 L 232.691406 231.925781 L 232.765625 233.132812 L 233.054688 233.132812 L 233.273438 231.710938 L 233.203125 233.839844 L 232.984375 234.265625 L 232.839844 233.984375 C 232.644531 234.550781 231.867188 234.835938 230.511719 234.835938 L 228.113281 234.339844 L 226.949219 234.339844 L 226.875 234.480469 L 226.804688 234.480469 M 233.785156 223.40625 L 233.566406 225.109375 L 232.765625 231.214844 C 226.074219 229.179688 220.355469 226.339844 215.605469 222.695312 C 214.636719 221.984375 212.9375 220 210.515625 216.734375 L 207.53125 213.042969 L 208.625 211.90625 L 219.242188 217.867188 C 220.597656 218.578125 222.246094 219.667969 224.183594 221.132812 C 226.367188 222.363281 229.566406 223.121094 233.785156 223.40625 M 231.964844 235.402344 L 228.476562 237.957031 C 227.699219 238.289062 226.996094 238.621094 226.367188 238.953125 L 225.710938 238.667969 L 225.710938 238.597656 L 223.75 237.746094 L 223.457031 237.816406 L 223.3125 237.746094 L 223.3125 237.675781 C 219.726562 234.691406 217.859375 232.28125 217.714844 230.433594 C 218.972656 230.953125 220.550781 231.828125 222.441406 233.058594 C 224.183594 233.675781 225.492188 234.386719 226.367188 235.191406 L 228.476562 235.332031 L 227.238281 234.765625 L 231.675781 235.332031 L 231.53125 235.332031 L 231.820312 235.332031 L 231.964844 235.402344 M 223.023438 237.957031 L 223.023438 238.101562 L 223.75 238.527344 L 223.75 238.738281 L 224.695312 238.953125 L 225.203125 239.164062 L 225.492188 239.234375 L 225.785156 239.234375 L 222.949219 240.585938 L 222.804688 240.230469 L 220.765625 241.296875 L 220.914062 240.941406 L 220.765625 240.585938 C 220.332031 240.820312 219.96875 241.105469 219.675781 241.4375 L 219.675781 237.886719 L 218.148438 233.273438 C 219.023438 234.835938 220.644531 236.398438 223.023438 237.957031 M 205.789062 225.039062 L 206.007812 224.96875 C 209.058594 225.535156 210.757812 225.984375 211.097656 226.316406 L 212.695312 227.808594 L 212.257812 229.015625 L 211.96875 228.660156 L 207.53125 228.660156 C 207.484375 227.664062 207.289062 226.90625 206.953125 226.386719 L 205.789062 225.039062 M 205.277344 224.398438 L 204.84375 223.832031 L 204.550781 222.835938 L 204.550781 219.714844 C 206.101562 219.570312 207.363281 219.761719 208.332031 220.28125 L 211.75 222.835938 L 214.367188 225.890625 C 213.785156 226.222656 213.300781 226.742188 212.914062 227.453125 L 212.914062 227.382812 L 211.824219 225.675781 C 211 224.824219 209.472656 224.398438 207.242188 224.398438 L 205.277344 224.398438 M 207.53125 229.15625 L 207.53125 229.085938 L 212.1875 229.441406 L 212.042969 230.292969 L 208.914062 230.71875 C 208.089844 230.953125 207.53125 231.214844 207.242188 231.5 L 207.53125 229.15625 M 206.953125 232.5625 L 207.023438 232.207031 L 207.316406 232.207031 C 208.285156 231.355469 209.835938 230.90625 211.96875 230.859375 L 211.824219 233.132812 L 211.894531 233.484375 C 211.167969 232.777344 210.707031 232.492188 210.515625 232.632812 L 209.789062 233.132812 C 209.398438 232.753906 208.71875 232.5625 207.75 232.5625 L 206.953125 232.5625 M 216.257812 234.550781 L 216.257812 234.480469 L 216.839844 231.425781 C 218.585938 236.300781 219.410156 239.78125 219.3125 241.863281 L 219.167969 242.21875 C 217.714844 239.804688 216.742188 237.25 216.257812 234.550781 "/>
</g>
</svg>
