<?xml version="1.0" encoding="UTF-8"?>
<svg xmlns="http://www.w3.org/2000/svg" xmlns:xlink="http://www.w3.org/1999/xlink" width="246px" height="243px" viewBox="0 0 246 243" version="1.1">
<g id="surface1">
<path style=" stroke:none;fill-rule:evenodd;fill:rgb(0%,0%,0%);fill-opacity:1;" d="M 182.082031 91.363281 L 181.9375 91.292969 C 181.792969 91.292969 181.644531 91.363281 181.5 91.507812 L 174.882812 93.351562 L 174.808594 93.351562 L 172.917969 97.753906 C 172.917969 97.992188 173.476562 98.273438 174.59375 98.605469 C 175.660156 98.9375 176.191406 99.246094 176.191406 99.527344 L 175.175781 101.089844 C 174.496094 101.988281 174.15625 102.722656 174.15625 103.292969 C 174.15625 103.90625 174.351562 104.378906 174.738281 104.710938 L 176.773438 107.054688 C 177.257812 107.242188 177.695312 107.691406 178.082031 108.402344 C 178.761719 109.679688 179.320312 111.761719 179.753906 114.648438 L 179.246094 121.464844 L 179.027344 122.8125 L 178.957031 123.453125 L 179.171875 123.734375 L 179.464844 123.734375 C 179.804688 127.285156 180.191406 129.746094 180.628906 131.117188 C 183.488281 140.0625 186.761719 147.800781 190.445312 154.332031 L 197.789062 165.832031 C 200.988281 170.753906 203.046875 174.730469 203.96875 177.757812 L 208.261719 189.472656 L 209.496094 195.082031 C 209.738281 196.5 210.101562 197.777344 210.585938 198.914062 L 210.660156 198.84375 C 211 199.128906 211.53125 200.191406 212.257812 202.039062 C 213.375 203.789062 215.167969 204.664062 217.640625 204.664062 L 226.367188 204.238281 L 226.949219 204.878906 L 227.601562 204.453125 L 227.675781 204.167969 L 229.203125 204.097656 L 243.671875 204.804688 C 244.253906 202.867188 244.546875 201.375 244.546875 200.332031 C 244.546875 196.5 243.574219 192.3125 241.636719 187.769531 L 235.09375 174.992188 L 235.238281 174.847656 L 234.21875 173.074219 L 229.785156 165.265625 C 228.28125 163.371094 227.167969 161.125 226.4375 158.519531 L 224.914062 152.0625 C 219.675781 135.261719 217.058594 126.433594 217.058594 125.582031 L 217.132812 125.226562 L 216.039062 122.53125 L 213.640625 118.910156 L 212.40625 116.210938 L 212.1875 115.574219 L 212.113281 115.574219 L 212.042969 115.289062 L 212.042969 115.21875 L 212.113281 113.015625 C 212.257812 111.738281 212.113281 111.003906 211.679688 110.816406 L 211.53125 109.113281 L 211.894531 108.402344 L 212.625 107.480469 C 213.785156 106.53125 214.367188 104.78125 214.367188 102.226562 L 212.839844 101.089844 L 211.386719 102.296875 L 210.585938 101.515625 L 211.894531 100.097656 L 211.75 99.601562 L 211.824219 98.746094 L 212.476562 98.605469 L 213.058594 98.746094 L 214.730469 96.335938 C 213.035156 93.96875 211.679688 92.429688 210.660156 91.71875 L 210.222656 90.441406 C 210.367188 90.300781 210.636719 90.230469 211.023438 90.230469 C 212.816406 90.230469 214.5625 92.265625 216.257812 96.335938 L 214.148438 99.457031 L 214.078125 99.601562 L 215.894531 102.226562 C 215.894531 104.734375 215.460938 106.460938 214.585938 107.410156 C 213.957031 108.117188 213.421875 109.371094 212.988281 111.171875 L 213.421875 112.945312 C 213.957031 115.265625 215.628906 119.3125 218.441406 125.085938 C 220.523438 126.410156 223.167969 135.1875 226.367188 151.421875 C 227.722656 158.332031 231.410156 166.257812 237.417969 175.203125 C 239.261719 176.71875 241.226562 180.882812 243.308594 187.699219 C 244.230469 190.917969 245.03125 193.425781 245.710938 195.222656 C 245.902344 195.980469 246 197.824219 246 200.761719 C 246 203.976562 245.613281 205.585938 244.835938 205.585938 L 244.546875 205.585938 L 229.421875 206.15625 L 213.933594 205.585938 L 211.96875 203.8125 L 210.515625 201.824219 C 209.59375 201.492188 208.332031 198.488281 206.734375 192.808594 L 202.660156 178.46875 C 201.59375 175.394531 199.558594 171.417969 196.554688 166.542969 L 189.136719 155.042969 C 180.410156 141.082031 175.972656 125.867188 175.828125 109.394531 C 175.585938 109.207031 175.417969 108.875 175.320312 108.402344 L 175.828125 108.402344 L 175.609375 107.90625 C 174.300781 107.8125 173.429688 107.078125 172.992188 105.703125 C 172.75 105.042969 172.628906 104.238281 172.628906 103.292969 C 172.628906 102.722656 172.871094 101.730469 173.355469 100.308594 C 172.097656 99.078125 171.464844 98.273438 171.464844 97.894531 C 171.464844 97.089844 171.757812 95.859375 172.339844 94.203125 C 173.015625 92.3125 173.671875 91.363281 174.300781 91.363281 C 174.640625 91.363281 174.933594 91.484375 175.175781 91.71875 L 175.320312 92.003906 L 188.046875 87.746094 C 198.613281 84.574219 206.078125 82.988281 210.441406 82.988281 C 211.894531 82.988281 212.453125 83.484375 212.113281 84.480469 C 212.113281 85.1875 211.507812 86.84375 210.296875 89.449219 L 209.859375 90.371094 L 208.042969 93.636719 C 207.558594 93.496094 207.316406 93.1875 207.316406 92.714844 C 207.316406 91.816406 207.800781 90.394531 208.769531 88.453125 L 210.585938 84.832031 L 210.585938 84.480469 C 199.632812 86.230469 192.070312 87.839844 187.898438 89.304688 L 182.082031 91.363281 M 191.171875 109.253906 L 190.882812 108.6875 L 190.445312 109.183594 L 188.992188 108.898438 L 188.917969 108.472656 L 188.992188 108.402344 L 194.953125 106.628906 L 194.296875 107.195312 L 194.589844 107.835938 L 195.316406 107.976562 L 198.226562 105.777344 L 208.476562 103.21875 L 209.496094 103.363281 L 209.640625 103.859375 C 209.640625 105.042969 205.277344 106.558594 196.554688 108.402344 L 192.335938 109.253906 L 191.171875 109.253906 M 188.917969 99.386719 L 188.261719 99.101562 L 188.625 98.746094 L 189.0625 98.179688 L 189.9375 98.109375 C 192.117188 97.96875 193.351562 97.398438 193.644531 96.40625 L 201.496094 93.421875 L 202.226562 94.132812 C 202.226562 95.03125 199.703125 96.261719 194.664062 97.824219 L 188.917969 99.386719 M 186.734375 99.386719 L 186.953125 99.386719 L 186.882812 99.742188 L 186.882812 99.8125 L 184.628906 100.027344 L 180.410156 99.671875 L 180.335938 99.246094 C 180.335938 98.867188 180.773438 98.652344 181.644531 98.605469 L 186.007812 98.320312 L 185.644531 98.605469 L 185.71875 99.03125 L 186.734375 99.386719 M 209.421875 111.953125 L 209.496094 113.941406 L 209.351562 112.519531 L 209.421875 111.953125 M 56.5 24.351562 L 56.574219 23.710938 L 57.300781 23.570312 L 57.808594 23.925781 L 59.410156 23.285156 L 60.71875 23.429688 L 60.863281 23.925781 L 59.410156 25.132812 L 63.992188 28.679688 L 67.699219 33.648438 C 68.183594 34.785156 69.226562 36.5625 70.824219 38.972656 C 71.746094 40.347656 72.207031 41.910156 72.207031 43.660156 C 72.207031 44.179688 72.011719 44.535156 71.625 44.726562 L 71.625 44.796875 L 66.972656 48.84375 C 63.675781 51.730469 61.542969 54.285156 60.574219 56.507812 L 58.320312 62.332031 C 57.347656 64.742188 56.136719 66.636719 54.683594 68.007812 L 49.445312 73.476562 L 43.410156 79.011719 C 37.835938 83.128906 30.128906 85.875 20.289062 87.246094 L 20.140625 87.105469 L 18.105469 87.816406 L 13.742188 88.597656 C 12 88.597656 9.5 86.515625 6.253906 82.347656 L 2.691406 78.730469 C 1.816406 77.875 1.382812 76.882812 1.382812 75.746094 C 1.382812 73.902344 2.519531 70.636719 4.800781 65.949219 L 9.308594 57.007812 C 10.566406 54.355469 14.15625 51.515625 20.070312 48.488281 C 25.644531 45.929688 29.621094 43.96875 31.996094 42.59375 L 31.921875 42.3125 L 32.867188 42.097656 L 33.160156 41.886719 L 33.449219 41.957031 C 39.363281 40.300781 44.1875 37.246094 47.921875 32.796875 L 52.574219 27.472656 C 53.785156 26.292969 55.144531 25.320312 56.644531 24.5625 L 56.5 24.351562 M 63.992188 31.238281 L 60.210938 27.6875 L 58.101562 25.914062 L 53.445312 28.679688 C 52.429688 29.675781 51.023438 31.402344 49.230469 33.863281 C 47.96875 35.804688 46.488281 37.507812 44.792969 38.972656 C 41.546875 41.8125 37.957031 43.257812 34.03125 43.304688 C 32.867188 44.820312 28.480469 46.949219 20.871094 49.695312 C 15.683594 53.007812 12.363281 55.609375 10.90625 57.503906 C 9.695312 59.066406 8.386719 61.242188 6.980469 64.035156 L 6.035156 66.023438 C 3.949219 70.328125 2.910156 73.546875 2.910156 75.675781 C 9.257812 83.296875 12.945312 87.105469 13.960938 87.105469 C 15.320312 87.105469 17.257812 86.679688 19.777344 85.828125 L 19.925781 85.828125 C 20.554688 85.402344 21.886719 85.023438 23.921875 84.691406 C 28.433594 83.886719 31.851562 83.082031 34.175781 82.277344 C 36.550781 81.425781 38.976562 80.054688 41.449219 78.160156 C 47.410156 73.523438 51.554688 69.664062 53.882812 66.589844 C 54.5625 65.691406 56.5 61.785156 59.699219 54.875 C 60.476562 53.078125 62.511719 50.710938 65.808594 47.777344 L 69.664062 44.511719 L 69.589844 44.15625 C 70.171875 43.542969 70.460938 43.042969 70.460938 42.667969 C 70.460938 41.910156 68.886719 38.855469 65.734375 33.507812 L 65.007812 32.445312 L 65.152344 32.089844 C 65.152344 31.425781 64.910156 31.09375 64.425781 31.09375 L 63.992188 31.238281 "/>
<path style=" stroke:none;fill-rule:evenodd;fill:rgb(14.509805%,14.509805%,13.725491%);fill-opacity:1;" d="M 227.675781 204.167969 L 227.601562 204.453125 L 226.949219 204.878906 L 226.367188 204.238281 L 217.640625 204.664062 C 215.167969 204.664062 213.375 203.789062 212.257812 202.039062 C 211.53125 200.191406 211 199.128906 210.660156 198.84375 L 210.585938 198.914062 C 210.101562 197.777344 209.738281 196.5 209.496094 195.082031 L 208.261719 189.472656 L 203.96875 177.757812 C 203.046875 174.730469 200.988281 170.753906 197.789062 165.832031 L 190.445312 154.332031 C 186.761719 147.800781 183.488281 140.0625 180.628906 131.117188 C 180.191406 129.746094 179.804688 127.285156 179.464844 123.734375 L 179.171875 123.734375 L 178.957031 123.453125 L 179.027344 122.8125 L 179.246094 121.464844 L 179.753906 114.648438 C 179.320312 111.761719 178.761719 109.679688 178.082031 108.402344 C 177.695312 107.691406 177.257812 107.242188 176.773438 107.054688 L 174.738281 104.710938 C 174.351562 104.378906 174.15625 103.90625 174.15625 103.292969 C 174.15625 102.722656 174.496094 101.988281 175.175781 101.089844 L 176.191406 99.527344 C 176.191406 99.246094 175.660156 98.9375 174.59375 98.605469 C 173.476562 98.273438 172.917969 97.992188 172.917969 97.753906 L 174.808594 93.351562 L 174.882812 93.351562 L 181.5 91.507812 C 181.644531 91.363281 181.792969 91.292969 181.9375 91.292969 L 182.082031 91.363281 L 186.808594 92.5 C 190.25 93.496094 192.433594 94.324219 193.351562 94.984375 C 191.316406 96.121094 190.082031 96.878906 189.644531 97.257812 L 189.0625 98.179688 L 188.625 98.746094 L 188.261719 99.101562 L 188.917969 99.386719 L 191.609375 101.585938 C 193.160156 103.101562 195.21875 103.527344 197.789062 102.863281 C 200.359375 102.25 201.957031 102.25 202.589844 102.863281 L 198.808594 105.277344 L 198.226562 105.777344 L 195.316406 107.976562 L 194.589844 107.835938 L 194.296875 107.195312 L 194.953125 106.628906 L 188.992188 108.402344 L 188.917969 108.472656 L 188.992188 108.898438 L 190.445312 109.183594 L 190.882812 108.6875 L 191.171875 109.253906 L 193.933594 116 L 194.445312 116.777344 C 195.996094 119.191406 198.25 121.203125 201.207031 122.8125 L 202.589844 123.523438 L 202.371094 123.734375 L 194.296875 123.734375 L 196.480469 129.839844 L 200.042969 136.371094 L 210.515625 147.589844 L 210.441406 148.371094 L 210.441406 148.511719 L 214.804688 152.914062 C 218.246094 156.367188 219.96875 158.472656 219.96875 159.230469 L 219.894531 159.941406 L 218.804688 160.152344 L 209.421875 156.535156 L 217.929688 169.59375 C 219.726562 172.152344 221.058594 175.0625 221.929688 178.328125 L 223.675781 186.917969 L 227.675781 204.097656 L 227.675781 204.167969 M 189.207031 95.410156 L 189.644531 95.199219 L 189.28125 95.199219 L 189.207031 95.410156 M 186.734375 99.386719 L 185.71875 99.03125 L 185.644531 98.605469 L 186.007812 98.320312 L 181.644531 98.605469 C 180.773438 98.652344 180.335938 98.867188 180.335938 99.246094 L 180.410156 99.671875 L 184.628906 100.027344 L 186.882812 99.8125 L 186.882812 99.742188 L 186.953125 99.386719 L 186.734375 99.386719 M 6.980469 64.035156 L 7.125 64.246094 L 8.144531 64.035156 C 8.386719 64.035156 9.285156 64.4375 10.835938 65.242188 C 12.335938 65.996094 14.542969 66.375 17.453125 66.375 C 20.261719 66.375 23.269531 65.902344 26.46875 64.957031 L 32.503906 59.703125 L 46.03125 48.273438 L 46.828125 49.125 L 44.355469 55.726562 L 51.410156 50.050781 C 52.28125 49.195312 54.488281 45.625 58.027344 39.328125 C 60.742188 34.453125 62.730469 31.757812 63.992188 31.238281 L 64.425781 31.09375 C 64.910156 31.09375 65.152344 31.425781 65.152344 32.089844 L 65.007812 32.445312 L 65.734375 33.507812 C 68.886719 38.855469 70.460938 41.910156 70.460938 42.667969 C 70.460938 43.042969 70.171875 43.542969 69.589844 44.15625 L 69.664062 44.511719 L 65.808594 47.777344 C 62.511719 50.710938 60.476562 53.078125 59.699219 54.875 C 56.5 61.785156 54.5625 65.691406 53.882812 66.589844 C 51.554688 69.664062 47.410156 73.523438 41.449219 78.160156 C 38.976562 80.054688 36.550781 81.425781 34.175781 82.277344 C 31.851562 83.082031 28.433594 83.886719 23.921875 84.691406 C 21.886719 85.023438 20.554688 85.402344 19.925781 85.828125 L 19.777344 85.828125 C 17.257812 86.679688 15.320312 87.105469 13.960938 87.105469 C 12.945312 87.105469 9.257812 83.296875 2.910156 75.675781 C 2.910156 73.546875 3.949219 70.328125 6.035156 66.023438 L 6.980469 64.035156 M 44.285156 51.964844 L 44.355469 52.035156 L 44.429688 51.824219 L 44.285156 51.964844 "/>
<path style=" stroke:none;fill-rule:evenodd;fill:rgb(23.529412%,23.529412%,20.392157%);fill-opacity:1;" d="M 227.675781 204.167969 L 227.675781 204.097656 L 223.675781 186.917969 L 221.929688 178.328125 C 221.058594 175.0625 219.726562 172.152344 217.929688 169.59375 L 209.421875 156.535156 L 218.804688 160.152344 L 219.894531 159.941406 L 219.96875 159.230469 C 219.96875 158.472656 218.246094 156.367188 214.804688 152.914062 L 210.441406 148.511719 L 210.441406 148.371094 L 210.515625 147.589844 L 200.042969 136.371094 L 196.480469 129.839844 L 194.296875 123.734375 L 202.371094 123.734375 L 202.589844 123.523438 L 201.207031 122.8125 C 198.25 121.203125 195.996094 119.191406 194.445312 116.777344 L 193.933594 116 L 191.171875 109.253906 L 192.335938 109.253906 L 196.554688 108.402344 C 205.277344 106.558594 209.640625 105.042969 209.640625 103.859375 L 209.496094 103.363281 L 208.476562 103.21875 L 198.226562 105.777344 L 198.808594 105.277344 L 202.589844 102.863281 C 201.957031 102.25 200.359375 102.25 197.789062 102.863281 C 195.21875 103.527344 193.160156 103.101562 191.609375 101.585938 L 188.917969 99.386719 L 194.664062 97.824219 C 199.703125 96.261719 202.226562 95.03125 202.226562 94.132812 L 201.496094 93.421875 L 193.644531 96.40625 C 193.351562 97.398438 192.117188 97.96875 189.9375 98.109375 L 189.0625 98.179688 L 189.644531 97.257812 C 190.082031 96.878906 191.316406 96.121094 193.351562 94.984375 C 192.433594 94.324219 190.25 93.496094 186.808594 92.5 L 182.082031 91.363281 L 187.898438 89.304688 C 192.070312 87.839844 199.632812 86.230469 210.585938 84.480469 L 210.585938 84.832031 L 208.769531 88.453125 C 207.800781 90.394531 207.316406 91.816406 207.316406 92.714844 C 207.316406 93.1875 207.558594 93.496094 208.042969 93.636719 L 209.859375 90.371094 L 210.078125 90.300781 L 210.222656 90.441406 L 210.660156 91.71875 C 211.679688 92.429688 213.035156 93.96875 214.730469 96.335938 L 213.058594 98.746094 L 212.476562 98.605469 L 211.824219 98.746094 L 211.75 99.601562 L 211.894531 100.097656 L 210.585938 101.515625 L 211.386719 102.296875 L 212.839844 101.089844 L 214.367188 102.226562 C 214.367188 104.78125 213.785156 106.53125 212.625 107.480469 L 211.894531 108.402344 L 211.53125 109.113281 L 211.679688 110.816406 C 212.113281 111.003906 212.257812 111.738281 212.113281 113.015625 L 212.042969 115.21875 L 212.042969 115.289062 L 212.113281 115.574219 L 212.1875 115.574219 L 212.40625 116.210938 L 213.640625 118.910156 L 216.039062 122.53125 L 217.132812 125.226562 L 217.058594 125.582031 C 217.058594 126.433594 219.675781 135.261719 224.914062 152.0625 L 226.4375 158.519531 C 227.167969 161.125 228.28125 163.371094 229.785156 165.265625 L 234.21875 173.074219 L 235.238281 174.847656 L 235.09375 174.992188 L 241.636719 187.769531 C 243.574219 192.3125 244.546875 196.5 244.546875 200.332031 C 244.546875 201.375 244.253906 202.867188 243.671875 204.804688 L 229.203125 204.097656 L 227.675781 204.167969 M 189.207031 95.410156 L 189.28125 95.199219 L 189.644531 95.199219 L 189.207031 95.410156 M 209.421875 111.953125 L 209.351562 112.519531 L 209.496094 113.941406 L 209.421875 111.953125 M 6.980469 64.035156 C 8.386719 61.242188 9.695312 59.066406 10.90625 57.503906 C 12.363281 55.609375 15.683594 53.007812 20.871094 49.695312 C 28.480469 46.949219 32.867188 44.820312 34.03125 43.304688 C 37.957031 43.257812 41.546875 41.8125 44.792969 38.972656 C 46.488281 37.507812 47.96875 35.804688 49.230469 33.863281 C 51.023438 31.402344 52.429688 29.675781 53.445312 28.679688 L 58.101562 25.914062 L 60.210938 27.6875 L 63.992188 31.238281 C 62.730469 31.757812 60.742188 34.453125 58.027344 39.328125 C 54.488281 45.625 52.28125 49.195312 51.410156 50.050781 L 44.355469 55.726562 L 46.828125 49.125 L 46.03125 48.273438 L 32.503906 59.703125 L 26.46875 64.957031 C 23.269531 65.902344 20.261719 66.375 17.453125 66.375 C 14.542969 66.375 12.335938 65.996094 10.835938 65.242188 C 9.285156 64.4375 8.386719 64.035156 8.144531 64.035156 L 7.125 64.246094 L 6.980469 64.035156 M 44.285156 51.964844 L 44.429688 51.824219 L 44.355469 52.035156 L 44.285156 51.964844 "/>
</g>
</svg>
