<?xml version="1.0" encoding="UTF-8"?>
<svg xmlns="http://www.w3.org/2000/svg" xmlns:xlink="http://www.w3.org/1999/xlink" width="154px" height="180px" viewBox="0 0 154 180" version="1.1">
<g id="surface1">
<path style=" stroke:none;fill-rule:evenodd;fill:rgb(0%,0%,0%);fill-opacity:1;" d="M 84.128906 55.515625 L 80.507812 55.664062 L 79.753906 55.957031 L 78.394531 56.25 L 70.097656 56.394531 L 69.191406 56.539062 L 69.113281 58.734375 C 69.113281 59.660156 65.117188 60.125 57.117188 60.125 L 56.664062 59.90625 L 56.289062 59.976562 L 56.363281 60.125 L 54.929688 59.832031 L 54.929688 59.539062 L 55.457031 59.320312 L 54.929688 59.171875 L 54.855469 58.441406 L 54.628906 57.34375 L 54.175781 57.417969 L 47.535156 59.90625 L 43.308594 62.320312 L 40.746094 63.925781 L 40.441406 63.707031 L 40.214844 64 L 40.441406 64.148438 L 39.6875 64.511719 L 39.6875 64.585938 L 39.460938 64.660156 C 39.765625 64.953125 39.914062 65.390625 39.914062 65.976562 C 39.914062 66.367188 39.789062 66.558594 39.539062 66.558594 L 39.386719 66.269531 L 39.386719 66.632812 L 39.839844 72.703125 L 39.914062 77.238281 L 40.140625 77.96875 L 40.667969 78.117188 L 43.460938 78.1875 L 43.460938 78.117188 L 50.628906 77.382812 C 50.78125 77.382812 51.683594 77.117188 53.34375 76.578125 L 54.175781 76.507812 L 56.136719 74.53125 L 56.890625 73.363281 L 57.722656 72.558594 L 57.644531 71.167969 L 57.417969 69.339844 L 57.644531 69.046875 L 57.722656 69.046875 L 57.796875 68.972656 L 57.949219 68.972656 L 58.25 70.289062 L 58.402344 71.3125 L 58.402344 72.339844 L 62.25 72.265625 L 71.226562 72.410156 L 70.851562 70.949219 L 70.851562 70.363281 L 70.925781 70.363281 L 71.152344 70.070312 L 70.925781 70.070312 C 70.976562 69.339844 71.152344 68.972656 71.453125 68.972656 L 71.679688 69.484375 L 71.679688 69.558594 L 71.53125 69.632812 L 71.757812 69.777344 L 71.757812 69.851562 L 71.605469 70.949219 L 72.285156 72.703125 L 72.285156 72.777344 L 72.433594 72.996094 L 72.964844 73.65625 L 73.71875 74.386719 L 74.019531 74.75 L 74.246094 74.972656 L 76.960938 75.042969 L 81.035156 74.824219 L 85.640625 74.824219 L 85.5625 74.679688 L 88.507812 74.386719 L 88.960938 74.09375 L 89.1875 74.3125 L 93.183594 74.167969 L 95.070312 73.945312 L 96.730469 73.875 L 96.804688 73.875 L 96.804688 73.945312 L 101.183594 73.582031 L 101.183594 72.921875 L 101.558594 72.921875 L 101.863281 72.628906 L 101.183594 72.628906 L 101.183594 72.558594 C 101.636719 72.410156 101.863281 72.214844 101.863281 71.972656 L 101.710938 71.386719 L 101.332031 71.386719 L 101.332031 72.191406 L 101.183594 72.191406 L 101.183594 69.632812 L 101.484375 69.339844 L 101.183594 69.265625 L 101.183594 65.464844 L 100.957031 64.585938 L 100.882812 64.367188 L 98.769531 54.347656 L 98.164062 54.347656 L 97.636719 54.417969 L 97.636719 54.492188 L 97.335938 54.492188 L 96.65625 54.566406 L 96.355469 54.566406 L 92.503906 54.933594 L 86.996094 55.664062 L 85.867188 55.664062 L 85.1875 55.734375 L 84.207031 55.589844 L 85.335938 55.589844 L 84.128906 55.515625 M 111.59375 67.875 L 111.59375 68.460938 C 111.746094 68.949219 111.820312 69.898438 111.820312 71.3125 L 111.820312 71.605469 L 111.972656 71.824219 L 111.519531 72.265625 L 110.839844 72.703125 L 109.859375 72.851562 L 109.257812 72.921875 L 107.292969 72.996094 L 105.710938 72.921875 L 101.9375 72.777344 L 101.9375 73.582031 C 101.9375 74.167969 101.332031 74.457031 100.125 74.457031 L 97.5625 74.457031 L 96.804688 74.605469 L 96.503906 74.605469 L 88.734375 75.042969 L 81.792969 75.554688 L 76.8125 75.773438 L 74.699219 75.847656 L 74.625 75.773438 C 74.070312 75.773438 73.414062 75.410156 72.660156 74.679688 L 71.605469 73.65625 L 71.832031 73.433594 L 71.679688 73.214844 L 62.171875 72.996094 L 58.175781 73.070312 L 58.097656 73.214844 L 57.34375 74.09375 L 56.515625 75.191406 L 55.15625 76.507812 L 55.15625 76.578125 L 54.402344 77.089844 L 53.949219 77.238281 L 53.875 77.238281 L 53.875 77.164062 L 51.683594 77.894531 L 45.421875 78.480469 L 44.140625 78.847656 L 43.460938 78.921875 L 43.460938 78.847656 L 42.253906 78.847656 L 40.441406 78.773438 C 39.789062 78.824219 39.363281 78.3125 39.160156 77.238281 L 37.273438 77.382812 L 36.292969 77.382812 L 36.292969 77.457031 L 35.765625 77.238281 L 35.6875 76.140625 L 35.464844 69.121094 L 35.539062 67.070312 L 35.464844 66.339844 C 35.109375 66.339844 34.933594 66.242188 34.933594 66.046875 L 36.21875 64.953125 L 38.707031 64.21875 C 38.910156 63.828125 39.539062 63.539062 40.59375 63.34375 L 46.402344 59.6875 L 51.007812 57.710938 L 55.457031 56.539062 L 55.609375 56.46875 L 57.269531 56.101562 L 57.949219 55.882812 L 58.097656 55.882812 L 58.25 55.808594 L 58.476562 55.882812 L 58.777344 55.808594 L 59.382812 55.957031 L 60.289062 55.957031 L 60.289062 56.027344 L 64.210938 55.882812 L 66.851562 55.664062 L 69.644531 55.589844 L 70.019531 55.589844 L 72.8125 55.734375 L 76.507812 55.882812 L 79.074219 55.078125 L 86.167969 54.710938 L 84.28125 54.710938 L 86.769531 54.933594 L 92.355469 54.273438 L 96.203125 53.980469 L 98.617188 53.617188 C 99.222656 53.617188 99.75 54.664062 100.203125 56.761719 L 100.277344 56.980469 L 103.371094 56.6875 L 108.652344 57.492188 L 109.257812 57.710938 L 109.40625 57.710938 L 110.238281 57.855469 L 110.3125 58.078125 L 110.765625 58.371094 L 110.464844 58.734375 L 110.992188 61.441406 C 111.394531 63 111.59375 65.074219 111.59375 67.65625 L 110.613281 67.292969 L 110.613281 66.269531 L 109.40625 66.046875 L 106.617188 66.707031 L 106.464844 66.78125 L 106.085938 66.707031 L 106.238281 66.851562 L 106.085938 66.851562 L 105.632812 67 L 105.183594 66.925781 L 105.105469 66.632812 L 106.464844 65.902344 L 109.484375 65.316406 L 110.613281 65.753906 L 110.613281 65.390625 L 110.691406 65.535156 L 110.691406 63.707031 L 109.558594 58.515625 L 108.425781 58.078125 L 103.445312 57.417969 L 100.578125 57.636719 L 100.351562 57.636719 L 100.351562 57.710938 L 101.03125 61.660156 L 101.484375 64 L 105.40625 63.34375 L 105.484375 63.414062 L 108.125 62.976562 L 109.179688 63.414062 L 108.5 63.707031 L 107.144531 63.78125 C 106.941406 63.976562 106.640625 64.121094 106.238281 64.21875 L 104.878906 64.367188 L 104.351562 64.4375 L 103.21875 64.4375 L 101.636719 64.953125 L 101.710938 65.535156 L 101.332031 65.535156 L 101.785156 65.902344 L 101.9375 69.632812 L 101.9375 72.265625 L 105.257812 72.191406 L 105.558594 72.046875 L 105.632812 72.191406 L 107.671875 72.191406 L 109.859375 71.898438 L 110.238281 71.972656 L 110.464844 71.972656 L 110.3125 71.605469 L 110.464844 71.535156 L 110.613281 70.070312 L 110.613281 68.023438 L 111.367188 68.023438 L 111.59375 67.875 M 82.921875 58.003906 L 78.09375 58.003906 L 77.867188 58.148438 L 76.886719 58.222656 L 76.058594 58.660156 L 73.71875 59.464844 L 70.625 61.222656 L 70.773438 63.5625 L 70.925781 64.585938 L 71.152344 65.828125 L 77.265625 66.488281 L 80.585938 69.632812 L 81.113281 70.070312 L 80.660156 69.632812 L 80.132812 68.679688 C 79.828125 68.046875 79.679688 66.65625 79.679688 64.511719 L 79.828125 62.320312 L 80.207031 62.246094 L 79.90625 62.097656 L 80.207031 61.003906 L 81.792969 59.320312 L 82.695312 58.660156 L 82.921875 58.296875 L 85.867188 58.003906 C 89.4375 58.003906 91.652344 59.367188 92.503906 62.097656 L 92.808594 63.050781 L 93.183594 64.511719 L 93.488281 66.414062 L 93.410156 66.558594 L 93.488281 66.632812 L 93.488281 66.851562 C 93.488281 68.21875 92.78125 69.460938 91.375 70.582031 C 90.117188 71.605469 88.910156 72.117188 87.753906 72.117188 C 85.289062 72.117188 83.375 71.679688 82.019531 70.800781 L 85.335938 72.777344 L 91.375 72.921875 L 95.148438 72.921875 C 95.195312 72.726562 95.347656 72.628906 95.597656 72.628906 C 95.597656 72.726562 95.699219 72.800781 95.902344 72.851562 L 96.730469 72.851562 L 96.730469 72.921875 L 97.9375 72.851562 L 97.9375 68.828125 L 98.015625 68.828125 L 98.089844 68.679688 L 97.9375 68.316406 L 97.863281 66.414062 C 96.355469 66.65625 95.597656 65.707031 95.597656 63.5625 C 95.699219 62.636719 95.472656 61.710938 94.921875 60.78125 L 94.390625 60.488281 L 91.902344 58.953125 L 89.941406 58.148438 L 88.582031 57.929688 L 85.867188 57.929688 L 82.921875 58.003906 M 86.015625 58.808594 L 84.660156 58.734375 C 83.855469 58.734375 82.921875 59.246094 81.867188 60.269531 L 80.734375 61.441406 L 80.433594 64.4375 L 80.808594 68.460938 C 81.414062 69.679688 82.519531 70.535156 84.128906 71.023438 L 84.207031 71.023438 L 87.074219 71.386719 L 87.675781 71.386719 C 89.035156 71.386719 90.242188 70.851562 91.296875 69.777344 C 92.253906 68.804688 92.730469 67.804688 92.730469 66.78125 C 92.730469 65.316406 92.429688 63.902344 91.828125 62.539062 L 91.828125 62.464844 L 90.84375 60.417969 C 90.492188 59.441406 88.910156 58.90625 86.09375 58.808594 L 86.015625 58.808594 M 84.28125 70.65625 C 81.867188 69.972656 80.835938 68.21875 81.1875 65.390625 C 80.9375 63.292969 81.210938 61.734375 82.019531 60.710938 C 82.824219 59.636719 84.15625 59.101562 86.015625 59.101562 C 88.785156 59.101562 90.644531 60.246094 91.601562 62.539062 L 92.203125 66.269531 C 92.203125 67.632812 91.652344 68.777344 90.542969 69.707031 C 89.539062 70.582031 88.40625 71.023438 87.148438 71.023438 L 84.28125 70.65625 M 74.625 66.78125 L 73.792969 66.78125 L 70.851562 66.632812 L 70.773438 66.632812 L 70.324219 66.195312 L 70.625 65.902344 L 69.871094 61.441406 L 70.019531 60.855469 C 70.121094 60.171875 71.253906 59.492188 73.414062 58.808594 L 75.605469 58.003906 L 76.8125 57.492188 L 77.867188 57.34375 L 80.886719 57.273438 L 82.921875 57.417969 L 85.109375 57.273438 L 88.054688 57.273438 C 90.316406 57.515625 92.328125 58.246094 94.089844 59.464844 L 95.449219 60.417969 C 96.050781 60.515625 96.355469 61.417969 96.355469 63.121094 C 96.355469 64.683594 96.679688 65.535156 97.335938 65.683594 C 98.339844 65.878906 98.84375 66.097656 98.84375 66.339844 L 98.617188 67 L 98.691406 68.316406 L 98.542969 68.316406 L 98.164062 68.460938 L 98.617188 69.265625 L 98.691406 69.339844 L 98.691406 71.09375 C 98.691406 71.632812 98.617188 72.09375 98.464844 72.484375 L 98.164062 72.484375 L 98.164062 72.777344 L 98.316406 72.851562 C 98.015625 73.386719 97.484375 73.65625 96.730469 73.65625 L 91.449219 73.65625 L 85.035156 73.363281 C 83.675781 73.019531 82.019531 71.949219 80.054688 70.144531 L 78.246094 68.097656 L 76.8125 67.144531 L 75.074219 66.78125 L 74.925781 66.488281 L 74.625 66.78125 M 84.28125 54.710938 L 84.054688 54.710938 L 84.28125 54.710938 M 68.4375 57.710938 L 68.664062 57.492188 L 68.4375 57.417969 L 68.4375 56.613281 C 66.324219 56.761719 62.878906 56.832031 58.097656 56.832031 L 56.742188 56.90625 L 56.136719 57.125 L 55.683594 57.199219 L 55.382812 57.492188 L 55.457031 57.636719 L 55.535156 57.636719 L 55.535156 57.785156 L 55.308594 57.785156 L 55.457031 58.078125 L 55.609375 58.078125 L 55.761719 58.589844 L 55.609375 58.882812 L 55.609375 59.394531 L 58.023438 59.394531 L 68.359375 58.734375 L 68.4375 57.710938 M 57.195312 65.976562 L 57.117188 66.121094 L 56.742188 66.339844 L 56.4375 66.269531 L 55.003906 67.070312 L 53.421875 68.386719 C 53.167969 69.65625 52.867188 70.605469 52.515625 71.242188 L 52.0625 72.117188 C 51.660156 74.214844 50.554688 75.410156 48.742188 75.703125 L 48.59375 75.773438 C 47.6875 76.214844 46.101562 76.433594 43.839844 76.433594 L 42.78125 76.433594 C 41.828125 76.433594 41.296875 76.289062 41.199219 75.996094 L 41.199219 73.214844 L 41.953125 72.191406 C 42.203125 72.09375 42.40625 71.410156 42.554688 70.144531 L 43.007812 67 L 43.007812 66.488281 L 43.308594 65.902344 L 45.5 63.636719 C 47.410156 62.5625 50.679688 62.027344 55.308594 62.027344 L 55.984375 62.027344 L 56.136719 62.097656 C 56.488281 62.148438 56.664062 62.246094 56.664062 62.390625 L 56.4375 62.609375 L 57.496094 65.609375 L 57.195312 65.976562 M 51.761719 65.753906 L 52.214844 69.707031 L 52.816406 67.875 L 56.363281 65.683594 L 56.4375 65.609375 L 56.136719 65.023438 L 55.609375 62.757812 L 54.25 62.757812 L 49.269531 63.195312 L 48.894531 63.269531 L 49.269531 63.269531 C 50.378906 63.269531 51.183594 64 51.683594 65.464844 L 51.535156 65.464844 L 51.683594 65.753906 L 51.761719 65.753906 M 49.496094 64.953125 C 50.300781 64.953125 50.78125 65.730469 50.929688 67.292969 L 51.007812 69.632812 C 51.007812 70.65625 50.929688 71.507812 50.78125 72.191406 L 50.476562 73.214844 L 50.78125 72.996094 C 50.476562 74.019531 49.597656 74.53125 48.140625 74.53125 L 47.6875 74.53125 C 46.730469 74.191406 46.253906 73.191406 46.253906 71.535156 L 46.328125 69.632812 C 46.328125 66.269531 47.234375 64.585938 49.042969 64.585938 L 49.496094 64.953125 M 49.195312 64 L 47.082031 64.804688 L 46.554688 65.753906 L 46.253906 67.730469 L 46.101562 71.605469 C 45.851562 73.898438 46.429688 75.042969 47.835938 75.042969 L 48.289062 75.042969 C 49.195312 75.042969 49.949219 74.679688 50.554688 73.945312 C 51.058594 73.410156 51.308594 72.949219 51.308594 72.558594 L 51.234375 72.339844 L 51.382812 72.117188 L 51.460938 70.289062 L 51.15625 67 C 51.207031 66.65625 51.082031 66.144531 50.78125 65.464844 C 50.78125 64.632812 50.25 64.148438 49.195312 64 M 46.101562 64.148438 L 43.761719 66.414062 L 43.6875 66.558594 L 43.6875 66.632812 L 43.308594 69.851562 L 43.460938 71.535156 C 43.410156 72.167969 42.90625 72.65625 41.953125 72.996094 L 41.953125 75.703125 L 43.386719 75.996094 L 43.386719 75.703125 L 43.914062 75.703125 L 46.78125 75.628906 C 45.625 75.140625 45.144531 73.824219 45.347656 71.679688 L 45.648438 66.195312 C 46 64.828125 46.707031 63.953125 47.761719 63.5625 L 46.101562 64.148438 M 47.835938 70.363281 L 47.761719 69.632812 L 47.835938 68.242188 L 48.289062 67.875 C 48.691406 67.875 48.917969 68.195312 48.96875 68.828125 L 48.96875 69.925781 L 47.835938 70.363281 M 50.175781 67.875 L 50.101562 67.4375 C 50.050781 66.460938 49.699219 65.78125 49.042969 65.390625 C 47.335938 65.390625 46.679688 66.804688 47.082031 69.632812 L 46.933594 69.632812 L 46.855469 69.777344 L 46.855469 70.070312 L 47.007812 70.582031 L 47.007812 71.023438 L 47.308594 73.140625 L 47.609375 73.582031 C 47.8125 73.824219 48.113281 73.945312 48.515625 73.945312 L 48.59375 73.800781 C 49.195312 73.75 49.625 73.363281 49.875 72.628906 L 50.101562 71.898438 L 50.101562 71.824219 L 50.25 69.632812 L 50.175781 68.535156 L 50.554688 67.875 L 50.402344 67.585938 L 50.175781 67.875 M 47.914062 70.875 L 48.894531 70.875 L 48.96875 71.167969 C 48.96875 71.410156 48.84375 71.535156 48.59375 71.535156 L 48.441406 71.535156 C 48.1875 71.484375 48.011719 71.265625 47.914062 70.875 M 82.167969 63.269531 L 81.941406 63.34375 L 82.09375 63.707031 L 81.941406 65.316406 C 81.941406 68.632812 83.652344 70.289062 87.074219 70.289062 C 88.53125 70.289062 89.6875 69.65625 90.542969 68.386719 C 91.148438 67.558594 91.449219 66.851562 91.449219 66.269531 L 91.375 64.4375 L 91.523438 64.074219 L 91.523438 63.707031 L 91.449219 63.707031 L 91.296875 63.488281 L 91.148438 63.5625 C 90.441406 60.636719 88.382812 59.394531 84.960938 59.832031 C 83.453125 60.367188 82.519531 61.515625 82.167969 63.269531 M 87.902344 66.632812 L 85.867188 66.78125 L 84.886719 66.339844 L 84.734375 64.804688 C 84.53125 63.441406 85.085938 62.757812 86.394531 62.757812 C 87.5 62.757812 88.15625 63.148438 88.355469 63.925781 L 88.355469 65.171875 C 88.355469 65.804688 88.203125 66.292969 87.902344 66.632812 M 104.125 74.09375 L 104.125 74.019531 L 104.125 74.09375 M 36.367188 76.652344 L 36.519531 76.800781 L 38.179688 76.652344 L 39.085938 76.359375 L 39.085938 72.703125 L 38.632812 69.632812 L 38.632812 66.558594 L 38.707031 64.953125 L 37.425781 65.390625 L 36.292969 65.976562 L 36.292969 70.4375 L 36.21875 70.800781 L 36.292969 71.3125 L 36.292969 76.726562 L 36.367188 76.652344 "/>
<path style=" stroke:none;fill-rule:evenodd;fill:rgb(1.568628%,35.686275%,42.352942%);fill-opacity:1;" d="M 57.117188 60.125 C 65.117188 60.125 69.113281 59.660156 69.113281 58.734375 L 69.191406 56.539062 L 70.097656 56.394531 L 78.394531 56.25 L 79.753906 55.957031 L 80.507812 55.664062 L 84.128906 55.515625 L 84.207031 55.589844 L 85.1875 55.734375 L 85.867188 55.664062 L 86.996094 55.664062 L 92.503906 54.933594 L 96.355469 54.566406 L 96.65625 54.566406 L 97.335938 54.492188 L 97.636719 54.492188 L 97.636719 54.417969 L 98.164062 54.347656 L 98.769531 54.347656 L 100.882812 64.367188 L 100.957031 64.585938 L 101.183594 65.464844 L 101.183594 69.265625 L 99.597656 68.972656 L 98.691406 68.316406 L 98.617188 67 L 98.84375 66.339844 C 98.84375 66.097656 98.339844 65.878906 97.335938 65.683594 C 96.679688 65.535156 96.355469 64.683594 96.355469 63.121094 C 96.355469 61.417969 96.050781 60.515625 95.449219 60.417969 L 94.089844 59.464844 C 92.328125 58.246094 90.316406 57.515625 88.054688 57.273438 L 85.109375 57.273438 L 82.921875 57.417969 L 80.886719 57.273438 L 77.867188 57.34375 L 76.8125 57.492188 L 75.605469 58.003906 L 73.414062 58.808594 C 71.253906 59.492188 70.121094 60.171875 70.019531 60.855469 L 69.871094 61.441406 L 70.625 65.902344 L 70.324219 66.195312 L 70.773438 66.632812 L 70.851562 66.632812 L 73.792969 66.78125 L 74.625 66.78125 L 72.285156 68.828125 L 71.90625 68.460938 L 71.53125 68.609375 L 71.605469 68.972656 L 71.679688 69.484375 L 71.453125 68.972656 C 71.152344 68.972656 70.976562 69.339844 70.925781 70.070312 L 58.324219 69.925781 L 58.324219 70.21875 L 58.25 70.289062 L 57.949219 68.972656 L 57.796875 68.972656 L 57.871094 68.972656 C 58.175781 68.582031 58.324219 67.632812 58.324219 66.121094 C 58.074219 62.757812 57.671875 60.757812 57.117188 60.125 M 101.183594 69.632812 L 101.183594 72.191406 L 98.542969 72.339844 L 98.542969 72.484375 L 98.464844 72.484375 C 98.617188 72.09375 98.691406 71.632812 98.691406 71.09375 L 98.691406 69.339844 L 101.183594 69.632812 M 101.183594 72.558594 L 101.183594 72.628906 L 101.105469 72.628906 L 101.183594 72.558594 M 71.757812 69.851562 L 71.757812 69.777344 L 71.832031 69.851562 L 71.757812 69.851562 M 40.746094 63.925781 L 43.308594 62.320312 L 47.535156 59.90625 L 54.175781 57.417969 L 54.628906 57.34375 L 54.855469 58.441406 L 54.929688 59.171875 L 54.402344 59.101562 L 46.554688 61.222656 L 44.367188 62.832031 C 43.109375 63.757812 42.101562 64.21875 41.347656 64.21875 L 40.746094 63.925781 M 110.613281 68.023438 L 110.613281 70.070312 L 110.464844 71.535156 L 110.3125 71.605469 L 110.464844 71.972656 L 110.238281 71.972656 L 109.859375 71.898438 L 107.671875 72.191406 L 105.632812 72.191406 L 105.558594 72.046875 L 105.257812 72.191406 L 101.9375 72.265625 L 101.9375 69.632812 L 101.785156 65.902344 L 102.691406 65.976562 L 109.40625 63.636719 L 109.257812 63.34375 L 109.179688 63.414062 L 108.125 62.976562 L 105.484375 63.414062 L 105.40625 63.34375 L 101.484375 64 L 101.03125 61.660156 L 100.351562 57.710938 L 100.578125 57.636719 L 103.445312 57.417969 L 108.425781 58.078125 L 109.558594 58.515625 L 110.691406 63.707031 L 110.691406 65.535156 L 110.613281 65.390625 L 110.613281 65.753906 L 109.484375 65.316406 L 106.464844 65.902344 L 105.105469 66.632812 L 105.183594 66.925781 L 105.632812 67 L 106.085938 66.851562 L 106.085938 67.070312 C 106.136719 67.65625 107.648438 67.972656 110.613281 68.023438 M 106.464844 66.78125 L 106.617188 66.707031 L 106.617188 66.78125 L 106.464844 66.78125 "/>
<path style=" stroke:none;fill-rule:evenodd;fill:rgb(89.019608%,90.588236%,90.980393%);fill-opacity:1;" d="M 70.925781 64.585938 L 70.773438 63.5625 L 70.625 61.222656 L 73.71875 59.464844 L 76.058594 58.660156 L 76.886719 58.222656 L 77.867188 58.148438 L 78.09375 58.003906 L 82.921875 58.003906 L 82.921875 58.296875 L 82.695312 58.660156 L 81.792969 59.320312 L 80.207031 61.003906 L 79.90625 62.097656 L 80.207031 62.246094 L 79.828125 62.320312 L 78.699219 63.414062 L 78.394531 64.074219 L 78.472656 64.074219 L 78.167969 64.367188 L 78.09375 64.511719 L 77.1875 64.585938 L 77.414062 64.4375 L 75.378906 64.4375 L 75.605469 64.660156 L 71 64.511719 L 70.925781 64.585938 M 85.867188 57.929688 L 88.582031 57.929688 L 89.941406 58.148438 L 91.902344 58.953125 L 94.390625 60.488281 L 94.921875 60.78125 C 95.472656 61.710938 95.699219 62.636719 95.597656 63.5625 C 95.597656 65.707031 96.355469 66.65625 97.863281 66.414062 L 97.9375 68.316406 L 98.089844 68.679688 L 98.015625 68.828125 L 97.9375 68.828125 C 97.433594 68.730469 97.160156 68.582031 97.109375 68.386719 C 96.304688 68.386719 95.800781 68.609375 95.597656 69.046875 C 94.492188 69.046875 93.890625 68.265625 93.789062 66.707031 L 93.488281 66.632812 L 93.410156 66.558594 L 93.488281 66.414062 L 93.710938 65.976562 L 93.261719 64.585938 L 92.882812 62.902344 L 92.808594 63.050781 L 92.503906 62.097656 C 91.652344 59.367188 89.4375 58.003906 85.867188 58.003906 L 85.867188 57.929688 M 55.609375 58.078125 L 55.457031 58.078125 L 55.308594 57.785156 L 55.535156 57.785156 L 55.535156 57.636719 L 55.457031 57.636719 L 55.382812 57.492188 L 55.683594 57.199219 L 56.136719 57.125 L 56.742188 56.90625 L 58.097656 56.832031 C 62.878906 56.832031 66.324219 56.761719 68.4375 56.613281 L 68.4375 57.417969 L 68.664062 57.492188 L 68.4375 57.710938 L 63.078125 58.148438 L 55.609375 58.078125 M 56.136719 65.023438 L 56.0625 64.953125 C 55.359375 65.535156 54.277344 65.828125 52.816406 65.828125 L 51.761719 65.753906 L 51.683594 65.753906 L 51.535156 65.464844 L 51.683594 65.464844 C 51.183594 64 50.378906 63.269531 49.269531 63.269531 L 49.269531 63.195312 L 54.25 62.757812 L 55.609375 62.757812 L 56.136719 65.023438 "/>
<path style=" stroke:none;fill-rule:evenodd;fill:rgb(59.607846%,61.960787%,68.235296%);fill-opacity:1;" d="M 70.925781 64.585938 L 71 64.511719 L 75.605469 64.660156 L 75.378906 64.4375 L 77.414062 64.4375 L 77.1875 64.585938 L 78.09375 64.511719 L 78.167969 64.367188 L 78.472656 64.074219 L 78.394531 64.074219 L 78.699219 63.414062 L 79.828125 62.320312 L 79.679688 64.511719 C 79.679688 66.65625 79.828125 68.046875 80.132812 68.679688 L 80.660156 69.632812 L 80.585938 69.632812 L 77.265625 66.488281 L 71.152344 65.828125 L 70.925781 64.585938 M 97.9375 68.828125 L 97.9375 72.851562 L 96.730469 72.921875 L 96.730469 72.851562 L 95.902344 72.851562 C 95.699219 72.800781 95.597656 72.726562 95.597656 72.628906 C 95.347656 72.628906 95.195312 72.726562 95.148438 72.921875 L 91.375 72.921875 L 85.335938 72.777344 L 82.019531 70.800781 C 83.375 71.679688 85.289062 72.117188 87.753906 72.117188 C 88.910156 72.117188 90.117188 71.605469 91.375 70.582031 C 92.78125 69.460938 93.488281 68.21875 93.488281 66.851562 L 93.488281 66.632812 L 93.789062 66.707031 C 93.890625 68.265625 94.492188 69.046875 95.597656 69.046875 C 95.800781 68.609375 96.304688 68.386719 97.109375 68.386719 C 97.160156 68.582031 97.433594 68.730469 97.9375 68.828125 M 93.488281 66.414062 L 93.183594 64.511719 L 92.808594 63.050781 L 92.882812 62.902344 L 93.261719 64.585938 L 93.710938 65.976562 L 93.488281 66.414062 M 84.207031 71.023438 L 84.128906 71.023438 C 82.519531 70.535156 81.414062 69.679688 80.808594 68.460938 L 80.433594 64.4375 L 80.734375 61.441406 L 81.867188 60.269531 C 82.921875 59.246094 83.855469 58.734375 84.660156 58.734375 L 86.015625 58.808594 L 86.015625 59.101562 C 84.15625 59.101562 82.824219 59.636719 82.019531 60.710938 C 81.210938 61.734375 80.9375 63.292969 81.1875 65.390625 C 80.835938 68.21875 81.867188 69.972656 84.28125 70.65625 L 84.207031 71.023438 M 91.828125 62.464844 L 91.828125 62.539062 C 92.429688 63.902344 92.730469 65.316406 92.730469 66.78125 C 92.730469 67.804688 92.253906 68.804688 91.296875 69.777344 C 90.242188 70.851562 89.035156 71.386719 87.675781 71.386719 L 87.074219 71.386719 L 87.148438 71.023438 C 88.40625 71.023438 89.539062 70.582031 90.542969 69.707031 C 91.652344 68.777344 92.203125 67.632812 92.203125 66.269531 L 91.601562 62.539062 L 91.828125 62.464844 M 55.609375 58.078125 L 63.078125 58.148438 L 68.4375 57.710938 L 68.359375 58.734375 L 58.023438 59.394531 L 55.609375 59.394531 L 55.609375 58.882812 L 55.761719 58.589844 L 55.609375 58.078125 M 51.761719 65.753906 L 52.816406 65.828125 C 54.277344 65.828125 55.359375 65.535156 56.0625 64.953125 L 56.136719 65.023438 L 56.4375 65.609375 L 56.363281 65.683594 L 52.816406 67.875 L 52.214844 69.707031 L 51.761719 65.753906 M 49.269531 63.195312 L 49.269531 63.269531 L 49.269531 63.195312 M 46.101562 64.148438 L 47.761719 63.5625 C 46.707031 63.953125 46 64.828125 45.648438 66.195312 L 45.347656 71.679688 C 45.144531 73.824219 45.625 75.140625 46.78125 75.628906 L 43.914062 75.703125 L 43.386719 75.703125 L 43.386719 75.996094 L 41.953125 75.703125 L 41.953125 72.996094 C 42.90625 72.65625 43.410156 72.167969 43.460938 71.535156 L 43.308594 69.851562 L 43.6875 66.632812 L 43.6875 66.558594 L 43.761719 66.414062 L 46.101562 64.148438 M 49.195312 64 C 50.25 64.148438 50.78125 64.632812 50.78125 65.464844 C 51.082031 66.144531 51.207031 66.65625 51.15625 67 L 51.460938 70.289062 L 51.382812 72.117188 L 51.234375 72.339844 L 51.308594 72.558594 C 51.308594 72.949219 51.058594 73.410156 50.554688 73.945312 C 49.949219 74.679688 49.195312 75.042969 48.289062 75.042969 L 47.835938 75.042969 C 46.429688 75.042969 45.851562 73.898438 46.101562 71.605469 L 46.253906 67.730469 L 46.554688 65.753906 L 47.082031 64.804688 L 49.195312 64 M 49.496094 64.953125 L 49.042969 64.585938 C 47.234375 64.585938 46.328125 66.269531 46.328125 69.632812 L 46.253906 71.535156 C 46.253906 73.191406 46.730469 74.191406 47.6875 74.53125 L 48.140625 74.53125 C 49.597656 74.53125 50.476562 74.019531 50.78125 72.996094 L 50.476562 73.214844 L 50.78125 72.191406 C 50.929688 71.507812 51.007812 70.65625 51.007812 69.632812 L 50.929688 67.292969 C 50.78125 65.730469 50.300781 64.953125 49.496094 64.953125 "/>
<path style=" stroke:none;fill-rule:evenodd;fill:rgb(0%,10.980392%,14.117648%);fill-opacity:1;" d="M 101.183594 72.191406 L 101.332031 72.191406 L 101.332031 71.386719 L 101.710938 71.386719 L 101.863281 71.972656 C 101.863281 72.214844 101.636719 72.410156 101.183594 72.558594 L 101.105469 72.628906 L 101.863281 72.628906 L 101.558594 72.921875 L 101.183594 72.921875 L 101.183594 73.582031 L 96.804688 73.945312 L 96.804688 73.875 L 96.730469 73.875 L 95.070312 73.945312 L 93.183594 74.167969 L 89.1875 74.3125 L 88.960938 74.09375 L 88.507812 74.386719 L 85.5625 74.679688 L 85.640625 74.824219 L 81.035156 74.824219 L 76.960938 75.042969 L 74.246094 74.972656 L 74.019531 74.75 L 73.71875 74.386719 L 72.964844 73.65625 L 72.433594 72.996094 L 72.285156 72.777344 L 72.285156 72.703125 L 71.605469 70.949219 L 71.757812 69.851562 L 71.832031 69.851562 L 71.757812 69.777344 L 71.53125 69.632812 L 71.679688 69.558594 L 71.679688 69.484375 L 71.605469 68.972656 L 71.53125 68.609375 L 71.90625 68.460938 L 72.285156 68.828125 L 74.625 66.78125 L 74.925781 66.488281 L 75.074219 66.78125 L 76.8125 67.144531 L 78.246094 68.097656 L 80.054688 70.144531 C 82.019531 71.949219 83.675781 73.019531 85.035156 73.363281 L 91.449219 73.65625 L 96.730469 73.65625 C 97.484375 73.65625 98.015625 73.386719 98.316406 72.851562 L 98.164062 72.777344 L 98.164062 72.484375 L 98.542969 72.484375 L 98.542969 72.339844 L 101.183594 72.191406 M 57.796875 68.972656 L 57.722656 69.046875 L 57.644531 69.046875 L 57.417969 69.339844 L 57.644531 71.167969 L 57.722656 72.558594 L 56.890625 73.363281 L 56.136719 74.53125 L 54.175781 76.507812 L 53.34375 76.578125 C 51.683594 77.117188 50.78125 77.382812 50.628906 77.382812 L 43.460938 78.117188 L 43.460938 78.1875 L 40.667969 78.117188 L 40.140625 77.96875 L 39.914062 77.238281 L 39.839844 72.703125 L 39.386719 66.632812 L 39.539062 66.558594 C 39.789062 66.558594 39.914062 66.367188 39.914062 65.976562 C 39.914062 65.390625 39.765625 64.953125 39.460938 64.660156 L 39.6875 64.585938 L 39.6875 64.511719 L 40.441406 64.148438 L 40.214844 64 L 40.441406 63.707031 L 40.746094 63.925781 L 41.347656 64.21875 C 42.101562 64.21875 43.109375 63.757812 44.367188 62.832031 L 46.554688 61.222656 L 54.402344 59.101562 L 54.929688 59.171875 L 55.457031 59.320312 L 54.929688 59.539062 L 54.929688 59.832031 L 56.363281 60.125 L 56.289062 59.976562 L 56.664062 59.90625 L 57.117188 60.125 C 57.671875 60.757812 58.074219 62.757812 58.324219 66.121094 C 58.324219 67.632812 58.175781 68.582031 57.871094 68.972656 L 57.796875 68.972656 M 111.59375 67.65625 L 111.671875 67.730469 L 111.59375 67.875 L 111.367188 68.023438 L 110.613281 68.023438 C 107.648438 67.972656 106.136719 67.65625 106.085938 67.070312 L 106.085938 66.851562 L 106.238281 66.851562 L 106.085938 66.707031 L 106.464844 66.78125 L 106.617188 66.78125 L 106.617188 66.707031 L 109.40625 66.046875 L 110.613281 66.269531 L 110.613281 67.292969 L 111.59375 67.65625 M 101.785156 65.902344 L 101.332031 65.535156 L 101.710938 65.535156 L 101.636719 64.953125 L 103.21875 64.4375 L 104.351562 64.4375 L 104.878906 64.367188 L 106.238281 64.21875 C 106.640625 64.121094 106.941406 63.976562 107.144531 63.78125 L 108.5 63.707031 L 109.179688 63.414062 L 109.257812 63.34375 L 109.40625 63.636719 L 102.691406 65.976562 L 101.785156 65.902344 M 57.195312 65.976562 L 57.496094 65.609375 L 56.4375 62.609375 L 56.664062 62.390625 C 56.664062 62.246094 56.488281 62.148438 56.136719 62.097656 L 55.984375 62.027344 L 55.308594 62.027344 C 50.679688 62.027344 47.410156 62.5625 45.5 63.636719 L 43.308594 65.902344 L 43.007812 66.488281 L 43.007812 67 L 42.554688 70.144531 C 42.40625 71.410156 42.203125 72.09375 41.953125 72.191406 L 41.199219 73.214844 L 41.199219 75.996094 C 41.296875 76.289062 41.828125 76.433594 42.78125 76.433594 L 43.839844 76.433594 C 46.101562 76.433594 47.6875 76.214844 48.59375 75.773438 L 48.742188 75.703125 C 50.554688 75.410156 51.660156 74.214844 52.0625 72.117188 L 52.515625 71.242188 C 52.867188 70.605469 53.167969 69.65625 53.421875 68.386719 L 55.003906 67.070312 L 56.4375 66.269531 L 56.742188 66.339844 L 57.117188 66.121094 L 57.195312 65.976562 M 36.292969 76.652344 L 36.292969 71.3125 L 36.21875 70.800781 L 36.292969 70.4375 L 36.292969 65.976562 L 37.425781 65.390625 L 38.707031 64.953125 L 38.632812 66.558594 L 38.632812 69.632812 L 39.085938 72.703125 L 39.085938 76.359375 L 38.179688 76.652344 L 36.519531 76.800781 L 36.367188 76.652344 L 36.292969 76.652344 "/>
<path style=" stroke:none;fill-rule:evenodd;fill:rgb(1.960784%,28.235295%,31.37255%);fill-opacity:1;" d="M 101.183594 69.265625 L 101.484375 69.339844 L 101.183594 69.632812 L 98.691406 69.339844 L 98.617188 69.265625 L 98.164062 68.460938 L 98.542969 68.316406 L 98.691406 68.316406 L 99.597656 68.972656 L 101.183594 69.265625 M 70.925781 70.070312 L 71.152344 70.070312 L 70.925781 70.363281 L 70.851562 70.363281 L 70.851562 70.949219 L 71.226562 72.410156 L 62.25 72.265625 L 58.402344 72.339844 L 58.402344 71.3125 L 58.25 70.289062 L 58.324219 70.21875 L 58.324219 69.925781 L 70.925781 70.070312 "/>
<path style=" stroke:none;fill-rule:evenodd;fill:rgb(5.098039%,11.764706%,22.745098%);fill-opacity:1;" d="M 48.96875 69.925781 L 48.96875 68.828125 C 48.917969 68.195312 48.691406 67.875 48.289062 67.875 L 47.835938 68.242188 L 47.761719 69.632812 L 47.835938 70.363281 L 47.535156 70.4375 L 47.234375 69.558594 L 47.082031 69.632812 C 46.679688 66.804688 47.335938 65.390625 49.042969 65.390625 C 49.699219 65.78125 50.050781 66.460938 50.101562 67.4375 L 50.175781 67.875 L 49.800781 68.902344 C 49.699219 69.289062 49.421875 69.632812 48.96875 69.925781 M 47.007812 70.582031 L 47.160156 70.875 L 47.007812 71.023438 L 47.007812 70.582031 M 82.167969 63.269531 C 82.519531 61.515625 83.453125 60.367188 84.960938 59.832031 C 88.382812 59.394531 90.441406 60.636719 91.148438 63.5625 L 90.996094 63.636719 L 90.996094 63.855469 L 88.582031 66.488281 L 87.902344 66.632812 C 88.203125 66.292969 88.355469 65.804688 88.355469 65.171875 L 88.355469 63.925781 C 88.15625 63.148438 87.5 62.757812 86.394531 62.757812 C 85.085938 62.757812 84.53125 63.441406 84.734375 64.804688 L 84.886719 66.339844 C 84.179688 65.804688 83.324219 64.757812 82.320312 63.195312 L 82.167969 63.269531 M 90.695312 64.953125 L 90.316406 65.535156 L 90.242188 65.464844 L 90.695312 64.953125 "/>
<path style=" stroke:none;fill-rule:evenodd;fill:rgb(0%,1.176471%,3.921569%);fill-opacity:1;" d="M 48.96875 69.925781 C 49.421875 69.632812 49.699219 69.289062 49.800781 68.902344 L 50.175781 67.875 L 50.402344 67.585938 L 50.554688 67.875 L 50.175781 68.535156 L 50.25 69.632812 L 50.101562 71.824219 L 50.101562 71.898438 L 49.875 72.628906 C 49.625 73.363281 49.195312 73.75 48.59375 73.800781 L 48.515625 73.945312 C 48.113281 73.945312 47.8125 73.824219 47.609375 73.582031 L 47.308594 73.140625 L 47.007812 71.023438 L 47.160156 70.875 L 47.007812 70.582031 L 46.855469 70.070312 L 46.855469 69.777344 L 46.933594 69.632812 L 47.082031 69.632812 L 47.234375 69.558594 L 47.535156 70.4375 L 47.835938 70.363281 L 48.96875 69.925781 M 47.914062 70.875 C 48.011719 71.265625 48.1875 71.484375 48.441406 71.535156 L 48.59375 71.535156 C 48.84375 71.535156 48.96875 71.410156 48.96875 71.167969 L 48.894531 70.875 L 47.914062 70.875 M 91.148438 63.5625 L 91.296875 63.488281 L 91.449219 63.707031 L 91.523438 63.707031 L 91.523438 64.074219 L 91.375 64.4375 L 91.449219 66.269531 C 91.449219 66.851562 91.148438 67.558594 90.542969 68.386719 C 89.6875 69.65625 88.53125 70.289062 87.074219 70.289062 C 83.652344 70.289062 81.941406 68.632812 81.941406 65.316406 L 82.09375 63.707031 L 81.941406 63.34375 L 82.167969 63.269531 L 82.320312 63.195312 C 83.324219 64.757812 84.179688 65.804688 84.886719 66.339844 L 85.867188 66.78125 L 87.902344 66.632812 L 88.582031 66.488281 L 90.996094 63.855469 L 90.996094 63.636719 L 91.148438 63.5625 M 90.695312 64.953125 L 90.242188 65.464844 L 90.316406 65.535156 L 90.695312 64.953125 "/>
</g>
</svg>
