<?xml version="1.0" encoding="UTF-8"?>
<svg xmlns="http://www.w3.org/2000/svg" xmlns:xlink="http://www.w3.org/1999/xlink" width="154px" height="180px" viewBox="0 0 154 180" version="1.1">
<g id="surface1">
<path style=" stroke:none;fill-rule:evenodd;fill:rgb(0%,0%,0%);fill-opacity:1;" d="M 91.523438 69.558594 L 94.164062 69.484375 L 95.902344 69.191406 C 96.402344 69.046875 96.933594 68.804688 97.484375 68.460938 L 97.5625 68.386719 L 97.710938 68.316406 L 97.710938 68.460938 L 98.769531 68.386719 C 99.976562 68.386719 100.429688 73.875 100.125 84.84375 C 100.125 90.988281 99.898438 95.035156 99.449219 96.984375 L 99.296875 102.617188 L 101.785156 99.691406 L 103.070312 98.960938 L 103.21875 109.78125 L 102.917969 118.121094 L 103.671875 116.585938 L 105.40625 111.683594 L 109.105469 101.957031 C 109.558594 101.957031 109.785156 103.566406 109.785156 106.785156 L 109.785156 114.464844 C 111.042969 120.070312 111.519531 124.214844 111.21875 126.898438 C 113.128906 117.632812 114.488281 113 115.292969 113 C 115.695312 113 115.972656 114.78125 116.121094 118.339844 C 116.273438 122.53125 116.574219 125.289062 117.027344 126.605469 C 118.285156 130.210938 119.292969 132.480469 120.046875 133.40625 L 120.5 133.84375 L 119.140625 131.503906 L 118.234375 127.628906 L 117.632812 123.53125 C 117.632812 120.265625 118.210938 115.488281 119.367188 109.199219 C 119.367188 106.222656 120.246094 101.519531 122.007812 95.082031 L 122.460938 85.867188 L 121.933594 85.722656 C 121.480469 80.015625 119.214844 72.019531 115.140625 61.734375 L 110.238281 49.957031 C 110.1875 50.054688 110.085938 50.105469 109.933594 50.105469 L 109.332031 49.957031 C 109.128906 46.9375 108.578125 44.472656 107.671875 42.570312 C 106.867188 40.914062 106.464844 39.039062 106.464844 36.941406 C 106.464844 35.234375 106.691406 33.894531 107.144531 32.917969 L 109.484375 27.871094 L 112.125 23.410156 L 113.933594 19.023438 C 117.40625 9.855469 119.746094 4.226562 120.953125 2.128906 C 119.191406 2.421875 116.625 3.542969 113.253906 5.492188 L 111.898438 6.296875 L 108.050781 9.515625 L 108.050781 9.660156 C 108.050781 9.90625 107.21875 10.78125 105.558594 12.292969 L 101.863281 15.367188 L 95.976562 20.265625 L 95.976562 21.582031 L 95.523438 21.4375 C 87.976562 19.046875 80.785156 17.851562 73.945312 17.851562 L 58.851562 18.070312 L 58.550781 18.21875 L 56.289062 18.4375 C 56.1875 18.632812 55.984375 18.730469 55.683594 18.730469 L 52.214844 16.902344 L 51.535156 16.460938 L 51.535156 16.390625 L 42.101562 9.808594 C 34.207031 4.25 29.25 1.46875 27.238281 1.46875 L 25.503906 1.542969 C 26.207031 2.078125 27.917969 4.421875 30.632812 8.5625 C 32.292969 11.101562 33.578125 13.441406 34.480469 15.585938 L 38.554688 23.996094 C 39.765625 26.335938 40.367188 28.238281 40.367188 29.699219 C 40.367188 31.457031 39.183594 34.746094 36.820312 39.574219 C 36.316406 40.742188 35.085938 42.667969 33.125 45.351562 L 30.558594 48.714844 L 30.710938 48.933594 L 30.484375 49.8125 L 30.40625 50.179688 L 29.730469 53.835938 C 27.867188 64.707031 26.886719 71.726562 26.785156 74.898438 C 26.9375 79.53125 27.011719 84.941406 27.011719 91.132812 L 27.011719 94.863281 C 26.863281 97.105469 26.457031 98.277344 25.804688 98.375 C 25.402344 101.398438 24.75 105.273438 23.84375 110.003906 C 22.585938 116.683594 22.082031 122.433594 22.335938 127.261719 C 22.484375 129.699219 21.453125 132.578125 19.242188 135.890625 L 12.375 144.667969 L 5.433594 153.296875 L 1.507812 160.464844 L 2.792969 159.585938 C 4.550781 158.417969 6.160156 157.613281 7.621094 157.175781 L 8.449219 156.882812 L 8.375 156.515625 L 17.277344 142.402344 L 21.730469 135.378906 C 22.585938 134.210938 23.515625 131.84375 24.523438 128.285156 C 26.785156 120.875 27.992188 116.171875 28.144531 114.171875 C 28.597656 106.371094 29.125 101.835938 29.730469 100.566406 C 29.828125 99.542969 30.003906 99.03125 30.257812 99.03125 C 30.808594 99.03125 31.011719 101.640625 30.859375 106.859375 C 30.859375 110.613281 30.535156 114.339844 29.878906 118.046875 L 30.03125 118.484375 L 29.578125 119.800781 L 26.710938 131.429688 C 25.957031 134.648438 24.671875 138.746094 22.863281 143.71875 L 19.617188 149.933594 C 18.914062 152.46875 18.210938 154.199219 17.503906 155.125 L 18.863281 155.125 C 20.976562 155.222656 22.9375 154.542969 24.75 153.078125 C 28.722656 149.957031 31.4375 148.082031 32.898438 147.449219 L 34.179688 147.007812 C 33.527344 145.253906 33.300781 141.914062 33.5 136.988281 C 33.5 133.039062 33.929688 129.96875 34.785156 127.773438 C 36.796875 122.507812 38.179688 118.535156 38.933594 115.851562 C 39.539062 113.804688 40.394531 110.320312 41.5 105.394531 C 41.75 104.515625 41.925781 102.371094 42.027344 98.960938 C 42.078125 97.007812 42.230469 95.765625 42.480469 95.230469 L 42.40625 94.863281 C 41.046875 82.527344 40.367188 74.945312 40.367188 72.117188 L 40.367188 72.046875 L 40.441406 70.65625 L 40.667969 68.316406 L 40.59375 68.242188 L 40.59375 66.78125 L 40.972656 67 L 42.40625 67.875 L 43.460938 68.242188 L 47.007812 68.460938 L 49.347656 68.679688 L 50.175781 68.902344 L 62.171875 69.484375 L 91.523438 69.484375 L 91.523438 69.558594 M 112.273438 4.613281 C 116.601562 2.078125 119.894531 0.8125 122.160156 0.8125 C 123.316406 0.8125 124.09375 3.421875 124.496094 8.636719 L 124.800781 16.828125 L 123.441406 35.113281 C 123.441406 47.058594 122.835938 53.101562 121.628906 53.25 C 122.835938 59.78125 123.441406 64.390625 123.441406 67.070312 C 123.84375 68.144531 123.96875 72.214844 123.820312 79.285156 C 123.820312 90.207031 123.191406 97.59375 121.933594 101.445312 C 121.429688 103.003906 121 106.6875 120.648438 112.488281 C 119.492188 118.144531 118.914062 121.824219 118.914062 123.53125 L 119.140625 126.605469 L 120.121094 129.382812 C 120.777344 131.871094 121.933594 134.0625 123.59375 135.964844 C 127.566406 140.402344 130.105469 143.570312 131.214844 145.472656 L 134.757812 150.226562 L 137.25 154.90625 C 138.910156 159.929688 139.738281 163.050781 139.738281 164.269531 C 139.738281 164.804688 139.488281 165.074219 138.984375 165.074219 C 138.53125 165.074219 136.21875 163.367188 132.042969 159.953125 L 126.835938 156.003906 L 125.402344 155.199219 C 125 154.90625 124.625 154.710938 124.269531 154.613281 L 124.269531 154.320312 L 120.273438 153.152344 C 116.199219 151.640625 112.375 150.886719 108.804688 150.886719 C 105.28125 150.886719 102.316406 151.496094 99.898438 152.714844 L 96.429688 154.542969 C 95.625 154.542969 95.324219 153.808594 95.523438 152.347656 C 95.523438 150.398438 97.160156 145.425781 100.429688 137.429688 C 100.730469 136.746094 100.957031 135.722656 101.105469 134.355469 L 100.277344 133.769531 L 99.976562 133.769531 L 97.335938 131.722656 L 94.84375 128.945312 C 94.191406 127.433594 93.839844 125.921875 93.789062 124.410156 L 93.789062 124.042969 L 93.9375 123.019531 C 94.140625 120.972656 94.46875 119.851562 94.921875 119.65625 L 94.921875 112.707031 L 96.203125 108.175781 L 96.050781 107.078125 L 96.128906 106.636719 L 96.050781 106.417969 L 97.335938 104.515625 C 97.433594 101.445312 97.710938 98.738281 98.164062 96.398438 C 98.617188 94.207031 98.84375 90.28125 98.84375 84.625 L 98.691406 69.925781 L 97.710938 69.996094 L 97.484375 70.070312 C 96.582031 70.507812 95.523438 70.730469 94.316406 70.730469 L 90.695312 70.582031 L 90.394531 70.800781 L 81.414062 70.800781 C 65.417969 70.800781 54.550781 70.582031 48.816406 70.144531 L 48.816406 70.070312 L 48.667969 70.070312 C 46.203125 70.070312 44.039062 69.707031 42.179688 68.972656 L 41.5 71.167969 L 41.953125 75.484375 L 43.761719 94.496094 L 44.894531 103.640625 C 48.96875 107.199219 51.886719 109.417969 53.648438 110.296875 C 56.363281 111.660156 58.023438 112.878906 58.628906 113.953125 C 58.878906 114.390625 59.003906 115.511719 59.003906 117.316406 L 58.628906 123.605469 C 58.425781 126.191406 58.199219 127.945312 57.949219 128.871094 L 57.949219 129.015625 L 57.871094 129.164062 L 57.496094 129.53125 L 57.269531 129.53125 C 55.660156 130.40625 51.28125 132.503906 44.140625 135.820312 L 44.066406 135.820312 L 44.066406 136.257812 C 44.871094 137.574219 45.273438 138.574219 45.273438 139.257812 L 45.121094 139.769531 L 49.800781 150.738281 C 49.800781 151.175781 49.546875 151.398438 49.042969 151.398438 L 46.554688 150.082031 C 44.59375 149.152344 42.429688 148.691406 40.066406 148.691406 L 33.425781 149.128906 C 31.0625 150.300781 28.496094 151.835938 25.730469 153.738281 L 23.769531 155.199219 C 22.914062 155.492188 22.535156 155.734375 22.636719 155.929688 L 15.242188 156.152344 C 14.4375 156.152344 12.199219 156.808594 8.527344 158.125 C 6.011719 159.050781 3.371094 160.683594 0.605469 163.023438 C 0.203125 163.023438 0 162.804688 0 162.367188 L 0.300781 161.707031 L 0.0742188 161.269531 C 0.0742188 158.929688 3.921875 152.980469 11.621094 143.425781 C 18.308594 135.527344 21.453125 129.601562 21.050781 125.652344 C 20.597656 120.730469 21.203125 114.804688 22.863281 107.882812 C 23.265625 106.222656 23.769531 102.589844 24.371094 96.984375 C 24.773438 93.230469 25.152344 91.058594 25.503906 90.476562 L 25.578125 82.355469 L 25.957031 73.875 C 25.957031 70.703125 26.257812 67.949219 26.863281 65.609375 L 29.125 50.179688 C 27.867188 49.347656 26.910156 46.203125 26.257812 40.742188 C 26.054688 38.792969 25.476562 35.527344 24.523438 30.945312 C 23.667969 26.75 23.238281 20.265625 23.238281 11.488281 L 23.238281 5.785156 L 23.390625 1.324219 C 23.492188 0.59375 24.347656 0.226562 25.957031 0.226562 C 29.175781 0.226562 34.683594 2.980469 42.480469 8.492188 L 53.34375 16.242188 L 55.003906 17.265625 L 55.15625 17.265625 L 66.398438 16.609375 C 77.515625 16.609375 86.847656 17.683594 94.390625 19.828125 C 94.644531 19.191406 95.5 18.339844 96.957031 17.265625 L 100.804688 14.488281 L 104.425781 11.050781 C 105.484375 10.808594 106.765625 9.613281 108.273438 7.46875 L 109.558594 6.296875 L 112.273438 4.613281 M 82.167969 51.859375 L 67.152344 51.640625 L 65.191406 51.714844 L 65.039062 51.421875 L 64.8125 51.714844 L 47.308594 51.859375 L 46.253906 52.078125 L 45.046875 52.957031 C 44.542969 53.199219 44.015625 53.738281 43.460938 54.566406 L 43.234375 55.078125 C 42.679688 56.25 42.40625 57.320312 42.40625 58.296875 C 42.40625 59.613281 42.679688 61.269531 43.234375 63.269531 L 43.460938 64 C 43.710938 64.730469 44.089844 65.21875 44.59375 65.464844 L 47.382812 66.339844 L 50.554688 66.558594 L 56.589844 66.269531 C 56.792969 66.949219 61.542969 67.292969 70.851562 67.292969 L 70.546875 67.363281 L 71.226562 67.511719 L 73.265625 67.292969 L 77.941406 67.144531 L 79.453125 66.78125 L 84.355469 66.488281 L 84.507812 66.632812 L 89.109375 66.78125 L 90.015625 67 L 91.976562 66.925781 L 92.503906 66.925781 L 93.9375 67.292969 L 94.695312 67.21875 L 94.695312 67.292969 L 94.769531 67.511719 L 95.75 66.707031 L 95.675781 66.414062 L 96.203125 65.316406 L 96.355469 65.097656 L 96.429688 64.730469 L 96.503906 61.515625 L 96.65625 58.515625 L 96.277344 54.128906 L 94.769531 53.175781 L 83.300781 51.933594 C 82.796875 51.542969 82.320312 51.347656 81.867188 51.347656 L 81.640625 51.421875 L 82.167969 51.859375 M 88.734375 50.984375 L 92.277344 51.203125 L 93.488281 51.203125 L 93.636719 51.347656 C 95.148438 51.785156 96.128906 52.175781 96.582031 52.519531 L 96.957031 52.8125 L 97.636719 53.6875 L 97.710938 53.835938 L 97.710938 53.90625 C 98.015625 55.078125 98.089844 57.246094 97.9375 60.417969 L 97.9375 63.78125 L 97.710938 65.390625 L 97.710938 66.632812 C 97.460938 67.265625 97.058594 67.730469 96.503906 68.023438 L 95.597656 68.023438 L 93.183594 68.316406 L 92.203125 68.316406 L 85.414062 67.730469 L 79.679688 68.167969 L 71.304688 68.609375 L 70.019531 68.753906 L 47.308594 67.21875 C 45.5 67.167969 44.140625 66.78125 43.234375 66.046875 L 42.179688 64.367188 C 41.523438 62.464844 41.199219 60.390625 41.199219 58.148438 C 41.199219 55.613281 41.875 53.714844 43.234375 52.445312 C 44.441406 51.273438 46.203125 50.59375 48.515625 50.398438 L 67.304688 50.398438 C 76.257812 50.398438 82.269531 50.324219 85.335938 50.179688 L 86.621094 50.691406 L 87.375 50.835938 L 88.734375 50.984375 M 63.910156 53.980469 C 63.910156 53.542969 64.636719 53.324219 66.097656 53.324219 L 74.699219 53.394531 L 75.152344 53.617188 L 75.300781 54.054688 C 75.300781 54.445312 73.96875 54.640625 71.304688 54.640625 L 64.285156 54.417969 L 63.910156 53.980469 M 67.230469 60.636719 C 67.230469 60.832031 66.449219 61.855469 64.890625 63.707031 L 71.378906 63.78125 L 72.660156 63.488281 L 75.605469 63.195312 L 73.566406 61.660156 L 72.132812 59.832031 L 74.019531 57.636719 L 65.039062 57.417969 C 66.5 59.222656 67.230469 60.296875 67.230469 60.636719 M 63.757812 57.710938 C 63.757812 56.734375 65.417969 56.25 68.738281 56.25 C 73.414062 56.25 75.753906 56.566406 75.753906 57.199219 L 73.867188 59.976562 C 73.867188 60.367188 74.398438 60.90625 75.453125 61.585938 C 76.460938 62.269531 76.960938 62.878906 76.960938 63.414062 C 76.960938 64.488281 73.820312 65.023438 67.53125 65.023438 C 64.261719 65.023438 62.625 64.78125 62.625 64.292969 C 62.625 63.707031 63.65625 62.464844 65.71875 60.5625 L 64.738281 59.394531 C 64.085938 58.757812 63.757812 58.199219 63.757812 57.710938 M 24.75 1.542969 L 24.671875 1.542969 L 24.671875 1.617188 L 24.75 1.542969 M 26.183594 126.96875 L 26.257812 126.898438 L 26.183594 126.898438 L 26.183594 126.96875 "/>
<path style=" stroke:none;fill-rule:evenodd;fill:rgb(19.215687%,19.215687%,19.215687%);fill-opacity:1;" d="M 91.523438 69.484375 L 62.171875 69.484375 L 50.175781 68.902344 L 49.347656 68.679688 L 47.007812 68.460938 L 43.460938 68.242188 L 42.40625 67.875 L 40.972656 67 L 40.59375 66.78125 L 40.59375 68.242188 L 40.667969 68.316406 L 40.441406 70.65625 L 40.367188 72.046875 L 40.367188 72.117188 C 40.367188 74.945312 41.046875 82.527344 42.40625 94.863281 L 42.480469 95.230469 C 42.230469 95.765625 42.078125 97.007812 42.027344 98.960938 C 41.925781 102.371094 41.75 104.515625 41.5 105.394531 C 40.394531 110.320312 39.539062 113.804688 38.933594 115.851562 C 38.179688 118.535156 36.796875 122.507812 34.785156 127.773438 C 33.929688 129.96875 33.5 133.039062 33.5 136.988281 C 33.300781 141.914062 33.527344 145.253906 34.179688 147.007812 L 32.898438 147.449219 C 31.4375 148.082031 28.722656 149.957031 24.75 153.078125 C 22.9375 154.542969 20.976562 155.222656 18.863281 155.125 L 17.503906 155.125 C 18.210938 154.199219 18.914062 152.46875 19.617188 149.933594 L 22.863281 143.71875 C 24.671875 138.746094 25.957031 134.648438 26.710938 131.429688 L 29.578125 119.800781 L 30.03125 118.484375 L 29.878906 118.046875 C 30.535156 114.339844 30.859375 110.613281 30.859375 106.859375 C 31.011719 101.640625 30.808594 99.03125 30.257812 99.03125 C 30.003906 99.03125 29.828125 99.542969 29.730469 100.566406 C 29.125 101.835938 28.597656 106.371094 28.144531 114.171875 C 27.992188 116.171875 26.785156 120.875 24.523438 128.285156 C 23.515625 131.84375 22.585938 134.210938 21.730469 135.378906 L 17.277344 142.402344 L 8.375 156.515625 L 8.449219 156.882812 L 7.621094 157.175781 C 6.160156 157.613281 4.550781 158.417969 2.792969 159.585938 L 1.507812 160.464844 L 5.433594 153.296875 L 12.375 144.667969 L 19.242188 135.890625 C 21.453125 132.578125 22.484375 129.699219 22.335938 127.261719 C 22.082031 122.433594 22.585938 116.683594 23.84375 110.003906 C 24.75 105.273438 25.402344 101.398438 25.804688 98.375 C 26.457031 98.277344 26.863281 97.105469 27.011719 94.863281 L 27.011719 91.132812 C 27.011719 84.941406 26.9375 79.53125 26.785156 74.898438 C 26.886719 71.726562 27.867188 64.707031 29.730469 53.835938 L 30.40625 50.179688 L 30.484375 49.8125 L 30.710938 48.933594 L 30.558594 48.714844 L 33.125 45.351562 C 35.085938 42.667969 36.316406 40.742188 36.820312 39.574219 C 39.183594 34.746094 40.367188 31.457031 40.367188 29.699219 C 40.367188 28.238281 39.765625 26.335938 38.554688 23.996094 L 34.480469 15.585938 C 33.578125 13.441406 32.292969 11.101562 30.632812 8.5625 C 27.917969 4.421875 26.207031 2.078125 25.503906 1.542969 L 27.238281 1.46875 C 29.25 1.46875 34.207031 4.25 42.101562 9.808594 L 51.535156 16.390625 L 51.535156 16.460938 L 52.214844 16.902344 L 55.683594 18.730469 C 55.984375 18.730469 56.1875 18.632812 56.289062 18.4375 L 58.550781 18.21875 L 58.851562 18.070312 L 73.945312 17.851562 C 80.785156 17.851562 87.976562 19.046875 95.523438 21.4375 L 95.976562 21.582031 L 95.976562 20.265625 L 101.863281 15.367188 L 105.558594 12.292969 C 107.21875 10.78125 108.050781 9.90625 108.050781 9.660156 L 108.050781 9.515625 L 111.898438 6.296875 L 113.253906 5.492188 C 116.625 3.542969 119.191406 2.421875 120.953125 2.128906 C 119.746094 4.226562 117.40625 9.855469 113.933594 19.023438 L 112.125 23.410156 L 109.484375 27.871094 L 107.144531 32.917969 C 106.691406 33.894531 106.464844 35.234375 106.464844 36.941406 C 106.464844 39.039062 106.867188 40.914062 107.671875 42.570312 C 108.578125 44.472656 109.128906 46.9375 109.332031 49.957031 L 109.933594 50.105469 C 110.085938 50.105469 110.1875 50.054688 110.238281 49.957031 L 115.140625 61.734375 C 119.214844 72.019531 121.480469 80.015625 121.933594 85.722656 L 122.460938 85.867188 L 122.007812 95.082031 C 120.246094 101.519531 119.367188 106.222656 119.367188 109.199219 C 118.210938 115.488281 117.632812 120.265625 117.632812 123.53125 L 118.234375 127.628906 L 119.140625 131.503906 L 120.5 133.84375 L 120.046875 133.40625 C 119.292969 132.480469 118.285156 130.210938 117.027344 126.605469 C 116.574219 125.289062 116.273438 122.53125 116.121094 118.339844 C 115.972656 114.78125 115.695312 113 115.292969 113 C 114.488281 113 113.128906 117.632812 111.21875 126.898438 C 111.519531 124.214844 111.042969 120.070312 109.785156 114.464844 L 109.785156 106.785156 C 109.785156 103.566406 109.558594 101.957031 109.105469 101.957031 L 105.40625 111.683594 L 103.671875 116.585938 L 102.917969 118.121094 L 103.21875 109.78125 L 103.070312 98.960938 L 101.785156 99.691406 L 99.296875 102.617188 L 99.449219 96.984375 C 99.898438 95.035156 100.125 90.988281 100.125 84.84375 C 100.429688 73.875 99.976562 68.386719 98.769531 68.386719 L 97.710938 68.460938 L 97.710938 68.316406 L 97.5625 68.386719 L 97.484375 68.460938 C 96.933594 68.804688 96.402344 69.046875 95.902344 69.191406 L 94.164062 69.484375 L 91.523438 69.558594 L 91.523438 69.484375 M 88.734375 50.984375 L 87.375 50.835938 L 86.621094 50.691406 L 85.335938 50.179688 C 82.269531 50.324219 76.257812 50.398438 67.304688 50.398438 L 48.515625 50.398438 C 46.203125 50.59375 44.441406 51.273438 43.234375 52.445312 C 41.875 53.714844 41.199219 55.613281 41.199219 58.148438 C 41.199219 60.390625 41.523438 62.464844 42.179688 64.367188 L 43.234375 66.046875 C 44.140625 66.78125 45.5 67.167969 47.308594 67.21875 L 70.019531 68.753906 L 71.304688 68.609375 L 79.679688 68.167969 L 85.414062 67.730469 L 92.203125 68.316406 L 93.183594 68.316406 L 95.597656 68.023438 L 96.503906 68.023438 C 97.058594 67.730469 97.460938 67.265625 97.710938 66.632812 L 97.710938 65.390625 L 97.9375 63.78125 L 97.9375 60.417969 C 98.089844 57.246094 98.015625 55.078125 97.710938 53.90625 L 97.710938 53.835938 L 97.636719 53.6875 L 96.957031 52.8125 L 96.582031 52.519531 C 96.128906 52.175781 95.148438 51.785156 93.636719 51.347656 L 93.488281 51.203125 L 92.277344 51.203125 L 88.734375 50.984375 "/>
<path style=" stroke:none;fill-rule:evenodd;fill:rgb(60.000002%,60.000002%,60.000002%);fill-opacity:1;" d="M 82.167969 51.859375 L 84.355469 53.980469 C 85.011719 54.761719 85.335938 55.90625 85.335938 57.417969 C 85.335938 60.050781 84.910156 61.710938 84.054688 62.390625 C 82.546875 63.609375 78.144531 65.242188 70.851562 67.292969 C 61.542969 67.292969 56.792969 66.949219 56.589844 66.269531 L 50.554688 66.558594 L 47.382812 66.339844 L 47.382812 66.195312 L 49.800781 66.195312 C 54.277344 63.855469 57.519531 61.515625 59.53125 59.171875 L 62.929688 55.515625 L 63.832031 53.980469 L 65.191406 51.714844 L 67.152344 51.640625 L 82.167969 51.859375 M 63.757812 57.710938 C 63.757812 58.199219 64.085938 58.757812 64.738281 59.394531 L 65.71875 60.5625 C 63.65625 62.464844 62.625 63.707031 62.625 64.292969 C 62.625 64.78125 64.261719 65.023438 67.53125 65.023438 C 73.820312 65.023438 76.960938 64.488281 76.960938 63.414062 C 76.960938 62.878906 76.460938 62.269531 75.453125 61.585938 C 74.398438 60.90625 73.867188 60.367188 73.867188 59.976562 L 75.753906 57.199219 C 75.753906 56.566406 73.414062 56.25 68.738281 56.25 C 65.417969 56.25 63.757812 56.734375 63.757812 57.710938 M 67.230469 60.636719 C 67.230469 60.296875 66.5 59.222656 65.039062 57.417969 L 74.019531 57.636719 L 72.132812 59.832031 L 73.566406 61.660156 L 75.605469 63.195312 L 72.660156 63.488281 L 71.378906 63.78125 L 64.890625 63.707031 C 66.449219 61.855469 67.230469 60.832031 67.230469 60.636719 M 63.910156 53.980469 L 64.285156 54.417969 L 71.304688 54.640625 C 73.96875 54.640625 75.300781 54.445312 75.300781 54.054688 L 75.152344 53.617188 L 74.699219 53.394531 L 66.097656 53.324219 C 64.636719 53.324219 63.910156 53.542969 63.910156 53.980469 "/>
<path style=" stroke:none;fill-rule:evenodd;fill:rgb(80.000001%,80.000001%,80.000001%);fill-opacity:1;" d="M 65.191406 51.714844 L 63.832031 53.980469 L 62.929688 55.515625 L 59.53125 59.171875 C 57.519531 61.515625 54.277344 63.855469 49.800781 66.195312 L 47.382812 66.195312 L 47.382812 66.339844 L 44.59375 65.464844 C 44.089844 65.21875 43.710938 64.730469 43.460938 64 L 43.234375 63.269531 C 42.679688 61.269531 42.40625 59.613281 42.40625 58.296875 C 42.40625 57.320312 42.679688 56.25 43.234375 55.078125 L 43.460938 54.566406 C 44.015625 53.738281 44.542969 53.199219 45.046875 52.957031 L 46.253906 52.078125 L 47.308594 51.859375 L 64.8125 51.714844 L 65.039062 51.421875 L 65.191406 51.714844 M 49.042969 54.128906 C 47.03125 55.003906 45.800781 55.859375 45.347656 56.6875 L 44.96875 59.464844 L 45.046875 60.34375 C 47.007812 60.148438 48.742188 59.441406 50.25 58.222656 L 53.796875 55.371094 C 53.898438 55.613281 54.101562 55.761719 54.402344 55.808594 L 54.476562 55.664062 L 54.023438 54.933594 L 53.796875 54.566406 L 49.042969 54.128906 "/>
<path style=" stroke:none;fill-rule:evenodd;fill:rgb(40.000001%,40.000001%,40.000001%);fill-opacity:1;" d="M 70.851562 67.292969 C 78.144531 65.242188 82.546875 63.609375 84.054688 62.390625 C 84.910156 61.710938 85.335938 60.050781 85.335938 57.417969 C 85.335938 55.90625 85.011719 54.761719 84.355469 53.980469 L 82.167969 51.859375 L 81.640625 51.421875 L 81.867188 51.347656 C 82.320312 51.347656 82.796875 51.542969 83.300781 51.933594 L 94.769531 53.175781 L 96.277344 54.128906 L 96.65625 58.515625 L 96.503906 61.515625 L 96.429688 64.730469 L 96.355469 65.097656 L 96.203125 65.316406 L 95.675781 66.414062 L 95.75 66.707031 L 94.769531 67.511719 L 94.695312 67.292969 L 94.695312 67.21875 L 93.9375 67.292969 L 92.503906 66.925781 L 91.976562 66.925781 L 90.015625 67 L 89.109375 66.78125 L 84.507812 66.632812 L 84.355469 66.488281 L 79.453125 66.78125 L 77.941406 67.144531 L 73.265625 67.292969 L 71.226562 67.511719 L 70.546875 67.363281 L 70.851562 67.292969 "/>
<path style=" stroke:none;fill-rule:evenodd;fill:rgb(100%,100%,100%);fill-opacity:1;" d="M 49.042969 54.128906 L 53.796875 54.566406 L 54.023438 54.933594 L 54.476562 55.664062 L 54.402344 55.808594 C 54.101562 55.761719 53.898438 55.613281 53.796875 55.371094 L 50.25 58.222656 C 48.742188 59.441406 47.007812 60.148438 45.046875 60.34375 L 44.96875 59.464844 L 45.347656 56.6875 C 45.800781 55.859375 47.03125 55.003906 49.042969 54.128906 "/>
</g>
</svg>
