<?xml version="1.0" encoding="UTF-8"?>
<svg xmlns="http://www.w3.org/2000/svg" xmlns:xlink="http://www.w3.org/1999/xlink" width="154px" height="180px" viewBox="0 0 154 180" version="1.1">
<g id="surface1">
<path style=" stroke:none;fill-rule:evenodd;fill:rgb(0%,0%,0%);fill-opacity:1;" d="M 107.066406 17.925781 L 107.066406 17.707031 L 105.332031 18.292969 L 104.730469 18.65625 L 102.617188 19.753906 L 103.671875 20.265625 L 105.40625 19.242188 L 106.390625 18.582031 L 107.066406 17.925781 M 107.144531 19.460938 L 107.066406 19.460938 C 105.960938 20.289062 103.570312 21.996094 99.898438 24.582031 L 93.183594 29.113281 L 93.488281 29.628906 L 93.5625 30.433594 C 93.5625 32.039062 92.277344 32.84375 89.714844 32.84375 C 88.65625 32.84375 87.574219 31.773438 86.46875 29.628906 C 86.46875 28.945312 87.300781 28.261719 88.960938 27.578125 L 89.261719 27.726562 L 89.863281 27.578125 C 90.316406 26.117188 92.457031 24.238281 96.277344 21.949219 L 102.164062 18.730469 L 101.9375 18.4375 L 102.84375 17.632812 L 101.484375 17.046875 L 79.980469 10.683594 L 71.53125 16.316406 L 70.851562 15.585938 C 70.851562 15 72.738281 13.609375 76.507812 11.417969 L 72.058594 13.539062 L 69.792969 15 L 67.90625 15.804688 C 58.097656 20.484375 49.75 25.359375 42.859375 30.433594 L 27.464844 39.867188 C 25.503906 41.28125 22.007812 44.9375 16.976562 50.835938 L 16.976562 50.910156 C 18.386719 52.761719 20.144531 54.417969 22.257812 55.882812 L 25.957031 58.660156 L 39.386719 44.765625 C 44.71875 39.890625 50.328125 36.183594 56.210938 33.648438 L 56.664062 32.917969 L 56.664062 32.84375 L 56.96875 32.480469 L 59.984375 28.019531 C 61.695312 24.507812 63.882812 21.070312 66.550781 17.707031 L 67.230469 18.511719 L 58.476562 32.332031 C 59.734375 32.429688 61.316406 32.894531 63.230469 33.722656 L 66.550781 35.257812 C 69.566406 36.332031 71.933594 37.402344 73.640625 38.476562 L 84.054688 46.449219 L 95.148438 54.128906 C 98.820312 56.664062 101.285156 59.050781 102.539062 61.292969 L 105.710938 60.488281 L 119.367188 57.566406 L 120.648438 56.539062 L 127.441406 54.785156 C 131.164062 53.273438 133.980469 52.324219 135.890625 51.933594 L 146.53125 48.863281 C 147.839844 48.519531 148.667969 47.789062 149.019531 46.667969 L 149.625 45.351562 L 148.945312 44.914062 L 137.398438 36.722656 C 131.917969 32.820312 126.835938 29.480469 122.160156 26.703125 L 114.386719 32.699219 L 107.292969 37.890625 L 107.824219 38.550781 L 107.824219 39.355469 C 107.824219 41.109375 106.589844 41.988281 104.125 41.988281 C 102.214844 41.988281 101.257812 40.914062 101.257812 38.769531 C 101.257812 37.5 101.660156 36.84375 102.464844 36.792969 C 103.320312 35.183594 105.859375 32.992188 110.085938 30.210938 L 118.007812 24.875 L 117.253906 24.070312 C 114.4375 22.605469 111.292969 21.144531 107.824219 19.679688 L 107.144531 19.460938 M 109.105469 19.097656 L 117.554688 22.898438 L 117.707031 22.898438 L 119.367188 23.996094 L 119.96875 23.628906 C 122.285156 23.628906 123.441406 24.265625 123.441406 25.53125 L 123.289062 25.75 L 123.367188 25.824219 L 139.136719 35.988281 C 145.222656 40.035156 149.625 43.472656 152.339844 46.300781 C 153.445312 46.496094 154 47.128906 154 48.203125 C 154 49.910156 148.917969 52.347656 138.757812 55.515625 L 130.082031 58.148438 C 130.535156 59.074219 130.988281 61.246094 131.441406 64.660156 C 131.992188 68.949219 132.269531 72.753906 132.269531 76.066406 L 132.875 94.496094 L 132.195312 116.804688 L 134.757812 125.433594 L 136.949219 131.210938 L 137.023438 135.308594 C 137.023438 138.039062 136.59375 140.257812 135.742188 141.960938 C 136.445312 144.351562 137.753906 146.300781 139.664062 147.8125 L 142.152344 150.738281 C 143.261719 152.296875 143.8125 153.371094 143.8125 153.957031 L 141.925781 156.953125 L 149.019531 162 C 150.328125 163.269531 150.980469 164.804688 150.980469 166.609375 C 150.980469 167.730469 150.679688 169.777344 150.078125 172.753906 C 149.472656 175.578125 148.871094 177.628906 148.265625 178.894531 L 148.339844 178.96875 L 147.738281 179.699219 L 147.660156 179.773438 L 147.4375 179.773438 C 146.179688 179.773438 144.820312 178.308594 143.359375 175.386719 L 139.964844 169.242188 L 135.210938 164.414062 C 134.558594 163.925781 132.46875 162.976562 128.949219 161.5625 L 120.121094 160.171875 C 112.726562 158.757812 107.042969 158.050781 103.070312 158.050781 C 99.398438 158.050781 96.203125 158.6875 93.488281 159.953125 C 90.820312 161.222656 88.960938 161.855469 87.902344 161.855469 L 87.074219 161.78125 L 86.769531 161.855469 C 85.816406 160.929688 85.363281 159.394531 85.414062 157.246094 L 85.867188 151.980469 C 85.867188 148.277344 86.769531 142.667969 88.582031 135.160156 C 90.140625 128.53125 91.425781 124.117188 92.429688 121.921875 C 94.191406 117.875 95.070312 107.832031 95.070312 91.792969 C 95.070312 83.113281 94.519531 75.335938 93.410156 68.460938 L 80.585938 71.460938 L 68.890625 74.53125 C 63.457031 75.847656 56.992188 76.921875 49.496094 77.75 L 49.421875 77.824219 L 46.402344 77.824219 L 37.726562 72.339844 C 38.332031 73.847656 39.058594 77.433594 39.914062 83.089844 C 41.875 88.355469 42.859375 92.230469 42.859375 94.71875 L 42.78125 97.351562 L 42.554688 97.421875 C 43.410156 99.761719 44.644531 102.152344 46.253906 104.589844 L 48.667969 106.492188 C 49.773438 106.929688 50.527344 107.417969 50.929688 107.953125 C 52.136719 108.589844 52.992188 109.125 53.496094 109.5625 L 59.382812 113.804688 L 59.382812 114.828125 L 59.078125 114.976562 L 59.609375 121.921875 C 58.902344 124.070312 58.402344 126.507812 58.097656 129.238281 L 58.175781 129.601562 L 58.097656 129.75 L 58.023438 130.042969 L 57.496094 130.261719 L 57.34375 130.1875 L 49.800781 133.113281 L 38.480469 137.5 C 28.421875 142.914062 22.460938 145.691406 20.597656 145.839844 L 20.449219 145.839844 L 19.769531 145.765625 L 19.542969 145.179688 L 20.070312 144.59375 L 18.9375 140.574219 L 18.109375 136.183594 L 18.183594 136.113281 L 17.882812 128.726562 C 17.882812 124.96875 18.234375 119.363281 18.9375 111.902344 C 19.59375 104.492188 19.917969 98.960938 19.917969 95.300781 L 24.21875 62.976562 C 17.027344 57.757812 13.429688 54.492188 13.429688 53.175781 C 13.429688 52.6875 13.734375 51.980469 14.335938 51.054688 L 15.46875 49.8125 L 15.46875 49.738281 L 15.617188 49.738281 L 15.921875 49.667969 L 16.148438 49.667969 L 16.375 49.738281 L 20.070312 45.132812 C 22.9375 41.765625 25.25 39.550781 27.011719 38.476562 L 42.328125 28.894531 C 50.027344 23.53125 55.332031 20.09375 58.25 18.582031 C 60.5625 17.460938 63.605469 15.804688 67.378906 13.609375 C 70.902344 11.902344 74.925781 10.585938 79.453125 9.660156 L 79.679688 9.589844 L 79.980469 9.589844 L 86.320312 11.5625 L 93.710938 13.316406 L 104.125 16.976562 L 106.390625 16.390625 C 107.898438 16.390625 108.804688 16.707031 109.105469 17.339844 L 109.105469 19.097656 M 90.394531 28.96875 L 102.089844 21.289062 L 100.957031 20.777344 C 97.03125 23.070312 93.710938 25.582031 90.996094 28.3125 L 90.84375 28.457031 L 90.394531 28.894531 L 90.316406 28.894531 L 90.167969 29.113281 L 90.394531 28.96875 M 91.976562 29.773438 L 90.542969 30.359375 C 89.234375 30.359375 88.457031 30.140625 88.203125 29.699219 L 88.128906 29.773438 L 89.714844 31.527344 L 92.203125 30.433594 L 91.976562 29.773438 M 102.617188 38.695312 L 102.539062 38.621094 L 102.539062 38.695312 C 102.539062 40.011719 103.09375 40.671875 104.199219 40.671875 L 106.617188 39.425781 L 106.238281 38.621094 C 105.132812 39.304688 104.453125 39.648438 104.199219 39.648438 C 103.546875 39.648438 103.019531 39.328125 102.617188 38.695312 M 104.425781 38.332031 C 105.230469 38.332031 107.824219 36.429688 112.199219 32.625 L 116.199219 29.261719 C 115.894531 29.164062 115.621094 28.992188 115.367188 28.75 C 108.929688 33.1875 105.105469 36.210938 103.898438 37.816406 L 104.425781 38.332031 M 77.941406 43.011719 C 75.730469 40.964844 73.691406 39.523438 71.832031 38.695312 L 58.324219 33.796875 L 56.816406 34.894531 L 54.175781 38.914062 C 54.929688 39.011719 55.40625 39.207031 55.609375 39.5 C 55.808594 40.476562 56.210938 41.523438 56.816406 42.644531 L 57.042969 42.9375 L 56.96875 43.011719 L 57.042969 43.15625 L 56.816406 43.304688 L 51.082031 50.03125 L 53.34375 53.394531 C 55.105469 56.320312 56.363281 58.101562 57.117188 58.734375 C 59.582031 60.929688 63.054688 63.5625 67.53125 66.632812 C 67.078125 67.316406 66.425781 67.65625 65.570312 67.65625 C 65.015625 67.65625 62.398438 66.65625 57.722656 64.660156 C 55.457031 63.78125 54.199219 63.171875 53.949219 62.832031 L 52.515625 61.074219 L 50.476562 58.953125 L 48.59375 72.628906 L 55.308594 73.214844 L 66.625 70.949219 L 84.054688 66.851562 L 101.105469 61.734375 L 83.074219 47.472656 L 77.941406 43.011719 M 65.71875 42.351562 L 67.757812 45.351562 C 67.757812 46.132812 65.84375 47.398438 62.023438 49.152344 C 58.351562 50.8125 56.0625 51.640625 55.15625 51.640625 C 54.351562 51.640625 53.949219 51.347656 53.949219 50.761719 C 55.609375 49.691406 57.496094 47.472656 59.609375 44.109375 L 62.324219 39.425781 C 63.078125 39.425781 64.210938 40.402344 65.71875 42.351562 M 52.289062 38.769531 L 53.269531 38.84375 L 53.195312 38.550781 L 54.476562 36.355469 C 51.609375 38.011719 49.472656 39.109375 48.0625 39.648438 C 46.050781 40.425781 44.390625 41.476562 43.082031 42.792969 L 42.027344 44.035156 L 43.007812 43.230469 L 45.195312 41.988281 L 46.027344 42.058594 C 46.328125 44.109375 46.78125 45.765625 47.382812 47.035156 L 48.894531 44.691406 L 49.722656 41.402344 C 50.378906 39.648438 51.234375 38.769531 52.289062 38.769531 M 64.589844 65.976562 L 59.15625 62.246094 C 56.4375 60.488281 54.929688 59.171875 54.628906 58.296875 L 49.875 50.324219 L 49.949219 49.957031 L 49.875 49.59375 C 49.875 48.8125 50.855469 47.449219 52.816406 45.496094 L 55.457031 43.011719 C 55.054688 42.472656 54.753906 41.574219 54.550781 40.304688 L 53.421875 40.085938 L 51.683594 40.085938 C 51.835938 42.035156 50.277344 45.277344 47.007812 49.8125 L 47.382812 50.105469 L 47.308594 50.617188 C 47.160156 50.761719 46.957031 50.835938 46.707031 50.835938 L 46.328125 50.835938 L 44.894531 52.589844 C 41.324219 57.175781 38.683594 60.390625 36.972656 62.246094 L 36.820312 62.390625 L 37.046875 62.320312 C 39.109375 61.441406 40.972656 60.222656 42.632812 58.660156 C 44.792969 55.589844 46.378906 53.738281 47.382812 53.101562 L 47.160156 52.589844 L 47.988281 52.371094 L 48.742188 52.519531 L 50.027344 55.882812 L 50.328125 55.003906 L 50.929688 55.882812 L 50.78125 57.125 L 53.421875 59.832031 C 53.875 61.292969 55.40625 62.511719 58.023438 63.488281 C 61.59375 64.757812 63.78125 65.632812 64.589844 66.121094 L 64.589844 65.976562 M 45.875 49.007812 L 46.175781 48.570312 C 45.773438 48.277344 45.472656 47.765625 45.273438 47.035156 L 44.820312 43.816406 L 42.859375 45.058594 C 43.511719 46.519531 44.46875 47.8125 45.726562 48.933594 L 45.875 49.007812 M 47.382812 72.191406 L 47.308594 71.3125 L 48.59375 62.539062 L 49.574219 57.710938 L 48.289062 55.296875 C 47.484375 56.566406 45.976562 58.078125 43.761719 59.832031 C 40.242188 62.609375 37.425781 64 35.3125 64 L 35.160156 64 L 34.632812 64.21875 L 34.03125 64.148438 L 33.804688 63.5625 L 44.214844 51.054688 L 44.96875 50.105469 C 43.863281 49.226562 42.632812 47.546875 41.273438 45.058594 L 41.421875 44.621094 L 41.121094 44.984375 L 39.6875 46.230469 C 37.574219 47.933594 35.261719 50.277344 32.746094 53.25 L 27.238281 59.613281 L 30.40625 62.027344 C 32.570312 63.683594 37.121094 66.804688 44.066406 71.386719 L 44.820312 71.167969 L 47.160156 72.191406 L 47.382812 72.265625 L 47.382812 72.191406 M 61.117188 45.570312 L 57.722656 49.667969 C 59.078125 49.082031 61.820312 47.570312 65.945312 45.132812 C 64.890625 43.472656 63.808594 42.28125 62.703125 41.546875 C 62.851562 42.570312 62.324219 43.914062 61.117188 45.570312 M 47.988281 74.09375 L 47.914062 74.019531 L 47.835938 74.019531 C 47.835938 74.214844 47.511719 74.3125 46.855469 74.3125 C 45.5 74.3125 39.941406 70.703125 30.179688 63.488281 L 25.878906 60.199219 L 25.652344 60.199219 L 25.652344 60.050781 C 20.019531 55.710938 16.726562 52.859375 15.769531 51.496094 L 14.941406 53.175781 C 14.941406 53.714844 17.128906 55.808594 21.503906 59.464844 L 30.179688 66.121094 C 35.109375 68.851562 38.054688 70.777344 39.007812 71.898438 C 39.410156 72.289062 42.78125 73.972656 49.121094 76.945312 L 64.4375 73.875 C 79.125 70.949219 94.039062 67.21875 109.179688 62.683594 C 118.335938 60.148438 125.351562 58.148438 130.230469 56.6875 C 131.1875 56.636719 132.167969 56.371094 133.175781 55.882812 L 140.417969 53.6875 C 145.398438 52.46875 148.59375 51.054688 150 49.445312 C 150.503906 48.8125 150.753906 48.15625 150.753906 47.472656 L 150.753906 46.886719 C 149.597656 49.226562 145.472656 51.203125 138.382812 52.8125 L 128.421875 55.882812 L 122.308594 57.710938 L 121.402344 58.222656 L 122.007812 58.222656 L 121.402344 58.441406 L 106.917969 61.734375 C 102.992188 62.609375 95.523438 64.757812 84.507812 68.167969 C 80.785156 69.339844 75.050781 70.753906 67.304688 72.410156 L 55.683594 74.679688 L 48.140625 74.019531 L 47.988281 74.09375 M 95.902344 108.6875 C 96.253906 110.878906 96.027344 113.609375 95.222656 116.878906 L 92.882812 124.921875 C 90.621094 133.601562 89.058594 141.132812 88.203125 147.519531 L 87.902344 148.105469 L 87.902344 148.472656 L 88.128906 148.472656 L 87.449219 156.441406 L 86.769531 157.175781 L 86.921875 157.613281 L 87.449219 157.394531 L 87.449219 160.390625 C 91.828125 157.953125 97.007812 156.734375 102.992188 156.734375 L 127.742188 159.878906 L 130.382812 160.246094 L 141.550781 161.636719 C 141.550781 162.027344 140.796875 162.21875 139.285156 162.21875 L 134.609375 162.074219 L 137.25 164.050781 C 138.910156 165.511719 140.34375 167.046875 141.550781 168.65625 L 144.265625 173.921875 C 145.121094 175.578125 146.128906 176.945312 147.285156 178.019531 L 148.417969 173.484375 C 149.273438 170.363281 149.699219 168.097656 149.699219 166.683594 C 149.699219 164.488281 148.164062 162.488281 145.097656 160.683594 C 141.976562 158.882812 140.417969 157.660156 140.417969 157.027344 L 142.378906 153.664062 C 142.378906 152.347656 141.148438 150.714844 138.683594 148.765625 C 136.671875 147.203125 135.464844 145.449219 135.0625 143.5 C 134.558594 144.816406 134.308594 146.132812 134.308594 147.449219 C 134.308594 148.570312 134.683594 149.570312 135.4375 150.445312 L 134.984375 151.03125 L 135.136719 151.175781 L 136.796875 150.738281 L 137.476562 150.226562 L 137.929688 150.445312 L 137.851562 150.445312 L 137.851562 151.6875 C 137.398438 152.128906 136.46875 152.394531 135.0625 152.492188 L 134.984375 152.566406 L 133.402344 152.566406 L 123.214844 152.054688 L 109.179688 151.542969 C 104.753906 151.542969 101.636719 151.957031 99.824219 152.785156 C 98.015625 153.566406 96.226562 153.957031 94.46875 153.957031 L 94.164062 153.957031 L 92.882812 153.078125 L 92.65625 153.664062 L 92.808594 153.882812 L 92.277344 153.738281 L 92.429688 153.445312 C 92.429688 153.054688 92.355469 152.933594 92.203125 153.078125 L 91.75 153.371094 L 91.75 153.296875 C 91.75 153.003906 94.316406 152.421875 99.449219 151.542969 L 109.03125 150.226562 L 122.914062 150.738281 L 133.097656 151.25 L 133.550781 151.25 L 133.402344 150.957031 L 133.402344 150.664062 C 132.949219 150.082031 132.847656 149.054688 133.097656 147.59375 C 133.097656 145.742188 133.527344 143.816406 134.382812 141.816406 C 135.238281 139.769531 135.664062 137.597656 135.664062 135.308594 C 135.664062 133.355469 134.910156 130.1875 133.402344 125.800781 L 132.117188 121.851562 L 132.042969 135.746094 L 132.042969 139.476562 L 131.589844 139.621094 L 130.910156 139.476562 L 130.457031 124.847656 L 130.761719 114.464844 L 131.136719 113.292969 L 130.910156 112.855469 L 130.835938 113.148438 L 131.589844 94.496094 L 131.515625 90.035156 L 132.648438 89.671875 L 131.515625 89.597656 L 131.0625 77.382812 C 131.164062 71.046875 130.484375 65.339844 129.023438 60.269531 L 129.023438 58.441406 L 121.628906 60.636719 C 122.433594 61.757812 122.863281 66.414062 122.914062 74.605469 L 122.6875 91.574219 L 122.6875 93.765625 L 122.535156 93.839844 L 122.6875 93.914062 C 122.535156 97.421875 122.109375 100.46875 121.402344 103.054688 C 120.902344 108.367188 120.296875 112.171875 119.59375 114.464844 L 116.121094 125.652344 L 113.707031 131.941406 C 112.550781 135.0625 111.671875 136.625 111.066406 136.625 L 110.238281 136.402344 L 110.085938 135.964844 L 115.066406 124.996094 L 118.234375 113.804688 C 118.585938 112.636719 118.863281 110.757812 119.066406 108.175781 C 119.265625 105.785156 119.59375 103.980469 120.046875 102.761719 C 120.449219 101.738281 120.777344 100.46875 121.027344 98.960938 L 121.554688 99.03125 L 121.554688 98.886719 L 121.027344 98.59375 C 121.277344 96.644531 121.402344 94.304688 121.402344 91.574219 L 120.875 61.953125 L 121.179688 60.78125 L 110.539062 63.78125 L 94.542969 68.167969 C 95.148438 69.582031 95.726562 73.460938 96.277344 79.796875 L 96.277344 92.011719 L 95.75 106.417969 L 95.371094 108.320312 L 95.597656 108.6875 L 95.902344 108.6875 M 93.109375 146.570312 C 93.410156 143.839844 95.824219 137.011719 100.351562 126.09375 C 101.761719 122.875 102.96875 119.414062 103.972656 115.707031 L 104.425781 113.730469 L 104.425781 113.804688 L 104.878906 113.804688 L 105.03125 111.464844 L 105.03125 110.296875 C 105.332031 108.636719 105.734375 107.273438 106.238281 106.199219 L 106.164062 106.125 L 106.011719 105.832031 L 107.519531 100.496094 C 108.527344 97.179688 109.054688 94.644531 109.105469 92.890625 L 109.40625 86.378906 C 109.558594 82.625 109.785156 80.503906 110.085938 80.015625 C 110.488281 80.992188 110.691406 82.796875 110.691406 85.429688 C 110.640625 89.035156 110.464844 92.597656 110.160156 96.105469 C 109.558594 102.542969 108.628906 106.003906 107.371094 106.492188 L 107.371094 106.566406 C 107.371094 109.929688 105.382812 117.363281 101.410156 128.871094 L 100.578125 131.210938 L 99.824219 133.113281 L 99.898438 133.1875 L 97.863281 138.816406 C 96.152344 143.402344 94.84375 146.472656 93.9375 148.03125 L 93.109375 147.960938 L 93.035156 147.226562 L 93.789062 147.375 L 93.109375 146.570312 M 150 49.445312 L 152.339844 48.351562 L 151.960938 48.058594 L 150.832031 48.863281 L 150 49.445312 M 121.402344 25.457031 L 120.046875 25.53125 L 119.667969 25.824219 L 116.953125 27.652344 L 117.40625 28.3125 L 120.726562 25.96875 L 121.402344 25.605469 L 122.007812 25.386719 L 121.402344 25.457031 M 31.464844 68.316406 L 31.691406 68.242188 L 31.613281 68.167969 L 29.125 66.488281 L 24.898438 63.488281 L 25.203125 67.65625 L 24.21875 74.238281 L 23.84375 74.238281 L 23.542969 74.457031 L 23.617188 74.75 L 24.144531 74.824219 C 22.484375 85.355469 21.480469 93.207031 21.125 98.375 L 19.089844 128.871094 C 19.089844 133.015625 19.316406 135.648438 19.769531 136.769531 L 19.769531 136.84375 L 19.390625 136.988281 C 19.894531 138.402344 20.472656 140.695312 21.125 143.863281 L 21.125 143.9375 L 26.863281 141.15625 L 25.730469 139.035156 L 24.21875 135.820312 L 23.691406 135.890625 C 23.289062 133.894531 23.0625 131.503906 23.011719 128.726562 L 23.089844 129.164062 L 23.390625 128.945312 L 23.390625 128.359375 L 23.011719 125.945312 C 23.164062 122.046875 24.722656 115.21875 27.691406 105.46875 C 30.808594 95.035156 32.371094 87.0625 32.371094 81.554688 C 32.371094 79.847656 32.015625 75.847656 31.3125 69.558594 L 31.464844 68.316406 M 41.273438 112.195312 L 41.273438 112.269531 L 41.5 112.929688 C 41.75 113.902344 41.875 115.171875 41.875 116.730469 L 41.875 121.410156 L 43.914062 129.75 L 43.6875 129.894531 L 44.214844 131.210938 L 44.894531 133.550781 L 56.890625 129.164062 L 56.890625 128.945312 L 58.402344 121.703125 C 58.402344 120.582031 58.25 119.09375 57.949219 117.242188 L 57.949219 114.609375 L 54.703125 112.195312 C 51.683594 110.101562 49.246094 108.710938 47.382812 108.027344 C 45.925781 107.441406 44.59375 106.175781 43.386719 104.226562 C 42.378906 102.566406 41.75 101.007812 41.5 99.542969 L 41.5 96.472656 L 41.726562 96.398438 C 40.820312 93.816406 39.988281 90.035156 39.234375 85.0625 C 37.425781 80.238281 36.519531 76.019531 36.519531 72.410156 L 36.746094 71.679688 L 32.144531 68.535156 C 33.097656 71.265625 33.578125 75.679688 33.578125 81.773438 C 33.578125 85.234375 33.046875 89.425781 31.992188 94.351562 L 31.3125 95.230469 L 31.539062 95.8125 L 31.691406 95.886719 L 30.332031 101.226562 C 30.683594 101.714844 30.960938 102.347656 31.164062 103.128906 L 31.3125 104.664062 L 31.3125 106.273438 L 30.9375 106.34375 C 30.582031 108.394531 30.40625 111.464844 30.40625 115.5625 L 30.859375 122.433594 L 30.484375 129.382812 L 30.179688 129.382812 L 30.105469 129.894531 L 30.484375 130.40625 L 31.011719 134.574219 L 30.785156 134.574219 L 31.085938 135.890625 L 31.917969 138.964844 C 35.035156 137.550781 37.171875 136.550781 38.332031 135.964844 L 43.613281 133.992188 C 43.007812 132.964844 42.582031 131.722656 42.328125 130.261719 C 41.875 129.578125 41.523438 128.457031 41.273438 126.898438 L 41.273438 125.433594 C 41.273438 122.605469 41.070312 120.730469 40.667969 119.800781 L 40.667969 119.65625 L 40.59375 117.460938 C 40.59375 114.683594 40.820312 112.929688 41.273438 112.195312 M 28.898438 106.054688 C 25.78125 116.339844 24.21875 123.191406 24.21875 126.605469 L 25.351562 134.796875 C 25.90625 135.28125 26.457031 136.257812 27.011719 137.71875 L 27.992188 140.644531 L 30.332031 139.621094 C 29.628906 139.085938 29.351562 137.84375 29.503906 135.890625 L 29.503906 134.867188 L 29.050781 129.96875 L 29.503906 122.433594 L 29.050781 115.632812 L 29.503906 108.757812 L 30.257812 105.25 L 29.652344 103.492188 L 28.898438 106.054688 "/>
<path style=" stroke:none;fill-rule:evenodd;fill:rgb(61.56863%,32.549021%,31.37255%);fill-opacity:1;" d="M 107.066406 19.460938 L 107.144531 19.460938 L 107.824219 19.679688 C 111.292969 21.144531 114.4375 22.605469 117.253906 24.070312 L 118.007812 24.875 L 110.085938 30.210938 C 105.859375 32.992188 103.320312 35.183594 102.464844 36.792969 C 101.660156 36.84375 101.257812 37.5 101.257812 38.769531 C 101.257812 40.914062 102.214844 41.988281 104.125 41.988281 C 106.589844 41.988281 107.824219 41.109375 107.824219 39.355469 L 107.824219 38.550781 L 107.292969 37.890625 L 114.386719 32.699219 L 122.160156 26.703125 C 126.835938 29.480469 131.917969 32.820312 137.398438 36.722656 L 148.945312 44.914062 L 149.625 45.351562 L 149.019531 46.667969 C 148.667969 47.789062 147.839844 48.519531 146.53125 48.863281 L 135.890625 51.933594 C 133.980469 52.324219 131.164062 53.273438 127.441406 54.785156 L 120.648438 56.539062 L 119.367188 57.566406 L 105.710938 60.488281 L 102.539062 61.292969 C 101.285156 59.050781 98.820312 56.664062 95.148438 54.128906 L 84.054688 46.449219 L 73.640625 38.476562 C 71.933594 37.402344 69.566406 36.332031 66.550781 35.257812 L 63.230469 33.722656 C 61.316406 32.894531 59.734375 32.429688 58.476562 32.332031 L 67.230469 18.511719 L 66.550781 17.707031 C 63.882812 21.070312 61.695312 24.507812 59.984375 28.019531 L 56.96875 32.480469 L 56.664062 32.84375 L 56.664062 32.917969 L 56.210938 33.648438 C 50.328125 36.183594 44.71875 39.890625 39.386719 44.765625 L 25.957031 58.660156 L 22.257812 55.882812 C 20.144531 54.417969 18.386719 52.761719 16.976562 50.910156 L 16.976562 50.835938 C 22.007812 44.9375 25.503906 41.28125 27.464844 39.867188 L 42.859375 30.433594 C 49.75 25.359375 58.097656 20.484375 67.90625 15.804688 L 69.792969 15 L 72.058594 13.539062 L 76.507812 11.417969 C 72.738281 13.609375 70.851562 15 70.851562 15.585938 L 71.53125 16.316406 L 79.980469 10.683594 L 101.484375 17.046875 L 102.84375 17.632812 L 101.9375 18.4375 L 102.164062 18.730469 L 96.277344 21.949219 C 92.457031 24.238281 90.316406 26.117188 89.863281 27.578125 L 89.261719 27.726562 L 88.960938 27.578125 C 87.300781 28.261719 86.46875 28.945312 86.46875 29.628906 C 87.574219 31.773438 88.65625 32.84375 89.714844 32.84375 C 92.277344 32.84375 93.5625 32.039062 93.5625 30.433594 L 93.488281 29.628906 L 93.183594 29.113281 L 99.898438 24.582031 C 103.570312 21.996094 105.960938 20.289062 107.066406 19.460938 M 90.394531 28.894531 L 90.394531 28.96875 L 90.167969 29.113281 L 90.316406 28.894531 L 90.394531 28.894531 M 102.617188 38.695312 L 102.539062 38.695312 L 102.539062 38.621094 L 102.617188 38.695312 "/>
<path style=" stroke:none;fill-rule:evenodd;fill:rgb(64.705884%,27.843139%,23.921569%);fill-opacity:1;" d="M 36.972656 62.246094 C 38.683594 60.390625 41.324219 57.175781 44.894531 52.589844 L 46.328125 50.835938 L 46.707031 50.835938 C 46.957031 50.835938 47.160156 50.761719 47.308594 50.617188 L 47.382812 50.105469 L 47.007812 49.8125 C 50.277344 45.277344 51.835938 42.035156 51.683594 40.085938 L 53.421875 40.085938 L 54.550781 40.304688 C 54.753906 41.574219 55.054688 42.472656 55.457031 43.011719 L 52.816406 45.496094 C 50.855469 47.449219 49.875 48.8125 49.875 49.59375 L 49.949219 49.957031 L 49.875 50.324219 L 54.628906 58.296875 C 54.929688 59.171875 56.4375 60.488281 59.15625 62.246094 L 64.589844 65.976562 L 64.589844 66.121094 C 63.78125 65.632812 61.59375 64.757812 58.023438 63.488281 C 55.40625 62.511719 53.875 61.292969 53.421875 59.832031 L 50.78125 57.125 L 50.929688 55.882812 L 50.328125 55.003906 L 50.027344 55.882812 L 48.742188 52.519531 L 47.988281 52.371094 L 47.160156 52.589844 L 47.382812 53.101562 C 46.378906 53.738281 44.792969 55.589844 42.632812 58.660156 C 40.972656 60.222656 39.109375 61.441406 37.046875 62.320312 L 36.972656 62.246094 M 45.875 49.007812 L 45.726562 48.933594 C 44.46875 47.8125 43.511719 46.519531 42.859375 45.058594 L 44.820312 43.816406 L 45.273438 47.035156 C 45.472656 47.765625 45.773438 48.277344 46.175781 48.570312 L 45.875 49.007812 M 61.117188 45.570312 C 62.324219 43.914062 62.851562 42.570312 62.703125 41.546875 C 63.808594 42.28125 64.890625 43.472656 65.945312 45.132812 C 61.820312 47.570312 59.078125 49.082031 57.722656 49.667969 L 61.117188 45.570312 "/>
<path style=" stroke:none;fill-rule:evenodd;fill:rgb(99.607843%,100%,100%);fill-opacity:1;" d="M 52.289062 38.769531 C 51.234375 38.769531 50.378906 39.648438 49.722656 41.402344 L 48.894531 44.691406 L 47.382812 47.035156 C 46.78125 45.765625 46.328125 44.109375 46.027344 42.058594 L 45.195312 41.988281 L 43.007812 43.230469 L 42.027344 44.035156 L 43.082031 42.792969 C 44.390625 41.476562 46.050781 40.425781 48.0625 39.648438 C 49.472656 39.109375 51.609375 38.011719 54.476562 36.355469 L 53.195312 38.550781 L 53.269531 38.84375 L 52.289062 38.769531 M 65.71875 42.351562 C 64.210938 40.402344 63.078125 39.425781 62.324219 39.425781 L 59.609375 44.109375 C 57.496094 47.472656 55.609375 49.691406 53.949219 50.761719 C 53.949219 51.347656 54.351562 51.640625 55.15625 51.640625 C 56.0625 51.640625 58.351562 50.8125 62.023438 49.152344 C 65.84375 47.398438 67.757812 46.132812 67.757812 45.351562 L 65.71875 42.351562 M 77.941406 43.011719 L 83.074219 47.472656 L 101.105469 61.734375 L 84.054688 66.851562 L 66.625 70.949219 L 55.308594 73.214844 L 48.59375 72.628906 L 50.476562 58.953125 L 52.515625 61.074219 L 53.949219 62.832031 C 54.199219 63.171875 55.457031 63.78125 57.722656 64.660156 C 62.398438 66.65625 65.015625 67.65625 65.570312 67.65625 C 66.425781 67.65625 67.078125 67.316406 67.53125 66.632812 C 63.054688 63.5625 59.582031 60.929688 57.117188 58.734375 C 56.363281 58.101562 55.105469 56.320312 53.34375 53.394531 L 51.082031 50.03125 L 56.816406 43.304688 L 57.042969 43.15625 L 56.96875 43.011719 L 57.042969 42.9375 L 56.816406 42.644531 C 56.210938 41.523438 55.808594 40.476562 55.609375 39.5 C 55.40625 39.207031 54.929688 39.011719 54.175781 38.914062 L 56.816406 34.894531 L 58.324219 33.796875 L 71.832031 38.695312 C 73.691406 39.523438 75.730469 40.964844 77.941406 43.011719 M 41.273438 45.058594 C 42.632812 47.546875 43.863281 49.226562 44.96875 50.105469 L 44.214844 51.054688 L 33.804688 63.5625 L 34.03125 64.148438 L 34.632812 64.21875 L 35.160156 64 L 35.3125 64 C 37.425781 64 40.242188 62.609375 43.761719 59.832031 C 45.976562 58.078125 47.484375 56.566406 48.289062 55.296875 L 49.574219 57.710938 L 48.59375 62.539062 L 47.308594 71.3125 L 47.382812 72.191406 L 47.160156 72.191406 L 44.820312 71.167969 L 44.066406 71.386719 C 37.121094 66.804688 32.570312 63.683594 30.40625 62.027344 L 27.238281 59.613281 L 32.746094 53.25 C 35.261719 50.277344 37.574219 47.933594 39.6875 46.230469 L 41.121094 44.984375 L 41.273438 45.058594 M 47.988281 74.09375 L 48.140625 74.019531 L 55.683594 74.679688 L 67.304688 72.410156 C 75.050781 70.753906 80.785156 69.339844 84.507812 68.167969 C 95.523438 64.757812 102.992188 62.609375 106.917969 61.734375 L 121.402344 58.441406 L 122.007812 58.222656 L 121.402344 58.222656 L 122.308594 57.710938 L 128.421875 55.882812 L 138.382812 52.8125 C 145.472656 51.203125 149.597656 49.226562 150.753906 46.886719 L 150.753906 47.472656 C 150.753906 48.15625 150.503906 48.8125 150 49.445312 C 148.59375 51.054688 145.398438 52.46875 140.417969 53.6875 L 133.175781 55.882812 C 132.167969 56.371094 131.1875 56.636719 130.230469 56.6875 C 125.351562 58.148438 118.335938 60.148438 109.179688 62.683594 C 94.039062 67.21875 79.125 70.949219 64.4375 73.875 L 49.121094 76.945312 C 42.78125 73.972656 39.410156 72.289062 39.007812 71.898438 C 38.054688 70.777344 35.109375 68.851562 30.179688 66.121094 L 21.503906 59.464844 C 17.128906 55.808594 14.941406 53.714844 14.941406 53.175781 L 15.769531 51.496094 C 16.726562 52.859375 20.019531 55.710938 25.652344 60.050781 L 25.652344 60.199219 L 25.878906 60.199219 L 30.179688 63.488281 C 39.941406 70.703125 45.5 74.3125 46.855469 74.3125 C 47.511719 74.3125 47.835938 74.214844 47.835938 74.019531 L 47.914062 74.019531 L 47.988281 74.09375 "/>
<path style=" stroke:none;fill-rule:evenodd;fill:rgb(80.392158%,71.764708%,76.47059%);fill-opacity:1;" d="M 107.066406 17.707031 L 107.066406 17.925781 L 106.390625 18.582031 L 105.40625 19.242188 L 103.671875 20.265625 L 102.617188 19.753906 L 104.730469 18.65625 L 105.332031 18.292969 L 107.066406 17.707031 M 90.394531 28.894531 L 90.84375 28.457031 L 90.996094 28.3125 C 93.710938 25.582031 97.03125 23.070312 100.957031 20.777344 L 102.089844 21.289062 L 90.394531 28.96875 L 90.394531 28.894531 M 91.976562 29.773438 L 92.203125 30.433594 L 89.714844 31.527344 L 88.128906 29.773438 L 88.203125 29.699219 C 88.457031 30.140625 89.234375 30.359375 90.542969 30.359375 L 91.976562 29.773438 M 102.539062 38.695312 L 102.617188 38.695312 C 103.019531 39.328125 103.546875 39.648438 104.199219 39.648438 C 104.453125 39.648438 105.132812 39.304688 106.238281 38.621094 L 106.617188 39.425781 L 104.199219 40.671875 C 103.09375 40.671875 102.539062 40.011719 102.539062 38.695312 M 104.425781 38.332031 L 103.898438 37.816406 C 105.105469 36.210938 108.929688 33.1875 115.367188 28.75 C 115.621094 28.992188 115.894531 29.164062 116.199219 29.261719 L 112.199219 32.625 C 107.824219 36.429688 105.230469 38.332031 104.425781 38.332031 M 121.402344 25.605469 L 120.726562 25.96875 L 117.40625 28.3125 L 116.953125 27.652344 L 119.667969 25.824219 L 120.046875 25.53125 L 121.402344 25.457031 L 121.402344 25.605469 "/>
<path style=" stroke:none;fill-rule:evenodd;fill:rgb(57.254905%,56.470591%,58.431375%);fill-opacity:1;" d="M 92.808594 153.882812 L 92.65625 153.664062 L 92.882812 153.078125 L 94.164062 153.957031 L 94.390625 154.101562 L 94.46875 153.957031 C 96.226562 153.957031 98.015625 153.566406 99.824219 152.785156 C 101.636719 151.957031 104.753906 151.542969 109.179688 151.542969 L 123.214844 152.054688 L 133.402344 152.566406 L 134.984375 152.566406 L 135.0625 152.492188 C 136.46875 152.394531 137.398438 152.128906 137.851562 151.6875 L 137.851562 150.445312 L 137.929688 150.445312 L 138.382812 150.371094 C 138.53125 150.226562 138.609375 150.324219 138.609375 150.664062 L 138.832031 152.054688 C 138.832031 152.785156 138.429688 153.421875 137.625 153.957031 C 135.3125 155.566406 129.453125 156.371094 120.046875 156.371094 L 109.632812 156.371094 L 109.632812 155.929688 L 98.691406 155.417969 C 95.421875 155.125 93.460938 154.613281 92.808594 153.882812 M 31.691406 95.886719 L 31.539062 95.8125 L 31.3125 95.230469 L 31.992188 94.351562 C 33.046875 89.425781 33.578125 85.234375 33.578125 81.773438 C 33.578125 75.679688 33.097656 71.265625 32.144531 68.535156 L 36.746094 71.679688 L 36.519531 72.410156 C 36.519531 76.019531 37.425781 80.238281 39.234375 85.0625 C 39.988281 90.035156 40.820312 93.816406 41.726562 96.398438 L 41.5 96.472656 L 41.5 99.542969 C 41.75 101.007812 42.378906 102.566406 43.386719 104.226562 C 44.59375 106.175781 45.925781 107.441406 47.382812 108.027344 C 49.246094 108.710938 51.683594 110.101562 54.703125 112.195312 L 57.949219 114.609375 L 57.949219 117.242188 C 58.25 119.09375 58.402344 120.582031 58.402344 121.703125 L 56.890625 128.945312 L 56.890625 129.164062 L 44.894531 133.550781 L 44.214844 131.210938 L 43.6875 129.894531 L 43.914062 129.75 L 41.875 121.410156 L 41.875 116.730469 C 41.875 115.171875 41.75 113.902344 41.5 112.929688 L 41.273438 112.269531 L 41.273438 112.195312 L 41.953125 110.074219 C 41.953125 109.492188 40.441406 106.492188 37.425781 101.078125 L 36.292969 92.230469 L 36.292969 92.085938 L 36.21875 92.15625 L 32.066406 95.960938 L 31.691406 95.886719 M 40.667969 119.800781 C 41.070312 120.730469 41.273438 122.605469 41.273438 125.433594 L 41.273438 126.898438 C 41.523438 128.457031 41.875 129.578125 42.328125 130.261719 C 42.582031 131.722656 43.007812 132.964844 43.613281 133.992188 L 38.332031 135.964844 C 37.171875 136.550781 35.035156 137.550781 31.917969 138.964844 L 31.085938 135.890625 L 30.785156 134.574219 L 31.011719 134.574219 L 30.484375 130.40625 L 30.105469 129.894531 L 30.179688 129.382812 L 30.484375 129.382812 L 31.011719 129.308594 L 35.386719 133.699219 C 38.707031 133.699219 40.316406 132.136719 40.214844 129.015625 C 40.015625 123.847656 40.140625 120.730469 40.59375 119.65625 L 40.667969 119.800781 M 28.898438 106.054688 L 29.652344 103.492188 L 30.257812 105.25 L 29.503906 108.757812 L 29.050781 115.632812 L 29.503906 122.433594 L 29.050781 129.96875 L 29.503906 134.867188 L 29.503906 135.890625 C 29.351562 137.84375 29.628906 139.085938 30.332031 139.621094 L 27.992188 140.644531 L 27.011719 137.71875 C 26.457031 136.257812 25.90625 135.28125 25.351562 134.796875 L 24.21875 126.605469 C 24.21875 123.191406 25.78125 116.339844 28.898438 106.054688 "/>
<path style=" stroke:none;fill-rule:evenodd;fill:rgb(72.941178%,72.941178%,72.941178%);fill-opacity:1;" d="M 104.425781 113.730469 C 104.328125 112.027344 103.546875 105.054688 102.089844 92.816406 C 102.089844 91.695312 102.265625 91.058594 102.617188 90.914062 L 102.617188 85.0625 L 102.539062 85.0625 C 102.441406 88.085938 101.636719 91.988281 100.125 96.765625 L 96.503906 108.464844 L 96.429688 108.6875 L 95.597656 108.6875 L 95.371094 108.320312 L 95.75 106.417969 L 96.277344 92.011719 L 96.277344 79.796875 C 95.726562 73.460938 95.148438 69.582031 94.542969 68.167969 L 110.539062 63.78125 L 121.179688 60.78125 L 120.875 61.953125 L 121.402344 91.574219 C 121.402344 94.304688 121.277344 96.644531 121.027344 98.59375 L 121.554688 98.886719 L 121.554688 99.03125 L 121.027344 98.960938 L 120.5 98.886719 C 119.089844 98.886719 117.957031 99.347656 117.101562 100.277344 L 117.253906 99.910156 L 116.953125 100.203125 C 115.894531 101.273438 115.265625 102.738281 115.066406 104.589844 L 115.066406 105.101562 L 115.21875 104.664062 L 115.519531 103.933594 L 114.839844 106.859375 L 114.386719 110.296875 L 113.933594 110.296875 L 113.859375 109.636719 L 113.859375 109.417969 L 113.785156 109.636719 C 112.726562 112.269531 111.722656 114.390625 110.765625 116 C 105.132812 123.75 101.734375 129.503906 100.578125 133.257812 L 100.351562 133.332031 L 99.898438 133.1875 L 99.824219 133.113281 L 100.578125 131.210938 L 101.410156 128.871094 C 105.382812 117.363281 107.371094 109.929688 107.371094 106.566406 L 107.371094 106.492188 C 108.628906 106.003906 109.558594 102.542969 110.160156 96.105469 C 110.464844 92.597656 110.640625 89.035156 110.691406 85.429688 C 110.691406 82.796875 110.488281 80.992188 110.085938 80.015625 C 109.785156 80.503906 109.558594 82.625 109.40625 86.378906 L 109.105469 92.890625 C 109.054688 94.644531 108.527344 97.179688 107.519531 100.496094 L 106.011719 105.832031 L 106.164062 106.125 L 106.238281 106.199219 C 105.734375 107.273438 105.332031 108.636719 105.03125 110.296875 L 105.03125 111.464844 L 104.878906 113.804688 L 104.425781 113.804688 L 104.425781 113.730469 M 88.203125 147.519531 L 90.167969 144.960938 C 90.820312 144.960938 91.601562 145.328125 92.503906 146.058594 L 93.109375 146.570312 L 93.789062 147.375 L 93.035156 147.226562 L 93.109375 147.960938 L 93.9375 148.03125 C 94.84375 146.472656 96.152344 143.402344 97.863281 138.816406 L 98.015625 138.816406 L 98.316406 138.523438 C 100.429688 142.230469 102.0625 144.082031 103.21875 144.082031 C 109.105469 144.082031 115.140625 141.742188 121.328125 137.0625 C 122.535156 136.183594 123.390625 134.894531 123.894531 133.1875 L 125.027344 128.945312 L 130.835938 113.148438 L 130.910156 112.855469 L 131.136719 113.292969 L 130.761719 114.464844 L 130.457031 124.847656 L 130.910156 139.476562 L 131.589844 139.621094 L 132.042969 139.476562 L 132.042969 135.746094 L 132.117188 121.851562 L 133.402344 125.800781 C 134.910156 130.1875 135.664062 133.355469 135.664062 135.308594 C 135.664062 137.597656 135.238281 139.769531 134.382812 141.816406 C 133.527344 143.816406 133.097656 145.742188 133.097656 147.59375 C 132.847656 149.054688 132.949219 150.082031 133.402344 150.664062 L 133.402344 150.957031 L 133.550781 151.25 L 133.097656 151.25 L 122.914062 150.738281 L 109.03125 150.226562 L 99.449219 151.542969 C 94.316406 152.421875 91.75 153.003906 91.75 153.296875 L 91.75 153.371094 L 92.203125 153.078125 C 92.355469 152.933594 92.429688 153.054688 92.429688 153.445312 L 92.277344 153.738281 L 90.167969 155.636719 L 87.449219 157.394531 L 86.921875 157.613281 L 86.769531 157.175781 L 87.449219 156.441406 L 88.128906 148.472656 L 87.902344 148.472656 L 87.902344 148.105469 L 88.203125 147.519531 M 122.6875 93.914062 L 122.535156 93.839844 L 122.6875 93.765625 L 122.6875 91.574219 L 122.914062 74.605469 C 122.863281 66.414062 122.433594 61.757812 121.628906 60.636719 L 129.023438 58.441406 L 129.023438 60.269531 C 130.484375 65.339844 131.164062 71.046875 131.0625 77.382812 L 131.515625 89.597656 L 132.648438 89.671875 L 131.515625 90.035156 C 130.410156 90.425781 129.074219 91.109375 127.515625 92.085938 C 125 93.402344 123.71875 94.058594 123.667969 94.058594 L 122.6875 93.914062 M 31.613281 68.167969 L 31.464844 68.316406 L 31.3125 69.558594 C 32.015625 75.847656 32.371094 79.847656 32.371094 81.554688 C 32.371094 87.0625 30.808594 95.035156 27.691406 105.46875 C 24.722656 115.21875 23.164062 122.046875 23.011719 125.945312 L 23.390625 128.359375 L 23.390625 128.945312 L 23.089844 129.164062 L 23.011719 128.726562 L 21.277344 122.726562 L 21.125 117.972656 C 21.125 115.535156 22.257812 110.636719 24.523438 103.273438 C 26.734375 95.863281 27.84375 89.550781 27.84375 84.332031 C 27.84375 78.382812 26.609375 75.214844 24.144531 74.824219 L 23.617188 74.75 L 23.542969 74.457031 L 23.84375 74.238281 L 24.21875 74.238281 L 25.203125 67.65625 L 24.898438 63.488281 L 29.125 66.488281 L 31.613281 68.167969 M 31.691406 95.886719 L 32.066406 95.960938 L 36.21875 92.15625 L 36.292969 92.230469 L 37.425781 101.078125 C 40.441406 106.492188 41.953125 109.492188 41.953125 110.074219 L 41.273438 112.195312 C 40.820312 112.929688 40.59375 114.683594 40.59375 117.460938 L 40.667969 119.65625 L 40.59375 119.65625 C 40.140625 120.730469 40.015625 123.847656 40.214844 129.015625 C 40.316406 132.136719 38.707031 133.699219 35.386719 133.699219 L 31.011719 129.308594 L 30.484375 129.382812 L 30.859375 122.433594 L 30.40625 115.5625 C 30.40625 111.464844 30.582031 108.394531 30.9375 106.34375 L 31.3125 106.273438 L 31.3125 104.664062 L 31.164062 103.128906 C 30.960938 102.347656 30.683594 101.714844 30.332031 101.226562 L 31.691406 95.886719 "/>
<path style=" stroke:none;fill-rule:evenodd;fill:rgb(100%,100%,90.588236%);fill-opacity:1;" d="M 95.902344 108.6875 L 96.429688 108.6875 L 96.503906 108.464844 L 100.125 96.765625 C 101.636719 91.988281 102.441406 88.085938 102.539062 85.0625 L 102.617188 85.0625 L 102.617188 90.914062 C 102.265625 91.058594 102.089844 91.695312 102.089844 92.816406 C 103.546875 105.054688 104.328125 112.027344 104.425781 113.730469 L 103.972656 115.707031 C 102.96875 119.414062 101.761719 122.875 100.351562 126.09375 C 95.824219 137.011719 93.410156 143.839844 93.109375 146.570312 L 92.503906 146.058594 C 91.601562 145.328125 90.820312 144.960938 90.167969 144.960938 L 88.203125 147.519531 C 89.058594 141.132812 90.621094 133.601562 92.882812 124.921875 L 95.222656 116.878906 C 96.027344 113.609375 96.253906 110.878906 95.902344 108.6875 M 99.898438 133.1875 L 100.351562 133.332031 L 100.578125 133.257812 C 101.734375 129.503906 105.132812 123.75 110.765625 116 C 111.722656 114.390625 112.726562 112.269531 113.785156 109.636719 L 113.859375 109.636719 L 113.933594 110.296875 L 114.386719 110.296875 L 114.839844 106.859375 L 115.519531 103.933594 L 115.21875 104.664062 L 115.066406 104.589844 C 115.265625 102.738281 115.894531 101.273438 116.953125 100.203125 L 117.101562 100.277344 C 117.957031 99.347656 119.089844 98.886719 120.5 98.886719 L 121.027344 98.960938 C 120.777344 100.46875 120.449219 101.738281 120.046875 102.761719 C 119.59375 103.980469 119.265625 105.785156 119.066406 108.175781 C 118.863281 110.757812 118.585938 112.636719 118.234375 113.804688 L 115.066406 124.996094 L 110.085938 135.964844 L 110.238281 136.402344 L 111.066406 136.625 C 111.671875 136.625 112.550781 135.0625 113.707031 131.941406 L 116.121094 125.652344 L 119.59375 114.464844 C 120.296875 112.171875 120.902344 108.367188 121.402344 103.054688 C 122.109375 100.46875 122.535156 97.421875 122.6875 93.914062 L 123.667969 94.058594 C 123.71875 94.058594 125 93.402344 127.515625 92.085938 C 129.074219 91.109375 130.410156 90.425781 131.515625 90.035156 L 131.589844 94.496094 L 130.835938 113.148438 L 125.027344 128.945312 L 123.894531 133.1875 C 123.390625 134.894531 122.535156 136.183594 121.328125 137.0625 C 115.140625 141.742188 109.105469 144.082031 103.21875 144.082031 C 102.0625 144.082031 100.429688 142.230469 98.316406 138.523438 L 98.015625 138.816406 L 97.863281 138.816406 L 99.898438 133.1875 M 92.277344 153.738281 L 92.808594 153.882812 C 93.460938 154.613281 95.421875 155.125 98.691406 155.417969 L 109.632812 155.929688 L 109.632812 156.371094 L 120.046875 156.371094 C 129.453125 156.371094 135.3125 155.566406 137.625 153.957031 C 138.429688 153.421875 138.832031 152.785156 138.832031 152.054688 L 138.609375 150.664062 C 138.609375 150.324219 138.53125 150.226562 138.382812 150.371094 L 137.929688 150.445312 L 137.476562 150.226562 L 136.796875 150.738281 L 135.136719 151.175781 L 134.984375 151.03125 L 135.4375 150.445312 C 134.683594 149.570312 134.308594 148.570312 134.308594 147.449219 C 134.308594 146.132812 134.558594 144.816406 135.0625 143.5 C 135.464844 145.449219 136.671875 147.203125 138.683594 148.765625 C 141.148438 150.714844 142.378906 152.347656 142.378906 153.664062 L 140.417969 157.027344 C 140.417969 157.660156 141.976562 158.882812 145.097656 160.683594 C 148.164062 162.488281 149.699219 164.488281 149.699219 166.683594 C 149.699219 168.097656 149.273438 170.363281 148.417969 173.484375 L 147.285156 178.019531 C 146.128906 176.945312 145.121094 175.578125 144.265625 173.921875 L 141.550781 168.65625 C 140.34375 167.046875 138.910156 165.511719 137.25 164.050781 L 134.609375 162.074219 L 139.285156 162.21875 C 140.796875 162.21875 141.550781 162.027344 141.550781 161.636719 L 130.382812 160.246094 L 127.742188 159.878906 L 102.992188 156.734375 C 97.007812 156.734375 91.828125 157.953125 87.449219 160.390625 L 87.449219 157.394531 L 90.167969 155.636719 L 92.277344 153.738281 M 23.011719 128.726562 C 23.0625 131.503906 23.289062 133.894531 23.691406 135.890625 L 24.21875 135.820312 L 25.730469 139.035156 L 26.863281 141.15625 L 21.125 143.9375 L 21.125 143.863281 C 20.472656 140.695312 19.894531 138.402344 19.390625 136.988281 L 19.769531 136.84375 L 19.769531 136.769531 C 19.316406 135.648438 19.089844 133.015625 19.089844 128.871094 L 21.125 98.375 C 21.480469 93.207031 22.484375 85.355469 24.144531 74.824219 C 26.609375 75.214844 27.84375 78.382812 27.84375 84.332031 C 27.84375 89.550781 26.734375 95.863281 24.523438 103.273438 C 22.257812 110.636719 21.125 115.535156 21.125 117.972656 L 21.277344 122.726562 L 23.011719 128.726562 "/>
</g>
</svg>
