<?xml version="1.0" encoding="UTF-8"?>
<svg xmlns="http://www.w3.org/2000/svg" xmlns:xlink="http://www.w3.org/1999/xlink" width="154px" height="180px" viewBox="0 0 154 180" version="1.1">
<g id="surface1">
<path style=" stroke:none;fill-rule:evenodd;fill:rgb(0%,0%,0%);fill-opacity:1;" d="M 104.199219 53.324219 L 104.351562 53.324219 L 104.050781 53.394531 L 104.199219 53.324219 M 77.867188 59.394531 L 106.539062 59.6875 L 108.804688 60.050781 L 109.105469 60.417969 L 109.179688 60.417969 L 109.257812 60.636719 L 109.484375 60.929688 L 109.40625 61.074219 L 111.519531 66.632812 L 111.519531 69.484375 L 111.066406 69.707031 L 110.839844 68.828125 L 102.011719 74.167969 L 102.539062 82.210938 L 102.539062 82.429688 C 102.84375 86.183594 103.269531 89.011719 103.824219 90.914062 C 104.476562 94.816406 105.308594 97.691406 106.3125 99.542969 C 107.519531 101.738281 108.828125 104.589844 110.238281 108.101562 C 114.3125 115.902344 116.625 121.65625 117.179688 125.359375 L 119.820312 142.546875 L 119.820312 143.351562 L 119.894531 143.351562 C 120.347656 143.351562 120.523438 144.523438 120.421875 146.863281 L 120.273438 150.8125 L 120.5 153.078125 C 120.449219 154.101562 120.046875 154.613281 119.292969 154.613281 C 116.976562 154.613281 115.769531 154.320312 115.667969 153.738281 L 115.746094 148.324219 L 115.746094 141.742188 C 115.847656 138.816406 115.140625 134.429688 113.632812 128.578125 C 113.480469 126.578125 111.367188 121.753906 107.292969 114.097656 L 101.410156 102.617188 C 100.402344 101.300781 99.398438 97.835938 98.390625 92.230469 C 97.835938 89.257812 97.535156 85.988281 97.484375 82.429688 L 97.484375 81.261719 L 97.710938 76.507812 C 95.046875 77.773438 93.460938 78.457031 92.957031 78.554688 L 88.960938 79.796875 L 85.109375 80.457031 L 83.453125 80.675781 L 63.230469 80.75 L 42.933594 80.457031 L 42.40625 80.382812 L 42.40625 82.429688 C 42.40625 98.863281 42.203125 110.660156 41.800781 117.828125 C 41.550781 123.09375 41.246094 126.191406 40.894531 127.117188 L 36.21875 136.332031 C 34.253906 140.132812 33 143.449219 32.445312 146.277344 C 32.144531 147.933594 31.992188 150.8125 31.992188 154.90625 L 32.445312 162.148438 L 27.164062 162.292969 L 27.164062 162.367188 L 26.863281 162.511719 L 26.636719 162.21875 L 26.410156 162.21875 L 26.410156 162 L 26.558594 161.929688 L 26.410156 156.296875 C 26.410156 149.761719 27.714844 143.109375 30.332031 136.332031 C 33.5 128.089844 35.414062 121.703125 36.066406 117.167969 C 37.527344 107.613281 38.179688 101.105469 38.027344 97.644531 C 37.828125 92.472656 37.828125 87.402344 38.027344 82.429688 L 38.253906 79.066406 L 37.046875 78.480469 C 36.140625 77.945312 35.6875 76.773438 35.6875 74.972656 L 35.464844 67.949219 L 35.539062 65.902344 L 35.3125 63.34375 L 35.3125 61.148438 C 35.714844 60.027344 36.898438 59.464844 38.859375 59.464844 L 42.707031 60.125 L 57.195312 60.78125 L 77.71875 59.464844 L 77.867188 59.394531 M 69.945312 64.074219 L 57.117188 64.367188 L 56.96875 64.292969 L 56.96875 64.367188 L 53.875 64.367188 L 52.289062 64.074219 L 51.609375 64.148438 L 51.535156 64.074219 L 51.535156 64.21875 L 51.382812 64.074219 L 51.234375 64.367188 L 47.082031 64.292969 L 46.78125 64.511719 C 46.175781 65.144531 45.726562 66.097656 45.421875 67.363281 L 45.421875 71.023438 C 45.421875 74.191406 45.675781 76.410156 46.175781 77.675781 L 46.328125 78.042969 L 71.453125 77.894531 L 71.453125 78.117188 L 72.058594 78.261719 L 72.585938 77.894531 L 75.753906 77.894531 L 76.207031 78.480469 L 76.960938 77.894531 L 84.128906 77.824219 L 89.1875 75.628906 L 89.5625 72.777344 L 89.5625 69.707031 C 89.3125 67.851562 89.109375 66.851562 88.960938 66.707031 L 87.148438 63.34375 C 86.59375 62.511719 85.3125 62.097656 83.300781 62.097656 C 82.644531 62.539062 80.910156 62.976562 78.09375 63.414062 L 77.71875 63.414062 L 77.339844 63.34375 L 77.113281 63.488281 L 70.773438 64 L 70.171875 63.855469 L 69.945312 64.074219 M 68.058594 72.628906 C 68.007812 75.019531 66.75 76.214844 64.285156 76.214844 C 62.929688 76.214844 61.820312 75.945312 60.964844 75.410156 L 59.382812 76.214844 C 58.828125 76.507812 58.25 76.773438 57.644531 77.019531 L 57.195312 76.578125 L 58.25 74.457031 L 54.550781 74.972656 L 53.722656 74.898438 L 54.628906 73.582031 L 54.777344 73.726562 L 58.777344 72.117188 L 58.929688 72.117188 L 58.777344 70.582031 C 58.777344 67.265625 60.464844 65.609375 63.832031 65.609375 C 65.492188 65.609375 66.449219 65.925781 66.699219 66.558594 C 67.003906 66.558594 67.632812 66.074219 68.585938 65.097656 L 68.890625 65.171875 L 69.039062 65.464844 L 68.132812 66.558594 L 67.304688 67.21875 L 66.777344 67.4375 C 66.625 66.707031 65.644531 66.339844 63.832031 66.339844 L 62.625 66.414062 C 61.167969 66.65625 60.210938 67.316406 59.757812 68.386719 L 59.53125 70.507812 L 59.609375 71.824219 L 60.664062 71.386719 L 60.589844 70.4375 L 61.117188 68.972656 C 61.722656 68.046875 62.675781 67.585938 63.984375 67.585938 C 65.089844 67.585938 65.972656 67.828125 66.625 68.316406 L 67.304688 68.902344 L 68.890625 68.242188 C 71.402344 67.414062 73.113281 66.753906 74.019531 66.269531 L 74.09375 66.195312 L 74.171875 66.195312 L 74.472656 66.269531 L 74.546875 66.558594 C 74.546875 67.242188 73.140625 68.316406 70.324219 69.777344 L 70.398438 69.484375 C 70.398438 69.046875 71.027344 68.582031 72.285156 68.097656 L 72.285156 67.804688 L 72.660156 67.511719 L 72.058594 67.804688 L 71.605469 67.730469 L 64.285156 70.582031 L 63.304688 70.949219 C 60.136719 71.679688 57.796875 72.65625 56.289062 73.875 L 55.683594 74.09375 L 56.210938 74.019531 L 56.664062 74.09375 L 58.175781 73.582031 L 58.023438 73.726562 L 58.402344 73.875 L 59.304688 73.433594 C 60.664062 73.386719 61.542969 73.191406 61.945312 72.851562 L 62.625 72.628906 L 65.71875 71.898438 L 65.117188 72.117188 C 65.117188 72.851562 64.6875 73.3125 63.832031 73.507812 L 63.15625 73.507812 L 62.023438 73.363281 L 60.4375 73.875 L 61.570312 74.75 C 62.375 75.238281 62.902344 75.484375 63.15625 75.484375 C 65.71875 75.484375 67.101562 74.628906 67.304688 72.921875 L 67.304688 72.484375 L 67.230469 71.3125 L 68.058594 71.023438 L 68.058594 72.628906 M 66.171875 69.046875 C 65.667969 68.609375 64.992188 68.386719 64.136719 68.386719 C 63.179688 68.386719 62.425781 68.730469 61.871094 69.414062 L 61.34375 70.4375 L 61.417969 71.09375 L 63.078125 70.363281 L 65.871094 69.558594 L 66.472656 69.339844 L 66.171875 69.046875 M 48.140625 65.097656 L 48.214844 65.097656 C 49.671875 64.855469 50.277344 65.414062 50.027344 66.78125 C 50.027344 67.707031 49.546875 68.167969 48.59375 68.167969 C 47.636719 68.167969 47.03125 67.902344 46.78125 67.363281 L 46.78125 66.488281 C 46.78125 65.464844 47.234375 65 48.140625 65.097656 M 47.761719 66.414062 L 48.140625 67.070312 L 49.042969 67.070312 L 49.042969 66.269531 L 47.988281 66.195312 L 47.761719 66.414062 M 46.101562 72.191406 L 45.949219 71.09375 C 45.949219 70.023438 46.53125 69.484375 47.6875 69.484375 C 48.945312 69.484375 49.472656 70.09375 49.269531 71.3125 C 49.269531 72.582031 48.667969 73.214844 47.460938 73.214844 C 46.804688 73.214844 46.351562 72.875 46.101562 72.191406 M 47.6875 70.4375 L 47.007812 71.3125 L 47.460938 72.191406 L 48.214844 71.3125 C 48.214844 71.023438 48.039062 70.730469 47.6875 70.4375 M 48.214844 74.3125 C 49.421875 74.3125 50.027344 74.945312 50.027344 76.214844 C 50.027344 77.140625 49.574219 77.605469 48.667969 77.605469 C 47.5625 77.605469 47.007812 76.945312 47.007812 75.628906 C 47.007812 74.75 47.410156 74.3125 48.214844 74.3125 M 49.042969 75.996094 L 48.59375 75.484375 L 47.988281 75.410156 L 48.367188 76.507812 L 48.816406 76.507812 C 48.96875 76.554688 49.042969 76.382812 49.042969 75.996094 M 59.304688 74.238281 L 58.402344 75.703125 L 58.402344 75.773438 L 60.4375 75.042969 L 59.609375 74.167969 L 59.304688 74.238281 M 109.332031 64.660156 L 105.484375 65.464844 L 103.671875 66.414062 L 102.011719 65.609375 C 101.609375 64.976562 101.03125 64.660156 100.277344 64.660156 C 99.371094 64.660156 98.390625 65.046875 97.335938 65.828125 L 95.902344 67.070312 L 90.542969 69.777344 L 90.46875 69.777344 L 90.542969 70.363281 L 90.621094 70.363281 L 90.542969 72.777344 L 90.394531 75.335938 L 90.542969 75.847656 L 90.167969 76.433594 C 89.964844 76.96875 89.714844 77.3125 89.410156 77.457031 L 88.960938 76.945312 L 87.300781 77.605469 L 85.335938 78.335938 L 84.433594 78.921875 L 65.945312 79.140625 L 45.875 78.992188 C 45.675781 78.992188 45.472656 78.894531 45.273438 78.699219 L 45.273438 78.335938 C 44.769531 77.847656 44.441406 76.703125 44.292969 74.898438 L 44.292969 72.777344 L 44.367188 72.777344 L 44.515625 72.265625 L 44.292969 71.972656 L 44.066406 71.898438 L 38.40625 71.679688 L 37.121094 71.242188 L 36.671875 71.605469 L 36.445312 71.898438 L 36.671875 72.046875 L 36.671875 72.777344 L 37.046875 77.019531 C 37.601562 77.894531 38.882812 78.457031 40.894531 78.699219 L 42.480469 79.210938 L 43.234375 79.578125 L 63.304688 79.652344 L 88.582031 78.847656 C 91.296875 78.164062 98.617188 74.554688 110.539062 68.023438 L 110.011719 66.339844 C 109.40625 66.78125 108.375 67.292969 106.917969 67.875 C 104.402344 68.949219 102.363281 69.484375 100.804688 69.484375 L 99.824219 69.265625 L 99.75 68.972656 C 99.75 68.730469 103.195312 67.390625 110.085938 64.953125 L 110.011719 64.730469 L 109.484375 64.660156 L 109.332031 64.660156 M 119.519531 144.667969 L 116.574219 127.699219 C 116.121094 123.945312 114.085938 118.292969 110.464844 110.734375 C 105.585938 100.496094 102.71875 91.058594 101.863281 82.429688 L 101.558594 76.871094 L 101.710938 74.3125 L 99.75 75.410156 L 97.9375 76.359375 L 98.238281 82.429688 L 98.691406 89.453125 C 98.945312 92.71875 100.253906 97.253906 102.617188 103.054688 L 102.464844 103.273438 C 108.804688 114.246094 112.726562 122.410156 114.234375 127.773438 C 115.644531 132.699219 116.398438 141.304688 116.5 153.589844 L 118.386719 153.808594 L 119.519531 153.808594 L 119.59375 144.667969 L 119.519531 144.667969 M 86.394531 64.511719 C 86.394531 65.828125 85.613281 66.488281 84.054688 66.488281 C 83.199219 66.488281 82.695312 66.269531 82.546875 65.828125 L 82.546875 65.097656 L 82.773438 63.78125 C 83.023438 62.902344 83.402344 62.464844 83.902344 62.464844 C 85.261719 62.464844 86.09375 63.148438 86.394531 64.511719 M 83.902344 63.855469 L 83.527344 65.171875 L 83.527344 65.390625 L 84.582031 65.390625 L 85.488281 64.511719 L 83.902344 63.855469 M 86.621094 67.730469 C 87.929688 67.730469 88.40625 68.242188 88.054688 69.265625 C 88.054688 70.582031 87.425781 71.242188 86.167969 71.242188 C 85.109375 71.242188 84.582031 70.703125 84.582031 69.632812 C 84.582031 68.363281 85.261719 67.730469 86.621094 67.730469 M 85.714844 69.484375 L 85.714844 69.925781 L 86.242188 70.144531 L 87.074219 70.144531 L 87.074219 68.902344 L 86.394531 68.902344 L 85.714844 69.484375 M 86.015625 73.726562 L 86.242188 74.3125 L 87.300781 74.53125 L 87.300781 73.289062 L 86.921875 73.214844 L 86.015625 73.726562 M 86.921875 72.339844 C 87.828125 72.339844 88.28125 72.875 88.28125 73.945312 C 88.28125 75.066406 87.753906 75.628906 86.695312 75.628906 C 86.042969 75.628906 85.5625 75.335938 85.261719 74.75 L 85.035156 73.875 C 85.035156 72.851562 85.664062 72.339844 86.921875 72.339844 M 41.875 80.238281 L 40.746094 79.796875 L 38.480469 79.140625 L 38.632812 82.429688 L 38.78125 94.425781 L 38.78125 103.054688 C 38.933594 104.613281 38.605469 107.417969 37.800781 111.464844 L 36.671875 120.023438 C 36.167969 123.433594 35.4375 126.214844 34.480469 128.359375 C 28.648438 141.667969 26.183594 152.835938 27.085938 161.855469 L 31.539062 161.707031 L 31.238281 154.90625 C 31.238281 146.617188 32.671875 140.304688 35.539062 135.964844 C 39.363281 130.40625 41.222656 124.117188 41.121094 117.097656 C 40.972656 101.152344 41.199219 89.597656 41.800781 82.429688 L 41.953125 80.238281 L 41.875 80.238281 "/>
<path style=" stroke:none;fill-rule:evenodd;fill:rgb(40.000001%,40.000001%,40.000001%);fill-opacity:1;" d="M 68.890625 65.171875 L 69.945312 64.074219 L 70.171875 63.855469 L 70.773438 64 L 77.113281 63.488281 L 74.847656 66.632812 L 72.8125 70.582031 C 72.8125 71.214844 72.988281 71.582031 73.339844 71.679688 C 75.65625 70.851562 78.167969 69.4375 80.886719 67.4375 L 80.960938 67.363281 L 80.960938 67.511719 C 80.710938 69.023438 78.972656 72.460938 75.753906 77.824219 L 75.753906 77.894531 L 72.585938 77.894531 L 72.058594 78.261719 L 71.453125 78.117188 L 71.453125 77.675781 L 72.585938 76.066406 L 72.660156 75.847656 L 71.078125 75.628906 L 71.078125 74.972656 C 70.773438 74.042969 70.246094 73.945312 69.492188 74.679688 C 68.839844 75.3125 68.4375 75.214844 68.285156 74.386719 L 68.285156 72.558594 L 68.058594 72.628906 L 68.058594 71.023438 C 69.265625 70.484375 70.019531 70.070312 70.324219 69.777344 C 73.140625 68.316406 74.546875 67.242188 74.546875 66.558594 L 74.472656 66.269531 L 74.171875 66.195312 L 74.09375 66.195312 L 74.019531 66.269531 C 73.113281 66.753906 71.402344 67.414062 68.890625 68.242188 L 67.304688 68.902344 L 66.625 68.316406 L 67.304688 67.21875 L 68.132812 66.558594 L 69.039062 65.464844 L 68.890625 65.171875 M 72.058594 67.804688 L 72.660156 67.511719 L 72.285156 67.804688 L 72.058594 67.804688 M 65.871094 69.558594 L 66.097656 69.121094 L 66.171875 69.046875 L 66.472656 69.339844 L 65.871094 69.558594 M 65.71875 71.898438 L 67.003906 71.386719 L 67.230469 71.3125 L 67.304688 72.484375 L 67.304688 72.921875 L 64.4375 73.875 L 63.984375 73.726562 L 63.832031 73.507812 C 64.6875 73.3125 65.117188 72.851562 65.117188 72.117188 L 65.71875 71.898438 M 66.023438 71.972656 L 66.023438 71.898438 L 65.871094 71.972656 L 66.023438 71.972656 M 74.398438 70.144531 L 74.398438 69.996094 L 74.472656 70.144531 L 74.398438 70.144531 M 77.71875 63.414062 L 78.09375 63.414062 L 78.019531 63.5625 L 77.71875 63.414062 "/>
<path style=" stroke:none;fill-rule:evenodd;fill:rgb(60.000002%,60.000002%,60.000002%);fill-opacity:1;" d="M 69.945312 64.074219 L 68.890625 65.171875 L 68.585938 65.097656 C 67.632812 66.074219 67.003906 66.558594 66.699219 66.558594 C 66.449219 65.925781 65.492188 65.609375 63.832031 65.609375 C 60.464844 65.609375 58.777344 67.265625 58.777344 70.582031 L 58.929688 72.117188 L 58.777344 72.117188 L 54.777344 73.726562 L 54.628906 73.582031 L 53.722656 74.898438 L 54.550781 74.972656 L 58.25 74.457031 L 57.195312 76.578125 L 57.644531 77.019531 C 58.25 76.773438 58.828125 76.507812 59.382812 76.214844 L 60.964844 75.410156 C 61.820312 75.945312 62.929688 76.214844 64.285156 76.214844 C 66.75 76.214844 68.007812 75.019531 68.058594 72.628906 L 68.285156 72.558594 L 68.285156 74.386719 C 68.4375 75.214844 68.839844 75.3125 69.492188 74.679688 C 70.246094 73.945312 70.773438 74.042969 71.078125 74.972656 L 71.078125 75.628906 L 72.660156 75.847656 L 72.585938 76.066406 L 71.453125 77.675781 L 71.453125 77.894531 L 46.328125 78.042969 L 46.175781 77.675781 C 45.675781 76.410156 45.421875 74.191406 45.421875 71.023438 L 45.421875 67.363281 C 45.726562 66.097656 46.175781 65.144531 46.78125 64.511719 L 47.082031 64.292969 L 51.234375 64.367188 L 51.082031 64.585938 C 50.527344 65.707031 50.25 67.949219 50.25 71.3125 C 50.25 72.191406 50.453125 72.777344 50.855469 73.070312 C 51.910156 72.09375 52.992188 70.828125 54.101562 69.265625 L 54.25 70.363281 L 54.777344 70.4375 L 55.382812 70.363281 C 55.433594 69.386719 55.835938 68.292969 56.589844 67.070312 L 57.644531 65.023438 L 57.117188 64.367188 L 69.945312 64.074219 M 67.304688 67.21875 L 66.625 68.316406 C 65.972656 67.828125 65.089844 67.585938 63.984375 67.585938 C 62.675781 67.585938 61.722656 68.046875 61.117188 68.972656 L 60.589844 70.4375 L 60.664062 71.386719 L 59.609375 71.824219 L 59.53125 70.507812 L 59.757812 68.386719 C 60.210938 67.316406 61.167969 66.65625 62.625 66.414062 L 63.832031 66.339844 C 65.644531 66.339844 66.625 66.707031 66.777344 67.4375 L 67.304688 67.21875 M 65.871094 69.558594 L 63.078125 70.363281 L 61.417969 71.09375 L 61.34375 70.4375 L 61.871094 69.414062 C 62.425781 68.730469 63.179688 68.386719 64.136719 68.386719 C 64.992188 68.386719 65.667969 68.609375 66.171875 69.046875 L 66.097656 69.121094 L 65.871094 69.558594 M 63.832031 73.507812 L 63.984375 73.726562 L 64.4375 73.875 L 67.304688 72.921875 C 67.101562 74.628906 65.71875 75.484375 63.15625 75.484375 C 62.902344 75.484375 62.375 75.238281 61.570312 74.75 L 60.4375 73.875 L 62.023438 73.363281 L 63.15625 73.507812 L 63.832031 73.507812 M 66.023438 71.972656 L 65.871094 71.972656 L 66.023438 71.898438 L 66.023438 71.972656 M 51.609375 64.148438 L 51.535156 64.21875 L 51.535156 64.074219 L 51.609375 64.148438 M 48.140625 65.097656 C 47.234375 65 46.78125 65.464844 46.78125 66.488281 L 46.78125 67.363281 C 47.03125 67.902344 47.636719 68.167969 48.59375 68.167969 C 49.546875 68.167969 50.027344 67.707031 50.027344 66.78125 C 50.277344 65.414062 49.671875 64.855469 48.214844 65.097656 L 48.140625 65.097656 M 51.460938 71.167969 L 51.308594 71.242188 L 51.308594 71.023438 L 51.460938 71.167969 M 46.101562 72.191406 C 46.351562 72.875 46.804688 73.214844 47.460938 73.214844 C 48.667969 73.214844 49.269531 72.582031 49.269531 71.3125 C 49.472656 70.09375 48.945312 69.484375 47.6875 69.484375 C 46.53125 69.484375 45.949219 70.023438 45.949219 71.09375 L 46.101562 72.191406 M 48.214844 74.3125 C 47.410156 74.3125 47.007812 74.75 47.007812 75.628906 C 47.007812 76.945312 47.5625 77.605469 48.667969 77.605469 C 49.574219 77.605469 50.027344 77.140625 50.027344 76.214844 C 50.027344 74.945312 49.421875 74.3125 48.214844 74.3125 M 59.304688 74.238281 L 59.609375 74.167969 L 60.4375 75.042969 L 58.402344 75.773438 L 58.402344 75.703125 L 59.304688 74.238281 "/>
<path style=" stroke:none;fill-rule:evenodd;fill:rgb(20%,20%,20%);fill-opacity:1;" d="M 70.324219 69.777344 C 70.019531 70.070312 69.265625 70.484375 68.058594 71.023438 L 67.230469 71.3125 L 67.003906 71.386719 L 65.71875 71.898438 L 62.625 72.628906 L 61.945312 72.851562 C 61.542969 73.191406 60.664062 73.386719 59.304688 73.433594 L 58.402344 73.875 L 58.023438 73.726562 L 58.175781 73.582031 L 56.664062 74.09375 L 56.210938 74.019531 L 55.683594 74.09375 L 56.289062 73.875 C 57.796875 72.65625 60.136719 71.679688 63.304688 70.949219 L 64.285156 70.582031 L 71.605469 67.730469 L 72.058594 67.804688 L 72.285156 67.804688 L 72.285156 68.097656 C 71.027344 68.582031 70.398438 69.046875 70.398438 69.484375 L 70.324219 69.777344 M 74.398438 70.144531 L 74.472656 70.144531 L 74.398438 69.996094 L 74.398438 70.144531 M 75.753906 77.894531 L 75.753906 77.824219 C 78.972656 72.460938 80.710938 69.023438 80.960938 67.511719 L 80.960938 67.363281 L 80.886719 67.4375 C 78.167969 69.4375 75.65625 70.851562 73.339844 71.679688 C 72.988281 71.582031 72.8125 71.214844 72.8125 70.582031 L 74.847656 66.632812 L 77.113281 63.488281 L 77.339844 63.34375 L 77.71875 63.414062 L 78.019531 63.5625 L 78.09375 63.414062 C 80.910156 62.976562 82.644531 62.539062 83.300781 62.097656 C 85.3125 62.097656 86.59375 62.511719 87.148438 63.34375 L 88.960938 66.707031 C 89.109375 66.851562 89.3125 67.851562 89.5625 69.707031 L 89.5625 72.777344 L 89.1875 75.628906 L 84.128906 77.824219 L 76.960938 77.894531 L 76.207031 78.480469 L 75.753906 77.894531 M 47.761719 66.414062 L 47.988281 66.195312 L 49.042969 66.269531 L 49.042969 67.070312 L 48.140625 67.070312 L 47.761719 66.414062 M 47.6875 70.4375 C 48.039062 70.730469 48.214844 71.023438 48.214844 71.3125 L 47.460938 72.191406 L 47.007812 71.3125 L 47.6875 70.4375 M 49.042969 75.996094 C 49.042969 76.382812 48.96875 76.554688 48.816406 76.507812 L 48.367188 76.507812 L 47.988281 75.410156 L 48.59375 75.484375 L 49.042969 75.996094 M 109.484375 64.660156 L 110.011719 64.730469 L 110.085938 64.953125 C 103.195312 67.390625 99.75 68.730469 99.75 68.972656 L 99.824219 69.265625 L 100.804688 69.484375 C 102.363281 69.484375 104.402344 68.949219 106.917969 67.875 C 108.375 67.292969 109.40625 66.78125 110.011719 66.339844 L 110.539062 68.023438 C 98.617188 74.554688 91.296875 78.164062 88.582031 78.847656 L 63.304688 79.652344 L 43.234375 79.578125 L 42.480469 79.210938 L 40.894531 78.699219 C 38.882812 78.457031 37.601562 77.894531 37.046875 77.019531 L 36.671875 72.777344 L 36.671875 72.046875 L 36.445312 71.898438 L 36.671875 71.605469 L 37.121094 71.242188 L 38.40625 71.679688 L 44.066406 71.898438 L 44.292969 71.972656 L 44.515625 72.265625 L 44.367188 72.777344 L 44.292969 72.777344 L 44.292969 74.898438 C 44.441406 76.703125 44.769531 77.847656 45.273438 78.335938 L 45.273438 78.699219 C 45.472656 78.894531 45.675781 78.992188 45.875 78.992188 L 65.945312 79.140625 L 84.433594 78.921875 L 85.335938 78.335938 L 87.300781 77.605469 L 88.960938 76.945312 L 89.410156 77.457031 C 89.714844 77.3125 89.964844 76.96875 90.167969 76.433594 L 90.542969 75.847656 L 90.394531 75.335938 L 90.542969 72.777344 L 90.621094 70.363281 L 90.542969 70.363281 L 90.46875 69.777344 L 90.542969 69.777344 L 95.902344 67.070312 L 97.335938 65.828125 C 98.390625 65.046875 99.371094 64.660156 100.277344 64.660156 C 101.03125 64.660156 101.609375 64.976562 102.011719 65.609375 L 103.671875 66.414062 L 105.484375 65.464844 L 109.332031 64.660156 L 109.484375 64.660156 M 119.59375 144.667969 L 119.519531 153.808594 L 118.386719 153.808594 L 116.5 153.589844 C 116.398438 141.304688 115.644531 132.699219 114.234375 127.773438 C 112.726562 122.410156 108.804688 114.246094 102.464844 103.273438 L 102.617188 103.054688 C 100.253906 97.253906 98.945312 92.71875 98.691406 89.453125 L 98.238281 82.429688 L 97.9375 76.359375 L 99.75 75.410156 L 101.710938 74.3125 L 101.558594 76.871094 L 101.863281 82.429688 C 102.71875 91.058594 105.585938 100.496094 110.464844 110.734375 C 114.085938 118.292969 116.121094 123.945312 116.574219 127.699219 L 119.519531 144.667969 L 119.59375 144.667969 M 85.714844 69.484375 L 86.394531 68.902344 L 87.074219 68.902344 L 87.074219 70.144531 L 86.242188 70.144531 L 85.714844 69.925781 L 85.714844 69.484375 M 86.621094 67.730469 C 85.261719 67.730469 84.582031 68.363281 84.582031 69.632812 C 84.582031 70.703125 85.109375 71.242188 86.167969 71.242188 C 87.425781 71.242188 88.054688 70.582031 88.054688 69.265625 C 88.40625 68.242188 87.929688 67.730469 86.621094 67.730469 M 83.902344 63.855469 L 85.488281 64.511719 L 84.582031 65.390625 L 83.527344 65.390625 L 83.527344 65.171875 L 83.902344 63.855469 M 86.394531 64.511719 C 86.09375 63.148438 85.261719 62.464844 83.902344 62.464844 C 83.402344 62.464844 83.023438 62.902344 82.773438 63.78125 L 82.546875 65.097656 L 82.546875 65.828125 C 82.695312 66.269531 83.199219 66.488281 84.054688 66.488281 C 85.613281 66.488281 86.394531 65.828125 86.394531 64.511719 M 41.875 80.238281 L 41.953125 80.238281 L 41.800781 82.429688 C 41.199219 89.597656 40.972656 101.152344 41.121094 117.097656 C 41.222656 124.117188 39.363281 130.40625 35.539062 135.964844 C 32.671875 140.304688 31.238281 146.617188 31.238281 154.90625 L 31.539062 161.707031 L 27.085938 161.855469 C 26.183594 152.835938 28.648438 141.667969 34.480469 128.359375 C 35.4375 126.214844 36.167969 123.433594 36.671875 120.023438 L 37.800781 111.464844 C 38.605469 107.417969 38.933594 104.613281 38.78125 103.054688 L 38.78125 94.425781 L 38.632812 82.429688 L 38.480469 79.140625 L 40.746094 79.796875 L 41.875 80.238281 M 86.921875 72.339844 C 85.664062 72.339844 85.035156 72.851562 85.035156 73.875 L 85.261719 74.75 C 85.5625 75.335938 86.042969 75.628906 86.695312 75.628906 C 87.753906 75.628906 88.28125 75.066406 88.28125 73.945312 C 88.28125 72.875 87.828125 72.339844 86.921875 72.339844 M 86.015625 73.726562 L 86.921875 73.214844 L 87.300781 73.289062 L 87.300781 74.53125 L 86.242188 74.3125 L 86.015625 73.726562 "/>
<path style=" stroke:none;fill-rule:evenodd;fill:rgb(80.000001%,80.000001%,80.000001%);fill-opacity:1;" d="M 57.117188 64.367188 L 57.644531 65.023438 L 56.589844 67.070312 C 55.835938 68.292969 55.433594 69.386719 55.382812 70.363281 L 54.777344 70.4375 L 54.25 70.363281 L 54.101562 69.265625 C 52.992188 70.828125 51.910156 72.09375 50.855469 73.070312 C 50.453125 72.777344 50.25 72.191406 50.25 71.3125 C 50.25 67.949219 50.527344 65.707031 51.082031 64.585938 L 51.234375 64.367188 L 51.382812 64.074219 L 51.535156 64.21875 L 51.609375 64.148438 L 52.289062 64.074219 L 53.875 64.367188 L 56.96875 64.367188 L 56.96875 64.292969 L 57.117188 64.367188 M 51.15625 67.65625 L 51.082031 69.046875 L 51.308594 70.582031 L 51.683594 70.582031 C 51.785156 70.582031 51.910156 70.507812 52.0625 70.363281 L 52.289062 67.070312 L 52.289062 66.851562 L 52.515625 65.535156 L 52.0625 64.878906 C 51.308594 65.414062 50.929688 66.171875 50.929688 67.144531 L 51.15625 67.65625 M 51.460938 71.167969 L 51.308594 71.023438 L 51.308594 71.242188 L 51.460938 71.167969 "/>
<path style=" stroke:none;fill-rule:evenodd;fill:rgb(100%,100%,100%);fill-opacity:1;" d="M 51.15625 67.65625 L 50.929688 67.144531 C 50.929688 66.171875 51.308594 65.414062 52.0625 64.878906 L 52.515625 65.535156 L 52.289062 66.851562 L 52.289062 67.070312 L 52.0625 70.363281 C 51.910156 70.507812 51.785156 70.582031 51.683594 70.582031 L 51.308594 70.582031 L 51.082031 69.046875 L 51.15625 67.65625 "/>
</g>
</svg>
