<?xml version="1.0" encoding="UTF-8"?>
<svg xmlns="http://www.w3.org/2000/svg" xmlns:xlink="http://www.w3.org/1999/xlink" width="154px" height="180px" viewBox="0 0 154 180" version="1.1">
<g id="surface1">
<path style=" stroke:none;fill-rule:evenodd;fill:rgb(0%,0%,0%);fill-opacity:1;" d="M 73.339844 79.652344 L 74.472656 80.238281 L 75 80.015625 L 75.152344 79.578125 L 88.734375 78.847656 C 91.449219 78.164062 98.769531 74.554688 110.691406 68.023438 L 110.160156 66.339844 C 109.558594 66.78125 108.527344 67.292969 107.066406 67.875 C 104.554688 68.949219 102.515625 69.484375 100.957031 69.484375 L 99.976562 69.265625 L 99.898438 68.972656 C 99.898438 68.730469 103.347656 67.390625 110.238281 64.953125 L 110.160156 64.730469 L 109.632812 64.660156 L 109.03125 63.050781 L 107.371094 63.636719 C 105.910156 64.171875 104.929688 64.4375 104.425781 64.4375 C 103.523438 64.4375 102.992188 64.21875 102.84375 63.78125 C 105.257812 63.441406 107.21875 62.953125 108.726562 62.320312 L 108.578125 62.027344 L 108.425781 61.515625 L 108.199219 61.148438 C 108.097656 60.855469 107.519531 60.710938 106.464844 60.710938 L 81.1875 60.34375 L 77.265625 60.710938 L 76.8125 60.488281 L 76.433594 60.78125 L 74.472656 60.929688 L 57.195312 61.804688 L 44.292969 61.585938 L 43.613281 61.148438 L 40.667969 60.488281 L 36.746094 61.148438 L 36.519531 66.121094 L 36.820312 71.605469 L 36.59375 71.898438 L 36.820312 72.046875 L 36.820312 72.777344 L 37.199219 77.019531 C 37.75 77.894531 39.035156 78.457031 41.046875 78.699219 L 42.632812 79.210938 L 43.386719 79.578125 L 63.457031 79.652344 L 73.339844 79.652344 M 76.132812 62.976562 L 76.886719 62.902344 L 79.074219 62.246094 L 82.773438 61.367188 L 83.074219 61.367188 L 84.886719 60.710938 C 88.507812 60.710938 90.441406 63.730469 90.695312 69.777344 L 90.621094 69.777344 L 90.695312 70.363281 L 90.769531 70.363281 L 90.695312 72.777344 L 90.542969 75.335938 L 90.695312 75.847656 L 90.316406 76.433594 C 90.117188 76.96875 89.863281 77.3125 89.5625 77.457031 C 89.3125 77.410156 89.160156 77.238281 89.109375 76.945312 L 87.449219 77.605469 L 85.488281 78.335938 L 84.582031 78.921875 L 74.320312 79.066406 L 73.492188 78.628906 L 72.886719 79.066406 L 66.097656 79.140625 L 46.027344 78.992188 C 45.824219 78.992188 45.625 78.894531 45.421875 78.699219 L 45.421875 78.335938 C 44.917969 77.847656 44.59375 76.703125 44.441406 74.898438 L 44.441406 72.777344 L 44.515625 72.777344 L 44.667969 72.265625 C 44.667969 72.070312 44.59375 71.972656 44.441406 71.972656 L 44.441406 71.023438 C 44.441406 66.730469 45.046875 64.246094 46.253906 63.5625 L 46.78125 63.121094 L 75.453125 62.976562 L 75.527344 62.976562 L 75.832031 63.050781 L 76.132812 62.976562 M 78.019531 59.394531 L 106.691406 59.6875 L 108.953125 60.050781 L 109.257812 60.417969 L 109.332031 60.417969 L 109.40625 60.636719 L 109.632812 60.929688 L 109.558594 61.074219 L 111.671875 66.632812 L 111.671875 69.484375 L 111.21875 69.707031 L 110.992188 68.828125 C 109.933594 69.707031 106.238281 71.898438 99.898438 75.410156 C 95.976562 77.410156 93.710938 78.457031 93.109375 78.554688 L 89.109375 79.796875 L 85.261719 80.457031 L 83.601562 80.675781 L 63.378906 80.75 L 43.082031 80.457031 L 42.027344 80.238281 L 40.894531 79.796875 C 39.335938 79.457031 38.105469 79.019531 37.199219 78.480469 C 36.292969 77.945312 35.839844 76.773438 35.839844 74.972656 L 35.613281 67.949219 L 35.6875 65.902344 L 35.464844 63.34375 L 35.464844 61.148438 C 35.867188 60.027344 37.046875 59.464844 39.007812 59.464844 L 42.859375 60.125 L 57.34375 60.78125 L 77.867188 59.464844 L 78.019531 59.394531 M 104.503906 53.324219 L 104.199219 53.394531 L 104.351562 53.324219 L 104.503906 53.324219 M 70.097656 64.074219 L 57.269531 64.367188 L 57.117188 64.292969 L 57.117188 64.367188 L 54.023438 64.367188 L 52.441406 64.074219 L 51.761719 64.148438 L 51.683594 64.074219 L 51.683594 64.21875 L 51.535156 64.074219 L 51.382812 64.367188 L 47.234375 64.292969 L 46.933594 64.511719 C 46.328125 65.144531 45.875 66.097656 45.574219 67.363281 L 45.574219 71.023438 C 45.574219 74.191406 45.824219 76.410156 46.328125 77.675781 L 46.480469 78.042969 L 71.605469 77.894531 L 71.605469 78.117188 L 72.207031 78.261719 L 72.738281 77.894531 L 75.90625 77.894531 L 76.359375 78.480469 L 77.113281 77.894531 L 84.28125 77.824219 L 89.335938 75.628906 L 89.714844 72.777344 L 89.714844 69.707031 L 89.109375 66.707031 L 87.300781 63.34375 C 86.746094 62.511719 85.464844 62.097656 83.453125 62.097656 C 82.796875 62.539062 81.0625 62.976562 78.246094 63.414062 L 77.867188 63.414062 L 77.492188 63.34375 L 77.265625 63.488281 L 70.925781 64 L 70.324219 63.855469 L 70.097656 64.074219 M 71.304688 75.191406 L 70.625 75.484375 C 69.066406 76.261719 67.101562 76.652344 64.738281 76.652344 C 63.429688 76.652344 62.300781 76.335938 61.34375 75.703125 C 58.726562 76.628906 56.765625 77.089844 55.457031 77.089844 L 53.496094 76.945312 L 53.421875 76.945312 L 52.894531 76.800781 L 59.683594 73.945312 C 59.128906 73.070312 58.851562 72.289062 58.851562 71.605469 C 58.851562 68.339844 61.015625 66.316406 65.34375 65.535156 L 65.871094 65.609375 L 65.945312 66.046875 L 64.738281 67.363281 C 63.882812 68 63.457031 68.730469 63.457031 69.558594 C 63.457031 70.289062 63.683594 70.925781 64.136719 71.460938 L 64.4375 71.824219 L 65.039062 71.605469 L 65.039062 71.753906 L 68.4375 70.289062 L 68.210938 70.289062 L 68.359375 70.21875 L 68.738281 70.070312 C 70.195312 69.972656 71.128906 69.632812 71.53125 69.046875 L 74.246094 67.949219 L 79.226562 66.046875 L 79.601562 65.753906 L 79.828125 65.609375 L 79.980469 66.046875 L 79.980469 66.195312 C 79.878906 66.828125 79.125 67.632812 77.71875 68.609375 L 76.058594 69.558594 L 73.039062 71.242188 L 71.679688 71.753906 L 71.453125 71.753906 L 70.625 72.117188 L 70.546875 72.117188 L 68.4375 72.921875 L 67.984375 73.140625 L 68.4375 73.140625 L 70.171875 73.214844 L 72.058594 72.703125 L 72.738281 73.214844 C 72.738281 73.898438 72.257812 74.554688 71.304688 75.191406 M 62.703125 67.511719 L 62.550781 67.585938 C 61.292969 67.585938 60.363281 68.925781 59.757812 71.605469 C 59.757812 72.191406 60.035156 72.851562 60.589844 73.582031 L 63.457031 72.410156 C 62.800781 71.582031 62.476562 70.507812 62.476562 69.191406 L 62.703125 67.511719 M 68.4375 74.3125 L 65.796875 73.875 L 65.492188 74.09375 L 63.757812 74.824219 L 62.625 75.261719 C 63.28125 75.554688 64.007812 75.703125 64.8125 75.703125 L 68.585938 74.824219 L 69.945312 74.457031 L 70.546875 74.238281 L 70.246094 74.3125 L 68.4375 74.3125 M 65.117188 73.433594 L 65.570312 73.214844 L 66.550781 72.851562 L 67.53125 72.410156 L 69.71875 71.605469 L 71.304688 71.09375 L 71.832031 70.800781 L 73.113281 70.144531 L 77.867188 67.070312 L 73.792969 68.753906 C 72.835938 69.144531 72.007812 69.484375 71.304688 69.777344 L 70.097656 70.289062 L 69.191406 70.65625 L 67.152344 71.460938 C 67.101562 71.507812 66.449219 71.777344 65.191406 72.265625 L 65.117188 72.339844 L 65.039062 72.339844 L 64.664062 72.558594 L 63.910156 72.851562 L 63.15625 73.140625 L 60.964844 74.019531 L 59.984375 74.386719 L 53.496094 76.945312 C 55.308594 76.847656 57.695312 76.261719 60.664062 75.191406 L 61.796875 74.75 L 62.550781 74.457031 L 63.457031 74.09375 L 64.890625 73.507812 L 65.117188 73.433594 M 65.492188 75.484375 L 65.417969 75.410156 L 65.492188 75.484375 M 48.289062 65.097656 L 48.367188 65.097656 C 49.824219 64.855469 50.429688 65.414062 50.175781 66.78125 C 50.175781 67.707031 49.699219 68.167969 48.742188 68.167969 C 47.785156 68.167969 47.183594 67.902344 46.933594 67.363281 L 46.933594 66.488281 C 46.933594 65.464844 47.382812 65 48.289062 65.097656 M 48.289062 67.070312 L 49.195312 67.070312 L 49.195312 66.269531 L 48.140625 66.195312 L 47.914062 66.414062 L 48.289062 67.070312 M 47.835938 70.4375 L 47.160156 71.3125 L 47.609375 72.191406 L 48.367188 71.3125 C 48.367188 71.023438 48.1875 70.730469 47.835938 70.4375 M 46.253906 72.191406 L 46.101562 71.09375 C 46.101562 70.023438 46.679688 69.484375 47.835938 69.484375 C 49.09375 69.484375 49.625 70.09375 49.421875 71.3125 C 49.421875 72.582031 48.816406 73.214844 47.609375 73.214844 C 46.957031 73.214844 46.503906 72.875 46.253906 72.191406 M 48.96875 76.507812 C 49.121094 76.554688 49.195312 76.382812 49.195312 75.996094 L 48.742188 75.484375 L 48.140625 75.410156 L 48.515625 76.507812 L 48.96875 76.507812 M 47.160156 75.628906 C 47.160156 74.75 47.5625 74.3125 48.367188 74.3125 C 49.574219 74.3125 50.175781 74.945312 50.175781 76.214844 C 50.175781 77.140625 49.722656 77.605469 48.816406 77.605469 C 47.710938 77.605469 47.160156 76.945312 47.160156 75.628906 M 84.054688 63.855469 L 83.675781 65.171875 L 83.675781 65.390625 L 84.734375 65.390625 L 85.640625 64.511719 L 84.054688 63.855469 M 86.542969 64.511719 C 86.542969 65.828125 85.765625 66.488281 84.207031 66.488281 C 83.351562 66.488281 82.847656 66.269531 82.695312 65.828125 L 82.695312 65.097656 L 82.921875 63.78125 C 83.175781 62.902344 83.550781 62.464844 84.054688 62.464844 C 85.414062 62.464844 86.242188 63.148438 86.542969 64.511719 M 85.867188 69.484375 L 85.867188 69.925781 L 86.394531 70.144531 L 87.222656 70.144531 L 87.222656 68.902344 L 86.542969 68.902344 L 85.867188 69.484375 M 86.769531 67.730469 C 88.078125 67.730469 88.558594 68.242188 88.203125 69.265625 C 88.203125 70.582031 87.574219 71.242188 86.320312 71.242188 C 85.261719 71.242188 84.734375 70.703125 84.734375 69.632812 C 84.734375 68.363281 85.414062 67.730469 86.769531 67.730469 M 86.167969 73.726562 L 86.394531 74.3125 L 87.449219 74.53125 L 87.449219 73.289062 L 87.074219 73.214844 L 86.167969 73.726562 M 87.074219 72.339844 C 87.976562 72.339844 88.429688 72.875 88.429688 73.945312 C 88.429688 75.066406 87.902344 75.628906 86.847656 75.628906 C 86.191406 75.628906 85.714844 75.335938 85.414062 74.75 L 85.1875 73.875 C 85.1875 72.851562 85.816406 72.339844 87.074219 72.339844 "/>
<path style=" stroke:none;fill-rule:evenodd;fill:rgb(16.078432%,19.215687%,26.666668%);fill-opacity:1;" d="M 73.339844 79.652344 L 63.457031 79.652344 L 43.386719 79.578125 L 42.632812 79.210938 L 41.046875 78.699219 C 39.035156 78.457031 37.75 77.894531 37.199219 77.019531 L 36.820312 72.777344 L 36.820312 72.046875 L 36.59375 71.898438 L 36.820312 71.605469 L 36.519531 66.121094 L 36.746094 61.148438 L 40.667969 60.488281 L 43.613281 61.148438 L 44.292969 61.585938 L 57.195312 61.804688 L 74.472656 60.929688 L 76.433594 60.78125 L 76.8125 60.488281 L 77.265625 60.710938 L 77.492188 60.855469 C 77.589844 60.613281 77.640625 60.683594 77.640625 61.074219 C 77.640625 61.367188 77.390625 61.78125 76.886719 62.320312 L 76.132812 62.976562 L 75.832031 63.050781 L 75.527344 62.976562 L 75.378906 62.902344 L 75.453125 62.976562 L 46.78125 63.121094 L 46.253906 63.5625 C 45.046875 64.246094 44.441406 66.730469 44.441406 71.023438 L 44.441406 71.972656 C 44.59375 71.972656 44.667969 72.070312 44.667969 72.265625 L 44.515625 72.777344 L 44.441406 72.777344 L 44.441406 74.898438 C 44.59375 76.703125 44.917969 77.847656 45.421875 78.335938 L 45.421875 78.699219 C 45.625 78.894531 45.824219 78.992188 46.027344 78.992188 L 66.097656 79.140625 L 72.886719 79.066406 L 72.738281 79.285156 L 73.339844 79.652344 "/>
<path style=" stroke:none;fill-rule:evenodd;fill:rgb(7.450981%,10.588235%,15.686275%);fill-opacity:1;" d="M 77.265625 60.710938 L 81.1875 60.34375 L 106.464844 60.710938 C 107.519531 60.710938 108.097656 60.855469 108.199219 61.148438 L 108.425781 61.515625 L 108.578125 62.027344 L 108.726562 62.320312 C 107.21875 62.953125 105.257812 63.441406 102.84375 63.78125 C 102.992188 64.21875 103.523438 64.4375 104.425781 64.4375 C 104.929688 64.4375 105.910156 64.171875 107.371094 63.636719 L 109.03125 63.050781 L 109.632812 64.660156 L 110.160156 64.730469 L 110.238281 64.953125 C 103.347656 67.390625 99.898438 68.730469 99.898438 68.972656 L 99.976562 69.265625 L 100.957031 69.484375 C 102.515625 69.484375 104.554688 68.949219 107.066406 67.875 C 108.527344 67.292969 109.558594 66.78125 110.160156 66.339844 L 110.691406 68.023438 C 98.769531 74.554688 91.449219 78.164062 88.734375 78.847656 L 75.152344 79.578125 L 75 80.015625 L 74.472656 80.238281 L 73.339844 79.652344 L 72.738281 79.285156 L 72.886719 79.066406 L 73.492188 78.628906 L 74.320312 79.066406 L 84.582031 78.921875 L 85.488281 78.335938 L 87.449219 77.605469 L 89.109375 76.945312 C 89.160156 77.238281 89.3125 77.410156 89.5625 77.457031 C 89.863281 77.3125 90.117188 76.96875 90.316406 76.433594 L 90.695312 75.847656 L 90.542969 75.335938 L 90.695312 72.777344 L 90.769531 70.363281 L 90.695312 70.363281 L 90.621094 69.777344 L 90.695312 69.777344 C 90.441406 63.730469 88.507812 60.710938 84.886719 60.710938 L 83.074219 61.367188 L 82.773438 61.367188 L 79.074219 62.246094 L 76.886719 62.902344 L 76.132812 62.976562 L 76.886719 62.320312 C 77.390625 61.78125 77.640625 61.367188 77.640625 61.074219 C 77.640625 60.683594 77.589844 60.613281 77.492188 60.855469 L 77.265625 60.710938 M 75.453125 62.976562 L 75.378906 62.902344 L 75.527344 62.976562 L 75.453125 62.976562 M 109.632812 64.660156 L 109.484375 64.660156 L 109.632812 64.660156 "/>
<path style=" stroke:none;fill-rule:evenodd;fill:rgb(60.000002%,60.000002%,60.000002%);fill-opacity:1;" d="M 70.097656 64.074219 L 69.039062 65.171875 L 69.191406 65.464844 L 68.285156 66.558594 L 67.457031 67.21875 L 66.777344 68.316406 L 66.925781 68.386719 L 64.964844 70.363281 L 64.136719 71.460938 C 63.683594 70.925781 63.457031 70.289062 63.457031 69.558594 C 63.457031 68.730469 63.882812 68 64.738281 67.363281 L 65.945312 66.046875 L 65.871094 65.609375 L 65.34375 65.535156 C 61.015625 66.316406 58.851562 68.339844 58.851562 71.605469 C 58.851562 72.289062 59.128906 73.070312 59.683594 73.945312 L 52.894531 76.800781 L 53.421875 76.945312 L 53.496094 76.945312 L 55.457031 77.089844 C 56.765625 77.089844 58.726562 76.628906 61.34375 75.703125 C 62.300781 76.335938 63.429688 76.652344 64.738281 76.652344 C 67.101562 76.652344 69.066406 76.261719 70.625 75.484375 L 71.304688 75.191406 L 71.226562 75.628906 L 72.8125 75.847656 L 72.738281 76.066406 C 72.738281 76.164062 72.359375 76.703125 71.605469 77.675781 L 71.605469 77.894531 L 46.480469 78.042969 L 46.328125 77.675781 C 45.824219 76.410156 45.574219 74.191406 45.574219 71.023438 L 45.574219 67.363281 C 45.875 66.097656 46.328125 65.144531 46.933594 64.511719 L 47.234375 64.292969 L 51.382812 64.367188 L 51.234375 64.585938 C 50.679688 65.707031 50.402344 67.949219 50.402344 71.3125 C 50.402344 72.191406 50.605469 72.777344 51.007812 73.070312 C 52.0625 72.09375 53.144531 70.828125 54.25 69.265625 L 54.402344 70.363281 L 54.929688 70.4375 L 55.535156 70.363281 C 55.582031 69.386719 55.984375 68.292969 56.742188 67.070312 L 57.796875 65.023438 L 57.269531 64.367188 L 70.097656 64.074219 M 68.585938 74.824219 L 64.8125 75.703125 C 64.007812 75.703125 63.28125 75.554688 62.625 75.261719 L 63.757812 74.824219 L 65.492188 74.09375 L 65.796875 73.875 L 68.4375 74.3125 L 68.4375 74.386719 L 68.585938 74.824219 M 62.703125 67.511719 L 62.476562 69.191406 C 62.476562 70.507812 62.800781 71.582031 63.457031 72.410156 L 60.589844 73.582031 C 60.035156 72.851562 59.757812 72.191406 59.757812 71.605469 C 60.363281 68.925781 61.292969 67.585938 62.550781 67.585938 L 62.703125 67.511719 M 70.246094 74.3125 L 70.546875 74.238281 L 69.945312 74.457031 L 70.246094 74.3125 M 65.492188 75.484375 L 65.417969 75.410156 L 65.492188 75.484375 M 68.4375 72.921875 L 68.4375 73.140625 L 67.984375 73.140625 L 68.4375 72.921875 M 51.761719 64.148438 L 51.683594 64.21875 L 51.683594 64.074219 L 51.761719 64.148438 M 48.289062 65.097656 C 47.382812 65 46.933594 65.464844 46.933594 66.488281 L 46.933594 67.363281 C 47.183594 67.902344 47.785156 68.167969 48.742188 68.167969 C 49.699219 68.167969 50.175781 67.707031 50.175781 66.78125 C 50.429688 65.414062 49.824219 64.855469 48.367188 65.097656 L 48.289062 65.097656 M 51.609375 71.167969 L 51.460938 71.242188 L 51.460938 71.023438 L 51.609375 71.167969 M 46.253906 72.191406 C 46.503906 72.875 46.957031 73.214844 47.609375 73.214844 C 48.816406 73.214844 49.421875 72.582031 49.421875 71.3125 C 49.625 70.09375 49.09375 69.484375 47.835938 69.484375 C 46.679688 69.484375 46.101562 70.023438 46.101562 71.09375 L 46.253906 72.191406 M 47.160156 75.628906 C 47.160156 76.945312 47.710938 77.605469 48.816406 77.605469 C 49.722656 77.605469 50.175781 77.140625 50.175781 76.214844 C 50.175781 74.945312 49.574219 74.3125 48.367188 74.3125 C 47.5625 74.3125 47.160156 74.75 47.160156 75.628906 "/>
<path style=" stroke:none;fill-rule:evenodd;fill:rgb(40.000001%,40.000001%,40.000001%);fill-opacity:1;" d="M 64.136719 71.460938 L 64.964844 70.363281 L 66.925781 68.386719 L 66.777344 68.316406 L 67.457031 67.21875 L 68.285156 66.558594 L 69.191406 65.464844 L 69.039062 65.171875 L 70.097656 64.074219 L 70.324219 63.855469 L 70.925781 64 L 77.265625 63.488281 L 75 66.632812 L 74.246094 67.949219 L 71.53125 69.046875 C 71.128906 69.632812 70.195312 69.972656 68.738281 70.070312 L 68.359375 70.21875 L 68.210938 70.289062 L 68.4375 70.289062 L 65.039062 71.753906 L 65.039062 71.605469 L 64.4375 71.824219 L 64.136719 71.460938 M 71.605469 77.894531 L 71.605469 77.675781 C 72.359375 76.703125 72.738281 76.164062 72.738281 76.066406 L 72.8125 75.847656 L 71.226562 75.628906 L 71.304688 75.191406 C 72.257812 74.554688 72.738281 73.898438 72.738281 73.214844 L 72.058594 72.703125 L 70.171875 73.214844 L 68.4375 73.140625 L 68.4375 72.921875 L 70.546875 72.117188 L 70.625 72.117188 L 71.453125 71.753906 L 71.679688 71.753906 L 73.039062 71.242188 L 73.492188 71.679688 C 75.804688 70.851562 78.320312 69.4375 81.035156 67.4375 L 81.113281 67.363281 L 81.113281 67.511719 C 80.859375 69.023438 79.125 72.460938 75.90625 77.824219 L 75.90625 77.894531 L 72.738281 77.894531 L 72.207031 78.261719 L 71.605469 78.117188 L 71.605469 77.894531 M 68.585938 74.824219 L 68.4375 74.386719 L 68.4375 74.3125 L 70.246094 74.3125 L 69.945312 74.457031 L 68.585938 74.824219 M 78.246094 63.414062 L 78.167969 63.5625 L 77.867188 63.414062 L 78.246094 63.414062 "/>
<path style=" stroke:none;fill-rule:evenodd;fill:rgb(20%,20%,20%);fill-opacity:1;" d="M 74.246094 67.949219 L 75 66.632812 L 77.265625 63.488281 L 77.492188 63.34375 L 77.867188 63.414062 L 78.167969 63.5625 L 78.246094 63.414062 C 81.0625 62.976562 82.796875 62.539062 83.453125 62.097656 C 85.464844 62.097656 86.746094 62.511719 87.300781 63.34375 L 89.109375 66.707031 L 89.714844 69.707031 L 89.714844 72.777344 L 89.335938 75.628906 L 84.28125 77.824219 L 77.113281 77.894531 L 76.359375 78.480469 L 75.90625 77.894531 L 75.90625 77.824219 C 79.125 72.460938 80.859375 69.023438 81.113281 67.511719 L 81.113281 67.363281 L 81.035156 67.4375 C 78.320312 69.4375 75.804688 70.851562 73.492188 71.679688 L 73.039062 71.242188 L 76.058594 69.558594 L 77.71875 68.609375 C 79.125 67.632812 79.878906 66.828125 79.980469 66.195312 L 79.980469 66.046875 L 79.828125 65.609375 L 79.601562 65.753906 L 79.226562 66.046875 L 74.246094 67.949219 M 65.117188 73.433594 L 64.890625 73.507812 L 63.457031 74.09375 L 62.550781 74.457031 L 61.796875 74.75 L 60.664062 75.191406 C 57.695312 76.261719 55.308594 76.847656 53.496094 76.945312 L 59.984375 74.386719 L 60.964844 74.019531 L 63.15625 73.140625 L 63.910156 72.851562 L 64.664062 72.558594 L 65.039062 72.339844 L 65.117188 72.339844 L 65.191406 72.265625 C 66.449219 71.777344 67.101562 71.507812 67.152344 71.460938 L 69.191406 70.65625 L 70.097656 70.289062 L 71.304688 69.777344 C 72.007812 69.484375 72.835938 69.144531 73.792969 68.753906 L 77.867188 67.070312 L 73.113281 70.144531 L 71.832031 70.800781 L 71.304688 71.09375 L 69.71875 71.605469 L 67.53125 72.410156 L 66.550781 72.851562 L 65.570312 73.214844 L 65.117188 73.433594 M 48.289062 67.070312 L 47.914062 66.414062 L 48.140625 66.195312 L 49.195312 66.269531 L 49.195312 67.070312 L 48.289062 67.070312 M 47.835938 70.4375 C 48.1875 70.730469 48.367188 71.023438 48.367188 71.3125 L 47.609375 72.191406 L 47.160156 71.3125 L 47.835938 70.4375 M 48.96875 76.507812 L 48.515625 76.507812 L 48.140625 75.410156 L 48.742188 75.484375 L 49.195312 75.996094 C 49.195312 76.382812 49.121094 76.554688 48.96875 76.507812 M 86.769531 67.730469 C 85.414062 67.730469 84.734375 68.363281 84.734375 69.632812 C 84.734375 70.703125 85.261719 71.242188 86.320312 71.242188 C 87.574219 71.242188 88.203125 70.582031 88.203125 69.265625 C 88.558594 68.242188 88.078125 67.730469 86.769531 67.730469 M 85.867188 69.484375 L 86.542969 68.902344 L 87.222656 68.902344 L 87.222656 70.144531 L 86.394531 70.144531 L 85.867188 69.925781 L 85.867188 69.484375 M 86.542969 64.511719 C 86.242188 63.148438 85.414062 62.464844 84.054688 62.464844 C 83.550781 62.464844 83.175781 62.902344 82.921875 63.78125 L 82.695312 65.097656 L 82.695312 65.828125 C 82.847656 66.269531 83.351562 66.488281 84.207031 66.488281 C 85.765625 66.488281 86.542969 65.828125 86.542969 64.511719 M 84.054688 63.855469 L 85.640625 64.511719 L 84.734375 65.390625 L 83.675781 65.390625 L 83.675781 65.171875 L 84.054688 63.855469 M 87.074219 72.339844 C 85.816406 72.339844 85.1875 72.851562 85.1875 73.875 L 85.414062 74.75 C 85.714844 75.335938 86.191406 75.628906 86.847656 75.628906 C 87.902344 75.628906 88.429688 75.066406 88.429688 73.945312 C 88.429688 72.875 87.976562 72.339844 87.074219 72.339844 M 86.167969 73.726562 L 87.074219 73.214844 L 87.449219 73.289062 L 87.449219 74.53125 L 86.394531 74.3125 L 86.167969 73.726562 "/>
<path style=" stroke:none;fill-rule:evenodd;fill:rgb(80.000001%,80.000001%,80.000001%);fill-opacity:1;" d="M 57.269531 64.367188 L 57.796875 65.023438 L 56.742188 67.070312 C 55.984375 68.292969 55.582031 69.386719 55.535156 70.363281 L 54.929688 70.4375 L 54.402344 70.363281 L 54.25 69.265625 C 53.144531 70.828125 52.0625 72.09375 51.007812 73.070312 C 50.605469 72.777344 50.402344 72.191406 50.402344 71.3125 C 50.402344 67.949219 50.679688 65.707031 51.234375 64.585938 L 51.382812 64.367188 L 51.535156 64.074219 L 51.683594 64.21875 L 51.761719 64.148438 L 52.441406 64.074219 L 54.023438 64.367188 L 57.117188 64.367188 L 57.117188 64.292969 L 57.269531 64.367188 M 52.441406 66.851562 L 52.667969 65.535156 L 52.214844 64.878906 C 51.460938 65.414062 51.082031 66.171875 51.082031 67.144531 L 51.308594 67.65625 L 51.234375 69.046875 L 51.460938 70.582031 L 51.835938 70.582031 L 52.214844 70.363281 L 52.441406 67.070312 L 52.441406 66.851562 M 51.609375 71.167969 L 51.460938 71.023438 L 51.460938 71.242188 L 51.609375 71.167969 "/>
<path style=" stroke:none;fill-rule:evenodd;fill:rgb(100%,100%,100%);fill-opacity:1;" d="M 52.441406 66.851562 L 52.441406 67.070312 L 52.214844 70.363281 L 51.835938 70.582031 L 51.460938 70.582031 L 51.234375 69.046875 L 51.308594 67.65625 L 51.082031 67.144531 C 51.082031 66.171875 51.460938 65.414062 52.214844 64.878906 L 52.667969 65.535156 L 52.441406 66.851562 "/>
</g>
</svg>
