<?xml version="1.0" encoding="UTF-8"?>
<svg xmlns="http://www.w3.org/2000/svg" xmlns:xlink="http://www.w3.org/1999/xlink" width="154px" height="180px" viewBox="0 0 154 180" version="1.1">
<g id="surface1">
<path style=" stroke:none;fill-rule:evenodd;fill:rgb(0%,0%,0%);fill-opacity:1;" d="M 86.542969 60.417969 L 84.734375 60.488281 L 74.773438 60.929688 L 74.320312 60.488281 L 73.566406 61.003906 L 57.042969 61.804688 L 44.140625 61.585938 L 43.460938 61.148438 L 40.519531 60.488281 L 36.59375 61.148438 L 36.367188 66.121094 L 36.671875 71.605469 L 36.445312 71.898438 L 36.671875 72.046875 L 36.671875 72.777344 L 37.046875 77.019531 C 37.601562 77.894531 38.882812 78.457031 40.894531 78.699219 L 42.480469 79.210938 L 43.234375 79.578125 L 63.304688 79.652344 L 68.4375 79.652344 L 68.4375 79.796875 L 68.511719 80.164062 L 68.4375 80.164062 L 68.585938 80.238281 C 69.945312 80.871094 71.628906 82.40625 73.640625 84.84375 L 78.925781 91.058594 C 81.640625 93.15625 85.589844 94.59375 90.769531 95.375 C 92.78125 95.714844 94.96875 96.398438 97.335938 97.421875 L 102.011719 98.375 C 102.164062 99.054688 102.414062 99.398438 102.765625 99.398438 C 103.019531 99.398438 103.195312 99.203125 103.296875 98.8125 L 104.125 99.398438 C 104.578125 99.300781 104.957031 98.960938 105.257812 98.375 L 105.710938 96.984375 L 106.765625 94.277344 L 105.9375 92.085938 L 105.785156 92.085938 C 105.132812 92.085938 102.640625 90.71875 98.316406 87.988281 L 94.242188 86.453125 L 92.65625 85.792969 L 91.675781 84.84375 L 93.710938 84.84375 L 99.671875 87.257812 C 100.429688 87.550781 101.785156 88.304688 103.75 89.523438 L 106.464844 91.351562 C 106.867188 91.351562 107.21875 91.644531 107.519531 92.230469 L 111.445312 85.792969 C 111.546875 85.941406 111.671875 86.015625 111.820312 86.015625 C 112.222656 86.015625 112.425781 85.722656 112.425781 85.136719 L 112.273438 84.40625 L 113.40625 82.648438 L 112.953125 81.625 L 112.800781 81.699219 L 112.351562 81.113281 L 111.066406 80.382812 C 110.765625 79.699219 110.488281 79.359375 110.238281 79.359375 L 110.011719 79.433594 L 110.464844 79.066406 L 112.125 79.433594 C 112.171875 78.601562 112.578125 77.605469 113.332031 76.433594 L 113.558594 76.140625 L 113.480469 75.773438 L 113.785156 73.945312 L 112.125 71.679688 L 111.972656 71.605469 C 111.519531 70.828125 111.066406 70.4375 110.613281 70.4375 L 110.238281 70.507812 L 110.011719 69.777344 C 110.011719 69.386719 110.210938 69.191406 110.613281 69.191406 C 111.066406 69.191406 111.570312 69.414062 112.125 69.851562 L 111.519531 68.242188 L 111.671875 67.804688 L 111.367188 67.511719 L 110.765625 65.535156 L 110.765625 62.464844 C 110.765625 61.976562 110.488281 61.417969 109.933594 60.78125 C 109.230469 60.003906 108.425781 59.613281 107.519531 59.613281 L 104.125 60.34375 L 99.070312 61.003906 L 96.128906 60.855469 L 94.84375 60.5625 L 89.261719 60.488281 L 87.148438 60.050781 L 86.542969 60.199219 L 86.542969 60.417969 M 84.734375 60.710938 L 87.148438 61.292969 C 89.210938 62.414062 90.34375 65.242188 90.542969 69.777344 L 90.46875 69.777344 L 90.542969 70.363281 L 90.621094 70.363281 L 90.542969 72.777344 L 90.394531 75.335938 L 90.542969 75.847656 L 90.167969 76.433594 L 90.015625 76.800781 C 89.863281 76.605469 89.664062 76.507812 89.410156 76.507812 L 88.882812 76.945312 L 87.300781 77.605469 L 85.335938 78.335938 L 84.433594 78.921875 L 84.28125 78.921875 L 84.128906 78.847656 L 83.902344 78.921875 L 70.472656 79.140625 C 70.273438 78.945312 70.046875 78.847656 69.792969 78.847656 L 68.738281 79.140625 L 65.945312 79.140625 L 45.875 78.992188 C 45.675781 78.992188 45.472656 78.894531 45.273438 78.699219 L 45.273438 78.335938 C 44.769531 77.847656 44.441406 76.703125 44.292969 74.898438 L 44.292969 72.777344 L 44.367188 72.777344 L 44.515625 72.265625 L 44.292969 71.972656 L 44.292969 71.023438 C 44.292969 66.730469 44.894531 64.246094 46.101562 63.5625 L 46.628906 63.121094 L 71.679688 62.976562 L 71.832031 63.34375 L 72.433594 63.488281 C 72.789062 63.488281 73.214844 63.316406 73.71875 62.976562 L 76.734375 62.902344 L 78.925781 62.246094 L 82.621094 61.367188 L 82.921875 61.367188 L 84.734375 60.710938 M 77.867188 59.394531 L 92.957031 59.539062 C 92.957031 59.101562 93.308594 58.882812 94.015625 58.882812 L 95.148438 59.613281 L 95.976562 59.613281 L 95.976562 59.832031 L 96.65625 59.832031 L 103.671875 59.171875 L 107.597656 58.515625 C 109.960938 58.515625 111.367188 59.441406 111.820312 61.292969 L 111.972656 64.730469 L 114.011719 70.507812 L 115.445312 72.046875 L 115.746094 74.019531 C 115.746094 74.703125 115.394531 75.773438 114.6875 77.238281 L 114.613281 77.605469 L 114.160156 80.527344 L 114.460938 81.480469 L 114.539062 82.285156 L 114.613281 82.503906 L 114.539062 82.941406 L 114.539062 83.308594 C 114.539062 83.796875 114.285156 84.671875 113.785156 85.941406 C 113.230469 87.453125 112.652344 88.378906 112.046875 88.71875 L 111.820312 88.648438 C 110.0625 92.011719 108.753906 93.691406 107.898438 93.691406 L 107.972656 94.132812 C 107.972656 94.71875 107.648438 95.765625 106.992188 97.277344 C 106.1875 99.179688 105.332031 100.128906 104.425781 100.128906 L 103.445312 100.128906 C 102.441406 100.128906 100 99.472656 96.128906 98.15625 L 88.054688 96.253906 C 84.332031 95.714844 80.835938 94.179688 77.566406 91.644531 C 76.308594 90.671875 74.75 88.71875 72.886719 85.792969 C 71.128906 83.503906 69.492188 81.992188 67.984375 81.261719 L 67.003906 80.75 L 63.230469 80.75 L 42.933594 80.457031 L 41.875 80.238281 L 40.746094 79.796875 L 37.046875 78.480469 C 36.140625 77.945312 35.6875 76.773438 35.6875 74.972656 L 35.464844 67.949219 L 35.539062 65.902344 L 35.3125 63.34375 L 35.3125 61.148438 C 35.714844 60.027344 36.898438 59.464844 38.859375 59.464844 L 42.707031 60.125 L 57.195312 60.78125 L 77.71875 59.464844 L 77.867188 59.394531 M 104.199219 53.324219 L 104.351562 53.324219 L 104.050781 53.394531 L 104.199219 53.324219 M 68.890625 65.171875 L 69.039062 65.464844 L 68.132812 66.558594 L 67.304688 67.21875 L 66.777344 67.4375 C 66.625 66.707031 65.644531 66.339844 63.832031 66.339844 L 62.625 66.414062 C 61.167969 66.65625 60.210938 67.316406 59.757812 68.386719 L 59.53125 70.507812 L 59.984375 73.289062 L 61.570312 74.75 C 62.375 75.238281 62.902344 75.484375 63.15625 75.484375 C 65.71875 75.484375 67.101562 74.628906 67.304688 72.921875 L 67.304688 72.484375 C 67.304688 70.828125 66.925781 69.679688 66.171875 69.046875 C 65.667969 68.609375 64.992188 68.386719 64.136719 68.386719 C 63.179688 68.386719 62.425781 68.730469 61.871094 69.414062 L 61.34375 70.4375 C 61.34375 71.363281 61.746094 72.144531 62.550781 72.777344 C 63.859375 72.777344 64.4375 72.460938 64.285156 71.824219 L 63.003906 70.65625 L 63.378906 70.363281 C 64.183594 70.363281 64.714844 70.605469 64.964844 71.09375 L 65.039062 71.898438 C 65.140625 72.777344 64.738281 73.3125 63.832031 73.507812 L 63.15625 73.507812 C 61.445312 73.507812 60.589844 72.484375 60.589844 70.4375 L 61.117188 68.972656 C 61.722656 68.046875 62.675781 67.585938 63.984375 67.585938 C 65.089844 67.585938 65.972656 67.828125 66.625 68.316406 C 67.679688 69.046875 68.160156 70.4375 68.058594 72.484375 L 68.058594 72.628906 C 68.007812 75.019531 66.75 76.214844 64.285156 76.214844 C 62.929688 76.214844 61.820312 75.945312 60.964844 75.410156 L 59.382812 76.214844 C 58.828125 76.507812 58.25 76.773438 57.644531 77.019531 L 57.195312 76.578125 L 59.078125 72.996094 L 58.777344 70.582031 C 58.777344 67.265625 60.464844 65.609375 63.832031 65.609375 C 65.492188 65.609375 66.449219 65.925781 66.699219 66.558594 C 67.003906 66.558594 67.632812 66.074219 68.585938 65.097656 L 68.890625 65.171875 M 71.453125 77.894531 L 71.453125 78.117188 L 72.058594 78.261719 L 72.585938 77.894531 L 75.753906 77.894531 L 76.207031 78.480469 L 76.960938 77.894531 L 84.128906 77.824219 L 89.1875 75.628906 L 89.5625 72.777344 L 89.5625 69.707031 C 89.3125 67.851562 89.109375 66.851562 88.960938 66.707031 L 87.148438 63.34375 C 86.59375 62.511719 85.3125 62.097656 83.300781 62.097656 C 82.644531 62.539062 80.910156 62.976562 78.09375 63.414062 L 77.71875 63.414062 L 77.339844 63.34375 L 77.113281 63.488281 L 70.773438 64 L 70.171875 63.855469 L 69.945312 64.074219 L 57.117188 64.367188 L 56.96875 64.292969 L 56.96875 64.367188 L 53.875 64.367188 L 52.289062 64.074219 L 51.609375 64.148438 L 51.535156 64.074219 L 51.535156 64.21875 L 51.382812 64.074219 L 51.234375 64.367188 L 47.082031 64.292969 L 46.78125 64.511719 C 46.175781 65.144531 45.726562 66.097656 45.421875 67.363281 L 45.421875 71.023438 C 45.421875 74.191406 45.675781 76.410156 46.175781 77.675781 L 46.328125 78.042969 L 71.453125 77.894531 M 48.140625 65.097656 L 48.214844 65.097656 C 49.671875 64.855469 50.277344 65.414062 50.027344 66.78125 C 50.027344 67.707031 49.546875 68.167969 48.59375 68.167969 C 47.636719 68.167969 47.03125 67.902344 46.78125 67.363281 L 46.78125 66.488281 C 46.78125 65.464844 47.234375 65 48.140625 65.097656 M 48.140625 67.070312 L 49.042969 67.070312 L 49.042969 66.269531 L 47.988281 66.195312 L 47.761719 66.414062 L 48.140625 67.070312 M 46.101562 72.191406 L 45.949219 71.09375 C 45.949219 70.023438 46.53125 69.484375 47.6875 69.484375 C 48.945312 69.484375 49.472656 70.09375 49.269531 71.3125 C 49.269531 72.582031 48.667969 73.214844 47.460938 73.214844 C 46.804688 73.214844 46.351562 72.875 46.101562 72.191406 M 47.007812 71.3125 L 47.460938 72.191406 L 48.214844 71.3125 C 48.214844 71.023438 48.039062 70.730469 47.6875 70.4375 L 47.007812 71.3125 M 48.214844 74.3125 C 49.421875 74.3125 50.027344 74.945312 50.027344 76.214844 C 50.027344 77.140625 49.574219 77.605469 48.667969 77.605469 C 47.5625 77.605469 47.007812 76.945312 47.007812 75.628906 C 47.007812 74.75 47.410156 74.3125 48.214844 74.3125 M 48.59375 75.484375 L 47.988281 75.410156 L 48.367188 76.507812 L 48.816406 76.507812 C 48.96875 76.554688 49.042969 76.382812 49.042969 75.996094 L 48.59375 75.484375 M 60.4375 75.042969 L 59.457031 73.875 L 58.402344 75.703125 L 58.402344 75.773438 L 60.4375 75.042969 M 99.976562 78.992188 L 98.84375 78.628906 L 98.015625 78.261719 L 97.863281 78.335938 L 97.5625 78.042969 C 97.5625 77.796875 97.9375 77.628906 98.691406 77.53125 L 98.691406 77.605469 L 99.222656 77.53125 L 100.125 77.824219 L 101.183594 77.457031 C 104.199219 77.507812 105.886719 77.847656 106.238281 78.480469 L 106.011719 78.40625 L 105.484375 79.066406 L 105.484375 79.210938 L 105.40625 79.210938 L 105.332031 79.285156 L 101.484375 79.285156 L 99.976562 78.992188 M 86.394531 64.511719 C 86.394531 65.828125 85.613281 66.488281 84.054688 66.488281 C 83.199219 66.488281 82.695312 66.269531 82.546875 65.828125 L 82.546875 65.097656 L 82.773438 63.78125 C 83.023438 62.902344 83.402344 62.464844 83.902344 62.464844 C 85.261719 62.464844 86.09375 63.148438 86.394531 64.511719 M 83.902344 63.855469 L 83.527344 65.171875 L 83.527344 65.390625 L 84.582031 65.390625 L 85.488281 64.511719 L 83.902344 63.855469 M 86.394531 68.902344 L 85.714844 69.484375 L 85.714844 69.925781 L 86.242188 70.144531 L 87.074219 70.144531 L 87.074219 68.902344 L 86.394531 68.902344 M 86.621094 67.730469 C 87.929688 67.730469 88.40625 68.242188 88.054688 69.265625 C 88.054688 70.582031 87.425781 71.242188 86.167969 71.242188 C 85.109375 71.242188 84.582031 70.703125 84.582031 69.632812 C 84.582031 68.363281 85.261719 67.730469 86.621094 67.730469 M 86.921875 72.339844 C 87.828125 72.339844 88.28125 72.875 88.28125 73.945312 C 88.28125 75.066406 87.753906 75.628906 86.695312 75.628906 C 86.042969 75.628906 85.5625 75.335938 85.261719 74.75 L 85.035156 73.875 C 85.035156 72.851562 85.664062 72.339844 86.921875 72.339844 M 86.921875 73.214844 L 86.015625 73.726562 L 86.242188 74.3125 L 87.300781 74.53125 L 87.300781 73.289062 L 86.921875 73.214844 "/>
<path style=" stroke:none;fill-rule:evenodd;fill:rgb(0%,0%,60.000002%);fill-opacity:1;" d="M 111.972656 71.605469 L 112.125 71.679688 L 112.046875 71.679688 L 111.972656 71.605469 "/>
<path style=" stroke:none;fill-rule:evenodd;fill:rgb(40.000001%,40.000001%,40.000001%);fill-opacity:1;" d="M 68.890625 65.171875 L 69.945312 64.074219 L 70.171875 63.855469 L 70.773438 64 L 77.113281 63.488281 L 74.847656 66.632812 L 72.8125 70.582031 C 72.8125 71.214844 72.988281 71.582031 73.339844 71.679688 C 75.65625 70.851562 78.167969 69.4375 80.886719 67.4375 L 80.960938 67.363281 L 80.960938 67.511719 C 80.710938 69.023438 78.972656 72.460938 75.753906 77.824219 L 75.753906 77.894531 L 72.585938 77.894531 L 72.058594 78.261719 L 71.453125 78.117188 L 71.453125 77.675781 L 72.585938 76.066406 L 72.660156 75.847656 L 71.078125 75.628906 L 71.078125 74.972656 C 70.773438 74.042969 70.246094 73.945312 69.492188 74.679688 C 68.839844 75.3125 68.4375 75.214844 68.285156 74.386719 L 68.285156 72.558594 L 68.058594 72.628906 L 68.058594 72.484375 C 68.160156 70.4375 67.679688 69.046875 66.625 68.316406 L 67.304688 67.21875 L 68.132812 66.558594 L 69.039062 65.464844 L 68.890625 65.171875 M 64.964844 71.09375 L 66.097656 69.121094 L 66.171875 69.046875 C 66.925781 69.679688 67.304688 70.828125 67.304688 72.484375 L 67.304688 72.921875 L 64.4375 73.875 L 63.984375 73.726562 L 63.832031 73.507812 C 64.738281 73.3125 65.140625 72.777344 65.039062 71.898438 L 64.964844 71.09375 M 66.023438 71.898438 L 65.871094 71.972656 L 66.023438 71.972656 L 66.023438 71.898438 M 74.472656 70.144531 L 74.398438 70.144531 L 74.398438 69.996094 L 74.472656 70.144531 M 77.71875 63.414062 L 78.09375 63.414062 L 78.019531 63.5625 L 77.71875 63.414062 "/>
<path style=" stroke:none;fill-rule:evenodd;fill:rgb(60.000002%,60.000002%,60.000002%);fill-opacity:1;" d="M 69.945312 64.074219 L 68.890625 65.171875 L 68.585938 65.097656 C 67.632812 66.074219 67.003906 66.558594 66.699219 66.558594 C 66.449219 65.925781 65.492188 65.609375 63.832031 65.609375 C 60.464844 65.609375 58.777344 67.265625 58.777344 70.582031 L 59.078125 72.996094 L 57.195312 76.578125 L 57.644531 77.019531 C 58.25 76.773438 58.828125 76.507812 59.382812 76.214844 L 60.964844 75.410156 C 61.820312 75.945312 62.929688 76.214844 64.285156 76.214844 C 66.75 76.214844 68.007812 75.019531 68.058594 72.628906 L 68.285156 72.558594 L 68.285156 74.386719 C 68.4375 75.214844 68.839844 75.3125 69.492188 74.679688 C 70.246094 73.945312 70.773438 74.042969 71.078125 74.972656 L 71.078125 75.628906 L 72.660156 75.847656 L 72.585938 76.066406 L 71.453125 77.675781 L 71.453125 77.894531 L 46.328125 78.042969 L 46.175781 77.675781 C 45.675781 76.410156 45.421875 74.191406 45.421875 71.023438 L 45.421875 67.363281 C 45.726562 66.097656 46.175781 65.144531 46.78125 64.511719 L 47.082031 64.292969 L 51.234375 64.367188 L 51.082031 64.585938 C 50.527344 65.707031 50.25 67.949219 50.25 71.3125 C 50.25 72.191406 50.453125 72.777344 50.855469 73.070312 C 51.910156 72.09375 52.992188 70.828125 54.101562 69.265625 L 54.25 70.363281 L 54.777344 70.4375 L 55.382812 70.363281 C 55.433594 69.386719 55.835938 68.292969 56.589844 67.070312 L 57.644531 65.023438 L 57.117188 64.367188 L 69.945312 64.074219 M 67.304688 67.21875 L 66.625 68.316406 C 65.972656 67.828125 65.089844 67.585938 63.984375 67.585938 C 62.675781 67.585938 61.722656 68.046875 61.117188 68.972656 L 60.589844 70.4375 C 60.589844 72.484375 61.445312 73.507812 63.15625 73.507812 L 63.832031 73.507812 L 63.984375 73.726562 L 64.4375 73.875 L 67.304688 72.921875 C 67.101562 74.628906 65.71875 75.484375 63.15625 75.484375 C 62.902344 75.484375 62.375 75.238281 61.570312 74.75 L 59.984375 73.289062 L 59.53125 70.507812 L 59.757812 68.386719 C 60.210938 67.316406 61.167969 66.65625 62.625 66.414062 L 63.832031 66.339844 C 65.644531 66.339844 66.625 66.707031 66.777344 67.4375 L 67.304688 67.21875 M 64.964844 71.09375 C 64.714844 70.605469 64.183594 70.363281 63.378906 70.363281 L 63.003906 70.65625 L 64.285156 71.824219 C 64.4375 72.460938 63.859375 72.777344 62.550781 72.777344 C 61.746094 72.144531 61.34375 71.363281 61.34375 70.4375 L 61.871094 69.414062 C 62.425781 68.730469 63.179688 68.386719 64.136719 68.386719 C 64.992188 68.386719 65.667969 68.609375 66.171875 69.046875 L 66.097656 69.121094 L 64.964844 71.09375 M 66.023438 71.898438 L 66.023438 71.972656 L 65.871094 71.972656 L 66.023438 71.898438 M 51.535156 64.21875 L 51.535156 64.074219 L 51.609375 64.148438 L 51.535156 64.21875 M 48.140625 65.097656 C 47.234375 65 46.78125 65.464844 46.78125 66.488281 L 46.78125 67.363281 C 47.03125 67.902344 47.636719 68.167969 48.59375 68.167969 C 49.546875 68.167969 50.027344 67.707031 50.027344 66.78125 C 50.277344 65.414062 49.671875 64.855469 48.214844 65.097656 L 48.140625 65.097656 M 51.308594 71.242188 L 51.308594 71.023438 L 51.460938 71.167969 L 51.308594 71.242188 M 46.101562 72.191406 C 46.351562 72.875 46.804688 73.214844 47.460938 73.214844 C 48.667969 73.214844 49.269531 72.582031 49.269531 71.3125 C 49.472656 70.09375 48.945312 69.484375 47.6875 69.484375 C 46.53125 69.484375 45.949219 70.023438 45.949219 71.09375 L 46.101562 72.191406 M 48.214844 74.3125 C 47.410156 74.3125 47.007812 74.75 47.007812 75.628906 C 47.007812 76.945312 47.5625 77.605469 48.667969 77.605469 C 49.574219 77.605469 50.027344 77.140625 50.027344 76.214844 C 50.027344 74.945312 49.421875 74.3125 48.214844 74.3125 M 60.4375 75.042969 L 58.402344 75.773438 L 58.402344 75.703125 L 59.457031 73.875 L 60.4375 75.042969 "/>
<path style=" stroke:none;fill-rule:evenodd;fill:rgb(20%,20%,20%);fill-opacity:1;" d="M 75.753906 77.894531 L 75.753906 77.824219 C 78.972656 72.460938 80.710938 69.023438 80.960938 67.511719 L 80.960938 67.363281 L 80.886719 67.4375 C 78.167969 69.4375 75.65625 70.851562 73.339844 71.679688 C 72.988281 71.582031 72.8125 71.214844 72.8125 70.582031 L 74.847656 66.632812 L 77.113281 63.488281 L 77.339844 63.34375 L 77.71875 63.414062 L 78.019531 63.5625 L 78.09375 63.414062 C 80.910156 62.976562 82.644531 62.539062 83.300781 62.097656 C 85.3125 62.097656 86.59375 62.511719 87.148438 63.34375 L 88.960938 66.707031 C 89.109375 66.851562 89.3125 67.851562 89.5625 69.707031 L 89.5625 72.777344 L 89.1875 75.628906 L 84.128906 77.824219 L 76.960938 77.894531 L 76.207031 78.480469 L 75.753906 77.894531 M 74.472656 70.144531 L 74.398438 69.996094 L 74.398438 70.144531 L 74.472656 70.144531 M 48.140625 67.070312 L 47.761719 66.414062 L 47.988281 66.195312 L 49.042969 66.269531 L 49.042969 67.070312 L 48.140625 67.070312 M 47.007812 71.3125 L 47.6875 70.4375 C 48.039062 70.730469 48.214844 71.023438 48.214844 71.3125 L 47.460938 72.191406 L 47.007812 71.3125 M 48.59375 75.484375 L 49.042969 75.996094 C 49.042969 76.382812 48.96875 76.554688 48.816406 76.507812 L 48.367188 76.507812 L 47.988281 75.410156 L 48.59375 75.484375 M 86.621094 67.730469 C 85.261719 67.730469 84.582031 68.363281 84.582031 69.632812 C 84.582031 70.703125 85.109375 71.242188 86.167969 71.242188 C 87.425781 71.242188 88.054688 70.582031 88.054688 69.265625 C 88.40625 68.242188 87.929688 67.730469 86.621094 67.730469 M 86.394531 68.902344 L 87.074219 68.902344 L 87.074219 70.144531 L 86.242188 70.144531 L 85.714844 69.925781 L 85.714844 69.484375 L 86.394531 68.902344 M 83.902344 63.855469 L 85.488281 64.511719 L 84.582031 65.390625 L 83.527344 65.390625 L 83.527344 65.171875 L 83.902344 63.855469 M 86.394531 64.511719 C 86.09375 63.148438 85.261719 62.464844 83.902344 62.464844 C 83.402344 62.464844 83.023438 62.902344 82.773438 63.78125 L 82.546875 65.097656 L 82.546875 65.828125 C 82.695312 66.269531 83.199219 66.488281 84.054688 66.488281 C 85.613281 66.488281 86.394531 65.828125 86.394531 64.511719 M 86.921875 73.214844 L 87.300781 73.289062 L 87.300781 74.53125 L 86.242188 74.3125 L 86.015625 73.726562 L 86.921875 73.214844 M 86.921875 72.339844 C 85.664062 72.339844 85.035156 72.851562 85.035156 73.875 L 85.261719 74.75 C 85.5625 75.335938 86.042969 75.628906 86.695312 75.628906 C 87.753906 75.628906 88.28125 75.066406 88.28125 73.945312 C 88.28125 72.875 87.828125 72.339844 86.921875 72.339844 "/>
<path style=" stroke:none;fill-rule:evenodd;fill:rgb(100%,100%,100%);fill-opacity:1;" d="M 52.289062 67.070312 L 52.0625 70.363281 C 51.910156 70.507812 51.785156 70.582031 51.683594 70.582031 L 51.308594 70.582031 L 51.082031 69.046875 L 51.15625 67.65625 L 50.929688 67.144531 C 50.929688 66.171875 51.308594 65.414062 52.0625 64.878906 L 52.515625 65.535156 L 52.289062 66.851562 L 52.289062 67.070312 "/>
<path style=" stroke:none;fill-rule:evenodd;fill:rgb(80.000001%,80.000001%,80.000001%);fill-opacity:1;" d="M 57.117188 64.367188 L 57.644531 65.023438 L 56.589844 67.070312 C 55.835938 68.292969 55.433594 69.386719 55.382812 70.363281 L 54.777344 70.4375 L 54.25 70.363281 L 54.101562 69.265625 C 52.992188 70.828125 51.910156 72.09375 50.855469 73.070312 C 50.453125 72.777344 50.25 72.191406 50.25 71.3125 C 50.25 67.949219 50.527344 65.707031 51.082031 64.585938 L 51.234375 64.367188 L 51.382812 64.074219 L 51.535156 64.21875 L 51.609375 64.148438 L 52.289062 64.074219 L 53.875 64.367188 L 56.96875 64.367188 L 56.96875 64.292969 L 57.117188 64.367188 M 52.289062 67.070312 L 52.289062 66.851562 L 52.515625 65.535156 L 52.0625 64.878906 C 51.308594 65.414062 50.929688 66.171875 50.929688 67.144531 L 51.15625 67.65625 L 51.082031 69.046875 L 51.308594 70.582031 L 51.683594 70.582031 C 51.785156 70.582031 51.910156 70.507812 52.0625 70.363281 L 52.289062 67.070312 M 51.308594 71.242188 L 51.460938 71.167969 L 51.308594 71.023438 L 51.308594 71.242188 "/>
<path style=" stroke:none;fill-rule:evenodd;fill:rgb(16.078432%,19.215687%,26.666668%);fill-opacity:1;" d="M 84.734375 60.488281 L 86.542969 60.417969 L 86.46875 60.710938 L 87.222656 61.148438 L 87.148438 61.292969 L 84.734375 60.710938 L 84.734375 60.488281 M 68.585938 80.238281 L 68.4375 80.164062 L 68.511719 80.164062 L 68.664062 80.238281 L 68.585938 80.238281 M 68.4375 79.652344 L 63.304688 79.652344 L 43.234375 79.578125 L 42.480469 79.210938 L 40.894531 78.699219 C 38.882812 78.457031 37.601562 77.894531 37.046875 77.019531 L 36.671875 72.777344 L 36.671875 72.046875 L 36.445312 71.898438 L 36.671875 71.605469 L 36.367188 66.121094 L 36.59375 61.148438 L 40.519531 60.488281 L 43.460938 61.148438 L 44.140625 61.585938 L 57.042969 61.804688 L 73.566406 61.003906 L 71.605469 62.832031 L 71.679688 62.976562 L 46.628906 63.121094 L 46.101562 63.5625 C 44.894531 64.246094 44.292969 66.730469 44.292969 71.023438 L 44.292969 71.972656 L 44.515625 72.265625 L 44.367188 72.777344 L 44.292969 72.777344 L 44.292969 74.898438 C 44.441406 76.703125 44.769531 77.847656 45.273438 78.335938 L 45.273438 78.699219 C 45.472656 78.894531 45.675781 78.992188 45.875 78.992188 L 65.945312 79.140625 L 68.738281 79.140625 L 68.4375 79.652344 M 84.28125 78.921875 L 84.433594 78.921875 L 84.355469 78.992188 L 84.28125 78.921875 M 99.976562 78.992188 L 101.484375 79.285156 L 103.671875 79.285156 C 108.097656 79.871094 110.3125 81.136719 110.3125 83.089844 C 110.3125 84.699219 109.609375 85.503906 108.199219 85.503906 C 103.421875 85.503906 99.648438 84.769531 96.882812 83.308594 C 94.820312 82.234375 93.789062 81.1875 93.789062 80.164062 C 93.789062 79.285156 94.519531 78.847656 95.976562 78.847656 L 99.976562 78.992188 M 100.730469 70.582031 L 100.578125 70.582031 L 100.730469 70.730469 L 100.730469 70.582031 M 98.996094 70.144531 C 98.996094 69.707031 100.175781 69.484375 102.539062 69.484375 C 105.15625 69.484375 107.445312 69.925781 109.40625 70.800781 L 111.59375 72.191406 C 111.59375 74.335938 110.867188 75.410156 109.40625 75.410156 C 106.992188 75.410156 104.578125 74.652344 102.164062 73.140625 C 100.050781 71.875 98.996094 70.875 98.996094 70.144531 M 87.375 84.1875 C 88.28125 84.1875 89.863281 84.769531 92.128906 85.941406 L 96.277344 88.136719 L 101.484375 89.964844 C 102.390625 90.402344 102.84375 91.183594 102.84375 92.304688 C 102.84375 93.035156 101.988281 93.402344 100.277344 93.402344 C 97.710938 93.402344 94.492188 92.183594 90.621094 89.742188 C 87.148438 87.5 85.414062 86.0625 85.414062 85.429688 C 85.414062 84.601562 86.066406 84.1875 87.375 84.1875 "/>
<path style=" stroke:none;fill-rule:evenodd;fill:rgb(7.450981%,10.588235%,15.686275%);fill-opacity:1;" d="M 86.542969 60.417969 L 86.542969 60.199219 L 87.148438 60.050781 L 89.261719 60.488281 L 94.84375 60.5625 L 96.128906 60.855469 L 99.070312 61.003906 L 104.125 60.34375 L 107.519531 59.613281 C 108.425781 59.613281 109.230469 60.003906 109.933594 60.78125 C 110.488281 61.417969 110.765625 61.976562 110.765625 62.464844 L 110.765625 65.535156 L 111.367188 67.511719 L 111.671875 67.804688 L 111.519531 68.242188 L 112.125 69.851562 C 111.570312 69.414062 111.066406 69.191406 110.613281 69.191406 C 110.210938 69.191406 110.011719 69.386719 110.011719 69.777344 L 110.238281 70.507812 L 110.613281 70.4375 C 111.066406 70.4375 111.519531 70.828125 111.972656 71.605469 L 112.046875 71.679688 L 112.125 71.679688 L 113.785156 73.945312 L 113.480469 75.773438 L 113.558594 76.140625 L 113.332031 76.433594 C 112.578125 77.605469 112.171875 78.601562 112.125 79.433594 L 110.464844 79.066406 L 110.011719 79.433594 L 110.238281 79.359375 C 110.488281 79.359375 110.765625 79.699219 111.066406 80.382812 L 112.351562 81.113281 L 112.800781 81.699219 L 112.953125 81.625 L 113.40625 82.648438 L 112.273438 84.40625 L 112.425781 85.136719 C 112.425781 85.722656 112.222656 86.015625 111.820312 86.015625 C 111.671875 86.015625 111.546875 85.941406 111.445312 85.792969 L 107.519531 92.230469 C 107.21875 91.644531 106.867188 91.351562 106.464844 91.351562 L 103.75 89.523438 C 101.785156 88.304688 100.429688 87.550781 99.671875 87.257812 L 93.710938 84.84375 L 91.675781 84.84375 L 92.65625 85.792969 L 94.242188 86.453125 L 98.316406 87.988281 C 102.640625 90.71875 105.132812 92.085938 105.785156 92.085938 L 105.9375 92.085938 L 106.765625 94.277344 L 105.710938 96.984375 L 105.257812 98.375 C 104.957031 98.960938 104.578125 99.300781 104.125 99.398438 L 103.296875 98.8125 C 103.195312 99.203125 103.019531 99.398438 102.765625 99.398438 C 102.414062 99.398438 102.164062 99.054688 102.011719 98.375 L 97.335938 97.421875 C 94.96875 96.398438 92.78125 95.714844 90.769531 95.375 C 85.589844 94.59375 81.640625 93.15625 78.925781 91.058594 L 73.640625 84.84375 C 71.628906 82.40625 69.945312 80.871094 68.585938 80.238281 L 68.664062 80.238281 L 68.511719 80.164062 L 68.4375 79.796875 L 68.4375 79.652344 L 68.738281 79.140625 L 69.792969 78.847656 C 70.046875 78.847656 70.273438 78.945312 70.472656 79.140625 L 83.902344 78.921875 L 84.128906 78.847656 L 84.28125 78.921875 L 84.355469 78.992188 L 84.433594 78.921875 L 85.335938 78.335938 L 87.300781 77.605469 L 88.882812 76.945312 L 89.410156 76.507812 C 89.664062 76.507812 89.863281 76.605469 90.015625 76.800781 L 90.167969 76.433594 L 90.542969 75.847656 L 90.394531 75.335938 L 90.542969 72.777344 L 90.621094 70.363281 L 90.542969 70.363281 L 90.46875 69.777344 L 90.542969 69.777344 C 90.34375 65.242188 89.210938 62.414062 87.148438 61.292969 L 87.222656 61.148438 L 86.46875 60.710938 L 86.542969 60.417969 M 73.566406 61.003906 L 74.320312 60.488281 L 74.773438 60.929688 L 84.734375 60.488281 L 84.734375 60.710938 L 82.921875 61.367188 L 82.621094 61.367188 L 78.925781 62.246094 L 76.734375 62.902344 L 73.71875 62.976562 C 73.214844 63.316406 72.789062 63.488281 72.433594 63.488281 L 71.832031 63.34375 L 71.679688 62.976562 L 71.605469 62.832031 L 73.566406 61.003906 M 103.671875 79.285156 L 105.332031 79.285156 L 105.40625 79.210938 L 105.484375 79.210938 L 105.484375 79.066406 L 106.011719 78.40625 L 106.238281 78.480469 C 105.886719 77.847656 104.199219 77.507812 101.183594 77.457031 L 100.125 77.824219 L 99.222656 77.53125 L 98.691406 77.605469 L 98.691406 77.53125 C 97.9375 77.628906 97.5625 77.796875 97.5625 78.042969 L 97.863281 78.335938 L 98.015625 78.261719 L 98.84375 78.628906 L 99.976562 78.992188 L 95.976562 78.847656 C 94.519531 78.847656 93.789062 79.285156 93.789062 80.164062 C 93.789062 81.1875 94.820312 82.234375 96.882812 83.308594 C 99.648438 84.769531 103.421875 85.503906 108.199219 85.503906 C 109.609375 85.503906 110.3125 84.699219 110.3125 83.089844 C 110.3125 81.136719 108.097656 79.871094 103.671875 79.285156 M 98.996094 70.144531 C 98.996094 70.875 100.050781 71.875 102.164062 73.140625 C 104.578125 74.652344 106.992188 75.410156 109.40625 75.410156 C 110.867188 75.410156 111.59375 74.335938 111.59375 72.191406 L 109.40625 70.800781 C 107.445312 69.925781 105.15625 69.484375 102.539062 69.484375 C 100.175781 69.484375 98.996094 69.707031 98.996094 70.144531 M 100.730469 70.582031 L 100.730469 70.730469 L 100.578125 70.582031 L 100.730469 70.582031 M 87.375 84.1875 C 86.066406 84.1875 85.414062 84.601562 85.414062 85.429688 C 85.414062 86.0625 87.148438 87.5 90.621094 89.742188 C 94.492188 92.183594 97.710938 93.402344 100.277344 93.402344 C 101.988281 93.402344 102.84375 93.035156 102.84375 92.304688 C 102.84375 91.183594 102.390625 90.402344 101.484375 89.964844 L 96.277344 88.136719 L 92.128906 85.941406 C 89.863281 84.769531 88.28125 84.1875 87.375 84.1875 "/>
</g>
</svg>
