<?xml version="1.0" encoding="UTF-8"?>
<svg xmlns="http://www.w3.org/2000/svg" xmlns:xlink="http://www.w3.org/1999/xlink" width="154px" height="180px" viewBox="0 0 154 180" version="1.1">
<g id="surface1">
<path style=" stroke:none;fill-rule:evenodd;fill:rgb(16.078432%,19.215687%,26.666668%);fill-opacity:1;" d="M 89.035156 69.191406 L 82.921875 67.511719 C 82.421875 67.414062 81.566406 67.144531 80.359375 66.707031 C 78.09375 65.4375 74.523438 64.097656 69.644531 62.683594 C 64.261719 60.636719 59.683594 59.613281 55.910156 59.613281 L 53.421875 59.613281 L 51.234375 59.757812 L 50.328125 59.90625 L 48.96875 59.613281 C 45.046875 59.613281 43.082031 62.832031 43.082031 69.265625 C 43.082031 72.824219 43.636719 75.066406 44.742188 75.996094 C 46.804688 77.605469 52.714844 79.53125 62.476562 81.773438 L 68.585938 83.746094 L 68.359375 83.746094 L 66.625 84.113281 L 66.625 84.550781 C 63.960938 83.578125 60.738281 82.550781 56.96875 81.480469 C 48.464844 79.042969 41.976562 77.796875 37.5 77.75 L 36.445312 76.140625 C 35.6875 75.019531 35.3125 73.824219 35.3125 72.558594 L 36.292969 64.21875 L 36.972656 60.050781 C 37.726562 58.050781 38.429688 56.808594 39.085938 56.320312 L 41.046875 56.613281 L 58.25 58.078125 C 60.714844 58.222656 64.085938 59.101562 68.359375 60.710938 C 76.207031 63.195312 81.363281 65 83.828125 66.121094 L 90.015625 68.316406 L 89.035156 69.191406 "/>
<path style=" stroke:none;fill-rule:evenodd;fill:rgb(0%,0%,0%);fill-opacity:1;" d="M 68.585938 83.746094 L 62.476562 81.773438 C 52.714844 79.53125 46.804688 77.605469 44.742188 75.996094 C 43.636719 75.066406 43.082031 72.824219 43.082031 69.265625 C 43.082031 62.832031 45.046875 59.613281 48.96875 59.613281 L 50.328125 59.90625 L 51.234375 59.757812 L 53.421875 59.613281 L 55.910156 59.613281 C 59.683594 59.613281 64.261719 60.636719 69.644531 62.683594 C 74.523438 64.097656 78.09375 65.4375 80.359375 66.707031 C 81.566406 67.144531 82.421875 67.414062 82.921875 67.511719 L 89.035156 69.191406 L 88.960938 69.265625 L 89.261719 69.851562 L 89.714844 69.925781 L 90.84375 69.707031 C 98.039062 71.996094 101.636719 74.238281 101.636719 76.433594 L 98.996094 84.625 C 98.742188 86.378906 98.441406 87.867188 98.089844 89.085938 C 97.386719 91.328125 96.304688 92.449219 94.84375 92.449219 L 91.148438 92.15625 L 90.996094 92.230469 L 78.394531 87.476562 L 70.019531 84.332031 L 68.585938 83.746094 M 90.015625 68.316406 L 83.828125 66.121094 C 81.363281 65 76.207031 63.195312 68.359375 60.710938 C 64.085938 59.101562 60.714844 58.222656 58.25 58.078125 L 41.046875 56.613281 L 39.085938 56.320312 C 38.429688 56.808594 37.726562 58.050781 36.972656 60.050781 L 36.292969 64.21875 L 35.3125 72.558594 C 35.3125 73.824219 35.6875 75.019531 36.445312 76.140625 L 37.5 77.75 C 41.976562 77.796875 48.464844 79.042969 56.96875 81.480469 C 60.738281 82.550781 63.960938 83.578125 66.625 84.550781 L 66.625 84.625 L 67.457031 84.84375 L 72.058594 86.597656 C 77.339844 89.085938 81.339844 90.742188 84.054688 91.574219 L 94.089844 93.253906 C 97.460938 93.789062 99.898438 94.667969 101.410156 95.886719 L 101.710938 95.8125 C 102.617188 96.351562 103.722656 96.617188 105.03125 96.617188 C 106.539062 96.617188 108.273438 93.960938 110.238281 88.648438 L 114.539062 76.800781 L 110.765625 74.898438 C 107.445312 73.335938 104.175781 72.167969 100.957031 71.386719 L 91.449219 68.753906 L 91.449219 68.460938 L 91.296875 67.949219 L 90.769531 67.875 L 90.015625 68.316406 M 47.988281 56.46875 L 60.136719 56.980469 C 60.136719 57.273438 60.839844 57.492188 62.25 57.636719 C 66.625 58.222656 69.667969 59.074219 71.378906 60.199219 C 72.335938 60.78125 77.011719 62.636719 85.414062 65.753906 L 104.199219 70.875 C 111.546875 72.921875 115.292969 74.847656 115.445312 76.652344 L 115.445312 76.871094 C 115.445312 78.089844 114.234375 81.699219 111.820312 87.695312 C 109.105469 94.425781 106.890625 97.789062 105.183594 97.789062 C 103.320312 97.789062 102.011719 97.496094 101.257812 96.910156 C 100.203125 96.714844 97.9375 95.910156 94.46875 94.496094 L 82.695312 92.304688 C 79.628906 90.839844 75.855469 89.304688 71.378906 87.695312 L 59.078125 83.160156 C 53.296875 81.359375 46 79.820312 37.199219 78.554688 L 36.746094 78.628906 C 34.582031 78.628906 33.726562 76.628906 34.179688 72.628906 C 34.734375 62.292969 35.964844 56.613281 37.878906 55.589844 L 37.800781 55.445312 L 41.273438 55.152344 L 46.78125 55.808594 L 47.988281 56.46875 M 68.132812 69.707031 C 69.039062 69.121094 70.273438 68.828125 71.832031 68.828125 L 74.246094 69.046875 L 74.625 69.046875 L 77.039062 69.191406 L 79.679688 69.558594 L 80.808594 69.632812 L 80.886719 69.925781 L 80.585938 70.4375 L 80.886719 70.800781 C 80.9375 71.09375 80.910156 71.289062 80.808594 71.386719 L 78.925781 71.460938 L 77.339844 71.242188 L 75.832031 71.09375 C 74.976562 70.949219 74.398438 70.703125 74.09375 70.363281 L 73.039062 69.925781 L 72.738281 69.925781 C 69.265625 69.925781 67.53125 71.09375 67.53125 73.433594 C 67.53125 75.335938 68.585938 76.628906 70.699219 77.3125 L 71.453125 77.382812 L 72.359375 77.675781 L 74.925781 77.824219 C 75.378906 77.824219 75.753906 77.457031 76.058594 76.726562 L 76.28125 75.554688 L 75.832031 74.605469 L 73.492188 74.019531 L 73.039062 73.875 L 72.285156 73.800781 L 72.207031 73.65625 L 71.152344 74.3125 L 70.472656 73.65625 C 70.472656 72.777344 71.503906 72.339844 73.566406 72.339844 L 73.792969 72.339844 L 74.625 72.410156 C 75.832031 72.558594 76.636719 73.167969 77.039062 74.238281 L 77.414062 75.628906 C 77.414062 77.921875 76.761719 79.066406 75.453125 79.066406 L 72.660156 78.921875 L 72.285156 79.066406 L 70.546875 78.628906 L 69.339844 78.117188 C 69.242188 78.3125 68.988281 78.457031 68.585938 78.554688 L 67.457031 78.628906 C 65.039062 78.628906 63.832031 78.042969 63.832031 76.871094 C 64.4375 73.65625 65.34375 71.851562 66.550781 71.460938 L 66.699219 71.460938 L 67.078125 70.730469 L 67.90625 70.289062 L 68.132812 69.707031 M 77.1875 67.144531 L 68.4375 64.21875 L 62.023438 61.734375 C 61.066406 61.246094 60.0625 60.90625 59.003906 60.710938 L 55.683594 60.78125 L 55.082031 60.710938 L 54.777344 60.78125 L 54.402344 60.78125 L 53.722656 60.855469 L 50.402344 61.734375 C 49.648438 61.878906 49.070312 61.734375 48.667969 61.292969 L 48.515625 61.292969 L 46.480469 62.246094 C 45.320312 62.976562 44.71875 63.707031 44.667969 64.4375 L 44.214844 69.265625 L 44.214844 73.140625 C 44.367188 74.117188 44.945312 74.921875 45.949219 75.554688 C 47.5625 76.578125 53.671875 78.433594 64.285156 81.113281 L 64.511719 81.1875 L 65.871094 81.554688 L 78.394531 86.160156 L 78.472656 86.378906 L 79.601562 86.597656 L 79.679688 86.597656 C 85.613281 88.890625 89.3125 90.476562 90.769531 91.351562 L 93.109375 91.207031 L 96.355469 91.132812 C 96.503906 91.085938 96.480469 90.816406 96.277344 90.328125 L 96.730469 88.355469 C 97.132812 87.476562 97.511719 86.160156 97.863281 84.40625 L 100.503906 76.433594 C 100.503906 76.042969 98.417969 74.53125 94.242188 71.898438 L 89.109375 70.4375 L 88.808594 70.144531 L 88.28125 70.289062 L 87.222656 70.144531 C 85.414062 69.316406 83.902344 68.777344 82.695312 68.535156 L 82.167969 68.753906 L 77.1875 67.144531 M 50.703125 64.4375 C 50.652344 65.21875 50.226562 65.683594 49.421875 65.828125 L 49.347656 65.683594 L 49.269531 65.683594 L 49.042969 65.902344 L 48.515625 65.902344 C 47.8125 65.902344 47.132812 65.269531 46.480469 64 C 46.480469 62.832031 47.308594 62.246094 48.96875 62.246094 C 49.269531 62.246094 49.546875 62.390625 49.800781 62.683594 L 50.25 63.195312 L 50.25 63.269531 L 50.703125 64.367188 L 50.703125 64.4375 M 48.667969 68.242188 L 48.667969 70.21875 L 46.78125 70.582031 L 45.5 70.507812 L 45.347656 69.265625 C 45.347656 67.902344 45.75 67.21875 46.554688 67.21875 C 47.460938 67.21875 48.164062 67.558594 48.667969 68.242188 M 68.210938 77.3125 C 67.101562 76.480469 66.5 75.335938 66.398438 73.875 L 65.191406 76.726562 L 68.210938 77.3125 M 48.0625 64.148438 L 48.441406 64.660156 C 48.742188 64.660156 49.042969 64.511719 49.347656 64.21875 L 48.667969 63.707031 L 48.0625 64.148438 M 46.480469 69.265625 L 46.480469 69.414062 C 46.882812 69.414062 47.257812 69.289062 47.609375 69.046875 L 47.609375 68.609375 L 46.707031 68.609375 L 46.480469 69.265625 M 46.707031 73.65625 L 46.933594 73.65625 L 47.761719 73.433594 C 47.609375 73.238281 47.410156 73.140625 47.160156 73.140625 C 46.753906 73.140625 46.605469 73.238281 46.707031 73.433594 L 46.253906 73.582031 L 46.707031 73.65625 M 49.121094 73.875 C 49.121094 74.457031 48.414062 74.75 47.007812 74.75 C 45.347656 74.75 44.566406 74.265625 44.667969 73.289062 C 44.667969 72.363281 45.625 71.898438 47.535156 71.898438 C 48.140625 71.898438 48.59375 72.214844 48.894531 72.851562 L 49.121094 73.875 M 99.449219 78.554688 C 99.449219 79.675781 98.71875 80.238281 97.257812 80.238281 C 96.605469 80.238281 95.824219 79.554688 94.921875 78.1875 C 94.921875 77.214844 95.75 76.726562 97.410156 76.726562 C 98.769531 76.726562 99.449219 77.335938 99.449219 78.554688 M 96.503906 78.480469 C 96.957031 78.773438 97.234375 78.921875 97.335938 78.921875 C 97.789062 78.921875 98.113281 78.699219 98.316406 78.261719 C 98.015625 77.96875 97.5625 77.824219 96.957031 77.824219 L 96.503906 78.480469 M 97.636719 83.820312 C 97.636719 84.796875 96.855469 85.28125 95.296875 85.28125 C 93.9375 85.28125 93.285156 84.746094 93.335938 83.675781 C 93.335938 82.40625 93.914062 81.773438 95.070312 81.773438 C 96.78125 81.773438 97.636719 82.453125 97.636719 83.820312 M 94.46875 83.527344 C 94.46875 83.964844 94.921875 84.160156 95.824219 84.113281 C 96.226562 83.964844 96.429688 83.84375 96.429688 83.746094 C 96.429688 83.160156 96.050781 82.871094 95.296875 82.871094 L 94.46875 83.527344 M 95.597656 89.160156 C 95.597656 90.085938 94.945312 90.546875 93.636719 90.546875 C 91.976562 90.546875 91.273438 89.964844 91.523438 88.792969 C 91.523438 87.476562 92.328125 86.820312 93.9375 86.820312 C 94.59375 86.820312 95.070312 87.183594 95.371094 87.914062 L 95.597656 89.160156 M 94.242188 88.0625 L 93.5625 88.0625 L 92.808594 89.011719 C 92.757812 89.304688 92.933594 89.453125 93.335938 89.453125 L 94.46875 89.378906 L 94.242188 88.0625 "/>
<path style=" stroke:none;fill-rule:evenodd;fill:rgb(60.000002%,60.000002%,60.000002%);fill-opacity:1;" d="M 77.039062 69.191406 L 74.625 69.046875 L 74.246094 69.046875 L 71.832031 68.828125 C 70.273438 68.828125 69.039062 69.121094 68.132812 69.707031 L 68.210938 68.609375 C 68.210938 67.242188 66.601562 65.585938 63.378906 63.636719 C 60.414062 61.878906 57.847656 60.929688 55.683594 60.78125 L 59.003906 60.710938 C 60.0625 60.90625 61.066406 61.246094 62.023438 61.734375 L 68.4375 64.21875 L 77.1875 67.144531 C 77.039062 67.585938 76.6875 67.777344 76.132812 67.730469 C 76.734375 67.875 77.039062 68.316406 77.039062 69.046875 L 77.039062 69.191406 M 67.078125 70.730469 L 66.699219 71.460938 L 66.550781 71.460938 C 65.34375 71.851562 64.4375 73.65625 63.832031 76.871094 C 63.832031 78.042969 65.039062 78.628906 67.457031 78.628906 L 68.585938 78.554688 C 68.988281 78.457031 69.242188 78.3125 69.339844 78.117188 L 70.546875 78.628906 L 69.71875 79.796875 L 70.246094 81.113281 C 70.246094 81.503906 69.339844 81.699219 67.53125 81.699219 L 65.871094 81.554688 L 64.511719 81.1875 L 64.285156 81.039062 L 64.285156 81.113281 C 53.671875 78.433594 47.5625 76.578125 45.949219 75.554688 C 44.945312 74.921875 44.367188 74.117188 44.214844 73.140625 L 44.214844 69.265625 L 44.667969 64.4375 C 44.71875 63.707031 45.320312 62.976562 46.480469 62.246094 L 48.515625 61.292969 L 48.667969 61.292969 C 49.070312 61.734375 49.648438 61.878906 50.402344 61.734375 L 53.722656 60.855469 L 54.402344 60.78125 L 54.777344 60.78125 L 52.742188 61.585938 C 51.835938 62.074219 50.878906 62.269531 49.875 62.171875 L 49.800781 62.609375 L 49.800781 62.683594 C 49.546875 62.390625 49.269531 62.246094 48.96875 62.246094 C 47.308594 62.246094 46.480469 62.832031 46.480469 64 C 47.132812 65.269531 47.8125 65.902344 48.515625 65.902344 L 49.042969 65.902344 L 48.667969 68.242188 C 48.164062 67.558594 47.460938 67.21875 46.554688 67.21875 C 45.75 67.21875 45.347656 67.902344 45.347656 69.265625 L 45.5 70.507812 L 46.78125 70.582031 L 48.667969 70.21875 C 48.769531 72.363281 49.472656 73.433594 50.78125 73.433594 L 50.929688 73.363281 C 56.261719 75.410156 58.980469 76.433594 59.078125 76.433594 C 59.582031 76.433594 59.835938 76.214844 59.835938 75.773438 L 57.570312 72.703125 L 62.777344 72.484375 L 63.003906 71.898438 L 62.398438 71.242188 L 67.078125 70.730469 M 74.625 72.410156 L 73.792969 72.339844 L 73.566406 72.339844 C 71.503906 72.339844 70.472656 72.777344 70.472656 73.65625 L 71.152344 74.3125 L 72.207031 73.65625 L 72.285156 73.800781 L 73.039062 73.875 L 73.492188 74.019531 L 73.867188 75.117188 C 73.867188 75.359375 73.542969 75.773438 72.886719 76.359375 C 72.335938 76.945312 71.855469 77.285156 71.453125 77.382812 L 70.699219 77.3125 C 68.585938 76.628906 67.53125 75.335938 67.53125 73.433594 C 67.53125 71.09375 69.265625 69.925781 72.738281 69.925781 L 73.039062 69.925781 L 74.09375 70.363281 C 74.398438 70.703125 74.976562 70.949219 75.832031 71.09375 L 74.625 72.410156 M 62.097656 64.148438 L 62.023438 64.21875 L 61.570312 63.925781 L 62.097656 64.148438 M 63.605469 69.925781 L 63.304688 69.925781 L 63.832031 69.707031 L 63.605469 69.925781 M 68.210938 77.3125 L 65.191406 76.726562 L 66.398438 73.875 C 66.5 75.335938 67.101562 76.480469 68.210938 77.3125 M 50.703125 64.367188 L 50.78125 64.367188 L 50.703125 64.4375 L 50.703125 64.367188 M 50.25 63.269531 L 50.25 63.195312 L 50.25 63.269531 M 46.707031 73.433594 L 46.707031 73.65625 L 46.253906 73.582031 L 46.707031 73.433594 M 49.121094 73.875 L 48.894531 72.851562 C 48.59375 72.214844 48.140625 71.898438 47.535156 71.898438 C 45.625 71.898438 44.667969 72.363281 44.667969 73.289062 C 44.566406 74.265625 45.347656 74.75 47.007812 74.75 C 48.414062 74.75 49.121094 74.457031 49.121094 73.875 "/>
<path style=" stroke:none;fill-rule:evenodd;fill:rgb(80.000001%,80.000001%,80.000001%);fill-opacity:1;" d="M 55.683594 60.78125 C 57.847656 60.929688 60.414062 61.878906 63.378906 63.636719 C 66.601562 65.585938 68.210938 67.242188 68.210938 68.609375 L 68.132812 69.707031 L 67.90625 70.289062 L 67.078125 70.730469 L 62.398438 71.242188 L 63.003906 71.898438 L 62.777344 72.484375 L 57.570312 72.703125 L 59.835938 75.773438 C 59.835938 76.214844 59.582031 76.433594 59.078125 76.433594 C 58.980469 76.433594 56.261719 75.410156 50.929688 73.363281 L 50.78125 73.433594 C 49.472656 73.433594 48.769531 72.363281 48.667969 70.21875 L 48.667969 68.242188 L 49.042969 65.902344 L 49.269531 65.683594 L 49.347656 65.683594 L 49.421875 65.828125 C 50.226562 65.683594 50.652344 65.21875 50.703125 64.4375 L 51.15625 64.660156 L 50.929688 66.046875 L 51.234375 68.535156 C 51.484375 69.800781 51.886719 70.484375 52.441406 70.582031 C 52.894531 71.898438 53.519531 72.558594 54.328125 72.558594 C 54.878906 72.558594 55.207031 72.339844 55.308594 71.898438 C 56.816406 71.214844 57.570312 70.535156 57.570312 69.851562 C 58.074219 70.339844 58.5 70.582031 58.851562 70.582031 L 59.609375 70.363281 L 59.609375 70.070312 C 59.609375 69.679688 59.128906 69.167969 58.175781 68.535156 L 59.835938 67.949219 L 60.0625 67.949219 C 61.015625 68.632812 61.945312 69.046875 62.851562 69.191406 L 64.136719 69.558594 L 66.625 68.609375 L 65.644531 66.851562 C 64.941406 66.074219 64.210938 65.609375 63.457031 65.464844 L 63.15625 65.390625 L 55.15625 62.902344 L 54.550781 62.683594 C 53.195312 62.683594 52.214844 63.050781 51.609375 63.78125 L 51.535156 63.78125 C 51.234375 63.78125 50.980469 63.976562 50.78125 64.367188 L 50.703125 64.367188 L 50.25 63.269531 L 50.25 63.195312 L 49.800781 62.683594 L 49.800781 62.609375 L 49.875 62.171875 C 50.878906 62.269531 51.835938 62.074219 52.742188 61.585938 L 54.777344 60.78125 L 55.082031 60.710938 L 55.683594 60.78125 M 62.097656 64.148438 L 61.570312 63.925781 L 62.023438 64.21875 L 62.097656 64.148438 M 65.039062 68.386719 L 64.738281 68.316406 L 64.738281 68.242188 L 65.039062 68.386719 M 63.605469 69.925781 L 63.832031 69.707031 L 63.304688 69.925781 L 63.605469 69.925781 M 53.648438 64.074219 L 54.023438 64 L 54.101562 64.21875 L 53.648438 64.074219 M 54.628906 68.167969 L 54.476562 68.167969 L 54.628906 67.875 L 54.703125 67.875 L 54.628906 68.167969 M 57.949219 67.070312 L 56.96875 67.730469 L 57.871094 67 L 57.949219 67.070312 M 54.628906 71.023438 L 54.703125 71.167969 L 54.628906 71.167969 L 54.628906 71.023438 "/>
<path style=" stroke:none;fill-rule:evenodd;fill:rgb(100%,100%,100%);fill-opacity:1;" d="M 50.78125 64.367188 C 50.980469 63.976562 51.234375 63.78125 51.535156 63.78125 L 51.609375 63.78125 C 52.214844 63.050781 53.195312 62.683594 54.550781 62.683594 L 55.15625 62.902344 L 63.15625 65.390625 L 63.457031 65.464844 C 64.210938 65.609375 64.941406 66.074219 65.644531 66.851562 L 66.625 68.609375 L 64.136719 69.558594 L 62.851562 69.191406 C 61.945312 69.046875 61.015625 68.632812 60.0625 67.949219 L 59.835938 67.949219 L 58.175781 68.535156 C 59.128906 69.167969 59.609375 69.679688 59.609375 70.070312 L 59.609375 70.363281 L 58.851562 70.582031 C 58.5 70.582031 58.074219 70.339844 57.570312 69.851562 C 57.570312 70.535156 56.816406 71.214844 55.308594 71.898438 C 55.207031 72.339844 54.878906 72.558594 54.328125 72.558594 C 53.519531 72.558594 52.894531 71.898438 52.441406 70.582031 C 51.886719 70.484375 51.484375 69.800781 51.234375 68.535156 L 50.929688 66.046875 L 51.15625 64.660156 L 50.703125 64.4375 L 50.78125 64.367188 M 65.039062 68.386719 L 64.738281 68.242188 L 64.738281 68.316406 L 65.039062 68.386719 M 53.648438 64.074219 L 54.101562 64.21875 L 54.023438 64 L 53.648438 64.074219 M 54.628906 68.167969 L 54.703125 67.875 L 54.628906 67.875 L 54.476562 68.167969 L 54.628906 68.167969 M 57.949219 67.070312 L 57.871094 67 L 56.96875 67.730469 L 57.949219 67.070312 M 54.628906 71.023438 L 54.628906 71.167969 L 54.703125 71.167969 L 54.628906 71.023438 "/>
<path style=" stroke:none;fill-rule:evenodd;fill:rgb(40.000001%,40.000001%,40.000001%);fill-opacity:1;" d="M 77.039062 69.191406 L 77.039062 69.046875 C 77.039062 68.316406 76.734375 67.875 76.132812 67.730469 C 76.6875 67.777344 77.039062 67.585938 77.1875 67.144531 L 82.167969 68.753906 L 82.695312 68.535156 C 83.902344 68.777344 85.414062 69.316406 87.222656 70.144531 L 88.28125 70.289062 L 88.054688 70.582031 L 89.035156 72.117188 L 88.28125 73.140625 L 89.714844 75.554688 C 84.886719 75.066406 82.46875 75.261719 82.46875 76.140625 C 82.46875 76.578125 82.921875 77.433594 83.828125 78.699219 L 81.113281 78.847656 L 81.113281 79.140625 L 83.828125 84.992188 L 83.601562 85.429688 L 78.394531 85.648438 L 78.394531 86.160156 L 65.871094 81.554688 L 67.53125 81.699219 C 69.339844 81.699219 70.246094 81.503906 70.246094 81.113281 L 69.71875 79.796875 L 70.546875 78.628906 L 72.285156 79.066406 L 72.660156 78.921875 L 75.453125 79.066406 C 76.761719 79.066406 77.414062 77.921875 77.414062 75.628906 L 77.039062 74.238281 C 76.636719 73.167969 75.832031 72.558594 74.625 72.410156 L 75.832031 71.09375 L 77.339844 71.242188 L 78.925781 71.460938 L 80.808594 71.386719 C 80.910156 71.289062 80.9375 71.09375 80.886719 70.800781 L 80.585938 70.4375 L 80.886719 69.925781 L 80.808594 69.632812 L 79.679688 69.558594 L 77.039062 69.191406 M 73.492188 74.019531 L 75.832031 74.605469 L 76.28125 75.554688 L 76.058594 76.726562 C 75.753906 77.457031 75.378906 77.824219 74.925781 77.824219 L 72.359375 77.675781 L 71.453125 77.382812 C 71.855469 77.285156 72.335938 76.945312 72.886719 76.359375 C 73.542969 75.773438 73.867188 75.359375 73.867188 75.117188 L 73.492188 74.019531 "/>
<path style=" stroke:none;fill-rule:evenodd;fill:rgb(20%,20%,20%);fill-opacity:1;" d="M 64.285156 81.113281 L 64.285156 81.039062 L 64.511719 81.1875 L 64.285156 81.113281 M 46.480469 69.265625 L 46.707031 68.609375 L 47.609375 68.609375 L 47.609375 69.046875 C 47.257812 69.289062 46.882812 69.414062 46.480469 69.414062 L 46.480469 69.265625 M 48.0625 64.148438 L 48.667969 63.707031 L 49.347656 64.21875 C 49.042969 64.511719 48.742188 64.660156 48.441406 64.660156 L 48.0625 64.148438 M 46.707031 73.433594 C 46.605469 73.238281 46.753906 73.140625 47.160156 73.140625 C 47.410156 73.140625 47.609375 73.238281 47.761719 73.433594 L 46.933594 73.65625 L 46.707031 73.65625 L 46.707031 73.433594 M 88.28125 70.289062 L 88.808594 70.144531 L 89.109375 70.4375 L 94.242188 71.898438 C 98.417969 74.53125 100.503906 76.042969 100.503906 76.433594 L 97.863281 84.40625 C 97.511719 86.160156 97.132812 87.476562 96.730469 88.355469 L 96.277344 90.328125 C 96.480469 90.816406 96.503906 91.085938 96.355469 91.132812 L 93.109375 91.207031 L 90.769531 91.351562 C 89.3125 90.476562 85.613281 88.890625 79.679688 86.597656 L 79.601562 86.597656 L 78.472656 86.378906 L 78.394531 86.160156 L 78.394531 85.648438 L 83.601562 85.429688 L 83.828125 84.992188 L 81.113281 79.140625 L 81.113281 78.847656 L 83.828125 78.699219 C 82.921875 77.433594 82.46875 76.578125 82.46875 76.140625 C 82.46875 75.261719 84.886719 75.066406 89.714844 75.554688 L 88.28125 73.140625 L 89.035156 72.117188 L 88.054688 70.582031 L 88.28125 70.289062 M 96.503906 78.480469 L 96.957031 77.824219 C 97.5625 77.824219 98.015625 77.96875 98.316406 78.261719 C 98.113281 78.699219 97.789062 78.921875 97.335938 78.921875 C 97.234375 78.921875 96.957031 78.773438 96.503906 78.480469 M 99.449219 78.554688 C 99.449219 77.335938 98.769531 76.726562 97.410156 76.726562 C 95.75 76.726562 94.921875 77.214844 94.921875 78.1875 C 95.824219 79.554688 96.605469 80.238281 97.257812 80.238281 C 98.71875 80.238281 99.449219 79.675781 99.449219 78.554688 M 94.242188 88.0625 L 94.46875 89.378906 L 93.335938 89.453125 C 92.933594 89.453125 92.757812 89.304688 92.808594 89.011719 L 93.5625 88.0625 L 94.242188 88.0625 M 95.597656 89.160156 L 95.371094 87.914062 C 95.070312 87.183594 94.59375 86.820312 93.9375 86.820312 C 92.328125 86.820312 91.523438 87.476562 91.523438 88.792969 C 91.273438 89.964844 91.976562 90.546875 93.636719 90.546875 C 94.945312 90.546875 95.597656 90.085938 95.597656 89.160156 M 94.46875 83.527344 L 95.296875 82.871094 C 96.050781 82.871094 96.429688 83.160156 96.429688 83.746094 C 96.429688 83.84375 96.226562 83.964844 95.824219 84.113281 C 94.921875 84.160156 94.46875 83.964844 94.46875 83.527344 M 97.636719 83.820312 C 97.636719 82.453125 96.78125 81.773438 95.070312 81.773438 C 93.914062 81.773438 93.335938 82.40625 93.335938 83.675781 C 93.285156 84.746094 93.9375 85.28125 95.296875 85.28125 C 96.855469 85.28125 97.636719 84.796875 97.636719 83.820312 "/>
<path style=" stroke:none;fill-rule:evenodd;fill:rgb(7.450981%,10.588235%,15.686275%);fill-opacity:1;" d="M 89.035156 69.191406 L 90.015625 68.316406 L 90.769531 67.875 L 91.296875 67.949219 L 91.449219 68.460938 L 91.449219 68.753906 L 100.957031 71.386719 C 104.175781 72.167969 107.445312 73.335938 110.765625 74.898438 L 114.539062 76.800781 L 110.238281 88.648438 C 108.273438 93.960938 106.539062 96.617188 105.03125 96.617188 C 103.722656 96.617188 102.617188 96.351562 101.710938 95.8125 L 101.410156 95.886719 C 99.898438 94.667969 97.460938 93.789062 94.089844 93.253906 L 84.054688 91.574219 C 81.339844 90.742188 77.339844 89.085938 72.058594 86.597656 L 67.457031 84.84375 L 66.625 84.625 L 66.625 84.113281 L 68.359375 83.746094 L 68.585938 83.746094 L 70.019531 84.332031 L 78.394531 87.476562 L 90.996094 92.230469 L 91.148438 92.15625 L 94.84375 92.449219 C 96.304688 92.449219 97.386719 91.328125 98.089844 89.085938 C 98.441406 87.867188 98.742188 86.378906 98.996094 84.625 L 101.636719 76.433594 C 101.636719 74.238281 98.039062 71.996094 90.84375 69.707031 L 89.714844 69.925781 L 89.261719 69.851562 L 88.960938 69.265625 L 89.035156 69.191406 "/>
</g>
</svg>
