<?xml version="1.0" encoding="UTF-8"?>
<svg xmlns="http://www.w3.org/2000/svg" xmlns:xlink="http://www.w3.org/1999/xlink" width="154px" height="180px" viewBox="0 0 154 180" version="1.1">
<g id="surface1">
<path style=" stroke:none;fill-rule:evenodd;fill:rgb(0%,0%,0%);fill-opacity:1;" d="M 104.351562 53.324219 L 104.050781 53.394531 L 104.199219 53.324219 L 104.351562 53.324219 M 77.867188 59.394531 L 106.539062 59.6875 L 108.804688 60.050781 L 109.105469 60.417969 L 109.179688 60.417969 L 109.257812 60.636719 L 109.484375 60.929688 L 109.40625 61.074219 L 111.519531 66.632812 L 111.519531 69.484375 L 111.066406 69.707031 L 110.839844 68.828125 C 109.785156 69.707031 106.085938 71.898438 99.75 75.410156 C 95.824219 77.410156 93.5625 78.457031 92.957031 78.554688 L 88.960938 79.796875 L 85.109375 80.457031 L 83.453125 80.675781 L 63.230469 80.75 L 42.933594 80.457031 L 41.875 80.238281 L 40.746094 79.796875 L 37.046875 78.480469 C 36.140625 77.945312 35.6875 76.773438 35.6875 74.972656 L 35.464844 67.949219 L 35.539062 65.902344 L 35.3125 63.34375 L 35.3125 61.148438 C 35.714844 60.027344 36.898438 59.464844 38.859375 59.464844 L 42.707031 60.125 L 57.195312 60.78125 L 77.71875 59.464844 L 77.867188 59.394531 M 77.113281 63.488281 L 70.773438 64 L 70.171875 63.855469 L 69.945312 64.074219 L 57.117188 64.367188 L 56.96875 64.292969 L 56.96875 64.367188 L 53.875 64.367188 L 52.289062 64.074219 L 51.609375 64.148438 L 51.535156 64.074219 L 51.535156 64.21875 L 51.382812 64.074219 L 51.234375 64.367188 L 47.082031 64.292969 L 46.78125 64.511719 C 46.175781 65.144531 45.726562 66.097656 45.421875 67.363281 L 45.421875 71.023438 C 45.421875 74.191406 45.675781 76.410156 46.175781 77.675781 L 46.328125 78.042969 L 71.453125 77.894531 L 71.453125 78.117188 L 72.058594 78.261719 L 72.585938 77.894531 L 75.753906 77.894531 L 76.207031 78.480469 L 76.960938 77.894531 L 84.128906 77.824219 L 89.1875 75.628906 L 89.5625 72.777344 L 89.5625 69.707031 C 89.3125 67.851562 89.109375 66.851562 88.960938 66.707031 L 87.148438 63.34375 C 86.59375 62.511719 85.3125 62.097656 83.300781 62.097656 C 82.644531 62.539062 80.910156 62.976562 78.09375 63.414062 L 77.71875 63.414062 L 77.339844 63.34375 L 77.113281 63.488281 M 66.171875 68.972656 L 66.246094 69.121094 C 66.601562 69.949219 66.777344 70.605469 66.777344 71.09375 C 66.777344 71.972656 66.675781 72.410156 66.472656 72.410156 L 66.023438 71.972656 L 65.945312 71.972656 L 65.191406 70.730469 L 64.363281 69.414062 L 64.285156 69.414062 L 64.285156 72.339844 L 64.210938 73.800781 L 64.058594 74.898438 C 64.058594 75.484375 63.605469 75.773438 62.703125 75.773438 C 61.746094 75.773438 61.269531 75.261719 61.269531 74.238281 L 61.269531 73.800781 C 61.367188 73.507812 61.695312 73.363281 62.25 73.363281 L 63.53125 73.65625 L 63.230469 70.363281 L 63.605469 66.414062 C 64.058594 66.414062 64.488281 66.730469 64.890625 67.363281 C 65.292969 67.609375 65.71875 68.144531 66.171875 68.972656 M 48.140625 65.097656 L 48.214844 65.097656 C 49.671875 64.855469 50.277344 65.414062 50.027344 66.78125 C 50.027344 67.707031 49.546875 68.167969 48.59375 68.167969 C 47.636719 68.167969 47.03125 67.902344 46.78125 67.363281 L 46.78125 66.488281 C 46.78125 65.464844 47.234375 65 48.140625 65.097656 M 47.988281 66.195312 L 47.761719 66.414062 L 48.140625 67.070312 L 49.042969 67.070312 L 49.042969 66.269531 L 47.988281 66.195312 M 47.6875 70.4375 L 47.007812 71.3125 L 47.460938 72.191406 L 48.214844 71.3125 C 48.214844 71.023438 48.039062 70.730469 47.6875 70.4375 M 45.949219 71.09375 C 45.949219 70.023438 46.53125 69.484375 47.6875 69.484375 C 48.945312 69.484375 49.472656 70.09375 49.269531 71.3125 C 49.269531 72.582031 48.667969 73.214844 47.460938 73.214844 C 46.804688 73.214844 46.351562 72.875 46.101562 72.191406 L 45.949219 71.09375 M 47.007812 75.628906 C 47.007812 74.75 47.410156 74.3125 48.214844 74.3125 C 49.421875 74.3125 50.027344 74.945312 50.027344 76.214844 C 50.027344 77.140625 49.574219 77.605469 48.667969 77.605469 C 47.5625 77.605469 47.007812 76.945312 47.007812 75.628906 M 48.367188 76.507812 L 48.816406 76.507812 C 48.96875 76.554688 49.042969 76.382812 49.042969 75.996094 L 48.59375 75.484375 L 47.988281 75.410156 L 48.367188 76.507812 M 65.945312 79.140625 L 45.875 78.992188 C 45.675781 78.992188 45.472656 78.894531 45.273438 78.699219 L 45.273438 78.335938 C 44.769531 77.847656 44.441406 76.703125 44.292969 74.898438 L 44.292969 72.777344 L 44.367188 72.777344 L 44.515625 72.265625 L 44.292969 71.972656 L 44.066406 71.898438 L 38.40625 71.679688 L 37.121094 71.242188 L 36.671875 71.605469 L 36.445312 71.898438 L 36.671875 72.046875 L 36.671875 72.777344 L 37.046875 77.019531 C 37.601562 77.894531 38.882812 78.457031 40.894531 78.699219 L 42.480469 79.210938 L 43.234375 79.578125 L 63.304688 79.652344 L 88.582031 78.847656 C 91.296875 78.164062 98.617188 74.554688 110.539062 68.023438 L 110.011719 66.339844 C 109.40625 66.78125 108.375 67.292969 106.917969 67.875 C 104.402344 68.949219 102.363281 69.484375 100.804688 69.484375 L 99.824219 69.265625 L 99.75 68.972656 C 99.75 68.730469 103.195312 67.390625 110.085938 64.953125 L 110.011719 64.730469 L 109.484375 64.660156 L 109.332031 64.660156 L 105.484375 65.464844 L 103.671875 66.414062 L 102.011719 65.609375 C 101.609375 64.976562 101.03125 64.660156 100.277344 64.660156 C 99.371094 64.660156 98.390625 65.046875 97.335938 65.828125 L 95.902344 67.070312 L 90.542969 69.777344 L 90.46875 69.777344 L 90.542969 70.363281 L 90.621094 70.363281 L 90.542969 72.777344 L 90.394531 75.335938 L 90.542969 75.847656 L 90.167969 76.433594 C 89.964844 76.96875 89.714844 77.3125 89.410156 77.457031 L 88.960938 76.945312 L 87.300781 77.605469 L 85.335938 78.335938 L 84.433594 78.921875 L 65.945312 79.140625 M 83.902344 63.855469 L 83.527344 65.171875 L 83.527344 65.390625 L 84.582031 65.390625 L 85.488281 64.511719 L 83.902344 63.855469 M 86.394531 64.511719 C 86.394531 65.828125 85.613281 66.488281 84.054688 66.488281 C 83.199219 66.488281 82.695312 66.269531 82.546875 65.828125 L 82.546875 65.097656 L 82.773438 63.78125 C 83.023438 62.902344 83.402344 62.464844 83.902344 62.464844 C 85.261719 62.464844 86.09375 63.148438 86.394531 64.511719 M 86.394531 68.902344 L 85.714844 69.484375 L 85.714844 69.925781 L 86.242188 70.144531 L 87.074219 70.144531 L 87.074219 68.902344 L 86.394531 68.902344 M 86.621094 67.730469 C 87.929688 67.730469 88.40625 68.242188 88.054688 69.265625 C 88.054688 70.582031 87.425781 71.242188 86.167969 71.242188 C 85.109375 71.242188 84.582031 70.703125 84.582031 69.632812 C 84.582031 68.363281 85.261719 67.730469 86.621094 67.730469 M 86.921875 72.339844 C 87.828125 72.339844 88.28125 72.875 88.28125 73.945312 C 88.28125 75.066406 87.753906 75.628906 86.695312 75.628906 C 86.042969 75.628906 85.5625 75.335938 85.261719 74.75 L 85.035156 73.875 C 85.035156 72.851562 85.664062 72.339844 86.921875 72.339844 M 86.015625 73.726562 L 86.242188 74.3125 L 87.300781 74.53125 L 87.300781 73.289062 L 86.921875 73.214844 L 86.015625 73.726562 "/>
<path style=" stroke:none;fill-rule:evenodd;fill:rgb(40.000001%,40.000001%,40.000001%);fill-opacity:1;" d="M 69.945312 64.074219 L 70.171875 63.855469 L 70.773438 64 L 77.113281 63.488281 L 74.847656 66.632812 L 72.8125 70.582031 C 72.8125 71.214844 72.988281 71.582031 73.339844 71.679688 C 75.65625 70.851562 78.167969 69.4375 80.886719 67.4375 L 80.960938 67.363281 L 80.960938 67.511719 C 80.710938 69.023438 78.972656 72.460938 75.753906 77.824219 L 75.753906 77.894531 L 72.585938 77.894531 L 72.058594 78.261719 L 71.453125 78.117188 L 71.453125 77.675781 L 72.585938 76.066406 L 72.660156 75.847656 L 71.078125 75.628906 L 71.078125 74.972656 C 70.773438 74.042969 70.246094 73.945312 69.492188 74.679688 C 68.839844 75.3125 68.4375 75.214844 68.285156 74.386719 L 68.285156 72.558594 L 64.4375 73.875 L 64.210938 73.800781 L 64.285156 72.339844 L 65.191406 70.730469 L 65.945312 71.972656 L 65.871094 71.972656 L 66.023438 71.972656 L 66.472656 72.410156 C 66.675781 72.410156 66.777344 71.972656 66.777344 71.09375 C 66.777344 70.605469 66.601562 69.949219 66.246094 69.121094 L 66.171875 68.972656 C 67.632812 66.585938 68.890625 64.953125 69.945312 64.074219 M 77.71875 63.414062 L 78.09375 63.414062 L 78.019531 63.5625 L 77.71875 63.414062 M 74.398438 70.144531 L 74.398438 69.996094 L 74.472656 70.144531 L 74.398438 70.144531 "/>
<path style=" stroke:none;fill-rule:evenodd;fill:rgb(20%,20%,20%);fill-opacity:1;" d="M 77.113281 63.488281 L 77.339844 63.34375 L 77.71875 63.414062 L 78.019531 63.5625 L 78.09375 63.414062 C 80.910156 62.976562 82.644531 62.539062 83.300781 62.097656 C 85.3125 62.097656 86.59375 62.511719 87.148438 63.34375 L 88.960938 66.707031 C 89.109375 66.851562 89.3125 67.851562 89.5625 69.707031 L 89.5625 72.777344 L 89.1875 75.628906 L 84.128906 77.824219 L 76.960938 77.894531 L 76.207031 78.480469 L 75.753906 77.894531 L 75.753906 77.824219 C 78.972656 72.460938 80.710938 69.023438 80.960938 67.511719 L 80.960938 67.363281 L 80.886719 67.4375 C 78.167969 69.4375 75.65625 70.851562 73.339844 71.679688 C 72.988281 71.582031 72.8125 71.214844 72.8125 70.582031 L 74.847656 66.632812 L 77.113281 63.488281 M 74.398438 70.144531 L 74.472656 70.144531 L 74.398438 69.996094 L 74.398438 70.144531 M 47.988281 66.195312 L 49.042969 66.269531 L 49.042969 67.070312 L 48.140625 67.070312 L 47.761719 66.414062 L 47.988281 66.195312 M 47.6875 70.4375 C 48.039062 70.730469 48.214844 71.023438 48.214844 71.3125 L 47.460938 72.191406 L 47.007812 71.3125 L 47.6875 70.4375 M 48.367188 76.507812 L 47.988281 75.410156 L 48.59375 75.484375 L 49.042969 75.996094 C 49.042969 76.382812 48.96875 76.554688 48.816406 76.507812 L 48.367188 76.507812 M 65.945312 79.140625 L 84.433594 78.921875 L 85.335938 78.335938 L 87.300781 77.605469 L 88.960938 76.945312 L 89.410156 77.457031 C 89.714844 77.3125 89.964844 76.96875 90.167969 76.433594 L 90.542969 75.847656 L 90.394531 75.335938 L 90.542969 72.777344 L 90.621094 70.363281 L 90.542969 70.363281 L 90.46875 69.777344 L 90.542969 69.777344 L 95.902344 67.070312 L 97.335938 65.828125 C 98.390625 65.046875 99.371094 64.660156 100.277344 64.660156 C 101.03125 64.660156 101.609375 64.976562 102.011719 65.609375 L 103.671875 66.414062 L 105.484375 65.464844 L 109.332031 64.660156 L 109.484375 64.660156 L 110.011719 64.730469 L 110.085938 64.953125 C 103.195312 67.390625 99.75 68.730469 99.75 68.972656 L 99.824219 69.265625 L 100.804688 69.484375 C 102.363281 69.484375 104.402344 68.949219 106.917969 67.875 C 108.375 67.292969 109.40625 66.78125 110.011719 66.339844 L 110.539062 68.023438 C 98.617188 74.554688 91.296875 78.164062 88.582031 78.847656 L 63.304688 79.652344 L 43.234375 79.578125 L 42.480469 79.210938 L 40.894531 78.699219 C 38.882812 78.457031 37.601562 77.894531 37.046875 77.019531 L 36.671875 72.777344 L 36.671875 72.046875 L 36.445312 71.898438 L 36.671875 71.605469 L 37.121094 71.242188 L 38.40625 71.679688 L 44.066406 71.898438 L 44.292969 71.972656 L 44.515625 72.265625 L 44.367188 72.777344 L 44.292969 72.777344 L 44.292969 74.898438 C 44.441406 76.703125 44.769531 77.847656 45.273438 78.335938 L 45.273438 78.699219 C 45.472656 78.894531 45.675781 78.992188 45.875 78.992188 L 65.945312 79.140625 M 86.621094 67.730469 C 85.261719 67.730469 84.582031 68.363281 84.582031 69.632812 C 84.582031 70.703125 85.109375 71.242188 86.167969 71.242188 C 87.425781 71.242188 88.054688 70.582031 88.054688 69.265625 C 88.40625 68.242188 87.929688 67.730469 86.621094 67.730469 M 86.394531 68.902344 L 87.074219 68.902344 L 87.074219 70.144531 L 86.242188 70.144531 L 85.714844 69.925781 L 85.714844 69.484375 L 86.394531 68.902344 M 86.394531 64.511719 C 86.09375 63.148438 85.261719 62.464844 83.902344 62.464844 C 83.402344 62.464844 83.023438 62.902344 82.773438 63.78125 L 82.546875 65.097656 L 82.546875 65.828125 C 82.695312 66.269531 83.199219 66.488281 84.054688 66.488281 C 85.613281 66.488281 86.394531 65.828125 86.394531 64.511719 M 83.902344 63.855469 L 85.488281 64.511719 L 84.582031 65.390625 L 83.527344 65.390625 L 83.527344 65.171875 L 83.902344 63.855469 M 86.015625 73.726562 L 86.921875 73.214844 L 87.300781 73.289062 L 87.300781 74.53125 L 86.242188 74.3125 L 86.015625 73.726562 M 86.921875 72.339844 C 85.664062 72.339844 85.035156 72.851562 85.035156 73.875 L 85.261719 74.75 C 85.5625 75.335938 86.042969 75.628906 86.695312 75.628906 C 87.753906 75.628906 88.28125 75.066406 88.28125 73.945312 C 88.28125 72.875 87.828125 72.339844 86.921875 72.339844 "/>
<path style=" stroke:none;fill-rule:evenodd;fill:rgb(60.000002%,60.000002%,60.000002%);fill-opacity:1;" d="M 71.453125 77.894531 L 46.328125 78.042969 L 46.175781 77.675781 C 45.675781 76.410156 45.421875 74.191406 45.421875 71.023438 L 45.421875 67.363281 C 45.726562 66.097656 46.175781 65.144531 46.78125 64.511719 L 47.082031 64.292969 L 51.234375 64.367188 L 51.082031 64.585938 C 50.527344 65.707031 50.25 67.949219 50.25 71.3125 C 50.25 72.191406 50.453125 72.777344 50.855469 73.070312 C 51.910156 72.09375 52.992188 70.828125 54.101562 69.265625 L 54.25 70.363281 L 54.777344 70.4375 L 55.382812 70.363281 C 55.433594 69.386719 55.835938 68.292969 56.589844 67.070312 L 57.644531 65.023438 L 57.117188 64.367188 L 69.945312 64.074219 C 68.890625 64.953125 67.632812 66.585938 66.171875 68.972656 C 65.71875 68.144531 65.292969 67.609375 64.890625 67.363281 C 64.488281 66.730469 64.058594 66.414062 63.605469 66.414062 L 63.230469 70.363281 L 63.53125 73.65625 L 62.25 73.363281 C 61.695312 73.363281 61.367188 73.507812 61.269531 73.800781 L 61.269531 74.238281 C 61.269531 75.261719 61.746094 75.773438 62.703125 75.773438 C 63.605469 75.773438 64.058594 75.484375 64.058594 74.898438 L 64.210938 73.800781 L 64.4375 73.875 L 68.285156 72.558594 L 68.285156 74.386719 C 68.4375 75.214844 68.839844 75.3125 69.492188 74.679688 C 70.246094 73.945312 70.773438 74.042969 71.078125 74.972656 L 71.078125 75.628906 L 72.660156 75.847656 L 72.585938 76.066406 L 71.453125 77.675781 L 71.453125 77.894531 M 51.535156 64.21875 L 51.535156 64.074219 L 51.609375 64.148438 L 51.535156 64.21875 M 66.023438 71.972656 L 65.871094 71.972656 L 66.023438 71.972656 M 65.191406 70.730469 L 64.285156 72.339844 L 64.285156 69.414062 L 64.363281 69.414062 L 65.191406 70.730469 M 48.140625 65.097656 C 47.234375 65 46.78125 65.464844 46.78125 66.488281 L 46.78125 67.363281 C 47.03125 67.902344 47.636719 68.167969 48.59375 68.167969 C 49.546875 68.167969 50.027344 67.707031 50.027344 66.78125 C 50.277344 65.414062 49.671875 64.855469 48.214844 65.097656 L 48.140625 65.097656 M 51.308594 71.242188 L 51.308594 71.023438 L 51.460938 71.167969 L 51.308594 71.242188 M 47.007812 75.628906 C 47.007812 76.945312 47.5625 77.605469 48.667969 77.605469 C 49.574219 77.605469 50.027344 77.140625 50.027344 76.214844 C 50.027344 74.945312 49.421875 74.3125 48.214844 74.3125 C 47.410156 74.3125 47.007812 74.75 47.007812 75.628906 M 45.949219 71.09375 L 46.101562 72.191406 C 46.351562 72.875 46.804688 73.214844 47.460938 73.214844 C 48.667969 73.214844 49.269531 72.582031 49.269531 71.3125 C 49.472656 70.09375 48.945312 69.484375 47.6875 69.484375 C 46.53125 69.484375 45.949219 70.023438 45.949219 71.09375 "/>
<path style=" stroke:none;fill-rule:evenodd;fill:rgb(80.000001%,80.000001%,80.000001%);fill-opacity:1;" d="M 51.234375 64.367188 L 51.382812 64.074219 L 51.535156 64.21875 L 51.609375 64.148438 L 52.289062 64.074219 L 53.875 64.367188 L 56.96875 64.367188 L 56.96875 64.292969 L 57.117188 64.367188 L 57.644531 65.023438 L 56.589844 67.070312 C 55.835938 68.292969 55.433594 69.386719 55.382812 70.363281 L 54.777344 70.4375 L 54.25 70.363281 L 54.101562 69.265625 C 52.992188 70.828125 51.910156 72.09375 50.855469 73.070312 C 50.453125 72.777344 50.25 72.191406 50.25 71.3125 C 50.25 67.949219 50.527344 65.707031 51.082031 64.585938 L 51.234375 64.367188 M 52.289062 66.851562 L 52.515625 65.535156 L 52.0625 64.878906 C 51.308594 65.414062 50.929688 66.171875 50.929688 67.144531 L 51.15625 67.65625 L 51.082031 69.046875 L 51.308594 70.582031 L 51.683594 70.582031 C 51.785156 70.582031 51.910156 70.507812 52.0625 70.363281 L 52.289062 67.070312 L 52.289062 66.851562 M 51.308594 71.242188 L 51.460938 71.167969 L 51.308594 71.023438 L 51.308594 71.242188 "/>
<path style=" stroke:none;fill-rule:evenodd;fill:rgb(100%,100%,100%);fill-opacity:1;" d="M 52.289062 66.851562 L 52.289062 67.070312 L 52.0625 70.363281 C 51.910156 70.507812 51.785156 70.582031 51.683594 70.582031 L 51.308594 70.582031 L 51.082031 69.046875 L 51.15625 67.65625 L 50.929688 67.144531 C 50.929688 66.171875 51.308594 65.414062 52.0625 64.878906 L 52.515625 65.535156 L 52.289062 66.851562 "/>
</g>
</svg>
