<?xml version="1.0" encoding="UTF-8"?>
<svg xmlns="http://www.w3.org/2000/svg" xmlns:xlink="http://www.w3.org/1999/xlink" width="197px" height="209px" viewBox="0 0 197 209" version="1.1">
<g id="surface1">
<path style=" stroke:none;fill-rule:evenodd;fill:rgb(0%,0%,0%);fill-opacity:1;" d="M 69.835938 19.488281 L 83.433594 30.371094 L 89.296875 24.710938 C 92 22.355469 93.578125 21.179688 94.027344 21.179688 L 94.554688 21.253906 C 95.558594 25.863281 97.585938 30.394531 100.640625 34.859375 L 109.207031 30.371094 C 113.714844 28.019531 116.421875 26.84375 117.320312 26.84375 L 117.847656 26.914062 L 117.921875 28.019531 L 117.398438 31.035156 L 117.398438 39.859375 L 118.976562 39.859375 C 122.882812 38.683594 127.015625 38.09375 131.371094 38.09375 C 132.273438 38.09375 132.675781 38.242188 132.574219 38.535156 L 128.816406 48.609375 L 134.226562 49.34375 L 138.886719 48.757812 C 140.390625 48.511719 141.667969 48.929688 142.71875 50.007812 L 134.828125 60.082031 L 145.046875 65.007812 L 152.710938 68.613281 L 145.046875 70.671875 L 144.898438 70.671875 L 136.480469 73.394531 L 145.046875 84.128906 L 146.476562 85.96875 C 146.476562 86.261719 146.125 86.410156 145.421875 86.410156 L 145.046875 86.410156 L 132.648438 85.011719 L 131.296875 85.011719 L 132.425781 88.46875 L 132.425781 92.511719 L 132.050781 92.660156 L 129.042969 91.484375 C 127.242188 91.335938 126.3125 90.945312 126.261719 90.308594 L 126.261719 86.851562 L 126.339844 86.554688 L 124.761719 84.203125 L 122.28125 82.070312 L 119.800781 80.597656 L 117.621094 80.597656 C 116.421875 80.597656 115.59375 81.039062 115.144531 81.921875 L 114.015625 83.246094 L 112.589844 81.628906 C 112.136719 81.1875 109.933594 80.648438 105.976562 80.011719 L 87.042969 80.230469 L 86.515625 80.597656 L 84.9375 81.039062 L 84.035156 80.671875 L 83.132812 80.96875 L 78.699219 81.628906 L 66.226562 81.410156 L 66.003906 81.1875 L 64.5 81.996094 L 62.847656 83.101562 C 61.746094 84.179688 60.816406 84.71875 60.066406 84.71875 L 59.539062 84.644531 L 59.539062 83.910156 L 60.140625 82.953125 L 60.140625 80.597656 C 58.1875 80.746094 56.609375 80.453125 55.410156 79.71875 L 54.957031 79.421875 L 51.652344 80.894531 C 48.996094 81.972656 46.992188 82.511719 45.640625 82.511719 L 45.265625 82.4375 L 45.113281 81.777344 L 49.847656 75.523438 L 39.027344 70.746094 C 33.316406 68 30.460938 66.457031 30.460938 66.113281 C 30.460938 65.082031 33.292969 64.324219 38.953125 63.832031 C 41.058594 63.585938 42.761719 63.144531 44.0625 62.507812 L 47.144531 60.890625 C 44.488281 57.605469 42.808594 55.203125 42.109375 53.683594 C 39.355469 49.761719 37.976562 47.285156 37.976562 46.257812 C 37.976562 45.960938 38.601562 45.816406 39.855469 45.816406 L 46.992188 46.84375 L 56.761719 47.800781 C 55.910156 45.988281 55.535156 43.488281 55.632812 40.300781 L 55.410156 32.652344 C 55.410156 31.867188 55.609375 31.476562 56.007812 31.476562 L 67.128906 36.550781 L 69.308594 19.5625 L 69.835938 19.488281 M 56.835938 32.652344 L 56.609375 32.359375 L 56.234375 32.429688 L 56.160156 32.796875 L 56.308594 33.167969 C 56.308594 39.246094 56.636719 43.855469 57.285156 46.992188 L 57.285156 47.800781 L 57.4375 47.726562 L 54.882812 48.167969 L 41.207031 46.769531 L 39.253906 46.769531 C 39.90625 48.339844 41.28125 50.742188 43.386719 53.976562 C 43.988281 55.203125 45.664062 57.53125 48.421875 60.964844 C 48.421875 61.992188 46.214844 63.023438 41.808594 64.054688 L 32.191406 66.257812 L 31.890625 66.332031 C 35.796875 68.488281 42.257812 71.457031 51.277344 75.230469 C 51.277344 75.769531 49.796875 77.65625 46.84375 80.894531 L 46.46875 81.113281 L 47.894531 81.1875 L 54.207031 78.6875 L 54.132812 78.46875 L 54.207031 78.027344 L 54.582031 77.953125 C 54.933594 77.953125 55.582031 78.394531 56.535156 79.277344 L 59.242188 79.347656 C 60.390625 79.203125 60.992188 79.546875 61.042969 80.378906 L 61.042969 82.878906 L 61.117188 82.953125 C 63.625 81.335938 65.300781 80.527344 66.152344 80.527344 L 68.257812 80.894531 L 81.632812 80.597656 C 82.28125 80.597656 83.109375 80.328125 84.109375 79.789062 C 84.410156 79.789062 84.636719 79.863281 84.789062 80.011719 L 86.363281 79.496094 C 88.46875 78.761719 92.050781 78.46875 97.109375 78.613281 L 106.125 79.054688 C 112.085938 79.054688 113.839844 79.152344 111.386719 79.347656 L 111.835938 79.644531 L 113.941406 81.703125 L 115.519531 80.011719 L 119.125 79.644531 L 119.800781 79.644531 L 120.175781 79.71875 L 120.175781 79.789062 C 121.378906 80.132812 123.132812 81.433594 125.4375 83.6875 L 127.089844 86.261719 L 127.464844 86.261719 L 127.390625 87.511719 L 127.390625 88.101562 L 127.316406 88.542969 L 127.164062 89.867188 C 128.417969 89.964844 129.84375 90.476562 131.449219 91.410156 L 131.523438 90.085938 L 130.171875 84.71875 C 130.171875 84.277344 130.648438 84.054688 131.597656 84.054688 L 144.824219 85.378906 L 135.957031 73.539062 L 135.054688 73.097656 L 135.128906 72.65625 L 145.046875 69.863281 L 149.707031 68.613281 L 149.855469 68.539062 L 150.007812 68.464844 L 150.082031 68.320312 C 150.082031 68.171875 149.679688 68.046875 148.878906 67.949219 L 145.046875 66.113281 L 137.535156 62.507812 L 137.460938 62.433594 L 137.382812 62.363281 L 135.804688 61.625 L 133.550781 60.449219 C 133.550781 59.863281 135.957031 56.578125 140.765625 50.59375 L 127.917969 49.566406 L 127.917969 48.019531 C 128.96875 44.394531 129.945312 41.625 130.847656 39.710938 L 131.296875 38.902344 L 131.222656 38.535156 L 130.546875 38.460938 L 129.945312 39.269531 L 117.921875 40.816406 C 116.820312 40.816406 116.246094 40.445312 116.195312 39.710938 L 116.496094 38.242188 L 116.496094 35.59375 C 116.496094 32.601562 116.671875 30.125 117.023438 28.164062 L 116.945312 28.019531 C 113.089844 29.585938 109.910156 30.910156 107.402344 31.988281 C 104.046875 34.6875 101.667969 36.035156 100.265625 36.035156 L 99.738281 35.960938 C 96.082031 28.507812 94.078125 24.097656 93.730469 22.722656 L 83.285156 31.621094 L 76.824219 26.328125 C 73.316406 24.023438 71.136719 22.234375 70.285156 20.957031 C 69.585938 22.625 69.058594 26.007812 68.707031 31.105469 C 68.40625 35.46875 68.082031 37.652344 67.730469 37.652344 L 56.835938 32.652344 M 116.269531 93.691406 C 117.121094 93.003906 118.023438 92.855469 118.976562 93.25 L 121.003906 92.144531 L 121.605469 92.367188 L 121.679688 92.585938 L 121.078125 92.878906 C 120.628906 93.222656 120.402344 93.910156 120.402344 94.941406 L 120.402344 97.441406 L 120.554688 102.515625 L 120.101562 102.734375 L 118 98.542969 C 116.496094 96.238281 115.746094 94.867188 115.746094 94.425781 C 115.746094 94.132812 115.917969 93.886719 116.269531 93.691406 M 116.644531 94.570312 C 117.398438 95.40625 118.300781 96.875 119.351562 98.984375 L 119.5 98.984375 L 119.351562 94.425781 L 116.644531 94.570312 M 57.8125 104.574219 C 57.0625 104.574219 55.882812 102.660156 54.28125 98.835938 C 54.28125 98.542969 54.683594 98.394531 55.484375 98.394531 C 57.6875 98.394531 58.789062 98.714844 58.789062 99.351562 C 58.339844 102.832031 58.011719 104.574219 57.8125 104.574219 M 57.511719 101.335938 C 57.710938 99.574219 57.136719 98.910156 55.785156 99.351562 L 57.363281 102.957031 L 57.511719 101.335938 "/>
<path style=" stroke:none;fill-rule:evenodd;fill:rgb(100%,60.000002%,20%);fill-opacity:1;" d="M 56.835938 32.652344 L 63.148438 42.652344 C 67.105469 47.949219 69.082031 51.332031 69.082031 52.800781 C 69.082031 53.636719 63.875 54.003906 53.453125 53.90625 L 63.074219 66.554688 L 62.996094 66.996094 L 50.300781 67.140625 L 60.59375 69.714844 L 67.128906 73.320312 C 70.636719 68.5625 73.140625 65.402344 74.644531 63.832031 C 77.449219 69.46875 79.203125 72.289062 79.902344 72.289062 L 89.671875 64.9375 L 93.804688 72.214844 C 96.609375 68.589844 98.636719 66.773438 99.890625 66.773438 C 100.191406 66.773438 101.394531 67.828125 103.496094 69.9375 C 105.601562 72.042969 107.003906 73.097656 107.703125 73.097656 C 108.507812 73.097656 109.457031 72.070312 110.558594 70.011719 C 111.710938 67.949219 112.589844 66.921875 113.191406 66.921875 C 113.789062 66.921875 115.695312 69.128906 118.898438 73.539062 L 124.085938 69.714844 C 125.539062 68.6875 127.039062 67.828125 128.59375 67.140625 L 145.046875 68.757812 L 147.300781 68.757812 L 149.855469 68.539062 L 149.707031 68.613281 L 145.046875 69.863281 L 135.128906 72.65625 L 135.054688 73.097656 L 135.957031 73.539062 L 144.824219 85.378906 L 131.597656 84.054688 C 130.648438 84.054688 130.171875 84.277344 130.171875 84.71875 L 131.523438 90.085938 L 131.449219 91.410156 C 129.84375 90.476562 128.417969 89.964844 127.164062 89.867188 L 127.316406 88.542969 L 127.390625 88.101562 L 127.390625 87.511719 L 127.464844 86.261719 L 127.089844 86.261719 L 125.4375 83.6875 C 123.132812 81.433594 121.378906 80.132812 120.175781 79.789062 L 120.175781 79.71875 L 119.800781 79.644531 L 119.125 79.644531 L 115.519531 80.011719 L 113.941406 81.703125 L 111.835938 79.644531 L 111.386719 79.347656 C 113.839844 79.152344 112.085938 79.054688 106.125 79.054688 L 97.109375 78.613281 C 92.050781 78.46875 88.46875 78.761719 86.363281 79.496094 L 84.789062 80.011719 C 84.636719 79.863281 84.410156 79.789062 84.109375 79.789062 C 83.109375 80.328125 82.28125 80.597656 81.632812 80.597656 L 68.257812 80.894531 L 66.152344 80.527344 C 65.300781 80.527344 63.625 81.335938 61.117188 82.953125 L 61.042969 82.878906 L 61.042969 80.378906 C 60.992188 79.546875 60.390625 79.203125 59.242188 79.347656 L 56.535156 79.277344 C 55.582031 78.394531 54.933594 77.953125 54.582031 77.953125 L 54.207031 78.027344 L 54.132812 78.46875 L 54.207031 78.6875 L 47.894531 81.1875 L 46.46875 81.113281 L 46.84375 80.894531 C 49.796875 77.65625 51.277344 75.769531 51.277344 75.230469 C 42.257812 71.457031 35.796875 68.488281 31.890625 66.332031 L 32.191406 66.257812 L 41.808594 64.054688 C 46.214844 63.023438 48.421875 61.992188 48.421875 60.964844 C 45.664062 57.53125 43.988281 55.203125 43.386719 53.976562 C 41.28125 50.742188 39.90625 48.339844 39.253906 46.769531 L 41.207031 46.769531 L 54.882812 48.167969 L 57.4375 47.726562 L 57.285156 47.800781 L 57.285156 46.992188 C 56.636719 43.855469 56.308594 39.246094 56.308594 33.167969 L 56.160156 32.796875 L 56.234375 32.429688 L 56.609375 32.359375 L 56.835938 32.652344 M 137.535156 62.507812 L 137.460938 62.507812 L 137.460938 62.433594 L 137.535156 62.507812 M 130.621094 66.332031 L 130.847656 66.257812 L 130.847656 66.40625 L 130.621094 66.332031 "/>
<path style=" stroke:none;fill-rule:evenodd;fill:rgb(100%,100%,0%);fill-opacity:1;" d="M 149.855469 68.539062 L 147.300781 68.757812 L 145.046875 68.757812 L 128.59375 67.140625 C 127.039062 67.828125 125.539062 68.6875 124.085938 69.714844 L 118.898438 73.539062 C 115.695312 69.128906 113.789062 66.921875 113.191406 66.921875 C 112.589844 66.921875 111.710938 67.949219 110.558594 70.011719 C 109.457031 72.070312 108.507812 73.097656 107.703125 73.097656 C 107.003906 73.097656 105.601562 72.042969 103.496094 69.9375 C 101.394531 67.828125 100.191406 66.773438 99.890625 66.773438 C 98.636719 66.773438 96.609375 68.589844 93.804688 72.214844 L 89.671875 64.9375 L 79.902344 72.289062 C 79.203125 72.289062 77.449219 69.46875 74.644531 63.832031 C 73.140625 65.402344 70.636719 68.5625 67.128906 73.320312 L 60.59375 69.714844 L 50.300781 67.140625 L 62.996094 66.996094 L 63.074219 66.554688 L 53.453125 53.90625 C 63.875 54.003906 69.082031 53.636719 69.082031 52.800781 C 69.082031 51.332031 67.105469 47.949219 63.148438 42.652344 L 56.835938 32.652344 L 67.730469 37.652344 C 68.082031 37.652344 68.40625 35.46875 68.707031 31.105469 C 69.058594 26.007812 69.585938 22.625 70.285156 20.957031 C 71.136719 22.234375 73.316406 24.023438 76.824219 26.328125 L 83.285156 31.621094 L 93.730469 22.722656 C 94.078125 24.097656 96.082031 28.507812 99.738281 35.960938 L 100.265625 36.035156 C 101.667969 36.035156 104.046875 34.6875 107.402344 31.988281 C 109.910156 30.910156 113.089844 29.585938 116.945312 28.019531 L 117.023438 28.164062 C 116.671875 30.125 116.496094 32.601562 116.496094 35.59375 L 116.496094 38.242188 L 116.195312 39.710938 C 116.246094 40.445312 116.820312 40.816406 117.921875 40.816406 L 129.945312 39.269531 L 130.546875 38.460938 L 131.222656 38.535156 L 131.296875 38.902344 L 130.847656 39.710938 C 129.945312 41.625 128.96875 44.394531 127.917969 48.019531 L 127.917969 49.566406 L 140.765625 50.59375 C 135.957031 56.578125 133.550781 59.863281 133.550781 60.449219 L 135.804688 61.625 L 137.382812 62.363281 L 137.460938 62.433594 L 137.460938 62.507812 L 137.535156 62.507812 L 145.046875 66.113281 L 148.878906 67.949219 C 149.679688 68.046875 150.082031 68.171875 150.082031 68.320312 L 150.007812 68.464844 L 149.855469 68.539062 M 130.621094 66.332031 L 130.847656 66.40625 L 130.847656 66.257812 L 130.621094 66.332031 M 116.644531 94.570312 L 119.351562 94.425781 L 119.5 98.984375 L 119.351562 98.984375 C 118.300781 96.875 117.398438 95.40625 116.644531 94.570312 M 57.511719 101.335938 L 57.363281 102.957031 L 55.785156 99.351562 C 57.136719 98.910156 57.710938 99.574219 57.511719 101.335938 "/>
</g>
</svg>
