<?xml version="1.0" encoding="UTF-8"?>
<svg xmlns="http://www.w3.org/2000/svg" xmlns:xlink="http://www.w3.org/1999/xlink" width="197px" height="209px" viewBox="0 0 197 209" version="1.1">
<g id="surface1">
<path style=" stroke:none;fill-rule:evenodd;fill:rgb(0%,0%,0%);fill-opacity:1;" d="M 92.453125 47.210938 C 99.515625 47.210938 104.574219 47.628906 107.628906 48.460938 C 110.734375 49.34375 114.894531 51.527344 120.101562 55.007812 C 124.308594 57.800781 127.667969 61.28125 130.171875 65.449219 C 133.125 70.253906 134.980469 73.933594 135.730469 76.480469 C 136.382812 78.6875 136.707031 82.019531 136.707031 86.484375 C 136.707031 95.210938 133.976562 105.089844 128.519531 116.121094 L 128.59375 116.265625 C 128.59375 116.707031 126.089844 120.042969 121.078125 126.269531 L 117.171875 131.34375 C 115.46875 133.449219 114.117188 134.773438 113.113281 135.3125 L 113.113281 135.753906 L 112.738281 135.902344 L 112.363281 135.753906 L 112.363281 135.605469 L 112.136719 135.605469 L 111.6875 135.535156 L 111.613281 135.167969 L 111.988281 134.945312 L 111.914062 134.726562 L 112.210938 134.355469 L 111.761719 129.652344 C 111.761719 127.003906 112.0625 125.359375 112.664062 124.722656 L 116.121094 115.015625 C 116.722656 113.300781 117.023438 109.671875 117.023438 104.132812 L 116.570312 100.675781 L 116.421875 100.601562 L 115.667969 98.835938 L 115.667969 94.203125 L 115.066406 92.953125 L 114.242188 93.027344 L 112.363281 93.101562 L 109.882812 93.835938 L 105.074219 95.085938 C 104.722656 95.085938 104.523438 93.761719 104.472656 91.117188 L 104.472656 91.042969 L 104.097656 91.042969 L 102.746094 85.527344 L 102.746094 86.410156 L 103.046875 86.410156 L 103.796875 92.070312 L 103.722656 95.527344 L 91.398438 96.117188 C 89.496094 96.117188 88.519531 95.824219 88.46875 95.234375 L 88.917969 93.617188 L 88.917969 93.542969 L 88.917969 93.617188 L 88.320312 95.234375 C 87.71875 96.164062 86.089844 96.605469 83.433594 96.558594 L 77.722656 96.261719 L 74.71875 95.96875 C 74.820312 94.839844 74.644531 93.347656 74.191406 91.484375 L 74.191406 91.042969 L 74.042969 91.042969 L 74.117188 88.617188 L 74.042969 86.628906 L 74.042969 86.410156 L 74.34375 86.410156 L 74.34375 84.570312 C 73.640625 86.628906 73.265625 88.785156 73.214844 91.042969 L 73.140625 91.042969 L 73.292969 94.71875 C 73.292969 96.140625 72.839844 96.851562 71.9375 96.851562 L 61.570312 96.632812 L 61.417969 96.335938 L 61.269531 95.675781 L 61.117188 94.351562 L 61.117188 91.042969 L 60.519531 91.042969 L 60.519531 94.5 C 60.71875 96.3125 60.390625 97.195312 59.539062 97.144531 L 56.609375 96.484375 L 56.609375 97.144531 L 57.8125 100.015625 L 57.8125 102.441406 L 57.511719 102.589844 L 57.4375 102.441406 C 55.933594 102.390625 54.082031 100.554688 51.875 96.925781 C 50.976562 95.503906 50.273438 94.105469 49.773438 92.734375 L 48.121094 87.511719 L 48.042969 84.863281 C 48.042969 80.550781 48.996094 75.867188 50.898438 70.820312 L 50.976562 70.746094 L 50.75 70.597656 C 50.75 70.253906 52.050781 68.367188 54.65625 64.9375 L 60.519531 57.730469 C 63.171875 54.589844 65.851562 52.484375 68.558594 51.402344 C 73.566406 49.199219 80.128906 47.824219 88.242188 47.285156 L 92.453125 47.210938 M 94.480469 69.640625 L 94.480469 74.054688 C 90.722656 68.710938 88.292969 66.039062 87.191406 66.039062 L 86.816406 66.1875 L 86.816406 71.261719 C 87.214844 76.066406 87.417969 79.863281 87.417969 82.660156 L 87.792969 82.804688 L 88.09375 82.804688 L 89.371094 83.246094 C 90.773438 83.246094 91.472656 82.585938 91.472656 81.261719 L 91.175781 76.921875 C 93.175781 78.882812 95.082031 81.238281 96.882812 83.980469 L 97.183594 83.835938 C 97.785156 78.835938 98.085938 73.636719 98.085938 68.246094 C 98.386719 66.382812 97.960938 65.449219 96.808594 65.449219 L 95.230469 65.597656 L 95.007812 65.304688 C 94.804688 65.648438 94.628906 67.09375 94.480469 69.640625 M 112.890625 64.863281 C 110.785156 64.863281 109.558594 65.058594 109.207031 65.449219 L 109.207031 66.332031 C 109.207031 68.832031 109.457031 70.820312 109.957031 72.289062 L 109.957031 73.464844 C 108.757812 71.554688 107.90625 70.597656 107.402344 70.597656 L 107.101562 70.671875 L 106.804688 71.332031 L 106.726562 71.261719 L 106.503906 66.996094 C 106.25 65.179688 105.148438 64.886719 103.195312 66.113281 L 102.820312 65.597656 L 102.445312 65.746094 L 102.445312 68.171875 L 103.046875 73.539062 C 103.445312 75.304688 103.648438 77.167969 103.648438 79.128906 L 103.648438 81.410156 L 103.046875 82.804688 C 103.046875 83.296875 104.023438 83.542969 105.976562 83.542969 C 107.628906 83.542969 108.429688 83.027344 108.378906 81.996094 L 108.304688 77.070312 C 108.804688 78.097656 109.65625 79.421875 110.859375 81.039062 C 112.011719 82.609375 112.714844 83.394531 112.964844 83.394531 L 113.265625 83.246094 L 113.265625 78.761719 L 113.339844 78.761719 C 114.089844 79.890625 114.617188 80.453125 114.917969 80.453125 L 115.367188 80.304688 L 115.367188 79.054688 L 114.691406 70.230469 C 114.492188 66.652344 113.890625 64.863281 112.890625 64.863281 M 114.390625 79.054688 L 114.542969 79.054688 L 114.542969 79.128906 L 114.390625 79.054688 M 82.234375 66.1875 C 81.832031 66.1875 81.15625 67.191406 80.203125 69.199219 L 78.101562 73.394531 L 78.023438 73.320312 C 78.324219 69.054688 78.101562 66.921875 77.347656 66.921875 L 73.515625 67.140625 C 73.265625 67.238281 73.140625 67.410156 73.140625 67.65625 L 72.539062 70.597656 L 72.390625 74.570312 L 72.390625 78.539062 C 72.140625 80.207031 71.789062 81.582031 71.335938 82.660156 C 71.335938 83.34375 72.164062 83.6875 73.816406 83.6875 C 74.570312 83.6875 75.09375 82.78125 75.394531 80.96875 L 75.769531 76.921875 L 77.199219 79.421875 C 77.75 79.421875 78.5 78.589844 79.453125 76.921875 L 79.453125 77.144531 C 79.152344 77.730469 79 78.785156 79 80.304688 C 79 81.582031 79.101562 82.363281 79.300781 82.660156 C 79.550781 83.050781 80.253906 83.246094 81.40625 83.246094 C 83.007812 83.246094 83.835938 82.929688 83.886719 82.289062 L 83.511719 80.746094 L 83.511719 78.027344 C 83.511719 70.132812 83.085938 66.1875 82.234375 66.1875 M 50.597656 83.835938 L 53.304688 84.277344 C 55.15625 84.277344 56.160156 83.6875 56.308594 82.511719 C 56.308594 80.355469 56.558594 78.246094 57.0625 76.1875 L 57.136719 76.1875 L 59.242188 80.746094 L 60.519531 79.863281 L 60.519531 80.011719 C 59.515625 81.628906 59.015625 83.050781 59.015625 84.277344 C 59.015625 84.765625 60.042969 85.011719 62.09375 85.011719 C 64.25 85.011719 65.375 84.546875 65.476562 83.613281 C 65.675781 80.429688 66.027344 78.097656 66.527344 76.628906 L 69.984375 68.097656 L 69.910156 67.730469 L 67.355469 67.363281 C 66.402344 66.773438 65.652344 66.480469 65.101562 66.480469 C 64.300781 66.480469 63.347656 67.777344 62.246094 70.378906 L 59.765625 75.746094 L 59.765625 74.570312 L 62.171875 67.4375 L 62.171875 67.214844 L 62.09375 66.996094 L 59.992188 66.773438 C 58.539062 66.773438 57.160156 67.484375 55.859375 68.90625 C 54.355469 70.523438 53.453125 72.632812 53.152344 75.230469 C 51.449219 79.449219 50.597656 82.316406 50.597656 83.835938 M 134.003906 78.539062 C 134.003906 77.117188 133.578125 74.886719 132.726562 71.847656 C 132.476562 71.0625 131.75 69.863281 130.546875 68.246094 C 129.09375 66.1875 127.839844 65.15625 126.789062 65.15625 C 125.6875 65.15625 125.136719 65.277344 125.136719 65.523438 L 126.039062 69.421875 L 126.039062 70.597656 L 125.964844 70.597656 C 123.410156 66.871094 121.957031 65.007812 121.605469 65.007812 L 119.425781 65.964844 C 117.621094 66.160156 116.722656 66.429688 116.722656 66.773438 C 116.722656 67.214844 117.421875 68.785156 118.824219 71.480469 C 120.226562 74.667969 120.929688 77.730469 120.929688 80.671875 L 120.328125 82.070312 L 120.402344 82.4375 L 121.152344 82.511719 C 123.207031 82.511719 124.460938 82.167969 124.910156 81.480469 L 124.984375 79.9375 L 124.386719 74.570312 L 126.640625 77.214844 L 128.21875 74.496094 L 128.292969 74.644531 C 128.992188 79.300781 129.519531 81.628906 129.871094 81.628906 L 130.773438 81.628906 L 130.773438 81.703125 L 131.222656 81.777344 L 133.925781 81.628906 L 134.003906 81.261719 L 134.003906 78.539062 M 112.511719 81.703125 L 112.511719 81.777344 L 112.4375 81.703125 L 112.511719 81.703125 "/>
<path style=" stroke:none;fill-rule:evenodd;fill:rgb(100%,100%,100%);fill-opacity:1;" d="M 112.890625 64.863281 C 113.890625 64.863281 114.492188 66.652344 114.691406 70.230469 L 115.367188 79.054688 L 115.367188 80.304688 L 114.917969 80.453125 C 114.617188 80.453125 114.089844 79.890625 113.339844 78.761719 L 113.265625 78.761719 L 113.265625 83.246094 L 112.964844 83.394531 C 112.714844 83.394531 112.011719 82.609375 110.859375 81.039062 C 109.65625 79.421875 108.804688 78.097656 108.304688 77.070312 L 108.378906 81.996094 C 108.429688 83.027344 107.628906 83.542969 105.976562 83.542969 C 104.023438 83.542969 103.046875 83.296875 103.046875 82.804688 L 103.648438 81.410156 L 103.648438 79.128906 C 103.648438 77.167969 103.445312 75.304688 103.046875 73.539062 L 102.445312 68.171875 L 102.445312 65.746094 L 102.820312 65.597656 L 103.195312 66.113281 C 105.148438 64.886719 106.25 65.179688 106.503906 66.996094 L 106.726562 71.261719 L 106.804688 71.332031 L 107.101562 70.671875 L 107.402344 70.597656 C 107.90625 70.597656 108.757812 71.554688 109.957031 73.464844 L 109.957031 72.289062 C 109.457031 70.820312 109.207031 68.832031 109.207031 66.332031 L 109.207031 65.449219 C 109.558594 65.058594 110.785156 64.863281 112.890625 64.863281 M 94.480469 69.640625 C 94.628906 67.09375 94.804688 65.648438 95.007812 65.304688 L 95.230469 65.597656 L 96.808594 65.449219 C 97.960938 65.449219 98.386719 66.382812 98.085938 68.246094 C 98.085938 73.636719 97.785156 78.835938 97.183594 83.835938 L 96.882812 83.980469 C 95.082031 81.238281 93.175781 78.882812 91.175781 76.921875 L 91.472656 81.261719 C 91.472656 82.585938 90.773438 83.246094 89.371094 83.246094 L 88.09375 82.804688 L 87.792969 82.804688 L 87.417969 82.660156 C 87.417969 79.863281 87.214844 76.066406 86.816406 71.261719 L 86.816406 66.1875 L 87.191406 66.039062 C 88.292969 66.039062 90.722656 68.710938 94.480469 74.054688 L 94.480469 69.640625 M 114.390625 79.054688 L 114.542969 79.128906 L 114.542969 79.054688 L 114.390625 79.054688 M 112.511719 81.703125 L 112.4375 81.703125 L 112.511719 81.777344 L 112.511719 81.703125 M 134.003906 78.539062 L 134.003906 81.261719 L 133.925781 81.628906 L 131.222656 81.777344 L 130.773438 81.703125 L 130.773438 81.628906 L 129.871094 81.628906 C 129.519531 81.628906 128.992188 79.300781 128.292969 74.644531 L 128.21875 74.496094 L 126.640625 77.214844 L 124.386719 74.570312 L 124.984375 79.9375 L 124.910156 81.480469 C 124.460938 82.167969 123.207031 82.511719 121.152344 82.511719 L 120.402344 82.4375 L 120.328125 82.070312 L 120.929688 80.671875 C 120.929688 77.730469 120.226562 74.667969 118.824219 71.480469 C 117.421875 68.785156 116.722656 67.214844 116.722656 66.773438 C 116.722656 66.429688 117.621094 66.160156 119.425781 65.964844 L 121.605469 65.007812 C 121.957031 65.007812 123.410156 66.871094 125.964844 70.597656 L 126.039062 70.597656 L 126.039062 69.421875 L 125.136719 65.523438 C 125.136719 65.277344 125.6875 65.15625 126.789062 65.15625 C 127.839844 65.15625 129.09375 66.1875 130.546875 68.246094 C 131.75 69.863281 132.476562 71.0625 132.726562 71.847656 C 133.578125 74.886719 134.003906 77.117188 134.003906 78.539062 M 50.597656 83.835938 C 50.597656 82.316406 51.449219 79.449219 53.152344 75.230469 C 53.453125 72.632812 54.355469 70.523438 55.859375 68.90625 C 57.160156 67.484375 58.539062 66.773438 59.992188 66.773438 L 62.09375 66.996094 L 62.171875 67.214844 L 62.171875 67.4375 L 59.765625 74.570312 L 59.765625 75.746094 L 62.246094 70.378906 C 63.347656 67.777344 64.300781 66.480469 65.101562 66.480469 C 65.652344 66.480469 66.402344 66.773438 67.355469 67.363281 L 69.910156 67.730469 L 69.984375 68.097656 L 66.527344 76.628906 C 66.027344 78.097656 65.675781 80.429688 65.476562 83.613281 C 65.375 84.546875 64.25 85.011719 62.09375 85.011719 C 60.042969 85.011719 59.015625 84.765625 59.015625 84.277344 C 59.015625 83.050781 59.515625 81.628906 60.519531 80.011719 L 60.519531 79.863281 L 59.242188 80.746094 L 57.136719 76.1875 L 57.0625 76.1875 C 56.558594 78.246094 56.308594 80.355469 56.308594 82.511719 C 56.160156 83.6875 55.15625 84.277344 53.304688 84.277344 L 50.597656 83.835938 M 82.234375 66.1875 C 83.085938 66.1875 83.511719 70.132812 83.511719 78.027344 L 83.511719 80.746094 L 83.886719 82.289062 C 83.835938 82.929688 83.007812 83.246094 81.40625 83.246094 C 80.253906 83.246094 79.550781 83.050781 79.300781 82.660156 C 79.101562 82.363281 79 81.582031 79 80.304688 C 79 78.785156 79.152344 77.730469 79.453125 77.144531 L 79.453125 76.921875 C 78.5 78.589844 77.75 79.421875 77.199219 79.421875 L 75.769531 76.921875 L 75.394531 80.96875 C 75.09375 82.78125 74.570312 83.6875 73.816406 83.6875 C 72.164062 83.6875 71.335938 83.34375 71.335938 82.660156 C 71.789062 81.582031 72.140625 80.207031 72.390625 78.539062 L 72.390625 74.570312 L 72.539062 70.597656 L 73.140625 67.65625 C 73.140625 67.410156 73.265625 67.238281 73.515625 67.140625 L 77.347656 66.921875 C 78.101562 66.921875 78.324219 69.054688 78.023438 73.320312 L 78.101562 73.394531 L 80.203125 69.199219 C 81.15625 67.191406 81.832031 66.1875 82.234375 66.1875 "/>
</g>
</svg>
