<?xml version="1.0" encoding="UTF-8"?>
<svg xmlns="http://www.w3.org/2000/svg" xmlns:xlink="http://www.w3.org/1999/xlink" width="197px" height="209px" viewBox="0 0 197 209" version="1.1">
<g id="surface1">
<path style=" stroke:none;fill-rule:evenodd;fill:rgb(0%,0%,0%);fill-opacity:1;" d="M 55.410156 79.9375 L 55.332031 80.011719 L 55.558594 80.230469 L 55.257812 80.304688 L 54.882812 80.160156 L 54.808594 80.160156 L 54.28125 80.085938 L 54.207031 79.789062 L 53.980469 79.644531 L 53.679688 79.9375 L 51.425781 79.570312 C 50.171875 79.765625 49.171875 80.085938 48.421875 80.527344 L 46.015625 82.070312 L 45.640625 81.554688 C 45.640625 80.820312 45.789062 80.230469 46.089844 79.789062 L 46.089844 79.128906 C 43.585938 79.71875 41.785156 80.355469 40.679688 81.039062 C 40.378906 81.039062 40.230469 80.746094 40.230469 80.160156 C 40.230469 78.882812 40.65625 77.460938 41.507812 75.894531 L 41.582031 75.820312 L 34.144531 78.394531 L 33.695312 78.320312 L 33.617188 77.953125 C 33.617188 77.070312 34.121094 75.328125 35.121094 72.730469 C 36.324219 69.789062 37.574219 67.507812 38.878906 65.890625 L 35.871094 66.332031 C 35.269531 66.332031 34.972656 66.1875 34.972656 65.890625 C 34.972656 65.402344 35.648438 64.714844 37 63.832031 L 37.148438 63.757812 L 35.421875 63.832031 L 34.746094 63.757812 L 34.671875 63.390625 L 36.925781 61.039062 C 38.378906 59.617188 39.253906 58.832031 39.554688 58.683594 L 39.628906 58.609375 L 30.085938 55.890625 L 30.011719 55.597656 C 30.011719 55.15625 34.167969 53.4375 42.484375 50.449219 C 37.824219 48.730469 35.320312 47.679688 34.972656 47.285156 L 34.972656 47.210938 C 38.476562 45.203125 42.585938 43.757812 47.292969 42.875 C 44.839844 41.5 43.335938 40.542969 42.785156 40.003906 L 42.933594 39.710938 L 48.871094 39.5625 L 57.136719 39.933594 L 60.59375 39.933594 C 58.539062 37.53125 57.511719 36.011719 57.511719 35.371094 L 57.585938 35.078125 L 57.964844 35.003906 L 69.835938 41.328125 L 70.136719 37.652344 L 70.511719 37.503906 L 75.320312 43.609375 L 75.394531 42.652344 C 75.445312 42.066406 75.671875 41.769531 76.070312 41.769531 C 77.171875 41.769531 77.699219 43.019531 77.648438 45.519531 L 77.199219 49.125 L 92.75 48.683594 L 100.191406 48.757812 C 100.542969 48.019531 102.070312 45.890625 104.773438 42.359375 C 105.175781 42.359375 105.324219 43.167969 105.226562 44.785156 L 105.226562 45.816406 L 105.449219 45.375 L 105.449219 45.449219 C 111.8125 41.035156 115.996094 37.921875 118 36.109375 L 118.375 36.695312 L 116.945312 39.933594 L 116.945312 40.003906 C 117.648438 40.003906 118.5 39.636719 119.5 38.902344 L 119.875 39.417969 L 119.277344 40.445312 L 119.277344 40.742188 L 135.054688 38.019531 L 135.582031 38.09375 L 135.65625 38.386719 C 131.796875 41.378906 129.019531 44 127.316406 46.257812 C 130.773438 46.160156 132.726562 46.183594 133.175781 46.328125 L 134.226562 47.066406 C 136.480469 47.703125 137.609375 48.09375 137.609375 48.242188 L 132.574219 50.816406 L 132.5 50.964844 L 137.007812 52.140625 C 136.859375 52.484375 136.480469 52.65625 135.882812 52.65625 L 144.972656 56.109375 C 143.121094 56.550781 140.664062 57.460938 137.609375 58.832031 L 141.515625 62.289062 C 141.515625 62.484375 141.242188 62.582031 140.691406 62.582031 C 139.789062 62.582031 138.863281 62.828125 137.910156 63.316406 C 139.613281 64.691406 140.464844 65.621094 140.464844 66.113281 L 134.378906 66.921875 L 134.304688 66.996094 L 140.238281 72.363281 C 143.292969 75.402344 144.824219 77.386719 144.824219 78.320312 L 144.746094 78.6875 L 144.144531 78.761719 L 136.480469 76.628906 L 136.40625 76.703125 L 138.8125 80.085938 L 140.164062 83.394531 L 140.164062 84.421875 L 139.789062 84.496094 L 130.996094 80.671875 L 131.597656 81.921875 L 131.597656 83.027344 L 131.222656 83.171875 C 128.316406 81.652344 126.164062 80.648438 124.761719 80.160156 L 124.308594 80.453125 L 123.859375 80.160156 L 123.332031 80.160156 L 123.332031 80.085938 C 123.332031 79.890625 122.90625 79.765625 122.054688 79.71875 L 117.472656 77.4375 C 113.617188 75.964844 111.460938 75.035156 111.011719 74.644531 L 103.496094 68.097656 C 101.394531 65.351562 100.140625 63.144531 99.738281 61.480469 C 99.238281 59.566406 98.988281 57.386719 98.988281 54.933594 C 98.988281 52.582031 99.265625 50.863281 99.816406 49.785156 L 92.675781 49.492188 L 77.648438 49.859375 L 77.347656 49.859375 L 77.347656 50.152344 C 77.347656 53.4375 74.492188 58.5625 68.78125 65.523438 L 63.523438 71.773438 L 56.085938 79.496094 L 55.933594 79.421875 L 55.632812 79.71875 L 55.410156 79.789062 L 55.410156 79.9375 M 133.476562 39.125 L 133.550781 38.976562 L 133.476562 38.976562 L 119.050781 41.550781 C 118.300781 41.550781 118.125 41.132812 118.523438 40.300781 L 118.523438 40.078125 L 115.96875 41.84375 L 115.667969 41.769531 L 115.519531 41.402344 C 115.519531 40.960938 115.945312 39.957031 116.796875 38.386719 L 116.796875 38.242188 L 116.722656 38.3125 L 105.300781 46.699219 L 105.148438 46.699219 L 105.074219 47.210938 L 104.925781 47.285156 L 104.472656 47.210938 L 104.472656 43.828125 L 104.398438 43.757812 L 104.398438 43.828125 L 100.566406 49.417969 L 100.339844 49.417969 L 100.265625 49.785156 L 100.039062 51.625 L 99.738281 52.066406 L 99.738281 55.375 C 99.789062 58.660156 100.441406 61.601562 101.691406 64.199219 L 101.769531 64.496094 L 101.917969 64.496094 C 102.519531 65.769531 103.296875 66.921875 104.25 67.949219 C 106.804688 70.890625 109.433594 73 112.136719 74.273438 L 116.945312 76.480469 L 121.753906 78.980469 L 123.632812 80.011719 L 123.859375 79.863281 L 123.558594 79.789062 L 123.484375 79.496094 L 123.558594 79.421875 C 123.609375 79.277344 123.808594 79.203125 124.160156 79.203125 L 124.761719 79.277344 L 124.910156 79.203125 L 125.136719 79.421875 C 126.1875 79.765625 128.042969 80.574219 130.695312 81.851562 L 129.796875 79.71875 L 129.871094 79.421875 L 130.246094 79.347656 L 139.261719 83.542969 L 139.335938 83.542969 C 138.136719 80.699219 136.707031 78.199219 135.054688 76.039062 L 135.804688 75.820312 L 143.246094 77.4375 L 143.394531 77.4375 L 143.394531 77.363281 C 141.390625 74.8125 138.960938 72.289062 136.105469 69.789062 L 132.648438 66.628906 L 139.335938 65.890625 L 136.558594 63.246094 C 136.90625 62.804688 138.210938 62.410156 140.464844 62.066406 L 136.40625 58.90625 C 136.457031 58.5625 138.035156 57.777344 141.140625 56.550781 L 142.867188 55.742188 L 142.792969 55.449219 L 142.417969 55.375 L 141.367188 55.523438 C 134.753906 53.023438 131.449219 51.550781 131.449219 51.109375 L 135.429688 48.390625 L 133.027344 47.433594 C 130.621094 46.601562 128.691406 46.28125 127.242188 46.476562 L 126.039062 46.550781 C 126.039062 45.960938 127.214844 44.613281 129.570312 42.507812 L 133.476562 39.125 M 67.65625 65.671875 L 68.40625 64.714844 L 74.117188 56.992188 L 76.671875 50.152344 L 76.296875 50.082031 L 76.296875 49.859375 L 76.070312 49.859375 L 76.296875 49.417969 L 76.296875 49.199219 C 76.699219 48.414062 76.898438 47.1875 76.898438 45.519531 C 76.898438 44.34375 76.722656 43.707031 76.371094 43.609375 L 76.296875 43.609375 C 76.445312 44.34375 76.246094 44.738281 75.695312 44.785156 L 75.695312 45.152344 L 75.621094 45.519531 L 74.644531 44.492188 L 73.96875 43.609375 C 72.414062 41.695312 71.363281 40.175781 70.8125 39.050781 L 70.738281 39.050781 L 70.738281 40.886719 C 70.6875 41.769531 70.4375 42.210938 69.984375 42.210938 L 59.765625 36.992188 L 59.691406 37.0625 C 60.945312 38.042969 61.570312 39.097656 61.570312 40.226562 C 61.570312 40.570312 60.792969 40.742188 59.242188 40.742188 L 44.4375 40.375 L 48.796875 43.167969 L 48.722656 43.535156 C 46.71875 43.585938 44.3125 44.125 41.507812 45.152344 L 36.472656 47.210938 L 36.398438 47.210938 L 36.472656 47.285156 C 39.027344 48.019531 41.582031 49.027344 44.136719 50.300781 L 32.191406 55.375 L 31.964844 55.375 L 32.039062 55.375 L 31.589844 55.597656 L 40.980469 58.390625 L 35.949219 62.949219 L 37.226562 62.949219 C 38.125 62.949219 38.578125 63.074219 38.578125 63.316406 L 36.171875 65.449219 L 36.097656 65.597656 L 36.25 65.597656 L 39.402344 65.007812 L 40.003906 65.082031 L 40.082031 65.375 C 40.082031 66.015625 38.902344 68.023438 36.546875 71.40625 L 34.820312 77.214844 L 41.957031 74.863281 L 42.335938 75.597656 L 40.980469 80.011719 L 40.980469 80.160156 L 41.058594 80.160156 L 46.316406 78.246094 C 46.816406 78.246094 46.917969 79.128906 46.617188 80.894531 C 48.070312 79.472656 49.472656 78.738281 50.824219 78.6875 L 51.050781 78.394531 L 54.207031 78.90625 L 54.355469 78.980469 L 54.65625 78.980469 L 54.507812 79.128906 L 54.730469 79.347656 L 58.941406 76.1875 C 60.292969 75.109375 61.46875 73.832031 62.472656 72.363281 L 63.523438 70.890625 L 65.25 68.6875 L 65.550781 68.6875 L 65.925781 68.464844 L 65.703125 68.097656 L 67.65625 65.671875 "/>
<path style=" stroke:none;fill-rule:evenodd;fill:rgb(40.000001%,20%,0%);fill-opacity:1;" d="M 133.550781 38.976562 L 133.476562 39.125 L 133.476562 38.976562 L 133.550781 38.976562 M 141.140625 56.550781 C 138.035156 57.777344 136.457031 58.5625 136.40625 58.90625 L 140.464844 62.066406 C 138.210938 62.410156 136.90625 62.804688 136.558594 63.246094 L 139.335938 65.890625 L 132.648438 66.628906 L 136.105469 69.789062 C 138.960938 72.289062 141.390625 74.8125 143.394531 77.363281 L 143.246094 77.4375 L 135.804688 75.820312 L 135.054688 76.039062 C 136.707031 78.199219 138.136719 80.699219 139.335938 83.542969 L 139.261719 83.542969 L 130.246094 79.347656 L 129.871094 79.421875 L 129.796875 79.71875 L 130.695312 81.851562 C 128.042969 80.574219 126.1875 79.765625 125.136719 79.421875 L 124.910156 79.203125 L 124.761719 79.277344 L 124.160156 79.203125 C 123.808594 79.203125 123.609375 79.277344 123.558594 79.421875 L 123.484375 79.496094 L 123.558594 79.789062 L 123.859375 79.863281 L 123.632812 80.011719 L 121.753906 78.980469 L 116.945312 76.480469 L 112.136719 74.273438 C 109.433594 73 106.804688 70.890625 104.25 67.949219 C 103.296875 66.921875 102.519531 65.769531 101.917969 64.496094 L 101.769531 64.496094 L 101.691406 64.199219 L 101.691406 63.980469 L 102.21875 63.316406 L 103.347656 62.433594 C 103.796875 62.140625 104.199219 61.921875 104.546875 61.773438 C 105.148438 61.429688 105.675781 61.257812 106.125 61.257812 C 106.527344 61.257812 106.726562 61.480469 106.726562 61.921875 L 106.125 63.464844 L 106.726562 64.714844 L 107.179688 64.714844 L 109.957031 62.507812 L 110.257812 62.582031 C 110.558594 62.582031 112.085938 61.992188 114.84375 60.816406 L 114.84375 60.964844 C 114.292969 61.601562 114.015625 62.605469 114.015625 63.980469 L 114.46875 65.082031 L 123.332031 59.050781 L 123.332031 59.125 C 122.832031 60.203125 122.582031 61.039062 122.582031 61.625 L 123.109375 62.730469 L 127.316406 59.714844 L 126.339844 62.65625 L 126.789062 63.757812 C 127.191406 63.757812 129.09375 62.3125 132.5 59.421875 C 134.203125 58.242188 135.332031 57.605469 135.882812 57.507812 L 140.464844 56.699219 L 141.140625 56.550781 M 114.765625 63.539062 L 114.84375 63.683594 L 114.765625 63.683594 L 114.765625 63.539062 M 105.675781 62.363281 L 105.074219 62.730469 L 105.375 63.316406 L 105.675781 62.730469 L 105.675781 62.363281 M 123.410156 61.257812 L 123.332031 61.257812 L 123.332031 61.113281 L 123.410156 61.257812 M 127.164062 62.582031 L 127.089844 62.582031 L 127.089844 62.433594 L 127.164062 62.582031 M 32.039062 55.375 L 43.613281 57.359375 L 49.246094 59.125 C 49.648438 59.125 49.847656 58.757812 49.847656 58.023438 L 49.097656 55.523438 L 49.320312 55.523438 L 52.628906 57.65625 L 53.304688 57.140625 C 52.855469 56.796875 52.628906 56.40625 52.628906 55.964844 L 58.113281 58.097656 C 58.414062 58.097656 58.5625 57.898438 58.5625 57.507812 L 57.664062 55.007812 C 59.617188 55.546875 61.695312 56.257812 63.898438 57.140625 C 64.148438 57.1875 64.550781 57.410156 65.101562 57.800781 C 65.800781 57.851562 66.480469 58.441406 67.128906 59.566406 L 67.503906 60.15625 L 67.429688 60.230469 L 68.332031 62.65625 L 68.332031 63.097656 C 68.28125 64.371094 68.054688 65.207031 67.65625 65.597656 L 67.65625 65.671875 L 65.703125 68.097656 L 65.925781 68.464844 L 65.550781 68.6875 L 65.25 68.6875 L 63.523438 70.890625 L 62.472656 72.363281 C 61.46875 73.832031 60.292969 75.109375 58.941406 76.1875 L 54.730469 79.347656 L 54.507812 79.128906 L 54.65625 78.980469 L 54.355469 78.980469 L 54.207031 78.90625 L 51.050781 78.394531 L 50.824219 78.6875 C 49.472656 78.738281 48.070312 79.472656 46.617188 80.894531 C 46.917969 79.128906 46.816406 78.246094 46.316406 78.246094 L 41.058594 80.160156 L 40.980469 80.011719 L 42.335938 75.597656 L 41.957031 74.863281 L 34.820312 77.214844 L 36.546875 71.40625 C 38.902344 68.023438 40.082031 66.015625 40.082031 65.375 L 40.003906 65.082031 L 39.402344 65.007812 L 36.25 65.597656 L 36.171875 65.449219 L 38.578125 63.316406 C 38.578125 63.074219 38.125 62.949219 37.226562 62.949219 L 35.949219 62.949219 L 40.980469 58.390625 L 31.589844 55.597656 L 32.039062 55.375 M 51.726562 56.109375 L 51.800781 56.109375 L 51.726562 56.109375 "/>
<path style=" stroke:none;fill-rule:evenodd;fill:rgb(60.000002%,40.000001%,0%);fill-opacity:1;" d="M 133.476562 38.976562 L 133.476562 39.125 L 129.570312 42.507812 C 127.214844 44.613281 126.039062 45.960938 126.039062 46.550781 L 127.242188 46.476562 C 128.691406 46.28125 130.621094 46.601562 133.027344 47.433594 L 135.429688 48.390625 L 131.449219 51.109375 C 131.449219 51.550781 134.753906 53.023438 141.367188 55.523438 L 142.417969 55.375 L 142.792969 55.449219 L 142.867188 55.742188 L 141.140625 56.550781 L 140.464844 56.699219 L 135.882812 57.507812 C 135.332031 57.605469 134.203125 58.242188 132.5 59.421875 C 129.09375 62.3125 127.191406 63.757812 126.789062 63.757812 L 126.339844 62.65625 L 127.316406 59.714844 L 123.109375 62.730469 L 122.582031 61.625 C 122.582031 61.039062 122.832031 60.203125 123.332031 59.125 L 123.332031 59.050781 L 114.46875 65.082031 L 114.015625 63.980469 C 114.015625 62.605469 114.292969 61.601562 114.84375 60.964844 L 114.84375 60.816406 C 112.085938 61.992188 110.558594 62.582031 110.257812 62.582031 L 109.957031 62.507812 L 107.179688 64.714844 L 106.726562 64.714844 L 106.125 63.464844 L 106.726562 61.921875 C 106.726562 61.480469 106.527344 61.257812 106.125 61.257812 C 105.675781 61.257812 105.148438 61.429688 104.546875 61.773438 C 104.199219 61.921875 103.796875 62.140625 103.347656 62.433594 L 102.21875 63.316406 L 101.691406 63.980469 L 101.691406 64.199219 C 100.441406 61.601562 99.789062 58.660156 99.738281 55.375 L 99.738281 52.066406 L 100.039062 51.625 L 100.265625 49.785156 L 100.339844 49.417969 L 100.566406 49.417969 L 104.398438 43.828125 L 104.472656 43.828125 L 104.472656 47.210938 L 104.925781 47.285156 L 105.074219 47.210938 L 105.148438 46.699219 L 105.300781 46.699219 L 116.722656 38.3125 L 116.796875 38.386719 C 115.945312 39.957031 115.519531 40.960938 115.519531 41.402344 L 115.667969 41.769531 L 115.96875 41.84375 L 118.523438 40.078125 L 118.523438 40.300781 C 118.125 41.132812 118.300781 41.550781 119.050781 41.550781 L 133.476562 38.976562 M 105.675781 62.363281 L 105.675781 62.730469 L 105.375 63.316406 L 105.074219 62.730469 L 105.675781 62.363281 M 114.765625 63.539062 L 114.765625 63.683594 L 114.84375 63.683594 L 114.765625 63.539062 M 127.164062 62.582031 L 127.089844 62.433594 L 127.089844 62.582031 L 127.164062 62.582031 M 123.410156 61.257812 L 123.332031 61.113281 L 123.332031 61.257812 L 123.410156 61.257812 M 36.472656 47.210938 L 41.507812 45.152344 C 44.3125 44.125 46.71875 43.585938 48.722656 43.535156 L 48.796875 43.167969 L 44.4375 40.375 L 59.242188 40.742188 C 60.792969 40.742188 61.570312 40.570312 61.570312 40.226562 C 61.570312 39.097656 60.945312 38.042969 59.691406 37.0625 L 59.765625 36.992188 L 69.984375 42.210938 C 70.4375 42.210938 70.6875 41.769531 70.738281 40.886719 L 70.738281 39.050781 L 70.8125 39.050781 C 71.363281 40.175781 72.414062 41.695312 73.96875 43.609375 L 74.644531 44.492188 L 75.621094 45.519531 L 75.695312 45.152344 L 75.695312 44.785156 C 76.246094 44.738281 76.445312 44.34375 76.296875 43.609375 L 76.371094 43.609375 C 76.722656 43.707031 76.898438 44.34375 76.898438 45.519531 C 76.898438 47.1875 76.699219 48.414062 76.296875 49.199219 L 76.296875 49.417969 L 76.070312 49.859375 L 76.296875 49.859375 L 76.296875 50.082031 L 76.671875 50.152344 L 74.117188 56.992188 L 68.40625 64.714844 L 67.65625 65.671875 L 67.65625 65.597656 C 68.054688 65.207031 68.28125 64.371094 68.332031 63.097656 L 68.332031 62.65625 L 67.429688 60.230469 L 67.503906 60.15625 L 67.128906 59.566406 C 66.480469 58.441406 65.800781 57.851562 65.101562 57.800781 C 64.550781 57.410156 64.148438 57.1875 63.898438 57.140625 C 61.695312 56.257812 59.617188 55.546875 57.664062 55.007812 L 58.5625 57.507812 C 58.5625 57.898438 58.414062 58.097656 58.113281 58.097656 L 52.628906 55.964844 C 52.628906 56.40625 52.855469 56.796875 53.304688 57.140625 L 52.628906 57.65625 L 49.320312 55.523438 L 49.097656 55.523438 L 49.847656 58.023438 C 49.847656 58.757812 49.648438 59.125 49.246094 59.125 L 43.613281 57.359375 L 32.039062 55.375 L 31.964844 55.375 L 32.191406 55.375 L 44.136719 50.300781 C 41.582031 49.027344 39.027344 48.019531 36.472656 47.285156 L 36.472656 47.210938 M 51.726562 56.109375 L 51.800781 56.109375 L 51.726562 56.109375 "/>
<path style=" stroke:none;fill-rule:evenodd;fill:rgb(0%,0%,60.000002%);fill-opacity:1;" d="M 123.332031 80.160156 L 123.257812 80.453125 L 119.050781 80.746094 L 114.46875 81.480469 L 109.65625 81.113281 L 109.65625 81.261719 L 109.058594 81.335938 C 108.757812 80.796875 106.753906 80.527344 103.046875 80.527344 L 98.160156 80.894531 L 98.011719 80.894531 L 88.019531 81.335938 L 73.742188 81.777344 L 73.667969 82.070312 L 71.488281 82.070312 L 58.1875 81.113281 C 56.9375 80.96875 56.132812 80.722656 55.785156 80.378906 L 55.632812 80.230469 L 55.410156 79.9375 L 55.410156 79.789062 L 55.632812 79.71875 L 55.933594 79.421875 L 56.085938 79.496094 L 63.523438 71.773438 L 68.78125 65.523438 C 74.492188 58.5625 77.347656 53.4375 77.347656 50.152344 L 77.347656 49.859375 L 77.648438 49.859375 L 92.675781 49.492188 L 99.816406 49.785156 C 99.265625 50.863281 98.988281 52.582031 98.988281 54.933594 C 98.988281 57.386719 99.238281 59.566406 99.738281 61.480469 C 100.140625 63.144531 101.394531 65.351562 103.496094 68.097656 L 111.011719 74.644531 C 111.460938 75.035156 113.617188 75.964844 117.472656 77.4375 L 122.054688 79.71875 C 122.90625 79.765625 123.332031 79.890625 123.332031 80.085938 L 123.332031 80.160156 "/>
</g>
</svg>
