<?xml version="1.0" encoding="UTF-8"?>
<svg xmlns="http://www.w3.org/2000/svg" xmlns:xlink="http://www.w3.org/1999/xlink" width="197px" height="209px" viewBox="0 0 197 209" version="1.1">
<g id="surface1">
<path style=" stroke:none;fill-rule:evenodd;fill:rgb(0%,0%,0%);fill-opacity:1;" d="M 66.679688 41.550781 L 68.558594 39.5625 L 73.367188 34.417969 L 74.792969 32.871094 C 79.503906 28.605469 84.1875 25.566406 88.84375 23.753906 C 99.664062 19.734375 107.230469 17.722656 111.535156 17.722656 C 112.339844 17.722656 112.6875 17.917969 112.589844 18.3125 C 110.382812 19.535156 108.957031 20.46875 108.304688 21.105469 L 105.824219 24.121094 C 103.921875 26.328125 102.644531 28.335938 101.992188 30.152344 L 101.917969 30.296875 L 101.992188 30.296875 L 115.292969 25.078125 C 115.84375 25.078125 116.121094 25.273438 116.121094 25.664062 L 115.59375 26.179688 L 122.882812 23.972656 L 129.644531 22.28125 L 136.859375 19.855469 C 137.410156 19.855469 137.683594 20.078125 137.683594 20.519531 C 137.683594 23.117188 135.179688 27.160156 130.171875 32.652344 L 130.09375 32.726562 L 130.171875 32.726562 L 140.691406 28.828125 C 141.292969 28.828125 141.589844 29.074219 141.589844 29.5625 C 141.589844 30.835938 140.339844 33.140625 137.835938 36.476562 C 137.234375 37.703125 135.707031 39.589844 133.25 42.136719 L 142.492188 42.726562 L 156.242188 41.035156 C 162.804688 39.90625 167.613281 39.34375 170.671875 39.34375 C 172.625 39.34375 173.601562 39.539062 173.601562 39.933594 L 159.699219 51.550781 C 155.042969 55.425781 148.304688 59.199219 139.488281 62.875 C 149.457031 62.828125 154.441406 63.441406 154.441406 64.714844 L 154.140625 65.230469 L 154.140625 65.375 C 147.175781 68.660156 142.617188 70.5 140.464844 70.890625 L 147.300781 72.140625 L 148.355469 72.363281 C 148.355469 73.832031 143.121094 75.820312 132.648438 78.320312 C 133.550781 79.449219 134.628906 82.4375 135.882812 87.292969 C 136.183594 88.617188 137.234375 91.800781 139.035156 96.851562 C 139.035156 97.539062 138.835938 97.882812 138.4375 97.882812 L 132.125 91.042969 L 133.402344 96.851562 C 133.402344 97.636719 133.203125 98.027344 132.800781 98.027344 L 132.726562 97.808594 L 132.648438 97.808594 C 132.398438 97.808594 131.5 96.753906 129.945312 94.644531 C 127.941406 92 125.789062 89.792969 123.484375 88.027344 L 123.410156 87.953125 L 123.484375 88.101562 L 123.707031 89.351562 C 123.707031 90.183594 123.507812 90.601562 123.109375 90.601562 C 121.707031 90.0625 120.628906 89.425781 119.875 88.6875 L 119.652344 88.6875 L 119.652344 88.761719 C 120.351562 90.625 120.703125 92.734375 120.703125 95.085938 L 120.402344 98.835938 L 120.402344 98.910156 C 120.402344 99.402344 120.203125 99.644531 119.800781 99.644531 C 119.300781 99.644531 118.125 98.101562 116.269531 95.011719 L 112.0625 87.878906 L 111.988281 87.878906 C 111.988281 91.851562 111.738281 93.835938 111.234375 93.835938 L 105.824219 85.671875 C 104.421875 83.515625 102.945312 81.75 101.394531 80.378906 L 103.871094 85.671875 C 103.871094 86.164062 103.621094 86.410156 103.121094 86.410156 C 102.570312 86.410156 100.917969 85.257812 98.160156 82.953125 L 99.136719 86.851562 C 99.136719 87.339844 98.9375 87.585938 98.539062 87.585938 C 97.785156 87.585938 96.984375 86.972656 96.132812 85.746094 L 94.78125 83.613281 L 90.875 81.039062 L 89.519531 82.21875 C 88.917969 82.21875 88.542969 82.070312 88.394531 81.777344 L 88.394531 81.554688 C 87.441406 81.507812 86.816406 80.769531 86.515625 79.347656 L 84.9375 80.671875 C 84.585938 80.671875 84.136719 80.160156 83.585938 79.128906 L 82.082031 79.644531 C 81.382812 79.644531 80.453125 78.664062 79.300781 76.703125 L 77.949219 77.65625 C 77.699219 77.65625 77.25 77.339844 76.597656 76.703125 L 76.597656 77.65625 C 76.546875 77.953125 76.171875 78.097656 75.46875 78.097656 L 73.667969 77.585938 C 72.0625 78.367188 71.085938 79.25 70.738281 80.230469 C 70.136719 81.996094 69.535156 82.878906 68.933594 82.878906 L 67.65625 82.21875 L 67.882812 82.878906 L 66.078125 83.542969 L 65.851562 84.792969 L 65.851562 85.378906 C 65.851562 85.96875 65.300781 86.3125 64.199219 86.410156 L 64.199219 87.363281 L 63.296875 87.511719 C 62.695312 87.511719 62.394531 87.363281 62.394531 87.070312 C 61.796875 87.660156 61.320312 87.953125 60.96875 87.953125 L 59.464844 87.363281 C 59.464844 88.050781 59.691406 88.8125 60.140625 89.644531 C 59.640625 91.410156 58.738281 92.390625 57.4375 92.585938 L 57.210938 94.941406 C 57.113281 95.773438 56.660156 96.386719 55.859375 96.777344 C 55.910156 96.925781 55.757812 97 55.410156 97 L 55.183594 97 C 53.980469 96.804688 53.027344 95.183594 52.328125 92.144531 L 51.652344 87.21875 L 51.875 81.480469 L 51.875 80.96875 L 52.027344 80.96875 L 52.476562 80.894531 C 52.878906 80.894531 53.378906 81.335938 53.980469 82.21875 L 53.679688 79.128906 C 53.679688 77.953125 53.957031 76.75 54.507812 75.523438 C 52.703125 75.183594 50.449219 73.539062 47.746094 70.597656 C 44.988281 67.65625 43.335938 65.375 42.785156 63.757812 L 43.535156 63.539062 L 49.320312 66.628906 L 49.320312 65.671875 C 48.722656 65.277344 48.421875 64.347656 48.421875 62.875 L 48.421875 62.804688 C 47.21875 58.878906 46.617188 54.492188 46.617188 49.640625 C 46.617188 46.941406 46.792969 45.59375 47.144531 45.59375 L 50.148438 50.742188 L 50.222656 50.742188 C 50.222656 46.722656 50.523438 44.710938 51.125 44.710938 L 51.800781 44.933594 L 53.003906 46.257812 L 53.980469 48.390625 L 55.109375 49.859375 L 55.707031 50.449219 L 56.160156 51.035156 L 56.6875 50.890625 L 56.835938 50.890625 L 56.460938 51.625 L 56.910156 52.066406 L 57.0625 52.066406 L 56.984375 52.433594 L 56.386719 52.582031 C 56.035156 52.582031 55.609375 52.3125 55.109375 51.773438 L 54.054688 50.449219 L 53.378906 49.417969 C 52.726562 47.75 52.226562 46.917969 51.875 46.917969 L 51.800781 46.917969 L 51.578125 46.550781 L 51.578125 47.066406 C 51.425781 47.210938 51.351562 47.507812 51.351562 47.949219 L 51.5 48.832031 L 51.425781 49.34375 C 51.425781 51.304688 51.675781 52.972656 52.175781 54.347656 L 52.101562 55.226562 L 51.578125 55.449219 C 51.226562 55.449219 49.949219 53.21875 47.746094 48.757812 C 47.492188 52.1875 47.769531 55.449219 48.570312 58.539062 L 49.320312 61.554688 L 50.675781 65.082031 L 50.898438 67.949219 C 50.898438 68.488281 50.699219 68.757812 50.300781 68.757812 L 45.265625 65.890625 C 48.671875 69.570312 51.652344 72.242188 54.207031 73.90625 L 54.582031 73.832031 L 55.257812 74.054688 L 55.632812 73.394531 L 56.160156 73.90625 L 56.085938 74.496094 L 54.808594 79.054688 C 54.808594 80.769531 55.03125 82.265625 55.484375 83.542969 L 55.410156 84.054688 L 55.109375 84.203125 L 55.484375 85.527344 L 54.957031 85.746094 C 54.707031 85.746094 54.082031 84.9375 53.078125 83.320312 L 53.003906 84.054688 L 52.777344 87.21875 C 52.777344 88.738281 53.679688 91.359375 55.484375 95.085938 L 55.859375 93.761719 L 55.785156 92.144531 C 55.835938 91.898438 56.058594 91.703125 56.460938 91.558594 L 56.535156 91.558594 L 57.0625 91.410156 L 57.738281 91.261719 L 58.339844 85.746094 L 58.789062 85.527344 C 59.039062 85.527344 59.714844 85.96875 60.816406 86.851562 L 61.269531 85.527344 L 61.945312 85.304688 C 62.195312 85.304688 62.570312 85.527344 63.074219 85.96875 L 63.148438 84.71875 L 64.351562 85.011719 L 64.425781 85.085938 L 64.5 84.9375 L 64.273438 84.863281 L 64.5 84.570312 L 64.5 84.203125 L 64.800781 84.128906 L 66.453125 80.894531 L 67.128906 80.671875 C 67.53125 80.671875 67.980469 80.894531 68.480469 81.335938 C 68.632812 80.109375 68.859375 79.203125 69.160156 78.613281 C 69.609375 77.488281 70.585938 77.019531 72.089844 77.214844 L 72.089844 76.480469 L 73.140625 76.335938 C 73.691406 76.335938 74.269531 76.53125 74.867188 76.921875 L 76.445312 75.230469 C 77.046875 75.230469 77.550781 75.648438 77.949219 76.480469 L 79.300781 74.714844 L 82.234375 78.320312 C 82.882812 78.269531 83.285156 77.953125 83.433594 77.363281 C 84.085938 77.363281 84.460938 77.488281 84.5625 77.730469 L 84.9375 78.90625 C 85.1875 78.367188 85.6875 78.097656 86.441406 78.097656 L 87.417969 78.539062 L 88.394531 79.496094 L 89.21875 80.597656 L 89.296875 80.671875 C 89.796875 80.230469 90.171875 80.011719 90.421875 80.011719 L 90.875 80.011719 L 90.722656 79.054688 L 90.949219 79.128906 L 90.875 79.347656 L 94.179688 81.554688 L 94.328125 81.554688 C 95.832031 82.976562 96.910156 84.300781 97.5625 85.527344 L 97.636719 85.601562 L 97.636719 85.527344 L 96.433594 81.410156 C 96.433594 80.96875 96.632812 80.746094 97.035156 80.746094 L 98.085938 81.261719 L 98.839844 82.289062 C 99.890625 83.566406 100.765625 84.203125 101.46875 84.203125 L 101.84375 84.128906 L 102.144531 84.421875 L 101.917969 84.054688 L 102.144531 83.542969 L 100.191406 81.261719 L 97.636719 76.996094 C 97.636719 76.507812 97.835938 76.261719 98.238281 76.261719 C 98.488281 76.261719 98.789062 76.457031 99.136719 76.847656 C 100.191406 76.898438 101.542969 77.925781 103.195312 79.9375 L 103.195312 80.820312 L 103.796875 80.96875 L 104.023438 80.96875 L 106.050781 83.910156 L 110.785156 90.96875 L 110.484375 86.554688 C 110.484375 85.871094 110.683594 85.527344 111.085938 85.527344 C 112.1875 85.527344 114.941406 89.375 119.351562 97.074219 L 119.5 95.085938 L 118 87.4375 C 118 86.996094 118.199219 86.777344 118.597656 86.777344 L 121.980469 88.617188 L 121.980469 88.6875 L 122.507812 88.910156 L 122.355469 88.542969 L 122.65625 87.953125 C 122.65625 87.609375 122.257812 86.949219 121.453125 85.96875 L 121.453125 85.894531 L 121.605469 85.746094 C 121.65625 85.601562 121.804688 85.527344 122.054688 85.527344 C 122.40625 85.527344 123.433594 86.1875 125.136719 87.511719 L 129.117188 91.1875 L 131.972656 94.71875 L 130.695312 90.234375 L 130.695312 88.910156 L 131.222656 88.6875 C 132.023438 88.6875 133.878906 90.503906 136.78125 94.132812 L 134.378906 86.1875 L 131.296875 78.394531 C 131.296875 78.050781 131.449219 77.855469 131.75 77.804688 L 131.75 77.730469 L 136.859375 76.335938 L 145.125 73.171875 L 145.421875 73.097656 L 145.722656 72.953125 C 140.414062 72.019531 137.757812 71.332031 137.757812 70.890625 C 137.757812 70.15625 140.089844 69.300781 144.746094 68.320312 L 152.710938 65.082031 L 149.707031 64.421875 L 135.804688 64.054688 C 135.457031 64.054688 135.28125 63.882812 135.28125 63.539062 L 147.152344 58.171875 C 149.605469 57.386719 151.535156 56.503906 152.9375 55.523438 L 157.144531 52.359375 C 160.351562 50.253906 165.058594 46.328125 171.269531 40.59375 L 170.21875 40.59375 L 170.519531 40.078125 C 170.519531 39.6875 170.269531 39.492188 169.769531 39.492188 L 167.664062 40.59375 C 155.640625 42.75 147.253906 43.828125 142.492188 43.828125 C 134.828125 43.828125 130.996094 43.460938 130.996094 42.726562 C 130.996094 42.335938 131.199219 42.136719 131.597656 42.136719 L 132.050781 42.136719 C 133.851562 40.273438 135.355469 38.339844 136.558594 36.328125 L 137.609375 34.488281 C 139.261719 32.773438 140.089844 31.402344 140.089844 30.371094 L 140.238281 30.152344 L 140.089844 30.226562 C 140.039062 29.882812 139.839844 29.710938 139.488281 29.710938 L 138.660156 30.886719 C 133.601562 33.140625 130.394531 34.269531 129.042969 34.269531 L 128.742188 34.269531 C 128.691406 33.925781 128.492188 33.753906 128.140625 33.753906 L 128.066406 33.753906 C 132.175781 28.949219 134.855469 24.855469 136.105469 21.472656 L 136.40625 21.328125 C 136.507812 20.933594 136.132812 20.738281 135.28125 20.738281 C 134.828125 20.738281 133.277344 21.449219 130.621094 22.871094 L 123.109375 25.078125 L 112.738281 28.605469 C 112.289062 28.605469 112.0625 28.433594 112.0625 28.09375 L 112.4375 27.652344 C 111.535156 27.945312 110.507812 28.3125 109.359375 28.753906 C 105.199219 30.863281 102.394531 32.0625 100.941406 32.359375 C 100.890625 32.015625 100.640625 31.84375 100.191406 31.84375 L 99.890625 31.917969 L 99.738281 31.769531 C 99.738281 30.445312 102.394531 26.597656 107.703125 20.222656 L 107.855469 20.222656 C 108.355469 20.222656 108.605469 20.003906 108.605469 19.5625 C 108.605469 19.167969 108.378906 18.972656 107.929688 18.972656 L 107.328125 19.265625 L 107.253906 19.265625 L 106.953125 19.707031 C 101.394531 20.445312 95.132812 22.308594 88.167969 25.296875 C 83.761719 27.160156 79.425781 30.078125 75.167969 34.050781 L 73.367188 36.035156 L 68.558594 41.183594 L 67.503906 42.285156 L 67.355469 41.992188 L 68.558594 41.035156 L 69.308594 40.375 C 69.410156 39.980469 69.234375 39.785156 68.78125 39.785156 L 68.558594 40.003906 L 66.679688 41.550781 M 140.238281 30.152344 L 140.3125 30.078125 L 140.238281 30.152344 M 137.160156 94.792969 L 136.859375 94.203125 L 137.082031 94.792969 L 137.160156 94.792969 M 67.730469 128.472656 L 66.527344 127.589844 C 66.828125 128.964844 66.980469 131.710938 66.980469 135.828125 L 66.980469 135.902344 L 67.203125 134.210938 C 67.304688 133.523438 67.65625 133.179688 68.257812 133.179688 C 68.859375 133.179688 69.332031 134.332031 69.683594 136.636719 L 70.359375 134.429688 C 70.761719 133.304688 71.363281 132.738281 72.164062 132.738281 L 73.441406 133.769531 L 73.515625 133.769531 L 73.589844 133.253906 L 69.382812 130.238281 L 67.730469 128.472656 M 66.226562 126.269531 L 74.191406 132.222656 L 74.644531 132.078125 L 75.167969 132.296875 L 75.246094 132.664062 C 74.542969 134.578125 73.941406 135.535156 73.441406 135.535156 L 72.164062 133.988281 C 71.3125 137.910156 70.386719 139.871094 69.382812 139.871094 C 68.984375 139.871094 68.734375 139.359375 68.632812 138.328125 L 68.332031 135.976562 C 67.929688 139.015625 67.378906 140.535156 66.679688 140.535156 C 66.128906 140.535156 65.851562 138.351562 65.851562 133.988281 L 65.328125 127.296875 C 65.328125 126.90625 65.476562 126.683594 65.777344 126.636719 L 66.226562 126.269531 M 117.773438 120.457031 L 117.921875 120.457031 C 118.222656 120.507812 118.375 120.726562 118.375 121.121094 L 118.148438 121.855469 L 118.675781 126.121094 C 118.472656 130.042969 118.097656 132.003906 117.546875 132.003906 C 117.195312 132.003906 116.546875 130.632812 115.59375 127.886719 C 115.59375 131.464844 114.941406 133.253906 113.640625 133.253906 C 113.039062 133.253906 112.414062 131.613281 111.761719 128.328125 L 112.289062 126.710938 L 112.210938 126.269531 L 112.589844 125.828125 L 117.621094 120.679688 L 117.699219 120.53125 L 117.773438 120.457031 M 117.171875 128.839844 L 117.246094 128.988281 L 117.320312 128.914062 C 117.671875 128.03125 117.796875 126.90625 117.699219 125.53125 L 117.398438 122.886719 L 113.191406 126.636719 L 112.890625 128.328125 C 112.890625 129.011719 113.140625 130.042969 113.640625 131.414062 C 113.992188 130.828125 114.242188 129.601562 114.390625 127.738281 C 114.492188 126.167969 114.742188 125.386719 115.144531 125.386719 C 115.792969 125.386719 116.46875 126.539062 117.171875 128.839844 "/>
<path style=" stroke:none;fill-rule:evenodd;fill:rgb(60.000002%,60.000002%,60.000002%);fill-opacity:1;" d="M 106.953125 19.707031 L 107.253906 19.265625 L 107.328125 19.265625 L 107.929688 18.972656 C 108.378906 18.972656 108.605469 19.167969 108.605469 19.5625 C 108.605469 20.003906 108.355469 20.222656 107.855469 20.222656 L 107.703125 20.222656 C 102.394531 26.597656 99.738281 30.445312 99.738281 31.769531 L 99.816406 31.917969 L 99.890625 31.917969 L 100.191406 31.84375 C 100.640625 31.84375 100.890625 32.015625 100.941406 32.359375 L 100.941406 32.429688 C 98.585938 33.949219 97.007812 35.273438 96.207031 36.402344 L 93.128906 40.445312 L 87.191406 48.242188 L 86.589844 47.507812 L 88.394531 40.152344 C 88.84375 37.75 90.574219 35.371094 93.578125 33.019531 C 97.636719 29.6875 100.089844 27.308594 100.941406 25.886719 C 101.34375 25.199219 102.46875 24.121094 104.324219 22.648438 L 106.953125 19.707031 M 130.621094 22.871094 C 133.277344 21.449219 134.828125 20.738281 135.28125 20.738281 C 136.132812 20.738281 136.507812 20.933594 136.40625 21.328125 L 136.105469 21.472656 C 134.855469 24.855469 132.175781 28.949219 128.066406 33.753906 L 128.140625 33.753906 C 128.492188 33.753906 128.691406 33.925781 128.742188 34.269531 L 128.742188 34.34375 C 128.742188 34.589844 126.5625 35.789062 122.207031 37.945312 L 114.46875 41.625 L 106.726562 45.226562 C 102.921875 47.777344 100.640625 49.050781 99.890625 49.050781 L 99.363281 48.242188 L 104.398438 40.960938 L 112.738281 34.050781 C 113.992188 33.019531 115.71875 31.917969 117.921875 30.738281 L 123.332031 27.136719 C 124.433594 26.300781 126.5625 25.027344 129.71875 23.3125 L 130.621094 22.871094 M 138.660156 30.886719 L 139.488281 29.710938 C 139.839844 29.710938 140.039062 29.882812 140.089844 30.226562 L 140.089844 30.371094 C 140.089844 31.402344 139.261719 32.773438 137.609375 34.488281 L 136.558594 36.328125 C 135.355469 38.339844 133.851562 40.273438 132.050781 42.136719 L 131.597656 42.136719 C 131.199219 42.136719 130.996094 42.335938 130.996094 42.726562 C 130.996094 43.460938 134.828125 43.828125 142.492188 43.828125 C 147.253906 43.828125 155.640625 42.75 167.664062 40.59375 L 169.769531 39.492188 C 170.269531 39.492188 170.519531 39.6875 170.519531 40.078125 L 170.21875 40.59375 L 171.269531 40.59375 C 165.058594 46.328125 160.351562 50.253906 157.144531 52.359375 L 152.9375 55.523438 C 151.535156 56.503906 149.605469 57.386719 147.152344 58.171875 L 135.28125 63.539062 C 135.28125 63.882812 135.457031 64.054688 135.804688 64.054688 L 149.707031 64.421875 L 152.710938 65.082031 L 144.746094 68.320312 C 140.089844 69.300781 137.757812 70.15625 137.757812 70.890625 C 137.757812 71.332031 140.414062 72.019531 145.722656 72.953125 L 145.421875 73.097656 L 145.125 73.171875 L 136.859375 76.335938 L 131.75 77.730469 L 131.75 77.804688 C 131.449219 77.855469 131.296875 78.050781 131.296875 78.394531 L 134.378906 86.1875 L 136.78125 94.132812 C 133.878906 90.503906 132.023438 88.6875 131.222656 88.6875 L 130.695312 88.910156 L 130.695312 90.234375 L 131.972656 94.71875 L 129.117188 91.1875 L 125.136719 87.511719 C 123.433594 86.1875 122.40625 85.527344 122.054688 85.527344 C 121.804688 85.527344 121.65625 85.601562 121.605469 85.746094 L 121.453125 85.894531 L 121.453125 85.96875 C 122.257812 86.949219 122.65625 87.609375 122.65625 87.953125 L 122.355469 88.542969 L 122.054688 88.542969 L 121.980469 88.6875 L 121.980469 88.617188 L 118.597656 86.777344 C 118.199219 86.777344 118 86.996094 118 87.4375 L 119.5 95.085938 L 119.351562 97.074219 C 114.941406 89.375 112.1875 85.527344 111.085938 85.527344 C 110.683594 85.527344 110.484375 85.871094 110.484375 86.554688 L 110.785156 90.96875 L 106.050781 83.910156 L 104.023438 80.96875 L 103.796875 80.96875 L 103.195312 80.820312 L 103.195312 79.9375 L 102.59375 78.46875 L 101.617188 76.113281 C 101.617188 75.722656 101.792969 75.523438 102.144531 75.523438 C 102.945312 75.523438 104.648438 77.339844 107.253906 80.96875 L 107.328125 80.96875 L 106.503906 78.027344 C 106.503906 77.144531 106.726562 76.703125 107.179688 76.703125 C 107.527344 76.703125 108.882812 78.097656 111.234375 80.894531 L 116.570312 87.660156 L 116.496094 85.085938 C 116.546875 83.8125 116.820312 83.171875 117.320312 83.171875 C 118.074219 83.171875 119.074219 83.710938 120.328125 84.792969 L 115.445312 74.644531 L 115.445312 73.6875 L 115.96875 73.464844 C 116.671875 73.464844 118.550781 74.59375 121.605469 76.847656 L 121.679688 76.847656 C 119.226562 70.867188 118 67.679688 118 67.289062 C 118 66.796875 118.171875 66.554688 118.523438 66.554688 C 119.175781 66.554688 122.28125 67.707031 127.839844 70.011719 L 128.742188 70.011719 L 125.4375 66.40625 C 125.4375 65.917969 125.710938 65.671875 126.261719 65.671875 L 130.472656 65.816406 L 129.195312 64.863281 L 124.460938 63.097656 C 119.050781 62.460938 116.34375 61.675781 116.34375 60.742188 C 116.34375 60.5 119.976562 58.953125 127.242188 56.109375 L 134.527344 53.390625 C 131.371094 53.046875 128.21875 52.113281 125.0625 50.59375 C 121.707031 48.976562 120.027344 47.824219 120.027344 47.140625 L 125.363281 42.726562 C 126.515625 41.453125 128.390625 40.003906 130.996094 38.386719 C 133.5 36.722656 136.054688 34.21875 138.660156 30.886719 M 100.191406 81.261719 L 102.144531 83.542969 L 101.917969 84.054688 L 101.84375 84.128906 L 101.46875 84.203125 C 100.765625 84.203125 99.890625 83.566406 98.839844 82.289062 L 98.085938 81.261719 L 97.035156 80.746094 C 96.632812 80.746094 96.433594 80.96875 96.433594 81.410156 L 97.636719 85.527344 L 97.5625 85.527344 C 96.910156 84.300781 95.832031 82.976562 94.328125 81.554688 L 94.179688 81.554688 L 90.875 79.347656 L 90.949219 79.128906 L 91.472656 78.835938 L 89.445312 76.480469 C 89.445312 76.136719 89.644531 75.964844 90.046875 75.964844 C 91.199219 75.964844 92.476562 76.480469 93.878906 77.511719 C 93.578125 76.875 93.777344 76.554688 94.480469 76.554688 C 95.480469 76.554688 97.386719 78.125 100.191406 81.261719 M 57.0625 91.410156 L 56.535156 91.558594 L 56.460938 91.558594 C 56.058594 91.703125 55.835938 91.898438 55.785156 92.144531 L 55.859375 93.761719 L 55.484375 95.085938 C 53.679688 91.359375 52.777344 88.738281 52.777344 87.21875 L 53.003906 84.054688 L 53.078125 83.320312 C 54.082031 84.9375 54.707031 85.746094 54.957031 85.746094 L 55.484375 85.527344 L 55.109375 84.203125 L 55.410156 84.054688 L 55.484375 83.542969 C 55.03125 82.265625 54.808594 80.769531 54.808594 79.054688 L 56.085938 74.496094 L 56.160156 73.90625 L 55.632812 73.394531 L 55.257812 74.054688 L 54.582031 73.832031 L 54.207031 73.90625 C 51.652344 72.242188 48.671875 69.570312 45.265625 65.890625 L 50.300781 68.757812 C 50.699219 68.757812 50.898438 68.488281 50.898438 67.949219 L 50.675781 65.082031 L 49.320312 61.554688 L 48.570312 58.539062 C 47.769531 55.449219 47.492188 52.1875 47.746094 48.757812 C 49.949219 53.21875 51.226562 55.449219 51.578125 55.449219 L 52.101562 55.226562 L 52.175781 54.347656 C 51.675781 52.972656 51.425781 51.304688 51.425781 49.34375 L 51.5 48.832031 L 51.351562 47.949219 C 51.351562 47.507812 51.425781 47.210938 51.578125 47.066406 L 51.800781 46.917969 L 51.875 46.917969 C 52.226562 46.917969 52.726562 47.75 53.378906 49.417969 L 53.679688 50.449219 L 54.882812 54.640625 L 55.109375 55.449219 L 55.332031 55.964844 C 55.882812 57.730469 56.761719 59.8125 57.964844 62.214844 C 57.964844 62.65625 57.761719 62.875 57.363281 62.875 C 56.359375 62.875 54.507812 61.554688 51.800781 58.90625 C 52.402344 60.375 53.027344 62.703125 53.679688 65.890625 L 57.964844 71.480469 C 61.21875 75.941406 62.847656 78.738281 62.847656 79.863281 C 62.847656 80.402344 62.394531 80.671875 61.496094 80.671875 L 59.917969 80.230469 C 59.917969 82.09375 59.289062 83.589844 58.039062 84.71875 C 56.785156 85.84375 56.160156 86.605469 56.160156 86.996094 C 56.160156 87.878906 56.511719 89.15625 57.210938 90.820312 L 57.0625 91.335938 L 57.0625 91.410156 M 101.84375 46.402344 L 101.769531 46.328125 L 101.769531 46.402344 L 101.84375 46.402344 M 88.09375 45.152344 L 88.167969 45.152344 L 88.09375 45.078125 L 88.09375 45.152344 M 104.25 78.980469 L 104.324219 79.128906 L 104.324219 79.054688 L 104.25 78.980469 M 57.738281 51.773438 L 57.511719 51.402344 C 57.511719 51.160156 57.8125 50.839844 58.414062 50.449219 L 58.714844 50.300781 C 59.414062 48.144531 59.640625 44.125 59.390625 38.242188 L 59.242188 38.019531 L 59.316406 37.652344 L 59.691406 37.503906 L 60.742188 39.34375 L 62.09375 43.09375 C 62.746094 45.449219 63.074219 47.3125 63.074219 48.683594 C 63.074219 49.371094 62.269531 49.882812 60.667969 50.226562 L 60.367188 50.449219 L 58.113281 51.84375 L 57.738281 51.773438 M 67.730469 128.472656 L 69.382812 130.238281 L 73.589844 133.253906 L 73.515625 133.769531 L 73.441406 133.769531 L 72.164062 132.738281 C 71.363281 132.738281 70.761719 133.304688 70.359375 134.429688 L 69.683594 136.636719 C 69.332031 134.332031 68.859375 133.179688 68.257812 133.179688 C 67.65625 133.179688 67.304688 133.523438 67.203125 134.210938 L 66.980469 135.902344 L 66.980469 135.828125 C 66.980469 131.710938 66.828125 128.964844 66.527344 127.589844 L 67.730469 128.472656 M 117.320312 128.914062 L 117.171875 128.839844 C 116.46875 126.539062 115.792969 125.386719 115.144531 125.386719 C 114.742188 125.386719 114.492188 126.167969 114.390625 127.738281 C 114.242188 129.601562 113.992188 130.828125 113.640625 131.414062 C 113.140625 130.042969 112.890625 129.011719 112.890625 128.328125 L 113.191406 126.636719 L 117.398438 122.886719 L 117.699219 125.53125 C 117.796875 126.90625 117.671875 128.03125 117.320312 128.914062 "/>
<path style=" stroke:none;fill-rule:evenodd;fill:rgb(80.000001%,80.000001%,80.000001%);fill-opacity:1;" d="M 67.355469 41.992188 L 67.503906 42.285156 L 68.558594 41.183594 L 73.367188 36.035156 L 75.167969 34.050781 C 79.425781 30.078125 83.761719 27.160156 88.167969 25.296875 C 95.132812 22.308594 101.394531 20.445312 106.953125 19.707031 L 104.324219 22.648438 C 102.46875 24.121094 101.34375 25.199219 100.941406 25.886719 C 100.089844 27.308594 97.636719 29.6875 93.578125 33.019531 C 90.574219 35.371094 88.84375 37.75 88.394531 40.152344 L 86.589844 47.507812 L 87.191406 48.242188 L 93.128906 40.445312 L 96.207031 36.402344 C 97.007812 35.273438 98.585938 33.949219 100.941406 32.429688 L 100.941406 32.359375 C 102.394531 32.0625 105.199219 30.863281 109.359375 28.753906 C 110.507812 28.3125 111.535156 27.945312 112.4375 27.652344 L 112.0625 28.09375 C 112.0625 28.433594 112.289062 28.605469 112.738281 28.605469 L 123.109375 25.078125 L 130.621094 22.871094 L 129.71875 23.3125 C 126.5625 25.027344 124.433594 26.300781 123.332031 27.136719 L 117.921875 30.738281 C 115.71875 31.917969 113.992188 33.019531 112.738281 34.050781 L 104.398438 40.960938 L 99.363281 48.242188 L 99.890625 49.050781 C 100.640625 49.050781 102.921875 47.777344 106.726562 45.226562 L 114.46875 41.625 L 122.207031 37.945312 C 126.5625 35.789062 128.742188 34.589844 128.742188 34.34375 L 128.742188 34.269531 L 129.042969 34.269531 C 130.394531 34.269531 133.601562 33.140625 138.660156 30.886719 C 136.054688 34.21875 133.5 36.722656 130.996094 38.386719 C 128.390625 40.003906 126.515625 41.453125 125.363281 42.726562 L 120.027344 47.140625 C 120.027344 47.824219 121.707031 48.976562 125.0625 50.59375 C 128.21875 52.113281 131.371094 53.046875 134.527344 53.390625 L 127.242188 56.109375 C 119.976562 58.953125 116.34375 60.5 116.34375 60.742188 C 116.34375 61.675781 119.050781 62.460938 124.460938 63.097656 L 129.195312 64.863281 L 130.472656 65.816406 L 126.261719 65.671875 C 125.710938 65.671875 125.4375 65.917969 125.4375 66.40625 L 128.742188 70.011719 L 127.839844 70.011719 C 122.28125 67.707031 119.175781 66.554688 118.523438 66.554688 C 118.171875 66.554688 118 66.796875 118 67.289062 C 118 67.679688 119.226562 70.867188 121.679688 76.847656 L 121.605469 76.847656 C 118.550781 74.59375 116.671875 73.464844 115.96875 73.464844 L 115.445312 73.6875 L 115.445312 74.644531 L 120.328125 84.792969 C 119.074219 83.710938 118.074219 83.171875 117.320312 83.171875 C 116.820312 83.171875 116.546875 83.8125 116.496094 85.085938 L 116.570312 87.660156 L 111.234375 80.894531 C 108.882812 78.097656 107.527344 76.703125 107.179688 76.703125 C 106.726562 76.703125 106.503906 77.144531 106.503906 78.027344 L 107.328125 80.96875 L 107.253906 80.96875 C 104.648438 77.339844 102.945312 75.523438 102.144531 75.523438 C 101.792969 75.523438 101.617188 75.722656 101.617188 76.113281 L 102.59375 78.46875 L 103.195312 79.9375 C 101.542969 77.925781 100.191406 76.898438 99.136719 76.847656 C 98.789062 76.457031 98.488281 76.261719 98.238281 76.261719 C 97.835938 76.261719 97.636719 76.507812 97.636719 76.996094 L 100.191406 81.261719 C 97.386719 78.125 95.480469 76.554688 94.480469 76.554688 C 93.777344 76.554688 93.578125 76.875 93.878906 77.511719 C 92.476562 76.480469 91.199219 75.964844 90.046875 75.964844 C 89.644531 75.964844 89.445312 76.136719 89.445312 76.480469 L 91.472656 78.835938 L 90.949219 79.128906 L 90.722656 79.054688 L 90.875 80.011719 L 90.421875 80.011719 C 90.171875 80.011719 89.796875 80.230469 89.296875 80.671875 L 89.21875 80.597656 L 88.394531 79.496094 L 87.417969 78.539062 L 86.441406 78.097656 C 85.6875 78.097656 85.1875 78.367188 84.9375 78.90625 L 84.5625 77.730469 C 84.460938 77.488281 84.085938 77.363281 83.433594 77.363281 C 83.285156 77.953125 82.882812 78.269531 82.234375 78.320312 L 79.300781 74.714844 L 77.949219 76.480469 C 77.550781 75.648438 77.046875 75.230469 76.445312 75.230469 L 74.867188 76.921875 C 74.269531 76.53125 73.691406 76.335938 73.140625 76.335938 L 72.089844 76.480469 L 72.089844 77.214844 C 70.585938 77.019531 69.609375 77.488281 69.160156 78.613281 C 68.859375 79.203125 68.632812 80.109375 68.480469 81.335938 C 67.980469 80.894531 67.53125 80.671875 67.128906 80.671875 L 66.453125 80.894531 L 64.800781 84.128906 L 64.5 84.203125 L 64.5 84.570312 L 64.273438 84.863281 L 64.351562 85.011719 L 63.148438 84.71875 L 63.074219 85.96875 C 62.570312 85.527344 62.195312 85.304688 61.945312 85.304688 L 61.269531 85.527344 L 60.816406 86.851562 C 59.714844 85.96875 59.039062 85.527344 58.789062 85.527344 L 58.339844 85.746094 L 57.738281 91.261719 L 57.0625 91.410156 L 57.0625 91.335938 L 57.210938 90.820312 C 56.511719 89.15625 56.160156 87.878906 56.160156 86.996094 C 56.160156 86.605469 56.785156 85.84375 58.039062 84.71875 C 59.289062 83.589844 59.917969 82.09375 59.917969 80.230469 L 61.496094 80.671875 C 62.394531 80.671875 62.847656 80.402344 62.847656 79.863281 C 62.847656 78.738281 61.21875 75.941406 57.964844 71.480469 L 53.679688 65.890625 C 53.027344 62.703125 52.402344 60.375 51.800781 58.90625 C 54.507812 61.554688 56.359375 62.875 57.363281 62.875 C 57.761719 62.875 57.964844 62.65625 57.964844 62.214844 C 56.761719 59.8125 55.882812 57.730469 55.332031 55.964844 L 55.109375 55.449219 L 54.882812 54.640625 L 53.679688 50.449219 L 53.378906 49.417969 L 54.054688 50.449219 L 55.109375 51.773438 C 55.609375 52.3125 56.035156 52.582031 56.386719 52.582031 L 56.984375 52.433594 L 57.0625 52.066406 L 57.585938 51.917969 L 57.664062 51.84375 L 57.738281 51.773438 L 58.113281 51.84375 L 60.367188 50.449219 L 60.667969 50.226562 C 62.269531 49.882812 63.074219 49.371094 63.074219 48.683594 C 63.074219 47.3125 62.746094 45.449219 62.09375 43.09375 L 60.742188 39.34375 L 64.648438 44.050781 L 67.355469 41.992188 M 99.738281 31.769531 L 99.890625 31.917969 L 99.816406 31.917969 L 99.738281 31.769531 M 140.089844 30.226562 L 140.238281 30.152344 L 140.089844 30.371094 L 140.089844 30.226562 M 121.453125 85.894531 L 121.453125 85.96875 L 121.453125 85.894531 M 122.355469 88.542969 L 122.507812 88.910156 L 121.980469 88.6875 L 122.054688 88.542969 L 122.355469 88.542969 M 101.917969 84.054688 L 102.144531 84.421875 L 101.84375 84.128906 L 101.917969 84.054688 M 51.578125 47.066406 L 51.578125 46.550781 L 51.800781 46.917969 L 51.578125 47.066406 M 88.09375 45.152344 L 88.09375 45.078125 L 88.167969 45.152344 L 88.09375 45.152344 M 101.84375 46.402344 L 101.769531 46.402344 L 101.769531 46.328125 L 101.84375 46.402344 M 104.25 78.980469 L 104.324219 79.054688 L 104.324219 79.128906 L 104.25 78.980469 "/>
<path style=" stroke:none;fill-rule:evenodd;fill:rgb(3.137255%,6.27451%,7.058824%);fill-opacity:1;" d="M 66.679688 41.550781 L 68.558594 40.003906 L 68.78125 39.785156 C 69.234375 39.785156 69.410156 39.980469 69.308594 40.375 L 68.558594 41.035156 L 67.355469 41.992188 L 64.648438 44.050781 L 60.742188 39.34375 L 59.691406 37.503906 L 59.316406 37.652344 L 59.242188 38.019531 L 59.390625 38.242188 C 59.640625 44.125 59.414062 48.144531 58.714844 50.300781 L 58.414062 50.449219 C 57.8125 50.839844 57.511719 51.160156 57.511719 51.402344 L 57.738281 51.773438 L 57.664062 51.84375 L 57.585938 51.917969 L 57.0625 52.066406 L 56.910156 52.066406 L 56.460938 51.625 L 56.835938 50.890625 L 57.0625 50.449219 L 58.1875 46.625 L 58.640625 41.769531 L 58.414062 38.3125 C 57.914062 36.792969 57.664062 35.667969 57.664062 34.929688 L 58.113281 34.34375 L 58.261719 34.5625 C 62.320312 40.105469 64.449219 42.875 64.648438 42.875 L 66.679688 41.550781 "/>
</g>
</svg>
