<?xml version="1.0" encoding="UTF-8"?>
<svg xmlns="http://www.w3.org/2000/svg" xmlns:xlink="http://www.w3.org/1999/xlink" width="197px" height="209px" viewBox="0 0 197 209" version="1.1">
<g id="surface1">
<path style=" stroke:none;fill-rule:evenodd;fill:rgb(0%,0%,0%);fill-opacity:1;" d="M 120.253906 36.109375 L 119.652344 36.992188 L 120.101562 36.402344 L 120.855469 36.695312 C 122.304688 36.84375 122.707031 39.785156 122.054688 45.519531 L 122.054688 47.433594 L 124.234375 44.566406 C 125.285156 44.566406 125.636719 48.535156 125.285156 56.480469 L 132.5 53.757812 C 133.050781 53.757812 133.328125 53.929688 133.328125 54.273438 C 133.328125 55.839844 131.824219 58.78125 128.816406 63.097656 L 129.871094 63.097656 L 134.980469 61.699219 C 135.679688 61.699219 136.007812 61.894531 135.957031 62.289062 L 129.871094 68.6875 C 133.578125 68.882812 135.429688 69.175781 135.429688 69.570312 L 128.667969 75.746094 L 132.125 76.777344 C 133.476562 77.070312 134.152344 77.386719 134.152344 77.730469 L 129.570312 79.71875 L 126.414062 80.96875 L 126.5625 81.1875 L 125.8125 81.1875 L 125.285156 81.335938 C 125.035156 81.335938 124.886719 81.261719 124.835938 81.113281 L 123.410156 80.820312 L 123.183594 80.527344 L 122.207031 80.597656 L 120.703125 80.304688 L 116.496094 80.527344 C 106.976562 80.671875 101.015625 80.648438 98.613281 80.453125 L 69.984375 81.480469 L 60.894531 80.820312 L 54.507812 80.230469 C 54.207031 80.917969 51.726562 81.285156 47.066406 81.335938 L 46.84375 81.335938 L 42.636719 82.21875 C 42.183594 82.21875 41.957031 82.019531 41.957031 81.628906 C 45.617188 78.785156 47.519531 77.339844 47.667969 77.289062 L 40.457031 76.703125 L 48.269531 70.820312 C 47.71875 70.230469 46.117188 69.421875 43.460938 68.390625 C 41.15625 67.507812 40.003906 66.773438 40.003906 66.1875 C 40.003906 65.648438 41.882812 65.105469 45.640625 64.566406 L 49.171875 63.539062 C 48.46875 62.164062 47.492188 59.640625 46.242188 55.964844 C 46.242188 55.570312 46.492188 55.375 46.992188 55.375 C 47.945312 55.375 49.246094 55.792969 50.898438 56.625 L 51.875 56.625 L 51.875 51.109375 C 51.476562 50.03125 51.277344 48.832031 51.277344 47.507812 C 51.277344 46.429688 51.476562 45.890625 51.875 45.890625 L 56.234375 50.226562 C 56.234375 37.382812 56.410156 30.960938 56.761719 30.960938 C 58.011719 30.960938 60.691406 36.425781 64.800781 47.359375 L 64.875 47.359375 L 65.550781 42.433594 C 65.902344 40.273438 66.351562 39.195312 66.90625 39.195312 C 67.707031 39.195312 68.457031 40.496094 69.160156 43.09375 L 76.671875 33.828125 C 82.03125 27.652344 85.039062 24.5625 85.6875 24.5625 C 86.089844 24.5625 86.289062 24.980469 86.289062 25.8125 C 86.289062 26.792969 85.714844 28.730469 84.5625 31.621094 C 83.460938 34.367188 82.984375 36.15625 83.132812 36.992188 L 83.132812 37.136719 L 83.660156 36.84375 C 85.363281 35.03125 88.144531 32.921875 92 30.519531 C 97.511719 27.085938 101.742188 25.371094 104.699219 25.371094 C 105.449219 25.371094 105.824219 25.617188 105.824219 26.105469 L 104.25 30.371094 L 101.542969 35.886719 L 101.542969 35.960938 L 115.367188 30.738281 C 120.378906 28.828125 123.707031 27.871094 125.363281 27.871094 C 125.914062 27.871094 126.1875 28.042969 126.1875 28.386719 L 120.253906 36.109375 M 124.085938 29.488281 L 124.160156 29.34375 L 124.085938 29.34375 C 123.03125 29.441406 119.152344 30.789062 112.4375 33.386719 L 100.566406 37.800781 L 99.890625 36.992188 C 99.890625 36.351562 101.34375 32.898438 104.25 26.621094 C 102.144531 26.914062 99.863281 27.699219 97.410156 28.976562 L 91.625 32.285156 L 83.433594 38.535156 L 83.210938 39.050781 L 82.308594 39.5625 L 81.78125 38.535156 C 81.78125 36.820312 82.183594 34.761719 82.984375 32.359375 L 85.085938 26.328125 L 85.011719 26.253906 C 82.609375 28.3125 81.082031 29.882812 80.429688 30.960938 L 76.671875 35.59375 L 69.234375 44.492188 C 68.433594 44.492188 67.78125 43.535156 67.28125 41.625 L 67.203125 41.550781 L 67.203125 41.625 C 66.605469 43.289062 65.953125 46.160156 65.25 50.226562 L 65.175781 50.523438 L 64.875 50.375 C 64.222656 49.738281 63.148438 47.605469 61.644531 43.976562 L 57.4375 33.609375 L 57.363281 33.535156 L 57.363281 33.609375 C 57.363281 45.765625 57.136719 51.84375 56.6875 51.84375 C 55.984375 51.84375 55.207031 51.355469 54.355469 50.375 L 52.476562 48.167969 L 53.003906 54.273438 C 53.152344 56.773438 52.929688 58.023438 52.328125 58.023438 C 51.074219 58.023438 49.648438 57.628906 48.042969 56.847656 L 50.449219 63.097656 L 50.898438 63.683594 L 50.597656 64.347656 L 50.597656 64.496094 L 50.148438 64.714844 C 49.496094 65.105469 48.46875 65.425781 47.066406 65.671875 L 42.109375 66.480469 L 47.21875 68.832031 C 49.023438 69.667969 49.921875 70.351562 49.921875 70.890625 L 42.558594 76.113281 L 48.945312 76.480469 L 49.246094 76.847656 L 48.496094 78.097656 L 47.894531 78.539062 L 45.339844 80.160156 L 47.746094 79.863281 L 48.121094 79.789062 C 48.570312 79.789062 48.820312 79.9375 48.871094 80.230469 L 50.300781 79.789062 L 50.222656 79.570312 C 50.222656 79.128906 51.601562 78.90625 54.355469 78.90625 L 56.085938 78.980469 C 55.582031 78.050781 55.007812 76.285156 54.355469 73.6875 C 54.355469 72.851562 54.605469 72.4375 55.109375 72.4375 C 55.609375 72.4375 57.539062 73.097656 60.894531 74.421875 C 59.992188 70.890625 59.539062 68.832031 59.539062 68.246094 C 59.539062 67.410156 59.714844 66.996094 60.066406 66.996094 L 62.246094 67.507812 L 63.148438 60.597656 C 63.597656 57.410156 64.148438 55.816406 64.800781 55.816406 C 65.601562 55.816406 68.03125 59.175781 72.089844 65.890625 L 74.269531 61.183594 C 75.019531 61.183594 75.371094 62.363281 75.320312 64.714844 L 77.125 62.433594 C 78.175781 61.160156 78.828125 60.523438 79.078125 60.523438 L 79.753906 60.671875 L 79.828125 63.097656 C 86.039062 60.253906 90.972656 58.832031 94.628906 58.832031 C 95.28125 58.832031 95.605469 59.027344 95.605469 59.421875 C 92.453125 61.675781 90.371094 63.316406 89.371094 64.347656 L 89.296875 64.496094 L 89.371094 64.496094 L 92.527344 64.199219 C 95.230469 64.199219 96.457031 64.640625 96.207031 65.523438 C 96.207031 66.015625 95.480469 66.699219 94.027344 67.582031 C 96.835938 67.828125 98.238281 68.488281 98.238281 69.570312 C 98.238281 70.011719 96.882812 71.039062 94.179688 72.65625 C 100.542969 73.148438 103.722656 73.710938 103.722656 74.347656 L 98.6875 76.40625 L 100.640625 77.363281 C 100.640625 77.609375 99.363281 78.417969 96.808594 79.789062 L 101.992188 79.570312 L 119.5 79.203125 L 122.65625 79.347656 L 123.410156 79.496094 L 124.160156 79.421875 L 123.707031 79.71875 L 123.859375 79.863281 L 124.386719 79.789062 L 125.511719 80.011719 L 125.964844 79.71875 L 127.164062 79.203125 L 130.472656 77.878906 C 127.964844 76.898438 126.714844 76.308594 126.714844 76.113281 L 130.171875 72.953125 C 131.925781 71.136719 133.027344 70.207031 133.476562 70.15625 L 128.742188 69.640625 L 128.367188 69.789062 L 127.839844 69.570312 L 127.765625 69.273438 L 127.539062 68.90625 L 127.691406 68.464844 L 128.367188 68.6875 L 134.003906 63.316406 L 134.078125 63.171875 L 134.003906 63.246094 L 128.066406 64.421875 C 127.515625 64.421875 127.242188 64.226562 127.242188 63.832031 C 127.242188 63.046875 127.917969 61.601562 129.269531 59.492188 L 131.824219 55.597656 L 131.824219 55.449219 L 131.75 55.523438 C 128.09375 57.042969 125.835938 57.800781 124.984375 57.800781 C 124.085938 57.800781 123.835938 56.871094 124.234375 55.007812 L 124.234375 46.476562 L 121.453125 50.816406 C 120.855469 50.816406 120.726562 48.535156 121.078125 43.976562 C 120.527344 41.425781 120.203125 39.394531 120.101562 37.871094 L 115.667969 43.609375 L 115.144531 43.535156 L 115.066406 43.609375 L 114.542969 43.386719 L 114.542969 42.652344 C 115.492188 39.710938 118.675781 35.324219 124.085938 29.488281 M 143.167969 49.710938 L 143.167969 49.785156 L 143.09375 49.859375 L 143.167969 49.710938 M 92.152344 60.597656 L 92.300781 60.523438 L 92.152344 60.597656 M 115.144531 46.917969 L 115.066406 46.992188 L 115.066406 46.84375 L 115.144531 46.917969 M 116.195312 94.058594 L 120.929688 91.484375 L 121.605469 92 L 121.605469 92.21875 L 121.753906 94.058594 C 121.253906 102.589844 120.554688 107.292969 119.652344 108.175781 C 119.5 108.8125 119.023438 109.132812 118.222656 109.132812 C 117.671875 109.132812 117.246094 108.421875 116.945312 107 L 116.042969 103.984375 L 115.367188 104.207031 C 114.816406 104.207031 114.542969 103.519531 114.542969 102.148438 L 113.566406 101.632812 L 115.820312 95.160156 C 115.519531 95.113281 115.367188 94.914062 115.367188 94.570312 C 115.367188 94.179688 115.570312 93.984375 115.96875 93.984375 L 116.195312 94.058594 M 125.738281 78.097656 L 125.738281 78.539062 L 125.886719 79.421875 L 125.4375 78.46875 L 125.738281 78.097656 M 131.671875 87.511719 L 137.007812 86.042969 C 137.507812 86.042969 137.757812 86.238281 137.757812 86.628906 L 134.605469 91.777344 L 134.605469 91.851562 L 135.804688 91.558594 C 136.40625 91.558594 136.683594 91.753906 136.632812 92.144531 C 136.632812 92.636719 135.882812 93.664062 134.378906 95.234375 C 132.777344 96.902344 131.546875 97.734375 130.695312 97.734375 L 130.472656 97.734375 L 130.09375 97.953125 L 129.496094 97.808594 L 129.496094 96.851562 L 129.570312 94.203125 L 129.644531 93.617188 L 128.96875 92.808594 C 128.066406 91.679688 126.765625 91.117188 125.0625 91.117188 C 124.511719 91.117188 124.234375 90.917969 124.234375 90.527344 C 124.234375 90.183594 124.535156 89.964844 125.136719 89.867188 L 125.0625 89.792969 C 125.0625 89.496094 125.835938 88.910156 127.390625 88.027344 C 128.992188 87.09375 130.144531 86.628906 130.847656 86.628906 C 131.546875 86.628906 131.824219 86.925781 131.671875 87.511719 M 119.5 96.777344 C 119.703125 95.160156 119.402344 94.351562 118.597656 94.351562 C 118.046875 94.351562 117.347656 95.453125 116.496094 97.660156 C 115.746094 99.621094 115.367188 100.796875 115.367188 101.191406 C 115.367188 101.582031 115.617188 101.777344 116.121094 101.777344 C 116.722656 101.777344 117.222656 102.34375 117.621094 103.46875 C 118.023438 104.597656 118.398438 105.160156 118.75 105.160156 C 119.25 105.160156 119.449219 104.378906 119.351562 102.808594 L 119.050781 100.527344 L 119.5 96.777344 M 130.246094 88.027344 L 130.246094 88.101562 L 130.246094 88.027344 M 130.996094 93.617188 C 130.847656 93.910156 130.773438 94.179688 130.773438 94.425781 C 130.773438 94.914062 131.046875 95.160156 131.597656 95.160156 C 132.25 95.160156 132.601562 94.277344 132.648438 92.511719 C 133.453125 91.140625 133.851562 90.109375 133.851562 89.425781 C 133.902344 88.886719 133.601562 88.617188 132.949219 88.617188 C 129.59375 88.617188 127.917969 89.105469 127.917969 90.085938 C 127.917969 90.476562 128.140625 90.675781 128.59375 90.675781 C 129.644531 90.675781 130.445312 91.65625 130.996094 93.617188 M 135.65625 87.585938 L 135.65625 87.660156 L 135.804688 87.511719 L 135.65625 87.585938 M 73.816406 64.421875 L 73.816406 64.347656 L 73.816406 64.421875 M 78.625 62.507812 L 78.625 62.433594 L 78.625 62.507812 M 54.507812 99.644531 C 53.707031 99.644531 53.304688 100.039062 53.304688 100.824219 L 53.453125 101.707031 C 53.65625 102.195312 54.03125 102.441406 54.582031 102.441406 L 55.410156 101.632812 L 55.859375 100.601562 C 55.859375 99.964844 55.410156 99.644531 54.507812 99.644531 M 54.808594 98.324219 C 56.007812 98.324219 56.660156 99.746094 56.761719 102.589844 C 56.761719 103.765625 55.132812 104.351562 51.875 104.351562 C 51.375 104.351562 51.125 104.179688 51.125 103.839844 C 51.125 103.347656 51.351562 102.90625 51.800781 102.515625 C 50.851562 102.464844 50.375 102.21875 50.375 101.777344 C 50.375 101.4375 51 100.773438 52.253906 99.792969 L 54.808594 98.324219 M 118.375 107.515625 L 118.300781 107.441406 L 118.300781 107.515625 L 118.375 107.515625 M 53.003906 102.957031 L 52.855469 103.027344 L 53.003906 103.027344 L 53.003906 102.957031 "/>
<path style=" stroke:none;fill-rule:evenodd;fill:rgb(20%,20%,20%);fill-opacity:1;" d="M 124.085938 29.34375 L 124.085938 29.488281 C 118.675781 35.324219 115.492188 39.710938 114.542969 42.652344 L 114.542969 43.386719 L 115.066406 43.609375 L 115.144531 43.535156 L 115.667969 43.609375 L 120.101562 37.871094 C 120.203125 39.394531 120.527344 41.425781 121.078125 43.976562 C 120.726562 48.535156 120.855469 50.816406 121.453125 50.816406 L 124.234375 46.476562 L 124.234375 55.007812 C 123.835938 56.871094 124.085938 57.800781 124.984375 57.800781 C 125.835938 57.800781 128.09375 57.042969 131.75 55.523438 L 131.824219 55.597656 L 129.269531 59.492188 C 127.917969 61.601562 127.242188 63.046875 127.242188 63.832031 C 127.242188 64.226562 127.515625 64.421875 128.066406 64.421875 L 134.003906 63.246094 L 134.003906 63.316406 L 128.367188 68.6875 L 127.691406 68.464844 L 127.539062 68.90625 L 127.765625 69.273438 L 127.839844 69.570312 L 128.367188 69.789062 L 128.742188 69.640625 L 133.476562 70.15625 C 133.027344 70.207031 131.925781 71.136719 130.171875 72.953125 L 126.714844 76.113281 C 126.714844 76.308594 127.964844 76.898438 130.472656 77.878906 L 127.164062 79.203125 L 125.964844 79.71875 L 125.511719 80.011719 L 124.386719 79.789062 L 123.859375 79.863281 L 123.707031 79.71875 L 124.160156 79.421875 L 123.410156 79.496094 L 122.65625 79.347656 L 119.5 79.203125 L 101.992188 79.570312 L 96.808594 79.789062 C 99.363281 78.417969 100.640625 77.609375 100.640625 77.363281 L 98.6875 76.40625 L 103.722656 74.347656 C 103.722656 73.710938 100.542969 73.148438 94.179688 72.65625 C 96.882812 71.039062 98.238281 70.011719 98.238281 69.570312 C 98.238281 68.488281 96.835938 67.828125 94.027344 67.582031 C 95.480469 66.699219 96.207031 66.015625 96.207031 65.523438 C 96.457031 64.640625 95.230469 64.199219 92.527344 64.199219 L 89.371094 64.496094 L 89.371094 64.347656 C 90.371094 63.316406 92.453125 61.675781 95.605469 59.421875 C 95.605469 59.027344 95.28125 58.832031 94.628906 58.832031 C 90.972656 58.832031 86.039062 60.253906 79.828125 63.097656 L 79.753906 60.671875 L 79.078125 60.523438 C 78.828125 60.523438 78.175781 61.160156 77.125 62.433594 L 75.320312 64.714844 C 75.371094 62.363281 75.019531 61.183594 74.269531 61.183594 L 72.089844 65.890625 C 68.03125 59.175781 65.601562 55.816406 64.800781 55.816406 C 64.148438 55.816406 63.597656 57.410156 63.148438 60.597656 L 62.246094 67.507812 L 60.066406 66.996094 C 59.714844 66.996094 59.539062 67.410156 59.539062 68.246094 C 59.539062 68.832031 59.992188 70.890625 60.894531 74.421875 C 57.539062 73.097656 55.609375 72.4375 55.109375 72.4375 C 54.605469 72.4375 54.355469 72.851562 54.355469 73.6875 C 55.007812 76.285156 55.582031 78.050781 56.085938 78.980469 L 54.355469 78.90625 C 51.601562 78.90625 50.222656 79.128906 50.222656 79.570312 L 50.300781 79.789062 L 48.871094 80.230469 C 48.820312 79.9375 48.570312 79.789062 48.121094 79.789062 L 47.746094 79.863281 L 48.496094 78.097656 L 49.246094 76.847656 L 48.945312 76.480469 L 42.558594 76.113281 L 49.921875 70.890625 C 49.921875 70.351562 49.023438 69.667969 47.21875 68.832031 L 42.109375 66.480469 L 47.066406 65.671875 C 48.46875 65.425781 49.496094 65.105469 50.148438 64.714844 L 50.597656 64.496094 L 50.597656 64.347656 L 50.898438 63.683594 L 50.449219 63.097656 L 48.042969 56.847656 C 49.648438 57.628906 51.074219 58.023438 52.328125 58.023438 C 52.929688 58.023438 53.152344 56.773438 53.003906 54.273438 L 52.476562 48.167969 L 54.355469 50.375 C 55.207031 51.355469 55.984375 51.84375 56.6875 51.84375 C 57.136719 51.84375 57.363281 45.765625 57.363281 33.609375 L 57.4375 33.609375 L 61.644531 43.976562 C 63.148438 47.605469 64.222656 49.738281 64.875 50.375 L 65.175781 50.523438 L 65.25 50.226562 C 65.953125 46.160156 66.605469 43.289062 67.203125 41.625 L 67.28125 41.625 C 67.78125 43.535156 68.433594 44.492188 69.234375 44.492188 L 76.671875 35.59375 L 80.429688 30.960938 C 81.082031 29.882812 82.609375 28.3125 85.011719 26.253906 L 85.085938 26.328125 L 82.984375 32.359375 C 82.183594 34.761719 81.78125 36.820312 81.78125 38.535156 L 82.308594 39.5625 L 83.210938 39.050781 L 83.433594 38.535156 L 91.625 32.285156 L 97.410156 28.976562 C 99.863281 27.699219 102.144531 26.914062 104.25 26.621094 C 101.34375 32.898438 99.890625 36.351562 99.890625 36.992188 L 100.566406 37.800781 L 112.4375 33.386719 C 119.152344 30.789062 123.03125 29.441406 124.085938 29.34375 M 115.144531 46.917969 L 115.066406 46.84375 L 115.066406 46.992188 L 115.144531 46.917969 M 125.738281 78.097656 L 125.4375 78.46875 L 125.886719 79.421875 L 125.738281 78.539062 L 125.738281 78.097656 M 119.5 96.777344 L 119.050781 100.527344 L 119.351562 102.808594 C 119.449219 104.378906 119.25 105.160156 118.75 105.160156 C 118.398438 105.160156 118.023438 104.597656 117.621094 103.46875 C 117.222656 102.34375 116.722656 101.777344 116.121094 101.777344 C 115.617188 101.777344 115.367188 101.582031 115.367188 101.191406 C 115.367188 100.796875 115.746094 99.621094 116.496094 97.660156 C 117.347656 95.453125 118.046875 94.351562 118.597656 94.351562 C 119.402344 94.351562 119.703125 95.160156 119.5 96.777344 M 130.996094 93.617188 C 130.445312 91.65625 129.644531 90.675781 128.59375 90.675781 C 128.140625 90.675781 127.917969 90.476562 127.917969 90.085938 C 127.917969 89.105469 129.59375 88.617188 132.949219 88.617188 C 133.601562 88.617188 133.902344 88.886719 133.851562 89.425781 C 133.851562 90.109375 133.453125 91.140625 132.648438 92.511719 C 132.601562 94.277344 132.25 95.160156 131.597656 95.160156 C 131.046875 95.160156 130.773438 94.914062 130.773438 94.425781 C 130.773438 94.179688 130.847656 93.910156 130.996094 93.617188 M 54.507812 99.644531 C 55.410156 99.644531 55.859375 99.964844 55.859375 100.601562 L 55.410156 101.632812 L 54.582031 102.441406 C 54.03125 102.441406 53.65625 102.195312 53.453125 101.707031 L 53.304688 100.824219 C 53.304688 100.039062 53.707031 99.644531 54.507812 99.644531 "/>
</g>
</svg>
