<?xml version="1.0" encoding="UTF-8" standalone="no"?>
<svg
   xmlns:dc="http://purl.org/dc/elements/1.1/"
   xmlns:cc="http://creativecommons.org/ns#"
   xmlns:rdf="http://www.w3.org/1999/02/22-rdf-syntax-ns#"
   xmlns:svg="http://www.w3.org/2000/svg"
   xmlns="http://www.w3.org/2000/svg"
   xmlns:sodipodi="http://sodipodi.sourceforge.net/DTD/sodipodi-0.dtd"
   xmlns:inkscape="http://www.inkscape.org/namespaces/inkscape"
   width="197px"
   height="209px"
   viewBox="0 0 197 209"
   version="1.1"
   id="svg9"
   sodipodi:docname="48.svg"
   inkscape:version="1.0.1 (0767f8302a, 2020-10-17)">
  <metadata
     id="metadata15">
    <rdf:RDF>
      <cc:Work
         rdf:about="">
        <dc:format>image/svg+xml</dc:format>
        <dc:type
           rdf:resource="http://purl.org/dc/dcmitype/StillImage" />
        <dc:title></dc:title>
      </cc:Work>
    </rdf:RDF>
  </metadata>
  <defs
     id="defs13" />
  <sodipodi:namedview
     pagecolor="#ffffff"
     bordercolor="#666666"
     borderopacity="1"
     objecttolerance="10"
     gridtolerance="10"
     guidetolerance="10"
     inkscape:pageopacity="0"
     inkscape:pageshadow="2"
     inkscape:window-width="1740"
     inkscape:window-height="1039"
     id="namedview11"
     showgrid="false"
     inkscape:zoom="4.8229665"
     inkscape:cx="98.5"
     inkscape:cy="104.5"
     inkscape:window-x="4498"
     inkscape:window-y="446"
     inkscape:window-maximized="0"
     inkscape:current-layer="svg9" />
  <path
     style="fill:#000000;fill-opacity:1;fill-rule:evenodd;stroke:none"
     d="m 135.12891,118.25 c 0.40234,-2.10547 0.97656,-4.58203 1.73046,-7.42578 0.60157,-2.5 0.89844,-6.86328 0.89844,-13.089845 v -7.574219 l -0.52344,-7.574218 -0.82812,-7.574219 -2.55469,-6.765625 -0.22265,-0.589844 c -1.55469,-2.5 -3.15625,-4.753906 -4.8125,-6.765625 -3.30469,-4.753906 -6.28516,-8.335937 -8.94141,-10.738281 -2.10156,-1.859375 -4.23047,-3.429688 -6.38672,-4.703125 l -0.375,0.144531 -2.55469,-1.324219 c -2.30468,-2.5 -5.68359,-3.894531 -10.14453,-4.191406 l -4.656248,-0.292969 -6.539062,0.515625 -3.230469,0.515625 -11.121093,-1.179687 c -1.5,0 -3.152344,0.34375 -4.957032,1.03125 l 0.828125,-0.07422 c -1.355469,0.441406 -2.355469,0.933594 -3.007812,1.472656 l -1.425781,0.441406 -3.308594,1.835938 c -2.152344,1.421875 -4.15625,3.457031 -6.011719,6.105469 -1.351563,1.714843 -3.355469,5.023437 -6.007813,9.925781 -3.507812,6.277344 -5.5625,11.816406 -6.164062,16.621094 l 0.226562,-0.148438 -0.148437,0.808594 c -0.300781,2.257812 -0.425781,5.738281 -0.378906,10.445312 0,3.039063 0.878906,8.898438 2.632812,17.574219 l 0.523438,4.41406 c 0.25,1.86329 0.652343,3.33204 1.203125,4.41016 l 0.449218,0.88281 0.152344,1.76563 h 0.375 L 49.921875,117 l 0.300781,0.73828 0.976563,3.38281 -0.300781,-5.66406 C 50.550781,111.33984 50.375,108.61719 50.375,107.29297 c 0,-3.38281 0.199219,-5.88281 0.601562,-7.500001 l -0.07812,-0.441407 v -2.792968 h 0.152343 l 0.07422,0.292968 0.07422,-0.07422 0.07813,-0.21875 h 0.07422 l 0.07422,-0.07422 c 1.253907,0 1.703125,1.667969 1.351563,5.000008 v 0.0742 l 0.453125,2.72266 1.5,5.44141 v 0.4414 l 0.07813,-0.0742 c 0.949218,2.84375 2.253906,6.15235 3.90625,9.92579 -1.101563,-3.23438 -1.929688,-6.25 -2.480469,-9.04297 -0.449219,-2.30469 -0.75,-5.07422 -0.902344,-8.3125 l -1.125,-3.601569 0.148438,-0.515625 0.527343,0.292969 0.07422,0.296874 0.226563,0.144532 -0.07422,-0.660156 -0.07813,-0.441407 c 0,-0.246093 0.07813,-0.441406 0.226562,-0.589843 h 0.226563 l 0.07422,0.222656 -0.07422,0.515625 0.300781,2.792974 3.003906,7.05859 2.480469,6.69141 v -0.73438 l 0.148438,-0.0742 v -2.79296 l -0.675781,-4.04297 -0.148438,-9.121101 v -5.957031 c 0,-2.695312 0.175781,-4.460937 0.523438,-5.292969 l -0.222657,-0.148437 v -1.101563 l 0.300781,0.292969 0.07422,-0.222656 0.148438,0.664063 0.152343,0.660156 0.75,-2.644532 c 0.953126,-3.285156 1.753907,-4.929687 2.40625,-4.929687 h 0.222657 l 0.378906,0.441406 -0.152344,0.441407 0.152344,3.972656 0.148437,4.78125 0.375,2.058594 c 0.203126,1.664062 0.578126,3.722656 1.128907,6.175781 l 0.300781,1.472656 0.07422,0.07031 0.226562,-0.441407 -0.152343,-0.808593 v -1.101563 l -0.148438,-1.03125 -0.07813,-0.441406 v -4.191407 l 0.679687,-7.867187 V 81.039086 H 67.73048 l 0.07422,-0.660156 -0.300782,0.148438 -0.449218,-0.441406 0.828124,-2.058594 -0.07812,-0.296875 0.152343,0.296875 h 0.300781 L 68.03125,77.4375 68.707031,75.304688 68.558594,75.15625 68.859375,74.789062 69.007812,73.6875 69.535156,71.921875 c 0.902344,-2.941406 1.5,-4.414063 1.800782,-4.414063 1.753906,0 5.210937,3.851563 10.371093,11.546876 l 2.101563,-2.425782 3.007812,-3.089844 c 4.058594,-3.1875 6.5625,-5.023437 7.511719,-5.515624 l 0.378906,-0.144532 0.300781,0.07031 1.800782,2.722656 0.152344,0.367187 v 0.07422 l 2.253906,5.589844 c 1.953126,5.34375 3.480466,10.195313 4.582036,14.558594 l 0.30078,1.105469 c 0.5,0.441406 1.02734,2.621093 1.57812,6.542968 l 0.30078,1.03125 v 0.144536 l -0.15234,-0.511723 0.0781,0.953123 0.0742,0.44141 0.14844,2.72266 0.15234,1.83984 v 1.10156 h 0.14844 l 0.0781,0.73438 v -0.73438 h 0.0742 V 105.75 c 0.14843,-1.07812 0.375,-1.74219 0.67578,-1.98437 l -0.22657,-0.51563 0.45313,0.44141 -0.15234,-5.808598 v -7.0625 l -0.67579,-3.308593 -2.17968,-10.882813 v -0.07422 l 0.45312,0.734374 0.14844,-0.21875 -0.44922,-0.957031 c 0.0508,-0.09766 0.14844,-0.148437 0.30078,-0.148437 0.94922,0 1.82813,3.433594 2.62891,10.296875 l 0.67578,8.824219 v 1.398437 l -0.22656,7.281257 0.15234,-0.0742 0.60156,1.76562 1.42578,5.07422 1.05079,6.83984 0.30078,7.71875 1.1289,-3.52734 c 0.35157,-2.60156 0.65235,-4.36328 0.90235,-5.29687 l -0.0781,-0.51563 0.30078,-0.29297 v 0.0742 l 0.0781,0.14844 0.375,-0.0742 v -0.22266 c 0.75,0.2461 1.30078,1.47266 1.65234,3.67969 l 0.67578,5.95703 1.12891,9.19141 c 1.75,-3.38282 2.67969,-6.44922 2.77734,-9.19141 l 0.15235,-1.17969 -0.0742,-0.0742 0.14844,-0.4375 0.60156,-8.97266 0.14844,-5.51563 v 0.14454 l 0.22656,-0.0703 -0.22656,-2.0625 0.0781,-3.23437 v -6.472661 h 0.67578 l 0.22266,-0.07031 0.98047,1.101562 -0.0781,0.21875 h 0.15235 l 0.0742,0.07422 1.57813,3.164059 v 0.14453 l 0.0742,-0.14453 V 102 h 0.15234 l 0.0742,-0.80859 v -0.22266 l 0.52734,-1.617188 c 0,-1.566406 0.0742,-2.671874 0.22266,-3.308593 l 1.35156,-6.617188 0.37891,0.21875 0.14844,-0.07422 0.375,0.07422 0.0781,0.222657 h 0.22266 c 0.60156,0.488281 1.17968,1.617187 1.73047,3.382812 0,2.890625 -0.52735,5.613281 -1.57813,8.16016 -0.30078,0.6875 -0.62891,2.03515 -0.97656,4.04687 -0.15234,0.6836 -0.70313,1.51953 -1.65625,2.5 l -1.35156,1.17578 -0.30078,0.44141 c 0.60156,1.03125 1.40234,3.30859 2.40625,6.83984 l 1.20312,5.95703 1.5,-6.62109 c 0.75391,-4.94922 1.42969,-8.03906 2.03125,-9.26562 l -0.0781,-1.54297 c 0,-1.51953 0.125,-2.28125 0.37891,-2.28125 0.39844,0 0.69922,1.6914 0.89844,5.07422 l 0.90234,4.92968 0.52735,4.19141 0.44921,3.16016 0.22657,-1.10157 0.22656,0.58985 0.14844,-0.14844 -0.30078,-1.10547 M 60.894531,85.160156 v -0.367187 h 0.148438 l 0.226562,0.734375 -0.300781,-0.367188 h -0.07422 m 6.761719,-8.824218 0.300781,-1.546876 v 2.5 l -0.30078,-0.953124 m 27.949219,-37.507813 9.320311,0.882813 c 0.85156,0.292968 2.82813,1.445312 5.9336,3.457031 2.80468,1.175781 5.51171,2.84375 8.11718,5 3.15625,2.597656 6.96094,6.960937 11.41797,13.089843 l 3.98438,5.808594 c 1.35156,0.246094 2.30468,2.84375 2.85546,7.796875 l 0.90235,7.796875 0.44922,7.792969 0.0742,7.722656 c 0,6.374999 -0.34766,10.785159 -1.05079,13.238279 -0.25,0.78125 -0.57421,2.96485 -0.97656,6.54297 -0.55078,4.26563 -1.1289,6.42188 -1.72656,6.47266 h -0.0781 l -0.375,-0.51563 0.0742,-0.80859 c -1,-3.92188 -1.5,-6.74219 -1.5,-8.45703 l -0.90234,-4.63281 -1.57813,6.32421 -2.2539,8.45704 -0.45313,1.54296 -0.375,-0.66015 0.30079,-1.10156 -0.30079,-2.50391 -0.75,-4.26172 -1.42968,-3.67969 c -1.5,5.64063 -2.75391,8.92188 -3.75391,9.85547 l -0.52734,3.60156 -3.38282,8.23828 0.0781,-1.17578 v -0.4414 l -0.75391,1.32422 -0.375,-3.23829 -0.67578,-6.32421 c -0.5,-2.10547 -0.77734,-3.82422 -0.82812,-5.14844 l -0.82422,-2.20313 -0.82813,4.48438 c -0.75,3.48047 -1.47656,5.22265 -2.17968,5.22265 l -0.22266,-0.14843 -0.15234,0.51562 c -0.44922,-0.34375 -0.625,-0.90625 -0.52344,-1.6914 l 0.30078,-2.0586 c 0,-7.60156 -0.87891,-13.97265 -2.63281,-19.12109 l -0.67578,4.11719 c -0.0977,2.40234 -0.30079,3.99609 -0.60157,4.78125 0,0.78515 -0.14843,1.17578 -0.44922,1.17578 l -0.22656,-0.8086 -0.14844,-0.0742 -0.0781,-0.29297 0.15234,-0.73438 -0.30078,-4.04687 -0.0742,-1.10157 -0.45312,-4.55859 -0.0742,-0.37109 -0.75,-6.027348 -0.82813,-4.339843 -0.375,-1.472657 c -1.85546,-5.097656 -3.156246,-9.042968 -3.906246,-11.839843 l -0.300782,-0.953125 -1.503906,0.367187 -3.082031,0.585938 -15.25,0.515625 -0.300781,0.07422 v -0.07422 l -7.441406,0.07422 -2.554688,0.07422 -0.523438,3.382813 v 14.929687 c 0,1.027346 -0.203124,1.542966 -0.601562,1.542966 -0.75,0 -1.429688,-1.203122 -2.027344,-3.605466 l -0.902344,-4.558593 -0.300781,-8.015626 0.300781,-3.089843 -1.730468,3.824219 -0.824219,3.238281 -0.753906,4.191406 v 5.367187 l 0.226562,9.781245 0.675781,9.63282 v 0.36718 c 0.101563,0.58985 -0.05078,0.88282 -0.449218,0.88282 l -0.453125,-0.14454 -5.03125,-13.08984 c 0.148437,1.22266 0.398437,2.10547 0.75,2.64453 l 0.375,3.08985 c 0.199219,3.23437 1.402343,7.45312 3.605469,12.64843 l 2.179687,4.92578 v 1.10547 l -0.07422,0.0742 -0.375,0.14453 c -0.902344,0 -1.878906,-1.29687 -2.929687,-3.89453 l -0.828125,-2.35547 -1.578125,-4.04297 c -2.203125,-5.14843 -3.53125,-8.55468 -3.980469,-10.22265 l -1.878906,-7.8711 -0.375,5.44532 c 0,2.84375 0.171875,5.21875 0.523437,7.13281 v 8.97266 l -0.449219,0.21875 C 48.847656,117.26953 47.144531,111.33984 46.242188,105.75 l -1.878907,-9.265625 c -0.5,-2.695313 -0.75,-5.492187 -0.75,-8.382813 l 0.300781,-7.796874 h -0.152343 v -2.792969 c 0.351562,-4.460938 1.152343,-7.671875 2.40625,-9.632813 l 4.730469,-9.636718 c 2.90625,-6.027344 6.464843,-10.613282 10.671874,-13.75 l 1.050782,-0.664063 c 0.152344,-0.585937 1.453125,-1.519531 3.90625,-2.792969 3.058594,-1.570312 5.886718,-2.351562 8.492187,-2.351562 3.003907,0 5.9375,0.390625 8.789063,1.175781 l 5.335937,-0.515625 6.460938,-0.515625 m -3.152344,33.09375 2.777344,-1.472656 -0.601563,-1.320313 c -1.050781,0.980469 -3.480468,2.671875 -7.285156,5.074219 -1.105469,0.734375 -2.257812,1.960937 -3.457031,3.675781 l -1.652344,1.910156 2.703125,-0.07031 v -0.148438 l 3.90625,-4.707031 c 0.5,-0.785156 1.703125,-1.765625 3.609375,-2.941406 m -3.007813,3.53125 c -1.300781,2.15625 -2.355468,3.554687 -3.15625,4.191406 l 2.40625,-0.07422 -0.07422,-0.292968 c 0,-0.246094 2.351562,-2.894532 7.0625,-7.945313 l -0.07813,-0.21875 -2.703125,1.691407 c -1.953125,1.175781 -3.105469,2.058593 -3.457032,2.648437 m 6.613282,-3.382813 -6.761719,7.425782 2.628906,-0.07422 h 0.148438 l 2.933593,-3.527344 1.652344,-2.722656 -0.601562,-1.101563 m 0.976562,1.835938 -3.230468,5.296875 3.980468,-3.308594 -0.601562,-1.691406 -0.148438,-0.296875 m 1.050782,2.722656 -3.003907,2.648438 3.605469,-0.664063 -0.601562,-1.984375 m 29.906249,14.414063 -0.97656,6.03125 c 0,4.117191 -0.60157,6.199221 -1.80469,6.250001 h -0.0742 l -0.44922,-0.51563 0.0742,-0.0742 -2.33203,-4.26563 v 3.08984 l -0.14844,8.38282 0.22656,-0.0742 1.27735,-0.73438 -0.0781,-0.21875 c 2.25781,-1.32422 3.38281,-2.60156 3.38281,-3.82422 0.25,-1.86328 0.55079,-3.1875 0.90235,-3.97265 1.10156,-2.894534 1.65234,-5.539065 1.65234,-7.941409 l -1.65234,-2.132812 M 71.5625,68.757812 l -0.75,2.722657 c 1.351562,0.539062 4.054688,3.359375 8.113281,8.457031 l 2.328125,-0.07422 C 80.453125,79.277344 79.804688,78.566406 79.300781,77.730469 L 77.199219,74.496094 71.5625,68.757812 m -1.953125,11.621094 8.492187,-0.367187 -3.382812,-3.675781 -4.207031,-3.679688 -0.753907,2.574219 c 3.40625,2.597656 5.335938,3.898437 5.789063,3.898437 l 0.449219,0.441406 c 0,0.292969 -0.25,0.441407 -0.75,0.441407 l -5.636719,-4.117188 -0.07422,0.144531 v 0.515626 l -0.152344,0.882812 3.609376,2.425781 -0.527344,0.367188 -3.15625,-2.058594 -0.226563,1.105469 h 0.453125 v 1.027344 l -0.601562,-0.144532 -0.07422,0.292969 0.75,-0.07422 M 56.6875,81.039062 v -0.511718 l 0.07422,0.511718 H 56.6875 m 67.32031,30.152348 -1.35156,-0.58594 -0.375,0.0703 -0.22656,8.23828 -0.14844,2.28125 0.30078,-0.51562 1.20313,-3.01563 1.42578,-4.78125 -0.67578,-1.6914 h -0.15235 m 13.67578,18.82812 0.22657,0.36719 h -0.44922 l 0.22265,-0.36719"
     id="path2" />
  <path
     style="fill:#990000;fill-opacity:1;fill-rule:evenodd;stroke:none"
     d="M 49.320312,115.38281 48.871094,114.5 c -0.550782,-1.07812 -0.953125,-2.54687 -1.203125,-4.41016 l -0.523438,-4.41406 C 45.390625,97 44.511719,91.140625 44.511719,88.101562 c -0.04687,-4.707031 0.07813,-8.1875 0.378906,-10.445312 l 0.148437,-0.808594 -0.226562,0.148438 c 0.601562,-4.804688 2.65625,-10.34375 6.164062,-16.621094 2.652344,-4.902344 4.65625,-8.210938 6.007813,-9.925781 1.855469,-2.648438 3.859375,-4.683594 6.011719,-6.105469 l 3.308594,-1.835938 1.425781,-0.441406 c 0.652343,-0.539062 1.652343,-1.03125 3.007812,-1.472656 l -0.828125,0.07422 c 1.804688,-0.6875 3.457032,-1.03125 4.957032,-1.03125 l 11.121093,1.179687 3.230469,-0.515625 6.539062,-0.515625 4.656248,0.292969 c 4.46094,0.296875 7.83985,1.691406 10.14453,4.191406 l 2.55469,1.324219 0.375,-0.144531 c 2.15625,1.273437 4.28516,2.84375 6.38672,4.703125 2.65625,2.402344 5.63672,5.984375 8.94141,10.738281 1.65625,2.011719 3.25781,4.265625 4.8125,6.765625 l 0.22265,0.589844 2.55469,6.765625 0.82812,7.574219 0.52344,7.574218 v 7.574219 c 0,6.226564 -0.29687,10.589844 -0.89844,13.089844 -0.7539,2.84375 -1.32812,5.32031 -1.73046,7.42578 l -0.30079,-1.25 0.15235,-5.07422 -0.45313,-5.14453 -0.0742,-10.222655 -0.375,0.07422 -1.5039,3.601565 -0.52344,-2.500002 C 131.94922,95.625 131.69922,94.546875 131.29687,94.5 l -0.60156,-6.105469 -0.44922,-6.472656 c 0,-4.3125 -0.17578,-6.46875 -0.52734,-6.46875 h -0.14844 l -0.22656,7.058594 -0.90234,7.132812 -0.375,-0.07422 -0.14844,0.07422 -0.37891,-0.21875 -1.35156,6.617188 c -0.14844,0.636719 -0.22266,1.742187 -0.22266,3.308593 l -0.52734,1.617188 0.22656,-10.441406 -0.3789,-3.972656 c -0.19922,0.539062 -0.82422,4.414062 -1.875,11.621093 l -0.98047,-1.101562 -0.22266,0.07031 h -0.67578 v 6.472661 l -0.0781,3.23437 c -0.44922,-3.57812 -1.35157,-8.355468 -2.70313,-14.339843 h -0.22656 l -1.87891,18.605473 h -0.0742 c -0.14843,-2.10547 -0.60156,-3.55469 -1.35156,-4.33594 -0.95312,3.38281 -1.42969,6.27344 -1.42969,8.67578 l -0.30078,0.29297 0.0781,0.51563 c -0.25,0.93359 -0.55078,2.69531 -0.90235,5.29687 l -1.1289,3.52734 -0.30078,-7.71875 0.30078,2.13282 0.15234,-0.0742 -2.62891,-18.60547 -0.60156,-4.046878 -0.22656,-1.691406 -0.67578,-8.824219 c -0.80078,-6.863281 -1.67969,-10.296875 -2.62891,-10.296875 -0.15234,0 -0.25,0.05078 -0.30078,0.148437 -0.65234,-1.273437 -1.25391,-1.910156 -1.80469,-1.910156 h -0.375 v 2.867187 l 1.65235,11.617188 c 1.5039,6.03125 2.2539,9.929688 2.2539,11.695312 l -0.0742,5.14844 -0.15234,-1.83984 -0.14844,-2.72266 -0.0742,-0.44141 0.0742,-0.4414 v -0.144536 l -0.30078,-1.03125 c -0.55078,-3.921875 -1.07812,-6.101562 -1.57812,-6.542968 l -0.30078,-1.105469 C 102.69534,86.898456 101.168,82.046893 99.214874,76.703143 l -2.253906,-5.589844 v -0.07422 l -0.152344,-0.367187 -1.800782,-2.722656 -0.300781,-0.07031 -0.378906,0.144532 c -0.949219,0.492187 -3.453125,2.328124 -7.511719,5.515624 l -3.007812,3.089844 -2.101563,2.425782 C 76.546875,71.359375 73.089844,67.507812 71.335938,67.507812 c -0.300782,0 -0.898438,1.472657 -1.800782,4.414063 l -0.527344,1.765625 -0.148437,1.101562 -0.300781,0.367188 0.148437,0.148438 -0.675781,2.132812 -0.07422,-0.148438 v -2.5 l -0.30078,1.546876 -0.902344,-2.429688 h -0.226562 l -0.375,7.0625 -0.601563,7.132812 0.300781,3.015626 -0.375,-2.058594 -0.148437,-4.78125 -0.152344,-3.972656 0.152344,-0.441407 -0.378906,-0.441406 h -0.222657 c -0.652343,0 -1.453124,1.644531 -2.40625,4.929687 l -0.75,2.644532 -0.152343,-0.660156 -0.148438,-0.664063 v -0.144531 l -0.226562,-0.734375 h -0.148438 v 0.367187 h -0.152343 l 0.152343,0.441406 v 0.144532 l -0.07813,-0.144532 c -1.601562,-2.5 -2.703125,-3.75 -3.304687,-3.75 h -0.226563 c -0.300781,0.929688 -0.449218,2.695313 -0.449218,5.292969 0,3.089844 0.726562,7.5 2.179687,13.238279 l 1.800781,8.97266 0.378906,4.41016 v 0.36718 h 0.07422 v 0.73438 l -2.480469,-6.69141 -3.003906,-7.05859 -0.300781,-2.792971 0.07422,-0.515625 -0.07422,-0.222656 h -0.226563 c -0.148437,0.148437 -0.226562,0.34375 -0.226562,0.589843 l 0.07813,0.441407 0.07422,0.660156 -0.226563,-0.144532 -0.07422,-0.296874 0.07422,-0.144532 L 53.453125,97 l -0.148437,0.515625 1.425781,12.207035 -1.5,-5.44141 -0.453125,-2.72266 v -0.0742 c 0.351562,-3.332036 -0.09766,-5.000005 -1.351563,-5.000005 l -0.07422,0.07422 h -0.07422 v -0.148438 l -2.332032,-5.808594 h -0.449218 l -0.226563,10.808597 c 0,3.43359 0.175781,6.17968 0.527344,8.23828 l 0.226563,2.79297 h -0.07813 l 0.375,2.9414 m 85.734375,3.53125 -0.22657,1.10157 -0.44921,-3.16016 0.0742,0.0742 0.60157,1.98437 M 50.898438,96.558594 h 0.152343 -0.152343 M 66.828125,74.644531 h -0.07422 v -0.07422 l 0.07422,0.07422 M 56.6875,81.039062 h 0.07422 L 56.6875,80.527344 v 0.511718 m 10.515625,13.972657 0.07813,0.441406 -0.07813,-0.441406 m 0.226563,2.574219 0.152343,0.808593 -0.226562,0.441407 -0.07422,-0.07031 -0.300781,-1.472656 0.300781,1.25 0.148438,-0.07422 V 97.58594 m -17.882813,17.5039 -0.148437,-0.95703 0.222656,0.8086 -0.07422,0.14843 m 0.675781,2.64844 L 49.921875,117 h 0.152344 l 0.148437,0.8125 v -0.0742 m 74.988284,-16.10547 -0.0742,0.14453 v -0.14453 h 0.0742 m -1.65235,-3.16406 -0.0742,-0.07422 h 0.14843 l -0.0742,0.07422 m -17.05468,8.16406 v 0.73438 l -0.0781,-0.73438 h 0.0781 m 8.78906,0.8086 0.0742,0.0742 h -0.0742 v -0.0742"
     id="path4" />
  <path
     style="fill:#660000;fill-opacity:1;fill-rule:evenodd;stroke:none"
     d="m 49.320312,115.38281 -0.375,-2.9414 h 0.07813 l -0.226563,-2.79297 c -0.351563,-2.0586 -0.527344,-4.80469 -0.527344,-8.23828 l 0.226563,-10.808598 h 0.449218 l 2.332032,5.808594 v 0.148438 l -0.07813,0.21875 -0.07422,0.07422 -0.07422,-0.292968 h -0.152343 v 2.792968 l 0.07812,0.441407 C 50.574219,101.41016 50.375,103.91016 50.375,107.29297 c 0,1.32422 0.175781,4.04687 0.523438,8.16406 l 0.300781,5.66406 -0.976563,-3.38281 v 0.0742 L 50.074219,117 h -0.152344 l -0.07422,0.14844 h -0.375 l -0.152344,-1.76563 M 54.730469,109.72266 53.304688,97.515625 53.453125,97 l 1.503906,1.691406 -0.07422,0.144532 -0.527343,-0.292969 -0.148438,0.515625 1.125,3.601566 c 0.152344,3.23828 0.453125,6.00781 0.902344,8.3125 0.550781,2.79297 1.378906,5.80859 2.480469,9.04297 -1.652344,-3.77344 -2.957032,-7.08204 -3.90625,-9.92579 l -0.07813,0.0742 v -0.4414 m 6.539062,4.41015 h -0.07422 v -0.36718 l -0.378906,-4.41016 -1.800781,-8.97266 c -1.453118,-5.738259 -2.17968,-10.148415 -2.17968,-13.238259 0,-2.597656 0.148437,-4.363281 0.449218,-5.292969 h 0.226563 c 0.601562,0 1.703125,1.25 3.304687,3.75 l 0.07813,0.144532 v 0.957031 l 0.222657,0.148437 c -0.347657,0.832032 -0.523438,2.597657 -0.523438,5.292969 v 5.957031 l 0.148438,9.121098 0.675781,4.04297 v 2.79296 l -0.148438,0.0742 m -0.375,-28.531248 -0.152343,-0.441406 h 0.226562 l 0.300781,0.367188 v 0.144531 l -0.07422,0.222656 -0.300781,-0.292969 m 4.957031,5.515626 -0.300781,-3.015626 0.601563,-7.132812 0.375,-7.0625 h 0.226562 l 0.902344,2.429688 0.300781,0.953124 0.07422,0.148438 0.226562,0.589844 h -0.300781 l -0.152343,-0.296875 0.07812,0.296875 -0.828124,2.058594 0.449218,0.441406 0.300782,-0.148438 -0.07422,0.660156 h 0.152343 v 1.914063 l -0.679687,7.867187 v 4.191407 l 0.07813,0.441406 0.148438,1.03125 v 1.984375 l -0.148438,0.07422 -0.300781,-1.25 c -0.550786,-2.453106 -0.925786,-4.5117 -1.128912,-6.175762 m 40.124998,8.968752 -0.0742,0.4414 -0.0781,-0.953121 0.15234,0.511721 m 0.30078,5.44531 0.0742,-5.14844 c 0,-1.765622 -0.75,-5.66406 -2.2539,-11.69531 l -1.65235,-11.617188 v -2.867187 h 0.375 c 0.55078,0 1.15235,0.636719 1.80469,1.910156 l 0.44922,0.957031 -0.14844,0.21875 -0.45312,-0.734374 v 0.07422 l 2.17968,10.882813 0.67579,3.308593 v 7.0625 l 0.15234,5.808596 -0.45313,-0.44141 0.22657,0.51563 c -0.30078,0.24218 -0.52735,0.90625 -0.67578,1.98437 v 0.88281 h -0.30079 v -1.10156 m 1.95313,-10.44531 0.22656,1.691406 0.60156,4.046874 2.62891,18.60547 -0.15234,0.0742 -0.30078,-2.13282 -1.05079,-6.83984 -1.42578,-5.07422 -0.60156,-1.76562 -0.15234,0.0742 0.22656,-7.281253 V 95.0859 m 5.55859,20.37109 c 0,-2.40234 0.47657,-5.29297 1.42969,-8.67578 0.75,0.78125 1.20313,2.23047 1.35156,4.33594 h 0.0742 l 1.87891,-18.605469 H 118.75 c 1.35156,5.984375 2.25391,10.761719 2.70313,14.339839 l 0.22656,2.0625 -0.22656,0.0703 v -0.14454 l -0.14844,5.51563 -0.60156,8.97266 -0.14844,0.4375 0.0742,0.0742 -0.15235,1.17969 c -0.0977,2.74219 -1.02734,5.80859 -2.77734,9.19141 l -1.12891,-9.19141 -0.67578,-5.95703 c -0.35156,-2.20703 -0.90234,-3.43359 -1.65234,-3.67969 v 0.22266 l -0.375,0.0742 -0.0781,-0.14844 v -0.0742 m 9.6211,-17.281247 c 1.05078,-7.207031 1.67578,-11.082031 1.875,-11.621093 l 0.3789,3.972656 -0.22656,10.441404 v 0.22266 L 125.36328,102 h -0.15234 v -0.36719 h -0.0742 l -1.57813,-3.16406 0.0742,-0.07422 h -0.30078 l 0.0781,-0.21875 m 5.03125,-8.53125 0.90234,-7.132812 0.22656,-7.058594 h 0.14844 c 0.35156,0 0.52734,2.15625 0.52734,6.46875 l 0.44922,6.472656 0.60156,6.105469 c 0.40235,0.04687 0.65235,1.125 0.75391,3.234375 l 0.52344,2.500006 1.5039,-3.601569 0.375,-0.07422 0.0742,10.222659 0.45313,5.14453 -0.15235,5.07422 0.30079,1.25 0.30078,1.10547 -0.14844,0.14844 -0.22656,-0.58985 -0.60157,-1.98437 -0.0742,-0.0742 -0.52735,-4.19141 -0.90234,-4.92968 c -0.19922,-3.38282 -0.5,-5.07422 -0.89844,-5.07422 -0.25391,0 -0.37891,0.76172 -0.37891,2.28125 l 0.0781,1.54297 c -0.60156,1.22656 -1.27734,4.3164 -2.03125,9.26562 l -1.5,6.62109 -1.20312,-5.95703 c -1.00391,-3.53125 -1.80469,-5.80859 -2.40625,-6.83984 l 0.30078,-0.44141 1.35156,-1.17578 c 0.95312,-0.98047 1.50391,-1.8164 1.65625,-2.5 0.34765,-2.01172 0.67578,-3.35937 0.97656,-4.04687 1.05078,-2.546882 1.57813,-5.269538 1.57813,-8.160163 -0.55079,-1.765625 -1.12891,-2.894531 -1.73047,-3.382812 h -0.22266 l -0.0781,-0.222657 m -30.355472,-13.015625 0.601562,1.984375 -3.605469,0.664063 3.003907,-2.648438 m -1.050782,-2.722656 0.148438,0.296875 0.601562,1.691406 -3.980468,3.308594 3.230468,-5.296875 m -0.976562,-1.835938 0.601562,1.101563 -1.652344,2.722656 -2.933593,3.527344 h -0.148438 l -2.628906,0.07422 6.761719,-7.425782 m -6.613282,3.382813 c 0.351563,-0.589844 1.503907,-1.472656 3.457032,-2.648437 l 2.703125,-1.691407 0.07813,0.21875 c -4.710938,5.050781 -7.0625,7.699219 -7.0625,7.945313 l 0.07422,0.292968 -2.40625,0.07422 c 0.800782,-0.636719 1.855469,-2.035156 3.15625,-4.191406 m 3.007813,-3.53125 c -1.90625,1.175781 -3.109375,2.15625 -3.609375,2.941406 l -3.90625,4.707031 v 0.148438 l -2.703125,0.07031 1.652344,-1.910156 c 1.199219,-1.714844 2.351562,-2.941406 3.457031,-3.675781 3.804688,-2.402344 6.234375,-4.09375 7.285156,-5.074219 l 0.601563,1.320313 -2.777344,1.472656 m -20.890582,-3.16408 5.636719,5.738282 2.101562,3.234375 c 0.503907,0.835937 1.152344,1.546875 1.953125,2.132812 L 78.925781,79.9375 C 74.867188,74.839844 72.164062,72.019531 70.8125,71.480469 l 0.75,-2.722657 m -4.734375,5.886719 -0.07422,-0.07422 v 0.07422 h 0.07422 m 2.707031,5.660157 v -1.027344 h -0.453125 l 0.226563,-1.105469 3.15625,2.058594 0.527344,-0.367188 -3.609376,-2.425781 0.152344,-0.882812 v -0.515626 l 0.07422,-0.144531 5.636719,4.117188 c 0.5,0 0.75,-0.148438 0.75,-0.441407 l -0.449219,-0.441406 c -0.453125,0 -2.382813,-1.300781 -5.789063,-3.898437 l 0.753907,-2.574219 4.207031,3.679688 3.382812,3.675781 -8.492187,0.367187 -0.07422,-0.07422 m -19.988281,34.785154 0.07422,-0.14843 -0.222656,-0.8086 0.148437,0.95703 m 74.460934,-3.89843 h 0.15235 l 0.67578,1.6914 -1.42578,4.78125 -1.20313,3.01563 -0.30078,0.51562 0.14844,-2.28125 0.22656,-8.23828 0.375,-0.0703 1.35156,0.58594 m -8.71484,-3.75 v 0.0742 h 0.0742 l -0.0742,-0.0742"
     id="path6" />
</svg>
