<?xml version="1.0" encoding="UTF-8" standalone="no"?>
<svg
   xmlns:dc="http://purl.org/dc/elements/1.1/"
   xmlns:cc="http://creativecommons.org/ns#"
   xmlns:rdf="http://www.w3.org/1999/02/22-rdf-syntax-ns#"
   xmlns:svg="http://www.w3.org/2000/svg"
   xmlns="http://www.w3.org/2000/svg"
   xmlns:sodipodi="http://sodipodi.sourceforge.net/DTD/sodipodi-0.dtd"
   xmlns:inkscape="http://www.inkscape.org/namespaces/inkscape"
   width="197px"
   height="209px"
   viewBox="0 0 197 209"
   version="1.1"
   id="svg9"
   sodipodi:docname="50.svg"
   inkscape:version="1.0.1 (0767f8302a, 2020-10-17)">
  <metadata
     id="metadata15">
    <rdf:RDF>
      <cc:Work
         rdf:about="">
        <dc:format>image/svg+xml</dc:format>
        <dc:type
           rdf:resource="http://purl.org/dc/dcmitype/StillImage" />
        <dc:title />
      </cc:Work>
    </rdf:RDF>
  </metadata>
  <defs
     id="defs13" />
  <sodipodi:namedview
     pagecolor="#ffffff"
     bordercolor="#666666"
     borderopacity="1"
     objecttolerance="10"
     gridtolerance="10"
     guidetolerance="10"
     inkscape:pageopacity="0"
     inkscape:pageshadow="2"
     inkscape:window-width="1910"
     inkscape:window-height="1165"
     id="namedview11"
     showgrid="false"
     inkscape:zoom="1.7051762"
     inkscape:cx="-54.152552"
     inkscape:cy="21.430292"
     inkscape:window-x="4039"
     inkscape:window-y="98"
     inkscape:window-maximized="0"
     inkscape:current-layer="svg9"
     inkscape:document-rotation="0" />
  <g
     id="g846"
     transform="matrix(0.65190613,0,0,0.55012264,-83.127489,21.386404)">
    <path
       style="fill:#272e36;fill-opacity:1;stroke:#000000;stroke-width:1px;stroke-linecap:butt;stroke-linejoin:miter;stroke-opacity:1"
       d="m 241.11816,110.17487 -1.76717,0.9072 -5.38386,14.12945 -5.81242,18.14506 -6.96781,22.30402 -4.083,20.16552 -2.68205,19.35912 -1.97498,17.30873 -2.79434,14.9877 -0.61539,1.52436 -1.56609,-3.93803 -3.14557,-10.28861 -3.15945,-13.59472 -3.29779,-18.56791 -2.32477,-17.01071 -1.07398,-12.36238 -0.83768,-8.96795 -1.43547,-17.01748 -3.94815,6.5148 -2.34034,10.27626 -2.39835,8.57665 -3.94442,18.10385 -2.96006,8.67948 0.98508,-12.8728 2.04711,-15.95033 3.08707,-15.50497 4.25574,-16.64038 0.0473,-1.7585 -1.47334,-0.53732 -3.36871,4.15405 -6.69474,7.11538 -0.8928,0.0543 0.7196,-4.61921 4.55534,-10.22471 5.6087,-14.33572 9.16581,-16.550944 8.6737,-15.449678 8.98597,-13.601583 10.929,-10.066544 8.52147,-5.785912 11.72845,-3.747324 10.22676,-1.916772 10.89341,-0.76276 10.71743,0.606712 10.96941,2.625344 10.41878,4.576846 7.53133,4.424951 8.66851,8.478191 7.07443,9.7115 5.28894,9.617027 4.99729,11.302214 4.95688,13.035632 3.76313,11.86753 4.0876,14.02448 3.15884,10.89495 1.75932,10.35332 -2.93968,-4.85545 -4.58611,-6.90649 -2.07328,-1.71988 1.56549,14.0761 1.51579,12.82986 -0.4177,9.90316 0.25933,12.33848 -0.0357,12.97154 -3.88713,-15.05129 -2.73535,-15.33662 -5.16085,-15.21899 -2.68867,15.74273 -2.02914,12.6696 -3.02363,14.57275 -2.72559,11.49028 -3.08683,14.12056 -2.13625,9.54304 -3.05463,13.55595 -2.88443,9.61469 -1.93965,-11.29779 -1.21184,-10.8647 -2.2834,-12.00906 -2.33877,-7.46143 -2.04651,7.50527 -1.24006,9.4132 -1.83929,9.04939 -2.29245,11.3817 -3.23266,11.78812 -2.75357,-18.37258 -2.49713,-14.38301 -2.27556,-13.70651 -2.23021,-11.03317 -3.24376,-13.6721 -3.08406,-12.84565 -1.62302,-5.47925 -1.03767,0.88103 -1.01499,9.71901 -1.15455,9.42966 -1.4222,11.03873 -3.72839,-11.65349 -4.66836,-17.72131 -4.49311,-18.64822 -4.11992,-16.27429 -3.89931,-16.281 -2.47928,-10.33748 -0.61829,-3.68922 z"
       id="path837" />
    <path
       style="fill:#171a1d;fill-opacity:1;stroke:#000000;stroke-width:1px;stroke-linecap:butt;stroke-linejoin:miter;stroke-opacity:1"
       d="m 176.60502,189.40928 -2.93498,17.53489 4.86775,-8.81108 2.75453,-6.45499 4.32931,-9.16924 0.17296,14.47381 2.0745,13.17103 2.0757,12.74959 2.00369,6.31801 1.37262,13.55009 0.86748,4.73612 1.42895,-9.21448 3.38837,-8.07739 2.56324,2.37965 3.10347,10.2308 2.59713,9.00461 4.38805,-6.51028 3.7752,-2.9749 0.69246,-9.20257 -0.89775,-10.28598 1.2432,-28.29882 -7.43376,44.44788 -4.71166,-14.22664 -2.63766,-11.16257 -3.13122,-18.26043 -2.20415,-16.5415 -2.08583,-19.98262 -2.07028,-21.57403 -3.94815,6.5148 -8.68311,36.95676 z"
       id="path839" />
    <path
       style="fill:#15181f;fill-opacity:1;stroke:#000000;stroke-width:1px;stroke-linecap:butt;stroke-linejoin:miter;stroke-opacity:1"
       d="m 310.7579,246.65158 1.79983,3.77782 4.01016,-12.26591 8.87042,13.76046 2.61594,-16.28317 1.28343,-16.55316 2.14174,-30.66113 8.55452,19.20498 1.25203,-7.0679 -3.88713,-15.05129 -2.73535,-15.33662 -5.16085,-15.21899 -6.08388,36.21533 -7.1292,31.56425 z"
       id="path841" />
  </g>
</svg>
