<?xml version="1.0" encoding="UTF-8" standalone="no"?>
<!-- Created with Inkscape (http://www.inkscape.org/) -->

<svg
   width="0.58000958in"
   height="0.77579039in"
   viewBox="0 0 14.732244 19.705076"
   version="1.1"
   id="svg5"
   inkscape:version="1.1.2 (76b9e6a115, 2022-02-25)"
   sodipodi:docname="53.svg"
   xmlns:inkscape="http://www.inkscape.org/namespaces/inkscape"
   xmlns:sodipodi="http://sodipodi.sourceforge.net/DTD/sodipodi-0.dtd"
   xmlns="http://www.w3.org/2000/svg"
   xmlns:svg="http://www.w3.org/2000/svg">
  <sodipodi:namedview
     id="namedview7"
     pagecolor="#ffffff"
     bordercolor="#666666"
     borderopacity="1.0"
     inkscape:pageshadow="2"
     inkscape:pageopacity="0.0"
     inkscape:pagecheckerboard="0"
     inkscape:document-units="mm"
     showgrid="false"
     showguides="true"
     inkscape:guide-bbox="true"
     fit-margin-top="0"
     fit-margin-left="0"
     fit-margin-right="0"
     fit-margin-bottom="0"
     inkscape:zoom="3.1108586"
     inkscape:cx="43.074925"
     inkscape:cy="128.90332"
     inkscape:window-width="2011"
     inkscape:window-height="1133"
     inkscape:window-x="1976"
     inkscape:window-y="218"
     inkscape:window-maximized="0"
     inkscape:current-layer="layer1"
     units="in" />
  <defs
     id="defs2">
    <inkscape:path-effect
       effect="powerclip"
       id="path-effect257434"
       is_visible="true"
       lpeversion="1"
       inverse="true"
       flatten="false"
       hide_clip="false"
       message="Utilise la règle de remplissage « fill-rule: evenodd » de la boîte de dialogue &lt;b&gt;Fond et contour&lt;/b&gt; en l'absence de résultat de mise à plat après une conversion en chemin." />
    <clipPath
       clipPathUnits="userSpaceOnUse"
       id="clipPath257430">
      <path
         style="display:none;fill:none;stroke:#000000;stroke-width:0.26262px;stroke-linecap:butt;stroke-linejoin:miter;stroke-opacity:1"
         d="m 89.891483,86.320179 -2.29016,2.47232 -0.0591,7.462751 1.243341,-0.686305 0.356568,-0.277983 0.87458,-0.856347 2.496791,0.0061 0.641149,-0.380081 0.184362,-0.540775 0.0585,-0.671363 -0.005,-0.650398 0.42002,-0.273345 0.203351,-0.608568 0.0495,-0.522319 -0.0379,-0.531943 -0.0666,-0.461374 0.188219,-0.553526 0.251452,-0.534315 0.0994,-0.372855 -0.372481,-0.224452 -0.302979,-0.227126 -0.0351,-0.236284 0.40517,-0.418915 0.310991,-0.488296 -0.212511,-0.406737 -0.309909,-0.174333 -0.844571,-0.07385 -1.160129,0.01233 -0.556832,-2.6e-4 z"
         id="path257432" />
      <path
         id="lpe_path-effect257434"
         style="fill:none;stroke:#000000;stroke-width:0.26262px;stroke-linecap:butt;stroke-linejoin:miter;stroke-opacity:1"
         class="powerclip"
         d="M 76.828765,65.752169 H 110.75329 V 229.42551 H 76.828765 Z m 13.062718,20.56801 -2.29016,2.47232 -0.0591,7.462751 1.243341,-0.686305 0.356568,-0.277983 0.87458,-0.856347 2.496791,0.0061 0.641149,-0.380081 0.184362,-0.540775 0.0585,-0.671363 -0.005,-0.650398 0.42002,-0.273345 0.203351,-0.608568 0.0495,-0.522319 -0.0379,-0.531943 -0.0666,-0.461374 0.188219,-0.553526 0.251452,-0.534315 0.0994,-0.372855 -0.372481,-0.224452 -0.302979,-0.227126 -0.0351,-0.236284 0.40517,-0.418915 0.310991,-0.488296 -0.212511,-0.406737 -0.309909,-0.174333 -0.844571,-0.07385 -1.160129,0.01233 -0.556832,-2.6e-4 z" />
    </clipPath>
  </defs>
  <g
     inkscape:label="Calque 1"
     inkscape:groupmode="layer"
     id="layer1"
     transform="translate(553.57274,-293.69251)">
    <g
       id="g256664"
       transform="matrix(1,0,0,1.0150047,53.815317,-1.5609522)"
       clip-path="url(#clipPath257430)"
       inkscape:path-effect="#path-effect257434">
      <g
         id="g185524"
         transform="matrix(1.1503353,0,0,1.3176967,13.26678,-22.164793)">
        <path
           style="fill:#46444a;fill-opacity:1;stroke:#000000;stroke-width:0.264583px;stroke-linecap:butt;stroke-linejoin:miter;stroke-opacity:1"
           d="m 67.277872,70.720031 0.898679,0.0058 0.54318,0.196283 0.734234,0.386922 0.519539,0.6273 c 0,0 0.06027,0.349634 0.144843,0.568733 0.08457,0.219096 0.2735,1.628389 0.2735,1.628389 v 1.269362 c 0,0 -0.08959,0.975953 -0.212629,1.185833 -0.12304,0.209881 -0.587927,1.134393 -0.587927,1.134393 l -0.391141,0.816581 -0.04253,0.945931 1.003674,35.430712 0.0351,1.47959 0.05087,2.10765 0.211175,3.38542 c 0,0 0.08854,1.64879 0.08854,1.82709 0,0.17829 0.07822,1.58639 0.07822,1.58639 l 0.123902,1.80353 0.189716,1.72935 0.397007,1.8679 0.275006,1.26247 0.339676,1.58293 0.245261,1.46221 0.153398,1.16998 0.403289,1.75105 0.340829,2.25749 0.289322,1.731 0.281962,2.43702 0.173789,1.84516 0.415031,3.08909 0.159819,2.35398 0.279351,2.4463 0.214306,3.0151 0.158594,2.03591 0.279625,2.44586 0.22474,2.2271 0.157453,3.56612 -0.10191,1.48148 -0.190236,3.11272 -0.06083,1.78101 -0.08574,1.97783 -0.06288,1.55802 -0.09908,1.35945 -0.112772,1.00273 -0.303173,1.8088 -0.472927,1.32044 -0.58747,0.8753 -1.169459,1.37033 -1.62495,1.31918 -1.06765,0.40207 -1.104435,0.25228 -0.861925,-0.0857 -0.780996,-0.1682 -0.827758,-0.70624 -0.425257,-0.76254 -0.673062,-1.04162 -0.398524,-0.89307 -0.278338,-1.43947 -0.480958,-1.93367 -0.373492,-1.2235 -0.465198,-1.95337 -0.297681,-1.29124 -0.300245,-2.00086 -0.241097,-1.787 0.05537,-2.05604 -0.231795,-1.80247 0.01343,-2.8456 -0.08505,-2.3062 -0.08505,-1.83616 -0.08505,-1.99393 0.02737,-2.0261 0.301408,-3.26143 0.03783,-2.819 0.243184,-3.66125 0.542338,-3.5174 0.73358,-3.22538 0.5603,-2.19858 0.538529,-1.29041 0.120797,-1.9408 0.144802,-2.41629 0.460817,-2.19972 0.233113,-1.59761 0.08452,-1.44593 0.253119,-2.91444 0.0771,-2.0342 0.321331,-3.29636 0.06171,-40.201943 -0.567474,-0.202137 -0.548921,-0.449551 -0.271465,-0.467524 -0.121556,-0.719476 -0.171546,-0.815133 -0.209535,-1.151491 0.04252,-1.078979 c 0,0 -0.05714,-0.439084 -0.01462,-1.012015 0.04253,-0.572931 0.507143,-1.259824 0.507143,-1.259824 l 0.558576,-0.675963 0.75232,-0.347948 z"
           id="path85968"
           sodipodi:nodetypes="cccccsccscccccccsccccccccccccccccccccccccccccccccccccccccccccccccccccccccccccccccccccccccccccccscccc"
           inkscape:original-d="m 67.277872,70.720031 0.898679,0.0058 0.54318,0.196283 0.734234,0.386922 0.519539,0.6273 c 0,0 0.06027,0.349634 0.144843,0.568733 0.08457,0.219096 0.2735,1.628389 0.2735,1.628389 v 1.269362 c 0,0 -0.08959,0.975953 -0.212629,1.185833 -0.12304,0.209881 -0.587927,1.134393 -0.587927,1.134393 l -0.391141,0.816581 -0.04253,0.945931 1.003674,35.430712 0.0351,1.47959 0.05087,2.10765 0.211175,3.38542 c 0,0 0.08854,1.64879 0.08854,1.82709 0,0.17829 0.07822,1.58639 0.07822,1.58639 l 0.123902,1.80353 0.189716,1.72935 0.397007,1.8679 0.275006,1.26247 0.339676,1.58293 0.245261,1.46221 0.153398,1.16998 0.403289,1.75105 0.340829,2.25749 0.289322,1.731 0.281962,2.43702 0.173789,1.84516 0.415031,3.08909 0.159819,2.35398 0.279351,2.4463 0.214306,3.0151 0.158594,2.03591 0.279625,2.44586 0.22474,2.2271 0.157453,3.56612 -0.10191,1.48148 -0.190236,3.11272 -0.06083,1.78101 -0.08574,1.97783 -0.06288,1.55802 -0.09908,1.35945 -0.112772,1.00273 -0.303173,1.8088 -0.472927,1.32044 -0.58747,0.8753 -1.169459,1.37033 -1.62495,1.31918 -1.06765,0.40207 -1.104435,0.25228 -0.861925,-0.0857 -0.780996,-0.1682 -0.827758,-0.70624 -0.425257,-0.76254 -0.673062,-1.04162 -0.398524,-0.89307 -0.278338,-1.43947 -0.480958,-1.93367 -0.373492,-1.2235 -0.465198,-1.95337 -0.297681,-1.29124 -0.300245,-2.00086 -0.241097,-1.787 0.05537,-2.05604 -0.231795,-1.80247 0.01343,-2.8456 -0.08505,-2.3062 -0.08505,-1.83616 -0.08505,-1.99393 0.02737,-2.0261 0.301408,-3.26143 0.03783,-2.819 0.243184,-3.66125 0.542338,-3.5174 0.73358,-3.22538 0.5603,-2.19858 0.538529,-1.29041 0.120797,-1.9408 0.144802,-2.41629 0.460817,-2.19972 0.233113,-1.59761 0.08452,-1.44593 0.253119,-2.91444 0.0771,-2.0342 0.321331,-3.29636 0.06171,-40.201943 -0.567474,-0.202137 -0.548921,-0.449551 -0.271465,-0.467524 -0.121556,-0.719476 -0.171546,-0.815133 -0.209535,-1.151491 0.04252,-1.078979 c 0,0 -0.05714,-0.439084 -0.01462,-1.012015 0.04253,-0.572931 0.507143,-1.259824 0.507143,-1.259824 l 0.558576,-0.675963 0.75232,-0.347948 z" />
        <path
           style="fill:#3d3d42;fill-opacity:1;stroke:#000000;stroke-width:0.264583px;stroke-linecap:butt;stroke-linejoin:miter;stroke-opacity:1"
           d="m 75.406872,162.41649 1.123727,0.45124 0.723149,0.21482 1.017473,0.36923 1.172025,0.5057 0.701476,0.32595 -2.287465,1.73692 -2.129982,1.36161 -0.218169,-0.62165 -0.172194,-0.58935 -0.08311,-0.48092 -0.08062,-0.54057 -0.06196,-0.57147 0.01537,-0.4786 0.0088,-0.44968 0.0796,-0.50749 z"
           id="path87922"
           sodipodi:nodetypes="ccccccccccccccccc"
           inkscape:original-d="m 75.406872,162.41649 1.123727,0.45124 0.723149,0.21482 1.017473,0.36923 1.172025,0.5057 0.701476,0.32595 -2.287465,1.73692 -2.129982,1.36161 -0.218169,-0.62165 -0.172194,-0.58935 -0.08311,-0.48092 -0.08062,-0.54057 -0.06196,-0.57147 0.01537,-0.4786 0.0088,-0.44968 0.0796,-0.50749 z" />
        <path
           style="fill:#2f2a2f;fill-opacity:1;stroke:#000000;stroke-width:0.264583px;stroke-linecap:butt;stroke-linejoin:miter;stroke-opacity:1"
           d="m 67.40627,171.70456 -1.835191,1.0621 -0.961045,0.73592 -0.649127,0.49208 -0.70098,0.41446 0.324624,0.16969 0.442846,0.20327 c 0,0 0.711665,0.36526 1.035523,0.42541 0.323857,0.0601 1.045103,0.26379 1.045103,0.26379 0,0 0.53269,0.0571 0.780887,0.11721 0.248197,0.0601 1.193847,0.16943 1.193847,0.16943 l 0.597925,0.10288 0.309527,-0.73301 0.140727,-0.44326 0.03994,-0.54619 -0.137173,-0.82476 -0.220131,-0.7042 -0.404605,-0.49607 -0.664075,-0.62982 z"
           id="path87924"
           sodipodi:nodetypes="cccccccccccccccccccc"
           inkscape:original-d="m 67.40627,171.70456 -1.835191,1.0621 -0.961045,0.73592 -0.649127,0.49208 -0.70098,0.41446 0.324624,0.16969 0.442846,0.20327 c 0,0 0.711665,0.36526 1.035523,0.42541 0.323857,0.0601 1.045103,0.26379 1.045103,0.26379 0,0 0.53269,0.0571 0.780887,0.11721 0.248197,0.0601 1.193847,0.16943 1.193847,0.16943 l 0.597925,0.10288 0.309527,-0.73301 0.140727,-0.44326 0.03994,-0.54619 -0.137173,-0.82476 -0.220131,-0.7042 -0.404605,-0.49607 -0.664075,-0.62982 z" />
        <path
           style="fill:#2f2a2f;fill-opacity:1;stroke:#000000;stroke-width:0.264583px;stroke-linecap:butt;stroke-linejoin:miter;stroke-opacity:1"
           d="m 67.385437,155.12366 -0.761785,0.82311 -2.594455,2.98479 4.230377,0.1394 0.48503,-0.47679 0.29298,-0.47671 -0.06014,-0.31916 -0.05299,-0.52111 -0.166576,-0.81841 -0.410206,-0.58194 -0.234998,-0.19242 -0.397021,-0.26174 z"
           id="path90406"
           inkscape:original-d="m 67.385437,155.12366 -0.761785,0.82311 -2.594455,2.98479 4.230377,0.1394 0.48503,-0.47679 0.29298,-0.47671 -0.06014,-0.31916 -0.05299,-0.52111 -0.166576,-0.81841 -0.410206,-0.58194 -0.234998,-0.19242 -0.397021,-0.26174 z" />
        <path
           style="fill:#2f2a2f;fill-opacity:1;stroke:#000000;stroke-width:0.264583px;stroke-linecap:butt;stroke-linejoin:miter;stroke-opacity:1"
           d="m 68.251499,140.62971 -0.611903,0.21704 -0.747396,0.24268 -2.499341,1.0137 3.887829,2.33246 v 0 0 l 0.187424,-0.40902 0.07712,-0.31212 0.0936,-0.38836 c 0.128627,-0.85346 0.09923,-1.01276 0.06515,-1.79834 l -0.154006,-0.48244 z"
           id="path90408"
           sodipodi:nodetypes="ccccccccccccc"
           inkscape:original-d="m 68.251499,140.62971 -0.611903,0.21704 -0.747396,0.24268 -2.499341,1.0137 3.887829,2.33246 v 0 0 l 0.187424,-0.40902 0.07712,-0.31212 0.0936,-0.38836 c 0.128627,-0.85346 0.09923,-1.01276 0.06515,-1.79834 l -0.154006,-0.48244 z" />
        <path
           style="fill:#312f35;fill-opacity:1;stroke:#000000;stroke-width:0.264583px;stroke-linecap:butt;stroke-linejoin:miter;stroke-opacity:1"
           d="m 62.269975,148.96613 -2.457649,0.27937 2.377539,4.34369 z"
           id="path92965"
           inkscape:original-d="m 62.269975,148.96613 -2.457649,0.27937 2.377539,4.34369 z" />
        <path
           style="fill:#312f35;fill-opacity:1;stroke:#000000;stroke-width:0.264583px;stroke-linecap:butt;stroke-linejoin:miter;stroke-opacity:1"
           d="m 62.069452,163.64052 -2.266221,1.90129 2.299576,2.3168 z"
           id="path92967"
           inkscape:original-d="m 62.069452,163.64052 -2.266221,1.90129 2.299576,2.3168 z" />
        <path
           style="fill:#312f36;fill-opacity:1;stroke:#000000;stroke-width:0.264583px;stroke-linecap:butt;stroke-linejoin:miter;stroke-opacity:1"
           d="m 62.851548,177.89278 -1.319794,1.87034 2.627814,0.8736 -0.857575,-3.25022 z"
           id="path92969"
           inkscape:original-d="m 62.851548,177.89278 -1.319794,1.87034 2.627814,0.8736 -0.857575,-3.25022 z" />
        <path
           style="fill:#3d3d42;fill-opacity:1;stroke:#000000;stroke-width:0.264583px;stroke-linecap:butt;stroke-linejoin:miter;stroke-opacity:1"
           d="m 74.433654,151.30443 1.361921,0.0756 -1.218441,1.82299 z"
           id="path92971"
           sodipodi:nodetypes="cccc"
           inkscape:original-d="m 74.433654,151.30443 1.361921,0.0756 -1.218441,1.82299 z" />
      </g>
      <path
         style="fill:#3b373d;fill-opacity:1;stroke:#000000;stroke-width:0;stroke-linecap:butt;stroke-linejoin:miter;stroke-miterlimit:4;stroke-dasharray:none;stroke-opacity:1"
         d="m 94.870205,147.60104 1.622373,9.67913 0.463918,2.30735 0.722476,5.0864 0.395928,4.24122 0.258711,2.9066 0.273816,2.30827 0.354357,4.12263 0.280826,3.61527 0.284718,4.12941 0.482642,5.85356 -0.312296,1.62502 0.07512,2.03286 0.156699,1.28937 0.449047,1.59573 -0.17262,4.06906 -0.240499,3.89057 -0.141602,4.89397 -0.321083,3.66231 -0.29365,2.03995 -0.544024,1.73994 -1.060091,1.68546 -0.960967,1.2736 -1.869237,1.73828 -2.498626,0.86223 1.090269,-3.50202 0.233913,-1.67639 0.555119,-1.94608 0.23684,-2.2094 0.434519,-2.61122 -0.02878,-3.84655 0.34901,-3.25754 -0.168981,-4.16434 -0.0022,-5.76196 -0.144646,-4.61553 0.292988,-5.00805 0.131793,-5.97617 -0.07841,-6.42358 -0.156627,-7.74944 -0.617953,-6.68991 -0.423306,-4.50314 -0.459187,-3.86193 -0.166074,-4.96375 -0.151665,-6.05521 -0.2477,-5.21314 c 0,0 -0.02627,-6.14062 -0.06879,-6.70203 -0.04253,-0.56142 -0.136994,-6.57678 -0.136994,-6.57678 l -0.167403,-5.93022 -0.04366,-3.61181 -0.217903,-9.90803 -0.127577,-13.086688 -0.131076,-7.866872 0.316379,-1.572469 0.183568,-2.23415 -0.04252,-2.394447 -0.375839,-2.042673 -0.241491,-0.519142 -0.209117,-0.738169 0.624839,0.258641 0.844616,0.509847 0.597644,0.826593 0.26754,1.244375 0.213694,1.650764 v 1.672632 l -0.146418,1.482194 -0.646045,1.413102 -0.578388,1.238065 1.269902,53.268767 0.282855,5.91326 z"
         id="path185672"
         inkscape:original-d="m 94.870205,147.60104 1.622373,9.67913 0.463918,2.30735 0.722476,5.0864 0.395928,4.24122 0.258711,2.9066 0.273816,2.30827 0.354357,4.12263 0.280826,3.61527 0.284718,4.12941 0.482642,5.85356 -0.312296,1.62502 0.07512,2.03286 0.156699,1.28937 0.449047,1.59573 -0.17262,4.06906 -0.240499,3.89057 -0.141602,4.89397 -0.321083,3.66231 -0.29365,2.03995 -0.544024,1.73994 -1.060091,1.68546 -0.960967,1.2736 -1.869237,1.73828 -2.498626,0.86223 1.090269,-3.50202 0.233913,-1.67639 0.555119,-1.94608 0.23684,-2.2094 0.434519,-2.61122 -0.02878,-3.84655 0.34901,-3.25754 -0.168981,-4.16434 -0.0022,-5.76196 -0.144646,-4.61553 0.292988,-5.00805 0.131793,-5.97617 -0.07841,-6.42358 -0.156627,-7.74944 -0.617953,-6.68991 -0.423306,-4.50314 -0.459187,-3.86193 -0.166074,-4.96375 -0.151665,-6.05521 -0.2477,-5.21314 c 0,0 -0.02627,-6.14062 -0.06879,-6.70203 -0.04253,-0.56142 -0.136994,-6.57678 -0.136994,-6.57678 l -0.167403,-5.93022 -0.04366,-3.61181 -0.217903,-9.90803 -0.127577,-13.086688 -0.131076,-7.866872 0.316379,-1.572469 0.183568,-2.23415 -0.04252,-2.394447 -0.375839,-2.042673 -0.241491,-0.519142 -0.209117,-0.738169 0.624839,0.258641 0.844616,0.509847 0.597644,0.826593 0.26754,1.244375 0.213694,1.650764 v 1.672632 l -0.146418,1.482194 -0.646045,1.413102 -0.578388,1.238065 1.269902,53.268767 0.282855,5.91326 z" />
    </g>
    <g
       id="g341214"
       transform="matrix(1.3690899,0,0,1.3690899,204.31814,-108.39896)">
      <path
         style="fill:#8a8384;fill-opacity:1;stroke:#000000;stroke-width:0.264583px;stroke-linecap:butt;stroke-linejoin:miter;stroke-opacity:1"
         d="m -550.76302,304.43702 v 0 l 0.45809,0.50562 v 0 l 0.50137,0.47422 v 0 l 0.3912,0.63126 0.37505,0.7657 0.42296,1.09897 v 0 l 0.0863,0.0376 0.1049,-0.0101 0.13725,-4e-5 0.075,-0.0968 0.13391,-0.15437 0.0787,-0.24667 0.23503,-0.43533 0.42448,-0.58933 0.28887,-0.42006 0.35354,-0.38801 0.31972,-0.33385 0.27675,-0.23712 0.27059,-0.18527 0.42365,-0.26848 0.0935,-0.76147 0.0397,-0.48894 0.42603,-0.48084 0.79696,-0.60079 0.87802,-0.68524 0.17658,-0.80783 -1.77705,0.71713 -0.8822,0.30984 1.03778,-1.65451 1.25566,-1.86314 -0.57616,-0.316 -1.5362,1.06673 -0.74152,0.88243 c 0,0 1.00827,-1.59125 0.93446,-2.06471 -0.0738,-0.47346 -0.32899,-2.23893 -0.32899,-2.23893 l -0.33078,-1.55132 -1.03359,1.71293 -0.40566,1.27308 -0.50102,1.16719 -0.73856,-0.95833 -0.41261,-0.90015 -0.16905,0.76471 0.3429,1.44997 -1.1068,0.28848 -1.00283,-0.5833 -1.05187,-0.33087 0.80071,1.19416 0.49903,0.62057 0.49493,1.38393 c 0,0 -0.41529,-1.04348 -1.15136,-1.57556 -0.7361,-0.53208 -2.00457,-1.13579 -2.00457,-1.13579 0,0 -0.2477,-0.34526 0.26152,0.7475 0.50924,1.09277 0.80359,1.49877 1.27206,2.08715 0.46847,0.58838 1.34308,1.94584 1.34308,1.94584 l -2.56974,-1.51941 c 0,0 -0.008,0.67164 0.33816,1.0503 0.34587,0.37866 1.97208,1.70724 1.97208,1.70724 z"
         id="path257760"
         sodipodi:nodetypes="cccccccccccccccccccccccccccccccccccccscccccccccccccccscssccccc" />
      <path
         style="fill:#625c5d;fill-opacity:1;stroke:#000000;stroke-width:0;stroke-linecap:butt;stroke-linejoin:miter;stroke-miterlimit:4;stroke-dasharray:none;stroke-opacity:1"
         d="m -548.3895,300.60933 -0.47593,0.52499 -0.23053,0.53123 -0.1701,0.63939 -0.14878,0.9354 0.17664,0.8294 0.1488,0.48465 0.0588,0.45775 0.0243,0.11812 0.1745,0.58668 -0.0214,0.18714 0.0712,0.3595 0.0151,0.39569 0.0615,0.68846 0.0911,0.56506 0.19122,0.0275 c 0,0 0.34615,-0.25121 0.34615,-0.25121 l 0.0787,-0.24667 0.23503,-0.43533 0.12419,-0.85822 0.0606,-0.38051 0.12714,-0.60381 0.24913,-0.49836 0.0902,-0.33401 c 0,0 0.1066,-0.20888 0.14457,-0.334 0.038,-0.12513 0.0658,-0.0818 0.15478,-0.3449 0.089,-0.26311 0.11483,-0.29915 0.15991,-0.49455 0.0451,-0.1954 0.0752,-0.14855 0.0902,-0.42612 0.0151,-0.27757 0,-0.42347 0.0151,-0.57969 0.0151,-0.15623 -0.11226,-0.79465 -0.11226,-0.79465 l -0.25168,-0.59638 -0.13006,-0.3118 -0.34939,-0.23954 c 0,0 -0.0941,-0.0431 -0.17293,-0.0431 -0.0788,0 -0.39494,0.0217 -0.39494,0.0217 l -0.28644,0.22114 z"
         id="path259134" />
      <path
         style="fill:#e9e8e8;fill-opacity:1;stroke:#000000;stroke-width:0;stroke-linecap:butt;stroke-linejoin:miter;stroke-miterlimit:4;stroke-dasharray:none;stroke-opacity:1"
         d="m -550.98249,304.17653 -0.46775,-0.38407 c 0,0 -0.5092,-0.39438 -0.53792,-0.4196 -0.0287,-0.0253 -0.40055,-0.44725 -0.53457,-0.54236 -0.13405,-0.0952 -0.1827,-0.14859 -0.1827,-0.14859 l -0.11706,-0.29629 -0.10825,-0.34163 c 0,0 -0.0482,-0.31129 -0.0482,-0.31129 l 0.37509,0.25479 c 0,0 0.34614,0.17083 0.40746,0.20796 0.0613,0.0371 0.43837,0.27075 0.43837,0.27075 l 0.42985,0.22924 0.45167,0.24526 c 0,0 0.41774,0.2821 0.41774,0.2821 l -0.40046,-0.72579 -0.88495,-1.26883 -0.74701,-1.16335 -0.78874,-1.5303 c 0,0 0.69947,0.35413 0.7782,0.40324 0.0787,0.0491 0.37295,0.26106 0.54649,0.32292 0.17354,0.0619 0.71914,0.51513 0.80658,0.5297 0.0874,0.0146 0.51988,0.61303 0.51988,0.61303 l 0.44389,0.79015 -0.48538,-1.35723 -0.48941,-0.6086 c 0,0 -0.78526,-1.17112 -0.78526,-1.17112 0,0 1.03158,0.32449 1.03158,0.32449 l 0.98349,0.57204 c 0,0 1.08545,-0.28291 1.08545,-0.28291 0,0 -0.33629,-1.422 -0.33629,-1.422 l 0.16578,-0.74996 0.40466,0.88279 0.72432,0.93984 c 0,0 0.88918,-2.39319 0.88918,-2.39319 l 1.01365,-1.67989 0.32441,1.52139 0.36337,2.27066 -0.95717,1.94996 2.23378,-1.91156 0.56504,0.30991 c 0,0 -2.2492,3.44979 -2.2492,3.44979 0,0 2.60796,-1.00717 2.60796,-1.00717 l -0.17318,0.79226 -1.64265,1.26121 -0.41782,0.47157 -0.13065,1.22629 -0.17263,-1.50324 0.47707,-0.40093 0.27566,-0.24764 0.57547,-0.39534 c 0,0 0.0765,-0.25892 -0.0695,-0.14165 -0.14609,0.11726 -0.66751,0.24584 -0.74413,0.27006 -0.0765,0.0243 -0.46039,0.0981 -0.54942,0.0981 -0.089,0 -0.52535,0.0315 -0.52535,0.0315 l 0.17414,-0.62374 1.82543,-2.88797 -1.04512,0.8942 c 0,0 -0.48664,0.28015 -0.54906,0.29489 -0.0625,0.0148 -0.46577,0.0194 -0.46577,0.0194 l -0.26656,-0.1629 0.21513,-0.9983 c 0,0 0.0676,-0.54369 0.0822,-0.69329 0.0146,-0.1496 0.0216,-0.91405 -0.0148,-0.84689 -0.0363,0.0671 -0.52568,0.51779 -0.56714,0.64223 -0.0415,0.12443 -0.264,0.57036 -0.34568,0.6346 -0.0817,0.0643 -0.58236,0.30018 -0.58236,0.30018 l -0.30896,-0.13079 -0.59161,-0.60055 0.029,0.72341 -1.24214,0.44576 -0.60912,-0.004 0.19709,0.67241 c 0,0 0.0468,0.45596 0.0888,0.52272 0.0421,0.0667 -0.0163,0.69936 -0.0163,0.69936 l -0.37741,-0.24468 -0.97963,-0.8094 -0.60937,-0.24453 0.94827,1.23072 0.51374,1.18815 0.53406,1.21921 -0.84435,-0.29248 -1.00628,-0.35334 0.66032,0.59123 0.63227,0.95857 z"
         id="path327787" />
    </g>
  </g>
</svg>
