<?xml version="1.0" encoding="UTF-8" standalone="no"?>
<svg
   width="197px"
   height="209px"
   viewBox="0 0 197 209"
   version="1.1"
   id="svg9"
   sodipodi:docname="57.svg"
   inkscape:version="1.1.1 (1:1.1+202109281944+c3084ef5ed)"
   xmlns:inkscape="http://www.inkscape.org/namespaces/inkscape"
   xmlns:sodipodi="http://sodipodi.sourceforge.net/DTD/sodipodi-0.dtd"
   xmlns="http://www.w3.org/2000/svg"
   xmlns:svg="http://www.w3.org/2000/svg">
  <defs
     id="defs13" />
  <sodipodi:namedview
     id="namedview11"
     pagecolor="#ffffff"
     bordercolor="#666666"
     borderopacity="1.0"
     inkscape:pageshadow="2"
     inkscape:pageopacity="0.0"
     inkscape:pagecheckerboard="0"
     showgrid="false"
     inkscape:zoom="4.1770335"
     inkscape:cx="60.449599"
     inkscape:cy="108.33047"
     inkscape:window-width="2180"
     inkscape:window-height="1062"
     inkscape:window-x="4536"
     inkscape:window-y="268"
     inkscape:window-maximized="0"
     inkscape:current-layer="svg9" />
  <g
     id="g1058"
     transform="translate(-32.61524,52.148465)">
    <path
       id="path837-5"
       style="fill:#2b323a;fill-opacity:1;stroke:#000000;stroke-width:0.528669px;stroke-linecap:butt;stroke-linejoin:miter;stroke-opacity:1"
       d="m 119.81055,-7.9960938 -7.37696,0.4082032 -6.30859,1.3808594 -6.164062,2.2441406 -5.736329,3.87890623 -5.068359,4.70117187 -4.113281,4.5234375 -4.291016,5.306641 -3.189453,4.464843 -2.214844,5.333985 0.882813,-0.783203 2.777343,-2.119141 2.060547,-1.220703 0.712891,1.193359 -1.310547,5.007813 -1.410156,6.892578 -1.496094,5.326172 -1.677734,7.132812 -1.41211,6.378907 -1.294921,4.96875 -0.314454,3.710937 0.966797,-1.322266 2.47461,-5.291015 2.503906,-3.119141 0.201172,8.257813 -0.115235,12.128906 0.521485,-2.619141 0.773437,-4.003906 1.648438,-6.849609 1.203125,-4.63086 1.52539,-6.976562 0.554688,8.099609 0.492187,5.919922 0.644532,5.472656 0.669922,5.203125 1.18164,4.628906 1.699219,6.671876 2.423828,7.591796 2.587891,6.488282 1.8125,5.480464 0.414062,-4.031246 0.308594,-5.626953 0.30664,-5.242187 0.601563,-7.591797 0.0957,-9.373047 0.314453,-7.773438 0.40625,-6.089843 0.603516,-9.925781 0.759766,-7.65625 0.75781,-4.919922 1.99024,-6.931641 1.71094,-3.720703 2.79687,-5.435547 3.01758,6.759766 2.36133,4.990234 2.75976,5.216797 2.65235,7.734375 1.91601,6.125 2.24219,6.505859 2.97266,7.667969 3.26562,7.21875 2.28711,5.416016 0.5,-6 0.29688,-5.642579 0.29492,-6.21289 0.46875,-3.699219 0.67383,1.125 1.34765,4.578125 0.96289,4.535156 1.38086,5.425782 1.55078,6.113281 2.02149,7.044922 1.99805,7.609375 2.47851,7.779297 2.19922,6.292969 0.32422,-2.87891 0.55469,-4.630856 0.73046,-7.158203 0.47461,-5.421875 0.51758,-6.427735 0.43555,-6.957031 1.32422,4.365234 1.14648,4.605469 1.77539,5.808594 1.27344,5.228515 1.08984,3.806641 1.49024,-7.472656 1.35547,-8.123047 0.89648,-7.316406 1.11328,-7.714844 0.9336,-6.455078 0.64257,-6.605469 2.19922,2.769531 2.20313,2.867188 3.39258,4.349609 -0.93946,-5.294922 -1.13867,-6.570312 -1.28906,-5.509766 -1.90235,-7.302734 -1.375,-6.513672 -2.44921,-6.394531 -1.86133,-5.779297 -3.08203,-7.134766 -4.21485,-5.4863279 -4.64843,-4.27929685 -4.66016,-3.33789065 -5.63281,-1.9980468 -5.74024,-1.6484376 -6.82031,-1.2480468 z m 37.63476,43.3574218 3.70117,0.921875 1.29102,3.119141 0.29688,3.759765 -0.84961,3.414063 -1.74805,5.021484 -1.83984,4.125 -0.57422,1.148438 -1.32227,0.113281 -0.16406,-1.833984 0.29687,-7.085938 0.32422,-6.660156 z" />
    <path
       style="fill:#181d21;fill-opacity:1;stroke:#000000;stroke-width:0.528669px;stroke-linecap:butt;stroke-linejoin:miter;stroke-opacity:1"
       d="m 147.75833,101.47499 0.81436,3.80084 1.21378,4.99226 0.23355,1.29844 0.56212,-4.62926 0.31974,-4.5037 0.87183,-4.519183 1.36491,4.560233 1.29537,3.89632 1.86475,5.60852 0.83093,-4.17587 0.83543,-6.09499 0.66478,-7.186138 0.70998,-6.600481 0.5036,-4.724579 0.43331,-2.474827 1.70256,4.025995 1.71601,3.934689 2.09292,3.705151 2.15167,3.811212 0.244,-4.874234 0.20185,-6.222467 0.25019,-6.318277 0.0752,-5.841196 -0.17879,-5.465535 -0.0623,-5.870003 -0.0959,-4.214302 -4.94712,-6.610636 -1.79402,16.531181 -1.94468,13.642057 -2.69238,13.515077 -6.60884,-23.815697 z"
       id="path839-6" />
    <path
       style="fill:#181d21;fill-opacity:1;stroke:#000000;stroke-width:0.528669px;stroke-linecap:butt;stroke-linejoin:miter;stroke-opacity:1"
       d="m 84.568982,46.309374 -5.673439,25.079644 -0.07512,9.314457 0.313279,5.029715 -0.07835,5.475225 0.587129,0.391194 2.785759,-5.984841 1.833625,-4.712133 0.981479,-1.859287 0.450019,3.133226 0.923601,5.475204 1.79453,7.523807 1.773654,6.981865 2.789221,9.29231 0.588139,-4.84014 0.946592,-4.07397 0.643132,-2.63464 1.310861,4.36063 1.622702,3.89296 0.84723,-2.54142 0.823835,-2.75541 1.22639,-3.37345 0.23749,-1.319301 6.67379,-3.754863 c 0.14974,-4.805989 -0.69841,-14.441965 -0.45312,-15.105468 L 98.75183,71.490731 96.63431,101.86467 92.942767,91.224164 89.329742,79.725061 86.929193,71.004178 85.858834,61.39041 85.024346,51.452838 Z"
       id="path841-2"
       sodipodi:nodetypes="ccccccccccccccccccccccccccccccccc" />
  </g>
  <path
     style="fill:none;stroke:#000000;stroke-width:1px;stroke-linecap:butt;stroke-linejoin:miter;stroke-opacity:1"
     d="m 88.064551,26.518092 c -2.251097,1.193709 -4.503195,2.386418 -6.756292,3.578128 -2.253098,1.191709 -8.278371,4.633667 -12.419056,6.949 -4.140685,2.315333 -5.860721,5.194029 -8.792582,7.789543 -2.931861,2.595515 -7.459281,5.386899 -11.190421,8.078848 -3.73114,2.69195 -5.230727,4.513847 -7.84759,6.76927 -2.616864,2.255423 -9.324303,7.673623 -13.987954,11.508935 -4.663651,3.835311 -7.621208,5.920996 -11.433312,8.879994 -3.812104,2.958998 -1.780868,0.620573 -2.672802,0.929359 -0.891933,0.308787 1.201606,8.125767 1.201606,8.125767 l 7.85879,3.469691 10.864168,4.429148 8.761668,1.525507 5.161234,1.162007 11.228484,1.483921 10.765071,-0.32472 16.879418,-0.48692 14.233035,-1.872698 14.287874,-4.607122 18.21409,-7.26954 10.21433,-4.587304 13.63908,-6.861485 7.59291,-5.444106 4.34418,-4.786713 3.39939,-8.381096 -7.26586,-4.268804 -15.42452,-6.405717 -19.23064,-8.762816 c 0,0 -16.44221,-5.537225 -17.56401,-5.910676 -1.1218,-0.373451 -20.514739,-4.880835 -20.514739,-4.880835 l -2.675694,-1.19056 z"
     id="path875"
     sodipodi:nodetypes="csssssssscccccccccccccccccccsccc" />
  <path
     style="fill:#a58c82;fill-opacity:1;stroke:#000000;stroke-width:1px;stroke-linecap:butt;stroke-linejoin:miter;stroke-opacity:1"
     d="m 88.934407,25.156098 0.19619,15.918668 0.0529,35.805509 0.222186,23.063693 L 99.918016,98.512872 143.13613,81.631677 123.6297,61.402176 105.55201,43.066679 94.608412,31.282967 Z"
     id="path877" />
  <path
     style="fill:#a48d80;fill-opacity:1;stroke:#000000;stroke-width:1px;stroke-linecap:butt;stroke-linejoin:miter;stroke-opacity:1"
     d="m 88.934407,25.156098 54.201723,56.475579 13.13726,-6.444256 7.59291,-5.444106 4.34418,-4.786713 3.39939,-8.381096 -7.26586,-4.268804 -34.65516,-15.168533 -14.9463,-4.972968 -23.132449,-5.818543 z"
     id="path879"
     sodipodi:nodetypes="ccccccccccc" />
  <path
     style="fill:#a58e81;fill-opacity:1;stroke:#000000;stroke-width:1px;stroke-linecap:butt;stroke-linejoin:miter;stroke-opacity:1"
     d="M 88.80623,25.515592 71.659106,33.073663 60.145107,40.637775 43.473891,52.268293 24.875838,67.308896 6.8192496,83.618018 l 7.3468984,5.508918 13.305702,4.6196 5.417256,3.279239 5.168686,0.222488 19.316573,-29.07363 13.947456,-15.927642 z"
     id="path881"
     sodipodi:nodetypes="ccccccccccccc" />
  <path
     style="fill:#a3877e;fill-opacity:1;stroke:#000000;stroke-width:1px;stroke-linecap:butt;stroke-linejoin:miter;stroke-opacity:1"
     d="m 88.934407,25.156098 -18.354265,28.093393 -13.205777,14.925142 -19.316573,29.07363 8.873657,1.862684 10.669156,1.226593 11.204958,0.53495 20.60012,-0.928522 z"
     id="path883" />
</svg>
