<?xml version="1.0" encoding="UTF-8" standalone="no"?>
<svg
   width="197px"
   height="209px"
   viewBox="0 0 197 209"
   version="1.1"
   id="svg13"
   sodipodi:docname="66.svg"
   inkscape:version="1.1.1 (1:1.1+202109281944+c3084ef5ed)"
   xmlns:inkscape="http://www.inkscape.org/namespaces/inkscape"
   xmlns:sodipodi="http://sodipodi.sourceforge.net/DTD/sodipodi-0.dtd"
   xmlns="http://www.w3.org/2000/svg"
   xmlns:svg="http://www.w3.org/2000/svg">
  <defs
     id="defs17" />
  <sodipodi:namedview
     id="namedview15"
     pagecolor="#ffffff"
     bordercolor="#666666"
     borderopacity="1.0"
     inkscape:pageshadow="2"
     inkscape:pageopacity="0.0"
     inkscape:pagecheckerboard="0"
     showgrid="false"
     inkscape:zoom="2"
     inkscape:cx="123.25"
     inkscape:cy="108.25"
     inkscape:window-width="2588"
     inkscape:window-height="1082"
     inkscape:window-x="2197"
     inkscape:window-y="166"
     inkscape:window-maximized="0"
     inkscape:current-layer="svg13" />
  <path
     id="path2"
     style="fill:#000000;fill-opacity:1;fill-rule:evenodd;stroke:none"
     d="m 89.021484,44.554688 -1.349609,0.07812 0.04687,0.152344 c -8.167969,0.539063 -14.101562,2.28125 -17.808594,5.222656 l -1.804687,1.910157 h -0.148438 c -0.703125,0 -2.753906,2.230469 -6.160156,6.691406 -0.351563,0.394531 -1.628906,2.625 -3.832031,6.695313 -0.652344,1.125 -1.605469,3.625 -2.855469,7.5 l -1.429687,4.851562 -0.300782,0.148438 0.226563,0.222656 -0.07422,0.144531 -0.152344,0.07422 v 0.07422 l 0.527344,0.148438 2.253906,1.761719 1.578125,0.148437 0.601563,0.07422 5.257812,0.21875 1.652344,0.07422 0.976562,-0.07422 9.242188,0.296875 5.710938,1.027344 0.453124,-0.07422 0.375,1.105469 c 1,1.226562 1.601563,3.527344 1.800782,6.910156 l 1.128906,5.371094 2.40625,15.664067 c 0.898438,5.58593 1.652344,8.77343 2.253906,9.55859 2.453125,7.16016 3.957032,10.73828 4.507813,10.73828 l 0.523437,-0.22265 0.07813,-1.91016 c 1.300781,3.33203 3.75391,9.01953 7.36328,17.05859 0.85157,2.40235 1.70313,5.85938 2.55469,10.3711 l 1.05078,6.32421 c 0.25,1.61719 0.52735,2.7461 0.82813,3.38282 l 0.0742,0.0742 -0.0742,0.0742 c 0,0.39063 0.22265,0.58593 0.67578,0.58593 l 0.30078,-0.14453 0.375,-0.58984 v -0.21875 l 1.27734,-4.5625 c 1.70313,1.8164 2.78125,2.72265 3.23047,2.72265 l 0.52734,-0.51562 -0.15234,-0.14844 1.57813,-8.08594 c 0.40234,-3.04297 0.60156,-6.03125 0.60156,-8.97265 l 0.22656,-8.97266 0.14844,-3.67578 0.82812,2.5 0.90235,5.51563 0.97656,6.83984 0.52344,3.23437 v 0.8086 l 0.52734,0.14843 h 0.0742 c 0.35156,0 0.52734,-0.19921 0.52734,-0.58984 0.85157,-1.91016 1.45312,-8.06641 1.80078,-18.45703 l 0.22657,-11.62109 1.1289,3.53125 0.67579,4.77734 0.52343,2.42969 0.45313,0.51562 h 0.22656 l 0.44922,-0.73828 -0.0742,-0.51562 2.70312,-19.92578 c 0.17568,-5.86768 2.32056,-10.3158 2.60157,-14.306647 -0.13677,-0.173956 0.17219,-2.216274 0.0474,-2.365586 l -0.0943,-4.948867 c 0.10156,-2.058593 0.0273,-3.335937 -0.22656,-3.824219 l -0.0742,-2.796874 c 0,-1.714844 -0.27344,-3.796876 -0.82422,-6.25 l -1.20312,-4.410157 c -1.35156,-4.316406 -2.78125,-7.601562 -4.28516,-9.855469 l -2.92969,-5.074218 -2.6289,-3.605469 -1.65235,-1.617187 c -1.80468,-1.519532 -4.15625,-3.015626 -7.0625,-4.484376 -0.45312,-0.835937 -1.20312,-1.519531 -2.2539,-2.058593 l 0.15234,-0.205078 -0.99023,-0.435547 -0.13868,0.199218 c -1.60547,-0.6875 -3.70703,-1.152343 -6.312496,-1.398437 l 0.08008,-0.08789 -1.189453,-0.08789 -0.09375,0.101562 -5.109375,-0.21875 -4.507813,0.144532 z m 4.556641,1.1875 4.734375,0.148437 0.449219,0.144531 0.152343,-0.07422 4.734378,0.808593 c 3.55469,1.226563 7.98828,4.070313 13.29687,8.53125 l 1.20313,1.179688 c 1.10156,1.125 2.1289,2.570312 3.08203,4.335937 l 2.77734,5.8125 c 0.90235,1.664063 2.23047,5.390625 3.98438,11.175782 v 0.148437 c 0.60156,1.960937 1,5.21875 1.20312,9.78125 -0.25,1.421875 -0.40232,4.191406 -0.45312,8.308594 v 0.148437 l -0.22266,0.585938 V 98.25 l 0.14844,0.144531 -0.0742,0.371094 -0.375,1.617185 c -0.45312,2.35157 -0.87891,5.46485 -1.27734,9.33985 l -0.75391,6.54296 0.22656,0.58985 -0.375,0.80859 -1.5039,11.25 c -1.05078,-6.32422 -1.97657,-10.05078 -2.78125,-11.17578 v -3.08984 l -0.0742,-11.69141 v -0.36719 c -0.10156,-2.25781 -0.27344,-3.382809 -0.52735,-3.382809 L 120.62891,99.5 v 25.44531 l 0.14843,0.44141 -0.14843,0.95312 v 3.01563 l -1.65235,17.94531 -0.90234,-5.95703 c -1.15234,-6.07813 -2.05469,-9.66016 -2.70703,-10.73828 v -2.5 l -0.30078,-0.80859 0.0781,-0.29297 h 0.14844 v -0.14844 l -0.52735,-5.95703 c -0.34766,0 -0.59766,3.94922 -0.75,11.83984 v 0.14844 l 0.0742,0.4414 -0.14843,0.88282 -0.15235,7.9414 -0.44922,10.8086 -1.42578,9.78125 -2.78125,-2.57422 -0.30078,0.0742 -0.22656,-0.0742 -0.0742,0.22265 c -0.10154,0.0469 -0.15234,0.17188 -0.15234,0.36719 l -1.05079,3.23438 -4.35546,-18.60547 c -4.261726,-11.96094 -7.06641,-18.62891 -8.417972,-20 l -0.601563,-8.08984 v -0.0742 l -0.449219,-5.44141 c -0.351562,0 -0.527344,0.83203 -0.527344,2.5 l 0.527344,13.08984 c -1.402344,-4.11718 -2.429687,-6.64453 -3.082031,-7.57421 v -0.0742 L 85.988281,94.425781 c -0.902343,-5.199219 -2.226562,-9.4375 -3.980469,-12.722656 V 81.1875 l -0.300781,-0.07422 -0.07422,-0.21875 0.07422,-0.148437 -0.152343,-0.367188 -0.222657,-0.07422 C 79.976562,77.757812 78.953125,76.136719 78.25,75.453125 l -2.105469,-1.988281 -0.148437,-0.21875 c -1.953125,-1.667969 -3.855469,-2.796875 -5.710938,-3.382813 -0.148437,-0.148436 -0.351562,-0.222656 -0.601562,-0.222656 h -0.148438 l -2.480468,-0.292969 c -1.652344,0 -3.355469,0.90625 -5.109376,2.722656 -1.851562,1.863282 -2.855468,4.019532 -3.003906,6.46875 l -0.152344,0.957032 -1.050781,0.07422 -2.03125,-0.664062 -0.375,-0.734375 -0.300781,-1.101563 1.054688,-4.339843 c 0.648437,-2.695313 1.550781,-4.878907 2.703124,-6.542969 l 5.5625,-7.945312 h 0.296876 l 2.332031,-3.234376 c 1.652343,-2.304687 2.828125,-3.652343 3.53125,-4.042968 5.808593,-3.484375 13.5,-5.222656 23.066406,-5.222656 z m -26.375,24.855468 h 0.226563 l -0.148438,0.07422 -2.480469,2.5 -1.503906,2.058594 0.07422,0.441406 c -0.648438,0.492187 -0.976563,1.496094 -0.976563,3.015625 l 0.07813,0.589844 -0.07813,0.07031 H 60.96875 l -1.203125,0.07422 -0.226563,-0.808594 0.453126,0.07422 c 0.351562,-1.519531 0.675781,-2.648438 0.976562,-3.382812 0.300781,-0.832032 0.925781,-1.714844 1.878906,-2.648438 1.351563,-1.371094 2.804688,-2.058594 4.355469,-2.058595 z m 2.707031,0.292969 1.652344,0.441406 c -1.203125,0.394531 -2.605469,1.816407 -4.207031,4.265625 v 0.07422 l -0.226563,-0.07422 c -1.050781,1.226563 -1.726562,2.5 -2.027344,3.824219 h -1.128906 l 1.355469,-4.191406 0.222656,-0.734375 -0.07422,-0.222656 c 0.351563,-0.585938 0.800782,-1.027344 1.351563,-1.320313 z m 2.703125,0.957031 c 0.804688,0.34375 1.578125,0.808594 2.332031,1.398438 -1.554687,0.390625 -3.308593,2.082031 -5.261718,5.074218 l -0.07422,0.957032 -0.148437,0.511718 -0.07813,0.222657 h -1.199218 l -1.355469,-0.148438 0.07813,-0.07422 0.675781,-2.5 0.601563,-0.882812 1.726562,-2.5 c 1.050782,-1.175781 1.953125,-1.863281 2.703125,-2.058593 z m 3.234375,2.207032 1.277344,1.324218 c -0.753906,0.246094 -1.65625,0.980469 -2.707031,2.207032 -0.75,0.585937 -1.328124,1.320312 -1.726563,2.203124 v 0.07422 h -1.804687 l 0.07422,-0.07422 0.375,-0.660156 1.429687,-2.5 v -0.07422 z m 2.027344,2.207031 0.902344,1.324219 -1.804688,1.617187 0.07422,0.21875 -0.07422,0.367187 -0.148437,0.441407 -2.332031,-0.21875 0.07812,-0.222657 0.449219,-0.882812 0.148438,-0.07031 z m 1.503906,2.277343 0.898438,1.621094 h -0.300782 l 0.527344,0.367188 -0.226562,0.292968 -2.402344,-0.441406 0.148438,-0.515625 v -0.07422 z m -23.292968,19.34375 -0.453126,0.07031 -0.148437,0.589844 0.07422,0.148437 -0.07422,0.292969 v 0.07422 l -0.152344,0.367187 c 1.804688,8.875001 3.105469,13.312501 3.910157,13.312501 0.499996,0 0.699218,-1.49609 0.597656,-4.48828 l -0.523438,-5.29297 0.375,-0.22265 0.07422,-1.98438 0.601563,-0.66406 c -1.851563,-1.468754 -3.28125,-2.20313 -4.28125,-2.20313 z m 0.523437,1.691407 0.375,0.21875 1.730469,0.808591 -0.07422,0.51563 v 0.36719 H 58.48828 l 0.152344,5.80859 -2.105469,-6.76563 v -0.734371 l 0.152344,0.148437 z m 6.3125,24.339841 -0.527344,0.73438 0.300781,0.22265 -0.148437,1.32422 c 0,2.44922 0.351563,6.07814 1.050781,10.88281 l 1.351563,10.88282 c 0.902343,0 2.582031,-3.03907 5.035156,-9.11719 v -0.0742 l 0.07422,0.0742 c 0,1.8125 0.277344,2.71875 0.828125,2.71875 l 1.050781,-2.05859 c 0.25,-0.63672 1.003906,-1.00387 2.253906,-1.10157 l 0.902344,-0.14843 0.226562,0.0742 0.148438,-0.14843 0.453125,-0.36719 -0.226563,-0.44141 0.527344,-3.60156 v -0.14844 c 0,-0.39062 -0.203125,-0.58593 -0.601562,-0.58593 h -0.07422 c -6.964844,-6.08203 -11.171875,-9.1211 -12.625,-9.1211 z m 0.300781,1.32422 11.871094,8.60547 -0.300781,0.80859 v 2.5 l -0.902344,-0.0742 c -1.152344,0 -1.875,0.17188 -2.175781,0.51563 l -0.601563,0.66016 c -0.453125,-1.17579 -0.777343,-1.76563 -0.976562,-1.76563 l -4.808594,8.82813 z"
     sodipodi:nodetypes="cccccscccccccccccccccccccccccccccccccccccccccccccccccccccsccccccccccccccccccccccccccccccccccsccccccccccccccccccccccccccccccccccccccccccccccccccccccccccccccccccccccccccccsccccccccccccccccsccccccccccccccscccccccccccccccccccccccccccccccccccccccccccccccccccccccccccccccscccccccccccccccccccccccccccccccccccssccccccccccccccc" />
  <path
     id="path8"
     style="fill:#332b2b;fill-opacity:1;fill-rule:evenodd;stroke:none"
     d="m 107.2207,46.644531 -0.041,0.05469 c 1.05078,0.539062 1.80078,1.222656 2.2539,2.058593 2.90625,1.46875 5.25782,2.964844 7.0625,4.484376 l 1.65235,1.617187 2.6289,3.605469 2.92969,5.074218 c 1.50391,2.253908 2.9336,5.539063 4.28516,9.855469 l 1.20312,4.410157 c 0.55078,2.453124 0.82422,4.535156 0.82422,6.25 l 0.0742,2.796874 c 0.25386,0.488283 0.32812,1.765626 0.22656,3.824219 l 0.008,3.997929 c 0.0823,0.09851 0.10387,-3.129025 0,0 l 0.0582,0.824337 0.23437,-3.550781 0.0391,-2.427735 0.0195,-1.671875 -0.26563,-0.927734 -0.0644,-1.44336 0.0391,-1.441406 0.0977,-0.59375 -0.69141,-4.4375 -0.56054,-2.5625 -1.59571,-5.128906 -1.63672,-4.253906 -0.58398,-1.269532 -2.16797,-3.498046 -2.15234,-3.757813 -1.45899,-1.970703 -1.16992,-1.634766 -1.65234,-1.617187 -1.52735,-1.154297 -2.98242,-1.980469 -1.88086,-0.978515 -0.67187,-0.371094 -1.00586,-1.267578 L 107.5,46.767578 Z M 67.203125,70.597656 c -1.550781,0 -3.003906,0.6875 -4.355469,2.058594 -0.953125,0.933594 -1.578125,1.816406 -1.878906,2.648438 -0.300781,0.734374 -0.625,1.863281 -0.976562,3.382812 l -0.453126,-0.07422 0.226563,0.808594 1.203125,-0.07422 h 1.425781 l 0.07813,-0.07031 -0.07813,-0.589844 c 0,-1.519531 0.328125,-2.523438 0.976563,-3.015625 l -0.07422,-0.441406 1.503906,-2.058594 2.480469,-2.5 z m 2.707031,0.292969 -3.082031,2.0625 c -0.550781,0.292969 -1,0.734375 -1.351563,1.320313 l 0.07422,0.222656 -0.222656,0.734375 -1.355469,4.191406 h 1.128906 c 0.300782,-1.324219 0.976563,-2.597656 2.027344,-3.824219 l 0.226563,0.07422 v -0.07422 c 1.601562,-2.449218 3.003906,-3.871094 4.207031,-4.265625 z m 2.703125,0.957031 c -0.75,0.195313 -1.652343,0.882813 -2.703125,2.058594 l -1.726562,2.5 -0.601563,0.882812 -0.675781,2.5 -0.07813,0.07422 1.355469,0.148438 h 1.199218 l 0.07813,-0.222657 0.148437,-0.511718 0.07422,-0.957032 c 1.953125,-2.992186 3.707031,-4.683593 5.261718,-5.074218 -0.753906,-0.589844 -1.527343,-1.054688 -2.332031,-1.398439 z m 3.234375,2.207032 -3.082031,2.5 v 0.07422 l -1.429687,2.5 -0.375,0.660156 -0.07422,0.07422 h 1.804687 v -0.07422 C 73.089844,78.90625 73.667969,78.171875 74.417969,77.585938 75.46875,76.359375 76.371094,75.625 77.125,75.378906 Z m 2.027344,2.207031 -2.707031,2.574219 -0.148438,0.07031 -0.449219,0.882812 -0.07812,0.222657 2.332031,0.21875 0.148437,-0.441407 0.07422,-0.367187 -0.07422,-0.21875 1.804688,-1.617187 z m 1.503906,2.277343 -1.355468,1.25 v 0.07422 l -0.148438,0.515625 2.402344,0.441406 0.226562,-0.292968 -0.527344,-0.367188 h 0.300782 z m 42.902344,23.535158 c -0.35156,0 -0.55076,0.17187 -0.60156,0.51562 v 0.36719 l 0.0742,11.69141 v 3.08984 c 0.80468,1.125 1.73047,4.85156 2.78125,11.17578 l 1.5039,-11.25 0.375,-0.80859 -0.22656,-0.58985 -1.125,0.14844 c -1.25391,-9.5625 -2.17969,-14.33984 -2.78125,-14.33984 z m -27.726562,14.33984 c -0.398438,0 -0.601563,0.26953 -0.601563,0.8086 v 0.0742 l 0.601563,8.08984 c 1.351561,1.37109 4.156246,8.03906 8.417972,20 l 4.35546,18.60547 1.05079,-3.23438 c 0,-0.19531 0.0508,-0.32029 0.15234,-0.36719 l 0.0742,-0.22265 0.22656,0.0742 0.30078,-0.0742 2.78125,2.57422 1.42578,-9.78125 0.44922,-10.8086 0.15235,-7.9414 0.14843,-0.88282 -0.0742,-0.4414 -0.375,-0.14844 h -0.0742 c -0.95313,0 -1.78125,3.35938 -2.48047,10.07422 l -1.27735,5.22266 c -0.55074,2.10937 -0.72656,3.82421 -0.52734,5.14843 l -1.5,0.29297 -0.15234,-0.14453 -4.50782,-18.53515 z m 25.621092,8.38282 c -0.94922,0 -1.72656,2.08204 -2.32812,6.25 h -0.0742 l -2.10547,-4.26563 c -0.19922,0.0977 -0.3242,0.17186 -0.375,0.22266 h -0.14844 l -0.0781,0.29297 0.30078,0.80859 0.15234,0.36719 h -0.15234 v 2.13281 c 0.65234,1.07812 1.55469,4.66015 2.70703,10.73828 l 0.90234,5.95703 1.65235,-17.94531 v -3.01563 l 0.14843,-0.95312 -0.14843,-0.44141 -0.375,-0.14843 z m -56.953124,0.4414 2.105469,20.07813 4.808594,-8.82813 c 0.199219,0 0.523437,0.58984 0.976562,1.76563 l 0.601563,-0.66016 c 0.300781,-0.34375 1.023437,-0.51563 2.175781,-0.51563 l 0.902344,0.0742 v -2.5 l 0.300781,-0.80859 z"
     sodipodi:nodetypes="ccccccccccccccccccccccccccccccccccccccccccccccccccccccccccccccccccccccccccccccccccccccccccccccccccccccccccccccscccccccccscsccccccccccccccccscccccccscccccccccccccccccscccccccccc" />
  <g
     id="g1075"
     style="fill:#544a4a;fill-opacity:1">
    <path
       style="fill:#544a4a;fill-opacity:1;fill-rule:evenodd;stroke:none"
       d="m 150.23437,107.22266 0.0742,0.36718 -0.30078,-0.22265 0.22656,-0.14453 M 82.007812,81.480469 v 0.222656 -0.222656 m 31.632818,51.257811 h 0.375 v 0.14844 l -0.375,-0.14844 m 1.65234,-5.88281 0.375,-0.0742 c -0.19922,0.0977 -0.32422,0.17188 -0.375,0.22266 v -0.14844 m 4.96094,-2.05859 h 0.375 v 0.14843 l -0.375,-0.14843 m 8.48828,-28.605474 v -0.148437 0.148437 m -70.253909,5.292974 0.152344,-0.36719 v 0.36719 h -0.152344 m 35.464844,15.73828 v 0.0742 -0.0742 m 21.414065,10.88281 0.15234,0.36719 h -0.15234 v -0.36719"
       id="path4" />
    <path
       style="fill:#544a4a;fill-opacity:1;fill-rule:evenodd;stroke:none"
       d="m 103.87109,40.519531 c 3.45704,0.05078 5.1875,0.589844 5.1875,1.617188 l -2.85546,4.121093 c -1.60547,-0.6875 -3.70704,-1.152343 -6.312505,-1.398437 l 3.980465,-4.339844"
       id="path6" />
    <path
       id="path10"
       style="fill:#544a4a;fill-opacity:1;fill-rule:evenodd;stroke:none"
       d="m 90.935547,44.380859 -1.931641,0.113282 0.06641,0.216797 4.507813,-0.144532 5.109375,0.21875 0.128906,-0.138672 -2.601562,-0.191406 z m 2.642578,1.361329 c -9.566406,0 -17.257813,1.738281 -23.066406,5.222656 -0.703125,0.390625 -1.878907,1.738281 -3.53125,4.042968 l -2.332031,3.234376 h -0.296876 l -5.5625,7.945312 c -1.152343,1.664062 -2.054687,3.847656 -2.703124,6.542969 l -1.054688,4.339843 0.300781,1.101563 0.375,0.734375 2.03125,0.664062 1.050781,-0.07422 0.152344,-0.957032 c 0.148438,-2.449218 1.152344,-4.605468 3.003906,-6.46875 1.753907,-1.816406 3.457032,-2.722656 5.109376,-2.722656 l 2.480468,0.292969 h 0.148438 c 0.25,0 0.453125,0.07422 0.601562,0.222656 1.855469,0.585938 3.757813,1.714844 5.710938,3.382813 l 0.148437,0.21875 2.105469,1.988281 c 0.703125,0.683594 1.726562,2.304689 3.082031,4.851563 l 0.222657,0.07422 0.152343,0.367188 -0.07422,0.148437 0.07422,0.21875 0.300781,0.07422 v 0.292969 0.222656 c 1.753907,3.285156 3.078126,7.523437 3.980469,12.722656 l 4.433594,25.296878 v 0.0742 c 0.652344,0.92967 1.679687,3.45703 3.082031,7.57421 l -0.527344,-13.08984 c 0,-1.66797 0.175782,-2.5 0.527344,-2.5 l 0.449219,5.44141 c 0,-0.53907 0.203125,-0.8086 0.601563,-0.8086 l 8.566402,18.38282 4.50782,18.53515 0.15234,0.14453 1.5,-0.29297 c -0.19922,-1.32422 -0.0234,-3.03906 0.52734,-5.14843 l 1.27735,-5.22266 c 0.69922,-6.71484 1.52734,-10.07422 2.48047,-10.07422 h 0.44921 c 0.15234,-7.89062 0.40234,-11.83984 0.75,-11.83984 l 0.52735,5.95703 0.375,-0.0742 2.10547,4.26563 h 0.0742 c 0.60156,-4.16797 1.3789,-6.25 2.32812,-6.25 h 0.45313 V 99.5 l 0.52343,-0.292969 c 0.25391,0 0.42579,1.124999 0.52735,3.382809 0.0508,-0.34375 0.25,-0.51562 0.60156,-0.51562 0.60156,0 1.52734,4.77734 2.78125,14.33984 l 1.125,-0.14844 0.75391,-6.54296 c 0.39843,-3.875 0.82422,-6.98828 1.27734,-9.33985 l 0.375,-1.617185 0.0742,-0.371094 -0.1484,-0.144531 v -1.472656 l 0.22266,-0.585938 v -0.148437 c 0.0508,-4.117188 0.20312,-6.886719 0.45312,-8.308594 -0.20312,-4.5625 -0.60156,-7.820313 -1.20312,-9.78125 v -0.148437 c -1.75391,-5.785157 -3.08203,-9.511719 -3.98438,-11.175782 l -2.77734,-5.8125 c -0.95313,-1.765625 -1.98047,-3.210937 -3.08203,-4.335937 l -1.20313,-1.179688 c -5.30859,-4.460937 -9.74218,-7.304687 -13.29687,-8.53125 l -4.734378,-0.808593 -0.152343,0.07422 -0.449219,-0.144531 z m -36.96875,53.832031 0.07813,0.367187 -0.152344,-0.148437 v 0.734371 l 2.105469,6.76563 -0.152344,-5.80859 0.152344,-0.36719 0.07422,-0.51563 -1.730469,-0.808591 z" />
  </g>
  <g
     id="g2219"
     transform="translate(-154.14246,-20.307636)">
    <g
       id="g93815"
       transform="translate(161.82138,23.823388)">
      <path
         style="fill:none;stroke:#000000;stroke-width:1px;stroke-linecap:butt;stroke-linejoin:miter;stroke-opacity:1"
         d="m 88.064551,26.518092 c -2.251097,1.193709 -4.503195,2.386418 -6.756292,3.578128 -2.253098,1.191709 -8.278371,4.633667 -12.419056,6.949 -4.140685,2.315333 -5.860721,5.194029 -8.792582,7.789543 -2.931861,2.595515 -7.459281,5.386899 -11.190421,8.078848 -3.73114,2.69195 -5.230727,4.513847 -7.84759,6.76927 -2.616864,2.255423 -9.324303,7.673623 -13.987954,11.508935 -4.663651,3.835311 -7.621208,5.920996 -11.433312,8.879994 -3.812104,2.958998 -1.780868,0.620573 -2.672802,0.929359 -0.891933,0.308787 1.201606,8.125767 1.201606,8.125767 l 7.85879,3.469691 10.864168,4.429148 8.761668,1.525507 5.161234,1.162007 11.228484,1.483921 10.765071,-0.32472 16.879418,-0.48692 14.233035,-1.872698 14.287874,-4.607122 18.21409,-7.26954 10.21433,-4.587304 13.63908,-6.861485 7.59291,-5.444106 4.34418,-4.786713 3.39939,-8.381096 -7.26586,-4.268804 -15.42452,-6.405717 -19.23064,-8.762816 c 0,0 -16.44221,-5.537225 -17.56401,-5.910676 -1.1218,-0.373451 -20.514739,-4.880835 -20.514739,-4.880835 l -2.675694,-1.19056 z"
         id="path875"
         sodipodi:nodetypes="csssssssscccccccccccccccccccsccc" />
      <path
         style="fill:#a58c82;fill-opacity:1;stroke:#000000;stroke-width:1px;stroke-linecap:butt;stroke-linejoin:miter;stroke-opacity:1"
         d="m 88.934407,25.156098 0.19619,15.918668 0.0529,35.805509 0.222186,23.063693 L 99.918016,98.512872 143.13613,81.631677 123.6297,61.402176 105.55201,43.066679 94.608412,31.282967 Z"
         id="path877" />
      <path
         style="fill:#a48d80;fill-opacity:1;stroke:#000000;stroke-width:1px;stroke-linecap:butt;stroke-linejoin:miter;stroke-opacity:1"
         d="m 88.934407,25.156098 54.201723,56.475579 13.13726,-6.444256 7.59291,-5.444106 4.34418,-4.786713 3.39939,-8.381096 -7.26586,-4.268804 -34.65516,-15.168533 -14.9463,-4.972968 -23.132449,-5.818543 z"
         id="path879"
         sodipodi:nodetypes="ccccccccccc" />
      <path
         style="fill:#a58e81;fill-opacity:1;stroke:#000000;stroke-width:1px;stroke-linecap:butt;stroke-linejoin:miter;stroke-opacity:1"
         d="M 88.80623,25.515592 71.659106,33.073663 60.145107,40.637775 43.473891,52.268293 24.875838,67.308896 6.8192496,83.618018 l 7.3468984,5.508918 13.305702,4.6196 5.417256,3.279239 5.168686,0.222488 19.316573,-29.07363 13.947456,-15.927642 z"
         id="path881"
         sodipodi:nodetypes="ccccccccccccc" />
      <path
         style="fill:#a3877e;fill-opacity:1;stroke:#000000;stroke-width:1px;stroke-linecap:butt;stroke-linejoin:miter;stroke-opacity:1"
         d="m 88.934407,25.156098 -18.354265,28.093393 -13.205777,14.925142 -19.316573,29.07363 8.873657,1.862684 10.669156,1.226593 11.204958,0.53495 20.60012,-0.928522 z"
         id="path883" />
    </g>
  </g>
</svg>
