<?xml version="1.0" encoding="UTF-8"?>
<svg xmlns="http://www.w3.org/2000/svg" xmlns:xlink="http://www.w3.org/1999/xlink" width="197px" height="209px" viewBox="0 0 197 209" version="1.1">
<g id="surface1">
<path style=" stroke:none;fill-rule:evenodd;fill:rgb(0%,0%,0%);fill-opacity:1;" d="M 148.128906 74.421875 L 148.277344 74.347656 L 148.355469 74.203125 C 148.355469 74.054688 147.953125 73.933594 147.152344 73.832031 L 135.804688 68.390625 L 135.730469 68.320312 L 135.65625 68.246094 L 134.078125 67.507812 L 131.824219 66.332031 C 131.824219 65.746094 134.226562 62.460938 139.035156 56.480469 L 126.1875 55.449219 L 126.1875 53.90625 C 127.242188 50.277344 128.21875 47.507812 129.117188 45.59375 L 129.570312 44.785156 L 129.496094 44.417969 L 128.816406 44.34375 L 128.21875 45.152344 L 116.195312 46.699219 C 115.09375 46.699219 114.515625 46.328125 114.46875 45.59375 L 114.765625 44.125 L 114.765625 41.476562 C 114.765625 38.484375 114.941406 36.011719 115.292969 34.050781 L 115.21875 33.902344 L 105.675781 37.871094 C 102.320312 40.570312 99.941406 41.917969 98.539062 41.917969 L 98.011719 41.84375 C 94.355469 34.390625 92.351562 29.980469 92 28.605469 L 81.554688 37.503906 L 75.09375 32.210938 C 71.589844 29.90625 69.410156 28.117188 68.558594 26.84375 C 67.855469 28.507812 67.332031 31.890625 66.980469 36.992188 C 66.679688 41.355469 66.351562 43.535156 66.003906 43.535156 L 55.109375 38.535156 L 54.882812 38.242188 L 54.507812 38.3125 L 54.429688 38.683594 L 54.582031 39.050781 C 54.582031 45.128906 54.90625 49.738281 55.558594 52.875 L 55.558594 53.683594 L 55.707031 53.609375 L 53.152344 54.050781 L 39.480469 52.65625 L 37.527344 52.65625 C 38.175781 54.222656 39.554688 56.625 41.65625 59.863281 C 42.257812 61.085938 43.9375 63.414062 46.691406 66.847656 C 46.691406 67.878906 44.488281 68.90625 40.082031 69.9375 L 30.460938 72.140625 L 30.160156 72.214844 C 34.070312 74.375 40.53125 77.339844 49.546875 81.113281 C 49.546875 81.652344 48.070312 83.542969 45.113281 86.777344 L 44.738281 86.996094 L 46.167969 87.070312 L 52.328125 84.644531 L 52.703125 85.304688 L 52.703125 85.601562 L 52.554688 85.671875 L 52.554688 86.042969 C 52.554688 86.972656 51.851562 91.066406 50.449219 98.324219 L 50.449219 98.394531 L 50.523438 98.394531 L 61.644531 91.042969 L 67.128906 98.175781 L 70.511719 93.394531 C 72.0625 91.238281 73.214844 90.160156 73.96875 90.160156 C 74.867188 90.160156 78.175781 94.375 83.886719 102.808594 L 84.488281 103.617188 L 84.710938 103.984375 L 85.164062 103.398438 L 85.164062 103.324219 L 94.855469 88.835938 C 95.105469 88.835938 96.882812 91.066406 100.191406 95.527344 L 101.542969 91.484375 L 101.992188 91.335938 L 108.378906 98.765625 C 110.535156 93.421875 112.011719 90.75 112.8125 90.75 L 120.777344 98.691406 C 120.777344 94.570312 121.078125 92.511719 121.679688 92.511719 C 122.03125 92.511719 123.207031 93.273438 125.210938 94.792969 L 127.464844 95.382812 L 128.894531 95.894531 L 129.042969 95.894531 C 129.242188 95.894531 129.496094 96.066406 129.796875 96.410156 L 129.796875 95.96875 L 128.441406 90.601562 C 128.441406 90.160156 128.917969 89.9375 129.871094 89.9375 L 143.09375 91.261719 L 134.226562 79.421875 L 133.328125 78.980469 L 133.402344 78.539062 L 147.976562 74.496094 L 148.128906 74.421875 M 130.847656 44.417969 L 127.089844 54.492188 L 132.5 55.226562 L 137.160156 54.640625 C 138.660156 54.394531 139.9375 54.8125 140.992188 55.890625 L 133.101562 65.964844 L 150.984375 74.496094 L 143.167969 76.554688 L 134.753906 79.277344 L 144.746094 91.851562 C 144.746094 92.144531 144.398438 92.292969 143.695312 92.292969 L 130.921875 90.894531 L 129.570312 90.894531 L 130.695312 94.351562 L 130.695312 98.394531 L 130.320312 98.542969 L 127.316406 97.367188 L 125.964844 97.21875 L 126.339844 96.777344 L 126.5625 96.632812 L 126.261719 96.410156 L 124.160156 95.308594 L 122.808594 94.132812 L 122.429688 93.835938 L 121.832031 93.320312 L 121.53125 100.015625 L 121.230469 100.160156 C 120.378906 100.160156 117.574219 97.316406 112.8125 91.628906 L 110.410156 95.675781 C 109.359375 97.441406 108.90625 98.933594 109.058594 100.160156 L 108.757812 100.308594 C 105.398438 96.679688 103.222656 94.082031 102.21875 92.511719 C 101.265625 95.355469 100.667969 96.777344 100.414062 96.777344 L 94.855469 89.792969 L 89.445312 97.515625 C 87.34375 100.652344 85.964844 103.324219 85.3125 105.53125 L 85.011719 105.601562 L 74.117188 91.1875 C 73.164062 91.828125 71.714844 93.421875 69.757812 95.96875 L 66.90625 99.574219 C 66.554688 99.574219 64.800781 97.023438 61.644531 91.925781 L 50.222656 99.277344 L 49.699219 98.25 C 49.699219 97.21875 50.023438 94.839844 50.675781 91.117188 L 51.800781 86.042969 L 49.921875 86.777344 C 47.269531 87.855469 45.265625 88.394531 43.914062 88.394531 L 43.535156 88.320312 L 43.386719 87.660156 L 48.121094 81.410156 L 37.300781 76.628906 C 31.589844 73.882812 28.734375 72.339844 28.734375 71.996094 C 28.734375 70.964844 31.566406 70.207031 37.226562 69.714844 C 39.328125 69.46875 41.03125 69.03125 42.335938 68.390625 L 45.414062 66.773438 C 42.761719 63.488281 41.082031 61.085938 40.378906 59.566406 C 37.625 55.644531 36.25 53.167969 36.25 52.140625 C 36.25 51.84375 36.875 51.699219 38.125 51.699219 L 45.265625 52.726562 L 55.03125 53.683594 C 54.179688 51.871094 53.804688 49.371094 53.90625 46.183594 L 53.679688 38.535156 C 53.679688 37.75 53.878906 37.359375 54.28125 37.359375 L 65.402344 42.433594 L 67.582031 25.445312 L 68.105469 25.371094 L 81.707031 36.253906 L 87.566406 30.59375 C 90.273438 28.238281 91.851562 27.0625 92.300781 27.0625 L 92.828125 27.136719 C 93.828125 31.746094 95.859375 36.28125 98.914062 40.742188 L 107.480469 36.253906 C 111.988281 33.902344 114.691406 32.726562 115.59375 32.726562 L 116.121094 32.796875 L 116.195312 33.902344 L 115.667969 36.917969 L 115.667969 45.742188 L 117.246094 45.742188 C 121.152344 44.566406 125.285156 43.976562 129.644531 43.976562 C 130.546875 43.976562 130.945312 44.125 130.847656 44.417969 "/>
<path style=" stroke:none;fill-rule:evenodd;fill:rgb(100%,60.000002%,20%);fill-opacity:1;" d="M 148.128906 74.421875 L 147.976562 74.496094 L 133.402344 78.539062 L 133.328125 78.980469 L 134.226562 79.421875 L 143.09375 91.261719 L 129.871094 89.9375 C 128.917969 89.9375 128.441406 90.160156 128.441406 90.601562 L 129.796875 95.96875 L 129.796875 96.410156 C 129.496094 96.066406 129.242188 95.894531 129.042969 95.894531 L 128.894531 95.894531 L 127.464844 95.382812 L 125.210938 94.792969 C 123.207031 93.273438 122.03125 92.511719 121.679688 92.511719 C 121.078125 92.511719 120.777344 94.570312 120.777344 98.691406 L 112.8125 90.75 C 112.011719 90.75 110.535156 93.421875 108.378906 98.765625 L 101.992188 91.335938 L 101.542969 91.484375 L 100.191406 95.527344 C 96.882812 91.066406 95.105469 88.835938 94.855469 88.835938 L 85.164062 103.324219 L 85.164062 103.398438 L 84.9375 103.691406 L 84.710938 103.691406 L 84.488281 103.617188 L 83.886719 102.808594 C 78.175781 94.375 74.867188 90.160156 73.96875 90.160156 C 73.214844 90.160156 72.0625 91.238281 70.511719 93.394531 L 67.128906 98.175781 L 61.644531 91.042969 L 50.523438 98.394531 L 50.449219 98.324219 C 51.851562 91.066406 52.554688 86.972656 52.554688 86.042969 L 52.554688 85.671875 L 52.703125 85.601562 L 52.703125 85.304688 L 52.328125 84.644531 L 46.167969 87.070312 L 44.738281 86.996094 L 45.113281 86.777344 C 48.070312 83.542969 49.546875 81.652344 49.546875 81.113281 C 40.53125 77.339844 34.070312 74.375 30.160156 72.214844 L 30.460938 72.140625 L 40.082031 69.9375 C 44.488281 68.90625 46.691406 67.878906 46.691406 66.847656 C 43.9375 63.414062 42.257812 61.085938 41.65625 59.863281 C 39.554688 56.625 38.175781 54.222656 37.527344 52.65625 L 39.480469 52.65625 L 53.152344 54.050781 L 55.707031 53.609375 L 55.558594 53.683594 L 55.558594 52.875 C 54.90625 49.738281 54.582031 45.128906 54.582031 39.050781 L 54.429688 38.683594 L 54.507812 38.3125 L 54.882812 38.242188 L 55.109375 38.535156 L 61.417969 48.535156 C 65.375 53.832031 67.355469 57.214844 67.355469 58.683594 C 67.355469 59.519531 62.144531 59.886719 51.726562 59.789062 L 61.34375 72.4375 L 61.269531 72.878906 L 48.570312 73.023438 L 53.980469 74.496094 L 54.054688 74.421875 C 55.359375 74.421875 57.363281 75.5 60.066406 77.65625 C 60.066406 78.980469 59.316406 82.046875 57.8125 86.851562 L 57.8125 86.925781 L 66.003906 84.71875 L 67.882812 89.425781 L 68.03125 89.570312 L 74.042969 86.777344 L 79.300781 84.128906 C 79.851562 84.128906 80.65625 85.332031 81.707031 87.734375 C 82.707031 90.136719 83.308594 92.167969 83.511719 93.835938 L 83.660156 95.011719 L 89.144531 89.9375 C 92.300781 86.359375 94.40625 84.570312 95.457031 84.570312 L 100.265625 90.378906 C 102.320312 86.996094 103.421875 85.304688 103.570312 85.304688 C 104.375 85.304688 105.925781 87.242188 108.230469 91.117188 C 110.636719 87.734375 112.3125 86.042969 113.265625 86.042969 C 114.167969 86.042969 115.667969 87.5625 117.773438 90.601562 C 118.472656 88.542969 119.050781 87.511719 119.5 87.511719 L 124.6875 89.351562 L 126.414062 90.011719 L 126.5625 90.085938 L 126.414062 89.496094 L 126.863281 87.144531 C 125.964844 86.214844 125.511719 85.035156 125.511719 83.613281 C 125.511719 82.683594 126.6875 80.746094 129.042969 77.804688 L 131.972656 73.90625 L 145.574219 74.644531 L 148.128906 74.421875 M 135.730469 68.320312 L 135.804688 68.390625 L 135.730469 68.390625 L 135.730469 68.320312 M 128.96875 72.214844 L 129.117188 72.140625 L 129.117188 72.289062 L 128.96875 72.214844 M 120.703125 82.4375 L 120.253906 82.953125 L 120.628906 82.511719 L 120.703125 82.4375 "/>
<path style=" stroke:none;fill-rule:evenodd;fill:rgb(100%,100%,0%);fill-opacity:1;" d="M 135.804688 68.390625 L 147.152344 73.832031 C 147.953125 73.933594 148.355469 74.054688 148.355469 74.203125 L 148.277344 74.347656 L 148.128906 74.421875 L 145.574219 74.644531 L 131.972656 73.90625 L 129.042969 77.804688 C 126.6875 80.746094 125.511719 82.683594 125.511719 83.613281 C 125.511719 85.035156 125.964844 86.214844 126.863281 87.144531 L 126.414062 89.496094 L 126.5625 90.085938 L 126.414062 90.011719 L 124.6875 89.351562 L 119.5 87.511719 C 119.050781 87.511719 118.472656 88.542969 117.773438 90.601562 C 115.667969 87.5625 114.167969 86.042969 113.265625 86.042969 C 112.3125 86.042969 110.636719 87.734375 108.230469 91.117188 C 105.925781 87.242188 104.375 85.304688 103.570312 85.304688 C 103.421875 85.304688 102.320312 86.996094 100.265625 90.378906 L 95.457031 84.570312 C 94.40625 84.570312 92.300781 86.359375 89.144531 89.9375 L 83.660156 95.011719 L 83.511719 93.835938 C 83.308594 92.167969 82.707031 90.136719 81.707031 87.734375 C 80.65625 85.332031 79.851562 84.128906 79.300781 84.128906 L 74.042969 86.777344 L 68.03125 89.570312 L 67.882812 89.425781 L 66.003906 84.71875 L 57.8125 86.925781 L 57.8125 86.851562 C 59.316406 82.046875 60.066406 78.980469 60.066406 77.65625 C 57.363281 75.5 55.359375 74.421875 54.054688 74.421875 L 53.980469 74.496094 L 48.570312 73.023438 L 61.269531 72.878906 L 61.34375 72.4375 L 51.726562 59.789062 C 62.144531 59.886719 67.355469 59.519531 67.355469 58.683594 C 67.355469 57.214844 65.375 53.832031 61.417969 48.535156 L 55.109375 38.535156 L 66.003906 43.535156 C 66.351562 43.535156 66.679688 41.355469 66.980469 36.992188 C 67.332031 31.890625 67.855469 28.507812 68.558594 26.84375 C 69.410156 28.117188 71.589844 29.90625 75.09375 32.210938 L 81.554688 37.503906 L 92 28.605469 C 92.351562 29.980469 94.355469 34.390625 98.011719 41.84375 L 98.539062 41.917969 C 99.941406 41.917969 102.320312 40.570312 105.675781 37.871094 L 115.21875 33.902344 L 115.292969 34.050781 C 114.941406 36.011719 114.765625 38.484375 114.765625 41.476562 L 114.765625 44.125 L 114.46875 45.59375 C 114.515625 46.328125 115.09375 46.699219 116.195312 46.699219 L 128.21875 45.152344 L 128.816406 44.34375 L 129.496094 44.417969 L 129.570312 44.785156 L 129.117188 45.59375 C 128.21875 47.507812 127.242188 50.277344 126.1875 53.90625 L 126.1875 55.449219 L 139.035156 56.480469 C 134.226562 62.460938 131.824219 65.746094 131.824219 66.332031 L 134.078125 67.507812 L 135.65625 68.246094 L 135.730469 68.320312 L 135.730469 68.390625 L 135.804688 68.390625 M 84.9375 103.691406 L 84.710938 103.984375 L 84.488281 103.617188 L 84.710938 103.691406 L 84.9375 103.691406 M 128.96875 72.214844 L 129.117188 72.289062 L 129.117188 72.140625 L 128.96875 72.214844 M 120.703125 82.4375 L 120.628906 82.511719 L 120.253906 82.953125 L 120.703125 82.4375 "/>
</g>
</svg>
