<?xml version="1.0" encoding="UTF-8" standalone="no"?>
<svg
   width="197px"
   height="209px"
   viewBox="0 0 197 209"
   version="1.1"
   id="svg13"
   sodipodi:docname="71.svg"
   inkscape:version="1.1.1 (1:1.1+202109281944+c3084ef5ed)"
   xmlns:inkscape="http://www.inkscape.org/namespaces/inkscape"
   xmlns:sodipodi="http://sodipodi.sourceforge.net/DTD/sodipodi-0.dtd"
   xmlns="http://www.w3.org/2000/svg"
   xmlns:svg="http://www.w3.org/2000/svg">
  <defs
     id="defs17">
    <clipPath
       clipPathUnits="userSpaceOnUse"
       id="clipPath41858">
      <rect
         style="fill:#776655;fill-opacity:1;fill-rule:evenodd;stroke:#000000;stroke-width:0.235493;stroke-linejoin:round"
         id="rect41860"
         width="480.42667"
         height="254.94916"
         x="-114.764"
         y="444.8728"
         rx="1.4743092"
         ry="1.4318657" />
    </clipPath>
    <clipPath
       clipPathUnits="userSpaceOnUse"
       id="clipPath1955">
      <rect
         style="fill:#cc9988;fill-rule:evenodd;stroke-width:0.147761;stroke-linejoin:round"
         id="rect1957"
         width="261.52591"
         height="140.33644"
         x="-52.412571"
         y="158.94672"
         rx="1.7680368"
         ry="0.4700729" />
    </clipPath>
  </defs>
  <sodipodi:namedview
     id="namedview15"
     pagecolor="#ffffff"
     bordercolor="#666666"
     borderopacity="1.0"
     inkscape:pageshadow="2"
     inkscape:pageopacity="0.0"
     inkscape:pagecheckerboard="0"
     showgrid="false"
     inkscape:zoom="2"
     inkscape:cx="100.25"
     inkscape:cy="-5.25"
     inkscape:window-width="2588"
     inkscape:window-height="1082"
     inkscape:window-x="2197"
     inkscape:window-y="166"
     inkscape:window-maximized="0"
     inkscape:current-layer="svg13" />
  <g
     id="g1075"
     style="fill:#544a4a;fill-opacity:1">
    <path
       style="fill:#544a4a;fill-opacity:1;fill-rule:evenodd;stroke:none"
       d="m 150.23437,107.22266 0.0742,0.36718 -0.30078,-0.22265 0.22656,-0.14453 M 82.007812,81.480469 v 0.222656 -0.222656 m 31.632818,51.257811 h 0.375 v 0.14844 l -0.375,-0.14844 m 1.65234,-5.88281 0.375,-0.0742 c -0.19922,0.0977 -0.32422,0.17188 -0.375,0.22266 v -0.14844 m 4.96094,-2.05859 h 0.375 v 0.14843 l -0.375,-0.14843 m 8.48828,-28.605474 v -0.148437 0.148437 m -70.253909,5.292974 0.152344,-0.36719 v 0.36719 h -0.152344 m 35.464844,15.73828 v 0.0742 -0.0742 m 21.414065,10.88281 0.15234,0.36719 h -0.15234 v -0.36719"
       id="path4" />
    <path
       id="path10"
       style="fill:#544a4a;fill-opacity:1;fill-rule:evenodd;stroke:none"
       d="m 90.935547,44.380859 -1.931641,0.113282 0.06641,0.216797 4.507813,-0.144532 5.109375,0.21875 0.128906,-0.138672 -2.601562,-0.191406 z m 2.642578,1.361329 c -9.566406,0 -17.257813,1.738281 -23.066406,5.222656 -0.703125,0.390625 -1.878907,1.738281 -3.53125,4.042968 l -2.332031,3.234376 h -0.296876 l -5.5625,7.945312 c -1.152343,1.664062 -2.054687,3.847656 -2.703124,6.542969 l -1.054688,4.339843 0.300781,1.101563 0.375,0.734375 2.03125,0.664062 1.050781,-0.07422 0.152344,-0.957032 c 0.148438,-2.449218 1.152344,-4.605468 3.003906,-6.46875 1.753907,-1.816406 3.457032,-2.722656 5.109376,-2.722656 l 2.480468,0.292969 h 0.148438 c 0.25,0 0.453125,0.07422 0.601562,0.222656 1.855469,0.585938 3.757813,1.714844 5.710938,3.382813 l 0.148437,0.21875 2.105469,1.988281 c 0.703125,0.683594 1.726562,2.304689 3.082031,4.851563 l 0.222657,0.07422 0.152343,0.367188 -0.07422,0.148437 0.07422,0.21875 0.300781,0.07422 v 0.292969 0.222656 c 1.753907,3.285156 3.078126,7.523437 3.980469,12.722656 l 4.433594,25.296878 v 0.0742 c 0.652344,0.92967 1.679687,3.45703 3.082031,7.57421 l -0.527344,-13.08984 c 0,-1.66797 0.175782,-2.5 0.527344,-2.5 l 0.449219,5.44141 c 0,-0.53907 0.203125,-0.8086 0.601563,-0.8086 l 8.566402,18.38282 4.50782,18.53515 0.15234,0.14453 1.5,-0.29297 c -0.19922,-1.32422 -0.0234,-3.03906 0.52734,-5.14843 l 1.27735,-5.22266 c 0.69922,-6.71484 1.52734,-10.07422 2.48047,-10.07422 h 0.44921 c 0.15234,-7.89062 0.40234,-11.83984 0.75,-11.83984 l 0.52735,5.95703 0.375,-0.0742 2.10547,4.26563 h 0.0742 c 0.60156,-4.16797 1.3789,-6.25 2.32812,-6.25 h 0.45313 V 99.5 l 0.52343,-0.292969 c 0.25391,0 0.42579,1.124999 0.52735,3.382809 0.0508,-0.34375 0.25,-0.51562 0.60156,-0.51562 0.60156,0 1.52734,4.77734 2.78125,14.33984 l 1.125,-0.14844 0.75391,-6.54296 c 0.39843,-3.875 0.82422,-6.98828 1.27734,-9.33985 l 0.375,-1.617185 0.0742,-0.371094 -0.1484,-0.144531 v -1.472656 l 0.22266,-0.585938 v -0.148437 c 0.0508,-4.117188 0.20312,-6.886719 0.45312,-8.308594 -0.20312,-4.5625 -0.60156,-7.820313 -1.20312,-9.78125 v -0.148437 c -1.75391,-5.785157 -3.08203,-9.511719 -3.98438,-11.175782 l -2.77734,-5.8125 c -0.95313,-1.765625 -1.98047,-3.210937 -3.08203,-4.335937 l -1.20313,-1.179688 c -5.30859,-4.460937 -9.74218,-7.304687 -13.29687,-8.53125 l -4.734378,-0.808593 -0.152343,0.07422 -0.449219,-0.144531 z m -36.96875,53.832031 0.07813,0.367187 -0.152344,-0.148437 v 0.734371 l 2.105469,6.76563 -0.152344,-5.80859 0.152344,-0.36719 0.07422,-0.51563 -1.730469,-0.808591 z" />
  </g>
  <path
     id="path2"
     style="fill:#000000;fill-opacity:1;fill-rule:evenodd;stroke:none"
     d="m 89.021484,44.554688 -1.349609,0.07812 0.04687,0.152344 c -8.167969,0.539063 -14.101562,2.28125 -17.808594,5.222656 l -1.804687,1.910157 h -0.148438 c -0.703125,0 -2.753906,2.230469 -6.160156,6.691406 -0.351563,0.394531 -1.628906,2.625 -3.832031,6.695313 -0.652344,1.125 -1.605469,3.625 -2.855469,7.5 l -1.429687,4.851562 -0.300782,0.148438 0.226563,0.222656 -0.07422,0.144531 -0.152344,0.07422 v 0.07422 l 0.527344,0.148438 2.253906,1.761719 1.578125,0.148437 0.601563,0.07422 5.257812,0.21875 1.652344,0.07422 0.976562,-0.07422 9.242188,0.296875 5.710938,1.027344 0.453124,-0.07422 0.375,1.105469 c 1,1.226562 1.601563,3.527344 1.800782,6.910156 l 1.128906,5.371094 2.40625,15.664067 c 0.898438,5.58593 1.652344,8.77343 2.253906,9.55859 2.453125,7.16016 3.957032,10.73828 4.507813,10.73828 l 0.523437,-0.22265 0.07813,-1.91016 c 1.300781,3.33203 3.75391,9.01953 7.36328,17.05859 0.85157,2.40235 1.70313,5.85938 2.55469,10.3711 l 1.05078,6.32421 c 0.25,1.61719 0.52735,2.7461 0.82813,3.38282 l 0.0742,0.0742 -0.0742,0.0742 c 0,0.39063 0.22265,0.58593 0.67578,0.58593 l 0.30078,-0.14453 0.375,-0.58984 v -0.21875 l 1.27734,-4.5625 c 1.70313,1.8164 2.78125,2.72265 3.23047,2.72265 l 0.52734,-0.51562 -0.15234,-0.14844 1.57813,-8.08594 c 0.40234,-3.04297 0.60156,-6.03125 0.60156,-8.97265 l 0.22656,-8.97266 0.14844,-3.67578 0.82812,2.5 0.90235,5.51563 0.97656,6.83984 0.52344,3.23437 v 0.8086 l 0.52734,0.14843 h 0.0742 c 0.35156,0 0.52734,-0.19921 0.52734,-0.58984 0.85157,-1.91016 1.45312,-8.06641 1.80078,-18.45703 l 0.22657,-11.62109 1.1289,3.53125 0.67579,4.77734 0.52343,2.42969 0.45313,0.51562 h 0.22656 l 0.44922,-0.73828 -0.0742,-0.51562 2.70312,-19.92578 c 0.17568,-5.86768 2.32056,-10.3158 2.60157,-14.306647 -0.13677,-0.173956 0.17219,-2.216274 0.0474,-2.365586 l -0.0943,-4.948867 c 0.10156,-2.058593 0.0273,-3.335937 -0.22656,-3.824219 l -0.0742,-2.796874 c 0,-1.714844 -0.27344,-3.796876 -0.82422,-6.25 l -1.20312,-4.410157 c -1.35156,-4.316406 -2.78125,-7.601562 -4.28516,-9.855469 l -2.92969,-5.074218 -2.6289,-3.605469 -1.65235,-1.617187 c -1.80468,-1.519532 -4.15625,-3.015626 -7.0625,-4.484376 -0.45312,-0.835937 -1.20312,-1.519531 -2.2539,-2.058593 l 0.15234,-0.205078 -0.99023,-0.435547 -0.13868,0.199218 c -1.60547,-0.6875 -3.70703,-1.152343 -6.312496,-1.398437 l 0.08008,-0.08789 -1.189453,-0.08789 -0.09375,0.101562 -5.109375,-0.21875 -4.507813,0.144532 z m 4.556641,1.1875 4.734375,0.148437 0.449219,0.144531 0.152343,-0.07422 4.734378,0.808593 c 3.55469,1.226563 7.98828,4.070313 13.29687,8.53125 l 1.20313,1.179688 c 1.10156,1.125 2.1289,2.570312 3.08203,4.335937 l 2.77734,5.8125 c 0.90235,1.664063 2.23047,5.390625 3.98438,11.175782 v 0.148437 c 0.60156,1.960937 1,5.21875 1.20312,9.78125 -0.25,1.421875 -0.40232,4.191406 -0.45312,8.308594 v 0.148437 l -0.22266,0.585938 V 98.25 l 0.14844,0.144531 -0.0742,0.371094 -0.375,1.617185 c -0.45312,2.35157 -0.87891,5.46485 -1.27734,9.33985 l -0.75391,6.54296 0.22656,0.58985 -0.375,0.80859 -1.5039,11.25 c -1.05078,-6.32422 -1.97657,-10.05078 -2.78125,-11.17578 v -3.08984 l -0.0742,-11.69141 v -0.36719 c -0.10156,-2.25781 -0.27344,-3.382809 -0.52735,-3.382809 L 120.62891,99.5 v 25.44531 l 0.14843,0.44141 -0.14843,0.95312 v 3.01563 l -1.65235,17.94531 -0.90234,-5.95703 c -1.15234,-6.07813 -2.05469,-9.66016 -2.70703,-10.73828 v -2.5 l -0.30078,-0.80859 0.0781,-0.29297 h 0.14844 v -0.14844 l -0.52735,-5.95703 c -0.34766,0 -0.59766,3.94922 -0.75,11.83984 v 0.14844 l 0.0742,0.4414 -0.14843,0.88282 -0.15235,7.9414 -0.44922,10.8086 -1.42578,9.78125 -2.78125,-2.57422 -0.30078,0.0742 -0.22656,-0.0742 -0.0742,0.22265 c -0.10154,0.0469 -0.15234,0.17188 -0.15234,0.36719 l -1.05079,3.23438 -4.35546,-18.60547 c -4.261726,-11.96094 -7.06641,-18.62891 -8.417972,-20 l -0.601563,-8.08984 v -0.0742 l -0.449219,-5.44141 c -0.351562,0 -0.527344,0.83203 -0.527344,2.5 l 0.527344,13.08984 c -1.402344,-4.11718 -2.429687,-6.64453 -3.082031,-7.57421 v -0.0742 L 85.988281,94.425781 c -0.902343,-5.199219 -2.226562,-9.4375 -3.980469,-12.722656 V 81.1875 l -0.300781,-0.07422 -0.07422,-0.21875 0.07422,-0.148437 -0.152343,-0.367188 -0.222657,-0.07422 C 79.976562,77.757812 78.953125,76.136719 78.25,75.453125 l -2.105469,-1.988281 -0.148437,-0.21875 c -1.953125,-1.667969 -3.855469,-2.796875 -5.710938,-3.382813 -0.148437,-0.148436 -0.351562,-0.222656 -0.601562,-0.222656 h -0.148438 l -2.480468,-0.292969 c -1.652344,0 -3.355469,0.90625 -5.109376,2.722656 -1.851562,1.863282 -2.855468,4.019532 -3.003906,6.46875 l -0.152344,0.957032 -1.050781,0.07422 -2.03125,-0.664062 -0.375,-0.734375 -0.300781,-1.101563 1.054688,-4.339843 c 0.648437,-2.695313 1.550781,-4.878907 2.703124,-6.542969 l 5.5625,-7.945312 h 0.296876 l 2.332031,-3.234376 c 1.652343,-2.304687 2.828125,-3.652343 3.53125,-4.042968 5.808593,-3.484375 13.5,-5.222656 23.066406,-5.222656 z m -26.375,24.855468 h 0.226563 l -0.148438,0.07422 -2.480469,2.5 -1.503906,2.058594 0.07422,0.441406 c -0.648438,0.492187 -0.976563,1.496094 -0.976563,3.015625 l 0.07813,0.589844 -0.07813,0.07031 H 60.96875 l -1.203125,0.07422 -0.226563,-0.808594 0.453126,0.07422 c 0.351562,-1.519531 0.675781,-2.648438 0.976562,-3.382812 0.300781,-0.832032 0.925781,-1.714844 1.878906,-2.648438 1.351563,-1.371094 2.804688,-2.058594 4.355469,-2.058595 z m 2.707031,0.292969 1.652344,0.441406 c -1.203125,0.394531 -2.605469,1.816407 -4.207031,4.265625 v 0.07422 l -0.226563,-0.07422 c -1.050781,1.226563 -1.726562,2.5 -2.027344,3.824219 h -1.128906 l 1.355469,-4.191406 0.222656,-0.734375 -0.07422,-0.222656 c 0.351563,-0.585938 0.800782,-1.027344 1.351563,-1.320313 z m 2.703125,0.957031 c 0.804688,0.34375 1.578125,0.808594 2.332031,1.398438 -1.554687,0.390625 -3.308593,2.082031 -5.261718,5.074218 l -0.07422,0.957032 -0.148437,0.511718 -0.07813,0.222657 h -1.199218 l -1.355469,-0.148438 0.07813,-0.07422 0.675781,-2.5 0.601563,-0.882812 1.726562,-2.5 c 1.050782,-1.175781 1.953125,-1.863281 2.703125,-2.058593 z m 3.234375,2.207032 1.277344,1.324218 c -0.753906,0.246094 -1.65625,0.980469 -2.707031,2.207032 -0.75,0.585937 -1.328124,1.320312 -1.726563,2.203124 v 0.07422 h -1.804687 l 0.07422,-0.07422 0.375,-0.660156 1.429687,-2.5 v -0.07422 z m 2.027344,2.207031 0.902344,1.324219 -1.804688,1.617187 0.07422,0.21875 -0.07422,0.367187 -0.148437,0.441407 -2.332031,-0.21875 0.07812,-0.222657 0.449219,-0.882812 0.148438,-0.07031 z m 1.503906,2.277343 0.898438,1.621094 h -0.300782 l 0.527344,0.367188 -0.226562,0.292968 -2.402344,-0.441406 0.148438,-0.515625 v -0.07422 z m -23.292968,19.34375 -0.453126,0.07031 -0.148437,0.589844 0.07422,0.148437 -0.07422,0.292969 v 0.07422 l -0.152344,0.367187 c 1.804688,8.875001 3.105469,13.312501 3.910157,13.312501 0.499996,0 0.699218,-1.49609 0.597656,-4.48828 l -0.523438,-5.29297 0.375,-0.22265 0.07422,-1.98438 0.601563,-0.66406 c -1.851563,-1.468754 -3.28125,-2.20313 -4.28125,-2.20313 z m 0.523437,1.691407 0.375,0.21875 1.730469,0.808591 -0.07422,0.51563 v 0.36719 H 58.48828 l 0.152344,5.80859 -2.105469,-6.76563 v -0.734371 l 0.152344,0.148437 z m 6.3125,24.339841 -0.527344,0.73438 0.300781,0.22265 -0.148437,1.32422 c 0,2.44922 0.351563,6.07814 1.050781,10.88281 l 1.351563,10.88282 c 0.902343,0 2.582031,-3.03907 5.035156,-9.11719 v -0.0742 l 0.07422,0.0742 c 0,1.8125 0.277344,2.71875 0.828125,2.71875 l 1.050781,-2.05859 c 0.25,-0.63672 1.003906,-1.00387 2.253906,-1.10157 l 0.902344,-0.14843 0.226562,0.0742 0.148438,-0.14843 0.453125,-0.36719 -0.226563,-0.44141 0.527344,-3.60156 v -0.14844 c 0,-0.39062 -0.203125,-0.58593 -0.601562,-0.58593 h -0.07422 c -6.964844,-6.08203 -11.171875,-9.1211 -12.625,-9.1211 z m 0.300781,1.32422 11.871094,8.60547 -0.300781,0.80859 v 2.5 l -0.902344,-0.0742 c -1.152344,0 -1.875,0.17188 -2.175781,0.51563 l -0.601563,0.66016 c -0.453125,-1.17579 -0.777343,-1.76563 -0.976562,-1.76563 l -4.808594,8.82813 z"
     sodipodi:nodetypes="cccccscccccccccccccccccccccccccccccccccccccccccccccccccccsccccccccccccccccccccccccccccccccccsccccccccccccccccccccccccccccccccccccccccccccccccccccccccccccccccccccccccccccsccccccccccccccccsccccccccccccccscccccccccccccccccccccccccccccccccccccccccccccccccccccccccccccccscccccccccccccccccccccccccccccccccccssccccccccccccccc" />
  <path
     id="path8"
     style="fill:#332b2b;fill-opacity:1;fill-rule:evenodd;stroke:none"
     d="m 107.2207,46.644531 -0.041,0.05469 c 1.05078,0.539062 1.80078,1.222656 2.2539,2.058593 2.90625,1.46875 5.25782,2.964844 7.0625,4.484376 l 1.65235,1.617187 2.6289,3.605469 2.92969,5.074218 c 1.50391,2.253908 2.9336,5.539063 4.28516,9.855469 l 1.20312,4.410157 c 0.55078,2.453124 0.82422,4.535156 0.82422,6.25 l 0.0742,2.796874 c 0.25386,0.488283 0.32812,1.765626 0.22656,3.824219 l 0.008,3.997929 c 0.0823,0.09851 0.10387,-3.129025 0,0 l 0.0582,0.824337 0.23437,-3.550781 0.0391,-2.427735 0.0195,-1.671875 -0.26563,-0.927734 -0.0644,-1.44336 0.0391,-1.441406 0.0977,-0.59375 -0.69141,-4.4375 -0.56054,-2.5625 -1.59571,-5.128906 -1.63672,-4.253906 -0.58398,-1.269532 -2.16797,-3.498046 -2.15234,-3.757813 -1.45899,-1.970703 -1.16992,-1.634766 -1.65234,-1.617187 -1.52735,-1.154297 -2.98242,-1.980469 -1.88086,-0.978515 -0.67187,-0.371094 -1.00586,-1.267578 L 107.5,46.767578 Z M 67.203125,70.597656 c -1.550781,0 -3.003906,0.6875 -4.355469,2.058594 -0.953125,0.933594 -1.578125,1.816406 -1.878906,2.648438 -0.300781,0.734374 -0.625,1.863281 -0.976562,3.382812 l -0.453126,-0.07422 0.226563,0.808594 1.203125,-0.07422 h 1.425781 l 0.07813,-0.07031 -0.07813,-0.589844 c 0,-1.519531 0.328125,-2.523438 0.976563,-3.015625 l -0.07422,-0.441406 1.503906,-2.058594 2.480469,-2.5 z m 2.707031,0.292969 -3.082031,2.0625 c -0.550781,0.292969 -1,0.734375 -1.351563,1.320313 l 0.07422,0.222656 -0.222656,0.734375 -1.355469,4.191406 h 1.128906 c 0.300782,-1.324219 0.976563,-2.597656 2.027344,-3.824219 l 0.226563,0.07422 v -0.07422 c 1.601562,-2.449218 3.003906,-3.871094 4.207031,-4.265625 z m 2.703125,0.957031 c -0.75,0.195313 -1.652343,0.882813 -2.703125,2.058594 l -1.726562,2.5 -0.601563,0.882812 -0.675781,2.5 -0.07813,0.07422 1.355469,0.148438 h 1.199218 l 0.07813,-0.222657 0.148437,-0.511718 0.07422,-0.957032 c 1.953125,-2.992186 3.707031,-4.683593 5.261718,-5.074218 -0.753906,-0.589844 -1.527343,-1.054688 -2.332031,-1.398439 z m 3.234375,2.207032 -3.082031,2.5 v 0.07422 l -1.429687,2.5 -0.375,0.660156 -0.07422,0.07422 h 1.804687 v -0.07422 C 73.089844,78.90625 73.667969,78.171875 74.417969,77.585938 75.46875,76.359375 76.371094,75.625 77.125,75.378906 Z m 2.027344,2.207031 -2.707031,2.574219 -0.148438,0.07031 -0.449219,0.882812 -0.07812,0.222657 2.332031,0.21875 0.148437,-0.441407 0.07422,-0.367187 -0.07422,-0.21875 1.804688,-1.617187 z m 1.503906,2.277343 -1.355468,1.25 v 0.07422 l -0.148438,0.515625 2.402344,0.441406 0.226562,-0.292968 -0.527344,-0.367188 h 0.300782 z m 42.902344,23.535158 c -0.35156,0 -0.55076,0.17187 -0.60156,0.51562 v 0.36719 l 0.0742,11.69141 v 3.08984 c 0.80468,1.125 1.73047,4.85156 2.78125,11.17578 l 1.5039,-11.25 0.375,-0.80859 -0.22656,-0.58985 -1.125,0.14844 c -1.25391,-9.5625 -2.17969,-14.33984 -2.78125,-14.33984 z m -27.726562,14.33984 c -0.398438,0 -0.601563,0.26953 -0.601563,0.8086 v 0.0742 l 0.601563,8.08984 c 1.351561,1.37109 4.156246,8.03906 8.417972,20 l 4.35546,18.60547 1.05079,-3.23438 c 0,-0.19531 0.0508,-0.32029 0.15234,-0.36719 l 0.0742,-0.22265 0.22656,0.0742 0.30078,-0.0742 2.78125,2.57422 1.42578,-9.78125 0.44922,-10.8086 0.15235,-7.9414 0.14843,-0.88282 -0.0742,-0.4414 -0.375,-0.14844 h -0.0742 c -0.95313,0 -1.78125,3.35938 -2.48047,10.07422 l -1.27735,5.22266 c -0.55074,2.10937 -0.72656,3.82421 -0.52734,5.14843 l -1.5,0.29297 -0.15234,-0.14453 -4.50782,-18.53515 z m 25.621092,8.38282 c -0.94922,0 -1.72656,2.08204 -2.32812,6.25 h -0.0742 l -2.10547,-4.26563 c -0.19922,0.0977 -0.3242,0.17186 -0.375,0.22266 h -0.14844 l -0.0781,0.29297 0.30078,0.80859 0.15234,0.36719 h -0.15234 v 2.13281 c 0.65234,1.07812 1.55469,4.66015 2.70703,10.73828 l 0.90234,5.95703 1.65235,-17.94531 v -3.01563 l 0.14843,-0.95312 -0.14843,-0.44141 -0.375,-0.14843 z m -56.953124,0.4414 2.105469,20.07813 4.808594,-8.82813 c 0.199219,0 0.523437,0.58984 0.976562,1.76563 l 0.601563,-0.66016 c 0.300781,-0.34375 1.023437,-0.51563 2.175781,-0.51563 l 0.902344,0.0742 v -2.5 l 0.300781,-0.80859 z"
     sodipodi:nodetypes="ccccccccccccccccccccccccccccccccccccccccccccccccccccccccccccccccccccccccccccccccccccccccccccccccccccccccccccccscccccccccscsccccccccccccccccscccccccscccccccccccccccccscccccccccc" />
  <g
     id="g27233"
     transform="matrix(0.4337451,0,0,0.4337451,-72.155929,-5.974176)">
    <path
       style="fill:#bb9977;fill-opacity:1;stroke:#000000;stroke-width:2.8;stroke-linecap:butt;stroke-linejoin:miter;stroke-miterlimit:4;stroke-dasharray:none;stroke-opacity:1"
       d="m 376.48268,23.569787 -4.55465,6.645703 -3.28198,13.894558 -3.61671,16.358686 -3.66573,13.94217 -4.43535,17.759001 -5.13754,13.694095 -8.52785,12.73766 -10.87389,8.515 -13.06296,9.60958 -17.57698,8.58457 -17.43774,6.44471 -14.91041,5.68903 -21.38233,9.50017 -24.96558,12.41239 -14.52007,9.32108 -13.55219,11.71002 -9.86633,10.41101 -7.28941,12.22565 -6.49743,14.52672 -1.80054,4.78447 -1.66049,7.43663 4.94814,-1.26157 6.06699,-1.93862 6.57358,-1.97921 7.81145,-1.16706 10.16245,-2.28152 8.77757,-2.51904 10.07061,-0.49677 9.5994,-1.74217 12.2138,-0.17955 9.99337,-0.92242 11.22298,-0.7843 6.3343,0.19293 16.26254,-0.58017 11.00983,-0.71844 15.60115,-1.29412 17.28526,-1.06841 19.31749,-0.92468 19.67799,-0.37417 22.56644,0.35945 23.34719,0.63615 23.44383,2.2048 21.03013,0.70041 19.86257,3.10017 20.55606,2.85006 17.35809,3.53949 19.04114,3.66448 6.34543,2.46495 9.21809,1.61745 12.79915,2.78319 9.72709,2.58208 3.81217,1.70425 -0.84928,-8.29349 -3.68525,-10.0734 -6.9019,-12.52928 -14.26587,-19.05622 -19.54562,-19.53786 -19.03365,-12.43624 -20.47184,-8.59766 -22.07962,-10.35366 -9.41918,-3.44385 -14.4534,-7.91818 -14.88856,-10.42478 -12.27936,-9.99993 -11.16757,-13.16354 -6.95019,-11.31381 -3.33169,-18.996791 -2.93079,-16.132508 -3.05022,-19.382762 -3.70784,-15.126597 -2.06162,-5.945458 -3.56367,-4.468278 h -2.20755 l -4.3041,0.803412 z"
       id="path878" />
    <path
       style="fill:none;stroke:#000000;stroke-width:2.8;stroke-linecap:butt;stroke-linejoin:miter;stroke-miterlimit:4;stroke-dasharray:none;stroke-opacity:1"
       d="m 369.38724,67.008002 -1.95062,9.090999 -2.43521,12.148324 -1.44412,8.739478 -1.98495,9.982277 -4.14954,10.15944 -5.13915,8.71361 -8.73755,10.15695 -11.04369,11.62513 -12.88823,11.98375 -9.48493,9.97466 -10.17742,13.50734 -3.8059,7.22319 -5.61625,12.21171 -4.20302,12.11469 -4.22095,13.25166 -2.29063,6.18703 0.4162,-0.62824"
       id="path4306" />
    <path
       style="fill:none;stroke:#000000;stroke-width:2.8;stroke-linecap:butt;stroke-linejoin:miter;stroke-miterlimit:4;stroke-dasharray:none;stroke-opacity:1"
       d="m 376.07659,42.389598 0.27271,8.735086 -0.0941,7.405462 -1.36981,3.548006 0.39814,10.280182 -0.73107,8.460415 -1.21295,11.089645 -0.76255,9.961986 -2.10937,12.41625 -1.37621,7.42641 -4.15723,11.085 -5.02498,14.52002 -5.25177,11.28781 -6.42918,14.41537 -5.00671,13.00396 -3.1103,11.09113 -1.6351,8.59858 -1.19218,11.78041 -1.36084,12.57307 h -0.39996"
       id="path4308" />
    <path
       style="fill:none;stroke:#000000;stroke-width:2.8;stroke-linecap:butt;stroke-linejoin:miter;stroke-miterlimit:4;stroke-dasharray:none;stroke-opacity:1"
       d="m 381.74632,32.11656 -0.3394,12.137446 -0.12132,20.444475 -0.61318,18.551273 0.56186,31.041556 -2.24342,20.692 -0.23124,11.08312 -1.55586,16.98187 -0.11099,20.48024 -1.26124,20.45373 0.5643,19.91147 0.24573,6.17721 v 0"
       id="path4310" />
    <path
       style="fill:none;stroke:#000000;stroke-width:2.8;stroke-linecap:butt;stroke-linejoin:miter;stroke-miterlimit:4;stroke-dasharray:none;stroke-opacity:1"
       d="m 387.3182,46.067104 0.3835,12.274199 0.77227,15.705636 1.35729,12.042687 1.03765,10.075352 1.43993,12.478952 0.36947,6.63931 1.92674,12.64701 1.4121,8.35008 3.56593,10.63846 3.82896,12.31907 4.51157,13.37583 3.12152,11.15338 2.19831,11.23017 1.74079,12.41367 0.78054,11.09025 -0.47109,11.99324 -0.0134,-0.044"
       id="path4312" />
    <path
       style="fill:none;stroke:#000000;stroke-width:2.8;stroke-linecap:butt;stroke-linejoin:miter;stroke-miterlimit:4;stroke-dasharray:none;stroke-opacity:1"
       d="m 394.48674,84.14341 1.05795,7.12313 1.62923,6.968231 1.41802,7.922449 4.04155,13.15435 5.66814,12.38825 6.78672,13.10025 7.08,11.90693 9.66552,11.83993 7.48268,12.41363 6.00057,9.46442 5.22816,11.70261 4.33196,8.46083 3.06222,8.5859 2.22552,7.58448 1.01803,6.87541 v 0"
       id="path4314" />
    <path
       style="fill:none;stroke:#000000;stroke-width:2.8;stroke-linecap:butt;stroke-linejoin:miter;stroke-miterlimit:4;stroke-dasharray:none;stroke-opacity:1"
       d="m 403.91151,100.79843 3.65114,9.12968 3.28111,6.98622 3.44913,6.32368 4.6726,6.77038 5.32146,6.50154 5.86108,5.78466 7.17653,7.30361 5.97072,4.67285 9.22838,8.14322 6.45049,4.64926 8.94251,8.81257 c 0,0 5.34126,6.82196 6.03368,7.17984 0.69242,0.35787 8.29723,9.17016 8.29723,9.17016 l 7.64888,10.39963 5.2462,10.2137 3.46906,6.06346 2.2468,6.04578 c 0,0 2.80752,5.79278 2.94562,6.79247 0.13811,0.99969 1.08894,6.57395 1.08894,6.57395 l -0.0567,2.01447 v 0"
       id="path4316" />
    <path
       style="fill:none;stroke:#000000;stroke-width:2.8;stroke-linecap:butt;stroke-linejoin:miter;stroke-miterlimit:4;stroke-dasharray:none;stroke-opacity:1"
       d="m 455.91206,150.42539 9.48186,5.53992 5.74769,3.71418 9.41017,5.64147 7.34397,3.85933 8.86777,6.0339 7.52439,5.21767 6.38565,5.40854 6.65344,5.91393 6.1673,7.23483 4.46871,5.98417 5.31522,7.83929 4.24304,8.61183 4.05719,8.52228 3.52439,8.77096 1.34715,5.36498 0.61394,5.31186 v -0.058"
       id="path4318" />
    <path
       style="fill:none;stroke:#000000;stroke-width:2.8;stroke-linecap:butt;stroke-linejoin:miter;stroke-miterlimit:4;stroke-dasharray:none;stroke-opacity:1"
       d="m 343.26287,118.60166 -7.23481,8.63744 -6.88715,5.72087 -6.8734,5.14411 -7.63943,5.11093 -8.48274,5.68901 -10.07242,5.51125 -9.42581,5.70133 -8.78229,5.865 -5.5044,3.99914 -9.84559,7.61653 -10.24479,9.51678 -9.75214,11.5792 -5.75652,9.53005 -2.90908,8.28863 -2.8544,8.89057 -1.85132,6.47809 0.03,4.72208 v 0"
       id="path4320" />
    <path
       style="fill:none;stroke:#000000;stroke-width:2.8;stroke-linecap:butt;stroke-linejoin:miter;stroke-miterlimit:4;stroke-dasharray:none;stroke-opacity:1"
       d="m 248.75317,167.64895 -8.81689,5.47617 -9.3136,5.7355 -8.96025,5.93757 -6.61221,5.43268 -7.7336,7.20899 -7.38879,8.26012 -5.85014,7.48401 -4.42312,8.64906 -3.8666,8.3181 -1.79622,6.23001 -2.00818,7.18636 -0.18225,2.17658"
       id="path4322" />
    <path
       style="fill:#997766;fill-opacity:1;stroke:#000000;stroke-width:2.8;stroke-linecap:butt;stroke-linejoin:miter;stroke-miterlimit:4;stroke-dasharray:none;stroke-opacity:1"
       d="m 167.86652,249.77269 2.52099,6.14455 1.54791,0.97126 4.95982,2.69038 7.00808,2.80583 8.33463,3.25962 9.29509,2.3413 9.0301,2.66464 10.32557,1.86059 9.62687,1.99807 11.40647,2.55536 8.20475,1.33845 10.17837,1.93034 9.10988,0.94798 5.8023,0.23379 25.67421,0.30131 -0.17899,-7.14324 -1.73326,-4.41792 -1.14162,-5.11168 -1.07284,-4.02407 -0.60845,-2.43542 -0.6566,-2.17021 -0.72883,-3.62674 -1.97201,-7.62104 -0.52509,-4.30326 -0.16081,-2.40398 0.89252,-4.52659 -8.24308,0.55224 c -1.24865,0.0837 -13.12134,0.10914 -13.12134,0.10914 l -27.55065,1.51379 -14.91393,0.39549 -16.96988,2.023 -18.94002,4.80056 -11.46536,2.31787 z"
       id="path12319"
       sodipodi:nodetypes="cccccccccccccccccccccccccccsccccccc" />
    <path
       style="fill:none;stroke:#000000;stroke-width:2.8;stroke-linecap:butt;stroke-linejoin:miter;stroke-miterlimit:4;stroke-dasharray:none;stroke-opacity:1"
       d="m 244.09051,236.20718 -1.61957,8.87202 -1.25447,6.14799 -0.6361,5.84156 c 0,0 0.45238,6.08033 0.0928,7.14804 -0.35958,1.06771 -0.62818,7.54937 -0.62818,7.54937 l -0.6145,4.28671 h 0.0648"
       id="path12321" />
    <path
       style="fill:none;stroke:#000000;stroke-width:2.8;stroke-linecap:butt;stroke-linejoin:miter;stroke-miterlimit:4;stroke-dasharray:none;stroke-opacity:1"
       d="m 194.78354,243.42509 -0.79988,3.09303 -0.95584,3.30307 -0.69231,5.5482 -0.43736,2.88162 0.3398,7.39332 v 0"
       id="path12323" />
    <path
       style="fill:#997766;fill-opacity:1;stroke:#000000;stroke-width:2.8;stroke-linecap:butt;stroke-linejoin:miter;stroke-miterlimit:4;stroke-dasharray:none;stroke-opacity:1"
       d="m 480.25311,236.69581 v 0 l -5.44517,-0.73119 -6.71062,-0.88456 -17.81371,-1.80663 16.74304,0.96272 -1.63894,6.23252 -0.41924,5.16026 -1.32405,7.52384 -2.3761,9.95366 -1.08335,8.49354 -1.29646,13.44436 11.84751,-0.54157 14.00875,-1.31148 6.70409,-0.38817 12.24022,-0.63658 9.7539,-1.49739 12.42039,-1.91887 12.37082,-1.87828 10.82206,-2.35334 10.92772,-3.69971 8.71695,-4.20312 c 0,0 6.46426,-4.06925 6.86416,-4.23827 0.3999,-0.16902 4.33772,-4.43722 4.33772,-4.43722 l -13.87427,-3.99627 -21.68223,-4.6907 -6.34543,-2.46495 -11.77122,-2.06619 -24.62801,-5.13778 -13.47517,-2.14325 z"
       id="path12325"
       sodipodi:nodetypes="ccccccccccccccccccccccscccccccc" />
    <path
       style="fill:none;stroke:#000000;stroke-width:2.8;stroke-linecap:butt;stroke-linejoin:miter;stroke-miterlimit:4;stroke-dasharray:none;stroke-opacity:1"
       d="m 488.12647,237.44119 1.33472,6.67528 1.40569,5.724 0.9408,5.89892 1.49264,9.45013 0.47944,4.63442 0.68905,6.88989 0.21067,5.86142"
       id="path12327" />
    <path
       style="fill:none;stroke:#000000;stroke-width:2.8;stroke-linecap:butt;stroke-linejoin:miter;stroke-miterlimit:4;stroke-dasharray:none;stroke-opacity:1"
       d="m 526.0269,245.35393 1.77171,4.82156 c 0,0 1.45278,5.32238 1.87919,5.76409 0.42641,0.44171 1.50442,4.99964 1.50442,4.99964 l 0.73264,4.17267 c 0,0 0.81873,5.46095 0.81873,5.85533 0,0.39437 0.39473,4.72134 0.39473,4.72134 l 0.0972,2.21955 v 0"
       id="path12362" />
    <path
       style="fill:none;stroke:#000000;stroke-width:2.8;stroke-linecap:butt;stroke-linejoin:miter;stroke-miterlimit:4;stroke-dasharray:none;stroke-opacity:1"
       d="m 566.02853,253.94406 1.00582,2.681 1.06821,2.67191 0.50232,2.34339 0.20082,2.36567 -0.10478,2.60979 -0.0368,-5.54856"
       id="path12364" />
  </g>
  <path
     style="fill:none;stroke:#000000;stroke-width:1px;stroke-linecap:butt;stroke-linejoin:miter;stroke-opacity:1"
     d="m -1096.832,-773.5469 c 0,0 -1.0599,0.0111 0,0 z"
     id="path30337" />
</svg>
