<?xml version="1.0" encoding="UTF-8"?>
<svg xmlns="http://www.w3.org/2000/svg" xmlns:xlink="http://www.w3.org/1999/xlink" width="197px" height="209px" viewBox="0 0 197 209" version="1.1">
<g id="surface1">
<path style=" stroke:none;fill-rule:evenodd;fill:rgb(0%,0%,0%);fill-opacity:1;" d="M 122.054688 89.058594 L 121.832031 91.484375 C 122.082031 91.289062 122.40625 91.117188 122.808594 90.96875 C 124.058594 90.378906 125.0625 90.085938 125.8125 90.085938 L 128.367188 90.085938 L 128.367188 89.9375 L 127.464844 84.496094 L 126.941406 80.671875 C 126.589844 77.289062 126.039062 74.496094 125.285156 72.289062 L 125.738281 76.039062 L 125.363281 80.230469 L 125.0625 81.335938 L 124.609375 81.480469 C 124.308594 81.480469 124.160156 81.261719 124.160156 80.820312 L 124.308594 80.085938 L 124.835938 75.964844 C 124.285156 74.152344 124.007812 72.609375 124.007812 71.332031 L 124.609375 71.1875 C 124.710938 71.1875 124.8125 71.261719 124.910156 71.40625 L 124.386719 70.230469 C 119.875 61.210938 113.339844 54.761719 104.773438 50.890625 L 92.300781 49.933594 C 86.339844 49.933594 79.300781 52.285156 71.1875 56.992188 C 65.125 60.472656 60.816406 63.683594 58.261719 66.628906 L 57.363281 67.730469 L 57.4375 67.804688 L 56.609375 69.863281 L 55.785156 71.554688 C 54.582031 74.203125 53.855469 76.628906 53.605469 78.835938 L 53.605469 80.304688 L 53.832031 87.070312 L 53.90625 87.511719 L 54.957031 91.777344 L 55.707031 94.941406 L 56.085938 96.484375 L 56.085938 97.441406 L 55.707031 97.585938 L 55.183594 97.585938 L 54.65625 94.941406 L 54.054688 91.777344 L 53.980469 91.628906 L 53.980469 91.851562 L 54.054688 94.941406 L 54.054688 95.824219 L 53.980469 98.765625 L 53.378906 111.78125 C 53.378906 114.476562 53.605469 117.050781 54.054688 119.503906 L 54.132812 119.503906 C 55.535156 114.84375 56.210938 111.242188 56.160156 108.691406 L 55.859375 107.589844 L 55.859375 100.085938 L 56.308594 99.867188 C 57.011719 102.023438 57.410156 105.382812 57.511719 109.941406 C 57.761719 115.578125 58.488281 118.816406 59.691406 119.648438 C 59.691406 119.011719 59.765625 118.546875 59.917969 118.25 L 60.367188 118.621094 L 60.519531 118.546875 L 61.117188 120.3125 L 61.269531 120.3125 L 61.496094 112.589844 L 62.019531 112.367188 L 63.074219 115.75 L 63.148438 115.75 C 62.746094 111.976562 63.324219 107.050781 64.875 100.96875 L 65.101562 100.015625 L 65.175781 99.5 L 65.402344 98.46875 L 65.476562 98.027344 L 65.628906 96.925781 L 65.777344 95.96875 L 66.003906 94.941406 L 66.003906 94.792969 L 66.828125 90.894531 L 67.28125 89.277344 L 67.503906 88.6875 L 67.882812 87.585938 L 67.882812 87.511719 L 68.03125 87.292969 L 69.535156 85.453125 L 69.609375 85.234375 L 69.535156 85.085938 C 69.886719 84.792969 70.261719 84.621094 70.660156 84.570312 L 70.960938 84.570312 L 71.1875 84.644531 L 71.335938 84.71875 L 71.414062 84.792969 L 71.414062 85.234375 L 70.960938 88.761719 L 70.058594 90.453125 L 70.136719 90.820312 L 70.660156 90.96875 L 70.210938 93.542969 L 70.511719 93.027344 L 72.3125 90.820312 L 72.464844 90.527344 L 73.214844 89.425781 L 75.246094 86.925781 L 75.246094 86.851562 C 75.246094 86.410156 75.996094 85.746094 77.5 84.863281 L 77.800781 84.71875 L 78.324219 84.421875 L 79.378906 84.644531 L 79.527344 84.203125 L 79.300781 83.980469 L 80.429688 83.6875 L 81.105469 83.761719 L 81.554688 83.761719 L 81.855469 83.910156 L 83.433594 86.484375 L 83.285156 87.363281 L 83.433594 88.542969 L 83.660156 89.9375 L 84.035156 93.394531 L 84.109375 94.132812 L 84.109375 94.277344 L 84.1875 93.835938 L 84.335938 93.320312 L 84.335938 93.027344 L 84.9375 90.527344 L 85.839844 86.925781 L 87.34375 84.277344 L 87.417969 83.761719 L 94.328125 83.6875 L 94.78125 83.6875 L 94.78125 83.835938 L 95.230469 84.644531 L 95.832031 87.660156 L 96.058594 89.058594 L 96.433594 91.777344 L 96.433594 93.027344 L 96.582031 91.410156 L 96.734375 88.617188 L 96.808594 86.484375 L 97.109375 86.554688 C 97.460938 86.554688 97.609375 86.484375 97.5625 86.335938 L 97.5625 84.203125 L 97.9375 83.6875 L 99.890625 83.6875 L 102.972656 83.910156 L 103.121094 83.910156 L 103.871094 84.71875 L 104.023438 84.644531 L 106.503906 90.675781 L 107.402344 94.867188 L 107.480469 95.382812 L 108.082031 89.867188 L 108.605469 84.792969 L 108.757812 84.792969 L 109.058594 84.570312 L 109.957031 86.042969 L 110.636719 87.878906 L 111.535156 87.734375 L 112.0625 87.878906 L 113.039062 96.042969 L 113.191406 97.585938 L 114.542969 110.164062 L 114.542969 110.382812 L 114.617188 110.164062 L 114.917969 107.957031 L 115.367188 107.734375 C 115.769531 107.734375 116.144531 108.398438 116.496094 109.722656 L 116.496094 109.792969 L 117.023438 112.808594 L 116.945312 113.546875 L 117.171875 113.617188 L 117.171875 113.691406 L 117.246094 113.617188 L 117.472656 113.691406 L 118.074219 113.472656 L 118.074219 112.441406 L 117.847656 111.558594 C 119.050781 107.539062 119.652344 103.910156 119.652344 100.675781 L 120.175781 93.835938 L 120.402344 92.21875 L 120.929688 89.351562 L 121.152344 88.027344 L 121.980469 88.984375 L 122.054688 89.058594 M 103.496094 49.710938 L 104.25 49.566406 C 107.503906 49.566406 111.5625 52.3125 116.421875 57.800781 C 120.027344 61.871094 122.757812 65.648438 124.609375 69.128906 C 126.863281 73.539062 128.367188 80.402344 129.117188 89.71875 L 129.117188 90.453125 L 129.570312 90.96875 L 129.644531 91.484375 L 128.816406 91.628906 L 125.285156 90.96875 L 121.605469 93.320312 L 120.554688 104.425781 L 120.554688 108.398438 C 120.554688 109.574219 120.804688 110.847656 121.304688 112.222656 C 121.304688 113.546875 121.054688 114.207031 120.554688 114.207031 L 120.101562 114.132812 L 119.425781 110.605469 C 118.523438 113.9375 118 116.242188 117.847656 117.515625 L 117.320312 117.664062 C 116.921875 117.664062 116.421875 115.113281 115.820312 110.015625 L 115.59375 109.941406 L 115.21875 113.914062 L 114.765625 113.988281 C 113.964844 113.988281 113.265625 110.773438 112.664062 104.351562 L 112.136719 98.101562 L 109.882812 98.984375 L 108.53125 99.425781 L 107.929688 104.941406 L 107.480469 105.089844 L 106.804688 104.941406 L 106.578125 100.085938 L 105.902344 100.234375 L 102.070312 100.898438 L 100.414062 101.117188 L 80.277344 101.191406 L 65.925781 100.96875 L 65.550781 102.734375 L 64.199219 120.824219 C 64.25 120.972656 64.097656 121.046875 63.75 121.046875 L 63.296875 120.972656 L 62.621094 118.105469 L 62.472656 118.105469 L 61.796875 123.621094 L 61.269531 123.839844 C 60.667969 123.839844 60.34375 123.398438 60.292969 122.515625 L 60.21875 120.753906 L 60.140625 120.605469 L 59.242188 122.371094 C 58.4375 120.457031 57.789062 117.980469 57.285156 114.941406 L 56.761719 111.925781 L 54.28125 122.296875 L 53.832031 122.371094 C 52.929688 120.214844 52.476562 116.683594 52.476562 111.78125 L 52.929688 97.660156 L 52.929688 96.191406 L 52.855469 95.382812 L 52.855469 94.941406 L 52.628906 88.320312 L 52.628906 85.671875 L 52.476562 83.6875 L 52.476562 81.480469 L 52.628906 81.1875 C 52.878906 76.480469 53.730469 72.707031 55.183594 69.863281 C 55.582031 69.078125 56.035156 68.367188 56.535156 67.730469 L 56.535156 67.582031 C 56.535156 67.289062 56.609375 66.96875 56.761719 66.628906 C 57.710938 64.421875 61.820312 61.160156 69.082031 56.847656 C 78.101562 51.550781 85.8125 48.902344 92.226562 48.902344 L 103.496094 49.710938 M 100.492188 85.527344 L 100.492188 85.746094 L 101.542969 85.746094 L 102.371094 85.011719 L 100.714844 84.71875 L 100.492188 85.527344 M 97.859375 88.394531 L 97.035156 98.324219 L 101.09375 98.25 L 106.125 96.042969 L 106.351562 94.941406 L 104.925781 90.453125 C 104.675781 91.238281 104.074219 91.628906 103.121094 91.628906 C 102.070312 91.628906 101.542969 91.089844 101.542969 90.011719 C 101.542969 88.738281 102.21875 88.101562 103.570312 88.101562 L 104.25 88.175781 L 103.570312 85.671875 L 103.269531 85.671875 L 103.269531 85.527344 C 103.019531 86.410156 102.269531 86.851562 101.015625 86.851562 C 100.164062 86.851562 99.664062 86.628906 99.515625 86.1875 L 99.515625 85.453125 L 99.664062 84.71875 L 98.011719 84.644531 L 97.9375 84.644531 L 97.859375 86.554688 L 97.859375 88.394531 M 93.429688 84.644531 L 87.417969 84.863281 L 85.3125 94.644531 L 84.710938 97.441406 L 84.410156 97.585938 C 84.011719 97.585938 83.660156 97.144531 83.359375 96.261719 L 81.332031 96.632812 C 79.976562 96.632812 78.875 96.363281 78.023438 95.824219 L 76.445312 96.632812 C 75.894531 96.925781 75.320312 97.195312 74.71875 97.441406 L 74.269531 97 L 76.144531 93.394531 L 75.847656 90.96875 C 75.847656 87.636719 77.523438 85.96875 80.878906 85.96875 L 82.082031 86.042969 L 81.554688 85.453125 L 79.453125 85.894531 C 75.144531 87.363281 71.789062 91.359375 69.382812 97.882812 L 68.933594 98.101562 C 68.632812 97.855469 68.480469 97.539062 68.480469 97.144531 L 68.707031 96.117188 L 69.234375 92.21875 L 69.460938 90.160156 L 69.609375 89.277344 L 69.234375 90.234375 L 68.859375 90.96875 L 67.804688 93.320312 L 67.582031 93.835938 L 67.054688 95.96875 L 67.128906 96.632812 C 67.128906 97.21875 66.953125 97.636719 66.605469 97.882812 L 66.453125 98.46875 L 88.46875 98.324219 L 88.46875 98.542969 L 89.070312 98.691406 L 89.597656 98.324219 L 92.75 98.324219 L 93.203125 98.910156 L 93.953125 98.324219 L 95.984375 98.324219 L 95.382812 93.761719 L 94.929688 89.792969 L 94.480469 84.644531 L 93.429688 84.644531 M 102.671875 89.867188 L 102.671875 90.308594 L 103.195312 90.527344 L 104.023438 90.527344 L 104.023438 89.277344 L 103.347656 89.277344 L 102.671875 89.867188 M 103.871094 93.617188 L 102.972656 94.132812 L 103.195312 94.71875 L 104.25 94.941406 L 104.25 93.691406 L 103.871094 93.617188 M 105.226562 94.351562 C 105.226562 95.480469 104.699219 96.042969 103.648438 96.042969 C 102.996094 96.042969 102.519531 95.75 102.21875 95.160156 L 101.992188 94.277344 C 101.992188 93.25 102.621094 92.734375 103.871094 92.734375 C 104.773438 92.734375 105.226562 93.273438 105.226562 94.351562 M 110.484375 88.617188 L 109.359375 89.128906 L 108.605469 98.175781 L 111.988281 96.558594 L 111.160156 89.058594 L 110.484375 88.617188 M 80.878906 93.910156 L 80.203125 93.910156 C 78.5 93.910156 77.648438 92.878906 77.648438 90.820312 C 77.648438 90.332031 77.824219 89.839844 78.175781 89.351562 C 78.777344 88.417969 79.726562 87.953125 81.03125 87.953125 L 82.308594 88.101562 L 82.234375 86.925781 L 82.234375 86.777344 L 80.878906 86.703125 L 79.679688 86.777344 C 78.226562 87.023438 77.273438 87.683594 76.824219 88.761719 C 76.671875 89.007812 76.597656 89.71875 76.597656 90.894531 C 76.597656 91.972656 76.746094 92.90625 77.046875 93.691406 C 77.199219 94.082031 77.722656 94.570312 78.625 95.160156 L 80.203125 95.894531 L 83.132812 95.308594 L 82.832031 93.835938 L 82.53125 90.601562 L 82.382812 88.984375 L 81.179688 88.761719 C 80.230469 88.761719 79.476562 89.105469 78.925781 89.792969 L 78.402344 90.820312 C 78.402344 91.753906 78.800781 92.539062 79.601562 93.175781 C 80.90625 93.175781 81.480469 92.855469 81.332031 92.21875 C 80.480469 91.730469 80.054688 91.335938 80.054688 91.042969 L 80.429688 90.75 C 81.230469 90.75 81.757812 90.992188 82.007812 91.484375 L 82.082031 92.292969 C 82.183594 93.175781 81.78125 93.714844 80.878906 93.910156 M 75.46875 96.191406 L 77.5 95.453125 L 76.523438 94.277344 L 75.46875 96.117188 L 75.46875 96.191406 M 66.152344 100.015625 L 80.355469 100.085938 L 105.527344 99.277344 L 106.503906 98.984375 L 106.503906 97.882812 L 106.351562 97.882812 L 105.902344 97.367188 L 104.25 98.027344 L 102.292969 98.765625 L 101.394531 99.351562 L 96.960938 99.425781 L 96.882812 99.792969 L 96.433594 99.867188 L 96.207031 99.425781 L 82.984375 99.574219 L 66.226562 99.5 L 66.152344 100.015625 M 129.796875 104.425781 L 129.871094 104.867188 L 129.871094 106.632812 L 129.570312 106.851562 L 129.644531 108.765625 C 128.894531 116.804688 128.09375 120.824219 127.242188 120.824219 C 126.839844 120.824219 126.464844 120.261719 126.113281 119.132812 L 125.511719 117.222656 L 125.363281 117.222656 L 124.910156 119.503906 L 124.460938 119.871094 L 123.558594 118.839844 L 122.207031 122.8125 C 121.40625 124.820312 120.578125 125.828125 119.726562 125.828125 C 119.125 125.828125 118.824219 125.386719 118.824219 124.503906 L 118.75 124.503906 C 118.550781 126.167969 117.949219 127.003906 116.945312 127.003906 C 116.394531 127.003906 116.042969 126.292969 115.894531 124.871094 L 115.667969 125.164062 L 115.667969 125.089844 L 115.445312 124.648438 L 115.519531 124.648438 L 115.445312 124.355469 L 115.667969 124.355469 L 115.894531 124.0625 L 115.820312 123.179688 L 116.269531 122.957031 L 116.570312 123.03125 L 128.742188 104.941406 L 128.667969 104.425781 L 129.796875 104.425781 M 127.390625 110.234375 L 123.484375 115.238281 L 119.277344 121.195312 L 119.199219 121.195312 C 118.851562 121.292969 118.425781 121.632812 117.921875 122.222656 L 116.945312 123.398438 L 117.171875 125.164062 L 117.546875 123.472656 L 118 122.445312 C 118.148438 122.199219 118.347656 122.074219 118.597656 122.074219 C 118.949219 122.074219 119.375 122.8125 119.875 124.28125 C 120.429688 123.9375 121.105469 122.6875 121.90625 120.53125 L 122.355469 118.472656 C 122.605469 117.589844 123.28125 117.246094 124.386719 117.441406 L 124.835938 114.796875 L 125.136719 114.574219 C 125.835938 114.574219 126.515625 116.046875 127.164062 118.988281 L 128.292969 112.441406 L 128.59375 107.734375 L 127.390625 110.234375 "/>
<path style=" stroke:none;fill-rule:evenodd;fill:rgb(20%,17.647059%,17.647059%);fill-opacity:1;" d="M 59.917969 118.25 C 59.765625 118.546875 59.691406 119.011719 59.691406 119.648438 C 58.488281 118.816406 57.761719 115.578125 57.511719 109.941406 C 57.410156 105.382812 57.011719 102.023438 56.308594 99.867188 L 55.859375 100.085938 L 55.859375 107.589844 L 56.160156 108.691406 C 56.210938 111.242188 55.535156 114.84375 54.132812 119.503906 L 54.054688 119.503906 C 53.605469 117.050781 53.378906 114.476562 53.378906 111.78125 L 53.980469 98.765625 L 54.054688 95.824219 L 54.054688 94.941406 L 53.980469 91.851562 L 53.980469 91.628906 L 54.054688 91.777344 L 54.65625 94.941406 L 55.183594 97.585938 L 55.707031 97.585938 L 56.085938 97.441406 L 56.085938 96.484375 L 55.707031 94.941406 L 54.957031 91.777344 L 53.90625 87.511719 L 53.832031 87.070312 L 53.605469 80.304688 L 53.605469 78.835938 C 53.855469 76.628906 54.582031 74.203125 55.785156 71.554688 L 56.609375 69.863281 L 57.4375 67.804688 L 57.363281 67.730469 L 58.261719 66.628906 C 60.816406 63.683594 65.125 60.472656 71.1875 56.992188 C 79.300781 52.285156 86.339844 49.933594 92.300781 49.933594 L 104.773438 50.890625 C 113.339844 54.761719 119.875 61.210938 124.386719 70.230469 L 124.910156 71.40625 C 124.8125 71.261719 124.710938 71.1875 124.609375 71.1875 L 124.007812 71.332031 C 124.007812 72.609375 124.285156 74.152344 124.835938 75.964844 L 124.308594 80.085938 L 124.160156 80.820312 C 124.160156 81.261719 124.308594 81.480469 124.609375 81.480469 L 125.0625 81.335938 L 125.363281 80.230469 L 125.738281 76.039062 L 125.285156 72.289062 C 126.039062 74.496094 126.589844 77.289062 126.941406 80.671875 L 127.464844 84.496094 L 128.367188 89.9375 L 128.367188 90.085938 L 125.8125 90.085938 C 125.0625 90.085938 124.058594 90.378906 122.808594 90.96875 C 122.40625 91.117188 122.082031 91.289062 121.832031 91.484375 L 122.054688 89.058594 L 122.355469 89.425781 C 122.757812 89.425781 122.90625 89.351562 122.808594 89.203125 L 122.882812 88.761719 L 122.132812 87.734375 L 121.753906 87.292969 L 121.679688 87.21875 L 120.855469 86.113281 L 120.628906 86.113281 L 120.402344 86.628906 L 119.953125 87.878906 L 119.5 89.71875 L 118.75 93.101562 L 118.449219 94.644531 L 118.148438 95.96875 C 117.046875 101.65625 116.496094 105.382812 116.496094 107.148438 L 116.796875 108.984375 L 116.496094 109.722656 C 116.144531 108.398438 115.769531 107.734375 115.367188 107.734375 L 114.917969 107.957031 L 114.617188 110.164062 L 114.542969 110.164062 L 113.191406 97.585938 L 113.039062 96.042969 L 112.0625 87.878906 L 111.535156 87.734375 L 110.636719 87.878906 L 109.957031 86.042969 L 109.058594 84.570312 L 108.757812 84.792969 L 108.605469 84.792969 L 108.082031 89.867188 L 107.480469 95.382812 L 107.402344 94.867188 L 106.503906 90.675781 L 104.023438 84.644531 L 103.949219 84.570312 L 103.871094 84.71875 L 103.121094 83.910156 L 102.972656 83.910156 L 99.890625 83.6875 L 97.9375 83.6875 L 97.5625 84.203125 L 97.5625 86.335938 C 97.609375 86.484375 97.460938 86.554688 97.109375 86.554688 L 96.808594 86.484375 L 96.734375 88.617188 L 96.582031 91.410156 L 96.433594 93.027344 L 96.433594 91.777344 L 96.058594 89.058594 L 95.832031 87.660156 L 95.230469 84.644531 L 94.78125 83.835938 L 94.78125 83.6875 L 94.328125 83.6875 L 87.417969 83.761719 L 87.34375 84.277344 L 85.839844 86.925781 L 84.9375 90.527344 L 84.335938 93.027344 L 84.335938 93.320312 L 84.1875 93.835938 L 84.109375 94.277344 L 84.109375 94.132812 L 84.035156 93.394531 L 83.660156 89.9375 L 83.433594 88.542969 L 83.285156 87.363281 L 83.433594 86.484375 L 81.855469 83.910156 L 81.554688 83.761719 L 81.105469 83.761719 L 80.429688 83.6875 L 79.300781 83.980469 L 77.046875 83.6875 C 76.246094 83.6875 75.421875 84.03125 74.570312 84.71875 L 74.417969 84.863281 L 72.3125 86.996094 L 70.960938 88.761719 L 71.414062 85.234375 L 71.414062 84.792969 L 71.335938 84.71875 L 71.1875 84.644531 L 70.960938 84.570312 L 70.660156 84.570312 C 70.261719 84.621094 69.886719 84.792969 69.535156 85.085938 L 69.460938 85.011719 C 69.410156 84.863281 69.234375 84.792969 68.933594 84.792969 L 68.03125 85.453125 L 67.28125 86.554688 L 67.203125 86.777344 L 66.980469 87.144531 L 66.828125 87.511719 L 66.453125 88.394531 L 65.851562 90.085938 L 64.800781 93.617188 L 64.425781 94.941406 L 64.425781 95.085938 L 64.125 96.117188 L 63.523438 98.46875 L 63.296875 99.425781 L 63.148438 100.015625 L 62.996094 100.75 L 62.996094 100.96875 C 61.746094 106.167969 60.644531 111.484375 59.691406 116.929688 C 59.691406 117.515625 59.765625 117.957031 59.917969 118.25 M 108.832031 77.144531 L 108.378906 77.289062 L 108.378906 78.613281 L 109.28125 79.863281 L 110.636719 83.101562 L 113.265625 87.070312 L 113.867188 88.175781 L 114.46875 88.101562 L 114.46875 85.527344 L 114.089844 79.9375 L 113.640625 79.054688 L 113.113281 79.277344 L 113.113281 79.570312 C 112.714844 78.050781 112.261719 77.289062 111.761719 77.289062 L 111.160156 77.511719 L 111.160156 79.277344 C 110.558594 77.855469 109.785156 77.144531 108.832031 77.144531 M 113.566406 85.894531 L 113.414062 85.671875 L 113.566406 85.671875 L 113.566406 85.894531 M 112.210938 80.160156 L 112.210938 80.011719 L 112.289062 80.160156 L 112.210938 80.160156 M 119.726562 76.1875 L 119.199219 76.40625 L 119.050781 81.410156 L 120.175781 85.453125 L 120.855469 85.527344 C 121.40625 85.527344 121.679688 84.765625 121.679688 83.246094 L 121.90625 83.246094 L 123.109375 85.011719 C 123.507812 85.011719 123.632812 84.964844 123.484375 84.863281 L 123.558594 82.953125 L 123.183594 80.011719 L 121.453125 75.820312 L 121.003906 77.144531 C 120.554688 76.507812 120.128906 76.1875 119.726562 76.1875 M 121.152344 88.027344 L 121.003906 87.953125 L 121.003906 87.878906 L 121.152344 88.027344 M 64.273438 78.171875 L 63.75 78.171875 L 62.019531 80.820312 L 60.367188 83.171875 C 59.214844 84.890625 58.613281 86.335938 58.5625 87.511719 L 58.5625 87.734375 C 58.5625 88.566406 58.714844 89.128906 59.015625 89.425781 L 59.464844 89.203125 C 59.464844 88.714844 59.539062 88.417969 59.691406 88.320312 L 59.691406 89.867188 L 60.441406 89.9375 L 61.042969 89.867188 C 61.144531 89.082031 61.417969 88.296875 61.871094 87.511719 L 62.921875 85.894531 L 64.425781 84.054688 L 63.824219 83.46875 L 63.824219 82.21875 L 64.574219 80.96875 L 64.875 79.203125 C 65.027344 78.515625 64.824219 78.171875 64.273438 78.171875 M 67.882812 87.585938 L 67.804688 87.585938 L 67.882812 87.511719 L 67.882812 87.585938 "/>
<path style=" stroke:none;fill-rule:evenodd;fill:rgb(33.725491%,29.803923%,29.411766%);fill-opacity:1;" d="M 108.832031 77.144531 C 109.785156 77.144531 110.558594 77.855469 111.160156 79.277344 L 111.160156 77.511719 L 111.761719 77.289062 C 112.261719 77.289062 112.714844 78.050781 113.113281 79.570312 L 113.113281 79.277344 L 113.640625 79.054688 L 114.089844 79.9375 L 114.46875 85.527344 L 114.46875 88.101562 L 113.867188 88.175781 L 113.265625 87.070312 L 110.636719 83.101562 L 109.28125 79.863281 L 108.378906 78.613281 L 108.378906 77.289062 L 108.832031 77.144531 M 112.210938 80.160156 L 112.289062 80.160156 L 112.210938 80.011719 L 112.210938 80.160156 M 113.566406 85.894531 L 113.566406 85.671875 L 113.414062 85.671875 L 113.566406 85.894531 M 119.726562 76.1875 C 120.128906 76.1875 120.554688 76.507812 121.003906 77.144531 L 121.453125 75.820312 L 123.183594 80.011719 L 123.558594 82.953125 L 123.484375 84.863281 C 123.632812 84.964844 123.507812 85.011719 123.109375 85.011719 L 121.90625 83.246094 L 121.679688 83.246094 C 121.679688 84.765625 121.40625 85.527344 120.855469 85.527344 L 120.175781 85.453125 L 119.050781 81.410156 L 119.199219 76.40625 L 119.726562 76.1875 M 64.273438 78.171875 C 64.824219 78.171875 65.027344 78.515625 64.875 79.203125 L 64.574219 80.96875 L 63.824219 82.21875 L 63.824219 83.46875 L 64.425781 84.054688 L 62.921875 85.894531 L 61.871094 87.511719 C 61.417969 88.296875 61.144531 89.082031 61.042969 89.867188 L 60.441406 89.9375 L 59.691406 89.867188 L 59.691406 88.320312 C 59.539062 88.417969 59.464844 88.714844 59.464844 89.203125 L 59.015625 89.425781 C 58.714844 89.128906 58.5625 88.566406 58.5625 87.734375 L 58.5625 87.511719 C 58.613281 86.335938 59.214844 84.890625 60.367188 83.171875 L 62.019531 80.820312 L 63.75 78.171875 L 64.273438 78.171875 "/>
<path style=" stroke:none;fill-rule:evenodd;fill:rgb(10.588235%,9.803922%,10.980392%);fill-opacity:1;" d="M 59.917969 118.25 C 59.765625 117.957031 59.691406 117.515625 59.691406 116.929688 C 60.644531 111.484375 61.746094 106.167969 62.996094 100.96875 L 62.996094 100.75 L 63.148438 100.015625 L 63.296875 99.425781 L 63.523438 98.46875 L 64.125 96.117188 L 64.425781 95.085938 L 64.425781 94.941406 L 64.800781 93.617188 L 65.851562 90.085938 L 66.453125 88.394531 L 66.828125 87.511719 L 66.980469 87.144531 L 67.203125 86.777344 L 67.28125 86.554688 L 68.03125 85.453125 L 68.933594 84.792969 C 69.234375 84.792969 69.410156 84.863281 69.460938 85.011719 L 69.535156 85.085938 L 69.609375 85.234375 L 69.535156 85.453125 L 68.03125 87.292969 L 67.882812 87.511719 L 67.804688 87.585938 L 67.882812 87.585938 L 67.503906 88.6875 L 67.28125 89.277344 L 66.828125 90.894531 L 66.003906 94.792969 L 66.003906 94.941406 L 65.777344 95.96875 L 65.628906 96.925781 L 65.476562 98.027344 L 65.402344 98.46875 L 65.175781 99.5 L 65.101562 100.015625 L 64.875 100.96875 C 63.324219 107.050781 62.746094 111.976562 63.148438 115.75 L 63.074219 115.75 L 62.019531 112.367188 L 61.496094 112.589844 L 61.269531 120.3125 L 61.117188 120.3125 L 60.519531 118.546875 L 60.367188 118.621094 L 59.917969 118.25 M 70.960938 88.761719 L 72.3125 86.996094 L 74.417969 84.863281 L 74.570312 84.71875 C 75.421875 84.03125 76.246094 83.6875 77.046875 83.6875 L 79.300781 83.980469 L 79.527344 84.203125 L 79.378906 84.644531 L 78.324219 84.421875 L 77.800781 84.71875 L 77.5 84.863281 C 75.996094 85.746094 75.246094 86.410156 75.246094 86.851562 L 75.246094 86.925781 L 73.214844 89.425781 L 72.464844 90.527344 L 72.3125 90.820312 L 70.511719 93.027344 L 70.210938 93.542969 L 70.660156 90.96875 L 70.136719 90.820312 L 70.058594 90.453125 L 70.960938 88.761719 M 103.871094 84.71875 L 103.949219 84.570312 L 104.023438 84.644531 L 103.871094 84.71875 M 116.496094 109.722656 L 116.796875 108.984375 L 116.496094 107.148438 C 116.496094 105.382812 117.046875 101.65625 118.148438 95.96875 L 118.449219 94.644531 L 118.75 93.101562 L 119.5 89.71875 L 119.953125 87.878906 L 120.402344 86.628906 L 120.628906 86.113281 L 120.855469 86.113281 L 121.679688 87.21875 L 121.753906 87.292969 L 122.132812 87.734375 L 122.882812 88.761719 L 122.808594 89.203125 C 122.90625 89.351562 122.757812 89.425781 122.355469 89.425781 L 122.054688 89.058594 L 121.980469 88.984375 L 121.152344 88.027344 L 120.929688 89.351562 L 120.402344 92.21875 L 120.175781 93.835938 L 119.652344 100.675781 C 119.652344 103.910156 119.050781 107.539062 117.847656 111.558594 L 118.074219 112.441406 L 118.074219 113.472656 L 117.472656 113.691406 L 117.246094 113.617188 L 117.171875 113.617188 L 116.945312 113.546875 L 117.023438 112.808594 L 116.496094 109.792969 L 116.496094 109.722656 M 121.152344 88.027344 L 121.003906 87.878906 L 121.003906 87.953125 L 121.152344 88.027344 M 127.390625 110.234375 L 128.59375 107.734375 L 128.292969 112.441406 L 127.164062 118.988281 C 126.515625 116.046875 125.835938 114.574219 125.136719 114.574219 L 124.835938 114.796875 L 124.386719 117.441406 C 123.28125 117.246094 122.605469 117.589844 122.355469 118.472656 L 121.90625 120.53125 C 121.105469 122.6875 120.429688 123.9375 119.875 124.28125 C 119.375 122.8125 118.949219 122.074219 118.597656 122.074219 C 118.347656 122.074219 118.148438 122.199219 118 122.445312 L 117.546875 123.472656 L 117.171875 125.164062 L 116.945312 123.398438 L 117.921875 122.222656 C 118.425781 121.632812 118.851562 121.292969 119.199219 121.195312 L 119.277344 121.195312 L 123.484375 115.238281 L 127.390625 110.234375 "/>
<path style=" stroke:none;fill-rule:evenodd;fill:rgb(20%,20%,20%);fill-opacity:1;" d="M 97.859375 87.804688 L 97.859375 86.554688 L 97.9375 84.644531 L 98.011719 84.644531 L 99.664062 84.71875 L 99.515625 85.453125 L 99.515625 86.1875 C 99.664062 86.628906 100.164062 86.851562 101.015625 86.851562 C 102.269531 86.851562 103.019531 86.410156 103.269531 85.527344 L 103.269531 85.671875 L 103.570312 85.671875 L 104.25 88.175781 L 103.570312 88.101562 C 102.21875 88.101562 101.542969 88.738281 101.542969 90.011719 C 101.542969 91.089844 102.070312 91.628906 103.121094 91.628906 C 104.074219 91.628906 104.675781 91.238281 104.925781 90.453125 L 106.351562 94.941406 L 106.125 96.042969 L 101.09375 98.25 L 97.035156 98.324219 L 97.859375 88.394531 L 97.9375 87.878906 L 97.9375 87.734375 L 97.859375 87.804688 M 100.492188 85.527344 L 100.714844 84.71875 L 102.371094 85.011719 L 101.542969 85.746094 L 100.492188 85.746094 L 100.492188 85.527344 M 94.929688 89.792969 L 90.347656 92.070312 C 89.996094 91.972656 89.820312 91.605469 89.820312 90.96875 C 89.820312 90.578125 90.496094 89.253906 91.851562 86.996094 L 93.429688 84.644531 L 94.480469 84.644531 L 94.929688 89.792969 M 92.75 98.324219 L 92.75 98.25 L 95.382812 93.761719 L 95.984375 98.324219 L 93.953125 98.324219 L 93.203125 98.910156 L 92.75 98.324219 M 91.472656 90.527344 L 91.398438 90.378906 L 91.398438 90.527344 L 91.472656 90.527344 M 105.226562 94.351562 C 105.226562 93.273438 104.773438 92.734375 103.871094 92.734375 C 102.621094 92.734375 101.992188 93.25 101.992188 94.277344 L 102.21875 95.160156 C 102.519531 95.75 102.996094 96.042969 103.648438 96.042969 C 104.699219 96.042969 105.226562 95.480469 105.226562 94.351562 M 103.871094 93.617188 L 104.25 93.691406 L 104.25 94.941406 L 103.195312 94.71875 L 102.972656 94.132812 L 103.871094 93.617188 M 102.671875 89.867188 L 103.347656 89.277344 L 104.023438 89.277344 L 104.023438 90.527344 L 103.195312 90.527344 L 102.671875 90.308594 L 102.671875 89.867188 M 110.484375 88.617188 L 111.160156 89.058594 L 111.988281 96.558594 L 108.605469 98.175781 L 109.359375 89.128906 L 110.484375 88.617188 M 66.152344 100.015625 L 66.226562 99.5 L 82.984375 99.574219 L 96.207031 99.425781 L 96.433594 99.867188 L 96.882812 99.792969 L 96.960938 99.425781 L 101.394531 99.351562 L 102.292969 98.765625 L 104.25 98.027344 L 105.902344 97.367188 L 106.351562 97.882812 L 106.503906 97.882812 L 106.503906 98.984375 L 105.527344 99.277344 L 80.355469 100.085938 L 66.152344 100.015625 "/>
<path style=" stroke:none;fill-rule:evenodd;fill:rgb(40.000001%,40.000001%,40.000001%);fill-opacity:1;" d="M 97.859375 87.804688 L 97.9375 87.734375 L 97.9375 87.878906 L 97.859375 88.394531 L 97.859375 87.804688 M 93.429688 84.644531 L 91.851562 86.996094 C 90.496094 89.253906 89.820312 90.578125 89.820312 90.96875 C 89.820312 91.605469 89.996094 91.972656 90.347656 92.070312 L 94.929688 89.792969 L 95.382812 93.761719 L 92.75 98.25 L 92.75 98.324219 L 89.597656 98.324219 L 89.070312 98.691406 L 88.46875 98.542969 L 88.46875 98.101562 L 89.597656 96.484375 L 89.671875 96.261719 L 88.09375 96.042969 L 88.09375 95.382812 C 87.792969 94.449219 87.265625 94.351562 86.515625 95.085938 C 85.863281 95.722656 85.464844 95.625 85.3125 94.792969 L 85.3125 94.644531 L 87.417969 84.863281 L 93.429688 84.644531 M 91.472656 90.527344 L 91.398438 90.527344 L 91.398438 90.378906 L 91.472656 90.527344 M 82.832031 93.835938 L 81.480469 94.277344 L 81.03125 94.132812 L 80.878906 93.910156 C 81.78125 93.714844 82.183594 93.175781 82.082031 92.292969 L 82.007812 91.484375 L 82.53125 90.601562 L 82.832031 93.835938 "/>
<path style=" stroke:none;fill-rule:evenodd;fill:rgb(60.000002%,60.000002%,60.000002%);fill-opacity:1;" d="M 85.3125 94.644531 L 85.3125 94.792969 C 85.464844 95.625 85.863281 95.722656 86.515625 95.085938 C 87.265625 94.351562 87.792969 94.449219 88.09375 95.382812 L 88.09375 96.042969 L 89.671875 96.261719 L 89.597656 96.484375 L 88.46875 98.101562 L 88.46875 98.324219 L 66.453125 98.46875 L 66.605469 97.882812 C 66.953125 97.636719 67.128906 97.21875 67.128906 96.632812 L 67.054688 95.96875 L 67.582031 93.835938 L 67.804688 93.320312 L 67.957031 93.46875 L 69.234375 92.21875 L 68.707031 96.117188 L 68.480469 97.144531 C 68.480469 97.539062 68.632812 97.855469 68.933594 98.101562 L 69.382812 97.882812 C 71.789062 91.359375 75.144531 87.363281 79.453125 85.894531 L 81.554688 85.453125 L 82.082031 86.042969 L 80.878906 85.96875 C 77.523438 85.96875 75.847656 87.636719 75.847656 90.96875 L 76.144531 93.394531 L 74.269531 97 L 74.71875 97.441406 C 75.320312 97.195312 75.894531 96.925781 76.445312 96.632812 L 78.023438 95.824219 C 78.875 96.363281 79.976562 96.632812 81.332031 96.632812 L 83.359375 96.261719 C 83.660156 97.144531 84.011719 97.585938 84.410156 97.585938 L 84.710938 97.441406 L 85.3125 94.644531 M 82.832031 93.835938 L 83.132812 95.308594 L 80.203125 95.894531 L 78.625 95.160156 C 77.722656 94.570312 77.199219 94.082031 77.046875 93.691406 C 76.746094 92.90625 76.597656 91.972656 76.597656 90.894531 C 76.597656 89.71875 76.671875 89.007812 76.824219 88.761719 C 77.273438 87.683594 78.226562 87.023438 79.679688 86.777344 L 80.878906 86.703125 L 82.234375 86.777344 L 82.234375 86.925781 L 82.308594 88.101562 L 81.03125 87.953125 C 79.726562 87.953125 78.777344 88.417969 78.175781 89.351562 C 77.824219 89.839844 77.648438 90.332031 77.648438 90.820312 C 77.648438 92.878906 78.5 93.910156 80.203125 93.910156 L 80.878906 93.910156 L 81.03125 94.132812 L 81.480469 94.277344 L 82.832031 93.835938 M 82.007812 91.484375 C 81.757812 90.992188 81.230469 90.75 80.429688 90.75 L 80.054688 91.042969 C 80.054688 91.335938 80.480469 91.730469 81.332031 92.21875 C 81.480469 92.855469 80.90625 93.175781 79.601562 93.175781 C 78.800781 92.539062 78.402344 91.753906 78.402344 90.820312 L 78.925781 89.792969 C 79.476562 89.105469 80.230469 88.761719 81.179688 88.761719 L 82.382812 88.984375 L 82.53125 90.601562 L 82.007812 91.484375 M 75.46875 96.191406 L 75.46875 96.117188 L 76.523438 94.277344 L 77.5 95.453125 L 75.46875 96.191406 "/>
<path style=" stroke:none;fill-rule:evenodd;fill:rgb(80.000001%,80.000001%,80.000001%);fill-opacity:1;" d="M 69.234375 90.234375 L 69.609375 89.277344 L 69.460938 90.160156 L 69.234375 92.21875 L 67.957031 93.46875 L 67.804688 93.320312 L 68.859375 90.96875 L 69.160156 90.75 L 69.234375 90.234375 "/>
<path style=" stroke:none;fill-rule:evenodd;fill:rgb(100%,100%,100%);fill-opacity:1;" d="M 69.234375 90.234375 L 69.160156 90.75 L 68.859375 90.96875 L 69.234375 90.234375 "/>
</g>
</svg>
