<?xml version="1.0" encoding="UTF-8"?>
<svg xmlns="http://www.w3.org/2000/svg" xmlns:xlink="http://www.w3.org/1999/xlink" width="290px" height="542px" viewBox="0 0 290 542" version="1.1">
<g id="surface1">
<path style=" stroke:none;fill-rule:evenodd;fill:rgb(55.29412%,47.058824%,69.411767%);fill-opacity:1;" d="M 151.746094 95.414062 L 151.679688 95.796875 L 151.679688 95.605469 L 151.746094 95.414062 "/>
<path style=" stroke:none;fill-rule:evenodd;fill:rgb(0%,0%,0%);fill-opacity:1;" d="M 182.164062 15.53125 L 182.226562 15.277344 L 181.84375 15.023438 L 181.335938 15.402344 L 180.890625 15.339844 L 170.773438 13.429688 L 165.042969 11.585938 L 162.246094 10.566406 L 161.863281 10.566406 L 160.589844 10.058594 L 159.953125 9.929688 L 159.953125 9.800781 L 159.507812 9.613281 C 158.871094 9.613281 157.683594 11.03125 155.945312 13.875 C 155.394531 14.894531 155.117188 16.316406 155.117188 18.140625 L 155.5625 24.570312 C 155.5625 27.371094 156.921875 29.449219 159.636719 30.808594 C 160.484375 30.382812 161.523438 29.894531 162.753906 29.34375 C 163.644531 28.453125 164.535156 27.835938 165.425781 27.496094 L 172.109375 22.46875 L 179.488281 17.441406 L 179.554688 17.441406 L 179.617188 17.503906 L 180.125 17.632812 L 180.316406 18.011719 C 171.40625 25.398438 166.445312 29.089844 165.425781 29.089844 L 165.363281 29.089844 L 162.882812 30.425781 L 157.410156 33.289062 C 149.261719 37.152344 144.320312 39.082031 142.582031 39.082031 C 141.011719 39.082031 137.277344 37.832031 131.382812 35.328125 L 119.609375 30.425781 C 108.496094 26.777344 102.152344 24.082031 100.582031 22.34375 L 99.4375 20.8125 L 98.738281 18.90625 L 97.527344 19.859375 C 95.578125 21.472656 94.601562 23.085938 94.601562 24.695312 C 94.601562 25.84375 94.921875 26.753906 95.554688 27.433594 C 96.023438 27.902344 96.320312 28.558594 96.449219 29.40625 L 107.964844 37.300781 L 108.027344 37.363281 L 108.09375 37.425781 L 107.773438 37.492188 C 106.332031 37.492188 104.125 36.410156 101.15625 34.246094 C 98.949219 32.632812 97.421875 31.273438 96.574219 30.171875 L 96.511719 30.109375 L 96.511719 30.234375 C 96.511719 31.59375 95.9375 32.800781 94.792969 33.863281 C 94.792969 36.113281 99.015625 40.1875 107.457031 46.085938 L 107.457031 46.464844 L 107.011719 46.273438 L 107.328125 46.59375 L 107.390625 46.65625 L 106.882812 46.722656 C 106.460938 46.722656 105.058594 45.851562 102.683594 44.109375 L 98.039062 40.226562 L 94.921875 36.980469 L 94.539062 36.472656 L 92.375 38.382812 C 90.59375 39.996094 89.703125 41.226562 89.703125 42.074219 C 89.703125 42.710938 90.296875 43.515625 91.484375 44.492188 L 91.867188 44.8125 L 92.183594 44.746094 C 92.480469 44.746094 93.625 45.574219 95.621094 47.230469 L 99.375 49.394531 L 100.394531 50.03125 L 100.328125 50.347656 C 100.328125 51.324219 101.410156 52.214844 103.574219 53.023438 L 105.546875 54.230469 L 102.492188 52.703125 L 106.4375 55.121094 L 111.210938 57.921875 L 118.847656 63.652344 C 123.511719 66.324219 129.113281 67.664062 135.644531 67.664062 C 142.476562 67.664062 150.707031 65.605469 160.335938 61.488281 L 167.144531 58.496094 L 167.527344 57.667969 L 169.371094 57.160156 L 169.246094 57.542969 L 170.515625 56.90625 L 170.136719 56.96875 L 170.453125 56.839844 L 170.960938 56.652344 L 170.960938 56.714844 L 171.597656 56.394531 L 171.597656 56.332031 L 172.363281 55.503906 L 173.0625 55.441406 L 173.125 55.695312 L 173.125 55.632812 L 173.253906 55.570312 L 173.507812 55.378906 L 173.699219 55.378906 L 173.890625 55.25 L 174.527344 55.3125 L 179.554688 54.867188 L 184.582031 51.621094 L 184.515625 51.429688 C 184.515625 51.050781 185.003906 50.730469 185.980469 50.476562 L 186.363281 50.414062 L 186.742188 50.09375 L 187.1875 49.839844 L 188.527344 48.949219 L 189.671875 46.910156 C 190.011719 45.9375 190.136719 44.386719 190.054688 42.265625 C 189.925781 40.269531 190.203125 38.488281 190.878906 36.917969 C 191.601562 35.222656 191.960938 33.820312 191.960938 32.71875 C 191.960938 30.679688 191.050781 29.027344 189.226562 27.753906 L 187.378906 26.859375 L 186.871094 26.796875 L 185.980469 26.671875 L 185.089844 29.851562 L 183.371094 36.601562 C 183.160156 37.574219 182.542969 38.890625 181.527344 40.546875 C 180.550781 42.117188 179.828125 42.964844 179.363281 43.09375 L 179.425781 42.902344 L 179.296875 43.027344 L 179.234375 43.09375 L 178.597656 42.328125 C 180.847656 39.273438 182.015625 37.089844 182.097656 35.773438 L 183.945312 29.28125 C 185.511719 23.085938 186.296875 18.820312 186.296875 16.484375 L 182.164062 15.53125 M 79.773438 66.644531 L 77.738281 66.644531 L 80.921875 62.316406 L 80.984375 62.570312 L 85.628906 56.96875 L 89.257812 53.214844 C 90.65625 51.644531 91.355469 50.304688 91.355469 49.203125 C 90.71875 47.421875 90.402344 46.125 90.402344 45.320312 L 90.402344 45.191406 L 88.113281 42.839844 L 88.558594 42.710938 L 88.492188 42.074219 C 88.492188 41.609375 89.171875 40.375 90.53125 38.382812 C 91.757812 36.601562 92.839844 35.539062 93.773438 35.199219 L 93.457031 33.734375 C 93.457031 33.226562 93.753906 32.652344 94.347656 32.015625 C 94.898438 31.378906 95.175781 30.722656 95.175781 30.042969 C 95.175781 29.40625 94.878906 28.6875 94.285156 27.878906 C 93.648438 27.074219 93.328125 26.011719 93.328125 24.695312 C 93.328125 23.679688 93.839844 22.277344 94.855469 20.496094 C 96.128906 18.332031 97.675781 17.1875 99.5 17.058594 C 100.476562 15.871094 102.367188 14.46875 105.164062 12.859375 L 110.765625 10.058594 L 110.828125 10.121094 L 110.957031 10.246094 L 111.402344 10.183594 L 117.890625 14.957031 C 119.589844 15.890625 120.648438 16.699219 121.074219 17.378906 L 121.328125 19.476562 C 120.691406 24.695312 120.140625 27.921875 119.671875 29.152344 L 120.183594 29.28125 L 131.699219 33.992188 C 137.386719 36.453125 140.925781 37.683594 142.328125 37.683594 C 145.085938 37.683594 149.984375 35.792969 157.027344 32.015625 L 158.425781 31.378906 C 157.621094 30.957031 156.792969 30.085938 155.945312 28.769531 C 154.84375 27.117188 154.269531 25.886719 154.226562 25.078125 L 153.84375 18.140625 C 153.84375 15.808594 154.207031 14.066406 154.925781 12.921875 L 159.125 8.273438 C 159.847656 8.273438 160.613281 8.507812 161.417969 8.976562 C 163.75 9.355469 167.570312 10.609375 172.871094 12.730469 L 185.917969 14.449219 C 186.765625 14.535156 187.253906 14.683594 187.378906 14.894531 L 187.570312 16.421875 C 187.570312 19.011719 187.148438 22.066406 186.296875 25.589844 L 187.253906 25.460938 L 188.527344 25.460938 L 188.527344 25.589844 C 191.410156 26.054688 193 28.429688 193.296875 32.71875 C 193.296875 34.289062 192.9375 35.707031 192.214844 36.980469 C 191.496094 38.171875 191.175781 40.144531 191.261719 42.902344 C 191.429688 45.53125 191.15625 47.613281 190.433594 49.140625 C 191.15625 49.605469 192.003906 51.515625 192.980469 54.867188 C 192.980469 55.378906 192.726562 55.632812 192.214844 55.632812 C 191.707031 55.632812 190.625 54.761719 188.972656 53.023438 L 187.824219 51.8125 C 183.625 55.589844 180.570312 59.621094 178.664062 63.90625 C 176.457031 69 174.84375 73.304688 173.824219 76.828125 L 170.644531 87.902344 L 170.582031 87.96875 L 170.773438 87.902344 C 171.238281 87.902344 171.449219 88.160156 171.40625 88.667969 L 170.960938 94.015625 C 170.960938 95.371094 171.34375 98.914062 172.109375 104.644531 L 172.042969 105.472656 L 172.300781 105.664062 L 172.363281 106.042969 C 172.363281 106.34375 171.28125 107.636719 169.117188 109.925781 L 167.273438 112.855469 L 159.890625 122.339844 C 158.789062 124.25 157.449219 127.472656 155.882812 132.015625 L 154.226562 136.597656 L 152.636719 147.292969 L 152.828125 149.964844 L 152.828125 150.027344 L 155.308594 154.992188 C 155.988281 155.25 156.242188 156.414062 156.074219 158.496094 C 156.074219 160.277344 155.605469 161.402344 154.671875 161.867188 C 152.167969 162.675781 149.347656 163.796875 146.210938 165.242188 C 138.277344 168.933594 131.722656 170.78125 126.546875 170.78125 C 117.128906 170.78125 105.652344 168.996094 92.121094 165.433594 C 87.453125 163.90625 83.636719 162.78125 80.667969 162.058594 C 74.855469 160.699219 71.949219 159.300781 71.949219 157.859375 L 72.074219 157.414062 L 72.265625 157.347656 L 72.265625 156.964844 C 72.265625 155.90625 72.371094 155.101562 72.585938 154.546875 C 73.984375 149.074219 74.832031 145.210938 75.128906 142.964844 C 76.910156 135.664062 77.800781 130.636719 77.800781 127.878906 L 76.847656 119.03125 C 76.847656 118.734375 76.996094 118.5625 77.292969 118.519531 L 77.039062 117.820312 L 77.292969 117.3125 L 74.875 111.390625 L 72.140625 104.582031 L 73.539062 104.582031 L 76.210938 111.390625 L 79.140625 118.839844 L 79.140625 119.09375 L 80.410156 122.59375 L 81.429688 125.777344 L 82.003906 128.449219 C 81.917969 128.664062 81.726562 128.769531 81.429688 128.769531 L 79.140625 123.105469 L 78.820312 122.210938 L 78.882812 123.167969 L 79.140625 127.941406 L 78.949219 130.679688 C 78.566406 133.648438 77.675781 138 76.277344 143.726562 C 75.511719 148.988281 74.789062 152.914062 74.113281 155.503906 L 74.046875 155.503906 L 73.792969 157.984375 L 74.75 158.621094 L 76.085938 159.578125 L 82.195312 161.105469 L 93.457031 164.476562 C 97.65625 165.625 103.234375 166.726562 110.191406 167.789062 L 126.417969 169.441406 C 129.898438 169.441406 134.523438 168.359375 140.292969 166.195312 L 140.355469 166.132812 L 145.191406 164.160156 L 152.699219 161.359375 C 153.972656 160.765625 154.652344 159.851562 154.734375 158.621094 L 153.78125 158.621094 L 153.398438 157.476562 L 153.207031 156.839844 L 153.398438 156.332031 C 152 152.894531 151.300781 149.945312 151.300781 147.484375 L 151.617188 143.664062 L 148.816406 151.492188 L 148.246094 151.683594 L 147.546875 151.492188 L 147.480469 150.472656 L 152.507812 136.980469 L 153.589844 134.050781 L 154.609375 131.25 C 156.09375 127.175781 157.492188 123.953125 158.808594 121.574219 C 162.117188 115.976562 164.515625 112.835938 166 112.15625 L 166 103.691406 L 166.0625 102.542969 L 166 102.480469 L 166 101.972656 C 166 100.699219 167.015625 96.304688 169.054688 88.796875 L 169.371094 87.777344 L 169.433594 87.902344 L 169.816406 87.714844 L 169.5625 87.078125 C 171.003906 81.558594 172.042969 77.890625 172.679688 76.066406 C 174.675781 69.785156 176.328125 65.476562 177.644531 63.144531 C 179 60.683594 180.847656 57.964844 183.179688 54.996094 L 184.707031 53.148438 L 182.671875 54.550781 L 180.125 56.015625 L 174.335938 56.585938 L 171.027344 58.304688 L 168.988281 59.261719 L 168.480469 59.515625 L 165.871094 66.644531 C 163.410156 73.390625 161.949219 78.121094 161.480469 80.839844 L 160.144531 90.578125 L 160.144531 90.640625 L 159.507812 91.214844 L 160.019531 91.339844 L 158.363281 104.773438 L 158.109375 104.960938 C 158.363281 105.046875 158.46875 105.261719 158.425781 105.597656 L 152.636719 108.71875 L 150.027344 110.628906 L 148.882812 111.328125 L 148.882812 110.183594 L 147.035156 111.328125 L 148.246094 112.726562 C 149.773438 114.890625 150.535156 117.015625 150.535156 119.09375 C 150.535156 120.367188 150.027344 121.703125 149.007812 123.105469 C 147.523438 125.226562 145.316406 126.285156 142.390625 126.285156 L 141.308594 126.222656 C 141.140625 127.15625 140.695312 128.132812 139.972656 129.152344 L 139.84375 129.339844 L 139.273438 130.105469 L 139.335938 130.105469 L 139.082031 130.550781 L 139.082031 130.296875 C 137.640625 131.78125 135.6875 132.523438 133.226562 132.523438 C 132.335938 132.523438 131.488281 132.355469 130.683594 132.015625 C 130.554688 133.117188 130.046875 134.265625 129.15625 135.453125 C 127.753906 137.445312 125.71875 138.507812 123.046875 138.636719 L 122.539062 138.636719 C 120.203125 138.636719 118.0625 137.402344 116.109375 134.941406 L 115.917969 134.6875 L 114.390625 132.398438 L 112.863281 133.289062 L 112.800781 133.289062 L 112.675781 133.351562 L 112.929688 133.351562 L 110.828125 134.6875 L 110.703125 134.878906 L 110.320312 134.941406 L 110.066406 134.941406 C 109.683594 134.902344 109.492188 134.6875 109.492188 134.304688 L 109.554688 134.242188 L 105.230469 128.578125 L 105.292969 128.386719 L 105.355469 128.257812 L 104.972656 128.257812 L 93.648438 113.683594 L 91.421875 110.882812 L 84.355469 101.460938 L 84.167969 101.144531 C 84.335938 101.144531 84.335938 101.121094 84.167969 101.078125 L 84.167969 100.890625 L 83.847656 100.761719 L 81.429688 97.386719 L 81.429688 94.585938 L 86.140625 100.890625 L 86.265625 101.015625 L 86.265625 101.078125 L 91.421875 108.273438 L 94.792969 112.984375 C 103.742188 124.101562 108.960938 130.890625 110.445312 133.351562 L 112.039062 132.015625 L 112.039062 132.269531 L 113.882812 130.996094 L 113.882812 130.871094 L 114.074219 129.085938 C 114.285156 128.027344 114.582031 127.496094 114.964844 127.496094 L 116.175781 129.085938 L 116.238281 129.023438 C 118.105469 127.285156 119.96875 125.691406 121.835938 124.25 L 119.292969 122.085938 C 119.292969 121.617188 119.632812 121.386719 120.308594 121.386719 L 121.265625 121.195312 C 122.539062 121.195312 123.726562 121.449219 124.828125 121.957031 L 125.210938 121.765625 L 125.65625 121.386719 C 127.648438 120.027344 129.644531 118.859375 131.636719 117.882812 L 132.019531 117.691406 L 129.980469 115.976562 C 129.980469 115.507812 130.320312 115.273438 131 115.273438 L 131.953125 115.082031 L 134.375 115.464844 L 134.820312 115.148438 L 135.328125 115.785156 L 135.644531 115.910156 L 142.136719 112.601562 L 142.453125 112.410156 L 142.328125 112.347656 L 139.144531 109.738281 C 139.144531 109.269531 139.484375 109.035156 140.164062 109.035156 L 141.117188 108.84375 C 142.859375 108.84375 144.425781 109.332031 145.828125 110.308594 L 150.980469 107 C 151.363281 107 151.597656 107.210938 151.679688 107.636719 L 155.308594 105.28125 L 155.945312 105.535156 L 157.535156 104.960938 L 157.21875 104.773438 L 157.089844 103.816406 L 157.410156 98.726562 L 157.664062 98.980469 L 157.664062 98.660156 L 157.535156 97.960938 L 158.363281 92.167969 L 158.617188 91.851562 L 158.617188 91.785156 L 158.554688 91.53125 L 158.425781 91.722656 L 158.425781 91.40625 L 160.273438 79.757812 C 160.738281 76.148438 162.160156 71.183594 164.535156 64.863281 L 166.253906 60.597656 C 163.328125 61.996094 161.207031 62.886719 159.890625 63.269531 C 152 67.089844 145.019531 69 138.953125 69 C 129.535156 69 122.496094 67.597656 117.828125 64.796875 C 114.179688 61.53125 111.402344 59.429688 109.492188 58.496094 L 103.320312 54.933594 C 102.851562 56.585938 99.945312 59.683594 94.601562 64.226562 C 93.414062 65.285156 91.929688 67.257812 90.148438 70.144531 C 88.917969 72.183594 88.027344 73.371094 87.476562 73.710938 L 83.210938 82.175781 L 81.429688 86.632812 L 81.429688 83.195312 L 82.957031 79.820312 L 86.710938 72.054688 L 86.902344 72.117188 L 89.574219 68.300781 L 91.546875 65.753906 L 93.648438 63.269531 L 102.300781 54.296875 L 95.429688 49.777344 C 95.257812 49.183594 94.855469 48.84375 94.21875 48.757812 L 92.628906 47.355469 L 92.4375 47.039062 L 92.503906 47.292969 L 92.503906 47.355469 L 92.691406 49.203125 C 92.691406 50.519531 92.058594 51.875 90.785156 53.277344 L 86.964844 57.414062 L 81.683594 64.160156 L 80.792969 65.117188 L 79.773438 66.644531 M 189.035156 50.984375 L 190.6875 52.578125 L 189.542969 50.476562 L 189.035156 50.984375 M 146.082031 21.769531 L 146.398438 21.769531 L 146.082031 22.023438 L 146.082031 21.769531 M 130.492188 47.613281 L 129.15625 47.101562 L 126.484375 45.703125 C 126.484375 45.191406 126.695312 44.9375 127.117188 44.9375 C 128.011719 44.9375 129.386719 45.449219 131.253906 46.464844 L 135.710938 46.976562 L 135.773438 46.976562 L 141.5625 46.847656 L 158.171875 45.574219 C 159.105469 45.363281 161.503906 44.046875 165.363281 41.628906 L 165.871094 41.757812 L 166.316406 41.691406 C 166.785156 41.4375 167.355469 41.160156 168.035156 40.863281 C 169.691406 39.972656 171.960938 38.808594 174.84375 37.363281 C 175.3125 37.363281 175.542969 37.597656 175.542969 38.0625 C 175.542969 38.402344 174.039062 39.359375 171.027344 40.929688 L 169.117188 41.882812 L 166.125 43.15625 C 165.320312 44.175781 163.304688 45.171875 160.082031 46.148438 C 155.5 47.507812 150.15625 48.183594 144.046875 48.183594 L 137.171875 48.121094 L 136.027344 48.441406 L 130.492188 47.613281 M 131.191406 58.816406 L 136.21875 59.070312 C 141.605469 59.070312 147.058594 58.328125 152.574219 56.839844 C 153.292969 56.839844 153.632812 57.054688 153.589844 57.476562 C 153.589844 57.902344 151.617188 58.496094 147.671875 59.261719 L 136.15625 60.40625 C 131.488281 60.320312 129.15625 60.003906 129.15625 59.453125 C 129.15625 58.941406 129.832031 58.730469 131.191406 58.816406 M 155.5 84.65625 L 155.5625 84.464844 C 155.5625 84.339844 155.4375 84.277344 155.179688 84.277344 L 153.652344 85.230469 L 146.910156 86.441406 L 129.410156 89.113281 L 102.8125 93.441406 L 100.265625 93.378906 L 99.375 92.867188 L 99.183594 92.933594 L 99.183594 93.058594 L 99.5 93.25 C 98.90625 93.125 98.609375 92.976562 98.609375 92.804688 C 98.609375 92.550781 100.414062 92.210938 104.019531 91.785156 L 128.011719 88.09375 L 154.992188 83.765625 C 155.414062 83.765625 155.648438 84 155.691406 84.464844 L 155.5 84.65625 M 170.773438 105.855469 L 169.625 94.140625 L 169.625 92.105469 L 168.542969 97.832031 C 168.078125 100.210938 167.589844 101.714844 167.082031 102.351562 L 167.335938 110.054688 L 170.898438 105.980469 L 170.898438 105.917969 L 170.960938 105.917969 L 170.773438 105.855469 M 140.417969 75.746094 C 140.417969 76.214844 139.484375 76.445312 137.617188 76.445312 C 132.824219 76.445312 128.433594 75.535156 124.445312 73.710938 C 120.585938 71.503906 117.765625 69.996094 115.984375 69.191406 C 105.292969 64.605469 99.945312 61.890625 99.945312 61.042969 C 99.945312 60.617188 100.222656 60.40625 100.773438 60.40625 C 101.878906 60.40625 107.582031 63.164062 117.890625 68.679688 C 119.121094 69.402344 122.113281 70.800781 126.863281 72.882812 C 129.453125 74.199219 132.527344 75.003906 136.089844 75.300781 L 140.417969 75.746094 M 148.308594 115.148438 L 147.480469 114 L 145.574219 112.15625 L 144.238281 111.265625 L 143.601562 110.945312 L 144.109375 111.390625 L 145.0625 112.410156 L 145.953125 113.683594 C 146.761719 115.253906 147.164062 116.84375 147.164062 118.457031 C 147.121094 120.28125 146.527344 121.597656 145.382812 122.402344 L 143.664062 123.738281 L 141.5 124.949219 C 144.640625 124.90625 146.824219 124.058594 148.054688 122.402344 L 149.007812 120.304688 L 149.199219 119.347656 L 149.261719 118.773438 L 149.199219 118.140625 L 149.074219 117.503906 L 148.308594 115.148438 M 143.089844 113.492188 C 140.589844 114.765625 138.53125 115.847656 136.917969 116.738281 C 137.722656 117.332031 138.445312 118.074219 139.082031 118.964844 C 139.804688 119.984375 140.355469 121.003906 140.738281 122.023438 C 143.960938 121.894531 145.699219 120.640625 145.953125 118.265625 C 145.953125 116.695312 145.105469 115.0625 143.410156 113.363281 L 143.089844 113.492188 M 133.417969 118.773438 L 133.292969 118.648438 L 132.402344 119.09375 L 126.609375 122.59375 L 130.109375 127.304688 L 130.109375 127.433594 L 131.0625 128.257812 C 134.628906 128.257812 136.535156 127.007812 136.792969 124.503906 L 136.664062 123.421875 L 135.964844 122.59375 C 134.820312 121.152344 134.117188 120.027344 133.863281 119.222656 L 133.417969 118.773438 M 139.144531 121.386719 L 138.320312 120.238281 C 137.300781 118.964844 136.007812 117.949219 134.4375 117.183594 L 135.074219 117.757812 L 135.328125 118.011719 L 136.792969 119.921875 L 137.363281 121.195312 L 137.9375 123.292969 L 138 124.695312 C 137.957031 126.519531 137.363281 127.835938 136.21875 128.640625 L 134.5 129.976562 L 132.335938 131.1875 C 135.265625 131.144531 137.363281 130.382812 138.636719 128.894531 L 138.890625 128.640625 L 139.84375 126.539062 L 139.972656 125.839844 L 140.035156 125.585938 L 140.101562 125.011719 L 140.035156 124.375 L 139.972656 124.121094 L 139.910156 123.738281 L 139.78125 122.976562 L 139.144531 121.386719 M 128.457031 127.496094 L 127.628906 126.351562 L 127.246094 125.90625 L 125.972656 124.695312 L 123.746094 123.292969 L 124.445312 123.929688 L 124.636719 124.121094 L 126.101562 126.03125 L 127.183594 129.339844 L 127.308594 130.804688 C 127.265625 132.628906 126.671875 133.945312 125.527344 134.753906 L 123.808594 136.089844 L 121.644531 137.296875 C 124.785156 137.253906 126.96875 136.40625 128.199219 134.753906 L 129.15625 132.652344 L 129.347656 131.695312 L 129.410156 131.316406 L 129.410156 131.125 L 129.347656 130.488281 L 129.28125 129.976562 L 129.21875 129.851562 L 128.582031 127.8125 L 128.457031 127.496094 M 118.910156 132.714844 L 119.417969 133.414062 L 119.417969 133.542969 L 120.375 134.371094 C 123.9375 134.371094 125.847656 133.117188 126.101562 130.613281 L 126.039062 129.660156 C 125.699219 128.175781 124.617188 126.605469 122.792969 124.949219 L 122.664062 125.011719 L 118.210938 129.40625 L 117.191406 130.421875 L 118.910156 132.714844 M 131.953125 129.597656 L 130.363281 129.085938 L 130.617188 130.421875 L 131.953125 129.597656 M 118.65625 28.707031 L 118.65625 27.753906 L 119.992188 19.605469 C 119.992188 18.460938 118.421875 16.761719 115.28125 14.511719 L 111.148438 11.519531 L 111.148438 11.777344 L 110.957031 11.585938 L 106.183594 14.386719 C 102.070312 16.71875 100.011719 18.203125 100.011719 18.839844 C 100.011719 19.351562 100.414062 19.945312 101.21875 20.625 L 102.175781 21.578125 L 108.472656 24.441406 C 112.929688 26.480469 116.324219 27.921875 118.65625 28.769531 L 118.65625 28.707031 M 106.4375 55.121094 L 106.628906 54.867188 L 107.773438 55.378906 L 106.4375 55.121094 M 90.464844 75.363281 L 90.59375 75.492188 L 90.464844 75.808594 L 90.464844 75.875 L 90.402344 75.617188 L 90.464844 75.363281 M 115.21875 129.976562 L 115.539062 131.761719 L 116.746094 134.050781 L 117.253906 134.6875 C 118.019531 135.664062 118.804688 136.363281 119.609375 136.789062 L 121.265625 135.707031 C 120.203125 135.578125 119.1875 135.070312 118.210938 134.179688 L 117.511719 133.542969 L 116.746094 132.523438 L 116.808594 132.332031 L 116.109375 131.378906 L 115.21875 129.976562 "/>
<path style=" stroke:none;fill-rule:evenodd;fill:rgb(29.411766%,19.607843%,31.37255%);fill-opacity:1;" d="M 180.125 17.632812 L 180.445312 17.949219 L 180.445312 18.011719 L 180.316406 18.011719 L 180.125 17.632812 M 92.183594 44.746094 L 91.867188 44.8125 L 91.484375 44.492188 L 91.546875 44.429688 L 92.121094 44.683594 L 92.183594 44.746094 M 96.511719 30.234375 L 96.511719 30.109375 L 96.574219 30.171875 L 96.511719 30.234375 M 182.671875 54.550781 L 184.707031 53.148438 L 183.179688 54.996094 L 182.671875 54.550781 M 127.820312 51.8125 L 127.882812 51.8125 L 127.820312 51.8125 M 160.144531 90.578125 L 160.144531 90.640625 L 160.144531 90.578125 M 123.109375 138.953125 L 123.046875 138.953125 L 123.046875 138.636719 L 123.109375 138.953125 M 126.738281 145.128906 L 128.136719 147.164062 L 128.199219 147.226562 L 128.964844 148.308594 L 128.011719 147.292969 L 126.484375 145.320312 L 126.738281 145.128906 M 140.292969 166.070312 L 140.355469 166.070312 L 140.292969 166.195312 L 140.292969 166.070312 M 86.265625 101.015625 L 86.140625 100.890625 L 86.585938 100.632812 C 86.457031 100.675781 86.394531 100.78125 86.394531 100.953125 L 86.265625 101.015625 M 161.097656 90.832031 L 161.035156 90.832031 L 160.207031 91.277344 L 161.035156 90.769531 L 161.097656 90.832031 M 152.445312 95.542969 L 152.0625 95.667969 L 152.382812 95.542969 L 152.445312 95.542969 M 118.273438 80.648438 L 117.957031 80.519531 L 118.082031 80.074219 L 118.273438 80.648438 M 92.4375 79.628906 L 92.691406 79.949219 L 92.375 79.882812 L 92.4375 79.628906 M 83.976562 119.539062 L 83.910156 119.222656 L 84.101562 119.410156 L 83.976562 119.539062 M 115.917969 134.753906 L 115.917969 134.6875 L 116.109375 134.941406 L 115.917969 134.753906 M 79.902344 117.691406 L 79.265625 117.882812 L 79.203125 117.691406 L 79.902344 117.691406 M 112.800781 133.351562 L 112.675781 133.351562 L 112.800781 133.289062 L 112.800781 133.351562 "/>
<path style=" stroke:none;fill-rule:evenodd;fill:rgb(8.235294%,3.529412%,11.372549%);fill-opacity:1;" d="M 179.234375 43.09375 L 179.296875 43.027344 L 179.425781 42.902344 L 179.363281 43.09375 L 179.234375 43.09375 M 173.253906 55.570312 L 173.125 55.632812 L 173.125 55.695312 L 173.0625 55.441406 L 173.0625 55.3125 L 173.253906 55.570312 M 171.597656 56.332031 L 171.597656 56.394531 L 170.960938 56.714844 L 170.960938 56.652344 L 171.597656 56.332031 M 170.136719 56.96875 L 170.515625 56.90625 L 169.246094 57.542969 L 169.371094 57.160156 L 170.136719 56.96875 M 107.328125 46.59375 L 107.011719 46.273438 L 107.457031 46.464844 L 107.328125 46.59375 M 170.515625 50.285156 L 170.644531 50.476562 L 170.453125 50.285156 L 170.515625 50.285156 M 189.035156 50.984375 L 189.542969 50.476562 L 190.6875 52.578125 L 189.035156 50.984375 M 140.355469 166.132812 L 140.292969 166.195312 L 140.355469 166.070312 L 140.355469 166.132812 M 78.882812 123.167969 L 78.820312 122.210938 L 79.140625 123.105469 L 78.882812 123.167969 M 81.429688 125.777344 L 80.410156 122.59375 L 80.667969 122.46875 L 81.429688 125.777344 M 165.363281 41.628906 L 165.234375 41.5 C 165.234375 41.121094 166.167969 40.90625 168.035156 40.863281 C 167.355469 41.160156 166.785156 41.4375 166.316406 41.691406 L 165.871094 41.757812 L 165.363281 41.628906 M 124.320312 141.308594 L 124.511719 141.4375 L 124.828125 142.199219 L 124.320312 141.308594 M 158.425781 91.722656 L 158.554688 91.53125 L 158.617188 91.785156 L 158.617188 91.851562 L 158.363281 92.167969 L 158.109375 91.976562 L 158.425781 91.722656 M 157.664062 98.660156 L 157.664062 98.980469 L 157.410156 98.726562 L 157.664062 98.660156 M 142.328125 112.347656 L 142.453125 112.410156 L 142.136719 112.601562 L 142.328125 112.347656 M 86.265625 101.078125 L 86.265625 101.015625 L 86.394531 100.953125 L 86.265625 101.078125 M 170.898438 105.980469 L 170.773438 105.855469 L 170.898438 105.917969 L 170.898438 105.980469 M 113.691406 51.429688 L 113.882812 51.304688 L 113.691406 51.429688 M 93.394531 80.710938 L 93.203125 81.09375 L 93.136719 81.03125 L 92.820312 80.519531 L 93.328125 80.710938 L 93.394531 80.710938 M 112.863281 133.289062 L 112.929688 133.351562 L 112.800781 133.351562 L 112.800781 133.289062 L 112.863281 133.289062 M 105.292969 128.386719 L 104.972656 128.257812 L 105.355469 128.257812 L 105.292969 128.386719 M 126.484375 145.320312 L 128.011719 147.292969 L 127.882812 147.484375 L 126.484375 145.320312 "/>
<path style=" stroke:none;fill-rule:evenodd;fill:rgb(41.960785%,9.803922%,14.509805%);fill-opacity:1;" d="M 107.390625 46.65625 L 107.328125 46.59375 L 107.457031 46.464844 L 107.519531 46.464844 L 107.390625 46.65625 M 128.964844 148.308594 L 128.773438 148.628906 L 127.882812 147.484375 L 128.011719 147.292969 L 128.964844 148.308594 M 151.679688 95.605469 L 151.679688 95.542969 L 151.746094 95.414062 L 151.679688 95.605469 M 80.410156 122.59375 L 80.667969 122.46875 L 80.410156 122.59375 "/>
<path style=" stroke:none;fill-rule:evenodd;fill:rgb(60.000002%,60.000002%,60.000002%);fill-opacity:1;" d="M 148.054688 122.402344 C 146.824219 124.058594 144.640625 124.90625 141.5 124.949219 L 143.664062 123.738281 L 145.382812 122.402344 C 146.527344 121.597656 147.121094 120.28125 147.164062 118.457031 C 147.164062 116.84375 146.761719 115.253906 145.953125 113.683594 L 145.0625 112.410156 L 144.109375 111.390625 L 143.601562 110.945312 L 144.238281 111.265625 L 145.574219 112.15625 L 147.480469 114 L 148.308594 115.148438 L 147.671875 114.957031 C 147.164062 114.957031 146.910156 115.191406 146.910156 115.65625 C 146.910156 116.164062 147.183594 117.207031 147.734375 118.773438 C 147.734375 119.878906 147.332031 120.917969 146.527344 121.894531 C 146.527344 122.359375 146.78125 122.59375 147.289062 122.59375 L 148.054688 122.402344 M 149.074219 117.503906 L 149.199219 118.140625 L 149.074219 117.882812 L 149.074219 117.503906 M 149.199219 119.347656 L 149.007812 120.304688 L 149.074219 119.476562 L 149.199219 119.347656 M 138.890625 128.640625 L 138.636719 128.894531 C 137.363281 130.382812 135.265625 131.144531 132.335938 131.1875 L 134.5 129.976562 L 136.21875 128.640625 C 137.363281 127.835938 137.957031 126.519531 138 124.695312 L 137.9375 123.292969 L 137.363281 121.195312 L 136.792969 119.921875 L 135.328125 118.011719 L 135.074219 117.757812 L 134.4375 117.183594 C 136.007812 117.949219 137.300781 118.964844 138.320312 120.238281 L 139.144531 121.386719 L 138.507812 121.195312 C 138.128906 121.195312 137.894531 121.320312 137.808594 121.574219 L 137.746094 121.894531 L 138.0625 123.421875 L 138.574219 125.011719 L 138.574219 125.078125 C 138.574219 126.136719 138.171875 127.15625 137.363281 128.132812 C 137.363281 128.472656 137.511719 128.707031 137.808594 128.832031 L 138.128906 128.832031 L 138.890625 128.640625 M 139.910156 123.738281 L 139.972656 124.121094 L 140.035156 124.375 L 139.910156 124.121094 L 139.910156 123.738281 M 140.035156 125.585938 L 139.972656 125.839844 L 139.84375 126.539062 L 139.910156 125.777344 L 139.910156 125.714844 L 140.035156 125.585938 M 128.199219 134.753906 C 126.96875 136.40625 124.785156 137.253906 121.644531 137.296875 L 123.808594 136.089844 L 125.527344 134.753906 C 126.671875 133.945312 127.265625 132.628906 127.308594 130.804688 L 127.183594 129.339844 L 126.101562 126.03125 L 124.636719 124.121094 L 124.445312 123.929688 L 123.746094 123.292969 L 125.972656 124.695312 L 127.246094 125.90625 L 127.628906 126.351562 L 128.457031 127.496094 L 128.136719 127.367188 L 127.820312 127.304688 L 127.183594 127.558594 L 127.054688 128.003906 L 127.375 129.53125 L 127.882812 131.125 C 127.882812 132.226562 127.480469 133.265625 126.671875 134.242188 C 126.671875 134.710938 126.929688 134.941406 127.4375 134.941406 L 128.199219 134.753906 M 129.21875 129.851562 L 129.28125 129.976562 L 129.347656 130.488281 L 129.21875 130.234375 L 129.21875 129.851562 M 129.347656 131.695312 L 129.15625 132.652344 L 129.21875 131.824219 L 129.347656 131.695312 "/>
<path style=" stroke:none;fill-rule:evenodd;fill:rgb(80.000001%,80.000001%,80.000001%);fill-opacity:1;" d="M 148.054688 122.402344 L 147.289062 122.59375 C 146.78125 122.59375 146.527344 122.359375 146.527344 121.894531 C 147.332031 120.917969 147.734375 119.878906 147.734375 118.773438 C 147.183594 117.207031 146.910156 116.164062 146.910156 115.65625 C 146.910156 115.191406 147.164062 114.957031 147.671875 114.957031 L 148.308594 115.148438 L 149.074219 117.503906 L 149.074219 117.882812 C 148.902344 117.332031 148.667969 117.058594 148.371094 117.058594 C 147.90625 117.058594 147.671875 117.269531 147.671875 117.691406 L 147.800781 118.710938 C 147.96875 119.304688 148.246094 119.601562 148.628906 119.601562 L 149.074219 119.476562 L 149.007812 120.304688 L 148.054688 122.402344 M 138.890625 128.640625 L 138.128906 128.832031 L 137.808594 128.832031 C 137.511719 128.707031 137.363281 128.472656 137.363281 128.132812 C 138.171875 127.15625 138.574219 126.136719 138.574219 125.078125 L 138.574219 125.011719 L 138.0625 123.421875 L 137.746094 121.894531 L 137.808594 121.574219 C 137.894531 121.320312 138.128906 121.195312 138.507812 121.195312 L 139.144531 121.386719 L 139.78125 122.976562 L 139.910156 123.738281 L 139.910156 124.121094 C 139.738281 123.570312 139.507812 123.292969 139.210938 123.292969 C 138.785156 123.292969 138.550781 123.464844 138.507812 123.804688 L 138.507812 123.929688 L 138.636719 124.949219 L 138.699219 125.203125 L 139.464844 125.839844 L 139.84375 125.777344 L 139.910156 125.714844 L 139.910156 125.777344 L 139.84375 126.539062 L 138.890625 128.640625 M 128.199219 134.753906 L 127.4375 134.941406 C 126.929688 134.941406 126.671875 134.710938 126.671875 134.242188 C 127.480469 133.265625 127.882812 132.226562 127.882812 131.125 L 127.375 129.53125 L 127.054688 128.003906 L 127.183594 127.558594 L 127.820312 127.304688 L 128.136719 127.367188 L 128.457031 127.496094 L 128.582031 127.8125 L 129.21875 129.851562 L 129.21875 130.234375 L 129.089844 129.851562 L 128.710938 129.46875 L 128.519531 129.40625 C 128.050781 129.40625 127.820312 129.617188 127.820312 130.042969 L 127.945312 131.058594 C 128.117188 131.65625 128.390625 131.953125 128.773438 131.953125 L 129.21875 131.824219 L 129.15625 132.652344 L 128.199219 134.753906 "/>
<path style=" stroke:none;fill-rule:evenodd;fill:rgb(100%,100%,100%);fill-opacity:1;" d="M 149.199219 118.140625 L 149.261719 118.773438 L 149.199219 119.347656 L 149.074219 119.476562 L 148.628906 119.601562 C 148.246094 119.601562 147.96875 119.304688 147.800781 118.710938 L 147.671875 117.691406 C 147.671875 117.269531 147.90625 117.058594 148.371094 117.058594 C 148.667969 117.058594 148.902344 117.332031 149.074219 117.882812 L 149.199219 118.140625 M 140.035156 124.375 L 140.101562 125.011719 L 140.035156 125.585938 L 139.910156 125.714844 L 139.84375 125.777344 L 139.464844 125.839844 L 138.699219 125.203125 L 138.636719 124.949219 L 138.507812 123.929688 L 138.507812 123.804688 C 138.550781 123.464844 138.785156 123.292969 139.210938 123.292969 C 139.507812 123.292969 139.738281 123.570312 139.910156 124.121094 L 140.035156 124.375 M 129.347656 130.488281 L 129.410156 131.125 L 129.410156 131.316406 L 129.347656 131.695312 L 129.21875 131.824219 L 128.773438 131.953125 C 128.390625 131.953125 128.117188 131.65625 127.945312 131.058594 L 127.820312 130.042969 C 127.820312 129.617188 128.050781 129.40625 128.519531 129.40625 L 128.710938 129.46875 L 129.089844 129.851562 L 129.21875 130.234375 L 129.347656 130.488281 "/>
<path style=" stroke:none;fill-rule:evenodd;fill:rgb(63.921571%,20.784314%,31.37255%);fill-opacity:1;" d="M 92.503906 47.355469 L 92.503906 47.292969 L 92.628906 47.355469 L 92.503906 47.355469 M 92.183594 44.746094 L 92.121094 44.683594 L 92.183594 44.683594 L 92.183594 44.746094 M 115.855469 134.753906 L 115.917969 134.753906 L 116.109375 134.941406 L 115.855469 134.753906 "/>
<path style=" stroke:none;fill-rule:evenodd;fill:rgb(40.000001%,40.000001%,40.000001%);fill-opacity:1;" d="M 115.21875 129.976562 L 116.109375 131.378906 L 116.808594 132.332031 L 116.746094 132.523438 L 117.511719 133.542969 L 118.210938 134.179688 C 119.1875 135.070312 120.203125 135.578125 121.265625 135.707031 L 119.609375 136.789062 C 118.804688 136.363281 118.019531 135.664062 117.253906 134.6875 L 116.746094 134.050781 L 115.539062 131.761719 L 115.21875 129.976562 "/>
<path style=" stroke:none;fill-rule:evenodd;fill:rgb(14.509805%,14.509805%,13.725491%);fill-opacity:1;" d="M 180.125 17.632812 L 179.617188 17.503906 L 179.554688 17.441406 L 179.488281 17.441406 L 172.109375 22.46875 L 165.425781 27.496094 C 164.535156 27.835938 163.644531 28.453125 162.753906 29.34375 C 161.523438 29.894531 160.484375 30.382812 159.636719 30.808594 C 156.921875 29.449219 155.5625 27.371094 155.5625 24.570312 L 155.117188 18.140625 C 155.117188 16.316406 155.394531 14.894531 155.945312 13.875 C 157.683594 11.03125 158.871094 9.613281 159.507812 9.613281 L 159.953125 9.800781 L 159.953125 9.929688 L 160.589844 10.058594 L 161.863281 10.566406 L 162.246094 10.566406 L 165.042969 11.585938 L 170.773438 13.429688 L 180.890625 15.339844 L 181.335938 15.402344 L 181.84375 15.023438 L 182.226562 15.277344 L 182.164062 15.53125 L 181.335938 16.550781 L 181.082031 16.867188 L 181.015625 16.929688 L 181.082031 16.929688 L 180.699219 17.441406 L 180.699219 17.886719 L 180.445312 18.011719 L 180.445312 17.949219 L 180.125 17.632812 M 179.363281 43.09375 C 179.828125 42.964844 180.550781 42.117188 181.527344 40.546875 C 182.542969 38.890625 183.160156 37.574219 183.371094 36.601562 L 185.089844 29.851562 L 185.980469 26.671875 L 186.871094 26.796875 L 187.378906 26.859375 L 189.226562 27.753906 C 191.050781 29.027344 191.960938 30.679688 191.960938 32.71875 C 191.960938 33.820312 191.601562 35.222656 190.878906 36.917969 C 190.203125 38.488281 189.925781 40.269531 190.054688 42.265625 C 190.136719 44.386719 190.011719 45.9375 189.671875 46.910156 L 188.527344 48.949219 L 187.1875 49.839844 L 186.742188 50.09375 L 186.363281 50.414062 L 185.980469 50.476562 C 185.003906 50.730469 184.515625 51.050781 184.515625 51.429688 L 184.582031 51.621094 L 179.554688 54.867188 L 174.527344 55.3125 L 173.890625 55.25 L 173.699219 55.378906 L 173.507812 55.378906 L 173.253906 55.570312 L 173.0625 55.3125 L 176.371094 52.386719 L 176.371094 52.003906 L 170.644531 50.476562 L 170.515625 50.285156 L 179.234375 43.09375 L 179.363281 43.09375 M 91.484375 44.492188 C 90.296875 43.515625 89.703125 42.710938 89.703125 42.074219 C 89.703125 41.226562 90.59375 39.996094 92.375 38.382812 L 94.539062 36.472656 L 94.921875 36.980469 L 98.039062 40.226562 L 102.683594 44.109375 C 105.058594 45.851562 106.460938 46.722656 106.882812 46.722656 L 107.390625 46.65625 L 107.519531 46.464844 C 109.980469 47.527344 112.101562 49.140625 113.882812 51.304688 L 113.691406 51.429688 L 110.636719 51.429688 L 110.636719 51.050781 C 108.558594 50.710938 106.734375 50.15625 105.164062 49.394531 L 101.472656 47.675781 L 92.183594 44.683594 L 92.121094 44.683594 L 91.546875 44.429688 L 91.484375 44.492188 M 73.539062 104.582031 L 81.429688 104.582031 L 81.429688 99.550781 L 83.847656 100.761719 L 84.167969 100.890625 L 84.167969 101.078125 C 84.335938 101.121094 84.335938 101.144531 84.167969 101.144531 L 84.355469 101.460938 L 91.421875 110.882812 L 93.648438 113.683594 L 104.972656 128.257812 L 105.292969 128.386719 L 105.230469 128.578125 L 109.554688 134.242188 L 109.492188 134.304688 C 109.492188 134.6875 109.683594 134.902344 110.066406 134.941406 L 110.320312 134.941406 L 110.703125 134.878906 L 110.828125 134.6875 L 112.929688 133.351562 L 112.863281 133.289062 L 114.390625 132.398438 L 115.917969 134.6875 L 115.917969 134.753906 L 115.855469 134.753906 C 113.269531 137.382812 111.359375 138.699219 110.128906 138.699219 C 109.660156 138.699219 108.515625 137.234375 106.691406 134.304688 L 102.9375 128.515625 C 99.542969 128.21875 96.382812 127.324219 93.457031 125.839844 C 91.632812 124.863281 88.515625 122.722656 84.101562 119.410156 L 83.910156 119.222656 L 83.976562 119.539062 C 82.066406 118.308594 80.707031 117.691406 79.902344 117.691406 L 79.203125 117.691406 L 79.265625 117.882812 L 80.667969 122.46875 L 80.410156 122.59375 L 79.140625 119.09375 L 79.140625 118.839844 L 76.210938 111.390625 L 73.539062 104.582031 M 169.5625 87.078125 L 169.816406 87.714844 L 169.433594 87.902344 L 169.371094 87.777344 L 169.054688 88.796875 C 167.015625 96.304688 166 100.699219 166 101.972656 L 166 102.480469 L 166.0625 102.542969 L 166 103.691406 L 166 112.15625 C 164.515625 112.835938 162.117188 115.976562 158.808594 121.574219 C 157.492188 123.953125 156.09375 127.175781 154.609375 131.25 L 153.589844 134.050781 L 152.507812 136.980469 L 147.480469 150.472656 L 147.546875 151.492188 L 148.246094 151.683594 L 148.816406 151.492188 L 151.617188 143.664062 L 151.300781 147.484375 C 151.300781 149.945312 152 152.894531 153.398438 156.332031 L 153.207031 156.839844 L 153.398438 157.476562 L 153.78125 158.621094 L 154.734375 158.621094 C 154.652344 159.851562 153.972656 160.765625 152.699219 161.359375 L 145.191406 164.160156 L 140.355469 166.132812 L 140.355469 166.070312 L 140.292969 166.070312 C 139.867188 166.070312 139.65625 165.855469 139.65625 165.433594 L 139.71875 165.242188 C 139.507812 164.519531 139.359375 163.375 139.273438 161.804688 L 138.191406 158.558594 C 136.238281 155.882812 134.054688 153.445312 131.636719 151.238281 L 130.875 150.601562 L 129.917969 149.773438 L 128.773438 148.628906 L 128.964844 148.308594 L 128.199219 147.226562 L 128.136719 147.164062 L 126.738281 145.128906 L 124.511719 141.4375 L 124.320312 141.308594 L 123.046875 138.953125 L 123.109375 138.953125 L 124.636719 138.824219 L 126.292969 138.890625 C 130.492188 138.890625 133.96875 137.851562 136.726562 135.769531 C 138.253906 134.625 139.25 133.542969 139.71875 132.523438 L 142.007812 130.613281 L 142.199219 130.742188 C 142.539062 130.742188 142.710938 130.53125 142.710938 130.105469 L 142.644531 129.976562 L 142.773438 129.851562 L 142.453125 129.851562 L 140.546875 129.277344 L 139.972656 129.152344 C 140.695312 128.132812 141.140625 127.15625 141.308594 126.222656 L 142.390625 126.285156 C 145.316406 126.285156 147.523438 125.226562 149.007812 123.105469 C 150.027344 121.703125 150.535156 120.367188 150.535156 119.09375 C 150.535156 117.015625 149.773438 114.890625 148.246094 112.726562 L 147.035156 111.328125 L 148.882812 110.183594 L 148.882812 111.328125 L 150.027344 110.628906 L 152.636719 108.71875 L 158.425781 105.597656 C 158.46875 105.261719 158.363281 105.046875 158.109375 104.960938 L 158.363281 104.773438 L 160.019531 91.339844 L 159.507812 91.214844 L 160.144531 90.640625 L 160.144531 90.578125 L 161.480469 80.839844 C 161.949219 78.121094 163.410156 73.390625 165.871094 66.644531 L 168.480469 59.515625 L 168.988281 59.261719 L 171.027344 58.304688 L 164.726562 74.601562 C 164.046875 76.425781 163.09375 81.644531 161.863281 90.257812 L 163.070312 89.304688 L 164.152344 88.539062 L 165.234375 79.757812 L 165.425781 79.757812 C 165.851562 79.757812 167.230469 82.195312 169.5625 87.078125 M 78.949219 130.679688 L 79.140625 127.941406 L 78.882812 123.167969 L 79.140625 123.105469 L 81.429688 128.769531 C 81.726562 128.769531 81.917969 128.664062 82.003906 128.449219 L 83.019531 134.050781 L 78.949219 130.679688 M 169.117188 41.882812 C 168.820312 42.691406 168.140625 43.664062 167.082031 44.8125 C 165.425781 46.636719 163.664062 47.695312 161.800781 47.992188 C 148.222656 51.089844 139.421875 52.640625 135.390625 52.640625 L 127.054688 52.003906 L 130.492188 47.613281 L 136.027344 48.441406 L 137.171875 48.121094 L 144.046875 48.183594 C 150.15625 48.183594 155.5 47.507812 160.082031 46.148438 C 163.304688 45.171875 165.320312 44.175781 166.125 43.15625 L 169.117188 41.882812 M 127.820312 51.8125 L 127.882812 51.8125 L 127.820312 51.8125 M 158.109375 91.976562 L 158.363281 92.167969 L 157.535156 97.960938 L 157.664062 98.660156 L 157.410156 98.726562 L 157.089844 103.816406 L 157.21875 104.773438 L 157.535156 104.960938 L 155.945312 105.535156 L 155.308594 105.28125 L 151.679688 107.636719 C 151.597656 107.210938 151.363281 107 150.980469 107 L 145.828125 110.308594 C 144.425781 109.332031 142.859375 108.84375 141.117188 108.84375 L 140.164062 109.035156 C 139.484375 109.035156 139.144531 109.269531 139.144531 109.738281 L 142.328125 112.347656 L 142.136719 112.601562 L 135.644531 115.910156 L 135.328125 115.785156 L 134.820312 115.148438 L 134.375 115.464844 L 131.953125 115.082031 L 131 115.273438 C 130.320312 115.273438 129.980469 115.507812 129.980469 115.976562 L 132.019531 117.691406 L 131.636719 117.882812 C 129.644531 118.859375 127.648438 120.027344 125.65625 121.386719 L 125.210938 121.765625 L 124.828125 121.957031 C 123.726562 121.449219 122.539062 121.195312 121.265625 121.195312 L 120.308594 121.386719 C 119.632812 121.386719 119.292969 121.617188 119.292969 122.085938 L 121.835938 124.25 C 119.96875 125.691406 118.105469 127.285156 116.238281 129.023438 L 116.175781 129.085938 L 114.964844 127.496094 C 114.582031 127.496094 114.285156 128.027344 114.074219 129.085938 L 113.882812 130.871094 L 113.882812 130.996094 L 112.039062 132.269531 L 112.039062 132.015625 L 110.445312 133.351562 C 108.960938 130.890625 103.742188 124.101562 94.792969 112.984375 L 91.421875 108.273438 L 86.265625 101.078125 L 86.394531 100.953125 C 86.394531 100.78125 86.457031 100.675781 86.585938 100.632812 L 86.585938 100.570312 C 87.558594 101.25 89.171875 101.824219 91.421875 102.289062 L 111.71875 103.625 C 118.507812 103.625 127.078125 102.289062 137.425781 99.617188 L 151.679688 95.796875 L 151.746094 95.414062 C 152 94.992188 153.503906 94.332031 156.261719 93.441406 L 158.109375 91.976562 M 161.097656 90.832031 L 161.035156 90.769531 L 160.207031 91.277344 L 161.035156 90.832031 L 161.097656 90.832031 M 99.5 93.25 L 99.183594 93.058594 L 99.183594 92.933594 L 99.375 92.867188 L 100.265625 93.378906 L 102.8125 93.441406 L 129.410156 89.113281 L 146.910156 86.441406 L 153.652344 85.230469 L 155.179688 84.277344 C 155.4375 84.277344 155.5625 84.339844 155.5625 84.464844 L 155.5 84.65625 C 154.863281 85.847656 147.757812 87.882812 134.183594 90.769531 C 120.308594 93.695312 111.1875 95.160156 106.820312 95.160156 C 103.214844 95.160156 101.027344 94.90625 100.265625 94.394531 L 99.5 93.25 M 152.445312 95.542969 L 152.382812 95.542969 L 152.0625 95.667969 L 152.445312 95.542969 M 170.898438 105.980469 L 167.335938 110.054688 L 167.082031 102.351562 C 167.589844 101.714844 168.078125 100.210938 168.542969 97.832031 L 169.625 92.105469 L 169.625 94.140625 L 170.773438 105.855469 L 170.898438 105.980469 M 133.417969 118.773438 L 133.863281 119.222656 C 134.117188 120.027344 134.820312 121.152344 135.964844 122.59375 L 136.664062 123.421875 L 136.792969 124.503906 C 136.535156 127.007812 134.628906 128.257812 131.0625 128.257812 L 130.109375 127.433594 L 130.109375 127.304688 L 126.609375 122.59375 L 132.402344 119.09375 L 133.292969 118.648438 L 133.417969 118.773438 M 143.089844 113.492188 L 143.410156 113.363281 C 145.105469 115.0625 145.953125 116.695312 145.953125 118.265625 C 145.699219 120.640625 143.960938 121.894531 140.738281 122.023438 C 140.355469 121.003906 139.804688 119.984375 139.082031 118.964844 C 138.445312 118.074219 137.722656 117.332031 136.917969 116.738281 C 138.53125 115.847656 140.589844 114.765625 143.089844 113.492188 M 126.039062 129.660156 C 124.214844 130.167969 122.429688 130.871094 120.691406 131.761719 L 118.910156 132.714844 L 117.191406 130.421875 L 118.210938 129.40625 L 122.664062 125.011719 L 122.792969 124.949219 C 124.617188 126.605469 125.699219 128.175781 126.039062 129.660156 M 118.65625 28.769531 C 116.324219 27.921875 112.929688 26.480469 108.472656 24.441406 L 102.175781 21.578125 L 101.21875 20.625 C 100.414062 19.945312 100.011719 19.351562 100.011719 18.839844 C 100.011719 18.203125 102.070312 16.71875 106.183594 14.386719 L 110.957031 11.585938 L 111.148438 11.777344 L 111.148438 11.519531 L 115.28125 14.511719 C 118.421875 16.761719 119.992188 18.460938 119.992188 19.605469 L 118.65625 27.753906 L 118.65625 28.769531 M 118.273438 80.648438 C 118.1875 80.988281 117.871094 81.242188 117.320312 81.410156 L 110.445312 81.855469 C 102.8125 81.855469 97.699219 81.730469 95.109375 81.476562 L 94.792969 81.476562 L 94.15625 81.347656 L 93.203125 81.09375 L 93.394531 80.710938 L 92.3125 80.265625 L 92.183594 79.949219 L 92.375 79.882812 L 91.929688 79.3125 L 91.738281 78.867188 L 91.230469 78.355469 L 91.355469 78.230469 L 90.464844 75.875 L 90.464844 75.808594 L 90.59375 75.492188 L 90.464844 75.363281 C 90.507812 75.066406 90.679688 74.917969 90.976562 74.917969 C 109.046875 78.015625 118.082031 79.734375 118.082031 80.074219 L 117.957031 80.519531 L 118.273438 80.648438 M 92.4375 79.628906 L 92.375 79.882812 L 92.691406 79.949219 L 92.4375 79.628906 "/>
<path style=" stroke:none;fill-rule:evenodd;fill:rgb(20%,20%,20%);fill-opacity:1;" d="M 180.445312 18.011719 L 180.699219 17.886719 L 180.699219 17.441406 L 181.082031 16.929688 L 181.015625 16.929688 L 181.082031 16.867188 L 181.335938 16.550781 L 182.164062 15.53125 L 186.296875 16.484375 C 186.296875 18.820312 185.511719 23.085938 183.945312 29.28125 L 182.097656 35.773438 C 182.015625 37.089844 180.847656 39.273438 178.597656 42.328125 L 179.234375 43.09375 L 170.515625 50.285156 L 170.453125 50.285156 L 170.644531 50.476562 L 176.371094 52.003906 L 176.371094 52.386719 L 173.0625 55.3125 L 173.0625 55.441406 L 172.363281 55.503906 L 171.597656 56.332031 L 170.960938 56.652344 L 170.453125 56.839844 L 170.136719 56.96875 L 169.371094 57.160156 L 167.527344 57.667969 L 167.144531 58.496094 L 160.335938 61.488281 C 150.707031 65.605469 142.476562 67.664062 135.644531 67.664062 C 129.113281 67.664062 123.511719 66.324219 118.847656 63.652344 L 111.210938 57.921875 L 106.4375 55.121094 L 102.492188 52.703125 L 105.546875 54.230469 L 103.574219 53.023438 C 101.410156 52.214844 100.328125 51.324219 100.328125 50.347656 L 100.394531 50.03125 L 99.375 49.394531 L 95.621094 47.230469 C 93.625 45.574219 92.480469 44.746094 92.183594 44.746094 L 92.183594 44.683594 L 101.472656 47.675781 L 105.164062 49.394531 C 106.734375 50.15625 108.558594 50.710938 110.636719 51.050781 L 110.636719 51.429688 L 113.691406 51.429688 L 113.882812 51.304688 C 112.101562 49.140625 109.980469 47.527344 107.519531 46.464844 L 107.457031 46.464844 L 107.457031 46.085938 C 99.015625 40.1875 94.792969 36.113281 94.792969 33.863281 C 95.9375 32.800781 96.511719 31.59375 96.511719 30.234375 L 96.574219 30.171875 C 97.421875 31.273438 98.949219 32.632812 101.15625 34.246094 C 104.125 36.410156 106.332031 37.492188 107.773438 37.492188 L 108.09375 37.425781 L 108.027344 37.363281 L 107.964844 37.300781 L 96.449219 29.40625 C 96.320312 28.558594 96.023438 27.902344 95.554688 27.433594 C 94.921875 26.753906 94.601562 25.84375 94.601562 24.695312 C 94.601562 23.085938 95.578125 21.472656 97.527344 19.859375 L 98.738281 18.90625 L 99.4375 20.8125 L 100.582031 22.34375 C 102.152344 24.082031 108.496094 26.777344 119.609375 30.425781 L 131.382812 35.328125 C 137.277344 37.832031 141.011719 39.082031 142.582031 39.082031 C 144.320312 39.082031 149.261719 37.152344 157.410156 33.289062 L 162.882812 30.425781 L 165.363281 29.089844 L 165.425781 29.089844 C 166.445312 29.089844 171.40625 25.398438 180.316406 18.011719 L 180.445312 18.011719 M 81.429688 99.550781 L 81.429688 97.386719 L 83.847656 100.761719 L 81.429688 99.550781 M 81.429688 94.585938 L 81.429688 86.632812 L 83.210938 82.175781 L 87.476562 73.710938 C 88.027344 73.371094 88.917969 72.183594 90.148438 70.144531 C 91.929688 67.257812 93.414062 65.285156 94.601562 64.226562 C 99.945312 59.683594 102.851562 56.585938 103.320312 54.933594 L 109.492188 58.496094 C 111.402344 59.429688 114.179688 61.53125 117.828125 64.796875 C 122.496094 67.597656 129.535156 69 138.953125 69 C 145.019531 69 152 67.089844 159.890625 63.269531 C 161.207031 62.886719 163.328125 61.996094 166.253906 60.597656 L 164.535156 64.863281 C 162.160156 71.183594 160.738281 76.148438 160.273438 79.757812 L 158.425781 91.40625 L 158.425781 91.722656 L 158.109375 91.976562 L 156.261719 93.441406 C 153.503906 94.332031 152 94.992188 151.746094 95.414062 L 151.679688 95.542969 L 151.679688 95.796875 L 137.425781 99.617188 C 127.078125 102.289062 118.507812 103.625 111.71875 103.625 L 91.421875 102.289062 C 89.171875 101.824219 87.558594 101.25 86.585938 100.570312 L 86.585938 100.632812 L 86.140625 100.890625 L 81.429688 94.585938 M 81.429688 83.195312 L 81.429688 66.644531 L 79.773438 66.644531 L 80.792969 65.117188 L 81.683594 64.160156 L 86.964844 57.414062 L 90.785156 53.277344 C 92.058594 51.875 92.691406 50.519531 92.691406 49.203125 L 92.503906 47.355469 L 92.628906 47.355469 L 94.21875 48.757812 C 94.855469 48.84375 95.257812 49.183594 95.429688 49.777344 L 102.300781 54.296875 L 93.648438 63.269531 L 91.546875 65.753906 L 89.574219 68.300781 L 86.902344 72.117188 L 86.710938 72.054688 L 82.957031 79.820312 L 81.429688 83.195312 M 183.179688 54.996094 C 180.847656 57.964844 179 60.683594 177.644531 63.144531 C 176.328125 65.476562 174.675781 69.785156 172.679688 76.066406 C 172.042969 77.890625 171.003906 81.558594 169.5625 87.078125 C 167.230469 82.195312 165.851562 79.757812 165.425781 79.757812 L 165.234375 79.757812 L 164.152344 88.539062 L 163.070312 89.304688 L 161.863281 90.257812 C 163.09375 81.644531 164.046875 76.425781 164.726562 74.601562 L 171.027344 58.304688 L 174.335938 56.585938 L 180.125 56.015625 L 182.671875 54.550781 L 183.179688 54.996094 M 140.292969 166.195312 C 134.523438 168.359375 129.898438 169.441406 126.417969 169.441406 L 110.191406 167.789062 C 103.234375 166.726562 97.65625 165.625 93.457031 164.476562 L 82.195312 161.105469 L 76.085938 159.578125 L 74.75 158.621094 L 73.792969 157.984375 L 74.046875 155.503906 L 74.113281 155.503906 C 74.789062 152.914062 75.511719 148.988281 76.277344 143.726562 C 77.675781 138 78.566406 133.648438 78.949219 130.679688 L 83.019531 134.050781 L 82.003906 128.449219 L 81.429688 125.777344 L 80.667969 122.46875 L 79.265625 117.882812 L 79.902344 117.691406 C 80.707031 117.691406 82.066406 118.308594 83.976562 119.539062 L 84.101562 119.410156 C 88.515625 122.722656 91.632812 124.863281 93.457031 125.839844 C 96.382812 127.324219 99.542969 128.21875 102.9375 128.515625 L 106.691406 134.304688 C 108.515625 137.234375 109.660156 138.699219 110.128906 138.699219 C 111.359375 138.699219 113.269531 137.382812 115.855469 134.753906 L 116.109375 134.941406 C 118.0625 137.402344 120.203125 138.636719 122.539062 138.636719 L 123.046875 138.636719 C 125.71875 138.507812 127.753906 137.445312 129.15625 135.453125 C 130.046875 134.265625 130.554688 133.117188 130.683594 132.015625 C 131.488281 132.355469 132.335938 132.523438 133.226562 132.523438 C 135.6875 132.523438 137.640625 131.78125 139.082031 130.296875 L 139.082031 130.550781 L 139.335938 130.105469 L 139.273438 130.105469 L 139.84375 129.339844 L 139.972656 129.152344 L 140.546875 129.277344 L 142.453125 129.851562 L 142.773438 129.851562 L 142.644531 129.976562 L 142.710938 130.105469 C 142.710938 130.53125 142.539062 130.742188 142.199219 130.742188 L 142.007812 130.613281 L 139.71875 132.523438 C 139.25 133.542969 138.253906 134.625 136.726562 135.769531 C 133.96875 137.851562 130.492188 138.890625 126.292969 138.890625 L 124.636719 138.824219 L 123.109375 138.953125 L 123.046875 138.636719 L 123.046875 138.953125 L 124.320312 141.308594 L 124.828125 142.199219 L 124.511719 141.4375 L 126.738281 145.128906 L 126.484375 145.320312 L 127.882812 147.484375 L 128.773438 148.628906 L 129.917969 149.773438 L 130.875 150.601562 L 131.636719 151.238281 C 134.054688 153.445312 136.238281 155.882812 138.191406 158.558594 L 139.273438 161.804688 C 139.359375 163.375 139.507812 164.519531 139.71875 165.242188 L 139.65625 165.433594 C 139.65625 165.855469 139.867188 166.070312 140.292969 166.070312 L 140.292969 166.195312 M 130.492188 47.613281 L 127.054688 52.003906 L 135.390625 52.640625 C 139.421875 52.640625 148.222656 51.089844 161.800781 47.992188 C 163.664062 47.695312 165.425781 46.636719 167.082031 44.8125 C 168.140625 43.664062 168.820312 42.691406 169.117188 41.882812 L 171.027344 40.929688 C 174.039062 39.359375 175.542969 38.402344 175.542969 38.0625 C 175.542969 37.597656 175.3125 37.363281 174.84375 37.363281 C 171.960938 38.808594 169.691406 39.972656 168.035156 40.863281 C 166.167969 40.90625 165.234375 41.121094 165.234375 41.5 L 165.363281 41.628906 C 161.503906 44.046875 159.105469 45.363281 158.171875 45.574219 L 141.5625 46.847656 L 135.773438 46.976562 L 135.710938 46.976562 L 131.253906 46.464844 C 129.386719 45.449219 128.011719 44.9375 127.117188 44.9375 C 126.695312 44.9375 126.484375 45.191406 126.484375 45.703125 L 129.15625 47.101562 L 130.492188 47.613281 M 131.191406 58.816406 C 129.832031 58.730469 129.15625 58.941406 129.15625 59.453125 C 129.15625 60.003906 131.488281 60.320312 136.15625 60.40625 L 147.671875 59.261719 C 151.617188 58.496094 153.589844 57.902344 153.589844 57.476562 C 153.632812 57.054688 153.292969 56.839844 152.574219 56.839844 C 147.058594 58.328125 141.605469 59.070312 136.21875 59.070312 L 131.191406 58.816406 M 155.5 84.65625 L 155.691406 84.464844 C 155.648438 84 155.414062 83.765625 154.992188 83.765625 L 128.011719 88.09375 L 104.019531 91.785156 C 100.414062 92.210938 98.609375 92.550781 98.609375 92.804688 C 98.609375 92.976562 98.90625 93.125 99.5 93.25 L 100.265625 94.394531 C 101.027344 94.90625 103.214844 95.160156 106.820312 95.160156 C 111.1875 95.160156 120.308594 93.695312 134.183594 90.769531 C 147.757812 87.882812 154.863281 85.847656 155.5 84.65625 M 140.417969 75.746094 L 136.089844 75.300781 C 132.527344 75.003906 129.453125 74.199219 126.863281 72.882812 C 122.113281 70.800781 119.121094 69.402344 117.890625 68.679688 C 107.582031 63.164062 101.878906 60.40625 100.773438 60.40625 C 100.222656 60.40625 99.945312 60.617188 99.945312 61.042969 C 99.945312 61.890625 105.292969 64.605469 115.984375 69.191406 C 117.765625 69.996094 120.585938 71.503906 124.445312 73.710938 C 128.433594 75.535156 132.824219 76.445312 137.617188 76.445312 C 139.484375 76.445312 140.417969 76.214844 140.417969 75.746094 M 126.039062 129.660156 L 126.101562 130.613281 C 125.847656 133.117188 123.9375 134.371094 120.375 134.371094 L 119.417969 133.542969 L 119.417969 133.414062 L 118.910156 132.714844 L 120.691406 131.761719 C 122.429688 130.871094 124.214844 130.167969 126.039062 129.660156 M 131.953125 129.597656 L 130.617188 130.421875 L 130.363281 129.085938 L 131.953125 129.597656 M 106.4375 55.121094 L 107.773438 55.378906 L 106.628906 54.867188 L 106.4375 55.121094 M 93.203125 81.09375 L 94.15625 81.347656 L 94.792969 81.476562 L 95.109375 81.476562 C 97.699219 81.730469 102.8125 81.855469 110.445312 81.855469 L 117.320312 81.410156 C 117.871094 81.242188 118.1875 80.988281 118.273438 80.648438 L 118.082031 80.074219 C 118.082031 79.734375 109.046875 78.015625 90.976562 74.917969 C 90.679688 74.917969 90.507812 75.066406 90.464844 75.363281 L 90.402344 75.617188 L 90.464844 75.875 L 91.355469 78.230469 L 91.230469 78.355469 L 91.738281 78.867188 L 91.929688 79.3125 L 92.375 79.882812 L 92.183594 79.949219 L 92.3125 80.265625 L 93.394531 80.710938 L 93.328125 80.710938 L 92.820312 80.519531 L 93.136719 81.03125 L 93.203125 81.09375 "/>
<path style=" stroke:none;fill-rule:evenodd;fill:rgb(0%,0%,0%);fill-opacity:1;" d="M 73.539062 104.582031 L 72.140625 104.582031 L 70.992188 101.652344 C 70.359375 99.957031 69.679688 96.5625 68.957031 91.46875 L 68.511719 88.222656 C 68.214844 85.804688 68.066406 84.253906 68.066406 83.574219 C 68.066406 83.152344 68.765625 81.199219 70.167969 77.71875 C 71.398438 74.792969 72.371094 73.007812 73.09375 72.371094 L 76.722656 67.851562 L 77.738281 66.644531 L 79.773438 66.644531 C 77.1875 70.546875 75.277344 72.859375 74.046875 73.582031 L 71.882812 77.402344 C 70.230469 80.625 69.402344 82.726562 69.402344 83.703125 L 69.910156 87.902344 L 69.910156 88.09375 L 69.976562 88.222656 L 70.421875 91.597656 C 71.183594 96.601562 71.820312 99.890625 72.332031 101.460938 L 73.539062 104.582031 M 81.429688 83.195312 L 81.429688 86.632812 L 80.855469 88.222656 L 79.519531 92.167969 L 81.429688 94.585938 L 81.429688 97.386719 L 78.25 92.488281 C 78.25 92.148438 78.355469 91.914062 78.566406 91.785156 C 78.609375 90.980469 78.90625 89.792969 79.457031 88.222656 C 79.921875 86.820312 80.582031 85.144531 81.429688 83.195312 "/>
<path style=" stroke:none;fill-rule:evenodd;fill:rgb(20%,20%,20%);fill-opacity:1;" d="M 79.773438 66.644531 L 81.429688 66.644531 L 81.429688 83.195312 C 80.582031 85.144531 79.921875 86.820312 79.457031 88.222656 C 78.90625 89.792969 78.609375 90.980469 78.566406 91.785156 C 78.355469 91.914062 78.25 92.148438 78.25 92.488281 L 81.429688 97.386719 L 81.429688 99.550781 C 78.84375 98.066406 76.722656 96.328125 75.066406 94.332031 C 73.285156 91.574219 71.757812 89.539062 70.484375 88.222656 L 70.167969 87.902344 L 69.910156 87.902344 L 69.402344 83.703125 C 69.402344 82.726562 70.230469 80.625 71.882812 77.402344 L 74.046875 73.582031 C 75.277344 72.859375 77.1875 70.546875 79.773438 66.644531 M 81.429688 86.632812 L 81.429688 94.585938 L 79.519531 92.167969 L 80.855469 88.222656 L 81.429688 86.632812 "/>
<path style=" stroke:none;fill-rule:evenodd;fill:rgb(8.235294%,3.529412%,11.372549%);fill-opacity:1;" d="M 69.976562 88.222656 L 69.910156 88.09375 L 69.976562 88.09375 L 69.976562 88.222656 "/>
<path style=" stroke:none;fill-rule:evenodd;fill:rgb(41.960785%,9.803922%,14.509805%);fill-opacity:1;" d="M 69.976562 88.222656 L 69.976562 88.09375 C 69.976562 88.011719 70.039062 87.96875 70.167969 87.96875 L 69.976562 88.222656 "/>
<path style=" stroke:none;fill-rule:evenodd;fill:rgb(63.921571%,20.784314%,31.37255%);fill-opacity:1;" d="M 69.910156 88.09375 L 69.910156 87.902344 L 70.167969 87.902344 L 70.167969 87.96875 C 70.039062 87.96875 69.976562 88.011719 69.976562 88.09375 L 69.910156 88.09375 "/>
<path style=" stroke:none;fill-rule:evenodd;fill:rgb(14.509805%,14.509805%,13.725491%);fill-opacity:1;" d="M 81.429688 99.550781 L 81.429688 104.582031 L 73.539062 104.582031 L 72.332031 101.460938 C 71.820312 99.890625 71.183594 96.601562 70.421875 91.597656 L 69.976562 88.222656 L 70.167969 87.96875 L 70.167969 87.902344 L 70.484375 88.222656 C 71.757812 89.539062 73.285156 91.574219 75.066406 94.332031 C 76.722656 96.328125 78.84375 98.066406 81.429688 99.550781 "/>
</g>
</svg>
