<?xml version="1.0" encoding="UTF-8"?>
<svg xmlns="http://www.w3.org/2000/svg" xmlns:xlink="http://www.w3.org/1999/xlink" width="290px" height="542px" viewBox="0 0 290 542" version="1.1">
<g id="surface1">
<path style=" stroke:none;fill-rule:evenodd;fill:rgb(41.960785%,9.803922%,14.509805%);fill-opacity:1;" d="M 146.78125 154.355469 L 146.78125 154.421875 L 146.589844 154.421875 L 146.78125 154.355469 M 102.554688 132.015625 L 102.109375 131.695312 L 102.046875 131.441406 L 102.429688 131.125 L 102.109375 131.695312 L 102.875 131.953125 L 102.746094 132.015625 L 102.554688 132.015625 "/>
<path style=" stroke:none;fill-rule:evenodd;fill:rgb(0%,0%,0%);fill-opacity:1;" d="M 177.835938 47.421875 L 178.089844 47.992188 L 178.597656 47.804688 L 178.597656 46.53125 L 179.554688 45.640625 L 178.726562 44.746094 L 179.808594 45.765625 L 181.90625 43.792969 L 179.363281 41.4375 C 178.34375 40.503906 177.007812 39.890625 175.351562 39.589844 L 174.207031 39.335938 L 174.78125 40.039062 L 176.308594 41.882812 L 170.835938 38.636719 C 164.21875 35.074219 160.824219 32.570312 160.652344 31.125 C 160.1875 30.40625 159.953125 28.390625 159.953125 25.078125 L 160.082031 22.277344 L 155.5625 21.894531 L 156.964844 25.332031 L 157.089844 28.644531 C 157.089844 30.296875 156.519531 32.675781 155.371094 35.773438 L 154.355469 38.253906 L 154.417969 38.320312 L 154.101562 39.144531 L 153.84375 39.527344 L 150.789062 43.285156 L 146.398438 48.058594 C 142.199219 52.640625 138.871094 55.757812 136.410156 57.414062 C 130.683594 60.386719 126.164062 62.910156 122.855469 64.988281 L 116.175781 69.445312 L 112.800781 72.882812 L 112.800781 74.28125 C 112.460938 78.484375 111.910156 81.539062 111.148438 83.449219 L 138.128906 78.546875 L 141.945312 78.546875 L 146.144531 78.929688 C 141.902344 78.675781 134.96875 79.628906 125.335938 81.792969 L 111.972656 84.148438 L 110.703125 84.402344 C 110.148438 85.292969 109.535156 85.761719 108.855469 85.804688 L 107.390625 91.023438 C 107.136719 91.066406 106.90625 91.296875 106.691406 91.722656 L 107.136719 92.042969 L 107.011719 92.359375 L 124.253906 92.296875 L 144.425781 92.550781 L 144.492188 92.804688 L 144.238281 93.25 L 106.691406 93.570312 L 105.863281 101.078125 L 105.738281 116.546875 L 106.691406 116.992188 C 113.4375 120.132812 118.082031 122.105469 120.628906 122.914062 L 126.292969 125.140625 C 128.921875 126.160156 130.765625 126.667969 131.828125 126.667969 L 136.726562 127.175781 C 139.65625 127.644531 141.265625 128.324219 141.5625 129.214844 L 140.992188 129.597656 C 134.160156 129.597656 121.433594 125.246094 102.8125 116.546875 L 102.367188 119.667969 C 102.027344 120.941406 101.855469 122.46875 101.855469 124.25 C 101.855469 125.945312 102.046875 128.238281 102.429688 131.125 L 102.046875 131.441406 L 102.109375 131.695312 L 102.554688 132.015625 L 103.320312 137.296875 C 104.253906 143.28125 104.71875 148.523438 104.71875 153.019531 L 104.273438 158.238281 C 104.570312 160.148438 104.71875 162.824219 104.71875 166.261719 C 112.824219 169.65625 119.84375 172.117188 125.78125 173.644531 L 125.910156 173.898438 C 125.910156 174.152344 125.613281 174.28125 125.019531 174.28125 C 123.320312 174.28125 116.554688 171.863281 104.71875 167.023438 L 103.828125 172.625 L 117.128906 175.296875 C 117.128906 175.59375 116.726562 175.746094 115.917969 175.746094 L 103.574219 173.578125 L 103.257812 174.664062 C 101.984375 178.949219 101.199219 181.917969 100.902344 183.574219 C 99.417969 191.722656 98.867188 197.535156 99.246094 201.015625 L 98.992188 201.207031 L 99.246094 201.207031 L 112.546875 201.523438 C 119.25 201.523438 125.929688 200.460938 132.589844 198.339844 C 136.027344 197.238281 139.335938 195.964844 142.519531 194.523438 L 153.972656 191.277344 L 155.246094 190.957031 L 155.308594 191.019531 L 155.625 190.828125 L 155.816406 190.765625 L 160.144531 189.109375 L 161.226562 187.328125 C 161.226562 186.863281 159.804688 184.210938 156.964844 179.371094 L 155.5 176.761719 L 155.371094 176.761719 C 154.992188 176.761719 153.484375 173.855469 150.855469 168.042969 L 151.109375 176.761719 L 151.109375 177.273438 L 150.601562 177.460938 C 149.921875 177.460938 149.601562 176.042969 149.644531 173.199219 L 149.644531 166.449219 C 149.433594 164.667969 148.902344 162.695312 148.054688 160.53125 C 147.417969 158.875 147.078125 157.414062 147.035156 156.140625 L 146.78125 155.503906 L 146.78125 154.101562 L 146.71875 154.230469 L 146.589844 154.421875 C 144.300781 158.410156 141.542969 161.632812 138.320312 164.097656 L 137.746094 163.523438 C 141.988281 160.550781 144.851562 156.859375 146.335938 152.449219 L 148.5 146.78125 C 148.753906 146.273438 148.882812 145.339844 148.882812 143.980469 C 148.882812 143.34375 148.945312 142.816406 149.074219 142.390625 L 149.074219 142.328125 L 149.007812 142.390625 C 147.140625 144.722656 145.871094 146.039062 145.191406 146.335938 L 144.300781 146.335938 L 144.109375 145.765625 L 149.074219 140.226562 C 150.429688 138.699219 150.980469 136.851562 150.726562 134.6875 C 150.515625 132.355469 152.53125 129.128906 156.773438 125.011719 L 156.644531 124.824219 L 162.5 115.59375 L 162.5625 115.464844 L 162.179688 115.402344 L 161.992188 114.890625 L 162.4375 114.511719 L 164.664062 109.925781 C 166.316406 106.574219 167.144531 103.730469 167.144531 101.398438 L 166.828125 97.832031 L 167.460938 98.023438 L 167.90625 98.023438 L 169.117188 90.960938 L 169.246094 90.960938 L 169.625 90.578125 L 169.246094 90.132812 L 170.007812 85.421875 L 170.007812 78.101562 L 170.070312 77.527344 L 169.816406 78.039062 L 169.625 78.609375 L 170.261719 74.089844 L 170.261719 74.027344 L 170.453125 73.390625 L 170.898438 72.308594 L 171.089844 71.800781 L 171.34375 70.398438 C 171.34375 68.109375 171.703125 66.433594 172.425781 65.371094 L 172.488281 65.308594 L 172.488281 65.242188 L 172.363281 65.242188 L 172.171875 65.308594 L 172.679688 63.523438 C 173.230469 59.238281 173.824219 56.015625 174.460938 53.851562 C 175.140625 51.347656 176.265625 49.203125 177.835938 47.421875 M 183.433594 43.730469 C 183.433594 44.28125 181.757812 46.042969 178.40625 49.011719 L 178.089844 49.011719 C 176.816406 50.964844 176.117188 52.917969 175.988281 54.867188 C 175.945312 56.015625 175.351562 57.625 174.207031 59.707031 L 173.699219 64.480469 L 173.636719 64.925781 L 173.699219 64.988281 C 173.699219 66.769531 173.042969 69.507812 171.726562 73.199219 L 170.835938 86.183594 C 170.792969 87.714844 170.390625 90.089844 169.625 93.3125 L 169.308594 97.324219 C 169.179688 98.726562 168.839844 99.679688 168.289062 100.1875 L 168.289062 101.460938 C 168.289062 103.246094 167.632812 105.855469 166.316406 109.292969 L 164.472656 113.429688 L 164.535156 113.621094 C 164.535156 114.46875 162.5 117.949219 158.425781 124.058594 L 158.617188 124.695312 C 158.617188 125.246094 156.941406 127.261719 153.589844 130.742188 C 152.574219 132.101562 152.019531 133.183594 151.9375 133.988281 L 152.0625 136.660156 C 152.0625 137.722656 151.277344 139.355469 149.707031 141.5625 L 150.027344 144.046875 C 150.027344 146.632812 149.15625 149.605469 147.417969 152.957031 L 147.863281 154.421875 L 149.074219 158.175781 C 150.132812 161.484375 150.683594 163.839844 150.726562 165.242188 L 150.789062 166.832031 L 151.171875 166.769531 C 151.976562 166.769531 153.484375 169.78125 155.691406 175.808594 L 156.707031 177.652344 L 160.464844 182.808594 C 161.734375 184.550781 162.371094 186.121094 162.371094 187.519531 L 161.863281 188.921875 L 161.863281 188.984375 C 161.863281 189.832031 158.976562 191.019531 153.207031 192.546875 C 151.597656 192.886719 149.964844 193.417969 148.308594 194.140625 C 146.101562 194.523438 144.066406 195.074219 142.199219 195.792969 L 132.273438 199.675781 C 125.867188 201.671875 119.292969 202.667969 112.546875 202.667969 C 92.4375 202.667969 79.773438 200.589844 74.558594 196.429688 C 72.691406 194.945312 71.652344 193.078125 71.4375 190.828125 L 71.566406 185.355469 L 72.902344 174.472656 L 72.839844 174.214844 L 73.03125 173.644531 L 73.03125 173.453125 L 73.15625 172.816406 L 73.222656 172.878906 L 75.320312 165.558594 L 74.8125 164.097656 C 74.8125 163.460938 75.109375 162.230469 75.703125 160.402344 C 76.167969 158.960938 76.636719 158.027344 77.101562 157.601562 L 77.800781 154.992188 L 79.519531 148.628906 L 80.730469 142.199219 L 81.238281 135.835938 C 81.238281 132.90625 81.070312 129.976562 80.730469 127.050781 L 80.730469 122.914062 C 79.753906 119.476562 78.90625 116.972656 78.183594 115.402344 C 76.699219 112.175781 75.957031 109.25 75.957031 106.617188 L 75.957031 105.789062 L 76.210938 103.878906 L 76.148438 103.816406 C 74.113281 101.058594 72.882812 99.023438 72.457031 97.707031 L 71.566406 96.179688 L 69.976562 92.296875 C 69.59375 91.363281 69.402344 89.15625 69.402344 85.675781 C 69.402344 81.390625 70.507812 77.167969 72.710938 73.007812 C 74.875 68.933594 78.078125 64.925781 82.320312 60.980469 L 82.765625 59.832031 C 85.949219 50.792969 87.539062 45.40625 87.539062 43.664062 L 86.648438 37.492188 C 86.648438 37.152344 87.242188 36.621094 88.429688 35.898438 C 89.660156 35.222656 90.613281 34.882812 91.292969 34.882812 L 91.738281 35.074219 L 98.546875 33.480469 C 105.082031 32.082031 110.574219 30.554688 115.027344 28.898438 L 115.09375 28.898438 L 116.046875 26.605469 C 116.046875 25.460938 115.835938 24.25 115.410156 22.976562 L 115.410156 21.960938 L 115.28125 21.894531 L 115.21875 21.449219 C 115.21875 20.304688 115.664062 19.730469 116.554688 19.730469 C 117.191406 19.730469 118.445312 20.070312 120.308594 20.75 C 120.566406 20.75 120.753906 20.835938 120.882812 21.003906 L 121.328125 21.195312 L 121.519531 20.941406 L 121.902344 21.386719 L 122.09375 21.449219 L 122.09375 21.640625 C 122.09375 22.40625 121.199219 25.460938 119.417969 30.808594 C 119.375 34.457031 118.867188 37.046875 117.890625 38.574219 C 117.59375 42.308594 116.34375 47.929688 114.136719 55.441406 C 111.972656 62.738281 110.976562 68.425781 111.148438 72.5 C 112.25 70.421875 116.238281 67.34375 123.109375 63.269531 C 125.402344 61.914062 127.734375 60.597656 130.109375 59.324219 L 130.109375 59.261719 L 145.382812 41.375 L 149.707031 36.855469 C 151.492188 34.945312 152.488281 33.394531 152.699219 32.207031 C 152.828125 28.007812 153.273438 25.035156 154.035156 23.296875 L 153.84375 22.023438 C 153.84375 21.683594 153.910156 21.386719 154.035156 21.132812 L 154.101562 21.132812 L 154.355469 20.75 L 154.417969 20.8125 L 155.625 20.496094 L 159.253906 21.070312 L 160.207031 21.386719 L 160.527344 20.113281 L 160.910156 21.578125 L 161.289062 21.769531 L 160.972656 22.152344 L 161.289062 30.109375 L 161.289062 30.171875 C 162.308594 31.527344 164.640625 33.332031 168.289062 35.582031 L 168.289062 35.390625 L 169.117188 35.261719 C 169.625 35.261719 170.773438 36.007812 172.554688 37.492188 L 178.027344 39.210938 C 181.632812 41.542969 183.433594 43.050781 183.433594 43.730469 M 156.074219 27.945312 L 155.5625 24.824219 L 155.5625 25.332031 L 156.074219 27.945312 M 151.300781 40.929688 C 151.171875 40.800781 151.109375 40.609375 151.109375 40.355469 L 152.253906 39.910156 L 153.84375 37.808594 C 154.183594 36.917969 154.355469 35.792969 154.355469 34.4375 L 155.816406 30.363281 C 155.4375 29.894531 155.074219 28.960938 154.734375 27.5625 C 154.609375 31.082031 153.824219 33.925781 152.382812 36.089844 L 145.445312 43.664062 C 144.34375 45.574219 143.175781 46.976562 141.945312 47.867188 C 140.207031 49.140625 138.953125 50.582031 138.191406 52.195312 C 137.765625 53.085938 136.621094 54.402344 134.753906 56.140625 L 132.972656 57.796875 L 135.710938 56.394531 L 140.671875 51.8125 C 142.792969 49.691406 144.617188 48.101562 146.144531 47.039062 C 147.757812 45.894531 149.261719 44.28125 150.664062 42.203125 L 151.492188 41.054688 L 151.554688 40.929688 L 151.300781 40.929688 M 144.492188 111.964844 L 147.546875 109.671875 L 159.125 100.890625 L 159.570312 101.398438 C 159.570312 102.203125 155.816406 105.152344 148.308594 110.246094 C 144.957031 113.300781 139.84375 115.273438 132.972656 116.164062 L 132.464844 115.785156 L 139.335938 114.066406 C 141.5 113.554688 143.21875 112.855469 144.492188 111.964844 M 100.203125 34.054688 L 97.273438 34.5 C 94.855469 35.476562 92.925781 35.964844 91.484375 35.964844 L 91.230469 35.898438 L 89.765625 36.535156 C 88.578125 37.003906 87.984375 37.449219 87.984375 37.875 L 88.683594 43.792969 C 88.683594 46.042969 87.8125 49.648438 86.074219 54.613281 L 84.039062 59.832031 L 83.65625 60.722656 L 83.71875 60.851562 L 83.402344 61.234375 L 82.828125 61.933594 L 82.765625 61.871094 C 79.542969 65.308594 76.488281 69.019531 73.601562 73.007812 L 73.476562 73.199219 C 73.179688 73.625 72.480469 75.789062 71.375 79.691406 C 70.953125 81.261719 70.675781 82.683594 70.546875 83.957031 L 70.546875 84.085938 L 70.359375 84.085938 L 70.359375 84.722656 L 70.484375 85.167969 L 70.421875 85.867188 C 70.421875 88.835938 70.65625 90.9375 71.121094 92.167969 C 71.417969 93.101562 72.140625 94.4375 73.285156 96.179688 L 74.621094 98.277344 L 74.558594 98.597656 L 74.558594 98.660156 L 79.710938 105.789062 L 82.382812 109.546875 C 83.191406 110.648438 85.734375 112.855469 90.019531 116.164062 C 91.460938 117.480469 94.21875 119.667969 98.292969 122.722656 C 98.292969 122.933594 98.144531 123.039062 97.847656 123.039062 C 96.828125 123.039062 94.242188 121.320312 90.085938 117.882812 L 81.238281 109.925781 L 81.113281 109.800781 L 77.675781 105.789062 L 77.421875 105.472656 L 77.613281 105.789062 L 80.539062 110.308594 L 80.601562 110.375 C 82.765625 113.554688 85.671875 117.460938 89.320312 122.085938 L 89.257812 122.53125 C 89.382812 122.617188 89.300781 122.65625 89.003906 122.65625 C 88.492188 122.65625 86.097656 119.859375 81.8125 114.257812 L 77.738281 107.953125 L 77.101562 106.617188 L 77.101562 107.890625 L 77.039062 108.335938 C 77.25 109.863281 77.761719 111.582031 78.566406 113.492188 C 80.558594 118.625 81.597656 121.9375 81.683594 123.421875 L 81.367188 123.804688 L 81.300781 123.867188 L 81.429688 123.929688 L 81.683594 124.058594 L 82.066406 129.46875 L 82.257812 136.152344 C 82.257812 140.949219 81.683594 145.359375 80.539062 149.390625 C 80.242188 152.152344 79.5625 155.25 78.503906 158.683594 L 78.25 158.558594 L 77.167969 160.722656 C 76.316406 161.910156 75.894531 163.015625 75.894531 164.03125 L 75.957031 164.476562 C 76.339844 164.519531 76.464844 164.773438 76.339844 165.242188 L 76.277344 166.070312 C 76.996094 167.894531 78.671875 169.804688 81.300781 171.796875 C 84.867188 174.511719 86.648438 176.042969 86.648438 176.378906 L 86.648438 176.636719 L 86.265625 176.699219 L 86.328125 176.890625 L 86.011719 176.953125 L 82.195312 173.707031 C 79.816406 172.476562 78.417969 171.394531 77.992188 170.460938 L 76.085938 167.152344 L 74.9375 170.398438 C 74.726562 170.863281 74.558594 171.734375 74.429688 173.007812 L 74.113281 174.214844 C 73.558594 176.167969 73.179688 178.183594 72.964844 180.261719 L 72.648438 180.964844 L 72.839844 181.34375 L 72.839844 181.726562 C 72.710938 182.957031 72.648438 184.210938 72.648438 185.484375 L 72.710938 190.894531 C 73.09375 193.015625 74.261719 194.753906 76.210938 196.113281 C 79.691406 198.574219 86.371094 200.207031 96.257812 201.015625 C 96.085938 200.589844 95.980469 199.972656 95.9375 199.167969 L 95.9375 196.75 C 95.9375 193.269531 97.042969 187.625 99.246094 179.816406 L 100.773438 173.644531 L 100.902344 173.070312 L 100.648438 173.007812 L 100.328125 173.453125 L 99.820312 172.878906 L 84.101562 169.632812 L 84.101562 169.316406 C 84.101562 169.0625 84.292969 168.933594 84.675781 168.933594 L 100.011719 171.925781 L 101.09375 165.496094 C 91.84375 161.675781 86.246094 159.238281 84.292969 158.175781 C 84.292969 157.792969 84.421875 157.601562 84.675781 157.601562 C 84.972656 157.601562 89.785156 159.683594 99.121094 163.839844 L 101.21875 164.796875 L 101.472656 162.824219 L 101.664062 157.792969 L 101.410156 155.121094 C 101.324219 154.015625 101.472656 153.253906 101.855469 152.828125 C 101.730469 151.386719 101.664062 149.351562 101.664062 146.71875 C 101.582031 143.578125 101.136719 140.839844 100.328125 138.507812 C 99.734375 136.726562 99.332031 133.628906 99.121094 129.214844 L 99.246094 128.894531 L 99.183594 128.578125 L 99.121094 128.578125 L 98.992188 122.847656 L 98.992188 121.894531 C 98.992188 118.542969 99.417969 116.355469 100.265625 115.339844 L 96.128906 113.363281 C 96.339844 112.941406 96.617188 112.726562 96.957031 112.726562 C 97.210938 112.726562 98.90625 113.429688 102.046875 114.828125 C 102.34375 114.277344 102.492188 113.195312 102.492188 111.582031 L 102.238281 100.761719 C 102.238281 97.578125 102.449219 95.179688 102.875 93.570312 L 98.039062 93.632812 L 92.183594 94.015625 L 90.210938 94.332031 L 82.765625 94.96875 L 81.046875 94.96875 L 79.140625 94.777344 L 81.046875 94.652344 L 90.210938 93.886719 L 103.191406 92.488281 L 103.191406 92.296875 L 103.574219 91.976562 L 103.574219 91.660156 L 103.257812 91.660156 L 103.320312 91.40625 C 103.660156 88.433594 104.339844 86.441406 105.355469 85.421875 L 90.210938 88.09375 L 81.046875 89.367188 L 80.667969 89.367188 L 79.585938 89.429688 L 79.140625 89.242188 L 79.839844 89.050781 L 81.046875 88.667969 L 90.210938 86.886719 L 95.8125 85.996094 L 105.675781 84.464844 L 104.71875 83.449219 C 104.71875 82.855469 105.503906 80.964844 107.074219 77.785156 L 109.746094 72.882812 C 108.984375 72.160156 108.324219 70.761719 107.773438 68.679688 C 107.179688 66.433594 106.882812 64.734375 106.882812 63.589844 C 106.882812 60.449219 107.5 56.863281 108.730469 52.832031 L 112.355469 41.882812 C 112.824219 40.226562 113.648438 38.53125 114.835938 36.792969 L 114.835938 36.726562 L 116.175781 33.609375 L 116.238281 33.417969 L 116.746094 31 L 117.445312 28.324219 L 117.765625 27.050781 C 118.484375 24.464844 119.078125 22.679688 119.546875 21.707031 L 116.554688 20.878906 L 116.554688 21.832031 C 116.472656 21.917969 116.363281 21.980469 116.238281 22.023438 L 117.128906 26.859375 L 117.128906 27.117188 L 117.066406 28.199219 L 115.855469 29.597656 L 115.410156 30.042969 L 115.347656 29.980469 L 111.71875 31.445312 L 106.246094 33.289062 L 104.273438 33.542969 L 104.019531 33.609375 L 102.429688 33.671875 C 101.113281 33.628906 100.371094 33.757812 100.203125 34.054688 M 117.890625 31.953125 L 117.320312 33.992188 L 116.746094 35.390625 L 113.375 42.457031 L 109.746094 53.023438 C 108.558594 56.882812 107.964844 60.386719 107.964844 63.523438 C 107.964844 65.605469 108.515625 67.621094 109.621094 69.570312 L 110.191406 70.589844 L 110.128906 69.570312 C 110.128906 66.855469 110.511719 64.203125 111.273438 61.617188 L 113.882812 52.578125 L 116.683594 39.019531 L 116.554688 38.765625 L 117 37.554688 L 117.320312 35.964844 L 117.445312 35.964844 L 118.273438 31 L 117.890625 31.953125 M 111.78125 74.15625 L 111.78125 73.964844 L 111.527344 74.15625 L 110.890625 73.964844 L 110.828125 73.582031 L 110.703125 73.582031 L 110.574219 73.390625 L 110.445312 73.328125 L 108.472656 77.335938 C 107.117188 79.714844 106.4375 81.707031 106.4375 83.320312 L 107.773438 84.085938 L 109.621094 83.703125 L 110.828125 79.949219 L 111.78125 74.15625 M 107.136719 85.421875 L 104.339844 91.722656 L 104.273438 92.359375 L 105.546875 92.359375 C 106.054688 89.941406 106.839844 87.714844 107.902344 85.675781 L 107.136719 85.421875 M 105.292969 93.570312 L 104.148438 93.570312 L 103.382812 98.277344 L 103.574219 111.265625 C 103.574219 113.300781 103.40625 114.660156 103.066406 115.339844 L 104.847656 116.164062 C 104.296875 115.191406 104.082031 113.832031 104.210938 112.09375 L 104.71875 106.9375 C 104.71875 100.996094 104.804688 97.261719 104.972656 95.734375 L 105.292969 93.570312 M 77.101562 105.027344 L 77.101562 105.34375 L 77.292969 105.28125 L 77.101562 105.027344 M 114.902344 114.828125 C 113.628906 114.828125 111.0625 111.667969 107.203125 105.34375 C 107.203125 105.132812 107.351562 104.984375 107.648438 104.898438 C 110.871094 109.652344 113.480469 112.769531 115.472656 114.257812 L 114.902344 114.828125 M 101.855469 116.101562 L 101.410156 115.910156 L 100.136719 122.023438 C 100.136719 131.441406 100.964844 137.574219 102.621094 140.417969 L 102.175781 137.617188 C 101.242188 131.503906 100.773438 127.09375 100.773438 124.375 L 101.21875 119.859375 L 101.855469 116.101562 M 102.621094 163.140625 C 103.128906 163.140625 103.320312 163.863281 103.191406 165.304688 L 103.191406 165.625 L 103.574219 165.8125 L 103.191406 158.558594 L 103.257812 157.921875 L 103.191406 157.730469 L 103.574219 153.082031 C 103.574219 149.984375 103.320312 146.359375 102.8125 142.199219 L 102.8125 154.738281 L 102.746094 154.800781 L 102.683594 158.496094 L 102.621094 163.140625 L 102.621094 163.332031 L 102.621094 163.140625 M 103.191406 166.386719 L 102.367188 172.371094 L 102.9375 172.433594 C 103.320312 170.355469 103.53125 168.382812 103.574219 166.515625 L 103.191406 166.386719 M 102.175781 173.324219 L 100.074219 180.453125 C 97.996094 186.4375 96.957031 191.890625 96.957031 196.8125 L 97.464844 200.949219 L 97.464844 201.078125 L 98.609375 201.140625 C 98.273438 200.378906 98.101562 198.957031 98.101562 196.875 C 98.101562 190.425781 99.015625 184.675781 100.839844 179.628906 C 101.644531 177.460938 102.28125 175.382812 102.746094 173.390625 L 102.175781 173.324219 "/>
<path style=" stroke:none;fill-rule:evenodd;fill:rgb(80.000001%,80.000001%,80.000001%);fill-opacity:1;" d="M 151.492188 41.054688 L 150.664062 42.203125 C 149.261719 44.28125 147.757812 45.894531 146.144531 47.039062 C 144.617188 48.101562 142.792969 49.691406 140.671875 51.8125 L 135.710938 56.394531 L 132.972656 57.796875 L 134.753906 56.140625 C 136.621094 54.402344 137.765625 53.085938 138.191406 52.195312 C 138.953125 50.582031 140.207031 49.140625 141.945312 47.867188 C 143.175781 46.976562 144.34375 45.574219 145.445312 43.664062 L 152.382812 36.089844 C 153.824219 33.925781 154.609375 31.082031 154.734375 27.5625 C 155.074219 28.960938 155.4375 29.894531 155.816406 30.363281 L 154.355469 34.4375 C 154.355469 35.792969 154.183594 36.917969 153.84375 37.808594 L 152.253906 39.910156 L 151.109375 40.355469 C 151.109375 40.609375 151.171875 40.800781 151.300781 40.929688 L 151.492188 41.054688 M 117.890625 31.953125 L 118.273438 31 L 117.445312 35.964844 L 117.320312 35.964844 L 117 37.554688 L 116.554688 38.765625 L 116.683594 39.019531 L 113.882812 52.578125 L 111.273438 61.617188 C 110.511719 64.203125 110.128906 66.855469 110.128906 69.570312 L 110.191406 70.589844 L 109.621094 69.570312 C 108.515625 67.621094 107.964844 65.605469 107.964844 63.523438 C 107.964844 60.386719 108.558594 56.882812 109.746094 53.023438 L 113.375 42.457031 L 116.746094 35.390625 L 117.320312 33.992188 L 117.890625 31.953125 M 111.527344 74.15625 L 111.78125 74.15625 L 110.828125 79.949219 L 109.621094 83.703125 L 107.773438 84.085938 L 106.4375 83.320312 C 106.4375 81.707031 107.117188 79.714844 108.472656 77.335938 L 110.445312 73.328125 L 110.574219 73.390625 L 110.703125 73.582031 L 110.828125 73.582031 L 110.890625 73.964844 L 111.527344 74.15625 M 107.011719 82.75 C 107.179688 82.917969 107.476562 83.003906 107.902344 83.003906 C 109.003906 83.003906 109.554688 82.558594 109.554688 81.664062 C 109.808594 80.519531 109.449219 79.949219 108.472656 79.949219 C 108.261719 79.949219 107.945312 80.265625 107.519531 80.902344 C 107.09375 81.582031 106.882812 82.089844 106.882812 82.429688 C 106.882812 82.726562 106.925781 82.832031 107.011719 82.75 M 111.210938 75.875 L 110.382812 75.683594 C 109.40625 75.683594 108.984375 76.066406 109.109375 76.828125 L 109.875 77.082031 C 110.765625 77.082031 111.210938 76.765625 111.210938 76.128906 L 111.210938 75.875 M 107.136719 85.421875 L 107.902344 85.675781 C 106.839844 87.714844 106.054688 89.941406 105.546875 92.359375 L 104.273438 92.359375 L 104.339844 91.722656 L 107.136719 85.421875 M 105.292969 93.570312 L 104.972656 95.734375 C 104.804688 97.261719 104.71875 100.996094 104.71875 106.9375 L 104.210938 112.09375 C 104.082031 113.832031 104.296875 115.191406 104.847656 116.164062 L 103.066406 115.339844 C 103.40625 114.660156 103.574219 113.300781 103.574219 111.265625 L 103.382812 98.277344 L 104.148438 93.570312 L 105.292969 93.570312 M 101.855469 116.101562 L 101.21875 119.859375 L 100.773438 124.375 C 100.773438 127.09375 101.242188 131.503906 102.175781 137.617188 L 102.621094 140.417969 C 100.964844 137.574219 100.136719 131.441406 100.136719 122.023438 L 101.410156 115.910156 L 101.855469 116.101562 M 102.621094 163.140625 L 102.683594 158.496094 L 102.746094 154.800781 L 102.8125 154.738281 L 102.8125 142.199219 C 103.320312 146.359375 103.574219 149.984375 103.574219 153.082031 L 103.191406 157.730469 L 103.257812 157.921875 L 103.191406 158.558594 L 103.574219 165.8125 L 103.191406 165.625 L 103.191406 165.304688 C 103.320312 163.863281 103.128906 163.140625 102.621094 163.140625 M 103.191406 166.386719 L 103.574219 166.515625 C 103.53125 168.382812 103.320312 170.355469 102.9375 172.433594 L 102.367188 172.371094 L 103.191406 166.386719 M 102.175781 173.324219 L 102.746094 173.390625 C 102.28125 175.382812 101.644531 177.460938 100.839844 179.628906 C 99.015625 184.675781 98.101562 190.425781 98.101562 196.875 C 98.101562 198.957031 98.273438 200.378906 98.609375 201.140625 L 97.464844 201.078125 L 97.464844 200.949219 L 96.957031 196.8125 C 96.957031 191.890625 97.996094 186.4375 100.074219 180.453125 L 102.175781 173.324219 "/>
<path style=" stroke:none;fill-rule:evenodd;fill:rgb(63.921571%,20.784314%,31.37255%);fill-opacity:1;" d="M 100.328125 173.453125 L 100.648438 173.007812 L 100.902344 173.070312 L 100.773438 173.644531 L 100.328125 173.453125 M 86.839844 176.507812 L 86.710938 176.507812 L 86.648438 176.378906 L 86.839844 176.507812 "/>
<path style=" stroke:none;fill-rule:evenodd;fill:rgb(80.000001%,0%,20%);fill-opacity:1;" d="M 172.171875 65.308594 L 172.363281 65.242188 L 172.488281 65.308594 L 172.425781 65.371094 L 172.171875 65.308594 M 149.007812 142.390625 L 149.074219 142.328125 L 149.074219 142.390625 L 149.007812 142.390625 M 146.71875 154.230469 L 146.78125 154.101562 L 146.78125 154.292969 L 146.71875 154.230469 M 155.816406 190.765625 L 155.625 190.828125 L 155.753906 190.703125 L 155.816406 190.765625 M 99.246094 201.207031 L 98.992188 201.207031 L 99.246094 201.015625 L 99.246094 201.207031 M 70.546875 83.957031 L 70.804688 83.957031 L 70.546875 84.085938 L 70.546875 83.957031 M 103.257812 91.40625 L 103.320312 91.40625 L 103.257812 91.660156 L 103.257812 91.40625 M 103.191406 92.296875 L 103.191406 92.359375 L 103.191406 92.296875 M 100.648438 173.007812 L 100.902344 173.070312 L 100.648438 173.007812 M 72.839844 181.726562 L 72.839844 181.34375 L 73.222656 181.726562 L 72.839844 181.726562 M 86.648438 176.636719 L 86.648438 176.378906 L 86.710938 176.507812 L 86.839844 176.507812 L 86.773438 176.570312 L 86.648438 176.636719 M 137.046875 158.050781 L 137.554688 157.859375 L 137.363281 158.113281 L 137.046875 158.050781 M 140.226562 171.734375 L 140.035156 171.414062 L 140.226562 171.414062 L 140.226562 171.734375 M 128.964844 175.363281 L 128.835938 175.363281 L 128.964844 175.171875 L 128.964844 175.363281 "/>
<path style=" stroke:none;fill-rule:evenodd;fill:rgb(60.000002%,0%,20%);fill-opacity:1;" d="M 162.179688 115.402344 L 162.5625 115.464844 L 162.5 115.59375 L 162.179688 115.402344 M 146.589844 154.421875 L 146.71875 154.230469 L 146.78125 154.292969 L 146.78125 154.355469 L 146.589844 154.421875 M 163.136719 87.394531 L 162.753906 87.585938 L 162.753906 87.523438 L 163.136719 87.394531 M 103.257812 91.660156 L 103.574219 91.660156 L 103.574219 91.976562 L 103.257812 91.660156 M 81.683594 124.058594 L 81.429688 123.929688 L 81.300781 123.867188 L 81.367188 123.804688 L 81.683594 123.421875 L 81.683594 124.058594 M 77.101562 105.027344 L 77.292969 105.28125 L 77.101562 105.34375 L 77.101562 105.027344 "/>
<path style=" stroke:none;fill-rule:evenodd;fill:rgb(60.000002%,60.000002%,60.000002%);fill-opacity:1;" d="M 111.210938 75.875 L 111.210938 76.128906 C 111.210938 76.765625 110.765625 77.082031 109.875 77.082031 L 109.109375 76.828125 C 108.984375 76.066406 109.40625 75.683594 110.382812 75.683594 L 111.210938 75.875 M 107.011719 82.75 C 106.925781 82.832031 106.882812 82.726562 106.882812 82.429688 C 106.882812 82.089844 107.09375 81.582031 107.519531 80.902344 C 107.945312 80.265625 108.261719 79.949219 108.472656 79.949219 C 109.449219 79.949219 109.808594 80.519531 109.554688 81.664062 C 109.554688 82.558594 109.003906 83.003906 107.902344 83.003906 C 107.476562 83.003906 107.179688 82.917969 107.011719 82.75 "/>
<path style=" stroke:none;fill-rule:evenodd;fill:rgb(80.000001%,0%,0%);fill-opacity:1;" d="M 103.257812 91.40625 L 102.046875 91.339844 L 102.621094 91.339844 L 103.257812 91.40625 "/>
<path style=" stroke:none;fill-rule:evenodd;fill:rgb(8.235294%,3.529412%,11.372549%);fill-opacity:1;" d="M 153.84375 39.527344 L 154.101562 39.144531 L 154.417969 38.320312 L 154.355469 38.253906 L 155.371094 35.773438 C 156.519531 32.675781 157.089844 30.296875 157.089844 28.644531 L 156.964844 25.332031 L 155.5625 21.894531 L 160.082031 22.277344 L 159.953125 25.078125 C 159.953125 28.390625 160.1875 30.40625 160.652344 31.125 C 160.824219 32.570312 164.21875 35.074219 170.835938 38.636719 L 176.308594 41.882812 L 174.78125 40.039062 L 174.207031 39.335938 L 175.351562 39.589844 C 177.007812 39.890625 178.34375 40.503906 179.363281 41.4375 L 181.90625 43.792969 L 179.808594 45.765625 L 178.726562 44.746094 L 179.554688 45.640625 L 178.597656 46.53125 L 178.597656 47.804688 L 178.089844 47.992188 L 177.835938 47.421875 L 176.625 45.066406 C 175.945312 43.707031 174.570312 42.710938 172.488281 42.074219 C 167.441406 39.316406 164.324219 37.9375 163.136719 37.9375 C 160.082031 37.9375 157.894531 38.320312 156.582031 39.082031 L 155.117188 40.101562 L 155.117188 40.226562 C 155.117188 40.566406 154.882812 40.738281 154.417969 40.738281 L 153.652344 40.417969 L 153.589844 40.164062 L 153.84375 39.71875 L 153.84375 39.527344 M 169.246094 90.132812 L 169.625 90.578125 L 169.246094 90.960938 L 169.117188 90.960938 L 167.90625 98.023438 L 167.460938 98.023438 L 166.828125 97.832031 L 167.144531 101.398438 C 167.144531 103.730469 166.316406 106.574219 164.664062 109.925781 L 162.4375 114.511719 L 161.992188 114.890625 L 162.179688 115.402344 L 162.5 115.59375 L 156.644531 124.824219 L 156.773438 125.011719 C 152.53125 129.128906 150.515625 132.355469 150.726562 134.6875 C 150.980469 136.851562 150.429688 138.699219 149.074219 140.226562 L 144.109375 145.765625 L 144.300781 146.335938 L 145.191406 146.335938 C 145.871094 146.039062 147.140625 144.722656 149.007812 142.390625 L 149.074219 142.390625 C 148.945312 142.816406 148.882812 143.34375 148.882812 143.980469 C 148.882812 145.339844 148.753906 146.273438 148.5 146.78125 L 146.335938 152.449219 C 144.851562 156.859375 141.988281 160.550781 137.746094 163.523438 L 138.320312 164.097656 C 141.542969 161.632812 144.300781 158.410156 146.589844 154.421875 L 146.78125 154.421875 L 146.78125 155.503906 L 147.035156 156.140625 C 147.078125 157.414062 147.417969 158.875 148.054688 160.53125 C 148.902344 162.695312 149.433594 164.667969 149.644531 166.449219 L 149.644531 173.199219 C 149.601562 176.042969 149.921875 177.460938 150.601562 177.460938 L 151.109375 177.273438 L 151.109375 176.761719 L 150.855469 168.042969 C 153.484375 173.855469 154.992188 176.761719 155.371094 176.761719 L 155.5 176.761719 L 156.964844 179.371094 C 159.804688 184.210938 161.226562 186.863281 161.226562 187.328125 L 160.144531 189.109375 L 155.816406 190.765625 L 155.753906 190.703125 L 155.625 190.828125 L 155.308594 191.019531 L 155.246094 190.957031 C 154.652344 189.8125 154.289062 188.261719 154.164062 186.308594 L 153.589844 181.28125 C 150.492188 185.863281 148.710938 188.15625 148.246094 188.15625 L 147.546875 187.964844 C 147.671875 187.03125 147.078125 184.1875 145.761719 179.4375 L 144.808594 175.171875 L 143.726562 173.070312 C 143.046875 171.796875 142.007812 171.226562 140.609375 171.351562 L 140.226562 171.414062 L 140.035156 171.414062 L 140.226562 171.734375 C 140.226562 172.667969 136.175781 174.28125 128.074219 176.570312 L 127.117188 176.507812 L 127.054688 175.871094 C 131 170.90625 133.355469 167.640625 134.117188 166.070312 L 136.15625 160.722656 C 136.578125 159.660156 136.980469 158.792969 137.363281 158.113281 L 137.554688 157.859375 L 137.046875 158.050781 L 132.972656 158.050781 C 132.847656 157.964844 132.78125 157.773438 132.78125 157.476562 C 132.78125 156.925781 134.332031 154.546875 137.425781 150.347656 C 140.652344 145.890625 143.113281 142.921875 144.808594 141.4375 C 134.332031 141.054688 127.140625 140.417969 123.238281 139.527344 C 120.351562 138.421875 117.742188 137.59375 115.410156 137.042969 C 114.136719 136.789062 111.847656 136.046875 108.539062 134.816406 C 105.101562 133.542969 103.214844 132.589844 102.875 131.953125 L 102.109375 131.695312 L 102.429688 131.125 C 102.046875 128.238281 101.855469 125.945312 101.855469 124.25 C 101.855469 122.46875 102.027344 120.941406 102.367188 119.667969 L 102.8125 116.546875 C 121.433594 125.246094 134.160156 129.597656 140.992188 129.597656 L 141.5625 129.214844 C 141.265625 128.324219 139.65625 127.644531 136.726562 127.175781 L 131.828125 126.667969 C 130.765625 126.667969 128.921875 126.160156 126.292969 125.140625 L 120.628906 122.914062 C 118.082031 122.105469 113.4375 120.132812 106.691406 116.992188 L 105.738281 116.546875 L 105.863281 101.078125 L 106.691406 93.570312 L 144.238281 93.25 L 144.492188 92.804688 L 144.425781 92.550781 L 124.253906 92.296875 L 107.011719 92.359375 L 107.136719 92.042969 L 106.691406 91.722656 C 106.90625 91.296875 107.136719 91.066406 107.390625 91.023438 L 107.457031 91.023438 L 109.046875 91.53125 L 113.882812 91.976562 C 115.835938 91.976562 118.464844 91.171875 121.773438 89.558594 L 127.5 86.566406 L 132.273438 83.957031 C 135.667969 82.386719 138.828125 81.601562 141.753906 81.601562 C 146.421875 81.601562 151.320312 82.707031 156.453125 84.914062 L 162.753906 87.585938 L 163.136719 87.394531 L 166.761719 88.921875 C 167.992188 89.429688 168.820312 89.835938 169.246094 90.132812 M 144.492188 111.964844 C 143.21875 112.855469 141.5 113.554688 139.335938 114.066406 L 132.464844 115.785156 L 132.972656 116.164062 C 139.84375 115.273438 144.957031 113.300781 148.308594 110.246094 C 155.816406 105.152344 159.570312 102.203125 159.570312 101.398438 L 159.125 100.890625 L 147.546875 109.671875 L 144.492188 111.964844 M 115.410156 35.390625 L 109.109375 35.964844 C 109.152344 35.199219 106.566406 34.816406 101.347656 34.816406 C 100.542969 34.816406 100.136719 34.625 100.136719 34.246094 L 100.203125 34.054688 C 100.371094 33.757812 101.113281 33.628906 102.429688 33.671875 L 104.019531 33.609375 L 104.273438 33.542969 L 106.246094 33.289062 L 111.71875 31.445312 L 115.347656 29.980469 L 115.410156 30.042969 L 115.855469 29.597656 L 117.066406 28.199219 L 117.128906 27.117188 L 117.128906 26.859375 L 116.238281 22.023438 C 116.363281 21.980469 116.472656 21.917969 116.554688 21.832031 L 116.554688 20.878906 L 119.546875 21.707031 C 119.078125 22.679688 118.484375 24.464844 117.765625 27.050781 L 117.445312 28.324219 L 116.746094 31 L 116.238281 33.417969 L 116.175781 33.609375 L 115.410156 35.390625 M 70.804688 83.957031 L 78.25 88.347656 L 79.839844 89.050781 L 79.140625 89.242188 L 79.585938 89.429688 L 80.667969 89.367188 L 81.046875 89.558594 L 82.703125 90.257812 C 85.078125 91.109375 87.582031 91.597656 90.210938 91.722656 L 91.609375 91.722656 L 103.257812 91.660156 L 103.574219 91.976562 L 103.191406 92.296875 L 103.191406 92.488281 L 90.210938 93.886719 L 81.046875 94.652344 L 79.140625 94.777344 L 81.046875 94.96875 L 82.765625 94.96875 L 90.210938 94.332031 L 92.183594 94.015625 L 98.039062 93.632812 L 102.875 93.570312 C 102.449219 95.179688 102.238281 97.578125 102.238281 100.761719 L 102.492188 111.582031 C 102.492188 113.195312 102.34375 114.277344 102.046875 114.828125 C 98.90625 113.429688 97.210938 112.726562 96.957031 112.726562 C 96.617188 112.726562 96.339844 112.941406 96.128906 113.363281 L 100.265625 115.339844 C 99.417969 116.355469 98.992188 118.542969 98.992188 121.894531 L 98.992188 122.847656 L 99.121094 128.578125 L 99.183594 128.578125 L 99.246094 128.894531 L 99.121094 129.214844 L 98.484375 129.40625 L 91.484375 127.621094 C 87.15625 126.351562 83.890625 125.160156 81.683594 124.058594 L 81.683594 123.421875 C 81.597656 121.9375 80.558594 118.625 78.566406 113.492188 C 77.761719 111.582031 77.25 109.863281 77.039062 108.335938 L 77.101562 107.890625 L 77.101562 106.617188 L 77.738281 107.953125 L 81.8125 114.257812 C 86.097656 119.859375 88.492188 122.65625 89.003906 122.65625 C 89.300781 122.65625 89.382812 122.617188 89.257812 122.53125 L 89.320312 122.085938 C 85.671875 117.460938 82.765625 113.554688 80.601562 110.375 L 80.539062 110.308594 L 77.613281 105.789062 L 77.421875 105.472656 L 77.675781 105.789062 L 81.113281 109.800781 L 81.238281 109.925781 L 90.085938 117.882812 C 94.242188 121.320312 96.828125 123.039062 97.847656 123.039062 C 98.144531 123.039062 98.292969 122.933594 98.292969 122.722656 C 94.21875 119.667969 91.460938 117.480469 90.019531 116.164062 C 85.734375 112.855469 83.191406 110.648438 82.382812 109.546875 L 79.710938 105.789062 L 74.558594 98.660156 L 74.558594 98.597656 L 74.621094 98.277344 L 73.285156 96.179688 C 72.140625 94.4375 71.417969 93.101562 71.121094 92.167969 C 70.65625 90.9375 70.421875 88.835938 70.421875 85.867188 L 70.484375 85.167969 L 70.359375 84.722656 L 70.359375 84.085938 L 70.546875 84.085938 L 70.804688 83.957031 M 72.839844 181.34375 L 72.648438 180.964844 L 72.964844 180.261719 C 73.179688 178.183594 73.558594 176.167969 74.113281 174.214844 L 74.429688 173.007812 C 74.558594 171.734375 74.726562 170.863281 74.9375 170.398438 L 76.085938 167.152344 L 77.992188 170.460938 C 78.417969 171.394531 79.816406 172.476562 82.195312 173.707031 L 86.011719 176.953125 L 86.328125 176.890625 L 86.265625 176.699219 L 86.648438 176.636719 L 86.773438 176.570312 L 86.839844 176.507812 L 90.210938 181.980469 L 90.085938 182.492188 L 89.382812 182.617188 C 88.875 182.617188 87.09375 181.769531 84.039062 180.074219 C 81.027344 178.375 78.417969 177.527344 76.210938 177.527344 L 73.222656 181.726562 L 72.839844 181.34375 M 114.902344 114.828125 L 115.472656 114.257812 C 113.480469 112.769531 110.871094 109.652344 107.648438 104.898438 C 107.351562 104.984375 107.203125 105.132812 107.203125 105.34375 C 111.0625 111.667969 113.628906 114.828125 114.902344 114.828125 M 128.964844 175.363281 L 128.964844 175.171875 L 128.835938 175.363281 L 128.964844 175.363281 "/>
<path style=" stroke:none;fill-rule:evenodd;fill:rgb(29.411766%,19.607843%,31.37255%);fill-opacity:1;" d="M 153.84375 39.527344 L 153.84375 39.71875 L 153.589844 40.164062 L 153.652344 40.417969 L 154.417969 40.738281 C 154.882812 40.738281 155.117188 40.566406 155.117188 40.226562 L 155.117188 40.101562 L 156.582031 39.082031 C 157.894531 38.320312 160.082031 37.9375 163.136719 37.9375 C 164.324219 37.9375 167.441406 39.316406 172.488281 42.074219 C 174.570312 42.710938 175.945312 43.707031 176.625 45.066406 L 177.835938 47.421875 C 176.265625 49.203125 175.140625 51.347656 174.460938 53.851562 C 173.824219 56.015625 173.230469 59.238281 172.679688 63.523438 L 172.171875 65.308594 L 172.425781 65.371094 C 171.703125 66.433594 171.34375 68.109375 171.34375 70.398438 L 171.089844 71.800781 L 170.898438 72.308594 L 170.453125 73.390625 L 170.261719 74.027344 L 170.261719 74.089844 L 169.625 78.609375 L 169.816406 78.039062 L 170.007812 78.101562 L 170.007812 85.421875 L 169.246094 90.132812 C 168.820312 89.835938 167.992188 89.429688 166.761719 88.921875 L 163.136719 87.394531 L 162.753906 87.523438 L 162.753906 87.585938 L 156.453125 84.914062 C 151.320312 82.707031 146.421875 81.601562 141.753906 81.601562 C 138.828125 81.601562 135.667969 82.386719 132.273438 83.957031 L 127.5 86.566406 L 121.773438 89.558594 C 118.464844 91.171875 115.835938 91.976562 113.882812 91.976562 L 109.046875 91.53125 L 107.457031 91.023438 L 107.390625 91.023438 L 108.855469 85.804688 C 109.535156 85.761719 110.148438 85.292969 110.703125 84.402344 L 111.972656 84.148438 L 125.335938 81.792969 C 134.96875 79.628906 141.902344 78.675781 146.144531 78.929688 L 141.945312 78.546875 L 138.128906 78.546875 L 111.148438 83.449219 C 111.910156 81.539062 112.460938 78.484375 112.800781 74.28125 L 112.800781 72.882812 L 116.175781 69.445312 L 122.855469 64.988281 C 126.164062 62.910156 130.683594 60.386719 136.410156 57.414062 C 138.871094 55.757812 142.199219 52.640625 146.398438 48.058594 L 150.789062 43.285156 L 153.84375 39.527344 M 155.246094 190.957031 L 153.972656 191.277344 L 142.519531 194.523438 C 139.335938 195.964844 136.027344 197.238281 132.589844 198.339844 C 125.929688 200.460938 119.25 201.523438 112.546875 201.523438 L 99.246094 201.207031 L 99.246094 201.015625 C 98.867188 197.535156 99.417969 191.722656 100.902344 183.574219 C 101.199219 181.917969 101.984375 178.949219 103.257812 174.664062 L 103.574219 173.578125 L 115.917969 175.746094 C 116.726562 175.746094 117.128906 175.59375 117.128906 175.296875 L 103.828125 172.625 L 104.71875 167.023438 C 116.554688 171.863281 123.320312 174.28125 125.019531 174.28125 C 125.613281 174.28125 125.910156 174.152344 125.910156 173.898438 L 125.78125 173.644531 C 119.84375 172.117188 112.824219 169.65625 104.71875 166.261719 C 104.71875 162.824219 104.570312 160.148438 104.273438 158.238281 L 104.71875 153.019531 C 104.71875 148.523438 104.253906 143.28125 103.320312 137.296875 L 102.554688 132.015625 L 102.746094 132.015625 L 102.875 131.953125 C 103.214844 132.589844 105.101562 133.542969 108.539062 134.816406 C 111.847656 136.046875 114.136719 136.789062 115.410156 137.042969 C 117.742188 137.59375 120.351562 138.421875 123.238281 139.527344 C 127.140625 140.417969 134.332031 141.054688 144.808594 141.4375 C 143.113281 142.921875 140.652344 145.890625 137.425781 150.347656 C 134.332031 154.546875 132.78125 156.925781 132.78125 157.476562 C 132.78125 157.773438 132.847656 157.964844 132.972656 158.050781 L 137.046875 158.050781 L 137.363281 158.113281 C 136.980469 158.792969 136.578125 159.660156 136.15625 160.722656 L 134.117188 166.070312 C 133.355469 167.640625 131 170.90625 127.054688 175.871094 L 127.117188 176.507812 L 128.074219 176.570312 C 136.175781 174.28125 140.226562 172.667969 140.226562 171.734375 L 140.226562 171.414062 L 140.609375 171.351562 C 142.007812 171.226562 143.046875 171.796875 143.726562 173.070312 L 144.808594 175.171875 L 145.761719 179.4375 C 147.078125 184.1875 147.671875 187.03125 147.546875 187.964844 L 148.246094 188.15625 C 148.710938 188.15625 150.492188 185.863281 153.589844 181.28125 L 154.164062 186.308594 C 154.289062 188.261719 154.652344 189.8125 155.246094 190.957031 M 100.203125 34.054688 L 100.136719 34.246094 C 100.136719 34.625 100.542969 34.816406 101.347656 34.816406 C 106.566406 34.816406 109.152344 35.199219 109.109375 35.964844 L 115.410156 35.390625 L 114.835938 36.726562 L 114.835938 36.792969 C 113.648438 38.53125 112.824219 40.226562 112.355469 41.882812 L 108.730469 52.832031 C 107.5 56.863281 106.882812 60.449219 106.882812 63.589844 C 106.882812 64.734375 107.179688 66.433594 107.773438 68.679688 C 108.324219 70.761719 108.984375 72.160156 109.746094 72.882812 L 107.074219 77.785156 C 105.503906 80.964844 104.71875 82.855469 104.71875 83.449219 L 105.675781 84.464844 L 95.8125 85.996094 L 90.210938 86.886719 L 81.046875 88.667969 L 79.839844 89.050781 L 78.25 88.347656 L 70.804688 83.957031 L 70.546875 83.957031 C 70.675781 82.683594 70.953125 81.261719 71.375 79.691406 C 72.480469 75.789062 73.179688 73.625 73.476562 73.199219 L 73.601562 73.007812 C 76.488281 69.019531 79.542969 65.308594 82.765625 61.871094 L 82.828125 61.933594 L 83.402344 61.234375 L 83.71875 60.851562 L 83.65625 60.722656 L 84.039062 59.832031 L 86.074219 54.613281 C 87.8125 49.648438 88.683594 46.042969 88.683594 43.792969 L 87.984375 37.875 C 87.984375 37.449219 88.578125 37.003906 89.765625 36.535156 L 91.230469 35.898438 L 91.484375 35.964844 C 92.925781 35.964844 94.855469 35.476562 97.273438 34.5 L 100.203125 34.054688 M 103.257812 91.40625 L 102.621094 91.339844 L 102.046875 91.339844 L 103.257812 91.40625 L 103.257812 91.660156 L 91.609375 91.722656 L 90.210938 91.722656 C 87.582031 91.597656 85.078125 91.109375 82.703125 90.257812 L 81.046875 89.558594 L 80.667969 89.367188 L 81.046875 89.367188 L 90.210938 88.09375 L 105.355469 85.421875 C 104.339844 86.441406 103.660156 88.433594 103.320312 91.40625 L 103.257812 91.40625 M 99.121094 129.214844 C 99.332031 133.628906 99.734375 136.726562 100.328125 138.507812 C 101.136719 140.839844 101.582031 143.578125 101.664062 146.71875 C 101.664062 149.351562 101.730469 151.386719 101.855469 152.828125 C 101.472656 153.253906 101.324219 154.015625 101.410156 155.121094 L 101.664062 157.792969 L 101.472656 162.824219 L 101.21875 164.796875 L 99.121094 163.839844 C 89.785156 159.683594 84.972656 157.601562 84.675781 157.601562 C 84.421875 157.601562 84.292969 157.792969 84.292969 158.175781 C 86.246094 159.238281 91.84375 161.675781 101.09375 165.496094 L 100.011719 171.925781 L 84.675781 168.933594 C 84.292969 168.933594 84.101562 169.0625 84.101562 169.316406 L 84.101562 169.632812 L 99.820312 172.878906 L 100.328125 173.453125 L 100.773438 173.644531 L 99.246094 179.816406 C 97.042969 187.625 95.9375 193.269531 95.9375 196.75 L 95.9375 199.167969 C 95.980469 199.972656 96.085938 200.589844 96.257812 201.015625 C 86.371094 200.207031 79.691406 198.574219 76.210938 196.113281 C 74.261719 194.753906 73.09375 193.015625 72.710938 190.894531 L 72.648438 185.484375 C 72.648438 184.210938 72.710938 182.957031 72.839844 181.726562 L 73.222656 181.726562 L 76.210938 177.527344 C 78.417969 177.527344 81.027344 178.375 84.039062 180.074219 C 87.09375 181.769531 88.875 182.617188 89.382812 182.617188 L 90.085938 182.492188 L 90.210938 181.980469 L 86.839844 176.507812 L 86.648438 176.378906 C 86.648438 176.042969 84.867188 174.511719 81.300781 171.796875 C 78.671875 169.804688 76.996094 167.894531 76.277344 166.070312 L 76.339844 165.242188 C 76.464844 164.773438 76.339844 164.519531 75.957031 164.476562 L 75.894531 164.03125 C 75.894531 163.015625 76.316406 161.910156 77.167969 160.722656 L 78.25 158.558594 L 78.503906 158.683594 C 79.5625 155.25 80.242188 152.152344 80.539062 149.390625 C 81.683594 145.359375 82.257812 140.949219 82.257812 136.152344 L 82.066406 129.46875 L 81.683594 124.058594 C 83.890625 125.160156 87.15625 126.351562 91.484375 127.621094 L 98.484375 129.40625 L 99.121094 129.214844 "/>
</g>
</svg>
