<?xml version="1.0" encoding="UTF-8"?>
<svg xmlns="http://www.w3.org/2000/svg" xmlns:xlink="http://www.w3.org/1999/xlink" width="290px" height="542px" viewBox="0 0 290 542" version="1.1">
<g id="surface1">
<path style=" stroke:none;fill-rule:evenodd;fill:rgb(0%,0%,0%);fill-opacity:1;" d="M 48.785156 117.183594 L 50.695312 120.941406 L 50.25 121.003906 L 50.3125 121.066406 L 50.3125 121.003906 C 50.695312 121.003906 51.628906 122.148438 53.113281 124.441406 C 54.640625 126.730469 55.699219 128.621094 56.292969 130.105469 L 59.539062 137.425781 L 60.496094 138.253906 L 60.429688 139.527344 C 60.21875 143.855469 59.773438 146.019531 59.09375 146.019531 L 58.394531 145.828125 L 58.332031 145.574219 C 57.820312 145.277344 57.164062 143.960938 56.359375 141.625 L 49.804688 151.300781 C 48.828125 152.785156 46.984375 156.097656 44.269531 161.230469 L 44.394531 161.867188 L 44.394531 162.121094 L 49.359375 168.550781 C 49.738281 168.59375 49.929688 168.847656 49.929688 169.316406 L 49.929688 169.632812 C 49.71875 171.160156 48.320312 175.488281 45.730469 182.617188 C 44.796875 185.121094 43.566406 187.691406 42.039062 190.320312 C 40.894531 192.359375 39.875 193.800781 38.984375 194.648438 L 39.621094 194.332031 L 39.621094 194.523438 L 39.875 195.414062 L 37.332031 196.367188 C 36.824219 196.367188 36.503906 196.28125 36.378906 196.113281 L 36.1875 196.113281 L 35.804688 195.984375 L 35.804688 195.667969 L 34.851562 193.820312 L 33.324219 190.449219 C 32.136719 188.582031 31.433594 186.671875 31.222656 184.71875 L 31.160156 184.464844 L 31.03125 184.402344 L 31.03125 184.019531 L 30.777344 182.808594 L 31.09375 182.617188 L 31.160156 179.308594 C 31.117188 177.3125 30.691406 175.703125 29.886719 174.472656 C 29.039062 173.199219 27.382812 171.523438 24.921875 169.441406 L 19.960938 164.730469 C 18.21875 162.652344 17.265625 159.40625 17.097656 154.992188 C 17.054688 153.636719 16.734375 151.980469 16.140625 150.027344 C 15.632812 148.203125 15.378906 146.632812 15.378906 145.320312 L 15.441406 143.917969 L 14.234375 140.609375 L 6.085938 122.210938 L 5.769531 122.148438 L 5.640625 122.148438 L 5.515625 120.492188 L 5.449219 120.175781 L 5.070312 115.527344 C 5.070312 112.261719 6.363281 107.953125 8.949219 102.609375 C 11.707031 96.878906 14.613281 92.996094 17.667969 90.960938 L 23.777344 86.566406 L 33.132812 79.566406 C 35 78.25 38.265625 76.636719 42.929688 74.726562 C 44.332031 74.132812 47.195312 72.222656 51.523438 69 C 51.734375 69 51.902344 69.0625 52.03125 69.191406 L 55.339844 64.863281 C 57.25 62.359375 60.496094 59.175781 65.074219 55.3125 C 69.742188 51.324219 72.710938 49.332031 73.984375 49.332031 L 74.304688 49.394531 C 75.152344 46.722656 76.019531 45.300781 76.910156 45.128906 C 77.292969 44.492188 77.738281 43.921875 78.25 43.410156 C 79.988281 41.671875 81.980469 39.996094 84.230469 38.382812 C 88.300781 35.371094 91.652344 33.863281 94.285156 33.863281 L 95.238281 33.417969 C 97.65625 32.3125 100.011719 31.527344 102.300781 31.0625 L 110.703125 28.261719 L 113.820312 27.242188 L 115.855469 26.605469 L 116.238281 26.542969 L 116.109375 26.605469 L 117.382812 26.734375 L 118.082031 26.605469 C 119.355469 26.605469 119.992188 27.308594 119.992188 28.707031 C 119.992188 29.980469 119.226562 30.679688 117.699219 30.808594 L 117.382812 31.636719 L 117.253906 32.273438 C 116.703125 32.652344 116.324219 33.269531 116.109375 34.117188 L 116.046875 34.371094 L 115.792969 35.390625 L 115.792969 35.898438 L 115.726562 36.601562 L 115.601562 36.535156 L 115.601562 36.089844 L 113.691406 40.738281 L 113.628906 41.308594 L 113.4375 41.308594 L 108.410156 51.8125 C 108.070312 52.660156 106.863281 56.375 104.785156 62.953125 L 101.347656 74.15625 L 101.285156 74.601562 L 101.15625 73.519531 C 100.605469 75.726562 100.328125 77.675781 100.328125 79.375 L 102.875 92.105469 C 103.511719 94.480469 104.761719 97.875 106.628906 102.289062 L 106.757812 101.90625 L 108.347656 98.726562 L 107.710938 99.296875 L 108.601562 98.214844 C 109.875 95.667969 110.765625 94.394531 111.273438 94.394531 L 111.402344 94.394531 L 127.4375 73.453125 L 142.007812 53.53125 C 143.238281 51.875 145.210938 47.929688 147.925781 41.691406 C 150.046875 36.898438 151.425781 34.265625 152.0625 33.800781 C 152.359375 32.992188 153.019531 31.847656 154.035156 30.363281 C 155.691406 27.902344 157.21875 26.671875 158.617188 26.671875 C 161.332031 26.671875 167.546875 29.386719 177.261719 34.816406 C 179.085938 35.878906 181.441406 37.46875 184.324219 39.589844 L 188.082031 42.457031 L 188.144531 42.457031 C 188.824219 42.457031 189.332031 43.410156 189.671875 45.320312 C 190.351562 45.53125 190.921875 47.761719 191.390625 52.003906 C 191.390625 53.066406 191.132812 53.59375 190.625 53.59375 C 190.117188 53.59375 189.394531 53.105469 188.460938 52.132812 L 188.398438 52.066406 C 186.574219 55.886719 183.054688 61.210938 177.835938 68.042969 L 168.800781 80.710938 C 165.191406 85.546875 162.796875 88.199219 161.609375 88.667969 L 160.273438 90.449219 L 166.191406 97.707031 C 169.371094 100.507812 170.960938 103.074219 170.960938 105.410156 C 170.960938 106.894531 170.410156 108.675781 169.308594 110.753906 L 168.925781 110.691406 C 164.386719 115.527344 161.3125 119.09375 159.699219 121.386719 L 155.246094 128.070312 L 151.871094 132.460938 L 152.382812 132.96875 L 153.144531 133.671875 L 153.144531 133.605469 L 154.355469 134.6875 L 154.164062 134.816406 L 154.992188 135.960938 L 152.253906 146.589844 L 151.808594 154.101562 L 152.699219 161.804688 C 152.953125 163.5 153.886719 167.171875 155.5 172.816406 L 155.308594 173.644531 C 157.089844 173.941406 158.597656 175.363281 159.828125 177.910156 C 160.546875 179.476562 161.269531 181.558594 161.992188 184.144531 C 163.21875 187.160156 164.429688 190.746094 165.617188 194.902344 L 166 196.242188 L 166.382812 196.8125 L 166.253906 197.066406 L 168.800781 205.152344 C 170.285156 209.945312 171.070312 213.53125 171.152344 215.910156 L 171.40625 216.035156 L 171.472656 216.546875 L 171.917969 216.925781 C 173.230469 217.097656 174.039062 218.304688 174.335938 220.554688 L 174.652344 226.410156 L 175.925781 235.894531 L 179.554688 254.992188 L 179.488281 255.691406 L 179.554688 256.265625 L 178.851562 259.066406 C 178.386719 260.296875 178.175781 261.355469 178.21875 262.246094 C 178.21875 264.15625 177.960938 266.066406 177.453125 267.976562 C 177.285156 268.742188 176.605469 269.695312 175.417969 270.839844 C 174.1875 271.988281 173.464844 272.941406 173.253906 273.707031 C 172.660156 275.785156 172.363281 277.695312 172.363281 279.433594 C 172.363281 280.367188 172.554688 281.238281 172.933594 282.042969 C 173.273438 282.890625 173.445312 284.058594 173.445312 285.542969 C 172.808594 291.738281 171.535156 294.878906 169.625 294.964844 L 169.371094 294.964844 C 166.613281 294.710938 156.199219 291.441406 138.128906 285.164062 C 125.273438 279.222656 118.0625 275.253906 116.492188 273.257812 L 112.355469 276.953125 C 90.679688 294.6875 77.84375 303.558594 73.855469 303.558594 C 71.398438 303.558594 69.871094 302.496094 69.277344 300.375 L 68.640625 294.328125 L 67.75 284.972656 C 66.347656 276.570312 65.648438 270.332031 65.648438 266.257812 L 65.902344 262.628906 C 66.242188 261.015625 66.859375 260.019531 67.75 259.636719 L 67.175781 258.300781 L 67.113281 251.9375 L 67.113281 242.769531 C 66.222656 234.070312 65.777344 227.917969 65.777344 224.3125 L 66.414062 221.636719 C 66.878906 220.449219 67.429688 219.6875 68.066406 219.347656 C 67.726562 218.710938 67.429688 217.796875 67.175781 216.609375 C 66.792969 214.785156 66.601562 213.382812 66.601562 212.40625 L 66.859375 211.960938 L 67.875 205.660156 L 68.257812 203.625 L 68.320312 203.304688 L 68.128906 203.625 L 68.128906 202.542969 L 68.257812 202.796875 L 68.257812 200.824219 C 69.910156 187.074219 70.738281 179.5 70.738281 178.097656 L 70.546875 172.433594 C 70.546875 170.3125 70.910156 168.507812 71.628906 167.023438 L 71.757812 166.769531 L 73.476562 163.714844 C 73.179688 163.628906 73.03125 163.4375 73.03125 163.140625 C 73.03125 159.957031 73.601562 153.53125 74.75 143.855469 L 75.703125 134.117188 C 75.320312 128.472656 75.957031 125.394531 77.613281 124.886719 C 77.101562 123.359375 76.847656 122.105469 76.847656 121.128906 L 76.847656 121.003906 L 76.277344 119.222656 C 75.425781 113.578125 74.558594 109.441406 73.667969 106.808594 L 72.203125 101.460938 C 59.984375 112.027344 52.371094 117.3125 49.359375 117.3125 L 48.785156 117.121094 C 48.660156 116.992188 48.59375 116.800781 48.59375 116.546875 C 55.296875 113.027344 59.625 110.414062 61.574219 108.71875 L 71.949219 100.316406 L 70.804688 95.160156 C 69.53125 89.09375 68.894531 84.699219 68.894531 81.984375 L 68.894531 81.285156 C 69.488281 75.257812 70.273438 69.234375 71.25 63.207031 C 72.140625 57.816406 73.03125 53.617188 73.921875 50.605469 L 69.65625 53.660156 L 69.402344 53.59375 C 68.9375 53.59375 68.703125 53.828125 68.703125 54.296875 L 67.9375 54.867188 C 62.765625 58.6875 58.882812 62.316406 56.292969 65.753906 L 44.203125 81.601562 L 44.078125 81.601562 C 44.121094 81.136719 43.90625 80.902344 43.441406 80.902344 C 43.441406 80.394531 45.179688 77.890625 48.660156 73.390625 C 46.324219 74.875 42.867188 76.636719 38.285156 78.675781 C 38.242188 78.378906 38.054688 78.230469 37.714844 78.230469 C 37.160156 78.230469 36.675781 78.675781 36.25 79.566406 L 34.148438 80.457031 L 23.777344 88.285156 L 19.195312 91.914062 C 16.3125 94.121094 13.851562 96.816406 11.8125 99.996094 L 11.558594 100.316406 L 11.558594 100.378906 L 9.652344 103.753906 L 9.523438 104.261719 C 9.226562 104.304688 9.078125 104.515625 9.078125 104.898438 L 9.207031 105.34375 L 6.40625 115.847656 L 6.46875 116.738281 L 7.105469 120.175781 L 7.167969 120.492188 L 7.421875 121.574219 C 8.867188 123.78125 11.515625 129.808594 15.378906 139.652344 L 16.839844 144.554688 L 17.351562 146.082031 L 17.03125 146.210938 L 18.367188 152.320312 L 18.558594 157.15625 C 18.558594 159.28125 19.003906 161.039062 19.894531 162.441406 C 20.914062 164.097656 23.289062 166.621094 27.023438 170.015625 L 27.085938 170.078125 L 27.214844 170.398438 L 27.722656 170.589844 L 27.785156 170.652344 L 29.949219 172.5625 C 31.308594 173.960938 31.984375 175.617188 31.984375 177.527344 L 32.367188 182.554688 L 32.367188 183.636719 L 32.558594 184.402344 C 32.730469 187.160156 33.9375 190.320312 36.1875 193.886719 L 36.378906 194.265625 L 36.441406 193.757812 L 36.1875 192.867188 C 36.441406 193.589844 36.757812 194.035156 37.140625 194.203125 C 40.449219 191.234375 42.867188 187.054688 44.394531 181.664062 C 46.175781 175.257812 47.511719 171.203125 48.402344 169.507812 C 47.511719 168.574219 46.070312 166.621094 44.078125 163.648438 L 40.003906 177.144531 L 37.585938 192.167969 L 37.140625 192.039062 L 36.824219 191.339844 L 36.824219 190.449219 C 36.824219 187.691406 37.585938 182.386719 39.113281 174.535156 C 40.511719 167.40625 41.785156 163.121094 42.929688 161.675781 L 49.039062 150.285156 C 51.96875 144.9375 54.132812 141.265625 55.53125 139.269531 L 55.339844 138.699219 L 56.996094 136.46875 L 57.566406 136.726562 L 57.058594 135.644531 L 56.484375 134.242188 L 55.148438 130.871094 L 51.011719 124.566406 L 50.949219 124.441406 L 50.820312 124.695312 L 48.976562 121.832031 C 48.847656 122 48.785156 122.234375 48.785156 122.53125 L 43.3125 119.792969 L 43.25 119.730469 L 39.113281 117.375 C 39.113281 116.867188 39.390625 116.609375 39.941406 116.609375 C 40.703125 116.609375 43.609375 117.992188 48.660156 120.75 C 47.640625 119.261719 46.429688 116.398438 45.03125 112.15625 C 44.269531 109.820312 43.164062 107.574219 41.722656 105.410156 L 39.8125 102.480469 C 39.8125 101.972656 40.066406 101.714844 40.578125 101.714844 C 42.148438 101.714844 44.011719 104.960938 46.175781 111.457031 L 48.46875 116.546875 L 48.785156 117.183594 M 189.160156 50.347656 L 190.054688 51.429688 L 189.480469 49.394531 L 189.160156 50.347656 M 100.648438 187.582031 L 102.492188 185.292969 L 111.972656 172.242188 C 115.453125 167.449219 117.957031 164.160156 119.484375 162.378906 C 123.765625 154.441406 126.503906 148.96875 127.691406 145.953125 C 131.382812 138.0625 134.035156 131.953125 135.644531 127.621094 C 137.34375 123.039062 141.371094 116.949219 147.734375 109.355469 C 149.136719 107.742188 151.257812 104.15625 154.101562 98.597656 L 157.21875 92.804688 L 156.773438 92.488281 L 158.046875 90.769531 C 160.292969 87.839844 161.609375 86.375 161.992188 86.375 L 162.054688 86.375 L 174.589844 70.144531 C 181.25 61.359375 185.535156 54.953125 187.445312 50.921875 L 187.253906 50.605469 L 187.761719 50.09375 C 188.269531 48.90625 188.527344 47.953125 188.527344 47.230469 L 187.632812 43.539062 L 177.898438 37.617188 C 177.6875 39.230469 176.394531 41.796875 174.015625 45.320312 L 168.734375 52.578125 C 161.949219 62.167969 157.9375 67.195312 156.707031 67.664062 L 158.808594 79.691406 C 158.808594 80.582031 157.152344 81.113281 153.84375 81.285156 L 152.445312 81.285156 L 145.191406 82.558594 L 145 82.492188 L 142.390625 87.203125 L 140.164062 91.851562 C 138.890625 94.695312 137.851562 97.472656 137.046875 100.1875 C 135.941406 104.050781 134.332031 107.105469 132.210938 109.355469 L 128.773438 114.066406 C 127.96875 115.082031 126.820312 116.1875 125.335938 117.375 C 125.082031 117.542969 124.847656 117.734375 124.636719 117.949219 L 124.574219 118.140625 L 119.929688 126.160156 C 116.535156 132.140625 114.222656 137.53125 112.992188 142.328125 C 112.695312 143.640625 111.847656 145.679688 110.445312 148.4375 C 109.9375 150.347656 108.792969 152.339844 107.011719 154.421875 C 106.460938 155.015625 105.207031 157.265625 103.257812 161.167969 C 101.769531 164.136719 100.691406 165.792969 100.011719 166.132812 L 100.011719 166.449219 L 99.375 173.898438 L 99.628906 177.972656 C 99.585938 180.050781 99.015625 181.089844 97.910156 181.089844 L 92.691406 180.199219 L 86.203125 179.882812 L 86.203125 180.007812 L 79.710938 187.582031 C 78.90625 188.558594 77.125 189.640625 74.367188 190.828125 L 70.421875 194.074219 L 70.230469 194.074219 L 69.722656 199.039062 C 70.230469 199.082031 70.398438 199.488281 70.230469 200.25 L 69.210938 205.277344 C 68.574219 207.738281 68.214844 209.882812 68.128906 211.707031 L 68.640625 214.828125 L 68.640625 214.890625 L 68.832031 218.710938 L 68.832031 218.773438 L 69.148438 218.902344 C 69.53125 218.902344 70.335938 218.347656 71.566406 217.246094 L 71.503906 217.117188 L 77.800781 210.816406 L 82.957031 205.152344 L 83.464844 205.34375 C 84.867188 203.984375 85.96875 203.007812 86.773438 202.414062 L 86.710938 202.289062 C 88.324219 201.058594 89.933594 199.527344 91.546875 197.703125 L 100.648438 187.582031 M 153.652344 60.535156 C 154.714844 59.472656 155.457031 58.941406 155.882812 58.941406 L 156.261719 59.003906 L 156.707031 58.6875 C 158.195312 57.796875 159.785156 56.164062 161.480469 53.785156 L 173.507812 35.074219 C 165.40625 30.363281 160.738281 28.007812 159.507812 28.007812 C 157.515625 28.007812 155.921875 29.214844 154.734375 31.636719 L 152.828125 35.074219 L 149.199219 43.09375 L 147.609375 46.402344 C 147.3125 46.488281 147.164062 46.699219 147.164062 47.039062 L 147.164062 47.167969 L 142.964844 54.488281 C 137.574219 62.210938 132.738281 68.785156 128.457031 74.21875 L 119.355469 86.503906 C 118.890625 86.632812 118.65625 86.800781 118.65625 87.011719 L 118.78125 87.265625 L 114.074219 93.761719 L 111.59375 97.132812 L 111.273438 97.007812 L 104.273438 112.472656 L 104.210938 112.601562 C 103.914062 112.644531 103.765625 112.875 103.765625 113.300781 L 103.765625 113.429688 L 103 115.082031 C 102.109375 117.164062 99.945312 121.109375 96.511719 126.921875 L 96.257812 127.433594 L 91.546875 135.070312 C 90.53125 136.683594 88.769531 139.949219 86.265625 144.871094 C 84.058594 149.203125 82.128906 152.554688 80.476562 154.929688 L 79.964844 155.695312 L 80.285156 156.332031 C 80.285156 157.222656 78.882812 159.300781 76.085938 162.566406 L 73.984375 165.496094 C 73.050781 166.8125 72.542969 167.832031 72.457031 168.550781 C 72.246094 171.308594 72.074219 175.425781 71.949219 180.898438 L 71.566406 185.417969 C 72.5 184.484375 73.835938 183.277344 75.574219 181.792969 L 81.429688 176.953125 L 92.121094 166.261719 C 94.15625 164.136719 97.042969 160.574219 100.773438 155.566406 L 104.910156 147.484375 L 104.71875 147.035156 L 108.730469 136.789062 L 113.5 127.941406 C 112.484375 127.21875 111.019531 125.097656 109.109375 121.574219 C 107.203125 118.011719 106.246094 115.824219 106.246094 115.019531 L 106.882812 114.890625 L 116.492188 112.792969 L 121.457031 113.109375 L 126.609375 106.746094 C 130.894531 101.3125 133.714844 96.6875 135.074219 92.867188 L 136.410156 89.113281 C 139.25 81.21875 141.542969 76.023438 143.28125 73.519531 L 143.34375 73.773438 C 144.152344 72.5 145.871094 70.144531 148.5 66.707031 C 150.664062 63.863281 152.382812 61.804688 153.652344 60.535156 M 155.753906 68.109375 L 155.753906 66.515625 C 158.722656 63.589844 162.734375 58.558594 167.78125 51.429688 C 169.605469 48.925781 172.636719 44.132812 176.878906 37.046875 L 174.972656 35.898438 L 174.652344 35.707031 C 173.890625 38.507812 169.753906 44.894531 162.246094 54.867188 L 154.609375 63.078125 L 154.417969 62.378906 L 146.019531 72.4375 L 145.953125 72.628906 L 143.535156 76.765625 C 141.753906 79.648438 140.589844 81.835938 140.035156 83.320312 L 137.683594 89.8125 L 137.683594 89.878906 L 136.21875 94.015625 L 129.535156 104.582031 C 125.082031 111.328125 122.410156 114.703125 121.519531 114.703125 L 121.457031 114.703125 L 120.4375 114.828125 C 119.207031 114.363281 118.421875 114.128906 118.082031 114.128906 L 108.601562 115.785156 L 107.964844 115.847656 C 107.964844 116.1875 108.917969 118.140625 110.828125 121.703125 C 111.253906 122.765625 112.441406 124.503906 114.390625 126.921875 C 114.6875 126.964844 114.835938 127.15625 114.835938 127.496094 L 114.835938 127.621094 C 114.796875 129.109375 113.140625 132.503906 109.875 137.808594 L 107.011719 145.828125 C 106.925781 148.035156 104.953125 151.851562 101.09375 157.285156 C 98.25 161.316406 95.597656 164.667969 93.136719 167.34375 C 88.769531 172.179688 85.140625 175.746094 82.257812 178.035156 L 75.765625 183.0625 L 71.3125 187.648438 L 70.613281 191.722656 C 71.332031 191.042969 72.394531 190.300781 73.792969 189.492188 C 76.761719 187.921875 78.417969 186.96875 78.757812 186.628906 C 81.9375 182.808594 84.015625 180.496094 84.992188 179.691406 L 84.292969 179.4375 C 84.292969 178.882812 85.988281 178.609375 89.382812 178.609375 L 95.492188 179.054688 L 97.082031 179.753906 L 98.039062 179.753906 L 97.785156 170.96875 C 97.824219 167.746094 98.230469 165.941406 98.992188 165.558594 C 99.121094 165.007812 100.011719 163.203125 101.664062 160.148438 C 103.53125 156.667969 104.933594 154.441406 105.863281 153.464844 C 107.648438 151.683594 109.578125 147.714844 111.65625 141.5625 C 113.734375 136.257812 115.429688 132.207031 116.746094 129.40625 C 119.886719 122.828125 122.050781 118.945312 123.238281 117.757812 L 123.300781 117.757812 L 123.238281 117.628906 L 128.074219 112.347656 C 131.679688 108.1875 134.289062 103.753906 135.898438 99.042969 L 138.953125 90.832031 C 141.585938 84.296875 143.515625 81.03125 144.746094 81.03125 L 145.316406 81.21875 C 146.632812 80.625 149.644531 80.160156 154.355469 79.820312 L 157.472656 79.566406 L 156.007812 70.273438 L 155.753906 68.617188 L 155.753906 68.109375 M 159.125 91.914062 L 153.84375 101.269531 L 152.316406 104.582031 L 163.707031 113.808594 C 165.53125 111.605469 166.933594 110.203125 167.90625 109.609375 C 169.054688 107.402344 169.625 105.980469 169.625 105.34375 C 169.625 103.945312 167.886719 101.441406 164.410156 97.832031 L 163.898438 97.261719 L 163.898438 97.132812 C 163.898438 96.710938 163.664062 96.496094 163.199219 96.496094 C 161.164062 94.332031 159.890625 92.699219 159.382812 91.597656 L 159.125 91.914062 M 138.320312 125.203125 L 144.046875 127.621094 C 146.589844 128.597656 148.308594 129.425781 149.199219 130.105469 L 150.855469 131.503906 C 151.492188 130.273438 153.292969 127.644531 156.261719 123.613281 L 156.136719 123.359375 L 156.261719 122.847656 C 154.863281 118.816406 154.164062 116.398438 154.164062 115.59375 C 154.164062 113.089844 153.355469 111.328125 151.746094 110.308594 L 149.707031 108.910156 L 148.691406 110.246094 C 143.726562 116.824219 140.25 121.808594 138.253906 125.203125 L 138.320312 125.203125 M 136.472656 128.894531 C 135.792969 129.914062 135.453125 130.570312 135.453125 130.871094 L 135.519531 131.058594 L 133.800781 135.132812 C 133.417969 135.386719 133.226562 135.8125 133.226562 136.40625 L 133.226562 136.46875 L 133.226562 136.40625 L 129.027344 145.828125 C 130.089844 145.871094 132.292969 146.996094 135.644531 149.203125 L 145.0625 150.730469 L 150.601562 151.621094 C 150.683594 148.140625 151.195312 144.765625 152.128906 141.5 C 153.144531 138.488281 153.652344 136.703125 153.652344 136.152344 L 152.636719 135.132812 L 152.445312 135.070312 L 152.445312 135.007812 L 147.671875 130.679688 L 143.664062 129.152344 C 143.578125 128.894531 143.386719 128.769531 143.089844 128.769531 L 142.773438 128.832031 L 141.4375 128.386719 C 139.316406 127.707031 138.042969 127.070312 137.617188 126.476562 L 136.601562 128.578125 L 136.472656 128.894531 M 155.5 115.402344 C 155.5 116.164062 156.113281 118.394531 157.34375 122.085938 L 158.425781 120.558594 L 162.816406 114.890625 C 161.503906 114.382812 159.296875 112.726562 156.199219 109.925781 L 151.746094 105.664062 L 150.472656 107.761719 C 151.746094 107.890625 152.890625 108.824219 153.910156 110.5625 C 154.882812 112.21875 155.414062 113.832031 155.5 115.402344 M 157.917969 129.976562 C 158.085938 129.554688 158.320312 129.109375 158.617188 128.640625 L 158.679688 128.707031 L 157.917969 129.976562 M 99.183594 76.191406 L 99.375 74.15625 C 99.839844 70.886719 100.457031 69.191406 101.21875 69.0625 C 102.070312 65.878906 102.8125 63.632812 103.445312 62.316406 L 107.519531 50.667969 C 109.726562 44.640625 111.359375 41.140625 112.417969 40.164062 L 112.546875 39.78125 L 115.984375 30.679688 L 116.363281 30.679688 L 116.429688 30.171875 L 116.429688 30.042969 L 116.492188 30.042969 L 116.746094 28.132812 L 116.746094 28.007812 L 115.21875 28.007812 L 114.390625 28.707031 L 114.328125 28.898438 L 114.328125 28.960938 L 103.765625 32.207031 L 97.847656 34.371094 L 93.902344 44.746094 C 91.144531 51.792969 89.554688 57.289062 89.128906 61.234375 L 88.300781 70.398438 L 87.921875 74.792969 C 87.960938 76.320312 87.453125 80.839844 86.394531 88.347656 C 86.394531 91.148438 87.347656 94.394531 89.257812 98.089844 L 89.511719 98.023438 C 90.105469 98.023438 91.570312 98.40625 93.902344 99.171875 C 96.277344 99.976562 97.464844 100.507812 97.464844 100.761719 C 95.769531 106.871094 94.21875 110.480469 92.820312 111.582031 L 92.566406 111.835938 L 97.972656 122.46875 C 99.882812 119.15625 101.175781 116.421875 101.855469 114.257812 L 103.066406 110.882812 L 103.382812 110.4375 L 103.382812 110.117188 L 103.511719 109.738281 L 103.765625 108.972656 L 104.59375 107.0625 L 104.273438 106.679688 C 105.039062 106.34375 105.441406 105.726562 105.484375 104.835938 L 105.738281 104.261719 C 104.507812 102.523438 103.042969 98.535156 101.347656 92.296875 C 99.777344 86.355469 98.992188 82.089844 98.992188 79.5 L 99.183594 76.191406 M 117.890625 29.089844 L 118.65625 28.578125 L 118.082031 28.199219 L 117.890625 29.089844 M 87.09375 70.144531 L 87.792969 60.851562 C 91.273438 47.273438 93.921875 38.722656 95.746094 35.199219 C 94.941406 35.539062 94.261719 35.859375 93.710938 36.15625 L 89.828125 44.8125 L 88.046875 50.15625 L 86.585938 53.277344 C 85.863281 54.167969 83.570312 55.992188 79.710938 58.75 C 82.894531 62.570312 84.484375 64.796875 84.484375 65.433594 L 84.484375 66.007812 L 84.230469 69.890625 L 82.828125 85.996094 C 82.828125 89.304688 83.867188 94.4375 85.949219 101.398438 L 88.8125 111.199219 L 89.066406 112.28125 L 88.875 112.792969 L 95.9375 125.839844 L 96.894531 124.25 L 97.402344 123.484375 L 93.902344 117.503906 C 92.246094 114.660156 91.355469 112.707031 91.230469 111.644531 L 91.164062 111.519531 L 91.164062 111.265625 L 91.675781 110.691406 C 93.753906 107.933594 95.070312 104.730469 95.621094 101.078125 L 89.320312 99.296875 L 89.003906 99.363281 C 87.941406 99.363281 86.625 95.753906 85.058594 88.539062 C 85.058594 87.097656 85.355469 84.785156 85.949219 81.601562 C 86.5 78.632812 86.734375 76.339844 86.648438 74.726562 L 87.09375 70.144531 M 82.449219 69.828125 C 82.660156 67.875 82.9375 66.539062 83.273438 65.816406 L 78.183594 58.816406 C 78.183594 58.558594 80.601562 56.503906 85.4375 52.640625 L 88.746094 43.855469 C 90.191406 40.207031 91.3125 37.726562 92.121094 36.410156 L 85.058594 39.019531 C 84.167969 39.613281 82.46875 41.140625 79.964844 43.601562 C 78.863281 43.601562 77.84375 44.8125 76.910156 47.230469 C 76.402344 48.671875 76.085938 49.796875 75.957031 50.605469 L 74.175781 55.121094 L 72.265625 64.226562 C 71.546875 67.578125 71.015625 70.953125 70.675781 74.347656 L 70.613281 74.472656 L 70.675781 74.664062 L 70.230469 80.394531 L 70.230469 80.582031 L 70.359375 80.394531 L 70.230469 81.984375 C 70.230469 84.53125 70.867188 88.816406 72.140625 94.84375 L 73.921875 102.480469 L 74.9375 106.109375 C 75.703125 108.613281 76.59375 112.601562 77.613281 118.074219 L 78.820312 121.703125 L 78.4375 122.339844 L 81.238281 130.105469 C 82.003906 131.632812 83.191406 133.394531 84.800781 135.386719 L 84.992188 135.578125 L 86.839844 137.742188 C 87.304688 137.742188 87.539062 137.957031 87.539062 138.378906 L 87.539062 138.507812 L 87.921875 138.890625 L 87.921875 138.824219 L 87.984375 138.699219 L 87.984375 138.636719 L 90.59375 134.117188 L 95.300781 126.859375 C 94.070312 125.203125 91.355469 120.28125 87.15625 112.09375 L 87.15625 111.457031 L 87.285156 111.074219 L 87.21875 110.820312 C 86.5 108.65625 85.460938 104.835938 84.101562 99.363281 L 82.003906 91.785156 C 81.746094 90.683594 81.621094 88.730469 81.621094 85.929688 L 82.003906 75.429688 L 82.449219 69.828125 M 71.3125 81.347656 L 71.375 81.410156 L 71.628906 82.492188 L 71.3125 82.367188 L 71.3125 81.347656 M 33.511719 107.953125 L 45.160156 115.527344 C 45.160156 116.039062 44.882812 116.25 44.332031 116.164062 C 42.210938 116.164062 38.351562 113.640625 32.75 108.589844 C 32.75 108.167969 33.003906 107.953125 33.511719 107.953125 M 80.730469 138.636719 L 83.464844 136.023438 C 81.894531 133.945312 80.773438 132.183594 80.09375 130.742188 L 78.183594 126.476562 L 77.867188 126.859375 C 77.230469 127.921875 76.910156 129.003906 76.910156 130.105469 L 76.910156 134.6875 L 76.847656 135.070312 L 76.910156 135.132812 C 76.953125 136.917969 76.699219 139.546875 76.148438 143.027344 L 80.730469 138.636719 M 121.902344 161.421875 L 120.691406 163.523438 C 120.988281 163.648438 124.511719 165.453125 131.253906 168.933594 L 138.320312 170.589844 L 138.890625 170.78125 L 139.210938 170.714844 L 142.390625 171.160156 C 145.699219 172.816406 148.308594 173.644531 150.21875 173.644531 C 152.722656 173.644531 154.058594 173.390625 154.226562 172.878906 C 152.871094 170.121094 151.9375 166.472656 151.425781 161.933594 L 150.789062 156.585938 L 145.191406 156.902344 C 144.214844 156.859375 143.601562 156.964844 143.34375 157.222656 L 142.710938 157.792969 C 142.199219 158.007812 141.140625 158.726562 139.527344 159.957031 C 136.726562 162.589844 134.96875 163.90625 134.246094 163.90625 C 133.269531 163.90625 132.570312 162.863281 132.144531 160.785156 L 131.507812 156.710938 L 131.128906 153.082031 C 131 152.191406 130.28125 151.429688 128.964844 150.792969 L 127.246094 149.835938 L 121.773438 161.039062 L 121.902344 161.421875 M 86.011719 142.007812 L 86.773438 141.117188 C 87.367188 140.988281 87.75 140.652344 87.921875 140.097656 L 87.15625 139.84375 L 85.566406 142.136719 C 83.613281 144.34375 80.222656 147.078125 75.382812 150.347656 L 75.320312 150.347656 L 73.921875 162.886719 C 75.195312 160.679688 76.277344 158.960938 77.167969 157.730469 L 79.328125 153.976562 L 85.183594 143.855469 L 85.882812 142.582031 L 85.628906 142.390625 L 86.011719 142.007812 M 83.785156 141.246094 L 85.882812 138.824219 L 84.292969 137.042969 L 82.066406 139.84375 C 79.351562 143.113281 77.292969 144.832031 75.894531 145 L 75.511719 148.945312 L 81.683594 143.664062 L 83.785156 141.246094 M 125.527344 168.105469 C 125.484375 167.722656 125.253906 167.53125 124.828125 167.53125 L 124.699219 167.660156 C 121.6875 166.175781 120.121094 165.113281 119.992188 164.476562 L 114.648438 171.796875 L 112.230469 175.109375 L 117.574219 178.035156 L 118.082031 178.289062 C 122.792969 180.625 127.5 182.578125 132.210938 184.144531 L 141.371094 187.328125 L 144.238281 188.347656 L 154.289062 189.558594 C 158.871094 190.152344 161.820312 190.703125 163.136719 191.210938 L 160.652344 184.59375 L 158.171875 179.179688 L 156.707031 176.378906 C 156.582031 176.082031 156.03125 175.746094 155.054688 175.363281 L 154.734375 175.363281 C 153.886719 175.363281 153.421875 175.148438 153.335938 174.726562 L 150.21875 174.980469 C 148.308594 174.980469 146.441406 174.597656 144.617188 173.835938 L 141.945312 172.496094 L 139.65625 172.117188 C 139.398438 171.902344 139.144531 171.796875 138.890625 171.796875 C 138.59375 171.796875 138.402344 171.902344 138.320312 172.117188 C 136.960938 172.074219 135.5625 171.820312 134.117188 171.351562 L 130.492188 170.078125 L 125.527344 168.105469 M 111.59375 183.320312 C 109.472656 182.171875 108.261719 181.28125 107.964844 180.644531 L 103.257812 186.4375 L 101.027344 189.175781 L 100.328125 189.8125 L 100.328125 189.9375 L 98.929688 191.53125 L 105.546875 194.839844 C 108.898438 196.199219 111.039062 197.28125 111.972656 198.085938 C 113.160156 199.191406 116.132812 200.398438 120.882812 201.714844 C 126.441406 203.285156 129.578125 204.238281 130.300781 204.578125 C 136.875 207.550781 143.238281 209.777344 149.390625 211.261719 L 151.492188 211.769531 L 151.746094 212.21875 L 152.382812 211.960938 L 158.617188 213.363281 L 159.316406 213.171875 C 160.503906 213.171875 162.667969 213.871094 165.808594 215.273438 L 169.878906 216.101562 L 169.054688 212.789062 L 167.71875 206.296875 L 165.042969 197.386719 L 161.480469 197.511719 L 148.816406 196.75 L 146.71875 196.175781 L 143.980469 195.605469 L 142.773438 195.222656 L 138.128906 192.992188 C 131.890625 197.578125 128.519531 199.867188 128.011719 199.867188 L 119.609375 187.394531 L 119.671875 187.203125 C 117.933594 186.863281 115.6875 185.800781 112.929688 184.019531 L 111.59375 183.320312 M 112.929688 182.300781 L 115.027344 183.636719 L 118.847656 184.910156 C 120.628906 185.546875 121.519531 186.121094 121.519531 186.628906 C 121.519531 186.96875 121.347656 187.179688 121.011719 187.265625 L 128.199219 198.277344 L 133.480469 194.457031 C 135.984375 192.546875 137.597656 191.59375 138.320312 191.59375 L 143.21875 193.628906 L 144.808594 194.332031 C 145.785156 194.796875 147.269531 195.179688 149.261719 195.476562 L 164.664062 196.175781 L 164.472656 195.476562 L 163.515625 192.292969 L 163.007812 192.359375 C 157.195312 192.359375 150.34375 191.234375 142.453125 188.984375 L 141.691406 188.730469 L 131.320312 185.292969 C 125.082031 182.832031 120.269531 180.816406 116.875 179.246094 C 114.03125 177.929688 112.207031 176.910156 111.402344 176.191406 L 108.730469 179.691406 L 112.929688 182.300781 M 56.421875 138.1875 L 56.359375 138.125 L 56.359375 138.1875 L 56.421875 138.1875 M 58.648438 143.472656 L 58.839844 141.816406 C 58.671875 140.714844 58.246094 139.824219 57.566406 139.144531 L 57.183594 140.097656 L 58.648438 143.472656 M 37.203125 192.421875 L 37.332031 192.613281 L 37.011719 192.546875 L 37.011719 192.039062 L 37.203125 192.421875 M 71.628906 167.023438 L 71.121094 167.214844 L 71.058594 167.214844 L 71.757812 166.386719 L 71.757812 166.449219 L 71.628906 167.023438 M 68.257812 194.648438 L 68.257812 194.96875 L 68.257812 194.648438 M 68.386719 221.574219 C 67.535156 222.59375 67.113281 223.527344 67.113281 224.375 C 67.113281 227.132812 67.367188 231.460938 67.875 237.359375 L 79.902344 232.839844 L 85.058594 229.339844 L 88.621094 226.921875 C 79.328125 221.742188 74.21875 218.667969 73.285156 217.691406 C 71.546875 219.261719 70.25 220.132812 69.402344 220.300781 L 68.386719 221.574219 M 68.320312 244.550781 C 68.320312 243.957031 70.484375 242.941406 74.8125 241.496094 L 81.875 238.1875 C 83.105469 238.1875 86.011719 239.523438 90.59375 242.199219 L 91.355469 235.515625 L 91.992188 232.265625 L 95.554688 230.167969 L 90.210938 227.75 C 89.363281 229.277344 86.308594 231.292969 81.046875 233.796875 C 75.109375 236.636719 71.140625 238.058594 69.148438 238.058594 L 67.9375 237.867188 L 68.320312 242.199219 L 68.320312 244.550781 L 68.003906 253.019531 C 68.046875 257.515625 68.765625 259.765625 70.167969 259.765625 C 74.238281 259.765625 78.566406 258.132812 83.148438 254.863281 C 87.773438 251.128906 91.101562 248.753906 93.136719 247.734375 C 97.804688 245.445312 101.15625 243.535156 103.191406 242.007812 L 106.054688 239.269531 L 106.183594 239.207031 L 106.882812 238.503906 L 109.683594 236.277344 L 101.285156 232.648438 L 99.945312 231.695312 L 99.375 231.820312 L 97.210938 230.867188 C 96.703125 231.714844 95.386719 232.5 93.265625 233.222656 C 92.96875 233.476562 92.777344 234.644531 92.691406 236.722656 C 92.183594 241.304688 91.609375 243.597656 90.976562 243.597656 C 90.382812 243.597656 87.515625 242.238281 82.382812 239.523438 C 82.300781 239.523438 79.902344 240.605469 75.195312 242.769531 C 71.714844 244.550781 69.65625 245.445312 69.019531 245.445312 C 68.554688 245.445312 68.320312 245.148438 68.320312 244.550781 M 150.980469 233.160156 L 150.601562 233.03125 C 148.222656 232.226562 146.316406 231.714844 144.871094 231.503906 L 140.609375 230.550781 L 123.046875 224.820312 C 119.78125 223.800781 117.023438 222.785156 114.773438 221.765625 L 108.21875 218.710938 L 102.621094 215.273438 C 102.109375 214.976562 100.691406 214.53125 98.355469 213.9375 L 96 213.042969 L 90.847656 215.082031 L 84.421875 218.136719 C 83.910156 218.136719 83.679688 217.628906 83.71875 216.609375 L 83.910156 214.382812 C 83.53125 213.109375 83.339844 211.960938 83.339844 210.945312 L 84.101562 206.933594 L 81.621094 209.035156 L 81.492188 208.90625 L 81.492188 208.972656 C 79.753906 211.390625 78.523438 212.597656 77.800781 212.597656 L 77.613281 212.597656 L 76.085938 214.253906 L 76.085938 214.316406 C 76.085938 214.699219 75.449219 215.527344 74.175781 216.800781 C 75.109375 217.183594 77.652344 218.902344 81.8125 221.957031 L 85.949219 224.5 C 87.601562 225.433594 89.53125 226.199219 91.738281 226.792969 C 92.800781 227.089844 96.53125 228.703125 102.9375 231.632812 L 104.019531 232.140625 L 103.765625 231.695312 L 107.074219 233.285156 L 110.765625 235.515625 L 111.148438 235.703125 L 112.546875 236.46875 L 112.546875 236.660156 L 123.109375 241.6875 L 123.109375 241.625 C 123.535156 241.625 123.789062 241.773438 123.875 242.070312 L 125.527344 242.769531 C 129.683594 244.890625 133.757812 246.738281 137.746094 248.308594 L 138.382812 247.734375 C 138.847656 247.734375 139.082031 248.011719 139.082031 248.5625 L 139.082031 248.816406 C 142.773438 250.261719 147.671875 251.765625 153.78125 253.335938 L 153.910156 253.335938 L 154.417969 253.464844 L 175.609375 256.390625 C 175.820312 256.179688 176.222656 255.988281 176.816406 255.820312 L 178.21875 254.863281 L 175.480469 241.496094 C 174.71875 242.089844 173.339844 242.898438 171.34375 243.914062 C 170.453125 245.742188 169.457031 246.652344 168.355469 246.652344 C 167.207031 246.652344 164.597656 243.195312 160.527344 236.277344 L 150.980469 233.160156 M 151.617188 212.917969 L 148.628906 212.28125 C 146.632812 211.8125 140.332031 209.628906 129.726562 205.722656 C 119.632812 202.625 113.351562 200.398438 110.890625 199.039062 C 103.257812 196.367188 98.90625 194.289062 97.847656 192.804688 L 92.121094 199.039062 L 89.828125 201.394531 C 91.1875 201.949219 93.878906 203.582031 97.910156 206.296875 L 106.4375 210.5 L 116.875 214.699219 C 121.371094 216.609375 124.042969 218.03125 124.890625 218.964844 L 135.136719 213.171875 L 143.34375 223.546875 C 144.066406 223.589844 146.546875 224.523438 150.789062 226.347656 L 155.882812 228.511719 L 174.207031 232.585938 L 173.0625 221.957031 C 172.976562 220.300781 172.511719 219.089844 171.664062 218.328125 L 171.089844 218.007812 L 170.390625 218.390625 L 169.433594 217.4375 L 159.953125 214.382812 L 159.890625 214.699219 L 159.953125 215.082031 C 158.257812 214.402344 156.242188 213.828125 153.910156 213.363281 L 152.445312 213.109375 L 152.0625 212.664062 L 151.617188 212.917969 M 150.664062 228.195312 C 145.234375 226.285156 142.519531 224.949219 142.519531 224.183594 L 142.582031 223.992188 L 135.265625 214.953125 C 128.773438 218.476562 125.230469 220.238281 124.636719 220.238281 L 124.382812 220.238281 L 105.101562 211.453125 C 102.769531 210.433594 99.542969 208.800781 95.429688 206.550781 C 91.824219 204.601562 89.574219 203.222656 88.683594 202.414062 L 85.183594 205.914062 L 85.121094 206.488281 L 84.675781 210.878906 C 84.675781 211.984375 84.824219 213.703125 85.121094 216.035156 L 85.121094 216.101562 L 85.183594 216.101562 L 96 211.644531 L 96.449219 211.644531 C 99.5 211.644531 104.230469 213.828125 110.636719 218.199219 C 113.734375 219.515625 118.699219 221.425781 125.527344 223.929688 C 133.671875 227.152344 142.117188 229.785156 150.855469 231.820312 L 152.574219 232.203125 C 158.257812 233.433594 161.207031 234.515625 161.417969 235.449219 L 168.355469 244.742188 C 172.171875 241.773438 174.460938 240.179688 175.226562 239.96875 L 174.589844 235.960938 L 174.335938 233.414062 L 174.207031 233.414062 C 169.371094 233.414062 162.753906 232.078125 154.355469 229.402344 L 150.664062 228.195312 M 112.675781 251.808594 L 117.890625 247.796875 L 122.027344 243.089844 C 118.421875 241.265625 114.816406 239.269531 111.210938 237.105469 L 107.203125 240.605469 L 106.882812 240.542969 C 106.375 240.542969 106.121094 240.777344 106.121094 241.242188 L 106.183594 241.433594 L 103.957031 243.214844 C 102.769531 244.234375 99.394531 246.121094 93.839844 248.878906 C 89.933594 251.257812 85.714844 254.183594 81.175781 257.664062 C 77.824219 259.957031 74.640625 261.101562 71.628906 261.101562 C 70.527344 261.101562 69.636719 260.933594 68.957031 260.59375 L 68.449219 260.910156 C 67.683594 261.632812 67.304688 262.355469 67.304688 263.074219 L 66.921875 266.257812 C 66.921875 268.464844 67.367188 272.75 68.257812 279.117188 C 68.851562 278.691406 69.742188 278.160156 70.929688 277.523438 L 74.9375 275.488281 L 76.847656 273.257812 C 77.058594 272.496094 77.335938 271.773438 77.675781 271.09375 L 79.394531 266.128906 C 80.285156 263.414062 80.984375 262.058594 81.492188 262.058594 C 83.234375 262.058594 86.328125 263.734375 90.785156 267.085938 C 94.007812 265.769531 97.316406 263.710938 100.710938 260.910156 L 109.492188 254.292969 L 112.675781 251.808594 M 112.609375 259.128906 L 121.136719 261.355469 L 122.347656 261.355469 L 122.664062 257.984375 C 122.664062 256.753906 122.429688 255.4375 121.964844 254.035156 C 121.457031 252.679688 121.199219 251.660156 121.199219 250.980469 L 121.199219 249.644531 L 126.226562 245.125 L 123.363281 243.726562 C 122.09375 245.761719 118.675781 248.964844 113.121094 253.335938 L 110.636719 255.183594 L 101.410156 262.566406 C 96.574219 266.171875 93.136719 267.976562 91.101562 267.976562 L 90.464844 267.976562 L 81.8125 263.585938 L 78.4375 272.433594 L 77.992188 274.660156 C 77.824219 275.296875 77.058594 276.058594 75.703125 276.953125 L 68.449219 280.515625 L 69.019531 284.273438 L 69.148438 285.480469 C 70.167969 284.675781 74.640625 282.785156 82.574219 279.816406 C 84.230469 279.222656 86.097656 278.160156 88.175781 276.632812 L 92.757812 273.132812 L 103.636719 266.257812 L 107.964844 262.246094 C 110.296875 260.082031 111.65625 259 112.039062 259 L 112.609375 259.128906 M 94.347656 290.0625 L 94.792969 290.128906 L 96.128906 288.726562 C 102.367188 283.972656 107.796875 279.476562 112.417969 275.234375 C 117.808594 269.589844 122.175781 265.21875 125.527344 262.121094 L 125.335938 261.484375 L 125.402344 261.101562 L 126.101562 260.910156 L 126.609375 261.164062 L 133.355469 253.398438 L 136.792969 249.328125 L 136.089844 249.070312 C 133.078125 248.011719 130.089844 246.824219 127.117188 245.507812 L 127.054688 245.632812 C 125.570312 248.394531 124.171875 250.046875 122.855469 250.597656 L 123.492188 253.71875 L 123.875 258.046875 C 123.875 261.273438 123.554688 262.882812 122.917969 262.882812 L 116.746094 261.675781 L 112.164062 260.339844 C 111.910156 260.507812 109.066406 262.949219 103.636719 267.660156 L 93.648438 274.152344 L 88.9375 277.777344 C 86.945312 279.304688 85.097656 280.367188 83.402344 280.960938 C 74.875 284.570312 70.335938 286.371094 69.785156 286.371094 L 69.210938 286.308594 L 69.976562 293.375 L 70.039062 298.785156 C 70.378906 301.035156 71.566406 302.15625 73.601562 302.15625 C 76.277344 302.15625 82.382812 298.699219 91.929688 291.78125 L 94.347656 290.0625 M 127.820312 149.011719 C 128.285156 149.011719 129.027344 149.285156 130.046875 149.835938 C 131.320312 150.558594 132.0625 151.367188 132.273438 152.257812 L 132.78125 155.503906 C 133.375 159.023438 133.84375 161.273438 134.183594 162.25 C 135.582031 161.359375 137.34375 160.066406 139.464844 158.367188 C 141.414062 156.925781 142.75 156.074219 143.472656 155.820312 L 150.410156 155.183594 L 150.601562 155.183594 L 150.535156 154.929688 L 150.535156 154.800781 L 150.28125 152.703125 L 149.707031 152.703125 L 141.5625 151.8125 C 138 151.21875 135.453125 150.601562 133.925781 149.964844 C 131 148.605469 129.199219 147.609375 128.519531 146.972656 L 127.5625 149.074219 L 127.820312 149.011719 M 150.535156 152.703125 L 150.472656 152.703125 L 150.535156 152.765625 L 150.535156 152.703125 M 153.84375 254.226562 L 151.679688 253.84375 C 149.050781 253.378906 144.640625 252.0625 138.445312 249.898438 L 134.5625 254.609375 C 134.945312 254.652344 135.136719 254.863281 135.136719 255.246094 L 134.5 260.402344 C 134.5 261.335938 137.808594 264.113281 144.425781 268.742188 C 145.996094 269.886719 148.796875 271.03125 152.828125 272.175781 L 154.992188 272.878906 L 158.046875 273.769531 L 160.144531 274.46875 L 171.597656 274.789062 L 171.917969 273.386719 C 172.042969 272.792969 172.746094 271.816406 174.015625 270.457031 L 176.308594 267.46875 C 177.027344 265.472656 177.390625 262.652344 177.390625 259 L 177.515625 257.410156 L 177.515625 257.347656 L 177.324219 257.410156 L 176.371094 257.664062 C 174.503906 257.664062 167.355469 256.582031 154.925781 254.417969 C 154.757812 254.164062 154.566406 254.035156 154.355469 254.035156 C 154.101562 254.035156 153.929688 254.101562 153.84375 254.226562 M 132.464844 281.152344 L 132.402344 281.214844 C 132.402344 281.429688 132.804688 281.578125 133.609375 281.660156 C 135.6875 282.59375 137.832031 283.445312 140.035156 284.207031 C 143.898438 285.523438 148.734375 287.371094 154.546875 289.746094 L 162.945312 291.78125 C 166 292.546875 168.121094 293.160156 169.308594 293.628906 C 171.175781 291.039062 172.109375 288.34375 172.109375 285.542969 C 171.597656 284.1875 171.28125 282.785156 171.152344 281.34375 L 170.582031 281.34375 C 168.078125 281.34375 165.085938 280.8125 161.609375 279.753906 L 155.882812 278.097656 L 155.5 278.605469 L 152.0625 282.617188 C 150.707031 283.972656 149.667969 284.652344 148.945312 284.652344 C 148.480469 284.652344 147.671875 283.550781 146.527344 281.34375 L 143.34375 274.660156 C 141.308594 274.449219 137.832031 272.496094 132.910156 268.804688 C 129.726562 266.425781 127.5625 264.582031 126.417969 263.265625 L 117.511719 272.304688 L 123.109375 276.125 C 126.121094 277.992188 129.238281 279.667969 132.464844 281.152344 M 155.117188 274.53125 C 150.707031 273.34375 146.441406 271.476562 142.328125 268.929688 C 139.695312 267.277344 137.449219 265.535156 135.582031 263.710938 C 133.96875 262.140625 133.164062 261.058594 133.164062 260.464844 C 133.164062 258.214844 133.3125 256.625 133.609375 255.691406 L 127.691406 261.992188 L 133.992188 267.976562 C 134.628906 268.570312 136.601562 269.695312 139.910156 271.351562 L 143.601562 273.386719 L 143.917969 273.324219 C 144.46875 273.324219 145.976562 276.125 148.4375 281.726562 L 149.007812 283.125 L 150.027344 282.105469 L 152.128906 279.625 C 153.484375 278.011719 154.566406 277.078125 155.371094 276.824219 L 155.753906 276.761719 C 157.113281 276.761719 158.871094 277.121094 161.035156 277.84375 L 164.726562 279.117188 L 169.054688 279.6875 L 171.027344 280.007812 L 171.027344 279.496094 C 171.027344 278.480469 171.152344 277.25 171.40625 275.804688 L 166.0625 275.871094 C 162.328125 275.871094 158.679688 275.425781 155.117188 274.53125 M 19.324219 130.105469 L 19.386719 129.851562 L 19.703125 129.789062 L 19.324219 130.105469 "/>
<path style=" stroke:none;fill-rule:evenodd;fill:rgb(81.176472%,76.47059%,76.47059%);fill-opacity:1;" d="M 153.84375 81.285156 C 157.152344 81.113281 158.808594 80.582031 158.808594 79.691406 L 156.707031 67.664062 C 157.9375 67.195312 161.949219 62.167969 168.734375 52.578125 L 174.015625 45.320312 C 176.394531 41.796875 177.6875 39.230469 177.898438 37.617188 L 187.632812 43.539062 L 188.527344 47.230469 C 188.527344 47.953125 188.269531 48.90625 187.761719 50.09375 L 187.253906 50.605469 L 187.445312 50.921875 C 185.535156 54.953125 181.25 61.359375 174.589844 70.144531 L 162.054688 86.375 L 161.992188 86.375 C 161.609375 86.375 160.292969 87.839844 158.046875 90.769531 L 156.773438 92.488281 L 157.21875 92.804688 L 154.101562 98.597656 C 151.257812 104.15625 149.136719 107.742188 147.734375 109.355469 C 141.371094 116.949219 137.34375 123.039062 135.644531 127.621094 C 134.035156 131.953125 131.382812 138.0625 127.691406 145.953125 C 126.503906 148.96875 123.765625 154.441406 119.484375 162.378906 C 117.957031 164.160156 115.453125 167.449219 111.972656 172.242188 L 102.492188 185.292969 L 100.648438 187.582031 L 100.519531 187.582031 C 100.054688 187.582031 99.820312 187.285156 99.820312 186.691406 C 101.007812 182.320312 102.324219 177.992188 103.765625 173.707031 C 106.140625 166.535156 108.027344 162.378906 109.429688 161.230469 C 110.320312 159.320312 113.585938 154.695312 119.226562 147.355469 C 120.839844 145.402344 123.703125 140.542969 127.820312 132.777344 C 129.601562 126.414062 132.019531 121.535156 135.074219 118.140625 L 138.890625 113.621094 L 132.273438 115.59375 L 125.335938 117.375 C 126.820312 116.1875 127.96875 115.082031 128.773438 114.066406 L 132.210938 109.355469 C 134.332031 107.105469 135.941406 104.050781 137.046875 100.1875 C 137.851562 97.472656 138.890625 94.695312 140.164062 91.851562 L 140.992188 92.679688 C 144.214844 94.714844 146.359375 96.179688 147.417969 97.070312 L 150.28125 90.257812 L 153.84375 81.285156 M 147.164062 47.167969 L 147.164062 47.039062 C 147.164062 46.699219 147.3125 46.488281 147.609375 46.402344 L 149.199219 43.09375 L 152.828125 35.074219 L 154.734375 31.636719 C 155.921875 29.214844 157.515625 28.007812 159.507812 28.007812 C 160.738281 28.007812 165.40625 30.363281 173.507812 35.074219 L 161.480469 53.785156 C 159.785156 56.164062 158.195312 57.796875 156.707031 58.6875 L 156.261719 59.003906 L 155.882812 58.941406 C 155.457031 58.941406 154.714844 59.472656 153.652344 60.535156 L 151.746094 56.652344 C 149.03125 52.066406 147.585938 49.035156 147.417969 47.546875 L 147.164062 47.167969 M 136.410156 89.113281 L 135.074219 92.867188 C 133.714844 96.6875 130.894531 101.3125 126.609375 106.746094 L 121.457031 113.109375 L 116.492188 112.792969 L 106.882812 114.890625 L 104.71875 113.875 L 104.402344 113.875 L 103.765625 113.429688 L 103.765625 113.300781 C 103.765625 112.875 103.914062 112.644531 104.210938 112.601562 L 104.402344 112.539062 L 104.273438 112.472656 L 111.273438 97.007812 L 111.59375 97.132812 L 114.074219 93.761719 L 118.78125 87.265625 L 118.65625 87.011719 C 118.65625 86.800781 118.890625 86.632812 119.355469 86.503906 L 126.355469 85.996094 C 128.390625 85.996094 130.554688 86.523438 132.847656 87.585938 L 133.992188 88.160156 C 134.839844 88.371094 135.644531 88.6875 136.410156 89.113281 M 137.683594 89.878906 L 137.683594 89.8125 L 137.746094 89.878906 L 137.683594 89.878906 M 159.125 91.914062 L 159.382812 91.597656 C 159.890625 92.699219 161.164062 94.332031 163.199219 96.496094 C 163.664062 96.496094 163.898438 96.710938 163.898438 97.132812 L 163.898438 97.261719 L 164.410156 97.832031 C 167.886719 101.441406 169.625 103.945312 169.625 105.34375 C 169.625 105.980469 169.054688 107.402344 167.90625 109.609375 C 166.933594 110.203125 165.53125 111.605469 163.707031 113.808594 L 152.316406 104.582031 L 153.84375 101.269531 L 159.125 91.914062 M 138.253906 125.203125 C 140.25 121.808594 143.726562 116.824219 148.691406 110.246094 L 149.707031 108.910156 L 151.746094 110.308594 C 153.355469 111.328125 154.164062 113.089844 154.164062 115.59375 C 154.164062 116.398438 154.863281 118.816406 156.261719 122.847656 L 156.136719 123.359375 L 156.261719 123.613281 C 153.292969 127.644531 151.492188 130.273438 150.855469 131.503906 L 149.199219 130.105469 C 148.308594 129.425781 146.589844 128.597656 144.046875 127.621094 L 138.320312 125.203125 L 138.253906 125.203125 M 136.472656 128.894531 L 136.601562 128.578125 L 137.617188 126.476562 C 138.042969 127.070312 139.316406 127.707031 141.4375 128.386719 L 142.773438 128.832031 L 143.089844 128.769531 C 143.386719 128.769531 143.578125 128.894531 143.664062 129.152344 L 147.671875 130.679688 L 152.445312 135.007812 L 152.445312 135.070312 L 152.636719 135.132812 L 153.652344 136.152344 C 153.652344 136.703125 153.144531 138.488281 152.128906 141.5 C 151.195312 144.765625 150.683594 148.140625 150.601562 151.621094 L 145.0625 150.730469 L 135.644531 149.203125 C 132.292969 146.996094 130.089844 145.871094 129.027344 145.828125 L 133.226562 136.40625 L 133.226562 136.46875 L 133.226562 136.40625 C 133.226562 135.8125 133.417969 135.386719 133.800781 135.132812 L 135.519531 131.058594 L 135.453125 130.871094 C 135.453125 130.570312 135.792969 129.914062 136.472656 128.894531 M 88.300781 70.398438 C 90.507812 70.824219 92.585938 71.523438 94.539062 72.5 C 97.507812 73.984375 98.992188 75.214844 98.992188 76.191406 L 99.183594 76.191406 L 98.992188 79.5 C 98.992188 82.089844 99.777344 86.355469 101.347656 92.296875 C 103.042969 98.535156 104.507812 102.523438 105.738281 104.261719 L 105.484375 104.835938 C 105.441406 105.726562 105.039062 106.34375 104.273438 106.679688 L 104.59375 107.0625 L 103.765625 108.972656 L 103.511719 109.738281 L 103.382812 110.117188 L 103.382812 110.4375 L 103.066406 110.882812 L 103 110.945312 L 102.746094 111.328125 L 102.8125 111.390625 C 102.8125 111.816406 102.578125 112.027344 102.109375 112.027344 C 101.433594 112.027344 100.730469 111.859375 100.011719 111.519531 L 95.175781 111.644531 L 92.820312 111.582031 C 94.21875 110.480469 95.769531 106.871094 97.464844 100.761719 C 97.464844 100.507812 96.277344 99.976562 93.902344 99.171875 C 91.570312 98.40625 90.105469 98.023438 89.511719 98.023438 L 89.257812 98.089844 C 87.347656 94.394531 86.394531 91.148438 86.394531 88.347656 C 87.453125 80.839844 87.960938 76.320312 87.921875 74.792969 L 88.300781 70.398438 M 91.164062 111.328125 L 91.164062 111.519531 L 91.164062 111.328125 M 82.449219 69.828125 L 82.003906 75.429688 L 81.621094 85.929688 C 81.621094 88.730469 81.746094 90.683594 82.003906 91.785156 L 84.101562 99.363281 C 85.460938 104.835938 86.5 108.65625 87.21875 110.820312 C 86.03125 110.523438 84.992188 110.140625 84.101562 109.671875 L 81.238281 107.382812 C 76.402344 104.285156 73.984375 102.628906 73.984375 102.417969 L 73.921875 102.480469 L 72.140625 94.84375 C 70.867188 88.816406 70.230469 84.53125 70.230469 81.984375 L 70.359375 80.394531 L 70.230469 80.394531 L 70.675781 74.664062 L 70.613281 74.472656 L 70.675781 74.347656 C 70.972656 73.878906 72.265625 73.09375 74.558594 71.992188 C 77.441406 70.589844 80.074219 69.867188 82.449219 69.828125 M 71.3125 81.347656 L 71.3125 82.367188 L 71.628906 82.492188 L 71.375 81.410156 L 71.3125 81.347656 M 114.136719 93.886719 L 114.074219 93.761719 L 114.136719 93.886719 M 76.910156 135.132812 L 76.847656 135.070312 L 76.910156 134.6875 L 76.910156 130.105469 C 76.910156 129.003906 77.230469 127.921875 77.867188 126.859375 L 78.183594 126.476562 L 80.09375 130.742188 C 80.773438 132.183594 81.894531 133.945312 83.464844 136.023438 L 80.730469 138.636719 L 76.910156 135.132812 M 85.566406 142.136719 L 87.15625 139.84375 L 87.921875 140.097656 C 87.75 140.652344 87.367188 140.988281 86.773438 141.117188 L 86.011719 142.007812 L 85.566406 142.136719 M 121.902344 161.421875 L 121.773438 161.039062 L 127.246094 149.835938 L 128.964844 150.792969 C 130.28125 151.429688 131 152.191406 131.128906 153.082031 L 131.507812 156.710938 L 132.144531 160.785156 C 132.570312 162.863281 133.269531 163.90625 134.246094 163.90625 C 134.96875 163.90625 136.726562 162.589844 139.527344 159.957031 C 141.140625 158.726562 142.199219 158.007812 142.710938 157.792969 L 143.34375 157.222656 C 143.601562 156.964844 144.214844 156.859375 145.191406 156.902344 L 150.789062 156.585938 L 151.425781 161.933594 C 151.9375 166.472656 152.871094 170.121094 154.226562 172.878906 C 154.058594 173.390625 152.722656 173.644531 150.21875 173.644531 C 148.308594 173.644531 145.699219 172.816406 142.390625 171.160156 L 139.210938 170.714844 L 138.890625 170.78125 L 138.320312 170.589844 L 131.253906 168.933594 C 124.511719 165.453125 120.988281 163.648438 120.691406 163.523438 L 121.902344 161.421875 M 125.527344 168.105469 L 125.527344 168.425781 C 125.527344 169.824219 124.171875 171.988281 121.457031 174.917969 L 118.082031 178.289062 L 117.574219 178.035156 L 112.230469 175.109375 L 114.648438 171.796875 L 119.992188 164.476562 C 120.121094 165.113281 121.6875 166.175781 124.699219 167.660156 L 124.828125 167.53125 C 125.253906 167.53125 125.484375 167.722656 125.527344 168.105469 M 141.371094 187.328125 L 140.671875 182.425781 C 139.019531 176.699219 138.191406 173.429688 138.191406 172.625 L 138.320312 172.117188 C 138.402344 171.902344 138.59375 171.796875 138.890625 171.796875 C 139.144531 171.796875 139.398438 171.902344 139.65625 172.117188 L 141.945312 172.496094 L 144.617188 173.835938 C 146.441406 174.597656 148.308594 174.980469 150.21875 174.980469 L 153.335938 174.726562 C 153.421875 175.148438 153.886719 175.363281 154.734375 175.363281 L 155.054688 175.363281 C 156.03125 175.746094 156.582031 176.082031 156.707031 176.378906 L 158.171875 179.179688 L 160.652344 184.59375 L 163.136719 191.210938 C 161.820312 190.703125 158.871094 190.152344 154.289062 189.558594 L 144.238281 188.347656 L 141.371094 187.328125 M 100.328125 189.9375 L 100.328125 189.8125 L 101.027344 189.175781 L 103.257812 186.4375 L 107.964844 180.644531 C 108.261719 181.28125 109.472656 182.171875 111.59375 183.320312 C 105.566406 188.070312 102.175781 190.449219 101.410156 190.449219 C 100.730469 190.449219 100.371094 190.277344 100.328125 189.9375 M 143.980469 195.605469 L 146.71875 196.175781 L 148.816406 196.75 L 161.480469 197.511719 L 165.042969 197.386719 L 167.71875 206.296875 L 169.054688 212.789062 L 169.878906 216.101562 L 165.808594 215.273438 C 162.667969 213.871094 160.503906 213.171875 159.316406 213.171875 L 158.617188 213.363281 L 152.382812 211.960938 L 151.746094 212.21875 L 151.492188 211.769531 C 148.097656 205.023438 145.59375 199.636719 143.980469 195.605469 M 99.375 231.820312 L 99.945312 231.695312 L 101.285156 232.648438 L 109.683594 236.277344 L 106.882812 238.503906 L 106.183594 239.207031 L 105.929688 239.207031 C 105.886719 239.417969 105.695312 239.523438 105.355469 239.523438 C 104.890625 239.523438 102.832031 237.105469 99.183594 232.265625 C 99.183594 232.054688 99.246094 231.90625 99.375 231.820312 M 153.78125 253.335938 C 153.316406 252.828125 152.382812 246.101562 150.980469 233.160156 L 160.527344 236.277344 C 164.597656 243.195312 167.207031 246.652344 168.355469 246.652344 C 169.457031 246.652344 170.453125 245.742188 171.34375 243.914062 C 173.339844 242.898438 174.71875 242.089844 175.480469 241.496094 L 178.21875 254.863281 L 176.816406 255.820312 C 176.222656 255.988281 175.820312 256.179688 175.609375 256.390625 L 154.417969 253.464844 L 153.910156 253.335938 L 153.78125 253.335938 M 150.789062 226.347656 L 150.917969 223.867188 C 150.917969 222.464844 151.066406 221.511719 151.363281 221 L 151.746094 219.089844 L 151.363281 214.191406 L 151.617188 212.917969 L 152.0625 212.664062 L 152.445312 213.109375 L 153.910156 213.363281 C 156.242188 213.828125 158.257812 214.402344 159.953125 215.082031 L 159.890625 214.699219 L 159.953125 214.382812 L 169.433594 217.4375 L 170.390625 218.390625 L 171.089844 218.007812 L 171.664062 218.328125 C 172.511719 219.089844 172.976562 220.300781 173.0625 221.957031 L 174.207031 232.585938 L 155.882812 228.511719 L 150.789062 226.347656 M 106.183594 241.433594 L 106.121094 241.242188 C 106.121094 240.777344 106.375 240.542969 106.882812 240.542969 L 107.203125 240.605469 L 111.210938 237.105469 C 114.816406 239.269531 118.421875 241.265625 122.027344 243.089844 L 117.890625 247.796875 L 112.675781 251.808594 C 112.082031 250.152344 111.105469 248.285156 109.746094 246.207031 L 106.183594 241.433594 M 112.164062 260.339844 L 116.746094 261.675781 L 122.917969 262.882812 C 123.554688 262.882812 123.875 261.273438 123.875 258.046875 L 123.492188 253.71875 L 122.855469 250.597656 C 124.171875 250.046875 125.570312 248.394531 127.054688 245.632812 L 127.117188 245.507812 C 130.089844 246.824219 133.078125 248.011719 136.089844 249.070312 L 136.792969 249.328125 L 133.355469 253.398438 L 126.609375 261.164062 L 126.101562 260.910156 L 125.402344 261.101562 L 125.335938 261.484375 L 125.527344 262.121094 C 122.175781 265.21875 117.808594 269.589844 112.417969 275.234375 C 107.796875 279.476562 102.367188 283.972656 96.128906 288.726562 L 94.792969 290.128906 L 94.347656 290.0625 C 94.136719 289.9375 94.03125 289.746094 94.03125 289.492188 C 94.03125 288.898438 97.253906 284.058594 103.703125 274.976562 C 107.859375 269.039062 110.679688 264.15625 112.164062 260.339844 M 150.535156 152.703125 L 150.535156 152.765625 L 150.472656 152.703125 L 150.535156 152.703125 M 154.992188 272.878906 C 154.101562 262.992188 153.652344 256.921875 153.652344 254.671875 C 153.652344 254.460938 153.71875 254.3125 153.84375 254.226562 C 153.929688 254.101562 154.101562 254.035156 154.355469 254.035156 C 154.566406 254.035156 154.757812 254.164062 154.925781 254.417969 C 167.355469 256.582031 174.503906 257.664062 176.371094 257.664062 L 177.324219 257.410156 L 177.515625 257.410156 L 177.390625 259 C 177.390625 262.652344 177.027344 265.472656 176.308594 267.46875 L 174.015625 270.457031 C 172.746094 271.816406 172.042969 272.792969 171.917969 273.386719 L 171.597656 274.789062 L 160.144531 274.46875 L 158.046875 273.769531 L 154.992188 272.878906 M 155.5 278.605469 L 155.882812 278.097656 L 161.609375 279.753906 C 165.085938 280.8125 168.078125 281.34375 170.582031 281.34375 L 171.152344 281.34375 C 171.28125 282.785156 171.597656 284.1875 172.109375 285.542969 C 172.109375 288.34375 171.175781 291.039062 169.308594 293.628906 C 168.121094 293.160156 166 292.546875 162.945312 291.78125 L 154.546875 289.746094 C 148.734375 287.371094 143.898438 285.523438 140.035156 284.207031 C 137.832031 283.445312 135.6875 282.59375 133.609375 281.660156 C 132.804688 281.578125 132.402344 281.429688 132.402344 281.214844 L 132.464844 281.152344 L 137.808594 280.578125 L 146.527344 281.34375 C 147.671875 283.550781 148.480469 284.652344 148.945312 284.652344 C 149.667969 284.652344 150.707031 283.972656 152.0625 282.617188 L 155.5625 283.636719 L 155.5625 279.117188 L 155.5 278.605469 "/>
<path style=" stroke:none;fill-rule:evenodd;fill:rgb(17.647059%,14.901961%,18.039216%);fill-opacity:1;" d="M 154.609375 63.078125 L 162.246094 54.867188 C 169.753906 44.894531 173.890625 38.507812 174.652344 35.707031 L 174.972656 35.898438 L 176.878906 37.046875 C 172.636719 44.132812 169.605469 48.925781 167.78125 51.429688 C 162.734375 58.558594 158.722656 63.589844 155.753906 66.515625 L 155.753906 68.109375 L 154.609375 63.078125 M 156.007812 70.273438 L 157.472656 79.566406 L 154.355469 79.820312 C 155.5 76.382812 156.074219 73.964844 156.074219 72.5625 L 156.007812 70.273438 M 138.953125 90.832031 L 135.898438 99.042969 C 134.289062 103.753906 131.679688 108.1875 128.074219 112.347656 L 123.238281 117.628906 L 123.300781 117.757812 L 123.238281 117.757812 L 115.347656 118.648438 C 114.921875 118.648438 112.675781 117.691406 108.601562 115.785156 L 118.082031 114.128906 C 118.421875 114.128906 119.207031 114.363281 120.4375 114.828125 L 121.457031 114.703125 L 121.519531 114.703125 C 122.410156 114.703125 125.082031 111.328125 129.535156 104.582031 L 136.21875 94.015625 L 137.683594 89.878906 L 137.746094 89.878906 L 138.953125 90.832031 M 155.5 115.402344 C 155.414062 113.832031 154.882812 112.21875 153.910156 110.5625 C 152.890625 108.824219 151.746094 107.890625 150.472656 107.761719 L 151.746094 105.664062 L 156.199219 109.925781 C 159.296875 112.726562 161.503906 114.382812 162.816406 114.890625 L 158.425781 120.558594 L 157.34375 122.085938 C 156.113281 118.394531 155.5 116.164062 155.5 115.402344 M 84.230469 69.890625 L 87.09375 70.144531 L 86.648438 74.726562 C 86.734375 76.339844 86.5 78.632812 85.949219 81.601562 C 85.355469 84.785156 85.058594 87.097656 85.058594 88.539062 C 86.625 95.753906 87.941406 99.363281 89.003906 99.363281 L 89.320312 99.296875 L 95.621094 101.078125 C 95.070312 104.730469 93.753906 107.933594 91.675781 110.691406 L 91.164062 111.265625 L 91.164062 111.519531 L 88.8125 111.199219 L 85.949219 101.398438 C 83.867188 94.4375 82.828125 89.304688 82.828125 85.996094 L 84.230469 69.890625 M 82.066406 139.84375 L 84.292969 137.042969 L 85.882812 138.824219 L 83.785156 141.246094 L 82.066406 139.84375 M 116.875 179.246094 L 115.855469 179.945312 L 112.929688 182.300781 L 108.730469 179.691406 L 111.402344 176.191406 C 112.207031 176.910156 114.03125 177.929688 116.875 179.246094 M 143.21875 193.628906 L 142.773438 192.421875 L 141.691406 188.730469 L 142.453125 188.984375 C 150.34375 191.234375 157.195312 192.359375 163.007812 192.359375 L 163.515625 192.292969 L 164.472656 195.476562 L 164.664062 196.175781 L 149.261719 195.476562 C 147.269531 195.179688 145.785156 194.796875 144.808594 194.332031 L 143.21875 193.628906 M 150.855469 231.820312 L 150.535156 228.894531 L 150.664062 228.195312 L 154.355469 229.402344 C 162.753906 232.078125 169.371094 233.414062 174.207031 233.414062 L 174.335938 233.414062 L 174.589844 235.960938 L 175.226562 239.96875 C 174.460938 240.179688 172.171875 241.773438 168.355469 244.742188 L 161.417969 235.449219 C 161.207031 234.515625 158.257812 233.433594 152.574219 232.203125 L 150.855469 231.820312 M 113.121094 253.335938 C 118.675781 248.964844 122.09375 245.761719 123.363281 243.726562 L 126.226562 245.125 L 121.199219 249.644531 L 121.199219 250.980469 C 121.199219 251.660156 121.457031 252.679688 121.964844 254.035156 C 122.429688 255.4375 122.664062 256.753906 122.664062 257.984375 L 122.347656 261.355469 L 121.136719 261.355469 L 112.609375 259.128906 C 113.078125 257.601562 113.308594 256.285156 113.308594 255.183594 L 113.121094 253.335938 M 127.820312 149.011719 L 127.5625 149.074219 L 128.519531 146.972656 C 129.199219 147.609375 131 148.605469 133.925781 149.964844 C 135.453125 150.601562 138 151.21875 141.5625 151.8125 L 149.707031 152.703125 L 150.28125 152.703125 L 150.535156 154.800781 L 150.535156 154.929688 L 150.601562 155.183594 L 150.410156 155.183594 L 143.472656 155.820312 C 142.75 156.074219 141.414062 156.925781 139.464844 158.367188 C 137.34375 160.066406 135.582031 161.359375 134.183594 162.25 C 133.84375 161.273438 133.375 159.023438 132.78125 155.503906 L 132.273438 152.257812 C 132.0625 151.367188 131.320312 150.558594 130.046875 149.835938 C 129.027344 149.285156 128.285156 149.011719 127.820312 149.011719 M 155.371094 276.824219 L 155.117188 274.53125 C 158.679688 275.425781 162.328125 275.871094 166.0625 275.871094 L 171.40625 275.804688 C 171.152344 277.25 171.027344 278.480469 171.027344 279.496094 L 171.027344 280.007812 L 169.054688 279.6875 L 164.726562 279.117188 L 161.035156 277.84375 C 158.871094 277.121094 157.113281 276.761719 155.753906 276.761719 L 155.371094 276.824219 M 148.4375 281.726562 L 149.328125 281.917969 L 150.027344 282.105469 L 149.007812 283.125 L 148.4375 281.726562 "/>
<path style=" stroke:none;fill-rule:evenodd;fill:rgb(95.294118%,91.37255%,90.980393%);fill-opacity:1;" d="M 153.84375 81.285156 L 150.28125 90.257812 L 147.417969 97.070312 C 146.359375 96.179688 144.214844 94.714844 140.992188 92.679688 L 140.164062 91.851562 L 142.390625 87.203125 L 145 82.492188 L 145.191406 82.558594 L 152.445312 81.285156 L 153.84375 81.285156 M 125.335938 117.375 L 132.273438 115.59375 L 138.890625 113.621094 L 135.074219 118.140625 C 132.019531 121.535156 129.601562 126.414062 127.820312 132.777344 C 123.703125 140.542969 120.839844 145.402344 119.226562 147.355469 C 113.585938 154.695312 110.320312 159.320312 109.429688 161.230469 C 108.027344 162.378906 106.140625 166.535156 103.765625 173.707031 C 102.324219 177.992188 101.007812 182.320312 99.820312 186.691406 C 99.820312 187.285156 100.054688 187.582031 100.519531 187.582031 L 100.648438 187.582031 L 91.546875 197.703125 C 89.933594 199.527344 88.324219 201.058594 86.710938 202.289062 L 86.773438 202.414062 C 85.96875 203.007812 84.867188 203.984375 83.464844 205.34375 L 82.957031 205.152344 L 77.800781 210.816406 L 71.503906 217.117188 L 71.566406 217.246094 C 70.335938 218.347656 69.53125 218.902344 69.148438 218.902344 L 68.832031 218.773438 L 68.832031 218.710938 L 68.640625 214.890625 L 68.640625 214.828125 L 68.128906 211.707031 C 68.214844 209.882812 68.574219 207.738281 69.210938 205.277344 L 70.230469 200.25 C 70.398438 199.488281 70.230469 199.082031 69.722656 199.039062 L 70.230469 194.074219 L 70.421875 194.074219 L 74.367188 190.828125 C 77.125 189.640625 78.90625 188.558594 79.710938 187.582031 L 86.203125 180.007812 L 86.203125 179.882812 L 92.691406 180.199219 L 97.910156 181.089844 C 99.015625 181.089844 99.585938 180.050781 99.628906 177.972656 L 99.375 173.898438 L 100.011719 166.449219 L 100.011719 166.132812 C 100.691406 165.792969 101.769531 164.136719 103.257812 161.167969 C 105.207031 157.265625 106.460938 155.015625 107.011719 154.421875 C 108.792969 152.339844 109.9375 150.347656 110.445312 148.4375 C 111.847656 145.679688 112.695312 143.640625 112.992188 142.328125 C 114.222656 137.53125 116.535156 132.140625 119.929688 126.160156 L 124.574219 118.140625 L 124.636719 117.949219 C 124.847656 117.734375 125.082031 117.542969 125.335938 117.375 M 147.164062 47.167969 L 147.417969 47.546875 C 147.585938 49.035156 149.03125 52.066406 151.746094 56.652344 L 153.652344 60.535156 C 152.382812 61.804688 150.664062 63.863281 148.5 66.707031 C 145.871094 70.144531 144.152344 72.5 143.34375 73.773438 L 143.28125 73.519531 C 141.542969 76.023438 139.25 81.21875 136.410156 89.113281 C 135.644531 88.6875 134.839844 88.371094 133.992188 88.160156 L 132.847656 87.585938 C 130.554688 86.523438 128.390625 85.996094 126.355469 85.996094 L 119.355469 86.503906 L 128.457031 74.21875 C 132.738281 68.785156 137.574219 62.210938 142.964844 54.488281 L 147.164062 47.167969 M 106.882812 114.890625 L 106.246094 115.019531 C 106.246094 115.824219 107.203125 118.011719 109.109375 121.574219 C 111.019531 125.097656 112.484375 127.21875 113.5 127.941406 L 108.730469 136.789062 L 104.71875 147.035156 L 104.910156 147.484375 L 100.773438 155.566406 C 97.042969 160.574219 94.15625 164.136719 92.121094 166.261719 L 81.429688 176.953125 L 75.574219 181.792969 C 73.835938 183.277344 72.5 184.484375 71.566406 185.417969 L 71.949219 180.898438 C 72.074219 175.425781 72.246094 171.308594 72.457031 168.550781 C 72.542969 167.832031 73.050781 166.8125 73.984375 165.496094 L 76.085938 162.566406 C 78.882812 159.300781 80.285156 157.222656 80.285156 156.332031 L 79.964844 155.695312 L 80.476562 154.929688 C 82.128906 152.554688 84.058594 149.203125 86.265625 144.871094 C 88.769531 139.949219 90.53125 136.683594 91.546875 135.070312 L 96.257812 127.433594 L 96.511719 126.921875 C 99.945312 121.109375 102.109375 117.164062 103 115.082031 L 103.765625 113.429688 L 104.402344 113.875 L 104.71875 113.875 L 106.882812 114.890625 M 104.210938 112.601562 L 104.273438 112.472656 L 104.402344 112.539062 L 104.210938 112.601562 M 88.300781 70.398438 L 89.128906 61.234375 C 89.554688 57.289062 91.144531 51.792969 93.902344 44.746094 L 97.847656 34.371094 L 103.765625 32.207031 L 114.328125 28.960938 L 114.328125 28.898438 L 114.390625 28.707031 L 115.21875 28.007812 L 116.746094 28.007812 L 116.746094 28.132812 L 116.492188 30.042969 L 116.429688 30.042969 L 116.429688 30.171875 L 116.363281 30.679688 L 115.984375 30.679688 L 112.546875 39.78125 L 112.417969 40.164062 C 111.359375 41.140625 109.726562 44.640625 107.519531 50.667969 L 103.445312 62.316406 C 102.8125 63.632812 102.070312 65.878906 101.21875 69.0625 C 100.457031 69.191406 99.839844 70.886719 99.375 74.15625 L 99.183594 76.191406 L 98.992188 76.191406 C 98.992188 75.214844 97.507812 73.984375 94.539062 72.5 C 92.585938 71.523438 90.507812 70.824219 88.300781 70.398438 M 103.066406 110.882812 L 101.855469 114.257812 C 101.175781 116.421875 99.882812 119.15625 97.972656 122.46875 L 92.566406 111.835938 L 92.820312 111.582031 L 95.175781 111.644531 L 100.011719 111.519531 C 100.730469 111.859375 101.433594 112.027344 102.109375 112.027344 C 102.578125 112.027344 102.8125 111.816406 102.8125 111.390625 L 102.746094 111.328125 L 103 110.945312 L 103.066406 110.882812 M 70.675781 74.347656 C 71.015625 70.953125 71.546875 67.578125 72.265625 64.226562 L 74.175781 55.121094 L 75.957031 50.605469 C 76.085938 49.796875 76.402344 48.671875 76.910156 47.230469 C 77.84375 44.8125 78.863281 43.601562 79.964844 43.601562 C 82.46875 41.140625 84.167969 39.613281 85.058594 39.019531 L 92.121094 36.410156 C 91.3125 37.726562 90.191406 40.207031 88.746094 43.855469 L 85.4375 52.640625 C 80.601562 56.503906 78.183594 58.558594 78.183594 58.816406 L 83.273438 65.816406 C 82.9375 66.539062 82.660156 67.875 82.449219 69.828125 C 80.074219 69.867188 77.441406 70.589844 74.558594 71.992188 C 72.265625 73.09375 70.972656 73.878906 70.675781 74.347656 M 87.21875 110.820312 L 87.285156 111.074219 L 87.15625 111.457031 L 87.15625 112.09375 C 91.355469 120.28125 94.070312 125.203125 95.300781 126.859375 L 90.59375 134.117188 L 87.984375 138.636719 L 87.984375 138.699219 L 87.921875 138.824219 L 87.921875 138.890625 L 87.539062 138.507812 L 87.539062 138.378906 C 87.539062 137.957031 87.304688 137.742188 86.839844 137.742188 L 84.992188 135.578125 L 84.800781 135.386719 C 83.191406 133.394531 82.003906 131.632812 81.238281 130.105469 L 78.4375 122.339844 L 78.820312 121.703125 L 77.613281 118.074219 C 76.59375 112.601562 75.703125 108.613281 74.9375 106.109375 L 73.921875 102.480469 L 73.984375 102.417969 C 73.984375 102.628906 76.402344 104.285156 81.238281 107.382812 L 84.101562 109.671875 C 84.992188 110.140625 86.03125 110.523438 87.21875 110.820312 M 114.136719 93.886719 L 114.074219 93.761719 L 114.136719 93.886719 M 76.910156 135.132812 L 80.730469 138.636719 L 76.148438 143.027344 C 76.699219 139.546875 76.953125 136.917969 76.910156 135.132812 M 85.566406 142.136719 L 86.011719 142.007812 L 85.628906 142.390625 L 85.882812 142.582031 L 85.183594 143.855469 L 79.328125 153.976562 L 77.167969 157.730469 C 76.277344 158.960938 75.195312 160.679688 73.921875 162.886719 L 75.320312 150.347656 L 75.382812 150.347656 C 80.222656 147.078125 83.613281 144.34375 85.566406 142.136719 M 118.082031 178.289062 L 121.457031 174.917969 C 124.171875 171.988281 125.527344 169.824219 125.527344 168.425781 L 125.527344 168.105469 L 130.492188 170.078125 L 134.117188 171.351562 C 135.5625 171.820312 136.960938 172.074219 138.320312 172.117188 L 138.191406 172.625 C 138.191406 173.429688 139.019531 176.699219 140.671875 182.425781 L 141.371094 187.328125 L 132.210938 184.144531 C 127.5 182.578125 122.792969 180.625 118.082031 178.289062 M 100.328125 189.9375 C 100.371094 190.277344 100.730469 190.449219 101.410156 190.449219 C 102.175781 190.449219 105.566406 188.070312 111.59375 183.320312 L 112.929688 184.019531 C 115.6875 185.800781 117.933594 186.863281 119.671875 187.203125 L 119.609375 187.394531 L 128.011719 199.867188 C 128.519531 199.867188 131.890625 197.578125 138.128906 192.992188 L 142.773438 195.222656 L 143.980469 195.605469 C 145.59375 199.636719 148.097656 205.023438 151.492188 211.769531 L 149.390625 211.261719 C 143.238281 209.777344 136.875 207.550781 130.300781 204.578125 C 129.578125 204.238281 126.441406 203.285156 120.882812 201.714844 C 116.132812 200.398438 113.160156 199.191406 111.972656 198.085938 C 111.039062 197.28125 108.898438 196.199219 105.546875 194.839844 L 98.929688 191.53125 L 100.328125 189.9375 M 68.386719 221.574219 L 69.402344 220.300781 C 70.25 220.132812 71.546875 219.261719 73.285156 217.691406 C 74.21875 218.667969 79.328125 221.742188 88.621094 226.921875 L 85.058594 229.339844 L 79.902344 232.839844 L 67.875 237.359375 C 67.367188 231.460938 67.113281 227.132812 67.113281 224.375 C 67.113281 223.527344 67.535156 222.59375 68.386719 221.574219 M 68.320312 244.550781 C 68.320312 245.148438 68.554688 245.445312 69.019531 245.445312 C 69.65625 245.445312 71.714844 244.550781 75.195312 242.769531 C 79.902344 240.605469 82.300781 239.523438 82.382812 239.523438 C 87.515625 242.238281 90.382812 243.597656 90.976562 243.597656 C 91.609375 243.597656 92.183594 241.304688 92.691406 236.722656 C 92.777344 234.644531 92.96875 233.476562 93.265625 233.222656 C 95.386719 232.5 96.703125 231.714844 97.210938 230.867188 L 99.375 231.820312 C 99.246094 231.90625 99.183594 232.054688 99.183594 232.265625 C 102.832031 237.105469 104.890625 239.523438 105.355469 239.523438 C 105.695312 239.523438 105.886719 239.417969 105.929688 239.207031 L 106.183594 239.207031 L 106.054688 239.269531 L 103.191406 242.007812 C 101.15625 243.535156 97.804688 245.445312 93.136719 247.734375 C 91.101562 248.753906 87.773438 251.128906 83.148438 254.863281 C 78.566406 258.132812 74.238281 259.765625 70.167969 259.765625 C 68.765625 259.765625 68.046875 257.515625 68.003906 253.019531 L 68.320312 244.550781 M 81.621094 209.035156 L 84.101562 206.933594 L 83.339844 210.945312 C 83.339844 211.960938 83.53125 213.109375 83.910156 214.382812 L 83.71875 216.609375 C 83.679688 217.628906 83.910156 218.136719 84.421875 218.136719 L 90.847656 215.082031 L 96 213.042969 L 98.355469 213.9375 C 100.691406 214.53125 102.109375 214.976562 102.621094 215.273438 L 108.21875 218.710938 L 114.773438 221.765625 C 117.023438 222.785156 119.78125 223.800781 123.046875 224.820312 L 140.609375 230.550781 L 144.871094 231.503906 C 146.316406 231.714844 148.222656 232.226562 150.601562 233.03125 L 150.980469 233.160156 C 152.382812 246.101562 153.316406 252.828125 153.78125 253.335938 C 147.671875 251.765625 142.773438 250.261719 139.082031 248.816406 L 139.082031 248.5625 C 139.082031 248.011719 138.847656 247.734375 138.382812 247.734375 L 137.746094 248.308594 C 133.757812 246.738281 129.683594 244.890625 125.527344 242.769531 L 123.875 242.070312 C 123.789062 241.773438 123.535156 241.625 123.109375 241.625 L 123.109375 241.6875 L 112.546875 236.660156 L 112.546875 236.46875 L 111.148438 235.703125 L 110.765625 235.515625 L 107.074219 233.285156 L 103.765625 231.695312 L 104.019531 232.140625 L 102.9375 231.632812 C 96.53125 228.703125 92.800781 227.089844 91.738281 226.792969 C 89.53125 226.199219 87.601562 225.433594 85.949219 224.5 L 81.8125 221.957031 C 77.652344 218.902344 75.109375 217.183594 74.175781 216.800781 C 75.449219 215.527344 76.085938 214.699219 76.085938 214.316406 L 76.085938 214.253906 L 77.613281 212.597656 L 77.800781 212.597656 C 78.523438 212.597656 79.753906 211.390625 81.492188 208.972656 L 81.621094 209.035156 M 150.789062 226.347656 C 146.546875 224.523438 144.066406 223.589844 143.34375 223.546875 L 135.136719 213.171875 L 124.890625 218.964844 C 124.042969 218.03125 121.371094 216.609375 116.875 214.699219 L 106.4375 210.5 L 97.910156 206.296875 C 93.878906 203.582031 91.1875 201.949219 89.828125 201.394531 L 92.121094 199.039062 L 97.847656 192.804688 C 98.90625 194.289062 103.257812 196.367188 110.890625 199.039062 C 113.351562 200.398438 119.632812 202.625 129.726562 205.722656 C 140.332031 209.628906 146.632812 211.8125 148.628906 212.28125 L 151.617188 212.917969 L 151.363281 214.191406 L 151.746094 219.089844 L 151.363281 221 C 151.066406 221.511719 150.917969 222.464844 150.917969 223.867188 L 150.789062 226.347656 M 85.121094 216.035156 L 85.183594 216.101562 L 85.121094 216.101562 L 85.121094 216.035156 M 112.675781 251.808594 L 109.492188 254.292969 L 100.710938 260.910156 C 97.316406 263.710938 94.007812 265.769531 90.785156 267.085938 C 86.328125 263.734375 83.234375 262.058594 81.492188 262.058594 C 80.984375 262.058594 80.285156 263.414062 79.394531 266.128906 L 77.675781 271.09375 C 77.335938 271.773438 77.058594 272.496094 76.847656 273.257812 L 74.9375 275.488281 L 70.929688 277.523438 C 69.742188 278.160156 68.851562 278.691406 68.257812 279.117188 C 67.367188 272.75 66.921875 268.464844 66.921875 266.257812 L 67.304688 263.074219 C 67.304688 262.355469 67.683594 261.632812 68.449219 260.910156 L 68.957031 260.59375 C 69.636719 260.933594 70.527344 261.101562 71.628906 261.101562 C 74.640625 261.101562 77.824219 259.957031 81.175781 257.664062 C 85.714844 254.183594 89.933594 251.257812 93.839844 248.878906 C 99.394531 246.121094 102.769531 244.234375 103.957031 243.214844 L 106.183594 241.433594 L 109.746094 246.207031 C 111.105469 248.285156 112.082031 250.152344 112.675781 251.808594 M 112.164062 260.339844 C 110.679688 264.15625 107.859375 269.039062 103.703125 274.976562 C 97.253906 284.058594 94.03125 288.898438 94.03125 289.492188 C 94.03125 289.746094 94.136719 289.9375 94.347656 290.0625 L 91.929688 291.78125 C 82.382812 298.699219 76.277344 302.15625 73.601562 302.15625 C 71.566406 302.15625 70.378906 301.035156 70.039062 298.785156 L 69.976562 293.375 L 69.210938 286.308594 L 69.785156 286.371094 C 70.335938 286.371094 74.875 284.570312 83.402344 280.960938 C 85.097656 280.367188 86.945312 279.304688 88.9375 277.777344 L 93.648438 274.152344 L 103.636719 267.660156 C 109.066406 262.949219 111.910156 260.507812 112.164062 260.339844 M 154.992188 272.878906 L 152.828125 272.175781 C 148.796875 271.03125 145.996094 269.886719 144.425781 268.742188 C 137.808594 264.113281 134.5 261.335938 134.5 260.402344 L 135.136719 255.246094 C 135.136719 254.863281 134.945312 254.652344 134.5625 254.609375 L 138.445312 249.898438 C 144.640625 252.0625 149.050781 253.378906 151.679688 253.84375 L 153.84375 254.226562 C 153.71875 254.3125 153.652344 254.460938 153.652344 254.671875 C 153.652344 256.921875 154.101562 262.992188 154.992188 272.878906 M 155.5 278.605469 L 155.5625 279.117188 L 155.5625 283.636719 L 152.0625 282.617188 L 155.5 278.605469 M 146.527344 281.34375 L 137.808594 280.578125 L 132.464844 281.152344 C 129.238281 279.667969 126.121094 277.992188 123.109375 276.125 L 117.511719 272.304688 L 126.417969 263.265625 C 127.5625 264.582031 129.726562 266.425781 132.910156 268.804688 C 137.832031 272.496094 141.308594 274.449219 143.34375 274.660156 L 146.527344 281.34375 "/>
<path style=" stroke:none;fill-rule:evenodd;fill:rgb(32.549021%,27.843139%,32.549021%);fill-opacity:1;" d="M 154.609375 63.078125 L 155.753906 68.109375 L 155.753906 68.617188 L 156.007812 70.273438 L 156.074219 72.5625 C 156.074219 73.964844 155.5 76.382812 154.355469 79.820312 C 149.644531 80.160156 146.632812 80.625 145.316406 81.21875 L 144.746094 81.03125 C 143.515625 81.03125 141.585938 84.296875 138.953125 90.832031 L 137.746094 89.878906 L 137.683594 89.8125 L 140.035156 83.320312 C 140.589844 81.835938 141.753906 79.648438 143.535156 76.765625 L 145.953125 72.628906 L 146.019531 72.4375 L 154.417969 62.378906 L 154.609375 63.078125 M 123.238281 117.757812 C 122.050781 118.945312 119.886719 122.828125 116.746094 129.40625 C 115.429688 132.207031 113.734375 136.257812 111.65625 141.5625 C 109.578125 147.714844 107.648438 151.683594 105.863281 153.464844 C 104.933594 154.441406 103.53125 156.667969 101.664062 160.148438 C 100.011719 163.203125 99.121094 165.007812 98.992188 165.558594 C 98.230469 165.941406 97.824219 167.746094 97.785156 170.96875 L 98.039062 179.753906 L 97.082031 179.753906 L 95.492188 179.054688 L 89.382812 178.609375 C 85.988281 178.609375 84.292969 178.882812 84.292969 179.4375 L 84.992188 179.691406 C 84.015625 180.496094 81.9375 182.808594 78.757812 186.628906 C 78.417969 186.96875 76.761719 187.921875 73.792969 189.492188 C 72.394531 190.300781 71.332031 191.042969 70.613281 191.722656 L 71.3125 187.648438 L 75.765625 183.0625 L 82.257812 178.035156 C 85.140625 175.746094 88.769531 172.179688 93.136719 167.34375 C 95.597656 164.667969 98.25 161.316406 101.09375 157.285156 C 104.953125 151.851562 106.925781 148.035156 107.011719 145.828125 L 109.875 137.808594 C 113.140625 132.503906 114.796875 129.109375 114.835938 127.621094 L 114.835938 127.496094 C 114.835938 127.15625 114.6875 126.964844 114.390625 126.921875 C 112.441406 124.503906 111.253906 122.765625 110.828125 121.703125 C 108.917969 118.140625 107.964844 116.1875 107.964844 115.847656 L 108.601562 115.785156 C 112.675781 117.691406 114.921875 118.648438 115.347656 118.648438 L 123.238281 117.757812 M 84.230469 69.890625 L 84.484375 66.007812 L 84.484375 65.433594 C 84.484375 64.796875 82.894531 62.570312 79.710938 58.75 C 83.570312 55.992188 85.863281 54.167969 86.585938 53.277344 L 88.046875 50.15625 L 89.828125 44.8125 L 93.710938 36.15625 C 94.261719 35.859375 94.941406 35.539062 95.746094 35.199219 C 93.921875 38.722656 91.273438 47.273438 87.792969 60.851562 L 87.09375 70.144531 L 84.230469 69.890625 M 91.164062 111.519531 L 91.230469 111.644531 C 91.355469 112.707031 92.246094 114.660156 93.902344 117.503906 L 97.402344 123.484375 L 96.894531 124.25 L 95.9375 125.839844 L 88.875 112.792969 L 89.066406 112.28125 L 88.8125 111.199219 L 91.164062 111.519531 M 82.066406 139.84375 L 83.785156 141.246094 L 81.683594 143.664062 L 75.511719 148.945312 L 75.894531 145 C 77.292969 144.832031 79.351562 143.113281 82.066406 139.84375 M 112.929688 182.300781 L 115.855469 179.945312 L 116.875 179.246094 C 120.269531 180.816406 125.082031 182.832031 131.320312 185.292969 L 141.691406 188.730469 L 142.773438 192.421875 L 143.21875 193.628906 L 138.320312 191.59375 C 137.597656 191.59375 135.984375 192.546875 133.480469 194.457031 L 128.199219 198.277344 L 121.011719 187.265625 C 121.347656 187.179688 121.519531 186.96875 121.519531 186.628906 C 121.519531 186.121094 120.628906 185.546875 118.847656 184.910156 L 115.027344 183.636719 L 112.929688 182.300781 M 68.320312 244.550781 L 68.320312 242.199219 L 67.9375 237.867188 L 69.148438 238.058594 C 71.140625 238.058594 75.109375 236.636719 81.046875 233.796875 C 86.308594 231.292969 89.363281 229.277344 90.210938 227.75 L 95.554688 230.167969 L 91.992188 232.265625 L 91.355469 235.515625 L 90.59375 242.199219 C 86.011719 239.523438 83.105469 238.1875 81.875 238.1875 L 74.8125 241.496094 C 70.484375 242.941406 68.320312 243.957031 68.320312 244.550781 M 85.121094 216.035156 C 84.824219 213.703125 84.675781 211.984375 84.675781 210.878906 L 85.121094 206.488281 L 85.183594 205.914062 L 88.683594 202.414062 C 89.574219 203.222656 91.824219 204.601562 95.429688 206.550781 C 99.542969 208.800781 102.769531 210.433594 105.101562 211.453125 L 124.382812 220.238281 L 124.636719 220.238281 C 125.230469 220.238281 128.773438 218.476562 135.265625 214.953125 L 142.582031 223.992188 L 142.519531 224.183594 C 142.519531 224.949219 145.234375 226.285156 150.664062 228.195312 L 150.535156 228.894531 L 150.855469 231.820312 C 142.117188 229.785156 133.671875 227.152344 125.527344 223.929688 C 118.699219 221.425781 113.734375 219.515625 110.636719 218.199219 C 104.230469 213.828125 99.5 211.644531 96.449219 211.644531 L 96 211.644531 L 85.183594 216.101562 L 85.121094 216.035156 M 113.121094 253.335938 L 113.308594 255.183594 C 113.308594 256.285156 113.078125 257.601562 112.609375 259.128906 L 112.039062 259 C 111.65625 259 110.296875 260.082031 107.964844 262.246094 L 103.636719 266.257812 L 92.757812 273.132812 L 88.175781 276.632812 C 86.097656 278.160156 84.230469 279.222656 82.574219 279.816406 C 74.640625 282.785156 70.167969 284.675781 69.148438 285.480469 L 69.019531 284.273438 L 68.449219 280.515625 L 75.703125 276.953125 C 77.058594 276.058594 77.824219 275.296875 77.992188 274.660156 L 78.4375 272.433594 L 81.8125 263.585938 L 90.464844 267.976562 L 91.101562 267.976562 C 93.136719 267.976562 96.574219 266.171875 101.410156 262.566406 L 110.636719 255.183594 L 113.121094 253.335938 M 155.117188 274.53125 L 155.371094 276.824219 C 154.566406 277.078125 153.484375 278.011719 152.128906 279.625 L 150.027344 282.105469 L 149.328125 281.917969 L 148.4375 281.726562 C 145.976562 276.125 144.46875 273.324219 143.917969 273.324219 L 143.601562 273.386719 L 139.910156 271.351562 C 136.601562 269.695312 134.628906 268.570312 133.992188 267.976562 L 127.691406 261.992188 L 133.609375 255.691406 C 133.3125 256.625 133.164062 258.214844 133.164062 260.464844 C 133.164062 261.058594 133.96875 262.140625 135.582031 263.710938 C 137.449219 265.535156 139.695312 267.277344 142.328125 268.929688 C 146.441406 271.476562 150.707031 273.34375 155.117188 274.53125 "/>
<path style=" stroke:none;fill-rule:evenodd;fill:rgb(49.803922%,18.82353%,21.176471%);fill-opacity:1;" d="M 48.785156 117.121094 L 48.785156 117.183594 L 48.46875 116.546875 L 48.59375 116.546875 C 48.59375 116.800781 48.660156 116.992188 48.785156 117.121094 M 43.25 119.730469 L 43.3125 119.792969 L 43.25 119.921875 L 43.25 119.730469 M 50.820312 124.695312 L 50.949219 124.441406 L 51.011719 124.566406 L 50.820312 124.695312 M 37.140625 192.039062 L 37.585938 192.167969 L 37.203125 192.421875 L 37.011719 192.039062 L 37.140625 192.039062 M 36.441406 193.757812 L 36.378906 194.265625 L 36.1875 193.886719 L 36.441406 193.757812 M 11.558594 100.378906 L 11.558594 100.316406 L 11.8125 99.996094 L 11.558594 100.378906 "/>
<path style=" stroke:none;fill-rule:evenodd;fill:rgb(70.588237%,26.666668%,32.156864%);fill-opacity:1;" d="M 27.785156 170.652344 L 27.722656 170.589844 L 27.785156 170.589844 L 27.785156 170.652344 M 27.085938 170.078125 L 27.023438 170.015625 L 27.085938 170.015625 L 27.085938 170.078125 M 50.820312 79.566406 L 50.058594 81.03125 L 50.757812 79.5 L 50.820312 79.566406 M 43.25 119.921875 L 43.1875 119.921875 L 43.25 119.730469 L 43.25 119.921875 M 19.515625 96.5625 L 19.640625 96.5625 L 19.578125 96.6875 L 19.515625 96.5625 "/>
<path style=" stroke:none;fill-rule:evenodd;fill:rgb(14.509805%,14.509805%,13.725491%);fill-opacity:1;" d="M 48.46875 116.546875 L 46.175781 111.457031 C 44.011719 104.960938 42.148438 101.714844 40.578125 101.714844 C 40.066406 101.714844 39.8125 101.972656 39.8125 102.480469 L 41.722656 105.410156 C 43.164062 107.574219 44.269531 109.820312 45.03125 112.15625 C 46.429688 116.398438 47.640625 119.261719 48.660156 120.75 C 43.609375 117.992188 40.703125 116.609375 39.941406 116.609375 C 39.390625 116.609375 39.113281 116.867188 39.113281 117.375 L 43.25 119.730469 L 43.1875 119.921875 L 43.25 119.921875 L 43.3125 119.792969 L 48.785156 122.53125 C 48.785156 122.234375 48.847656 122 48.976562 121.832031 L 50.820312 124.695312 L 51.011719 124.566406 L 55.148438 130.871094 L 56.484375 134.242188 L 57.058594 135.644531 L 57.566406 136.726562 L 56.996094 136.46875 L 55.339844 138.699219 L 55.53125 139.269531 C 54.132812 141.265625 51.96875 144.9375 49.039062 150.285156 L 42.929688 161.675781 C 41.785156 163.121094 40.511719 167.40625 39.113281 174.535156 C 37.585938 182.386719 36.824219 187.691406 36.824219 190.449219 L 36.824219 191.339844 L 37.140625 192.039062 L 37.011719 192.039062 L 37.011719 192.546875 L 37.332031 192.613281 L 37.203125 192.421875 L 37.585938 192.167969 L 40.003906 177.144531 L 44.078125 163.648438 C 46.070312 166.621094 47.511719 168.574219 48.402344 169.507812 C 47.511719 171.203125 46.175781 175.257812 44.394531 181.664062 C 42.867188 187.054688 40.449219 191.234375 37.140625 194.203125 C 36.757812 194.035156 36.441406 193.589844 36.1875 192.867188 L 36.441406 193.757812 L 36.1875 193.886719 C 33.9375 190.320312 32.730469 187.160156 32.558594 184.402344 L 32.367188 183.636719 L 32.367188 182.554688 L 31.984375 177.527344 C 31.984375 175.617188 31.308594 173.960938 29.949219 172.5625 L 27.785156 170.652344 L 27.785156 170.589844 L 27.722656 170.589844 L 27.214844 170.398438 L 27.085938 170.078125 L 27.085938 169.886719 C 27.085938 169.421875 27.722656 169.039062 28.996094 168.742188 L 33.132812 167.722656 C 37.121094 166.410156 39.113281 163.796875 39.113281 159.894531 L 38.667969 155.949219 L 38.476562 154.800781 L 38.476562 153.082031 C 38.476562 151.386719 39.410156 147.207031 41.277344 140.542969 L 44.011719 130.742188 C 44.011719 128.492188 43.695312 126.476562 43.058594 124.695312 C 42.421875 122.871094 42.105469 121.703125 42.105469 121.195312 L 42.167969 120.941406 L 37.777344 120.175781 C 36.335938 119.707031 35.613281 119.285156 35.613281 118.902344 C 35.613281 118.140625 35.890625 117.609375 36.441406 117.3125 C 30.164062 112.21875 27.023438 108.929688 27.023438 107.445312 C 27.023438 107.019531 28.0625 106.449219 30.140625 105.726562 C 31.921875 105.089844 33.449219 104.730469 34.722656 104.644531 L 34.46875 103.625 L 34.40625 102.671875 L 34.085938 100.953125 L 32.496094 98.40625 C 32.15625 97.941406 31.984375 97.304688 31.984375 96.496094 C 31.6875 96.242188 31.6875 96.050781 31.984375 95.925781 L 37.394531 95.605469 C 41.128906 95.605469 44.628906 96.007812 47.894531 96.816406 L 53.75 98.023438 C 58.035156 98.023438 60.855469 94.652344 62.210938 87.902344 C 63.019531 84 63.25 80.011719 62.914062 75.9375 C 62.828125 74.621094 63.546875 70.800781 65.074219 64.480469 C 66.5625 58.15625 67.769531 54.785156 68.703125 54.359375 L 68.703125 54.296875 C 68.703125 53.828125 68.9375 53.59375 69.402344 53.59375 L 69.65625 53.660156 L 73.921875 50.605469 C 73.03125 53.617188 72.140625 57.816406 71.25 63.207031 C 70.273438 69.234375 69.488281 75.257812 68.894531 81.285156 L 68.894531 81.984375 C 68.894531 84.699219 69.53125 89.09375 70.804688 95.160156 L 71.949219 100.316406 L 61.574219 108.71875 C 59.625 110.414062 55.296875 113.027344 48.59375 116.546875 L 48.46875 116.546875 M 9.207031 105.34375 L 9.078125 104.898438 C 9.078125 104.515625 9.226562 104.304688 9.523438 104.261719 L 9.652344 103.753906 L 11.558594 100.378906 L 11.8125 99.996094 L 14.488281 99.617188 C 17.796875 99.617188 20.894531 101.101562 23.777344 104.070312 L 25.175781 105.597656 C 25.175781 106.023438 24.902344 106.234375 24.351562 106.234375 L 23.777344 106.234375 C 22.800781 106.195312 20.933594 105.429688 18.179688 103.945312 C 14.867188 103.945312 12.261719 104.476562 10.351562 105.535156 L 9.652344 105.535156 C 9.4375 105.535156 9.289062 105.472656 9.207031 105.34375 M 36.25 79.566406 C 36.675781 78.675781 37.160156 78.230469 37.714844 78.230469 C 38.054688 78.230469 38.242188 78.378906 38.285156 78.675781 C 42.867188 76.636719 46.324219 74.875 48.660156 73.390625 C 45.179688 77.890625 43.441406 80.394531 43.441406 80.902344 C 43.90625 80.902344 44.121094 81.136719 44.078125 81.601562 L 44.078125 81.921875 C 38.476562 89.390625 35.527344 93.125 35.230469 93.125 C 34.59375 93.125 34.277344 92.910156 34.277344 92.488281 C 34.363281 90.027344 34.554688 87.605469 34.851562 85.230469 C 35.230469 82.597656 35.699219 80.710938 36.25 79.566406 M 50.757812 79.5 L 50.058594 81.03125 L 50.820312 79.566406 L 51.523438 78.230469 C 52.117188 78.230469 52.347656 78.714844 52.222656 79.691406 C 50.058594 85.546875 48.214844 88.476562 46.6875 88.476562 C 46.050781 88.476562 45.730469 88.242188 45.730469 87.777344 C 45.730469 87.226562 46.199219 85.675781 47.132812 83.128906 C 48.234375 80.246094 49.144531 78.800781 49.867188 78.800781 C 50.546875 78.800781 50.84375 79.035156 50.757812 79.5 M 29.378906 98.597656 L 33.511719 101.90625 C 34.148438 101.90625 34.40625 102.160156 34.277344 102.671875 C 34.277344 103.945312 32.6875 104.582031 29.503906 104.582031 C 27.296875 104.582031 25.390625 103.964844 23.777344 102.734375 L 21.675781 100.507812 C 18.496094 98.003906 16.90625 96.453125 16.90625 95.859375 C 16.90625 95.4375 18.027344 95.222656 20.277344 95.222656 L 23.777344 95.667969 C 25.769531 96.179688 27.636719 97.15625 29.378906 98.597656 M 33.511719 107.953125 C 33.003906 107.953125 32.75 108.167969 32.75 108.589844 C 38.351562 113.640625 42.210938 116.164062 44.332031 116.164062 C 44.882812 116.25 45.160156 116.039062 45.160156 115.527344 L 33.511719 107.953125 M 58.648438 143.472656 L 57.183594 140.097656 L 57.566406 139.144531 C 58.246094 139.824219 58.671875 140.714844 58.839844 141.816406 L 58.648438 143.472656 M 40.957031 132.84375 C 40.957031 133.054688 39.941406 133.691406 37.902344 134.753906 C 35.65625 136.492188 33.9375 139.082031 32.75 142.519531 C 30.5 149.136719 28.402344 152.449219 26.449219 152.449219 C 25.941406 152.449219 25.6875 152.191406 25.6875 151.683594 C 25.6875 149.433594 26.070312 146.082031 26.832031 141.625 L 28.105469 136.46875 C 29.757812 133.628906 33.089844 132.207031 38.09375 132.207031 C 40.003906 132.207031 40.957031 132.417969 40.957031 132.84375 M 19.515625 96.5625 L 19.578125 96.6875 L 19.640625 96.5625 L 19.515625 96.5625 "/>
<path style=" stroke:none;fill-rule:evenodd;fill:rgb(20%,20%,20%);fill-opacity:1;" d="M 27.023438 170.015625 C 23.289062 166.621094 20.914062 164.097656 19.894531 162.441406 C 19.003906 161.039062 18.558594 159.28125 18.558594 157.15625 L 18.367188 152.320312 L 17.03125 146.210938 L 17.351562 146.082031 L 16.839844 144.554688 L 15.378906 139.652344 C 11.515625 129.808594 8.867188 123.78125 7.421875 121.574219 L 7.167969 120.492188 L 7.105469 120.175781 L 6.46875 116.738281 L 6.40625 115.847656 L 9.207031 105.34375 C 9.289062 105.472656 9.4375 105.535156 9.652344 105.535156 L 10.351562 105.535156 C 12.261719 104.476562 14.867188 103.945312 18.179688 103.945312 C 20.933594 105.429688 22.800781 106.195312 23.777344 106.234375 L 24.351562 106.234375 C 24.902344 106.234375 25.175781 106.023438 25.175781 105.597656 L 23.777344 104.070312 C 20.894531 101.101562 17.796875 99.617188 14.488281 99.617188 L 11.8125 99.996094 C 13.851562 96.816406 16.3125 94.121094 19.195312 91.914062 L 23.777344 88.285156 L 34.148438 80.457031 L 36.25 79.566406 C 35.699219 80.710938 35.230469 82.597656 34.851562 85.230469 C 34.554688 87.605469 34.363281 90.027344 34.277344 92.488281 C 34.277344 92.910156 34.59375 93.125 35.230469 93.125 C 35.527344 93.125 38.476562 89.390625 44.078125 81.921875 L 44.078125 81.601562 L 44.203125 81.601562 L 56.292969 65.753906 C 58.882812 62.316406 62.765625 58.6875 67.9375 54.867188 L 68.703125 54.296875 L 68.703125 54.359375 C 67.769531 54.785156 66.5625 58.15625 65.074219 64.480469 C 63.546875 70.800781 62.828125 74.621094 62.914062 75.9375 C 63.25 80.011719 63.019531 84 62.210938 87.902344 C 60.855469 94.652344 58.035156 98.023438 53.75 98.023438 L 47.894531 96.816406 C 44.628906 96.007812 41.128906 95.605469 37.394531 95.605469 L 31.984375 95.925781 C 31.6875 96.050781 31.6875 96.242188 31.984375 96.496094 C 31.984375 97.304688 32.15625 97.941406 32.496094 98.40625 L 34.085938 100.953125 L 34.40625 102.671875 L 34.46875 103.625 L 34.722656 104.644531 C 33.449219 104.730469 31.921875 105.089844 30.140625 105.726562 C 28.0625 106.449219 27.023438 107.019531 27.023438 107.445312 C 27.023438 108.929688 30.164062 112.21875 36.441406 117.3125 C 35.890625 117.609375 35.613281 118.140625 35.613281 118.902344 C 35.613281 119.285156 36.335938 119.707031 37.777344 120.175781 L 42.167969 120.941406 L 42.105469 121.195312 C 42.105469 121.703125 42.421875 122.871094 43.058594 124.695312 C 43.695312 126.476562 44.011719 128.492188 44.011719 130.742188 L 41.277344 140.542969 C 39.410156 147.207031 38.476562 151.386719 38.476562 153.082031 L 38.476562 154.800781 L 38.667969 155.949219 L 39.113281 159.894531 C 39.113281 163.796875 37.121094 166.410156 33.132812 167.722656 L 28.996094 168.742188 C 27.722656 169.039062 27.085938 169.421875 27.085938 169.886719 L 27.085938 170.015625 L 27.023438 170.015625 M 50.820312 79.566406 L 50.757812 79.5 C 50.84375 79.035156 50.546875 78.800781 49.867188 78.800781 C 49.144531 78.800781 48.234375 80.246094 47.132812 83.128906 C 46.199219 85.675781 45.730469 87.226562 45.730469 87.777344 C 45.730469 88.242188 46.050781 88.476562 46.6875 88.476562 C 48.214844 88.476562 50.058594 85.546875 52.222656 79.691406 C 52.347656 78.714844 52.117188 78.230469 51.523438 78.230469 L 50.820312 79.566406 M 29.378906 98.597656 C 27.636719 97.15625 25.769531 96.179688 23.777344 95.667969 L 20.277344 95.222656 C 18.027344 95.222656 16.90625 95.4375 16.90625 95.859375 C 16.90625 96.453125 18.496094 98.003906 21.675781 100.507812 L 23.777344 102.734375 C 25.390625 103.964844 27.296875 104.582031 29.503906 104.582031 C 32.6875 104.582031 34.277344 103.945312 34.277344 102.671875 C 34.40625 102.160156 34.148438 101.90625 33.511719 101.90625 L 29.378906 98.597656 M 40.957031 132.84375 C 40.957031 132.417969 40.003906 132.207031 38.09375 132.207031 C 33.089844 132.207031 29.757812 133.628906 28.105469 136.46875 L 26.832031 141.625 C 26.070312 146.082031 25.6875 149.433594 25.6875 151.683594 C 25.6875 152.191406 25.941406 152.449219 26.449219 152.449219 C 28.402344 152.449219 30.5 149.136719 32.75 142.519531 C 33.9375 139.082031 35.65625 136.492188 37.902344 134.753906 C 39.941406 133.691406 40.957031 133.054688 40.957031 132.84375 M 19.324219 130.105469 L 19.703125 129.789062 L 19.386719 129.851562 L 19.324219 130.105469 "/>
</g>
</svg>
