<?xml version="1.0" encoding="UTF-8"?>
<svg xmlns="http://www.w3.org/2000/svg" xmlns:xlink="http://www.w3.org/1999/xlink" width="290px" height="542px" viewBox="0 0 290 542" version="1.1">
<g id="surface1">
<path style=" stroke:none;fill-rule:evenodd;fill:rgb(0%,0%,0%);fill-opacity:1;" d="M 195.015625 51.496094 C 195.523438 51.875 196.140625 53.066406 196.863281 55.058594 L 198.835938 60.722656 C 199.808594 62.972656 200.722656 66.050781 201.570312 69.953125 L 203.097656 80.203125 L 203.988281 88.539062 L 203.988281 89.242188 L 204.371094 94.652344 C 204.753906 100.929688 205.535156 107.253906 206.726562 113.621094 L 207.871094 126.414062 L 208.507812 139.082031 C 208.507812 139.675781 208.359375 139.972656 208.0625 139.972656 L 208.0625 142.582031 C 207.976562 145.253906 208.527344 147.671875 209.714844 149.835938 C 210.140625 150.601562 210.605469 153.0625 211.117188 157.222656 L 211.75 164.285156 L 211.371094 176.378906 L 211.625 185.101562 C 211.667969 186.796875 211.859375 189.621094 212.199219 193.566406 L 212.070312 195.476562 L 212.070312 226.921875 C 214.320312 233.199219 215.441406 237.507812 215.441406 239.84375 C 215.273438 242.855469 214.890625 244.46875 214.296875 244.679688 L 210.414062 245.1875 L 205.007812 245.445312 C 205.386719 246.25 205.644531 247.777344 205.769531 250.027344 C 206.066406 255.753906 206.832031 260.933594 208.0625 265.558594 C 209.460938 270.777344 210.183594 274.257812 210.226562 275.996094 C 210.308594 278.542969 210.5625 280.578125 210.988281 282.105469 L 211.5625 286.246094 C 211.644531 287.179688 211.5625 287.792969 211.304688 288.089844 L 213.40625 300.757812 L 215.570312 315.90625 C 216.292969 319.472656 216.609375 321.996094 216.523438 323.480469 C 216.441406 324.964844 216.652344 327.492188 217.160156 331.054688 L 217.160156 338.628906 C 217.160156 341.175781 217.371094 343.636719 217.796875 346.015625 L 217.734375 348.433594 L 218.050781 348.878906 C 218.050781 349.429688 217.351562 349.855469 215.953125 350.152344 L 210.160156 351.488281 L 208.1875 352.316406 L 208.253906 352.761719 C 208.253906 353.226562 204.433594 353.84375 196.796875 354.605469 L 168.289062 356.007812 L 167.71875 356.199219 L 167.460938 356.007812 L 165.746094 356.007812 L 151.300781 355.816406 L 151.109375 355.816406 L 150.917969 355.625 L 150.726562 355.5 L 150.535156 355.054688 C 150.367188 354.714844 150.34375 354.480469 150.472656 354.351562 C 149.496094 350.449219 148.183594 338.90625 146.527344 319.726562 L 146.78125 316.226562 C 146.316406 313.804688 145.953125 308.96875 145.699219 301.710938 C 145.234375 287.582031 144.765625 278.648438 144.300781 274.914062 C 143.453125 267.660156 142.921875 260.464844 142.710938 253.335938 C 142.453125 246.417969 142.328125 239.3125 142.328125 232.011719 L 142.644531 231.695312 C 141.925781 223.71875 141.117188 218.199219 140.226562 215.144531 C 139.589844 212.894531 139.230469 210.011719 139.144531 206.488281 L 138.890625 197.578125 C 137.871094 186.289062 137.363281 174.640625 137.363281 162.632812 C 137.746094 153.679688 137.871094 146.972656 137.746094 142.519531 C 137.703125 140.3125 138.042969 137 138.765625 132.589844 C 139.484375 128.21875 139.867188 124.972656 139.910156 122.847656 L 139.910156 122.59375 C 140.035156 120.429688 141.5 113.597656 144.300781 102.097656 C 145.191406 97.558594 146.019531 94.097656 146.78125 91.722656 C 147.800781 86.929688 148.753906 83.554688 149.644531 81.601562 C 150.789062 79.226562 152.0625 75.808594 153.464844 71.355469 C 154.992188 66.644531 156.242188 63.1875 157.21875 60.980469 L 160.84375 50.667969 L 161.097656 44.9375 C 161.097656 42.691406 161.3125 41.351562 161.734375 40.929688 C 161.4375 38.425781 161.078125 36.769531 160.652344 35.964844 L 159.953125 33.355469 L 159.890625 33.355469 C 159.550781 33.355469 158.722656 32.824219 157.410156 31.761719 L 154.925781 29.472656 C 154.585938 29.003906 154.417969 27.710938 154.417969 25.589844 C 154.417969 25.121094 154.523438 24.78125 154.734375 24.570312 L 154.609375 24.125 L 154.609375 22.722656 C 154.609375 20.855469 154.992188 19.921875 155.753906 19.921875 C 158.34375 19.921875 161.183594 22.492188 164.28125 27.625 L 164.535156 27.5625 C 165.257812 27.5625 168.417969 29.472656 174.015625 33.289062 C 179.742188 36.007812 183.136719 37.851562 184.199219 38.828125 C 186.785156 40.992188 188.609375 43.21875 189.671875 45.511719 C 190.265625 46.785156 191.390625 48.015625 193.042969 49.203125 C 194.105469 49.925781 194.761719 50.6875 195.015625 51.496094 M 165.171875 90.195312 L 165.363281 95.988281 L 169.179688 92.867188 L 174.652344 88.414062 C 176.816406 85.699219 178.683594 82.855469 180.253906 79.882812 C 181.144531 78.144531 183.203125 75.300781 186.425781 71.355469 C 187.316406 69.996094 188.992188 68.382812 191.453125 66.515625 C 194.335938 64.308594 196.605469 63.207031 198.261719 63.207031 L 198.324219 63.207031 L 196.863281 59.324219 L 194.507812 53.148438 L 194.253906 53.148438 C 191.324219 50.347656 189.351562 48.140625 188.335938 46.53125 C 186.976562 44.28125 185.195312 42.160156 182.988281 40.164062 C 182.097656 39.359375 178.449219 37.363281 172.042969 34.179688 L 167.71875 31.890625 L 168.542969 35.453125 C 169.011719 37.277344 169.285156 39.1875 169.371094 41.183594 C 169.710938 41.480469 169.796875 42.179688 169.625 43.285156 C 169.625 45.191406 168.90625 49.140625 167.460938 55.121094 L 167.398438 55.1875 L 167.335938 55.1875 L 167.398438 55.25 L 167.335938 55.503906 L 162.945312 71.734375 C 161.839844 75.003906 161.269531 79.757812 161.226562 85.996094 L 158.617188 98.851562 L 158.554688 99.742188 C 158.554688 100.890625 156.984375 108.398438 153.84375 122.277344 L 153.082031 133.414062 C 152.574219 138.507812 152.316406 142.242188 152.316406 144.617188 C 152.316406 145.933594 152.550781 149.625 153.019531 155.695312 L 153.398438 166.707031 L 153.398438 167.851562 C 153.78125 169.25 153.949219 172.496094 153.910156 177.589844 C 153.910156 186.96875 153.992188 192.589844 154.164062 194.457031 C 154.460938 197.472656 155.140625 202.222656 156.199219 208.714844 C 157.003906 213.636719 157.410156 218.03125 157.410156 221.890625 C 157.535156 222.867188 157.472656 223.546875 157.21875 223.929688 C 157.855469 227.449219 158.574219 236.300781 159.382812 250.472656 L 163.199219 278.925781 C 163.328125 279.644531 163.261719 280.132812 163.007812 280.390625 L 163.582031 288.21875 L 163.960938 296.238281 L 163.835938 296.429688 L 163.515625 296.746094 L 163.644531 296.875 L 164.027344 296.554688 L 164.726562 307.695312 L 164.664062 307.949219 L 164.789062 308.269531 L 165.488281 316.289062 L 167.015625 335.195312 C 167.230469 337.230469 167.355469 340.371094 167.398438 344.613281 C 168.164062 349.113281 168.542969 352.230469 168.542969 353.972656 L 168.542969 354.035156 L 187.125 353.589844 L 186.933594 353.714844 L 187.253906 353.90625 L 187.761719 353.523438 L 193.742188 353.335938 L 197.5625 352.570312 L 202.714844 352.507812 L 204.6875 351.933594 L 208.953125 350.851562 C 210.351562 350.128906 212.027344 349.707031 213.980469 349.578125 L 216.96875 348.558594 C 216.628906 347.203125 216.355469 343.425781 216.144531 337.230469 C 215.84375 327.554688 215.441406 321.125 214.933594 317.945312 L 210.226562 286.691406 L 210.480469 286.246094 L 209.523438 280.960938 C 209.480469 278.671875 209.355469 276.972656 209.144531 275.871094 L 206.980469 265.621094 C 205.917969 262.566406 205.175781 259.171875 204.753906 255.4375 L 204.753906 250.28125 C 204.074219 248.160156 203.710938 246.566406 203.671875 245.507812 L 202.460938 245.507812 L 202.589844 247.351562 C 202.589844 249.730469 202.101562 252.636719 201.125 256.074219 L 199.980469 264.03125 L 200.296875 267.210938 C 200.296875 270.183594 200.425781 272.113281 200.679688 273.003906 C 201.867188 277.417969 202.460938 280.515625 202.460938 282.296875 C 202.460938 285.820312 201.738281 291.316406 200.296875 298.785156 C 199.875 302.5625 198.453125 306.167969 196.035156 309.605469 L 195.972656 309.605469 C 193.679688 312.871094 191.621094 314.507812 189.796875 314.507812 L 189.480469 314.507812 C 189.054688 314.847656 188.164062 315.015625 186.808594 315.015625 C 181.800781 315.015625 177.601562 313.445312 174.207031 310.304688 L 170.328125 306.867188 C 169.222656 305.808594 168.609375 304.980469 168.480469 304.386719 C 168.015625 304.34375 167.570312 303.984375 167.144531 303.304688 L 166.570312 302.222656 L 171.535156 291.464844 C 172.128906 290.0625 172.449219 288.28125 172.488281 286.117188 L 172.679688 280.769531 C 173.273438 275.507812 174.082031 271.921875 175.097656 270.011719 C 177.644531 265.175781 179.425781 261.992188 180.445312 260.464844 L 180.378906 260.402344 C 181.609375 256.496094 182.226562 253.996094 182.226562 252.890625 C 182.226562 248.902344 182.394531 246.546875 182.734375 245.824219 C 178.703125 245.484375 175.523438 244.785156 173.191406 243.726562 C 170.773438 242.621094 169.5625 241.371094 169.5625 239.96875 L 169.753906 239.585938 L 169.117188 236.851562 C 168.820312 235.746094 168.671875 234.515625 168.671875 233.160156 L 168.800781 232.585938 L 168.925781 231.3125 L 169.054688 224.949219 L 169.308594 212.152344 C 170.707031 198.488281 171.40625 189.980469 171.40625 186.628906 L 170.835938 176.636719 L 170.835938 176.445312 C 170.835938 171.480469 171.429688 165.878906 172.617188 159.640625 L 174.015625 151.109375 L 174.335938 148.882812 C 174.082031 148.542969 173.804688 147.84375 173.507812 146.78125 L 172.746094 144.808594 L 171.535156 142.328125 C 170.855469 141.011719 170.410156 139.738281 170.199219 138.507812 L 168.863281 130.742188 L 166.0625 115.148438 C 165.554688 108.230469 165.023438 103.054688 164.472656 99.617188 L 163.328125 85.738281 L 163.328125 85.230469 L 163.261719 84.914062 L 163.199219 84.019531 C 163.199219 83.597656 163.367188 83.382812 163.707031 83.382812 C 164.386719 83.382812 164.875 85.65625 165.171875 90.195312 M 160.082031 29.089844 C 160.84375 30.234375 161.480469 32.101562 161.992188 34.691406 L 162.945312 39.910156 L 163.707031 45.894531 C 163.707031 46.910156 163.453125 47.421875 162.945312 47.421875 L 162.882812 47.421875 C 162.625 49.628906 161.949219 52.34375 160.84375 55.570312 L 157.21875 65.371094 C 154.035156 74.070312 151.808594 80.5625 150.535156 84.847656 L 145.828125 104.007812 C 143.367188 114.40625 142.050781 120.832031 141.882812 123.292969 L 141.816406 123.675781 L 141.816406 123.804688 L 141.753906 124.1875 L 139.84375 133.605469 C 139.464844 135.644531 139.335938 138.867188 139.464844 143.28125 C 139.125 148.078125 138.953125 154.527344 138.953125 162.632812 C 138.953125 175.066406 139.464844 186.246094 140.480469 196.175781 L 140.546875 204.324219 C 140.460938 207.847656 140.738281 210.667969 141.371094 212.789062 C 142.816406 217.542969 143.535156 223.058594 143.535156 229.339844 L 143.535156 231.886719 C 143.789062 233.242188 143.917969 236.636719 143.917969 242.070312 C 143.832031 252.761719 144.511719 263.179688 145.953125 273.324219 C 146.25 275.53125 146.464844 279.007812 146.589844 283.761719 C 146.71875 288.386719 146.972656 291.910156 147.355469 294.328125 L 147.480469 304.832031 C 147.609375 309.667969 147.925781 313.191406 148.4375 315.398438 C 148.5625 316.5 148.480469 317.265625 148.183594 317.6875 L 148.5 320.363281 L 149.773438 335.003906 L 151.871094 354.226562 L 154.101562 354.160156 L 166.828125 354.035156 C 166.316406 351.234375 165.914062 345.675781 165.617188 337.359375 C 165.40625 331.757812 164.894531 325.496094 164.089844 318.582031 C 162.4375 304.320312 161.609375 291.804688 161.609375 281.023438 L 161.609375 280.070312 C 157.664062 251.679688 155.691406 233.351562 155.691406 225.074219 L 155.691406 223.546875 L 155.816406 222.972656 C 155.605469 222.039062 155.4375 220.621094 155.308594 218.710938 L 154.925781 210.117188 C 153.527344 203.707031 152.761719 199.0625 152.636719 196.175781 C 152.253906 184.804688 152.0625 175.40625 152.0625 167.980469 L 152.0625 167.53125 C 151.640625 163.882812 151.195312 156.246094 150.726562 144.617188 C 150.726562 137.53125 151.003906 133.585938 151.554688 132.777344 L 152.253906 120.941406 C 154.800781 108.929688 156.453125 101.503906 157.21875 98.660156 L 157.21875 98.214844 L 160.144531 83.765625 C 160.441406 77.65625 160.929688 72.882812 161.609375 69.445312 C 161.691406 67.578125 162.203125 65.179688 163.136719 62.253906 L 165.234375 55.121094 L 168.035156 43.472656 C 167.570312 42.539062 167.207031 40.121094 166.953125 36.21875 C 166.828125 34.777344 166.191406 33.121094 165.042969 31.253906 L 163.898438 29.660156 L 161.542969 26.988281 C 159.550781 24.613281 157.855469 22.957031 156.453125 22.023438 L 156.644531 23.996094 L 158.046875 25.84375 L 160.082031 29.089844 M 158.746094 30.234375 L 156.453125 26.925781 L 156.453125 28.515625 L 158.746094 30.296875 L 158.808594 30.363281 L 158.808594 30.296875 L 158.746094 30.234375 M 190.5625 244.871094 L 190.816406 244.933594 L 190.945312 244.808594 L 200.550781 244.425781 L 206.28125 244.042969 C 208.867188 243.660156 211.117188 243.617188 213.023438 243.914062 C 213.023438 243.746094 213.238281 243.640625 213.660156 243.597656 C 214.128906 242.324219 214.359375 241.09375 214.359375 239.90625 C 214.359375 238.421875 213.765625 235.9375 212.578125 232.457031 C 211.390625 229.105469 210.859375 226.6875 210.988281 225.203125 L 210.988281 201.96875 L 211.242188 194.902344 C 210.777344 192.484375 210.457031 186.308594 210.289062 176.378906 L 210.671875 164.351562 C 210.671875 160.617188 210.226562 156.710938 209.332031 152.636719 C 208.105469 149.878906 207.425781 147.929688 207.296875 146.78125 C 207.085938 145.128906 206.980469 143.21875 206.980469 141.054688 L 206.980469 138.1875 C 207.0625 136.578125 207.210938 135.664062 207.425781 135.453125 L 207.359375 133.414062 C 207.148438 126.753906 206.660156 120.535156 205.898438 114.765625 L 204.625 108.398438 L 204.179688 102.097656 C 203.542969 97.644531 203.226562 93.464844 203.226562 89.558594 L 203.351562 89.242188 L 200.617188 71.164062 L 198.515625 63.90625 C 193.847656 65.605469 190.179688 68.234375 187.507812 71.800781 C 183.730469 76.722656 181.632812 79.585938 181.207031 80.394531 L 175.542969 89.050781 L 165.425781 97.261719 L 165.425781 98.914062 C 165.597656 100.613281 166.042969 103.203125 166.761719 106.679688 L 167.082031 114.320312 C 168.523438 121.152344 169.457031 126.308594 169.878906 129.789062 L 171.152344 137.554688 C 171.28125 138.402344 171.769531 139.695312 172.617188 141.4375 L 173.761719 144.492188 L 174.652344 146.589844 C 174.90625 144.851562 175.183594 143.535156 175.480469 142.644531 C 177.347656 136.621094 178.21875 130.933594 178.089844 125.585938 C 177.792969 114.339844 178.21875 108.71875 179.363281 108.71875 C 179.871094 108.71875 180.0625 108.953125 179.933594 109.417969 L 179.363281 117.949219 L 179.109375 126.476562 C 179.109375 129.363281 178.195312 135.007812 176.371094 143.410156 C 175.523438 147.144531 174.589844 152.785156 173.570312 160.339844 C 172.976562 163.90625 172.679688 166.746094 172.679688 168.871094 C 172.679688 173.070312 172.425781 175.703125 171.917969 176.761719 L 172.171875 180.390625 L 172.425781 186.757812 C 172.425781 191.167969 171.726562 200.398438 170.328125 214.445312 L 169.878906 231.441406 L 169.816406 233.09375 L 169.433594 233.09375 L 169.433594 233.222656 L 170.582031 239.332031 L 170.582031 239.585938 C 171.257812 239.882812 172.003906 240.734375 172.808594 242.132812 C 175.183594 243.914062 180.125 244.808594 187.632812 244.808594 L 190.5 244.808594 L 190.5625 244.871094 M 100.710938 34.054688 L 100.328125 34.308594 C 97.273438 36.683594 95.324219 38.765625 94.476562 40.546875 L 91.992188 43.027344 L 88.9375 45.320312 L 85.183594 49.457031 L 85.183594 49.585938 C 83.785156 51.070312 82.425781 52.769531 81.113281 54.675781 L 79.585938 56.96875 L 78.695312 57.859375 L 78.183594 59.070312 L 75.703125 62.886719 L 74.621094 64.542969 L 74.492188 64.796875 C 73.433594 66.539062 72.480469 68.511719 71.628906 70.71875 L 68.703125 78.867188 L 65.457031 86.886719 L 62.277344 93.886719 L 59.792969 101.589844 C 59.371094 103.371094 58.945312 106.042969 58.523438 109.609375 L 58.457031 110.753906 L 58.523438 110.691406 L 58.457031 111.835938 L 58.457031 112.601562 L 58.203125 112.792969 C 57.398438 119.921875 56.570312 123.996094 55.722656 125.011719 L 55.785156 125.203125 L 57.695312 130.613281 L 57.628906 130.933594 C 57.628906 131.144531 57.695312 131.1875 57.820312 131.058594 L 57.886719 131.058594 L 58.394531 132.652344 L 60.558594 138.1875 C 60.304688 135.007812 60.175781 131.78125 60.175781 128.515625 C 60.175781 126.09375 60.535156 122.425781 61.257812 117.503906 C 61.808594 113.597656 62.402344 110.96875 63.039062 109.609375 L 62.976562 109.609375 L 63.101562 109.101562 L 63.230469 108.589844 C 63.695312 107.488281 63.929688 106.597656 63.929688 105.917969 L 63.929688 105.472656 C 65.035156 100.507812 65.925781 96.941406 66.601562 94.777344 L 66.539062 94.777344 L 66.539062 94.078125 L 70.359375 84.65625 C 71.25 80.796875 72.265625 77.675781 73.410156 75.300781 C 76.210938 69.742188 78.609375 65.308594 80.601562 61.996094 L 81.492188 60.535156 C 82.46875 58.835938 83.339844 57.519531 84.101562 56.585938 L 95.683594 41.820312 L 95.9375 41.5 L 96.449219 40.929688 C 97.210938 40.039062 97.59375 39.253906 97.59375 38.574219 L 97.59375 38.507812 L 97.71875 38.382812 C 98.78125 36.8125 99.839844 35.476562 100.902344 34.371094 L 102.046875 32.972656 L 100.710938 34.054688 M 63.101562 352.632812 L 63.101562 352.125 C 61.574219 351.191406 60.75 350.363281 60.621094 349.640625 L 60.367188 345.570312 L 59.792969 341.558594 L 59.539062 337.484375 L 59.539062 312.660156 C 58.945312 309.605469 58.648438 304.894531 58.648438 298.53125 C 58.648438 297.851562 58.710938 297.363281 58.839844 297.066406 C 58.585938 294.859375 58.605469 290.339844 58.902344 283.507812 L 57.375 273.132812 L 57.121094 262.949219 L 57.121094 259.828125 C 56.867188 259.109375 56.78125 257.347656 56.867188 254.546875 L 57.121094 243.660156 L 56.929688 237.933594 L 57.757812 237.933594 C 57.375 237.679688 57.078125 236.574219 56.867188 234.621094 C 58.523438 220.621094 59.390625 211.878906 59.476562 208.398438 L 59.667969 184.65625 L 59.476562 184.59375 L 56.675781 145.699219 C 54.597656 148.457031 53.050781 151.386719 52.03125 154.484375 C 51.4375 156.265625 49.613281 158.644531 46.558594 161.613281 C 45.242188 162.800781 42.847656 164.03125 39.367188 165.304688 C 36.3125 166.410156 34.277344 166.960938 33.257812 166.960938 L 33.003906 166.960938 C 32.664062 166.875 32.496094 166.707031 32.496094 166.449219 L 32.621094 166.386719 L 29.1875 161.550781 L 23.203125 156.140625 L 15.570312 145.382812 C 14.296875 143.601562 12.472656 139.972656 10.097656 134.496094 C 7.890625 129.234375 6.789062 125.648438 6.789062 123.738281 L 6.914062 123.292969 L 5.070312 115.59375 C 3.753906 112.539062 3.097656 109.546875 3.097656 106.617188 C 3.097656 103.054688 5.558594 99.785156 10.476562 96.816406 C 13.277344 95.117188 14.867188 93.441406 15.25 91.785156 C 16.140625 88.730469 18.113281 87.203125 21.167969 87.203125 C 22.101562 87.203125 23.671875 87.777344 25.878906 88.921875 L 27.914062 82.175781 C 29.058594 79.5 30.714844 77.464844 32.878906 76.066406 C 34.617188 74.917969 37.011719 73.984375 40.066406 73.265625 C 43.121094 72.542969 44.945312 71.992188 45.539062 71.609375 C 51.011719 67.621094 53.980469 65.625 54.449219 65.625 L 54.511719 65.625 L 58.265625 62.761719 L 66.984375 56.015625 L 70.867188 51.621094 L 71.820312 50.222656 C 73.558594 47.632812 75.40625 45.617188 77.355469 44.175781 C 83.550781 39.550781 89.40625 36.261719 94.921875 34.308594 C 97.339844 33.417969 100.074219 32.144531 103.128906 30.488281 L 103.890625 29.660156 L 104.273438 29.789062 L 105.039062 29.34375 L 106.566406 28.261719 C 111.445312 23.253906 115.726562 20.75 119.417969 20.75 C 120.011719 20.75 120.332031 21.046875 120.375 21.640625 L 120.246094 22.023438 L 120.375 22.46875 L 120.183594 22.851562 C 120.394531 23.359375 120.457031 24.273438 120.375 25.589844 L 120.183594 28.324219 C 119.886719 28.960938 118.996094 29.535156 117.511719 30.042969 C 113.523438 32.589844 111.359375 33.863281 111.019531 33.863281 C 110.722656 33.863281 110.511719 33.777344 110.382812 33.609375 L 109.300781 34.882812 C 106.289062 38.699219 103.257812 42.964844 100.203125 47.675781 L 91.164062 60.660156 C 87.347656 66.09375 84.738281 70.398438 83.339844 73.582031 C 82.066406 76.46875 80.410156 80.796875 78.375 86.566406 C 77.695312 88.050781 76.953125 92.148438 76.148438 98.851562 C 77.082031 99.105469 77.527344 100.125 77.484375 101.90625 L 77.421875 106.808594 L 79.265625 114.828125 C 79.519531 118.222656 80.09375 121.277344 80.984375 123.996094 C 81.746094 126.371094 82.128906 128.621094 82.128906 130.742188 C 82.128906 135.324219 81.386719 140.289062 79.902344 145.636719 L 76.402344 159.578125 C 76.996094 161.1875 77.335938 162.695312 77.421875 164.097656 C 78.101562 165.113281 79.179688 168.085938 80.667969 173.007812 L 82.382812 182.363281 C 82.894531 185.589844 83.273438 191.828125 83.53125 201.078125 L 83.53125 201.394531 L 83.464844 202.667969 L 83.085938 208.398438 C 82.914062 209.542969 82.851562 211.390625 82.894531 213.9375 L 81.300781 225.074219 L 78.628906 244.550781 C 78.800781 245.742188 78.882812 248.265625 78.882812 252.128906 C 78.882812 254.035156 79.117188 256.816406 79.585938 260.464844 C 79.5 264.113281 80.007812 269.675781 81.113281 277.140625 L 81.113281 277.90625 C 81.664062 278.203125 81.8125 284.503906 81.558594 296.8125 C 81.683594 300.925781 82.449219 307.25 83.847656 315.78125 L 85.503906 334.746094 C 85.714844 337.507812 86.585938 343.785156 88.113281 353.589844 L 88.113281 353.90625 L 87.539062 354.289062 L 87.285156 354.097656 L 86.773438 354.097656 L 77.738281 355.054688 L 74.113281 355.5 C 73.09375 354.988281 71.375 354.734375 68.957031 354.734375 L 68.320312 354.796875 L 67.429688 354.289062 L 67.8125 354.289062 L 66.730469 354.035156 L 66.667969 353.972656 L 63.867188 352.761719 L 63.101562 352.632812 M 106.820312 30.296875 L 99.375 39.589844 C 93.773438 46.210938 89.066406 52.386719 85.246094 58.113281 C 81.769531 63.375 78.207031 69.570312 74.558594 76.699219 C 74.046875 77.71875 72.816406 81.367188 70.867188 87.648438 C 70.019531 90.449219 69.277344 92.445312 68.640625 93.632812 C 68.425781 96.007812 67.132812 101.292969 64.757812 109.480469 L 64.757812 109.609375 L 64.503906 109.609375 L 62.914062 115.339844 C 61.808594 119.75 61.257812 124.144531 61.257812 128.515625 C 61.257812 136.832031 62.042969 144.789062 63.613281 152.382812 L 64.3125 154.230469 C 65.117188 157.15625 66.453125 163.394531 68.320312 172.945312 C 69.722656 178.289062 70.421875 185.164062 70.421875 193.566406 L 70.230469 207.824219 L 69.976562 212.34375 L 70.230469 215.335938 L 70.230469 218.773438 C 70.230469 223.570312 69.699219 227.449219 68.640625 230.421875 C 68.257812 231.523438 67.875 233.816406 67.492188 237.296875 L 67.367188 238.570312 L 67.367188 244.871094 L 67.238281 244.871094 L 66.984375 246.714844 C 66.984375 248.710938 67.769531 254.355469 69.339844 263.648438 C 70.910156 272.941406 71.695312 280.664062 71.695312 286.816406 L 71.628906 294.648438 C 71.84375 295.410156 71.96875 297.128906 72.011719 299.800781 L 72.265625 309.097656 C 72.394531 311.21875 73.09375 316.203125 74.367188 324.054688 C 74.917969 327.578125 75.234375 332.542969 75.320312 338.949219 L 75.320312 346.394531 C 75.320312 348.179688 75.511719 350.640625 75.894531 353.78125 L 75.894531 353.90625 L 86.964844 353.269531 C 86.03125 350.046875 84.84375 339.523438 83.402344 321.699219 C 82.808594 315.207031 82.171875 309.773438 81.492188 305.402344 C 80.816406 301.457031 80.496094 298.742188 80.539062 297.257812 L 80.539062 283.507812 L 80.667969 279.753906 L 80.601562 279.753906 L 79.457031 271.988281 C 78.777344 267.785156 78.460938 265.195312 78.503906 264.222656 C 78.035156 257.21875 77.800781 252.042969 77.800781 248.691406 L 77.800781 246.207031 L 77.929688 244.871094 L 77.230469 244.871094 C 78.375 239.4375 78.949219 235.578125 78.949219 233.285156 C 78.90625 230.996094 79.4375 227.152344 80.539062 221.765625 C 81.597656 216.375 82.023438 212.535156 81.8125 210.242188 L 82.382812 204.453125 L 82.382812 200.757812 C 82.085938 199.65625 81.894531 197.597656 81.8125 194.585938 L 81.367188 183.128906 L 79.839844 173.707031 C 77.503906 168.234375 76.339844 165.15625 76.339844 164.476562 L 76.402344 164.222656 L 75.957031 161.550781 C 75.066406 159.808594 74.535156 158.535156 74.367188 157.730469 C 73.304688 156.03125 72.777344 154.761719 72.777344 153.910156 L 71.566406 150.027344 C 70.71875 147.183594 70.292969 142.09375 70.292969 134.753906 C 70.292969 127.878906 70.507812 123.378906 70.929688 121.257812 C 72.160156 114.933594 73.113281 110.859375 73.792969 109.035156 L 73.730469 104.707031 C 73.6875 102.160156 73.964844 100.019531 74.558594 98.277344 C 74.640625 93.527344 77.125 84.914062 82.003906 72.4375 C 83.234375 69.253906 85.820312 64.96875 89.765625 59.578125 L 98.992188 46.65625 C 102.726562 40.546875 105.675781 36.28125 107.835938 33.863281 L 113.121094 27.5625 L 115.855469 24.507812 L 112.164062 25.84375 L 106.820312 30.296875 M 116.554688 26.859375 L 112.164062 31.570312 L 118.082031 27.753906 C 118.421875 27.457031 118.59375 26.4375 118.59375 24.695312 L 116.554688 26.859375 M 83.785156 49.523438 L 87.730469 44.875 L 90.847656 42.390625 C 92.332031 41.289062 93.222656 40.441406 93.519531 39.847656 C 94.199219 38.402344 95.875 36.683594 98.546875 34.691406 L 101.027344 32.460938 C 99.714844 33.058594 98.144531 33.800781 96.320312 34.691406 C 91.144531 36.429688 87.433594 38 85.183594 39.402344 L 78.121094 44.8125 C 76.507812 45.914062 75.023438 47.355469 73.667969 49.140625 L 76.464844 52.894531 C 76.339844 52.9375 76.234375 53 76.148438 53.085938 L 76.339844 53.148438 L 76.53125 53.085938 L 76.59375 53.085938 L 78.375 55.570312 L 78.757812 56.332031 L 80.476562 53.785156 L 83.273438 50.285156 L 83.910156 49.96875 L 83.785156 49.523438 M 75.703125 53.914062 L 75.828125 53.722656 L 75.449219 53.59375 L 74.621094 52.511719 L 74.046875 51.621094 L 73.03125 49.96875 L 72.519531 50.730469 L 71.949219 51.621094 L 67.875 56.652344 L 58.265625 63.84375 L 55.023438 66.199219 L 54.957031 66.324219 L 45.792969 72.945312 L 42.230469 74.15625 L 38.351562 75.238281 C 36.015625 75.535156 34.148438 76.511719 32.75 78.164062 L 30.078125 81.730469 C 27.871094 85.210938 26.789062 88.859375 26.832031 92.679688 L 26.324219 92.867188 L 26.257812 92.867188 L 26.257812 92.679688 L 26.003906 92.679688 L 26.003906 92.742188 L 25.8125 92.679688 L 25.8125 89.8125 L 21.296875 88.347656 C 18.878906 88.347656 17.160156 89.878906 16.140625 92.933594 C 15.800781 94.246094 14.210938 95.753906 11.367188 97.453125 C 6.53125 100.378906 4.113281 103.457031 4.113281 106.679688 L 7.996094 123.675781 C 8.761719 124.949219 9.757812 128.34375 10.988281 133.859375 C 13.449219 139.421875 15.230469 143.003906 16.332031 144.617188 L 23.96875 155.375 L 29.3125 160.53125 C 32.113281 163.289062 33.578125 165.113281 33.703125 166.003906 L 39.558594 163.96875 C 43.25 162.441406 45.347656 161.402344 45.859375 160.847656 C 48.066406 158.347656 49.78125 155.949219 51.011719 153.65625 L 52.09375 151.683594 L 52.347656 151.683594 L 52.347656 151.554688 L 52.222656 151.367188 C 53.199219 149.625 54.492188 147.566406 56.105469 145.191406 L 56.738281 144.363281 L 56.996094 143.980469 L 60.175781 139.90625 L 57.441406 133.160156 L 54.832031 125.648438 C 53.683594 122.59375 52.308594 120.089844 50.695312 118.140625 C 49.675781 116.867188 47.914062 115.445312 45.414062 113.875 L 44.078125 112.984375 C 40.683594 112.558594 35.761719 110.457031 29.3125 106.679688 L 23.015625 102.796875 C 22.378906 102.246094 21.996094 101.417969 21.867188 100.316406 L 21.933594 98.46875 L 21.933594 97.644531 L 22.25 95.480469 C 22.71875 93.101562 23.140625 91.914062 23.523438 91.914062 C 23.90625 91.914062 24.097656 92.082031 24.097656 92.421875 L 23.460938 95.03125 C 22.992188 96.476562 22.757812 97.855469 22.757812 99.171875 C 22.757812 102.777344 29.3125 106.808594 42.421875 111.265625 L 42.484375 111.265625 L 42.421875 111.136719 C 42.421875 110.753906 42.59375 110.5625 42.929688 110.5625 C 43.3125 110.5625 44.289062 111.136719 45.859375 112.28125 L 45.539062 112.726562 L 46.050781 112.917969 L 46.304688 112.664062 L 46.875 113.109375 L 51.140625 116.929688 L 51.140625 116.867188 L 57.121094 111.835938 L 57.441406 108.78125 C 59.007812 98.808594 60.410156 93.570312 61.640625 93.058594 L 67.875 77.972656 L 70.929688 69.828125 C 71.652344 68.003906 72.4375 66.324219 73.285156 64.796875 L 74.621094 62.507812 L 75.066406 61.871094 L 78.058594 57.414062 L 77.421875 56.140625 L 75.703125 53.914062 M 79.902344 59.324219 L 79.585938 60.023438 L 79.519531 60.214844 L 79.519531 60.152344 L 79.902344 59.324219 M 51.777344 117.691406 C 52.921875 119.179688 54.023438 121.089844 55.085938 123.421875 C 56.105469 120.410156 56.699219 118.160156 56.867188 116.675781 L 56.929688 113.9375 C 54.300781 116.230469 52.582031 117.375 51.777344 117.375 L 51.523438 117.375 L 51.648438 117.503906 L 51.777344 117.691406 M 76.339844 103.179688 L 75.957031 100.953125 L 75.195312 109.609375 L 74.9375 109.609375 L 71.882812 122.085938 C 71.503906 124.546875 71.3125 128.769531 71.3125 134.753906 C 71.3125 142.21875 71.757812 147.226562 72.648438 149.773438 L 75.703125 157.792969 C 76.085938 155.546875 76.953125 151.980469 78.3125 147.101562 C 80.136719 140.4375 81.046875 135.007812 81.046875 130.804688 L 80.855469 127.433594 L 79.394531 122.914062 C 78.460938 119.816406 78.058594 117.183594 78.183594 115.019531 C 78.226562 114.085938 77.929688 112.75 77.292969 111.007812 C 76.65625 109.269531 76.339844 107.976562 76.339844 107.125 L 76.339844 103.179688 M 61.894531 148.753906 L 61.832031 146.144531 C 61.746094 145.382812 61.535156 144.808594 61.195312 144.425781 L 60.8125 140.988281 L 58.265625 143.789062 L 58.777344 144.234375 C 58.226562 144.703125 57.949219 145.679688 57.949219 147.164062 C 57.949219 148.140625 58.203125 149.796875 58.710938 152.128906 L 58.777344 152.382812 L 58.710938 153.210938 C 58.710938 155.121094 59.050781 158.238281 59.730469 162.566406 L 59.730469 166.578125 L 59.667969 166.707031 L 59.792969 167.152344 C 59.878906 170.929688 60.21875 175.59375 60.8125 181.15625 L 60.75 183.765625 L 61.003906 188.09375 L 61.003906 194.265625 C 61.003906 203.644531 60.8125 210.730469 60.429688 215.527344 L 58.523438 236.53125 L 58.203125 237.933594 L 58.203125 238.949219 L 58.140625 250.152344 L 58.078125 252.191406 L 58.078125 252.761719 L 58.011719 253.71875 L 57.886719 257.539062 L 58.140625 261.039062 L 58.332031 265.941406 L 58.394531 270.269531 C 58.4375 272.8125 58.859375 276.570312 59.667969 281.535156 L 59.984375 283.445312 L 59.667969 294.390625 L 59.539062 297.128906 L 59.667969 297.703125 C 59.878906 298.679688 60.007812 300.398438 60.050781 302.859375 C 60.175781 308.035156 60.367188 311.261719 60.621094 312.53125 L 60.621094 337.167969 L 60.8125 341.175781 C 60.8125 342.109375 61.003906 343.425781 61.386719 345.125 L 61.640625 349.195312 L 63.101562 350.851562 L 64.183594 351.550781 L 64.566406 351.679688 L 66.921875 352.441406 L 73.222656 353.523438 L 74.9375 353.78125 C 74.558594 352.378906 74.324219 348.816406 74.238281 343.085938 C 74.195312 333.707031 73.921875 327.554688 73.410156 324.628906 C 71.96875 316.308594 71.226562 311.34375 71.183594 309.734375 L 70.867188 294.773438 L 70.929688 294.457031 C 70.761719 292.671875 70.675781 288.960938 70.675781 283.316406 L 69.464844 271.09375 C 67.089844 260.527344 65.902344 252.339844 65.902344 246.527344 L 65.902344 244.742188 C 65.945312 244.0625 66.074219 243.597656 66.285156 243.34375 L 66.285156 241.242188 C 66.117188 240.605469 66.074219 239.503906 66.15625 237.933594 L 66.15625 237.613281 C 66.15625 235.109375 67.070312 230.78125 68.894531 224.628906 C 68.894531 219.238281 69 215.546875 69.210938 213.554688 C 68.832031 213.511719 68.640625 213.300781 68.640625 212.917969 L 69.210938 193.566406 C 69.210938 185.078125 68.152344 176.867188 66.03125 168.933594 C 64.292969 162.609375 63.25 157.964844 62.914062 154.992188 C 62.871094 153.421875 62.507812 151.554688 61.832031 149.390625 L 61.832031 149.328125 L 62.019531 149.773438 L 61.894531 148.753906 M 73.984375 169.1875 L 73.285156 169.1875 L 73.285156 168.613281 L 73.984375 169.1875 M 183.433594 245.824219 L 183.5625 247.925781 L 183.242188 254.609375 C 183.203125 255.542969 182.863281 256.859375 182.226562 258.554688 L 181.84375 259.636719 L 181.90625 260.148438 C 181.90625 261.207031 179.957031 264.75 176.054688 270.777344 C 174.992188 272.984375 174.230469 276.464844 173.761719 281.214844 L 173.507812 286.371094 C 173.421875 288.453125 173.125 290.210938 172.617188 291.65625 L 167.84375 302.09375 L 168.988281 303.683594 L 174.273438 308.777344 C 178.429688 312.171875 182.523438 313.871094 186.554688 313.871094 C 188.25 313.871094 189.011719 313.742188 188.84375 313.488281 L 189.417969 313.617188 L 189.605469 313.550781 C 190.457031 313.425781 191.15625 313.085938 191.707031 312.53125 L 193.550781 310.496094 C 195.335938 308.714844 196.417969 307.355469 196.796875 306.421875 C 198.242188 302.476562 199.066406 299.78125 199.28125 298.339844 L 200.742188 289.9375 C 201.167969 287.304688 201.378906 284.757812 201.378906 282.296875 C 201.378906 280.726562 201.019531 278.734375 200.296875 276.316406 C 199.535156 273.894531 199.152344 271.160156 199.152344 268.105469 L 199.152344 265.75 L 199.28125 264.285156 L 199.152344 263.902344 L 200.171875 254.546875 C 200.765625 252.722656 201.210938 250.558594 201.507812 248.054688 L 201.953125 245.570312 L 200.425781 245.570312 L 191.261719 245.824219 L 187.699219 245.953125 L 183.433594 245.824219 M 179.296875 297.636719 C 178.367188 297.636719 177.730469 297.957031 177.390625 298.59375 L 177.136719 299.675781 L 177.835938 301.457031 C 177.835938 302.09375 177.472656 302.414062 176.753906 302.414062 C 175.863281 302.414062 175.332031 302.050781 175.164062 301.332031 L 175.097656 300.183594 C 175.097656 298.828125 175.863281 296.554688 177.390625 293.375 C 178.875 290.277344 179.828125 288.726562 180.253906 288.726562 C 180.71875 288.726562 181.101562 290.128906 181.398438 292.929688 C 181.527344 293.988281 181.863281 295.367188 182.417969 297.066406 L 182.226562 297.703125 L 179.296875 297.636719 M 176.816406 297.511719 L 177.898438 296.8125 L 181.082031 296.683594 C 180.65625 295.324219 180.296875 293.523438 180 291.273438 L 176.753906 297.449219 L 176.753906 297.511719 L 176.816406 297.511719 "/>
<path style=" stroke:none;fill-rule:evenodd;fill:rgb(19.215687%,30.588236%,22.745098%);fill-opacity:1;" d="M 163.328125 85.230469 L 163.328125 85.738281 L 163.007812 85.613281 L 163.199219 85.167969 L 163.199219 85.039062 L 163.328125 85.230469 M 195.972656 309.605469 L 196.035156 309.605469 L 195.972656 309.605469 M 164.027344 296.554688 L 163.644531 296.875 L 163.515625 296.746094 L 163.835938 296.429688 L 163.960938 296.238281 L 164.027344 296.554688 M 158.746094 30.296875 L 158.746094 30.234375 L 158.808594 30.296875 L 158.746094 30.296875 M 193.871094 210.5 L 193.617188 210.6875 L 193.679688 210.5 L 193.871094 210.5 M 190.5 244.742188 L 190.5625 244.871094 L 190.5 244.808594 L 190.5 244.742188 M 95.492188 41.691406 L 95.8125 41.375 L 95.9375 41.5 L 95.683594 41.820312 L 95.492188 41.691406 M 76.59375 53.085938 L 76.53125 53.085938 L 76.339844 53.148438 L 76.148438 53.085938 C 76.234375 53 76.339844 52.9375 76.464844 52.894531 L 76.59375 53.085938 M 75.703125 53.914062 L 75.382812 53.660156 L 75.382812 53.59375 L 75.449219 53.59375 L 75.828125 53.722656 L 75.703125 53.914062 M 28.933594 97.007812 L 28.933594 96.75 L 29.1875 97.007812 L 28.933594 97.007812 M 52.222656 151.367188 L 52.347656 151.554688 L 52.347656 151.683594 L 52.09375 151.683594 L 52.03125 151.554688 L 52.222656 151.367188 M 51.777344 117.375 L 51.777344 117.691406 L 51.648438 117.503906 L 51.777344 117.375 M 160.972656 150.984375 L 161.097656 151.109375 L 161.035156 151.238281 L 160.972656 150.984375 "/>
<path style=" stroke:none;fill-rule:evenodd;fill:rgb(18.82353%,19.607843%,18.431373%);fill-opacity:1;" d="M 160.082031 29.089844 L 158.046875 25.84375 L 156.644531 23.996094 L 156.453125 22.023438 C 157.855469 22.957031 159.550781 24.613281 161.542969 26.988281 L 163.898438 29.660156 L 165.042969 31.253906 C 166.191406 33.121094 166.828125 34.777344 166.953125 36.21875 C 167.207031 40.121094 167.570312 42.539062 168.035156 43.472656 L 165.234375 55.121094 L 163.136719 62.253906 C 162.203125 65.179688 161.691406 67.578125 161.609375 69.445312 C 160.929688 72.882812 160.441406 77.65625 160.144531 83.765625 L 157.21875 98.214844 L 157.21875 98.660156 C 156.453125 101.503906 154.800781 108.929688 152.253906 120.941406 L 151.554688 132.777344 C 151.003906 133.585938 150.726562 137.53125 150.726562 144.617188 C 151.195312 156.246094 151.640625 163.882812 152.0625 167.53125 L 152.0625 167.980469 C 152.0625 175.40625 152.253906 184.804688 152.636719 196.175781 C 152.761719 199.0625 153.527344 203.707031 154.925781 210.117188 L 155.308594 218.710938 C 155.4375 220.621094 155.605469 222.039062 155.816406 222.972656 L 155.691406 223.546875 L 155.691406 225.074219 C 155.691406 233.351562 157.664062 251.679688 161.609375 280.070312 L 161.609375 281.023438 C 161.609375 291.804688 162.4375 304.320312 164.089844 318.582031 C 164.894531 325.496094 165.40625 331.757812 165.617188 337.359375 C 165.914062 345.675781 166.316406 351.234375 166.828125 354.035156 L 154.101562 354.160156 L 151.871094 354.226562 L 149.773438 335.003906 L 148.5 320.363281 L 148.183594 317.6875 C 148.480469 317.265625 148.5625 316.5 148.4375 315.398438 C 147.925781 313.191406 147.609375 309.667969 147.480469 304.832031 L 147.355469 294.328125 C 146.972656 291.910156 146.71875 288.386719 146.589844 283.761719 C 146.464844 279.007812 146.25 275.53125 145.953125 273.324219 C 144.511719 263.179688 143.832031 252.761719 143.917969 242.070312 C 143.917969 236.636719 143.789062 233.242188 143.535156 231.886719 L 143.535156 229.339844 C 143.535156 223.058594 142.816406 217.542969 141.371094 212.789062 C 140.738281 210.667969 140.460938 207.847656 140.546875 204.324219 L 140.480469 196.175781 C 139.464844 186.246094 138.953125 175.066406 138.953125 162.632812 C 138.953125 154.527344 139.125 148.078125 139.464844 143.28125 C 139.335938 138.867188 139.464844 135.644531 139.84375 133.605469 L 141.753906 124.1875 L 141.816406 123.804688 L 141.816406 123.675781 L 141.882812 123.292969 C 142.050781 120.832031 143.367188 114.40625 145.828125 104.007812 L 150.535156 84.847656 C 151.808594 80.5625 154.035156 74.070312 157.21875 65.371094 L 160.84375 55.570312 C 161.949219 52.34375 162.625 49.628906 162.882812 47.421875 L 162.945312 47.421875 C 163.453125 47.421875 163.707031 46.910156 163.707031 45.894531 L 162.945312 39.910156 L 161.992188 34.691406 C 161.480469 32.101562 160.84375 30.234375 160.082031 29.089844 M 106.820312 30.296875 L 112.164062 25.84375 L 115.855469 24.507812 L 113.121094 27.5625 L 107.835938 33.863281 C 105.675781 36.28125 102.726562 40.546875 98.992188 46.65625 L 89.765625 59.578125 C 85.820312 64.96875 83.234375 69.253906 82.003906 72.4375 C 77.125 84.914062 74.640625 93.527344 74.558594 98.277344 C 73.964844 100.019531 73.6875 102.160156 73.730469 104.707031 L 73.792969 109.035156 C 73.113281 110.859375 72.160156 114.933594 70.929688 121.257812 C 70.507812 123.378906 70.292969 127.878906 70.292969 134.753906 C 70.292969 142.09375 70.71875 147.183594 71.566406 150.027344 L 72.777344 153.910156 C 72.777344 154.761719 73.304688 156.03125 74.367188 157.730469 C 74.535156 158.535156 75.066406 159.808594 75.957031 161.550781 L 76.402344 164.222656 L 76.339844 164.476562 C 76.339844 165.15625 77.503906 168.234375 79.839844 173.707031 L 81.367188 183.128906 L 81.8125 194.585938 C 81.894531 197.597656 82.085938 199.65625 82.382812 200.757812 L 82.382812 204.453125 L 81.8125 210.242188 C 82.023438 212.535156 81.597656 216.375 80.539062 221.765625 C 79.4375 227.152344 78.90625 230.996094 78.949219 233.285156 C 78.949219 235.578125 78.375 239.4375 77.230469 244.871094 L 77.929688 244.871094 L 77.800781 246.207031 L 77.800781 248.691406 C 77.800781 252.042969 78.035156 257.21875 78.503906 264.222656 C 78.460938 265.195312 78.777344 267.785156 79.457031 271.988281 L 80.601562 279.753906 L 80.667969 279.753906 L 80.539062 283.507812 L 80.539062 297.257812 C 80.496094 298.742188 80.816406 301.457031 81.492188 305.402344 C 82.171875 309.773438 82.808594 315.207031 83.402344 321.699219 C 84.84375 339.523438 86.03125 350.046875 86.964844 353.269531 L 75.894531 353.90625 L 75.894531 353.78125 C 75.511719 350.640625 75.320312 348.179688 75.320312 346.394531 L 75.320312 338.949219 C 75.234375 332.542969 74.917969 327.578125 74.367188 324.054688 C 73.09375 316.203125 72.394531 311.21875 72.265625 309.097656 L 72.011719 299.800781 C 71.96875 297.128906 71.84375 295.410156 71.628906 294.648438 L 71.695312 286.816406 C 71.695312 280.664062 70.910156 272.941406 69.339844 263.648438 C 67.769531 254.355469 66.984375 248.710938 66.984375 246.714844 L 67.238281 244.871094 L 67.367188 244.871094 L 67.367188 238.570312 L 67.492188 237.296875 C 67.875 233.816406 68.257812 231.523438 68.640625 230.421875 C 69.699219 227.449219 70.230469 223.570312 70.230469 218.773438 L 70.230469 215.335938 L 69.976562 212.34375 L 70.230469 207.824219 L 70.421875 193.566406 C 70.421875 185.164062 69.722656 178.289062 68.320312 172.945312 C 66.453125 163.394531 65.117188 157.15625 64.3125 154.230469 L 63.613281 152.382812 C 62.042969 144.789062 61.257812 136.832031 61.257812 128.515625 C 61.257812 124.144531 61.808594 119.75 62.914062 115.339844 L 64.503906 109.609375 L 64.757812 109.609375 L 64.757812 109.480469 C 67.132812 101.292969 68.425781 96.007812 68.640625 93.632812 C 69.277344 92.445312 70.019531 90.449219 70.867188 87.648438 C 72.816406 81.367188 74.046875 77.71875 74.558594 76.699219 C 78.207031 69.570312 81.769531 63.375 85.246094 58.113281 C 89.066406 52.386719 93.773438 46.210938 99.375 39.589844 L 106.820312 30.296875 M 73.984375 169.1875 L 73.285156 168.613281 L 73.285156 169.1875 L 73.984375 169.1875 "/>
<path style=" stroke:none;fill-rule:evenodd;fill:rgb(39.607844%,55.686277%,43.921569%);fill-opacity:1;" d="M 167.460938 55.121094 L 167.527344 55.121094 L 167.398438 55.1875 L 167.460938 55.121094 M 167.398438 55.25 L 167.71875 55.632812 L 167.335938 55.503906 L 167.398438 55.25 M 163.261719 84.914062 L 163.328125 85.230469 L 163.199219 85.039062 L 163.261719 84.914062 M 194.253906 210.5 L 194.253906 210.878906 L 193.871094 210.5 L 194.253906 210.5 M 169.433594 233.222656 L 169.433594 233.09375 L 169.816406 233.09375 L 169.433594 233.222656 M 95.8125 41.375 L 95.9375 41.5 L 95.8125 41.375 M 100.902344 34.371094 L 100.710938 34.054688 L 102.046875 32.972656 L 100.902344 34.371094 M 67.429688 354.289062 L 66.730469 354.035156 L 67.8125 354.289062 L 67.429688 354.289062 M 66.667969 353.972656 L 64.3125 353.207031 L 63.101562 352.761719 L 63.101562 352.632812 L 63.867188 352.761719 L 66.667969 353.972656 M 59.730469 76.066406 L 59.347656 76.382812 L 59.347656 76.320312 L 59.730469 76.066406 M 54.765625 79.757812 L 56.230469 78.929688 L 54.832031 79.882812 L 54.765625 79.757812 M 26.324219 92.867188 L 26.257812 92.933594 L 26.257812 92.867188 L 26.324219 92.867188 M 28.933594 96.75 L 28.867188 96.75 L 28.933594 96.625 L 28.933594 96.75 M 31.859375 97.070312 L 31.539062 97.007812 L 31.859375 97.007812 L 31.859375 97.070312 M 40.195312 91.46875 L 40.195312 91.597656 L 40.195312 91.46875 M 51.648438 117.503906 L 51.523438 117.375 L 51.777344 117.375 L 51.648438 117.503906 M 61.832031 149.328125 L 61.894531 148.753906 L 62.019531 149.773438 L 61.832031 149.328125 M 191.324219 143.410156 L 191.453125 143.855469 L 191.261719 143.410156 L 191.324219 143.410156 M 161.097656 151.109375 L 161.097656 151.238281 L 161.035156 151.238281 L 161.097656 151.109375 M 196.035156 309.605469 L 196.035156 309.667969 L 195.972656 309.605469 L 196.035156 309.605469 "/>
<path style=" stroke:none;fill-rule:evenodd;fill:rgb(99.215686%,78.431374%,80.784315%);fill-opacity:1;" d="M 167.71875 55.632812 C 170.09375 61.320312 171.28125 66.941406 171.28125 72.5 C 171.28125 77.464844 170.285156 79.949219 168.289062 79.949219 C 167.484375 79.949219 166.507812 79.648438 165.363281 79.054688 L 163.835938 78.164062 L 163.644531 78.355469 C 163.644531 79.5 164.429688 81.328125 166 83.832031 L 169.054688 88.476562 C 166.804688 89.242188 165.511719 89.8125 165.171875 90.195312 C 164.875 85.65625 164.386719 83.382812 163.707031 83.382812 C 163.367188 83.382812 163.199219 83.597656 163.199219 84.019531 L 163.261719 84.914062 L 163.199219 85.039062 L 163.199219 85.167969 L 163.007812 85.613281 L 161.355469 91.976562 C 160.589844 94.3125 160.207031 96.710938 160.207031 99.171875 L 162.054688 115.785156 L 162.945312 132.460938 L 162.371094 141.691406 L 160.972656 150.984375 L 161.035156 151.238281 L 161.097656 151.238281 C 161.140625 153.785156 161.734375 156.585938 162.882812 159.640625 L 163.773438 168.296875 C 163.730469 174.109375 163.792969 179.882812 163.960938 185.609375 L 164.089844 185.609375 L 164.089844 211.007812 L 164.789062 233.921875 C 164.917969 237.402344 165.597656 241.242188 166.828125 245.445312 C 167.421875 247.4375 168.90625 249.347656 171.28125 251.171875 C 172.425781 251.980469 174.101562 253.65625 176.308594 256.199219 C 176.691406 257.261719 176.878906 258.300781 176.878906 259.320312 C 176.878906 260.253906 175.925781 262.992188 174.015625 267.53125 C 171.9375 272.539062 170.707031 276.039062 170.328125 278.035156 L 168.480469 287.390625 C 167.589844 290.785156 166.085938 293.734375 163.960938 296.238281 L 163.582031 288.21875 L 163.007812 280.390625 C 163.261719 280.132812 163.328125 279.644531 163.199219 278.925781 L 159.382812 250.472656 C 158.574219 236.300781 157.855469 227.449219 157.21875 223.929688 C 157.472656 223.546875 157.535156 222.867188 157.410156 221.890625 C 157.410156 218.03125 157.003906 213.636719 156.199219 208.714844 C 155.140625 202.222656 154.460938 197.472656 154.164062 194.457031 C 153.992188 192.589844 153.910156 186.96875 153.910156 177.589844 C 153.949219 172.496094 153.78125 169.25 153.398438 167.851562 L 153.398438 166.707031 L 153.019531 155.695312 C 152.550781 149.625 152.316406 145.933594 152.316406 144.617188 C 152.316406 142.242188 152.574219 138.507812 153.082031 133.414062 L 153.84375 122.277344 C 156.984375 108.398438 158.554688 100.890625 158.554688 99.742188 L 158.617188 98.851562 L 161.226562 85.996094 C 161.269531 79.757812 161.839844 75.003906 162.945312 71.734375 L 167.335938 55.503906 L 167.71875 55.632812 M 187.125 353.589844 L 168.542969 354.035156 L 168.542969 353.972656 C 168.542969 352.230469 168.164062 349.113281 167.398438 344.613281 C 167.355469 340.371094 167.230469 337.230469 167.015625 335.195312 L 165.488281 316.289062 L 164.789062 308.269531 C 165.300781 309.246094 167.695312 311.515625 171.980469 315.078125 C 177.410156 319.621094 181.675781 321.890625 184.769531 321.890625 C 188.164062 321.890625 191.027344 320 193.363281 316.226562 L 194.445312 325.390625 C 194.824219 328.320312 195.355469 331.542969 196.035156 335.066406 C 196.035156 341.855469 193.066406 348.03125 187.125 353.589844 M 165.425781 97.769531 L 165.488281 97.769531 L 170.007812 98.40625 L 170.960938 99.933594 L 171.472656 101.144531 L 171.789062 101.589844 L 171.851562 102.609375 L 172.042969 107.828125 L 171.726562 111.902344 L 171.726562 113.046875 L 172.042969 113.046875 C 176.839844 108.84375 180.019531 106.746094 181.589844 106.746094 C 182.90625 106.746094 183.6875 107.019531 183.945312 107.574219 L 183.945312 108.910156 L 183.117188 120.238281 L 183.242188 126.03125 C 183.5 127.390625 184.410156 129.746094 185.980469 133.097656 C 188.355469 138.1875 190.117188 141.839844 191.261719 144.046875 L 191.898438 145.191406 L 193.933594 151.492188 C 194.996094 154.84375 195.609375 157.601562 195.78125 159.765625 C 195.949219 161.675781 196.417969 164.5 197.179688 168.234375 C 197.816406 171.375 198.132812 174.046875 198.132812 176.253906 C 198.132812 178.246094 197.921875 180.199219 197.496094 182.109375 C 197.117188 183.128906 196.734375 184.742188 196.351562 186.945312 L 195.269531 193.441406 C 194.550781 197.726562 194.1875 202.097656 194.1875 206.550781 L 194.253906 210.5 L 193.679688 210.5 L 193.617188 210.6875 C 194.167969 212.894531 194.445312 217.117188 194.445312 223.355469 L 194.1875 234.050781 C 194.1875 236.339844 193.976562 238.101562 193.550781 239.332031 C 192.917969 241.03125 191.898438 242.832031 190.5 244.742188 L 190.5 244.808594 L 187.632812 244.808594 C 180.125 244.808594 175.183594 243.914062 172.808594 242.132812 C 172.003906 240.734375 171.257812 239.882812 170.582031 239.585938 L 170.582031 239.332031 L 169.433594 233.222656 L 169.816406 233.09375 L 169.878906 231.441406 L 170.328125 214.445312 C 171.726562 200.398438 172.425781 191.167969 172.425781 186.757812 L 172.171875 180.390625 L 171.917969 176.761719 C 172.425781 175.703125 172.679688 173.070312 172.679688 168.871094 C 172.679688 166.746094 172.976562 163.90625 173.570312 160.339844 C 174.589844 152.785156 175.523438 147.144531 176.371094 143.410156 C 178.195312 135.007812 179.109375 129.363281 179.109375 126.476562 L 179.363281 117.949219 L 179.933594 109.417969 C 180.0625 108.953125 179.871094 108.71875 179.363281 108.71875 C 178.21875 108.71875 177.792969 114.339844 178.089844 125.585938 C 178.21875 130.933594 177.347656 136.621094 175.480469 142.644531 C 175.183594 143.535156 174.90625 144.851562 174.652344 146.589844 L 173.761719 144.492188 L 172.617188 141.4375 C 171.769531 139.695312 171.28125 138.402344 171.152344 137.554688 L 169.878906 129.789062 C 169.457031 126.308594 168.523438 121.152344 167.082031 114.320312 L 166.761719 106.679688 C 166.042969 103.203125 165.597656 100.613281 165.425781 98.914062 L 165.425781 97.769531 M 57.695312 130.613281 L 55.785156 125.203125 L 55.722656 125.011719 C 56.570312 123.996094 57.398438 119.921875 58.203125 112.792969 L 58.457031 112.601562 L 58.457031 111.835938 L 58.523438 110.691406 L 58.457031 110.753906 L 58.523438 109.609375 C 58.945312 106.042969 59.371094 103.371094 59.792969 101.589844 L 62.277344 93.886719 L 65.457031 86.886719 L 68.703125 78.867188 L 71.628906 70.71875 C 72.480469 68.511719 73.433594 66.539062 74.492188 64.796875 L 74.621094 64.542969 L 75.703125 62.886719 L 78.183594 59.070312 L 78.695312 57.859375 L 79.585938 56.96875 L 81.113281 54.675781 C 82.425781 52.769531 83.785156 51.070312 85.183594 49.585938 L 85.183594 49.457031 L 88.9375 45.320312 L 91.992188 43.027344 L 94.476562 40.546875 C 95.324219 38.765625 97.273438 36.683594 100.328125 34.308594 L 100.710938 34.054688 L 100.902344 34.371094 C 99.839844 35.476562 98.78125 36.8125 97.71875 38.382812 L 97.59375 38.507812 L 97.59375 38.574219 C 97.59375 39.253906 97.210938 40.039062 96.449219 40.929688 L 95.9375 41.5 L 95.8125 41.375 L 95.492188 41.691406 L 91.992188 44.875 L 91.929688 44.746094 C 88.789062 47.292969 85.96875 50.476562 83.464844 54.296875 L 79.773438 60.277344 L 77.101562 64.605469 C 74.386719 68.597656 72.351562 71.949219 70.992188 74.664062 C 70.019531 76.574219 69.105469 79.734375 68.257812 84.148438 C 67.75 85.125 67.089844 86.738281 66.285156 88.984375 C 65.4375 91.109375 64.777344 93.101562 64.3125 94.96875 L 60.367188 106.871094 L 59.476562 118.839844 C 59.519531 119.984375 58.925781 123.910156 57.695312 130.613281 M 76.464844 52.894531 L 73.667969 49.140625 C 75.023438 47.355469 76.507812 45.914062 78.121094 44.8125 L 85.183594 39.402344 C 87.433594 38 91.144531 36.429688 96.320312 34.691406 C 98.144531 33.800781 99.714844 33.058594 101.027344 32.460938 L 98.546875 34.691406 C 95.875 36.683594 94.199219 38.402344 93.519531 39.847656 C 93.222656 40.441406 92.332031 41.289062 90.847656 42.390625 L 87.730469 44.875 L 83.785156 49.523438 C 81.152344 50.199219 78.714844 51.324219 76.464844 52.894531 M 75.449219 53.59375 L 75.382812 53.59375 L 75.382812 53.660156 L 74.621094 54.488281 C 71.523438 58.09375 69.574219 61.53125 68.765625 64.796875 C 68.257812 66.792969 67.132812 68.617188 65.394531 70.273438 C 63.613281 71.84375 61.722656 73.773438 59.730469 76.066406 L 59.347656 76.320312 L 59.222656 76.191406 L 58.394531 77.148438 L 54.765625 79.757812 L 54.832031 79.882812 L 49.613281 82.9375 C 45.074219 85.398438 42.804688 86.886719 42.804688 87.394531 L 42.804688 87.523438 C 41.488281 88.710938 40.660156 89.8125 40.324219 90.832031 C 38.160156 91.636719 36.269531 92.042969 34.660156 92.042969 L 32.558594 89.941406 L 30.460938 87.078125 C 30.078125 86.398438 29.929688 85.507812 30.011719 84.402344 L 30.078125 81.730469 L 32.75 78.164062 C 34.148438 76.511719 36.015625 75.535156 38.351562 75.238281 L 42.230469 74.15625 L 45.792969 72.945312 L 54.957031 66.324219 L 55.023438 66.199219 L 58.265625 63.84375 L 67.875 56.652344 L 71.949219 51.621094 L 72.519531 50.730469 L 73.03125 49.96875 L 74.046875 51.621094 L 74.621094 52.511719 L 75.449219 53.59375 M 26.003906 92.742188 L 26.003906 94.585938 L 28.359375 96.816406 L 28.359375 97.007812 L 29.1875 97.007812 L 31.859375 97.453125 C 36.652344 98.34375 40.363281 99.742188 42.996094 101.652344 C 45.457031 103.433594 46.6875 105.386719 46.6875 107.507812 C 46.6875 109.714844 46.410156 111.308594 45.859375 112.28125 C 44.289062 111.136719 43.3125 110.5625 42.929688 110.5625 C 42.59375 110.5625 42.421875 110.753906 42.421875 111.136719 L 42.421875 111.265625 C 29.3125 106.808594 22.757812 102.777344 22.757812 99.171875 C 22.757812 97.855469 22.992188 96.476562 23.460938 95.03125 L 24.097656 92.421875 C 24.097656 92.082031 23.90625 91.914062 23.523438 91.914062 C 23.140625 91.914062 22.71875 93.101562 22.25 95.480469 L 21.933594 97.644531 L 21.804688 96.496094 L 21.613281 96.496094 C 21.359375 99.339844 21.148438 101.058594 20.976562 101.652344 C 20.339844 103.730469 19.109375 105.429688 17.285156 106.746094 L 17.351562 107 C 25.070312 109.121094 29.695312 110.710938 31.222656 111.773438 C 34.363281 113.980469 35.929688 116.144531 35.929688 118.265625 C 35.929688 119.03125 35.613281 120.28125 34.976562 122.023438 C 34.296875 123.761719 33.957031 125.140625 33.957031 126.160156 C 33.957031 128.746094 34.320312 130.722656 35.039062 132.078125 C 35.804688 133.605469 37.648438 135.75 40.578125 138.507812 L 44.714844 142.136719 L 48.722656 146.847656 C 50.25 148.628906 51.351562 150.199219 52.03125 151.554688 L 52.09375 151.683594 L 51.011719 153.65625 C 49.78125 155.949219 48.066406 158.347656 45.859375 160.847656 C 45.347656 161.402344 43.25 162.441406 39.558594 163.96875 L 33.703125 166.003906 C 33.578125 165.113281 32.113281 163.289062 29.3125 160.53125 L 23.96875 155.375 L 16.332031 144.617188 C 15.230469 143.003906 13.449219 139.421875 10.988281 133.859375 C 9.757812 128.34375 8.761719 124.949219 7.996094 123.675781 L 4.113281 106.679688 C 4.113281 103.457031 6.53125 100.378906 11.367188 97.453125 C 14.210938 95.753906 15.800781 94.246094 16.140625 92.933594 C 17.160156 89.878906 18.878906 88.347656 21.296875 88.347656 L 25.8125 89.8125 L 25.8125 92.679688 L 26.003906 92.742188 M 79.902344 59.324219 L 79.519531 60.152344 L 79.519531 60.214844 L 79.585938 60.023438 L 79.902344 59.324219 M 59.730469 166.578125 L 60.238281 165.878906 C 61.980469 165.878906 63.378906 171.265625 64.441406 182.046875 C 64.992188 187.433594 65.371094 192.84375 65.585938 198.277344 C 65.585938 198.785156 65.289062 199.039062 64.695312 199.039062 L 64.441406 198.722656 L 64.441406 201.140625 C 64.441406 209.375 63.738281 218.859375 62.339844 229.59375 L 59.601562 251.300781 L 59.730469 252.191406 C 60.238281 255.246094 60.601562 259.742188 60.8125 265.683594 L 60.875 272.496094 C 60.832031 275.339844 61.003906 277.589844 61.386719 279.242188 L 62.46875 292.800781 L 62.53125 292.800781 L 62.53125 293.183594 C 62.445312 296.152344 62.914062 301.222656 63.929688 308.394531 C 64.992188 315.863281 65.519531 321.359375 65.519531 324.882812 L 65.203125 331.757812 L 64.820312 338.820312 L 65.074219 347.925781 L 64.503906 350.980469 L 64.695312 351.617188 L 64.566406 351.679688 L 64.183594 351.550781 L 63.101562 350.851562 L 61.640625 349.195312 L 61.386719 345.125 C 61.003906 343.425781 60.8125 342.109375 60.8125 341.175781 L 60.621094 337.167969 L 60.621094 312.53125 C 60.367188 311.261719 60.175781 308.035156 60.050781 302.859375 C 60.007812 300.398438 59.878906 298.679688 59.667969 297.703125 L 59.667969 294.390625 L 59.984375 283.445312 L 59.667969 281.535156 C 58.859375 276.570312 58.4375 272.8125 58.394531 270.269531 L 58.332031 265.941406 L 58.140625 261.039062 L 58.140625 256.964844 L 58.011719 256.074219 L 58.011719 253.71875 L 58.078125 252.761719 L 58.078125 252.191406 L 58.140625 251.554688 L 58.140625 250.152344 L 58.203125 238.949219 L 58.203125 237.933594 L 58.523438 236.53125 L 60.429688 215.527344 C 60.8125 210.730469 61.003906 203.644531 61.003906 194.265625 L 61.003906 188.09375 L 60.75 183.765625 L 60.8125 181.15625 C 60.21875 175.59375 59.878906 170.929688 59.792969 167.152344 L 59.667969 166.707031 L 59.730469 166.578125 "/>
<path style=" stroke:none;fill-rule:evenodd;fill:rgb(81.568629%,61.960787%,63.137257%);fill-opacity:1;" d="M 167.460938 55.121094 C 168.90625 49.140625 169.625 45.191406 169.625 43.285156 C 169.796875 42.179688 169.710938 41.480469 169.371094 41.183594 C 169.285156 39.1875 169.011719 37.277344 168.542969 35.453125 L 167.71875 31.890625 L 172.042969 34.179688 C 178.449219 37.363281 182.097656 39.359375 182.988281 40.164062 C 185.195312 42.160156 186.976562 44.28125 188.335938 46.53125 C 189.351562 48.140625 191.324219 50.347656 194.253906 53.148438 L 194.507812 53.148438 L 196.863281 59.324219 L 198.324219 63.207031 L 198.261719 63.207031 C 196.605469 63.207031 194.335938 64.308594 191.453125 66.515625 C 188.992188 68.382812 187.316406 69.996094 186.425781 71.355469 C 183.203125 75.300781 181.144531 78.144531 180.253906 79.882812 C 178.683594 82.855469 176.816406 85.699219 174.652344 88.414062 L 169.179688 92.867188 L 165.363281 95.988281 L 165.171875 90.195312 C 165.511719 89.8125 166.804688 89.242188 169.054688 88.476562 L 166 83.832031 C 164.429688 81.328125 163.644531 79.5 163.644531 78.355469 L 163.835938 78.164062 L 165.363281 79.054688 C 166.507812 79.648438 167.484375 79.949219 168.289062 79.949219 C 170.285156 79.949219 171.28125 77.464844 171.28125 72.5 C 171.28125 66.941406 170.09375 61.320312 167.71875 55.632812 L 167.398438 55.25 L 167.335938 55.1875 L 167.398438 55.1875 L 167.527344 55.121094 L 167.460938 55.121094 M 163.328125 85.738281 L 164.472656 99.617188 C 165.023438 103.054688 165.554688 108.230469 166.0625 115.148438 L 168.863281 130.742188 L 170.199219 138.507812 C 170.410156 139.738281 170.855469 141.011719 171.535156 142.328125 L 172.746094 144.808594 L 173.507812 146.78125 C 173.804688 147.84375 174.082031 148.542969 174.335938 148.882812 L 174.015625 151.109375 L 172.617188 159.640625 C 171.429688 165.878906 170.835938 171.480469 170.835938 176.445312 L 170.835938 176.636719 L 171.40625 186.628906 C 171.40625 189.980469 170.707031 198.488281 169.308594 212.152344 L 169.054688 224.949219 L 168.925781 231.3125 L 168.800781 232.585938 L 168.671875 233.160156 C 168.671875 234.515625 168.820312 235.746094 169.117188 236.851562 L 169.753906 239.585938 L 169.5625 239.96875 C 169.5625 241.371094 170.773438 242.621094 173.191406 243.726562 C 175.523438 244.785156 178.703125 245.484375 182.734375 245.824219 C 182.394531 246.546875 182.226562 248.902344 182.226562 252.890625 C 182.226562 253.996094 181.609375 256.496094 180.378906 260.402344 L 180.445312 260.464844 C 179.425781 261.992188 177.644531 265.175781 175.097656 270.011719 C 174.082031 271.921875 173.273438 275.507812 172.679688 280.769531 L 172.488281 286.117188 C 172.449219 288.28125 172.128906 290.0625 171.535156 291.464844 L 166.570312 302.222656 L 167.144531 303.304688 C 167.570312 303.984375 168.015625 304.34375 168.480469 304.386719 C 168.609375 304.980469 169.222656 305.808594 170.328125 306.867188 L 174.207031 310.304688 C 177.601562 313.445312 181.800781 315.015625 186.808594 315.015625 C 188.164062 315.015625 189.054688 314.847656 189.480469 314.507812 L 189.796875 314.507812 C 191.621094 314.507812 193.679688 312.871094 195.972656 309.605469 L 196.035156 309.667969 L 196.035156 309.605469 C 198.453125 306.167969 199.875 302.5625 200.296875 298.785156 C 201.738281 291.316406 202.460938 285.820312 202.460938 282.296875 C 202.460938 280.515625 201.867188 277.417969 200.679688 273.003906 C 200.425781 272.113281 200.296875 270.183594 200.296875 267.210938 L 199.980469 264.03125 L 201.125 256.074219 C 202.101562 252.636719 202.589844 249.730469 202.589844 247.351562 L 202.460938 245.507812 L 203.671875 245.507812 C 203.710938 246.566406 204.074219 248.160156 204.753906 250.28125 L 204.753906 255.4375 C 205.175781 259.171875 205.917969 262.566406 206.980469 265.621094 L 209.144531 275.871094 C 209.355469 276.972656 209.480469 278.671875 209.523438 280.960938 L 210.480469 286.246094 L 210.226562 286.691406 L 214.933594 317.945312 C 215.441406 321.125 215.84375 327.554688 216.144531 337.230469 C 216.355469 343.425781 216.628906 347.203125 216.96875 348.558594 L 213.980469 349.578125 C 212.027344 349.707031 210.351562 350.128906 208.953125 350.851562 L 204.6875 351.933594 L 202.714844 352.507812 L 197.5625 352.570312 L 193.742188 353.335938 L 187.761719 353.523438 L 187.253906 353.90625 L 186.933594 353.714844 L 187.125 353.589844 C 193.066406 348.03125 196.035156 341.855469 196.035156 335.066406 C 195.355469 331.542969 194.824219 328.320312 194.445312 325.390625 L 193.363281 316.226562 C 191.027344 320 188.164062 321.890625 184.769531 321.890625 C 181.675781 321.890625 177.410156 319.621094 171.980469 315.078125 C 167.695312 311.515625 165.300781 309.246094 164.789062 308.269531 L 164.664062 307.949219 L 164.726562 307.695312 L 164.027344 296.554688 L 163.960938 296.238281 C 166.085938 293.734375 167.589844 290.785156 168.480469 287.390625 L 170.328125 278.035156 C 170.707031 276.039062 171.9375 272.539062 174.015625 267.53125 C 175.925781 262.992188 176.878906 260.253906 176.878906 259.320312 C 176.878906 258.300781 176.691406 257.261719 176.308594 256.199219 C 174.101562 253.65625 172.425781 251.980469 171.28125 251.171875 C 168.90625 249.347656 167.421875 247.4375 166.828125 245.445312 C 165.597656 241.242188 164.917969 237.402344 164.789062 233.921875 L 164.089844 211.007812 L 164.089844 185.609375 L 163.960938 185.609375 C 163.792969 179.882812 163.730469 174.109375 163.773438 168.296875 L 162.882812 159.640625 C 161.734375 156.585938 161.140625 153.785156 161.097656 151.238281 L 161.097656 151.109375 L 160.972656 150.984375 L 162.371094 141.691406 L 162.945312 132.460938 L 162.054688 115.785156 L 160.207031 99.171875 C 160.207031 96.710938 160.589844 94.3125 161.355469 91.976562 L 163.007812 85.613281 L 163.328125 85.738281 M 158.746094 30.296875 L 156.453125 28.515625 L 156.453125 26.925781 L 158.746094 30.234375 L 158.746094 30.296875 M 165.425781 97.769531 L 165.425781 97.261719 L 175.542969 89.050781 L 181.207031 80.394531 C 181.632812 79.585938 183.730469 76.722656 187.507812 71.800781 C 190.179688 68.234375 193.847656 65.605469 198.515625 63.90625 L 200.617188 71.164062 L 203.351562 89.242188 L 203.226562 89.558594 C 203.226562 93.464844 203.542969 97.644531 204.179688 102.097656 L 204.625 108.398438 L 205.898438 114.765625 C 206.660156 120.535156 207.148438 126.753906 207.359375 133.414062 L 207.425781 135.453125 C 207.210938 135.664062 207.0625 136.578125 206.980469 138.1875 L 206.980469 141.054688 C 206.980469 143.21875 207.085938 145.128906 207.296875 146.78125 C 207.425781 147.929688 208.105469 149.878906 209.332031 152.636719 C 210.226562 156.710938 210.671875 160.617188 210.671875 164.351562 L 210.289062 176.378906 C 210.457031 186.308594 210.777344 192.484375 211.242188 194.902344 L 210.988281 201.96875 L 210.988281 225.203125 C 210.859375 226.6875 211.390625 229.105469 212.578125 232.457031 C 213.765625 235.9375 214.359375 238.421875 214.359375 239.90625 C 214.359375 241.09375 214.128906 242.324219 213.660156 243.597656 C 213.238281 243.640625 213.023438 243.746094 213.023438 243.914062 C 211.117188 243.617188 208.867188 243.660156 206.28125 244.042969 L 200.550781 244.425781 L 190.945312 244.808594 L 190.816406 244.933594 L 190.5625 244.871094 L 190.5 244.742188 C 191.898438 242.832031 192.917969 241.03125 193.550781 239.332031 C 193.976562 238.101562 194.1875 236.339844 194.1875 234.050781 L 194.445312 223.355469 C 194.445312 217.117188 194.167969 212.894531 193.617188 210.6875 L 193.871094 210.5 L 194.253906 210.878906 L 194.253906 210.5 L 194.1875 206.550781 C 194.1875 202.097656 194.550781 197.726562 195.269531 193.441406 L 196.351562 186.945312 C 196.734375 184.742188 197.117188 183.128906 197.496094 182.109375 C 197.921875 180.199219 198.132812 178.246094 198.132812 176.253906 C 198.132812 174.046875 197.816406 171.375 197.179688 168.234375 C 196.417969 164.5 195.949219 161.675781 195.78125 159.765625 C 195.609375 157.601562 194.996094 154.84375 193.933594 151.492188 L 191.898438 145.191406 L 191.261719 144.046875 C 190.117188 141.839844 188.355469 138.1875 185.980469 133.097656 C 184.410156 129.746094 183.5 127.390625 183.242188 126.03125 L 183.117188 120.238281 L 183.945312 108.910156 L 183.945312 107.574219 C 183.6875 107.019531 182.90625 106.746094 181.589844 106.746094 C 180.019531 106.746094 176.839844 108.84375 172.042969 113.046875 L 171.726562 113.046875 L 171.726562 111.902344 L 172.042969 107.828125 L 171.851562 102.609375 L 171.789062 101.589844 L 171.472656 101.144531 L 170.960938 99.933594 L 170.007812 98.40625 L 165.488281 97.769531 L 165.425781 97.769531 M 57.695312 130.613281 C 58.925781 123.910156 59.519531 119.984375 59.476562 118.839844 L 60.367188 106.871094 L 64.3125 94.96875 C 64.777344 93.101562 65.4375 91.109375 66.285156 88.984375 C 67.089844 86.738281 67.75 85.125 68.257812 84.148438 C 69.105469 79.734375 70.019531 76.574219 70.992188 74.664062 C 72.351562 71.949219 74.386719 68.597656 77.101562 64.605469 L 79.773438 60.277344 L 83.464844 54.296875 C 85.96875 50.476562 88.789062 47.292969 91.929688 44.746094 L 91.992188 44.875 L 95.492188 41.691406 L 95.683594 41.820312 L 84.101562 56.585938 C 83.339844 57.519531 82.46875 58.835938 81.492188 60.535156 L 80.601562 61.996094 C 78.609375 65.308594 76.210938 69.742188 73.410156 75.300781 C 72.265625 77.675781 71.25 80.796875 70.359375 84.65625 L 66.539062 94.078125 L 66.539062 94.777344 L 66.601562 94.777344 C 65.925781 96.941406 65.035156 100.507812 63.929688 105.472656 L 63.929688 105.917969 C 63.929688 106.597656 63.695312 107.488281 63.230469 108.589844 L 63.101562 109.101562 L 62.976562 109.609375 L 63.039062 109.609375 C 62.402344 110.96875 61.808594 113.597656 61.257812 117.503906 C 60.535156 122.425781 60.175781 126.09375 60.175781 128.515625 C 60.175781 131.78125 60.304688 135.007812 60.558594 138.1875 L 58.394531 132.652344 L 57.886719 131.058594 L 57.820312 131.058594 C 57.695312 131.1875 57.628906 131.144531 57.628906 130.933594 L 57.695312 130.613281 M 116.554688 26.859375 L 118.59375 24.695312 C 118.59375 26.4375 118.421875 27.457031 118.082031 27.753906 L 112.164062 31.570312 L 116.554688 26.859375 M 76.464844 52.894531 C 78.714844 51.324219 81.152344 50.199219 83.785156 49.523438 L 83.910156 49.96875 L 83.273438 50.285156 L 80.476562 53.785156 L 78.757812 56.332031 L 78.375 55.570312 L 76.59375 53.085938 L 76.464844 52.894531 M 75.382812 53.660156 L 75.703125 53.914062 L 77.421875 56.140625 L 78.058594 57.414062 L 75.066406 61.871094 L 74.621094 62.507812 L 73.285156 64.796875 C 72.4375 66.324219 71.652344 68.003906 70.929688 69.828125 L 67.875 77.972656 L 61.640625 93.058594 C 60.410156 93.570312 59.007812 98.808594 57.441406 108.78125 L 57.121094 111.835938 L 51.140625 116.867188 L 51.140625 116.929688 L 46.875 113.109375 L 46.304688 112.664062 L 46.050781 112.917969 L 45.539062 112.726562 L 45.859375 112.28125 C 46.410156 111.308594 46.6875 109.714844 46.6875 107.507812 C 46.6875 105.386719 45.457031 103.433594 42.996094 101.652344 C 40.363281 99.742188 36.652344 98.34375 31.859375 97.453125 L 29.1875 97.007812 L 28.933594 96.75 L 28.933594 97.007812 L 28.359375 97.007812 L 28.359375 96.816406 L 26.003906 94.585938 L 26.003906 92.679688 L 26.257812 92.679688 L 26.257812 92.933594 L 26.324219 92.867188 L 26.832031 92.679688 C 26.789062 88.859375 27.871094 85.210938 30.078125 81.730469 L 30.011719 84.402344 C 29.929688 85.507812 30.078125 86.398438 30.460938 87.078125 L 32.558594 89.941406 L 34.660156 92.042969 C 36.269531 92.042969 38.160156 91.636719 40.324219 90.832031 C 40.660156 89.8125 41.488281 88.710938 42.804688 87.523438 L 42.804688 87.394531 C 42.804688 86.886719 45.074219 85.398438 49.613281 82.9375 L 54.832031 79.882812 L 56.230469 78.929688 L 54.765625 79.757812 L 58.394531 77.148438 L 59.222656 76.191406 L 59.347656 76.320312 L 59.347656 76.382812 L 59.730469 76.066406 C 61.722656 73.773438 63.613281 71.84375 65.394531 70.273438 C 67.132812 68.617188 68.257812 66.792969 68.765625 64.796875 C 69.574219 61.53125 71.523438 58.09375 74.621094 54.488281 L 75.382812 53.660156 M 28.933594 96.75 L 28.933594 96.625 L 28.867188 96.75 L 28.933594 96.75 M 21.933594 97.644531 L 21.933594 98.46875 L 21.867188 100.316406 C 21.996094 101.417969 22.378906 102.246094 23.015625 102.796875 L 29.3125 106.679688 C 35.761719 110.457031 40.683594 112.558594 44.078125 112.984375 L 45.414062 113.875 C 47.914062 115.445312 49.675781 116.867188 50.695312 118.140625 C 52.308594 120.089844 53.683594 122.59375 54.832031 125.648438 L 57.441406 133.160156 L 60.175781 139.90625 L 56.996094 143.980469 L 56.738281 144.363281 L 56.105469 145.191406 C 54.492188 147.566406 53.199219 149.625 52.222656 151.367188 L 52.03125 151.554688 C 51.351562 150.199219 50.25 148.628906 48.722656 146.847656 L 44.714844 142.136719 L 40.578125 138.507812 C 37.648438 135.75 35.804688 133.605469 35.039062 132.078125 C 34.320312 130.722656 33.957031 128.746094 33.957031 126.160156 C 33.957031 125.140625 34.296875 123.761719 34.976562 122.023438 C 35.613281 120.28125 35.929688 119.03125 35.929688 118.265625 C 35.929688 116.144531 34.363281 113.980469 31.222656 111.773438 C 29.695312 110.710938 25.070312 109.121094 17.351562 107 L 17.285156 106.746094 C 19.109375 105.429688 20.339844 103.730469 20.976562 101.652344 C 21.148438 101.058594 21.359375 99.339844 21.613281 96.496094 L 21.804688 96.496094 L 21.933594 97.644531 M 31.859375 97.070312 L 31.859375 97.007812 L 31.539062 97.007812 L 31.859375 97.070312 M 40.195312 91.46875 L 40.195312 91.597656 L 40.195312 91.46875 M 51.777344 117.375 C 52.582031 117.375 54.300781 116.230469 56.929688 113.9375 L 56.867188 116.675781 C 56.699219 118.160156 56.105469 120.410156 55.085938 123.421875 C 54.023438 121.089844 52.921875 119.179688 51.777344 117.691406 L 51.777344 117.375 M 59.730469 166.578125 L 59.730469 162.566406 C 59.050781 158.238281 58.710938 155.121094 58.710938 153.210938 L 58.777344 152.382812 L 58.710938 152.128906 C 58.203125 149.796875 57.949219 148.140625 57.949219 147.164062 C 57.949219 145.679688 58.226562 144.703125 58.777344 144.234375 L 58.265625 143.789062 L 60.8125 140.988281 L 61.195312 144.425781 C 61.535156 144.808594 61.746094 145.382812 61.832031 146.144531 L 61.894531 148.753906 L 61.832031 149.328125 L 61.832031 149.390625 C 62.507812 151.554688 62.871094 153.421875 62.914062 154.992188 C 63.25 157.964844 64.292969 162.609375 66.03125 168.933594 C 68.152344 176.867188 69.210938 185.078125 69.210938 193.566406 L 68.640625 212.917969 C 68.640625 213.300781 68.832031 213.511719 69.210938 213.554688 C 69 215.546875 68.894531 219.238281 68.894531 224.628906 C 67.070312 230.78125 66.15625 235.109375 66.15625 237.613281 L 66.15625 237.933594 C 66.074219 239.503906 66.117188 240.605469 66.285156 241.242188 L 66.285156 243.34375 C 66.074219 243.597656 65.945312 244.0625 65.902344 244.742188 L 65.902344 246.527344 C 65.902344 252.339844 67.089844 260.527344 69.464844 271.09375 L 70.675781 283.316406 C 70.675781 288.960938 70.761719 292.671875 70.929688 294.457031 L 70.867188 294.773438 L 71.183594 309.734375 C 71.226562 311.34375 71.96875 316.308594 73.410156 324.628906 C 73.921875 327.554688 74.195312 333.707031 74.238281 343.085938 C 74.324219 348.816406 74.558594 352.378906 74.9375 353.78125 L 73.222656 353.523438 L 66.921875 352.441406 L 64.566406 351.679688 L 64.695312 351.617188 L 64.503906 350.980469 L 65.074219 347.925781 L 64.820312 338.820312 L 65.203125 331.757812 L 65.519531 324.882812 C 65.519531 321.359375 64.992188 315.863281 63.929688 308.394531 C 62.914062 301.222656 62.445312 296.152344 62.53125 293.183594 L 62.53125 292.800781 L 62.46875 292.800781 L 61.386719 279.242188 C 61.003906 277.589844 60.832031 275.339844 60.875 272.496094 L 60.8125 265.683594 C 60.601562 259.742188 60.238281 255.246094 59.730469 252.191406 L 59.601562 251.300781 L 62.339844 229.59375 C 63.738281 218.859375 64.441406 209.375 64.441406 201.140625 L 64.441406 198.722656 L 64.695312 199.039062 C 65.289062 199.039062 65.585938 198.785156 65.585938 198.277344 C 65.371094 192.84375 64.992188 187.433594 64.441406 182.046875 C 63.378906 171.265625 61.980469 165.878906 60.238281 165.878906 L 59.730469 166.578125 M 76.339844 103.179688 L 76.339844 107.125 C 76.339844 107.976562 76.65625 109.269531 77.292969 111.007812 C 77.929688 112.75 78.226562 114.085938 78.183594 115.019531 C 78.058594 117.183594 78.460938 119.816406 79.394531 122.914062 L 80.855469 127.433594 L 81.046875 130.804688 C 81.046875 135.007812 80.136719 140.4375 78.3125 147.101562 C 76.953125 151.980469 76.085938 155.546875 75.703125 157.792969 L 72.648438 149.773438 C 71.757812 147.226562 71.3125 142.21875 71.3125 134.753906 C 71.3125 128.769531 71.503906 124.546875 71.882812 122.085938 L 74.9375 109.609375 L 75.195312 109.609375 L 75.957031 100.953125 L 76.339844 103.179688 M 191.324219 143.410156 L 191.261719 143.410156 L 191.453125 143.855469 L 191.324219 143.410156 M 176.753906 297.449219 L 180 291.273438 C 180.296875 293.523438 180.65625 295.324219 181.082031 296.683594 L 177.898438 296.8125 L 176.816406 297.511719 L 176.753906 297.449219 "/>
</g>
</svg>
