<?xml version="1.0" encoding="UTF-8"?>
<svg xmlns="http://www.w3.org/2000/svg" xmlns:xlink="http://www.w3.org/1999/xlink" width="290px" height="542px" viewBox="0 0 290 542" version="1.1">
<g id="surface1">
<path style=" stroke:none;fill-rule:evenodd;fill:rgb(58.039218%,56.078434%,41.176471%);fill-opacity:1;" d="M 172.617188 34.371094 L 172.363281 34.4375 L 172.617188 34.371094 M 186.679688 128.640625 L 185.851562 128.449219 C 185.851562 128.28125 185.917969 128.195312 186.042969 128.195312 L 186.679688 128.195312 L 187.253906 128.257812 L 187 128.707031 L 186.679688 128.640625 M 193.042969 263.265625 L 192.027344 263.839844 L 191.578125 263.648438 L 192.027344 263.394531 L 192.851562 262.949219 L 193.042969 263.265625 M 158.363281 181.027344 L 158.363281 180.964844 L 158.617188 180.964844 L 158.808594 181.027344 L 158.363281 181.027344 M 148.371094 102.035156 L 148.054688 102.097656 L 148.054688 101.90625 L 148.371094 101.589844 L 148.5 101.972656 L 148.371094 102.035156 M 147.925781 84.148438 L 147.863281 84.148438 L 147.863281 83.894531 L 147.925781 83.703125 L 148.246094 84.019531 L 147.925781 84.148438 M 140.480469 39.082031 L 140.101562 38.828125 L 140.480469 38.828125 L 140.480469 39.082031 M 146.84375 27.816406 L 147.355469 27.308594 L 147.289062 27.753906 L 146.84375 27.816406 M 164.917969 79.820312 L 165.425781 79.882812 L 165.425781 80.074219 L 164.917969 80.074219 L 164.917969 79.820312 M 175.480469 57.988281 L 175.417969 57.921875 L 175.480469 57.921875 L 175.480469 57.988281 M 160.589844 16.742188 L 158.554688 16.742188 L 158.554688 16.484375 L 158.746094 16.359375 L 160.589844 16.484375 L 160.589844 16.742188 M 157.980469 36.535156 L 158.046875 36.535156 L 157.980469 36.601562 L 157.980469 36.535156 M 159.125 79.757812 L 158.9375 79.375 L 159 79.3125 L 159.0625 79.375 L 159.125 79.628906 L 159.125 79.757812 M 156.136719 115.65625 L 156.582031 115.71875 L 156.261719 120.941406 L 156.390625 126.796875 L 155.882812 120.941406 L 155.882812 120.875 L 156.136719 115.65625 M 158.171875 141.4375 L 157.726562 141.5625 L 157.664062 141.179688 L 157.535156 139.335938 L 157.34375 137.554688 L 157.664062 139.335938 L 158.046875 141.117188 L 158.171875 141.4375 M 195.207031 130.296875 L 195.269531 130.042969 L 195.335938 129.851562 L 195.90625 129.976562 L 195.84375 130.105469 L 195.269531 130.042969 C 195.992188 130.382812 196.648438 130.785156 197.242188 131.25 C 196.648438 130.871094 195.972656 130.550781 195.207031 130.296875 M 200.042969 134.816406 L 199.597656 134.753906 L 198.835938 132.84375 L 199.914062 134.5625 L 200.042969 134.816406 M 199.789062 136.851562 L 200.105469 137.171875 L 199.980469 137.171875 L 199.789062 136.851562 M 194.445312 169.441406 L 194.761719 169.441406 L 194.445312 169.824219 L 194.445312 169.441406 M 185.535156 250.152344 L 185.726562 250.597656 L 184.960938 251.363281 L 184.898438 251.363281 L 184.707031 250.980469 C 184.707031 250.683594 184.8125 250.492188 185.027344 250.410156 L 184.898438 250.28125 L 185.535156 250.152344 M 117.699219 16.359375 L 117.699219 16.230469 L 117.890625 16.359375 L 117.699219 16.359375 M 100.519531 14.640625 L 100.582031 15.023438 L 100.011719 15.023438 L 99.945312 14.832031 L 100.011719 14.640625 L 100.519531 14.640625 M 98.609375 49.839844 L 98.609375 49.710938 L 98.800781 49.585938 L 98.609375 49.839844 M 105.101562 27.242188 L 105.101562 26.988281 L 105.164062 26.988281 L 105.164062 26.925781 L 105.355469 27.371094 L 105.101562 27.371094 L 105.101562 27.242188 M 45.984375 165.75 L 45.984375 165.496094 L 46.621094 164.730469 L 46.875 164.921875 L 46.304688 165.625 L 46.113281 165.8125 L 45.984375 165.75 M 18.113281 108.527344 L 18.050781 108.398438 L 18.113281 108.210938 L 18.433594 108.335938 L 18.433594 108.398438 L 18.113281 108.527344 M 78.503906 66.390625 L 77.546875 66.960938 L 77.484375 66.960938 L 77.421875 66.898438 L 77.800781 66.644531 L 78.4375 66.199219 L 78.503906 66.390625 M 78.375 89.6875 L 78.628906 89.8125 L 78.4375 90.003906 L 78.25 90.003906 L 78.375 89.6875 M 76.085938 98.851562 L 75.894531 99.171875 L 75.828125 99.105469 L 76.085938 98.851562 M 78.375 65.878906 L 78.4375 66.070312 L 78.058594 66.324219 L 77.867188 66.390625 L 77.800781 66.136719 L 78.375 65.878906 M 161.035156 161.421875 L 160.84375 161.613281 L 160.84375 161.484375 L 161.035156 161.421875 M 162.5625 221.382812 L 162.4375 221.511719 L 162.371094 221.445312 L 162.371094 221.382812 L 162.5625 221.382812 M 187.378906 251.808594 L 187.445312 252.253906 L 186.679688 252.128906 L 186.679688 251.9375 L 187.378906 251.808594 M 207.679688 263.585938 L 207.679688 263.203125 L 207.679688 263.585938 M 184.199219 321.761719 L 184.324219 321.699219 L 184.261719 321.828125 L 184.199219 321.761719 M 241.722656 367.082031 L 241.914062 366.703125 L 242.042969 366.890625 L 241.722656 367.082031 M 180.125 289.871094 L 180.378906 289.554688 L 180.378906 290.128906 L 180.125 289.871094 "/>
<path style=" stroke:none;fill-rule:evenodd;fill:rgb(0%,0%,0%);fill-opacity:1;" d="M 186.808594 43.472656 C 187.65625 44.070312 189.308594 46.019531 191.769531 49.332031 C 194.0625 52.386719 195.269531 54.230469 195.398438 54.867188 C 196.417969 55.589844 197.6875 57.691406 199.214844 61.171875 L 201.886719 67.851562 C 202.820312 71.714844 203.226562 76.128906 203.097656 81.09375 C 203.054688 84.359375 203.308594 88.796875 203.859375 94.394531 C 204.03125 96.050781 205.050781 98.300781 206.914062 101.144531 C 208.699219 103.816406 209.589844 105.917969 209.589844 107.445312 L 207.617188 111.964844 C 207.617188 113.363281 207.953125 115.910156 208.632812 119.601562 C 208.847656 121.683594 209.121094 123.167969 209.460938 124.058594 C 209.757812 124.738281 209.90625 125.777344 209.90625 127.175781 L 209.078125 131.125 C 209.332031 131.207031 209.417969 131.421875 209.332031 131.761719 L 208.378906 141.371094 C 208.378906 145.191406 208.699219 148.863281 209.332031 152.382812 L 210.289062 159.003906 C 211.222656 161 211.941406 168.210938 212.453125 180.644531 C 212.453125 186.203125 211.984375 191.464844 211.050781 196.429688 C 211.050781 198.339844 211.625 200.609375 212.769531 203.242188 C 213.914062 205.832031 214.488281 208.820312 214.488281 212.21875 L 213.660156 216.480469 C 213.066406 218.644531 212.769531 221.066406 212.769531 223.738281 C 212.769531 228.449219 213.277344 232.4375 214.296875 235.703125 L 214.042969 238.824219 L 213.980469 240.160156 L 213.535156 244.679688 C 213.535156 246.503906 213.9375 247.648438 214.742188 248.117188 C 216.3125 249.050781 217.457031 250.003906 218.179688 250.980469 C 220.46875 253.996094 221.613281 256.117188 221.613281 257.347656 C 221.613281 260.742188 218.921875 262.503906 213.535156 262.628906 L 208.761719 263.140625 L 209.398438 264.792969 L 209.96875 265.621094 C 210.734375 266.851562 211.242188 267.976562 211.496094 268.996094 C 212.304688 271.667969 212.980469 273.492188 213.535156 274.46875 C 215.78125 278.628906 217.519531 282.257812 218.75 285.355469 C 219.683594 287.601562 221.445312 291.230469 224.035156 296.238281 L 226.515625 301.777344 C 226.855469 302.582031 228.148438 304.386719 230.398438 307.1875 L 230.078125 307.824219 C 233.429688 313 238.921875 320.214844 246.558594 329.464844 C 250.292969 333.921875 257.441406 341.242188 268.003906 351.425781 L 268.003906 351.808594 C 269.828125 353.800781 273.457031 358.511719 278.886719 365.9375 L 289.320312 380.324219 L 289.894531 381.152344 L 289.894531 381.214844 C 289.894531 381.597656 289.703125 381.808594 289.320312 381.851562 L 289.195312 381.851562 L 289.128906 381.785156 C 279.203125 377.078125 272.648438 374.402344 269.46875 373.765625 L 251.140625 369.757812 C 242.910156 368.015625 237.207031 367.148438 234.023438 367.148438 C 228.976562 367.148438 221.933594 368.800781 212.898438 372.113281 C 203.902344 375.378906 197.941406 377.011719 195.015625 377.011719 L 194.953125 377.011719 L 194.445312 376.820312 C 194.445312 376.523438 194.507812 376.269531 194.632812 376.058594 L 194.316406 373.003906 C 194.105469 369.90625 193.785156 367.867188 193.363281 366.890625 L 192.214844 363.519531 L 191.960938 363.519531 L 191.324219 360.464844 L 190.5 356.898438 C 190.5 356.6875 190.5625 356.515625 190.6875 356.390625 L 189.542969 349.578125 C 187.890625 338.925781 186.363281 331.351562 184.960938 326.855469 L 184.390625 325.074219 C 183.5 324.351562 182.417969 322.1875 181.144531 318.582031 L 177.835938 311.898438 L 178.027344 311.515625 L 175.925781 310.242188 C 172.191406 307.824219 170.242188 305.636719 170.070312 303.683594 C 169.476562 303.558594 168.925781 303.089844 168.417969 302.285156 L 167.71875 300.820312 L 170.390625 296.175781 C 169.796875 295.792969 168.882812 293.945312 167.652344 290.636719 L 164.535156 281.980469 C 161.355469 274.042969 159.761719 269.292969 159.761719 267.722656 L 159.953125 267.277344 L 156.644531 257.347656 C 155.457031 253.738281 153.992188 247.164062 152.253906 237.613281 C 150.726562 229.085938 149.964844 224.246094 149.964844 223.101562 L 149.964844 222.65625 L 150.089844 222.402344 C 149.667969 221.085938 149.199219 218.644531 148.691406 215.082031 L 146.78125 201.332031 C 145.210938 191.234375 144.425781 183.828125 144.425781 179.117188 C 144.425781 173.175781 144.492188 168.699219 144.617188 165.6875 L 146.65625 156.140625 L 146.527344 156.074219 L 146.527344 155.4375 L 147.035156 153.402344 L 146.71875 149.902344 L 146.71875 149.011719 L 146.144531 145.0625 C 146.144531 144.386719 146.359375 144.046875 146.78125 144.046875 L 146.78125 143.917969 L 147.800781 111.644531 L 147.671875 111.644531 L 147.101562 111.457031 L 147.101562 93.695312 C 147.058594 86.609375 146.421875 80.667969 145.191406 75.875 L 142.007812 58.113281 C 140.3125 48.609375 139.464844 42.710938 139.464844 40.417969 L 139.464844 39.589844 L 139.589844 39.273438 L 139.464844 39.210938 L 139.464844 38.765625 L 141.945312 33.671875 C 141.054688 29.769531 140.480469 26.585938 140.226562 24.125 C 139.929688 23.699219 139.738281 23 139.65625 22.023438 L 139.65625 19.476562 C 139.484375 18.628906 139.484375 17.863281 139.65625 17.1875 C 139.953125 15.828125 140.863281 15.148438 142.390625 15.148438 L 142.964844 15.148438 L 148.882812 15.46875 L 152 15.53125 L 155.179688 12.03125 L 155.117188 11.902344 C 155.117188 11.691406 155.308594 11.519531 155.691406 11.394531 L 155.753906 11.332031 L 155.945312 11.332031 L 157.664062 11.203125 L 160.71875 11.394531 L 161.800781 11.203125 C 166.890625 11.203125 169.988281 11.648438 171.089844 12.539062 C 172.449219 13.601562 173.105469 16.570312 173.0625 21.449219 C 173.019531 23.105469 173.445312 26.605469 174.335938 31.953125 L 174.335938 33.734375 L 173.890625 33.734375 L 174.527344 35.074219 C 175.460938 36.640625 176.753906 37.726562 178.40625 38.320312 C 179.808594 38.871094 181.207031 39.632812 182.609375 40.609375 L 186.808594 43.472656 M 172.363281 34.4375 C 172.234375 35.582031 170.625 36.472656 167.527344 37.109375 L 178.597656 51.558594 C 181.609375 48.289062 184.558594 46.488281 187.445312 46.148438 L 185.28125 44.175781 C 183.667969 42.902344 180.550781 41.054688 175.925781 38.636719 C 173.933594 37.617188 172.828125 36.195312 172.617188 34.371094 L 172.363281 34.4375 M 186.363281 127.050781 L 186.617188 127.242188 C 186.703125 127.027344 186.890625 126.921875 187.1875 126.921875 L 187.1875 126.222656 C 187.996094 125.457031 189.160156 124.523438 190.6875 123.421875 L 196.160156 119.601562 L 206.46875 111.265625 L 208.253906 107.253906 C 208.253906 105.640625 207.296875 103.542969 205.386719 100.953125 C 203.480469 98.363281 202.523438 96.113281 202.523438 94.207031 C 201.972656 88.433594 201.71875 84.105469 201.761719 81.21875 C 201.847656 75.28125 201.441406 70.910156 200.550781 68.109375 C 199.660156 65.476562 198.304688 62.613281 196.480469 59.515625 L 194.0625 55.25 L 194.0625 55.1875 L 191.644531 51.6875 L 188.398438 47.230469 C 185.003906 48.925781 182.882812 50.03125 182.035156 50.539062 C 181.101562 51.132812 179.703125 52.578125 177.835938 54.867188 L 175.542969 57.921875 L 175.417969 57.921875 L 175.480469 57.988281 C 173.996094 60.066406 172.871094 61.890625 172.109375 63.460938 C 170.453125 67.027344 168.96875 71.226562 167.652344 76.066406 C 166.761719 79.246094 166.042969 80.839844 165.488281 80.839844 L 164.917969 80.648438 L 164.855469 80.074219 L 165.425781 80.074219 L 165.425781 79.882812 L 164.917969 79.820312 C 165.042969 78.417969 166.042969 75.257812 167.90625 70.335938 L 171.152344 62.316406 L 176.433594 54.105469 L 177.898438 52.320312 C 177.007812 51.726562 173.191406 46.722656 166.445312 37.300781 L 150.917969 38.128906 C 148.457031 38.128906 147.121094 37.683594 146.910156 36.792969 L 147.164062 34.4375 L 147.164062 30.617188 L 147.289062 27.816406 L 147.289062 27.753906 L 147.355469 27.308594 L 146.84375 27.816406 L 146.589844 24.125 L 146.144531 20.304688 L 145.828125 19.351562 C 145.359375 17.949219 144.640625 17.078125 143.664062 16.742188 L 143.28125 16.675781 L 142.582031 16.484375 L 142.328125 16.484375 C 141.605469 16.484375 141.160156 16.996094 140.992188 18.011719 L 140.992188 19.542969 L 141.246094 21.449219 L 141.371094 21.324219 L 141.5 22.789062 L 141.628906 23.742188 L 141.628906 23.933594 L 142.328125 27.625 C 142.964844 30.425781 143.28125 32.527344 143.28125 33.925781 L 140.671875 38.828125 L 140.101562 38.828125 L 140.480469 39.082031 L 140.292969 39.335938 L 142.390625 50.15625 L 145.636719 68.871094 L 147.863281 83.703125 L 147.863281 84.148438 L 147.925781 84.148438 C 148.183594 86.058594 148.308594 90.960938 148.308594 98.851562 L 148.371094 101.589844 L 148.054688 101.90625 L 148.054688 102.097656 L 148.371094 102.035156 L 148.246094 109.546875 C 148.542969 111.328125 148.628906 116.207031 148.5 124.1875 L 148.5 133.988281 L 148.117188 143.917969 L 148.5 152 L 148.5 153.273438 L 148.628906 154.101562 C 148.753906 154.824219 148.585938 155.25 148.117188 155.375 L 147.992188 155.757812 L 145.953125 166.832031 L 145.636719 178.992188 C 145.636719 187.902344 147.523438 202.476562 151.300781 222.71875 L 151.171875 223.292969 C 151.722656 225.117188 152.488281 229.148438 153.464844 235.386719 C 155.117188 245.910156 156.558594 252.953125 157.789062 256.519531 L 161.164062 266.765625 L 161.164062 268.804688 L 167.84375 286.753906 L 170.898438 295.027344 C 172.597656 290.953125 173.378906 286.585938 173.253906 281.917969 C 173.125 278.351562 173.890625 275.167969 175.542969 272.367188 C 177.367188 267.488281 178.875 264.539062 180.0625 263.519531 L 180.125 263.457031 L 180 263.457031 L 179.363281 263.585938 C 177.878906 262.566406 176.859375 262.058594 176.308594 262.058594 L 172.488281 262.503906 C 171.472656 262.84375 170.773438 262.207031 170.390625 260.59375 L 170.390625 258.8125 C 170.390625 257.835938 171.070312 255.796875 172.425781 252.699219 C 173.742188 249.558594 174.398438 247.203125 174.398438 245.632812 L 174.015625 243.726562 L 174.335938 241.75 L 174.207031 241.433594 L 174.460938 240.222656 L 174.460938 239.777344 L 174.527344 239.777344 C 175.375 235.195312 175.796875 232.457031 175.796875 231.566406 C 176.136719 226.6875 175.671875 223.800781 174.398438 222.910156 C 171.8125 221 170.113281 218.136719 169.308594 214.316406 L 168.925781 197.195312 L 168.355469 188.539062 L 168.355469 187.519531 L 167.78125 187.648438 L 167.144531 187.457031 C 166.890625 184.65625 165.933594 179.203125 164.28125 171.097656 L 162.054688 160.023438 L 158.808594 181.027344 L 158.617188 180.964844 L 158.363281 180.964844 L 158.363281 181.15625 L 158.492188 181.472656 L 158.046875 181.28125 L 158.046875 180.199219 L 161.164062 161.484375 L 161.164062 161.421875 C 163.878906 144.535156 165.234375 134.347656 165.234375 130.871094 C 165.234375 130.402344 165.488281 130.167969 166 130.167969 L 166 122.65625 L 166.570312 111.644531 L 166.953125 100.953125 L 166.699219 100.316406 L 166.699219 100.253906 L 166.636719 100.125 L 166.636719 99.933594 L 166.507812 99.742188 C 165.191406 95.839844 164.535156 91.828125 164.535156 87.714844 L 164.535156 84.976562 C 164.664062 83.109375 165.023438 82.175781 165.617188 82.175781 C 165.871094 82.175781 165.957031 84.019531 165.871094 87.714844 C 165.871094 90.34375 166.273438 93.125 167.082031 96.050781 L 168.289062 100.953125 L 167.335938 115.847656 L 167.398438 124.949219 L 167.207031 129.214844 L 168.542969 139.460938 L 170.582031 146.019531 L 170.644531 150.984375 L 170.582031 156.648438 C 170.242188 158.304688 170.070312 160.148438 170.070312 162.1875 L 169.691406 173.324219 L 170.070312 174.40625 L 170.007812 174.851562 L 169.625 175.042969 L 169.691406 178.417969 C 169.730469 184.613281 169.839844 188.433594 170.007812 189.875 C 170.515625 193.863281 170.539062 199.953125 170.070312 208.144531 C 170.070312 213.234375 170.941406 217.140625 172.679688 219.855469 L 175.988281 222.910156 C 176.203125 223.207031 176.371094 224.164062 176.5 225.773438 C 176.542969 228.789062 176.753906 230.71875 177.136719 231.566406 C 176.667969 236.066406 176.203125 239.121094 175.734375 240.734375 L 175.351562 243.726562 L 175.734375 245.761719 C 175.734375 247.289062 174.398438 251.257812 171.726562 257.664062 L 171.726562 259.957031 C 173.167969 260.082031 175.523438 260.761719 178.789062 261.992188 C 181.84375 263.097656 184.070312 263.648438 185.472656 263.648438 L 192.027344 263.394531 L 191.578125 263.648438 L 192.027344 263.839844 L 193.042969 263.265625 C 193.933594 263.097656 194.421875 262.882812 194.507812 262.628906 L 211.816406 261.484375 C 214.785156 261.484375 217.054688 260.933594 218.625 259.828125 C 219.8125 259.023438 220.40625 258.175781 220.40625 257.28125 C 220.40625 256.5625 219.75 255.414062 218.433594 253.84375 L 215.824219 250.789062 C 213.789062 249.304688 212.644531 248.246094 212.386719 247.609375 L 212.261719 244.550781 L 213.089844 239.460938 C 212.75 239.289062 212.621094 238.675781 212.707031 237.613281 L 212.960938 235.703125 C 211.941406 231.671875 211.433594 227.601562 211.433594 223.484375 C 211.433594 220.640625 211.730469 218.199219 212.324219 216.164062 L 213.152344 212.089844 C 213.152344 208.652344 212.578125 205.832031 211.433594 203.625 C 210.289062 201.375 209.714844 198.976562 209.714844 196.429688 C 210.648438 190.617188 211.117188 185.355469 211.117188 180.644531 C 211.117188 176.105469 210.777344 171.5 210.097656 166.832031 L 209.015625 159.894531 L 209.078125 159.195312 C 208.1875 155.503906 207.699219 152.828125 207.617188 151.175781 L 207.042969 141.054688 L 207.042969 135.898438 L 207.296875 133.605469 L 207.042969 133.160156 C 208.0625 130.359375 208.570312 128.367188 208.570312 127.175781 C 207.976562 125.054688 207.59375 122.425781 207.425781 119.285156 L 206.46875 113.429688 C 204.347656 116.101562 197.941406 121.046875 187.253906 128.257812 L 186.679688 128.195312 L 186.042969 128.195312 C 185.917969 128.195312 185.851562 128.28125 185.851562 128.449219 L 186.679688 128.640625 L 186.425781 128.769531 C 185.957031 128.769531 185.726562 128.535156 185.726562 128.070312 C 185.726562 127.8125 185.9375 127.472656 186.363281 127.050781 M 159.125 36.535156 C 161.671875 36.535156 164.28125 35.921875 166.953125 34.691406 L 167.082031 34.691406 L 168.097656 34.625 L 170.007812 33.863281 L 172.933594 32.527344 L 171.917969 22.660156 C 171.40625 20.113281 171.152344 18.183594 171.152344 16.867188 L 171.027344 14.003906 C 170.773438 13.195312 169.097656 12.75 166 12.667969 L 161.542969 12.859375 L 160.910156 12.859375 L 156.328125 12.601562 L 154.671875 14.703125 L 153.910156 15.53125 L 166.191406 14.578125 C 166.828125 14.578125 167.144531 14.832031 167.144531 15.339844 L 162.882812 16.230469 L 160.652344 16.484375 L 160.589844 16.484375 L 158.746094 16.359375 L 158.554688 16.484375 L 158.554688 16.675781 L 152.128906 16.929688 L 150.917969 16.929688 L 150.34375 17.058594 L 146.210938 16.867188 L 147.164062 18.648438 L 147.164062 18.140625 C 147.800781 20.179688 148.222656 22.957031 148.4375 26.480469 L 148.246094 26.605469 L 148.5625 30.296875 C 148.5625 33.652344 148.710938 35.816406 149.007812 36.792969 L 156.964844 36.601562 L 157.027344 36.601562 L 157.980469 36.535156 L 157.980469 36.601562 L 158.046875 36.792969 L 158.109375 36.792969 L 158.9375 36.535156 L 159.125 36.535156 M 156.074219 33.097656 L 154.863281 34.5 L 154.417969 34.945312 C 153.527344 35.75 152.828125 36.15625 152.316406 36.15625 C 151.425781 36.15625 150.75 35.539062 150.28125 34.308594 L 149.835938 32.398438 C 149.835938 30.703125 150.683594 29.851562 152.382812 29.851562 C 153.1875 29.851562 153.910156 30.128906 154.546875 30.679688 L 154.609375 30.679688 C 155.328125 30.679688 155.691406 31.210938 155.691406 32.273438 L 156.074219 33.097656 M 152.0625 31.191406 C 151.640625 31.191406 151.363281 31.378906 151.234375 31.761719 L 151.109375 32.335938 L 151.554688 33.734375 L 152.0625 34.625 L 154.355469 32.527344 L 153.527344 31.570312 L 152.0625 31.191406 M 157.027344 36.089844 L 157.152344 36.15625 L 156.964844 36.15625 L 157.027344 36.089844 M 159.0625 79.3125 L 158.363281 74.535156 L 154.546875 51.175781 C 154.546875 50.582031 154.757812 50.285156 155.179688 50.285156 C 155.691406 50.285156 157.152344 58.179688 159.570312 73.964844 L 161.480469 85.804688 L 162.5625 91.722656 C 162.816406 93.039062 163.601562 94.949219 164.917969 97.453125 L 164.855469 97.769531 L 164.726562 97.707031 L 164.472656 97.707031 L 164.472656 97.832031 L 164.597656 98.023438 L 164.152344 98.089844 C 162.839844 98.089844 161.628906 95.054688 160.527344 88.984375 L 159.890625 85.039062 L 159.953125 84.847656 L 159.890625 84.148438 L 159.761719 84.148438 L 159.125 79.757812 L 159.125 79.628906 L 159.0625 79.375 L 159.0625 79.3125 M 178.789062 177.910156 L 178.789062 178.035156 L 178.980469 178.226562 L 179.363281 178.289062 L 184.707031 184.972656 C 185.257812 185.695312 188.378906 187.878906 194.0625 191.53125 L 193.742188 192.230469 L 193.550781 192.167969 L 193.296875 192.230469 C 190.539062 192.101562 187.230469 189.855469 183.371094 185.484375 C 179.933594 181.578125 178.21875 179.265625 178.21875 178.542969 C 178.21875 178.164062 178.40625 177.949219 178.789062 177.910156 M 185.726562 250.597656 L 189.605469 250.855469 C 196.394531 250.855469 203.183594 249.625 209.96875 247.164062 C 210.5625 247.164062 210.820312 247.394531 210.734375 247.863281 C 210.734375 248.371094 208.105469 249.199219 202.84375 250.34375 L 192.152344 252.0625 L 187.445312 251.808594 L 187.378906 251.808594 L 186.679688 251.9375 L 186.679688 252.0625 C 185.621094 251.9375 185.046875 251.703125 184.960938 251.363281 L 185.726562 250.597656 M 117.128906 14.066406 C 117.425781 14.066406 117.636719 14.214844 117.765625 14.511719 L 119.355469 15.847656 C 120.246094 16.910156 120.714844 17.824219 120.753906 18.585938 L 120.945312 22.660156 C 120.945312 27.496094 119.738281 30.128906 117.320312 30.554688 L 117.320312 33.671875 L 118.59375 36.34375 C 118.761719 36.683594 118.847656 37.300781 118.847656 38.191406 L 118.527344 39.527344 L 117.890625 39.527344 L 110.574219 45.128906 L 99.945312 53.023438 C 96.636719 55.867188 92.90625 60.746094 88.746094 67.664062 C 88.195312 68.636719 86.222656 73.496094 82.828125 82.238281 L 78.183594 95.03125 C 78.183594 95.964844 77.992188 96.667969 77.613281 97.132812 C 77.144531 97.683594 76.847656 98.746094 76.722656 100.316406 L 76.464844 105.34375 L 76.464844 107.191406 C 76.890625 107.191406 77.738281 108.738281 79.011719 111.835938 C 80.285156 115.0625 81.046875 117.714844 81.300781 119.792969 C 81.640625 122.296875 81.8125 126.5 81.8125 132.398438 L 81.8125 139.527344 L 80.476562 146.527344 C 78.734375 153.910156 77.421875 158.347656 76.53125 159.832031 L 76.847656 176.761719 C 76.847656 181.429688 77.292969 188.476562 78.183594 197.894531 C 78.3125 204.726562 78.925781 218.390625 80.03125 238.886719 C 80.496094 239.863281 80.582031 241.859375 80.285156 244.871094 L 80.285156 294.203125 L 80.539062 304.386719 L 80.539062 309.859375 C 80.921875 310.070312 81.046875 310.792969 80.921875 312.023438 L 80.539062 316.925781 C 80.539062 318.410156 82.003906 327.429688 84.929688 343.976562 C 87.6875 359.464844 89.152344 368.695312 89.320312 371.667969 L 89.511719 372.367188 C 90.488281 373.003906 90.976562 376.144531 90.976562 381.785156 L 91.230469 391.015625 C 91.230469 391.867188 89.871094 392.3125 87.15625 392.351562 L 76.085938 394.582031 C 68.066406 397.382812 57.226562 398.78125 43.566406 398.78125 L 30.460938 398.464844 L 26.324219 398.082031 L 25.878906 397.765625 C 25.496094 397.59375 25.367188 397.0625 25.496094 396.171875 C 28.847656 379.621094 30.945312 368.527344 31.796875 362.882812 C 34.636719 342.132812 36.695312 331.160156 37.96875 329.972656 C 38.09375 327.214844 38.902344 321.273438 40.386719 312.152344 L 43.820312 293.566406 C 45.347656 285.164062 46.367188 278.925781 46.875 274.851562 C 47.386719 264.453125 48.105469 258.429688 49.039062 256.773438 C 49.464844 253.335938 50.714844 246.207031 52.792969 235.386719 L 54.832031 223.867188 C 55.59375 219.324219 56.507812 215.441406 57.566406 212.21875 C 58.5 209.417969 59.433594 205.597656 60.367188 200.757812 C 61.554688 194.648438 62.359375 190.765625 62.785156 189.109375 L 65.074219 177.460938 L 66.285156 168.550781 L 66.15625 168.488281 L 66.15625 168.296875 L 64.628906 169.378906 L 59.730469 172.496094 C 57.949219 173.769531 54.726562 177.1875 50.058594 182.746094 C 46.367188 187.117188 43.503906 189.300781 41.46875 189.300781 C 37.988281 189.300781 35.273438 185.484375 33.324219 177.84375 C 33.324219 175.042969 32.898438 171.289062 32.050781 166.578125 C 31.835938 165.136719 30.96875 163.246094 29.441406 160.914062 L 25.878906 155.183594 C 24.351562 152.214844 22.3125 149.625 19.769531 147.417969 C 17.730469 145.59375 16.714844 144.46875 16.714844 144.046875 L 17.03125 143.472656 L 7.933594 134.304688 C 5.597656 131.71875 4.199219 129.851562 3.734375 128.707031 C 3.4375 127.941406 3.289062 126.351562 3.289062 123.929688 C 3.289062 122.320312 3.457031 120.726562 3.796875 119.15625 C 4.222656 117.121094 4.519531 115.230469 4.6875 113.492188 L 6.214844 108.210938 C 6.34375 107.574219 6.828125 106.765625 7.679688 105.789062 L 9.839844 103.179688 L 19.003906 92.742188 L 22.949219 86.949219 C 25.027344 84.148438 26.832031 82.707031 28.359375 82.621094 L 30.96875 80.011719 C 32.917969 78.269531 34.085938 76.976562 34.46875 76.128906 C 36.207031 74.304688 37.226562 73.007812 37.523438 72.246094 L 38.09375 70.207031 C 38.308594 69.105469 38.753906 68.597656 39.429688 68.679688 L 45.347656 69.191406 C 51.925781 65.328125 56.316406 62.402344 58.523438 60.40625 C 60.855469 58.410156 63.210938 57.136719 65.585938 56.585938 C 66.859375 56.246094 68.363281 55.441406 70.101562 54.167969 C 71.546875 53.105469 72.585938 52.535156 73.222656 52.449219 L 77.039062 47.355469 L 82.003906 41.308594 C 84.464844 38.171875 86.882812 36.28125 89.257812 35.644531 C 90.742188 35.261719 92.332031 34.5 94.03125 33.355469 C 95.851562 32.125 97.191406 31.359375 98.039062 31.0625 L 97.65625 29.851562 C 97.65625 29.429688 97.890625 29.195312 98.355469 29.152344 L 98.164062 28.578125 C 97.570312 26.289062 97.273438 24.316406 97.273438 22.660156 C 97.273438 14.34375 100.902344 10.183594 108.15625 10.183594 L 108.792969 10.246094 L 108.917969 10.246094 L 108.792969 10.121094 C 108.792969 9.652344 109.046875 9.421875 109.554688 9.421875 C 110.574219 9.421875 112.714844 10.84375 115.984375 13.683594 L 115.984375 13.75 L 116.683594 14.257812 C 116.808594 14.128906 116.957031 14.066406 117.128906 14.066406 M 117.890625 16.359375 L 117.699219 16.230469 L 117.699219 16.359375 L 116.746094 23.234375 L 116.621094 29.214844 L 117.445312 28.835938 C 118.550781 28.410156 119.144531 27.625 119.226562 26.480469 L 119.609375 22.597656 L 119.417969 18.777344 C 119.375 18.054688 118.867188 17.25 117.890625 16.359375 M 103.191406 14.832031 L 112.992188 14.066406 L 113.4375 14.128906 C 113.648438 13.917969 113.902344 13.769531 114.203125 13.683594 L 109.9375 10.882812 L 108.730469 10.949219 C 107.074219 10.949219 104.972656 11.710938 102.429688 13.238281 L 100.519531 14.640625 L 100.011719 14.640625 L 99.945312 14.832031 L 100.011719 15.023438 L 100.136719 15.023438 L 99.375 16.359375 L 98.609375 22.660156 C 98.609375 26.226562 98.992188 28.621094 99.757812 29.851562 C 100.265625 30.703125 101.175781 31.488281 102.492188 32.207031 L 102.621094 32.273438 L 102.875 32.398438 L 105.800781 33.542969 C 107.160156 33.96875 108.175781 34.351562 108.855469 34.691406 C 109.660156 30.148438 110.066406 26.691406 110.066406 24.316406 C 110.066406 22.320312 110.445312 20.179688 111.210938 17.886719 L 112.292969 15.53125 L 105.230469 15.914062 L 104.527344 15.785156 L 104.402344 15.914062 L 104.339844 15.914062 C 103.320312 15.828125 102.8125 15.617188 102.8125 15.277344 L 102.8125 15.214844 L 103.382812 15.148438 L 103.191406 14.894531 L 103.191406 14.832031 M 98.675781 49.96875 L 98.800781 49.902344 L 98.929688 49.839844 L 99.566406 51.496094 C 102.535156 48.820312 108.472656 44.492188 117.382812 38.507812 L 117.511719 38.128906 C 116.363281 34.988281 115.792969 32.886719 115.792969 31.828125 L 115.792969 31.191406 C 115.578125 30.722656 115.453125 29.640625 115.410156 27.945312 L 115.410156 19.160156 C 115.496094 17.589844 115.664062 16.402344 115.917969 15.59375 L 115.027344 14.957031 C 112.527344 17.714844 111.316406 21.28125 111.402344 25.652344 C 111.484375 27.519531 111.359375 29.640625 111.019531 32.015625 L 110.257812 35.453125 L 109.746094 35.261719 L 109.300781 36.15625 L 109.109375 36.15625 C 107.667969 36.15625 105.714844 35.519531 103.257812 34.246094 L 102.367188 33.800781 C 99.054688 37.703125 96.785156 40.058594 95.554688 40.863281 L 94.984375 41.4375 L 93.839844 42.519531 C 95.875 44.089844 97.527344 46.445312 98.800781 49.585938 L 98.609375 49.710938 L 98.609375 49.839844 L 98.675781 49.96875 M 105.355469 27.371094 L 105.675781 27.179688 L 105.863281 27.179688 C 107.519531 27.308594 108.472656 28.621094 108.730469 31.125 C 108.730469 32.3125 108.027344 32.910156 106.628906 32.910156 C 105.695312 32.910156 104.933594 32.355469 104.339844 31.253906 L 104.082031 30.554688 L 104.148438 30.234375 L 103.957031 29.917969 L 103.890625 29.980469 L 103.765625 29.535156 L 103.890625 28.324219 C 104.105469 27.730469 104.507812 27.371094 105.101562 27.242188 L 105.101562 27.371094 L 105.355469 27.371094 M 105.675781 30.554688 L 106.691406 31.378906 L 107.390625 31 C 106.417969 29.386719 105.800781 28.578125 105.546875 28.578125 C 105.164062 28.578125 104.972656 28.878906 104.972656 29.472656 C 104.972656 29.640625 105.207031 30 105.675781 30.554688 M 99.4375 34.753906 C 100.074219 33.777344 100.667969 33.207031 101.21875 33.035156 L 99.375 31.445312 C 99.078125 32.546875 96.808594 34.140625 92.566406 36.21875 C 89.765625 37.617188 87.582031 38.828125 86.011719 39.847656 C 88.597656 39.890625 90.867188 40.523438 92.820312 41.757812 L 94.21875 40.417969 L 94.921875 39.78125 L 95.554688 39.210938 L 98.230469 36.726562 L 99.4375 34.753906 M 78.3125 89.6875 C 79.160156 87.226562 80.328125 84.128906 81.8125 80.394531 C 84.949219 72.457031 86.882812 67.960938 87.601562 66.898438 C 92.988281 59.175781 96.636719 54.339844 98.546875 52.386719 C 97.785156 51.792969 96.660156 49.753906 95.175781 46.273438 C 94.582031 44.789062 93.753906 43.773438 92.691406 43.21875 C 91.589844 42.539062 90.402344 42.054688 89.128906 41.757812 L 84.167969 41.183594 L 83.148438 42.074219 L 74.046875 53.339844 C 73.667969 54.867188 69.085938 57.160156 60.304688 60.214844 L 55.085938 63.96875 C 52.328125 65.710938 50.375 67.195312 49.230469 68.425781 C 48 69.742188 46.007812 70.355469 43.25 70.273438 C 40.832031 70.144531 39.453125 70.613281 39.113281 71.671875 C 38.816406 72.734375 37.902344 74.132812 36.378906 75.875 L 32.496094 80.964844 C 30.96875 82.789062 29.675781 83.808594 28.613281 84.019531 L 26.257812 86.121094 C 23.839844 88.496094 21.804688 90.9375 20.152344 93.441406 L 11.179688 103.753906 C 8.886719 106.46875 7.679688 108.082031 7.550781 108.589844 L 6.023438 113.746094 C 5.597656 117.566406 5.132812 120.960938 4.625 123.929688 C 4.625 126.308594 4.792969 127.835938 5.132812 128.515625 L 9.585938 134.117188 L 14.488281 138.761719 C 17.582031 141.648438 19.132812 143.367188 19.132812 143.917969 L 19.132812 144.171875 L 22.1875 147.546875 C 24.308594 150.132812 25.917969 152.46875 27.023438 154.546875 L 30.460938 160.023438 C 31.984375 162.441406 32.941406 164.328125 33.324219 165.6875 L 34.660156 176.890625 C 34.914062 179.179688 35.78125 181.535156 37.269531 183.957031 C 38.796875 186.542969 40.28125 187.839844 41.722656 187.839844 C 43.335938 187.839844 45.050781 186.796875 46.875 184.71875 L 50.503906 179.816406 C 51.734375 178.246094 53.175781 176.679688 54.832031 175.109375 L 55.023438 174.917969 L 55.085938 174.980469 L 55.277344 174.789062 L 55.277344 174.664062 L 55.402344 174.535156 L 58.523438 171.796875 L 66.03125 166.515625 L 66.03125 166.070312 L 68.066406 151.367188 L 67.492188 149.964844 L 65.777344 143.917969 L 61.574219 137.933594 C 59.964844 134.921875 59.15625 132.90625 59.15625 131.886719 L 59.222656 131.824219 L 57.628906 128.257812 L 54.578125 120.75 L 52.222656 117.566406 C 51.796875 116.886719 50.78125 116.546875 49.167969 116.546875 L 36.441406 116.164062 L 34.660156 115.59375 C 28.550781 114.574219 25.496094 113.429688 25.496094 112.15625 C 25.496094 111.644531 25.707031 111.390625 26.132812 111.390625 C 29.398438 113.386719 33.132812 114.59375 37.332031 115.019531 L 50.121094 115.402344 L 52.222656 115.785156 L 61.257812 103.371094 L 65.332031 96.371094 C 66.6875 94.121094 67.8125 92.636719 68.703125 91.914062 L 68.703125 90.960938 C 68.832031 89.472656 68.808594 88.582031 68.640625 88.285156 C 67.875 86.886719 67.492188 85.421875 67.492188 83.894531 C 67.492188 82.410156 68.238281 80.097656 69.722656 76.957031 C 70.992188 74.28125 72.222656 72.097656 73.410156 70.398438 L 73.792969 69.890625 L 73.667969 69.828125 L 73.667969 69 L 76.464844 59.261719 L 76.464844 59.070312 L 76.53125 58.941406 L 77.292969 54.933594 C 77.761719 54.933594 77.992188 55.230469 77.992188 55.824219 L 77.613281 59.898438 L 76.910156 63.714844 L 76.210938 66.707031 L 83.402344 57.160156 C 83.867188 57.160156 84.101562 57.394531 84.101562 57.859375 L 83.53125 58.816406 L 78.375 65.878906 L 77.800781 66.136719 L 77.867188 66.390625 L 78.058594 66.324219 L 77.800781 66.644531 L 77.421875 66.898438 L 77.484375 66.960938 L 77.546875 66.960938 L 76.464844 68.363281 C 73.328125 72.480469 71.164062 76.023438 69.976562 78.992188 C 69.722656 78.992188 69.59375 79.183594 69.59375 79.566406 L 69.65625 79.882812 C 69.105469 81.367188 68.832031 82.683594 68.832031 83.832031 C 68.832031 85.144531 69.0625 86.292969 69.53125 87.265625 C 69.996094 88.285156 70.230469 89.175781 70.230469 89.941406 L 70.230469 90.703125 L 70.167969 90.640625 C 69.953125 90.640625 69.828125 90.703125 69.785156 90.832031 L 70.167969 91.40625 L 70.167969 91.46875 L 70.359375 91.851562 L 70.359375 92.167969 L 69.847656 92.933594 C 69.933594 94.164062 70.464844 95.777344 71.4375 97.769531 C 72.5 99.933594 73.03125 101.546875 73.03125 102.609375 C 73.03125 103.5 72.859375 103.945312 72.519531 103.945312 C 72.097656 103.945312 71.417969 102.375 70.484375 99.234375 L 71.695312 117.628906 L 71.3125 124.886719 L 71.183594 125.839844 L 71.183594 125.90625 L 69.210938 139.335938 L 69.53125 144.808594 C 69.742188 144.9375 69.785156 145.253906 69.65625 145.765625 L 69.339844 150.601562 L 69.402344 150.664062 C 69.0625 151.089844 68.894531 151.9375 68.894531 153.210938 L 68.894531 153.976562 L 68.386719 157.730469 L 67.621094 163.394531 C 67.410156 163.609375 67.304688 164.011719 67.304688 164.605469 L 67.621094 167.085938 L 67.558594 167.152344 L 67.558594 170.207031 C 67.558594 172.242188 66.15625 179.628906 63.359375 192.359375 L 58.011719 215.082031 C 56.867188 219.410156 55.253906 228.492188 53.175781 242.324219 C 51.859375 251.195312 50.863281 256.605469 50.1875 258.554688 C 50.058594 261.484375 49.359375 267.445312 48.085938 276.441406 L 44.96875 294.902344 L 41.53125 313.296875 L 40.195312 324.5625 C 39.726562 328.46875 39.261719 330.738281 38.796875 331.375 C 38.457031 334.132812 36.441406 345.144531 32.75 364.410156 C 29.949219 383.125 27.957031 393.988281 26.769531 397 C 28.675781 397.296875 34.277344 397.445312 43.566406 397.445312 L 50.566406 397.253906 L 50.820312 397.191406 L 50.949219 397.253906 L 51.011719 397.191406 C 58.097656 396.679688 65.882812 395.472656 74.367188 393.5625 L 81.9375 391.90625 C 82.789062 391.144531 85.417969 390.761719 89.828125 390.761719 L 88.558594 375.101562 C 88.046875 373.789062 87.792969 372.238281 87.792969 370.457031 L 87.792969 370.394531 L 86.394531 362.5625 C 85.246094 355.691406 84.421875 349.832031 83.910156 344.996094 C 80.773438 329.378906 79.203125 320.023438 79.203125 316.925781 L 79.839844 312.722656 L 79.328125 312.46875 C 79.457031 304.492188 79.328125 298.507812 78.949219 294.519531 L 78.949219 244.871094 C 78.695312 242.410156 78.566406 240.5 78.566406 239.140625 C 78.566406 238.71875 78.652344 238.441406 78.820312 238.316406 L 78.3125 232.902344 C 77.929688 228.195312 77.761719 224.121094 77.800781 220.683594 C 77.292969 211.855469 76.996094 205.214844 76.910156 200.757812 C 75.722656 183.53125 75.128906 170.25 75.128906 160.914062 L 75.128906 158.238281 L 75.257812 157.03125 L 75.195312 157.03125 L 74.9375 156.964844 L 75.320312 155.183594 L 75.195312 154.675781 L 75.195312 115.210938 C 75.109375 111.136719 75.152344 107.59375 75.320312 104.582031 L 75.828125 99.105469 L 75.894531 99.171875 L 76.085938 98.851562 L 75.894531 98.660156 C 76.148438 96.792969 76.464844 95.519531 76.847656 94.84375 L 78.25 90.003906 L 78.4375 90.003906 L 78.628906 89.8125 L 78.375 89.6875 L 78.3125 89.6875 M 47.765625 166.578125 L 46.050781 167.277344 C 41.765625 168.976562 39.070312 169.824219 37.96875 169.824219 C 37.417969 169.824219 37.140625 169.589844 37.140625 169.125 L 45.984375 165.75 L 46.113281 165.8125 L 46.304688 165.625 L 46.6875 165.433594 L 46.875 166.003906 L 47.132812 165.8125 L 47.132812 165.625 L 47.320312 165.433594 L 47.449219 165.113281 C 50.335938 163.925781 52.308594 163.015625 53.367188 162.378906 L 60.683594 157.285156 C 63.570312 155.25 65.457031 154.230469 66.347656 154.230469 C 66.816406 154.230469 67.007812 154.464844 66.921875 154.929688 C 66.921875 155.566406 65.265625 156.902344 61.957031 158.941406 L 54.894531 163.140625 C 53.578125 163.988281 51.394531 165.050781 48.339844 166.324219 L 48.023438 166.195312 L 47.703125 166.195312 L 47.765625 166.578125 M 70.359375 98.789062 L 69.085938 94.207031 C 59.453125 108.972656 54.089844 116.355469 52.984375 116.355469 L 52.730469 116.355469 L 53.941406 117.3125 L 55.914062 120.367188 C 59.5625 127.285156 61.386719 131.292969 61.386719 132.398438 L 61.128906 133.035156 L 61.957031 134.816406 C 63.484375 138.167969 65.203125 141.074219 67.113281 143.535156 L 68.003906 146.402344 L 68.066406 143.855469 L 67.875 139.269531 C 67.875 138.125 68.300781 134.941406 69.148438 129.722656 C 69.953125 124.503906 70.359375 120.453125 70.359375 117.566406 C 69.976562 109.628906 69.785156 103.816406 69.785156 100.125 L 69.785156 99.425781 C 69.828125 99.042969 70.019531 98.832031 70.359375 98.789062 M 40.257812 98.214844 L 52.667969 113.109375 C 52.667969 113.535156 52.390625 113.746094 51.839844 113.746094 C 50.226562 113.746094 46.15625 108.761719 39.621094 98.789062 C 39.621094 98.40625 39.835938 98.214844 40.257812 98.214844 M 76.53125 115.59375 L 76.53125 155.375 L 77.929688 150.285156 C 79.667969 144.003906 80.539062 138.019531 80.539062 132.332031 C 80.539062 127.324219 80.347656 123.273438 79.964844 120.175781 L 76.464844 110.5 L 76.53125 115.59375 M 76.085938 156.394531 L 76.148438 156.710938 L 76.402344 155.820312 L 76.085938 156.394531 M 166.382812 135.707031 L 165.234375 142.835938 L 162.5625 157.09375 L 162.308594 158.304688 L 162.5625 158.238281 C 163.582031 158.238281 164.597656 162.992188 165.617188 172.496094 C 165.746094 173.898438 166.65625 178.394531 168.355469 185.992188 L 168.289062 180.007812 L 168.289062 175.746094 L 168.542969 172.308594 L 168.734375 162.058594 C 168.734375 160.828125 168.863281 158.984375 169.117188 156.519531 L 169.308594 150.984375 C 169.308594 146.996094 168.800781 143.789062 167.78125 141.371094 C 167.058594 139.71875 166.59375 137.828125 166.382812 135.707031 M 241.914062 366.703125 C 248.234375 367.804688 257.800781 369.800781 270.613281 372.683594 C 273.496094 373.363281 277.292969 374.65625 282.003906 376.566406 C 283.996094 377.375 285.609375 378.117188 286.839844 378.796875 L 266.03125 351.359375 L 266.03125 351.234375 L 257.757812 343.339844 C 252.542969 337.953125 248.382812 333.453125 245.285156 329.847656 C 241.085938 324.882812 235.421875 317.5 228.296875 307.695312 L 228.167969 307.503906 L 228.167969 306.996094 C 226.980469 305.679688 225.453125 303.089844 223.585938 299.230469 L 217.605469 286.117188 L 212.199219 275.105469 C 211.265625 273.492188 210.5625 271.648438 210.097656 269.566406 L 207.617188 265.304688 L 207.105469 264.222656 C 207.105469 263.839844 207.296875 263.625 207.679688 263.585938 L 207.679688 263.203125 L 199.597656 263.964844 L 199.597656 264.15625 L 199.089844 269.824219 C 199.089844 270.839844 199.449219 272.792969 200.171875 275.679688 C 200.847656 278.5625 201.1875 281.957031 201.1875 285.863281 L 201.0625 294.648438 C 200.808594 297.449219 200.128906 299.886719 199.023438 301.96875 C 196.988281 309.476562 194.316406 313.234375 191.007812 313.234375 L 189.097656 313.042969 C 188.886719 313.722656 187.929688 314.0625 186.234375 314.0625 C 184.070312 314.0625 181.714844 313.425781 179.171875 312.152344 L 184.199219 321.761719 L 184.261719 321.828125 L 184.835938 322.910156 L 185.027344 322.910156 L 185.472656 324.246094 L 185.660156 324.5625 L 185.660156 324.691406 L 186.109375 325.898438 C 186.742188 327.554688 187.972656 333.515625 189.796875 343.785156 L 191.960938 356.835938 C 192.640625 357.894531 193.382812 360.464844 194.1875 364.539062 L 195.652344 372.9375 L 195.714844 375.230469 L 197.179688 374.914062 L 199.851562 375.101562 L 203.414062 373.832031 C 207.699219 372.21875 210.820312 371.199219 212.769531 370.773438 L 219.640625 368.101562 C 224.351562 366.53125 229.167969 365.746094 234.085938 365.746094 L 240.832031 366.511719 L 241.722656 367.082031 L 242.042969 366.890625 L 241.914062 366.703125 M 199.023438 264.15625 L 199.023438 264.03125 L 198.199219 264.09375 L 194.1875 263.964844 L 186.109375 264.285156 L 184.898438 264.601562 L 181.207031 264.03125 L 180.699219 263.710938 C 180.402344 264.941406 178.8125 267.957031 175.925781 272.75 C 174.144531 276.484375 173.378906 279.605469 173.636719 282.105469 C 173.761719 283.253906 173.65625 284.78125 173.316406 286.691406 L 172.488281 291.464844 C 172.363281 292.523438 171.894531 293.863281 171.089844 295.472656 L 171.152344 295.664062 C 171.152344 296.046875 170.984375 296.238281 170.644531 296.238281 L 168.097656 300.820312 L 170.960938 303.496094 L 170.644531 303.621094 C 171.664062 305.617188 173.125 307.484375 175.035156 309.222656 L 178.089844 311.449219 L 178.726562 311.324219 L 179.109375 311.960938 C 181.3125 313.0625 183.6875 313.617188 186.234375 313.617188 C 187.675781 313.617188 188.546875 313.402344 188.84375 312.980469 L 188.78125 312.851562 L 188.78125 312.660156 L 190.054688 312.722656 C 193.742188 312.722656 196.5 309.285156 198.324219 302.414062 L 198.261719 302.285156 L 198.453125 301.777344 L 198.835938 300.058594 L 199.023438 300.058594 L 200.550781 294.136719 L 200.808594 285.925781 C 200.808594 282.066406 200.445312 278.710938 199.726562 275.871094 C 199.003906 273.027344 198.644531 271.03125 198.644531 269.886719 C 198.644531 267.425781 198.769531 265.515625 199.023438 264.15625 M 180.890625 288.980469 L 180.761719 289.171875 L 182.417969 297.765625 L 182.417969 297.828125 L 181.90625 297.957031 L 179.296875 297.191406 C 177.558594 297.191406 176.691406 298.105469 176.691406 299.929688 L 177.007812 301.902344 L 177.070312 301.96875 L 177.070312 302.15625 L 176.878906 302.347656 L 176.753906 302.15625 C 176.203125 302.15625 175.777344 301.796875 175.480469 301.074219 L 175.164062 299.929688 C 175.164062 298.699219 175.925781 296.578125 177.453125 293.566406 C 178.683594 291.1875 179.660156 289.746094 180.378906 289.238281 L 180.378906 288.789062 L 180.699219 288.789062 L 180.761719 289.046875 L 180.890625 288.980469 M 180.378906 290.128906 L 180.378906 289.554688 L 180.125 289.871094 L 180.125 289.9375 C 179.445312 290.871094 178.664062 292.226562 177.769531 294.011719 C 176.285156 296.8125 175.542969 298.785156 175.542969 299.929688 C 175.542969 300.566406 175.863281 301.097656 176.5 301.519531 C 176.371094 301.097656 176.308594 300.546875 176.308594 299.867188 C 176.308594 299.230469 176.433594 298.65625 176.691406 298.148438 C 177.15625 297.128906 178.027344 296.621094 179.296875 296.621094 C 180.0625 296.621094 180.527344 296.746094 180.699219 297.003906 L 181.652344 297.066406 L 180.378906 290.128906 M 96.511719 391.269531 L 96.511719 390.761719 L 96.511719 391.269531 "/>
<path style=" stroke:none;fill-rule:evenodd;fill:rgb(81.176472%,77.254903%,63.137257%);fill-opacity:1;" d="M 166.636719 100.125 L 166.699219 100.253906 L 166.636719 100.1875 L 166.636719 100.125 M 161.164062 161.421875 L 161.164062 161.484375 L 161.035156 161.421875 L 161.164062 161.421875 M 158.9375 36.535156 L 159.0625 36.472656 L 159.125 36.535156 L 158.9375 36.535156 M 160.082031 55.503906 L 159.890625 55.503906 L 160.082031 55.503906 M 159.0625 79.375 L 159 79.3125 L 159.0625 79.3125 L 159.0625 79.375 M 149.074219 83.511719 L 148.945312 83.574219 L 149.007812 83.320312 L 149.074219 83.511719 M 148.246094 84.019531 L 148.246094 84.085938 L 148.246094 84.019531 M 159.761719 84.148438 L 159.570312 84.148438 L 159.761719 84.148438 M 156.453125 108.464844 L 156.390625 108.972656 L 156.328125 108.527344 L 156.453125 108.464844 M 157.855469 139.335938 L 158.171875 141.4375 L 158.046875 141.117188 L 157.664062 139.335938 L 157.855469 139.335938 M 195.335938 129.851562 L 195.460938 129.722656 L 195.90625 129.976562 L 195.335938 129.851562 M 195.84375 130.105469 L 196.351562 130.234375 L 197.5625 131.058594 L 197.242188 131.25 C 196.648438 130.785156 195.992188 130.382812 195.269531 130.042969 L 195.84375 130.105469 M 199.214844 132.714844 C 199.683594 133.351562 199.980469 134.050781 200.105469 134.816406 L 200.171875 135.132812 L 200.042969 134.816406 L 199.914062 134.5625 L 198.835938 132.84375 L 199.214844 132.714844 M 194.761719 169.441406 L 194.824219 169.441406 L 194.761719 169.441406 M 187.378906 249.515625 L 187.253906 249.582031 L 187.253906 249.328125 L 187.378906 249.515625 M 103.191406 14.894531 L 103.128906 14.832031 L 103.191406 14.765625 L 103.191406 14.894531 M 109.300781 36.15625 L 109.238281 36.28125 L 109.109375 36.15625 L 109.300781 36.15625 M 102.875 32.398438 L 102.621094 32.273438 L 102.492188 32.207031 L 102.621094 32.015625 L 102.621094 32.207031 L 103 32.335938 L 102.875 32.398438 M 104.402344 15.914062 L 104.339844 15.914062 L 104.402344 15.914062 M 54.832031 175.109375 L 54.703125 174.980469 L 54.894531 174.851562 L 55.023438 174.917969 L 54.832031 175.109375 M 37.523438 124.1875 L 37.457031 124.058594 L 37.585938 123.996094 L 37.523438 124.1875 M 77.167969 89.367188 L 77.230469 89.242188 L 77.167969 89.367188 M 71.183594 125.90625 L 71.183594 125.839844 L 71.3125 124.886719 L 71.3125 125.90625 L 71.183594 125.90625 M 70.359375 92.167969 L 70.359375 91.851562 L 70.484375 92.042969 L 70.359375 92.167969 M 70.167969 91.46875 L 70.167969 91.40625 L 70.167969 91.46875 M 86.011719 60.34375 L 86.203125 60.40625 L 86.074219 60.597656 L 86.011719 60.40625 L 86.011719 60.34375 M 78.4375 66.070312 C 78.734375 65.859375 79.011719 65.6875 79.265625 65.5625 L 78.4375 66.199219 L 77.800781 66.644531 L 78.058594 66.324219 L 78.4375 66.070312 M 46.875 164.921875 L 46.875 165.242188 L 46.6875 165.242188 L 46.6875 165.433594 L 46.304688 165.625 L 46.875 164.921875 M 55.277344 174.664062 L 55.339844 174.40625 L 55.402344 174.535156 L 55.277344 174.664062 M 169.117188 234.6875 L 169.308594 235.195312 L 169.179688 235.257812 L 169.117188 234.6875 M 199.023438 264.15625 L 198.199219 264.09375 L 199.023438 264.03125 L 199.023438 264.15625 M 18.433594 108.398438 L 18.433594 108.335938 L 18.558594 108.398438 L 18.433594 108.398438 "/>
<path style=" stroke:none;fill-rule:evenodd;fill:rgb(70.588237%,26.666668%,32.156864%);fill-opacity:1;" d="M 175.480469 57.988281 C 177.730469 59.855469 179.425781 62.359375 180.570312 65.5 L 183.433594 73.199219 C 185.046875 76.042969 185.851562 81.242188 185.851562 88.796875 C 185.851562 92.019531 185.597656 96.328125 185.089844 101.714844 L 184.007812 114.828125 C 184.007812 116.230469 184.453125 117.800781 185.34375 119.539062 C 186.234375 121.277344 186.679688 123.210938 186.679688 125.332031 L 186.296875 126.859375 L 186.363281 127.050781 C 185.9375 127.472656 185.726562 127.8125 185.726562 128.070312 C 185.726562 128.535156 185.957031 128.769531 186.425781 128.769531 L 186.679688 128.640625 L 187 128.707031 L 187.125 128.707031 L 192.789062 129.660156 L 195.207031 130.296875 C 195.972656 130.550781 196.648438 130.871094 197.242188 131.25 L 197.5625 131.058594 L 199.152344 132.589844 L 198.835938 132.84375 L 199.597656 134.753906 L 199.980469 136.597656 L 199.789062 136.851562 L 199.980469 137.171875 L 200.105469 137.171875 L 200.742188 141.882812 C 200.742188 146.550781 199.726562 151.367188 197.6875 156.332031 C 195.78125 161 194.761719 164.945312 194.632812 168.167969 L 194.445312 168.167969 L 194.445312 169.824219 C 194.484375 171.4375 194.847656 172.964844 195.523438 174.40625 C 196.203125 175.851562 196.542969 177.144531 196.542969 178.289062 C 196.542969 180.285156 194.804688 181.28125 191.324219 181.28125 C 189.839844 181.28125 187.78125 180.6875 185.152344 179.5 C 182.523438 178.269531 180.804688 177.652344 180 177.652344 L 178.789062 177.910156 C 178.40625 177.949219 178.21875 178.164062 178.21875 178.542969 C 178.21875 179.265625 179.933594 181.578125 183.371094 185.484375 C 187.230469 189.855469 190.539062 192.101562 193.296875 192.230469 L 193.171875 192.421875 C 195.292969 195.941406 196.351562 199.488281 196.351562 203.050781 C 196.351562 206.359375 195.652344 209.628906 194.253906 212.855469 C 192.851562 216.035156 192.152344 218.453125 192.152344 220.109375 C 192.152344 222.105469 192.851562 224.5 194.253906 227.300781 C 195.652344 230.144531 196.351562 233.09375 196.351562 236.148438 C 196.351562 237.933594 195.523438 240.332031 193.871094 243.34375 C 193.148438 246.058594 190.984375 248.117188 187.378906 249.515625 L 187.253906 249.328125 L 187.0625 249.136719 C 186.425781 249.390625 185.917969 249.730469 185.535156 250.152344 L 184.898438 250.28125 L 185.027344 250.410156 C 184.8125 250.492188 184.707031 250.683594 184.707031 250.980469 L 184.898438 251.363281 L 184.960938 251.363281 C 185.046875 251.703125 185.621094 251.9375 186.679688 252.0625 L 186.679688 252.128906 L 187.445312 252.253906 C 196.183594 253.273438 200.550781 254.757812 200.550781 256.710938 C 200.550781 257.644531 199.257812 258.9375 196.671875 260.59375 L 192.851562 262.949219 L 192.027344 263.394531 L 185.472656 263.648438 C 184.070312 263.648438 181.84375 263.097656 178.789062 261.992188 C 175.523438 260.761719 173.167969 260.082031 171.726562 259.957031 L 171.726562 257.664062 C 174.398438 251.257812 175.734375 247.289062 175.734375 245.761719 L 175.351562 243.726562 L 175.734375 240.734375 C 176.203125 239.121094 176.667969 236.066406 177.136719 231.566406 C 176.753906 230.71875 176.542969 228.789062 176.5 225.773438 C 176.371094 224.164062 176.203125 223.207031 175.988281 222.910156 L 172.679688 219.855469 C 170.941406 217.140625 170.070312 213.234375 170.070312 208.144531 C 170.539062 199.953125 170.515625 193.863281 170.007812 189.875 C 169.839844 188.433594 169.730469 184.613281 169.691406 178.417969 L 169.625 175.042969 L 170.007812 174.851562 L 170.070312 174.40625 L 169.691406 173.324219 L 170.070312 162.1875 C 170.070312 160.148438 170.242188 158.304688 170.582031 156.648438 L 170.644531 150.984375 L 170.582031 146.019531 L 168.542969 139.460938 L 167.207031 129.214844 L 167.398438 124.949219 L 167.335938 115.847656 L 168.289062 100.953125 L 167.082031 96.050781 C 166.273438 93.125 165.871094 90.34375 165.871094 87.714844 C 165.957031 84.019531 165.871094 82.175781 165.617188 82.175781 C 165.023438 82.175781 164.664062 83.109375 164.535156 84.976562 L 164.535156 87.714844 C 164.535156 91.828125 165.191406 95.839844 166.507812 99.742188 L 164.855469 97.769531 L 164.917969 97.453125 C 163.601562 94.949219 162.816406 93.039062 162.5625 91.722656 L 161.480469 85.804688 L 159.570312 73.964844 C 157.152344 58.179688 155.691406 50.285156 155.179688 50.285156 C 154.757812 50.285156 154.546875 50.582031 154.546875 51.175781 L 158.363281 74.535156 L 159.0625 79.3125 L 159 79.3125 L 158.9375 79.375 C 155.5 81.285156 152.210938 82.664062 149.074219 83.511719 L 149.007812 83.320312 L 148.691406 83.128906 C 148.265625 83.257812 148.011719 83.449219 147.925781 83.703125 L 147.863281 83.703125 L 145.636719 68.871094 L 142.390625 50.15625 L 140.292969 39.335938 L 140.480469 39.082031 L 145.128906 40.992188 C 147.714844 42.265625 149.03125 43.855469 149.074219 45.765625 L 149.199219 53.785156 L 149.835938 53.914062 L 153.207031 50.667969 C 155.328125 48.757812 157.113281 47.804688 158.554688 47.804688 C 159.234375 47.804688 159.742188 50.371094 160.082031 55.503906 L 159.890625 55.503906 L 159.890625 56.839844 L 161.226562 68.425781 C 161.355469 69.613281 161.246094 71.84375 160.910156 75.109375 C 160.949219 77.910156 162.011719 79.566406 164.089844 80.074219 L 164.855469 80.074219 L 164.917969 80.648438 L 165.488281 80.839844 C 166.042969 80.839844 166.761719 79.246094 167.652344 76.066406 C 168.96875 71.226562 170.453125 67.027344 172.109375 63.460938 C 172.871094 61.890625 173.996094 60.066406 175.480469 57.988281 M 161.164062 161.484375 L 158.046875 180.199219 L 158.046875 181.28125 L 158.492188 181.472656 L 159.761719 183.957031 C 160.695312 185.863281 161.207031 187.394531 161.289062 188.539062 L 161.609375 195.859375 C 161.609375 197.769531 160.972656 201.714844 159.699219 207.699219 L 160.464844 214 C 161.140625 217.777344 161.839844 220.214844 162.5625 221.320312 L 162.371094 221.382812 L 162.371094 221.445312 L 162.4375 221.511719 C 164.726562 225.117188 166.234375 227.9375 166.953125 229.976562 L 167.082031 229.976562 L 168.671875 233.730469 L 168.671875 234.113281 L 168.734375 234.621094 L 168.734375 234.6875 L 169.433594 241.113281 C 169.433594 242.304688 168.691406 245.59375 167.207031 250.980469 L 165.617188 256.644531 C 165.40625 257.496094 165.300781 258.980469 165.300781 261.101562 L 165.425781 263.648438 L 165.300781 264.15625 C 165.300781 264.792969 165.511719 265.644531 165.933594 266.703125 C 166.359375 267.722656 166.570312 268.71875 166.570312 269.695312 L 166.761719 275.425781 L 167.90625 286.691406 L 167.84375 286.753906 L 161.164062 268.804688 L 161.164062 266.765625 L 157.789062 256.519531 C 156.558594 252.953125 155.117188 245.910156 153.464844 235.386719 C 152.488281 229.148438 151.722656 225.117188 151.171875 223.292969 L 151.300781 222.71875 C 147.523438 202.476562 145.636719 187.902344 145.636719 178.992188 L 145.953125 166.832031 L 147.992188 155.757812 L 148.117188 155.375 C 148.585938 155.25 148.753906 154.824219 148.628906 154.101562 L 148.5 153.273438 L 148.5 152 L 148.117188 143.917969 L 148.5 133.988281 L 148.5 124.1875 C 148.628906 116.207031 148.542969 111.328125 148.246094 109.546875 L 148.371094 102.035156 L 148.5 101.972656 L 149.328125 101.652344 C 151.492188 101.609375 153.589844 99.722656 155.625 95.988281 C 156.222656 98.320312 156.519531 100.929688 156.519531 103.816406 L 156.453125 108.464844 L 156.328125 108.527344 L 156.074219 108.527344 L 156.074219 110.882812 L 156.261719 112.347656 L 156.136719 115.65625 L 155.882812 120.875 L 155.882812 120.941406 L 156.390625 126.796875 L 156.261719 120.941406 L 156.582031 115.71875 L 157.089844 127.878906 C 157.261719 132.589844 157.515625 136.40625 157.855469 139.335938 L 157.664062 139.335938 L 157.34375 137.554688 L 157.535156 139.335938 L 157.664062 141.179688 L 157.726562 141.5625 C 158.914062 147.417969 159.636719 150.664062 159.890625 151.300781 C 160.398438 152.574219 160.652344 154.292969 160.652344 156.457031 C 160.613281 158.875 160.675781 160.550781 160.84375 161.484375 L 160.84375 161.613281 L 161.035156 161.421875 L 161.164062 161.484375 M 160.589844 16.742188 C 164.960938 17.164062 167.144531 20.792969 167.144531 27.625 C 167.144531 29.703125 164.113281 32.675781 158.046875 36.535156 L 157.980469 36.535156 L 157.027344 36.601562 L 156.964844 36.601562 L 149.007812 36.792969 C 148.710938 35.816406 148.5625 33.652344 148.5625 30.296875 L 148.246094 26.605469 L 148.4375 26.480469 C 148.222656 22.957031 147.800781 20.179688 147.164062 18.140625 L 147.164062 18.648438 L 146.210938 16.867188 L 150.34375 17.058594 L 150.917969 16.929688 L 152.128906 16.929688 L 158.554688 16.675781 L 158.554688 16.742188 L 160.589844 16.742188 M 156.074219 33.097656 L 155.691406 32.273438 C 155.691406 31.210938 155.328125 30.679688 154.609375 30.679688 L 154.546875 30.679688 C 153.910156 30.128906 153.1875 29.851562 152.382812 29.851562 C 150.683594 29.851562 149.835938 30.703125 149.835938 32.398438 L 150.28125 34.308594 C 150.75 35.539062 151.425781 36.15625 152.316406 36.15625 C 152.828125 36.15625 153.527344 35.75 154.417969 34.945312 L 154.863281 34.5 L 156.074219 33.097656 M 157.027344 36.089844 L 156.964844 36.15625 L 157.152344 36.15625 L 157.027344 36.089844 M 100.582031 15.023438 L 102.429688 14.957031 L 102.8125 15.214844 L 102.8125 15.277344 C 102.8125 15.617188 103.320312 15.828125 104.339844 15.914062 C 106.121094 18.164062 107.011719 20.261719 107.011719 22.214844 C 107.011719 23.488281 106.394531 25.058594 105.164062 26.925781 L 105.164062 26.988281 L 105.101562 26.988281 L 105.101562 27.242188 C 104.507812 27.371094 104.105469 27.730469 103.890625 28.324219 L 103.765625 29.535156 L 103.890625 29.980469 C 103.042969 30.363281 102.621094 31.042969 102.621094 32.015625 L 102.492188 32.207031 C 101.175781 31.488281 100.265625 30.703125 99.757812 29.851562 C 98.992188 28.621094 98.609375 26.226562 98.609375 22.660156 L 99.375 16.359375 L 100.136719 15.023438 L 100.582031 15.023438 M 109.238281 36.28125 C 108.472656 37.765625 107.730469 38.871094 107.011719 39.589844 C 104.082031 41.246094 102.132812 42.648438 101.15625 43.792969 L 103.066406 44.558594 C 102.257812 46.125 100.839844 47.804688 98.800781 49.585938 C 97.527344 46.445312 95.875 44.089844 93.839844 42.519531 L 94.984375 41.4375 L 95.554688 40.863281 C 96.785156 40.058594 99.054688 37.703125 102.367188 33.800781 L 103.257812 34.246094 C 105.714844 35.519531 107.667969 36.15625 109.109375 36.15625 L 109.238281 36.28125 M 54.832031 175.109375 C 53.175781 176.679688 51.734375 178.246094 50.503906 179.816406 L 46.875 184.71875 C 45.050781 186.796875 43.335938 187.839844 41.722656 187.839844 C 40.28125 187.839844 38.796875 186.542969 37.269531 183.957031 C 35.78125 181.535156 34.914062 179.179688 34.660156 176.890625 L 33.324219 165.6875 C 32.941406 164.328125 31.984375 162.441406 30.460938 160.023438 L 27.023438 154.546875 C 25.917969 152.46875 24.308594 150.132812 22.1875 147.546875 L 19.132812 144.171875 L 19.132812 143.917969 C 19.132812 143.367188 17.582031 141.648438 14.488281 138.761719 L 9.585938 134.117188 L 5.132812 128.515625 C 4.792969 127.835938 4.625 126.308594 4.625 123.929688 C 5.132812 120.960938 5.597656 117.566406 6.023438 113.746094 L 7.550781 108.589844 C 7.679688 108.082031 8.886719 106.46875 11.179688 103.753906 L 20.152344 93.441406 C 21.804688 90.9375 23.839844 88.496094 26.257812 86.121094 L 28.613281 84.019531 C 29.675781 83.808594 30.96875 82.789062 32.496094 80.964844 L 36.378906 75.875 C 37.902344 74.132812 38.816406 72.734375 39.113281 71.671875 C 39.453125 70.613281 40.832031 70.144531 43.25 70.273438 C 46.007812 70.355469 48 69.742188 49.230469 68.425781 C 50.375 67.195312 52.328125 65.710938 55.085938 63.96875 L 60.304688 60.214844 C 69.085938 57.160156 73.667969 54.867188 74.046875 53.339844 L 83.148438 42.074219 L 84.167969 41.183594 L 89.128906 41.757812 C 90.402344 42.054688 91.589844 42.539062 92.691406 43.21875 C 93.753906 43.773438 94.582031 44.789062 95.175781 46.273438 C 96.660156 49.753906 97.785156 51.792969 98.546875 52.386719 C 96.636719 54.339844 92.988281 59.175781 87.601562 66.898438 C 86.882812 67.960938 84.949219 72.457031 81.8125 80.394531 C 80.328125 84.128906 79.160156 87.226562 78.3125 89.6875 L 77.421875 89.242188 L 77.230469 89.242188 L 77.167969 89.367188 C 72.839844 86.863281 70.527344 83.617188 70.230469 79.628906 L 70.359375 79.121094 L 69.976562 78.992188 C 71.164062 76.023438 73.328125 72.480469 76.464844 68.363281 L 77.546875 66.960938 L 78.503906 66.390625 L 78.566406 66.390625 L 82.703125 63.523438 L 85.183594 61.679688 L 86.265625 60.851562 L 86.328125 60.789062 L 86.964844 60.277344 L 86.203125 59.898438 C 85.90625 59.769531 85.523438 59.621094 85.058594 59.453125 L 88.367188 56.394531 C 87.515625 55.972656 85.988281 55.71875 83.785156 55.632812 L 85.4375 53.214844 L 84.929688 53.023438 C 84.546875 53.660156 83 54.867188 80.285156 56.652344 L 79.140625 49.523438 C 77.058594 50.625 75.660156 52.9375 74.9375 56.460938 L 73.855469 56.203125 L 73.476562 65.179688 L 71.820312 67.21875 C 67.410156 72.4375 65.011719 75.386719 64.628906 76.066406 C 63.273438 78.527344 61.765625 81.582031 60.113281 85.230469 C 58.925781 87.945312 57.992188 89.730469 57.3125 90.578125 C 55.65625 92.613281 51.480469 93.632812 44.777344 93.632812 C 39.429688 92.402344 35.613281 91.785156 33.324219 91.785156 L 33.003906 91.914062 L 33.003906 93.632812 L 36.378906 102.035156 L 36.378906 103.5625 L 26.578125 105.34375 C 21.613281 106.40625 18.8125 107.316406 18.179688 108.082031 L 18.113281 108.210938 L 18.050781 108.398438 L 18.113281 108.527344 L 18.113281 108.589844 C 18.410156 109.355469 20.597656 111.753906 24.667969 115.785156 C 29.039062 120.15625 31.222656 122.53125 31.222656 122.914062 L 27.976562 127.621094 L 28.039062 128.070312 L 28.550781 128.070312 C 28.847656 127.472656 30.269531 126.6875 32.8125 125.714844 L 37.457031 124.058594 L 37.523438 124.1875 C 36.039062 125.203125 35.296875 126.878906 35.296875 129.214844 L 35.296875 131.058594 L 35.867188 131.058594 C 38.203125 129.023438 39.664062 127.472656 40.257812 126.414062 C 45.5625 133.332031 48.765625 137.808594 49.867188 139.84375 C 51.605469 143.113281 52.476562 147.183594 52.476562 152.066406 C 52.476562 155.375 51.394531 158.453125 49.230469 161.296875 L 47.703125 163.332031 L 47.132812 164.097656 L 46.621094 164.730469 L 45.984375 165.496094 L 45.984375 165.75 L 37.140625 169.125 C 37.140625 169.589844 37.417969 169.824219 37.96875 169.824219 C 39.070312 169.824219 41.765625 168.976562 46.050781 167.277344 L 47.765625 166.578125 L 47.832031 166.832031 L 48.847656 166.960938 L 48.914062 166.898438 L 49.738281 166.960938 L 50.441406 166.386719 L 54.386719 165.8125 C 55.445312 165.8125 55.996094 167.128906 56.039062 169.761719 C 56.039062 170.738281 55.699219 172.074219 55.023438 173.769531 L 54.765625 174.34375 L 54.765625 174.40625 L 54.703125 174.535156 L 54.703125 174.980469 L 54.832031 175.109375 M 99.4375 34.753906 L 98.230469 36.726562 L 95.554688 39.210938 L 94.921875 39.78125 L 94.21875 40.417969 L 92.820312 41.757812 C 90.867188 40.523438 88.597656 39.890625 86.011719 39.847656 C 87.582031 38.828125 89.765625 37.617188 92.566406 36.21875 C 96.808594 34.140625 99.078125 32.546875 99.375 31.445312 L 101.21875 33.035156 C 100.667969 33.207031 100.074219 33.777344 99.4375 34.753906 M 50.566406 397.253906 L 43.566406 397.445312 C 34.277344 397.445312 28.675781 397.296875 26.769531 397 C 27.957031 393.988281 29.949219 383.125 32.75 364.410156 C 36.441406 345.144531 38.457031 334.132812 38.796875 331.375 C 39.261719 330.738281 39.726562 328.46875 40.195312 324.5625 L 41.53125 313.296875 L 44.96875 294.902344 L 48.085938 276.441406 C 49.359375 267.445312 50.058594 261.484375 50.1875 258.554688 C 50.863281 256.605469 51.859375 251.195312 53.175781 242.324219 C 55.253906 228.492188 56.867188 219.410156 58.011719 215.082031 L 63.359375 192.359375 C 66.15625 179.628906 67.558594 172.242188 67.558594 170.207031 L 67.558594 167.152344 L 67.621094 167.085938 L 67.304688 164.605469 C 67.304688 164.011719 67.410156 163.609375 67.621094 163.394531 L 68.386719 157.730469 L 68.894531 153.976562 L 68.894531 153.210938 C 68.894531 151.9375 69.0625 151.089844 69.402344 150.664062 L 69.339844 150.601562 L 69.65625 145.765625 C 69.785156 145.253906 69.742188 144.9375 69.53125 144.808594 L 69.210938 139.335938 L 71.183594 125.90625 L 71.3125 125.90625 C 72.925781 128.367188 73.730469 131.378906 73.730469 134.941406 L 73.667969 139.460938 L 73.601562 139.460938 C 72.753906 151.851562 72.265625 160.890625 72.140625 166.578125 C 71.96875 177.992188 71.503906 187.09375 70.738281 193.886719 L 70.738281 195.03125 C 69.042969 207.507812 68.34375 215.910156 68.640625 220.238281 C 68.808594 223.082031 68.554688 227.472656 67.875 233.414062 C 67.917969 236.46875 67.046875 240.882812 65.265625 246.652344 C 65.265625 247.289062 65.332031 247.777344 65.457031 248.117188 C 65.117188 249.476562 64.714844 251.914062 64.25 255.4375 L 63.929688 264.03125 L 61.765625 281.34375 L 59.15625 298.53125 C 58.308594 300.058594 57.480469 302.644531 56.675781 306.296875 C 55.871094 309.988281 55.46875 313.148438 55.46875 315.78125 L 55.46875 315.90625 C 55.46875 316.96875 55.65625 318.75 56.039062 321.253906 L 56.039062 326.726562 L 55.46875 343.023438 L 55.722656 370.136719 C 55.382812 380.535156 53.664062 389.511719 50.566406 397.0625 L 50.566406 397.253906 M 184.324219 321.699219 C 184.496094 322.082031 185.109375 322.273438 186.171875 322.273438 C 187.65625 322.273438 189.203125 321.613281 190.816406 320.296875 L 193.679688 320.871094 C 195.800781 320.871094 198.769531 319.214844 202.589844 315.90625 C 206.40625 312.597656 208.71875 310.941406 209.523438 310.941406 C 210.117188 310.941406 213.9375 315.546875 220.980469 324.753906 C 221.828125 325.941406 224.183594 330.632812 228.042969 338.820312 L 235.296875 356.199219 C 237.714844 361.800781 239.558594 365.238281 240.832031 366.511719 L 234.085938 365.746094 C 229.167969 365.746094 224.351562 366.53125 219.640625 368.101562 L 212.769531 370.773438 C 210.820312 371.199219 207.699219 372.21875 203.414062 373.832031 L 199.851562 375.101562 L 197.179688 374.914062 L 195.714844 375.230469 L 195.652344 372.9375 L 194.1875 364.539062 C 193.382812 360.464844 192.640625 357.894531 191.960938 356.835938 L 189.796875 343.785156 C 187.972656 333.515625 186.742188 327.554688 186.109375 325.898438 L 185.660156 324.691406 L 185.660156 324.5625 L 185.472656 324.246094 L 185.027344 322.910156 L 184.835938 322.910156 L 184.261719 321.828125 L 184.324219 321.699219 "/>
<path style=" stroke:none;fill-rule:evenodd;fill:rgb(49.803922%,18.82353%,21.176471%);fill-opacity:1;" d="M 172.617188 34.371094 C 172.828125 36.195312 173.933594 37.617188 175.925781 38.636719 C 180.550781 41.054688 183.667969 42.902344 185.28125 44.175781 L 187.445312 46.148438 C 184.558594 46.488281 181.609375 48.289062 178.597656 51.558594 L 167.527344 37.109375 C 170.625 36.472656 172.234375 35.582031 172.363281 34.4375 L 172.617188 34.371094 M 175.542969 57.921875 L 177.835938 54.867188 C 179.703125 52.578125 181.101562 51.132812 182.035156 50.539062 C 182.882812 50.03125 185.003906 48.925781 188.398438 47.230469 L 191.644531 51.6875 L 194.0625 55.1875 L 194.0625 55.25 L 196.480469 59.515625 C 198.304688 62.613281 199.660156 65.476562 200.550781 68.109375 C 201.441406 70.910156 201.847656 75.28125 201.761719 81.21875 C 201.71875 84.105469 201.972656 88.433594 202.523438 94.207031 C 202.523438 96.113281 203.480469 98.363281 205.386719 100.953125 C 207.296875 103.542969 208.253906 105.640625 208.253906 107.253906 L 206.46875 111.265625 L 196.160156 119.601562 L 190.6875 123.421875 C 189.160156 124.523438 187.996094 125.457031 187.1875 126.222656 L 187.1875 126.921875 C 186.890625 126.921875 186.703125 127.027344 186.617188 127.242188 L 186.363281 127.050781 L 186.296875 126.859375 L 186.679688 125.332031 C 186.679688 123.210938 186.234375 121.277344 185.34375 119.539062 C 184.453125 117.800781 184.007812 116.230469 184.007812 114.828125 L 185.089844 101.714844 C 185.597656 96.328125 185.851562 92.019531 185.851562 88.796875 C 185.851562 81.242188 185.046875 76.042969 183.433594 73.199219 L 180.570312 65.5 C 179.425781 62.359375 177.730469 59.855469 175.480469 57.988281 L 175.542969 57.921875 M 187.253906 128.257812 C 197.941406 121.046875 204.347656 116.101562 206.46875 113.429688 L 207.425781 119.285156 C 207.59375 122.425781 207.976562 125.054688 208.570312 127.175781 C 208.570312 128.367188 208.0625 130.359375 207.042969 133.160156 L 207.296875 133.605469 L 207.042969 135.898438 L 207.042969 141.054688 L 207.617188 151.175781 C 207.699219 152.828125 208.1875 155.503906 209.078125 159.195312 L 209.015625 159.894531 L 210.097656 166.832031 C 210.777344 171.5 211.117188 176.105469 211.117188 180.644531 C 211.117188 185.355469 210.648438 190.617188 209.714844 196.429688 C 209.714844 198.976562 210.289062 201.375 211.433594 203.625 C 212.578125 205.832031 213.152344 208.652344 213.152344 212.089844 L 212.324219 216.164062 C 211.730469 218.199219 211.433594 220.640625 211.433594 223.484375 C 211.433594 227.601562 211.941406 231.671875 212.960938 235.703125 L 212.707031 237.613281 C 212.621094 238.675781 212.75 239.289062 213.089844 239.460938 L 212.261719 244.550781 L 212.386719 247.609375 C 212.644531 248.246094 213.789062 249.304688 215.824219 250.789062 L 218.433594 253.84375 C 219.75 255.414062 220.40625 256.5625 220.40625 257.28125 C 220.40625 258.175781 219.8125 259.023438 218.625 259.828125 C 217.054688 260.933594 214.785156 261.484375 211.816406 261.484375 L 194.507812 262.628906 C 194.421875 262.882812 193.933594 263.097656 193.042969 263.265625 L 192.851562 262.949219 L 196.671875 260.59375 C 199.257812 258.9375 200.550781 257.644531 200.550781 256.710938 C 200.550781 254.757812 196.183594 253.273438 187.445312 252.253906 L 187.445312 251.808594 L 192.152344 252.0625 L 202.84375 250.34375 C 208.105469 249.199219 210.734375 248.371094 210.734375 247.863281 C 210.820312 247.394531 210.5625 247.164062 209.96875 247.164062 C 203.183594 249.625 196.394531 250.855469 189.605469 250.855469 L 185.726562 250.597656 L 185.535156 250.152344 C 185.917969 249.730469 186.425781 249.390625 187.0625 249.136719 L 187.253906 249.328125 L 187.253906 249.582031 L 187.378906 249.515625 C 190.984375 248.117188 193.148438 246.058594 193.871094 243.34375 C 195.523438 240.332031 196.351562 237.933594 196.351562 236.148438 C 196.351562 233.09375 195.652344 230.144531 194.253906 227.300781 C 192.851562 224.5 192.152344 222.105469 192.152344 220.109375 C 192.152344 218.453125 192.851562 216.035156 194.253906 212.855469 C 195.652344 209.628906 196.351562 206.359375 196.351562 203.050781 C 196.351562 199.488281 195.292969 195.941406 193.171875 192.421875 L 193.296875 192.230469 L 193.550781 192.167969 L 193.742188 192.230469 L 194.0625 191.53125 C 188.378906 187.878906 185.257812 185.695312 184.707031 184.972656 L 179.363281 178.289062 L 178.980469 178.226562 L 178.789062 178.035156 L 178.789062 177.910156 L 180 177.652344 C 180.804688 177.652344 182.523438 178.269531 185.152344 179.5 C 187.78125 180.6875 189.839844 181.28125 191.324219 181.28125 C 194.804688 181.28125 196.542969 180.285156 196.542969 178.289062 C 196.542969 177.144531 196.203125 175.851562 195.523438 174.40625 C 194.847656 172.964844 194.484375 171.4375 194.445312 169.824219 L 194.761719 169.441406 L 194.445312 169.441406 L 194.445312 168.167969 L 194.632812 168.167969 C 194.761719 164.945312 195.78125 161 197.6875 156.332031 C 199.726562 151.367188 200.742188 146.550781 200.742188 141.882812 L 200.105469 137.171875 L 199.789062 136.851562 L 199.980469 136.597656 L 199.597656 134.753906 L 200.042969 134.816406 L 200.171875 135.132812 L 200.105469 134.816406 C 199.980469 134.050781 199.683594 133.351562 199.214844 132.714844 L 199.152344 132.589844 L 197.5625 131.058594 L 196.351562 130.234375 L 195.84375 130.105469 L 195.90625 129.976562 L 195.460938 129.722656 L 195.335938 129.851562 L 195.269531 130.042969 L 195.207031 130.296875 L 192.789062 129.660156 L 187.125 128.707031 L 187.253906 128.257812 M 166.507812 99.742188 L 166.636719 99.933594 L 166.636719 100.1875 L 166.699219 100.253906 L 166.699219 100.316406 L 166.953125 100.953125 L 166.570312 111.644531 L 166 122.65625 L 166 130.167969 C 165.488281 130.167969 165.234375 130.402344 165.234375 130.871094 C 165.234375 134.347656 163.878906 144.535156 161.164062 161.421875 L 161.035156 161.421875 L 160.84375 161.484375 C 160.675781 160.550781 160.613281 158.875 160.652344 156.457031 C 160.652344 154.292969 160.398438 152.574219 159.890625 151.300781 C 159.636719 150.664062 158.914062 147.417969 157.726562 141.5625 L 158.171875 141.4375 L 157.855469 139.335938 C 157.515625 136.40625 157.261719 132.589844 157.089844 127.878906 L 156.582031 115.71875 L 156.136719 115.65625 L 156.261719 112.347656 L 156.074219 110.882812 L 156.074219 108.527344 L 156.328125 108.527344 L 156.390625 108.972656 L 156.453125 108.464844 L 156.519531 103.816406 C 156.519531 100.929688 156.222656 98.320312 155.625 95.988281 C 153.589844 99.722656 151.492188 101.609375 149.328125 101.652344 L 148.5 101.972656 L 148.371094 101.589844 L 148.308594 98.851562 C 148.308594 90.960938 148.183594 86.058594 147.925781 84.148438 L 148.246094 84.019531 L 147.925781 83.703125 C 148.011719 83.449219 148.265625 83.257812 148.691406 83.128906 L 149.007812 83.320312 L 148.945312 83.574219 L 149.074219 83.511719 C 152.210938 82.664062 155.5 81.285156 158.9375 79.375 L 159.125 79.757812 L 159.761719 84.148438 L 159.890625 84.148438 L 159.953125 84.847656 L 159.890625 85.039062 L 160.527344 88.984375 C 161.628906 95.054688 162.839844 98.089844 164.152344 98.089844 L 164.597656 98.023438 L 164.472656 97.832031 L 164.472656 97.707031 L 164.726562 97.707031 L 164.855469 97.769531 L 166.507812 99.742188 M 158.492188 181.472656 L 158.363281 181.15625 L 158.363281 181.027344 L 158.808594 181.027344 L 162.054688 160.023438 L 164.28125 171.097656 C 165.933594 179.203125 166.890625 184.65625 167.144531 187.457031 L 167.78125 187.648438 L 168.355469 187.519531 L 168.355469 188.539062 L 168.925781 197.195312 L 169.308594 214.316406 C 170.113281 218.136719 171.8125 221 174.398438 222.910156 C 175.671875 223.800781 176.136719 226.6875 175.796875 231.566406 C 175.796875 232.457031 175.375 235.195312 174.527344 239.777344 L 174.460938 239.777344 L 174.460938 240.222656 L 174.207031 241.433594 L 174.335938 241.75 L 174.015625 243.726562 L 174.398438 245.632812 C 174.398438 247.203125 173.742188 249.558594 172.425781 252.699219 C 171.070312 255.796875 170.390625 257.835938 170.390625 258.8125 L 170.390625 260.59375 C 170.773438 262.207031 171.472656 262.84375 172.488281 262.503906 L 176.308594 262.058594 C 176.859375 262.058594 177.878906 262.566406 179.363281 263.585938 L 180 263.457031 L 180.0625 263.519531 C 178.875 264.539062 177.367188 267.488281 175.542969 272.367188 C 173.890625 275.167969 173.125 278.351562 173.253906 281.917969 C 173.378906 286.585938 172.597656 290.953125 170.898438 295.027344 L 167.84375 286.753906 L 167.90625 286.691406 L 166.761719 275.425781 L 166.570312 269.695312 C 166.570312 268.71875 166.359375 267.722656 165.933594 266.703125 C 165.511719 265.644531 165.300781 264.792969 165.300781 264.15625 L 165.425781 263.648438 L 165.300781 261.101562 C 165.300781 258.980469 165.40625 257.496094 165.617188 256.644531 L 167.207031 250.980469 C 168.691406 245.59375 169.433594 242.304688 169.433594 241.113281 L 168.734375 234.6875 L 169.117188 234.6875 L 168.734375 234.621094 L 168.671875 234.113281 L 168.671875 233.730469 L 167.082031 229.976562 L 166.953125 229.976562 C 166.234375 227.9375 164.726562 225.117188 162.4375 221.511719 L 162.5625 221.382812 L 162.5625 221.320312 C 161.839844 220.214844 161.140625 217.777344 160.464844 214 L 159.699219 207.699219 C 160.972656 201.714844 161.609375 197.769531 161.609375 195.859375 L 161.289062 188.539062 C 161.207031 187.394531 160.695312 185.863281 159.761719 183.957031 L 158.492188 181.472656 M 140.480469 38.828125 L 140.671875 38.828125 L 143.28125 33.925781 C 143.28125 32.527344 142.964844 30.425781 142.328125 27.625 L 141.628906 23.933594 L 141.628906 23.742188 L 141.5 22.789062 L 141.371094 21.324219 L 141.246094 21.449219 L 140.992188 19.542969 L 140.992188 18.011719 C 141.160156 16.996094 141.605469 16.484375 142.328125 16.484375 L 142.582031 16.484375 L 143.28125 16.675781 L 143.664062 16.742188 C 144.640625 17.078125 145.359375 17.949219 145.828125 19.351562 L 146.144531 20.304688 L 146.589844 24.125 L 146.84375 27.816406 L 147.289062 27.816406 L 147.164062 30.617188 L 147.164062 34.4375 L 146.910156 36.792969 C 147.121094 37.683594 148.457031 38.128906 150.917969 38.128906 L 166.445312 37.300781 C 173.191406 46.722656 177.007812 51.726562 177.898438 52.320312 L 176.433594 54.105469 L 171.152344 62.316406 L 167.90625 70.335938 C 166.042969 75.257812 165.042969 78.417969 164.917969 79.820312 L 164.917969 80.074219 L 164.089844 80.074219 C 162.011719 79.566406 160.949219 77.910156 160.910156 75.109375 C 161.246094 71.84375 161.355469 69.613281 161.226562 68.425781 L 159.890625 56.839844 L 159.890625 55.503906 L 160.082031 55.503906 C 159.742188 50.371094 159.234375 47.804688 158.554688 47.804688 C 157.113281 47.804688 155.328125 48.757812 153.207031 50.667969 L 149.835938 53.914062 L 149.199219 53.785156 L 149.074219 45.765625 C 149.03125 43.855469 147.714844 42.265625 145.128906 40.992188 L 140.480469 39.082031 L 140.480469 38.828125 M 160.652344 16.484375 L 162.882812 16.230469 L 167.144531 15.339844 C 167.144531 14.832031 166.828125 14.578125 166.191406 14.578125 L 153.910156 15.53125 L 154.671875 14.703125 L 156.328125 12.601562 L 160.910156 12.859375 L 161.542969 12.859375 L 166 12.667969 C 169.097656 12.75 170.773438 13.195312 171.027344 14.003906 L 171.152344 16.867188 C 171.152344 18.183594 171.40625 20.113281 171.917969 22.660156 L 172.933594 32.527344 L 170.007812 33.863281 L 168.097656 34.625 L 167.082031 34.691406 L 166.953125 34.691406 C 164.28125 35.921875 161.671875 36.535156 159.125 36.535156 L 159.0625 36.472656 L 158.9375 36.535156 L 158.109375 36.792969 L 158.046875 36.535156 C 164.113281 32.675781 167.144531 29.703125 167.144531 27.625 C 167.144531 20.792969 164.960938 17.164062 160.589844 16.742188 L 160.652344 16.484375 M 152.0625 31.191406 L 153.527344 31.570312 L 154.355469 32.527344 L 152.0625 34.625 L 151.554688 33.734375 L 151.109375 32.335938 L 151.234375 31.761719 C 151.363281 31.378906 151.640625 31.191406 152.0625 31.191406 M 148.246094 84.019531 L 148.246094 84.085938 L 148.246094 84.019531 M 159.761719 84.148438 L 159.570312 84.148438 L 159.761719 84.148438 M 194.761719 169.441406 L 194.824219 169.441406 L 194.761719 169.441406 M 117.699219 16.359375 L 117.890625 16.359375 C 118.867188 17.25 119.375 18.054688 119.417969 18.777344 L 119.609375 22.597656 L 119.226562 26.480469 C 119.144531 27.625 118.550781 28.410156 117.445312 28.835938 L 116.621094 29.214844 L 116.746094 23.234375 L 117.699219 16.359375 M 100.519531 14.640625 L 102.429688 13.238281 C 104.972656 11.710938 107.074219 10.949219 108.730469 10.949219 L 109.9375 10.882812 L 114.203125 13.683594 C 113.902344 13.769531 113.648438 13.917969 113.4375 14.128906 L 112.992188 14.066406 L 103.191406 14.832031 L 103.191406 14.765625 L 103.128906 14.832031 L 103.191406 14.894531 L 103.382812 15.148438 L 102.8125 15.214844 L 102.429688 14.957031 L 100.582031 15.023438 L 100.519531 14.640625 M 109.300781 36.15625 L 109.746094 35.261719 L 110.257812 35.453125 L 111.019531 32.015625 C 111.359375 29.640625 111.484375 27.519531 111.402344 25.652344 C 111.316406 21.28125 112.527344 17.714844 115.027344 14.957031 L 115.917969 15.59375 C 115.664062 16.402344 115.496094 17.589844 115.410156 19.160156 L 115.410156 27.945312 C 115.453125 29.640625 115.578125 30.722656 115.792969 31.191406 L 115.792969 31.828125 C 115.792969 32.886719 116.363281 34.988281 117.511719 38.128906 L 117.382812 38.507812 C 108.472656 44.492188 102.535156 48.820312 99.566406 51.496094 L 98.929688 49.839844 L 98.800781 49.902344 L 98.675781 49.96875 L 98.800781 49.585938 C 100.839844 47.804688 102.257812 46.125 103.066406 44.558594 L 101.15625 43.792969 C 102.132812 42.648438 104.082031 41.246094 107.011719 39.589844 C 107.730469 38.871094 108.472656 37.765625 109.238281 36.28125 L 109.300781 36.15625 M 104.402344 15.914062 L 104.527344 15.785156 L 105.230469 15.914062 L 112.292969 15.53125 L 111.210938 17.886719 C 110.445312 20.179688 110.066406 22.320312 110.066406 24.316406 C 110.066406 26.691406 109.660156 30.148438 108.855469 34.691406 C 108.175781 34.351562 107.160156 33.96875 105.800781 33.542969 L 102.875 32.398438 L 103 32.335938 L 102.621094 32.207031 L 102.621094 32.015625 C 102.621094 31.042969 103.042969 30.363281 103.890625 29.980469 L 103.957031 29.917969 L 104.148438 30.234375 L 104.082031 30.554688 L 104.339844 31.253906 C 104.933594 32.355469 105.695312 32.910156 106.628906 32.910156 C 108.027344 32.910156 108.730469 32.3125 108.730469 31.125 C 108.472656 28.621094 107.519531 27.308594 105.863281 27.179688 L 105.675781 27.179688 L 105.355469 27.371094 L 105.164062 26.925781 C 106.394531 25.058594 107.011719 23.488281 107.011719 22.214844 C 107.011719 20.261719 106.121094 18.164062 104.339844 15.914062 L 104.402344 15.914062 M 105.675781 30.554688 C 105.207031 30 104.972656 29.640625 104.972656 29.472656 C 104.972656 28.878906 105.164062 28.578125 105.546875 28.578125 C 105.800781 28.578125 106.417969 29.386719 107.390625 31 L 106.691406 31.378906 L 105.675781 30.554688 M 54.703125 174.980469 L 54.703125 174.535156 L 54.765625 174.40625 L 54.765625 174.34375 L 55.023438 173.769531 C 55.699219 172.074219 56.039062 170.738281 56.039062 169.761719 C 55.996094 167.128906 55.445312 165.8125 54.386719 165.8125 L 50.441406 166.386719 L 49.738281 166.960938 L 48.914062 166.898438 L 48.847656 166.960938 L 47.832031 166.832031 L 47.765625 166.578125 L 47.703125 166.195312 L 48.023438 166.195312 L 48.339844 166.324219 C 51.394531 165.050781 53.578125 163.988281 54.894531 163.140625 L 61.957031 158.941406 C 65.265625 156.902344 66.921875 155.566406 66.921875 154.929688 C 67.007812 154.464844 66.816406 154.230469 66.347656 154.230469 C 65.457031 154.230469 63.570312 155.25 60.683594 157.285156 L 53.367188 162.378906 C 52.308594 163.015625 50.335938 163.925781 47.449219 165.113281 L 47.320312 165.433594 L 47.132812 165.625 L 47.132812 165.8125 L 46.875 166.003906 L 46.6875 165.433594 L 46.6875 165.242188 L 46.875 165.242188 L 46.875 164.921875 L 46.621094 164.730469 L 47.132812 164.097656 L 47.703125 163.332031 L 49.230469 161.296875 C 51.394531 158.453125 52.476562 155.375 52.476562 152.066406 C 52.476562 147.183594 51.605469 143.113281 49.867188 139.84375 C 48.765625 137.808594 45.5625 133.332031 40.257812 126.414062 C 39.664062 127.472656 38.203125 129.023438 35.867188 131.058594 L 35.296875 131.058594 L 35.296875 129.214844 C 35.296875 126.878906 36.039062 125.203125 37.523438 124.1875 L 37.585938 123.996094 L 37.457031 124.058594 L 32.8125 125.714844 C 30.269531 126.6875 28.847656 127.472656 28.550781 128.070312 L 28.039062 128.070312 L 27.976562 127.621094 L 31.222656 122.914062 C 31.222656 122.53125 29.039062 120.15625 24.667969 115.785156 C 20.597656 111.753906 18.410156 109.355469 18.113281 108.589844 L 18.433594 108.398438 L 18.558594 108.398438 L 18.433594 108.335938 L 18.179688 108.082031 C 18.8125 107.316406 21.613281 106.40625 26.578125 105.34375 L 36.378906 103.5625 L 36.378906 102.035156 L 33.003906 93.632812 L 33.003906 91.914062 L 33.324219 91.785156 C 35.613281 91.785156 39.429688 92.402344 44.777344 93.632812 C 51.480469 93.632812 55.65625 92.613281 57.3125 90.578125 C 57.992188 89.730469 58.925781 87.945312 60.113281 85.230469 C 61.765625 81.582031 63.273438 78.527344 64.628906 76.066406 C 65.011719 75.386719 67.410156 72.4375 71.820312 67.21875 L 73.476562 65.179688 L 73.855469 56.203125 L 74.9375 56.460938 C 75.660156 52.9375 77.058594 50.625 79.140625 49.523438 L 80.285156 56.652344 C 83 54.867188 84.546875 53.660156 84.929688 53.023438 L 85.4375 53.214844 L 83.785156 55.632812 C 85.988281 55.71875 87.515625 55.972656 88.367188 56.394531 L 85.058594 59.453125 C 85.523438 59.621094 85.90625 59.769531 86.203125 59.898438 L 86.011719 60.34375 L 86.011719 60.40625 L 86.074219 60.597656 L 86.265625 60.851562 L 85.183594 61.679688 L 82.703125 63.523438 L 78.566406 66.390625 L 78.4375 66.199219 L 79.265625 65.5625 C 79.011719 65.6875 78.734375 65.859375 78.4375 66.070312 L 78.375 65.878906 L 83.53125 58.816406 L 84.101562 57.859375 C 84.101562 57.394531 83.867188 57.160156 83.402344 57.160156 L 76.210938 66.707031 L 76.910156 63.714844 L 77.613281 59.898438 L 77.992188 55.824219 C 77.992188 55.230469 77.761719 54.933594 77.292969 54.933594 L 76.53125 58.941406 L 76.464844 59.070312 L 76.464844 59.261719 L 73.667969 69 L 73.667969 69.828125 L 73.792969 69.890625 L 73.410156 70.398438 C 72.222656 72.097656 70.992188 74.28125 69.722656 76.957031 C 68.238281 80.097656 67.492188 82.410156 67.492188 83.894531 C 67.492188 85.421875 67.875 86.886719 68.640625 88.285156 C 68.808594 88.582031 68.832031 89.472656 68.703125 90.960938 L 68.703125 91.914062 C 67.8125 92.636719 66.6875 94.121094 65.332031 96.371094 L 61.257812 103.371094 L 52.222656 115.785156 L 50.121094 115.402344 L 37.332031 115.019531 C 33.132812 114.59375 29.398438 113.386719 26.132812 111.390625 C 25.707031 111.390625 25.496094 111.644531 25.496094 112.15625 C 25.496094 113.429688 28.550781 114.574219 34.660156 115.59375 L 36.441406 116.164062 L 49.167969 116.546875 C 50.78125 116.546875 51.796875 116.886719 52.222656 117.566406 L 54.578125 120.75 L 57.628906 128.257812 L 59.222656 131.824219 L 59.15625 131.886719 C 59.15625 132.90625 59.964844 134.921875 61.574219 137.933594 L 65.777344 143.917969 L 67.492188 149.964844 L 68.066406 151.367188 L 66.03125 166.070312 L 66.03125 166.515625 L 58.523438 171.796875 L 55.402344 174.535156 L 55.339844 174.40625 L 55.277344 174.664062 L 55.277344 174.789062 L 55.085938 174.980469 L 55.023438 174.917969 L 54.894531 174.851562 L 54.703125 174.980469 M 69.976562 78.992188 L 70.359375 79.121094 L 70.230469 79.628906 C 70.527344 83.617188 72.839844 86.863281 77.167969 89.367188 L 77.230469 89.242188 L 77.421875 89.242188 L 78.3125 89.6875 L 78.375 89.6875 L 78.25 90.003906 L 76.847656 94.84375 C 76.464844 95.519531 76.148438 96.792969 75.894531 98.660156 L 76.085938 98.851562 L 75.828125 99.105469 L 75.320312 104.582031 C 75.152344 107.59375 75.109375 111.136719 75.195312 115.210938 L 75.195312 154.675781 L 75.320312 155.183594 L 74.9375 156.964844 L 75.195312 157.03125 L 75.257812 157.03125 L 75.128906 158.238281 L 75.128906 160.914062 C 75.128906 170.25 75.722656 183.53125 76.910156 200.757812 C 76.996094 205.214844 77.292969 211.855469 77.800781 220.683594 C 77.761719 224.121094 77.929688 228.195312 78.3125 232.902344 L 78.820312 238.316406 C 78.652344 238.441406 78.566406 238.71875 78.566406 239.140625 C 78.566406 240.5 78.695312 242.410156 78.949219 244.871094 L 78.949219 294.519531 C 79.328125 298.507812 79.457031 304.492188 79.328125 312.46875 L 79.839844 312.722656 L 79.203125 316.925781 C 79.203125 320.023438 80.773438 329.378906 83.910156 344.996094 C 84.421875 349.832031 85.246094 355.691406 86.394531 362.5625 L 87.792969 370.394531 L 87.792969 370.457031 C 87.792969 372.238281 88.046875 373.789062 88.558594 375.101562 L 89.828125 390.761719 C 85.417969 390.761719 82.789062 391.144531 81.9375 391.90625 L 74.367188 393.5625 C 65.882812 395.472656 58.097656 396.679688 51.011719 397.191406 L 50.949219 397.253906 L 50.820312 397.191406 L 50.566406 397.0625 C 53.664062 389.511719 55.382812 380.535156 55.722656 370.136719 L 55.46875 343.023438 L 56.039062 326.726562 L 56.039062 321.253906 C 55.65625 318.75 55.46875 316.96875 55.46875 315.90625 L 55.46875 315.78125 C 55.46875 313.148438 55.871094 309.988281 56.675781 306.296875 C 57.480469 302.644531 58.308594 300.058594 59.15625 298.53125 L 61.765625 281.34375 L 63.929688 264.03125 L 64.25 255.4375 C 64.714844 251.914062 65.117188 249.476562 65.457031 248.117188 C 65.332031 247.777344 65.265625 247.289062 65.265625 246.652344 C 67.046875 240.882812 67.917969 236.46875 67.875 233.414062 C 68.554688 227.472656 68.808594 223.082031 68.640625 220.238281 C 68.34375 215.910156 69.042969 207.507812 70.738281 195.03125 L 70.738281 193.886719 C 71.503906 187.09375 71.96875 177.992188 72.140625 166.578125 C 72.265625 160.890625 72.753906 151.851562 73.601562 139.460938 L 73.667969 139.460938 L 73.730469 134.941406 C 73.730469 131.378906 72.925781 128.367188 71.3125 125.90625 L 71.3125 124.886719 L 71.695312 117.628906 L 70.484375 99.234375 C 71.417969 102.375 72.097656 103.945312 72.519531 103.945312 C 72.859375 103.945312 73.03125 103.5 73.03125 102.609375 C 73.03125 101.546875 72.5 99.933594 71.4375 97.769531 C 70.464844 95.777344 69.933594 94.164062 69.847656 92.933594 L 70.359375 92.167969 L 70.484375 92.042969 L 70.359375 91.851562 L 70.167969 91.46875 L 70.167969 91.40625 L 69.785156 90.832031 C 69.828125 90.703125 69.953125 90.640625 70.167969 90.640625 L 70.230469 90.703125 L 70.230469 89.941406 C 70.230469 89.175781 69.996094 88.285156 69.53125 87.265625 C 69.0625 86.292969 68.832031 85.144531 68.832031 83.832031 C 68.832031 82.683594 69.105469 81.367188 69.65625 79.882812 L 69.59375 79.566406 C 69.59375 79.183594 69.722656 78.992188 69.976562 78.992188 M 40.257812 98.214844 C 39.835938 98.214844 39.621094 98.40625 39.621094 98.789062 C 46.15625 108.761719 50.226562 113.746094 51.839844 113.746094 C 52.390625 113.746094 52.667969 113.535156 52.667969 113.109375 L 40.257812 98.214844 M 76.53125 115.59375 L 76.464844 110.5 L 79.964844 120.175781 C 80.347656 123.273438 80.539062 127.324219 80.539062 132.332031 C 80.539062 138.019531 79.667969 144.003906 77.929688 150.285156 L 76.53125 155.375 L 76.53125 115.59375 M 169.117188 234.6875 L 169.179688 235.257812 L 169.308594 235.195312 L 169.117188 234.6875 M 207.679688 263.585938 C 207.296875 263.625 207.105469 263.839844 207.105469 264.222656 L 207.617188 265.304688 L 210.097656 269.566406 C 210.5625 271.648438 211.265625 273.492188 212.199219 275.105469 L 217.605469 286.117188 L 223.585938 299.230469 C 225.453125 303.089844 226.980469 305.679688 228.167969 306.996094 L 228.167969 307.503906 L 228.296875 307.695312 C 235.421875 317.5 241.085938 324.882812 245.285156 329.847656 C 248.382812 333.453125 252.542969 337.953125 257.757812 343.339844 L 266.03125 351.234375 L 266.03125 351.359375 L 286.839844 378.796875 C 285.609375 378.117188 283.996094 377.375 282.003906 376.566406 C 277.292969 374.65625 273.496094 373.363281 270.613281 372.683594 C 257.800781 369.800781 248.234375 367.804688 241.914062 366.703125 L 241.722656 367.082031 L 240.832031 366.511719 C 239.558594 365.238281 237.714844 361.800781 235.296875 356.199219 L 228.042969 338.820312 C 224.183594 330.632812 221.828125 325.941406 220.980469 324.753906 C 213.9375 315.546875 210.117188 310.941406 209.523438 310.941406 C 208.71875 310.941406 206.40625 312.597656 202.589844 315.90625 C 198.769531 319.214844 195.800781 320.871094 193.679688 320.871094 L 190.816406 320.296875 C 189.203125 321.613281 187.65625 322.273438 186.171875 322.273438 C 185.109375 322.273438 184.496094 322.082031 184.324219 321.699219 L 184.199219 321.761719 L 179.171875 312.152344 C 181.714844 313.425781 184.070312 314.0625 186.234375 314.0625 C 187.929688 314.0625 188.886719 313.722656 189.097656 313.042969 L 191.007812 313.234375 C 194.316406 313.234375 196.988281 309.476562 199.023438 301.96875 C 200.128906 299.886719 200.808594 297.449219 201.0625 294.648438 L 201.1875 285.863281 C 201.1875 281.957031 200.847656 278.5625 200.171875 275.679688 C 199.449219 272.792969 199.089844 270.839844 199.089844 269.824219 L 199.597656 264.15625 L 199.597656 263.964844 L 207.679688 263.203125 L 207.679688 263.585938 M 180.125 289.9375 L 180.378906 290.128906 L 181.652344 297.066406 L 180.699219 297.003906 C 180.527344 296.746094 180.0625 296.621094 179.296875 296.621094 C 178.027344 296.621094 177.15625 297.128906 176.691406 298.148438 C 176.433594 298.65625 176.308594 299.230469 176.308594 299.867188 C 176.308594 300.546875 176.371094 301.097656 176.5 301.519531 C 175.863281 301.097656 175.542969 300.566406 175.542969 299.929688 C 175.542969 298.785156 176.285156 296.8125 177.769531 294.011719 C 178.664062 292.226562 179.445312 290.871094 180.125 289.9375 "/>
<path style=" stroke:none;fill-rule:evenodd;fill:rgb(9.019608%,8.627451%,11.764706%);fill-opacity:1;" d="M 175.542969 57.921875 L 175.480469 57.988281 L 175.480469 57.921875 L 175.542969 57.921875 M 147.289062 27.753906 L 147.289062 27.816406 L 146.84375 27.816406 L 147.289062 27.753906 M 160.652344 16.484375 L 160.589844 16.742188 L 160.589844 16.484375 L 160.652344 16.484375 M 158.046875 36.535156 L 158.109375 36.792969 L 158.046875 36.792969 L 157.980469 36.601562 L 158.046875 36.535156 M 160.84375 161.484375 L 161.035156 161.421875 L 160.84375 161.484375 M 187.253906 128.257812 L 187.125 128.707031 L 187 128.707031 L 187.253906 128.257812 M 187.445312 251.808594 L 187.445312 252.253906 L 187.378906 251.808594 L 187.445312 251.808594 M 98.800781 49.585938 L 98.675781 49.96875 L 98.609375 49.839844 L 98.800781 49.585938 M 105.164062 26.925781 L 105.355469 27.371094 L 105.164062 26.925781 M 18.113281 108.589844 L 18.113281 108.527344 L 18.433594 108.398438 L 18.113281 108.589844 M 18.113281 108.210938 L 18.179688 108.082031 L 18.433594 108.335938 L 18.113281 108.210938 M 86.203125 59.898438 L 86.964844 60.277344 L 86.328125 60.789062 L 86.265625 60.851562 L 86.074219 60.597656 L 86.203125 60.40625 L 86.011719 60.34375 L 86.203125 59.898438 M 78.566406 66.390625 L 78.503906 66.390625 L 78.4375 66.199219 L 78.566406 66.390625 M 168.734375 234.621094 L 169.117188 234.6875 L 168.734375 234.6875 L 168.734375 234.621094 M 180.125 289.871094 L 180.378906 290.128906 L 180.125 289.9375 L 180.125 289.871094 "/>
<path style=" stroke:none;fill-rule:evenodd;fill:rgb(31.37255%,23.921569%,34.901962%);fill-opacity:1;" d="M 147.863281 83.894531 L 147.863281 83.703125 L 147.925781 83.703125 L 147.863281 83.894531 M 199.152344 132.589844 L 199.214844 132.714844 L 198.835938 132.84375 L 199.152344 132.589844 M 50.820312 397.191406 L 50.566406 397.253906 L 50.566406 397.0625 L 50.820312 397.191406 M 162.371094 221.382812 L 162.5625 221.320312 L 162.5625 221.382812 L 162.371094 221.382812 "/>
</g>
</svg>
