<?xml version="1.0" encoding="UTF-8"?>
<svg xmlns="http://www.w3.org/2000/svg" xmlns:xlink="http://www.w3.org/1999/xlink" width="290px" height="542px" viewBox="0 0 290 542" version="1.1">
<g id="surface1">
<path style=" stroke:none;fill-rule:evenodd;fill:rgb(0%,0%,0%);fill-opacity:1;" d="M 108.730469 92.230469 L 117.765625 78.929688 L 119.039062 76.699219 L 120.945312 73.074219 L 121.964844 71.925781 L 122.410156 71.355469 L 131.890625 60.40625 L 145.253906 45.128906 C 148.691406 40.972656 152.148438 36.15625 155.625 30.679688 L 155.308594 30.171875 C 155.308594 29.578125 155.5625 29.28125 156.074219 29.28125 C 156.667969 29.28125 157.535156 29.875 158.679688 31.0625 L 159 30.933594 C 159.210938 30.382812 159.402344 30.109375 159.570312 30.109375 C 159.996094 30.109375 160.273438 30.339844 160.398438 30.808594 C 162.816406 30.933594 165.449219 32.015625 168.289062 34.054688 C 168.757812 34.054688 169.011719 34.265625 169.054688 34.691406 L 170.199219 35.582031 L 170.199219 35.707031 C 171.257812 35.792969 172.128906 36.410156 172.808594 37.554688 L 172.933594 37.363281 C 173.824219 37.363281 175.140625 38 176.878906 39.273438 L 182.988281 40.738281 C 184.855469 41.457031 186.445312 43.050781 187.761719 45.511719 C 188.1875 46.234375 188.503906 47.273438 188.714844 48.628906 C 189.523438 48.714844 190.582031 49.265625 191.898438 50.285156 L 194.632812 52.640625 C 196.078125 53.703125 196.796875 54.996094 196.796875 56.523438 L 196.351562 58.941406 L 198.132812 62.378906 C 199.363281 64.542969 200.042969 66.070312 200.171875 66.960938 C 200.425781 68.574219 200.488281 71.121094 200.363281 74.601562 L 200.296875 77.65625 L 200.363281 77.65625 C 200.871094 77.65625 201.167969 80.203125 201.253906 85.292969 L 201.507812 97.832031 C 201.589844 99.53125 201.972656 102.863281 202.652344 107.828125 L 203.605469 117.058594 C 204.582031 118.5 205.960938 127.027344 207.742188 142.644531 L 210.289062 168.488281 L 210.226562 169.824219 L 210.289062 170.144531 C 210.289062 171.882812 206.257812 173.539062 198.199219 175.109375 C 189.417969 176.847656 179.023438 177.652344 167.015625 177.527344 L 166.636719 177.910156 L 166.0625 177.460938 L 165.871094 177.460938 L 165.808594 177.144531 L 165.933594 176.890625 C 165.851562 176.339844 165.828125 175.617188 165.871094 174.726562 L 166.191406 171.480469 C 165.554688 162.355469 165.234375 156.777344 165.234375 154.738281 C 165.53125 151.683594 165.894531 148.671875 166.316406 145.699219 C 167.207031 139.800781 167.992188 136.851562 168.671875 136.851562 L 169.246094 137.042969 L 169.117188 136.660156 C 169.753906 133.265625 170.070312 130.699219 170.070312 128.960938 C 170.070312 126.539062 170.136719 124.757812 170.261719 123.613281 L 169.816406 123.230469 L 169.816406 122.847656 L 170.199219 121.640625 C 168.800781 115.742188 168.097656 109.292969 168.097656 102.289062 L 168.097656 101.398438 L 165.808594 107.761719 L 165.746094 107.953125 C 164.261719 111.773438 162.839844 114.828125 161.480469 117.121094 L 158.300781 123.867188 C 157.070312 126.667969 155.753906 129.023438 154.355469 130.933594 L 149.328125 137.933594 C 149.878906 138.019531 150.15625 138.296875 150.15625 138.761719 L 148.4375 144.808594 L 148.4375 148.375 L 150.789062 150.730469 L 150.601562 151.367188 C 150.980469 152.085938 151.171875 152.765625 151.171875 153.402344 C 151.171875 153.996094 150.515625 154.867188 149.199219 156.011719 L 148.945312 156.265625 C 150.007812 156.945312 151.046875 159.554688 152.0625 164.097656 C 152.0625 165.75 151.828125 167.257812 151.363281 168.613281 L 151.808594 168.550781 C 153.675781 168.550781 154.714844 170.589844 154.925781 174.664062 L 154.863281 175.808594 C 156.433594 176.953125 160.019531 183.234375 165.617188 194.648438 C 166.71875 196.558594 168.503906 202.859375 170.960938 213.554688 L 170.960938 213.9375 L 172.042969 217.117188 C 173.273438 220.726562 173.996094 223.503906 174.207031 225.457031 C 174.503906 228.511719 175.035156 232.945312 175.796875 238.761719 L 178.851562 265.175781 L 178.789062 265.683594 L 178.851562 266.511719 C 178.851562 268.125 178.046875 270.4375 176.433594 273.449219 C 174.824219 276.464844 174.015625 278.988281 174.015625 281.023438 C 174.015625 283.1875 174.335938 285.628906 174.972656 288.34375 C 174.972656 289.832031 174.335938 292.101562 173.0625 295.15625 C 172.425781 297.320312 171.683594 298.742188 170.835938 299.421875 C 170.199219 299.886719 169.878906 300.671875 169.878906 301.777344 L 169.433594 303.496094 C 169.433594 304.726562 171.960938 306.996094 177.007812 310.304688 L 181.84375 313.617188 C 181.972656 313.402344 182.246094 313.296875 182.671875 313.296875 C 183.605469 313.296875 184.242188 313.699219 184.582031 314.507812 C 185.175781 314.039062 186.46875 313.804688 188.460938 313.804688 L 189.988281 313.871094 C 190.03125 313.488281 190.308594 313.296875 190.816406 313.296875 C 191.453125 313.296875 192.386719 319.363281 193.617188 331.5 C 194.804688 343.296875 195.523438 353.335938 195.78125 361.609375 C 196.121094 375.101562 196.5 383.167969 196.925781 385.796875 C 197.347656 388.511719 197.6875 392.585938 197.941406 398.019531 L 198.707031 402.917969 C 199.257812 403.34375 201.78125 407.949219 206.28125 416.730469 L 212.960938 430.480469 C 218.136719 440.582031 221.019531 449.746094 221.613281 457.980469 C 222.378906 467.738281 225.15625 486.09375 229.953125 513.039062 L 229.953125 513.230469 C 230.375 513.273438 230.585938 513.527344 230.585938 513.992188 C 230.585938 514.207031 229.527344 514.820312 227.40625 515.839844 C 224.988281 517.027344 223.417969 517.980469 222.695312 518.703125 C 221.722656 519.679688 218.859375 521.101562 214.105469 522.96875 C 211.476562 524.453125 204.625 527.234375 193.550781 531.304688 C 178.238281 537.96875 161.820312 541.300781 144.300781 541.300781 L 139.910156 541.234375 L 134.820312 542 L 128.265625 541.300781 C 128.476562 540.664062 128.519531 540.152344 128.390625 539.773438 L 127.628906 537.289062 L 125.527344 532.386719 L 125.589844 532.070312 L 123.238281 525.769531 C 119.84375 518.851562 117.933594 514.355469 117.511719 512.273438 C 116.957031 509.644531 115.515625 505.1875 113.183594 498.90625 C 111.019531 493.007812 109.683594 488.46875 109.175781 485.285156 C 108.664062 482.101562 107.605469 478.136719 105.992188 473.382812 L 105.929688 473.445312 C 106.566406 475.484375 106.988281 477.796875 107.203125 480.382812 L 107.582031 490.25 L 108.601562 509.601562 L 107.773438 530.542969 L 107.265625 530.796875 L 107.011719 529.84375 L 106.945312 529.84375 C 102.578125 529.84375 98.378906 528.675781 94.347656 526.339844 C 90.996094 524.347656 89.320312 522.839844 89.320312 521.820312 C 88.515625 517.238281 88.113281 513.90625 88.113281 511.828125 L 88.113281 511.703125 C 87.558594 509.621094 87.242188 506.355469 87.15625 501.898438 C 86.351562 497.105469 85.90625 493.558594 85.820312 491.269531 C 84.546875 481.890625 83.847656 474.929688 83.71875 470.390625 C 83.085938 454.054688 82.765625 440.09375 82.765625 428.507812 L 82.765625 421.378906 C 82.808594 418.832031 82.914062 417.050781 83.085938 416.03125 C 82.746094 414.503906 82.449219 410.535156 82.195312 404.128906 L 81.875 391.972656 C 81.875 382.125 81.726562 374.085938 81.429688 367.847656 C 81.21875 363.5625 81.027344 355.476562 80.855469 343.59375 C 80.09375 330.144531 79.710938 322.164062 79.710938 319.664062 L 77.230469 310.179688 C 75.40625 303.601562 74.21875 298.570312 73.667969 295.09375 C 70.824219 278.796875 69.402344 268.867188 69.402344 265.304688 L 69.464844 264.09375 L 68.386719 244.996094 C 67.664062 232.863281 67.261719 221.320312 67.175781 210.371094 L 66.859375 213.425781 C 66.519531 216.695312 65.925781 218.328125 65.074219 218.328125 C 64.609375 218.328125 64.332031 218.09375 64.25 217.628906 L 64.25 216.925781 L 66.921875 200.058594 C 67.046875 199.421875 69.277344 194.289062 73.601562 184.65625 L 73.09375 182.9375 C 73.09375 182.425781 73.15625 182.046875 73.285156 181.792969 C 73.074219 180.601562 72.925781 179.054688 72.839844 177.144531 L 72.839844 174.917969 C 72.839844 173.601562 73.050781 172.796875 73.476562 172.496094 C 72.964844 171.351562 72.691406 170.460938 72.648438 169.824219 L 72.457031 169.570312 L 72.457031 169.125 L 72.777344 168.296875 C 72.859375 167.574219 73.03125 167.171875 73.285156 167.085938 L 73.667969 166.386719 L 73.222656 165.625 L 71.566406 162.058594 C 71.566406 160.53125 72.265625 158.984375 73.667969 157.414062 C 74.558594 156.394531 75.640625 155.585938 76.910156 154.992188 L 76.847656 154.613281 C 79.265625 148.839844 80.476562 143.367188 80.476562 138.1875 C 80.476562 130.679688 79.753906 123.570312 78.3125 116.867188 C 76.828125 111.519531 76.085938 108.421875 76.085938 107.574219 C 76.085938 107.105469 76.191406 106.808594 76.402344 106.679688 C 75.382812 105.070312 74.578125 103.582031 73.984375 102.226562 L 70.929688 95.988281 L 66.539062 100.890625 C 65.5625 101.90625 62.847656 103.753906 58.394531 106.425781 L 51.710938 113.554688 L 47.257812 117.4375 C 48.105469 117.820312 48.488281 118.605469 48.402344 119.792969 L 47.320312 123.675781 C 48.253906 124.101562 49.867188 126.390625 52.160156 130.550781 L 54.640625 135.324219 C 55.402344 135.367188 55.699219 135.644531 55.53125 136.152344 L 55.53125 136.34375 L 55.785156 136.660156 L 55.339844 136.660156 L 51.839844 140.289062 C 49.378906 142.582031 46.984375 144.535156 44.648438 146.144531 C 40.660156 148.902344 37.902344 150.582031 36.378906 151.175781 C 33.363281 152.363281 31.414062 153.253906 30.523438 153.847656 L 29.058594 155.121094 L 28.996094 155.4375 C 27 157.390625 25.621094 158.367188 24.859375 158.367188 C 24.179688 158.367188 22.71875 155.925781 20.46875 151.046875 L 15.3125 139.527344 C 11.03125 130.785156 8.886719 124.546875 8.886719 120.8125 L 9.078125 116.800781 L 8.503906 114.703125 C 8.503906 114.023438 10.5 110.117188 14.488281 102.988281 C 17.839844 96.921875 20.171875 93.3125 21.488281 92.167969 C 21.570312 91.40625 23.140625 89.769531 26.195312 87.265625 L 31.414062 83.003906 C 36.800781 77.484375 39.917969 74.726562 40.769531 74.726562 C 41.191406 74.726562 41.46875 74.855469 41.59375 75.109375 L 47.449219 67.34375 C 48.128906 66.367188 49.421875 65.117188 51.332031 63.589844 C 53.453125 61.976562 55.339844 60.851562 56.996094 60.214844 C 59.75 59.195312 61.789062 58.199219 63.101562 57.222656 L 65.332031 55.25 L 67.367188 53.976562 C 68.257812 51.050781 70.527344 47.65625 74.175781 43.792969 C 75.277344 42.605469 78.523438 40.949219 83.910156 38.828125 L 93.648438 34.054688 L 94.476562 34.179688 L 94.664062 33.925781 C 96.152344 32.484375 98.082031 31.761719 100.457031 31.761719 C 101.050781 31 101.472656 30.617188 101.730469 30.617188 C 102.152344 30.617188 102.429688 30.742188 102.554688 31 L 109.300781 29.027344 C 110.023438 28.472656 111.445312 28.199219 113.566406 28.199219 L 115.28125 28.261719 L 115.601562 28.199219 C 115.984375 28.199219 116.238281 28.304688 116.363281 28.515625 C 116.578125 28.6875 116.578125 28.878906 116.363281 29.089844 L 116.046875 29.726562 L 112.484375 37.238281 C 109.851562 43.136719 108.539062 48.25 108.539062 52.578125 C 108.539062 57.882812 108.242188 65.605469 107.648438 75.746094 L 107.964844 85.613281 L 107.648438 86.121094 L 108.09375 89.113281 L 108.472656 92.296875 L 108.539062 92.550781 L 108.730469 92.230469 M 188.652344 175.617188 L 188.714844 175.746094 L 188.90625 175.617188 L 191.960938 175.425781 C 192.851562 175.425781 194.824219 174.960938 197.878906 174.027344 L 208.824219 169.570312 C 208.441406 168 208.039062 165.113281 207.617188 160.914062 L 206.089844 144.425781 C 204.050781 131.824219 202.886719 123.527344 202.589844 119.539062 C 202.078125 118.988281 201.589844 116.738281 201.125 112.792969 L 199.980469 101.460938 L 199.597656 84.277344 L 198.707031 87.140625 C 196.882812 95.414062 195.546875 99.550781 194.699219 99.550781 C 194.230469 99.550781 193.957031 99.320312 193.871094 98.851562 L 193.871094 98.089844 L 197.308594 86.25 C 198.199219 84.507812 198.644531 80.625 198.644531 74.601562 C 198.941406 71.035156 198.875 68.40625 198.453125 66.707031 C 198.199219 65.648438 197.457031 64.289062 196.226562 62.632812 C 195.207031 61.191406 194.699219 59.898438 194.699219 58.75 L 195.207031 56.332031 C 195.207031 55.355469 193.128906 53.40625 188.972656 50.476562 L 189.160156 54.867188 C 189.289062 61.871094 188.441406 65.371094 186.617188 65.371094 L 185.726562 64.480469 C 186.957031 61.042969 187.570312 57.839844 187.570312 54.867188 C 187.570312 50.371094 187.0625 47.316406 186.042969 45.703125 L 185.28125 44.492188 L 185.851562 43.664062 L 185.28125 43.410156 L 184.835938 43.792969 L 184.324219 43.21875 C 183.351562 42.371094 181.78125 41.863281 179.617188 41.691406 L 173 38.765625 L 169.753906 50.730469 C 163.179688 75.003906 159.890625 87.734375 159.890625 88.921875 C 159.890625 92.488281 160.546875 95.882812 161.863281 99.105469 L 161.800781 99.171875 L 161.992188 99.425781 L 162.882812 101.398438 L 164.980469 105.726562 C 167.652344 99.402344 169.519531 93.292969 170.582031 87.394531 C 171.300781 87.394531 171.554688 88.160156 171.34375 89.6875 C 171.34375 90.789062 170.707031 93.355469 169.433594 97.386719 C 170.03125 98.746094 170.21875 102.777344 170.007812 109.480469 L 171.789062 121.957031 L 171.597656 123.105469 L 171.726562 128.257812 L 171.726562 132.652344 C 171.726562 133.457031 171.40625 134.921875 170.773438 137.042969 C 170.773438 138.230469 171.472656 140.652344 172.871094 144.300781 C 174.273438 147.949219 174.972656 150.347656 174.972656 151.492188 L 174.972656 151.746094 L 174.527344 152.257812 L 174.273438 152.257812 C 173.507812 152.257812 171.894531 147.484375 169.433594 137.933594 L 168.226562 144.808594 C 167.378906 148.289062 166.953125 151.449219 166.953125 154.292969 L 166.382812 154.167969 L 166.191406 154.355469 L 166.191406 154.613281 L 166.953125 155.058594 L 167.71875 171.414062 L 167.335938 176.378906 L 168.417969 176.316406 L 188.652344 175.617188 M 162.371094 51.113281 L 163.199219 50.476562 L 162.5625 50.347656 C 162.988281 48.609375 163.625 46.507812 164.472656 44.046875 L 166.0625 38.191406 L 167.015625 35.519531 L 164.535156 34.054688 L 163.261719 33.734375 L 162.816406 33.355469 C 162.179688 32.800781 160.695312 32.527344 158.363281 32.527344 L 158.109375 32.84375 L 157.917969 32.652344 L 156.707031 31.699219 C 155.816406 34.328125 151.660156 40.058594 144.238281 48.886719 L 144.171875 48.949219 L 144.046875 48.949219 L 144.046875 49.074219 L 132.972656 61.742188 C 128.476562 66.792969 124.996094 70.867188 122.539062 73.964844 L 116.746094 83.320312 L 113.375 88.859375 L 111.210938 91.597656 L 111.019531 91.851562 L 109.046875 94.84375 L 107.519531 97.324219 L 107.457031 97.386719 L 106.121094 99.234375 L 105.546875 99.933594 L 105.230469 100.316406 L 104.972656 100.824219 L 106.054688 99.296875 L 106.121094 99.234375 L 107.519531 97.386719 L 107.519531 97.707031 L 107.582031 97.898438 C 106.566406 99.171875 105.355469 100.972656 103.957031 103.308594 C 101.539062 107.339844 100.054688 110.5625 99.5 112.984375 L 99.183594 113.554688 L 97.65625 116.164062 L 97.082031 117.121094 L 95.238281 122.46875 C 93.542969 125.648438 91.992188 129.339844 90.59375 133.542969 C 90.167969 134.859375 89.085938 136.703125 87.347656 139.082031 C 86.414062 141.625 85.480469 143.429688 84.546875 144.492188 L 79.519531 154.039062 L 79.839844 153.976562 L 79.519531 154.546875 L 79.203125 155.25 L 79.011719 155.503906 L 78.882812 155.503906 L 78.949219 155.566406 L 78.949219 155.628906 C 79.457031 156.054688 80.878906 156.265625 83.210938 156.265625 L 92.949219 155.4375 C 94.6875 154.886719 97.296875 154.613281 100.773438 154.613281 L 101.730469 154.800781 L 102.367188 154.738281 C 110.59375 154.527344 119.335938 153.613281 128.582031 152 L 135.835938 150.792969 L 135.835938 150.917969 L 136.21875 150.917969 L 136.410156 150.664062 L 145.574219 149.265625 L 146.589844 149.328125 L 146.910156 149.136719 L 146.78125 148.566406 L 146.78125 146.78125 L 147.289062 142.199219 L 147.671875 140.289062 L 144.300781 144.617188 L 143.535156 144.300781 L 143.472656 143.726562 C 143.472656 143.132812 146.71875 138.464844 153.207031 129.722656 C 154.4375 128.070312 155.625 126.011719 156.773438 123.550781 L 157.472656 123.230469 L 156.964844 123.039062 L 157.152344 122.59375 L 160.273438 115.59375 L 162.945312 110.308594 C 162.519531 110.265625 161.714844 109.078125 160.527344 106.746094 L 158.046875 101.652344 C 156.773438 99.105469 155.945312 96.921875 155.5625 95.097656 L 154.734375 97.832031 L 153.589844 103.117188 L 153.207031 104.453125 L 153.144531 104.453125 C 152.507812 106.234375 150.769531 108.929688 147.925781 112.539062 L 142.007812 117.691406 C 138.914062 120.027344 137.109375 121.195312 136.601562 121.195312 L 135.710938 120.492188 C 135.710938 120.070312 137.449219 118.542969 140.925781 115.910156 L 146.78125 111.265625 C 147.84375 110.035156 149.433594 107.550781 151.554688 103.816406 L 152.191406 101.84375 L 152.828125 101.84375 L 152.890625 101.527344 L 152.382812 101.269531 L 152.382812 101.144531 L 153.589844 95.925781 C 156.09375 87.351562 157.960938 80.433594 159.191406 75.171875 C 161.015625 67.324219 161.90625 60.425781 161.863281 54.488281 C 161.863281 53.636719 162.03125 52.511719 162.371094 51.113281 M 162.691406 34.882812 L 162.4375 34.882812 L 162.5625 34.816406 L 162.691406 34.882812 M 160.78125 76.699219 L 163.261719 66.898438 C 166.785156 53.105469 169.476562 43.625 171.34375 38.445312 C 169.691406 37.640625 168.820312 37.046875 168.734375 36.664062 L 165.808594 45.511719 L 163.707031 50.730469 C 163.496094 51.875 163.433594 53.636719 163.515625 56.015625 C 163.558594 59.664062 162.625 66.558594 160.71875 76.699219 L 160.527344 76.699219 L 159 82.492188 L 158.234375 85.359375 L 158.234375 85.421875 L 158.109375 86.3125 L 158.109375 86.566406 L 156.390625 92.296875 L 157.027344 94.90625 C 157.746094 97.535156 158.449219 99.339844 159.125 100.316406 L 163.582031 108.972656 L 164.089844 107.890625 L 162.117188 104.773438 C 160.886719 102.4375 160.019531 100.378906 159.507812 98.597656 C 158.617188 95.542969 158.171875 92.273438 158.171875 88.796875 L 158.617188 85.929688 L 158.679688 85.675781 L 158.746094 85.546875 L 158.746094 85.421875 L 159.382812 82.9375 L 160.910156 77.335938 L 160.84375 76.699219 L 160.78125 76.699219 M 132.210938 112.539062 C 128.605469 112.539062 124.128906 111.242188 118.78125 108.65625 C 113.734375 106.195312 111.210938 104.390625 111.210938 103.246094 L 111.210938 102.796875 C 111.335938 102.460938 111.59375 102.289062 111.972656 102.289062 L 121.519531 108.019531 C 123.894531 108.992188 126.757812 109.820312 130.109375 110.5 C 132.527344 111.007812 133.738281 111.390625 133.738281 111.644531 C 133.738281 112.242188 133.226562 112.539062 132.210938 112.539062 M 107.582031 46.65625 L 108.027344 46.65625 L 108.347656 46.273438 L 107.648438 46.210938 C 108.113281 44.386719 108.730469 42.265625 109.492188 39.847656 C 111.0625 35.136719 112.441406 31.847656 113.628906 29.980469 L 112.039062 30.109375 L 110.128906 30.808594 L 109.300781 30.742188 L 109.175781 30.933594 C 106.246094 31.742188 104.210938 32.144531 103.066406 32.144531 L 102.175781 32.144531 C 99.332031 36.640625 97.148438 40.335938 95.621094 43.21875 L 95.554688 43.21875 C 95.429688 43.21875 95.367188 43.285156 95.367188 43.410156 L 95.367188 43.664062 L 94.410156 45.511719 L 85.246094 59.132812 L 74.558594 73.835938 C 71.882812 77.953125 70.546875 82.324219 70.546875 86.949219 C 70.546875 88.730469 70.761719 90.429688 71.183594 92.042969 L 71.25 92.359375 L 71.820312 94.078125 L 75.574219 101.84375 C 75.871094 102.4375 77.84375 104.960938 81.492188 109.417969 C 84.761719 113.40625 86.394531 115.804688 86.394531 116.609375 C 86.394531 117.246094 86.097656 117.566406 85.503906 117.566406 C 82.746094 114.722656 80.433594 112.09375 78.566406 109.671875 L 79.328125 112.601562 C 80.261719 116.378906 80.855469 119.667969 81.113281 122.46875 L 82.003906 133.097656 L 81.683594 133.671875 L 82.003906 133.925781 L 82.066406 133.925781 L 82.195312 138.316406 C 82.195312 140.015625 81.707031 143.175781 80.730469 147.800781 L 80.667969 148.246094 C 82.066406 145.699219 83.019531 144.046875 83.53125 143.28125 C 85.394531 140.566406 87.261719 136.875 89.128906 132.207031 L 91.039062 128.257812 L 91.355469 128.195312 L 91.421875 127.941406 L 91.355469 127.6875 L 91.292969 127.6875 C 92.523438 125.097656 93.433594 122.933594 94.03125 121.195312 C 94.707031 118.5625 95.28125 116.695312 95.746094 115.59375 L 96.574219 114.320312 C 96.871094 113.175781 97.59375 111.5625 98.738281 109.480469 L 101.730469 104.328125 L 102.746094 101.589844 L 102.621094 101.460938 L 105.039062 97.769531 L 105.929688 97.898438 L 106.246094 97.707031 L 106.054688 97.261719 L 105.355469 97.261719 L 107.074219 94.714844 C 106.777344 94.207031 106.585938 93.378906 106.5 92.230469 L 106.4375 90.195312 L 106.3125 88.222656 L 106.054688 84.976562 L 106.054688 84.339844 L 106.183594 84.085938 L 106.054688 75.808594 C 106.054688 72.246094 106.246094 68.894531 106.628906 65.753906 C 106.925781 63.164062 106.988281 58.539062 106.820312 51.875 C 106.777344 50.605469 107.03125 48.863281 107.582031 46.65625 M 83.210938 59.070312 L 83.53125 58.558594 C 88.578125 51.515625 91.757812 46.785156 93.074219 44.367188 C 95.621094 39.527344 97.636719 35.964844 99.121094 33.671875 C 97.675781 33.882812 96.636719 34.222656 96 34.691406 C 95.324219 35.242188 94.730469 36.238281 94.21875 37.683594 L 91.039062 43.410156 L 85.058594 55.058594 L 82.320312 59.070312 C 82.152344 59.070312 82.066406 59.113281 82.066406 59.195312 L 82.128906 59.261719 L 80.667969 60.980469 L 76.464844 66.515625 L 74.367188 70.910156 L 82.957031 59.386719 L 83.019531 59.386719 L 83.273438 59.515625 L 83.53125 59.453125 L 83.53125 59.132812 L 83.210938 59.070312 M 87.347656 39.144531 L 87.21875 39.210938 L 85.628906 39.972656 C 80.707031 41.542969 77.484375 43.007812 75.957031 44.367188 C 72.011719 47.972656 69.636719 51.347656 68.832031 54.488281 L 68.832031 54.675781 L 68.765625 54.742188 L 68.511719 56.839844 C 68.511719 58.667969 68.894531 60.597656 69.65625 62.632812 C 69.65625 63.269531 69.445312 63.609375 69.019531 63.652344 L 68.640625 63.144531 L 68.320312 63.335938 L 68.386719 63.460938 C 67.917969 63.035156 67.558594 61.953125 67.304688 60.214844 L 66.921875 56.777344 L 66.984375 56.203125 C 63.125 59.21875 60.453125 61 58.96875 61.550781 L 57.628906 62.125 L 56.804688 61.933594 C 56.550781 61.933594 56.292969 62.0625 56.039062 62.316406 L 56.804688 62.507812 C 53.027344 64.160156 50.355469 66.136719 48.785156 68.425781 C 41.617188 78.527344 37.226562 83.574219 35.613281 83.574219 L 34.722656 82.8125 L 35.742188 81.730469 L 32.558594 84.277344 L 23.015625 92.488281 L 23.015625 92.679688 C 23.015625 93.058594 20.597656 96.816406 15.757812 103.945312 L 10.734375 113.621094 L 10.859375 113.875 L 10.921875 114.511719 L 10.734375 117.375 L 14.042969 122.914062 L 14.042969 123.292969 C 13.914062 123.632812 13.660156 123.804688 13.277344 123.804688 C 12.300781 123.804688 11.367188 122.785156 10.476562 120.75 L 10.414062 120.683594 L 10.414062 120.75 C 10.414062 122.445312 10.902344 124.800781 11.878906 127.8125 L 11.367188 127.878906 L 11.558594 128.195312 L 12.003906 128.195312 C 13.066406 131.421875 14.679688 135.347656 16.839844 139.972656 L 24.921875 156.519531 C 25.136719 156.519531 25.769531 156.183594 26.832031 155.503906 L 26.832031 155.25 C 26.832031 154.144531 28.972656 152.554688 33.257812 150.472656 C 38.859375 147.714844 42.1875 145.953125 43.25 145.191406 L 46.496094 142.773438 L 46.558594 142.773438 L 47.066406 142.582031 L 46.941406 142.453125 L 49.738281 140.035156 C 50.929688 138.253906 51.945312 136.980469 52.792969 136.214844 L 50.695312 131.824219 L 46.6875 125.457031 C 45.539062 128.429688 44.4375 129.914062 43.375 129.914062 C 42.824219 129.914062 42.507812 129.789062 42.421875 129.53125 L 42.359375 129.085938 C 45.242188 124.84375 46.6875 121.808594 46.6875 119.984375 C 46.6875 119.601562 46.367188 119.285156 45.730469 119.03125 L 45.03125 118.585938 L 44.902344 118.585938 L 40.324219 118.648438 C 34.808594 118.648438 32.050781 118.03125 32.050781 116.800781 C 32.050781 116.25 32.347656 115.976562 32.941406 115.976562 L 35.421875 116.800781 L 44.078125 117.121094 C 44.160156 116.78125 44.542969 116.484375 45.222656 116.230469 C 46.578125 115.71875 47.765625 115.125 48.785156 114.445312 L 52.03125 111.457031 L 57.058594 105.34375 L 65.011719 100.125 L 67.046875 97.007812 C 68.238281 95.140625 69.234375 94.207031 70.039062 94.207031 L 69.722656 93.503906 C 69.128906 92.230469 68.832031 90.027344 68.832031 86.886719 C 68.832031 82.515625 69.53125 78.84375 70.929688 75.875 C 71.058594 73.453125 71.734375 71.101562 72.964844 68.808594 L 73.09375 68.617188 L 73.03125 68.679688 L 74.9375 65.753906 C 79.5625 59.769531 82.449219 55.71875 83.59375 53.59375 L 89.828125 42.074219 L 90.148438 41.5 L 90.53125 41.757812 C 90.867188 41.757812 90.976562 41.691406 90.847656 41.566406 L 90.847656 41.308594 L 90.402344 40.929688 C 91.25 39.0625 92.058594 37.535156 92.820312 36.34375 L 87.347656 39.144531 M 99.054688 100.953125 C 99.566406 100.953125 99.863281 101.226562 99.945312 101.78125 C 99.945312 102.796875 99.246094 103.839844 97.847656 104.898438 C 95.980469 106.300781 93.457031 107 90.273438 107 L 89.320312 106.234375 C 89.320312 105.726562 89.722656 105.367188 90.53125 105.152344 L 95.9375 103.816406 L 97.527344 102.289062 C 98.164062 101.398438 98.675781 100.953125 99.054688 100.953125 M 104.339844 160.085938 L 95.621094 161.421875 L 82.765625 161.867188 L 82.765625 161.613281 C 82.765625 160.679688 88.875 159.726562 101.09375 158.75 C 107.964844 158.15625 113.121094 158.386719 116.554688 159.449219 L 104.339844 160.085938 M 77.613281 156.394531 L 76.847656 156.902344 C 76.339844 157.199219 75.765625 157.773438 75.128906 158.621094 L 74.046875 160.339844 C 73.496094 161.402344 73.222656 162.058594 73.222656 162.3125 L 77.292969 168.296875 L 77.230469 168.933594 L 76.464844 169.125 C 75.914062 169.125 75.300781 168.699219 74.621094 167.851562 L 74.367188 168.488281 L 74.367188 169.25 C 74.367188 170.992188 74.558594 172.09375 74.9375 172.5625 L 79.519531 178.035156 C 79.519531 178.542969 79.308594 178.800781 78.882812 178.800781 C 77.527344 178.800781 76.128906 177.460938 74.683594 174.789062 L 74.558594 175.109375 L 74.558594 175.488281 L 74.429688 178.480469 C 74.515625 179.542969 74.8125 181.175781 75.320312 183.382812 L 75.128906 184.273438 L 75.640625 185.226562 C 76.445312 186.714844 77.484375 187.457031 78.757812 187.457031 L 98.230469 186.4375 L 107.390625 185.546875 L 140.863281 183.445312 C 145.953125 182.46875 149.199219 181.175781 150.601562 179.5625 C 152.382812 177.613281 153.273438 175.976562 153.273438 174.664062 C 153.273438 173.730469 152.890625 172.644531 152.128906 171.414062 L 151.046875 169.695312 C 150.707031 171.054688 150.535156 172.878906 150.535156 175.171875 C 150.535156 175.679688 150.238281 175.933594 149.644531 175.933594 C 149.179688 175.933594 148.902344 175.617188 148.816406 174.980469 L 148.816406 173.960938 C 148.816406 172.773438 149.09375 171.097656 149.644531 168.933594 C 150.15625 166.769531 150.410156 165.136719 150.410156 164.03125 C 150.410156 162.929688 149.898438 161.550781 148.882812 159.894531 L 147.480469 157.285156 L 146.65625 157.667969 L 146.589844 157.859375 L 132.527344 158.8125 L 136.410156 157.792969 L 144.554688 157.03125 L 144.808594 157.03125 L 144.808594 156.964844 C 144.808594 156.753906 145.613281 156.183594 147.226562 155.25 L 148.5625 154.421875 L 148.628906 154.421875 C 149.007812 154.421875 149.261719 154.1875 149.390625 153.71875 L 149.582031 153.273438 L 149.453125 152.828125 C 149.539062 151.726562 149.390625 150.984375 149.007812 150.601562 C 149.222656 149.921875 148.859375 149.582031 147.925781 149.582031 C 147.714844 149.582031 147.417969 149.945312 147.035156 150.664062 L 146.71875 150.410156 L 142.519531 151.175781 L 139.78125 151.429688 C 138.085938 151.597656 136.960938 151.875 136.410156 152.257812 C 135.601562 152.808594 133.460938 153.316406 129.980469 153.785156 L 119.484375 154.992188 L 98.609375 156.457031 L 97.210938 156.457031 L 94.410156 156.839844 L 83.085938 157.984375 L 79.457031 157.601562 C 79.03125 157.601562 78.757812 157.519531 78.628906 157.347656 C 78.289062 157.179688 78.015625 157.007812 77.800781 156.839844 L 77.613281 156.394531 M 88.367188 168.234375 C 88.367188 167.511719 89.828125 167.109375 92.757812 167.023438 L 125.910156 166.195312 C 130.875 166.070312 134.054688 165.6875 135.453125 165.050781 C 136.8125 164.457031 138.65625 164.160156 140.992188 164.160156 C 141.5 164.160156 141.753906 164.457031 141.753906 165.050781 C 141.753906 167.640625 124.277344 168.933594 89.320312 168.933594 L 88.367188 168.234375 M 79.902344 180.710938 L 86.394531 182.238281 C 90.167969 183.296875 92.925781 183.808594 94.664062 183.765625 L 95.746094 183.957031 C 95.746094 184.464844 94.898438 184.71875 93.203125 184.71875 L 84.867188 183.574219 C 80.964844 182.726562 79.011719 182.066406 79.011719 181.601562 C 79.011719 181.007812 79.308594 180.710938 79.902344 180.710938 M 74.8125 187.074219 L 74.9375 187.710938 L 72.648438 192.613281 L 72.519531 192.613281 L 72.265625 192.738281 L 72.265625 192.929688 L 72.394531 193.058594 L 70.167969 197.195312 C 69.277344 199.785156 68.832031 202.921875 68.832031 206.617188 C 68.832031 218.15625 69.253906 230.804688 70.101562 244.550781 L 71.25 264.921875 L 70.613281 264.921875 L 71.882812 274.214844 C 73.03125 283.210938 74.003906 289.535156 74.8125 293.183594 L 77.992188 308.460938 L 80.410156 316.035156 C 81.558594 319.257812 82.234375 321.785156 82.449219 323.609375 C 83.804688 334.386719 85.714844 344.613281 88.175781 354.289062 L 95.683594 382.296875 C 96.746094 384.035156 97.273438 388.40625 97.273438 395.410156 C 97.359375 400.753906 97.507812 405.445312 97.71875 409.476562 L 99.4375 437.484375 L 99.4375 440.664062 C 100.203125 448.8125 101.070312 454.222656 102.046875 456.898438 C 107.351562 472.132812 110.277344 481.234375 110.828125 484.203125 C 111.890625 490.015625 114.625 499.121094 119.039062 511.511719 C 119.757812 514.183594 121.859375 519.402344 125.335938 527.167969 L 128.835938 535.0625 L 128.582031 534.933594 L 130.171875 539.898438 L 134.5 540.28125 L 134.183594 539.007812 L 140.164062 539.582031 L 140.292969 539.515625 L 142.390625 539.707031 L 144.492188 539.707031 C 162.140625 539.707031 178.789062 536.230469 194.445312 529.269531 L 200.550781 526.851562 L 200.617188 527.550781 L 200.933594 527.488281 L 200.933594 526.722656 C 208.0625 523.835938 212.21875 522.054688 213.40625 521.375 C 217.777344 520.0625 220.554688 518.722656 221.742188 517.367188 C 222.507812 516.433594 224.054688 515.457031 226.386719 514.4375 L 228.488281 513.546875 C 227.894531 512.0625 227.214844 508.835938 226.453125 503.871094 L 223.84375 486.6875 C 221.890625 476.078125 220.640625 466.890625 220.089844 459.125 C 219.664062 452.503906 216.777344 443.273438 211.433594 431.4375 L 204.941406 417.558594 L 200.933594 410.683594 L 199.597656 408.902344 L 199.660156 409.792969 L 200.363281 413.105469 L 202.144531 426.023438 C 202.398438 428.316406 202.523438 431.753906 202.523438 436.335938 C 202.523438 441.472656 202.039062 446.289062 201.0625 450.785156 C 200 455.582031 199.386719 461.628906 199.214844 468.925781 C 199.171875 471.347656 198.347656 476.796875 196.734375 485.285156 C 194.910156 495.046875 193.339844 500.414062 192.027344 501.390625 L 191.644531 501.199219 L 191.644531 501.515625 L 191.578125 501.515625 C 191.15625 501.515625 190.902344 501.347656 190.816406 501.007812 L 190.816406 500.5 L 192.40625 495.214844 L 192.40625 495.789062 L 192.789062 495.660156 L 192.851562 493.75 L 195.207031 484.332031 C 196.734375 476.015625 197.519531 470.667969 197.5625 468.289062 C 197.6875 461.714844 198.304688 455.855469 199.40625 450.722656 C 200.425781 445.84375 200.933594 441.046875 200.933594 436.335938 C 200.933594 430.949219 200.023438 422.589844 198.199219 411.257812 L 198.070312 411.195312 L 197.878906 409.285156 L 197.753906 408.648438 L 194.507812 390.953125 C 194.507812 390.1875 194.804688 389.808594 195.398438 389.808594 L 196.351562 394.390625 C 195.460938 384.417969 194.699219 373.851562 194.0625 362.691406 C 193.636719 353.824219 193.023438 345.695312 192.214844 338.3125 L 190.054688 315.523438 L 185.40625 315.96875 L 184.515625 315.78125 L 184.453125 315.84375 L 184.582031 316.097656 C 184.582031 316.648438 184.242188 316.925781 183.5625 316.925781 C 178.386719 312.980469 175.203125 310.730469 174.015625 310.179688 C 169.859375 308.183594 167.78125 305.933594 167.78125 303.429688 L 167.972656 300.058594 C 167.972656 299.25 168.289062 298.613281 168.925781 298.148438 L 170.644531 297.066406 L 171.535156 294.136719 L 173.253906 288.34375 C 172.660156 285.035156 172.363281 282.59375 172.363281 281.023438 C 172.363281 279.753906 173.148438 276.84375 174.71875 272.304688 C 175.988281 268.742188 176.945312 266.535156 177.582031 265.683594 C 176.394531 263.859375 175.269531 255.226562 174.207031 239.777344 L 172.679688 226.601562 L 170.773438 220.171875 C 169.839844 217.5 169.351562 215.378906 169.308594 213.808594 C 168.925781 213.214844 168.542969 212.21875 168.164062 210.816406 C 167.527344 208.609375 167.1875 206.679688 167.144531 205.023438 C 167.058594 202.816406 166.613281 201.226562 165.808594 200.25 L 164.152344 195.476562 L 156.835938 182.238281 L 157.027344 181.664062 L 156.707031 181.28125 L 156.453125 181.535156 L 154.226562 177.652344 C 153.800781 178.503906 153.207031 179.351562 152.445312 180.199219 L 149.582031 183 C 148.5625 184.273438 146.910156 184.847656 144.617188 184.71875 L 108.917969 187.203125 C 102.34375 188.476562 93.136719 189.109375 81.300781 189.109375 C 78.375 189.109375 76.210938 188.433594 74.8125 187.074219 L 74.304688 186.4375 L 74.175781 186.820312 L 74.8125 187.074219 M 90.210938 179.628906 C 87.285156 179.628906 85.820312 179.265625 85.820312 178.542969 C 85.820312 177.949219 86.351562 177.652344 87.410156 177.652344 L 113.566406 178.671875 C 120.945312 178.671875 127.988281 178.097656 134.691406 176.953125 L 146.335938 175.234375 C 147.734375 175.234375 148.332031 175.511719 148.117188 176.0625 C 148.117188 176.445312 147.800781 176.65625 147.164062 176.699219 L 140.226562 177.527344 L 136.410156 178.800781 L 131.320312 179.691406 L 128.074219 179.945312 L 127.117188 180.136719 L 126.546875 180.328125 L 113.691406 180.390625 L 98.609375 180.644531 C 95.21875 180.644531 92.417969 180.304688 90.210938 179.628906 M 121.136719 272.75 L 121.136719 272.175781 C 121.136719 271.542969 121.390625 271.222656 121.902344 271.222656 C 122.410156 271.222656 122.960938 273.109375 123.554688 276.886719 C 124.320312 281.472656 124.914062 284.292969 125.335938 285.355469 L 130.492188 299.292969 C 132.824219 305.234375 135.644531 314.550781 138.953125 327.238281 L 147.863281 355.433594 L 153.589844 369.3125 C 156.433594 376.226562 158.066406 380.640625 158.492188 382.550781 L 158.046875 382.613281 L 158.492188 383.761719 L 157.664062 384.078125 C 157.410156 384.078125 155.839844 380.578125 152.953125 373.574219 C 149.941406 366.191406 147.734375 360.335938 146.335938 356.007812 C 142.5625 343.363281 139.632812 334.027344 137.554688 328 C 133.992188 315.652344 131.128906 306.335938 128.964844 300.058594 L 124.320312 286.816406 C 122.496094 281.257812 121.457031 276.886719 121.199219 273.707031 L 121.199219 272.75 L 121.136719 272.75 M 81.683594 330.230469 C 82.023438 332.730469 82.128906 336.613281 82.003906 341.875 L 82.382812 365.238281 C 83.273438 374.742188 83.71875 390.335938 83.71875 412.023438 L 83.65625 415.648438 C 83.996094 419.085938 84.144531 434.46875 84.101562 461.796875 L 86.519531 483.441406 C 88.089844 497.316406 88.875 505.65625 88.875 508.457031 L 88.875 511.320312 C 89.722656 511.742188 90.234375 515.097656 90.402344 521.375 C 90.445312 522.226562 91.101562 523.09375 92.375 523.988281 L 95.554688 526.023438 C 96.109375 526.53125 98.164062 527.105469 101.730469 527.742188 L 104.273438 528.058594 C 103.636719 527.085938 102.875 525.554688 101.984375 523.476562 C 101.558594 522.796875 101.113281 521.632812 100.648438 519.976562 L 98.992188 513.738281 C 97.082031 509.28125 95.9375 505.804688 95.554688 503.300781 C 94.03125 494.601562 93.203125 487.703125 93.074219 482.613281 L 92.691406 440.984375 C 92.691406 431.265625 92.820312 425.027344 93.074219 422.269531 L 94.410156 412.914062 C 94.835938 411.894531 95.195312 410.304688 95.492188 408.140625 L 95.9375 405.785156 L 95.621094 397.128906 L 95.429688 389.617188 L 93.648438 382.234375 L 93.902344 381.597656 L 93.773438 381.214844 L 90.464844 370.328125 L 86.773438 355.308594 C 86.011719 352.675781 84.292969 343.933594 81.621094 329.082031 L 81.683594 330.230469 M 96.128906 412.085938 L 94.21875 422.84375 C 93.964844 427.765625 93.839844 433.832031 93.839844 441.046875 L 94.21875 482.101562 C 94.644531 495.386719 97.699219 509.050781 103.382812 523.09375 L 103.382812 523.476562 L 103.765625 524.050781 C 104.824219 525.703125 105.546875 527.167969 105.929688 528.441406 L 106.820312 528.886719 L 106.691406 525.703125 C 107.285156 518.320312 107.582031 512.953125 107.582031 509.601562 L 106.4375 490.441406 L 106.246094 480.894531 C 104.972656 476.351562 104.339844 473.253906 104.339844 471.601562 L 104.785156 471.28125 L 104.71875 470.964844 C 104.125 469.5625 103.828125 468.671875 103.828125 468.289062 L 104.019531 467.910156 L 100.710938 458.359375 C 99.820312 455.601562 98.867188 450.445312 97.847656 442.894531 L 97.65625 441.554688 L 97.65625 437.484375 L 97.148438 430.542969 L 96.128906 412.148438 L 96.128906 412.085938 "/>
<path style=" stroke:none;fill-rule:evenodd;fill:rgb(25.490198%,21.176471%,27.450982%);fill-opacity:1;" d="M 108.472656 92.296875 L 108.730469 92.230469 L 108.539062 92.550781 L 108.472656 92.296875 M 188.652344 175.617188 L 168.417969 176.316406 L 167.335938 176.378906 L 167.71875 171.414062 L 166.953125 155.058594 L 170.960938 157.601562 C 173.464844 159.300781 175.054688 160.148438 175.734375 160.148438 L 175.925781 159.894531 L 175.925781 158.8125 C 175.796875 158.386719 175.480469 156.03125 174.972656 151.746094 L 174.972656 151.492188 C 174.972656 150.347656 174.273438 147.949219 172.871094 144.300781 C 171.472656 140.652344 170.773438 138.230469 170.773438 137.042969 C 171.40625 134.921875 171.726562 133.457031 171.726562 132.652344 L 171.726562 128.257812 L 171.597656 123.105469 L 171.789062 121.957031 L 170.007812 109.480469 C 170.21875 102.777344 170.03125 98.746094 169.433594 97.386719 C 170.707031 93.355469 171.34375 90.789062 171.34375 89.6875 C 171.554688 88.160156 171.300781 87.394531 170.582031 87.394531 C 169.519531 93.292969 167.652344 99.402344 164.980469 105.726562 L 162.882812 101.398438 L 161.992188 99.425781 L 162.4375 99.550781 C 165.277344 92.976562 166.402344 86.609375 165.808594 80.457031 L 170.390625 84.464844 C 171.621094 84.464844 174.355469 82.621094 178.597656 78.929688 L 178.597656 81.601562 C 178.089844 83.171875 177.835938 85.804688 177.835938 89.496094 L 177.898438 91.722656 L 178.34375 91.722656 L 177.515625 95.796875 C 177.6875 96.941406 177.496094 97.960938 176.945312 98.851562 C 176.308594 99.871094 175.988281 100.675781 175.988281 101.269531 C 175.988281 102.460938 176.730469 103.730469 178.21875 105.089844 C 179.785156 106.53125 181.3125 107.253906 182.796875 107.253906 C 186.066406 107.253906 188.101562 106.851562 188.90625 106.042969 L 188.90625 106.554688 L 188.207031 110.820312 C 187.824219 112.472656 187.632812 113.917969 187.632812 115.148438 C 187.632812 116.039062 187.742188 116.570312 187.953125 116.738281 C 190.796875 115.167969 193.042969 114.171875 194.699219 113.746094 L 194.699219 113.875 C 193.722656 116.292969 193.296875 119.921875 193.425781 124.757812 C 193.59375 129.808594 193.296875 133.4375 192.535156 135.644531 C 191.390625 138.953125 190.773438 142.582031 190.6875 146.527344 C 190.6875 148.226562 190.390625 150.175781 189.796875 152.382812 C 189.203125 154.503906 188.90625 156.222656 188.90625 157.539062 L 189.160156 165.878906 C 189.160156 167.789062 188.886719 170.546875 188.335938 174.152344 C 188.335938 174.789062 188.441406 175.277344 188.652344 175.617188 M 169.753906 50.730469 L 169.878906 50.730469 L 169.753906 50.730469 M 144.238281 48.886719 L 144.300781 48.949219 L 144.171875 48.949219 L 144.238281 48.886719 M 144.046875 49.074219 L 144.046875 49.332031 C 145.785156 50.605469 151.765625 51.238281 161.992188 51.238281 L 162.371094 51.113281 C 162.03125 52.511719 161.863281 53.636719 161.863281 54.488281 C 161.90625 60.425781 161.015625 67.324219 159.191406 75.171875 C 157.960938 80.433594 156.09375 87.351562 153.589844 95.925781 L 152.382812 101.144531 L 152.382812 101.269531 C 151.066406 100.71875 147.777344 99.59375 142.519531 97.898438 C 141.246094 97.089844 139.761719 96.433594 138.0625 95.925781 C 134.839844 94.90625 129.960938 94.394531 123.429688 94.394531 C 118.59375 94.394531 114.519531 94.925781 111.210938 95.988281 C 108.835938 96.75 107.648438 97.304688 107.648438 97.644531 L 107.710938 97.960938 L 107.582031 97.898438 L 107.519531 97.707031 L 107.519531 97.386719 L 106.121094 99.234375 L 106.054688 99.296875 L 104.972656 100.824219 L 105.230469 100.316406 L 105.546875 99.933594 L 106.121094 99.234375 L 107.457031 97.386719 L 107.519531 97.324219 L 109.046875 94.84375 L 111.019531 91.851562 L 111.210938 91.597656 L 113.375 88.859375 L 116.746094 83.320312 L 122.539062 73.964844 C 124.996094 70.867188 128.476562 66.792969 132.972656 61.742188 L 144.046875 49.074219 M 78.949219 155.628906 L 78.949219 155.566406 L 79.011719 155.503906 L 78.949219 155.628906 M 95.367188 43.664062 L 95.367188 43.792969 L 95.621094 43.792969 L 95.621094 44.175781 L 96.449219 44.367188 L 96.574219 44.367188 C 98.867188 45.851562 102.535156 46.613281 107.582031 46.65625 C 107.03125 48.863281 106.777344 50.605469 106.820312 51.875 C 106.988281 58.539062 106.925781 63.164062 106.628906 65.753906 C 106.246094 68.894531 106.054688 72.246094 106.054688 75.808594 L 106.183594 84.085938 L 106.054688 84.339844 L 106.054688 84.976562 L 106.3125 88.222656 L 106.4375 90.195312 L 106.5 92.230469 C 106.585938 93.378906 106.777344 94.207031 107.074219 94.714844 L 105.355469 97.261719 L 103.957031 97.132812 L 103.828125 97.386719 L 102.109375 97.261719 L 98.992188 96.75 L 95.9375 96.113281 C 94.113281 95.691406 92.332031 95.054688 90.59375 94.207031 C 85.628906 92.082031 80.113281 91.023438 74.046875 91.023438 L 73.667969 90.640625 C 73.410156 90.515625 72.777344 90.8125 71.757812 91.53125 L 71.183594 92.042969 C 70.761719 90.429688 70.546875 88.730469 70.546875 86.949219 C 70.546875 82.324219 71.882812 77.953125 74.558594 73.835938 L 85.246094 59.132812 L 94.410156 45.511719 L 95.367188 43.664062 M 91.039062 128.257812 L 89.128906 132.207031 C 87.261719 136.875 85.394531 140.566406 83.53125 143.28125 C 83.019531 144.046875 82.066406 145.699219 80.667969 148.246094 L 80.730469 147.800781 C 81.707031 143.175781 82.195312 140.015625 82.195312 138.316406 L 82.066406 133.925781 L 84.675781 130.105469 C 85.90625 128.109375 86.816406 127.113281 87.410156 127.113281 C 87.878906 127.113281 88.324219 127.367188 88.746094 127.878906 C 89.085938 128.257812 89.851562 128.386719 91.039062 128.257812 M 87.347656 39.144531 L 87.21875 39.273438 L 86.964844 39.402344 L 87.03125 39.78125 C 87.75 39.996094 88.789062 40.566406 90.148438 41.5 L 89.828125 42.074219 L 83.59375 53.59375 C 82.449219 55.71875 79.5625 59.769531 74.9375 65.753906 L 73.03125 68.679688 C 67.683594 73.519531 62.785156 81.601562 58.332031 92.933594 C 56.292969 97.980469 52.667969 102.097656 47.449219 105.28125 C 43.292969 107.871094 39.347656 109.523438 35.613281 110.246094 L 25.878906 112.15625 C 21.71875 112.75 19.535156 113.28125 19.324219 113.746094 C 22.207031 115.699219 25.285156 117.925781 28.550781 120.429688 C 27.320312 120.515625 26.769531 120.898438 26.894531 121.574219 C 26.894531 122.210938 28.996094 122.65625 33.195312 122.914062 C 37.351562 123.167969 39.429688 123.890625 39.429688 125.078125 C 39.429688 125.839844 39.09375 126.6875 38.414062 127.621094 C 37.734375 128.554688 37.394531 129.765625 37.394531 131.25 C 37.394531 132.566406 37.457031 133.542969 37.585938 134.179688 C 37.839844 135.539062 38.5625 136.109375 39.75 135.898438 C 41.066406 135.644531 41.914062 135.898438 42.296875 136.660156 C 44.160156 140.652344 45.5625 142.6875 46.496094 142.773438 L 43.25 145.191406 C 42.1875 145.953125 38.859375 147.714844 33.257812 150.472656 C 28.972656 152.554688 26.832031 154.144531 26.832031 155.25 L 26.832031 155.503906 C 25.769531 156.183594 25.136719 156.519531 24.921875 156.519531 L 16.839844 139.972656 C 14.679688 135.347656 13.066406 131.421875 12.003906 128.195312 L 18.050781 128.195312 L 18.179688 127.8125 L 14.421875 123.105469 L 14.042969 123.230469 L 14.042969 123.292969 L 14.042969 122.914062 L 10.734375 117.375 L 10.921875 114.511719 L 10.859375 113.875 L 10.734375 113.621094 L 15.757812 103.945312 C 20.597656 96.816406 23.015625 93.058594 23.015625 92.679688 L 23.015625 92.488281 L 32.558594 84.277344 L 35.742188 81.730469 L 34.722656 82.8125 L 35.613281 83.574219 C 37.226562 83.574219 41.617188 78.527344 48.785156 68.425781 C 50.355469 66.136719 53.027344 64.160156 56.804688 62.507812 C 59.304688 63.058594 61.617188 64.269531 63.738281 66.136719 C 65.816406 67.917969 67.453125 68.808594 68.640625 68.808594 L 68.832031 68.617188 L 69.277344 66.007812 L 69.019531 63.652344 C 69.445312 63.609375 69.65625 63.269531 69.65625 62.632812 C 68.894531 60.597656 68.511719 58.667969 68.511719 56.839844 L 68.765625 54.742188 L 68.832031 54.675781 L 68.832031 54.488281 C 69.636719 51.347656 72.011719 47.972656 75.957031 44.367188 C 77.484375 43.007812 80.707031 41.542969 85.628906 39.972656 L 87.21875 39.210938 L 87.347656 39.144531 M 192.40625 495.214844 L 190.816406 500.5 L 190.816406 501.007812 C 190.902344 501.347656 191.15625 501.515625 191.578125 501.515625 L 191.644531 501.515625 L 191.007812 505.78125 C 191.007812 506.925781 190.328125 508.519531 188.972656 510.554688 C 188.972656 510.851562 189.011719 510.957031 189.097656 510.875 L 198.261719 508.390625 L 200.550781 526.851562 L 194.445312 529.269531 C 178.789062 536.230469 162.140625 539.707031 144.492188 539.707031 L 142.390625 539.707031 L 140.292969 539.515625 L 140.164062 539.582031 L 134.183594 539.007812 L 134.5 540.28125 L 130.171875 539.898438 L 128.582031 534.933594 L 128.835938 535.0625 L 125.335938 527.167969 C 121.859375 519.402344 119.757812 514.183594 119.039062 511.511719 C 114.625 499.121094 111.890625 490.015625 110.828125 484.203125 C 110.277344 481.234375 107.351562 472.132812 102.046875 456.898438 C 101.070312 454.222656 100.203125 448.8125 99.4375 440.664062 L 99.4375 437.484375 L 97.71875 409.476562 C 97.507812 405.445312 97.359375 400.753906 97.273438 395.410156 C 97.273438 388.40625 96.746094 384.035156 95.683594 382.296875 L 88.175781 354.289062 C 85.714844 344.613281 83.804688 334.386719 82.449219 323.609375 C 82.234375 321.785156 81.558594 319.257812 80.410156 316.035156 L 77.992188 308.460938 L 74.8125 293.183594 C 74.003906 289.535156 73.03125 283.210938 71.882812 274.214844 L 70.613281 264.921875 L 71.25 264.921875 L 70.101562 244.550781 C 69.253906 230.804688 68.832031 218.15625 68.832031 206.617188 C 68.832031 202.921875 69.277344 199.785156 70.167969 197.195312 L 72.394531 193.058594 C 73.15625 193.523438 75.660156 193.886719 79.902344 194.140625 L 79.902344 194.457031 L 96.636719 198.660156 C 116.28125 198.660156 130.066406 197.621094 138 195.539062 C 142.117188 194.4375 144.703125 193.121094 145.761719 191.59375 C 147.546875 190.660156 149.792969 189.21875 152.507812 187.265625 C 153.527344 190.449219 155.246094 194.246094 157.664062 198.660156 C 159.191406 201.332031 160.71875 205.363281 162.246094 210.753906 C 164.578125 216.269531 166.234375 224.332031 167.207031 234.941406 C 167.929688 238.25 168.269531 242.28125 168.226562 247.035156 L 168.097656 259.191406 L 168.097656 271.285156 L 169.246094 283.570312 C 169.246094 287.816406 168.289062 291.507812 166.382812 294.648438 C 164.472656 297.785156 163.515625 300.820312 163.515625 303.75 C 163.515625 305.105469 163.6875 306.039062 164.027344 306.550781 L 166.382812 309.988281 L 167.652344 313.359375 C 168.332031 314.675781 169.160156 315.480469 170.136719 315.78125 L 170.199219 315.96875 C 177.242188 319.621094 181.589844 323.863281 183.242188 328.699219 C 183.835938 330.484375 184.175781 332.625 184.261719 335.128906 L 184.324219 341.496094 L 185.28125 367.335938 L 186.296875 393.246094 C 186.339844 395.578125 186.933594 399.863281 188.082031 406.101562 C 189.097656 411.660156 189.5 415.96875 189.289062 419.023438 L 189.542969 419.023438 L 189.605469 418.640625 L 192.535156 459.632812 L 192.027344 475.417969 L 192.40625 495.214844 M 121.136719 272.75 L 120.945312 272.75 L 120.820312 277.140625 C 120.820312 280.324219 121.371094 285.246094 122.472656 291.910156 C 123.617188 299.039062 124.253906 303.792969 124.382812 306.167969 C 124.46875 308.203125 124.722656 310.367188 125.144531 312.660156 L 124.957031 312.914062 C 124.957031 314.273438 126.058594 318.515625 128.265625 325.644531 L 128.582031 325.328125 L 128.265625 323.992188 C 129.535156 327.511719 131.105469 331.269531 132.972656 335.257812 C 134.332031 338.183594 136.132812 343.023438 138.382812 349.769531 L 141.054688 356.960938 C 141.648438 358.617188 142.136719 361.101562 142.519531 364.410156 C 145.316406 371.453125 147.480469 376.335938 149.007812 379.050781 C 151.976562 384.4375 155.859375 389.296875 160.652344 393.625 L 160.84375 393.433594 L 159.761719 387.898438 L 158.9375 382.421875 L 158.492188 382.550781 C 158.066406 380.640625 156.433594 376.226562 153.589844 369.3125 L 147.863281 355.433594 L 138.953125 327.238281 C 135.644531 314.550781 132.824219 305.234375 130.492188 299.292969 L 125.335938 285.355469 C 124.914062 284.292969 124.320312 281.472656 123.554688 276.886719 C 122.960938 273.109375 122.410156 271.222656 121.902344 271.222656 C 121.390625 271.222656 121.136719 271.542969 121.136719 272.175781 L 121.136719 272.75 M 81.683594 330.230469 L 81.621094 329.082031 C 84.292969 343.933594 86.011719 352.675781 86.773438 355.308594 L 90.464844 370.328125 L 93.773438 381.214844 L 93.902344 381.597656 L 93.648438 382.234375 L 95.429688 389.617188 L 95.621094 397.128906 L 95.9375 405.785156 L 95.492188 408.140625 C 95.195312 410.304688 94.835938 411.894531 94.410156 412.914062 L 93.074219 422.269531 C 92.820312 425.027344 92.691406 431.265625 92.691406 440.984375 L 93.074219 482.613281 C 93.203125 487.703125 94.03125 494.601562 95.554688 503.300781 C 95.9375 505.804688 97.082031 509.28125 98.992188 513.738281 L 100.648438 519.976562 C 101.113281 521.632812 101.558594 522.796875 101.984375 523.476562 C 102.875 525.554688 103.636719 527.085938 104.273438 528.058594 L 101.730469 527.742188 C 98.164062 527.105469 96.109375 526.53125 95.554688 526.023438 L 92.375 523.988281 C 91.101562 523.09375 90.445312 522.226562 90.402344 521.375 C 90.234375 515.097656 89.722656 511.742188 88.875 511.320312 L 88.875 508.457031 C 88.875 505.65625 88.089844 497.316406 86.519531 483.441406 L 84.101562 461.796875 C 84.144531 434.46875 83.996094 419.085938 83.65625 415.648438 L 83.71875 412.023438 C 83.71875 390.335938 83.273438 374.742188 82.382812 365.238281 L 82.003906 341.875 C 82.128906 336.613281 82.023438 332.730469 81.683594 330.230469 "/>
<path style=" stroke:none;fill-rule:evenodd;fill:rgb(39.607844%,10.588235%,20.392157%);fill-opacity:1;" d="M 78.949219 155.566406 L 78.882812 155.503906 L 79.011719 155.503906 L 78.949219 155.566406 M 77.613281 156.394531 L 77.800781 156.839844 C 78.015625 157.007812 78.289062 157.179688 78.628906 157.347656 C 78.757812 157.519531 79.03125 157.601562 79.457031 157.601562 L 83.085938 157.984375 L 94.410156 156.839844 L 97.210938 156.457031 L 98.609375 156.457031 L 119.484375 154.992188 L 129.980469 153.785156 C 133.460938 153.316406 135.601562 152.808594 136.410156 152.257812 C 136.960938 151.875 138.085938 151.597656 139.78125 151.429688 L 142.519531 151.175781 L 146.71875 150.410156 L 147.035156 150.664062 C 147.417969 149.945312 147.714844 149.582031 147.925781 149.582031 C 148.859375 149.582031 149.222656 149.921875 149.007812 150.601562 C 149.390625 150.984375 149.539062 151.726562 149.453125 152.828125 L 149.582031 153.273438 L 149.390625 153.71875 C 149.261719 154.1875 149.007812 154.421875 148.628906 154.421875 L 148.5625 154.421875 L 147.226562 155.25 C 145.613281 156.183594 144.808594 156.753906 144.808594 156.964844 L 144.808594 157.03125 L 144.554688 157.03125 L 136.410156 157.792969 L 132.527344 158.8125 L 146.589844 157.859375 L 146.65625 157.667969 L 147.480469 157.285156 L 148.882812 159.894531 C 149.898438 161.550781 150.410156 162.929688 150.410156 164.03125 C 150.410156 165.136719 150.15625 166.769531 149.644531 168.933594 C 149.09375 171.097656 148.816406 172.773438 148.816406 173.960938 L 148.816406 174.980469 C 148.902344 175.617188 149.179688 175.933594 149.644531 175.933594 C 150.238281 175.933594 150.535156 175.679688 150.535156 175.171875 C 150.535156 172.878906 150.707031 171.054688 151.046875 169.695312 L 152.128906 171.414062 C 152.890625 172.644531 153.273438 173.730469 153.273438 174.664062 C 153.273438 175.976562 152.382812 177.613281 150.601562 179.5625 C 149.199219 181.175781 145.953125 182.46875 140.863281 183.445312 L 107.390625 185.546875 L 98.230469 186.4375 L 78.757812 187.457031 C 77.484375 187.457031 76.445312 186.714844 75.640625 185.226562 L 75.128906 184.273438 L 75.320312 183.382812 C 74.8125 181.175781 74.515625 179.542969 74.429688 178.480469 L 74.558594 175.488281 L 74.558594 175.109375 L 74.683594 174.789062 C 76.128906 177.460938 77.527344 178.800781 78.882812 178.800781 C 79.308594 178.800781 79.519531 178.542969 79.519531 178.035156 L 74.9375 172.5625 C 74.558594 172.09375 74.367188 170.992188 74.367188 169.25 L 74.367188 168.488281 L 74.621094 167.851562 C 75.300781 168.699219 75.914062 169.125 76.464844 169.125 L 77.230469 168.933594 L 77.292969 168.296875 L 73.222656 162.3125 C 73.222656 162.058594 73.496094 161.402344 74.046875 160.339844 L 75.128906 158.621094 C 75.765625 157.773438 76.339844 157.199219 76.847656 156.902344 L 77.613281 156.394531 M 104.339844 160.085938 L 116.554688 159.449219 C 113.121094 158.386719 107.964844 158.15625 101.09375 158.75 C 88.875 159.726562 82.765625 160.679688 82.765625 161.613281 L 82.765625 161.867188 L 95.621094 161.421875 L 104.339844 160.085938 M 79.902344 180.710938 C 79.308594 180.710938 79.011719 181.007812 79.011719 181.601562 C 79.011719 182.066406 80.964844 182.726562 84.867188 183.574219 L 93.203125 184.71875 C 94.898438 184.71875 95.746094 184.464844 95.746094 183.957031 L 94.664062 183.765625 C 92.925781 183.808594 90.167969 183.296875 86.394531 182.238281 L 79.902344 180.710938 M 88.367188 168.234375 L 89.320312 168.933594 C 124.277344 168.933594 141.753906 167.640625 141.753906 165.050781 C 141.753906 164.457031 141.5 164.160156 140.992188 164.160156 C 138.65625 164.160156 136.8125 164.457031 135.453125 165.050781 C 134.054688 165.6875 130.875 166.070312 125.910156 166.195312 L 92.757812 167.023438 C 89.828125 167.109375 88.367188 167.511719 88.367188 168.234375 M 90.210938 179.628906 C 92.417969 180.304688 95.21875 180.644531 98.609375 180.644531 L 113.691406 180.390625 L 126.546875 180.328125 L 127.117188 180.136719 L 128.074219 179.945312 L 131.320312 179.691406 L 136.410156 178.800781 L 140.226562 177.527344 L 147.164062 176.699219 C 147.800781 176.65625 148.117188 176.445312 148.117188 176.0625 C 148.332031 175.511719 147.734375 175.234375 146.335938 175.234375 L 134.691406 176.953125 C 127.988281 178.097656 120.945312 178.671875 113.566406 178.671875 L 87.410156 177.652344 C 86.351562 177.652344 85.820312 177.949219 85.820312 178.542969 C 85.820312 179.265625 87.285156 179.628906 90.210938 179.628906 "/>
<path style=" stroke:none;fill-rule:evenodd;fill:rgb(74.117649%,13.333334%,11.764706%);fill-opacity:1;" d="M 160.71875 76.699219 C 162.625 66.558594 163.558594 59.664062 163.515625 56.015625 C 163.433594 53.636719 163.496094 51.875 163.707031 50.730469 L 165.808594 45.511719 L 168.734375 36.664062 C 168.820312 37.046875 169.691406 37.640625 171.34375 38.445312 C 169.476562 43.625 166.785156 53.105469 163.261719 66.898438 L 160.78125 76.699219 L 160.71875 76.699219 M 82.320312 59.070312 L 85.058594 55.058594 L 91.039062 43.410156 L 94.21875 37.683594 C 94.730469 36.238281 95.324219 35.242188 96 34.691406 C 96.636719 34.222656 97.675781 33.882812 99.121094 33.671875 C 97.636719 35.964844 95.621094 39.527344 93.074219 44.367188 C 91.757812 46.785156 88.578125 51.515625 83.53125 58.558594 L 83.210938 59.070312 L 82.765625 59.003906 L 82.320312 59.070312 "/>
<path style=" stroke:none;fill-rule:evenodd;fill:rgb(38.039216%,10.588235%,20%);fill-opacity:1;" d="M 160.71875 76.699219 L 160.84375 76.699219 L 160.910156 77.335938 L 159.382812 82.9375 L 158.746094 85.421875 L 158.746094 85.546875 L 158.679688 85.675781 L 158.617188 85.929688 L 158.171875 88.796875 C 158.171875 92.273438 158.617188 95.542969 159.507812 98.597656 C 160.019531 100.378906 160.886719 102.4375 162.117188 104.773438 L 164.089844 107.890625 L 163.582031 108.972656 L 159.125 100.316406 C 158.449219 99.339844 157.746094 97.535156 157.027344 94.90625 L 156.390625 92.296875 L 158.109375 86.566406 L 158.109375 86.3125 L 158.234375 85.421875 L 158.234375 85.359375 L 159 82.492188 L 160.527344 76.699219 L 160.71875 76.699219 M 82.320312 59.070312 L 82.765625 59.003906 L 83.210938 59.070312 L 83.53125 59.132812 L 83.53125 59.453125 L 83.273438 59.515625 L 83.019531 59.386719 L 82.957031 59.386719 L 74.367188 70.910156 L 76.464844 66.515625 L 80.667969 60.980469 L 82.128906 59.261719 L 82.066406 59.195312 C 82.066406 59.113281 82.152344 59.070312 82.320312 59.070312 "/>
<path style=" stroke:none;fill-rule:evenodd;fill:rgb(12.941177%,10.980392%,13.333334%);fill-opacity:1;" d="M 169.753906 50.730469 L 173 38.765625 L 179.617188 41.691406 C 181.78125 41.863281 183.351562 42.371094 184.324219 43.21875 L 184.835938 43.792969 L 185.28125 43.410156 L 185.851562 43.664062 L 185.28125 44.492188 L 186.042969 45.703125 C 187.0625 47.316406 187.570312 50.371094 187.570312 54.867188 C 187.570312 57.839844 186.957031 61.042969 185.726562 64.480469 L 186.617188 65.371094 C 188.441406 65.371094 189.289062 61.871094 189.160156 54.867188 L 188.972656 50.476562 C 193.128906 53.40625 195.207031 55.355469 195.207031 56.332031 L 194.699219 58.75 C 194.699219 59.898438 195.207031 61.191406 196.226562 62.632812 C 197.457031 64.289062 198.199219 65.648438 198.453125 66.707031 C 198.875 68.40625 198.941406 71.035156 198.644531 74.601562 C 198.644531 80.625 198.199219 84.507812 197.308594 86.25 L 193.871094 98.089844 L 193.871094 98.851562 C 193.957031 99.320312 194.230469 99.550781 194.699219 99.550781 C 195.546875 99.550781 196.882812 95.414062 198.707031 87.140625 L 199.597656 84.277344 L 199.980469 101.460938 L 201.125 112.792969 C 201.589844 116.738281 202.078125 118.988281 202.589844 119.539062 C 202.886719 123.527344 204.050781 131.824219 206.089844 144.425781 L 207.617188 160.914062 C 208.039062 165.113281 208.441406 168 208.824219 169.570312 L 197.878906 174.027344 C 194.824219 174.960938 192.851562 175.425781 191.960938 175.425781 L 188.90625 175.617188 L 188.714844 175.746094 L 188.652344 175.617188 C 188.441406 175.277344 188.335938 174.789062 188.335938 174.152344 C 188.886719 170.546875 189.160156 167.789062 189.160156 165.878906 L 188.90625 157.539062 C 188.90625 156.222656 189.203125 154.503906 189.796875 152.382812 C 190.390625 150.175781 190.6875 148.226562 190.6875 146.527344 C 190.773438 142.582031 191.390625 138.953125 192.535156 135.644531 C 193.296875 133.4375 193.59375 129.808594 193.425781 124.757812 C 193.296875 119.921875 193.722656 116.292969 194.699219 113.875 L 194.699219 113.746094 C 193.042969 114.171875 190.796875 115.167969 187.953125 116.738281 C 187.742188 116.570312 187.632812 116.039062 187.632812 115.148438 C 187.632812 113.917969 187.824219 112.472656 188.207031 110.820312 L 188.90625 106.554688 L 188.90625 106.042969 C 188.101562 106.851562 186.066406 107.253906 182.796875 107.253906 C 181.3125 107.253906 179.785156 106.53125 178.21875 105.089844 C 176.730469 103.730469 175.988281 102.460938 175.988281 101.269531 C 175.988281 100.675781 176.308594 99.871094 176.945312 98.851562 C 177.496094 97.960938 177.6875 96.941406 177.515625 95.796875 L 178.34375 91.722656 L 177.898438 91.722656 L 177.835938 89.496094 C 177.835938 85.804688 178.089844 83.171875 178.597656 81.601562 L 178.597656 78.929688 C 174.355469 82.621094 171.621094 84.464844 170.390625 84.464844 L 165.808594 80.457031 C 166.402344 86.609375 165.277344 92.976562 162.4375 99.550781 L 161.992188 99.425781 L 161.800781 99.171875 L 161.863281 99.105469 C 160.546875 95.882812 159.890625 92.488281 159.890625 88.921875 C 159.890625 87.734375 163.179688 75.003906 169.753906 50.730469 L 169.878906 50.730469 L 169.753906 50.730469 M 166.953125 155.058594 L 166.191406 154.613281 L 166.191406 154.355469 L 166.382812 154.167969 L 166.953125 154.292969 C 166.953125 151.449219 167.378906 148.289062 168.226562 144.808594 L 169.433594 137.933594 C 171.894531 147.484375 173.507812 152.257812 174.273438 152.257812 L 174.527344 152.257812 L 174.972656 151.746094 C 175.480469 156.03125 175.796875 158.386719 175.925781 158.8125 L 175.925781 159.894531 L 175.734375 160.148438 C 175.054688 160.148438 173.464844 159.300781 170.960938 157.601562 L 166.953125 155.058594 M 144.238281 48.886719 C 151.660156 40.058594 155.816406 34.328125 156.707031 31.699219 L 157.917969 32.652344 L 158.109375 32.84375 L 158.363281 32.527344 C 160.695312 32.527344 162.179688 32.800781 162.816406 33.355469 L 163.261719 33.734375 L 164.535156 34.054688 L 167.015625 35.519531 L 166.0625 38.191406 L 164.472656 44.046875 C 163.625 46.507812 162.988281 48.609375 162.5625 50.347656 L 163.199219 50.476562 L 162.371094 51.113281 L 161.992188 51.238281 C 151.765625 51.238281 145.785156 50.605469 144.046875 49.332031 L 144.046875 48.949219 L 144.300781 48.949219 L 144.238281 48.886719 M 152.382812 101.269531 L 152.890625 101.527344 L 152.828125 101.84375 L 152.191406 101.84375 L 151.554688 103.816406 C 149.433594 107.550781 147.84375 110.035156 146.78125 111.265625 L 140.925781 115.910156 C 137.449219 118.542969 135.710938 120.070312 135.710938 120.492188 L 136.601562 121.195312 C 137.109375 121.195312 138.914062 120.027344 142.007812 117.691406 L 147.925781 112.539062 C 150.769531 108.929688 152.507812 106.234375 153.144531 104.453125 L 153.207031 104.453125 L 153.589844 103.117188 L 154.734375 97.832031 L 155.5625 95.097656 C 155.945312 96.921875 156.773438 99.105469 158.046875 101.652344 L 160.527344 106.746094 C 161.714844 109.078125 162.519531 110.265625 162.945312 110.308594 L 160.273438 115.59375 L 157.152344 122.59375 L 156.964844 123.039062 L 157.472656 123.230469 L 156.773438 123.550781 C 155.625 126.011719 154.4375 128.070312 153.207031 129.722656 C 146.71875 138.464844 143.472656 143.132812 143.472656 143.726562 L 143.535156 144.300781 L 144.300781 144.617188 L 147.671875 140.289062 L 147.289062 142.199219 L 146.78125 146.78125 L 146.78125 148.566406 L 146.910156 149.136719 L 146.589844 149.328125 L 145.574219 149.265625 L 136.410156 150.664062 L 136.21875 150.917969 L 135.835938 150.917969 L 135.835938 150.792969 L 128.582031 152 C 119.335938 153.613281 110.59375 154.527344 102.367188 154.738281 L 101.730469 154.800781 L 100.773438 154.613281 C 97.296875 154.613281 94.6875 154.886719 92.949219 155.4375 L 83.210938 156.265625 C 80.878906 156.265625 79.457031 156.054688 78.949219 155.628906 L 79.011719 155.503906 L 79.203125 155.25 L 79.519531 154.546875 L 79.839844 153.976562 L 79.519531 154.039062 L 84.546875 144.492188 C 85.480469 143.429688 86.414062 141.625 87.347656 139.082031 C 89.085938 136.703125 90.167969 134.859375 90.59375 133.542969 C 91.992188 129.339844 93.542969 125.648438 95.238281 122.46875 L 97.082031 117.121094 L 97.65625 116.164062 L 99.183594 113.554688 L 99.5 112.984375 C 100.054688 110.5625 101.539062 107.339844 103.957031 103.308594 C 105.355469 100.972656 106.566406 99.171875 107.582031 97.898438 L 107.710938 97.960938 L 107.648438 97.644531 C 107.648438 97.304688 108.835938 96.75 111.210938 95.988281 C 114.519531 94.925781 118.59375 94.394531 123.429688 94.394531 C 129.960938 94.394531 134.839844 94.90625 138.0625 95.925781 C 139.761719 96.433594 141.246094 97.089844 142.519531 97.898438 C 147.777344 99.59375 151.066406 100.71875 152.382812 101.269531 M 162.691406 34.882812 L 162.5625 34.816406 L 162.4375 34.882812 L 162.691406 34.882812 M 95.367188 43.664062 L 95.367188 43.410156 C 95.367188 43.285156 95.429688 43.21875 95.554688 43.21875 L 95.621094 43.21875 C 97.148438 40.335938 99.332031 36.640625 102.175781 32.144531 L 103.066406 32.144531 C 104.210938 32.144531 106.246094 31.742188 109.175781 30.933594 L 109.300781 30.742188 L 110.128906 30.808594 L 112.039062 30.109375 L 113.628906 29.980469 C 112.441406 31.847656 111.0625 35.136719 109.492188 39.847656 C 108.730469 42.265625 108.113281 44.386719 107.648438 46.210938 L 108.347656 46.273438 L 108.027344 46.65625 L 107.582031 46.65625 C 102.535156 46.613281 98.867188 45.851562 96.574219 44.367188 L 96.449219 44.367188 L 95.621094 44.175781 L 95.621094 43.792969 L 95.367188 43.792969 L 95.367188 43.664062 M 132.210938 112.539062 C 133.226562 112.539062 133.738281 112.242188 133.738281 111.644531 C 133.738281 111.390625 132.527344 111.007812 130.109375 110.5 C 126.757812 109.820312 123.894531 108.992188 121.519531 108.019531 L 111.972656 102.289062 C 111.59375 102.289062 111.335938 102.460938 111.210938 102.796875 L 111.210938 103.246094 C 111.210938 104.390625 113.734375 106.195312 118.78125 108.65625 C 124.128906 111.242188 128.605469 112.539062 132.210938 112.539062 M 105.355469 97.261719 L 106.054688 97.261719 L 106.246094 97.707031 L 105.929688 97.898438 L 105.039062 97.769531 L 102.621094 101.460938 L 102.746094 101.589844 L 101.730469 104.328125 L 98.738281 109.480469 C 97.59375 111.5625 96.871094 113.175781 96.574219 114.320312 L 95.746094 115.59375 C 95.28125 116.695312 94.707031 118.5625 94.03125 121.195312 C 93.433594 122.933594 92.523438 125.097656 91.292969 127.6875 L 91.355469 127.6875 L 91.421875 127.941406 L 91.355469 128.195312 L 91.039062 128.257812 C 89.851562 128.386719 89.085938 128.257812 88.746094 127.878906 C 88.324219 127.367188 87.878906 127.113281 87.410156 127.113281 C 86.816406 127.113281 85.90625 128.109375 84.675781 130.105469 L 82.066406 133.925781 L 82.003906 133.925781 L 81.683594 133.671875 L 82.003906 133.097656 L 81.113281 122.46875 C 80.855469 119.667969 80.261719 116.378906 79.328125 112.601562 L 78.566406 109.671875 C 80.433594 112.09375 82.746094 114.722656 85.503906 117.566406 C 86.097656 117.566406 86.394531 117.246094 86.394531 116.609375 C 86.394531 115.804688 84.761719 113.40625 81.492188 109.417969 C 77.84375 104.960938 75.871094 102.4375 75.574219 101.84375 L 71.820312 94.078125 L 71.25 92.359375 L 71.183594 92.042969 L 71.757812 91.53125 C 72.777344 90.8125 73.410156 90.515625 73.667969 90.640625 L 74.046875 91.023438 C 80.113281 91.023438 85.628906 92.082031 90.59375 94.207031 C 92.332031 95.054688 94.113281 95.691406 95.9375 96.113281 L 98.992188 96.75 L 102.109375 97.261719 L 103.828125 97.386719 L 103.957031 97.132812 L 105.355469 97.261719 M 90.148438 41.5 C 88.789062 40.566406 87.75 39.996094 87.03125 39.78125 L 86.964844 39.402344 L 87.21875 39.273438 L 87.347656 39.144531 L 92.820312 36.34375 C 92.058594 37.535156 91.25 39.0625 90.402344 40.929688 L 90.847656 41.308594 L 90.847656 41.566406 C 90.976562 41.691406 90.867188 41.757812 90.53125 41.757812 L 90.148438 41.5 M 69.019531 63.652344 L 69.277344 66.007812 L 68.832031 68.617188 L 68.640625 68.808594 C 67.453125 68.808594 65.816406 67.917969 63.738281 66.136719 C 61.617188 64.269531 59.304688 63.058594 56.804688 62.507812 L 56.039062 62.316406 C 56.292969 62.0625 56.550781 61.933594 56.804688 61.933594 L 57.628906 62.125 L 58.96875 61.550781 C 60.453125 61 63.125 59.21875 66.984375 56.203125 L 66.921875 56.777344 L 67.304688 60.214844 C 67.558594 61.953125 67.917969 63.035156 68.386719 63.460938 L 68.320312 63.335938 L 68.640625 63.144531 L 69.019531 63.652344 M 14.042969 123.292969 L 14.042969 123.230469 L 14.421875 123.105469 L 18.179688 127.8125 L 18.050781 128.195312 L 11.558594 128.195312 L 11.367188 127.878906 L 11.878906 127.8125 C 10.902344 124.800781 10.414062 122.445312 10.414062 120.75 L 10.476562 120.75 C 11.367188 122.785156 12.300781 123.804688 13.277344 123.804688 C 13.660156 123.804688 13.914062 123.632812 14.042969 123.292969 M 46.496094 142.773438 C 45.5625 142.6875 44.160156 140.652344 42.296875 136.660156 C 41.914062 135.898438 41.066406 135.644531 39.75 135.898438 C 38.5625 136.109375 37.839844 135.539062 37.585938 134.179688 C 37.457031 133.542969 37.394531 132.566406 37.394531 131.25 C 37.394531 129.765625 37.734375 128.554688 38.414062 127.621094 C 39.09375 126.6875 39.429688 125.839844 39.429688 125.078125 C 39.429688 123.890625 37.351562 123.167969 33.195312 122.914062 C 28.996094 122.65625 26.894531 122.210938 26.894531 121.574219 C 26.769531 120.898438 27.320312 120.515625 28.550781 120.429688 C 25.285156 117.925781 22.207031 115.699219 19.324219 113.746094 C 19.535156 113.28125 21.71875 112.75 25.878906 112.15625 L 35.613281 110.246094 C 39.347656 109.523438 43.292969 107.871094 47.449219 105.28125 C 52.667969 102.097656 56.292969 97.980469 58.332031 92.933594 C 62.785156 81.601562 67.683594 73.519531 73.03125 68.679688 L 73.09375 68.617188 L 72.964844 68.808594 C 71.734375 71.101562 71.058594 73.453125 70.929688 75.875 C 69.53125 78.84375 68.832031 82.515625 68.832031 86.886719 C 68.832031 90.027344 69.128906 92.230469 69.722656 93.503906 L 70.039062 94.207031 C 69.234375 94.207031 68.238281 95.140625 67.046875 97.007812 L 65.011719 100.125 L 57.058594 105.34375 L 52.03125 111.457031 L 48.785156 114.445312 C 47.765625 115.125 46.578125 115.71875 45.222656 116.230469 C 44.542969 116.484375 44.160156 116.78125 44.078125 117.121094 L 35.421875 116.800781 L 32.941406 115.976562 C 32.347656 115.976562 32.050781 116.25 32.050781 116.800781 C 32.050781 118.03125 34.808594 118.648438 40.324219 118.648438 L 44.902344 118.585938 L 45.03125 118.585938 L 45.730469 119.03125 C 46.367188 119.285156 46.6875 119.601562 46.6875 119.984375 C 46.6875 121.808594 45.242188 124.84375 42.359375 129.085938 L 42.421875 129.53125 C 42.507812 129.789062 42.824219 129.914062 43.375 129.914062 C 44.4375 129.914062 45.539062 128.429688 46.6875 125.457031 L 50.695312 131.824219 L 52.792969 136.214844 C 51.945312 136.980469 50.929688 138.253906 49.738281 140.035156 L 46.941406 142.453125 L 47.066406 142.582031 L 46.558594 142.773438 L 46.496094 142.773438 M 99.054688 100.953125 C 98.675781 100.953125 98.164062 101.398438 97.527344 102.289062 L 95.9375 103.816406 L 90.53125 105.152344 C 89.722656 105.367188 89.320312 105.726562 89.320312 106.234375 L 90.273438 107 C 93.457031 107 95.980469 106.300781 97.847656 104.898438 C 99.246094 103.839844 99.945312 102.796875 99.945312 101.78125 C 99.863281 101.226562 99.566406 100.953125 99.054688 100.953125 M 72.394531 193.058594 L 72.265625 192.929688 L 72.265625 192.738281 L 72.519531 192.613281 L 72.648438 192.613281 L 74.9375 187.710938 L 74.8125 187.074219 C 76.210938 188.433594 78.375 189.109375 81.300781 189.109375 C 93.136719 189.109375 102.34375 188.476562 108.917969 187.203125 L 144.617188 184.71875 C 146.910156 184.847656 148.5625 184.273438 149.582031 183 L 152.445312 180.199219 C 153.207031 179.351562 153.800781 178.503906 154.226562 177.652344 L 156.453125 181.535156 L 156.707031 181.28125 L 157.027344 181.664062 L 156.835938 182.238281 L 164.152344 195.476562 L 165.808594 200.25 C 166.613281 201.226562 167.058594 202.816406 167.144531 205.023438 C 167.1875 206.679688 167.527344 208.609375 168.164062 210.816406 C 168.542969 212.21875 168.925781 213.214844 169.308594 213.808594 C 169.351562 215.378906 169.839844 217.5 170.773438 220.171875 L 172.679688 226.601562 L 174.207031 239.777344 C 175.269531 255.226562 176.394531 263.859375 177.582031 265.683594 C 176.945312 266.535156 175.988281 268.742188 174.71875 272.304688 C 173.148438 276.84375 172.363281 279.753906 172.363281 281.023438 C 172.363281 282.59375 172.660156 285.035156 173.253906 288.34375 L 171.535156 294.136719 L 170.644531 297.066406 L 168.925781 298.148438 C 168.289062 298.613281 167.972656 299.25 167.972656 300.058594 L 167.78125 303.429688 C 167.78125 305.933594 169.859375 308.183594 174.015625 310.179688 C 175.203125 310.730469 178.386719 312.980469 183.5625 316.925781 C 184.242188 316.925781 184.582031 316.648438 184.582031 316.097656 L 184.453125 315.84375 L 184.515625 315.78125 L 185.40625 315.96875 L 190.054688 315.523438 L 192.214844 338.3125 C 193.023438 345.695312 193.636719 353.824219 194.0625 362.691406 C 194.699219 373.851562 195.460938 384.417969 196.351562 394.390625 L 195.398438 389.808594 C 194.804688 389.808594 194.507812 390.1875 194.507812 390.953125 L 197.753906 408.648438 L 197.878906 409.285156 L 198.070312 411.195312 L 198.199219 411.257812 C 200.023438 422.589844 200.933594 430.949219 200.933594 436.335938 C 200.933594 441.046875 200.425781 445.84375 199.40625 450.722656 C 198.304688 455.855469 197.6875 461.714844 197.5625 468.289062 C 197.519531 470.667969 196.734375 476.015625 195.207031 484.332031 L 192.851562 493.75 L 192.789062 495.660156 L 192.40625 495.789062 L 192.40625 495.214844 L 192.027344 475.417969 L 192.535156 459.632812 L 189.605469 418.640625 L 189.542969 419.023438 L 189.289062 419.023438 C 189.5 415.96875 189.097656 411.660156 188.082031 406.101562 C 186.933594 399.863281 186.339844 395.578125 186.296875 393.246094 L 185.28125 367.335938 L 184.324219 341.496094 L 184.261719 335.128906 C 184.175781 332.625 183.835938 330.484375 183.242188 328.699219 C 181.589844 323.863281 177.242188 319.621094 170.199219 315.96875 L 170.136719 315.78125 C 169.160156 315.480469 168.332031 314.675781 167.652344 313.359375 L 166.382812 309.988281 L 164.027344 306.550781 C 163.6875 306.039062 163.515625 305.105469 163.515625 303.75 C 163.515625 300.820312 164.472656 297.785156 166.382812 294.648438 C 168.289062 291.507812 169.246094 287.816406 169.246094 283.570312 L 168.097656 271.285156 L 168.097656 259.191406 L 168.226562 247.035156 C 168.269531 242.28125 167.929688 238.25 167.207031 234.941406 C 166.234375 224.332031 164.578125 216.269531 162.246094 210.753906 C 160.71875 205.363281 159.191406 201.332031 157.664062 198.660156 C 155.246094 194.246094 153.527344 190.449219 152.507812 187.265625 C 149.792969 189.21875 147.546875 190.660156 145.761719 191.59375 C 144.703125 193.121094 142.117188 194.4375 138 195.539062 C 130.066406 197.621094 116.28125 198.660156 96.636719 198.660156 L 79.902344 194.457031 L 79.902344 194.140625 C 75.660156 193.886719 73.15625 193.523438 72.394531 193.058594 M 191.644531 501.515625 L 191.644531 501.199219 L 192.027344 501.390625 C 193.339844 500.414062 194.910156 495.046875 196.734375 485.285156 C 198.347656 476.796875 199.171875 471.347656 199.214844 468.925781 C 199.386719 461.628906 200 455.582031 201.0625 450.785156 C 202.039062 446.289062 202.523438 441.472656 202.523438 436.335938 C 202.523438 431.753906 202.398438 428.316406 202.144531 426.023438 L 200.363281 413.105469 L 199.660156 409.792969 L 199.597656 408.902344 L 200.933594 410.683594 L 204.941406 417.558594 L 211.433594 431.4375 C 216.777344 443.273438 219.664062 452.503906 220.089844 459.125 C 220.640625 466.890625 221.890625 476.078125 223.84375 486.6875 L 226.453125 503.871094 C 227.214844 508.835938 227.894531 512.0625 228.488281 513.546875 L 226.386719 514.4375 C 224.054688 515.457031 222.507812 516.433594 221.742188 517.367188 C 220.554688 518.722656 217.777344 520.0625 213.40625 521.375 C 212.21875 522.054688 208.0625 523.835938 200.933594 526.722656 L 200.933594 527.488281 L 200.617188 527.550781 L 200.550781 526.851562 L 198.261719 508.390625 L 189.097656 510.875 C 189.011719 510.957031 188.972656 510.851562 188.972656 510.554688 C 190.328125 508.519531 191.007812 506.925781 191.007812 505.78125 L 191.644531 501.515625 M 158.492188 382.550781 L 158.9375 382.421875 L 159.761719 387.898438 L 160.84375 393.433594 L 160.652344 393.625 C 155.859375 389.296875 151.976562 384.4375 149.007812 379.050781 C 147.480469 376.335938 145.316406 371.453125 142.519531 364.410156 C 142.136719 361.101562 141.648438 358.617188 141.054688 356.960938 L 138.382812 349.769531 C 136.132812 343.023438 134.332031 338.183594 132.972656 335.257812 C 131.105469 331.269531 129.535156 327.511719 128.265625 323.992188 L 128.582031 325.328125 L 128.265625 325.644531 C 126.058594 318.515625 124.957031 314.273438 124.957031 312.914062 L 125.144531 312.660156 C 124.722656 310.367188 124.46875 308.203125 124.382812 306.167969 C 124.253906 303.792969 123.617188 299.039062 122.472656 291.910156 C 121.371094 285.246094 120.820312 280.324219 120.820312 277.140625 L 120.945312 272.75 L 121.199219 272.75 L 121.199219 273.707031 C 121.457031 276.886719 122.496094 281.257812 124.320312 286.816406 L 128.964844 300.058594 C 131.128906 306.335938 133.992188 315.652344 137.554688 328 C 139.632812 334.027344 142.5625 343.363281 146.335938 356.007812 C 147.734375 360.335938 149.941406 366.191406 152.953125 373.574219 C 155.839844 380.578125 157.410156 384.078125 157.664062 384.078125 L 158.492188 383.761719 L 158.046875 382.613281 L 158.492188 382.550781 "/>
<path style=" stroke:none;fill-rule:evenodd;fill:rgb(70.588237%,62.352943%,75.294119%);fill-opacity:1;" d="M 96.128906 412.085938 L 96.128906 412.148438 L 97.148438 430.542969 L 97.65625 437.484375 L 97.65625 441.554688 L 97.847656 442.894531 C 98.867188 450.445312 99.820312 455.601562 100.710938 458.359375 L 104.019531 467.910156 L 103.828125 468.289062 C 103.828125 468.671875 104.125 469.5625 104.71875 470.964844 L 104.785156 471.28125 L 104.339844 471.601562 C 104.339844 473.253906 104.972656 476.351562 106.246094 480.894531 L 106.4375 490.441406 L 107.582031 509.601562 C 107.582031 512.953125 107.285156 518.320312 106.691406 525.703125 L 106.820312 528.886719 L 105.929688 528.441406 C 105.546875 527.167969 104.824219 525.703125 103.765625 524.050781 L 103.382812 523.476562 L 103.382812 523.09375 C 97.699219 509.050781 94.644531 495.386719 94.21875 482.101562 L 93.839844 441.046875 C 93.839844 433.832031 93.964844 427.765625 94.21875 422.84375 L 96.128906 412.085938 "/>
</g>
</svg>
