<?xml version="1.0" encoding="UTF-8" standalone="no"?>
<svg
   xmlns:dc="http://purl.org/dc/elements/1.1/"
   xmlns:cc="http://creativecommons.org/ns#"
   xmlns:rdf="http://www.w3.org/1999/02/22-rdf-syntax-ns#"
   xmlns:svg="http://www.w3.org/2000/svg"
   xmlns="http://www.w3.org/2000/svg"
   xmlns:sodipodi="http://sodipodi.sourceforge.net/DTD/sodipodi-0.dtd"
   xmlns:inkscape="http://www.inkscape.org/namespaces/inkscape"
   width="290px"
   height="542px"
   viewBox="0 0 290 542"
   version="1.1"
   id="svg23"
   sodipodi:docname="66.svg"
   inkscape:version="1.0.1 (0767f8302a, 2020-10-17)">
  <metadata
     id="metadata29">
    <rdf:RDF>
      <cc:Work
         rdf:about="">
        <dc:format>image/svg+xml</dc:format>
        <dc:type
           rdf:resource="http://purl.org/dc/dcmitype/StillImage" />
        <dc:title></dc:title>
      </cc:Work>
    </rdf:RDF>
  </metadata>
  <defs
     id="defs27" />
  <sodipodi:namedview
     pagecolor="#ffffff"
     bordercolor="#666666"
     borderopacity="1"
     objecttolerance="10"
     gridtolerance="10"
     guidetolerance="10"
     inkscape:pageopacity="0"
     inkscape:pageshadow="2"
     inkscape:window-width="1605"
     inkscape:window-height="1170"
     id="namedview25"
     showgrid="false"
     inkscape:zoom="1.8597786"
     inkscape:cx="145"
     inkscape:cy="120.44444"
     inkscape:window-x="4216"
     inkscape:window-y="155"
     inkscape:window-maximized="0"
     inkscape:current-layer="svg23" />
  <path
     style="fill:#681723;fill-opacity:1;fill-rule:evenodd;stroke:none"
     d="m 146.78125,154.35547 v 0.0664 h -0.19141 l 0.19141,-0.0664 m -44.22656,-22.33985 -0.44531,-0.32031 -0.0625,-0.2539 0.38281,-0.31641 -0.32031,0.57031 0.76562,0.25781 -0.12891,0.0625 h -0.1914"
     id="path2" />
  <path
     style="fill:#000000;fill-opacity:1;fill-rule:evenodd;stroke:none"
     d="m 177.83594,47.421875 0.2539,0.570313 0.50782,-0.1875 V 46.53125 l 0.95703,-0.890625 -0.82813,-0.894531 1.08203,1.019531 2.09766,-1.972656 -2.54297,-2.355469 c -1.01953,-0.933594 -2.35547,-1.546875 -4.01172,-1.847656 l -1.14453,-0.253906 0.57422,0.703124 1.52734,1.84375 -5.47265,-3.246093 c -6.61719,-3.5625 -10.01172,-6.066407 -10.1836,-7.511719 -0.46484,-0.71875 -0.69922,-2.734375 -0.69922,-6.046875 l 0.12891,-2.800781 -4.51953,-0.382813 1.40234,3.4375 0.125,3.3125 c 0,1.652344 -0.57031,4.03125 -1.71875,7.128907 l -1.01562,2.480468 0.0625,0.06641 -0.31641,0.824219 -0.25781,0.382813 -3.05469,3.757812 -4.39062,4.773438 c -4.19922,4.582031 -7.52735,7.699218 -9.98828,9.355468 -5.72657,2.972657 -10.2461,5.496094 -13.55469,7.574219 l -6.67969,4.457031 -3.375,3.4375 v 1.398438 c -0.33984,4.203125 -0.89062,7.257812 -1.65234,9.167969 l 26.98047,-4.902344 h 3.8164 l 4.19922,0.382813 c -4.24219,-0.253907 -11.17578,0.699218 -20.80859,2.863281 l -13.36328,2.355469 -1.26953,0.253906 c -0.55469,0.890625 -1.16797,1.359375 -1.84766,1.402344 l -1.46484,5.21875 c -0.25391,0.04297 -0.48438,0.273437 -0.69922,0.699218 l 0.44531,0.320313 -0.125,0.316406 17.24219,-0.0625 20.17187,0.253906 0.0664,0.253907 -0.25391,0.445312 -37.54687,0.320312 -0.82813,7.507814 -0.125,15.46875 0.95313,0.44531 c 6.74609,3.14062 11.39062,5.11328 13.9375,5.92187 l 5.66406,2.22657 c 2.6289,1.01953 4.47265,1.52734 5.53515,1.52734 l 4.89844,0.50781 c 2.92969,0.46875 4.53906,1.14844 4.83594,2.03906 l -0.57031,0.38282 c -6.83203,0 -19.5586,-4.35157 -38.17969,-13.05078 l -0.44531,3.12109 c -0.33985,1.27344 -0.51172,2.80078 -0.51172,4.58203 0,1.69531 0.19141,3.98828 0.57422,6.875 l -0.38281,0.31641 0.0625,0.2539 0.44531,0.32031 0.76562,5.28125 c 0.9336,5.98438 1.39844,11.22657 1.39844,15.72266 l -0.44531,5.21875 c 0.29687,1.91016 0.44531,4.58594 0.44531,8.02344 8.10547,3.39453 15.125,5.85547 21.0625,7.38281 l 0.12891,0.25391 c 0,0.2539 -0.29688,0.38281 -0.89063,0.38281 -1.69922,0 -8.46484,-2.41797 -20.30078,-7.25781 l -0.89062,5.60156 13.30078,2.67187 c 0,0.29688 -0.40235,0.44922 -1.21094,0.44922 l -12.34375,-2.16797 -0.31641,1.08594 c -1.27343,4.28516 -2.05859,7.25391 -2.35547,8.91016 -1.484371,8.14844 -2.035152,13.96094 -1.656246,17.4414 l -0.253906,0.19141 h 0.253906 l 13.300786,0.31641 c 6.70312,0 13.38281,-1.0625 20.04296,-3.1836 3.4375,-1.10156 6.7461,-2.375 9.92969,-3.8164 l 11.45313,-3.2461 1.27343,-0.32031 0.0625,0.0625 0.31641,-0.19141 0.19141,-0.0625 4.32812,-1.65625 1.08203,-1.78125 c 0,-0.46484 -1.42187,-3.11718 -4.26172,-7.95703 L 155.5,176.76172 h -0.12891 c -0.3789,0 -1.88672,-2.90625 -4.51562,-8.71875 l 0.2539,8.71875 v 0.51172 l -0.50781,0.1875 c -0.67969,0 -1,-1.41797 -0.95703,-4.26172 v -6.75 c -0.21094,-1.78125 -0.74219,-3.75391 -1.58984,-5.91797 -0.63672,-1.65625 -0.97657,-3.11719 -1.01953,-4.39063 l -0.25391,-0.63671 v -1.40235 l -0.0625,0.12891 -0.12891,0.1914 c -2.28906,3.98829 -5.04687,7.21094 -8.26953,9.67579 l -0.57422,-0.57422 c 4.24219,-2.97266 7.10547,-6.66407 8.58985,-11.07422 L 148.5,146.78125 c 0.25391,-0.50781 0.38281,-1.44141 0.38281,-2.80078 0,-0.63672 0.0625,-1.16406 0.19141,-1.58985 v -0.0625 l -0.0664,0.0625 c -1.86719,2.33204 -3.13672,3.64844 -3.8164,3.94532 h -0.89063 l -0.19141,-0.57032 4.96485,-5.53906 c 1.35547,-1.52734 1.90625,-3.375 1.65234,-5.53906 -0.21094,-2.33203 1.80469,-5.55859 6.04688,-9.67578 l -0.12891,-0.1875 5.85547,-9.23047 0.0625,-0.12891 -0.38281,-0.0625 -0.1875,-0.51171 0.44531,-0.37891 2.22656,-4.58594 c 1.65235,-3.35156 2.48047,-6.19531 2.48047,-8.52734 l -0.31641,-3.566409 0.63282,0.191407 h 0.44531 l 1.21094,-7.0625 h 0.1289 l 0.37891,-0.382813 -0.37891,-0.445313 0.76172,-4.710937 v -7.320313 l 0.0625,-0.574218 -0.2539,0.511718 -0.19141,0.570313 0.63672,-4.519531 v -0.0625 l 0.1914,-0.636719 0.44532,-1.082031 0.1914,-0.507813 0.25391,-1.402343 c 0,-2.289063 0.35937,-3.964844 1.08203,-5.027344 l 0.0625,-0.0625 v -0.06641 h -0.125 l -0.19141,0.06641 0.50782,-1.785156 c 0.55078,-4.285157 1.14453,-7.507813 1.78125,-9.671876 0.67968,-2.503906 1.80468,-4.648437 3.375,-6.429687 m 5.59765,-3.691406 c 0,0.550781 -1.67578,2.3125 -5.02734,5.28125 h -0.31641 c -1.27343,1.953125 -1.97265,3.90625 -2.10156,5.855469 -0.043,1.148437 -0.63672,2.757812 -1.78125,4.839843 l -0.50781,4.773438 -0.0625,0.445312 0.0625,0.0625 c 0,1.78125 -0.65625,4.519531 -1.97266,8.210938 l -0.89062,12.984375 c -0.043,1.53125 -0.44532,3.90625 -1.21094,7.128906 l -0.31641,4.011719 c -0.1289,1.402343 -0.46875,2.355469 -1.01953,2.863281 v 1.27344 c 0,1.78515 -0.65625,4.39453 -1.97265,7.83203 l -1.84375,4.13672 0.0625,0.1914 c 0,0.84766 -2.03516,4.32813 -6.10938,10.4375 l 0.19141,0.63672 c 0,0.55078 -1.67578,2.56641 -5.02735,6.04688 -1.01562,1.35937 -1.57031,2.4414 -1.65234,3.24609 l 0.125,2.67188 c 0,1.0625 -0.78516,2.69531 -2.35547,4.90234 l 0.32031,2.48437 c 0,2.58594 -0.87109,5.5586 -2.60937,8.91016 l 0.44531,1.46484 1.21094,3.75391 c 1.05859,3.30859 1.60937,5.66406 1.65234,7.06641 l 0.0625,1.58984 0.38281,-0.0625 c 0.80469,0 2.3125,3.01172 4.51954,9.03906 l 1.01562,1.84375 3.75781,5.15625 c 1.26953,1.74219 1.90625,3.3125 1.90625,4.71094 l -0.50781,1.40234 v 0.0625 c 0,0.84766 -2.88672,2.03516 -8.65625,3.5625 -1.60937,0.33985 -3.24219,0.8711 -4.89844,1.59375 -2.20703,0.38282 -4.24218,0.9336 -6.10937,1.65235 l -9.92578,3.88281 c -6.40625,1.99609 -12.98047,2.99219 -19.72656,2.99219 -20.10938,0 -32.773442,-2.07813 -37.988286,-6.23828 -1.867188,-1.48438 -2.90625,-3.35157 -3.121094,-5.60157 l 0.128906,-5.47265 1.335938,-10.88281 -0.0625,-0.25782 0.191406,-0.57031 v -0.19141 l 0.125,-0.63671 0.06641,0.0625 2.097656,-7.32032 -0.507812,-1.46093 c 0,-0.63672 0.296875,-1.86719 0.890625,-3.69532 0.464844,-1.4414 0.933594,-2.375 1.398437,-2.80078 l 0.699219,-2.60937 1.71875,-6.36328 1.210938,-6.42969 0.507812,-6.36328 c 0,-2.92969 -0.167969,-5.85938 -0.507812,-8.78516 v -4.13672 c -0.976563,-3.4375 -1.824219,-5.9414 -2.546875,-7.51172 -1.484375,-3.22656 -2.226563,-6.15234 -2.226563,-8.78515 v -0.82813 l 0.253907,-1.91015 -0.0625,-0.0625 c -2.035157,-2.75782 -3.265626,-4.792972 -3.691407,-6.109379 L 71.56642,96.179688 69.976576,92.296875 c -0.382812,-0.933594 -0.574218,-3.140625 -0.574218,-6.621094 0,-4.285156 1.105468,-8.507812 3.308594,-12.667969 2.164062,-4.074218 5.367187,-8.082031 9.609374,-12.027343 l 0.445313,-1.148438 c 3.183594,-9.039062 4.773437,-14.425781 4.773437,-16.167969 l -0.890624,-6.171874 c 0,-0.339844 0.59375,-0.871094 1.78125,-1.59375 1.230468,-0.675782 2.183593,-1.015626 2.863281,-1.015626 l 0.445312,0.191407 6.808594,-1.59375 c 6.535151,-1.398438 12.027341,-2.925781 16.480461,-4.582031 h 0.0664 l 0.95313,-2.292969 c 0,-1.144531 -0.21094,-2.355469 -0.63672,-3.628907 v -1.015624 l -0.12891,-0.06641 -0.0625,-0.445312 c 0,-1.144531 0.44531,-1.71875 1.33594,-1.71875 0.63672,0 1.89062,0.339843 3.7539,1.019531 0.25782,0 0.44532,0.08594 0.57422,0.253906 l 0.44532,0.191406 0.1914,-0.253906 0.38281,0.445313 0.19141,0.0625 v 0.191406 c 0,0.765625 -0.89453,3.820313 -2.67578,9.167969 -0.043,3.648437 -0.55078,6.238281 -1.52734,7.765625 -0.29688,3.734375 -1.54688,9.355469 -3.75391,16.867187 -2.16406,7.296875 -3.16016,12.984375 -2.98828,17.058594 1.10156,-2.078125 5.08984,-5.15625 11.96094,-9.230469 2.29296,-1.355469 4.625,-2.671875 6.99999,-3.945312 v -0.0625 L 145.38281,41.375 l 4.32422,-4.519531 c 1.78516,-1.910157 2.78125,-3.460938 2.99219,-4.648438 0.1289,-4.199219 0.57422,-7.171875 1.33594,-8.910156 l -0.19141,-1.273437 c 0,-0.339844 0.0664,-0.636719 0.19141,-0.890626 h 0.0664 l 0.25391,-0.382812 0.0625,0.0625 1.20703,-0.316406 3.62891,0.574218 0.95312,0.316407 0.32031,-1.273438 0.38282,1.464844 0.3789,0.191406 -0.3164,0.382813 0.3164,7.957031 v 0.0625 c 1.01953,1.355469 3.35156,3.160156 7,5.410156 v -0.191406 l 0.82813,-0.128906 c 0.50781,0 1.65625,0.746093 3.4375,2.230469 l 5.47265,1.71875 c 3.60547,2.332031 5.40625,3.839843 5.40625,4.519531 M 156.07422,27.945312 155.5625,24.824219 v 0.507812 l 0.51172,2.613281 m -4.77344,12.984376 c -0.12891,-0.128907 -0.19141,-0.320313 -0.19141,-0.574219 l 1.14454,-0.445313 1.58984,-2.101562 c 0.33984,-0.890625 0.51172,-2.015625 0.51172,-3.371094 l 1.46094,-4.074219 c -0.37891,-0.46875 -0.74219,-1.402343 -1.08204,-2.800781 -0.125,3.519531 -0.91015,6.363281 -2.35156,8.527344 l -6.9375,7.574218 c -1.10156,1.910157 -2.26953,3.3125 -3.5,4.203126 -1.73828,1.273437 -2.99219,2.714843 -3.7539,4.328124 -0.42579,0.890626 -1.57032,2.207032 -3.4375,3.945313 l -1.78125,1.65625 2.73828,-1.402344 4.96093,-4.582031 c 2.1211,-2.121094 3.94532,-3.710938 5.47266,-4.773438 1.61328,-1.144531 3.11719,-2.757812 4.51953,-4.835937 l 0.82813,-1.148437 0.0625,-0.125 h -0.25391 m -6.80859,71.035152 3.05468,-2.29296 11.57813,-8.78125 0.44531,0.50781 c 0,0.80469 -3.7539,3.7539 -11.26172,8.84765 -3.35156,3.05469 -8.46484,5.02735 -15.33593,5.91797 l -0.50782,-0.3789 6.8711,-1.71875 c 2.16406,-0.51172 3.88281,-1.21094 5.15625,-2.10157 M 100.20313,34.054688 97.273438,34.5 c -2.417969,0.976562 -4.347657,1.464844 -5.789063,1.464844 l -0.253906,-0.06641 -1.464844,0.636718 c -1.1875,0.46875 -1.78125,0.914063 -1.78125,1.339844 l 0.699219,5.917969 c 0,2.25 -0.871094,5.855469 -2.609375,10.820312 l -2.035157,5.21875 -0.382812,0.890625 0.0625,0.128906 -0.316406,0.382813 -0.574219,0.699219 -0.0625,-0.0625 c -3.222656,3.4375 -6.277344,7.148437 -9.164063,11.136718 l -0.125,0.191407 C 73.179688,73.625 72.480469,75.789062 71.375,79.691406 c -0.421875,1.570313 -0.699219,2.992188 -0.828125,4.265625 v 0.128907 h -0.1875 v 0.636718 l 0.125,0.445313 -0.0625,0.699219 c 0,2.96875 0.234375,5.070312 0.699219,6.300781 0.296875,0.933593 1.019531,2.269531 2.164062,4.011719 l 1.335938,2.097656 -0.0625,0.320312 v 0.0625 l 5.152344,7.128904 2.671874,3.75782 c 0.808594,1.10156 3.351563,3.30859 7.636719,6.61718 1.441407,1.31641 4.199219,3.50391 8.273438,6.5586 0,0.21093 -0.148438,0.3164 -0.445313,0.3164 -1.019531,0 -3.605468,-1.71875 -7.761718,-5.15625 l -8.847657,-7.95703 -0.125,-0.125 -3.4375,-4.01172 -0.253906,-0.3164 0.191406,0.3164 2.925781,4.51953 0.0625,0.0664 c 2.164063,3.17969 5.070313,7.08594 8.71875,11.71094 l -0.0625,0.44531 c 0.125,0.0859 0.04297,0.125 -0.253906,0.125 -0.511718,0 -2.90625,-2.79687 -7.191406,-8.39844 l -4.074219,-6.30468 -0.636719,-1.33594 v 1.27344 l -0.0625,0.44531 c 0.210938,1.52734 0.722657,3.24609 1.527344,5.15625 1.992188,5.13281 3.03125,8.44531 3.117188,9.92969 l -0.316406,0.38281 -0.06641,0.0625 0.128907,0.0625 0.253906,0.1289 0.382812,5.41016 0.191406,6.68359 c 0,4.79688 -0.574218,9.20703 -1.71875,13.23828 -0.296874,2.76172 -0.976562,5.85938 -2.035156,9.29297 l -0.253906,-0.125 -1.082031,2.16407 c -0.851563,1.1875 -1.273438,2.29296 -1.273438,3.30859 l 0.0625,0.44531 c 0.382813,0.043 0.507813,0.29688 0.382813,0.76563 l -0.0625,0.82812 c 0.71875,1.82422 2.394531,3.73438 5.023437,5.72656 3.566407,2.71485 5.347657,4.2461 5.347657,4.58204 v 0.25781 l -0.382813,0.0625 0.0625,0.1914 -0.316406,0.0625 -3.816407,-3.24609 c -2.378906,-1.23047 -3.777343,-2.3125 -4.203124,-3.24609 l -1.90625,-3.3086 -1.148438,3.2461 c -0.210938,0.46484 -0.378906,1.33593 -0.507812,2.60937 l -0.316407,1.20703 c -0.554687,1.95313 -0.933593,3.96875 -1.148437,6.04688 l -0.316406,0.70312 0.191406,0.37891 v 0.38281 c -0.128906,1.23047 -0.191406,2.48438 -0.191406,3.75781 l 0.0625,5.41016 c 0.382812,2.12109 1.550781,3.85938 3.5,5.21875 3.480468,2.46094 10.160156,4.09375 20.046874,4.90234 -0.171874,-0.42578 -0.277343,-1.04296 -0.320312,-1.84765 V 196.75 c 0,-3.48047 1.105469,-9.125 3.308594,-16.93359 l 1.527349,-6.17188 0.1289,-0.57422 -0.2539,-0.0625 -0.32031,0.44531 -0.507821,-0.57421 -15.71875,-3.2461 v -0.3164 c 0,-0.25391 0.191407,-0.38282 0.574219,-0.38282 l 15.335942,2.99219 1.08203,-6.42969 c -9.250003,-3.82031 -14.847659,-6.25781 -16.800784,-7.32031 0,-0.38281 0.128906,-0.57422 0.382812,-0.57422 0.296875,0 5.109375,2.08203 14.445313,6.23828 l 2.097659,0.95703 0.25391,-1.97265 0.1914,-5.03125 -0.2539,-2.67188 c -0.0859,-1.10547 0.0625,-1.86718 0.44531,-2.29297 -0.125,-1.4414 -0.19141,-3.47656 -0.19141,-6.10937 -0.082,-3.14063 -0.52734,-5.87891 -1.33593,-8.21094 -0.593758,-1.78125 -0.996102,-4.8789 -1.207039,-9.29297 l 0.125,-0.32031 -0.0625,-0.31641 h -0.0625 l -0.128906,-5.73046 v -0.95313 c 0,-3.35156 0.425781,-5.53906 1.273445,-6.55469 l -4.136727,-1.97656 c 0.210938,-0.42187 0.488282,-0.63672 0.828125,-0.63672 0.253907,0 1.949219,0.70313 5.089852,2.10157 0.29687,-0.55079 0.44531,-1.63282 0.44531,-3.2461 l -0.25391,-10.82031 c 0,-3.183595 0.21094,-5.582032 0.63672,-7.191408 l -4.835941,0.0625 -5.855468,0.382813 -1.972656,0.316406 -7.445313,0.636719 h -1.71875 l -1.90625,-0.191406 1.90625,-0.125 9.164063,-0.765625 12.980475,-1.398438 v -0.191406 l 0.38281,-0.320313 v -0.316406 h -0.31641 l 0.0625,-0.253906 c 0.33985,-2.972656 1.01953,-4.964844 2.03516,-5.984375 l -15.144535,2.671875 -9.164063,1.273438 h -0.378906 l -1.082031,0.0625 -0.445313,-0.1875 0.699219,-0.191407 1.207031,-0.382812 9.164063,-1.78125 5.601562,-0.890625 9.863283,-1.53125 -0.95703,-1.015625 c 0,-0.59375 0.78516,-2.484375 2.35547,-5.664063 l 2.67187,-4.902344 c -0.76171,-0.722656 -1.42187,-2.121093 -1.97265,-4.203124 -0.59375,-2.246094 -0.89063,-3.945313 -0.89063,-5.089844 0,-3.140625 0.61719,-6.726563 1.84766,-10.757813 l 3.625,-10.949219 c 0.46875,-1.65625 1.29297,-3.351562 2.48047,-5.089843 v -0.06641 l 1.33984,-3.117187 0.0625,-0.191406 L 116.74609,31 l 0.69922,-2.675781 0.32032,-1.273438 c 0.71875,-2.585937 1.3125,-4.371093 1.78125,-5.34375 l -2.99219,-0.828125 v 0.953125 c -0.082,0.08594 -0.19141,0.148438 -0.31641,0.191407 l 0.89063,4.835937 v 0.257813 l -0.0625,1.082031 -1.21094,1.398437 -0.44531,0.445313 -0.0625,-0.0625 -3.62891,1.464843 -5.47266,1.84375 -1.97265,0.253907 -0.25391,0.06641 -1.58984,0.0625 c -1.31641,-0.04297 -2.0586,0.08594 -2.22656,0.382813 m 17.6875,-2.101563 -0.57032,2.039063 -0.57422,1.398437 -3.37109,7.066406 -3.62891,10.566407 c -1.1875,3.859374 -1.78125,7.363281 -1.78125,10.5 0,2.082031 0.55079,4.097656 1.65625,6.046874 l 0.57032,1.019532 -0.0625,-1.019532 c 0,-2.714843 0.38281,-5.367187 1.14453,-7.953124 l 2.60937,-9.039063 2.80078,-13.558594 -0.1289,-0.253906 0.44531,-1.210937 0.32031,-1.589844 h 0.125 L 118.27344,31 l -0.38281,0.953125 m -6.10938,42.203125 v -0.191406 l -0.25391,0.191406 -0.63671,-0.191406 -0.0625,-0.382813 h -0.125 l -0.12891,-0.191406 -0.12891,-0.0625 -1.97265,4.007813 c -1.35547,2.378906 -2.03516,4.371093 -2.03516,5.984374 l 1.33594,0.765626 1.84765,-0.382813 1.20704,-3.753906 0.95312,-5.792969 m -4.64453,11.265625 -2.79688,6.300781 -0.0664,0.636719 h 1.27344 c 0.50781,-2.417969 1.29296,-4.644531 2.35546,-6.683594 l -0.76562,-0.253906 m -1.84375,8.148437 h -1.14453 l -0.76563,4.707032 0.19141,12.988286 c 0,2.03515 -0.16797,3.39453 -0.50781,4.07421 l 1.78125,0.82422 c -0.55078,-0.97265 -0.76563,-2.33203 -0.63672,-4.07031 l 0.50781,-5.15625 c 0,-5.94141 0.0859,-9.675781 0.25391,-11.203125 l 0.32031,-2.164063 M 77.101562,105.02734 v 0.31641 l 0.191407,-0.0625 -0.191407,-0.25391 m 37.800778,9.80079 c -1.27343,0 -3.83984,-3.16016 -7.69921,-9.48438 0,-0.21094 0.14843,-0.35937 0.44531,-0.44531 3.22265,4.7539 5.83203,7.87109 7.82422,9.35937 l -0.57032,0.57032 m -13.04687,1.27343 -0.44531,-0.1914 -1.27344,6.11328 c 0,9.41797 0.82812,15.55078 2.48437,18.39453 l -0.44531,-2.80078 c -0.93359,-6.11328 -1.40234,-10.52344 -1.40234,-13.24219 l 0.44531,-4.51562 0.63672,-3.75782 m 0.76562,47.03906 c 0.50782,0 0.69922,0.72266 0.57032,2.16407 v 0.32031 l 0.38281,0.1875 -0.38281,-7.25391 0.0664,-0.63672 -0.0664,-0.1914 0.38281,-4.64844 c 0,-3.09766 -0.25391,-6.72266 -0.76172,-10.88281 v 12.53906 l -0.0664,0.0625 -0.0625,3.69531 -0.0625,4.64453 v 0.19141 -0.19141 m 0.57032,3.2461 -0.82422,5.98437 0.57031,0.0625 c 0.38281,-2.07812 0.59375,-4.05078 0.63672,-5.91797 l -0.38281,-0.1289 m -1.01563,6.9375 -2.10156,7.1289 c -2.078126,5.98438 -3.117189,11.4375 -3.117189,16.35938 l 0.507813,4.13672 v 0.1289 l 1.144531,0.0625 c -0.335937,-0.76171 -0.507813,-2.18359 -0.507813,-4.26562 0,-6.44922 0.914063,-12.19922 2.738278,-17.24609 0.80469,-2.16797 1.44141,-4.2461 1.90625,-6.23829 l -0.57031,-0.0664"
     id="path4" />
  <path
     style="fill:#cccccc;fill-opacity:1;fill-rule:evenodd;stroke:none"
     d="m 151.49219,41.054688 -0.82813,1.148437 c -1.40234,2.078125 -2.90625,3.691406 -4.51953,4.835937 -1.52734,1.0625 -3.35156,2.652344 -5.47266,4.773438 l -4.96093,4.582031 -2.73828,1.402344 1.78125,-1.65625 c 1.86718,-1.738281 3.01171,-3.054687 3.4375,-3.945313 0.76171,-1.613281 2.01562,-3.054687 3.7539,-4.328124 1.23047,-0.890626 2.39844,-2.292969 3.5,-4.203126 l 6.9375,-7.574218 c 1.44141,-2.164063 2.22656,-5.007813 2.35156,-8.527344 0.33985,1.398438 0.70313,2.332031 1.08204,2.800781 l -1.46094,4.074219 c 0,1.355469 -0.17188,2.480469 -0.51172,3.371094 l -1.58984,2.101562 -1.14454,0.445313 c 0,0.253906 0.0625,0.445312 0.19141,0.574219 l 0.19141,0.125 M 117.89063,31.953125 118.27344,31 l -0.82813,4.964844 h -0.125 L 117,37.554688 l -0.44531,1.210937 0.1289,0.253906 -2.80078,13.558594 -2.60937,9.039063 c -0.76172,2.585937 -1.14453,5.238281 -1.14453,7.953124 l 0.0625,1.019532 -0.57032,-1.019532 c -1.10546,-1.949218 -1.65625,-3.964843 -1.65625,-6.046874 0,-3.136719 0.59375,-6.640626 1.78125,-10.5 l 3.62891,-10.566407 3.37109,-7.066406 0.57422,-1.398437 0.57032,-2.039063 m -6.36329,42.203125 h 0.25391 l -0.95312,5.792969 -1.20704,3.753906 -1.84765,0.382813 -1.33594,-0.765626 c 0,-1.613281 0.67969,-3.605468 2.03516,-5.984374 l 1.97265,-4.007813 0.12891,0.0625 0.12891,0.191406 h 0.125 l 0.0625,0.382813 0.63671,0.191406 M 107.01172,82.75 c 0.16797,0.167969 0.46484,0.253906 0.89062,0.253906 1.10157,0 1.65235,-0.445312 1.65235,-1.339844 0.2539,-1.144531 -0.10547,-1.714843 -1.08203,-1.714843 -0.21094,0 -0.52735,0.316406 -0.95313,0.953125 -0.42578,0.679687 -0.63672,1.1875 -0.63672,1.527344 0,0.296874 0.043,0.402343 0.12891,0.320312 m 4.19922,-6.875 -0.82813,-0.191406 c -0.97656,0 -1.39843,0.382812 -1.27343,1.144531 l 0.76562,0.253906 c 0.89063,0 1.33594,-0.316406 1.33594,-0.953125 V 75.875 m -4.07422,9.546875 0.76562,0.253906 c -1.0625,2.039063 -1.84765,4.265625 -2.35546,6.683594 h -1.27344 l 0.0664,-0.636719 2.79688,-6.300781 m -1.84375,8.148437 -0.32031,2.164063 c -0.16797,1.527344 -0.25391,5.261715 -0.25391,11.203125 l -0.50781,5.15625 c -0.12891,1.73828 0.0859,3.09766 0.63672,4.07031 l -1.78125,-0.82422 c 0.33984,-0.67968 0.50781,-2.03906 0.50781,-4.07421 l -0.19141,-12.988286 0.76563,-4.707032 h 1.14453 m -3.4375,22.531248 -0.63672,3.75782 -0.44531,4.51562 c 0,2.71875 0.46875,7.12891 1.40234,13.24219 l 0.44531,2.80078 c -1.65625,-2.84375 -2.48437,-8.97656 -2.48437,-18.39453 l 1.27344,-6.11328 0.44531,0.1914 m 0.76562,47.03906 0.0625,-4.64453 0.0625,-3.69531 0.0664,-0.0625 v -12.53906 c 0.50781,4.16015 0.76172,7.78515 0.76172,10.88281 l -0.38281,4.64844 0.0664,0.1914 -0.0664,0.63672 0.38281,7.25391 -0.38281,-0.1875 v -0.32031 c 0.1289,-1.44141 -0.0625,-2.16407 -0.57032,-2.16407 m 0.57032,3.2461 0.38281,0.1289 c -0.043,1.86719 -0.25391,3.83985 -0.63672,5.91797 l -0.57031,-0.0625 0.82422,-5.98437 m -1.01563,6.9375 0.57031,0.0664 c -0.46484,1.99219 -1.10156,4.07032 -1.90625,6.23829 -1.824215,5.04687 -2.738278,10.79687 -2.738278,17.24609 0,2.08203 0.171876,3.50391 0.507813,4.26562 l -1.144531,-0.0625 v -0.1289 l -0.507813,-4.13672 c 0,-4.92188 1.039063,-10.375 3.117189,-16.35938 l 2.10156,-7.1289"
     id="path6" />
  <path
     style="fill:#a1334f;fill-opacity:1;fill-rule:evenodd;stroke:none"
     d="m 100.32813,173.45312 0.32031,-0.44531 0.2539,0.0625 -0.1289,0.57422 -0.44531,-0.19141 m -13.488286,3.05469 h -0.128906 l -0.0625,-0.1289 0.191406,0.1289"
     id="path8" />
  <path
     style="fill:#cc0033;fill-opacity:1;fill-rule:evenodd;stroke:none"
     d="m 172.17187,65.308594 0.19141,-0.06641 0.125,0.06641 -0.0625,0.0625 -0.25391,-0.0625 m -23.16406,77.082026 0.0664,-0.0625 v 0.0625 h -0.0664 m -2.28906,11.83985 0.0625,-0.12891 v 0.19141 l -0.0625,-0.0625 m 9.09766,36.53515 -0.19141,0.0625 0.12891,-0.125 0.0625,0.0625 m -56.570316,10.44141 h -0.253906 l 0.253906,-0.19141 v 0.19141 M 70.546875,83.957031 h 0.257813 l -0.257813,0.128907 v -0.128907 m 32.710935,7.449219 h 0.0625 l -0.0625,0.253906 V 91.40625 m -0.0664,0.890625 v 0.0625 -0.0625 m -2.54297,80.710935 0.2539,0.0625 -0.2539,-0.0625 m -27.808596,8.71875 v -0.38281 l 0.382812,0.38281 h -0.382812 m 13.808594,-5.08984 v -0.25781 l 0.0625,0.1289 h 0.128906 l -0.06641,0.0625 -0.125,0.0664 m 50.398436,-18.58594 0.50782,-0.19141 -0.19141,0.25391 -0.31641,-0.0625 m 3.17969,13.68359 -0.1914,-0.32031 h 0.1914 v 0.32031 m -11.26172,3.62891 h -0.1289 l 0.1289,-0.19141 v 0.19141"
     id="path10" />
  <path
     style="fill:#990033;fill-opacity:1;fill-rule:evenodd;stroke:none"
     d="m 162.17969,115.40234 0.38281,0.0625 -0.0625,0.12891 -0.32031,-0.19141 m -15.58985,39.01953 0.12891,-0.1914 0.0625,0.0625 v 0.0625 l -0.19141,0.0664 m 16.54688,-67.027339 -0.38281,0.191407 v -0.0625 l 0.38281,-0.128907 m -59.87891,4.265625 h 0.31641 v 0.316406 l -0.31641,-0.316406 m -21.574216,32.398434 -0.253906,-0.1289 -0.128907,-0.0625 0.06641,-0.0625 0.316406,-0.38281 v 0.63671 m -4.582032,-19.03125 0.191407,0.25391 -0.191407,0.0625 v -0.31641"
     id="path12" />
  <path
     style="fill:#999999;fill-opacity:1;fill-rule:evenodd;stroke:none"
     d="m 111.21094,75.875 v 0.253906 c 0,0.636719 -0.44531,0.953125 -1.33594,0.953125 l -0.76562,-0.253906 c -0.125,-0.761719 0.29687,-1.144531 1.27343,-1.144531 l 0.82813,0.191406 m -4.19922,6.875 c -0.0859,0.08203 -0.12891,-0.02344 -0.12891,-0.320312 0,-0.339844 0.21094,-0.847657 0.63672,-1.527344 0.42578,-0.636719 0.74219,-0.953125 0.95313,-0.953125 0.97656,0 1.33593,0.570312 1.08203,1.714843 0,0.894532 -0.55078,1.339844 -1.65235,1.339844 -0.42578,0 -0.72265,-0.08594 -0.89062,-0.253906"
     id="path14" />
  <path
     style="fill:#cc0000;fill-opacity:1;fill-rule:evenodd;stroke:none"
     d="m 103.25781,91.40625 -1.21093,-0.06641 h 0.57421 l 0.63672,0.06641"
     id="path16" />
  <path
     style="fill:#000080;fill-opacity:1;fill-rule:evenodd;stroke:none"
     d="m 153.84375,39.527344 0.25781,-0.382813 0.31641,-0.824219 -0.0625,-0.06641 1.01562,-2.480468 c 1.14844,-3.097657 1.71875,-5.476563 1.71875,-7.128907 l -0.125,-3.3125 -1.40234,-3.4375 4.51953,0.382813 -0.12891,2.800781 c 0,3.3125 0.23438,5.328125 0.69922,6.046875 0.17188,1.445312 3.56641,3.949219 10.1836,7.511719 l 5.47265,3.246093 -1.52734,-1.84375 -0.57422,-0.703124 1.14453,0.253906 c 1.65625,0.300781 2.99219,0.914062 4.01172,1.847656 l 2.54297,2.355469 -2.09766,1.972656 -1.08203,-1.019531 0.82813,0.894531 -0.95703,0.890625 v 1.273438 l -0.50782,0.1875 -0.2539,-0.570313 -1.21094,-2.355469 c -0.67969,-1.359375 -2.05469,-2.355468 -4.13672,-2.992187 -5.04687,-2.757813 -8.16406,-4.136719 -9.35156,-4.136719 -3.05469,0 -5.24219,0.382812 -6.55469,1.144531 l -1.46484,1.019531 v 0.125 c 0,0.339844 -0.23438,0.511719 -0.69922,0.511719 l -0.76563,-0.320312 -0.0625,-0.253907 0.25391,-0.445312 V 39.52734 m 15.40234,50.605468 0.37891,0.445313 -0.37891,0.382813 h -0.1289 l -1.21094,7.0625 h -0.44531 l -0.63282,-0.191407 0.31641,3.566413 c 0,2.33203 -0.82812,5.17578 -2.48047,8.52734 l -2.22656,4.58594 -0.44531,0.37891 0.1875,0.51171 0.32031,0.19141 -5.85547,9.23047 0.12891,0.1875 c -4.24219,4.11719 -6.25782,7.34375 -6.04688,9.67578 0.25391,2.16406 -0.29687,4.01172 -1.65234,5.53906 l -4.96485,5.53906 0.19141,0.57032 h 0.89063 c 0.67968,-0.29688 1.94921,-1.61328 3.8164,-3.94532 h 0.0664 c -0.12891,0.42579 -0.19141,0.95313 -0.19141,1.58985 0,1.35937 -0.1289,2.29297 -0.38281,2.80078 l -2.16406,5.66797 c -1.48438,4.41015 -4.34766,8.10156 -8.58985,11.07422 l 0.57422,0.57422 c 3.22266,-2.46485 5.98047,-5.6875 8.26953,-9.67579 h 0.19141 v 1.08204 l 0.25391,0.63671 c 0.043,1.27344 0.38281,2.73438 1.01953,4.39063 0.84765,2.16406 1.3789,4.13672 1.58984,5.91797 v 6.75 c -0.043,2.84375 0.27734,4.26172 0.95703,4.26172 l 0.50781,-0.1875 v -0.51172 l -0.2539,-8.71875 c 2.6289,5.8125 4.13672,8.71875 4.51562,8.71875 H 155.5 l 1.46484,2.60937 c 2.83985,4.83985 4.26172,7.49219 4.26172,7.95703 l -1.08203,1.78125 -4.32812,1.65625 -0.0625,-0.0625 -0.12891,0.125 -0.31641,0.19141 -0.0625,-0.0625 c -0.59375,-1.14453 -0.95703,-2.69531 -1.08203,-4.64844 l -0.57422,-5.02734 c -3.09765,4.58203 -4.8789,6.875 -5.34375,6.875 l -0.69922,-0.19141 c 0.125,-0.93359 -0.46875,-3.77734 -1.78515,-8.52734 l -0.95313,-4.26563 -1.08203,-2.10156 c -0.67969,-1.27344 -1.71875,-1.84375 -3.11719,-1.71875 l -0.38281,0.0625 h -0.1914 l 0.1914,0.32031 c 0,0.9336 -4.05078,2.54688 -12.15234,4.83594 l -0.95703,-0.0625 -0.0625,-0.63672 c 3.94531,-4.96484 6.30078,-8.23047 7.0625,-9.80078 l 2.03906,-5.34765 c 0.42187,-1.0625 0.82422,-1.92969 1.20703,-2.60938 l 0.19141,-0.25391 -0.50782,0.19141 h -4.07421 c -0.125,-0.0859 -0.19141,-0.27734 -0.19141,-0.57422 0,-0.55078 1.55078,-2.92969 4.64453,-7.1289 3.22656,-4.45704 5.6875,-7.42579 7.38281,-8.91016 -10.47656,-0.38281 -17.66796,-1.01953 -21.57031,-1.91016 -2.88672,-1.10547 -5.49609,-1.93359 -7.82812,-2.48437 -1.27344,-0.25391 -3.5625,-0.9961 -6.8711,-2.22656 -3.4375,-1.27344 -5.32422,-2.22657 -5.66406,-2.86329 l -0.76562,-0.25781 0.32031,-0.57031 c -0.38281,-2.88672 -0.57422,-5.17969 -0.57422,-6.875 0,-1.78125 0.17187,-3.30859 0.51172,-4.58203 l 0.44531,-3.12109 c 18.62109,8.69921 31.34766,13.05078 38.17969,13.05078 l 0.57031,-0.38282 c -0.29688,-0.89062 -1.90625,-1.57031 -4.83594,-2.03906 l -4.89844,-0.50781 c -1.0625,0 -2.90625,-0.50781 -5.53515,-1.52734 l -5.66406,-2.22657 c -2.54688,-0.80859 -7.19141,-2.78125 -13.9375,-5.92187 l -0.95313,-0.44531 0.125,-15.46875 0.82813,-7.507822 37.54687,-0.320312 0.25391,-0.445312 -0.0664,-0.253907 -20.17187,-0.253906 -17.24219,0.0625 0.125,-0.316406 -0.44531,-0.320313 c 0.21484,-0.425781 0.44531,-0.65625 0.69922,-0.699218 h 0.0664 l 1.58985,0.507812 4.83593,0.445312 c 1.95313,0 4.58203,-0.804687 7.89063,-2.417968 l 5.72656,-2.992188 4.77344,-2.609375 c 3.39453,-1.570312 6.55468,-2.355469 9.48047,-2.355469 4.66796,0 9.5664,1.105469 14.69921,3.3125 l 6.30079,2.671876 0.38281,-0.191407 3.625,1.527344 c 1.23047,0.507813 2.05859,0.914063 2.48437,1.210937 m -24.7539,21.832032 c -1.27344,0.89063 -2.99219,1.58985 -5.15625,2.10157 l -6.8711,1.71875 0.50782,0.3789 c 6.87109,-0.89062 11.98437,-2.86328 15.33593,-5.91797 7.50782,-5.09375 11.26172,-8.04296 11.26172,-8.84765 l -0.44531,-0.50781 -11.57813,8.78125 -3.05468,2.29296 m -29.08203,-76.574219 -6.30078,0.574219 c 0.043,-0.765625 -2.54297,-1.148438 -7.76172,-1.148438 -0.80469,0 -1.21094,-0.191406 -1.21094,-0.570312 l 0.0664,-0.191406 c 0.16796,-0.296876 0.91015,-0.425782 2.22656,-0.382813 l 1.58984,-0.0625 0.25391,-0.06641 1.97265,-0.253907 5.47266,-1.84375 3.62891,-1.464843 0.0625,0.0625 0.44531,-0.445313 1.21094,-1.398437 0.0625,-1.082031 v -0.257813 l -0.89063,-4.835937 c 0.125,-0.04297 0.23438,-0.105469 0.31641,-0.191407 v -0.953125 l 2.99219,0.828125 c -0.46875,0.972657 -1.0625,2.757813 -1.78125,5.34375 L 117.44531,28.324219 116.74609,31 l -0.50781,2.417969 -0.0625,0.191406 -0.76562,1.78125 M 70.804688,83.957031 78.25,88.347656 l 1.589844,0.703125 -0.699219,0.191407 0.445313,0.1875 1.082031,-0.0625 0.378906,0.191406 1.65625,0.699218 c 2.375,0.851563 4.878906,1.339844 7.507813,1.464844 h 1.398437 l 11.648435,-0.0625 0.31641,0.316406 -0.38281,0.320313 v 0.191406 l -12.980472,1.398438 -9.164063,0.765625 -1.90625,0.125 1.90625,0.191406 h 1.71875 l 7.445313,-0.636719 1.972656,-0.316406 5.855468,-0.382813 4.835938,-0.0625 c -0.42578,1.609376 -0.63672,4.007813 -0.63672,7.191408 l 0.25391,10.82031 c 0,1.61328 -0.14844,2.69531 -0.44531,3.2461 -3.14063,-1.39844 -4.835942,-2.10157 -5.089849,-2.10157 -0.339843,0 -0.617187,0.21485 -0.828125,0.63672 l 4.136724,1.97656 c -0.847661,1.01563 -1.273442,3.20313 -1.273442,6.55469 v 0.95313 l 0.128906,5.73046 h 0.0625 l 0.0625,0.31641 -0.125,0.32031 -0.636719,0.19141 -7,-1.78516 c -4.328125,-1.26953 -7.59375,-2.46093 -9.800781,-3.5625 v -0.63671 c -0.08594,-1.48438 -1.125,-4.79688 -3.117188,-9.92969 -0.804687,-1.91016 -1.316406,-3.62891 -1.527344,-5.15625 l 0.0625,-0.44531 v -1.27344 l 0.636719,1.33594 4.074219,6.30468 c 4.285156,5.60157 6.679688,8.39844 7.191406,8.39844 0.296875,0 0.378906,-0.0391 0.253906,-0.125 l 0.0625,-0.44531 c -3.648437,-4.625 -6.554687,-8.53125 -8.71875,-11.71094 l -0.0625,-0.0664 -2.925781,-4.51953 -0.191406,-0.3164 0.253906,0.3164 3.4375,4.01172 0.125,0.125 8.847657,7.95703 c 4.15625,3.4375 6.742187,5.15625 7.761718,5.15625 0.296875,0 0.445313,-0.10547 0.445313,-0.3164 -4.074219,-3.05469 -6.832031,-5.24219 -8.273438,-6.5586 -4.285156,-3.30859 -6.828125,-5.51562 -7.636719,-6.61718 l -2.671874,-3.75782 -5.152344,-7.128904 v -0.0625 l 0.0625,-0.320312 -1.335938,-2.097656 C 72.140625,94.4375 71.417969,93.101562 71.121094,92.167969 70.65625,90.9375 70.421875,88.835938 70.421875,85.867188 l 0.0625,-0.699219 -0.125,-0.445313 v -0.636718 h 0.1875 l 0.257813,-0.128907 m 2.035156,97.386719 -0.191406,-0.37891 0.316406,-0.70312 c 0.214844,-2.07813 0.59375,-4.09375 1.148437,-6.04688 l 0.316407,-1.20703 c 0.128906,-1.27344 0.296874,-2.14453 0.507812,-2.60937 l 1.148438,-3.2461 1.90625,3.3086 c 0.425781,0.93359 1.824218,2.01562 4.203124,3.24609 l 3.816407,3.24609 0.316406,-0.0625 -0.0625,-0.1914 0.382813,-0.0625 0.125,-0.0664 0.06641,-0.0625 3.371094,5.47266 -0.125,0.51172 -0.703126,0.125 c -0.507812,0 -2.289062,-0.84766 -5.34375,-2.54297 -3.011718,-1.69922 -5.621093,-2.54688 -7.828124,-2.54688 l -2.988282,4.19922 -0.382812,-0.38281 m 42.062492,-66.51562 0.57032,-0.57032 c -1.99219,-1.48828 -4.60157,-4.60547 -7.82422,-9.35937 -0.29688,0.0859 -0.44531,0.23437 -0.44531,0.44531 3.85937,6.32422 6.42578,9.48438 7.69921,9.48438 m 14.0625,60.53515 v -0.19141 l -0.1289,0.19141 h 0.1289"
     id="path18" />
  <path
     style="fill:#0000ff;fill-opacity:1;fill-rule:evenodd;stroke:none"
     d="m 153.84375,39.527344 v 0.191406 l -0.25391,0.445312 0.0625,0.253907 0.76563,0.320312 c 0.46484,0 0.69922,-0.171875 0.69922,-0.511719 v -0.125 l 1.46484,-1.019531 c 1.3125,-0.761719 3.5,-1.144531 6.55469,-1.144531 1.1875,0 4.30469,1.378906 9.35156,4.136719 2.08203,0.636719 3.45703,1.632812 4.13672,2.992187 l 1.21094,2.355469 c -1.57032,1.78125 -2.69532,3.925781 -3.375,6.429687 -0.63672,2.164063 -1.23047,5.386719 -1.78125,9.671876 l -0.50782,1.785156 0.25391,0.0625 c -0.72266,1.0625 -1.08203,2.738281 -1.08203,5.027344 l -0.25391,1.402343 -0.1914,0.507813 -0.44532,1.082031 -0.1914,0.636719 v 0.0625 l -0.63672,4.519531 0.19141,-0.570313 0.1914,0.0625 v 7.320313 l -0.76172,4.710937 c -0.42578,-0.296874 -1.2539,-0.703124 -2.48437,-1.210937 l -3.625,-1.527344 -0.38281,0.128907 v 0.0625 l -6.30079,-2.671876 c -5.13281,-2.207031 -10.03125,-3.3125 -14.69921,-3.3125 -2.92579,0 -6.08594,0.785157 -9.48047,2.355469 l -4.77344,2.609375 -5.72656,2.992188 c -3.3086,1.613281 -5.9375,2.417968 -7.89063,2.417968 l -4.83593,-0.445312 -1.58985,-0.507812 h -0.0664 l 1.46484,-5.21875 c 0.67969,-0.04297 1.29297,-0.511719 1.84766,-1.402344 l 1.26953,-0.253906 13.36328,-2.355469 c 9.63281,-2.164063 16.5664,-3.117188 20.80859,-2.863281 l -4.19922,-0.382813 h -3.8164 l -26.98047,4.902344 c 0.76172,-1.910157 1.3125,-4.964844 1.65234,-9.167969 v -1.398438 l 3.375,-3.4375 6.67969,-4.457031 c 3.30859,-2.078125 7.82812,-4.601562 13.55469,-7.574219 2.46093,-1.65625 5.78906,-4.773437 9.98828,-9.355468 l 4.39062,-4.773438 3.05469,-3.757812 m 1.40234,151.429686 -1.27343,0.32031 -11.45313,3.2461 c -3.18359,1.4414 -6.49219,2.71484 -9.92969,3.8164 -6.66015,2.1211 -13.33984,3.1836 -20.04296,3.1836 l -13.300786,-0.31641 v -0.19141 c -0.378906,-3.48046 0.171875,-9.29296 1.656246,-17.4414 0.29688,-1.65625 1.08204,-4.625 2.35547,-8.91016 l 0.31641,-1.08594 12.34375,2.16797 c 0.80859,0 1.21094,-0.15234 1.21094,-0.44922 l -13.30078,-2.67187 0.89062,-5.60156 c 11.83594,4.83984 18.60156,7.25781 20.30078,7.25781 0.59375,0 0.89063,-0.12891 0.89063,-0.38281 l -0.12891,-0.25391 c -5.9375,-1.52734 -12.95703,-3.98828 -21.0625,-7.38281 0,-3.4375 -0.14844,-6.11328 -0.44531,-8.02344 l 0.44531,-5.21875 c 0,-4.49609 -0.46484,-9.73828 -1.39844,-15.72266 l -0.76562,-5.28125 h 0.1914 l 0.12891,-0.0625 c 0.33984,0.63672 2.22656,1.58985 5.66406,2.86329 3.3086,1.23046 5.59766,1.97265 6.8711,2.22656 2.33203,0.55078 4.9414,1.3789 7.82812,2.48437 3.90235,0.89063 11.09375,1.52735 21.57031,1.91016 -1.69531,1.48437 -4.15625,4.45312 -7.38281,8.91016 -3.09375,4.19921 -4.64453,6.57812 -4.64453,7.1289 0,0.29688 0.0664,0.48828 0.19141,0.57422 h 4.07421 l 0.31641,0.0625 c -0.38281,0.67969 -0.78516,1.54688 -1.20703,2.60938 l -2.03906,5.34765 c -0.76172,1.57031 -3.11719,4.83594 -7.0625,9.80078 l 0.0625,0.63672 0.95703,0.0625 c 8.10156,-2.28906 12.15234,-3.90234 12.15234,-4.83594 v -0.32031 l 0.38281,-0.0625 c 1.39844,-0.125 2.4375,0.44531 3.11719,1.71875 l 1.08203,2.10156 0.95313,4.26563 c 1.3164,4.75 1.91015,7.59375 1.78515,8.52734 l 0.69922,0.19141 c 0.46485,0 2.2461,-2.29297 5.34375,-6.875 l 0.57422,5.02734 c 0.125,1.95313 0.48828,3.50391 1.08203,4.64844 m -55.04296,-156.902342 -0.0664,0.191406 c 0,0.378906 0.40625,0.570312 1.21094,0.570312 5.21875,0 7.80468,0.382813 7.76172,1.148438 l 6.30078,-0.574219 -0.57422,1.335937 v 0.06641 c -1.1875,1.738281 -2.01172,3.433593 -2.48047,5.089843 l -3.625,10.949219 c -1.23047,4.03125 -1.84766,7.617188 -1.84766,10.757813 0,1.144531 0.29688,2.84375 0.89063,5.089844 0.55078,2.082031 1.21094,3.480468 1.97265,4.203124 l -2.67187,4.902344 c -1.57031,3.179688 -2.35547,5.070313 -2.35547,5.664063 l 0.95703,1.015625 -9.86328,1.53125 -5.601562,0.890625 -9.164063,1.78125 -1.207031,0.382812 L 78.25,88.347656 70.804688,83.957031 h -0.257813 c 0.128906,-1.273437 0.40625,-2.695312 0.828125,-4.265625 1.105469,-3.902344 1.804688,-6.066406 2.101562,-6.492187 l 0.125,-0.191407 c 2.886719,-3.988281 5.941407,-7.699218 9.164063,-11.136718 l 0.0625,0.0625 0.574219,-0.699219 0.316406,-0.382813 -0.0625,-0.128906 0.382812,-0.890625 2.035157,-5.21875 C 87.8125,49.648438 88.683594,46.042969 88.683594,43.792969 L 87.984375,37.875 c 0,-0.425781 0.59375,-0.871094 1.78125,-1.339844 l 1.464844,-0.636718 0.253906,0.06641 c 1.441406,0 3.371094,-0.488282 5.789063,-1.464844 l 2.929692,-0.445312 m 3.05468,57.351562 -0.63672,-0.06641 h -0.57421 l 1.21093,0.06641 v 0.253906 l -11.648435,0.0625 h -1.398437 c -2.628907,-0.125 -5.132813,-0.613281 -7.507813,-1.464844 l -1.65625,-0.699218 -0.378906,-0.191406 h 0.378906 l 9.164063,-1.273438 15.144532,-2.671875 c -1.01563,1.019531 -1.69531,3.011719 -2.03516,5.984375 h -0.0625 m -4.136716,37.808586 c 0.210937,4.41407 0.613281,7.51172 1.207036,9.29297 0.80859,2.33203 1.2539,5.07031 1.33593,8.21094 0,2.63281 0.0664,4.66797 0.19141,6.10937 -0.38281,0.42579 -0.53125,1.1875 -0.44531,2.29297 l 0.2539,2.67188 -0.1914,5.03125 -0.25391,1.97265 -2.097656,-0.95703 c -9.335938,-4.15625 -14.148438,-6.23828 -14.445313,-6.23828 -0.253906,0 -0.382812,0.19141 -0.382812,0.57422 1.953125,1.0625 7.550781,3.5 16.800781,7.32031 l -1.08203,6.42969 -15.335939,-2.99219 c -0.382812,0 -0.574219,0.12891 -0.574219,0.38282 v 0.3164 l 15.71875,3.2461 0.507818,0.57421 0.44531,0.19141 -1.527346,6.17188 C 97.042969,187.625 95.9375,193.26953 95.9375,196.75 v 2.41797 c 0.04297,0.80469 0.148438,1.42187 0.320312,1.84765 -9.886718,-0.80859 -16.566406,-2.4414 -20.046874,-4.90234 -1.949219,-1.35937 -3.117188,-3.09766 -3.5,-5.21875 l -0.0625,-5.41016 c 0,-1.27343 0.0625,-2.52734 0.191406,-3.75781 h 0.382812 l 2.988282,-4.19922 c 2.207031,0 4.816406,0.84766 7.828124,2.54688 3.054688,1.69531 4.835938,2.54297 5.34375,2.54297 l 0.703126,-0.125 0.125,-0.51172 -3.371094,-5.47266 -0.191406,-0.1289 c 0,-0.33594 -1.78125,-1.86719 -5.347657,-4.58204 -2.628906,-1.99218 -4.304687,-3.90234 -5.023437,-5.72656 l 0.0625,-0.82812 c 0.125,-0.46875 0,-0.72266 -0.382813,-0.76563 l -0.0625,-0.44531 c 0,-1.01563 0.421875,-2.12109 1.273438,-3.30859 l 1.082031,-2.16407 0.253906,0.125 c 1.058594,-3.43359 1.738282,-6.53125 2.035156,-9.29297 1.144532,-4.03125 1.71875,-8.4414 1.71875,-13.23828 l -0.191406,-6.68359 -0.382812,-5.41016 c 2.207031,1.10157 5.472656,2.29297 9.800781,3.5625 l 7,1.78516 0.636719,-0.19141"
     id="path20" />
</svg>
