<?xml version="1.0" encoding="UTF-8"?>
<svg xmlns="http://www.w3.org/2000/svg" xmlns:xlink="http://www.w3.org/1999/xlink" width="290px" height="542px" viewBox="0 0 290 542" version="1.1">
<g id="surface1">
<path style=" stroke:none;fill-rule:evenodd;fill:rgb(0%,0%,0%);fill-opacity:1;" d="M 76.59375 142.582031 C 76.128906 141.054688 75.894531 140.035156 75.894531 139.527344 C 75.894531 138.550781 76.277344 136.9375 77.039062 134.6875 C 77.800781 132.4375 78.183594 129.851562 78.183594 126.921875 C 78.183594 124.335938 77.761719 118.988281 76.910156 110.882812 L 75.957031 106.363281 L 73.984375 97.007812 L 73.476562 96.371094 L 62.210938 105.597656 L 61.449219 105.472656 L 61.320312 105.28125 L 60.75 105.34375 C 60.367188 105.300781 58.054688 102.691406 53.8125 97.515625 C 52.964844 96.496094 52.371094 95.203125 52.03125 93.632812 C 51.605469 91.808594 51.183594 90.492188 50.757812 89.6875 C 49.144531 87.054688 46.855469 84.699219 43.886719 82.621094 L 34.40625 76.957031 L 33.703125 76.828125 L 33.449219 76.445312 L 33.386719 76.382812 L 33.386719 75.683594 L 33.449219 75.683594 C 33.789062 74.410156 35.527344 72.710938 38.667969 70.589844 C 41.976562 68.300781 45.03125 66.730469 47.832031 65.878906 L 56.359375 60.980469 C 60.089844 58.644531 62.65625 57.265625 64.058594 56.839844 L 67.113281 53.660156 L 73.855469 46.210938 L 77.800781 41.308594 C 81.28125 36.683594 83.933594 33.882812 85.757812 32.910156 C 87.707031 31.71875 91.484375 30.40625 97.082031 28.960938 C 102.257812 27.605469 105.675781 26.925781 107.328125 26.925781 L 107.648438 26.925781 L 107.773438 26.351562 L 107.902344 26.351562 C 108.285156 25.121094 109.449219 23.464844 111.402344 21.386719 C 113.988281 18.585938 116.238281 17.269531 118.148438 17.441406 L 119.671875 17.3125 L 121.457031 17.503906 L 121.902344 18.203125 L 121.457031 20.050781 L 121.902344 20.625 L 121.644531 22.722656 L 121.328125 26.542969 L 121.902344 27.117188 L 121.136719 27.753906 L 121.074219 28.199219 L 120.375 28.578125 L 120.183594 28.324219 L 118.847656 29.027344 L 115.21875 30.617188 L 114.773438 30.554688 L 114.710938 31.0625 C 114.117188 38.660156 113.796875 43.707031 113.753906 46.210938 L 113.753906 46.785156 C 113.753906 52.171875 113.863281 55.398438 114.074219 56.460938 C 114.5 58.410156 116.027344 62.292969 118.65625 68.109375 C 121.710938 65.773438 129.726562 60.957031 142.710938 53.660156 L 142.710938 53.59375 L 150.21875 46.210938 L 158.425781 36.855469 L 160.398438 33.097656 L 160.589844 32.84375 L 157.855469 31.0625 C 156.15625 30.042969 155.308594 29.132812 155.308594 28.324219 C 154.84375 25.863281 154.585938 23.953125 154.546875 22.597656 L 154.035156 19.605469 L 153.972656 18.714844 C 153.972656 17.824219 154.226562 17.1875 154.734375 16.804688 L 154.546875 16.105469 L 155.308594 15.976562 C 155.691406 15.933594 156.878906 16.550781 158.871094 17.824219 L 160.589844 18.839844 L 160.589844 18.777344 L 160.652344 18.140625 L 161.480469 17.949219 C 161.734375 17.949219 162.5 18.5 163.773438 19.605469 L 169.753906 25.207031 L 170.007812 25.398438 C 171.449219 26.375 172.171875 28.726562 172.171875 32.460938 L 172.171875 33.289062 C 174.421875 33.417969 177.472656 34.796875 181.335938 37.425781 C 184.601562 39.675781 186.851562 41.542969 188.082031 43.027344 L 190.5625 46.210938 L 194.824219 52.066406 L 197.050781 55.1875 C 200.234375 59.046875 201.867188 63.144531 201.953125 67.472656 L 201.953125 67.980469 C 202.546875 68.234375 202.84375 68.597656 202.84375 69.0625 L 202.714844 69.445312 L 202.015625 69.761719 L 202.144531 73.265625 L 202.523438 73.964844 L 202.269531 74.664062 L 202.523438 79.628906 L 202.398438 82.492188 L 202.269531 82.492188 L 210.351562 121.003906 L 210.351562 123.105469 L 209.652344 123.550781 C 208.210938 122.617188 207.191406 122.148438 206.597656 122.148438 C 200.660156 122.148438 194.1875 123.253906 187.1875 125.457031 C 180.148438 127.621094 175.394531 128.726562 172.933594 128.769531 L 170.644531 128.640625 L 170.328125 128.769531 L 170.261719 128.578125 L 169.625 128.324219 L 169.5625 127.941406 L 170.070312 127.8125 L 169.371094 124.566406 C 168.863281 121.722656 168.734375 118.925781 168.988281 116.164062 C 169.203125 113.832031 168.839844 111.179688 167.90625 108.210938 C 167.570312 109.609375 166.785156 111.414062 165.554688 113.621094 L 159.890625 123.167969 C 154.375 132.503906 151.617188 140.140625 151.617188 146.082031 C 151.617188 148.96875 151.914062 152.277344 152.507812 156.011719 C 152.507812 157.792969 152.167969 159.089844 151.492188 159.894531 L 151.363281 160.023438 L 151.492188 159.957031 L 151.554688 159.957031 L 152.636719 161.867188 L 154.289062 164.859375 L 155.179688 166.449219 L 155.308594 166.707031 L 155.308594 166.640625 L 157.597656 170.714844 C 158.703125 172.921875 159.828125 174.917969 160.972656 176.699219 C 161.480469 177.761719 161.757812 179.328125 161.800781 181.410156 L 161.925781 181.34375 C 162.691406 181.34375 165.617188 189.980469 170.707031 207.253906 L 173.507812 218.644531 C 175.289062 226.328125 176.203125 231.164062 176.246094 233.160156 L 176.179688 233.539062 L 180.570312 253.144531 L 180.636719 253.589844 L 182.671875 257.601562 L 182.671875 258.363281 C 182.671875 260.953125 181.355469 264.199219 178.726562 268.105469 C 176.136719 271.878906 174.949219 275.699219 175.164062 279.5625 C 175.417969 284.015625 175.035156 287.582031 174.015625 290.253906 L 171.40625 295.347656 C 169.878906 298.316406 169.117188 300.101562 169.117188 300.695312 C 177.175781 307.695312 181.230469 311.578125 181.269531 312.34375 L 181.144531 313.042969 L 180.953125 313.359375 L 179.679688 321.0625 C 178.789062 326.238281 177.21875 334.027344 174.972656 344.421875 C 173.105469 353.632812 172.085938 361.460938 171.917969 367.910156 L 172.300781 372.304688 L 172.171875 378.476562 L 172.746094 390.632812 C 173.082031 398.398438 174.058594 406.503906 175.671875 414.949219 C 177.621094 425.347656 180.316406 441.535156 183.753906 463.515625 C 183.710938 463.769531 183.476562 463.898438 183.054688 463.898438 L 182.988281 463.898438 L 184.515625 472.875 L 186.488281 475.929688 C 188.527344 479.195312 189.820312 481.699219 190.371094 483.441406 C 191.09375 485.984375 191.835938 488.023438 192.597656 489.550781 L 196.160156 495.660156 L 196.035156 496.296875 L 195.78125 496.550781 L 195.90625 496.933594 C 195.863281 497.359375 194.082031 497.972656 190.5625 498.78125 L 194.125 509.664062 C 194.125 510.597656 193.890625 511.171875 193.425781 511.382812 L 185.660156 512.210938 C 185.027344 512.210938 184.601562 512.082031 184.390625 511.828125 L 184.324219 511.765625 L 182.035156 511.828125 L 181.589844 512.082031 L 131.699219 512.402344 C 130.257812 513.039062 128.09375 513.355469 125.210938 513.355469 L 122.28125 513.230469 L 122.027344 513.355469 L 121.964844 513.164062 L 121.328125 512.972656 L 121.265625 512.527344 L 121.835938 512.402344 C 118.273438 496.996094 116.066406 480.128906 115.21875 461.796875 L 110.574219 410.304688 C 110.574219 409.75 110.636719 409.285156 110.765625 408.902344 C 109.195312 402.792969 107.730469 394.792969 106.375 384.90625 C 104.550781 372.003906 103.171875 363.304688 102.238281 358.808594 C 97.191406 329.105469 94.664062 311.769531 94.664062 306.804688 C 94.664062 306.421875 94.8125 306.125 95.109375 305.914062 C 89.808594 288.769531 85.585938 276.421875 82.449219 268.867188 C 80.667969 264.582031 78.121094 257.070312 74.8125 246.335938 L 73.03125 240.542969 L 72.710938 239.332031 L 72.902344 240.605469 L 73.03125 247.035156 L 72.140625 262.503906 L 75.003906 286.945312 C 75.46875 289.871094 76.742188 293.925781 78.820312 299.101562 C 80.855469 304.363281 82.109375 308.332031 82.574219 311.003906 C 82.914062 311.472656 82.703125 311.726562 81.9375 311.769531 L 82.320312 314.378906 C 83.636719 323.714844 85.058594 331.820312 86.585938 338.695312 C 87.941406 344.71875 89.679688 350.214844 91.800781 355.179688 L 94.601562 362.5 C 96.214844 367.125 97.019531 370.074219 97.019531 371.347656 L 96.957031 372.621094 L 97.019531 374.402344 L 96.449219 389.933594 C 96.40625 394.476562 97.613281 399.058594 100.074219 403.683594 L 103.636719 410.621094 L 103.511719 411.320312 L 103.382812 411.511719 L 103.382812 411.765625 L 101.601562 439.136719 C 101.601562 441.175781 101.960938 444.910156 102.683594 450.339844 L 102.683594 455.878906 C 102.554688 458.210938 102.640625 460.035156 102.9375 461.351562 L 104.785156 472.300781 C 105.503906 476.714844 106.566406 480.382812 107.964844 483.3125 L 107.964844 506.863281 L 107.328125 507.308594 L 107.203125 506.863281 L 98.609375 508.644531 L 87.730469 510.171875 L 78.183594 509.601562 L 78.058594 509.601562 L 77.675781 509.472656 L 77.355469 508.644531 L 77.421875 508.582031 L 77.355469 508.136719 C 78.121094 504.316406 78.503906 500.625 78.503906 497.0625 L 78.503906 486.050781 L 78.183594 463.898438 L 77.738281 458.871094 C 77.652344 457.554688 77.78125 456.515625 78.121094 455.75 C 77.527344 453.289062 77.230469 450.363281 77.230469 446.96875 L 77.355469 437.164062 C 76.550781 428.421875 76.0625 421.929688 75.894531 417.6875 L 73.667969 399.292969 C 72.265625 388.9375 71.566406 382.0625 71.566406 378.667969 C 71.566406 378.285156 71.734375 377.945312 72.074219 377.648438 L 72.011719 376.695312 L 72.140625 369.820312 C 72.011719 365.875 71.4375 361.398438 70.421875 356.390625 C 68.722656 348.074219 67.28125 339.183594 66.09375 329.71875 C 65.839844 327.894531 65.4375 319.917969 64.886719 305.785156 C 64.292969 291.144531 64.015625 281.257812 64.058594 276.125 C 64.015625 273.664062 64.207031 271.203125 64.628906 268.742188 C 65.097656 265.855469 65.777344 263.902344 66.667969 262.882812 C 68.574219 255.289062 69.53125 249.855469 69.53125 246.589844 L 69.53125 228.382812 L 69.402344 219.28125 C 69.359375 215.675781 69.550781 212.640625 69.976562 210.179688 L 69.910156 200.949219 C 69.871094 197.597656 70.71875 194.902344 72.457031 192.867188 C 71.480469 192.058594 70.953125 190.976562 70.867188 189.621094 C 70.1875 185.25 69.847656 182.046875 69.847656 180.007812 C 69.804688 179.203125 70.378906 175.660156 71.566406 169.378906 L 73.09375 161.867188 L 73.539062 160.277344 L 71.882812 159.066406 C 71.460938 158.769531 71.25 158.070312 71.25 156.964844 L 71.183594 156.585938 L 71.3125 156.011719 C 71.609375 153.167969 73.199219 148.417969 76.085938 141.753906 L 76.53125 142.582031 L 76.785156 143.855469 C 76.742188 145.296875 76.0625 147.460938 74.75 150.347656 C 73.941406 152.085938 73.371094 153.550781 73.03125 154.738281 L 72.839844 154.800781 L 72.777344 155.375 L 72.648438 156.265625 L 72.777344 156.332031 L 72.710938 156.777344 C 72.710938 157.539062 73.984375 158.960938 76.53125 161.039062 L 77.546875 161.867188 L 82.574219 165.8125 L 82.382812 166.324219 L 81.683594 166.640625 L 81.367188 166.578125 L 80.222656 166.070312 L 78.183594 164.414062 L 75.765625 161.867188 L 75.320312 161.484375 L 74.75 161.105469 L 74.75 161.867188 L 74.367188 164.605469 L 74.046875 164.605469 L 74.113281 165.367188 L 73.921875 166.386719 L 74.046875 166.449219 L 73.03125 170.84375 C 71.84375 175.511719 71.25 178.609375 71.25 180.136719 C 71.25 186.714844 72.265625 190.660156 74.304688 191.976562 L 79.203125 193.886719 C 82.257812 194.902344 85.015625 195.984375 87.476562 197.132812 L 87.03125 197.769531 L 85.882812 197.578125 L 75.195312 194.140625 L 73.792969 193.695312 L 72.710938 197.066406 L 72.394531 197.957031 L 71.882812 198.023438 L 71.882812 198.914062 L 72.074219 199.039062 C 71.734375 200.230469 71.566406 201.289062 71.566406 202.222656 L 71.183594 211.324219 C 70.761719 215.273438 70.675781 221.191406 70.929688 229.085938 L 76.910156 248.433594 C 79.328125 256.457031 81.664062 263.03125 83.910156 268.167969 C 88.917969 279.667969 93.097656 292.757812 96.449219 307.441406 L 96.066406 307.886719 C 96.828125 310.773438 97.464844 314.292969 97.972656 318.453125 L 99.628906 331.4375 L 103.636719 357.089844 C 104.953125 367.445312 107.753906 384.503906 112.039062 408.265625 L 112.039062 410.558594 L 111.910156 410.621094 C 113.097656 416.222656 114.160156 424.03125 115.09375 434.046875 C 115.984375 439.519531 116.511719 448.132812 116.683594 459.886719 C 118.421875 477.710938 119.992188 491.777344 121.390625 502.089844 L 123.875 501.390625 L 136.027344 500.371094 C 138.699219 500.328125 143.195312 501.242188 149.519531 503.109375 L 172.042969 502.855469 L 172.425781 503.234375 L 173 502.980469 L 173 502.789062 L 180.445312 502.21875 L 182.863281 501.515625 L 188.082031 501.199219 L 189.925781 501.390625 L 187.1875 494.386719 C 183.539062 483.777344 181.714844 473.023438 181.714844 462.117188 L 181.84375 461.671875 L 180.824219 455.304688 C 180.019531 448.007812 179.40625 443.613281 178.980469 442.128906 C 177.410156 436.273438 176.074219 428.933594 174.972656 420.105469 C 173.488281 409.496094 172.488281 402.027344 171.980469 397.699219 C 171.132812 390.570312 170.707031 383.527344 170.707031 376.566406 L 170.136719 370.902344 C 170.050781 369.417969 170.21875 368.269531 170.644531 367.464844 C 170.476562 366.914062 170.410156 366.191406 170.453125 365.300781 L 172.042969 354.988281 C 173.148438 348.667969 173.972656 344.296875 174.527344 341.875 C 175.542969 337.675781 176.945312 329.867188 178.726562 318.453125 L 179.488281 312.914062 L 175.988281 309.988281 L 167.398438 301.585938 C 167.398438 299.84375 167.949219 298.019531 169.054688 296.109375 L 172.300781 290.507812 C 173.488281 287.878906 173.972656 284.1875 173.761719 279.433594 C 173.636719 275.273438 174.589844 271.605469 176.625 268.421875 L 181.398438 258.683594 L 180.253906 256.710938 L 179.742188 255.054688 L 179.296875 255.117188 L 179.296875 254.800781 C 176.457031 243.003906 175.054688 236.128906 175.097656 234.175781 L 175.097656 233.414062 L 172.933594 224.375 L 169.433594 208.335938 C 164.683594 194.671875 161.992188 186.375 161.355469 183.445312 L 160.527344 185.101562 C 159.679688 186.628906 158.808594 187.691406 157.917969 188.285156 L 157.152344 187.773438 L 156.328125 188.09375 L 151.554688 188.921875 C 150.15625 188.878906 147.417969 188.09375 143.34375 186.566406 L 143.027344 185.675781 L 142.453125 185.800781 L 142.453125 186.246094 C 138.042969 184.507812 134.605469 182.875 132.144531 181.34375 C 130.449219 180.285156 128.710938 178.820312 126.929688 176.953125 L 121.773438 171.605469 C 118.039062 168.042969 115.007812 164.796875 112.675781 161.867188 C 111.019531 159.789062 109.683594 157.878906 108.664062 156.140625 L 106.566406 149.136719 L 106.566406 96.625 L 107.964844 95.542969 L 107.902344 95.097656 L 106.566406 94.90625 L 106.566406 92.613281 C 107.964844 87.097656 109.195312 82.917969 110.257812 80.074219 C 111.910156 75.617188 114.011719 71.992188 116.554688 69.191406 L 112.929688 65.308594 C 110.339844 62.292969 108.472656 59.8125 107.328125 57.859375 C 104.359375 52.808594 102.851562 48.925781 102.8125 46.210938 L 102.8125 46.085938 C 102.769531 43.707031 103.296875 40.972656 104.402344 37.875 L 104.972656 38.128906 L 105.546875 37.683594 L 104.847656 36.601562 L 107.390625 29.027344 L 107.457031 28.644531 L 107.328125 28.644531 L 99.757812 30.554688 C 99.375 30.296875 99.078125 30.171875 98.867188 30.171875 L 98.355469 30.296875 L 98.355469 30.871094 L 98.230469 30.933594 C 91.949219 32.335938 88.070312 33.566406 86.585938 34.625 C 85.140625 35.601562 83.679688 36.980469 82.195312 38.765625 L 79.710938 42.011719 C 80.519531 42.519531 80.792969 43.921875 80.539062 46.210938 L 80.539062 46.464844 C 80.539062 50.878906 78.90625 55.90625 75.640625 61.550781 C 72.246094 67.40625 69.0625 70.335938 66.09375 70.335938 L 61.640625 69.636719 L 60.558594 68.933594 C 60.132812 68.933594 58.265625 70.019531 54.957031 72.183594 L 48.402344 76.699219 C 49.464844 77.296875 51.011719 78.800781 53.050781 81.21875 C 55.765625 84.445312 57.417969 87.035156 58.011719 88.984375 C 58.4375 90.386719 59.050781 91.808594 59.859375 93.25 L 60.304688 94.015625 L 60.429688 94.460938 L 60.75 94.84375 L 62.847656 97.707031 L 65.585938 101.144531 L 67.683594 99.425781 L 70.167969 97.007812 C 71.3125 95.945312 72.160156 95.289062 72.710938 95.03125 L 70.101562 89.304688 C 69.167969 86.757812 68.683594 85.125 68.640625 84.402344 L 68.703125 81.21875 L 68.957031 80.773438 L 68.894531 79.691406 L 68.957031 79.054688 L 68.703125 78.992188 C 69 75.597656 70.335938 72.035156 72.710938 68.300781 C 75.382812 64.097656 78.820312 60.425781 83.019531 57.289062 L 83.71875 58.113281 C 81.429688 60.492188 79.160156 63.1875 76.910156 66.199219 C 72.371094 72.183594 70.101562 76.890625 70.101562 80.328125 L 70.738281 82.875 L 70.675781 83.832031 L 70.484375 83.894531 C 70.953125 86.226562 71.84375 88.6875 73.15625 91.277344 L 73.921875 92.679688 L 73.855469 92.804688 C 73.855469 93.230469 74.046875 93.527344 74.429688 93.695312 L 74.492188 93.824219 L 74.8125 94.394531 C 75.871094 94.863281 76.742188 96.941406 77.421875 100.632812 L 77.484375 101.144531 L 77.546875 101.90625 L 77.546875 102.097656 L 77.613281 102.480469 L 77.675781 103.117188 L 78.058594 106.363281 L 78.503906 110.691406 C 79.265625 117.992188 79.648438 123.402344 79.648438 126.921875 L 79.648438 133.222656 L 77.355469 139.589844 C 77.355469 142.519531 78.882812 146.0625 81.9375 150.21875 C 84.101562 153.191406 86.140625 155.4375 88.046875 156.964844 L 87.347656 157.667969 L 86.839844 157.601562 L 86.902344 157.414062 L 86.773438 156.964844 L 84.867188 156.585938 L 82.449219 154.230469 C 80.667969 152.234375 79.351562 150.347656 78.503906 148.566406 L 76.910156 143.789062 L 76.910156 143.664062 L 76.59375 142.582031 M 110.574219 108.210938 L 110.574219 91.148438 L 112.992188 82.429688 C 113.882812 79.542969 114.625 77.65625 115.21875 76.765625 L 113.945312 76.957031 L 113.054688 76.890625 C 112.039062 78.632812 111.421875 80.03125 111.210938 81.09375 C 110.785156 83.382812 109.703125 87.375 107.964844 93.058594 L 107.964844 149.710938 L 112.800781 159.132812 L 114.902344 161.867188 C 117.488281 165.179688 119.78125 167.722656 121.773438 169.507812 L 132.335938 179.5 C 135.601562 182.003906 141.648438 184.613281 150.472656 187.328125 L 156.136719 186.691406 L 158.171875 185.738281 L 158.234375 185.738281 L 158.746094 184.972656 C 159.804688 183.488281 160.335938 182.363281 160.335938 181.601562 L 160.335938 181.34375 L 160.207031 181.535156 L 157.980469 183.765625 C 156.03125 185.25 153.886719 185.992188 151.554688 185.992188 C 147.734375 185.992188 143.8125 184.632812 139.78125 181.917969 C 137.574219 180.476562 135.773438 178.992188 134.375 177.460938 C 131.445312 175.339844 125.953125 170.144531 117.890625 161.867188 L 116.683594 160.59375 C 113.289062 157.199219 111.125 154.039062 110.191406 151.109375 C 109.472656 149.117188 109.132812 146.019531 109.175781 141.816406 C 109.9375 136.726562 110.320312 132.886719 110.320312 130.296875 C 109.894531 128.132812 109.703125 126.5625 109.746094 125.585938 C 109.324219 122.828125 109.132812 121.214844 109.175781 120.75 C 109.132812 119.476562 109.28125 118.710938 109.621094 118.457031 L 109.554688 116.738281 L 109.746094 110.117188 C 109.746094 109.226562 110 108.589844 110.511719 108.210938 L 110.574219 108.527344 L 110.574219 108.210938 M 186.933594 117.757812 L 187.125 118.203125 L 187.632812 118.074219 L 187.699219 117.4375 C 194.996094 114.339844 200.042969 113.257812 202.84375 114.191406 C 203.5625 114.445312 204.074219 114.742188 204.371094 115.082031 L 200.488281 104.199219 L 200.488281 103.5625 L 198.515625 103.5625 L 194.824219 103.054688 C 191.6875 102.035156 189.332031 99.636719 187.761719 95.859375 C 186.617188 93.058594 186.042969 90.195312 186.042969 87.265625 C 186.042969 84.679688 186.828125 81.242188 188.398438 76.957031 C 190.09375 72.246094 192.238281 69.296875 194.824219 68.109375 C 195.757812 67.640625 196.753906 67.40625 197.816406 67.40625 L 200.550781 67.597656 C 200.339844 64.5 198.984375 60.980469 196.480469 57.03125 L 194.824219 54.675781 L 188.652344 46.210938 L 187.125 44.175781 C 186.023438 42.773438 182.988281 40.738281 178.027344 38.0625 L 172.171875 34.753906 C 172.003906 39.71875 171.34375 43.367188 170.199219 45.703125 L 169.945312 46.210938 L 168.863281 47.738281 L 168.863281 47.804688 C 168.4375 47.886719 168.226562 48.058594 168.226562 48.3125 L 168.226562 48.503906 C 166.359375 50.539062 163.6875 52.386719 160.207031 54.039062 C 158.34375 54.847656 154.226562 56.203125 147.863281 58.113281 C 142.136719 59.8125 138.550781 61.148438 137.109375 62.125 C 130.875 63.992188 127.289062 65.285156 126.355469 66.007812 C 123.511719 68.257812 121.433594 69.488281 120.121094 69.699219 C 120.121094 70.675781 119.546875 72.035156 118.402344 73.773438 C 117.722656 74.832031 117 75.640625 116.238281 76.191406 C 116.621094 76.363281 116.769531 77 116.683594 78.101562 L 114.835938 82.8125 C 113.523438 86.078125 112.738281 88.519531 112.484375 90.132812 L 112.292969 93.570312 L 112.230469 93.886719 C 111.890625 94.226562 111.742188 94.585938 111.78125 94.96875 L 112.230469 95.351562 L 112.164062 95.796875 L 112.039062 96.113281 L 112.101562 96.496094 L 112.164062 96.5625 L 112.039062 102.035156 L 112.039062 106.363281 L 112.355469 125.714844 L 112.230469 128.769531 L 111.65625 129.023438 L 111.78125 130.296875 C 111.742188 132.332031 111.527344 133.988281 111.148438 135.261719 C 110.765625 136.535156 110.574219 138.785156 110.574219 142.007812 C 110.574219 148.332031 113.011719 154.125 117.890625 159.386719 L 120.308594 161.867188 L 136.347656 176.570312 L 141.882812 180.007812 L 142.074219 180.074219 L 142.582031 180.453125 L 142.644531 180.390625 L 149.328125 184.464844 C 153.144531 184.421875 155.839844 183.617188 157.410156 182.046875 L 158.617188 180.390625 C 158.957031 179.882812 159.296875 179.628906 159.636719 179.628906 L 160.082031 179.753906 L 160.019531 179.5625 L 160.019531 179.5 C 159.507812 177.335938 158.257812 174.535156 156.261719 171.097656 L 155.945312 170.523438 L 155.117188 169.25 L 154.546875 168.296875 L 154.671875 168.167969 L 153.972656 166.578125 L 153.652344 166.769531 L 150.980469 161.867188 L 150.789062 161.484375 L 150.789062 160.59375 L 149.453125 161.867188 L 147.609375 163.648438 C 147.480469 163.480469 147.355469 163.417969 147.226562 163.460938 C 146.929688 163.417969 146.738281 163.777344 146.65625 164.542969 L 146.589844 164.605469 C 146.082031 164.476562 145.847656 164.160156 145.890625 163.648438 L 147.800781 161.867188 C 149.964844 159.660156 151.046875 157.6875 151.046875 155.949219 L 150.664062 151.621094 C 150.367188 150.261719 150.21875 148.375 150.21875 145.953125 C 150.175781 143.28125 150.980469 139.609375 152.636719 134.941406 C 154.164062 130.359375 155.667969 127.007812 157.152344 124.886719 L 163.390625 114.191406 C 164.367188 112.707031 165.277344 110.777344 166.125 108.398438 L 166.0625 108.398438 L 166 107.761719 L 166.699219 106.679688 L 166.761719 106.363281 L 166.953125 105.664062 L 166.699219 105.027344 L 166.890625 104.773438 L 166.570312 104.007812 L 166.191406 103.878906 L 166.191406 103.816406 L 166.125 103.625 L 166.125 102.863281 L 160.589844 95.925781 L 160.589844 95.667969 L 160.082031 94.777344 L 159.890625 94.585938 L 159.828125 94.84375 L 156.835938 90.769531 C 157.046875 90.429688 157.300781 90.257812 157.597656 90.257812 L 157.855469 90.324219 L 158.109375 90.386719 L 158.746094 90.832031 L 158.871094 90.832031 C 160.613281 92.0625 163.390625 95.585938 167.207031 101.398438 L 168.734375 103.625 L 168.734375 103.691406 L 168.035156 102.988281 L 167.589844 103.117188 L 168.097656 104.007812 L 168.480469 105.664062 L 168.988281 106.363281 L 169.054688 106.425781 L 169.179688 106.871094 C 169.988281 109.886719 170.410156 112.324219 170.453125 114.191406 C 170.453125 116.441406 170.582031 119.519531 170.835938 123.421875 L 170.835938 123.675781 L 171.664062 123.421875 C 173.785156 122.617188 176.222656 121.40625 178.980469 119.792969 L 179.363281 119.539062 L 179.871094 119.285156 L 180.191406 119.15625 C 181.886719 118.4375 183.988281 118.03125 186.488281 117.949219 L 186.933594 117.757812 M 155.816406 20.558594 L 155.945312 21.640625 C 156.453125 21.980469 156.730469 22.703125 156.773438 23.804688 L 156.773438 24.695312 L 156.644531 27.371094 C 156.6875 28.429688 157.683594 29.472656 159.636719 30.488281 L 161.355469 31.507812 C 161.820312 30.660156 162.265625 29.9375 162.691406 29.34375 L 163.390625 28.324219 L 163.773438 26.035156 L 163.773438 25.398438 C 163.476562 23.359375 161.925781 21.578125 159.125 20.050781 L 158.300781 19.605469 C 156.390625 18.542969 155.203125 17.632812 154.734375 16.867188 L 155.625 19.605469 L 155.816406 20.558594 M 166.125 47.804688 L 166.191406 47.804688 C 166.742188 47.804688 167.058594 47.589844 167.144531 47.167969 L 166.890625 47.039062 L 167.527344 46.210938 L 168.988281 43.792969 C 170.136719 41.289062 170.707031 37.554688 170.707031 32.589844 C 170.707031 30.042969 169.710938 27.644531 167.71875 25.398438 L 165.679688 23.488281 L 164.597656 22.660156 L 165.171875 23.613281 L 165.234375 25.398438 L 165.234375 26.035156 L 164.917969 28.199219 L 164.917969 28.261719 L 164.855469 28.578125 L 163.453125 31.828125 L 163.515625 31.828125 L 163.328125 32.144531 L 162.625 33.417969 L 162.5625 33.671875 L 162.371094 33.863281 L 158.871094 39.019531 L 158.679688 38.828125 L 158.171875 39.65625 L 158.046875 39.65625 L 158.046875 39.71875 L 158.109375 39.972656 L 155.4375 43.347656 L 152.953125 46.210938 C 150.113281 49.480469 147.863281 51.769531 146.210938 53.085938 L 141.054688 56.394531 L 131.765625 61.679688 L 130.492188 62.507812 L 135.835938 60.597656 L 157.726562 53.148438 C 161.289062 51.664062 164.089844 49.882812 166.125 47.804688 M 160.910156 79.3125 C 160.949219 77.613281 160.824219 76.59375 160.527344 76.253906 L 161.097656 76.128906 L 166.125 93.25 L 166.0625 93.503906 L 165.808594 93.441406 C 165.425781 93.441406 165.128906 93.589844 164.917969 93.886719 C 163.855469 93.421875 162.945312 91.148438 162.179688 87.078125 L 161.035156 79.820312 L 160.910156 79.3125 M 188.460938 119.667969 L 186.488281 120.492188 L 182.734375 120.941406 C 181.25 121.195312 179.488281 121.980469 177.453125 123.292969 C 175.671875 124.398438 173.785156 124.949219 171.789062 124.949219 L 170.960938 124.949219 L 171.027344 126.09375 L 170.960938 127.558594 L 186.109375 123.996094 L 189.289062 123.039062 L 189.351562 123.105469 C 189.734375 122.636719 190.753906 122.320312 192.40625 122.148438 C 196.351562 121.128906 199.535156 120.621094 201.953125 120.621094 L 208.699219 120.875 C 207.933594 116.164062 206.660156 109.652344 204.878906 101.335938 L 204.5625 99.933594 L 202.398438 100.125 C 199.683594 100.125 197.160156 98.765625 194.824219 96.050781 L 193.871094 94.777344 C 191.75 91.933594 190.6875 89.835938 190.6875 88.476562 C 190.6875 85.972656 191.21875 83.300781 192.28125 80.457031 L 193.425781 76.191406 L 194.824219 74.917969 C 196.054688 74.113281 197.902344 73.519531 200.363281 73.136719 L 200.488281 69.828125 L 200.550781 69.445312 L 197.878906 69.0625 C 196.777344 69.019531 195.757812 69.296875 194.824219 69.890625 C 192.703125 71.164062 190.945312 73.902344 189.542969 78.101562 C 188.527344 81.070312 187.847656 84.085938 187.507812 87.140625 C 187.507812 93.335938 189.945312 97.792969 194.824219 100.507812 L 194.890625 100.507812 C 197.308594 101.90625 199.765625 102.671875 202.269531 102.796875 L 201.824219 103.433594 L 201.570312 103.5 L 201.570312 103.5625 L 206.023438 116.101562 L 206.023438 117.628906 L 205.578125 118.519531 L 191.007812 118.902344 C 190.753906 119.371094 190.179688 119.601562 189.289062 119.601562 L 188.398438 119.539062 L 188.460938 119.667969 M 196.796875 75.875 L 196.734375 75.9375 L 195.460938 77.527344 L 194.824219 78.929688 L 193.742188 81.21875 C 193.53125 81.644531 193.214844 82.8125 192.789062 84.722656 C 192.363281 86.589844 192.152344 87.839844 192.152344 88.476562 C 192.109375 90.003906 193 91.828125 194.824219 93.949219 L 195.652344 94.84375 C 198.242188 97.644531 201.125 98.9375 204.308594 98.726562 C 202.566406 90.492188 201.402344 84.65625 200.808594 81.21875 L 200.808594 79.183594 L 200.933594 79.121094 L 200.425781 75.492188 C 198.21875 76.296875 197.050781 76.511719 196.925781 76.128906 C 197.265625 75.492188 197.265625 75.34375 196.925781 75.683594 L 196.796875 75.875 M 115.410156 28.261719 C 116.046875 28.21875 116.832031 27.835938 117.765625 27.117188 L 118.65625 26.351562 L 119.800781 26.351562 L 119.738281 25.398438 C 119.738281 23.910156 119.84375 22.679688 120.054688 21.707031 L 120.183594 21.640625 L 120.183594 18.777344 L 118.273438 18.777344 C 115.558594 19.625 113.097656 21.472656 110.890625 24.316406 L 109.492188 26.605469 L 110.382812 26.289062 L 110.257812 26.351562 L 109.746094 26.859375 L 108.855469 29.726562 L 106.121094 37.617188 L 106.121094 37.683594 L 105.675781 37.746094 L 105.546875 38.191406 L 105.738281 38.699219 C 104.71875 41.757812 104.210938 44.152344 104.210938 45.894531 L 104.210938 46.210938 C 104.296875 49.308594 105.992188 53.128906 109.300781 57.667969 C 110.277344 59.070312 111.824219 61 113.945312 63.460938 C 113.351562 61.933594 112.929688 60.320312 112.675781 58.625 C 112.460938 57.054688 112.355469 53.148438 112.355469 46.910156 L 112.355469 45.574219 C 112.695312 45.574219 112.824219 45.511719 112.738281 45.382812 L 112.800781 44.9375 L 112.355469 44.175781 C 112.398438 39.464844 112.738281 34.882812 113.375 30.425781 L 113.5 29.597656 L 114.964844 28.199219 L 115.28125 28.261719 L 115.21875 28.453125 L 115.410156 28.261719 M 119.863281 26.988281 L 118.910156 27.371094 L 119.039062 27.5625 C 119.292969 27.390625 119.566406 27.242188 119.863281 27.117188 L 119.863281 26.988281 M 115.027344 29.535156 L 114.964844 29.597656 L 115.15625 29.535156 L 115.027344 29.535156 M 79.011719 46.210938 L 78.25 43.601562 L 76.148438 46.210938 L 74.429688 48.25 L 75.320312 52.066406 C 73.964844 60.554688 71.121094 64.796875 66.792969 64.796875 C 63.953125 64.796875 62.148438 63.484375 61.386719 60.851562 L 58.585938 62.507812 L 58.265625 62.699219 L 58.585938 63.652344 C 49.804688 71.164062 44.394531 74.917969 42.359375 74.917969 C 40.40625 73.984375 39.09375 73.074219 38.414062 72.183594 L 36.695312 74.535156 L 35.867188 75.683594 C 38.371094 76.148438 41.445312 77.933594 45.09375 81.03125 C 48.828125 84.210938 51.351562 87.035156 52.667969 89.496094 L 53.75 93.25 C 54.132812 94.863281 54.726562 96.199219 55.53125 97.261719 L 61.640625 104.390625 C 62.574219 103.582031 63.398438 102.90625 64.121094 102.351562 C 62.933594 101.632812 61.535156 99.957031 59.921875 97.324219 C 58.4375 94.734375 57.269531 92.296875 56.421875 90.003906 C 55.574219 87.925781 53.707031 85.230469 50.820312 81.921875 L 46.6875 77.210938 L 46.75 76.765625 C 47.003906 76.550781 47.195312 76.445312 47.320312 76.445312 L 47.257812 76 L 59.859375 67.40625 C 60.875 67.40625 61.746094 67.640625 62.46875 68.109375 C 63.1875 68.53125 64.269531 68.746094 65.710938 68.746094 C 71.4375 68.746094 75.894531 61.339844 79.074219 46.53125 L 79.011719 46.210938 M 62.53125 60.277344 L 65.519531 63.269531 C 69.847656 63.269531 72.628906 59.515625 73.855469 52.003906 L 73.347656 49.585938 L 69.976562 53.53125 C 66.117188 57.945312 63.65625 60.171875 62.59375 60.214844 L 62.46875 60.152344 L 62.53125 60.277344 M 48.339844 67.34375 C 46.429688 67.726562 44.523438 68.46875 42.613281 69.570312 L 39.75 71.289062 L 42.421875 73.074219 C 43.820312 73.074219 46.070312 71.863281 49.167969 69.445312 L 55.847656 64.035156 C 52.414062 65.859375 49.910156 66.960938 48.339844 67.34375 M 117.828125 70.207031 L 117.574219 70.144531 L 115.15625 73.644531 L 114.203125 75.046875 L 115.410156 74.535156 C 115.75 74.324219 116.257812 73.6875 116.9375 72.628906 L 117.699219 70.527344 L 117.828125 70.207031 M 120.628906 207.886719 L 120.628906 207.570312 L 119.292969 207.378906 L 118.402344 207.378906 C 116.875 206.699219 114.710938 205.40625 111.910156 203.496094 C 107.921875 200.78125 105.101562 198.617188 103.445312 197.003906 C 101.621094 195.222656 98.144531 193.140625 93.011719 190.765625 C 89.320312 188.984375 87.09375 187.625 86.328125 186.691406 L 86.074219 186.054688 C 86.246094 185.800781 86.476562 185.695312 86.773438 185.738281 C 88.003906 185.738281 90.953125 187.222656 95.621094 190.191406 L 105.292969 196.496094 C 112.292969 200.652344 117.53125 204.195312 121.011719 207.125 L 120.628906 207.886719 M 70.929688 240.480469 L 70.992188 247.796875 C 70.738281 253.1875 69.910156 257.941406 68.511719 262.058594 L 69.148438 262.375 L 69.277344 262.695312 L 67.683594 264.984375 C 66.625 266.511719 66.09375 268.039062 66.09375 269.566406 L 65.519531 276.316406 C 65.480469 283.359375 65.859375 292.164062 66.667969 302.730469 L 66.921875 315.78125 C 66.964844 321.464844 67.15625 325.878906 67.492188 329.019531 C 68.128906 334.492188 69.613281 344.167969 71.949219 358.042969 C 73.222656 365.683594 73.855469 373.492188 73.855469 381.46875 L 73.792969 382.996094 L 73.730469 383.058594 C 74.75 388.066406 75.085938 392.671875 74.75 396.871094 C 74.578125 399.164062 74.898438 402.347656 75.703125 406.421875 C 76.679688 411.34375 77.230469 414.609375 77.355469 416.222656 C 77.949219 424.667969 78.523438 437.546875 79.074219 454.859375 L 79.074219 455.242188 C 79.5 457.40625 79.710938 460.101562 79.710938 463.324219 L 79.648438 472.171875 L 79.964844 489.359375 C 79.921875 498.101562 79.585938 504.425781 78.949219 508.328125 L 87.476562 508.644531 C 92.226562 508.605469 95.789062 508.136719 98.164062 507.246094 C 100.457031 506.3125 102.664062 505.84375 104.785156 505.84375 L 107.011719 505.972656 C 106.585938 503.976562 106.394531 501.582031 106.4375 498.78125 L 106.566406 490.25 C 106.523438 487.917969 106.140625 485.050781 105.417969 481.65625 L 103.636719 473.320312 C 103.171875 470.601562 102.515625 465.425781 101.664062 457.789062 C 100.648438 448.835938 100.160156 442.722656 100.203125 439.457031 C 100.203125 435.507812 100.457031 430.015625 100.964844 422.96875 C 101.347656 416.945312 101.75 412.996094 102.175781 411.128906 C 101.539062 410.453125 100.753906 409.074219 99.820312 406.992188 C 98.25 403.34375 97.273438 401.308594 96.894531 400.882812 C 95.40625 399.058594 94.664062 397.296875 94.664062 395.597656 L 94.984375 390.125 L 95.554688 374.46875 L 95.300781 371.09375 L 94.09375 365.554688 C 93.285156 361.609375 92.417969 358.976562 91.484375 357.664062 C 90.042969 355.582031 88.832031 352.910156 87.855469 349.640625 L 85.628906 340.984375 C 84.910156 338.523438 83.761719 333.433594 82.195312 325.710938 C 80.285156 316.375 79.351562 310.328125 79.394531 307.566406 L 79.394531 307.25 L 73.601562 287.070312 C 72.753906 284.144531 72.371094 280.050781 72.457031 274.789062 C 72.457031 273.046875 72.183594 270.988281 71.628906 268.613281 C 70.992188 266.109375 70.675781 264.136719 70.675781 262.695312 L 71.4375 254.800781 L 71.566406 247.164062 L 70.929688 240.480469 M 102.238281 208.78125 L 101.539062 208.398438 L 96.894531 204.195312 L 96 204.386719 L 95.875 204.707031 L 95.875 204.578125 C 95.832031 204.15625 96.066406 203.941406 96.574219 203.941406 C 97 203.941406 99.269531 204.9375 103.382812 206.933594 L 104.65625 207.570312 C 108.21875 209.351562 110.828125 210.796875 112.484375 211.898438 C 117.574219 215.292969 121.964844 217.96875 125.65625 219.917969 L 142.710938 229.148438 L 143.15625 229.402344 L 143.472656 229.59375 L 153.652344 235.132812 L 152.828125 236.023438 L 152.761719 236.023438 L 153.082031 235.515625 L 152.953125 235.195312 L 152.382812 234.878906 L 150.21875 234.8125 L 139.78125 229.277344 L 123.9375 220.554688 C 114.136719 215.378906 106.90625 211.453125 102.238281 208.78125 M 182.988281 295.984375 L 182.097656 293.246094 L 180.824219 290.953125 C 180.148438 292.015625 179.808594 293.121094 179.808594 294.265625 L 182.417969 296.175781 C 182.796875 296.554688 182.988281 296.492188 182.988281 295.984375 M 178.917969 296.175781 L 177.769531 299.929688 C 177.769531 300.183594 178.070312 300.523438 178.664062 300.949219 C 178.535156 301.5 178.109375 301.777344 177.390625 301.777344 L 176.117188 301.648438 L 176.054688 300.566406 C 176.054688 299.886719 176.730469 297.722656 178.089844 294.074219 C 179.488281 290.171875 180.550781 288.21875 181.269531 288.21875 C 181.90625 288.175781 182.628906 289.492188 183.433594 292.164062 L 184.453125 296.238281 L 184.324219 297.449219 L 182.988281 297.765625 L 180.570312 297.066406 L 178.917969 296.175781 M 188.269531 315.144531 L 186.425781 315.523438 L 186.363281 317.753906 C 186.363281 319.324219 185.980469 322.058594 185.214844 325.964844 C 185.175781 333.136719 185.554688 344.105469 186.363281 358.871094 L 186.234375 359.574219 L 186.042969 359.761719 L 191.835938 376.949219 C 193.023438 379.835938 193.976562 386.625 194.699219 397.316406 L 194.632812 397.953125 L 194.632812 398.082031 L 196.351562 403.175781 C 197.835938 408.179688 198.984375 411.277344 199.789062 412.46875 L 205.324219 420.296875 C 207.488281 423.4375 209.078125 426.175781 210.097656 428.507812 C 213.066406 435.382812 215.0625 440.878906 216.078125 444.992188 C 216.84375 448.261719 217.308594 452.039062 217.480469 456.324219 L 219.007812 468.992188 L 223.523438 493.496094 L 226.261719 492.925781 C 228.933594 492.328125 230.269531 491.695312 230.269531 491.015625 C 226.15625 472.894531 223.289062 459.804688 221.679688 451.742188 C 221.210938 449.363281 219.175781 442.976562 215.570312 432.582031 C 212.644531 424.09375 211.179688 417.496094 211.179688 412.785156 C 211.179688 412.148438 211.242188 411.660156 211.371094 411.320312 C 209.886719 406.613281 207.507812 400.375 204.242188 392.609375 C 200.253906 382.933594 197.582031 375.972656 196.226562 371.730469 C 194.402344 366.042969 192.875 359.148438 191.644531 351.042969 L 188.652344 330.292969 L 188.652344 315.015625 L 188.269531 315.144531 M 189.417969 312.980469 L 189.480469 313.042969 L 190.5625 313.105469 L 190.6875 313.617188 L 189.988281 314.378906 L 189.863281 314.507812 C 190.242188 317.605469 190.710938 325.242188 191.261719 337.421875 L 192.28125 349.640625 C 192.703125 354.648438 193.445312 358.722656 194.507812 361.863281 C 195.820312 365.808594 199.363281 375.230469 205.132812 390.125 C 210.140625 402.984375 212.644531 409.816406 212.644531 410.621094 L 212.515625 413.105469 L 212.453125 413.105469 L 213.34375 418.707031 C 214.445312 424.5625 215.484375 428.65625 216.460938 430.992188 C 220.238281 440.113281 222.464844 446.902344 223.140625 451.359375 L 224.480469 461.734375 C 225.113281 465.636719 226.195312 468.992188 227.722656 471.792969 L 230.078125 480.957031 C 231.351562 486.855469 232.007812 490.484375 232.050781 491.84375 C 232.007812 492.265625 231.179688 492.839844 229.570312 493.558594 C 227.660156 494.410156 225.667969 494.832031 223.585938 494.832031 L 223.523438 495.214844 L 222.953125 495.46875 L 222.316406 494.515625 L 222.25 494.453125 L 222.1875 494.195312 C 221.382812 491.734375 220.277344 485.730469 218.878906 476.183594 C 216.628906 460.441406 214.847656 450.105469 213.535156 445.183594 L 213.535156 443.847656 C 212.304688 439.222656 210.753906 434.492188 208.886719 429.652344 C 207.996094 427.40625 206.511719 424.730469 204.433594 421.632812 L 198.960938 413.867188 C 197.476562 411.789062 196.246094 409.15625 195.269531 405.976562 L 192.980469 398.019531 L 192.980469 396.808594 C 192.597656 395.492188 192.324219 393.351562 192.152344 390.378906 C 191.6875 383.761719 191.199219 379.601562 190.6875 377.902344 C 186.234375 367.890625 184.007812 361.207031 184.007812 357.855469 L 184.070312 357.34375 C 183.859375 356.324219 183.753906 355.03125 183.753906 353.460938 L 184.007812 342.894531 L 183.753906 326.027344 L 184.898438 315.398438 L 184.453125 315.144531 L 184.324219 314.761719 L 184.515625 314.1875 L 184.898438 314.125 L 184.898438 313.617188 L 185.214844 313.359375 L 185.660156 313.234375 C 185.875 313.234375 186.066406 313.464844 186.234375 313.933594 L 187 313.804688 C 187.210938 313.167969 187.867188 312.894531 188.972656 312.980469 L 189.417969 312.980469 M 140.226562 373.703125 C 145.785156 373.703125 150.429688 378.285156 154.164062 387.453125 C 156.921875 394.199219 158.300781 399.589844 158.300781 403.621094 C 158.300781 407.820312 157.980469 411.238281 157.34375 413.867188 C 155.773438 419.851562 152.722656 422.84375 148.183594 422.84375 C 144.746094 422.84375 141.816406 421.84375 139.398438 419.851562 C 137.703125 418.449219 136.515625 416.902344 135.835938 415.203125 C 134.777344 411.089844 133.886719 408.203125 133.164062 406.546875 C 131.210938 402.347656 130.238281 396.574219 130.238281 389.234375 C 130.238281 385.117188 130.492188 382.210938 131 380.515625 C 132.402344 375.929688 135.476562 373.660156 140.226562 373.703125 M 127.945312 373.003906 C 126.164062 375.972656 125.253906 377.691406 125.210938 378.160156 L 125.65625 381.46875 L 124.957031 386.6875 C 124.445312 390.039062 124.191406 393.351562 124.191406 396.617188 C 124.191406 400.863281 124.253906 403.472656 124.382812 404.445312 C 124.550781 406.441406 125.253906 409.539062 126.484375 413.742188 C 127.160156 416.160156 129.175781 419.320312 132.527344 423.226562 C 136.132812 427.511719 139.0625 429.652344 141.308594 429.652344 C 152.128906 429.652344 159.167969 426.046875 162.4375 418.832031 C 163.453125 416.542969 164.027344 413.996094 164.152344 411.195312 L 164.089844 407.375 C 164.429688 399.78125 163.625 392.628906 161.671875 385.925781 C 157.769531 372.640625 150.046875 366.023438 138.507812 366.066406 C 137.195312 366.066406 135.265625 366.933594 132.71875 368.675781 C 130.214844 370.328125 128.625 371.773438 127.945312 373.003906 M 165.679688 398.910156 L 165.554688 407.375 C 165.511719 412.847656 164.9375 417.050781 163.835938 419.976562 C 160.867188 427.488281 154.695312 431.246094 145.316406 431.246094 C 140.355469 431.203125 136.007812 429.378906 132.273438 425.769531 C 129.21875 422.886719 126.929688 419.234375 125.402344 414.824219 C 123.957031 410.621094 123.109375 407.375 122.855469 405.082031 L 122.726562 396.617188 C 122.21875 390.464844 122.601562 384.800781 123.875 379.621094 C 126.335938 369.480469 131.996094 364.410156 140.863281 364.410156 C 144.765625 364.410156 147.734375 365.089844 149.773438 366.445312 L 152.253906 368.929688 L 156.328125 371.792969 C 157.597656 372.726562 158.449219 373.617188 158.871094 374.46875 C 160.78125 378.160156 162.179688 381.808594 163.070312 385.414062 L 164.597656 391.972656 L 165.679688 398.910156 M 152.828125 388.726562 C 149.007812 379.769531 144.152344 375.292969 138.253906 375.292969 C 133.886719 375.292969 131.699219 379.941406 131.699219 389.234375 L 132.210938 394.773438 C 132.71875 398.71875 133.441406 402.367188 134.375 405.71875 C 137.300781 416.074219 141.816406 421.273438 147.925781 421.316406 C 153.867188 421.273438 156.835938 415.394531 156.835938 403.683594 C 156.835938 400.078125 155.5 395.089844 152.828125 388.726562 M 138.953125 501.835938 C 130.046875 501.835938 124.253906 502.34375 121.582031 503.363281 L 122.726562 511.511719 L 122.726562 512.210938 L 130.808594 511.257812 L 131.320312 510.808594 L 181.144531 510.683594 L 186.808594 510.171875 L 190.117188 510.300781 L 192.40625 510.046875 C 192.621094 510.300781 192.726562 510.171875 192.726562 509.664062 C 192.683594 508.816406 192.089844 506.992188 190.945312 504.191406 L 190.179688 502.089844 L 181.90625 503.554688 L 161.164062 504.699219 C 152.933594 504.699219 147.035156 504.234375 143.472656 503.300781 C 141.308594 502.324219 139.804688 501.835938 138.953125 501.835938 M 194.699219 496.296875 C 193.171875 495.238281 191.261719 491.4375 188.972656 484.902344 C 188.503906 483.503906 187.507812 481.574219 185.980469 479.113281 L 185.027344 477.519531 L 185.214844 479.367188 C 185.386719 481.914062 185.726562 483.949219 186.234375 485.476562 L 190.117188 497.316406 L 190.878906 497.125 L 194.632812 496.296875 L 194.699219 496.296875 "/>
<path style=" stroke:none;fill-rule:evenodd;fill:rgb(41.960785%,9.803922%,14.509805%);fill-opacity:1;" d="M 155.179688 166.449219 L 155.308594 166.515625 L 155.308594 166.707031 L 155.179688 166.449219 M 77.484375 101.144531 L 77.421875 100.632812 L 77.613281 101.269531 L 77.484375 101.144531 M 74.8125 94.394531 L 74.492188 93.824219 L 74.621094 93.761719 L 74.8125 94.394531 M 173 502.789062 L 173 502.980469 L 172.425781 503.234375 L 173 502.789062 M 171.664062 123.421875 L 170.835938 123.675781 L 170.835938 123.421875 L 171.664062 123.421875 M 168.097656 104.007812 L 167.589844 103.117188 L 168.035156 102.988281 L 168.734375 103.691406 L 168.097656 104.007812 M 160.019531 179.5 L 160.019531 179.5625 L 159.636719 179.628906 L 160.019531 179.5 M 112.039062 96.113281 L 112.164062 95.796875 L 112.164062 96.5625 L 112.039062 96.113281 "/>
<path style=" stroke:none;fill-rule:evenodd;fill:rgb(80.000001%,80.000001%,80.000001%);fill-opacity:1;" d="M 158.109375 39.972656 L 158.046875 39.71875 L 158.046875 39.65625 L 158.171875 39.65625 L 158.679688 38.828125 L 158.871094 39.019531 L 162.371094 33.863281 L 162.5625 33.671875 L 162.625 33.417969 L 163.328125 32.144531 L 163.515625 31.828125 L 163.453125 31.828125 L 164.855469 28.578125 L 164.917969 28.261719 L 164.917969 28.199219 L 165.234375 26.035156 L 165.234375 25.398438 L 165.171875 23.613281 L 164.597656 22.660156 L 165.679688 23.488281 L 167.71875 25.398438 C 169.710938 27.644531 170.707031 30.042969 170.707031 32.589844 C 170.707031 37.554688 170.136719 41.289062 168.988281 43.792969 L 167.527344 46.210938 L 166.890625 47.039062 L 167.144531 47.167969 C 167.058594 47.589844 166.742188 47.804688 166.191406 47.804688 L 166.125 47.804688 C 164.9375 47.761719 163.261719 46.488281 161.097656 43.984375 C 159.359375 41.988281 158.363281 40.652344 158.109375 39.972656 M 155.816406 20.558594 L 155.625 19.605469 L 154.734375 16.867188 C 155.203125 17.632812 156.390625 18.542969 158.300781 19.605469 L 159.125 20.050781 C 161.925781 21.578125 163.476562 23.359375 163.773438 25.398438 L 163.773438 26.035156 L 163.390625 28.324219 L 162.691406 29.34375 C 162.265625 29.9375 161.820312 30.660156 161.355469 31.507812 L 159.636719 30.488281 C 157.683594 29.472656 156.6875 28.429688 156.644531 27.371094 L 156.773438 24.695312 L 156.773438 23.804688 C 156.730469 22.703125 156.453125 21.980469 155.945312 21.640625 L 155.816406 20.558594 M 189.289062 123.039062 L 188.460938 119.667969 L 188.398438 119.539062 L 189.289062 119.601562 C 190.179688 119.601562 190.753906 119.371094 191.007812 118.902344 L 205.578125 118.519531 L 206.023438 117.628906 L 206.023438 116.101562 L 201.570312 103.5625 L 201.824219 103.433594 L 202.269531 102.796875 C 199.765625 102.671875 197.308594 101.90625 194.890625 100.507812 L 194.824219 100.507812 C 189.945312 97.792969 187.507812 93.335938 187.507812 87.140625 C 187.847656 84.085938 188.527344 81.070312 189.542969 78.101562 C 190.945312 73.902344 192.703125 71.164062 194.824219 69.890625 C 195.757812 69.296875 196.777344 69.019531 197.878906 69.0625 L 200.550781 69.445312 L 200.488281 69.828125 L 200.363281 73.136719 C 197.902344 73.519531 196.054688 74.113281 194.824219 74.917969 L 193.425781 76.191406 L 192.28125 80.457031 C 191.21875 83.300781 190.6875 85.972656 190.6875 88.476562 C 190.6875 89.835938 191.75 91.933594 193.871094 94.777344 L 194.824219 96.050781 C 197.160156 98.765625 199.683594 100.125 202.398438 100.125 L 204.5625 99.933594 L 204.878906 101.335938 C 206.660156 109.652344 207.933594 116.164062 208.699219 120.875 L 201.953125 120.621094 C 199.535156 120.621094 196.351562 121.128906 192.40625 122.148438 C 190.753906 122.320312 189.734375 122.636719 189.351562 123.105469 L 189.289062 123.039062 M 106.121094 37.617188 L 108.855469 29.726562 L 109.746094 26.859375 L 110.257812 26.351562 L 110.382812 26.289062 L 109.492188 26.605469 L 110.890625 24.316406 C 113.097656 21.472656 115.558594 19.625 118.273438 18.777344 L 120.183594 18.777344 L 120.183594 21.640625 L 120.054688 21.707031 C 119.84375 22.679688 119.738281 23.910156 119.738281 25.398438 L 119.800781 26.351562 L 118.65625 26.351562 L 117.765625 27.117188 C 116.832031 27.835938 116.046875 28.21875 115.410156 28.261719 L 115.28125 28.261719 L 114.964844 28.199219 L 113.5 29.597656 L 113.375 30.425781 C 112.738281 34.882812 112.398438 39.464844 112.355469 44.175781 L 112.800781 44.9375 L 112.738281 45.382812 C 112.824219 45.511719 112.695312 45.574219 112.355469 45.574219 L 112.230469 45.574219 L 108.15625 41.691406 L 105.738281 38.699219 L 105.546875 38.191406 L 105.675781 37.746094 L 106.121094 37.683594 L 106.121094 37.617188 "/>
<path style=" stroke:none;fill-rule:evenodd;fill:rgb(100%,100%,100%);fill-opacity:1;" d="M 158.109375 39.972656 C 158.363281 40.652344 159.359375 41.988281 161.097656 43.984375 C 163.261719 46.488281 164.9375 47.761719 166.125 47.804688 C 164.089844 49.882812 161.289062 51.664062 157.726562 53.148438 L 135.835938 60.597656 L 130.492188 62.507812 L 131.765625 61.679688 L 141.054688 56.394531 L 146.210938 53.085938 C 147.863281 51.769531 150.113281 49.480469 152.953125 46.210938 L 155.4375 43.347656 L 158.109375 39.972656 M 189.289062 123.039062 L 186.109375 123.996094 L 170.960938 127.558594 L 171.027344 126.09375 L 170.960938 124.949219 L 171.789062 124.949219 C 173.785156 124.949219 175.671875 124.398438 177.453125 123.292969 C 179.488281 121.980469 181.25 121.195312 182.734375 120.941406 L 186.488281 120.492188 L 188.460938 119.667969 L 189.289062 123.039062 M 106.121094 37.617188 L 106.121094 37.683594 L 106.121094 37.617188 M 105.738281 38.699219 L 108.15625 41.691406 L 112.230469 45.574219 L 112.355469 45.574219 L 112.355469 46.910156 C 112.355469 53.148438 112.460938 57.054688 112.675781 58.625 C 112.929688 60.320312 113.351562 61.933594 113.945312 63.460938 C 111.824219 61 110.277344 59.070312 109.300781 57.667969 C 105.992188 53.128906 104.296875 49.308594 104.210938 46.210938 L 104.210938 45.894531 C 104.210938 44.152344 104.71875 41.757812 105.738281 38.699219 M 79.011719 46.210938 L 79.074219 46.53125 C 75.894531 61.339844 71.4375 68.746094 65.710938 68.746094 C 64.269531 68.746094 63.1875 68.53125 62.46875 68.109375 C 61.746094 67.640625 60.875 67.40625 59.859375 67.40625 L 47.257812 76 L 47.320312 76.445312 C 47.195312 76.445312 47.003906 76.550781 46.75 76.765625 L 46.6875 77.210938 L 50.820312 81.921875 C 53.707031 85.230469 55.574219 87.925781 56.421875 90.003906 C 57.269531 92.296875 58.4375 94.734375 59.921875 97.324219 C 61.535156 99.957031 62.933594 101.632812 64.121094 102.351562 C 63.398438 102.90625 62.574219 103.582031 61.640625 104.390625 L 55.53125 97.261719 C 54.726562 96.199219 54.132812 94.863281 53.75 93.25 L 52.667969 89.496094 C 51.351562 87.035156 48.828125 84.210938 45.09375 81.03125 C 41.445312 77.933594 38.371094 76.148438 35.867188 75.683594 L 36.695312 74.535156 L 38.414062 72.183594 C 39.09375 73.074219 40.40625 73.984375 42.359375 74.917969 C 44.394531 74.917969 49.804688 71.164062 58.585938 63.652344 L 58.265625 62.699219 L 58.585938 62.507812 L 61.386719 60.851562 C 62.148438 63.484375 63.953125 64.796875 66.792969 64.796875 C 71.121094 64.796875 73.964844 60.554688 75.320312 52.066406 L 74.429688 48.25 L 76.148438 46.210938 L 78.25 43.601562 L 79.011719 46.210938 M 70.929688 240.480469 L 71.566406 247.164062 L 71.4375 254.800781 L 70.675781 262.695312 C 70.675781 264.136719 70.992188 266.109375 71.628906 268.613281 C 72.183594 270.988281 72.457031 273.046875 72.457031 274.789062 C 72.371094 280.050781 72.753906 284.144531 73.601562 287.070312 L 79.394531 307.25 L 79.394531 307.566406 C 79.351562 310.328125 80.285156 316.375 82.195312 325.710938 C 83.761719 333.433594 84.910156 338.523438 85.628906 340.984375 L 87.855469 349.640625 C 88.832031 352.910156 90.042969 355.582031 91.484375 357.664062 C 92.417969 358.976562 93.285156 361.609375 94.09375 365.554688 L 95.300781 371.09375 L 95.554688 374.46875 L 94.984375 390.125 L 94.664062 395.597656 C 94.664062 397.296875 95.40625 399.058594 96.894531 400.882812 C 97.273438 401.308594 98.25 403.34375 99.820312 406.992188 C 100.753906 409.074219 101.539062 410.453125 102.175781 411.128906 C 101.75 412.996094 101.347656 416.945312 100.964844 422.96875 C 100.457031 430.015625 100.203125 435.507812 100.203125 439.457031 C 100.160156 442.722656 100.648438 448.835938 101.664062 457.789062 C 102.515625 465.425781 103.171875 470.601562 103.636719 473.320312 L 105.417969 481.65625 C 106.140625 485.050781 106.523438 487.917969 106.566406 490.25 L 106.4375 498.78125 C 106.394531 501.582031 106.585938 503.976562 107.011719 505.972656 L 104.785156 505.84375 C 102.664062 505.84375 100.457031 506.3125 98.164062 507.246094 C 95.789062 508.136719 92.226562 508.605469 87.476562 508.644531 L 78.949219 508.328125 C 79.585938 504.425781 79.921875 498.101562 79.964844 489.359375 L 79.648438 472.171875 L 79.710938 463.324219 C 79.710938 460.101562 79.5 457.40625 79.074219 455.242188 L 79.074219 454.859375 C 78.523438 437.546875 77.949219 424.667969 77.355469 416.222656 C 77.230469 414.609375 76.679688 411.34375 75.703125 406.421875 C 74.898438 402.347656 74.578125 399.164062 74.75 396.871094 C 75.085938 392.671875 74.75 388.066406 73.730469 383.058594 L 73.792969 382.996094 L 73.855469 381.46875 C 73.855469 373.492188 73.222656 365.683594 71.949219 358.042969 C 69.613281 344.167969 68.128906 334.492188 67.492188 329.019531 C 67.15625 325.878906 66.964844 321.464844 66.921875 315.78125 L 66.667969 302.730469 C 65.859375 292.164062 65.480469 283.359375 65.519531 276.316406 L 66.09375 269.566406 C 66.09375 268.039062 66.625 266.511719 67.683594 264.984375 L 69.277344 262.695312 L 69.148438 262.375 L 68.511719 262.058594 C 69.910156 257.941406 70.738281 253.1875 70.992188 247.796875 L 70.929688 240.480469 M 188.269531 315.144531 L 188.652344 315.015625 L 188.652344 330.292969 L 191.644531 351.042969 C 192.875 359.148438 194.402344 366.042969 196.226562 371.730469 C 197.582031 375.972656 200.253906 382.933594 204.242188 392.609375 C 207.507812 400.375 209.886719 406.613281 211.371094 411.320312 C 211.242188 411.660156 211.179688 412.148438 211.179688 412.785156 C 211.179688 417.496094 212.644531 424.09375 215.570312 432.582031 C 219.175781 442.976562 221.210938 449.363281 221.679688 451.742188 C 223.289062 459.804688 226.15625 472.894531 230.269531 491.015625 C 230.269531 491.695312 228.933594 492.328125 226.261719 492.925781 L 223.523438 493.496094 L 219.007812 468.992188 L 217.480469 456.324219 C 217.308594 452.039062 216.84375 448.261719 216.078125 444.992188 C 215.0625 440.878906 213.066406 435.382812 210.097656 428.507812 C 209.078125 426.175781 207.488281 423.4375 205.324219 420.296875 L 199.789062 412.46875 C 198.984375 411.277344 197.835938 408.179688 196.351562 403.175781 L 194.632812 398.082031 L 194.632812 397.953125 L 194.699219 397.316406 C 193.976562 386.625 193.023438 379.835938 191.835938 376.949219 L 186.042969 359.761719 L 186.234375 359.574219 L 186.363281 358.871094 C 185.554688 344.105469 185.175781 333.136719 185.214844 325.964844 C 185.980469 322.058594 186.363281 319.324219 186.363281 317.753906 L 186.425781 315.523438 L 188.269531 315.144531 M 127.945312 373.003906 C 128.625 371.773438 130.214844 370.328125 132.71875 368.675781 C 135.265625 366.933594 137.195312 366.066406 138.507812 366.066406 C 150.046875 366.023438 157.769531 372.640625 161.671875 385.925781 C 163.625 392.628906 164.429688 399.78125 164.089844 407.375 L 164.152344 411.195312 C 164.027344 413.996094 163.453125 416.542969 162.4375 418.832031 C 159.167969 426.046875 152.128906 429.652344 141.308594 429.652344 C 139.0625 429.652344 136.132812 427.511719 132.527344 423.226562 C 129.175781 419.320312 127.160156 416.160156 126.484375 413.742188 C 125.253906 409.539062 124.550781 406.441406 124.382812 404.445312 C 124.253906 403.472656 124.191406 400.863281 124.191406 396.617188 C 124.191406 393.351562 124.445312 390.039062 124.957031 386.6875 L 125.65625 381.46875 L 125.210938 378.160156 C 125.253906 377.691406 126.164062 375.972656 127.945312 373.003906 M 140.226562 373.703125 C 135.476562 373.660156 132.402344 375.929688 131 380.515625 C 130.492188 382.210938 130.238281 385.117188 130.238281 389.234375 C 130.238281 396.574219 131.210938 402.347656 133.164062 406.546875 C 133.886719 408.203125 134.777344 411.089844 135.835938 415.203125 C 136.515625 416.902344 137.703125 418.449219 139.398438 419.851562 C 141.816406 421.84375 144.746094 422.84375 148.183594 422.84375 C 152.722656 422.84375 155.773438 419.851562 157.34375 413.867188 C 157.980469 411.238281 158.300781 407.820312 158.300781 403.621094 C 158.300781 399.589844 156.921875 394.199219 154.164062 387.453125 C 150.429688 378.285156 145.785156 373.703125 140.226562 373.703125 M 138.953125 501.835938 C 139.804688 501.835938 141.308594 502.324219 143.472656 503.300781 C 147.035156 504.234375 152.933594 504.699219 161.164062 504.699219 L 181.90625 503.554688 L 190.179688 502.089844 L 190.945312 504.191406 C 192.089844 506.992188 192.683594 508.816406 192.726562 509.664062 C 192.726562 510.171875 192.621094 510.300781 192.40625 510.046875 L 190.117188 510.300781 L 186.808594 510.171875 L 181.144531 510.683594 L 131.320312 510.808594 L 130.808594 511.257812 L 122.726562 512.210938 L 122.726562 511.511719 L 121.582031 503.363281 C 124.253906 502.34375 130.046875 501.835938 138.953125 501.835938 M 194.632812 496.296875 L 190.878906 497.125 L 190.117188 497.316406 L 186.234375 485.476562 C 185.726562 483.949219 185.386719 481.914062 185.214844 479.367188 L 185.027344 477.519531 L 185.980469 479.113281 C 187.507812 481.574219 188.503906 483.503906 188.972656 484.902344 C 191.261719 491.4375 193.171875 495.238281 194.699219 496.296875 L 194.632812 496.296875 "/>
<path style=" stroke:none;fill-rule:evenodd;fill:rgb(63.921571%,20.784314%,31.37255%);fill-opacity:1;" d="M 77.675781 103.117188 L 77.613281 102.480469 L 78.3125 103.117188 L 77.675781 103.117188 M 98.230469 30.933594 L 98.355469 30.871094 L 98.355469 31.445312 L 98.230469 30.933594 M 72.710938 156.777344 L 72.777344 156.332031 L 72.902344 156.394531 L 72.710938 156.777344 M 168.863281 47.738281 L 168.988281 47.804688 L 168.863281 47.804688 L 168.863281 47.738281 M 180.191406 119.15625 L 179.871094 119.285156 L 179.871094 119.222656 L 180 118.585938 L 180.191406 119.15625 M 142.074219 180.074219 L 141.882812 180.007812 L 142.007812 179.753906 L 142.074219 180.074219 M 196.734375 75.9375 L 196.925781 76.128906 L 196.734375 75.9375 M 143.15625 229.402344 L 142.710938 229.148438 L 142.898438 228.832031 L 143.15625 229.402344 M 139.273438 150.472656 L 139.335938 150.285156 L 139.335938 150.472656 L 139.273438 150.472656 M 163.070312 385.414062 L 163.582031 385.222656 L 164.597656 391.972656 L 163.070312 385.414062 "/>
<path style=" stroke:none;fill-rule:evenodd;fill:rgb(80.000001%,0%,20%);fill-opacity:1;" d="M 76.53125 142.582031 L 76.59375 142.582031 L 76.910156 143.664062 L 76.785156 143.855469 L 76.53125 142.582031 M 77.546875 101.90625 L 77.484375 101.144531 L 77.613281 101.269531 L 77.546875 101.90625 M 74.492188 93.824219 L 74.429688 93.695312 L 74.621094 93.761719 L 74.492188 93.824219 M 60.304688 94.015625 L 59.859375 93.25 L 59.984375 93.25 L 60.304688 94.015625 M 107.328125 28.644531 L 107.457031 28.644531 L 107.390625 29.027344 L 107.328125 28.644531 M 106.566406 96.625 L 106.566406 96.75 L 106.375 96.75 L 106.566406 96.625 M 80.222656 166.070312 L 81.367188 166.578125 L 81.300781 166.707031 L 80.222656 166.195312 L 80.222656 166.070312 M 179.488281 119.476562 L 179.363281 119.539062 L 179.296875 119.476562 L 179.488281 119.476562 M 169.179688 106.871094 L 169.054688 106.425781 L 169.308594 106.808594 L 169.179688 106.871094 M 158.109375 90.386719 L 157.855469 90.324219 L 157.980469 89.941406 L 158.109375 90.386719 M 166.191406 103.816406 L 166.191406 103.878906 L 166.125 103.878906 L 166.191406 103.816406 M 146.589844 164.605469 L 146.65625 164.542969 L 146.65625 164.605469 L 146.589844 164.605469 M 160.019531 179.5625 L 160.082031 179.753906 L 159.636719 179.628906 L 160.019531 179.5625 M 112.164062 95.796875 L 112.230469 95.351562 L 112.484375 95.605469 L 112.164062 95.796875 M 112.230469 93.886719 L 112.292969 93.570312 L 112.546875 93.632812 L 112.230469 93.886719 M 160.910156 79.3125 L 161.035156 79.820312 L 160.910156 79.949219 L 160.910156 79.3125 M 114.328125 94.015625 L 114.265625 94.015625 L 114.328125 93.824219 L 114.328125 94.015625 M 196.734375 75.9375 L 196.796875 75.875 L 196.925781 76.128906 L 196.734375 75.9375 M 73.03125 154.738281 L 73.15625 154.738281 L 73.03125 154.738281 M 101.539062 208.398438 L 102.238281 208.78125 L 102.238281 209.035156 L 101.539062 208.398438 M 95.875 204.578125 L 95.875 204.898438 L 95.875 204.578125 M 147.863281 170.84375 L 147.863281 170.714844 L 147.925781 170.84375 L 147.863281 170.84375 "/>
<path style=" stroke:none;fill-rule:evenodd;fill:rgb(60.000002%,0%,0%);fill-opacity:1;" d="M 76.910156 143.664062 L 76.910156 143.789062 L 76.785156 143.855469 L 76.910156 143.664062 M 179.363281 119.539062 L 178.980469 119.792969 L 179.296875 119.476562 L 179.363281 119.539062 M 159.828125 94.84375 L 159.890625 94.585938 L 160.082031 94.777344 L 159.828125 94.84375 M 112.164062 96.5625 L 112.101562 96.496094 L 112.039062 96.113281 L 112.164062 96.5625 M 160.527344 76.253906 L 160.207031 76.191406 L 160.207031 76.128906 L 160.527344 76.253906 "/>
<path style=" stroke:none;fill-rule:evenodd;fill:rgb(60.000002%,60.000002%,60.000002%);fill-opacity:1;" d="M 107.964844 95.542969 L 107.964844 93.058594 C 109.703125 87.375 110.785156 83.382812 111.210938 81.09375 C 111.421875 80.03125 112.039062 78.632812 113.054688 76.890625 L 113.945312 76.957031 L 115.21875 76.765625 C 114.625 77.65625 113.882812 79.542969 112.992188 82.429688 L 110.574219 91.148438 L 110.574219 108.210938 L 110.511719 108.210938 C 110 108.589844 109.746094 109.226562 109.746094 110.117188 L 109.554688 116.738281 L 109.621094 118.457031 C 109.28125 118.710938 109.132812 119.476562 109.175781 120.75 C 109.132812 121.214844 109.324219 122.828125 109.746094 125.585938 C 109.703125 126.5625 109.894531 128.132812 110.320312 130.296875 C 110.320312 132.886719 109.9375 136.726562 109.175781 141.816406 C 109.132812 146.019531 109.472656 149.117188 110.191406 151.109375 C 111.125 154.039062 113.289062 157.199219 116.683594 160.59375 L 117.890625 161.867188 C 125.953125 170.144531 131.445312 175.339844 134.375 177.460938 C 135.773438 178.992188 137.574219 180.476562 139.78125 181.917969 C 143.8125 184.632812 147.734375 185.992188 151.554688 185.992188 C 153.886719 185.992188 156.03125 185.25 157.980469 183.765625 L 160.207031 181.535156 L 160.335938 181.601562 C 160.335938 182.363281 159.804688 183.488281 158.746094 184.972656 L 158.234375 185.738281 L 158.171875 185.738281 L 156.136719 186.691406 L 150.472656 187.328125 C 141.648438 184.613281 135.601562 182.003906 132.335938 179.5 L 121.773438 169.507812 C 119.78125 167.722656 117.488281 165.179688 114.902344 161.867188 L 112.800781 159.132812 L 107.964844 149.710938 L 107.964844 95.542969 M 117.828125 70.207031 L 117.699219 70.527344 L 116.9375 72.628906 C 116.257812 73.6875 115.75 74.324219 115.410156 74.535156 L 114.203125 75.046875 L 115.15625 73.644531 L 117.574219 70.144531 L 117.828125 70.207031 "/>
<path style=" stroke:none;fill-rule:evenodd;fill:rgb(29.411766%,19.607843%,31.37255%);fill-opacity:1;" d="M 86.839844 157.601562 L 87.347656 157.667969 L 88.046875 156.964844 C 86.140625 155.4375 84.101562 153.191406 81.9375 150.21875 C 78.882812 146.0625 77.355469 142.519531 77.355469 139.589844 L 79.648438 133.222656 L 79.648438 126.921875 C 79.648438 123.402344 79.265625 117.992188 78.503906 110.691406 L 78.058594 106.363281 L 77.675781 103.117188 L 78.3125 103.117188 C 79.839844 103.964844 83.761719 104.410156 90.085938 104.453125 C 93.605469 104.453125 96.277344 103.859375 98.101562 102.671875 C 99.078125 102.035156 99.820312 101.335938 100.328125 100.570312 L 105.417969 97.453125 L 105.800781 97.132812 L 106.375 96.75 L 106.566406 96.75 L 106.566406 149.136719 L 108.664062 156.140625 C 109.683594 157.878906 111.019531 159.789062 112.675781 161.867188 C 115.007812 164.796875 118.039062 168.042969 121.773438 171.605469 L 126.929688 176.953125 C 128.710938 178.820312 130.449219 180.285156 132.144531 181.34375 C 134.605469 182.875 138.042969 184.507812 142.453125 186.246094 L 142.453125 187.203125 C 143.601562 190.9375 145.722656 195.09375 148.816406 199.675781 C 150.769531 202.605469 151.746094 206.804688 151.746094 212.28125 C 151.746094 214.828125 151.128906 217.667969 149.898438 220.808594 C 148.074219 225.308594 145.742188 227.980469 142.898438 228.832031 L 142.710938 229.148438 L 125.65625 219.917969 C 121.964844 217.96875 117.574219 215.292969 112.484375 211.898438 C 110.828125 210.796875 108.21875 209.351562 104.65625 207.570312 L 103.382812 206.933594 C 99.269531 204.9375 97 203.941406 96.574219 203.941406 C 96.066406 203.941406 95.832031 204.15625 95.875 204.578125 L 95.875 204.898438 C 95.875 205.574219 102.324219 211.472656 115.21875 222.59375 C 118.1875 225.054688 122.367188 227.683594 127.753906 230.484375 C 133.058594 233.199219 137.871094 235.003906 142.199219 235.894531 C 142.328125 238.867188 145.128906 246.441406 150.601562 258.621094 C 154.546875 266.257812 156.519531 273.894531 156.519531 281.535156 C 156.519531 290.277344 156.898438 297.914062 157.664062 304.449219 C 158.214844 309.328125 159.742188 313.191406 162.246094 316.035156 C 163.601562 317.519531 164.683594 319.429688 165.488281 321.761719 C 165.277344 321.976562 165.171875 322.25 165.171875 322.589844 L 165.746094 331.183594 C 165.746094 338.480469 165.214844 343.914062 164.152344 347.476562 L 161.800781 356.324219 C 161.332031 358.40625 161.097656 360.972656 161.097656 364.027344 C 161.652344 372.089844 162.179688 376.226562 162.691406 376.441406 L 162.625 377.140625 C 162.625 378.03125 162.945312 380.726562 163.582031 385.222656 L 163.070312 385.414062 C 162.179688 381.808594 160.78125 378.160156 158.871094 374.46875 C 158.449219 373.617188 157.597656 372.726562 156.328125 371.792969 L 152.253906 368.929688 L 149.773438 366.445312 C 147.734375 365.089844 144.765625 364.410156 140.863281 364.410156 C 131.996094 364.410156 126.335938 369.480469 123.875 379.621094 C 122.601562 384.800781 122.21875 390.464844 122.726562 396.617188 L 122.855469 405.082031 C 123.109375 407.375 123.957031 410.621094 125.402344 414.824219 C 126.929688 419.234375 129.21875 422.886719 132.273438 425.769531 C 136.007812 429.378906 140.355469 431.203125 145.316406 431.246094 C 154.695312 431.246094 160.867188 427.488281 163.835938 419.976562 C 164.9375 417.050781 165.511719 412.847656 165.554688 407.375 L 165.679688 398.910156 L 167.273438 408.902344 L 167.78125 424.6875 C 167.992188 430.164062 168.609375 434.832031 169.625 438.691406 L 169.625 455.496094 L 169.816406 479.113281 C 169.816406 483.777344 170.03125 488.636719 170.453125 493.6875 L 170.960938 498.652344 C 170.835938 498.863281 170.773438 499.097656 170.773438 499.351562 C 170.773438 499.863281 170.984375 500.605469 171.40625 501.582031 L 172.042969 502.855469 L 149.519531 503.109375 C 143.195312 501.242188 138.699219 500.328125 136.027344 500.371094 L 123.875 501.390625 L 121.390625 502.089844 C 119.992188 491.777344 118.421875 477.710938 116.683594 459.886719 C 116.511719 448.132812 115.984375 439.519531 115.09375 434.046875 C 114.160156 424.03125 113.097656 416.222656 111.910156 410.621094 L 112.039062 410.558594 L 112.039062 408.265625 C 107.753906 384.503906 104.953125 367.445312 103.636719 357.089844 L 99.628906 331.4375 L 97.972656 318.453125 C 97.464844 314.292969 96.828125 310.773438 96.066406 307.886719 L 96.449219 307.441406 C 93.097656 292.757812 88.917969 279.667969 83.910156 268.167969 C 81.664062 263.03125 79.328125 256.457031 76.910156 248.433594 L 70.929688 229.085938 C 70.675781 221.191406 70.761719 215.273438 71.183594 211.324219 L 71.566406 202.222656 C 71.566406 201.289062 71.734375 200.230469 72.074219 199.039062 L 72.777344 199.296875 C 73.964844 200.273438 75.9375 200.757812 78.695312 200.757812 L 83.59375 199.742188 C 85.96875 199.105469 87.15625 198.59375 87.15625 198.214844 L 87.09375 197.769531 L 87.03125 197.769531 L 87.476562 197.132812 C 85.015625 195.984375 82.257812 194.902344 79.203125 193.886719 L 74.304688 191.976562 C 72.265625 190.660156 71.25 186.714844 71.25 180.136719 C 71.25 178.609375 71.84375 175.511719 73.03125 170.84375 L 74.046875 166.449219 C 75.277344 167.300781 77.207031 167.746094 79.839844 167.789062 C 80.855469 167.789062 81.367188 167.511719 81.367188 166.960938 L 81.300781 166.707031 L 81.367188 166.578125 L 81.683594 166.640625 L 82.382812 166.324219 L 82.574219 165.8125 L 77.546875 161.867188 L 76.53125 161.039062 C 73.984375 158.960938 72.710938 157.539062 72.710938 156.777344 L 72.902344 156.394531 L 77.738281 157.730469 L 84.867188 158.496094 C 86.097656 158.496094 86.753906 158.199219 86.839844 157.601562 M 73.921875 92.679688 L 73.15625 91.277344 C 71.84375 88.6875 70.953125 86.226562 70.484375 83.894531 L 70.675781 83.832031 L 70.738281 82.875 L 70.101562 80.328125 C 70.101562 76.890625 72.371094 72.183594 76.910156 66.199219 C 79.160156 63.1875 81.429688 60.492188 83.71875 58.113281 L 83.019531 57.289062 C 78.820312 60.425781 75.382812 64.097656 72.710938 68.300781 C 70.335938 72.035156 69 75.597656 68.703125 78.992188 C 67.429688 78.992188 65.710938 81.328125 63.546875 85.996094 C 62.359375 88.496094 61.535156 90.449219 61.066406 91.851562 L 60.75 91.722656 L 59.984375 91.914062 L 59.984375 93.25 L 59.859375 93.25 C 59.050781 91.808594 58.4375 90.386719 58.011719 88.984375 C 57.417969 87.035156 55.765625 84.445312 53.050781 81.21875 C 51.011719 78.800781 49.464844 77.296875 48.402344 76.699219 L 54.957031 72.183594 C 58.265625 70.019531 60.132812 68.933594 60.558594 68.933594 L 61.640625 69.636719 L 66.09375 70.335938 C 69.0625 70.335938 72.246094 67.40625 75.640625 61.550781 C 78.90625 55.90625 80.539062 50.878906 80.539062 46.464844 L 80.539062 46.210938 C 80.792969 43.921875 80.519531 42.519531 79.710938 42.011719 L 82.195312 38.765625 C 83.679688 36.980469 85.140625 35.601562 86.585938 34.625 C 88.070312 33.566406 91.949219 32.335938 98.230469 30.933594 L 98.355469 31.445312 L 101.664062 35.199219 C 102.851562 36.601562 103.765625 37.492188 104.402344 37.875 C 103.296875 40.972656 102.769531 43.707031 102.8125 46.085938 L 102.8125 46.210938 C 102.851562 48.925781 104.359375 52.808594 107.328125 57.859375 C 108.472656 59.8125 110.339844 62.292969 112.929688 65.308594 L 116.554688 69.191406 C 114.011719 71.992188 111.910156 75.617188 110.257812 80.074219 C 109.195312 82.917969 107.964844 87.097656 106.566406 92.613281 L 106.566406 94.90625 L 106.4375 94.90625 L 104.910156 95.988281 C 102.449219 96.199219 99.671875 95.097656 96.574219 92.679688 C 92.289062 89.324219 88.492188 87.648438 85.183594 87.648438 C 82.46875 87.648438 79.773438 88.476562 77.101562 90.132812 C 75.152344 91.277344 74.089844 92.125 73.921875 92.679688 M 168.226562 48.503906 L 168.289062 48.695312 L 170.773438 50.03125 L 173 53.023438 L 173 53.214844 C 173 53.722656 173.378906 54.699219 174.144531 56.140625 L 171.40625 65.308594 C 169.285156 71.164062 168.226562 74.238281 168.226562 74.535156 C 168.226562 75.132812 169.054688 75.429688 170.707031 75.429688 L 175.542969 74.601562 L 181.460938 74.15625 C 180.65625 75.046875 179.59375 77.125 178.28125 80.394531 C 177.007812 83.40625 176.371094 85.1875 176.371094 85.738281 C 176.371094 86.332031 177.582031 88.902344 180 93.441406 C 182.542969 98.195312 183.921875 101.039062 184.136719 101.972656 L 185.917969 110.117188 C 186.085938 113.554688 186.425781 116.101562 186.933594 117.757812 L 186.488281 117.949219 C 183.988281 118.03125 181.886719 118.4375 180.191406 119.15625 L 180 118.585938 L 175.796875 110.820312 L 168.734375 103.691406 L 168.734375 103.625 L 167.207031 101.398438 L 168.035156 100.953125 L 168.097656 99.363281 C 168.097656 95.628906 167.421875 93.675781 166.0625 93.503906 L 166.125 93.25 L 161.097656 76.128906 L 160.527344 76.253906 L 160.207031 76.128906 L 160.207031 76.191406 C 158.722656 84.679688 157.980469 89.261719 157.980469 89.941406 L 157.855469 90.324219 L 157.597656 90.257812 C 157.300781 90.257812 157.046875 90.429688 156.835938 90.769531 L 159.828125 94.84375 C 159.191406 95.777344 157.535156 96.242188 154.863281 96.242188 C 152.105469 96.199219 149.15625 95.351562 146.019531 93.695312 C 142.878906 92 139.273438 91.148438 135.199219 91.148438 C 131.765625 91.148438 129.304688 91.746094 127.820312 92.933594 C 126.292969 94.164062 124.808594 94.96875 123.363281 95.351562 C 120.863281 94.546875 117.847656 94.097656 114.328125 94.015625 L 114.328125 93.824219 C 114.328125 93.398438 114.054688 93.1875 113.5 93.1875 L 112.546875 93.632812 L 112.292969 93.570312 L 112.484375 90.132812 C 112.738281 88.519531 113.523438 86.078125 114.835938 82.8125 L 116.683594 78.101562 C 116.769531 77 116.621094 76.363281 116.238281 76.191406 C 117 75.640625 117.722656 74.832031 118.402344 73.773438 C 119.546875 72.035156 120.121094 70.675781 120.121094 69.699219 C 121.433594 69.488281 123.511719 68.257812 126.355469 66.007812 C 127.289062 65.285156 130.875 63.992188 137.109375 62.125 C 138.550781 61.148438 142.136719 59.8125 147.863281 58.113281 C 154.226562 56.203125 158.34375 54.847656 160.207031 54.039062 C 163.6875 52.386719 166.359375 50.539062 168.226562 48.503906 M 141.882812 180.007812 L 136.347656 176.570312 L 120.308594 161.867188 L 117.890625 159.386719 C 113.011719 154.125 110.574219 148.332031 110.574219 142.007812 C 110.574219 138.785156 110.765625 136.535156 111.148438 135.261719 C 111.527344 133.988281 111.742188 132.332031 111.78125 130.296875 L 111.65625 129.023438 L 112.230469 128.769531 L 112.355469 125.714844 L 112.039062 106.363281 L 112.039062 102.035156 L 112.164062 96.5625 C 114.074219 97.324219 116.386719 98.554688 119.101562 100.253906 L 126.164062 104.707031 L 129.15625 106.363281 C 134.117188 108.738281 139.019531 109.925781 143.855469 109.925781 L 145.890625 109.738281 L 150.410156 109.925781 L 153.78125 109.609375 C 152.296875 112.621094 150.261719 119.199219 147.671875 129.339844 C 146.78125 131.71875 145.722656 135.28125 144.492188 140.035156 C 143.683594 142.285156 141.414062 145.933594 137.683594 150.984375 C 137.683594 151.40625 137.957031 151.664062 138.507812 151.746094 L 143.980469 152.191406 L 143.980469 152.382812 L 140.164062 160.847656 C 140.164062 161.445312 140.589844 161.78125 141.4375 161.867188 L 146.464844 168.550781 L 146.527344 172.308594 C 143.515625 176.976562 142.007812 179.457031 142.007812 179.753906 L 141.882812 180.007812 M 62.59375 60.214844 C 63.65625 60.171875 66.117188 57.945312 69.976562 53.53125 L 73.347656 49.585938 L 73.855469 52.003906 C 72.628906 59.515625 69.847656 63.269531 65.519531 63.269531 L 62.53125 60.277344 L 62.59375 60.214844 M 48.339844 67.34375 C 49.910156 66.960938 52.414062 65.859375 55.847656 64.035156 L 49.167969 69.445312 C 46.070312 71.863281 43.820312 73.074219 42.421875 73.074219 L 39.75 71.289062 L 42.613281 69.570312 C 44.523438 68.46875 46.429688 67.726562 48.339844 67.34375 M 120.628906 207.886719 L 121.011719 207.125 C 117.53125 204.195312 112.292969 200.652344 105.292969 196.496094 L 95.621094 190.191406 C 90.953125 187.222656 88.003906 185.738281 86.773438 185.738281 C 86.476562 185.695312 86.246094 185.800781 86.074219 186.054688 L 85.757812 185.101562 C 85.164062 185.101562 84.867188 185.738281 84.867188 187.011719 C 84.867188 191.210938 87.707031 195.308594 93.394531 199.296875 C 97.933594 202.691406 101.769531 205.238281 104.910156 206.933594 C 108.050781 208.589844 110.488281 209.417969 112.230469 209.417969 C 117.871094 209.417969 120.691406 208.949219 120.691406 208.015625 L 120.628906 207.886719 M 152.828125 388.726562 C 155.5 395.089844 156.835938 400.078125 156.835938 403.683594 C 156.835938 415.394531 153.867188 421.273438 147.925781 421.316406 C 141.816406 421.273438 137.300781 416.074219 134.375 405.71875 C 133.441406 402.367188 132.71875 398.71875 132.210938 394.773438 L 131.699219 389.234375 C 131.699219 379.941406 133.886719 375.292969 138.253906 375.292969 C 144.152344 375.292969 149.007812 379.769531 152.828125 388.726562 "/>
<path style=" stroke:none;fill-rule:evenodd;fill:rgb(8.235294%,3.529412%,11.372549%);fill-opacity:1;" d="M 76.910156 143.789062 L 78.503906 148.566406 C 79.351562 150.347656 80.667969 152.234375 82.449219 154.230469 L 84.867188 156.585938 L 86.773438 156.964844 L 86.902344 157.414062 L 86.839844 157.601562 C 86.753906 158.199219 86.097656 158.496094 84.867188 158.496094 L 77.738281 157.730469 L 72.902344 156.394531 L 72.777344 156.332031 L 72.648438 156.265625 L 72.777344 155.375 L 72.839844 154.800781 L 73.03125 154.738281 C 73.371094 153.550781 73.941406 152.085938 74.75 150.347656 C 76.0625 147.460938 76.742188 145.296875 76.785156 143.855469 L 76.910156 143.789062 M 77.613281 102.480469 L 77.546875 102.097656 L 77.546875 101.90625 L 77.613281 101.269531 L 77.421875 100.632812 C 76.742188 96.941406 75.871094 94.863281 74.8125 94.394531 L 74.621094 93.761719 L 74.429688 93.695312 C 74.046875 93.527344 73.855469 93.230469 73.855469 92.804688 L 73.921875 92.679688 C 74.089844 92.125 75.152344 91.277344 77.101562 90.132812 C 79.773438 88.476562 82.46875 87.648438 85.183594 87.648438 C 88.492188 87.648438 92.289062 89.324219 96.574219 92.679688 C 99.671875 95.097656 102.449219 96.199219 104.910156 95.988281 L 106.4375 94.90625 L 106.566406 94.90625 L 107.902344 95.097656 L 107.964844 95.542969 L 106.566406 96.625 L 106.375 96.75 L 105.800781 97.132812 L 105.417969 97.453125 L 100.328125 100.570312 C 99.820312 101.335938 99.078125 102.035156 98.101562 102.671875 C 96.277344 103.859375 93.605469 104.453125 90.085938 104.453125 C 83.761719 104.410156 79.839844 103.964844 78.3125 103.117188 L 77.613281 102.480469 M 68.703125 78.992188 L 68.957031 79.054688 L 68.894531 79.691406 L 68.957031 80.773438 L 68.703125 81.21875 L 68.640625 84.402344 C 68.683594 85.125 69.167969 86.757812 70.101562 89.304688 L 72.710938 95.03125 C 72.160156 95.289062 71.3125 95.945312 70.167969 97.007812 L 67.683594 99.425781 L 65.585938 101.144531 L 62.847656 97.707031 L 60.75 94.84375 L 60.429688 94.460938 L 60.304688 94.015625 L 59.984375 93.25 L 59.984375 91.914062 L 60.75 91.722656 L 61.066406 91.851562 C 61.535156 90.449219 62.359375 88.496094 63.546875 85.996094 C 65.710938 81.328125 67.429688 78.992188 68.703125 78.992188 M 98.355469 30.871094 L 98.355469 30.296875 L 98.867188 30.171875 C 99.078125 30.171875 99.375 30.296875 99.757812 30.554688 L 107.328125 28.644531 L 107.390625 29.027344 L 104.847656 36.601562 L 105.546875 37.683594 L 104.972656 38.128906 L 104.402344 37.875 C 103.765625 37.492188 102.851562 36.601562 101.664062 35.199219 L 98.355469 31.445312 L 98.355469 30.871094 M 142.453125 186.246094 L 142.453125 185.800781 L 143.027344 185.675781 L 143.34375 186.566406 C 147.417969 188.09375 150.15625 188.878906 151.554688 188.921875 L 156.328125 188.09375 L 157.152344 187.773438 L 157.917969 188.285156 C 158.808594 187.691406 159.679688 186.628906 160.527344 185.101562 L 161.355469 183.445312 C 161.992188 186.375 164.683594 194.671875 169.433594 208.335938 L 172.933594 224.375 L 175.097656 233.414062 L 175.097656 234.175781 C 175.054688 236.128906 176.457031 243.003906 179.296875 254.800781 L 179.296875 255.117188 L 179.742188 255.054688 L 180.253906 256.710938 L 181.398438 258.683594 L 176.625 268.421875 C 174.589844 271.605469 173.636719 275.273438 173.761719 279.433594 C 173.972656 284.1875 173.488281 287.878906 172.300781 290.507812 L 169.054688 296.109375 C 167.949219 298.019531 167.398438 299.84375 167.398438 301.585938 L 175.988281 309.988281 L 179.488281 312.914062 L 178.726562 318.453125 C 176.945312 329.867188 175.542969 337.675781 174.527344 341.875 C 173.972656 344.296875 173.148438 348.667969 172.042969 354.988281 L 170.453125 365.300781 C 170.410156 366.191406 170.476562 366.914062 170.644531 367.464844 C 170.21875 368.269531 170.050781 369.417969 170.136719 370.902344 L 170.707031 376.566406 C 170.707031 383.527344 171.132812 390.570312 171.980469 397.699219 C 172.488281 402.027344 173.488281 409.496094 174.972656 420.105469 C 176.074219 428.933594 177.410156 436.273438 178.980469 442.128906 C 179.40625 443.613281 180.019531 448.007812 180.824219 455.304688 L 181.84375 461.671875 L 181.714844 462.117188 C 181.714844 473.023438 183.539062 483.777344 187.1875 494.386719 L 189.925781 501.390625 L 188.082031 501.199219 L 182.863281 501.515625 L 180.445312 502.21875 L 173 502.789062 L 172.425781 503.234375 L 172.042969 502.855469 L 171.40625 501.582031 C 170.984375 500.605469 170.773438 499.863281 170.773438 499.351562 C 170.773438 499.097656 170.835938 498.863281 170.960938 498.652344 L 170.453125 493.6875 C 170.03125 488.636719 169.816406 483.777344 169.816406 479.113281 L 169.625 455.496094 L 169.625 438.691406 C 168.609375 434.832031 167.992188 430.164062 167.78125 424.6875 L 167.273438 408.902344 L 165.679688 398.910156 L 164.597656 391.972656 L 163.582031 385.222656 C 162.945312 380.726562 162.625 378.03125 162.625 377.140625 L 162.691406 376.441406 C 162.179688 376.226562 161.652344 372.089844 161.097656 364.027344 C 161.097656 360.972656 161.332031 358.40625 161.800781 356.324219 L 164.152344 347.476562 C 165.214844 343.914062 165.746094 338.480469 165.746094 331.183594 L 165.171875 322.589844 C 165.171875 322.25 165.277344 321.976562 165.488281 321.761719 C 164.683594 319.429688 163.601562 317.519531 162.246094 316.035156 C 159.742188 313.191406 158.214844 309.328125 157.664062 304.449219 C 156.898438 297.914062 156.519531 290.277344 156.519531 281.535156 C 156.519531 273.894531 154.546875 266.257812 150.601562 258.621094 C 145.128906 246.441406 142.328125 238.867188 142.199219 235.894531 C 137.871094 235.003906 133.058594 233.199219 127.753906 230.484375 C 122.367188 227.683594 118.1875 225.054688 115.21875 222.59375 C 102.324219 211.472656 95.875 205.574219 95.875 204.898438 L 95.875 204.707031 L 96 204.386719 L 96.894531 204.195312 L 101.539062 208.398438 L 102.238281 209.035156 L 102.238281 208.78125 C 106.90625 211.453125 114.136719 215.378906 123.9375 220.554688 L 139.78125 229.277344 L 150.21875 234.8125 L 152.382812 234.878906 L 152.953125 235.195312 L 153.082031 235.515625 L 152.761719 236.023438 L 152.828125 236.023438 L 153.652344 235.132812 L 143.472656 229.59375 L 143.15625 229.402344 L 142.898438 228.832031 C 145.742188 227.980469 148.074219 225.308594 149.898438 220.808594 C 151.128906 217.667969 151.746094 214.828125 151.746094 212.28125 C 151.746094 206.804688 150.769531 202.605469 148.816406 199.675781 C 145.722656 195.09375 143.601562 190.9375 142.453125 187.203125 L 142.453125 186.246094 M 72.074219 199.039062 L 71.882812 198.914062 L 71.882812 198.023438 L 72.394531 197.957031 L 72.710938 197.066406 L 73.792969 193.695312 L 75.195312 194.140625 L 85.882812 197.578125 L 87.03125 197.769531 L 87.09375 197.769531 L 87.15625 198.214844 C 87.15625 198.59375 85.96875 199.105469 83.59375 199.742188 L 78.695312 200.757812 C 75.9375 200.757812 73.964844 200.273438 72.777344 199.296875 L 72.074219 199.039062 M 74.046875 166.449219 L 73.921875 166.386719 L 74.113281 165.367188 L 74.046875 164.605469 L 74.367188 164.605469 L 74.75 161.867188 L 74.75 161.105469 L 75.320312 161.484375 L 75.765625 161.867188 L 78.183594 164.414062 L 80.222656 166.070312 L 80.222656 166.195312 L 81.300781 166.707031 L 81.367188 166.960938 C 81.367188 167.511719 80.855469 167.789062 79.839844 167.789062 C 77.207031 167.746094 75.277344 167.300781 74.046875 166.449219 M 168.863281 47.738281 L 169.945312 46.210938 L 170.199219 45.703125 C 171.34375 43.367188 172.003906 39.71875 172.171875 34.753906 L 178.027344 38.0625 C 182.988281 40.738281 186.023438 42.773438 187.125 44.175781 L 188.652344 46.210938 L 194.824219 54.675781 L 196.480469 57.03125 C 198.984375 60.980469 200.339844 64.5 200.550781 67.597656 L 197.816406 67.40625 C 196.753906 67.40625 195.757812 67.640625 194.824219 68.109375 C 192.238281 69.296875 190.09375 72.246094 188.398438 76.957031 C 186.828125 81.242188 186.042969 84.679688 186.042969 87.265625 C 186.042969 90.195312 186.617188 93.058594 187.761719 95.859375 C 189.332031 99.636719 191.6875 102.035156 194.824219 103.054688 L 198.515625 103.5625 L 200.488281 103.5625 L 200.488281 104.199219 L 204.371094 115.082031 C 204.074219 114.742188 203.5625 114.445312 202.84375 114.191406 C 200.042969 113.257812 194.996094 114.339844 187.699219 117.4375 L 187.632812 118.074219 L 187.125 118.203125 L 186.933594 117.757812 C 186.425781 116.101562 186.085938 113.554688 185.917969 110.117188 L 184.136719 101.972656 C 183.921875 101.039062 182.542969 98.195312 180 93.441406 C 177.582031 88.902344 176.371094 86.332031 176.371094 85.738281 C 176.371094 85.1875 177.007812 83.40625 178.28125 80.394531 C 179.59375 77.125 180.65625 75.046875 181.460938 74.15625 L 175.542969 74.601562 L 170.707031 75.429688 C 169.054688 75.429688 168.226562 75.132812 168.226562 74.535156 C 168.226562 74.238281 169.285156 71.164062 171.40625 65.308594 L 174.144531 56.140625 C 173.378906 54.699219 173 53.722656 173 53.214844 L 173 53.023438 L 170.773438 50.03125 L 168.289062 48.695312 L 168.226562 48.503906 L 168.226562 48.3125 C 168.226562 48.058594 168.4375 47.886719 168.863281 47.804688 L 168.988281 47.804688 L 168.863281 47.738281 M 179.871094 119.285156 L 179.488281 119.476562 L 179.296875 119.476562 L 178.980469 119.792969 C 176.222656 121.40625 173.785156 122.617188 171.664062 123.421875 L 170.835938 123.421875 C 170.582031 119.519531 170.453125 116.441406 170.453125 114.191406 C 170.410156 112.324219 169.988281 109.886719 169.179688 106.871094 L 169.308594 106.808594 L 169.054688 106.425781 L 168.988281 106.363281 L 168.480469 105.664062 L 168.097656 104.007812 L 168.734375 103.691406 L 175.796875 110.820312 L 180 118.585938 L 179.871094 119.222656 L 179.871094 119.285156 M 167.207031 101.398438 C 163.390625 95.585938 160.613281 92.0625 158.871094 90.832031 L 158.746094 90.832031 L 158.109375 90.386719 L 157.980469 89.941406 C 157.980469 89.261719 158.722656 84.679688 160.207031 76.191406 L 160.527344 76.253906 C 160.824219 76.59375 160.949219 77.613281 160.910156 79.3125 L 160.910156 79.949219 L 161.035156 79.820312 L 162.179688 87.078125 C 162.945312 91.148438 163.855469 93.421875 164.917969 93.886719 C 165.128906 93.589844 165.425781 93.441406 165.808594 93.441406 L 166.0625 93.503906 C 167.421875 93.675781 168.097656 95.628906 168.097656 99.363281 L 168.035156 100.953125 L 167.207031 101.398438 M 160.082031 94.777344 L 160.589844 95.667969 L 160.589844 95.925781 L 166.125 102.863281 L 166.125 103.625 L 166.191406 103.816406 L 166.125 103.878906 L 166.191406 103.878906 L 166.570312 104.007812 L 166.890625 104.773438 L 166.699219 105.027344 L 166.953125 105.664062 L 166.761719 106.363281 L 166.699219 106.679688 L 166 107.761719 L 166.0625 108.398438 L 166.125 108.398438 C 165.277344 110.777344 164.367188 112.707031 163.390625 114.191406 L 157.152344 124.886719 C 155.667969 127.007812 154.164062 130.359375 152.636719 134.941406 C 150.980469 139.609375 150.175781 143.28125 150.21875 145.953125 C 150.21875 148.375 150.367188 150.261719 150.664062 151.621094 L 151.046875 155.949219 C 151.046875 157.6875 149.964844 159.660156 147.800781 161.867188 L 145.890625 163.648438 C 145.847656 164.160156 146.082031 164.476562 146.589844 164.605469 L 146.65625 164.605469 L 146.65625 164.542969 C 146.738281 163.777344 146.929688 163.417969 147.226562 163.460938 C 147.355469 163.417969 147.480469 163.480469 147.609375 163.648438 L 149.453125 161.867188 L 150.789062 160.59375 L 150.789062 161.484375 L 150.980469 161.867188 L 153.652344 166.769531 L 153.972656 166.578125 L 154.671875 168.167969 L 154.546875 168.296875 L 155.117188 169.25 L 155.945312 170.523438 L 156.261719 171.097656 C 158.257812 174.535156 159.507812 177.335938 160.019531 179.5 L 159.636719 179.628906 C 159.296875 179.628906 158.957031 179.882812 158.617188 180.390625 L 157.410156 182.046875 C 155.839844 183.617188 153.144531 184.421875 149.328125 184.464844 L 142.644531 180.390625 L 142.582031 180.453125 L 142.074219 180.074219 L 142.007812 179.753906 C 142.007812 179.457031 143.515625 176.976562 146.527344 172.308594 L 146.464844 168.550781 L 141.4375 161.867188 C 140.589844 161.78125 140.164062 161.445312 140.164062 160.847656 L 143.980469 152.382812 L 143.980469 152.191406 L 138.507812 151.746094 C 137.957031 151.664062 137.683594 151.40625 137.683594 150.984375 C 141.414062 145.933594 143.683594 142.285156 144.492188 140.035156 C 145.722656 135.28125 146.78125 131.71875 147.671875 129.339844 C 150.261719 119.199219 152.296875 112.621094 153.78125 109.609375 L 150.410156 109.925781 L 145.890625 109.738281 L 143.855469 109.925781 C 139.019531 109.925781 134.117188 108.738281 129.15625 106.363281 L 126.164062 104.707031 L 119.101562 100.253906 C 116.386719 98.554688 114.074219 97.324219 112.164062 96.5625 L 112.164062 95.796875 L 112.484375 95.605469 L 112.230469 95.351562 L 111.78125 94.96875 C 111.742188 94.585938 111.890625 94.226562 112.230469 93.886719 L 112.546875 93.632812 L 113.5 93.1875 C 114.054688 93.1875 114.328125 93.398438 114.328125 93.824219 L 114.265625 94.015625 L 114.328125 94.015625 C 117.847656 94.097656 120.863281 94.546875 123.363281 95.351562 C 124.808594 94.96875 126.292969 94.164062 127.820312 92.933594 C 129.304688 91.746094 131.765625 91.148438 135.199219 91.148438 C 139.273438 91.148438 142.878906 92 146.019531 93.695312 C 149.15625 95.351562 152.105469 96.199219 154.863281 96.242188 C 157.535156 96.242188 159.191406 95.777344 159.828125 94.84375 L 160.082031 94.777344 M 196.925781 76.128906 C 197.050781 76.511719 198.21875 76.296875 200.425781 75.492188 L 200.933594 79.121094 L 200.808594 79.183594 L 200.808594 81.21875 C 201.402344 84.65625 202.566406 90.492188 204.308594 98.726562 C 201.125 98.9375 198.242188 97.644531 195.652344 94.84375 L 194.824219 93.949219 C 193 91.828125 192.109375 90.003906 192.152344 88.476562 C 192.152344 87.839844 192.363281 86.589844 192.789062 84.722656 C 193.214844 82.8125 193.53125 81.644531 193.742188 81.21875 L 194.824219 78.929688 L 195.460938 77.527344 L 196.734375 75.9375 L 196.925781 76.128906 M 86.074219 186.054688 L 86.328125 186.691406 C 87.09375 187.625 89.320312 188.984375 93.011719 190.765625 C 98.144531 193.140625 101.621094 195.222656 103.445312 197.003906 C 105.101562 198.617188 107.921875 200.78125 111.910156 203.496094 C 114.710938 205.40625 116.875 206.699219 118.402344 207.378906 L 119.292969 207.378906 L 120.628906 207.570312 L 120.628906 207.886719 L 120.691406 208.015625 C 120.691406 208.949219 117.871094 209.417969 112.230469 209.417969 C 110.488281 209.417969 108.050781 208.589844 104.910156 206.933594 C 101.769531 205.238281 97.933594 202.691406 93.394531 199.296875 C 87.707031 195.308594 84.867188 191.210938 84.867188 187.011719 C 84.867188 185.738281 85.164062 185.101562 85.757812 185.101562 L 86.074219 186.054688 M 73.03125 154.738281 L 73.15625 154.738281 L 73.03125 154.738281 M 139.273438 150.472656 L 139.335938 150.472656 L 139.335938 150.285156 L 139.273438 150.472656 M 147.863281 170.84375 L 147.925781 170.84375 L 147.863281 170.714844 L 147.863281 170.84375 M 182.988281 295.984375 C 182.988281 296.492188 182.796875 296.554688 182.417969 296.175781 L 179.808594 294.265625 C 179.808594 293.121094 180.148438 292.015625 180.824219 290.953125 L 182.097656 293.246094 L 182.988281 295.984375 "/>
</g>
</svg>
