<?xml version="1.0" encoding="UTF-8"?>
<svg xmlns="http://www.w3.org/2000/svg" xmlns:xlink="http://www.w3.org/1999/xlink" width="529px" height="758px" viewBox="0 0 529 758" version="1.1">
<g id="surface1">
<path style=" stroke:none;fill-rule:evenodd;fill:rgb(93.333334%,17.254902%,14.509805%);fill-opacity:0.6;" d="M 257.4375 353.886719 L 257.367188 353.601562 C 257.367188 352.039062 258.214844 350.902344 259.914062 350.191406 C 261.613281 350.949219 262.460938 352.109375 262.460938 353.671875 L 262.460938 353.886719 C 264.355469 357.105469 265.859375 361.179688 266.976562 366.105469 C 269.015625 375.105469 270.398438 380.457031 271.125 382.160156 L 271.632812 382.445312 C 272.992188 380.597656 275.273438 376.738281 278.476562 370.863281 C 281.535156 365.230469 284.179688 360.988281 286.414062 358.148438 C 288.695312 361.179688 290.125 365.394531 290.710938 370.792969 C 290.902344 372.6875 291 376.761719 291 383.015625 L 290.710938 392.535156 L 293.914062 390.191406 C 304.203125 382.660156 310.195312 377.992188 311.894531 376.195312 C 313.59375 377.28125 314.441406 378.5625 314.441406 380.03125 C 314.441406 382.160156 313.546875 384.484375 311.75 386.992188 L 305.78125 394.453125 C 300.003906 401.792969 297.117188 409.847656 297.117188 418.609375 C 299.832031 428.367188 301.191406 433.671875 301.191406 434.523438 C 301.191406 440.964844 300.199219 445.25 298.207031 447.382812 C 297.140625 451.597656 295.246094 455.695312 292.53125 459.671875 C 285.589844 469.855469 274.667969 474.949219 259.769531 474.949219 C 251.757812 474.949219 244.699219 470.613281 238.582031 461.949219 C 236.640625 459.199219 234.917969 456.191406 233.414062 452.925781 L 231.738281 448.804688 C 231.738281 446.105469 232.417969 442.265625 233.777344 437.292969 C 235.136719 432.320312 235.816406 428.460938 235.816406 425.714844 C 235.816406 422.019531 234.433594 417.117188 231.664062 411.007812 C 229.675781 406.601562 227.734375 403.191406 225.839844 400.777344 L 223.585938 399.070312 L 223.585938 396.867188 L 225.113281 396.65625 C 225.695312 396.277344 226.375 396.085938 227.152344 396.085938 L 227.371094 396.085938 L 227.878906 396.15625 L 228.242188 396.15625 C 229.894531 396.441406 232.003906 397.269531 234.578125 398.644531 L 240.621094 402.054688 C 241.785156 390.214844 244.601562 381.425781 249.066406 375.695312 C 251.394531 372.664062 253.3125 368.023438 254.816406 361.769531 C 255.59375 358.550781 256.46875 355.921875 257.4375 353.886719 M 234.652344 405.960938 L 234.578125 406.742188 C 234.578125 407.550781 235.863281 409.113281 238.4375 411.433594 C 240.960938 413.707031 242.222656 415.910156 242.222656 418.039062 C 242.222656 421.214844 241.203125 426.210938 239.164062 433.03125 C 237.125 439.804688 236.105469 443.832031 236.105469 445.109375 C 236.105469 447.949219 237.949219 451.3125 241.640625 455.199219 L 247.171875 461.378906 L 246.953125 463.011719 C 247.195312 463.769531 248.410156 464.148438 250.59375 464.148438 C 251.417969 464.148438 251.855469 463.9375 251.90625 463.511719 L 251.90625 451.929688 C 250.207031 446.863281 249.355469 442.386719 249.355469 438.5 C 249.355469 436.605469 249.867188 434.308594 250.886719 431.609375 C 251.90625 428.863281 252.414062 426.425781 252.414062 424.292969 C 252.414062 419.367188 251.6875 416.242188 250.230469 414.914062 L 242.222656 409.160156 C 238.386719 406.601562 236.324219 405.324219 236.035156 405.324219 C 235.644531 405.324219 235.183594 405.535156 234.652344 405.960938 M 258.382812 371.503906 L 258.3125 372 L 257.875 371.503906 C 256.710938 372.640625 255.230469 375.839844 253.433594 381.097656 C 251.734375 385.972656 250.886719 389.003906 250.886719 390.191406 C 250.886719 393.882812 252.511719 398.21875 255.761719 403.191406 L 260.570312 409.941406 L 259.550781 419.105469 C 259.550781 420.667969 259.890625 422.777344 260.570312 425.429688 C 261.25 428.128906 261.585938 430.449219 261.585938 432.390625 C 261.585938 437.035156 261.003906 441.390625 259.839844 445.464844 C 258.628906 449.539062 258.019531 452.828125 258.019531 455.339844 L 258.019531 460.8125 L 258.601562 463.367188 L 258.019531 464.71875 L 259.402344 466.28125 L 259.984375 465.5 C 260.570312 466.019531 261.296875 466.28125 262.171875 466.28125 L 264.0625 465.996094 L 264.136719 464.789062 L 262.390625 462.300781 L 266.101562 457.828125 C 268.917969 455.457031 270.324219 452.167969 270.324219 447.949219 L 268.796875 430.117188 C 268.796875 424.8125 271.949219 419.082031 278.261719 412.925781 L 284.738281 406.601562 C 286.679688 404.46875 287.652344 402.695312 287.652344 401.273438 C 287.652344 399.378906 287.238281 397.792969 286.414062 396.511719 C 284.859375 394.097656 283.746094 392.132812 283.066406 390.617188 C 282.96875 383.511719 282.117188 379.960938 280.515625 379.960938 L 278.988281 380.3125 C 278.988281 382.160156 278.261719 384.292969 276.804688 386.707031 C 275.007812 389.644531 272.921875 391.113281 270.542969 391.113281 C 268.890625 391.113281 266.734375 388.484375 264.0625 383.226562 L 258.382812 371.503906 M 261.078125 459.886719 L 261.003906 460.027344 L 260.859375 459.746094 L 261.078125 459.886719 M 277.460938 431.679688 C 275.421875 432.488281 274.402344 433.246094 274.402344 433.953125 L 275.929688 446.105469 C 275.929688 448.707031 274.644531 451.480469 272.070312 454.417969 C 269.5 457.304688 268.214844 459.839844 268.214844 462.019531 L 268.359375 465.5 L 270.105469 465.785156 L 271.707031 465.5 L 271.851562 464.503906 L 271.417969 463.511719 C 286.996094 461.664062 294.785156 454.652344 294.785156 442.480469 C 292.992188 434.429688 288.914062 430.402344 282.554688 430.402344 C 281.097656 430.402344 279.402344 430.828125 277.460938 431.679688 M 295.296875 404.613281 C 295.296875 403.855469 294.882812 403.261719 294.058594 402.835938 C 292.066406 404.636719 289.980469 408.117188 287.796875 413.28125 C 286.679688 414.84375 284.8125 416.382812 282.191406 417.898438 C 280.394531 418.941406 279.496094 420.359375 279.496094 422.160156 C 279.496094 423.390625 279.644531 424.148438 279.933594 424.433594 C 281.195312 425.664062 284.472656 426.28125 289.761719 426.28125 C 292.042969 426.28125 293.234375 424.742188 293.332031 421.664062 L 292.746094 415.835938 C 294.445312 410.058594 295.296875 406.316406 295.296875 404.613281 M 290.054688 414.417969 L 290.054688 414.558594 L 289.980469 414.558594 L 290.054688 414.417969 "/>
<path style=" stroke:none;fill-rule:evenodd;fill:rgb(94.509804%,35.686275%,13.725491%);fill-opacity:0.6;" d="M 258.382812 371.503906 L 264.0625 383.226562 C 266.734375 388.484375 268.890625 391.113281 270.542969 391.113281 C 272.921875 391.113281 275.007812 389.644531 276.804688 386.707031 C 278.261719 384.292969 278.988281 382.160156 278.988281 380.3125 L 280.515625 379.960938 C 282.117188 379.960938 282.96875 383.511719 283.066406 390.617188 C 283.746094 392.132812 284.859375 394.097656 286.414062 396.511719 C 287.238281 397.792969 287.652344 399.378906 287.652344 401.273438 C 287.652344 402.695312 286.679688 404.46875 284.738281 406.601562 L 278.261719 412.925781 C 271.949219 419.082031 268.796875 424.8125 268.796875 430.117188 L 270.324219 447.949219 C 270.324219 452.167969 268.917969 455.457031 266.101562 457.828125 L 262.390625 462.300781 L 264.136719 464.789062 L 264.0625 465.996094 L 262.171875 466.28125 C 261.296875 466.28125 260.570312 466.019531 259.984375 465.5 L 259.402344 466.28125 L 258.019531 464.71875 L 258.601562 463.367188 L 258.019531 460.8125 L 258.019531 455.339844 C 258.019531 452.828125 258.628906 449.539062 259.839844 445.464844 C 261.003906 441.390625 261.585938 437.035156 261.585938 432.390625 C 261.585938 430.449219 261.25 428.128906 260.570312 425.429688 C 259.890625 422.777344 259.550781 420.667969 259.550781 419.105469 L 260.570312 409.941406 L 255.761719 403.191406 C 252.511719 398.21875 250.886719 393.882812 250.886719 390.191406 C 250.886719 389.003906 251.734375 385.972656 253.433594 381.097656 C 255.230469 375.839844 256.710938 372.640625 257.875 371.503906 L 258.3125 372 L 258.382812 371.503906 M 234.652344 405.960938 C 235.183594 405.535156 235.644531 405.324219 236.035156 405.324219 C 236.324219 405.324219 238.386719 406.601562 242.222656 409.160156 L 250.230469 414.914062 C 251.6875 416.242188 252.414062 419.367188 252.414062 424.292969 C 252.414062 426.425781 251.90625 428.863281 250.886719 431.609375 C 249.867188 434.308594 249.355469 436.605469 249.355469 438.5 C 249.355469 442.386719 250.207031 446.863281 251.90625 451.929688 L 251.90625 463.511719 C 251.855469 463.9375 251.417969 464.148438 250.59375 464.148438 C 248.410156 464.148438 247.195312 463.769531 246.953125 463.011719 L 247.171875 461.378906 L 241.640625 455.199219 C 237.949219 451.3125 236.105469 447.949219 236.105469 445.109375 C 236.105469 443.832031 237.125 439.804688 239.164062 433.03125 C 241.203125 426.210938 242.222656 421.214844 242.222656 418.039062 C 242.222656 415.910156 240.960938 413.707031 238.4375 411.433594 C 235.863281 409.113281 234.578125 407.550781 234.578125 406.742188 L 234.652344 405.960938 M 261.078125 459.886719 L 260.859375 459.746094 L 261.003906 460.027344 L 261.078125 459.886719 M 290.054688 414.417969 L 289.980469 414.558594 L 290.054688 414.558594 L 290.054688 414.417969 M 295.296875 404.613281 C 295.296875 406.316406 294.445312 410.058594 292.746094 415.835938 L 293.332031 421.664062 C 293.234375 424.742188 292.042969 426.28125 289.761719 426.28125 C 284.472656 426.28125 281.195312 425.664062 279.933594 424.433594 C 279.644531 424.148438 279.496094 423.390625 279.496094 422.160156 C 279.496094 420.359375 280.394531 418.941406 282.191406 417.898438 C 284.8125 416.382812 286.679688 414.84375 287.796875 413.28125 C 289.980469 408.117188 292.066406 404.636719 294.058594 402.835938 C 294.882812 403.261719 295.296875 403.855469 295.296875 404.613281 M 277.460938 431.679688 C 279.402344 430.828125 281.097656 430.402344 282.554688 430.402344 C 288.914062 430.402344 292.992188 434.429688 294.785156 442.480469 C 294.785156 454.652344 286.996094 461.664062 271.417969 463.511719 L 271.851562 464.503906 L 271.707031 465.5 L 270.105469 465.785156 L 268.359375 465.5 L 268.214844 462.019531 C 268.214844 459.839844 269.5 457.304688 272.070312 454.417969 C 274.644531 451.480469 275.929688 448.707031 275.929688 446.105469 L 274.402344 433.953125 C 274.402344 433.246094 275.421875 432.488281 277.460938 431.679688 "/>
</g>
</svg>
