<?xml version="1.0" encoding="UTF-8"?>
<svg xmlns="http://www.w3.org/2000/svg" xmlns:xlink="http://www.w3.org/1999/xlink" width="160px" height="194px" viewBox="0 0 160 194" version="1.1">
<g id="surface1">
<path style=" stroke:none;fill-rule:evenodd;fill:rgb(0%,0%,0%);fill-opacity:1;" d="M 15.445312 147.148438 L 14.117188 149.480469 C 13.5625 150.925781 12.871094 151.816406 12.039062 152.148438 L 11.375 151.398438 L 11.457031 150.566406 L 11.375 150.148438 L 10.875 149.898438 L 10.875 149.480469 L 11.207031 149.148438 L 10.292969 144.3125 L 10.375 144.230469 L 10.042969 135.808594 C 10.042969 131.527344 10.433594 125.136719 11.207031 116.632812 C 11.925781 108.183594 12.289062 101.878906 12.289062 97.707031 L 17.023438 60.859375 C 9.101562 54.914062 5.140625 51.1875 5.140625 49.6875 C 5.140625 49.132812 5.476562 48.328125 6.140625 47.269531 L 7.386719 45.851562 L 7.386719 45.769531 L 7.550781 45.769531 L 7.882812 45.6875 L 8.132812 45.6875 L 8.382812 45.769531 L 12.453125 40.515625 C 15.609375 36.683594 18.160156 34.152344 20.097656 32.929688 L 36.964844 22.007812 C 45.4375 15.894531 51.28125 11.976562 54.492188 10.253906 C 57.042969 8.976562 60.390625 7.085938 64.546875 4.585938 C 68.421875 2.640625 72.855469 1.140625 77.839844 0.0820312 L 78.089844 0 L 78.421875 0 L 85.398438 2.25 L 93.542969 4.25 L 105.007812 8.421875 L 107.5 7.753906 C 109.160156 7.753906 110.160156 8.113281 110.492188 8.835938 L 110.492188 10.839844 L 119.796875 15.171875 L 119.960938 15.171875 L 121.789062 16.421875 L 122.457031 16.007812 C 125.003906 16.007812 126.277344 16.730469 126.277344 18.175781 L 126.109375 18.425781 L 126.195312 18.507812 L 143.558594 30.097656 C 150.261719 34.710938 155.105469 38.628906 158.097656 41.851562 C 159.316406 42.074219 159.925781 42.796875 159.925781 44.019531 C 159.925781 45.964844 154.332031 48.742188 143.144531 52.355469 L 133.589844 55.355469 C 134.085938 56.414062 134.585938 58.886719 135.082031 62.777344 C 135.691406 67.667969 135.996094 72.003906 135.996094 75.78125 L 136.664062 96.792969 L 135.914062 122.21875 L 136.082031 122.636719 L 138.738281 132.058594 L 141.148438 138.644531 L 141.230469 143.3125 C 141.230469 146.425781 140.761719 148.953125 139.820312 150.898438 C 140.59375 153.621094 142.035156 155.84375 144.140625 157.566406 L 146.882812 160.902344 C 148.101562 162.679688 148.710938 163.902344 148.710938 164.570312 L 146.632812 167.988281 L 154.441406 173.742188 C 155.882812 175.1875 156.601562 176.9375 156.601562 178.992188 C 156.601562 180.273438 156.269531 182.605469 155.605469 185.996094 C 154.941406 189.21875 154.277344 191.554688 153.609375 193 L 153.695312 193.082031 L 153.03125 193.917969 L 152.945312 194 L 152.699219 194 C 151.3125 194 149.816406 192.332031 148.210938 188.996094 L 144.472656 181.996094 L 139.238281 176.492188 C 138.519531 175.9375 136.21875 174.851562 132.34375 173.242188 L 129.183594 172.824219 L 122.621094 171.65625 C 114.480469 170.046875 108.21875 169.238281 103.84375 169.238281 C 99.800781 169.238281 96.285156 169.960938 93.292969 171.40625 C 90.359375 172.851562 88.308594 173.574219 87.144531 173.574219 L 86.230469 173.492188 L 85.898438 173.574219 C 84.847656 172.519531 84.347656 170.769531 84.402344 168.324219 L 84.902344 162.320312 C 84.902344 158.09375 85.898438 151.703125 87.894531 143.144531 L 90.632812 132.308594 L 90.550781 132.308594 L 90.550781 131.890625 C 89.554688 131.167969 88.917969 129.140625 88.640625 125.804688 L 89.054688 123.96875 L 88.640625 119.550781 C 88.640625 116.160156 88.917969 114.105469 89.472656 113.382812 L 94.789062 108.128906 C 94.953125 103.90625 95.039062 99.097656 95.039062 93.707031 C 95.039062 83.8125 94.429688 74.949219 93.210938 67.113281 L 79.085938 70.53125 L 66.207031 74.03125 C 60.226562 75.53125 53.109375 76.753906 44.855469 77.699219 L 44.773438 77.785156 L 41.449219 77.785156 C 39.734375 76.78125 37.074219 75.058594 33.472656 72.613281 C 32.644531 71.449219 31.703125 70.808594 30.648438 70.695312 L 29.734375 70.03125 L 29.902344 70.613281 C 34.941406 85.785156 38.375 97.429688 40.203125 105.546875 C 47.347656 111.101562 52.582031 115.632812 55.90625 119.132812 L 55.738281 119.550781 L 55.242188 119.632812 L 56.40625 122.300781 C 56.40625 124.246094 55.519531 127.777344 53.746094 132.890625 L 53.082031 132.472656 C 51.695312 133.085938 48.457031 133.917969 43.359375 134.976562 C 34.832031 136.808594 28.488281 138.78125 24.335938 140.894531 L 16.277344 146.3125 L 15.695312 146.8125 L 15.445312 147.148438 M 108.332031 11.253906 L 108.25 11.253906 L 100.355469 17.089844 C 97.199219 19.425781 94.734375 21.148438 92.960938 22.257812 L 93.292969 22.84375 L 93.375 23.761719 C 93.375 25.59375 91.964844 26.511719 89.140625 26.511719 C 87.976562 26.511719 86.785156 25.289062 85.566406 22.84375 C 85.566406 22.066406 86.480469 21.285156 88.308594 20.507812 L 88.640625 20.675781 L 89.304688 20.507812 C 89.804688 18.839844 92.15625 16.703125 96.367188 14.089844 L 102.847656 10.421875 L 102.597656 10.085938 L 103.59375 9.171875 L 102.101562 8.503906 L 78.421875 1.25 L 69.117188 7.671875 L 68.367188 6.835938 C 68.367188 6.167969 70.445312 4.585938 74.601562 2.085938 C 73.214844 2.527344 71.582031 3.335938 69.699219 4.5 L 67.207031 6.167969 L 65.128906 7.085938 C 54.328125 12.421875 45.132812 17.980469 37.542969 23.761719 L 20.597656 34.515625 C 18.4375 36.125 14.585938 40.296875 9.046875 47.019531 L 9.046875 47.105469 C 10.597656 49.214844 12.535156 51.105469 14.863281 52.773438 L 18.933594 55.941406 L 33.722656 40.101562 C 39.59375 34.542969 45.769531 30.320312 52.25 27.429688 L 52.75 26.59375 L 52.75 26.511719 L 53.082031 26.09375 L 56.40625 21.007812 C 58.289062 17.007812 60.695312 13.089844 63.632812 9.253906 L 64.378906 10.171875 C 64.378906 10.503906 61.167969 15.757812 54.742188 25.929688 C 56.128906 26.039062 57.871094 26.566406 59.976562 27.511719 L 63.632812 29.261719 C 66.957031 30.484375 69.558594 31.707031 71.441406 32.929688 L 82.90625 42.019531 L 95.121094 50.773438 C 99.164062 53.660156 101.878906 56.386719 103.261719 58.941406 L 106.753906 58.023438 L 121.789062 54.691406 L 123.203125 53.523438 L 130.679688 51.523438 C 134.777344 49.800781 137.882812 48.714844 139.984375 48.269531 L 151.699219 44.769531 C 153.140625 44.378906 154.054688 43.546875 154.441406 42.269531 L 155.105469 40.765625 L 154.359375 40.265625 L 141.648438 30.929688 C 135.609375 26.484375 130.015625 22.675781 124.863281 19.507812 L 116.308594 26.34375 L 108.496094 32.265625 L 109.078125 33.015625 L 109.078125 33.929688 C 109.078125 35.933594 107.722656 36.933594 105.007812 36.933594 C 102.902344 36.933594 101.851562 35.710938 101.851562 33.265625 C 101.851562 31.820312 102.292969 31.070312 103.179688 31.011719 C 104.121094 29.179688 106.917969 26.679688 111.570312 23.511719 L 120.296875 17.425781 L 119.464844 16.507812 L 109.078125 11.503906 L 108.332031 11.253906 M 108.25 9.503906 L 108.25 9.253906 L 106.335938 9.921875 L 105.671875 10.335938 L 103.347656 11.589844 L 104.507812 12.171875 L 106.421875 11.003906 L 107.5 10.253906 L 108.25 9.503906 M 124.035156 18.257812 L 124.699219 18.007812 L 124.035156 18.089844 L 122.539062 18.175781 L 122.121094 18.507812 L 119.132812 20.59375 L 119.628906 21.34375 L 123.285156 18.675781 L 124.035156 18.257812 M 89.886719 22.09375 L 102.765625 13.339844 L 101.519531 12.753906 C 97.199219 15.367188 93.542969 18.230469 90.550781 21.34375 L 89.886719 22.007812 L 89.804688 22.007812 L 89.636719 22.257812 L 89.886719 22.09375 M 90.054688 23.675781 C 88.613281 23.675781 87.753906 23.425781 87.476562 22.925781 L 87.394531 23.011719 L 89.140625 25.011719 L 91.878906 23.761719 L 91.632812 23.011719 C 90.855469 23.453125 90.328125 23.675781 90.054688 23.675781 M 103.347656 33.179688 L 103.261719 33.097656 L 103.261719 33.179688 C 103.261719 34.679688 103.871094 35.433594 105.089844 35.433594 C 106.808594 34.488281 107.695312 34.015625 107.75 34.015625 L 107.335938 33.097656 C 106.117188 33.875 105.367188 34.265625 105.089844 34.265625 C 104.371094 34.265625 103.789062 33.902344 103.347656 33.179688 M 81.828125 43.183594 L 76.179688 38.101562 C 73.742188 35.765625 71.496094 34.125 69.449219 33.179688 L 54.578125 27.59375 L 52.914062 28.847656 L 50.007812 33.429688 C 50.839844 33.542969 51.363281 33.765625 51.585938 34.097656 C 51.808594 35.210938 52.25 36.40625 52.914062 37.683594 L 53.164062 38.015625 L 53.082031 38.101562 L 53.164062 38.265625 L 52.914062 38.433594 L 46.601562 46.101562 L 49.09375 49.9375 C 51.03125 53.273438 52.417969 55.300781 53.246094 56.023438 C 55.960938 58.523438 59.785156 61.527344 64.710938 65.027344 C 64.214844 65.804688 63.496094 66.195312 62.550781 66.195312 C 61.945312 66.195312 59.0625 65.054688 53.910156 62.777344 C 51.417969 61.777344 50.035156 61.082031 49.757812 60.691406 L 48.179688 58.691406 L 45.9375 56.273438 L 43.859375 71.863281 L 51.253906 72.53125 L 63.714844 69.945312 L 82.90625 65.277344 L 101.683594 59.441406 L 81.828125 43.183594 M 62.71875 37.347656 L 64.960938 40.765625 C 64.960938 41.65625 62.855469 43.101562 58.648438 45.101562 C 54.605469 46.992188 52.085938 47.9375 51.085938 47.9375 C 50.199219 47.9375 49.757812 47.605469 49.757812 46.9375 C 51.585938 45.714844 53.664062 43.183594 55.988281 39.351562 L 58.980469 34.015625 C 59.8125 34.015625 61.058594 35.125 62.71875 37.347656 M 40.121094 36.933594 L 41.035156 37.015625 C 41.367188 39.351562 41.863281 41.238281 42.53125 42.683594 L 44.191406 40.015625 L 45.105469 36.265625 C 45.824219 34.265625 46.765625 33.265625 47.929688 33.265625 L 49.011719 33.347656 L 48.925781 33.015625 L 50.339844 30.511719 C 47.183594 32.402344 44.828125 33.652344 43.277344 34.265625 C 41.0625 35.152344 39.234375 36.347656 37.792969 37.847656 L 36.628906 39.265625 L 37.710938 38.351562 C 38.875 37.460938 39.675781 36.988281 40.121094 36.933594 M 61.472656 64.277344 L 55.492188 60.027344 C 52.5 58.023438 50.839844 56.523438 50.503906 55.523438 C 50.285156 54.800781 48.539062 51.773438 45.269531 46.4375 L 45.355469 46.019531 L 45.269531 45.601562 C 45.269531 44.714844 46.351562 43.15625 48.511719 40.933594 L 51.417969 38.101562 C 50.976562 37.488281 50.644531 36.460938 50.421875 35.015625 L 49.175781 34.765625 L 47.265625 34.765625 C 47.429688 36.988281 45.714844 40.683594 42.113281 45.851562 L 42.53125 46.1875 L 42.445312 46.769531 C 42.28125 46.9375 42.058594 47.019531 41.78125 47.019531 L 41.367188 47.019531 L 39.789062 49.019531 L 31.0625 60.027344 L 30.898438 60.191406 L 31.148438 60.109375 C 33.417969 59.109375 35.46875 57.71875 37.296875 55.941406 C 39.675781 52.4375 41.421875 50.328125 42.53125 49.605469 L 42.28125 49.019531 L 43.195312 48.769531 L 44.023438 48.9375 L 45.4375 52.773438 L 45.769531 51.773438 L 46.433594 52.773438 L 46.269531 54.191406 L 49.175781 57.273438 C 49.675781 58.941406 51.363281 60.332031 54.246094 61.441406 C 58.175781 62.886719 60.585938 63.886719 61.472656 64.445312 L 61.472656 64.277344 M 40.703125 44.851562 L 40.867188 44.9375 L 41.199219 44.4375 C 40.757812 44.101562 40.425781 43.519531 40.203125 42.683594 L 39.703125 39.015625 L 37.542969 40.433594 C 38.265625 42.101562 39.316406 43.574219 40.703125 44.851562 M 42.53125 71.363281 L 42.445312 70.363281 L 43.859375 60.359375 L 44.9375 54.855469 L 43.527344 52.105469 C 42.640625 53.550781 40.980469 55.273438 38.542969 57.273438 C 34.664062 60.441406 31.5625 62.027344 29.238281 62.027344 L 29.070312 62.027344 L 28.488281 62.277344 L 27.824219 62.195312 L 27.574219 61.527344 L 39.039062 47.269531 L 39.871094 46.1875 C 38.652344 45.1875 37.296875 43.269531 35.800781 40.433594 L 35.964844 39.933594 L 35.632812 40.351562 L 34.054688 41.769531 L 26.410156 49.769531 L 20.347656 57.023438 L 23.835938 59.777344 C 26.21875 61.664062 31.230469 65.222656 38.875 70.445312 L 39.703125 70.195312 L 42.28125 71.363281 L 42.53125 71.449219 L 42.53125 71.363281 M 57.652344 41.019531 L 53.910156 45.6875 C 55.40625 45.019531 58.425781 43.296875 62.96875 40.515625 C 61.804688 38.628906 60.613281 37.265625 59.394531 36.433594 C 59.5625 37.597656 58.980469 39.128906 57.652344 41.019531 M 41.949219 73.78125 C 40.453125 73.78125 34.332031 69.667969 23.585938 61.441406 L 18.851562 57.691406 L 18.601562 57.691406 L 18.601562 57.523438 C 12.398438 52.578125 8.769531 49.328125 7.71875 47.769531 L 6.804688 49.6875 C 6.804688 50.300781 9.214844 52.6875 14.03125 56.859375 C 18.628906 60.804688 21.8125 63.332031 23.585938 64.445312 C 29.015625 67.558594 32.253906 69.753906 33.308594 71.03125 C 33.75 71.476562 37.460938 73.394531 44.441406 76.78125 L 61.304688 73.28125 C 77.480469 69.945312 93.902344 65.695312 110.574219 60.527344 L 133.753906 53.691406 C 134.808594 53.632812 135.886719 53.328125 136.996094 52.773438 L 144.96875 50.273438 C 150.453125 48.882812 153.972656 47.269531 155.523438 45.4375 C 156.074219 44.714844 156.351562 43.964844 156.351562 43.183594 L 156.351562 42.519531 C 155.078125 45.1875 150.539062 47.4375 142.726562 49.269531 C 139.515625 50.050781 135.859375 51.214844 131.761719 52.773438 L 125.03125 54.855469 L 124.035156 55.441406 L 124.699219 55.441406 L 124.035156 55.691406 L 108.082031 59.441406 C 103.761719 60.441406 95.535156 62.886719 83.40625 66.777344 C 79.308594 68.113281 72.992188 69.722656 64.464844 71.613281 L 51.667969 74.199219 L 43.359375 73.449219 L 43.195312 73.53125 L 43.109375 73.449219 L 43.027344 73.449219 C 43.027344 73.671875 42.667969 73.78125 41.949219 73.78125 M 105.339844 118.71875 L 105.339844 118.800781 L 105.839844 118.800781 L 106.003906 116.132812 L 106.003906 114.800781 C 106.335938 112.910156 106.78125 111.351562 107.335938 110.128906 L 107.25 110.046875 L 107.085938 109.714844 L 108.746094 103.628906 C 109.855469 99.847656 110.4375 96.957031 110.492188 94.957031 L 110.824219 87.539062 C 110.988281 83.257812 111.238281 80.839844 111.570312 80.285156 C 112.015625 81.394531 112.234375 83.453125 112.234375 86.453125 C 112.179688 90.566406 111.988281 94.625 111.65625 98.625 C 110.988281 105.960938 109.964844 109.910156 108.582031 110.464844 L 108.582031 110.546875 C 108.582031 114.382812 106.394531 122.859375 102.015625 135.976562 L 101.101562 138.644531 L 100.273438 140.808594 L 100.355469 140.894531 L 98.113281 147.3125 C 96.230469 152.539062 94.789062 156.039062 93.792969 157.816406 L 92.878906 157.734375 L 92.792969 156.902344 L 93.625 157.066406 L 92.878906 156.152344 C 93.210938 153.039062 95.867188 145.257812 100.855469 132.808594 C 102.40625 129.140625 103.734375 125.191406 104.839844 120.96875 L 105.339844 118.71875 M 123.617188 101.878906 L 124.199219 101.960938 L 124.199219 101.792969 L 123.617188 101.460938 C 123.894531 99.238281 124.035156 96.570312 124.035156 93.457031 L 123.453125 59.691406 L 123.785156 58.359375 L 112.070312 61.777344 L 94.457031 66.777344 C 95.121094 68.390625 95.757812 72.808594 96.367188 80.035156 L 96.367188 93.957031 L 95.785156 110.378906 L 95.371094 112.546875 L 95.621094 112.964844 L 95.953125 112.964844 C 96.339844 115.464844 96.089844 118.578125 95.203125 122.300781 L 92.628906 131.472656 C 90.136719 141.367188 88.417969 149.953125 87.476562 157.234375 L 87.144531 157.902344 L 87.144531 158.316406 L 87.394531 158.316406 L 86.648438 167.40625 L 85.898438 168.238281 L 86.066406 168.738281 L 86.648438 168.488281 L 86.648438 171.90625 C 91.464844 169.128906 97.171875 167.738281 103.761719 167.738281 L 129.183594 171.074219 L 131.011719 171.324219 L 133.921875 171.742188 L 146.21875 173.324219 C 146.21875 173.769531 145.386719 173.992188 143.722656 173.992188 L 138.574219 173.824219 L 141.480469 176.074219 C 143.308594 177.742188 144.886719 179.492188 146.21875 181.328125 L 149.207031 187.332031 C 150.148438 189.21875 151.257812 190.777344 152.53125 192 L 153.777344 186.832031 C 154.71875 183.273438 155.191406 180.6875 155.191406 179.078125 C 155.191406 176.574219 153.5 174.296875 150.121094 172.242188 C 146.6875 170.183594 144.96875 168.792969 144.96875 168.070312 L 147.128906 164.238281 C 147.128906 162.738281 145.773438 160.875 143.058594 158.652344 C 140.84375 156.871094 139.515625 154.871094 139.070312 152.648438 C 138.519531 154.148438 138.242188 155.648438 138.242188 157.152344 C 138.242188 158.429688 138.65625 159.570312 139.488281 160.570312 L 138.988281 161.234375 L 139.15625 161.402344 L 140.984375 160.902344 L 141.730469 160.320312 L 142.230469 160.570312 L 142.144531 160.570312 L 142.144531 161.984375 C 141.648438 162.488281 140.621094 162.792969 139.070312 162.902344 L 138.988281 162.988281 L 137.242188 162.988281 L 129.183594 162.820312 L 126.027344 162.402344 L 110.574219 161.820312 C 105.699219 161.820312 102.265625 162.292969 100.273438 163.238281 C 98.277344 164.125 96.3125 164.570312 94.375 164.570312 L 94.039062 164.570312 L 92.628906 163.570312 L 92.378906 164.238281 L 92.546875 164.488281 L 91.964844 164.320312 L 92.128906 163.988281 C 92.128906 163.542969 92.046875 163.402344 91.878906 163.570312 L 91.382812 163.902344 L 91.382812 163.820312 C 91.382812 163.488281 94.207031 162.820312 99.855469 161.820312 L 110.410156 160.320312 L 125.695312 160.902344 L 129.183594 161.320312 L 136.910156 161.484375 L 137.410156 161.484375 L 137.242188 161.152344 L 137.242188 160.820312 C 136.746094 160.152344 136.632812 158.984375 136.910156 157.316406 C 136.910156 155.207031 137.382812 153.011719 138.324219 150.730469 C 139.265625 148.398438 139.738281 145.921875 139.738281 143.3125 C 139.738281 141.089844 138.90625 137.476562 137.242188 132.472656 L 135.832031 127.972656 L 135.75 143.8125 L 135.75 148.0625 L 135.25 148.230469 L 134.503906 148.0625 L 134.003906 131.390625 L 134.253906 122.636719 L 134.335938 119.550781 L 134.75 118.21875 L 134.503906 117.71875 L 134.417969 118.050781 L 135.25 96.792969 L 135.167969 91.707031 L 136.414062 91.289062 L 135.167969 91.207031 L 134.667969 77.285156 C 134.777344 70.058594 134.03125 63.554688 132.425781 57.773438 L 132.425781 55.691406 L 124.28125 58.191406 C 125.167969 59.46875 125.640625 64.777344 125.695312 74.113281 L 125.445312 93.457031 L 125.445312 95.957031 L 125.28125 96.042969 L 125.445312 96.125 C 125.28125 100.125 124.808594 103.601562 124.035156 106.546875 C 123.480469 112.605469 122.816406 116.9375 122.039062 119.550781 L 118.21875 132.308594 L 115.558594 139.476562 C 114.285156 143.035156 113.316406 144.8125 112.652344 144.8125 L 111.738281 144.5625 L 111.570312 144.0625 L 117.054688 131.554688 L 120.542969 118.800781 C 120.933594 117.46875 121.238281 115.328125 121.457031 112.382812 L 122.539062 106.210938 C 122.980469 105.046875 123.339844 103.601562 123.617188 101.878906 M 158.097656 44.1875 L 157.683594 43.851562 L 156.4375 44.769531 L 155.523438 45.4375 L 158.097656 44.1875 M 118.300781 22.425781 L 117.386719 21.84375 C 110.296875 26.902344 106.089844 30.347656 104.757812 32.179688 L 105.339844 32.765625 C 106.226562 32.765625 109.078125 30.597656 113.898438 26.261719 L 118.300781 22.425781 M 15.695312 135.808594 L 15.777344 136.308594 L 16.109375 136.058594 L 16.109375 135.390625 L 15.695312 132.640625 C 15.859375 128.195312 17.578125 120.414062 20.84375 109.296875 C 24.277344 97.402344 25.996094 88.316406 25.996094 82.035156 C 25.996094 80.089844 25.609375 75.53125 24.832031 68.363281 L 25 66.945312 L 25.25 66.863281 L 25.164062 66.777344 L 22.421875 64.859375 L 17.769531 61.441406 L 18.101562 66.195312 L 17.023438 73.699219 L 16.609375 73.699219 L 16.277344 73.949219 L 16.359375 74.28125 L 16.941406 74.367188 C 15.113281 86.371094 14.003906 95.320312 13.617188 101.210938 L 11.375 135.976562 C 11.375 140.699219 11.621094 143.699219 12.121094 144.980469 L 12.121094 145.0625 L 11.707031 145.230469 L 12.535156 148.230469 L 15.445312 144.894531 L 16.609375 143.894531 L 16.441406 143.980469 C 16 141.699219 15.75 138.976562 15.695312 135.808594 M 35.800781 116.96875 L 35.800781 117.050781 L 36.050781 117.800781 C 36.328125 118.914062 36.464844 120.355469 36.464844 122.136719 L 36.464844 127.472656 L 38.292969 135.140625 L 53 131.304688 L 54.160156 125.972656 L 55.160156 122.386719 L 54.160156 119.382812 L 54.160156 119.21875 L 46.433594 113.132812 C 41.503906 108.90625 39.039062 106.488281 39.039062 105.878906 L 39.371094 105.210938 L 29.070312 70.78125 L 28.738281 69.78125 L 28.820312 69.445312 L 25.746094 67.195312 C 26.800781 70.308594 27.324219 75.339844 27.324219 82.285156 C 27.324219 86.230469 26.742188 91.011719 25.582031 96.625 L 24.832031 97.625 L 25.082031 98.292969 L 25.25 98.375 L 23.753906 104.460938 C 24.140625 105.015625 24.445312 105.738281 24.667969 106.628906 L 24.832031 108.378906 L 24.832031 110.214844 L 24.417969 110.296875 C 24.03125 112.632812 23.835938 116.132812 23.835938 120.800781 L 24.335938 128.636719 L 23.917969 136.558594 L 23.585938 136.558594 L 23.503906 137.140625 L 23.917969 137.726562 L 24.167969 139.308594 L 26.410156 138.476562 L 28.15625 137.890625 L 28.488281 137.808594 L 28.65625 137.726562 L 34.636719 136.058594 L 36.214844 135.640625 L 35.800781 133.722656 L 35.800781 132.058594 C 35.800781 128.832031 35.578125 126.691406 35.136719 125.636719 L 35.136719 125.46875 L 35.050781 122.96875 C 35.050781 119.800781 35.300781 117.800781 35.800781 116.96875 M 23.003906 107.046875 L 22.175781 109.964844 C 18.742188 121.691406 17.023438 129.5 17.023438 133.390625 L 18.269531 142.726562 L 22.589844 140.058594 L 22.339844 137.226562 L 22.839844 128.636719 L 22.339844 120.886719 L 22.839844 113.046875 L 23.671875 109.046875 L 23.003906 107.046875 M 89.886719 119.550781 C 89.886719 122.609375 90.46875 125.886719 91.632812 129.390625 L 92.128906 128.054688 C 93.402344 125 94.261719 118.941406 94.707031 109.878906 L 92.628906 112.382812 C 90.800781 114.4375 89.886719 116.828125 89.886719 119.550781 M 54.328125 123.054688 L 54.246094 123.21875 L 54.160156 122.71875 L 54.160156 122.46875 L 54.328125 123.054688 "/>
<path style=" stroke:none;fill-rule:evenodd;fill:rgb(80.392158%,71.764708%,76.47059%);fill-opacity:1;" d="M 108.25 9.253906 L 108.25 9.503906 L 107.5 10.253906 L 106.421875 11.003906 L 104.507812 12.171875 L 103.347656 11.589844 L 105.671875 10.335938 L 106.335938 9.921875 L 108.25 9.253906 M 124.035156 18.089844 L 124.035156 18.257812 L 123.285156 18.675781 L 119.628906 21.34375 L 119.132812 20.59375 L 122.121094 18.507812 L 122.539062 18.175781 L 124.035156 18.089844 M 89.886719 22.007812 L 90.550781 21.34375 C 93.542969 18.230469 97.199219 15.367188 101.519531 12.753906 L 102.765625 13.339844 L 89.886719 22.09375 L 89.886719 22.007812 M 90.054688 23.675781 C 90.328125 23.675781 90.855469 23.453125 91.632812 23.011719 L 91.878906 23.761719 L 89.140625 25.011719 L 87.394531 23.011719 L 87.476562 22.925781 C 87.753906 23.425781 88.613281 23.675781 90.054688 23.675781 M 103.261719 33.179688 L 103.347656 33.179688 C 103.789062 33.902344 104.371094 34.265625 105.089844 34.265625 C 105.367188 34.265625 106.117188 33.875 107.335938 33.097656 L 107.75 34.015625 C 107.695312 34.015625 106.808594 34.488281 105.089844 35.433594 C 103.871094 35.433594 103.261719 34.679688 103.261719 33.179688 M 118.300781 22.425781 L 113.898438 26.261719 C 109.078125 30.597656 106.226562 32.765625 105.339844 32.765625 L 104.757812 32.179688 C 106.089844 30.347656 110.296875 26.902344 117.386719 21.84375 L 118.300781 22.425781 "/>
<path style=" stroke:none;fill-rule:evenodd;fill:rgb(61.56863%,32.549021%,31.37255%);fill-opacity:1;" d="M 108.25 11.253906 L 108.332031 11.253906 L 109.078125 11.503906 L 119.464844 16.507812 L 120.296875 17.425781 L 111.570312 23.511719 C 106.917969 26.679688 104.121094 29.179688 103.179688 31.011719 C 102.292969 31.070312 101.851562 31.820312 101.851562 33.265625 C 101.851562 35.710938 102.902344 36.933594 105.007812 36.933594 C 107.722656 36.933594 109.078125 35.933594 109.078125 33.929688 L 109.078125 33.015625 L 108.496094 32.265625 L 116.308594 26.34375 L 124.863281 19.507812 C 130.015625 22.675781 135.609375 26.484375 141.648438 30.929688 L 154.359375 40.265625 L 155.105469 40.765625 L 154.441406 42.269531 C 154.054688 43.546875 153.140625 44.378906 151.699219 44.769531 L 139.984375 48.269531 C 137.882812 48.714844 134.777344 49.800781 130.679688 51.523438 L 123.203125 53.523438 L 121.789062 54.691406 L 106.753906 58.023438 L 103.261719 58.941406 C 101.878906 56.386719 99.164062 53.660156 95.121094 50.773438 L 82.90625 42.019531 L 71.441406 32.929688 C 69.558594 31.707031 66.957031 30.484375 63.632812 29.261719 L 59.976562 27.511719 C 57.871094 26.566406 56.128906 26.039062 54.742188 25.929688 C 61.167969 15.757812 64.378906 10.503906 64.378906 10.171875 L 63.632812 9.253906 C 60.695312 13.089844 58.289062 17.007812 56.40625 21.007812 L 53.082031 26.09375 L 52.75 26.511719 L 52.75 26.59375 L 52.25 27.429688 C 45.769531 30.320312 39.59375 34.542969 33.722656 40.101562 L 18.933594 55.941406 L 14.863281 52.773438 C 12.535156 51.105469 10.597656 49.214844 9.046875 47.105469 L 9.046875 47.019531 C 14.585938 40.296875 18.4375 36.125 20.597656 34.515625 L 37.542969 23.761719 C 45.132812 17.980469 54.328125 12.421875 65.128906 7.085938 L 67.207031 6.167969 L 69.699219 4.5 C 71.582031 3.335938 73.214844 2.527344 74.601562 2.085938 C 70.445312 4.585938 68.367188 6.167969 68.367188 6.835938 L 69.117188 7.671875 L 78.421875 1.25 L 102.101562 8.503906 L 103.59375 9.171875 L 102.597656 10.085938 L 102.847656 10.421875 L 96.367188 14.089844 C 92.15625 16.703125 89.804688 18.839844 89.304688 20.507812 L 88.640625 20.675781 L 88.308594 20.507812 C 86.480469 21.285156 85.566406 22.066406 85.566406 22.84375 C 86.785156 25.289062 87.976562 26.511719 89.140625 26.511719 C 91.964844 26.511719 93.375 25.59375 93.375 23.761719 L 93.292969 22.84375 L 92.960938 22.257812 C 94.734375 21.148438 97.199219 19.425781 100.355469 17.089844 L 108.25 11.253906 M 89.886719 22.007812 L 89.886719 22.09375 L 89.636719 22.257812 L 89.804688 22.007812 L 89.886719 22.007812 M 103.261719 33.179688 L 103.261719 33.097656 L 103.347656 33.179688 L 103.261719 33.179688 "/>
<path style=" stroke:none;fill-rule:evenodd;fill:rgb(99.607843%,100%,100%);fill-opacity:1;" d="M 40.121094 36.933594 C 39.675781 36.988281 38.875 37.460938 37.710938 38.351562 L 36.628906 39.265625 L 37.792969 37.847656 C 39.234375 36.347656 41.0625 35.152344 43.277344 34.265625 C 44.828125 33.652344 47.183594 32.402344 50.339844 30.511719 L 48.925781 33.015625 L 49.011719 33.347656 L 47.929688 33.265625 C 46.765625 33.265625 45.824219 34.265625 45.105469 36.265625 L 44.191406 40.015625 L 42.53125 42.683594 C 41.863281 41.238281 41.367188 39.351562 41.035156 37.015625 L 40.121094 36.933594 M 62.71875 37.347656 C 61.058594 35.125 59.8125 34.015625 58.980469 34.015625 L 55.988281 39.351562 C 53.664062 43.183594 51.585938 45.714844 49.757812 46.9375 C 49.757812 47.605469 50.199219 47.9375 51.085938 47.9375 C 52.085938 47.9375 54.605469 46.992188 58.648438 45.101562 C 62.855469 43.101562 64.960938 41.65625 64.960938 40.765625 L 62.71875 37.347656 M 81.828125 43.183594 L 101.683594 59.441406 L 82.90625 65.277344 L 63.714844 69.945312 L 51.253906 72.53125 L 43.859375 71.863281 L 45.9375 56.273438 L 48.179688 58.691406 L 49.757812 60.691406 C 50.035156 61.082031 51.417969 61.777344 53.910156 62.777344 C 59.0625 65.054688 61.945312 66.195312 62.550781 66.195312 C 63.496094 66.195312 64.214844 65.804688 64.710938 65.027344 C 59.785156 61.527344 55.960938 58.523438 53.246094 56.023438 C 52.417969 55.300781 51.03125 53.273438 49.09375 49.9375 L 46.601562 46.101562 L 52.914062 38.433594 L 53.164062 38.265625 L 53.082031 38.101562 L 53.164062 38.015625 L 52.914062 37.683594 C 52.25 36.40625 51.808594 35.210938 51.585938 34.097656 C 51.363281 33.765625 50.839844 33.542969 50.007812 33.429688 L 52.914062 28.847656 L 54.578125 27.59375 L 69.449219 33.179688 C 71.496094 34.125 73.742188 35.765625 76.179688 38.101562 L 81.828125 43.183594 M 35.800781 40.433594 C 37.296875 43.269531 38.652344 45.1875 39.871094 46.1875 L 39.039062 47.269531 L 27.574219 61.527344 L 27.824219 62.195312 L 28.488281 62.277344 L 29.070312 62.027344 L 29.238281 62.027344 C 31.5625 62.027344 34.664062 60.441406 38.542969 57.273438 C 40.980469 55.273438 42.640625 53.550781 43.527344 52.105469 L 44.9375 54.855469 L 43.859375 60.359375 L 42.445312 70.363281 L 42.53125 71.363281 L 42.28125 71.363281 L 39.703125 70.195312 L 38.875 70.445312 C 31.230469 65.222656 26.21875 61.664062 23.835938 59.777344 L 20.347656 57.023438 L 26.410156 49.769531 L 34.054688 41.769531 L 35.632812 40.351562 L 35.800781 40.433594 M 41.949219 73.78125 C 42.667969 73.78125 43.027344 73.671875 43.027344 73.449219 L 43.109375 73.449219 L 43.195312 73.53125 L 43.359375 73.449219 L 51.667969 74.199219 L 64.464844 71.613281 C 72.992188 69.722656 79.308594 68.113281 83.40625 66.777344 C 95.535156 62.886719 103.761719 60.441406 108.082031 59.441406 L 124.035156 55.691406 L 124.699219 55.441406 L 124.035156 55.441406 L 125.03125 54.855469 L 131.761719 52.773438 C 135.859375 51.214844 139.515625 50.050781 142.726562 49.269531 C 150.539062 47.4375 155.078125 45.1875 156.351562 42.519531 L 156.351562 43.183594 C 156.351562 43.964844 156.074219 44.714844 155.523438 45.4375 C 153.972656 47.269531 150.453125 48.882812 144.96875 50.273438 L 136.996094 52.773438 C 135.886719 53.328125 134.808594 53.632812 133.753906 53.691406 L 110.574219 60.527344 C 93.902344 65.695312 77.480469 69.945312 61.304688 73.28125 L 44.441406 76.78125 C 37.460938 73.394531 33.75 71.476562 33.308594 71.03125 C 32.253906 69.753906 29.015625 67.558594 23.585938 64.445312 C 21.8125 63.332031 18.628906 60.804688 14.03125 56.859375 C 9.214844 52.6875 6.804688 50.300781 6.804688 49.6875 L 7.71875 47.769531 C 8.769531 49.328125 12.398438 52.578125 18.601562 57.523438 L 18.601562 57.691406 L 18.851562 57.691406 L 23.585938 61.441406 C 34.332031 69.667969 40.453125 73.78125 41.949219 73.78125 "/>
<path style=" stroke:none;fill-rule:evenodd;fill:rgb(64.705884%,27.843139%,23.921569%);fill-opacity:1;" d="M 31.0625 60.027344 L 39.789062 49.019531 L 41.367188 47.019531 L 41.78125 47.019531 C 42.058594 47.019531 42.28125 46.9375 42.445312 46.769531 L 42.53125 46.1875 L 42.113281 45.851562 C 45.714844 40.683594 47.429688 36.988281 47.265625 34.765625 L 49.175781 34.765625 L 50.421875 35.015625 C 50.644531 36.460938 50.976562 37.488281 51.417969 38.101562 L 48.511719 40.933594 C 46.351562 43.15625 45.269531 44.714844 45.269531 45.601562 L 45.355469 46.019531 L 45.269531 46.4375 C 48.539062 51.773438 50.285156 54.800781 50.503906 55.523438 C 50.839844 56.523438 52.5 58.023438 55.492188 60.027344 L 61.472656 64.277344 L 61.472656 64.445312 C 60.585938 63.886719 58.175781 62.886719 54.246094 61.441406 C 51.363281 60.332031 49.675781 58.941406 49.175781 57.273438 L 46.269531 54.191406 L 46.433594 52.773438 L 45.769531 51.773438 L 45.4375 52.773438 L 44.023438 48.9375 L 43.195312 48.769531 L 42.28125 49.019531 L 42.53125 49.605469 C 41.421875 50.328125 39.675781 52.4375 37.296875 55.941406 C 35.46875 57.71875 33.417969 59.109375 31.148438 60.109375 L 31.0625 60.027344 M 40.703125 44.851562 C 39.316406 43.574219 38.265625 42.101562 37.542969 40.433594 L 39.703125 39.015625 L 40.203125 42.683594 C 40.425781 43.519531 40.757812 44.101562 41.199219 44.4375 L 40.867188 44.9375 L 40.703125 44.851562 M 57.652344 41.019531 C 58.980469 39.128906 59.5625 37.597656 59.394531 36.433594 C 60.613281 37.265625 61.804688 38.628906 62.96875 40.515625 C 58.425781 43.296875 55.40625 45.019531 53.910156 45.6875 L 57.652344 41.019531 "/>
<path style=" stroke:none;fill-rule:evenodd;fill:rgb(100%,100%,90.588236%);fill-opacity:1;" d="M 15.695312 146.8125 L 15.609375 146.980469 L 15.445312 147.148438 L 15.695312 146.8125 M 95.953125 112.964844 L 96.535156 112.964844 L 96.617188 112.714844 L 100.605469 99.375 C 102.265625 93.929688 103.152344 89.484375 103.261719 86.035156 L 103.347656 86.035156 L 103.347656 92.707031 C 102.957031 92.875 102.765625 93.597656 102.765625 94.875 C 104.371094 108.824219 105.230469 116.773438 105.339844 118.71875 L 104.839844 120.96875 C 103.734375 125.191406 102.40625 129.140625 100.855469 132.808594 C 95.867188 145.257812 93.210938 153.039062 92.878906 156.152344 L 92.214844 155.566406 C 91.214844 154.734375 90.359375 154.316406 89.636719 154.316406 L 87.476562 157.234375 C 88.417969 149.953125 90.136719 141.367188 92.628906 131.472656 L 95.203125 122.300781 C 96.089844 118.578125 96.339844 115.464844 95.953125 112.964844 M 100.355469 140.894531 L 100.855469 141.0625 L 101.101562 140.976562 C 102.375 136.699219 106.117188 130.140625 112.320312 121.300781 C 113.371094 119.46875 114.480469 117.050781 115.640625 114.050781 L 115.726562 114.050781 L 115.808594 114.800781 L 116.308594 114.800781 L 116.804688 110.882812 L 117.554688 107.546875 L 117.222656 108.378906 L 117.054688 108.296875 C 117.277344 106.183594 117.96875 104.515625 119.132812 103.292969 L 119.296875 103.378906 C 120.238281 102.320312 121.484375 101.792969 123.035156 101.792969 L 123.617188 101.878906 C 123.339844 103.601562 122.980469 105.046875 122.539062 106.210938 L 121.457031 112.382812 C 121.238281 115.328125 120.933594 117.46875 120.542969 118.800781 L 117.054688 131.554688 L 111.570312 144.0625 L 111.738281 144.5625 L 112.652344 144.8125 C 113.316406 144.8125 114.285156 143.035156 115.558594 139.476562 L 118.21875 132.308594 L 122.039062 119.550781 C 122.816406 116.9375 123.480469 112.605469 124.035156 106.546875 C 124.808594 103.601562 125.28125 100.125 125.445312 96.125 L 126.527344 96.292969 C 126.582031 96.292969 127.992188 95.542969 130.761719 94.039062 L 135.167969 91.707031 L 135.25 96.792969 L 134.417969 118.050781 L 132.757812 122.636719 L 129.183594 132.808594 L 128.023438 136.058594 L 126.777344 140.894531 C 126.222656 142.839844 125.28125 144.3125 123.949219 145.3125 C 117.136719 150.648438 110.492188 153.316406 104.011719 153.316406 C 102.738281 153.316406 100.9375 151.203125 98.609375 146.980469 L 98.277344 147.3125 L 98.113281 147.3125 L 100.355469 140.894531 M 91.964844 164.320312 L 92.546875 164.488281 C 93.265625 165.320312 95.425781 165.90625 99.027344 166.238281 L 111.074219 166.820312 L 111.074219 167.320312 L 122.539062 167.320312 L 129.183594 167.15625 C 135.722656 166.820312 139.957031 165.960938 141.898438 164.570312 C 142.78125 163.960938 143.226562 163.238281 143.226562 162.402344 L 142.976562 160.820312 C 142.976562 160.429688 142.894531 160.320312 142.726562 160.484375 L 142.230469 160.570312 L 141.730469 160.320312 L 140.984375 160.902344 L 139.15625 161.402344 L 138.988281 161.234375 L 139.488281 160.570312 C 138.65625 159.570312 138.242188 158.429688 138.242188 157.152344 C 138.242188 155.648438 138.519531 154.148438 139.070312 152.648438 C 139.515625 154.871094 140.84375 156.871094 143.058594 158.652344 C 145.773438 160.875 147.128906 162.738281 147.128906 164.238281 L 144.96875 168.070312 C 144.96875 168.792969 146.6875 170.183594 150.121094 172.242188 C 153.5 174.296875 155.191406 176.574219 155.191406 179.078125 C 155.191406 180.6875 154.71875 183.273438 153.777344 186.832031 L 152.53125 192 C 151.257812 190.777344 150.148438 189.21875 149.207031 187.332031 L 146.21875 181.328125 C 144.886719 179.492188 143.308594 177.742188 141.480469 176.074219 L 138.574219 173.824219 L 143.722656 173.992188 C 145.386719 173.992188 146.21875 173.769531 146.21875 173.324219 L 133.921875 171.742188 L 131.011719 171.324219 L 129.183594 171.074219 L 103.761719 167.738281 C 97.171875 167.738281 91.464844 169.128906 86.648438 171.90625 L 86.648438 168.488281 L 89.636719 166.488281 L 91.964844 164.320312 M 16.941406 74.367188 C 19.652344 74.808594 21.011719 78.421875 21.011719 85.203125 C 21.011719 91.148438 19.792969 98.347656 17.355469 106.796875 C 14.863281 115.1875 13.617188 120.773438 13.617188 123.554688 L 13.78125 128.972656 L 15.695312 135.808594 C 15.75 138.976562 16 141.699219 16.441406 143.980469 L 16.609375 143.894531 L 15.445312 144.894531 L 12.535156 148.230469 L 11.707031 145.230469 L 12.121094 145.0625 L 12.121094 144.980469 C 11.621094 143.699219 11.375 140.699219 11.375 135.976562 L 13.617188 101.210938 C 14.003906 95.320312 15.113281 86.371094 16.941406 74.367188 "/>
<path style=" stroke:none;fill-rule:evenodd;fill:rgb(72.941178%,72.941178%,72.941178%);fill-opacity:1;" d="M 105.339844 118.71875 C 105.230469 116.773438 104.371094 108.824219 102.765625 94.875 C 102.765625 93.597656 102.957031 92.875 103.347656 92.707031 L 103.347656 86.035156 L 103.261719 86.035156 C 103.152344 89.484375 102.265625 93.929688 100.605469 99.375 L 96.617188 112.714844 L 96.535156 112.964844 L 95.621094 112.964844 L 95.371094 112.546875 L 95.785156 110.378906 L 96.367188 93.957031 L 96.367188 80.035156 C 95.757812 72.808594 95.121094 68.390625 94.457031 66.777344 L 112.070312 61.777344 L 123.785156 58.359375 L 123.453125 59.691406 L 124.035156 93.457031 C 124.035156 96.570312 123.894531 99.238281 123.617188 101.460938 L 124.199219 101.792969 L 124.199219 101.960938 L 123.617188 101.878906 L 123.035156 101.792969 C 121.484375 101.792969 120.238281 102.320312 119.296875 103.378906 L 119.464844 102.960938 L 119.132812 103.292969 C 117.96875 104.515625 117.277344 106.183594 117.054688 108.296875 L 117.054688 108.878906 L 117.222656 108.378906 L 117.554688 107.546875 L 116.804688 110.882812 L 116.308594 114.800781 L 115.808594 114.800781 L 115.726562 114.050781 L 115.726562 113.800781 L 115.640625 114.050781 C 114.480469 117.050781 113.371094 119.46875 112.320312 121.300781 C 106.117188 130.140625 102.375 136.699219 101.101562 140.976562 L 100.855469 141.0625 L 100.355469 140.894531 L 100.273438 140.808594 L 101.101562 138.644531 L 102.015625 135.976562 C 106.394531 122.859375 108.582031 114.382812 108.582031 110.546875 L 108.582031 110.464844 C 109.964844 109.910156 110.988281 105.960938 111.65625 98.625 C 111.988281 94.625 112.179688 90.566406 112.234375 86.453125 C 112.234375 83.453125 112.015625 81.394531 111.570312 80.285156 C 111.238281 80.839844 110.988281 83.257812 110.824219 87.539062 L 110.492188 94.957031 C 110.4375 96.957031 109.855469 99.847656 108.746094 103.628906 L 107.085938 109.714844 L 107.25 110.046875 L 107.335938 110.128906 C 106.78125 111.351562 106.335938 112.910156 106.003906 114.800781 L 106.003906 116.132812 L 105.839844 118.800781 L 105.339844 118.800781 L 105.339844 118.71875 M 87.476562 157.234375 L 89.636719 154.316406 C 90.359375 154.316406 91.214844 154.734375 92.214844 155.566406 L 92.878906 156.152344 L 93.625 157.066406 L 92.792969 156.902344 L 92.878906 157.734375 L 93.792969 157.816406 C 94.789062 156.039062 96.230469 152.539062 98.113281 147.3125 L 98.277344 147.3125 L 98.609375 146.980469 C 100.9375 151.203125 102.738281 153.316406 104.011719 153.316406 C 110.492188 153.316406 117.136719 150.648438 123.949219 145.3125 C 125.28125 144.3125 126.222656 142.839844 126.777344 140.894531 L 128.023438 136.058594 L 129.183594 132.808594 L 132.757812 122.636719 L 134.417969 118.050781 L 134.503906 117.71875 L 134.75 118.21875 L 134.335938 119.550781 L 134.253906 122.636719 L 134.003906 131.390625 L 134.503906 148.0625 L 135.25 148.230469 L 135.75 148.0625 L 135.75 143.8125 L 135.832031 127.972656 L 137.242188 132.472656 C 138.90625 137.476562 139.738281 141.089844 139.738281 143.3125 C 139.738281 145.921875 139.265625 148.398438 138.324219 150.730469 C 137.382812 153.011719 136.910156 155.207031 136.910156 157.316406 C 136.632812 158.984375 136.746094 160.152344 137.242188 160.820312 L 137.242188 161.152344 L 137.410156 161.484375 L 136.910156 161.484375 L 129.183594 161.320312 L 125.695312 160.902344 L 110.410156 160.320312 L 99.855469 161.820312 C 94.207031 162.820312 91.382812 163.488281 91.382812 163.820312 L 91.382812 163.902344 L 91.878906 163.570312 C 92.046875 163.402344 92.128906 163.542969 92.128906 163.988281 L 91.964844 164.320312 L 89.636719 166.488281 L 86.648438 168.488281 L 86.066406 168.738281 L 85.898438 168.238281 L 86.648438 167.40625 L 87.394531 158.316406 L 87.144531 158.316406 L 87.144531 157.902344 L 87.476562 157.234375 M 125.445312 96.125 L 125.28125 96.042969 L 125.445312 95.957031 L 125.445312 93.457031 L 125.695312 74.113281 C 125.640625 64.777344 125.167969 59.46875 124.28125 58.191406 L 132.425781 55.691406 L 132.425781 57.773438 C 134.03125 63.554688 134.777344 70.058594 134.667969 77.285156 L 135.167969 91.207031 L 136.414062 91.289062 L 135.167969 91.707031 L 130.761719 94.039062 C 127.992188 95.542969 126.582031 96.292969 126.527344 96.292969 L 125.445312 96.125 M 25 66.945312 L 24.832031 68.363281 C 25.609375 75.53125 25.996094 80.089844 25.996094 82.035156 C 25.996094 88.316406 24.277344 97.402344 20.84375 109.296875 C 17.578125 120.414062 15.859375 128.195312 15.695312 132.640625 L 16.109375 135.390625 L 16.109375 136.058594 L 15.777344 136.308594 L 15.695312 135.808594 L 13.78125 128.972656 L 13.617188 123.554688 C 13.617188 120.773438 14.863281 115.1875 17.355469 106.796875 C 19.792969 98.347656 21.011719 91.148438 21.011719 85.203125 C 21.011719 78.421875 19.652344 74.808594 16.941406 74.367188 L 16.359375 74.28125 L 16.277344 73.949219 L 16.609375 73.699219 L 17.023438 73.699219 L 18.101562 66.195312 L 17.769531 61.441406 L 22.421875 64.859375 L 25.164062 66.777344 L 25 66.945312 M 25.25 98.375 L 25.664062 98.457031 L 30.234375 94.125 L 30.316406 94.207031 L 31.5625 104.292969 C 34.886719 110.464844 36.546875 113.882812 36.546875 114.550781 L 35.800781 116.96875 C 35.300781 117.800781 35.050781 119.800781 35.050781 122.96875 L 35.136719 125.46875 L 35.050781 125.46875 C 34.554688 126.691406 34.414062 130.222656 34.636719 136.058594 L 28.65625 137.726562 L 28.488281 137.808594 L 28.15625 137.890625 L 26.410156 138.476562 L 24.5 136.476562 L 23.917969 136.558594 L 24.335938 128.636719 L 23.835938 120.800781 C 23.835938 116.132812 24.03125 112.632812 24.417969 110.296875 L 24.832031 110.214844 L 24.832031 108.378906 L 24.667969 106.628906 C 24.445312 105.738281 24.140625 105.015625 23.753906 104.460938 L 25.25 98.375 "/>
<path style=" stroke:none;fill-rule:evenodd;fill:rgb(57.254905%,56.470591%,58.431375%);fill-opacity:1;" d="M 30.648438 70.695312 L 30.234375 70.613281 L 29.902344 70.613281 L 29.734375 70.03125 L 30.648438 70.695312 M 92.546875 164.488281 L 92.378906 164.238281 L 92.628906 163.570312 L 94.039062 164.570312 L 94.289062 164.738281 L 94.375 164.570312 C 96.3125 164.570312 98.277344 164.125 100.273438 163.238281 C 102.265625 162.292969 105.699219 161.820312 110.574219 161.820312 L 126.027344 162.402344 L 129.183594 162.820312 L 137.242188 162.988281 L 138.988281 162.988281 L 139.070312 162.902344 C 140.621094 162.792969 141.648438 162.488281 142.144531 161.984375 L 142.144531 160.570312 L 142.230469 160.570312 L 142.726562 160.484375 C 142.894531 160.320312 142.976562 160.429688 142.976562 160.820312 L 143.226562 162.402344 C 143.226562 163.238281 142.78125 163.960938 141.898438 164.570312 C 139.957031 165.960938 135.722656 166.820312 129.183594 167.15625 L 122.539062 167.320312 L 111.074219 167.320312 L 111.074219 166.820312 L 99.027344 166.238281 C 95.425781 165.90625 93.265625 165.320312 92.546875 164.488281 M 25.25 98.375 L 25.082031 98.292969 L 24.832031 97.625 L 25.582031 96.625 C 26.742188 91.011719 27.324219 86.230469 27.324219 82.285156 C 27.324219 75.339844 26.800781 70.308594 25.746094 67.195312 L 28.820312 69.445312 L 28.738281 69.78125 L 29.070312 70.78125 L 39.371094 105.210938 L 39.039062 105.878906 C 39.039062 106.488281 41.503906 108.90625 46.433594 113.132812 L 54.160156 119.21875 L 54.160156 119.382812 L 55.160156 122.386719 L 54.160156 125.972656 L 53 131.304688 L 38.292969 135.140625 L 36.464844 127.472656 L 36.464844 122.136719 C 36.464844 120.355469 36.328125 118.914062 36.050781 117.800781 L 35.800781 117.050781 L 35.800781 116.96875 L 36.546875 114.550781 C 36.546875 113.882812 34.886719 110.464844 31.5625 104.292969 L 30.316406 94.207031 L 30.316406 94.039062 L 30.234375 94.125 L 25.664062 98.457031 L 25.25 98.375 M 35.136719 125.636719 C 35.578125 126.691406 35.800781 128.832031 35.800781 132.058594 L 35.800781 133.722656 L 36.214844 135.640625 L 34.636719 136.058594 C 34.414062 130.222656 34.554688 126.691406 35.050781 125.46875 L 35.136719 125.636719 M 26.410156 138.476562 L 24.167969 139.308594 L 23.917969 137.726562 L 23.503906 137.140625 L 23.585938 136.558594 L 23.917969 136.558594 L 24.5 136.476562 L 26.410156 138.476562 M 23.003906 107.046875 L 23.671875 109.046875 L 22.839844 113.046875 L 22.339844 120.886719 L 22.839844 128.636719 L 22.339844 137.226562 L 22.589844 140.058594 L 18.269531 142.726562 L 17.023438 133.390625 C 17.023438 129.5 18.742188 121.691406 22.175781 109.964844 L 23.003906 107.046875 M 89.886719 119.550781 C 89.886719 116.828125 90.800781 114.4375 92.628906 112.382812 L 94.707031 109.878906 C 94.261719 118.941406 93.402344 125 92.128906 128.054688 L 91.632812 129.390625 C 90.46875 125.886719 89.886719 122.609375 89.886719 119.550781 M 54.328125 123.054688 L 54.160156 122.46875 L 54.160156 122.71875 L 54.246094 123.21875 L 54.328125 123.054688 "/>
</g>
</svg>
