<?xml version="1.0" encoding="UTF-8"?>
<svg xmlns="http://www.w3.org/2000/svg" xmlns:xlink="http://www.w3.org/1999/xlink" width="160px" height="194px" viewBox="0 0 160 194" version="1.1">
<g id="surface1">
<path style=" stroke:none;fill-rule:evenodd;fill:rgb(0%,0%,0%);fill-opacity:1;" d="M 73.105469 59.109375 L 89.71875 59.277344 C 89.71875 58.773438 90.109375 58.523438 90.882812 58.523438 L 92.128906 59.359375 L 93.042969 59.359375 L 93.042969 59.609375 L 93.792969 59.609375 L 101.519531 58.859375 L 105.839844 58.109375 C 108.441406 58.109375 109.992188 59.164062 110.492188 61.277344 L 110.65625 65.195312 C 112.207031 69.417969 112.984375 71.863281 112.984375 72.53125 C 112.984375 72.863281 112.84375 73.058594 112.570312 73.113281 L 113.898438 75.617188 L 113.566406 79.867188 C 113.34375 81.925781 113.09375 83.203125 112.816406 83.703125 L 113.566406 85.453125 C 113.566406 86.007812 112.625 88.175781 110.742188 91.957031 C 108.691406 96.125 107.167969 98.207031 106.171875 98.207031 L 106.253906 98.710938 C 106.253906 99.375 105.894531 100.570312 105.175781 102.292969 C 104.289062 104.460938 103.347656 105.546875 102.347656 105.546875 L 101.269531 105.546875 C 100.160156 105.546875 97.476562 104.796875 93.210938 103.292969 L 84.320312 101.125 C 80.222656 100.515625 76.371094 98.765625 72.773438 95.875 C 71.386719 94.761719 69.671875 92.539062 67.621094 89.203125 C 65.683594 86.59375 63.882812 84.871094 62.21875 84.035156 L 61.140625 83.453125 L 56.984375 83.453125 L 34.636719 83.117188 L 33.472656 82.867188 L 32.226562 82.367188 L 28.15625 80.867188 C 27.160156 80.257812 26.660156 78.921875 26.660156 76.867188 L 26.410156 68.863281 L 26.496094 66.527344 L 26.246094 63.609375 L 26.246094 61.109375 C 26.6875 59.832031 27.992188 59.191406 30.152344 59.191406 L 34.386719 59.941406 L 50.339844 60.691406 L 72.9375 59.191406 L 73.105469 59.109375 M 102.265625 52.1875 L 101.933594 52.273438 L 102.101562 52.1875 L 102.265625 52.1875 M 110.160156 69.195312 L 110.324219 68.695312 L 109.992188 68.363281 L 109.328125 66.113281 L 109.328125 62.609375 C 109.328125 62.054688 109.023438 61.414062 108.414062 60.691406 C 107.640625 59.804688 106.753906 59.359375 105.753906 59.359375 L 102.015625 60.191406 L 96.449219 60.941406 L 93.210938 60.777344 L 91.796875 60.441406 L 76.59375 60.191406 L 69.199219 60.859375 L 50.171875 61.859375 L 35.964844 61.609375 L 35.21875 61.109375 L 31.976562 60.359375 L 27.65625 61.109375 L 27.410156 66.777344 L 27.742188 73.03125 L 27.492188 73.363281 L 27.742188 73.53125 L 27.742188 74.367188 L 28.15625 79.199219 C 28.765625 80.199219 30.179688 80.839844 32.394531 81.117188 L 34.136719 81.703125 L 34.96875 82.117188 L 57.070312 82.203125 L 63.550781 82.203125 L 63.714844 82.285156 L 62.71875 82.785156 C 64.269531 83.453125 66.179688 85.230469 68.453125 88.121094 L 74.265625 95.207031 C 77.257812 97.597656 81.605469 99.238281 87.3125 100.125 C 89.527344 100.515625 91.9375 101.292969 94.539062 102.460938 L 99.691406 103.542969 C 99.855469 104.324219 100.132812 104.710938 100.519531 104.710938 C 100.796875 104.710938 100.992188 104.488281 101.101562 104.042969 L 102.015625 104.710938 C 102.515625 104.601562 102.929688 104.210938 103.261719 103.542969 L 103.761719 101.960938 L 104.925781 98.875 L 104.011719 96.375 L 103.84375 96.375 C 103.125 96.375 100.382812 94.820312 95.621094 91.707031 L 91.132812 89.957031 L 89.386719 89.203125 L 87.808594 87.703125 L 87.3125 87.953125 L 86.980469 87.539062 C 86.980469 87.039062 87.199219 86.789062 87.644531 86.789062 L 97.113281 90.871094 C 97.945312 91.207031 99.441406 92.066406 101.601562 93.457031 L 104.59375 95.542969 C 105.035156 95.542969 105.421875 95.875 105.753906 96.542969 L 110.074219 89.203125 C 110.1875 89.371094 110.324219 89.457031 110.492188 89.457031 C 110.933594 89.457031 111.15625 89.121094 111.15625 88.453125 L 110.988281 87.621094 L 112.234375 85.453125 C 112.234375 84.785156 111.378906 83.980469 109.660156 83.035156 C 109.328125 82.257812 109.023438 81.867188 108.746094 81.867188 L 108.496094 81.953125 L 108.996094 81.535156 C 110.046875 81.535156 110.960938 81.839844 111.738281 82.453125 L 111.902344 80.285156 L 112.234375 81.035156 C 112.625 81.035156 112.816406 80.757812 112.816406 80.199219 L 112.320312 77.785156 L 112.652344 75.699219 L 110.824219 73.113281 L 110.65625 73.03125 C 110.160156 72.140625 109.660156 71.699219 109.160156 71.699219 L 108.746094 71.78125 L 108.496094 70.945312 C 108.496094 70.503906 108.71875 70.28125 109.160156 70.28125 C 109.660156 70.28125 110.214844 70.53125 110.824219 71.03125 L 110.160156 69.195312 M 36.132812 73.449219 L 36.132812 72.363281 C 36.132812 67.472656 36.796875 64.640625 38.125 63.859375 L 38.707031 63.359375 L 71.859375 63.109375 L 74.265625 62.359375 L 78.339844 61.359375 L 78.671875 61.359375 L 80.664062 60.609375 C 84.652344 60.609375 86.785156 64.054688 87.0625 70.945312 L 86.980469 70.945312 L 87.0625 71.613281 L 87.144531 71.613281 L 87.0625 74.367188 L 86.894531 77.285156 L 87.0625 77.867188 L 86.648438 78.535156 L 86.480469 78.949219 C 86.3125 78.726562 86.09375 78.617188 85.816406 78.617188 L 85.234375 79.117188 L 83.488281 79.867188 L 81.328125 80.703125 L 80.332031 81.367188 L 64.546875 81.617188 L 64.046875 81.367188 L 63.464844 81.617188 L 59.976562 81.617188 L 37.878906 81.453125 C 37.65625 81.453125 37.433594 81.339844 37.210938 81.117188 L 37.210938 80.703125 C 36.660156 80.144531 36.296875 78.839844 36.132812 76.78125 L 36.132812 74.367188 L 36.214844 74.367188 L 36.382812 73.78125 L 36.132812 73.449219 M 63.21875 65.695312 L 63.382812 66.027344 L 62.386719 67.277344 L 61.472656 68.027344 L 60.890625 68.28125 C 60.726562 67.445312 59.644531 67.027344 57.652344 67.027344 L 56.320312 67.113281 C 54.714844 67.390625 53.664062 68.140625 53.164062 69.363281 L 52.914062 71.78125 L 53.414062 74.949219 L 55.160156 76.617188 C 56.042969 77.171875 56.625 77.449219 56.902344 77.449219 C 59.726562 77.449219 61.25 76.476562 61.472656 74.53125 L 61.472656 74.03125 C 61.472656 72.140625 61.058594 70.835938 60.226562 70.113281 C 59.671875 69.613281 58.925781 69.363281 57.984375 69.363281 C 56.929688 69.363281 56.101562 69.753906 55.492188 70.53125 L 54.910156 71.699219 C 54.910156 72.753906 55.351562 73.644531 56.238281 74.367188 C 57.679688 74.367188 58.316406 74.003906 58.148438 73.28125 L 56.738281 71.949219 L 57.152344 71.613281 C 58.039062 71.613281 58.621094 71.890625 58.898438 72.449219 L 58.980469 73.363281 C 59.089844 74.367188 58.648438 74.976562 57.652344 75.199219 L 56.902344 75.199219 C 55.019531 75.199219 54.078125 74.03125 54.078125 71.699219 L 54.660156 70.03125 C 55.324219 68.972656 56.375 68.445312 57.816406 68.445312 C 59.035156 68.445312 60.003906 68.722656 60.726562 69.28125 C 61.886719 70.113281 62.414062 71.699219 62.304688 74.03125 L 62.304688 74.199219 C 62.246094 76.921875 60.863281 78.285156 58.148438 78.285156 C 56.652344 78.285156 55.433594 77.976562 54.492188 77.367188 L 52.75 78.285156 C 52.140625 78.617188 51.503906 78.921875 50.839844 79.199219 L 50.339844 78.699219 L 52.417969 74.617188 L 52.085938 71.863281 C 52.085938 68.085938 53.941406 66.195312 57.652344 66.195312 C 59.480469 66.195312 60.53125 66.554688 60.808594 67.277344 C 61.140625 67.277344 61.832031 66.722656 62.886719 65.613281 L 63.21875 65.695312 M 66.042969 80.199219 L 66.042969 80.453125 L 66.707031 80.617188 L 67.289062 80.199219 L 70.777344 80.199219 L 71.277344 80.867188 L 72.105469 80.199219 L 80 80.117188 L 85.566406 77.617188 L 85.980469 74.367188 L 85.980469 70.863281 C 85.703125 68.75 85.484375 67.613281 85.316406 67.445312 L 83.324219 63.609375 C 82.714844 62.664062 81.300781 62.195312 79.085938 62.195312 C 78.367188 62.695312 76.457031 63.195312 73.351562 63.695312 L 72.9375 63.695312 L 72.523438 63.609375 L 72.273438 63.777344 L 65.292969 64.359375 L 64.628906 64.195312 L 64.378906 64.445312 L 50.257812 64.777344 L 50.089844 64.695312 L 50.089844 64.777344 L 46.683594 64.777344 L 44.9375 64.445312 L 44.191406 64.527344 L 44.109375 64.445312 L 44.109375 64.609375 L 43.941406 64.445312 L 43.777344 64.777344 L 39.207031 64.695312 L 38.875 64.945312 C 38.210938 65.667969 37.710938 66.75 37.378906 68.195312 L 37.378906 72.363281 C 37.378906 75.976562 37.65625 78.507812 38.210938 79.949219 L 38.375 80.367188 L 66.042969 80.199219 M 40.371094 65.613281 L 40.453125 65.613281 C 42.058594 65.332031 42.722656 65.972656 42.445312 67.527344 C 42.445312 68.585938 41.921875 69.113281 40.867188 69.113281 C 39.816406 69.113281 39.152344 68.808594 38.875 68.195312 L 38.875 67.195312 C 38.875 66.027344 39.371094 65.5 40.371094 65.613281 M 40.371094 67.863281 L 41.367188 67.863281 L 41.367188 66.945312 L 40.203125 66.863281 L 39.953125 67.113281 L 40.371094 67.863281 M 38.125 73.699219 L 37.960938 72.449219 C 37.960938 71.226562 38.597656 70.613281 39.871094 70.613281 C 41.253906 70.613281 41.835938 71.308594 41.617188 72.699219 C 41.617188 74.144531 40.949219 74.867188 39.621094 74.867188 C 38.902344 74.867188 38.402344 74.476562 38.125 73.699219 M 39.871094 71.699219 L 39.125 72.699219 L 39.621094 73.699219 L 40.453125 72.699219 C 40.453125 72.363281 40.257812 72.03125 39.871094 71.699219 M 39.125 77.617188 C 39.125 76.617188 39.566406 76.117188 40.453125 76.117188 C 41.78125 76.117188 42.445312 76.839844 42.445312 78.285156 C 42.445312 79.339844 41.949219 79.867188 40.949219 79.867188 C 39.734375 79.867188 39.125 79.117188 39.125 77.617188 M 41.117188 78.617188 C 41.285156 78.671875 41.367188 78.476562 41.367188 78.035156 L 40.867188 77.449219 L 40.203125 77.367188 L 40.617188 78.617188 L 41.117188 78.617188 M 51.667969 77.785156 L 53.910156 76.949219 L 52.832031 75.617188 L 51.667969 77.699219 L 51.667969 77.785156 M 95.121094 80.703125 L 94.789062 80.367188 C 94.789062 79.921875 95.839844 79.699219 97.945312 79.699219 C 101.769531 79.699219 103.898438 80.089844 104.34375 80.867188 L 104.09375 80.785156 L 103.511719 81.535156 L 103.511719 81.703125 L 100.855469 81.117188 L 96.199219 80.867188 L 95.621094 80.453125 L 95.121094 80.703125 M 79.75 64.195312 L 79.335938 65.695312 L 79.335938 65.945312 L 80.5 65.945312 L 81.496094 64.945312 L 79.75 64.195312 M 82.492188 64.945312 C 82.492188 66.445312 81.632812 67.195312 79.917969 67.195312 C 78.976562 67.195312 78.421875 66.945312 78.253906 66.445312 L 78.253906 65.613281 L 78.503906 64.109375 C 78.78125 63.109375 79.195312 62.609375 79.75 62.609375 C 81.246094 62.609375 82.160156 63.386719 82.492188 64.945312 M 82.492188 69.945312 L 81.746094 70.613281 L 81.746094 71.113281 L 82.328125 71.363281 L 83.238281 71.363281 L 83.238281 69.945312 L 82.492188 69.945312 M 82.742188 68.613281 C 84.183594 68.613281 84.707031 69.195312 84.320312 70.363281 C 84.320312 71.863281 83.628906 72.613281 82.242188 72.613281 C 81.078125 72.613281 80.5 72.003906 80.5 70.78125 C 80.5 69.335938 81.246094 68.613281 82.742188 68.613281 M 83.074219 73.863281 C 84.070312 73.863281 84.570312 74.476562 84.570312 75.699219 C 84.570312 76.976562 83.988281 77.617188 82.824219 77.617188 C 82.105469 77.617188 81.578125 77.285156 81.246094 76.617188 L 80.996094 75.617188 C 80.996094 74.449219 81.6875 73.863281 83.074219 73.863281 M 82.078125 75.449219 L 82.328125 76.117188 L 83.488281 76.367188 L 83.488281 74.949219 L 83.074219 74.867188 L 82.078125 75.449219 "/>
<path style=" stroke:none;fill-rule:evenodd;fill:rgb(0%,0%,60.000002%);fill-opacity:1;" d="M 110.65625 73.03125 L 110.824219 73.113281 L 110.742188 73.113281 L 110.65625 73.03125 M 96.199219 80.867188 L 96.199219 81.035156 L 96.199219 80.867188 "/>
<path style=" stroke:none;fill-rule:evenodd;fill:rgb(40.000001%,40.000001%,40.000001%);fill-opacity:1;" d="M 61.472656 68.027344 L 62.386719 67.277344 L 63.382812 66.027344 L 63.21875 65.695312 L 64.378906 64.445312 L 64.628906 64.195312 L 65.292969 64.359375 L 72.273438 63.777344 L 69.78125 67.363281 L 67.539062 71.863281 C 67.539062 72.585938 67.730469 73.003906 68.121094 73.113281 C 70.667969 72.167969 73.4375 70.558594 76.425781 68.28125 L 76.511719 68.195312 L 76.511719 68.363281 C 76.234375 70.085938 74.324219 74.003906 70.777344 80.117188 L 70.777344 80.199219 L 67.289062 80.199219 L 66.707031 80.617188 L 66.042969 80.453125 L 66.042969 79.949219 L 67.289062 78.117188 L 67.371094 77.867188 L 65.625 77.617188 L 65.625 76.867188 C 65.292969 75.808594 64.710938 75.699219 63.882812 76.53125 C 63.160156 77.253906 62.71875 77.144531 62.550781 76.199219 L 62.550781 74.113281 L 62.304688 74.199219 L 62.304688 74.03125 C 62.414062 71.699219 61.886719 70.113281 60.726562 69.28125 L 61.472656 68.027344 M 61.472656 74.53125 L 58.316406 75.617188 L 57.816406 75.449219 L 57.652344 75.199219 C 58.648438 74.976562 59.089844 74.367188 58.980469 73.363281 L 58.898438 72.449219 L 60.144531 70.195312 L 60.226562 70.113281 C 61.058594 70.835938 61.472656 72.140625 61.472656 74.03125 L 61.472656 74.53125 M 60.058594 73.449219 L 60.058594 73.363281 L 59.894531 73.449219 L 60.058594 73.449219 M 69.28125 71.195312 L 69.367188 71.363281 L 69.28125 71.363281 L 69.28125 71.195312 M 73.351562 63.695312 L 73.269531 63.859375 L 72.9375 63.695312 L 73.351562 63.695312 "/>
<path style=" stroke:none;fill-rule:evenodd;fill:rgb(60.000002%,60.000002%,60.000002%);fill-opacity:1;" d="M 61.472656 68.027344 L 60.726562 69.28125 C 60.003906 68.722656 59.035156 68.445312 57.816406 68.445312 C 56.375 68.445312 55.324219 68.972656 54.660156 70.03125 L 54.078125 71.699219 C 54.078125 74.03125 55.019531 75.199219 56.902344 75.199219 L 57.652344 75.199219 L 57.816406 75.449219 L 58.316406 75.617188 L 61.472656 74.53125 C 61.25 76.476562 59.726562 77.449219 56.902344 77.449219 C 56.625 77.449219 56.042969 77.171875 55.160156 76.617188 L 53.414062 74.949219 L 52.914062 71.78125 L 53.164062 69.363281 C 53.664062 68.140625 54.714844 67.390625 56.320312 67.113281 L 57.652344 67.027344 C 59.644531 67.027344 60.726562 67.445312 60.890625 68.28125 L 61.472656 68.027344 M 62.304688 74.199219 L 62.550781 74.113281 L 62.550781 76.199219 C 62.71875 77.144531 63.160156 77.253906 63.882812 76.53125 C 64.710938 75.699219 65.292969 75.808594 65.625 76.867188 L 65.625 77.617188 L 67.371094 77.867188 L 67.289062 78.117188 L 66.042969 79.949219 L 66.042969 80.199219 L 38.375 80.367188 L 38.210938 79.949219 C 37.65625 78.507812 37.378906 75.976562 37.378906 72.363281 L 37.378906 68.195312 C 37.710938 66.75 38.210938 65.667969 38.875 64.945312 L 39.207031 64.695312 L 43.777344 64.777344 L 43.609375 65.027344 C 43 66.304688 42.695312 68.863281 42.695312 72.699219 C 42.695312 73.699219 42.917969 74.367188 43.359375 74.699219 C 44.523438 73.585938 45.714844 72.140625 46.933594 70.363281 L 47.097656 71.613281 L 47.679688 71.699219 L 48.34375 71.613281 C 48.402344 70.503906 48.84375 69.253906 49.675781 67.863281 L 50.839844 65.527344 L 50.257812 64.777344 L 64.378906 64.445312 L 63.21875 65.695312 L 62.886719 65.613281 C 61.832031 66.722656 61.140625 67.277344 60.808594 67.277344 C 60.53125 66.554688 59.480469 66.195312 57.652344 66.195312 C 53.941406 66.195312 52.085938 68.085938 52.085938 71.863281 L 52.417969 74.617188 L 50.339844 78.699219 L 50.839844 79.199219 C 51.503906 78.921875 52.140625 78.617188 52.75 78.285156 L 54.492188 77.367188 C 55.433594 77.976562 56.652344 78.285156 58.148438 78.285156 C 60.863281 78.285156 62.246094 76.921875 62.304688 74.199219 M 58.898438 72.449219 C 58.621094 71.890625 58.039062 71.613281 57.152344 71.613281 L 56.738281 71.949219 L 58.148438 73.28125 C 58.316406 74.003906 57.679688 74.367188 56.238281 74.367188 C 55.351562 73.644531 54.910156 72.753906 54.910156 71.699219 L 55.492188 70.53125 C 56.101562 69.753906 56.929688 69.363281 57.984375 69.363281 C 58.925781 69.363281 59.671875 69.613281 60.226562 70.113281 L 60.144531 70.195312 L 58.898438 72.449219 M 60.058594 73.449219 L 59.894531 73.449219 L 60.058594 73.363281 L 60.058594 73.449219 M 44.109375 64.609375 L 44.109375 64.445312 L 44.191406 64.527344 L 44.109375 64.609375 M 40.371094 65.613281 C 39.371094 65.5 38.875 66.027344 38.875 67.195312 L 38.875 68.195312 C 39.152344 68.808594 39.816406 69.113281 40.867188 69.113281 C 41.921875 69.113281 42.445312 68.585938 42.445312 67.527344 C 42.722656 65.972656 42.058594 65.332031 40.453125 65.613281 L 40.371094 65.613281 M 43.859375 72.363281 L 44.023438 72.53125 L 43.859375 72.613281 L 43.859375 72.363281 M 38.125 73.699219 C 38.402344 74.476562 38.902344 74.867188 39.621094 74.867188 C 40.949219 74.867188 41.617188 74.144531 41.617188 72.699219 C 41.835938 71.308594 41.253906 70.613281 39.871094 70.613281 C 38.597656 70.613281 37.960938 71.226562 37.960938 72.449219 L 38.125 73.699219 M 39.125 77.617188 C 39.125 79.117188 39.734375 79.867188 40.949219 79.867188 C 41.949219 79.867188 42.445312 79.339844 42.445312 78.285156 C 42.445312 76.839844 41.78125 76.117188 40.453125 76.117188 C 39.566406 76.117188 39.125 76.617188 39.125 77.617188 M 51.667969 77.785156 L 51.667969 77.699219 L 52.832031 75.617188 L 53.910156 76.949219 L 51.667969 77.785156 "/>
<path style=" stroke:none;fill-rule:evenodd;fill:rgb(20%,20%,20%);fill-opacity:1;" d="M 70.777344 80.199219 L 70.777344 80.117188 C 74.324219 74.003906 76.234375 70.085938 76.511719 68.363281 L 76.511719 68.195312 L 76.425781 68.28125 C 73.4375 70.558594 70.667969 72.167969 68.121094 73.113281 C 67.730469 73.003906 67.539062 72.585938 67.539062 71.863281 L 69.78125 67.363281 L 72.273438 63.777344 L 72.523438 63.609375 L 72.9375 63.695312 L 73.269531 63.859375 L 73.351562 63.695312 C 76.457031 63.195312 78.367188 62.695312 79.085938 62.195312 C 81.300781 62.195312 82.714844 62.664062 83.324219 63.609375 L 85.316406 67.445312 C 85.484375 67.613281 85.703125 68.75 85.980469 70.863281 L 85.980469 74.367188 L 85.566406 77.617188 L 80 80.117188 L 72.105469 80.199219 L 71.277344 80.867188 L 70.777344 80.199219 M 69.28125 71.195312 L 69.28125 71.363281 L 69.367188 71.363281 L 69.28125 71.195312 M 40.371094 67.863281 L 39.953125 67.113281 L 40.203125 66.863281 L 41.367188 66.945312 L 41.367188 67.863281 L 40.371094 67.863281 M 39.871094 71.699219 C 40.257812 72.03125 40.453125 72.363281 40.453125 72.699219 L 39.621094 73.699219 L 39.125 72.699219 L 39.871094 71.699219 M 41.117188 78.617188 L 40.617188 78.617188 L 40.203125 77.367188 L 40.867188 77.449219 L 41.367188 78.035156 C 41.367188 78.476562 41.285156 78.671875 41.117188 78.617188 M 82.742188 68.613281 C 81.246094 68.613281 80.5 69.335938 80.5 70.78125 C 80.5 72.003906 81.078125 72.613281 82.242188 72.613281 C 83.628906 72.613281 84.320312 71.863281 84.320312 70.363281 C 84.707031 69.195312 84.183594 68.613281 82.742188 68.613281 M 82.492188 69.945312 L 83.238281 69.945312 L 83.238281 71.363281 L 82.328125 71.363281 L 81.746094 71.113281 L 81.746094 70.613281 L 82.492188 69.945312 M 82.492188 64.945312 C 82.160156 63.386719 81.246094 62.609375 79.75 62.609375 C 79.195312 62.609375 78.78125 63.109375 78.503906 64.109375 L 78.253906 65.613281 L 78.253906 66.445312 C 78.421875 66.945312 78.976562 67.195312 79.917969 67.195312 C 81.632812 67.195312 82.492188 66.445312 82.492188 64.945312 M 79.75 64.195312 L 81.496094 64.945312 L 80.5 65.945312 L 79.335938 65.945312 L 79.335938 65.695312 L 79.75 64.195312 M 82.078125 75.449219 L 83.074219 74.867188 L 83.488281 74.949219 L 83.488281 76.367188 L 82.328125 76.117188 L 82.078125 75.449219 M 83.074219 73.863281 C 81.6875 73.863281 80.996094 74.449219 80.996094 75.617188 L 81.246094 76.617188 C 81.578125 77.285156 82.105469 77.617188 82.824219 77.617188 C 83.988281 77.617188 84.570312 76.976562 84.570312 75.699219 C 84.570312 74.476562 84.070312 73.863281 83.074219 73.863281 "/>
<path style=" stroke:none;fill-rule:evenodd;fill:rgb(100%,100%,100%);fill-opacity:1;" d="M 44.9375 67.863281 L 44.691406 71.613281 C 44.523438 71.78125 44.386719 71.863281 44.273438 71.863281 L 43.859375 71.863281 L 43.609375 70.113281 L 43.691406 68.53125 L 43.445312 67.945312 C 43.445312 66.835938 43.859375 65.972656 44.691406 65.363281 L 45.1875 66.113281 L 44.9375 67.613281 L 44.9375 67.863281 "/>
<path style=" stroke:none;fill-rule:evenodd;fill:rgb(80.000001%,80.000001%,80.000001%);fill-opacity:1;" d="M 44.191406 64.527344 L 44.9375 64.445312 L 46.683594 64.777344 L 50.089844 64.777344 L 50.089844 64.695312 L 50.257812 64.777344 L 50.839844 65.527344 L 49.675781 67.863281 C 48.84375 69.253906 48.402344 70.503906 48.34375 71.613281 L 47.679688 71.699219 L 47.097656 71.613281 L 46.933594 70.363281 C 45.714844 72.140625 44.523438 73.585938 43.359375 74.699219 C 42.917969 74.367188 42.695312 73.699219 42.695312 72.699219 C 42.695312 68.863281 43 66.304688 43.609375 65.027344 L 43.777344 64.777344 L 43.941406 64.445312 L 44.109375 64.609375 L 44.191406 64.527344 M 44.9375 67.863281 L 44.9375 67.613281 L 45.1875 66.113281 L 44.691406 65.363281 C 43.859375 65.972656 43.445312 66.835938 43.445312 67.945312 L 43.691406 68.53125 L 43.609375 70.113281 L 43.859375 71.863281 L 44.273438 71.863281 C 44.386719 71.863281 44.523438 71.78125 44.691406 71.613281 L 44.9375 67.863281 M 43.859375 72.363281 L 43.859375 72.613281 L 44.023438 72.53125 L 43.859375 72.363281 "/>
<path style=" stroke:none;fill-rule:evenodd;fill:rgb(0%,0%,20%);fill-opacity:1;" d="M 27.742188 73.03125 L 27.410156 66.777344 L 27.65625 61.109375 L 31.976562 60.359375 L 35.21875 61.109375 L 35.964844 61.609375 L 50.171875 61.859375 L 69.199219 60.859375 L 76.59375 60.191406 L 91.796875 60.441406 L 93.210938 60.777344 L 96.449219 60.941406 L 102.015625 60.191406 L 105.753906 59.359375 C 106.753906 59.359375 107.640625 59.804688 108.414062 60.691406 C 109.023438 61.414062 109.328125 62.054688 109.328125 62.609375 L 109.328125 66.113281 L 109.992188 68.363281 L 110.324219 68.695312 L 110.160156 69.195312 C 109.550781 70.03125 107.058594 70.445312 102.679688 70.445312 L 95.371094 69.78125 L 90.800781 68.945312 L 87.0625 70.945312 C 86.785156 64.054688 84.652344 60.609375 80.664062 60.609375 L 78.671875 61.359375 L 78.339844 61.359375 L 74.265625 62.359375 L 71.859375 63.109375 L 38.707031 63.359375 L 38.125 63.859375 C 36.796875 64.640625 36.132812 67.472656 36.132812 72.363281 L 36.132812 73.449219 L 35.882812 73.363281 L 29.652344 73.113281 L 28.238281 72.613281 L 27.742188 73.03125 M 108.746094 71.78125 L 109.160156 71.699219 C 109.660156 71.699219 110.160156 72.140625 110.65625 73.03125 L 110.742188 73.113281 L 110.824219 73.113281 L 112.652344 75.699219 L 112.320312 77.785156 L 112.816406 80.199219 C 112.816406 80.757812 112.625 81.035156 112.234375 81.035156 L 111.902344 80.285156 L 110.574219 76.699219 L 108.496094 72.449219 L 108.746094 71.78125 M 108.496094 81.953125 L 108.746094 81.867188 C 109.023438 81.867188 109.328125 82.257812 109.660156 83.035156 C 111.378906 83.980469 112.234375 84.785156 112.234375 85.453125 L 110.988281 87.621094 L 111.15625 88.453125 C 111.15625 89.121094 110.933594 89.457031 110.492188 89.457031 C 110.324219 89.457031 110.1875 89.371094 110.074219 89.203125 C 109.6875 88.703125 109.382812 87.59375 109.160156 85.871094 L 108.082031 82.453125 L 108.496094 81.953125 M 87.3125 87.953125 L 87.808594 87.703125 L 89.386719 89.203125 L 91.132812 89.957031 L 95.621094 91.707031 C 100.382812 94.820312 103.125 96.375 103.84375 96.375 L 104.011719 96.375 L 104.925781 98.875 L 103.761719 101.960938 L 103.261719 103.542969 C 102.929688 104.210938 102.515625 104.601562 102.015625 104.710938 L 101.101562 104.042969 C 100.992188 104.488281 100.796875 104.710938 100.519531 104.710938 C 100.132812 104.710938 99.855469 104.324219 99.691406 103.542969 L 99.359375 100.542969 C 98.695312 98.597656 97.695312 97.234375 96.367188 96.457031 L 91.382812 92.957031 C 88.558594 90.679688 87.144531 89.148438 87.144531 88.371094 L 87.3125 87.953125 M 63.714844 82.285156 L 63.550781 82.203125 L 63.300781 81.953125 L 63.464844 81.617188 L 64.046875 81.367188 L 64.546875 81.617188 L 80.332031 81.367188 L 81.328125 80.703125 L 83.488281 79.867188 L 85.234375 79.117188 L 85.816406 78.617188 C 86.09375 78.617188 86.3125 78.726562 86.480469 78.949219 L 86.730469 79.617188 L 86.8125 80.535156 C 86.8125 81.425781 85.980469 82.703125 84.320312 84.371094 C 82.382812 86.371094 80.332031 87.371094 78.171875 87.371094 C 76.789062 87.371094 73.933594 86.539062 69.613281 84.871094 C 66.402344 83.648438 64.4375 82.785156 63.714844 82.285156 M 95.121094 80.703125 L 95.621094 80.453125 L 96.199219 80.867188 L 100.855469 81.117188 L 103.511719 81.703125 L 103.511719 81.535156 L 104.09375 80.785156 L 104.34375 80.867188 L 104.757812 81.617188 C 104.757812 82.898438 103.957031 83.535156 102.347656 83.535156 C 97.417969 83.535156 94.953125 82.785156 94.953125 81.285156 L 95.121094 80.703125 M 96.199219 80.867188 L 96.199219 81.035156 L 96.199219 80.867188 "/>
<path style=" stroke:none;fill-rule:evenodd;fill:rgb(0%,20%,40.000001%);fill-opacity:1;" d="M 27.742188 73.03125 L 28.238281 72.613281 L 29.652344 73.113281 L 35.882812 73.363281 L 36.132812 73.449219 L 36.382812 73.78125 L 36.214844 74.367188 L 36.132812 74.367188 L 36.132812 76.78125 C 36.296875 78.839844 36.660156 80.144531 37.210938 80.703125 L 37.210938 81.117188 C 37.433594 81.339844 37.65625 81.453125 37.878906 81.453125 L 59.976562 81.617188 L 63.464844 81.617188 L 63.300781 81.953125 L 63.550781 82.203125 L 57.070312 82.203125 L 34.96875 82.117188 L 34.136719 81.703125 L 32.394531 81.117188 C 30.179688 80.839844 28.765625 80.199219 28.15625 79.199219 L 27.742188 74.367188 L 27.742188 73.53125 L 27.492188 73.363281 L 27.742188 73.03125 M 87.0625 70.945312 L 90.800781 68.945312 L 95.371094 69.78125 L 102.679688 70.445312 C 107.058594 70.445312 109.550781 70.03125 110.160156 69.195312 L 110.824219 71.03125 C 110.214844 70.53125 109.660156 70.28125 109.160156 70.28125 C 108.71875 70.28125 108.496094 70.503906 108.496094 70.945312 L 108.746094 71.78125 L 108.496094 72.449219 L 110.574219 76.699219 L 111.902344 80.285156 L 111.738281 82.453125 C 110.960938 81.839844 110.046875 81.535156 108.996094 81.535156 L 108.496094 81.953125 L 108.082031 82.453125 L 109.160156 85.871094 C 109.382812 87.59375 109.6875 88.703125 110.074219 89.203125 L 105.753906 96.542969 C 105.421875 95.875 105.035156 95.542969 104.59375 95.542969 L 101.601562 93.457031 C 99.441406 92.066406 97.945312 91.207031 97.113281 90.871094 L 87.644531 86.789062 C 87.199219 86.789062 86.980469 87.039062 86.980469 87.539062 L 87.3125 87.953125 L 87.144531 88.371094 C 87.144531 89.148438 88.558594 90.679688 91.382812 92.957031 L 96.367188 96.457031 C 97.695312 97.234375 98.695312 98.597656 99.359375 100.542969 L 99.691406 103.542969 L 94.539062 102.460938 C 91.9375 101.292969 89.527344 100.515625 87.3125 100.125 C 81.605469 99.238281 77.257812 97.597656 74.265625 95.207031 L 68.453125 88.121094 C 66.179688 85.230469 64.269531 83.453125 62.71875 82.785156 L 63.714844 82.285156 C 64.4375 82.785156 66.402344 83.648438 69.613281 84.871094 C 73.933594 86.539062 76.789062 87.371094 78.171875 87.371094 C 80.332031 87.371094 82.382812 86.371094 84.320312 84.371094 C 85.980469 82.703125 86.8125 81.425781 86.8125 80.535156 L 86.730469 79.617188 L 86.480469 78.949219 L 86.648438 78.535156 L 87.0625 77.867188 L 86.894531 77.285156 L 87.0625 74.367188 L 87.144531 71.613281 L 87.0625 71.613281 L 86.980469 70.945312 L 87.0625 70.945312 M 104.34375 80.867188 C 103.898438 80.089844 101.769531 79.699219 97.945312 79.699219 C 95.839844 79.699219 94.789062 79.921875 94.789062 80.367188 L 95.121094 80.703125 L 94.953125 81.285156 C 94.953125 82.785156 97.417969 83.535156 102.347656 83.535156 C 103.957031 83.535156 104.757812 82.898438 104.757812 81.617188 L 104.34375 80.867188 "/>
</g>
</svg>
