<?xml version="1.0" encoding="UTF-8"?>
<svg xmlns="http://www.w3.org/2000/svg" xmlns:xlink="http://www.w3.org/1999/xlink" width="160px" height="194px" viewBox="0 0 160 194" version="1.1">
<g id="surface1">
<path style=" stroke:none;fill-rule:evenodd;fill:rgb(0%,0%,0%);fill-opacity:1;" d="M 68.121094 82.203125 L 69.367188 82.867188 L 69.945312 82.617188 L 70.113281 82.117188 L 85.066406 81.285156 C 88.058594 80.507812 96.117188 76.394531 109.246094 68.945312 L 108.664062 67.027344 C 108 67.527344 106.863281 68.113281 105.257812 68.78125 C 102.488281 70.003906 100.246094 70.613281 98.527344 70.613281 L 97.449219 70.363281 L 97.363281 70.03125 C 97.363281 69.753906 101.160156 68.222656 108.746094 65.445312 L 108.664062 65.195312 L 108.082031 65.109375 L 107.417969 63.277344 L 105.589844 63.945312 C 103.984375 64.554688 102.902344 64.859375 102.347656 64.859375 C 101.351562 64.859375 100.769531 64.609375 100.605469 64.109375 C 103.261719 63.722656 105.421875 63.167969 107.085938 62.445312 L 106.917969 62.109375 L 106.753906 61.527344 L 106.503906 61.109375 C 106.394531 60.777344 105.753906 60.609375 104.59375 60.609375 L 76.761719 60.191406 L 72.441406 60.609375 L 71.941406 60.359375 L 71.527344 60.691406 L 69.367188 60.859375 L 50.339844 61.859375 L 36.132812 61.609375 L 35.382812 61.109375 L 32.144531 60.359375 L 27.824219 61.109375 L 27.574219 66.777344 L 27.90625 73.03125 L 27.65625 73.363281 L 27.90625 73.53125 L 27.90625 74.367188 L 28.324219 79.199219 C 28.933594 80.199219 30.34375 80.839844 32.558594 81.117188 L 34.304688 81.703125 L 35.136719 82.117188 L 57.234375 82.203125 L 68.121094 82.203125 M 71.191406 63.195312 L 72.023438 63.109375 L 74.433594 62.359375 L 78.503906 61.359375 L 78.835938 61.359375 L 80.832031 60.609375 C 84.820312 60.609375 86.953125 64.054688 87.226562 70.945312 L 87.144531 70.945312 L 87.226562 71.613281 L 87.3125 71.613281 L 87.226562 74.367188 L 87.0625 77.285156 L 87.226562 77.867188 L 86.8125 78.535156 C 86.589844 79.144531 86.3125 79.535156 85.980469 79.699219 C 85.703125 79.644531 85.539062 79.449219 85.484375 79.117188 L 83.65625 79.867188 L 81.496094 80.703125 L 80.5 81.367188 L 69.199219 81.535156 L 68.285156 81.035156 L 67.621094 81.535156 L 60.144531 81.617188 L 38.042969 81.453125 C 37.820312 81.453125 37.601562 81.339844 37.378906 81.117188 L 37.378906 80.703125 C 36.824219 80.144531 36.464844 78.839844 36.296875 76.78125 L 36.296875 74.367188 L 36.382812 74.367188 L 36.546875 73.78125 C 36.546875 73.558594 36.464844 73.449219 36.296875 73.449219 L 36.296875 72.363281 C 36.296875 67.472656 36.964844 64.640625 38.292969 63.859375 L 38.875 63.359375 L 70.445312 63.195312 L 70.527344 63.195312 L 70.859375 63.277344 L 71.191406 63.195312 M 73.269531 59.109375 L 104.839844 59.441406 L 107.335938 59.859375 L 107.667969 60.277344 L 107.75 60.277344 L 107.832031 60.527344 L 108.082031 60.859375 L 108 61.027344 L 110.324219 67.363281 L 110.324219 70.613281 L 109.828125 70.863281 L 109.578125 69.863281 C 108.414062 70.863281 104.34375 73.363281 97.363281 77.367188 C 93.042969 79.644531 90.550781 80.839844 89.886719 80.953125 L 85.484375 82.367188 L 81.246094 83.117188 L 79.417969 83.371094 L 57.152344 83.453125 L 34.804688 83.117188 L 33.640625 82.867188 L 32.394531 82.367188 C 30.675781 81.980469 29.320312 81.480469 28.324219 80.867188 C 27.324219 80.257812 26.828125 78.921875 26.828125 76.867188 L 26.578125 68.863281 L 26.660156 66.527344 L 26.410156 63.609375 L 26.410156 61.109375 C 26.855469 59.832031 28.15625 59.191406 30.316406 59.191406 L 34.554688 59.941406 L 50.503906 60.691406 L 73.105469 59.191406 L 73.269531 59.109375 M 102.433594 52.1875 L 102.101562 52.273438 L 102.265625 52.1875 L 102.433594 52.1875 M 64.546875 64.445312 L 50.421875 64.777344 L 50.257812 64.695312 L 50.257812 64.777344 L 46.851562 64.777344 L 45.105469 64.445312 L 44.359375 64.527344 L 44.273438 64.445312 L 44.273438 64.609375 L 44.109375 64.445312 L 43.941406 64.777344 L 39.371094 64.695312 L 39.039062 64.945312 C 38.375 65.667969 37.878906 66.75 37.542969 68.195312 L 37.542969 72.363281 C 37.542969 75.976562 37.820312 78.507812 38.375 79.949219 L 38.542969 80.367188 L 66.207031 80.199219 L 66.207031 80.453125 L 66.871094 80.617188 L 67.453125 80.199219 L 70.945312 80.199219 L 71.441406 80.867188 L 72.273438 80.199219 L 80.167969 80.117188 L 85.734375 77.617188 L 86.148438 74.367188 L 86.148438 70.863281 L 85.484375 67.445312 L 83.488281 63.609375 C 82.878906 62.664062 81.46875 62.195312 79.253906 62.195312 C 78.53125 62.695312 76.621094 63.195312 73.519531 63.695312 L 73.105469 63.695312 L 72.6875 63.609375 L 72.441406 63.777344 L 65.460938 64.359375 L 64.796875 64.195312 L 64.546875 64.445312 M 63.964844 76.699219 L 65.875 78.285156 C 65.875 78.617188 65.738281 78.785156 65.460938 78.785156 L 63.132812 76.949219 L 62.96875 76.867188 L 60.558594 75.03125 L 60.058594 75.367188 L 59.0625 75.867188 L 58.980469 75.867188 L 58.148438 76.199219 L 54.992188 77.449219 L 53.746094 78.867188 C 53.304688 78.867188 53.082031 78.671875 53.082031 78.285156 L 53.332031 77.949219 L 49.011719 78.785156 L 46.851562 78.617188 L 46.765625 78.617188 L 46.183594 78.449219 L 56.070312 74.113281 L 57.816406 72.113281 C 54.714844 72.113281 52.609375 71.476562 51.503906 70.195312 C 51.503906 69.863281 51.75 69.695312 52.25 69.695312 L 57.652344 71.195312 L 57.652344 69.78125 L 58.480469 65.863281 L 59.0625 67.363281 L 58.648438 69.863281 L 58.980469 71.53125 L 58.980469 71.613281 L 59.0625 71.613281 L 59.0625 71.699219 L 65.542969 68.78125 L 65.875 69.445312 C 65.875 69.667969 65.238281 70.085938 63.964844 70.695312 C 65.40625 70.585938 66.320312 70.226562 66.707031 69.613281 L 69.28125 68.53125 L 75.179688 66.195312 L 75.597656 65.863281 L 75.847656 65.695312 L 76.011719 66.195312 L 76.011719 66.363281 C 75.902344 67.085938 75.070312 68 73.519531 69.113281 L 71.691406 70.195312 L 67.785156 72.363281 L 66.871094 72.699219 L 66.625 72.699219 L 65.710938 73.113281 L 65.625 73.113281 L 62.136719 74.53125 L 61.972656 74.617188 L 61.640625 74.78125 L 62.71875 75.699219 L 63.964844 76.699219 M 66.457031 70.445312 L 65.128906 71.03125 L 64.132812 71.449219 L 61.886719 72.363281 L 59.894531 73.28125 L 59.5625 73.363281 L 59.144531 73.613281 L 58.898438 73.699219 L 57.566406 74.199219 L 55.324219 75.117188 L 46.851562 78.617188 C 48.734375 78.507812 51.144531 77.921875 54.078125 76.867188 L 56.070312 76.117188 L 56.820312 75.78125 L 56.902344 75.78125 L 59.644531 74.617188 L 59.894531 74.449219 L 60.144531 74.367188 L 60.808594 74.113281 L 62.304688 73.449219 L 64.710938 72.53125 L 66.457031 71.949219 L 67.039062 71.613281 L 67.953125 71.195312 L 73.6875 67.363281 L 68.785156 69.445312 L 66.457031 70.445312 M 59.144531 72.699219 L 59.5625 72.53125 L 59.5625 72.699219 L 61.058594 72.03125 L 59.644531 72.28125 L 59.0625 72.199219 L 58.898438 72.449219 L 59.144531 72.699219 M 60.058594 76.949219 L 59.976562 76.867188 L 60.058594 76.949219 M 40.535156 65.613281 L 40.617188 65.613281 C 42.226562 65.332031 42.890625 65.972656 42.613281 67.527344 C 42.613281 68.585938 42.085938 69.113281 41.035156 69.113281 C 39.980469 69.113281 39.316406 68.808594 39.039062 68.195312 L 39.039062 67.195312 C 39.039062 66.027344 39.539062 65.5 40.535156 65.613281 M 40.121094 67.113281 L 40.535156 67.863281 L 41.53125 67.863281 L 41.53125 66.945312 L 40.371094 66.863281 L 40.121094 67.113281 M 38.125 72.449219 C 38.125 71.226562 38.761719 70.613281 40.039062 70.613281 C 41.421875 70.613281 42.003906 71.308594 41.78125 72.699219 C 41.78125 74.144531 41.117188 74.867188 39.789062 74.867188 C 39.066406 74.867188 38.570312 74.476562 38.292969 73.699219 L 38.125 72.449219 M 40.617188 72.699219 C 40.617188 72.363281 40.425781 72.03125 40.039062 71.699219 L 39.289062 72.699219 L 39.789062 73.699219 L 40.617188 72.699219 M 40.617188 76.117188 C 41.949219 76.117188 42.613281 76.839844 42.613281 78.285156 C 42.613281 79.339844 42.113281 79.867188 41.117188 79.867188 C 39.898438 79.867188 39.289062 79.117188 39.289062 77.617188 C 39.289062 76.617188 39.734375 76.117188 40.617188 76.117188 M 41.285156 78.617188 C 41.449219 78.671875 41.53125 78.476562 41.53125 78.035156 L 41.035156 77.449219 L 40.371094 77.367188 L 40.785156 78.617188 L 41.285156 78.617188 M 82.660156 64.945312 C 82.660156 66.445312 81.800781 67.195312 80.082031 67.195312 C 79.140625 67.195312 78.585938 66.945312 78.421875 66.445312 L 78.421875 65.613281 L 78.671875 64.109375 C 78.949219 63.109375 79.363281 62.609375 79.917969 62.609375 C 81.414062 62.609375 82.328125 63.386719 82.660156 64.945312 M 79.5 65.695312 L 79.5 65.945312 L 80.664062 65.945312 L 81.660156 64.945312 L 79.917969 64.195312 L 79.5 65.695312 M 82.90625 68.613281 C 84.347656 68.613281 84.875 69.195312 84.488281 70.363281 C 84.488281 71.863281 83.792969 72.613281 82.410156 72.613281 C 81.246094 72.613281 80.664062 72.003906 80.664062 70.78125 C 80.664062 69.335938 81.414062 68.613281 82.90625 68.613281 M 81.910156 70.613281 L 81.910156 71.113281 L 82.492188 71.363281 L 83.40625 71.363281 L 83.40625 69.945312 L 82.660156 69.945312 L 81.910156 70.613281 M 82.242188 75.449219 L 82.492188 76.117188 L 83.65625 76.367188 L 83.65625 74.949219 L 83.238281 74.867188 L 82.242188 75.449219 M 83.238281 73.863281 C 84.238281 73.863281 84.734375 74.476562 84.734375 75.699219 C 84.734375 76.976562 84.152344 77.617188 82.992188 77.617188 C 82.269531 77.617188 81.746094 77.285156 81.414062 76.617188 L 81.164062 75.617188 C 81.164062 74.449219 81.855469 73.863281 83.238281 73.863281 "/>
<path style=" stroke:none;fill-rule:evenodd;fill:rgb(7.450981%,10.588235%,15.686275%);fill-opacity:1;" d="M 72.441406 60.609375 L 76.761719 60.191406 L 104.59375 60.609375 C 105.753906 60.609375 106.394531 60.777344 106.503906 61.109375 L 106.753906 61.527344 L 106.917969 62.109375 L 107.085938 62.445312 C 105.421875 63.167969 103.261719 63.722656 100.605469 64.109375 C 100.769531 64.609375 101.351562 64.859375 102.347656 64.859375 C 102.902344 64.859375 103.984375 64.554688 105.589844 63.945312 L 107.417969 63.277344 L 108.082031 65.109375 L 108.664062 65.195312 L 108.746094 65.445312 C 101.160156 68.222656 97.363281 69.753906 97.363281 70.03125 L 97.449219 70.363281 L 98.527344 70.613281 C 100.246094 70.613281 102.488281 70.003906 105.257812 68.78125 C 106.863281 68.113281 108 67.527344 108.664062 67.027344 L 109.246094 68.945312 C 96.117188 76.394531 88.058594 80.507812 85.066406 81.285156 L 70.113281 82.117188 L 69.945312 82.617188 L 69.367188 82.867188 L 68.121094 82.203125 L 67.453125 81.785156 L 67.621094 81.535156 L 68.285156 81.035156 L 69.199219 81.535156 L 80.5 81.367188 L 81.496094 80.703125 L 83.65625 79.867188 L 85.484375 79.117188 C 85.539062 79.449219 85.703125 79.644531 85.980469 79.699219 C 86.3125 79.535156 86.589844 79.144531 86.8125 78.535156 L 87.226562 77.867188 L 87.0625 77.285156 L 87.226562 74.367188 L 87.3125 71.613281 L 87.226562 71.613281 L 87.144531 70.945312 L 87.226562 70.945312 C 86.953125 64.054688 84.820312 60.609375 80.832031 60.609375 L 78.835938 61.359375 L 78.503906 61.359375 L 74.433594 62.359375 L 72.023438 63.109375 L 71.191406 63.195312 L 72.023438 62.445312 C 72.578125 61.832031 72.855469 61.359375 72.855469 61.027344 C 72.855469 60.582031 72.800781 60.5 72.6875 60.777344 L 72.441406 60.609375 M 70.527344 63.195312 L 70.445312 63.195312 L 70.363281 63.109375 L 70.527344 63.195312 M 108.082031 65.109375 L 107.914062 65.109375 L 108.082031 65.109375 "/>
<path style=" stroke:none;fill-rule:evenodd;fill:rgb(16.078432%,19.215687%,26.666668%);fill-opacity:1;" d="M 68.121094 82.203125 L 57.234375 82.203125 L 35.136719 82.117188 L 34.304688 81.703125 L 32.558594 81.117188 C 30.34375 80.839844 28.933594 80.199219 28.324219 79.199219 L 27.90625 74.367188 L 27.90625 73.53125 L 27.65625 73.363281 L 27.90625 73.03125 L 27.574219 66.777344 L 27.824219 61.109375 L 32.144531 60.359375 L 35.382812 61.109375 L 36.132812 61.609375 L 50.339844 61.859375 L 69.367188 60.859375 L 71.527344 60.691406 L 71.941406 60.359375 L 72.441406 60.609375 L 72.6875 60.777344 C 72.800781 60.5 72.855469 60.582031 72.855469 61.027344 C 72.855469 61.359375 72.578125 61.832031 72.023438 62.445312 L 71.191406 63.195312 L 70.859375 63.277344 L 70.527344 63.195312 L 70.363281 63.109375 L 70.445312 63.195312 L 38.875 63.359375 L 38.292969 63.859375 C 36.964844 64.640625 36.296875 67.472656 36.296875 72.363281 L 36.296875 73.449219 C 36.464844 73.449219 36.546875 73.558594 36.546875 73.78125 L 36.382812 74.367188 L 36.296875 74.367188 L 36.296875 76.78125 C 36.464844 78.839844 36.824219 80.144531 37.378906 80.703125 L 37.378906 81.117188 C 37.601562 81.339844 37.820312 81.453125 38.042969 81.453125 L 60.144531 81.617188 L 67.621094 81.535156 L 67.453125 81.785156 L 68.121094 82.203125 "/>
<path style=" stroke:none;fill-rule:evenodd;fill:rgb(60.000002%,60.000002%,60.000002%);fill-opacity:1;" d="M 64.546875 64.445312 L 63.382812 65.695312 L 63.550781 66.027344 L 62.550781 67.277344 L 61.640625 68.027344 L 60.890625 69.28125 L 61.058594 69.363281 L 58.980469 71.53125 L 58.648438 69.863281 L 59.0625 67.363281 L 58.480469 65.863281 L 57.652344 69.78125 L 57.652344 71.195312 L 52.25 69.695312 C 51.75 69.695312 51.503906 69.863281 51.503906 70.195312 C 52.609375 71.476562 54.714844 72.113281 57.816406 72.113281 L 56.070312 74.113281 L 46.183594 78.449219 L 46.765625 78.617188 L 46.851562 78.617188 L 49.011719 78.785156 L 53.332031 77.949219 L 53.082031 78.285156 C 53.082031 78.671875 53.304688 78.867188 53.746094 78.867188 L 54.992188 77.449219 L 58.148438 76.199219 L 58.980469 75.867188 L 59.0625 75.867188 L 60.058594 75.367188 L 60.558594 75.03125 L 62.96875 76.867188 L 63.132812 76.949219 L 65.460938 78.785156 C 65.738281 78.785156 65.875 78.617188 65.875 78.285156 L 63.964844 76.699219 L 64.046875 76.53125 C 64.878906 75.699219 65.460938 75.808594 65.792969 76.867188 L 65.792969 77.617188 L 67.539062 77.867188 L 67.453125 78.117188 C 67.453125 78.226562 67.039062 78.839844 66.207031 79.949219 L 66.207031 80.199219 L 38.542969 80.367188 L 38.375 79.949219 C 37.820312 78.507812 37.542969 75.976562 37.542969 72.363281 L 37.542969 68.195312 C 37.878906 66.75 38.375 65.667969 39.039062 64.945312 L 39.371094 64.695312 L 43.941406 64.777344 L 43.777344 65.027344 C 43.167969 66.304688 42.863281 68.863281 42.863281 72.699219 C 42.863281 73.699219 43.082031 74.367188 43.527344 74.699219 C 44.691406 73.585938 45.878906 72.140625 47.097656 70.363281 L 47.265625 71.613281 L 47.847656 71.699219 L 48.511719 71.613281 C 48.566406 70.503906 49.011719 69.253906 49.839844 67.863281 L 51.003906 65.527344 L 50.421875 64.777344 L 64.546875 64.445312 M 62.71875 75.699219 L 61.640625 74.78125 L 61.972656 74.617188 L 62.71875 74.449219 L 62.71875 75.699219 M 60.058594 76.949219 L 59.976562 76.867188 L 60.058594 76.949219 M 44.273438 64.609375 L 44.273438 64.445312 L 44.359375 64.527344 L 44.273438 64.609375 M 40.535156 65.613281 C 39.539062 65.5 39.039062 66.027344 39.039062 67.195312 L 39.039062 68.195312 C 39.316406 68.808594 39.980469 69.113281 41.035156 69.113281 C 42.085938 69.113281 42.613281 68.585938 42.613281 67.527344 C 42.890625 65.972656 42.226562 65.332031 40.617188 65.613281 L 40.535156 65.613281 M 44.191406 72.53125 L 44.023438 72.613281 L 44.023438 72.363281 L 44.191406 72.53125 M 38.125 72.449219 L 38.292969 73.699219 C 38.570312 74.476562 39.066406 74.867188 39.789062 74.867188 C 41.117188 74.867188 41.78125 74.144531 41.78125 72.699219 C 42.003906 71.308594 41.421875 70.613281 40.039062 70.613281 C 38.761719 70.613281 38.125 71.226562 38.125 72.449219 M 40.617188 76.117188 C 39.734375 76.117188 39.289062 76.617188 39.289062 77.617188 C 39.289062 79.117188 39.898438 79.867188 41.117188 79.867188 C 42.113281 79.867188 42.613281 79.339844 42.613281 78.285156 C 42.613281 76.839844 41.949219 76.117188 40.617188 76.117188 "/>
<path style=" stroke:none;fill-rule:evenodd;fill:rgb(40.000001%,40.000001%,40.000001%);fill-opacity:1;" d="M 58.980469 71.53125 L 61.058594 69.363281 L 60.890625 69.28125 L 61.640625 68.027344 L 62.550781 67.277344 L 63.550781 66.027344 L 63.382812 65.695312 L 64.546875 64.445312 L 64.796875 64.195312 L 65.460938 64.359375 L 72.441406 63.777344 L 69.945312 67.363281 L 69.28125 68.53125 L 66.707031 69.613281 C 66.320312 70.226562 65.40625 70.585938 63.964844 70.695312 C 65.238281 70.085938 65.875 69.667969 65.875 69.445312 L 65.542969 68.78125 L 59.0625 71.699219 L 59.0625 71.613281 L 58.980469 71.613281 L 58.980469 71.53125 M 66.207031 80.199219 L 66.207031 79.949219 C 67.039062 78.839844 67.453125 78.226562 67.453125 78.117188 L 67.539062 77.867188 L 65.792969 77.617188 L 65.792969 76.867188 C 65.460938 75.808594 64.878906 75.699219 64.046875 76.53125 L 63.964844 76.699219 L 62.71875 75.699219 L 62.71875 74.449219 L 61.972656 74.617188 L 62.136719 74.53125 L 65.625 73.113281 L 65.710938 73.113281 L 66.625 72.699219 L 66.871094 72.699219 L 67.785156 72.363281 C 67.84375 72.808594 68.007812 73.058594 68.285156 73.113281 C 70.832031 72.167969 73.601562 70.558594 76.59375 68.28125 L 76.675781 68.195312 L 76.675781 68.363281 C 76.398438 70.085938 74.488281 74.003906 70.945312 80.117188 L 70.945312 80.199219 L 67.453125 80.199219 L 66.871094 80.617188 L 66.207031 80.453125 L 66.207031 80.199219 M 59.144531 72.699219 L 58.898438 72.449219 L 59.0625 72.199219 L 59.644531 72.28125 L 61.058594 72.03125 L 59.5625 72.699219 L 59.5625 72.53125 L 59.144531 72.699219 M 73.519531 63.695312 L 73.4375 63.859375 L 73.105469 63.695312 L 73.519531 63.695312 "/>
<path style=" stroke:none;fill-rule:evenodd;fill:rgb(20%,20%,20%);fill-opacity:1;" d="M 69.28125 68.53125 L 69.945312 67.363281 L 72.441406 63.777344 L 72.6875 63.609375 L 73.105469 63.695312 L 73.4375 63.859375 L 73.519531 63.695312 C 76.621094 63.195312 78.53125 62.695312 79.253906 62.195312 C 81.46875 62.195312 82.878906 62.664062 83.488281 63.609375 L 85.484375 67.445312 L 86.148438 70.863281 L 86.148438 74.367188 L 85.734375 77.617188 L 80.167969 80.117188 L 72.273438 80.199219 L 71.441406 80.867188 L 70.945312 80.199219 L 70.945312 80.117188 C 74.488281 74.003906 76.398438 70.085938 76.675781 68.363281 L 76.675781 68.195312 L 76.59375 68.28125 C 73.601562 70.558594 70.832031 72.167969 68.285156 73.113281 C 68.007812 73.058594 67.84375 72.808594 67.785156 72.363281 L 71.691406 70.195312 L 73.519531 69.113281 C 75.070312 68 75.902344 67.085938 76.011719 66.363281 L 76.011719 66.195312 L 75.847656 65.695312 L 75.597656 65.863281 L 75.179688 66.195312 L 69.28125 68.53125 M 66.457031 70.445312 L 68.785156 69.445312 L 73.6875 67.363281 L 67.953125 71.195312 L 67.039062 71.613281 L 66.457031 71.949219 L 64.710938 72.53125 L 62.304688 73.449219 L 60.808594 74.113281 L 60.144531 74.367188 L 59.894531 74.449219 L 59.644531 74.617188 L 56.902344 75.78125 L 56.820312 75.78125 L 56.070312 76.117188 L 54.078125 76.867188 C 51.144531 77.921875 48.734375 78.507812 46.851562 78.617188 L 55.324219 75.117188 L 57.566406 74.199219 L 58.898438 73.699219 L 59.144531 73.613281 L 59.5625 73.363281 L 59.894531 73.28125 L 61.886719 72.363281 L 64.132812 71.449219 L 65.128906 71.03125 L 66.457031 70.445312 M 40.121094 67.113281 L 40.371094 66.863281 L 41.53125 66.945312 L 41.53125 67.863281 L 40.535156 67.863281 L 40.121094 67.113281 M 40.617188 72.699219 L 39.789062 73.699219 L 39.289062 72.699219 L 40.039062 71.699219 C 40.425781 72.03125 40.617188 72.363281 40.617188 72.699219 M 81.910156 70.613281 L 82.660156 69.945312 L 83.40625 69.945312 L 83.40625 71.363281 L 82.492188 71.363281 L 81.910156 71.113281 L 81.910156 70.613281 M 82.90625 68.613281 C 81.414062 68.613281 80.664062 69.335938 80.664062 70.78125 C 80.664062 72.003906 81.246094 72.613281 82.410156 72.613281 C 83.792969 72.613281 84.488281 71.863281 84.488281 70.363281 C 84.875 69.195312 84.347656 68.613281 82.90625 68.613281 M 79.5 65.695312 L 79.917969 64.195312 L 81.660156 64.945312 L 80.664062 65.945312 L 79.5 65.945312 L 79.5 65.695312 M 82.660156 64.945312 C 82.328125 63.386719 81.414062 62.609375 79.917969 62.609375 C 79.363281 62.609375 78.949219 63.109375 78.671875 64.109375 L 78.421875 65.613281 L 78.421875 66.445312 C 78.585938 66.945312 79.140625 67.195312 80.082031 67.195312 C 81.800781 67.195312 82.660156 66.445312 82.660156 64.945312 M 41.285156 78.617188 L 40.785156 78.617188 L 40.371094 77.367188 L 41.035156 77.449219 L 41.53125 78.035156 C 41.53125 78.476562 41.449219 78.671875 41.285156 78.617188 M 83.238281 73.863281 C 81.855469 73.863281 81.164062 74.449219 81.164062 75.617188 L 81.414062 76.617188 C 81.746094 77.285156 82.269531 77.617188 82.992188 77.617188 C 84.152344 77.617188 84.734375 76.976562 84.734375 75.699219 C 84.734375 74.476562 84.238281 73.863281 83.238281 73.863281 M 82.242188 75.449219 L 83.238281 74.867188 L 83.65625 74.949219 L 83.65625 76.367188 L 82.492188 76.117188 L 82.242188 75.449219 "/>
<path style=" stroke:none;fill-rule:evenodd;fill:rgb(80.000001%,80.000001%,80.000001%);fill-opacity:1;" d="M 50.421875 64.777344 L 51.003906 65.527344 L 49.839844 67.863281 C 49.011719 69.253906 48.566406 70.503906 48.511719 71.613281 L 47.847656 71.699219 L 47.265625 71.613281 L 47.097656 70.363281 C 45.878906 72.140625 44.691406 73.585938 43.527344 74.699219 C 43.082031 74.367188 42.863281 73.699219 42.863281 72.699219 C 42.863281 68.863281 43.167969 66.304688 43.777344 65.027344 L 43.941406 64.777344 L 44.109375 64.445312 L 44.273438 64.609375 L 44.359375 64.527344 L 45.105469 64.445312 L 46.851562 64.777344 L 50.257812 64.777344 L 50.257812 64.695312 L 50.421875 64.777344 M 43.609375 67.945312 L 43.859375 68.53125 L 43.777344 70.113281 L 44.023438 71.863281 L 44.441406 71.863281 L 44.855469 71.613281 L 45.105469 67.863281 L 45.105469 67.613281 L 45.355469 66.113281 L 44.855469 65.363281 C 44.023438 65.972656 43.609375 66.835938 43.609375 67.945312 M 44.191406 72.53125 L 44.023438 72.363281 L 44.023438 72.613281 L 44.191406 72.53125 "/>
<path style=" stroke:none;fill-rule:evenodd;fill:rgb(100%,100%,100%);fill-opacity:1;" d="M 43.609375 67.945312 C 43.609375 66.835938 44.023438 65.972656 44.855469 65.363281 L 45.355469 66.113281 L 45.105469 67.613281 L 45.105469 67.863281 L 44.855469 71.613281 L 44.441406 71.863281 L 44.023438 71.863281 L 43.777344 70.113281 L 43.859375 68.53125 L 43.609375 67.945312 "/>
</g>
</svg>
