<?xml version="1.0" encoding="UTF-8"?>
<svg xmlns="http://www.w3.org/2000/svg" xmlns:xlink="http://www.w3.org/1999/xlink" width="160px" height="194px" viewBox="0 0 160 194" version="1.1">
<g id="surface1">
<path style=" stroke:none;fill-rule:evenodd;fill:rgb(0%,0%,0%);fill-opacity:1;" d="M 102.265625 52.1875 L 101.933594 52.273438 L 102.101562 52.1875 L 102.265625 52.1875 M 73.105469 59.109375 L 104.675781 59.441406 L 107.167969 59.859375 L 107.5 60.277344 L 107.582031 60.277344 L 107.667969 60.527344 L 107.914062 60.859375 L 107.832031 61.027344 L 110.160156 67.363281 L 110.160156 70.613281 L 109.660156 70.863281 L 109.410156 69.863281 C 108.25 70.863281 104.175781 73.363281 97.199219 77.367188 C 92.878906 79.644531 90.386719 80.839844 89.71875 80.953125 L 85.316406 82.367188 L 81.078125 83.117188 L 79.253906 83.371094 L 56.984375 83.453125 L 34.636719 83.117188 L 33.472656 82.867188 L 32.226562 82.367188 L 28.15625 80.867188 C 27.160156 80.257812 26.660156 78.921875 26.660156 76.867188 L 26.410156 68.863281 L 26.496094 66.527344 L 26.246094 63.609375 L 26.246094 61.109375 C 26.6875 59.832031 27.992188 59.191406 30.152344 59.191406 L 34.386719 59.941406 L 50.339844 60.691406 L 72.9375 59.191406 L 73.105469 59.109375 M 72.273438 63.777344 L 65.292969 64.359375 L 64.628906 64.195312 L 64.378906 64.445312 L 50.257812 64.777344 L 50.089844 64.695312 L 50.089844 64.777344 L 46.683594 64.777344 L 44.9375 64.445312 L 44.191406 64.527344 L 44.109375 64.445312 L 44.109375 64.609375 L 43.941406 64.445312 L 43.777344 64.777344 L 39.207031 64.695312 L 38.875 64.945312 C 38.210938 65.667969 37.710938 66.75 37.378906 68.195312 L 37.378906 72.363281 C 37.378906 75.976562 37.65625 78.507812 38.210938 79.949219 L 38.375 80.367188 L 66.042969 80.199219 L 66.042969 80.453125 L 66.707031 80.617188 L 67.289062 80.199219 L 70.777344 80.199219 L 71.277344 80.867188 L 72.105469 80.199219 L 80 80.117188 L 85.566406 77.617188 L 85.980469 74.367188 L 85.980469 70.863281 C 85.703125 68.75 85.484375 67.613281 85.316406 67.445312 L 83.324219 63.609375 C 82.714844 62.664062 81.300781 62.195312 79.085938 62.195312 C 78.367188 62.695312 76.457031 63.195312 73.351562 63.695312 L 72.9375 63.695312 L 72.523438 63.609375 L 72.273438 63.777344 M 60.226562 70.03125 L 60.308594 70.195312 C 60.695312 71.140625 60.890625 71.890625 60.890625 72.449219 C 60.890625 73.449219 60.78125 73.949219 60.558594 73.949219 L 60.058594 73.449219 L 59.976562 73.449219 L 59.144531 72.03125 L 58.230469 70.53125 L 58.148438 70.53125 L 58.148438 73.863281 L 58.066406 75.53125 L 57.898438 76.78125 C 57.898438 77.449219 57.402344 77.785156 56.40625 77.785156 C 55.351562 77.785156 54.824219 77.199219 54.824219 76.03125 L 54.824219 75.53125 C 54.9375 75.199219 55.296875 75.03125 55.90625 75.03125 L 57.320312 75.367188 L 56.984375 71.613281 L 57.402344 67.113281 C 57.898438 67.113281 58.371094 67.472656 58.8125 68.195312 C 59.257812 68.472656 59.726562 69.085938 60.226562 70.03125 M 40.371094 65.613281 L 40.453125 65.613281 C 42.058594 65.332031 42.722656 65.972656 42.445312 67.527344 C 42.445312 68.585938 41.921875 69.113281 40.867188 69.113281 C 39.816406 69.113281 39.152344 68.808594 38.875 68.195312 L 38.875 67.195312 C 38.875 66.027344 39.371094 65.5 40.371094 65.613281 M 40.203125 66.863281 L 39.953125 67.113281 L 40.371094 67.863281 L 41.367188 67.863281 L 41.367188 66.945312 L 40.203125 66.863281 M 39.871094 71.699219 L 39.125 72.699219 L 39.621094 73.699219 L 40.453125 72.699219 C 40.453125 72.363281 40.257812 72.03125 39.871094 71.699219 M 37.960938 72.449219 C 37.960938 71.226562 38.597656 70.613281 39.871094 70.613281 C 41.253906 70.613281 41.835938 71.308594 41.617188 72.699219 C 41.617188 74.144531 40.949219 74.867188 39.621094 74.867188 C 38.902344 74.867188 38.402344 74.476562 38.125 73.699219 L 37.960938 72.449219 M 39.125 77.617188 C 39.125 76.617188 39.566406 76.117188 40.453125 76.117188 C 41.78125 76.117188 42.445312 76.839844 42.445312 78.285156 C 42.445312 79.339844 41.949219 79.867188 40.949219 79.867188 C 39.734375 79.867188 39.125 79.117188 39.125 77.617188 M 40.617188 78.617188 L 41.117188 78.617188 C 41.285156 78.671875 41.367188 78.476562 41.367188 78.035156 L 40.867188 77.449219 L 40.203125 77.367188 L 40.617188 78.617188 M 59.976562 81.617188 L 37.878906 81.453125 C 37.65625 81.453125 37.433594 81.339844 37.210938 81.117188 L 37.210938 80.703125 C 36.660156 80.144531 36.296875 78.839844 36.132812 76.78125 L 36.132812 74.367188 L 36.214844 74.367188 L 36.382812 73.78125 L 36.132812 73.449219 L 35.882812 73.363281 L 29.652344 73.113281 L 28.238281 72.613281 L 27.742188 73.03125 L 27.492188 73.363281 L 27.742188 73.53125 L 27.742188 74.367188 L 28.15625 79.199219 C 28.765625 80.199219 30.179688 80.839844 32.394531 81.117188 L 34.136719 81.703125 L 34.96875 82.117188 L 57.070312 82.203125 L 84.902344 81.285156 C 87.894531 80.507812 95.953125 76.394531 109.078125 68.945312 L 108.496094 67.027344 C 107.832031 67.527344 106.695312 68.113281 105.089844 68.78125 C 102.320312 70.003906 100.078125 70.613281 98.359375 70.613281 L 97.28125 70.363281 L 97.199219 70.03125 C 97.199219 69.753906 100.992188 68.222656 108.582031 65.445312 L 108.496094 65.195312 L 107.914062 65.109375 L 107.75 65.109375 L 103.511719 66.027344 L 101.519531 67.113281 L 99.691406 66.195312 C 99.246094 65.472656 98.609375 65.109375 97.78125 65.109375 C 96.78125 65.109375 95.703125 65.554688 94.539062 66.445312 L 92.960938 67.863281 L 87.0625 70.945312 L 86.980469 70.945312 L 87.0625 71.613281 L 87.144531 71.613281 L 87.0625 74.367188 L 86.894531 77.285156 L 87.0625 77.867188 L 86.648438 78.535156 C 86.425781 79.144531 86.148438 79.535156 85.816406 79.699219 L 85.316406 79.117188 L 83.488281 79.867188 L 81.328125 80.703125 L 80.332031 81.367188 L 59.976562 81.617188 M 79.75 64.195312 L 79.335938 65.695312 L 79.335938 65.945312 L 80.5 65.945312 L 81.496094 64.945312 L 79.75 64.195312 M 82.492188 64.945312 C 82.492188 66.445312 81.632812 67.195312 79.917969 67.195312 C 78.976562 67.195312 78.421875 66.945312 78.253906 66.445312 L 78.253906 65.613281 L 78.503906 64.109375 C 78.78125 63.109375 79.195312 62.609375 79.75 62.609375 C 81.246094 62.609375 82.160156 63.386719 82.492188 64.945312 M 82.492188 69.945312 L 81.746094 70.613281 L 81.746094 71.113281 L 82.328125 71.363281 L 83.238281 71.363281 L 83.238281 69.945312 L 82.492188 69.945312 M 82.742188 68.613281 C 84.183594 68.613281 84.707031 69.195312 84.320312 70.363281 C 84.320312 71.863281 83.628906 72.613281 82.242188 72.613281 C 81.078125 72.613281 80.5 72.003906 80.5 70.78125 C 80.5 69.335938 81.246094 68.613281 82.742188 68.613281 M 83.074219 73.863281 C 84.070312 73.863281 84.570312 74.476562 84.570312 75.699219 C 84.570312 76.976562 83.988281 77.617188 82.824219 77.617188 C 82.105469 77.617188 81.578125 77.285156 81.246094 76.617188 L 80.996094 75.617188 C 80.996094 74.449219 81.6875 73.863281 83.074219 73.863281 M 82.078125 75.449219 L 82.328125 76.117188 L 83.488281 76.367188 L 83.488281 74.949219 L 83.074219 74.867188 L 82.078125 75.449219 "/>
<path style=" stroke:none;fill-rule:evenodd;fill:rgb(40.000001%,40.000001%,40.000001%);fill-opacity:1;" d="M 64.378906 64.445312 L 64.628906 64.195312 L 65.292969 64.359375 L 72.273438 63.777344 L 69.78125 67.363281 L 67.539062 71.863281 C 67.539062 72.585938 67.730469 73.003906 68.121094 73.113281 C 70.667969 72.167969 73.4375 70.558594 76.425781 68.28125 L 76.511719 68.195312 L 76.511719 68.363281 C 76.234375 70.085938 74.324219 74.003906 70.777344 80.117188 L 70.777344 80.199219 L 67.289062 80.199219 L 66.707031 80.617188 L 66.042969 80.453125 L 66.042969 79.949219 L 67.289062 78.117188 L 67.371094 77.867188 L 65.625 77.617188 L 65.625 76.867188 C 65.292969 75.808594 64.710938 75.699219 63.882812 76.53125 C 63.160156 77.253906 62.71875 77.144531 62.550781 76.199219 L 62.550781 74.113281 L 58.316406 75.617188 L 58.066406 75.53125 L 58.148438 73.863281 L 59.144531 72.03125 L 59.976562 73.449219 L 59.894531 73.449219 L 60.058594 73.449219 L 60.558594 73.949219 C 60.78125 73.949219 60.890625 73.449219 60.890625 72.449219 C 60.890625 71.890625 60.695312 71.140625 60.308594 70.195312 L 60.226562 70.03125 C 61.832031 67.308594 63.21875 65.445312 64.378906 64.445312 M 72.9375 63.695312 L 73.351562 63.695312 L 73.269531 63.859375 L 72.9375 63.695312 M 69.28125 71.363281 L 69.28125 71.195312 L 69.367188 71.363281 L 69.28125 71.363281 "/>
<path style=" stroke:none;fill-rule:evenodd;fill:rgb(20%,20%,20%);fill-opacity:1;" d="M 72.273438 63.777344 L 72.523438 63.609375 L 72.9375 63.695312 L 73.269531 63.859375 L 73.351562 63.695312 C 76.457031 63.195312 78.367188 62.695312 79.085938 62.195312 C 81.300781 62.195312 82.714844 62.664062 83.324219 63.609375 L 85.316406 67.445312 C 85.484375 67.613281 85.703125 68.75 85.980469 70.863281 L 85.980469 74.367188 L 85.566406 77.617188 L 80 80.117188 L 72.105469 80.199219 L 71.277344 80.867188 L 70.777344 80.199219 L 70.777344 80.117188 C 74.324219 74.003906 76.234375 70.085938 76.511719 68.363281 L 76.511719 68.195312 L 76.425781 68.28125 C 73.4375 70.558594 70.667969 72.167969 68.121094 73.113281 C 67.730469 73.003906 67.539062 72.585938 67.539062 71.863281 L 69.78125 67.363281 L 72.273438 63.777344 M 69.28125 71.363281 L 69.367188 71.363281 L 69.28125 71.195312 L 69.28125 71.363281 M 40.203125 66.863281 L 41.367188 66.945312 L 41.367188 67.863281 L 40.371094 67.863281 L 39.953125 67.113281 L 40.203125 66.863281 M 39.871094 71.699219 C 40.257812 72.03125 40.453125 72.363281 40.453125 72.699219 L 39.621094 73.699219 L 39.125 72.699219 L 39.871094 71.699219 M 40.617188 78.617188 L 40.203125 77.367188 L 40.867188 77.449219 L 41.367188 78.035156 C 41.367188 78.476562 41.285156 78.671875 41.117188 78.617188 L 40.617188 78.617188 M 59.976562 81.617188 L 80.332031 81.367188 L 81.328125 80.703125 L 83.488281 79.867188 L 85.316406 79.117188 L 85.816406 79.699219 C 86.148438 79.535156 86.425781 79.144531 86.648438 78.535156 L 87.0625 77.867188 L 86.894531 77.285156 L 87.0625 74.367188 L 87.144531 71.613281 L 87.0625 71.613281 L 86.980469 70.945312 L 87.0625 70.945312 L 92.960938 67.863281 L 94.539062 66.445312 C 95.703125 65.554688 96.78125 65.109375 97.78125 65.109375 C 98.609375 65.109375 99.246094 65.472656 99.691406 66.195312 L 101.519531 67.113281 L 103.511719 66.027344 L 107.75 65.109375 L 107.914062 65.109375 L 108.496094 65.195312 L 108.582031 65.445312 C 100.992188 68.222656 97.199219 69.753906 97.199219 70.03125 L 97.28125 70.363281 L 98.359375 70.613281 C 100.078125 70.613281 102.320312 70.003906 105.089844 68.78125 C 106.695312 68.113281 107.832031 67.527344 108.496094 67.027344 L 109.078125 68.945312 C 95.953125 76.394531 87.894531 80.507812 84.902344 81.285156 L 57.070312 82.203125 L 34.96875 82.117188 L 34.136719 81.703125 L 32.394531 81.117188 C 30.179688 80.839844 28.765625 80.199219 28.15625 79.199219 L 27.742188 74.367188 L 27.742188 73.53125 L 27.492188 73.363281 L 27.742188 73.03125 L 28.238281 72.613281 L 29.652344 73.113281 L 35.882812 73.363281 L 36.132812 73.449219 L 36.382812 73.78125 L 36.214844 74.367188 L 36.132812 74.367188 L 36.132812 76.78125 C 36.296875 78.839844 36.660156 80.144531 37.210938 80.703125 L 37.210938 81.117188 C 37.433594 81.339844 37.65625 81.453125 37.878906 81.453125 L 59.976562 81.617188 M 82.742188 68.613281 C 81.246094 68.613281 80.5 69.335938 80.5 70.78125 C 80.5 72.003906 81.078125 72.613281 82.242188 72.613281 C 83.628906 72.613281 84.320312 71.863281 84.320312 70.363281 C 84.707031 69.195312 84.183594 68.613281 82.742188 68.613281 M 82.492188 69.945312 L 83.238281 69.945312 L 83.238281 71.363281 L 82.328125 71.363281 L 81.746094 71.113281 L 81.746094 70.613281 L 82.492188 69.945312 M 82.492188 64.945312 C 82.160156 63.386719 81.246094 62.609375 79.75 62.609375 C 79.195312 62.609375 78.78125 63.109375 78.503906 64.109375 L 78.253906 65.613281 L 78.253906 66.445312 C 78.421875 66.945312 78.976562 67.195312 79.917969 67.195312 C 81.632812 67.195312 82.492188 66.445312 82.492188 64.945312 M 79.75 64.195312 L 81.496094 64.945312 L 80.5 65.945312 L 79.335938 65.945312 L 79.335938 65.695312 L 79.75 64.195312 M 82.078125 75.449219 L 83.074219 74.867188 L 83.488281 74.949219 L 83.488281 76.367188 L 82.328125 76.117188 L 82.078125 75.449219 M 83.074219 73.863281 C 81.6875 73.863281 80.996094 74.449219 80.996094 75.617188 L 81.246094 76.617188 C 81.578125 77.285156 82.105469 77.617188 82.824219 77.617188 C 83.988281 77.617188 84.570312 76.976562 84.570312 75.699219 C 84.570312 74.476562 84.070312 73.863281 83.074219 73.863281 "/>
<path style=" stroke:none;fill-rule:evenodd;fill:rgb(60.000002%,60.000002%,60.000002%);fill-opacity:1;" d="M 66.042969 80.199219 L 38.375 80.367188 L 38.210938 79.949219 C 37.65625 78.507812 37.378906 75.976562 37.378906 72.363281 L 37.378906 68.195312 C 37.710938 66.75 38.210938 65.667969 38.875 64.945312 L 39.207031 64.695312 L 43.777344 64.777344 L 43.609375 65.027344 C 43 66.304688 42.695312 68.863281 42.695312 72.699219 C 42.695312 73.699219 42.917969 74.367188 43.359375 74.699219 C 44.523438 73.585938 45.714844 72.140625 46.933594 70.363281 L 47.097656 71.613281 L 47.679688 71.699219 L 48.34375 71.613281 C 48.402344 70.503906 48.84375 69.253906 49.675781 67.863281 L 50.839844 65.527344 L 50.257812 64.777344 L 64.378906 64.445312 C 63.21875 65.445312 61.832031 67.308594 60.226562 70.03125 C 59.726562 69.085938 59.257812 68.472656 58.8125 68.195312 C 58.371094 67.472656 57.898438 67.113281 57.402344 67.113281 L 56.984375 71.613281 L 57.320312 75.367188 L 55.90625 75.03125 C 55.296875 75.03125 54.9375 75.199219 54.824219 75.53125 L 54.824219 76.03125 C 54.824219 77.199219 55.351562 77.785156 56.40625 77.785156 C 57.402344 77.785156 57.898438 77.449219 57.898438 76.78125 L 58.066406 75.53125 L 58.316406 75.617188 L 62.550781 74.113281 L 62.550781 76.199219 C 62.71875 77.144531 63.160156 77.253906 63.882812 76.53125 C 64.710938 75.699219 65.292969 75.808594 65.625 76.867188 L 65.625 77.617188 L 67.371094 77.867188 L 67.289062 78.117188 L 66.042969 79.949219 L 66.042969 80.199219 M 44.109375 64.609375 L 44.109375 64.445312 L 44.191406 64.527344 L 44.109375 64.609375 M 60.058594 73.449219 L 59.894531 73.449219 L 60.058594 73.449219 M 59.144531 72.03125 L 58.148438 73.863281 L 58.148438 70.53125 L 58.230469 70.53125 L 59.144531 72.03125 M 40.371094 65.613281 C 39.371094 65.5 38.875 66.027344 38.875 67.195312 L 38.875 68.195312 C 39.152344 68.808594 39.816406 69.113281 40.867188 69.113281 C 41.921875 69.113281 42.445312 68.585938 42.445312 67.527344 C 42.722656 65.972656 42.058594 65.332031 40.453125 65.613281 L 40.371094 65.613281 M 43.859375 72.613281 L 43.859375 72.363281 L 44.023438 72.53125 L 43.859375 72.613281 M 39.125 77.617188 C 39.125 79.117188 39.734375 79.867188 40.949219 79.867188 C 41.949219 79.867188 42.445312 79.339844 42.445312 78.285156 C 42.445312 76.839844 41.78125 76.117188 40.453125 76.117188 C 39.566406 76.117188 39.125 76.617188 39.125 77.617188 M 37.960938 72.449219 L 38.125 73.699219 C 38.402344 74.476562 38.902344 74.867188 39.621094 74.867188 C 40.949219 74.867188 41.617188 74.144531 41.617188 72.699219 C 41.835938 71.308594 41.253906 70.613281 39.871094 70.613281 C 38.597656 70.613281 37.960938 71.226562 37.960938 72.449219 "/>
<path style=" stroke:none;fill-rule:evenodd;fill:rgb(80.000001%,80.000001%,80.000001%);fill-opacity:1;" d="M 43.777344 64.777344 L 43.941406 64.445312 L 44.109375 64.609375 L 44.191406 64.527344 L 44.9375 64.445312 L 46.683594 64.777344 L 50.089844 64.777344 L 50.089844 64.695312 L 50.257812 64.777344 L 50.839844 65.527344 L 49.675781 67.863281 C 48.84375 69.253906 48.402344 70.503906 48.34375 71.613281 L 47.679688 71.699219 L 47.097656 71.613281 L 46.933594 70.363281 C 45.714844 72.140625 44.523438 73.585938 43.359375 74.699219 C 42.917969 74.367188 42.695312 73.699219 42.695312 72.699219 C 42.695312 68.863281 43 66.304688 43.609375 65.027344 L 43.777344 64.777344 M 44.9375 67.613281 L 45.1875 66.113281 L 44.691406 65.363281 C 43.859375 65.972656 43.445312 66.835938 43.445312 67.945312 L 43.691406 68.53125 L 43.609375 70.113281 L 43.859375 71.863281 L 44.273438 71.863281 C 44.386719 71.863281 44.523438 71.78125 44.691406 71.613281 L 44.9375 67.863281 L 44.9375 67.613281 M 43.859375 72.613281 L 44.023438 72.53125 L 43.859375 72.363281 L 43.859375 72.613281 "/>
<path style=" stroke:none;fill-rule:evenodd;fill:rgb(100%,100%,100%);fill-opacity:1;" d="M 44.9375 67.613281 L 44.9375 67.863281 L 44.691406 71.613281 C 44.523438 71.78125 44.386719 71.863281 44.273438 71.863281 L 43.859375 71.863281 L 43.609375 70.113281 L 43.691406 68.53125 L 43.445312 67.945312 C 43.445312 66.835938 43.859375 65.972656 44.691406 65.363281 L 45.1875 66.113281 L 44.9375 67.613281 "/>
</g>
</svg>
