<?xml version="1.0" encoding="UTF-8"?>
<svg xmlns="http://www.w3.org/2000/svg" xmlns:xlink="http://www.w3.org/1999/xlink" width="160px" height="194px" viewBox="0 0 160 194" version="1.1">
<g id="surface1">
<path style=" stroke:none;fill-rule:evenodd;fill:rgb(0%,0%,0%);fill-opacity:1;" d="M 100.355469 34.265625 L 100.4375 34.265625 C 101.046875 34.265625 101.574219 35.320312 102.015625 37.433594 L 102.515625 40.683594 C 102.515625 42.242188 101.933594 44.519531 100.769531 47.519531 C 101.933594 48.578125 103.761719 52.6875 106.253906 59.859375 C 107.695312 63.695312 108.414062 67.917969 108.414062 72.53125 C 108.414062 73.140625 106.917969 73.449219 103.929688 73.449219 L 102.433594 74.867188 L 102.515625 74.949219 C 102.515625 75.449219 100.578125 75.949219 96.699219 76.449219 L 88.972656 77.449219 L 76.511719 80.117188 L 70.695312 82.617188 C 66.429688 84.0625 62.414062 84.785156 58.648438 84.785156 C 54.824219 84.785156 51.613281 84.089844 49.011719 82.703125 C 46.40625 81.3125 44.828125 80.617188 44.273438 80.617188 C 34.914062 80.617188 29.597656 81.089844 28.324219 82.035156 L 27.742188 81.867188 L 27.65625 81.535156 L 27.742188 81.203125 C 27.296875 80.867188 27.160156 80.117188 27.324219 78.949219 L 27.574219 77.117188 L 27.492188 77.117188 C 25.941406 77.117188 25.359375 74.53125 25.746094 69.363281 L 26.164062 62.027344 C 25.054688 61.304688 24.25 58.914062 23.753906 54.855469 C 23.585938 53.246094 23.03125 50.855469 22.089844 47.6875 L 22.257812 46.019531 L 22.089844 46.019531 C 22.089844 45.628906 22.285156 45.410156 22.671875 45.351562 L 22.757812 45.269531 L 23.003906 45.269531 C 25.386719 45.269531 27.382812 46.074219 28.988281 47.6875 L 32.726562 50.355469 L 34.304688 52.1875 L 36.132812 50.855469 C 38.015625 49.355469 39.871094 48.410156 41.699219 48.019531 L 59.394531 45.519531 L 81.078125 43.433594 L 87.476562 44.019531 C 87.863281 43.074219 89.636719 41.296875 92.792969 38.683594 L 100.355469 34.265625 M 100.6875 37.597656 L 100.105469 35.933594 C 99 36.710938 96.808594 38.015625 93.542969 39.851562 L 92.214844 40.933594 L 92.214844 41.019531 L 88.308594 44.851562 L 88.226562 45.269531 L 88.226562 45.6875 L 81.328125 44.851562 C 72.6875 44.851562 59.644531 46.324219 42.199219 49.269531 C 40.703125 49.550781 38.902344 50.492188 36.796875 52.105469 L 33.972656 54.191406 L 33.804688 54.355469 L 33.722656 54.273438 L 33.308594 54.441406 C 32.699219 54.441406 32.394531 54.246094 32.394531 53.855469 L 32.976562 53.273438 L 31.398438 50.855469 C 28.238281 47.574219 25.414062 45.964844 22.921875 46.019531 L 23.003906 46.601562 L 22.589844 47.355469 C 22.589844 47.910156 22.976562 48.6875 23.753906 49.6875 L 24.75 53.355469 C 25.359375 54.800781 25.691406 56.164062 25.746094 57.441406 L 26.660156 59.441406 C 26.992188 58.164062 27.4375 57.46875 27.992188 57.359375 L 28.570312 57.941406 L 28.738281 58.191406 C 27.628906 63.195312 27.078125 66.917969 27.078125 69.363281 L 27.078125 73.03125 L 28.15625 76.449219 L 29.484375 75.949219 L 34.804688 75.199219 C 41.339844 75.199219 46.488281 75.894531 50.257812 77.285156 C 54.078125 78.671875 57.375 79.367188 60.144531 79.367188 C 63.023438 79.367188 64.960938 79.0625 65.960938 78.449219 L 67.289062 77.03125 C 69.335938 75.867188 71.386719 75.199219 73.4375 75.03125 L 82.078125 73.863281 L 86.480469 72.863281 C 89.140625 71.585938 92.351562 70.945312 96.117188 70.945312 L 100.1875 71.03125 L 100.273438 71.363281 L 100.519531 71.03125 L 104.09375 71.699219 L 104.34375 71.613281 L 104.839844 72.113281 L 106.917969 71.863281 C 106.363281 66.640625 105.671875 62.609375 104.839844 59.777344 C 104.234375 57.441406 102.679688 53.855469 100.1875 49.019531 C 99.136719 51.410156 98.222656 52.6875 97.449219 52.855469 L 96.867188 52.273438 L 96.617188 52.273438 L 96.617188 52.105469 L 99.691406 46.351562 L 101.269531 40.601562 L 101.019531 38.765625 L 101.101562 38.351562 C 101.101562 37.90625 100.964844 37.65625 100.6875 37.597656 M 94.375 52.855469 L 94.125 52.855469 C 92.40625 52.855469 90.632812 51.6875 88.808594 49.355469 L 88.472656 48.855469 L 88.308594 48.605469 L 88.308594 48.519531 L 88.472656 48.605469 L 89.140625 48.019531 L 89.554688 48.4375 C 89.554688 48.828125 89.804688 49.019531 90.300781 49.019531 L 90.632812 49.019531 L 91.464844 50.273438 C 93.238281 50.828125 94.316406 51.382812 94.707031 51.9375 L 94.125 52.523438 L 94.375 52.855469 M 77.339844 59.941406 L 78.007812 68.863281 L 77.921875 70.945312 C 76.980469 71.78125 73.90625 72.199219 68.699219 72.199219 L 68.035156 72.199219 C 67.703125 73.644531 66.984375 74.367188 65.875 74.367188 C 64.4375 74.367188 63.496094 73.613281 63.050781 72.113281 L 58.148438 74.53125 C 57.429688 74.53125 57.070312 73.835938 57.070312 72.449219 L 57.566406 63.859375 L 57.234375 59.191406 L 56.570312 54.691406 C 56.570312 53.855469 56.875 53.441406 57.484375 53.441406 C 58.261719 53.441406 58.898438 53.746094 59.394531 54.355469 L 60.308594 55.523438 L 62.550781 55.855469 L 62.636719 53.691406 L 63.464844 50.355469 C 63.910156 49.578125 64.824219 49.1875 66.207031 49.1875 C 67.148438 49.1875 67.621094 49.519531 67.621094 50.1875 L 67.539062 50.273438 L 67.871094 52.6875 L 68.035156 52.855469 L 67.953125 53.023438 L 68.035156 54.605469 L 68.453125 54.273438 L 71.359375 53.441406 C 71.527344 51.882812 72.410156 51.105469 74.019531 51.105469 C 76.066406 51.105469 77.175781 54.050781 77.339844 59.941406 M 71.441406 57.859375 L 70.445312 57.859375 L 69.78125 58.691406 L 69.78125 61.691406 L 71.773438 61.691406 L 71.773438 58.773438 L 71.441406 57.859375 M 86.398438 52.355469 L 87.3125 53.023438 L 87.476562 52.773438 L 87.226562 52.105469 L 86.648438 52.105469 L 86.398438 52.355469 M 87.226562 51.023438 L 87.476562 50.9375 C 87.976562 50.9375 88.335938 51.273438 88.558594 51.9375 L 88.722656 52.9375 C 88.722656 53.941406 88.140625 54.441406 86.980469 54.441406 C 85.980469 54.441406 85.371094 53.71875 85.152344 52.273438 L 85.484375 51.273438 C 85.539062 50.828125 85.898438 50.605469 86.5625 50.605469 L 87.226562 51.023438 M 50.089844 54.105469 L 51.503906 55.773438 L 53.746094 55.941406 C 54.410156 55.886719 54.742188 56.191406 54.742188 56.859375 C 54.742188 57.46875 54.492188 58.21875 53.996094 59.109375 C 53.332031 60.277344 52.5 60.859375 51.503906 60.859375 C 50.117188 60.859375 49.425781 59.496094 49.425781 56.773438 C 49.425781 54.996094 49.648438 54.105469 50.089844 54.105469 M 61.390625 63.945312 L 62.46875 63.609375 L 62.800781 63.859375 L 62.550781 60.027344 L 62.21875 60.109375 C 61.445312 60.386719 61.058594 60.914062 61.058594 61.691406 L 61.304688 63.777344 L 61.304688 63.945312 L 61.390625 63.945312 M 70.777344 68.445312 C 72.21875 68.445312 72.9375 68.195312 72.9375 67.695312 L 72.523438 65.777344 L 70.363281 65.527344 C 70.03125 65.527344 69.78125 66.140625 69.613281 67.363281 C 69.613281 68.085938 70.003906 68.445312 70.777344 68.445312 M 62.800781 66.027344 L 61.804688 66.695312 C 60.972656 67.027344 60.558594 67.527344 60.558594 68.195312 C 60.558594 69.363281 61.222656 69.945312 62.550781 69.945312 L 62.800781 69.945312 L 62.800781 66.027344 M 62.800781 65.109375 L 62.800781 65.027344 L 62.800781 65.109375 M 54.910156 63.445312 C 54.910156 63.886719 54.550781 64.667969 53.828125 65.777344 C 53 67.113281 52.195312 67.777344 51.417969 67.777344 C 49.371094 67.777344 48.484375 66.554688 48.761719 64.109375 C 48.761719 63 48.984375 62.445312 49.425781 62.445312 C 49.867188 63.277344 50.589844 63.695312 51.585938 63.695312 C 52.472656 63.695312 53.109375 63.5 53.496094 63.109375 L 54.328125 62.445312 L 54.824219 62.695312 L 54.910156 63.445312 M 55.40625 69.945312 L 55.242188 70.53125 L 55.574219 71.363281 C 55.574219 71.808594 55.269531 72.585938 54.660156 73.699219 C 53.996094 74.976562 53.359375 75.617188 52.75 75.617188 C 50.476562 75.617188 49.121094 73.976562 48.679688 70.695312 L 50.753906 70.195312 L 53.746094 69.78125 L 54.492188 69.363281 C 55.101562 69.363281 55.40625 69.558594 55.40625 69.945312 M 54.410156 70.945312 L 54.410156 70.863281 L 54.328125 70.863281 L 54.410156 70.945312 M 61.304688 71.53125 L 61.390625 71.613281 L 61.554688 71.53125 L 61.304688 71.53125 M 60.390625 80.785156 C 57.511719 80.785156 53.996094 80.089844 49.839844 78.699219 C 45.6875 77.253906 40.730469 76.53125 34.96875 76.53125 C 31.3125 76.53125 29.152344 76.867188 28.488281 77.535156 L 28.238281 77.535156 L 28.902344 80.035156 L 28.902344 80.453125 L 41.449219 79.285156 C 44.882812 79.285156 47.679688 79.980469 49.839844 81.367188 C 52 82.757812 53.664062 83.453125 54.824219 83.453125 L 63.632812 83.203125 L 69.449219 81.203125 L 76.925781 78.535156 C 85.125 75.699219 93.292969 74.28125 101.433594 74.28125 L 102.679688 72.863281 L 103.097656 72.53125 L 96.199219 72.28125 C 92.378906 72.28125 88.695312 73.003906 85.152344 74.449219 L 81.910156 75.449219 L 73.4375 76.617188 C 71.386719 76.839844 69.335938 77.5625 67.289062 78.785156 C 65.40625 80.117188 63.105469 80.785156 60.390625 80.785156 M 88.640625 66.277344 C 88.640625 66.722656 88.863281 66.945312 89.304688 66.945312 L 89.636719 66.527344 C 89.636719 66.195312 89.359375 66.027344 88.808594 66.027344 L 88.640625 66.277344 M 91.132812 66.363281 C 91.132812 66.585938 90.9375 66.972656 90.550781 67.527344 C 90.109375 68.195312 89.691406 68.53125 89.304688 68.53125 C 88.417969 68.53125 87.753906 67.835938 87.3125 66.445312 C 87.3125 65.222656 87.808594 64.609375 88.808594 64.609375 C 90.359375 64.609375 91.132812 65.195312 91.132812 66.363281 M 34.554688 59.359375 L 35.382812 58.773438 L 34.554688 58.023438 L 33.972656 58.441406 L 34.554688 59.359375 M 34.71875 56.691406 C 35.496094 56.691406 36.050781 57.023438 36.382812 57.691406 L 36.714844 58.691406 C 36.714844 58.914062 36.519531 59.332031 36.132812 59.941406 C 35.6875 60.664062 35.328125 61.027344 35.050781 61.027344 C 34.332031 61.027344 33.445312 60.191406 32.394531 58.523438 L 33.222656 57.441406 L 34.71875 56.691406 M 35.300781 70.195312 L 35.550781 71.699219 C 35.550781 72.863281 34.996094 73.449219 33.890625 73.449219 C 31.949219 73.449219 31.230469 72.890625 31.730469 71.78125 C 31.730469 69.722656 32.3125 68.695312 33.472656 68.695312 C 34.359375 68.695312 34.96875 69.195312 35.300781 70.195312 M 33.558594 70.53125 L 33.472656 70.445312 L 33.472656 70.53125 L 33.058594 71.03125 L 33.058594 72.03125 L 33.308594 72.113281 C 33.972656 72.113281 34.304688 71.917969 34.304688 71.53125 C 34.304688 71.03125 34.054688 70.695312 33.558594 70.53125 "/>
<path style=" stroke:none;fill-rule:evenodd;fill:rgb(40.000001%,0%,0%);fill-opacity:1;" d="M 60.390625 80.785156 C 63.105469 80.785156 65.40625 80.117188 67.289062 78.785156 C 69.335938 77.5625 71.386719 76.839844 73.4375 76.617188 L 81.910156 75.449219 L 85.152344 74.449219 C 88.695312 73.003906 92.378906 72.28125 96.199219 72.28125 L 103.097656 72.53125 L 102.679688 72.863281 L 101.433594 74.28125 C 93.292969 74.28125 85.125 75.699219 76.925781 78.535156 L 69.449219 81.203125 L 63.632812 83.203125 L 54.824219 83.453125 C 53.664062 83.453125 52 82.757812 49.839844 81.367188 C 47.679688 79.980469 44.882812 79.285156 41.449219 79.285156 L 28.902344 80.453125 L 28.902344 80.035156 L 28.238281 77.535156 L 28.488281 77.535156 C 29.152344 76.867188 31.3125 76.53125 34.96875 76.53125 C 40.730469 76.53125 45.6875 77.253906 49.839844 78.699219 C 53.996094 80.089844 57.511719 80.785156 60.390625 80.785156 "/>
<path style=" stroke:none;fill-rule:evenodd;fill:rgb(60.000002%,60.000002%,60.000002%);fill-opacity:1;" d="M 89.554688 48.4375 L 95.371094 42.769531 C 98.417969 39.265625 100.132812 37.515625 100.519531 37.515625 L 100.6875 37.597656 C 100.964844 37.65625 101.101562 37.90625 101.101562 38.351562 L 101.019531 38.765625 L 101.269531 40.601562 L 99.691406 46.351562 L 96.617188 52.105469 L 96.617188 52.273438 L 96.867188 52.273438 L 97.449219 52.855469 C 98.222656 52.6875 99.136719 51.410156 100.1875 49.019531 C 102.679688 53.855469 104.234375 57.441406 104.839844 59.777344 C 105.671875 62.609375 106.363281 66.640625 106.917969 71.863281 L 104.839844 72.113281 L 104.34375 71.613281 L 104.09375 71.699219 L 100.519531 71.03125 L 100.273438 71.363281 L 100.1875 71.03125 L 99.027344 62.109375 C 98.914062 60.832031 97.945312 57.800781 96.117188 53.023438 L 95.785156 53.023438 L 94.375 52.855469 L 94.125 52.523438 L 94.707031 51.9375 C 94.316406 51.382812 93.238281 50.828125 91.464844 50.273438 L 90.632812 49.019531 L 90.300781 49.019531 C 89.804688 49.019531 89.554688 48.828125 89.554688 48.4375 M 23.003906 46.601562 L 23.253906 46.519531 C 24.085938 46.519531 25.527344 48.242188 27.574219 51.6875 C 28.683594 53.46875 29.238281 55.21875 29.238281 56.941406 C 29.238281 57.609375 29.070312 57.941406 28.738281 57.941406 L 28.570312 57.941406 L 27.992188 57.359375 C 27.4375 57.46875 26.992188 58.164062 26.660156 59.441406 L 25.746094 57.441406 C 25.691406 56.164062 25.359375 54.800781 24.75 53.355469 L 23.753906 49.6875 C 22.976562 48.6875 22.589844 47.910156 22.589844 47.355469 L 23.003906 46.601562 M 86.398438 52.355469 L 86.648438 52.105469 L 87.226562 52.105469 L 87.476562 52.773438 L 87.3125 53.023438 L 86.398438 52.355469 M 71.441406 57.859375 L 71.773438 58.773438 L 71.773438 61.691406 L 69.78125 61.691406 L 69.78125 58.691406 L 70.445312 57.859375 L 71.441406 57.859375 M 61.304688 63.777344 L 61.058594 61.691406 C 61.058594 60.914062 61.445312 60.386719 62.21875 60.109375 L 62.550781 60.027344 L 62.800781 63.859375 L 62.46875 63.609375 L 61.390625 63.945312 L 61.304688 63.777344 M 62.800781 66.027344 L 62.800781 69.945312 L 62.550781 69.945312 C 61.222656 69.945312 60.558594 69.363281 60.558594 68.195312 C 60.558594 67.527344 60.972656 67.027344 61.804688 66.695312 L 62.800781 66.027344 M 70.777344 68.445312 C 70.003906 68.445312 69.613281 68.085938 69.613281 67.363281 C 69.78125 66.140625 70.03125 65.527344 70.363281 65.527344 L 72.523438 65.777344 L 72.9375 67.695312 C 72.9375 68.195312 72.21875 68.445312 70.777344 68.445312 M 88.640625 66.277344 L 88.808594 66.027344 C 89.359375 66.027344 89.636719 66.195312 89.636719 66.527344 L 89.304688 66.945312 C 88.863281 66.945312 88.640625 66.722656 88.640625 66.277344 M 34.554688 59.359375 L 33.972656 58.441406 L 34.554688 58.023438 L 35.382812 58.773438 L 34.554688 59.359375 M 33.472656 70.53125 L 33.558594 70.53125 C 34.054688 70.695312 34.304688 71.03125 34.304688 71.53125 C 34.304688 71.917969 33.972656 72.113281 33.308594 72.113281 L 33.058594 72.03125 L 33.058594 71.03125 L 33.472656 70.53125 "/>
<path style=" stroke:none;fill-rule:evenodd;fill:rgb(80.000001%,80.000001%,80.000001%);fill-opacity:1;" d="M 100.6875 37.597656 L 100.519531 37.515625 C 100.132812 37.515625 98.417969 39.265625 95.371094 42.769531 L 89.554688 48.4375 L 89.140625 48.019531 L 88.472656 48.605469 L 88.308594 48.519531 L 88.308594 48.605469 L 88.472656 48.855469 L 88.808594 49.355469 C 90.632812 51.6875 92.40625 52.855469 94.125 52.855469 L 94.375 52.855469 L 95.785156 53.023438 L 96.117188 53.023438 C 97.945312 57.800781 98.914062 60.832031 99.027344 62.109375 L 100.1875 71.03125 L 96.117188 70.945312 C 92.351562 70.945312 89.140625 71.585938 86.480469 72.863281 L 82.078125 73.863281 L 73.4375 75.03125 C 71.386719 75.199219 69.335938 75.867188 67.289062 77.03125 L 65.960938 78.449219 C 64.960938 79.0625 63.023438 79.367188 60.144531 79.367188 C 57.375 79.367188 54.078125 78.671875 50.257812 77.285156 C 46.488281 75.894531 41.339844 75.199219 34.804688 75.199219 L 29.484375 75.949219 L 28.15625 76.449219 L 27.078125 73.03125 L 27.078125 69.363281 C 27.078125 66.917969 27.628906 63.195312 28.738281 58.191406 L 28.570312 57.941406 L 28.738281 57.941406 C 29.070312 57.941406 29.238281 57.609375 29.238281 56.941406 C 29.238281 55.21875 28.683594 53.46875 27.574219 51.6875 C 25.527344 48.242188 24.085938 46.519531 23.253906 46.519531 L 23.003906 46.601562 L 22.921875 46.019531 C 25.414062 45.964844 28.238281 47.574219 31.398438 50.855469 L 32.976562 53.273438 L 32.394531 53.855469 C 32.394531 54.246094 32.699219 54.441406 33.308594 54.441406 L 33.722656 54.273438 L 33.804688 54.355469 L 33.972656 54.191406 L 36.796875 52.105469 C 38.902344 50.492188 40.703125 49.550781 42.199219 49.269531 C 59.644531 46.324219 72.6875 44.851562 81.328125 44.851562 L 88.226562 45.6875 L 88.226562 45.269531 L 88.308594 44.851562 L 92.214844 41.019531 L 92.214844 40.933594 L 93.542969 39.851562 C 96.808594 38.015625 99 36.710938 100.105469 35.933594 L 100.6875 37.597656 M 96.617188 52.105469 L 96.617188 52.273438 L 96.617188 52.105469 M 77.339844 59.941406 C 77.175781 54.050781 76.066406 51.105469 74.019531 51.105469 C 72.410156 51.105469 71.527344 51.882812 71.359375 53.441406 L 68.453125 54.273438 L 68.035156 54.605469 L 67.953125 53.023438 L 68.035156 52.855469 L 67.871094 52.6875 L 67.539062 50.273438 L 67.621094 50.1875 C 67.621094 49.519531 67.148438 49.1875 66.207031 49.1875 C 64.824219 49.1875 63.910156 49.578125 63.464844 50.355469 L 62.636719 53.691406 L 62.550781 55.855469 L 60.308594 55.523438 L 59.394531 54.355469 C 58.898438 53.746094 58.261719 53.441406 57.484375 53.441406 C 56.875 53.441406 56.570312 53.855469 56.570312 54.691406 L 57.234375 59.191406 L 57.566406 63.859375 L 57.070312 72.449219 C 57.070312 73.835938 57.429688 74.53125 58.148438 74.53125 L 63.050781 72.113281 C 63.496094 73.613281 64.4375 74.367188 65.875 74.367188 C 66.984375 74.367188 67.703125 73.644531 68.035156 72.199219 L 68.699219 72.199219 C 73.90625 72.199219 76.980469 71.78125 77.921875 70.945312 L 78.007812 68.863281 L 77.339844 59.941406 M 87.226562 51.023438 L 86.5625 50.605469 C 85.898438 50.605469 85.539062 50.828125 85.484375 51.273438 L 85.152344 52.273438 C 85.371094 53.71875 85.980469 54.441406 86.980469 54.441406 C 88.140625 54.441406 88.722656 53.941406 88.722656 52.9375 L 88.558594 51.9375 C 88.335938 51.273438 87.976562 50.9375 87.476562 50.9375 L 87.226562 51.023438 M 50.089844 54.105469 C 49.648438 54.105469 49.425781 54.996094 49.425781 56.773438 C 49.425781 59.496094 50.117188 60.859375 51.503906 60.859375 C 52.5 60.859375 53.332031 60.277344 53.996094 59.109375 C 54.492188 58.21875 54.742188 57.46875 54.742188 56.859375 C 54.742188 56.191406 54.410156 55.886719 53.746094 55.941406 L 51.503906 55.773438 L 50.089844 54.105469 M 55.40625 69.945312 C 55.40625 69.558594 55.101562 69.363281 54.492188 69.363281 L 53.746094 69.78125 L 50.753906 70.195312 L 48.679688 70.695312 C 49.121094 73.976562 50.476562 75.617188 52.75 75.617188 C 53.359375 75.617188 53.996094 74.976562 54.660156 73.699219 C 55.269531 72.585938 55.574219 71.808594 55.574219 71.363281 L 55.242188 70.53125 L 55.40625 69.945312 M 54.910156 63.445312 L 54.824219 62.695312 L 54.328125 62.445312 L 53.496094 63.109375 C 53.109375 63.5 52.472656 63.695312 51.585938 63.695312 C 50.589844 63.695312 49.867188 63.277344 49.425781 62.445312 C 48.984375 62.445312 48.761719 63 48.761719 64.109375 C 48.484375 66.554688 49.371094 67.777344 51.417969 67.777344 C 52.195312 67.777344 53 67.113281 53.828125 65.777344 C 54.550781 64.667969 54.910156 63.886719 54.910156 63.445312 M 91.132812 66.363281 C 91.132812 65.195312 90.359375 64.609375 88.808594 64.609375 C 87.808594 64.609375 87.3125 65.222656 87.3125 66.445312 C 87.753906 67.835938 88.417969 68.53125 89.304688 68.53125 C 89.691406 68.53125 90.109375 68.195312 90.550781 67.527344 C 90.9375 66.972656 91.132812 66.585938 91.132812 66.363281 M 35.300781 70.195312 C 34.96875 69.195312 34.359375 68.695312 33.472656 68.695312 C 32.3125 68.695312 31.730469 69.722656 31.730469 71.78125 C 31.230469 72.890625 31.949219 73.449219 33.890625 73.449219 C 34.996094 73.449219 35.550781 72.863281 35.550781 71.699219 L 35.300781 70.195312 M 34.71875 56.691406 L 33.222656 57.441406 L 32.394531 58.523438 C 33.445312 60.191406 34.332031 61.027344 35.050781 61.027344 C 35.328125 61.027344 35.6875 60.664062 36.132812 59.941406 C 36.519531 59.332031 36.714844 58.914062 36.714844 58.691406 L 36.382812 57.691406 C 36.050781 57.023438 35.496094 56.691406 34.71875 56.691406 "/>
</g>
</svg>
