<?xml version="1.0" encoding="UTF-8"?>
<svg xmlns="http://www.w3.org/2000/svg" xmlns:xlink="http://www.w3.org/1999/xlink" width="576px" height="559px" viewBox="0 0 576 559" version="1.1">
<g id="surface1">
<path style=" stroke:none;fill-rule:evenodd;fill:rgb(0%,0%,0%);fill-opacity:1;" d="M 261.191406 206.039062 C 260.753906 205.570312 260.535156 205.164062 260.535156 204.824219 L 260.601562 204.441406 C 260.335938 203.289062 259.769531 202.011719 258.894531 200.605469 C 257.628906 198.605469 256.425781 197.601562 255.289062 197.601562 C 251.96875 197.601562 249.457031 198.988281 247.75 201.757812 L 247.160156 202.90625 L 247.226562 202.011719 L 246.832031 202.011719 L 246.832031 203.480469 C 246.351562 204.503906 246.113281 205.464844 246.113281 206.359375 C 246.113281 207.464844 246.921875 208.933594 248.539062 210.765625 C 250.546875 213.066406 252.820312 214.21875 255.355469 214.21875 C 256.492188 214.21875 257.386719 213.664062 258.042969 212.558594 C 258.742188 211.449219 259.375 210.894531 259.945312 210.894531 L 260.402344 211.023438 L 261.648438 209.746094 L 261.648438 209.871094 L 262.238281 210.128906 L 262.566406 209.746094 L 261.976562 209.488281 L 261.84375 209.554688 C 262.5 208.742188 262.828125 208.019531 262.828125 207.378906 L 261.78125 206.613281 L 262.042969 206.292969 C 261.910156 206.164062 261.625 206.082031 261.191406 206.039062 M 251.421875 209.167969 C 250.503906 208.402344 250.046875 207.273438 250.046875 205.78125 C 250.046875 203.054688 251.160156 201.691406 253.390625 201.691406 C 257.058594 201.691406 258.875 203.480469 258.828125 207.0625 L 258.828125 207.1875 C 258.785156 209.234375 257.648438 210.257812 255.421875 210.257812 L 252.800781 209.9375 L 252.863281 209.746094 L 251.421875 209.167969 M 254.699219 195.683594 C 258.675781 195.683594 261.34375 198.476562 262.695312 204.058594 L 262.695312 204.121094 C 263.703125 204.503906 264.378906 205.503906 264.730469 207.125 C 263.855469 211.214844 262.5 213.257812 260.664062 213.257812 L 260.402344 213.257812 L 259.617188 214.347656 C 258.523438 215.582031 257.210938 216.199219 255.683594 216.199219 C 251.707031 216.199219 248.625 214.664062 246.441406 211.597656 C 244.953125 209.511719 244.210938 207.699219 244.210938 206.164062 C 244.210938 204.546875 244.933594 202.628906 246.375 200.414062 C 248.429688 197.261719 251.203125 195.683594 254.699219 195.683594 M 287.277344 206.675781 C 288.457031 206.675781 289.507812 210.851562 290.425781 219.203125 L 290.425781 219.777344 L 290.359375 220.160156 L 290.6875 220.800781 C 290.6875 221.355469 285.597656 223.144531 275.414062 226.167969 L 274.957031 226.167969 C 274.167969 226.167969 273.25 225.488281 272.203125 224.125 L 270.824219 221.953125 C 270.824219 221.398438 271.195312 221.121094 271.941406 221.121094 L 272.269531 221.183594 L 275.609375 218.753906 L 280.332031 215.367188 L 279.9375 214.859375 C 279.9375 214.429688 280.175781 214.195312 280.660156 214.15625 L 280.855469 210.832031 C 280.855469 209.679688 281.007812 208.851562 281.3125 208.339844 L 281.117188 208.148438 L 281.050781 207.765625 C 281.050781 207.039062 282.273438 206.675781 284.722656 206.675781 L 286.820312 206.867188 L 287.277344 206.675781 M 283.019531 209.042969 L 283.410156 208.851562 L 284.328125 208.53125 L 283.019531 208.53125 L 283.019531 209.042969 M 282.625 214.601562 L 288.984375 218.691406 L 286.753906 209.617188 L 285.707031 210.0625 L 283.019531 210.960938 L 282.625 214.601562 M 276.332031 220.863281 L 276.332031 224.445312 L 288.195312 220.417969 C 287.148438 220.035156 285.660156 219.183594 283.738281 217.859375 L 281.902344 216.582031 L 277.378906 220.160156 L 276.332031 220.863281 M 273.710938 222.460938 L 274.367188 223.230469 L 274.429688 222.078125 L 273.710938 222.460938 M 256.929688 206.867188 C 256.929688 204.738281 255.640625 203.671875 253.0625 203.671875 C 252.316406 203.671875 251.945312 204.375 251.945312 205.78125 C 251.945312 206.164062 252.230469 206.65625 252.800781 207.253906 C 253.453125 207.933594 254.152344 208.273438 254.898438 208.273438 C 256.25 208.273438 256.929688 207.804688 256.929688 206.867188 "/>
<path style=" stroke:none;fill-rule:evenodd;fill:rgb(36.078432%,32.941177%,31.764707%);fill-opacity:1;" d="M 247.160156 202.90625 L 247.75 201.757812 C 249.457031 198.988281 251.96875 197.601562 255.289062 197.601562 C 256.425781 197.601562 257.628906 198.605469 258.894531 200.605469 C 259.769531 202.011719 260.335938 203.289062 260.601562 204.441406 L 260.535156 204.824219 C 260.535156 205.164062 260.753906 205.570312 261.191406 206.039062 L 260.863281 206.039062 L 260.601562 206.101562 L 260.601562 206.230469 C 259.417969 206.273438 258.828125 206.59375 258.828125 207.1875 L 258.828125 207.0625 C 258.875 203.480469 257.058594 201.691406 253.390625 201.691406 C 251.160156 201.691406 250.046875 203.054688 250.046875 205.78125 C 250.046875 207.273438 250.503906 208.402344 251.421875 209.167969 C 249.980469 208.445312 248.867188 207.488281 248.078125 206.292969 C 247.378906 205.144531 247.074219 204.015625 247.160156 202.90625 M 282.625 214.601562 L 283.019531 210.960938 L 285.707031 210.0625 L 286.753906 209.617188 L 288.984375 218.691406 L 282.625 214.601562 M 283.019531 209.042969 L 283.019531 208.53125 L 284.328125 208.53125 L 283.410156 208.851562 L 283.019531 209.042969 "/>
<path style=" stroke:none;fill-rule:evenodd;fill:rgb(17.254902%,20%,16.862746%);fill-opacity:1;" d="M 247.160156 202.90625 C 247.074219 204.015625 247.378906 205.144531 248.078125 206.292969 C 248.867188 207.488281 249.980469 208.445312 251.421875 209.167969 L 252.863281 209.746094 L 252.800781 209.9375 L 255.421875 210.257812 C 257.648438 210.257812 258.785156 209.234375 258.828125 207.1875 C 258.828125 206.59375 259.417969 206.273438 260.601562 206.230469 L 260.601562 206.101562 L 260.863281 206.039062 L 261.191406 206.039062 C 261.625 206.082031 261.910156 206.164062 262.042969 206.292969 L 261.78125 206.613281 L 262.828125 207.378906 C 262.828125 208.019531 262.5 208.742188 261.84375 209.554688 L 261.976562 209.488281 L 262.566406 209.746094 L 262.238281 210.128906 L 261.648438 209.871094 L 261.648438 209.746094 L 260.402344 211.023438 L 259.945312 210.894531 C 259.375 210.894531 258.742188 211.449219 258.042969 212.558594 C 257.386719 213.664062 256.492188 214.21875 255.355469 214.21875 C 252.820312 214.21875 250.546875 213.066406 248.539062 210.765625 C 246.921875 208.933594 246.113281 207.464844 246.113281 206.359375 C 246.113281 205.464844 246.351562 204.503906 246.832031 203.480469 L 246.832031 202.011719 L 247.226562 202.011719 L 247.160156 202.90625 M 273.710938 222.460938 L 274.429688 222.078125 L 274.367188 223.230469 L 273.710938 222.460938 M 276.332031 220.863281 L 277.378906 220.160156 L 281.902344 216.582031 L 283.738281 217.859375 C 285.660156 219.183594 287.148438 220.035156 288.195312 220.417969 L 276.332031 224.445312 L 276.332031 220.863281 "/>
</g>
</svg>
