<?xml version="1.0" encoding="UTF-8" standalone="no"?>
<!-- Created with Inkscape (http://www.inkscape.org/) -->

<svg
   width="0.94191056in"
   height="6.1409121in"
   viewBox="0 0 23.924528 155.97917"
   version="1.1"
   id="svg5"
   inkscape:version="1.1.2 (0a00cf5339, 2022-02-04)"
   sodipodi:docname="16.svg"
   xmlns:inkscape="http://www.inkscape.org/namespaces/inkscape"
   xmlns:sodipodi="http://sodipodi.sourceforge.net/DTD/sodipodi-0.dtd"
   xmlns="http://www.w3.org/2000/svg"
   xmlns:svg="http://www.w3.org/2000/svg">
  <sodipodi:namedview
     id="namedview7"
     pagecolor="#ffffff"
     bordercolor="#666666"
     borderopacity="1.0"
     inkscape:pageshadow="2"
     inkscape:pageopacity="0.0"
     inkscape:pagecheckerboard="0"
     inkscape:document-units="mm"
     showgrid="false"
     showguides="true"
     inkscape:guide-bbox="true"
     fit-margin-top="0"
     fit-margin-left="0"
     fit-margin-right="0"
     fit-margin-bottom="0"
     inkscape:zoom="1.0998546"
     inkscape:cx="42.278315"
     inkscape:cy="326.40677"
     inkscape:window-width="1253"
     inkscape:window-height="1403"
     inkscape:window-x="4534"
     inkscape:window-y="0"
     inkscape:window-maximized="0"
     inkscape:current-layer="layer1"
     units="in" />
  <defs
     id="defs2">
    <inkscape:path-effect
       effect="powerclip"
       id="path-effect257434"
       is_visible="true"
       lpeversion="1"
       inverse="true"
       flatten="false"
       hide_clip="false"
       message="Utilise la règle de remplissage « fill-rule: evenodd » de la boîte de dialogue &lt;b&gt;Fond et contour&lt;/b&gt; en l'absence de résultat de mise à plat après une conversion en chemin." />
    <clipPath
       clipPathUnits="userSpaceOnUse"
       id="clipPath257430">
      <path
         style="display:none;fill:none;stroke:#000000;stroke-width:0.26262px;stroke-linecap:butt;stroke-linejoin:miter;stroke-opacity:1"
         d="m 89.891483,86.320179 -2.29016,2.47232 -0.0591,7.462751 1.243341,-0.686305 0.356568,-0.277983 0.87458,-0.856347 2.496791,0.0061 0.641149,-0.380081 0.184362,-0.540775 0.0585,-0.671363 -0.005,-0.650398 0.42002,-0.273345 0.203351,-0.608568 0.0495,-0.522319 -0.0379,-0.531943 -0.0666,-0.461374 0.188219,-0.553526 0.251452,-0.534315 0.0994,-0.372855 -0.372481,-0.224452 -0.302979,-0.227126 -0.0351,-0.236284 0.40517,-0.418915 0.310991,-0.488296 -0.212511,-0.406737 -0.309909,-0.174333 -0.844571,-0.07385 -1.160129,0.01233 -0.556832,-2.6e-4 z"
         id="path257432" />
      <path
         id="lpe_path-effect257434"
         style="display:none;fill:none;stroke:#000000;stroke-width:0.26262px;stroke-linecap:butt;stroke-linejoin:miter;stroke-opacity:1"
         class="powerclip"
         d="M 76.828765,66.030399 H 110.75329 V 229.24923 H 76.828765 Z m 13.062718,20.28978 -2.29016,2.47232 -0.0591,7.462751 1.243341,-0.686305 0.356568,-0.277983 0.87458,-0.856347 2.496791,0.0061 0.641149,-0.380081 0.184362,-0.540775 0.0585,-0.671363 -0.005,-0.650398 0.42002,-0.273345 0.203351,-0.608568 0.0495,-0.522319 -0.0379,-0.531943 -0.0666,-0.461374 0.188219,-0.553526 0.251452,-0.534315 0.0994,-0.372855 -0.372481,-0.224452 -0.302979,-0.227126 -0.0351,-0.236284 0.40517,-0.418915 0.310991,-0.488296 -0.212511,-0.406737 -0.309909,-0.174333 -0.844571,-0.07385 -1.160129,0.01233 -0.556832,-2.6e-4 z" />
    </clipPath>
  </defs>
  <g
     inkscape:label="Calque 1"
     inkscape:groupmode="layer"
     id="layer1"
     transform="translate(-135.64408,-70.252832)">
    <path
       style="fill:#a6a7a5;fill-opacity:1;stroke:#000000;stroke-width:0.264583px;stroke-linecap:butt;stroke-linejoin:miter;stroke-opacity:1"
       d="m 143.63318,105.33602 -0.77405,3.04848 -0.8456,3.59795 -0.90887,4.19902 -0.86425,3.8918 -0.9498,4.40116 -0.66648,4.2122 -0.61165,4.29855 -0.63013,4.67109 -0.41567,4.35497 -0.32727,4.50858 -0.36449,5.1586 -0.18021,4.84871 0.51148,15.73562 0.64164,5.47938 0.86978,5.44774 1.28591,6.2409 1.42147,5.3921 1.81854,5.11656 2.82144,6.01626 2.85388,5.83573 2.10325,3.52734 2.20867,3.27939 1.78037,2.63648 c 0,0 1.00798,1.29861 2.41454,2.93832 l 0.65254,0.3392 -0.54073,-1.21841 -0.80124,-2.22648 -1.21223,-3.61394 -1.70691,-6.02706 -0.94604,-3.74172 -1.16338,-5.43639 -1.06681,-6.71908 -0.65814,-5.175 -0.61495,-5.01141 -0.58919,-5.31022 v 0 l -0.5178,-4.57532 -0.12598,-4.16768 -0.51774,-18.40971 0.043,-4.60363 0.0776,-4.96098 0.24814,-5.70472 -0.15722,-4.93446 0.16932,-5.80888 -0.11878,-4.78954 -0.0639,-5.72778 0.10125,-5.52401 -0.0197,-3.4985 -0.0526,-2.13252 z"
       id="path1154"
       sodipodi:nodetypes="ccccccccccccccccccccccccccccccccccccccccccccccccccc" />
    <path
       style="fill:#939693;fill-opacity:1;stroke:none;stroke-width:0.264583px;stroke-linecap:butt;stroke-linejoin:miter;stroke-opacity:1"
       d="m 144.19648,112.88027 -1.17617,4.66396 -0.88386,4.51194 -0.80444,5.19925 -0.83052,4.53669 -0.60682,5.45694 -0.20337,3.14901 -0.59225,4.93995 -0.13642,5.7423 -0.3986,6.62527 0.26739,11.75513 0.85357,7.31261 0.4117,5.60646 0.87923,4.51176 1.01033,4.60685 1.42648,5.00137 1.97949,5.19517 2.46752,5.39968 2.67882,5.8922 3.07434,5.11551 2.22854,3.82661 -2.15356,-6.65334 -1.60846,-5.32953 -1.15094,-5.42319 -1.34678,-8.02908 -1.11281,-8.61761 -1.09609,-9.23152 -0.40487,-6.98475 -0.68254,-16.32742 0.0802,-8.54636 0.15465,-6.72815 0.13196,-8.67353 c 0,0 -0.18742,-6.21762 -0.26271,-6.76183 -0.0753,-0.54421 0.0141,-6.31072 0.0141,-6.31072 l -0.10684,-4.98846 -0.0692,-2.66072 -0.27768,-1.25147 -0.88972,0.007 c 0,0 -0.60124,0.68983 -0.44054,1.06538 0.1607,0.37555 -0.42316,2.39682 -0.42316,2.39682 z"
       id="path1156"
       sodipodi:nodetypes="ccccccccccccccccccccccccccccccccscccccscc" />
    <path
       id="path32920"
       style="fill:#3d383b;fill-opacity:1;stroke:#000000;stroke-width:0.999999px;stroke-linecap:butt;stroke-linejoin:miter;stroke-opacity:1"
       d="M 33.701172 54.943359 L 30.960938 55.373047 L 30.740234 59.337891 L 33.496094 59.337891 L 36.759766 59.337891 C 36.759766 59.337891 40.103953 59.155566 40.419922 59.337891 C 40.735739 59.520215 43.412109 59.337891 43.412109 59.337891 L 43.232422 55.398438 L 40.847656 54.996094 L 37.25 54.996094 L 33.701172 54.943359 z M 43.851562 88.460938 L 43.074219 90.035156 L 41.865234 91.019531 L 40.283203 91.431641 L 38.224609 91.376953 L 36.423828 91.257812 L 35.041016 91.097656 L 33.347656 91.097656 C 33.347656 91.097656 31.901867 91.206771 31.712891 91.097656 C 31.523876 90.988541 30.701172 91.369141 30.701172 91.369141 L 30.701172 91.371094 L 30.671875 110.89648 L 30.71875 115.1543 L 29.574219 117.13281 C 29.574219 117.13281 23.630791 117.11523 22.271484 117.11523 C 20.912139 117.11523 15.181108 117.57031 13.564453 117.57031 C 11.947798 117.57031 6.6582031 117.94141 6.6582031 117.94141 C 6.6582031 117.94141 2.9660065 119.65373 1.5175781 120.27539 C 0.069149779 120.89705 0.8046875 123.42383 0.8046875 123.42383 L 0.38671875 127.49414 L 1.7148438 130.36523 L 3.7246094 132.01367 C 3.7246094 132.01367 9.24682 132.625 10.222656 132.625 L 16.060547 132.625 L 24.078125 132.61328 L 30.195312 132.59766 L 43.742188 132.74219 L 51.537109 132.85742 L 57.625 133.00586 L 64.630859 133.01953 L 69.681641 132.70312 L 73.621094 131.04688 L 74.318359 128.60938 L 73.810547 123.46484 L 71.658203 120.85938 L 68.835938 119.0918 L 66.816406 118.57031 L 62.658203 117.625 L 57.425781 117.25781 L 53.423828 116.94531 L 44.9375 116.74609 L 44.123047 114.44922 L 43.929688 101.49219 L 43.851562 88.460938 z "
       transform="matrix(0.26458333,0,0,0.26458333,135.64408,70.252832)" />
    <g
       id="g256664"
       transform="matrix(1,0,0,1.0150047,53.815317,-1.5609522)"
       clip-path="url(#clipPath257430)"
       inkscape:path-effect="#path-effect257434">
      <g
         id="g185524"
         transform="matrix(1.1503353,0,0,1.3176967,13.26678,-22.164793)">
        <path
           style="fill:#3d3d42;fill-opacity:1;stroke:#000000;stroke-width:0.264583px;stroke-linecap:butt;stroke-linejoin:miter;stroke-opacity:1"
           d="m 75.406872,162.41649 1.123727,0.45124 0.723149,0.21482 1.017473,0.36923 1.172025,0.5057 0.701476,0.32595 -2.287465,1.73692 -2.129982,1.36161 -0.218169,-0.62165 -0.172194,-0.58935 -0.08311,-0.48092 -0.08062,-0.54057 -0.06196,-0.57147 0.01537,-0.4786 0.0088,-0.44968 0.0796,-0.50749 z"
           id="path87922"
           sodipodi:nodetypes="ccccccccccccccccc"
           inkscape:original-d="m 75.406872,162.41649 1.123727,0.45124 0.723149,0.21482 1.017473,0.36923 1.172025,0.5057 0.701476,0.32595 -2.287465,1.73692 -2.129982,1.36161 -0.218169,-0.62165 -0.172194,-0.58935 -0.08311,-0.48092 -0.08062,-0.54057 -0.06196,-0.57147 0.01537,-0.4786 0.0088,-0.44968 0.0796,-0.50749 z" />
        <path
           style="fill:#2f2a2f;fill-opacity:1;stroke:#000000;stroke-width:0.264583px;stroke-linecap:butt;stroke-linejoin:miter;stroke-opacity:1"
           d="m 67.40627,171.70456 -1.835191,1.0621 -0.961045,0.73592 -0.649127,0.49208 -0.70098,0.41446 0.324624,0.16969 0.442846,0.20327 c 0,0 0.711665,0.36526 1.035523,0.42541 0.323857,0.0601 1.045103,0.26379 1.045103,0.26379 0,0 0.53269,0.0571 0.780887,0.11721 0.248197,0.0601 1.193847,0.16943 1.193847,0.16943 l 0.597925,0.10288 0.309527,-0.73301 0.140727,-0.44326 0.03994,-0.54619 -0.137173,-0.82476 -0.220131,-0.7042 -0.404605,-0.49607 -0.664075,-0.62982 z"
           id="path87924"
           sodipodi:nodetypes="cccccccccccccccccccc"
           inkscape:original-d="m 67.40627,171.70456 -1.835191,1.0621 -0.961045,0.73592 -0.649127,0.49208 -0.70098,0.41446 0.324624,0.16969 0.442846,0.20327 c 0,0 0.711665,0.36526 1.035523,0.42541 0.323857,0.0601 1.045103,0.26379 1.045103,0.26379 0,0 0.53269,0.0571 0.780887,0.11721 0.248197,0.0601 1.193847,0.16943 1.193847,0.16943 l 0.597925,0.10288 0.309527,-0.73301 0.140727,-0.44326 0.03994,-0.54619 -0.137173,-0.82476 -0.220131,-0.7042 -0.404605,-0.49607 -0.664075,-0.62982 z" />
        <path
           style="fill:#2f2a2f;fill-opacity:1;stroke:#000000;stroke-width:0.264583px;stroke-linecap:butt;stroke-linejoin:miter;stroke-opacity:1"
           d="m 67.385437,155.12366 -0.761785,0.82311 -2.594455,2.98479 4.230377,0.1394 0.48503,-0.47679 0.29298,-0.47671 -0.06014,-0.31916 -0.05299,-0.52111 -0.166576,-0.81841 -0.410206,-0.58194 -0.234998,-0.19242 -0.397021,-0.26174 z"
           id="path90406"
           inkscape:original-d="m 67.385437,155.12366 -0.761785,0.82311 -2.594455,2.98479 4.230377,0.1394 0.48503,-0.47679 0.29298,-0.47671 -0.06014,-0.31916 -0.05299,-0.52111 -0.166576,-0.81841 -0.410206,-0.58194 -0.234998,-0.19242 -0.397021,-0.26174 z" />
        <path
           style="fill:#2f2a2f;fill-opacity:1;stroke:#000000;stroke-width:0.264583px;stroke-linecap:butt;stroke-linejoin:miter;stroke-opacity:1"
           d="m 68.251499,140.62971 -0.611903,0.21704 -0.747396,0.24268 -2.499341,1.0137 3.887829,2.33246 v 0 0 l 0.187424,-0.40902 0.07712,-0.31212 0.0936,-0.38836 c 0.128627,-0.85346 0.09923,-1.01276 0.06515,-1.79834 l -0.154006,-0.48244 z"
           id="path90408"
           sodipodi:nodetypes="ccccccccccccc"
           inkscape:original-d="m 68.251499,140.62971 -0.611903,0.21704 -0.747396,0.24268 -2.499341,1.0137 3.887829,2.33246 v 0 0 l 0.187424,-0.40902 0.07712,-0.31212 0.0936,-0.38836 c 0.128627,-0.85346 0.09923,-1.01276 0.06515,-1.79834 l -0.154006,-0.48244 z" />
        <path
           style="fill:#312f35;fill-opacity:1;stroke:#000000;stroke-width:0.264583px;stroke-linecap:butt;stroke-linejoin:miter;stroke-opacity:1"
           d="m 62.269975,148.96613 -2.457649,0.27937 2.377539,4.34369 z"
           id="path92965"
           inkscape:original-d="m 62.269975,148.96613 -2.457649,0.27937 2.377539,4.34369 z" />
        <path
           style="fill:#312f35;fill-opacity:1;stroke:#000000;stroke-width:0.264583px;stroke-linecap:butt;stroke-linejoin:miter;stroke-opacity:1"
           d="m 62.069452,163.64052 -2.266221,1.90129 2.299576,2.3168 z"
           id="path92967"
           inkscape:original-d="m 62.069452,163.64052 -2.266221,1.90129 2.299576,2.3168 z" />
        <path
           style="fill:#312f36;fill-opacity:1;stroke:#000000;stroke-width:0.264583px;stroke-linecap:butt;stroke-linejoin:miter;stroke-opacity:1"
           d="m 62.851548,177.89278 -1.319794,1.87034 2.627814,0.8736 -0.857575,-3.25022 z"
           id="path92969"
           inkscape:original-d="m 62.851548,177.89278 -1.319794,1.87034 2.627814,0.8736 -0.857575,-3.25022 z" />
        <path
           style="fill:#3d3d42;fill-opacity:1;stroke:#000000;stroke-width:0.264583px;stroke-linecap:butt;stroke-linejoin:miter;stroke-opacity:1"
           d="m 74.433654,151.30443 1.361921,0.0756 -1.218441,1.82299 z"
           id="path92971"
           sodipodi:nodetypes="cccc"
           inkscape:original-d="m 74.433654,151.30443 1.361921,0.0756 -1.218441,1.82299 z" />
      </g>
    </g>
  </g>
</svg>
