<?xml version="1.0" encoding="UTF-8"?>
<svg xmlns="http://www.w3.org/2000/svg" xmlns:xlink="http://www.w3.org/1999/xlink" width="576px" height="559px" viewBox="0 0 576 559" version="1.1">
<g id="surface1">
<path style=" stroke:none;fill-rule:evenodd;fill:rgb(0%,0%,0%);fill-opacity:1;" d="M 203.636719 200.605469 C 203.636719 199.539062 216.789062 196.792969 243.097656 192.363281 C 243.535156 192.363281 243.839844 192.53125 244.015625 192.875 L 244.277344 192.808594 C 245.542969 192.808594 248.429688 194.664062 252.929688 198.371094 C 256.425781 200.5 258.699219 202.035156 259.746094 202.96875 C 260.273438 202.542969 260.863281 202.332031 261.515625 202.332031 C 263.441406 202.332031 264.378906 204.015625 264.335938 207.378906 C 264.335938 211.46875 262.851562 213.515625 259.878906 213.515625 C 259.222656 213.515625 258.675781 213.28125 258.238281 212.8125 C 257.453125 213.453125 254.21875 214.429688 248.539062 215.753906 L 242.902344 217.667969 C 242.902344 218.222656 242.464844 218.5 241.589844 218.5 C 239.667969 218.5 227.015625 212.8125 203.636719 201.4375 L 203.765625 201.117188 L 203.636719 200.605469 M 236.609375 195.367188 L 223.957031 197.15625 L 210.320312 200.414062 L 222.054688 203.355469 C 229.789062 205.441406 237.789062 206.71875 246.046875 207.1875 L 246.636719 206.484375 C 245.894531 205.503906 245.0625 203.78125 244.144531 201.308594 C 243.359375 199.265625 242.683594 197.199219 242.113281 195.109375 L 242.246094 194.277344 L 236.609375 195.367188 M 243.164062 193.960938 L 248.800781 206.230469 L 248.800781 206.421875 L 257.257812 207.570312 L 257.910156 205.65625 L 258.503906 204.441406 L 251.292969 199.648438 C 246.527344 196.453125 243.90625 194.511719 243.425781 193.832031 L 243.164062 193.960938 M 282.886719 213.898438 L 284.722656 215.625 C 285.945312 217.117188 286.972656 217.859375 287.804688 217.859375 C 290.820312 217.859375 292.828125 216.007812 293.835938 212.300781 C 293.835938 211.621094 293.679688 210.894531 293.375 210.128906 L 293.507812 209.296875 C 293.507812 208.699219 293.179688 208.402344 292.523438 208.402344 L 292.390625 208.273438 C 291.082031 206.230469 289.246094 205.207031 286.886719 205.207031 C 285.398438 205.207031 284.351562 205.421875 283.738281 205.847656 L 282.820312 206.359375 L 282.820312 206.550781 L 282.164062 212.492188 L 282.035156 212.941406 L 282.101562 213.003906 L 281.96875 213.453125 L 282.886719 213.898438 M 290.621094 210.257812 L 290.6875 210.574219 L 290.882812 212.683594 C 290.882812 214.304688 289.921875 215.113281 288 215.113281 C 286.953125 215.113281 286.054688 214.582031 285.3125 213.515625 L 285.378906 213.132812 C 285.378906 212.75 285.179688 212.472656 284.789062 212.300781 L 284.328125 211.152344 C 284.328125 208.722656 285.226562 207.507812 287.015625 207.507812 C 288.941406 207.507812 290.140625 208.425781 290.621094 210.257812 M 286.820312 209.617188 L 286.035156 211.214844 L 286.886719 212.492188 L 288.132812 213.324219 C 288.832031 213.324219 289.179688 213.027344 289.179688 212.429688 L 288.261719 210.832031 L 287.015625 209.617188 L 286.820312 209.617188 M 281.117188 206.230469 L 280.855469 205.71875 C 280.855469 205.421875 281.359375 204.996094 282.363281 204.441406 C 283.5 203.800781 284.65625 203.480469 285.835938 203.480469 C 292.304688 203.480469 295.539062 206.441406 295.539062 212.363281 C 294.226562 217.222656 291.800781 219.652344 288.261719 219.652344 C 286.734375 219.652344 285.007812 218.796875 283.082031 217.09375 C 281.421875 215.644531 280.59375 214.773438 280.59375 214.472656 L 280.722656 213.898438 L 280.59375 213.132812 L 280.59375 211.34375 L 280.722656 208.148438 L 281.117188 206.230469 M 261.125 204.121094 C 260.554688 204.121094 259.988281 204.929688 259.417969 206.550781 C 258.984375 207.828125 258.765625 208.679688 258.765625 209.105469 L 259.289062 211.34375 L 260.007812 211.46875 C 260.882812 211.46875 261.734375 210.339844 262.566406 208.082031 L 262.238281 204.886719 L 262.042969 204.183594 L 261.125 204.121094 M 257.453125 211.40625 L 256.996094 209.234375 L 257.058594 208.851562 L 255.945312 208.851562 L 250.375 208.210938 L 248.078125 207.765625 L 241.785156 216.328125 L 246.898438 214.347656 C 252.054688 212.558594 255.597656 211.640625 257.519531 211.597656 L 257.453125 211.40625 M 242.179688 208.082031 C 238.859375 208.082031 232.28125 207.167969 222.449219 205.335938 L 210.910156 202.777344 L 224.875 209.425781 L 234.378906 213.257812 L 240.34375 215.945312 L 243.359375 210.960938 L 245.390625 208.082031 L 242.179688 208.082031 "/>
<path style=" stroke:none;fill-rule:evenodd;fill:rgb(36.078432%,32.941177%,31.764707%);fill-opacity:1;" d="M 243.164062 193.960938 L 243.425781 193.832031 C 243.90625 194.511719 246.527344 196.453125 251.292969 199.648438 L 258.503906 204.441406 L 257.910156 205.65625 L 257.257812 207.570312 L 248.800781 206.421875 L 248.800781 206.230469 L 243.164062 193.960938 M 236.609375 195.367188 L 242.246094 194.277344 L 242.113281 195.109375 C 242.683594 197.199219 243.359375 199.265625 244.144531 201.308594 C 245.0625 203.78125 245.894531 205.503906 246.636719 206.484375 L 246.046875 207.1875 C 237.789062 206.71875 229.789062 205.441406 222.054688 203.355469 L 210.320312 200.414062 L 223.957031 197.15625 L 236.609375 195.367188 M 282.886719 213.898438 L 281.96875 213.453125 L 282.101562 213.003906 L 282.296875 213.453125 L 282.953125 213.835938 L 282.886719 213.898438 M 282.164062 212.492188 L 282.820312 206.550781 L 282.820312 206.359375 L 283.738281 205.847656 C 284.351562 205.421875 285.398438 205.207031 286.886719 205.207031 C 289.246094 205.207031 291.082031 206.230469 292.390625 208.273438 L 292.523438 208.402344 C 292.171875 208.445312 291.757812 208.722656 291.277344 209.234375 L 290.621094 210.191406 L 290.621094 210.257812 C 290.140625 208.425781 288.941406 207.507812 287.015625 207.507812 C 285.226562 207.507812 284.328125 208.722656 284.328125 211.152344 L 284.789062 212.300781 L 283.148438 212.046875 C 282.625 212.046875 282.296875 212.195312 282.164062 212.492188 "/>
<path style=" stroke:none;fill-rule:evenodd;fill:rgb(17.254902%,20%,16.862746%);fill-opacity:1;" d="M 292.523438 208.402344 C 293.179688 208.402344 293.507812 208.699219 293.507812 209.296875 L 293.375 210.128906 C 293.679688 210.894531 293.835938 211.621094 293.835938 212.300781 C 292.828125 216.007812 290.820312 217.859375 287.804688 217.859375 C 286.972656 217.859375 285.945312 217.117188 284.722656 215.625 L 282.886719 213.898438 L 282.953125 213.835938 L 282.296875 213.453125 L 282.101562 213.003906 L 282.035156 212.941406 L 282.164062 212.492188 C 282.296875 212.195312 282.625 212.046875 283.148438 212.046875 L 284.789062 212.300781 C 285.179688 212.472656 285.378906 212.75 285.378906 213.132812 L 285.3125 213.515625 C 286.054688 214.582031 286.953125 215.113281 288 215.113281 C 289.921875 215.113281 290.882812 214.304688 290.882812 212.683594 L 290.6875 210.574219 L 290.621094 210.257812 L 290.621094 210.191406 L 291.277344 209.234375 C 291.757812 208.722656 292.171875 208.445312 292.523438 208.402344 M 257.519531 211.597656 C 255.597656 211.640625 252.054688 212.558594 246.898438 214.347656 L 241.785156 216.328125 L 248.078125 207.765625 L 250.375 208.210938 L 255.945312 208.851562 L 257.058594 208.851562 L 256.996094 209.234375 L 257.453125 211.40625 L 257.519531 211.597656 M 261.125 204.121094 L 262.042969 204.183594 L 262.238281 204.886719 L 262.566406 208.082031 C 261.734375 210.339844 260.882812 211.46875 260.007812 211.46875 L 259.289062 211.34375 L 258.765625 209.105469 C 258.765625 208.679688 258.984375 207.828125 259.417969 206.550781 C 259.988281 204.929688 260.554688 204.121094 261.125 204.121094 M 242.179688 208.082031 L 245.390625 208.082031 L 243.359375 210.960938 L 240.34375 215.945312 L 234.378906 213.257812 L 224.875 209.425781 L 210.910156 202.777344 L 222.449219 205.335938 C 232.28125 207.167969 238.859375 208.082031 242.179688 208.082031 "/>
</g>
</svg>
