<?xml version="1.0" encoding="UTF-8"?>
<svg xmlns="http://www.w3.org/2000/svg" xmlns:xlink="http://www.w3.org/1999/xlink" width="576px" height="559px" viewBox="0 0 576 559" version="1.1">
<g id="surface1">
<path style=" stroke:none;fill-rule:evenodd;fill:rgb(60.000002%,60.000002%,60.000002%);fill-opacity:1;" d="M 260.273438 206.101562 L 260.207031 206.550781 L 261.386719 208.785156 L 262.566406 208.148438 L 263.417969 207.445312 L 264.007812 208.273438 L 263.417969 208.914062 L 262.828125 209.679688 L 261.648438 210.0625 L 260.664062 210.128906 L 260.535156 209.363281 L 260.46875 209.234375 L 259.683594 207.125 L 259.417969 206.675781 L 259.683594 206.230469 L 260.007812 206.101562 L 260.273438 206.101562 M 261.78125 206.230469 L 262.304688 206.996094 L 261.582031 207.507812 C 261.320312 207.253906 261.191406 206.953125 261.191406 206.613281 C 261.191406 206.316406 261.386719 206.1875 261.78125 206.230469 M 259.8125 210.574219 L 259.945312 210.703125 L 260.140625 210.832031 L 261.78125 211.085938 L 261.910156 211.085938 L 261.78125 211.40625 L 262.042969 212.238281 L 262.105469 212.363281 L 261.78125 212.363281 C 260.6875 212.363281 260.054688 212.75 259.878906 213.515625 C 259.308594 213.769531 259.027344 214.238281 259.027344 214.921875 L 259.289062 215.945312 L 259.15625 217.03125 L 259.222656 217.796875 L 259.15625 218.949219 L 259.222656 220.863281 C 259.398438 221.632812 259.769531 222.144531 260.335938 222.398438 L 260.273438 222.910156 L 140.445312 463.777344 L 140.183594 463.714844 C 139.832031 463.714844 138.761719 465.355469 136.96875 468.632812 C 134.871094 471.277344 133.320312 472.960938 132.316406 473.683594 C 128.601562 476.324219 125.847656 477.816406 124.054688 478.15625 L 116.714844 480.839844 L 127.007812 471.828125 C 132.730469 465.609375 135.59375 462.03125 135.59375 461.09375 L 135.132812 460.644531 L 255.09375 220.097656 C 255.617188 219.714844 255.96875 219.183594 256.140625 218.5 L 256.535156 217.285156 C 257.410156 216.648438 257.910156 215.601562 258.042969 214.15625 L 259.8125 210.574219 "/>
<path style=" stroke:none;fill-rule:evenodd;fill:rgb(0%,0%,0%);fill-opacity:1;" d="M 261.78125 206.230469 C 261.386719 206.1875 261.191406 206.316406 261.191406 206.613281 C 261.191406 206.953125 261.320312 207.253906 261.582031 207.507812 L 262.304688 206.996094 L 261.78125 206.230469 M 263.417969 207.445312 L 262.566406 208.148438 L 261.386719 208.785156 L 260.207031 206.550781 L 260.273438 206.101562 L 262.632812 206.101562 L 263.417969 207.445312 M 259.417969 206.675781 L 259.683594 207.125 L 260.46875 209.234375 L 260.535156 209.363281 L 260.664062 210.128906 L 261.648438 210.0625 L 262.828125 209.679688 L 261.910156 211.085938 L 261.78125 211.085938 L 260.140625 210.832031 L 259.945312 210.703125 L 259.8125 210.574219 L 258.828125 207.765625 L 259.417969 206.675781 M 135.132812 460.644531 L 135.59375 461.09375 C 135.59375 462.03125 132.730469 465.609375 127.007812 471.828125 L 116.714844 480.839844 L 124.054688 478.15625 C 125.847656 477.816406 128.601562 476.324219 132.316406 473.683594 C 133.320312 472.960938 134.871094 471.277344 136.96875 468.632812 C 138.761719 465.355469 139.832031 463.714844 140.183594 463.714844 L 140.445312 463.777344 L 140.707031 464.160156 C 140.707031 465.480469 139.789062 467.144531 137.953125 469.144531 L 133.429688 474.066406 C 132.554688 475.257812 129.695312 476.898438 124.84375 478.988281 C 121.042969 480.648438 118.222656 481.652344 116.386719 481.992188 L 116.320312 481.992188 L 115.273438 482.4375 L 114.945312 482.246094 L 114.75 482.566406 L 114.160156 482.117188 L 117.960938 476.238281 L 121.171875 470.488281 L 124.972656 463.394531 C 126.589844 460.371094 127.859375 458.855469 128.777344 458.855469 C 129.125 458.855469 129.300781 459.027344 129.300781 459.367188 L 125.238281 465.246094 L 122.023438 471.128906 C 121.28125 472.234375 120.167969 474.171875 118.679688 476.941406 C 118.289062 477.324219 117.699219 478.113281 116.910156 479.308594 L 126.417969 471.0625 C 128.25 469.488281 130.132812 467.207031 132.054688 464.226562 C 133.582031 461.839844 134.566406 460.644531 135.003906 460.644531 L 135.132812 460.644531 "/>
<path style=" stroke:none;fill-rule:evenodd;fill:rgb(40.000001%,40.000001%,40.000001%);fill-opacity:1;" d="M 259.8125 210.574219 L 258.042969 214.15625 L 258.042969 213.515625 L 257.847656 210.128906 L 257.847656 209.488281 L 258.632812 208.019531 L 258.828125 207.765625 L 259.8125 210.574219 M 255.09375 220.097656 L 135.132812 460.644531 L 135.003906 460.644531 C 134.566406 460.644531 133.582031 461.839844 132.054688 464.226562 C 130.132812 467.207031 128.25 469.488281 126.417969 471.0625 L 116.910156 479.308594 C 117.699219 478.113281 118.289062 477.324219 118.679688 476.941406 C 120.167969 474.171875 121.28125 472.234375 122.023438 471.128906 L 125.238281 465.246094 L 129.300781 459.367188 C 129.300781 459.027344 129.125 458.855469 128.777344 458.855469 L 249.195312 219.714844 L 249.390625 219.96875 C 249.914062 220.652344 250.703125 220.992188 251.75 220.992188 L 253.914062 220.609375 L 255.09375 220.097656 M 254.371094 214.089844 L 254.042969 214.410156 C 253.609375 214.410156 253.300781 214.195312 253.125 213.769531 L 254.242188 212.75 L 254.242188 213.386719 L 254.371094 214.089844 "/>
<path style="fill:none;stroke-width:1;stroke-linecap:round;stroke-linejoin:round;stroke:rgb(0%,0%,0%);stroke-opacity:1;stroke-miterlimit:4;" d="M 111.149614 7.198898 L 109.79988 10.001405 M 107.550325 14.649838 L 16.048535 202.848724 M 20.100715 205.299772 L 111.5012 16.85028 M 103.051214 14.350334 L 11.200817 201.448999 " transform="matrix(1.311023,0,0,1.278152,114.092816,201.372929)"/>
</g>
</svg>
