<?xml version="1.0" encoding="UTF-8" standalone="no"?>
<svg
   xmlns:dc="http://purl.org/dc/elements/1.1/"
   xmlns:cc="http://creativecommons.org/ns#"
   xmlns:rdf="http://www.w3.org/1999/02/22-rdf-syntax-ns#"
   xmlns:svg="http://www.w3.org/2000/svg"
   xmlns="http://www.w3.org/2000/svg"
   xmlns:sodipodi="http://sodipodi.sourceforge.net/DTD/sodipodi-0.dtd"
   xmlns:inkscape="http://www.inkscape.org/namespaces/inkscape"
   width="576px"
   height="559px"
   viewBox="0 0 576 559"
   version="1.1"
   id="svg23"
   sodipodi:docname="6.svg"
   inkscape:version="1.0.1 (0767f8302a, 2020-10-17)">
  <metadata
     id="metadata29">
    <rdf:RDF>
      <cc:Work
         rdf:about="">
        <dc:format>image/svg+xml</dc:format>
        <dc:type
           rdf:resource="http://purl.org/dc/dcmitype/StillImage" />
      </cc:Work>
    </rdf:RDF>
  </metadata>
  <defs
     id="defs27" />
  <sodipodi:namedview
     pagecolor="#ffffff"
     bordercolor="#666666"
     borderopacity="1"
     objecttolerance="10"
     gridtolerance="10"
     guidetolerance="10"
     inkscape:pageopacity="0"
     inkscape:pageshadow="2"
     inkscape:window-width="1647"
     inkscape:window-height="1177"
     id="namedview25"
     showgrid="false"
     inkscape:zoom="0.90161002"
     inkscape:cx="359.42058"
     inkscape:cy="348.55022"
     inkscape:window-x="2139"
     inkscape:window-y="58"
     inkscape:window-maximized="0"
     inkscape:current-layer="svg23" />
  <g
     id="surface1">
    <path
       style=" stroke:none;fill-rule:evenodd;fill:rgb(0%,0%,0%);fill-opacity:1;"
       d="M 338.410156 149.03125 L 338.671875 148.714844 L 338.410156 148.96875 C 337.535156 147.902344 336.160156 147.050781 334.277344 146.414062 L 316.90625 159.195312 C 318.832031 159.449219 320.230469 160.238281 321.101562 161.558594 L 321.039062 161.621094 L 321.167969 161.6875 L 321.957031 163.476562 L 322.21875 167.695312 L 340.636719 154.402344 L 339.0625 150.246094 L 338.410156 149.03125 M 319.59375 163.21875 L 319.859375 162.902344 L 319.660156 162.707031 L 319.398438 162.964844 C 318.570312 161.855469 317.28125 160.941406 315.53125 160.214844 L 312.253906 162.582031 C 314.132812 163.050781 315.617188 164.03125 316.710938 165.519531 L 316.515625 165.839844 L 316.84375 165.96875 L 316.90625 165.902344 C 317.695312 167.097656 318.242188 168.609375 318.546875 170.441406 L 320.90625 168.714844 L 320.644531 167.820312 L 320.449219 165.265625 C 320.316406 164.5 320.03125 163.816406 319.59375 163.21875 M 315.007812 166.925781 L 315.136719 166.800781 L 314.875 166.671875 L 314.808594 166.542969 C 313.9375 165.308594 312.710938 164.265625 311.140625 163.410156 L 292 177.472656 L 291.800781 177.597656 L 292.0625 177.535156 C 293.679688 177.535156 294.96875 178.324219 295.933594 179.898438 C 296.71875 181.222656 297.285156 183.074219 297.636719 185.460938 L 316.515625 171.847656 L 316.449219 171.65625 L 315.664062 168.332031 L 315.007812 166.925781 M 287.214844 186.289062 L 287.410156 192.488281 L 287.738281 192.554688 L 296.257812 186.417969 L 295.339844 182.457031 L 294.949219 181.433594 C 294.25 180.027344 293.136719 178.8125 291.605469 177.789062 L 285.050781 182.585938 C 286.097656 183.308594 286.820312 184.523438 287.214844 186.226562 L 287.214844 186.289062 M 282.691406 181.753906 L 282.691406 181.113281 L 308.714844 162.390625 L 344.441406 136.507812 L 344.964844 136.125 L 411.5625 87.363281 L 411.5 87.171875 L 411.433594 86.914062 L 412.152344 86.785156 L 412.351562 86.785156 L 435.292969 69.980469 L 435.292969 69.53125 L 436.015625 69.402344 L 473.773438 41.730469 L 473.773438 41.476562 C 480.9375 27.714844 484.585938 20.832031 484.71875 20.832031 C 489.175781 20.832031 492.976562 21.964844 496.125 24.222656 L 515.660156 11.503906 C 522.214844 6.433594 527.65625 3.132812 531.980469 1.597656 C 534.953125 0.53125 538.753906 0 543.386719 0 C 548.367188 0 552.476562 0.703125 555.710938 2.109375 L 555.84375 1.851562 C 556.234375 1.851562 556.476562 2.066406 556.5625 2.492188 C 559.359375 3.898438 561.390625 5.902344 562.660156 8.5 C 563.925781 9.480469 565.390625 11.398438 567.050781 14.25 C 569.105469 17.789062 570.722656 21.238281 571.902344 24.605469 L 575.441406 34.382812 L 575.769531 41.414062 L 575.441406 49.527344 L 575.769531 49.847656 L 575.636719 50.421875 L 575.3125 50.550781 L 574.984375 52.789062 L 573.015625 66.144531 L 571.769531 71.191406 L 572.296875 71.640625 L 572.164062 72.023438 L 571.441406 72.28125 L 571.378906 72.28125 C 570.632812 74.152344 569.652344 76.15625 568.429688 78.285156 L 560.300781 90.875 C 557.851562 94.539062 554.925781 97.992188 551.515625 101.230469 L 551.648438 101.742188 L 551.582031 102.316406 C 551.625 102.488281 551.429688 102.570312 550.992188 102.570312 C 550.773438 102.570312 550.554688 102.507812 550.335938 102.378906 C 545.136719 107.066406 538.90625 111.347656 531.652344 115.226562 C 524.921875 118.804688 519.65625 122.746094 515.855469 127.046875 C 512.054688 131.351562 510.195312 135.503906 510.285156 139.511719 L 509.695312 139.765625 L 509.5625 139.703125 L 510.875 142.003906 L 510.347656 144.429688 L 510.875 145.773438 C 510.785156 146.113281 509.585938 146.371094 507.269531 146.539062 L 507.859375 148.90625 L 508.1875 149.289062 L 507.792969 149.734375 L 507.792969 149.863281 L 507.464844 150.054688 L 507.007812 150.054688 L 506.285156 149.925781 L 506.351562 149.609375 L 505.828125 149.351562 C 505.257812 149.351562 504.820312 149.609375 504.515625 150.117188 C 504.210938 150.628906 503.75 150.886719 503.140625 150.886719 C 502.351562 150.886719 501.851562 150.628906 501.632812 150.117188 L 501.304688 149.03125 L 499.730469 150.054688 C 499.335938 150.054688 498.964844 149.714844 498.617188 149.03125 L 497.828125 149.542969 C 497.4375 149.542969 497.128906 149.332031 496.910156 148.90625 C 496.691406 148.5625 496.648438 148.265625 496.78125 148.011719 L 495.535156 148.519531 C 494.792969 148.519531 494.398438 148.246094 494.355469 147.691406 L 494.550781 146.21875 L 494.550781 146.15625 L 492.78125 146.667969 L 491.667969 146.539062 L 491.601562 145.835938 C 491.601562 145.410156 491.820312 144.644531 492.257812 143.535156 C 489.679688 143.535156 488.390625 143.132812 488.390625 142.324219 C 488.390625 141.683594 488.585938 141.191406 488.980469 140.851562 L 490.816406 139.382812 C 490.289062 139.210938 489.941406 139 489.765625 138.742188 C 490.074219 138.105469 490.988281 137.378906 492.519531 136.570312 L 492.714844 136.507812 L 492.714844 136.441406 C 492.714844 136.015625 493.066406 135.804688 493.765625 135.804688 L 494.222656 135.804688 L 495.273438 135.546875 L 495.730469 135.675781 L 495.667969 135.421875 C 495.667969 133.589844 497.9375 129.582031 502.484375 123.40625 C 506.546875 117.953125 509.257812 114.648438 510.613281 113.5 L 538.667969 91.707031 C 545.921875 86.296875 551.886719 79.054688 556.5625 69.980469 C 559.183594 64.910156 560.867188 61.011719 561.609375 58.285156 C 562.222656 55.855469 562.527344 52.53125 562.527344 48.3125 C 562.527344 46.054688 561.851562 41.285156 560.496094 34 C 560.191406 32.378906 559.972656 29.992188 559.839844 26.839844 L 557.351562 21.984375 L 557.023438 21.984375 L 554.269531 18.46875 C 551.953125 16.125 548.390625 14.953125 543.582031 14.953125 C 541.355469 14.953125 539.28125 15.253906 537.355469 15.847656 C 536.351562 17.597656 535.257812 18.46875 534.078125 18.46875 L 533.554688 18.339844 L 533.292969 17.765625 L 531 19.300781 L 520.378906 24.027344 C 519.636719 24.964844 518.957031 25.476562 518.347656 25.5625 L 517.953125 25.242188 C 515.855469 26.351562 513.210938 27.96875 510.023438 30.101562 L 503.792969 33.808594 L 503.335938 33.679688 L 503.269531 33.617188 C 504.320312 36.085938 505.082031 38.835938 505.5625 41.859375 L 505.957031 46.078125 C 496.691406 50.890625 489.964844 53.300781 485.769531 53.300781 L 481.308594 53.234375 C 441.804688 82.589844 387.617188 122.53125 318.742188 173.0625 L 318.742188 173.957031 C 318.65625 174.210938 318.285156 174.382812 317.628906 174.46875 L 317.367188 174.085938 L 289.835938 194.214844 L 288.328125 194.214844 L 286.6875 195.175781 L 285.3125 195.175781 C 285.09375 195.175781 284.984375 194.917969 284.984375 194.40625 C 284.984375 193.554688 285.335938 192.234375 286.035156 190.445312 C 286.035156 189.464844 285.421875 187.867188 284.199219 185.652344 L 283.214844 183.925781 L 282.691406 184.308594 L 282.691406 183.222656 L 281.183594 181.816406 L 281.839844 181.6875 L 282.691406 181.753906 M 521.753906 17 L 522.738281 15.144531 L 523.394531 10.289062 C 523.523438 9.011719 523.832031 7.925781 524.3125 7.03125 L 515.789062 13.230469 C 515.222656 13.699219 514.261719 14.125 512.90625 14.507812 L 512.121094 14.828125 L 512.183594 15.082031 L 510.21875 22.429688 L 509.757812 23.007812 L 509.957031 23.519531 L 508.121094 28.949219 L 510.085938 27.734375 C 513.890625 25.433594 516.664062 23.902344 518.414062 23.132812 L 521.753906 17 M 537.816406 10.542969 L 538.144531 9.648438 L 538.796875 5.367188 C 538.929688 3.75 539.367188 2.515625 540.109375 1.660156 L 531.980469 2.8125 C 530.40625 3.324219 528.355469 4.386719 525.820312 6.007812 L 525.949219 6.582031 C 525.949219 8.753906 525.492188 11.332031 524.574219 14.316406 L 524.378906 14.570312 L 524.441406 14.699219 L 524.113281 15.082031 L 524.246094 15.464844 L 523.261719 18.085938 L 521.625 21.855469 C 525.296875 20.28125 529.402344 18.257812 533.949219 15.785156 L 535.585938 15.019531 C 536.417969 13.738281 537.160156 12.25 537.816406 10.542969 M 502.417969 35.40625 L 502.613281 35.085938 L 502.484375 34.828125 L 502.285156 34.957031 C 500.886719 30.570312 498.988281 27.332031 496.582031 25.242188 L 496.453125 25.308594 L 495.667969 25.179688 L 495.601562 24.605469 L 495.667969 24.539062 C 493.65625 23.050781 491.316406 22.304688 488.652344 22.304688 C 486.074219 22.304688 483.496094 24.964844 480.917969 30.292969 L 475.804688 41.796875 L 475.933594 41.921875 L 475.148438 42.5625 C 476.632812 42.691406 477.902344 43.265625 478.949219 44.289062 L 479.082031 44.414062 L 479.015625 44.480469 L 479.277344 44.609375 C 480.632812 46.140625 481.574219 48.441406 482.097656 51.507812 L 482.097656 51.703125 L 482.621094 51.957031 L 504.449219 46.589844 L 504.582031 45.949219 C 504.101562 41.902344 503.378906 38.386719 502.417969 35.40625 M 457.1875 59.625 C 459.503906 60.5625 460.96875 62.417969 461.578125 65.1875 L 460.859375 65.824219 L 458.628906 62.4375 C 458.105469 61.757812 457.273438 61.179688 456.140625 60.710938 L 456.335938 60.265625 L 456.203125 60.074219 L 455.613281 60.519531 L 453.648438 59.945312 L 455.222656 61.160156 L 455.023438 61.414062 L 455.417969 61.480469 L 455.484375 61.480469 C 456.621094 62.925781 457.382812 65.164062 457.777344 68.1875 L 457.777344 68.636719 L 457.972656 68.445312 L 461.121094 66.144531 L 475.871094 55.40625 L 474.164062 51.636719 C 473.597656 50.488281 472.789062 49.550781 471.738281 48.824219 L 471.738281 48.761719 L 471.609375 48.699219 L 471.410156 48.570312 L 468.855469 47.484375 L 468.855469 47.164062 L 468.722656 47.292969 L 453.125 58.859375 L 456.992188 59.5625 L 457.054688 59.5625 L 457.054688 59.625 L 457.1875 59.625 M 442.175781 72.023438 L 442.699219 72.472656 C 444.40625 74.046875 445.605469 75.582031 446.304688 77.074219 L 456.925781 69.277344 L 455.613281 65.378906 C 455.222656 64.269531 454.632812 63.3125 453.84375 62.5 L 454.105469 62.246094 L 453.976562 61.992188 L 453.648438 62.308594 L 451.027344 60.457031 L 438.375 69.789062 C 439.597656 70.171875 440.84375 70.894531 442.109375 71.960938 L 442.175781 72.023438 M 425 84.804688 L 425.722656 86.339844 L 426.773438 91.324219 L 445.324219 77.777344 C 444.84375 76.15625 443.269531 74.515625 440.601562 72.855469 L 436.867188 70.9375 L 421.59375 82.183594 C 422.992188 82.484375 424.105469 83.292969 424.9375 84.613281 L 425 84.742188 L 425 84.804688 M 476.589844 44.734375 L 476.523438 44.480469 L 476.394531 44.609375 L 473.96875 43.394531 L 469.511719 46.714844 C 471.128906 46.714844 472.503906 47.121094 473.640625 47.929688 L 473.574219 48.058594 L 473.640625 48.1875 L 473.96875 48.1875 C 475.453125 49.507812 476.371094 51.703125 476.722656 54.769531 L 480.984375 51.636719 L 479.738281 48.3125 C 479.125 46.90625 478.078125 45.714844 476.589844 44.734375 M 469.511719 46.714844 L 469.445312 46.78125 L 469.511719 46.714844 M 507.269531 25.882812 L 507.859375 24.925781 L 507.792969 24.730469 L 508.710938 22.429688 L 509.628906 18.023438 C 509.804688 17.042969 510.085938 16.234375 510.480469 15.59375 L 510.023438 15.914062 L 506.023438 19.234375 L 497.109375 24.925781 L 500.253906 28.3125 L 500.714844 28.949219 L 503.007812 33.105469 C 503.007812 32.636719 503.839844 31.824219 505.5 30.675781 L 507.269531 25.882812 M 419.5625 88.449219 L 421.332031 89.726562 C 422.640625 90.917969 423.429688 92.132812 423.691406 93.367188 L 423.296875 93.816406 L 420.804688 91.070312 C 420.105469 90.429688 419.167969 89.875 417.988281 89.40625 L 417.855469 89.277344 L 417.792969 89.34375 L 413.398438 88.257812 L 395.960938 101.101562 C 397.40625 101.230469 398.542969 102.125 399.371094 103.785156 L 400.09375 105.640625 L 401.011719 110.242188 L 423.296875 93.878906 L 423.820312 93.496094 L 425.789062 92.089844 C 425.175781 91.109375 424.652344 89.511719 424.214844 87.296875 L 423.558594 85.765625 C 422.859375 84.613281 421.921875 83.632812 420.742188 82.824219 L 415.105469 86.976562 C 416.765625 87.234375 418.25 87.722656 419.5625 88.449219 M 397.863281 104.9375 L 397.863281 104.808594 L 397.796875 104.679688 L 397.734375 104.679688 C 397.121094 103.402344 396.289062 102.378906 395.242188 101.613281 L 388.097656 106.855469 C 390.0625 106.894531 391.8125 107.28125 393.339844 108.003906 L 393.210938 108.066406 L 393.601562 108.132812 L 395.898438 109.855469 L 397.863281 112.542969 L 399.960938 111.007812 C 399.4375 110.113281 398.976562 108.835938 398.585938 107.171875 L 397.863281 104.9375 M 372.625 123.726562 L 373.742188 124.8125 L 376.167969 128.453125 L 397.144531 113.050781 L 394.78125 110.6875 L 392.683594 109.21875 L 392.882812 108.835938 L 392.554688 108.707031 L 392.355469 109.089844 C 390.960938 108.453125 389.234375 107.960938 387.179688 107.621094 L 387.179688 107.554688 L 367.316406 122.128906 C 369.457031 122.210938 371.164062 122.703125 372.429688 123.597656 L 372.496094 123.726562 L 372.625 123.726562 M 370.527344 124.746094 C 369.347656 123.980469 367.886719 123.40625 366.136719 123.023438 L 364.300781 124.363281 C 365.917969 124.578125 367.207031 125.28125 368.167969 126.472656 L 368.101562 126.535156 L 368.234375 126.601562 C 369.328125 128.050781 369.960938 130.136719 370.136719 132.863281 L 374.921875 129.347656 L 372.234375 126.28125 L 370.921875 125.066406 L 371.25 124.875 L 370.660156 124.746094 L 370.660156 124.8125 L 370.527344 124.746094 M 366.988281 128.199219 L 366.988281 128.070312 L 366.921875 127.878906 L 366.859375 127.941406 C 366.113281 126.835938 364.980469 125.855469 363.449219 125.003906 L 348.042969 136.316406 C 349.355469 136.867188 350.46875 137.890625 351.386719 139.382812 L 351.453125 139.511719 C 352.238281 140.789062 352.875 142.386719 353.355469 144.304688 L 353.355469 145.132812 L 369.019531 133.695312 L 367.578125 129.476562 L 366.988281 128.199219 M 349.683594 141.554688 L 349.945312 141.363281 L 349.816406 141.109375 L 349.488281 141.363281 L 346.40625 137.527344 L 335.589844 145.519531 C 337.425781 145.816406 338.890625 146.648438 339.980469 148.011719 L 339.917969 148.011719 L 339.980469 148.074219 C 340.988281 149.394531 341.644531 151.207031 341.949219 153.507812 L 351.257812 146.667969 L 352.304688 145.902344 L 349.945312 142.003906 L 349.683594 141.554688 M 537.226562 100.78125 L 537.882812 99.632812 L 537.488281 99.503906 L 537.289062 99.953125 C 537.507812 97.480469 537.988281 95.414062 538.734375 93.753906 L 529.226562 100.589844 L 529.226562 101.039062 L 526.148438 105.703125 L 525.03125 107.554688 C 523.679688 109.941406 523 112.03125 523 113.820312 L 523.984375 118.613281 L 528.574219 115.609375 L 538.078125 109.601562 C 537.421875 107.984375 537.09375 106 537.09375 103.65625 L 537.226562 100.78125 M 522.28125 109.664062 L 522.476562 109.472656 L 522.410156 109.28125 L 523.460938 107.046875 L 527.195312 101.996094 L 525.359375 103.273438 L 516.117188 110.304688 L 516.25 110.433594 L 514.9375 114.714844 L 515.132812 115.546875 L 515.070312 115.738281 L 515.132812 115.929688 L 515.265625 115.929688 L 517.230469 123.597656 L 523 119.316406 C 522.695312 118.933594 522.390625 118.015625 522.082031 116.566406 L 521.625 113.691406 C 521.625 112.285156 521.84375 110.945312 522.28125 109.664062 M 513.5625 117.460938 L 513.890625 117.144531 L 513.5625 117.015625 L 513.5625 114.648438 L 513.691406 112.414062 L 511.59375 114.332031 C 509.015625 116.800781 506.746094 119.316406 504.777344 121.871094 L 505.238281 123.917969 L 505.828125 126.34375 L 505.761719 126.472656 L 505.828125 126.601562 L 505.890625 126.601562 L 506.285156 127.433594 L 510.347656 132.351562 C 511.265625 130.09375 512.730469 127.941406 514.742188 125.898438 L 516.050781 124.621094 C 514.871094 124.320312 514.109375 122.703125 513.757812 119.761719 L 513.5625 117.460938 M 496.78125 136.441406 L 498.746094 135.355469 L 498.484375 134.527344 L 498.089844 132.863281 L 496.78125 136.25 L 496.320312 136.378906 L 496.191406 136.25 L 496.125 136.699219 L 496.78125 136.441406 M 505.105469 127.6875 L 505.171875 127.558594 L 505.039062 127.558594 C 504.558594 126.324219 504.144531 125.046875 503.792969 123.726562 L 503.859375 123.148438 C 501.894531 125.75 500.253906 128.367188 498.945312 131.011719 L 500.777344 135.613281 L 500.777344 135.996094 L 500.910156 136.378906 L 501.042969 136.378906 L 501.105469 136.507812 L 502.550781 136.632812 C 503.292969 136.632812 503.707031 136.847656 503.792969 137.273438 L 503.730469 138.359375 L 503.792969 138.617188 L 507.070312 137.914062 C 507.640625 137.914062 508.230469 138.210938 508.84375 138.808594 L 509.039062 139.0625 L 508.972656 138.679688 C 508.972656 136.976562 509.257812 135.3125 509.824219 133.695312 C 508.339844 133.566406 506.898438 131.925781 505.5 128.773438 L 505.105469 127.6875 M 502.285156 138.230469 L 502.285156 137.976562 L 502.222656 138.039062 L 499.992188 138.742188 L 499.46875 138.617188 L 498.8125 136.699219 C 496.671875 138.019531 495.492188 138.699219 495.273438 138.742188 L 493.960938 137.847656 L 492.324219 138.359375 L 492.976562 139.125 C 492.976562 139.894531 492.125 140.875 490.421875 142.066406 L 493.109375 142.324219 L 492.976562 142.898438 L 493.632812 143.726562 L 494.09375 144.046875 L 493.570312 144.113281 L 493.503906 144.75 C 494.859375 145.390625 495.667969 145.984375 495.929688 146.539062 L 495.929688 146.667969 L 495.992188 146.667969 L 497.304688 145.964844 L 497.632812 146.15625 L 498.089844 147.371094 C 499.226562 147.414062 499.90625 147.667969 500.125 148.136719 C 500.472656 148.136719 500.996094 147.925781 501.695312 147.5 L 502.484375 147.5625 C 503.140625 147.777344 503.421875 148.394531 503.335938 149.417969 L 504.515625 147.945312 L 505.433594 147.625 L 506.152344 147.753906 L 505.957031 146.667969 L 506.089844 146.15625 C 506.21875 145.773438 506.546875 145.453125 507.070312 145.199219 L 508.972656 144.558594 L 509.167969 142.578125 C 509.167969 141.980469 508.863281 141.449219 508.25 140.980469 C 507.597656 140.46875 507.203125 139.914062 507.070312 139.320312 C 505.410156 139.488281 504.164062 139.828125 503.335938 140.339844 L 502.941406 140.660156 L 502.941406 140.597656 L 502.8125 140.085938 L 501.894531 139.957031 L 501.367188 140.339844 L 502.285156 138.230469 M 547.320312 12.398438 L 547.582031 12.398438 C 548.019531 12.398438 548.304688 12.183594 548.433594 11.757812 L 548.238281 11.441406 L 551.84375 7.476562 L 554.988281 3.132812 C 553.285156 1.980469 551.710938 1.40625 550.269531 1.40625 L 540.304688 1.660156 L 540.832031 2.238281 L 539.519531 9.585938 L 538.144531 14.125 L 543.320312 13.484375 L 546.273438 13.675781 L 546.273438 13.613281 L 547.320312 12.398438 M 554.136719 16.425781 C 554.136719 16.210938 554.988281 15.847656 556.695312 15.335938 C 559.140625 14.613281 561.589844 13.675781 564.035156 12.527344 C 562.679688 10.738281 561.261719 9.289062 559.773438 8.179688 L 560.101562 7.859375 L 558.003906 5.75 L 555.90625 3.835938 C 552.367188 8.945312 549.660156 12.292969 547.777344 13.867188 C 550.183594 14.335938 552.28125 15.230469 554.070312 16.550781 L 554.203125 16.679688 L 554.136719 16.425781 M 566.332031 28.695312 L 571.117188 28.566406 L 570.984375 28.246094 L 571.640625 27.671875 L 571.707031 27.671875 L 570.261719 23.964844 C 568.601562 19.875 566.832031 16.46875 564.953125 13.738281 L 564.625 13.996094 L 564.429688 13.613281 L 564.167969 13.675781 L 564.296875 14.1875 C 563.730469 14.570312 562.964844 14.976562 562.003906 15.402344 C 559.511719 16.550781 557.152344 17.128906 554.925781 17.128906 L 554.792969 17.128906 L 554.859375 17.191406 L 556.824219 19.234375 L 556.890625 19.234375 C 558.769531 21.621094 560.082031 23.644531 560.824219 25.308594 L 564.953125 28.695312 L 566.332031 28.695312 M 566.460938 30.101562 L 566.199219 29.589844 L 565.9375 29.589844 L 565.9375 30.035156 C 564.015625 29.824219 562.484375 29.25 561.347656 28.3125 L 561.871094 33.808594 L 562.070312 34.957031 L 564.035156 36.300781 L 566.789062 37.257812 L 572.296875 37.707031 L 573.738281 37.195312 L 574.128906 37.257812 C 573.738281 34.746094 573.082031 32.039062 572.164062 29.140625 C 571.726562 29.78125 570.242188 30.101562 567.707031 30.101562 L 566.460938 30.101562 M 567.246094 38.792969 L 567.3125 38.152344 L 566.921875 38.152344 L 566.855469 38.726562 C 565.675781 38.429688 564.582031 38.023438 563.578125 37.515625 L 562.398438 36.875 L 563.25 41.476562 L 563.511719 43.074219 C 564.210938 43.246094 565.214844 44.140625 566.527344 45.757812 L 566.527344 46.398438 L 566.789062 46.398438 L 566.789062 46.140625 L 567.246094 46.714844 C 567.683594 47.101562 568.625 47.675781 570.066406 48.441406 C 570.898438 49.167969 571.859375 49.359375 572.949219 49.015625 L 574.195312 48.953125 L 574.394531 41.476562 L 574.195312 38.214844 L 572.492188 39.304688 L 567.246094 38.792969 M 566.65625 48.761719 L 566.65625 48.507812 L 566.59375 47.996094 L 566.332031 47.996094 L 566.265625 48.441406 L 565.542969 47.867188 L 563.839844 46.078125 L 563.90625 48.25 L 563.316406 54.703125 C 563.75 55.601562 563.992188 57.027344 564.035156 58.988281 C 564.035156 60.605469 564.234375 61.90625 564.625 62.886719 L 564.558594 63.203125 L 564.625 63.332031 L 564.757812 63.269531 L 564.953125 63.652344 C 566.175781 65.78125 567.773438 67.722656 569.738281 69.46875 L 570.789062 70.363281 C 571.3125 68.785156 571.617188 67.316406 571.707031 65.953125 L 573.804688 52.46875 L 574.066406 50.679688 L 573.015625 50.679688 C 570.65625 50.679688 568.535156 50.039062 566.65625 48.761719 M 564.101562 64.992188 L 564.101562 64.675781 L 564.035156 64.355469 L 563.96875 64.546875 C 563.007812 61.949219 562.527344 59.839844 562.527344 58.21875 L 562.527344 58.15625 C 561.652344 61.394531 560.410156 64.78125 558.792969 68.316406 L 558.726562 68.957031 L 557.675781 75.601562 L 557.808594 77.328125 L 557.675781 77.519531 L 557.808594 77.582031 C 558.203125 80.351562 559.359375 83.464844 561.28125 86.914062 L 567.050781 78.160156 L 570.132812 72.152344 C 567.730469 71.554688 565.785156 69.339844 564.296875 65.503906 L 564.101562 64.992188 M 556.890625 80.078125 L 557.21875 79.054688 L 557.152344 78.863281 L 556.824219 79.4375 L 556.300781 75.539062 L 556.628906 72.597656 C 554.792969 75.964844 552.804688 79.097656 550.664062 81.992188 L 550.597656 82.953125 C 549.765625 85.039062 549.265625 87.296875 549.089844 89.726562 L 549.023438 91.898438 C 549.023438 93.21875 549.460938 95.222656 550.335938 97.90625 L 551.058594 99.886719 C 554.289062 96.863281 556.933594 93.730469 558.988281 90.492188 L 560.167969 88.640625 C 559.074219 87.914062 558.136719 85.785156 557.351562 82.25 L 556.890625 80.078125 M 547.648438 91.964844 L 548.304688 90.875 L 548.238281 90.621094 L 547.714844 91.132812 L 548.171875 86.273438 L 548.433594 84.675781 C 545.988281 87.574219 543.320312 90.152344 540.4375 92.410156 L 539.714844 92.984375 L 540.042969 93.6875 C 540.042969 94.839844 539.824219 96.289062 539.386719 98.035156 L 538.863281 98.480469 L 538.929688 98.609375 L 539.324219 98.355469 L 539.257812 98.480469 C 538.734375 100.484375 538.472656 102.273438 538.472656 103.851562 C 538.472656 105.554688 538.6875 107.257812 539.125 108.960938 L 545.089844 104.808594 L 549.417969 101.359375 C 548.851562 100.460938 548.347656 99.058594 547.910156 97.140625 C 547.734375 96.5 547.648438 94.773438 547.648438 91.964844 M 258.960938 207.699219 C 260.140625 209.0625 261.363281 211 262.632812 213.515625 L 263.417969 212.875 L 264.140625 212.941406 L 264.269531 212.429688 C 264.269531 211.746094 263.417969 210.0625 261.714844 207.378906 L 261.058594 206.359375 L 260.992188 206.292969 L 260.796875 205.847656 L 260.730469 205.910156 L 258.566406 203.035156 L 258.4375 202.90625 L 259.15625 202.777344 C 261.34375 202.777344 263.070312 204.269531 264.335938 207.253906 C 265.296875 209.46875 265.777344 211.578125 265.777344 213.578125 L 265.320312 214.027344 L 264.335938 214.027344 C 232.042969 238.054688 189.847656 269.199219 137.757812 307.460938 L 137.757812 308.035156 L 137.363281 308.417969 L 137.230469 308.355469 L 137.230469 308.417969 C 137.230469 309.015625 136.664062 310.039062 135.527344 311.484375 C 136.707031 311.613281 141.101562 315.042969 148.703125 321.773438 C 158.929688 330.808594 168.652344 338.347656 177.875 344.398438 C 211.261719 366.296875 248.210938 377.246094 288.722656 377.246094 L 299.800781 376.480469 C 308.757812 374.09375 313.675781 372.644531 314.546875 372.132812 L 314.875 372.261719 L 315.136719 372.132812 L 315.53125 372.582031 L 315.792969 372.644531 L 315.726562 372.835938 L 315.792969 373.285156 L 314.351562 374.117188 L 310.613281 376.097656 L 303.730469 379.417969 L 303.273438 379.738281 L 292.128906 386.832031 L 286.753906 389.707031 L 285.902344 388.941406 C 279.171875 391.839844 266.914062 394.757812 249.128906 397.695312 L 248.144531 397.761719 C 247.96875 397.761719 247.882812 397.503906 247.882812 396.996094 L 247.949219 396.738281 L 247.621094 396.800781 L 246.898438 397.058594 C 236.453125 396.972656 228.609375 396.800781 223.367188 396.546875 C 212.789062 396.035156 203.875 394.929688 196.621094 393.222656 C 188.972656 391.476562 181.238281 388.644531 173.417969 384.722656 C 166.292969 381.144531 157.246094 375.714844 146.277344 368.425781 C 134.480469 360.628906 121.085938 349.296875 106.09375 334.429688 L 106.03125 334.363281 L 104.195312 334.109375 L 103.996094 333.597656 L 104.128906 333.277344 L 104.390625 332.449219 L 104.261719 332.128906 L 96.722656 337.625 L 96.722656 338.199219 L 96.328125 338.582031 L 96.199219 338.519531 L 96.199219 338.582031 C 96.199219 339.179688 95.628906 340.203125 94.492188 341.648438 C 95.671875 341.777344 100.066406 345.207031 107.667969 351.9375 C 117.894531 360.972656 127.617188 368.511719 136.839844 374.5625 C 170.226562 396.460938 207.175781 407.410156 247.6875 407.410156 L 258.765625 406.644531 C 267.722656 404.257812 272.640625 402.808594 273.511719 402.296875 L 273.839844 402.425781 L 274.101562 402.296875 L 274.496094 402.746094 L 274.757812 402.808594 L 274.691406 403 L 274.757812 403.449219 L 273.316406 404.28125 L 269.582031 406.261719 L 262.695312 409.582031 L 262.238281 409.902344 C 258.609375 412.460938 254.898438 414.824219 251.09375 416.996094 L 245.71875 419.875 L 244.867188 419.105469 C 238.136719 422.003906 225.878906 424.921875 208.09375 427.863281 L 207.109375 427.925781 C 206.933594 427.925781 206.847656 427.667969 206.847656 427.160156 L 206.914062 426.902344 L 206.585938 426.96875 L 205.863281 427.222656 C 195.421875 427.136719 187.574219 426.96875 182.332031 426.710938 C 171.757812 426.199219 162.839844 425.09375 155.585938 423.386719 C 147.9375 421.640625 140.203125 418.808594 132.382812 414.886719 C 125.257812 411.308594 116.210938 405.878906 105.242188 398.59375 C 93.445312 390.796875 80.050781 379.460938 65.0625 364.59375 L 64.996094 364.527344 L 63.160156 364.273438 L 62.964844 363.761719 L 63.09375 363.441406 L 63.355469 362.613281 C 63.355469 362.441406 63.3125 362.335938 63.226562 362.292969 L 63.160156 362.226562 L 55.949219 367.53125 L 53.066406 369.578125 L 53.066406 370.28125 L 52.671875 370.664062 L 52.539062 370.601562 L 52.539062 370.664062 C 52.539062 371.261719 51.972656 372.285156 50.835938 373.730469 C 52.015625 373.859375 56.40625 377.289062 64.011719 384.019531 C 74.238281 393.054688 83.960938 400.59375 93.183594 406.644531 C 126.570312 428.542969 163.519531 439.492188 204.027344 439.492188 L 215.105469 438.726562 C 224.066406 436.339844 228.980469 434.890625 229.855469 434.378906 L 230.183594 434.507812 L 230.445312 434.378906 L 230.839844 434.828125 L 231.101562 434.890625 L 231.035156 435.082031 L 231.101562 435.53125 L 229.660156 436.359375 L 225.921875 438.34375 L 219.039062 441.664062 L 218.582031 441.984375 C 214.953125 444.542969 211.238281 446.90625 207.4375 449.078125 L 202.0625 451.953125 L 201.210938 451.1875 C 194.480469 454.085938 182.222656 457.003906 164.4375 459.941406 L 163.453125 460.007812 C 163.277344 460.007812 163.191406 459.75 163.191406 459.238281 L 163.257812 458.984375 L 162.929688 459.046875 L 162.207031 459.304688 C 151.761719 459.21875 143.917969 459.046875 138.675781 458.792969 C 128.097656 458.28125 119.183594 457.175781 111.929688 455.46875 C 104.28125 453.722656 96.546875 450.890625 88.722656 446.96875 C 81.601562 443.390625 72.554688 437.957031 61.585938 430.671875 C 49.789062 422.875 36.394531 411.542969 21.402344 396.675781 L 21.339844 396.609375 L 19.503906 396.355469 L 19.304688 395.84375 L 18.714844 395.011719 L 18.78125 394.628906 L 16.289062 396.417969 L 16.289062 396.996094 C 16.070312 398.230469 15.480469 398.847656 14.519531 398.847656 C 10.0625 398.847656 6.742188 397.570312 4.558594 395.011719 L 3.902344 393.671875 C 3.070312 392.734375 2.632812 391.964844 2.589844 391.371094 L 2 391.753906 L 1.671875 390.09375 L 3.050781 388.878906 L 3.050781 388.8125 C 3.441406 387.578125 3.835938 386.960938 4.230469 386.960938 L 5.277344 387.023438 L 10.195312 383.0625 L 10.457031 382.808594 L 10.324219 382.871094 L 10.0625 381.273438 L 10.128906 380.890625 L 10.0625 380.890625 L 10.0625 380.25 L 9.867188 380.1875 L 10.128906 380.121094 L 10.261719 380.058594 C 11.175781 377.246094 15.066406 373.347656 21.929688 368.363281 L 34.316406 359.929688 L 35.300781 358.90625 L 36.085938 358.585938 L 36.152344 358.457031 L 36.21875 358.523438 C 37.835938 357.796875 38.90625 357.433594 39.429688 357.433594 C 40.261719 357.433594 41.222656 357.820312 42.3125 358.585938 L 42.707031 358.585938 L 44.148438 357.5625 L 49.394531 353.730469 L 53.851562 350.535156 L 53.71875 349.191406 L 53.785156 348.808594 L 53.71875 348.808594 L 53.71875 348.167969 L 53.523438 348.105469 L 53.785156 348.039062 L 53.917969 347.976562 C 54.835938 345.164062 58.722656 341.265625 65.585938 336.28125 L 77.972656 327.847656 L 78.957031 326.824219 L 79.742188 326.503906 L 79.808594 326.375 L 79.875 326.441406 C 81.492188 325.714844 82.5625 325.355469 83.085938 325.355469 C 83.917969 325.355469 84.878906 325.738281 85.972656 326.503906 L 86.363281 326.503906 L 87.808594 325.480469 L 88.398438 325.671875 L 95.015625 320.878906 L 94.886719 320.816406 L 95.148438 320.5625 L 95.015625 320.625 L 94.753906 319.027344 L 94.820312 318.644531 L 94.753906 318.644531 L 94.753906 318.003906 L 94.558594 317.941406 L 94.820312 317.875 L 94.953125 317.8125 C 95.871094 315 99.757812 311.101562 106.621094 306.117188 L 119.007812 297.683594 L 119.992188 296.660156 L 120.777344 296.339844 L 120.84375 296.210938 L 120.910156 296.277344 C 122.527344 295.550781 123.597656 295.1875 124.121094 295.1875 C 124.953125 295.1875 125.914062 295.574219 127.007812 296.339844 L 127.398438 296.339844 L 128.84375 295.316406 L 129.824219 295.699219 C 154.296875 277.765625 196.554688 246.769531 256.601562 202.714844 C 257.429688 202.714844 258.019531 202.886719 258.371094 203.226562 L 255.550781 205.398438 C 256.644531 205.65625 257.78125 206.421875 258.960938 207.699219 M 134.675781 299.214844 L 136.316406 301.453125 L 137.363281 304.265625 L 139.003906 303.050781 L 139.265625 303.433594 L 139.460938 303.753906 L 261.714844 214.15625 C 261.101562 212.664062 259.945312 211.152344 258.238281 209.617188 L 258.175781 209.425781 L 258.109375 209.488281 L 254.109375 206.421875 L 132.121094 296.46875 L 132.054688 296.402344 L 131.003906 297.105469 L 131.203125 297.171875 C 132.554688 297.640625 133.714844 298.320312 134.675781 299.214844 M 135.199219 309.375 L 135.003906 309.3125 L 135.070312 308.480469 L 134.742188 307.269531 L 134.480469 306.757812 L 134.480469 305.988281 L 134.542969 304.136719 L 135.59375 305.542969 L 134.609375 302.539062 L 133.757812 301.261719 C 133.363281 300.492188 132.863281 299.875 132.25 299.40625 L 131.988281 298.960938 L 131.53125 298.960938 L 129.496094 298.382812 L 128.382812 298.320312 L 127.988281 298.320312 L 127.660156 297.875 L 127.070312 297.683594 L 123.992188 296.980469 L 123.992188 296.722656 L 121.433594 297.554688 C 119.46875 299.597656 114.574219 303.179688 106.75 308.289062 C 101.070312 311.996094 97.660156 315.191406 96.523438 317.875 L 98.296875 318.132812 L 99.410156 317.300781 L 99.476562 317.683594 C 99.648438 318.195312 100.195312 318.621094 101.113281 318.964844 L 100.917969 319.089844 L 101.113281 319.21875 C 102.382812 319.898438 103.515625 320.835938 104.523438 322.03125 L 104.195312 321.839844 L 104.324219 322.160156 L 104.589844 322.160156 L 104.652344 322.222656 L 104.523438 322.222656 L 104.652344 322.285156 C 105.308594 323.09375 105.898438 324.03125 106.421875 325.097656 L 107.144531 326.695312 L 107.800781 326.25 L 107.734375 326.824219 C 107.734375 327.675781 107.886719 328.378906 108.191406 328.933594 L 107.996094 329.125 L 108.0625 329.316406 L 108.519531 332.0625 L 111.535156 330.210938 L 112.714844 330.019531 L 111.535156 329.699219 L 115.46875 326.757812 C 115.6875 326.632812 115.882812 326.566406 116.058594 326.566406 L 116.386719 326.695312 L 122.351562 321.902344 C 130 315.640625 134.390625 311.464844 135.527344 309.375 L 135.789062 308.929688 L 135.199219 309.375 M 232.675781 370.023438 C 223.324219 367.425781 214.296875 364.253906 205.601562 360.503906 C 180.648438 349.765625 157.160156 333.617188 135.132812 312.0625 C 133.082031 314.488281 129.585938 318.003906 124.648438 322.605469 C 119.402344 327.460938 115.359375 330.828125 112.519531 332.703125 L 112.191406 332.574219 C 111.667969 332.574219 111.40625 332.640625 111.40625 332.765625 L 111.535156 333.214844 L 111.601562 333.277344 L 111.40625 333.152344 L 111.078125 333.46875 L 111.144531 333.535156 L 110.355469 333.917969 C 119.621094 343.207031 131.179688 352.515625 145.03125 361.84375 C 174.355469 381.613281 202.019531 391.5 228.019531 391.5 C 250.964844 391.5 263.003906 391.347656 264.140625 391.050781 C 267.941406 389.089844 277.359375 386.386719 292.390625 382.933594 L 295.605469 382.167969 L 297.503906 380.3125 C 298.640625 379.761719 299.667969 379.269531 300.585938 378.84375 L 300.847656 378.714844 L 300.390625 378.714844 L 301.109375 378.523438 L 299.40625 378.269531 L 296.0625 378.714844 C 273.644531 378.375 252.691406 375.519531 233.199219 370.152344 L 233.003906 370.089844 L 233.003906 370.023438 L 232.675781 370.023438 M 288 385.683594 L 277.773438 388.6875 L 272.070312 390.027344 C 262.761719 391.988281 253.390625 392.96875 243.949219 392.96875 C 213.316406 392.96875 186.875 387.558594 164.632812 376.734375 C 157.027344 373.027344 149.335938 368.363281 141.558594 362.738281 L 146.539062 366.828125 C 161.792969 379.441406 181.152344 387.898438 204.617188 392.199219 C 216.550781 394.417969 231.429688 395.589844 249.257812 395.714844 L 250.113281 395.523438 L 264.140625 393.605469 C 270.082031 392.796875 274.257812 391.964844 276.660156 391.113281 L 288.066406 385.808594 L 290.164062 386.195312 L 294.097656 383.507812 L 288 385.683594 M 191.640625 400.191406 C 182.289062 397.589844 173.261719 394.417969 164.566406 390.667969 C 139.613281 379.929688 116.125 363.785156 94.101562 342.226562 C 92.046875 344.652344 88.550781 348.167969 83.613281 352.769531 C 78.367188 357.628906 74.324219 360.992188 71.484375 362.867188 L 71.15625 362.738281 L 70.371094 362.929688 L 70.5 363.378906 L 70.566406 363.441406 L 70.371094 363.316406 L 70.042969 363.632812 L 70.109375 363.699219 L 69.320312 364.082031 C 78.585938 373.371094 90.144531 382.679688 103.996094 392.007812 C 133.320312 411.777344 160.984375 421.664062 186.984375 421.664062 C 209.929688 421.664062 221.96875 421.511719 223.105469 421.214844 C 226.90625 419.253906 236.324219 416.550781 251.355469 413.097656 L 254.570312 412.332031 L 256.46875 410.480469 L 259.550781 409.007812 L 259.8125 408.882812 L 259.355469 408.882812 L 260.074219 408.6875 L 258.371094 408.433594 L 255.027344 408.882812 C 232.609375 408.539062 211.65625 405.6875 192.164062 400.316406 L 191.96875 400.253906 L 191.96875 400.191406 L 191.640625 400.191406 M 147.984375 432.269531 C 138.628906 429.671875 129.605469 426.5 120.910156 422.75 C 95.957031 412.011719 72.46875 395.863281 50.441406 374.308594 C 48.390625 376.734375 44.894531 380.25 39.953125 384.851562 C 34.710938 389.707031 30.667969 393.074219 27.828125 394.949219 L 27.5 394.820312 C 26.976562 394.820312 26.714844 394.886719 26.714844 395.011719 L 26.84375 395.460938 L 26.910156 395.523438 L 26.714844 395.394531 L 26.386719 395.714844 L 26.449219 395.78125 L 25.664062 396.164062 C 34.929688 405.453125 46.488281 414.761719 60.339844 424.089844 C 89.664062 443.859375 117.328125 453.742188 143.328125 453.742188 C 166.273438 453.742188 178.3125 453.59375 179.449219 453.296875 C 183.25 451.335938 192.667969 448.632812 207.699219 445.179688 L 210.910156 444.414062 L 212.8125 442.558594 C 213.949219 442.007812 214.976562 441.515625 215.894531 441.089844 L 216.15625 440.960938 L 215.695312 440.960938 L 216.417969 440.769531 L 214.714844 440.515625 L 211.371094 440.960938 C 188.953125 440.621094 167.996094 437.765625 148.507812 432.398438 L 148.308594 432.335938 L 148.308594 432.269531 L 147.984375 432.269531 M 203.308594 447.929688 L 193.082031 450.933594 L 187.378906 452.273438 C 178.070312 454.234375 168.695312 455.214844 159.257812 455.214844 C 128.625 455.214844 102.183594 449.804688 79.941406 438.980469 C 72.335938 435.273438 64.644531 430.609375 56.867188 424.984375 L 61.847656 429.074219 C 77.101562 441.6875 96.460938 450.144531 119.925781 454.445312 C 131.855469 456.664062 146.738281 457.835938 164.566406 457.960938 L 165.417969 457.769531 L 179.449219 455.851562 C 185.390625 455.042969 189.5625 454.210938 191.96875 453.359375 L 203.375 448.054688 C 204.335938 448.054688 205.035156 448.183594 205.472656 448.441406 C 206.433594 448.015625 207.742188 447.117188 209.402344 445.753906 L 203.308594 447.929688 M 246.964844 415.847656 L 236.738281 418.851562 L 231.035156 420.191406 C 221.726562 422.152344 212.355469 423.132812 202.914062 423.132812 C 172.28125 423.132812 145.839844 417.722656 123.597656 406.898438 C 115.992188 403.191406 108.300781 398.527344 100.523438 392.902344 L 105.503906 396.996094 C 120.757812 409.605469 140.117188 418.0625 163.582031 422.367188 C 175.515625 424.582031 190.394531 425.753906 208.222656 425.878906 L 209.078125 425.6875 L 223.105469 423.769531 C 229.046875 422.960938 233.222656 422.132812 235.625 421.277344 C 237.023438 420.769531 240.824219 419 247.03125 415.976562 C 247.992188 415.976562 248.691406 416.101562 249.128906 416.359375 L 253.0625 413.675781 L 246.964844 415.847656 M 90.496094 329.125 L 88.398438 328.550781 L 87.347656 328.484375 L 86.953125 328.484375 L 86.625 328.039062 L 85.578125 327.71875 L 82.957031 327.144531 L 82.957031 326.886719 L 80.398438 327.71875 C 78.433594 329.761719 73.539062 333.34375 65.714844 338.453125 C 60.035156 342.160156 56.625 345.355469 55.488281 348.039062 L 56.996094 348.234375 L 57.261719 348.296875 L 58.375 347.464844 C 58.417969 348.191406 58.984375 348.742188 60.078125 349.128906 L 59.882812 349.253906 L 60.011719 349.320312 C 61.28125 350 62.4375 350.960938 63.488281 352.195312 L 63.160156 352.003906 L 63.289062 352.324219 L 63.554688 352.324219 L 63.617188 352.386719 L 63.488281 352.386719 L 63.617188 352.449219 C 64.273438 353.261719 64.863281 354.199219 65.386719 355.261719 L 66.109375 356.796875 L 66.109375 356.859375 L 66.765625 356.414062 L 66.699219 356.988281 C 66.699219 357.839844 66.851562 358.542969 67.15625 359.097656 L 66.960938 359.289062 L 66.960938 359.417969 L 67.484375 362.226562 L 70.5 360.375 L 71.679688 360.183594 L 70.5 359.863281 L 74.433594 356.925781 L 75.023438 356.730469 L 75.351562 356.859375 L 81.316406 352.066406 C 88.964844 345.804688 93.355469 341.628906 94.492188 339.542969 L 94.753906 339.09375 L 94.164062 339.542969 L 93.96875 339.476562 L 94.035156 338.648438 L 93.507812 337.046875 L 93.445312 336.921875 L 93.445312 336.152344 L 93.507812 334.300781 L 94.558594 335.707031 L 93.574219 332.703125 L 92.722656 331.425781 C 92.328125 330.65625 91.828125 330.039062 91.214844 329.570312 L 90.953125 329.125 L 90.496094 329.125 M 96.132812 319.347656 L 96.132812 319.859375 L 96.460938 319.539062 L 96.132812 319.347656 M 90.035156 327.269531 L 89.96875 327.269531 L 90.101562 327.335938 C 91.5 327.804688 92.679688 328.484375 93.640625 329.378906 L 93.574219 329.445312 L 93.707031 329.507812 C 94.316406 330.105469 94.84375 330.808594 95.28125 331.617188 L 96.328125 334.429688 L 97.96875 333.214844 L 98.230469 333.597656 L 98.296875 333.660156 L 102.554688 330.53125 L 102.425781 330.402344 L 105.046875 328.355469 L 103.867188 326.441406 L 102.097656 324.140625 C 101.046875 322.945312 99.910156 321.902344 98.6875 321.007812 L 98.558594 320.878906 L 96.066406 322.667969 L 96.199219 322.796875 L 91.085938 326.632812 L 91.019531 326.566406 L 90.035156 327.269531 M 4.949219 389.644531 C 4.292969 390.15625 3.96875 390.625 3.96875 391.050781 L 5.738281 393.351562 L 10.0625 396.675781 L 13.273438 396.164062 L 14.914062 394.886719 C 14.78125 394.117188 13.972656 393.097656 12.488281 391.816406 L 10.390625 389.773438 C 9.210938 389.304688 7.921875 389.070312 6.523438 389.070312 C 6.4375 390.09375 5.910156 390.285156 4.949219 389.644531 M 108.457031 334.429688 L 107.144531 334.429688 L 121.238281 345.996094 L 109.308594 334.300781 L 108.457031 334.429688 M 106.226562 330.339844 L 104.261719 331.808594 L 104.390625 332 L 105.832031 333.023438 L 107.472656 332.574219 L 106.359375 330.53125 L 106.226562 330.339844 M 50.050781 361.589844 C 50.703125 362.1875 51.230469 362.890625 51.621094 363.699219 L 52.671875 366.511719 L 54.308594 365.296875 L 56.210938 363.890625 L 61.128906 360.375 L 61.257812 360.4375 L 61.390625 360.566406 L 64.011719 358.523438 L 63.945312 358.328125 L 62.832031 356.605469 L 61.0625 354.304688 C 60.011719 353.109375 58.855469 352.046875 57.585938 351.109375 L 57.523438 351.042969 L 55.03125 352.835938 L 55.164062 352.898438 L 47.363281 358.648438 L 46.3125 359.351562 C 47.753906 359.820312 48.957031 360.503906 49.917969 361.398438 L 49.917969 361.460938 L 49.984375 361.589844 L 50.050781 361.589844 M 65.257812 360.628906 L 65.191406 360.503906 L 63.226562 361.972656 L 63.289062 362.101562 L 64.796875 363.1875 L 66.4375 362.738281 L 65.257812 360.628906 M 66.109375 364.59375 L 80.203125 376.160156 L 68.273438 364.464844 L 67.421875 364.59375 L 66.109375 364.59375 M 46.835938 361.207031 C 45.964844 360.78125 44.914062 360.566406 43.691406 360.566406 L 43.296875 360.566406 L 42.96875 360.121094 L 39.300781 359.226562 L 39.300781 358.96875 L 36.742188 359.800781 C 34.777344 361.84375 29.882812 365.421875 22.058594 370.535156 C 16.378906 374.242188 12.96875 377.4375 11.832031 380.121094 L 13.601562 380.378906 L 14.71875 379.546875 C 14.761719 380.273438 15.328125 380.824219 16.421875 381.210938 L 16.226562 381.335938 C 17.578125 382.019531 18.78125 383 19.832031 384.277344 L 19.503906 384.085938 L 19.632812 384.40625 L 19.894531 384.40625 L 19.960938 384.46875 L 19.832031 384.46875 L 19.960938 384.53125 C 20.617188 385.339844 21.207031 386.277344 21.730469 387.34375 L 22.453125 388.941406 L 23.109375 388.496094 L 23.042969 389.070312 C 23.042969 389.921875 23.195312 390.625 23.5 391.179688 L 23.304688 391.371094 L 23.828125 394.308594 L 26.84375 392.457031 L 28.023438 392.265625 L 26.84375 391.945312 L 30.777344 389.003906 L 31.367188 388.8125 L 31.695312 388.941406 L 37.660156 384.148438 C 45.308594 377.886719 49.699219 373.710938 50.835938 371.621094 L 51.164062 370.984375 L 50.3125 371.558594 L 50.378906 370.726562 C 50.289062 370.132812 50.09375 369.554688 49.789062 369.003906 L 49.789062 368.234375 L 49.851562 366.382812 L 50.902344 367.789062 L 49.917969 364.785156 L 49.066406 363.507812 C 48.671875 362.738281 48.171875 362.121094 47.558594 361.652344 L 47.296875 361.207031 L 46.835938 361.207031 M 55.097656 349.636719 L 55.164062 349.574219 L 55.097656 349.511719 L 55.097656 349.636719 M 11.765625 381.785156 C 11.636719 381.699219 11.527344 381.636719 11.441406 381.59375 L 11.441406 382.105469 L 11.765625 381.785156 M 9.277344 386.449219 L 9.078125 386.578125 L 9.40625 386.578125 C 10.585938 386.578125 11.660156 386.980469 12.621094 387.792969 C 13.40625 388.472656 14.128906 389.433594 14.78125 390.667969 L 15.308594 391.691406 C 15.832031 392.371094 16.226562 393.011719 16.488281 393.605469 L 17.734375 392.648438 L 20.355469 390.601562 L 19.175781 388.6875 L 17.40625 386.386719 C 16.3125 385.148438 15.132812 384.0625 13.863281 383.125 L 11.375 384.914062 L 9.277344 386.449219 M 8.816406 387.472656 L 8.554688 386.960938 L 8.097656 387.34375 L 8.816406 387.472656 M 21.535156 392.585938 L 19.566406 394.054688 L 21.140625 395.269531 L 22.78125 394.820312 L 21.535156 392.585938 M 22.453125 396.675781 L 36.546875 408.242188 C 32.570312 404.578125 28.59375 400.679688 24.617188 396.546875 L 23.761719 396.675781 L 22.453125 396.675781 M 10.457031 397.378906 L 8.949219 396.800781 L 9.539062 397.378906 L 10.457031 397.378906 "
       id="path2" />
    <path
       style=" stroke:none;fill-rule:evenodd;fill:rgb(74.117649%,70.19608%,61.56863%);fill-opacity:1;"
       d="M 338.410156 149.03125 L 339.0625 150.246094 L 340.636719 154.402344 L 322.21875 167.695312 L 321.957031 163.476562 L 321.167969 161.6875 L 321.429688 161.75 L 331 155.230469 C 334.496094 152.804688 336.964844 150.738281 338.410156 149.03125 M 319.59375 163.21875 C 320.03125 163.816406 320.316406 164.5 320.449219 165.265625 L 320.644531 167.820312 L 320.90625 168.714844 L 318.546875 170.441406 C 318.242188 168.609375 317.695312 167.097656 316.90625 165.902344 L 319.59375 163.21875 M 315.007812 166.925781 L 315.664062 168.332031 L 316.449219 171.65625 L 316.515625 171.847656 L 297.636719 185.460938 C 297.285156 183.074219 296.71875 181.222656 295.933594 179.898438 L 296.523438 180.027344 L 296.457031 180.027344 L 296.523438 180.089844 L 298.292969 178.878906 L 298.621094 178.6875 L 299.734375 177.917969 L 306.550781 173.574219 C 309.742188 171.570312 312.558594 169.355469 315.007812 166.925781 M 314.808594 166.542969 L 314.875 166.671875 L 314.679688 166.605469 L 314.808594 166.542969 M 287.214844 186.289062 L 287.34375 186.289062 L 287.410156 186.417969 L 287.933594 186.226562 C 288.589844 186.226562 289.921875 185.523438 291.933594 184.117188 C 293.898438 182.710938 294.882812 181.816406 294.882812 181.433594 L 294.949219 181.433594 L 295.339844 182.457031 L 296.257812 186.417969 L 287.738281 192.554688 L 287.410156 192.488281 L 287.214844 186.289062 M 300.519531 177.023438 L 300.519531 176.832031 L 300.585938 176.960938 L 300.519531 177.023438 M 457.1875 59.625 C 457.710938 59.582031 458.105469 59.347656 458.367188 58.921875 C 462.957031 56.367188 467.414062 53 471.738281 48.824219 C 472.789062 49.550781 473.597656 50.488281 474.164062 51.636719 L 475.871094 55.40625 L 461.121094 66.144531 L 457.972656 68.445312 L 457.777344 68.1875 C 457.382812 65.164062 456.621094 62.925781 455.484375 61.480469 L 456.140625 60.710938 C 457.273438 61.179688 458.105469 61.757812 458.628906 62.4375 L 460.859375 65.824219 L 461.578125 65.1875 C 460.96875 62.417969 459.503906 60.5625 457.1875 59.625 M 471.609375 48.699219 L 471.347656 48.632812 L 471.410156 48.570312 L 471.609375 48.699219 M 456.992188 59.5625 L 456.992188 59.496094 L 457.054688 59.5625 L 456.992188 59.5625 M 442.175781 72.023438 L 442.371094 72.023438 L 442.4375 71.960938 L 442.570312 71.960938 L 443.488281 71.449219 L 443.421875 71.257812 L 453.84375 62.5 C 454.632812 63.3125 455.222656 64.269531 455.613281 65.378906 L 456.925781 69.277344 L 446.304688 77.074219 C 445.605469 75.582031 444.40625 74.046875 442.699219 72.472656 L 442.175781 72.023438 L 442.109375 71.960938 L 442.109375 71.894531 L 442.109375 71.960938 L 442.175781 71.960938 L 442.175781 72.023438 M 425 84.804688 L 425.199219 84.675781 L 425.527344 84.675781 L 433.65625 79.117188 C 438.375 75.792969 440.734375 73.792969 440.734375 73.109375 L 440.472656 72.917969 L 440.601562 72.855469 C 443.269531 74.515625 444.84375 76.15625 445.324219 77.777344 L 426.773438 91.324219 L 425.722656 86.339844 L 425 84.804688 M 424.9375 84.613281 L 425 84.742188 L 424.9375 84.613281 M 476.589844 44.734375 C 478.078125 45.714844 479.125 46.90625 479.738281 48.3125 L 480.984375 51.636719 L 476.722656 54.769531 C 476.371094 51.703125 475.453125 49.507812 473.96875 48.1875 L 474.035156 48.1875 L 475.476562 46.589844 C 476.21875 45.777344 476.589844 45.160156 476.589844 44.734375 M 419.5625 88.449219 L 419.5625 88.382812 C 422.140625 87.148438 423.429688 86.296875 423.429688 85.828125 L 423.558594 85.765625 L 424.214844 87.296875 C 424.652344 89.511719 425.175781 91.109375 425.789062 92.089844 L 423.820312 93.496094 L 423.691406 93.367188 C 423.429688 92.132812 422.640625 90.917969 421.332031 89.726562 L 419.5625 88.449219 M 425.917969 83.976562 L 425.917969 83.847656 L 425.917969 83.976562 M 417.988281 89.40625 C 419.167969 89.875 420.105469 90.429688 420.804688 91.070312 L 423.296875 93.816406 L 423.296875 93.878906 L 401.011719 110.242188 L 400.09375 105.640625 L 399.371094 103.785156 L 399.765625 103.785156 L 399.699219 103.914062 L 399.765625 104.042969 L 399.960938 104.042969 C 401.492188 102.59375 404.8125 100.121094 409.925781 96.628906 C 415.300781 92.199219 417.988281 89.789062 417.988281 89.40625 M 397.863281 104.9375 L 398.585938 107.171875 C 398.976562 108.835938 399.4375 110.113281 399.960938 111.007812 L 397.863281 112.542969 L 395.898438 109.855469 L 393.601562 108.132812 L 393.734375 108.132812 L 393.800781 108.066406 L 393.996094 108.003906 L 394.257812 107.621094 L 394.519531 107.363281 C 396.574219 106.214844 397.6875 105.40625 397.863281 104.9375 M 392.683594 109.21875 L 394.78125 110.6875 L 397.144531 113.050781 L 376.167969 128.453125 L 373.742188 124.8125 L 372.625 123.726562 L 372.953125 123.535156 C 373.480469 123.535156 377.039062 121.042969 383.640625 116.054688 C 388.402344 113.414062 391.417969 111.136719 392.683594 109.21875 M 368.234375 126.601562 L 368.367188 126.535156 L 368.429688 126.601562 C 368.78125 126.601562 369.238281 126.386719 369.808594 125.960938 L 370.527344 125.257812 L 370.921875 125.066406 L 372.234375 126.28125 L 374.921875 129.347656 L 370.136719 132.863281 C 369.960938 130.136719 369.328125 128.050781 368.234375 126.601562 M 370.660156 124.8125 L 370.59375 124.875 L 370.464844 124.746094 L 370.527344 124.746094 L 370.660156 124.8125 M 366.988281 128.199219 L 367.578125 129.476562 L 369.019531 133.695312 L 353.355469 145.132812 L 353.355469 144.304688 C 352.875 142.386719 352.238281 140.789062 351.453125 139.511719 L 351.914062 139.511719 C 353.921875 138.230469 356.457031 136.292969 359.515625 133.695312 C 364.191406 130.5 366.683594 128.667969 366.988281 128.199219 M 349.683594 141.554688 L 349.945312 142.003906 L 352.304688 145.902344 L 351.257812 146.667969 L 341.949219 153.507812 C 341.644531 151.207031 340.988281 149.394531 339.980469 148.074219 L 340.246094 148.136719 C 342.648438 146.261719 345.792969 144.070312 349.683594 141.554688 M 258.960938 207.699219 L 259.027344 207.636719 L 259.617188 208.019531 C 260.535156 207.378906 260.992188 206.828125 260.992188 206.359375 L 260.992188 206.292969 L 261.058594 206.359375 L 261.714844 207.378906 C 263.417969 210.0625 264.269531 211.746094 264.269531 212.429688 L 264.140625 212.941406 L 263.417969 212.875 L 262.632812 213.515625 C 261.363281 211 260.140625 209.0625 258.960938 207.699219 "
       id="path4" />
    <path
       style=" stroke:none;fill-rule:evenodd;fill:rgb(47.058824%,16.862746%,22.352941%);fill-opacity:1;"
       d="M 478.949219 44.289062 L 479.015625 44.222656 L 479.148438 44.289062 L 479.082031 44.414062 L 478.949219 44.289062 M 479.277344 44.609375 C 479.585938 44.480469 479.824219 44.375 480 44.289062 L 492.0625 39.941406 C 498.179688 37.640625 501.632812 36.128906 502.417969 35.40625 C 503.378906 38.386719 504.101562 41.902344 504.582031 45.949219 L 504.449219 46.589844 L 482.621094 51.957031 L 482.097656 51.703125 L 482.097656 51.507812 C 481.574219 48.441406 480.632812 46.140625 479.277344 44.609375 M 134.675781 299.214844 L 135.070312 299.34375 L 135.921875 298.894531 L 135.59375 298.832031 C 141.40625 295.808594 147.984375 291.484375 155.324219 285.859375 C 167.472656 276.527344 173.808594 271.671875 174.335938 271.289062 C 185.304688 263.40625 192.011719 258.761719 194.457031 257.355469 L 203.308594 250.199219 L 213.140625 242.914062 C 216.503906 240.484375 225.289062 234.347656 239.492188 224.507812 C 251.992188 215.644531 258.238281 210.726562 258.238281 209.746094 L 258.238281 209.617188 C 259.945312 211.152344 261.101562 212.664062 261.714844 214.15625 L 139.460938 303.753906 L 139.265625 303.433594 L 139.003906 303.050781 L 137.363281 304.265625 L 136.316406 301.453125 L 134.675781 299.214844 M 112.519531 332.703125 C 115.359375 330.828125 119.402344 327.460938 124.648438 322.605469 C 129.585938 318.003906 133.082031 314.488281 135.132812 312.0625 C 157.160156 333.617188 180.648438 349.765625 205.601562 360.503906 C 214.296875 364.253906 223.324219 367.425781 232.675781 370.023438 L 218.515625 369.128906 L 210.386719 368.042969 C 203.308594 366.808594 198.304688 366.191406 195.375 366.191406 L 183.25 364.976562 L 177.414062 362.929688 L 152.898438 354.175781 C 143.851562 351.109375 134.433594 346.570312 124.648438 340.5625 L 112.519531 332.703125 M 233.003906 370.089844 L 233.199219 370.152344 L 233.066406 370.535156 L 233.003906 370.089844 M 191.640625 400.191406 L 177.480469 399.292969 L 169.351562 398.207031 C 162.273438 396.972656 157.269531 396.355469 154.339844 396.355469 L 142.214844 395.140625 L 136.378906 393.097656 L 111.863281 384.339844 C 102.816406 381.273438 93.402344 376.734375 83.613281 370.726562 L 71.484375 362.867188 C 74.324219 360.992188 78.367188 357.628906 83.613281 352.769531 C 88.550781 348.167969 92.046875 344.652344 94.101562 342.226562 C 116.125 363.785156 139.613281 379.929688 164.566406 390.667969 C 173.261719 394.417969 182.289062 397.589844 191.640625 400.191406 M 192.164062 400.316406 L 192.03125 400.699219 L 191.96875 400.253906 L 192.164062 400.316406 M 147.984375 432.269531 L 133.824219 431.375 L 125.695312 430.289062 C 118.617188 429.054688 113.613281 428.4375 110.683594 428.4375 L 98.558594 427.222656 L 92.722656 425.175781 L 68.207031 416.421875 C 59.160156 413.355469 49.742188 408.816406 39.953125 402.808594 L 27.828125 394.949219 C 30.667969 393.074219 34.710938 389.707031 39.953125 384.851562 C 44.894531 380.25 48.390625 376.734375 50.441406 374.308594 C 72.46875 395.863281 95.957031 412.011719 120.910156 422.75 C 129.605469 426.5 138.628906 429.671875 147.984375 432.269531 M 148.507812 432.398438 L 148.375 432.78125 L 148.308594 432.335938 L 148.507812 432.398438 M 90.035156 327.269531 L 90.101562 327.335938 L 89.96875 327.269531 L 90.035156 327.269531 M 93.707031 329.507812 L 93.902344 329.507812 L 98.753906 325.992188 L 99.210938 325.992188 L 102.03125 324.140625 L 102.097656 324.140625 L 103.867188 326.441406 L 105.046875 328.355469 L 102.425781 330.402344 L 102.554688 330.53125 L 98.296875 333.660156 L 98.230469 333.597656 L 97.96875 333.214844 L 96.328125 334.429688 L 95.28125 331.617188 C 94.84375 330.808594 94.316406 330.105469 93.707031 329.507812 M 50.050781 361.589844 C 51.710938 360.992188 53.390625 359.96875 55.097656 358.523438 L 58.046875 356.15625 L 58.175781 356.15625 L 60.996094 354.304688 L 61.0625 354.304688 L 62.832031 356.605469 L 63.945312 358.328125 L 64.011719 358.523438 L 61.390625 360.566406 L 61.257812 360.4375 L 61.128906 360.375 L 56.210938 363.890625 L 54.308594 365.296875 L 52.671875 366.511719 L 51.621094 363.699219 C 51.230469 362.890625 50.703125 362.1875 50.050781 361.589844 M 49.917969 361.398438 L 49.917969 361.332031 L 49.917969 361.460938 L 49.917969 361.398438 M 17.40625 386.386719 L 19.175781 388.6875 L 20.355469 390.601562 L 17.734375 392.648438 L 16.488281 393.605469 C 16.226562 393.011719 15.832031 392.371094 15.308594 391.691406 L 14.78125 390.667969 C 14.128906 389.433594 13.40625 388.472656 12.621094 387.792969 L 12.75 387.664062 C 12.882812 387.875 13.273438 388.046875 13.929688 388.175781 L 14.519531 388.238281 L 17.339844 386.386719 L 17.40625 386.386719 "
       id="path6" />
    <path
       style=" stroke:none;fill-rule:evenodd;fill:rgb(71.372551%,23.137255%,21.568628%);fill-opacity:1;"
       d="M 478.949219 44.289062 C 477.902344 43.265625 476.632812 42.691406 475.148438 42.5625 L 475.933594 41.921875 L 475.804688 41.796875 L 480.917969 30.292969 C 483.496094 24.964844 486.074219 22.304688 488.652344 22.304688 C 491.316406 22.304688 493.65625 23.050781 495.667969 24.539062 L 495.601562 24.605469 L 495.667969 25.179688 L 496.453125 25.308594 L 496.582031 25.242188 C 498.988281 27.332031 500.886719 30.570312 502.285156 34.957031 L 502.484375 34.828125 L 502.613281 35.085938 L 502.417969 35.40625 C 501.632812 36.128906 498.179688 37.640625 492.0625 39.941406 L 480 44.289062 C 479.824219 44.375 479.585938 44.480469 479.277344 44.609375 L 479.015625 44.480469 L 479.082031 44.414062 L 479.148438 44.289062 L 479.015625 44.222656 L 478.949219 44.289062 M 258.238281 209.617188 L 258.238281 209.746094 C 258.238281 210.726562 251.992188 215.644531 239.492188 224.507812 C 225.289062 234.347656 216.503906 240.484375 213.140625 242.914062 L 203.308594 250.199219 L 194.457031 257.355469 C 192.011719 258.761719 185.304688 263.40625 174.335938 271.289062 C 173.808594 271.671875 167.472656 276.527344 155.324219 285.859375 C 147.984375 291.484375 141.40625 295.808594 135.59375 298.832031 L 135.921875 298.894531 L 135.070312 299.34375 L 134.675781 299.214844 C 133.714844 298.320312 132.554688 297.640625 131.203125 297.171875 L 131.003906 297.105469 L 132.054688 296.402344 L 132.121094 296.46875 L 254.109375 206.421875 L 258.109375 209.488281 L 258.175781 209.425781 L 258.238281 209.617188 M 112.519531 332.703125 L 124.648438 340.5625 C 134.433594 346.570312 143.851562 351.109375 152.898438 354.175781 L 177.414062 362.929688 L 183.25 364.976562 L 195.375 366.191406 C 198.304688 366.191406 203.308594 366.808594 210.386719 368.042969 L 218.515625 369.128906 L 232.675781 370.023438 L 233.003906 370.023438 L 233.003906 370.089844 L 233.066406 370.535156 L 233.199219 370.152344 C 252.691406 375.519531 273.644531 378.375 296.0625 378.714844 L 294.554688 379.101562 L 289.113281 380.824219 C 283.039062 382.53125 274.476562 383.382812 263.417969 383.382812 C 252.144531 383.382812 230.054688 380.65625 197.144531 375.203125 C 189.847656 374.476562 182.15625 372.902344 174.070312 370.472656 C 167.167969 368.425781 162.054688 366.46875 158.734375 364.59375 C 141.953125 355.007812 126.679688 344.929688 112.914062 334.363281 L 111.601562 333.277344 L 111.535156 333.214844 L 111.40625 332.765625 C 111.40625 332.640625 111.667969 332.574219 112.191406 332.574219 L 112.519531 332.703125 M 71.484375 362.867188 L 83.613281 370.726562 C 93.402344 376.734375 102.816406 381.273438 111.863281 384.339844 L 136.378906 393.097656 L 142.214844 395.140625 L 154.339844 396.355469 C 157.269531 396.355469 162.273438 396.972656 169.351562 398.207031 L 177.480469 399.292969 L 191.640625 400.191406 L 191.96875 400.191406 L 191.96875 400.253906 L 192.03125 400.699219 L 192.164062 400.316406 C 211.65625 405.6875 232.609375 408.539062 255.027344 408.882812 L 253.519531 409.265625 L 248.078125 410.988281 C 242.003906 412.695312 233.441406 413.546875 222.382812 413.546875 C 211.109375 413.546875 189.019531 410.820312 156.109375 405.367188 C 148.8125 404.640625 141.121094 403.066406 133.035156 400.636719 C 126.132812 398.59375 121.019531 396.632812 117.699219 394.757812 C 100.917969 385.171875 85.644531 375.09375 71.878906 364.527344 L 70.566406 363.441406 L 70.5 363.378906 L 70.371094 362.929688 L 71.15625 362.738281 L 71.484375 362.867188 M 27.828125 394.949219 L 39.953125 402.808594 C 49.742188 408.816406 59.160156 413.355469 68.207031 416.421875 L 92.722656 425.175781 L 98.558594 427.222656 L 110.683594 428.4375 C 113.613281 428.4375 118.617188 429.054688 125.695312 430.289062 L 133.824219 431.375 L 147.984375 432.269531 L 148.308594 432.269531 L 148.308594 432.335938 L 148.375 432.78125 L 148.507812 432.398438 C 167.996094 437.765625 188.953125 440.621094 211.371094 440.960938 L 209.863281 441.347656 L 204.421875 443.070312 C 198.347656 444.777344 189.78125 445.628906 178.726562 445.628906 C 167.453125 445.628906 145.359375 442.902344 112.453125 437.449219 C 105.15625 436.722656 97.464844 435.148438 89.378906 432.71875 C 82.476562 430.671875 77.363281 428.714844 74.042969 426.839844 C 57.261719 417.253906 41.988281 407.175781 28.222656 396.609375 C 27.957031 396.226562 27.523438 395.863281 26.910156 395.523438 L 26.84375 395.460938 L 26.714844 395.011719 C 26.714844 394.886719 26.976562 394.820312 27.5 394.820312 L 27.828125 394.949219 M 90.101562 327.335938 L 90.035156 327.269531 L 91.019531 326.566406 L 91.085938 326.632812 L 96.199219 322.796875 L 96.066406 322.667969 L 98.558594 320.878906 L 98.6875 321.007812 C 99.910156 321.902344 101.046875 322.945312 102.097656 324.140625 L 102.03125 324.140625 L 99.210938 325.992188 L 98.753906 325.992188 L 93.902344 329.507812 L 93.707031 329.507812 L 93.574219 329.445312 L 93.640625 329.378906 C 92.679688 328.484375 91.5 327.804688 90.101562 327.335938 M 4.949219 389.644531 C 5.910156 390.285156 6.4375 390.09375 6.523438 389.070312 C 7.921875 389.070312 9.210938 389.304688 10.390625 389.773438 L 12.488281 391.816406 C 13.972656 393.097656 14.78125 394.117188 14.914062 394.886719 L 13.273438 396.164062 L 10.0625 396.675781 L 5.738281 393.351562 L 3.96875 391.050781 C 3.96875 390.625 4.292969 390.15625 4.949219 389.644531 M 61.0625 354.304688 L 60.996094 354.304688 L 58.175781 356.15625 L 58.046875 356.15625 L 55.097656 358.523438 C 53.390625 359.96875 51.710938 360.992188 50.050781 361.589844 L 49.984375 361.589844 L 49.917969 361.460938 L 49.917969 361.332031 L 49.917969 361.398438 C 48.957031 360.503906 47.753906 359.820312 46.3125 359.351562 L 47.363281 358.648438 L 55.164062 352.898438 L 55.03125 352.835938 L 57.523438 351.042969 L 57.585938 351.109375 C 58.855469 352.046875 60.011719 353.109375 61.0625 354.304688 M 9.40625 386.578125 L 9.277344 386.449219 L 11.375 384.914062 L 13.863281 383.125 C 15.132812 384.0625 16.3125 385.148438 17.40625 386.386719 L 17.339844 386.386719 L 14.519531 388.238281 L 13.929688 388.175781 C 13.273438 388.046875 12.882812 387.875 12.75 387.664062 L 12.621094 387.792969 C 11.660156 386.980469 10.585938 386.578125 9.40625 386.578125 "
       id="path8" />
    <path
       style=" stroke:none;fill-rule:evenodd;fill:rgb(86.274511%,82.745099%,76.862746%);fill-opacity:1;"
       d="M 321.167969 161.6875 L 321.039062 161.621094 L 321.101562 161.558594 C 320.230469 160.238281 318.832031 159.449219 316.90625 159.195312 L 334.277344 146.414062 C 336.160156 147.050781 337.535156 147.902344 338.410156 148.96875 L 338.671875 148.714844 L 338.410156 149.03125 C 336.964844 150.738281 334.496094 152.804688 331 155.230469 L 321.429688 161.75 L 321.167969 161.6875 M 316.90625 165.902344 L 316.84375 165.96875 L 316.515625 165.839844 L 316.710938 165.519531 C 315.617188 164.03125 314.132812 163.050781 312.253906 162.582031 L 315.53125 160.214844 C 317.28125 160.941406 318.570312 161.855469 319.398438 162.964844 L 319.660156 162.707031 L 319.859375 162.902344 L 319.59375 163.21875 L 316.90625 165.902344 M 314.875 166.671875 L 315.136719 166.800781 L 315.007812 166.925781 C 312.558594 169.355469 309.742188 171.570312 306.550781 173.574219 L 299.734375 177.917969 L 298.621094 178.6875 L 298.292969 178.878906 L 296.523438 180.089844 L 296.457031 180.027344 L 296.523438 180.027344 L 295.933594 179.898438 C 294.96875 178.324219 293.679688 177.535156 292.0625 177.535156 L 292 177.472656 L 311.140625 163.410156 C 312.710938 164.265625 313.9375 165.308594 314.808594 166.542969 L 314.679688 166.605469 L 314.875 166.671875 M 294.949219 181.433594 L 294.882812 181.433594 C 294.882812 181.816406 293.898438 182.710938 291.933594 184.117188 C 289.921875 185.523438 288.589844 186.226562 287.933594 186.226562 L 287.410156 186.417969 L 287.34375 186.289062 L 287.214844 186.289062 L 287.214844 186.226562 C 286.820312 184.523438 286.097656 183.308594 285.050781 182.585938 L 291.605469 177.789062 C 293.136719 178.8125 294.25 180.027344 294.949219 181.433594 M 300.519531 177.023438 L 300.585938 176.960938 L 300.519531 176.832031 L 300.519531 177.023438 M 471.738281 48.824219 C 467.414062 53 462.957031 56.367188 458.367188 58.921875 C 458.105469 59.347656 457.710938 59.582031 457.1875 59.625 L 457.054688 59.625 L 457.054688 59.5625 L 456.992188 59.496094 L 456.992188 59.5625 L 453.125 58.859375 L 468.722656 47.292969 L 468.855469 47.484375 L 471.410156 48.570312 L 471.347656 48.632812 L 471.609375 48.699219 L 471.738281 48.761719 L 471.738281 48.824219 M 456.140625 60.710938 L 455.484375 61.480469 L 455.417969 61.480469 L 455.023438 61.414062 L 455.222656 61.160156 L 453.648438 59.945312 L 455.613281 60.519531 L 456.203125 60.074219 L 456.335938 60.265625 L 456.140625 60.710938 M 453.84375 62.5 L 443.421875 71.257812 L 443.488281 71.449219 L 442.570312 71.960938 L 442.4375 71.960938 L 442.371094 72.023438 L 442.175781 72.023438 L 442.175781 71.960938 L 442.109375 71.960938 L 442.109375 71.894531 L 442.109375 71.960938 C 440.84375 70.894531 439.597656 70.171875 438.375 69.789062 L 451.027344 60.457031 L 453.648438 62.308594 L 453.976562 61.992188 L 454.105469 62.246094 L 453.84375 62.5 M 440.601562 72.855469 L 440.472656 72.917969 L 440.734375 73.109375 C 440.734375 73.792969 438.375 75.792969 433.65625 79.117188 L 425.527344 84.675781 L 425.199219 84.675781 L 425 84.804688 L 425 84.742188 L 424.9375 84.613281 C 424.105469 83.292969 422.992188 82.484375 421.59375 82.183594 L 436.867188 70.9375 L 440.601562 72.855469 M 469.511719 46.714844 L 473.96875 43.394531 L 476.394531 44.609375 L 476.523438 44.480469 L 476.589844 44.734375 C 476.589844 45.160156 476.21875 45.777344 475.476562 46.589844 L 474.035156 48.1875 L 473.640625 48.1875 L 473.574219 48.058594 L 473.640625 47.929688 C 472.503906 47.121094 471.128906 46.714844 469.511719 46.714844 M 425.917969 83.976562 L 425.917969 83.847656 L 425.917969 83.976562 M 423.558594 85.765625 L 423.429688 85.828125 C 423.429688 86.296875 422.140625 87.148438 419.5625 88.382812 L 419.5625 88.449219 C 418.25 87.722656 416.765625 87.234375 415.105469 86.976562 L 420.742188 82.824219 C 421.921875 83.632812 422.859375 84.613281 423.558594 85.765625 M 399.371094 103.785156 C 398.542969 102.125 397.40625 101.230469 395.960938 101.101562 L 413.398438 88.257812 L 417.792969 89.34375 L 417.855469 89.277344 L 417.988281 89.40625 C 417.988281 89.789062 415.300781 92.199219 409.925781 96.628906 C 404.8125 100.121094 401.492188 102.59375 399.960938 104.042969 L 399.765625 104.042969 L 399.699219 103.914062 L 399.765625 103.785156 L 399.371094 103.785156 M 393.601562 108.132812 L 393.210938 108.066406 L 393.339844 108.003906 C 391.8125 107.28125 390.0625 106.894531 388.097656 106.855469 L 395.242188 101.613281 C 396.289062 102.378906 397.121094 103.402344 397.734375 104.679688 L 397.796875 104.679688 L 397.863281 104.808594 L 397.863281 104.9375 C 397.6875 105.40625 396.574219 106.214844 394.519531 107.363281 L 394.257812 107.621094 L 393.996094 108.003906 L 393.800781 108.066406 L 393.734375 108.132812 L 393.601562 108.132812 M 392.683594 109.21875 C 391.417969 111.136719 388.402344 113.414062 383.640625 116.054688 C 377.039062 121.042969 373.480469 123.535156 372.953125 123.535156 L 372.625 123.726562 L 372.496094 123.726562 L 372.429688 123.597656 C 371.164062 122.703125 369.457031 122.210938 367.316406 122.128906 L 387.179688 107.554688 L 387.179688 107.621094 C 389.234375 107.960938 390.960938 108.453125 392.355469 109.089844 L 392.554688 108.707031 L 392.882812 108.835938 L 392.683594 109.21875 M 368.234375 126.601562 L 368.101562 126.535156 L 368.167969 126.472656 C 367.207031 125.28125 365.917969 124.578125 364.300781 124.363281 L 366.136719 123.023438 C 367.886719 123.40625 369.347656 123.980469 370.527344 124.746094 L 370.464844 124.746094 L 370.59375 124.875 L 370.660156 124.8125 L 370.660156 124.746094 L 371.25 124.875 L 370.921875 125.066406 L 370.527344 125.257812 L 369.808594 125.960938 C 369.238281 126.386719 368.78125 126.601562 368.429688 126.601562 L 368.367188 126.535156 L 368.234375 126.601562 M 351.453125 139.511719 L 351.386719 139.382812 C 350.46875 137.890625 349.355469 136.867188 348.042969 136.316406 L 363.449219 125.003906 C 364.980469 125.855469 366.113281 126.835938 366.859375 127.941406 L 366.921875 127.878906 L 366.988281 128.070312 L 366.988281 128.199219 C 366.683594 128.667969 364.191406 130.5 359.515625 133.695312 C 356.457031 136.292969 353.921875 138.230469 351.914062 139.511719 L 351.453125 139.511719 M 339.980469 148.074219 L 339.917969 148.011719 L 339.980469 148.011719 C 338.890625 146.648438 337.425781 145.816406 335.589844 145.519531 L 346.40625 137.527344 L 349.488281 141.363281 L 349.816406 141.109375 L 349.945312 141.363281 L 349.683594 141.554688 C 345.792969 144.070312 342.648438 146.261719 340.246094 148.136719 L 339.980469 148.074219 M 260.992188 206.292969 L 260.992188 206.359375 C 260.992188 206.828125 260.535156 207.378906 259.617188 208.019531 L 259.027344 207.636719 L 258.960938 207.699219 C 257.78125 206.421875 256.644531 205.65625 255.550781 205.398438 L 258.371094 203.226562 L 258.566406 203.035156 L 260.730469 205.910156 L 260.796875 205.847656 L 260.992188 206.292969 "
       id="path10" />
    <path
       style=" stroke:none;fill-rule:evenodd;fill:rgb(49.019608%,45.882353%,47.058824%);fill-opacity:1;"
       d="M 131.53125 298.960938 L 131.53125 300.046875 L 132.121094 300.878906 C 129.976562 302.667969 126.21875 306.140625 120.84375 311.292969 L 113.699219 316.597656 C 112.34375 317.40625 111.296875 318.300781 110.554688 319.28125 L 110.226562 319.601562 L 110.160156 319.472656 L 108.847656 320.625 C 107.363281 321.5625 105.964844 322.09375 104.652344 322.222656 L 104.589844 322.160156 L 104.785156 322.160156 L 104.523438 322.03125 C 103.515625 320.835938 102.382812 319.898438 101.113281 319.21875 L 100.917969 319.089844 L 101.113281 318.964844 C 100.195312 318.621094 99.648438 318.195312 99.476562 317.683594 L 99.410156 317.300781 L 98.296875 318.132812 L 96.523438 317.875 C 97.660156 315.191406 101.070312 311.996094 106.75 308.289062 C 114.574219 303.179688 119.46875 299.597656 121.433594 297.554688 L 123.992188 296.722656 L 123.992188 296.980469 L 127.070312 297.683594 L 127.660156 297.875 L 127.988281 298.320312 L 128.382812 298.320312 L 129.496094 298.382812 L 131.53125 298.960938 M 63.488281 352.195312 C 62.4375 350.960938 61.28125 350 60.011719 349.320312 L 59.882812 349.253906 L 60.078125 349.128906 C 58.984375 348.742188 58.417969 348.191406 58.375 347.464844 L 57.261719 348.296875 L 56.996094 348.234375 L 55.488281 348.039062 C 56.625 345.355469 60.035156 342.160156 65.714844 338.453125 C 73.539062 333.34375 78.433594 329.761719 80.398438 327.71875 L 82.957031 326.886719 L 82.957031 327.144531 L 85.578125 327.71875 L 86.625 328.039062 L 86.953125 328.484375 L 87.347656 328.484375 L 88.398438 328.550781 L 90.496094 329.125 L 90.496094 330.210938 L 91.085938 331.042969 L 79.808594 341.457031 L 72.664062 346.761719 C 71.308594 347.574219 70.261719 348.46875 69.519531 349.445312 L 69.191406 349.765625 L 69.125 349.636719 L 67.8125 350.789062 C 66.328125 351.726562 64.929688 352.257812 63.617188 352.386719 L 63.554688 352.324219 L 63.75 352.324219 L 63.488281 352.195312 M 106.226562 330.339844 L 106.359375 330.53125 L 107.472656 332.574219 L 105.832031 333.023438 L 104.390625 332 L 104.261719 331.808594 L 106.226562 330.339844 M 65.257812 360.628906 L 66.4375 362.738281 L 64.796875 363.1875 L 63.289062 362.101562 L 63.226562 361.972656 L 65.191406 360.503906 L 65.257812 360.628906 M 19.832031 384.277344 C 18.78125 383 17.578125 382.019531 16.226562 381.335938 L 16.421875 381.210938 C 15.328125 380.824219 14.761719 380.273438 14.71875 379.546875 L 13.601562 380.378906 L 11.832031 380.121094 C 12.96875 377.4375 16.378906 374.242188 22.058594 370.535156 C 29.882812 365.421875 34.777344 361.84375 36.742188 359.800781 L 39.300781 358.96875 L 39.300781 359.226562 L 42.96875 360.121094 L 43.296875 360.566406 L 43.691406 360.566406 C 44.914062 360.566406 45.964844 360.78125 46.835938 361.207031 L 46.835938 362.292969 L 47.425781 363.125 L 36.152344 373.539062 L 29.007812 378.84375 C 27.652344 379.652344 26.605469 380.546875 25.859375 381.527344 L 25.535156 381.847656 L 25.46875 381.71875 L 24.15625 382.871094 C 22.671875 383.808594 21.273438 384.339844 19.960938 384.46875 L 19.894531 384.40625 L 20.09375 384.40625 L 19.832031 384.277344 M 21.535156 392.585938 L 22.78125 394.820312 L 21.140625 395.269531 L 19.566406 394.054688 L 21.535156 392.585938 "
       id="path12" />
    <path
       style=" stroke:none;fill-rule:evenodd;fill:rgb(95.294118%,62.352943%,57.254905%);fill-opacity:1;"
       d="M 296.0625 378.714844 L 299.40625 378.269531 L 301.109375 378.523438 L 300.390625 378.714844 L 300.519531 378.714844 L 300.585938 378.84375 C 299.667969 379.269531 298.640625 379.761719 297.503906 380.3125 L 295.605469 382.167969 L 292.390625 382.933594 C 277.359375 386.386719 267.941406 389.089844 264.140625 391.050781 C 263.003906 391.347656 250.964844 391.5 228.019531 391.5 C 202.019531 391.5 174.355469 381.613281 145.03125 361.84375 C 131.179688 352.515625 119.621094 343.207031 110.355469 333.917969 L 111.144531 333.535156 L 111.078125 333.46875 L 111.40625 333.152344 L 111.601562 333.277344 L 112.914062 334.363281 C 126.679688 344.929688 141.953125 355.007812 158.734375 364.59375 C 162.054688 366.46875 167.167969 368.425781 174.070312 370.472656 C 182.15625 372.902344 189.847656 374.476562 197.144531 375.203125 C 230.054688 380.65625 252.144531 383.382812 263.417969 383.382812 C 274.476562 383.382812 283.039062 382.53125 289.113281 380.824219 L 294.554688 379.101562 L 296.0625 378.714844 M 70.566406 363.441406 L 71.878906 364.527344 C 85.644531 375.09375 100.917969 385.171875 117.699219 394.757812 C 121.019531 396.632812 126.132812 398.59375 133.035156 400.636719 C 141.121094 403.066406 148.8125 404.640625 156.109375 405.367188 C 189.019531 410.820312 211.109375 413.546875 222.382812 413.546875 C 233.441406 413.546875 242.003906 412.695312 248.078125 410.988281 L 253.519531 409.265625 L 255.027344 408.882812 L 258.371094 408.433594 L 260.074219 408.6875 L 259.355469 408.882812 L 259.484375 408.882812 L 259.550781 409.007812 L 256.46875 410.480469 L 254.570312 412.332031 L 251.355469 413.097656 C 236.324219 416.550781 226.90625 419.253906 223.105469 421.214844 C 221.96875 421.511719 209.929688 421.664062 186.984375 421.664062 C 160.984375 421.664062 133.320312 411.777344 103.996094 392.007812 C 90.144531 382.679688 78.585938 373.371094 69.320312 364.082031 L 70.109375 363.699219 L 70.042969 363.632812 L 70.371094 363.316406 L 70.566406 363.441406 M 26.910156 395.523438 C 27.523438 395.863281 27.957031 396.226562 28.222656 396.609375 C 41.988281 407.175781 57.261719 417.253906 74.042969 426.839844 C 77.363281 428.714844 82.476562 430.671875 89.378906 432.71875 C 97.464844 435.148438 105.15625 436.722656 112.453125 437.449219 C 145.359375 442.902344 167.453125 445.628906 178.726562 445.628906 C 189.78125 445.628906 198.347656 444.777344 204.421875 443.070312 L 209.863281 441.347656 L 211.371094 440.960938 L 214.714844 440.515625 L 216.417969 440.769531 L 215.695312 440.960938 L 215.828125 440.960938 L 215.894531 441.089844 C 214.976562 441.515625 213.949219 442.007812 212.8125 442.558594 L 210.910156 444.414062 L 207.699219 445.179688 C 192.667969 448.632812 183.25 451.335938 179.449219 453.296875 C 178.3125 453.59375 166.273438 453.742188 143.328125 453.742188 C 117.328125 453.742188 89.664062 443.859375 60.339844 424.089844 C 46.488281 414.761719 34.929688 405.453125 25.664062 396.164062 L 26.449219 395.78125 L 26.386719 395.714844 L 26.714844 395.394531 L 26.910156 395.523438 "
       id="path14" />
    <path
       style=" stroke:none;fill-rule:evenodd;fill:rgb(72.156864%,73.725492%,75.686276%);fill-opacity:1;"
       d="M 131.53125 298.960938 L 131.988281 298.960938 L 132.25 299.40625 C 132.863281 299.875 133.363281 300.492188 133.757812 301.261719 L 134.609375 302.539062 L 135.59375 305.542969 L 134.542969 304.136719 L 134.480469 305.988281 L 134.480469 306.757812 L 134.742188 307.269531 L 135.070312 308.480469 L 135.003906 309.3125 L 135.199219 309.375 L 135.527344 309.375 C 134.390625 311.464844 130 315.640625 122.351562 321.902344 L 116.386719 326.695312 L 116.058594 326.566406 C 115.882812 326.566406 115.6875 326.632812 115.46875 326.757812 L 111.535156 329.699219 L 111.535156 330.210938 L 108.519531 332.0625 L 108.0625 329.316406 L 107.996094 329.125 L 108.191406 328.933594 C 107.886719 328.378906 107.734375 327.675781 107.734375 326.824219 L 107.800781 326.25 L 107.144531 326.695312 L 106.421875 325.097656 C 105.898438 324.03125 105.308594 323.09375 104.652344 322.285156 L 104.523438 322.222656 L 104.652344 322.222656 C 105.964844 322.09375 107.363281 321.5625 108.847656 320.625 L 110.160156 319.472656 L 110.226562 319.601562 L 110.554688 319.28125 C 111.296875 318.300781 112.34375 317.40625 113.699219 316.597656 L 120.84375 311.292969 C 126.21875 306.140625 129.976562 302.667969 132.121094 300.878906 L 131.53125 300.046875 L 131.53125 298.960938 M 104.523438 322.03125 L 104.785156 322.160156 L 104.324219 322.160156 L 104.195312 321.839844 L 104.523438 322.03125 M 288.066406 385.808594 L 276.660156 391.113281 C 274.257812 391.964844 270.082031 392.796875 264.140625 393.605469 L 250.113281 395.523438 L 249.257812 395.714844 C 231.429688 395.589844 216.550781 394.417969 204.617188 392.199219 C 181.152344 387.898438 161.792969 379.441406 146.539062 366.828125 L 141.558594 362.738281 C 149.335938 368.363281 157.027344 373.027344 164.632812 376.734375 C 186.875 387.558594 213.316406 392.96875 243.949219 392.96875 C 253.390625 392.96875 262.761719 391.988281 272.070312 390.027344 L 277.773438 388.6875 L 288 385.683594 L 288.066406 385.808594 M 203.375 448.054688 L 191.96875 453.359375 C 189.5625 454.210938 185.390625 455.042969 179.449219 455.851562 L 165.417969 457.769531 L 164.566406 457.960938 C 146.738281 457.835938 131.855469 456.664062 119.925781 454.445312 C 96.460938 450.144531 77.101562 441.6875 61.847656 429.074219 L 56.867188 424.984375 C 64.644531 430.609375 72.335938 435.273438 79.941406 438.980469 C 102.183594 449.804688 128.625 455.214844 159.257812 455.214844 C 168.695312 455.214844 178.070312 454.234375 187.378906 452.273438 L 193.082031 450.933594 L 203.308594 447.929688 L 203.375 448.054688 M 247.03125 415.976562 C 240.824219 419 237.023438 420.769531 235.625 421.277344 C 233.222656 422.132812 229.046875 422.960938 223.105469 423.769531 L 209.078125 425.6875 L 208.222656 425.878906 C 190.394531 425.753906 175.515625 424.582031 163.582031 422.367188 C 140.117188 418.0625 120.757812 409.605469 105.503906 396.996094 L 100.523438 392.902344 C 108.300781 398.527344 115.992188 403.191406 123.597656 406.898438 C 145.839844 417.722656 172.28125 423.132812 202.914062 423.132812 C 212.355469 423.132812 221.726562 422.152344 231.035156 420.191406 L 236.738281 418.851562 L 246.964844 415.847656 L 247.03125 415.976562 M 63.488281 352.195312 L 63.75 352.324219 L 63.289062 352.324219 L 63.160156 352.003906 L 63.488281 352.195312 M 63.617188 352.386719 C 64.929688 352.257812 66.328125 351.726562 67.8125 350.789062 L 69.125 349.636719 L 69.191406 349.765625 L 69.519531 349.445312 C 70.261719 348.46875 71.308594 347.574219 72.664062 346.761719 L 79.808594 341.457031 L 91.085938 331.042969 L 90.496094 330.210938 L 90.496094 329.125 L 90.953125 329.125 L 91.214844 329.570312 C 91.828125 330.039062 92.328125 330.65625 92.722656 331.425781 L 93.574219 332.703125 L 94.558594 335.707031 L 93.507812 334.300781 L 93.445312 336.152344 L 93.445312 336.921875 L 93.507812 337.046875 L 94.035156 338.648438 L 93.96875 339.476562 L 94.164062 339.542969 L 94.492188 339.542969 C 93.355469 341.628906 88.964844 345.804688 81.316406 352.066406 L 75.351562 356.859375 L 75.023438 356.730469 L 74.433594 356.925781 L 70.5 359.863281 L 70.5 360.375 L 67.484375 362.226562 L 66.960938 359.417969 L 66.960938 359.289062 L 67.15625 359.097656 C 66.851562 358.542969 66.699219 357.839844 66.699219 356.988281 L 66.765625 356.414062 L 66.109375 356.859375 L 66.109375 356.796875 L 65.386719 355.261719 C 64.863281 354.199219 64.273438 353.261719 63.617188 352.449219 L 63.488281 352.386719 L 63.617188 352.386719 M 108.457031 334.429688 L 109.308594 334.300781 L 121.238281 345.996094 L 107.144531 334.429688 L 108.457031 334.429688 M 66.109375 364.59375 L 67.421875 364.59375 L 68.273438 364.464844 L 80.203125 376.160156 L 66.109375 364.59375 M 19.832031 384.277344 L 20.09375 384.40625 L 19.632812 384.40625 L 19.503906 384.085938 L 19.832031 384.277344 M 19.960938 384.46875 C 21.273438 384.339844 22.671875 383.808594 24.15625 382.871094 L 25.46875 381.71875 L 25.535156 381.847656 L 25.859375 381.527344 C 26.605469 380.546875 27.652344 379.652344 29.007812 378.84375 L 36.152344 373.539062 L 47.425781 363.125 L 46.835938 362.292969 L 46.835938 361.207031 L 47.296875 361.207031 L 47.558594 361.652344 C 48.171875 362.121094 48.671875 362.738281 49.066406 363.507812 L 49.917969 364.785156 L 50.902344 367.789062 L 49.851562 366.382812 L 49.789062 368.234375 L 49.789062 369.003906 C 50.09375 369.554688 50.289062 370.132812 50.378906 370.726562 L 50.3125 371.558594 L 50.835938 371.621094 C 49.699219 373.710938 45.308594 377.886719 37.660156 384.148438 L 31.695312 388.941406 L 31.367188 388.8125 L 30.777344 389.003906 L 26.84375 391.945312 L 26.84375 392.457031 L 23.828125 394.308594 L 23.304688 391.371094 L 23.5 391.179688 C 23.195312 390.625 23.042969 389.921875 23.042969 389.070312 L 23.109375 388.496094 L 22.453125 388.941406 L 21.730469 387.34375 C 21.207031 386.277344 20.617188 385.339844 19.960938 384.53125 L 19.832031 384.46875 L 19.960938 384.46875 M 22.453125 396.675781 L 23.761719 396.675781 L 24.617188 396.546875 C 28.59375 400.679688 32.570312 404.578125 36.546875 408.242188 L 22.453125 396.675781 "
       id="path16" />
    <path
       style=" stroke:none;fill-rule:evenodd;fill:rgb(21.568628%,21.960784%,18.431373%);fill-opacity:1;"
       d="M 509.957031 23.519531 L 510.414062 23.773438 L 517.035156 20.257812 C 519.527344 18.9375 521.054688 17.808594 521.625 16.871094 L 521.753906 17 L 518.414062 23.132812 C 516.664062 23.902344 513.890625 25.433594 510.085938 27.734375 L 508.121094 28.949219 L 509.957031 23.519531 M 524.246094 15.464844 L 524.378906 15.65625 L 525.03125 15.785156 L 525.6875 15.335938 C 527 15.210938 528.417969 14.507812 529.949219 13.230469 L 534.011719 12.078125 C 536.417969 11.441406 537.617188 10.886719 537.617188 10.417969 L 537.816406 10.542969 C 537.160156 12.25 536.417969 13.738281 535.585938 15.019531 L 533.949219 15.785156 C 529.402344 18.257812 525.296875 20.28125 521.625 21.855469 L 523.261719 18.085938 L 524.246094 15.464844 M 500.253906 28.3125 L 500.253906 28.246094 L 500.253906 28.3125 M 500.714844 28.949219 L 500.910156 29.015625 C 504.1875 27.734375 506.308594 26.691406 507.269531 25.882812 L 505.5 30.675781 C 503.839844 31.824219 503.007812 32.636719 503.007812 33.105469 L 500.714844 28.949219 M 525.03125 107.554688 L 525.097656 107.554688 L 525.296875 107.621094 C 525.730469 107.28125 528.09375 106.085938 532.375 104.042969 C 534.691406 102.933594 536.308594 101.847656 537.226562 100.78125 L 537.09375 103.65625 C 537.09375 106 537.421875 107.984375 538.078125 109.601562 L 528.574219 115.609375 L 523.984375 118.613281 L 523 113.820312 C 523 112.03125 523.679688 109.941406 525.03125 107.554688 M 515.265625 115.929688 L 515.527344 115.738281 C 515.527344 115.351562 516.664062 114.265625 518.9375 112.476562 L 522.28125 109.664062 C 521.84375 110.945312 521.625 112.285156 521.625 113.691406 L 522.082031 116.566406 C 522.390625 118.015625 522.695312 118.933594 523 119.316406 L 517.230469 123.597656 L 515.265625 115.929688 M 505.890625 126.601562 L 506.152344 126.601562 C 506.808594 124.511719 509.277344 121.46875 513.5625 117.460938 L 513.757812 119.761719 C 514.109375 122.703125 514.871094 124.320312 516.050781 124.621094 L 514.742188 125.898438 C 512.730469 127.941406 511.265625 130.09375 510.347656 132.351562 L 506.285156 127.433594 L 505.890625 126.601562 M 501.042969 136.378906 L 501.367188 136.378906 L 501.367188 134.78125 C 501.585938 133.589844 502.15625 132.289062 503.074219 130.882812 L 503.464844 130.242188 L 503.53125 130.308594 L 504.054688 130.179688 C 504.320312 129.113281 504.667969 128.285156 505.105469 127.6875 L 505.5 128.773438 C 506.898438 131.925781 508.339844 133.566406 509.824219 133.695312 C 509.257812 135.3125 508.972656 136.976562 508.972656 138.679688 L 508.84375 138.808594 C 508.230469 138.210938 507.640625 137.914062 507.070312 137.914062 L 503.792969 138.617188 L 503.730469 138.359375 L 503.792969 137.273438 C 503.707031 136.847656 503.292969 136.632812 502.550781 136.632812 L 501.105469 136.507812 L 501.042969 136.378906 M 502.222656 138.039062 L 502.285156 138.230469 L 501.367188 140.339844 L 499.207031 141.300781 L 499.402344 140.214844 C 499.226562 139.703125 498.265625 139.445312 496.519531 139.445312 C 494.902344 139.445312 494.09375 139.660156 494.09375 140.085938 L 493.109375 142.324219 L 490.421875 142.066406 C 492.125 140.875 492.976562 139.894531 492.976562 139.125 L 492.324219 138.359375 L 493.960938 137.847656 L 495.273438 138.742188 C 495.492188 138.699219 496.671875 138.019531 498.8125 136.699219 L 499.46875 138.617188 L 499.992188 138.742188 L 502.222656 138.039062 M 502.941406 140.660156 L 503.335938 140.339844 C 504.164062 139.828125 505.410156 139.488281 507.070312 139.320312 C 507.203125 139.914062 507.597656 140.46875 508.25 140.980469 C 508.863281 141.449219 509.167969 141.980469 509.167969 142.578125 L 508.972656 144.558594 L 507.070312 145.199219 L 508.1875 143.792969 C 507.445312 140.9375 505.519531 140.171875 502.417969 141.492188 L 502.417969 141.425781 L 502.941406 140.660156 M 506.089844 146.15625 L 505.957031 146.667969 L 506.152344 147.753906 L 505.433594 147.625 L 504.515625 147.945312 L 503.335938 149.417969 C 503.421875 148.394531 503.140625 147.777344 502.484375 147.5625 L 504.449219 147.625 L 506.089844 146.15625 M 501.695312 147.5 C 500.996094 147.925781 500.472656 148.136719 500.125 148.136719 C 499.90625 147.667969 499.226562 147.414062 498.089844 147.371094 L 497.632812 146.15625 L 498.027344 146.347656 C 498.769531 146.902344 499.992188 147.285156 501.695312 147.5 M 497.304688 145.964844 L 495.992188 146.667969 L 495.929688 146.539062 C 495.667969 145.984375 494.859375 145.390625 493.503906 144.75 L 493.570312 144.113281 L 494.09375 144.046875 L 497.304688 145.964844 M 539.519531 9.585938 C 539.519531 9.800781 539.804688 9.90625 540.371094 9.90625 C 541.507812 9.949219 542.882812 10.351562 544.5 11.121094 C 545.769531 11.84375 546.707031 12.269531 547.320312 12.398438 L 546.273438 13.613281 L 546.273438 13.675781 L 543.320312 13.484375 L 538.144531 14.125 L 539.519531 9.585938 M 564.625 13.996094 L 564.953125 13.738281 C 566.832031 16.46875 568.601562 19.875 570.261719 23.964844 L 571.707031 27.671875 L 571.640625 27.671875 L 570.984375 28.246094 L 571.117188 28.566406 L 566.332031 28.695312 L 566.199219 28.628906 L 566.394531 27.671875 C 566.394531 26.136719 566.132812 23.816406 565.609375 20.707031 C 565.609375 17.597656 565.28125 15.359375 564.625 13.996094 M 566.460938 30.101562 L 567.707031 30.101562 C 570.242188 30.101562 571.726562 29.78125 572.164062 29.140625 C 573.082031 32.039062 573.738281 34.746094 574.128906 37.257812 L 573.738281 37.195312 L 572.296875 37.707031 L 566.789062 37.257812 L 566.789062 37.195312 L 567.117188 37.066406 L 567.117188 32.722656 C 566.898438 32.679688 566.789062 32.167969 566.789062 31.1875 L 566.460938 30.101562 M 567.246094 38.792969 L 572.492188 39.304688 L 574.195312 38.214844 L 574.394531 41.476562 L 574.195312 48.953125 L 572.949219 49.015625 C 571.859375 49.359375 570.898438 49.167969 570.066406 48.441406 C 568.625 47.675781 567.683594 47.101562 567.246094 46.714844 L 566.789062 46.140625 L 566.789062 44.03125 L 567.246094 38.792969 M 564.757812 63.269531 C 566.023438 62.332031 566.65625 57.496094 566.65625 48.761719 C 568.535156 50.039062 570.65625 50.679688 573.015625 50.679688 L 574.066406 50.679688 L 573.804688 52.46875 L 571.707031 65.953125 C 571.617188 67.316406 571.3125 68.785156 570.789062 70.363281 L 569.738281 69.46875 C 567.773438 67.722656 566.175781 65.78125 564.953125 63.652344 L 564.757812 63.269531 M 557.808594 77.582031 L 557.875 77.582031 C 558.75 76.6875 559.949219 74.773438 561.480469 71.832031 C 563.140625 68.722656 564.015625 66.441406 564.101562 64.992188 L 564.296875 65.503906 C 565.785156 69.339844 567.730469 71.554688 570.132812 72.152344 L 567.050781 78.160156 L 561.28125 86.914062 C 559.359375 83.464844 558.203125 80.351562 557.808594 77.582031 M 556.890625 80.078125 L 557.351562 82.25 C 558.136719 85.785156 559.074219 87.914062 560.167969 88.640625 L 558.988281 90.492188 C 556.933594 93.730469 554.289062 96.863281 551.058594 99.886719 L 550.335938 97.90625 C 549.460938 95.222656 549.023438 93.21875 549.023438 91.898438 L 549.089844 89.726562 L 549.222656 89.789062 L 549.484375 89.789062 C 553.589844 84.976562 556.058594 81.738281 556.890625 80.078125 M 539.324219 98.355469 C 543.691406 95.371094 546.46875 93.242188 547.648438 91.964844 C 547.648438 94.773438 547.734375 96.5 547.910156 97.140625 C 548.347656 99.058594 548.851562 100.460938 549.417969 101.359375 L 545.089844 104.808594 L 539.125 108.960938 C 538.6875 107.257812 538.472656 105.554688 538.472656 103.851562 C 538.472656 102.273438 538.734375 100.484375 539.257812 98.480469 L 539.324219 98.355469 "
       id="path18" />
    <path
       style=" stroke:none;fill-rule:evenodd;fill:rgb(34.901962%,34.117648%,28.235295%);fill-opacity:1;"
       d="M 509.957031 23.519531 L 509.757812 23.007812 L 510.21875 22.429688 L 512.183594 15.082031 L 512.121094 14.828125 L 512.90625 14.507812 C 514.261719 14.125 515.222656 13.699219 515.789062 13.230469 L 524.3125 7.03125 C 523.832031 7.925781 523.523438 9.011719 523.394531 10.289062 L 522.738281 15.144531 L 521.753906 17 L 521.625 16.871094 C 521.054688 17.808594 519.527344 18.9375 517.035156 20.257812 L 510.414062 23.773438 L 509.957031 23.519531 M 524.246094 15.464844 L 524.113281 15.082031 L 524.441406 14.699219 L 524.378906 14.570312 L 524.574219 14.316406 C 525.492188 11.332031 525.949219 8.753906 525.949219 6.582031 L 525.820312 6.007812 C 528.355469 4.386719 530.40625 3.324219 531.980469 2.8125 L 540.109375 1.660156 C 539.367188 2.515625 538.929688 3.75 538.796875 5.367188 L 538.144531 9.648438 L 537.816406 10.542969 L 537.617188 10.417969 C 537.617188 10.886719 536.417969 11.441406 534.011719 12.078125 L 529.949219 13.230469 C 528.417969 14.507812 527 15.210938 525.6875 15.335938 L 525.03125 15.785156 L 524.378906 15.65625 L 524.246094 15.464844 M 500.253906 28.3125 L 497.109375 24.925781 L 506.023438 19.234375 L 510.023438 15.914062 L 510.480469 15.59375 C 510.085938 16.234375 509.804688 17.042969 509.628906 18.023438 L 508.710938 22.429688 L 507.792969 24.730469 L 507.859375 24.925781 L 507.269531 25.882812 C 506.308594 26.691406 504.1875 27.734375 500.910156 29.015625 L 500.714844 28.949219 L 500.253906 28.3125 L 500.253906 28.246094 L 500.253906 28.3125 M 525.03125 107.554688 L 526.148438 105.703125 L 529.226562 101.039062 L 529.226562 100.589844 L 538.734375 93.753906 C 537.988281 95.414062 537.507812 97.480469 537.289062 99.953125 L 537.488281 99.503906 L 537.882812 99.632812 L 537.226562 100.78125 C 536.308594 101.847656 534.691406 102.933594 532.375 104.042969 C 528.09375 106.085938 525.730469 107.28125 525.296875 107.621094 L 525.097656 107.554688 L 525.03125 107.554688 M 515.265625 115.929688 L 515.132812 115.929688 L 515.070312 115.738281 L 515.132812 115.546875 L 514.9375 114.714844 L 516.25 110.433594 L 516.117188 110.304688 L 525.359375 103.273438 L 527.195312 101.996094 L 523.460938 107.046875 L 522.410156 109.28125 L 522.476562 109.472656 L 522.28125 109.664062 L 518.9375 112.476562 C 516.664062 114.265625 515.527344 115.351562 515.527344 115.738281 L 515.265625 115.929688 M 505.890625 126.601562 L 505.828125 126.601562 L 505.761719 126.472656 L 505.828125 126.34375 L 505.238281 123.917969 L 504.777344 121.871094 C 506.746094 119.316406 509.015625 116.800781 511.59375 114.332031 L 513.691406 112.414062 L 513.5625 114.648438 L 513.5625 117.015625 L 513.890625 117.144531 L 513.5625 117.460938 C 509.277344 121.46875 506.808594 124.511719 506.152344 126.601562 L 505.890625 126.601562 M 496.78125 136.25 L 498.089844 132.863281 L 498.484375 134.527344 L 498.746094 135.355469 L 496.78125 136.441406 L 496.78125 136.25 M 501.042969 136.378906 L 500.910156 136.378906 L 500.777344 135.996094 L 500.777344 135.613281 L 498.945312 131.011719 C 500.253906 128.367188 501.894531 125.75 503.859375 123.148438 L 503.792969 123.726562 C 504.144531 125.046875 504.558594 126.324219 505.039062 127.558594 L 505.171875 127.558594 L 505.105469 127.6875 C 504.667969 128.285156 504.320312 129.113281 504.054688 130.179688 L 503.53125 130.308594 L 503.464844 130.242188 L 503.074219 130.882812 C 502.15625 132.289062 501.585938 133.589844 501.367188 134.78125 L 501.367188 136.378906 L 501.042969 136.378906 M 501.367188 140.339844 L 501.894531 139.957031 L 502.8125 140.085938 L 502.941406 140.597656 L 502.941406 140.660156 L 502.417969 141.425781 L 502.417969 141.492188 C 505.519531 140.171875 507.445312 140.9375 508.1875 143.792969 L 507.070312 145.199219 C 506.546875 145.453125 506.21875 145.773438 506.089844 146.15625 L 504.449219 147.625 L 502.484375 147.5625 L 501.695312 147.5 C 499.992188 147.285156 498.769531 146.902344 498.027344 146.347656 L 497.632812 146.15625 L 497.304688 145.964844 L 494.09375 144.046875 L 493.632812 143.726562 L 492.976562 142.898438 L 493.109375 142.324219 L 494.09375 140.085938 C 494.09375 139.660156 494.902344 139.445312 496.519531 139.445312 C 498.265625 139.445312 499.226562 139.703125 499.402344 140.214844 L 499.207031 141.300781 L 501.367188 140.339844 M 539.519531 9.585938 L 540.832031 2.238281 L 540.304688 1.660156 L 550.269531 1.40625 C 551.710938 1.40625 553.285156 1.980469 554.988281 3.132812 L 551.84375 7.476562 L 548.238281 11.441406 L 548.433594 11.757812 C 548.304688 12.183594 548.019531 12.398438 547.582031 12.398438 L 547.320312 12.398438 C 546.707031 12.269531 545.769531 11.84375 544.5 11.121094 C 542.882812 10.351562 541.507812 9.949219 540.371094 9.90625 C 539.804688 9.90625 539.519531 9.800781 539.519531 9.585938 M 554.070312 16.550781 C 552.28125 15.230469 550.183594 14.335938 547.777344 13.867188 C 549.660156 12.292969 552.367188 8.945312 555.90625 3.835938 L 558.003906 5.75 L 560.101562 7.859375 L 559.773438 8.179688 C 561.261719 9.289062 562.679688 10.738281 564.035156 12.527344 C 561.589844 13.675781 559.140625 14.613281 556.695312 15.335938 C 554.988281 15.847656 554.136719 16.210938 554.136719 16.425781 L 554.070312 16.550781 M 564.625 13.996094 C 565.28125 15.359375 565.609375 17.597656 565.609375 20.707031 C 566.132812 23.816406 566.394531 26.136719 566.394531 27.671875 L 566.199219 28.628906 L 566.332031 28.695312 L 564.953125 28.695312 L 560.824219 25.308594 C 560.082031 23.644531 558.769531 21.621094 556.890625 19.234375 L 556.824219 19.234375 L 554.859375 17.191406 L 554.925781 17.128906 C 557.152344 17.128906 559.511719 16.550781 562.003906 15.402344 C 562.964844 14.976562 563.730469 14.570312 564.296875 14.1875 L 564.167969 13.675781 L 564.429688 13.613281 L 564.625 13.996094 M 566.789062 37.257812 L 564.035156 36.300781 L 562.070312 34.957031 L 561.871094 33.808594 L 561.347656 28.3125 C 562.484375 29.25 564.015625 29.824219 565.9375 30.035156 L 565.9375 29.589844 L 566.199219 29.589844 L 566.460938 30.101562 L 566.789062 31.1875 C 566.789062 32.167969 566.898438 32.679688 567.117188 32.722656 L 567.117188 37.066406 L 566.789062 37.195312 L 566.789062 37.257812 M 566.789062 46.140625 L 566.789062 46.398438 L 566.527344 46.398438 L 566.527344 45.757812 C 565.214844 44.140625 564.210938 43.246094 563.511719 43.074219 L 563.25 41.476562 L 562.398438 36.875 L 563.578125 37.515625 C 564.582031 38.023438 565.675781 38.429688 566.855469 38.726562 L 566.921875 38.152344 L 567.3125 38.152344 L 567.246094 38.792969 L 566.789062 44.03125 L 566.789062 46.140625 M 564.757812 63.269531 L 564.625 63.332031 L 564.558594 63.203125 L 564.625 62.886719 C 564.234375 61.90625 564.035156 60.605469 564.035156 58.988281 C 563.992188 57.027344 563.75 55.601562 563.316406 54.703125 L 563.90625 48.25 L 563.839844 46.078125 L 565.542969 47.867188 L 566.265625 48.441406 L 566.332031 47.996094 L 566.59375 47.996094 L 566.65625 48.507812 L 566.65625 48.761719 C 566.65625 57.496094 566.023438 62.332031 564.757812 63.269531 M 557.808594 77.582031 L 557.675781 77.519531 L 557.808594 77.328125 L 557.675781 75.601562 L 558.726562 68.957031 L 558.792969 68.316406 C 560.410156 64.78125 561.652344 61.394531 562.527344 58.15625 L 562.527344 58.21875 C 562.527344 59.839844 563.007812 61.949219 563.96875 64.546875 L 564.035156 64.355469 L 564.101562 64.675781 L 564.101562 64.992188 C 564.015625 66.441406 563.140625 68.722656 561.480469 71.832031 C 559.949219 74.773438 558.75 76.6875 557.875 77.582031 L 557.808594 77.582031 M 549.089844 89.726562 C 549.265625 87.296875 549.765625 85.039062 550.597656 82.953125 L 550.664062 81.992188 C 552.804688 79.097656 554.792969 75.964844 556.628906 72.597656 L 556.300781 75.539062 L 556.824219 79.4375 L 557.152344 78.863281 L 557.21875 79.054688 L 556.890625 80.078125 C 556.058594 81.738281 553.589844 84.976562 549.484375 89.789062 L 549.222656 89.789062 L 549.089844 89.726562 M 539.324219 98.355469 L 538.929688 98.609375 L 538.863281 98.480469 L 539.386719 98.035156 C 539.824219 96.289062 540.042969 94.839844 540.042969 93.6875 L 539.714844 92.984375 L 540.4375 92.410156 C 543.320312 90.152344 545.988281 87.574219 548.433594 84.675781 L 548.171875 86.273438 L 547.714844 91.132812 L 548.238281 90.621094 L 548.304688 90.875 L 547.648438 91.964844 C 546.46875 93.242188 543.691406 95.371094 539.324219 98.355469 "
       id="path20" />
  </g>
</svg>
