<?xml version="1.0" encoding="UTF-8"?>
<svg xmlns="http://www.w3.org/2000/svg" xmlns:xlink="http://www.w3.org/1999/xlink" width="296px" height="318px" viewBox="0 0 296 318" version="1.1">
<g id="surface1">
<path style=" stroke:none;fill-rule:evenodd;fill:rgb(0%,0%,0%);fill-opacity:1;" d="M 112.273438 35.792969 L 111.957031 36.191406 C 110.84375 37.679688 109.894531 39.382812 109.097656 41.292969 L 109.019531 41.375 L 108.382812 43.046875 L 108.464844 43.046875 L 109.257812 41.453125 L 109.257812 41.375 C 110.210938 39.460938 111.242188 37.628906 112.355469 35.875 L 112.355469 35.632812 L 112.273438 35.792969 M 119.339844 26.546875 C 122.621094 24.421875 126.40625 22.746094 130.691406 21.523438 C 136.460938 19.875 143.128906 19.054688 150.699219 19.054688 L 170.707031 20.40625 L 172.453125 21.523438 L 182.21875 30.132812 C 185.285156 32.417969 187.960938 36.164062 190.234375 41.375 L 190.949219 43.046875 L 191.347656 43.046875 L 192.21875 45.28125 C 194.335938 51.5 195.976562 58.964844 197.144531 67.679688 L 197.0625 69.753906 C 197.0625 72.675781 197.273438 74.910156 197.699219 76.449219 L 197.460938 76.292969 L 197.539062 81.394531 C 197.328125 85.113281 197.378906 87.71875 197.699219 89.207031 C 198.863281 95.957031 201.191406 101.136719 204.683594 104.75 L 204.683594 105.867188 L 204.605469 105.867188 L 204.527344 106.105469 L 204.207031 106.1875 L 203.890625 106.265625 L 203.730469 106.1875 L 203.175781 106.265625 C 201.960938 106.265625 201.007812 106 200.316406 105.46875 C 199.683594 104.882812 198.96875 104.589844 198.175781 104.589844 C 198.703125 105.867188 199.128906 108.125 199.445312 111.367188 L 202.222656 117.90625 C 202.171875 118.488281 201.828125 118.78125 201.191406 118.78125 C 200.082031 118.78125 197.644531 117.132812 193.886719 113.839844 C 194.3125 115.433594 194.628906 117.292969 194.839844 119.417969 L 195.714844 127.3125 L 195.714844 135.441406 L 194.917969 135.839844 C 194.179688 135.789062 192.777344 134.351562 190.710938 131.535156 C 188.648438 128.773438 187.273438 126.460938 186.582031 124.601562 L 186.503906 124.601562 L 186.503906 129.863281 L 185.710938 130.179688 L 183.644531 125.796875 C 182.640625 128.828125 181.105469 132.386719 179.042969 136.480469 C 175.867188 142.699219 173.484375 145.804688 171.898438 145.804688 L 171.339844 145.648438 C 171.128906 144.902344 171.050781 143.707031 171.101562 142.058594 C 171.101562 138.605469 171.339844 135.308594 171.816406 132.175781 L 172.371094 125.957031 L 169.515625 128.027344 L 168.484375 128.027344 L 168.484375 127.871094 L 168.402344 127.949219 L 168.164062 128.027344 C 167.53125 128.027344 167.210938 127.363281 167.210938 126.035156 L 167.6875 124.601562 C 167.371094 123.21875 167.238281 122.394531 167.292969 122.128906 L 167.292969 121.570312 L 167.769531 121.414062 L 167.769531 121.171875 C 167.769531 120.695312 168.03125 120.136719 168.5625 119.5 C 168.878906 118.328125 169.992188 116.683594 171.898438 114.554688 L 170.863281 105.070312 L 167.449219 82.03125 L 167.449219 81.394531 L 166.261719 76.769531 L 166.179688 76.132812 L 166.023438 75.574219 L 165.070312 71.90625 C 158.558594 63.402344 153.953125 59.152344 151.253906 59.152344 C 148.554688 59.152344 145.722656 60.71875 142.761719 63.855469 L 139.425781 67.839844 L 138.394531 68.796875 C 132.675781 62.6875 128.230469 59.628906 125.054688 59.628906 C 122.25 59.628906 120.132812 61.171875 118.703125 64.253906 C 118.175781 65.261719 117.804688 66.300781 117.59375 67.363281 L 117.433594 68.957031 L 117.277344 68.957031 L 117.117188 70.949219 L 116.957031 70.949219 L 117.277344 95.503906 L 117.433594 98.453125 L 117.433594 100.683594 L 117.59375 110.09375 L 117.59375 110.648438 C 118.917969 112.03125 119.632812 113.28125 119.738281 114.398438 L 123.945312 117.664062 L 124.421875 117.347656 L 133.074219 124.363281 C 133.074219 125.851562 132.890625 126.808594 132.519531 127.230469 L 132.359375 126.992188 L 132.441406 127.472656 L 132.121094 127.628906 L 130.691406 125.957031 C 129.738281 127.976562 128.917969 128.984375 128.230469 128.984375 C 127.859375 128.984375 127.304688 128.402344 126.566406 127.230469 L 125.691406 125.875 L 125.691406 126.914062 L 124.898438 125.796875 C 124.527344 125.796875 123.996094 126.382812 123.308594 127.550781 C 122.621094 128.71875 121.988281 129.304688 121.402344 129.304688 C 120.34375 129.304688 119.605469 128.667969 119.179688 127.390625 L 118.863281 126.117188 L 118.863281 128.027344 L 119.976562 138.710938 L 119.894531 139.347656 L 118.941406 139.429688 C 118.359375 139.429688 117.011719 137.195312 114.894531 132.734375 L 110.84375 124.121094 L 109.574219 127.871094 C 108.199219 131.113281 107.140625 132.917969 106.398438 133.289062 C 105.234375 129.78125 104.230469 124.121094 103.382812 116.308594 L 103.382812 116.152344 C 100.789062 120.828125 97.957031 123.722656 94.886719 124.839844 L 94.332031 124.042969 C 94.332031 123.191406 95.574219 120.164062 98.0625 114.957031 L 99.015625 113.042969 L 99.730469 107.460938 L 98.300781 108.738281 L 97.429688 108.578125 L 97.429688 107.542969 C 97.375 106.265625 98.355469 103.023438 100.367188 97.816406 C 99.730469 93.40625 99.996094 90.480469 101.160156 89.046875 L 100.84375 74.539062 C 100.789062 70.550781 100.894531 68.054688 101.160156 67.042969 L 100.921875 66.007812 L 101.636719 61.78125 L 103.621094 53.96875 L 103.382812 53.332031 L 104.414062 49.664062 L 106.71875 43.046875 L 106.796875 43.046875 L 107.429688 41.375 C 108.4375 38.769531 109.839844 36.351562 111.640625 34.121094 C 112.910156 31.515625 115.476562 28.992188 119.339844 26.546875 M 196.269531 88.25 L 196.269531 75.734375 L 195.714844 71.1875 L 194.046875 57.476562 L 191.664062 48.308594 L 190.710938 45.679688 L 190.394531 46.398438 L 189.917969 44.800781 L 189.441406 44.800781 L 189.042969 42.890625 L 188.09375 41.375 L 187.457031 40.578125 C 186.609375 39.195312 185.605469 38 184.441406 36.988281 C 179.730469 32.792969 174.78125 29.125 169.59375 25.988281 L 169.117188 26.464844 C 167 25.136719 163.796875 24.5 159.511719 24.554688 L 150.144531 25.828125 C 146.066406 26.679688 143.367188 27.53125 142.046875 28.378906 L 137.679688 32.367188 C 138.683594 32.738281 138.445312 32.925781 136.964844 32.925781 L 136.726562 32.925781 L 136.328125 32.765625 L 136.171875 32.285156 L 136.171875 32.207031 C 133.734375 29.441406 131.144531 28.085938 128.390625 28.140625 C 123.839844 28.085938 120.109375 29.46875 117.195312 32.285156 L 113.863281 35.632812 L 110.765625 41.375 L 109.097656 44.800781 L 108.304688 44.800781 C 105.550781 50.96875 103.621094 57.027344 102.507812 62.976562 L 101.792969 67.921875 C 102.164062 70.949219 102.429688 79.082031 102.589844 92.316406 L 102.191406 91.4375 L 101.953125 93.351562 L 101.714844 93.429688 L 101.875 93.828125 L 101.875 93.988281 L 101.398438 96.777344 L 100.367188 101.722656 L 100.367188 104.113281 L 100.523438 104.273438 L 102.589844 102.597656 L 103.144531 102.757812 L 103.382812 103.238281 L 102.90625 104.273438 L 102.984375 104.351562 L 103.144531 104.832031 L 102.984375 105.46875 L 103.304688 104.910156 L 103.621094 104.511719 L 104.414062 105.46875 C 104.363281 106 103.199219 108.710938 100.921875 113.601562 L 100.921875 113.839844 L 100.605469 114.316406 L 99.09375 117.265625 L 99.09375 117.347656 L 96.871094 121.890625 L 96.792969 122.050781 L 96.953125 121.890625 C 100.972656 116.683594 103.277344 114.078125 103.859375 114.078125 C 103.964844 114.078125 104.519531 116.125 105.527344 120.214844 C 106.585938 124.628906 107.113281 127.921875 107.113281 130.101562 L 107.113281 130.179688 L 110.128906 120.296875 L 110.84375 120.058594 L 111.480469 120.855469 L 111.480469 121.414062 L 117.832031 135.601562 L 117.910156 135.601562 L 117.910156 133.847656 C 117.539062 132.464844 117.355469 129.25 117.355469 124.203125 L 117.671875 118.703125 L 117.59375 118.703125 L 117.59375 118.382812 L 116.5625 115.195312 L 116.5625 114.714844 L 116.480469 112.800781 L 116.402344 110.492188 L 116.003906 99.648438 L 115.847656 98.292969 L 115.847656 95.980469 L 115.925781 94.308594 L 115.847656 94.308594 L 115.847656 94.226562 C 115.636719 85.726562 115.503906 76.796875 115.449219 67.441406 L 115.847656 67.441406 L 116.085938 66.726562 L 116.085938 66.644531 C 116.085938 64.785156 117.566406 61.117188 120.53125 55.644531 C 123.496094 50.011719 125.636719 47.195312 126.960938 47.195312 C 128.65625 47.195312 132.226562 52.507812 137.679688 63.136719 L 138.789062 65.050781 L 141.09375 57.238281 C 141.621094 55.644531 143.023438 53.570312 145.300781 51.019531 C 147.472656 48.46875 148.953125 47.195312 149.746094 47.195312 C 153.558594 47.195312 157.792969 51.417969 162.449219 59.871094 L 163.164062 61.222656 L 164.273438 65.128906 L 167.292969 72.304688 L 167.292969 72.863281 L 167.53125 74.140625 L 167.6875 76.609375 C 168.746094 81.5 170.175781 90.5625 171.976562 103.792969 L 171.898438 104.035156 L 172.054688 104.511719 L 173.960938 119.738281 L 174.277344 123.40625 C 174.226562 125.371094 173.800781 128.109375 173.007812 131.617188 L 172.53125 139.667969 L 172.53125 143.652344 L 179.121094 132.8125 C 180.972656 129.570312 182.191406 126.648438 182.773438 124.042969 L 180.945312 120.535156 C 180.945312 120.214844 181.160156 120.058594 181.582031 120.058594 C 182.21875 120.003906 182.800781 120.347656 183.328125 121.09375 L 183.964844 120.773438 C 184.335938 120.773438 184.519531 120.882812 184.519531 121.09375 L 184.519531 122.769531 L 184.441406 123.324219 L 184.996094 125.320312 L 185.074219 120.296875 L 185.710938 120.058594 C 186.082031 120.058594 187.035156 121.492188 188.570312 124.363281 C 190.472656 128.082031 192.378906 131.085938 194.285156 133.371094 L 194.285156 127.628906 L 192.695312 112.960938 L 192.695312 112.085938 L 193.09375 112.003906 L 193.253906 111.847656 L 193.332031 111.925781 L 193.648438 111.847656 C 194.707031 111.847656 196.824219 113.492188 200 116.789062 L 200.160156 116.789062 L 200.160156 116.707031 L 197.855469 109.375 L 196.269531 102.835938 C 196.269531 102.09375 196.507812 101.722656 196.984375 101.722656 L 200.082031 103.238281 L 201.429688 103.875 L 200.875 103.078125 C 199.65625 101.164062 198.835938 99.488281 198.414062 98.054688 L 196.269531 90.003906 L 196.269531 88.25 M 117.671875 30.214844 C 121.484375 27.769531 124.949219 26.574219 128.074219 26.625 C 131.882812 26.574219 134.820312 28.085938 136.886719 31.171875 L 138.472656 29.496094 L 141.808594 26.785156 L 150.300781 24.632812 L 159.589844 23.039062 C 162.609375 22.984375 165.226562 23.382812 167.449219 24.234375 L 168.164062 23.835938 C 169.011719 23.835938 172.109375 25.855469 177.453125 29.894531 L 184.28125 34.996094 L 181.34375 31.089844 L 174.359375 25.589844 L 170.46875 22.800781 C 169.9375 22.269531 168.828125 21.84375 167.132812 21.523438 L 150.539062 20.566406 L 137.917969 21.523438 C 131.726562 22.535156 126.195312 24.3125 121.324219 26.867188 C 118.996094 28.085938 117.089844 29.550781 115.609375 31.25 L 115.53125 31.410156 L 115.054688 32.046875 L 115.6875 31.570312 L 117.671875 30.214844 M 160.78125 59.789062 L 156.972656 54.765625 L 156.734375 54.925781 C 154.988281 52.746094 153.398438 51.65625 151.96875 51.65625 C 150.753906 51.65625 149.058594 52.480469 146.886719 54.128906 C 144.984375 55.457031 143.738281 56.574219 143.15625 57.476562 L 142.679688 57.160156 C 142.46875 57.582031 142.335938 58.035156 142.285156 58.515625 L 141.726562 60.824219 L 143.871094 58.195312 C 144.984375 56.601562 147.179688 55.324219 150.460938 54.367188 C 154.640625 54.367188 158.054688 56.175781 160.703125 59.789062 L 161.019531 60.1875 L 160.78125 59.789062 M 151.890625 50.941406 L 153.320312 51.179688 L 149.90625 48.628906 L 145.140625 53.808594 L 143.792969 55.40625 C 144.375 54.820312 145.167969 54.183594 146.175781 53.492188 C 148.554688 51.789062 150.460938 50.941406 151.890625 50.941406 M 138.15625 66.644531 L 132.757812 57.558594 C 130.324219 54.742188 127.859375 53.332031 125.375 53.332031 C 124.367188 53.332031 123.628906 53.542969 123.152344 53.96875 L 121.007812 57.558594 C 122.222656 56.8125 123.945312 56.441406 126.167969 56.441406 C 129.289062 56.441406 131.832031 58.117188 133.789062 61.464844 C 134.847656 62.527344 135.90625 63.828125 136.964844 65.371094 L 138.15625 66.644531 M 143.554688 59.949219 C 145.566406 58.40625 147.761719 57.636719 150.144531 57.636719 C 153.582031 57.636719 157.234375 59.65625 161.097656 63.695312 L 164.035156 67.042969 L 163.242188 64.972656 L 162.289062 63.617188 L 160.148438 60.269531 C 158.03125 56.8125 154.828125 55.085938 150.539062 55.085938 C 149.164062 55.085938 147.285156 56.230469 144.902344 58.515625 L 143.554688 59.949219 M 166.417969 67.679688 L 166.261719 67.28125 L 166.417969 67.679688 M 126.089844 49.585938 L 126.484375 49.585938 L 127.675781 49.824219 L 126.804688 48.628906 L 126.089844 49.585938 M 125.214844 50.859375 L 123.867188 52.773438 L 125.375 52.613281 C 127.277344 52.613281 129.15625 53.332031 131.011719 54.765625 L 128.3125 50.703125 L 126.328125 50.304688 C 126.113281 50.304688 125.746094 50.488281 125.214844 50.859375 M 132.996094 61.78125 L 133.628906 62.261719 L 133.152344 61.703125 C 132.308594 60.640625 130.796875 59.496094 128.628906 58.273438 C 127.359375 57.53125 126.433594 57.105469 125.851562 57 L 125.691406 56.917969 C 125.375 56.867188 125.214844 56.945312 125.214844 57.160156 L 125.851562 57.160156 C 122.992188 57.425781 121.246094 58.195312 120.609375 59.46875 L 119.65625 61.304688 C 121.457031 59.179688 123.308594 58.140625 125.214844 58.195312 C 127.386719 58.140625 129.976562 59.335938 132.996094 61.78125 M 118.148438 117.265625 C 118.679688 118.542969 118.941406 120.324219 118.941406 122.609375 L 118.941406 123.085938 C 119.261719 123.035156 120.054688 124.546875 121.324219 127.628906 L 122.277344 125.558594 C 122.699219 124.707031 123.441406 124.28125 124.5 124.28125 L 125.691406 124.441406 L 125.691406 124.519531 L 126.960938 125.875 C 127.703125 126.78125 128.074219 127.445312 128.074219 127.871094 L 130.773438 124.601562 L 131.726562 125.636719 L 132.28125 126.753906 L 132.121094 124.601562 L 127.992188 121.492188 L 127.039062 120.855469 L 126.167969 120.855469 L 122.914062 118.304688 L 117.910156 115.035156 L 118.070312 117.265625 L 118.070312 117.347656 L 118.148438 117.265625 M 116.71875 118.222656 L 116.71875 118.621094 L 116.71875 118.222656 M 172.292969 118.222656 L 171.5 119.261719 L 168.800781 121.96875 C 169.277344 122.660156 169.59375 123.964844 169.753906 125.875 L 172.453125 123.882812 L 172.53125 119.578125 L 172.292969 118.222656 M 172.054688 116.152344 L 172.054688 115.832031 L 171.339844 116.789062 L 172.054688 116.152344 "/>
<path style=" stroke:none;fill-rule:evenodd;fill:rgb(89.803922%,60.392159%,61.960787%);fill-opacity:1;" d="M 133.152344 61.703125 L 132.996094 61.78125 L 133.152344 61.703125 M 125.691406 56.917969 L 125.851562 57 L 125.851562 57.160156 L 125.691406 56.917969 "/>
<path style=" stroke:none;fill-rule:evenodd;fill:rgb(100%,40.000001%,60.000002%);fill-opacity:1;" d="M 160.703125 59.789062 L 160.78125 59.789062 L 161.019531 60.1875 L 160.703125 59.789062 "/>
<path style=" stroke:none;fill-rule:evenodd;fill:rgb(100%,60.000002%,80.000001%);fill-opacity:1;" d="M 104.890625 88.566406 L 104.730469 88.566406 L 104.730469 88.488281 L 104.890625 88.566406 M 101.875 93.988281 L 101.875 93.828125 L 101.953125 93.988281 L 101.875 93.988281 "/>
<path style=" stroke:none;fill-rule:evenodd;fill:rgb(100%,76.862746%,77.64706%);fill-opacity:1;" d="M 102.589844 92.316406 L 102.828125 92.394531 L 102.589844 92.316406 "/>
<path style=" stroke:none;fill-rule:evenodd;fill:rgb(18.431373%,9.411765%,6.27451%);fill-opacity:1;" d="M 112.273438 35.792969 L 112.355469 35.632812 L 112.355469 35.875 C 111.242188 37.628906 110.210938 39.460938 109.257812 41.375 L 109.257812 41.453125 L 108.464844 43.046875 L 108.382812 43.046875 L 109.019531 41.375 L 109.097656 41.292969 C 109.894531 39.382812 110.84375 37.679688 111.957031 36.191406 L 112.273438 35.792969 M 102.828125 92.394531 C 103.199219 91.703125 103.488281 90.71875 103.699219 89.445312 L 104.492188 85.617188 C 105.710938 88.117188 106.425781 91.359375 106.636719 95.34375 C 106.957031 100.765625 107.246094 104.167969 107.511719 105.546875 C 108.039062 104.324219 108.726562 101.136719 109.574219 95.980469 C 110.261719 91.625 110.871094 89.445312 111.402344 89.445312 C 112.9375 89.445312 113.703125 92.234375 113.703125 97.816406 C 114.074219 96.273438 114.734375 95.078125 115.6875 94.226562 L 115.847656 94.308594 L 115.925781 94.308594 L 115.847656 95.980469 L 115.847656 98.292969 L 116.003906 99.648438 L 116.402344 110.492188 L 116.480469 112.800781 L 116.5625 114.714844 L 116.5625 115.195312 L 117.59375 118.382812 L 117.59375 118.703125 L 117.671875 118.703125 L 117.355469 124.203125 C 117.355469 129.25 117.539062 132.464844 117.910156 133.847656 L 117.910156 135.601562 L 117.832031 135.601562 L 111.480469 121.414062 L 111.480469 120.855469 L 110.84375 120.058594 L 110.128906 120.296875 L 107.113281 130.179688 L 107.113281 130.101562 C 107.113281 127.921875 106.585938 124.628906 105.527344 120.214844 C 104.519531 116.125 103.964844 114.078125 103.859375 114.078125 C 103.277344 114.078125 100.972656 116.683594 96.953125 121.890625 L 96.871094 121.890625 L 99.09375 117.347656 L 99.09375 117.265625 L 100.605469 114.316406 L 100.921875 113.839844 L 100.921875 113.601562 C 103.199219 108.710938 104.363281 106 104.414062 105.46875 L 103.621094 104.511719 L 103.304688 104.910156 L 103.144531 104.832031 L 102.984375 104.351562 L 102.90625 104.273438 L 103.382812 103.238281 L 103.144531 102.757812 L 102.589844 102.597656 L 100.523438 104.273438 L 100.367188 104.113281 L 100.367188 101.722656 L 101.398438 96.777344 L 101.875 93.988281 L 101.953125 93.988281 L 101.875 93.828125 L 101.714844 93.429688 L 101.953125 93.351562 L 102.191406 91.4375 L 102.589844 92.316406 L 102.828125 92.394531 M 171.976562 103.792969 C 173.140625 99.4375 173.722656 96.511719 173.722656 95.023438 L 173.722656 86.097656 L 174.199219 85.859375 L 182.535156 104.988281 C 183.171875 97.179688 183.515625 90.164062 183.566406 83.945312 L 184.203125 83.707031 C 185.207031 83.707031 186.398438 85.300781 187.773438 88.488281 L 190.710938 95.664062 C 191.398438 93.429688 191.769531 90.667969 191.824219 87.371094 L 191.824219 78.761719 L 192.378906 78.683594 L 196.109375 88.25 L 196.269531 88.25 L 196.269531 90.003906 L 198.414062 98.054688 C 198.835938 99.488281 199.65625 101.164062 200.875 103.078125 L 201.429688 103.875 L 200.082031 103.238281 L 196.984375 101.722656 C 196.507812 101.722656 196.269531 102.09375 196.269531 102.835938 L 197.855469 109.375 L 200.160156 116.707031 L 200 116.789062 C 196.824219 113.492188 194.707031 111.847656 193.648438 111.847656 L 193.332031 111.925781 L 193.253906 111.847656 L 193.09375 112.003906 L 192.695312 112.085938 L 192.695312 112.960938 L 194.285156 127.628906 L 194.285156 133.371094 C 192.378906 131.085938 190.472656 128.082031 188.570312 124.363281 C 187.035156 121.492188 186.082031 120.058594 185.710938 120.058594 L 185.074219 120.296875 L 184.996094 125.320312 L 184.441406 123.324219 L 184.519531 122.769531 L 184.519531 121.09375 C 184.519531 120.882812 184.335938 120.773438 183.964844 120.773438 L 183.328125 121.09375 C 182.800781 120.347656 182.21875 120.003906 181.582031 120.058594 C 181.160156 120.058594 180.945312 120.214844 180.945312 120.535156 L 182.773438 124.042969 C 182.191406 126.648438 180.972656 129.570312 179.121094 132.8125 L 172.53125 143.652344 L 172.53125 139.667969 L 173.007812 131.617188 C 173.800781 128.109375 174.226562 125.371094 174.277344 123.40625 L 173.960938 119.738281 L 172.054688 104.511719 L 171.898438 104.035156 L 171.976562 103.792969 M 160.703125 59.789062 C 158.054688 56.175781 154.640625 54.367188 150.460938 54.367188 C 147.179688 55.324219 144.984375 56.601562 143.871094 58.195312 L 141.726562 60.824219 L 142.285156 58.515625 C 142.335938 58.035156 142.46875 57.582031 142.679688 57.160156 L 143.15625 57.476562 C 143.738281 56.574219 144.984375 55.457031 146.886719 54.128906 C 149.058594 52.480469 150.753906 51.65625 151.96875 51.65625 C 153.398438 51.65625 154.988281 52.746094 156.734375 54.925781 L 156.972656 54.765625 L 160.78125 59.789062 L 160.703125 59.789062 M 117.671875 30.214844 L 115.6875 31.570312 L 115.054688 32.046875 L 115.53125 31.410156 L 115.609375 31.25 C 117.089844 29.550781 118.996094 28.085938 121.324219 26.867188 C 126.195312 24.3125 131.726562 22.535156 137.917969 21.523438 L 150.539062 20.566406 L 167.132812 21.523438 C 168.828125 21.84375 169.9375 22.269531 170.46875 22.800781 L 174.359375 25.589844 L 181.34375 31.089844 L 184.28125 34.996094 L 177.453125 29.894531 C 172.109375 25.855469 169.011719 23.835938 168.164062 23.835938 L 167.449219 24.234375 C 165.226562 23.382812 162.609375 22.984375 159.589844 23.039062 L 150.300781 24.632812 L 141.808594 26.785156 L 138.472656 29.496094 L 136.886719 31.171875 C 134.820312 28.085938 131.882812 26.574219 128.074219 26.625 C 124.949219 26.574219 121.484375 27.769531 117.671875 30.214844 M 143.554688 59.949219 L 144.902344 58.515625 C 147.285156 56.230469 149.164062 55.085938 150.539062 55.085938 C 154.828125 55.085938 158.03125 56.8125 160.148438 60.269531 L 162.289062 63.617188 L 163.242188 64.972656 L 164.035156 67.042969 L 161.097656 63.695312 C 157.234375 59.65625 153.582031 57.636719 150.144531 57.636719 C 147.761719 57.636719 145.566406 58.40625 143.554688 59.949219 M 138.15625 66.644531 L 136.964844 65.371094 C 135.90625 63.828125 134.847656 62.527344 133.789062 61.464844 C 131.832031 58.117188 129.289062 56.441406 126.167969 56.441406 C 123.945312 56.441406 122.222656 56.8125 121.007812 57.558594 L 123.152344 53.96875 C 123.628906 53.542969 124.367188 53.332031 125.375 53.332031 C 127.859375 53.332031 130.324219 54.742188 132.757812 57.558594 L 138.15625 66.644531 M 151.890625 50.941406 C 150.460938 50.941406 148.554688 51.789062 146.175781 53.492188 C 145.167969 54.183594 144.375 54.820312 143.792969 55.40625 L 145.140625 53.808594 L 149.90625 48.628906 L 153.320312 51.179688 L 151.890625 50.941406 M 133.152344 61.703125 L 133.628906 62.261719 L 132.996094 61.78125 L 133.152344 61.703125 L 132.996094 61.78125 C 129.976562 59.335938 127.386719 58.140625 125.214844 58.195312 C 123.308594 58.140625 121.457031 59.179688 119.65625 61.304688 L 120.609375 59.46875 C 121.246094 58.195312 122.992188 57.425781 125.851562 57.160156 L 125.214844 57.160156 C 125.214844 56.945312 125.375 56.867188 125.691406 56.917969 L 125.851562 57.160156 L 125.851562 57 C 126.433594 57.105469 127.359375 57.53125 128.628906 58.273438 C 130.796875 59.496094 132.308594 60.640625 133.152344 61.703125 M 125.214844 50.859375 C 125.746094 50.488281 126.113281 50.304688 126.328125 50.304688 L 128.3125 50.703125 L 131.011719 54.765625 C 129.15625 53.332031 127.277344 52.613281 125.375 52.613281 L 123.867188 52.773438 L 125.214844 50.859375 M 126.089844 49.585938 L 126.804688 48.628906 L 127.675781 49.824219 L 126.484375 49.585938 L 126.089844 49.585938 M 104.890625 88.566406 L 104.730469 88.488281 L 104.730469 88.566406 L 104.890625 88.566406 M 118.070312 117.265625 L 117.910156 115.035156 L 122.914062 118.304688 L 126.167969 120.855469 L 127.039062 120.855469 L 127.992188 121.492188 L 132.121094 124.601562 L 132.28125 126.753906 L 131.726562 125.636719 L 130.773438 124.601562 L 128.074219 127.871094 C 128.074219 127.445312 127.703125 126.78125 126.960938 125.875 L 125.691406 124.519531 L 125.691406 124.441406 L 124.5 124.28125 C 123.441406 124.28125 122.699219 124.707031 122.277344 125.558594 L 121.324219 127.628906 C 120.054688 124.546875 119.261719 123.035156 118.941406 123.085938 L 118.941406 122.609375 C 118.941406 120.324219 118.679688 118.542969 118.148438 117.265625 L 118.070312 117.265625 M 116.71875 118.222656 L 116.71875 118.621094 L 116.71875 118.222656 M 172.292969 118.222656 L 172.53125 119.578125 L 172.453125 123.882812 L 169.753906 125.875 C 169.59375 123.964844 169.277344 122.660156 168.800781 121.96875 L 171.5 119.261719 L 172.292969 118.222656 "/>
<path style=" stroke:none;fill-rule:evenodd;fill:rgb(37.64706%,21.960784%,21.176471%);fill-opacity:1;" d="M 102.589844 92.316406 C 102.429688 79.082031 102.164062 70.949219 101.792969 67.921875 L 102.507812 62.976562 C 103.621094 57.027344 105.550781 50.96875 108.304688 44.800781 L 109.097656 44.800781 L 110.765625 41.375 L 113.863281 35.632812 L 117.195312 32.285156 C 120.109375 29.46875 123.839844 28.085938 128.390625 28.140625 C 131.144531 28.085938 133.734375 29.441406 136.171875 32.207031 L 136.171875 32.285156 L 136.328125 32.765625 L 136.726562 32.925781 L 136.964844 32.925781 C 138.445312 32.925781 138.683594 32.738281 137.679688 32.367188 L 142.046875 28.378906 C 143.367188 27.53125 146.066406 26.679688 150.144531 25.828125 L 159.511719 24.554688 C 163.796875 24.5 167 25.136719 169.117188 26.464844 L 169.59375 25.988281 C 174.78125 29.125 179.730469 32.792969 184.441406 36.988281 C 185.605469 38 186.609375 39.195312 187.457031 40.578125 L 188.09375 41.375 L 189.042969 42.890625 L 189.441406 44.800781 L 189.917969 44.800781 L 190.394531 46.398438 L 190.710938 45.679688 L 191.664062 48.308594 L 194.046875 57.476562 L 195.714844 71.1875 L 196.269531 75.734375 L 196.269531 88.25 L 196.109375 88.25 L 192.378906 78.683594 L 191.824219 78.761719 L 191.824219 87.371094 C 191.769531 90.667969 191.398438 93.429688 190.710938 95.664062 L 187.773438 88.488281 C 186.398438 85.300781 185.207031 83.707031 184.203125 83.707031 L 183.566406 83.945312 C 183.515625 90.164062 183.171875 97.179688 182.535156 104.988281 L 174.199219 85.859375 L 173.722656 86.097656 L 173.722656 95.023438 C 173.722656 96.511719 173.140625 99.4375 171.976562 103.792969 C 170.175781 90.5625 168.746094 81.5 167.6875 76.609375 L 167.53125 74.140625 L 167.292969 72.863281 L 167.292969 72.304688 L 164.273438 65.128906 L 163.164062 61.222656 L 162.449219 59.871094 C 157.792969 51.417969 153.558594 47.195312 149.746094 47.195312 C 148.953125 47.195312 147.472656 48.46875 145.300781 51.019531 C 143.023438 53.570312 141.621094 55.644531 141.09375 57.238281 L 138.789062 65.050781 L 137.679688 63.136719 C 132.226562 52.507812 128.65625 47.195312 126.960938 47.195312 C 125.636719 47.195312 123.496094 50.011719 120.53125 55.644531 C 117.566406 61.117188 116.085938 64.785156 116.085938 66.644531 L 116.085938 66.726562 L 115.847656 67.441406 L 115.449219 67.441406 C 115.503906 76.796875 115.636719 85.726562 115.847656 94.226562 L 115.847656 94.308594 L 115.6875 94.226562 C 114.734375 95.078125 114.074219 96.273438 113.703125 97.816406 C 113.703125 92.234375 112.9375 89.445312 111.402344 89.445312 C 110.871094 89.445312 110.261719 91.625 109.574219 95.980469 C 108.726562 101.136719 108.039062 104.324219 107.511719 105.546875 C 107.246094 104.167969 106.957031 100.765625 106.636719 95.34375 C 106.425781 91.359375 105.710938 88.117188 104.492188 85.617188 L 103.699219 89.445312 C 103.488281 90.71875 103.199219 91.703125 102.828125 92.394531 L 102.589844 92.316406 M 166.417969 67.679688 L 166.261719 67.28125 L 166.417969 67.679688 "/>
</g>
</svg>
