<?xml version="1.0" encoding="UTF-8"?>
<svg xmlns="http://www.w3.org/2000/svg" xmlns:xlink="http://www.w3.org/1999/xlink" width="296px" height="318px" viewBox="0 0 296 318" version="1.1">
<g id="surface1">
<path style=" stroke:none;fill-rule:evenodd;fill:rgb(0%,0%,0%);fill-opacity:1;" d="M 112.59375 43.445312 L 113.066406 43.765625 L 113.386719 43.6875 L 113.304688 43.6875 L 112.828125 43.128906 L 115.609375 38.984375 C 118.414062 34.199219 121.246094 31.222656 124.101562 30.054688 L 119.339844 24.234375 C 118.441406 23.171875 116.695312 22.136719 114.101562 21.125 L 107.988281 19.371094 L 107.75 19.371094 L 107.667969 19.453125 L 107.511719 19.453125 L 109.257812 24.394531 C 109.257812 24.980469 108.992188 25.269531 108.464844 25.269531 C 107.667969 24.6875 106.558594 24.101562 105.128906 23.515625 C 103.066406 22.667969 100.472656 22.109375 97.347656 21.84375 L 98.621094 24.554688 L 98.539062 25.113281 L 97.984375 25.191406 L 94.015625 24.394531 C 93.328125 24.394531 93.0625 24.953125 93.21875 26.066406 L 93.695312 27.980469 C 93.695312 28.40625 93.457031 28.621094 92.984375 28.621094 C 92.082031 28.621094 88.878906 27.636719 83.375 25.667969 L 86.789062 33.480469 C 87.582031 33.480469 88.085938 34.464844 88.296875 36.433594 L 88.378906 36.910156 L 89.25 38.34375 L 90.046875 39.140625 L 89.964844 39.539062 L 90.757812 40.816406 L 90.519531 40.578125 L 90.441406 40.578125 L 89.808594 39.699219 L 89.648438 39.78125 L 88.457031 38.027344 L 88.140625 38.027344 L 88.695312 39.859375 L 86.472656 38.824219 L 84.804688 38.824219 L 84.882812 38.984375 L 84.804688 39.222656 L 85.203125 39.621094 L 88.535156 45.679688 C 88.535156 46.105469 88.351562 46.316406 87.980469 46.316406 L 87.742188 46.238281 L 88.140625 46.953125 C 87.1875 46.953125 86.394531 47.21875 85.757812 47.75 L 87.265625 50.304688 L 86.871094 51.179688 L 85.359375 51.339844 C 84.621094 51.234375 84.039062 51.390625 83.613281 51.816406 C 84.300781 53.464844 84.992188 54.632812 85.679688 55.324219 C 85.679688 55.75 85.414062 55.964844 84.882812 55.964844 L 82.421875 55.644531 L 82.34375 55.5625 L 80.757812 54.128906 L 80.4375 54.289062 L 81.3125 55.164062 L 80.199219 54.449219 C 81.152344 57.316406 83.480469 60.746094 87.1875 64.730469 L 87.1875 64.8125 L 92.507812 68.957031 C 92.507812 69.648438 91.632812 71.214844 89.886719 73.660156 C 93.007812 72.492188 95.019531 71.90625 95.921875 71.90625 L 95.921875 71.03125 L 101.875 69.117188 L 101.792969 67.761719 L 101.714844 65.6875 L 102.269531 64.175781 C 103.117188 59.496094 105.183594 54.421875 108.464844 48.949219 L 112.59375 43.445312 M 120.054688 23.117188 L 125.214844 29.65625 L 127.039062 29.417969 C 128.046875 29.417969 129.6875 30.054688 131.964844 31.328125 C 132.175781 30.054688 134.425781 29.417969 138.710938 29.417969 C 144.535156 29.417969 148 29.921875 149.113281 30.929688 L 152.761719 30.214844 L 155.222656 30.132812 L 158.480469 30.371094 C 159.113281 23.199219 160.304688 19.609375 162.050781 19.609375 C 163.058594 19.609375 164.011719 21.097656 164.910156 24.074219 L 172.929688 16.820312 C 174.039062 15.386719 176.316406 13.816406 179.757812 12.117188 C 182.824219 10.574219 184.863281 9.804688 185.871094 9.804688 C 186.34375 9.804688 186.582031 12.78125 186.582031 18.734375 L 198.492188 13.472656 C 199.023438 13.472656 199.285156 13.710938 199.285156 14.191406 L 197.9375 17.855469 L 197.9375 18.972656 L 200.554688 18.015625 C 201.136719 18.015625 201.429688 18.253906 201.429688 18.734375 L 200.238281 23.515625 L 200.238281 23.597656 L 219.609375 16.101562 C 220.296875 16.101562 220.5625 16.527344 220.402344 17.378906 L 218.738281 25.191406 C 217.519531 29.761719 216.300781 33.324219 215.085938 35.875 L 215.085938 36.03125 L 217.308594 35.714844 C 219 35.714844 219.636719 36.085938 219.214844 36.832031 L 215.402344 42.410156 L 209.449219 47.59375 L 213.496094 49.664062 C 215.191406 50.570312 216.039062 51.339844 216.039062 51.976562 C 216.039062 52.136719 211.722656 53.890625 203.097656 57.238281 L 206.273438 60.667969 C 205.796875 61.941406 202.277344 62.578125 195.714844 62.578125 L 191.269531 62.421875 C 192.007812 64.28125 192.433594 65.714844 192.539062 66.726562 L 192.378906 66.644531 L 194.125 73.261719 C 194.65625 74.960938 195.976562 77.859375 198.09375 81.953125 C 198.09375 82.375 197.910156 82.589844 197.539062 82.589844 C 196.269531 82.589844 194.390625 81.207031 191.902344 78.445312 L 191.824219 78.445312 L 192.539062 84.023438 L 192.378906 85.777344 L 192.777344 85.699219 C 194.257812 85.699219 195.027344 86.203125 195.078125 87.210938 L 194.761719 89.285156 L 194.761719 89.367188 C 197.671875 85.378906 199.417969 83.386719 200 83.386719 C 200.953125 83.386719 201.429688 84.183594 201.429688 85.777344 L 201.351562 89.445312 L 208.496094 84.980469 C 209.34375 84.980469 209.660156 85.273438 209.449219 85.859375 C 209.449219 87.078125 208.867188 89.550781 207.703125 93.273438 L 205.480469 99.808594 C 205.902344 100.339844 206.960938 100.710938 208.652344 100.925781 C 210.082031 101.136719 210.796875 101.507812 210.796875 102.039062 L 209.289062 103.554688 L 210.164062 104.832031 L 211.828125 104.589844 C 212.519531 104.589844 212.835938 104.882812 212.78125 105.46875 C 212.78125 106.796875 211.855469 108.496094 210.003906 110.570312 C 210.902344 111.367188 211.804688 111.765625 212.703125 111.765625 L 214.449219 111.449219 C 215.136719 111.449219 215.457031 111.660156 215.402344 112.085938 C 215.402344 114.105469 213.390625 116.628906 209.367188 119.660156 C 209.949219 120.507812 210.851562 120.933594 212.066406 120.933594 C 212.648438 120.933594 212.941406 121.148438 212.941406 121.570312 C 212.941406 122.367188 211.589844 123.058594 208.890625 123.644531 C 211.007812 125.558594 212.066406 126.964844 212.066406 127.871094 C 212.066406 128.292969 211.777344 128.507812 211.195312 128.507812 L 196.429688 126.035156 L 196.269531 132.734375 C 196.214844 134.378906 195.792969 135.203125 195 135.203125 C 194.46875 135.203125 191.453125 133.050781 185.949219 128.746094 L 183.566406 132.332031 C 183.039062 132.332031 181.503906 131.269531 178.960938 129.144531 C 176.15625 126.914062 174.226562 124.972656 173.167969 123.324219 L 171.339844 125.875 C 170.386719 125.875 169.910156 124.839844 169.910156 122.769531 L 168.5625 119.5 L 168.722656 119.019531 C 168.351562 118.96875 168.164062 118.753906 168.164062 118.382812 L 174.753906 110.808594 L 179.914062 103.238281 L 185.632812 95.824219 C 186.796875 93.960938 187.378906 91.492188 187.378906 88.410156 C 185.3125 92.449219 184.121094 94.46875 183.804688 94.46875 C 182.800781 94.46875 182.296875 91.890625 182.296875 86.734375 L 182.21875 86.65625 C 181.847656 88.089844 180.972656 89.871094 179.597656 91.996094 C 178.222656 94.121094 177.214844 95.183594 176.582031 95.183594 C 175.945312 95.183594 175.601562 94.335938 175.546875 92.632812 L 175.546875 88.410156 L 174.914062 83.785156 L 174.832031 83.945312 L 174.832031 83.226562 C 173.085938 87.585938 171.683594 89.765625 170.625 89.765625 L 169.910156 89.605469 L 169.910156 88.011719 L 170.308594 87.210938 L 170.308594 75.734375 L 170.230469 75.652344 L 166.101562 82.191406 L 162.847656 86.257812 C 162.210938 86.257812 161.8125 85.058594 161.65625 82.667969 L 161.65625 79 L 162.132812 72.226562 L 162.050781 71.988281 C 160.148438 77.78125 158.242188 80.675781 156.335938 80.675781 C 155.753906 80.675781 155.460938 78.84375 155.460938 75.175781 L 155.460938 74.777344 C 154.140625 80.570312 152.84375 83.464844 151.574219 83.464844 C 151.042969 83.464844 150.644531 80.011719 150.382812 73.101562 L 150.222656 67.921875 L 149.191406 63.855469 L 149.113281 63.855469 C 149.113281 63.429688 147.628906 63.21875 144.664062 63.21875 L 141.648438 63.855469 L 138.394531 64.574219 C 137.917969 64.574219 137.679688 64.386719 137.679688 64.015625 L 137.363281 64.015625 C 135.191406 63.003906 133.207031 62.5 131.40625 62.5 L 128.789062 63.21875 L 127.753906 68.71875 C 127.753906 70.84375 128.046875 74.882812 128.628906 80.835938 C 128.574219 81.632812 128.390625 82.03125 128.074219 82.03125 C 127.542969 82.03125 126.777344 80.96875 125.769531 78.84375 L 123.707031 74.296875 C 123.441406 73.820312 123.230469 73.023438 123.070312 71.90625 L 120.929688 76.691406 L 120.929688 80.753906 C 120.980469 82.5625 120.714844 83.464844 120.132812 83.464844 C 119.074219 83.464844 118.519531 82.375 118.464844 80.199219 L 118.386719 70.871094 C 116.058594 76.132812 114.816406 79.375 114.65625 80.597656 C 113.757812 86.8125 113.015625 89.921875 112.433594 89.921875 L 112.035156 89.84375 L 113.226562 95.980469 L 116.164062 104.273438 C 117.59375 107.886719 118.917969 110.648438 120.132812 112.5625 C 121.722656 115.167969 123.574219 117 125.691406 118.0625 L 127.359375 119.019531 L 127.914062 119.5 L 128.152344 119.976562 L 128.074219 120.535156 L 127.753906 120.613281 L 127.597656 121.414062 L 127.914062 122.527344 L 127.835938 123.085938 L 127.277344 123.246094 L 124.898438 121.652344 L 124.816406 122.769531 L 125.613281 127.3125 L 126.722656 131.777344 C 126.722656 132.414062 126.511719 132.734375 126.089844 132.734375 C 125.453125 132.734375 124.871094 132.199219 124.339844 131.136719 L 123.785156 129.625 L 122.914062 130.582031 C 121.378906 130.582031 119.550781 127.257812 117.433594 120.613281 C 116.269531 121.730469 113.996094 124.414062 110.605469 128.667969 C 109.546875 128.667969 108.941406 128.136719 108.78125 127.074219 L 108.78125 125.160156 L 104.574219 128.828125 C 103.886719 128.828125 103.566406 128.242188 103.621094 127.074219 L 104.097656 124.441406 L 104.097656 124.28125 L 93.933594 132.015625 C 93.246094 132.015625 92.984375 131.003906 93.140625 128.984375 C 93.140625 126.273438 93.589844 123.40625 94.492188 120.375 L 95.761719 115.59375 L 95.207031 114.316406 L 95.761719 112.644531 L 91.792969 112.882812 C 90.839844 112.882812 90.363281 112.667969 90.363281 112.246094 L 92.425781 108.339844 L 94.808594 104.589844 L 86.632812 104.75 L 86.3125 104.832031 C 85.730469 104.832031 85.441406 104.617188 85.441406 104.191406 L 85.519531 104.035156 L 84.882812 104.191406 L 87.503906 101.882812 C 88.246094 101.03125 91.527344 98.984375 97.347656 95.742188 C 93.804688 92.820312 92.03125 90.960938 92.03125 90.164062 L 93.300781 89.921875 L 100.285156 88.886719 C 101.554688 87.769531 102.722656 87.1875 103.78125 87.132812 L 103.621094 81.632812 L 102.113281 70.710938 C 101.105469 71.296875 99.308594 71.933594 96.714844 72.625 C 96.554688 72.996094 95.363281 73.554688 93.140625 74.296875 L 88.457031 75.414062 C 87.875 75.414062 87.582031 75.203125 87.582031 74.777344 L 90.996094 69.117188 L 86.394531 65.371094 C 85.015625 65.261719 82.078125 61.089844 77.582031 52.855469 C 77.582031 52.429688 77.898438 52.214844 78.535156 52.214844 L 81.867188 54.128906 L 81.628906 53.570312 L 82.898438 53.96875 C 82.476562 53.542969 82.160156 52.667969 81.945312 51.339844 L 82.105469 51.019531 L 82.105469 50.941406 C 82.105469 50.035156 82.980469 49.585938 84.726562 49.585938 L 85.441406 49.664062 L 84.089844 47.59375 C 84.089844 47.273438 84.515625 46.875 85.359375 46.398438 L 87.1875 45.679688 L 83.21875 38.503906 C 83.21875 37.441406 84.488281 37.148438 87.027344 37.628906 L 86.15625 35.234375 C 83.242188 30.082031 81.789062 26.707031 81.789062 25.113281 C 81.789062 24.527344 82.027344 24.234375 82.503906 24.234375 L 87.027344 25.351562 L 91.792969 26.945312 L 91.792969 24.714844 C 91.84375 23.597656 92.453125 23.039062 93.617188 23.039062 L 96.554688 23.515625 L 95.683594 21.285156 L 95.921875 20.566406 L 95.921875 20.40625 L 96.394531 20.40625 L 96.476562 20.488281 C 100.65625 20.753906 104.335938 21.628906 107.511719 23.117188 L 105.683594 18.414062 C 105.683594 17.9375 105.949219 17.699219 106.480469 17.699219 C 108.859375 17.699219 111.640625 18.414062 114.816406 19.851562 C 117.515625 21.074219 119.261719 22.160156 120.054688 23.117188 M 194.679688 77.804688 C 192.089844 70.949219 190.792969 66.882812 190.792969 65.609375 L 190.871094 65.210938 C 190.078125 61.542969 188.542969 58.167969 186.265625 55.085938 L 182.695312 50.941406 C 180.945312 49.292969 178.328125 46.050781 174.832031 41.214844 C 170.125 34.730469 162.632812 31.488281 152.367188 31.488281 C 151.042969 31.488281 149.324219 32.125 147.207031 33.402344 L 143.714844 35.316406 L 143.078125 35.078125 C 143.078125 34.226562 144.242188 33.191406 146.570312 31.96875 L 147.046875 31.808594 L 146.730469 31.570312 L 138.710938 30.773438 L 133.390625 31.488281 L 132.996094 31.96875 C 134.847656 33.082031 135.773438 33.933594 135.773438 34.519531 C 135.773438 34.890625 135.507812 35.078125 134.980469 35.078125 C 131.382812 32.207031 128.65625 30.773438 126.804688 30.773438 C 124.472656 30.773438 122.144531 32.339844 119.816406 35.476562 L 116.324219 40.257812 L 109.496094 49.824219 C 106.480469 54.765625 104.546875 59.445312 103.699219 63.855469 L 103.859375 64.332031 L 103.144531 67.839844 C 103.144531 69.648438 103.671875 73.6875 104.730469 79.957031 C 105.3125 83.464844 105.550781 86.390625 105.445312 88.726562 L 105.050781 90.5625 L 105.128906 91.039062 L 105.050781 91.359375 L 105.289062 91.117188 L 105.445312 91.039062 L 105.527344 90.800781 C 107.644531 88.035156 108.808594 86.097656 109.019531 84.980469 L 109.417969 84.902344 L 108.78125 82.351562 L 108.066406 77.488281 L 107.589844 78.445312 L 107.828125 75.414062 L 107.828125 74.617188 C 107.828125 72.96875 108.039062 72.144531 108.464844 72.144531 C 108.78125 72.144531 109.230469 74.722656 109.8125 79.878906 C 109.867188 80.78125 110.5 82.855469 111.71875 86.097656 L 112.117188 88.089844 L 112.511719 87.929688 L 112.511719 86.335938 L 112.671875 85.460938 C 113.199219 81.527344 113.730469 78.867188 114.257812 77.488281 C 115.898438 72.96875 117.144531 70.019531 117.992188 68.636719 L 118.148438 69.355469 L 118.464844 69.355469 L 118.464844 68.082031 L 118.941406 67.761719 C 119.261719 67.761719 119.472656 68.585938 119.578125 70.234375 L 119.578125 70.949219 L 119.65625 71.1875 L 119.738281 75.734375 L 119.738281 75.8125 L 119.816406 75.734375 C 121.722656 71.164062 122.726562 68.878906 122.832031 68.878906 L 122.914062 68.878906 L 122.832031 66.644531 C 122.832031 64.519531 122.914062 63.03125 123.070312 62.179688 L 123.152344 62.179688 L 123.390625 63.535156 L 123.546875 63.535156 L 123.707031 62.820312 L 123.46875 61.304688 C 124.578125 61.304688 124.792969 64.042969 124.101562 69.515625 C 123.945312 70.683594 124.316406 72.304688 125.214844 74.378906 L 125.292969 75.414062 L 125.53125 75.492188 L 125.691406 75.414062 L 126.882812 77.648438 L 127.039062 77.648438 C 126.617188 73.980469 126.40625 70.976562 126.40625 68.636719 L 126.722656 65.128906 L 127.277344 62.976562 L 126.882812 62.660156 C 126.882812 62.339844 127.039062 62.074219 127.359375 61.863281 L 127.277344 61.542969 C 127.277344 60.851562 127.753906 60.109375 128.707031 59.3125 L 128.707031 60.425781 L 129.027344 60.425781 L 129.105469 59.070312 L 129.582031 58.671875 L 130.375 57.160156 C 130.796875 56.519531 131.460938 56.203125 132.359375 56.203125 C 134 56.203125 135.933594 57.984375 138.15625 61.542969 C 138.421875 60.746094 138.871094 59.789062 139.503906 58.671875 C 140.988281 56.175781 142.785156 54.925781 144.902344 54.925781 C 145.855469 54.925781 147.125 56.335938 148.714844 59.152344 L 150.300781 62.421875 C 151.097656 63.484375 151.546875 66.246094 151.652344 70.710938 L 152.050781 79.640625 L 152.050781 79.878906 L 152.128906 79.71875 L 151.96875 81.152344 L 152.050781 81.472656 L 152.367188 81.394531 L 152.683594 78.523438 C 153.742188 76.078125 154.484375 73.5 154.90625 70.789062 L 156.097656 61.941406 C 156.414062 61.941406 156.628906 62.339844 156.734375 63.136719 L 156.019531 65.6875 L 156.097656 65.847656 L 156.414062 65.929688 L 156.734375 65.210938 L 156.335938 69.992188 L 156.734375 77.007812 L 156.734375 79 L 157.289062 78.445312 C 158.875 76.636719 160.09375 74.351562 160.941406 71.585938 C 161.734375 69.25 162.34375 68.054688 162.765625 68 L 162.609375 68.238281 L 162.6875 69.195312 L 163.085938 69.035156 L 163.324219 68.480469 L 163.402344 70.632812 L 163.003906 73.742188 L 163.003906 84.105469 L 163.085938 84.023438 L 163.003906 84.183594 L 163.242188 84.261719 L 163.957031 82.75 L 167.769531 77.648438 L 169.277344 73.980469 L 169.910156 72.542969 L 170.070312 72.703125 L 170.707031 71.347656 L 170.945312 71.269531 C 171.367188 71.269531 171.578125 76.425781 171.578125 86.734375 L 171.578125 86.8125 L 171.660156 86.8125 L 171.898438 86.335938 L 171.898438 87.054688 L 172.292969 87.054688 L 172.609375 84.582031 L 174.832031 78.683594 C 175.523438 76.558594 176.078125 75.492188 176.5 75.492188 L 177.058594 75.652344 L 177.136719 76.53125 L 177.136719 76.609375 L 177.058594 76.929688 C 176.527344 77.886719 176.023438 79.265625 175.546875 81.074219 L 176.5 85.460938 L 176.976562 89.765625 L 176.820312 91.675781 L 176.898438 92.472656 L 177.058594 92.472656 L 177.058594 92.871094 L 177.375 92.472656 L 177.453125 92.394531 L 180.628906 87.453125 L 181.183594 84.023438 C 181.292969 83.386719 181.449219 82.90625 181.660156 82.589844 C 181.660156 83.171875 181.792969 83.546875 182.058594 83.707031 L 182.296875 83.464844 C 182.03125 83.148438 182.003906 82.667969 182.21875 82.03125 L 182.457031 81.953125 C 182.773438 81.953125 183.277344 84.476562 183.964844 89.523438 L 183.964844 90.5625 L 184.121094 90.5625 L 184.203125 91.039062 L 184.441406 90.71875 L 184.441406 90.640625 L 186.742188 87.453125 L 187.21875 85.539062 C 187.324219 85.058594 187.511719 84.714844 187.773438 84.503906 L 186.1875 81.394531 L 186.34375 80.199219 L 186.34375 80.117188 L 186.503906 79.957031 L 186.425781 79.480469 L 186.425781 78.601562 L 186.503906 78.683594 C 187.617188 80.222656 188.277344 81.417969 188.488281 82.269531 L 189.042969 84.183594 L 189.203125 84.742188 L 189.203125 84.820312 L 190.316406 88.808594 L 190.472656 88.886719 L 190.792969 87.292969 L 191.03125 88.648438 L 191.425781 88.488281 L 191.425781 86.972656 L 191.109375 85.617188 L 191.1875 84.105469 L 189.042969 75.015625 L 189.441406 75.492188 L 189.679688 75.414062 L 189.679688 75.253906 L 189.203125 74.058594 L 189.601562 73.742188 L 191.585938 75.492188 L 192.140625 76.132812 L 194.839844 79 L 195.316406 79.480469 L 195.15625 79.082031 L 195.316406 79.082031 L 195.554688 78.921875 L 194.679688 77.804688 M 193.015625 17.300781 L 190.632812 18.496094 L 186.265625 20.886719 C 185.523438 20.886719 185.128906 19.664062 185.074219 17.21875 L 185.3125 11.640625 L 185.234375 11.480469 C 179.414062 13.605469 175.363281 16.050781 173.085938 18.8125 L 165.070312 25.828125 C 164.382812 25.828125 163.429688 24.5 162.210938 21.84375 C 161.523438 22.800781 160.859375 24.738281 160.226562 27.664062 L 159.511719 30.613281 C 165.015625 31.675781 170.441406 34.917969 175.785156 40.339844 C 179.808594 44.484375 182.5625 47.511719 184.042969 49.425781 L 184.042969 49.503906 L 184.203125 49.746094 L 184.835938 50.621094 C 186.265625 51.738281 187.90625 54.421875 189.757812 58.671875 L 191.03125 61.621094 L 204.289062 60.347656 C 202.277344 58.699219 201.269531 57.609375 201.269531 57.078125 C 201.269531 56.652344 203.253906 55.671875 207.226562 54.128906 C 210.71875 52.746094 212.96875 51.949219 213.972656 51.738281 L 213.578125 51.578125 L 214.289062 51.578125 L 214.210938 51.417969 L 212.386719 51.019531 C 209.421875 49.480469 207.941406 48.308594 207.941406 47.511719 L 211.511719 44.324219 C 214.160156 41.773438 216.195312 39.40625 217.625 37.230469 L 214.210938 37.707031 C 213.628906 37.707031 213.339844 37.46875 213.339844 36.988281 C 215.507812 32.207031 216.777344 29.019531 217.148438 27.421875 L 219.054688 17.777344 L 219.054688 17.699219 C 207.570312 22.535156 201.269531 24.953125 200.160156 24.953125 L 199.761719 24.953125 L 200.316406 24.074219 C 199.949219 24.023438 199.578125 24.261719 199.207031 24.792969 C 198.835938 24.582031 198.652344 24.289062 198.652344 23.914062 L 199.605469 19.769531 L 197.777344 20.40625 C 197.144531 20.40625 196.746094 20.117188 196.585938 19.53125 L 196.585938 18.65625 C 196.585938 17.644531 196.851562 16.609375 197.378906 15.546875 L 197.378906 15.464844 L 195.238281 16.261719 L 196.667969 15.148438 L 196.191406 14.988281 L 193.015625 17.300781 M 199.605469 19.769531 L 199.605469 19.691406 L 199.605469 19.769531 M 217.625 37.230469 L 217.785156 37.148438 L 217.625 37.230469 M 207.859375 86.574219 C 204.101562 89.65625 201.722656 91.199219 200.714844 91.199219 C 200.132812 91.199219 199.84375 90.402344 199.84375 88.808594 L 199.921875 84.902344 L 194.363281 91.519531 C 193.730469 91.519531 193.410156 90.667969 193.410156 88.964844 C 193.410156 88.011719 193.09375 87.34375 192.457031 86.972656 L 192.21875 86.894531 C 191.742188 89.765625 191.082031 91.199219 190.234375 91.199219 L 189.519531 89.445312 C 189.203125 92.050781 188.09375 94.757812 186.1875 97.578125 L 181.183594 103.875 L 175.867188 111.605469 C 172.53125 116.019531 170.363281 118.460938 169.355469 118.941406 C 169.9375 119.261719 170.625 120.695312 171.421875 123.246094 C 171.898438 122.289062 172.453125 121.8125 173.085938 121.8125 L 183.011719 130.339844 L 185.871094 127.390625 C 186.453125 127.390625 189.335938 129.382812 194.523438 133.371094 L 194.917969 128.1875 C 194.972656 125.796875 195.238281 124.601562 195.714844 124.601562 L 209.6875 126.914062 L 209.84375 126.832031 L 207.304688 123.484375 L 209.765625 121.890625 L 207.542969 119.816406 L 211.117188 116.550781 L 213.496094 113.28125 L 213.496094 113.121094 C 210.109375 112.960938 208.417969 112.136719 208.417969 110.648438 C 209.898438 108.84375 210.851562 107.355469 211.273438 106.1875 C 210.320312 106.398438 209.449219 106.027344 208.652344 105.070312 C 208.070312 104.324219 207.78125 103.742188 207.78125 103.316406 C 207.78125 102.996094 207.941406 102.785156 208.257812 102.679688 C 205.503906 101.722656 204.128906 100.898438 204.128906 100.207031 L 206.75 93.273438 C 206.960938 90.296875 207.332031 88.0625 207.859375 86.574219 L 207.859375 86.496094 L 207.859375 86.574219 M 149.113281 62.101562 C 146.835938 58.273438 145.433594 56.363281 144.902344 56.363281 C 143.261719 56.363281 141.859375 57.582031 140.695312 60.027344 L 139.347656 62.738281 L 140.300781 62.738281 L 144.664062 61.863281 L 148.953125 62.339844 L 149.113281 62.101562 M 131.566406 61.066406 C 133.84375 61.066406 135.933594 61.78125 137.839844 63.21875 C 134.820312 59.496094 132.96875 57.636719 132.28125 57.636719 L 129.582031 61.144531 L 131.566406 61.066406 M 110.449219 87.929688 L 110.605469 87.929688 L 110.527344 87.929688 L 110.210938 87.210938 L 109.574219 91.039062 L 109.019531 91.199219 L 107.988281 89.765625 L 104.574219 95.34375 C 103.992188 95.34375 103.726562 93.511719 103.78125 89.84375 L 103.78125 88.886719 L 101.554688 89.84375 L 98.9375 90.480469 L 97.429688 90.082031 L 96.792969 90.242188 L 96.792969 90.800781 L 94.09375 90.878906 C 97.480469 92.953125 99.175781 94.652344 99.175781 95.980469 C 99.175781 96.300781 96.050781 98.160156 89.808594 101.5625 L 87.503906 103.394531 L 90.917969 103.238281 L 95.921875 103.476562 L 96.554688 103.792969 L 96.953125 104.351562 L 93.777344 107.941406 C 93.140625 108.578125 92.664062 109.746094 92.347656 111.449219 L 92.347656 111.527344 L 98.460938 111.925781 C 98.460938 112.191406 98.195312 112.457031 97.667969 112.722656 C 97.085938 112.988281 96.714844 113.414062 96.554688 114 L 97.347656 114.714844 C 97.347656 115.621094 96.714844 117.664062 95.445312 120.855469 L 94.410156 126.753906 L 94.410156 129.625 L 104.890625 122.289062 C 105.421875 122.289062 105.683594 122.609375 105.683594 123.246094 L 105.289062 125 L 105.289062 125.957031 C 106.242188 124.363281 107.511719 123.566406 109.097656 123.566406 C 109.679688 123.566406 110.105469 124.8125 110.367188 127.3125 L 115.054688 121.570312 L 115.847656 120.855469 L 115.765625 120.695312 L 117.355469 118.78125 C 117.882812 118.78125 119.632812 122.078125 122.59375 128.667969 L 122.753906 128.746094 L 122.992188 128.347656 L 123.070312 127.628906 L 123.070312 127.550781 C 123.335938 127.339844 123.628906 127.152344 123.945312 126.992188 L 123.945312 126.914062 L 124.023438 126.914062 L 124.183594 126.832031 C 123.757812 125.34375 123.546875 123.832031 123.546875 122.289062 C 123.546875 120.800781 123.757812 120.058594 124.183594 120.058594 C 124.554688 120.058594 125.269531 120.347656 126.328125 120.933594 L 126.40625 120.296875 L 123.152344 117.90625 C 121.035156 116.097656 119.605469 114.53125 118.863281 113.203125 C 117.328125 111.449219 116.429688 110.117188 116.164062 109.214844 L 115.054688 105.46875 C 111.929688 98.398438 110.394531 93.21875 110.449219 89.921875 L 110.449219 87.929688 M 92.507812 47.59375 L 92.347656 47.433594 L 92.585938 47.59375 L 92.507812 47.59375 M 76.785156 51.898438 L 77.105469 51.898438 L 76.945312 52.375 L 76.785156 51.898438 M 84.726562 114.554688 L 84.726562 114.796875 L 84.566406 114.714844 L 84.726562 114.554688 "/>
<path style=" stroke:none;fill-rule:evenodd;fill:rgb(56.078434%,47.843137%,23.137255%);fill-opacity:1;" d="M 107.667969 19.453125 L 107.589844 19.53125 L 107.511719 19.453125 L 107.667969 19.453125 M 214.210938 51.578125 L 214.210938 51.417969 L 214.289062 51.578125 L 214.210938 51.578125 M 190.316406 88.808594 L 190.472656 88.886719 L 190.316406 88.808594 M 209.6875 126.914062 L 209.84375 126.832031 L 209.6875 126.914062 M 156.8125 77.089844 L 156.734375 77.089844 L 156.734375 77.007812 L 156.8125 77.089844 M 101.636719 65.6875 L 101.714844 65.6875 L 101.636719 65.6875 "/>
<path style=" stroke:none;fill-rule:evenodd;fill:rgb(74.901962%,36.470589%,42.352942%);fill-opacity:1;" d="M 107.667969 74.617188 L 107.828125 74.617188 L 107.828125 74.777344 L 107.75 74.777344 L 107.667969 74.617188 "/>
<path style=" stroke:none;fill-rule:evenodd;fill:rgb(86.666667%,78.823531%,51.764709%);fill-opacity:1;" d="M 89.648438 39.78125 L 89.808594 39.699219 L 90.441406 40.578125 L 90.363281 40.738281 L 89.648438 39.78125 M 157.128906 78.363281 L 157.289062 78.445312 L 156.734375 79 L 156.734375 77.089844 L 156.8125 77.089844 L 156.890625 78.445312 L 157.128906 78.363281 M 177.136719 76.53125 L 177.136719 76.609375 L 177.136719 76.53125 M 177.214844 92.394531 L 177.375 92.472656 L 177.058594 92.871094 L 177.058594 92.472656 L 177.214844 92.394531 M 186.34375 80.199219 L 186.265625 80.199219 L 186.34375 80.117188 L 186.34375 80.199219 M 195.15625 79.082031 L 195.316406 79.480469 L 194.839844 79 L 195.15625 79.082031 M 192.140625 76.132812 L 191.585938 75.492188 L 191.664062 75.414062 L 192.140625 76.132812 M 192.539062 24.3125 L 192.539062 24.234375 L 192.539062 24.3125 M 211.195312 41.933594 L 211.195312 42.011719 L 211.195312 41.933594 M 184.203125 49.746094 L 184.042969 49.503906 L 184.121094 49.347656 L 184.203125 49.585938 L 184.203125 49.746094 M 140.378906 52.773438 L 140.300781 52.855469 L 140.378906 52.773438 M 152.050781 79.640625 L 152.128906 79.640625 L 152.128906 79.71875 L 152.050781 79.640625 M 107.75 74.777344 L 107.828125 74.777344 L 107.828125 75.335938 L 107.75 74.777344 M 112.671875 85.460938 L 112.511719 86.335938 L 112.511719 85.460938 L 112.671875 85.460938 M 105.289062 91.117188 L 105.050781 91.359375 L 105.128906 91.039062 L 105.289062 91.117188 M 163.085938 84.023438 L 163.003906 84.105469 L 163.003906 84.023438 L 163.085938 84.023438 M 89.410156 58.355469 L 89.410156 58.433594 L 89.332031 58.355469 L 89.410156 58.355469 M 101.238281 103.636719 L 101.476562 103.714844 L 101.160156 103.792969 L 101.238281 103.636719 "/>
<path style=" stroke:none;fill-rule:evenodd;fill:rgb(37.64706%,21.960784%,21.176471%);fill-opacity:1;" d="M 90.441406 40.578125 L 90.519531 40.578125 L 90.363281 40.738281 L 90.441406 40.578125 M 184.042969 49.425781 L 184.121094 49.347656 L 184.042969 49.503906 L 184.042969 49.425781 M 107.75 74.777344 L 107.828125 74.777344 L 107.75 74.777344 "/>
<path style=" stroke:none;fill-rule:evenodd;fill:rgb(13.725491%,13.725491%,13.725491%);fill-opacity:1;" d="M 107.667969 19.453125 L 107.75 19.371094 L 107.988281 19.371094 L 114.101562 21.125 C 116.695312 22.136719 118.441406 23.171875 119.339844 24.234375 L 124.101562 30.054688 C 121.246094 31.222656 118.414062 34.199219 115.609375 38.984375 L 112.828125 43.128906 L 113.304688 43.6875 L 113.386719 43.6875 L 113.066406 43.765625 L 112.59375 43.445312 C 110.84375 42.117188 109.019531 41.242188 107.113281 40.816406 L 107.035156 40.496094 L 110.289062 38.902344 C 106.957031 34.703125 104.839844 31.4375 103.9375 29.097656 L 105.207031 29.097656 C 108.597656 30.054688 111.347656 31.0625 113.464844 32.125 L 113.863281 32.046875 C 112.539062 26.574219 110.449219 22.402344 107.589844 19.53125 L 107.667969 19.453125 M 101.714844 65.6875 L 101.792969 67.761719 L 101.875 69.117188 L 95.921875 71.03125 L 95.921875 71.90625 C 95.019531 71.90625 93.007812 72.492188 89.886719 73.660156 C 91.632812 71.214844 92.507812 69.648438 92.507812 68.957031 L 87.1875 64.8125 L 87.1875 64.730469 C 83.480469 60.746094 81.152344 57.316406 80.199219 54.449219 L 81.3125 55.164062 L 80.4375 54.289062 L 80.757812 54.128906 L 82.34375 55.5625 L 82.421875 55.644531 L 90.519531 62.421875 L 88.617188 57.796875 L 88.617188 57.714844 L 88.855469 57.398438 C 93.882812 61.382812 98.144531 64.148438 101.636719 65.6875 L 101.714844 65.6875 M 85.203125 39.621094 L 84.804688 39.222656 L 84.882812 38.984375 L 84.804688 38.824219 L 86.472656 38.824219 L 88.695312 39.859375 L 88.140625 38.027344 L 88.457031 38.027344 L 89.648438 39.78125 L 90.363281 40.738281 L 93.140625 44.722656 L 92.902344 44.960938 C 92.109375 44.960938 90.652344 44.109375 88.535156 42.410156 L 85.203125 39.621094 M 105.445312 88.726562 C 106.71875 82.136719 107.351562 77.433594 107.351562 74.617188 L 107.667969 74.617188 L 107.75 74.777344 L 107.828125 75.335938 L 107.828125 75.414062 L 107.589844 78.445312 L 108.066406 77.488281 L 108.78125 82.351562 L 109.417969 84.902344 L 109.019531 84.980469 C 108.808594 86.097656 107.644531 88.035156 105.527344 90.800781 L 105.445312 91.039062 L 105.289062 91.117188 L 105.128906 91.039062 L 105.050781 90.5625 L 105.445312 88.726562 M 111.71875 86.097656 L 111.320312 81.074219 C 111.320312 74.378906 113.386719 69.222656 117.515625 65.609375 C 118.148438 65.875 118.464844 66.699219 118.464844 68.082031 L 118.464844 69.355469 L 118.148438 69.355469 L 117.992188 68.636719 C 117.144531 70.019531 115.898438 72.96875 114.257812 77.488281 C 113.730469 78.867188 113.199219 81.527344 112.671875 85.460938 L 112.511719 85.460938 L 112.511719 87.929688 L 112.117188 88.089844 L 111.71875 86.097656 M 119.578125 70.234375 C 119.632812 67.308594 119.816406 64.679688 120.132812 62.339844 C 120.714844 57.824219 121.378906 55.058594 122.117188 54.050781 L 122.675781 58.59375 C 123.203125 59.019531 123.414062 59.628906 123.308594 60.425781 L 123.308594 60.824219 L 123.390625 60.824219 L 123.46875 61.304688 L 123.707031 62.820312 L 123.546875 63.535156 L 123.390625 63.535156 L 123.152344 62.179688 L 123.070312 62.179688 C 122.914062 63.03125 122.832031 64.519531 122.832031 66.644531 L 122.914062 68.878906 L 122.832031 68.878906 C 122.726562 68.878906 121.722656 71.164062 119.816406 75.734375 L 119.738281 75.734375 L 119.65625 71.1875 L 119.578125 70.949219 L 119.578125 70.234375 M 125.214844 74.378906 L 125.136719 69.59375 C 125.136719 66.246094 125.375 63.640625 125.851562 61.78125 C 126.804688 57.847656 127.78125 55.246094 128.789062 53.96875 C 129 54.5 129.105469 55.589844 129.105469 57.238281 L 129.105469 59.070312 L 129.027344 60.425781 L 128.707031 60.425781 L 128.707031 59.3125 C 127.753906 60.109375 127.277344 60.851562 127.277344 61.542969 L 127.359375 61.863281 C 127.039062 62.074219 126.882812 62.339844 126.882812 62.660156 L 127.277344 62.976562 L 126.722656 65.128906 L 126.40625 68.636719 C 126.40625 70.976562 126.617188 73.980469 127.039062 77.648438 L 126.882812 77.648438 L 125.691406 75.414062 L 125.53125 75.492188 L 125.292969 75.414062 L 125.214844 74.378906 M 148.714844 59.152344 C 149.507812 56.972656 150.0625 55.777344 150.382812 55.5625 L 152.523438 61.941406 C 153.320312 64.066406 153.714844 66.0625 153.714844 67.921875 L 152.84375 74.695312 L 152.683594 78.523438 L 152.367188 81.394531 L 152.050781 81.472656 L 151.96875 81.152344 L 152.128906 79.71875 L 152.128906 79.640625 L 152.050781 79.640625 L 151.652344 70.710938 C 151.546875 66.246094 151.097656 63.484375 150.300781 62.421875 L 148.714844 59.152344 M 156.734375 63.136719 L 157.289062 61.542969 L 158.003906 57.714844 C 158.375 58.78125 158.558594 61.011719 158.558594 64.414062 L 158.242188 71.429688 L 157.128906 78.363281 L 156.890625 78.445312 L 156.8125 77.089844 L 156.734375 77.007812 L 156.335938 69.992188 L 156.734375 65.210938 L 156.414062 65.929688 L 156.097656 65.847656 L 156.019531 65.6875 L 156.734375 63.136719 M 162.765625 68 C 163.667969 66.246094 164.089844 65.050781 164.035156 64.414062 L 165.148438 60.347656 C 166.472656 63.003906 167.132812 65.714844 167.132812 68.480469 C 167.132812 72.835938 166.074219 77.59375 163.957031 82.75 L 163.242188 84.261719 L 163.003906 84.183594 L 163.085938 84.023438 L 163.003906 84.023438 L 163.003906 73.742188 L 163.402344 70.632812 L 163.324219 68.480469 L 163.085938 69.035156 L 162.6875 69.195312 L 162.609375 68.238281 L 162.765625 68 M 169.910156 72.542969 L 169.832031 72.226562 L 172.292969 66.328125 C 173.300781 66.910156 173.800781 68.347656 173.800781 70.632812 C 173.800781 73.714844 173.40625 78.363281 172.609375 84.582031 L 172.292969 87.054688 L 171.898438 87.054688 L 171.898438 86.335938 L 171.660156 86.8125 L 171.578125 86.734375 C 171.578125 76.425781 171.367188 71.269531 170.945312 71.269531 L 170.707031 71.347656 L 170.070312 72.703125 L 169.910156 72.542969 M 177.136719 76.609375 C 177.1875 76.398438 177.613281 76.132812 178.40625 75.8125 L 179.199219 75.894531 L 179.199219 76.769531 C 178.300781 81.394531 177.640625 86.601562 177.214844 92.394531 L 177.058594 92.472656 L 176.898438 92.472656 L 176.820312 91.675781 L 176.976562 89.765625 L 176.5 85.460938 L 175.546875 81.074219 C 176.023438 79.265625 176.527344 77.886719 177.058594 76.929688 L 177.136719 76.609375 M 181.660156 82.589844 L 181.660156 82.507812 C 181.660156 80.4375 182.003906 78.894531 182.695312 77.886719 C 184.070312 81.445312 184.757812 84.023438 184.757812 85.617188 L 184.441406 90.402344 L 184.359375 90.5625 L 183.964844 90.5625 L 183.964844 89.523438 C 183.277344 84.476562 182.773438 81.953125 182.457031 81.953125 L 182.21875 82.03125 C 182.003906 82.667969 182.03125 83.148438 182.296875 83.464844 L 182.058594 83.707031 C 181.792969 83.546875 181.660156 83.171875 181.660156 82.589844 M 186.265625 80.199219 L 185.472656 77.246094 L 185.472656 76.210938 L 185.550781 76.132812 L 185.789062 76.132812 C 186.371094 76.132812 187.164062 76.796875 188.171875 78.125 C 189.070312 79.398438 189.679688 80.542969 189.996094 81.554688 L 191.109375 85.617188 L 191.425781 86.972656 L 191.425781 88.488281 L 191.03125 88.648438 L 190.792969 87.292969 L 190.472656 88.886719 L 190.316406 88.808594 L 189.203125 84.820312 L 189.203125 84.742188 L 189.042969 84.183594 L 188.488281 82.269531 C 188.277344 81.417969 187.617188 80.222656 186.503906 78.683594 L 186.425781 78.601562 L 186.425781 79.480469 L 186.503906 79.957031 L 186.34375 80.117188 L 186.265625 80.199219 M 189.042969 75.015625 L 187.773438 70.871094 L 187.773438 69.914062 L 188.011719 69.835938 L 194.679688 77.804688 L 195.554688 78.921875 L 195.316406 79.082031 L 195.15625 79.082031 L 194.839844 79 L 192.140625 76.132812 L 191.664062 75.414062 L 191.585938 75.492188 L 189.601562 73.742188 L 189.203125 74.058594 L 189.679688 75.253906 L 189.679688 75.414062 L 189.441406 75.492188 L 189.042969 75.015625 M 184.121094 49.347656 C 184.121094 48.65625 186.320312 46.449219 190.710938 42.730469 L 198.253906 36.589844 L 214.527344 24.3125 L 214.925781 24.554688 C 212.4375 32.578125 209.554688 38.425781 206.273438 42.089844 C 210.453125 41.933594 212.835938 41.480469 213.417969 40.738281 L 213.578125 40.976562 C 211.246094 42.359375 209.394531 44.191406 208.019531 46.476562 C 206.90625 48.125 205.371094 49.824219 203.414062 51.578125 L 211.195312 50.941406 L 212.386719 51.019531 L 214.210938 51.417969 L 214.210938 51.578125 L 213.578125 51.578125 L 213.972656 51.738281 C 212.96875 51.949219 210.71875 52.746094 207.226562 54.128906 C 203.253906 55.671875 201.269531 56.652344 201.269531 57.078125 C 201.269531 57.609375 202.277344 58.699219 204.289062 60.347656 L 191.03125 61.621094 L 189.757812 58.671875 C 187.90625 54.421875 186.265625 51.738281 184.835938 50.621094 L 184.203125 49.746094 L 184.203125 49.585938 L 184.121094 49.347656 M 199.761719 24.953125 L 199.523438 25.269531 L 199.605469 25.351562 L 199.921875 25.269531 L 200.082031 25.511719 L 199.367188 26.308594 L 198.890625 26.226562 L 198.652344 26.464844 L 198.570312 26.464844 L 191.03125 31.648438 L 190.949219 30.691406 C 190.949219 29.152344 191.453125 27.023438 192.457031 24.3125 L 192.539062 24.3125 L 192.539062 24.234375 L 185.789062 26.945312 L 185.3125 26.867188 L 189.839844 20.648438 L 193.015625 17.300781 L 196.191406 14.988281 L 196.667969 15.148438 L 195.238281 16.261719 L 197.378906 15.464844 L 197.378906 15.546875 C 196.851562 16.609375 196.585938 17.644531 196.585938 18.65625 L 196.585938 19.53125 C 196.746094 20.117188 197.144531 20.40625 197.777344 20.40625 L 199.605469 19.769531 L 198.652344 23.914062 C 198.652344 24.289062 198.835938 24.582031 199.207031 24.792969 C 199.578125 24.261719 199.949219 24.023438 200.316406 24.074219 L 199.761719 24.953125 M 211.195312 41.933594 L 211.195312 42.011719 L 211.195312 41.933594 M 209.6875 126.914062 L 195.714844 124.601562 C 195.238281 124.601562 194.972656 125.796875 194.917969 128.1875 L 194.523438 133.371094 C 189.335938 129.382812 186.453125 127.390625 185.871094 127.390625 L 183.011719 130.339844 L 173.085938 121.8125 C 172.453125 121.8125 171.898438 122.289062 171.421875 123.246094 C 170.625 120.695312 169.9375 119.261719 169.355469 118.941406 C 170.363281 118.460938 172.53125 116.019531 175.867188 111.605469 L 181.183594 103.875 L 186.1875 97.578125 C 188.09375 94.757812 189.203125 92.050781 189.519531 89.445312 L 190.234375 91.199219 C 191.082031 91.199219 191.742188 89.765625 192.21875 86.894531 L 192.457031 86.972656 C 193.09375 87.34375 193.410156 88.011719 193.410156 88.964844 C 193.410156 90.667969 193.730469 91.519531 194.363281 91.519531 L 199.921875 84.902344 L 199.84375 88.808594 C 199.84375 90.402344 200.132812 91.199219 200.714844 91.199219 C 201.722656 91.199219 204.101562 89.65625 207.859375 86.574219 C 207.332031 88.0625 206.960938 90.296875 206.75 93.273438 L 204.128906 100.207031 C 204.128906 100.898438 205.503906 101.722656 208.257812 102.679688 C 207.941406 102.785156 207.78125 102.996094 207.78125 103.316406 C 207.78125 103.742188 208.070312 104.324219 208.652344 105.070312 C 209.449219 106.027344 210.320312 106.398438 211.273438 106.1875 C 210.851562 107.355469 209.898438 108.84375 208.417969 110.648438 C 208.417969 112.136719 210.109375 112.960938 213.496094 113.121094 L 213.496094 113.28125 L 211.117188 116.550781 L 207.542969 119.816406 L 209.765625 121.890625 L 207.304688 123.484375 L 209.84375 126.832031 L 209.6875 126.914062 M 140.378906 52.773438 L 140.300781 52.855469 L 140.378906 52.773438 M 144.03125 46.398438 C 145.246094 46.398438 145.855469 46.714844 145.855469 47.351562 L 141.171875 51.019531 L 141.09375 51.101562 L 143.871094 50.460938 C 144.402344 50.460938 144.664062 50.703125 144.664062 51.179688 C 144.664062 51.816406 143.421875 52.800781 140.933594 54.128906 C 139.558594 55.828125 138.367188 56.679688 137.363281 56.679688 C 136.726562 56.679688 135.164062 55.484375 132.675781 53.09375 L 129.105469 49.347656 C 129.105469 48.921875 129.476562 48.707031 130.214844 48.707031 C 131.273438 48.707031 132.226562 49.027344 133.074219 49.664062 C 133.074219 47.859375 133.390625 46.953125 134.027344 46.953125 L 135.058594 47.433594 L 135.535156 46.476562 C 135.800781 45.945312 136.144531 45.679688 136.566406 45.679688 C 137.253906 45.679688 137.625 46.023438 137.679688 46.714844 L 137.839844 48.46875 L 144.03125 46.398438 M 149.113281 62.101562 L 148.953125 62.339844 L 144.664062 61.863281 L 140.300781 62.738281 L 139.347656 62.738281 L 140.695312 60.027344 C 141.859375 57.582031 143.261719 56.363281 144.902344 56.363281 C 145.433594 56.363281 146.835938 58.273438 149.113281 62.101562 M 131.566406 61.066406 L 129.582031 61.144531 L 132.28125 57.636719 C 132.96875 57.636719 134.820312 59.496094 137.839844 63.21875 C 135.933594 61.78125 133.84375 61.066406 131.566406 61.066406 M 110.527344 87.929688 L 110.449219 87.929688 L 110.449219 89.921875 C 110.394531 93.21875 111.929688 98.398438 115.054688 105.46875 L 116.164062 109.214844 C 116.429688 110.117188 117.328125 111.449219 118.863281 113.203125 C 119.605469 114.53125 121.035156 116.097656 123.152344 117.90625 L 126.40625 120.296875 L 126.328125 120.933594 C 125.269531 120.347656 124.554688 120.058594 124.183594 120.058594 C 123.757812 120.058594 123.546875 120.800781 123.546875 122.289062 C 123.546875 123.832031 123.757812 125.34375 124.183594 126.832031 L 124.023438 126.914062 L 123.945312 126.914062 L 123.945312 126.992188 C 123.628906 127.152344 123.335938 127.339844 123.070312 127.550781 L 123.070312 127.628906 L 122.992188 128.347656 L 122.753906 128.746094 L 122.59375 128.667969 C 119.632812 122.078125 117.882812 118.78125 117.355469 118.78125 L 115.765625 120.695312 L 115.847656 120.855469 L 115.054688 121.570312 L 113.863281 121.652344 L 111.242188 120.695312 C 110.925781 120.640625 109.707031 121.148438 107.589844 122.210938 C 106.214844 122.847656 104.8125 122.183594 103.382812 120.214844 L 103.066406 119.660156 L 105.367188 114.15625 L 102.507812 114.476562 C 101.503906 114.476562 101 114.265625 101 113.839844 C 101 113.203125 102.191406 111.871094 104.574219 109.851562 L 104.652344 109.695312 C 103.964844 109.585938 102.90625 108.921875 101.476562 107.699219 L 99.414062 105.46875 C 99.414062 104.671875 99.996094 104.113281 101.160156 103.792969 L 101.476562 103.714844 L 101.238281 103.636719 C 99.121094 102.625 98.0625 101.828125 98.0625 101.242188 C 98.0625 100.179688 100.074219 99.332031 104.097656 98.691406 L 100.761719 94.785156 C 100.179688 93.828125 98.855469 92.6875 96.792969 91.359375 L 96.792969 90.242188 L 97.429688 90.082031 L 98.9375 90.480469 L 101.554688 89.84375 L 103.78125 88.886719 L 103.78125 89.84375 C 103.726562 93.511719 103.992188 95.34375 104.574219 95.34375 L 107.988281 89.765625 L 109.019531 91.199219 L 109.574219 91.039062 L 110.210938 87.210938 L 110.527344 87.929688 M 89.410156 58.355469 L 89.332031 58.355469 L 89.410156 58.433594 L 89.410156 58.355469 "/>
<path style=" stroke:none;fill-rule:evenodd;fill:rgb(25.098041%,25.098041%,25.882354%);fill-opacity:1;" d="M 107.589844 19.53125 C 110.449219 22.402344 112.539062 26.574219 113.863281 32.046875 L 113.464844 32.125 C 111.347656 31.0625 108.597656 30.054688 105.207031 29.097656 L 103.9375 29.097656 C 104.839844 31.4375 106.957031 34.703125 110.289062 38.902344 L 107.035156 40.496094 L 107.113281 40.816406 C 109.019531 41.242188 110.84375 42.117188 112.59375 43.445312 L 108.464844 48.949219 C 105.183594 54.421875 103.117188 59.496094 102.269531 64.175781 L 101.714844 65.6875 L 101.636719 65.6875 C 98.144531 64.148438 93.882812 61.382812 88.855469 57.398438 L 88.617188 57.714844 L 88.617188 57.796875 L 90.519531 62.421875 L 82.421875 55.644531 L 84.882812 55.964844 C 85.414062 55.964844 85.679688 55.75 85.679688 55.324219 C 84.992188 54.632812 84.300781 53.464844 83.613281 51.816406 C 84.039062 51.390625 84.621094 51.234375 85.359375 51.339844 L 86.871094 51.179688 L 87.265625 50.304688 L 85.757812 47.75 C 86.394531 47.21875 87.1875 46.953125 88.140625 46.953125 L 87.742188 46.238281 L 87.980469 46.316406 C 88.351562 46.316406 88.535156 46.105469 88.535156 45.679688 L 85.203125 39.621094 L 88.535156 42.410156 C 90.652344 44.109375 92.109375 44.960938 92.902344 44.960938 L 93.140625 44.722656 L 90.363281 40.738281 L 90.519531 40.578125 L 90.757812 40.816406 L 89.964844 39.539062 L 90.046875 39.140625 L 89.25 38.34375 L 88.378906 36.910156 L 88.296875 36.433594 C 88.085938 34.464844 87.582031 33.480469 86.789062 33.480469 L 83.375 25.667969 C 88.878906 27.636719 92.082031 28.621094 92.984375 28.621094 C 93.457031 28.621094 93.695312 28.40625 93.695312 27.980469 L 93.21875 26.066406 C 93.0625 24.953125 93.328125 24.394531 94.015625 24.394531 L 97.984375 25.191406 L 98.539062 25.113281 L 98.621094 24.554688 L 97.347656 21.84375 C 100.472656 22.109375 103.066406 22.667969 105.128906 23.515625 C 106.558594 24.101562 107.667969 24.6875 108.464844 25.269531 C 108.992188 25.269531 109.257812 24.980469 109.257812 24.394531 L 107.511719 19.453125 L 107.589844 19.53125 M 105.445312 88.726562 C 105.550781 86.390625 105.3125 83.464844 104.730469 79.957031 C 103.671875 73.6875 103.144531 69.648438 103.144531 67.839844 L 103.859375 64.332031 L 103.699219 63.855469 C 104.546875 59.445312 106.480469 54.765625 109.496094 49.824219 L 116.324219 40.257812 L 119.816406 35.476562 C 122.144531 32.339844 124.472656 30.773438 126.804688 30.773438 C 128.65625 30.773438 131.382812 32.207031 134.980469 35.078125 C 135.507812 35.078125 135.773438 34.890625 135.773438 34.519531 C 135.773438 33.933594 134.847656 33.082031 132.996094 31.96875 L 133.390625 31.488281 L 138.710938 30.773438 L 146.730469 31.570312 L 147.046875 31.808594 L 146.570312 31.96875 C 144.242188 33.191406 143.078125 34.226562 143.078125 35.078125 L 143.714844 35.316406 L 147.207031 33.402344 C 149.324219 32.125 151.042969 31.488281 152.367188 31.488281 C 162.632812 31.488281 170.125 34.730469 174.832031 41.214844 C 178.328125 46.050781 180.945312 49.292969 182.695312 50.941406 L 186.265625 55.085938 C 188.542969 58.167969 190.078125 61.542969 190.871094 65.210938 L 190.792969 65.609375 C 190.792969 66.882812 192.089844 70.949219 194.679688 77.804688 L 188.011719 69.835938 L 187.773438 69.914062 L 187.773438 70.871094 L 189.042969 75.015625 L 191.1875 84.105469 L 191.109375 85.617188 L 189.996094 81.554688 C 189.679688 80.542969 189.070312 79.398438 188.171875 78.125 C 187.164062 76.796875 186.371094 76.132812 185.789062 76.132812 L 185.550781 76.132812 L 185.472656 76.210938 L 185.472656 77.246094 L 186.265625 80.199219 L 186.34375 80.199219 L 186.1875 81.394531 L 187.773438 84.503906 C 187.511719 84.714844 187.324219 85.058594 187.21875 85.539062 L 186.742188 87.453125 L 184.441406 90.640625 L 184.441406 90.71875 L 184.203125 91.039062 L 184.121094 90.5625 L 184.359375 90.5625 L 184.441406 90.402344 L 184.757812 85.617188 C 184.757812 84.023438 184.070312 81.445312 182.695312 77.886719 C 182.003906 78.894531 181.660156 80.4375 181.660156 82.507812 L 181.660156 82.589844 C 181.449219 82.90625 181.292969 83.386719 181.183594 84.023438 L 180.628906 87.453125 L 177.453125 92.394531 L 177.375 92.472656 L 177.214844 92.394531 C 177.640625 86.601562 178.300781 81.394531 179.199219 76.769531 L 179.199219 75.894531 L 178.40625 75.8125 C 177.613281 76.132812 177.1875 76.398438 177.136719 76.609375 L 177.136719 76.53125 L 177.058594 75.652344 L 176.5 75.492188 C 176.078125 75.492188 175.523438 76.558594 174.832031 78.683594 L 172.609375 84.582031 C 173.40625 78.363281 173.800781 73.714844 173.800781 70.632812 C 173.800781 68.347656 173.300781 66.910156 172.292969 66.328125 L 169.832031 72.226562 L 169.910156 72.542969 L 169.277344 73.980469 L 167.769531 77.648438 L 163.957031 82.75 C 166.074219 77.59375 167.132812 72.835938 167.132812 68.480469 C 167.132812 65.714844 166.472656 63.003906 165.148438 60.347656 L 164.035156 64.414062 C 164.089844 65.050781 163.667969 66.246094 162.765625 68 C 162.34375 68.054688 161.734375 69.25 160.941406 71.585938 C 160.09375 74.351562 158.875 76.636719 157.289062 78.445312 L 157.128906 78.363281 L 158.242188 71.429688 L 158.558594 64.414062 C 158.558594 61.011719 158.375 58.78125 158.003906 57.714844 L 157.289062 61.542969 L 156.734375 63.136719 C 156.628906 62.339844 156.414062 61.941406 156.097656 61.941406 L 154.90625 70.789062 C 154.484375 73.5 153.742188 76.078125 152.683594 78.523438 L 152.84375 74.695312 L 153.714844 67.921875 C 153.714844 66.0625 153.320312 64.066406 152.523438 61.941406 L 150.382812 55.5625 C 150.0625 55.777344 149.507812 56.972656 148.714844 59.152344 C 147.125 56.335938 145.855469 54.925781 144.902344 54.925781 C 142.785156 54.925781 140.988281 56.175781 139.503906 58.671875 C 138.871094 59.789062 138.421875 60.746094 138.15625 61.542969 C 135.933594 57.984375 134 56.203125 132.359375 56.203125 C 131.460938 56.203125 130.796875 56.519531 130.375 57.160156 L 129.582031 58.671875 L 129.105469 59.070312 L 129.105469 57.238281 C 129.105469 55.589844 129 54.5 128.789062 53.96875 C 127.78125 55.246094 126.804688 57.847656 125.851562 61.78125 C 125.375 63.640625 125.136719 66.246094 125.136719 69.59375 L 125.214844 74.378906 C 124.316406 72.304688 123.945312 70.683594 124.101562 69.515625 C 124.792969 64.042969 124.578125 61.304688 123.46875 61.304688 L 123.390625 60.824219 L 123.308594 60.824219 L 123.308594 60.425781 C 123.414062 59.628906 123.203125 59.019531 122.675781 58.59375 L 122.117188 54.050781 C 121.378906 55.058594 120.714844 57.824219 120.132812 62.339844 C 119.816406 64.679688 119.632812 67.308594 119.578125 70.234375 C 119.472656 68.585938 119.261719 67.761719 118.941406 67.761719 L 118.464844 68.082031 C 118.464844 66.699219 118.148438 65.875 117.515625 65.609375 C 113.386719 69.222656 111.320312 74.378906 111.320312 81.074219 L 111.71875 86.097656 C 110.5 82.855469 109.867188 80.78125 109.8125 79.878906 C 109.230469 74.722656 108.78125 72.144531 108.464844 72.144531 C 108.039062 72.144531 107.828125 72.96875 107.828125 74.617188 L 107.351562 74.617188 C 107.351562 77.433594 106.71875 82.136719 105.445312 88.726562 M 184.042969 49.425781 C 182.5625 47.511719 179.808594 44.484375 175.785156 40.339844 C 170.441406 34.917969 165.015625 31.675781 159.511719 30.613281 L 160.226562 27.664062 C 160.859375 24.738281 161.523438 22.800781 162.210938 21.84375 C 163.429688 24.5 164.382812 25.828125 165.070312 25.828125 L 173.085938 18.8125 C 175.363281 16.050781 179.414062 13.605469 185.234375 11.480469 L 185.3125 11.640625 L 185.074219 17.21875 C 185.128906 19.664062 185.523438 20.886719 186.265625 20.886719 L 190.632812 18.496094 L 193.015625 17.300781 L 189.839844 20.648438 L 185.3125 26.867188 L 185.789062 26.945312 L 192.539062 24.234375 L 192.539062 24.3125 L 192.457031 24.3125 C 191.453125 27.023438 190.949219 29.152344 190.949219 30.691406 L 191.03125 31.648438 L 198.570312 26.464844 L 198.652344 26.464844 L 198.890625 26.226562 L 199.367188 26.308594 L 200.082031 25.511719 L 199.921875 25.269531 L 199.605469 25.351562 L 199.523438 25.269531 L 199.761719 24.953125 L 200.160156 24.953125 C 201.269531 24.953125 207.570312 22.535156 219.054688 17.699219 L 219.054688 17.777344 L 217.148438 27.421875 C 216.777344 29.019531 215.507812 32.207031 213.339844 36.988281 C 213.339844 37.46875 213.628906 37.707031 214.210938 37.707031 L 217.625 37.230469 C 216.195312 39.40625 214.160156 41.773438 211.511719 44.324219 L 207.941406 47.511719 C 207.941406 48.308594 209.421875 49.480469 212.386719 51.019531 L 211.195312 50.941406 L 203.414062 51.578125 C 205.371094 49.824219 206.90625 48.125 208.019531 46.476562 C 209.394531 44.191406 211.246094 42.359375 213.578125 40.976562 L 213.417969 40.738281 C 212.835938 41.480469 210.453125 41.933594 206.273438 42.089844 C 209.554688 38.425781 212.4375 32.578125 214.925781 24.554688 L 214.527344 24.3125 L 198.253906 36.589844 L 190.710938 42.730469 C 186.320312 46.449219 184.121094 48.65625 184.121094 49.347656 L 184.042969 49.425781 M 144.03125 46.398438 L 137.839844 48.46875 L 137.679688 46.714844 C 137.625 46.023438 137.253906 45.679688 136.566406 45.679688 C 136.144531 45.679688 135.800781 45.945312 135.535156 46.476562 L 135.058594 47.433594 L 134.027344 46.953125 C 133.390625 46.953125 133.074219 47.859375 133.074219 49.664062 C 132.226562 49.027344 131.273438 48.707031 130.214844 48.707031 C 129.476562 48.707031 129.105469 48.921875 129.105469 49.347656 L 132.675781 53.09375 C 135.164062 55.484375 136.726562 56.679688 137.363281 56.679688 C 138.367188 56.679688 139.558594 55.828125 140.933594 54.128906 C 143.421875 52.800781 144.664062 51.816406 144.664062 51.179688 C 144.664062 50.703125 144.402344 50.460938 143.871094 50.460938 L 141.09375 51.101562 L 141.171875 51.019531 L 145.855469 47.351562 C 145.855469 46.714844 145.246094 46.398438 144.03125 46.398438 M 115.054688 121.570312 L 110.367188 127.3125 C 110.105469 124.8125 109.679688 123.566406 109.097656 123.566406 C 107.511719 123.566406 106.242188 124.363281 105.289062 125.957031 L 105.289062 125 L 105.683594 123.246094 C 105.683594 122.609375 105.421875 122.289062 104.890625 122.289062 L 94.410156 129.625 L 94.410156 126.753906 L 95.445312 120.855469 C 96.714844 117.664062 97.347656 115.621094 97.347656 114.714844 L 96.554688 114 C 96.714844 113.414062 97.085938 112.988281 97.667969 112.722656 C 98.195312 112.457031 98.460938 112.191406 98.460938 111.925781 L 92.347656 111.527344 L 92.347656 111.449219 C 92.664062 109.746094 93.140625 108.578125 93.777344 107.941406 L 96.953125 104.351562 L 96.554688 103.792969 L 95.921875 103.476562 L 90.917969 103.238281 L 87.503906 103.394531 L 89.808594 101.5625 C 96.050781 98.160156 99.175781 96.300781 99.175781 95.980469 C 99.175781 94.652344 97.480469 92.953125 94.09375 90.878906 L 96.792969 90.800781 L 96.792969 91.359375 C 98.855469 92.6875 100.179688 93.828125 100.761719 94.785156 L 104.097656 98.691406 C 100.074219 99.332031 98.0625 100.179688 98.0625 101.242188 C 98.0625 101.828125 99.121094 102.625 101.238281 103.636719 L 101.160156 103.792969 C 99.996094 104.113281 99.414062 104.671875 99.414062 105.46875 L 101.476562 107.699219 C 102.90625 108.921875 103.964844 109.585938 104.652344 109.695312 L 104.574219 109.851562 C 102.191406 111.871094 101 113.203125 101 113.839844 C 101 114.265625 101.503906 114.476562 102.507812 114.476562 L 105.367188 114.15625 L 103.066406 119.660156 L 103.382812 120.214844 C 104.8125 122.183594 106.214844 122.847656 107.589844 122.210938 C 109.707031 121.148438 110.925781 120.640625 111.242188 120.695312 L 113.863281 121.652344 L 115.054688 121.570312 M 92.507812 47.59375 L 92.585938 47.59375 L 92.347656 47.433594 L 92.507812 47.59375 "/>
</g>
</svg>
