<?xml version="1.0" encoding="UTF-8"?>
<svg xmlns="http://www.w3.org/2000/svg" xmlns:xlink="http://www.w3.org/1999/xlink" width="296px" height="318px" viewBox="0 0 296 318" version="1.1">
<g id="surface1">
<path style=" stroke:none;fill-rule:evenodd;fill:rgb(0%,0%,0%);fill-opacity:1;" d="M 144.585938 29.734375 L 142.839844 29.335938 L 140.933594 28.859375 L 138.078125 29.097656 L 130.691406 29.574219 L 128.152344 30.53125 C 126.933594 30.691406 125.613281 31.25 124.183594 32.207031 L 117.515625 36.589844 C 114.125 38.929688 110.421875 42.199219 106.398438 46.398438 C 104.441406 48.46875 101.792969 51.898438 98.460938 56.679688 L 95.601562 60.667969 L 94.886719 61.78125 L 93.695312 63.773438 L 93.457031 64.332031 L 91.632812 72.304688 L 87.902344 81.394531 L 87.902344 81.472656 L 87.582031 82.109375 L 87.582031 82.269531 L 84.882812 92.15625 L 84.566406 93.429688 L 87.027344 90.800781 C 88.140625 89.683594 89.304688 87.957031 90.519531 85.617188 L 90.839844 85.140625 C 91.316406 83.597656 91.765625 82.828125 92.1875 82.828125 L 92.269531 82.988281 L 92.507812 82.828125 C 92.929688 82.828125 93.140625 83.09375 93.140625 83.625 L 92.425781 85.539062 L 89.886719 97.179688 L 89.964844 99.648438 L 90.519531 108.496094 C 90.519531 112.75 90.308594 115.992188 89.886719 118.222656 L 89.09375 122.6875 C 90.679688 120.613281 91.898438 119.550781 92.746094 119.5 L 93.300781 115.753906 C 93.40625 114.847656 93.960938 113.652344 94.96875 112.164062 L 95.921875 110.808594 L 91.792969 113.839844 L 91.632812 113.839844 L 90.996094 113.203125 L 90.996094 113.121094 C 93.539062 107.277344 95.285156 102.785156 96.238281 99.648438 L 96.714844 97.578125 C 97.136719 95.503906 98.195312 92.925781 99.890625 89.84375 L 100.445312 87.851562 L 101.554688 86.496094 C 101.554688 86.070312 101.398438 85.832031 101.082031 85.777344 L 101.476562 84.820312 C 101.742188 85.246094 102.246094 85.460938 102.984375 85.460938 L 103.382812 85.460938 L 101.476562 90.480469 L 101 91.039062 L 101.082031 91.359375 L 97.746094 98.53125 L 97.507812 99.648438 C 96.871094 102.039062 95.972656 104.777344 94.808594 107.859375 L 93.777344 110.648438 C 94.730469 109.800781 96 108.816406 97.585938 107.699219 L 100.523438 99.648438 C 101.792969 96.40625 102.613281 94.785156 102.984375 94.785156 C 103.410156 94.785156 103.621094 95.023438 103.621094 95.503906 C 103.621094 96.140625 103.222656 97.523438 102.429688 99.648438 L 101.082031 103.15625 L 99.570312 106.902344 L 99.652344 107.382812 L 99.015625 108.179688 L 98.0625 110.011719 L 97.507812 111.050781 C 97.773438 111.101562 97.90625 111.316406 97.90625 111.6875 L 97.507812 114.238281 C 97.507812 115.886719 97.878906 117.90625 98.621094 120.296875 C 99.308594 122.582031 99.597656 124.921875 99.492188 127.3125 C 103.355469 116.628906 106.136719 111.289062 107.828125 111.289062 C 108.304688 111.289062 108.542969 111.5 108.542969 111.925781 L 104.574219 118.222656 L 102.351562 124.28125 L 99.890625 130.261719 L 99.414062 132.492188 L 99.253906 133.53125 L 99.175781 133.609375 L 99.09375 134.085938 L 99.015625 134.40625 L 98.699219 135.285156 L 97.746094 136.160156 C 97.214844 136.160156 97.003906 135.65625 97.109375 134.644531 C 97.851562 132.042969 98.222656 129.863281 98.222656 128.109375 C 98.222656 125.027344 97.90625 122.449219 97.269531 120.375 C 96.582031 118.25 96.238281 116.152344 96.238281 114.078125 L 96.15625 113.121094 L 95.683594 113.757812 C 94.886719 115.089844 94.464844 116.257812 94.410156 117.265625 C 94.410156 118.277344 94.09375 119.871094 93.457031 122.050781 L 91.792969 134.167969 L 91.792969 136.398438 L 91.632812 136.558594 L 91.632812 136.640625 C 91.632812 138.234375 90.257812 143.546875 87.503906 152.582031 L 99.730469 140.226562 L 99.253906 135.125 L 99.253906 133.53125 L 99.414062 132.652344 L 99.414062 132.574219 L 99.492188 132.492188 L 99.890625 132.09375 L 100.128906 133.769531 L 101.636719 143.8125 L 106.480469 131.378906 L 108.464844 123.085938 C 109.308594 119.417969 110 117.585938 110.527344 117.585938 C 111.109375 117.585938 111.320312 117.90625 111.164062 118.542969 C 111.164062 121.039062 109.761719 126.300781 106.957031 134.328125 L 103.699219 143.097656 L 104.890625 141.980469 C 107.273438 139.695312 108.78125 138.550781 109.417969 138.550781 C 109.894531 138.550781 110.128906 138.792969 110.128906 139.269531 L 101.953125 146.523438 L 101.714844 146.523438 C 101.503906 147.320312 101.054688 148.199219 100.367188 149.15625 C 99.308594 150.644531 98.777344 152.398438 98.777344 154.417969 L 99.09375 157.445312 L 99.09375 157.605469 L 99.175781 157.445312 C 100.179688 155.585938 100.972656 154.496094 101.554688 154.175781 L 101.875 154.015625 C 102.351562 154.015625 102.589844 154.285156 102.589844 154.816406 L 102.507812 155.132812 L 102.828125 155.214844 L 102.429688 157.921875 C 102.429688 161.804688 103.410156 165.734375 105.367188 169.722656 L 107.113281 173.546875 L 107.75 167.332031 L 108.859375 161.273438 C 107.75 160.101562 106.980469 157.3125 106.558594 152.902344 C 106.558594 152.53125 106.769531 152.34375 107.191406 152.34375 C 107.882812 152.34375 108.304688 152.980469 108.464844 154.257812 L 108.621094 156.886719 C 108.726562 157.632812 109.070312 158.480469 109.65625 159.4375 L 109.972656 159.277344 C 110.394531 159.277344 111.347656 160.980469 112.828125 164.382812 L 113.625 166.214844 L 119.101562 151.308594 C 119.578125 151.308594 120.691406 153.832031 122.4375 158.878906 C 123.496094 154.789062 124.023438 151.730469 124.023438 149.710938 L 123.070312 140.144531 L 122.832031 140.304688 L 122.753906 139.667969 L 122.992188 139.191406 L 122.832031 136.238281 L 122.914062 134.804688 C 122.964844 133.6875 123.152344 133.132812 123.46875 133.132812 C 123.679688 133.132812 123.945312 134.59375 124.261719 137.515625 L 127.515625 136.878906 L 126.484375 135.761719 L 125.691406 135.042969 L 123.628906 133.050781 L 123.546875 132.972656 L 121.402344 130.261719 L 119.261719 126.832031 L 119.417969 128.027344 L 119.578125 129.941406 L 119.5 131.136719 C 118.863281 141.5 118.097656 146.683594 117.195312 146.683594 C 116.402344 146.683594 115.582031 143.601562 114.734375 137.4375 C 114.734375 136.480469 114.894531 136 115.210938 136 C 115.6875 136 116.269531 138.074219 116.957031 142.21875 C 117.539062 140.679688 117.964844 137.703125 118.230469 133.289062 L 118.546875 129.382812 L 118.148438 129.382812 L 117.753906 125.078125 L 117.832031 124.519531 L 116.5625 122.367188 C 112.804688 113.652344 110.925781 108.390625 110.925781 106.585938 C 110.925781 106.054688 111.082031 105.789062 111.402344 105.789062 C 111.824219 105.789062 113.757812 110.625 117.195312 120.296875 C 119.15625 125.875 122.753906 130.714844 127.992188 134.804688 C 127.675781 133.105469 126.566406 130.714844 124.660156 127.628906 C 122.332031 124.015625 120.929688 121.597656 120.453125 120.375 C 118.757812 116.285156 117.882812 113.867188 117.832031 113.121094 L 116.878906 106.027344 L 117.039062 105.390625 L 116.957031 105.308594 C 116.269531 104.457031 114.789062 102.015625 112.511719 97.976562 C 111.984375 97.125 111.1875 95.265625 110.128906 92.394531 L 110.128906 92.074219 C 110.238281 91.492188 110.078125 91.171875 109.65625 91.117188 C 108.171875 87.078125 107.429688 84.449219 107.429688 83.226562 C 107.429688 82.75 107.644531 82.507812 108.066406 82.507812 L 110.449219 88.011719 L 110.605469 88.488281 L 110.605469 88.566406 L 110.6875 88.566406 L 113.542969 96.378906 C 117.25 103.128906 120.609375 107.699219 123.628906 110.09375 L 115.210938 95.183594 C 114.207031 93.003906 113.597656 90.164062 113.386719 86.65625 L 113.78125 86.015625 L 113.304688 84.980469 L 113.226562 82.90625 L 113.386719 78.445312 C 113.597656 75.894531 113.941406 74.539062 114.417969 74.378906 L 114.257812 68.796875 L 114.417969 62.976562 C 114.683594 59.203125 115.132812 57.316406 115.765625 57.316406 C 116.191406 57.316406 116.402344 57.558594 116.402344 58.035156 L 115.53125 68.71875 L 115.847656 80.515625 C 115.847656 82.855469 116.113281 84.714844 116.640625 86.097656 L 116.71875 79.957031 C 116.71875 73.367188 117.222656 69.433594 118.230469 68.160156 L 121.085938 61.703125 L 122.355469 59.46875 L 122.277344 59.152344 C 122.277344 58.726562 122.488281 58.515625 122.914062 58.515625 L 123.070312 58.515625 C 124.078125 57.34375 125.082031 56.761719 126.089844 56.761719 L 126.644531 56.839844 L 127.992188 56.761719 L 129.820312 57.160156 L 129.898438 57.160156 C 129.953125 57.425781 130.136719 57.558594 130.453125 57.558594 L 130.613281 57.558594 C 131.40625 58.089844 132.121094 58.859375 132.757812 59.871094 L 135.058594 64.253906 C 136.59375 66.59375 137.574219 68.558594 137.996094 70.152344 L 137.996094 63.296875 C 137.890625 60.375 139.585938 54.898438 143.078125 46.875 C 146.570312 38.796875 149.058594 34.757812 150.539062 34.757812 L 151.253906 35.476562 C 148.449219 39.621094 146.648438 42.570312 145.855469 44.324219 C 143.898438 48.417969 142.65625 51.339844 142.125 53.09375 C 140.378906 58.566406 139.503906 61.515625 139.503906 61.941406 L 139.347656 68.320312 C 140.246094 66.140625 140.90625 64.730469 141.332031 64.09375 C 142.070312 63.03125 143.554688 61.570312 145.777344 59.710938 L 147.761719 58.195312 L 147.921875 58.273438 L 148.398438 57.796875 C 149.507812 57.050781 150.382812 56.679688 151.015625 56.679688 C 152.871094 56.679688 154.21875 58.222656 155.066406 61.304688 L 155.144531 61.542969 C 155.886719 62.5 156.679688 64.945312 157.527344 68.878906 L 158.242188 69.753906 L 157.84375 70.152344 L 158.160156 71.828125 L 159.671875 82.75 L 159.75 82.75 C 160.597656 79.027344 161.019531 75.015625 161.019531 70.710938 C 161.019531 67.949219 159.910156 63.773438 157.6875 58.195312 L 157.6875 56.28125 L 158.320312 56.121094 C 158.957031 56.121094 159.800781 58.035156 160.859375 61.863281 L 161.894531 62.578125 L 161.417969 63.457031 C 162.050781 63.5625 163.480469 65.050781 165.703125 67.921875 L 166.023438 68.398438 L 167.292969 70.074219 L 167.054688 70.632812 L 169.515625 74.777344 C 171.207031 78.445312 172.054688 82.722656 172.054688 87.613281 C 171.578125 92.074219 171.101562 95.132812 170.625 96.777344 L 170.625 96.859375 L 168.484375 101.242188 L 168.484375 101.324219 L 168.5625 101.324219 C 170.625 98.929688 172.371094 95.980469 173.800781 92.472656 L 173.882812 92.472656 C 174.359375 92.472656 174.753906 91.304688 175.070312 88.964844 L 177.058594 83.945312 L 177.535156 80.597656 C 177.746094 79.054688 178.089844 78.285156 178.566406 78.285156 C 178.988281 78.285156 179.199219 78.523438 179.199219 79 C 179.199219 81.554688 178.75 84.050781 177.851562 86.496094 L 176.261719 90.71875 C 176.6875 90.773438 176.84375 91.144531 176.738281 91.835938 L 176.183594 96.140625 L 176.183594 96.378906 L 174.753906 106.34375 C 173.960938 112.9375 173.0625 117.242188 172.054688 119.261719 L 172.054688 119.578125 C 172.054688 120.535156 170.996094 122.792969 168.878906 126.355469 L 164.273438 132.972656 C 168.085938 128.878906 171.183594 124.335938 173.5625 119.339844 L 177.375 109.933594 C 178.484375 107.0625 179.359375 105.628906 179.996094 105.628906 C 180.417969 105.628906 180.628906 105.839844 180.628906 106.265625 C 180.628906 106.851562 179.066406 110.542969 175.945312 117.347656 L 176.105469 117.824219 L 175.785156 120.773438 L 174.992188 121.492188 L 173.722656 123.085938 L 173.882812 121.730469 L 173.484375 122.527344 L 172.214844 125.476562 L 168.800781 130.101562 L 168.246094 130.820312 L 168.324219 130.980469 L 167.292969 132.972656 L 167.132812 132.015625 L 166.496094 132.652344 L 164.273438 134.964844 L 164.355469 135.363281 C 164.355469 139.402344 162.925781 143.230469 160.066406 146.84375 C 156.152344 151.785156 153.425781 156.328125 151.890625 160.476562 C 156.019531 158.613281 158.109375 157.683594 158.160156 157.683594 L 158.242188 157.683594 L 159.828125 154.65625 L 160.625 151.546875 C 160.941406 150.324219 161.523438 149.710938 162.371094 149.710938 L 162.925781 149.871094 L 163.003906 150.429688 C 160.730469 156.328125 159.140625 159.570312 158.242188 160.15625 L 154.351562 166.292969 C 153.503906 167.996094 152.976562 169.695312 152.761719 171.394531 L 159.351562 165.894531 L 159.589844 165.894531 L 161.417969 165.097656 L 165.625 163.742188 L 172.609375 159.835938 C 173.035156 159.835938 173.246094 160.050781 173.246094 160.476562 C 173.246094 161.539062 171.578125 162.785156 168.246094 164.222656 C 163.90625 166.136719 161.207031 167.199219 160.148438 167.410156 L 158.796875 172.035156 L 158.796875 175.300781 C 161.230469 174.824219 163.957031 173.761719 166.972656 172.113281 C 169.9375 170.464844 171.632812 169.164062 172.054688 168.207031 C 174.277344 162.628906 175.546875 159.835938 175.867188 159.835938 C 176.34375 159.835938 176.582031 160.050781 176.582031 160.476562 L 176.261719 166.773438 L 176.582031 170.199219 C 176.949219 168.976562 177.585938 167.4375 178.484375 165.578125 L 181.265625 159.835938 L 182.933594 152.664062 C 183.671875 149.953125 184.597656 148.332031 185.710938 147.800781 L 185.632812 146.683594 L 184.679688 146.683594 C 183.882812 146.683594 183.195312 145.859375 182.613281 144.210938 L 181.660156 141.101562 L 180.390625 137.355469 L 178.644531 139.589844 C 176.792969 142.246094 175.417969 144.851562 174.515625 147.402344 C 171.816406 154.789062 169.410156 158.480469 167.292969 158.480469 C 166.816406 158.480469 166.578125 158.269531 166.578125 157.84375 C 167.847656 155.238281 168.589844 153.273438 168.800781 151.945312 L 169.117188 146.046875 L 171.898438 134.246094 C 172.53125 134.246094 172.769531 134.726562 172.609375 135.683594 C 172.609375 137.222656 172.425781 138.550781 172.054688 139.667969 L 170.625 144.53125 C 170.414062 145.328125 170.335938 146.761719 170.386719 148.835938 C 170.386719 150.75 170.203125 152.210938 169.832031 153.21875 L 169.910156 153.300781 L 175.46875 142.21875 C 177.480469 137.808594 179.042969 135.601562 180.152344 135.601562 L 180.152344 135.441406 C 180.152344 133.371094 180.234375 131.269531 180.390625 129.144531 C 180.65625 124.945312 181.078125 122.847656 181.660156 122.847656 C 182.296875 122.847656 182.535156 123.378906 182.375 124.441406 L 181.503906 135.363281 C 181.503906 136.320312 182.003906 138.179688 183.011719 140.945312 L 185.074219 145.328125 L 185.550781 145.648438 L 184.996094 140.464844 L 184.597656 138.234375 L 185.15625 132.8125 L 185.550781 131.296875 L 187.378906 146.203125 L 188.011719 144.210938 L 187.457031 149.15625 L 190.234375 144.851562 L 194.207031 139.429688 L 198.253906 130.738281 L 198.175781 130.261719 L 198.015625 129.304688 C 198.015625 128.558594 198.308594 126.328125 198.890625 122.609375 L 199.523438 119.101562 L 199.367188 119.019531 L 199.523438 112.246094 C 199.523438 109.746094 198.96875 105.734375 197.855469 100.207031 C 196.429688 93.191406 195.714844 89.179688 195.714844 88.167969 C 195.714844 87.691406 195.925781 87.453125 196.347656 87.453125 C 196.878906 87.453125 197.804688 91.597656 199.128906 99.886719 L 200.554688 107.222656 C 200.769531 108.019531 200.875 109.71875 200.875 112.324219 L 200.792969 116.230469 C 201.21875 116.285156 201.351562 116.574219 201.191406 117.109375 L 201.191406 117.984375 C 201.085938 120.640625 200.449219 124.363281 199.285156 129.144531 L 199.367188 130.738281 L 199.523438 130.738281 L 199.445312 130.980469 C 199.605469 132.414062 200.027344 133.664062 200.714844 134.726562 L 200.792969 134.726562 C 200.476562 130.632812 200.636719 127.710938 201.269531 125.957031 L 202.78125 118.304688 L 202.460938 118.144531 L 202.9375 115.511719 L 204.605469 103.554688 C 205.1875 103.554688 205.398438 104.273438 205.242188 105.707031 L 205.003906 110.011719 L 205.398438 114.636719 C 205.398438 115.753906 206.589844 117.507812 208.972656 119.898438 C 208.070312 116.761719 207.621094 114.503906 207.621094 113.121094 L 207.621094 102.039062 C 207.726562 99.332031 207.992188 97.976562 208.417969 97.976562 L 208.890625 100.046875 C 210.53125 100.046875 212.597656 100.976562 215.085938 102.835938 C 212.597656 96.671875 208.8125 90.507812 203.730469 84.34375 L 203.652344 84.261719 L 203.652344 84.183594 L 203.097656 83.464844 C 201.296875 81.019531 199.816406 78.152344 198.652344 74.855469 L 198.175781 73.742188 L 198.414062 73.742188 L 198.332031 73.660156 L 196.984375 70.949219 C 196.984375 70.472656 197.167969 70.234375 197.539062 70.234375 C 199.128906 70.234375 201.058594 71.003906 203.335938 72.542969 C 199.628906 68.824219 197.539062 66.273438 197.0625 64.890625 L 196.746094 64.972656 L 196.03125 61.703125 L 196.429688 61.066406 L 195.792969 60.269531 L 194.285156 55.484375 C 193.277344 53.570312 191.875 51.578125 190.078125 49.503906 L 188.09375 47.273438 L 187.933594 47.273438 L 185.3125 44.484375 L 184.917969 44.085938 L 184.917969 44.003906 L 184.359375 43.367188 L 179.835938 37.546875 C 179.148438 36.539062 176.976562 35.128906 173.324219 33.324219 C 169.039062 31.195312 165.4375 30.132812 162.527344 30.132812 L 162.449219 30.132812 L 161.8125 29.972656 L 161.417969 30.132812 L 153 30.929688 L 151.890625 31.570312 L 151.652344 31.570312 L 151.175781 31.648438 L 150.539062 31.648438 L 145.855469 30.054688 L 145.777344 30.054688 C 145.777344 29.523438 145.539062 29.257812 145.0625 29.257812 L 144.585938 29.734375 M 139.1875 27.902344 L 139.664062 27.421875 L 142.203125 27.820312 C 147.179688 28.671875 150.117188 29.550781 151.015625 30.453125 L 152.207031 29.894531 C 154.164062 29.152344 156.414062 28.777344 158.957031 28.777344 C 165.570312 28.777344 170.441406 29.894531 173.5625 32.125 C 177.640625 33.933594 180.046875 35.421875 180.789062 36.589844 L 185.15625 41.691406 L 186.902344 44.003906 L 191.1875 48.789062 C 194.945312 53.570312 196.984375 57.664062 197.300781 61.066406 L 197.9375 64.015625 L 201.429688 68.796875 L 206.589844 74.058594 C 206.589844 74.589844 206.167969 74.855469 205.320312 74.855469 C 202.144531 73.472656 200.105469 72.703125 199.207031 72.542969 L 199.128906 72.703125 L 200.238281 74.9375 C 201.828125 78.550781 203.757812 81.84375 206.035156 84.820312 C 209.476562 89.230469 211.699219 92.527344 212.703125 94.707031 L 217.785156 104.511719 C 217.785156 104.988281 217.597656 105.230469 217.226562 105.230469 C 216.644531 105.230469 213.867188 103.902344 208.890625 101.242188 L 208.890625 106.265625 C 208.890625 109.984375 209.105469 112.988281 209.527344 115.273438 L 211.511719 124.042969 C 211.511719 124.574219 211.328125 124.839844 210.957031 124.839844 C 210.164062 124.839844 208.390625 122.582031 205.636719 118.0625 L 204.289062 115.035156 L 203.890625 117.347656 L 203.730469 119.261719 L 203.652344 119.976562 L 202.859375 124.761719 C 202.328125 127.046875 202.066406 129.464844 202.066406 132.015625 L 202.382812 138.710938 C 202.382812 139.242188 202.171875 139.507812 201.746094 139.507812 C 200.53125 139.507812 199.496094 137.222656 198.652344 132.652344 C 197.011719 136 195.847656 138.605469 195.15625 140.464844 L 191.269531 146.203125 C 189.308594 148.648438 188.222656 150.644531 188.011719 152.183594 L 187.457031 152.34375 L 187.21875 151.945312 L 187.058594 152.980469 L 186.902344 153.0625 C 186.425781 153.0625 186.105469 152.078125 185.949219 150.109375 C 185.050781 151.546875 184.386719 153.167969 183.964844 154.972656 C 183.117188 158.480469 182.402344 160.714844 181.820312 161.671875 C 180.921875 163.160156 179.835938 165.417969 178.566406 168.445312 C 178.140625 169.191406 177.664062 170.679688 177.136719 172.910156 L 177.453125 173.867188 L 177.375 174.664062 L 176.820312 174.746094 L 176.660156 174.746094 C 176.289062 174.691406 176.078125 174.53125 176.023438 174.265625 L 176.105469 174.027344 L 176.023438 173.628906 L 176.023438 173.46875 C 175.335938 171.289062 174.992188 169.855469 174.992188 169.164062 L 174.992188 164.78125 L 174.914062 164.699219 C 173.90625 167.941406 172.453125 170.199219 170.546875 171.476562 L 163.796875 175.0625 C 160.625 176.550781 158.664062 177.296875 157.921875 177.296875 L 157.210938 176.65625 C 157.578125 171.980469 157.949219 169.269531 158.320312 168.527344 L 152.605469 173.308594 L 152.605469 174.347656 L 152.128906 174.425781 C 151.863281 174.425781 151.679688 174.214844 151.574219 173.789062 L 151.492188 173.789062 L 150.621094 173.148438 L 151.414062 172.511719 L 151.414062 171.875 C 151.414062 168.207031 152.894531 164.488281 155.859375 160.714844 L 155.9375 160.554688 L 150.460938 163.265625 L 149.667969 162.628906 C 149.667969 160.609375 150.460938 158.242188 152.050781 155.53125 C 152.949219 153.777344 154.617188 151.464844 157.050781 148.597656 C 159.960938 144.984375 161.550781 142.644531 161.8125 141.582031 C 162.449219 138.871094 162.953125 136.984375 163.324219 135.921875 L 159.828125 138.3125 C 159.246094 138.3125 158.957031 138.101562 158.957031 137.675781 L 165.941406 128.269531 L 167.53125 125.476562 L 166.972656 123.964844 L 167.292969 120.933594 C 167.292969 119.925781 168.03125 118.542969 169.515625 116.789062 C 170.46875 115.671875 171.183594 114.957031 171.660156 114.636719 L 171.976562 112.484375 L 173.5625 105.308594 C 174.25 99.25 174.859375 95.078125 175.390625 92.792969 L 174.597656 94.46875 C 173.429688 97.285156 171.207031 100.605469 167.925781 104.433594 C 164.910156 107.886719 163.058594 109.613281 162.371094 109.613281 L 161.65625 108.816406 L 166.339844 102.28125 L 167.769531 98.773438 C 168.296875 97.496094 168.800781 96.699219 169.277344 96.378906 C 170.28125 92.234375 170.785156 89.285156 170.785156 87.53125 C 170.785156 82.855469 169.9375 78.578125 168.246094 74.695312 L 168.007812 74.695312 C 165.308594 74.695312 163.796875 73.820312 163.480469 72.066406 L 162.527344 72.625 L 162.210938 72.625 C 161.523438 83.039062 160.675781 88.25 159.671875 88.25 C 158.980469 88.25 158.1875 83.839844 157.289062 75.015625 L 156.652344 70.390625 L 155.9375 70.550781 C 155.570312 70.550781 155.277344 70.339844 155.066406 69.914062 L 151.335938 71.746094 C 150.699219 71.746094 150.382812 71.375 150.382812 70.632812 L 145.777344 72.304688 C 145.089844 72.304688 144.746094 71.800781 144.746094 70.789062 L 138.871094 73.023438 L 138.15625 72.386719 L 138.234375 72.386719 L 138.15625 72.304688 L 137.996094 72.542969 L 137.363281 73.023438 L 133.789062 71.109375 L 133.390625 71.269531 L 133.3125 71.1875 C 133.261719 72.410156 132.941406 73.023438 132.359375 73.023438 L 130.214844 71.507812 L 129.738281 71.746094 L 129.105469 70.710938 L 128.789062 70.472656 L 129.027344 72.144531 C 128.972656 73.050781 128.496094 73.5 127.597656 73.5 C 126.855469 73.5 125.480469 72.757812 123.46875 71.269531 C 123.734375 72.277344 123.414062 72.785156 122.515625 72.785156 L 120.691406 72.226562 L 120.691406 73.5 C 121.007812 74.988281 120.53125 75.734375 119.261719 75.734375 L 118.148438 75.015625 L 117.992188 80.277344 C 117.992188 83.890625 118.574219 87.796875 119.738281 91.996094 C 119.738281 92.527344 119.523438 92.792969 119.101562 92.792969 L 118.464844 92.632812 L 118.386719 92.632812 C 117.488281 92.632812 116.613281 91.144531 115.765625 88.167969 C 115.132812 85.992188 114.734375 84.023438 114.578125 82.269531 L 114.496094 82.90625 C 114.496094 89.5 116.429688 95.875 120.292969 102.039062 L 124.183594 107.941406 C 125.398438 109.695312 126.007812 110.996094 126.007812 111.847656 C 126.007812 112.324219 125.664062 112.5625 124.976562 112.5625 C 123.652344 112.5625 121.324219 110.542969 117.992188 106.503906 L 118.546875 109.695312 L 119.261719 113.042969 L 126.328125 119.339844 L 130.613281 121.890625 C 132.996094 123.324219 134.1875 124.363281 134.1875 125 L 134.1875 125.957031 C 134.1875 127.390625 133.894531 129.570312 133.3125 132.492188 C 132.625 135.789062 131.988281 137.4375 131.40625 137.4375 L 130.851562 137.4375 L 130.136719 137.914062 L 129.582031 137.835938 L 128.867188 137.914062 C 127.386719 138.179688 125.980469 138.660156 124.660156 139.347656 L 124.5 139.507812 L 124.660156 141.5 L 125.292969 149.710938 C 124.605469 157.898438 123.707031 161.988281 122.59375 161.988281 C 121.960938 161.988281 120.875 159.542969 119.339844 154.65625 L 119.261719 154.65625 L 116.164062 162.148438 C 115.265625 164.433594 114.707031 166.453125 114.496094 168.207031 L 114.972656 169.484375 C 114.972656 170.066406 114.761719 170.359375 114.339844 170.359375 C 113.863281 170.359375 113.175781 169.269531 112.273438 167.089844 L 110.210938 162.148438 L 110.128906 162.148438 C 109.441406 169.800781 108.808594 174.613281 108.226562 176.578125 L 108.226562 176.738281 L 107.75 177.535156 L 107.589844 177.535156 C 107.167969 177.535156 106.957031 177.320312 106.957031 176.898438 L 106.957031 176.019531 C 105.3125 171.929688 104.019531 169.109375 103.066406 167.570312 C 101.792969 165.335938 101.160156 162.070312 101.160156 157.765625 L 101.160156 157.207031 L 100.367188 158.324219 L 100.046875 160.078125 C 99.941406 160.925781 99.597656 161.351562 99.015625 161.351562 C 98.273438 161.351562 97.773438 159.011719 97.507812 154.335938 C 97.507812 152.371094 97.878906 150.667969 98.621094 149.234375 L 96.15625 151.066406 L 95.363281 151.945312 L 95.125 151.863281 L 94.332031 152.421875 L 94.730469 151.707031 L 94.730469 150.988281 L 96.554688 145.40625 L 86.15625 155.453125 C 85.414062 155.453125 85.121094 155.105469 85.28125 154.417969 C 86.816406 149.953125 87.742188 146.871094 88.058594 145.167969 L 90.363281 135.921875 L 90.757812 135.761719 C 90.972656 131.191406 91.367188 126.566406 91.949219 121.890625 L 88.140625 126.195312 C 87.664062 127.3125 87.214844 127.871094 86.789062 127.871094 L 86.15625 127.628906 L 86.15625 125.875 L 88.617188 117.109375 C 89.039062 115.671875 89.25 112.800781 89.25 108.496094 L 88.933594 102.757812 L 88.695312 99.648438 L 88.535156 97.257812 L 89.648438 90.003906 L 89.726562 89.765625 L 88.140625 91.675781 C 87.238281 92.472656 85.546875 94.757812 83.058594 98.53125 L 82.582031 99.25 L 82.34375 99.570312 C 81.761719 99.570312 81.472656 99.355469 81.472656 98.929688 C 81.472656 98.347656 81.683594 97.65625 82.105469 96.859375 C 83.695312 89.683594 85.335938 84.023438 87.027344 79.878906 L 91.394531 65.929688 C 91.449219 64.8125 92.214844 63.058594 93.695312 60.667969 L 97.824219 54.6875 C 100.894531 50.703125 103.410156 47.644531 105.367188 45.519531 C 112.722656 37.867188 118.996094 32.84375 124.183594 30.453125 C 127.835938 28.753906 132.570312 27.902344 138.394531 27.902344 L 139.1875 27.902344 M 192.457031 94.785156 L 191.425781 99.648438 C 191.425781 101.136719 191.902344 103.261719 192.855469 106.027344 C 193.753906 108.789062 194.207031 112.296875 194.207031 116.550781 L 194.046875 121.8125 C 193.835938 122.925781 192.855469 124.65625 191.109375 126.992188 L 190.472656 126.753906 L 190.710938 125.238281 C 190.710938 124.015625 189.785156 121.386719 187.933594 117.347656 L 184.917969 110.808594 C 183.699219 107.195312 183.0625 104.832031 183.011719 103.714844 L 182.695312 96.621094 C 182.695312 95.769531 182.851562 95.34375 183.171875 95.34375 C 183.644531 95.34375 184.042969 97.152344 184.359375 100.765625 C 184.679688 105.070312 185.15625 107.964844 185.789062 109.453125 L 189.203125 116.308594 C 190.632812 119.179688 191.453125 121.597656 191.664062 123.566406 C 192.511719 123.035156 192.933594 120.722656 192.933594 116.628906 C 192.933594 112.75 192.484375 109.402344 191.585938 106.585938 C 190.632812 103.769531 190.15625 101.429688 190.15625 99.570312 L 190.15625 96.859375 C 190.367188 95.050781 190.921875 94.148438 191.824219 94.148438 C 192.246094 94.148438 192.457031 94.359375 192.457031 94.785156 M 151.652344 58.671875 L 149.03125 61.222656 C 147.179688 62.820312 146.09375 63.988281 145.777344 64.730469 L 143.316406 69.914062 L 145.0625 69.035156 L 145.777344 69.355469 C 146.042969 67.546875 147.019531 65.476562 148.714844 63.136719 C 150.515625 60.585938 151.941406 59.230469 153 59.070312 C 152.578125 58.488281 152.074219 58.167969 151.492188 58.117188 L 151.652344 58.671875 M 149.03125 65.371094 L 147.125 70.3125 L 149.429688 69.515625 L 151.097656 66.007812 C 152.261719 63.773438 153.214844 62.605469 153.953125 62.5 L 153.875 61.78125 L 153.953125 61.304688 L 153.636719 60.347656 L 151.253906 62.339844 C 150.515625 62.710938 150.011719 63.191406 149.746094 63.773438 L 149.03125 65.371094 M 146.09375 60.746094 C 144.296875 62.339844 142.945312 63.882812 142.046875 65.371094 L 139.585938 71.746094 L 142.125 70.472656 L 142.125 70.3125 C 142.125 68.292969 143.367188 65.6875 145.855469 62.5 C 147.550781 60.320312 148.925781 58.914062 149.984375 58.273438 C 148.875 58.648438 147.578125 59.46875 146.09375 60.746094 M 138.394531 70.472656 L 138.078125 70.390625 L 138.15625 70.949219 L 138.394531 70.472656 M 151.8125 69.835938 L 151.8125 69.992188 L 151.890625 69.992188 L 152.605469 69.675781 L 153.238281 67.28125 C 153.714844 65.847656 154.21875 65.078125 154.75 64.972656 L 154.429688 64.09375 L 151.890625 67.125 L 151.175781 68.878906 C 151.863281 68.929688 152.074219 69.25 151.8125 69.835938 M 155.066406 66.644531 C 154.640625 67.070312 154.429688 67.601562 154.429688 68.238281 L 154.429688 68.878906 L 155.859375 68.160156 L 156.257812 68.238281 L 155.382812 66.328125 L 155.066406 66.644531 M 165.386719 69.992188 L 164.433594 70.789062 C 165.121094 71.003906 165.28125 71.5625 164.910156 72.464844 L 167.449219 73.183594 L 165.863281 70.390625 L 165.386719 69.992188 M 162.371094 70.871094 L 162.925781 70.710938 L 164.355469 68.957031 L 163.085938 67.441406 L 161.417969 65.371094 L 161.8125 68.082031 L 162.289062 69.753906 L 162.289062 70.949219 L 162.371094 70.949219 L 162.371094 70.871094 M 118.941406 70.632812 L 122.039062 71.269531 C 122.039062 70.101562 122.144531 69.328125 122.355469 68.957031 C 121.191406 68.214844 120.425781 67.679688 120.054688 67.363281 L 119.5 68.796875 L 118.785156 70.550781 L 118.785156 70.632812 L 118.941406 70.632812 M 119.339844 74.21875 L 119.339844 72.625 L 119.5 71.828125 L 118.625 71.585938 L 118.308594 73.820312 L 119.339844 74.21875 M 126.328125 58.433594 L 124.898438 59.390625 L 130.613281 64.332031 C 132.625 66.351562 133.761719 68.082031 134.027344 69.515625 L 135.613281 70.472656 L 136.886719 71.269531 L 133.949219 65.449219 C 131.617188 60.613281 129.609375 58.195312 127.914062 58.195312 L 126.328125 58.433594 L 126.328125 58.355469 L 126.328125 58.433594 M 123.46875 60.507812 L 122.515625 62.101562 C 124.949219 62.527344 127.386719 65.050781 129.820312 69.675781 L 131.964844 71.347656 L 131.964844 69.914062 L 132.203125 69.277344 L 129.183594 64.972656 L 126.40625 61.941406 L 123.46875 60.507812 M 126.644531 66.882812 L 121.722656 63.535156 L 120.53125 66.328125 L 121.085938 66.246094 C 122.515625 66.246094 124.101562 67.789062 125.851562 70.871094 L 127.4375 71.988281 L 127.359375 69.992188 C 127.410156 69.300781 127.597656 68.878906 127.914062 68.71875 L 126.644531 66.882812 M 127.515625 136.878906 L 127.835938 136.796875 L 127.675781 136.71875 L 127.515625 136.878906 M 99.730469 140.226562 L 99.808594 140.546875 L 99.730469 140.226562 M 168.246094 123.722656 L 168.324219 123.882812 L 168.324219 123.804688 L 169.195312 121.890625 L 169.992188 120.296875 L 169.910156 119.898438 L 171.101562 117.347656 L 169.910156 118.382812 L 168.640625 121.09375 L 168.5625 121.332031 L 168.246094 123.722656 M 128.230469 122.449219 L 124.976562 120.136719 L 120.214844 116.152344 L 122.355469 121.253906 L 130.453125 136.480469 C 131.511719 134.992188 132.042969 133.132812 132.042969 130.898438 C 132.308594 128.136719 132.625 126.328125 132.996094 125.476562 L 129.582031 123.324219 L 128.550781 130.261719 C 128.179688 130.261719 127.941406 129.730469 127.835938 128.667969 L 127.835938 124.28125 C 127.886719 123.484375 128.019531 122.875 128.230469 122.449219 M 110.527344 131.933594 C 111.375 131.933594 111.957031 135.308594 112.273438 142.058594 L 112.511719 152.183594 C 112.617188 153.351562 112.40625 153.9375 111.878906 153.9375 C 111.242188 153.9375 109.523438 150.246094 106.71875 142.855469 C 106.71875 142.484375 106.957031 142.296875 107.429688 142.296875 C 107.960938 142.296875 108.597656 143.28125 109.335938 145.25 L 110.925781 149.554688 L 110.925781 141.660156 C 110.976562 139.429688 110.820312 137.886719 110.449219 137.039062 C 110.078125 136.132812 109.894531 135.042969 109.894531 133.769531 L 110.527344 131.933594 M 100.046875 141.898438 L 97.585938 144.453125 L 97.746094 144.769531 L 97.191406 147.800781 L 97.03125 148.4375 L 98.621094 147.402344 C 98.777344 147.027344 99.253906 146.523438 100.046875 145.886719 L 100.128906 146.523438 L 100.605469 145.089844 L 100.367188 143.574219 L 100.046875 141.898438 "/>
<path style=" stroke:none;fill-rule:evenodd;fill:rgb(25.098041%,25.098041%,25.882354%);fill-opacity:1;" d="M 95.523438 91.917969 L 95.601562 91.996094 L 95.523438 91.996094 L 95.523438 91.917969 M 109.496094 91.117188 L 109.65625 91.117188 L 109.496094 91.117188 M 129.820312 57.160156 L 129.820312 56.917969 L 129.898438 57.160156 L 129.820312 57.160156 M 145.777344 30.054688 L 145.855469 30.054688 L 145.777344 30.132812 L 145.777344 30.054688 M 203.652344 84.261719 L 203.730469 84.34375 L 203.652344 84.34375 L 203.652344 84.261719 M 176.183594 96.378906 L 176.183594 96.222656 L 176.261719 96.378906 L 176.183594 96.378906 M 186.503906 67.921875 L 186.664062 67.921875 L 186.664062 68 L 186.503906 67.921875 M 173.246094 63.375 L 173.167969 63.375 L 173.246094 63.375 M 186.503906 89.523438 L 186.503906 89.605469 L 186.425781 89.523438 L 186.503906 89.523438 M 203.097656 83.464844 L 203.015625 83.464844 L 203.097656 83.464844 M 138.394531 70.472656 L 138.15625 70.949219 L 138.078125 70.390625 L 138.394531 70.472656 M 110.605469 88.011719 L 110.605469 88.488281 L 110.449219 88.011719 L 110.605469 88.011719 "/>
<path style=" stroke:none;fill-rule:evenodd;fill:rgb(13.725491%,13.725491%,13.725491%);fill-opacity:1;" d="M 198.332031 73.660156 L 198.414062 73.742188 L 198.175781 73.742188 L 198.332031 73.660156 M 110.605469 88.488281 L 110.6875 88.566406 L 110.605469 88.566406 L 110.605469 88.488281 M 123.546875 132.972656 L 123.628906 133.050781 L 123.46875 133.132812 L 123.546875 132.972656 M 99.414062 132.574219 L 99.414062 132.652344 L 99.253906 133.53125 L 99.253906 134.085938 L 99.09375 134.085938 L 99.175781 133.609375 L 99.253906 133.53125 L 99.414062 132.492188 L 99.414062 132.574219 "/>
<path style=" stroke:none;fill-rule:evenodd;fill:rgb(18.431373%,9.411765%,6.27451%);fill-opacity:1;" d="M 99.492188 132.492188 L 99.414062 132.574219 L 99.414062 132.492188 L 99.492188 132.492188 "/>
<path style=" stroke:none;fill-rule:evenodd;fill:rgb(94.117647%,78.431374%,78.431374%);fill-opacity:1;" d="M 87.902344 81.472656 L 87.902344 81.394531 L 91.632812 72.304688 L 93.457031 64.332031 L 93.695312 63.773438 L 94.886719 61.78125 L 95.601562 60.667969 L 98.460938 56.679688 C 101.792969 51.898438 104.441406 48.46875 106.398438 46.398438 C 110.421875 42.199219 114.125 38.929688 117.515625 36.589844 L 124.183594 32.207031 C 125.613281 31.25 126.933594 30.691406 128.152344 30.53125 L 130.691406 29.574219 L 138.078125 29.097656 L 140.933594 28.859375 L 142.839844 29.335938 L 144.585938 29.734375 L 134.425781 39.382812 C 133.894531 40.179688 132.464844 43.605469 130.136719 49.664062 L 130.136719 56.28125 L 129.820312 56.917969 L 129.820312 57.160156 L 127.992188 56.761719 L 126.644531 56.839844 L 126.089844 56.761719 C 125.082031 56.761719 124.078125 57.34375 123.070312 58.515625 L 122.914062 58.515625 C 122.488281 58.515625 122.277344 58.726562 122.277344 59.152344 L 122.355469 59.46875 L 121.085938 61.703125 L 118.230469 68.160156 C 117.222656 69.433594 116.71875 73.367188 116.71875 79.957031 L 116.640625 86.097656 C 116.113281 84.714844 115.847656 82.855469 115.847656 80.515625 L 115.53125 68.71875 L 116.402344 58.035156 C 116.402344 57.558594 116.191406 57.316406 115.765625 57.316406 C 115.132812 57.316406 114.683594 59.203125 114.417969 62.976562 L 114.257812 68.796875 L 114.417969 74.378906 C 113.941406 74.539062 113.597656 75.894531 113.386719 78.445312 L 113.226562 82.90625 L 113.304688 84.980469 C 112.828125 84.289062 112.273438 83.945312 111.640625 83.945312 L 110.449219 87.453125 L 110.605469 88.011719 L 110.449219 88.011719 L 108.066406 82.507812 C 107.644531 82.507812 107.429688 82.75 107.429688 83.226562 C 107.429688 84.449219 108.171875 87.078125 109.65625 91.117188 L 109.496094 91.117188 C 108.382812 91.117188 107.828125 94.121094 107.828125 100.128906 L 105.527344 91.917969 L 104.257812 89.046875 C 103.671875 89.046875 102.960938 89.339844 102.113281 89.921875 L 101.476562 90.480469 L 103.382812 85.460938 L 102.984375 85.460938 C 102.246094 85.460938 101.742188 85.246094 101.476562 84.820312 L 101.082031 85.777344 L 100.84375 85.699219 L 95.601562 91.996094 L 95.523438 91.917969 C 95.523438 80.863281 95.097656 75.335938 94.253906 75.335938 L 91.15625 77.964844 L 88.140625 81.394531 L 87.902344 81.472656 M 162.449219 30.132812 L 162.527344 30.132812 C 165.4375 30.132812 169.039062 31.195312 173.324219 33.324219 C 176.976562 35.128906 179.148438 36.539062 179.835938 37.546875 L 184.359375 43.367188 L 184.917969 44.003906 L 184.917969 44.085938 L 185.3125 44.484375 L 187.933594 47.273438 L 188.09375 47.273438 L 190.078125 49.503906 C 191.875 51.578125 193.277344 53.570312 194.285156 55.484375 L 195.792969 60.269531 L 190.554688 54.128906 C 189.8125 54.128906 189.441406 55.75 189.441406 58.992188 L 189.28125 58.992188 C 186.265625 52.613281 184.335938 49.425781 183.488281 49.425781 C 183.171875 49.425781 183.011719 49.746094 183.011719 50.382812 C 183.011719 51.125 183.859375 54.050781 185.550781 59.152344 C 186.453125 62.289062 186.820312 65.210938 186.664062 67.921875 L 186.503906 67.921875 C 184.96875 66.328125 183.699219 64.28125 182.695312 61.78125 L 180.074219 55.722656 C 177.425781 47.539062 175.335938 43.445312 173.800781 43.445312 C 173.429688 43.445312 173.191406 43.738281 173.085938 44.324219 L 173.085938 45.199219 C 173.085938 45.996094 173.667969 48.152344 174.832031 51.65625 L 174.832031 56.203125 C 171.921875 52.269531 170.308594 50.304688 169.992188 50.304688 C 169.621094 50.304688 169.433594 50.703125 169.433594 51.5 C 169.433594 53.675781 170.707031 57.636719 173.246094 63.375 L 173.167969 63.375 L 166.816406 58.355469 C 166.339844 58.355469 166.101562 58.566406 166.101562 58.992188 L 170.230469 66.804688 C 172.929688 72.121094 174.277344 76.398438 174.277344 79.640625 C 174.277344 83.996094 173.882812 88.035156 173.085938 91.757812 C 173.085938 92.183594 173.324219 92.421875 173.800781 92.472656 C 172.371094 95.980469 170.625 98.929688 168.5625 101.324219 L 168.484375 101.242188 L 170.625 96.859375 L 170.625 96.777344 C 171.101562 95.132812 171.578125 92.074219 172.054688 87.613281 C 172.054688 82.722656 171.207031 78.445312 169.515625 74.777344 L 167.054688 70.632812 L 167.292969 70.074219 L 166.023438 68.398438 L 165.703125 67.921875 C 163.480469 65.050781 162.050781 63.5625 161.417969 63.457031 L 161.894531 62.578125 L 160.859375 61.863281 C 159.800781 58.035156 158.957031 56.121094 158.320312 56.121094 L 157.6875 56.28125 L 157.6875 58.195312 C 159.910156 63.773438 161.019531 67.949219 161.019531 70.710938 C 161.019531 75.015625 160.597656 79.027344 159.75 82.75 L 159.671875 82.75 L 158.160156 71.828125 L 157.84375 70.152344 L 158.242188 69.753906 L 157.527344 68.878906 C 156.679688 64.945312 155.886719 62.5 155.144531 61.542969 L 155.066406 61.304688 C 154.21875 58.222656 152.871094 56.679688 151.015625 56.679688 C 150.382812 56.679688 149.507812 57.050781 148.398438 57.796875 L 151.652344 51.417969 C 152.234375 49.984375 153.476562 47.671875 155.382812 44.484375 C 157.660156 39.328125 160.09375 34.730469 162.6875 30.691406 L 162.449219 30.132812 "/>
<path style=" stroke:none;fill-rule:evenodd;fill:rgb(89.803922%,60.392159%,61.960787%);fill-opacity:1;" d="M 87.902344 81.472656 L 88.140625 81.394531 L 91.15625 77.964844 L 94.253906 75.335938 C 95.097656 75.335938 95.523438 80.863281 95.523438 91.917969 L 95.523438 91.996094 L 95.601562 91.996094 L 100.84375 85.699219 L 101.082031 85.777344 C 101.398438 85.832031 101.554688 86.070312 101.554688 86.496094 L 100.445312 87.851562 L 99.890625 89.84375 C 98.195312 92.925781 97.136719 95.503906 96.714844 97.578125 L 96.238281 99.648438 C 95.285156 102.785156 93.539062 107.277344 90.996094 113.121094 L 90.996094 113.203125 L 91.632812 113.839844 L 91.792969 113.839844 L 95.921875 110.808594 L 94.96875 112.164062 C 93.960938 113.652344 93.40625 114.847656 93.300781 115.753906 L 92.746094 119.5 C 91.898438 119.550781 90.679688 120.613281 89.09375 122.6875 L 89.886719 118.222656 C 90.308594 115.992188 90.519531 112.75 90.519531 108.496094 L 89.964844 99.648438 L 89.886719 97.179688 L 92.425781 85.539062 L 93.140625 83.625 C 93.140625 83.09375 92.929688 82.828125 92.507812 82.828125 L 92.269531 82.988281 L 92.1875 82.828125 C 91.765625 82.828125 91.316406 83.597656 90.839844 85.140625 L 90.519531 85.617188 C 89.304688 87.957031 88.140625 89.683594 87.027344 90.800781 L 84.566406 93.429688 L 84.882812 92.15625 L 87.582031 82.269531 L 87.582031 82.109375 L 87.902344 81.472656 M 101.476562 90.480469 L 102.113281 89.921875 C 102.960938 89.339844 103.671875 89.046875 104.257812 89.046875 L 105.527344 91.917969 L 107.828125 100.128906 C 107.828125 94.121094 108.382812 91.117188 109.496094 91.117188 L 109.65625 91.117188 C 110.078125 91.171875 110.238281 91.492188 110.128906 92.074219 L 110.128906 92.394531 C 111.1875 95.265625 111.984375 97.125 112.511719 97.976562 C 114.789062 102.015625 116.269531 104.457031 116.957031 105.308594 L 117.039062 105.390625 L 116.878906 106.027344 L 117.832031 113.121094 C 117.882812 113.867188 118.757812 116.285156 120.453125 120.375 C 120.929688 121.597656 122.332031 124.015625 124.660156 127.628906 C 126.566406 130.714844 127.675781 133.105469 127.992188 134.804688 C 122.753906 130.714844 119.15625 125.875 117.195312 120.296875 C 113.757812 110.625 111.824219 105.789062 111.402344 105.789062 C 111.082031 105.789062 110.925781 106.054688 110.925781 106.585938 C 110.925781 108.390625 112.804688 113.652344 116.5625 122.367188 L 117.832031 124.519531 L 117.753906 125.078125 L 118.148438 129.382812 L 118.546875 129.382812 L 118.230469 133.289062 C 117.964844 137.703125 117.539062 140.679688 116.957031 142.21875 C 116.269531 138.074219 115.6875 136 115.210938 136 C 114.894531 136 114.734375 136.480469 114.734375 137.4375 C 115.582031 143.601562 116.402344 146.683594 117.195312 146.683594 C 118.097656 146.683594 118.863281 141.5 119.5 131.136719 L 119.578125 129.941406 L 119.417969 128.027344 L 119.261719 126.832031 L 121.402344 130.261719 L 123.546875 132.972656 L 123.46875 133.132812 L 123.628906 133.050781 L 125.691406 135.042969 L 126.484375 135.761719 L 127.515625 136.878906 L 124.261719 137.515625 C 123.945312 134.59375 123.679688 133.132812 123.46875 133.132812 C 123.152344 133.132812 122.964844 133.6875 122.914062 134.804688 L 122.832031 136.238281 L 122.992188 139.191406 L 122.753906 139.667969 L 122.832031 140.304688 L 123.070312 140.144531 L 124.023438 149.710938 C 124.023438 151.730469 123.496094 154.789062 122.4375 158.878906 C 120.691406 153.832031 119.578125 151.308594 119.101562 151.308594 L 113.625 166.214844 L 112.828125 164.382812 C 111.347656 160.980469 110.394531 159.277344 109.972656 159.277344 L 109.65625 159.4375 C 109.070312 158.480469 108.726562 157.632812 108.621094 156.886719 L 108.464844 154.257812 C 108.304688 152.980469 107.882812 152.34375 107.191406 152.34375 C 106.769531 152.34375 106.558594 152.53125 106.558594 152.902344 C 106.980469 157.3125 107.75 160.101562 108.859375 161.273438 L 107.75 167.332031 L 107.113281 173.546875 L 105.367188 169.722656 C 103.410156 165.734375 102.429688 161.804688 102.429688 157.921875 L 102.828125 155.214844 L 102.507812 155.132812 L 102.589844 154.816406 C 102.589844 154.285156 102.351562 154.015625 101.875 154.015625 L 101.554688 154.175781 C 100.972656 154.496094 100.179688 155.585938 99.175781 157.445312 L 99.09375 157.445312 L 98.777344 154.417969 C 98.777344 152.398438 99.308594 150.644531 100.367188 149.15625 C 101.054688 148.199219 101.503906 147.320312 101.714844 146.523438 L 101.953125 146.523438 L 110.128906 139.269531 C 110.128906 138.792969 109.894531 138.550781 109.417969 138.550781 C 108.78125 138.550781 107.273438 139.695312 104.890625 141.980469 L 103.699219 143.097656 L 106.957031 134.328125 C 109.761719 126.300781 111.164062 121.039062 111.164062 118.542969 C 111.320312 117.90625 111.109375 117.585938 110.527344 117.585938 C 110 117.585938 109.308594 119.417969 108.464844 123.085938 L 106.480469 131.378906 L 101.636719 143.8125 L 100.128906 133.769531 L 99.890625 132.09375 L 99.492188 132.492188 L 99.414062 132.492188 L 99.890625 130.261719 L 102.351562 124.28125 L 104.574219 118.222656 L 108.542969 111.925781 C 108.542969 111.5 108.304688 111.289062 107.828125 111.289062 C 106.136719 111.289062 103.355469 116.628906 99.492188 127.3125 C 99.597656 124.921875 99.308594 122.582031 98.621094 120.296875 C 97.878906 117.90625 97.507812 115.886719 97.507812 114.238281 L 97.90625 111.6875 C 97.90625 111.316406 97.773438 111.101562 97.507812 111.050781 L 98.0625 110.011719 L 99.015625 108.179688 L 99.652344 107.382812 L 99.570312 106.902344 L 101.082031 103.15625 L 102.429688 99.648438 C 103.222656 97.523438 103.621094 96.140625 103.621094 95.503906 C 103.621094 95.023438 103.410156 94.785156 102.984375 94.785156 C 102.613281 94.785156 101.792969 96.40625 100.523438 99.648438 L 97.585938 107.699219 C 96 108.816406 94.730469 109.800781 93.777344 110.648438 L 94.808594 107.859375 C 95.972656 104.777344 96.871094 102.039062 97.507812 99.648438 L 97.746094 98.53125 L 101.082031 91.359375 L 101 91.039062 L 101.476562 90.480469 M 110.605469 88.011719 L 110.449219 87.453125 L 111.640625 83.945312 C 112.273438 83.945312 112.828125 84.289062 113.304688 84.980469 L 113.78125 86.015625 L 113.386719 86.65625 C 113.597656 90.164062 114.207031 93.003906 115.210938 95.183594 L 123.628906 110.09375 C 120.609375 107.699219 117.25 103.128906 113.542969 96.378906 L 110.6875 88.566406 L 110.605469 88.488281 L 110.605469 88.011719 M 129.820312 56.917969 L 130.136719 56.28125 L 130.136719 49.664062 C 132.464844 43.605469 133.894531 40.179688 134.425781 39.382812 L 144.585938 29.734375 L 145.0625 29.257812 C 145.539062 29.257812 145.777344 29.523438 145.777344 30.054688 L 145.777344 30.132812 L 145.855469 30.054688 L 150.539062 31.648438 L 151.015625 31.648438 L 151.015625 31.726562 L 151.175781 31.648438 L 151.652344 31.570312 L 151.890625 31.570312 L 153 30.929688 L 161.417969 30.132812 L 161.8125 29.972656 L 162.449219 30.132812 L 162.6875 30.691406 C 160.09375 34.730469 157.660156 39.328125 155.382812 44.484375 C 153.476562 47.671875 152.234375 49.984375 151.652344 51.417969 L 148.398438 57.796875 L 147.921875 58.273438 L 147.761719 58.195312 L 145.777344 59.710938 C 143.554688 61.570312 142.070312 63.03125 141.332031 64.09375 C 140.90625 64.730469 140.246094 66.140625 139.347656 68.320312 L 139.503906 61.941406 C 139.503906 61.515625 140.378906 58.566406 142.125 53.09375 C 142.65625 51.339844 143.898438 48.417969 145.855469 44.324219 C 146.648438 42.570312 148.449219 39.621094 151.253906 35.476562 L 150.539062 34.757812 C 149.058594 34.757812 146.570312 38.796875 143.078125 46.875 C 139.585938 54.898438 137.890625 60.375 137.996094 63.296875 L 137.996094 70.152344 C 137.574219 68.558594 136.59375 66.59375 135.058594 64.253906 L 132.757812 59.871094 C 132.121094 58.859375 131.40625 58.089844 130.613281 57.558594 L 130.453125 57.558594 C 130.136719 57.558594 129.953125 57.425781 129.898438 57.160156 L 129.820312 56.917969 M 195.792969 60.269531 L 196.429688 61.066406 L 196.03125 61.703125 L 196.746094 64.972656 L 197.0625 64.890625 C 197.539062 66.273438 199.628906 68.824219 203.335938 72.542969 C 201.058594 71.003906 199.128906 70.234375 197.539062 70.234375 C 197.167969 70.234375 196.984375 70.472656 196.984375 70.949219 L 198.332031 73.660156 L 198.175781 73.742188 L 198.652344 74.855469 C 199.816406 78.152344 201.296875 81.019531 203.097656 83.464844 L 203.652344 84.183594 L 203.652344 84.34375 L 203.730469 84.34375 C 208.8125 90.507812 212.597656 96.671875 215.085938 102.835938 C 212.597656 100.976562 210.53125 100.046875 208.890625 100.046875 L 208.417969 97.976562 C 207.992188 97.976562 207.726562 99.332031 207.621094 102.039062 L 207.621094 113.121094 C 207.621094 114.503906 208.070312 116.761719 208.972656 119.898438 C 206.589844 117.507812 205.398438 115.753906 205.398438 114.636719 L 205.003906 110.011719 L 205.242188 105.707031 C 205.398438 104.273438 205.1875 103.554688 204.605469 103.554688 L 202.9375 115.511719 L 202.460938 118.144531 L 202.78125 118.304688 L 201.269531 125.957031 C 200.636719 127.710938 200.476562 130.632812 200.792969 134.726562 L 200.714844 134.726562 C 200.027344 133.664062 199.605469 132.414062 199.445312 130.980469 L 199.523438 130.738281 L 199.367188 130.738281 L 199.285156 129.144531 C 200.449219 124.363281 201.085938 120.640625 201.191406 117.984375 L 201.191406 117.109375 C 201.351562 116.574219 201.21875 116.285156 200.792969 116.230469 L 200.875 112.324219 C 200.875 109.71875 200.769531 108.019531 200.554688 107.222656 L 199.128906 99.886719 C 197.804688 91.597656 196.878906 87.453125 196.347656 87.453125 C 195.925781 87.453125 195.714844 87.691406 195.714844 88.167969 C 195.714844 89.179688 196.429688 93.191406 197.855469 100.207031 C 198.96875 105.734375 199.523438 109.746094 199.523438 112.246094 L 199.367188 119.019531 L 199.523438 119.101562 L 198.890625 122.609375 C 198.308594 126.328125 198.015625 128.558594 198.015625 129.304688 L 198.175781 130.261719 L 198.253906 130.738281 L 194.207031 139.429688 L 190.234375 144.851562 L 187.457031 149.15625 L 188.011719 144.210938 L 187.378906 146.203125 L 185.550781 131.296875 L 185.15625 132.8125 L 184.597656 138.234375 L 184.996094 140.464844 L 185.550781 145.648438 L 185.074219 145.328125 L 183.011719 140.945312 C 182.003906 138.179688 181.503906 136.320312 181.503906 135.363281 L 182.375 124.441406 C 182.535156 123.378906 182.296875 122.847656 181.660156 122.847656 C 181.078125 122.847656 180.65625 124.945312 180.390625 129.144531 C 180.234375 131.269531 180.152344 133.371094 180.152344 135.441406 L 180.152344 135.601562 C 179.042969 135.601562 177.480469 137.808594 175.46875 142.21875 L 169.910156 153.300781 L 169.832031 153.21875 C 170.203125 152.210938 170.386719 150.75 170.386719 148.835938 C 170.335938 146.761719 170.414062 145.328125 170.625 144.53125 L 172.054688 139.667969 C 172.425781 138.550781 172.609375 137.222656 172.609375 135.683594 C 172.769531 134.726562 172.53125 134.246094 171.898438 134.246094 L 169.117188 146.046875 L 168.800781 151.945312 C 168.589844 153.273438 167.847656 155.238281 166.578125 157.84375 C 166.578125 158.269531 166.816406 158.480469 167.292969 158.480469 C 169.410156 158.480469 171.816406 154.789062 174.515625 147.402344 C 175.417969 144.851562 176.792969 142.246094 178.644531 139.589844 L 180.390625 137.355469 L 181.660156 141.101562 L 182.613281 144.210938 C 183.195312 145.859375 183.882812 146.683594 184.679688 146.683594 L 185.632812 146.683594 L 185.710938 147.800781 C 184.597656 148.332031 183.671875 149.953125 182.933594 152.664062 L 181.265625 159.835938 L 178.484375 165.578125 C 177.585938 167.4375 176.949219 168.976562 176.582031 170.199219 L 176.261719 166.773438 L 176.582031 160.476562 C 176.582031 160.050781 176.34375 159.835938 175.867188 159.835938 C 175.546875 159.835938 174.277344 162.628906 172.054688 168.207031 C 171.632812 169.164062 169.9375 170.464844 166.972656 172.113281 C 163.957031 173.761719 161.230469 174.824219 158.796875 175.300781 L 158.796875 172.035156 L 160.148438 167.410156 C 161.207031 167.199219 163.90625 166.136719 168.246094 164.222656 C 171.578125 162.785156 173.246094 161.539062 173.246094 160.476562 C 173.246094 160.050781 173.035156 159.835938 172.609375 159.835938 L 165.625 163.742188 L 161.417969 165.097656 L 159.589844 165.894531 L 159.351562 165.894531 L 152.761719 171.394531 C 152.976562 169.695312 153.503906 167.996094 154.351562 166.292969 L 158.242188 160.15625 C 159.140625 159.570312 160.730469 156.328125 163.003906 150.429688 L 162.925781 149.871094 L 162.371094 149.710938 C 161.523438 149.710938 160.941406 150.324219 160.625 151.546875 L 159.828125 154.65625 L 158.242188 157.683594 L 158.160156 157.683594 C 158.109375 157.683594 156.019531 158.613281 151.890625 160.476562 C 153.425781 156.328125 156.152344 151.785156 160.066406 146.84375 C 162.925781 143.230469 164.355469 139.402344 164.355469 135.363281 L 164.273438 134.964844 L 166.496094 132.652344 L 167.132812 132.015625 L 167.292969 132.972656 L 168.324219 130.980469 L 168.246094 130.820312 L 168.800781 130.101562 L 172.214844 125.476562 L 173.484375 122.527344 L 173.882812 121.730469 L 173.722656 123.085938 L 174.992188 121.492188 L 175.785156 120.773438 L 176.105469 117.824219 L 175.945312 117.347656 C 179.066406 110.542969 180.628906 106.851562 180.628906 106.265625 C 180.628906 105.839844 180.417969 105.628906 179.996094 105.628906 C 179.359375 105.628906 178.484375 107.0625 177.375 109.933594 L 173.5625 119.339844 C 171.183594 124.335938 168.085938 128.878906 164.273438 132.972656 L 168.878906 126.355469 C 170.996094 122.792969 172.054688 120.535156 172.054688 119.578125 L 172.054688 119.261719 C 173.0625 117.242188 173.960938 112.9375 174.753906 106.34375 L 176.183594 96.378906 L 176.261719 96.378906 L 176.183594 96.222656 L 176.183594 96.140625 L 176.738281 91.835938 C 176.84375 91.144531 176.6875 90.773438 176.261719 90.71875 L 177.851562 86.496094 C 178.75 84.050781 179.199219 81.554688 179.199219 79 C 179.199219 78.523438 178.988281 78.285156 178.566406 78.285156 C 178.089844 78.285156 177.746094 79.054688 177.535156 80.597656 L 177.058594 83.945312 L 175.070312 88.964844 C 174.753906 91.304688 174.359375 92.472656 173.882812 92.472656 L 173.800781 92.472656 C 173.324219 92.421875 173.085938 92.183594 173.085938 91.757812 C 173.882812 88.035156 174.277344 83.996094 174.277344 79.640625 C 174.277344 76.398438 172.929688 72.121094 170.230469 66.804688 L 166.101562 58.992188 C 166.101562 58.566406 166.339844 58.355469 166.816406 58.355469 L 173.167969 63.375 L 173.246094 63.375 C 170.707031 57.636719 169.433594 53.675781 169.433594 51.5 C 169.433594 50.703125 169.621094 50.304688 169.992188 50.304688 C 170.308594 50.304688 171.921875 52.269531 174.832031 56.203125 L 174.832031 51.65625 C 173.667969 48.152344 173.085938 45.996094 173.085938 45.199219 L 173.085938 44.324219 C 173.191406 43.738281 173.429688 43.445312 173.800781 43.445312 C 175.335938 43.445312 177.425781 47.539062 180.074219 55.722656 L 182.695312 61.78125 C 183.699219 64.28125 184.96875 66.328125 186.503906 67.921875 L 186.664062 68 L 186.664062 67.921875 C 186.820312 65.210938 186.453125 62.289062 185.550781 59.152344 C 183.859375 54.050781 183.011719 51.125 183.011719 50.382812 C 183.011719 49.746094 183.171875 49.425781 183.488281 49.425781 C 184.335938 49.425781 186.265625 52.613281 189.28125 58.992188 L 189.441406 58.992188 C 189.441406 55.75 189.8125 54.128906 190.554688 54.128906 L 195.792969 60.269531 M 186.503906 89.523438 L 186.425781 89.523438 L 186.503906 89.605469 L 186.503906 89.523438 M 192.457031 94.785156 C 192.457031 94.359375 192.246094 94.148438 191.824219 94.148438 C 190.921875 94.148438 190.367188 95.050781 190.15625 96.859375 L 190.15625 99.570312 C 190.15625 101.429688 190.632812 103.769531 191.585938 106.585938 C 192.484375 109.402344 192.933594 112.75 192.933594 116.628906 C 192.933594 120.722656 192.511719 123.035156 191.664062 123.566406 C 191.453125 121.597656 190.632812 119.179688 189.203125 116.308594 L 185.789062 109.453125 C 185.15625 107.964844 184.679688 105.070312 184.359375 100.765625 C 184.042969 97.152344 183.644531 95.34375 183.171875 95.34375 C 182.851562 95.34375 182.695312 95.769531 182.695312 96.621094 L 183.011719 103.714844 C 183.0625 104.832031 183.699219 107.195312 184.917969 110.808594 L 187.933594 117.347656 C 189.785156 121.386719 190.710938 124.015625 190.710938 125.238281 L 190.472656 126.753906 L 191.109375 126.992188 C 192.855469 124.65625 193.835938 122.925781 194.046875 121.8125 L 194.207031 116.550781 C 194.207031 112.296875 193.753906 108.789062 192.855469 106.027344 C 191.902344 103.261719 191.425781 101.136719 191.425781 99.648438 L 192.457031 94.785156 M 203.097656 83.464844 L 203.015625 83.464844 L 203.097656 83.464844 M 146.09375 60.746094 C 147.578125 59.46875 148.875 58.648438 149.984375 58.273438 C 148.925781 58.914062 147.550781 60.320312 145.855469 62.5 C 143.367188 65.6875 142.125 68.292969 142.125 70.3125 L 142.125 70.472656 L 139.585938 71.746094 L 142.046875 65.371094 C 142.945312 63.882812 144.296875 62.339844 146.09375 60.746094 M 149.03125 65.371094 L 149.746094 63.773438 C 150.011719 63.191406 150.515625 62.710938 151.253906 62.339844 L 153.636719 60.347656 L 153.953125 61.304688 L 153.875 61.78125 L 153.953125 62.5 C 153.214844 62.605469 152.261719 63.773438 151.097656 66.007812 L 149.429688 69.515625 L 147.125 70.3125 L 149.03125 65.371094 M 151.652344 58.671875 L 151.492188 58.117188 C 152.074219 58.167969 152.578125 58.488281 153 59.070312 C 151.941406 59.230469 150.515625 60.585938 148.714844 63.136719 C 147.019531 65.476562 146.042969 67.546875 145.777344 69.355469 L 145.0625 69.035156 L 143.316406 69.914062 L 145.777344 64.730469 C 146.09375 63.988281 147.179688 62.820312 149.03125 61.222656 L 151.652344 58.671875 M 151.890625 69.992188 L 151.8125 69.835938 C 152.074219 69.25 151.863281 68.929688 151.175781 68.878906 L 151.890625 67.125 L 154.429688 64.09375 L 154.75 64.972656 C 154.21875 65.078125 153.714844 65.847656 153.238281 67.28125 L 152.605469 69.675781 L 151.890625 69.992188 M 165.386719 69.992188 L 165.863281 70.390625 L 167.449219 73.183594 L 164.910156 72.464844 C 165.28125 71.5625 165.121094 71.003906 164.433594 70.789062 L 165.386719 69.992188 M 155.066406 66.644531 L 155.382812 66.328125 L 156.257812 68.238281 L 155.859375 68.160156 L 154.429688 68.878906 L 154.429688 68.238281 C 154.429688 67.601562 154.640625 67.070312 155.066406 66.644531 M 162.289062 70.789062 L 162.289062 69.753906 L 161.8125 68.082031 L 161.417969 65.371094 L 163.085938 67.441406 L 164.355469 68.957031 L 162.925781 70.710938 L 162.371094 70.871094 L 162.289062 70.789062 M 118.785156 70.550781 L 119.5 68.796875 L 120.054688 67.363281 C 120.425781 67.679688 121.191406 68.214844 122.355469 68.957031 C 122.144531 69.328125 122.039062 70.101562 122.039062 71.269531 L 118.941406 70.632812 L 118.785156 70.550781 M 119.339844 74.21875 L 118.308594 73.820312 L 118.625 71.585938 L 119.5 71.828125 L 119.339844 72.625 L 119.339844 74.21875 M 126.328125 58.433594 L 127.914062 58.195312 C 129.609375 58.195312 131.617188 60.613281 133.949219 65.449219 L 136.886719 71.269531 L 135.613281 70.472656 L 134.027344 69.515625 C 133.761719 68.082031 132.625 66.351562 130.613281 64.332031 L 124.898438 59.390625 L 126.328125 58.433594 M 126.644531 66.882812 L 127.914062 68.71875 C 127.597656 68.878906 127.410156 69.300781 127.359375 69.992188 L 127.4375 71.988281 L 125.851562 70.871094 C 124.101562 67.789062 122.515625 66.246094 121.085938 66.246094 L 120.53125 66.328125 L 121.722656 63.535156 L 126.644531 66.882812 M 123.46875 60.507812 L 126.40625 61.941406 L 129.183594 64.972656 L 132.203125 69.277344 L 131.964844 69.914062 L 131.964844 71.347656 L 129.820312 69.675781 C 127.386719 65.050781 124.949219 62.527344 122.515625 62.101562 L 123.46875 60.507812 M 99.253906 134.085938 L 99.253906 135.125 L 99.730469 140.226562 L 87.503906 152.582031 C 90.257812 143.546875 91.632812 138.234375 91.632812 136.640625 L 91.632812 136.558594 L 91.792969 136.398438 L 91.792969 134.167969 L 93.457031 122.050781 C 94.09375 119.871094 94.410156 118.277344 94.410156 117.265625 C 94.464844 116.257812 94.886719 115.089844 95.683594 113.757812 L 96.15625 113.121094 L 96.238281 114.078125 C 96.238281 116.152344 96.582031 118.25 97.269531 120.375 C 97.90625 122.449219 98.222656 125.027344 98.222656 128.109375 C 98.222656 129.863281 97.851562 132.042969 97.109375 134.644531 C 97.003906 135.65625 97.214844 136.160156 97.746094 136.160156 L 98.699219 135.285156 L 99.015625 134.40625 L 99.09375 134.085938 L 99.253906 134.085938 M 168.324219 123.804688 L 168.246094 123.722656 L 168.5625 121.332031 L 168.640625 121.09375 L 169.910156 118.382812 L 171.101562 117.347656 L 169.910156 119.898438 L 169.992188 120.296875 L 169.195312 121.890625 L 168.324219 123.804688 M 128.230469 122.449219 C 128.019531 122.875 127.886719 123.484375 127.835938 124.28125 L 127.835938 128.667969 C 127.941406 129.730469 128.179688 130.261719 128.550781 130.261719 L 129.582031 123.324219 L 132.996094 125.476562 C 132.625 126.328125 132.308594 128.136719 132.042969 130.898438 C 132.042969 133.132812 131.511719 134.992188 130.453125 136.480469 L 122.355469 121.253906 L 120.214844 116.152344 L 124.976562 120.136719 L 128.230469 122.449219 M 110.527344 131.933594 L 109.894531 133.769531 C 109.894531 135.042969 110.078125 136.132812 110.449219 137.039062 C 110.820312 137.886719 110.976562 139.429688 110.925781 141.660156 L 110.925781 149.554688 L 109.335938 145.25 C 108.597656 143.28125 107.960938 142.296875 107.429688 142.296875 C 106.957031 142.296875 106.71875 142.484375 106.71875 142.855469 C 109.523438 150.246094 111.242188 153.9375 111.878906 153.9375 C 112.40625 153.9375 112.617188 153.351562 112.511719 152.183594 L 112.273438 142.058594 C 111.957031 135.308594 111.375 131.933594 110.527344 131.933594 M 100.046875 141.898438 L 100.367188 143.574219 L 100.605469 145.089844 L 100.128906 146.523438 L 100.046875 145.886719 C 99.253906 146.523438 98.777344 147.027344 98.621094 147.402344 L 97.03125 148.4375 L 97.191406 147.800781 L 97.746094 144.769531 L 97.585938 144.453125 L 100.046875 141.898438 "/>
</g>
</svg>
