<?xml version="1.0" encoding="UTF-8"?>
<svg xmlns="http://www.w3.org/2000/svg" xmlns:xlink="http://www.w3.org/1999/xlink" width="296px" height="318px" viewBox="0 0 296 318" version="1.1">
<g id="surface1">
<path style=" stroke:none;fill-rule:evenodd;fill:rgb(0%,0%,0%);fill-opacity:1;" d="M 172.769531 107.460938 L 171.816406 112.882812 L 171.101562 117.585938 L 171.101562 117.90625 L 170.945312 118.222656 L 168.085938 132.972656 L 166.65625 138.550781 L 168.960938 132.253906 L 171.023438 126.195312 C 172.347656 122.632812 173.40625 120.855469 174.199219 120.855469 L 174.4375 120.855469 L 174.199219 117.984375 L 174.199219 117.425781 C 174.304688 117 174.570312 116.789062 174.992188 116.789062 C 175.945312 116.789062 176.421875 122.660156 176.421875 134.40625 L 176.421875 143.015625 C 176.898438 143.015625 177.136719 143.28125 177.136719 143.8125 C 177.136719 144.984375 174.808594 151.917969 170.148438 164.621094 C 169.304688 168.765625 168.140625 172.9375 166.65625 177.136719 L 172.132812 169.085938 C 173.667969 166.746094 175.867188 161.644531 178.722656 153.777344 L 182.21875 144.292969 L 182.296875 144.453125 L 182.375 144.292969 L 183.011719 141.898438 L 183.726562 135.839844 L 184.996094 123.644531 L 186.027344 108.257812 L 186.105469 107.222656 L 186.105469 106.902344 C 186.476562 101.855469 186.742188 99.332031 186.902344 99.332031 C 187.695312 99.332031 187.984375 100.976562 187.773438 104.273438 L 187.773438 104.910156 L 187.617188 104.589844 L 187.296875 104.988281 L 187.695312 105.628906 C 187.058594 125.769531 185.976562 138.898438 184.441406 145.007812 L 185.074219 144.929688 C 186.503906 144.929688 188.144531 145.433594 189.996094 146.445312 L 190.234375 146.363281 C 191.558594 146.363281 193.304688 147.507812 195.476562 149.792969 C 195.632812 145.433594 195.449219 142.21875 194.917969 140.144531 L 192.300781 128.828125 C 192.300781 128.082031 192.566406 127.710938 193.09375 127.710938 C 193.835938 127.710938 194.734375 130.714844 195.792969 136.71875 L 197.0625 145.804688 L 196.90625 151.386719 C 199.179688 154.042969 201.851562 157.765625 204.921875 162.546875 C 204.234375 159.835938 203.519531 155.480469 202.78125 149.472656 L 199.683594 123.167969 L 197.617188 108.816406 L 197.777344 108.339844 L 197.539062 107.859375 L 193.886719 82.351562 L 193.410156 82.351562 C 193.253906 77.992188 192.882812 74.644531 192.300781 72.304688 C 191.980469 70.921875 191.851562 68.292969 191.902344 64.414062 C 191.957031 60.957031 191.636719 58.300781 190.949219 56.441406 C 189.414062 52.136719 186.769531 47.964844 183.011719 43.925781 L 180.46875 41.292969 C 171.632812 32.84375 160.4375 28.566406 146.886719 28.460938 L 146.414062 28.460938 L 146.175781 28.140625 L 134.1875 32.765625 L 122.277344 41.136719 C 119.683594 42.730469 117.621094 44.617188 116.085938 46.796875 L 115.609375 46.316406 L 112.511719 49.746094 C 109.335938 53.675781 107.21875 58.167969 106.160156 63.21875 L 102.984375 75.335938 L 102.351562 77.726562 L 102.269531 78.203125 L 102.269531 80.355469 L 101.953125 79.878906 L 98.699219 89.84375 L 97.191406 93.988281 L 96.316406 96.859375 L 96 96.859375 L 95.839844 97.578125 L 95.921875 98.375 L 95.207031 102.359375 L 94.171875 110.730469 L 92.585938 119.738281 L 91.472656 125.558594 L 89.726562 133.609375 C 89.410156 134.140625 89.199219 134.859375 89.09375 135.761719 L 89.09375 138.472656 L 87.664062 144.453125 L 87.265625 145.726562 L 87.1875 146.84375 L 82.027344 163.105469 L 86.550781 157.765625 C 91.6875 151.8125 94.625 148.835938 95.363281 148.835938 L 95.921875 149.472656 L 95.839844 148.835938 L 94.410156 138.792969 L 93.933594 136.558594 L 93.933594 134.40625 L 93.777344 133.6875 L 93.933594 124.121094 L 93.539062 123.722656 L 97.191406 107.621094 L 97.746094 105.707031 L 99.015625 102.519531 C 99.808594 102.09375 100.734375 99.886719 101.792969 95.902344 L 101.792969 95.742188 L 101.953125 94.625 L 101.953125 94.070312 L 102.191406 93.589844 L 102.113281 93.351562 L 102.191406 92.554688 L 102.191406 93.589844 L 102.589844 92.871094 L 102.746094 91.359375 L 108.703125 74.617188 C 112.828125 63.617188 115.160156 58.117188 115.6875 58.117188 C 116.269531 58.117188 116.5625 58.40625 116.5625 58.992188 C 110.105469 74.828125 106.109375 85.804688 104.574219 91.917969 L 104.492188 93.273438 C 104.492188 94.546875 104.125 95.796875 103.382812 97.019531 L 100.523438 112.085938 L 100.523438 112.164062 L 98.460938 123.964844 L 98.699219 123.964844 C 98.75 129.4375 98.964844 133.769531 99.332031 136.957031 L 99.570312 137.753906 L 99.570312 139.03125 L 100.285156 142.140625 L 103.859375 152.820312 L 105.289062 156.171875 L 105.128906 149.074219 L 103.9375 133.609375 C 103.9375 132.917969 104.203125 132.574219 104.730469 132.574219 C 105.472656 132.574219 106.003906 134.378906 106.320312 137.992188 L 109.179688 124.839844 L 110.84375 114.875 L 114.179688 104.988281 C 115.875 100.101562 117.804688 94.917969 119.976562 89.445312 L 120.214844 89.445312 L 120.371094 89.207031 L 120.132812 89.046875 L 123.390625 80.835938 C 125.347656 76.160156 126.933594 72.570312 128.152344 70.074219 C 129.527344 67.203125 130.453125 65.769531 130.929688 65.769531 L 131.328125 65.847656 C 131.433594 65.6875 131.59375 65.609375 131.804688 65.609375 C 132.28125 65.609375 132.996094 69.886719 133.949219 78.445312 L 133.710938 78.445312 L 133.710938 78.523438 L 136.25 87.210938 C 138.472656 94.492188 140.246094 99.621094 141.570312 102.597656 C 143.316406 106.53125 146.730469 112.617188 151.8125 120.855469 L 151.890625 120.933594 L 152.84375 122.449219 L 152.285156 120.613281 L 152.207031 120.214844 C 152.367188 118.726562 151.890625 116.867188 150.777344 114.636719 L 148.792969 105.945312 L 146.175781 94.945312 C 145.378906 91.226562 144.984375 87.53125 144.984375 83.863281 L 144.984375 79.71875 L 144.269531 79.71875 L 147.761719 69.277344 L 147.601562 69.195312 L 147.601562 67.921875 L 149.03125 64.332031 L 149.507812 63.375 L 151.335938 61.703125 C 151.757812 61.808594 151.917969 62.101562 151.8125 62.578125 C 152.445312 63.164062 153.320312 64.359375 154.429688 66.167969 C 156.019531 68.71875 157.15625 70.898438 157.84375 72.703125 L 158.242188 73.660156 L 162.527344 82.988281 C 166.761719 90.585938 169.804688 97.363281 171.660156 103.316406 L 173.246094 93.988281 C 173.988281 93.988281 174.25 95.316406 174.039062 97.976562 L 172.769531 107.382812 L 172.769531 107.460938 M 147.601562 26.308594 C 152.894531 26.308594 159.484375 27.953125 167.371094 31.25 C 174.78125 34.386719 179.359375 37.121094 181.105469 39.460938 L 183.011719 41.691406 L 188.964844 47.59375 L 192.539062 55.804688 C 193.386719 57.769531 193.808594 60.480469 193.808594 63.933594 C 193.753906 68.292969 193.835938 71.054688 194.046875 72.226562 C 194.417969 74.03125 194.679688 76.53125 194.839844 79.71875 C 195.632812 80.199219 196.667969 85.511719 197.9375 95.664062 L 201.113281 122.050781 L 207.304688 164.621094 L 206.90625 165.734375 L 207.066406 166.054688 C 207.066406 166.640625 206.773438 166.933594 206.191406 166.933594 C 205.875 166.933594 203.46875 163.609375 198.96875 156.96875 C 197.804688 155.371094 195.820312 153.328125 193.015625 150.828125 L 191.585938 149.554688 C 190.101562 148.597656 188.542969 147.824219 186.902344 147.242188 L 184.121094 146.125 C 183.59375 147.71875 183.039062 148.648438 182.457031 148.914062 L 179.914062 155.214844 C 176.632812 163.609375 174.4375 168.632812 173.324219 170.28125 C 168.507812 177.722656 165.253906 182.371094 163.558594 184.230469 L 162.371094 185.109375 L 161.972656 185.027344 L 161.574219 184.867188 L 161.574219 184.070312 C 165.386719 174.347656 167.792969 167.515625 168.800781 163.582031 C 171.445312 153.699219 173.511719 147.375 174.992188 144.609375 L 174.753906 144.53125 L 174.753906 142.21875 L 168.878906 137.675781 L 165.863281 145.167969 C 160.09375 160.316406 156.574219 167.890625 155.304688 167.890625 C 154.933594 167.890625 154.695312 167.78125 154.589844 167.570312 C 154.21875 167.464844 154.035156 167.222656 154.035156 166.851562 L 159.511719 154.335938 C 163.480469 145.140625 166.074219 137.144531 167.292969 130.339844 L 167.53125 129.226562 L 167.371094 129.226562 L 166.578125 128.984375 C 165.996094 125.902344 165.703125 123.722656 165.703125 122.449219 L 165.703125 121.253906 C 165.863281 120.5625 166.207031 120.191406 166.734375 120.136719 L 167.769531 118.703125 C 168.402344 118.011719 168.960938 117.558594 169.433594 117.347656 L 171.101562 106.742188 L 171.023438 106.824219 L 170.148438 104.035156 C 169.25 100.527344 168.007812 97.042969 166.417969 93.589844 C 164.195312 88.699219 162.34375 85.324219 160.859375 83.464844 C 159.75 82.03125 158.875 80.382812 158.242188 78.523438 L 158.082031 78.046875 L 156.335938 73.183594 C 153.636719 69.144531 151.835938 66.273438 150.9375 64.574219 L 149.984375 66.484375 L 149.90625 66.882812 C 148.636719 70.605469 147.550781 74.246094 146.648438 77.804688 C 146.914062 79.71875 146.886719 83.386719 146.570312 88.808594 C 146.625 89.65625 147.65625 93.855469 149.667969 101.402344 L 152.285156 113.839844 L 155.9375 126.273438 L 155.859375 127.3125 L 156.175781 127.789062 L 156.097656 128.425781 C 156.097656 128.585938 155.914062 128.667969 155.542969 128.667969 C 154.535156 128.667969 152.15625 125.503906 148.398438 119.179688 C 144.746094 113.121094 141.992188 107.859375 140.140625 103.394531 C 135.113281 91.703125 132.570312 83.386719 132.519531 78.445312 L 132.042969 78.445312 L 131.167969 68.636719 L 128.152344 75.414062 C 122.382812 88.59375 118.308594 98.558594 115.925781 105.308594 L 122.832031 115.273438 C 125.375 118.726562 128.707031 121.890625 132.835938 124.761719 L 132.996094 124.679688 L 133.710938 125.398438 L 133.710938 126.035156 L 132.597656 131.378906 L 132.441406 135.203125 L 132.597656 135.839844 L 132.121094 136.398438 L 131.804688 136.640625 L 131.726562 136.640625 C 130.402344 137.4375 127.515625 138.683594 123.070312 140.386719 C 116.5625 142.9375 112.167969 144.210938 109.894531 144.210938 L 106.875 143.972656 L 106.636719 144.53125 L 106.636719 147.320312 C 106.636719 150.402344 106.929688 155.292969 107.511719 161.988281 L 107.75 163.503906 C 107.75 164.25 107.457031 164.621094 106.875 164.621094 L 106.796875 164.621094 L 106.320312 164.140625 C 105.472656 163.132812 104.257812 160.476562 102.667969 156.171875 L 99.730469 147.402344 L 99.175781 147.558594 L 98.855469 152.421875 L 99.175781 153.777344 C 99.175781 154.894531 98.910156 155.453125 98.382812 155.453125 C 97.585938 155.453125 96.820312 153.726562 96.078125 150.269531 L 87.742188 159.039062 L 80.199219 168.128906 L 79.804688 168.605469 C 79.222656 168.605469 78.929688 168.234375 78.929688 167.488281 L 78.929688 167.332031 L 79.011719 167.171875 L 80.4375 162.386719 L 82.980469 155.691406 L 85.597656 146.605469 L 85.679688 145.566406 C 85.414062 145.355469 85.359375 144.929688 85.519531 144.292969 L 85.835938 143.652344 L 85.519531 143.015625 C 89.226562 126.699219 91.605469 115.488281 92.664062 109.375 C 95.523438 91.675781 97.984375 81.046875 100.046875 77.488281 C 105.605469 55.695312 110.820312 44.617188 115.6875 44.246094 L 117.992188 41.851562 C 120.265625 39.726562 124.316406 36.910156 130.136719 33.402344 L 136.804688 29.734375 C 140.617188 27.820312 143.738281 26.785156 146.175781 26.625 L 147.601562 26.308594 M 167.292969 121.8125 L 167.210938 121.8125 L 167.210938 121.890625 L 168.085938 125.796875 L 168.960938 120.296875 L 167.292969 121.8125 M 107.589844 142.457031 L 114.734375 141.582031 C 116.113281 140.785156 118.097656 140.09375 120.691406 139.507812 L 131.089844 135.285156 L 131.089844 130.101562 L 132.121094 126.117188 C 130.796875 125.691406 129.050781 124.386719 126.882812 122.210938 L 121.640625 116.550781 C 118.097656 113.09375 115.898438 110.25 115.054688 108.019531 C 113.886719 112.164062 112.246094 119.683594 110.128906 130.582031 C 109.125 135.949219 108.226562 139.90625 107.429688 142.457031 L 107.589844 142.457031 M 174.597656 122.925781 L 169.515625 136.160156 C 170.625 136.425781 172.371094 137.703125 174.753906 139.988281 L 174.753906 125.160156 L 174.597656 122.925781 M 166.496094 262.195312 C 165.914062 270.167969 165.253906 275.507812 164.511719 278.21875 L 167.371094 283.320312 C 169.753906 275.933594 171.074219 270.886719 171.339844 268.175781 C 171.339844 265.730469 171.632812 262.460938 172.214844 258.371094 C 172.796875 253.90625 173.378906 251.671875 173.960938 251.671875 C 174.4375 251.671875 174.675781 252.046875 174.675781 252.789062 L 173.960938 260.921875 C 174.542969 262.410156 175.734375 270.539062 177.535156 285.316406 C 178.589844 282.605469 179.675781 276.917969 180.789062 268.253906 C 181.792969 260.816406 182.5625 257.09375 183.089844 257.09375 C 183.671875 257.09375 183.964844 257.492188 183.964844 258.289062 L 183.804688 260.203125 L 184.917969 271.203125 C 184.917969 269.929688 185.261719 269.238281 185.949219 269.132812 C 187.484375 264.457031 188.25 261.105469 188.25 259.085938 C 188.25 254.570312 187.457031 248.191406 185.871094 239.953125 C 184.652344 233.523438 183.910156 228.902344 183.644531 226.082031 L 183.488281 224.089844 L 183.488281 223.375 L 183.644531 222.976562 L 183.488281 214.285156 L 183.488281 205.199219 C 182.90625 205.621094 182.535156 206.3125 182.375 207.269531 L 182.296875 206.632812 L 182.21875 207.109375 L 181.980469 208.625 L 182.21875 208.703125 L 182.136719 210.140625 L 180.390625 214.445312 L 180.234375 214.921875 L 179.757812 215.878906 L 179.757812 215.402344 L 177.214844 219.867188 L 173.800781 225.683594 L 171.339844 229.511719 L 170.230469 231.027344 L 162.847656 241.390625 C 161.207031 244.367188 160.386719 247.5 160.386719 250.796875 L 160.859375 264.828125 C 160.859375 267.695312 161.46875 270.40625 162.6875 272.957031 L 163.242188 274.3125 C 164.511719 264.375 165.148438 254.171875 165.148438 243.703125 L 165.148438 241.230469 C 165.253906 239.6875 165.492188 238.917969 165.863281 238.917969 L 166.65625 246.652344 L 166.734375 246.570312 C 166.683594 248.539062 166.816406 251.25 167.132812 254.703125 L 167.054688 262.4375 L 166.972656 262.035156 L 166.734375 259.328125 L 166.496094 262.195312 M 183.488281 204.398438 L 183.488281 204.242188 L 184.203125 204.082031 C 184.890625 204.082031 185.261719 206.550781 185.3125 211.496094 L 185.394531 223.375 L 185.394531 223.691406 L 184.996094 223.851562 C 185.738281 226.136719 186.664062 231.875 187.773438 241.070312 L 189.757812 259.246094 C 188.699219 267.058594 187.589844 271.390625 186.425781 272.242188 L 186.027344 273.117188 C 185.445312 274.554688 184.996094 275.269531 184.679688 275.269531 C 183.882812 275.269531 183.300781 272.773438 182.933594 267.777344 C 181.132812 281.914062 179.226562 288.980469 177.214844 288.980469 C 176.261719 288.980469 174.964844 281.25 173.324219 265.785156 L 172.769531 269.371094 C 172.71875 271.871094 172.054688 275.21875 170.785156 279.414062 C 169.566406 283.5625 168.640625 285.632812 168.007812 285.632812 L 167.371094 285.875 C 165.941406 285.875 163.640625 281.808594 160.464844 273.675781 L 160.625 273.515625 L 160.148438 272.480469 L 160.304688 272.003906 C 159.511719 269.238281 159.140625 267.007812 159.195312 265.304688 L 158.71875 250.636719 C 158.71875 246.757812 159.40625 243.675781 160.78125 241.390625 L 168.722656 230.148438 C 173.75 221.007812 177.269531 214.976562 179.28125 212.054688 L 180.074219 208.304688 C 180.816406 205.488281 181.609375 204.082031 182.457031 204.082031 L 183.488281 204.398438 M 180.945312 224.089844 L 180.234375 237.5625 C 180.234375 246.386719 179.863281 250.796875 179.121094 250.796875 C 178.75 250.796875 178.511719 250.476562 178.40625 249.839844 L 178.40625 248.882812 L 178.882812 235.890625 C 179.304688 227.226562 179.78125 222.894531 180.3125 222.894531 C 180.894531 222.894531 181.105469 223.292969 180.945312 224.089844 M 98.9375 89.921875 L 99.570312 88.726562 L 98.460938 91.835938 L 98.9375 89.921875 M 102.113281 91.917969 L 102.191406 91.597656 L 102.191406 92.394531 L 102.113281 91.917969 M 100.761719 104.433594 L 100.84375 103.953125 L 100.367188 104.433594 L 99.570312 106.1875 C 99.730469 106.34375 99.808594 106.585938 99.808594 106.902344 L 97.269531 113.203125 C 95.839844 118.570312 95.125 123.988281 95.125 129.464844 C 95.125 133.609375 95.921875 139.324219 97.507812 146.605469 L 97.507812 142.058594 L 97.984375 137.992188 C 97.453125 133.902344 97.164062 129.226562 97.109375 123.964844 L 97.429688 123.964844 L 100.761719 104.433594 M 99.253906 145.886719 L 99.332031 145.886719 L 99.253906 145.648438 L 99.253906 145.886719 M 90.046875 209.261719 L 90.046875 209.503906 L 89.570312 212.292969 C 89.570312 214.152344 90.097656 215.828125 91.15625 217.316406 C 92.214844 218.855469 92.824219 221.035156 92.984375 223.851562 L 94.015625 229.988281 C 94.542969 231.902344 94.808594 233.683594 94.808594 235.332031 C 93.75 248.617188 92.636719 256.324219 91.472656 258.449219 L 91.554688 259.566406 C 91.554688 260.46875 91.289062 260.921875 90.757812 260.921875 L 89.886719 260.683594 L 89.09375 249.363281 L 89.171875 248.40625 L 89.171875 248.007812 L 87.820312 260.601562 C 87.292969 265.757812 86.683594 268.335938 85.996094 268.335938 C 84.566406 268.335938 83.773438 263.074219 83.613281 252.550781 C 83.507812 249.253906 83.03125 246.625 82.183594 244.660156 L 81.628906 242.1875 L 80.28125 251.195312 L 78.851562 259.328125 C 76.734375 259.328125 75.066406 250.71875 73.847656 233.496094 L 73.691406 233.417969 L 73.214844 235.410156 L 73.214844 233.65625 L 72.023438 235.808594 C 70.277344 238.839844 68.792969 240.351562 67.578125 240.351562 C 66.890625 240.351562 66.546875 240.085938 66.546875 239.554688 L 68.210938 227.917969 C 68.105469 223.027344 68.265625 219.707031 68.6875 217.953125 C 68.792969 215.828125 69.085938 214.417969 69.5625 213.726562 L 69.402344 213.167969 C 69.402344 212.691406 74.246094 209.105469 83.933594 202.40625 L 84.648438 201.847656 C 85.121094 201.847656 85.359375 202.113281 85.359375 202.644531 L 90.363281 208.386719 C 90.363281 208.863281 90.257812 209.15625 90.046875 209.261719 M 69.007812 237.164062 C 70.171875 235.941406 71.175781 234.214844 72.023438 231.984375 L 72.339844 231.265625 L 72.183594 230.945312 C 72.816406 228.449219 73.558594 227.199219 74.40625 227.199219 L 75.121094 227.519531 L 78.136719 253.269531 L 78.214844 253.269531 C 79.378906 246.519531 80.253906 240.21875 80.835938 234.375 C 82.054688 221.9375 83.242188 215.71875 84.410156 215.71875 L 85.28125 216.597656 C 85.28125 218.457031 84.992188 220.078125 84.410156 221.460938 C 83.71875 223.160156 83.242188 225.152344 82.980469 227.4375 L 82.582031 232.382812 C 83.113281 233.65625 83.773438 238.414062 84.566406 246.652344 L 85.835938 261.160156 C 85.941406 258.289062 86.261719 255.101562 86.789062 251.59375 L 87.820312 246.011719 C 88.511719 243.515625 89.011719 242.265625 89.332031 242.265625 L 91.078125 249.761719 L 90.757812 250.558594 L 90.917969 251.355469 L 91.15625 249.839844 L 91.15625 249.761719 L 91.554688 247.6875 C 92.664062 241.894531 93.21875 237.75 93.21875 235.25 C 93.21875 234.1875 92.636719 230.335938 91.472656 223.691406 C 90.945312 220.929688 90.175781 218.644531 89.171875 216.835938 C 88.378906 215.507812 87.980469 214.019531 87.980469 212.371094 C 87.769531 210.511719 87.929688 209.34375 88.457031 208.863281 C 87.1875 208.066406 85.8125 206.285156 84.328125 203.523438 L 71.230469 213.648438 L 71.230469 214.523438 L 70.832031 221.0625 L 70.355469 220.980469 L 70.355469 221.0625 C 70.304688 223.773438 70.117188 226.296875 69.800781 228.632812 L 68.847656 237.003906 L 68.847656 237.246094 L 69.007812 237.164062 "/>
<path style=" stroke:none;fill-rule:evenodd;fill:rgb(74.901962%,36.470589%,42.352942%);fill-opacity:1;" d="M 172.847656 107.460938 L 172.769531 107.460938 L 172.769531 107.382812 L 172.847656 107.460938 M 186.105469 107.144531 L 185.949219 106.984375 L 186.105469 106.902344 L 186.105469 107.144531 M 197.617188 108.816406 L 197.539062 108.816406 L 197.617188 108.816406 M 101.792969 93.429688 L 102.113281 93.351562 L 102.191406 93.589844 L 101.953125 94.070312 L 101.792969 93.429688 M 102.191406 92.871094 L 102.589844 92.871094 L 102.191406 93.589844 L 102.191406 92.871094 M 100.523438 112.085938 L 100.605469 112.164062 L 100.523438 112.246094 L 100.523438 112.085938 M 112.828125 97.734375 L 112.910156 97.734375 L 112.828125 97.816406 L 112.828125 97.734375 M 151.8125 120.855469 L 152.050781 120.773438 L 152.128906 120.613281 L 152.207031 120.214844 L 152.285156 120.613281 L 152.84375 122.449219 L 151.890625 120.933594 L 151.8125 120.855469 M 149.03125 64.332031 L 148.875 64.175781 L 149.507812 63.375 L 149.03125 64.332031 M 192.140625 115.273438 L 192.0625 115.195312 L 192.0625 115.113281 L 192.140625 115.113281 L 192.140625 115.273438 M 100.84375 92.394531 L 100.84375 92.316406 L 100.84375 92.394531 M 101.792969 95.742188 L 101.792969 95.902344 L 101.714844 95.824219 L 101.792969 95.742188 M 103.9375 105.46875 L 103.9375 105.546875 L 103.9375 105.46875 "/>
<path style=" stroke:none;fill-rule:evenodd;fill:rgb(55.29412%,21.176471%,27.450982%);fill-opacity:1;" d="M 146.808594 28.621094 L 146.730469 29.019531 L 146.332031 28.859375 C 146.332031 28.699219 146.492188 28.621094 146.808594 28.621094 M 119.179688 89.367188 L 119.023438 89.207031 L 119.023438 88.964844 L 119.179688 88.964844 L 119.179688 89.367188 M 120.054688 89.046875 L 120.132812 89.046875 L 120.371094 89.207031 L 120.214844 89.445312 L 119.976562 89.445312 L 120.054688 89.046875 M 152.050781 120.773438 L 151.8125 120.457031 L 152.207031 120.214844 L 152.128906 120.613281 L 152.050781 120.773438 M 98.699219 123.964844 L 98.460938 123.964844 L 98.699219 123.964844 M 182.375 207.269531 L 182.21875 207.109375 L 182.296875 206.632812 L 182.375 207.269531 M 166.972656 262.035156 L 166.496094 262.195312 L 166.734375 259.328125 L 166.972656 262.035156 M 95.839844 148.835938 L 95.921875 149.472656 L 95.363281 148.835938 L 95.839844 148.835938 M 100.367188 104.433594 L 100.84375 103.953125 L 100.761719 104.433594 L 100.367188 104.433594 M 91.078125 249.761719 L 91.15625 249.761719 L 91.15625 249.839844 L 91.078125 249.761719 M 70.832031 221.0625 L 70.355469 221.0625 L 70.355469 220.980469 L 70.832031 221.0625 "/>
<path style=" stroke:none;fill-rule:evenodd;fill:rgb(25.098041%,25.098041%,25.882354%);fill-opacity:1;" d="M 146.808594 28.621094 C 146.492188 28.621094 146.332031 28.699219 146.332031 28.859375 L 146.730469 29.019531 C 152.871094 31.195312 157.527344 33.402344 160.703125 35.632812 C 163.242188 37.386719 165.785156 39.9375 168.324219 43.289062 L 173.722656 50.703125 C 176.316406 54.476562 177.902344 57.265625 178.484375 59.070312 C 179.542969 62.527344 181.398438 67.761719 184.042969 74.777344 C 186.105469 81.046875 187.140625 86.28125 187.140625 90.480469 L 184.203125 87.769531 L 184.042969 94.308594 L 183.804688 103.554688 L 184.121094 110.808594 L 181.183594 117.664062 L 178.246094 104.988281 C 177.664062 105.46875 177.082031 106.453125 176.5 107.941406 C 175.8125 109.695312 175.046875 111.050781 174.199219 112.003906 L 173.246094 107.460938 L 172.847656 107.460938 L 172.769531 107.382812 L 174.039062 97.976562 C 174.25 95.316406 173.988281 93.988281 173.246094 93.988281 L 171.660156 103.316406 C 169.804688 97.363281 166.761719 90.585938 162.527344 82.988281 L 158.242188 73.660156 L 157.84375 72.703125 C 157.15625 70.898438 156.019531 68.71875 154.429688 66.167969 C 153.320312 64.359375 152.445312 63.164062 151.8125 62.578125 C 151.917969 62.101562 151.757812 61.808594 151.335938 61.703125 L 150.144531 61.464844 C 149.5625 61.464844 148.371094 63.191406 146.570312 66.644531 C 144.769531 70.101562 143.765625 72.675781 143.554688 74.378906 C 142.761719 80.808594 142.363281 85.300781 142.363281 87.851562 C 142.363281 91.144531 142.523438 93.589844 142.839844 95.183594 L 144.984375 104.351562 C 145.617188 107.277344 146.886719 110.039062 148.792969 112.644531 C 149.640625 113.707031 150.222656 115.140625 150.539062 116.949219 C 150.859375 118.488281 151.28125 119.660156 151.8125 120.457031 L 152.050781 120.773438 L 151.8125 120.855469 C 146.730469 112.617188 143.316406 106.53125 141.570312 102.597656 C 140.246094 99.621094 138.472656 94.492188 136.25 87.210938 L 133.710938 78.523438 L 133.949219 78.445312 C 132.996094 69.886719 132.28125 65.609375 131.804688 65.609375 C 131.59375 65.609375 131.433594 65.6875 131.328125 65.847656 L 130.929688 65.769531 C 130.453125 65.769531 129.527344 67.203125 128.152344 70.074219 C 126.933594 72.570312 125.347656 76.160156 123.390625 80.835938 L 120.132812 89.046875 L 120.054688 89.046875 L 119.417969 88.964844 L 119.023438 88.964844 L 119.023438 89.207031 L 119.179688 89.367188 L 112.910156 97.734375 L 112.828125 97.734375 L 112.828125 97.65625 C 113.886719 94.785156 114.417969 91.917969 114.417969 89.046875 L 114.179688 86.8125 C 112.167969 89.789062 109.019531 97.46875 104.730469 109.851562 L 104.652344 109.851562 L 104.175781 105.390625 L 103.9375 104.273438 L 101.792969 108.738281 L 100.605469 112.164062 L 100.523438 112.085938 L 103.382812 97.019531 C 104.125 95.796875 104.492188 94.546875 104.492188 93.273438 L 104.574219 91.917969 C 106.109375 85.804688 110.105469 74.828125 116.5625 58.992188 C 116.5625 58.40625 116.269531 58.117188 115.6875 58.117188 C 115.160156 58.117188 112.828125 63.617188 108.703125 74.617188 L 102.746094 91.359375 L 102.589844 92.871094 L 102.191406 92.871094 L 102.191406 92.554688 L 102.113281 93.351562 L 101.792969 93.429688 L 101.320312 90.960938 L 100.523438 92.15625 C 99.625 93.75 98.511719 96.273438 97.191406 99.730469 L 96.953125 99.730469 L 96.316406 96.859375 L 97.191406 93.988281 L 98.699219 89.84375 L 101.953125 79.878906 L 102.269531 80.355469 L 102.269531 78.203125 L 102.351562 77.726562 L 102.984375 75.335938 L 106.160156 63.21875 C 107.21875 58.167969 109.335938 53.675781 112.511719 49.746094 L 115.609375 46.316406 L 116.085938 46.796875 C 117.621094 44.617188 119.683594 42.730469 122.277344 41.136719 L 134.1875 32.765625 L 146.175781 28.140625 L 146.414062 28.460938 L 146.886719 28.460938 L 146.808594 28.621094 M 98.9375 89.921875 L 98.460938 91.835938 L 99.570312 88.726562 L 98.9375 89.921875 M 102.113281 91.917969 L 102.191406 92.394531 L 102.191406 91.597656 L 102.113281 91.917969 "/>
<path style=" stroke:none;fill-rule:evenodd;fill:rgb(13.725491%,13.725491%,13.725491%);fill-opacity:1;" d="M 146.730469 29.019531 L 146.808594 28.621094 L 146.886719 28.460938 C 160.4375 28.566406 171.632812 32.84375 180.46875 41.292969 L 183.011719 43.925781 C 186.769531 47.964844 189.414062 52.136719 190.949219 56.441406 C 191.636719 58.300781 191.957031 60.957031 191.902344 64.414062 C 191.851562 68.292969 191.980469 70.921875 192.300781 72.304688 C 192.882812 74.644531 193.253906 77.992188 193.410156 82.351562 L 193.886719 82.351562 L 197.539062 107.859375 L 197.777344 108.339844 L 197.617188 108.816406 L 199.683594 123.167969 L 202.78125 149.472656 C 203.519531 155.480469 204.234375 159.835938 204.921875 162.546875 C 201.851562 157.765625 199.179688 154.042969 196.90625 151.386719 L 197.0625 145.804688 L 195.792969 136.71875 C 194.734375 130.714844 193.835938 127.710938 193.09375 127.710938 C 192.566406 127.710938 192.300781 128.082031 192.300781 128.828125 L 194.917969 140.144531 C 195.449219 142.21875 195.632812 145.433594 195.476562 149.792969 C 193.304688 147.507812 191.558594 146.363281 190.234375 146.363281 L 189.996094 146.445312 C 188.144531 145.433594 186.503906 144.929688 185.074219 144.929688 L 184.441406 145.007812 C 185.976562 138.898438 187.058594 125.769531 187.695312 105.628906 L 187.296875 104.988281 L 187.617188 104.589844 L 187.773438 104.910156 L 187.773438 104.273438 C 187.984375 100.976562 187.695312 99.332031 186.902344 99.332031 C 186.742188 99.332031 186.476562 101.855469 186.105469 106.902344 L 185.949219 106.984375 L 186.105469 107.144531 L 186.105469 107.222656 L 186.027344 108.257812 L 184.996094 123.644531 L 183.726562 135.839844 L 183.011719 141.898438 L 182.375 144.292969 L 182.21875 144.292969 L 178.722656 153.777344 C 175.867188 161.644531 173.667969 166.746094 172.132812 169.085938 L 166.65625 177.136719 C 168.140625 172.9375 169.304688 168.765625 170.148438 164.621094 C 174.808594 151.917969 177.136719 144.984375 177.136719 143.8125 C 177.136719 143.28125 176.898438 143.015625 176.421875 143.015625 L 176.421875 134.40625 C 176.421875 122.660156 175.945312 116.789062 174.992188 116.789062 C 174.570312 116.789062 174.304688 117 174.199219 117.425781 L 174.199219 117.984375 L 174.4375 120.855469 L 174.199219 120.855469 C 173.40625 120.855469 172.347656 122.632812 171.023438 126.195312 L 168.960938 132.253906 L 166.65625 138.550781 L 168.085938 132.972656 L 170.945312 118.222656 L 171.101562 117.90625 L 171.101562 117.585938 L 171.816406 112.882812 L 172.769531 107.460938 L 173.246094 107.460938 L 174.199219 112.003906 C 175.046875 111.050781 175.8125 109.695312 176.5 107.941406 C 177.082031 106.453125 177.664062 105.46875 178.246094 104.988281 L 181.183594 117.664062 L 184.121094 110.808594 L 183.804688 103.554688 L 184.042969 94.308594 L 184.203125 87.769531 L 187.140625 90.480469 C 187.140625 86.28125 186.105469 81.046875 184.042969 74.777344 C 181.398438 67.761719 179.542969 62.527344 178.484375 59.070312 C 177.902344 57.265625 176.316406 54.476562 173.722656 50.703125 L 168.324219 43.289062 C 165.785156 39.9375 163.242188 37.386719 160.703125 35.632812 C 157.527344 33.402344 152.871094 31.195312 146.730469 29.019531 M 197.617188 108.816406 L 197.539062 108.816406 L 197.617188 108.816406 M 96.316406 96.859375 L 96.953125 99.730469 L 97.191406 99.730469 C 98.511719 96.273438 99.625 93.75 100.523438 92.15625 L 101.320312 90.960938 L 101.792969 93.429688 L 101.953125 94.070312 L 101.953125 94.625 L 101.792969 95.742188 L 101.714844 95.824219 L 101.792969 95.902344 C 100.734375 99.886719 99.808594 102.09375 99.015625 102.519531 L 97.746094 105.707031 L 97.191406 107.621094 L 93.539062 123.722656 L 93.933594 124.121094 L 93.777344 133.6875 L 93.933594 134.40625 L 93.933594 136.558594 L 94.410156 138.792969 L 95.839844 148.835938 L 95.363281 148.835938 C 94.625 148.835938 91.6875 151.8125 86.550781 157.765625 L 82.027344 163.105469 L 87.1875 146.84375 L 87.265625 145.726562 L 87.664062 144.453125 L 89.09375 138.472656 L 89.09375 135.761719 C 89.199219 134.859375 89.410156 134.140625 89.726562 133.609375 L 91.472656 125.558594 L 92.585938 119.738281 L 94.171875 110.730469 L 95.207031 102.359375 L 95.921875 98.375 L 95.839844 97.578125 L 96 96.859375 L 96.316406 96.859375 M 100.605469 112.164062 L 101.792969 108.738281 L 103.9375 104.273438 L 104.175781 105.390625 L 104.652344 109.851562 L 104.730469 109.851562 C 109.019531 97.46875 112.167969 89.789062 114.179688 86.8125 L 114.417969 89.046875 C 114.417969 91.917969 113.886719 94.785156 112.828125 97.65625 L 112.828125 97.816406 L 112.910156 97.734375 L 119.179688 89.367188 L 119.179688 88.964844 L 119.417969 88.964844 L 120.054688 89.046875 L 119.976562 89.445312 C 117.804688 94.917969 115.875 100.101562 114.179688 104.988281 L 110.84375 114.875 L 109.179688 124.839844 L 106.320312 137.992188 C 106.003906 134.378906 105.472656 132.574219 104.730469 132.574219 C 104.203125 132.574219 103.9375 132.917969 103.9375 133.609375 L 105.128906 149.074219 L 105.289062 156.171875 L 103.859375 152.820312 L 100.285156 142.140625 L 99.570312 139.03125 L 99.570312 137.753906 L 99.332031 136.957031 C 98.964844 133.769531 98.75 129.4375 98.699219 123.964844 L 98.460938 123.964844 L 100.523438 112.164062 L 100.523438 112.246094 L 100.605469 112.164062 M 151.8125 120.457031 C 151.28125 119.660156 150.859375 118.488281 150.539062 116.949219 C 150.222656 115.140625 149.640625 113.707031 148.792969 112.644531 C 146.886719 110.039062 145.617188 107.277344 144.984375 104.351562 L 142.839844 95.183594 C 142.523438 93.589844 142.363281 91.144531 142.363281 87.851562 C 142.363281 85.300781 142.761719 80.808594 143.554688 74.378906 C 143.765625 72.675781 144.769531 70.101562 146.570312 66.644531 C 148.371094 63.191406 149.5625 61.464844 150.144531 61.464844 L 151.335938 61.703125 L 149.507812 63.375 L 148.875 64.175781 L 149.03125 64.332031 L 147.601562 67.921875 L 147.601562 69.195312 L 147.761719 69.277344 L 144.269531 79.71875 L 144.984375 79.71875 L 144.984375 83.863281 C 144.984375 87.53125 145.378906 91.226562 146.175781 94.945312 L 148.792969 105.945312 L 150.777344 114.636719 C 151.890625 116.867188 152.367188 118.726562 152.207031 120.214844 L 151.8125 120.457031 M 167.210938 121.890625 L 167.292969 121.8125 L 168.960938 120.296875 L 168.085938 125.796875 L 167.210938 121.890625 M 107.429688 142.457031 C 108.226562 139.90625 109.125 135.949219 110.128906 130.582031 C 112.246094 119.683594 113.886719 112.164062 115.054688 108.019531 C 115.898438 110.25 118.097656 113.09375 121.640625 116.550781 L 126.882812 122.210938 C 129.050781 124.386719 130.796875 125.691406 132.121094 126.117188 L 131.089844 130.101562 L 131.089844 135.285156 L 120.691406 139.507812 C 118.097656 140.09375 116.113281 140.785156 114.734375 141.582031 L 107.589844 142.457031 L 107.429688 142.457031 M 192.140625 115.273438 L 192.140625 115.113281 L 192.0625 115.113281 L 192.0625 115.195312 L 192.140625 115.273438 M 174.597656 122.925781 L 174.753906 125.160156 L 174.753906 139.988281 C 172.371094 137.703125 170.625 136.425781 169.515625 136.160156 L 174.597656 122.925781 M 182.375 207.269531 C 182.535156 206.3125 182.90625 205.621094 183.488281 205.199219 L 183.488281 214.285156 L 183.644531 222.976562 L 183.488281 223.375 L 183.488281 224.089844 L 183.644531 226.082031 C 183.910156 228.902344 184.652344 233.523438 185.871094 239.953125 C 187.457031 248.191406 188.25 254.570312 188.25 259.085938 C 188.25 261.105469 187.484375 264.457031 185.949219 269.132812 C 185.261719 269.238281 184.917969 269.929688 184.917969 271.203125 L 183.804688 260.203125 L 183.964844 258.289062 C 183.964844 257.492188 183.671875 257.09375 183.089844 257.09375 C 182.5625 257.09375 181.792969 260.816406 180.789062 268.253906 C 179.675781 276.917969 178.589844 282.605469 177.535156 285.316406 C 175.734375 270.539062 174.542969 262.410156 173.960938 260.921875 L 174.675781 252.789062 C 174.675781 252.046875 174.4375 251.671875 173.960938 251.671875 C 173.378906 251.671875 172.796875 253.90625 172.214844 258.371094 C 171.632812 262.460938 171.339844 265.730469 171.339844 268.175781 C 171.074219 270.886719 169.753906 275.933594 167.371094 283.320312 L 164.511719 278.21875 C 165.253906 275.507812 165.914062 270.167969 166.496094 262.195312 L 166.972656 262.035156 L 167.054688 262.4375 L 167.132812 254.703125 C 166.816406 251.25 166.683594 248.539062 166.734375 246.570312 L 166.65625 246.652344 L 165.863281 238.917969 C 165.492188 238.917969 165.253906 239.6875 165.148438 241.230469 L 165.148438 243.703125 C 165.148438 254.171875 164.511719 264.375 163.242188 274.3125 L 162.6875 272.957031 C 161.46875 270.40625 160.859375 267.695312 160.859375 264.828125 L 160.386719 250.796875 C 160.386719 247.5 161.207031 244.367188 162.847656 241.390625 L 170.230469 231.027344 L 171.339844 229.511719 L 173.800781 225.683594 L 177.214844 219.867188 L 179.757812 215.402344 L 179.757812 215.878906 L 180.234375 214.921875 L 180.390625 214.445312 L 182.136719 210.140625 L 182.21875 208.703125 L 181.980469 208.625 L 182.21875 207.109375 L 182.375 207.269531 M 180.945312 224.089844 C 181.105469 223.292969 180.894531 222.894531 180.3125 222.894531 C 179.78125 222.894531 179.304688 227.226562 178.882812 235.890625 L 178.40625 248.882812 L 178.40625 249.839844 C 178.511719 250.476562 178.75 250.796875 179.121094 250.796875 C 179.863281 250.796875 180.234375 246.386719 180.234375 237.5625 L 180.945312 224.089844 M 100.84375 92.394531 L 100.84375 92.316406 L 100.84375 92.394531 M 100.367188 104.433594 L 100.761719 104.433594 L 97.429688 123.964844 L 97.109375 123.964844 C 97.164062 129.226562 97.453125 133.902344 97.984375 137.992188 L 97.507812 142.058594 L 97.507812 146.605469 C 95.921875 139.324219 95.125 133.609375 95.125 129.464844 C 95.125 123.988281 95.839844 118.570312 97.269531 113.203125 L 99.808594 106.902344 C 99.808594 106.585938 99.730469 106.34375 99.570312 106.1875 L 100.367188 104.433594 M 103.9375 105.46875 L 103.9375 105.546875 L 103.9375 105.46875 M 91.078125 249.761719 L 89.332031 242.265625 C 89.011719 242.265625 88.511719 243.515625 87.820312 246.011719 L 86.789062 251.59375 C 86.261719 255.101562 85.941406 258.289062 85.835938 261.160156 L 84.566406 246.652344 C 83.773438 238.414062 83.113281 233.65625 82.582031 232.382812 L 82.980469 227.4375 C 83.242188 225.152344 83.71875 223.160156 84.410156 221.460938 C 84.992188 220.078125 85.28125 218.457031 85.28125 216.597656 L 84.410156 215.71875 C 83.242188 215.71875 82.054688 221.9375 80.835938 234.375 C 80.253906 240.21875 79.378906 246.519531 78.214844 253.269531 L 78.136719 253.269531 L 75.121094 227.519531 L 74.40625 227.199219 C 73.558594 227.199219 72.816406 228.449219 72.183594 230.945312 L 72.339844 231.265625 L 72.023438 231.984375 C 71.175781 234.214844 70.171875 235.941406 69.007812 237.164062 L 68.847656 237.003906 L 69.800781 228.632812 C 70.117188 226.296875 70.304688 223.773438 70.355469 221.0625 L 70.832031 221.0625 L 71.230469 214.523438 L 71.230469 213.648438 L 84.328125 203.523438 C 85.8125 206.285156 87.1875 208.066406 88.457031 208.863281 C 87.929688 209.34375 87.769531 210.511719 87.980469 212.371094 C 87.980469 214.019531 88.378906 215.507812 89.171875 216.835938 C 90.175781 218.644531 90.945312 220.929688 91.472656 223.691406 C 92.636719 230.335938 93.21875 234.1875 93.21875 235.25 C 93.21875 237.75 92.664062 241.894531 91.554688 247.6875 L 91.15625 249.761719 L 91.078125 249.761719 "/>
</g>
</svg>
