<?xml version="1.0" encoding="UTF-8"?>
<svg xmlns="http://www.w3.org/2000/svg" xmlns:xlink="http://www.w3.org/1999/xlink" width="296px" height="318px" viewBox="0 0 296 318" version="1.1">
<g id="surface1">
<path style=" stroke:none;fill-rule:evenodd;fill:rgb(79.607844%,79.607844%,27.843139%);fill-opacity:1;" d="M 129.265625 23.914062 L 129.105469 23.914062 L 129.265625 23.757812 L 129.265625 23.914062 M 185.632812 34.917969 L 185.789062 35.078125 L 185.550781 34.996094 L 185.632812 34.917969 M 194.761719 65.050781 L 194.761719 65.128906 L 194.679688 65.050781 L 194.761719 65.050781 M 188.570312 114.398438 L 188.964844 114.476562 L 188.332031 115.273438 L 188.570312 114.398438 M 193.648438 105.789062 L 193.730469 105.789062 L 193.730469 105.867188 L 193.648438 105.789062 M 206.113281 109.453125 L 206.511719 109.453125 L 206.511719 109.613281 L 206.113281 109.453125 M 208.335938 102.757812 L 208.417969 102.757812 L 208.335938 102.917969 L 208.335938 102.757812 M 246.683594 161.113281 L 246.761719 161.113281 L 246.761719 161.191406 L 246.683594 161.113281 M 234.296875 138.949219 L 234.136719 139.03125 C 234.085938 138.5 234.113281 138.101562 234.21875 137.835938 L 234.296875 138.949219 M 286.855469 157.605469 L 286.933594 157.523438 L 287.011719 157.605469 L 286.855469 157.605469 M 203.890625 44.960938 L 203.8125 44.960938 L 203.890625 44.960938 M 196.90625 42.332031 L 197.9375 42.492188 L 197.855469 42.648438 L 196.90625 42.332031 M 170.785156 102.519531 L 170.785156 103.238281 L 170.625 102.757812 L 170.546875 102.679688 L 170.546875 102.597656 L 170.785156 102.519531 M 140.617188 96.300781 L 140.617188 96.9375 L 140.378906 96.460938 L 140.378906 96.378906 L 140.617188 96.300781 M 199.128906 82.109375 L 199.046875 82.03125 L 199.128906 82.03125 L 199.128906 82.109375 M 120.929688 80.355469 L 120.929688 80.4375 L 120.691406 80.355469 L 120.929688 80.355469 M 104.890625 76.132812 L 104.890625 76.050781 L 105.207031 76.292969 L 104.890625 76.132812 M 111.640625 48.789062 L 111.71875 48.707031 L 111.640625 48.867188 L 111.640625 48.789062 M 93.457031 97.019531 L 93.539062 97.097656 L 93.457031 97.097656 L 93.457031 97.019531 M 92.269531 114.238281 L 92.269531 114.476562 L 92.1875 114.476562 L 92.269531 114.238281 M 89.886719 121.09375 L 89.886719 121.015625 L 89.964844 121.015625 L 89.886719 121.09375 M 88.535156 114.957031 L 88.933594 116.867188 L 88.535156 115.035156 L 88.535156 114.957031 M 61.542969 160.632812 L 61.066406 161.910156 L 61.066406 160.632812 L 61.542969 160.632812 M 57.335938 145.886719 L 57.335938 145.726562 L 57.335938 145.886719 M 102.191406 103.394531 L 102.269531 103.554688 L 102.191406 103.554688 L 102.191406 103.394531 "/>
<path style=" stroke:none;fill-rule:evenodd;fill:rgb(65.882355%,55.686277%,18.431373%);fill-opacity:1;" d="M 120.929688 13.792969 L 120.609375 14.03125 L 120.691406 13.792969 L 120.929688 13.792969 M 119.023438 20.566406 L 118.941406 20.964844 L 118.703125 20.964844 L 118.625 20.808594 L 118.703125 20.726562 L 118.863281 20.566406 L 119.023438 20.566406 M 109.257812 37.070312 L 108.941406 37.230469 L 108.859375 36.910156 L 109.019531 36.832031 L 109.257812 37.070312 M 106.082031 102.359375 L 106.160156 102.597656 L 106.160156 102.757812 L 106.082031 102.597656 L 106.082031 102.359375 M 104.652344 118.863281 L 104.492188 119.019531 L 104.492188 118.941406 L 104.652344 118.863281 M 48.601562 156.570312 L 48.285156 156.726562 L 48.046875 156.410156 L 48.285156 156.25 L 48.601562 156.570312 M 195.554688 41.773438 L 195.554688 41.691406 L 195.792969 41.691406 L 195.554688 41.773438 M 203.96875 44.484375 L 204.128906 44.5625 L 203.890625 44.960938 L 203.96875 44.484375 M 199.605469 82.03125 L 199.761719 83.464844 L 199.445312 83.546875 L 198.652344 82.191406 L 199.046875 82.03125 L 199.128906 82.109375 L 199.605469 82.03125 M 193.570312 105.945312 L 193.648438 105.789062 L 193.730469 105.867188 L 193.730469 105.789062 L 194.207031 104.511719 L 194.285156 105.867188 L 193.886719 106.027344 L 193.808594 105.945312 L 193.808594 106.027344 L 193.570312 105.945312 M 200.316406 105.390625 L 200.714844 104.511719 L 201.03125 105.628906 L 200.636719 105.628906 L 200.554688 105.546875 L 200.316406 105.390625 M 208.417969 102.757812 L 208.496094 102.835938 L 208.335938 102.917969 L 208.417969 102.757812 M 233.820312 113.121094 L 233.742188 113.121094 L 233.742188 112.800781 L 233.820312 113.121094 M 233.265625 139.90625 L 233.1875 139.90625 L 233.105469 139.746094 L 233.105469 139.667969 L 233.265625 139.90625 M 198.175781 48.550781 L 198.175781 48.46875 L 198.414062 48.46875 L 198.175781 48.550781 M 167.609375 68.558594 L 167.769531 68.320312 L 167.847656 68.320312 L 167.609375 68.558594 M 170.785156 102.359375 L 170.785156 102.519531 L 170.546875 102.597656 L 170.546875 102.4375 L 170.785156 102.359375 M 148.792969 67.679688 L 148.875 67.761719 L 148.875 67.839844 L 148.714844 68 L 148.476562 67.921875 L 148.792969 67.679688 M 140.539062 70.550781 L 140.777344 70.949219 L 140.695312 71.1875 L 140.300781 70.871094 L 140.539062 70.550781 M 157.449219 52.296875 L 157.367188 52.296875 L 157.527344 52.058594 L 157.449219 52.296875 M 179.042969 85.378906 L 178.960938 85.378906 L 178.960938 85.300781 L 179.042969 85.378906 M 150.144531 60.425781 L 150.0625 60.269531 L 150.460938 60.1875 L 150.144531 60.425781 M 268.039062 292.332031 L 268.117188 292.332031 L 268.117188 292.410156 L 268.039062 292.332031 M 259.859375 218.429688 L 259.382812 218.429688 L 259.542969 217.953125 L 259.78125 217.953125 L 259.859375 218.269531 L 259.859375 218.429688 M 206.589844 109.613281 L 206.75 109.613281 L 206.511719 109.933594 L 206.589844 109.613281 M 140.378906 96.378906 L 140.617188 96.300781 L 140.378906 96.378906 M 119.816406 73.742188 L 119.578125 73.980469 L 119.816406 73.660156 L 119.816406 73.742188 M 104.96875 80.996094 L 104.96875 81.234375 L 104.574219 81.632812 L 104.574219 81.472656 L 104.492188 81.074219 L 104.96875 80.996094 M 93.0625 96.859375 L 93.457031 97.019531 L 93.457031 97.578125 L 93.0625 97.496094 L 92.984375 97.019531 L 93.0625 96.859375 M 88.140625 113.679688 L 88.058594 113.441406 L 88.140625 113.679688 M 57.8125 145.804688 L 57.335938 145.886719 L 57.335938 145.726562 L 57.019531 145.40625 L 57.496094 144.769531 L 58.050781 144.929688 L 57.8125 145.804688 M 102.269531 103.554688 L 102.191406 103.394531 L 102.03125 103.238281 L 102.191406 102.917969 L 102.429688 103.394531 L 102.269531 103.554688 M 18.277344 192.363281 L 18.195312 192.28125 L 18.195312 192.125 L 18.277344 192.363281 M 40.664062 172.433594 L 40.824219 172.273438 L 40.742188 172.433594 L 40.585938 172.671875 L 40.503906 172.59375 L 40.664062 172.433594 "/>
<path style=" stroke:none;fill-rule:evenodd;fill:rgb(0%,0%,0%);fill-opacity:1;" d="M 118.941406 20.964844 L 122.4375 24.871094 C 125.453125 29.019531 126.988281 32.3125 127.039062 34.757812 L 127.835938 34.679688 L 127.914062 34.679688 L 129.265625 23.914062 L 129.265625 23.757812 L 129.421875 21.046875 C 129.421875 14.296875 126.511719 9.222656 120.691406 5.820312 C 116.457031 3.320312 111.71875 2.074219 106.480469 2.074219 C 91.449219 2.074219 81.710938 10.550781 77.261719 27.503906 C 76.46875 30.53125 75.621094 36.191406 74.722656 44.484375 L 74.324219 48.390625 L 74.40625 49.105469 L 74.484375 49.347656 L 74.40625 50.382812 C 74.40625 53.996094 74.035156 60.585938 73.292969 70.152344 L 73.292969 79.957031 C 72.183594 85.007812 71.363281 88.300781 70.832031 89.84375 C 69.457031 94.148438 67.972656 100.285156 66.386719 108.257812 L 66.546875 108.496094 C 66.546875 108.816406 66.253906 109.878906 65.671875 111.6875 C 65.144531 112.535156 64.507812 114 63.765625 116.070312 L 62.257812 121.171875 L 62.101562 121.492188 L 62.019531 121.570312 C 60.0625 125.769531 58.871094 129.304688 58.449219 132.175781 L 58.210938 133.609375 L 57.652344 133.769531 L 57.496094 133.769531 L 49 155.53125 L 48.285156 156.25 L 48.046875 156.410156 L 48.285156 156.726562 L 48.601562 156.570312 L 44.238281 167.089844 C 40.742188 176.710938 38.890625 182.265625 38.679688 183.753906 C 38.46875 185.507812 37.515625 188.296875 35.820312 192.125 C 34.550781 196.429688 33.414062 199.058594 32.40625 200.015625 L 32.488281 200.175781 L 27.722656 211.65625 L 26.214844 215.878906 C 28.96875 212.636719 31.90625 208.757812 35.027344 204.242188 C 36.457031 202.222656 41.167969 197.863281 49.160156 191.167969 C 51.433594 187.871094 53.367188 185.640625 54.953125 184.46875 C 58.078125 181.546875 60.722656 179.367188 62.894531 177.933594 C 70.199219 172.40625 75.359375 168.84375 78.375 167.25 L 78.375 167.171875 L 86.710938 160.875 C 87.238281 160.449219 88.324219 159.066406 89.964844 156.726562 C 90.070312 155.082031 91.449219 153.167969 94.09375 150.988281 L 99.414062 145.886719 L 99.414062 145.328125 C 99.414062 143.148438 100.550781 137.171875 102.828125 127.390625 C 103.460938 124.574219 104.019531 121.757812 104.492188 118.941406 L 104.492188 119.019531 L 104.652344 118.863281 L 104.574219 118.382812 C 105.367188 113.121094 105.871094 107.859375 106.082031 102.597656 L 106.160156 102.757812 L 106.160156 102.597656 L 106.082031 102.359375 L 106.160156 97.816406 C 106.160156 97.285156 106.320312 96.992188 106.636719 96.9375 L 106.558594 96.539062 C 105.765625 91.703125 105.367188 88.621094 105.367188 87.292969 L 105.683594 82.269531 L 104.730469 83.066406 L 104.652344 83.066406 L 99.492188 90.242188 L 99.175781 91.039062 L 98.382812 90.878906 L 98.382812 90.800781 L 97.984375 90.242188 L 98.621094 89.367188 L 107.75 65.769531 L 111.957031 55.324219 L 112.355469 53.730469 C 112.722656 52.347656 113.121094 51.605469 113.542969 51.5 L 114.179688 50.0625 C 116.296875 45.597656 118.359375 42.996094 120.371094 42.25 L 120.214844 41.613281 L 120.371094 41.136719 C 117.777344 39.0625 114.894531 38.027344 111.71875 38.027344 C 110.078125 38.027344 108.542969 38.824219 107.113281 40.417969 L 106.957031 40.339844 L 106.71875 40.339844 L 106.636719 40.496094 L 106.558594 40.976562 C 105.183594 42.625 103.859375 44.988281 102.589844 48.070312 L 99.09375 58.117188 C 98.40625 58.117188 98.144531 57.742188 98.300781 57 L 101.875 46.636719 L 104.175781 41.453125 C 105.023438 39.648438 106.609375 38.238281 108.941406 37.230469 L 109.257812 37.070312 L 109.972656 36.75 L 111.796875 36.671875 C 113.863281 36.671875 116.085938 37.28125 118.464844 38.503906 L 120.929688 40.019531 L 122.59375 37.945312 L 119.816406 34.917969 L 116.324219 31.570312 C 116.324219 31.089844 116.535156 30.851562 116.957031 30.851562 L 121.007812 34.199219 C 122.332031 35.316406 123.152344 36.273438 123.46875 37.070312 L 126.246094 35.078125 C 124.078125 30.292969 122.382812 27.078125 121.167969 25.429688 L 120.609375 24.792969 L 120.691406 24.554688 L 120.132812 24.15625 L 116.878906 20.328125 L 111.558594 18.894531 C 108.859375 18.363281 107.511719 17.855469 107.511719 17.378906 C 107.511719 16.902344 107.800781 16.660156 108.382812 16.660156 C 112.140625 16.660156 115.582031 18.015625 118.703125 20.726562 L 118.625 20.808594 L 118.703125 20.964844 L 118.941406 20.964844 M 129.105469 35.476562 L 130.375 37.308594 L 130.375 37.628906 L 130.453125 37.546875 C 133.523438 36.378906 136.804688 35.792969 140.300781 35.792969 C 151.308594 35.792969 159.433594 36.910156 164.671875 39.140625 C 167.425781 40.363281 169.671875 41.878906 171.421875 43.6875 L 173.800781 45.199219 L 173.800781 40.496094 C 175.441406 24.179688 181.980469 14.324219 193.410156 10.921875 L 193.410156 11.480469 L 196.585938 11.398438 C 205.160156 11.398438 211.882812 12.4375 216.753906 14.507812 C 222.519531 16.953125 226.914062 21.207031 229.929688 27.265625 C 231.359375 30.238281 232.207031 33.296875 232.472656 36.433594 L 232.472656 45.28125 C 232.3125 55.378906 231.890625 61.199219 231.199219 62.738281 L 231.199219 75.09375 L 231.597656 90.320312 C 231.808594 93.988281 232.628906 99.488281 234.058594 106.824219 L 239.457031 139.90625 L 239.0625 140.785156 L 239.773438 143.015625 C 241.308594 146.578125 243.402344 149.578125 246.046875 152.023438 L 253.828125 158.800781 C 258.539062 162.042969 263.488281 163.664062 268.671875 163.664062 L 277.167969 163.265625 L 282.011719 159.4375 L 287.566406 155.214844 C 288.839844 154.363281 290.03125 153.140625 291.140625 151.546875 C 291.882812 149.527344 292.464844 148.515625 292.886719 148.515625 L 293.046875 148.515625 C 293.839844 147.292969 294.421875 146.683594 294.792969 146.683594 C 295.214844 146.683594 295.429688 146.894531 295.429688 147.320312 C 295.429688 148.863281 294.34375 150.75 292.171875 152.980469 L 291.378906 154.816406 L 287.964844 161.910156 C 286.90625 163.769531 285.238281 165.523438 282.964844 167.171875 C 278.464844 170.519531 272.800781 172.195312 265.972656 172.195312 C 259.835938 172.195312 253.933594 170.386719 248.269531 166.773438 L 248.109375 166.691406 L 247.476562 166.292969 L 247.953125 166.933594 L 251.761719 174.105469 C 254.25 179.367188 255.496094 182.636719 255.496094 183.914062 L 255.496094 183.992188 C 255.972656 184.734375 256.660156 186.304688 257.558594 188.695312 C 258.933594 192.363281 259.675781 195.179688 259.78125 197.144531 L 260.972656 210.539062 C 260.972656 214.046875 260.46875 222.683594 259.464844 236.445312 L 259.703125 237.800781 L 258.671875 243.941406 C 257.929688 247.449219 257.558594 250.320312 257.558594 252.550781 C 257.558594 256.800781 258.007812 260.46875 258.910156 263.550781 C 259.015625 264.773438 260.019531 268.363281 261.925781 274.3125 C 262.667969 276.863281 264.09375 280.503906 266.210938 285.234375 C 267.113281 287.359375 268.9375 290.921875 271.691406 295.917969 C 271.691406 296.394531 271.347656 296.636719 270.65625 296.636719 C 266.371094 292.648438 261.632812 288.636719 256.445312 284.597656 C 252.476562 281.515625 248.851562 277.554688 245.570312 272.71875 C 241.390625 267.40625 238.480469 263.367188 236.835938 260.601562 C 233.875 255.660156 231.96875 252.203125 231.121094 250.238281 L 228.898438 255.578125 C 228 258.820312 227.550781 263.5 227.550781 269.609375 C 227.550781 284.121094 231.253906 296.15625 238.664062 305.722656 C 240.675781 308.328125 243.1875 310.984375 246.207031 313.695312 C 248.535156 315.769531 249.699219 316.988281 249.699219 317.363281 C 249.699219 317.789062 249.460938 318 248.984375 318 C 247.660156 318 243.53125 316.007812 236.601562 312.019531 C 231.890625 309.3125 228.792969 307.398438 227.3125 306.28125 L 227.3125 306.917969 L 227.074219 306.679688 L 227.074219 307 L 223.976562 304.367188 L 223.339844 303.492188 L 220.085938 300.300781 L 219.925781 300.222656 L 219.925781 299.824219 L 216.992188 296.875 L 216.832031 296.875 L 216.515625 296.316406 L 216.277344 295.917969 L 216.355469 295.597656 L 216.117188 290.417969 L 215.800781 280.132812 C 215.429688 276.308594 214.636719 273.144531 213.417969 270.648438 C 212.359375 268.46875 211.828125 266.078125 211.828125 263.472656 L 212.148438 259.882812 C 211.40625 255.792969 211.035156 253.109375 211.035156 251.832031 L 211.355469 251.273438 L 211.433594 238.441406 L 211.433594 228.476562 L 211.671875 220.582031 L 211.589844 220.582031 C 211.273438 220.582031 210.824219 217.15625 210.242188 210.300781 C 209.660156 203.230469 209.367188 197.625 209.367188 193.480469 L 209.210938 180.007812 C 208.734375 177.03125 208.496094 174.796875 208.496094 173.308594 C 207.277344 170.175781 206.617188 168.046875 206.511719 166.933594 C 204.394531 163.636719 202.066406 160.367188 199.523438 157.125 C 197.988281 155.160156 195 152.796875 190.554688 150.03125 L 184.996094 146.683594 L 180.152344 144.53125 L 179.996094 144.691406 L 179.359375 144.210938 L 179.121094 144.050781 L 179.28125 143.574219 L 179.28125 142.9375 C 179.28125 139.800781 179.863281 136.796875 181.027344 133.929688 L 184.519531 125 L 185.949219 116.070312 L 187.535156 111.605469 L 187.617188 107.300781 L 187.695312 107.222656 L 187.21875 99.570312 L 186.980469 99.570312 L 186.820312 96.699219 L 186.820312 94.867188 L 186.980469 93.828125 L 186.664062 93.03125 L 186.664062 92.074219 L 187.21875 85.539062 L 186.265625 82.109375 L 186.1875 82.109375 L 186.1875 82.03125 L 185.871094 80.753906 C 184.863281 79.851562 183.859375 79.398438 182.851562 79.398438 C 182.113281 79.398438 181.292969 79.71875 180.390625 80.355469 L 179.359375 81.234375 L 179.28125 81.234375 L 179.359375 82.667969 C 179.625 84.371094 180.496094 87.851562 181.980469 93.113281 L 182.058594 93.429688 L 182.058594 93.511719 C 182.058594 94.09375 181.875 94.386719 181.503906 94.386719 L 181.421875 94.386719 C 181.054688 94.28125 180.65625 93.351562 180.234375 91.597656 L 175.707031 81.3125 L 172.691406 75.335938 L 174.359375 85.140625 L 175.785156 95.980469 L 175.785156 96.0625 C 175.890625 96.859375 175.734375 97.285156 175.308594 97.335938 L 175.152344 97.335938 C 174.726562 97.335938 174.359375 96.644531 174.039062 95.265625 L 173.167969 93.671875 L 172.691406 93.273438 L 172.691406 93.75 L 172.214844 92.871094 L 172.214844 97.496094 L 171.660156 105.390625 L 171.738281 105.945312 C 171.738281 106.53125 171.550781 106.824219 171.183594 106.824219 C 170.8125 106.824219 169.804688 104.855469 168.164062 100.925781 L 163.957031 91.917969 L 156.097656 81.234375 L 160.386719 92.632812 L 160.304688 93.191406 L 159.828125 93.351562 L 159.75 93.351562 C 159.113281 93.351562 157.078125 91.941406 153.636719 89.125 L 146.492188 82.667969 L 142.601562 77.886719 L 142.046875 90.402344 L 142.046875 96.378906 C 142.046875 97.867188 142.285156 99.835938 142.761719 102.28125 L 142.761719 102.835938 L 142.917969 104.113281 C 142.917969 104.644531 142.707031 104.910156 142.285156 104.910156 L 133.152344 84.421875 L 128.152344 73.261719 L 127.4375 70.3125 L 122.675781 79.878906 L 119.023438 90.003906 L 118.863281 90.003906 L 118.308594 90.5625 L 117.59375 90.402344 L 116.71875 83.304688 C 116.242188 85.058594 115.820312 88.011719 115.449219 92.15625 L 113.863281 98.214844 L 114.019531 98.375 L 113.78125 98.851562 L 113.148438 100.527344 L 113.148438 100.367188 L 112.910156 100.925781 L 111.796875 108.339844 L 112.035156 109.296875 C 112.035156 109.878906 111.824219 110.171875 111.402344 110.171875 C 110.605469 110.171875 110 108.710938 109.574219 105.789062 L 109.335938 105.789062 C 108.703125 105.789062 108.144531 104.75 107.667969 102.679688 L 106.558594 112.246094 L 104.890625 124.203125 L 100.683594 146.203125 L 100.683594 146.445312 L 100.605469 146.761719 L 100.523438 146.761719 C 100.046875 147.824219 98.273438 149.527344 95.207031 151.863281 L 92.269531 154.574219 L 92.109375 156.726562 C 90.945312 158.800781 89.648438 160.449219 88.21875 161.671875 L 84.171875 164.9375 L 81.628906 166.773438 L 81.550781 166.773438 L 81.710938 166.933594 C 81.710938 167.464844 78.640625 169.507812 72.5 173.070312 L 64.164062 178.96875 C 62.101562 180.246094 57.441406 184.65625 50.191406 192.203125 C 49.183594 193.265625 46.617188 195.417969 42.488281 198.660156 C 39.15625 201.265625 37.011719 203.417969 36.058594 205.117188 C 35.054688 206.925781 33.148438 209.582031 30.34375 213.089844 C 27.539062 216.597656 25.898438 218.351562 25.421875 218.351562 L 25.34375 218.351562 L 24.785156 220.265625 C 25.316406 220.476562 26.269531 222.390625 27.644531 226.003906 C 28.386719 227.863281 29.046875 229.75 29.628906 231.664062 L 29.707031 231.824219 L 29.707031 232.382812 L 29.628906 232.621094 L 26.375 242.90625 L 26.292969 249.203125 C 26.292969 252.019531 26.109375 253.425781 25.738281 253.425781 L 25.34375 253.109375 L 25.105469 253.109375 C 24.363281 253.109375 23.808594 251.726562 23.4375 248.964844 L 22.800781 242.105469 L 21.609375 231.1875 C 21.609375 227.09375 22.773438 221.671875 25.105469 214.921875 C 27.855469 207.003906 29.8125 201.980469 30.980469 199.855469 L 30.898438 199.617188 C 34.550781 192.390625 36.746094 186.78125 37.488281 182.796875 L 38.125 180.246094 L 32.882812 184.628906 L 24.628906 190.128906 C 13.566406 196.71875 6.078125 200.015625 2.160156 200.015625 C 1.417969 200.015625 0.996094 199.855469 0.890625 199.539062 L 0.652344 199.457031 L 0.570312 198.980469 C 0.570312 198.5 3.164062 196.375 8.351562 192.601562 L 17.5625 185.90625 C 19.785156 184.152344 22.855469 181.917969 26.769531 179.207031 L 33.042969 172.671875 L 37.566406 165.976562 L 42.964844 159.359375 L 47.332031 152.820312 L 48.445312 149.234375 C 49.078125 147.375 49.6875 146.445312 50.269531 146.445312 L 50.507812 146.761719 L 50.90625 145.566406 C 53.394531 139.136719 55.167969 135.097656 56.226562 133.449219 L 55.988281 132.890625 L 56.304688 132.175781 L 56.859375 132.175781 L 61.304688 119.738281 L 64.242188 111.289062 L 65.273438 106.664062 L 69.960938 87.371094 C 71.441406 82.855469 72.128906 76.238281 72.023438 67.523438 C 72.023438 58.0625 72.316406 52.003906 72.898438 49.347656 L 72.816406 49.347656 L 73.769531 42.011719 L 76.230469 25.910156 C 77.449219 21.390625 79.59375 17.085938 82.660156 12.996094 C 88.75 4.808594 96.765625 0.71875 106.71875 0.71875 C 114.019531 0.71875 119.949219 2.894531 124.5 7.253906 C 128.628906 11.242188 130.691406 15.863281 130.691406 21.125 C 130.375 29.257812 129.847656 34.039062 129.105469 35.476562 M 233.742188 113.121094 L 233.265625 110.332031 C 231.148438 96.566406 230.089844 86.46875 230.089844 80.039062 L 230.089844 76.691406 L 230.167969 75.09375 L 229.929688 75.09375 L 229.929688 61.382812 L 229.613281 53.730469 L 231.042969 53.730469 L 231.199219 45.199219 L 231.121094 36.671875 C 230.804688 33.960938 229.851562 30.878906 228.261719 27.421875 C 226.730469 24.234375 224.292969 21.257812 220.960938 18.496094 L 212.78125 14.347656 L 205.398438 13.3125 L 192.140625 12.515625 C 190.234375 13.152344 188.570312 13.976562 187.140625 14.988281 C 183.59375 17.484375 180.601562 21.738281 178.167969 27.742188 C 176.949219 30.664062 176.078125 33.828125 175.546875 37.230469 L 175.390625 40.339844 L 175.390625 40.496094 L 174.832031 45.917969 L 174.914062 45.996094 C 175.125 45.199219 175.917969 44.800781 177.296875 44.800781 L 178.804688 44.960938 L 178.484375 44.246094 C 178.484375 42.542969 179.066406 40.894531 180.234375 39.300781 L 182.296875 37.546875 L 181.660156 37.46875 L 181.582031 37.546875 L 184.597656 33.960938 L 187.933594 29.097656 C 190.316406 26.28125 192.988281 24.871094 195.953125 24.871094 C 197.59375 24.871094 198.414062 25.246094 198.414062 25.988281 L 198.332031 26.464844 L 197.777344 26.625 L 195.871094 26.226562 C 193.386719 26.226562 191.03125 27.582031 188.808594 30.292969 L 185.632812 34.917969 L 185.550781 34.996094 L 185.394531 34.917969 L 185.15625 34.996094 L 185.15625 35.234375 L 185.3125 35.316406 L 184.996094 35.632812 L 181.265625 40.65625 L 179.4375 45.199219 L 181.183594 46.15625 L 186.027344 41.691406 C 186.453125 41.691406 186.714844 41.90625 186.820312 42.332031 L 181.898438 46.875 L 183.328125 49.1875 L 184.519531 48.152344 C 186.214844 46.929688 188.515625 46.316406 191.425781 46.316406 L 195.316406 46.714844 L 195.632812 46.714844 C 200.34375 47.671875 203.707031 50.410156 205.71875 54.925781 L 210.480469 65.289062 L 210.402344 65.769531 L 209.925781 65.929688 C 209.394531 65.929688 208.761719 64.972656 208.019531 63.058594 L 205.398438 56.839844 C 203.652344 53.171875 201.613281 50.621094 199.285156 49.1875 L 198.414062 48.46875 L 198.175781 48.46875 L 198.175781 48.550781 C 196.90625 47.964844 195.554688 47.671875 194.125 47.671875 C 189.097656 47.671875 186.105469 48.175781 185.15625 49.1875 C 185.050781 50.195312 184.574219 50.703125 183.726562 50.703125 C 182.878906 52.667969 182.113281 53.863281 181.421875 54.289062 L 181.898438 55.164062 L 185.394531 63.058594 L 186.820312 67.601562 C 187.191406 69.355469 187.402344 72.359375 187.457031 76.609375 L 187.695312 76.53125 L 188.488281 81.710938 L 188.726562 82.988281 L 190.710938 95.902344 C 190.710938 96.539062 190.5 96.859375 190.078125 96.859375 C 189.707031 96.859375 189.175781 94.175781 188.488281 88.808594 L 187.855469 93.910156 L 187.695312 93.988281 L 188.171875 98.292969 C 188.699219 99.199219 189.042969 102.652344 189.203125 108.65625 L 189.042969 108.738281 L 189.125 109.535156 C 189.125 111.234375 188.9375 112.855469 188.570312 114.398438 L 188.332031 115.273438 L 187.933594 115.59375 L 188.171875 115.753906 L 186.980469 118.304688 C 186.1875 122.660156 185.445312 125.609375 184.757812 127.152344 C 182.90625 131.03125 181.6875 135.230469 181.105469 139.746094 L 180.46875 143.414062 C 181.160156 143.574219 182.21875 143.972656 183.644531 144.609375 L 184.28125 144.929688 L 185.15625 144.050781 L 184.996094 145.25 L 186.425781 146.046875 C 187.800781 146.789062 190.289062 148.4375 193.886719 150.988281 C 198.015625 154.015625 200.292969 155.878906 200.714844 156.570312 L 204.683594 161.828125 L 205.875 163.503906 L 205.636719 161.671875 L 205.636719 157.84375 C 205.636719 152.796875 205.929688 149.3125 206.511719 147.402344 L 206.511719 109.933594 L 206.75 109.613281 L 206.511719 109.613281 L 206.511719 105.867188 C 206.882812 103.105469 207.277344 101.722656 207.703125 101.722656 C 208.125 101.722656 208.335938 101.960938 208.335938 102.4375 L 208.335938 102.917969 L 207.859375 105.945312 L 207.859375 147.402344 C 207.277344 149.3125 206.988281 152.742188 206.988281 157.683594 L 207.621094 164.699219 L 207.144531 165.496094 L 207.382812 165.976562 L 208.097656 165.976562 L 207.941406 166.375 C 209.105469 167.753906 209.976562 172.007812 210.558594 179.128906 C 210.769531 182 210.796875 186.4375 210.640625 192.441406 C 210.746094 198.023438 211.0625 202.910156 211.589844 207.109375 C 212.015625 210.832031 212.226562 214.710938 212.226562 218.75 L 212.78125 219.386719 L 212.78125 253.269531 L 213.101562 255.578125 L 213.417969 259.964844 L 213.101562 263.550781 C 213.101562 266.050781 213.46875 267.988281 214.210938 269.371094 C 215.324219 271.390625 216.167969 273.96875 216.753906 277.105469 C 217.226562 279.816406 217.464844 284.253906 217.464844 290.417969 L 217.386719 295.441406 C 218.5 296.023438 221.222656 298.679688 225.5625 303.410156 L 226.914062 304.449219 L 226.992188 304.449219 C 227.46875 304.449219 230.25 306.308594 235.328125 310.027344 L 244.617188 314.332031 C 232.390625 304.074219 226.277344 289.140625 226.277344 269.53125 C 226.277344 263.257812 226.78125 258.371094 227.789062 254.863281 C 230.433594 245.402344 232.390625 240.671875 233.664062 240.671875 C 234.136719 240.671875 234.375 240.886719 234.375 241.308594 L 231.996094 248.085938 C 233.054688 249.363281 234.828125 252.921875 237.3125 258.769531 L 245.332031 270.007812 C 250.308594 276.707031 257.875 284.144531 268.039062 292.332031 L 268.117188 292.410156 L 268.117188 292.332031 C 260.179688 275.589844 256.210938 262.304688 256.210938 252.472656 C 256.421875 249.707031 256.710938 246.996094 257.082031 244.339844 C 257.503906 241.042969 257.929688 238.757812 258.351562 237.484375 L 258.589844 231.984375 L 259.226562 222.734375 C 259.648438 221.246094 259.859375 219.8125 259.859375 218.429688 L 259.859375 218.269531 L 259.78125 217.953125 L 259.542969 217.953125 L 259.382812 218.429688 L 259.621094 210.617188 C 259.621094 203.710938 258.75 197.464844 257.003906 191.882812 C 255.734375 188.800781 254.9375 186.597656 254.621094 185.265625 L 254.222656 185.1875 C 253.007812 178.808594 249.59375 171.660156 243.984375 163.742188 C 242.238281 162.308594 241.308594 161.113281 241.203125 160.15625 L 238.425781 156.726562 C 236.625 154.496094 235.488281 152.609375 235.011719 151.066406 C 232.894531 145.0625 231.835938 141.261719 231.835938 139.667969 C 231.835938 139.136719 232.046875 138.871094 232.472656 138.871094 L 233.105469 139.667969 L 233.105469 139.746094 L 233.1875 139.90625 L 233.265625 139.90625 C 233.953125 141.449219 234.878906 144.851562 236.042969 150.109375 C 237.367188 152.980469 239.378906 156.011719 242.078125 159.199219 C 243.03125 159.359375 244.007812 160.421875 245.015625 162.386719 C 245.4375 163.132812 246.839844 164.273438 249.222656 165.816406 C 254.355469 169.164062 259.941406 170.839844 265.972656 170.839844 C 275.925781 170.839844 283.121094 167.117188 287.566406 159.675781 L 289.792969 155.214844 L 288.28125 156.410156 L 286.933594 157.523438 L 286.855469 157.605469 L 286.457031 157.445312 L 285.742188 158.402344 L 278.359375 163.984375 C 277.140625 164.671875 275.050781 165.019531 272.085938 165.019531 C 265.839844 165.019531 260.707031 163.984375 256.683594 161.910156 C 254.039062 160.527344 250.226562 157.578125 245.253906 153.0625 C 240.171875 148.4375 237.632812 143.839844 237.632812 139.269531 C 237.632812 138.792969 237.738281 138.5 237.949219 138.394531 C 237.101562 134.671875 235.753906 126.699219 233.898438 114.476562 L 233.820312 113.121094 L 233.742188 112.800781 L 233.742188 113.121094 M 169.515625 51.417969 L 170.230469 52.457031 L 169.992188 52.457031 C 171.527344 55.695312 174.039062 62.128906 177.535156 71.746094 C 178.167969 73.5 178.671875 76.050781 179.042969 79.398438 C 180.257812 78.496094 181.527344 78.046875 182.851562 78.046875 C 184.121094 78.046875 185.179688 78.445312 186.027344 79.242188 C 185.394531 69.460938 183.882812 62.261719 181.503906 57.636719 C 176.949219 48.707031 170.042969 42.730469 160.78125 39.699219 C 155.699219 38 148.898438 37.148438 140.378906 37.148438 C 133.550781 37.148438 127.808594 39.089844 123.152344 42.96875 L 125.375 44.800781 C 126.328125 41.773438 128.152344 40.257812 130.851562 40.257812 C 131.75 40.257812 132.652344 40.523438 133.550781 41.054688 C 136.726562 39.355469 139.371094 38.503906 141.488281 38.503906 C 142.496094 38.503906 143.84375 39.089844 145.539062 40.257812 L 145.9375 40.179688 C 154.933594 40.179688 160.121094 40.816406 161.496094 42.089844 L 166.101562 46.316406 L 169.117188 50.78125 L 169.277344 50.703125 L 169.992188 51.339844 L 169.515625 51.339844 L 169.515625 51.417969 M 178.566406 49.824219 L 180.707031 53.011719 L 182.375 50.222656 C 182.375 49.851562 181.847656 49.132812 180.789062 48.070312 L 180.074219 47.433594 L 180.152344 47.113281 L 180.074219 46.796875 L 179.519531 47.035156 C 178.777344 46.503906 178.0625 46.238281 177.375 46.238281 L 176.105469 47.113281 L 178.167969 49.347656 L 178.167969 49.585938 L 178.246094 49.746094 L 178.566406 49.824219 M 168.640625 78.84375 L 171.183594 86.097656 L 172.132812 89.445312 L 172.132812 89.605469 L 173.167969 90.878906 L 173.324219 91.277344 L 173.722656 91.117188 L 173.324219 89.285156 L 173.085938 85.9375 L 171.339844 74.695312 L 171.660156 73.980469 C 169.277344 71.109375 167.925781 69.300781 167.609375 68.558594 L 167.847656 68.320312 L 167.769531 68.320312 L 167.449219 68.082031 C 167.503906 67.816406 167.742188 67.679688 168.164062 67.679688 C 168.960938 67.679688 170.363281 69.277344 172.371094 72.464844 L 174.675781 76.292969 L 176.820312 80.675781 L 179.042969 86.015625 L 179.199219 86.335938 L 179.121094 85.9375 L 179.042969 85.378906 L 179.28125 85.300781 L 179.28125 85.140625 L 178.644531 83.148438 L 176.5 72.625 C 171.84375 61.996094 169.039062 55.246094 168.085938 52.375 L 167.847656 51.976562 L 167.53125 51.417969 L 164.988281 47.113281 C 163.71875 45.519531 162.210938 44.164062 160.464844 43.046875 C 159.457031 42.464844 157.449219 42.117188 154.429688 42.011719 L 147.445312 41.773438 C 150.144531 44.003906 153.503906 47.433594 157.527344 52.058594 L 157.367188 52.296875 L 157.449219 52.296875 L 157.605469 52.375 L 157.050781 52.855469 L 150.777344 46.398438 C 146.914062 42.089844 143.820312 39.9375 141.488281 39.9375 L 136.886719 41.214844 L 135.21875 42.089844 C 135.746094 42.359375 136.804688 43.738281 138.394531 46.238281 C 138.394531 46.664062 138.183594 46.875 137.757812 46.875 L 134.902344 43.445312 C 133.472656 42.277344 132.09375 41.691406 130.773438 41.691406 C 128.8125 41.691406 127.410156 42.96875 126.566406 45.519531 C 126.140625 46.796875 125.902344 48.070312 125.851562 49.347656 C 125.851562 52.109375 126.539062 57.582031 127.914062 65.769531 L 128.3125 65.6875 C 128.417969 68.71875 128.867188 71.214844 129.660156 73.183594 L 134.503906 84.183594 L 138.871094 93.03125 L 140.378906 96.460938 L 140.617188 96.9375 L 140.617188 96.300781 L 140.777344 96.140625 L 140.617188 95.34375 L 140.695312 90.480469 L 140.695312 82.269531 C 140.75 79.1875 140.933594 77.007812 141.25 75.734375 C 140.457031 74.246094 140.0625 72.996094 140.0625 71.988281 L 140.0625 70.632812 L 140.140625 70.632812 L 140.300781 70.871094 L 140.695312 71.1875 L 140.777344 70.949219 L 140.539062 70.550781 L 140.695312 70.472656 L 142.125 74.140625 L 142.203125 74.378906 L 142.601562 75.09375 C 143.925781 77.59375 145.539062 79.800781 147.445312 81.710938 L 153.398438 86.972656 C 154.667969 88.726562 155.621094 89.605469 156.257812 89.605469 L 156.414062 89.445312 L 158.480469 91.117188 L 154.351562 80.675781 L 148.476562 67.921875 L 148.714844 68 L 148.875 67.839844 L 148.875 67.761719 L 148.792969 67.679688 L 148.636719 67.441406 C 148.742188 67.28125 148.953125 67.203125 149.269531 67.203125 C 149.957031 67.203125 151.574219 70.234375 154.113281 76.292969 L 154.191406 76.292969 C 154.511719 76.292969 156.042969 78.179688 158.796875 81.953125 C 161.65625 85.777344 163.773438 88.859375 165.148438 91.199219 L 168.960938 99.011719 L 170.546875 102.679688 L 170.625 102.757812 L 170.785156 103.238281 L 170.785156 102.199219 L 170.707031 99.886719 L 170.945312 94.226562 C 170.945312 89.285156 169.433594 83.574219 166.417969 77.089844 C 163.191406 70.125 159.351562 65.128906 154.90625 62.101562 L 154.90625 62.023438 L 154.191406 61.382812 L 154.191406 60.507812 L 154.828125 60.347656 C 155.726562 60.347656 158.636719 63.402344 163.558594 69.515625 L 163.957031 69.992188 L 165.308594 71.90625 C 166.578125 73.875 167.6875 76.183594 168.640625 78.84375 M 124.261719 37.945312 L 124.023438 38.027344 L 124.101562 38.183594 L 123.867188 38.34375 C 122.648438 39.621094 121.878906 40.710938 121.5625 41.613281 C 121.988281 41.773438 122.277344 41.957031 122.4375 42.171875 L 125.136719 40.257812 L 125.53125 40.417969 L 125.53125 40.019531 C 126.855469 39.117188 128.257812 38.398438 129.738281 37.867188 C 128.683594 36.699219 127.914062 36.113281 127.4375 36.113281 C 126.539062 36.113281 125.480469 36.722656 124.261719 37.945312 M 120.929688 80.355469 L 121.007812 80.355469 L 121.085938 79.957031 L 121.5625 78.761719 L 124.101562 72.703125 C 125.320312 70.046875 126.300781 68.664062 127.039062 68.558594 C 126.617188 66.859375 126.167969 63.933594 125.691406 59.789062 C 124.898438 53.996094 124.5 50.515625 124.5 49.347656 L 124.976562 46.078125 L 123.390625 44.800781 L 123.152344 44.484375 L 122.992188 44.324219 L 122.992188 44.402344 C 122.304688 43.765625 121.75 43.445312 121.324219 43.445312 C 120.109375 43.445312 118.917969 44.457031 117.753906 46.476562 C 117.011719 47.167969 116.324219 48.175781 115.6875 49.503906 L 113.863281 53.808594 L 113.066406 56.042969 L 108.464844 67.363281 L 104.890625 76.050781 L 104.890625 76.132812 L 101 86.175781 L 103.78125 82.507812 L 103.78125 82.429688 L 103.9375 82.269531 L 104.574219 81.472656 L 104.574219 81.632812 L 104.96875 81.234375 L 104.96875 80.996094 L 106.003906 79.558594 C 106.425781 76.957031 107.007812 75.652344 107.75 75.652344 L 107.988281 75.734375 L 108.066406 76.050781 L 108.304688 76.050781 L 108.382812 75.894531 L 108.542969 76.371094 L 106.636719 87.132812 L 106.71875 88.011719 L 107.191406 89.765625 L 107.351562 90.960938 L 107.667969 94.546875 L 107.667969 95.023438 L 107.828125 96.140625 L 108.382812 100.605469 L 109.179688 102.4375 C 108.914062 100.101562 108.726562 97.230469 108.621094 93.828125 L 108.621094 89.445312 L 108.859375 86.65625 L 109.496094 85.539062 L 110.050781 85.539062 L 110.050781 85.140625 L 110.210938 85.21875 L 110.289062 87.054688 L 109.972656 93.828125 C 109.972656 97.285156 110.316406 100.816406 111.003906 104.433594 C 111.214844 101.5625 111.773438 98.558594 112.671875 95.425781 L 112.75 95.503906 L 112.988281 95.265625 L 113.066406 94.226562 L 114.339844 90.320312 C 114.550781 86.390625 115.027344 83.597656 115.765625 81.953125 C 117.726562 77.0625 118.917969 74.351562 119.339844 73.820312 L 119.578125 73.980469 L 119.816406 73.742188 L 120.054688 74.378906 L 117.992188 80.199219 C 118.203125 80.25 118.308594 80.464844 118.308594 80.835938 L 117.992188 82.988281 C 117.992188 84.636719 118.148438 86.308594 118.464844 88.011719 L 119.65625 83.945312 L 120.929688 80.4375 L 120.929688 80.355469 M 92.347656 113.757812 L 92.1875 114.078125 L 92.269531 114.238281 L 92.1875 114.476562 L 90.839844 123.007812 L 88.933594 136.398438 C 88.40625 139.90625 87.902344 141.660156 87.425781 141.660156 C 86.84375 141.660156 86.550781 141.449219 86.550781 141.023438 C 86.976562 140.386719 87.1875 139.5625 87.1875 138.550781 L 87.1875 136.082031 C 87.1875 134.699219 87.453125 133.023438 87.980469 131.058594 C 88.667969 126.382812 89.304688 123.058594 89.886719 121.09375 L 89.964844 121.015625 L 90.125 121.015625 L 90.203125 120.375 L 90.203125 120.214844 C 90.839844 117.71875 91.394531 114.6875 91.871094 111.128906 C 92.03125 104.589844 92.375 101.324219 92.902344 101.324219 C 93.273438 101.324219 93.484375 101.773438 93.539062 102.679688 L 93.539062 104.035156 C 93.539062 105.097656 93.140625 108.339844 92.347656 113.757812 M 181.183594 206.394531 C 181.609375 204.425781 182.191406 203.445312 182.933594 203.445312 C 183.515625 203.445312 183.726562 203.734375 183.566406 204.320312 L 183.328125 206.074219 C 183.699219 207.296875 184.070312 210.085938 184.441406 214.445312 C 185.179688 221.992188 185.761719 226.773438 186.1875 228.792969 C 188.039062 237.296875 189.097656 244.339844 189.363281 249.917969 L 189.519531 251.753906 C 189.628906 267.21875 189.070312 275.351562 187.855469 276.148438 L 188.09375 276.464844 C 188.09375 276.890625 187.90625 277.105469 187.535156 277.105469 C 186.53125 277.105469 185.261719 275.75 183.726562 273.039062 C 182.347656 270.699219 181.398438 268.574219 180.867188 266.660156 L 178.40625 256.136719 C 176.554688 249.652344 175.628906 242.664062 175.628906 235.171875 L 175.628906 231.34375 L 175.707031 229.589844 L 175.628906 228.953125 L 175.628906 227.121094 L 176.023438 222.496094 C 176.238281 220.636719 176.476562 219.359375 176.738281 218.667969 L 176.660156 218.269531 L 180.390625 210.855469 L 181.183594 206.394531 M 186.980469 274.472656 C 187.878906 268.574219 188.332031 262.4375 188.332031 256.058594 L 188.332031 254.382812 L 188.09375 254.304688 C 188.039062 248.832031 187.058594 240.886719 185.15625 230.46875 C 183.515625 221.644531 182.585938 214.605469 182.375 209.34375 L 180.945312 212.851562 L 178.007812 218.589844 L 178.007812 218.828125 L 176.898438 224.648438 C 176.792969 225.605469 176.765625 227.039062 176.820312 228.953125 C 177.082031 230.65625 177.109375 234.320312 176.898438 239.953125 C 177.425781 245.375 178.089844 249.441406 178.882812 252.152344 C 179.675781 254.863281 180.578125 258.953125 181.582031 264.429688 C 182.164062 267.777344 183.832031 271.203125 186.582031 274.710938 L 186.980469 275.191406 L 186.980469 274.472656 M 18.277344 192.363281 L 18.671875 192.363281 L 19.386719 191.726562 L 23.039062 189.730469 L 38.441406 177.855469 L 38.757812 177.933594 L 40.585938 172.671875 L 40.742188 172.433594 L 40.824219 172.273438 L 40.664062 172.433594 L 43.125 166.136719 L 47.09375 155.691406 L 43.761719 160.632812 L 33.917969 173.628906 C 31.429688 176.5 26.320312 180.882812 18.59375 186.78125 L 2.796875 198.738281 L 18.195312 192.28125 L 18.277344 192.363281 M 62.101562 122.289062 L 62.179688 121.570312 L 62.179688 122.050781 L 62.101562 122.289062 M 89.011719 212.769531 L 91.078125 218.910156 L 92.824219 224.570312 L 92.269531 224.570312 L 92.824219 228.15625 C 92.984375 229.589844 93.0625 231.054688 93.0625 232.539062 C 93.0625 234.292969 92.292969 237.296875 90.757812 241.550781 L 87.664062 249.601562 C 84.0625 260.816406 81.207031 266.421875 79.089844 266.421875 L 78.296875 266.261719 L 78.296875 265.703125 C 77.023438 264.855469 74.855469 261.503906 71.785156 255.660156 L 66.703125 245.535156 L 62.257812 235.332031 C 61.359375 232.195312 59.824219 229.113281 57.652344 226.082031 L 57.496094 225.84375 L 57.496094 226.164062 L 56.542969 225.128906 L 56.542969 224.089844 L 56.699219 224.011719 C 56.859375 223.375 58.710938 221.378906 62.257812 218.03125 L 69.085938 211.972656 C 71.148438 209.421875 73.425781 207.484375 75.914062 206.152344 C 80.148438 202.59375 82.925781 200.8125 84.25 200.8125 L 84.328125 200.8125 L 84.648438 200.890625 L 84.882812 200.8125 C 85.148438 200.8125 85.785156 202.0625 86.789062 204.558594 L 89.410156 207.351562 L 89.488281 207.429688 L 90.046875 207.90625 L 90.046875 208.226562 C 90.046875 209.34375 89.699219 210.855469 89.011719 212.769531 M 58.128906 224.488281 C 59.03125 224.914062 60.167969 226.535156 61.542969 229.351562 L 63.527344 234.535156 L 67.738281 244.738281 L 72.976562 255.023438 C 73.980469 257.09375 76.019531 260.230469 79.089844 264.429688 C 81.3125 261.503906 83.984375 255.898438 87.109375 247.609375 C 90.230469 239.265625 91.792969 234.242188 91.792969 232.539062 L 91.078125 224.808594 L 91.234375 224.089844 C 90.867188 222.601562 90.308594 220.957031 89.570312 219.148438 C 88.296875 216.011719 87.664062 213.886719 87.664062 212.769531 L 88.617188 208.304688 C 86.710938 207.296875 85.652344 206.285156 85.441406 205.277344 L 84.328125 202.089844 L 70.039062 213.011719 L 63.609375 218.910156 L 57.972656 224.25 L 57.972656 224.328125 L 58.128906 224.488281 M 84.410156 224.570312 L 83.851562 224.570312 L 84.171875 224.488281 L 84.410156 224.570312 M 58.128906 271.046875 L 58.289062 271.046875 L 62.496094 277.023438 L 67.417969 283.003906 L 67.894531 283.480469 C 67.894531 284.652344 66.703125 286.511719 64.324219 289.0625 L 59.796875 293.84375 C 58.792969 295.171875 57.203125 296.609375 55.035156 298.148438 C 51.382812 300.699219 47.730469 301.976562 44.078125 301.976562 C 43.65625 301.976562 43.441406 301.738281 43.441406 301.257812 L 43.679688 301.179688 L 43.441406 300.78125 L 43.441406 300.699219 C 48.417969 294.800781 51.621094 289.804688 53.050781 285.714844 L 57.890625 270.566406 L 58.128906 271.046875 M 55.90625 268.972656 C 55.90625 270.195312 51.539062 273.117188 42.808594 277.742188 L 37.328125 281.96875 L 33.28125 286.429688 L 32.804688 286.429688 L 32.40625 286.273438 L 32.40625 285.15625 C 34.894531 275.75 36.058594 269.398438 35.902344 266.101562 C 36.324219 257.757812 36.5625 251.40625 36.617188 247.050781 L 37.25 246.890625 C 37.410156 246.890625 37.542969 246.96875 37.648438 247.128906 L 37.804688 247.128906 C 38.335938 247.128906 41.40625 250.796875 47.015625 258.132812 C 52.941406 264.5625 55.90625 268.148438 55.90625 268.894531 L 55.90625 268.972656 M 54.082031 268.894531 C 51.859375 266.714844 46.484375 260.015625 37.964844 248.804688 L 37.886719 250 C 37.886719 252.761719 37.648438 255.871094 37.171875 259.328125 L 37.171875 268.335938 C 37.171875 270.515625 36.773438 273.542969 35.980469 277.421875 L 34.710938 283.082031 L 36.933594 281.011719 L 42.09375 276.707031 L 49.078125 272.242188 L 54.082031 268.894531 M 24.390625 221.9375 C 23.382812 225.550781 22.878906 228.632812 22.878906 231.1875 L 24.070312 241.867188 L 24.945312 247.6875 C 24.996094 244.339844 25.34375 241.683594 25.976562 239.714844 C 26.71875 235.675781 27.457031 233.097656 28.199219 231.984375 L 24.390625 221.9375 M 58.449219 273.117188 C 58.023438 275.667969 56.59375 280.1875 54.160156 286.671875 L 49.953125 294.164062 L 45.507812 300.621094 L 53.367188 297.671875 C 55.535156 296.609375 57.335938 295.066406 58.765625 293.046875 L 66.546875 283.722656 C 65.0625 283.453125 62.363281 279.921875 58.449219 273.117188 "/>
<path style=" stroke:none;fill-rule:evenodd;fill:rgb(72.549021%,72.549021%,25.490198%);fill-opacity:1;" d="M 233.820312 125.078125 L 233.820312 125.160156 L 233.742188 125.078125 L 233.820312 125.078125 M 200.554688 105.546875 L 200.636719 105.628906 L 200.554688 105.628906 L 200.554688 105.546875 M 193.886719 106.027344 L 193.808594 106.027344 L 193.808594 105.945312 L 193.886719 106.027344 M 193.730469 105.867188 L 193.648438 105.789062 L 193.730469 105.867188 "/>
<path style=" stroke:none;fill-rule:evenodd;fill:rgb(32.549021%,14.901961%,16.470589%);fill-opacity:1;" d="M 180.074219 47.433594 L 180.789062 48.070312 C 181.847656 49.132812 182.375 49.851562 182.375 50.222656 L 180.707031 53.011719 L 178.566406 49.824219 L 180.074219 47.433594 M 124.261719 37.945312 C 125.480469 36.722656 126.539062 36.113281 127.4375 36.113281 C 127.914062 36.113281 128.683594 36.699219 129.738281 37.867188 C 128.257812 38.398438 126.855469 39.117188 125.53125 40.019531 C 125.425781 38.636719 125.003906 37.945312 124.261719 37.945312 "/>
<path style=" stroke:none;fill-rule:evenodd;fill:rgb(60.392159%,18.82353%,21.176471%);fill-opacity:1;" d="M 180.074219 47.433594 L 178.566406 49.824219 L 178.246094 49.746094 L 178.167969 49.585938 L 178.167969 49.347656 L 176.105469 47.113281 L 177.375 46.238281 C 178.0625 46.238281 178.777344 46.503906 179.519531 47.035156 L 180.074219 46.796875 L 180.152344 47.113281 L 180.074219 47.433594 M 125.53125 40.019531 L 125.53125 40.417969 L 125.136719 40.257812 L 122.4375 42.171875 C 122.277344 41.957031 121.988281 41.773438 121.5625 41.613281 C 121.878906 40.710938 122.648438 39.621094 123.867188 38.34375 L 124.101562 38.183594 L 124.023438 38.027344 L 124.261719 37.945312 C 125.003906 37.945312 125.425781 38.636719 125.53125 40.019531 "/>
<path style=" stroke:none;fill-rule:evenodd;fill:rgb(25.098041%,25.098041%,25.882354%);fill-opacity:1;" d="M 120.609375 14.03125 C 122.355469 17.804688 123.390625 20.488281 123.707031 22.082031 C 122.066406 21.074219 120.503906 20.566406 119.023438 20.566406 L 118.863281 20.566406 L 118.703125 20.726562 C 115.582031 18.015625 112.140625 16.660156 108.382812 16.660156 C 107.800781 16.660156 107.511719 16.902344 107.511719 17.378906 C 107.511719 17.855469 108.859375 18.363281 111.558594 18.894531 L 116.878906 20.328125 L 120.132812 24.15625 L 118.863281 23.515625 L 113.148438 22.640625 C 109.761719 22.640625 107.800781 22.90625 107.273438 23.4375 L 113.863281 28.777344 C 107.882812 31.542969 104.890625 33.242188 104.890625 33.878906 L 104.96875 34.121094 L 110.6875 34.679688 L 109.019531 36.832031 L 108.859375 36.910156 L 108.941406 37.230469 C 106.609375 38.238281 105.023438 39.648438 104.175781 41.453125 L 101.875 46.636719 L 98.300781 57 C 98.144531 57.742188 98.40625 58.117188 99.09375 58.117188 L 102.589844 48.070312 C 103.859375 44.988281 105.183594 42.625 106.558594 40.976562 L 104.730469 50.304688 L 104.8125 51.417969 L 105.605469 51.417969 C 108.25 50.515625 110.261719 49.636719 111.640625 48.789062 L 111.640625 48.867188 L 111.558594 49.347656 L 111.242188 49.1875 C 108.066406 52.429688 104.363281 60.347656 100.128906 72.941406 L 96.871094 84.902344 L 93.0625 96.859375 L 92.984375 97.019531 L 93.0625 97.496094 L 93.457031 97.578125 L 93.777344 97.578125 L 94.570312 97.496094 L 94.648438 104.273438 C 94.648438 105.65625 93.882812 108.816406 92.347656 113.757812 C 93.140625 108.339844 93.539062 105.097656 93.539062 104.035156 L 93.539062 102.679688 C 93.484375 101.773438 93.273438 101.324219 92.902344 101.324219 C 92.375 101.324219 92.03125 104.589844 91.871094 111.128906 C 91.394531 114.6875 90.839844 117.71875 90.203125 120.214844 L 88.535156 114.957031 L 88.535156 115.035156 L 88.296875 114.15625 L 88.140625 113.679688 L 88.058594 113.441406 C 87.53125 113.652344 85.703125 117.878906 82.582031 126.117188 L 77.660156 139.03125 C 75.808594 144.71875 72.5 153.21875 67.738281 164.539062 L 67.816406 155.292969 C 67.550781 150.03125 67.207031 147.003906 66.785156 146.203125 C 65.988281 147.746094 65.117188 150.324219 64.164062 153.9375 L 61.542969 160.632812 L 60.273438 160.632812 C 57.996094 164.460938 54.980469 168.820312 51.222656 173.707031 L 51.222656 168.84375 L 55.273438 156.886719 L 57.8125 145.804688 L 58.050781 144.929688 L 57.496094 144.769531 L 57.019531 145.40625 L 53.128906 150.667969 L 49 155.53125 L 57.496094 133.769531 L 57.652344 133.769531 L 58.210938 133.609375 L 58.449219 132.175781 C 58.871094 129.304688 60.0625 125.769531 62.019531 121.570312 L 62.101562 121.492188 L 62.257812 121.171875 L 63.765625 116.070312 C 64.507812 114 65.144531 112.535156 65.671875 111.6875 C 66.253906 109.878906 66.546875 108.816406 66.546875 108.496094 L 66.386719 108.257812 C 67.972656 100.285156 69.457031 94.148438 70.832031 89.84375 C 71.363281 88.300781 72.183594 85.007812 73.292969 79.957031 L 73.292969 70.152344 C 74.035156 60.585938 74.40625 53.996094 74.40625 50.382812 L 74.484375 49.347656 L 74.40625 49.105469 L 74.324219 48.390625 L 74.722656 44.484375 C 75.621094 36.191406 76.46875 30.53125 77.261719 27.503906 C 81.710938 10.550781 91.449219 2.074219 106.480469 2.074219 C 111.71875 2.074219 116.457031 3.320312 120.691406 5.820312 C 126.511719 9.222656 129.421875 14.296875 129.421875 21.046875 L 129.265625 23.757812 L 126.167969 18.8125 L 123.308594 15.785156 L 120.929688 13.792969 L 120.691406 13.792969 L 120.609375 14.03125 M 106.082031 102.597656 C 105.871094 107.859375 105.367188 113.121094 104.574219 118.382812 L 103.066406 110.890625 C 103.277344 107.433594 103.066406 104.9375 102.429688 103.394531 L 102.191406 102.917969 L 102.03125 103.238281 L 99.570312 109.054688 L 98.144531 101.082031 C 97.824219 99.4375 97.375 97.949219 96.792969 96.621094 C 98.382812 95.769531 100.472656 94.414062 103.066406 92.554688 C 102.589844 94.785156 103.59375 98.132812 106.082031 102.597656 M 175.390625 40.339844 L 175.546875 37.230469 C 176.078125 33.828125 176.949219 30.664062 178.167969 27.742188 C 180.601562 21.738281 183.59375 17.484375 187.140625 14.988281 C 188.570312 13.976562 190.234375 13.152344 192.140625 12.515625 L 205.398438 13.3125 L 212.78125 14.347656 L 220.960938 18.496094 C 224.292969 21.257812 226.730469 24.234375 228.261719 27.421875 C 229.851562 30.878906 230.804688 33.960938 231.121094 36.671875 L 231.199219 45.199219 L 231.042969 53.730469 L 229.613281 53.730469 L 229.929688 61.382812 L 229.929688 75.09375 L 230.167969 75.09375 L 230.089844 76.691406 L 230.089844 80.039062 C 230.089844 86.46875 231.148438 96.566406 233.265625 110.332031 L 233.742188 113.121094 L 233.820312 113.121094 L 233.898438 114.476562 C 235.753906 126.699219 237.101562 134.671875 237.949219 138.394531 C 237.738281 138.5 237.632812 138.792969 237.632812 139.269531 C 237.632812 143.839844 240.171875 148.4375 245.253906 153.0625 C 250.226562 157.578125 254.039062 160.527344 256.683594 161.910156 C 260.707031 163.984375 265.839844 165.019531 272.085938 165.019531 C 275.050781 165.019531 277.140625 164.671875 278.359375 163.984375 L 285.742188 158.402344 L 280.582031 164.460938 C 277.722656 166.957031 274.257812 168.207031 270.183594 168.207031 C 262.347656 168.207031 257.292969 167.753906 255.019531 166.851562 L 252.558594 164.382812 C 250.226562 160.609375 248.613281 158.722656 247.714844 158.722656 C 247.078125 158.722656 246.761719 159.519531 246.761719 161.113281 L 246.683594 161.113281 C 240.382812 154.46875 236.28125 146.710938 234.375 137.835938 L 234.21875 137.039062 C 233.476562 137.410156 233.105469 138.285156 233.105469 139.667969 L 232.472656 138.871094 C 232.046875 138.871094 231.835938 139.136719 231.835938 139.667969 C 231.835938 141.261719 232.894531 145.0625 235.011719 151.066406 C 235.488281 152.609375 236.625 154.496094 238.425781 156.726562 L 241.203125 160.15625 C 241.308594 161.113281 242.238281 162.308594 243.984375 163.742188 C 249.59375 171.660156 253.007812 178.808594 254.222656 185.1875 L 254.621094 185.265625 C 254.9375 186.597656 255.734375 188.800781 257.003906 191.882812 C 258.75 197.464844 259.621094 203.710938 259.621094 210.617188 L 259.382812 218.429688 C 258.433594 221.460938 257.929688 223.71875 257.875 225.207031 L 256.367188 216.039062 C 255.734375 212.476562 254.886719 209.421875 253.828125 206.871094 C 249.59375 194.648438 247.027344 188.535156 246.125 188.535156 L 245.886719 188.695312 L 245.171875 203.921875 L 243.507812 219.070312 C 240.753906 211.574219 238.1875 206.152344 235.804688 202.804688 L 233.980469 219.148438 L 230.488281 196.667969 C 229.746094 191.777344 229.453125 188.03125 229.613281 185.425781 L 228.421875 174.105469 L 228.34375 174.105469 C 228.34375 167.464844 227.3125 156.726562 225.246094 141.898438 L 225.246094 103.953125 L 225.644531 104.988281 L 225.644531 103.476562 C 223.261719 94.972656 221.144531 88.515625 219.292969 84.105469 C 216.859375 94.414062 215.296875 111.316406 214.609375 134.804688 L 211.75 118.863281 L 210.796875 110.648438 C 210.375 107.566406 209.605469 104.964844 208.496094 102.835938 L 208.417969 102.757812 L 208.335938 102.757812 L 208.335938 102.4375 C 208.335938 101.960938 208.125 101.722656 207.703125 101.722656 C 207.277344 101.722656 206.882812 103.105469 206.511719 105.867188 L 206.511719 109.453125 L 206.113281 109.453125 C 205.425781 110.515625 204.976562 111.871094 204.765625 113.519531 L 204.289062 117.507812 L 201.03125 105.628906 L 200.714844 104.511719 L 200.316406 105.390625 C 198.996094 108.578125 197.964844 112.484375 197.222656 117.109375 L 195.316406 129.941406 L 193.96875 119.898438 L 194.363281 110.648438 L 194.285156 105.867188 L 194.207031 104.511719 L 193.730469 105.789062 L 193.648438 105.789062 L 193.570312 105.945312 C 190.976562 110.25 189.441406 113.09375 188.964844 114.476562 L 188.570312 114.398438 C 188.9375 112.855469 189.125 111.234375 189.125 109.535156 L 189.042969 108.738281 L 189.203125 108.65625 C 189.042969 102.652344 188.699219 99.199219 188.171875 98.292969 L 187.695312 93.988281 L 187.855469 93.910156 L 188.488281 88.808594 C 189.175781 94.175781 189.707031 96.859375 190.078125 96.859375 C 190.5 96.859375 190.710938 96.539062 190.710938 95.902344 L 188.726562 82.988281 L 188.488281 81.710938 L 187.695312 76.53125 L 187.457031 76.609375 C 187.402344 72.359375 187.191406 69.355469 186.820312 67.601562 L 185.394531 63.058594 L 185.394531 62.976562 C 188.25 66.167969 192.671875 72.570312 198.652344 82.191406 L 199.445312 83.546875 L 199.761719 83.464844 L 199.605469 82.03125 C 198.757812 74.484375 197.144531 68.851562 194.761719 65.128906 L 194.761719 65.050781 L 201.113281 70.550781 L 201.191406 67.28125 L 201.03125 63.535156 L 199.128906 57.875 L 203.335938 61.066406 L 203.574219 60.1875 C 203.574219 58.433594 203.125 56.363281 202.222656 53.96875 C 201.324219 51.738281 200.34375 50.144531 199.285156 49.1875 C 201.613281 50.621094 203.652344 53.171875 205.398438 56.839844 L 208.019531 63.058594 C 208.761719 64.972656 209.394531 65.929688 209.925781 65.929688 L 210.402344 65.769531 L 210.480469 65.289062 L 205.71875 54.925781 C 203.707031 50.410156 200.34375 47.671875 195.632812 46.714844 L 197.460938 45.917969 L 201.191406 45.996094 C 202.886719 46.265625 204.15625 45.917969 205.003906 44.960938 L 204.128906 44.5625 L 203.96875 44.484375 C 202.859375 42.625 200.132812 41.691406 195.792969 41.691406 L 195.554688 41.691406 L 195.554688 41.773438 L 195.632812 42.011719 L 194.285156 41.613281 L 201.351562 36.03125 C 198.492188 35.078125 194.574219 34.597656 189.601562 34.597656 L 186.503906 34.679688 L 186.265625 34.597656 L 186.027344 34.757812 L 185.949219 34.835938 L 185.789062 35.078125 L 185.632812 34.917969 L 188.808594 30.292969 C 191.03125 27.582031 193.386719 26.226562 195.871094 26.226562 L 197.777344 26.625 L 198.332031 26.464844 L 198.414062 25.988281 C 198.414062 25.246094 197.59375 24.871094 195.953125 24.871094 C 192.988281 24.871094 190.316406 26.28125 187.933594 29.097656 L 184.597656 33.960938 L 181.582031 37.546875 L 179.199219 38.902344 L 179.199219 38.027344 L 180.234375 33.960938 L 180.234375 32.765625 L 179.4375 32.683594 L 177.214844 36.273438 C 176.105469 38.238281 175.496094 39.59375 175.390625 40.339844 M 233.820312 125.078125 L 233.742188 125.078125 L 233.820312 125.160156 L 233.820312 125.078125 M 167.449219 68.082031 L 164.273438 66.167969 C 164.222656 66.167969 164.144531 66.21875 164.035156 66.328125 L 169.117188 78.601562 L 168.640625 78.84375 C 167.6875 76.183594 166.578125 73.875 165.308594 71.90625 L 163.957031 69.992188 L 163.558594 69.515625 C 158.636719 63.402344 155.726562 60.347656 154.828125 60.347656 L 154.191406 60.507812 L 154.191406 61.382812 C 153.503906 60.851562 152.789062 60.585938 152.050781 60.585938 L 151.652344 60.585938 L 151.652344 60.667969 L 150.460938 60.1875 L 150.0625 60.269531 L 150.144531 60.425781 L 157.6875 70.949219 C 160.648438 75.253906 162.503906 78.761719 163.242188 81.472656 L 169.195312 98.691406 L 168.960938 99.011719 L 165.148438 91.199219 C 163.773438 88.859375 161.65625 85.777344 158.796875 81.953125 C 156.042969 78.179688 154.511719 76.292969 154.191406 76.292969 L 154.113281 76.292969 C 151.574219 70.234375 149.957031 67.203125 149.269531 67.203125 C 148.953125 67.203125 148.742188 67.28125 148.636719 67.441406 C 147.945312 66.539062 146.597656 65.980469 144.585938 65.769531 L 144.585938 65.527344 L 143.078125 65.527344 C 143.871094 69.566406 145.433594 73.632812 147.761719 77.726562 C 150.039062 81.925781 151.917969 85.007812 153.398438 86.972656 L 147.445312 81.710938 C 145.539062 79.800781 143.925781 77.59375 142.601562 75.09375 L 142.203125 74.378906 L 142.125 74.140625 L 140.695312 70.472656 L 140.539062 70.550781 C 139.003906 67.523438 137.386719 65.371094 135.695312 64.09375 C 135.484375 64.574219 135.375 65.929688 135.375 68.160156 C 135.375 72.625 135.878906 77.167969 136.886719 81.792969 L 140.378906 96.378906 L 140.378906 96.460938 L 138.871094 93.03125 L 134.503906 84.183594 L 129.660156 73.183594 C 128.867188 71.214844 128.417969 68.71875 128.3125 65.6875 L 127.914062 65.769531 C 126.539062 57.582031 125.851562 52.109375 125.851562 49.347656 C 125.902344 48.070312 126.140625 46.796875 126.566406 45.519531 C 127.410156 42.96875 128.8125 41.691406 130.773438 41.691406 C 132.09375 41.691406 133.472656 42.277344 134.902344 43.445312 L 137.757812 46.875 C 138.183594 46.875 138.394531 46.664062 138.394531 46.238281 C 136.804688 43.738281 135.746094 42.359375 135.21875 42.089844 L 136.886719 41.214844 L 141.488281 39.9375 C 143.820312 39.9375 146.914062 42.089844 150.777344 46.398438 L 157.050781 52.855469 L 157.605469 52.375 L 157.765625 52.375 L 158.242188 52.296875 C 158.242188 49.636719 158.71875 48.308594 159.671875 48.308594 C 161.417969 48.308594 163.453125 50.753906 165.785156 55.644531 L 170.308594 66.726562 L 174.914062 76.132812 L 174.675781 76.292969 L 172.371094 72.464844 C 170.363281 69.277344 168.960938 67.679688 168.164062 67.679688 C 167.742188 67.679688 167.503906 67.816406 167.449219 68.082031 M 120.929688 80.4375 L 119.65625 83.945312 L 118.464844 88.011719 C 118.148438 86.308594 117.992188 84.636719 117.992188 82.988281 L 118.308594 80.835938 C 118.308594 80.464844 118.203125 80.25 117.992188 80.199219 L 120.054688 74.378906 L 119.816406 73.742188 L 119.816406 73.660156 C 118.597656 71.746094 117.644531 70.789062 116.957031 70.789062 L 116.5625 70.871094 C 115.503906 73.582031 114.445312 77.246094 113.386719 81.871094 C 112.699219 84.316406 112.355469 87.902344 112.355469 92.632812 C 112.355469 94.121094 112.460938 95.050781 112.671875 95.425781 C 111.773438 98.558594 111.214844 101.5625 111.003906 104.433594 C 110.316406 100.816406 109.972656 97.285156 109.972656 93.828125 L 110.289062 87.054688 L 110.210938 85.21875 L 110.050781 85.140625 L 110.050781 82.667969 L 109.894531 82.507812 L 109.574219 82.507812 C 109.679688 83.359375 109.308594 84.660156 108.464844 86.414062 L 108.464844 86.496094 C 107.722656 87.984375 107.300781 89.074219 107.191406 89.765625 L 106.71875 88.011719 L 106.636719 87.132812 L 108.542969 76.371094 L 108.382812 75.894531 L 108.621094 74.539062 C 108.78125 73.632812 108.488281 73.183594 107.75 73.183594 C 106.691406 73.183594 105.84375 74.21875 105.207031 76.292969 L 104.890625 76.050781 L 108.464844 67.363281 L 113.066406 56.042969 L 113.863281 53.808594 L 115.6875 49.503906 C 116.324219 48.175781 117.011719 47.167969 117.753906 46.476562 C 118.917969 44.457031 120.109375 43.445312 121.324219 43.445312 C 121.75 43.445312 122.304688 43.765625 122.992188 44.402344 L 121.484375 50.304688 C 121.113281 51.417969 120.929688 53.464844 120.929688 56.441406 C 120.929688 62.445312 121.273438 67.203125 121.960938 70.710938 C 121.960938 72.199219 121.511719 74.722656 120.609375 78.285156 L 120.691406 80.355469 L 120.929688 80.4375 M 104.574219 81.472656 L 103.9375 82.269531 L 103.78125 82.429688 L 103.78125 82.507812 L 101 86.175781 L 104.890625 76.132812 L 105.207031 76.292969 C 104.730469 77.78125 104.492188 79 104.492188 79.957031 L 104.492188 81.074219 L 104.574219 81.472656 M 18.195312 192.28125 L 2.796875 198.738281 L 18.59375 186.78125 C 26.320312 180.882812 31.429688 176.5 33.917969 173.628906 L 43.761719 160.632812 L 47.09375 155.691406 L 43.125 166.136719 L 40.664062 172.433594 L 40.503906 172.59375 L 33.996094 179.050781 L 33.835938 177.613281 L 25.261719 184.628906 L 18.195312 192.125 L 18.195312 192.28125 M 62.101562 122.289062 L 62.179688 122.050781 L 62.179688 121.570312 L 62.101562 122.289062 "/>
<path style=" stroke:none;fill-rule:evenodd;fill:rgb(13.725491%,13.725491%,13.725491%);fill-opacity:1;" d="M 120.609375 14.03125 L 120.929688 13.792969 L 123.308594 15.785156 L 126.167969 18.8125 L 129.265625 23.757812 L 129.105469 23.914062 L 129.265625 23.914062 L 127.914062 34.679688 L 127.835938 34.679688 L 127.039062 34.757812 C 126.988281 32.3125 125.453125 29.019531 122.4375 24.871094 L 118.941406 20.964844 L 119.023438 20.566406 C 120.503906 20.566406 122.066406 21.074219 123.707031 22.082031 C 123.390625 20.488281 122.355469 17.804688 120.609375 14.03125 M 120.132812 24.15625 L 120.691406 24.554688 L 120.609375 24.792969 L 121.167969 25.429688 C 122.382812 27.078125 124.078125 30.292969 126.246094 35.078125 L 123.46875 37.070312 C 123.152344 36.273438 122.332031 35.316406 121.007812 34.199219 L 116.957031 30.851562 C 116.535156 30.851562 116.324219 31.089844 116.324219 31.570312 L 119.816406 34.917969 L 122.59375 37.945312 L 120.929688 40.019531 L 118.464844 38.503906 C 116.085938 37.28125 113.863281 36.671875 111.796875 36.671875 L 109.972656 36.75 L 109.257812 37.070312 L 109.019531 36.832031 L 110.6875 34.679688 L 104.96875 34.121094 L 104.890625 33.878906 C 104.890625 33.242188 107.882812 31.542969 113.863281 28.777344 L 107.273438 23.4375 C 107.800781 22.90625 109.761719 22.640625 113.148438 22.640625 L 118.863281 23.515625 L 120.132812 24.15625 M 106.558594 40.976562 L 106.636719 40.496094 L 106.71875 40.339844 L 106.957031 40.339844 L 107.113281 40.417969 C 108.542969 38.824219 110.078125 38.027344 111.71875 38.027344 C 114.894531 38.027344 117.777344 39.0625 120.371094 41.136719 L 120.214844 41.613281 L 120.371094 42.25 C 118.359375 42.996094 116.296875 45.597656 114.179688 50.0625 L 113.542969 51.5 C 113.121094 51.605469 112.722656 52.347656 112.355469 53.730469 L 111.957031 55.324219 L 107.75 65.769531 L 98.621094 89.367188 L 97.984375 90.242188 L 98.382812 90.800781 L 98.382812 90.878906 L 99.175781 91.039062 L 99.492188 90.242188 L 104.652344 83.066406 L 104.730469 83.066406 L 105.683594 82.269531 L 105.367188 87.292969 C 105.367188 88.621094 105.765625 91.703125 106.558594 96.539062 L 106.636719 96.9375 C 106.320312 96.992188 106.160156 97.285156 106.160156 97.816406 L 106.082031 102.359375 L 106.082031 102.597656 C 103.59375 98.132812 102.589844 94.785156 103.066406 92.554688 C 100.472656 94.414062 98.382812 95.769531 96.792969 96.621094 C 97.375 97.949219 97.824219 99.4375 98.144531 101.082031 L 99.570312 109.054688 L 102.03125 103.238281 L 102.191406 103.394531 L 102.191406 103.554688 L 102.269531 103.554688 L 102.429688 103.394531 C 103.066406 104.9375 103.277344 107.433594 103.066406 110.890625 L 104.574219 118.382812 L 104.652344 118.863281 L 104.492188 118.941406 C 104.019531 121.757812 103.460938 124.574219 102.828125 127.390625 C 100.550781 137.171875 99.414062 143.148438 99.414062 145.328125 L 99.414062 145.886719 L 94.09375 150.988281 C 91.449219 153.167969 90.070312 155.082031 89.964844 156.726562 C 88.324219 159.066406 87.238281 160.449219 86.710938 160.875 L 78.375 167.171875 L 78.375 167.25 C 75.359375 168.84375 70.199219 172.40625 62.894531 177.933594 C 60.722656 179.367188 58.078125 181.546875 54.953125 184.46875 C 53.367188 185.640625 51.433594 187.871094 49.160156 191.167969 C 41.167969 197.863281 36.457031 202.222656 35.027344 204.242188 C 31.90625 208.757812 28.96875 212.636719 26.214844 215.878906 L 27.722656 211.65625 L 32.488281 200.175781 L 32.40625 200.015625 C 33.414062 199.058594 34.550781 196.429688 35.820312 192.125 C 37.515625 188.296875 38.46875 185.507812 38.679688 183.753906 C 38.890625 182.265625 40.742188 176.710938 44.238281 167.089844 L 48.601562 156.570312 L 48.285156 156.25 L 49 155.53125 L 53.128906 150.667969 L 57.019531 145.40625 L 57.335938 145.726562 L 57.335938 145.886719 L 57.8125 145.804688 L 55.273438 156.886719 L 51.222656 168.84375 L 51.222656 173.707031 C 54.980469 168.820312 57.996094 164.460938 60.273438 160.632812 L 61.066406 160.632812 L 61.066406 161.910156 L 61.542969 160.632812 L 64.164062 153.9375 C 65.117188 150.324219 65.988281 147.746094 66.785156 146.203125 C 67.207031 147.003906 67.550781 150.03125 67.816406 155.292969 L 67.738281 164.539062 C 72.5 153.21875 75.808594 144.71875 77.660156 139.03125 L 82.582031 126.117188 C 85.703125 117.878906 87.53125 113.652344 88.058594 113.441406 L 88.140625 113.679688 L 88.296875 114.15625 L 88.535156 115.035156 L 88.933594 116.867188 L 88.535156 114.957031 L 90.203125 120.214844 L 90.203125 120.375 L 90.125 121.015625 L 89.886719 121.015625 L 89.886719 121.09375 C 89.304688 123.058594 88.667969 126.382812 87.980469 131.058594 C 87.453125 133.023438 87.1875 134.699219 87.1875 136.082031 L 87.1875 138.550781 C 87.1875 139.5625 86.976562 140.386719 86.550781 141.023438 C 86.550781 141.449219 86.84375 141.660156 87.425781 141.660156 C 87.902344 141.660156 88.40625 139.90625 88.933594 136.398438 L 90.839844 123.007812 L 92.1875 114.476562 L 92.269531 114.476562 L 92.269531 114.238281 L 92.1875 114.078125 L 92.347656 113.757812 C 93.882812 108.816406 94.648438 105.65625 94.648438 104.273438 L 94.570312 97.496094 L 93.777344 97.578125 L 93.457031 97.578125 L 93.457031 97.097656 L 93.539062 97.097656 L 93.457031 97.019531 L 93.0625 96.859375 L 96.871094 84.902344 L 100.128906 72.941406 C 104.363281 60.347656 108.066406 52.429688 111.242188 49.1875 L 111.558594 49.347656 L 111.640625 48.867188 L 111.71875 48.707031 L 111.640625 48.789062 C 110.261719 49.636719 108.25 50.515625 105.605469 51.417969 L 104.8125 51.417969 L 104.730469 50.304688 L 106.558594 40.976562 M 175.390625 40.339844 C 175.496094 39.59375 176.105469 38.238281 177.214844 36.273438 L 179.4375 32.683594 L 180.234375 32.765625 L 180.234375 33.960938 L 179.199219 38.027344 L 179.199219 38.902344 L 181.582031 37.546875 L 181.660156 37.46875 L 182.296875 37.546875 L 180.234375 39.300781 C 179.066406 40.894531 178.484375 42.542969 178.484375 44.246094 L 178.804688 44.960938 L 177.296875 44.800781 C 175.917969 44.800781 175.125 45.199219 174.914062 45.996094 L 174.832031 45.917969 L 175.390625 40.496094 L 175.390625 40.339844 M 185.789062 35.078125 L 185.949219 34.835938 L 186.027344 34.757812 L 186.265625 34.597656 L 186.503906 34.679688 L 189.601562 34.597656 C 194.574219 34.597656 198.492188 35.078125 201.351562 36.03125 L 194.285156 41.613281 L 195.632812 42.011719 L 195.554688 41.773438 L 195.792969 41.691406 C 200.132812 41.691406 202.859375 42.625 203.96875 44.484375 L 203.890625 44.960938 L 204.128906 44.5625 L 205.003906 44.960938 C 204.15625 45.917969 202.886719 46.265625 201.191406 45.996094 L 197.460938 45.917969 L 195.632812 46.714844 L 195.316406 46.714844 L 191.425781 46.316406 C 188.515625 46.316406 186.214844 46.929688 184.519531 48.152344 L 183.328125 49.1875 L 181.898438 46.875 L 186.820312 42.332031 C 186.714844 41.90625 186.453125 41.691406 186.027344 41.691406 L 181.183594 46.15625 L 179.4375 45.199219 L 181.265625 40.65625 L 184.996094 35.632812 L 185.3125 35.316406 L 185.15625 35.234375 L 185.15625 34.996094 L 185.394531 34.917969 L 185.550781 34.996094 L 185.789062 35.078125 M 199.285156 49.1875 C 200.34375 50.144531 201.324219 51.738281 202.222656 53.96875 C 203.125 56.363281 203.574219 58.433594 203.574219 60.1875 L 203.335938 61.066406 L 199.128906 57.875 L 201.03125 63.535156 L 201.191406 67.28125 L 201.113281 70.550781 L 194.761719 65.050781 L 194.679688 65.050781 L 194.761719 65.128906 C 197.144531 68.851562 198.757812 74.484375 199.605469 82.03125 L 199.128906 82.109375 L 199.128906 82.03125 L 199.046875 82.03125 L 198.652344 82.191406 C 192.671875 72.570312 188.25 66.167969 185.394531 62.976562 L 185.394531 63.058594 L 181.898438 55.164062 L 181.421875 54.289062 C 182.113281 53.863281 182.878906 52.667969 183.726562 50.703125 C 184.574219 50.703125 185.050781 50.195312 185.15625 49.1875 C 186.105469 48.175781 189.097656 47.671875 194.125 47.671875 C 195.554688 47.671875 196.90625 47.964844 198.175781 48.550781 L 198.414062 48.46875 L 199.285156 49.1875 M 188.964844 114.476562 C 189.441406 113.09375 190.976562 110.25 193.570312 105.945312 L 193.808594 106.027344 L 193.886719 106.027344 L 194.285156 105.867188 L 194.363281 110.648438 L 193.96875 119.898438 L 195.316406 129.941406 L 197.222656 117.109375 C 197.964844 112.484375 198.996094 108.578125 200.316406 105.390625 L 200.554688 105.546875 L 200.554688 105.628906 L 201.03125 105.628906 L 204.289062 117.507812 L 204.765625 113.519531 C 204.976562 111.871094 205.425781 110.515625 206.113281 109.453125 L 206.511719 109.613281 L 206.589844 109.613281 L 206.511719 109.933594 L 206.511719 147.402344 C 205.929688 149.3125 205.636719 152.796875 205.636719 157.84375 L 205.636719 161.671875 L 205.875 163.503906 L 204.683594 161.828125 L 200.714844 156.570312 C 200.292969 155.878906 198.015625 154.015625 193.886719 150.988281 C 190.289062 148.4375 187.800781 146.789062 186.425781 146.046875 L 184.996094 145.25 L 185.15625 144.050781 L 184.28125 144.929688 L 183.644531 144.609375 C 182.21875 143.972656 181.160156 143.574219 180.46875 143.414062 L 181.105469 139.746094 C 181.6875 135.230469 182.90625 131.03125 184.757812 127.152344 C 185.445312 125.609375 186.1875 122.660156 186.980469 118.304688 L 188.171875 115.753906 L 187.933594 115.59375 L 188.332031 115.273438 L 188.964844 114.476562 M 208.496094 102.835938 C 209.605469 104.964844 210.375 107.566406 210.796875 110.648438 L 211.75 118.863281 L 214.609375 134.804688 C 215.296875 111.316406 216.859375 94.414062 219.292969 84.105469 C 221.144531 88.515625 223.261719 94.972656 225.644531 103.476562 L 225.644531 104.988281 L 225.246094 103.953125 L 225.246094 141.898438 C 227.3125 156.726562 228.34375 167.464844 228.34375 174.105469 L 228.421875 174.105469 L 229.613281 185.425781 C 229.453125 188.03125 229.746094 191.777344 230.488281 196.667969 L 233.980469 219.148438 L 235.804688 202.804688 C 238.1875 206.152344 240.753906 211.574219 243.507812 219.070312 L 245.171875 203.921875 L 245.886719 188.695312 L 246.125 188.535156 C 247.027344 188.535156 249.59375 194.648438 253.828125 206.871094 C 254.886719 209.421875 255.734375 212.476562 256.367188 216.039062 L 257.875 225.207031 C 257.929688 223.71875 258.433594 221.460938 259.382812 218.429688 L 259.859375 218.429688 C 259.859375 219.8125 259.648438 221.246094 259.226562 222.734375 L 258.589844 231.984375 L 258.351562 237.484375 C 257.929688 238.757812 257.503906 241.042969 257.082031 244.339844 C 256.710938 246.996094 256.421875 249.707031 256.210938 252.472656 C 256.210938 262.304688 260.179688 275.589844 268.117188 292.332031 L 268.039062 292.332031 C 257.875 284.144531 250.308594 276.707031 245.332031 270.007812 L 237.3125 258.769531 C 234.828125 252.921875 233.054688 249.363281 231.996094 248.085938 L 234.375 241.308594 C 234.375 240.886719 234.136719 240.671875 233.664062 240.671875 C 232.390625 240.671875 230.433594 245.402344 227.789062 254.863281 C 226.78125 258.371094 226.277344 263.257812 226.277344 269.53125 C 226.277344 289.140625 232.390625 304.074219 244.617188 314.332031 L 235.328125 310.027344 C 230.25 306.308594 227.46875 304.449219 226.992188 304.449219 L 226.914062 304.449219 L 225.5625 303.410156 C 221.222656 298.679688 218.5 296.023438 217.386719 295.441406 L 217.464844 290.417969 C 217.464844 284.253906 217.226562 279.816406 216.753906 277.105469 C 216.167969 273.96875 215.324219 271.390625 214.210938 269.371094 C 213.46875 267.988281 213.101562 266.050781 213.101562 263.550781 L 213.417969 259.964844 L 213.101562 255.578125 L 212.78125 253.269531 L 212.78125 219.386719 L 212.226562 218.75 C 212.226562 214.710938 212.015625 210.832031 211.589844 207.109375 C 211.0625 202.910156 210.746094 198.023438 210.640625 192.441406 C 210.796875 186.4375 210.769531 182 210.558594 179.128906 C 209.976562 172.007812 209.105469 167.753906 207.941406 166.375 L 208.097656 165.976562 L 207.382812 165.976562 L 207.144531 165.496094 L 207.621094 164.699219 L 206.988281 157.683594 C 206.988281 152.742188 207.277344 149.3125 207.859375 147.402344 L 207.859375 105.945312 L 208.335938 102.917969 L 208.496094 102.835938 M 233.105469 139.667969 C 233.105469 138.285156 233.476562 137.410156 234.21875 137.039062 L 234.375 137.835938 C 236.28125 146.710938 240.382812 154.46875 246.683594 161.113281 L 246.761719 161.191406 L 246.761719 161.113281 C 246.761719 159.519531 247.078125 158.722656 247.714844 158.722656 C 248.613281 158.722656 250.226562 160.609375 252.558594 164.382812 L 255.019531 166.851562 C 257.292969 167.753906 262.347656 168.207031 270.183594 168.207031 C 274.257812 168.207031 277.722656 166.957031 280.582031 164.460938 L 285.742188 158.402344 L 286.457031 157.445312 L 286.855469 157.605469 L 287.011719 157.605469 L 286.933594 157.523438 L 288.28125 156.410156 L 289.792969 155.214844 L 287.566406 159.675781 C 283.121094 167.117188 275.925781 170.839844 265.972656 170.839844 C 259.941406 170.839844 254.355469 169.164062 249.222656 165.816406 C 246.839844 164.273438 245.4375 163.132812 245.015625 162.386719 C 244.007812 160.421875 243.03125 159.359375 242.078125 159.199219 C 239.378906 156.011719 237.367188 152.980469 236.042969 150.109375 C 234.878906 144.851562 233.953125 141.449219 233.265625 139.90625 L 233.105469 139.667969 M 234.296875 138.949219 L 234.21875 137.835938 C 234.113281 138.101562 234.085938 138.5 234.136719 139.03125 L 234.296875 138.949219 M 203.890625 44.960938 L 203.8125 44.960938 L 203.890625 44.960938 M 196.90625 42.332031 L 197.855469 42.648438 L 197.9375 42.492188 L 196.90625 42.332031 M 169.515625 51.339844 L 169.992188 51.339844 L 169.277344 50.703125 L 169.117188 50.78125 L 166.101562 46.316406 L 161.496094 42.089844 C 160.121094 40.816406 154.933594 40.179688 145.9375 40.179688 L 145.539062 40.257812 C 143.84375 39.089844 142.496094 38.503906 141.488281 38.503906 C 139.371094 38.503906 136.726562 39.355469 133.550781 41.054688 C 132.652344 40.523438 131.75 40.257812 130.851562 40.257812 C 128.152344 40.257812 126.328125 41.773438 125.375 44.800781 L 123.152344 42.96875 C 127.808594 39.089844 133.550781 37.148438 140.378906 37.148438 C 148.898438 37.148438 155.699219 38 160.78125 39.699219 C 170.042969 42.730469 176.949219 48.707031 181.503906 57.636719 C 183.882812 62.261719 185.394531 69.460938 186.027344 79.242188 C 185.179688 78.445312 184.121094 78.046875 182.851562 78.046875 C 181.527344 78.046875 180.257812 78.496094 179.042969 79.398438 C 178.671875 76.050781 178.167969 73.5 177.535156 71.746094 C 174.039062 62.128906 171.527344 55.695312 169.992188 52.457031 L 170.230469 52.457031 L 169.515625 51.417969 L 169.515625 51.339844 M 167.609375 68.558594 C 167.925781 69.300781 169.277344 71.109375 171.660156 73.980469 L 171.339844 74.695312 L 173.085938 85.9375 L 173.324219 89.285156 L 173.722656 91.117188 L 173.324219 91.277344 L 173.167969 90.878906 L 172.132812 89.605469 L 172.132812 89.445312 L 171.183594 86.097656 L 168.640625 78.84375 L 169.117188 78.601562 L 164.035156 66.328125 C 164.144531 66.21875 164.222656 66.167969 164.273438 66.167969 L 167.449219 68.082031 L 167.769531 68.320312 L 167.609375 68.558594 M 154.191406 61.382812 L 154.90625 62.023438 L 154.90625 62.101562 C 159.351562 65.128906 163.191406 70.125 166.417969 77.089844 C 169.433594 83.574219 170.945312 89.285156 170.945312 94.226562 L 170.707031 99.886719 L 170.785156 102.199219 L 170.785156 102.359375 L 170.546875 102.4375 L 170.546875 102.679688 L 168.960938 99.011719 L 169.195312 98.691406 L 163.242188 81.472656 C 162.503906 78.761719 160.648438 75.253906 157.6875 70.949219 L 150.144531 60.425781 L 150.460938 60.1875 L 151.652344 60.667969 L 151.652344 60.585938 L 152.050781 60.585938 C 152.789062 60.585938 153.503906 60.851562 154.191406 61.382812 M 148.636719 67.441406 L 148.792969 67.679688 L 148.476562 67.921875 L 154.351562 80.675781 L 158.480469 91.117188 L 156.414062 89.445312 L 156.257812 89.605469 C 155.621094 89.605469 154.667969 88.726562 153.398438 86.972656 C 151.917969 85.007812 150.039062 81.925781 147.761719 77.726562 C 145.433594 73.632812 143.871094 69.566406 143.078125 65.527344 L 144.585938 65.527344 L 144.585938 65.769531 C 146.597656 65.980469 147.945312 66.539062 148.636719 67.441406 M 140.300781 70.871094 L 140.140625 70.632812 L 140.0625 70.632812 L 140.0625 71.988281 C 140.0625 72.996094 140.457031 74.246094 141.25 75.734375 C 140.933594 77.007812 140.75 79.1875 140.695312 82.269531 L 140.695312 90.480469 L 140.617188 95.34375 L 140.777344 96.140625 L 140.617188 96.300781 L 140.378906 96.378906 L 136.886719 81.792969 C 135.878906 77.167969 135.375 72.625 135.375 68.160156 C 135.375 65.929688 135.484375 64.574219 135.695312 64.09375 C 137.386719 65.371094 139.003906 67.523438 140.539062 70.550781 L 140.300781 70.871094 M 157.605469 52.375 L 157.449219 52.296875 L 157.527344 52.058594 C 153.503906 47.433594 150.144531 44.003906 147.445312 41.773438 L 154.429688 42.011719 C 157.449219 42.117188 159.457031 42.464844 160.464844 43.046875 C 162.210938 44.164062 163.71875 45.519531 164.988281 47.113281 L 167.53125 51.417969 L 167.847656 51.976562 L 168.085938 52.375 C 169.039062 55.246094 171.84375 61.996094 176.5 72.625 L 178.644531 83.148438 L 179.28125 85.140625 L 179.28125 85.300781 L 179.042969 85.378906 L 179.121094 85.9375 L 179.042969 86.015625 L 176.820312 80.675781 L 174.675781 76.292969 L 174.914062 76.132812 L 170.308594 66.726562 L 165.785156 55.644531 C 163.453125 50.753906 161.417969 48.308594 159.671875 48.308594 C 158.71875 48.308594 158.242188 49.636719 158.242188 52.296875 L 157.765625 52.375 L 157.605469 52.375 M 179.042969 85.378906 L 178.960938 85.300781 L 178.960938 85.378906 L 179.042969 85.378906 M 122.992188 44.402344 L 122.992188 44.324219 L 123.152344 44.484375 L 123.390625 44.800781 L 124.976562 46.078125 L 124.5 49.347656 C 124.5 50.515625 124.898438 53.996094 125.691406 59.789062 C 126.167969 63.933594 126.617188 66.859375 127.039062 68.558594 C 126.300781 68.664062 125.320312 70.046875 124.101562 72.703125 L 121.5625 78.761719 L 121.085938 79.957031 L 121.007812 80.355469 L 120.691406 80.355469 L 120.609375 78.285156 C 121.511719 74.722656 121.960938 72.199219 121.960938 70.710938 C 121.273438 67.203125 120.929688 62.445312 120.929688 56.441406 C 120.929688 53.464844 121.113281 51.417969 121.484375 50.304688 L 122.992188 44.402344 M 119.578125 73.980469 L 119.339844 73.820312 C 118.917969 74.351562 117.726562 77.0625 115.765625 81.953125 C 115.027344 83.597656 114.550781 86.390625 114.339844 90.320312 L 113.066406 94.226562 L 112.988281 95.265625 L 112.75 95.503906 L 112.671875 95.425781 C 112.460938 95.050781 112.355469 94.121094 112.355469 92.632812 C 112.355469 87.902344 112.699219 84.316406 113.386719 81.871094 C 114.445312 77.246094 115.503906 73.582031 116.5625 70.871094 L 116.957031 70.789062 C 117.644531 70.789062 118.597656 71.746094 119.816406 73.660156 L 119.578125 73.980469 M 110.050781 85.140625 L 110.050781 85.539062 L 109.496094 85.539062 L 108.859375 86.65625 L 108.621094 89.445312 L 108.621094 93.828125 C 108.726562 97.230469 108.914062 100.101562 109.179688 102.4375 L 108.382812 100.605469 L 107.828125 96.140625 L 107.667969 95.023438 L 107.667969 94.546875 L 107.351562 90.960938 L 107.191406 89.765625 C 107.300781 89.074219 107.722656 87.984375 108.464844 86.496094 L 108.464844 86.414062 C 109.308594 84.660156 109.679688 83.359375 109.574219 82.507812 L 109.894531 82.507812 L 110.050781 82.667969 L 110.050781 85.140625 M 108.382812 75.894531 L 108.304688 76.050781 L 108.066406 76.050781 L 107.988281 75.734375 L 107.75 75.652344 C 107.007812 75.652344 106.425781 76.957031 106.003906 79.558594 L 104.96875 80.996094 L 104.492188 81.074219 L 104.492188 79.957031 C 104.492188 79 104.730469 77.78125 105.207031 76.292969 C 105.84375 74.21875 106.691406 73.183594 107.75 73.183594 C 108.488281 73.183594 108.78125 73.632812 108.621094 74.539062 L 108.382812 75.894531 M 186.582031 274.710938 C 183.832031 271.203125 182.164062 267.777344 181.582031 264.429688 C 180.578125 258.953125 179.675781 254.863281 178.882812 252.152344 C 178.089844 249.441406 177.425781 245.375 176.898438 239.953125 C 177.109375 234.320312 177.082031 230.65625 176.820312 228.953125 C 176.765625 227.039062 176.792969 225.605469 176.898438 224.648438 L 178.007812 218.828125 L 178.007812 218.589844 L 180.945312 212.851562 L 182.375 209.34375 C 182.585938 214.605469 183.515625 221.644531 185.15625 230.46875 C 187.058594 240.886719 188.039062 248.832031 188.09375 254.304688 L 188.332031 254.382812 L 188.332031 256.058594 C 188.332031 262.4375 187.878906 268.574219 186.980469 274.472656 L 186.582031 274.710938 M 40.585938 172.671875 L 38.757812 177.933594 L 38.441406 177.855469 L 23.039062 189.730469 L 19.386719 191.726562 L 18.671875 192.363281 L 18.277344 192.363281 L 18.195312 192.125 L 25.261719 184.628906 L 33.835938 177.613281 L 33.996094 179.050781 L 40.503906 172.59375 L 40.585938 172.671875 M 57.972656 224.25 L 63.609375 218.910156 L 70.039062 213.011719 L 84.328125 202.089844 L 85.441406 205.277344 C 85.652344 206.285156 86.710938 207.296875 88.617188 208.304688 L 87.664062 212.769531 C 87.664062 213.886719 88.296875 216.011719 89.570312 219.148438 C 90.308594 220.957031 90.867188 222.601562 91.234375 224.089844 L 91.078125 224.808594 L 91.792969 232.539062 C 91.792969 234.242188 90.230469 239.265625 87.109375 247.609375 C 83.984375 255.898438 81.3125 261.503906 79.089844 264.429688 C 76.019531 260.230469 73.980469 257.09375 72.976562 255.023438 L 67.738281 244.738281 L 63.527344 234.535156 L 61.542969 229.351562 C 60.167969 226.535156 59.03125 224.914062 58.128906 224.488281 L 57.972656 224.25 M 84.410156 224.570312 L 84.171875 224.488281 L 83.851562 224.570312 L 84.410156 224.570312 M 58.449219 273.117188 C 62.363281 279.921875 65.0625 283.453125 66.546875 283.722656 L 58.765625 293.046875 C 57.335938 295.066406 55.535156 296.609375 53.367188 297.671875 L 45.507812 300.621094 L 49.953125 294.164062 L 54.160156 286.671875 C 56.59375 280.1875 58.023438 275.667969 58.449219 273.117188 M 24.390625 221.9375 L 28.199219 231.984375 C 27.457031 233.097656 26.71875 235.675781 25.976562 239.714844 C 25.34375 241.683594 24.996094 244.339844 24.945312 247.6875 L 24.070312 241.867188 L 22.878906 231.1875 C 22.878906 228.632812 23.382812 225.550781 24.390625 221.9375 M 54.082031 268.894531 L 49.078125 272.242188 L 42.09375 276.707031 L 36.933594 281.011719 L 34.710938 283.082031 L 35.980469 277.421875 C 36.773438 273.542969 37.171875 270.515625 37.171875 268.335938 L 37.171875 259.328125 C 37.648438 255.871094 37.886719 252.761719 37.886719 250 L 37.964844 248.804688 C 46.484375 260.015625 51.859375 266.714844 54.082031 268.894531 "/>
</g>
</svg>
