<?xml version="1.0" encoding="UTF-8"?>
<svg xmlns="http://www.w3.org/2000/svg" xmlns:xlink="http://www.w3.org/1999/xlink" width="296px" height="318px" viewBox="0 0 296 318" version="1.1">
<g id="surface1">
<path style=" stroke:none;fill-rule:evenodd;fill:rgb(0%,0%,0%);fill-opacity:1;" d="M 179.519531 41.054688 C 177.1875 39.300781 174.332031 37.574219 170.945312 35.875 L 166.65625 33.402344 C 164.804688 32.394531 162.847656 31.726562 160.78125 31.410156 L 144.347656 28.859375 L 144.347656 28.9375 C 144.347656 29.363281 144.003906 29.574219 143.316406 29.574219 L 142.203125 29.175781 C 138.445312 29.175781 134.398438 29.921875 130.058594 31.410156 L 119.894531 35.15625 C 117.300781 36.007812 115.132812 37.308594 113.386719 39.0625 L 109.894531 43.289062 L 109.734375 43.527344 L 109.574219 43.445312 L 109.335938 43.445312 L 109.257812 43.6875 L 109.417969 43.925781 C 107.511719 46.265625 105.84375 49.027344 104.414062 52.214844 L 102.429688 56.839844 L 102.351562 56.839844 C 102.191406 56.839844 102.113281 56.894531 102.113281 57 L 102.191406 57.238281 L 102.269531 57.238281 L 100.84375 60.746094 C 100.152344 62.394531 99.414062 65.316406 98.621094 69.515625 C 98.035156 71.90625 97.746094 74.804688 97.746094 78.203125 L 97.824219 83.863281 L 97.269531 83.546875 L 97.03125 83.625 L 97.824219 85.777344 C 97.71875 89.550781 97.402344 92.207031 96.871094 93.75 L 97.984375 93.671875 L 99.652344 93.03125 L 99.890625 93.03125 C 100.152344 93.03125 100.339844 93.246094 100.445312 93.671875 L 100.523438 93.671875 L 100.523438 93.75 L 100.683594 95.902344 L 100.683594 95.980469 L 100.761719 95.980469 C 101.609375 95.292969 102.429688 94.945312 103.222656 94.945312 C 104.125 94.945312 104.519531 95.425781 104.414062 96.378906 C 104.414062 96.964844 104.175781 97.921875 103.699219 99.25 L 107.035156 99.332031 C 104.386719 88.59375 103.066406 80.199219 103.066406 74.140625 L 103.066406 71.585938 L 103.542969 69.035156 L 103.460938 68.636719 L 103.222656 68.636719 C 103.328125 67.628906 103.515625 67.125 103.78125 67.125 C 104.363281 67.125 104.8125 72.757812 105.128906 84.023438 L 107.511719 95.902344 L 107.511719 96.0625 L 107.667969 96.460938 L 107.75 96.859375 L 108.542969 100.84375 C 109.335938 104.617188 110.84375 110.277344 113.066406 117.824219 C 113.4375 120.109375 114.207031 122.902344 115.371094 126.195312 L 117.039062 130.023438 L 116.003906 122.367188 L 114.179688 109.773438 C 112.855469 101.75 112.140625 97.042969 112.035156 95.664062 L 111.957031 86.972656 L 112.195312 86.734375 L 111.957031 86.175781 L 111.957031 78.761719 C 112.007812 76.105469 112.140625 74.378906 112.355469 73.582031 L 111.402344 66.644531 L 111.402344 64.492188 L 111.320312 64.253906 L 111.164062 64.972656 L 111.082031 63.933594 C 111.082031 63.351562 111.320312 63.058594 111.796875 63.058594 C 112.222656 63.058594 112.722656 65.238281 113.304688 69.59375 L 113.542969 69.59375 L 113.542969 69.914062 L 113.703125 71.109375 L 113.703125 71.1875 L 114.65625 80.675781 L 114.578125 82.589844 C 116.21875 82.375 119.417969 82.324219 124.183594 82.429688 L 124.183594 82.828125 L 124.421875 82.828125 L 124.5 82.429688 L 125.53125 82.429688 L 125.53125 78.445312 C 125.109375 76.957031 124.898438 75.628906 124.898438 74.457031 L 125.054688 72.703125 L 125.214844 72.703125 L 125.214844 72.464844 L 125.53125 72.144531 C 125.957031 72.144531 126.75 73.980469 127.914062 77.648438 L 129.265625 82.269531 C 129.847656 82.109375 130.667969 82.242188 131.726562 82.667969 L 132.914062 82.988281 L 133.3125 82.90625 L 133.3125 82.75 L 133.472656 82.109375 L 133.472656 78.523438 L 133.074219 72.226562 L 133.074219 71.1875 L 133.152344 70.949219 L 133.789062 70.710938 L 133.3125 70.550781 C 133.417969 70.339844 133.578125 70.234375 133.789062 70.234375 L 134.425781 71.03125 L 135.140625 70.949219 L 135.695312 71.1875 C 136.222656 71.773438 136.542969 73.394531 136.648438 76.050781 L 137.042969 81.074219 L 137.042969 83.304688 L 137.363281 83.304688 L 137.917969 83.546875 L 137.917969 83.148438 L 138.3125 82.191406 L 138.3125 80.753906 L 138.550781 77.886719 C 138.550781 75.015625 138.738281 73.234375 139.109375 72.542969 L 139.027344 72.386719 L 139.425781 72.066406 L 139.109375 72.144531 C 139.160156 71.828125 139.636719 71.667969 140.539062 71.667969 C 141.542969 71.667969 142.125 72.171875 142.285156 73.183594 L 142.363281 75.335938 L 142.601562 78.761719 L 141.964844 82.828125 L 143.632812 82.429688 L 148 81.710938 L 148.160156 81.953125 L 148.316406 81.792969 L 148.316406 81.632812 L 148.476562 81.632812 L 148.476562 81.074219 L 148.554688 75.972656 L 148.792969 72.785156 L 149.351562 71.828125 L 149.429688 71.746094 L 149.429688 71.585938 L 149.351562 71.585938 L 149.351562 71.507812 L 149.191406 71.269531 L 149.03125 71.429688 L 149.191406 71.1875 L 149.269531 71.109375 L 149.507812 71.1875 L 149.585938 71.269531 L 149.667969 71.1875 L 150.222656 70.789062 C 150.539062 70.789062 150.832031 70.921875 151.097656 71.1875 L 151.414062 71.746094 L 151.574219 71.667969 C 152.472656 71.667969 152.921875 75.015625 152.921875 81.710938 L 160.625 81.632812 C 160.675781 81.3125 160.96875 81.152344 161.496094 81.152344 L 164.59375 81.3125 L 165.226562 81.074219 L 165.308594 81.554688 L 165.464844 81.472656 L 165.464844 80.996094 L 166.816406 80.597656 L 166.417969 74.539062 L 166.417969 71.828125 L 166.496094 71.1875 L 166.496094 70.632812 L 166.65625 69.914062 L 166.261719 69.675781 L 166.101562 69.59375 L 168.324219 69.59375 L 167.925781 68.320312 L 167.847656 67.839844 C 167.847656 67.46875 168.058594 67.28125 168.484375 67.28125 L 169.433594 68.320312 L 169.910156 69.515625 L 170.386719 70.871094 L 171.421875 74.617188 L 171.660156 75.574219 L 173.085938 82.667969 L 173.484375 83.148438 L 173.246094 83.546875 L 173.644531 89.207031 L 173.644531 90.878906 L 173.484375 92.074219 L 173.5625 92.472656 L 173.644531 92.472656 L 174.039062 110.96875 L 173.5625 129.542969 L 176.421875 122.289062 L 179.519531 111.289062 C 180.683594 107.726562 181.34375 101.75 181.503906 93.351562 L 181.820312 92.316406 L 181.660156 92.074219 L 181.503906 92.394531 L 181.503906 89.125 C 181.34375 84.503906 181.34375 81.019531 181.503906 78.683594 C 180.761719 74.058594 180.390625 70.578125 180.390625 68.238281 C 180.390625 67.496094 180.601562 67.125 181.027344 67.125 L 181.898438 68.082031 C 182.480469 69.675781 182.824219 73.367188 182.933594 79.160156 C 184.253906 79.160156 185.5 79.824219 186.664062 81.152344 C 187.511719 82.109375 188.039062 83.015625 188.25 83.863281 L 188.648438 88.808594 C 188.648438 90.136719 187.90625 92.289062 186.425781 95.265625 C 184.359375 98.984375 183.039062 101.03125 182.457031 101.402344 L 182.136719 104.832031 L 185.394531 102.519531 L 187.695312 99.332031 L 190.710938 102.039062 L 190.710938 101.484375 L 191.507812 100.207031 L 191.507812 100.128906 L 191.425781 100.128906 L 191.425781 99.171875 C 194.179688 97.628906 196.347656 96.859375 197.9375 96.859375 L 201.351562 97.179688 L 200.953125 95.34375 L 199.128906 92.074219 L 197.699219 91.039062 C 197.699219 90.613281 197.910156 90.402344 198.332031 90.402344 L 206.035156 94.308594 L 203.652344 90.242188 L 202.066406 87.132812 L 202.621094 87.371094 L 202.699219 87.210938 L 202.621094 86.8125 L 201.507812 86.097656 L 199.84375 82.351562 L 195.078125 69.515625 L 195.238281 68.957031 L 193.492188 64.09375 L 190.078125 55.5625 L 190.15625 55.484375 L 190.078125 55.484375 L 185.472656 47.035156 C 184.253906 45.175781 182.429688 43.3125 179.996094 41.453125 L 179.757812 40.976562 L 179.519531 41.054688 M 128.628906 30.453125 C 133.65625 28.699219 137.335938 27.820312 139.664062 27.820312 L 141.648438 27.902344 L 143.476562 27.664062 C 147.601562 27.664062 154.035156 28.539062 162.765625 30.292969 C 165.148438 31.25 168.269531 32.765625 172.132812 34.835938 C 178.222656 37.386719 183.039062 41.214844 186.582031 46.316406 C 188.753906 49.398438 191.03125 53.890625 193.410156 59.789062 C 195.582031 65.210938 196.667969 68.71875 196.667969 70.3125 L 196.667969 70.550781 L 200.953125 81.632812 L 204.207031 87.613281 C 206.273438 91.386719 207.304688 93.671875 207.304688 94.46875 L 207.304688 94.945312 L 207.542969 95.105469 C 207.542969 95.53125 207.277344 95.742188 206.75 95.742188 C 205.691406 95.742188 204.023438 95.078125 201.746094 93.75 L 202.144531 94.625 L 203.175781 97.976562 L 203.175781 98.132812 C 203.175781 98.613281 202.726562 98.851562 201.828125 98.851562 L 199.207031 98.453125 L 198.96875 98.214844 C 197.644531 98.214844 196.164062 98.585938 194.523438 99.332031 L 192.695312 100.207031 L 192.695312 100.285156 L 191.347656 103.636719 L 190.871094 103.636719 L 187.695312 101.324219 C 185.683594 104.351562 183.910156 105.867188 182.375 105.867188 L 181.980469 105.867188 L 180.789062 111.765625 C 177.242188 125.53125 174.621094 132.945312 172.929688 134.007812 L 172.769531 134.085938 L 172.53125 134.085938 C 172.054688 134.085938 171.816406 133.847656 171.816406 133.371094 L 172.132812 132.8125 L 172.691406 110.96875 C 172.160156 101.5625 172.027344 94.386719 172.292969 89.445312 C 172.347656 88.222656 172.1875 86.335938 171.816406 83.785156 L 171.421875 83.785156 L 169.910156 83.386719 L 169.753906 83.226562 C 169.488281 79.984375 169.117188 77.328125 168.640625 75.253906 L 168.640625 73.660156 L 168.164062 71.828125 L 168.007812 71.90625 L 167.925781 71.1875 L 167.609375 71.1875 L 167.6875 75.335938 L 167.6875 78.363281 C 167.6875 79 167.769531 79.558594 167.925781 80.039062 L 167.769531 80.753906 L 167.6875 80.753906 L 167.6875 82.191406 L 165.785156 82.429688 L 163.796875 82.589844 L 164.355469 82.667969 L 159.351562 82.988281 L 154.667969 83.066406 L 153 83.066406 L 151.492188 82.269531 L 151.414062 82.269531 L 150.9375 77.886719 C 150.671875 74.484375 150.328125 72.675781 149.90625 72.464844 L 149.90625 75.652344 L 149.746094 82.03125 L 149.746094 82.269531 L 149.585938 82.429688 L 149.191406 82.90625 L 148.875 82.828125 L 146.886719 83.464844 L 146.09375 83.707031 L 141.808594 83.945312 L 141.171875 84.023438 L 140.777344 81.632812 L 141.332031 78.683594 C 140.90625 76.183594 140.722656 74.324219 140.777344 73.101562 L 140.140625 73.023438 L 139.824219 78.683594 L 139.902344 80.277344 L 139.742188 82.269531 C 139.425781 82.589844 139.1875 83.09375 139.027344 83.785156 L 137.441406 83.707031 L 137.28125 83.707031 L 136.566406 83.625 L 136.328125 83.707031 L 135.933594 82.429688 L 135.457031 77.886719 L 135.21875 74.695312 C 135.164062 73.367188 134.980469 72.542969 134.664062 72.226562 L 134.742188 78.761719 L 134.742188 82.828125 C 134.53125 83.464844 133.445312 83.785156 131.488281 83.785156 L 129.34375 83.707031 L 128.867188 83.785156 C 128.335938 83.785156 127.886719 83.015625 127.515625 81.472656 L 126.960938 78.601562 L 126.882812 78.523438 L 127.277344 83.148438 C 127.277344 83.679688 126.988281 83.945312 126.40625 83.945312 L 114.339844 83.464844 L 114.339844 83.546875 C 114.234375 82.21875 114.019531 81.394531 113.703125 81.074219 L 113.542969 81.234375 C 113.175781 81.554688 113.066406 82.109375 113.226562 82.90625 L 113.386719 84.820312 L 113.386719 86.257812 L 113.148438 86.257812 L 113.148438 87.851562 L 113.386719 87.851562 L 113.304688 88.410156 L 113.304688 90.003906 L 113.542969 96.699219 L 113.703125 96.699219 L 114.65625 99.648438 C 115.027344 100.179688 115.34375 101.484375 115.609375 103.554688 C 115.765625 104.882812 116.21875 106.292969 116.957031 107.78125 C 116.957031 108.257812 116.746094 108.496094 116.324219 108.496094 L 115.765625 108.179688 L 115.449219 108.179688 L 115.054688 108.097656 L 116.878906 119.019531 L 119.417969 134.246094 L 119.179688 134.886719 L 119.101562 135.042969 L 118.546875 135.203125 C 117.753906 135.203125 116.375 132.652344 114.417969 127.550781 L 112.273438 119.898438 L 108.464844 104.671875 L 107.351562 100.527344 L 105.445312 100.605469 C 102.800781 100.605469 101.792969 100.101562 102.429688 99.089844 L 102.746094 96.859375 L 102.828125 96.777344 C 102.296875 97.152344 101.582031 97.335938 100.683594 97.335938 C 99.890625 97.335938 99.414062 96.40625 99.253906 94.546875 L 96.792969 95.105469 L 96.078125 95.105469 L 95.363281 95.34375 C 94.835938 95.34375 94.570312 95.132812 94.570312 94.707031 C 95.839844 90.453125 96.476562 87.503906 96.476562 85.859375 L 96.476562 77.007812 C 96.421875 74.511719 97.535156 68.613281 99.808594 59.3125 C 101.1875 53.941406 104.28125 48.070312 109.097656 41.691406 C 111.796875 37.917969 115.183594 35.34375 119.261719 33.960938 L 128.628906 30.453125 M 169.671875 74.617188 L 169.671875 75.414062 L 170.070312 77.40625 L 170.230469 77.40625 L 170.863281 82.429688 L 171.660156 82.429688 L 171.421875 81.234375 L 170.945312 78.683594 L 170.46875 77.007812 L 170.46875 76.847656 L 169.992188 74.617188 L 169.753906 74.617188 L 169.515625 73.742188 L 169.671875 74.617188 M 187.296875 88.808594 C 187.296875 86.257812 187.191406 84.714844 186.980469 84.183594 C 186.398438 82.695312 185.417969 81.554688 184.042969 80.753906 L 182.933594 80.277344 L 182.773438 89.125 L 182.613281 98.53125 L 185.472656 94.308594 C 186.691406 92.394531 187.296875 90.5625 187.296875 88.808594 M 168.324219 69.59375 L 168.640625 70.074219 L 168.640625 69.59375 L 168.324219 69.59375 M 168.640625 71.667969 L 169.277344 73.101562 L 168.640625 70.871094 L 168.640625 71.667969 M 167.847656 70.550781 L 167.53125 70.550781 L 167.53125 70.789062 L 167.847656 70.871094 L 167.925781 70.949219 L 167.847656 70.550781 M 151.097656 82.988281 L 151.097656 82.90625 L 151.175781 82.988281 L 151.097656 82.988281 "/>
<path style=" stroke:none;fill-rule:evenodd;fill:rgb(16.470589%,16.470589%,27.450982%);fill-opacity:1;" d="M 109.734375 43.527344 L 109.894531 43.289062 L 113.386719 39.0625 C 115.132812 37.308594 117.300781 36.007812 119.894531 35.15625 L 130.058594 31.410156 C 134.398438 29.921875 138.445312 29.175781 142.203125 29.175781 L 143.316406 29.574219 C 144.003906 29.574219 144.347656 29.363281 144.347656 28.9375 L 144.347656 28.859375 L 160.78125 31.410156 C 162.847656 31.726562 164.804688 32.394531 166.65625 33.402344 L 170.945312 35.875 C 174.332031 37.574219 177.1875 39.300781 179.519531 41.054688 L 179.4375 41.054688 C 179.808594 42.542969 181.265625 45.015625 183.804688 48.46875 L 186.34375 53.332031 L 188.332031 56.203125 C 189.230469 56.097656 189.8125 55.882812 190.078125 55.5625 L 193.492188 64.09375 L 195.238281 68.957031 L 195.078125 69.515625 L 199.84375 82.351562 L 201.507812 86.097656 L 195.632812 82.507812 L 195.476562 82.589844 L 195.476562 82.828125 L 196.269531 85.21875 C 187.90625 75.707031 183.25 69.914062 182.296875 67.839844 C 182.191406 67.949219 182.058594 68.027344 181.898438 68.082031 L 181.027344 67.125 C 180.601562 67.125 180.390625 67.496094 180.390625 68.238281 C 180.390625 70.578125 180.761719 74.058594 181.503906 78.683594 C 181.34375 81.019531 181.34375 84.503906 181.503906 89.125 L 181.503906 92.394531 L 179.675781 94.625 C 180.101562 88.832031 179.835938 84.554688 178.882812 81.792969 L 178.566406 81.792969 C 177.929688 89.285156 177.320312 93.75 176.738281 95.183594 L 176.660156 95.183594 L 176.105469 89.285156 C 175.363281 85.726562 174.832031 83.757812 174.515625 83.386719 L 173.644531 90.878906 L 173.644531 89.207031 L 173.246094 83.546875 L 173.484375 83.148438 L 173.085938 82.667969 L 171.660156 75.574219 L 171.421875 74.617188 L 170.386719 70.871094 L 169.910156 69.515625 L 169.433594 68.320312 L 168.484375 67.28125 C 168.058594 67.28125 167.847656 67.46875 167.847656 67.839844 L 167.925781 68.320312 L 168.324219 69.59375 L 165.625 69.59375 L 165.308594 71.1875 C 165.148438 72.304688 165.070312 73.847656 165.070312 75.8125 L 165.226562 81.074219 L 164.59375 81.3125 L 161.496094 81.152344 C 160.96875 81.152344 160.675781 81.3125 160.625 81.632812 L 152.921875 81.710938 C 152.921875 75.015625 152.472656 71.667969 151.574219 71.667969 L 151.414062 71.746094 L 151.097656 71.1875 C 150.832031 70.921875 150.539062 70.789062 150.222656 70.789062 L 149.667969 71.1875 L 149.585938 71.269531 L 149.507812 71.1875 L 149.269531 71.109375 L 149.191406 71.1875 L 149.03125 71.429688 L 148.953125 71.507812 L 148.792969 71.429688 L 148.238281 71.90625 L 148.398438 71.90625 L 148.078125 72.226562 L 148.078125 72.066406 L 147.839844 72.464844 L 147.445312 73.261719 L 147.601562 73.339844 L 147.285156 75.8125 C 147.285156 78.628906 147.523438 80.597656 148 81.710938 L 143.632812 82.429688 L 141.964844 82.828125 L 142.601562 78.761719 L 142.363281 75.335938 L 142.285156 73.183594 C 142.125 72.171875 141.542969 71.667969 140.539062 71.667969 C 139.636719 71.667969 139.160156 71.828125 139.109375 72.144531 C 137.945312 72.464844 137.363281 73.15625 137.363281 74.21875 C 137.308594 74.910156 137.414062 75.945312 137.679688 77.328125 L 137.363281 83.304688 L 137.042969 83.304688 L 137.042969 81.074219 L 136.648438 76.050781 C 136.542969 73.394531 136.222656 71.773438 135.695312 71.1875 L 135.140625 70.949219 L 134.425781 71.03125 L 133.789062 70.234375 C 133.578125 70.234375 133.417969 70.339844 133.3125 70.550781 L 133.234375 70.550781 L 131.566406 70.710938 L 131.566406 73.660156 L 132.914062 82.988281 L 131.726562 82.667969 C 130.667969 82.242188 129.847656 82.109375 129.265625 82.269531 L 127.914062 77.648438 C 126.75 73.980469 125.957031 72.144531 125.53125 72.144531 L 125.214844 72.464844 L 124.738281 72.304688 C 123.945312 72.253906 123.546875 72.625 123.546875 73.421875 L 124.183594 82.429688 C 119.417969 82.324219 116.21875 82.375 114.578125 82.589844 L 114.65625 80.675781 L 113.703125 71.1875 L 113.703125 71.109375 L 113.542969 69.914062 L 113.542969 69.59375 L 113.304688 69.59375 C 112.722656 65.238281 112.222656 63.058594 111.796875 63.058594 C 111.320312 63.058594 111.082031 63.351562 111.082031 63.933594 L 111.164062 64.972656 C 110.582031 67.414062 110.289062 71.828125 110.289062 78.203125 L 110.367188 83.066406 L 109.417969 81.871094 C 109.203125 82.191406 109.097656 83.386719 109.097656 85.460938 C 109.097656 90.136719 109.390625 94.519531 109.972656 98.613281 L 109.972656 99.570312 L 109.894531 99.570312 L 107.75 95.183594 C 107.589844 95.34375 107.511719 95.582031 107.511719 95.902344 L 105.128906 84.023438 C 104.8125 72.757812 104.363281 67.125 103.78125 67.125 C 103.515625 67.125 103.328125 67.628906 103.222656 68.636719 L 103.144531 68.636719 C 100.761719 78.417969 99.28125 84.15625 98.699219 85.859375 L 98.621094 85.777344 C 98.40625 84.820312 98.144531 84.183594 97.824219 83.863281 L 97.746094 78.203125 C 97.746094 74.804688 98.035156 71.90625 98.621094 69.515625 C 99.414062 65.316406 100.152344 62.394531 100.84375 60.746094 L 102.269531 57.238281 C 102.960938 57.34375 104.148438 57.824219 105.84375 58.671875 L 106.160156 58.59375 L 106.160156 58.433594 L 111.082031 44.5625 L 111.082031 44.246094 L 111.003906 44.164062 L 110.84375 44.164062 L 109.734375 43.527344 M 172.292969 61.703125 L 173.324219 61.222656 C 174.808594 60.90625 175.890625 60.160156 176.582031 58.992188 L 176.660156 58.992188 L 176.660156 57.875 C 173.800781 51.074219 170.8125 45.28125 167.6875 40.496094 L 167.371094 40.496094 L 167.371094 40.578125 L 166.734375 40.417969 C 163.136719 41.320312 160.96875 42.144531 160.226562 42.890625 L 160.78125 43.128906 L 160.941406 43.128906 C 160.992188 44.5625 162.132812 47.566406 164.355469 52.136719 L 166.734375 60.90625 L 166.65625 60.90625 L 166.65625 61.222656 L 166.816406 61.304688 L 167.054688 61.382812 C 167.582031 61.648438 167.609375 61.78125 167.132812 61.78125 L 172.292969 61.703125 M 173.722656 38.105469 L 173.484375 38.183594 L 173.800781 38.503906 C 173.378906 38.609375 172.796875 38.902344 172.054688 39.382812 L 170.546875 39.699219 L 170.546875 39.859375 L 170.308594 39.9375 L 170.785156 40.179688 L 170.546875 40.257812 L 170.945312 40.496094 L 171.261719 40.417969 C 173.167969 41.480469 174.542969 42.808594 175.390625 44.402344 L 177.058594 49.265625 L 178.804688 55.007812 C 179.492188 57.183594 180.046875 58.40625 180.46875 58.671875 L 180.550781 58.671875 L 181.742188 58.753906 C 182.480469 58.753906 183.300781 58.460938 184.203125 57.875 L 185.3125 56.761719 C 179.386719 44.324219 175.523438 38.105469 173.722656 38.105469 M 174.359375 39.0625 L 174.277344 39.0625 L 173.882812 38.824219 L 174.039062 38.742188 L 174.359375 39.0625 M 178.804688 84.261719 L 178.804688 84.421875 L 178.804688 84.261719 M 156.414062 43.6875 L 156.8125 43.445312 L 156.734375 43.289062 L 153.160156 43.207031 L 152.921875 43.367188 L 152.605469 43.367188 L 147.363281 44.5625 L 143.871094 45.839844 L 143.632812 45.917969 L 143.078125 45.996094 L 141.886719 46.078125 L 141.964844 46.316406 L 141.886719 46.15625 L 141.726562 45.917969 L 141.410156 45.917969 C 143.367188 49.851562 144.585938 55.777344 145.0625 63.695312 L 144.664062 63.773438 L 144.746094 63.933594 L 152.605469 64.015625 C 154.878906 64.015625 156.414062 63.640625 157.210938 62.898438 C 157.578125 62.527344 158.71875 62.15625 160.625 61.78125 L 160.625 61.863281 L 160.941406 61.863281 L 160.941406 61.703125 L 161.019531 61.703125 L 160.941406 61.703125 L 161.019531 60.90625 L 158.957031 52.214844 L 156.414062 43.6875 M 148.953125 44.960938 L 148.953125 45.042969 L 148.953125 44.960938 M 136.566406 64.015625 L 136.804688 63.695312 L 136.089844 63.695312 L 136.410156 52.296875 L 136.25 47.351562 L 136.410156 47.195312 L 136.25 47.195312 L 136.25 47.113281 L 135.933594 47.113281 L 135.933594 47.195312 L 126.960938 47.195312 L 126.960938 46.953125 L 125.929688 46.875 L 125.769531 46.953125 L 125.691406 46.953125 L 125.691406 47.195312 L 125.769531 47.273438 C 125.453125 52.960938 125.292969 57.449219 125.292969 60.746094 L 125.375 61.863281 L 125.375 61.941406 L 125.292969 62.101562 C 125.980469 63.375 129.738281 64.015625 136.566406 64.015625 M 142.125 46.636719 L 142.125 46.554688 L 142.203125 46.554688 L 142.125 46.636719 M 141.964844 46.316406 L 141.964844 46.238281 L 142.125 46.238281 L 141.964844 46.316406 M 139.027344 72.386719 L 139.109375 72.542969 L 139.027344 72.464844 L 139.027344 72.386719 M 166.496094 61.144531 L 166.578125 61.304688 L 166.65625 61.304688 L 166.496094 61.144531 M 168.324219 69.59375 L 168.640625 69.59375 L 168.640625 70.074219 L 168.324219 69.59375 M 167.847656 70.550781 L 167.925781 70.949219 L 167.847656 70.871094 L 167.53125 70.789062 L 167.53125 70.550781 L 167.847656 70.550781 M 168.640625 71.667969 L 168.640625 70.871094 L 169.277344 73.101562 L 168.640625 71.667969 M 122.039062 46.953125 L 121.960938 46.796875 L 114.019531 44.246094 L 113.78125 44.324219 L 114.019531 44.5625 C 113.808594 45.308594 113.625 47.75 113.464844 51.898438 C 113.414062 53.171875 112.699219 55.695312 111.320312 59.46875 L 111.402344 59.628906 L 111.320312 59.710938 L 111.402344 59.789062 L 111.402344 59.871094 L 111.480469 59.789062 C 112.644531 60.746094 115.265625 61.222656 119.339844 61.222656 L 119.417969 61.304688 L 119.578125 61.222656 L 119.65625 61.222656 L 119.816406 61.066406 L 119.816406 60.90625 L 119.65625 60.824219 L 122.039062 47.113281 L 122.039062 46.953125 M 107.75 96.859375 L 107.667969 96.460938 L 107.75 96.859375 "/>
<path style=" stroke:none;fill-rule:evenodd;fill:rgb(42.352942%,43.921569%,68.627453%);fill-opacity:1;" d="M 109.734375 43.527344 L 110.84375 44.164062 L 111.003906 44.164062 L 111.082031 44.246094 L 111.082031 44.5625 L 106.160156 58.433594 L 106.160156 58.59375 L 105.84375 58.671875 C 104.148438 57.824219 102.960938 57.34375 102.269531 57.238281 L 102.191406 57.238281 L 102.113281 57 C 102.113281 56.894531 102.191406 56.839844 102.351562 56.839844 L 102.429688 56.839844 L 104.414062 52.214844 C 105.84375 49.027344 107.511719 46.265625 109.417969 43.925781 L 109.257812 43.6875 L 109.335938 43.445312 L 109.574219 43.445312 L 109.734375 43.527344 M 190.078125 55.5625 C 189.8125 55.882812 189.230469 56.097656 188.332031 56.203125 L 186.34375 53.332031 L 183.804688 48.46875 C 181.265625 45.015625 179.808594 42.542969 179.4375 41.054688 L 179.519531 41.054688 L 179.757812 40.976562 L 179.996094 41.453125 C 182.429688 43.3125 184.253906 45.175781 185.472656 47.035156 L 190.078125 55.484375 L 190.15625 55.484375 L 190.078125 55.5625 M 174.359375 39.0625 L 174.039062 38.742188 L 173.882812 38.824219 L 174.277344 39.0625 L 174.359375 39.0625 M 173.722656 38.105469 C 175.523438 38.105469 179.386719 44.324219 185.3125 56.761719 L 184.203125 57.875 C 183.300781 58.460938 182.480469 58.753906 181.742188 58.753906 L 180.550781 58.671875 L 180.46875 58.671875 C 180.046875 58.40625 179.492188 57.183594 178.804688 55.007812 L 177.058594 49.265625 L 175.390625 44.402344 C 174.542969 42.808594 173.167969 41.480469 171.261719 40.417969 L 170.945312 40.496094 L 170.546875 40.257812 L 170.785156 40.179688 L 170.308594 39.9375 L 170.546875 39.859375 L 170.546875 39.699219 L 172.054688 39.382812 C 172.796875 38.902344 173.378906 38.609375 173.800781 38.503906 L 173.484375 38.183594 L 173.722656 38.105469 M 172.292969 61.703125 L 167.132812 61.78125 C 167.609375 61.78125 167.582031 61.648438 167.054688 61.382812 L 166.816406 61.304688 L 166.65625 61.222656 L 166.65625 60.90625 L 166.734375 60.90625 L 164.355469 52.136719 C 162.132812 47.566406 160.992188 44.5625 160.941406 43.128906 L 160.78125 43.128906 L 160.226562 42.890625 C 160.96875 42.144531 163.136719 41.320312 166.734375 40.417969 L 167.371094 40.578125 L 167.371094 40.496094 L 167.6875 40.496094 C 170.8125 45.28125 173.800781 51.074219 176.660156 57.875 L 176.660156 58.992188 L 176.582031 58.992188 C 175.890625 60.160156 174.808594 60.90625 173.324219 61.222656 L 172.292969 61.703125 M 156.414062 43.6875 L 158.957031 52.214844 L 161.019531 60.90625 L 160.941406 61.703125 L 161.019531 61.703125 L 160.941406 61.703125 L 160.941406 61.863281 L 160.625 61.863281 L 160.625 61.78125 C 158.71875 62.15625 157.578125 62.527344 157.210938 62.898438 C 156.414062 63.640625 154.878906 64.015625 152.605469 64.015625 L 144.746094 63.933594 L 144.664062 63.773438 L 145.0625 63.695312 C 144.585938 55.777344 143.367188 49.851562 141.410156 45.917969 L 141.726562 45.917969 L 141.886719 46.15625 L 141.964844 46.316406 L 141.886719 46.078125 L 143.078125 45.996094 L 143.632812 45.917969 L 143.871094 45.839844 L 147.363281 44.5625 L 152.605469 43.367188 L 152.921875 43.367188 L 153.160156 43.207031 L 156.734375 43.289062 L 156.8125 43.445312 L 156.414062 43.6875 M 148.953125 44.960938 L 148.953125 45.042969 L 148.953125 44.960938 M 141.964844 46.316406 L 142.125 46.238281 L 141.964844 46.238281 L 141.964844 46.316406 M 142.125 46.636719 L 142.203125 46.554688 L 142.125 46.554688 L 142.125 46.636719 M 136.566406 64.015625 C 129.738281 64.015625 125.980469 63.375 125.292969 62.101562 L 125.375 61.941406 L 125.375 61.863281 L 125.292969 60.746094 C 125.292969 57.449219 125.453125 52.960938 125.769531 47.273438 L 125.691406 47.195312 L 125.691406 46.953125 L 125.769531 46.953125 L 125.929688 46.875 L 126.960938 46.953125 L 126.960938 47.195312 L 135.933594 47.195312 L 135.933594 47.113281 L 136.25 47.113281 L 136.25 47.195312 L 136.410156 47.195312 L 136.25 47.351562 L 136.410156 52.296875 L 136.089844 63.695312 L 136.804688 63.695312 L 136.566406 64.015625 M 166.496094 61.144531 L 166.65625 61.304688 L 166.578125 61.304688 L 166.496094 61.144531 M 122.039062 46.953125 L 122.039062 47.113281 L 119.65625 60.824219 L 119.816406 60.90625 L 119.816406 61.066406 L 119.65625 61.222656 L 119.578125 61.222656 L 119.417969 61.304688 L 119.339844 61.222656 C 115.265625 61.222656 112.644531 60.746094 111.480469 59.789062 L 111.402344 59.871094 L 111.402344 59.789062 L 111.320312 59.710938 L 111.402344 59.628906 L 111.320312 59.46875 C 112.699219 55.695312 113.414062 53.171875 113.464844 51.898438 C 113.625 47.75 113.808594 45.308594 114.019531 44.5625 L 113.78125 44.324219 L 114.019531 44.246094 L 121.960938 46.796875 L 122.039062 46.953125 "/>
<path style=" stroke:none;fill-rule:evenodd;fill:rgb(4.705882%,7.450981%,10.588235%);fill-opacity:1;" d="M 97.824219 83.863281 C 98.144531 84.183594 98.40625 84.820312 98.621094 85.777344 L 98.699219 85.859375 C 99.28125 84.15625 100.761719 78.417969 103.144531 68.636719 L 103.460938 68.636719 L 103.542969 69.035156 L 103.066406 71.585938 L 103.066406 74.140625 C 103.066406 80.199219 104.386719 88.59375 107.035156 99.332031 L 103.699219 99.25 C 104.175781 97.921875 104.414062 96.964844 104.414062 96.378906 C 104.519531 95.425781 104.125 94.945312 103.222656 94.945312 C 102.429688 94.945312 101.609375 95.292969 100.761719 95.980469 L 100.683594 95.902344 L 100.523438 93.75 L 100.523438 93.671875 L 100.445312 93.671875 C 100.339844 93.246094 100.152344 93.03125 99.890625 93.03125 L 99.652344 93.03125 L 97.984375 93.671875 L 96.871094 93.75 C 97.402344 92.207031 97.71875 89.550781 97.824219 85.777344 L 97.03125 83.625 L 97.269531 83.546875 L 97.824219 83.863281 M 107.511719 95.902344 C 107.511719 95.582031 107.589844 95.34375 107.75 95.183594 L 109.894531 99.570312 L 109.972656 99.570312 L 109.972656 98.613281 C 109.390625 94.519531 109.097656 90.136719 109.097656 85.460938 C 109.097656 83.386719 109.203125 82.191406 109.417969 81.871094 L 110.367188 83.066406 L 110.289062 78.203125 C 110.289062 71.828125 110.582031 67.414062 111.164062 64.972656 L 111.320312 64.253906 L 111.402344 64.492188 L 111.402344 66.644531 L 112.355469 73.582031 C 112.140625 74.378906 112.007812 76.105469 111.957031 78.761719 L 111.957031 86.175781 L 112.195312 86.734375 L 111.957031 86.972656 L 112.035156 95.664062 C 112.140625 97.042969 112.855469 101.75 114.179688 109.773438 L 116.003906 122.367188 L 117.039062 130.023438 L 115.371094 126.195312 C 114.207031 122.902344 113.4375 120.109375 113.066406 117.824219 C 110.84375 110.277344 109.335938 104.617188 108.542969 100.84375 L 107.75 96.859375 L 107.667969 96.460938 L 107.511719 96.0625 L 107.511719 95.902344 M 124.183594 82.429688 L 123.546875 73.421875 C 123.546875 72.625 123.945312 72.253906 124.738281 72.304688 L 125.214844 72.464844 L 125.214844 72.703125 L 125.054688 72.703125 L 124.898438 74.457031 C 124.898438 75.628906 125.109375 76.957031 125.53125 78.445312 L 125.53125 82.429688 L 124.5 82.429688 L 124.421875 82.828125 L 124.183594 82.828125 L 124.183594 82.429688 M 132.914062 82.988281 L 131.566406 73.660156 L 131.566406 70.710938 L 133.234375 70.550781 L 133.3125 70.550781 L 133.789062 70.710938 L 133.152344 70.949219 L 133.074219 71.1875 L 133.074219 72.226562 L 133.472656 78.523438 L 133.472656 82.109375 L 133.3125 82.75 L 133.3125 82.90625 L 132.914062 82.988281 M 137.363281 83.304688 L 137.679688 77.328125 C 137.414062 75.945312 137.308594 74.910156 137.363281 74.21875 C 137.363281 73.15625 137.945312 72.464844 139.109375 72.144531 L 139.425781 72.066406 L 139.027344 72.386719 L 139.027344 72.464844 L 139.109375 72.542969 C 138.738281 73.234375 138.550781 75.015625 138.550781 77.886719 L 138.3125 80.753906 L 138.3125 82.191406 L 137.917969 83.148438 L 137.917969 83.546875 L 137.363281 83.304688 M 148 81.710938 C 147.523438 80.597656 147.285156 78.628906 147.285156 75.8125 L 147.601562 73.339844 L 147.445312 73.261719 L 147.839844 72.464844 L 148.078125 72.066406 L 148.078125 72.226562 L 148.398438 71.90625 L 148.238281 71.90625 L 148.792969 71.429688 L 148.953125 71.507812 L 149.191406 71.269531 L 149.351562 71.507812 L 149.351562 71.585938 L 149.429688 71.585938 L 149.429688 71.746094 L 149.351562 71.828125 L 148.792969 72.785156 L 148.554688 75.972656 L 148.476562 81.074219 L 148.476562 81.632812 L 148.316406 81.632812 L 148.316406 81.792969 L 148.160156 81.953125 L 148 81.710938 M 165.226562 81.074219 L 165.070312 75.8125 C 165.070312 73.847656 165.148438 72.304688 165.308594 71.1875 L 165.625 69.59375 L 166.101562 69.59375 L 166.261719 69.675781 L 166.65625 69.914062 L 166.496094 70.632812 L 166.496094 71.1875 L 166.417969 71.828125 L 166.417969 74.539062 L 166.816406 80.597656 L 165.464844 80.996094 L 165.464844 81.472656 L 165.308594 81.554688 L 165.226562 81.074219 M 173.644531 90.878906 L 174.515625 83.386719 C 174.832031 83.757812 175.363281 85.726562 176.105469 89.285156 L 176.660156 95.183594 L 176.738281 95.183594 C 177.320312 93.75 177.929688 89.285156 178.566406 81.792969 L 178.882812 81.792969 C 179.835938 84.554688 180.101562 88.832031 179.675781 94.625 L 181.503906 92.394531 L 181.660156 92.074219 L 181.820312 92.316406 L 181.503906 93.351562 C 181.34375 101.75 180.683594 107.726562 179.519531 111.289062 L 176.421875 122.289062 L 173.5625 129.542969 L 174.039062 110.96875 L 173.644531 92.472656 L 173.5625 92.472656 L 173.484375 92.074219 L 173.644531 90.878906 M 181.898438 68.082031 C 182.058594 68.027344 182.191406 67.949219 182.296875 67.839844 C 183.25 69.914062 187.90625 75.707031 196.269531 85.21875 L 195.476562 82.828125 L 195.476562 82.589844 L 195.632812 82.507812 L 201.507812 86.097656 L 202.621094 86.8125 L 202.699219 87.210938 L 202.621094 87.371094 L 202.066406 87.132812 L 203.652344 90.242188 L 206.035156 94.308594 L 198.332031 90.402344 C 197.910156 90.402344 197.699219 90.613281 197.699219 91.039062 L 199.128906 92.074219 L 200.953125 95.34375 L 201.351562 97.179688 L 197.9375 96.859375 C 196.347656 96.859375 194.179688 97.628906 191.425781 99.171875 L 191.425781 100.128906 L 191.507812 100.207031 L 190.710938 101.484375 L 190.710938 102.039062 L 187.695312 99.332031 L 185.394531 102.519531 L 182.136719 104.832031 L 182.457031 101.402344 C 183.039062 101.03125 184.359375 98.984375 186.425781 95.265625 C 187.90625 92.289062 188.648438 90.136719 188.648438 88.808594 L 188.25 83.863281 C 188.039062 83.015625 187.511719 82.109375 186.664062 81.152344 C 185.5 79.824219 184.253906 79.160156 182.933594 79.160156 C 182.824219 73.367188 182.480469 69.675781 181.898438 68.082031 M 169.753906 74.617188 L 169.992188 74.617188 L 170.46875 76.847656 L 170.46875 77.007812 L 170.945312 78.683594 L 171.421875 81.234375 L 171.660156 82.429688 L 170.863281 82.429688 L 170.230469 77.40625 L 170.070312 77.40625 L 169.671875 75.414062 L 169.671875 74.617188 L 169.753906 74.617188 M 178.804688 84.261719 L 178.804688 84.421875 L 178.804688 84.261719 "/>
</g>
</svg>
