<?xml version="1.0" encoding="UTF-8"?>
<svg xmlns="http://www.w3.org/2000/svg" xmlns:xlink="http://www.w3.org/1999/xlink" width="296px" height="318px" viewBox="0 0 296 318" version="1.1">
<g id="surface1">
<path style=" stroke:none;fill-rule:evenodd;fill:rgb(0%,0%,0%);fill-opacity:1;" d="M 179.519531 41.054688 L 174.515625 37.785156 L 173.882812 37.148438 L 173.722656 37.386719 L 173.246094 37.070312 L 170.945312 35.875 L 166.65625 33.402344 C 164.804688 32.394531 162.847656 31.726562 160.78125 31.410156 L 144.347656 28.859375 L 144.347656 28.9375 C 144.347656 29.363281 144.003906 29.574219 143.316406 29.574219 L 142.203125 29.175781 C 138.445312 29.175781 134.398438 29.921875 130.058594 31.410156 L 119.894531 35.15625 C 117.300781 36.007812 115.132812 37.308594 113.386719 39.0625 C 112.433594 39.964844 111.375 41.269531 110.210938 42.96875 C 109.894531 43.074219 109.707031 43.234375 109.65625 43.445312 L 109.335938 43.445312 L 109.257812 43.6875 L 109.417969 43.925781 L 108.304688 45.359375 L 105.605469 49.746094 L 104.96875 51.019531 L 104.890625 51.179688 L 104.414062 52.214844 L 103.9375 53.332031 L 100.683594 62.421875 L 100.523438 63.933594 C 99.996094 67.65625 99.757812 71.164062 99.808594 74.457031 C 99.96875 79.773438 99.757812 87.851562 99.175781 98.691406 L 99.332031 101.640625 L 99.175781 103.792969 L 99.253906 104.035156 L 99.492188 104.035156 C 100.128906 109.71875 101.609375 117.320312 103.9375 126.832031 L 103.9375 127.152344 L 105.765625 134.726562 L 107.113281 142.9375 L 107.191406 142.9375 L 112.117188 141.898438 L 114.894531 140.945312 C 112.671875 133.34375 111.03125 126.808594 109.972656 121.332031 L 106.082031 103.554688 L 105.84375 102.28125 L 106.082031 101.402344 L 106.082031 100.683594 L 105.683594 100.683594 L 105.605469 101.082031 C 104.652344 95.824219 104.175781 90.933594 104.175781 86.414062 L 104.175781 83.546875 L 103.9375 83.546875 L 103.9375 70.3125 L 104.335938 68.796875 L 105.050781 81.152344 L 105.367188 83.546875 L 106.636719 99.089844 L 110.6875 118.0625 C 111.214844 121.359375 112.855469 127.65625 115.609375 136.957031 L 118.148438 145.804688 L 118.546875 148.757812 L 118.546875 148.835938 L 118.703125 148.757812 L 119.179688 150.429688 L 118.941406 148.277344 L 118.941406 148.199219 L 118.230469 142.378906 L 115.765625 119.816406 C 113.492188 104.140625 112.195312 92.980469 111.878906 86.335938 L 112.59375 86.335938 L 112.511719 81.554688 L 112.433594 80.914062 L 112.511719 80.515625 L 112.511719 80.199219 L 112.671875 79.558594 L 112.433594 79.480469 L 112.671875 76.210938 L 113.703125 72.464844 L 113.625 72.144531 L 113.542969 72.386719 L 113.304688 72.863281 C 113.675781 71.109375 114.019531 70.234375 114.339844 70.234375 C 114.921875 70.234375 115.132812 70.710938 114.972656 71.667969 L 114.496094 74.855469 L 113.78125 77.488281 L 113.863281 78.363281 L 114.972656 78.285156 L 115.132812 78.285156 L 115.210938 78.601562 L 115.449219 78.445312 L 115.449219 78.285156 L 119.894531 78.601562 L 120.847656 78.761719 L 125.851562 78.523438 L 126.484375 78.523438 L 127.039062 78.445312 L 127.199219 78.445312 L 127.199219 78.363281 L 127.515625 77.566406 L 127.359375 76.371094 L 127.914062 73.898438 L 128.074219 73.5 L 129.183594 71.269531 L 129.265625 71.507812 L 129.582031 71.746094 L 129.582031 70.789062 L 129.976562 70.3125 L 130.058594 70.3125 L 130.058594 70.234375 L 130.214844 70.234375 L 130.453125 70.3125 C 130.667969 70.417969 130.773438 70.683594 130.773438 71.109375 L 130.851562 73.820312 L 130.535156 77.648438 L 130.773438 79 L 133.789062 78.761719 L 139.980469 78.523438 L 140.457031 78.523438 L 140.539062 78.601562 L 140.695312 78.523438 L 140.777344 78.523438 L 141.726562 78.601562 L 141.808594 77.488281 C 142.230469 77.273438 142.546875 75.042969 142.761719 70.789062 L 142.917969 71.667969 L 143.554688 69.433594 L 143.714844 69.355469 C 144.136719 69.355469 144.375 69.542969 144.425781 69.914062 C 144.902344 70.976562 145.378906 74.113281 145.855469 79.320312 L 147.921875 79.160156 L 151.492188 79.320312 L 151.8125 79.320312 L 152.523438 79.398438 L 153 75.09375 L 153.636719 71.667969 L 153.476562 70.949219 L 153.875 69.355469 L 153.714844 69.117188 L 153.398438 69.117188 L 153.238281 69.835938 L 153.160156 69.035156 L 153.796875 68 L 154.589844 70.3125 L 154.828125 70.234375 C 155.726562 70.234375 156.175781 73.023438 156.175781 78.601562 L 156.496094 78.601562 L 156.652344 78.285156 L 157.210938 77.886719 L 157.210938 78.203125 L 157.289062 78.601562 L 158.003906 78.761719 L 165.308594 78.285156 L 169.355469 77.488281 L 169.59375 78.285156 L 169.910156 78.046875 L 169.832031 77.40625 L 170.707031 77.246094 L 170.945312 77.246094 L 170.863281 77.167969 L 169.277344 73.183594 L 169.039062 72.703125 C 169.039062 72.011719 169.25 71.667969 169.671875 71.667969 C 170.519531 71.667969 171.3125 73.605469 172.054688 77.488281 L 172.132812 77.726562 L 171.976562 78.285156 L 172.132812 78.601562 L 172.132812 77.648438 L 172.53125 79.480469 L 173.167969 81.234375 L 173.484375 82.90625 L 173.484375 83.148438 L 173.800781 85.140625 L 173.800781 85.699219 L 174.597656 91.039062 L 176.261719 106.105469 C 177.109375 111.367188 177.535156 119.605469 177.535156 130.820312 L 177.136719 152.664062 L 177.691406 149.953125 L 177.929688 149.871094 C 178.40625 148.492188 178.644531 147.003906 178.644531 145.40625 L 178.644531 145.007812 C 179.808594 138.683594 180.628906 132.734375 181.105469 127.152344 L 181.105469 105.546875 L 180.945312 105.070312 L 181.105469 103.476562 L 181.105469 97.179688 L 181.265625 83.546875 L 181.265625 79.398438 L 181.421875 79.398438 L 180.945312 76.691406 L 181.105469 75.734375 C 180.683594 73.074219 180.445312 70.898438 180.390625 69.195312 L 180.789062 67.523438 L 180.46875 67.921875 C 180.46875 67.390625 180.65625 67.125 181.027344 67.125 L 181.421875 67.363281 L 181.421875 67.761719 L 181.742188 70.074219 L 181.980469 72.386719 L 181.980469 72.625 L 182.296875 75.574219 C 182.457031 76.265625 182.695312 76.847656 183.011719 77.328125 L 182.851562 77.488281 L 183.25 77.804688 L 183.25 77.886719 L 183.40625 77.964844 L 184.203125 78.601562 L 184.519531 79.320312 L 184.679688 79.242188 L 184.757812 79.082031 L 185.234375 79.480469 L 187.457031 82.351562 L 188.09375 83.546875 L 188.332031 84.34375 L 188.648438 86.574219 C 188.648438 88.59375 188.171875 91.25 187.21875 94.546875 L 186.1875 96.859375 L 182.613281 102.199219 L 182.535156 102.121094 L 182.457031 102.4375 L 182.375 103.316406 L 182.375 127.789062 L 180.628906 143.734375 L 181.105469 143.574219 L 183.566406 144.210938 L 185.789062 145.25 C 187.324219 145.992188 189.175781 147.003906 191.347656 148.277344 L 197.300781 152.183594 C 196.929688 150.109375 196.640625 146.628906 196.429688 141.742188 C 195.421875 135.789062 194.917969 131.589844 194.917969 129.144531 L 195.078125 127.871094 L 194.523438 110.492188 L 193.730469 93.113281 L 194.046875 93.75 L 194.046875 93.828125 L 194.207031 93.671875 L 193.648438 92.15625 L 193.492188 89.683594 C 192.855469 78.949219 192.328125 72.039062 191.902344 68.957031 L 191.425781 63.933594 L 190.554688 58.515625 L 189.042969 54.925781 L 189.042969 54.847656 L 188.964844 54.6875 L 187.535156 51.179688 L 186.902344 49.425781 L 185.472656 47.035156 C 184.464844 45.441406 183.011719 43.871094 181.105469 42.332031 L 179.996094 41.453125 L 179.757812 40.976562 L 179.519531 41.054688 M 103.9375 68.082031 L 103.9375 67.28125 L 104.097656 67.679688 L 103.9375 68.082031 M 112.910156 73.660156 L 113.066406 72.941406 L 113.066406 73.023438 L 113.148438 73.101562 L 112.910156 73.660156 M 128.628906 71.109375 L 128.707031 70.632812 L 128.867188 70.710938 L 128.628906 71.109375 M 141.648438 71.269531 L 141.648438 71.109375 C 141.648438 70.738281 141.726562 70.472656 141.886719 70.3125 L 141.726562 71.109375 L 141.648438 71.269531 M 128.628906 30.453125 C 133.65625 28.699219 137.335938 27.820312 139.664062 27.820312 L 141.648438 27.902344 L 143.476562 27.664062 C 147.601562 27.664062 154.035156 28.539062 162.765625 30.292969 C 165.148438 31.25 168.269531 32.765625 172.132812 34.835938 C 178.222656 37.386719 183.039062 41.214844 186.582031 46.316406 L 187.378906 47.511719 C 188.59375 47.832031 189.945312 50.96875 191.425781 56.917969 L 192.777344 63.933594 L 193.015625 66.246094 L 194.679688 84.980469 L 196.03125 122.527344 L 195.871094 129.941406 L 198.808594 152.664062 L 198.808594 153.460938 L 199.046875 154.015625 C 199.046875 154.441406 198.835938 154.65625 198.414062 154.65625 L 190.078125 149.074219 L 186.902344 147.082031 L 186.582031 147.082031 L 180.550781 144.691406 C 179.332031 152.820312 178.167969 156.886719 177.058594 156.886719 L 176.421875 156.726562 L 176.421875 156.171875 C 176.15625 155.957031 175.972656 155.292969 175.867188 154.175781 L 175.867188 152.105469 L 176.183594 142.855469 L 175.785156 142.9375 C 175.308594 142.9375 174.226562 142.324219 172.53125 141.101562 C 170.679688 139.773438 169.460938 138.578125 168.878906 137.515625 C 167.664062 135.496094 167.132812 133.664062 167.292969 132.015625 C 166.710938 126.964844 166.417969 123.273438 166.417969 120.933594 C 166.417969 120.457031 166.628906 120.214844 167.054688 120.214844 L 167.132812 120.214844 L 167.132812 120.058594 L 175.070312 110.570312 L 175.628906 110.730469 L 174.992188 106.585938 C 174.570312 104.882812 174.039062 100.84375 173.40625 94.46875 L 172.132812 87.054688 L 172.132812 83.546875 L 170.46875 78.523438 L 170.46875 78.445312 L 166.972656 79.160156 L 156.8125 80.117188 L 156.496094 80.117188 C 156.175781 80.117188 155.964844 80.011719 155.859375 79.800781 C 155.011719 79.535156 154.5625 78.921875 154.511719 77.964844 L 154.75 76.132812 L 154.75 75.492188 L 154.667969 75.015625 L 154.511719 74.617188 L 154.511719 75.015625 L 153.636719 79.800781 L 153.714844 79.957031 L 153.398438 80.4375 L 153.160156 80.675781 L 152.050781 80.675781 L 145.699219 80.277344 L 145.300781 80.4375 C 144.71875 80.4375 144.214844 78.445312 143.792969 74.457031 L 143.554688 75.335938 L 143.15625 79.558594 L 143.15625 79.640625 L 143 79.957031 L 142.917969 80.039062 L 142.839844 80.355469 L 142.285156 80.515625 L 142.125 80.199219 L 139.902344 80.277344 L 134.503906 80.996094 C 131.855469 81.207031 130.347656 80.835938 129.976562 79.878906 L 129.820312 79.480469 L 129.898438 79.320312 L 129.582031 78.363281 C 129.316406 79.480469 128.972656 80.117188 128.550781 80.277344 L 127.914062 80.835938 C 127.492188 80.835938 127.253906 80.648438 127.199219 80.277344 L 125.691406 80.039062 L 123.46875 80.117188 L 113.863281 79.480469 L 113.78125 82.351562 L 113.703125 88.648438 L 114.019531 88.648438 L 114.019531 88.964844 L 114.65625 100.207031 L 114.816406 101.5625 L 117.832031 108.894531 C 119.261719 112.617188 120.953125 115.035156 122.914062 116.152344 C 128.097656 119.074219 131.25 121.597656 132.359375 123.722656 C 132.890625 124.734375 133.152344 127.097656 133.152344 130.820312 C 133.261719 135.070312 133.046875 137.195312 132.519531 137.195312 C 132.359375 137.195312 132.253906 136.90625 132.203125 136.320312 C 131.089844 137.0625 127.226562 138.550781 120.609375 140.785156 L 119.816406 140.625 L 121.167969 154.734375 L 121.167969 155.691406 C 121.167969 156.117188 120.980469 156.328125 120.609375 156.328125 L 120.53125 156.328125 C 119.789062 156.328125 118.121094 151.945312 115.53125 143.175781 L 115.210938 142.058594 L 113.386719 142.777344 C 111.320312 143.574219 109.785156 143.972656 108.78125 143.972656 L 107.191406 143.894531 L 107.113281 144.371094 L 106.636719 144.453125 C 105.898438 144.453125 105.183594 141.449219 104.492188 135.441406 L 102.746094 128.109375 C 102.378906 128.003906 102.191406 127.738281 102.191406 127.3125 L 102.507812 126.992188 L 102.429688 126.515625 L 102.507812 126.195312 C 99.386719 113.175781 97.824219 103.953125 97.824219 98.53125 C 98.460938 87.53125 98.699219 79.347656 98.539062 73.980469 C 98.488281 69.515625 98.621094 66.167969 98.9375 63.933594 L 99.492188 61.621094 L 102.351562 53.570312 C 103.144531 50.914062 103.671875 49.585938 103.9375 49.585938 L 103.9375 49.503906 C 105.367188 46.953125 107.085938 44.351562 109.097656 41.691406 C 111.796875 37.917969 115.183594 35.34375 119.261719 33.960938 L 128.628906 30.453125 M 184.917969 81.632812 L 183.171875 79.480469 L 182.535156 91.519531 L 182.851562 96.859375 L 182.695312 99.808594 L 184.597656 96.222656 C 186.453125 92.820312 187.378906 89.578125 187.378906 86.496094 C 187.378906 85.273438 186.558594 83.652344 184.917969 81.632812 M 115.292969 106.027344 L 116.800781 118.382812 L 119.65625 139.746094 C 120.1875 139.003906 121.988281 138.417969 125.054688 137.992188 L 131.644531 135.285156 L 132.042969 135.363281 L 131.882812 128.269531 C 131.882812 125.292969 129.660156 122.367188 125.214844 119.5 C 120.503906 116.46875 117.832031 113.652344 117.195312 111.050781 L 115.292969 106.027344 M 168.640625 131.457031 C 168.535156 133.15625 169.066406 135.042969 170.230469 137.117188 L 173.484375 139.429688 C 174.859375 140.4375 175.761719 141.210938 176.183594 141.742188 L 176.183594 130.738281 L 175.707031 111.449219 C 170.996094 117.824219 168.402344 121.121094 167.925781 121.332031 C 168.402344 122.925781 168.640625 126.300781 168.640625 131.457031 "/>
<path style=" stroke:none;fill-rule:evenodd;fill:rgb(42.352942%,43.921569%,68.627453%);fill-opacity:1;" d="M 170.785156 40.097656 L 170.785156 40.179688 L 170.308594 39.9375 L 170.46875 39.9375 L 170.785156 40.097656 M 176.660156 57.875 L 176.660156 58.117188 L 176.582031 58.035156 L 176.660156 57.875 M 171.339844 61.703125 L 171.339844 61.621094 L 171.421875 61.703125 L 171.339844 61.703125 M 141.410156 45.996094 L 141.410156 45.917969 L 141.570312 45.917969 L 141.410156 45.996094 M 136.25 47.195312 L 136.410156 47.195312 L 136.25 47.351562 L 136.25 47.195312 "/>
<path style=" stroke:none;fill-rule:evenodd;fill:rgb(0%,1.568628%,0.784314%);fill-opacity:1;" d="M 113.542969 72.386719 L 113.703125 72.464844 L 113.542969 72.386719 "/>
<path style=" stroke:none;fill-rule:evenodd;fill:rgb(4.705882%,7.450981%,10.588235%);fill-opacity:1;" d="M 182.535156 102.199219 L 182.457031 102.4375 L 182.535156 102.121094 L 182.535156 102.199219 M 194.046875 93.75 L 194.207031 93.671875 L 194.046875 93.828125 L 194.046875 93.75 M 170.863281 77.167969 L 170.945312 77.246094 L 170.707031 77.246094 L 170.863281 77.167969 M 174.515625 83.386719 L 174.675781 83.546875 L 174.515625 83.546875 L 174.515625 83.386719 M 113.542969 72.386719 L 113.625 72.144531 L 113.703125 72.464844 L 113.542969 72.386719 M 118.941406 148.199219 L 118.941406 148.277344 L 118.785156 148.199219 L 118.941406 148.199219 M 118.703125 148.757812 L 118.546875 148.835938 L 118.546875 148.757812 L 118.703125 148.757812 "/>
<path style=" stroke:none;fill-rule:evenodd;fill:rgb(18.431373%,9.411765%,6.27451%);fill-opacity:1;" d="M 172.054688 77.488281 L 172.132812 77.648438 L 172.132812 77.726562 L 172.054688 77.488281 "/>
<path style=" stroke:none;fill-rule:evenodd;fill:rgb(16.470589%,16.470589%,27.450982%);fill-opacity:1;" d="M 113.066406 73.023438 L 113.304688 72.863281 L 113.148438 73.101562 L 113.066406 73.023438 M 125.851562 78.523438 L 125.851562 78.445312 L 126.167969 78.445312 L 126.167969 78.523438 L 125.851562 78.523438 M 177.691406 149.953125 L 177.613281 149.953125 L 177.691406 149.953125 M 188.964844 105.628906 L 189.042969 105.707031 L 188.964844 105.628906 M 172.132812 77.726562 L 172.132812 77.648438 L 172.132812 78.601562 L 171.976562 78.285156 L 172.132812 77.726562 M 148.953125 44.960938 L 148.953125 45.042969 L 148.953125 44.960938 M 140.777344 78.523438 L 140.695312 78.523438 L 140.777344 78.445312 L 140.777344 78.523438 M 141.488281 72.863281 L 141.332031 73.339844 L 141.011719 74.617188 L 141.25 73.339844 L 141.410156 72.863281 L 141.488281 72.863281 M 151.8125 79.320312 L 151.652344 79.320312 L 151.8125 79.242188 L 151.8125 79.320312 M 112.511719 80.199219 L 112.511719 80.515625 L 112.433594 80.914062 L 112.355469 80.835938 L 112.355469 80.753906 L 112.433594 80.4375 L 112.511719 80.199219 M 118.941406 148.277344 L 119.179688 150.429688 L 118.703125 148.757812 L 118.785156 148.199219 L 118.941406 148.277344 M 126.484375 78.523438 L 126.246094 78.523438 L 126.246094 78.445312 L 126.484375 78.445312 L 126.484375 78.523438 M 129.976562 70.3125 L 130.058594 70.234375 L 130.058594 70.3125 L 129.976562 70.3125 M 115.132812 78.285156 L 114.972656 78.285156 L 115.132812 78.285156 M 105.445312 101.960938 L 105.367188 101.882812 L 105.445312 101.882812 L 105.445312 101.960938 "/>
<path style=" stroke:none;fill-rule:evenodd;fill:rgb(98.431373%,97.647059%,92.54902%);fill-opacity:1;" d="M 109.65625 43.445312 L 109.574219 43.6875 L 109.734375 44.085938 L 110.527344 44.324219 L 111.082031 44.324219 L 111.082031 44.5625 L 106.160156 58.433594 L 106.160156 58.59375 L 105.84375 58.671875 L 105.527344 58.515625 C 105.578125 57.664062 105.261719 57.238281 104.574219 57.238281 L 103.9375 57.398438 L 103.9375 53.332031 L 104.414062 52.214844 L 104.890625 51.179688 L 104.96875 51.019531 L 105.605469 49.746094 L 108.304688 45.359375 L 109.417969 43.925781 L 109.257812 43.6875 L 109.335938 43.445312 L 109.65625 43.445312 M 187.535156 51.179688 L 187.535156 52.695312 L 187.457031 52.773438 C 187.035156 52.828125 186.714844 53.121094 186.503906 53.652344 L 186.34375 53.332031 L 183.804688 48.46875 C 181.265625 45.015625 179.808594 42.542969 179.4375 41.054688 L 179.519531 41.054688 L 179.757812 40.976562 L 179.996094 41.453125 L 181.105469 42.332031 C 183.011719 43.871094 184.464844 45.441406 185.472656 47.035156 L 186.902344 49.425781 L 187.535156 51.179688 M 170.785156 40.097656 L 171.421875 40.179688 C 171.789062 40.179688 172.054688 39.964844 172.214844 39.539062 L 173.324219 39.621094 C 173.800781 39.621094 174.144531 39.433594 174.359375 39.0625 L 174.515625 38.425781 C 176.476562 39.753906 180.019531 45.730469 185.15625 56.363281 L 184.757812 56.519531 L 183.25 55.484375 C 182.71875 55.484375 182.429688 55.722656 182.375 56.203125 L 182.296875 57.316406 L 180.867188 55.882812 C 180.390625 55.882812 180.152344 56.253906 180.152344 57 L 179.757812 57.558594 L 178.804688 55.007812 L 177.058594 49.265625 L 175.390625 44.402344 C 174.542969 42.808594 173.167969 41.480469 171.261719 40.417969 L 170.945312 40.496094 L 170.546875 40.257812 L 170.785156 40.179688 L 170.785156 40.097656 M 176.660156 57.875 L 176.582031 58.035156 L 176.023438 57.796875 C 175.390625 57.796875 175.070312 58.007812 175.070312 58.433594 L 174.992188 59.710938 C 174.464844 59.550781 173.882812 59.710938 173.246094 60.1875 C 172.398438 59.550781 171.632812 59.230469 170.945312 59.230469 C 170.574219 59.230469 170.253906 59.496094 169.992188 60.027344 L 169.671875 59.550781 L 168.640625 61.542969 C 168.113281 61.488281 167.769531 61.332031 167.609375 61.066406 C 167.34375 60.640625 167 60.425781 166.578125 60.425781 L 164.355469 52.136719 C 162.132812 47.566406 160.992188 44.5625 160.941406 43.128906 L 160.78125 43.128906 L 160.226562 42.890625 L 161.097656 42.332031 L 161.972656 43.445312 C 162.554688 43.445312 162.847656 42.890625 162.847656 41.773438 L 164.117188 42.25 C 165.015625 42.25 165.546875 41.746094 165.703125 40.738281 L 165.785156 40.738281 L 167.371094 40.496094 L 167.371094 40.578125 L 167.371094 40.496094 L 167.6875 40.496094 C 170.8125 45.28125 173.800781 51.074219 176.660156 57.875 M 148.875 44.960938 L 150.222656 43.765625 L 151.015625 43.605469 C 152.285156 44.457031 153.109375 44.882812 153.476562 44.882812 L 155.460938 43.289062 L 156.734375 43.289062 L 156.8125 43.445312 L 156.414062 43.6875 L 158.957031 52.214844 L 161.019531 60.585938 L 160.226562 60.425781 C 159.589844 60.425781 159.21875 60.585938 159.113281 60.90625 L 158.636719 61.863281 C 158.480469 61.488281 158.109375 61.304688 157.527344 61.304688 L 156.972656 62.179688 L 155.9375 61.863281 L 154.90625 62.339844 L 153.714844 62.023438 L 151.015625 63.136719 C 150.910156 62.605469 150.539062 62.339844 149.90625 62.339844 L 148.554688 63.136719 L 147.523438 62.5 L 146.492188 63.375 C 146.28125 63.058594 146.015625 62.898438 145.699219 62.898438 L 145.140625 63.296875 L 145.0625 63.296875 C 144.535156 55.589844 143.316406 49.824219 141.410156 45.996094 L 141.570312 45.917969 L 141.726562 46.15625 L 142.125 46.554688 L 142.125 46.636719 C 142.65625 47.113281 143.183594 47.351562 143.714844 47.351562 C 144.402344 47.351562 144.746094 46.820312 144.746094 45.757812 L 146.253906 46.636719 L 146.96875 45.917969 C 147.496094 45.015625 148.078125 44.75 148.714844 45.121094 L 148.875 44.960938 L 148.953125 44.960938 L 148.875 44.960938 M 148.953125 44.960938 L 148.953125 45.042969 L 148.953125 44.960938 M 136.25 47.351562 L 136.410156 52.296875 L 136.089844 63.21875 L 135.535156 63.617188 L 132.441406 61.621094 L 131.167969 63.136719 L 130.691406 63.695312 L 129.820312 62.898438 C 128.867188 62.046875 128.097656 61.621094 127.515625 61.621094 C 126.828125 61.621094 126.273438 61.835938 125.851562 62.261719 L 125.613281 62.5 L 125.375 62.179688 L 125.292969 62.101562 L 125.375 61.941406 L 125.375 61.863281 L 125.292969 60.746094 C 125.292969 57.449219 125.453125 52.960938 125.769531 47.273438 L 125.691406 47.195312 L 125.691406 46.953125 L 125.769531 46.953125 L 125.929688 46.875 L 126.960938 46.953125 L 126.960938 47.195312 L 127.199219 47.195312 L 127.277344 47.433594 C 127.703125 48.070312 128.179688 48.390625 128.707031 48.390625 C 129.238281 48.390625 129.476562 47.992188 129.421875 47.195312 L 129.582031 47.195312 C 130.585938 48.097656 131.644531 48.550781 132.757812 48.550781 L 133.628906 47.75 L 134.742188 48.070312 C 135.269531 48.070312 135.5625 47.777344 135.613281 47.195312 L 135.933594 47.195312 L 135.933594 47.113281 L 136.25 47.113281 L 136.25 47.351562 M 121.878906 47.195312 L 122.039062 47.195312 L 119.65625 60.824219 L 119.816406 60.90625 L 119.816406 61.066406 L 119.65625 61.222656 L 119.578125 61.222656 L 119.417969 61.304688 L 119.339844 61.222656 L 118.863281 61.222656 C 118.757812 60.480469 118.414062 60.109375 117.832031 60.109375 L 116.800781 61.144531 L 116.085938 61.144531 L 115.371094 60.347656 C 115.054688 59.710938 114.628906 59.390625 114.101562 59.390625 L 113.226562 60.425781 L 113.148438 60.347656 C 112.988281 59.601562 112.75 59.230469 112.433594 59.230469 L 111.878906 60.027344 L 111.480469 59.789062 L 111.402344 59.871094 L 111.402344 59.789062 L 111.320312 59.710938 L 111.402344 59.628906 L 111.320312 59.46875 C 112.699219 55.695312 113.414062 53.171875 113.464844 51.898438 C 113.625 47.75 113.808594 45.308594 114.019531 44.5625 L 113.78125 44.324219 L 114.019531 44.246094 L 115.292969 44.644531 C 115.34375 45.597656 115.660156 46.078125 116.242188 46.078125 L 116.957031 45.679688 L 118.308594 46.796875 L 119.023438 46.398438 C 119.445312 46.398438 119.871094 46.582031 120.292969 46.953125 L 121.878906 47.195312 "/>
<path style=" stroke:none;fill-rule:evenodd;fill:rgb(91.37255%,90.980393%,69.803923%);fill-opacity:1;" d="M 109.65625 43.445312 C 109.707031 43.234375 109.894531 43.074219 110.210938 42.96875 C 111.375 41.269531 112.433594 39.964844 113.386719 39.0625 C 115.132812 37.308594 117.300781 36.007812 119.894531 35.15625 L 130.058594 31.410156 C 134.398438 29.921875 138.445312 29.175781 142.203125 29.175781 L 143.316406 29.574219 C 144.003906 29.574219 144.347656 29.363281 144.347656 28.9375 L 144.347656 28.859375 L 160.78125 31.410156 C 162.847656 31.726562 164.804688 32.394531 166.65625 33.402344 L 170.945312 35.875 L 173.246094 37.070312 L 173.722656 37.386719 L 173.882812 37.148438 L 174.515625 37.785156 L 179.519531 41.054688 L 179.4375 41.054688 C 179.808594 42.542969 181.265625 45.015625 183.804688 48.46875 L 186.34375 53.332031 L 186.503906 53.652344 C 186.714844 53.121094 187.035156 52.828125 187.457031 52.773438 L 187.535156 52.695312 L 187.535156 51.179688 L 188.964844 54.6875 L 189.042969 54.847656 L 189.042969 54.925781 L 190.554688 58.515625 L 191.425781 63.933594 L 191.902344 68.957031 C 192.328125 72.039062 192.855469 78.949219 193.492188 89.683594 L 193.648438 92.15625 L 192.300781 90.164062 L 192.0625 90.164062 L 191.1875 94.785156 L 190.15625 92.074219 L 189.917969 92.15625 L 189.042969 105.707031 L 188.964844 105.628906 C 188.4375 102.8125 188.25 100.792969 188.410156 99.570312 L 188.09375 99.570312 L 186.1875 105.628906 L 185.394531 101.960938 C 184.917969 103.34375 184.253906 104.035156 183.40625 104.035156 C 182.878906 104.035156 182.535156 103.847656 182.375 103.476562 L 182.375 103.316406 L 182.457031 102.4375 L 182.535156 102.199219 L 182.613281 102.199219 L 186.1875 96.859375 L 187.21875 94.546875 C 188.171875 91.25 188.648438 88.59375 188.648438 86.574219 L 188.332031 84.34375 L 188.09375 83.546875 L 187.457031 82.351562 L 185.234375 79.480469 L 184.757812 79.082031 L 184.757812 78.84375 L 181.660156 66.964844 L 181.421875 66.964844 L 181.421875 67.363281 L 181.027344 67.125 C 180.65625 67.125 180.46875 67.390625 180.46875 67.921875 C 179.941406 68.453125 179.675781 69.328125 179.675781 70.550781 L 179.675781 74.21875 C 179.414062 75.761719 179.28125 78.230469 179.28125 81.632812 C 179.28125 86.894531 179.570312 96.035156 180.152344 109.054688 C 180.152344 119.152344 179.703125 125.824219 178.804688 129.066406 C 178.589844 129.808594 178.328125 133.132812 178.007812 139.03125 L 178.167969 144.050781 C 178.222656 145.539062 178.007812 147.242188 177.535156 149.15625 L 177.613281 149.953125 L 177.691406 149.953125 L 177.136719 152.664062 L 177.535156 130.820312 C 177.535156 119.605469 177.109375 111.367188 176.261719 106.105469 L 174.597656 91.039062 L 173.800781 85.699219 L 173.800781 85.140625 L 173.484375 83.148438 L 173.484375 82.90625 L 173.167969 81.234375 L 172.53125 79.480469 L 172.132812 77.648438 L 172.054688 77.488281 C 171.3125 73.605469 170.519531 71.667969 169.671875 71.667969 C 169.25 71.667969 169.039062 72.011719 169.039062 72.703125 L 169.277344 73.183594 L 169.195312 74.777344 L 169.355469 77.488281 L 165.308594 78.285156 L 158.003906 78.761719 L 157.289062 78.601562 L 157.210938 78.203125 L 157.210938 77.886719 L 156.652344 78.285156 L 156.496094 78.601562 L 156.175781 78.601562 C 156.175781 73.023438 155.726562 70.234375 154.828125 70.234375 L 154.589844 70.3125 L 153.796875 68 L 153.160156 69.035156 L 153.238281 69.835938 C 151.96875 74.9375 151.335938 77.886719 151.335938 78.683594 L 151.492188 79.320312 L 147.921875 79.160156 L 145.855469 79.320312 C 145.378906 74.113281 144.902344 70.976562 144.425781 69.914062 C 144.375 69.542969 144.136719 69.355469 143.714844 69.355469 L 143.554688 69.433594 L 143.394531 69.117188 L 142.839844 69.59375 L 141.726562 71.109375 L 141.886719 70.3125 C 141.726562 70.472656 141.648438 70.738281 141.648438 71.109375 L 141.648438 71.269531 C 140.855469 72.597656 140.457031 74.058594 140.457031 75.652344 L 140.539062 76.609375 L 140.300781 77.964844 L 140.457031 78.523438 L 139.980469 78.523438 L 133.789062 78.761719 L 130.773438 79 L 130.535156 77.648438 L 130.851562 73.820312 L 130.773438 71.109375 C 130.773438 70.683594 130.667969 70.417969 130.453125 70.3125 L 130.214844 70.234375 L 130.058594 70.234375 L 130.296875 69.992188 L 129.738281 69.753906 L 129.503906 70.074219 L 129.421875 70.074219 L 128.867188 70.710938 L 128.707031 70.632812 L 128.628906 71.109375 L 128.230469 71.667969 L 128.230469 71.746094 C 127.226562 73.289062 126.300781 75.46875 125.453125 78.285156 L 125.851562 78.445312 L 125.851562 78.523438 L 120.847656 78.761719 L 119.894531 78.601562 L 115.449219 78.285156 L 114.496094 74.855469 L 114.972656 71.667969 C 115.132812 70.710938 114.921875 70.234375 114.339844 70.234375 C 114.019531 70.234375 113.675781 71.109375 113.304688 72.863281 L 113.066406 73.023438 L 113.066406 72.941406 L 112.910156 73.660156 C 112.222656 75.359375 111.746094 77.59375 111.480469 80.355469 L 111.320312 80.355469 L 110.84375 86.335938 L 113.78125 116.46875 L 118.148438 145.804688 L 115.609375 136.957031 C 112.855469 127.65625 111.214844 121.359375 110.6875 118.0625 L 106.636719 99.089844 L 105.367188 83.546875 L 105.050781 81.152344 L 104.335938 68.796875 L 104.414062 67.601562 L 104.335938 67.203125 L 104.097656 67.679688 L 103.9375 67.28125 L 103.9375 68.082031 C 102.507812 71.480469 101.953125 77.992188 102.269531 87.613281 C 102.269531 92.449219 102.613281 95.980469 103.304688 98.214844 L 103.304688 99.011719 C 102.933594 100.710938 102.773438 102.890625 102.828125 105.546875 L 101.398438 102.121094 C 101.082031 100.898438 100.523438 99.941406 99.730469 99.25 L 99.332031 101.640625 L 99.175781 98.691406 C 99.757812 87.851562 99.96875 79.773438 99.808594 74.457031 C 99.757812 71.164062 99.996094 67.65625 100.523438 63.933594 L 100.683594 62.421875 L 103.9375 53.332031 L 103.9375 57.398438 L 104.574219 57.238281 C 105.261719 57.238281 105.578125 57.664062 105.527344 58.515625 L 105.84375 58.671875 L 106.160156 58.59375 L 106.160156 58.433594 L 111.082031 44.5625 L 111.082031 44.324219 L 110.527344 44.324219 L 109.734375 44.085938 L 109.574219 43.6875 L 109.65625 43.445312 M 170.785156 40.179688 L 170.546875 40.257812 L 170.945312 40.496094 L 171.261719 40.417969 C 173.167969 41.480469 174.542969 42.808594 175.390625 44.402344 L 177.058594 49.265625 L 178.804688 55.007812 L 179.757812 57.558594 L 180.152344 57 C 180.152344 56.253906 180.390625 55.882812 180.867188 55.882812 L 182.296875 57.316406 L 182.375 56.203125 C 182.429688 55.722656 182.71875 55.484375 183.25 55.484375 L 184.757812 56.519531 L 185.15625 56.363281 C 180.019531 45.730469 176.476562 39.753906 174.515625 38.425781 L 174.359375 39.0625 C 174.144531 39.433594 173.800781 39.621094 173.324219 39.621094 L 172.214844 39.539062 C 172.054688 39.964844 171.789062 40.179688 171.421875 40.179688 L 170.785156 40.097656 L 170.46875 39.9375 L 170.308594 39.9375 L 170.785156 40.179688 M 176.582031 58.035156 L 176.660156 58.117188 L 176.660156 57.875 C 173.800781 51.074219 170.8125 45.28125 167.6875 40.496094 L 167.371094 40.496094 L 167.371094 40.578125 L 167.371094 40.496094 L 165.785156 40.738281 L 165.703125 40.738281 C 165.546875 41.746094 165.015625 42.25 164.117188 42.25 L 162.847656 41.773438 C 162.847656 42.890625 162.554688 43.445312 161.972656 43.445312 L 161.097656 42.332031 L 160.226562 42.890625 L 160.78125 43.128906 L 160.941406 43.128906 C 160.992188 44.5625 162.132812 47.566406 164.355469 52.136719 L 166.578125 60.425781 C 167 60.425781 167.34375 60.640625 167.609375 61.066406 C 167.769531 61.332031 168.113281 61.488281 168.640625 61.542969 L 169.671875 59.550781 L 169.992188 60.027344 C 170.253906 59.496094 170.574219 59.230469 170.945312 59.230469 C 171.632812 59.230469 172.398438 59.550781 173.246094 60.1875 C 173.882812 59.710938 174.464844 59.550781 174.992188 59.710938 L 175.070312 58.433594 C 175.070312 58.007812 175.390625 57.796875 176.023438 57.796875 L 176.582031 58.035156 M 171.339844 61.703125 L 171.421875 61.703125 L 171.339844 61.621094 L 171.339844 61.703125 M 174.515625 83.386719 L 174.515625 83.546875 L 174.675781 83.546875 L 174.515625 83.386719 M 141.410156 45.996094 C 143.316406 49.824219 144.535156 55.589844 145.0625 63.296875 L 145.140625 63.296875 L 145.699219 62.898438 C 146.015625 62.898438 146.28125 63.058594 146.492188 63.375 L 147.523438 62.5 L 148.554688 63.136719 L 149.90625 62.339844 C 150.539062 62.339844 150.910156 62.605469 151.015625 63.136719 L 153.714844 62.023438 L 154.90625 62.339844 L 155.9375 61.863281 L 156.972656 62.179688 L 157.527344 61.304688 C 158.109375 61.304688 158.480469 61.488281 158.636719 61.863281 L 159.113281 60.90625 C 159.21875 60.585938 159.589844 60.425781 160.226562 60.425781 L 161.019531 60.585938 L 158.957031 52.214844 L 156.414062 43.6875 L 156.8125 43.445312 L 156.734375 43.289062 L 155.460938 43.289062 L 153.476562 44.882812 C 153.109375 44.882812 152.285156 44.457031 151.015625 43.605469 L 150.222656 43.765625 L 148.875 44.960938 L 148.714844 45.121094 C 148.078125 44.75 147.496094 45.015625 146.96875 45.917969 L 146.253906 46.636719 L 144.746094 45.757812 C 144.746094 46.820312 144.402344 47.351562 143.714844 47.351562 C 143.183594 47.351562 142.65625 47.113281 142.125 46.636719 L 142.125 46.554688 L 141.726562 46.15625 L 141.570312 45.917969 L 141.410156 45.917969 L 141.410156 45.996094 M 136.25 47.195312 L 136.25 47.113281 L 135.933594 47.113281 L 135.933594 47.195312 L 135.613281 47.195312 C 135.5625 47.777344 135.269531 48.070312 134.742188 48.070312 L 133.628906 47.75 L 132.757812 48.550781 C 131.644531 48.550781 130.585938 48.097656 129.582031 47.195312 L 129.421875 47.195312 C 129.476562 47.992188 129.238281 48.390625 128.707031 48.390625 C 128.179688 48.390625 127.703125 48.070312 127.277344 47.433594 L 127.199219 47.195312 L 126.960938 47.195312 L 126.960938 46.953125 L 125.929688 46.875 L 125.769531 46.953125 L 125.691406 46.953125 L 125.691406 47.195312 L 125.769531 47.273438 C 125.453125 52.960938 125.292969 57.449219 125.292969 60.746094 L 125.375 61.863281 L 125.375 61.941406 L 125.292969 62.101562 L 125.375 62.179688 L 125.613281 62.5 L 125.851562 62.261719 C 126.273438 61.835938 126.828125 61.621094 127.515625 61.621094 C 128.097656 61.621094 128.867188 62.046875 129.820312 62.898438 L 130.691406 63.695312 L 131.167969 63.136719 L 132.441406 61.621094 L 135.535156 63.617188 L 136.089844 63.21875 L 136.410156 52.296875 L 136.25 47.351562 L 136.410156 47.195312 L 136.25 47.195312 M 121.878906 47.195312 L 120.292969 46.953125 C 119.871094 46.582031 119.445312 46.398438 119.023438 46.398438 L 118.308594 46.796875 L 116.957031 45.679688 L 116.242188 46.078125 C 115.660156 46.078125 115.34375 45.597656 115.292969 44.644531 L 114.019531 44.246094 L 113.78125 44.324219 L 114.019531 44.5625 C 113.808594 45.308594 113.625 47.75 113.464844 51.898438 C 113.414062 53.171875 112.699219 55.695312 111.320312 59.46875 L 111.402344 59.628906 L 111.320312 59.710938 L 111.402344 59.789062 L 111.402344 59.871094 L 111.480469 59.789062 L 111.878906 60.027344 L 112.433594 59.230469 C 112.75 59.230469 112.988281 59.601562 113.148438 60.347656 L 113.226562 60.425781 L 114.101562 59.390625 C 114.628906 59.390625 115.054688 59.710938 115.371094 60.347656 L 116.085938 61.144531 L 116.800781 61.144531 L 117.832031 60.109375 C 118.414062 60.109375 118.757812 60.480469 118.863281 61.222656 L 119.339844 61.222656 L 119.417969 61.304688 L 119.578125 61.222656 L 119.65625 61.222656 L 119.816406 61.066406 L 119.816406 60.90625 L 119.65625 60.824219 L 122.039062 47.195312 L 121.878906 47.195312 "/>
<path style=" stroke:none;fill-rule:evenodd;fill:rgb(72.941178%,66.666669%,52.549022%);fill-opacity:1;" d="M 99.332031 101.640625 L 99.730469 99.25 C 100.523438 99.941406 101.082031 100.898438 101.398438 102.121094 L 102.828125 105.546875 C 102.773438 102.890625 102.933594 100.710938 103.304688 99.011719 L 103.304688 98.214844 C 102.613281 95.980469 102.269531 92.449219 102.269531 87.613281 C 101.953125 77.992188 102.507812 71.480469 103.9375 68.082031 L 104.097656 67.679688 L 104.335938 67.203125 L 104.414062 67.601562 L 104.335938 68.796875 L 103.9375 70.3125 L 103.9375 83.546875 L 104.175781 83.546875 L 104.175781 86.414062 C 104.175781 90.933594 104.652344 95.824219 105.605469 101.082031 L 105.683594 100.683594 L 106.082031 100.683594 L 106.082031 101.402344 L 105.84375 102.28125 L 106.082031 103.554688 L 109.972656 121.332031 C 111.03125 126.808594 112.671875 133.34375 114.894531 140.945312 L 112.117188 141.898438 L 107.191406 142.9375 L 107.113281 142.9375 L 105.765625 134.726562 L 103.9375 127.152344 L 103.9375 126.832031 C 101.609375 117.320312 100.128906 109.71875 99.492188 104.035156 L 99.253906 104.035156 L 99.175781 103.792969 L 99.332031 101.640625 M 118.148438 145.804688 L 113.78125 116.46875 L 110.84375 86.335938 L 111.320312 80.355469 L 111.480469 80.355469 C 111.746094 77.59375 112.222656 75.359375 112.910156 73.660156 L 113.148438 73.101562 L 113.304688 72.863281 L 113.542969 72.386719 L 113.703125 72.464844 L 112.671875 76.210938 L 112.433594 79.480469 L 112.671875 79.558594 L 112.511719 80.199219 L 112.433594 80.4375 L 112.355469 80.753906 L 112.355469 80.835938 L 112.433594 80.914062 L 112.511719 81.554688 L 112.59375 86.335938 L 111.878906 86.335938 C 112.195312 92.980469 113.492188 104.140625 115.765625 119.816406 L 118.230469 142.378906 L 118.941406 148.199219 L 118.785156 148.199219 L 118.703125 148.757812 L 118.546875 148.757812 L 118.148438 145.804688 M 114.496094 74.855469 L 115.449219 78.285156 L 115.449219 78.445312 L 115.210938 78.601562 L 115.132812 78.285156 L 114.972656 78.285156 L 113.863281 78.363281 L 113.78125 77.488281 L 114.496094 74.855469 M 125.851562 78.445312 L 125.453125 78.285156 C 126.300781 75.46875 127.226562 73.289062 128.230469 71.746094 L 128.230469 71.667969 L 128.628906 71.109375 L 128.867188 70.710938 L 129.421875 70.074219 L 129.503906 70.074219 L 129.738281 69.753906 L 130.296875 69.992188 L 130.058594 70.234375 L 129.976562 70.3125 L 129.582031 70.789062 L 129.582031 71.746094 L 129.265625 71.507812 L 129.183594 71.269531 L 128.074219 73.5 L 127.914062 73.898438 L 127.359375 76.371094 L 127.515625 77.566406 L 127.199219 78.363281 L 127.199219 78.445312 L 127.039062 78.445312 L 126.484375 78.523438 L 126.484375 78.445312 L 126.246094 78.445312 L 126.246094 78.523438 L 126.167969 78.523438 L 126.167969 78.445312 L 125.851562 78.445312 M 140.457031 78.523438 L 140.300781 77.964844 L 140.539062 76.609375 L 140.457031 75.652344 C 140.457031 74.058594 140.855469 72.597656 141.648438 71.269531 L 141.726562 71.109375 L 142.839844 69.59375 L 143.394531 69.117188 L 143.554688 69.433594 L 142.917969 71.667969 L 142.761719 70.789062 C 142.546875 75.042969 142.230469 77.273438 141.808594 77.488281 L 141.726562 78.601562 L 140.777344 78.523438 L 140.777344 78.445312 L 140.695312 78.523438 L 140.539062 78.601562 L 140.457031 78.523438 M 151.492188 79.320312 L 151.335938 78.683594 C 151.335938 77.886719 151.96875 74.9375 153.238281 69.835938 L 153.398438 69.117188 L 153.714844 69.117188 L 153.875 69.355469 L 153.476562 70.949219 L 153.636719 71.667969 L 153 75.09375 L 152.523438 79.398438 L 151.8125 79.320312 L 151.8125 79.242188 L 151.652344 79.320312 L 151.492188 79.320312 M 169.355469 77.488281 L 169.195312 74.777344 L 169.277344 73.183594 L 170.863281 77.167969 L 170.707031 77.246094 L 169.832031 77.40625 L 169.910156 78.046875 L 169.59375 78.285156 L 169.355469 77.488281 M 177.613281 149.953125 L 177.535156 149.15625 C 178.007812 147.242188 178.222656 145.539062 178.167969 144.050781 L 178.007812 139.03125 C 178.328125 133.132812 178.589844 129.808594 178.804688 129.066406 C 179.703125 125.824219 180.152344 119.152344 180.152344 109.054688 C 179.570312 96.035156 179.28125 86.894531 179.28125 81.632812 C 179.28125 78.230469 179.414062 75.761719 179.675781 74.21875 L 179.675781 70.550781 C 179.675781 69.328125 179.941406 68.453125 180.46875 67.921875 L 180.789062 67.523438 L 180.390625 69.195312 C 180.445312 70.898438 180.683594 73.074219 181.105469 75.734375 L 180.945312 76.691406 L 181.421875 79.398438 L 181.265625 79.398438 L 181.265625 83.546875 L 181.105469 97.179688 L 181.105469 103.476562 L 180.945312 105.070312 L 181.105469 105.546875 L 181.105469 127.152344 C 180.628906 132.734375 179.808594 138.683594 178.644531 145.007812 L 178.644531 145.40625 C 178.644531 147.003906 178.40625 148.492188 177.929688 149.871094 L 177.691406 149.953125 L 177.613281 149.953125 M 181.421875 67.363281 L 181.421875 66.964844 L 181.660156 66.964844 L 184.757812 78.84375 L 184.757812 79.082031 L 184.679688 79.242188 L 184.519531 79.320312 L 184.203125 78.601562 L 183.40625 77.964844 L 183.25 77.804688 L 182.851562 77.488281 L 183.011719 77.328125 C 182.695312 76.847656 182.457031 76.265625 182.296875 75.574219 L 181.980469 72.625 L 181.980469 72.386719 L 181.742188 70.074219 L 181.421875 67.761719 L 181.421875 67.363281 M 182.375 103.476562 C 182.535156 103.847656 182.878906 104.035156 183.40625 104.035156 C 184.253906 104.035156 184.917969 103.34375 185.394531 101.960938 L 186.1875 105.628906 L 188.09375 99.570312 L 188.410156 99.570312 C 188.25 100.792969 188.4375 102.8125 188.964844 105.628906 L 189.042969 105.707031 L 189.917969 92.15625 L 190.15625 92.074219 L 191.1875 94.785156 L 192.0625 90.164062 L 192.300781 90.164062 L 193.648438 92.15625 L 194.207031 93.671875 L 194.046875 93.75 L 193.730469 93.113281 L 194.523438 110.492188 L 195.078125 127.871094 L 194.917969 129.144531 C 194.917969 131.589844 195.421875 135.789062 196.429688 141.742188 C 196.640625 146.628906 196.929688 150.109375 197.300781 152.183594 L 191.347656 148.277344 C 189.175781 147.003906 187.324219 145.992188 185.789062 145.25 L 183.566406 144.210938 L 181.105469 143.574219 L 180.628906 143.734375 L 182.375 127.789062 L 182.375 103.476562 M 141.488281 72.863281 L 141.410156 72.863281 L 141.25 73.339844 L 141.011719 74.617188 L 141.332031 73.339844 L 141.488281 72.863281 M 105.445312 101.960938 L 105.445312 101.882812 L 105.367188 101.882812 L 105.445312 101.960938 M 115.292969 106.027344 L 117.195312 111.050781 C 117.832031 113.652344 120.503906 116.46875 125.214844 119.5 C 129.660156 122.367188 131.882812 125.292969 131.882812 128.269531 L 132.042969 135.363281 L 131.644531 135.285156 L 125.054688 137.992188 C 121.988281 138.417969 120.1875 139.003906 119.65625 139.746094 L 116.800781 118.382812 L 115.292969 106.027344 M 168.640625 131.457031 C 168.640625 126.300781 168.402344 122.925781 167.925781 121.332031 C 168.402344 121.121094 170.996094 117.824219 175.707031 111.449219 L 176.183594 130.738281 L 176.183594 141.742188 C 175.761719 141.210938 174.859375 140.4375 173.484375 139.429688 L 170.230469 137.117188 C 169.066406 135.042969 168.535156 133.15625 168.640625 131.457031 "/>
</g>
</svg>
