<?xml version="1.0" encoding="UTF-8"?>
<svg xmlns="http://www.w3.org/2000/svg" xmlns:xlink="http://www.w3.org/1999/xlink" width="296px" height="318px" viewBox="0 0 296 318" version="1.1">
<g id="surface1">
<path style=" stroke:none;fill-rule:evenodd;fill:rgb(18.431373%,9.411765%,6.27451%);fill-opacity:1;" d="M 169.992188 85.859375 L 169.992188 85.777344 L 170.148438 85.777344 L 169.992188 85.859375 M 117.433594 74.457031 L 117.433594 74.378906 L 117.671875 74.378906 L 117.433594 74.457031 M 176.261719 42.011719 L 176.183594 42.089844 L 176.183594 42.011719 L 176.261719 42.011719 M 174.992188 55.484375 L 174.992188 55.5625 L 174.832031 55.40625 L 174.992188 55.484375 M 111.164062 87.054688 L 111.164062 87.210938 L 111.003906 87.054688 L 111.164062 87.054688 M 164.75 78.285156 L 164.671875 78.285156 L 164.75 78.285156 "/>
<path style=" stroke:none;fill-rule:evenodd;fill:rgb(0%,0%,0%);fill-opacity:1;" d="M 113.863281 44.164062 C 117.039062 40.285156 121.035156 37.28125 125.851562 35.15625 L 124.660156 33.242188 C 123.019531 30.796875 120.664062 29.574219 117.59375 29.574219 C 105.472656 29.574219 98.433594 36.988281 96.476562 51.816406 L 96.632812 52.535156 L 96.316406 52.535156 L 96.316406 52.695312 L 96.792969 53.011719 C 98.117188 58.382812 100.894531 61.066406 105.128906 61.066406 L 106.242188 61.066406 L 106.558594 60.347656 C 107.035156 55.511719 109.070312 50.621094 112.671875 45.679688 L 113.464844 44.644531 L 113.941406 44.164062 L 113.863281 44.164062 M 187.617188 82.191406 L 187.058594 83.546875 L 186.820312 83.304688 L 186.503906 83.304688 C 186.1875 83.304688 185.816406 82.828125 185.394531 81.871094 C 185.023438 80.863281 183.859375 80.355469 181.898438 80.355469 C 181 80.355469 180.101562 80.730469 179.199219 81.472656 L 178.960938 81.710938 L 177.296875 90.960938 C 176.925781 93.5625 176.449219 95.183594 175.867188 95.824219 L 175.867188 95.902344 L 175.390625 96.0625 L 175.308594 96.0625 L 174.675781 95.582031 C 174.464844 95.105469 174.332031 94.335938 174.277344 93.273438 L 174.121094 88.964844 L 173.484375 85.378906 C 173.007812 94.734375 172.027344 99.410156 170.546875 99.410156 L 170.46875 99.410156 L 170.148438 99.332031 L 169.753906 99.25 L 167.847656 84.421875 C 167.636719 89.632812 167.316406 92.234375 166.894531 92.234375 L 166.339844 92.234375 L 166.339844 92.074219 L 166.101562 91.597656 L 166.101562 90.640625 C 165.042969 83.359375 163.824219 78.125 162.449219 74.9375 L 158.796875 66.40625 L 155.304688 68.558594 L 153.875 66.882812 L 152.921875 67.523438 L 151.015625 68.238281 C 150.488281 68.238281 150.222656 67.46875 150.222656 65.929688 C 148.953125 66.085938 147.816406 66.539062 146.808594 67.28125 C 145.855469 67.921875 145.222656 68.238281 144.902344 68.238281 L 144.109375 67.203125 L 144.03125 67.125 L 141.25 69.277344 L 140.378906 68.796875 L 139.1875 71.347656 L 139.027344 71.828125 L 138.394531 71.90625 L 134.980469 69.035156 L 134.902344 69.035156 C 134.902344 70.257812 134.6875 70.871094 134.265625 70.871094 L 131.804688 68 C 131.539062 68.851562 131.011719 69.277344 130.214844 69.277344 L 127.199219 67.28125 L 126.804688 68.480469 L 126.089844 68.558594 L 122.832031 66.40625 C 122.726562 67.949219 122.171875 68.71875 121.167969 68.71875 L 120.132812 67.441406 L 118.703125 76.847656 L 118.230469 86.097656 C 118.070312 89.976562 117.644531 91.917969 116.957031 91.917969 L 116.878906 91.757812 L 116.5625 96.9375 L 116.800781 97.578125 C 116.800781 98 116.5625 98.214844 116.085938 98.214844 C 114.761719 98.214844 113.78125 94.945312 113.148438 88.410156 L 113.148438 91.277344 L 112.988281 97.179688 L 113.148438 98.054688 C 113.148438 98.746094 112.910156 99.089844 112.433594 99.089844 L 112.195312 98.929688 C 111.558594 98.082031 110.714844 94.148438 109.65625 87.132812 L 108.78125 92.15625 L 108.859375 96.9375 C 108.859375 98.425781 108.648438 99.382812 108.226562 99.808594 L 107.75 99.96875 L 107.667969 99.96875 L 107.273438 99.886719 L 107.113281 99.808594 C 106.054688 98.851562 105.472656 95.132812 105.367188 88.648438 L 105.207031 86.257812 C 103.410156 91.890625 102.246094 94.707031 101.714844 94.707031 L 101.636719 94.707031 C 101.054688 94.707031 100.84375 94.28125 101 93.429688 C 101 89.285156 101.847656 83.332031 103.542969 75.574219 L 104.96875 66.484375 L 105.921875 62.421875 C 101.902344 62.3125 98.910156 60.535156 96.953125 57.078125 C 95.945312 55.273438 95.363281 53.4375 95.207031 51.578125 C 95.207031 49.503906 96.503906 45.332031 99.09375 39.0625 C 100.789062 35.078125 104.042969 32.101562 108.859375 30.132812 C 112.035156 28.859375 114.972656 28.21875 117.671875 28.21875 C 120.796875 28.21875 123.308594 29.363281 125.214844 31.648438 C 126.167969 32.765625 126.804688 33.773438 127.121094 34.679688 C 132.570312 32.445312 139.003906 31.328125 146.414062 31.328125 L 153.953125 31.886719 L 154.667969 31.726562 L 155.382812 31.726562 C 156.390625 32.207031 157.84375 32.710938 159.75 33.242188 L 167.53125 34.757812 L 169.515625 35.875 C 171.15625 36.457031 172.769531 37.28125 174.359375 38.34375 L 173.960938 37.148438 C 173.960938 35.820312 174.542969 34.386719 175.707031 32.84375 L 175.707031 32.765625 C 175.8125 32.339844 176.128906 31.992188 176.660156 31.726562 C 178.566406 29.761719 181.183594 28.777344 184.519531 28.777344 C 187.21875 28.777344 188.9375 29.125 189.679688 29.816406 L 192.777344 31.25 L 195.792969 34.121094 L 196.90625 35.234375 C 197.378906 35.234375 198.28125 36.113281 199.605469 37.867188 C 200.875 39.621094 201.746094 41.136719 202.222656 42.410156 L 202.460938 43.046875 C 203.042969 43.527344 203.546875 44.988281 203.96875 47.433594 L 204.207031 51.898438 L 203.96875 54.765625 C 203.386719 61.730469 200.371094 65.210938 194.917969 65.210938 C 193.277344 65.210938 191.480469 64.625 189.519531 63.457031 L 189.757812 64.8125 C 189.390625 64.972656 189.203125 65.316406 189.203125 65.847656 L 189.441406 70.550781 L 188.964844 75.734375 L 188.886719 76.449219 L 188.886719 75.972656 L 188.570312 68.160156 L 187.457031 62.101562 L 183.644531 58.992188 C 182.324219 57.984375 181.210938 56.8125 180.3125 55.484375 L 180.789062 54.6875 L 180.152344 54.527344 L 179.835938 54.847656 L 178.644531 52.535156 L 175.390625 45.519531 C 174.964844 44.296875 174.726562 42.570312 174.675781 40.339844 C 172.664062 38.851562 170.546875 37.707031 168.324219 36.910156 C 161.179688 35.15625 156.628906 33.878906 154.667969 33.082031 L 154.429688 33.402344 L 146.492188 32.683594 C 139.503906 32.683594 133.628906 33.640625 128.867188 35.554688 L 127.199219 36.511719 C 127.039062 36.722656 126.828125 36.832031 126.566406 36.832031 L 122.59375 38.824219 C 120.265625 39.671875 117.355469 42.117188 113.863281 46.15625 C 111.585938 49.132812 110.183594 51.871094 109.65625 54.367188 L 108.78125 57.957031 L 108.941406 58.671875 L 107.667969 61.941406 C 106.769531 64.226562 106.265625 66.195312 106.160156 67.839844 L 104.8125 76.929688 L 104.574219 78.125 L 103.066406 85.859375 L 102.589844 87.769531 L 101.320312 89.523438 L 101.398438 89.84375 L 102.746094 87.929688 L 102.984375 87.371094 L 102.90625 88.808594 L 104.175781 85.140625 L 105.445312 81.554688 L 105.527344 79.320312 L 105.527344 79.160156 L 105.765625 80.597656 L 107.035156 76.929688 L 107.511719 77.40625 L 107.90625 77.40625 L 106.558594 81.953125 L 106.796875 82.507812 L 106.558594 85.859375 L 106.558594 85.9375 L 106.636719 85.859375 L 106.71875 88.488281 C 106.082031 91.359375 105.765625 93.429688 105.765625 94.707031 C 105.765625 95.449219 105.84375 95.929688 106.003906 96.140625 L 106.160156 96.0625 L 106.957031 91.597656 L 107.273438 94.386719 C 107.695312 87.53125 108.332031 83.707031 109.179688 82.90625 L 108.941406 79.242188 L 109.019531 78.363281 L 108.859375 75.574219 L 108.859375 75.175781 L 109.097656 73.421875 L 108.859375 72.386719 L 108.859375 71.667969 L 108.941406 70.390625 L 109.417969 70.234375 L 109.097656 69.675781 L 109.496094 69.195312 L 110.527344 83.546875 L 111.003906 87.054688 L 111.242188 88.410156 L 111.71875 90.960938 L 111.796875 87.453125 C 111.957031 84.421875 112.40625 82.800781 113.148438 82.589844 L 113.066406 78.601562 L 113.066406 73.582031 C 113.121094 71.136719 113.253906 69.59375 113.464844 68.957031 L 113.703125 69.433594 L 113.941406 69.195312 L 113.542969 68.796875 L 113.542969 68.71875 L 113.703125 68.558594 C 114.179688 68.558594 114.417969 70.390625 114.417969 74.058594 L 114.339844 83.066406 C 114.339844 86.257812 114.496094 88.675781 114.816406 90.320312 L 115.449219 93.113281 L 115.449219 78.921875 C 115.503906 75.46875 115.660156 73.421875 115.925781 72.785156 L 115.847656 69.675781 C 115.847656 68.769531 116.058594 68.320312 116.480469 68.320312 C 117.011719 68.320312 117.328125 70.339844 117.433594 74.378906 L 117.433594 74.457031 L 117.515625 75.492188 L 117.671875 74.378906 L 118.625 67.839844 L 118.941406 64.015625 L 119.5 62.339844 L 120.371094 59.390625 C 121.058594 57.582031 121.667969 56.679688 122.199219 56.679688 C 123.839844 56.679688 125.585938 59.628906 127.4375 65.527344 C 128.285156 65.796875 129.132812 66.511719 129.976562 67.679688 L 131.40625 66.246094 L 133.550781 68 L 134.105469 67.125 C 134.742188 67.125 136.171875 68.238281 138.394531 70.472656 L 139.902344 65.847656 L 140.539062 65.6875 C 141.121094 65.6875 141.410156 66.21875 141.410156 67.28125 L 141.410156 67.363281 L 141.488281 67.363281 L 144.585938 65.371094 L 145.777344 65.769531 L 149.746094 64.574219 L 150.621094 64.652344 L 151.890625 60.1875 C 152.84375 57.210938 153.53125 55.722656 153.953125 55.722656 C 154.640625 55.722656 155.886719 57.210938 157.6875 60.1875 L 158.003906 60.1875 L 163.558594 74.296875 L 164.671875 78.285156 L 164.75 78.601562 L 164.910156 79.242188 L 164.988281 79.558594 L 164.75 79.480469 L 164.988281 79.800781 L 165.070312 79.800781 L 165.546875 82.109375 L 166.339844 86.015625 L 166.734375 80.4375 L 166.734375 73.820312 C 166.734375 71.214844 166.921875 69.78125 167.292969 69.515625 L 167.847656 72.464844 L 168.085938 72.464844 L 168.164062 71.988281 L 168.164062 73.742188 C 168.695312 74.589844 169.304688 78.601562 169.992188 85.777344 L 169.992188 85.859375 L 170.148438 87.453125 L 170.148438 88.089844 L 170.386719 89.765625 L 170.863281 95.105469 L 171.101562 94.226562 L 171.101562 95.425781 L 171.339844 95.34375 L 171.339844 93.113281 L 171.660156 91.359375 C 171.660156 87.53125 171.84375 85.035156 172.214844 83.863281 C 172.214844 77.328125 172.371094 72.941406 172.691406 70.710938 L 172.691406 70.871094 C 172.742188 71.828125 172.980469 73.261719 173.40625 75.175781 C 173.300781 75.867188 173.351562 76.769531 173.5625 77.886719 L 173.644531 78.046875 L 173.5625 78.601562 L 173.722656 78.921875 L 173.644531 80.753906 L 173.722656 80.753906 C 174.304688 80.753906 174.941406 84.238281 175.628906 91.199219 L 176.105469 88.566406 L 176.023438 92.074219 L 176.34375 91.996094 L 176.421875 88.648438 L 176.582031 88.648438 C 178.0625 83.28125 178.804688 77.433594 178.804688 71.109375 L 178.804688 66.085938 C 178.117188 64.492188 177.691406 63.164062 177.535156 62.101562 L 175.308594 56.519531 L 176.023438 57.238281 L 176.183594 57 L 175.152344 55.722656 L 175.152344 55.644531 L 176.183594 56.28125 L 176.820312 56.203125 L 177.058594 56.679688 L 176.820312 56.839844 L 176.898438 57.078125 L 177.214844 57 L 178.007812 58.914062 L 178.644531 60.425781 L 179.359375 62.179688 L 180.152344 65.527344 L 180.152344 71.1875 L 179.28125 79.558594 L 181.980469 79 C 183.777344 79 185.179688 79.558594 186.1875 80.675781 L 186.503906 81.074219 L 187.617188 82.191406 M 200.875 43.289062 L 198.808594 40.339844 C 195.371094 35.5 192.617188 32.550781 190.554688 31.488281 L 189.839844 31.171875 L 189.28125 31.25 L 189.125 30.929688 L 183.40625 30.453125 C 182.296875 30.453125 181 30.90625 179.519531 31.808594 C 177.929688 32.765625 176.976562 33.800781 176.660156 34.917969 C 176.183594 36.296875 175.945312 37.839844 175.945312 39.539062 L 176.023438 39.539062 L 176.023438 41.214844 L 176.105469 41.691406 L 176.183594 42.011719 L 176.183594 42.089844 C 176.5 43.898438 177.242188 45.730469 178.40625 47.59375 L 178.566406 47.910156 L 178.960938 49.105469 L 179.28125 50.0625 L 179.519531 50.542969 L 180.3125 52.296875 L 180.074219 52.296875 L 180.152344 52.457031 L 184.835938 58.355469 L 187.058594 60.269531 L 186.980469 59.949219 L 187.058594 60.027344 L 188.171875 60.746094 L 189.125 61.542969 L 189.203125 61.941406 C 191.054688 63.21875 192.457031 63.855469 193.410156 63.855469 C 197.59375 63.855469 200.398438 61.648438 201.828125 57.238281 C 202.460938 55.273438 202.78125 53.304688 202.78125 51.339844 L 202.222656 51.417969 C 201.640625 51.417969 201.351562 51.207031 201.351562 50.78125 L 202.066406 49.585938 L 201.828125 46.238281 L 201.351562 44.085938 L 201.351562 43.925781 L 201.191406 43.765625 L 201.191406 43.527344 L 200.875 42.492188 L 200.792969 42.492188 L 200.875 43.289062 M 176.738281 68.878906 L 177.136719 68.796875 L 176.738281 70.390625 L 176.738281 68.878906 M 151.890625 65.210938 L 151.574219 66.484375 C 152.15625 66.59375 152.683594 66.351562 153.160156 65.769531 C 153.265625 65.128906 153.742188 64.8125 154.589844 64.8125 C 155.222656 64.8125 155.542969 65.023438 155.542969 65.449219 L 155.144531 66.246094 L 155.304688 66.964844 L 158.242188 65.128906 L 156.734375 61.222656 L 154.191406 57.957031 C 153.398438 59.445312 152.550781 61.753906 151.652344 64.890625 L 151.890625 65.210938 M 122.199219 58.355469 L 121.484375 61.222656 L 120.847656 62.578125 L 120.453125 65.449219 L 121.085938 66.804688 L 121.484375 65.847656 C 121.695312 65.316406 122.09375 65.050781 122.675781 65.050781 C 123.46875 65.050781 124.5 65.609375 125.769531 66.726562 L 126.007812 66.167969 L 125.769531 66.007812 C 125.769531 65.636719 125.957031 65.449219 126.328125 65.449219 C 124.792969 61.890625 123.414062 59.523438 122.199219 58.355469 "/>
<path style=" stroke:none;fill-rule:evenodd;fill:rgb(0%,1.568628%,0.784314%);fill-opacity:1;" d="M 113.542969 68.71875 L 113.542969 68.796875 L 113.941406 69.195312 L 113.703125 69.433594 L 113.464844 68.957031 L 113.542969 68.71875 M 109.097656 69.675781 L 109.417969 70.234375 L 108.941406 70.390625 L 108.78125 70.3125 L 108.941406 69.433594 L 109.097656 69.675781 M 108.859375 75.175781 L 108.859375 75.574219 L 109.019531 78.363281 L 108.941406 79.242188 L 109.179688 82.90625 C 108.332031 83.707031 107.695312 87.53125 107.273438 94.386719 L 106.957031 91.597656 L 106.160156 96.0625 L 106.003906 96.140625 C 105.84375 95.929688 105.765625 95.449219 105.765625 94.707031 C 105.765625 93.429688 106.082031 91.359375 106.71875 88.488281 L 107.273438 86.257812 L 108.304688 81.871094 L 108.542969 77.40625 L 108.464844 75.8125 L 108.859375 75.175781 M 102.746094 87.929688 L 101.398438 89.84375 L 101.320312 89.523438 L 102.589844 87.769531 L 102.746094 87.929688 M 180.152344 52.457031 L 180.074219 52.296875 L 180.3125 52.296875 L 180.152344 52.457031 M 108.703125 70.550781 L 108.78125 71.988281 L 108.542969 71.269531 L 108.703125 70.550781 "/>
<path style=" stroke:none;fill-rule:evenodd;fill:rgb(18.039216%,11.372549%,8.235294%);fill-opacity:1;" d="M 175.152344 55.644531 L 175.152344 55.722656 L 174.992188 55.5625 L 174.992188 55.484375 L 175.152344 55.644531 M 171.101562 94.226562 L 170.863281 95.105469 L 170.386719 89.765625 L 170.945312 91.835938 L 171.101562 94.226562 M 170.148438 87.453125 L 169.992188 85.859375 L 170.148438 85.777344 L 170.148438 87.453125 M 164.75 78.601562 L 164.671875 78.285156 L 164.75 78.285156 L 164.75 78.601562 M 117.671875 74.378906 L 117.515625 75.492188 L 117.433594 74.457031 L 117.671875 74.378906 M 115.449219 90.402344 L 115.449219 93.113281 L 114.816406 90.320312 L 115.449219 90.402344 M 111.242188 88.410156 L 111.003906 87.054688 L 111.164062 87.210938 L 111.242188 88.410156 M 108.941406 70.390625 L 108.859375 71.667969 L 108.859375 72.386719 L 108.78125 71.988281 L 108.703125 70.550781 L 108.78125 70.3125 L 108.941406 70.390625 M 176.105469 41.691406 L 176.261719 42.011719 L 176.183594 42.011719 L 176.105469 41.691406 M 179.28125 50.0625 L 179.675781 49.824219 L 179.675781 49.902344 C 179.519531 49.957031 179.4375 50.0625 179.4375 50.222656 L 179.519531 50.542969 L 179.28125 50.0625 M 165.703125 64.8125 L 165.785156 64.890625 L 165.703125 64.890625 L 165.703125 64.8125 "/>
<path style=" stroke:none;fill-rule:evenodd;fill:rgb(55.29412%,21.176471%,27.450982%);fill-opacity:1;" d="M 96.632812 52.535156 C 99.863281 52.375 102.21875 51.921875 103.699219 51.179688 C 105.078125 50.171875 106.214844 49.371094 107.113281 48.789062 L 113.464844 44.003906 L 113.863281 44.164062 L 113.941406 44.164062 L 113.464844 44.644531 L 112.671875 45.679688 C 109.070312 50.621094 107.035156 55.511719 106.558594 60.347656 L 106.242188 61.066406 L 105.128906 61.066406 C 100.894531 61.066406 98.117188 58.382812 96.792969 53.011719 L 96.316406 52.695312 L 96.316406 52.535156 L 96.632812 52.535156 M 188.886719 76.449219 C 188.726562 78.363281 188.304688 80.277344 187.617188 82.191406 L 186.503906 81.074219 L 186.1875 80.675781 C 185.179688 79.558594 183.777344 79 181.980469 79 L 179.28125 79.558594 L 180.152344 71.1875 L 180.152344 65.527344 L 179.359375 62.179688 L 178.644531 60.425781 L 178.007812 58.914062 L 177.214844 57 L 176.898438 57.078125 L 176.820312 56.839844 L 177.058594 56.679688 L 179.835938 54.847656 L 180.152344 54.527344 L 180.789062 54.6875 L 180.3125 55.484375 C 181.210938 56.8125 182.324219 57.984375 183.644531 58.992188 L 187.457031 62.101562 L 188.570312 68.160156 L 188.886719 75.972656 L 188.886719 76.449219 M 175.152344 55.722656 L 176.183594 57 L 176.023438 57.238281 L 175.308594 56.519531 L 177.535156 62.101562 C 177.691406 63.164062 178.117188 64.492188 178.804688 66.085938 L 178.804688 71.109375 C 178.804688 77.433594 178.0625 83.28125 176.582031 88.648438 L 176.421875 88.648438 L 176.34375 91.996094 L 176.023438 92.074219 L 176.105469 88.566406 L 176.261719 71.347656 C 176.261719 68.105469 175.707031 65.183594 174.597656 62.578125 C 173.855469 60.773438 172.054688 57.664062 169.195312 53.253906 C 169.195312 53.09375 169.382812 53.011719 169.753906 53.011719 L 170.148438 53.011719 L 171.421875 53.332031 L 174.832031 55.40625 L 174.992188 55.5625 L 175.152344 55.722656 M 172.691406 70.710938 C 172.371094 72.941406 172.214844 77.328125 172.214844 83.863281 C 171.84375 85.035156 171.660156 87.53125 171.660156 91.359375 L 171.339844 93.113281 L 171.339844 95.34375 L 171.101562 95.425781 L 171.101562 94.226562 L 170.945312 91.835938 L 170.386719 89.765625 L 170.148438 88.089844 L 170.148438 85.777344 C 170.203125 73.980469 170.46875 66.539062 170.945312 63.457031 L 171.183594 63.855469 L 172.054688 66.566406 C 171.949219 67.46875 172.160156 68.851562 172.691406 70.710938 M 168.164062 71.988281 L 168.085938 72.464844 L 167.847656 72.464844 L 167.292969 69.515625 C 166.921875 69.78125 166.734375 71.214844 166.734375 73.820312 L 166.734375 80.4375 L 166.339844 86.015625 L 165.546875 82.109375 L 165.070312 79.800781 L 164.988281 79.800781 L 164.75 79.480469 L 164.988281 79.558594 L 164.910156 79.242188 L 164.75 78.601562 L 164.75 78.285156 L 165.226562 66.804688 C 165.226562 64.359375 165.042969 62.765625 164.671875 62.023438 L 164.671875 61.304688 L 164.910156 61.304688 L 167.609375 69.355469 C 167.664062 69.941406 167.792969 70.417969 168.007812 70.789062 L 167.925781 70.949219 C 167.925781 71.375 168.007812 71.722656 168.164062 71.988281 M 113.464844 68.957031 C 113.253906 69.59375 113.121094 71.136719 113.066406 73.582031 L 113.066406 78.601562 L 113.148438 82.589844 C 112.40625 82.800781 111.957031 84.421875 111.796875 87.453125 L 111.71875 90.960938 L 111.242188 88.410156 L 111.164062 87.210938 L 111.164062 87.054688 L 111.71875 76.371094 C 111.878906 69.886719 112.0625 66.273438 112.273438 65.527344 L 112.511719 65.527344 C 112.828125 65.847656 113.042969 66.460938 113.148438 67.363281 C 113.199219 67.894531 113.332031 68.347656 113.542969 68.71875 L 113.464844 68.957031 M 106.71875 88.488281 L 106.636719 85.859375 L 106.558594 85.859375 L 106.796875 82.507812 L 106.558594 81.953125 L 107.90625 77.40625 L 107.511719 77.40625 L 107.035156 76.929688 L 105.765625 80.597656 L 105.527344 79.160156 L 105.527344 79.320312 L 105.445312 81.554688 L 104.175781 85.140625 L 102.90625 88.808594 L 102.984375 87.371094 L 102.746094 87.929688 L 102.589844 87.769531 L 103.066406 85.859375 L 104.574219 78.125 L 104.96875 78.125 C 105.445312 76.210938 105.976562 75.253906 106.558594 75.253906 L 107.113281 75.734375 L 107.113281 75.8125 L 107.273438 75.894531 L 107.75 76.691406 L 107.90625 77.089844 L 107.988281 77.246094 L 108.542969 77.40625 L 108.304688 81.871094 L 107.273438 86.257812 L 106.71875 88.488281 M 179.675781 49.902344 L 181.503906 51.898438 C 182.457031 52.695312 183.488281 53.277344 184.597656 53.652344 C 186.503906 54.765625 188.808594 55.324219 191.507812 55.324219 C 194.628906 55.324219 197.117188 53.492188 198.96875 49.824219 C 200.292969 47.273438 200.925781 45.09375 200.875 43.289062 L 200.792969 42.492188 L 200.875 42.492188 L 201.191406 43.527344 L 201.191406 43.765625 L 201.351562 43.925781 L 201.351562 44.085938 L 201.828125 46.238281 L 202.066406 49.585938 L 201.351562 50.78125 C 201.351562 51.207031 201.640625 51.417969 202.222656 51.417969 L 202.78125 51.339844 C 202.78125 53.304688 202.460938 55.273438 201.828125 57.238281 C 200.398438 61.648438 197.59375 63.855469 193.410156 63.855469 C 192.457031 63.855469 191.054688 63.21875 189.203125 61.941406 L 189.125 61.542969 L 188.171875 60.746094 L 187.058594 60.027344 L 186.980469 59.949219 L 187.058594 60.269531 L 184.835938 58.355469 L 180.152344 52.457031 L 180.3125 52.296875 L 179.519531 50.542969 L 179.4375 50.222656 C 179.4375 50.0625 179.519531 49.957031 179.675781 49.902344 M 176.738281 68.878906 L 176.738281 70.390625 L 177.136719 68.796875 L 176.738281 68.878906 M 151.890625 65.210938 L 151.652344 64.890625 C 152.550781 61.753906 153.398438 59.445312 154.191406 57.957031 L 156.734375 61.222656 L 158.242188 65.128906 L 155.304688 66.964844 L 155.144531 66.246094 L 155.542969 65.449219 C 155.542969 65.023438 155.222656 64.8125 154.589844 64.8125 C 153.742188 64.8125 153.265625 65.128906 153.160156 65.769531 C 152.683594 66.351562 152.15625 66.59375 151.574219 66.484375 L 151.890625 65.210938 M 165.703125 64.8125 L 165.703125 64.890625 L 165.785156 64.890625 L 165.703125 64.8125 M 122.199219 58.355469 C 123.414062 59.523438 124.792969 61.890625 126.328125 65.449219 C 125.957031 65.449219 125.769531 65.636719 125.769531 66.007812 L 126.007812 66.167969 L 125.769531 66.726562 C 124.5 65.609375 123.46875 65.050781 122.675781 65.050781 C 122.09375 65.050781 121.695312 65.316406 121.484375 65.847656 L 121.085938 66.804688 L 120.453125 65.449219 L 120.847656 62.578125 L 121.484375 61.222656 L 122.199219 58.355469 "/>
<path style=" stroke:none;fill-rule:evenodd;fill:rgb(74.901962%,36.470589%,42.352942%);fill-opacity:1;" d="M 96.632812 52.535156 L 96.476562 51.816406 C 98.433594 36.988281 105.472656 29.574219 117.59375 29.574219 C 120.664062 29.574219 123.019531 30.796875 124.660156 33.242188 L 125.851562 35.15625 C 121.035156 37.28125 117.039062 40.285156 113.863281 44.164062 L 113.464844 44.003906 L 107.113281 48.789062 C 106.214844 49.371094 105.078125 50.171875 103.699219 51.179688 C 102.21875 51.921875 99.863281 52.375 96.632812 52.535156 M 177.058594 56.679688 L 176.820312 56.203125 L 176.183594 56.28125 L 175.152344 55.644531 L 174.992188 55.484375 L 174.832031 55.40625 L 171.421875 53.332031 L 170.148438 53.011719 L 169.753906 53.011719 C 169.382812 53.011719 169.195312 53.09375 169.195312 53.253906 C 172.054688 57.664062 173.855469 60.773438 174.597656 62.578125 C 175.707031 65.183594 176.261719 68.105469 176.261719 71.347656 L 176.105469 88.566406 L 175.628906 91.199219 C 174.941406 84.238281 174.304688 80.753906 173.722656 80.753906 L 173.644531 80.753906 L 173.722656 78.921875 L 173.5625 78.601562 L 173.644531 78.046875 L 173.5625 77.886719 C 173.351562 76.769531 173.300781 75.867188 173.40625 75.175781 C 172.980469 73.261719 172.742188 71.828125 172.691406 70.871094 L 172.691406 70.710938 C 172.160156 68.851562 171.949219 67.46875 172.054688 66.566406 L 171.183594 63.855469 L 170.945312 63.457031 C 170.46875 66.539062 170.203125 73.980469 170.148438 85.777344 L 169.992188 85.777344 C 169.304688 78.601562 168.695312 74.589844 168.164062 73.742188 L 168.164062 71.988281 C 168.007812 71.722656 167.925781 71.375 167.925781 70.949219 L 168.007812 70.789062 C 167.792969 70.417969 167.664062 69.941406 167.609375 69.355469 L 164.910156 61.304688 L 164.671875 61.304688 L 164.671875 62.023438 C 165.042969 62.765625 165.226562 64.359375 165.226562 66.804688 L 164.75 78.285156 L 164.671875 78.285156 L 163.558594 74.296875 L 158.003906 60.1875 L 157.6875 60.1875 C 155.886719 57.210938 154.640625 55.722656 153.953125 55.722656 C 153.53125 55.722656 152.84375 57.210938 151.890625 60.1875 L 150.621094 64.652344 L 149.746094 64.574219 L 145.777344 65.769531 L 144.585938 65.371094 L 141.488281 67.363281 L 141.410156 67.28125 C 141.410156 66.21875 141.121094 65.6875 140.539062 65.6875 L 139.902344 65.847656 L 138.394531 70.472656 C 136.171875 68.238281 134.742188 67.125 134.105469 67.125 L 133.550781 68 L 131.40625 66.246094 L 129.976562 67.679688 C 129.132812 66.511719 128.285156 65.796875 127.4375 65.527344 C 125.585938 59.628906 123.839844 56.679688 122.199219 56.679688 C 121.667969 56.679688 121.058594 57.582031 120.371094 59.390625 L 119.5 62.339844 L 118.941406 64.015625 L 118.625 67.839844 L 117.671875 74.378906 L 117.433594 74.378906 C 117.328125 70.339844 117.011719 68.320312 116.480469 68.320312 C 116.058594 68.320312 115.847656 68.769531 115.847656 69.675781 L 115.925781 72.785156 C 115.660156 73.421875 115.503906 75.46875 115.449219 78.921875 L 115.449219 90.402344 L 114.816406 90.320312 C 114.496094 88.675781 114.339844 86.257812 114.339844 83.066406 L 114.417969 74.058594 C 114.417969 70.390625 114.179688 68.558594 113.703125 68.558594 L 113.542969 68.71875 C 113.332031 68.347656 113.199219 67.894531 113.148438 67.363281 C 113.042969 66.460938 112.828125 65.847656 112.511719 65.527344 L 112.273438 65.527344 C 112.0625 66.273438 111.878906 69.886719 111.71875 76.371094 L 111.164062 87.054688 L 111.003906 87.054688 L 110.527344 83.546875 L 109.496094 69.195312 L 109.097656 69.675781 L 108.941406 69.433594 L 108.78125 70.3125 L 108.703125 70.550781 L 108.542969 71.269531 L 108.78125 71.988281 L 108.859375 72.386719 L 109.097656 73.421875 L 108.859375 75.175781 L 108.464844 75.8125 L 108.542969 77.40625 L 107.988281 77.246094 L 107.90625 77.089844 L 107.75 76.691406 L 107.273438 75.894531 L 107.113281 75.8125 L 107.113281 75.734375 L 106.558594 75.253906 C 105.976562 75.253906 105.445312 76.210938 104.96875 78.125 L 104.574219 78.125 L 104.8125 76.929688 L 106.160156 67.839844 C 106.265625 66.195312 106.769531 64.226562 107.667969 61.941406 L 108.941406 58.671875 L 108.78125 57.957031 L 109.65625 54.367188 C 110.183594 51.871094 111.585938 49.132812 113.863281 46.15625 C 117.355469 42.117188 120.265625 39.671875 122.59375 38.824219 L 126.566406 36.832031 C 126.828125 36.832031 127.039062 36.722656 127.199219 36.511719 L 128.867188 35.554688 C 133.628906 33.640625 139.503906 32.683594 146.492188 32.683594 L 154.429688 33.402344 L 154.667969 33.082031 C 156.628906 33.878906 161.179688 35.15625 168.324219 36.910156 C 170.546875 37.707031 172.664062 38.851562 174.675781 40.339844 C 174.726562 42.570312 174.964844 44.296875 175.390625 45.519531 L 178.644531 52.535156 L 179.835938 54.847656 L 177.058594 56.679688 M 176.105469 41.691406 L 176.023438 41.214844 L 176.023438 39.539062 L 175.945312 39.539062 C 175.945312 37.839844 176.183594 36.296875 176.660156 34.917969 C 176.976562 33.800781 177.929688 32.765625 179.519531 31.808594 C 181 30.90625 182.296875 30.453125 183.40625 30.453125 L 189.125 30.929688 L 189.28125 31.25 L 189.839844 31.171875 L 190.554688 31.488281 C 192.617188 32.550781 195.371094 35.5 198.808594 40.339844 L 200.875 43.289062 C 200.925781 45.09375 200.292969 47.273438 198.96875 49.824219 C 197.117188 53.492188 194.628906 55.324219 191.507812 55.324219 C 188.808594 55.324219 186.503906 54.765625 184.597656 53.652344 C 183.488281 53.277344 182.457031 52.695312 181.503906 51.898438 L 179.675781 49.902344 L 179.675781 49.824219 L 179.28125 50.0625 L 178.960938 49.105469 L 178.566406 47.910156 L 178.40625 47.59375 C 177.242188 45.730469 176.5 43.898438 176.183594 42.089844 L 176.261719 42.011719 L 176.105469 41.691406 "/>
</g>
</svg>
