<?xml version="1.0" encoding="UTF-8"?>
<svg xmlns="http://www.w3.org/2000/svg" xmlns:xlink="http://www.w3.org/1999/xlink" width="296px" height="318px" viewBox="0 0 296 318" version="1.1">
<g id="surface1">
<path style=" stroke:none;fill-rule:evenodd;fill:rgb(0%,0%,0%);fill-opacity:1;" d="M 178.007812 44.085938 C 173.457031 39.621094 167.742188 36.539062 160.859375 34.835938 C 156.308594 33.667969 149.824219 33.082031 141.410156 33.082031 C 132.675781 33.082031 125.851562 35.128906 120.929688 39.222656 C 116.375 42.464844 113.332031 44.828125 111.796875 46.316406 C 111.003906 47.0625 109.363281 49.160156 106.875 52.613281 L 107.828125 50.78125 L 107.667969 50.621094 L 107.667969 50.703125 L 106.71875 52.214844 L 105.84375 54.050781 C 104.679688 55.644531 103.964844 56.839844 103.699219 57.636719 L 103.460938 58.753906 L 103.78125 58.753906 L 102.667969 62.101562 L 101.875 68.636719 L 101.636719 69.675781 L 101.714844 70.390625 L 101.714844 70.632812 L 101.636719 72.226562 C 101.636719 78.710938 102.402344 85.726562 103.9375 93.273438 L 103.859375 93.988281 L 106.558594 107.382812 C 106.980469 109.71875 108.332031 115.140625 110.605469 123.644531 L 110.605469 114.398438 L 108.703125 110.011719 C 108.703125 109.535156 108.914062 109.296875 109.335938 109.296875 C 109.867188 109.296875 111.824219 112.988281 115.210938 120.375 L 118.785156 128.347656 L 118.785156 127.472656 C 118.308594 125.34375 118.070312 123.777344 118.070312 122.769531 L 118.230469 122.367188 L 115.132812 114.957031 C 115.132812 114.53125 115.34375 114.316406 115.765625 114.316406 C 116.5625 114.316406 117.910156 117.242188 119.816406 123.085938 L 119.976562 123.40625 L 121.878906 129.78125 L 123.546875 135.683594 L 123.070312 131.855469 C 122.699219 128.453125 121.773438 123.855469 120.292969 118.0625 C 119.761719 116.203125 118.175781 112.085938 115.53125 105.707031 L 115.847656 106.1875 L 116.003906 106.027344 L 115.292969 104.511719 L 114.816406 103.953125 L 114.179688 102.519531 L 111.082031 95.183594 L 110.6875 94.226562 L 109.179688 90.320312 C 109.179688 90.054688 109.257812 89.871094 109.417969 89.765625 L 109.179688 89.367188 L 112.671875 79.160156 L 112.511719 77.007812 C 112.617188 75.09375 112.804688 73.234375 113.066406 71.429688 C 113.542969 67.761719 114.101562 65.929688 114.734375 65.929688 L 115.449219 66.566406 L 113.78125 77.007812 C 113.78125 80.355469 114.207031 83.574219 115.054688 86.65625 C 115.105469 87.503906 115.238281 88.222656 115.449219 88.808594 L 115.449219 88.886719 L 115.609375 88.726562 L 115.609375 88.648438 L 115.6875 88.808594 L 115.765625 88.648438 C 116.613281 83.546875 117.25 80.488281 117.671875 79.480469 C 119.632812 74.75 121.140625 71.667969 122.199219 70.234375 L 122.914062 71.429688 L 123.152344 71.269531 L 122.4375 69.914062 C 122.753906 69.433594 123.046875 69.195312 123.308594 69.195312 C 123.734375 69.195312 123.945312 69.410156 123.945312 69.835938 L 123.785156 70.550781 L 129.183594 81.710938 L 133.949219 88.488281 L 134.425781 89.125 L 134.1875 88.488281 L 134.34375 88.25 L 134.34375 88.089844 L 133.074219 85.460938 L 131.964844 82.03125 L 130.613281 76.050781 C 129.820312 72.332031 129.421875 70.101562 129.421875 69.355469 L 129.660156 68.878906 L 130.691406 70.390625 L 130.851562 70.234375 L 129.898438 68.71875 L 130.375 68.71875 C 130.746094 68.71875 132.070312 70.445312 134.34375 73.898438 C 135.351562 75.492188 137.148438 77.246094 139.742188 79.160156 C 141.382812 80.4375 144.453125 82.296875 148.953125 84.742188 L 151.414062 86.175781 L 150.9375 85.21875 L 151.574219 85.859375 L 151.8125 85.617188 L 149.746094 82.90625 L 146.886719 77.167969 C 145.035156 73.925781 144.109375 69.96875 144.109375 65.289062 L 144.746094 63.617188 L 144.984375 63.933594 L 144.984375 64.414062 L 145.140625 64.414062 L 145.539062 66.882812 L 146.175781 70.550781 L 152.84375 79.160156 C 154.273438 80.753906 156.546875 82.640625 159.671875 84.820312 L 160.703125 85.539062 L 160.386719 84.820312 L 160.386719 84.742188 L 160.941406 85.617188 L 161.179688 85.460938 L 159.273438 81.871094 L 158.320312 78.683594 C 157.261719 74.058594 156.707031 70.789062 156.652344 68.878906 L 156.335938 67.761719 L 156.652344 67.203125 L 156.652344 66.484375 C 156.707031 65.210938 156.917969 64.574219 157.289062 64.574219 L 157.367188 64.574219 L 157.289062 65.527344 L 157.367188 65.6875 L 157.765625 65.6875 L 158.160156 68.398438 C 159.113281 69.992188 160.4375 73.101562 162.132812 77.726562 L 166.496094 84.105469 L 166.339844 83.226562 L 166.496094 83.863281 L 166.816406 83.863281 L 166.816406 82.507812 L 165.941406 80.277344 L 165.941406 80.199219 L 165.546875 71.585938 L 165.546875 69.355469 C 165.597656 67.867188 165.808594 67.125 166.179688 67.125 C 166.65625 67.125 167 68.71875 167.210938 71.90625 C 167.742188 72.121094 168.429688 72.996094 169.277344 74.539062 L 169.671875 75.414062 L 169.753906 75.652344 L 169.832031 75.734375 L 171.101562 78.203125 L 173.960938 82.03125 L 173.246094 78.761719 C 172.082031 76.210938 171.5 74.164062 171.5 72.625 L 171.976562 71.1875 L 172.609375 72.144531 L 174.039062 77.566406 C 175.046875 79.957031 175.628906 82.003906 175.785156 83.707031 C 176.367188 83.757812 176.660156 84.023438 176.660156 84.503906 L 176.582031 85.058594 L 175.945312 85.21875 L 175.867188 85.140625 L 175.867188 85.21875 L 171.816406 96.222656 L 171.339844 97.417969 C 169.859375 102.785156 168.878906 106.984375 168.402344 110.011719 L 167.609375 116.308594 C 167.238281 117.796875 167.082031 119.898438 167.132812 122.609375 L 167.054688 130.101562 C 167.054688 132.175781 166.894531 133.609375 166.578125 134.40625 L 166.894531 138.152344 L 167.769531 130.820312 C 167.769531 130.128906 168.164062 127.949219 168.960938 124.28125 C 169.804688 120.082031 170.519531 117.984375 171.101562 117.984375 C 171.367188 117.984375 171.550781 118.089844 171.660156 118.304688 C 171.710938 117.082031 171.921875 116.46875 172.292969 116.46875 C 172.875 116.46875 173.246094 118.542969 173.40625 122.6875 L 173.40625 128.90625 L 173.484375 132.332031 L 174.992188 127.628906 C 176.6875 122.582031 177.902344 119.632812 178.644531 118.78125 L 178.960938 118.460938 L 179.597656 118.621094 L 179.675781 119.101562 L 179.359375 120.214844 L 181.027344 128.109375 C 181.925781 124.546875 183.753906 118.277344 186.503906 109.296875 C 187.457031 105.734375 188.808594 102.09375 190.554688 98.375 L 192.21875 94.46875 L 192.21875 95.105469 L 192.617188 94.945312 L 192.617188 93.429688 L 192.855469 92.871094 L 193.492188 89.605469 L 193.730469 88.410156 L 193.808594 84.023438 C 193.808594 78.496094 193.359375 74.113281 192.457031 70.871094 L 192.457031 70.074219 L 191.585938 64.253906 C 190.367188 60.320312 189.546875 58.355469 189.125 58.355469 L 182.457031 49.347656 L 179.675781 45.839844 L 178.007812 42.890625 L 177.691406 43.367188 L 178.007812 44.085938 M 172.054688 70.871094 L 172.132812 70.632812 L 172.453125 71.429688 L 172.054688 70.871094 M 141.410156 31.726562 L 159.273438 32.765625 C 165.148438 33.828125 170.070312 35.847656 174.039062 38.824219 C 177.214844 41.214844 180.390625 44.402344 183.566406 48.390625 C 186.53125 52.058594 188.886719 55.324219 190.632812 58.195312 C 191.269531 59.3125 191.875 61.730469 192.457031 65.449219 L 193.886719 70.234375 C 194.207031 75.601562 194.628906 80.277344 195.15625 84.261719 L 195 89.921875 C 194.628906 92.632812 192.140625 99.570312 187.535156 110.730469 L 184.519531 121.414062 C 183.355469 128.480469 182.191406 132.015625 181.027344 132.015625 C 180.601562 132.015625 180.390625 131.75 180.390625 131.21875 L 180.46875 130.738281 C 179.941406 129.304688 179.304688 126.460938 178.566406 122.210938 L 176.105469 128.507812 L 174.515625 133.132812 L 173.800781 135.921875 C 173.484375 137.089844 173.113281 137.675781 172.691406 137.675781 C 172.265625 137.675781 172.054688 137.410156 172.054688 136.878906 L 172.292969 136.160156 C 172.132812 134.621094 172.054688 131.988281 172.054688 128.269531 L 171.660156 120.058594 L 169.039062 131.855469 L 167.292969 144.691406 C 167.292969 146.179688 167.054688 146.921875 166.578125 146.921875 C 165.835938 146.921875 165.570312 143.839844 165.785156 137.675781 L 165.785156 134.886719 L 165.226562 133.769531 C 165.226562 123.300781 165.96875 114.980469 167.449219 108.816406 L 170.546875 95.742188 C 172.082031 89.949219 173.351562 86.308594 174.359375 84.820312 C 173.300781 84.078125 171.816406 82.058594 169.910156 78.761719 L 167.292969 74.457031 L 167.292969 77.566406 C 167.292969 79.535156 167.609375 81.527344 168.246094 83.546875 C 168.878906 85.566406 169.195312 87.054688 169.195312 88.011719 L 169.195312 88.089844 C 169.195312 88.515625 169.011719 88.726562 168.640625 88.726562 C 168.429688 88.726562 168.191406 88.621094 167.925781 88.410156 C 166.605469 87.398438 164.273438 84.023438 160.941406 78.285156 L 158.796875 73.980469 L 159.035156 76.371094 C 159.617188 78.390625 161.125 82.296875 163.558594 88.089844 L 163.480469 88.648438 L 162.925781 88.726562 L 162.6875 88.726562 C 161.734375 88.726562 158.003906 85.75 151.492188 79.800781 L 147.046875 74.058594 L 147.683594 76.050781 L 154.273438 88.328125 L 154.273438 88.726562 L 154.191406 88.886719 L 153.714844 89.046875 L 153.558594 89.046875 L 138.472656 79.800781 C 136.992188 78.734375 135.113281 76.796875 132.835938 73.980469 L 131.488281 72.226562 L 131.804688 74.9375 L 133.152344 81.234375 C 133.683594 83.304688 135.269531 87.453125 137.917969 93.671875 L 137.917969 94.070312 L 137.839844 94.386719 L 137.519531 94.546875 L 137.28125 94.546875 C 136.117188 94.546875 133.046875 90.507812 128.074219 82.429688 C 125.375 78.070312 123.679688 74.671875 122.992188 72.226562 L 118.148438 81.3125 C 117.777344 82.324219 117.433594 84.554688 117.117188 88.011719 L 116.71875 91.277344 L 116.800781 91.597656 L 116.71875 92.316406 L 116.324219 92.394531 L 116.242188 92.394531 L 115.847656 92.316406 L 115.53125 92.234375 L 115.53125 92.15625 C 114.3125 91.199219 113.4375 87.746094 112.910156 81.792969 L 110.6875 89.445312 L 112.828125 95.265625 L 120.929688 115.671875 L 121.007812 115.59375 C 121.113281 115.804688 121.324219 115.9375 121.640625 115.992188 L 121.640625 116.152344 L 122.515625 116.707031 L 132.675781 124.839844 L 132.597656 125.238281 L 132.675781 125.398438 C 132.675781 125.875 132.386719 126.117188 131.804688 126.117188 C 130.058594 126.117188 128.839844 125.636719 128.152344 124.679688 L 127.039062 122.847656 L 123.945312 126.753906 C 123.628906 126.753906 123.308594 126.433594 122.992188 125.796875 L 126.007812 144.210938 L 125.929688 145.40625 C 125.875 145.832031 125.636719 146.046875 125.214844 146.046875 C 124.472656 146.046875 122.9375 140.835938 120.609375 130.421875 L 120.132812 128.347656 L 119.976562 131.058594 L 120.132812 131.535156 C 120.132812 131.960938 119.921875 132.175781 119.5 132.175781 L 119.417969 132.175781 C 118.574219 132.015625 117.566406 130.527344 116.402344 127.710938 L 113.78125 121.09375 L 111.878906 117.109375 L 111.878906 120.136719 C 112.035156 124.546875 111.824219 126.753906 111.242188 126.753906 L 110.84375 126.515625 L 110.367188 126.59375 C 109.308594 126.59375 107.695312 120.5625 105.527344 108.496094 C 102.878906 97.761719 101.554688 91.757812 101.554688 90.480469 L 101.792969 89.683594 C 101.160156 86.921875 100.84375 84.792969 100.84375 83.304688 L 100.285156 71.988281 C 100.285156 67.148438 100.628906 63.5625 101.320312 61.222656 L 101.476562 60.90625 L 101.320312 60.425781 L 102.984375 56.441406 L 104.96875 52.695312 C 107.667969 48.550781 109.65625 46.050781 110.925781 45.199219 L 120.292969 37.945312 C 120.875 37.414062 122.886719 36.296875 126.328125 34.597656 C 126.855469 34.277344 128.363281 33.746094 130.851562 33.003906 L 134.902344 32.285156 L 135.535156 32.046875 L 141.410156 31.726562 M 122.355469 118.0625 L 122.277344 118.222656 L 124.101562 124.441406 L 126.40625 121.730469 L 122.355469 118.0625 "/>
<path style=" stroke:none;fill-rule:evenodd;fill:rgb(17.647059%,20%,15.294118%);fill-opacity:1;" d="M 144.746094 63.617188 L 144.984375 63.617188 L 144.984375 63.933594 L 144.746094 63.617188 M 187.058594 95.664062 L 187.140625 95.664062 L 187.058594 95.742188 L 187.058594 95.664062 M 145.9375 59.152344 L 145.9375 59.3125 L 145.9375 59.152344 M 104.8125 62.101562 L 104.730469 62.101562 L 104.730469 62.023438 L 104.8125 62.101562 M 115.765625 88.648438 L 115.6875 88.808594 L 115.609375 88.648438 L 115.765625 88.648438 M 133.949219 88.488281 L 134.1875 88.488281 L 134.425781 89.125 L 133.949219 88.488281 M 109.65625 81.394531 L 109.574219 81.394531 L 109.574219 81.3125 L 109.65625 81.394531 M 165.941406 80.277344 L 165.941406 80.199219 L 165.941406 80.277344 "/>
<path style=" stroke:none;fill-rule:evenodd;fill:rgb(18.431373%,9.411765%,6.27451%);fill-opacity:1;" d="M 107.828125 50.78125 L 106.875 52.613281 L 106.71875 52.214844 L 107.667969 50.703125 L 107.828125 50.78125 M 115.449219 88.808594 L 115.609375 88.726562 L 115.449219 88.808594 "/>
<path style=" stroke:none;fill-rule:evenodd;fill:rgb(7.058824%,7.843138%,5.882353%);fill-opacity:1;" d="M 115.847656 106.1875 L 116.003906 106.027344 L 115.847656 106.1875 M 107.667969 50.703125 L 107.667969 50.621094 L 107.828125 50.78125 L 107.667969 50.703125 M 115.609375 88.726562 L 115.449219 88.886719 L 115.449219 88.808594 L 115.609375 88.726562 M 130.691406 70.390625 L 130.851562 70.234375 L 130.691406 70.390625 "/>
<path style=" stroke:none;fill-rule:evenodd;fill:rgb(37.64706%,21.960784%,21.176471%);fill-opacity:1;" d="M 133.949219 88.488281 L 134.027344 88.410156 L 134.027344 88.488281 L 133.949219 88.488281 "/>
<path style=" stroke:none;fill-rule:evenodd;fill:rgb(89.803922%,60.392159%,61.960787%);fill-opacity:1;" d="M 106.875 52.613281 C 104.863281 56.652344 103.648438 60.640625 103.222656 64.574219 C 103.964844 62.765625 104.574219 61.570312 105.050781 60.984375 L 106.320312 73.898438 C 106.847656 79.214844 107.007812 83.519531 106.796875 86.8125 L 109.65625 79.640625 L 109.894531 79.558594 L 110.050781 80.835938 C 110.050781 82.695312 109.546875 85.992188 108.542969 90.71875 C 108.542969 94.652344 109.839844 99.597656 112.433594 105.546875 C 112.433594 104.113281 112.777344 103.394531 113.464844 103.394531 C 113.941406 103.394531 114.390625 103.582031 114.816406 103.953125 L 115.292969 104.511719 L 116.003906 106.027344 L 115.847656 106.1875 L 115.53125 105.707031 C 118.175781 112.085938 119.761719 116.203125 120.292969 118.0625 C 121.773438 123.855469 122.699219 128.453125 123.070312 131.855469 L 123.546875 135.683594 L 121.878906 129.78125 L 119.976562 123.40625 L 119.816406 123.085938 C 117.910156 117.242188 116.5625 114.316406 115.765625 114.316406 C 115.34375 114.316406 115.132812 114.53125 115.132812 114.957031 L 118.230469 122.367188 L 118.070312 122.769531 C 118.070312 123.777344 118.308594 125.34375 118.785156 127.472656 L 118.785156 128.347656 L 115.210938 120.375 C 111.824219 112.988281 109.867188 109.296875 109.335938 109.296875 C 108.914062 109.296875 108.703125 109.535156 108.703125 110.011719 L 110.605469 114.398438 L 110.605469 123.644531 C 108.332031 115.140625 106.980469 109.71875 106.558594 107.382812 L 103.859375 93.988281 L 103.9375 93.273438 C 102.402344 85.726562 101.636719 78.710938 101.636719 72.226562 L 101.714844 70.632812 L 101.714844 70.390625 L 101.636719 69.675781 L 101.875 68.636719 L 102.667969 62.101562 L 103.78125 58.753906 L 103.460938 58.753906 L 103.699219 57.636719 C 103.964844 56.839844 104.679688 55.644531 105.84375 54.050781 L 106.71875 52.214844 L 106.875 52.613281 M 115.054688 86.65625 L 114.894531 84.105469 C 114.894531 80.96875 115.316406 77.59375 116.164062 73.980469 C 117.171875 69.566406 118.492188 66.539062 120.132812 64.890625 C 120.503906 66.0625 121.273438 67.734375 122.4375 69.914062 L 123.152344 71.269531 L 122.914062 71.429688 L 122.199219 70.234375 C 121.140625 71.667969 119.632812 74.75 117.671875 79.480469 C 117.25 80.488281 116.613281 83.546875 115.765625 88.648438 L 115.609375 88.648438 L 115.609375 88.726562 L 115.449219 88.808594 C 115.238281 88.222656 115.105469 87.503906 115.054688 86.65625 M 134.027344 88.410156 C 132.386719 85.859375 130.824219 82.21875 129.34375 77.488281 C 127.808594 72.492188 127.039062 68.480469 127.039062 65.449219 L 127.199219 64.890625 L 127.039062 62.976562 C 127.039062 59.949219 127.171875 57.902344 127.4375 56.839844 C 129.078125 58.433594 130.878906 60.800781 132.835938 63.933594 C 134.953125 67.390625 136.671875 69.835938 137.996094 71.269531 L 144.585938 78.445312 L 148.714844 81.953125 L 149.746094 82.90625 L 151.8125 85.617188 L 151.574219 85.859375 L 150.9375 85.21875 L 151.414062 86.175781 L 148.953125 84.742188 C 144.453125 82.296875 141.382812 80.4375 139.742188 79.160156 C 137.148438 77.246094 135.351562 75.492188 134.34375 73.898438 C 132.070312 70.445312 130.746094 68.71875 130.375 68.71875 L 129.898438 68.71875 L 130.851562 70.234375 L 130.691406 70.390625 L 129.660156 68.878906 L 129.421875 69.355469 C 129.421875 70.101562 129.820312 72.332031 130.613281 76.050781 L 131.964844 82.03125 L 133.074219 85.460938 L 134.34375 88.089844 L 134.34375 88.25 L 134.1875 88.488281 L 134.027344 88.488281 L 134.027344 88.410156 M 144.984375 63.617188 L 144.902344 62.820312 C 144.902344 61.171875 145.195312 59.65625 145.777344 58.273438 C 147.523438 60.984375 149.585938 65.527344 151.96875 71.90625 C 152.394531 73.128906 154.058594 75.414062 156.972656 78.761719 L 159.273438 81.871094 L 161.179688 85.460938 L 160.941406 85.617188 L 160.386719 84.742188 L 160.386719 84.820312 L 160.703125 85.539062 L 159.671875 84.820312 C 156.546875 82.640625 154.273438 80.753906 152.84375 79.160156 L 146.175781 70.550781 L 145.539062 66.882812 L 145.140625 64.414062 L 144.984375 64.414062 L 144.984375 63.617188 M 157.367188 64.574219 C 157.421875 64.09375 157.527344 63.773438 157.6875 63.617188 C 157.738281 61.011719 158.136719 59.710938 158.875 59.710938 L 161.019531 64.015625 C 162.34375 67.042969 163.191406 69.410156 163.558594 71.109375 C 164.40625 74.988281 165.203125 78.019531 165.941406 80.199219 L 165.941406 80.277344 L 166.816406 82.507812 L 166.816406 83.863281 L 166.496094 83.863281 L 166.339844 83.226562 L 166.496094 84.105469 L 162.132812 77.726562 C 160.4375 73.101562 159.113281 69.992188 158.160156 68.398438 L 157.765625 65.6875 L 157.367188 65.6875 L 157.289062 65.527344 L 157.367188 64.574219 M 169.671875 75.414062 L 170.070312 72.625 L 169.671875 69.433594 L 169.753906 67.441406 L 169.992188 67.441406 L 172.054688 70.871094 L 172.453125 71.429688 L 172.769531 71.988281 L 172.609375 72.144531 L 171.976562 71.1875 L 171.5 72.625 C 171.5 74.164062 172.082031 76.210938 173.246094 78.761719 L 173.960938 82.03125 L 171.101562 78.203125 L 169.832031 75.734375 L 169.753906 75.652344 L 169.671875 75.414062 M 171.816406 96.222656 L 171.898438 96.378906 L 172.132812 96.378906 L 172.214844 97.734375 L 171.898438 99.570312 L 171.898438 107.941406 L 176.5 95.742188 C 178.617188 88.355469 180.285156 84.421875 181.503906 83.945312 L 181.660156 88.167969 C 181.660156 93.378906 181.421875 97.097656 180.945312 99.332031 L 180.945312 100.207031 L 181.027344 100.285156 C 183.355469 94.226562 185.179688 89.710938 186.503906 86.734375 C 186.980469 88.542969 187.164062 91.519531 187.058594 95.664062 L 187.058594 95.742188 L 187.140625 95.664062 L 189.917969 90.878906 L 190.316406 84.742188 L 190.394531 77.007812 C 190.394531 72.917969 190.183594 70.074219 189.757812 68.480469 L 188.808594 64.09375 C 188.332031 62.234375 187.75 60.878906 187.058594 60.027344 C 186.105469 58.753906 184.546875 55.910156 182.375 51.5 L 178.007812 44.085938 L 177.691406 43.367188 L 178.007812 42.890625 L 179.675781 45.839844 L 182.457031 49.347656 L 189.125 58.355469 C 189.546875 58.355469 190.367188 60.320312 191.585938 64.253906 L 192.457031 70.074219 L 192.457031 70.871094 C 193.359375 74.113281 193.808594 78.496094 193.808594 84.023438 L 193.730469 88.410156 L 193.492188 89.605469 L 192.855469 92.871094 L 192.617188 93.429688 L 192.617188 94.945312 L 192.21875 95.105469 L 192.21875 94.46875 L 190.554688 98.375 C 188.808594 102.09375 187.457031 105.734375 186.503906 109.296875 C 183.753906 118.277344 181.925781 124.546875 181.027344 128.109375 L 179.359375 120.214844 L 179.675781 119.101562 L 179.597656 118.621094 L 178.960938 118.460938 L 178.644531 118.78125 C 177.902344 119.632812 176.6875 122.582031 174.992188 127.628906 L 173.484375 132.332031 L 173.40625 128.90625 L 173.40625 122.6875 C 173.246094 118.542969 172.875 116.46875 172.292969 116.46875 C 171.921875 116.46875 171.710938 117.082031 171.660156 118.304688 C 171.550781 118.089844 171.367188 117.984375 171.101562 117.984375 C 170.519531 117.984375 169.804688 120.082031 168.960938 124.28125 C 168.164062 127.949219 167.769531 130.128906 167.769531 130.820312 L 166.894531 138.152344 L 166.578125 134.40625 C 166.894531 133.609375 167.054688 132.175781 167.054688 130.101562 L 167.132812 122.609375 C 167.082031 119.898438 167.238281 117.796875 167.609375 116.308594 L 168.402344 110.011719 C 168.878906 106.984375 169.859375 102.785156 171.339844 97.417969 L 171.816406 96.222656 M 145.9375 59.152344 L 145.9375 59.3125 L 145.9375 59.152344 M 104.8125 62.101562 L 104.730469 62.023438 L 104.730469 62.101562 L 104.8125 62.101562 M 109.65625 81.394531 L 109.574219 81.3125 L 109.574219 81.394531 L 109.65625 81.394531 M 122.355469 118.0625 L 126.40625 121.730469 L 124.101562 124.441406 L 122.277344 118.222656 L 122.355469 118.0625 "/>
<path style=" stroke:none;fill-rule:evenodd;fill:rgb(94.117647%,78.431374%,78.431374%);fill-opacity:1;" d="M 106.875 52.613281 C 109.363281 49.160156 111.003906 47.0625 111.796875 46.316406 C 113.332031 44.828125 116.375 42.464844 120.929688 39.222656 C 125.851562 35.128906 132.675781 33.082031 141.410156 33.082031 C 149.824219 33.082031 156.308594 33.667969 160.859375 34.835938 C 167.742188 36.539062 173.457031 39.621094 178.007812 44.085938 L 182.375 51.5 C 184.546875 55.910156 186.105469 58.753906 187.058594 60.027344 C 187.75 60.878906 188.332031 62.234375 188.808594 64.09375 L 189.757812 68.480469 C 190.183594 70.074219 190.394531 72.917969 190.394531 77.007812 L 190.316406 84.742188 L 189.917969 90.878906 L 187.140625 95.664062 L 187.058594 95.664062 C 187.164062 91.519531 186.980469 88.542969 186.503906 86.734375 C 185.179688 89.710938 183.355469 94.226562 181.027344 100.285156 L 180.945312 100.207031 L 180.945312 99.332031 C 181.421875 97.097656 181.660156 93.378906 181.660156 88.167969 L 181.503906 83.945312 C 180.285156 84.421875 178.617188 88.355469 176.5 95.742188 L 171.898438 107.941406 L 171.898438 99.570312 L 172.214844 97.734375 L 172.132812 96.378906 L 171.898438 96.378906 L 171.816406 96.222656 L 175.867188 85.21875 L 175.945312 85.21875 L 176.582031 85.058594 L 176.660156 84.503906 C 176.660156 84.023438 176.367188 83.757812 175.785156 83.707031 C 175.628906 82.003906 175.046875 79.957031 174.039062 77.566406 L 172.609375 72.144531 L 172.769531 71.988281 L 172.453125 71.429688 L 172.132812 70.632812 L 172.054688 70.871094 L 169.992188 67.441406 L 169.753906 67.441406 L 169.671875 69.433594 L 170.070312 72.625 L 169.671875 75.414062 L 169.277344 74.539062 C 168.429688 72.996094 167.742188 72.121094 167.210938 71.90625 C 167 68.71875 166.65625 67.125 166.179688 67.125 C 165.808594 67.125 165.597656 67.867188 165.546875 69.355469 L 165.546875 71.585938 L 165.941406 80.199219 C 165.203125 78.019531 164.40625 74.988281 163.558594 71.109375 C 163.191406 69.410156 162.34375 67.042969 161.019531 64.015625 L 158.875 59.710938 C 158.136719 59.710938 157.738281 61.011719 157.6875 63.617188 C 157.527344 63.773438 157.421875 64.09375 157.367188 64.574219 L 157.289062 64.574219 C 156.917969 64.574219 156.707031 65.210938 156.652344 66.484375 L 156.652344 67.203125 L 156.335938 67.761719 L 156.652344 68.878906 C 156.707031 70.789062 157.261719 74.058594 158.320312 78.683594 L 159.273438 81.871094 L 156.972656 78.761719 C 154.058594 75.414062 152.394531 73.128906 151.96875 71.90625 C 149.585938 65.527344 147.523438 60.984375 145.777344 58.273438 C 145.195312 59.65625 144.902344 61.171875 144.902344 62.820312 L 144.984375 63.617188 L 144.746094 63.617188 L 144.109375 65.289062 C 144.109375 69.96875 145.035156 73.925781 146.886719 77.167969 L 149.746094 82.90625 L 148.714844 81.953125 L 144.585938 78.445312 L 137.996094 71.269531 C 136.671875 69.835938 134.953125 67.390625 132.835938 63.933594 C 130.878906 60.800781 129.078125 58.433594 127.4375 56.839844 C 127.171875 57.902344 127.039062 59.949219 127.039062 62.976562 L 127.199219 64.890625 L 127.039062 65.449219 C 127.039062 68.480469 127.808594 72.492188 129.34375 77.488281 C 130.824219 82.21875 132.386719 85.859375 134.027344 88.410156 L 133.949219 88.488281 L 129.183594 81.710938 L 123.785156 70.550781 L 123.945312 69.835938 C 123.945312 69.410156 123.734375 69.195312 123.308594 69.195312 C 123.046875 69.195312 122.753906 69.433594 122.4375 69.914062 C 121.273438 67.734375 120.503906 66.0625 120.132812 64.890625 C 118.492188 66.539062 117.171875 69.566406 116.164062 73.980469 C 115.316406 77.59375 114.894531 80.96875 114.894531 84.105469 L 115.054688 86.65625 C 114.207031 83.574219 113.78125 80.355469 113.78125 77.007812 L 115.449219 66.566406 L 114.734375 65.929688 C 114.101562 65.929688 113.542969 67.761719 113.066406 71.429688 C 112.804688 73.234375 112.617188 75.09375 112.511719 77.007812 L 112.671875 79.160156 L 109.179688 89.367188 L 109.417969 89.765625 C 109.257812 89.871094 109.179688 90.054688 109.179688 90.320312 L 110.6875 94.226562 L 111.082031 95.183594 L 114.179688 102.519531 L 114.816406 103.953125 C 114.390625 103.582031 113.941406 103.394531 113.464844 103.394531 C 112.777344 103.394531 112.433594 104.113281 112.433594 105.546875 C 109.839844 99.597656 108.542969 94.652344 108.542969 90.71875 C 109.546875 85.992188 110.050781 82.695312 110.050781 80.835938 L 109.894531 79.558594 L 109.65625 79.640625 L 106.796875 86.8125 C 107.007812 83.519531 106.847656 79.214844 106.320312 73.898438 L 105.050781 60.984375 C 104.574219 61.570312 103.964844 62.765625 103.222656 64.574219 C 103.648438 60.640625 104.863281 56.652344 106.875 52.613281 "/>
</g>
</svg>
