<?xml version="1.0" encoding="UTF-8"?>
<svg xmlns="http://www.w3.org/2000/svg" xmlns:xlink="http://www.w3.org/1999/xlink" width="77px" height="87px" viewBox="0 0 77 87" version="1.1">
<g id="surface1">
<path style=" stroke:none;fill-rule:evenodd;fill:rgb(0%,0%,0%);fill-opacity:1;" d="M 42.917969 37.160156 C 43.613281 36.726562 44.160156 36.507812 44.566406 36.507812 C 48.058594 36.507812 50.660156 37.351562 52.363281 39.035156 L 54.441406 37.597656 L 54.441406 37.464844 L 54.917969 37.25 L 55.527344 36.8125 L 55.527344 36.945312 C 57 36.160156 58.875 35.027344 61.15625 33.546875 C 63.0625 32.296875 65 31.28125 66.964844 30.496094 L 67.398438 29.929688 L 68.175781 30.058594 L 68.261719 30.058594 L 68.4375 30.496094 L 68.351562 31.0625 L 67.828125 31.238281 L 67.09375 32.804688 C 66.398438 34.167969 66.011719 35.476562 65.921875 36.726562 L 65.96875 36.988281 L 56.003906 46.222656 L 55.527344 46.136719 L 55.527344 46.746094 L 54.660156 47.09375 C 54.488281 47.996094 54.109375 48.894531 53.535156 49.796875 C 52.175781 51.828125 49.964844 52.859375 46.90625 52.886719 C 43.871094 52.859375 41.632812 52.21875 40.191406 50.972656 L 40.101562 50.972656 L 37.460938 49.359375 C 35.292969 48.835938 32 48.589844 27.582031 48.617188 C 26.050781 48.589844 24.59375 48.980469 23.207031 49.796875 C 21.847656 50.550781 21.027344 50.941406 20.738281 50.972656 L 20.390625 50.929688 C 19.089844 51.566406 17.386719 51.902344 15.277344 51.929688 C 10.800781 51.902344 8.160156 50.347656 7.351562 47.269531 L 7.265625 47.269531 L 6.613281 47.179688 L 6.613281 46.875 L 4.101562 46.875 C 4.015625 47.078125 3.972656 46.964844 3.972656 46.527344 L 3.972656 46.355469 L 0.980469 40.601562 L 0.980469 38.730469 L 1.242188 38.730469 L 5.660156 39.121094 L 5.703125 39.164062 L 6.613281 39.296875 L 6.613281 39.207031 L 8.476562 39.863281 C 10.007812 38.003906 12.824219 37.074219 16.925781 37.074219 C 18.976562 37.074219 20.550781 37.539062 21.648438 38.46875 L 21.820312 38.46875 L 23.464844 39.164062 C 24.476562 39.628906 26.644531 39.863281 29.964844 39.863281 C 34.414062 39.863281 37.648438 39.398438 39.667969 38.46875 L 42.527344 37.074219 L 42.917969 37.160156 M 39.019531 45.046875 C 39.019531 49.695312 41.621094 52.03125 46.816406 52.0625 C 51.582031 52.03125 53.964844 50.011719 53.964844 46.003906 C 53.964844 40.226562 50.90625 37.335938 44.78125 37.335938 C 43.886719 37.335938 42.949219 37.742188 41.964844 38.554688 C 40.925781 39.308594 40.246094 40.136719 39.929688 41.039062 C 39.324219 42.722656 39.019531 44.058594 39.019531 45.046875 M 41.621094 46.703125 L 48.855469 40.035156 L 48.722656 39.949219 L 48.464844 39.515625 L 44.304688 39.425781 C 43.238281 39.425781 42.371094 39.976562 41.707031 41.082031 L 40.925781 44.699219 L 40.796875 44.828125 C 40.910156 45.324219 41.128906 45.890625 41.445312 46.527344 L 41.53125 46.746094 L 41.621094 46.703125 M 38.847656 41.472656 L 30.917969 42.128906 L 24.332031 42.039062 C 24.101562 42.011719 23.941406 41.925781 23.855469 41.777344 L 23.421875 41.691406 C 23.625 42.621094 23.683594 43.695312 23.597656 44.914062 C 23.597656 45.699219 23.511719 46.425781 23.335938 47.09375 L 24.679688 46.570312 C 26.09375 46.078125 27.480469 45.816406 28.839844 45.789062 L 30.613281 45.789062 C 33.851562 45.789062 36.421875 46.238281 38.328125 47.136719 C 38.238281 46.527344 38.226562 45.875 38.285156 45.175781 C 38.285156 43.957031 38.472656 42.722656 38.847656 41.472656 M 55.394531 37.945312 L 52.839844 39.558594 C 53.621094 40.515625 54.167969 41.722656 54.488281 43.171875 C 55.296875 41.835938 58.90625 39.28125 65.316406 35.503906 L 65.316406 35.375 C 65.316406 34.214844 65.578125 33.09375 66.097656 32.019531 C 64.796875 32.660156 63.136719 33.601562 61.113281 34.851562 C 57.734375 36.945312 55.886719 37.988281 55.570312 37.988281 L 55.527344 37.988281 L 55.394531 37.945312 M 45.953125 38.554688 C 50.542969 38.554688 52.824219 41.082031 52.796875 46.136719 C 52.796875 47.09375 52.304688 48.023438 51.324219 48.925781 C 49.964844 50.144531 47.988281 50.753906 45.386719 50.753906 C 44.578125 50.753906 43.957031 50.609375 43.527344 50.316406 C 43.0625 49.96875 42.773438 49.796875 42.660156 49.796875 C 41.851562 49.796875 41.15625 48.851562 40.578125 46.964844 C 40.144531 45.539062 39.929688 44.507812 39.929688 43.871094 C 40.046875 40.296875 42.050781 38.527344 45.953125 38.554688 M 5.011719 39.644531 L 1.5 39.253906 C 1.933594 40.851562 2.410156 42.242188 2.929688 43.433594 L 3.277344 43.433594 L 7.046875 43.957031 C 7.105469 42.621094 7.4375 41.472656 8.042969 40.515625 L 7.351562 40.339844 L 6.613281 40.339844 C 5.980469 40.3125 5.644531 40.238281 5.617188 40.125 L 5.574219 40.035156 L 5.011719 39.644531 M 18.09375 40.035156 C 17.429688 39.6875 16.664062 39.515625 15.796875 39.515625 C 14.09375 39.484375 12.621094 39.921875 11.378906 40.820312 C 10.3125 41.574219 9.777344 42.300781 9.777344 43 C 9.777344 44.507812 10.066406 45.757812 10.644531 46.746094 C 11.164062 46.398438 13.648438 44.191406 18.09375 40.125 L 18.136719 40.082031 L 18.09375 40.035156 M 10.46875 40.386719 C 11.914062 39.253906 14.023438 38.6875 16.796875 38.6875 C 19.078125 38.65625 20.652344 40.429688 21.515625 44 C 20.535156 47.949219 18.800781 49.925781 16.320312 49.925781 C 11.4375 49.925781 9.011719 47.601562 9.039062 42.957031 C 9.011719 42.054688 9.488281 41.199219 10.46875 40.386719 M 12.636719 38.597656 C 10.816406 39.238281 9.617188 39.964844 9.039062 40.777344 C 8.230469 41.996094 7.828125 43.160156 7.828125 44.261719 C 7.855469 48.792969 10.324219 51.074219 15.234375 51.101562 C 20.550781 51.074219 23.078125 49.011719 22.816406 44.914062 C 22.816406 40.238281 20.507812 37.902344 15.886719 37.902344 L 12.636719 38.597656 "/>
<path style=" stroke:none;fill-rule:evenodd;fill:rgb(20%,20%,20%);fill-opacity:1;" d="M 39.019531 45.046875 C 39.019531 44.058594 39.324219 42.722656 39.929688 41.039062 C 40.246094 40.136719 40.925781 39.308594 41.964844 38.554688 C 42.949219 37.742188 43.886719 37.335938 44.78125 37.335938 C 50.90625 37.335938 53.964844 40.226562 53.964844 46.003906 C 53.964844 50.011719 51.582031 52.03125 46.816406 52.0625 C 41.621094 52.03125 39.019531 49.695312 39.019531 45.046875 M 45.953125 38.554688 C 42.050781 38.527344 40.046875 40.296875 39.929688 43.871094 C 39.929688 44.507812 40.144531 45.539062 40.578125 46.964844 C 41.15625 48.851562 41.851562 49.796875 42.660156 49.796875 C 42.773438 49.796875 43.0625 49.96875 43.527344 50.316406 C 43.957031 50.609375 44.578125 50.753906 45.386719 50.753906 C 47.988281 50.753906 49.964844 50.144531 51.324219 48.925781 C 52.304688 48.023438 52.796875 47.09375 52.796875 46.136719 C 52.824219 41.082031 50.542969 38.554688 45.953125 38.554688 M 55.394531 37.945312 L 55.527344 37.988281 L 55.570312 37.988281 C 55.886719 37.988281 57.734375 36.945312 61.113281 34.851562 C 63.136719 33.601562 64.796875 32.660156 66.097656 32.019531 C 65.578125 33.09375 65.316406 34.214844 65.316406 35.375 L 65.316406 35.503906 C 58.90625 39.28125 55.296875 41.835938 54.488281 43.171875 C 54.167969 41.722656 53.621094 40.515625 52.839844 39.558594 L 55.394531 37.945312 M 38.847656 41.472656 C 38.472656 42.722656 38.285156 43.957031 38.285156 45.175781 C 38.226562 45.875 38.238281 46.527344 38.328125 47.136719 C 36.421875 46.238281 33.851562 45.789062 30.613281 45.789062 L 28.839844 45.789062 C 27.480469 45.816406 26.09375 46.078125 24.679688 46.570312 L 23.335938 47.09375 C 23.511719 46.425781 23.597656 45.699219 23.597656 44.914062 C 23.683594 43.695312 23.625 42.621094 23.421875 41.691406 L 23.855469 41.777344 C 23.941406 41.925781 24.101562 42.011719 24.332031 42.039062 L 30.917969 42.128906 L 38.847656 41.472656 M 5.011719 39.644531 L 5.574219 40.035156 L 5.617188 40.125 C 5.644531 40.238281 5.980469 40.3125 6.613281 40.339844 L 7.351562 40.339844 L 8.042969 40.515625 C 7.4375 41.472656 7.105469 42.621094 7.046875 43.957031 L 3.277344 43.433594 L 2.929688 43.433594 C 2.410156 42.242188 1.933594 40.851562 1.5 39.253906 L 5.011719 39.644531 M 12.636719 38.597656 L 15.886719 37.902344 C 20.507812 37.902344 22.816406 40.238281 22.816406 44.914062 C 23.078125 49.011719 20.550781 51.074219 15.234375 51.101562 C 10.324219 51.074219 7.855469 48.792969 7.828125 44.261719 C 7.828125 43.160156 8.230469 41.996094 9.039062 40.777344 C 9.617188 39.964844 10.816406 39.238281 12.636719 38.597656 M 10.46875 40.386719 C 9.488281 41.199219 9.011719 42.054688 9.039062 42.957031 C 9.011719 47.601562 11.4375 49.925781 16.320312 49.925781 C 18.800781 49.925781 20.535156 47.949219 21.515625 44 C 20.652344 40.429688 19.078125 38.65625 16.796875 38.6875 C 14.023438 38.6875 11.914062 39.253906 10.46875 40.386719 "/>
<path style=" stroke:none;fill-rule:evenodd;fill:rgb(35.686275%,39.215687%,38.82353%);fill-opacity:1;" d="M 41.445312 46.527344 C 41.128906 45.890625 40.910156 45.324219 40.796875 44.828125 L 40.925781 44.699219 L 41.707031 41.082031 C 42.371094 39.976562 43.238281 39.425781 44.304688 39.425781 L 48.464844 39.515625 L 48.722656 39.949219 L 48.855469 40.035156 L 41.621094 46.703125 L 41.445312 46.527344 M 41.964844 46.136719 L 41.964844 46.179688 L 41.964844 46.136719 M 16.621094 40.253906 L 16.578125 40.253906 L 16.578125 40.339844 L 16.621094 40.253906 M 18.09375 40.125 C 13.648438 44.191406 11.164062 46.398438 10.644531 46.746094 C 10.066406 45.757812 9.777344 44.507812 9.777344 43 C 9.777344 42.300781 10.3125 41.574219 11.378906 40.820312 C 12.621094 39.921875 14.09375 39.484375 15.796875 39.515625 C 16.664062 39.515625 17.429688 39.6875 18.09375 40.035156 L 18.09375 40.125 "/>
</g>
</svg>
