<?xml version="1.0" encoding="UTF-8"?>
<svg xmlns="http://www.w3.org/2000/svg" xmlns:xlink="http://www.w3.org/1999/xlink" width="77px" height="87px" viewBox="0 0 77 87" version="1.1">
<g id="surface1">
<path style=" stroke:none;fill-rule:evenodd;fill:rgb(0%,0%,0%);fill-opacity:1;" d="M 71.640625 33.023438 C 72.566406 32.992188 72.914062 33.792969 72.683594 35.417969 C 71.988281 41.894531 70.863281 45.132812 69.304688 45.132812 L 68.609375 45.046875 L 68.523438 44.871094 L 68.4375 44.828125 L 68.4375 44.523438 C 69.851562 39.761719 70.660156 35.941406 70.863281 33.066406 L 71.164062 33.023438 L 71.640625 33.023438 M 74.847656 32.109375 C 74.53125 32.078125 74.371094 32.324219 74.371094 32.847656 L 74.761719 33.675781 C 75.078125 33.648438 75.324219 33.546875 75.5 33.371094 L 74.847656 32.109375 M 75.066406 34.375 C 74.113281 34.34375 73.636719 33.835938 73.636719 32.847656 C 73.636719 31.859375 74.011719 31.382812 74.761719 31.410156 C 75.65625 31.382812 76.121094 32.078125 76.148438 33.5 C 76.148438 34.054688 75.785156 34.34375 75.066406 34.375 M 74.761719 35.941406 L 74.71875 35.984375 C 75.035156 36.1875 75.296875 36.289062 75.5 36.289062 L 75.84375 36.289062 L 76.019531 36.160156 C 75.84375 35.78125 75.511719 35.59375 75.023438 35.59375 L 74.761719 35.941406 M 75.5 38.902344 L 75.410156 38.554688 L 75.195312 38.554688 C 74.847656 38.554688 74.472656 38.699219 74.070312 38.992188 C 74.214844 39.136719 74.371094 39.207031 74.546875 39.207031 C 75.179688 39.207031 75.5 39.105469 75.5 38.902344 M 75.5 37.117188 C 74.804688 37.117188 74.285156 36.957031 73.9375 36.636719 C 73.738281 36.40625 73.636719 36.21875 73.636719 36.070312 C 73.636719 35.664062 74.113281 35.144531 75.066406 34.503906 C 75.929688 34.503906 76.566406 35.054688 76.972656 36.160156 C 76.941406 36.796875 76.453125 37.117188 75.5 37.117188 M 76.363281 38.992188 C 76.363281 39.628906 75.730469 39.964844 74.457031 39.992188 C 73.765625 39.964844 73.359375 39.789062 73.246094 39.46875 L 73.246094 38.992188 C 73.246094 38.0625 73.808594 37.597656 74.933594 37.597656 C 75.886719 37.597656 76.363281 38.0625 76.363281 38.992188 M 71.988281 35.332031 C 71.988281 34.488281 71.832031 33.953125 71.511719 33.71875 L 69.347656 44.132812 C 70.242188 43.320312 70.847656 41.996094 71.164062 40.167969 L 71.988281 35.332031 M 74.070312 41.824219 L 74.546875 41.648438 L 73.636719 41.167969 L 73.417969 41.429688 C 73.621094 41.632812 73.835938 41.765625 74.070312 41.824219 M 73.894531 40.472656 C 74.589844 40.472656 75.179688 40.921875 75.671875 41.824219 C 75.671875 42.316406 75.121094 42.5625 74.023438 42.5625 C 73.476562 42.5625 73.058594 42.390625 72.769531 42.039062 L 72.507812 41.429688 C 72.507812 40.761719 72.972656 40.441406 73.894531 40.472656 M 72.769531 44.175781 L 72.683594 44.566406 L 73.246094 45.222656 L 73.636719 44.566406 L 72.769531 44.175781 M 72.941406 43.433594 C 73.925781 43.40625 74.457031 43.871094 74.546875 44.828125 C 74.546875 45.003906 74.371094 45.25 74.023438 45.570312 L 73.203125 46.003906 L 71.816406 44.566406 L 72.941406 43.433594 M 70.6875 46.832031 C 70.6875 46.398438 71.078125 46.179688 71.859375 46.179688 C 72.785156 46.148438 73.203125 46.527344 73.117188 47.3125 C 73.085938 47.980469 72.726562 48.3125 72.03125 48.3125 C 71.628906 48.3125 71.28125 48.082031 70.992188 47.617188 C 70.789062 47.269531 70.6875 47.007812 70.6875 46.832031 M 71.6875 47.136719 L 71.988281 47.617188 L 72.335938 47.398438 L 71.859375 46.917969 C 71.742188 46.773438 71.6875 46.847656 71.6875 47.136719 M 69.085938 48.3125 C 69.75 48.3125 70.011719 49.273438 69.867188 51.1875 C 69.867188 53.019531 69.476562 53.933594 68.695312 53.933594 C 67.773438 53.933594 67.308594 53.671875 67.308594 53.148438 C 67.367188 52.277344 67.46875 51.449219 67.613281 50.667969 C 67.960938 49.097656 68.449219 48.3125 69.085938 48.3125 M 68.089844 53.019531 L 68.261719 53.148438 L 69.085938 53.148438 L 69.085938 49.273438 L 68.089844 51.539062 L 68.089844 53.019531 M 29.964844 53.453125 L 31.480469 53.0625 L 29.707031 52.757812 L 29.488281 53.410156 L 29.964844 53.453125 M 29.921875 54.542969 C 31.800781 54.515625 32.738281 54.847656 32.738281 55.546875 C 32.738281 56.273438 32.058594 56.636719 30.703125 56.636719 C 29.605469 56.636719 29.054688 56.257812 29.054688 55.503906 C 29.054688 54.835938 29.34375 54.515625 29.921875 54.542969 M 30.136719 52.0625 C 31.667969 52.03125 32.433594 52.421875 32.433594 53.238281 C 32.433594 53.875 31.554688 54.195312 29.792969 54.195312 C 29.042969 54.195312 28.664062 53.890625 28.664062 53.28125 C 28.664062 52.46875 29.15625 52.0625 30.136719 52.0625 M 31.613281 55.71875 L 31.785156 55.675781 L 29.878906 55.503906 C 30.195312 55.734375 30.457031 55.867188 30.660156 55.894531 L 31.613281 55.71875 M 32.261719 59.207031 L 30.136719 59.554688 C 29.300781 59.554688 28.941406 59.394531 29.054688 59.074219 C 29.054688 58.8125 29.214844 58.480469 29.53125 58.074219 C 29.964844 57.519531 30.457031 57.257812 31.003906 57.289062 C 32.277344 57.257812 32.753906 57.59375 32.433594 58.289062 L 32.261719 59.207031 M 31.785156 58.074219 L 30.484375 57.984375 L 30.183594 58.246094 L 30.355469 58.726562 L 31.523438 58.550781 L 31.785156 58.074219 M 25.546875 51.710938 C 26.703125 51.710938 27.148438 52.105469 26.890625 52.886719 C 26.890625 53.757812 26.414062 54.195312 25.460938 54.195312 L 24.851562 54.195312 L 24.851562 53.105469 C 24.679688 52.175781 24.910156 51.710938 25.546875 51.710938 M 25.632812 52.453125 L 25.503906 52.886719 L 25.675781 53.28125 L 26.152344 53.238281 L 26.152344 52.757812 C 26.039062 52.523438 25.863281 52.421875 25.632812 52.453125 M 25.15625 56.285156 L 25.199219 56.503906 L 25.328125 56.503906 L 25.328125 56.023438 L 25.15625 56.285156 M 25.546875 54.847656 C 25.835938 54.847656 26.023438 55.082031 26.109375 55.546875 L 26.109375 56.285156 C 26.109375 56.984375 25.835938 57.332031 25.285156 57.332031 L 24.417969 56.851562 L 24.074219 56.285156 L 24.59375 55.503906 C 24.96875 55.066406 25.285156 54.847656 25.546875 54.847656 M 25.328125 58.550781 L 24.722656 59.074219 L 25.328125 59.597656 L 25.328125 58.550781 M 25.285156 57.941406 L 25.980469 57.984375 L 26.324219 59.554688 C 26.324219 60.078125 25.949219 60.339844 25.199219 60.339844 C 24.304688 60.339844 23.855469 59.886719 23.855469 58.988281 C 23.855469 58.261719 24.332031 57.914062 25.285156 57.941406 "/>
<path style=" stroke:none;fill-rule:evenodd;fill:rgb(80.000001%,80.000001%,80.000001%);fill-opacity:1;" d="M 74.847656 32.109375 L 75.5 33.371094 C 75.324219 33.546875 75.078125 33.648438 74.761719 33.675781 L 74.371094 32.847656 C 74.371094 32.324219 74.53125 32.078125 74.847656 32.109375 M 75.5 38.902344 C 75.5 39.105469 75.179688 39.207031 74.546875 39.207031 C 74.371094 39.207031 74.214844 39.136719 74.070312 38.992188 C 74.472656 38.699219 74.847656 38.554688 75.195312 38.554688 L 75.410156 38.554688 L 75.5 38.902344 M 74.761719 35.941406 L 75.023438 35.59375 C 75.511719 35.59375 75.84375 35.78125 76.019531 36.160156 L 75.84375 36.289062 L 75.5 36.289062 C 75.296875 36.289062 75.035156 36.1875 74.71875 35.984375 L 74.761719 35.941406 M 74.070312 41.824219 C 73.835938 41.765625 73.621094 41.632812 73.417969 41.429688 L 73.636719 41.167969 L 74.546875 41.648438 L 74.070312 41.824219 M 71.988281 35.332031 L 71.164062 40.167969 C 70.847656 41.996094 70.242188 43.320312 69.347656 44.132812 L 71.511719 33.71875 C 71.832031 33.953125 71.988281 34.488281 71.988281 35.332031 M 72.769531 44.175781 L 73.636719 44.566406 L 73.246094 45.222656 L 72.683594 44.566406 L 72.769531 44.175781 M 71.6875 47.136719 C 71.6875 46.847656 71.742188 46.773438 71.859375 46.917969 L 72.335938 47.398438 L 71.988281 47.617188 L 71.6875 47.136719 M 29.964844 53.453125 L 29.488281 53.410156 L 29.707031 52.757812 L 31.480469 53.0625 L 29.964844 53.453125 M 68.089844 53.019531 L 68.089844 51.539062 L 69.085938 49.273438 L 69.085938 53.148438 L 68.261719 53.148438 L 68.089844 53.019531 M 31.613281 55.71875 L 30.660156 55.894531 C 30.457031 55.867188 30.195312 55.734375 29.878906 55.503906 L 31.785156 55.675781 L 31.613281 55.71875 M 31.785156 58.074219 L 31.523438 58.550781 L 30.355469 58.726562 L 30.183594 58.246094 L 30.484375 57.984375 L 31.785156 58.074219 M 25.15625 56.285156 L 25.328125 56.023438 L 25.328125 56.503906 L 25.199219 56.503906 L 25.15625 56.285156 M 25.632812 52.453125 C 25.863281 52.421875 26.039062 52.523438 26.152344 52.757812 L 26.152344 53.238281 L 25.675781 53.28125 L 25.503906 52.886719 L 25.632812 52.453125 M 25.328125 58.550781 L 25.328125 59.597656 L 24.722656 59.074219 L 25.328125 58.550781 "/>
</g>
</svg>
