<?xml version="1.0" encoding="UTF-8"?>
<svg xmlns="http://www.w3.org/2000/svg" xmlns:xlink="http://www.w3.org/1999/xlink" width="77px" height="87px" viewBox="0 0 77 87" version="1.1">
<g id="surface1">
<path style=" stroke:none;fill-rule:evenodd;fill:rgb(0%,0%,0%);fill-opacity:1;" d="M 76.105469 53.324219 C 76.105469 54.371094 75.6875 55.429688 74.847656 56.503906 C 73.636719 58.074219 71.859375 58.855469 69.519531 58.855469 C 67.179688 58.855469 65.546875 57.957031 64.625 56.15625 L 63.972656 53.410156 C 63.972656 52.132812 64.21875 50.929688 64.710938 49.796875 C 65.460938 47.996094 66.660156 47.09375 68.304688 47.09375 C 72.0625 47.09375 74.488281 48.109375 75.585938 50.144531 C 76.132812 51.160156 76.308594 52.21875 76.105469 53.324219 M 65.835938 55.71875 C 66.472656 57.027344 67.078125 57.679688 67.65625 57.679688 C 72.566406 57.679688 75.023438 56.171875 75.023438 53.148438 C 75.023438 49.925781 72.828125 48.3125 68.4375 48.3125 C 67.109375 48.3125 66.140625 49.140625 65.535156 50.796875 C 65.246094 51.640625 65.085938 52.496094 65.058594 53.367188 C 65.058594 53.832031 65.316406 54.617188 65.835938 55.71875 M 4.273438 50.535156 L 4.273438 50.40625 L 4.058594 49.273438 C 3.914062 48.777344 3.738281 48.460938 3.539062 48.3125 L 3.234375 47.441406 C 2.195312 48.488281 1.675781 49.738281 1.675781 51.1875 C 1.675781 51.566406 1.90625 52.164062 2.367188 52.976562 C 2.945312 53.933594 3.523438 54.414062 4.101562 54.414062 L 5.789062 54.195312 L 4.273438 50.535156 M 0.59375 51.1875 C 0.738281 47.734375 1.617188 46.003906 3.234375 46.003906 C 3.753906 46.003906 4.550781 47.429688 5.617188 50.273438 L 7.089844 54.632812 C 7.089844 55.269531 6.355469 55.589844 4.882812 55.589844 C 3.464844 55.589844 2.339844 54.9375 1.5 53.628906 C 0.894531 52.699219 0.59375 51.886719 0.59375 51.1875 "/>
<path style=" stroke:none;fill-rule:evenodd;fill:rgb(55.29412%,21.176471%,27.450982%);fill-opacity:1;" d="M 68.089844 49.96875 C 67.511719 50.347656 67.222656 50.710938 67.222656 51.058594 L 67.441406 52.496094 C 67.785156 53.398438 68.40625 53.847656 69.304688 53.847656 C 70.949219 53.847656 71.773438 53.28125 71.773438 52.148438 C 71.773438 50.375 70.878906 49.492188 69.085938 49.492188 C 68.914062 49.492188 68.582031 49.648438 68.089844 49.96875 M 65.835938 55.71875 C 65.316406 54.617188 65.058594 53.832031 65.058594 53.367188 C 65.085938 52.496094 65.246094 51.640625 65.535156 50.796875 C 66.140625 49.140625 67.109375 48.3125 68.4375 48.3125 C 72.828125 48.3125 75.023438 49.925781 75.023438 53.148438 C 75.023438 56.171875 72.566406 57.679688 67.65625 57.679688 C 67.078125 57.679688 66.472656 57.027344 65.835938 55.71875 M 4.273438 50.535156 L 5.789062 54.195312 L 4.101562 54.414062 C 3.523438 54.414062 2.945312 53.933594 2.367188 52.976562 C 1.90625 52.164062 1.675781 51.566406 1.675781 51.1875 C 1.675781 49.738281 2.195312 48.488281 3.234375 47.441406 L 3.539062 48.3125 L 3.148438 48.183594 C 2.886719 48.183594 2.613281 48.503906 2.324219 49.140625 L 1.890625 50.621094 L 1.933594 51.144531 L 2.714844 51.234375 C 3.667969 51.234375 4.1875 51 4.273438 50.535156 "/>
<path style=" stroke:none;fill-rule:evenodd;fill:rgb(74.901962%,36.470589%,42.352942%);fill-opacity:1;" d="M 68.089844 49.96875 C 68.582031 49.648438 68.914062 49.492188 69.085938 49.492188 C 70.878906 49.492188 71.773438 50.375 71.773438 52.148438 C 71.773438 53.28125 70.949219 53.847656 69.304688 53.847656 C 68.40625 53.847656 67.785156 53.398438 67.441406 52.496094 L 67.222656 51.058594 C 67.222656 50.710938 67.511719 50.347656 68.089844 49.96875 M 68.871094 52.105469 C 69.503906 51.988281 69.824219 51.742188 69.824219 51.363281 C 69.765625 50.695312 69.449219 50.363281 68.871094 50.363281 C 68.378906 50.363281 67.972656 50.652344 67.65625 51.234375 C 67.886719 51.8125 68.292969 52.105469 68.871094 52.105469 M 3.539062 48.3125 C 3.738281 48.460938 3.914062 48.777344 4.058594 49.273438 L 4.273438 50.40625 L 4.273438 50.535156 C 4.1875 51 3.667969 51.234375 2.714844 51.234375 L 1.933594 51.144531 L 1.890625 50.621094 L 2.324219 49.140625 C 2.613281 48.503906 2.886719 48.183594 3.148438 48.183594 L 3.539062 48.3125 M 3.625 49.535156 C 3.625 49.332031 3.421875 49.171875 3.019531 49.054688 L 2.671875 49.097656 L 2.542969 49.535156 C 2.542969 49.824219 2.699219 50.027344 3.019531 50.144531 L 3.539062 49.96875 L 3.625 49.535156 "/>
<path style=" stroke:none;fill-rule:evenodd;fill:rgb(100%,100%,100%);fill-opacity:1;" d="M 68.871094 52.105469 C 68.292969 52.105469 67.886719 51.8125 67.65625 51.234375 C 67.972656 50.652344 68.378906 50.363281 68.871094 50.363281 C 69.449219 50.363281 69.765625 50.695312 69.824219 51.363281 C 69.824219 51.742188 69.503906 51.988281 68.871094 52.105469 M 3.625 49.535156 L 3.539062 49.96875 L 3.019531 50.144531 C 2.699219 50.027344 2.542969 49.824219 2.542969 49.535156 L 2.671875 49.097656 L 3.019531 49.054688 C 3.421875 49.171875 3.625 49.332031 3.625 49.535156 "/>
</g>
</svg>
