<?xml version="1.0" encoding="UTF-8"?>
<svg xmlns="http://www.w3.org/2000/svg" xmlns:xlink="http://www.w3.org/1999/xlink" width="77px" height="87px" viewBox="0 0 77 87" version="1.1">
<g id="surface1">
<path style=" stroke:none;fill-rule:evenodd;fill:rgb(0%,0%,0%);fill-opacity:1;" d="M 35.96875 72.347656 L 34.597656 76.230469 L 33.523438 80.589844 C 32.886719 82.421875 32.054688 83.335938 31.019531 83.335938 C 29.546875 83.335938 29.011719 82.460938 29.410156 80.710938 C 29.410156 79.277344 30.105469 76.628906 31.496094 72.765625 C 32.886719 68.863281 33.882812 66.914062 34.480469 66.914062 C 35.871094 66.914062 36.566406 67.589844 36.566406 68.945312 C 36.566406 70.019531 36.367188 71.152344 35.96875 72.347656 M 31.019531 79.753906 L 32.332031 79.992188 L 33.882812 75.753906 C 35.195312 72.128906 35.851562 69.839844 35.851562 68.882812 C 35.851562 68.285156 35.414062 67.988281 34.539062 67.988281 C 34.0625 67.988281 33.1875 70.078125 31.914062 74.257812 L 30.363281 79.8125 L 31.019531 79.753906 M 30.242188 80.171875 L 30.125 80.53125 C 30.125 81.644531 30.402344 82.28125 30.960938 82.441406 L 31.914062 80.949219 C 31.636719 80.269531 31.21875 79.972656 30.660156 80.050781 L 30.242188 80.171875 "/>
<path style=" stroke:none;fill-rule:evenodd;fill:rgb(100%,100%,100%);fill-opacity:1;" d="M 31.019531 79.753906 L 30.363281 79.8125 L 31.914062 74.257812 C 33.1875 70.078125 34.0625 67.988281 34.539062 67.988281 C 35.414062 67.988281 35.851562 68.285156 35.851562 68.882812 C 35.851562 69.839844 35.195312 72.128906 33.882812 75.753906 L 32.332031 79.992188 L 31.019531 79.753906 "/>
<path style=" stroke:none;fill-rule:evenodd;fill:rgb(60.000002%,0%,0%);fill-opacity:1;" d="M 30.242188 80.171875 L 30.660156 80.050781 C 31.21875 79.972656 31.636719 80.269531 31.914062 80.949219 L 30.960938 82.441406 C 30.402344 82.28125 30.125 81.644531 30.125 80.53125 L 30.242188 80.171875 "/>
</g>
</svg>
