<?xml version="1.0" encoding="UTF-8"?>
<svg xmlns="http://www.w3.org/2000/svg" xmlns:xlink="http://www.w3.org/1999/xlink" width="77px" height="87px" viewBox="0 0 77 87" version="1.1">
<g id="surface1">
<path style=" stroke:none;fill-rule:evenodd;fill:rgb(3.137255%,6.27451%,7.058824%);fill-opacity:1;" d="M 13.71875 17.382812 L 25.761719 18.734375 C 30.472656 19.835938 33.734375 20.386719 35.554688 20.386719 C 37.691406 20.386719 41.707031 19.605469 47.597656 18.035156 L 51.929688 16.859375 L 53.921875 16.554688 L 59.207031 16.25 L 59.902344 16.03125 L 58.34375 13.898438 C 57.964844 12.851562 57.460938 12.140625 56.824219 11.761719 L 55.527344 11.195312 C 53.964844 9.949219 52.160156 8.871094 50.109375 7.972656 C 46.585938 6.433594 43.367188 5.664062 40.449219 5.664062 L 28.363281 5.792969 L 26.757812 6.054688 L 26.542969 6.054688 L 25.9375 6.230469 L 21.171875 7.320312 C 19.8125 7.667969 18.628906 8.148438 17.617188 8.757812 L 16.320312 9.585938 L 16.144531 9.800781 L 11.121094 13.59375 C 9.820312 14.492188 8.78125 15.769531 8 17.425781 L 10.511719 17.296875 L 13.71875 17.382812 M 58.90625 12.632812 L 61.203125 15.640625 L 65.535156 22.699219 L 65.96875 23.65625 L 66.097656 23.394531 L 67.050781 26.183594 C 66.933594 39.484375 65.953125 48.765625 64.105469 54.019531 C 63.410156 57.449219 62.660156 60.003906 61.851562 61.6875 C 61.128906 63.140625 60.015625 65.625 58.515625 69.136719 C 57.214844 71.316406 55.367188 73.464844 52.96875 75.585938 C 48.117188 79.882812 42.761719 82.035156 36.898438 82.035156 C 34.039062 82.035156 32.234375 81.832031 31.480469 81.421875 L 31.136719 81.421875 C 28.824219 81.421875 27.207031 81.117188 26.28125 80.507812 L 25.027344 79.289062 L 24.417969 78.898438 L 24.289062 78.898438 C 22.558594 78.867188 20.664062 77.75 18.613281 75.542969 L 15.410156 71.664062 L 8.78125 63.996094 C 6.789062 61.878906 5.488281 58.796875 4.882812 54.761719 L 4.492188 54.324219 C 4.492188 54.152344 4.59375 54.019531 4.792969 53.933594 C 4.59375 52.308594 4.492188 50.550781 4.492188 48.664062 L 4.835938 41.257812 L 4.535156 40.167969 C 4.535156 39.789062 4.648438 39.570312 4.882812 39.515625 L 5.359375 32.195312 L 5.445312 22.21875 C 5.789062 21.144531 6.210938 19.515625 6.699219 17.339844 C 7.394531 15.421875 8.679688 13.808594 10.554688 12.503906 C 12.058594 11.488281 14.035156 9.949219 16.492188 7.886719 C 19.351562 5.648438 25.75 4.53125 35.683594 4.53125 C 41.835938 4.5 46.789062 5.242188 50.542969 6.753906 C 53.546875 7.945312 56.191406 9.757812 58.472656 12.199219 L 58.90625 12.632812 M 10.859375 25.3125 L 14.457031 25.179688 C 17.316406 25.179688 20.652344 26.152344 24.464844 28.101562 C 28.332031 30.046875 30.933594 31.019531 32.261719 31.019531 L 39.800781 30.800781 C 40.464844 30.539062 42.328125 29.480469 45.386719 27.621094 C 45.707031 27.503906 46.71875 26.894531 48.421875 25.789062 C 50.644531 24.773438 53.402344 24.265625 56.695312 24.265625 C 60.738281 24.265625 63.511719 24.570312 65.015625 25.179688 L 64.625 23.570312 C 64.21875 22.609375 63.351562 21.171875 62.023438 19.257812 L 61.722656 19.605469 C 60.394531 20.882812 59.527344 21.128906 59.121094 20.34375 C 58.542969 19.328125 57.503906 19.199219 56.003906 19.953125 C 55.105469 20.15625 54.34375 20.402344 53.707031 20.695312 C 50.960938 21.476562 49.402344 21.972656 49.027344 22.175781 C 48.507812 22.464844 47.757812 22.683594 46.773438 22.828125 L 43.871094 23.570312 C 40.8125 24.441406 38.109375 24.875 35.769531 24.875 C 33.804688 24.875 30.613281 24.238281 26.195312 22.957031 C 21.777344 21.652344 17.097656 21 12.160156 21 L 11.769531 21.042969 L 7.003906 21.261719 L 6.875 21.261719 L 6.570312 23.308594 L 6.527344 26.3125 C 7.191406 25.789062 8.636719 25.457031 10.859375 25.3125 M 12.117188 19.777344 L 12.160156 19.777344 C 17.183594 19.777344 21.921875 20.445312 26.371094 21.78125 C 30.789062 23.089844 33.257812 23.742188 33.777344 23.742188 C 37.53125 23.742188 42.355469 22.871094 48.246094 21.128906 C 54.082031 19.359375 57.664062 18.484375 58.992188 18.515625 L 61.503906 18.429688 L 60.59375 17.207031 L 57.910156 17.730469 C 53.953125 17.992188 50.675781 18.457031 48.074219 19.125 C 42.789062 20.722656 39.164062 21.535156 37.199219 21.566406 L 25.328125 19.820312 L 19.480469 19.039062 L 12.765625 18.691406 L 9.082031 18.515625 L 7.652344 18.296875 L 7.089844 20.128906 L 12.117188 19.777344 M 10.167969 29.449219 L 13.71875 29.144531 C 18.601562 29.144531 22.773438 30.105469 26.238281 32.019531 C 29.734375 33.910156 33.300781 34.851562 36.941406 34.851562 L 41.792969 34.328125 L 46.253906 31.453125 C 49.144531 29.304688 52.667969 28.230469 56.824219 28.230469 C 59.714844 28.230469 62.097656 28.535156 63.972656 29.144531 L 65.445312 29.753906 L 65.402344 28.839844 L 65.445312 27.707031 L 65.402344 27.578125 L 65.273438 26.75 C 63.511719 25.847656 61.390625 25.414062 58.90625 25.441406 C 53.9375 25.441406 49.578125 26.574219 45.820312 28.839844 C 42.066406 31.078125 38.601562 32.195312 35.425781 32.195312 C 31.351562 32.164062 27.523438 31.191406 23.941406 29.277344 C 20.304688 27.328125 17.964844 26.355469 16.925781 26.355469 L 10.601562 26.574219 L 8.171875 27.011719 L 6.875 27.621094 L 6.527344 27.578125 L 6.527344 30.320312 L 8.78125 29.929688 L 10.167969 29.449219 M 55.527344 52.105469 L 57.691406 51.101562 C 59.597656 50.957031 61.128906 50.390625 62.285156 49.402344 L 64.277344 47.484375 L 64.40625 47.007812 L 64.277344 46.09375 L 65.535156 37.945312 L 65.492188 31.105469 C 62.429688 29.945312 60.335938 29.378906 59.207031 29.40625 C 54.644531 29.378906 50.472656 30.480469 46.6875 32.71875 C 42.875 34.894531 40.246094 36 38.804688 36.027344 C 33.605469 36.027344 29.214844 35.070312 25.632812 33.152344 C 22.082031 31.238281 18.832031 30.292969 15.886719 30.320312 L 9.992188 30.714844 L 9.472656 30.886719 C 8.636719 31.265625 7.753906 31.453125 6.832031 31.453125 L 6.527344 31.410156 L 6.527344 35.113281 C 6.554688 39.324219 6.339844 41.777344 5.878906 42.476562 L 5.574219 48.488281 L 5.789062 49.796875 C 7.148438 50.578125 8.117188 51.015625 8.695312 51.101562 L 9.90625 51.234375 C 13.460938 51.550781 15.234375 51.914062 15.234375 52.320312 C 15.234375 52.730469 14.527344 53.148438 13.113281 53.585938 L 9.648438 54.238281 L 7.265625 54.371094 L 5.921875 54.28125 L 5.921875 54.324219 L 6.179688 55.980469 L 6.179688 56.199219 C 6.210938 57.214844 6.671875 58.449219 7.566406 59.902344 L 9.992188 63.691406 C 10.917969 65.230469 13.214844 67.789062 16.882812 71.359375 C 18.875 73.742188 20.609375 75.484375 22.082031 76.585938 C 22.167969 76.414062 22.339844 76.328125 22.601562 76.328125 C 22.773438 76.328125 23.640625 76.996094 25.199219 78.332031 C 26.757812 79.636719 28.695312 80.289062 31.003906 80.289062 L 31.699219 80.289062 L 33.691406 80.683594 L 33.863281 80.683594 L 34.472656 80.902344 C 43.136719 80.902344 49.910156 77.792969 54.789062 71.578125 C 57.851562 67.6875 60.582031 61.644531 62.976562 53.453125 L 62.890625 53.542969 C 61.128906 54.414062 58.660156 54.847656 55.484375 54.847656 L 54.832031 54.847656 C 51.714844 54.820312 49.980469 54.515625 49.632812 53.933594 L 49.589844 53.714844 C 49.5625 53.367188 49.894531 53.164062 50.585938 53.105469 L 50.976562 53.0625 L 54.226562 52.539062 L 55.527344 52.105469 M 10.511719 57.375 L 10.554688 57.375 C 11.132812 57.347656 13.9375 56.039062 18.960938 53.453125 C 24.042969 50.8125 27.988281 49.503906 30.789062 49.535156 C 32.433594 49.503906 34.730469 50.289062 37.675781 51.886719 C 39.207031 52.699219 40.855469 53.65625 42.617188 54.761719 L 43.394531 55.152344 C 45.792969 56.433594 47.425781 57.203125 48.292969 57.460938 L 50.890625 58.507812 L 53.621094 59.683594 C 53.621094 60.121094 53.460938 60.339844 53.144531 60.339844 L 52.492188 60.121094 L 52.40625 60.207031 C 52.40625 60.699219 50.917969 60.949219 47.945312 60.949219 C 45.894531 60.949219 42.976562 59.714844 39.191406 57.246094 C 35.378906 54.746094 32.378906 53.511719 30.183594 53.542969 C 27.292969 53.511719 24.1875 54.558594 20.867188 56.679688 C 17.546875 58.796875 14.554688 59.859375 11.898438 59.859375 L 11.769531 59.816406 L 10.035156 59.25 C 8.96875 58.785156 8.449219 58.492188 8.476562 58.378906 C 8.476562 58.144531 8.59375 57.984375 8.824219 57.898438 L 8.78125 57.679688 C 8.75 57.304688 8.980469 57.113281 9.472656 57.113281 L 10.511719 57.375 M 55.007812 53.671875 L 60.203125 53.148438 C 61.390625 52.742188 62.023438 52.539062 62.109375 52.539062 L 63.367188 51.753906 L 63.886719 49.621094 C 63.195312 50.085938 62.226562 50.59375 60.984375 51.144531 C 58.183594 52.164062 56.191406 52.933594 55.007812 53.453125 L 54.53125 53.714844 L 55.007812 53.671875 M 48.292969 58.507812 L 42.3125 56.023438 C 36.101562 52.453125 32.722656 50.667969 32.175781 50.667969 C 30.066406 50.667969 27.4375 51.21875 24.289062 52.320312 C 21.921875 53.105469 20.21875 53.816406 19.179688 54.457031 C 14.5 57.15625 12 58.507812 11.683594 58.507812 L 11.078125 58.507812 L 12.375 58.683594 C 14.542969 58.683594 17.285156 57.636719 20.609375 55.546875 C 23.898438 53.398438 27.148438 52.320312 30.355469 52.320312 C 32.433594 52.292969 35.554688 53.542969 39.714844 56.070312 L 45.605469 59.597656 L 51.105469 59.597656 L 48.292969 58.507812 M 9.691406 53.0625 L 12.203125 52.625 L 9.734375 52.453125 L 7.609375 51.886719 L 5.921875 51.234375 L 5.964844 51.753906 L 6.050781 51.753906 L 5.964844 53.324219 L 6.09375 53.324219 L 9.691406 53.0625 "/>
<path style=" stroke:none;fill-rule:evenodd;fill:rgb(89.411765%,89.411765%,89.411765%);fill-opacity:1;" d="M 26.757812 6.054688 L 28.363281 5.792969 L 40.449219 5.664062 C 43.367188 5.664062 46.585938 6.433594 50.109375 7.972656 C 52.160156 8.871094 53.964844 9.949219 55.527344 11.195312 L 56.824219 11.761719 C 57.460938 12.140625 57.964844 12.851562 58.34375 13.898438 L 59.902344 16.03125 L 59.207031 16.25 L 53.921875 16.554688 L 51.929688 16.859375 L 47.597656 18.035156 C 41.707031 19.605469 37.691406 20.386719 35.554688 20.386719 C 33.734375 20.386719 30.472656 19.835938 25.761719 18.734375 L 13.71875 17.382812 L 14.671875 16.207031 C 15.742188 14.988281 16.363281 14.113281 16.535156 13.59375 L 16.578125 13.546875 L 21.34375 10.5 L 24.550781 8.714844 C 26.398438 7.582031 27.324219 6.867188 27.324219 6.578125 C 27.378906 6.257812 27.191406 6.085938 26.757812 6.054688 M 11.769531 21.042969 L 12.160156 21 C 17.097656 21 21.777344 21.652344 26.195312 22.957031 C 30.613281 24.238281 33.804688 24.875 35.769531 24.875 C 38.109375 24.875 40.8125 24.441406 43.871094 23.570312 L 46.773438 22.828125 C 47.757812 22.683594 48.507812 22.464844 49.027344 22.175781 C 49.402344 21.972656 50.960938 21.476562 53.707031 20.695312 C 54.34375 20.402344 55.105469 20.15625 56.003906 19.953125 C 57.503906 19.199219 58.542969 19.328125 59.121094 20.34375 C 59.527344 21.128906 60.394531 20.882812 61.722656 19.605469 L 62.023438 19.257812 C 63.351562 21.171875 64.21875 22.609375 64.625 23.570312 L 65.015625 25.179688 C 63.511719 24.570312 60.738281 24.265625 56.695312 24.265625 C 53.402344 24.265625 50.644531 24.773438 48.421875 25.789062 C 46.71875 26.894531 45.707031 27.503906 45.386719 27.621094 C 42.328125 29.480469 40.464844 30.539062 39.800781 30.800781 L 32.261719 31.019531 C 30.933594 31.019531 28.332031 30.046875 24.464844 28.101562 C 20.652344 26.152344 17.316406 25.179688 14.457031 25.179688 L 10.859375 25.3125 L 11.769531 21.042969 M 46.515625 43.21875 C 46.195312 42.546875 45.707031 42.214844 45.042969 42.214844 C 43.078125 42.214844 42.097656 43.070312 42.097656 44.785156 C 42.007812 45.105469 41.964844 45.511719 41.964844 46.003906 C 41.964844 46.265625 42.007812 46.484375 42.097656 46.660156 L 42.007812 47.269531 C 42.007812 47.792969 42.140625 48.3125 42.398438 48.835938 C 42.773438 49.882812 43.496094 50.40625 44.566406 50.40625 C 46.644531 50.40625 47.683594 49.605469 47.683594 48.007812 C 47.625 45.480469 47.238281 43.886719 46.515625 43.21875 M 9.992188 30.714844 L 15.886719 30.320312 C 18.832031 30.292969 22.082031 31.238281 25.632812 33.152344 C 29.214844 35.070312 33.605469 36.027344 38.804688 36.027344 C 40.246094 36 42.875 34.894531 46.6875 32.71875 C 50.472656 30.480469 54.644531 29.378906 59.207031 29.40625 C 60.335938 29.378906 62.429688 29.945312 65.492188 31.105469 L 65.535156 37.945312 L 64.277344 46.09375 L 64.40625 47.007812 L 64.277344 47.484375 L 62.285156 49.402344 C 61.128906 50.390625 59.597656 50.957031 57.691406 51.101562 L 55.527344 52.105469 L 55.742188 50.796875 C 55.859375 49.722656 55.671875 49.199219 55.179688 49.230469 C 54.574219 49.199219 53.792969 49.738281 52.839844 50.839844 L 51.367188 52.671875 L 50.976562 53.0625 L 50.585938 53.105469 C 49.894531 53.164062 49.5625 53.367188 49.589844 53.714844 L 49.632812 53.933594 L 48.59375 54.238281 L 43.394531 55.152344 L 42.617188 54.761719 C 40.855469 53.65625 39.207031 52.699219 37.675781 51.886719 C 34.730469 50.289062 32.433594 49.503906 30.789062 49.535156 C 27.988281 49.503906 24.042969 50.8125 18.960938 53.453125 C 13.9375 56.039062 11.132812 57.347656 10.554688 57.375 L 10.511719 57.375 L 10.511719 57.289062 L 9.648438 54.238281 L 13.113281 53.585938 C 14.527344 53.148438 15.234375 52.730469 15.234375 52.320312 C 15.234375 51.914062 13.460938 51.550781 9.90625 51.234375 L 9.90625 49.75 L 9.601562 40.863281 C 9.601562 36.769531 9.734375 33.386719 9.992188 30.714844 M 54.832031 54.847656 L 55.484375 54.847656 C 58.660156 54.847656 61.128906 54.414062 62.890625 53.542969 L 62.976562 53.453125 C 60.582031 61.644531 57.851562 67.6875 54.789062 71.578125 C 49.910156 77.792969 43.136719 80.902344 34.472656 80.902344 L 33.863281 80.683594 C 34.328125 80.625 34.570312 80.449219 34.601562 80.160156 C 34.570312 79.957031 32.753906 79.128906 29.140625 77.675781 L 25.675781 74.800781 C 22.09375 71.546875 19.683594 69.457031 18.441406 68.527344 C 15.957031 66.582031 13.863281 63.9375 12.160156 60.597656 L 11.769531 59.816406 L 11.898438 59.859375 C 14.554688 59.859375 17.546875 58.796875 20.867188 56.679688 C 24.1875 54.558594 27.292969 53.511719 30.183594 53.542969 C 32.378906 53.511719 35.378906 54.746094 39.191406 57.246094 C 42.976562 59.714844 45.894531 60.949219 47.945312 60.949219 C 50.917969 60.949219 52.40625 60.699219 52.40625 60.207031 L 52.492188 60.121094 L 53.144531 60.339844 C 53.460938 60.339844 53.621094 60.121094 53.621094 59.683594 L 50.890625 58.507812 L 51.019531 58.507812 L 54.183594 58.246094 C 54.414062 58.042969 54.628906 56.910156 54.832031 54.847656 M 28.96875 55.9375 C 28.941406 55.53125 28.695312 55.328125 28.230469 55.328125 C 27.65625 55.328125 26.992188 56.039062 26.238281 57.460938 C 26.238281 57.839844 26.484375 58.027344 26.976562 58.027344 L 28.96875 55.9375 M 28.707031 61.558594 C 30.730469 61.558594 32.246094 61.007812 33.257812 59.902344 C 33.921875 59.175781 34.269531 58.449219 34.296875 57.722656 C 34.269531 56.328125 33.199219 55.632812 31.089844 55.632812 C 30.28125 55.632812 29.488281 56.386719 28.707031 57.898438 C 28.277344 58.710938 27.667969 59.074219 26.890625 58.988281 C 26.28125 58.871094 25.980469 59.105469 25.980469 59.683594 C 25.980469 60.933594 26.890625 61.558594 28.707031 61.558594 M 15.710938 45.132812 L 15.710938 45.175781 L 15.667969 46.398438 L 15.625 46.613281 L 15.410156 47.921875 C 15.523438 49.054688 15.941406 49.722656 16.664062 49.925781 L 16.320312 50.054688 C 16.320312 50.433594 16.605469 50.621094 17.183594 50.621094 C 18.136719 50.621094 18.628906 50.054688 18.65625 48.925781 C 19.0625 48.632812 19.265625 48.050781 19.265625 47.179688 C 19.320312 46.457031 19.292969 45.730469 19.179688 45.003906 C 18.917969 43.550781 18.355469 42.824219 17.488281 42.824219 C 16.476562 42.824219 15.886719 43.59375 15.710938 45.132812 "/>
<path style=" stroke:none;fill-rule:evenodd;fill:rgb(67.450982%,65.098041%,69.803923%);fill-opacity:1;" d="M 26.757812 6.054688 C 27.191406 6.085938 27.378906 6.257812 27.324219 6.578125 C 27.324219 6.867188 26.398438 7.582031 24.550781 8.714844 L 21.34375 10.5 L 16.578125 13.546875 L 16.535156 13.59375 C 16.363281 14.113281 15.742188 14.988281 14.671875 16.207031 L 13.71875 17.382812 L 10.511719 17.296875 L 8 17.425781 C 8.78125 15.769531 9.820312 14.492188 11.121094 13.59375 L 16.144531 9.800781 L 16.320312 9.585938 L 17.617188 8.757812 C 18.628906 8.148438 19.8125 7.667969 21.171875 7.320312 L 25.9375 6.230469 L 26.542969 6.054688 L 26.757812 6.054688 M 11.769531 21.042969 L 10.859375 25.3125 C 8.636719 25.457031 7.191406 25.789062 6.527344 26.3125 L 6.570312 23.308594 L 6.875 21.261719 L 7.003906 21.261719 L 11.769531 21.042969 M 9.992188 30.714844 C 9.734375 33.386719 9.601562 36.769531 9.601562 40.863281 L 9.90625 49.75 L 9.90625 51.234375 L 8.695312 51.101562 C 8.117188 51.015625 7.148438 50.578125 5.789062 49.796875 L 5.574219 48.488281 L 5.878906 42.476562 C 6.339844 41.777344 6.554688 39.324219 6.527344 35.113281 L 6.527344 31.410156 L 6.832031 31.453125 C 7.753906 31.453125 8.636719 31.265625 9.472656 30.886719 L 9.992188 30.714844 M 9.648438 54.238281 L 10.511719 57.289062 L 10.511719 57.375 L 9.472656 57.113281 C 8.980469 57.113281 8.75 57.304688 8.78125 57.679688 L 8.824219 57.898438 C 8.59375 57.984375 8.476562 58.144531 8.476562 58.378906 C 8.449219 58.492188 8.96875 58.785156 10.035156 59.25 L 11.769531 59.816406 L 12.160156 60.597656 C 13.863281 63.9375 15.957031 66.582031 18.441406 68.527344 C 19.683594 69.457031 22.09375 71.546875 25.675781 74.800781 L 29.140625 77.675781 C 32.753906 79.128906 34.570312 79.957031 34.601562 80.160156 C 34.570312 80.449219 34.328125 80.625 33.863281 80.683594 L 33.691406 80.683594 L 31.699219 80.289062 L 31.003906 80.289062 C 28.695312 80.289062 26.757812 79.636719 25.199219 78.332031 C 23.640625 76.996094 22.773438 76.328125 22.601562 76.328125 C 22.339844 76.328125 22.167969 76.414062 22.082031 76.585938 C 20.609375 75.484375 18.875 73.742188 16.882812 71.359375 C 13.214844 67.789062 10.917969 65.230469 9.992188 63.691406 L 7.566406 59.902344 C 6.671875 58.449219 6.210938 57.214844 6.179688 56.199219 L 6.179688 55.980469 L 5.921875 54.324219 L 5.921875 54.28125 L 7.265625 54.371094 L 9.648438 54.238281 M 43.394531 55.152344 L 48.59375 54.238281 L 49.632812 53.933594 C 49.980469 54.515625 51.714844 54.820312 54.832031 54.847656 C 54.628906 56.910156 54.414062 58.042969 54.183594 58.246094 L 51.019531 58.507812 L 50.890625 58.507812 L 48.292969 57.460938 C 47.425781 57.203125 45.792969 56.433594 43.394531 55.152344 M 50.976562 53.0625 L 51.367188 52.671875 L 52.839844 50.839844 C 53.792969 49.738281 54.574219 49.199219 55.179688 49.230469 C 55.671875 49.199219 55.859375 49.722656 55.742188 50.796875 L 55.527344 52.105469 L 54.226562 52.539062 L 50.976562 53.0625 M 55.007812 53.453125 L 55.007812 53.671875 L 54.53125 53.714844 L 55.007812 53.453125 M 28.707031 61.558594 C 26.890625 61.558594 25.980469 60.933594 25.980469 59.683594 C 25.980469 59.105469 26.28125 58.871094 26.890625 58.988281 C 27.667969 59.074219 28.277344 58.710938 28.707031 57.898438 C 29.488281 56.386719 30.28125 55.632812 31.089844 55.632812 C 33.199219 55.632812 34.269531 56.328125 34.296875 57.722656 C 34.269531 58.449219 33.921875 59.175781 33.257812 59.902344 C 32.246094 61.007812 30.730469 61.558594 28.707031 61.558594 "/>
<path style=" stroke:none;fill-rule:evenodd;fill:rgb(0%,0%,0%);fill-opacity:1;" d="M 46.515625 43.21875 C 47.238281 43.886719 47.625 45.480469 47.683594 48.007812 C 47.683594 49.605469 46.644531 50.40625 44.566406 50.40625 C 43.496094 50.40625 42.773438 49.882812 42.398438 48.835938 C 42.140625 48.3125 42.007812 47.792969 42.007812 47.269531 L 42.097656 46.660156 C 42.007812 46.484375 41.964844 46.265625 41.964844 46.003906 C 41.964844 45.511719 42.007812 45.105469 42.097656 44.785156 C 42.097656 43.070312 43.078125 42.214844 45.042969 42.214844 C 45.707031 42.214844 46.195312 42.546875 46.515625 43.21875 M 28.96875 55.9375 L 26.976562 58.027344 C 26.484375 58.027344 26.238281 57.839844 26.238281 57.460938 C 26.992188 56.039062 27.65625 55.328125 28.230469 55.328125 C 28.695312 55.328125 28.941406 55.53125 28.96875 55.9375 M 15.710938 45.132812 C 15.886719 43.59375 16.476562 42.824219 17.488281 42.824219 C 18.355469 42.824219 18.917969 43.550781 19.179688 45.003906 C 19.292969 45.730469 19.320312 46.457031 19.265625 47.179688 C 19.265625 48.050781 19.0625 48.632812 18.65625 48.925781 C 18.628906 50.054688 18.136719 50.621094 17.183594 50.621094 C 16.605469 50.621094 16.320312 50.433594 16.320312 50.054688 L 16.664062 49.925781 C 15.941406 49.722656 15.523438 49.054688 15.410156 47.921875 L 15.625 46.613281 L 15.667969 46.398438 L 15.710938 45.175781 L 15.710938 45.132812 "/>
<path style=" stroke:none;fill-rule:evenodd;fill:rgb(10.588235%,41.960785%,51.764709%);fill-opacity:1;" d="M 12.765625 18.691406 L 19.480469 19.039062 L 25.328125 19.820312 L 37.199219 21.566406 C 39.164062 21.535156 42.789062 20.722656 48.074219 19.125 C 50.675781 18.457031 53.953125 17.992188 57.910156 17.730469 L 60.59375 17.207031 L 61.503906 18.429688 L 58.992188 18.515625 C 57.664062 18.484375 54.082031 19.359375 48.246094 21.128906 C 42.355469 22.871094 37.53125 23.742188 33.777344 23.742188 C 33.257812 23.742188 30.789062 23.089844 26.371094 21.78125 C 21.921875 20.445312 17.183594 19.777344 12.160156 19.777344 L 12.117188 19.777344 L 12.765625 18.691406 M 10.601562 26.574219 L 16.925781 26.355469 C 17.964844 26.355469 20.304688 27.328125 23.941406 29.277344 C 27.523438 31.191406 31.351562 32.164062 35.425781 32.195312 C 38.601562 32.195312 42.066406 31.078125 45.820312 28.839844 C 49.578125 26.574219 53.9375 25.441406 58.90625 25.441406 C 61.390625 25.414062 63.511719 25.847656 65.273438 26.75 L 65.402344 27.578125 L 65.445312 27.707031 L 65.402344 28.839844 L 65.445312 29.753906 L 63.972656 29.144531 C 62.097656 28.535156 59.714844 28.230469 56.824219 28.230469 C 52.667969 28.230469 49.144531 29.304688 46.253906 31.453125 L 41.792969 34.328125 L 36.941406 34.851562 C 33.300781 34.851562 29.734375 33.910156 26.238281 32.019531 C 22.773438 30.105469 18.601562 29.144531 13.71875 29.144531 L 10.167969 29.449219 L 10.511719 27.097656 L 10.601562 26.574219 M 55.007812 53.453125 C 56.191406 52.933594 58.183594 52.164062 60.984375 51.144531 C 62.226562 50.59375 63.195312 50.085938 63.886719 49.621094 L 63.367188 51.753906 L 62.109375 52.539062 C 62.023438 52.539062 61.390625 52.742188 60.203125 53.148438 L 55.007812 53.671875 L 55.007812 53.453125 M 48.292969 58.507812 L 51.105469 59.597656 L 45.605469 59.597656 L 39.714844 56.070312 C 35.554688 53.542969 32.433594 52.292969 30.355469 52.320312 C 27.148438 52.320312 23.898438 53.398438 20.609375 55.546875 C 17.285156 57.636719 14.542969 58.683594 12.375 58.683594 L 11.078125 58.507812 L 11.683594 58.507812 C 12 58.507812 14.5 57.15625 19.179688 54.457031 C 20.21875 53.816406 21.921875 53.105469 24.289062 52.320312 C 27.4375 51.21875 30.066406 50.667969 32.175781 50.667969 C 32.722656 50.667969 36.101562 52.453125 42.3125 56.023438 L 48.292969 58.507812 M 9.734375 52.453125 L 12.203125 52.625 L 9.691406 53.0625 L 9.734375 52.453125 "/>
<path style=" stroke:none;fill-rule:evenodd;fill:rgb(0%,17.647059%,29.803923%);fill-opacity:1;" d="M 12.765625 18.691406 L 12.117188 19.777344 L 7.089844 20.128906 L 7.652344 18.296875 L 9.082031 18.515625 L 12.765625 18.691406 M 10.601562 26.574219 L 10.511719 27.097656 L 10.167969 29.449219 L 8.78125 29.929688 L 6.527344 30.320312 L 6.527344 27.578125 L 6.875 27.621094 L 8.171875 27.011719 L 10.601562 26.574219 M 9.734375 52.453125 L 9.691406 53.0625 L 6.09375 53.324219 L 5.964844 53.324219 L 6.050781 51.753906 L 5.964844 51.753906 L 5.921875 51.234375 L 7.609375 51.886719 L 9.734375 52.453125 "/>
</g>
</svg>
