<?xml version="1.0" encoding="UTF-8"?>
<svg xmlns="http://www.w3.org/2000/svg" xmlns:xlink="http://www.w3.org/1999/xlink" width="77px" height="87px" viewBox="0 0 77 87" version="1.1">
<g id="surface1">
<path style=" stroke:none;fill-rule:evenodd;fill:rgb(0%,0%,0%);fill-opacity:1;" d="M 60.03125 24.964844 L 59.035156 20.605469 C 56.636719 12.53125 52.667969 7.015625 47.121094 4.050781 L 46.6875 4.09375 L 42.917969 3.660156 C 39.511719 4.242188 36.058594 5.460938 32.566406 7.320312 C 29.761719 9.496094 27.640625 10.976562 26.195312 11.761719 C 23.855469 13.011719 22.007812 14.59375 20.652344 16.511719 C 19.410156 18.660156 18.339844 20.285156 17.445312 21.390625 C 13.257812 26.558594 11.164062 33.007812 11.164062 40.734375 C 11.164062 43.898438 12.230469 46.601562 14.367188 48.835938 L 14.457031 48.835938 L 14.414062 48.574219 L 14.457031 47.878906 C 13.589844 46.976562 13.316406 44.4375 13.632812 40.253906 C 13.601562 34.476562 14.671875 29.898438 16.839844 26.53125 C 24.519531 18.632812 31.800781 14.679688 38.671875 14.679688 C 46.152344 14.679688 51.019531 19.546875 53.273438 29.277344 C 54.140625 33.109375 54.574219 39.628906 54.574219 48.835938 C 54.574219 52.613281 54.371094 55.226562 53.964844 56.679688 C 53.390625 58.769531 51.785156 61.847656 49.15625 65.914062 C 43.351562 74.742188 35.164062 79.316406 24.59375 79.636719 L 26.195312 80.335938 L 26.5 80.335938 L 29.921875 81.683594 L 28.839844 81.511719 C 28.839844 81.859375 28.882812 81.945312 28.96875 81.773438 L 30.269531 81.816406 C 32.519531 82.542969 34.671875 82.90625 36.722656 82.90625 C 41.34375 82.90625 45.085938 81.496094 47.945312 78.679688 C 48.753906 77.894531 49.921875 76.179688 51.453125 73.539062 C 51.769531 72.871094 53.027344 71.230469 55.222656 68.617188 C 57.011719 66.4375 58.066406 64.695312 58.386719 63.386719 L 61.503906 52.410156 C 62.226562 49.796875 62.601562 46.671875 62.632812 43.042969 L 62.585938 41.996094 L 62.5 41.996094 C 62.328125 41.996094 62.011719 40.023438 61.546875 36.070312 L 61.375 35.59375 L 61.417969 35.332031 L 61.246094 33.851562 L 60.464844 27.839844 L 60.464844 27.707031 L 60.335938 24.832031 L 60.03125 24.832031 L 60.03125 24.964844 M 59.773438 19.648438 C 61.332031 24.527344 62.140625 28.203125 62.199219 30.671875 L 62.632812 36.421875 C 63.265625 38.222656 63.585938 40.398438 63.585938 42.957031 C 63.585938 47.746094 63.410156 51.015625 63.0625 52.757812 C 62.6875 54.558594 61.402344 58.421875 59.207031 64.347656 C 58.574219 66.03125 56.03125 69.542969 51.582031 74.890625 C 50.773438 76.515625 49.621094 78.070312 48.117188 79.550781 C 45.144531 82.484375 41.664062 83.964844 37.675781 83.992188 L 29.835938 83.253906 L 29.488281 83.382812 C 28.246094 83.355469 25.804688 82.078125 22.167969 79.550781 C 21.675781 79.464844 21.472656 79.347656 21.558594 79.203125 C 17.75 76.472656 15.003906 74.0625 13.328125 71.96875 C 10.960938 68.949219 8.980469 64.664062 7.394531 59.117188 L 5.964844 52.933594 L 5.53125 52.367188 L 5.835938 52.015625 C 4.851562 46.46875 4.359375 40.238281 4.359375 33.328125 L 4.707031 26.792969 L 5.921875 20.257812 C 6.355469 14.972656 7.914062 10.863281 10.601562 7.929688 C 10.773438 6.941406 12.839844 5.519531 16.796875 3.660156 C 17.71875 2.699219 18.714844 1.960938 19.785156 1.4375 C 21.71875 0.449219 25.242188 -0.0273438 30.355469 0 C 38.875 -0.0273438 45.257812 1.320312 49.503906 4.050781 C 53.921875 6.898438 57.34375 12.097656 59.773438 19.648438 M 43.613281 2.613281 C 40.320312 1.597656 35.972656 1.089844 30.570312 1.089844 C 25.691406 1.089844 22.253906 1.566406 20.261719 2.527344 L 11.378906 8.496094 L 10.125 10.890625 L 10.167969 11.066406 L 7.871094 18.734375 L 7.785156 26.183594 C 7.753906 31.292969 8.074219 35.578125 8.738281 39.035156 C 9.371094 42.257812 9.890625 44.4375 10.296875 45.570312 C 10.441406 46.003906 10.742188 46.441406 11.207031 46.875 C 10.484375 44.785156 10.136719 42.765625 10.167969 40.820312 C 10.167969 33.878906 12.550781 26.792969 17.316406 19.5625 C 23.4375 10.296875 31.785156 4.808594 42.355469 3.09375 L 42.355469 3.050781 C 42.355469 2.789062 42.773438 2.644531 43.613281 2.613281 M 34.816406 41.5625 C 35.480469 43.769531 35.828125 46.457031 35.855469 49.621094 C 35.855469 51.683594 34.789062 54.007812 32.652344 56.589844 C 29.417969 60.511719 24.824219 62.472656 18.875 62.472656 C 15.640625 62.472656 11.769531 59.816406 7.265625 54.5 L 8.476562 58.945312 C 9.027344 60.832031 9.691406 62.632812 10.46875 64.347656 L 10.644531 64.347656 C 10.699219 64.316406 13.34375 65.957031 18.570312 69.269531 C 22.816406 69.269531 27.410156 68.253906 32.347656 66.21875 C 36.882812 64.332031 40.289062 62.253906 42.574219 59.988281 C 44.855469 57.664062 46.269531 55.632812 46.816406 53.890625 C 47.105469 52.933594 47.265625 51.015625 47.292969 48.140625 C 47.265625 43.261719 46.617188 38.65625 45.34375 34.328125 C 42.804688 25.789062 38.3125 21.519531 31.871094 21.519531 C 29.707031 21.519531 26.890625 23.421875 23.421875 27.226562 C 20.390625 30.539062 18.671875 32.949219 18.269531 34.460938 C 17.660156 36.636719 17.226562 38.714844 16.96875 40.691406 L 17.878906 39.515625 C 20.59375 36.171875 23.496094 34.503906 26.585938 34.503906 C 30.628906 34.503906 33.375 36.855469 34.816406 41.5625 M 50.066406 62.558594 C 52.40625 58.347656 53.578125 53.773438 53.578125 48.835938 C 53.808594 42.96875 53.445312 37.320312 52.492188 31.890625 C 50.644531 21.113281 46.847656 15.726562 41.097656 15.726562 C 32.519531 15.726562 25.792969 18.355469 20.910156 23.613281 C 16.664062 28.171875 14.554688 33.703125 14.585938 40.210938 L 15.191406 43.523438 L 15.710938 42.605469 C 15.886719 38.890625 16.578125 35.433594 17.792969 32.238281 C 18.6875 30.03125 20.417969 27.648438 22.988281 25.09375 C 26.109375 21.957031 29.042969 20.386719 31.785156 20.386719 C 38.804688 20.386719 43.65625 24.964844 46.339844 34.113281 C 47.699219 38.699219 48.347656 43.363281 48.292969 48.097656 C 48.292969 51.085938 48.117188 53.121094 47.769531 54.195312 C 47.136719 56.199219 45.546875 58.449219 43.003906 60.949219 C 34.542969 67.25 27.121094 70.402344 20.738281 70.402344 C 17.9375 70.402344 14.859375 69.109375 11.507812 66.523438 C 12.261719 68.09375 13.125 69.589844 14.109375 71.011719 L 13.847656 70.96875 C 13.503906 70.96875 13.429688 70.996094 13.632812 71.054688 C 14.152344 71.925781 14.789062 72.578125 15.539062 73.015625 C 17.386719 75.457031 19.132812 77.066406 20.78125 77.851562 L 23.207031 78.984375 C 28.058594 78.636719 32.277344 77.777344 35.855469 76.414062 C 37.734375 75.6875 39.4375 74.570312 40.96875 73.058594 L 48.203125 65.433594 L 49.417969 63.605469 L 50.457031 62.691406 L 50.066406 62.558594 M 16.75 42.824219 C 17.472656 42.128906 18.324219 41.777344 19.308594 41.777344 C 21.445312 41.777344 23.121094 42.808594 24.332031 44.871094 C 25.140625 46.265625 25.546875 47.5 25.546875 48.574219 L 25.546875 48.664062 C 25.632812 49.214844 25.675781 49.824219 25.675781 50.492188 C 25.675781 51.742188 24.941406 52.976562 23.464844 54.195312 C 21.472656 55.851562 18.730469 56.691406 15.234375 56.722656 C 13.070312 56.691406 10.078125 54.382812 6.265625 49.796875 L 6.832031 52.671875 L 10.816406 56.679688 C 13.847656 59.785156 15.796875 61.339844 16.664062 61.339844 C 23.164062 61.339844 28.089844 59.683594 31.4375 56.375 C 33.691406 54.078125 34.816406 51.828125 34.816406 49.621094 C 34.816406 40.269531 32.074219 35.59375 26.585938 35.59375 C 23.207031 35.59375 20.40625 37.203125 18.179688 40.429688 L 16.707031 42.738281 L 16.707031 42.867188 L 16.75 42.824219 M 24.117188 51.539062 C 22.847656 52.933594 21.199219 53.644531 19.179688 53.671875 C 17.53125 53.644531 16.320312 53.089844 15.539062 52.015625 C 14.355469 51.699219 13.359375 50.914062 12.550781 49.664062 C 11.566406 49.054688 10.742188 48.257812 10.078125 47.269531 C 9.039062 45.613281 8.21875 42.941406 7.609375 39.253906 C 7.03125 35.59375 6.742188 31.292969 6.742188 26.355469 L 6.832031 22.042969 C 6.628906 24.046875 6.324219 26.050781 5.921875 28.054688 C 5.515625 29.945312 5.3125 31.714844 5.3125 33.371094 C 5.3125 39.238281 5.429688 43.363281 5.660156 45.742188 L 5.921875 47.617188 L 6.050781 47.617188 C 10.671875 52.960938 13.371094 55.632812 14.152344 55.632812 C 17.675781 55.632812 20.464844 54.878906 22.511719 53.367188 C 23.324219 52.757812 23.898438 52.175781 24.246094 51.625 L 24.550781 51.015625 L 24.117188 51.539062 "/>
<path style=" stroke:none;fill-rule:evenodd;fill:rgb(91.764706%,43.529412%,7.058824%);fill-opacity:1;" d="M 14.367188 48.835938 C 12.230469 46.601562 11.164062 43.898438 11.164062 40.734375 C 11.164062 33.007812 13.257812 26.558594 17.445312 21.390625 C 18.339844 20.285156 19.410156 18.660156 20.652344 16.511719 C 22.007812 14.59375 23.855469 13.011719 26.195312 11.761719 C 27.640625 10.976562 29.761719 9.496094 32.566406 7.320312 C 36.058594 5.460938 39.511719 4.242188 42.917969 3.660156 L 46.6875 4.09375 L 47.121094 4.050781 C 52.667969 7.015625 56.636719 12.53125 59.035156 20.605469 L 60.03125 24.964844 C 60.089844 36.582031 59.035156 46.164062 56.867188 53.714844 C 56.089844 56.910156 55.425781 59.292969 54.875 60.859375 C 53.835938 63.53125 52.246094 65.957031 50.109375 68.136719 L 43.003906 75.28125 C 41.359375 77.199219 40.101562 78.359375 39.238281 78.765625 C 35.335938 80.652344 32.40625 81.625 30.441406 81.683594 L 29.921875 81.683594 L 26.5 80.335938 L 26.195312 80.335938 L 24.59375 79.636719 C 35.164062 79.316406 43.351562 74.742188 49.15625 65.914062 C 51.785156 61.847656 53.390625 58.769531 53.964844 56.679688 C 54.371094 55.226562 54.574219 52.613281 54.574219 48.835938 C 54.574219 39.628906 54.140625 33.109375 53.273438 29.277344 C 51.019531 19.546875 46.152344 14.679688 38.671875 14.679688 C 31.800781 14.679688 24.519531 18.632812 16.839844 26.53125 C 14.671875 29.898438 13.601562 34.476562 13.632812 40.253906 C 13.316406 44.4375 13.589844 46.976562 14.457031 47.878906 L 14.414062 48.574219 L 14.457031 48.835938 L 14.367188 48.835938 M 14.109375 71.011719 C 13.125 69.589844 12.261719 68.09375 11.507812 66.523438 C 14.859375 69.109375 17.9375 70.402344 20.738281 70.402344 C 27.121094 70.402344 34.542969 67.25 43.003906 60.949219 C 45.546875 58.449219 47.136719 56.199219 47.769531 54.195312 C 48.117188 53.121094 48.292969 51.085938 48.292969 48.097656 C 48.347656 43.363281 47.699219 38.699219 46.339844 34.113281 C 43.65625 24.964844 38.804688 20.386719 31.785156 20.386719 C 29.042969 20.386719 26.109375 21.957031 22.988281 25.09375 C 20.417969 27.648438 18.6875 30.03125 17.792969 32.238281 C 16.578125 35.433594 15.886719 38.890625 15.710938 42.605469 L 15.191406 43.523438 L 14.585938 40.210938 C 14.554688 33.703125 16.664062 28.171875 20.910156 23.613281 C 25.792969 18.355469 32.519531 15.726562 41.097656 15.726562 C 46.847656 15.726562 50.644531 21.113281 52.492188 31.890625 C 53.445312 37.320312 53.808594 42.96875 53.578125 48.835938 C 53.578125 53.773438 52.40625 58.347656 50.066406 62.558594 L 49.546875 62.472656 C 49.144531 62.472656 48.363281 63.097656 47.207031 64.347656 L 43.050781 68.355469 C 38.253906 72.273438 32.421875 74.234375 25.546875 74.234375 C 21.503906 74.234375 18.746094 73.871094 17.273438 73.144531 L 16.925781 72.972656 L 15.496094 71.882812 L 15.367188 71.753906 L 15.320312 71.753906 L 14.109375 71.011719 M 34.816406 41.5625 C 33.375 36.855469 30.628906 34.503906 26.585938 34.503906 C 23.496094 34.503906 20.59375 36.171875 17.878906 39.515625 L 16.96875 40.691406 C 17.226562 38.714844 17.660156 36.636719 18.269531 34.460938 C 18.671875 32.949219 20.390625 30.539062 23.421875 27.226562 C 26.890625 23.421875 29.707031 21.519531 31.871094 21.519531 C 38.3125 21.519531 42.804688 25.789062 45.34375 34.328125 C 46.617188 38.65625 47.265625 43.261719 47.292969 48.140625 C 47.265625 51.015625 47.105469 52.933594 46.816406 53.890625 C 46.269531 55.632812 44.855469 57.664062 42.574219 59.988281 C 40.289062 62.253906 36.882812 64.332031 32.347656 66.21875 C 27.410156 68.253906 22.816406 69.269531 18.570312 69.269531 C 13.34375 65.957031 10.699219 64.316406 10.644531 64.347656 L 10.46875 64.347656 C 9.691406 62.632812 9.027344 60.832031 8.476562 58.945312 L 7.265625 54.5 C 11.769531 59.816406 15.640625 62.472656 18.875 62.472656 C 24.824219 62.472656 29.417969 60.511719 32.652344 56.589844 C 34.789062 54.007812 35.855469 51.683594 35.855469 49.621094 C 35.828125 46.457031 35.480469 43.769531 34.816406 41.5625 M 43.613281 2.613281 C 42.773438 2.644531 42.355469 2.789062 42.355469 3.050781 L 42.355469 3.09375 C 31.785156 4.808594 23.4375 10.296875 17.316406 19.5625 C 12.550781 26.792969 10.167969 33.878906 10.167969 40.820312 C 10.136719 42.765625 10.484375 44.785156 11.207031 46.875 C 10.742188 46.441406 10.441406 46.003906 10.296875 45.570312 C 9.890625 44.4375 9.371094 42.257812 8.738281 39.035156 C 8.074219 35.578125 7.753906 31.292969 7.785156 26.183594 L 7.871094 18.734375 L 10.167969 11.066406 L 10.125 10.890625 L 11.378906 8.496094 L 20.261719 2.527344 C 22.253906 1.566406 25.691406 1.089844 30.570312 1.089844 C 35.972656 1.089844 40.320312 1.597656 43.613281 2.613281 M 16.707031 42.738281 L 18.179688 40.429688 C 20.40625 37.203125 23.207031 35.59375 26.585938 35.59375 C 32.074219 35.59375 34.816406 40.269531 34.816406 49.621094 C 34.816406 51.828125 33.691406 54.078125 31.4375 56.375 C 28.089844 59.683594 23.164062 61.339844 16.664062 61.339844 C 15.796875 61.339844 13.847656 59.785156 10.816406 56.679688 L 6.832031 52.671875 L 6.265625 49.796875 C 10.078125 54.382812 13.070312 56.691406 15.234375 56.722656 C 18.730469 56.691406 21.472656 55.851562 23.464844 54.195312 C 24.941406 52.976562 25.675781 51.742188 25.675781 50.492188 C 25.675781 49.824219 25.632812 49.214844 25.546875 48.664062 L 25.546875 48.574219 C 25.546875 47.5 25.140625 46.265625 24.332031 44.871094 C 23.121094 42.808594 21.445312 41.777344 19.308594 41.777344 C 18.324219 41.777344 17.472656 42.128906 16.75 42.824219 L 16.707031 42.738281 M 24.246094 51.625 C 23.898438 52.175781 23.324219 52.757812 22.511719 53.367188 C 20.464844 54.878906 17.675781 55.632812 14.152344 55.632812 C 13.371094 55.632812 10.671875 52.960938 6.050781 47.617188 L 5.921875 47.617188 L 5.660156 45.742188 C 5.429688 43.363281 5.3125 39.238281 5.3125 33.371094 C 5.3125 31.714844 5.515625 29.945312 5.921875 28.054688 C 6.324219 26.050781 6.628906 24.046875 6.832031 22.042969 L 6.742188 26.355469 C 6.742188 31.292969 7.03125 35.59375 7.609375 39.253906 C 8.21875 42.941406 9.039062 45.613281 10.078125 47.269531 C 10.742188 48.257812 11.566406 49.054688 12.550781 49.664062 C 13.359375 50.914062 14.355469 51.699219 15.539062 52.015625 C 16.320312 53.089844 17.53125 53.644531 19.179688 53.671875 C 21.199219 53.644531 22.847656 52.933594 24.117188 51.539062 L 24.246094 51.625 "/>
<path style=" stroke:none;fill-rule:evenodd;fill:rgb(53.333336%,16.078432%,0%);fill-opacity:1;" d="M 29.921875 81.683594 L 30.441406 81.683594 C 32.40625 81.625 35.335938 80.652344 39.238281 78.765625 C 40.101562 78.359375 41.359375 77.199219 43.003906 75.28125 L 50.109375 68.136719 C 52.246094 65.957031 53.835938 63.53125 54.875 60.859375 C 55.425781 59.292969 56.089844 56.910156 56.867188 53.714844 C 59.035156 46.164062 60.089844 36.582031 60.03125 24.964844 L 60.03125 24.832031 L 60.335938 24.832031 L 60.464844 27.707031 L 60.464844 27.839844 L 61.246094 33.851562 L 61.417969 35.332031 L 61.375 35.59375 L 61.546875 36.070312 C 62.011719 40.023438 62.328125 41.996094 62.5 41.996094 L 62.585938 41.996094 L 62.632812 43.042969 C 62.601562 46.671875 62.226562 49.796875 61.503906 52.410156 L 58.386719 63.386719 C 58.066406 64.695312 57.011719 66.4375 55.222656 68.617188 C 53.027344 71.230469 51.769531 72.871094 51.453125 73.539062 C 49.921875 76.179688 48.753906 77.894531 47.945312 78.679688 C 45.085938 81.496094 41.34375 82.90625 36.722656 82.90625 C 34.671875 82.90625 32.519531 82.542969 30.269531 81.816406 L 28.96875 81.773438 C 28.882812 81.945312 28.839844 81.859375 28.839844 81.511719 L 29.921875 81.683594 M 14.109375 71.011719 L 15.320312 71.753906 L 15.367188 71.753906 L 15.496094 71.882812 L 16.925781 72.972656 L 17.273438 73.144531 C 18.746094 73.871094 21.503906 74.234375 25.546875 74.234375 C 32.421875 74.234375 38.253906 72.273438 43.050781 68.355469 L 47.207031 64.347656 C 48.363281 63.097656 49.144531 62.472656 49.546875 62.472656 L 50.066406 62.558594 L 50.457031 62.691406 L 49.417969 63.605469 L 48.203125 65.433594 L 40.96875 73.058594 C 39.4375 74.570312 37.734375 75.6875 35.855469 76.414062 C 32.277344 77.777344 28.058594 78.636719 23.207031 78.984375 L 20.78125 77.851562 C 19.132812 77.066406 17.386719 75.457031 15.539062 73.015625 C 14.789062 72.578125 14.152344 71.925781 13.632812 71.054688 C 13.429688 70.996094 13.503906 70.96875 13.847656 70.96875 L 14.109375 71.011719 "/>
</g>
</svg>
