<?xml version="1.0" encoding="UTF-8"?>
<svg xmlns="http://www.w3.org/2000/svg" xmlns:xlink="http://www.w3.org/1999/xlink" width="175px" height="366px" viewBox="0 0 175 366" version="1.1">
<g id="surface1">
<path style=" stroke:none;fill-rule:evenodd;fill:rgb(0%,0%,0%);fill-opacity:1;" d="M 92.53125 38.136719 L 92.707031 38.09375 L 92.617188 37.871094 L 92.398438 37.960938 L 92.3125 37.828125 L 92.179688 37.871094 L 92.050781 37.871094 L 92.179688 38.046875 C 88.390625 39.511719 85.371094 40.417969 83.125 40.769531 C 80.472656 41.207031 78.296875 41.707031 76.605469 42.261719 L 73.28125 43.402344 L 73.28125 43.359375 L 71.136719 43.710938 L 66.761719 44.804688 L 62.605469 45.332031 L 62.167969 45.640625 L 41.519531 45.683594 L 19.773438 45.378906 C 20.242188 46.136719 20.546875 47.894531 20.695312 50.644531 L 20.78125 50.863281 L 20.824219 51.390625 C 20.824219 51.535156 20.78125 51.683594 20.695312 51.828125 L 20.738281 52.574219 L 20.386719 52.3125 L 19.46875 53.101562 L 16.625 55.121094 L 16.449219 55.296875 L 16.582031 55.339844 C 17.601562 55.542969 18.347656 55.925781 18.8125 56.480469 L 18.855469 56.523438 L 18.898438 56.613281 L 18.855469 56.4375 L 19.074219 56.214844 L 22.574219 56.347656 L 22.398438 55.820312 C 22.632812 55.558594 23.128906 55.425781 23.886719 55.425781 L 30.320312 56.039062 L 43.007812 56.65625 L 56.742188 55.777344 C 58.261719 55.457031 59.527344 55.089844 60.550781 54.679688 L 67.550781 53.804688 L 71.007812 53.011719 L 71.398438 53.101562 L 73.894531 52.53125 L 74.550781 51.609375 L 74.679688 51.566406 L 74.726562 51.566406 C 74.929688 51.300781 75.542969 51.054688 76.5625 50.820312 L 76.476562 50.90625 L 76.5625 51.039062 L 79.757812 50.203125 L 80.28125 50.117188 L 80.148438 50.117188 L 81.113281 49.898438 L 83.167969 49.765625 L 84.21875 49.722656 L 84.21875 49.851562 L 84.960938 49.722656 L 85.179688 49.546875 L 88.417969 48.84375 C 90.257812 48.464844 91.464844 48.082031 92.050781 47.703125 C 93.214844 46.941406 94.574219 46.253906 96.117188 45.640625 L 99.792969 43.839844 L 99.882812 43.796875 L 99.925781 43.796875 L 100.054688 43.753906 L 100.011719 43.753906 L 100.492188 43.535156 L 100.144531 43.402344 L 99.664062 43.621094 C 97.621094 42.917969 96.003906 41.996094 94.804688 40.855469 L 92.53125 38.136719 M 95.507812 38.882812 L 95.332031 38.96875 L 95.417969 38.96875 L 98.832031 41.515625 L 101.851562 42.875 C 102.460938 43.199219 102.769531 43.5625 102.769531 43.972656 C 102.769531 44.558594 102.578125 44.96875 102.199219 45.203125 C 101.527344 45.582031 101.019531 45.992188 100.667969 46.429688 L 101.019531 46.648438 L 101.105469 46.5625 C 101.398438 46.328125 101.542969 46.402344 101.542969 46.78125 L 101.542969 46.867188 L 103.335938 47.484375 C 103.980469 47.628906 104.300781 47.980469 104.300781 48.535156 C 104.300781 49.035156 104.007812 49.398438 103.425781 49.632812 C 102.839844 49.898438 102.550781 50.21875 102.550781 50.597656 C 105.175781 56.890625 106.488281 60.824219 106.488281 62.40625 L 106.488281 62.800781 L 108.980469 69.777344 C 110.207031 73.492188 111.636719 78.511719 113.269531 84.828125 C 115.515625 93.460938 116.679688 99.339844 116.769531 102.472656 C 117.292969 103.4375 117.746094 105.074219 118.125 107.386719 L 119.394531 117.214844 L 122.457031 133.015625 C 122.457031 133.484375 122.222656 133.746094 121.757812 133.804688 L 120.355469 136.480469 C 119.191406 138.675781 118.578125 140.710938 118.519531 142.582031 L 118.5625 147.058594 C 118.503906 148.929688 118.199219 150.511719 117.644531 151.796875 C 117.089844 153.113281 115.921875 156.875 114.144531 163.078125 C 113.296875 166 112.597656 168.035156 112.042969 169.175781 L 113.882812 171.328125 C 115.515625 173.460938 116.769531 174.835938 117.644531 175.453125 L 123.636719 178.039062 C 127.078125 179.503906 128.800781 180.484375 128.800781 180.980469 L 128.757812 181.375 C 129.078125 182.515625 129.164062 184.359375 129.019531 186.90625 C 129.019531 188.835938 128.871094 190.136719 128.582031 190.8125 L 128.582031 190.941406 L 128.449219 191.03125 L 128.011719 191.292969 C 119.261719 196.558594 107.113281 199.195312 91.570312 199.195312 C 88.449219 199.195312 86.480469 198.972656 85.664062 198.535156 L 85.574219 198.535156 C 84.378906 198.535156 81.753906 192.523438 77.699219 180.5 L 74.945312 172.292969 L 74.507812 174.398438 C 73.863281 177.910156 73.542969 181.421875 73.542969 184.929688 C 73.542969 186.714844 73.953125 189.859375 74.769531 194.367188 L 74.550781 196.429688 L 74.332031 196.957031 L 73.9375 197.21875 C 72.332031 198.125 67.519531 198.679688 59.5 198.886719 L 51.320312 198.972656 L 45.542969 198.929688 L 29.007812 198.667969 C 28.859375 198.871094 28.613281 198.972656 28.261719 198.972656 C 27.007812 198.972656 25.871094 197.65625 24.851562 195.023438 L 23.101562 188.96875 L 20.605469 179.09375 L 19.511719 172.597656 L 16.582031 172.644531 C 9.816406 172.644531 5.863281 169.03125 4.726562 161.804688 C 4.375 159.582031 4.242188 156.523438 4.332031 152.632812 C 4.417969 148.476562 4.402344 145.886719 4.289062 144.863281 C 2.683594 131.667969 1.882812 122.191406 1.882812 116.425781 C 1.503906 114.085938 1.503906 112.054688 1.882812 110.328125 C 2.582031 107.019531 4.8125 105.367188 8.574219 105.367188 L 15.3125 105.9375 L 15.882812 100.804688 C 15.296875 94.628906 15.007812 88.835938 15.007812 83.425781 C 15.007812 78.832031 15.355469 75.085938 16.054688 72.191406 C 15.792969 71.488281 15.445312 70.773438 15.007812 70.039062 C 14.277344 68.78125 13.914062 67.90625 13.914062 67.40625 C 13.914062 67.144531 14.277344 66.75 15.007812 66.222656 C 15.734375 65.695312 16.101562 65.242188 16.101562 64.863281 C 16.101562 64.101562 15.882812 63.339844 15.445312 62.578125 C 15.445312 62.230469 16.203125 60.839844 17.71875 58.410156 C 17.71875 57.621094 17.164062 57.109375 16.054688 56.875 C 14.917969 56.613281 14.351562 56.15625 14.351562 55.515625 C 14.351562 55.164062 15.777344 53.816406 18.636719 51.476562 L 18.289062 46.429688 L 18.507812 45.246094 L 18.289062 44.675781 C 18.289062 44.175781 19.164062 43.929688 20.914062 43.929688 C 48.125 44.28125 61.847656 44.191406 62.082031 43.664062 L 63.789062 43.488281 L 66.894531 42.832031 L 76.300781 40.59375 C 77.992188 40.242188 83.417969 38.75 92.574219 36.117188 C 93.507812 36.117188 93.988281 36.351562 94.019531 36.820312 L 95.507812 38.882812 M 110.820312 195.507812 L 110.949219 195.289062 L 111.386719 195.550781 L 111.605469 195.417969 L 111.605469 195.113281 L 117.425781 193.796875 C 118.210938 193.648438 121.507812 192.421875 127.3125 190.109375 L 127.355469 187.039062 C 127.355469 185.605469 127.210938 184.300781 126.917969 183.132812 L 126.613281 181.816406 C 123.347656 181.40625 119.800781 179.546875 115.980469 176.242188 C 112.539062 173.285156 110.660156 171.164062 110.335938 169.878906 L 110.292969 169.527344 L 110.292969 169.308594 C 110.292969 168.460938 112.191406 162.214844 115.980469 150.570312 C 116.417969 149.195312 116.679688 147.597656 116.769531 145.785156 L 116.855469 141.132812 C 116.945312 139.757812 117.441406 137.945312 118.34375 135.691406 C 119.21875 133.585938 120.035156 132.371094 120.792969 132.050781 C 119.714844 128.21875 117.671875 118.285156 114.667969 102.25 C 114.667969 101.929688 114.769531 101.695312 114.976562 101.550781 L 114.230469 97.292969 L 112.699219 87.242188 C 112.144531 84.902344 110.425781 79.375 107.539062 70.65625 L 105.351562 64.554688 C 104.707031 64.554688 104.386719 64.175781 104.386719 63.414062 L 104.5625 62.449219 L 104.257812 61.703125 L 104.605469 61.613281 C 104.371094 59.480469 103.132812 55.660156 100.886719 50.160156 C 100.886719 49.75 101.179688 49.238281 101.761719 48.625 L 100.101562 48.140625 C 99.691406 48.316406 99.296875 48.40625 98.917969 48.40625 L 98.042969 48.40625 L 99.269531 47.835938 C 99.035156 47.6875 98.875 47.511719 98.789062 47.308594 C 98.058594 47.746094 97.371094 47.964844 96.730469 47.964844 C 95.769531 48.550781 95.113281 48.84375 94.761719 48.84375 L 93.710938 48.800781 C 93.214844 49.152344 92.109375 49.574219 90.386719 50.074219 C 88.199219 50.6875 86.261719 51.054688 84.570312 51.167969 L 79.230469 52.136719 L 74.199219 53.453125 L 73.414062 53.453125 L 71.792969 53.40625 L 71.925781 53.890625 C 58.625 56.902344 49.027344 58.410156 43.136719 58.410156 L 32.375 57.972656 C 27.621094 57.648438 24.542969 57.285156 23.144531 56.875 L 19.074219 56.832031 C 19.367188 57.328125 19.511719 57.914062 19.511719 58.585938 C 19.511719 58.996094 19.175781 59.710938 18.507812 60.738281 L 17.5 62.667969 L 17.980469 65.871094 C 17.980469 66.777344 17.425781 67.347656 16.320312 67.582031 C 17.046875 68.988281 17.542969 70.15625 17.804688 71.09375 L 18.199219 71.003906 L 17.9375 71.839844 L 17.980469 72.324219 C 17.980469 73.199219 17.804688 73.742188 17.457031 73.945312 C 16.929688 76.519531 16.667969 79.710938 16.667969 83.511719 C 16.667969 89.101562 16.960938 94.921875 17.542969 100.980469 C 17.542969 102.414062 17.398438 104.460938 17.105469 107.121094 C 16.960938 108.554688 16.785156 109.726562 16.582031 110.632812 L 16.582031 110.675781 L 16.667969 110.632812 L 17.105469 110.722656 L 28.261719 111.949219 L 41.605469 112.082031 L 41.695312 112.082031 L 41.695312 112.167969 L 42 112.167969 L 42.042969 112.082031 L 61.117188 112.390625 L 61.554688 110.765625 C 62.199219 109.039062 63.714844 106.550781 66.105469 103.304688 C 68.46875 100.058594 70.074219 97.644531 70.917969 96.0625 L 71.882812 92.113281 C 72.320312 90.183594 72.871094 89.21875 73.542969 89.21875 L 74.15625 89.480469 L 73.894531 89.65625 C 73.953125 89.773438 74.097656 89.847656 74.332031 89.875 L 74.332031 90.445312 C 74.332031 92.875 73.703125 95.1875 72.449219 97.378906 L 68.335938 102.996094 C 65.769531 106.15625 64.019531 109.300781 63.085938 112.433594 C 63.4375 112.519531 63.613281 112.796875 63.613281 113.265625 L 63.742188 113.707031 L 63.175781 113.925781 L 62.695312 113.96875 C 62.429688 115.199219 62.300781 116.425781 62.300781 117.65625 C 62.300781 118.855469 62.386719 119.980469 62.5625 121.035156 C 62.765625 121.152344 62.824219 121.339844 62.738281 121.605469 L 62.695312 121.78125 L 62.957031 123.054688 L 63.613281 126.039062 L 63.613281 126.214844 C 64.050781 126.855469 64.503906 128.21875 64.96875 130.292969 L 64.925781 130.292969 C 64.925781 130.675781 64.953125 130.777344 65.011719 130.601562 L 65.449219 132.839844 C 66.558594 139.101562 67.289062 142.773438 67.636719 143.855469 L 70.789062 152.808594 C 72.101562 156.550781 73.019531 159.535156 73.542969 161.757812 C 74.566406 166.03125 77.027344 173.199219 80.9375 183.261719 L 86.230469 197.085938 L 91.613281 197.4375 L 104.78125 196.558594 L 110.511719 195.332031 L 110.730469 195.550781 L 110.773438 195.550781 L 110.820312 195.507812 M 80.105469 49.941406 L 79.757812 49.984375 L 79.582031 49.984375 L 80.105469 49.941406 M 48.605469 93.167969 L 50.664062 96.460938 L 53.199219 101.285156 C 53.519531 101.929688 54.660156 103.421875 56.613281 105.761719 C 58.363281 107.898438 59.238281 109.15625 59.238281 109.535156 C 59.238281 110.0625 58.929688 110.328125 58.320312 110.328125 C 56.160156 110.328125 52.632812 104.871094 47.730469 93.957031 C 47.730469 93.429688 48.023438 93.167969 48.605469 93.167969 M 42.480469 118.183594 L 42.917969 118.09375 C 46.652344 117.566406 49.175781 116.9375 50.488281 116.207031 C 51.246094 115.828125 53.316406 115.210938 56.699219 114.363281 L 57.664062 114.058594 L 54.730469 114.058594 L 42.917969 113.96875 L 42.875 113.488281 L 42.480469 113.488281 L 42.480469 113.96875 L 24.195312 113.046875 L 17.542969 112.34375 C 17.515625 114.101562 17.324219 116.382812 16.976562 119.191406 L 18.113281 118.972656 L 29.882812 119.5 L 30.582031 119.453125 L 42.480469 118.183594 M 60.945312 120.726562 C 60.738281 119.617188 60.636719 118.578125 60.636719 117.613281 L 60.8125 114.363281 L 58.625 115.503906 C 56.496094 116.5 54.6875 117.113281 53.199219 117.347656 C 49.320312 118.578125 45.746094 119.484375 42.480469 120.070312 L 40.25 120.421875 L 40.554688 120.464844 L 42.480469 120.683594 L 53.113281 122.132812 L 57.050781 121.691406 C 58.859375 121.050781 60.128906 120.726562 60.855469 120.726562 L 60.945312 120.726562 M 44.757812 140.34375 L 44.757812 140.476562 L 45.0625 140.476562 L 45.0625 140.300781 C 50.050781 139.949219 53.957031 139.394531 56.789062 138.632812 C 60.609375 137.636719 63.027344 137.097656 64.050781 137.007812 C 63.027344 133.03125 62.429688 130 62.257812 127.925781 L 62.039062 127.835938 C 61.890625 125.964844 61.644531 124.136719 61.292969 122.351562 C 58.785156 123.082031 53.113281 124.09375 44.273438 125.378906 L 44.1875 124.675781 L 43.792969 124.675781 L 43.792969 125.421875 L 34.914062 126.652344 C 33.863281 126.796875 31.792969 127.382812 28.699219 128.40625 C 25.140625 129.3125 20.925781 129.796875 16.054688 129.855469 L 16.011719 133.804688 L 16.320312 142.625 L 18.507812 142.667969 L 32.417969 141.878906 C 32.535156 141.675781 32.753906 141.574219 33.074219 141.574219 L 34.039062 141.703125 L 44.320312 140.34375 L 44.757812 140.34375 M 46.550781 150.875 L 59.195312 152.324219 L 69.125 153.90625 L 66.195312 144.511719 L 46.988281 145.433594 L 45.675781 145.433594 C 41.535156 145.347656 38.148438 144.90625 35.523438 144.117188 C 34.417969 143.796875 33.601562 143.488281 33.074219 143.195312 L 21.613281 144.335938 L 16.40625 144.117188 L 16.449219 145.566406 L 16.667969 145.523438 L 41.039062 150.128906 L 46.550781 150.875 M 51.886719 197.21875 L 59.5 197.175781 L 69.695312 196.867188 L 70.042969 196.558594 L 71.269531 196.210938 L 73.0625 195.683594 L 73.105469 194.496094 C 72.230469 189.671875 71.792969 186.527344 71.792969 185.0625 C 71.882812 182.253906 72.054688 179.460938 72.320312 176.679688 C 72.726562 172.613281 73.253906 170.039062 73.894531 168.957031 L 72.011719 162.550781 L 70.042969 156.714844 L 65.144531 158.03125 C 60.214844 159.054688 54.25 159.609375 47.25 159.695312 L 45.675781 159.695312 C 31.296875 159.753906 22.632812 159.347656 19.6875 158.46875 L 19.25 158.601562 C 19.601562 159.769531 19.964844 161.980469 20.34375 165.226562 C 21.132812 171.957031 21.714844 176.140625 22.09375 177.777344 L 24.542969 188.003906 C 25.183594 191.046875 26.484375 194.042969 28.4375 197 L 29.96875 197.085938 L 51.011719 197.21875 L 51.710938 197.21875 L 51.757812 197.304688 L 51.800781 197.261719 L 51.800781 197.21875 L 51.886719 197.21875 M 45.28125 143.722656 L 65.320312 143.109375 L 65.757812 143.152344 L 64.488281 138.542969 C 62.269531 139.421875 56.058594 140.488281 45.851562 141.75 L 45.632812 141.75 L 45.324219 141.703125 L 45.28125 141.792969 L 37.144531 142.757812 C 38.953125 143.429688 41.050781 143.765625 43.445312 143.765625 L 45.28125 143.722656 M 47.117188 157.941406 C 56.160156 157.941406 61.234375 157.824219 62.34375 157.589844 C 62.695312 157.503906 62.941406 157.328125 63.085938 157.0625 C 63.261719 156.769531 63.730469 156.507812 64.488281 156.273438 L 67.289062 155.441406 L 54.292969 153.773438 L 46.679688 152.632812 L 37.230469 151.226562 C 25.710938 149.707031 18.8125 148.390625 16.539062 147.277344 L 16.886719 151.886719 C 16.917969 153.789062 17.441406 155.292969 18.460938 156.40625 L 18.898438 156.84375 L 19.511719 156.714844 L 45.585938 157.941406 L 47.117188 157.941406 M 15.355469 112.960938 C 14.628906 112.960938 14.363281 112.273438 14.570312 110.898438 L 15.007812 107.914062 L 12.601562 107.519531 L 8.75 107.121094 C 7.613281 107.121094 6.648438 107.285156 5.863281 107.605469 L 5.6875 107.5625 L 5.292969 107.5625 L 5.292969 107.78125 L 5.335938 107.824219 C 4.402344 108.324219 3.804688 109.113281 3.542969 110.195312 C 3.253906 111.394531 3.253906 113.5 3.542969 116.515625 C 3.542969 118.738281 3.660156 121.457031 3.894531 124.675781 L 3.894531 124.722656 L 4.070312 124.632812 C 4.945312 124.253906 5.527344 123.609375 5.820312 122.703125 L 6.605469 119.410156 C 6.546875 118.183594 6.78125 117.085938 7.304688 116.121094 C 7.597656 115.5625 8.007812 115.082031 8.53125 114.671875 L 8.664062 115.023438 L 8.707031 115.023438 L 9.101562 114.804688 L 9.011719 114.363281 C 10.179688 113.632812 11.785156 113.265625 13.824219 113.265625 L 15.355469 113.355469 L 15.53125 113.355469 L 15.617188 112.914062 L 15.355469 112.960938 M 43.050781 122.484375 L 29.3125 121.691406 L 18.636719 121.035156 C 17.734375 120.886719 17.121094 120.683594 16.800781 120.421875 L 16.449219 122.789062 L 16.101562 128.230469 L 16.929688 128.144531 C 20.023438 128.085938 23.214844 127.589844 26.511719 126.652344 L 33.949219 125.203125 L 43.050781 123.800781 L 43.007812 124.019531 L 43.3125 124.019531 L 43.398438 123.753906 L 48.738281 122.964844 L 43.050781 122.484375 M 15.445312 172.074219 L 17.675781 172.117188 L 19.425781 171.765625 L 18.855469 167.859375 L 17.851562 159.214844 L 17.851562 158.117188 C 16.363281 156.769531 15.339844 152.835938 14.789062 146.3125 L 14.351562 133.804688 L 14.4375 129.503906 L 14.351562 129.109375 L 14.480469 128.800781 C 14.628906 122.542969 14.890625 117.902344 15.269531 114.890625 L 10.980469 115.460938 C 10.457031 115.636719 9.859375 116.121094 9.1875 116.910156 L 8.664062 118.488281 L 7.699219 117.347656 L 7.480469 117.566406 L 8.445312 119.148438 L 8.136719 120.199219 L 7.699219 123.929688 C 7.261719 125.6875 6.140625 126.5625 4.332031 126.5625 L 4.023438 126.5625 L 4.023438 126.609375 C 4.433594 131.582031 5.074219 137.621094 5.949219 144.730469 C 6.269531 149.0625 6.269531 153.714844 5.949219 158.6875 C 5.832031 160.5 6.371094 162.871094 7.570312 165.796875 C 8.066406 167.085938 8.910156 168.226562 10.105469 169.21875 C 11.738281 170.652344 13.371094 171.574219 15.007812 171.984375 L 15.136719 172.292969 L 15.269531 172.25 L 15.445312 172.074219 "/>
<path style=" stroke:none;fill-rule:evenodd;fill:rgb(67.843139%,47.843137%,50.588238%);fill-opacity:1;" d="M 92.179688 38.046875 L 92.050781 37.871094 L 92.179688 37.871094 L 92.3125 37.828125 L 92.398438 37.960938 L 92.617188 37.871094 L 92.707031 38.09375 L 92.53125 38.136719 L 92.179688 38.046875 M 99.664062 43.621094 L 100.144531 43.402344 L 100.492188 43.535156 L 100.011719 43.753906 L 100.054688 43.753906 L 99.925781 43.796875 L 99.882812 43.796875 L 99.792969 43.839844 L 99.664062 43.621094 M 80.148438 50.117188 L 80.28125 50.117188 L 79.757812 50.203125 L 79.757812 49.984375 L 80.105469 49.941406 L 80.148438 50.117188 M 110.511719 195.332031 L 110.820312 195.507812 L 110.773438 195.550781 L 110.511719 195.332031 M 15.007812 171.984375 L 15.445312 172.074219 L 15.269531 172.25 L 15.007812 171.984375 "/>
<path style=" stroke:none;fill-rule:evenodd;fill:rgb(20%,34.509805%,36.862746%);fill-opacity:1;" d="M 18.855469 56.4375 L 18.898438 56.613281 L 18.855469 56.523438 L 18.8125 56.480469 L 18.855469 56.4375 M 81.769531 55.644531 L 81.8125 55.644531 L 81.769531 55.867188 L 81.769531 55.644531 M 41.605469 111.6875 L 41.695312 112.082031 L 41.605469 112.082031 L 41.605469 111.6875 M 74.332031 89.875 L 74.417969 89.875 L 74.417969 90.183594 L 74.460938 90.402344 L 74.332031 90.445312 L 74.332031 89.875 M 90.039062 129.503906 L 89.949219 129.195312 L 92.226562 135.867188 L 91.085938 132.621094 L 90.167969 129.855469 L 90.039062 129.503906 M 51.800781 197.21875 L 51.886719 197.085938 L 51.886719 197.21875 L 51.800781 197.21875 "/>
<path style=" stroke:none;fill-rule:evenodd;fill:rgb(3.529412%,17.254902%,19.607843%);fill-opacity:1;" d="M 16.582031 55.339844 L 16.449219 55.296875 L 16.625 55.121094 L 16.582031 55.339844 M 64.96875 130.292969 L 65.011719 130.601562 C 64.953125 130.777344 64.925781 130.675781 64.925781 130.292969 L 64.96875 130.292969 M 89.949219 129.546875 L 90.039062 129.503906 L 90.167969 129.855469 L 91.085938 132.621094 L 91.042969 132.621094 L 90.082031 129.855469 L 89.949219 129.546875 M 96.949219 151.839844 L 97.386719 151.710938 L 96.949219 151.886719 L 96.949219 151.839844 M 110.773438 195.550781 L 110.730469 195.550781 L 110.511719 195.332031 L 110.773438 195.550781 M 47.25 159.785156 L 46.855469 160.003906 L 46.855469 159.785156 L 47.25 159.785156 M 51.710938 197.21875 L 51.800781 197.261719 L 51.757812 197.304688 L 51.710938 197.21875 "/>
<path style=" stroke:none;fill-rule:evenodd;fill:rgb(75.294119%,76.47059%,73.725492%);fill-opacity:1;" d="M 42.480469 113.96875 L 42.480469 113.488281 L 42.875 113.488281 L 42.917969 113.96875 L 54.730469 114.058594 L 57.664062 114.058594 L 56.699219 114.363281 C 53.316406 115.210938 51.246094 115.828125 50.488281 116.207031 C 49.175781 116.9375 46.652344 117.566406 42.917969 118.09375 L 42.480469 118.183594 L 42.480469 113.96875 M 42.480469 120.070312 C 45.746094 119.484375 49.320312 118.578125 53.199219 117.347656 C 54.6875 117.113281 56.496094 116.5 58.625 115.503906 L 60.8125 114.363281 L 60.636719 117.613281 C 60.636719 118.578125 60.738281 119.617188 60.945312 120.726562 L 60.855469 120.726562 C 60.128906 120.726562 58.859375 121.050781 57.050781 121.691406 L 53.113281 122.132812 L 42.480469 120.683594 L 42.480469 120.070312 M 45.675781 145.433594 L 46.988281 145.433594 L 66.195312 144.511719 L 69.125 153.90625 L 59.195312 152.324219 L 46.550781 150.875 L 46.417969 148.242188 L 45.675781 145.433594 M 45.851562 141.75 C 56.058594 140.488281 62.269531 139.421875 64.488281 138.542969 L 65.757812 143.152344 L 65.320312 143.109375 L 45.28125 143.722656 L 45.105469 142.144531 L 45.105469 142.011719 L 45.148438 142.011719 L 45.28125 141.835938 L 45.28125 141.792969 L 45.324219 141.703125 L 45.632812 141.75 L 45.851562 141.792969 L 45.851562 141.75 M 46.679688 152.632812 L 54.292969 153.773438 L 67.289062 155.441406 L 64.488281 156.273438 C 63.730469 156.507812 63.261719 156.769531 63.085938 157.0625 C 62.941406 157.328125 62.695312 157.503906 62.34375 157.589844 C 61.234375 157.824219 56.160156 157.941406 47.117188 157.941406 L 47.074219 157.808594 L 46.855469 154.386719 L 46.679688 152.632812 M 43.050781 123.800781 L 43.050781 122.484375 L 48.738281 122.964844 L 43.398438 123.753906 L 43.3125 124.019531 L 43.007812 124.019531 L 43.050781 123.800781 "/>
<path style=" stroke:none;fill-rule:evenodd;fill:rgb(5.882353%,9.411765%,7.450981%);fill-opacity:1;" d="M 44.273438 125.378906 L 43.792969 125.378906 L 43.792969 124.675781 L 44.1875 124.675781 L 44.273438 125.378906 M 8.53125 114.671875 L 8.707031 115.023438 L 8.664062 115.023438 L 8.53125 114.671875 M 15.355469 113.355469 L 15.355469 112.960938 L 15.617188 112.914062 L 15.53125 113.355469 L 15.355469 113.355469 M 15.269531 172.25 L 15.136719 172.292969 L 15.007812 171.984375 L 15.269531 172.25 "/>
<path style=" stroke:none;fill-rule:evenodd;fill:rgb(92.54902%,94.901961%,93.333334%);fill-opacity:1;" d="M 42.480469 113.96875 L 42.480469 118.183594 L 30.582031 119.453125 L 29.882812 119.5 L 18.113281 118.972656 L 16.976562 119.191406 C 17.324219 116.382812 17.515625 114.101562 17.542969 112.34375 L 24.195312 113.046875 L 42.480469 113.96875 M 42.480469 120.070312 L 42.480469 120.683594 L 40.554688 120.464844 L 40.25 120.421875 L 42.480469 120.070312 M 45.675781 145.433594 L 46.417969 148.242188 L 46.550781 150.875 L 41.039062 150.128906 L 16.667969 145.523438 L 16.449219 145.566406 L 16.40625 144.117188 L 21.613281 144.335938 L 33.074219 143.195312 C 33.601562 143.488281 34.417969 143.796875 35.523438 144.117188 C 38.148438 144.90625 41.535156 145.347656 45.675781 145.433594 M 45.851562 141.75 L 45.851562 141.792969 L 45.632812 141.75 L 45.851562 141.75 M 45.28125 141.792969 L 45.28125 141.835938 L 45.148438 142.011719 L 45.105469 142.011719 L 45.105469 142.144531 L 45.28125 143.722656 L 43.445312 143.765625 C 41.050781 143.765625 38.953125 143.429688 37.144531 142.757812 L 45.28125 141.792969 M 46.679688 152.632812 L 46.855469 154.386719 L 47.074219 157.808594 L 47.117188 157.941406 L 45.585938 157.941406 L 19.511719 156.714844 L 18.898438 156.84375 L 18.460938 156.40625 C 17.441406 155.292969 16.917969 153.789062 16.886719 151.886719 L 16.539062 147.277344 C 18.8125 148.390625 25.710938 149.707031 37.230469 151.226562 L 46.679688 152.632812 M 43.050781 123.800781 L 33.949219 125.203125 L 26.511719 126.652344 C 23.214844 127.589844 20.023438 128.085938 16.929688 128.144531 L 16.101562 128.230469 L 16.449219 122.789062 L 16.800781 120.421875 C 17.121094 120.683594 17.734375 120.886719 18.636719 121.035156 L 29.3125 121.691406 L 43.050781 122.484375 L 43.050781 123.800781 "/>
<path style=" stroke:none;fill-rule:evenodd;fill:rgb(14.901961%,22.745098%,25.490198%);fill-opacity:1;" d="M 15.445312 172.074219 L 15.445312 171.984375 L 15.445312 172.074219 M 4.023438 126.609375 L 4.023438 126.5625 L 4.332031 126.5625 L 4.023438 126.609375 "/>
<path style=" stroke:none;fill-rule:evenodd;fill:rgb(37.64706%,34.117648%,56.470591%);fill-opacity:1;" d="M 74.679688 51.566406 L 74.550781 51.609375 L 73.894531 52.53125 L 71.398438 53.101562 L 71.007812 53.011719 L 67.550781 53.804688 L 60.550781 54.679688 C 59.527344 55.089844 58.261719 55.457031 56.742188 55.777344 L 43.007812 56.65625 L 30.320312 56.039062 L 23.886719 55.425781 C 23.128906 55.425781 22.632812 55.558594 22.398438 55.820312 L 22.574219 56.347656 L 19.074219 56.214844 L 18.855469 56.4375 L 18.8125 56.480469 C 18.347656 55.925781 17.601562 55.542969 16.582031 55.339844 L 16.625 55.121094 L 19.46875 53.101562 L 20.386719 52.3125 L 20.738281 52.574219 L 20.695312 51.828125 C 20.78125 51.683594 20.824219 51.535156 20.824219 51.390625 L 20.78125 50.863281 L 20.695312 50.644531 C 20.546875 47.894531 20.242188 46.136719 19.773438 45.378906 L 41.519531 45.683594 L 62.167969 45.640625 L 62.605469 45.332031 L 66.761719 44.804688 L 71.136719 43.710938 L 73.28125 43.359375 L 73.28125 43.621094 L 74.199219 43.753906 L 74.417969 43.664062 C 75.089844 43.78125 75.425781 43.929688 75.425781 44.105469 C 74.257812 45.304688 73.675781 46.226562 73.675781 46.867188 C 73.675781 47.042969 73.9375 47.25 74.460938 47.484375 L 75.207031 48.140625 C 75.207031 48.492188 74.929688 48.933594 74.375 49.457031 C 73.792969 50.015625 73.484375 50.496094 73.457031 50.90625 L 74.507812 51.214844 L 74.242188 51.433594 C 74.300781 51.519531 74.449219 51.566406 74.679688 51.566406 M 73.414062 53.453125 L 73.019531 54.328125 C 73.019531 55.121094 75.933594 55.558594 81.769531 55.644531 L 81.769531 55.867188 C 81.769531 56.097656 82.25 57.3125 83.210938 59.507812 C 84.144531 61.703125 84.613281 63.75 84.613281 65.652344 C 84.613281 69.570312 82.425781 74.136719 78.050781 79.34375 L 71.488281 86.015625 C 71.488281 86.335938 71.734375 86.714844 72.230469 87.15625 C 70.191406 89.027344 68.660156 89.964844 67.636719 89.964844 C 67.230469 89.964844 66.746094 89.640625 66.195312 89 L 65.011719 87.8125 L 60.855469 92.816406 C 60.15625 92.816406 57.339844 91.367188 52.414062 88.472656 C 47.660156 85.691406 44.128906 84.304688 41.824219 84.304688 L 41.605469 84.304688 L 41.605469 88.429688 L 42.917969 95.273438 C 41.316406 94.863281 38.761719 93.839844 35.261719 92.203125 L 35.042969 92.507812 L 42.261719 106.464844 C 42.261719 107.578125 42.042969 109.300781 41.605469 111.644531 L 41.605469 112.082031 L 28.261719 111.949219 L 17.105469 110.722656 L 16.667969 110.632812 L 16.582031 110.632812 C 16.785156 109.726562 16.960938 108.554688 17.105469 107.121094 C 17.398438 104.460938 17.542969 102.414062 17.542969 100.980469 C 16.960938 94.921875 16.667969 89.101562 16.667969 83.511719 C 16.667969 79.710938 16.929688 76.519531 17.457031 73.945312 C 17.804688 73.742188 17.980469 73.199219 17.980469 72.324219 L 17.9375 71.839844 L 18.199219 71.003906 L 17.804688 71.09375 C 17.542969 70.15625 17.046875 68.988281 16.320312 67.582031 C 17.425781 67.347656 17.980469 66.777344 17.980469 65.871094 L 17.5 62.667969 L 18.507812 60.738281 C 19.175781 59.710938 19.511719 58.996094 19.511719 58.585938 C 19.511719 57.914062 19.367188 57.328125 19.074219 56.832031 L 23.144531 56.875 C 24.542969 57.285156 27.621094 57.648438 32.375 57.972656 L 43.136719 58.410156 C 49.027344 58.410156 58.625 56.902344 71.925781 53.890625 L 71.792969 53.40625 L 73.414062 53.453125 M 65.011719 130.601562 L 65.539062 130.601562 L 65.625 130.382812 L 65.757812 130.601562 L 65.886719 130.382812 L 65.757812 129.988281 L 65.886719 129.417969 C 65.886719 128.714844 65.699219 128.230469 65.320312 127.96875 C 65.113281 126.738281 65.011719 125.363281 65.011719 123.84375 C 65.011719 122.554688 65.304688 119.761719 65.886719 115.460938 C 66.089844 114.085938 66.964844 112.300781 68.511719 110.105469 C 70 108.058594 70.992188 107.035156 71.488281 107.035156 C 72.273438 107.035156 73.265625 107.429688 74.460938 108.21875 C 74.8125 108.21875 74.945312 108.148438 74.855469 108 L 75.074219 105.804688 C 74.492188 103.847656 74.199219 102.238281 74.199219 100.980469 C 74.199219 100.042969 75.308594 98.8125 77.523438 97.292969 C 80.355469 103.933594 82.789062 110.398438 84.832031 116.691406 L 89.949219 129.546875 L 90.082031 129.855469 L 91.042969 132.621094 L 92.136719 136.570312 C 92.894531 139.4375 93.582031 141.585938 94.195312 143.019531 L 94.980469 144.90625 L 96.949219 151.839844 L 96.949219 151.886719 L 97.386719 151.710938 L 98.742188 156.230469 L 102.332031 169.351562 C 103.148438 172.21875 103.789062 176.621094 104.257812 182.5625 C 105.101562 187.738281 107.1875 191.996094 110.511719 195.332031 L 104.78125 196.558594 L 91.613281 197.4375 L 86.230469 197.085938 L 80.9375 183.261719 C 77.027344 173.199219 74.566406 166.03125 73.542969 161.757812 C 73.019531 159.535156 72.101562 156.550781 70.789062 152.808594 L 67.636719 143.855469 C 67.289062 142.773438 66.558594 139.101562 65.449219 132.839844 L 65.011719 130.601562 M 43.792969 125.421875 L 43.792969 126.433594 C 44.464844 128.21875 44.800781 130.558594 44.800781 133.453125 L 44.757812 140.34375 L 44.320312 140.34375 L 34.039062 141.703125 L 33.074219 141.574219 C 32.753906 141.574219 32.535156 141.675781 32.417969 141.878906 L 18.507812 142.667969 L 16.320312 142.625 L 16.011719 133.804688 L 16.054688 129.855469 C 20.925781 129.796875 25.140625 129.3125 28.699219 128.40625 C 31.792969 127.382812 33.863281 126.796875 34.914062 126.652344 L 43.792969 125.421875 M 47.25 159.695312 L 47.25 159.785156 L 46.855469 159.785156 L 46.855469 160.003906 C 46.855469 162.695312 47.484375 168.914062 48.738281 178.65625 C 48.824219 180.5 49.132812 183.117188 49.65625 186.511719 L 49.917969 188.089844 C 50.269531 192.097656 50.867188 195.140625 51.710938 197.21875 L 51.011719 197.21875 L 29.96875 197.085938 L 28.4375 197 C 26.484375 194.042969 25.183594 191.046875 24.542969 188.003906 L 22.09375 177.777344 C 21.714844 176.140625 21.132812 171.957031 20.34375 165.226562 C 19.964844 161.980469 19.601562 159.769531 19.25 158.601562 L 19.6875 158.46875 C 22.632812 159.347656 31.296875 159.753906 45.675781 159.695312 L 47.25 159.695312 M 5.335938 107.824219 C 6.210938 108.90625 7.277344 111.191406 8.53125 114.671875 C 8.007812 115.082031 7.597656 115.5625 7.304688 116.121094 C 6.78125 117.085938 6.546875 118.183594 6.605469 119.410156 L 5.820312 122.703125 C 5.527344 123.609375 4.945312 124.253906 4.070312 124.632812 L 3.894531 124.675781 C 3.660156 121.457031 3.542969 118.738281 3.542969 116.515625 C 3.253906 113.5 3.253906 111.394531 3.542969 110.195312 C 3.804688 109.113281 4.402344 108.324219 5.335938 107.824219 M 8.445312 119.148438 L 8.925781 119.804688 C 9.625 123.433594 10.0625 127.660156 10.238281 132.488281 C 10.324219 135.445312 10.367188 139.890625 10.367188 145.828125 C 10.484375 156.714844 12.03125 165.429688 15.007812 171.984375 C 13.371094 171.574219 11.738281 170.652344 10.105469 169.21875 C 8.910156 168.226562 8.066406 167.085938 7.570312 165.796875 C 6.371094 162.871094 5.832031 160.5 5.949219 158.6875 C 6.269531 153.714844 6.269531 149.0625 5.949219 144.730469 C 5.074219 137.621094 4.433594 131.582031 4.023438 126.609375 L 4.332031 126.5625 C 6.140625 126.5625 7.261719 125.6875 7.699219 123.929688 L 8.136719 120.199219 L 8.445312 119.148438 "/>
<path style=" stroke:none;fill-rule:evenodd;fill:rgb(31.764707%,25.490198%,40.000001%);fill-opacity:1;" d="M 92.179688 38.046875 L 92.53125 38.136719 L 94.804688 40.855469 C 96.003906 41.996094 97.621094 42.917969 99.664062 43.621094 L 99.792969 43.839844 L 96.117188 45.640625 C 94.574219 46.253906 93.214844 46.941406 92.050781 47.703125 C 91.464844 48.082031 90.257812 48.464844 88.417969 48.84375 L 85.179688 49.546875 L 84.960938 49.722656 L 84.21875 49.851562 L 84.21875 49.722656 L 83.167969 49.765625 L 81.113281 49.898438 L 80.148438 50.117188 L 80.105469 49.941406 L 79.582031 49.984375 L 79.757812 49.984375 L 79.757812 50.203125 L 76.5625 51.039062 L 76.476562 50.90625 L 76.5625 50.820312 C 75.542969 51.054688 74.929688 51.300781 74.726562 51.566406 L 74.679688 51.566406 C 74.449219 51.566406 74.300781 51.519531 74.242188 51.433594 L 74.507812 51.214844 L 73.457031 50.90625 C 73.484375 50.496094 73.792969 50.015625 74.375 49.457031 C 74.929688 48.933594 75.207031 48.492188 75.207031 48.140625 L 74.460938 47.484375 C 73.9375 47.25 73.675781 47.042969 73.675781 46.867188 C 73.675781 46.226562 74.257812 45.304688 75.425781 44.105469 C 75.425781 43.929688 75.089844 43.78125 74.417969 43.664062 L 74.199219 43.753906 L 73.28125 43.621094 L 73.28125 43.402344 L 76.605469 42.261719 C 78.296875 41.707031 80.472656 41.207031 83.125 40.769531 C 85.371094 40.417969 88.390625 39.511719 92.179688 38.046875 M 73.414062 53.453125 L 74.199219 53.453125 L 79.230469 52.136719 L 84.570312 51.167969 C 86.261719 51.054688 88.199219 50.6875 90.386719 50.074219 C 92.109375 49.574219 93.214844 49.152344 93.710938 48.800781 L 94.761719 48.84375 C 95.113281 48.84375 95.769531 48.550781 96.730469 47.964844 C 97.371094 47.964844 98.058594 47.746094 98.789062 47.308594 C 98.875 47.511719 99.035156 47.6875 99.269531 47.835938 L 98.042969 48.40625 L 98.917969 48.40625 C 99.296875 48.40625 99.691406 48.316406 100.101562 48.140625 L 101.761719 48.625 C 101.179688 49.238281 100.886719 49.75 100.886719 50.160156 C 103.132812 55.660156 104.371094 59.480469 104.605469 61.613281 L 104.257812 61.703125 L 104.5625 62.449219 L 104.386719 63.414062 C 104.386719 64.175781 104.707031 64.554688 105.351562 64.554688 L 107.539062 70.65625 C 110.425781 79.375 112.144531 84.902344 112.699219 87.242188 L 114.230469 97.292969 L 114.976562 101.550781 C 114.769531 101.695312 114.667969 101.929688 114.667969 102.25 C 117.671875 118.285156 119.714844 128.21875 120.792969 132.050781 C 120.035156 132.371094 119.21875 133.585938 118.34375 135.691406 C 117.441406 137.945312 116.945312 139.757812 116.855469 141.132812 L 116.769531 145.785156 C 116.679688 147.597656 116.417969 149.195312 115.980469 150.570312 C 112.191406 162.214844 110.292969 168.460938 110.292969 169.308594 L 110.292969 169.527344 L 110.335938 169.878906 C 110.660156 171.164062 112.539062 173.285156 115.980469 176.242188 C 119.800781 179.546875 123.347656 181.40625 126.613281 181.816406 L 126.917969 183.132812 C 127.210938 184.300781 127.355469 185.605469 127.355469 187.039062 L 127.3125 190.109375 C 121.507812 192.421875 118.210938 193.648438 117.425781 193.796875 L 111.605469 195.113281 L 111.605469 195.417969 L 111.386719 195.550781 L 110.949219 195.289062 L 110.820312 195.507812 L 110.511719 195.332031 C 107.1875 191.996094 105.101562 187.738281 104.257812 182.5625 C 103.789062 176.621094 103.148438 172.21875 102.332031 169.351562 L 98.742188 156.230469 L 97.386719 151.710938 L 96.949219 151.839844 L 94.980469 144.90625 L 94.195312 143.019531 C 93.582031 141.585938 92.894531 139.4375 92.136719 136.570312 L 91.042969 132.621094 L 91.085938 132.621094 L 92.226562 135.867188 L 89.949219 129.195312 L 90.039062 129.503906 L 89.949219 129.546875 L 84.832031 116.691406 C 82.789062 110.398438 80.355469 103.933594 77.523438 97.292969 C 75.308594 98.8125 74.199219 100.042969 74.199219 100.980469 C 74.199219 102.238281 74.492188 103.847656 75.074219 105.804688 L 74.855469 108 C 74.945312 108.148438 74.8125 108.21875 74.460938 108.21875 C 73.265625 107.429688 72.273438 107.035156 71.488281 107.035156 C 70.992188 107.035156 70 108.058594 68.511719 110.105469 C 66.964844 112.300781 66.089844 114.085938 65.886719 115.460938 C 65.304688 119.761719 65.011719 122.554688 65.011719 123.84375 C 65.011719 125.363281 65.113281 126.738281 65.320312 127.96875 C 65.699219 128.230469 65.886719 128.714844 65.886719 129.417969 L 65.757812 129.988281 L 65.886719 130.382812 L 65.757812 130.601562 L 65.625 130.382812 L 65.539062 130.601562 L 65.011719 130.601562 L 64.96875 130.292969 C 64.503906 128.21875 64.050781 126.855469 63.613281 126.214844 L 63.613281 126.039062 L 62.957031 123.054688 L 62.695312 121.78125 L 62.738281 121.605469 C 62.824219 121.339844 62.765625 121.152344 62.5625 121.035156 C 62.386719 119.980469 62.300781 118.855469 62.300781 117.65625 C 62.300781 116.425781 62.429688 115.199219 62.695312 113.96875 L 63.175781 113.925781 L 63.742188 113.707031 L 63.613281 113.265625 C 63.613281 112.796875 63.4375 112.519531 63.085938 112.433594 C 64.019531 109.300781 65.769531 106.15625 68.335938 102.996094 L 72.449219 97.378906 C 73.703125 95.1875 74.332031 92.875 74.332031 90.445312 L 74.460938 90.402344 L 74.417969 90.183594 L 74.417969 89.875 L 74.332031 89.875 C 74.097656 89.847656 73.953125 89.773438 73.894531 89.65625 L 74.15625 89.480469 L 73.542969 89.21875 C 72.871094 89.21875 72.320312 90.183594 71.882812 92.113281 L 70.917969 96.0625 C 70.074219 97.644531 68.46875 100.058594 66.105469 103.304688 C 63.714844 106.550781 62.199219 109.039062 61.554688 110.765625 L 61.117188 112.390625 L 42.042969 112.082031 L 42 112.167969 L 41.695312 112.167969 L 41.695312 112.082031 L 41.605469 111.6875 L 41.605469 111.644531 C 42.042969 109.300781 42.261719 107.578125 42.261719 106.464844 L 35.042969 92.507812 L 35.261719 92.203125 C 38.761719 93.839844 41.316406 94.863281 42.917969 95.273438 L 41.605469 88.429688 L 41.605469 84.304688 L 41.824219 84.304688 C 44.128906 84.304688 47.660156 85.691406 52.414062 88.472656 C 57.339844 91.367188 60.15625 92.816406 60.855469 92.816406 L 65.011719 87.8125 L 66.195312 89 C 66.746094 89.640625 67.230469 89.964844 67.636719 89.964844 C 68.660156 89.964844 70.191406 89.027344 72.230469 87.15625 C 71.734375 86.714844 71.488281 86.335938 71.488281 86.015625 L 78.050781 79.34375 C 82.425781 74.136719 84.613281 69.570312 84.613281 65.652344 C 84.613281 63.75 84.144531 61.703125 83.210938 59.507812 C 82.25 57.3125 81.769531 56.097656 81.769531 55.867188 L 81.8125 55.644531 L 81.769531 55.644531 C 75.933594 55.558594 73.019531 55.121094 73.019531 54.328125 L 73.414062 53.453125 M 48.605469 93.167969 C 48.023438 93.167969 47.730469 93.429688 47.730469 93.957031 C 52.632812 104.871094 56.160156 110.328125 58.320312 110.328125 C 58.929688 110.328125 59.238281 110.0625 59.238281 109.535156 C 59.238281 109.15625 58.363281 107.898438 56.613281 105.761719 C 54.660156 103.421875 53.519531 101.929688 53.199219 101.285156 L 50.664062 96.460938 L 48.605469 93.167969 M 44.273438 125.378906 C 53.113281 124.09375 58.785156 123.082031 61.292969 122.351562 C 61.644531 124.136719 61.890625 125.964844 62.039062 127.835938 L 62.257812 127.925781 C 62.429688 130 63.027344 133.03125 64.050781 137.007812 C 63.027344 137.097656 60.609375 137.636719 56.789062 138.632812 C 53.957031 139.394531 50.050781 139.949219 45.0625 140.300781 L 45.0625 140.476562 L 44.757812 140.476562 L 44.757812 140.34375 L 44.800781 133.453125 C 44.800781 130.558594 44.464844 128.21875 43.792969 126.433594 L 43.792969 125.378906 L 44.273438 125.378906 M 47.25 159.695312 C 54.25 159.609375 60.214844 159.054688 65.144531 158.03125 L 70.042969 156.714844 L 72.011719 162.550781 L 73.894531 168.957031 C 73.253906 170.039062 72.726562 172.613281 72.320312 176.679688 C 72.054688 179.460938 71.882812 182.253906 71.792969 185.0625 C 71.792969 186.527344 72.230469 189.671875 73.105469 194.496094 L 73.0625 195.683594 L 71.269531 196.210938 L 70.042969 196.558594 L 69.695312 196.867188 L 59.5 197.175781 L 51.886719 197.21875 L 51.886719 197.085938 L 51.800781 197.21875 L 51.800781 197.261719 L 51.710938 197.21875 C 50.867188 195.140625 50.269531 192.097656 49.917969 188.089844 L 49.65625 186.511719 C 49.132812 183.117188 48.824219 180.5 48.738281 178.65625 C 47.484375 168.914062 46.855469 162.695312 46.855469 160.003906 L 47.25 159.785156 L 47.25 159.695312 M 5.335938 107.824219 L 5.292969 107.78125 L 5.292969 107.5625 L 5.6875 107.5625 L 5.863281 107.605469 C 6.648438 107.285156 7.613281 107.121094 8.75 107.121094 L 12.601562 107.519531 L 15.007812 107.914062 L 14.570312 110.898438 C 14.363281 112.273438 14.628906 112.960938 15.355469 112.960938 L 15.355469 113.355469 L 13.824219 113.265625 C 11.785156 113.265625 10.179688 113.632812 9.011719 114.363281 L 9.101562 114.804688 L 8.707031 115.023438 L 8.53125 114.671875 C 7.277344 111.191406 6.210938 108.90625 5.335938 107.824219 M 8.445312 119.148438 L 7.480469 117.566406 L 7.699219 117.347656 L 8.664062 118.488281 L 9.1875 116.910156 C 9.859375 116.121094 10.457031 115.636719 10.980469 115.460938 L 15.269531 114.890625 C 14.890625 117.902344 14.628906 122.542969 14.480469 128.800781 L 14.351562 129.109375 L 14.4375 129.503906 L 14.351562 133.804688 L 14.789062 146.3125 C 15.339844 152.835938 16.363281 156.769531 17.851562 158.117188 L 17.851562 159.214844 L 18.855469 167.859375 L 19.425781 171.765625 L 17.675781 172.117188 L 15.445312 172.074219 L 15.007812 171.984375 C 12.03125 165.429688 10.484375 156.714844 10.367188 145.828125 C 10.367188 139.890625 10.324219 135.445312 10.238281 132.488281 C 10.0625 127.660156 9.625 123.433594 8.925781 119.804688 L 8.445312 119.148438 M 15.445312 172.074219 L 15.445312 171.984375 L 15.445312 172.074219 "/>
</g>
</svg>
