<?xml version="1.0" encoding="UTF-8"?>
<svg xmlns="http://www.w3.org/2000/svg" xmlns:xlink="http://www.w3.org/1999/xlink" width="175px" height="366px" viewBox="0 0 175 366" version="1.1">
<g id="surface1">
<path style=" stroke:none;fill-rule:evenodd;fill:rgb(0%,0%,0%);fill-opacity:1;" d="M 91.65625 38.355469 L 91.65625 38.398438 L 91.65625 38.355469 M 91.570312 38.136719 C 83.636719 39.65625 77.539062 41.355469 73.28125 43.226562 L 73.28125 43.359375 L 71.136719 43.710938 L 66.761719 44.804688 L 62.605469 45.332031 L 62.167969 45.640625 L 41.519531 45.683594 L 19.773438 45.378906 C 20.242188 46.136719 20.546875 47.894531 20.695312 50.644531 L 20.78125 50.863281 L 20.824219 51.390625 C 20.824219 51.535156 20.78125 51.683594 20.695312 51.828125 L 20.738281 52.574219 L 20.386719 52.3125 L 19.46875 53.101562 L 16.625 55.121094 L 16.449219 55.296875 L 16.582031 55.339844 C 17.601562 55.542969 18.347656 55.925781 18.8125 56.480469 L 18.855469 56.523438 L 18.898438 56.613281 L 18.855469 56.4375 L 19.074219 56.214844 L 22.574219 56.347656 L 22.398438 55.820312 C 22.632812 55.558594 23.128906 55.425781 23.886719 55.425781 L 30.320312 56.039062 L 43.007812 56.65625 L 56.742188 55.777344 C 58.261719 55.457031 59.527344 55.089844 60.550781 54.679688 L 67.550781 53.804688 L 71.007812 53.011719 L 71.398438 53.101562 L 73.894531 52.53125 L 74.550781 51.609375 L 74.769531 51.34375 L 75.03125 51.257812 L 75.644531 51.300781 L 76.605469 51.039062 L 76.605469 51.125 L 76.824219 51.167969 L 80.894531 50.6875 C 81.183594 51.390625 82.25 51.273438 84.085938 50.335938 L 86.144531 49.722656 C 87.398438 49.488281 88.390625 49.164062 89.117188 48.757812 C 89.878906 48.347656 90.679688 48.054688 91.523438 47.878906 C 96.25 46.09375 98.960938 44.777344 99.664062 43.929688 L 99.835938 43.488281 L 99.835938 43.402344 L 99.792969 43.359375 L 99.398438 43.269531 L 99.179688 43.269531 C 97.808594 43.269531 96.191406 42.421875 94.324219 40.726562 L 91.917969 38.136719 L 91.699219 38.136719 L 91.699219 38.179688 L 91.570312 38.136719 M 76.5625 50.820312 L 76.082031 50.863281 L 76.5625 50.6875 L 77.261719 50.511719 L 76.78125 50.773438 L 76.5625 50.820312 M 99.269531 43.753906 L 99.226562 43.796875 L 99.179688 43.753906 L 99.269531 43.753906 M 87.5 300.917969 L 87.542969 299.691406 C 87.921875 299.691406 88.140625 301.078125 88.199219 303.859375 L 88.199219 308.070312 L 87.851562 320.359375 L 88.199219 326.765625 L 88.15625 327.511719 L 88.199219 329.179688 L 88.199219 333.789062 C 88.289062 349.734375 87.878906 359.066406 86.976562 361.785156 L 86.976562 361.960938 L 86.757812 362.3125 L 86.320312 362.621094 L 86.1875 362.621094 C 85.019531 363.117188 82.570312 363.734375 78.835938 364.464844 L 68.992188 365.957031 C 63.742188 365.957031 58.816406 365.078125 54.207031 363.324219 L 47.949219 360.339844 C 45.324219 359.34375 44.011719 356.460938 44.011719 351.695312 L 44.320312 349.324219 L 44.667969 347.65625 C 44.203125 347.070312 43.648438 345.785156 43.007812 343.792969 C 42.101562 341.132812 41.519531 338.835938 41.257812 336.90625 C 40.382812 331.988281 39.855469 328.304688 39.679688 325.84375 C 38.601562 313.9375 38.0625 306.578125 38.0625 303.769531 C 38.0625 303.070312 38.207031 302.660156 38.5 302.542969 L 38.414062 301.09375 C 38.414062 299.515625 38.675781 297.789062 39.199219 295.914062 C 39.726562 294.042969 39.988281 292.214844 39.988281 290.429688 C 39.988281 288.644531 39.578125 286.683594 38.761719 284.550781 L 37.539062 281.566406 C 37.539062 280.367188 38.089844 278.875 39.199219 277.089844 C 40.308594 275.539062 40.863281 274.660156 40.863281 274.457031 C 40.863281 273.550781 40.367188 272.058594 39.375 269.980469 C 38.355469 267.816406 37.800781 266.324219 37.710938 265.503906 L 37.539062 256.59375 L 37.539062 252.46875 L 37.757812 249.484375 L 35.65625 246.765625 C 35.160156 246.035156 34.914062 245.082031 34.914062 243.914062 C 35.496094 242.390625 35.789062 241.453125 35.789062 241.105469 L 34.914062 239.039062 C 35.351562 237.316406 36.035156 236.363281 36.96875 236.1875 L 36.269531 232.632812 C 35.628906 229.007812 35.027344 226.59375 34.476562 225.394531 C 31.558594 220.007812 29.675781 215.972656 28.832031 213.28125 C 27.429688 208.773438 26.601562 204.738281 26.335938 201.167969 C 26.222656 199.675781 25.636719 197.277344 24.585938 193.972656 L 23.011719 189.054688 L 23.054688 188.792969 L 20.605469 179.09375 L 19.511719 172.597656 L 16.582031 172.644531 C 9.816406 172.644531 5.863281 169.03125 4.726562 161.804688 C 4.375 159.582031 4.242188 156.523438 4.332031 152.632812 C 4.417969 148.476562 4.402344 145.886719 4.289062 144.863281 C 2.800781 132.605469 2.011719 123.550781 1.925781 117.699219 L 1.882812 116.425781 L 1.617188 114.101562 C 1.558594 112.726562 1.648438 111.46875 1.882812 110.328125 C 2.492188 107.402344 4.300781 105.777344 7.304688 105.457031 L 8.574219 105.367188 L 12.074219 105.5 L 15.3125 105.9375 L 15.882812 100.804688 C 15.296875 94.628906 15.007812 88.835938 15.007812 83.425781 C 15.007812 78.832031 15.355469 75.085938 16.054688 72.191406 C 15.792969 71.488281 15.445312 70.773438 15.007812 70.039062 C 14.277344 68.78125 13.914062 67.90625 13.914062 67.40625 C 13.914062 67.144531 14.277344 66.75 15.007812 66.222656 C 15.734375 65.695312 16.101562 65.242188 16.101562 64.863281 C 16.101562 64.101562 15.882812 63.339844 15.445312 62.578125 C 15.445312 62.230469 16.203125 60.839844 17.71875 58.410156 C 17.71875 57.621094 17.164062 57.109375 16.054688 56.875 C 14.917969 56.613281 14.351562 56.15625 14.351562 55.515625 C 14.351562 55.164062 15.777344 53.816406 18.636719 51.476562 L 18.289062 46.429688 L 18.507812 45.246094 L 18.289062 44.675781 C 18.289062 44.175781 19.164062 43.929688 20.914062 43.929688 C 48.125 44.28125 61.847656 44.191406 62.082031 43.664062 L 63.789062 43.488281 L 66.894531 42.832031 L 76.300781 40.59375 C 77.992188 40.242188 83.417969 38.75 92.574219 36.117188 C 93.507812 36.117188 93.988281 36.351562 94.019531 36.820312 L 95.507812 38.882812 L 95.332031 38.96875 L 95.417969 38.96875 L 98.832031 41.515625 L 101.851562 42.875 C 102.460938 43.199219 102.769531 43.5625 102.769531 43.972656 C 102.769531 44.558594 102.578125 44.96875 102.199219 45.203125 C 101.527344 45.582031 101.019531 45.992188 100.667969 46.429688 L 101.019531 46.648438 L 101.105469 46.5625 C 101.398438 46.328125 101.542969 46.402344 101.542969 46.78125 L 101.542969 46.867188 L 103.335938 47.484375 C 103.980469 47.628906 104.300781 47.980469 104.300781 48.535156 C 104.300781 49.035156 104.007812 49.398438 103.425781 49.632812 C 102.839844 49.898438 102.550781 50.21875 102.550781 50.597656 C 105.175781 56.890625 106.488281 60.824219 106.488281 62.40625 L 106.488281 62.800781 L 108.980469 69.777344 C 110.207031 73.492188 111.636719 78.511719 113.269531 84.828125 C 115.515625 93.460938 116.679688 99.339844 116.769531 102.472656 C 117.292969 103.4375 117.746094 105.074219 118.125 107.386719 L 119.394531 117.214844 L 122.457031 133.015625 C 122.457031 133.484375 122.222656 133.746094 121.757812 133.804688 L 120.355469 136.480469 C 119.191406 138.675781 118.578125 140.710938 118.519531 142.582031 L 118.5625 147.058594 C 118.503906 148.929688 118.199219 150.511719 117.644531 151.796875 C 117.089844 153.113281 115.921875 156.875 114.144531 163.078125 C 113.296875 166 112.597656 168.035156 112.042969 169.175781 L 113.882812 171.328125 C 115.515625 173.460938 116.769531 174.835938 117.644531 175.453125 L 123.636719 178.039062 C 127.078125 179.503906 128.800781 180.484375 128.800781 180.980469 L 128.757812 181.375 C 129.078125 182.515625 129.164062 184.359375 129.019531 186.90625 L 128.84375 189.757812 C 129.367188 191.046875 129.644531 194.265625 129.675781 199.414062 C 129.703125 208.394531 129.878906 213.984375 130.199219 216.175781 C 130.667969 219.335938 131.058594 221.617188 131.382812 223.023438 C 131.527344 223.753906 132.007812 224.878906 132.824219 226.402344 C 133.582031 227.863281 134.035156 228.976562 134.179688 229.738281 C 134.269531 230.351562 134.734375 231.492188 135.582031 233.160156 L 135.886719 236.453125 L 138.511719 240.488281 C 138.980469 241.191406 139.242188 241.964844 139.300781 242.816406 C 139.882812 243.546875 140.175781 246.617188 140.175781 252.03125 C 141.285156 252.117188 142.171875 252.457031 142.84375 253.039062 C 143.398438 253.507812 143.675781 253.933594 143.675781 254.3125 L 141.445312 261.160156 C 141.445312 261.539062 142.609375 262.828125 144.945312 265.019531 C 147.246094 267.652344 148.398438 270.242188 148.398438 272.789062 L 148.398438 272.964844 C 149.421875 274.808594 150.863281 278.027344 152.730469 282.617188 L 156.757812 292.535156 C 157.136719 292.945312 158.492188 296.136719 160.824219 302.105469 L 166.773438 317.464844 L 171.195312 329.621094 C 173.730469 336.933594 175 341.191406 175 342.390625 C 175 342.828125 174.152344 344.816406 172.460938 348.359375 C 170.652344 352.101562 169.339844 354.445312 168.523438 355.378906 C 167.707031 356.285156 165.957031 357.265625 163.273438 358.320312 C 160.914062 359.226562 158.828125 359.839844 157.019531 360.164062 L 151.113281 361.4375 L 143.804688 362.445312 L 142.710938 362.578125 L 137.113281 363.015625 L 131.292969 364.375 C 129.980469 364.375 128.230469 362.050781 126.042969 357.398438 C 124.117188 353.300781 122.71875 349.457031 121.84375 345.855469 C 119.539062 337.488281 117.964844 331.300781 117.117188 327.292969 C 116.621094 324.953125 114.816406 318.765625 111.695312 308.730469 C 107.289062 297.230469 105.085938 291.089844 105.085938 290.296875 L 105.085938 290.253906 C 103.714844 286.832031 102.898438 283.539062 102.636719 280.378906 L 102.507812 276.871094 C 102.390625 275.523438 102.011719 274.324219 101.367188 273.269531 L 98.789062 269.671875 C 97.855469 268.355469 97.386719 267.199219 97.386719 266.207031 C 97.738281 264.449219 97.914062 263.175781 97.914062 262.386719 L 97.648438 261.511719 L 97.210938 260.984375 L 96.773438 260.589844 C 96.015625 260.03125 95.636719 259.257812 95.636719 258.261719 C 95.636719 257.445312 96.003906 256.59375 96.730469 255.71875 L 97.824219 254.3125 C 97.183594 252.234375 96.820312 250.847656 96.730469 250.144531 C 95.828125 249.675781 95.171875 248.214844 94.761719 245.753906 L 94.414062 241.234375 C 94.414062 239.917969 94.585938 239.171875 94.9375 238.996094 L 94.414062 236.496094 C 93.859375 233.21875 92.835938 230.21875 91.351562 227.5 C 90.210938 225.394531 88.609375 221.222656 86.539062 214.992188 L 84.175781 208.804688 C 83.210938 206.257812 82.628906 204.152344 82.425781 202.484375 C 81.433594 195.609375 80.9375 191.441406 80.9375 189.976562 L 80.9375 189.625 L 77.699219 180.5 L 74.945312 172.292969 L 74.507812 174.398438 C 73.863281 177.910156 73.542969 181.421875 73.542969 184.929688 C 73.542969 185.808594 73.644531 187.039062 73.851562 188.617188 C 74.726562 189.40625 75.191406 192.582031 75.25 198.140625 L 75.074219 213.894531 C 75.105469 215.066406 75.511719 217.1875 76.300781 220.257812 C 77.027344 223.066406 77.320312 225.203125 77.175781 226.664062 C 77.027344 228.039062 77.027344 230.191406 77.175781 233.117188 C 77.058594 235.019531 77.511719 236.261719 78.53125 236.847656 C 79.609375 237.492188 80.148438 238.324219 80.148438 239.347656 L 79.1875 242.859375 C 78.546875 245.113281 78.226562 246.605469 78.226562 247.335938 C 78.226562 248.269531 78.574219 249.382812 79.273438 250.671875 C 79.976562 251.957031 80.324219 253.128906 80.324219 254.179688 L 80.238281 255.367188 C 80.382812 256.011719 80.414062 257.09375 80.324219 258.613281 C 80.324219 261.511719 79.976562 264.667969 79.273438 268.09375 C 79.273438 269.585938 80.5 272.21875 82.949219 275.992188 C 83.621094 277.71875 83.796875 280.351562 83.476562 283.890625 C 83.941406 287.023438 84.773438 289.902344 85.96875 292.535156 C 86.871094 294.585938 87.324219 296.925781 87.324219 299.558594 L 87.324219 300.832031 L 87.019531 300.742188 L 86.582031 301.050781 L 84.917969 293.152344 C 83.082031 289.261719 82.164062 286.453125 82.164062 284.726562 C 82.164062 280.277344 81.957031 277.46875 81.550781 276.300781 C 80.964844 274.691406 80.121094 273.140625 79.011719 271.648438 C 78.3125 270.710938 77.960938 269.496094 77.960938 268.003906 L 79.011719 261.160156 L 78.882812 257.429688 C 78.882812 256.523438 78.953125 255.835938 79.101562 255.367188 L 78.835938 254.269531 L 78.398438 251.636719 C 77.496094 250.320312 77.015625 249.015625 76.957031 247.730469 C 74.507812 251.535156 72.261719 253.433594 70.21875 253.433594 C 69.898438 253.433594 69.695312 253.332031 69.605469 253.128906 L 69.5625 252.820312 L 74.417969 248.871094 L 75.863281 246.808594 L 77.21875 245.183594 L 77.875 242.59375 L 78.835938 239.390625 C 78.835938 238.894531 78.414062 238.484375 77.570312 238.164062 C 76.636719 237.78125 76.097656 237.140625 75.949219 236.230469 L 75.863281 233.074219 L 75.863281 226.753906 C 76.007812 225.347656 75.703125 223.285156 74.945312 220.566406 C 74.15625 217.640625 73.761719 215.535156 73.761719 214.246094 L 73.585938 201.605469 C 73.0625 196.515625 72.769531 192.609375 72.710938 189.890625 L 72.320312 189.890625 C 71.96875 187.609375 71.792969 186 71.792969 185.0625 C 71.882812 182.253906 72.054688 179.460938 72.320312 176.679688 C 72.726562 172.613281 73.253906 170.039062 73.894531 168.957031 L 72.011719 162.550781 L 70.042969 156.714844 L 65.144531 158.03125 C 60.214844 159.054688 54.25 159.609375 47.25 159.695312 L 45.675781 159.695312 C 31.296875 159.753906 22.632812 159.347656 19.6875 158.46875 L 19.25 158.601562 C 19.601562 159.769531 19.964844 161.980469 20.34375 165.226562 C 21.132812 171.957031 21.714844 176.140625 22.09375 177.777344 L 24.542969 188.003906 L 25.023438 189.890625 L 24.804688 189.890625 L 24.851562 189.976562 L 25.855469 192.785156 C 26.703125 195.476562 27.300781 197.949219 27.648438 200.203125 C 28.730469 206.816406 29.488281 210.71875 29.925781 211.921875 L 35.394531 224.121094 C 37.113281 228.011719 37.976562 231.800781 37.976562 235.488281 L 37.976562 236.804688 C 37.976562 237.125 37.390625 237.871094 36.226562 239.039062 L 36.835938 240.53125 L 36.96875 240.53125 L 49.523438 243.472656 C 49.523438 243.914062 49.160156 244.132812 48.429688 244.132812 C 42.539062 243.109375 38.746094 242.316406 37.054688 241.761719 L 36.664062 242.683594 C 36.371094 243.179688 36.226562 243.632812 36.226562 244.042969 C 36.226562 245.125 36.632812 245.988281 37.449219 246.632812 C 38.179688 247.21875 38.585938 247.921875 38.675781 248.738281 C 39.402344 249.851562 39.460938 254.078125 38.851562 261.421875 C 38.675781 263.792969 39.171875 266.308594 40.335938 268.96875 C 41.5625 271.777344 42.175781 273.609375 42.175781 274.457031 C 42.175781 275.042969 41.621094 276.125 40.511719 277.703125 C 39.402344 279.285156 38.851562 280.570312 38.851562 281.566406 L 39.375 283.058594 L 39.59375 283.011719 C 43.617188 285.441406 46.347656 286.859375 47.773438 287.269531 L 51.1875 288.5 L 56.394531 289.070312 C 57.414062 289.070312 57.925781 289.261719 57.925781 289.640625 C 57.925781 290.078125 57.472656 290.296875 56.570312 290.296875 C 53.214844 290.296875 50.824219 290.050781 49.394531 289.550781 C 48.285156 288.9375 47.367188 288.515625 46.636719 288.28125 L 40.25 284.902344 C 40.949219 286.773438 41.300781 288.617188 41.300781 290.429688 L 41.125 293.503906 L 40.117188 297.628906 L 39.8125 301.972656 C 39.753906 303.199219 39.652344 304.019531 39.507812 304.429688 C 39.738281 305.832031 39.945312 308.027344 40.117188 311.011719 L 40.949219 324.96875 L 42.523438 336.160156 C 42.816406 338.351562 43.925781 342.082031 45.851562 347.347656 L 45.71875 347.875 L 45.675781 348.621094 L 45.324219 351.695312 C 45.324219 355.027344 46.550781 357.558594 49 359.285156 C 50.195312 360.132812 52.777344 361.378906 56.742188 363.015625 L 62.78125 364.246094 C 62.867188 364.566406 63.074219 364.726562 63.394531 364.726562 L 63.875 364.421875 L 65.273438 364.59375 C 70.789062 364.59375 75.820312 364.054688 80.367188 362.972656 L 85.664062 361.523438 L 85.664062 360.867188 C 86.363281 352.847656 86.710938 346.777344 86.710938 342.652344 L 86.800781 331.726562 L 86.886719 327.558594 C 86.480469 326.472656 86.363281 324.074219 86.539062 320.359375 L 87.414062 302.191406 L 87.675781 301.488281 L 87.5 300.917969 M 97.78125 47.789062 L 96.730469 47.964844 C 95.769531 48.550781 95.113281 48.84375 94.761719 48.84375 L 93.710938 48.800781 C 93.214844 49.152344 92.109375 49.574219 90.386719 50.074219 C 88.199219 50.6875 86.261719 51.054688 84.570312 51.167969 L 79.230469 52.136719 L 74.199219 53.453125 L 73.414062 53.453125 L 71.925781 53.40625 L 71.792969 53.40625 L 71.925781 53.890625 C 58.625 56.902344 49.027344 58.410156 43.136719 58.410156 L 32.375 57.972656 C 27.621094 57.648438 24.542969 57.285156 23.144531 56.875 L 19.074219 56.832031 C 19.367188 57.328125 19.511719 57.914062 19.511719 58.585938 C 19.511719 58.996094 19.175781 59.710938 18.507812 60.738281 L 17.5 62.667969 L 17.980469 65.871094 C 17.980469 66.777344 17.425781 67.347656 16.320312 67.582031 C 17.046875 68.988281 17.542969 70.15625 17.804688 71.09375 L 18.199219 71.003906 L 17.9375 71.839844 L 17.980469 72.324219 C 17.980469 73.199219 17.804688 73.742188 17.457031 73.945312 C 16.929688 76.519531 16.667969 79.710938 16.667969 83.511719 C 16.667969 89.101562 16.960938 94.921875 17.542969 100.980469 C 17.542969 102.414062 17.398438 104.460938 17.105469 107.121094 C 16.960938 108.554688 16.785156 109.726562 16.582031 110.632812 L 16.582031 110.675781 L 16.667969 110.632812 L 17.105469 110.722656 L 28.261719 111.949219 L 41.605469 112.082031 L 41.695312 112.082031 L 41.695312 112.167969 L 42 112.167969 L 42.042969 112.082031 L 61.117188 112.390625 L 61.554688 110.765625 C 62.199219 109.039062 63.714844 106.550781 66.105469 103.304688 C 68.46875 100.058594 70.074219 97.644531 70.917969 96.0625 L 71.882812 92.113281 C 72.320312 90.183594 72.871094 89.21875 73.542969 89.21875 L 74.15625 89.480469 L 73.894531 89.65625 C 73.953125 89.773438 74.097656 89.847656 74.332031 89.875 L 74.332031 90.445312 C 74.332031 92.875 73.703125 95.1875 72.449219 97.378906 L 68.335938 102.996094 C 65.769531 106.15625 64.019531 109.300781 63.085938 112.433594 C 63.4375 112.519531 63.613281 112.796875 63.613281 113.265625 L 63.742188 113.707031 L 63.175781 113.925781 L 62.695312 113.96875 C 62.429688 115.199219 62.300781 116.425781 62.300781 117.65625 C 62.300781 118.855469 62.386719 119.980469 62.5625 121.035156 C 62.765625 121.152344 62.824219 121.339844 62.738281 121.605469 L 62.695312 121.78125 L 62.957031 123.054688 L 63.613281 126.039062 L 63.613281 126.214844 C 64.050781 126.855469 64.503906 128.21875 64.96875 130.292969 L 64.925781 130.292969 C 64.925781 130.675781 64.953125 130.777344 65.011719 130.601562 L 65.449219 132.839844 C 66.558594 139.101562 67.289062 142.773438 67.636719 143.855469 L 70.789062 152.808594 C 72.101562 156.550781 73.019531 159.535156 73.542969 161.757812 C 74.566406 166.03125 77.027344 173.199219 80.9375 183.261719 L 83.519531 189.890625 L 82.511719 189.890625 C 82.980469 191.792969 83.34375 195.535156 83.605469 201.125 C 83.664062 202.761719 84.191406 204.871094 85.179688 207.445312 L 87.632812 213.894531 C 88.449219 216.382812 90.152344 220.550781 92.75 226.402344 C 94.964844 231.84375 96.074219 236.1875 96.074219 239.4375 C 96.074219 239.757812 95.972656 239.960938 95.769531 240.050781 L 95.898438 241.148438 L 96.03125 244.308594 C 96.148438 245.566406 96.511719 246.75 97.125 247.863281 L 98 249.574219 L 97.914062 250.011719 L 98.523438 251.769531 L 99.226562 254.488281 L 98.085938 256.113281 C 97.328125 257.078125 96.949219 257.808594 96.949219 258.304688 C 96.949219 258.890625 97.328125 259.476562 98.085938 260.0625 L 98.261719 260.195312 L 98.304688 260.195312 L 102.769531 260.894531 L 108.851562 261.730469 C 108.851562 262.167969 107.84375 262.386719 105.832031 262.386719 L 99.269531 261.992188 L 99.226562 261.992188 L 99.226562 262.300781 C 99.226562 263.792969 99.050781 265.109375 98.699219 266.25 C 98.699219 267.039062 100.054688 269.308594 102.769531 273.050781 C 103.789062 274.457031 104.183594 276.648438 103.949219 279.632812 C 103.832031 281.097656 104.429688 283.292969 105.742188 286.21875 C 107.113281 289.261719 107.800781 291.46875 107.800781 292.84375 L 107.757812 293.722656 C 108.953125 296.765625 110.671875 301.546875 112.917969 308.070312 C 115.195312 314.832031 117.003906 320.929688 118.34375 326.371094 C 120.007812 333.160156 121.859375 339.816406 123.898438 346.339844 C 127.3125 357.339844 129.792969 362.839844 131.335938 362.839844 L 137.113281 361.699219 L 142.84375 361.085938 L 148.09375 360.121094 L 153.519531 359.503906 L 155.3125 359.328125 L 161.613281 357.707031 C 163.828125 357.03125 165.695312 356.082031 167.210938 354.851562 C 168.144531 354.09375 169.488281 351.882812 171.238281 348.226562 C 172.871094 344.863281 173.6875 342.945312 173.6875 342.476562 C 173.6875 342.066406 172.273438 337.941406 169.445312 330.101562 L 165.417969 317.726562 C 160.371094 305.4375 157.355469 297.730469 156.363281 294.597656 C 155.777344 294.21875 155.019531 292.785156 154.085938 290.296875 L 151.550781 283.277344 C 147.992188 276.019531 146.210938 272.21875 146.210938 271.867188 C 146.210938 271.457031 146.34375 271.207031 146.605469 271.121094 L 146.5625 270.945312 L 145.207031 267.171875 C 144.273438 265.621094 143.078125 264.421875 141.617188 263.574219 C 140.890625 263.164062 140.421875 262.621094 140.21875 261.949219 L 134.445312 268.621094 C 133.277344 270.171875 131.425781 271.882812 128.886719 273.753906 C 126.261719 275.65625 124.382812 276.605469 123.242188 276.605469 L 122.632812 276.386719 L 122.585938 275.992188 C 127.808594 273.007812 131.394531 270.285156 133.351562 267.828125 L 136.585938 263.089844 C 138.105469 261.011719 139.402344 259.929688 140.480469 259.84375 L 142.1875 254.269531 L 140.21875 253.609375 C 139.316406 253.347656 138.863281 252.761719 138.863281 251.855469 L 138.6875 249.222656 C 138.484375 247.527344 138.367188 245.859375 138.335938 244.21875 C 137.082031 240.941406 136.078125 238.894531 135.320312 238.074219 C 134.617188 237.316406 134.167969 236.261719 133.960938 234.914062 L 133.304688 231.230469 L 130.8125 224.25 C 129.878906 221.589844 129.296875 219.308594 129.0625 217.40625 L 127.488281 189.890625 L 127.3125 189.890625 L 127.355469 187.039062 C 127.355469 185.605469 127.210938 184.300781 126.917969 183.132812 L 126.613281 181.816406 C 123.347656 181.40625 119.800781 179.546875 115.980469 176.242188 C 112.539062 173.285156 110.660156 171.164062 110.335938 169.878906 L 110.292969 169.527344 L 110.292969 169.308594 C 110.292969 168.460938 112.191406 162.214844 115.980469 150.570312 C 116.417969 149.195312 116.679688 147.597656 116.769531 145.785156 L 116.855469 141.132812 C 116.945312 139.757812 117.441406 137.945312 118.34375 135.691406 C 119.21875 133.585938 120.035156 132.371094 120.792969 132.050781 C 119.714844 128.21875 117.671875 118.285156 114.667969 102.25 C 114.667969 101.929688 114.769531 101.695312 114.976562 101.550781 L 114.230469 97.292969 L 112.699219 87.242188 C 112.144531 84.902344 110.425781 79.375 107.539062 70.65625 L 105.351562 64.554688 C 104.707031 64.554688 104.386719 64.175781 104.386719 63.414062 L 104.5625 62.449219 L 104.257812 61.703125 L 104.605469 61.613281 C 104.371094 59.480469 103.132812 55.660156 100.886719 50.160156 C 100.886719 49.75 101.179688 49.238281 101.761719 48.625 L 100.101562 48.140625 C 99.691406 48.316406 99.296875 48.40625 98.917969 48.40625 L 98.042969 48.40625 L 99.269531 47.835938 C 99.035156 47.6875 98.875 47.511719 98.789062 47.308594 L 97.78125 47.789062 M 48.605469 93.167969 L 50.664062 96.460938 L 53.199219 101.285156 C 53.519531 101.929688 54.660156 103.421875 56.613281 105.761719 C 58.363281 107.898438 59.238281 109.15625 59.238281 109.535156 C 59.238281 110.0625 58.929688 110.328125 58.320312 110.328125 C 56.160156 110.328125 52.632812 104.871094 47.730469 93.957031 C 47.730469 93.429688 48.023438 93.167969 48.605469 93.167969 M 42.480469 118.183594 L 42.917969 118.09375 C 46.652344 117.566406 49.175781 116.9375 50.488281 116.207031 C 51.246094 115.828125 53.316406 115.210938 56.699219 114.363281 L 57.664062 114.058594 L 54.730469 114.058594 L 42.917969 113.96875 L 42.875 113.488281 L 42.480469 113.488281 L 42.480469 113.96875 L 24.195312 113.046875 L 17.542969 112.34375 C 17.515625 114.101562 17.324219 116.382812 16.976562 119.191406 L 18.113281 118.972656 L 29.882812 119.5 L 30.582031 119.453125 L 42.480469 118.183594 M 60.945312 120.726562 C 60.738281 119.617188 60.636719 118.578125 60.636719 117.613281 L 60.8125 114.363281 L 58.625 115.503906 C 56.496094 116.5 54.6875 117.113281 53.199219 117.347656 C 49.320312 118.578125 45.746094 119.484375 42.480469 120.070312 L 40.25 120.421875 L 40.554688 120.464844 L 42.480469 120.683594 L 53.113281 122.132812 L 57.050781 121.691406 C 58.859375 121.050781 60.128906 120.726562 60.855469 120.726562 L 60.945312 120.726562 M 44.757812 140.34375 L 44.757812 140.476562 L 45.0625 140.476562 L 45.0625 140.300781 C 50.050781 139.949219 53.957031 139.394531 56.789062 138.632812 C 60.609375 137.636719 63.027344 137.097656 64.050781 137.007812 C 63.027344 133.03125 62.429688 130 62.257812 127.925781 L 62.039062 127.835938 C 61.890625 125.964844 61.644531 124.136719 61.292969 122.351562 C 58.785156 123.082031 53.113281 124.09375 44.273438 125.378906 L 44.1875 124.675781 L 43.792969 124.675781 L 43.792969 125.421875 L 34.914062 126.652344 C 33.863281 126.796875 31.792969 127.382812 28.699219 128.40625 C 25.140625 129.3125 20.925781 129.796875 16.054688 129.855469 L 16.011719 133.804688 L 16.320312 142.625 L 18.507812 142.667969 L 32.417969 141.878906 C 32.535156 141.675781 32.753906 141.574219 33.074219 141.574219 L 34.039062 141.703125 L 44.320312 140.34375 L 44.757812 140.34375 M 46.550781 150.875 L 59.195312 152.324219 L 69.125 153.90625 L 66.195312 144.511719 L 46.988281 145.433594 L 45.675781 145.433594 C 41.535156 145.347656 38.148438 144.90625 35.523438 144.117188 C 34.417969 143.796875 33.601562 143.488281 33.074219 143.195312 L 21.613281 144.335938 L 16.40625 144.117188 L 16.449219 145.566406 L 16.667969 145.523438 L 41.039062 150.128906 L 46.550781 150.875 M 45.28125 143.722656 L 65.320312 143.109375 L 65.757812 143.152344 L 64.488281 138.542969 C 62.269531 139.421875 56.058594 140.488281 45.851562 141.75 L 45.632812 141.75 L 45.324219 141.703125 L 45.28125 141.792969 L 37.144531 142.757812 C 38.953125 143.429688 41.050781 143.765625 43.445312 143.765625 L 45.28125 143.722656 M 47.117188 157.941406 C 56.160156 157.941406 61.234375 157.824219 62.34375 157.589844 C 62.695312 157.503906 62.941406 157.328125 63.085938 157.0625 C 63.261719 156.769531 63.730469 156.507812 64.488281 156.273438 L 67.289062 155.441406 L 54.292969 153.773438 L 46.679688 152.632812 L 37.230469 151.226562 C 25.710938 149.707031 18.8125 148.390625 16.539062 147.277344 L 16.886719 151.886719 C 16.917969 153.789062 17.441406 155.292969 18.460938 156.40625 L 18.898438 156.84375 L 19.511719 156.714844 L 45.585938 157.941406 L 47.117188 157.941406 M 55.78125 269.453125 C 59.308594 269.628906 63.277344 269.6875 67.679688 269.628906 L 62.167969 269.320312 L 69.210938 269.453125 C 69.738281 269.484375 70 269.65625 70 269.980469 C 70 270.652344 67.242188 270.988281 61.730469 270.988281 L 60.550781 270.988281 C 60.230469 270.8125 59.894531 270.726562 59.542969 270.726562 C 59.28125 270.726562 59.105469 270.8125 59.019531 270.988281 L 54.773438 270.59375 C 54.484375 270.507812 54.335938 270.285156 54.335938 269.9375 C 54.335938 269.730469 54.46875 269.597656 54.730469 269.539062 L 54.730469 269.714844 L 55.34375 269.9375 L 55.519531 269.453125 L 55.78125 269.453125 M 15.355469 112.960938 C 14.628906 112.960938 14.363281 112.273438 14.570312 110.898438 L 15.007812 107.914062 L 12.601562 107.519531 L 12.074219 107.429688 L 8.75 107.121094 L 7.304688 107.210938 L 5.863281 107.605469 L 5.6875 107.5625 L 5.292969 107.5625 L 5.292969 107.78125 L 5.335938 107.824219 C 4.402344 108.324219 3.804688 109.113281 3.542969 110.195312 C 3.339844 111.042969 3.28125 112.34375 3.367188 114.101562 L 3.542969 116.515625 L 3.542969 117.699219 L 3.894531 124.675781 L 3.894531 124.722656 L 4.070312 124.632812 C 4.945312 124.253906 5.527344 123.609375 5.820312 122.703125 L 6.605469 119.410156 L 6.738281 117.699219 L 7.304688 116.121094 C 7.597656 115.5625 8.007812 115.082031 8.53125 114.671875 L 8.664062 115.023438 L 8.707031 115.023438 L 9.101562 114.804688 L 9.011719 114.363281 L 9.492188 114.101562 C 10.195312 113.75 11.054688 113.515625 12.074219 113.398438 L 13.824219 113.265625 L 15.355469 113.355469 L 15.53125 113.355469 L 15.617188 112.914062 L 15.355469 112.960938 M 43.050781 122.484375 L 29.3125 121.691406 L 18.636719 121.035156 C 17.734375 120.886719 17.121094 120.683594 16.800781 120.421875 L 16.449219 122.789062 L 16.101562 128.230469 L 16.929688 128.144531 C 20.023438 128.085938 23.214844 127.589844 26.511719 126.652344 L 33.949219 125.203125 L 43.050781 123.800781 L 43.007812 124.019531 L 43.3125 124.019531 L 43.398438 123.753906 L 48.738281 122.964844 L 43.050781 122.484375 M 15.445312 172.074219 L 17.675781 172.117188 L 19.425781 171.765625 L 18.855469 167.859375 L 17.851562 159.214844 L 17.851562 158.117188 C 16.363281 156.769531 15.339844 152.835938 14.789062 146.3125 L 14.351562 133.804688 L 14.4375 129.503906 L 14.351562 129.109375 L 14.480469 128.800781 C 14.628906 122.542969 14.890625 117.902344 15.269531 114.890625 L 10.980469 115.460938 C 10.457031 115.636719 9.859375 116.121094 9.1875 116.910156 L 8.664062 118.488281 L 7.699219 117.347656 L 7.480469 117.566406 L 8.445312 119.148438 L 8.3125 119.628906 L 8.136719 120.199219 L 7.699219 123.929688 C 7.261719 125.6875 6.140625 126.5625 4.332031 126.5625 L 4.023438 126.5625 L 4.023438 126.609375 C 4.433594 131.582031 5.074219 137.621094 5.949219 144.730469 C 6.269531 149.0625 6.269531 153.714844 5.949219 158.6875 C 5.832031 160.5 6.371094 162.871094 7.570312 165.796875 C 8.066406 167.085938 8.910156 168.226562 10.105469 169.21875 C 11.738281 170.652344 13.371094 171.574219 15.007812 171.984375 L 15.136719 172.292969 L 15.269531 172.25 L 15.445312 172.074219 "/>
<path style=" stroke:none;fill-rule:evenodd;fill:rgb(67.843139%,47.843137%,50.588238%);fill-opacity:1;" d="M 91.917969 38.136719 L 91.65625 38.355469 L 91.570312 38.136719 L 91.699219 38.179688 L 91.699219 38.136719 L 91.917969 38.136719 M 76.605469 51.039062 L 76.5625 50.820312 L 76.78125 50.773438 L 76.824219 51.167969 L 76.605469 51.125 L 76.605469 51.039062 M 99.664062 43.929688 L 99.269531 43.753906 L 99.398438 43.269531 L 99.792969 43.359375 L 99.835938 43.402344 L 99.835938 43.488281 L 99.664062 43.929688 M 5.335938 107.5625 L 5.6875 107.5625 L 5.335938 107.824219 L 5.335938 107.5625 M 15.007812 171.984375 L 15.445312 171.984375 L 15.445312 172.074219 L 15.007812 171.984375 "/>
<path style=" stroke:none;fill-rule:evenodd;fill:rgb(0%,0.392157%,12.156863%);fill-opacity:1;" d="M 89.949219 129.546875 L 90.039062 129.503906 L 91.085938 132.621094 L 91.042969 132.621094 L 90.082031 129.855469 L 89.949219 129.546875 M 96.949219 151.839844 L 97.386719 151.710938 L 96.949219 151.886719 L 96.949219 151.839844 M 98.042969 48.40625 L 97.78125 47.789062 L 98.789062 47.308594 C 98.875 47.511719 99.035156 47.6875 99.269531 47.835938 L 98.042969 48.40625 M 44.273438 125.378906 L 43.792969 125.378906 L 43.792969 124.675781 L 44.1875 124.675781 L 44.273438 125.378906 M 106.617188 189.890625 L 106.269531 190.023438 L 106.226562 189.890625 L 106.617188 189.890625 M 55.519531 269.410156 L 55.78125 269.453125 L 55.519531 269.453125 L 55.519531 269.410156 M 8.707031 115.023438 L 8.664062 115.023438 L 8.53125 114.671875 L 8.707031 115.023438 M 8.664062 118.488281 L 8.445312 119.148438 L 7.480469 117.566406 L 7.699219 117.347656 L 8.664062 118.488281 M 15.269531 172.25 L 15.136719 172.292969 L 15.007812 171.984375 L 15.269531 172.25 M 47.25 159.785156 L 46.855469 160.003906 L 46.855469 159.785156 L 47.25 159.785156 "/>
<path style=" stroke:none;fill-rule:evenodd;fill:rgb(14.901961%,17.647059%,34.901962%);fill-opacity:1;" d="M 81.769531 55.644531 L 81.8125 55.644531 L 81.769531 55.867188 L 81.769531 55.644531 M 41.605469 111.6875 L 41.695312 112.082031 L 41.605469 112.082031 L 41.605469 111.6875 M 71.925781 53.890625 L 71.792969 53.40625 L 71.925781 53.40625 L 71.925781 53.890625 M 98.085938 260.0625 L 98.304688 260.195312 L 98.261719 260.195312 L 98.085938 260.0625 M 99.269531 261.992188 L 99.226562 262.300781 L 99.226562 261.992188 L 99.269531 261.992188 M 8.445312 119.148438 L 8.925781 119.804688 L 8.3125 119.628906 L 8.445312 119.148438 M 4.023438 126.609375 L 4.023438 126.5625 L 4.332031 126.5625 L 4.023438 126.609375 "/>
<path style=" stroke:none;fill-rule:evenodd;fill:rgb(20%,34.509805%,36.862746%);fill-opacity:1;" d="M 46.855469 159.695312 L 47.25 159.695312 L 47.25 159.785156 L 46.855469 159.785156 L 46.855469 159.695312 M 74.332031 89.875 L 74.417969 89.875 L 74.417969 90.183594 L 74.460938 90.402344 L 74.332031 90.445312 L 74.332031 89.875 M 90.039062 129.503906 L 89.949219 129.195312 L 92.226562 135.867188 L 91.085938 132.621094 L 90.039062 129.503906 M 18.855469 56.4375 L 18.898438 56.613281 L 18.855469 56.523438 L 18.8125 56.480469 L 18.855469 56.4375 "/>
<path style=" stroke:none;fill-rule:evenodd;fill:rgb(75.294119%,76.47059%,73.725492%);fill-opacity:1;" d="M 42.480469 113.96875 L 42.480469 113.488281 L 42.875 113.488281 L 42.917969 113.96875 L 54.730469 114.058594 L 57.664062 114.058594 L 56.699219 114.363281 C 53.316406 115.210938 51.246094 115.828125 50.488281 116.207031 C 49.175781 116.9375 46.652344 117.566406 42.917969 118.09375 L 42.480469 118.183594 L 42.480469 113.96875 M 42.480469 120.070312 C 45.746094 119.484375 49.320312 118.578125 53.199219 117.347656 C 54.6875 117.113281 56.496094 116.5 58.625 115.503906 L 60.8125 114.363281 L 60.636719 117.613281 C 60.636719 118.578125 60.738281 119.617188 60.945312 120.726562 L 60.855469 120.726562 C 60.128906 120.726562 58.859375 121.050781 57.050781 121.691406 L 53.113281 122.132812 L 42.480469 120.683594 L 42.480469 120.070312 M 45.675781 145.433594 L 46.988281 145.433594 L 66.195312 144.511719 L 69.125 153.90625 L 59.195312 152.324219 L 46.550781 150.875 L 46.417969 148.242188 L 45.675781 145.433594 M 45.851562 141.75 C 56.058594 140.488281 62.269531 139.421875 64.488281 138.542969 L 65.757812 143.152344 L 65.320312 143.109375 L 45.28125 143.722656 L 45.105469 142.144531 L 45.105469 142.011719 L 45.148438 142.011719 L 45.28125 141.835938 L 45.28125 141.792969 L 45.324219 141.703125 L 45.632812 141.75 L 45.851562 141.792969 L 45.851562 141.75 M 46.679688 152.632812 L 54.292969 153.773438 L 67.289062 155.441406 L 64.488281 156.273438 C 63.730469 156.507812 63.261719 156.769531 63.085938 157.0625 C 62.941406 157.328125 62.695312 157.503906 62.34375 157.589844 C 61.234375 157.824219 56.160156 157.941406 47.117188 157.941406 L 47.074219 157.808594 L 46.855469 154.386719 L 46.679688 152.632812 M 43.050781 123.800781 L 43.050781 122.484375 L 48.738281 122.964844 L 43.398438 123.753906 L 43.3125 124.019531 L 43.007812 124.019531 L 43.050781 123.800781 "/>
<path style=" stroke:none;fill-rule:evenodd;fill:rgb(8.235294%,3.529412%,11.372549%);fill-opacity:1;" d="M 64.96875 130.292969 L 65.011719 130.601562 C 64.953125 130.777344 64.925781 130.675781 64.925781 130.292969 L 64.96875 130.292969 M 106.617188 189.890625 L 106.3125 190.023438 L 106.269531 190.023438 L 106.617188 189.890625 M 16.582031 55.339844 L 16.449219 55.296875 L 16.625 55.121094 L 16.582031 55.339844 M 15.355469 112.960938 L 15.617188 112.914062 L 15.53125 113.355469 L 15.355469 113.355469 L 15.355469 112.960938 M 5.335938 107.824219 L 5.292969 107.78125 L 5.292969 107.5625 L 5.335938 107.5625 L 5.335938 107.824219 M 15.445312 172.074219 L 15.269531 172.25 L 15.007812 171.984375 L 15.445312 172.074219 "/>
<path style=" stroke:none;fill-rule:evenodd;fill:rgb(29.411766%,19.607843%,31.37255%);fill-opacity:1;" d="M 24.851562 189.976562 L 24.804688 189.890625 L 25.023438 189.890625 L 24.851562 189.976562 M 106.53125 189.757812 L 106.617188 189.890625 L 106.226562 189.890625 L 106.53125 189.757812 "/>
<path style=" stroke:none;fill-rule:evenodd;fill:rgb(92.54902%,94.901961%,93.333334%);fill-opacity:1;" d="M 42.480469 113.96875 L 42.480469 118.183594 L 30.582031 119.453125 L 29.882812 119.5 L 18.113281 118.972656 L 16.976562 119.191406 C 17.324219 116.382812 17.515625 114.101562 17.542969 112.34375 L 24.195312 113.046875 L 42.480469 113.96875 M 42.480469 120.070312 L 42.480469 120.683594 L 40.554688 120.464844 L 40.25 120.421875 L 42.480469 120.070312 M 45.675781 145.433594 L 46.417969 148.242188 L 46.550781 150.875 L 41.039062 150.128906 L 16.667969 145.523438 L 16.449219 145.566406 L 16.40625 144.117188 L 21.613281 144.335938 L 33.074219 143.195312 C 33.601562 143.488281 34.417969 143.796875 35.523438 144.117188 C 38.148438 144.90625 41.535156 145.347656 45.675781 145.433594 M 45.851562 141.75 L 45.851562 141.792969 L 45.632812 141.75 L 45.851562 141.75 M 45.28125 141.792969 L 45.28125 141.835938 L 45.148438 142.011719 L 45.105469 142.011719 L 45.105469 142.144531 L 45.28125 143.722656 L 43.445312 143.765625 C 41.050781 143.765625 38.953125 143.429688 37.144531 142.757812 L 45.28125 141.792969 M 46.679688 152.632812 L 46.855469 154.386719 L 47.074219 157.808594 L 47.117188 157.941406 L 45.585938 157.941406 L 19.511719 156.714844 L 18.898438 156.84375 L 18.460938 156.40625 C 17.441406 155.292969 16.917969 153.789062 16.886719 151.886719 L 16.539062 147.277344 C 18.8125 148.390625 25.710938 149.707031 37.230469 151.226562 L 46.679688 152.632812 M 43.050781 123.800781 L 33.949219 125.203125 L 26.511719 126.652344 C 23.214844 127.589844 20.023438 128.085938 16.929688 128.144531 L 16.101562 128.230469 L 16.449219 122.789062 L 16.800781 120.421875 C 17.121094 120.683594 17.734375 120.886719 18.636719 121.035156 L 29.3125 121.691406 L 43.050781 122.484375 L 43.050781 123.800781 "/>
<path style=" stroke:none;fill-rule:evenodd;fill:rgb(41.960785%,9.803922%,14.509805%);fill-opacity:1;" d="M 91.65625 38.355469 L 91.917969 38.136719 L 94.324219 40.726562 C 96.191406 42.421875 97.808594 43.269531 99.179688 43.269531 L 99.398438 43.269531 L 99.269531 43.753906 L 99.664062 43.929688 C 98.960938 44.777344 96.25 46.09375 91.523438 47.878906 C 90.679688 48.054688 89.878906 48.347656 89.117188 48.757812 C 88.390625 49.164062 87.398438 49.488281 86.144531 49.722656 L 84.085938 50.335938 C 82.25 51.273438 81.183594 51.390625 80.894531 50.6875 L 76.824219 51.167969 L 76.78125 50.773438 L 77.261719 50.511719 L 76.5625 50.6875 L 76.082031 50.863281 L 76.5625 50.820312 L 76.605469 51.039062 L 75.644531 51.300781 L 75.03125 51.257812 L 74.769531 51.34375 L 74.507812 51.433594 C 74.214844 51.433594 74.039062 51.390625 73.980469 51.300781 L 74.417969 51.167969 L 73.457031 50.90625 C 73.484375 50.496094 73.792969 50.015625 74.375 49.457031 C 74.929688 48.933594 75.207031 48.492188 75.207031 48.140625 L 74.460938 47.484375 C 73.9375 47.25 73.675781 47.042969 73.675781 46.867188 C 73.675781 46.226562 74.257812 45.304688 75.425781 44.105469 C 75.425781 43.839844 74.726562 43.636719 73.324219 43.488281 L 73.28125 43.359375 L 73.28125 43.226562 C 77.539062 41.355469 83.636719 39.65625 91.570312 38.136719 L 91.65625 38.355469 L 91.65625 38.398438 L 91.65625 38.355469 M 99.269531 43.753906 L 99.179688 43.753906 L 99.226562 43.796875 L 99.269531 43.753906 M 87.5 300.917969 L 87.675781 301.488281 L 87.414062 302.191406 L 86.539062 320.359375 C 86.363281 324.074219 86.480469 326.472656 86.886719 327.558594 L 86.800781 331.726562 L 86.710938 342.652344 C 86.710938 346.777344 86.363281 352.847656 85.664062 360.867188 L 85.664062 361.523438 L 80.367188 362.972656 C 75.820312 364.054688 70.789062 364.59375 65.273438 364.59375 L 63.875 364.421875 C 64.574219 363.394531 65.214844 360.0625 65.800781 354.414062 L 65.449219 347.832031 C 65.449219 344.027344 65.828125 339.886719 66.585938 335.414062 C 67.347656 330.9375 67.726562 325.992188 67.726562 320.578125 L 67.726562 316.148438 L 67.507812 312.636719 C 67.621094 312.136719 67.636719 311.40625 67.550781 310.441406 L 66.457031 301.882812 L 64.574219 290.5625 C 64.195312 288.953125 63.847656 285.660156 63.523438 280.6875 C 63.144531 275.128906 62.152344 271.894531 60.550781 270.988281 L 61.730469 270.988281 C 67.242188 270.988281 70 270.652344 70 269.980469 C 70 269.65625 69.738281 269.484375 69.210938 269.453125 L 62.167969 269.320312 L 67.679688 269.628906 C 63.277344 269.6875 59.308594 269.628906 55.78125 269.453125 L 55.519531 269.410156 L 57.050781 263.308594 L 56.917969 262.871094 C 57.238281 262.402344 57.398438 261.21875 57.398438 259.316406 L 57.226562 252.953125 C 57.226562 251.957031 56.730469 250.699219 55.738281 249.179688 C 54.746094 247.65625 54.25 246.734375 54.25 246.414062 C 54.25 245.886719 54.570312 244.832031 55.210938 243.253906 C 55.855469 241.675781 56.175781 240.429688 56.175781 239.523438 C 56.175781 238.527344 55.855469 237.59375 55.210938 236.714844 C 54.511719 235.75 54.074219 234.625 53.898438 233.335938 L 53.199219 227.015625 L 51.667969 214.378906 C 50.851562 208.703125 50.371094 204.53125 50.226562 201.871094 C 50.488281 195.316406 50.414062 191.324219 50.007812 189.890625 L 50.09375 189.890625 L 49.917969 188.089844 C 49.21875 183.9375 48.824219 180.792969 48.738281 178.65625 C 47.484375 168.914062 46.855469 162.695312 46.855469 160.003906 L 47.25 159.785156 L 47.25 159.695312 C 54.25 159.609375 60.214844 159.054688 65.144531 158.03125 L 70.042969 156.714844 L 72.011719 162.550781 L 73.894531 168.957031 C 73.253906 170.039062 72.726562 172.613281 72.320312 176.679688 C 72.054688 179.460938 71.882812 182.253906 71.792969 185.0625 C 71.792969 186 71.96875 187.609375 72.320312 189.890625 L 72.710938 189.890625 C 72.769531 192.609375 73.0625 196.515625 73.585938 201.605469 L 73.761719 214.246094 C 73.761719 215.535156 74.15625 217.640625 74.945312 220.566406 C 75.703125 223.285156 76.007812 225.347656 75.863281 226.753906 L 75.863281 233.074219 L 75.949219 236.230469 C 76.097656 237.140625 76.636719 237.78125 77.570312 238.164062 C 78.414062 238.484375 78.835938 238.894531 78.835938 239.390625 L 77.875 242.59375 L 77.21875 245.183594 L 75.863281 246.808594 L 74.417969 248.871094 L 69.5625 252.820312 L 69.605469 253.128906 C 69.695312 253.332031 69.898438 253.433594 70.21875 253.433594 C 72.261719 253.433594 74.507812 251.535156 76.957031 247.730469 C 77.015625 249.015625 77.496094 250.320312 78.398438 251.636719 L 78.835938 254.269531 L 79.101562 255.367188 C 78.953125 255.835938 78.882812 256.523438 78.882812 257.429688 L 79.011719 261.160156 L 77.960938 268.003906 C 77.960938 269.496094 78.3125 270.710938 79.011719 271.648438 C 80.121094 273.140625 80.964844 274.691406 81.550781 276.300781 C 81.957031 277.46875 82.164062 280.277344 82.164062 284.726562 C 82.164062 286.453125 83.082031 289.261719 84.917969 293.152344 L 86.582031 301.050781 L 87.019531 300.742188 L 87.324219 300.832031 L 87.5 300.917969 M 73.414062 53.453125 L 74.199219 53.453125 L 79.230469 52.136719 L 84.570312 51.167969 C 86.261719 51.054688 88.199219 50.6875 90.386719 50.074219 C 92.109375 49.574219 93.214844 49.152344 93.710938 48.800781 L 94.761719 48.84375 C 95.113281 48.84375 95.769531 48.550781 96.730469 47.964844 L 97.78125 47.789062 L 98.042969 48.40625 L 98.917969 48.40625 C 99.296875 48.40625 99.691406 48.316406 100.101562 48.140625 L 101.761719 48.625 C 101.179688 49.238281 100.886719 49.75 100.886719 50.160156 C 103.132812 55.660156 104.371094 59.480469 104.605469 61.613281 L 104.257812 61.703125 L 104.5625 62.449219 L 104.386719 63.414062 C 104.386719 64.175781 104.707031 64.554688 105.351562 64.554688 L 107.539062 70.65625 C 110.425781 79.375 112.144531 84.902344 112.699219 87.242188 L 114.230469 97.292969 L 114.976562 101.550781 C 114.769531 101.695312 114.667969 101.929688 114.667969 102.25 C 117.671875 118.285156 119.714844 128.21875 120.792969 132.050781 C 120.035156 132.371094 119.21875 133.585938 118.34375 135.691406 C 117.441406 137.945312 116.945312 139.757812 116.855469 141.132812 L 116.769531 145.785156 C 116.679688 147.597656 116.417969 149.195312 115.980469 150.570312 C 112.191406 162.214844 110.292969 168.460938 110.292969 169.308594 L 110.292969 169.527344 L 110.335938 169.878906 C 110.660156 171.164062 112.539062 173.285156 115.980469 176.242188 C 119.800781 179.546875 123.347656 181.40625 126.613281 181.816406 L 126.917969 183.132812 C 127.210938 184.300781 127.355469 185.605469 127.355469 187.039062 L 127.3125 189.890625 L 127.488281 189.890625 L 129.0625 217.40625 C 129.296875 219.308594 129.878906 221.589844 130.8125 224.25 L 133.304688 231.230469 L 133.960938 234.914062 C 134.167969 236.261719 134.617188 237.316406 135.320312 238.074219 C 136.078125 238.894531 137.082031 240.941406 138.335938 244.21875 C 138.367188 245.859375 138.484375 247.527344 138.6875 249.222656 L 138.863281 251.855469 C 138.863281 252.761719 139.316406 253.347656 140.21875 253.609375 L 142.1875 254.269531 L 140.480469 259.84375 C 139.402344 259.929688 138.105469 261.011719 136.585938 263.089844 L 133.351562 267.828125 C 131.394531 270.285156 127.808594 273.007812 122.585938 275.992188 L 122.632812 276.386719 L 123.242188 276.605469 C 124.382812 276.605469 126.261719 275.65625 128.886719 273.753906 C 131.425781 271.882812 133.277344 270.171875 134.445312 268.621094 L 140.21875 261.949219 C 140.421875 262.621094 140.890625 263.164062 141.617188 263.574219 C 143.078125 264.421875 144.273438 265.621094 145.207031 267.171875 L 146.5625 270.945312 L 146.605469 271.121094 C 146.34375 271.207031 146.210938 271.457031 146.210938 271.867188 C 146.210938 272.21875 147.992188 276.019531 151.550781 283.277344 L 154.085938 290.296875 C 155.019531 292.785156 155.777344 294.21875 156.363281 294.597656 C 157.355469 297.730469 160.371094 305.4375 165.417969 317.726562 L 169.445312 330.101562 C 172.273438 337.941406 173.6875 342.066406 173.6875 342.476562 C 173.6875 342.945312 172.871094 344.863281 171.238281 348.226562 C 169.488281 351.882812 168.144531 354.09375 167.210938 354.851562 C 165.695312 356.082031 163.828125 357.03125 161.613281 357.707031 L 155.3125 359.328125 L 153.519531 359.503906 L 153.519531 359.460938 C 153.957031 359.460938 154.175781 358.992188 154.175781 358.058594 C 154.175781 353.84375 152.746094 348.242188 149.886719 341.25 C 146.417969 333.554688 144.054688 328.082031 142.800781 324.835938 C 140.875 319.921875 138.410156 314.347656 135.40625 308.117188 C 134.617188 306.476562 133.699219 303.113281 132.648438 298.023438 C 131.863281 294.363281 131.292969 292.230469 130.945312 291.613281 L 128.929688 284.285156 C 128.816406 283.496094 128.433594 282.839844 127.792969 282.3125 L 124.164062 279.941406 L 121.273438 278.230469 C 121.042969 277.96875 120.925781 277 120.925781 275.332031 C 120.925781 273.898438 121.363281 272.363281 122.238281 270.726562 C 123.113281 269.058594 123.550781 268.050781 123.550781 267.699219 C 120.371094 262.488281 118.300781 258.804688 117.335938 256.640625 L 115.105469 251.109375 C 114.757812 248.621094 114.421875 246.984375 114.101562 246.195312 C 113.285156 240.871094 112.875 236.464844 112.875 232.984375 L 113.226562 221.046875 C 113.195312 216.746094 113.09375 214.101562 112.917969 213.105469 L 111.824219 205.074219 C 111.300781 202.585938 110.164062 199.207031 108.414062 194.9375 L 106.3125 190.023438 L 106.617188 189.890625 L 106.53125 189.757812 C 105.453125 187.59375 104.695312 185.195312 104.257812 182.5625 C 103.789062 176.621094 103.148438 172.21875 102.332031 169.351562 L 98.742188 156.230469 L 97.386719 151.710938 L 96.949219 151.839844 L 94.980469 144.90625 L 94.195312 143.019531 C 93.582031 141.585938 92.894531 139.4375 92.136719 136.570312 L 91.042969 132.621094 L 91.085938 132.621094 L 92.226562 135.867188 L 89.949219 129.195312 L 90.039062 129.503906 L 89.949219 129.546875 L 84.832031 116.691406 C 82.789062 110.398438 80.355469 103.933594 77.523438 97.292969 C 75.308594 98.8125 74.199219 100.042969 74.199219 100.980469 C 74.199219 102.238281 74.492188 103.847656 75.074219 105.804688 L 74.855469 108 C 74.945312 108.148438 74.8125 108.21875 74.460938 108.21875 C 73.265625 107.429688 72.273438 107.035156 71.488281 107.035156 C 70.992188 107.035156 70 108.058594 68.511719 110.105469 C 66.964844 112.300781 66.089844 114.085938 65.886719 115.460938 C 65.304688 119.761719 65.011719 122.554688 65.011719 123.84375 C 65.011719 125.363281 65.113281 126.738281 65.320312 127.96875 C 65.699219 128.230469 65.886719 128.714844 65.886719 129.417969 L 65.757812 129.988281 L 65.886719 130.382812 L 65.757812 130.601562 L 65.625 130.382812 L 65.539062 130.601562 L 65.011719 130.601562 L 64.96875 130.292969 C 64.503906 128.21875 64.050781 126.855469 63.613281 126.214844 L 63.613281 126.039062 L 62.957031 123.054688 L 62.695312 121.78125 L 62.738281 121.605469 C 62.824219 121.339844 62.765625 121.152344 62.5625 121.035156 C 62.386719 119.980469 62.300781 118.855469 62.300781 117.65625 C 62.300781 116.425781 62.429688 115.199219 62.695312 113.96875 L 63.175781 113.925781 L 63.742188 113.707031 L 63.613281 113.265625 C 63.613281 112.796875 63.4375 112.519531 63.085938 112.433594 C 64.019531 109.300781 65.769531 106.15625 68.335938 102.996094 L 72.449219 97.378906 C 73.703125 95.1875 74.332031 92.875 74.332031 90.445312 L 74.460938 90.402344 L 74.417969 90.183594 L 74.417969 89.875 L 74.332031 89.875 C 74.097656 89.847656 73.953125 89.773438 73.894531 89.65625 L 74.15625 89.480469 L 73.542969 89.21875 C 72.871094 89.21875 72.320312 90.183594 71.882812 92.113281 L 70.917969 96.0625 C 70.074219 97.644531 68.46875 100.058594 66.105469 103.304688 C 63.714844 106.550781 62.199219 109.039062 61.554688 110.765625 L 61.117188 112.390625 L 42.042969 112.082031 L 42 112.167969 L 41.695312 112.167969 L 41.695312 112.082031 L 41.605469 111.6875 L 41.605469 111.644531 C 42.042969 109.300781 42.261719 107.578125 42.261719 106.464844 L 35.042969 92.507812 L 35.261719 92.203125 C 38.761719 93.839844 41.316406 94.863281 42.917969 95.273438 L 41.605469 88.429688 L 41.605469 84.304688 L 41.824219 84.304688 C 44.128906 84.304688 47.660156 85.691406 52.414062 88.472656 C 57.339844 91.367188 60.15625 92.816406 60.855469 92.816406 L 65.011719 87.8125 L 66.195312 89 C 66.746094 89.640625 67.230469 89.964844 67.636719 89.964844 C 68.660156 89.964844 70.191406 89.027344 72.230469 87.15625 C 71.734375 86.714844 71.488281 86.335938 71.488281 86.015625 L 78.050781 79.34375 C 82.425781 74.136719 84.613281 69.570312 84.613281 65.652344 C 84.613281 63.75 84.144531 61.703125 83.210938 59.507812 C 82.25 57.3125 81.769531 56.097656 81.769531 55.867188 L 81.8125 55.644531 L 81.769531 55.644531 C 75.933594 55.558594 73.019531 55.121094 73.019531 54.328125 L 73.414062 53.453125 M 48.605469 93.167969 C 48.023438 93.167969 47.730469 93.429688 47.730469 93.957031 C 52.632812 104.871094 56.160156 110.328125 58.320312 110.328125 C 58.929688 110.328125 59.238281 110.0625 59.238281 109.535156 C 59.238281 109.15625 58.363281 107.898438 56.613281 105.761719 C 54.660156 103.421875 53.519531 101.929688 53.199219 101.285156 L 50.664062 96.460938 L 48.605469 93.167969 M 44.273438 125.378906 C 53.113281 124.09375 58.785156 123.082031 61.292969 122.351562 C 61.644531 124.136719 61.890625 125.964844 62.039062 127.835938 L 62.257812 127.925781 C 62.429688 130 63.027344 133.03125 64.050781 137.007812 C 63.027344 137.097656 60.609375 137.636719 56.789062 138.632812 C 53.957031 139.394531 50.050781 139.949219 45.0625 140.300781 L 45.0625 140.476562 L 44.757812 140.476562 L 44.757812 140.34375 L 44.800781 133.453125 C 44.800781 130.558594 44.464844 128.21875 43.792969 126.433594 L 43.792969 125.378906 L 44.273438 125.378906 M 5.6875 107.5625 L 5.863281 107.605469 L 7.304688 107.210938 L 8.75 107.121094 L 12.074219 107.429688 L 12.601562 107.519531 L 15.007812 107.914062 L 14.570312 110.898438 C 14.363281 112.273438 14.628906 112.960938 15.355469 112.960938 L 15.355469 113.355469 L 13.824219 113.265625 L 12.074219 113.398438 C 11.054688 113.515625 10.195312 113.75 9.492188 114.101562 L 9.011719 114.363281 L 9.101562 114.804688 L 8.707031 115.023438 L 8.53125 114.671875 L 8.3125 114.101562 C 7.960938 113.136719 7.628906 112.273438 7.304688 111.511719 C 6.578125 109.757812 5.921875 108.527344 5.335938 107.824219 L 5.6875 107.5625 M 8.664062 118.488281 L 9.1875 116.910156 C 9.859375 116.121094 10.457031 115.636719 10.980469 115.460938 L 15.269531 114.890625 C 14.890625 117.902344 14.628906 122.542969 14.480469 128.800781 L 14.351562 129.109375 L 14.4375 129.503906 L 14.351562 133.804688 L 14.789062 146.3125 C 15.339844 152.835938 16.363281 156.769531 17.851562 158.117188 L 17.851562 159.214844 L 18.855469 167.859375 L 19.425781 171.765625 L 17.675781 172.117188 L 15.445312 172.074219 L 15.445312 171.984375 L 15.007812 171.984375 C 12.03125 165.429688 10.484375 156.714844 10.367188 145.828125 C 10.367188 139.890625 10.324219 135.445312 10.238281 132.488281 C 10.0625 127.660156 9.625 123.433594 8.925781 119.804688 L 8.445312 119.148438 L 8.664062 118.488281 "/>
<path style=" stroke:none;fill-rule:evenodd;fill:rgb(63.921571%,20.784314%,31.37255%);fill-opacity:1;" d="M 73.28125 43.359375 L 73.324219 43.488281 C 74.726562 43.636719 75.425781 43.839844 75.425781 44.105469 C 74.257812 45.304688 73.675781 46.226562 73.675781 46.867188 C 73.675781 47.042969 73.9375 47.25 74.460938 47.484375 L 75.207031 48.140625 C 75.207031 48.492188 74.929688 48.933594 74.375 49.457031 C 73.792969 50.015625 73.484375 50.496094 73.457031 50.90625 L 74.417969 51.167969 L 73.980469 51.300781 C 74.039062 51.390625 74.214844 51.433594 74.507812 51.433594 L 74.769531 51.34375 L 74.550781 51.609375 L 73.894531 52.53125 L 71.398438 53.101562 L 71.007812 53.011719 L 67.550781 53.804688 L 60.550781 54.679688 C 59.527344 55.089844 58.261719 55.457031 56.742188 55.777344 L 43.007812 56.65625 L 30.320312 56.039062 L 23.886719 55.425781 C 23.128906 55.425781 22.632812 55.558594 22.398438 55.820312 L 22.574219 56.347656 L 19.074219 56.214844 L 18.855469 56.4375 L 18.8125 56.480469 C 18.347656 55.925781 17.601562 55.542969 16.582031 55.339844 L 16.625 55.121094 L 19.46875 53.101562 L 20.386719 52.3125 L 20.738281 52.574219 L 20.695312 51.828125 C 20.78125 51.683594 20.824219 51.535156 20.824219 51.390625 L 20.78125 50.863281 L 20.695312 50.644531 C 20.546875 47.894531 20.242188 46.136719 19.773438 45.378906 L 41.519531 45.683594 L 62.167969 45.640625 L 62.605469 45.332031 L 66.761719 44.804688 L 71.136719 43.710938 L 73.28125 43.359375 M 63.875 364.421875 L 63.394531 364.726562 C 63.074219 364.726562 62.867188 364.566406 62.78125 364.246094 L 56.742188 363.015625 C 52.777344 361.378906 50.195312 360.132812 49 359.285156 C 46.550781 357.558594 45.324219 355.027344 45.324219 351.695312 L 45.675781 348.621094 L 45.71875 347.875 L 45.851562 347.347656 C 43.925781 342.082031 42.816406 338.351562 42.523438 336.160156 L 40.949219 324.96875 L 40.117188 311.011719 C 39.945312 308.027344 39.738281 305.832031 39.507812 304.429688 C 39.652344 304.019531 39.753906 303.199219 39.8125 301.972656 L 40.117188 297.628906 L 41.125 293.503906 L 41.300781 290.429688 C 41.300781 288.617188 40.949219 286.773438 40.25 284.902344 L 46.636719 288.28125 C 47.367188 288.515625 48.285156 288.9375 49.394531 289.550781 C 50.824219 290.050781 53.214844 290.296875 56.570312 290.296875 C 57.472656 290.296875 57.925781 290.078125 57.925781 289.640625 C 57.925781 289.261719 57.414062 289.070312 56.394531 289.070312 L 51.1875 288.5 L 47.773438 287.269531 C 46.347656 286.859375 43.617188 285.441406 39.59375 283.011719 L 39.375 283.058594 L 38.851562 281.566406 C 38.851562 280.570312 39.402344 279.285156 40.511719 277.703125 C 41.621094 276.125 42.175781 275.042969 42.175781 274.457031 C 42.175781 273.609375 41.5625 271.777344 40.335938 268.96875 C 39.171875 266.308594 38.675781 263.792969 38.851562 261.421875 C 39.460938 254.078125 39.402344 249.851562 38.675781 248.738281 C 38.585938 247.921875 38.179688 247.21875 37.449219 246.632812 C 36.632812 245.988281 36.226562 245.125 36.226562 244.042969 C 36.226562 243.632812 36.371094 243.179688 36.664062 242.683594 L 37.054688 241.761719 C 38.746094 242.316406 42.539062 243.109375 48.429688 244.132812 C 49.160156 244.132812 49.523438 243.914062 49.523438 243.472656 L 36.96875 240.53125 L 36.835938 240.53125 L 36.226562 239.039062 C 37.390625 237.871094 37.976562 237.125 37.976562 236.804688 L 37.976562 235.488281 C 37.976562 231.800781 37.113281 228.011719 35.394531 224.121094 L 29.925781 211.921875 C 29.488281 210.71875 28.730469 206.816406 27.648438 200.203125 C 27.300781 197.949219 26.703125 195.476562 25.855469 192.785156 L 24.851562 189.976562 L 25.023438 189.890625 L 24.542969 188.003906 L 22.09375 177.777344 C 21.714844 176.140625 21.132812 171.957031 20.34375 165.226562 C 19.964844 161.980469 19.601562 159.769531 19.25 158.601562 L 19.6875 158.46875 C 22.632812 159.347656 31.296875 159.753906 45.675781 159.695312 L 46.855469 159.695312 L 46.855469 160.003906 C 46.855469 162.695312 47.484375 168.914062 48.738281 178.65625 C 48.824219 180.792969 49.21875 183.9375 49.917969 188.089844 L 50.09375 189.890625 L 50.007812 189.890625 C 50.414062 191.324219 50.488281 195.316406 50.226562 201.871094 C 50.371094 204.53125 50.851562 208.703125 51.667969 214.378906 L 53.199219 227.015625 L 53.898438 233.335938 C 54.074219 234.625 54.511719 235.75 55.210938 236.714844 C 55.855469 237.59375 56.175781 238.527344 56.175781 239.523438 C 56.175781 240.429688 55.855469 241.675781 55.210938 243.253906 C 54.570312 244.832031 54.25 245.886719 54.25 246.414062 C 54.25 246.734375 54.746094 247.65625 55.738281 249.179688 C 56.730469 250.699219 57.226562 251.957031 57.226562 252.953125 L 57.398438 259.316406 C 57.398438 261.21875 57.238281 262.402344 56.917969 262.871094 L 57.050781 263.308594 L 55.519531 269.410156 L 55.519531 269.453125 L 55.34375 269.9375 L 54.730469 269.714844 L 54.730469 269.539062 C 54.46875 269.597656 54.335938 269.730469 54.335938 269.9375 C 54.335938 270.285156 54.484375 270.507812 54.773438 270.59375 L 59.019531 270.988281 C 59.105469 270.8125 59.28125 270.726562 59.542969 270.726562 C 59.894531 270.726562 60.230469 270.8125 60.550781 270.988281 C 62.152344 271.894531 63.144531 275.128906 63.523438 280.6875 C 63.847656 285.660156 64.195312 288.953125 64.574219 290.5625 L 66.457031 301.882812 L 67.550781 310.441406 C 67.636719 311.40625 67.621094 312.136719 67.507812 312.636719 L 67.726562 316.148438 L 67.726562 320.578125 C 67.726562 325.992188 67.347656 330.9375 66.585938 335.414062 C 65.828125 339.886719 65.449219 344.027344 65.449219 347.832031 L 65.800781 354.414062 C 65.214844 360.0625 64.574219 363.394531 63.875 364.421875 M 73.414062 53.453125 L 73.019531 54.328125 C 73.019531 55.121094 75.933594 55.558594 81.769531 55.644531 L 81.769531 55.867188 C 81.769531 56.097656 82.25 57.3125 83.210938 59.507812 C 84.144531 61.703125 84.613281 63.75 84.613281 65.652344 C 84.613281 69.570312 82.425781 74.136719 78.050781 79.34375 L 71.488281 86.015625 C 71.488281 86.335938 71.734375 86.714844 72.230469 87.15625 C 70.191406 89.027344 68.660156 89.964844 67.636719 89.964844 C 67.230469 89.964844 66.746094 89.640625 66.195312 89 L 65.011719 87.8125 L 60.855469 92.816406 C 60.15625 92.816406 57.339844 91.367188 52.414062 88.472656 C 47.660156 85.691406 44.128906 84.304688 41.824219 84.304688 L 41.605469 84.304688 L 41.605469 88.429688 L 42.917969 95.273438 C 41.316406 94.863281 38.761719 93.839844 35.261719 92.203125 L 35.042969 92.507812 L 42.261719 106.464844 C 42.261719 107.578125 42.042969 109.300781 41.605469 111.644531 L 41.605469 112.082031 L 28.261719 111.949219 L 17.105469 110.722656 L 16.667969 110.632812 L 16.582031 110.632812 C 16.785156 109.726562 16.960938 108.554688 17.105469 107.121094 C 17.398438 104.460938 17.542969 102.414062 17.542969 100.980469 C 16.960938 94.921875 16.667969 89.101562 16.667969 83.511719 C 16.667969 79.710938 16.929688 76.519531 17.457031 73.945312 C 17.804688 73.742188 17.980469 73.199219 17.980469 72.324219 L 17.9375 71.839844 L 18.199219 71.003906 L 17.804688 71.09375 C 17.542969 70.15625 17.046875 68.988281 16.320312 67.582031 C 17.425781 67.347656 17.980469 66.777344 17.980469 65.871094 L 17.5 62.667969 L 18.507812 60.738281 C 19.175781 59.710938 19.511719 58.996094 19.511719 58.585938 C 19.511719 57.914062 19.367188 57.328125 19.074219 56.832031 L 23.144531 56.875 C 24.542969 57.285156 27.621094 57.648438 32.375 57.972656 L 43.136719 58.410156 C 49.027344 58.410156 58.625 56.902344 71.925781 53.890625 L 71.925781 53.40625 L 73.414062 53.453125 M 65.011719 130.601562 L 65.539062 130.601562 L 65.625 130.382812 L 65.757812 130.601562 L 65.886719 130.382812 L 65.757812 129.988281 L 65.886719 129.417969 C 65.886719 128.714844 65.699219 128.230469 65.320312 127.96875 C 65.113281 126.738281 65.011719 125.363281 65.011719 123.84375 C 65.011719 122.554688 65.304688 119.761719 65.886719 115.460938 C 66.089844 114.085938 66.964844 112.300781 68.511719 110.105469 C 70 108.058594 70.992188 107.035156 71.488281 107.035156 C 72.273438 107.035156 73.265625 107.429688 74.460938 108.21875 C 74.8125 108.21875 74.945312 108.148438 74.855469 108 L 75.074219 105.804688 C 74.492188 103.847656 74.199219 102.238281 74.199219 100.980469 C 74.199219 100.042969 75.308594 98.8125 77.523438 97.292969 C 80.355469 103.933594 82.789062 110.398438 84.832031 116.691406 L 89.949219 129.546875 L 90.082031 129.855469 L 91.042969 132.621094 L 92.136719 136.570312 C 92.894531 139.4375 93.582031 141.585938 94.195312 143.019531 L 94.980469 144.90625 L 96.949219 151.839844 L 96.949219 151.886719 L 97.386719 151.710938 L 98.742188 156.230469 L 102.332031 169.351562 C 103.148438 172.21875 103.789062 176.621094 104.257812 182.5625 C 104.695312 185.195312 105.453125 187.59375 106.53125 189.757812 L 106.226562 189.890625 L 106.269531 190.023438 L 106.3125 190.023438 L 108.414062 194.9375 C 110.164062 199.207031 111.300781 202.585938 111.824219 205.074219 L 112.917969 213.105469 C 113.09375 214.101562 113.195312 216.746094 113.226562 221.046875 L 112.875 232.984375 C 112.875 236.464844 113.285156 240.871094 114.101562 246.195312 C 114.421875 246.984375 114.757812 248.621094 115.105469 251.109375 L 117.335938 256.640625 C 118.300781 258.804688 120.371094 262.488281 123.550781 267.699219 C 123.550781 268.050781 123.113281 269.058594 122.238281 270.726562 C 121.363281 272.363281 120.925781 273.898438 120.925781 275.332031 C 120.925781 277 121.042969 277.96875 121.273438 278.230469 L 124.164062 279.941406 L 127.792969 282.3125 C 128.433594 282.839844 128.816406 283.496094 128.929688 284.285156 L 130.945312 291.613281 C 131.292969 292.230469 131.863281 294.363281 132.648438 298.023438 C 133.699219 303.113281 134.617188 306.476562 135.40625 308.117188 C 138.410156 314.347656 140.875 319.921875 142.800781 324.835938 C 144.054688 328.082031 146.417969 333.554688 149.886719 341.25 C 152.746094 348.242188 154.175781 353.84375 154.175781 358.058594 C 154.175781 358.992188 153.957031 359.460938 153.519531 359.460938 L 153.519531 359.503906 L 148.09375 360.121094 L 142.84375 361.085938 L 137.113281 361.699219 L 131.335938 362.839844 C 129.792969 362.839844 127.3125 357.339844 123.898438 346.339844 C 121.859375 339.816406 120.007812 333.160156 118.34375 326.371094 C 117.003906 320.929688 115.195312 314.832031 112.917969 308.070312 C 110.671875 301.546875 108.953125 296.765625 107.757812 293.722656 L 107.800781 292.84375 C 107.800781 291.46875 107.113281 289.261719 105.742188 286.21875 C 104.429688 283.292969 103.832031 281.097656 103.949219 279.632812 C 104.183594 276.648438 103.789062 274.457031 102.769531 273.050781 C 100.054688 269.308594 98.699219 267.039062 98.699219 266.25 C 99.050781 265.109375 99.226562 263.792969 99.226562 262.300781 L 99.269531 261.992188 L 105.832031 262.386719 C 107.84375 262.386719 108.851562 262.167969 108.851562 261.730469 L 102.769531 260.894531 L 98.304688 260.195312 L 98.085938 260.0625 C 97.328125 259.476562 96.949219 258.890625 96.949219 258.304688 C 96.949219 257.808594 97.328125 257.078125 98.085938 256.113281 L 99.226562 254.488281 L 98.523438 251.769531 L 97.914062 250.011719 L 98 249.574219 L 97.125 247.863281 C 96.511719 246.75 96.148438 245.566406 96.03125 244.308594 L 95.898438 241.148438 L 95.769531 240.050781 C 95.972656 239.960938 96.074219 239.757812 96.074219 239.4375 C 96.074219 236.1875 94.964844 231.84375 92.75 226.402344 C 90.152344 220.550781 88.449219 216.382812 87.632812 213.894531 L 85.179688 207.445312 C 84.191406 204.871094 83.664062 202.761719 83.605469 201.125 C 83.34375 195.535156 82.980469 191.792969 82.511719 189.890625 L 83.519531 189.890625 L 80.9375 183.261719 C 77.027344 173.199219 74.566406 166.03125 73.542969 161.757812 C 73.019531 159.535156 72.101562 156.550781 70.789062 152.808594 L 67.636719 143.855469 C 67.289062 142.773438 66.558594 139.101562 65.449219 132.839844 L 65.011719 130.601562 M 43.792969 125.421875 L 43.792969 126.433594 C 44.464844 128.21875 44.800781 130.558594 44.800781 133.453125 L 44.757812 140.34375 L 44.320312 140.34375 L 34.039062 141.703125 L 33.074219 141.574219 C 32.753906 141.574219 32.535156 141.675781 32.417969 141.878906 L 18.507812 142.667969 L 16.320312 142.625 L 16.011719 133.804688 L 16.054688 129.855469 C 20.925781 129.796875 25.140625 129.3125 28.699219 128.40625 C 31.792969 127.382812 33.863281 126.796875 34.914062 126.652344 L 43.792969 125.421875 M 8.53125 114.671875 C 8.007812 115.082031 7.597656 115.5625 7.304688 116.121094 L 6.738281 117.699219 L 6.605469 119.410156 L 5.820312 122.703125 C 5.527344 123.609375 4.945312 124.253906 4.070312 124.632812 L 3.894531 124.675781 L 3.542969 117.699219 L 3.542969 116.515625 L 3.367188 114.101562 C 3.28125 112.34375 3.339844 111.042969 3.542969 110.195312 C 3.804688 109.113281 4.402344 108.324219 5.335938 107.824219 C 5.921875 108.527344 6.578125 109.757812 7.304688 111.511719 C 7.628906 112.273438 7.960938 113.136719 8.3125 114.101562 L 8.53125 114.671875 M 8.925781 119.804688 C 9.625 123.433594 10.0625 127.660156 10.238281 132.488281 C 10.324219 135.445312 10.367188 139.890625 10.367188 145.828125 C 10.484375 156.714844 12.03125 165.429688 15.007812 171.984375 C 13.371094 171.574219 11.738281 170.652344 10.105469 169.21875 C 8.910156 168.226562 8.066406 167.085938 7.570312 165.796875 C 6.371094 162.871094 5.832031 160.5 5.949219 158.6875 C 6.269531 153.714844 6.269531 149.0625 5.949219 144.730469 C 5.074219 137.621094 4.433594 131.582031 4.023438 126.609375 L 4.332031 126.5625 C 6.140625 126.5625 7.261719 125.6875 7.699219 123.929688 L 8.136719 120.199219 L 8.3125 119.628906 L 8.925781 119.804688 "/>
</g>
</svg>
