<?xml version="1.0" encoding="UTF-8"?>
<svg xmlns="http://www.w3.org/2000/svg" xmlns:xlink="http://www.w3.org/1999/xlink" width="175px" height="366px" viewBox="0 0 175 366" version="1.1">
<g id="surface1">
<path style=" stroke:none;fill-rule:evenodd;fill:rgb(0%,0%,0%);fill-opacity:1;" d="M 54.863281 72.015625 L 55.210938 72.410156 L 55.914062 73.023438 L 70.613281 72.847656 C 71.050781 72.730469 71.339844 72.601562 71.488281 72.453125 L 72.101562 72.324219 L 74.550781 71.972656 L 80.761719 70.785156 L 83.386719 70.304688 L 91.480469 68.722656 L 91.65625 68.679688 L 92.179688 68.546875 L 92.792969 68.371094 C 94.660156 67.816406 97.359375 66.894531 100.886719 65.609375 L 103.335938 64.6875 L 104.34375 64.335938 L 106.007812 63.675781 L 106.398438 63.941406 L 106.792969 63.589844 L 108.980469 62.007812 C 107.261719 56.742188 105.800781 54.109375 104.605469 54.109375 L 101.894531 54.460938 C 101.835938 54.082031 101.574219 53.890625 101.105469 53.890625 C 100.785156 53.890625 100.390625 54.183594 99.925781 54.769531 L 99.882812 54.769531 L 97.519531 55.46875 L 97.167969 55.425781 C 96.117188 55.425781 95.082031 55.691406 94.0625 56.214844 L 93.667969 56.4375 L 93.582031 56.171875 C 81.738281 59.273438 72.289062 60.824219 65.230469 60.824219 L 56.351562 60.5625 L 55.210938 61.351562 C 53.8125 62.347656 53.113281 63.546875 53.113281 64.949219 L 53.113281 65.257812 C 53.113281 66.25 53.171875 66.925781 53.289062 67.277344 L 54.207031 70.480469 L 54.335938 70.917969 L 54.292969 71.226562 C 54.292969 71.664062 54.484375 71.925781 54.863281 72.015625 M 51.492188 66.878906 L 51.582031 64.992188 L 51.449219 64.246094 C 51.480469 63.222656 51.640625 62.359375 51.929688 61.660156 L 51.492188 60.472656 L 25.375 60.296875 L 24.980469 60.691406 L 24.324219 60.605469 C 23.742188 60.546875 23.171875 60.386719 22.617188 60.121094 L 20.605469 59.816406 L 20.039062 59.902344 L 19.511719 59.726562 L 16.011719 58.851562 C 13.855469 58.851562 12.761719 61 12.730469 65.300781 C 12.730469 67.347656 13.679688 68.78125 15.574219 69.601562 L 17.324219 70.257812 L 17.5 69.953125 L 18.070312 69.996094 L 22.136719 71.09375 L 29.398438 72.324219 L 43.664062 73.113281 L 52.324219 73.023438 L 52.414062 72.410156 L 52.5 71.925781 C 51.945312 70.785156 51.609375 69.105469 51.492188 66.878906 M 57.882812 66.179688 C 57.648438 66.179688 57.445312 66.515625 57.269531 67.1875 L 58.054688 67.847656 L 59.324219 67.496094 C 59.148438 67.320312 59.046875 66.996094 59.019531 66.53125 C 58.988281 66.296875 58.609375 66.179688 57.882812 66.179688 M 56.65625 65.082031 C 57.066406 64.640625 57.546875 64.421875 58.101562 64.421875 C 58.597656 64.421875 59.046875 64.570312 59.457031 64.863281 C 60.242188 65.386719 60.898438 66.414062 61.425781 67.933594 C 61.425781 68.402344 60.972656 68.8125 60.070312 69.164062 C 59.28125 69.457031 58.550781 69.601562 57.882812 69.601562 C 56.101562 69.601562 55.34375 68.78125 55.605469 67.144531 C 55.605469 66.761719 55.796875 66.265625 56.175781 65.652344 L 56.65625 65.082031 M 64.96875 59.070312 C 71.824219 59.070312 82.367188 57.34375 96.601562 53.890625 L 97.605469 53.933594 L 99.3125 53.320312 C 101.207031 52.675781 102.972656 52.355469 104.605469 52.355469 C 107.261719 52.355469 109.273438 55.644531 110.644531 62.230469 L 108.457031 64.597656 C 109.738281 67.085938 110.382812 68.519531 110.382812 68.898438 L 110.382812 69.339844 C 111.867188 72.996094 112.421875 75.933594 112.042969 78.160156 C 113.121094 78.335938 113.664062 78.757812 113.664062 79.433594 C 113.664062 79.8125 113.488281 80.222656 113.136719 80.660156 L 112.613281 81.449219 L 113.09375 82.066406 C 113.210938 81.917969 113.386719 81.832031 113.617188 81.800781 L 113.75 81.625 L 113.835938 81.757812 L 114.011719 81.757812 C 115.414062 81.757812 116.113281 82.636719 116.113281 84.390625 C 116.113281 84.886719 115.894531 85.457031 115.457031 86.101562 C 115.019531 86.773438 114.800781 87.550781 114.800781 88.429688 C 114.800781 89.890625 115.558594 93.445312 117.074219 99.09375 C 118.476562 105.527344 119.175781 109.070312 119.175781 109.710938 C 119.175781 110.707031 118.984375 111.277344 118.605469 111.421875 L 119.132812 116.691406 L 120.882812 128.757812 L 120.835938 128.976562 L 122.414062 132.972656 L 122.324219 133.542969 L 122.105469 133.761719 L 122.28125 134.199219 L 120.664062 137.449219 L 120.136719 137.972656 L 120.09375 138.019531 C 118.460938 140.621094 117.484375 142.609375 117.164062 143.988281 C 116.871094 145.214844 116.726562 146.808594 116.726562 148.769531 L 116.726562 153.160156 L 117.074219 153.203125 L 117.164062 153.554688 C 117.164062 155.074219 116.183594 157.941406 114.230469 162.15625 L 111.738281 167.15625 L 111.824219 167.640625 L 111.824219 168.78125 C 111.972656 169.25 112.523438 169.644531 113.488281 169.964844 L 113.574219 169.964844 L 114.230469 170.097656 L 114.230469 170.1875 L 114.320312 170.1875 L 114.273438 170.273438 L 114.320312 170.449219 C 114.320312 170.828125 114.171875 171.121094 113.882812 171.328125 C 113.882812 171.707031 114.1875 172.203125 114.800781 172.820312 L 114.929688 172.820312 C 115.136719 173.257812 115.472656 173.59375 115.9375 173.828125 L 120.664062 176.988281 C 124.511719 179.328125 127.285156 180.792969 128.976562 181.375 C 128.917969 181.816406 128.625 182.035156 128.101562 182.035156 L 126.613281 181.859375 L 126.261719 182.035156 L 125.167969 181.816406 L 119.875 181.769531 L 119.699219 181.816406 L 119.480469 181.769531 L 114.449219 181.726562 L 109.15625 181.859375 L 108.105469 182.035156 L 107.539062 181.945312 L 107.539062 181.902344 L 103.292969 182.035156 L 101.632812 182.296875 L 87.542969 182.824219 C 85.792969 183.46875 84 183.789062 82.164062 183.789062 L 80.019531 183.484375 L 79.976562 183.175781 L 80.019531 183.085938 C 78.996094 182.328125 77.976562 180.058594 76.957031 176.285156 L 75.382812 170.625 L 74.289062 189.1875 L 73.761719 189.496094 L 73.675781 189.40625 L 73.675781 189.449219 L 72.144531 189.671875 L 54.511719 189.933594 L 53.460938 190.109375 L 52.457031 190.328125 L 52.148438 190.328125 L 51.667969 190.371094 L 43.96875 191.292969 L 35.699219 192.785156 L 27.78125 194.058594 L 27.695312 194.367188 L 27.082031 194.542969 L 27.082031 194.671875 C 29.53125 201.988281 31.078125 207.503906 31.71875 211.21875 L 31.457031 211.4375 L 33.46875 215.738281 L 33.382812 216.308594 L 33.25 216.351562 C 33.074219 216.644531 30.84375 217.785156 26.554688 219.777344 L 19.730469 222.847656 L 19.511719 222.847656 L 19.074219 222.539062 L 19.03125 222.234375 L 19.207031 221.96875 C 18.214844 218.867188 17.484375 215.035156 17.019531 210.472656 C 16.582031 204.855469 16.160156 200.65625 15.75 197.878906 L 14 185.371094 C 13.796875 184.023438 13.082031 181.609375 11.855469 178.128906 L 11.726562 177.734375 L 12.074219 177.910156 L 11.679688 177.03125 L 10.324219 176.769531 C 9.859375 176.5625 9.625 175.804688 9.625 174.488281 L 9.625 171.503906 L 9.40625 170.230469 L 9.054688 169.089844 L 8.050781 169.089844 C 7.117188 169.089844 6.316406 167.859375 5.644531 165.402344 C 5.089844 163.324219 4.8125 161.378906 4.8125 159.566406 L 4.8125 150.21875 C 4.8125 148.871094 4.011719 145.742188 2.40625 140.828125 C 0.800781 135.882812 0 132.765625 0 131.480469 L 0.0429688 131.214844 L 0 131.039062 L 0.175781 130.953125 L 0.480469 130.734375 L 0.480469 130.6875 L 0.570312 130.863281 L 3.0625 130.382812 C 5.628906 129.914062 7.757812 129.300781 9.449219 128.539062 L 10.632812 128.1875 C 10.804688 127.808594 11.214844 127.691406 11.855469 127.835938 L 12.03125 125.730469 C 12.410156 121.515625 12.628906 118.183594 12.6875 115.722656 L 12.554688 115.769531 L 12.554688 115.722656 C 12.644531 113.089844 12.820312 110.957031 13.082031 109.316406 L 13.167969 109.316406 C 12.933594 108.410156 12.890625 106.992188 13.039062 105.058594 C 13.417969 96.839844 13.824219 91.015625 14.261719 87.59375 L 13.867188 87.59375 L 14.132812 85.796875 C 13.605469 85.707031 13.417969 84.976562 13.5625 83.601562 C 13.707031 78.421875 13.957031 74.707031 14.304688 72.453125 L 14 72.453125 L 14.21875 71.488281 C 12.992188 70.992188 12.117188 70.027344 11.59375 68.59375 C 11.183594 67.507812 11.011719 66.414062 11.070312 65.300781 C 11.15625 59.886719 12.410156 57.183594 14.832031 57.183594 C 16.320312 57.183594 18.492188 57.589844 21.351562 58.410156 L 21.917969 58.585938 L 53.855469 58.804688 L 64.96875 59.070312 M 61.207031 74.824219 L 61.207031 74.867188 C 61.207031 75.453125 60.898438 75.746094 60.289062 75.746094 L 57.3125 75.480469 L 58.011719 77.765625 L 58.101562 78.554688 L 58.230469 78.597656 L 59.542969 84.523438 L 61.863281 94.394531 C 62.589844 97.964844 64.632812 104.546875 67.988281 114.144531 L 67.945312 114.671875 C 68.703125 116.015625 69.664062 118.546875 70.832031 122.261719 L 70.570312 123.097656 L 73.980469 132.269531 C 77.363281 141.105469 81.230469 154.546875 85.574219 172.597656 L 85.835938 172.644531 L 85.882812 172.730469 L 86.363281 173.34375 L 86.40625 173.566406 C 87.078125 174.179688 90.808594 174.488281 97.605469 174.488281 L 110.863281 173.785156 L 111.824219 173.914062 L 112.351562 173.390625 L 112.085938 173.082031 L 113.617188 172.863281 C 113.066406 172.132812 112.789062 171.546875 112.789062 171.105469 L 112.832031 170.800781 C 111.429688 170.59375 110.6875 169.789062 110.601562 168.386719 C 110.308594 168.296875 110.164062 168.078125 110.164062 167.726562 L 110.25 167.203125 L 110.425781 166.804688 L 110.425781 166.632812 C 110.6875 165.898438 111.199219 165.023438 111.957031 163.996094 C 113.179688 162.300781 113.824219 161.042969 113.882812 160.222656 L 115.019531 156.539062 C 115.339844 155.28125 115.675781 154.328125 116.023438 153.683594 C 115.761719 152.691406 115.632812 151.226562 115.632812 149.296875 C 115.632812 146.050781 116.011719 143.503906 116.769531 141.660156 C 117.148438 140.753906 117.820312 139.539062 118.78125 138.019531 L 120.707031 134.332031 L 120.398438 133.542969 L 120.355469 133.453125 L 120.53125 133.453125 C 120.007812 132.019531 119.613281 130.292969 119.351562 128.277344 L 118.257812 124.5 L 118.257812 124.414062 L 118.082031 123.886719 C 118.285156 123.359375 118.386719 122.671875 118.386719 121.824219 C 118.386719 120.828125 118.125 119.425781 117.601562 117.613281 L 117.117188 115.152344 L 117.90625 117.347656 L 118.167969 118.183594 L 118.039062 117.214844 L 117.117188 112.785156 C 117.148438 111.320312 117.003906 109.875 116.679688 108.441406 L 116.945312 108.441406 C 114.40625 98.023438 113.136719 91.355469 113.136719 88.429688 L 113.136719 86.367188 C 113.136719 85.664062 113.574219 85.003906 114.449219 84.390625 L 113.136719 82.765625 L 111.167969 82.765625 L 111.429688 82.589844 L 111.738281 82.460938 L 111.695312 82.414062 C 111.402344 81.859375 111.257812 81.507812 111.257812 81.363281 L 112.480469 79.5625 C 111.226562 79.242188 110.601562 78.742188 110.601562 78.070312 C 110.601562 77.75 110.820312 77.222656 111.257812 76.492188 C 111.257812 75.496094 110.277344 72.804688 108.324219 68.417969 L 108.761719 68.023438 L 107.449219 65.609375 C 106.574219 66.367188 105.949219 66.75 105.570312 66.75 L 105.261719 66.75 L 105.132812 66.792969 L 104.125 67.144531 L 103.46875 67.320312 L 101.851562 67.714844 L 101.105469 67.496094 C 100.640625 67.496094 100.363281 67.699219 100.273438 68.109375 L 93.886719 69.820312 C 84.203125 72.863281 73.308594 74.53125 61.207031 74.824219 M 52.675781 90.667969 C 52.878906 88.414062 53.402344 85.53125 54.25 82.019531 C 54.921875 79.269531 55.460938 77.355469 55.867188 76.273438 L 55.824219 75.613281 L 56 75.085938 L 55.5625 74.910156 L 46.023438 74.910156 C 45.644531 74.5 44.214844 74.296875 41.738281 74.296875 L 38.675781 74.734375 C 26.890625 74.355469 19.46875 73.375 16.40625 71.796875 L 15.882812 71.796875 L 15.835938 71.972656 L 14.699219 82.066406 L 14.917969 82.152344 L 14.960938 82.414062 L 14.917969 83.46875 L 14.917969 84.171875 L 15.136719 83.953125 C 15.253906 84.15625 15.488281 84.273438 15.835938 84.304688 L 15.882812 84.347656 L 15.96875 84.566406 L 16.011719 85.179688 L 15.792969 87.59375 L 15.664062 89.21875 L 15.226562 89.875 C 15.226562 90.082031 15.339844 90.257812 15.574219 90.402344 L 15.355469 95.1875 C 15.355469 98.054688 15.253906 100.042969 15.050781 101.15625 C 14.816406 102.238281 14.699219 103.566406 14.699219 105.148438 L 15.136719 109.316406 L 15.136719 109.535156 C 15.136719 110.210938 14.847656 110.546875 14.261719 110.546875 L 13.914062 115.898438 L 13.695312 115.769531 L 13.695312 115.898438 L 13.78125 117.214844 L 13.78125 119.980469 C 13.78125 120.976562 13.429688 123.667969 12.730469 128.054688 L 12.90625 128.320312 L 12.644531 128.757812 L 12.46875 129.722656 L 12.425781 129.941406 L 12.382812 130.601562 C 12.527344 130.746094 12.613281 131.039062 12.644531 131.480469 L 12.6875 131.699219 L 12.644531 133.410156 L 12.382812 136.261719 L 12.425781 137.273438 L 12.25 139.070312 L 11.988281 143.152344 L 11.855469 143.722656 L 11.855469 144.25 L 11.8125 144.46875 L 11.8125 144.820312 C 11.609375 144.964844 11.507812 145.246094 11.507812 145.652344 L 11.769531 147.191406 L 10.675781 164.566406 L 10.804688 165.972656 C 10.398438 166.089844 10.195312 166.382812 10.195312 166.851562 C 10.195312 167.289062 10.398438 167.742188 10.804688 168.210938 L 10.761719 170.492188 L 10.980469 170.886719 L 10.71875 172.027344 L 10.71875 174.925781 C 10.746094 175.773438 13.445312 176.359375 18.8125 176.679688 L 23.757812 177.03125 L 24.851562 177.121094 L 31.148438 177.03125 L 31.761719 177.25 L 32.15625 177.03125 L 45.105469 176.550781 L 45.761719 176.023438 L 45.632812 173.871094 L 45.761719 170.1875 C 46.347656 169.511719 46.636719 168.898438 46.636719 168.34375 C 46.609375 167.757812 46.300781 167.464844 45.71875 167.464844 L 45.71875 161.714844 L 46.855469 160.882812 C 46.855469 160.296875 46.535156 160.003906 45.894531 160.003906 L 45.71875 160.136719 L 45.71875 153.730469 C 45.398438 153.613281 45.398438 153.480469 45.71875 153.332031 L 45.71875 153.289062 L 45.804688 145.566406 L 46.460938 137.578125 C 46.726562 136.820312 46.855469 136.246094 46.855469 135.867188 C 46.855469 135.429688 46.695312 135.164062 46.375 135.078125 L 46.375 134.8125 C 46.375 132.445312 46.710938 129.183594 47.382812 125.027344 C 47.496094 123.976562 47.703125 122.820312 47.992188 121.5625 L 49.394531 114.582031 C 49.949219 112.039062 50.488281 109.785156 51.011719 107.824219 C 51.390625 107.296875 51.582031 106.84375 51.582031 106.464844 L 51.40625 105.894531 L 51.582031 104.710938 L 52.542969 95.800781 L 52.542969 92.859375 L 52.675781 91.9375 L 52.675781 90.667969 M 102.988281 57.007812 L 102.8125 56.742188 L 102.769531 56.4375 C 103.644531 57.34375 104.140625 58.105469 104.257812 58.71875 L 104.429688 59.769531 L 102.988281 57.007812 M 55.300781 101.59375 L 55.082031 102.078125 L 55.34375 101.59375 L 55.300781 101.59375 M 67.507812 140.78125 C 68.175781 143.679688 68.980469 146.164062 69.914062 148.242188 L 69.476562 148.683594 L 73.457031 160.53125 C 77.015625 171.238281 79.582031 178.613281 81.15625 182.648438 L 87.324219 181.726562 L 108.414062 180.542969 C 109.929688 179.3125 110.847656 178.347656 111.167969 177.644531 L 111.476562 176.855469 C 111.476562 175.976562 111.621094 175.320312 111.914062 174.882812 L 111.738281 174.75 L 97.824219 175.671875 L 87.414062 175.363281 L 86.449219 174.355469 L 85.835938 174.003906 L 85.355469 174.355469 L 85.050781 173.476562 L 84.789062 173.257812 L 84.917969 173.082031 C 83.402344 168.722656 81.519531 162.214844 79.273438 153.554688 C 76.882812 144.394531 74.785156 137.476562 72.976562 132.796875 L 62.738281 108.089844 L 62.738281 108.042969 L 61.46875 109.273438 L 61.382812 109.757812 L 62.082031 110.808594 C 62.429688 111.277344 62.578125 111.6875 62.519531 112.039062 L 62.914062 113.046875 L 62.824219 113.617188 L 62.695312 113.792969 L 61.730469 115.023438 L 62.914062 117.917969 L 63.480469 119.5 L 63.832031 120.199219 L 63.875 120.640625 L 64.445312 123.230469 L 64.617188 124.457031 C 64.996094 125.070312 65.085938 125.582031 64.882812 125.992188 L 64.835938 126.167969 L 65.539062 131.609375 L 67.199219 139.464844 L 67.332031 139.464844 L 67.636719 140.738281 L 67.507812 140.738281 L 67.507812 140.78125 M 61.949219 113.136719 L 62.167969 113.179688 L 62.082031 113.046875 L 61.949219 113.136719 M 63.304688 125.863281 L 63.351562 126.125 L 63.351562 139.464844 L 66.019531 139.464844 L 64.445312 131.785156 L 63.699219 126.167969 L 63.304688 125.863281 M 47.382812 137.359375 L 47.25 139.421875 L 47.335938 139.421875 L 47.46875 136.4375 L 47.382812 137.359375 M 64.269531 152.015625 L 65.757812 152.191406 L 68.074219 152.585938 L 69.429688 152.632812 C 68.46875 149.53125 67.972656 147.628906 67.945312 146.925781 C 67.476562 145.84375 67.011719 144.265625 66.542969 142.1875 L 66.28125 140.828125 L 64.269531 140.871094 L 63.875 140.871094 L 63.21875 141.003906 L 62.695312 141.003906 L 61.863281 140.957031 L 59.324219 141.003906 L 59.324219 140.78125 L 58.320312 140.78125 L 54.292969 140.476562 L 53.15625 140.519531 C 53.070312 140.375 52.953125 140.300781 52.804688 140.300781 C 52.660156 140.300781 52.542969 140.386719 52.457031 140.5625 L 47.292969 140.78125 L 47.164062 140.78125 L 47.03125 143.941406 L 46.636719 151.007812 L 46.769531 152.71875 L 46.769531 152.851562 L 47.074219 152.808594 L 52.804688 152.5 L 52.9375 152.542969 L 53.070312 152.457031 L 59.0625 152.105469 L 59.195312 145.828125 L 59.542969 150.21875 L 59.675781 151.972656 L 60.332031 151.972656 L 61.074219 151.796875 L 64.269531 152.015625 M 69.695312 153.464844 L 67.945312 153.554688 L 64.664062 153.640625 L 64.445312 153.640625 L 64.445312 153.816406 L 64.617188 154.253906 L 63.960938 161.933594 L 63.832031 168.429688 L 64.835938 168.429688 L 64.835938 168.472656 L 64.882812 168.472656 C 67.183594 168.53125 68.496094 168.722656 68.820312 169.042969 L 73.414062 169.132812 L 73.5 168.429688 L 73.238281 167.816406 L 73.195312 165.710938 C 73.195312 165.035156 73.238281 164.480469 73.324219 164.042969 C 72.683594 162.375 71.734375 159.652344 70.480469 155.878906 L 69.695312 153.464844 M 59.019531 153.160156 L 59.0625 153.332031 L 59.0625 153.160156 L 59.019531 153.160156 M 64.574219 170.140625 L 59.105469 170.1875 L 56.832031 170.140625 L 53.375 170.1875 L 53.332031 170.097656 L 52.457031 170.097656 L 52.457031 170.1875 L 50.226562 170.1875 L 46.417969 170.011719 L 46.417969 174.488281 C 46.566406 175.335938 46.796875 176.066406 47.117188 176.679688 L 47.074219 176.769531 L 47.164062 176.722656 L 47.90625 177.691406 L 46.726562 177.777344 L 46.726562 178.304688 L 46.199219 178.523438 L 46.023438 177.910156 L 45.019531 178.085938 L 43.882812 177.910156 C 38.253906 178.171875 31.222656 178.304688 22.792969 178.304688 L 25.289062 185.5 C 26.277344 185.148438 28.613281 184.550781 32.289062 183.703125 C 38.996094 182.179688 44.214844 180.820312 47.949219 179.621094 C 49.175781 179.242188 50.589844 178.902344 52.195312 178.613281 L 52.414062 178.523438 L 53.242188 178.390625 L 55.5625 178.039062 L 62.429688 176.679688 L 63.613281 176.242188 L 63.742188 176.199219 L 63.960938 176.152344 L 67.507812 174.792969 C 69.898438 173.945312 71.824219 173.449219 73.28125 173.300781 L 73.414062 170.097656 L 65.976562 170.097656 L 64.574219 170.140625 M 63.960938 177.382812 L 62.519531 177.558594 L 62.386719 177.558594 L 53.023438 179.707031 L 52.980469 179.664062 L 52.28125 179.839844 L 52.195312 179.839844 L 52.195312 179.929688 L 49.917969 180.410156 C 40.496094 183.335938 33.660156 185.195312 29.398438 185.984375 C 28.523438 185.867188 27.78125 185.984375 27.167969 186.335938 L 25.769531 186.421875 L 25.636719 186.421875 L 25.636719 186.46875 C 26.601562 189.21875 27.242188 191.25 27.5625 192.566406 C 29.019531 192.097656 31.296875 191.644531 34.386719 191.207031 L 51.582031 189.1875 L 51.625 189.1875 L 52.457031 189.054688 L 55.824219 188.660156 L 64.445312 188.617188 L 73.414062 188.878906 L 73.367188 188.660156 C 73.105469 188.308594 72.976562 187.726562 72.976562 186.90625 L 73.414062 179.183594 L 73.324219 175.453125 L 73.195312 174.96875 L 73.238281 174.617188 L 65.144531 176.898438 L 64.882812 176.988281 L 63.960938 177.382812 M 60.8125 175.011719 L 60.898438 174.96875 C 60.695312 175.40625 60.054688 175.816406 58.976562 176.199219 L 60.8125 175.011719 M 110.992188 180.453125 L 110.90625 180.542969 L 111.167969 180.542969 L 111.167969 180.5 L 110.992188 180.453125 M 10.71875 129.546875 L 10.195312 129.679688 C 6.546875 130.675781 3.515625 131.347656 1.09375 131.699219 C 3.398438 136 4.839844 142.085938 5.425781 149.953125 L 6.210938 159.566406 C 6.589844 163.019531 7.21875 165.796875 8.09375 167.902344 L 8.96875 167.726562 L 8.925781 166.851562 L 8.835938 166.105469 L 7.480469 154.167969 L 4.59375 134.769531 C 4.59375 133.660156 5.367188 132.796875 6.914062 132.179688 C 7.671875 131.859375 8.941406 131.492188 10.71875 131.085938 L 10.71875 129.546875 M 9.929688 159.214844 L 9.886719 159.214844 L 9.886719 159.742188 L 9.929688 159.214844 M 25.726562 192.347656 L 25.8125 191.511719 L 25.769531 191.03125 C 25.710938 190.738281 25.519531 190.59375 25.199219 190.59375 L 25.113281 190.636719 C 23.917969 187.066406 22.824219 182.957031 21.832031 178.304688 L 19.25 178.261719 L 21.085938 177.953125 L 15.53125 177.46875 L 13.605469 177.25 L 13.957031 178.390625 L 14 178.65625 L 14 179.753906 L 13.519531 179.972656 C 14.917969 184.710938 16.011719 190.152344 16.800781 196.296875 L 16.800781 196.386719 L 18.199219 208.714844 C 18.753906 213.542969 19.394531 217.609375 20.125 220.917969 L 20.125 221.3125 C 21.058594 220.726562 22.589844 219.9375 24.71875 218.941406 C 28.015625 217.363281 30.332031 216.351562 31.675781 215.914062 C 29.691406 214.042969 27.738281 207.371094 25.8125 195.902344 L 25.945312 194.277344 L 25.636719 194.015625 L 25.59375 193.707031 L 25.988281 193.179688 L 25.988281 193.136719 L 25.726562 192.347656 "/>
<path style=" stroke:none;fill-rule:evenodd;fill:rgb(67.843139%,47.843137%,50.588238%);fill-opacity:1;" d="M 118.257812 124.5 L 117.6875 124.5 L 118.082031 123.886719 L 118.257812 124.414062 L 118.257812 124.5 "/>
<path style=" stroke:none;fill-rule:evenodd;fill:rgb(20%,20%,20%);fill-opacity:1;" d="M 117.117188 115.152344 L 117.074219 113.136719 L 117.117188 112.785156 L 118.039062 117.214844 L 117.90625 117.347656 L 117.117188 115.152344 M 102.8125 56.742188 L 102.988281 57.007812 L 102.855469 57.09375 L 102.8125 56.742188 M 67.636719 140.738281 L 67.332031 139.464844 L 67.199219 139.464844 L 65.539062 131.609375 L 64.835938 126.167969 L 64.882812 125.992188 C 65.085938 125.582031 64.996094 125.070312 64.617188 124.457031 L 64.445312 123.230469 L 63.875 120.640625 L 63.832031 120.199219 L 63.480469 119.5 L 62.914062 117.917969 L 61.730469 115.023438 L 62.695312 113.792969 L 62.824219 113.617188 L 62.914062 113.046875 L 62.519531 112.039062 C 62.578125 111.6875 62.429688 111.277344 62.082031 110.808594 L 61.382812 109.757812 L 61.46875 109.273438 L 62.738281 108.042969 L 62.738281 108.089844 L 72.976562 132.796875 C 74.785156 137.476562 76.882812 144.394531 79.273438 153.554688 C 81.519531 162.214844 83.402344 168.722656 84.917969 173.082031 L 84.789062 173.257812 L 85.050781 173.476562 L 85.355469 174.355469 L 85.835938 174.003906 L 86.449219 174.355469 L 87.414062 175.363281 L 97.824219 175.671875 L 111.738281 174.75 L 111.914062 174.882812 C 111.621094 175.320312 111.476562 175.976562 111.476562 176.855469 L 111.167969 177.644531 C 110.847656 178.347656 109.929688 179.3125 108.414062 180.542969 L 87.324219 181.726562 L 81.15625 182.648438 C 79.582031 178.613281 77.015625 171.238281 73.457031 160.53125 L 69.476562 148.683594 L 69.914062 148.242188 C 68.980469 146.164062 68.175781 143.679688 67.507812 140.78125 L 67.636719 140.738281 M 63.304688 125.863281 L 63.699219 126.167969 L 64.445312 131.785156 L 66.019531 139.464844 L 63.351562 139.464844 L 63.351562 126.125 L 63.304688 125.863281 M 69.695312 153.464844 L 70.480469 155.878906 C 71.734375 159.652344 72.683594 162.375 73.324219 164.042969 C 73.238281 164.480469 73.195312 165.035156 73.195312 165.710938 L 73.238281 167.816406 L 73.5 168.429688 L 73.414062 169.132812 L 68.820312 169.042969 C 68.496094 168.722656 67.183594 168.53125 64.882812 168.472656 L 64.835938 168.472656 L 64.835938 168.429688 L 63.832031 168.429688 L 63.960938 161.933594 L 64.617188 154.253906 L 64.445312 153.816406 L 64.445312 153.640625 L 64.664062 153.640625 L 67.945312 153.554688 L 69.695312 153.464844 M 59.019531 153.160156 L 59.0625 153.160156 L 59.0625 153.332031 L 59.019531 153.160156 M 110.992188 180.453125 L 111.167969 180.5 L 111.167969 180.542969 L 110.90625 180.542969 L 110.992188 180.453125 M 10.71875 129.546875 L 10.71875 131.085938 C 8.941406 131.492188 7.671875 131.859375 6.914062 132.179688 C 5.367188 132.796875 4.59375 133.660156 4.59375 134.769531 L 7.480469 154.167969 L 8.835938 166.105469 L 8.925781 166.851562 L 8.96875 167.726562 L 8.09375 167.902344 C 7.21875 165.796875 6.589844 163.019531 6.210938 159.566406 L 5.425781 149.953125 C 4.839844 142.085938 3.398438 136 1.09375 131.699219 C 3.515625 131.347656 6.546875 130.675781 10.195312 129.679688 L 10.71875 129.546875 M 16.800781 196.296875 C 16.011719 190.152344 14.917969 184.710938 13.519531 179.972656 L 14 179.753906 L 14 178.65625 L 13.957031 178.390625 L 13.605469 177.25 L 15.53125 177.46875 L 21.085938 177.953125 L 19.25 178.261719 L 21.832031 178.304688 C 22.824219 182.957031 23.917969 187.066406 25.113281 190.636719 L 25.199219 190.59375 C 25.519531 190.59375 25.710938 190.738281 25.769531 191.03125 L 25.8125 191.511719 L 25.726562 192.347656 L 25.199219 192.566406 L 24.71875 191.601562 L 24.542969 191.6875 L 20.125 189.101562 C 19.773438 189.101562 19.132812 190.8125 18.199219 194.234375 L 18.375 194.585938 L 17.9375 195.59375 L 17.851562 196.558594 L 17.324219 196.734375 L 16.84375 196.296875 L 16.800781 196.296875 "/>
<path style=" stroke:none;fill-rule:evenodd;fill:rgb(100%,60.000002%,80.000001%);fill-opacity:1;" d="M 13.914062 115.898438 L 13.695312 115.898438 L 13.914062 115.898438 M 47.382812 137.359375 L 47.46875 136.4375 L 47.335938 139.421875 L 47.25 139.421875 L 47.382812 137.359375 M 47.03125 143.941406 L 47.164062 140.78125 L 47.292969 140.78125 L 47.25 141.441406 L 47.03125 143.941406 M 9.929688 159.214844 L 9.886719 159.742188 L 9.886719 159.214844 L 9.929688 159.214844 "/>
<path style=" stroke:none;fill-rule:evenodd;fill:rgb(80.000001%,80.000001%,80.000001%);fill-opacity:1;" d="M 57.882812 66.179688 C 58.609375 66.179688 58.988281 66.296875 59.019531 66.53125 C 59.046875 66.996094 59.148438 67.320312 59.324219 67.496094 L 58.054688 67.847656 L 57.269531 67.1875 C 57.445312 66.515625 57.648438 66.179688 57.882812 66.179688 M 63.21875 141.003906 L 63.875 140.871094 L 64.269531 140.871094 L 66.28125 140.828125 L 66.542969 142.1875 C 67.011719 144.265625 67.476562 145.84375 67.945312 146.925781 C 67.972656 147.628906 68.46875 149.53125 69.429688 152.632812 L 68.074219 152.585938 L 65.757812 152.191406 L 64.269531 152.015625 L 64.445312 150.480469 L 64.007812 145.390625 C 63.773438 143.226562 63.511719 141.761719 63.21875 141.003906 M 52.804688 152.5 L 47.074219 152.808594 L 46.769531 152.851562 L 46.769531 152.71875 L 46.636719 151.007812 L 47.03125 143.941406 L 47.25 141.441406 L 47.292969 140.78125 L 52.457031 140.5625 C 52.308594 140.769531 52.207031 141.148438 52.148438 141.703125 L 52.148438 143.109375 C 52.148438 144.804688 52.324219 146.238281 52.675781 147.410156 C 52.382812 150.453125 52.425781 152.148438 52.804688 152.5 M 63.742188 176.199219 C 64.09375 175.730469 64.398438 173.871094 64.664062 170.625 L 64.574219 170.140625 L 65.976562 170.097656 L 73.414062 170.097656 L 73.28125 173.300781 C 71.824219 173.449219 69.898438 173.945312 67.507812 174.792969 L 63.960938 176.152344 L 63.742188 176.199219 M 52.457031 170.1875 L 52.019531 176.8125 L 52.0625 178.347656 L 52.414062 178.523438 L 52.195312 178.613281 C 50.589844 178.902344 49.175781 179.242188 47.949219 179.621094 C 44.214844 180.820312 38.996094 182.179688 32.289062 183.703125 C 28.613281 184.550781 26.277344 185.148438 25.289062 185.5 L 22.792969 178.304688 C 31.222656 178.304688 38.253906 178.171875 43.882812 177.910156 L 45.019531 178.085938 L 46.023438 177.910156 L 46.199219 178.523438 L 46.726562 178.304688 L 46.726562 177.777344 L 47.90625 177.691406 L 47.164062 176.722656 L 47.117188 176.679688 C 46.796875 176.066406 46.566406 175.335938 46.417969 174.488281 L 46.417969 170.011719 L 50.226562 170.1875 L 52.457031 170.1875 M 52.195312 179.929688 L 51.710938 186.335938 L 51.886719 186.246094 L 51.929688 186.421875 L 52.0625 186.421875 L 52.414062 186.511719 L 56.917969 186.421875 C 60.300781 186.421875 62.226562 185.691406 62.695312 184.230469 C 63.570312 181.539062 64.007812 179.679688 64.007812 178.65625 L 64.007812 177.910156 L 63.960938 177.382812 L 64.882812 176.988281 L 65.144531 176.898438 L 73.238281 174.617188 L 73.195312 174.96875 L 73.324219 175.453125 L 73.414062 179.183594 L 72.976562 186.90625 C 72.976562 187.726562 73.105469 188.308594 73.367188 188.660156 L 73.414062 188.878906 L 64.445312 188.617188 L 55.824219 188.660156 L 52.457031 189.054688 L 51.625 189.1875 L 51.582031 189.1875 C 51.40625 188.925781 51.347656 188.472656 51.40625 187.828125 L 51.054688 186.511719 L 42.570312 187.300781 C 40.324219 187.886719 36.355469 188.179688 30.667969 188.179688 L 26.25 187.871094 L 26.03125 187.519531 C 26.351562 186.992188 26.730469 186.597656 27.167969 186.335938 C 27.78125 185.984375 28.523438 185.867188 29.398438 185.984375 C 33.660156 185.195312 40.496094 183.335938 49.917969 180.410156 L 52.195312 179.929688 M 52.238281 187.785156 L 52.28125 187.476562 L 52.148438 187.34375 L 52.238281 187.785156 "/>
<path style=" stroke:none;fill-rule:evenodd;fill:rgb(100%,40.000001%,60.000002%);fill-opacity:1;" d="M 111.429688 82.589844 L 111.695312 82.414062 L 111.738281 82.460938 L 111.429688 82.589844 M 55.300781 101.59375 L 55.34375 101.59375 L 55.082031 102.078125 L 55.300781 101.59375 M 47.117188 176.679688 L 47.164062 176.722656 L 47.074219 176.769531 L 47.117188 176.679688 "/>
<path style=" stroke:none;fill-rule:evenodd;fill:rgb(60.000002%,60.000002%,60.000002%);fill-opacity:1;" d="M 63.21875 141.003906 C 63.511719 141.761719 63.773438 143.226562 64.007812 145.390625 L 64.445312 150.480469 L 64.269531 152.015625 L 61.074219 151.796875 L 60.332031 151.972656 L 59.675781 151.972656 L 59.542969 150.21875 L 59.195312 145.828125 L 59.0625 152.105469 L 53.070312 152.457031 L 52.9375 152.542969 L 52.804688 152.5 C 52.425781 152.148438 52.382812 150.453125 52.675781 147.410156 C 52.324219 146.238281 52.148438 144.804688 52.148438 143.109375 L 52.148438 141.703125 C 52.207031 141.148438 52.308594 140.769531 52.457031 140.5625 C 52.542969 140.386719 52.660156 140.300781 52.804688 140.300781 C 52.953125 140.300781 53.070312 140.375 53.15625 140.519531 L 54.292969 140.476562 L 58.320312 140.78125 L 59.324219 140.78125 L 59.324219 141.003906 L 61.863281 140.957031 L 62.695312 141.003906 L 63.21875 141.003906 M 62.914062 148.242188 C 62.914062 148.566406 62.957031 148.828125 63.042969 149.03125 L 63.042969 149.121094 L 62.914062 148.15625 L 62.914062 148.242188 M 64.574219 170.140625 L 64.664062 170.625 C 64.398438 173.871094 64.09375 175.730469 63.742188 176.199219 L 63.613281 176.242188 L 62.429688 176.679688 L 55.5625 178.039062 L 53.242188 178.390625 L 52.414062 178.523438 L 52.0625 178.347656 L 52.019531 176.8125 L 52.457031 170.1875 L 52.457031 170.097656 L 53.332031 170.097656 L 53.375 170.1875 L 56.832031 170.140625 L 59.105469 170.1875 L 64.574219 170.140625 M 52.195312 179.929688 L 52.195312 179.839844 L 52.28125 179.839844 L 52.980469 179.664062 L 53.023438 179.707031 L 62.386719 177.558594 L 62.519531 177.558594 L 63.960938 177.382812 L 64.007812 177.910156 L 64.007812 178.65625 C 64.007812 179.679688 63.570312 181.539062 62.695312 184.230469 C 62.226562 185.691406 60.300781 186.421875 56.917969 186.421875 L 52.414062 186.511719 L 52.0625 186.421875 L 51.929688 186.421875 L 51.886719 186.246094 L 51.710938 186.335938 L 52.195312 179.929688 M 60.8125 175.011719 L 58.976562 176.199219 C 60.054688 175.816406 60.695312 175.40625 60.898438 174.96875 L 60.8125 175.011719 M 52.238281 187.785156 L 52.148438 187.34375 L 52.28125 187.476562 L 52.238281 187.785156 "/>
<path style=" stroke:none;fill-rule:evenodd;fill:rgb(100%,100%,100%);fill-opacity:1;" d="M 62.914062 148.242188 L 62.914062 148.15625 L 63.042969 149.121094 L 63.042969 149.03125 C 62.957031 148.828125 62.914062 148.566406 62.914062 148.242188 M 51.582031 189.1875 L 34.386719 191.207031 C 31.296875 191.644531 29.019531 192.097656 27.5625 192.566406 C 27.242188 191.25 26.601562 189.21875 25.636719 186.46875 L 25.769531 186.421875 L 27.167969 186.335938 C 26.730469 186.597656 26.351562 186.992188 26.03125 187.519531 L 26.25 187.871094 L 30.667969 188.179688 C 36.355469 188.179688 40.324219 187.886719 42.570312 187.300781 L 51.054688 186.511719 L 51.40625 187.828125 C 51.347656 188.472656 51.40625 188.925781 51.582031 189.1875 "/>
<path style=" stroke:none;fill-rule:evenodd;fill:rgb(20%,20%,40.000001%);fill-opacity:1;" d="M 16.800781 196.296875 L 16.84375 196.296875 L 17.324219 196.734375 L 17.851562 196.558594 L 17.9375 195.59375 L 18.375 194.585938 L 18.199219 194.234375 C 19.132812 190.8125 19.773438 189.101562 20.125 189.101562 L 24.542969 191.6875 L 24.71875 191.601562 L 25.199219 192.566406 L 25.726562 192.347656 L 25.988281 193.136719 L 25.988281 193.179688 L 25.59375 193.707031 L 25.636719 194.015625 L 25.945312 194.277344 L 25.8125 195.902344 C 27.738281 207.371094 29.691406 214.042969 31.675781 215.914062 C 30.332031 216.351562 28.015625 217.363281 24.71875 218.941406 C 22.589844 219.9375 21.058594 220.726562 20.125 221.3125 L 20.125 220.917969 C 19.394531 217.609375 18.753906 213.542969 18.199219 208.714844 L 16.800781 196.386719 L 16.800781 196.296875 "/>
<path style=" stroke:none;fill-rule:evenodd;fill:rgb(29.411766%,19.607843%,31.37255%);fill-opacity:1;" d="M 71.488281 72.453125 L 71.488281 72.324219 L 72.101562 72.324219 L 71.488281 72.453125 M 91.480469 68.722656 L 91.4375 68.679688 L 91.65625 68.679688 L 91.480469 68.722656 M 92.179688 68.546875 L 92.707031 68.328125 L 92.792969 68.371094 L 92.179688 68.546875 M 101.894531 54.460938 L 101.894531 54.898438 C 101.894531 57.621094 97.957031 60.867188 90.082031 64.640625 C 88.769531 65.285156 86.40625 66.03125 82.992188 66.878906 L 77.042969 68.285156 C 75.175781 69.015625 73.296875 69.660156 71.398438 70.214844 C 67.726562 71.269531 64.019531 71.796875 60.289062 71.796875 L 56.175781 71.664062 L 55.78125 71.796875 C 55.664062 71.941406 55.460938 72.015625 55.167969 72.015625 L 54.863281 72.015625 C 54.484375 71.925781 54.292969 71.664062 54.292969 71.226562 L 54.335938 70.917969 L 54.207031 70.480469 L 53.289062 67.277344 C 53.171875 66.925781 53.113281 66.25 53.113281 65.257812 L 53.113281 64.949219 C 53.113281 63.546875 53.8125 62.347656 55.210938 61.351562 L 56.351562 60.5625 L 65.230469 60.824219 C 72.289062 60.824219 81.738281 59.273438 93.582031 56.171875 L 93.667969 56.4375 L 94.0625 56.214844 C 95.082031 55.691406 96.117188 55.425781 97.167969 55.425781 L 97.519531 55.46875 L 99.882812 54.769531 L 99.925781 54.769531 C 100.390625 54.183594 100.785156 53.890625 101.105469 53.890625 C 101.574219 53.890625 101.835938 54.082031 101.894531 54.460938 M 18.070312 69.996094 L 17.5 69.953125 L 17.324219 70.257812 L 15.574219 69.601562 C 13.679688 68.78125 12.730469 67.347656 12.730469 65.300781 C 12.761719 61 13.855469 58.851562 16.011719 58.851562 L 19.511719 59.726562 L 20.039062 59.902344 L 20.605469 59.816406 L 22.617188 60.121094 C 23.171875 60.386719 23.742188 60.546875 24.324219 60.605469 L 24.980469 60.691406 L 25.375 60.296875 L 51.492188 60.472656 L 51.929688 61.660156 C 51.640625 62.359375 51.480469 63.222656 51.449219 64.246094 L 51.582031 64.992188 L 51.492188 66.878906 L 51.230469 68.066406 C 50.445312 69.585938 48.152344 70.289062 44.363281 70.171875 L 31.71875 69.46875 L 27.78125 69.863281 L 23.582031 70.257812 L 18.070312 69.996094 M 56.65625 65.082031 L 56.175781 65.652344 C 55.796875 66.265625 55.605469 66.761719 55.605469 67.144531 C 55.34375 68.78125 56.101562 69.601562 57.882812 69.601562 C 58.550781 69.601562 59.28125 69.457031 60.070312 69.164062 C 60.972656 68.8125 61.425781 68.402344 61.425781 67.933594 C 60.898438 66.414062 60.242188 65.386719 59.457031 64.863281 C 59.046875 64.570312 58.597656 64.421875 58.101562 64.421875 C 57.546875 64.421875 57.066406 64.640625 56.65625 65.082031 M 61.207031 74.824219 L 61.207031 74.867188 L 61.207031 74.824219 M 58.230469 78.597656 L 58.886719 78.816406 C 59.0625 78.816406 59.308594 78.65625 59.632812 78.335938 L 59.761719 78.203125 C 66.414062 78.289062 71.066406 78.1875 73.71875 77.894531 C 77.277344 77.484375 84.847656 77.28125 96.425781 77.28125 L 99.574219 77.808594 L 99.136719 79.957031 C 99.632812 80.632812 99.882812 81.15625 99.882812 81.539062 C 99.882812 81.773438 99.722656 82.035156 99.398438 82.328125 C 99.078125 82.589844 98.917969 82.941406 98.917969 83.382812 C 98.917969 83.90625 99.109375 84.304688 99.488281 84.566406 C 99.515625 84.59375 100.347656 85.050781 101.980469 85.925781 C 101.105469 86.714844 100.667969 87.257812 100.667969 87.550781 C 100.667969 88.71875 102.128906 89.496094 105.042969 89.875 L 105.175781 92.246094 L 101.632812 104.050781 C 100.929688 106.15625 98.933594 111.027344 95.636719 118.664062 L 95.636719 119.234375 C 95.753906 119.585938 96.074219 119.761719 96.601562 119.761719 L 107.363281 111.292969 L 107.449219 111.511719 C 107.566406 112.886719 108.105469 114.949219 109.070312 117.699219 C 110.058594 120.480469 110.613281 122.46875 110.730469 123.667969 L 111.082031 128.449219 C 109.828125 130.820312 108.035156 134.347656 105.699219 139.027344 C 104.765625 140.871094 102.738281 143.78125 99.617188 147.761719 C 96.820312 151.300781 95.417969 153.1875 95.417969 153.421875 L 95.417969 153.949219 C 95.535156 154.269531 95.855469 154.429688 96.382812 154.429688 C 99.296875 154.429688 103.832031 153.800781 109.988281 152.542969 C 109.257812 153.390625 107.785156 155.511719 105.570312 158.90625 C 103.03125 162.738281 101.761719 165.007812 101.761719 165.710938 C 101.761719 166.265625 101.910156 166.632812 102.199219 166.804688 C 102.957031 167.273438 104.621094 167.539062 107.1875 167.597656 L 107.757812 170.140625 C 108.515625 172.191406 109.550781 173.402344 110.863281 173.785156 L 97.605469 174.488281 C 90.808594 174.488281 87.078125 174.179688 86.40625 173.566406 L 86.363281 173.34375 L 85.882812 172.730469 L 85.835938 172.644531 L 85.574219 172.597656 C 81.230469 154.546875 77.363281 141.105469 73.980469 132.269531 L 70.570312 123.097656 L 70.832031 122.261719 C 69.664062 118.546875 68.703125 116.015625 67.945312 114.671875 L 67.988281 114.144531 C 64.632812 104.546875 62.589844 97.964844 61.863281 94.394531 L 59.542969 84.523438 L 58.230469 78.597656 M 46.023438 74.910156 L 55.5625 74.910156 L 56 75.085938 L 55.824219 75.613281 L 55.867188 76.273438 C 55.460938 77.355469 54.921875 79.269531 54.25 82.019531 C 53.402344 85.53125 52.878906 88.414062 52.675781 90.667969 C 52.558594 90.285156 52.296875 90.09375 51.886719 90.09375 C 50.226562 94.28125 48.914062 96.925781 47.949219 98.039062 C 46.667969 99.5 44.582031 102.238281 41.695312 106.246094 L 29.882812 122.746094 C 29.882812 123.242188 30.214844 123.492188 30.886719 123.492188 C 36.691406 119.484375 40.292969 116.808594 41.695312 115.460938 L 47.03125 111.644531 L 45.980469 116.207031 C 44.609375 122.703125 43.664062 126.769531 43.136719 128.40625 C 41.097656 134.8125 37.929688 140.066406 33.644531 144.160156 L 31.367188 146.269531 C 28.363281 147.378906 25.242188 147.9375 22.007812 147.9375 C 19.46875 147.9375 17.308594 147.351562 15.53125 146.179688 L 12.949219 144.425781 C 12.6875 144.425781 12.484375 144.5 12.335938 144.644531 L 12.292969 144.644531 L 11.8125 144.820312 L 11.8125 144.46875 L 11.855469 144.25 L 11.855469 143.722656 L 11.988281 143.152344 L 12.25 139.070312 L 12.425781 137.273438 L 12.382812 136.261719 L 12.644531 133.410156 L 12.6875 131.699219 L 12.644531 131.480469 C 12.613281 131.039062 12.527344 130.746094 12.382812 130.601562 L 12.425781 129.941406 L 12.46875 129.722656 L 12.644531 128.757812 L 12.90625 128.320312 L 12.730469 128.054688 C 13.429688 123.667969 13.78125 120.976562 13.78125 119.980469 L 13.78125 117.214844 L 13.695312 115.898438 L 13.914062 115.898438 L 14.261719 110.546875 C 14.847656 110.546875 15.136719 110.210938 15.136719 109.535156 L 15.136719 109.316406 L 14.699219 105.148438 C 14.699219 103.566406 14.816406 102.238281 15.050781 101.15625 C 15.253906 100.042969 15.355469 98.054688 15.355469 95.1875 L 15.574219 90.402344 L 16.84375 90.839844 C 18.183594 91.132812 19.25 91.9375 20.039062 93.253906 C 21.464844 95.566406 22.457031 96.722656 23.011719 96.722656 C 24.121094 96.722656 24.851562 95.667969 25.199219 93.5625 C 25.347656 92.742188 25.417969 91.542969 25.417969 89.964844 C 25.417969 86.832031 25.199219 84.140625 24.761719 81.890625 C 24.761719 81.539062 24.835938 81.464844 24.980469 81.667969 L 35.042969 86.058594 C 35.628906 86.058594 35.917969 85.3125 35.917969 83.820312 C 35.421875 80.863281 34.621094 78.742188 33.511719 77.457031 L 42.175781 76.050781 L 45.414062 76.140625 C 45.792969 76.109375 45.980469 75.863281 45.980469 75.394531 C 46.128906 75.1875 46.140625 75.027344 46.023438 74.910156 M 46.375 134.8125 L 46.375 135.078125 L 46.332031 135.035156 L 46.289062 134.902344 L 46.375 134.8125 M 31.148438 177.03125 L 24.851562 177.121094 L 23.757812 177.03125 L 18.8125 176.679688 C 13.445312 176.359375 10.746094 175.773438 10.71875 174.925781 L 10.71875 172.027344 L 10.980469 170.886719 L 10.761719 170.492188 L 10.804688 168.210938 C 11.738281 169.265625 13.753906 170.359375 16.84375 171.503906 C 21.304688 173.167969 26.511719 174.121094 32.460938 174.355469 L 30.976562 176.503906 L 31.148438 177.03125 M 10.804688 165.972656 L 10.675781 164.566406 L 11.769531 147.191406 C 12.117188 148.242188 12.820312 149.339844 13.867188 150.480469 C 16.492188 153.40625 20.679688 154.871094 26.425781 154.871094 C 32.113281 154.871094 37.1875 151.972656 41.648438 146.179688 L 42.175781 145.523438 L 42 146.269531 L 40.601562 154.429688 C 39.550781 159.257812 37.480469 163.355469 34.386719 166.71875 L 34.125 166.894531 C 31.324219 168.238281 28.175781 168.914062 24.675781 168.914062 C 21.757812 168.914062 18.914062 168.414062 16.144531 167.421875 L 12.074219 165.929688 C 11.785156 165.929688 11.578125 166 11.460938 166.148438 L 11.199219 165.929688 L 10.804688 165.972656 M 98.875 115.636719 L 98.789062 115.679688 L 98.832031 115.550781 L 98.875 115.636719 M 103.644531 165.402344 L 103.511719 165.402344 L 103.644531 165.269531 L 103.644531 165.402344 M 14.917969 83.46875 L 15.007812 83.511719 L 15.136719 83.953125 L 14.917969 84.171875 L 14.917969 83.46875 M 15.835938 84.304688 L 15.925781 84.304688 L 15.882812 84.347656 L 15.835938 84.304688 M 16.320312 169.308594 L 16.449219 169.351562 L 16.320312 169.308594 M 38.324219 164.304688 L 38.0625 164.4375 L 38.238281 164.21875 L 38.324219 164.304688 "/>
<path style=" stroke:none;fill-rule:evenodd;fill:rgb(8.235294%,3.529412%,11.372549%);fill-opacity:1;" d="M 71.488281 72.453125 C 71.339844 72.601562 71.050781 72.730469 70.613281 72.847656 L 55.914062 73.023438 L 55.210938 72.410156 L 54.863281 72.015625 L 55.167969 72.015625 C 55.460938 72.015625 55.664062 71.941406 55.78125 71.796875 L 56.175781 71.664062 L 60.289062 71.796875 C 64.019531 71.796875 67.726562 71.269531 71.398438 70.214844 C 73.296875 69.660156 75.175781 69.015625 77.042969 68.285156 L 82.992188 66.878906 C 86.40625 66.03125 88.769531 65.285156 90.082031 64.640625 C 97.957031 60.867188 101.894531 57.621094 101.894531 54.898438 L 101.894531 54.460938 L 104.605469 54.109375 C 105.800781 54.109375 107.261719 56.742188 108.980469 62.007812 L 106.792969 63.589844 L 106.398438 63.941406 L 106.007812 63.675781 L 104.34375 64.335938 L 103.335938 64.6875 L 100.886719 65.609375 C 97.359375 66.894531 94.660156 67.816406 92.792969 68.371094 L 92.707031 68.328125 L 92.179688 68.546875 L 91.65625 68.679688 L 91.4375 68.679688 L 91.480469 68.722656 L 83.386719 70.304688 L 80.761719 70.785156 L 74.550781 71.972656 L 72.101562 72.324219 L 71.488281 72.324219 L 71.488281 72.453125 M 18.070312 69.996094 L 23.582031 70.257812 L 27.78125 69.863281 L 31.71875 69.46875 L 44.363281 70.171875 C 48.152344 70.289062 50.445312 69.585938 51.230469 68.066406 L 51.492188 66.878906 C 51.609375 69.105469 51.945312 70.785156 52.5 71.925781 L 52.414062 72.410156 L 52.324219 73.023438 L 43.664062 73.113281 L 29.398438 72.324219 L 22.136719 71.09375 L 18.070312 69.996094 M 61.207031 74.867188 L 61.207031 74.824219 C 73.308594 74.53125 84.203125 72.863281 93.886719 69.820312 L 100.273438 68.109375 C 100.363281 67.699219 100.640625 67.496094 101.105469 67.496094 L 101.851562 67.714844 L 103.46875 67.320312 L 104.125 67.144531 L 105.132812 66.792969 L 105.261719 66.75 L 105.570312 66.75 C 105.949219 66.75 106.574219 66.367188 107.449219 65.609375 L 108.761719 68.023438 L 108.324219 68.417969 C 110.277344 72.804688 111.257812 75.496094 111.257812 76.492188 C 110.820312 77.222656 110.601562 77.75 110.601562 78.070312 C 110.601562 78.742188 111.226562 79.242188 112.480469 79.5625 L 111.257812 81.363281 C 111.257812 81.507812 111.402344 81.859375 111.695312 82.414062 L 111.429688 82.589844 L 111.167969 82.765625 L 113.136719 82.765625 L 114.449219 84.390625 C 113.574219 85.003906 113.136719 85.664062 113.136719 86.367188 L 113.136719 88.429688 C 113.136719 91.355469 114.40625 98.023438 116.945312 108.441406 L 116.679688 108.441406 C 117.003906 109.875 117.148438 111.320312 117.117188 112.785156 L 117.074219 113.136719 L 117.117188 115.152344 L 117.601562 117.613281 C 118.125 119.425781 118.386719 120.828125 118.386719 121.824219 C 118.386719 122.671875 118.285156 123.359375 118.082031 123.886719 L 117.6875 124.5 L 118.257812 124.5 L 119.351562 128.277344 C 119.613281 130.292969 120.007812 132.019531 120.53125 133.453125 L 120.355469 133.453125 L 120.398438 133.542969 L 120.707031 134.332031 L 118.78125 138.019531 C 117.820312 139.539062 117.148438 140.753906 116.769531 141.660156 C 116.011719 143.503906 115.632812 146.050781 115.632812 149.296875 C 115.632812 151.226562 115.761719 152.691406 116.023438 153.683594 C 115.675781 154.328125 115.339844 155.28125 115.019531 156.539062 L 113.882812 160.222656 C 113.824219 161.042969 113.179688 162.300781 111.957031 163.996094 C 111.199219 165.023438 110.6875 165.898438 110.425781 166.632812 L 110.425781 166.804688 L 110.25 167.203125 L 110.164062 167.726562 C 110.164062 168.078125 110.308594 168.296875 110.601562 168.386719 C 110.6875 169.789062 111.429688 170.59375 112.832031 170.800781 L 112.789062 171.105469 C 112.789062 171.546875 113.066406 172.132812 113.617188 172.863281 L 112.085938 173.082031 L 112.351562 173.390625 L 111.824219 173.914062 L 110.863281 173.785156 C 109.550781 173.402344 108.515625 172.191406 107.757812 170.140625 L 107.1875 167.597656 C 104.621094 167.539062 102.957031 167.273438 102.199219 166.804688 C 101.910156 166.632812 101.761719 166.265625 101.761719 165.710938 C 101.761719 165.007812 103.03125 162.738281 105.570312 158.90625 C 107.785156 155.511719 109.257812 153.390625 109.988281 152.542969 C 103.832031 153.800781 99.296875 154.429688 96.382812 154.429688 C 95.855469 154.429688 95.535156 154.269531 95.417969 153.949219 L 95.417969 153.421875 C 95.417969 153.1875 96.820312 151.300781 99.617188 147.761719 C 102.738281 143.78125 104.765625 140.871094 105.699219 139.027344 C 108.035156 134.347656 109.828125 130.820312 111.082031 128.449219 L 110.730469 123.667969 C 110.613281 122.46875 110.058594 120.480469 109.070312 117.699219 C 108.105469 114.949219 107.566406 112.886719 107.449219 111.511719 L 107.363281 111.292969 L 96.601562 119.761719 C 96.074219 119.761719 95.753906 119.585938 95.636719 119.234375 L 95.636719 118.664062 C 98.933594 111.027344 100.929688 106.15625 101.632812 104.050781 L 105.175781 92.246094 L 105.042969 89.875 C 102.128906 89.496094 100.667969 88.71875 100.667969 87.550781 C 100.667969 87.257812 101.105469 86.714844 101.980469 85.925781 C 100.347656 85.050781 99.515625 84.59375 99.488281 84.566406 C 99.109375 84.304688 98.917969 83.90625 98.917969 83.382812 C 98.917969 82.941406 99.078125 82.589844 99.398438 82.328125 C 99.722656 82.035156 99.882812 81.773438 99.882812 81.539062 C 99.882812 81.15625 99.632812 80.632812 99.136719 79.957031 L 99.574219 77.808594 L 96.425781 77.28125 C 84.847656 77.28125 77.277344 77.484375 73.71875 77.894531 C 71.066406 78.1875 66.414062 78.289062 59.761719 78.203125 L 59.632812 78.335938 C 59.308594 78.65625 59.0625 78.816406 58.886719 78.816406 L 58.101562 78.554688 L 58.011719 77.765625 L 57.3125 75.480469 L 60.289062 75.746094 C 60.898438 75.746094 61.207031 75.453125 61.207031 74.867188 M 46.023438 74.910156 C 46.140625 75.027344 46.128906 75.1875 45.980469 75.394531 C 45.980469 75.863281 45.792969 76.109375 45.414062 76.140625 L 42.175781 76.050781 L 33.511719 77.457031 C 34.621094 78.742188 35.421875 80.863281 35.917969 83.820312 C 35.917969 85.3125 35.628906 86.058594 35.042969 86.058594 L 24.980469 81.667969 C 24.835938 81.464844 24.761719 81.539062 24.761719 81.890625 C 25.199219 84.140625 25.417969 86.832031 25.417969 89.964844 C 25.417969 91.542969 25.347656 92.742188 25.199219 93.5625 C 24.851562 95.667969 24.121094 96.722656 23.011719 96.722656 C 22.457031 96.722656 21.464844 95.566406 20.039062 93.253906 C 19.25 91.9375 18.183594 91.132812 16.84375 90.839844 L 15.574219 90.402344 C 15.339844 90.257812 15.226562 90.082031 15.226562 89.875 L 15.664062 89.21875 L 15.792969 87.59375 L 16.011719 85.179688 L 15.96875 84.566406 L 15.882812 84.347656 L 15.925781 84.304688 L 15.835938 84.304688 C 15.488281 84.273438 15.253906 84.15625 15.136719 83.953125 L 15.007812 83.511719 L 14.917969 83.46875 L 14.960938 82.414062 L 14.917969 82.152344 L 14.699219 82.066406 L 15.835938 71.972656 L 15.882812 71.796875 L 16.40625 71.796875 C 19.46875 73.375 26.890625 74.355469 38.675781 74.734375 L 41.738281 74.296875 C 44.214844 74.296875 45.644531 74.5 46.023438 74.910156 M 11.8125 144.820312 L 12.292969 144.644531 L 12.335938 144.644531 C 12.484375 144.5 12.6875 144.425781 12.949219 144.425781 L 15.53125 146.179688 C 17.308594 147.351562 19.46875 147.9375 22.007812 147.9375 C 25.242188 147.9375 28.363281 147.378906 31.367188 146.269531 L 33.644531 144.160156 C 37.929688 140.066406 41.097656 134.8125 43.136719 128.40625 C 43.664062 126.769531 44.609375 122.703125 45.980469 116.207031 L 47.03125 111.644531 L 41.695312 115.460938 C 40.292969 116.808594 36.691406 119.484375 30.886719 123.492188 C 30.214844 123.492188 29.882812 123.242188 29.882812 122.746094 L 41.695312 106.246094 C 44.582031 102.238281 46.667969 99.5 47.949219 98.039062 C 48.914062 96.925781 50.226562 94.28125 51.886719 90.09375 C 52.296875 90.09375 52.558594 90.285156 52.675781 90.667969 L 52.675781 91.9375 L 52.542969 92.859375 L 52.542969 95.800781 L 51.582031 104.710938 L 51.40625 105.894531 L 51.582031 106.464844 C 51.582031 106.84375 51.390625 107.296875 51.011719 107.824219 C 50.488281 109.785156 49.949219 112.039062 49.394531 114.582031 L 47.992188 121.5625 C 47.703125 122.820312 47.496094 123.976562 47.382812 125.027344 C 46.710938 129.183594 46.375 132.445312 46.375 134.8125 L 46.289062 134.902344 L 46.332031 135.035156 L 46.375 135.078125 C 46.695312 135.164062 46.855469 135.429688 46.855469 135.867188 C 46.855469 136.246094 46.726562 136.820312 46.460938 137.578125 L 45.804688 145.566406 L 45.71875 153.289062 L 45.71875 153.332031 C 45.398438 153.480469 45.398438 153.613281 45.71875 153.730469 L 45.71875 160.136719 L 45.894531 160.003906 C 46.535156 160.003906 46.855469 160.296875 46.855469 160.882812 L 45.71875 161.714844 L 45.71875 167.464844 C 46.300781 167.464844 46.609375 167.757812 46.636719 168.34375 C 46.636719 168.898438 46.347656 169.511719 45.761719 170.1875 L 45.632812 173.871094 L 45.761719 176.023438 L 45.105469 176.550781 L 32.15625 177.03125 L 31.761719 177.25 L 31.148438 177.03125 L 30.976562 176.503906 L 32.460938 174.355469 C 26.511719 174.121094 21.304688 173.167969 16.84375 171.503906 C 13.753906 170.359375 11.738281 169.265625 10.804688 168.210938 C 10.398438 167.742188 10.195312 167.289062 10.195312 166.851562 C 10.195312 166.382812 10.398438 166.089844 10.804688 165.972656 L 11.199219 165.929688 L 11.460938 166.148438 C 11.578125 166 11.785156 165.929688 12.074219 165.929688 L 16.144531 167.421875 C 18.914062 168.414062 21.757812 168.914062 24.675781 168.914062 C 28.175781 168.914062 31.324219 168.238281 34.125 166.894531 L 34.386719 166.71875 C 37.480469 163.355469 39.550781 159.257812 40.601562 154.429688 L 42 146.269531 L 42.175781 145.523438 L 41.648438 146.179688 C 37.1875 151.972656 32.113281 154.871094 26.425781 154.871094 C 20.679688 154.871094 16.492188 153.40625 13.867188 150.480469 C 12.820312 149.339844 12.117188 148.242188 11.769531 147.191406 L 11.507812 145.652344 C 11.507812 145.246094 11.609375 144.964844 11.8125 144.820312 M 102.8125 56.742188 L 102.855469 57.09375 L 102.988281 57.007812 L 104.429688 59.769531 L 104.257812 58.71875 C 104.140625 58.105469 103.644531 57.34375 102.769531 56.4375 L 102.8125 56.742188 M 98.875 115.636719 L 98.832031 115.550781 L 98.789062 115.679688 L 98.875 115.636719 M 103.644531 165.402344 L 103.644531 165.269531 L 103.511719 165.402344 L 103.644531 165.402344 M 16.320312 169.308594 L 16.449219 169.351562 L 16.320312 169.308594 M 38.324219 164.304688 L 38.238281 164.21875 L 38.0625 164.4375 L 38.324219 164.304688 "/>
</g>
</svg>
