<?xml version="1.0" encoding="UTF-8"?>
<svg xmlns="http://www.w3.org/2000/svg" xmlns:xlink="http://www.w3.org/1999/xlink" width="175px" height="366px" viewBox="0 0 175 366" version="1.1">
<g id="surface1">
<path style=" stroke:none;fill-rule:evenodd;fill:rgb(0%,0%,0%);fill-opacity:1;" d="M 95.332031 38.96875 L 95.417969 38.96875 L 98.832031 41.515625 L 101.851562 42.875 C 102.460938 43.199219 102.769531 43.5625 102.769531 43.972656 C 102.769531 44.558594 102.578125 44.96875 102.199219 45.203125 C 101.527344 45.582031 101.019531 45.992188 100.667969 46.429688 L 101.019531 46.648438 L 101.105469 46.5625 C 101.398438 46.328125 101.542969 46.402344 101.542969 46.78125 L 101.542969 46.867188 L 103.335938 47.484375 C 103.980469 47.628906 104.300781 47.980469 104.300781 48.535156 C 104.300781 49.035156 104.007812 49.398438 103.425781 49.632812 C 102.839844 49.898438 102.550781 50.21875 102.550781 50.597656 C 105.175781 56.890625 106.488281 60.824219 106.488281 62.40625 L 106.488281 62.800781 L 108.980469 69.777344 C 110.207031 73.492188 111.636719 78.511719 113.269531 84.828125 C 115.515625 93.460938 116.679688 99.339844 116.769531 102.472656 C 117.292969 103.4375 117.746094 105.074219 118.125 107.386719 L 119.394531 117.214844 L 122.457031 133.015625 C 122.457031 133.484375 122.222656 133.746094 121.757812 133.804688 L 120.355469 136.480469 C 119.191406 138.675781 118.578125 140.710938 118.519531 142.582031 L 118.5625 147.058594 C 118.503906 148.929688 118.199219 150.511719 117.644531 151.796875 C 117.089844 153.113281 115.921875 156.875 114.144531 163.078125 C 113.296875 166 112.597656 168.035156 112.042969 169.175781 L 113.882812 171.328125 C 115.515625 173.460938 116.769531 174.835938 117.644531 175.453125 L 123.636719 178.039062 C 127.078125 179.503906 128.800781 180.484375 128.800781 180.980469 L 128.757812 181.375 C 128.988281 182.226562 129.105469 183.453125 129.105469 185.0625 L 129.195312 185.0625 C 129.574219 185.0625 130.023438 186.773438 130.550781 190.195312 L 131.25 195.417969 L 131.074219 196.164062 L 132.648438 203.582031 L 136.632812 223.59375 L 140.65625 243.605469 C 141.328125 247 142.859375 253.667969 145.25 263.617188 L 145.25 263.96875 C 145.484375 264.027344 145.601562 264.214844 145.601562 264.539062 C 145.601562 265.707031 140.191406 267.097656 129.367188 268.707031 L 115.980469 270.242188 L 104.082031 271.339844 L 98.042969 271.164062 L 97.867188 271.164062 L 97.605469 271.078125 L 97.5625 271.078125 L 97.429688 271.03125 L 97.257812 270.945312 C 96.820312 268.019531 96.132812 262.386719 95.199219 254.050781 C 94.265625 245.683594 93.769531 240.738281 93.710938 239.214844 C 89.308594 227.953125 86.1875 219.570312 84.351562 214.070312 C 83.328125 211.027344 82.484375 206.332031 81.8125 199.984375 L 79.757812 186.378906 L 77.699219 180.5 L 74.945312 172.292969 L 74.507812 174.398438 C 73.863281 177.910156 73.542969 181.421875 73.542969 184.929688 L 76.125 197.613281 L 78.75 211.964844 C 78.867188 213.015625 78.75 213.660156 78.398438 213.894531 L 79.667969 220.039062 L 82.425781 235.53125 L 84.960938 249.398438 C 85.136719 250.773438 85.226562 254.371094 85.226562 260.195312 C 85.3125 265.636719 85.238281 269.203125 85.007812 270.902344 C 85.179688 270.988281 85.253906 271.148438 85.226562 271.382812 L 84.699219 271.953125 L 84.570312 272.042969 L 84.523438 272.042969 C 82.511719 272.863281 76.257812 273.269531 65.757812 273.269531 L 48.605469 273.140625 L 39.769531 272.042969 C 37.113281 271.136719 35.789062 270.519531 35.789062 270.199219 L 35.832031 269.980469 C 35.042969 267.84375 34.039062 259.125 32.8125 243.824219 L 32.855469 243.253906 C 32.417969 241.117188 31.980469 236.789062 31.542969 230.265625 L 31.28125 222.890625 C 31.164062 220.082031 30.816406 217.667969 30.230469 215.648438 C 29.734375 213.894531 28.789062 211.464844 27.386719 208.367188 C 25.871094 205.089844 24.863281 202.644531 24.367188 201.035156 C 22.765625 195.917969 21.960938 191.046875 21.960938 186.421875 L 22.136719 185.195312 L 20.605469 179.09375 L 20.5625 178.917969 L 20.5625 176.417969 C 19.832031 174.222656 18.886719 170.476562 17.71875 165.183594 C 15.707031 156.054688 14.4375 148.578125 13.914062 142.757812 C 13.386719 136.613281 12.921875 124.632812 12.511719 106.816406 C 12.308594 102.222656 12.511719 99.546875 13.125 98.785156 L 15.09375 88.164062 L 15.007812 83.425781 C 15.007812 78.832031 15.355469 75.085938 16.054688 72.191406 C 15.792969 71.488281 15.445312 70.773438 15.007812 70.039062 C 14.277344 68.78125 13.914062 67.90625 13.914062 67.40625 C 13.914062 67.144531 14.277344 66.75 15.007812 66.222656 C 15.734375 65.695312 16.101562 65.242188 16.101562 64.863281 C 16.101562 64.101562 15.882812 63.339844 15.445312 62.578125 C 15.445312 62.230469 16.203125 60.839844 17.71875 58.410156 C 17.71875 57.621094 17.164062 57.109375 16.054688 56.875 C 14.917969 56.613281 14.351562 56.15625 14.351562 55.515625 C 14.351562 55.164062 15.777344 53.816406 18.636719 51.476562 L 18.289062 46.429688 L 18.507812 45.246094 L 18.289062 44.675781 C 18.289062 44.175781 19.164062 43.929688 20.914062 43.929688 C 48.125 44.28125 61.847656 44.191406 62.082031 43.664062 L 63.789062 43.488281 L 66.894531 42.832031 L 76.300781 40.59375 C 77.992188 40.242188 83.417969 38.75 92.574219 36.117188 C 93.507812 36.117188 93.988281 36.351562 94.019531 36.820312 L 95.507812 38.882812 L 95.332031 38.96875 M 125.429688 267.433594 L 125.519531 268.355469 C 125.957031 268.355469 126.175781 268.019531 126.175781 267.347656 L 132.648438 266.820312 L 137.199219 265.855469 L 144.023438 264.144531 C 143.148438 262.679688 142.011719 258.304688 140.613281 251.023438 L 135.492188 224.691406 C 133.859375 215.796875 132.535156 209.125 131.511719 204.679688 L 128.886719 194.671875 C 127.664062 191.074219 126.902344 188.308594 126.613281 186.378906 L 126.4375 184.667969 C 126.4375 183.9375 126.628906 183.542969 127.007812 183.484375 L 126.917969 183.132812 L 126.613281 181.816406 C 123.347656 181.40625 119.800781 179.546875 115.980469 176.242188 C 112.539062 173.285156 110.660156 171.164062 110.335938 169.878906 L 110.292969 169.527344 L 110.292969 169.308594 C 110.292969 168.460938 112.191406 162.214844 115.980469 150.570312 C 116.417969 149.195312 116.679688 147.597656 116.769531 145.785156 L 116.855469 141.132812 C 116.945312 139.757812 117.441406 137.945312 118.34375 135.691406 C 119.21875 133.585938 120.035156 132.371094 120.792969 132.050781 C 119.714844 128.21875 117.671875 118.285156 114.667969 102.25 C 114.667969 101.929688 114.769531 101.695312 114.976562 101.550781 L 114.230469 97.292969 L 112.699219 87.242188 C 112.144531 84.902344 110.425781 79.375 107.539062 70.65625 L 105.351562 64.554688 C 104.707031 64.554688 104.386719 64.175781 104.386719 63.414062 L 104.5625 62.449219 L 104.257812 61.703125 L 104.605469 61.613281 C 104.371094 59.480469 103.132812 55.660156 100.886719 50.160156 C 100.886719 49.75 101.179688 49.238281 101.761719 48.625 L 100.101562 48.140625 C 99.691406 48.316406 99.296875 48.40625 98.917969 48.40625 L 98.042969 48.40625 L 99.269531 47.835938 C 99.035156 47.6875 98.875 47.511719 98.789062 47.308594 C 98.058594 47.746094 97.371094 47.964844 96.730469 47.964844 C 95.769531 48.550781 95.113281 48.84375 94.761719 48.84375 L 93.710938 48.800781 C 93.214844 49.152344 92.109375 49.574219 90.386719 50.074219 C 88.199219 50.6875 86.261719 51.054688 84.570312 51.167969 L 79.230469 52.136719 L 74.199219 53.453125 L 71.792969 53.40625 L 71.925781 53.890625 C 58.625 56.902344 49.027344 58.410156 43.136719 58.410156 L 32.375 57.972656 C 27.621094 57.648438 24.542969 57.285156 23.144531 56.875 L 19.074219 56.832031 C 19.367188 57.328125 19.511719 57.914062 19.511719 58.585938 C 19.511719 58.996094 19.175781 59.710938 18.507812 60.738281 L 17.5 62.667969 L 17.980469 65.609375 C 17.136719 65.753906 16.710938 65.960938 16.710938 66.222656 C 16.710938 66.542969 17.046875 66.75 17.71875 66.835938 C 17.457031 67.1875 16.988281 67.4375 16.320312 67.582031 C 17.046875 68.988281 17.542969 70.15625 17.804688 71.09375 L 18.199219 71.003906 L 17.9375 71.839844 L 17.980469 72.324219 C 17.980469 73.199219 17.804688 73.742188 17.457031 73.945312 C 16.929688 76.519531 16.667969 79.710938 16.667969 83.511719 L 16.710938 85.664062 L 16.757812 85.839844 L 16.800781 86.367188 L 16.710938 86.847656 C 16.800781 91.414062 17.078125 96.121094 17.542969 100.980469 L 17.367188 104.402344 L 15.488281 104.402344 L 15.882812 100.804688 L 15.53125 96.460938 C 14.976562 99.53125 14.511719 101.066406 14.132812 101.066406 L 13.824219 106.902344 L 14.261719 122.394531 C 14.613281 132.285156 14.933594 138.96875 15.226562 142.449219 C 15.664062 147.6875 17.441406 156.976562 20.5625 170.316406 L 20.5625 167.070312 L 21.480469 174.222656 L 22.398438 177.996094 L 22.269531 178.480469 L 24.148438 186.378906 L 23.054688 186.378906 L 25.375 199.542969 C 25.8125 201.300781 26.730469 203.757812 28.132812 206.917969 C 29.648438 210.457031 30.640625 212.957031 31.105469 214.421875 C 31.746094 216.351562 32.15625 218.796875 32.332031 221.75 L 32.726562 229.296875 C 32.871094 230.847656 32.957031 233.308594 32.988281 236.671875 L 34.039062 243.472656 L 34.082031 243.691406 C 34.460938 245.742188 34.839844 249.851562 35.21875 256.023438 L 36.882812 269.496094 C 37.433594 269.527344 37.902344 269.65625 38.28125 269.890625 L 39.8125 270.726562 C 41.855469 271.515625 46.171875 271.910156 52.761719 271.910156 L 61.554688 271.910156 C 61.644531 272.117188 61.847656 272.21875 62.167969 272.21875 C 62.488281 272.21875 62.695312 272.117188 62.78125 271.910156 L 78.574219 271.734375 L 78.96875 271.605469 L 82.6875 271.558594 L 82.992188 271.164062 L 84 270.769531 C 83.679688 268.691406 83.648438 264.085938 83.914062 256.945312 C 84.027344 253.40625 83.503906 248.359375 82.335938 241.804688 C 78.488281 222.816406 76.5625 212.726562 76.5625 211.523438 C 76.5625 211.058594 76.722656 210.792969 77.042969 210.734375 L 76.605469 208.277344 L 75.03125 199.5 C 73.542969 193.09375 72.683594 188.71875 72.449219 186.378906 L 71.882812 186.378906 L 71.792969 185.0625 C 71.882812 182.253906 72.054688 179.460938 72.320312 176.679688 C 72.726562 172.613281 73.253906 170.039062 73.894531 168.957031 L 72.011719 162.550781 L 70.832031 159.082031 L 68.644531 150.875 L 65.449219 140.5625 L 63.351562 134.15625 C 62.738281 131.550781 62.371094 129.476562 62.257812 127.925781 L 62.039062 127.835938 C 61.890625 125.964844 61.644531 124.136719 61.292969 122.351562 L 61.164062 122.394531 L 61.164062 112.082031 L 61.554688 110.765625 C 62.199219 109.039062 63.714844 106.550781 66.105469 103.304688 C 68.46875 100.058594 70.074219 97.644531 70.917969 96.0625 L 71.882812 92.113281 C 72.320312 90.183594 72.871094 89.21875 73.542969 89.21875 L 74.15625 89.480469 L 73.894531 89.65625 C 73.953125 89.773438 74.097656 89.847656 74.332031 89.875 L 74.332031 90.445312 C 74.332031 92.875 73.703125 95.1875 72.449219 97.378906 L 68.335938 102.996094 C 65.769531 106.15625 64.019531 109.300781 63.085938 112.433594 C 63.4375 112.519531 63.613281 112.796875 63.613281 113.265625 L 63.742188 113.707031 L 63.175781 113.925781 L 62.695312 113.96875 C 62.429688 115.199219 62.300781 116.425781 62.300781 117.65625 C 62.300781 118.855469 62.386719 119.980469 62.5625 121.035156 C 62.765625 121.152344 62.824219 121.339844 62.738281 121.605469 L 62.695312 121.78125 L 62.957031 123.054688 L 63.613281 126.039062 L 63.613281 126.214844 C 64.050781 126.855469 64.503906 128.21875 64.96875 130.292969 L 64.925781 130.292969 C 64.925781 130.675781 64.953125 130.777344 65.011719 130.601562 L 65.449219 132.839844 C 66.558594 139.101562 67.289062 142.773438 67.636719 143.855469 L 70.789062 152.808594 C 72.101562 156.550781 73.019531 159.535156 73.542969 161.757812 C 74.566406 166.03125 77.027344 173.199219 80.9375 183.261719 L 82.164062 186.378906 L 81.199219 186.378906 C 81.695312 188.015625 82.265625 191.207031 82.90625 195.945312 C 84.191406 205.484375 85.078125 211.277344 85.574219 213.324219 L 90.648438 225.917969 C 93.917969 234.226562 95.550781 239.4375 95.550781 241.542969 L 95.507812 241.851562 L 95.679688 244.261719 L 96.074219 254.09375 C 96.164062 255.730469 96.980469 261.011719 98.523438 269.9375 L 98.523438 270.113281 L 102.242188 269.890625 L 116.113281 269.144531 L 122.542969 267.742188 L 125.429688 267.433594 M 18.855469 56.4375 L 19.074219 56.214844 L 22.574219 56.347656 L 22.398438 55.820312 C 22.632812 55.558594 23.128906 55.425781 23.886719 55.425781 L 30.320312 56.039062 L 43.007812 56.65625 L 56.742188 55.777344 C 58.261719 55.457031 59.527344 55.089844 60.550781 54.679688 L 67.550781 53.804688 L 71.007812 53.011719 L 71.398438 53.101562 L 73.894531 52.53125 L 74.550781 51.609375 C 75.105469 51.402344 74.738281 51.167969 73.457031 50.90625 C 73.484375 50.496094 73.792969 50.015625 74.375 49.457031 C 74.929688 48.933594 75.207031 48.492188 75.207031 48.140625 L 74.460938 47.484375 C 73.9375 47.25 73.675781 47.042969 73.675781 46.867188 C 73.675781 46.226562 74.257812 45.304688 75.425781 44.105469 C 75.425781 43.839844 74.726562 43.636719 73.324219 43.488281 L 73.28125 43.359375 L 71.136719 43.710938 L 66.761719 44.804688 L 62.605469 45.332031 L 62.167969 45.640625 L 41.519531 45.683594 L 19.773438 45.378906 C 20.242188 46.136719 20.546875 47.894531 20.695312 50.644531 L 20.78125 50.863281 L 20.824219 51.390625 C 20.824219 51.535156 20.78125 51.683594 20.695312 51.828125 L 20.738281 52.574219 L 20.386719 52.3125 L 19.46875 53.101562 L 16.625 55.121094 L 16.449219 55.296875 C 17.527344 55.5 18.316406 55.894531 18.8125 56.480469 L 18.855469 56.523438 L 18.898438 56.613281 L 18.855469 56.4375 M 48.605469 93.167969 L 50.664062 96.460938 L 53.199219 101.285156 C 53.519531 101.929688 54.660156 103.421875 56.613281 105.761719 C 58.363281 107.898438 59.238281 109.15625 59.238281 109.535156 C 59.238281 110.0625 58.929688 110.328125 58.320312 110.328125 L 57.835938 110.238281 L 57.09375 109.84375 C 54.90625 108.292969 51.785156 102.996094 47.730469 93.957031 C 47.730469 93.429688 48.023438 93.167969 48.605469 93.167969 M 62.039062 158.292969 L 62.125 158.601562 L 62.039062 158.601562 L 62.039062 158.292969 M 68.03125 157.371094 L 68.03125 157.328125 L 68.03125 157.371094 M 65.1875 158.03125 L 65.101562 157.589844 L 65.230469 158.03125 L 65.1875 158.03125 M 128.625 186.378906 L 128.667969 186.511719 L 128.625 186.378906 "/>
<path style=" stroke:none;fill-rule:evenodd;fill:rgb(0%,0.392157%,12.156863%);fill-opacity:1;" d="M 89.949219 129.546875 L 90.039062 129.503906 L 90.167969 129.855469 L 91.085938 132.621094 L 91.042969 132.621094 L 90.082031 129.855469 L 89.949219 129.546875 "/>
<path style=" stroke:none;fill-rule:evenodd;fill:rgb(20%,34.509805%,36.862746%);fill-opacity:1;" d="M 74.332031 89.875 L 74.417969 89.875 L 74.417969 90.183594 L 74.460938 90.402344 L 74.332031 90.445312 L 74.332031 89.875 M 90.039062 129.503906 L 89.949219 129.195312 L 92.226562 135.867188 L 91.085938 132.621094 L 90.167969 129.855469 L 90.039062 129.503906 M 18.8125 56.480469 L 18.855469 56.4375 L 18.898438 56.613281 L 18.855469 56.523438 L 18.8125 56.480469 "/>
<path style=" stroke:none;fill-rule:evenodd;fill:rgb(23.137255%,27.058825%,36.862746%);fill-opacity:1;" d="M 17.71875 66.835938 L 18.332031 66.835938 C 20.371094 66.835938 21.671875 66.691406 22.226562 66.398438 C 22.457031 66.28125 22.574219 66.003906 22.574219 65.5625 L 22.179688 64.421875 C 22.179688 63.3125 22.515625 62.550781 23.1875 62.140625 L 33.820312 64.90625 C 40.410156 66.484375 45.265625 67.289062 48.386719 67.320312 C 50.253906 67.347656 52.0625 66.996094 53.8125 66.265625 C 55.5625 65.535156 57.414062 65.167969 59.367188 65.167969 C 62.605469 65.199219 67.609375 65.988281 74.375 67.539062 C 78.867188 68.59375 81.507812 70.539062 82.292969 73.375 C 81.214844 75.246094 79.800781 77.238281 78.050781 79.34375 L 71.488281 86.015625 C 71.488281 86.335938 71.734375 86.714844 72.230469 87.15625 C 70.191406 89.027344 68.660156 89.964844 67.636719 89.964844 C 67.230469 89.964844 66.746094 89.640625 66.195312 89 L 65.011719 87.8125 L 60.855469 92.816406 C 60.15625 92.816406 57.339844 91.367188 52.414062 88.472656 C 47.660156 85.691406 44.128906 84.304688 41.824219 84.304688 L 41.605469 84.304688 L 41.605469 88.429688 L 42.917969 95.273438 C 41.316406 94.863281 38.761719 93.839844 35.261719 92.203125 L 35.042969 92.507812 L 42.261719 106.464844 L 41.914062 109.84375 L 41.605469 111.644531 L 41.648438 111.949219 L 41.738281 111.949219 L 41.738281 112.433594 C 41.738281 116.324219 42.671875 125 44.539062 138.457031 L 45.761719 154.648438 L 46.375 160.222656 L 47.03125 163.339844 C 47.292969 166.703125 47.863281 171.808594 48.738281 178.65625 L 48.914062 180.9375 L 48.695312 180.851562 C 48.257812 180.851562 48.039062 181.054688 48.039062 181.464844 L 49.351562 184.535156 L 49.65625 186.378906 L 50.226562 186.378906 C 51.625 189.507812 52.484375 192.039062 52.804688 193.972656 C 53.011719 195.199219 53.492188 197.292969 54.25 200.246094 C 54.949219 202.910156 55.386719 204.988281 55.5625 206.476562 C 57.3125 221.339844 58.1875 229.722656 58.1875 231.625 C 58.1875 238.382812 57.894531 244.367188 57.3125 249.574219 C 57.3125 250.042969 57.53125 250.277344 57.96875 250.277344 C 58.464844 250.277344 59.339844 249.355469 60.59375 247.511719 C 60.855469 248.300781 60.988281 249.792969 60.988281 251.988281 L 60.8125 258.703125 L 60.460938 265.414062 C 60.957031 268.195312 61.394531 270.054688 61.773438 270.988281 C 61.601562 271.105469 61.511719 271.3125 61.511719 271.605469 L 61.554688 271.910156 L 52.761719 271.910156 C 46.171875 271.910156 41.855469 271.515625 39.8125 270.726562 L 38.28125 269.890625 C 37.902344 269.65625 37.433594 269.527344 36.882812 269.496094 L 35.21875 256.023438 C 34.839844 249.851562 34.460938 245.742188 34.082031 243.691406 L 34.039062 243.472656 L 32.988281 236.671875 C 32.957031 233.308594 32.871094 230.847656 32.726562 229.296875 L 32.332031 221.75 C 32.15625 218.796875 31.746094 216.351562 31.105469 214.421875 C 30.640625 212.957031 29.648438 210.457031 28.132812 206.917969 C 26.730469 203.757812 25.8125 201.300781 25.375 199.542969 L 23.054688 186.378906 L 24.148438 186.378906 L 22.269531 178.480469 L 22.398438 177.996094 L 21.480469 174.222656 L 20.5625 167.070312 L 20.5625 170.316406 C 17.441406 156.976562 15.664062 147.6875 15.226562 142.449219 C 14.933594 138.96875 14.613281 132.285156 14.261719 122.394531 L 13.824219 106.902344 L 14.132812 101.066406 C 14.511719 101.066406 14.976562 99.53125 15.53125 96.460938 L 15.882812 100.804688 L 15.488281 104.402344 L 17.367188 104.402344 L 17.542969 100.980469 C 17.078125 96.121094 16.800781 91.414062 16.710938 86.847656 L 16.800781 86.367188 L 16.757812 85.839844 L 16.710938 85.664062 L 16.667969 83.511719 C 16.667969 79.710938 16.929688 76.519531 17.457031 73.945312 C 17.804688 73.742188 17.980469 73.199219 17.980469 72.324219 L 17.9375 71.839844 L 18.199219 71.003906 L 17.804688 71.09375 C 17.542969 70.15625 17.046875 68.988281 16.320312 67.582031 C 16.988281 67.4375 17.457031 67.1875 17.71875 66.835938 M 65.011719 130.601562 L 65.539062 130.601562 L 65.625 130.382812 L 65.757812 130.601562 L 65.886719 130.382812 L 65.757812 129.988281 L 65.886719 129.417969 C 65.886719 128.714844 65.699219 128.230469 65.320312 127.96875 C 65.113281 126.738281 65.011719 125.363281 65.011719 123.84375 C 65.011719 122.554688 65.304688 119.761719 65.886719 115.460938 C 66.089844 114.085938 66.964844 112.300781 68.511719 110.105469 C 70 108.058594 70.992188 107.035156 71.488281 107.035156 C 72.273438 107.035156 73.265625 107.429688 74.460938 108.21875 C 74.8125 108.21875 74.945312 108.148438 74.855469 108 L 75.074219 105.804688 C 74.492188 103.847656 74.199219 102.238281 74.199219 100.980469 C 74.199219 100.042969 75.308594 98.8125 77.523438 97.292969 C 80.355469 103.933594 82.789062 110.398438 84.832031 116.691406 L 89.949219 129.546875 L 90.082031 129.855469 L 91.042969 132.621094 L 92.136719 136.570312 C 92.894531 139.4375 93.582031 141.585938 94.195312 143.019531 L 94.980469 144.90625 L 96.949219 151.886719 L 97.386719 151.710938 L 98.742188 156.230469 L 102.332031 169.351562 C 103.148438 172.21875 103.789062 176.621094 104.257812 182.5625 L 104.914062 185.546875 L 104.914062 185.632812 C 104.914062 186.539062 105.394531 188.339844 106.355469 191.03125 L 107.886719 195.859375 C 107.976562 198.023438 109.507812 201.488281 112.480469 206.257812 L 116.8125 216.484375 C 118.535156 220.667969 119.714844 224.148438 120.355469 226.929688 C 121.347656 231.347656 122.207031 238.238281 122.9375 247.597656 L 125.429688 267.433594 L 122.542969 267.742188 L 116.113281 269.144531 L 102.242188 269.890625 L 98.523438 270.113281 L 98.523438 269.9375 C 96.980469 261.011719 96.164062 255.730469 96.074219 254.09375 L 95.679688 244.261719 L 95.507812 241.851562 L 95.550781 241.542969 C 95.550781 239.4375 93.917969 234.226562 90.648438 225.917969 L 85.574219 213.324219 C 85.078125 211.277344 84.191406 205.484375 82.90625 195.945312 C 82.265625 191.207031 81.695312 188.015625 81.199219 186.378906 L 82.164062 186.378906 L 80.9375 183.261719 C 77.027344 173.199219 74.566406 166.03125 73.542969 161.757812 C 73.019531 159.535156 72.101562 156.550781 70.789062 152.808594 L 67.636719 143.855469 C 67.289062 142.773438 66.558594 139.101562 65.449219 132.839844 L 65.011719 130.601562 M 81.8125 55.644531 L 81.769531 55.644531 L 81.8125 55.644531 M 59.019531 247.070312 L 58.976562 247.027344 L 59.019531 247.070312 "/>
<path style=" stroke:none;fill-rule:evenodd;fill:rgb(10.588235%,12.941177%,19.215687%);fill-opacity:1;" d="M 17.71875 66.835938 C 17.046875 66.75 16.710938 66.542969 16.710938 66.222656 C 16.710938 65.960938 17.136719 65.753906 17.980469 65.609375 L 17.5 62.667969 L 18.507812 60.738281 C 19.175781 59.710938 19.511719 58.996094 19.511719 58.585938 C 19.511719 57.914062 19.367188 57.328125 19.074219 56.832031 L 23.144531 56.875 C 24.542969 57.285156 27.621094 57.648438 32.375 57.972656 L 43.136719 58.410156 C 49.027344 58.410156 58.625 56.902344 71.925781 53.890625 L 71.792969 53.40625 L 74.199219 53.453125 L 79.230469 52.136719 L 84.570312 51.167969 C 86.261719 51.054688 88.199219 50.6875 90.386719 50.074219 C 92.109375 49.574219 93.214844 49.152344 93.710938 48.800781 L 94.761719 48.84375 C 95.113281 48.84375 95.769531 48.550781 96.730469 47.964844 C 97.371094 47.964844 98.058594 47.746094 98.789062 47.308594 C 98.875 47.511719 99.035156 47.6875 99.269531 47.835938 L 98.042969 48.40625 L 98.917969 48.40625 C 99.296875 48.40625 99.691406 48.316406 100.101562 48.140625 L 101.761719 48.625 C 101.179688 49.238281 100.886719 49.75 100.886719 50.160156 C 103.132812 55.660156 104.371094 59.480469 104.605469 61.613281 L 104.257812 61.703125 L 104.5625 62.449219 L 104.386719 63.414062 C 104.386719 64.175781 104.707031 64.554688 105.351562 64.554688 L 107.539062 70.65625 C 110.425781 79.375 112.144531 84.902344 112.699219 87.242188 L 114.230469 97.292969 L 114.976562 101.550781 C 114.769531 101.695312 114.667969 101.929688 114.667969 102.25 C 117.671875 118.285156 119.714844 128.21875 120.792969 132.050781 C 120.035156 132.371094 119.21875 133.585938 118.34375 135.691406 C 117.441406 137.945312 116.945312 139.757812 116.855469 141.132812 L 116.769531 145.785156 C 116.679688 147.597656 116.417969 149.195312 115.980469 150.570312 C 112.191406 162.214844 110.292969 168.460938 110.292969 169.308594 L 110.292969 169.527344 L 110.335938 169.878906 C 110.660156 171.164062 112.539062 173.285156 115.980469 176.242188 C 119.800781 179.546875 123.347656 181.40625 126.613281 181.816406 L 126.917969 183.132812 L 127.007812 183.484375 C 126.628906 183.542969 126.4375 183.9375 126.4375 184.667969 L 126.613281 186.378906 C 126.902344 188.308594 127.664062 191.074219 128.886719 194.671875 L 131.511719 204.679688 C 132.535156 209.125 133.859375 215.796875 135.492188 224.691406 L 140.613281 251.023438 C 142.011719 258.304688 143.148438 262.679688 144.023438 264.144531 L 137.199219 265.855469 L 132.648438 266.820312 L 126.175781 267.347656 C 126.175781 268.019531 125.957031 268.355469 125.519531 268.355469 L 125.429688 267.433594 L 122.9375 247.597656 C 122.207031 238.238281 121.347656 231.347656 120.355469 226.929688 C 119.714844 224.148438 118.535156 220.667969 116.8125 216.484375 L 112.480469 206.257812 C 109.507812 201.488281 107.976562 198.023438 107.886719 195.859375 L 106.355469 191.03125 C 105.394531 188.339844 104.914062 186.539062 104.914062 185.632812 L 104.914062 185.546875 L 104.257812 182.5625 C 103.789062 176.621094 103.148438 172.21875 102.332031 169.351562 L 98.742188 156.230469 L 97.386719 151.710938 L 96.949219 151.886719 L 94.980469 144.90625 L 94.195312 143.019531 C 93.582031 141.585938 92.894531 139.4375 92.136719 136.570312 L 91.042969 132.621094 L 91.085938 132.621094 L 92.226562 135.867188 L 89.949219 129.195312 L 90.039062 129.503906 L 89.949219 129.546875 L 84.832031 116.691406 C 82.789062 110.398438 80.355469 103.933594 77.523438 97.292969 C 75.308594 98.8125 74.199219 100.042969 74.199219 100.980469 C 74.199219 102.238281 74.492188 103.847656 75.074219 105.804688 L 74.855469 108 C 74.945312 108.148438 74.8125 108.21875 74.460938 108.21875 C 73.265625 107.429688 72.273438 107.035156 71.488281 107.035156 C 70.992188 107.035156 70 108.058594 68.511719 110.105469 C 66.964844 112.300781 66.089844 114.085938 65.886719 115.460938 C 65.304688 119.761719 65.011719 122.554688 65.011719 123.84375 C 65.011719 125.363281 65.113281 126.738281 65.320312 127.96875 C 65.699219 128.230469 65.886719 128.714844 65.886719 129.417969 L 65.757812 129.988281 L 65.886719 130.382812 L 65.757812 130.601562 L 65.625 130.382812 L 65.539062 130.601562 L 65.011719 130.601562 C 64.953125 130.777344 64.925781 130.675781 64.925781 130.292969 L 64.96875 130.292969 C 64.503906 128.21875 64.050781 126.855469 63.613281 126.214844 L 63.613281 126.039062 L 62.957031 123.054688 L 62.695312 121.78125 L 62.738281 121.605469 C 62.824219 121.339844 62.765625 121.152344 62.5625 121.035156 C 62.386719 119.980469 62.300781 118.855469 62.300781 117.65625 C 62.300781 116.425781 62.429688 115.199219 62.695312 113.96875 L 63.175781 113.925781 L 63.742188 113.707031 L 63.613281 113.265625 C 63.613281 112.796875 63.4375 112.519531 63.085938 112.433594 C 64.019531 109.300781 65.769531 106.15625 68.335938 102.996094 L 72.449219 97.378906 C 73.703125 95.1875 74.332031 92.875 74.332031 90.445312 L 74.460938 90.402344 L 74.417969 90.183594 L 74.417969 89.875 L 74.332031 89.875 C 74.097656 89.847656 73.953125 89.773438 73.894531 89.65625 L 74.15625 89.480469 L 73.542969 89.21875 C 72.871094 89.21875 72.320312 90.183594 71.882812 92.113281 L 70.917969 96.0625 C 70.074219 97.644531 68.46875 100.058594 66.105469 103.304688 C 63.714844 106.550781 62.199219 109.039062 61.554688 110.765625 L 61.164062 112.082031 L 61.164062 122.394531 L 61.292969 122.351562 C 61.644531 124.136719 61.890625 125.964844 62.039062 127.835938 L 62.257812 127.925781 C 62.371094 129.476562 62.738281 131.550781 63.351562 134.15625 L 65.449219 140.5625 L 68.644531 150.875 L 70.832031 159.082031 L 72.011719 162.550781 L 73.894531 168.957031 C 73.253906 170.039062 72.726562 172.613281 72.320312 176.679688 C 72.054688 179.460938 71.882812 182.253906 71.792969 185.0625 L 71.882812 186.378906 L 72.449219 186.378906 C 72.683594 188.71875 73.542969 193.09375 75.03125 199.5 L 76.605469 208.277344 L 77.042969 210.734375 C 76.722656 210.792969 76.5625 211.058594 76.5625 211.523438 C 76.5625 212.726562 78.488281 222.816406 82.335938 241.804688 C 83.503906 248.359375 84.027344 253.40625 83.914062 256.945312 C 83.648438 264.085938 83.679688 268.691406 84 270.769531 L 82.992188 271.164062 L 82.6875 271.558594 L 78.96875 271.605469 L 78.574219 271.734375 L 62.78125 271.910156 C 62.695312 272.117188 62.488281 272.21875 62.167969 272.21875 C 61.847656 272.21875 61.644531 272.117188 61.554688 271.910156 L 61.511719 271.605469 C 61.511719 271.3125 61.601562 271.105469 61.773438 270.988281 C 61.394531 270.054688 60.957031 268.195312 60.460938 265.414062 L 60.8125 258.703125 L 60.988281 251.988281 C 60.988281 249.792969 60.855469 248.300781 60.59375 247.511719 C 59.339844 249.355469 58.464844 250.277344 57.96875 250.277344 C 57.53125 250.277344 57.3125 250.042969 57.3125 249.574219 C 57.894531 244.367188 58.1875 238.382812 58.1875 231.625 C 58.1875 229.722656 57.3125 221.339844 55.5625 206.476562 C 55.386719 204.988281 54.949219 202.910156 54.25 200.246094 C 53.492188 197.292969 53.011719 195.199219 52.804688 193.972656 C 52.484375 192.039062 51.625 189.507812 50.226562 186.378906 L 49.65625 186.378906 L 49.351562 184.535156 L 48.039062 181.464844 C 48.039062 181.054688 48.257812 180.851562 48.695312 180.851562 L 48.914062 180.9375 L 48.738281 178.65625 C 47.863281 171.808594 47.292969 166.703125 47.03125 163.339844 L 46.375 160.222656 L 45.761719 154.648438 L 44.539062 138.457031 C 42.671875 125 41.738281 116.324219 41.738281 112.433594 L 41.738281 111.949219 L 41.648438 111.949219 L 41.605469 111.644531 L 41.914062 109.84375 L 42.261719 106.464844 L 35.042969 92.507812 L 35.261719 92.203125 C 38.761719 93.839844 41.316406 94.863281 42.917969 95.273438 L 41.605469 88.429688 L 41.605469 84.304688 L 41.824219 84.304688 C 44.128906 84.304688 47.660156 85.691406 52.414062 88.472656 C 57.339844 91.367188 60.15625 92.816406 60.855469 92.816406 L 65.011719 87.8125 L 66.195312 89 C 66.746094 89.640625 67.230469 89.964844 67.636719 89.964844 C 68.660156 89.964844 70.191406 89.027344 72.230469 87.15625 C 71.734375 86.714844 71.488281 86.335938 71.488281 86.015625 L 78.050781 79.34375 C 79.800781 77.238281 81.214844 75.246094 82.292969 73.375 C 81.507812 70.539062 78.867188 68.59375 74.375 67.539062 C 67.609375 65.988281 62.605469 65.199219 59.367188 65.167969 C 57.414062 65.167969 55.5625 65.535156 53.8125 66.265625 C 52.0625 66.996094 50.253906 67.347656 48.386719 67.320312 C 45.265625 67.289062 40.410156 66.484375 33.820312 64.90625 L 23.1875 62.140625 C 22.515625 62.550781 22.179688 63.3125 22.179688 64.421875 L 22.574219 65.5625 C 22.574219 66.003906 22.457031 66.28125 22.226562 66.398438 C 21.671875 66.691406 20.371094 66.835938 18.332031 66.835938 L 17.71875 66.835938 M 18.8125 56.480469 C 18.316406 55.894531 17.527344 55.5 16.449219 55.296875 L 16.625 55.121094 L 19.46875 53.101562 L 20.386719 52.3125 L 20.738281 52.574219 L 20.695312 51.828125 C 20.78125 51.683594 20.824219 51.535156 20.824219 51.390625 L 20.78125 50.863281 L 20.695312 50.644531 C 20.546875 47.894531 20.242188 46.136719 19.773438 45.378906 L 41.519531 45.683594 L 62.167969 45.640625 L 62.605469 45.332031 L 66.761719 44.804688 L 71.136719 43.710938 L 73.28125 43.359375 L 73.324219 43.488281 C 74.726562 43.636719 75.425781 43.839844 75.425781 44.105469 C 74.257812 45.304688 73.675781 46.226562 73.675781 46.867188 C 73.675781 47.042969 73.9375 47.25 74.460938 47.484375 L 75.207031 48.140625 C 75.207031 48.492188 74.929688 48.933594 74.375 49.457031 C 73.792969 50.015625 73.484375 50.496094 73.457031 50.90625 C 74.738281 51.167969 75.105469 51.402344 74.550781 51.609375 L 73.894531 52.53125 L 71.398438 53.101562 L 71.007812 53.011719 L 67.550781 53.804688 L 60.550781 54.679688 C 59.527344 55.089844 58.261719 55.457031 56.742188 55.777344 L 43.007812 56.65625 L 30.320312 56.039062 L 23.886719 55.425781 C 23.128906 55.425781 22.632812 55.558594 22.398438 55.820312 L 22.574219 56.347656 L 19.074219 56.214844 L 18.855469 56.4375 L 18.8125 56.480469 M 81.8125 55.644531 L 81.769531 55.644531 L 81.8125 55.644531 M 48.605469 93.167969 C 48.023438 93.167969 47.730469 93.429688 47.730469 93.957031 C 51.785156 102.996094 54.90625 108.292969 57.09375 109.84375 L 57.835938 110.238281 L 58.320312 110.328125 C 58.929688 110.328125 59.238281 110.0625 59.238281 109.535156 C 59.238281 109.15625 58.363281 107.898438 56.613281 105.761719 C 54.660156 103.421875 53.519531 101.929688 53.199219 101.285156 L 50.664062 96.460938 L 48.605469 93.167969 M 65.1875 158.03125 L 65.230469 158.03125 L 65.101562 157.589844 L 65.1875 158.03125 M 68.03125 157.371094 L 68.03125 157.328125 L 68.03125 157.371094 M 62.039062 158.292969 L 62.039062 158.601562 L 62.125 158.601562 L 62.039062 158.292969 M 59.019531 247.070312 L 58.976562 247.027344 L 59.019531 247.070312 "/>
</g>
</svg>
