<?xml version="1.0" encoding="UTF-8"?>
<svg xmlns="http://www.w3.org/2000/svg" xmlns:xlink="http://www.w3.org/1999/xlink" width="175px" height="366px" viewBox="0 0 175 366" version="1.1">
<g id="surface1">
<path style=" stroke:none;fill-rule:evenodd;fill:rgb(0%,0%,0%);fill-opacity:1;" d="M 83.476562 4.828125 C 80.703125 6.4375 77.421875 8.601562 73.632812 11.324219 L 56.917969 24.003906 C 53.566406 26.726562 50.984375 28.714844 49.175781 29.972656 C 46.082031 32.078125 42.613281 33.617188 38.761719 34.582031 C 33.832031 35.839844 30.027344 37.40625 27.34375 39.277344 L 22.664062 42.171875 C 21.757812 42.699219 21.027344 43.125 20.476562 43.445312 L 21.832031 43.839844 C 24.136719 44.574219 25.855469 45.011719 26.992188 45.15625 L 31.105469 45.683594 L 31.414062 45.640625 C 31.820312 44.96875 32.359375 44.632812 33.03125 44.632812 L 33.425781 44.675781 L 35.261719 44.457031 L 36.226562 44.058594 L 40.644531 42.394531 L 48.867188 39.101562 C 51.609375 38.019531 57.488281 35.429688 66.5 31.332031 C 69.183594 30.25 73.574219 27.398438 79.667969 22.777344 L 81.679688 21.195312 L 82.117188 21.285156 L 82.164062 20.800781 L 90.519531 13.734375 L 90.867188 13.824219 L 91.875 10.226562 C 92.75 6.832031 93.1875 4.167969 93.1875 2.238281 C 93.1875 1.683594 92.867188 1.40625 92.226562 1.40625 C 90.417969 1.40625 87.703125 2.429688 84.085938 4.476562 L 83.957031 3.863281 L 83.695312 3.863281 L 83.476562 4.828125 M 94.675781 1.929688 C 94.179688 10.914062 93.054688 15.402344 91.304688 15.402344 L 90.957031 15.359375 C 90.402344 16.355469 88.988281 17.742188 86.710938 19.527344 L 80.9375 23.652344 L 74.679688 28.394531 C 72.085938 30.238281 69.679688 31.566406 67.460938 32.386719 L 49.699219 40.242188 C 45.792969 41.910156 42.453125 43.257812 39.679688 44.28125 L 47.46875 44.191406 L 49.480469 44.105469 C 51.816406 44.105469 53.289062 44.910156 53.898438 46.519531 C 59.878906 46.488281 63.144531 46.414062 63.699219 46.296875 L 78.707031 43.226562 C 80.777344 42.90625 83.839844 42.203125 87.894531 41.121094 C 89.964844 40.855469 91.933594 40.097656 93.800781 38.839844 C 94.003906 38.371094 94.660156 38.136719 95.769531 38.136719 C 98.132812 38.136719 100.113281 39.90625 101.71875 43.445312 L 103.425781 48.710938 C 104.152344 48.769531 104.242188 49.179688 103.6875 49.941406 C 103.6875 51.402344 104.460938 52.925781 106.007812 54.503906 C 107.550781 56.054688 108.324219 57.125 108.324219 57.707031 L 108.851562 62.054688 L 109.070312 62.007812 C 109.332031 62.007812 109.785156 62.828125 110.425781 64.46875 L 110.292969 65.167969 L 110.90625 67.011719 C 111.546875 69.207031 111.855469 70.933594 111.824219 72.191406 C 111.765625 74.414062 112.117188 77.179688 112.875 80.484375 L 115.980469 97.074219 C 116.535156 100.144531 117.90625 106.171875 120.09375 115.152344 C 121.113281 119.367188 121.625 124.371094 121.625 130.164062 C 121.976562 134.757812 121.320312 137.050781 119.65625 137.050781 C 118.519531 137.753906 115.691406 138.515625 111.167969 139.335938 L 108.105469 139.859375 L 105.65625 140.605469 L 103.511719 141.222656 L 103.164062 141.398438 L 103.207031 141.308594 L 98.480469 142.84375 L 96.46875 142.976562 C 95.59375 143.53125 92.996094 144.191406 88.679688 144.953125 C 83.402344 145.859375 78.894531 146.328125 75.164062 146.355469 L 69.957031 146.882812 L 68.863281 146.707031 L 67.417969 146.707031 C 62.664062 146.707031 59.675781 146.414062 58.449219 145.828125 C 58.011719 145.800781 57.546875 145.113281 57.050781 143.765625 L 55.210938 144.382812 L 51.144531 145.128906 L 46.679688 144.6875 L 35.261719 144.074219 C 33.511719 143.8125 32.242188 143.472656 31.457031 143.066406 L 20.125 141.308594 L 17.414062 140.210938 L 17.414062 139.6875 L 15.574219 138.5 L 13.039062 136.4375 L 12.730469 136.304688 L 12.730469 136.042969 L 12.6875 135.867188 L 12.730469 135.605469 C 12.671875 133.148438 12.453125 130.28125 12.074219 127.003906 C 11.667969 123.492188 11.460938 120.582031 11.460938 118.269531 C 11.460938 115.316406 11.695312 113.078125 12.164062 111.554688 L 12.03125 107.648438 L 12.292969 105.585938 L 11.988281 86.539062 C 11.988281 81.070312 12.570312 75.628906 13.738281 70.214844 C 14.933594 64.804688 15.589844 61.613281 15.707031 60.648438 C 15.792969 59.625 15.777344 57.445312 15.664062 54.109375 L 15.75 53.101562 C 14.847656 52.253906 14.292969 51.460938 14.085938 50.730469 L 14.085938 47.175781 C 14.085938 45.625 14.394531 43.957031 15.007812 42.171875 C 15.765625 39.949219 16.726562 38.839844 17.894531 38.839844 C 18.449219 38.839844 18.726562 39.070312 18.726562 39.539062 L 18.507812 39.890625 C 18.679688 40.417969 18.871094 41.367188 19.074219 42.742188 L 27.082031 37.917969 C 29.414062 36.25 33.164062 34.726562 38.324219 33.351562 C 42.320312 32.300781 45.761719 30.734375 48.648438 28.65625 L 56.4375 22.6875 C 60.402344 20.054688 65.609375 16.195312 72.054688 11.101562 L 80.105469 5.179688 C 83.167969 3.160156 86.816406 1.476562 91.042969 0.132812 L 91.832031 0.0429688 C 92.734375 0.0429688 93.480469 0.320312 94.0625 0.878906 C 94.472656 1.289062 94.675781 1.636719 94.675781 1.929688 M 88.289062 53.933594 L 88.289062 54.066406 L 88.59375 54.023438 L 88.636719 53.847656 L 93.363281 52.488281 C 99.195312 50.789062 102.113281 49.5625 102.113281 48.800781 C 102.113281 47.863281 101.515625 46.195312 100.320312 43.796875 L 99.136719 41.078125 C 98.464844 40.257812 96.964844 39.832031 94.632812 39.804688 C 93.523438 40.738281 90.066406 41.910156 84.261719 43.3125 L 79.144531 44.457031 C 68.585938 46.738281 60.507812 47.878906 54.90625 47.878906 L 54.207031 47.878906 L 54.074219 50.117188 L 54.425781 55.996094 L 54.425781 59.113281 L 57.09375 58.894531 L 83.039062 55.074219 L 88.289062 53.933594 M 43.269531 61.570312 L 43.226562 61.613281 L 43.3125 61.789062 L 43.617188 61.570312 L 44.054688 61.570312 L 52.0625 61.878906 C 52.003906 61.703125 52.0625 61.46875 52.238281 61.175781 C 52.9375 60.824219 53.289062 59.875 53.289062 58.324219 L 53.113281 57.664062 L 53.113281 55.996094 L 52.9375 50.46875 L 52.9375 49.851562 C 52.792969 47.425781 52.148438 46.136719 51.011719 45.992188 L 50.050781 45.507812 L 47.863281 45.203125 L 43.925781 45.113281 L 36.792969 45.246094 L 35.304688 45.683594 L 34.167969 45.421875 C 33.554688 45.421875 33.207031 45.683594 33.117188 46.210938 L 32.417969 46.914062 L 32.242188 46.867188 C 31.863281 48.742188 31.675781 50.570312 31.675781 52.355469 L 31.9375 57.359375 L 32.023438 59.070312 L 32.199219 59.113281 C 32.113281 60.457031 32.59375 61.132812 33.644531 61.132812 L 33.992188 61.132812 L 34.695312 61.394531 L 43.269531 61.570312 M 46.289062 46.519531 L 46.199219 46.5625 L 46.945312 46.738281 C 47.175781 46.738281 47.394531 46.664062 47.601562 46.519531 L 48.300781 46.519531 C 48.417969 46.3125 48.664062 46.210938 49.042969 46.210938 C 51.027344 46.210938 52.238281 48.476562 52.675781 53.011719 C 52.585938 58.132812 51.785156 60.691406 50.269531 60.691406 L 49.917969 60.648438 L 44.492188 60.824219 L 44.539062 60.738281 L 44.40625 60.386719 L 43.925781 60.867188 L 40.644531 60.867188 L 35.570312 60.691406 L 35.394531 60.691406 L 34.78125 60.648438 L 34.605469 60.605469 L 34.648438 60.605469 C 33.394531 60.195312 32.785156 58.746094 32.8125 56.261719 L 32.769531 55.691406 C 32.796875 55.28125 32.972656 54.929688 33.292969 54.636719 C 34.316406 53.699219 36.648438 53.496094 40.292969 54.023438 L 39.988281 53.496094 L 34.210938 53.230469 L 32.945312 52.75 C 32.621094 52.660156 32.460938 52.53125 32.460938 52.355469 L 32.855469 51.828125 L 32.8125 50.378906 C 32.8125 47.835938 33.847656 46.5625 35.917969 46.5625 L 36.136719 46.5625 L 35.832031 46.121094 L 46.289062 46.519531 M 37.625 59.507812 L 37.449219 59.550781 L 38.195312 59.726562 L 39.679688 59.507812 L 49.832031 59.332031 L 50.488281 57.445312 C 51.070312 55.574219 51.363281 54.152344 51.363281 53.1875 C 51.363281 51.433594 50.589844 49.632812 49.042969 47.789062 L 47.949219 47.746094 L 47.554688 47.570312 L 47.25 47.613281 L 47.292969 47.746094 L 38.324219 47.308594 L 38.324219 47.441406 C 38.324219 47.761719 37.667969 48.011719 36.355469 48.1875 C 34.984375 48.332031 34.242188 48.828125 34.125 49.675781 L 34.210938 51.214844 L 34.210938 51.652344 C 37.945312 51.683594 40.308594 52.046875 41.300781 52.75 C 41.621094 52.984375 41.78125 53.246094 41.78125 53.539062 L 41.648438 53.890625 C 41.648438 55.382812 39.140625 55.867188 34.125 55.339844 L 34.125 57.445312 L 36.09375 59.507812 L 37.625 59.507812 M 88.988281 55.382812 L 85.09375 56.039062 L 60.636719 59.726562 L 54.292969 60.339844 L 53.679688 61.4375 L 53.070312 62.359375 L 52.675781 62.753906 L 44.320312 62.976562 L 36.007812 62.753906 C 37.144531 72 38.324219 78.539062 39.550781 82.371094 L 39.988281 84.652344 L 43.574219 84.390625 L 54.863281 82.8125 L 66.457031 81.320312 C 68.613281 81.320312 69.972656 81.84375 70.523438 82.898438 C 70.960938 84.652344 71.429688 86.25 71.925781 87.683594 C 72.859375 90.492188 73.324219 92.640625 73.324219 94.132812 C 73.324219 94.511719 73.179688 94.863281 72.886719 95.1875 L 72.667969 95.097656 C 72.054688 95.332031 71.632812 95.539062 71.398438 95.714844 L 71.617188 95.84375 L 71.136719 95.976562 L 64.445312 97.730469 C 63.890625 98.347656 62.738281 98.902344 60.988281 99.398438 C 57.632812 100.394531 52.339844 100.890625 45.105469 100.890625 L 45.761719 102.648438 L 45.980469 103.21875 L 45.324219 103.261719 L 46.070312 103.4375 L 46.113281 103.523438 C 46.8125 105.308594 47.90625 107.722656 49.394531 110.765625 C 49.859375 111.117188 50.328125 111.832031 50.792969 112.914062 L 51.101562 113.707031 C 51.769531 115.609375 52.148438 117.40625 52.238281 119.105469 C 52.296875 120.273438 52.574219 121.722656 53.070312 123.449219 L 54.335938 127.792969 C 55.125 130.953125 56.714844 136.65625 59.105469 144.90625 L 67.15625 145.304688 L 70.742188 145.257812 L 71.617188 145.304688 L 71.707031 145.304688 L 74.375 145.214844 C 74.667969 144.953125 75.265625 144.820312 76.167969 144.820312 L 83.125 144.335938 L 86.492188 143.8125 L 87.632812 143.546875 L 87.71875 143.546875 L 90.519531 142.800781 L 94.851562 142.011719 L 96.207031 141.574219 L 98.085938 141.484375 L 98.132812 141.574219 L 98.21875 141.660156 L 98.261719 141.660156 L 98.394531 141.574219 L 98.394531 141.527344 L 98.4375 141.441406 L 98.4375 141.398438 L 101.761719 140.082031 C 104.242188 139.230469 106.296875 138.777344 107.929688 138.71875 L 111.34375 138.195312 L 119.042969 135.867188 L 120.3125 130.03125 C 120.3125 125.234375 119.65625 119.980469 118.34375 114.277344 C 116.273438 105.207031 115.0625 99.648438 114.710938 97.601562 C 113.167969 90.460938 112.117188 85.0625 111.5625 81.40625 C 110.832031 76.667969 110.484375 73.945312 110.511719 73.242188 C 110.542969 72.542969 110.277344 71.210938 109.726562 69.25 C 109.402344 68.050781 109.183594 67.101562 109.070312 66.398438 C 109.070312 67.625 108.835938 68.242188 108.367188 68.242188 C 107.640625 68.242188 107.1875 65.097656 107.011719 58.804688 C 106.984375 57.8125 106.53125 56.902344 105.65625 56.085938 C 104.605469 55.089844 104.007812 54.417969 103.863281 54.066406 C 103.222656 52.542969 102.785156 51.402344 102.550781 50.644531 C 100.800781 52.398438 96.527344 53.933594 89.730469 55.25 L 89.207031 55.121094 C 89.058594 55.121094 88.957031 55.164062 88.898438 55.25 L 88.988281 55.382812 M 100.492188 108.964844 C 100.144531 108.964844 99.925781 107.898438 99.835938 105.761719 L 99.835938 102.472656 C 99.835938 96.707031 100.203125 91.910156 100.929688 88.078125 C 101.308594 86.117188 102.332031 83.21875 103.992188 79.386719 L 104.167969 79.035156 L 104.210938 79.695312 L 104.429688 79.695312 L 104.519531 79.167969 L 104.5625 78.246094 L 104.605469 78.027344 C 105.800781 75.304688 106.53125 73.945312 106.792969 73.945312 C 107.230469 73.945312 107.449219 74.179688 107.449219 74.648438 C 104.039062 82.429688 102.113281 88.195312 101.675781 91.9375 C 101.5 93.3125 101.339844 96.796875 101.195312 102.382812 C 101.105469 106.214844 100.917969 108.382812 100.625 108.878906 L 100.492188 108.964844 M 99.792969 76.753906 C 95.070312 80.675781 91.570312 82.636719 89.292969 82.636719 C 88.972656 82.636719 88.769531 82.519531 88.679688 82.285156 L 88.769531 82.328125 L 89.730469 81.273438 L 98.832031 75.4375 L 102.769531 71.972656 C 104.984375 70.011719 106.238281 69.03125 106.53125 69.03125 C 107.144531 69.03125 107.449219 69.265625 107.449219 69.734375 L 101.0625 75.703125 L 101.019531 75.746094 L 100.492188 76.183594 L 99.96875 76.140625 C 99.824219 76.140625 99.632812 76.285156 99.398438 76.578125 C 99.457031 76.667969 99.589844 76.726562 99.792969 76.753906 M 50.75 99.488281 L 56.351562 99.222656 L 57.445312 98.695312 C 57.09375 98.171875 56.875 97.335938 56.789062 96.195312 L 56.261719 91.585938 C 56.144531 91.355469 55.882812 90.082031 55.476562 87.769531 C 55.125 86.074219 54.511719 84.976562 53.636719 84.476562 L 52.761719 84.171875 L 51.449219 84.304688 L 51.40625 84.257812 L 51.1875 84.347656 L 42.21875 85.53125 L 41.867188 85.574219 L 40.644531 85.445312 C 39.59375 85.445312 38.894531 85.679688 38.542969 86.144531 L 37.976562 86.234375 L 38.324219 92.289062 C 38.355469 93.3125 38.644531 94.675781 39.199219 96.371094 C 39.695312 97.890625 40.730469 98.976562 42.304688 99.617188 L 42.4375 99.617188 L 43.445312 99.75 C 43.882812 99.75 44.261719 99.648438 44.582031 99.441406 L 44.582031 99.488281 L 50.75 99.488281 M 50.050781 86.714844 L 50.136719 86.890625 L 50.707031 86.890625 L 50.792969 86.761719 L 53.199219 86.847656 L 53.679688 87.113281 L 53.898438 87.769531 L 54.074219 88.953125 L 54.382812 91.457031 C 54.496094 92.683594 54.804688 94.324219 55.300781 96.371094 C 55.300781 96.898438 55.183594 97.21875 54.949219 97.335938 L 51.886719 97.863281 L 51.886719 97.777344 L 51.757812 97.601562 L 51.40625 97.90625 L 51.011719 97.949219 C 48.242188 98.625 45.777344 98.960938 43.617188 98.960938 C 42.277344 98.960938 40.832031 97.570312 39.289062 94.792969 C 39.289062 94.324219 39.449219 94 39.769531 93.824219 C 40.265625 93.535156 40.671875 93.125 40.992188 92.597656 C 39.972656 92.070312 39.460938 91.222656 39.460938 90.050781 C 39.460938 88.96875 39.578125 88.265625 39.8125 87.945312 C 40.453125 87.039062 41.984375 86.585938 44.40625 86.585938 L 50.050781 86.714844 M 52.585938 88.164062 L 44.320312 87.988281 C 41.722656 87.988281 40.542969 88.617188 40.773438 89.875 C 40.773438 90.257812 41.039062 90.710938 41.5625 91.238281 C 42.085938 91.761719 42.351562 92.230469 42.351562 92.640625 C 42.351562 93.460938 41.867188 94.234375 40.90625 94.96875 C 42.363281 96.722656 43.226562 97.601562 43.488281 97.601562 C 45.675781 97.601562 49.144531 97.132812 53.898438 96.195312 C 53.347656 95.199219 53.011719 93.882812 52.894531 92.246094 L 52.585938 88.164062 M 68.164062 82.679688 C 67.289062 82.296875 65.976562 82.296875 64.226562 82.679688 L 55.039062 83.863281 C 55.855469 84.363281 56.410156 85.269531 56.699219 86.585938 L 57.488281 91.0625 C 57.894531 91.996094 58.101562 93.269531 58.101562 94.878906 C 58.101562 95.316406 58.332031 96.210938 58.800781 97.554688 L 58.273438 97.820312 L 58.582031 97.996094 L 58.84375 97.996094 L 58.929688 97.949219 L 58.976562 98.082031 L 63.132812 96.722656 L 68.074219 95.625 C 70.699219 95.011719 72.011719 94.484375 72.011719 94.046875 C 72.011719 93.488281 71.546875 91.574219 70.613281 88.296875 C 70.085938 87.066406 69.589844 85.488281 69.125 83.558594 L 68.25 82.722656 L 68.207031 82.679688 L 68.164062 82.679688 M 108.980469 64.117188 L 109.023438 64.554688 L 109.113281 64.292969 L 108.980469 64.117188 M 78.050781 96.238281 L 78.007812 96.195312 L 77.742188 96.195312 L 77.742188 96.632812 L 76.78125 97.90625 C 74.15625 101.476562 70.832031 105.367188 66.804688 109.582031 L 65.539062 110.898438 C 62.328125 114.175781 59.996094 116.148438 58.539062 116.820312 L 57.96875 116.691406 L 57.882812 116.734375 L 57.75 116.734375 L 57.75 116.953125 L 57.925781 117.039062 L 57.617188 117.039062 C 57.296875 117.039062 57.09375 116.9375 57.007812 116.734375 L 56.960938 116.425781 L 63.570312 110.898438 C 67.914062 106.832031 72.011719 102.179688 75.863281 96.941406 L 76.695312 95.800781 L 78.355469 95.800781 L 78.050781 96.238281 M 51.011719 143.722656 C 52.527344 143.722656 53.796875 143.503906 54.820312 143.066406 C 55.519531 142.773438 56.101562 142.582031 56.570312 142.496094 L 55.648438 139.203125 L 53.113281 128.496094 C 52.324219 125.714844 51.757812 123.476562 51.40625 121.78125 L 51.011719 119.804688 C 50.777344 118.429688 50.179688 116.632812 49.21875 114.40625 L 47.863281 111.117188 L 47.90625 110.941406 L 44.800781 104.09375 L 44.320312 102.824219 L 44.273438 102.734375 L 44.363281 102.648438 L 44.230469 102.601562 L 43.617188 100.890625 L 35.304688 100.671875 C 35.21875 100.496094 35.101562 100.410156 34.957031 100.410156 C 34.808594 100.410156 34.707031 100.453125 34.648438 100.539062 L 34.648438 100.671875 L 34.519531 100.628906 L 33.601562 100.320312 L 32.507812 99.664062 L 32.15625 99.09375 L 32.289062 99.046875 L 32.242188 98.917969 L 31.980469 98.742188 L 31.761719 98.214844 L 31.019531 96.152344 L 30.757812 96.152344 C 30.523438 96.152344 30.289062 95.742188 30.054688 94.921875 L 28.699219 94.570312 L 22.707031 93.695312 C 21.042969 93.519531 19.933594 93.285156 19.382812 92.992188 L 19.382812 92.859375 L 19.164062 92.859375 L 18.988281 92.554688 C 18.988281 92.085938 19.207031 91.851562 19.644531 91.851562 C 22.238281 91.851562 25.609375 92.421875 29.75 93.5625 L 28.960938 88.253906 C 28.960938 86.261719 29.589844 85.078125 30.84375 84.699219 L 34.605469 84.652344 L 35.132812 84.652344 L 35.21875 85.3125 L 35.4375 85.09375 L 35.394531 84.652344 L 37.011719 84.609375 L 37.492188 84.304688 L 37.710938 84.609375 L 38.71875 84.523438 L 38.761719 84.523438 L 38.675781 84.082031 L 36.882812 75.351562 C 35.800781 69.9375 35.261719 66.25 35.261719 64.292969 L 35.394531 62.753906 L 35.085938 62.710938 L 34.519531 62.625 L 34.34375 62.625 L 32.679688 62.492188 L 32.679688 62.316406 L 32.417969 62.316406 L 32.417969 62.449219 C 31.253906 62.125 30.597656 61.511719 30.449219 60.605469 L 30.363281 59.859375 L 20.34375 56.261719 C 18.945312 55.792969 17.878906 55.238281 17.148438 54.59375 C 17.238281 55.703125 17.238281 57.226562 17.148438 59.15625 C 17.148438 60.5625 16.507812 64.539062 15.226562 71.09375 C 13.941406 77.617188 13.300781 82.765625 13.300781 86.539062 L 13.824219 109.492188 L 13.476562 109.492188 C 13.445312 112.390625 13.210938 115.285156 12.773438 118.183594 C 12.773438 121.78125 13.183594 126.871094 14 133.453125 C 14 134.332031 13.957031 135.019531 13.867188 135.515625 L 17.414062 137.621094 L 21.523438 140.082031 L 21.394531 140.476562 L 27.738281 141.175781 L 32.242188 141.878906 C 32.796875 142.261719 33.863281 142.566406 35.4375 142.800781 L 44.492188 143.328125 L 44.539062 143.589844 L 44.757812 143.589844 L 44.886719 143.328125 L 50.835938 143.414062 L 50.835938 143.722656 L 51.011719 143.722656 M 35.132812 103.742188 L 38.632812 103.613281 C 41.34375 103.613281 42.699219 103.859375 42.699219 104.359375 L 42.304688 105.191406 L 42.132812 105.148438 L 41.867188 105.191406 L 41.824219 105.5 L 41.914062 105.9375 C 39.550781 110.53125 37.960938 112.828125 37.144531 112.828125 C 36.648438 112.828125 36.429688 112.625 36.488281 112.214844 C 36.488281 111.628906 37.988281 109.214844 40.992188 104.972656 C 36.707031 104.972656 34.5625 104.753906 34.5625 104.3125 L 34.648438 103.875 L 34.738281 104.09375 L 35.132812 103.742188 M 44.582031 109.359375 C 44.726562 109.449219 44.800781 109.625 44.800781 109.886719 C 44.800781 110.269531 42.132812 113.5 36.792969 119.585938 L 32.945312 125.246094 L 30.363281 128.976562 L 30.320312 128.976562 C 30.171875 128.976562 30.101562 129.035156 30.101562 129.152344 L 29.53125 128.933594 L 29.488281 128.539062 C 29.488281 128.246094 30.40625 126.695312 32.242188 123.886719 L 35.742188 118.796875 C 40.90625 112.417969 43.707031 109.230469 44.144531 109.230469 L 44.449219 109.273438 L 44.539062 109.359375 L 44.582031 109.359375 M 17.367188 42.875 L 17.542969 42.917969 L 17.585938 42.917969 L 17.457031 41.339844 L 16.582031 42.613281 C 15.910156 42.671875 15.574219 43.035156 15.574219 43.710938 L 15.75 44.191406 C 15.515625 44.953125 15.398438 45.949219 15.398438 47.175781 L 15.53125 48.710938 L 15.398438 49.328125 C 15.925781 51.285156 16.652344 52.441406 17.585938 52.792969 L 17.9375 53.363281 L 22.09375 55.777344 C 23.289062 56.390625 25.402344 57.152344 28.4375 58.058594 L 30.449219 58.628906 L 30.582031 57.488281 L 30.363281 52.441406 C 30.304688 49.957031 30.480469 48.070312 30.886719 46.78125 C 25.257812 46.253906 21.335938 45.667969 19.117188 45.027344 C 19.003906 45.144531 18.871094 45.214844 18.726562 45.246094 L 18.550781 44.851562 L 17.28125 42.875 L 17.367188 42.875 M 38.585938 97.46875 L 37.710938 95.097656 C 37.011719 92.730469 36.664062 90.492188 36.664062 88.382812 L 36.617188 86.539062 L 36.488281 86.496094 L 36.617188 85.925781 L 31.148438 86.058594 L 30.800781 86.847656 C 30.449219 87.460938 30.273438 87.972656 30.273438 88.382812 C 30.273438 89.234375 30.480469 90.433594 30.886719 91.984375 L 30.976562 92.289062 L 31.367188 92.378906 L 31.414062 92.378906 L 31.675781 94.132812 L 31.851562 94.175781 L 31.851562 94.351562 L 32.242188 95.492188 L 32.023438 95.449219 L 32.070312 95.539062 L 32.070312 95.582031 C 32.652344 97.277344 33.570312 98.449219 34.824219 99.09375 L 33.949219 99.398438 L 34.867188 99.574219 L 35.742188 99.441406 L 39.988281 99.75 L 40.25 99.75 L 40.164062 99.664062 L 38.804688 97.863281 L 39.113281 97.554688 L 38.71875 97.378906 L 38.585938 97.46875 "/>
<path style=" stroke:none;fill-rule:evenodd;fill:rgb(4.705882%,2.745098%,5.098039%);fill-opacity:1;" d="M 81.679688 21.195312 L 81.550781 21.066406 L 81.898438 13.078125 C 81.785156 9.859375 82.25 7.460938 83.300781 5.878906 L 83.300781 5.835938 L 83.476562 4.828125 L 83.695312 3.863281 L 83.957031 3.863281 L 84.085938 4.476562 C 87.703125 2.429688 90.417969 1.40625 92.226562 1.40625 C 92.867188 1.40625 93.1875 1.683594 93.1875 2.238281 C 93.1875 4.167969 92.75 6.832031 91.875 10.226562 L 90.867188 13.824219 L 90.519531 13.734375 L 82.164062 20.800781 L 82.117188 21.285156 L 81.679688 21.195312 M 84.261719 43.3125 C 90.066406 41.910156 93.523438 40.738281 94.632812 39.804688 C 96.964844 39.832031 98.464844 40.257812 99.136719 41.078125 L 100.320312 43.796875 C 101.515625 46.195312 102.113281 47.863281 102.113281 48.800781 C 102.113281 49.5625 99.195312 50.789062 93.363281 52.488281 L 88.636719 53.847656 L 88.59375 54.023438 L 88.289062 54.066406 L 88.289062 53.933594 C 87.792969 51.710938 86.363281 48.242188 84 43.535156 L 84.21875 43.3125 L 84.261719 43.3125 M 47.292969 47.746094 L 47.25 47.613281 L 47.554688 47.570312 L 47.949219 47.746094 L 49.042969 47.789062 C 50.589844 49.632812 51.363281 51.433594 51.363281 53.1875 C 51.363281 54.152344 51.070312 55.574219 50.488281 57.445312 L 49.832031 59.332031 L 39.679688 59.507812 L 38.195312 59.726562 L 37.449219 59.550781 L 37.625 59.507812 C 41.738281 58.132812 44.449219 57.066406 45.761719 56.304688 C 47.6875 55.25 48.648438 53.992188 48.648438 52.53125 C 48.648438 51.242188 48.199219 49.648438 47.292969 47.746094 "/>
<path style=" stroke:none;fill-rule:evenodd;fill:rgb(15.686275%,14.901961%,20%);fill-opacity:1;" d="M 83.476562 4.828125 L 83.300781 5.835938 L 83.300781 5.878906 C 82.25 7.460938 81.785156 9.859375 81.898438 13.078125 L 81.550781 21.066406 L 81.679688 21.195312 L 79.667969 22.777344 C 73.574219 27.398438 69.183594 30.25 66.5 31.332031 C 57.488281 35.429688 51.609375 38.019531 48.867188 39.101562 L 40.644531 42.394531 L 36.226562 44.058594 L 35.261719 44.457031 L 33.425781 44.675781 L 33.03125 44.632812 C 32.359375 44.632812 31.820312 44.96875 31.414062 45.640625 L 31.105469 45.683594 L 26.992188 45.15625 C 25.855469 45.011719 24.136719 44.574219 21.832031 43.839844 L 20.476562 43.445312 C 21.027344 43.125 21.757812 42.699219 22.664062 42.171875 L 27.34375 39.277344 C 30.027344 37.40625 33.832031 35.839844 38.761719 34.582031 C 42.613281 33.617188 46.082031 32.078125 49.175781 29.972656 C 50.984375 28.714844 53.566406 26.726562 56.917969 24.003906 L 73.632812 11.324219 C 77.421875 8.601562 80.703125 6.4375 83.476562 4.828125 M 84.261719 43.3125 L 84.21875 43.3125 L 84 43.535156 C 86.363281 48.242188 87.792969 51.710938 88.289062 53.933594 L 83.039062 55.074219 L 57.09375 58.894531 L 54.425781 59.113281 L 54.425781 55.996094 L 54.074219 50.117188 L 54.207031 47.878906 L 54.90625 47.878906 C 60.507812 47.878906 68.585938 46.738281 79.144531 44.457031 L 84.261719 43.3125 M 37.625 59.507812 L 36.09375 59.507812 L 34.125 57.445312 L 34.125 55.339844 C 39.140625 55.867188 41.648438 55.382812 41.648438 53.890625 L 41.78125 53.539062 C 41.78125 53.246094 41.621094 52.984375 41.300781 52.75 C 40.308594 52.046875 37.945312 51.683594 34.210938 51.652344 L 34.210938 51.214844 L 34.125 49.675781 C 34.242188 48.828125 34.984375 48.332031 36.355469 48.1875 C 37.667969 48.011719 38.324219 47.761719 38.324219 47.441406 L 38.324219 47.308594 L 47.292969 47.746094 C 48.199219 49.648438 48.648438 51.242188 48.648438 52.53125 C 48.648438 53.992188 47.6875 55.25 45.761719 56.304688 C 44.449219 57.066406 41.738281 58.132812 37.625 59.507812 M 17.367188 42.875 L 17.28125 42.875 L 18.550781 44.851562 L 18.726562 45.246094 C 18.871094 45.214844 19.003906 45.144531 19.117188 45.027344 C 21.335938 45.667969 25.257812 46.253906 30.886719 46.78125 C 30.480469 48.070312 30.304688 49.957031 30.363281 52.441406 L 30.582031 57.488281 L 30.449219 58.628906 L 28.4375 58.058594 C 25.402344 57.152344 23.289062 56.390625 22.09375 55.777344 L 17.9375 53.363281 L 17.585938 52.792969 C 16.652344 52.441406 15.925781 51.285156 15.398438 49.328125 L 15.53125 48.710938 L 15.398438 47.175781 C 15.398438 45.949219 15.515625 44.953125 15.75 44.191406 L 15.574219 43.710938 C 15.574219 43.035156 15.910156 42.671875 16.582031 42.613281 L 17.457031 41.339844 L 17.585938 42.917969 L 17.542969 42.917969 L 17.367188 42.875 "/>
<path style=" stroke:none;fill-rule:evenodd;fill:rgb(60.000002%,60.000002%,60.000002%);fill-opacity:1;" d="M 47.863281 45.203125 L 50.050781 45.507812 L 51.011719 45.992188 C 52.148438 46.136719 52.792969 47.425781 52.9375 49.851562 L 52.9375 50.46875 L 53.113281 55.996094 L 53.113281 57.664062 L 53.289062 58.324219 C 53.289062 59.875 52.9375 60.824219 52.238281 61.175781 C 52.0625 61.46875 52.003906 61.703125 52.0625 61.878906 L 44.054688 61.570312 L 43.617188 61.570312 L 43.3125 61.789062 L 43.226562 61.613281 L 43.269531 61.570312 L 43.925781 60.867188 L 44.40625 60.386719 L 44.539062 60.738281 L 44.492188 60.824219 L 49.917969 60.648438 L 50.269531 60.691406 C 51.785156 60.691406 52.585938 58.132812 52.675781 53.011719 C 52.238281 48.476562 51.027344 46.210938 49.042969 46.210938 C 48.664062 46.210938 48.417969 46.3125 48.300781 46.519531 L 47.601562 46.519531 C 47.394531 46.664062 47.175781 46.738281 46.945312 46.738281 L 46.199219 46.5625 L 46.289062 46.519531 L 47.820312 45.246094 L 47.863281 45.203125 M 51.1875 84.347656 L 51.40625 84.257812 L 51.449219 84.304688 L 52.761719 84.171875 L 53.636719 84.476562 C 54.511719 84.976562 55.125 86.074219 55.476562 87.769531 C 55.882812 90.082031 56.144531 91.355469 56.261719 91.585938 L 56.789062 96.195312 C 56.875 97.335938 57.09375 98.171875 57.445312 98.695312 L 56.351562 99.222656 L 50.75 99.488281 L 50.617188 99.398438 L 49.875 99.222656 L 51.40625 97.90625 L 51.757812 97.601562 L 51.886719 97.777344 L 51.886719 97.863281 L 54.949219 97.335938 C 55.183594 97.21875 55.300781 96.898438 55.300781 96.371094 C 54.804688 94.324219 54.496094 92.683594 54.382812 91.457031 L 54.074219 88.953125 L 53.898438 87.769531 L 53.679688 87.113281 L 53.199219 86.847656 L 50.792969 86.761719 L 50.707031 86.890625 L 50.136719 86.890625 L 50.050781 86.714844 C 50.050781 85.488281 50.429688 84.699219 51.1875 84.347656 "/>
<path style=" stroke:none;fill-rule:evenodd;fill:rgb(80.000001%,80.000001%,80.000001%);fill-opacity:1;" d="M 47.863281 45.203125 L 47.820312 45.246094 L 46.289062 46.519531 L 35.832031 46.121094 L 36.136719 46.5625 L 35.917969 46.5625 C 33.847656 46.5625 32.8125 47.835938 32.8125 50.378906 L 32.855469 51.828125 L 32.460938 52.355469 C 32.460938 52.53125 32.621094 52.660156 32.945312 52.75 L 34.210938 53.230469 L 39.988281 53.496094 L 40.292969 54.023438 C 36.648438 53.496094 34.316406 53.699219 33.292969 54.636719 C 32.972656 54.929688 32.796875 55.28125 32.769531 55.691406 L 32.8125 56.261719 C 32.785156 58.746094 33.394531 60.195312 34.648438 60.605469 L 34.605469 60.605469 L 34.78125 60.648438 L 35.394531 60.691406 L 35.570312 60.691406 L 40.644531 60.867188 L 43.925781 60.867188 L 43.269531 61.570312 L 34.695312 61.394531 L 33.992188 61.132812 L 33.644531 61.132812 C 32.59375 61.132812 32.113281 60.457031 32.199219 59.113281 L 32.023438 59.070312 L 31.9375 57.359375 L 31.675781 52.355469 C 31.675781 50.570312 31.863281 48.742188 32.242188 46.867188 L 32.417969 46.914062 L 33.117188 46.210938 C 33.207031 45.683594 33.554688 45.421875 34.167969 45.421875 L 35.304688 45.683594 L 36.792969 45.246094 L 43.925781 45.113281 L 47.863281 45.203125 M 51.1875 84.347656 C 50.429688 84.699219 50.050781 85.488281 50.050781 86.714844 L 44.40625 86.585938 C 41.984375 86.585938 40.453125 87.039062 39.8125 87.945312 C 39.578125 88.265625 39.460938 88.96875 39.460938 90.050781 C 39.460938 91.222656 39.972656 92.070312 40.992188 92.597656 C 40.671875 93.125 40.265625 93.535156 39.769531 93.824219 C 39.449219 94 39.289062 94.324219 39.289062 94.792969 C 40.832031 97.570312 42.277344 98.960938 43.617188 98.960938 C 45.777344 98.960938 48.242188 98.625 51.011719 97.949219 L 51.40625 97.90625 L 49.875 99.222656 L 50.617188 99.398438 L 50.75 99.488281 L 44.582031 99.488281 L 44.582031 99.441406 C 44.261719 99.648438 43.882812 99.75 43.445312 99.75 L 42.4375 99.617188 L 42.304688 99.617188 C 40.730469 98.976562 39.695312 97.890625 39.199219 96.371094 C 38.644531 94.675781 38.355469 93.3125 38.324219 92.289062 L 37.976562 86.234375 L 38.542969 86.144531 C 38.894531 85.679688 39.59375 85.445312 40.644531 85.445312 L 41.867188 85.574219 L 42.21875 85.53125 L 51.1875 84.347656 "/>
<path style=" stroke:none;fill-rule:evenodd;fill:rgb(14.509805%,14.509805%,13.725491%);fill-opacity:1;" d="M 104.167969 78.335938 L 104.210938 78.027344 L 104.605469 78.027344 L 104.5625 78.246094 L 104.167969 78.335938 M 98.132812 141.574219 L 98.085938 141.484375 L 98.4375 141.398438 L 98.132812 141.574219 M 58.582031 97.996094 L 58.273438 97.820312 L 58.800781 97.554688 L 58.582031 97.996094 M 57.96875 116.691406 L 58.539062 116.820312 L 58.40625 117.214844 L 57.925781 117.039062 L 57.96875 116.691406 M 34.695312 103.65625 L 35.132812 103.742188 L 34.738281 104.09375 L 34.648438 103.875 L 34.695312 103.65625 M 38.71875 84.523438 L 38.675781 84.082031 L 38.761719 84.523438 L 38.71875 84.523438 M 38.585938 97.46875 L 38.71875 97.378906 L 39.113281 97.554688 L 38.804688 97.863281 L 40.164062 99.664062 L 39.988281 99.75 L 35.742188 99.441406 L 34.867188 99.574219 L 33.949219 99.398438 L 34.824219 99.09375 L 38.585938 97.46875 "/>
<path style=" stroke:none;fill-rule:evenodd;fill:rgb(47.450981%,30.980393%,16.078432%);fill-opacity:1;" d="M 98.4375 141.398438 L 98.4375 141.441406 L 98.394531 141.527344 L 98.394531 141.574219 L 98.261719 141.660156 L 98.21875 141.660156 L 98.175781 141.617188 L 98.4375 141.398438 M 101.0625 75.703125 L 101.105469 75.789062 L 101.019531 75.746094 L 101.0625 75.703125 M 104.519531 79.167969 L 104.429688 79.695312 L 104.210938 79.695312 L 104.167969 79.035156 L 104.519531 79.167969 M 78.050781 96.238281 L 78.09375 96.503906 L 77.742188 96.632812 L 77.742188 96.195312 L 78.007812 96.195312 L 78.050781 96.238281 M 78.136719 97.6875 L 78.3125 96.503906 L 78.3125 97.644531 L 78.136719 97.6875 M 57.925781 117.039062 L 57.75 116.953125 L 57.75 116.734375 L 57.835938 116.734375 L 57.925781 117.039062 M 44.273438 109.097656 L 44.582031 109.359375 L 44.539062 109.359375 L 44.449219 109.273438 L 44.273438 109.097656 M 50.835938 143.414062 L 51.011719 143.722656 L 50.835938 143.722656 L 50.835938 143.414062 M 35.132812 84.652344 L 35.394531 84.652344 L 35.4375 85.09375 L 35.21875 85.3125 L 35.132812 84.652344 M 19.164062 92.859375 L 19.382812 92.859375 L 19.382812 92.992188 L 19.074219 93.210938 L 19.117188 92.859375 L 19.164062 92.859375 M 40.164062 99.664062 L 40.25 99.75 L 39.988281 99.75 L 40.164062 99.664062 M 46.242188 103.4375 L 46.070312 103.4375 L 45.324219 103.261719 L 45.980469 103.21875 L 46.242188 103.4375 "/>
<path style=" stroke:none;fill-rule:evenodd;fill:rgb(64.705884%,43.921569%,27.450982%);fill-opacity:1;" d="M 46.242188 103.4375 L 46.113281 103.523438 L 46.070312 103.4375 L 46.242188 103.4375 M 101.105469 75.789062 L 100.710938 76.226562 L 100.492188 76.183594 L 101.019531 75.746094 L 101.105469 75.789062 M 78.09375 96.503906 L 78.050781 96.238281 L 78.3125 96.503906 L 78.136719 97.6875 L 78.136719 97.511719 L 78.09375 96.503906 M 77.789062 98.828125 L 77.960938 98.828125 L 77.960938 98.871094 L 77.789062 98.828125 M 44.320312 102.824219 L 44.144531 102.867188 L 44.273438 102.734375 L 44.320312 102.824219 M 98.261719 140.257812 L 98.304688 140.257812 L 98.261719 140.257812 M 33.992188 76.929688 L 34.78125 82.460938 L 33.773438 76.929688 L 33.992188 76.929688 M 35.042969 84.214844 L 35.132812 84.652344 L 35.042969 84.652344 L 35.042969 84.214844 M 30.800781 98.742188 L 30.800781 98.652344 L 31.019531 98.785156 L 30.800781 98.742188 M 31.851562 99.222656 L 31.894531 99.179688 L 31.851562 99.222656 M 44.144531 109.230469 L 44.273438 109.097656 L 44.449219 109.273438 L 44.144531 109.230469 "/>
<path style=" stroke:none;fill-rule:evenodd;fill:rgb(67.843139%,47.843137%,50.588238%);fill-opacity:1;" d="M 104.167969 79.035156 L 104.167969 78.335938 L 104.5625 78.246094 L 104.519531 79.167969 L 104.167969 79.035156 M 98.175781 141.617188 L 98.132812 141.574219 L 98.4375 141.398438 L 98.175781 141.617188 M 57.835938 116.734375 L 57.882812 116.734375 L 57.925781 117.039062 L 57.835938 116.734375 M 78.179688 98.871094 L 78.179688 98.917969 L 77.960938 98.871094 L 78.179688 98.871094 M 31.019531 98.785156 L 30.929688 99.046875 L 30.667969 99.003906 L 30.800781 98.742188 L 31.019531 98.785156 "/>
<path style=" stroke:none;fill-rule:evenodd;fill:rgb(94.509804%,77.64706%,81.568629%);fill-opacity:1;" d="M 100.625 109.054688 L 100.492188 108.964844 L 100.625 108.878906 L 100.757812 108.921875 L 100.625 109.054688 M 33.992188 76.886719 L 33.992188 76.929688 L 33.773438 76.929688 L 33.992188 76.886719 M 32.070312 95.582031 L 32.070312 95.539062 L 32.242188 95.492188 L 32.070312 95.582031 "/>
<path style=" stroke:none;fill-rule:evenodd;fill:rgb(3.529412%,17.254902%,19.607843%);fill-opacity:1;" d="M 57.882812 116.734375 L 57.96875 116.691406 L 57.925781 117.039062 L 57.882812 116.734375 "/>
<path style=" stroke:none;fill-rule:evenodd;fill:rgb(41.960785%,9.803922%,14.509805%);fill-opacity:1;" d="M 72.886719 95.1875 L 73.238281 95.273438 L 73.019531 95.449219 L 73.0625 95.625 C 73.0625 97.175781 71.472656 98.316406 68.292969 99.046875 L 62.039062 100.144531 C 60.839844 100.816406 59.425781 101.417969 57.792969 101.945312 C 54.644531 102.9375 50.792969 103.4375 46.242188 103.4375 L 45.980469 103.21875 L 45.761719 102.648438 L 45.105469 100.890625 C 52.339844 100.890625 57.632812 100.394531 60.988281 99.398438 C 62.738281 98.902344 63.890625 98.347656 64.445312 97.730469 L 71.136719 95.976562 L 71.617188 95.84375 L 71.398438 95.714844 C 71.632812 95.539062 72.054688 95.332031 72.667969 95.097656 L 72.886719 95.1875 M 98.085938 141.484375 C 97.972656 141.25 97.898438 140.871094 97.867188 140.34375 L 97.867188 140.257812 L 97.824219 139.597656 C 97.824219 138.574219 98.597656 136.453125 100.144531 133.234375 C 101.308594 130.71875 102.242188 128.890625 102.945312 127.75 L 106.882812 121.296875 C 107.609375 119.921875 107.976562 118.125 107.976562 115.898438 C 107.976562 114.085938 107.800781 112.8125 107.449219 112.082031 C 106.515625 110.179688 104.429688 109.230469 101.195312 109.230469 C 100.902344 109.230469 100.710938 109.171875 100.625 109.054688 L 100.757812 108.921875 L 100.625 108.878906 C 100.917969 108.382812 101.105469 106.214844 101.195312 102.382812 C 101.339844 96.796875 101.5 93.3125 101.675781 91.9375 C 102.113281 88.195312 104.039062 82.429688 107.449219 74.648438 C 107.449219 74.179688 107.230469 73.945312 106.792969 73.945312 C 106.53125 73.945312 105.800781 75.304688 104.605469 78.027344 L 104.210938 78.027344 L 104.257812 77.28125 C 104.257812 76.375 103.921875 75.921875 103.25 75.921875 C 102.898438 76.097656 102.359375 76.226562 101.632812 76.316406 C 101.484375 76.726562 101.339844 76.929688 101.195312 76.929688 L 100.101562 76.753906 L 99.792969 76.753906 C 99.589844 76.726562 99.457031 76.667969 99.398438 76.578125 C 99.632812 76.285156 99.824219 76.140625 99.96875 76.140625 L 100.492188 76.183594 L 100.710938 76.226562 L 101.105469 75.789062 L 101.0625 75.703125 L 107.449219 69.734375 C 107.449219 69.265625 107.144531 69.03125 106.53125 69.03125 C 106.238281 69.03125 104.984375 70.011719 102.769531 71.972656 L 98.832031 75.4375 L 89.730469 81.273438 L 88.769531 82.328125 L 88.679688 82.285156 L 88.550781 82.242188 C 88.636719 81.363281 89.265625 80.089844 90.429688 78.421875 L 91.4375 74.605469 C 91.847656 72.878906 92.050781 70.332031 92.050781 66.96875 C 92.050781 63.105469 91.027344 59.246094 88.988281 55.382812 L 88.898438 55.25 C 88.957031 55.164062 89.058594 55.121094 89.207031 55.121094 L 89.730469 55.25 C 96.527344 53.933594 100.800781 52.398438 102.550781 50.644531 C 102.785156 51.402344 103.222656 52.542969 103.863281 54.066406 C 104.007812 54.417969 104.605469 55.089844 105.65625 56.085938 C 106.53125 56.902344 106.984375 57.8125 107.011719 58.804688 C 107.1875 65.097656 107.640625 68.242188 108.367188 68.242188 C 108.835938 68.242188 109.070312 67.625 109.070312 66.398438 C 109.183594 67.101562 109.402344 68.050781 109.726562 69.25 C 110.277344 71.210938 110.542969 72.542969 110.511719 73.242188 C 110.484375 73.945312 110.832031 76.667969 111.5625 81.40625 C 112.117188 85.0625 113.167969 90.460938 114.710938 97.601562 C 115.0625 99.648438 116.273438 105.207031 118.34375 114.277344 C 119.65625 119.980469 120.3125 125.234375 120.3125 130.03125 L 119.042969 135.867188 L 111.34375 138.195312 L 107.929688 138.71875 C 106.296875 138.777344 104.242188 139.230469 101.761719 140.082031 L 98.4375 141.398438 L 98.085938 141.484375 M 58.800781 97.554688 C 65.566406 93.898438 68.949219 91.324219 68.949219 89.832031 C 68.601562 86 68.25 83.675781 67.898438 82.855469 C 67.929688 82.738281 68.015625 82.679688 68.164062 82.679688 L 68.207031 82.679688 L 68.25 82.722656 L 69.125 83.558594 C 69.589844 85.488281 70.085938 87.066406 70.613281 88.296875 C 71.546875 91.574219 72.011719 93.488281 72.011719 94.046875 C 72.011719 94.484375 70.699219 95.011719 68.074219 95.625 L 63.132812 96.722656 L 58.976562 98.082031 L 58.929688 97.949219 L 58.84375 97.996094 L 58.582031 97.996094 L 58.800781 97.554688 M 77.742188 96.632812 L 78.09375 96.503906 L 78.136719 97.511719 L 78.136719 97.6875 L 78.3125 97.644531 L 78.179688 98.871094 L 77.960938 98.871094 L 78.179688 98.917969 C 77.800781 101.871094 76.664062 105.542969 74.769531 109.933594 C 72.203125 115.898438 69.867188 118.882812 67.769531 118.882812 C 64.648438 118.882812 61.527344 118.328125 58.40625 117.214844 L 58.539062 116.820312 C 59.996094 116.148438 62.328125 114.175781 65.539062 110.898438 L 66.804688 109.582031 C 70.832031 105.367188 74.15625 101.476562 76.78125 97.90625 L 77.742188 96.632812 M 77.789062 98.828125 L 77.960938 98.871094 L 77.960938 98.828125 L 77.789062 98.828125 M 44.320312 102.824219 L 44.800781 104.09375 L 47.90625 110.941406 L 47.863281 111.117188 L 49.21875 114.40625 C 50.179688 116.632812 50.777344 118.429688 51.011719 119.804688 L 51.40625 121.78125 C 51.757812 123.476562 52.324219 125.714844 53.113281 128.496094 L 55.648438 139.203125 L 56.570312 142.496094 C 56.101562 142.582031 55.519531 142.773438 54.820312 143.066406 C 53.796875 143.503906 52.527344 143.722656 51.011719 143.722656 L 50.835938 143.414062 L 44.886719 143.328125 L 44.757812 143.589844 L 44.539062 143.589844 L 44.492188 143.328125 L 43.664062 139.90625 C 43.285156 138.382812 42.730469 137.199219 42 136.351562 C 41.300781 134.710938 40.527344 133.484375 39.679688 132.664062 C 38.195312 131.203125 35.027344 130.105469 30.1875 129.371094 L 30.101562 129.152344 C 30.101562 129.035156 30.171875 128.976562 30.320312 128.976562 L 30.363281 128.976562 L 32.945312 125.246094 L 36.792969 119.585938 C 42.132812 113.5 44.800781 110.269531 44.800781 109.886719 C 44.800781 109.625 44.726562 109.449219 44.582031 109.359375 L 44.273438 109.097656 C 42.933594 107.695312 42.144531 106.640625 41.914062 105.9375 L 41.824219 105.5 L 41.867188 105.191406 L 42.132812 105.148438 L 42.304688 105.191406 L 42.699219 104.359375 C 42.699219 103.859375 41.34375 103.613281 38.632812 103.613281 L 35.132812 103.742188 L 34.695312 103.65625 L 34.957031 102.515625 L 34.914062 102.515625 L 34.824219 102.296875 L 35 102.121094 L 34.648438 100.671875 L 34.648438 100.539062 C 34.707031 100.453125 34.808594 100.410156 34.957031 100.410156 C 35.101562 100.410156 35.21875 100.496094 35.304688 100.671875 L 43.617188 100.890625 L 44.230469 102.601562 L 44.363281 102.648438 L 44.273438 102.734375 L 44.144531 102.867188 L 44.320312 102.824219 M 98.261719 140.257812 L 98.304688 140.257812 L 98.261719 140.257812 M 32.417969 62.449219 L 32.417969 62.316406 L 32.679688 62.316406 L 32.679688 62.492188 L 34.34375 62.625 L 34.519531 62.625 L 35.085938 62.710938 L 35.394531 62.753906 L 35.261719 64.292969 C 35.261719 66.25 35.800781 69.9375 36.882812 75.351562 L 38.675781 84.082031 L 38.71875 84.523438 L 37.710938 84.609375 L 37.492188 84.304688 L 37.011719 84.609375 L 35.394531 84.652344 L 35.132812 84.652344 L 35.042969 84.214844 C 34.429688 82.664062 34.007812 80.234375 33.773438 76.929688 L 34.78125 82.460938 L 33.992188 76.929688 L 33.992188 76.886719 L 32.375 65.828125 L 32.417969 64.949219 L 32.636719 64.949219 L 32.375 63.324219 L 32.417969 62.449219 M 19.074219 93.210938 L 19.382812 92.992188 C 19.933594 93.285156 21.042969 93.519531 22.707031 93.695312 L 28.699219 94.570312 L 30.054688 94.921875 C 30.289062 95.742188 30.523438 96.152344 30.757812 96.152344 L 31.019531 96.152344 L 31.761719 98.214844 L 31.980469 98.742188 L 32.242188 98.917969 L 32.289062 99.046875 L 32.15625 99.09375 L 31.894531 99.179688 L 31.851562 99.222656 L 30.929688 99.046875 L 31.019531 98.785156 L 30.800781 98.652344 L 30.800781 98.742188 L 30.667969 99.003906 C 26.148438 98.066406 23.144531 97.25 21.65625 96.546875 C 19.933594 95.785156 19.074219 94.675781 19.074219 93.210938 "/>
<path style=" stroke:none;fill-rule:evenodd;fill:rgb(63.921571%,20.784314%,31.37255%);fill-opacity:1;" d="M 72.886719 95.1875 C 73.179688 94.863281 73.324219 94.511719 73.324219 94.132812 C 73.324219 92.640625 72.859375 90.492188 71.925781 87.683594 C 71.429688 86.25 70.960938 84.652344 70.523438 82.898438 C 69.972656 81.84375 68.613281 81.320312 66.457031 81.320312 L 54.863281 82.8125 L 43.574219 84.390625 L 39.988281 84.652344 L 39.550781 82.371094 C 38.324219 78.539062 37.144531 72 36.007812 62.753906 L 44.320312 62.976562 L 52.675781 62.753906 L 53.070312 62.359375 L 53.679688 61.4375 L 54.292969 60.339844 L 60.636719 59.726562 L 85.09375 56.039062 L 88.988281 55.382812 C 91.027344 59.246094 92.050781 63.105469 92.050781 66.96875 C 92.050781 70.332031 91.847656 72.878906 91.4375 74.605469 L 90.429688 78.421875 C 89.265625 80.089844 88.636719 81.363281 88.550781 82.242188 L 88.679688 82.285156 C 88.769531 82.519531 88.972656 82.636719 89.292969 82.636719 C 91.570312 82.636719 95.070312 80.675781 99.792969 76.753906 L 100.101562 76.753906 L 101.195312 76.929688 C 101.339844 76.929688 101.484375 76.726562 101.632812 76.316406 C 102.359375 76.226562 102.898438 76.097656 103.25 75.921875 C 103.921875 75.921875 104.257812 76.375 104.257812 77.28125 L 104.210938 78.027344 L 104.167969 78.335938 L 104.167969 79.035156 L 103.992188 79.386719 C 102.332031 83.21875 101.308594 86.117188 100.929688 88.078125 C 100.203125 91.910156 99.835938 96.707031 99.835938 102.472656 L 99.835938 105.761719 C 99.925781 107.898438 100.144531 108.964844 100.492188 108.964844 L 100.625 109.054688 C 100.710938 109.171875 100.902344 109.230469 101.195312 109.230469 C 104.429688 109.230469 106.515625 110.179688 107.449219 112.082031 C 107.800781 112.8125 107.976562 114.085938 107.976562 115.898438 C 107.976562 118.125 107.609375 119.921875 106.882812 121.296875 L 102.945312 127.75 C 102.242188 128.890625 101.308594 130.71875 100.144531 133.234375 C 98.597656 136.453125 97.824219 138.574219 97.824219 139.597656 L 97.867188 140.257812 L 97.867188 140.34375 C 97.898438 140.871094 97.972656 141.25 98.085938 141.484375 L 96.207031 141.574219 L 94.851562 142.011719 L 90.519531 142.800781 L 87.71875 143.546875 L 87.632812 143.546875 L 83.125 144.335938 L 76.167969 144.820312 C 75.265625 144.820312 74.667969 144.953125 74.375 145.214844 L 71.707031 145.304688 L 71.617188 145.304688 L 70.742188 145.257812 L 67.15625 145.304688 L 59.105469 144.90625 C 56.714844 136.65625 55.125 130.953125 54.335938 127.792969 L 53.070312 123.449219 C 52.574219 121.722656 52.296875 120.273438 52.238281 119.105469 C 52.148438 117.40625 51.769531 115.609375 51.101562 113.707031 L 50.792969 112.914062 C 50.328125 111.832031 49.859375 111.117188 49.394531 110.765625 C 47.90625 107.722656 46.8125 105.308594 46.113281 103.523438 L 46.242188 103.4375 C 50.792969 103.4375 54.644531 102.9375 57.792969 101.945312 C 59.425781 101.417969 60.839844 100.816406 62.039062 100.144531 L 68.292969 99.046875 C 71.472656 98.316406 73.0625 97.175781 73.0625 95.625 L 73.019531 95.449219 L 73.238281 95.273438 L 72.886719 95.1875 M 58.800781 97.554688 C 58.332031 96.210938 58.101562 95.316406 58.101562 94.878906 C 58.101562 93.269531 57.894531 91.996094 57.488281 91.0625 L 56.699219 86.585938 C 56.410156 85.269531 55.855469 84.363281 55.039062 83.863281 L 64.226562 82.679688 C 65.976562 82.296875 67.289062 82.296875 68.164062 82.679688 C 68.015625 82.679688 67.929688 82.738281 67.898438 82.855469 C 68.25 83.675781 68.601562 86 68.949219 89.832031 C 68.949219 91.324219 65.566406 93.898438 58.800781 97.554688 M 52.585938 88.164062 L 52.894531 92.246094 C 53.011719 93.882812 53.347656 95.199219 53.898438 96.195312 C 49.144531 97.132812 45.675781 97.601562 43.488281 97.601562 C 43.226562 97.601562 42.363281 96.722656 40.90625 94.96875 C 41.867188 94.234375 42.351562 93.460938 42.351562 92.640625 C 42.351562 92.230469 42.085938 91.761719 41.5625 91.238281 C 41.039062 90.710938 40.773438 90.257812 40.773438 89.875 C 40.542969 88.617188 41.722656 87.988281 44.320312 87.988281 L 52.585938 88.164062 M 78.3125 96.503906 L 78.050781 96.238281 L 78.355469 95.800781 L 76.695312 95.800781 L 75.863281 96.941406 C 72.011719 102.179688 67.914062 106.832031 63.570312 110.898438 L 56.960938 116.425781 L 57.007812 116.734375 C 57.09375 116.9375 57.296875 117.039062 57.617188 117.039062 L 57.925781 117.039062 L 58.40625 117.214844 C 61.527344 118.328125 64.648438 118.882812 67.769531 118.882812 C 69.867188 118.882812 72.203125 115.898438 74.769531 109.933594 C 76.664062 105.542969 77.800781 101.871094 78.179688 98.917969 L 78.179688 98.871094 L 78.3125 97.644531 L 78.3125 96.503906 M 34.648438 100.671875 L 35 102.121094 L 34.824219 102.296875 L 34.914062 102.515625 L 34.957031 102.515625 L 34.695312 103.65625 L 34.648438 103.875 L 34.5625 104.3125 C 34.5625 104.753906 36.707031 104.972656 40.992188 104.972656 C 37.988281 109.214844 36.488281 111.628906 36.488281 112.214844 C 36.429688 112.625 36.648438 112.828125 37.144531 112.828125 C 37.960938 112.828125 39.550781 110.53125 41.914062 105.9375 C 42.144531 106.640625 42.933594 107.695312 44.273438 109.097656 L 44.144531 109.230469 C 43.707031 109.230469 40.90625 112.417969 35.742188 118.796875 L 32.242188 123.886719 C 30.40625 126.695312 29.488281 128.246094 29.488281 128.539062 L 29.53125 128.933594 L 30.101562 129.152344 L 30.1875 129.371094 C 35.027344 130.105469 38.195312 131.203125 39.679688 132.664062 C 40.527344 133.484375 41.300781 134.710938 42 136.351562 C 42.730469 137.199219 43.285156 138.382812 43.664062 139.90625 L 44.492188 143.328125 L 35.4375 142.800781 C 33.863281 142.566406 32.796875 142.261719 32.242188 141.878906 L 27.738281 141.175781 L 21.394531 140.476562 L 21.523438 140.082031 L 17.414062 137.621094 L 13.867188 135.515625 C 13.957031 135.019531 14 134.332031 14 133.453125 C 13.183594 126.871094 12.773438 121.78125 12.773438 118.183594 C 13.210938 115.285156 13.445312 112.390625 13.476562 109.492188 L 13.824219 109.492188 L 13.300781 86.539062 C 13.300781 82.765625 13.941406 77.617188 15.226562 71.09375 C 16.507812 64.539062 17.148438 60.5625 17.148438 59.15625 C 17.238281 57.226562 17.238281 55.703125 17.148438 54.59375 C 17.878906 55.238281 18.945312 55.792969 20.34375 56.261719 L 30.363281 59.859375 L 30.449219 60.605469 C 30.597656 61.511719 31.253906 62.125 32.417969 62.449219 L 32.375 63.324219 L 32.636719 64.949219 L 32.417969 64.949219 L 32.375 65.828125 L 33.992188 76.886719 L 33.773438 76.929688 C 34.007812 80.234375 34.429688 82.664062 35.042969 84.214844 L 35.042969 84.652344 L 34.605469 84.652344 L 30.84375 84.699219 C 29.589844 85.078125 28.960938 86.261719 28.960938 88.253906 L 29.75 93.5625 C 25.609375 92.421875 22.238281 91.851562 19.644531 91.851562 C 19.207031 91.851562 18.988281 92.085938 18.988281 92.554688 L 19.164062 92.859375 L 19.117188 92.859375 L 19.074219 93.210938 C 19.074219 94.675781 19.933594 95.785156 21.65625 96.546875 C 23.144531 97.25 26.148438 98.066406 30.667969 99.003906 L 30.929688 99.046875 L 31.851562 99.222656 L 31.894531 99.179688 L 32.15625 99.09375 L 32.507812 99.664062 L 33.601562 100.320312 L 34.519531 100.628906 L 34.648438 100.671875 M 32.242188 95.492188 L 31.851562 94.351562 L 31.851562 94.175781 L 31.675781 94.132812 L 31.414062 92.378906 L 31.367188 92.378906 L 30.976562 92.289062 L 30.886719 91.984375 C 30.480469 90.433594 30.273438 89.234375 30.273438 88.382812 C 30.273438 87.972656 30.449219 87.460938 30.800781 86.847656 L 31.148438 86.058594 L 36.617188 85.925781 L 36.488281 86.496094 L 36.617188 86.539062 L 36.664062 88.382812 C 36.664062 90.492188 37.011719 92.730469 37.710938 95.097656 L 38.585938 97.46875 L 34.824219 99.09375 C 33.570312 98.449219 32.652344 97.277344 32.070312 95.582031 L 32.242188 95.492188 "/>
</g>
</svg>
