<?xml version="1.0" encoding="UTF-8"?>
<svg xmlns="http://www.w3.org/2000/svg" xmlns:xlink="http://www.w3.org/1999/xlink" width="175px" height="366px" viewBox="0 0 175 366" version="1.1">
<g id="surface1">
<path style=" stroke:none;fill-rule:evenodd;fill:rgb(0%,0%,0%);fill-opacity:1;" d="M 92.574219 36.117188 C 93.507812 36.117188 93.988281 36.351562 94.019531 36.820312 L 95.507812 38.882812 L 95.332031 38.96875 L 95.417969 38.96875 L 98.832031 41.515625 L 101.851562 42.875 C 102.460938 43.199219 102.769531 43.5625 102.769531 43.972656 C 102.769531 44.558594 102.578125 44.96875 102.199219 45.203125 C 101.527344 45.582031 101.019531 45.992188 100.667969 46.429688 L 101.019531 46.648438 L 101.105469 46.5625 C 101.398438 46.328125 101.542969 46.402344 101.542969 46.78125 L 101.542969 46.867188 L 103.335938 47.484375 C 103.980469 47.628906 104.300781 47.980469 104.300781 48.535156 C 104.300781 49.035156 104.007812 49.398438 103.425781 49.632812 C 102.839844 49.898438 102.550781 50.21875 102.550781 50.597656 C 105.175781 56.890625 106.488281 60.824219 106.488281 62.40625 L 106.488281 62.800781 L 108.980469 69.777344 C 110.207031 73.492188 111.636719 78.511719 113.269531 84.828125 C 115.515625 93.460938 116.679688 99.339844 116.769531 102.472656 C 117.292969 103.4375 117.746094 105.074219 118.125 107.386719 L 119.394531 117.214844 L 122.457031 133.015625 C 122.457031 133.484375 122.222656 133.746094 121.757812 133.804688 L 120.355469 136.480469 C 119.191406 138.675781 118.578125 140.710938 118.519531 142.582031 L 118.5625 147.058594 C 118.503906 148.929688 118.199219 150.511719 117.644531 151.796875 C 117.089844 153.113281 115.921875 156.875 114.144531 163.078125 C 113.296875 166 112.597656 168.035156 112.042969 169.175781 L 113.882812 171.328125 L 114.976562 172.730469 L 116.199219 174.003906 L 116.289062 174.089844 L 119.261719 177.207031 C 120.894531 178.261719 122.558594 178.976562 124.25 179.359375 L 130.023438 180.277344 L 131.25 180.542969 C 131.367188 180.164062 131.496094 179.972656 131.644531 179.972656 C 132.226562 179.972656 132.445312 180.542969 132.300781 181.683594 L 131.863281 184.535156 C 131.570312 185.824219 131.425781 187.15625 131.425781 188.53125 C 131.425781 191.28125 132.097656 196.355469 133.4375 203.757812 L 134.707031 211.394531 L 136.0625 215.648438 C 136.238281 216.234375 136.324219 217.289062 136.324219 218.808594 L 136.367188 219.777344 C 136.980469 220.273438 137.332031 222.144531 137.417969 225.394531 L 137.8125 234.742188 L 138.6875 240.226562 L 138.25 240.226562 C 139.707031 243.738281 141.503906 246.984375 143.632812 249.96875 C 144.652344 251.429688 145.164062 254.003906 145.164062 257.691406 L 145.207031 261.949219 L 143.238281 267.214844 C 145.484375 267.566406 148.269531 269.921875 151.59375 274.28125 L 153.519531 277.617188 L 153.648438 279.808594 L 153.5625 279.632812 L 153.648438 279.855469 L 153.648438 280.378906 C 152.601562 285.96875 151.609375 289.332031 150.675781 290.472656 C 151.929688 290.972656 152.980469 291.730469 153.824219 292.757812 L 154 292.40625 L 154.480469 293.195312 L 154.699219 293.503906 L 154.523438 293.851562 L 154.613281 294.027344 C 155.488281 295.695312 156.566406 298.636719 157.851562 302.851562 C 158.375 303.992188 159.03125 306.066406 159.820312 309.082031 C 160.695312 312.386719 161.132812 314.742188 161.132812 316.148438 C 161.132812 319.980469 160.664062 322.320312 159.730469 323.167969 C 158.914062 323.929688 156.363281 325.203125 152.074219 326.988281 C 150.179688 327.953125 147.875 328.757812 145.164062 329.398438 L 139.167969 330.714844 C 133.480469 333.40625 129.542969 334.753906 127.355469 334.753906 C 124.585938 334.753906 121.160156 329.339844 117.074219 318.515625 C 113.339844 310.121094 111.402344 304.78125 111.257812 302.5 C 109.070312 302.441406 107.433594 302.164062 106.355469 301.664062 L 106.355469 302.191406 L 102.945312 299.121094 C 101.136719 297.480469 100.113281 296.164062 99.882812 295.167969 L 99.882812 291.351562 L 99.925781 288.234375 C 100.625 286.890625 100.976562 285.925781 100.976562 285.339844 C 100.976562 284.960938 98.933594 282.195312 94.851562 277.046875 C 90.765625 271.894531 88.726562 268.195312 88.726562 265.941406 C 88.726562 263.71875 89.714844 261.4375 91.699219 259.097656 C 93.652344 256.726562 94.632812 254.664062 94.632812 252.910156 C 92.996094 246.589844 92.007812 242.363281 91.65625 240.226562 L 91.261719 240.226562 L 91.21875 239.917969 L 90.78125 234.519531 C 89.964844 230.277344 89.542969 227.292969 89.511719 225.566406 C 89.484375 224.222656 88.449219 221.238281 86.40625 216.617188 C 85.941406 215.621094 85.617188 214.128906 85.445312 212.140625 C 85.238281 210.089844 84.933594 208.597656 84.523438 207.664062 L 82.730469 203.40625 L 82.730469 202.089844 L 81.460938 197.878906 L 77.394531 184.316406 L 77 194.585938 L 77.132812 199.941406 L 76.957031 205.425781 L 77.132812 205.996094 L 77.351562 205.996094 L 77.351562 207.355469 L 77.394531 207.839844 L 77.351562 208.453125 L 77.351562 224.777344 C 77.582031 227.089844 77.902344 228.609375 78.3125 229.34375 C 78.605469 229.867188 78.75 230.820312 78.75 232.195312 L 78.574219 234.609375 L 78.925781 238.820312 L 79.054688 240.226562 L 78.835938 240.226562 L 78.835938 243.605469 C 78.664062 247.203125 78.75 249.515625 79.101562 250.539062 L 82.03125 255.804688 C 83.867188 259.140625 84.789062 261.230469 84.789062 262.082031 C 84.789062 263.457031 83.300781 265.738281 80.324219 268.925781 L 79.625 269.496094 L 82.074219 271.382812 C 84.757812 273.550781 86.988281 275.773438 88.769531 278.054688 C 89.46875 278.992188 90.199219 281.214844 90.957031 284.726562 C 91.65625 287.972656 92.007812 290.371094 92.007812 291.921875 C 92.007812 293.851562 90.695312 296.542969 88.070312 299.996094 L 85.355469 303.199219 L 85.226562 303.199219 L 85.136719 303.289062 L 83.957031 304.648438 C 84.714844 304.882812 85.210938 305.261719 85.445312 305.789062 C 85.707031 306.316406 85.707031 306.871094 85.445312 307.457031 L 85.007812 325.230469 L 84.570312 334.09375 L 84.261719 338.527344 C 84.234375 339.140625 84.015625 339.902344 83.605469 340.808594 L 82.949219 341.996094 L 82.425781 342.476562 L 70.351562 342.652344 L 51.449219 342.214844 L 50.707031 341.820312 C 50.066406 341.730469 49.464844 341.542969 48.914062 341.25 C 48.210938 340.867188 47.773438 340.210938 47.601562 339.273438 L 47.03125 335.191406 C 45.953125 331.625 45.308594 328.886719 45.105469 326.988281 C 43.617188 318.355469 42.816406 312.988281 42.699219 310.878906 L 38.761719 309.519531 L 38.71875 309.476562 L 37.667969 308.992188 L 37.667969 308.730469 L 36.355469 307.808594 C 33.265625 305.585938 31.078125 303.816406 29.792969 302.5 C 27.519531 300.128906 26.25 298.609375 25.988281 297.933594 C 25.871094 297.640625 25.8125 296.371094 25.8125 294.117188 C 25.8125 293.179688 26.703125 289.832031 28.480469 284.066406 C 27.082031 284.039062 26.03125 282.53125 25.332031 279.546875 L 25.507812 279.195312 C 23.816406 275.890625 22.96875 273.535156 22.96875 272.128906 C 22.96875 269.789062 22.824219 268.195312 22.53125 267.347656 C 22.238281 266.5 22.09375 265.429688 22.09375 264.144531 C 22.09375 260.574219 22.691406 257.046875 23.886719 253.566406 C 24.996094 250.289062 25.855469 247.277344 26.46875 244.527344 L 26.164062 244.21875 L 26.773438 241.148438 L 27.5625 236.40625 L 27.039062 232.675781 C 27.738281 229.78125 28.085938 227.324219 28.085938 225.304688 C 28.085938 220.742188 27.097656 215.957031 25.113281 210.953125 L 23.667969 207.269531 L 23.667969 206.347656 C 22.007812 203.859375 20.914062 201.914062 20.386719 200.511719 L 17.632812 200.511719 L 17.5 200.464844 L 17.195312 200.421875 L 17.105469 200.246094 L 16.929688 200.160156 L 16.800781 200.203125 L 16.40625 200.027344 L 16.40625 199.984375 L 15.925781 199.851562 C 11.347656 198.738281 8.589844 195.257812 7.65625 189.40625 C 7.304688 187.183594 7.175781 184.125 7.261719 180.234375 C 7.351562 176.082031 7.335938 173.492188 7.21875 172.46875 C 5.613281 159.273438 4.8125 149.792969 4.8125 144.03125 C 4.433594 141.71875 4.433594 139.699219 4.8125 137.972656 L 4.8125 137.929688 C 5.511719 134.625 7.742188 132.972656 11.507812 132.972656 L 13.78125 133.015625 L 14.570312 114.804688 C 14.949219 107.136719 15.3125 101.667969 15.664062 98.390625 L 15.269531 92.378906 L 15.007812 83.425781 C 15.007812 78.832031 15.355469 75.085938 16.054688 72.191406 C 15.792969 71.488281 15.445312 70.773438 15.007812 70.039062 C 14.277344 68.78125 13.914062 67.90625 13.914062 67.40625 C 13.914062 67.144531 14.277344 66.75 15.007812 66.222656 C 15.734375 65.695312 16.101562 65.242188 16.101562 64.863281 C 16.101562 64.101562 15.882812 63.339844 15.445312 62.578125 C 15.445312 62.230469 16.203125 60.839844 17.71875 58.410156 C 17.71875 57.621094 17.164062 57.109375 16.054688 56.875 C 14.917969 56.613281 14.351562 56.15625 14.351562 55.515625 C 14.351562 55.164062 15.777344 53.816406 18.636719 51.476562 L 18.289062 46.429688 L 18.507812 45.246094 L 18.289062 44.675781 C 18.289062 44.175781 19.164062 43.929688 20.914062 43.929688 C 48.125 44.28125 61.847656 44.191406 62.082031 43.664062 L 63.789062 43.488281 L 66.894531 42.832031 L 67.113281 42.789062 L 76.300781 40.59375 L 81.855469 39.144531 L 92.574219 36.117188 M 138.074219 290.867188 C 138.132812 291.074219 138.277344 291.21875 138.511719 291.308594 L 138.6875 290.738281 L 142.449219 289.902344 L 146.605469 289.773438 L 149.40625 290.078125 C 151.535156 284.8125 152.601562 281.476562 152.601562 280.074219 C 152.601562 279.109375 151.726562 277.6875 149.976562 275.816406 L 147.351562 272.699219 L 142.667969 268.574219 C 141.675781 270.535156 139.882812 273.359375 137.289062 277.046875 L 136.851562 276.957031 L 136.632812 276.429688 C 136.632812 275.554688 137.023438 274.542969 137.8125 273.402344 L 140.351562 269.890625 C 142.828125 266.324219 144.070312 262.257812 144.070312 257.691406 C 144.070312 254.386719 142.945312 251.066406 140.699219 247.730469 C 138.425781 244.425781 137.289062 241.980469 137.289062 240.402344 L 137.289062 240.226562 L 137.375 239.960938 L 136.585938 235.617188 C 135.859375 230.789062 135.449219 226.226562 135.363281 221.925781 L 135.054688 221.792969 C 135.085938 220.59375 134.285156 215.460938 132.648438 206.390625 C 130.957031 197.175781 130.113281 191.222656 130.113281 188.53125 C 130.113281 187.855469 130.257812 186.394531 130.550781 184.140625 L 130.898438 181.992188 C 125.796875 181.902344 121.273438 180.441406 117.335938 177.601562 C 115.382812 176.199219 114.042969 175 113.3125 174.003906 L 112.742188 173.039062 L 112.570312 173.039062 C 111.257812 171.691406 110.511719 170.640625 110.335938 169.878906 L 110.292969 169.527344 L 110.292969 169.308594 C 110.292969 168.460938 112.191406 162.214844 115.980469 150.570312 C 116.417969 149.195312 116.679688 147.597656 116.769531 145.785156 L 116.855469 141.132812 C 116.945312 139.757812 117.441406 137.945312 118.34375 135.691406 C 119.21875 133.585938 120.035156 132.371094 120.792969 132.050781 C 119.714844 128.21875 117.671875 118.285156 114.667969 102.25 C 114.667969 101.929688 114.769531 101.695312 114.976562 101.550781 L 114.230469 97.292969 L 112.699219 87.242188 C 112.144531 84.902344 110.425781 79.375 107.539062 70.65625 L 105.351562 64.554688 C 104.707031 64.554688 104.386719 64.175781 104.386719 63.414062 L 104.5625 62.449219 L 104.257812 61.703125 L 104.605469 61.613281 C 104.371094 59.480469 103.132812 55.660156 100.886719 50.160156 C 100.886719 49.75 101.179688 49.238281 101.761719 48.625 L 100.101562 48.140625 C 99.691406 48.316406 99.296875 48.40625 98.917969 48.40625 L 98.042969 48.40625 L 99.269531 47.835938 C 99.035156 47.6875 98.875 47.511719 98.789062 47.308594 C 98.058594 47.746094 97.371094 47.964844 96.730469 47.964844 C 95.769531 48.550781 95.113281 48.84375 94.761719 48.84375 L 93.710938 48.800781 C 93.214844 49.152344 92.109375 49.574219 90.386719 50.074219 C 88.199219 50.6875 86.261719 51.054688 84.570312 51.167969 L 81.855469 51.652344 L 79.230469 52.136719 L 74.199219 53.453125 L 73.414062 53.453125 L 71.925781 53.40625 L 71.792969 53.40625 L 71.925781 53.890625 L 67.113281 54.945312 C 56.292969 57.253906 48.300781 58.410156 43.136719 58.410156 L 32.375 57.972656 C 27.621094 57.648438 24.542969 57.285156 23.144531 56.875 L 19.074219 56.832031 C 19.367188 57.328125 19.511719 57.914062 19.511719 58.585938 C 19.511719 58.996094 19.175781 59.710938 18.507812 60.738281 L 17.5 62.667969 L 17.980469 65.871094 C 17.980469 66.777344 17.425781 67.347656 16.320312 67.582031 C 17.046875 68.988281 17.542969 70.15625 17.804688 71.09375 L 18.199219 71.003906 L 17.9375 71.839844 L 17.980469 72.324219 C 17.980469 73.199219 17.804688 73.742188 17.457031 73.945312 C 16.929688 76.519531 16.667969 79.710938 16.667969 83.511719 L 16.929688 92.378906 L 17.105469 95.84375 C 17.222656 96.371094 17.296875 97.101562 17.324219 98.039062 L 17.367188 98.960938 L 17.542969 100.980469 L 17.457031 103.523438 L 17.324219 103.523438 C 17.238281 105.542969 17.0625 107.371094 16.800781 109.011719 C 16.390625 111.527344 16.128906 114.847656 16.011719 118.972656 L 15.355469 136.304688 C 15.355469 137.125 16.160156 137.8125 17.761719 138.367188 L 18.636719 138.675781 L 23.800781 138.675781 L 31.195312 139.554688 L 44.539062 139.6875 L 44.625 139.6875 L 44.625 139.773438 L 44.929688 139.773438 L 44.976562 139.6875 L 62.34375 139.949219 L 64.09375 139.816406 L 64.269531 139.070312 L 64.355469 139.070312 L 64.355469 139.816406 L 66.195312 139.949219 L 64.398438 133.980469 C 61.394531 124.53125 59.746094 117.949219 59.457031 114.230469 C 59.136719 114.117188 58.976562 113.910156 58.976562 113.617188 C 58.976562 113.355469 59.0625 113.078125 59.238281 112.785156 L 58.667969 111.820312 L 56.132812 108.878906 L 54.03125 106.15625 L 53.8125 105.804688 L 52.71875 104.007812 L 49.875 98.523438 L 47.730469 93.957031 C 47.730469 93.429688 48.023438 93.167969 48.605469 93.167969 L 50.664062 96.460938 L 51.800781 98.523438 L 53.199219 101.285156 C 53.460938 101.8125 54.234375 102.867188 55.519531 104.445312 L 56.613281 105.761719 L 56.960938 106.15625 L 55.914062 106.15625 L 57.226562 108.089844 L 59.761719 111.949219 L 60.289062 111.378906 L 62.476562 108.964844 L 63.789062 106.550781 L 64.050781 106.15625 L 64.355469 105.804688 L 65.273438 104.445312 L 66.105469 103.304688 L 69.429688 98.523438 L 70.917969 96.0625 L 71.835938 92.378906 L 71.882812 92.113281 C 72.320312 90.183594 72.871094 89.21875 73.542969 89.21875 L 74.15625 89.480469 L 73.894531 89.65625 C 73.953125 89.773438 74.097656 89.847656 74.332031 89.875 L 74.332031 90.445312 L 74.199219 92.378906 C 73.9375 94.105469 73.355469 95.769531 72.449219 97.378906 L 71.75 98.523438 L 68.335938 102.996094 L 67.242188 104.445312 L 66.5 105.5 L 66.105469 106.15625 L 63.960938 109.273438 L 60.636719 113.3125 L 60.945312 113.835938 L 60.855469 114.671875 L 60.726562 114.890625 L 66.195312 135.429688 L 67.726562 141.089844 C 68.046875 143.429688 68.425781 144.953125 68.863281 145.652344 L 69.210938 147.234375 L 69.300781 147.714844 L 69.648438 149.429688 C 70.058594 150.304688 70.421875 151.753906 70.742188 153.773438 L 72.011719 162.332031 C 72.480469 164.320312 73.980469 168.984375 76.519531 176.328125 L 80.851562 188.75 L 82.730469 194.628906 C 84.277344 199.601562 85.050781 202.75 85.050781 204.066406 L 84.875 204.8125 L 85.179688 205.511719 L 87.542969 213.894531 C 88.507812 217.550781 89.46875 220.507812 90.429688 222.757812 C 90.808594 223.667969 91.292969 226.285156 91.875 230.613281 C 92.457031 234.914062 92.75 238.003906 92.75 239.875 L 92.792969 240.226562 L 92.355469 240.226562 L 92.355469 240.359375 L 95.726562 252.953125 C 95.726562 253.890625 95.507812 254.867188 95.070312 255.894531 L 94.632812 256.242188 L 94.71875 256.550781 C 94.253906 257.457031 93.609375 258.394531 92.792969 259.359375 C 90.808594 261.699219 89.820312 263.894531 89.820312 265.941406 C 89.820312 266.996094 90.386719 268.488281 91.523438 270.417969 L 91.570312 270.507812 L 91.917969 271.078125 L 92.007812 271.207031 L 95.945312 276.5625 C 100.027344 281.683594 102.070312 284.609375 102.070312 285.339844 L 101.542969 287.621094 C 101.164062 288.910156 100.976562 290.152344 100.976562 291.351562 C 100.976562 294.863281 102.609375 297.773438 105.875 300.085938 L 105.917969 300.085938 L 109.550781 300.566406 L 111.648438 301.136719 C 112.789062 299.46875 116.332031 297.570312 122.28125 295.433594 C 127.066406 293.734375 132.328125 292.214844 138.074219 290.867188 M 99.445312 44.410156 C 95.828125 40.550781 93.273438 38.617188 91.789062 38.617188 L 81.855469 41.164062 L 77.085938 42.347656 L 76.34375 42.566406 L 76.257812 42.566406 L 76.300781 42.875 C 76.328125 43.199219 76.429688 43.386719 76.605469 43.445312 L 76.914062 43.578125 L 76.039062 45.640625 L 77.042969 47 L 76.476562 48.359375 C 76.941406 49.035156 77.175781 49.53125 77.175781 49.851562 C 76.855469 49.910156 76.695312 50.117188 76.695312 50.46875 L 76.738281 50.820312 L 76.914062 50.949219 L 77.351562 51.082031 L 77.480469 51.125 L 77.917969 51.125 L 81.855469 49.941406 C 93.582031 46.402344 99.445312 44.558594 99.445312 44.410156 M 18.855469 56.4375 L 19.074219 56.214844 L 22.574219 56.347656 L 22.398438 55.820312 C 22.632812 55.558594 23.128906 55.425781 23.886719 55.425781 L 30.320312 56.039062 L 43.007812 56.65625 L 56.742188 55.777344 C 58.261719 55.457031 59.527344 55.089844 60.550781 54.679688 L 67.113281 53.847656 L 67.550781 53.804688 L 71.007812 53.011719 L 71.398438 53.101562 L 73.894531 52.53125 L 74.550781 51.609375 C 75.105469 51.402344 74.738281 51.167969 73.457031 50.90625 C 73.484375 50.496094 73.792969 50.015625 74.375 49.457031 C 74.929688 48.933594 75.207031 48.492188 75.207031 48.140625 L 74.460938 47.484375 C 73.9375 47.25 73.675781 47.042969 73.675781 46.867188 C 73.675781 46.226562 74.257812 45.304688 75.425781 44.105469 C 75.425781 43.839844 74.726562 43.636719 73.324219 43.488281 L 73.28125 43.359375 L 71.136719 43.710938 L 67.113281 44.761719 L 66.761719 44.804688 L 62.605469 45.332031 L 62.167969 45.640625 L 41.519531 45.683594 L 19.773438 45.378906 C 20.242188 46.136719 20.546875 47.894531 20.695312 50.644531 L 20.78125 50.863281 L 20.824219 51.390625 C 20.824219 51.535156 20.78125 51.683594 20.695312 51.828125 L 20.738281 52.574219 L 20.386719 52.3125 L 19.46875 53.101562 L 16.625 55.121094 L 16.449219 55.296875 L 16.582031 55.339844 C 17.601562 55.542969 18.347656 55.925781 18.8125 56.480469 L 18.855469 56.523438 L 18.898438 56.613281 L 18.855469 56.4375 M 78.664062 49.632812 L 78.664062 49.414062 L 78.707031 49.589844 L 78.664062 49.632812 M 68.03125 148.375 L 66.632812 148.8125 L 66.148438 149.339844 L 64.664062 149.558594 L 64.355469 149.691406 L 64.355469 150.746094 L 64.226562 149.953125 C 61.714844 150.6875 56.042969 151.695312 47.207031 152.984375 L 47.117188 152.28125 L 46.726562 152.28125 L 46.726562 153.027344 L 37.84375 154.253906 C 36.792969 154.402344 34.722656 154.988281 31.632812 156.011719 C 28.074219 156.917969 23.859375 157.402344 18.988281 157.460938 L 18.945312 161.410156 L 19.25 170.230469 L 21.4375 170.273438 L 35.351562 169.484375 C 35.464844 169.277344 35.683594 169.175781 36.007812 169.175781 L 36.96875 169.308594 L 47.25 167.949219 L 47.6875 167.949219 L 47.6875 168.078125 L 47.992188 168.078125 L 47.992188 167.902344 C 52.980469 167.550781 56.890625 166.996094 59.71875 166.234375 L 64.355469 165.09375 L 64.355469 165.3125 L 64.445312 165.269531 L 66.632812 164.394531 L 70.394531 163.03125 C 70.160156 161.832031 70.015625 160.691406 69.957031 159.609375 C 68.410156 153.699219 67.636719 150.234375 67.636719 149.207031 C 67.636719 148.859375 67.785156 148.625 68.074219 148.507812 L 68.335938 148.417969 L 68.335938 148.285156 L 68.03125 148.375 M 45.414062 148.285156 L 56.042969 149.734375 L 59.980469 149.296875 C 61.496094 148.769531 62.636719 148.460938 63.394531 148.375 L 63.832031 148.023438 L 63.789062 147.628906 L 63.917969 147.628906 L 64.355469 147.496094 L 64.355469 147.714844 C 65.320312 147.160156 66.527344 146.867188 67.988281 146.839844 L 66.542969 141.265625 L 64.355469 141.484375 L 64.355469 142.054688 L 64.007812 142.011719 L 63.699219 142.097656 L 63.742188 141.96875 L 61.554688 143.109375 C 59.425781 144.101562 57.617188 144.71875 56.132812 144.953125 C 52.253906 146.179688 48.679688 147.085938 45.414062 147.671875 L 43.179688 148.023438 L 43.488281 148.066406 L 45.414062 148.285156 M 45.414062 145.785156 L 45.851562 145.699219 C 49.582031 145.171875 52.105469 144.542969 53.417969 143.8125 C 54.175781 143.429688 56.246094 142.816406 59.632812 141.96875 L 60.59375 141.660156 L 57.664062 141.660156 L 45.851562 141.574219 L 45.804688 141.089844 L 45.414062 141.089844 L 45.414062 141.574219 L 27.125 140.652344 L 20.476562 139.949219 C 20.445312 141.703125 20.257812 143.988281 19.90625 146.796875 L 21.042969 146.574219 L 32.8125 147.101562 L 33.511719 147.058594 L 45.414062 145.785156 M 48.210938 171.328125 L 64.355469 170.84375 L 64.355469 171.105469 L 68.601562 170.976562 L 72.625 171.105469 L 72.363281 170.40625 C 71.664062 168.386719 71.121094 166.484375 70.742188 164.699219 L 68.292969 165.796875 L 64.355469 167.070312 L 63.4375 167.15625 L 48.78125 169.351562 L 48.5625 169.351562 L 48.257812 169.308594 L 48.210938 169.394531 L 40.074219 170.359375 C 41.882812 171.035156 43.984375 171.371094 46.375 171.371094 L 48.210938 171.328125 M 48.605469 173.039062 C 44.464844 172.949219 41.082031 172.511719 38.457031 171.722656 L 36.007812 170.800781 L 24.542969 171.941406 L 19.335938 171.722656 L 19.382812 173.167969 L 19.601562 173.125 L 28.21875 174.835938 L 43.96875 177.734375 L 49.351562 178.4375 L 49.480469 178.480469 L 62.125 179.929688 L 64.355469 180.234375 L 64.355469 180.410156 L 69.386719 181.59375 L 74.769531 182.078125 L 75.164062 182.429688 L 76.386719 181.945312 L 76.605469 181.945312 L 74.945312 177.207031 L 74.8125 176.8125 L 73.148438 172.554688 L 68.601562 172.644531 L 64.355469 172.511719 L 64.355469 172.730469 C 61.03125 172.9375 56.21875 173.039062 49.917969 173.039062 L 48.605469 173.039062 M 50.050781 185.546875 L 51.054688 185.546875 L 60.15625 185.457031 C 60.390625 185.164062 60.871094 184.960938 61.601562 184.84375 L 64.355469 184.535156 L 69.957031 183.789062 L 71.179688 183.613281 C 68.992188 183.46875 66.71875 182.925781 64.355469 181.992188 L 64.355469 182.386719 L 57.226562 181.375 L 49.789062 180.277344 L 49.613281 180.234375 L 40.164062 178.832031 C 28.640625 177.308594 21.742188 175.992188 19.46875 174.882812 L 19.820312 179.488281 C 19.847656 181.390625 20.371094 182.898438 21.394531 184.007812 L 21.832031 184.449219 L 22.445312 184.316406 L 48.519531 185.546875 L 50.050781 185.546875 M 66.367188 305.132812 L 66.761719 305.351562 L 67.15625 305.085938 L 78.355469 304.386719 L 80.980469 304.253906 L 82.863281 304.386719 L 83.738281 303.199219 L 82.820312 303.199219 L 86.449219 299.558594 C 89.425781 296.660156 90.914062 294.101562 90.914062 291.878906 C 90.914062 283.746094 87.894531 277.367188 81.855469 272.746094 L 75.601562 268.664062 C 74.054688 267.699219 73.136719 266.835938 72.84375 266.074219 L 72.886719 266.074219 L 73.324219 265.855469 L 73.414062 265.546875 L 72.929688 265.195312 C 73.105469 265.050781 73.238281 264.976562 73.324219 264.976562 C 73.558594 264.976562 75.367188 266.265625 78.75 268.839844 L 79.886719 267.828125 L 79.976562 267.917969 L 81.636719 265.988281 C 83.007812 264.464844 83.695312 263.121094 83.695312 261.949219 C 83.695312 261.394531 82.746094 259.433594 80.851562 256.066406 C 78.953125 252.675781 78.007812 250.859375 78.007812 250.625 L 77.832031 240.226562 L 77.613281 240.226562 L 77.4375 233.335938 L 77.21875 232.0625 L 76.429688 227.457031 C 76.167969 226.578125 76.039062 224.03125 76.039062 219.820312 L 75.992188 208.628906 L 75.730469 207.839844 L 75.511719 206.304688 L 75.554688 205.996094 C 75.554688 205.761719 75.601562 205.570312 75.6875 205.425781 L 75.382812 205.292969 L 75.292969 195.59375 L 75.292969 188.660156 C 75.351562 186.582031 75.484375 184.988281 75.6875 183.878906 L 72.40625 185.019531 C 69.109375 186.070312 66.425781 186.628906 64.355469 186.6875 L 64.007812 186.6875 L 61.90625 186.640625 L 51.449219 187.300781 L 48.605469 187.300781 C 34.226562 187.359375 25.566406 186.949219 22.617188 186.070312 L 22.179688 186.203125 L 22.226562 186.378906 L 21.832031 186.117188 L 21.832031 186.292969 C 21.800781 186.847656 21.613281 187.550781 21.261719 188.398438 L 20.957031 189.320312 L 20.78125 190.941406 L 20.78125 195.683594 L 20.695312 199.71875 L 21.21875 200.511719 L 23.667969 204.242188 L 23.667969 202.046875 L 24.414062 202.046875 L 24.5 203.230469 C 24.5 203.609375 24.367188 203.84375 24.105469 203.933594 L 24.761719 205.953125 L 25.8125 207.574219 L 25.726562 208.410156 L 25.550781 208.453125 L 25.550781 208.496094 C 26.394531 211.246094 26.992188 212.945312 27.34375 213.585938 C 27.695312 214.320312 28.132812 216.164062 28.65625 219.117188 C 29.152344 222.042969 29.398438 224.105469 29.398438 225.304688 C 29.398438 227.585938 29.050781 230.042969 28.351562 232.675781 C 28.351562 233.292969 28.800781 235.808594 29.707031 240.226562 L 28.304688 240.226562 L 28.175781 239.742188 L 28.175781 240.226562 L 28.085938 241.234375 L 28.21875 241.5 L 28.21875 241.980469 C 28.21875 242.828125 28.015625 244.117188 27.605469 245.84375 L 25.726562 252.117188 C 24.035156 257.179688 23.1875 261.160156 23.1875 264.054688 L 23.320312 265.8125 L 22.96875 266.117188 C 22.503906 266.324219 22.675781 266.484375 23.492188 266.601562 L 23.625 267.082031 C 23.917969 267.84375 24.0625 269.351562 24.0625 271.605469 L 26.164062 277.484375 L 26.6875 278.976562 L 26.6875 279.0625 L 28.789062 283.011719 C 30.769531 276.546875 32.242188 273.316406 33.207031 273.316406 C 33.671875 273.316406 33.90625 273.476562 33.90625 273.796875 L 33.730469 274.238281 L 32.8125 274.894531 L 33.207031 275.464844 L 30.40625 281.742188 C 28.074219 287.503906 26.90625 291.644531 26.90625 294.160156 C 26.90625 296.941406 28.101562 299.441406 30.492188 301.664062 L 38.761719 308.246094 L 41.082031 308.992188 L 42.875 309.695312 C 44.246094 307.734375 52.078125 306.214844 66.367188 305.132812 M 142.1875 328.875 C 142.421875 329.28125 142.652344 329.488281 142.886719 329.488281 C 143.238281 329.488281 143.382812 329.414062 143.324219 329.269531 L 143.414062 328.785156 L 143.367188 328.523438 L 151.417969 325.890625 C 155.648438 324.691406 158.289062 323.183594 159.335938 321.367188 C 159.804688 320.550781 160.039062 318.78125 160.039062 316.058594 C 160.039062 315.179688 159.542969 312.914062 158.550781 309.257812 L 156.667969 303.15625 C 155.296875 299.410156 154.175781 296.574219 153.300781 294.644531 L 152.820312 294.644531 L 153.082031 294.160156 C 152.496094 292.816406 152.046875 291.980469 151.726562 291.660156 C 151.257812 291.132812 150.355469 290.867188 149.011719 290.867188 L 142.449219 291 C 139.648438 291 133.890625 292.609375 125.167969 295.828125 C 117.585938 298.636719 113.371094 300.523438 112.523438 301.488281 L 113.007812 301.839844 L 112.570312 302.410156 L 114.101562 307.324219 L 114.101562 307.371094 L 114.144531 307.675781 L 114.230469 307.722656 C 119.859375 324.953125 124.308594 333.570312 127.574219 333.570312 L 142.1875 328.875 M 63.570312 341.46875 L 80.105469 341.46875 C 81.972656 341.378906 83.050781 340.925781 83.34375 340.109375 C 83.488281 339.667969 83.503906 338.015625 83.386719 335.148438 C 83.242188 331.609375 83.417969 328.039062 83.914062 324.441406 C 84.234375 322.128906 84.394531 318.707031 84.394531 314.171875 L 84.351562 307.632812 L 84.570312 306.84375 C 84.628906 306.550781 84.554688 306.332031 84.351562 306.183594 C 83.765625 305.714844 81.667969 305.484375 78.050781 305.484375 L 66.238281 306.183594 L 50.136719 307.894531 C 46.726562 308.363281 44.785156 309.199219 44.320312 310.398438 L 44.625 310.617188 L 44.1875 311.144531 L 44.40625 312.460938 L 44.230469 312.769531 L 44.1875 312.8125 L 44.492188 312.941406 L 44.84375 314.039062 C 44.84375 314.421875 44.699219 314.726562 44.40625 314.960938 C 44.40625 320.050781 45.136719 324.601562 46.59375 328.609375 L 48.167969 335.542969 L 48.695312 338.96875 C 48.808594 339.550781 49.21875 340.019531 49.917969 340.371094 C 51.027344 340.984375 51.976562 341.320312 52.761719 341.378906 L 62.648438 341.46875 C 62.765625 341.820312 62.898438 341.996094 63.042969 341.996094 C 63.394531 341.996094 63.539062 341.921875 63.480469 341.777344 L 63.570312 341.46875 M 11.988281 142.144531 L 11.945312 141.96875 C 13.109375 141.234375 14.714844 140.871094 16.757812 140.871094 L 18.460938 140.957031 L 18.550781 140.519531 L 18.289062 140.5625 L 17.761719 140.386719 C 14.847656 140.269531 13.488281 138.882812 13.695312 136.21875 L 13.738281 134.8125 L 11.679688 134.726562 C 10.542969 134.726562 9.582031 134.886719 8.792969 135.210938 L 8.617188 135.164062 L 8.226562 135.164062 L 8.226562 135.386719 L 8.269531 135.429688 C 7.335938 135.925781 6.738281 136.714844 6.476562 137.796875 L 6.429688 137.972656 C 6.167969 139.203125 6.183594 141.25 6.476562 144.117188 C 6.476562 146.339844 6.589844 149.0625 6.824219 152.28125 L 6.824219 152.324219 L 7 152.238281 C 7.875 151.855469 8.457031 151.210938 8.75 150.304688 L 9.539062 147.015625 C 9.480469 145.785156 9.710938 144.6875 10.238281 143.722656 C 10.527344 143.167969 10.9375 142.683594 11.460938 142.273438 L 11.59375 142.625 L 12.03125 142.40625 L 11.988281 142.144531 M 11.59375 146.09375 L 10.632812 144.953125 L 10.414062 145.171875 L 11.375 146.75 L 11.242188 147.234375 L 11.070312 147.804688 C 10.921875 148.300781 10.777344 149.546875 10.632812 151.535156 C 10.195312 153.289062 9.070312 154.167969 7.261719 154.167969 L 6.957031 154.167969 L 6.957031 154.210938 C 7.363281 159.183594 8.007812 165.226562 8.882812 172.335938 C 9.203125 176.664062 9.203125 181.316406 8.882812 186.292969 C 8.765625 188.105469 9.304688 190.476562 10.5 193.402344 C 10.996094 194.6875 11.839844 195.828125 13.039062 196.824219 L 15.882812 198.796875 L 16.625 198.621094 L 17.585938 198.796875 L 17.980469 198.929688 C 18.273438 199.019531 18.578125 199.148438 18.898438 199.324219 L 19.292969 199.542969 L 19.292969 199.367188 L 19.46875 194.847656 L 20.039062 188.355469 L 20.257812 187.039062 L 20.648438 185.589844 C 19.980469 184.917969 19.425781 183.730469 18.988281 182.035156 C 18.492188 180.21875 18.097656 177.820312 17.804688 174.835938 L 17.71875 173.914062 L 17.28125 161.410156 L 17.367188 157.109375 L 17.28125 156.714844 L 17.414062 156.40625 C 17.558594 150.144531 17.820312 145.507812 18.199219 142.496094 L 13.914062 143.066406 C 13.386719 143.242188 12.789062 143.722656 12.117188 144.511719 L 11.59375 146.09375 M 45.980469 150.085938 L 32.242188 149.296875 L 21.570312 148.636719 C 20.664062 148.492188 20.050781 148.285156 19.730469 148.023438 L 19.382812 150.394531 C 19.207031 151.738281 19.089844 153.554688 19.03125 155.835938 L 19.863281 155.746094 C 22.953125 155.6875 26.148438 155.191406 29.445312 154.253906 L 36.882812 152.808594 L 45.980469 151.402344 L 45.9375 151.621094 L 46.242188 151.621094 L 46.332031 151.359375 L 51.667969 150.570312 L 45.980469 150.085938 "/>
<path style=" stroke:none;fill-rule:evenodd;fill:rgb(31.764707%,25.490198%,40.000001%);fill-opacity:1;" d="M 44.539062 139.246094 L 44.625 139.6875 L 44.539062 139.289062 L 44.539062 139.246094 M 16.582031 55.339844 L 16.449219 55.296875 L 16.625 55.121094 L 16.582031 55.339844 M 114.101562 307.324219 L 114.144531 307.675781 L 114.101562 307.371094 L 114.101562 307.324219 M 44.230469 312.769531 L 44.492188 312.941406 L 44.1875 312.8125 L 44.230469 312.769531 M 19.292969 199.367188 L 19.292969 199.542969 L 18.898438 199.324219 L 19.292969 199.367188 "/>
<path style=" stroke:none;fill-rule:evenodd;fill:rgb(7.843138%,25.098041%,30.19608%);fill-opacity:1;" d="M 44.625 139.6875 L 44.539062 139.6875 L 44.539062 139.289062 L 44.625 139.6875 M 71.925781 53.890625 L 71.792969 53.40625 L 71.925781 53.40625 L 71.925781 53.890625 M 81.769531 55.644531 L 81.8125 55.644531 L 81.769531 55.644531 M 22.226562 186.378906 L 22.179688 186.203125 L 22.617188 186.070312 L 22.226562 186.378906 M 17.585938 198.796875 L 16.625 198.621094 L 17.414062 198.402344 L 17.585938 198.796875 M 6.957031 154.210938 L 6.957031 154.167969 L 7.261719 154.167969 L 6.957031 154.210938 M 11.242188 147.234375 L 11.375 146.75 L 11.855469 147.410156 L 11.242188 147.234375 "/>
<path style=" stroke:none;fill-rule:evenodd;fill:rgb(37.64706%,34.117648%,56.470591%);fill-opacity:1;" d="M 92.007812 271.207031 L 91.917969 271.078125 L 92.136719 271.121094 L 92.007812 271.207031 M 91.570312 270.507812 L 91.523438 270.417969 L 91.570312 270.417969 L 91.570312 270.507812 M 81.8125 55.644531 L 81.769531 55.867188 L 81.769531 55.644531 L 81.8125 55.644531 M 42.085938 106.070312 L 42.132812 106.15625 L 41.914062 106.15625 L 42.085938 106.070312 M 33.730469 274.238281 L 33.90625 273.796875 L 34.039062 273.972656 L 33.730469 274.238281 M 25.550781 208.496094 L 25.550781 208.453125 L 25.726562 208.410156 L 25.550781 208.496094 M 55.695312 243.957031 L 55.695312 244.085938 C 55.695312 244.4375 55.535156 244.773438 55.210938 245.097656 L 55.695312 243.957031 M 111.605469 249.398438 L 111.605469 249.441406 L 111.605469 249.398438 M 63.570312 341.46875 L 63.570312 341.335938 L 63.570312 341.46875 M 39.855469 263.703125 L 39.8125 263.878906 L 39.8125 263.75 L 39.855469 263.703125 "/>
<path style=" stroke:none;fill-rule:evenodd;fill:rgb(20%,34.509805%,36.862746%);fill-opacity:1;" d="M 74.332031 90.445312 L 74.332031 89.875 L 74.417969 89.875 L 74.417969 90.183594 L 74.460938 90.402344 L 74.332031 90.445312 M 18.855469 56.4375 L 18.898438 56.613281 L 18.855469 56.523438 L 18.8125 56.480469 L 18.855469 56.4375 M 91.085938 132.621094 L 90.167969 129.855469 L 90.039062 129.503906 L 89.949219 129.195312 L 92.226562 135.867188 L 91.085938 132.621094 M 50.179688 187.300781 L 50.179688 187.386719 L 49.789062 187.386719 L 49.789062 187.300781 L 50.179688 187.300781 "/>
<path style=" stroke:none;fill-rule:evenodd;fill:rgb(3.529412%,17.254902%,19.607843%);fill-opacity:1;" d="M 90.039062 129.503906 L 90.167969 129.855469 L 91.085938 132.621094 L 91.042969 132.621094 L 90.082031 129.855469 L 89.949219 129.546875 L 90.039062 129.503906 "/>
<path style=" stroke:none;fill-rule:evenodd;fill:rgb(0%,10.980392%,11.372549%);fill-opacity:1;" d="M 35.65625 92.378906 L 35.085938 92.378906 L 35.261719 92.203125 L 35.65625 92.378906 M 91.042969 132.621094 L 91.085938 132.621094 L 92.226562 135.867188 L 92.136719 136.570312 L 91.042969 132.621094 M 96.949219 151.839844 L 97.386719 151.710938 L 96.949219 151.886719 L 96.949219 151.839844 M 47.207031 152.984375 L 46.726562 152.984375 L 46.726562 152.28125 L 47.117188 152.28125 L 47.207031 152.984375 M 50.179688 187.386719 C 50.066406 187.476562 49.933594 187.550781 49.789062 187.609375 L 49.789062 187.386719 L 50.179688 187.386719 M 8.617188 135.164062 L 8.269531 135.429688 L 8.226562 135.386719 L 8.226562 135.164062 L 8.617188 135.164062 M 11.460938 142.273438 L 11.988281 142.144531 L 12.03125 142.40625 L 11.59375 142.625 L 11.460938 142.273438 M 11.375 146.75 L 10.414062 145.171875 L 10.632812 144.953125 L 11.59375 146.09375 L 11.375 146.75 M 17.980469 198.929688 L 17.585938 198.796875 L 17.414062 198.402344 L 17.980469 198.929688 "/>
<path style=" stroke:none;fill-rule:evenodd;fill:rgb(75.294119%,76.47059%,73.725492%);fill-opacity:1;" d="M 45.414062 147.671875 C 48.679688 147.085938 52.253906 146.179688 56.132812 144.953125 C 57.617188 144.71875 59.425781 144.101562 61.554688 143.109375 L 63.742188 141.96875 L 63.699219 142.097656 L 64.007812 142.011719 L 64.355469 142.054688 L 64.355469 141.484375 L 66.542969 141.265625 L 67.988281 146.839844 C 66.527344 146.867188 65.320312 147.160156 64.355469 147.714844 L 64.355469 147.496094 L 63.917969 147.628906 L 63.789062 147.628906 L 63.832031 148.023438 L 63.394531 148.375 C 62.636719 148.460938 61.496094 148.769531 59.980469 149.296875 L 56.042969 149.734375 L 45.414062 148.285156 L 45.414062 147.671875 M 45.414062 141.574219 L 45.414062 141.089844 L 45.804688 141.089844 L 45.851562 141.574219 L 57.664062 141.660156 L 60.59375 141.660156 L 59.632812 141.96875 C 56.246094 142.816406 54.175781 143.429688 53.417969 143.8125 C 52.105469 144.542969 49.582031 145.171875 45.851562 145.699219 L 45.414062 145.785156 L 45.414062 141.574219 M 48.78125 169.351562 L 63.4375 167.15625 L 64.355469 167.070312 L 68.292969 165.796875 L 70.742188 164.699219 C 71.121094 166.484375 71.664062 168.386719 72.363281 170.40625 L 72.625 171.105469 L 68.601562 170.976562 L 64.355469 171.105469 L 64.355469 170.84375 L 48.210938 171.328125 L 48.039062 169.746094 L 48.039062 169.613281 L 48.082031 169.613281 L 48.210938 169.441406 L 48.210938 169.394531 L 48.257812 169.308594 L 48.5625 169.351562 L 48.78125 169.394531 L 48.78125 169.351562 M 49.480469 178.480469 L 49.351562 175.847656 L 49.085938 174.835938 L 48.605469 173.039062 L 49.917969 173.039062 C 56.21875 173.039062 61.03125 172.9375 64.355469 172.730469 L 64.355469 172.511719 L 68.601562 172.644531 L 73.148438 172.554688 L 74.8125 176.8125 L 74.945312 177.207031 L 76.605469 181.945312 L 76.386719 181.945312 L 75.164062 182.429688 L 74.769531 182.078125 L 69.386719 181.59375 L 64.355469 180.410156 L 64.355469 180.234375 L 62.125 179.929688 L 49.480469 178.480469 M 49.613281 180.234375 L 49.789062 180.277344 L 57.226562 181.375 L 64.355469 182.386719 L 64.355469 181.992188 C 66.71875 182.925781 68.992188 183.46875 71.179688 183.613281 L 69.957031 183.789062 L 64.355469 184.535156 L 61.601562 184.84375 C 60.871094 184.960938 60.390625 185.164062 60.15625 185.457031 L 51.054688 185.546875 L 50.050781 185.546875 L 50.007812 185.414062 C 49.859375 185.0625 49.789062 183.921875 49.789062 181.992188 L 49.613281 180.234375 M 45.980469 151.402344 L 45.980469 150.085938 L 51.667969 150.570312 L 46.332031 151.359375 L 46.242188 151.621094 L 45.9375 151.621094 L 45.980469 151.402344 "/>
<path style=" stroke:none;fill-rule:evenodd;fill:rgb(92.54902%,94.901961%,93.333334%);fill-opacity:1;" d="M 45.414062 147.671875 L 45.414062 148.285156 L 43.488281 148.066406 L 43.179688 148.023438 L 45.414062 147.671875 M 45.414062 141.574219 L 45.414062 145.785156 L 33.511719 147.058594 L 32.8125 147.101562 L 21.042969 146.574219 L 19.90625 146.796875 C 20.257812 143.988281 20.445312 141.703125 20.476562 139.949219 L 27.125 140.652344 L 45.414062 141.574219 M 48.78125 169.351562 L 48.78125 169.394531 L 48.5625 169.351562 L 48.78125 169.351562 M 48.210938 169.394531 L 48.210938 169.441406 L 48.082031 169.613281 L 48.039062 169.613281 L 48.039062 169.746094 L 48.210938 171.328125 L 46.375 171.371094 C 43.984375 171.371094 41.882812 171.035156 40.074219 170.359375 L 48.210938 169.394531 M 49.480469 178.480469 L 49.351562 178.4375 L 43.96875 177.734375 L 28.21875 174.835938 L 19.601562 173.125 L 19.382812 173.167969 L 19.335938 171.722656 L 24.542969 171.941406 L 36.007812 170.800781 L 38.457031 171.722656 C 41.082031 172.511719 44.464844 172.949219 48.605469 173.039062 L 49.085938 174.835938 L 49.351562 175.847656 L 49.480469 178.480469 M 49.613281 180.234375 L 49.789062 181.992188 C 49.789062 183.921875 49.859375 185.0625 50.007812 185.414062 L 50.050781 185.546875 L 48.519531 185.546875 L 22.445312 184.316406 L 21.832031 184.449219 L 21.394531 184.007812 C 20.371094 182.898438 19.847656 181.390625 19.820312 179.488281 L 19.46875 174.882812 C 21.742188 175.992188 28.640625 177.308594 40.164062 178.832031 L 49.613281 180.234375 M 45.980469 150.085938 L 45.980469 151.402344 L 36.882812 152.808594 L 29.445312 154.253906 C 26.148438 155.191406 22.953125 155.6875 19.863281 155.746094 L 19.03125 155.835938 C 19.089844 153.554688 19.207031 151.738281 19.382812 150.394531 L 19.730469 148.023438 C 20.050781 148.285156 20.664062 148.492188 21.570312 148.636719 L 32.242188 149.296875 L 45.980469 150.085938 "/>
<path style=" stroke:none;fill-rule:evenodd;fill:rgb(94.509804%,77.64706%,81.568629%);fill-opacity:1;" d="M 138.074219 290.867188 C 132.328125 292.214844 127.066406 293.734375 122.28125 295.433594 C 116.332031 297.570312 112.789062 299.46875 111.648438 301.136719 L 109.550781 300.566406 L 105.917969 300.085938 L 105.875 300.085938 C 102.609375 297.773438 100.976562 294.863281 100.976562 291.351562 C 100.976562 290.152344 101.164062 288.910156 101.542969 287.621094 L 102.070312 285.339844 C 102.070312 284.609375 100.027344 281.683594 95.945312 276.5625 L 92.007812 271.207031 L 92.136719 271.121094 C 96.980469 269.484375 101.691406 266.117188 106.269531 261.027344 C 110.761719 256.054688 113.007812 251.824219 113.007812 248.34375 C 113.179688 247.582031 112.960938 247.203125 112.351562 247.203125 L 105.042969 252.074219 C 103.496094 253.1875 101.238281 254.121094 98.261719 254.882812 C 96.660156 255.292969 95.59375 255.628906 95.070312 255.894531 C 95.507812 254.867188 95.726562 253.890625 95.726562 252.953125 L 92.355469 240.359375 L 92.792969 240.226562 L 92.75 239.875 C 92.75 238.003906 92.457031 234.914062 91.875 230.613281 C 91.292969 226.285156 90.808594 223.667969 90.429688 222.757812 C 89.46875 220.507812 88.507812 217.550781 87.542969 213.894531 L 85.179688 205.511719 L 84.875 204.8125 L 85.050781 204.066406 C 85.050781 202.75 84.277344 199.601562 82.730469 194.628906 L 80.851562 188.75 L 76.519531 176.328125 C 73.980469 168.984375 72.480469 164.320312 72.011719 162.332031 L 70.742188 153.773438 C 70.421875 151.753906 70.058594 150.304688 69.648438 149.429688 L 69.300781 147.714844 L 69.210938 147.234375 L 68.863281 145.652344 C 69.007812 145.945312 69.183594 146.09375 69.386719 146.09375 C 69.914062 146.09375 70.175781 145.800781 70.175781 145.214844 C 70.175781 143.167969 69.855469 140.328125 69.210938 136.703125 C 68.542969 133.042969 68.207031 129.035156 68.207031 124.675781 C 68.207031 123.683594 68.542969 122.175781 69.210938 120.15625 L 69.167969 118.972656 L 70.480469 112.390625 C 70.949219 110.28125 71.339844 108.6875 71.664062 107.605469 C 72.449219 104.066406 73.308594 101.785156 74.242188 100.757812 C 74.332031 100.234375 74.738281 99.617188 75.46875 98.917969 C 75.992188 98.417969 76.679688 97.878906 77.523438 97.292969 C 80.355469 103.933594 82.789062 110.398438 84.832031 116.691406 L 89.949219 129.546875 L 90.082031 129.855469 L 91.042969 132.621094 L 92.136719 136.570312 C 92.894531 139.4375 93.582031 141.585938 94.195312 143.019531 L 94.980469 144.90625 L 96.949219 151.839844 L 96.949219 151.886719 L 97.386719 151.710938 L 98.742188 156.230469 L 102.332031 169.351562 L 103.164062 173.039062 L 103.46875 173.039062 L 103.644531 174.003906 C 104.140625 176.402344 105.628906 181.257812 108.105469 188.574219 L 109.898438 204.636719 C 110.453125 208.203125 111.039062 213.542969 111.648438 220.652344 C 112.378906 226.09375 113.792969 230.847656 115.894531 234.914062 L 115.851562 235.136719 C 115.851562 235.691406 116.347656 237.226562 117.335938 239.742188 C 117.863281 241.90625 119.847656 246.722656 123.289062 254.179688 C 127.371094 263.015625 129.414062 268.898438 129.414062 271.824219 C 129.414062 274.015625 127.152344 277.03125 122.632812 280.863281 C 122.632812 281.125 122.777344 281.359375 123.070312 281.566406 L 136.632812 282.003906 C 137.039062 282.0625 137.492188 282.429688 137.988281 283.101562 L 138.820312 286.085938 L 137.945312 290.386719 L 138.074219 290.867188 M 44.539062 139.6875 L 31.195312 139.554688 L 23.800781 138.675781 L 18.636719 138.675781 L 17.761719 138.367188 C 16.160156 137.8125 15.355469 137.125 15.355469 136.304688 L 16.011719 118.972656 C 16.128906 114.847656 16.390625 111.527344 16.800781 109.011719 C 17.0625 107.371094 17.238281 105.542969 17.324219 103.523438 L 17.457031 103.523438 L 17.542969 100.980469 L 17.367188 98.960938 L 17.324219 98.039062 C 17.296875 97.101562 17.222656 96.371094 17.105469 95.84375 L 16.929688 92.378906 L 16.667969 83.511719 C 16.667969 79.710938 16.929688 76.519531 17.457031 73.945312 C 17.804688 73.742188 17.980469 73.199219 17.980469 72.324219 L 17.9375 71.839844 L 18.199219 71.003906 L 17.804688 71.09375 C 17.542969 70.15625 17.046875 68.988281 16.320312 67.582031 C 17.425781 67.347656 17.980469 66.777344 17.980469 65.871094 L 17.5 62.667969 L 18.507812 60.738281 C 19.175781 59.710938 19.511719 58.996094 19.511719 58.585938 C 19.511719 57.914062 19.367188 57.328125 19.074219 56.832031 L 23.144531 56.875 C 24.542969 57.285156 27.621094 57.648438 32.375 57.972656 L 43.136719 58.410156 C 48.300781 58.410156 56.292969 57.253906 67.113281 54.945312 L 71.925781 53.890625 L 71.925781 53.40625 L 73.414062 53.453125 L 73.019531 54.328125 C 73.019531 55.121094 75.933594 55.558594 81.769531 55.644531 L 81.769531 55.867188 L 81.855469 56.214844 L 83.210938 59.507812 C 84.144531 61.703125 84.613281 63.75 84.613281 65.652344 C 84.613281 69.570312 82.425781 74.136719 78.050781 79.34375 L 71.488281 86.015625 C 71.488281 86.335938 71.734375 86.714844 72.230469 87.15625 C 70.191406 89.027344 68.660156 89.964844 67.636719 89.964844 C 67.230469 89.964844 66.746094 89.640625 66.195312 89 L 65.011719 87.8125 L 61.25 92.378906 L 60.855469 92.816406 C 60.621094 92.816406 60.183594 92.671875 59.542969 92.378906 C 58.144531 91.761719 55.765625 90.460938 52.414062 88.472656 C 47.660156 85.691406 44.128906 84.304688 41.824219 84.304688 L 41.605469 84.304688 L 41.605469 88.429688 L 42.917969 95.273438 C 41.371094 94.894531 38.953125 93.929688 35.65625 92.378906 L 35.261719 92.203125 L 35.085938 92.378906 L 35.042969 92.507812 L 38.105469 98.523438 L 41.210938 104.445312 L 42.085938 106.070312 L 41.914062 106.15625 C 42.554688 108.410156 43.179688 112.710938 43.792969 119.058594 C 44.203125 123.390625 44.539062 127.71875 44.800781 132.050781 L 44.886719 133.453125 L 45.195312 134.066406 C 45.195312 135.179688 44.976562 136.90625 44.539062 139.246094 L 44.539062 139.6875 M 16.625 55.121094 L 19.46875 53.101562 L 20.386719 52.3125 L 20.738281 52.574219 L 20.695312 51.828125 C 20.78125 51.683594 20.824219 51.535156 20.824219 51.390625 L 20.78125 50.863281 L 20.695312 50.644531 C 20.546875 47.894531 20.242188 46.136719 19.773438 45.378906 L 41.519531 45.683594 L 62.167969 45.640625 L 62.605469 45.332031 L 66.761719 44.804688 L 67.113281 44.761719 L 71.136719 43.710938 L 73.28125 43.359375 L 73.324219 43.488281 C 74.726562 43.636719 75.425781 43.839844 75.425781 44.105469 C 74.257812 45.304688 73.675781 46.226562 73.675781 46.867188 C 73.675781 47.042969 73.9375 47.25 74.460938 47.484375 L 75.207031 48.140625 C 75.207031 48.492188 74.929688 48.933594 74.375 49.457031 C 73.792969 50.015625 73.484375 50.496094 73.457031 50.90625 C 74.738281 51.167969 75.105469 51.402344 74.550781 51.609375 L 73.894531 52.53125 L 71.398438 53.101562 L 71.007812 53.011719 L 67.550781 53.804688 L 67.113281 53.847656 L 60.550781 54.679688 C 59.527344 55.089844 58.261719 55.457031 56.742188 55.777344 L 43.007812 56.65625 L 30.320312 56.039062 L 23.886719 55.425781 C 23.128906 55.425781 22.632812 55.558594 22.398438 55.820312 L 22.574219 56.347656 L 19.074219 56.214844 L 18.855469 56.4375 L 18.8125 56.480469 C 18.347656 55.925781 17.601562 55.542969 16.582031 55.339844 L 16.625 55.121094 M 46.726562 153.027344 L 46.726562 154.035156 C 47.394531 155.820312 47.730469 158.160156 47.730469 161.058594 L 47.6875 167.949219 L 47.25 167.949219 L 36.96875 169.308594 L 36.007812 169.175781 C 35.683594 169.175781 35.464844 169.277344 35.351562 169.484375 L 21.4375 170.273438 L 19.25 170.230469 L 18.945312 161.410156 L 18.988281 157.460938 C 23.859375 157.402344 28.074219 156.917969 31.632812 156.011719 C 34.722656 154.988281 36.792969 154.402344 37.84375 154.253906 L 46.726562 153.027344 M 49.789062 187.609375 C 49.789062 189.65625 50.152344 193.738281 50.882812 199.851562 L 50.96875 200.640625 L 51.273438 200.640625 L 51.40625 201.605469 L 51.492188 202.046875 L 51.800781 202.046875 L 50.925781 205.25 C 49.640625 209.753906 49 213.132812 49 215.386719 C 50.515625 229.371094 52.089844 237.082031 53.726562 238.515625 L 53.726562 238.691406 L 54.730469 240.882812 L 55.34375 242.507812 C 54.644531 244.058594 53.332031 245.652344 51.40625 247.292969 C 50.996094 247.085938 50.648438 246.984375 50.355469 246.984375 L 49.917969 247.117188 C 49.832031 247.261719 49.789062 247.394531 49.789062 247.511719 C 49.789062 247.6875 49.933594 247.933594 50.226562 248.257812 L 49.789062 248.5625 L 49.832031 248.871094 C 50.007812 249.074219 50.285156 249.179688 50.664062 249.179688 L 51.1875 249.132812 L 55.476562 252.164062 C 57.167969 253.214844 58.667969 254.796875 59.980469 256.902344 L 65.886719 261.511719 L 67.679688 264.582031 C 68.148438 265.285156 68.382812 266.335938 68.382812 267.742188 C 68.382812 268.589844 68.234375 269.21875 67.945312 269.628906 C 67.652344 270.007812 67.507812 270.550781 67.507812 271.253906 C 67.507812 273.152344 67.945312 274.894531 68.820312 276.476562 C 69.285156 277.292969 70.277344 278.597656 71.792969 280.378906 C 74.621094 283.773438 76.039062 287.359375 76.039062 291.132812 C 76.039062 294.644531 72.757812 299.148438 66.195312 304.648438 L 66.367188 305.132812 C 52.078125 306.214844 44.246094 307.734375 42.875 309.695312 L 41.082031 308.992188 L 38.761719 308.246094 L 30.492188 301.664062 C 28.101562 299.441406 26.90625 296.941406 26.90625 294.160156 C 26.90625 291.644531 28.074219 287.503906 30.40625 281.742188 L 33.207031 275.464844 L 33.292969 275.507812 C 35.683594 273.957031 37.625 271.824219 39.113281 269.101562 L 42.21875 262.125 C 41.925781 261.832031 41.695312 261.6875 41.519531 261.6875 L 35.261719 263.878906 L 34.257812 264.582031 C 33.671875 264.960938 33.117188 265.167969 32.59375 265.195312 L 24.0625 265.679688 L 23.320312 265.8125 L 23.1875 264.054688 C 23.1875 261.160156 24.035156 257.179688 25.726562 252.117188 L 27.605469 245.84375 C 28.015625 244.117188 28.21875 242.828125 28.21875 241.980469 L 28.21875 241.5 L 28.085938 241.234375 L 28.175781 240.226562 L 29.707031 240.226562 C 28.800781 235.808594 28.351562 233.292969 28.351562 232.675781 C 29.050781 230.042969 29.398438 227.585938 29.398438 225.304688 C 29.398438 224.105469 29.152344 222.042969 28.65625 219.117188 C 28.132812 216.164062 27.695312 214.320312 27.34375 213.585938 C 26.992188 212.945312 26.394531 211.246094 25.550781 208.496094 L 25.726562 208.410156 L 25.8125 207.574219 L 24.761719 205.953125 L 24.105469 203.933594 C 24.367188 203.84375 24.5 203.609375 24.5 203.230469 L 24.414062 202.046875 L 23.667969 202.046875 L 23.667969 204.242188 L 21.21875 200.511719 L 20.695312 199.71875 L 20.78125 195.683594 L 20.78125 190.941406 L 20.957031 189.320312 L 21.261719 188.398438 C 21.613281 187.550781 21.800781 186.847656 21.832031 186.292969 L 21.832031 186.117188 L 22.226562 186.378906 L 22.617188 186.070312 C 25.566406 186.949219 34.226562 187.359375 48.605469 187.300781 L 49.789062 187.300781 L 49.789062 187.609375 M 114.230469 307.722656 L 117.164062 307.984375 C 119.875 307.984375 125.707031 306.566406 134.664062 303.726562 C 136.9375 303.726562 138.703125 308.027344 139.957031 316.628906 L 141.226562 325.449219 C 141.515625 327.089844 141.835938 328.230469 142.1875 328.875 L 127.574219 333.570312 C 124.308594 333.570312 119.859375 324.953125 114.230469 307.722656 M 44.492188 312.941406 C 46.242188 313.5 48.488281 313.851562 51.230469 313.996094 L 57.75 314.523438 C 62.210938 315.3125 64.445312 318.53125 64.445312 324.175781 C 64.445312 326.050781 64.050781 328.039062 63.261719 330.144531 C 62.445312 332.28125 62.039062 334.492188 62.039062 336.773438 C 62.152344 339.140625 62.359375 340.707031 62.648438 341.46875 L 52.761719 341.378906 C 51.976562 341.320312 51.027344 340.984375 49.917969 340.371094 C 49.21875 340.019531 48.808594 339.550781 48.695312 338.96875 L 48.167969 335.542969 L 46.59375 328.609375 C 45.136719 324.601562 44.40625 320.050781 44.40625 314.960938 C 44.699219 314.726562 44.84375 314.421875 44.84375 314.039062 L 44.492188 312.941406 M 8.269531 135.429688 C 8.707031 135.957031 9.203125 136.804688 9.757812 137.972656 L 11.460938 142.273438 C 10.9375 142.683594 10.527344 143.167969 10.238281 143.722656 C 9.710938 144.6875 9.480469 145.785156 9.539062 147.015625 L 8.75 150.304688 C 8.457031 151.210938 7.875 151.855469 7 152.238281 L 6.824219 152.28125 C 6.589844 149.0625 6.476562 146.339844 6.476562 144.117188 C 6.183594 141.25 6.167969 139.203125 6.429688 137.972656 L 6.476562 137.796875 C 6.738281 136.714844 7.335938 135.925781 8.269531 135.429688 M 16.625 198.621094 L 15.882812 198.796875 L 13.039062 196.824219 C 11.839844 195.828125 10.996094 194.6875 10.5 193.402344 C 9.304688 190.476562 8.765625 188.105469 8.882812 186.292969 C 9.203125 181.316406 9.203125 176.664062 8.882812 172.335938 C 8.007812 165.226562 7.363281 159.183594 6.957031 154.210938 L 7.261719 154.167969 C 9.070312 154.167969 10.195312 153.289062 10.632812 151.535156 C 10.777344 149.546875 10.921875 148.300781 11.070312 147.804688 L 11.242188 147.234375 L 11.855469 147.410156 C 12.554688 151.039062 12.992188 155.265625 13.167969 160.09375 C 13.257812 163.046875 13.300781 167.492188 13.300781 173.433594 C 13.417969 183.671875 14.789062 191.996094 17.414062 198.402344 L 16.625 198.621094 "/>
<path style=" stroke:none;fill-rule:evenodd;fill:rgb(67.843139%,47.843137%,50.588238%);fill-opacity:1;" d="M 73.414062 53.453125 L 74.199219 53.453125 L 79.230469 52.136719 L 81.855469 51.652344 L 84.570312 51.167969 C 86.261719 51.054688 88.199219 50.6875 90.386719 50.074219 C 92.109375 49.574219 93.214844 49.152344 93.710938 48.800781 L 94.761719 48.84375 C 95.113281 48.84375 95.769531 48.550781 96.730469 47.964844 C 97.371094 47.964844 98.058594 47.746094 98.789062 47.308594 C 98.875 47.511719 99.035156 47.6875 99.269531 47.835938 L 98.042969 48.40625 L 98.917969 48.40625 C 99.296875 48.40625 99.691406 48.316406 100.101562 48.140625 L 101.761719 48.625 C 101.179688 49.238281 100.886719 49.75 100.886719 50.160156 C 103.132812 55.660156 104.371094 59.480469 104.605469 61.613281 L 104.257812 61.703125 L 104.5625 62.449219 L 104.386719 63.414062 C 104.386719 64.175781 104.707031 64.554688 105.351562 64.554688 L 107.539062 70.65625 C 110.425781 79.375 112.144531 84.902344 112.699219 87.242188 L 114.230469 97.292969 L 114.976562 101.550781 C 114.769531 101.695312 114.667969 101.929688 114.667969 102.25 C 117.671875 118.285156 119.714844 128.21875 120.792969 132.050781 C 120.035156 132.371094 119.21875 133.585938 118.34375 135.691406 C 117.441406 137.945312 116.945312 139.757812 116.855469 141.132812 L 116.769531 145.785156 C 116.679688 147.597656 116.417969 149.195312 115.980469 150.570312 C 112.191406 162.214844 110.292969 168.460938 110.292969 169.308594 L 110.292969 169.527344 L 110.335938 169.878906 C 110.511719 170.640625 111.257812 171.691406 112.570312 173.039062 L 112.742188 173.039062 L 113.3125 174.003906 C 114.042969 175 115.382812 176.199219 117.335938 177.601562 C 121.273438 180.441406 125.796875 181.902344 130.898438 181.992188 L 130.550781 184.140625 C 130.257812 186.394531 130.113281 187.855469 130.113281 188.53125 C 130.113281 191.222656 130.957031 197.175781 132.648438 206.390625 C 134.285156 215.460938 135.085938 220.59375 135.054688 221.792969 L 135.363281 221.925781 C 135.449219 226.226562 135.859375 230.789062 136.585938 235.617188 L 137.375 239.960938 L 137.289062 240.226562 L 137.289062 240.402344 C 137.289062 241.980469 138.425781 244.425781 140.699219 247.730469 C 142.945312 251.066406 144.070312 254.386719 144.070312 257.691406 C 144.070312 262.257812 142.828125 266.324219 140.351562 269.890625 L 137.8125 273.402344 C 137.023438 274.542969 136.632812 275.554688 136.632812 276.429688 L 136.851562 276.957031 L 137.289062 277.046875 C 139.882812 273.359375 141.675781 270.535156 142.667969 268.574219 L 147.351562 272.699219 L 149.976562 275.816406 C 151.726562 277.6875 152.601562 279.109375 152.601562 280.074219 C 152.601562 281.476562 151.535156 284.8125 149.40625 290.078125 L 146.605469 289.773438 L 142.449219 289.902344 L 138.6875 290.738281 L 138.511719 291.308594 C 138.277344 291.21875 138.132812 291.074219 138.074219 290.867188 L 137.945312 290.386719 L 138.820312 286.085938 L 137.988281 283.101562 C 137.492188 282.429688 137.039062 282.0625 136.632812 282.003906 L 123.070312 281.566406 C 122.777344 281.359375 122.632812 281.125 122.632812 280.863281 C 127.152344 277.03125 129.414062 274.015625 129.414062 271.824219 C 129.414062 268.898438 127.371094 263.015625 123.289062 254.179688 C 119.847656 246.722656 117.863281 241.90625 117.335938 239.742188 C 116.347656 237.226562 115.851562 235.691406 115.851562 235.136719 L 115.894531 234.914062 C 113.792969 230.847656 112.378906 226.09375 111.648438 220.652344 C 111.039062 213.542969 110.453125 208.203125 109.898438 204.636719 L 108.105469 188.574219 C 105.628906 181.257812 104.140625 176.402344 103.644531 174.003906 L 103.46875 173.039062 L 103.164062 173.039062 L 102.332031 169.351562 L 98.742188 156.230469 L 97.386719 151.710938 L 96.949219 151.839844 L 94.980469 144.90625 L 94.195312 143.019531 C 93.582031 141.585938 92.894531 139.4375 92.136719 136.570312 L 92.226562 135.867188 L 89.949219 129.195312 L 90.039062 129.503906 L 89.949219 129.546875 L 84.832031 116.691406 C 82.789062 110.398438 80.355469 103.933594 77.523438 97.292969 C 76.679688 97.878906 75.992188 98.417969 75.46875 98.917969 C 74.738281 99.617188 74.332031 100.234375 74.242188 100.757812 C 73.308594 101.785156 72.449219 104.066406 71.664062 107.605469 C 71.339844 108.6875 70.949219 110.28125 70.480469 112.390625 L 69.167969 118.972656 L 69.210938 120.15625 C 68.542969 122.175781 68.207031 123.683594 68.207031 124.675781 C 68.207031 129.035156 68.542969 133.042969 69.210938 136.703125 C 69.855469 140.328125 70.175781 143.167969 70.175781 145.214844 C 70.175781 145.800781 69.914062 146.09375 69.386719 146.09375 C 69.183594 146.09375 69.007812 145.945312 68.863281 145.652344 C 68.425781 144.953125 68.046875 143.429688 67.726562 141.089844 L 66.195312 135.429688 L 60.726562 114.890625 L 60.855469 114.671875 L 60.945312 113.835938 L 60.636719 113.3125 L 63.960938 109.273438 L 66.105469 106.15625 L 66.5 105.5 L 67.242188 104.445312 L 68.335938 102.996094 L 71.75 98.523438 L 72.449219 97.378906 C 73.355469 95.769531 73.9375 94.105469 74.199219 92.378906 L 74.332031 90.445312 L 74.460938 90.402344 L 74.417969 90.183594 L 74.417969 89.875 L 74.332031 89.875 C 74.097656 89.847656 73.953125 89.773438 73.894531 89.65625 L 74.15625 89.480469 L 73.542969 89.21875 C 72.871094 89.21875 72.320312 90.183594 71.882812 92.113281 L 71.835938 92.378906 L 70.917969 96.0625 L 69.429688 98.523438 L 66.105469 103.304688 L 65.273438 104.445312 L 64.355469 105.804688 L 64.050781 106.15625 L 63.789062 106.550781 L 62.476562 108.964844 L 60.289062 111.378906 L 59.761719 111.949219 L 57.226562 108.089844 L 55.914062 106.15625 L 56.960938 106.15625 L 56.613281 105.761719 L 55.519531 104.445312 C 54.234375 102.867188 53.460938 101.8125 53.199219 101.285156 L 51.800781 98.523438 L 50.664062 96.460938 L 48.605469 93.167969 C 48.023438 93.167969 47.730469 93.429688 47.730469 93.957031 L 49.875 98.523438 L 52.71875 104.007812 L 53.8125 105.804688 L 54.03125 106.15625 L 56.132812 108.878906 L 58.667969 111.820312 L 59.238281 112.785156 C 59.0625 113.078125 58.976562 113.355469 58.976562 113.617188 C 58.976562 113.910156 59.136719 114.117188 59.457031 114.230469 C 59.746094 117.949219 61.394531 124.53125 64.398438 133.980469 L 66.195312 139.949219 L 64.355469 139.816406 L 64.355469 139.070312 L 64.269531 139.070312 L 64.09375 139.816406 L 62.34375 139.949219 L 44.976562 139.6875 L 44.929688 139.773438 L 44.625 139.773438 L 44.625 139.6875 L 44.539062 139.246094 C 44.976562 136.90625 45.195312 135.179688 45.195312 134.066406 L 44.886719 133.453125 L 44.800781 132.050781 C 44.539062 127.71875 44.203125 123.390625 43.792969 119.058594 C 43.179688 112.710938 42.554688 108.410156 41.914062 106.15625 L 42.132812 106.15625 L 42.085938 106.070312 L 41.210938 104.445312 L 38.105469 98.523438 L 35.042969 92.507812 L 35.085938 92.378906 L 35.65625 92.378906 C 38.953125 93.929688 41.371094 94.894531 42.917969 95.273438 L 41.605469 88.429688 L 41.605469 84.304688 L 41.824219 84.304688 C 44.128906 84.304688 47.660156 85.691406 52.414062 88.472656 C 55.765625 90.460938 58.144531 91.761719 59.542969 92.378906 C 60.183594 92.671875 60.621094 92.816406 60.855469 92.816406 L 61.25 92.378906 L 65.011719 87.8125 L 66.195312 89 C 66.746094 89.640625 67.230469 89.964844 67.636719 89.964844 C 68.660156 89.964844 70.191406 89.027344 72.230469 87.15625 C 71.734375 86.714844 71.488281 86.335938 71.488281 86.015625 L 78.050781 79.34375 C 82.425781 74.136719 84.613281 69.570312 84.613281 65.652344 C 84.613281 63.75 84.144531 61.703125 83.210938 59.507812 L 81.855469 56.214844 L 81.769531 55.867188 L 81.8125 55.644531 L 81.769531 55.644531 C 75.933594 55.558594 73.019531 55.121094 73.019531 54.328125 L 73.414062 53.453125 M 91.917969 271.078125 L 91.570312 270.507812 L 91.570312 270.417969 L 91.523438 270.417969 C 90.386719 268.488281 89.820312 266.996094 89.820312 265.941406 C 89.820312 263.894531 90.808594 261.699219 92.792969 259.359375 C 93.609375 258.394531 94.253906 257.457031 94.71875 256.550781 L 94.632812 256.242188 L 95.070312 255.894531 C 95.59375 255.628906 96.660156 255.292969 98.261719 254.882812 C 101.238281 254.121094 103.496094 253.1875 105.042969 252.074219 L 112.351562 247.203125 C 112.960938 247.203125 113.179688 247.582031 113.007812 248.34375 C 113.007812 251.824219 110.761719 256.054688 106.269531 261.027344 C 101.691406 266.117188 96.980469 269.484375 92.136719 271.121094 L 91.917969 271.078125 M 99.445312 44.410156 C 99.445312 44.558594 93.582031 46.402344 81.855469 49.941406 L 77.917969 51.125 L 77.480469 51.125 L 77.351562 51.082031 L 76.914062 50.949219 L 76.738281 50.820312 L 76.695312 50.46875 C 76.695312 50.117188 76.855469 49.910156 77.175781 49.851562 C 77.175781 49.53125 76.941406 49.035156 76.476562 48.359375 L 77.042969 47 L 76.039062 45.640625 L 76.914062 43.578125 L 76.605469 43.445312 C 76.429688 43.386719 76.328125 43.199219 76.300781 42.875 L 76.257812 42.566406 L 76.34375 42.566406 L 77.085938 42.347656 L 81.855469 41.164062 L 91.789062 38.617188 C 93.273438 38.617188 95.828125 40.550781 99.445312 44.410156 M 78.664062 49.632812 L 78.707031 49.589844 L 78.664062 49.414062 L 78.664062 49.632812 M 47.207031 152.984375 C 56.042969 151.695312 61.714844 150.6875 64.226562 149.953125 L 64.355469 150.746094 L 64.355469 149.691406 L 64.664062 149.558594 L 66.148438 149.339844 L 66.632812 148.8125 L 68.03125 148.375 L 68.074219 148.507812 C 67.785156 148.625 67.636719 148.859375 67.636719 149.207031 C 67.636719 150.234375 68.410156 153.699219 69.957031 159.609375 C 70.015625 160.691406 70.160156 161.832031 70.394531 163.03125 L 66.632812 164.394531 L 64.445312 165.269531 L 64.355469 165.09375 L 59.71875 166.234375 C 56.890625 166.996094 52.980469 167.550781 47.992188 167.902344 L 47.992188 168.078125 L 47.6875 168.078125 L 47.6875 167.949219 L 47.730469 161.058594 C 47.730469 158.160156 47.394531 155.820312 46.726562 154.035156 L 46.726562 152.984375 L 47.207031 152.984375 M 50.179688 187.300781 L 51.449219 187.300781 L 61.90625 186.640625 L 64.007812 186.6875 L 64.355469 186.6875 C 66.425781 186.628906 69.109375 186.070312 72.40625 185.019531 L 75.6875 183.878906 C 75.484375 184.988281 75.351562 186.582031 75.292969 188.660156 L 75.292969 195.59375 L 75.382812 205.292969 L 75.6875 205.425781 C 75.601562 205.570312 75.554688 205.761719 75.554688 205.996094 L 75.511719 206.304688 L 75.730469 207.839844 L 75.992188 208.628906 L 76.039062 219.820312 C 76.039062 224.03125 76.167969 226.578125 76.429688 227.457031 L 77.21875 232.0625 L 77.4375 233.335938 L 77.613281 240.226562 L 77.832031 240.226562 L 78.007812 250.625 C 78.007812 250.859375 78.953125 252.675781 80.851562 256.066406 C 82.746094 259.433594 83.695312 261.394531 83.695312 261.949219 C 83.695312 263.121094 83.007812 264.464844 81.636719 265.988281 L 79.976562 267.917969 L 79.886719 267.828125 L 78.75 268.839844 C 75.367188 266.265625 73.558594 264.976562 73.324219 264.976562 C 73.238281 264.976562 73.105469 265.050781 72.929688 265.195312 L 73.414062 265.546875 L 73.324219 265.855469 L 72.886719 266.074219 L 72.84375 266.074219 C 73.136719 266.835938 74.054688 267.699219 75.601562 268.664062 L 81.855469 272.746094 C 87.894531 277.367188 90.914062 283.746094 90.914062 291.878906 C 90.914062 294.101562 89.425781 296.660156 86.449219 299.558594 L 82.820312 303.199219 L 83.738281 303.199219 L 82.863281 304.386719 L 80.980469 304.253906 L 78.355469 304.386719 L 67.15625 305.085938 L 66.761719 305.351562 L 66.367188 305.132812 L 66.195312 304.648438 C 72.757812 299.148438 76.039062 294.644531 76.039062 291.132812 C 76.039062 287.359375 74.621094 283.773438 71.792969 280.378906 C 70.277344 278.597656 69.285156 277.292969 68.820312 276.476562 C 67.945312 274.894531 67.507812 273.152344 67.507812 271.253906 C 67.507812 270.550781 67.652344 270.007812 67.945312 269.628906 C 68.234375 269.21875 68.382812 268.589844 68.382812 267.742188 C 68.382812 266.335938 68.148438 265.285156 67.679688 264.582031 L 65.886719 261.511719 L 59.980469 256.902344 C 58.667969 254.796875 57.167969 253.214844 55.476562 252.164062 L 51.1875 249.132812 L 50.664062 249.179688 C 50.285156 249.179688 50.007812 249.074219 49.832031 248.871094 L 49.789062 248.5625 L 50.226562 248.257812 C 49.933594 247.933594 49.789062 247.6875 49.789062 247.511719 C 49.789062 247.394531 49.832031 247.261719 49.917969 247.117188 L 50.355469 246.984375 C 50.648438 246.984375 50.996094 247.085938 51.40625 247.292969 C 53.332031 245.652344 54.644531 244.058594 55.34375 242.507812 L 54.730469 240.882812 L 53.726562 238.691406 L 53.726562 238.515625 C 52.089844 237.082031 50.515625 229.371094 49 215.386719 C 49 213.132812 49.640625 209.753906 50.925781 205.25 L 51.800781 202.046875 L 51.492188 202.046875 L 51.40625 201.605469 L 51.273438 200.640625 L 50.96875 200.640625 L 50.882812 199.851562 C 50.152344 193.738281 49.789062 189.65625 49.789062 187.609375 C 49.933594 187.550781 50.066406 187.476562 50.179688 187.386719 L 50.179688 187.300781 M 33.207031 275.464844 L 32.8125 274.894531 L 33.730469 274.238281 L 34.039062 273.972656 L 33.90625 273.796875 C 33.90625 273.476562 33.671875 273.316406 33.207031 273.316406 C 32.242188 273.316406 30.769531 276.546875 28.789062 283.011719 L 26.6875 279.0625 L 26.6875 278.976562 L 26.164062 277.484375 L 24.0625 271.605469 C 24.0625 269.351562 23.917969 267.84375 23.625 267.082031 L 23.492188 266.601562 C 22.675781 266.484375 22.503906 266.324219 22.96875 266.117188 L 23.320312 265.8125 L 24.0625 265.679688 L 32.59375 265.195312 C 33.117188 265.167969 33.671875 264.960938 34.257812 264.582031 L 35.261719 263.878906 L 41.519531 261.6875 C 41.695312 261.6875 41.925781 261.832031 42.21875 262.125 L 39.113281 269.101562 C 37.625 271.824219 35.683594 273.957031 33.292969 275.507812 L 33.207031 275.464844 M 55.695312 243.957031 L 55.210938 245.097656 C 55.535156 244.773438 55.695312 244.4375 55.695312 244.085938 L 55.695312 243.957031 M 111.605469 249.398438 L 111.605469 249.441406 L 111.605469 249.398438 M 114.101562 307.324219 L 112.570312 302.410156 L 113.007812 301.839844 L 112.523438 301.488281 C 113.371094 300.523438 117.585938 298.636719 125.167969 295.828125 C 133.890625 292.609375 139.648438 291 142.449219 291 L 149.011719 290.867188 C 150.355469 290.867188 151.257812 291.132812 151.726562 291.660156 C 152.046875 291.980469 152.496094 292.816406 153.082031 294.160156 L 152.820312 294.644531 L 153.300781 294.644531 C 154.175781 296.574219 155.296875 299.410156 156.667969 303.15625 L 158.550781 309.257812 C 159.542969 312.914062 160.039062 315.179688 160.039062 316.058594 C 160.039062 318.78125 159.804688 320.550781 159.335938 321.367188 C 158.289062 323.183594 155.648438 324.691406 151.417969 325.890625 L 143.367188 328.523438 L 143.414062 328.785156 L 143.324219 329.269531 C 143.382812 329.414062 143.238281 329.488281 142.886719 329.488281 C 142.652344 329.488281 142.421875 329.28125 142.1875 328.875 C 141.835938 328.230469 141.515625 327.089844 141.226562 325.449219 L 139.957031 316.628906 C 138.703125 308.027344 136.9375 303.726562 134.664062 303.726562 C 125.707031 306.566406 119.875 307.984375 117.164062 307.984375 L 114.230469 307.722656 L 114.144531 307.675781 L 114.101562 307.324219 M 44.230469 312.769531 L 44.40625 312.460938 L 44.1875 311.144531 L 44.625 310.617188 L 44.320312 310.398438 C 44.785156 309.199219 46.726562 308.363281 50.136719 307.894531 L 66.238281 306.183594 L 78.050781 305.484375 C 81.667969 305.484375 83.765625 305.714844 84.351562 306.183594 C 84.554688 306.332031 84.628906 306.550781 84.570312 306.84375 L 84.351562 307.632812 L 84.394531 314.171875 C 84.394531 318.707031 84.234375 322.128906 83.914062 324.441406 C 83.417969 328.039062 83.242188 331.609375 83.386719 335.148438 C 83.503906 338.015625 83.488281 339.667969 83.34375 340.109375 C 83.050781 340.925781 81.972656 341.378906 80.105469 341.46875 L 63.570312 341.46875 L 63.480469 341.777344 C 63.539062 341.921875 63.394531 341.996094 63.042969 341.996094 C 62.898438 341.996094 62.765625 341.820312 62.648438 341.46875 C 62.359375 340.707031 62.152344 339.140625 62.039062 336.773438 C 62.039062 334.492188 62.445312 332.28125 63.261719 330.144531 C 64.050781 328.039062 64.445312 326.050781 64.445312 324.175781 C 64.445312 318.53125 62.210938 315.3125 57.75 314.523438 L 51.230469 313.996094 C 48.488281 313.851562 46.242188 313.5 44.492188 312.941406 L 44.230469 312.769531 M 63.570312 341.46875 L 63.570312 341.335938 L 63.570312 341.46875 M 8.617188 135.164062 L 8.792969 135.210938 C 9.582031 134.886719 10.542969 134.726562 11.679688 134.726562 L 13.738281 134.8125 L 13.695312 136.21875 C 13.488281 138.882812 14.847656 140.269531 17.761719 140.386719 L 18.289062 140.5625 L 18.550781 140.519531 L 18.460938 140.957031 L 16.757812 140.871094 C 14.714844 140.871094 13.109375 141.234375 11.945312 141.96875 L 11.988281 142.144531 L 11.460938 142.273438 L 9.757812 137.972656 C 9.203125 136.804688 8.707031 135.957031 8.269531 135.429688 L 8.617188 135.164062 M 11.375 146.75 L 11.59375 146.09375 L 12.117188 144.511719 C 12.789062 143.722656 13.386719 143.242188 13.914062 143.066406 L 18.199219 142.496094 C 17.820312 145.507812 17.558594 150.144531 17.414062 156.40625 L 17.28125 156.714844 L 17.367188 157.109375 L 17.28125 161.410156 L 17.71875 173.914062 L 17.804688 174.835938 C 18.097656 177.820312 18.492188 180.21875 18.988281 182.035156 C 19.425781 183.730469 19.980469 184.917969 20.648438 185.589844 L 20.257812 187.039062 L 20.039062 188.355469 L 19.46875 194.847656 L 19.292969 199.367188 L 18.898438 199.324219 C 18.578125 199.148438 18.273438 199.019531 17.980469 198.929688 L 17.414062 198.402344 C 14.789062 191.996094 13.417969 183.671875 13.300781 173.433594 C 13.300781 167.492188 13.257812 163.046875 13.167969 160.09375 C 12.992188 155.265625 12.554688 151.039062 11.855469 147.410156 L 11.375 146.75 M 39.855469 263.703125 L 39.8125 263.75 L 39.8125 263.878906 L 39.855469 263.703125 "/>
</g>
</svg>
