<?xml version="1.0" encoding="UTF-8"?>
<svg xmlns="http://www.w3.org/2000/svg" xmlns:xlink="http://www.w3.org/1999/xlink" width="175px" height="366px" viewBox="0 0 175 366" version="1.1">
<g id="surface1">
<path style=" stroke:none;fill-rule:evenodd;fill:rgb(0%,0%,0%);fill-opacity:1;" d="M 100.1875 47.089844 L 100.320312 47.089844 C 100.640625 47.089844 100.960938 47.25 101.28125 47.570312 C 102.476562 48.683594 103.660156 51.886719 104.824219 57.183594 L 104.605469 57.796875 L 105.523438 60.648438 C 106.777344 64.746094 108.207031 68.824219 109.8125 72.894531 C 110.222656 73.976562 111.167969 77.925781 112.65625 84.742188 C 114.203125 91.851562 114.976562 96.109375 114.976562 97.511719 L 115.019531 97.90625 C 115.425781 98.8125 115.792969 100.863281 116.113281 104.050781 C 116.753906 110.253906 117.191406 113.910156 117.425781 115.023438 C 117.863281 117.097656 118.765625 120.257812 120.136719 124.5 C 121.011719 127.191406 121.449219 129.957031 121.449219 132.796875 L 121.449219 132.972656 C 121.800781 133 121.976562 133.207031 121.976562 133.585938 C 121.976562 133.9375 121.128906 135.210938 119.4375 137.402344 C 117.746094 139.976562 116.898438 142.378906 116.898438 144.601562 L 116.898438 151.09375 C 116.8125 153.496094 116.519531 154.871094 116.023438 155.222656 L 116.023438 157.195312 C 116.023438 159.390625 115.179688 161.292969 113.488281 162.902344 C 111.796875 164.511719 110.949219 165.679688 110.949219 166.410156 C 110.949219 167.433594 111.328125 168.167969 112.085938 168.605469 C 112.847656 169.074219 113.226562 169.996094 113.226562 171.371094 L 113.269531 171.371094 C 113.765625 171.371094 113.984375 171.632812 113.925781 172.160156 C 102.695312 176.023438 91 177.894531 78.835938 177.777344 C 78.722656 178.011719 78.53125 178.128906 78.269531 178.128906 L 78.050781 177.777344 L 77.65625 177.777344 L 77.613281 177.515625 C 77.613281 177.367188 77.65625 177.25 77.742188 177.164062 L 74.855469 170.710938 C 74.566406 173.375 74.289062 175 74.023438 175.582031 L 74.023438 175.890625 C 74.023438 176.59375 69.316406 177.542969 59.894531 178.742188 L 56.523438 179.183594 L 55.867188 179.359375 C 54.324219 179.824219 52.515625 180.058594 50.445312 180.058594 L 48.257812 179.972656 L 22.707031 180.9375 L 22.269531 180.9375 L 22.09375 180.894531 C 21.65625 180.804688 21.496094 180.617188 21.613281 180.324219 L 21.261719 178.261719 L 20.914062 174.136719 C 19.863281 170.128906 19.335938 167.859375 19.335938 167.332031 L 19.03125 167.203125 L 19.03125 166.9375 L 18.988281 166.804688 L 17.804688 158.074219 C 17.542969 156.140625 17.414062 153.671875 17.414062 150.65625 C 17.179688 150.65625 17.0625 150.480469 17.0625 150.128906 C 16.070312 144.367188 15.605469 135.398438 15.664062 123.230469 C 15.722656 117.902344 15.648438 113.03125 15.445312 108.613281 L 15.136719 96.109375 C 15.019531 94.5 15.109375 93.460938 15.398438 92.992188 C 15.136719 91.179688 14.992188 88.164062 14.960938 83.953125 C 14.960938 80.46875 15.066406 77.617188 15.269531 75.394531 C 14.949219 75.246094 14.847656 74.925781 14.960938 74.429688 C 16.566406 64.511719 17.894531 59.550781 18.945312 59.550781 L 20.695312 60.167969 L 20.695312 60.121094 C 31.601562 61.46875 39.476562 62.140625 44.320312 62.140625 L 64.269531 61.132812 C 69.636719 59.433594 76.199219 57.589844 83.957031 55.601562 C 87.367188 54.753906 90.183594 53.628906 92.398438 52.222656 L 96.511719 49.675781 L 97.429688 48.800781 C 98.628906 47.746094 99.546875 47.175781 100.1875 47.089844 M 87.324219 62.800781 L 90.167969 62.535156 C 92.414062 61.921875 94.851562 61.027344 97.476562 59.859375 L 100.273438 58.105469 C 101.5 57.285156 102.300781 56.832031 102.679688 56.742188 L 102.15625 55.46875 L 102.726562 55.46875 L 102.15625 52.792969 C 101.894531 51.914062 101.253906 50.585938 100.230469 48.800781 L 98.570312 49.675781 L 98.042969 50.421875 L 98.21875 50.773438 C 97.519531 51.242188 96.644531 51.753906 95.59375 52.3125 C 93.347656 53.511719 90.707031 54.695312 87.675781 55.867188 L 87.105469 55.691406 L 86.84375 56.171875 L 83.648438 57.269531 C 71.167969 61.425781 58.785156 63.5 46.507812 63.5 L 30.492188 62.449219 L 20.695312 61.660156 L 20.695312 61.527344 L 19.425781 61.21875 C 18.726562 62.390625 18.082031 65.226562 17.5 69.734375 L 17.0625 72.671875 L 16.625 74.164062 L 16.582031 75.394531 L 32.070312 73.113281 C 45.601562 71.179688 57.121094 69.265625 66.632812 67.363281 L 86.011719 63.5 C 86.214844 63.179688 86.652344 62.945312 87.324219 62.800781 M 78.269531 73.640625 L 79.320312 73.507812 L 83.738281 72.894531 L 92.226562 71.882812 L 93.929688 71.664062 L 94.238281 71.664062 C 101.441406 69.910156 105.683594 69.03125 106.96875 69.03125 L 104.34375 61.308594 L 103.25 58.148438 C 102.375 59.757812 98.570312 61.511719 91.832031 63.414062 C 91.597656 63.589844 90.984375 63.808594 89.992188 64.070312 L 88.417969 64.421875 L 86.757812 64.554688 L 86.800781 64.6875 C 81.929688 65.855469 75.992188 67.070312 68.992188 68.328125 L 49.523438 72.367188 L 41.210938 72.71875 C 40.105469 72.804688 39.054688 73.054688 38.0625 73.464844 L 33.949219 74.121094 L 31.804688 74.78125 L 31.367188 74.648438 C 30.902344 74.648438 30.640625 74.824219 30.582031 75.175781 L 30.492188 75.21875 L 30.273438 75.261719 C 27.679688 75.847656 24.105469 76.140625 19.554688 76.140625 L 16.582031 75.921875 L 16.449219 78.859375 L 17.414062 78.773438 L 28.175781 78.421875 L 29.269531 78.160156 L 31.894531 78.289062 L 33.46875 78.246094 L 33.730469 78.421875 L 34.5625 77.894531 L 39.332031 77.632812 L 40.820312 77.808594 L 42.4375 77.542969 L 44.363281 76.929688 L 48.867188 76.226562 L 73.105469 74.253906 L 75.554688 74.078125 L 75.511719 74.121094 L 78.269531 73.640625 M 47.46875 92.90625 L 47.511719 92.90625 C 46.347656 90.738281 45.71875 89.304688 45.632812 88.605469 C 45.367188 88.546875 45.136719 88.382812 44.929688 88.121094 L 44.40625 87.023438 L 43.707031 86.9375 L 43.925781 87.199219 L 34.78125 87.332031 L 34.082031 87.460938 L 32.417969 87.550781 C 32.097656 87.550781 31.863281 87.476562 31.71875 87.332031 L 27.429688 87.417969 C 26.933594 87.683594 23.230469 87.636719 16.320312 87.285156 C 16.378906 90.066406 16.523438 92.144531 16.757812 93.519531 L 17.894531 93.429688 C 19.613281 93.429688 20.738281 93.664062 21.261719 94.132812 C 21.789062 94.570312 22.136719 94.792969 22.3125 94.792969 L 37.011719 94.308594 L 37.320312 94.394531 L 37.886719 94.175781 L 37.929688 94.175781 L 39.769531 93.78125 L 44.40625 93.253906 L 47.46875 92.90625 M 69.257812 85.75 L 67.855469 85.796875 L 67.242188 85.621094 L 67.113281 85.796875 L 63.042969 86.367188 L 57.050781 87.066406 L 49.261719 87.15625 C 49.144531 87.300781 48.957031 87.375 48.695312 87.375 L 47.03125 87.15625 L 46.070312 87.199219 L 46.242188 87.636719 L 48.167969 90.886719 L 49.261719 90.796875 C 51.480469 90.828125 54.148438 90.386719 57.269531 89.480469 C 59.367188 88.894531 60.679688 88.605469 61.207031 88.605469 C 61.292969 88.605469 61.613281 88.398438 62.167969 87.988281 L 64.707031 87.859375 L 65.40625 87.636719 L 67.8125 87.8125 L 67.945312 87.636719 L 70.261719 87.988281 L 71.792969 85.355469 L 71.3125 85.398438 L 69.257812 85.75 M 42.832031 85.621094 L 43.96875 85.53125 L 48.082031 85.75 L 57.136719 85.664062 L 60.023438 85.3125 L 61.90625 85.222656 C 63.101562 85.253906 64.226562 85.050781 65.273438 84.609375 C 66.148438 84.257812 67.230469 84.082031 68.511719 84.082031 L 68.425781 84.214844 L 69.605469 84.128906 L 70.261719 84.171875 L 70.351562 84.171875 L 72.582031 84.214844 L 73.019531 83.777344 L 73.632812 84.171875 L 75.25 83.90625 L 76.300781 83.6875 C 76.417969 83.453125 76.679688 83.277344 77.085938 83.160156 L 80.5 82.722656 L 87.457031 81.449219 L 90.738281 80.921875 L 92.09375 80.660156 L 92.53125 80.617188 C 95.886719 79.972656 98.511719 79.285156 100.40625 78.554688 L 102.898438 77.5 L 105.875 76.796875 C 106.398438 76.710938 106.894531 76.375 107.363281 75.789062 C 107.800781 75.261719 108.195312 75 108.542969 75 L 109.113281 75.132812 L 108.585938 73.683594 L 107.320312 70.039062 C 106.734375 70.332031 105.363281 70.683594 103.207031 71.09375 L 95.242188 72.71875 L 94.851562 72.894531 L 93.230469 73.332031 L 92.226562 73.640625 L 89.949219 73.550781 L 89.601562 73.507812 L 86.054688 73.945312 C 83.78125 74.910156 82.277344 75.410156 81.550781 75.4375 L 78.792969 75.304688 L 77.394531 75.261719 L 76.429688 75.261719 L 74.507812 75.132812 L 74.289062 75.351562 L 74.023438 75.351562 L 47.6875 78.070312 L 40.554688 78.773438 L 37.84375 79.300781 L 35.4375 79.695312 L 34.167969 79.828125 L 33.601562 79.652344 L 32.070312 79.828125 L 30.230469 79.78125 L 28.351562 79.386719 C 24.5 79.503906 20.535156 79.535156 16.449219 79.476562 L 16.273438 83.996094 L 16.320312 86.277344 L 27.429688 86.015625 L 32.289062 85.96875 L 32.332031 86.058594 L 33.25 85.882812 L 33.554688 85.882812 L 34.210938 85.925781 L 42.351562 85.839844 L 42.832031 85.621094 M 66.675781 89.261719 L 65.011719 88.953125 L 64.835938 89.304688 L 58.667969 90.578125 C 54.90625 91.515625 51.640625 92.027344 48.867188 92.113281 L 53.242188 100.101562 L 54.949219 102.910156 L 58.492188 100.890625 C 60.097656 100.042969 61.394531 99.429688 62.386719 99.046875 L 62.386719 99.136719 L 63.789062 99.046875 L 64.09375 98.609375 L 64.09375 98.566406 L 64.882812 97.425781 L 65.976562 95.886719 L 69.519531 89.304688 L 69.605469 89.128906 L 69.125 89.085938 L 67.855469 89.304688 L 66.675781 89.261719 M 75.335938 92.421875 L 70.832031 92.464844 L 69.867188 92.421875 L 65.976562 98.609375 L 65.667969 99.179688 L 65.84375 99.179688 L 72.625 98.433594 L 73.71875 98.390625 L 75.03125 98.347656 L 75.03125 98.300781 L 78.269531 98.082031 L 90.300781 97.203125 C 90.621094 96.855469 91.304688 96.621094 92.355469 96.503906 L 94.105469 96.414062 C 94.457031 96.414062 94.691406 96.53125 94.804688 96.765625 L 97.695312 96.328125 L 112.304688 93.253906 L 113.050781 93.476562 L 111.914062 86.496094 C 111.210938 87.199219 109.332031 87.800781 106.269531 88.296875 L 96.164062 89.832031 L 94.851562 90.269531 C 94.851562 90.679688 93.976562 90.929688 92.226562 91.015625 L 90.695312 91.0625 L 90.695312 91.238281 L 79.625 92.246094 L 78.007812 92.378906 L 76.429688 92.464844 L 75.335938 92.421875 M 76.78125 84.875 L 76.386719 84.960938 L 73.585938 85.179688 C 73.296875 86.261719 72.320312 88.222656 70.65625 91.0625 L 75.6875 90.839844 L 75.601562 91.191406 L 76.429688 91.148438 L 77.042969 91.191406 L 77.132812 90.796875 L 80.105469 90.796875 C 80.632812 90.796875 80.9375 90.972656 81.023438 91.324219 L 87.367188 90.359375 L 90.167969 89.570312 L 90.695312 89.394531 L 90.695312 89.523438 L 92.09375 89.394531 L 92.179688 89.394531 L 92.179688 89.042969 L 94.148438 88.734375 C 100.160156 88.03125 103.964844 87.433594 105.570312 86.9375 L 111.429688 85.179688 L 111.648438 85.222656 C 110.949219 81.683594 110.175781 78.570312 109.332031 75.878906 L 107.625 77.851562 L 101.414062 79.519531 C 99.808594 80.191406 98.421875 80.703125 97.257812 81.054688 L 94.632812 81.757812 C 94.222656 82.050781 93.363281 82.226562 92.050781 82.285156 L 90.78125 82.285156 L 90.78125 82.414062 L 89.335938 82.589844 L 83.476562 83.46875 C 83.417969 84.199219 81.214844 84.566406 76.867188 84.566406 L 76.824219 84.566406 L 76.78125 84.828125 L 76.78125 84.875 M 97.738281 140.257812 L 99.226562 139.90625 L 119.65625 133.980469 L 120.179688 133.410156 L 119.699219 130.863281 C 119.292969 127.878906 118.972656 126.097656 118.738281 125.511719 L 117.511719 121.339844 C 115.472656 122.773438 110.234375 124.617188 101.804688 126.871094 L 100.539062 127.222656 L 100.449219 127.441406 C 100.449219 127.675781 100.332031 127.867188 100.101562 128.011719 L 97.257812 128.144531 L 96.644531 128.1875 C 96.410156 128.480469 96.148438 128.625 95.855469 128.625 L 95.199219 128.40625 L 85.226562 130.164062 L 82.730469 130.558594 L 81.988281 130.644531 L 74.15625 131.699219 C 73.835938 132.226562 72.347656 132.488281 69.695312 132.488281 L 68.601562 132.402344 L 68.03125 132.269531 L 65.582031 132.355469 L 66.5 138.195312 L 67.855469 141.878906 L 67.945312 141.878906 L 69.300781 144.644531 L 69.039062 145.390625 L 69.210938 146.355469 L 97.210938 140.386719 L 97.34375 140.738281 L 97.738281 140.257812 M 122.9375 161.804688 L 123.898438 161.933594 L 123.988281 161.539062 L 123.636719 160.355469 L 123.550781 160.355469 L 122.9375 161.804688 M 125.082031 163.734375 C 121.902344 163.734375 120.3125 163.308594 120.3125 162.460938 C 120.3125 162.140625 120.867188 161.351562 121.976562 160.09375 C 123.082031 158.835938 123.769531 158.203125 124.03125 158.203125 C 124.613281 158.203125 125.210938 159.828125 125.824219 163.078125 C 125.824219 163.484375 125.578125 163.707031 125.082031 163.734375 M 93.011719 108.484375 L 99.398438 108.484375 L 114.625 105.324219 L 113.835938 98.785156 L 113.835938 98.652344 L 113.707031 98.566406 L 113.136719 94.265625 C 112.496094 95.433594 108.121094 96.386719 100.011719 97.117188 L 94.0625 98.039062 L 92.398438 98.390625 L 90.957031 98.433594 L 90.5625 98.433594 L 83.695312 99.046875 L 78.617188 99.488281 L 78.398438 99.574219 L 76.125 99.664062 L 74.550781 99.792969 L 74.59375 99.664062 L 73.324219 99.617188 L 73.238281 99.882812 L 69.082031 100.011719 L 66.238281 99.925781 C 66.0625 100.128906 65.667969 100.261719 65.054688 100.320312 C 64.007812 102.398438 63.191406 104.710938 62.605469 107.253906 L 63.480469 107.121094 L 70.65625 107.648438 L 70.570312 107.867188 L 71.75 108.042969 L 71.835938 107.824219 L 72.011719 107.824219 L 91.917969 108.484375 L 91.917969 108.660156 L 93.011719 108.527344 L 93.011719 108.484375 M 94.238281 115.066406 L 94.894531 115.023438 L 95.332031 115.066406 L 104.167969 113.179688 C 106.121094 112.710938 109.796875 111.570312 115.195312 109.757812 L 115.238281 109.757812 L 114.800781 106.726562 L 113.050781 107.078125 L 105.960938 108.175781 L 102.460938 109.316406 L 93.667969 109.84375 L 93.230469 109.84375 L 92.136719 109.800781 L 92.136719 109.84375 L 90.867188 109.84375 L 75.554688 109.535156 L 74.507812 109.667969 L 70.085938 109.316406 L 69.867188 109.230469 C 65.609375 108.964844 63.132812 108.601562 62.429688 108.132812 L 61.644531 111.46875 C 62.023438 112.519531 62.242188 115.375 62.300781 120.023438 L 62.429688 120.902344 L 66.367188 120.289062 C 66.542969 120.023438 66.894531 119.851562 67.417969 119.761719 L 68.382812 119.628906 L 73.542969 119.277344 L 74.855469 119.234375 L 75.164062 119.234375 C 79.625 118.5625 84.246094 117.65625 89.03125 116.515625 L 93.144531 115.550781 L 93.144531 115.59375 C 93.378906 115.328125 93.742188 115.152344 94.238281 115.066406 M 96.949219 126.476562 L 100.929688 125.816406 L 106.75 124.371094 C 109.171875 123.785156 110.746094 123.257812 111.476562 122.789062 C 114.128906 120.976562 115.980469 119.863281 117.03125 119.453125 L 116.375 116.558594 C 116.082031 115.359375 115.761719 113.542969 115.414062 111.117188 C 113.691406 112.316406 106.882812 114.160156 94.980469 116.644531 L 94.9375 116.644531 L 94.632812 116.867188 L 93.492188 117.214844 C 93.261719 117.214844 93.101562 117.15625 93.011719 117.039062 L 91.742188 117.304688 C 81.945312 119.292969 74.59375 120.640625 69.695312 121.339844 L 69.695312 121.121094 L 68.46875 121.253906 L 68.382812 121.253906 L 68.382812 121.515625 L 63.65625 121.957031 L 62.605469 121.914062 L 63.699219 125.773438 L 63.742188 125.773438 L 63.960938 126.695312 L 64.75 129.109375 L 65.320312 131.257812 L 65.363281 131.257812 L 68.644531 130.996094 L 68.644531 131.039062 L 69.914062 130.910156 L 69.914062 130.863281 L 74.550781 130.339844 L 78.96875 129.59375 L 81.375 129.546875 L 88.59375 127.835938 L 88.769531 127.878906 L 93.929688 126.871094 L 95.8125 126.609375 L 95.898438 127.089844 L 97.039062 126.871094 L 96.949219 126.476562 M 61.25 106.113281 L 61.25 106.027344 C 61.601562 103.773438 61.890625 102.382812 62.125 101.855469 L 62.957031 100.363281 L 62.386719 100.320312 L 62.386719 100.496094 L 62.429688 100.671875 L 59.542969 101.679688 L 55.738281 104.09375 L 57.226562 106.289062 L 57.355469 106.550781 L 57.355469 106.640625 L 57.445312 106.683594 L 58.976562 109.449219 L 60.636719 111.378906 L 60.8125 109.492188 L 61.25 106.113281 M 54.554688 105.148438 L 51.976562 100.628906 L 48.082031 93.957031 C 47.265625 94.308594 45.253906 94.6875 42.042969 95.097656 L 38.71875 95.492188 L 24.105469 96.152344 L 16.757812 94.441406 C 16.699219 94.761719 16.582031 94.96875 16.40625 95.054688 L 16.625 98.566406 L 16.84375 98.523438 C 21.890625 100.246094 25.679688 101.417969 28.21875 102.03125 L 41.257812 103.964844 L 42 104.050781 L 42.21875 104.226562 L 42.523438 104.140625 L 54.46875 105.191406 L 54.601562 105.191406 L 54.554688 105.148438 M 43.09375 117.699219 L 44.492188 117.65625 L 45.019531 117.742188 L 56.699219 117.039062 L 60.507812 116.25 L 60.679688 116.25 L 60.636719 115.242188 L 60.636719 112.828125 L 60.59375 112.828125 C 59.660156 112.828125 57.824219 110.5625 55.082031 106.027344 C 54.847656 106.464844 53.796875 106.683594 51.929688 106.683594 L 43.53125 106.027344 L 42.917969 106.15625 L 42.21875 106.15625 C 40.878906 106.15625 40.105469 105.9375 39.898438 105.5 L 36.925781 105.015625 L 27.300781 103.042969 L 20.824219 101.15625 L 16.667969 99.707031 C 16.816406 102.953125 16.917969 107.328125 16.976562 112.828125 L 17.367188 112.742188 C 18.507812 112.742188 22.691406 113.648438 29.925781 115.460938 L 39.59375 117.785156 L 42.175781 117.785156 L 43.09375 117.699219 M 42.742188 128.230469 C 50.910156 128.054688 56.058594 127.660156 58.1875 127.046875 L 59.980469 126.125 L 62.5625 125.730469 L 62.039062 123.710938 C 61.394531 121.285156 60.972656 119.191406 60.769531 117.4375 L 57.792969 118.183594 L 44.929688 119.148438 L 44.320312 119.148438 L 42.875 119.324219 L 42.304688 119.324219 L 40.292969 119.015625 L 36.007812 118.578125 L 26.820312 116.339844 L 19.992188 114.757812 L 16.976562 113.835938 L 16.976562 126.609375 L 17.019531 126.609375 L 22.835938 127.484375 L 32.289062 128.320312 L 42.742188 128.230469 M 44.144531 140.125 L 58.101562 140.082031 L 62.519531 139.949219 L 65.929688 140.082031 C 65.085938 136.949219 64.503906 134.359375 64.179688 132.3125 L 64.007812 132.3125 L 63.960938 132.050781 L 64.050781 131.785156 L 62.914062 127.089844 L 57.792969 128.1875 C 53.183594 129.035156 48.140625 129.535156 42.65625 129.679688 L 42.570312 129.417969 C 42.421875 129.417969 42.292969 129.503906 42.175781 129.679688 L 39.945312 129.679688 C 29.707031 129.679688 23.710938 129.59375 21.960938 129.417969 C 20.882812 129.300781 20.152344 129.066406 19.773438 128.714844 L 16.976562 128.011719 L 16.976562 135.210938 L 17.195312 138.019531 L 17.367188 138.019531 L 22.617188 139.421875 C 23.785156 139.628906 24.675781 139.875 25.289062 140.167969 L 44.144531 140.125 M 67.8125 146.621094 L 67.855469 146.621094 L 66.195312 140.957031 L 44.710938 141.617188 L 44.492188 141.527344 L 44.144531 141.617188 L 40.90625 141.617188 L 24.851562 141.398438 L 24.019531 141.265625 L 22.792969 140.828125 L 19.863281 140.167969 L 17.28125 139.378906 L 18.375 149.296875 L 18.375 149.472656 C 22.953125 149.382812 30.566406 149.472656 41.210938 149.734375 L 44.539062 149.734375 L 44.757812 150.128906 C 44.84375 149.808594 45.207031 149.632812 45.851562 149.605469 L 45.980469 149.605469 L 46.945312 149.734375 L 63.789062 149.078125 L 65.101562 148.59375 L 68.03125 148.375 L 68.425781 148.417969 L 67.988281 147.015625 L 67.855469 146.925781 L 67.8125 146.621094 M 97.867188 141.617188 L 94.324219 142.449219 L 83.738281 144.292969 C 76.648438 146.253906 72.230469 147.234375 70.480469 147.234375 L 69.300781 147.234375 L 69.167969 148.59375 C 69.316406 148.710938 69.359375 148.859375 69.300781 149.03125 L 69.300781 149.121094 L 69.605469 150.921875 L 70.261719 155.265625 C 70.464844 156.289062 71.179688 158.453125 72.40625 161.757812 C 73.601562 161.351562 75.660156 160.792969 78.574219 160.09375 L 93.449219 157.898438 L 100.625 156.757812 L 101.542969 156.667969 L 101.71875 156.714844 L 102.113281 156.625 L 103.207031 156.492188 L 105.394531 156.097656 L 105.789062 156.140625 L 107.40625 155.878906 L 115.105469 153.816406 L 115.148438 153.816406 L 115.585938 143.636719 C 115.585938 142.171875 116.273438 140.050781 117.644531 137.273438 L 118.476562 135.734375 L 111.914062 137.84375 C 106.632812 139.453125 102.871094 140.488281 100.625 140.957031 L 98.21875 141.527344 L 97.867188 141.617188 M 68.164062 149.777344 L 68.164062 149.605469 L 64.269531 150.21875 L 47.03125 151.050781 C 46.886719 150.90625 46.738281 150.832031 46.59375 150.832031 C 46.300781 150.832031 46.113281 150.921875 46.023438 151.09375 L 41.082031 151.09375 L 18.242188 150.699219 L 20.300781 166.058594 L 20.300781 166.324219 L 20.867188 166.324219 L 39.375 165.621094 L 48.476562 164.875 L 48.648438 164.832031 L 49.042969 164.964844 L 49.570312 164.742188 L 53.023438 164.304688 L 60.375 162.988281 L 70.042969 161.714844 L 70.394531 161.714844 C 69.402344 159.8125 68.660156 155.835938 68.164062 149.777344 M 48.605469 166.28125 L 46.679688 166.5 L 33.46875 167.597656 L 20.867188 167.332031 C 21.363281 168.328125 21.816406 170.214844 22.226562 172.996094 C 22.546875 175.1875 22.777344 177.382812 22.925781 179.578125 L 23.667969 179.488281 C 26.207031 179.285156 33.324219 179.09375 45.019531 178.917969 L 50.835938 178.65625 L 50.882812 178.65625 L 56.261719 177.777344 C 58.421875 177.222656 61.207031 176.839844 64.617188 176.636719 L 69.695312 175.714844 C 70.800781 175.394531 71.648438 175.230469 72.230469 175.230469 L 73.0625 175.277344 L 73.0625 175.230469 L 73.28125 171.941406 C 73.484375 170.1875 73.761719 169.191406 74.113281 168.957031 L 71.574219 162.988281 L 71.269531 162.855469 C 69.519531 163.414062 64.96875 164.171875 57.617188 165.140625 L 49.261719 166.234375 C 49.175781 166.148438 49.101562 166.105469 49.042969 166.105469 L 48.605469 166.28125 M 101.238281 158.46875 L 101.019531 158.46875 L 100.363281 158.378906 L 97.519531 158.863281 L 89.820312 159.695312 C 85.503906 160.046875 82.453125 160.488281 80.675781 161.011719 C 77.234375 162.183594 74.753906 162.855469 73.238281 163.03125 L 74.417969 165.140625 L 76.476562 169.660156 L 77.875 173.476562 L 78.835938 176.550781 L 91.699219 176.242188 L 93.84375 175.582031 C 98.570312 174.941406 101.238281 174.429688 101.851562 174.046875 L 104.300781 173.257812 L 111.738281 171.0625 C 111.648438 170.300781 111.328125 169.746094 110.773438 169.394531 C 110.015625 168.867188 109.636719 167.816406 109.636719 166.234375 C 109.636719 164.566406 110.015625 163.472656 110.773438 162.945312 C 112.144531 161.980469 113.121094 161.058594 113.707031 160.179688 C 114.171875 159.449219 114.449219 158.191406 114.539062 156.40625 L 114.667969 155.527344 L 108.585938 156.976562 L 105.613281 157.503906 L 105.042969 157.765625 C 104.082031 158.203125 102.8125 158.4375 101.238281 158.46875 "/>
<path style=" stroke:none;fill-rule:evenodd;fill:rgb(88.235295%,88.235295%,88.235295%);fill-opacity:1;" d="M 87.324219 62.800781 C 86.652344 62.945312 86.214844 63.179688 86.011719 63.5 L 66.632812 67.363281 C 57.121094 69.265625 45.601562 71.179688 32.070312 73.113281 L 16.582031 75.394531 L 16.625 74.164062 L 17.0625 72.671875 L 17.5 69.734375 C 18.082031 65.226562 18.726562 62.390625 19.425781 61.21875 L 20.695312 61.527344 L 20.695312 61.660156 L 30.492188 62.449219 L 46.507812 63.5 C 58.785156 63.5 71.167969 61.425781 83.648438 57.269531 L 86.84375 56.171875 L 87.105469 55.691406 L 87.675781 55.867188 L 87.851562 56.390625 L 87.105469 58.675781 C 86.320312 59.960938 85.925781 60.691406 85.925781 60.867188 L 87.324219 62.800781 M 79.320312 73.507812 L 79.539062 72.847656 L 79.492188 72.71875 L 78.269531 73.640625 L 75.511719 74.121094 L 75.554688 74.078125 L 73.105469 74.253906 L 48.867188 76.226562 L 44.363281 76.929688 L 42.4375 77.542969 L 40.820312 77.808594 L 39.332031 77.632812 L 34.5625 77.894531 L 33.730469 78.421875 L 33.46875 78.246094 L 31.894531 78.289062 L 29.269531 78.160156 L 28.175781 78.421875 L 17.414062 78.773438 L 16.449219 78.859375 L 16.582031 75.921875 L 19.554688 76.140625 C 24.105469 76.140625 27.679688 75.847656 30.273438 75.261719 L 30.492188 75.21875 L 30.539062 75.351562 L 30.582031 75.175781 C 30.640625 74.824219 30.902344 74.648438 31.367188 74.648438 L 31.804688 74.78125 L 33.949219 74.121094 L 38.0625 73.464844 C 39.054688 73.054688 40.105469 72.804688 41.210938 72.71875 L 49.523438 72.367188 L 68.992188 68.328125 C 75.992188 67.070312 81.929688 65.855469 86.800781 64.6875 L 86.757812 64.554688 L 88.417969 64.421875 L 89.554688 66.179688 C 91.304688 69.28125 92.195312 71.035156 92.226562 71.445312 L 92.226562 71.882812 L 83.738281 72.894531 L 79.320312 73.507812 M 37.929688 94.175781 L 37.886719 94.175781 L 37.320312 94.394531 L 37.011719 94.308594 L 22.3125 94.792969 C 22.136719 94.792969 21.789062 94.570312 21.261719 94.132812 C 20.738281 93.664062 19.613281 93.429688 17.894531 93.429688 L 16.757812 93.519531 C 16.523438 92.144531 16.378906 90.066406 16.320312 87.285156 C 23.230469 87.636719 26.933594 87.683594 27.429688 87.417969 L 31.71875 87.332031 C 31.863281 87.476562 32.097656 87.550781 32.417969 87.550781 L 34.082031 87.460938 C 34.78125 88.222656 36.078125 90.316406 37.976562 93.738281 L 37.929688 94.175781 M 43.925781 87.199219 L 43.707031 86.9375 L 44.40625 87.023438 L 44.929688 88.121094 L 43.925781 87.199219 M 67.945312 87.636719 L 67.8125 87.8125 L 65.40625 87.636719 L 64.707031 87.859375 L 62.167969 87.988281 C 61.613281 88.398438 61.292969 88.605469 61.207031 88.605469 C 60.679688 88.605469 59.367188 88.894531 57.269531 89.480469 C 54.148438 90.386719 51.480469 90.828125 49.261719 90.796875 L 48.167969 90.886719 L 46.242188 87.636719 L 46.070312 87.199219 L 47.03125 87.15625 L 48.695312 87.375 C 48.957031 87.375 49.144531 87.300781 49.261719 87.15625 L 57.050781 87.066406 L 63.042969 86.367188 L 67.113281 85.796875 L 67.242188 85.621094 L 67.855469 85.796875 L 69.257812 85.75 L 68.117188 87.417969 L 67.945312 87.636719 M 70.261719 84.171875 L 69.605469 84.128906 L 68.425781 84.214844 L 68.511719 84.082031 C 67.230469 84.082031 66.148438 84.257812 65.273438 84.609375 C 64.226562 85.050781 63.101562 85.253906 61.90625 85.222656 L 60.023438 85.3125 L 57.136719 85.664062 L 48.082031 85.75 L 43.96875 85.53125 L 42.832031 85.621094 L 42.394531 84.875 L 38.105469 81.582031 L 35.4375 79.695312 L 37.84375 79.300781 L 40.554688 78.773438 L 47.6875 78.070312 L 74.023438 75.351562 L 74.289062 75.351562 L 74.507812 75.132812 L 76.429688 75.261719 C 75.003906 76.695312 73.71875 78.363281 72.582031 80.265625 L 70.261719 84.171875 M 33.25 85.882812 L 32.332031 86.058594 L 32.289062 85.96875 L 27.429688 86.015625 L 16.320312 86.277344 L 16.273438 83.996094 L 16.449219 79.476562 C 20.535156 79.535156 24.5 79.503906 28.351562 79.386719 L 30.230469 79.78125 C 30.929688 80.542969 31.9375 82.503906 33.25 85.664062 L 33.25 85.882812 M 64.09375 98.566406 L 64.09375 98.609375 L 63.789062 99.046875 L 62.386719 99.136719 L 62.386719 99.046875 C 61.394531 99.429688 60.097656 100.042969 58.492188 100.890625 L 54.949219 102.910156 L 53.242188 100.101562 L 48.867188 92.113281 C 51.640625 92.027344 54.90625 91.515625 58.667969 90.578125 L 64.835938 89.304688 L 65.011719 88.953125 L 66.675781 89.261719 C 65.160156 91.398438 64.398438 93.242188 64.398438 94.792969 L 64.09375 98.566406 M 78.792969 75.304688 L 81.550781 75.4375 C 82.277344 75.410156 83.78125 74.910156 86.054688 73.945312 L 89.601562 73.507812 L 89.949219 73.550781 L 92.226562 73.640625 L 92.09375 80.660156 L 90.738281 80.921875 L 87.457031 81.449219 L 80.5 82.722656 L 77.085938 83.160156 C 77.640625 80.03125 78.210938 77.414062 78.792969 75.304688 M 73.71875 98.390625 L 74.242188 96.679688 L 75.335938 92.421875 L 76.429688 92.464844 L 78.007812 92.378906 L 79.625 92.246094 L 90.695312 91.238281 L 90.695312 91.0625 L 92.226562 91.015625 L 92.355469 96.503906 C 91.304688 96.621094 90.621094 96.855469 90.300781 97.203125 L 78.269531 98.082031 L 75.03125 98.300781 L 75.03125 98.347656 L 73.71875 98.390625 M 75.6875 90.839844 L 76.78125 84.875 L 76.78125 84.828125 L 76.824219 84.566406 L 76.867188 84.566406 C 81.214844 84.566406 83.417969 84.199219 83.476562 83.46875 L 89.335938 82.589844 L 90.78125 82.414062 L 90.78125 82.285156 L 92.050781 82.285156 L 92.179688 89.042969 L 92.179688 89.394531 L 92.09375 89.394531 L 90.695312 89.523438 L 90.695312 89.394531 L 90.167969 89.570312 L 87.367188 90.359375 L 81.023438 91.324219 C 80.9375 90.972656 80.632812 90.796875 80.105469 90.796875 L 77.132812 90.796875 L 77.042969 91.191406 L 76.429688 91.148438 L 75.601562 91.191406 L 75.6875 90.839844 M 97.257812 128.144531 C 97.753906 130.980469 98 133.71875 98 136.351562 C 98 138.3125 97.914062 139.613281 97.738281 140.257812 L 97.34375 140.738281 L 97.210938 140.386719 L 69.210938 146.355469 L 69.039062 145.390625 L 69.300781 144.644531 L 67.945312 141.878906 L 68.601562 132.402344 L 69.695312 132.488281 C 72.347656 132.488281 73.835938 132.226562 74.15625 131.699219 L 81.988281 130.644531 L 82.730469 130.558594 L 85.226562 130.164062 L 95.199219 128.40625 L 95.855469 128.625 C 96.148438 128.625 96.410156 128.480469 96.644531 128.1875 L 97.257812 128.144531 M 92.398438 98.390625 C 92.574219 103.128906 92.777344 106.492188 93.011719 108.484375 L 93.011719 108.527344 L 91.917969 108.660156 L 91.917969 108.484375 L 72.011719 107.824219 L 71.882812 107.78125 L 71.835938 107.824219 L 71.75 108.042969 L 70.570312 107.867188 L 70.65625 107.648438 L 73.238281 99.882812 L 73.324219 99.617188 L 74.59375 99.664062 L 74.550781 99.792969 L 76.125 99.664062 L 78.398438 99.574219 L 78.617188 99.488281 L 83.695312 99.046875 L 90.5625 98.433594 L 90.957031 98.433594 L 92.398438 98.390625 M 93.230469 109.84375 C 93.433594 111.335938 93.769531 113.078125 94.238281 115.066406 C 93.742188 115.152344 93.378906 115.328125 93.144531 115.59375 L 93.144531 115.550781 L 89.03125 116.515625 C 84.246094 117.65625 79.625 118.5625 75.164062 119.234375 L 74.855469 119.234375 L 73.542969 119.277344 L 68.382812 119.628906 C 68.46875 116.410156 69.039062 112.972656 70.085938 109.316406 L 74.507812 109.667969 L 75.554688 109.535156 L 90.867188 109.84375 L 92.136719 109.84375 L 92.136719 109.800781 L 93.230469 109.84375 M 94.632812 116.867188 L 96.207031 123.40625 L 96.949219 126.476562 L 97.039062 126.871094 L 95.898438 127.089844 L 95.8125 126.609375 L 93.929688 126.871094 L 88.769531 127.878906 L 88.59375 127.835938 L 81.375 129.546875 L 78.96875 129.59375 L 74.550781 130.339844 L 69.914062 130.863281 L 69.914062 130.910156 L 68.644531 131.039062 L 68.644531 130.996094 L 68.6875 128.40625 L 68.382812 121.515625 L 68.382812 121.253906 L 68.46875 121.253906 L 69.695312 121.121094 L 69.695312 121.339844 C 74.59375 120.640625 81.945312 119.292969 91.742188 117.304688 L 93.011719 117.039062 C 93.101562 117.15625 93.261719 117.214844 93.492188 117.214844 L 94.632812 116.867188 M 57.226562 106.289062 L 55.738281 104.09375 L 59.542969 101.679688 L 62.429688 100.671875 L 62.386719 100.496094 L 62.386719 100.320312 L 62.957031 100.363281 L 62.125 101.855469 C 61.890625 102.382812 61.601562 103.773438 61.25 106.027344 L 61.25 106.113281 L 60.59375 106.332031 L 57.96875 106.859375 L 57.445312 106.683594 L 57.355469 106.640625 L 57.355469 106.289062 L 57.226562 106.289062 M 38.71875 95.492188 L 38.71875 95.539062 C 39.417969 95.539062 40.324219 96.691406 41.429688 99.003906 L 42.875 102.515625 C 42.875 103.363281 42.757812 103.90625 42.523438 104.140625 L 42.21875 104.226562 L 42 104.050781 L 41.257812 103.964844 L 28.21875 102.03125 C 25.679688 101.417969 21.890625 100.246094 16.84375 98.523438 L 16.625 98.566406 L 16.40625 95.054688 C 16.582031 94.96875 16.699219 94.761719 16.757812 94.441406 L 24.105469 96.152344 L 38.71875 95.492188 M 42.917969 106.15625 L 42.875 106.550781 C 42.875 107.839844 42.640625 109.886719 42.175781 112.695312 L 42.394531 114.496094 C 42.773438 114.496094 42.992188 114.730469 43.050781 115.199219 L 43.050781 116.46875 L 43.226562 116.910156 C 43.285156 117.261719 43.238281 117.523438 43.09375 117.699219 L 42.175781 117.785156 L 42.132812 117.785156 L 41.957031 117.699219 L 41.957031 117.785156 L 39.59375 117.785156 L 29.925781 115.460938 C 22.691406 113.648438 18.507812 112.742188 17.367188 112.742188 L 16.976562 112.828125 C 16.917969 107.328125 16.816406 102.953125 16.667969 99.707031 L 20.824219 101.15625 L 27.300781 103.042969 L 36.925781 105.015625 L 39.898438 105.5 C 40.105469 105.9375 40.878906 106.15625 42.21875 106.15625 L 42.917969 106.15625 M 42.875 119.324219 C 43.136719 119.703125 43.3125 120.492188 43.398438 121.691406 L 43.398438 124.414062 C 43.546875 126.871094 43.328125 128.101562 42.742188 128.101562 L 42.742188 128.230469 L 32.289062 128.320312 L 22.835938 127.484375 L 17.019531 126.609375 L 16.976562 126.609375 L 16.976562 113.835938 L 19.992188 114.757812 L 26.820312 116.339844 L 36.007812 118.578125 L 40.292969 119.015625 L 42.304688 119.324219 L 42.875 119.324219 M 42.65625 129.679688 L 44.800781 138.367188 C 44.800781 139.480469 44.582031 140.035156 44.144531 140.035156 L 44.144531 140.125 L 25.289062 140.167969 C 24.675781 139.875 23.785156 139.628906 22.617188 139.421875 L 17.367188 138.019531 L 17.195312 138.019531 L 16.976562 135.210938 L 16.976562 128.011719 L 19.773438 128.714844 C 20.152344 129.066406 20.882812 129.300781 21.960938 129.417969 C 23.710938 129.59375 29.707031 129.679688 39.945312 129.679688 L 42.175781 129.679688 C 42.292969 129.503906 42.421875 129.417969 42.570312 129.417969 L 42.65625 129.679688 M 45.851562 149.605469 C 45.207031 149.632812 44.84375 149.808594 44.757812 150.128906 L 44.539062 149.734375 L 41.210938 149.734375 C 30.566406 149.472656 22.953125 149.382812 18.375 149.472656 L 18.375 149.296875 L 17.28125 139.378906 L 19.863281 140.167969 L 22.792969 140.828125 L 24.019531 141.265625 L 24.851562 141.398438 L 40.90625 141.617188 L 44.144531 141.617188 L 44.492188 141.527344 L 44.710938 141.617188 C 45.0625 141.9375 45.324219 143.152344 45.5 145.257812 L 45.675781 149.03125 L 45.675781 149.078125 L 45.851562 149.558594 L 45.851562 149.605469 M 101.542969 156.667969 L 100.625 156.757812 L 93.449219 157.898438 L 78.574219 160.09375 C 75.660156 160.792969 73.601562 161.351562 72.40625 161.757812 C 71.179688 158.453125 70.464844 156.289062 70.261719 155.265625 L 69.605469 150.921875 L 69.300781 149.121094 L 69.300781 149.03125 C 69.359375 148.859375 69.316406 148.710938 69.167969 148.59375 L 69.300781 147.234375 L 70.480469 147.234375 C 72.230469 147.234375 76.648438 146.253906 83.738281 144.292969 L 94.324219 142.449219 L 97.867188 141.617188 C 97.664062 141.761719 97.5625 142.027344 97.5625 142.40625 C 97.5625 143.664062 98.085938 146.222656 99.136719 150.085938 C 100.011719 153.273438 100.667969 155.410156 101.105469 156.492188 L 101.542969 156.667969 M 48.476562 164.875 L 39.375 165.621094 L 20.867188 166.324219 L 20.300781 166.324219 L 20.300781 166.058594 L 18.242188 150.699219 L 41.082031 151.09375 L 46.023438 151.09375 L 45.9375 151.578125 L 47.164062 156.84375 C 47.980469 160.648438 48.402344 163.28125 48.429688 164.742188 L 48.476562 164.875 M 48.605469 166.28125 C 48.460938 166.457031 48.386719 166.746094 48.386719 167.15625 C 48.386719 169.234375 48.855469 171.164062 49.789062 172.949219 L 50.136719 176.550781 C 50.253906 177.632812 50.488281 178.332031 50.835938 178.65625 L 45.019531 178.917969 C 33.324219 179.09375 26.207031 179.285156 23.667969 179.488281 L 22.925781 179.578125 C 22.777344 177.382812 22.546875 175.1875 22.226562 172.996094 C 21.816406 170.214844 21.363281 168.328125 20.867188 167.332031 L 33.46875 167.597656 L 46.679688 166.5 L 48.605469 166.28125 M 104.300781 173.257812 L 101.851562 174.046875 C 101.238281 174.429688 98.570312 174.941406 93.84375 175.582031 L 91.699219 176.242188 L 78.835938 176.550781 L 77.875 173.476562 L 76.476562 169.660156 L 74.417969 165.140625 L 73.238281 163.03125 C 74.753906 162.855469 77.234375 162.183594 80.675781 161.011719 C 82.453125 160.488281 85.503906 160.046875 89.820312 159.695312 L 97.519531 158.863281 L 100.363281 158.378906 L 101.019531 158.46875 L 101.238281 158.46875 C 101.238281 158.847656 101.703125 160.105469 102.636719 162.242188 L 102.636719 166.058594 C 102.636719 167.085938 103.191406 169.484375 104.300781 173.257812 "/>
<path style=" stroke:none;fill-rule:evenodd;fill:rgb(64.313728%,63.921571%,63.137257%);fill-opacity:1;" d="M 87.675781 55.867188 C 90.707031 54.695312 93.347656 53.511719 95.59375 52.3125 C 96.644531 51.753906 97.519531 51.242188 98.21875 50.773438 L 98.042969 50.421875 L 98.570312 49.675781 L 100.230469 48.800781 C 101.253906 50.585938 101.894531 51.914062 102.15625 52.792969 L 102.726562 55.46875 L 102.15625 55.46875 L 102.679688 56.742188 C 102.300781 56.832031 101.5 57.285156 100.273438 58.105469 L 97.476562 59.859375 C 94.851562 61.027344 92.414062 61.921875 90.167969 62.535156 L 87.324219 62.800781 L 85.925781 60.867188 C 85.925781 60.691406 86.320312 59.960938 87.105469 58.675781 L 87.851562 56.390625 L 87.675781 55.867188 M 92.226562 71.882812 L 92.226562 71.445312 C 92.195312 71.035156 91.304688 69.28125 89.554688 66.179688 L 88.417969 64.421875 L 89.992188 64.070312 C 90.984375 63.808594 91.597656 63.589844 91.832031 63.414062 C 98.570312 61.511719 102.375 59.757812 103.25 58.148438 L 104.34375 61.308594 L 106.96875 69.03125 C 105.683594 69.03125 101.441406 69.910156 94.238281 71.664062 L 93.929688 71.664062 L 92.226562 71.882812 M 47.511719 92.90625 L 47.46875 92.90625 L 44.40625 93.253906 L 39.769531 93.78125 L 37.929688 94.175781 L 37.976562 93.738281 C 36.078125 90.316406 34.78125 88.222656 34.082031 87.460938 L 34.78125 87.332031 L 43.925781 87.199219 L 44.929688 88.121094 C 45.136719 88.382812 45.367188 88.546875 45.632812 88.605469 C 45.71875 89.304688 46.347656 90.738281 47.511719 92.90625 M 67.945312 87.636719 L 68.117188 87.417969 L 69.257812 85.75 L 71.3125 85.398438 L 71.792969 85.355469 L 70.261719 87.988281 L 67.945312 87.636719 M 70.261719 84.171875 L 72.582031 80.265625 C 73.71875 78.363281 75.003906 76.695312 76.429688 75.261719 L 77.394531 75.261719 L 78.792969 75.304688 C 78.210938 77.414062 77.640625 80.03125 77.085938 83.160156 C 76.679688 83.277344 76.417969 83.453125 76.300781 83.6875 L 75.25 83.90625 L 73.632812 84.171875 L 73.019531 83.777344 L 72.582031 84.214844 L 70.351562 84.171875 L 70.261719 84.171875 M 35.4375 79.695312 L 38.105469 81.582031 L 42.394531 84.875 L 42.832031 85.621094 L 42.351562 85.839844 L 34.210938 85.925781 L 33.554688 85.882812 L 33.25 85.882812 L 33.25 85.664062 C 31.9375 82.503906 30.929688 80.542969 30.230469 79.78125 L 32.070312 79.828125 L 33.601562 79.652344 L 34.167969 79.828125 L 35.4375 79.695312 M 64.09375 98.566406 L 64.398438 94.792969 C 64.398438 93.242188 65.160156 91.398438 66.675781 89.261719 L 67.855469 89.304688 L 69.125 89.085938 L 69.605469 89.128906 L 69.519531 89.304688 L 65.976562 95.886719 L 64.882812 97.425781 L 64.09375 98.566406 M 92.09375 80.660156 L 92.226562 73.640625 L 93.230469 73.332031 L 94.851562 72.894531 L 95.242188 72.71875 L 103.207031 71.09375 C 105.363281 70.683594 106.734375 70.332031 107.320312 70.039062 L 108.585938 73.683594 L 109.113281 75.132812 L 108.542969 75 C 108.195312 75 107.800781 75.261719 107.363281 75.789062 C 106.894531 76.375 106.398438 76.710938 105.875 76.796875 L 102.898438 77.5 L 100.40625 78.554688 C 98.511719 79.285156 95.886719 79.972656 92.53125 80.617188 L 92.09375 80.660156 M 73.71875 98.390625 L 72.625 98.433594 L 65.84375 99.179688 L 65.667969 99.179688 L 65.976562 98.609375 L 69.867188 92.421875 L 70.832031 92.464844 L 75.335938 92.421875 L 74.242188 96.679688 L 73.71875 98.390625 M 92.226562 91.015625 C 93.976562 90.929688 94.851562 90.679688 94.851562 90.269531 L 96.164062 89.832031 L 106.269531 88.296875 C 109.332031 87.800781 111.210938 87.199219 111.914062 86.496094 L 113.050781 93.476562 L 112.304688 93.253906 L 97.695312 96.328125 L 94.804688 96.765625 C 94.691406 96.53125 94.457031 96.414062 94.105469 96.414062 L 92.355469 96.503906 L 92.226562 91.015625 M 75.6875 90.839844 L 70.65625 91.0625 C 72.320312 88.222656 73.296875 86.261719 73.585938 85.179688 L 76.386719 84.960938 L 76.78125 84.875 L 75.6875 90.839844 M 92.050781 82.285156 C 93.363281 82.226562 94.222656 82.050781 94.632812 81.757812 L 97.257812 81.054688 C 98.421875 80.703125 99.808594 80.191406 101.414062 79.519531 L 107.625 77.851562 L 109.332031 75.878906 C 110.175781 78.570312 110.949219 81.683594 111.648438 85.222656 L 111.429688 85.179688 L 105.570312 86.9375 C 103.964844 87.433594 100.160156 88.03125 94.148438 88.734375 L 92.179688 89.042969 L 92.050781 82.285156 M 97.257812 128.144531 L 100.101562 128.011719 C 100.332031 127.867188 100.449219 127.675781 100.449219 127.441406 L 100.539062 127.222656 L 101.804688 126.871094 C 110.234375 124.617188 115.472656 122.773438 117.511719 121.339844 L 118.738281 125.511719 C 118.972656 126.097656 119.292969 127.878906 119.699219 130.863281 L 120.179688 133.410156 L 119.65625 133.980469 L 99.226562 139.90625 L 97.738281 140.257812 C 97.914062 139.613281 98 138.3125 98 136.351562 C 98 133.71875 97.753906 130.980469 97.257812 128.144531 M 67.945312 141.878906 L 67.855469 141.878906 L 66.5 138.195312 L 65.582031 132.355469 L 68.03125 132.269531 L 68.601562 132.402344 L 67.945312 141.878906 M 122.9375 161.804688 L 123.550781 160.355469 L 123.636719 160.355469 L 123.988281 161.539062 L 123.898438 161.933594 L 122.9375 161.804688 M 92.398438 98.390625 L 94.0625 98.039062 L 100.011719 97.117188 C 108.121094 96.386719 112.496094 95.433594 113.136719 94.265625 L 113.707031 98.566406 L 113.835938 98.652344 L 113.835938 98.785156 L 114.625 105.324219 L 99.398438 108.484375 L 93.011719 108.484375 C 92.777344 106.492188 92.574219 103.128906 92.398438 98.390625 M 70.65625 107.648438 L 63.480469 107.121094 L 62.605469 107.253906 C 63.191406 104.710938 64.007812 102.398438 65.054688 100.320312 C 65.667969 100.261719 66.0625 100.128906 66.238281 99.925781 L 69.082031 100.011719 L 73.238281 99.882812 L 70.65625 107.648438 M 93.230469 109.84375 L 93.667969 109.84375 L 102.460938 109.316406 L 105.960938 108.175781 L 113.050781 107.078125 L 114.800781 106.726562 L 115.238281 109.757812 L 115.195312 109.757812 C 109.796875 111.570312 106.121094 112.710938 104.167969 113.179688 L 95.332031 115.066406 L 94.894531 115.023438 L 94.238281 115.066406 C 93.769531 113.078125 93.433594 111.335938 93.230469 109.84375 M 68.382812 119.628906 L 67.417969 119.761719 C 66.894531 119.851562 66.542969 120.023438 66.367188 120.289062 L 62.429688 120.902344 L 62.300781 120.023438 C 62.242188 115.375 62.023438 112.519531 61.644531 111.46875 L 62.429688 108.132812 C 63.132812 108.601562 65.609375 108.964844 69.867188 109.230469 L 70.085938 109.316406 C 69.039062 112.972656 68.46875 116.410156 68.382812 119.628906 M 94.632812 116.867188 L 94.9375 116.644531 L 94.980469 116.644531 C 106.882812 114.160156 113.691406 112.316406 115.414062 111.117188 C 115.761719 113.542969 116.082031 115.359375 116.375 116.558594 L 117.03125 119.453125 C 115.980469 119.863281 114.128906 120.976562 111.476562 122.789062 C 110.746094 123.257812 109.171875 123.785156 106.75 124.371094 L 100.929688 125.816406 L 96.949219 126.476562 L 96.207031 123.40625 L 94.632812 116.867188 M 68.644531 130.996094 L 65.363281 131.257812 L 65.320312 131.257812 L 64.75 129.109375 L 63.960938 126.695312 L 63.742188 125.773438 L 63.699219 125.773438 L 62.605469 121.914062 L 63.65625 121.957031 L 68.382812 121.515625 L 68.6875 128.40625 L 68.644531 130.996094 M 61.25 106.113281 L 60.8125 109.492188 L 60.636719 111.378906 L 58.976562 109.449219 L 57.445312 106.683594 L 57.96875 106.859375 L 60.59375 106.332031 L 61.25 106.113281 M 38.71875 95.492188 L 42.042969 95.097656 C 45.253906 94.6875 47.265625 94.308594 48.082031 93.957031 L 51.976562 100.628906 L 54.554688 105.148438 L 54.554688 105.191406 L 54.46875 105.191406 L 42.523438 104.140625 C 42.757812 103.90625 42.875 103.363281 42.875 102.515625 L 41.429688 99.003906 C 40.324219 96.691406 39.417969 95.539062 38.71875 95.539062 L 38.71875 95.492188 M 42.917969 106.15625 L 43.53125 106.027344 L 51.929688 106.683594 C 53.796875 106.683594 54.847656 106.464844 55.082031 106.027344 C 57.824219 110.5625 59.660156 112.828125 60.59375 112.828125 L 60.636719 112.828125 L 60.636719 115.242188 L 60.679688 116.25 L 60.507812 116.25 L 56.699219 117.039062 L 45.019531 117.742188 L 44.492188 117.65625 L 43.09375 117.699219 C 43.238281 117.523438 43.285156 117.261719 43.226562 116.910156 L 43.050781 116.46875 L 43.050781 115.199219 C 42.992188 114.730469 42.773438 114.496094 42.394531 114.496094 L 42.175781 112.695312 C 42.640625 109.886719 42.875 107.839844 42.875 106.550781 L 42.917969 106.15625 M 42.875 119.324219 L 44.320312 119.148438 L 44.929688 119.148438 L 57.792969 118.183594 L 60.769531 117.4375 C 60.972656 119.191406 61.394531 121.285156 62.039062 123.710938 L 62.5625 125.730469 L 59.980469 126.125 L 58.1875 127.046875 C 56.058594 127.660156 50.910156 128.054688 42.742188 128.230469 L 42.742188 128.101562 C 43.328125 128.101562 43.546875 126.871094 43.398438 124.414062 L 43.398438 121.691406 C 43.3125 120.492188 43.136719 119.703125 42.875 119.324219 M 42.65625 129.679688 C 48.140625 129.535156 53.183594 129.035156 57.792969 128.1875 L 62.914062 127.089844 L 64.050781 131.785156 L 63.960938 132.050781 L 64.007812 132.3125 L 64.179688 132.3125 C 64.503906 134.359375 65.085938 136.949219 65.929688 140.082031 L 62.519531 139.949219 L 58.101562 140.082031 L 44.144531 140.125 L 44.144531 140.035156 C 44.582031 140.035156 44.800781 139.480469 44.800781 138.367188 L 42.65625 129.679688 M 67.8125 146.621094 L 67.855469 146.925781 L 67.988281 147.015625 L 68.425781 148.417969 L 68.03125 148.375 L 65.101562 148.59375 L 63.789062 149.078125 L 46.945312 149.734375 L 45.980469 149.605469 L 45.851562 149.605469 L 45.851562 149.558594 L 45.675781 149.078125 L 45.675781 149.03125 L 45.5 145.257812 C 45.324219 143.152344 45.0625 141.9375 44.710938 141.617188 L 66.195312 140.957031 L 67.855469 146.621094 L 67.8125 146.621094 M 101.542969 156.667969 L 101.105469 156.492188 C 100.667969 155.410156 100.011719 153.273438 99.136719 150.085938 C 98.085938 146.222656 97.5625 143.664062 97.5625 142.40625 C 97.5625 142.027344 97.664062 141.761719 97.867188 141.617188 L 98.21875 141.527344 L 100.625 140.957031 C 102.871094 140.488281 106.632812 139.453125 111.914062 137.84375 L 118.476562 135.734375 L 117.644531 137.273438 C 116.273438 140.050781 115.585938 142.171875 115.585938 143.636719 L 115.148438 153.816406 L 115.105469 153.816406 L 107.40625 155.878906 L 105.789062 156.140625 L 105.394531 156.097656 L 103.207031 156.492188 L 102.113281 156.625 L 101.71875 156.714844 L 101.542969 156.667969 M 68.164062 149.605469 L 68.164062 149.777344 C 68.660156 155.835938 69.402344 159.8125 70.394531 161.714844 L 70.042969 161.714844 L 60.375 162.988281 L 53.023438 164.304688 L 49.570312 164.742188 L 49.042969 164.964844 L 48.648438 164.832031 L 48.429688 164.742188 C 48.402344 163.28125 47.980469 160.648438 47.164062 156.84375 L 45.9375 151.578125 L 46.023438 151.09375 C 46.113281 150.921875 46.300781 150.832031 46.59375 150.832031 C 46.738281 150.832031 46.886719 150.90625 47.03125 151.050781 L 64.269531 150.21875 L 68.164062 149.605469 M 50.835938 178.65625 C 50.488281 178.332031 50.253906 177.632812 50.136719 176.550781 L 49.789062 172.949219 C 48.855469 171.164062 48.386719 169.234375 48.386719 167.15625 C 48.386719 166.746094 48.460938 166.457031 48.605469 166.28125 L 49.042969 166.105469 C 49.101562 166.105469 49.175781 166.148438 49.261719 166.234375 L 57.617188 165.140625 C 64.96875 164.171875 69.519531 163.414062 71.269531 162.855469 L 71.574219 162.988281 L 74.113281 168.957031 C 73.761719 169.191406 73.484375 170.1875 73.28125 171.941406 L 73.0625 175.230469 L 73.0625 175.277344 L 72.230469 175.230469 C 71.648438 175.230469 70.800781 175.394531 69.695312 175.714844 L 64.617188 176.636719 C 61.207031 176.839844 58.421875 177.222656 56.261719 177.777344 L 50.882812 178.65625 L 50.835938 178.65625 M 104.300781 173.257812 C 103.191406 169.484375 102.636719 167.085938 102.636719 166.058594 L 102.636719 162.242188 C 101.703125 160.105469 101.238281 158.847656 101.238281 158.46875 C 102.8125 158.4375 104.082031 158.203125 105.042969 157.765625 L 105.613281 157.503906 L 108.585938 156.976562 L 114.667969 155.527344 L 114.539062 156.40625 C 114.449219 158.191406 114.171875 159.449219 113.707031 160.179688 C 113.121094 161.058594 112.144531 161.980469 110.773438 162.945312 C 110.015625 163.472656 109.636719 164.566406 109.636719 166.234375 C 109.636719 167.816406 110.015625 168.867188 110.773438 169.394531 C 111.328125 169.746094 111.648438 170.300781 111.738281 171.0625 L 104.300781 173.257812 "/>
</g>
</svg>
