<?xml version="1.0" encoding="UTF-8"?>
<svg xmlns="http://www.w3.org/2000/svg" xmlns:xlink="http://www.w3.org/1999/xlink" width="97px" height="214px" viewBox="0 0 97 214" version="1.1">
<g id="surface1">
<path style=" stroke:none;fill-rule:evenodd;fill:rgb(0%,0%,0%);fill-opacity:1;" d="M 39.605469 55.492188 L 39.671875 55.800781 L 39.355469 55.617188 L 39.605469 55.492188 L 39.355469 55.617188 L 39.292969 55.371094 L 39.417969 55 L 39.542969 54.816406 L 39.542969 54.9375 L 39.605469 55.492188 M 46.355469 56.292969 L 46.292969 55.617188 L 46.480469 55.984375 L 46.355469 56.355469 L 46.355469 56.292969 "/>
<path style="fill:none;stroke-width:1;stroke-linecap:round;stroke-linejoin:round;stroke:rgb(0%,0%,0%);stroke-opacity:1;stroke-miterlimit:4;" d="M 2.450303 -1.999293 L 0.951446 -2.798633 L -1.098642 -2.798633 L -1.851167 -2.64955 L -2.851437 -2.100797 L -3.049633 -1.999293 C -3.250926 0.300396 -4.049903 2.298747 -5.449661 3.998931 C -7.050712 5.933842 -9.017187 6.901297 -11.349085 6.901297 C -13.650016 6.901297 -15.61649 5.933842 -17.24851 3.998931 C -18.849561 2.0323 -19.648538 -0.349861 -19.648538 -3.150724 C -19.648538 -5.916695 -18.849561 -8.282995 -17.24851 -10.249626 C -15.61649 -12.216257 -13.650016 -13.199572 -11.349085 -13.199572 C -9.017187 -13.199572 -7.050712 -12.216257 -5.449661 -10.249626 C -3.817642 -8.282995 -3.000084 -5.900835 -3.000084 -3.099972 L -3.000084 -2.500467 M 27.899893 -2.199128 L 23.849264 -2.199128 C 23.651068 0.367008 22.616734 2.600085 20.749357 4.500104 L 19.798636 5.350196 L 17.29951 6.850545 C 16.032914 7.348547 14.667221 7.618166 13.199332 7.649886 C 10.266653 7.618166 7.767527 6.568239 5.698857 4.500104 C 3.59922 2.40025 2.549401 -0.115134 2.549401 -3.04922 C 2.549401 -5.948414 3.59922 -8.451111 5.698857 -10.550965 C 7.767527 -12.650819 10.266653 -13.684886 13.199332 -13.649994 C 16.132012 -13.684886 18.649719 -12.650819 20.749357 -10.550965 C 22.818026 -8.451111 23.849264 -5.932554 23.849264 -2.998468 L 23.849264 -2.199128 " transform="matrix(1.261378,0,0,1.231484,43.20221,58.079286)"/>
<path style="fill:none;stroke-width:1;stroke-linecap:round;stroke-linejoin:round;stroke:rgb(0%,0%,0%);stroke-opacity:1;stroke-miterlimit:4;" d="M 27.899893 -2.199128 L 27.899893 -3.099972 L 31.300191 -13.500911 L 31.300191 -13.900581 L 31.600581 -14.398583 M -20.150221 -4.099147 L -20.800551 -4.400486 L -21.401333 -4.850908 L -21.54998 -5.599496 L -22.550249 -7.401184 " transform="matrix(1.261378,0,0,1.231484,43.20221,58.079286)"/>
<path style=" stroke:none;fill-rule:evenodd;fill:rgb(100%,100%,100%);fill-opacity:0.639216;" d="M 58.210938 42.378906 L 58.210938 42.4375 L 58.210938 42.378906 M 59.03125 41.761719 L 59.664062 41.699219 L 60.230469 41.886719 L 60.292969 41.945312 L 60.734375 41.699219 C 61.070312 41.699219 61.238281 41.84375 61.238281 42.132812 L 60.796875 42.6875 L 60.796875 42.992188 L 56.761719 54.015625 C 54.617188 60.992188 53.273438 64.484375 52.726562 64.484375 L 52.347656 64.484375 C 52.136719 64.484375 51.988281 64.421875 51.90625 64.296875 L 51.652344 64.050781 L 51.652344 63.929688 C 51.023438 63.476562 50.011719 62.449219 48.625 60.851562 C 47.574219 59.660156 47.050781 58.59375 47.050781 57.648438 L 47.300781 56.664062 L 47.050781 54.753906 C 47.257812 51.921875 47.554688 50.011719 47.933594 49.027344 L 47.933594 48.90625 L 48.058594 48.78125 L 48.5 48.226562 C 51.105469 44.984375 53.230469 43.179688 54.871094 42.808594 C 55.835938 41.90625 56.929688 41.453125 58.148438 41.453125 L 59.03125 41.761719 M 28.886719 41.824219 C 31.828125 41.824219 34.308594 43.035156 36.328125 45.457031 C 38.386719 47.878906 39.417969 50.8125 39.417969 54.261719 L 39.417969 55 L 39.292969 55.371094 L 39.355469 55.617188 C 39.101562 58.449219 38.09375 60.910156 36.328125 63.003906 C 34.308594 65.386719 31.828125 66.578125 28.886719 66.578125 C 25.984375 66.578125 23.503906 65.386719 21.445312 63.003906 C 19.425781 60.582031 18.417969 57.648438 18.417969 54.199219 C 18.417969 50.792969 19.425781 47.878906 21.445312 45.457031 C 23.503906 43.035156 25.984375 41.824219 28.886719 41.824219 "/>
</g>
</svg>
