<?xml version="1.0" encoding="UTF-8"?>
<svg xmlns="http://www.w3.org/2000/svg" xmlns:xlink="http://www.w3.org/1999/xlink" width="97px" height="214px" viewBox="0 0 97 214" version="1.1">
<g id="surface1">
<path style=" stroke:none;fill-rule:evenodd;fill:rgb(0%,0%,0%);fill-opacity:1;" d="M 87.539062 38.804688 C 88.589844 38.804688 89.136719 39.605469 89.179688 41.207031 C 89.179688 41.863281 88.757812 42.191406 87.917969 42.191406 C 86.78125 42.191406 86.214844 41.617188 86.214844 40.46875 C 86.214844 39.359375 86.65625 38.804688 87.539062 38.804688 M 83.882812 40.652344 C 84.976562 40.652344 85.375 41.578125 85.078125 43.425781 C 84.28125 50.8125 82.957031 54.507812 81.105469 54.507812 L 80.285156 54.386719 L 80.222656 54.199219 L 80.097656 54.136719 L 80.097656 53.769531 C 81.78125 48.351562 82.726562 44 82.9375 40.714844 L 83.3125 40.652344 L 83.503906 40.714844 L 83.882812 40.652344 M 87.539062 41.394531 C 87.917969 41.394531 88.210938 41.289062 88.421875 41.085938 L 87.664062 39.605469 C 87.289062 39.605469 87.097656 39.894531 87.097656 40.46875 L 87.539062 41.394531 M 88.992188 44.226562 C 88.820312 43.816406 88.445312 43.609375 87.855469 43.609375 L 87.539062 43.980469 L 87.476562 44.039062 C 87.855469 44.285156 88.171875 44.410156 88.421875 44.410156 L 88.800781 44.410156 L 88.992188 44.226562 M 88.296875 46.996094 L 88.042969 46.996094 C 87.664062 46.996094 87.222656 47.160156 86.71875 47.488281 C 86.886719 47.652344 87.078125 47.734375 87.289062 47.734375 C 88.042969 47.734375 88.421875 47.613281 88.421875 47.367188 L 88.296875 46.996094 M 88.421875 45.332031 C 87.625 45.332031 87.015625 45.148438 86.59375 44.777344 C 86.339844 44.53125 86.214844 44.328125 86.214844 44.164062 C 86.214844 43.710938 86.78125 43.117188 87.917969 42.378906 C 88.925781 42.378906 89.664062 42.992188 90.125 44.226562 C 90.125 44.964844 89.558594 45.332031 88.421875 45.332031 M 85.964844 50.257812 L 86.71875 50.691406 L 87.289062 50.503906 L 86.214844 49.953125 L 85.964844 50.257812 M 86.53125 49.152344 C 87.328125 49.152344 88.023438 49.664062 88.613281 50.691406 C 88.613281 51.265625 87.960938 51.550781 86.65625 51.550781 C 86.027344 51.550781 85.542969 51.347656 85.207031 50.9375 L 84.890625 50.257812 C 84.890625 49.519531 85.4375 49.152344 86.53125 49.152344 M 85.773438 47.488281 C 85.773438 46.421875 86.425781 45.886719 87.730469 45.886719 C 88.863281 45.886719 89.433594 46.421875 89.433594 47.488281 C 89.433594 48.226562 88.675781 48.597656 87.160156 48.597656 C 86.363281 48.597656 85.898438 48.414062 85.773438 48.042969 L 85.773438 47.488281 M 84.261719 43.300781 C 84.261719 42.355469 84.09375 41.742188 83.753906 41.453125 L 81.167969 53.398438 C 82.222656 52.457031 82.9375 50.9375 83.3125 48.84375 L 84.261719 43.300781 M 85.207031 53.398438 L 85.078125 53.832031 L 85.773438 54.570312 L 86.214844 53.832031 L 85.207031 53.398438 M 87.289062 54.136719 L 86.65625 55 C 86.234375 55.328125 85.921875 55.492188 85.710938 55.492188 L 84.070312 53.832031 L 85.394531 52.539062 C 86.574219 52.539062 87.203125 53.070312 87.289062 54.136719 M 82.746094 56.417969 C 82.746094 55.925781 83.207031 55.679688 84.132812 55.679688 C 85.226562 55.679688 85.710938 56.109375 85.585938 56.972656 C 85.585938 57.75 85.164062 58.140625 84.324219 58.140625 C 83.859375 58.140625 83.460938 57.875 83.125 57.339844 C 82.871094 56.929688 82.746094 56.621094 82.746094 56.417969 M 84.261719 57.339844 L 84.703125 57.09375 L 84.132812 56.539062 C 84.007812 56.375 83.945312 56.457031 83.945312 56.785156 L 84.261719 57.339844 M 79.910156 63.621094 L 80.855469 63.621094 L 80.855469 59.1875 L 79.71875 61.773438 L 79.71875 63.496094 L 79.910156 63.621094 M 80.855469 58.140625 C 81.652344 58.140625 81.96875 59.230469 81.800781 61.402344 C 81.800781 63.496094 81.335938 64.542969 80.414062 64.542969 C 79.320312 64.542969 78.773438 64.238281 78.773438 63.621094 L 79.152344 60.789062 C 79.570312 59.023438 80.140625 58.140625 80.855469 58.140625 M 45.285156 61.773438 L 43.011719 61.589844 C 43.390625 61.875 43.707031 62.019531 43.960938 62.019531 L 45.09375 61.835938 L 45.285156 61.773438 M 44.96875 65.097656 L 45.285156 64.542969 L 43.769531 64.421875 L 43.390625 64.730469 L 43.582031 65.285156 L 44.96875 65.097656 M 46.039062 64.789062 L 45.851562 65.835938 L 43.328125 66.207031 C 42.359375 66.207031 41.941406 66.023438 42.066406 65.652344 L 42.632812 64.542969 C 43.140625 63.929688 43.707031 63.621094 44.335938 63.621094 C 45.851562 63.621094 46.417969 64.011719 46.039062 64.789062 M 44.023438 62.882812 C 42.71875 62.882812 42.066406 62.449219 42.066406 61.589844 C 42.066406 60.851562 42.402344 60.480469 43.074219 60.480469 C 45.304688 60.480469 46.417969 60.871094 46.417969 61.652344 C 46.417969 62.472656 45.621094 62.882812 44.023438 62.882812 M 46.039062 59.003906 C 46.039062 59.742188 45.011719 60.109375 42.949219 60.109375 C 42.066406 60.109375 41.625 59.761719 41.625 59.066406 C 41.625 58.121094 42.191406 57.648438 43.328125 57.648438 C 45.136719 57.648438 46.039062 58.101562 46.039062 59.003906 M 42.570312 59.1875 L 43.140625 59.25 L 44.90625 58.816406 L 42.824219 58.449219 L 42.570312 59.1875 M 38.660156 58.449219 C 38.535156 58.203125 38.324219 58.101562 38.03125 58.140625 L 37.90625 58.632812 L 38.09375 59.066406 L 38.660156 59.003906 L 38.660156 58.449219 M 37.148438 60.109375 L 37.148438 58.878906 C 36.9375 57.8125 37.210938 57.277344 37.96875 57.277344 C 39.3125 57.277344 39.839844 57.730469 39.542969 58.632812 C 39.542969 59.617188 38.976562 60.109375 37.839844 60.109375 L 37.148438 60.109375 M 37.96875 60.851562 C 38.304688 60.851562 38.515625 61.117188 38.597656 61.652344 L 38.597656 62.511719 C 38.597656 63.292969 38.28125 63.683594 37.652344 63.683594 C 37.359375 63.683594 37.019531 63.496094 36.644531 63.128906 L 36.203125 62.511719 L 36.832031 61.589844 C 37.292969 61.097656 37.671875 60.851562 37.96875 60.851562 M 38.472656 64.421875 L 38.851562 66.207031 C 38.851562 66.824219 38.410156 67.128906 37.527344 67.128906 C 36.476562 67.128906 35.949219 66.617188 35.949219 65.589844 C 35.949219 64.769531 36.515625 64.359375 37.652344 64.359375 L 38.472656 64.421875 M 36.957031 65.652344 L 37.714844 66.269531 L 37.714844 65.097656 L 36.957031 65.652344 M 37.464844 62.511719 L 37.527344 62.757812 L 37.714844 62.757812 L 37.714844 62.203125 L 37.464844 62.511719 "/>
<path style=" stroke:none;fill-rule:evenodd;fill:rgb(80.000001%,80.000001%,80.000001%);fill-opacity:1;" d="M 88.296875 46.996094 L 88.421875 47.367188 C 88.421875 47.613281 88.042969 47.734375 87.289062 47.734375 C 87.078125 47.734375 86.886719 47.652344 86.71875 47.488281 C 87.222656 47.160156 87.664062 46.996094 88.042969 46.996094 L 88.296875 46.996094 M 88.992188 44.226562 L 88.800781 44.410156 L 88.421875 44.410156 C 88.171875 44.410156 87.855469 44.285156 87.476562 44.039062 L 87.539062 43.980469 L 87.855469 43.609375 C 88.445312 43.609375 88.820312 43.816406 88.992188 44.226562 M 87.539062 41.394531 L 87.097656 40.46875 C 87.097656 39.894531 87.289062 39.605469 87.664062 39.605469 L 88.421875 41.085938 C 88.210938 41.289062 87.917969 41.394531 87.539062 41.394531 M 85.964844 50.257812 L 86.214844 49.953125 L 87.289062 50.503906 L 86.71875 50.691406 L 85.964844 50.257812 M 85.207031 53.398438 L 86.214844 53.832031 L 85.773438 54.570312 L 85.078125 53.832031 L 85.207031 53.398438 M 84.261719 43.300781 L 83.3125 48.84375 C 82.9375 50.9375 82.222656 52.457031 81.167969 53.398438 L 83.753906 41.453125 C 84.09375 41.742188 84.261719 42.355469 84.261719 43.300781 M 79.910156 63.621094 L 79.71875 63.496094 L 79.71875 61.773438 L 80.855469 59.1875 L 80.855469 63.621094 L 79.910156 63.621094 M 84.261719 57.339844 L 83.945312 56.785156 C 83.945312 56.457031 84.007812 56.375 84.132812 56.539062 L 84.703125 57.09375 L 84.261719 57.339844 M 44.96875 65.097656 L 43.582031 65.285156 L 43.390625 64.730469 L 43.769531 64.421875 L 45.285156 64.542969 L 44.96875 65.097656 M 45.285156 61.773438 L 45.09375 61.835938 L 43.960938 62.019531 C 43.707031 62.019531 43.390625 61.875 43.011719 61.589844 L 45.285156 61.773438 M 38.660156 58.449219 L 38.660156 59.003906 L 38.09375 59.066406 L 37.90625 58.632812 L 38.03125 58.140625 C 38.324219 58.101562 38.535156 58.203125 38.660156 58.449219 M 42.570312 59.1875 L 42.824219 58.449219 L 44.90625 58.816406 L 43.140625 59.25 L 42.570312 59.1875 M 37.464844 62.511719 L 37.714844 62.203125 L 37.714844 62.757812 L 37.527344 62.757812 L 37.464844 62.511719 M 36.957031 65.652344 L 37.714844 65.097656 L 37.714844 66.269531 L 36.957031 65.652344 "/>
</g>
</svg>
