<?xml version="1.0" encoding="UTF-8"?>
<svg xmlns="http://www.w3.org/2000/svg" xmlns:xlink="http://www.w3.org/1999/xlink" width="97px" height="214px" viewBox="0 0 97 214" version="1.1">
<g id="surface1">
<path style=" stroke:none;fill-rule:evenodd;fill:rgb(0%,0%,0%);fill-opacity:1;" d="M 50.832031 79.9375 L 49.382812 83.941406 L 48.246094 88.433594 C 47.574219 90.324219 46.691406 91.269531 45.597656 91.269531 C 44.042969 91.269531 43.476562 90.363281 43.894531 88.558594 C 43.894531 87.082031 44.632812 84.351562 46.101562 80.371094 C 47.574219 76.347656 48.625 74.335938 49.257812 74.335938 C 50.726562 74.335938 51.464844 75.03125 51.464844 76.429688 C 51.464844 77.535156 51.253906 78.707031 50.832031 79.9375 M 45.597656 87.574219 L 46.988281 87.820312 L 48.625 83.449219 C 50.011719 79.710938 50.707031 77.351562 50.707031 76.367188 C 50.707031 75.75 50.246094 75.441406 49.320312 75.441406 C 48.816406 75.441406 47.890625 77.597656 46.542969 81.910156 L 44.90625 87.636719 L 45.597656 87.574219 M 44.777344 88.003906 L 44.652344 88.375 C 44.652344 89.523438 44.945312 90.179688 45.535156 90.34375 L 46.542969 88.804688 C 46.25 88.105469 45.808594 87.800781 45.21875 87.882812 L 44.777344 88.003906 "/>
<path style=" stroke:none;fill-rule:evenodd;fill:rgb(100%,100%,100%);fill-opacity:1;" d="M 45.597656 87.574219 L 44.90625 87.636719 L 46.542969 81.910156 C 47.890625 77.597656 48.816406 75.441406 49.320312 75.441406 C 50.246094 75.441406 50.707031 75.75 50.707031 76.367188 C 50.707031 77.351562 50.011719 79.710938 48.625 83.449219 L 46.988281 87.820312 L 45.597656 87.574219 "/>
<path style=" stroke:none;fill-rule:evenodd;fill:rgb(60.000002%,0%,0%);fill-opacity:1;" d="M 44.777344 88.003906 L 45.21875 87.882812 C 45.808594 87.800781 46.25 88.105469 46.542969 88.804688 L 45.535156 90.34375 C 44.945312 90.179688 44.652344 89.523438 44.652344 88.375 L 44.777344 88.003906 "/>
</g>
</svg>
