<?xml version="1.0" encoding="UTF-8"?>
<svg xmlns="http://www.w3.org/2000/svg" xmlns:xlink="http://www.w3.org/1999/xlink" width="97px" height="214px" viewBox="0 0 97 214" version="1.1">
<g id="surface1">
<path style=" stroke:none;fill-rule:evenodd;fill:rgb(0%,0%,0%);fill-opacity:1;" d="M 85.078125 58.878906 L 78.773438 67.746094 C 77.386719 69.757812 75.492188 72.035156 73.097656 74.582031 L 73.160156 76.058594 L 73.097656 77.722656 L 72.84375 77.96875 L 70.828125 93.730469 L 70.953125 95.269531 L 72.71875 97.054688 C 72.886719 97.382812 72.699219 97.570312 72.152344 97.609375 C 71.605469 98.429688 69.773438 99.191406 66.664062 99.886719 L 63.824219 101.121094 C 64.035156 101.324219 63.761719 101.488281 63.003906 101.613281 L 51.90625 102.042969 L 40.554688 101.859375 L 38.03125 101.304688 C 37.148438 101.304688 36.160156 100.933594 35.066406 100.195312 C 33.214844 99.128906 32.207031 98.371094 32.039062 97.917969 L 31.976562 97.855469 L 31.976562 97.792969 C 32.019531 97.507812 32.417969 97.21875 33.175781 96.933594 C 33.929688 96.605469 34.308594 96.089844 34.308594 95.394531 L 34.308594 92.992188 L 34.6875 88.1875 L 34.121094 82.277344 L 34.121094 81.96875 C 30.628906 79.792969 28.589844 78.214844 28.003906 77.230469 L 23.523438 72.917969 C 21.171875 70.949219 19.699219 69.46875 19.109375 68.484375 L 18.921875 68.484375 L 18.859375 68.300781 C 18.226562 67.683594 17.679688 66.453125 17.21875 64.605469 C 17.089844 64.238281 17.113281 63.96875 17.28125 63.804688 L 17.21875 63.496094 C 17.21875 62.882812 18.246094 62.574219 20.308594 62.574219 L 24.28125 62.882812 C 27.644531 62.882812 30.945312 62.019531 34.183594 60.296875 L 34.75 60.109375 L 37.335938 59.125 C 40.867188 57.769531 43.117188 57.09375 44.085938 57.09375 C 47.574219 57.09375 50.9375 58.078125 54.175781 60.050781 C 55.898438 60.625 59.769531 61.363281 65.78125 62.265625 L 68.554688 62.265625 L 68.808594 62.328125 L 69.878906 62.265625 L 73.855469 62.390625 L 80.222656 60.480469 L 84.132812 57.894531 C 84.511719 57.894531 84.765625 57.996094 84.890625 58.203125 C 85.101562 58.285156 85.164062 58.511719 85.078125 58.878906 M 81.800781 61.34375 L 82.496094 60.417969 L 81.484375 61.28125 L 79.59375 61.773438 C 79.636719 61.402344 79.425781 61.21875 78.960938 61.21875 L 78.457031 61.957031 L 78.898438 62.203125 L 77.953125 62.757812 L 74.421875 63.4375 L 74.359375 63.496094 L 70.953125 63.375 L 69.878906 63.683594 L 68.367188 63.683594 L 63.132812 63.558594 L 59.726562 62.945312 L 53.609375 61.464844 L 53.230469 61.15625 L 53.167969 61.097656 L 53.039062 61.035156 L 49.570312 59.496094 C 48.480469 59.085938 46.816406 58.777344 44.589844 58.570312 L 45.03125 58.878906 L 44.589844 58.816406 L 43.140625 58.878906 L 43.074219 58.816406 L 42.949219 58.878906 C 40.46875 58.960938 38.828125 59.351562 38.03125 60.050781 C 36.8125 60.5 35.90625 60.953125 35.320312 61.402344 L 34.75 61.773438 C 31.933594 62.636719 30.1875 63.273438 29.515625 63.683594 L 21.632812 63.804688 L 21.378906 63.496094 L 21.066406 63.558594 L 21.066406 63.804688 L 19.300781 63.867188 L 18.792969 63.992188 L 18.480469 64.050781 L 19.867188 67.191406 L 20.117188 67.191406 L 20.9375 68.363281 L 20.75 68.363281 L 24.597656 72.363281 L 28.824219 76.304688 L 38.15625 82.769531 L 38.789062 83.203125 L 39.734375 83.878906 L 39.984375 84.0625 L 43.011719 86.21875 C 45.117188 87.449219 46.292969 88.558594 46.542969 89.542969 L 52.15625 87.449219 L 59.03125 84.0625 C 64.289062 80.410156 68.074219 77.535156 70.386719 75.441406 C 72.023438 73.84375 73.179688 72.40625 73.855469 71.132812 L 76.441406 68.976562 C 76.859375 68.609375 77.28125 67.871094 77.699219 66.761719 C 79.339844 64.503906 80.707031 62.699219 81.800781 61.34375 M 56.195312 100.875 L 56.507812 101.304688 L 57.015625 101.121094 L 57.140625 100.875 L 60.671875 100.75 L 62.5 100.378906 L 63.449219 99.886719 L 66.097656 98.71875 L 70.636719 96.996094 C 70.386719 96.664062 70.195312 96.253906 70.070312 95.761719 L 69.878906 93.792969 C 70.34375 84.964844 71.101562 78.992188 72.152344 75.875 L 72.214844 75.441406 L 71.203125 76.429688 C 67.503906 80 62.921875 83.304688 57.457031 86.34375 C 52.453125 89.132812 48.816406 90.570312 46.542969 90.652344 C 45.789062 89.542969 45.09375 88.988281 44.464844 88.988281 L 44.335938 88.988281 C 41.101562 86.363281 38.621094 84.554688 36.894531 83.570312 L 35.253906 82.585938 L 35.632812 84.988281 L 35.824219 88.3125 L 35.824219 88.867188 L 35.632812 88.929688 L 35.632812 89.296875 L 35.824219 89.421875 L 35.382812 93.730469 L 35.253906 96.378906 C 35.003906 97.199219 34.457031 97.792969 33.617188 98.164062 C 36.644531 100.050781 39.753906 100.996094 42.949219 100.996094 L 56.195312 100.875 M 26.171875 63.25 L 26.238281 63.25 L 26.238281 63.191406 L 26.171875 63.25 "/>
<path style=" stroke:none;fill-rule:evenodd;fill:rgb(0%,0%,20%);fill-opacity:1;" d="M 81.484375 61.28125 L 82.496094 60.417969 L 81.800781 61.34375 L 81.484375 61.28125 "/>
<path style=" stroke:none;fill-rule:evenodd;fill:rgb(0%,0%,40.000001%);fill-opacity:1;" d="M 39.984375 84.0625 L 39.734375 83.878906 L 40.113281 84.003906 L 39.984375 84.0625 M 38.789062 83.203125 L 38.15625 82.769531 L 38.28125 82.769531 L 38.789062 83.203125 "/>
<path style=" stroke:none;fill-rule:evenodd;fill:rgb(16.078432%,19.215687%,26.666668%);fill-opacity:1;" d="M 21.632812 63.804688 L 29.515625 63.683594 C 30.1875 63.273438 31.933594 62.636719 34.75 61.773438 L 35.320312 61.402344 C 35.90625 60.953125 36.8125 60.5 38.03125 60.050781 C 38.828125 59.351562 40.46875 58.960938 42.949219 58.878906 L 43.074219 58.816406 L 43.140625 58.878906 L 44.589844 58.816406 L 45.03125 58.878906 L 44.589844 58.570312 C 46.816406 58.777344 48.480469 59.085938 49.570312 59.496094 L 53.039062 61.035156 L 53.167969 61.097656 L 53.230469 61.15625 L 53.609375 61.464844 L 59.726562 62.945312 L 63.132812 63.558594 L 68.367188 63.683594 L 69.878906 63.683594 L 70.953125 63.375 L 74.359375 63.496094 L 74.421875 63.4375 L 77.953125 62.757812 L 75.933594 65.714844 L 73.980469 68.054688 C 70.195312 70.886719 67.421875 73.144531 65.65625 74.828125 C 63.761719 76.59375 60.609375 78.707031 56.195312 81.167969 L 47.492188 87.328125 C 47.070312 87.328125 44.757812 85.726562 40.554688 82.523438 L 40.238281 82.585938 C 39.1875 81.355469 36.410156 79.097656 31.914062 75.8125 L 27.875 71.503906 L 25.226562 68.792969 C 24.21875 66.824219 23.019531 65.160156 21.632812 63.804688 M 35.824219 89.421875 C 42.886719 94.183594 47.597656 96.5625 49.949219 96.5625 C 52.347656 96.5625 55.332031 95.394531 58.90625 93.054688 L 56.066406 100.378906 L 56.195312 100.875 L 42.949219 100.996094 C 39.753906 100.996094 36.644531 100.050781 33.617188 98.164062 C 34.457031 97.792969 35.003906 97.199219 35.253906 96.378906 L 35.382812 93.730469 L 35.824219 89.421875 M 45.535156 59.125 C 45.074219 59.125 44.84375 59.679688 44.84375 60.789062 L 45.09375 64.484375 C 45.09375 65.878906 44.441406 67.046875 43.140625 67.992188 C 41.835938 68.9375 41.183594 69.574219 41.183594 69.902344 C 41.183594 71.871094 42.382812 72.855469 44.777344 72.855469 C 46.375 72.855469 47.175781 71.644531 47.175781 69.222656 C 47.175781 62.492188 46.628906 59.125 45.535156 59.125 "/>
<path style=" stroke:none;fill-rule:evenodd;fill:rgb(7.450981%,10.588235%,15.686275%);fill-opacity:1;" d="M 81.484375 61.28125 L 81.800781 61.34375 C 80.707031 62.699219 79.339844 64.503906 77.699219 66.761719 C 77.28125 67.871094 76.859375 68.609375 76.441406 68.976562 L 73.855469 71.132812 C 73.179688 72.40625 72.023438 73.84375 70.386719 75.441406 C 68.074219 77.535156 64.289062 80.410156 59.03125 84.0625 L 52.15625 87.449219 L 46.542969 89.542969 C 46.292969 88.558594 45.117188 87.449219 43.011719 86.21875 L 39.984375 84.0625 L 40.113281 84.003906 L 39.734375 83.878906 L 38.789062 83.203125 L 38.28125 82.769531 L 38.15625 82.769531 L 28.824219 76.304688 L 24.597656 72.363281 L 20.75 68.363281 L 20.9375 68.363281 L 20.117188 67.191406 L 19.867188 67.191406 L 18.480469 64.050781 L 18.792969 63.992188 L 19.300781 63.867188 L 21.066406 63.804688 L 21.066406 63.558594 L 21.378906 63.496094 L 21.632812 63.804688 C 23.019531 65.160156 24.21875 66.824219 25.226562 68.792969 L 27.875 71.503906 L 31.914062 75.8125 C 36.410156 79.097656 39.1875 81.355469 40.238281 82.585938 L 40.554688 82.523438 C 44.757812 85.726562 47.070312 87.328125 47.492188 87.328125 L 56.195312 81.167969 C 60.609375 78.707031 63.761719 76.59375 65.65625 74.828125 C 67.421875 73.144531 70.195312 70.886719 73.980469 68.054688 L 75.933594 65.714844 L 77.953125 62.757812 L 78.898438 62.203125 L 78.457031 61.957031 L 78.960938 61.21875 C 79.425781 61.21875 79.636719 61.402344 79.59375 61.773438 L 81.484375 61.28125 M 35.824219 89.421875 L 35.632812 89.296875 L 35.632812 88.929688 L 35.824219 88.867188 L 35.824219 88.3125 L 35.632812 84.988281 L 35.253906 82.585938 L 36.894531 83.570312 C 38.621094 84.554688 41.101562 86.363281 44.335938 88.988281 L 44.464844 88.988281 C 45.09375 88.988281 45.789062 89.542969 46.542969 90.652344 C 48.816406 90.570312 52.453125 89.132812 57.457031 86.34375 C 62.921875 83.304688 67.503906 80 71.203125 76.429688 L 72.214844 75.441406 L 72.152344 75.875 C 71.101562 78.992188 70.34375 84.964844 69.878906 93.792969 L 70.070312 95.761719 C 70.195312 96.253906 70.386719 96.664062 70.636719 96.996094 L 66.097656 98.71875 L 63.449219 99.886719 L 62.5 100.378906 L 60.671875 100.75 L 57.140625 100.875 L 57.015625 101.121094 L 56.507812 101.304688 L 56.195312 100.875 L 56.066406 100.378906 L 58.90625 93.054688 C 55.332031 95.394531 52.347656 96.5625 49.949219 96.5625 C 47.597656 96.5625 42.886719 94.183594 35.824219 89.421875 M 58.90625 93.054688 L 58.90625 92.992188 L 58.90625 93.054688 M 45.535156 59.125 C 46.628906 59.125 47.175781 62.492188 47.175781 69.222656 C 47.175781 71.644531 46.375 72.855469 44.777344 72.855469 C 42.382812 72.855469 41.183594 71.871094 41.183594 69.902344 C 41.183594 69.574219 41.835938 68.9375 43.140625 67.992188 C 44.441406 67.046875 45.09375 65.878906 45.09375 64.484375 L 44.84375 60.789062 C 44.84375 59.679688 45.074219 59.125 45.535156 59.125 "/>
</g>
</svg>
