<?xml version="1.0" encoding="UTF-8"?>
<svg xmlns="http://www.w3.org/2000/svg" xmlns:xlink="http://www.w3.org/1999/xlink" width="97px" height="214px" viewBox="0 0 97 214" version="1.1">
<g id="surface1">
<path style=" stroke:none;fill-rule:evenodd;fill:rgb(0%,0%,0%);fill-opacity:1;" d="M 13.117188 45.640625 L 13.054688 45.519531 L 13.433594 44.964844 L 13.6875 44.902344 L 13.8125 44.902344 L 18.226562 46.566406 L 18.605469 46.195312 L 19.109375 46.933594 L 19.613281 47.117188 L 19.300781 47.613281 L 19.742188 50.503906 L 20.433594 57.15625 C 20.8125 59.535156 21.820312 62.921875 23.460938 67.316406 L 26.742188 66.945312 L 29.707031 66.023438 L 35.128906 63.867188 C 38.242188 59.84375 40.933594 57.832031 43.203125 57.832031 C 43.875 57.832031 44.167969 58.019531 44.085938 58.386719 L 44.023438 58.511719 C 45.03125 59.042969 46.902344 60.378906 49.636719 62.511719 C 53.378906 65.386719 56.574219 66.824219 59.222656 66.824219 C 63.761719 66.824219 68.554688 65.46875 73.601562 62.757812 L 80.222656 60.789062 L 84.132812 58.203125 C 84.511719 58.203125 84.765625 58.304688 84.890625 58.511719 C 85.101562 58.59375 85.164062 58.816406 85.078125 59.1875 L 78.773438 68.054688 C 77.425781 70.023438 75.578125 72.242188 73.222656 74.703125 L 73.160156 75.441406 C 73.160156 77.003906 72.445312 82.011719 71.015625 90.46875 L 71.015625 90.960938 C 71.4375 90.714844 72.152344 90.589844 73.160156 90.589844 C 74.296875 90.589844 75.15625 90.980469 75.746094 91.761719 L 76.566406 93.359375 L 79.402344 95.949219 L 79.402344 95.824219 L 80.160156 95.761719 C 80.496094 95.761719 82.304688 96.746094 85.585938 98.71875 C 87.476562 99.582031 88.421875 100.585938 88.421875 101.734375 L 88.171875 103.273438 L 95.800781 111.21875 L 95.800781 111.648438 C 96.433594 111.648438 96.832031 113.332031 97 116.699219 L 96.9375 118.667969 C 96.980469 118.792969 96.851562 118.851562 96.558594 118.851562 C 94.667969 117.703125 93.320312 116.921875 92.523438 116.511719 C 91.09375 118.15625 90.417969 119.675781 90.503906 121.070312 C 90.589844 122.425781 89.851562 123.921875 88.296875 125.566406 L 86.152344 128.089844 C 86.066406 128.703125 85.753906 129.074219 85.207031 129.199219 L 80.414062 129.691406 L 76.1875 129.445312 C 74.128906 129.445312 72.359375 130.058594 70.890625 131.292969 C 70.214844 131.867188 68.996094 133.261719 67.230469 135.476562 C 64.035156 139.460938 60.042969 141.449219 55.25 141.449219 C 50.664062 141.449219 46.671875 140.855469 43.265625 139.664062 C 39.144531 137.898438 35.277344 136.464844 31.660156 135.355469 L 19.742188 132.152344 L 18.730469 131.660156 C 18.480469 132.195312 17.679688 132.953125 16.335938 133.9375 L 12.488281 136.585938 L 12.296875 136.585938 L 11.792969 136.769531 L 11.605469 136.585938 L 11.480469 136.464844 L 11.351562 136.15625 L 11.414062 136.09375 L 11.414062 136.03125 L 12.109375 135.417969 C 13.035156 134.308594 13.496094 133.363281 13.496094 132.585938 C 13.496094 131.394531 13.285156 130.738281 12.867188 130.613281 L 5.738281 130.304688 L 5.613281 130.304688 L 5.550781 130.492188 L 5.171875 130.675781 C 3.65625 126.40625 2.902344 121.109375 2.902344 114.789062 L 3.027344 111.832031 L 2.523438 111.832031 C 0.671875 111.832031 -0.0859375 110.929688 0.253906 109.125 L 0.316406 109.125 L 0 108.507812 C 0 107.769531 1.535156 106.3125 4.605469 104.136719 C 7.800781 101.878906 10.195312 100.75 11.792969 100.75 C 12.929688 100.75 13.75 101.039062 14.253906 101.613281 C 15.179688 100.296875 15.746094 99.273438 15.957031 98.535156 C 16.460938 96.808594 17.953125 95.167969 20.433594 93.609375 C 22.789062 92.128906 24.953125 91.390625 26.929688 91.390625 L 28.445312 91.699219 L 29.578125 91.453125 L 32.542969 91.023438 L 34.5 91.515625 L 34.5 90.035156 L 34.4375 82.402344 C 30.734375 80.183594 28.589844 78.5625 28.003906 77.535156 L 23.523438 73.226562 C 21.171875 71.257812 19.699219 69.777344 19.109375 68.792969 L 18.921875 68.792969 L 18.921875 68.421875 L 18.730469 68.054688 L 18.730469 67.871094 L 18.289062 66.269531 C 17.574219 64.953125 17.195312 63.992188 17.15625 63.375 L 17.15625 62.328125 L 15.894531 59.1875 L 16.082031 58.695312 L 14.570312 53.523438 L 14.632812 52.476562 L 14.757812 52.414062 L 14.441406 51.246094 L 13.621094 47.796875 L 13.621094 47.671875 L 13.054688 45.886719 L 13.117188 45.640625 M 15.199219 47.859375 C 16.335938 48.882812 16.753906 49.871094 16.460938 50.8125 C 16.167969 52.046875 16.628906 54.054688 17.847656 56.847656 L 18.226562 59.679688 L 18.289062 60.109375 L 18.542969 61.34375 L 18.542969 62.019531 L 18.351562 62.390625 L 18.351562 62.820312 C 18.4375 63.929688 18.984375 65.488281 19.992188 67.5 L 21.949219 67.4375 C 21.066406 65.878906 20.183594 62.820312 19.300781 58.265625 C 18.457031 53.542969 18.039062 50.054688 18.039062 47.796875 L 18.039062 47.550781 L 15.832031 46.871094 L 14.378906 46.378906 L 15.199219 47.859375 M 78.394531 62.390625 L 74.421875 63.742188 C 68.789062 66.578125 64.308594 67.992188 60.988281 67.992188 C 57.078125 67.992188 54.050781 67.355469 51.90625 66.082031 L 49.320312 63.683594 C 48.058594 62.449219 45.976562 60.933594 43.074219 59.125 L 39.605469 61.28125 L 36.453125 64.484375 C 35.78125 65.179688 34.265625 65.960938 31.914062 66.824219 C 29.433594 67.765625 26.929688 68.339844 24.40625 68.546875 L 23.335938 68.609375 L 22.328125 68.609375 L 20.75 68.671875 L 24.597656 72.671875 L 28.824219 76.613281 L 29.707031 77.230469 L 29.769531 77.230469 L 34.183594 77.78125 L 36.390625 78.152344 L 50.832031 79.015625 L 62.121094 77.90625 L 64.898438 76.984375 C 66.285156 76.613281 68.515625 75.667969 71.582031 74.148438 L 71.898438 74.210938 L 73.855469 71.441406 L 76.441406 69.285156 C 76.859375 68.917969 77.28125 68.175781 77.699219 67.070312 L 82.496094 60.726562 L 81.484375 61.589844 L 79.59375 62.082031 C 79.636719 61.710938 79.425781 61.527344 78.960938 61.527344 L 78.394531 62.390625 M 36.074219 79.261719 L 35.761719 79.199219 L 31.597656 78.582031 L 38.15625 83.078125 L 38.789062 83.507812 L 39.734375 84.1875 L 39.984375 84.371094 L 43.011719 86.527344 C 45.117188 87.757812 46.292969 88.867188 46.542969 89.851562 L 52.15625 87.757812 L 59.03125 84.371094 L 68.492188 77.414062 L 67.734375 77.289062 C 67.398438 77.167969 67 77.3125 66.539062 77.722656 C 66.074219 78.132812 64.394531 78.582031 61.492188 79.074219 C 61.238281 79.445312 60.378906 79.734375 58.90625 79.9375 L 52.789062 80.183594 L 36.074219 79.261719 M 35.570312 86.773438 L 35.632812 90.035156 C 37.105469 91.433594 39.585938 92.375 43.074219 92.867188 L 51.210938 91.390625 C 52.261719 91.390625 53.691406 90.898438 55.5 89.914062 L 61.933594 86.894531 L 71.269531 81.355469 L 71.898438 76.058594 L 71.203125 76.734375 C 67.503906 80.308594 62.921875 83.613281 57.457031 86.648438 C 52.285156 89.523438 48.5625 90.960938 46.292969 90.960938 C 45.324219 90.960938 44.84375 90.773438 44.84375 90.40625 L 45.472656 90.222656 C 41.648438 87.058594 38.789062 84.945312 36.894531 83.878906 L 35.320312 82.957031 L 35.570312 86.773438 M 73.347656 129.011719 L 79.71875 128.335938 L 80.285156 128.644531 C 83.441406 128.644531 85.542969 128.070312 86.59375 126.917969 C 87.140625 125.566406 87.582031 124.722656 87.917969 124.394531 C 89.261719 123.121094 89.808594 121.664062 89.558594 120.023438 C 89.433594 118.628906 90.25 117.027344 92.015625 115.21875 C 93.824219 113.332031 94.730469 112.058594 94.730469 111.402344 C 94.730469 110.867188 93.804688 109.679688 91.953125 107.832031 L 91.199219 107.09375 L 90.25 106.230469 L 88.171875 104.445312 L 87.792969 105.554688 L 87.855469 105.738281 L 87.792969 105.613281 L 87.539062 106.105469 L 87.539062 106.539062 L 86.972656 109.988281 L 85.394531 115.035156 C 84.890625 116.226562 84.261719 117.128906 83.503906 117.746094 L 82.367188 119.039062 C 80.351562 121.746094 78.855469 122.691406 77.890625 121.871094 C 76.082031 120.308594 74.0625 119.734375 71.835938 120.144531 C 69.3125 120.640625 66.726562 122.015625 64.078125 124.273438 L 61.175781 126.917969 C 59.285156 128.191406 57.035156 128.828125 54.429688 128.828125 C 46.945312 128.828125 40.425781 127.164062 34.878906 123.839844 C 33.28125 123.0625 31.851562 121.910156 30.589844 120.390625 L 27.6875 116.820312 L 18.164062 110.046875 C 16.566406 108.898438 15.050781 106.867188 13.621094 103.953125 L 13.179688 104.382812 C 12.929688 104.21875 12.699219 104.097656 12.488281 104.011719 L 12.992188 103.335938 L 13.246094 103.089844 L 13.117188 102.84375 L 13.179688 102.84375 L 13.117188 102.78125 C 12.65625 102.167969 12.257812 101.859375 11.921875 101.859375 C 11.035156 101.859375 9.859375 102.289062 8.386719 103.152344 C 8.386719 103.398438 8.074219 103.683594 7.441406 104.011719 C 6.851562 104.34375 6.453125 104.507812 6.242188 104.507812 L 1.386719 108.324219 C 1.386719 108.652344 2.058594 109.351562 3.40625 110.417969 L 3.46875 110.480469 L 3.847656 110.355469 L 4.414062 111.09375 L 4.414062 111.21875 C 5.171875 111.914062 5.613281 112.492188 5.738281 112.941406 L 6.621094 117.804688 C 7.085938 119.039062 8.492188 120.535156 10.847656 122.300781 C 13.453125 124.355469 15.09375 125.851562 15.765625 126.796875 C 17.617188 129.421875 20.433594 131.332031 24.21875 132.523438 L 31.976562 134.371094 L 38.21875 136.585938 C 38.386719 136.875 38.765625 137.015625 39.355469 137.015625 L 39.417969 137.015625 L 45.597656 139.234375 C 48.078125 139.972656 51.273438 140.34375 55.183594 140.34375 C 58.210938 140.34375 60.523438 139.851562 62.121094 138.863281 L 66.097656 135.292969 L 66.410156 134.738281 C 66.957031 133.671875 67.378906 132.996094 67.671875 132.707031 L 68.113281 132.769531 L 69.5 130.859375 L 70.890625 129.257812 L 72.464844 129.074219 L 72.972656 129.199219 L 73.347656 129.136719 L 73.347656 129.011719 M 44.210938 116.328125 L 42.445312 116.328125 C 40.089844 116.328125 37.316406 115.117188 34.121094 112.695312 L 28.570312 108.140625 C 24.070312 105.390625 21.820312 102.472656 21.820312 99.394531 C 21.695312 97.136719 21.78125 95.414062 22.074219 94.222656 L 21.191406 94.714844 C 18.921875 96.152344 17.429688 97.691406 16.714844 99.335938 L 16.273438 100.441406 L 15.957031 100.566406 L 15.957031 101.058594 L 15.136719 103.027344 L 14.820312 103.398438 L 14.632812 103.582031 L 16.019531 105.613281 C 17.53125 107.832031 18.6875 109.1875 19.488281 109.679688 C 24.703125 112.960938 27.75 115.160156 28.632812 116.265625 C 33.46875 122.425781 39.921875 126.097656 47.996094 127.289062 L 48.121094 127.535156 L 48.5625 127.410156 L 54.050781 127.71875 L 54.367188 127.71875 L 54.554688 127.964844 L 55.121094 127.71875 C 58.738281 127.433594 61.703125 125.832031 64.015625 122.917969 L 66.917969 120.824219 C 68.09375 120.042969 69.710938 119.449219 71.773438 119.039062 L 77.132812 119.40625 C 79.320312 119.652344 80.894531 119.160156 81.863281 117.929688 L 83.125 116.511719 C 83.964844 115.363281 84.46875 114.480469 84.636719 113.867188 L 85.773438 110.292969 L 85.648438 109.617188 C 86.234375 108.714844 86.53125 107.851562 86.53125 107.03125 L 86.40625 105.613281 L 86.214844 105.554688 L 86.65625 104.753906 L 86.53125 104.691406 L 86.53125 104.566406 L 87.289062 102.351562 L 87.664062 101.980469 L 87.476562 101.367188 C 87.351562 100.957031 86.910156 100.585938 86.152344 100.257812 L 83.503906 99.085938 L 80.664062 96.996094 L 82.496094 98.65625 C 82.664062 98.902344 82.746094 99.664062 82.746094 100.933594 L 82.558594 103.152344 L 81.546875 104.199219 L 81.167969 103.953125 C 80.664062 104.691406 78.835938 106.003906 75.683594 107.894531 C 72.109375 110.027344 69.859375 111.15625 68.933594 111.28125 L 63.070312 112.324219 L 63.070312 112.386719 L 60.796875 113.1875 L 53.609375 114.726562 C 51.339844 115.425781 48.941406 115.898438 46.417969 116.144531 L 45.472656 116.328125 L 44.210938 116.265625 L 44.210938 116.328125 M 2.398438 110.292969 L 1.070312 109.679688 C 1.28125 110.417969 1.492188 110.785156 1.703125 110.785156 L 2.773438 110.664062 L 2.398438 110.292969 M 3.53125 111.773438 L 5.613281 129.136719 L 8.640625 128.828125 C 12.636719 128.828125 14.632812 130.101562 14.632812 132.644531 L 14.570312 133.445312 L 17.847656 131.042969 C 16.628906 130.140625 15.621094 128.910156 14.820312 127.351562 C 13.644531 125.257812 11.984375 123.777344 9.839844 122.917969 C 7.148438 121.890625 5.71875 120.289062 5.550781 118.113281 C 5.253906 115.324219 4.644531 113.207031 3.722656 111.773438 L 3.53125 111.773438 M 35.824219 91.882812 L 35.570312 92.4375 L 35.570312 95.023438 L 35.382812 95.886719 C 42.277344 98.839844 47.34375 100.769531 50.582031 101.675781 C 54.996094 102.863281 59.789062 104.402344 64.960938 106.292969 L 64.960938 106.414062 L 66.539062 105 L 72.152344 102.289062 C 75.050781 100.851562 76.503906 99.746094 76.503906 98.964844 C 76.503906 97.980469 75.808594 96.933594 74.421875 95.824219 L 71.394531 93.730469 L 71.710938 94.53125 C 72.085938 95.351562 73.117188 96.890625 74.800781 99.148438 C 74.800781 99.476562 74.632812 99.640625 74.296875 99.640625 C 72.65625 99.640625 71.4375 98.144531 70.636719 95.148438 L 70.386719 93.484375 L 69.691406 93.546875 L 57.519531 94.285156 C 44.90625 94.285156 37.589844 93.382812 35.570312 91.574219 L 35.824219 91.882812 M 75.554688 101.921875 L 74.988281 102.289062 L 74.296875 102.597656 C 71.308594 103.871094 68.957031 104.9375 67.230469 105.800781 C 66.683594 106.085938 66.054688 106.621094 65.339844 107.398438 C 64.371094 108.015625 62.394531 108.242188 59.410156 108.078125 C 56.46875 107.914062 54.597656 108.117188 53.796875 108.691406 C 50.855469 110.417969 48.078125 111.28125 45.472656 111.28125 C 42.152344 111.28125 39.355469 109.679688 37.085938 106.476562 C 33.890625 105.492188 31.996094 104.671875 31.410156 104.011719 C 31.15625 103.726562 31.03125 102.90625 31.03125 101.550781 C 31.03125 96.089844 32.1875 93.320312 34.5 93.238281 L 34.5 92.316406 L 32.542969 92.128906 C 32.082031 92.128906 31.785156 92.273438 31.660156 92.5625 C 31.535156 92.890625 31.28125 93.054688 30.902344 93.054688 L 28.886719 93.238281 L 28.570312 92.621094 L 28.003906 93.300781 L 27.246094 93.300781 L 26.550781 93.175781 C 26.089844 93.175781 25.648438 93.320312 25.226562 93.609375 L 25.605469 93.054688 L 26.109375 92.621094 L 24.34375 93.113281 L 23.902344 93.421875 L 23.335938 94.222656 L 22.957031 93.730469 C 22.957031 94.140625 22.769531 94.347656 22.390625 94.347656 L 22.957031 95.640625 L 22.957031 96.007812 L 22.769531 99.394531 C 22.769531 101.695312 25.082031 104.382812 29.707031 107.460938 C 35.296875 112.714844 38.851562 115.34375 40.363281 115.34375 L 44.273438 115.28125 L 49.699219 114.050781 L 51.714844 113.621094 L 57.644531 112.511719 L 58.96875 111.957031 C 61.660156 111.21875 64.308594 110.683594 66.917969 110.355469 C 70.027344 109.902344 74.527344 107.503906 80.414062 103.152344 L 80.855469 103.214844 C 81.402344 102.472656 81.675781 101.714844 81.675781 100.933594 C 81.675781 100.484375 81.296875 99.785156 80.539062 98.839844 C 80.496094 98.265625 80.308594 97.980469 79.972656 97.980469 L 79.84375 98.039062 L 77.449219 95.578125 C 74.800781 92.992188 73.347656 91.699219 73.097656 91.699219 L 71.394531 92.066406 L 71.078125 92.007812 L 71.203125 92.621094 L 71.332031 92.683594 L 71.519531 92.621094 L 75.554688 95.761719 L 76.628906 97.300781 L 77.257812 98.289062 L 76.945312 98.347656 L 76.945312 98.78125 L 77.449219 99.582031 C 77.238281 100.359375 76.648438 101.121094 75.683594 101.859375 L 75.554688 101.921875 M 34.058594 94.40625 C 33.007812 94.613281 32.460938 94.960938 32.417969 95.453125 L 32.417969 97.300781 C 33.722656 96.808594 34.414062 95.804688 34.5 94.285156 L 34.058594 94.40625 M 32.542969 98.039062 L 32.355469 98.039062 L 32.039062 101.425781 C 32.039062 102.617188 32.226562 103.316406 32.605469 103.519531 C 33.617188 103.808594 34.75 104.238281 36.011719 104.8125 L 36.011719 104.753906 C 36.011719 104.425781 36.203125 104.261719 36.578125 104.261719 L 54.996094 104.136719 L 50.203125 102.597656 L 42.003906 99.886719 C 38.640625 98.738281 36.308594 97.691406 35.003906 96.746094 C 34.457031 97.609375 33.636719 98.039062 32.542969 98.039062 M 38.09375 105.738281 C 40.660156 108.691406 43.117188 110.171875 45.472656 110.171875 C 47.828125 110.171875 49.761719 109.820312 51.273438 109.125 C 52.074219 108.753906 52.789062 108.304688 53.417969 107.769531 C 56.195312 106.128906 58.042969 105.613281 58.96875 106.230469 C 60.0625 106.96875 61.617188 107.132812 63.636719 106.722656 L 59.285156 105.429688 L 58.90625 105.554688 L 58.023438 105.183594 L 57.265625 105.429688 L 47.871094 105.554688 L 37.335938 105.367188 L 38.09375 105.738281 M 18.417969 143.789062 L 18.542969 143.605469 L 19.109375 143.667969 L 19.171875 144.035156 L 15.894531 154.996094 C 15.894531 158.28125 17.261719 161.8125 19.992188 165.585938 C 22.726562 169.363281 24.09375 174.289062 24.09375 180.367188 C 24.09375 182.089844 23.777344 185.476562 23.144531 190.527344 C 23.144531 194.875 24.386719 199.144531 26.867188 203.332031 C 27.917969 205.179688 30.335938 208.421875 34.121094 213.0625 L 34.121094 213.617188 L 33.742188 213.984375 C 26.886719 214.027344 19.613281 213.902344 11.921875 213.617188 L 11.730469 213.617188 C 11.140625 213.492188 10.554688 212.734375 9.964844 211.335938 C 8.957031 208.792969 7.988281 206.800781 7.0625 205.363281 C 5.800781 203.433594 5.171875 200.707031 5.171875 197.175781 C 5.171875 191.59375 6.011719 187.035156 7.695312 183.507812 C 9.375 180.015625 10.21875 177 10.21875 174.453125 C 10.21875 172.8125 9.4375 170.535156 7.882812 167.621094 L 5.488281 162.632812 C 5.488281 162.304688 5.632812 162.140625 5.929688 162.140625 L 6.683594 162.386719 C 8.28125 161.195312 9.230469 159.800781 9.523438 158.199219 L 10.660156 154.382812 L 10.660156 154.195312 C 11.457031 153.046875 12.066406 151.855469 12.488281 150.625 C 12.402344 148.902344 12.65625 147.855469 13.246094 147.484375 L 13.496094 147.792969 L 18.351562 143.789062 L 18.417969 143.789062 M 22.894531 213.0625 L 32.480469 213.246094 L 29.011719 209.304688 C 26.699219 206.308594 25.226562 203.929688 24.597656 202.164062 C 22.957031 197.8125 22.136719 193.953125 22.136719 190.585938 C 22.683594 185.742188 22.957031 182.355469 22.957031 180.425781 C 22.957031 174.722656 21.613281 169.917969 18.921875 166.019531 C 16.1875 162.078125 14.820312 158.382812 14.820312 154.933594 C 14.820312 154.113281 15.347656 152.144531 16.398438 149.023438 L 17.785156 145.328125 L 13.8125 148.46875 L 13.75 148.46875 L 13.8125 148.839844 C 13.8125 149.785156 13.664062 150.832031 13.371094 151.980469 C 12.90625 153.621094 12.296875 154.546875 11.542969 154.75 L 11.226562 156.597656 L 11.101562 157.152344 L 10.660156 157.460938 L 10.722656 158.507812 L 10.53125 159 C 9.648438 161.503906 8.621094 162.898438 7.441406 163.1875 L 8.199219 164.726562 L 9.523438 168.359375 L 11.289062 171.929688 L 11.226562 174.515625 C 11.226562 177.019531 10.40625 180.097656 8.765625 183.753906 C 7.125 187.363281 6.308594 191.839844 6.308594 197.175781 C 6.308594 200.664062 6.851562 203.1875 7.945312 204.75 C 9.878906 207.417969 11.351562 210.1875 12.363281 213.0625 L 22.390625 213.0625 L 22.515625 213.246094 L 22.769531 213.0625 L 22.894531 213.0625 M 95.992188 116.265625 L 95.234375 113.125 L 93.40625 115.589844 C 94.160156 115.710938 95.023438 116.246094 95.992188 117.191406 L 95.992188 116.265625 M 68.367188 92.808594 L 69.878906 92.4375 L 70.257812 92.4375 L 69.945312 90.40625 C 70.699219 87.082031 71.121094 84.578125 71.203125 82.894531 L 62.3125 88.003906 C 56.71875 90.835938 52.054688 92.5625 48.3125 93.175781 L 49.066406 93.175781 L 66.097656 92.992188 L 68.367188 92.808594 "/>
<path style=" stroke:none;fill-rule:evenodd;fill:rgb(0%,0%,40.000001%);fill-opacity:1;" d="M 38.15625 83.078125 L 38.28125 83.078125 L 38.789062 83.507812 L 38.15625 83.078125 M 39.734375 84.1875 L 40.113281 84.308594 L 39.984375 84.371094 L 39.734375 84.1875 "/>
<path style=" stroke:none;fill-rule:evenodd;fill:rgb(100%,100%,100%);fill-opacity:1;" d="M 15.199219 47.859375 L 14.378906 46.378906 L 15.832031 46.871094 L 18.039062 47.550781 L 18.039062 47.796875 C 18.039062 50.054688 18.457031 53.542969 19.300781 58.265625 C 20.183594 62.820312 21.066406 65.878906 21.949219 67.4375 L 19.992188 67.5 C 18.984375 65.488281 18.4375 63.929688 18.351562 62.820312 L 18.351562 62.390625 L 18.542969 62.019531 L 18.542969 61.34375 L 18.289062 60.109375 L 18.226562 59.679688 L 17.847656 56.847656 C 16.628906 54.054688 16.167969 52.046875 16.460938 50.8125 C 16.753906 49.871094 16.335938 48.882812 15.199219 47.859375 M 24.40625 68.546875 C 26.929688 68.339844 29.433594 67.765625 31.914062 66.824219 C 34.265625 65.960938 35.78125 65.179688 36.453125 64.484375 L 39.605469 61.28125 L 43.074219 59.125 C 45.976562 60.933594 48.058594 62.449219 49.320312 63.683594 L 51.90625 66.082031 C 54.050781 67.355469 57.078125 67.992188 60.988281 67.992188 C 64.308594 67.992188 68.789062 66.578125 74.421875 63.742188 L 78.394531 62.390625 C 76.335938 65.507812 74.863281 67.5 73.980469 68.363281 C 70.195312 71.195312 67.421875 73.453125 65.65625 75.136719 L 62.121094 77.90625 L 50.832031 79.015625 L 36.390625 78.152344 L 34.183594 77.78125 L 31.914062 76.121094 L 27.875 71.808594 C 25.984375 69.675781 24.828125 68.609375 24.40625 68.609375 L 24.40625 68.546875 M 42.445312 69.65625 C 42.570312 69.984375 42.53125 70.578125 42.320312 71.441406 C 42.488281 72.140625 43.558594 72.488281 45.535156 72.488281 C 47.175781 72.488281 47.996094 72.242188 47.996094 71.75 L 42.570312 65.898438 C 42.191406 65.898438 42.003906 66.144531 42.003906 66.636719 C 42.003906 67.789062 42.152344 68.792969 42.445312 69.65625 M 34.625 73.101562 C 35.085938 73.101562 35.59375 72.652344 36.136719 71.75 C 36.601562 71.011719 36.851562 70.457031 36.894531 70.085938 L 39.671875 66.824219 L 38.976562 66.207031 C 37.925781 66.207031 36.222656 68.28125 33.867188 72.425781 C 33.824219 72.878906 34.078125 73.101562 34.625 73.101562 M 58.90625 79.9375 L 56.195312 81.476562 L 47.492188 87.636719 C 47.070312 87.636719 44.757812 86.035156 40.554688 82.832031 L 40.238281 82.894531 C 39.566406 82.113281 38.175781 80.902344 36.074219 79.261719 L 52.789062 80.183594 L 58.90625 79.9375 M 66.410156 134.738281 L 66.097656 135.292969 L 62.121094 138.863281 C 60.523438 139.851562 58.210938 140.34375 55.183594 140.34375 C 51.273438 140.34375 48.078125 139.972656 45.597656 139.234375 L 39.417969 137.015625 L 39.355469 137.015625 C 38.765625 137.015625 38.386719 136.875 38.21875 136.585938 L 31.976562 134.371094 L 24.21875 132.523438 C 20.433594 131.332031 17.617188 129.421875 15.765625 126.796875 C 15.09375 125.851562 13.453125 124.355469 10.847656 122.300781 C 8.492188 120.535156 7.085938 119.039062 6.621094 117.804688 L 5.738281 112.941406 C 5.613281 112.492188 5.171875 111.914062 4.414062 111.21875 L 4.414062 111.09375 L 3.847656 110.355469 L 3.46875 110.480469 L 3.40625 110.417969 C 2.058594 109.351562 1.386719 108.652344 1.386719 108.324219 L 6.242188 104.507812 C 6.453125 104.507812 6.851562 104.34375 7.441406 104.011719 C 8.074219 103.683594 8.386719 103.398438 8.386719 103.152344 C 9.859375 102.289062 11.035156 101.859375 11.921875 101.859375 C 12.257812 101.859375 12.65625 102.167969 13.117188 102.78125 L 13.179688 102.84375 L 13.117188 102.84375 L 13.246094 103.089844 L 12.992188 103.335938 L 12.488281 104.011719 C 12.699219 104.097656 12.929688 104.21875 13.179688 104.382812 L 13.621094 103.953125 C 15.050781 106.867188 16.566406 108.898438 18.164062 110.046875 L 27.6875 116.820312 L 30.589844 120.390625 C 31.851562 121.910156 33.28125 123.0625 34.878906 123.839844 C 40.425781 127.164062 46.945312 128.828125 54.429688 128.828125 C 57.035156 128.828125 59.285156 128.191406 61.175781 126.917969 L 64.078125 124.273438 C 66.726562 122.015625 69.3125 120.640625 71.835938 120.144531 C 74.0625 119.734375 76.082031 120.308594 77.890625 121.871094 C 78.855469 122.691406 80.351562 121.746094 82.367188 119.039062 L 83.503906 117.746094 C 84.261719 117.128906 84.890625 116.226562 85.394531 115.035156 L 86.972656 109.988281 L 87.539062 106.539062 L 87.539062 106.105469 L 87.792969 105.613281 L 87.855469 105.738281 L 87.792969 105.554688 L 88.171875 104.445312 L 90.25 106.230469 L 91.199219 107.09375 L 91.953125 107.832031 C 93.804688 109.679688 94.730469 110.867188 94.730469 111.402344 C 94.730469 112.058594 93.824219 113.332031 92.015625 115.21875 C 90.25 117.027344 89.433594 118.628906 89.558594 120.023438 C 89.808594 121.664062 89.261719 123.121094 87.917969 124.394531 C 87.582031 124.722656 87.140625 125.566406 86.59375 126.917969 C 85.542969 128.070312 83.441406 128.644531 80.285156 128.644531 L 79.71875 128.335938 L 73.347656 129.011719 L 73.347656 128.703125 L 72.90625 126.058594 L 73.347656 121.871094 C 73.515625 121.214844 73.265625 120.886719 72.59375 120.886719 L 67.863281 125.871094 C 66.558594 127.226562 65.90625 128.910156 65.90625 130.921875 C 65.90625 132.769531 66.074219 134.042969 66.410156 134.738281 M 47.996094 127.289062 C 39.921875 126.097656 33.46875 122.425781 28.632812 116.265625 C 27.75 115.160156 24.703125 112.960938 19.488281 109.679688 C 18.6875 109.1875 17.53125 107.832031 16.019531 105.613281 L 14.632812 103.582031 L 14.820312 103.398438 L 15.136719 103.027344 L 15.957031 101.058594 L 15.957031 100.566406 L 16.273438 100.441406 L 16.714844 99.335938 C 17.429688 97.691406 18.921875 96.152344 21.191406 94.714844 L 22.074219 94.222656 C 21.78125 95.414062 21.695312 97.136719 21.820312 99.394531 C 21.820312 102.472656 24.070312 105.390625 28.570312 108.140625 L 34.121094 112.695312 C 37.316406 115.117188 40.089844 116.328125 42.445312 116.328125 L 44.210938 116.328125 C 44.210938 116.984375 45.199219 118.875 47.175781 121.992188 L 47.429688 124.765625 C 47.46875 125.832031 47.660156 126.671875 47.996094 127.289062 M 60.796875 113.1875 L 63.070312 112.386719 L 63.070312 112.324219 L 68.933594 111.28125 C 69.859375 111.15625 72.109375 110.027344 75.683594 107.894531 C 78.835938 106.003906 80.664062 104.691406 81.167969 103.953125 L 81.546875 104.199219 L 82.367188 105.429688 L 83.503906 105.429688 L 83.503906 105.984375 L 85.519531 103.890625 L 87.289062 102.351562 L 86.53125 104.566406 L 86.53125 104.691406 L 86.65625 104.753906 L 86.214844 105.554688 L 86.40625 105.613281 L 86.53125 107.03125 C 86.53125 107.851562 86.234375 108.714844 85.648438 109.617188 L 85.773438 110.292969 L 84.636719 113.867188 C 84.46875 114.480469 83.964844 115.363281 83.125 116.511719 L 81.863281 117.929688 C 80.894531 119.160156 79.320312 119.652344 77.132812 119.40625 L 71.773438 119.039062 C 69.710938 119.449219 68.09375 120.042969 66.917969 120.824219 L 64.015625 122.917969 C 61.703125 125.832031 58.738281 127.433594 55.121094 127.71875 C 55.375 124.105469 55.648438 121.664062 55.941406 120.390625 C 56.238281 119.285156 57.140625 117.785156 58.652344 115.898438 L 60.796875 113.1875 M 13.875 108.632812 C 13.414062 107.195312 13.078125 106.351562 12.867188 106.105469 C 12.109375 107.132812 11.730469 109.125 11.730469 112.078125 C 11.730469 115.160156 12.636719 117.867188 14.441406 120.207031 C 18.101562 125.378906 20.875 127.964844 22.769531 127.964844 L 23.144531 127.90625 L 23.144531 127.105469 L 22.578125 121.871094 C 22.453125 118.75 22.261719 117.003906 22.011719 116.636719 C 20.792969 114.871094 18.898438 113.148438 16.335938 111.464844 C 15.074219 110.683594 14.253906 109.738281 13.875 108.632812 M 22.957031 95.640625 L 26.046875 99.765625 L 30.714844 104.875 L 36.265625 109.800781 C 40.132812 112.46875 44.609375 113.886719 49.699219 114.050781 L 44.273438 115.28125 L 40.363281 115.34375 C 38.851562 115.34375 35.296875 112.714844 29.707031 107.460938 C 25.082031 104.382812 22.769531 101.695312 22.769531 99.394531 L 22.957031 96.007812 L 22.957031 95.640625 M 58.96875 111.957031 C 61.03125 111.21875 63.277344 110.621094 65.71875 110.171875 L 68.175781 109.125 C 69.355469 108.878906 70.722656 108.304688 72.277344 107.398438 L 72.339844 107.398438 C 72.929688 107.398438 73.453125 107.175781 73.917969 106.722656 L 74.042969 106.722656 L 75.242188 105.800781 L 75.367188 105.921875 L 75.808594 104.8125 C 78.921875 102.269531 80.476562 100.484375 80.476562 99.457031 L 80.539062 98.839844 C 81.296875 99.785156 81.675781 100.484375 81.675781 100.933594 C 81.675781 101.714844 81.402344 102.472656 80.855469 103.214844 L 80.414062 103.152344 C 74.527344 107.503906 70.027344 109.902344 66.917969 110.355469 C 64.308594 110.683594 61.660156 111.21875 58.96875 111.957031 M 75.683594 101.859375 L 75.554688 101.921875 L 75.683594 101.859375 M 28.003906 112.019531 C 28.003906 112.511719 28.484375 113.433594 29.453125 114.789062 C 30.546875 116.390625 31.578125 117.191406 32.542969 117.191406 C 33.046875 117.191406 33.300781 116.800781 33.300781 116.019531 C 33.300781 115.445312 32.878906 114.417969 32.039062 112.941406 C 31.03125 111.21875 30.082031 110.355469 29.199219 110.355469 C 28.402344 110.355469 28.003906 110.910156 28.003906 112.019531 M 10.722656 158.507812 C 10.890625 161.296875 11.878906 164.273438 13.6875 167.433594 C 15.703125 171.007812 16.714844 174.617188 16.714844 178.273438 C 16.714844 179.875 15.957031 182.191406 14.441406 185.230469 L 14.0625 192.433594 L 14 197.605469 C 14.167969 199.25 14.863281 201.011719 16.082031 202.902344 L 22.390625 213.0625 L 12.363281 213.0625 C 11.351562 210.1875 9.878906 207.417969 7.945312 204.75 C 6.851562 203.1875 6.308594 200.664062 6.308594 197.175781 C 6.308594 191.839844 7.125 187.363281 8.765625 183.753906 C 10.40625 180.097656 11.226562 177.019531 11.226562 174.515625 L 11.289062 171.929688 L 9.523438 168.359375 L 8.199219 164.726562 L 7.441406 163.1875 C 8.621094 162.898438 9.648438 161.503906 10.53125 159 L 10.722656 158.507812 M 22.769531 213.0625 L 22.832031 213 L 22.894531 213.0625 L 22.769531 213.0625 M 51.023438 69.839844 L 51.96875 72.117188 C 52.515625 73.269531 53.019531 73.84375 53.484375 73.84375 C 53.820312 73.84375 53.988281 73.636719 53.988281 73.226562 C 53.988281 72.855469 53.355469 71.542969 52.09375 69.285156 L 47.742188 65.285156 C 47.324219 65.285156 47.113281 65.488281 47.113281 65.898438 C 47.113281 66.308594 48.414062 67.625 51.023438 69.839844 M 76.628906 102.78125 L 76.441406 102.90625 L 76.503906 102.660156 L 76.628906 102.78125 M 72.464844 105.121094 L 72.402344 105.121094 L 72.339844 105 L 72.464844 105.121094 M 48.5625 127.410156 L 48.5625 127.351562 L 48.5625 127.410156 "/>
<path style=" stroke:none;fill-rule:evenodd;fill:rgb(80.000001%,80.000001%,80.000001%);fill-opacity:1;" d="M 78.394531 62.390625 L 78.960938 61.527344 C 79.425781 61.527344 79.636719 61.710938 79.59375 62.082031 L 81.484375 61.589844 L 82.496094 60.726562 L 77.699219 67.070312 C 77.28125 68.175781 76.859375 68.917969 76.441406 69.285156 L 73.855469 71.441406 L 71.898438 74.210938 L 71.582031 74.148438 C 68.515625 75.667969 66.285156 76.613281 64.898438 76.984375 L 62.121094 77.90625 L 65.65625 75.136719 C 67.421875 73.453125 70.195312 71.195312 73.980469 68.363281 C 74.863281 67.5 76.335938 65.507812 78.394531 62.390625 M 34.183594 77.78125 L 29.769531 77.230469 L 29.707031 77.230469 L 28.824219 76.613281 L 24.597656 72.671875 L 20.75 68.671875 L 22.328125 68.609375 L 23.335938 68.609375 L 24.40625 68.546875 L 24.40625 68.609375 C 24.828125 68.609375 25.984375 69.675781 27.875 71.808594 L 31.914062 76.121094 L 34.183594 77.78125 M 34.625 73.101562 C 34.078125 73.101562 33.824219 72.878906 33.867188 72.425781 C 36.222656 68.28125 37.925781 66.207031 38.976562 66.207031 L 39.671875 66.824219 L 36.894531 70.085938 C 36.851562 70.457031 36.601562 71.011719 36.136719 71.75 C 35.59375 72.652344 35.085938 73.101562 34.625 73.101562 M 42.445312 69.65625 C 42.152344 68.792969 42.003906 67.789062 42.003906 66.636719 C 42.003906 66.144531 42.191406 65.898438 42.570312 65.898438 L 47.996094 71.75 C 47.996094 72.242188 47.175781 72.488281 45.535156 72.488281 C 43.558594 72.488281 42.488281 72.140625 42.320312 71.441406 C 42.53125 70.578125 42.570312 69.984375 42.445312 69.65625 M 38.15625 83.078125 L 31.597656 78.582031 L 35.761719 79.199219 L 36.074219 79.261719 C 38.175781 80.902344 39.566406 82.113281 40.238281 82.894531 L 40.554688 82.832031 C 44.757812 86.035156 47.070312 87.636719 47.492188 87.636719 L 56.195312 81.476562 L 58.90625 79.9375 C 60.378906 79.734375 61.238281 79.445312 61.492188 79.074219 C 64.394531 78.582031 66.074219 78.132812 66.539062 77.722656 C 67 77.3125 67.398438 77.167969 67.734375 77.289062 L 68.492188 77.414062 L 59.03125 84.371094 L 52.15625 87.757812 L 46.542969 89.851562 C 46.292969 88.867188 45.117188 87.757812 43.011719 86.527344 L 39.984375 84.371094 L 40.113281 84.308594 L 39.734375 84.1875 L 38.789062 83.507812 L 38.28125 83.078125 L 38.15625 83.078125 M 35.570312 86.773438 L 35.320312 82.957031 L 36.894531 83.878906 C 38.789062 84.945312 41.648438 87.058594 45.472656 90.222656 L 44.84375 90.40625 C 44.84375 90.773438 45.324219 90.960938 46.292969 90.960938 C 48.5625 90.960938 52.285156 89.523438 57.457031 86.648438 C 62.921875 83.613281 67.503906 80.308594 71.203125 76.734375 L 71.898438 76.058594 L 71.269531 81.355469 L 61.933594 86.894531 L 55.5 89.914062 C 53.691406 90.898438 52.261719 91.390625 51.210938 91.390625 L 43.074219 92.867188 C 39.585938 92.375 37.105469 91.433594 35.632812 90.035156 L 35.570312 86.773438 M 66.410156 134.738281 C 66.074219 134.042969 65.90625 132.769531 65.90625 130.921875 C 65.90625 128.910156 66.558594 127.226562 67.863281 125.871094 L 72.59375 120.886719 C 73.265625 120.886719 73.515625 121.214844 73.347656 121.871094 L 72.90625 126.058594 L 73.347656 128.703125 L 73.347656 129.136719 L 72.972656 129.199219 L 72.464844 129.074219 L 70.890625 129.257812 L 69.5 130.859375 L 68.113281 132.769531 L 67.671875 132.707031 C 67.378906 132.996094 66.957031 133.671875 66.410156 134.738281 M 47.996094 127.289062 C 47.660156 126.671875 47.46875 125.832031 47.429688 124.765625 L 47.175781 121.992188 C 45.199219 118.875 44.210938 116.984375 44.210938 116.328125 L 44.210938 116.265625 L 45.472656 116.328125 L 46.417969 116.144531 C 48.941406 115.898438 51.339844 115.425781 53.609375 114.726562 L 60.796875 113.1875 L 58.652344 115.898438 C 57.140625 117.785156 56.238281 119.285156 55.941406 120.390625 C 55.648438 121.664062 55.375 124.105469 55.121094 127.71875 L 54.554688 127.964844 L 54.367188 127.71875 L 54.050781 127.71875 L 48.5625 127.410156 L 48.121094 127.535156 L 47.996094 127.289062 M 81.546875 104.199219 L 82.558594 103.152344 L 82.746094 100.933594 C 82.746094 99.664062 82.664062 98.902344 82.496094 98.65625 L 80.664062 96.996094 L 83.503906 99.085938 L 86.152344 100.257812 C 86.910156 100.585938 87.351562 100.957031 87.476562 101.367188 L 87.664062 101.980469 L 87.289062 102.351562 L 85.519531 103.890625 L 83.503906 105.984375 L 83.503906 105.429688 L 82.367188 105.429688 L 81.546875 104.199219 M 3.53125 111.773438 L 3.722656 111.773438 C 4.644531 113.207031 5.253906 115.324219 5.550781 118.113281 C 5.71875 120.289062 7.148438 121.890625 9.839844 122.917969 C 11.984375 123.777344 13.644531 125.257812 14.820312 127.351562 C 15.621094 128.910156 16.628906 130.140625 17.847656 131.042969 L 14.570312 133.445312 L 14.632812 132.644531 C 14.632812 130.101562 12.636719 128.828125 8.640625 128.828125 L 5.613281 129.136719 L 3.53125 111.773438 M 2.398438 110.292969 L 2.773438 110.664062 L 1.703125 110.785156 C 1.492188 110.785156 1.28125 110.417969 1.070312 109.679688 L 2.398438 110.292969 M 13.875 108.632812 C 14.253906 109.738281 15.074219 110.683594 16.335938 111.464844 C 18.898438 113.148438 20.792969 114.871094 22.011719 116.636719 C 22.261719 117.003906 22.453125 118.75 22.578125 121.871094 L 23.144531 127.105469 L 23.144531 127.90625 L 22.769531 127.964844 C 20.875 127.964844 18.101562 125.378906 14.441406 120.207031 C 12.636719 117.867188 11.730469 115.160156 11.730469 112.078125 C 11.730469 109.125 12.109375 107.132812 12.867188 106.105469 C 13.078125 106.351562 13.414062 107.195312 13.875 108.632812 M 22.957031 95.640625 L 22.390625 94.347656 C 22.769531 94.347656 22.957031 94.140625 22.957031 93.730469 L 23.335938 94.222656 L 23.902344 93.421875 L 24.34375 93.113281 L 26.109375 92.621094 L 25.605469 93.054688 L 25.226562 93.609375 C 25.648438 93.320312 26.089844 93.175781 26.550781 93.175781 L 27.246094 93.300781 L 28.003906 93.300781 L 28.570312 92.621094 L 28.886719 93.238281 L 30.902344 93.054688 C 31.28125 93.054688 31.535156 92.890625 31.660156 92.5625 C 31.785156 92.273438 32.082031 92.128906 32.542969 92.128906 L 34.5 92.316406 L 34.5 93.238281 C 32.1875 93.320312 31.03125 96.089844 31.03125 101.550781 C 31.03125 102.90625 31.15625 103.726562 31.410156 104.011719 C 31.996094 104.671875 33.890625 105.492188 37.085938 106.476562 C 39.355469 109.679688 42.152344 111.28125 45.472656 111.28125 C 48.078125 111.28125 50.855469 110.417969 53.796875 108.691406 C 54.597656 108.117188 56.46875 107.914062 59.410156 108.078125 C 62.394531 108.242188 64.371094 108.015625 65.339844 107.398438 C 66.054688 106.621094 66.683594 106.085938 67.230469 105.800781 C 68.957031 104.9375 71.308594 103.871094 74.296875 102.597656 L 74.988281 102.289062 L 75.554688 101.921875 L 75.683594 101.859375 C 76.648438 101.121094 77.238281 100.359375 77.449219 99.582031 L 76.945312 98.78125 L 76.945312 98.347656 L 77.257812 98.289062 L 76.628906 97.300781 L 75.554688 95.761719 L 71.519531 92.621094 L 71.332031 92.683594 L 71.203125 92.621094 L 71.078125 92.007812 L 71.394531 92.066406 L 73.097656 91.699219 C 73.347656 91.699219 74.800781 92.992188 77.449219 95.578125 L 79.84375 98.039062 L 79.972656 97.980469 C 80.308594 97.980469 80.496094 98.265625 80.539062 98.839844 L 80.476562 99.457031 C 80.476562 100.484375 78.921875 102.269531 75.808594 104.8125 L 75.367188 105.921875 L 75.242188 105.800781 L 74.042969 106.722656 L 73.917969 106.722656 C 73.453125 107.175781 72.929688 107.398438 72.339844 107.398438 L 72.277344 107.398438 C 70.722656 108.304688 69.355469 108.878906 68.175781 109.125 L 65.71875 110.171875 C 63.277344 110.621094 61.03125 111.21875 58.96875 111.957031 L 57.644531 112.511719 L 51.714844 113.621094 L 49.699219 114.050781 C 44.609375 113.886719 40.132812 112.46875 36.265625 109.800781 L 30.714844 104.875 L 26.046875 99.765625 L 22.957031 95.640625 M 35.824219 91.882812 L 35.570312 91.574219 C 37.589844 93.382812 44.90625 94.285156 57.519531 94.285156 L 69.691406 93.546875 L 70.386719 93.484375 L 70.636719 95.148438 C 71.4375 98.144531 72.65625 99.640625 74.296875 99.640625 C 74.632812 99.640625 74.800781 99.476562 74.800781 99.148438 C 73.117188 96.890625 72.085938 95.351562 71.710938 94.53125 L 71.394531 93.730469 L 74.421875 95.824219 C 75.808594 96.933594 76.503906 97.980469 76.503906 98.964844 C 76.503906 99.746094 75.050781 100.851562 72.152344 102.289062 L 66.539062 105 L 64.960938 106.414062 L 64.960938 106.292969 C 59.789062 104.402344 54.996094 102.863281 50.582031 101.675781 C 47.34375 100.769531 42.277344 98.839844 35.382812 95.886719 L 35.570312 95.023438 L 35.570312 92.4375 L 35.824219 91.882812 M 32.542969 98.039062 C 33.636719 98.039062 34.457031 97.609375 35.003906 96.746094 C 36.308594 97.691406 38.640625 98.738281 42.003906 99.886719 L 50.203125 102.597656 L 54.996094 104.136719 L 36.578125 104.261719 C 36.203125 104.261719 36.011719 104.425781 36.011719 104.753906 L 36.011719 104.8125 C 34.75 104.238281 33.617188 103.808594 32.605469 103.519531 C 32.226562 103.316406 32.039062 102.617188 32.039062 101.425781 L 32.355469 98.039062 L 32.542969 98.039062 M 34.058594 94.40625 L 34.5 94.285156 C 34.414062 95.804688 33.722656 96.808594 32.417969 97.300781 L 32.417969 95.453125 C 32.460938 94.960938 33.007812 94.613281 34.058594 94.40625 M 28.003906 112.019531 C 28.003906 110.910156 28.402344 110.355469 29.199219 110.355469 C 30.082031 110.355469 31.03125 111.21875 32.039062 112.941406 C 32.878906 114.417969 33.300781 115.445312 33.300781 116.019531 C 33.300781 116.800781 33.046875 117.191406 32.542969 117.191406 C 31.578125 117.191406 30.546875 116.390625 29.453125 114.789062 C 28.484375 113.433594 28.003906 112.511719 28.003906 112.019531 M 38.09375 105.738281 L 37.335938 105.367188 L 47.871094 105.554688 L 57.265625 105.429688 L 58.023438 105.183594 L 58.90625 105.554688 L 59.285156 105.429688 L 63.636719 106.722656 C 61.617188 107.132812 60.0625 106.96875 58.96875 106.230469 C 58.042969 105.613281 56.195312 106.128906 53.417969 107.769531 C 52.789062 108.304688 52.074219 108.753906 51.273438 109.125 C 49.761719 109.820312 47.828125 110.171875 45.472656 110.171875 C 43.117188 110.171875 40.660156 108.691406 38.09375 105.738281 M 10.722656 158.507812 L 10.660156 157.460938 L 11.101562 157.152344 L 11.226562 156.597656 L 11.542969 154.75 C 12.296875 154.546875 12.90625 153.621094 13.371094 151.980469 C 13.664062 150.832031 13.8125 149.785156 13.8125 148.839844 L 13.75 148.46875 L 13.8125 148.46875 L 17.785156 145.328125 L 16.398438 149.023438 C 15.347656 152.144531 14.820312 154.113281 14.820312 154.933594 C 14.820312 158.382812 16.1875 162.078125 18.921875 166.019531 C 21.613281 169.917969 22.957031 174.722656 22.957031 180.425781 C 22.957031 182.355469 22.683594 185.742188 22.136719 190.585938 C 22.136719 193.953125 22.957031 197.8125 24.597656 202.164062 C 25.226562 203.929688 26.699219 206.308594 29.011719 209.304688 L 32.480469 213.246094 L 22.894531 213.0625 L 22.832031 213 L 22.769531 213.0625 L 22.515625 213.246094 L 22.390625 213.0625 L 16.082031 202.902344 C 14.863281 201.011719 14.167969 199.25 14 197.605469 L 14.0625 192.433594 L 14.441406 185.230469 C 15.957031 182.191406 16.714844 179.875 16.714844 178.273438 C 16.714844 174.617188 15.703125 171.007812 13.6875 167.433594 C 11.878906 164.273438 10.890625 161.296875 10.722656 158.507812 M 95.992188 116.265625 L 95.992188 117.191406 C 95.023438 116.246094 94.160156 115.710938 93.40625 115.589844 L 95.234375 113.125 L 95.992188 116.265625 M 51.023438 69.839844 C 48.414062 67.625 47.113281 66.308594 47.113281 65.898438 C 47.113281 65.488281 47.324219 65.285156 47.742188 65.285156 L 52.09375 69.285156 C 53.355469 71.542969 53.988281 72.855469 53.988281 73.226562 C 53.988281 73.636719 53.820312 73.84375 53.484375 73.84375 C 53.019531 73.84375 52.515625 73.269531 51.96875 72.117188 L 51.023438 69.839844 M 68.367188 92.808594 L 66.097656 92.992188 L 49.066406 93.175781 L 48.3125 93.175781 C 52.054688 92.5625 56.71875 90.835938 62.3125 88.003906 L 71.203125 82.894531 C 71.121094 84.578125 70.699219 87.082031 69.945312 90.40625 L 70.257812 92.4375 L 69.878906 92.4375 L 68.367188 92.808594 M 72.464844 105.121094 L 72.339844 105 L 72.402344 105.121094 L 72.464844 105.121094 M 76.628906 102.78125 L 76.503906 102.660156 L 76.441406 102.90625 L 76.628906 102.78125 M 48.5625 127.410156 L 48.5625 127.351562 L 48.5625 127.410156 "/>
</g>
</svg>
