<?xml version="1.0" encoding="UTF-8"?>
<svg xmlns="http://www.w3.org/2000/svg" xmlns:xlink="http://www.w3.org/1999/xlink" width="97px" height="214px" viewBox="0 0 97 214" version="1.1">
<g id="surface1">
<path style=" stroke:none;fill-rule:evenodd;fill:rgb(3.137255%,6.27451%,7.058824%);fill-opacity:1;" d="M 70.449219 22.734375 C 71.035156 22.695312 71.332031 22.511719 71.332031 22.179688 C 71.332031 21.851562 70.804688 21.523438 69.753906 21.195312 C 68.113281 19.921875 66.222656 18.835938 64.078125 17.933594 C 60.421875 16.371094 57.054688 15.59375 53.988281 15.59375 L 41.375 15.714844 L 33.867188 17.253906 C 32.1875 17.707031 30.777344 18.300781 29.640625 19.042969 C 29.980469 19.574219 30.292969 21.09375 30.589844 23.597656 L 30.398438 23.660156 L 30.589844 23.96875 L 30.652344 24.769531 C 30.863281 26.777344 31.578125 28.789062 32.796875 30.800781 L 40.300781 42.746094 C 42.949219 37.410156 46.101562 33.46875 49.761719 30.925781 C 52.453125 29.035156 56.238281 27.4375 61.113281 26.121094 C 62.164062 25.875 65.277344 24.746094 70.449219 22.734375 M 47.175781 91.574219 L 47.742188 91.761719 C 56.78125 91.761719 63.847656 88.621094 68.933594 82.339844 C 72.257812 78.277344 75.179688 71.914062 77.699219 63.25 L 77.828125 62.757812 C 75.304688 63.539062 73.035156 64.484375 71.015625 65.589844 L 65.65625 68.855469 L 59.347656 69.101562 L 53.734375 69.410156 L 53.671875 68.976562 L 53.417969 68.546875 C 53.417969 68.054688 54.386719 67.664062 56.320312 67.378906 L 61.238281 66.636719 C 63.59375 65.980469 65.613281 65.203125 67.292969 64.296875 C 68.933594 63.394531 71.035156 62.082031 73.601562 60.359375 C 75.621094 59.125 77.089844 58.511719 78.015625 58.511719 L 78.519531 58.570312 L 80.160156 48.289062 L 80.035156 39.054688 L 80.097656 37.945312 L 80.035156 37.761719 L 79.214844 33.695312 C 78.625 32.382812 77.175781 30.164062 74.863281 27.046875 L 72.023438 23.226562 L 63.824219 26.121094 C 56.929688 28.542969 52.410156 30.554688 50.265625 32.15625 C 47.953125 33.921875 45.683594 36.488281 43.453125 39.851562 L 40.363281 44.164062 C 39.734375 44.164062 37.085938 40.222656 32.417969 32.339844 C 30.652344 29.304688 29.539062 26.410156 29.074219 23.660156 L 29.074219 23.414062 L 29.011719 23.351562 L 28.757812 20.519531 L 28.824219 19.65625 L 23.398438 23.597656 C 20.707031 25.445312 19.132812 28.730469 18.667969 33.449219 L 18.605469 45.394531 C 18.648438 49.664062 18.417969 52.167969 17.910156 52.90625 L 17.597656 58.941406 L 18.039062 62.265625 L 18.859375 62.203125 L 21.316406 62.574219 L 21.570312 62.757812 L 21.757812 62.757812 L 23.652344 63.496094 C 24.914062 64.113281 25.710938 64.585938 26.046875 64.914062 C 27.140625 65.570312 28.253906 66 29.390625 66.207031 C 31.914062 66.617188 33.175781 66.988281 33.175781 67.316406 C 33.175781 67.5625 32.375 67.847656 30.777344 68.175781 L 27.054688 68.609375 C 25.207031 68.609375 23.671875 68.21875 22.453125 67.4375 L 22.074219 66.761719 L 21.757812 66.882812 L 21.507812 66.636719 C 21.042969 66.308594 20.015625 66 18.417969 65.714844 L 18.226562 65.714844 L 18.226562 66.761719 C 18.269531 67.789062 18.753906 69.039062 19.675781 70.515625 L 22.199219 74.335938 C 23.167969 75.894531 25.5625 78.480469 29.390625 82.09375 C 31.492188 84.515625 33.300781 86.300781 34.8125 87.449219 C 34.898438 87.246094 35.085938 87.140625 35.382812 87.140625 L 38.09375 89.175781 C 39.734375 90.488281 41.75 91.144531 44.148438 91.144531 L 44.90625 91.144531 L 46.921875 91.574219 L 47.175781 91.574219 M 75.621094 25.691406 L 80.160156 32.832031 L 80.601562 33.820312 L 80.792969 33.574219 L 81.738281 36.40625 C 81.609375 49.871094 80.582031 59.25 78.648438 64.542969 C 77.933594 68.035156 77.15625 70.621094 76.3125 72.304688 L 72.84375 79.875 C 71.5 82.09375 69.566406 84.269531 67.042969 86.402344 C 61.996094 90.753906 56.40625 92.929688 50.265625 92.929688 L 44.652344 92.316406 L 44.273438 92.316406 C 41.878906 92.316406 40.195312 92.007812 39.230469 91.390625 L 37.90625 90.160156 L 37.273438 89.726562 L 37.148438 89.726562 C 35.339844 89.726562 33.363281 88.597656 31.21875 86.34375 L 27.875 82.402344 L 20.9375 74.644531 C 18.878906 72.507812 17.53125 69.386719 16.902344 65.285156 L 16.460938 64.851562 L 16.777344 64.484375 L 16.460938 59.125 L 16.839844 51.613281 L 16.523438 50.503906 L 16.902344 49.890625 L 17.40625 42.4375 L 17.46875 32.339844 L 18.792969 27.414062 C 19.507812 25.484375 20.855469 23.84375 22.832031 22.488281 L 29.011719 17.808594 C 31.996094 15.550781 38.660156 14.421875 49.003906 14.421875 C 55.4375 14.421875 60.609375 15.183594 64.519531 16.703125 C 67.671875 17.890625 70.425781 19.71875 72.78125 22.179688 L 73.222656 22.675781 L 75.621094 25.691406 M 56.382812 53.089844 C 55.753906 53.75 55.4375 54.835938 55.4375 56.355469 C 55.523438 58.980469 56.382812 60.625 58.023438 61.28125 C 57.054688 60.253906 56.363281 58.429688 55.941406 55.800781 L 56.195312 53.707031 L 56.382812 53.089844 M 57.394531 51.367188 L 59.285156 51.058594 C 62.734375 51.058594 64.121094 53.339844 63.449219 57.894531 C 64.332031 61.136719 62.964844 62.757812 59.347656 62.757812 C 55.984375 62.757812 54.300781 60.664062 54.300781 56.476562 C 54.300781 52.90625 55.164062 51.121094 56.886719 51.121094 L 57.394531 51.367188 M 78.394531 59.3125 C 75.492188 60.417969 73.707031 61.238281 73.035156 61.773438 C 71.519531 63.085938 70.027344 64.15625 68.554688 64.976562 C 66.160156 66.207031 63.910156 67.152344 61.808594 67.808594 L 64.265625 67.683594 C 65.277344 67.644531 66.054688 67.417969 66.601562 67.007812 C 67.566406 66.1875 68.578125 65.550781 69.628906 65.097656 C 73.707031 62.921875 76.460938 61.835938 77.890625 61.835938 L 78.015625 61.835938 L 78.394531 59.3125 M 45.03125 67.128906 C 45.03125 67.789062 43.539062 68.628906 40.554688 69.65625 C 40.722656 70.066406 40.847656 70.84375 40.933594 71.996094 L 41.058594 74.703125 L 41.5 74.644531 L 41.375 74.949219 L 43.707031 74.828125 L 49.636719 75.136719 L 52.15625 75.441406 L 53.167969 76.796875 L 55.753906 79.445312 C 55.753906 79.816406 55.585938 80 55.25 80 C 54.15625 80 53.105469 79.097656 52.09375 77.289062 C 51.757812 76.714844 50.726562 76.386719 49.003906 76.304688 L 41.246094 75.691406 L 40.996094 76.058594 L 37.90625 76.058594 C 36.136719 76.058594 35.066406 76.265625 34.6875 76.675781 L 33.742188 77.230469 C 33.195312 77.230469 32.921875 77.042969 32.921875 76.675781 C 32.921875 76.46875 33.34375 76.140625 34.183594 75.691406 C 35.320312 75.113281 36.601562 74.828125 38.03125 74.828125 L 39.984375 74.828125 L 39.542969 70.703125 C 39.542969 70.085938 39.628906 69.675781 39.796875 69.46875 L 37.589844 66.515625 C 37.589844 66.105469 37.777344 65.898438 38.15625 65.898438 C 38.996094 65.898438 39.734375 66.71875 40.363281 68.363281 L 44.335938 66.515625 C 44.84375 66.515625 45.074219 66.71875 45.03125 67.128906 M 29.515625 55.0625 C 29.011719 56.046875 28.757812 57.074219 28.757812 58.140625 L 29.265625 59.558594 L 29.074219 58.019531 L 29.515625 55.0625 M 32.480469 52.96875 L 33.175781 55 C 33.59375 55.574219 33.804688 56.808594 33.804688 58.695312 C 33.804688 59.3125 33.59375 60.050781 33.175781 60.910156 C 32.585938 62.144531 31.808594 62.757812 30.839844 62.757812 C 29.160156 62.757812 28.066406 61.199219 27.5625 58.078125 C 27.980469 53.605469 29.242188 51.367188 31.34375 51.367188 C 31.765625 51.367188 32.144531 51.902344 32.480469 52.96875 M 22.199219 64.113281 L 22.136719 63.929688 C 22.09375 63.558594 21.90625 63.375 21.570312 63.375 L 21.066406 63.742188 C 19.972656 63.25 19.003906 63.027344 18.164062 63.066406 L 18.101562 63.066406 L 18.164062 64.296875 C 19.046875 64.296875 19.972656 64.523438 20.9375 64.976562 C 20.9375 65.46875 21.191406 65.714844 21.695312 65.714844 L 22.011719 65.53125 L 22.578125 65.898438 C 24.175781 66.925781 26.152344 67.4375 28.507812 67.4375 L 29.074219 67.316406 C 28.484375 67.234375 26.761719 66.414062 23.902344 64.851562 C 23.652344 64.648438 23.082031 64.402344 22.199219 64.113281 "/>
<path style=" stroke:none;fill-rule:evenodd;fill:rgb(20%,20%,20%);fill-opacity:1;" d="M 56.382812 53.089844 L 56.195312 53.707031 L 55.941406 55.800781 C 56.363281 58.429688 57.054688 60.253906 58.023438 61.28125 C 56.382812 60.625 55.523438 58.980469 55.4375 56.355469 C 55.4375 54.835938 55.753906 53.75 56.382812 53.089844 M 29.515625 55.0625 L 29.074219 58.019531 L 29.265625 59.558594 L 28.757812 58.140625 C 28.757812 57.074219 29.011719 56.046875 29.515625 55.0625 "/>
<path style=" stroke:none;fill-rule:evenodd;fill:rgb(89.411765%,89.411765%,89.411765%);fill-opacity:1;" d="M 29.074219 23.660156 C 29.539062 26.410156 30.652344 29.304688 32.417969 32.339844 C 37.085938 40.222656 39.734375 44.164062 40.363281 44.164062 L 43.453125 39.851562 C 45.683594 36.488281 47.953125 33.921875 50.265625 32.15625 C 52.410156 30.554688 56.929688 28.542969 63.824219 26.121094 L 72.023438 23.226562 L 74.863281 27.046875 C 77.175781 30.164062 78.625 32.382812 79.214844 33.695312 L 80.035156 37.761719 L 80.097656 37.945312 L 80.035156 39.054688 L 80.160156 48.289062 L 78.519531 58.570312 L 78.015625 58.511719 C 77.089844 58.511719 75.621094 59.125 73.601562 60.359375 C 71.035156 62.082031 68.933594 63.394531 67.292969 64.296875 C 65.613281 65.203125 63.59375 65.980469 61.238281 66.636719 L 56.320312 67.378906 C 54.386719 67.664062 53.417969 68.054688 53.417969 68.546875 L 53.671875 68.976562 L 53.734375 69.410156 L 59.347656 69.101562 L 65.65625 68.855469 L 71.015625 65.589844 C 73.035156 64.484375 75.304688 63.539062 77.828125 62.757812 L 77.699219 63.25 C 75.179688 71.914062 72.257812 78.277344 68.933594 82.339844 C 63.847656 88.621094 56.78125 91.761719 47.742188 91.761719 L 47.175781 91.574219 L 47.871094 91.023438 C 47.871094 90.816406 45.976562 89.976562 42.191406 88.496094 L 38.597656 85.601562 L 31.03125 79.261719 C 28.464844 77.289062 26.277344 74.601562 24.472656 71.195312 L 22.453125 67.4375 C 23.671875 68.21875 25.207031 68.609375 27.054688 68.609375 L 30.777344 68.175781 C 32.375 67.847656 33.175781 67.5625 33.175781 67.316406 C 33.175781 66.988281 31.914062 66.617188 29.390625 66.207031 C 28.253906 66 27.140625 65.570312 26.046875 64.914062 C 25.710938 64.585938 24.914062 64.113281 23.652344 63.496094 L 21.757812 62.757812 C 21.96875 62.59375 22.09375 62.183594 22.136719 61.527344 L 22.136719 60.234375 L 21.820312 51.246094 C 21.820312 44.921875 22.136719 40.265625 22.769531 37.265625 L 24.21875 30.371094 C 24.640625 29.304688 25.605469 27.929688 27.121094 26.246094 C 28.253906 25.015625 28.90625 24.152344 29.074219 23.660156 M 57.394531 51.367188 L 56.886719 51.121094 C 55.164062 51.121094 54.300781 52.90625 54.300781 56.476562 C 54.300781 60.664062 55.984375 62.757812 59.347656 62.757812 C 62.964844 62.757812 64.332031 61.136719 63.449219 57.894531 C 64.121094 53.339844 62.734375 51.058594 59.285156 51.058594 L 57.394531 51.367188 M 45.03125 67.128906 C 45.074219 66.71875 44.84375 66.515625 44.335938 66.515625 L 40.363281 68.363281 C 39.734375 66.71875 38.996094 65.898438 38.15625 65.898438 C 37.777344 65.898438 37.589844 66.105469 37.589844 66.515625 L 39.796875 69.46875 C 39.628906 69.675781 39.542969 70.085938 39.542969 70.703125 L 39.984375 74.828125 L 38.03125 74.828125 C 36.601562 74.828125 35.320312 75.113281 34.183594 75.691406 C 33.34375 76.140625 32.921875 76.46875 32.921875 76.675781 C 32.921875 77.042969 33.195312 77.230469 33.742188 77.230469 L 34.6875 76.675781 C 35.066406 76.265625 36.136719 76.058594 37.90625 76.058594 L 40.996094 76.058594 L 41.246094 75.691406 L 49.003906 76.304688 C 50.726562 76.386719 51.757812 76.714844 52.09375 77.289062 C 53.105469 79.097656 54.15625 80 55.25 80 C 55.585938 80 55.753906 79.816406 55.753906 79.445312 L 53.167969 76.796875 L 52.15625 75.441406 L 49.636719 75.136719 L 43.707031 74.828125 L 41.375 74.949219 L 41.5 74.644531 L 41.058594 74.703125 L 40.933594 71.996094 C 40.847656 70.84375 40.722656 70.066406 40.554688 69.65625 C 43.539062 68.628906 45.03125 67.789062 45.03125 67.128906 M 32.480469 52.96875 C 32.144531 51.902344 31.765625 51.367188 31.34375 51.367188 C 29.242188 51.367188 27.980469 53.605469 27.5625 58.078125 C 28.066406 61.199219 29.160156 62.757812 30.839844 62.757812 C 31.808594 62.757812 32.585938 62.144531 33.175781 60.910156 C 33.59375 60.050781 33.804688 59.3125 33.804688 58.695312 C 33.804688 56.808594 33.59375 55.574219 33.175781 55 L 32.480469 52.96875 "/>
<path style=" stroke:none;fill-rule:evenodd;fill:rgb(67.450982%,65.098041%,69.803923%);fill-opacity:1;" d="M 29.074219 23.660156 C 28.90625 24.152344 28.253906 25.015625 27.121094 26.246094 C 25.605469 27.929688 24.640625 29.304688 24.21875 30.371094 L 22.769531 37.265625 C 22.136719 40.265625 21.820312 44.921875 21.820312 51.246094 L 22.136719 60.234375 L 22.136719 61.527344 C 22.09375 62.183594 21.96875 62.59375 21.757812 62.757812 L 21.570312 62.757812 L 21.316406 62.574219 L 18.859375 62.203125 L 18.039062 62.265625 L 17.597656 58.941406 L 17.910156 52.90625 C 18.417969 52.167969 18.648438 49.664062 18.605469 45.394531 L 18.667969 33.449219 C 19.132812 28.730469 20.707031 25.445312 23.398438 23.597656 L 28.824219 19.65625 L 28.757812 20.519531 L 29.011719 23.351562 L 29.074219 23.414062 L 29.074219 23.660156 M 22.453125 67.4375 L 24.472656 71.195312 C 26.277344 74.601562 28.464844 77.289062 31.03125 79.261719 L 38.597656 85.601562 L 42.191406 88.496094 C 45.976562 89.976562 47.871094 90.816406 47.871094 91.023438 L 47.175781 91.574219 L 46.921875 91.574219 L 44.90625 91.144531 L 44.148438 91.144531 C 41.75 91.144531 39.734375 90.488281 38.09375 89.175781 L 35.382812 87.140625 C 35.085938 87.140625 34.898438 87.246094 34.8125 87.449219 C 33.300781 86.300781 31.492188 84.515625 29.390625 82.09375 C 25.5625 78.480469 23.167969 75.894531 22.199219 74.335938 L 19.675781 70.515625 C 18.753906 69.039062 18.269531 67.789062 18.226562 66.761719 L 18.226562 65.714844 L 18.417969 65.714844 C 20.015625 66 21.042969 66.308594 21.507812 66.636719 L 21.757812 66.882812 L 22.074219 66.761719 L 22.453125 67.4375 "/>
<path style=" stroke:none;fill-rule:evenodd;fill:rgb(68.627453%,27.058825%,27.058825%);fill-opacity:1;" d="M 30.589844 23.96875 L 31.472656 24.152344 C 31.890625 24.152344 32.585938 23.804688 33.550781 23.105469 C 34.140625 22.734375 35.296875 22.429688 37.019531 22.179688 C 39.921875 20.949219 45.347656 20.335938 53.292969 20.335938 C 60.148438 20.335938 65.800781 21.132812 70.257812 22.734375 L 70.449219 22.734375 C 65.277344 24.746094 62.164062 25.875 61.113281 26.121094 C 56.238281 27.4375 52.453125 29.035156 49.761719 30.925781 C 46.101562 33.46875 42.949219 37.410156 40.300781 42.746094 L 32.796875 30.800781 C 31.578125 28.789062 30.863281 26.777344 30.652344 24.769531 L 30.589844 23.96875 M 78.394531 59.3125 L 78.015625 61.835938 L 77.890625 61.835938 C 76.460938 61.835938 73.707031 62.921875 69.628906 65.097656 C 68.578125 65.550781 67.566406 66.1875 66.601562 67.007812 C 66.054688 67.417969 65.277344 67.644531 64.265625 67.683594 L 61.808594 67.808594 C 63.910156 67.152344 66.160156 66.207031 68.554688 64.976562 C 70.027344 64.15625 71.519531 63.085938 73.035156 61.773438 C 73.707031 61.238281 75.492188 60.417969 78.394531 59.3125 M 22.011719 65.53125 L 22.136719 64.484375 L 22.199219 64.113281 C 23.082031 64.402344 23.652344 64.648438 23.902344 64.851562 C 26.761719 66.414062 28.484375 67.234375 29.074219 67.316406 L 28.507812 67.4375 C 26.152344 67.4375 24.175781 66.925781 22.578125 65.898438 L 22.011719 65.53125 "/>
<path style=" stroke:none;fill-rule:evenodd;fill:rgb(41.568628%,17.254902%,19.215687%);fill-opacity:1;" d="M 70.449219 22.734375 L 70.257812 22.734375 C 65.800781 21.132812 60.148438 20.335938 53.292969 20.335938 C 45.347656 20.335938 39.921875 20.949219 37.019531 22.179688 C 35.296875 22.429688 34.140625 22.734375 33.550781 23.105469 C 32.585938 23.804688 31.890625 24.152344 31.472656 24.152344 L 30.589844 23.96875 L 30.398438 23.660156 L 30.589844 23.597656 C 30.292969 21.09375 29.980469 19.574219 29.640625 19.042969 C 30.777344 18.300781 32.1875 17.707031 33.867188 17.253906 L 41.375 15.714844 L 53.988281 15.59375 C 57.054688 15.59375 60.421875 16.371094 64.078125 17.933594 C 66.222656 18.835938 68.113281 19.921875 69.753906 21.195312 C 70.804688 21.523438 71.332031 21.851562 71.332031 22.179688 C 71.332031 22.511719 71.035156 22.695312 70.449219 22.734375 M 22.011719 65.53125 L 21.695312 65.714844 C 21.191406 65.714844 20.9375 65.46875 20.9375 64.976562 C 19.972656 64.523438 19.046875 64.296875 18.164062 64.296875 L 18.101562 63.066406 L 18.164062 63.066406 C 19.003906 63.027344 19.972656 63.25 21.066406 63.742188 L 21.570312 63.375 C 21.90625 63.375 22.09375 63.558594 22.136719 63.929688 L 22.199219 64.113281 L 22.136719 64.484375 L 22.011719 65.53125 "/>
</g>
</svg>
