<?xml version="1.0" encoding="UTF-8"?>
<svg xmlns="http://www.w3.org/2000/svg" xmlns:xlink="http://www.w3.org/1999/xlink" width="97px" height="214px" viewBox="0 0 97 214" version="1.1">
<g id="surface1">
<path style=" stroke:none;fill-rule:evenodd;fill:rgb(89.411765%,89.411765%,89.411765%);fill-opacity:1;" d="M 72.214844 22.921875 L 72.65625 23.90625 L 74.863281 27.046875 C 77.175781 30.164062 78.625 32.382812 79.214844 33.695312 L 80.035156 37.761719 L 80.097656 37.945312 L 80.035156 39.054688 L 80.160156 48.289062 L 79.71875 51.058594 L 79.65625 51.058594 C 77.554688 52.660156 76.207031 53.503906 75.621094 53.585938 L 73.414062 54.632812 L 72.152344 54.9375 L 71.078125 55.246094 L 70.386719 55.429688 L 60.484375 55.617188 L 59.347656 55.800781 C 59.136719 53.707031 57.917969 52.660156 55.691406 52.660156 C 53.546875 52.660156 52.367188 53.871094 52.15625 56.292969 C 51.988281 58.675781 53.039062 59.863281 55.3125 59.863281 C 58.003906 59.863281 59.347656 59.003906 59.347656 57.277344 L 59.410156 56.539062 L 59.914062 56.664062 L 65.402344 56.785156 L 71.960938 56.601562 L 73.664062 55.863281 L 74.800781 55.246094 L 77.132812 54.632812 L 79.46875 52.660156 L 78.898438 56.539062 L 78.960938 57.464844 C 78.582031 59.804688 78.164062 61.589844 77.699219 62.820312 L 77.828125 62.757812 L 77.828125 62.820312 L 77.699219 63.25 C 75.179688 71.914062 72.257812 78.277344 68.933594 82.339844 C 63.847656 88.621094 56.78125 91.761719 47.742188 91.761719 L 47.175781 91.574219 L 47.871094 91.023438 C 47.871094 90.855469 46.753906 90.324219 44.527344 89.421875 C 55.164062 82.894531 60.484375 79.324219 60.484375 78.707031 C 60.484375 78.417969 60.355469 78.253906 60.105469 78.214844 L 60.484375 77.230469 C 60.609375 76.734375 60.484375 76.449219 60.105469 76.367188 L 58.652344 72.054688 L 56.699219 67.378906 L 53.167969 62.390625 C 49.761719 59.722656 48.058594 58.039062 48.058594 57.339844 L 50.707031 54.136719 L 50.519531 55.183594 C 50.519531 55.515625 50.75 55.679688 51.210938 55.679688 C 51.882812 55.679688 52.199219 54.980469 52.15625 53.585938 L 54.367188 52.414062 C 55.164062 52.128906 55.5625 51.859375 55.5625 51.613281 C 55.648438 51.246094 55.332031 51.058594 54.617188 51.058594 C 53.902344 51.058594 53.1875 51.328125 52.472656 51.859375 C 53.609375 50.257812 54.175781 48.988281 54.175781 48.042969 L 54.175781 46.625 L 53.230469 37.574219 C 52.851562 35.152344 52.328125 33.65625 51.652344 33.082031 C 50.644531 32.300781 48.6875 31.070312 45.789062 29.386719 L 45.789062 29.261719 C 45.789062 28.441406 43.726562 28.03125 39.605469 28.03125 C 37.335938 28.03125 35.214844 28.441406 33.238281 29.261719 L 31.34375 30.308594 L 31.09375 30.125 C 29.664062 30.125 29.117188 32.648438 29.453125 37.699219 C 29.453125 41.558594 29.746094 45.085938 30.335938 48.289062 L 30.714844 50.9375 L 31.21875 52.230469 L 30.082031 52.046875 C 29.664062 52.046875 29.453125 52.25 29.453125 52.660156 C 29.453125 52.949219 29.832031 53.257812 30.589844 53.585938 C 31.304688 53.953125 31.660156 54.386719 31.660156 54.878906 C 31.410156 55.738281 31.617188 56.171875 32.292969 56.171875 C 32.796875 56.171875 33.046875 55.902344 33.046875 55.371094 L 32.984375 54.691406 L 34.878906 57.832031 L 32.226562 59.925781 C 30.503906 61.609375 29.367188 63.128906 28.824219 64.484375 L 27.308594 67.929688 C 26.636719 69.410156 26.300781 70.597656 26.300781 71.503906 C 26.132812 72.773438 26.257812 73.597656 26.679688 73.964844 C 26.847656 74.582031 28.695312 76.652344 32.226562 80.183594 L 31.03125 79.261719 C 28.464844 77.289062 26.277344 74.601562 24.472656 71.195312 L 22.769531 67.992188 L 22.769531 67.871094 C 22.136719 66.226562 21.820312 65.058594 21.820312 64.359375 L 22.011719 62.390625 L 22.136719 61.527344 L 22.136719 60.234375 L 22.011719 57.464844 L 23.210938 57.523438 L 25.417969 57.339844 C 25.585938 59.023438 26.46875 59.863281 28.066406 59.863281 C 30.125 59.863281 31.15625 58.367188 31.15625 55.371094 C 31.15625 54.179688 30.105469 53.585938 28.003906 53.585938 C 26.238281 53.585938 25.355469 54.507812 25.355469 56.355469 L 21.949219 56.046875 L 21.820312 51.246094 L 22.136719 42.253906 L 23.144531 44.164062 L 25.417969 46.566406 C 26.71875 47.714844 27.582031 48.289062 28.003906 48.289062 C 28.421875 48.289062 28.632812 48.082031 28.632812 47.671875 C 26.953125 43.652344 26.109375 39.957031 26.109375 36.589844 C 26.109375 35.523438 26.574219 33.164062 27.5 29.507812 L 26.992188 26.367188 L 27.121094 26.246094 C 28.253906 25.015625 28.90625 24.152344 29.074219 23.660156 L 29.074219 23.597656 L 34.058594 20.457031 L 37.398438 18.671875 C 39.332031 17.523438 40.300781 16.804688 40.300781 16.515625 C 40.386719 16.1875 40.195312 16.003906 39.734375 15.960938 L 41.375 15.714844 L 53.988281 15.59375 C 57.054688 15.59375 60.421875 16.371094 64.078125 17.933594 L 66.097656 18.855469 C 65.253906 19.265625 63.636719 21.320312 61.238281 25.015625 C 59.179688 28.175781 58.148438 30.308594 58.148438 31.417969 C 58.148438 32.363281 58.949219 33.921875 60.546875 36.097656 L 63.511719 40.285156 C 63.929688 41.226562 64.289062 43.054688 64.582031 45.765625 C 64.835938 48.0625 65.085938 49.210938 65.339844 49.210938 C 66.304688 49.210938 67.253906 47.449219 68.175781 43.917969 C 68.597656 42.152344 68.808594 40.324219 68.808594 38.4375 C 68.808594 36.917969 68.386719 35.503906 67.546875 34.1875 C 66.707031 32.875 66.285156 31.703125 66.285156 30.679688 C 66.285156 28.871094 67.378906 27.066406 69.566406 25.261719 L 72.214844 22.921875 M 36.894531 29.507812 L 39.605469 29.261719 L 44.335938 29.816406 L 44.464844 29.816406 L 47.238281 31.726562 L 50.898438 33.941406 C 51.652344 34.722656 52.074219 36.382812 52.15625 38.929688 C 52.15625 41.105469 52.304688 42.746094 52.597656 43.855469 L 52.851562 46.8125 L 52.976562 47.796875 C 52.640625 49.519531 51.589844 51.449219 49.824219 53.585938 L 46.734375 57.21875 C 46.734375 57.957031 47.890625 59.25 50.203125 61.097656 C 52.851562 63.273438 54.617188 65.367188 55.5 67.378906 L 57.835938 72.609375 L 58.589844 75.628906 L 59.09375 77.289062 L 57.457031 79.074219 C 56.824219 79.734375 55.964844 80.246094 54.871094 80.617188 L 52.09375 81.601562 L 41.5625 85.046875 L 40.804688 83.261719 C 40.257812 82.238281 39.984375 80.945312 39.984375 79.382812 L 39.984375 78.03125 L 40.113281 76.121094 L 40.113281 75.8125 L 40.238281 74.890625 L 41.878906 70.210938 C 41.878906 69.800781 41.667969 69.59375 41.246094 69.59375 C 39.945312 69.59375 39.164062 71.933594 38.914062 76.613281 L 38.789062 77.722656 L 38.597656 80.492188 L 38.660156 81.722656 L 38.535156 81.601562 C 37.148438 79.835938 36.222656 78.441406 35.761719 77.414062 L 33.804688 73.71875 L 32.417969 70.210938 C 32.417969 69.222656 33.132812 67.601562 34.5625 65.34375 C 35.949219 63.085938 36.644531 61.445312 36.644531 60.417969 L 36.644531 59.3125 C 36.601562 58.652344 36.453125 58.304688 36.203125 58.265625 L 36.203125 58.078125 L 36.136719 57.710938 L 36.390625 57.832031 C 36.683594 57.832031 36.832031 57.277344 36.832031 56.171875 C 36.832031 54.488281 35.570312 48.578125 33.046875 38.4375 C 33.046875 36.425781 34.625 33.632812 37.777344 30.0625 L 36.894531 29.507812 M 33.804688 73.71875 C 34.773438 75.238281 35.527344 75.996094 36.074219 75.996094 C 36.371094 75.996094 36.515625 75.75 36.515625 75.257812 L 34.371094 72.980469 C 33.996094 72.980469 33.804688 73.226562 33.804688 73.71875 M 45.789062 73.597656 C 45.410156 73.597656 44.84375 73.902344 44.085938 74.519531 L 43.011719 75.628906 C 43.011719 75.996094 43.328125 76.183594 43.960938 76.183594 L 45.285156 75.441406 L 46.417969 74.210938 C 46.417969 73.800781 46.207031 73.597656 45.789062 73.597656 M 41.058594 66.945312 C 40.933594 67.4375 41.164062 67.683594 41.75 67.683594 C 42.257812 67.683594 42.507812 67.128906 42.507812 66.023438 C 42.632812 65.53125 42.445312 65.285156 41.941406 65.285156 C 41.351562 65.285156 41.058594 65.835938 41.058594 66.945312 M 42.445312 56.601562 L 41.75 56.664062 L 41.6875 57.15625 L 42.003906 57.957031 L 41.75 59.925781 C 41.625 61.199219 41.878906 61.835938 42.507812 61.835938 C 42.761719 61.835938 42.972656 60.480469 43.140625 57.769531 C 43.265625 56.992188 43.035156 56.601562 42.445312 56.601562 "/>
<path style=" stroke:none;fill-rule:evenodd;fill:rgb(3.137255%,6.27451%,7.058824%);fill-opacity:1;" d="M 72.78125 22.179688 L 73.222656 22.675781 L 75.621094 25.691406 L 80.160156 32.832031 L 80.601562 33.820312 L 80.792969 33.574219 L 81.738281 36.40625 C 81.609375 49.871094 80.582031 59.25 78.648438 64.542969 C 77.933594 68.035156 77.15625 70.621094 76.3125 72.304688 L 72.84375 79.875 C 71.5 82.09375 69.566406 84.269531 67.042969 86.402344 C 61.996094 90.753906 56.40625 92.929688 50.265625 92.929688 L 44.652344 92.316406 L 44.273438 92.316406 C 41.878906 92.316406 40.195312 92.007812 39.230469 91.390625 L 37.90625 90.160156 L 37.273438 89.726562 L 37.148438 89.726562 C 35.339844 89.726562 33.363281 88.597656 31.21875 86.34375 L 27.875 82.402344 L 20.9375 74.644531 C 18.878906 72.507812 17.53125 69.386719 16.902344 65.285156 L 16.460938 64.851562 L 16.777344 64.484375 L 16.460938 59.125 L 16.839844 51.613281 L 16.523438 50.503906 L 16.902344 49.890625 L 17.40625 42.4375 L 17.46875 32.339844 L 18.792969 27.414062 L 19.363281 26.246094 L 19.300781 26.492188 L 20.246094 27.414062 C 19.445312 29.058594 18.921875 31.070312 18.667969 33.449219 L 18.605469 45.394531 C 18.648438 49.664062 18.417969 52.167969 17.910156 52.90625 L 17.847656 54.691406 L 17.53125 54.507812 C 17.027344 54.507812 16.777344 54.714844 16.777344 55.125 C 16.777344 55.410156 17.113281 55.738281 17.785156 56.109375 L 17.597656 58.941406 L 18.039062 62.265625 L 18.101562 62.265625 L 17.976562 64.851562 L 18.226562 66.578125 L 18.226562 66.761719 C 18.269531 67.789062 18.753906 69.039062 19.675781 70.515625 L 22.199219 74.335938 C 23.167969 75.894531 25.5625 78.480469 29.390625 82.09375 C 31.492188 84.515625 33.300781 86.300781 34.8125 87.449219 C 34.898438 87.246094 35.085938 87.140625 35.382812 87.140625 L 38.09375 89.175781 C 39.734375 90.488281 41.75 91.144531 44.148438 91.144531 L 44.90625 91.144531 L 46.921875 91.574219 L 47.175781 91.574219 L 47.742188 91.761719 C 56.78125 91.761719 63.847656 88.621094 68.933594 82.339844 C 72.257812 78.277344 75.179688 71.914062 77.699219 63.25 L 77.828125 62.820312 L 77.828125 62.757812 L 77.699219 62.820312 C 78.164062 61.589844 78.582031 59.804688 78.960938 57.464844 L 78.898438 56.539062 L 79.46875 52.660156 L 80.351562 51.613281 C 80.390625 51.246094 80.179688 51.058594 79.71875 51.058594 L 80.160156 48.289062 L 80.035156 39.054688 L 80.097656 37.945312 L 80.035156 37.761719 L 79.214844 33.695312 C 78.625 32.382812 77.175781 30.164062 74.863281 27.046875 L 72.65625 23.90625 L 72.214844 22.921875 L 72.78125 22.179688 M 19.488281 25.9375 C 20.289062 24.625 21.402344 23.472656 22.832031 22.488281 L 29.011719 17.808594 C 31.996094 15.550781 38.660156 14.421875 49.003906 14.421875 C 55.4375 14.421875 60.609375 15.183594 64.519531 16.703125 C 67.378906 17.808594 69.902344 19.410156 72.085938 21.503906 L 72.023438 21.503906 L 71.394531 21.996094 L 71.078125 21.75 L 69.753906 21.195312 L 67.105469 19.410156 C 67.148438 19 66.894531 18.796875 66.347656 18.796875 L 66.097656 18.855469 L 64.078125 17.933594 C 60.421875 16.371094 57.054688 15.59375 53.988281 15.59375 L 41.375 15.714844 L 39.734375 15.960938 L 39.480469 15.960938 L 38.851562 16.148438 L 33.867188 17.253906 C 32.4375 17.625 31.21875 18.117188 30.210938 18.734375 L 28.824219 19.535156 L 28.632812 19.78125 L 24.976562 22.488281 L 23.777344 22.121094 C 23.355469 22.121094 23.144531 22.324219 23.144531 22.734375 L 23.777344 23.351562 L 23.398438 23.597656 C 22.390625 24.296875 21.546875 25.199219 20.875 26.308594 L 19.867188 25.875 L 19.488281 25.9375 "/>
<path style=" stroke:none;fill-rule:evenodd;fill:rgb(67.450982%,65.098041%,69.803923%);fill-opacity:1;" d="M 47.175781 91.574219 L 46.921875 91.574219 L 44.90625 91.144531 L 44.148438 91.144531 C 41.75 91.144531 39.734375 90.488281 38.09375 89.175781 L 35.382812 87.140625 C 35.085938 87.140625 34.898438 87.246094 34.8125 87.449219 C 33.300781 86.300781 31.492188 84.515625 29.390625 82.09375 C 25.5625 78.480469 23.167969 75.894531 22.199219 74.335938 L 19.675781 70.515625 C 18.753906 69.039062 18.269531 67.789062 18.226562 66.761719 L 18.226562 66.578125 L 17.976562 64.851562 L 18.101562 62.265625 L 18.039062 62.265625 L 17.597656 58.941406 L 17.785156 56.109375 L 18.417969 56.476562 C 19.507812 57.011719 20.707031 57.339844 22.011719 57.464844 L 22.136719 60.234375 L 22.136719 61.527344 L 22.011719 62.390625 L 21.820312 64.359375 C 21.820312 65.058594 22.136719 66.226562 22.769531 67.871094 L 22.769531 67.992188 L 24.472656 71.195312 C 26.277344 74.601562 28.464844 77.289062 31.03125 79.261719 L 32.226562 80.183594 C 33.363281 81.085938 34.960938 82.441406 37.019531 84.25 C 38.703125 85.519531 39.816406 86.15625 40.363281 86.15625 L 40.679688 86.15625 C 42.824219 86.15625 47.050781 84.863281 53.355469 82.277344 L 54.617188 81.722656 L 59.914062 78.152344 L 60.105469 78.214844 C 60.355469 78.253906 60.484375 78.417969 60.484375 78.707031 C 60.484375 79.324219 55.164062 82.894531 44.527344 89.421875 C 46.753906 90.324219 47.871094 90.855469 47.871094 91.023438 L 47.175781 91.574219 M 17.847656 54.691406 L 17.910156 52.90625 C 18.417969 52.167969 18.648438 49.664062 18.605469 45.394531 L 18.667969 33.449219 C 18.921875 31.070312 19.445312 29.058594 20.246094 27.414062 C 22.347656 29.632812 23.398438 31.128906 23.398438 31.910156 C 22.179688 35.195312 21.570312 37.738281 21.570312 39.546875 L 22.136719 42.253906 L 21.820312 51.246094 L 21.949219 56.046875 L 20.117188 55.863281 C 19.867188 55.78125 19.109375 55.390625 17.847656 54.691406 M 39.734375 15.960938 C 40.195312 16.003906 40.386719 16.1875 40.300781 16.515625 C 40.300781 16.804688 39.332031 17.523438 37.398438 18.671875 L 34.058594 20.457031 L 29.074219 23.597656 L 29.074219 23.660156 C 28.90625 24.152344 28.253906 25.015625 27.121094 26.246094 L 26.992188 26.367188 C 26.53125 24.355469 25.859375 23.0625 24.976562 22.488281 L 28.632812 19.78125 L 28.824219 19.535156 L 30.210938 18.734375 C 31.21875 18.117188 32.4375 17.625 33.867188 17.253906 L 38.851562 16.148438 L 39.480469 15.960938 L 39.734375 15.960938 M 36.894531 29.507812 L 37.777344 30.0625 C 34.625 33.632812 33.046875 36.425781 33.046875 38.4375 C 35.570312 48.578125 36.832031 54.488281 36.832031 56.171875 C 36.832031 57.277344 36.683594 57.832031 36.390625 57.832031 L 36.136719 57.710938 L 35.570312 56.292969 L 34.058594 53.890625 C 32.5 51.714844 31.640625 49.765625 31.472656 48.042969 L 30.652344 37.820312 L 30.652344 34.3125 C 30.652344 33.164062 30.820312 32.238281 31.15625 31.539062 L 31.472656 31.539062 C 33.152344 30.515625 34.960938 29.835938 36.894531 29.507812 M 36.203125 58.265625 C 36.453125 58.304688 36.601562 58.652344 36.644531 59.3125 L 36.644531 60.417969 C 36.644531 61.445312 35.949219 63.085938 34.5625 65.34375 C 33.132812 67.601562 32.417969 69.222656 32.417969 70.210938 L 33.804688 73.71875 L 35.761719 77.414062 C 36.222656 78.441406 37.148438 79.835938 38.535156 81.601562 L 38.660156 81.722656 L 38.789062 83.261719 L 35.507812 80.984375 L 35.253906 81.046875 L 33.488281 79.628906 C 30.882812 77.453125 28.96875 75.546875 27.75 73.902344 L 27.8125 73.535156 L 27.5 71.5625 L 29.957031 64.976562 L 32.417969 61.589844 C 33.007812 60.5625 34.015625 59.597656 35.445312 58.695312 C 35.570312 58.367188 35.78125 58.203125 36.074219 58.203125 L 36.203125 58.265625 "/>
<path style=" stroke:none;fill-rule:evenodd;fill:rgb(0%,0%,0%);fill-opacity:1;" d="M 19.363281 26.246094 L 19.363281 26 L 19.488281 25.9375 L 19.867188 25.875 L 20.875 26.308594 L 23.335938 28.953125 L 24.28125 30.246094 L 24.535156 30.617188 L 24.535156 31.972656 C 23.355469 35.296875 22.769531 37.820312 22.769531 39.546875 C 22.769531 40.734375 23.273438 42.070312 24.28125 43.546875 C 25.207031 44.863281 25.984375 45.601562 26.613281 45.765625 C 25.523438 42.273438 24.976562 39.15625 24.976562 36.40625 C 24.976562 34.761719 25.417969 32.445312 26.300781 29.449219 C 26.300781 28.75 26.238281 28.09375 26.109375 27.476562 L 25.605469 26.0625 C 25.5625 25.402344 24.953125 24.5 23.777344 23.351562 L 23.144531 22.734375 C 23.144531 22.324219 23.355469 22.121094 23.777344 22.121094 L 24.976562 22.488281 C 25.859375 23.0625 26.53125 24.355469 26.992188 26.367188 L 27.5 29.507812 C 26.574219 33.164062 26.109375 35.523438 26.109375 36.589844 C 26.109375 39.957031 26.953125 43.652344 28.632812 47.671875 C 28.632812 48.082031 28.421875 48.289062 28.003906 48.289062 C 27.582031 48.289062 26.71875 47.714844 25.417969 46.566406 L 23.144531 44.164062 L 22.136719 42.253906 L 21.570312 39.546875 C 21.570312 37.738281 22.179688 35.195312 23.398438 31.910156 C 23.398438 31.128906 22.347656 29.632812 20.246094 27.414062 L 19.300781 26.492188 L 19.363281 26.246094 M 72.085938 21.503906 C 72.59375 21.503906 72.824219 21.6875 72.78125 22.058594 L 72.78125 22.179688 L 72.214844 22.921875 L 69.566406 25.261719 C 67.378906 27.066406 66.285156 28.871094 66.285156 30.679688 C 66.285156 31.703125 66.707031 32.875 67.546875 34.1875 C 68.386719 35.503906 68.808594 36.917969 68.808594 38.4375 C 68.808594 40.324219 68.597656 42.152344 68.175781 43.917969 C 67.253906 47.449219 66.304688 49.210938 65.339844 49.210938 C 65.085938 49.210938 64.835938 48.0625 64.582031 45.765625 C 64.289062 43.054688 63.929688 41.226562 63.511719 40.285156 L 60.546875 36.097656 C 58.949219 33.921875 58.148438 32.363281 58.148438 31.417969 C 58.148438 30.308594 59.179688 28.175781 61.238281 25.015625 C 63.636719 21.320312 65.253906 19.265625 66.097656 18.855469 L 66.347656 18.796875 C 66.894531 18.796875 67.148438 19 67.105469 19.410156 L 63.257812 24.273438 C 60.652344 27.476562 59.347656 29.835938 59.347656 31.355469 C 59.347656 32.09375 60.0625 33.367188 61.492188 35.171875 L 64.140625 38.621094 C 65.148438 41.003906 65.71875 43.382812 65.84375 45.765625 C 67.019531 43.753906 67.609375 41.351562 67.609375 38.558594 C 67.609375 37.699219 67.1875 36.40625 66.347656 34.679688 C 65.507812 32.957031 65.085938 31.683594 65.085938 30.863281 C 65.085938 28.8125 65.761719 27.148438 67.105469 25.875 L 71.394531 21.996094 L 72.023438 21.503906 L 72.085938 21.503906 M 79.71875 51.058594 C 80.179688 51.058594 80.390625 51.246094 80.351562 51.613281 L 79.46875 52.660156 L 77.132812 54.632812 L 74.800781 55.246094 L 73.664062 55.863281 L 71.960938 56.601562 L 65.402344 56.785156 L 59.914062 56.664062 L 59.410156 56.539062 L 59.347656 57.277344 C 59.347656 59.003906 58.003906 59.863281 55.3125 59.863281 C 53.039062 59.863281 51.988281 58.675781 52.15625 56.292969 C 52.367188 53.871094 53.546875 52.660156 55.691406 52.660156 C 57.917969 52.660156 59.136719 53.707031 59.347656 55.800781 L 60.484375 55.617188 L 70.386719 55.429688 L 71.078125 55.246094 L 72.152344 54.9375 L 73.414062 54.632812 L 75.621094 53.585938 C 76.207031 53.503906 77.554688 52.660156 79.65625 51.058594 L 79.71875 51.058594 M 17.785156 56.109375 C 17.113281 55.738281 16.777344 55.410156 16.777344 55.125 C 16.777344 54.714844 17.027344 54.507812 17.53125 54.507812 L 17.847656 54.691406 C 19.109375 55.390625 19.867188 55.78125 20.117188 55.863281 L 21.949219 56.046875 L 25.355469 56.355469 C 25.355469 54.507812 26.238281 53.585938 28.003906 53.585938 C 30.105469 53.585938 31.15625 54.179688 31.15625 55.371094 C 31.15625 58.367188 30.125 59.863281 28.066406 59.863281 C 26.46875 59.863281 25.585938 59.023438 25.417969 57.339844 L 23.210938 57.523438 L 22.011719 57.464844 C 20.707031 57.339844 19.507812 57.011719 18.417969 56.476562 L 17.785156 56.109375 M 32.226562 80.183594 C 28.695312 76.652344 26.847656 74.582031 26.679688 73.964844 C 26.257812 73.597656 26.132812 72.773438 26.300781 71.503906 C 26.300781 70.597656 26.636719 69.410156 27.308594 67.929688 L 28.824219 64.484375 C 29.367188 63.128906 30.503906 61.609375 32.226562 59.925781 L 34.878906 57.832031 L 32.984375 54.691406 L 33.046875 55.371094 C 33.046875 55.902344 32.796875 56.171875 32.292969 56.171875 C 31.617188 56.171875 31.410156 55.738281 31.660156 54.878906 C 31.660156 54.386719 31.304688 53.953125 30.589844 53.585938 C 29.832031 53.257812 29.453125 52.949219 29.453125 52.660156 C 29.453125 52.25 29.664062 52.046875 30.082031 52.046875 L 31.21875 52.230469 L 30.714844 50.9375 L 30.335938 48.289062 C 29.746094 45.085938 29.453125 41.558594 29.453125 37.699219 C 29.117188 32.648438 29.664062 30.125 31.09375 30.125 L 31.34375 30.308594 L 33.238281 29.261719 C 35.214844 28.441406 37.335938 28.03125 39.605469 28.03125 C 43.726562 28.03125 45.789062 28.441406 45.789062 29.261719 L 45.789062 29.386719 C 48.6875 31.070312 50.644531 32.300781 51.652344 33.082031 C 52.328125 33.65625 52.851562 35.152344 53.230469 37.574219 L 54.175781 46.625 L 54.175781 48.042969 C 54.175781 48.988281 53.609375 50.257812 52.472656 51.859375 C 53.1875 51.328125 53.902344 51.058594 54.617188 51.058594 C 55.332031 51.058594 55.648438 51.246094 55.5625 51.613281 C 55.5625 51.859375 55.164062 52.128906 54.367188 52.414062 L 52.15625 53.585938 C 52.199219 54.980469 51.882812 55.679688 51.210938 55.679688 C 50.75 55.679688 50.519531 55.515625 50.519531 55.183594 L 50.707031 54.136719 L 48.058594 57.339844 C 48.058594 58.039062 49.761719 59.722656 53.167969 62.390625 L 56.699219 67.378906 L 58.652344 72.054688 L 60.105469 76.367188 C 60.484375 76.449219 60.609375 76.734375 60.484375 77.230469 L 60.105469 78.214844 L 59.914062 78.152344 L 54.617188 81.722656 L 53.355469 82.277344 C 47.050781 84.863281 42.824219 86.15625 40.679688 86.15625 L 40.363281 86.15625 C 39.816406 86.15625 38.703125 85.519531 37.019531 84.25 C 34.960938 82.441406 33.363281 81.085938 32.226562 80.183594 M 38.660156 81.722656 L 38.597656 80.492188 L 38.789062 77.722656 L 38.914062 76.613281 C 39.164062 71.933594 39.945312 69.59375 41.246094 69.59375 C 41.667969 69.59375 41.878906 69.800781 41.878906 70.210938 L 40.238281 74.890625 L 40.113281 75.8125 L 40.113281 76.121094 L 39.984375 78.03125 L 39.984375 79.382812 C 39.984375 80.945312 40.257812 82.238281 40.804688 83.261719 L 41.5625 85.046875 L 52.09375 81.601562 L 54.871094 80.617188 C 55.964844 80.246094 56.824219 79.734375 57.457031 79.074219 L 59.09375 77.289062 L 58.589844 75.628906 L 57.835938 72.609375 L 55.5 67.378906 C 54.617188 65.367188 52.851562 63.273438 50.203125 61.097656 C 47.890625 59.25 46.734375 57.957031 46.734375 57.21875 L 49.824219 53.585938 C 51.589844 51.449219 52.640625 49.519531 52.976562 47.796875 L 52.851562 46.8125 L 52.597656 43.855469 C 52.304688 42.746094 52.15625 41.105469 52.15625 38.929688 C 52.074219 36.382812 51.652344 34.722656 50.898438 33.941406 L 47.238281 31.726562 L 44.464844 29.816406 L 44.335938 29.816406 L 39.605469 29.261719 L 36.894531 29.507812 C 34.960938 29.835938 33.152344 30.515625 31.472656 31.539062 L 31.15625 31.539062 C 30.820312 32.238281 30.652344 33.164062 30.652344 34.3125 L 30.652344 37.820312 L 31.472656 48.042969 C 31.640625 49.765625 32.5 51.714844 34.058594 53.890625 L 35.570312 56.292969 L 36.136719 57.710938 L 36.203125 58.078125 L 36.203125 58.265625 L 36.074219 58.203125 C 35.78125 58.203125 35.570312 58.367188 35.445312 58.695312 C 34.015625 59.597656 33.007812 60.5625 32.417969 61.589844 L 29.957031 64.976562 L 27.5 71.5625 L 27.8125 73.535156 L 27.75 73.902344 C 28.96875 75.546875 30.882812 77.453125 33.488281 79.628906 L 35.253906 81.046875 L 35.507812 80.984375 L 38.789062 83.261719 L 38.660156 81.722656 M 33.804688 73.71875 C 33.804688 73.226562 33.996094 72.980469 34.371094 72.980469 L 36.515625 75.257812 C 36.515625 75.75 36.371094 75.996094 36.074219 75.996094 C 35.527344 75.996094 34.773438 75.238281 33.804688 73.71875 M 45.789062 73.597656 C 46.207031 73.597656 46.417969 73.800781 46.417969 74.210938 L 45.285156 75.441406 L 43.960938 76.183594 C 43.328125 76.183594 43.011719 75.996094 43.011719 75.628906 L 44.085938 74.519531 C 44.84375 73.902344 45.410156 73.597656 45.789062 73.597656 M 42.445312 56.601562 C 43.035156 56.601562 43.265625 56.992188 43.140625 57.769531 C 42.972656 60.480469 42.761719 61.835938 42.507812 61.835938 C 41.878906 61.835938 41.625 61.199219 41.75 59.925781 L 42.003906 57.957031 L 41.6875 57.15625 L 41.75 56.664062 L 42.445312 56.601562 M 41.058594 66.945312 C 41.058594 65.835938 41.351562 65.285156 41.941406 65.285156 C 42.445312 65.285156 42.632812 65.53125 42.507812 66.023438 C 42.507812 67.128906 42.257812 67.683594 41.75 67.683594 C 41.164062 67.683594 40.933594 67.4375 41.058594 66.945312 "/>
<path style=" stroke:none;fill-rule:evenodd;fill:rgb(9.411765%,27.450982%,57.647061%);fill-opacity:1;" d="M 67.105469 19.410156 L 69.753906 21.195312 L 71.078125 21.75 L 71.394531 21.996094 L 67.105469 25.875 C 65.761719 27.148438 65.085938 28.8125 65.085938 30.863281 C 65.085938 31.683594 65.507812 32.957031 66.347656 34.679688 C 67.1875 36.40625 67.609375 37.699219 67.609375 38.558594 C 67.609375 41.351562 67.019531 43.753906 65.84375 45.765625 C 65.71875 43.382812 65.148438 41.003906 64.140625 38.621094 L 61.492188 35.171875 C 60.0625 33.367188 59.347656 32.09375 59.347656 31.355469 C 59.347656 29.835938 60.652344 27.476562 63.257812 24.273438 L 67.105469 19.410156 M 24.28125 30.246094 L 26.109375 27.476562 C 26.238281 28.09375 26.300781 28.75 26.300781 29.449219 C 25.417969 32.445312 24.976562 34.761719 24.976562 36.40625 C 24.976562 39.15625 25.523438 42.273438 26.613281 45.765625 C 25.984375 45.601562 25.207031 44.863281 24.28125 43.546875 C 23.273438 42.070312 22.769531 40.734375 22.769531 39.546875 C 22.769531 37.820312 23.355469 35.296875 24.535156 31.972656 L 24.535156 30.617188 L 24.28125 30.246094 "/>
<path style=" stroke:none;fill-rule:evenodd;fill:rgb(6.666667%,16.078432%,26.274511%);fill-opacity:1;" d="M 20.875 26.308594 C 21.546875 25.199219 22.390625 24.296875 23.398438 23.597656 L 23.777344 23.351562 C 24.953125 24.5 25.5625 25.402344 25.605469 26.0625 L 26.109375 27.476562 L 24.28125 30.246094 L 23.335938 28.953125 L 20.875 26.308594 "/>
</g>
</svg>
