<?xml version="1.0" encoding="UTF-8"?>
<svg xmlns="http://www.w3.org/2000/svg" xmlns:xlink="http://www.w3.org/1999/xlink" width="97px" height="214px" viewBox="0 0 97 214" version="1.1">
<g id="surface1">
<path style=" stroke:none;fill-rule:evenodd;fill:rgb(0%,0%,0%);fill-opacity:1;" d="M 77.007812 27.90625 L 75.871094 23.042969 C 73.097656 14.054688 68.535156 7.894531 62.1875 4.570312 L 61.679688 4.632812 L 57.328125 4.140625 C 53.417969 4.757812 49.445312 6.109375 45.410156 8.203125 L 38.15625 13.191406 C 35.464844 14.585938 33.34375 16.351562 31.785156 18.488281 C 30.316406 20.867188 29.074219 22.675781 28.066406 23.90625 C 23.273438 29.652344 20.875 36.835938 20.875 45.457031 C 20.832031 49.027344 22.054688 52.046875 24.535156 54.507812 L 24.597656 54.570312 L 24.597656 54.261719 L 24.660156 53.460938 C 23.652344 52.476562 23.316406 49.644531 23.652344 44.964844 C 23.652344 38.519531 24.890625 33.410156 27.371094 29.632812 C 36.203125 20.804688 44.570312 16.414062 52.472656 16.457031 C 61.050781 16.414062 66.644531 21.832031 69.25 32.710938 C 70.257812 37.019531 70.761719 44.308594 70.761719 54.570312 C 70.761719 58.757812 70.53125 61.652344 70.070312 63.25 C 69.398438 65.589844 67.546875 69.039062 64.519531 73.597656 C 57.835938 83.449219 48.414062 88.539062 36.265625 88.867188 L 38.09375 89.667969 L 38.472656 89.667969 L 42.382812 91.207031 L 41.183594 91.023438 L 41.308594 91.269531 L 42.824219 91.328125 C 45.386719 92.109375 47.847656 92.519531 50.203125 92.5625 C 55.542969 92.5625 59.851562 90.980469 63.132812 87.820312 C 64.058594 86.957031 65.402344 85.046875 67.167969 82.09375 C 67.546875 81.355469 68.996094 79.527344 71.519531 76.613281 C 73.582031 74.148438 74.777344 72.199219 75.113281 70.761719 L 78.710938 58.511719 C 79.550781 55.597656 79.972656 52.105469 79.972656 48.042969 L 79.910156 46.933594 L 79.84375 46.933594 C 79.636719 46.894531 79.257812 44.675781 78.710938 40.285156 L 78.582031 39.730469 L 78.582031 39.484375 L 78.394531 37.820312 L 77.511719 31.109375 L 77.511719 30.988281 L 77.324219 27.785156 L 77.007812 27.785156 L 77.007812 27.90625 M 58.148438 2.96875 C 54.367188 1.820312 49.363281 1.246094 43.140625 1.246094 C 37.546875 1.246094 33.59375 1.78125 31.28125 2.847656 L 21.066406 9.558594 L 19.675781 12.207031 L 19.675781 12.390625 L 17.089844 20.949219 L 16.964844 29.261719 C 16.921875 34.96875 17.28125 39.75 18.039062 43.609375 C 18.753906 47.179688 19.363281 49.601562 19.867188 50.875 L 20.875 52.351562 C 20.078125 50.011719 19.675781 47.753906 19.675781 45.578125 C 19.675781 37.820312 22.429688 29.917969 27.941406 21.875 C 34.960938 11.527344 44.546875 5.390625 56.699219 3.464844 C 56.699219 3.175781 57.183594 3.011719 58.148438 2.96875 M 60.105469 38.375 C 57.203125 28.8125 52.054688 24.050781 44.652344 24.089844 C 42.171875 24.050781 38.933594 26.164062 34.941406 30.433594 C 31.449219 34.125 29.472656 36.816406 29.011719 38.5 L 27.5 45.457031 L 28.570312 44.101562 C 31.679688 40.367188 35.003906 38.519531 38.535156 38.558594 C 43.203125 38.519531 46.375 41.125 48.058594 46.378906 C 48.816406 48.84375 49.195312 51.839844 49.195312 55.371094 C 49.195312 57.710938 47.972656 60.316406 45.535156 63.191406 C 41.835938 67.542969 36.558594 69.738281 29.707031 69.777344 C 25.964844 69.738281 21.507812 66.761719 16.335938 60.851562 L 17.785156 65.835938 L 20.054688 71.808594 L 20.246094 71.808594 C 20.328125 71.808594 23.378906 73.65625 29.390625 77.351562 C 34.226562 77.351562 39.503906 76.203125 45.21875 73.902344 C 50.390625 71.808594 54.300781 69.492188 56.953125 66.945312 C 59.558594 64.359375 61.175781 62.101562 61.808594 60.171875 C 62.144531 59.105469 62.332031 56.972656 62.375 53.769531 C 62.332031 48.308594 61.578125 43.179688 60.105469 38.375 M 65.589844 69.839844 C 68.242188 65.121094 69.566406 60.027344 69.566406 54.570312 C 69.816406 48 69.417969 41.679688 68.367188 35.605469 C 66.222656 23.617188 61.847656 17.625 55.25 17.625 C 45.367188 17.582031 37.632812 20.5 32.039062 26.367188 C 27.160156 31.457031 24.742188 37.636719 24.785156 44.902344 L 25.480469 48.597656 L 26.046875 47.550781 C 26.257812 43.445312 27.078125 39.605469 28.507812 36.035156 C 29.515625 33.53125 31.492188 30.863281 34.4375 28.03125 C 38.007812 24.542969 41.375 22.796875 44.527344 22.796875 C 52.597656 22.796875 58.191406 27.886719 61.304688 38.066406 C 62.859375 43.199219 63.59375 48.414062 63.511719 53.707031 C 63.511719 57.03125 63.320312 59.3125 62.941406 60.542969 C 62.1875 62.757812 60.355469 65.261719 57.457031 68.054688 C 47.699219 75.074219 39.164062 78.582031 31.851562 78.582031 C 28.613281 78.582031 25.082031 77.148438 21.253906 74.273438 L 24.21875 79.261719 L 23.964844 79.199219 C 23.546875 79.199219 23.441406 79.242188 23.652344 79.324219 L 25.859375 81.476562 C 28.003906 84.226562 30.019531 86.035156 31.914062 86.894531 L 34.6875 88.1875 C 40.28125 87.777344 45.117188 86.8125 49.195312 85.296875 C 51.378906 84.515625 53.355469 83.261719 55.121094 81.539062 L 63.382812 73.042969 L 64.835938 71.011719 L 65.96875 69.964844 L 65.589844 69.839844 M 80.035156 40.652344 C 80.75 42.664062 81.105469 45.109375 81.105469 47.980469 C 81.066406 53.316406 80.855469 56.972656 80.476562 58.941406 C 80.054688 60.953125 78.582031 65.242188 76.0625 71.808594 C 75.304688 73.699219 72.382812 77.640625 67.292969 83.632812 C 66.371094 85.4375 65.046875 87.164062 63.320312 88.804688 C 59.914062 92.089844 55.921875 93.730469 51.339844 93.730469 L 42.320312 92.929688 L 41.941406 93.054688 C 40.511719 93.054688 37.695312 91.636719 33.488281 88.804688 L 32.796875 88.375 C 28.421875 85.335938 25.269531 82.667969 23.335938 80.371094 C 20.601562 76.960938 18.332031 72.179688 16.523438 66.023438 L 14.882812 59.125 L 14.378906 58.449219 L 14.695312 58.078125 C 13.601562 51.878906 13.054688 44.921875 13.054688 37.207031 L 13.433594 29.941406 L 14.820312 22.613281 C 15.324219 16.742188 17.132812 12.164062 20.246094 8.882812 C 20.457031 7.773438 22.808594 6.191406 27.308594 4.140625 C 28.402344 3.03125 29.558594 2.210938 30.777344 1.675781 C 32.964844 0.570312 37 0.015625 42.886719 0.015625 C 52.683594 0.015625 60.019531 1.535156 64.898438 4.570312 C 69.984375 7.773438 73.917969 13.5625 76.691406 21.933594 C 78.5 27.394531 79.445312 31.5 79.53125 34.25 L 80.035156 40.652344 M 27.246094 47.796875 C 28.085938 47.015625 29.074219 46.648438 30.210938 46.6875 C 32.691406 46.648438 34.605469 47.777344 35.949219 50.074219 C 36.875 51.632812 37.359375 53.03125 37.398438 54.261719 L 37.398438 54.324219 L 37.527344 56.355469 C 37.527344 57.75 36.683594 59.148438 35.003906 60.542969 C 32.734375 62.390625 29.578125 63.3125 25.542969 63.3125 C 23.0625 63.3125 19.613281 60.746094 15.199219 55.617188 L 15.894531 58.816406 L 20.433594 63.25 C 23.925781 66.742188 26.171875 68.484375 27.183594 68.484375 C 34.625 68.484375 40.28125 66.636719 44.148438 62.945312 C 46.753906 60.359375 48.058594 57.832031 48.058594 55.371094 C 48.015625 44.945312 44.863281 39.75 38.597656 39.792969 C 34.6875 39.792969 31.449219 41.578125 28.886719 45.148438 L 27.246094 47.734375 L 27.246094 47.859375 L 27.246094 47.796875 M 35.761719 57.585938 C 34.289062 59.105469 32.394531 59.886719 30.082031 59.925781 C 28.191406 59.886719 26.785156 59.269531 25.859375 58.078125 C 24.511719 57.710938 23.378906 56.847656 22.453125 55.492188 C 21.316406 54.796875 20.371094 53.890625 19.613281 52.785156 C 18.394531 50.9375 17.449219 47.960938 16.777344 43.855469 C 16.105469 39.792969 15.765625 34.988281 15.765625 29.449219 L 15.894531 24.644531 C 15.640625 26.859375 15.285156 29.097656 14.820312 31.355469 C 14.359375 33.449219 14.128906 35.421875 14.128906 37.265625 C 14.128906 43.792969 14.273438 48.390625 14.570312 51.058594 L 14.820312 53.152344 L 14.949219 53.152344 C 20.289062 59.105469 23.398438 62.101562 24.28125 62.144531 C 28.316406 62.101562 31.511719 61.261719 33.867188 59.617188 L 35.886719 57.648438 L 36.265625 56.972656 L 35.761719 57.585938 "/>
<path style=" stroke:none;fill-rule:evenodd;fill:rgb(91.764706%,43.529412%,7.058824%);fill-opacity:1;" d="M 24.535156 54.507812 C 22.054688 52.046875 20.832031 49.027344 20.875 45.457031 C 20.875 36.835938 23.273438 29.652344 28.066406 23.90625 C 29.074219 22.675781 30.316406 20.867188 31.785156 18.488281 C 33.34375 16.351562 35.464844 14.585938 38.15625 13.191406 L 45.410156 8.203125 C 49.445312 6.109375 53.417969 4.757812 57.328125 4.140625 L 61.679688 4.632812 L 62.1875 4.570312 C 68.535156 7.894531 73.097656 14.054688 75.871094 23.042969 L 77.007812 27.90625 C 77.050781 40.878906 75.851562 51.574219 73.414062 59.988281 L 71.078125 67.929688 C 69.902344 70.929688 68.074219 73.636719 65.589844 76.058594 L 57.457031 84.0625 C 55.5625 86.15625 54.113281 87.449219 53.105469 87.941406 C 48.648438 90.035156 45.285156 91.125 43.011719 91.207031 L 42.382812 91.207031 L 38.472656 89.667969 L 38.09375 89.667969 L 36.265625 88.867188 C 48.414062 88.539062 57.835938 83.449219 64.519531 73.597656 C 67.546875 69.039062 69.398438 65.589844 70.070312 63.25 C 70.53125 61.652344 70.761719 58.757812 70.761719 54.570312 C 70.761719 44.308594 70.257812 37.019531 69.25 32.710938 C 66.644531 21.832031 61.050781 16.414062 52.472656 16.457031 C 44.570312 16.414062 36.203125 20.804688 27.371094 29.632812 C 24.890625 33.410156 23.652344 38.519531 23.652344 44.964844 C 23.316406 49.644531 23.652344 52.476562 24.660156 53.460938 L 24.597656 54.261719 L 24.597656 54.507812 L 24.535156 54.507812 M 24.21875 79.261719 L 21.253906 74.273438 C 25.082031 77.148438 28.613281 78.582031 31.851562 78.582031 C 39.164062 78.582031 47.699219 75.074219 57.457031 68.054688 C 60.355469 65.261719 62.1875 62.757812 62.941406 60.542969 C 63.320312 59.3125 63.511719 57.03125 63.511719 53.707031 C 63.59375 48.414062 62.859375 43.199219 61.304688 38.066406 C 58.191406 27.886719 52.597656 22.796875 44.527344 22.796875 C 41.375 22.796875 38.007812 24.542969 34.4375 28.03125 C 31.492188 30.863281 29.515625 33.53125 28.507812 36.035156 C 27.078125 39.605469 26.257812 43.445312 26.046875 47.550781 L 25.480469 48.597656 L 24.785156 44.902344 C 24.742188 37.636719 27.160156 31.457031 32.039062 26.367188 C 37.632812 20.5 45.367188 17.582031 55.25 17.625 C 61.847656 17.625 66.222656 23.617188 68.367188 35.605469 C 69.417969 41.679688 69.816406 48 69.566406 54.570312 C 69.566406 60.027344 68.242188 65.121094 65.589844 69.839844 L 64.960938 69.777344 C 64.5 69.777344 63.617188 70.457031 62.3125 71.808594 L 57.519531 76.304688 C 51.96875 80.65625 45.261719 82.851562 37.398438 82.894531 C 32.734375 82.851562 29.558594 82.441406 27.875 81.664062 L 27.433594 81.476562 L 25.859375 80.246094 L 25.667969 80.0625 L 25.667969 80.121094 L 24.21875 79.261719 M 60.105469 38.375 C 61.578125 43.179688 62.332031 48.308594 62.375 53.769531 C 62.332031 56.972656 62.144531 59.105469 61.808594 60.171875 C 61.175781 62.101562 59.558594 64.359375 56.953125 66.945312 C 54.300781 69.492188 50.390625 71.808594 45.21875 73.902344 C 39.503906 76.203125 34.226562 77.351562 29.390625 77.351562 C 23.378906 73.65625 20.328125 71.808594 20.246094 71.808594 L 20.054688 71.808594 L 17.785156 65.835938 L 16.335938 60.851562 C 21.507812 66.761719 25.964844 69.738281 29.707031 69.777344 C 36.558594 69.738281 41.835938 67.542969 45.535156 63.191406 C 47.972656 60.316406 49.195312 57.710938 49.195312 55.371094 C 49.195312 51.839844 48.816406 48.84375 48.058594 46.378906 C 46.375 41.125 43.203125 38.519531 38.535156 38.558594 C 35.003906 38.519531 31.679688 40.367188 28.570312 44.101562 L 27.5 45.457031 L 29.011719 38.5 C 29.472656 36.816406 31.449219 34.125 34.941406 30.433594 C 38.933594 26.164062 42.171875 24.050781 44.652344 24.089844 C 52.054688 24.050781 57.203125 28.8125 60.105469 38.375 M 58.148438 2.96875 C 57.183594 3.011719 56.699219 3.175781 56.699219 3.464844 C 44.546875 5.390625 34.960938 11.527344 27.941406 21.875 C 22.429688 29.917969 19.675781 37.820312 19.675781 45.578125 C 19.675781 47.753906 20.078125 50.011719 20.875 52.351562 L 19.867188 50.875 C 19.363281 49.601562 18.753906 47.179688 18.039062 43.609375 C 17.28125 39.75 16.921875 34.96875 16.964844 29.261719 L 17.089844 20.949219 L 19.675781 12.390625 L 19.675781 12.207031 L 21.066406 9.558594 L 31.28125 2.847656 C 33.59375 1.78125 37.546875 1.246094 43.140625 1.246094 C 49.363281 1.246094 54.367188 1.820312 58.148438 2.96875 M 27.246094 47.734375 L 28.886719 45.148438 C 31.449219 41.578125 34.6875 39.792969 38.597656 39.792969 C 44.863281 39.75 48.015625 44.945312 48.058594 55.371094 C 48.058594 57.832031 46.753906 60.359375 44.148438 62.945312 C 40.28125 66.636719 34.625 68.484375 27.183594 68.484375 C 26.171875 68.484375 23.925781 66.742188 20.433594 63.25 L 15.894531 58.816406 L 15.199219 55.617188 C 19.613281 60.746094 23.0625 63.3125 25.542969 63.3125 C 29.578125 63.3125 32.734375 62.390625 35.003906 60.542969 C 36.683594 59.148438 37.527344 57.75 37.527344 56.355469 L 37.398438 54.324219 L 37.398438 54.261719 C 37.359375 53.03125 36.875 51.632812 35.949219 50.074219 C 34.605469 47.777344 32.691406 46.648438 30.210938 46.6875 C 29.074219 46.648438 28.085938 47.015625 27.246094 47.796875 L 27.246094 47.734375 M 35.886719 57.648438 L 33.867188 59.617188 C 31.511719 61.261719 28.316406 62.101562 24.28125 62.144531 C 23.398438 62.101562 20.289062 59.105469 14.949219 53.152344 L 14.820312 53.152344 L 14.570312 51.058594 C 14.273438 48.390625 14.128906 43.792969 14.128906 37.265625 C 14.128906 35.421875 14.359375 33.449219 14.820312 31.355469 C 15.285156 29.097656 15.640625 26.859375 15.894531 24.644531 L 15.765625 29.449219 C 15.765625 34.988281 16.105469 39.792969 16.777344 43.855469 C 17.449219 47.960938 18.394531 50.9375 19.613281 52.785156 C 20.371094 53.890625 21.316406 54.796875 22.453125 55.492188 C 23.378906 56.847656 24.511719 57.710938 25.859375 58.078125 C 26.785156 59.269531 28.191406 59.886719 30.082031 59.925781 C 32.394531 59.886719 34.289062 59.105469 35.761719 57.585938 L 35.886719 57.648438 "/>
<path style=" stroke:none;fill-rule:evenodd;fill:rgb(53.333336%,16.078432%,0%);fill-opacity:1;" d="M 42.382812 91.207031 L 43.011719 91.207031 C 45.285156 91.125 48.648438 90.035156 53.105469 87.941406 C 54.113281 87.449219 55.5625 86.15625 57.457031 84.0625 L 65.589844 76.058594 C 68.074219 73.636719 69.902344 70.929688 71.078125 67.929688 L 73.414062 59.988281 C 75.851562 51.574219 77.050781 40.878906 77.007812 27.90625 L 77.007812 27.785156 L 77.324219 27.785156 L 77.511719 30.988281 L 77.511719 31.109375 L 78.394531 37.820312 L 78.582031 39.484375 L 78.582031 39.730469 L 78.710938 40.285156 C 79.257812 44.675781 79.636719 46.894531 79.84375 46.933594 L 79.910156 46.933594 L 79.972656 48.042969 C 79.972656 52.105469 79.550781 55.597656 78.710938 58.511719 L 75.113281 70.761719 C 74.777344 72.199219 73.582031 74.148438 71.519531 76.613281 C 68.996094 79.527344 67.546875 81.355469 67.167969 82.09375 C 65.402344 85.046875 64.058594 86.957031 63.132812 87.820312 C 59.851562 90.980469 55.542969 92.5625 50.203125 92.5625 C 47.847656 92.519531 45.386719 92.109375 42.824219 91.328125 L 41.308594 91.269531 L 41.183594 91.023438 L 42.382812 91.207031 M 24.21875 79.261719 L 25.667969 80.121094 L 25.667969 80.0625 L 25.859375 80.246094 L 27.433594 81.476562 L 27.875 81.664062 C 29.558594 82.441406 32.734375 82.851562 37.398438 82.894531 C 45.261719 82.851562 51.96875 80.65625 57.519531 76.304688 L 62.3125 71.808594 C 63.617188 70.457031 64.5 69.777344 64.960938 69.777344 L 65.589844 69.839844 L 65.96875 69.964844 L 64.835938 71.011719 L 63.382812 73.042969 L 55.121094 81.539062 C 53.355469 83.261719 51.378906 84.515625 49.195312 85.296875 C 45.117188 86.8125 40.28125 87.777344 34.6875 88.1875 L 31.914062 86.894531 C 30.019531 86.035156 28.003906 84.226562 25.859375 81.476562 L 23.652344 79.324219 C 23.441406 79.242188 23.546875 79.199219 23.964844 79.199219 L 24.21875 79.261719 "/>
</g>
</svg>
