<?xml version="1.0" encoding="UTF-8"?>
<svg xmlns="http://www.w3.org/2000/svg" xmlns:xlink="http://www.w3.org/1999/xlink" width="97px" height="214px" viewBox="0 0 97 214" version="1.1">
<g id="surface1">
<path style=" stroke:none;fill-rule:evenodd;fill:rgb(20%,20%,20%);fill-opacity:1;" d="M 52.285156 50.691406 L 52.09375 50.445312 C 52.09375 50.035156 52.285156 49.828125 52.664062 49.828125 L 53.230469 50.011719 L 54.554688 49.644531 C 55.648438 48.945312 56.886719 48.597656 58.277344 48.597656 L 60.230469 48.71875 L 60.421875 48.660156 C 62.355469 48.660156 64.078125 49.539062 65.589844 51.304688 L 66.410156 51.921875 C 66.917969 52.539062 67.359375 53.503906 67.734375 54.816406 L 67.734375 55.925781 C 67.527344 59.699219 66.433594 62.203125 64.457031 63.4375 L 64.332031 63.25 C 63.574219 63.25 61.21875 61.074219 57.265625 56.726562 L 54.933594 53.644531 L 52.285156 50.691406 M 38.09375 58.570312 L 37.589844 59.066406 C 37.421875 60.789062 36.707031 62.121094 35.445312 63.066406 L 35.382812 63.003906 L 35.382812 63.128906 C 35.339844 63.414062 35.109375 63.558594 34.6875 63.558594 C 34.097656 63.558594 33.804688 63.375 33.804688 63.003906 L 33.804688 62.945312 C 32.878906 62.285156 31.261719 60.664062 28.949219 58.078125 C 26.089844 54.796875 24.660156 52.949219 24.660156 52.539062 L 24.40625 52.105469 L 24.472656 51.859375 L 25.164062 51.183594 L 25.417969 51.121094 L 25.355469 51 C 26.574219 50.054688 28.191406 49.582031 30.210938 49.582031 C 33.996094 49.582031 36.347656 50.875 37.273438 53.460938 L 37.527344 55.492188 L 37.777344 55.800781 L 37.714844 56.171875 L 37.398438 57.585938 L 37.464844 57.585938 C 37.882812 57.585938 38.09375 57.792969 38.09375 58.203125 L 38.09375 58.570312 "/>
<path style=" stroke:none;fill-rule:evenodd;fill:rgb(0%,0%,0%);fill-opacity:1;" d="M 66.410156 51.921875 L 66.539062 51.796875 L 67.167969 51.921875 C 67.925781 51.921875 69.207031 51 71.015625 49.152344 C 72.359375 48.496094 75.386719 46.03125 80.097656 41.761719 L 80.097656 41.699219 L 81.105469 40.714844 L 81.609375 42.746094 C 81.609375 43.363281 81.421875 43.671875 81.042969 43.671875 L 80.792969 43.609375 C 80.285156 44.308594 79.339844 45.273438 77.953125 46.503906 L 74.105469 49.707031 L 67.734375 54.878906 L 67.734375 54.816406 C 67.359375 53.503906 66.917969 52.539062 66.410156 51.921875 M 64.457031 63.4375 C 63.488281 64.011719 62.332031 64.296875 60.988281 64.296875 C 56.742188 64.296875 53.652344 63.085938 51.714844 60.664062 L 50.328125 58.203125 C 49.066406 57.710938 47.785156 57.464844 46.480469 57.464844 C 42.53125 57.464844 39.734375 57.832031 38.09375 58.570312 L 38.09375 58.203125 C 38.09375 57.792969 37.882812 57.585938 37.464844 57.585938 L 37.398438 57.585938 L 37.714844 56.171875 L 37.90625 55.984375 L 38.03125 55.800781 C 38.28125 56.171875 38.765625 56.355469 39.480469 56.355469 L 39.984375 56.109375 L 40.867188 56.230469 L 45.09375 55.800781 L 47.300781 55.925781 C 49.402344 55.925781 50.457031 55.410156 50.457031 54.386719 L 50.390625 54.078125 L 50.769531 53.769531 C 51.066406 52.375 51.570312 51.347656 52.285156 50.691406 L 54.933594 53.644531 L 57.265625 56.726562 C 61.21875 61.074219 63.574219 63.25 64.332031 63.25 L 64.457031 63.4375 M 35.445312 63.066406 L 35.382812 63.128906 L 35.382812 63.003906 L 35.445312 63.066406 M 34.6875 63.558594 C 33.132812 64.378906 30.988281 64.789062 28.253906 64.789062 C 24.554688 64.789062 22.621094 62.839844 22.453125 58.941406 L 22.578125 56.847656 L 18.226562 52.90625 L 13.6875 48.289062 L 13.9375 47.796875 L 13.9375 47.613281 C 13.9375 46.871094 14.128906 46.503906 14.503906 46.503906 C 14.84375 46.503906 15.03125 46.6875 15.074219 47.058594 L 15.074219 47.117188 L 15.136719 47.117188 L 23.082031 54.324219 C 23.417969 53.339844 23.882812 52.515625 24.472656 51.859375 L 24.40625 52.105469 L 24.660156 52.539062 C 24.660156 52.949219 26.089844 54.796875 28.949219 58.078125 C 31.261719 60.664062 32.878906 62.285156 33.804688 62.945312 L 33.804688 63.003906 C 33.804688 63.375 34.097656 63.558594 34.6875 63.558594 M 25.164062 51.183594 L 25.355469 51 L 25.417969 51.121094 L 25.164062 51.183594 "/>
</g>
</svg>
