<?xml version="1.0" encoding="UTF-8"?>
<svg xmlns="http://www.w3.org/2000/svg" xmlns:xlink="http://www.w3.org/1999/xlink" width="110px" height="141px" viewBox="0 0 110 141" version="1.1">
<g id="surface1">
<path style=" stroke:none;fill-rule:evenodd;fill:rgb(14.509805%,14.509805%,13.725491%);fill-opacity:1;" d="M 32.347656 28.011719 L 31.449219 28.707031 L 26.617188 32.347656 C 20.632812 36.699219 16.878906 38.890625 15.351562 38.925781 L 15.003906 38.875 L 15.003906 38.925781 L 14.753906 38.777344 L 14.703125 38.726562 L 14.652344 38.527344 L 15.402344 36.433594 L 16.25 34.339844 L 16.597656 32.347656 L 13.90625 36.632812 C 11.246094 40.820312 9.535156 43.726562 8.773438 45.355469 L 5.132812 53.328125 C 4.902344 54.027344 4.753906 55.242188 4.6875 56.96875 L 4.535156 58.960938 L 4.585938 60.308594 L 4.6875 60.308594 L 4.933594 61.703125 L 4.933594 62.300781 L 4.585938 62.5 L 4.484375 62.402344 L 4.484375 62.5 L 4.535156 63.449219 C 4.503906 64.875 4.21875 67.035156 3.6875 69.925781 L 4.085938 74.960938 L 4.535156 79.796875 C 4.46875 83.183594 5 86.257812 6.132812 89.015625 C 6.496094 89.214844 7.0625 89.929688 7.824219 91.160156 L 10.070312 94.699219 L 10.867188 95.394531 L 11.3125 95.746094 L 14.304688 95.394531 C 15.699219 95.363281 18.109375 96.390625 21.53125 98.484375 L 21.53125 98.585938 L 25.71875 98.734375 C 28.640625 98.734375 31.515625 97.96875 34.339844 96.441406 L 41.367188 91.65625 L 45.953125 87.121094 L 49.542969 83.335938 L 49.292969 79.746094 L 48.792969 75.261719 L 48.792969 74.511719 L 49.292969 74.414062 L 49.691406 74.511719 L 49.742188 74.710938 L 49.492188 75.359375 L 50.441406 89.464844 C 50.441406 92.023438 49.890625 95.210938 48.792969 99.035156 L 48.746094 99.332031 L 48.644531 99.484375 L 48.59375 99.683594 L 47.148438 104.167969 C 46.21875 107.15625 45.753906 109.019531 45.753906 109.75 C 45.753906 111.210938 45.855469 112.207031 46.054688 112.738281 L 46.800781 113.9375 C 46.96875 114.5 47.25 114.785156 47.648438 114.785156 L 47.949219 114.683594 L 48.546875 114.933594 L 48.945312 115.03125 L 49.195312 114.832031 L 49.542969 114.933594 L 49.59375 115.132812 L 49.640625 115.132812 L 49.691406 115.082031 L 49.839844 114.984375 L 50.089844 115.230469 L 50.238281 115.082031 L 50.140625 114.832031 C 52.398438 113.339844 53.863281 111.378906 54.527344 108.953125 L 56.96875 102.375 L 59.011719 95.746094 C 59.578125 93.484375 59.875 91.292969 59.910156 89.164062 C 59.875 87.902344 59.542969 86.140625 58.914062 83.882812 C 58.246094 81.6875 57.933594 80.011719 57.964844 78.847656 L 57.714844 75.957031 L 57.914062 75.707031 L 57.667969 75.609375 L 57.617188 75.558594 L 57.417969 74.660156 L 57.515625 74.710938 L 57.667969 74.5625 L 57.316406 74.3125 L 57.070312 73.613281 L 57.117188 73.515625 L 57.167969 73.414062 C 57.035156 72.984375 56.902344 72.734375 56.769531 72.667969 L 56.769531 72.617188 C 56.105469 70.722656 55.773438 69.34375 55.773438 68.480469 C 55.773438 68.214844 55.890625 68.097656 56.121094 68.132812 C 56.488281 68.097656 56.851562 68.664062 57.21875 69.828125 L 57.667969 69.527344 C 58.164062 69.261719 58.449219 68.996094 58.515625 68.730469 L 58.8125 67.832031 C 58.113281 67.832031 57.566406 67.632812 57.167969 67.234375 L 57.019531 67.085938 L 57.019531 66.886719 L 57.21875 66.6875 L 59.609375 63.546875 L 60.308594 61.753906 L 60.605469 60.804688 L 59.910156 60.855469 L 56.621094 60.058594 L 56.320312 60.308594 L 56.070312 60.257812 L 55.972656 60.15625 L 56.171875 59.910156 L 55.921875 59.808594 L 55.972656 59.660156 L 56.023438 59.660156 L 59.808594 54.625 L 61.554688 51.933594 C 62.050781 51.070312 62.550781 50.371094 63.050781 49.839844 L 62.152344 50.140625 L 62.851562 49.640625 L 62.75 49.390625 L 61.753906 50.039062 L 61.703125 49.941406 L 60.90625 50.140625 L 56.121094 50.835938 L 55.871094 50.835938 L 55.722656 50.589844 L 55.621094 50.738281 L 55.523438 50.6875 C 55.222656 50.421875 55.058594 49.757812 55.023438 48.695312 L 54.824219 45.207031 L 54.824219 42.761719 L 54.726562 42.863281 L 54.777344 42.5625 L 54.675781 42.414062 L 54.277344 43.261719 L 54.226562 43.3125 C 53.132812 44.207031 51.820312 44.65625 50.289062 44.65625 L 49.394531 44.609375 L 49.195312 44.65625 L 49.144531 44.65625 L 48.945312 44.558594 L 48.792969 44.457031 L 48.792969 44.257812 L 48.644531 43.210938 L 48.644531 41.71875 L 48.792969 39.625 L 47.699219 40.917969 L 47.699219 41.070312 L 47.449219 41.167969 L 47.398438 41.269531 L 47.347656 41.21875 L 47.148438 41.167969 L 47 40.871094 L 47.199219 40.472656 L 46.652344 37.628906 L 46.601562 34.640625 L 46.652344 33.242188 L 46.601562 33.242188 L 46.453125 32.894531 L 46.75 32.296875 L 46.851562 31.101562 L 47.199219 29.257812 L 47.101562 29.304688 L 47.050781 29.304688 L 46.800781 29.207031 L 46.550781 29.554688 L 44.058594 30.453125 L 38.230469 32.546875 L 36.335938 33.890625 C 35.402344 33.992188 34.457031 34.273438 33.492188 34.738281 C 31.035156 35.867188 29.40625 36.550781 28.609375 36.78125 L 27.910156 36.535156 L 27.710938 36.734375 L 28.011719 36.882812 L 27.3125 36.683594 L 27.261719 36.484375 L 27.261719 36.335938 L 27.3125 36.335938 L 27.363281 36.183594 L 27.5625 36.183594 C 29.125 35.15625 30.585938 33.277344 31.949219 30.550781 L 32.796875 28.359375 L 33.246094 27.960938 L 33.046875 27.859375 L 33.195312 27.460938 L 33.34375 27.164062 L 33.09375 27.363281 L 32.347656 28.011719 M 18.988281 99.183594 L 16.746094 98.785156 C 15.019531 98.386719 13.457031 97.789062 12.0625 96.992188 L 12.0625 97.738281 L 13.855469 106.113281 C 13.824219 106.910156 13.507812 107.757812 12.910156 108.652344 C 12.078125 109.914062 10.882812 110.5625 9.320312 110.597656 C 6.363281 110.597656 4.121094 108.203125 2.59375 103.421875 C 1.628906 100.496094 1.128906 97.820312 1.097656 95.394531 L 0.148438 79.84375 L 0.847656 76.058594 C 1.480469 73.597656 2.226562 72.367188 3.089844 72.367188 L 3.140625 72.367188 L 2.992188 69.925781 L 3.441406 66.539062 L 3.839844 63.398438 L 3.539062 60.355469 C 3.539062 60.125 3.65625 59.976562 3.886719 59.910156 L 3.988281 59.957031 L 3.988281 59.757812 C 3.988281 56.46875 4.171875 54.261719 4.535156 53.128906 L 8.125 44.957031 L 10.417969 41.21875 C 11.546875 39.625 12.277344 38.394531 12.609375 37.53125 C 13.707031 35.269531 15.203125 32.894531 17.097656 30.402344 L 17.195312 30.304688 C 17.496094 30.269531 17.609375 30.601562 17.542969 31.300781 C 17.511719 31.996094 17.144531 33.394531 16.449219 35.488281 L 15.402344 38.179688 C 16.796875 37.546875 18.558594 36.617188 20.683594 35.386719 C 25.601562 32.429688 30.386719 28.808594 35.039062 24.523438 L 35.335938 24.820312 L 35.136719 25.269531 C 32.914062 30.519531 31.050781 33.976562 29.554688 35.636719 C 32.214844 34.804688 34.988281 33.542969 37.878906 31.847656 C 39.839844 30.71875 43.144531 29.40625 47.796875 27.910156 L 48.046875 27.8125 L 48.097656 27.8125 L 48.445312 27.960938 L 48.496094 28.011719 L 48.496094 28.109375 L 47.898438 30.351562 L 47.648438 31.449219 L 51.933594 28.757812 L 56.867188 26.265625 L 56.96875 26.066406 L 57.367188 26.066406 L 57.714844 25.917969 L 58.164062 25.96875 L 58.214844 26.066406 L 59.808594 26.015625 L 70.277344 26.367188 C 73.199219 26.699219 75.660156 27.394531 77.652344 28.460938 L 80.394531 30.304688 L 80.246094 30.304688 L 79.894531 30.402344 L 80.09375 30.851562 L 78.398438 29.65625 L 75.160156 27.859375 L 71.769531 27.214844 C 69.078125 26.382812 67.351562 26.066406 66.589844 26.265625 L 62.351562 26.8125 L 57.964844 26.613281 C 57.203125 27.246094 55.042969 28.242188 51.484375 29.605469 L 48.792969 31.75 L 47.398438 32.996094 L 47.300781 34.6875 C 47.265625 36.847656 47.398438 38.394531 47.699219 39.324219 L 47.699219 39.625 L 47.847656 39.425781 L 47.949219 39.273438 C 48.644531 38.246094 49.242188 37.628906 49.742188 37.429688 L 49.941406 37.429688 L 50.089844 37.480469 L 50.089844 37.578125 L 50.140625 37.730469 L 49.742188 39.074219 C 49.476562 39.707031 49.34375 40.339844 49.34375 40.96875 L 49.492188 44.109375 L 49.441406 44.457031 L 49.542969 44.507812 C 50.375 44.609375 51.46875 44.324219 52.832031 43.660156 L 53.628906 42.761719 L 54.425781 41.71875 L 54.824219 41.269531 L 54.824219 41.167969 L 54.976562 41.167969 L 55.175781 41.117188 C 55.375 41.085938 55.488281 41.183594 55.523438 41.417969 L 55.273438 42.117188 L 56.121094 49.992188 L 57.714844 49.691406 L 62.898438 48.945312 L 63.148438 48.945312 L 63.746094 48.792969 L 64.195312 48.84375 L 64.296875 49.09375 L 63.945312 49.890625 L 63.449219 50.289062 L 61.953125 52.53125 L 57.070312 59.558594 L 57.019531 59.609375 L 57.167969 59.609375 L 58.5625 59.710938 L 58.863281 60.058594 L 61.003906 60.207031 L 61.054688 60.15625 L 61.207031 60.257812 L 61.40625 60.457031 L 61.355469 60.507812 L 61.40625 60.65625 C 60.441406 63.847656 59.492188 65.890625 58.5625 66.785156 L 59.511719 67.035156 L 59.609375 67.035156 L 59.808594 67.085938 L 59.910156 67.335938 L 59.910156 67.386719 C 59.875 67.785156 59.625 68.414062 59.160156 69.277344 C 58.5625 70.210938 58 70.691406 57.46875 70.722656 C 57.867188 72.453125 58.265625 75.09375 58.664062 78.648438 L 59.761719 83.882812 C 60.292969 86.109375 60.558594 87.851562 60.558594 89.117188 C 60.558594 91.542969 60.339844 93.632812 59.910156 95.394531 L 57.617188 102.574219 L 56.371094 105.863281 L 55.222656 109.300781 L 54.675781 110.847656 C 54.875 111.179688 55.058594 111.84375 55.222656 112.839844 L 54.976562 113.039062 L 55.273438 113.1875 L 55.773438 117.523438 L 56.171875 124.453125 C 56.171875 125.417969 55.988281 126.546875 55.621094 127.84375 L 55.074219 130.535156 C 55.074219 130.832031 55.375 131.398438 55.972656 132.226562 L 56.820312 130.484375 L 57.167969 130.980469 L 56.46875 133.425781 L 55.871094 135.515625 L 55.773438 135.417969 L 55.523438 135.515625 L 55.773438 136.066406 L 55.773438 136.363281 C 55.773438 138.125 56.585938 139.171875 58.214844 139.503906 L 58.113281 137.808594 C 58.082031 137.378906 58.199219 137.164062 58.464844 137.164062 C 58.5625 137.164062 58.714844 137.578125 58.914062 138.410156 C 59.113281 139.207031 59.210938 139.789062 59.210938 140.152344 L 61.003906 140.300781 L 61.355469 140.152344 L 61.105469 139.753906 L 61.105469 136.914062 L 61.554688 136.761719 L 61.902344 136.863281 L 61.804688 138.457031 C 61.804688 139.652344 62.152344 140.269531 62.851562 140.300781 C 64.578125 140.269531 65.242188 139.652344 64.84375 138.457031 L 64.144531 136.914062 L 64.144531 136.5625 L 64.695312 136.515625 C 65.425781 136.480469 65.691406 137.144531 65.492188 138.507812 L 65.492188 140.003906 L 65.589844 139.902344 L 66.589844 138.558594 C 67.417969 137.460938 67.835938 136.382812 67.835938 135.316406 C 67.835938 135.117188 67.535156 134.472656 66.9375 133.375 C 66.273438 132.246094 65.941406 131.445312 65.941406 130.980469 L 66.039062 128.789062 C 66.039062 127.925781 65.722656 127.210938 65.09375 126.644531 L 65.09375 126.046875 L 65.242188 125.996094 C 64.675781 124.734375 64.261719 121.179688 63.996094 115.332031 L 65.492188 107.90625 L 67.835938 97.9375 C 69.394531 91.890625 70.175781 86.140625 70.175781 80.691406 C 70.144531 79.03125 70.257812 77.953125 70.527344 77.453125 C 70.890625 78.285156 71.074219 79.429688 71.074219 80.890625 L 70.972656 84.429688 L 70.972656 84.578125 L 71.074219 84.480469 C 73.132812 82.355469 74.710938 80.261719 75.808594 78.199219 C 77.636719 74.679688 78.765625 72.234375 79.199219 70.875 C 81.457031 63.695312 83.019531 59.195312 83.882812 57.367188 L 84.78125 56.621094 L 84.429688 56.46875 L 84.480469 56.46875 C 84.613281 56.46875 84.714844 56.519531 84.78125 56.621094 L 84.828125 56.769531 L 84.78125 56.96875 L 84.628906 56.96875 L 84.628906 57.117188 L 84.679688 57.367188 L 80.292969 69.925781 L 80.492188 71.421875 L 80.792969 74.015625 L 83.035156 78.398438 C 84.597656 81.554688 86.339844 84.429688 88.269531 87.023438 L 88.019531 87.320312 C 88.386719 88.25 88.71875 90.644531 89.015625 94.5 C 89.214844 97.023438 89.367188 99.582031 89.464844 102.175781 C 89.464844 103.570312 89.230469 105.164062 88.765625 106.957031 L 87.222656 112.140625 L 86.972656 112.242188 L 86.875 112.140625 L 86.875 112.390625 L 87.222656 112.441406 L 87.273438 112.691406 L 87.121094 112.890625 L 86.472656 113.539062 C 85.910156 114.167969 85.628906 114.71875 85.628906 115.183594 L 85.777344 116.476562 C 85.976562 116.976562 86.457031 117.34375 87.222656 117.574219 L 87.023438 116.628906 L 87.519531 114.734375 L 87.570312 114.683594 L 87.671875 114.535156 L 87.621094 114.484375 C 88.019531 113.421875 88.402344 112.90625 88.765625 112.941406 C 88.964844 112.941406 89.066406 113.105469 89.066406 113.4375 C 89.066406 113.671875 88.832031 114.136719 88.367188 114.832031 L 88.070312 115.382812 L 87.921875 115.382812 L 87.921875 115.632812 L 87.71875 116.726562 C 87.6875 117.191406 87.886719 117.589844 88.320312 117.921875 C 88.851562 118.390625 89.699219 118.488281 90.859375 118.222656 L 90.859375 117.722656 C 90.726562 117.589844 90.628906 117.34375 90.5625 116.976562 L 90.5625 116.777344 L 90.710938 116.476562 L 90.5625 116.230469 L 90.511719 116.328125 L 90.460938 116.03125 C 90.429688 115.699219 90.542969 115.429688 90.8125 115.230469 L 91.109375 115.78125 L 90.960938 115.632812 L 90.8125 115.78125 L 91.160156 116.675781 L 91.308594 116.726562 L 91.308594 116.925781 L 91.707031 117.972656 C 92.007812 118.769531 92.671875 119.167969 93.703125 119.167969 C 94.597656 119.167969 95.164062 118.257812 95.394531 116.429688 L 94.949219 115.582031 L 94.949219 115.429688 L 94.847656 115.132812 L 94.699219 115.132812 L 94.398438 114.386719 C 94.5 114.21875 94.664062 114.136719 94.898438 114.136719 C 95.128906 114.136719 95.347656 114.300781 95.546875 114.632812 L 95.097656 114.433594 L 95.046875 114.632812 L 95.746094 114.984375 L 96.042969 116.429688 L 95.59375 118.371094 L 95.546875 118.472656 L 96.742188 117.277344 C 97.574219 116.511719 97.988281 115.699219 97.988281 114.832031 L 97.988281 114.632812 L 98.085938 114.484375 L 98.039062 114.285156 L 97.886719 114.433594 L 97.191406 113.738281 C 96.660156 113.40625 96.34375 112.90625 96.242188 112.242188 C 95.976562 112.175781 95.828125 111.894531 95.792969 111.394531 L 95.792969 110.546875 C 95.792969 108.851562 95.976562 106.261719 96.34375 102.773438 L 96.890625 94.996094 L 96.890625 91.757812 L 96.042969 87.71875 C 95.679688 86.292969 95.496094 83.898438 95.496094 80.542969 L 95.496094 80.394531 C 95.296875 80.292969 95.164062 79.929688 95.097656 79.296875 L 95.097656 78.152344 C 95.097656 77.386719 95.378906 75.726562 95.945312 73.167969 C 96.476562 70.574219 96.742188 68.714844 96.742188 67.585938 C 96.742188 64.925781 95.828125 60.921875 94 55.574219 L 92.304688 49.640625 L 90.710938 46.253906 L 89.515625 43.808594 L 88.367188 41.964844 L 86.972656 39.175781 C 85.742188 36.847656 84.628906 35.238281 83.632812 34.339844 C 82.636719 33.109375 81.589844 32.046875 80.492188 31.152344 C 80.792969 31.316406 81.226562 31.449219 81.789062 31.550781 L 83.683594 33.691406 L 84.78125 35.089844 L 84.78125 35.289062 L 84.929688 35.289062 L 86.175781 37.082031 L 86.074219 37.28125 L 86.074219 37.53125 L 86.675781 37.878906 L 90.164062 43.609375 L 90.210938 43.710938 L 91.410156 45.804688 L 93.054688 49.492188 L 94.699219 55.523438 L 96.492188 61.554688 C 97.125 63.847656 97.441406 65.855469 97.441406 67.585938 C 97.40625 69.046875 97.125 71.007812 96.59375 73.464844 C 96.0625 75.957031 95.792969 77.550781 95.792969 78.25 L 96.042969 80.09375 L 96.042969 80.292969 L 96.242188 83.085938 C 96.308594 84.945312 96.410156 86.292969 96.542969 87.121094 L 97.390625 91.457031 L 97.589844 94.996094 L 97.039062 102.773438 C 96.707031 105.53125 96.558594 108.585938 96.59375 111.941406 C 96.957031 111.976562 97.40625 112.425781 97.9375 113.289062 L 98.6875 114.832031 C 98.6875 115.765625 98.402344 116.660156 97.839844 117.523438 C 97.308594 118.390625 96.660156 118.871094 95.894531 118.96875 C 95.628906 118.902344 95.496094 118.769531 95.496094 118.570312 C 95.0625 119.46875 94.5 119.917969 93.800781 119.917969 C 92.9375 119.917969 91.992188 119.484375 90.960938 118.621094 C 90.894531 118.921875 90.542969 119.070312 89.914062 119.070312 C 88.785156 119.070312 87.988281 118.769531 87.519531 118.171875 L 86.824219 118.273438 C 85.925781 118.273438 85.34375 117.757812 85.078125 116.726562 L 84.980469 115.082031 L 85.078125 113.738281 C 85.246094 113.304688 85.644531 112.921875 86.273438 112.589844 L 86.175781 112.292969 C 86.175781 111.894531 86.308594 111.695312 86.574219 111.695312 L 86.625 111.695312 L 86.625 111.542969 C 86.625 110.945312 86.988281 109.816406 87.71875 108.15625 C 88.453125 106.460938 88.816406 104.464844 88.816406 102.175781 C 88.785156 98.652344 88.269531 93.800781 87.273438 87.621094 L 87.273438 87.070312 L 85.328125 84.230469 L 82.636719 79.296875 L 80.445312 74.859375 C 80.011719 73.929688 79.777344 72.785156 79.746094 71.421875 C 78.714844 74.28125 77.304688 77.253906 75.507812 80.34375 C 73.550781 83.699219 72.019531 85.511719 70.925781 85.777344 C 70.625 88.667969 69.59375 93.898438 67.835938 101.476562 L 64.695312 115.332031 L 65.144531 120.566406 L 66.039062 126.097656 C 66.472656 126.363281 66.703125 126.996094 66.738281 127.992188 L 66.589844 130.632812 C 66.589844 130.964844 66.921875 131.714844 67.585938 132.875 C 68.214844 134.003906 68.53125 134.804688 68.53125 135.269531 C 68.199219 138.425781 67.433594 140.1875 66.238281 140.550781 L 65.492188 140.898438 L 65.242188 140.851562 L 65.09375 140.5 C 64.660156 140.832031 63.929688 141 62.898438 141 L 61.902344 140.800781 L 61.355469 141 L 60.90625 141 C 59.675781 141 58.878906 140.765625 58.515625 140.300781 L 58.363281 139.953125 L 57.816406 140.054688 C 56.488281 140.054688 55.640625 139.4375 55.273438 138.207031 L 55.074219 136.316406 C 55.074219 135.550781 55.273438 134.503906 55.671875 133.175781 L 55.773438 132.824219 L 55.773438 132.777344 L 55.722656 132.777344 C 54.992188 132.777344 54.558594 132.410156 54.425781 131.679688 L 54.425781 130.582031 C 54.425781 129.785156 54.609375 128.773438 54.976562 127.542969 C 55.339844 126.3125 55.523438 125.265625 55.523438 124.402344 L 55.023438 117.921875 C 54.691406 114.765625 54.394531 112.707031 54.128906 111.742188 C 53.230469 113.039062 51.835938 114.300781 49.941406 115.53125 L 49.890625 115.53125 L 49.839844 115.480469 L 49.890625 115.582031 C 49.859375 116.011719 49.328125 116.230469 48.296875 116.230469 C 47.234375 116.195312 46.71875 115.945312 46.75 115.480469 L 46.75 115.429688 C 44.957031 115.597656 43.792969 115.414062 43.261719 114.882812 L 43.210938 114.734375 L 42.464844 114.832031 C 41.867188 114.832031 41.402344 114.585938 41.070312 114.085938 L 40.71875 113.289062 C 40.6875 112.457031 41.234375 111.609375 42.367188 110.746094 L 45.304688 108.402344 L 45.355469 108.402344 L 47.398438 100.878906 L 48.046875 98.585938 L 47.949219 98.386719 L 47.597656 98.335938 L 47.398438 98.386719 L 45.105469 97.9375 L 41.617188 97.539062 C 38.925781 97.503906 36.949219 97.96875 35.6875 98.933594 C 34.691406 99.699219 34.042969 100.929688 33.742188 102.621094 L 33.34375 107.757812 C 33.179688 109.484375 32.878906 110.996094 32.445312 112.292969 L 32.597656 112.589844 C 32.597656 113.851562 31.066406 116.828125 28.011719 121.511719 C 27.578125 122.839844 26.847656 124.652344 25.816406 126.945312 C 24.753906 129.203125 24.140625 130.335938 23.972656 130.335938 L 23.675781 130.335938 L 23.726562 130.535156 L 23.726562 130.582031 C 22.628906 134.136719 21.300781 135.933594 19.738281 135.964844 C 18.277344 135.933594 17.3125 135.765625 16.847656 135.46875 L 16.148438 136.164062 L 14.851562 136.515625 C 12.992188 136.515625 11.894531 136.316406 11.5625 135.917969 L 11.515625 135.667969 L 10.765625 135.816406 C 9.238281 135.816406 8.472656 135.316406 8.472656 134.320312 L 8.972656 133.574219 L 8.773438 132.675781 C 8.773438 132.179688 9.554688 131.230469 11.113281 129.835938 L 14.15625 126.945312 C 15.519531 124.886719 16.695312 122.859375 17.695312 120.863281 C 18.492188 119.269531 19.171875 117.34375 19.738281 115.082031 C 20.367188 112.65625 20.683594 110.582031 20.683594 108.851562 C 20.683594 106.957031 20.351562 105.066406 19.6875 103.171875 L 18.640625 99.882812 C 18.609375 99.515625 18.722656 99.332031 18.988281 99.332031 L 20.835938 104.167969 L 21.035156 105.214844 L 20.984375 105.214844 L 20.785156 105.265625 L 20.734375 105.3125 L 21.132812 105.863281 L 21.382812 108.902344 L 21.234375 112.140625 C 21.234375 112.40625 21.050781 112.890625 20.683594 113.585938 L 20.632812 114.933594 C 20.402344 115.398438 20.21875 116.296875 20.085938 117.625 C 19.15625 120.015625 18.210938 121.828125 17.246094 123.058594 L 15.800781 125.796875 C 15.203125 126.960938 14.503906 127.792969 13.707031 128.289062 C 11.582031 129.652344 10.234375 131.097656 9.667969 132.625 L 9.570312 132.925781 L 9.820312 132.675781 C 10.714844 131.648438 11.363281 131.132812 11.761719 131.132812 C 11.960938 131.132812 12.113281 131.230469 12.210938 131.429688 C 12.046875 131.828125 11.496094 132.394531 10.566406 133.125 L 10.566406 133.074219 L 10.367188 133.074219 L 10.316406 133.324219 L 10.269531 133.375 L 9.171875 134.320312 C 9.171875 134.585938 9.585938 134.820312 10.417969 135.019531 L 11.464844 135.316406 L 11.515625 135.316406 L 11.515625 135.21875 L 11.8125 134.472656 L 11.863281 134.472656 L 12.011719 134.269531 L 11.914062 134.269531 L 12.210938 133.824219 C 12.675781 133.125 13.042969 132.777344 13.308594 132.777344 C 13.574219 132.777344 13.707031 132.890625 13.707031 133.125 L 13.457031 133.574219 L 13.40625 133.472656 C 13.074219 133.605469 12.910156 133.871094 12.910156 134.269531 L 12.910156 134.320312 L 12.210938 135.117188 C 12.179688 135.550781 13.027344 135.765625 14.753906 135.765625 C 15.550781 135.734375 16.132812 135.46875 16.496094 134.96875 L 16.597656 135.019531 L 16.597656 134.71875 L 16.695312 134.570312 L 16.648438 134.519531 L 17.144531 133.523438 C 17.476562 132.824219 17.726562 132.445312 17.894531 132.378906 L 18.242188 132.777344 C 18.210938 133.109375 17.875 133.757812 17.246094 134.71875 L 17.296875 134.769531 L 17.394531 134.820312 L 19.539062 135.21875 C 20.800781 135.21875 21.714844 134.355469 22.28125 132.625 L 22.777344 130.832031 L 23.175781 130.132812 L 22.578125 129.386719 L 22.328125 127.890625 L 22.328125 127.195312 L 22.679688 127.042969 C 22.910156 127.042969 23.277344 127.890625 23.773438 129.585938 C 24.304688 128.753906 24.9375 127.359375 25.667969 125.398438 L 27.5625 120.8125 L 31.699219 113.089844 L 31.648438 112.988281 L 32.148438 110.894531 C 32.445312 109.867188 32.597656 109.117188 32.597656 108.652344 C 32.695312 107.722656 32.746094 106.292969 32.746094 104.367188 C 32.613281 102.9375 32.878906 101.609375 33.542969 100.378906 C 34.839844 97.953125 37.496094 96.742188 41.519531 96.742188 C 44.410156 96.742188 46.351562 97.039062 47.347656 97.636719 L 47.5 97.589844 L 47.597656 97.636719 L 47.597656 97.539062 L 46.453125 95.097656 C 46.453125 94.730469 46.585938 94.546875 46.851562 94.546875 C 47.050781 94.546875 47.433594 95.277344 47.996094 96.742188 L 48.296875 97.589844 C 49.261719 93.898438 49.742188 91.175781 49.742188 89.414062 L 49.640625 84.230469 L 46.601562 87.671875 C 44.210938 90.230469 42.515625 91.839844 41.519531 92.503906 L 32.246094 98.386719 C 30.6875 99.117188 28.507812 99.484375 25.71875 99.484375 L 18.988281 99.183594 M 27.910156 75.609375 L 27.960938 75.808594 C 27.296875 76.605469 26.730469 77.105469 26.265625 77.304688 L 25.917969 76.804688 L 26.464844 76.105469 C 26.796875 75.773438 27.097656 75.574219 27.363281 75.507812 L 27.910156 75.609375 M 10.019531 73.214844 L 10.019531 73.066406 L 9.769531 72.667969 C 8.804688 72.035156 8.339844 71.671875 8.375 71.570312 L 8.421875 71.324219 L 8.722656 71.273438 C 9.421875 71.273438 10.152344 71.703125 10.914062 72.570312 C 11.613281 72.835938 12.226562 73.796875 12.761719 75.460938 L 12.710938 75.507812 C 13.273438 76.871094 13.558594 77.984375 13.558594 78.847656 L 13.558594 79.597656 L 13.507812 79.796875 L 13.207031 79.894531 L 13.207031 79.84375 L 12.960938 79.894531 L 12.359375 79.84375 L 12.460938 78 L 12.460938 77.800781 L 12.410156 77.601562 L 12.011719 77.003906 C 11.679688 76.640625 11.464844 76.074219 11.363281 75.308594 L 11.414062 75.261719 L 10.019531 73.214844 M 16.296875 74.613281 C 16.296875 74.746094 16.183594 74.8125 15.949219 74.8125 L 15.050781 73.414062 L 15.101562 73.117188 L 15.402344 73.066406 C 16 73.035156 16.296875 73.546875 16.296875 74.613281 M 28.160156 82.089844 C 29.089844 81.554688 30.070312 81.207031 31.101562 81.042969 C 32.664062 80.441406 34.339844 80.160156 36.136719 80.195312 C 38.59375 80.160156 40.023438 80.542969 40.421875 81.339844 L 40.371094 81.539062 L 40.023438 81.6875 C 39.691406 81.6875 39.390625 81.554688 39.125 81.289062 C 38.859375 81.023438 38.542969 80.890625 38.179688 80.890625 L 34.191406 81.042969 L 34.242188 81.140625 L 31.050781 81.789062 L 29.507812 82.6875 C 29.175781 82.785156 28.691406 83.132812 28.0625 83.734375 L 27.0625 84.578125 L 26.714844 84.480469 L 26.566406 84.179688 L 26.617188 83.980469 L 26.464844 83.382812 C 26.863281 82.917969 27.429688 82.488281 28.160156 82.089844 M 43.011719 113.984375 C 43.011719 113.222656 43.496094 112.722656 44.457031 112.492188 C 44.691406 112.558594 44.808594 112.671875 44.808594 112.839844 L 44.257812 113.4375 L 43.710938 114.035156 C 43.710938 114.335938 44.691406 114.566406 46.652344 114.734375 C 46.054688 114.269531 45.621094 113.605469 45.355469 112.738281 L 45.058594 110.746094 L 45.105469 109.75 L 45.15625 109.203125 L 43.5625 110.597656 C 42.199219 111.894531 41.519531 112.789062 41.519531 113.289062 L 42.464844 113.984375 L 42.964844 114.1875 L 43.113281 114.234375 L 43.011719 113.984375 M 20.433594 92.40625 L 20.386719 92.503906 L 20.433594 92.554688 C 20.402344 92.820312 19.738281 93.285156 18.441406 93.949219 C 17.113281 94.613281 16.132812 94.945312 15.5 94.945312 C 15.035156 94.945312 13.890625 93.933594 12.0625 91.90625 C 11.761719 91.707031 11.628906 91.507812 11.664062 91.308594 C 11.628906 91.074219 11.761719 90.976562 12.0625 91.007812 C 12.59375 91.007812 13.058594 91.191406 13.457031 91.558594 L 19.988281 92.105469 L 20.335938 92.15625 L 20.433594 92.40625 M 14.105469 92.753906 L 15.550781 94.25 C 16.015625 94.214844 16.8125 93.882812 17.941406 93.253906 L 18.34375 93.003906 L 14.902344 92.703125 C 14.605469 92.4375 14.339844 92.304688 14.105469 92.304688 L 13.957031 92.304688 L 13.90625 92.503906 L 13.90625 92.554688 L 14.105469 92.753906 M 8.824219 109.847656 L 9.269531 109.847656 C 11.496094 109.847656 12.792969 108.601562 13.160156 106.113281 C 13.125 105.015625 12.578125 102.65625 11.515625 99.035156 L 11.515625 98.285156 L 11.363281 98.136719 L 11.363281 96.542969 L 9.519531 95.097656 C 7.992188 93.667969 6.796875 91.972656 5.929688 90.011719 C 5.199219 89.878906 4.550781 87.222656 3.988281 82.039062 L 3.539062 77.253906 L 3.191406 73.117188 L 1.644531 76.304688 C 1.082031 77.636719 0.796875 78.816406 0.796875 79.84375 L 1.695312 95.046875 C 1.792969 98.601562 2.476562 101.839844 3.738281 104.765625 C 4.835938 107.289062 6.148438 108.886719 7.675781 109.550781 L 7.726562 109.648438 L 8.324219 109.847656 L 8.824219 109.847656 M 13.007812 96.640625 L 13.007812 96.691406 L 13.65625 96.941406 C 15.21875 97.539062 17.0625 98.003906 19.1875 98.335938 L 18.441406 97.636719 C 17.578125 96.875 15.964844 96.441406 13.605469 96.34375 C 13.507812 96.210938 13.441406 96.160156 13.40625 96.191406 L 12.460938 96.292969 L 12.261719 96.34375 L 12.261719 96.492188 L 12.660156 96.492188 L 13.007812 96.640625 "/>
<path style=" stroke:none;fill-rule:evenodd;fill:rgb(70.19608%,68.235296%,64.705884%);fill-opacity:1;" d="M 4.6875 60.308594 L 4.585938 60.308594 L 4.535156 58.960938 L 4.6875 56.96875 C 4.753906 55.242188 4.902344 54.027344 5.132812 53.328125 L 8.773438 45.355469 C 9.535156 43.726562 11.246094 40.820312 13.90625 36.632812 L 16.597656 32.347656 L 16.25 34.339844 L 15.402344 36.433594 L 14.652344 38.527344 L 14.703125 38.726562 L 14.753906 38.777344 L 15.003906 38.925781 L 15.003906 38.875 L 15.351562 38.925781 C 16.878906 38.890625 20.632812 36.699219 26.617188 32.347656 L 31.449219 28.707031 L 32.347656 28.011719 L 32.695312 27.859375 L 33.046875 27.859375 L 33.246094 27.960938 L 32.796875 28.359375 L 24.722656 35.835938 C 23.359375 37.230469 21.035156 38.527344 17.742188 39.722656 C 14.585938 40.851562 12.675781 41.851562 12.011719 42.714844 C 6.5625 49.523438 4.1875 55.390625 4.886719 60.308594 L 4.6875 60.308594 M 18.988281 99.332031 L 18.988281 99.183594 L 25.71875 99.484375 C 28.507812 99.484375 30.6875 99.117188 32.246094 98.386719 L 41.519531 92.503906 C 42.515625 91.839844 44.210938 90.230469 46.601562 87.671875 L 49.640625 84.230469 L 49.742188 89.414062 C 49.742188 91.175781 49.261719 93.898438 48.296875 97.589844 L 47.996094 96.742188 C 47.433594 95.277344 47.050781 94.546875 46.851562 94.546875 C 46.585938 94.546875 46.453125 94.730469 46.453125 95.097656 L 47.597656 97.539062 L 47.5 97.589844 L 47.347656 97.636719 C 46.351562 97.039062 44.410156 96.742188 41.519531 96.742188 C 37.496094 96.742188 34.839844 97.953125 33.542969 100.378906 C 32.878906 101.609375 32.613281 102.9375 32.746094 104.367188 C 32.746094 106.292969 32.695312 107.722656 32.597656 108.652344 C 32.597656 109.117188 32.445312 109.867188 32.148438 110.894531 L 31.648438 112.988281 L 31.699219 113.089844 L 27.5625 120.8125 L 25.667969 125.398438 C 24.9375 127.359375 24.304688 128.753906 23.773438 129.585938 C 23.277344 127.890625 22.910156 127.042969 22.679688 127.042969 L 22.328125 127.195312 L 22.328125 127.890625 L 22.578125 129.386719 L 23.175781 130.132812 L 22.777344 130.832031 L 22.28125 132.625 C 21.714844 134.355469 20.800781 135.21875 19.539062 135.21875 L 17.394531 134.820312 L 17.296875 134.769531 L 19.238281 133.722656 C 19.472656 133.457031 19.605469 133.09375 19.636719 132.625 L 19.1875 129.734375 C 19.1875 128.90625 19.722656 127.710938 20.785156 126.148438 C 21.878906 124.386719 22.496094 123.140625 22.628906 122.410156 C 23.925781 119.519531 24.570312 117.125 24.570312 115.230469 C 24.539062 113.304688 24.289062 111.695312 23.824219 110.398438 C 23.359375 109.035156 22.460938 107.523438 21.132812 105.863281 L 20.734375 105.3125 L 20.785156 105.265625 L 20.984375 105.214844 L 21.035156 105.214844 L 20.835938 104.167969 L 18.988281 99.332031 M 16.648438 134.519531 L 16.695312 134.570312 L 16.597656 134.71875 L 16.597656 134.820312 L 16.496094 134.96875 C 16.132812 135.46875 15.550781 135.734375 14.753906 135.765625 C 13.027344 135.765625 12.179688 135.550781 12.210938 135.117188 L 12.910156 134.320312 L 12.910156 134.269531 C 12.910156 133.871094 13.074219 133.605469 13.40625 133.472656 L 13.457031 133.574219 L 13.558594 133.722656 L 13.207031 134.320312 C 13.207031 134.785156 13.65625 135.019531 14.554688 135.019531 C 15.152344 135.019531 15.566406 134.886719 15.800781 134.621094 L 15.800781 134.421875 L 15.949219 134.421875 L 15.949219 134.269531 L 16.398438 134.421875 L 16.648438 134.519531 M 11.914062 134.269531 L 12.011719 134.269531 L 11.863281 134.472656 L 11.8125 134.472656 L 11.515625 135.21875 L 11.464844 135.316406 L 10.417969 135.019531 C 9.585938 134.820312 9.171875 134.585938 9.171875 134.320312 L 10.269531 133.375 L 10.316406 133.375 L 10.316406 133.324219 L 10.367188 133.074219 L 10.566406 133.074219 L 10.566406 133.125 C 10.667969 133.292969 10.714844 133.507812 10.714844 133.773438 C 10.816406 134.003906 11.214844 134.171875 11.914062 134.269531 M 28.011719 36.882812 L 27.710938 36.734375 L 27.910156 36.535156 L 28.609375 36.78125 C 29.40625 36.550781 31.035156 35.867188 33.492188 34.738281 C 34.457031 34.273438 35.402344 33.992188 36.335938 33.890625 L 38.230469 32.546875 L 44.058594 30.453125 L 46.550781 29.554688 L 46.800781 29.207031 L 47.050781 29.304688 L 47.101562 29.355469 C 42.28125 35.667969 39.027344 38.84375 37.332031 38.875 C 34.40625 38.875 31.300781 38.210938 28.011719 36.882812 M 49.195312 44.65625 L 49.394531 44.609375 L 50.289062 44.65625 C 51.820312 44.65625 53.132812 44.207031 54.226562 43.3125 L 54.277344 43.3125 L 54.277344 43.261719 L 54.675781 42.414062 L 54.777344 42.5625 L 54.726562 42.863281 C 53.929688 45.652344 53.347656 47.066406 52.980469 47.101562 C 51.453125 47.066406 50.355469 46.71875 49.691406 46.054688 L 48.945312 44.90625 L 49.195312 44.757812 L 49.195312 44.65625 M 55.621094 50.738281 L 55.722656 50.589844 L 55.871094 50.835938 L 56.121094 50.835938 L 60.90625 50.140625 L 61.703125 49.941406 L 61.753906 50.039062 L 62.75 49.390625 L 62.851562 49.640625 L 62.152344 50.140625 C 59.394531 52.035156 57.582031 52.980469 56.71875 52.980469 C 55.988281 52.980469 55.523438 52.78125 55.324219 52.382812 L 55.273438 51.785156 C 55.242188 51.453125 55.355469 51.105469 55.621094 50.738281 M 55.921875 59.808594 L 56.171875 59.910156 L 55.972656 60.15625 L 56.070312 60.257812 L 56.320312 60.308594 L 56.621094 60.058594 L 59.910156 60.855469 L 60.605469 60.804688 L 60.308594 61.753906 L 59.609375 63.546875 L 57.21875 66.6875 L 57.019531 66.886719 L 57.019531 67.085938 L 57.167969 67.234375 C 57.566406 67.632812 58.113281 67.832031 58.8125 67.832031 L 58.515625 68.730469 C 58.449219 68.996094 58.164062 69.261719 57.667969 69.527344 L 57.21875 69.828125 C 56.851562 68.664062 56.488281 68.097656 56.121094 68.132812 C 55.890625 68.097656 55.773438 68.214844 55.773438 68.480469 C 55.773438 69.34375 56.105469 70.722656 56.769531 72.617188 L 56.769531 72.667969 C 56.902344 72.734375 57.035156 72.984375 57.167969 73.414062 L 57.117188 73.515625 L 57.070312 73.613281 L 57.316406 74.3125 L 57.667969 74.5625 L 57.515625 74.710938 L 57.417969 74.660156 C 55.722656 73.632812 54.910156 72.320312 54.976562 70.722656 L 54.027344 66.738281 C 53.996094 66.007812 54.925781 64.859375 56.820312 63.296875 C 55.957031 63.03125 55.523438 62.152344 55.523438 60.65625 C 55.523438 60.15625 55.589844 59.859375 55.722656 59.757812 L 55.921875 59.808594 M 61.953125 52.53125 L 61.953125 52.582031 L 62.203125 52.582031 L 62.300781 52.980469 L 60.804688 57.566406 C 60.804688 57.867188 61.519531 58.097656 62.949219 58.265625 C 64.34375 58.429688 65.042969 58.710938 65.042969 59.113281 L 64.59375 61.402344 L 64.097656 63.746094 L 63.847656 68.332031 C 63.8125 69.496094 64.195312 71.074219 64.992188 73.066406 C 65.824219 75.125 66.570312 76.15625 67.234375 76.15625 C 67.769531 76.15625 68.265625 75.460938 68.730469 74.0625 L 69.679688 71.121094 C 70.242188 71.589844 70.691406 72.285156 71.023438 73.214844 L 71.871094 75.609375 L 78.550781 66.039062 L 81.089844 60.355469 C 82.320312 57.730469 83.269531 56.4375 83.933594 56.46875 L 84.429688 56.46875 L 84.78125 56.621094 L 83.882812 57.367188 C 83.019531 59.195312 81.457031 63.695312 79.199219 70.875 C 78.765625 72.234375 77.636719 74.679688 75.808594 78.199219 C 74.710938 80.261719 73.132812 82.355469 71.074219 84.480469 L 70.972656 84.429688 L 71.074219 80.890625 C 71.074219 79.429688 70.890625 78.285156 70.527344 77.453125 C 70.257812 77.953125 70.144531 79.03125 70.175781 80.691406 C 70.175781 86.140625 69.394531 91.890625 67.835938 97.9375 L 65.492188 107.90625 L 63.996094 115.332031 C 64.261719 121.179688 64.675781 124.734375 65.242188 125.996094 L 65.09375 126.046875 L 65.09375 126.644531 C 65.722656 127.210938 66.039062 127.925781 66.039062 128.789062 L 65.941406 130.980469 C 65.941406 131.445312 66.273438 132.246094 66.9375 133.375 C 67.535156 134.472656 67.835938 135.117188 67.835938 135.316406 C 67.835938 136.382812 67.417969 137.460938 66.589844 138.558594 L 65.589844 139.902344 L 65.492188 139.953125 L 65.492188 138.507812 C 65.691406 137.144531 65.425781 136.480469 64.695312 136.515625 L 64.144531 136.5625 L 64.144531 136.914062 L 64.84375 138.457031 C 65.242188 139.652344 64.578125 140.269531 62.851562 140.300781 C 62.152344 140.269531 61.804688 139.652344 61.804688 138.457031 L 61.902344 136.863281 L 61.554688 136.761719 L 61.105469 136.914062 L 61.105469 139.753906 L 61.355469 140.152344 L 61.003906 140.300781 L 59.210938 140.152344 C 59.210938 139.789062 59.113281 139.207031 58.914062 138.410156 C 58.714844 137.578125 58.5625 137.164062 58.464844 137.164062 C 58.199219 137.164062 58.082031 137.378906 58.113281 137.808594 L 58.214844 139.503906 C 56.585938 139.171875 55.773438 138.125 55.773438 136.363281 L 55.773438 136.066406 L 55.523438 135.515625 L 55.773438 135.417969 L 55.871094 135.515625 L 56.96875 136.464844 C 57.367188 136.429688 57.667969 136.25 57.867188 135.917969 L 58.066406 135.269531 C 58.332031 135.335938 58.929688 135.734375 59.859375 136.464844 C 60.65625 136.429688 61.089844 136.164062 61.15625 135.667969 C 61.121094 135.070312 61.1875 134.703125 61.355469 134.570312 L 61.953125 135.617188 C 62.316406 136.183594 62.667969 136.464844 63 136.464844 C 63.398438 136.429688 63.664062 136.199219 63.796875 135.765625 L 63.945312 134.871094 L 64.792969 135.46875 C 65.558594 135.167969 65.941406 134.472656 65.941406 133.375 L 63.746094 129.785156 C 62.21875 127.359375 61.355469 125.433594 61.15625 124.003906 C 60.558594 121.84375 60.273438 120.28125 60.308594 119.320312 L 60.058594 114.734375 L 60.507812 105.414062 L 60.457031 105.066406 C 59.894531 106.027344 59.328125 107.421875 58.761719 109.25 C 58.066406 110.847656 56.917969 112.160156 55.324219 113.1875 L 55.273438 113.1875 L 54.976562 113.039062 L 55.222656 112.839844 C 55.058594 111.84375 54.875 111.179688 54.675781 110.847656 L 55.222656 109.300781 L 56.371094 105.863281 L 57.617188 102.574219 L 59.910156 95.394531 C 60.339844 93.632812 60.558594 91.542969 60.558594 89.117188 C 60.558594 87.851562 60.292969 86.109375 59.761719 83.882812 L 58.664062 78.648438 C 58.265625 75.09375 57.867188 72.453125 57.46875 70.722656 C 58 70.691406 58.5625 70.210938 59.160156 69.277344 C 59.625 68.414062 59.875 67.785156 59.910156 67.386719 L 59.910156 67.335938 L 59.808594 67.085938 L 59.609375 67.035156 L 59.511719 67.035156 L 58.5625 66.785156 C 59.492188 65.890625 60.441406 63.847656 61.40625 60.65625 L 61.40625 60.457031 L 61.207031 60.257812 L 61.054688 60.15625 L 61.003906 60.207031 L 58.863281 60.058594 L 58.5625 59.710938 L 57.167969 59.609375 L 57.070312 59.558594 L 61.953125 52.53125 M 84.78125 56.96875 L 84.828125 56.96875 C 85.09375 56.933594 85.460938 57.699219 85.925781 59.261719 C 86.558594 61.355469 87.421875 63.183594 88.519531 64.742188 C 88.785156 65.140625 89.03125 66.40625 89.265625 68.53125 L 89.464844 72.417969 C 89.464844 74.976562 89.28125 77.816406 88.917969 80.941406 C 88.917969 83.132812 89.332031 86.007812 90.164062 89.5625 C 90.960938 93.085938 91.359375 97.007812 91.359375 101.328125 L 91.308594 104.21875 L 90.261719 107.558594 L 89.714844 110.648438 C 89.679688 111.144531 89.265625 111.644531 88.46875 112.140625 C 87.671875 112.640625 87.273438 113.089844 87.273438 113.488281 L 87.621094 114.484375 L 87.671875 114.535156 L 87.570312 114.683594 L 87.519531 114.683594 L 87.519531 114.734375 L 87.023438 116.628906 L 87.222656 117.574219 C 86.457031 117.34375 85.976562 116.976562 85.777344 116.476562 L 85.628906 115.183594 C 85.628906 114.71875 85.910156 114.167969 86.472656 113.539062 L 87.121094 112.890625 L 87.273438 112.691406 L 87.222656 112.441406 L 86.875 112.390625 L 86.875 112.140625 L 86.972656 112.242188 L 87.222656 112.140625 L 88.765625 106.957031 C 89.230469 105.164062 89.464844 103.570312 89.464844 102.175781 C 89.367188 99.582031 89.214844 97.023438 89.015625 94.5 C 88.71875 90.644531 88.386719 88.25 88.019531 87.320312 L 88.269531 87.023438 C 86.339844 84.429688 84.597656 81.554688 83.035156 78.398438 L 80.792969 74.015625 L 80.492188 71.421875 L 80.292969 69.925781 L 84.679688 57.367188 L 84.628906 57.117188 L 84.628906 56.96875 L 84.78125 56.96875 M 88.070312 115.382812 L 88.121094 115.382812 L 88.519531 116.230469 C 88.785156 116.695312 89.082031 116.925781 89.414062 116.925781 L 90.210938 116.675781 L 90.511719 116.328125 L 90.5625 116.230469 L 90.710938 116.476562 L 90.5625 116.777344 L 90.5625 116.976562 C 90.628906 117.34375 90.726562 117.589844 90.859375 117.722656 L 90.859375 118.222656 C 89.699219 118.488281 88.851562 118.390625 88.320312 117.921875 C 87.886719 117.589844 87.6875 117.191406 87.71875 116.726562 L 87.921875 115.632812 L 87.921875 115.382812 L 88.070312 115.382812 M 91.109375 115.78125 L 91.507812 116.277344 C 91.773438 116.542969 92.058594 116.695312 92.355469 116.726562 C 93.585938 116.695312 94.332031 116.445312 94.597656 115.980469 L 94.648438 115.132812 L 94.847656 115.132812 L 94.949219 115.429688 L 94.949219 115.582031 L 95.394531 116.429688 C 95.164062 118.257812 94.597656 119.167969 93.703125 119.167969 C 92.671875 119.167969 92.007812 118.769531 91.707031 117.972656 L 91.308594 116.925781 L 91.308594 116.726562 L 91.160156 116.675781 L 90.8125 115.78125 L 90.960938 115.632812 L 91.109375 115.78125 M 95.546875 114.632812 L 96.792969 114.882812 C 97.289062 114.851562 97.65625 114.699219 97.886719 114.433594 L 98.039062 114.285156 L 98.085938 114.484375 L 97.988281 114.632812 L 97.9375 114.683594 L 97.988281 114.832031 C 97.988281 115.699219 97.574219 116.511719 96.742188 117.277344 L 95.546875 118.472656 L 95.59375 118.371094 L 96.042969 116.429688 L 95.746094 114.984375 L 95.046875 114.632812 L 95.097656 114.433594 L 95.546875 114.632812 M 78.75 14.054688 L 78.75 13.558594 C 78.75 11.628906 79.480469 9.851562 80.941406 8.222656 C 82.371094 6.59375 83.917969 5.78125 85.578125 5.78125 C 90.296875 5.78125 94.5 8.125 98.1875 12.808594 C 98.984375 13.871094 99.382812 15.183594 99.382812 16.746094 L 99.183594 20.785156 L 99.183594 20.832031 L 99.683594 20.136719 C 99.914062 19.703125 100.230469 19.40625 100.628906 19.238281 L 100.679688 19.386719 C 100.679688 21.546875 99.816406 24.238281 98.085938 27.460938 C 95.894531 31.449219 93.371094 33.441406 90.511719 33.441406 L 91.507812 34.289062 L 91.359375 34.6875 L 88.917969 34.9375 L 87.769531 35.335938 L 84.929688 35.289062 L 84.78125 35.289062 L 84.78125 35.089844 L 83.683594 33.691406 L 81.789062 31.550781 L 85.179688 31.796875 C 86.375 31.796875 87.804688 31.132812 89.464844 29.804688 C 90.828125 28.773438 91.890625 27.726562 92.65625 26.664062 C 93.320312 25.703125 93.734375 24.671875 93.902344 23.574219 L 94 20.285156 L 93.75 15.648438 C 93.71875 15.351562 93.019531 14.570312 91.65625 13.308594 L 89.914062 11.3125 L 86.226562 11.113281 C 83.46875 11.082031 81.523438 11.578125 80.394531 12.609375 C 79.761719 13.140625 79.464844 13.738281 79.496094 14.402344 L 79.546875 14.953125 L 79.445312 15.003906 L 79.445312 15.152344 L 79.296875 15.300781 C 78.964844 15.234375 78.78125 14.820312 78.75 14.054688 M 100.28125 20.035156 L 100.230469 19.984375 L 100.179688 19.984375 L 100.28125 20.035156 M 42.964844 114.1875 L 42.464844 113.984375 L 41.519531 113.289062 C 41.519531 112.789062 42.199219 111.894531 43.5625 110.597656 L 45.15625 109.203125 L 45.105469 109.75 L 45.058594 110.746094 L 45.355469 112.738281 C 45.621094 113.605469 46.054688 114.269531 46.652344 114.734375 C 44.691406 114.566406 43.710938 114.335938 43.710938 114.035156 L 44.257812 113.4375 L 44.808594 112.839844 C 44.808594 112.671875 44.691406 112.558594 44.457031 112.492188 C 43.496094 112.722656 43.011719 113.222656 43.011719 113.984375 L 42.964844 114.1875 M 3.988281 82.039062 L 4.039062 84.132812 L 4.085938 92.554688 L 4.238281 96.742188 C 4.304688 98.46875 4.535156 99.863281 4.933594 100.929688 C 5.265625 101.824219 6.199219 103.421875 7.726562 105.710938 C 9.15625 107.839844 9.867188 108.96875 9.867188 109.101562 C 9.867188 109.5 9.519531 109.75 8.824219 109.847656 L 8.324219 109.847656 L 7.726562 109.648438 L 7.675781 109.550781 C 6.148438 108.886719 4.835938 107.289062 3.738281 104.765625 C 2.476562 101.839844 1.792969 98.601562 1.695312 95.046875 L 0.796875 79.84375 C 0.796875 78.816406 1.082031 77.636719 1.644531 76.304688 L 3.191406 73.117188 L 3.539062 77.253906 L 3.988281 82.039062 M 7.675781 109.550781 L 7.675781 109.449219 L 7.675781 109.550781 "/>
<path style=" stroke:none;fill-rule:evenodd;fill:rgb(81.176472%,79.607844%,76.078433%);fill-opacity:1;" d="M 4.6875 60.308594 L 4.886719 60.308594 C 4.1875 55.390625 6.5625 49.523438 12.011719 42.714844 C 12.675781 41.851562 14.585938 40.851562 17.742188 39.722656 C 21.035156 38.527344 23.359375 37.230469 24.722656 35.835938 L 32.796875 28.359375 L 31.949219 30.550781 C 30.585938 33.277344 29.125 35.15625 27.5625 36.183594 L 27.363281 36.183594 L 27.3125 36.335938 L 27.261719 36.335938 L 27.261719 36.484375 L 27.3125 36.683594 L 28.011719 36.882812 C 31.300781 38.210938 34.40625 38.875 37.332031 38.875 C 39.027344 38.84375 42.28125 35.667969 47.101562 29.355469 L 47.050781 29.304688 L 47.101562 29.304688 L 47.199219 29.257812 L 46.851562 31.101562 L 46.75 32.296875 L 46.453125 32.894531 L 46.601562 33.242188 L 46.652344 33.242188 L 46.601562 34.640625 L 46.652344 37.628906 L 47.199219 40.472656 L 47 40.871094 L 47.148438 41.167969 L 47.347656 41.21875 L 47.398438 41.269531 L 47.449219 41.167969 L 47.699219 41.070312 L 47.699219 40.917969 L 48.792969 39.625 L 48.644531 41.71875 L 48.644531 43.210938 L 48.792969 44.257812 L 48.792969 44.457031 L 48.945312 44.558594 L 49.144531 44.65625 L 49.195312 44.65625 L 49.195312 44.757812 L 48.945312 44.90625 L 49.691406 46.054688 C 50.355469 46.71875 51.453125 47.066406 52.980469 47.101562 C 53.347656 47.066406 53.929688 45.652344 54.726562 42.863281 L 54.824219 42.761719 L 54.824219 45.207031 L 55.023438 48.695312 C 55.058594 49.757812 55.222656 50.421875 55.523438 50.6875 L 55.621094 50.738281 C 55.355469 51.105469 55.242188 51.453125 55.273438 51.785156 L 55.324219 52.382812 C 55.523438 52.78125 55.988281 52.980469 56.71875 52.980469 C 57.582031 52.980469 59.394531 52.035156 62.152344 50.140625 L 63.050781 49.839844 C 62.550781 50.371094 62.050781 51.070312 61.554688 51.933594 L 59.808594 54.625 L 56.023438 59.660156 L 55.972656 59.660156 L 55.921875 59.808594 L 55.722656 59.757812 C 55.589844 59.859375 55.523438 60.15625 55.523438 60.65625 C 55.523438 62.152344 55.957031 63.03125 56.820312 63.296875 C 54.925781 64.859375 53.996094 66.007812 54.027344 66.738281 L 54.976562 70.722656 C 54.910156 72.320312 55.722656 73.632812 57.417969 74.660156 L 57.617188 75.558594 L 57.515625 75.609375 C 55.824219 76.972656 54.808594 78.714844 54.476562 80.84375 L 54.226562 86.226562 C 53.863281 89.515625 53.679688 93.070312 53.679688 96.890625 L 53.679688 97.4375 C 53.644531 98.371094 53.398438 99.5 52.929688 100.828125 L 51.335938 104.714844 C 49.773438 108.734375 48.996094 111.394531 48.996094 112.691406 C 48.996094 113.554688 49.277344 114.320312 49.839844 114.984375 L 49.691406 115.082031 L 49.640625 115.132812 L 49.59375 115.132812 L 49.542969 114.933594 L 49.195312 114.832031 L 48.945312 115.03125 L 48.546875 114.933594 L 47.949219 114.683594 L 47.648438 114.785156 C 47.25 114.785156 46.96875 114.5 46.800781 113.9375 L 46.054688 112.738281 C 45.855469 112.207031 45.753906 111.210938 45.753906 109.75 C 45.753906 109.019531 46.21875 107.15625 47.148438 104.167969 L 48.59375 99.683594 L 48.644531 99.484375 L 48.746094 99.332031 L 48.792969 99.035156 C 49.890625 95.210938 50.441406 92.023438 50.441406 89.464844 L 49.492188 75.359375 L 49.742188 74.710938 L 49.691406 74.511719 L 49.292969 74.414062 L 48.792969 74.511719 L 48.792969 75.261719 L 49.292969 79.746094 L 49.542969 83.335938 L 45.953125 87.121094 L 41.367188 91.65625 L 34.339844 96.441406 C 31.515625 97.96875 28.640625 98.734375 25.71875 98.734375 L 21.53125 98.585938 L 21.53125 98.484375 C 18.109375 96.390625 15.699219 95.363281 14.304688 95.394531 L 11.3125 95.746094 L 10.867188 95.394531 L 10.070312 94.699219 L 7.824219 91.160156 C 7.0625 89.929688 6.496094 89.214844 6.132812 89.015625 C 5 86.257812 4.46875 83.183594 4.535156 79.796875 L 4.085938 74.960938 L 3.6875 69.925781 C 4.21875 67.035156 4.503906 64.875 4.535156 63.449219 L 4.484375 62.5 L 4.484375 62.402344 L 4.585938 62.5 L 4.933594 62.300781 L 4.933594 61.703125 L 4.6875 60.308594 M 33.046875 27.859375 L 32.695312 27.859375 L 32.347656 28.011719 L 33.09375 27.363281 L 33.34375 27.164062 L 33.195312 27.460938 L 33.046875 27.859375 M 17.296875 134.769531 L 17.246094 134.71875 C 17.875 133.757812 18.210938 133.109375 18.242188 132.777344 L 17.894531 132.378906 C 17.726562 132.445312 17.476562 132.824219 17.144531 133.523438 L 16.648438 134.519531 L 16.398438 134.421875 L 15.949219 134.269531 L 15.949219 134.421875 L 15.800781 134.421875 L 15.800781 134.621094 C 15.566406 134.886719 15.152344 135.019531 14.554688 135.019531 C 13.65625 135.019531 13.207031 134.785156 13.207031 134.320312 L 13.558594 133.722656 L 13.457031 133.574219 L 13.707031 133.125 C 13.707031 132.890625 13.574219 132.777344 13.308594 132.777344 C 13.042969 132.777344 12.675781 133.125 12.210938 133.824219 L 11.914062 134.269531 C 11.214844 134.171875 10.816406 134.003906 10.714844 133.773438 C 10.714844 133.507812 10.667969 133.292969 10.566406 133.125 C 11.496094 132.394531 12.046875 131.828125 12.210938 131.429688 C 12.113281 131.230469 11.960938 131.132812 11.761719 131.132812 C 11.363281 131.132812 10.714844 131.648438 9.820312 132.675781 L 9.769531 132.726562 L 9.667969 132.625 C 10.234375 131.097656 11.582031 129.652344 13.707031 128.289062 C 14.503906 127.792969 15.203125 126.960938 15.800781 125.796875 L 17.246094 123.058594 C 18.210938 121.828125 19.15625 120.015625 20.085938 117.625 C 20.21875 116.296875 20.402344 115.398438 20.632812 114.933594 L 20.683594 113.585938 C 21.050781 112.890625 21.234375 112.40625 21.234375 112.140625 L 21.382812 108.902344 L 21.132812 105.863281 C 22.460938 107.523438 23.359375 109.035156 23.824219 110.398438 C 24.289062 111.695312 24.539062 113.304688 24.570312 115.230469 C 24.570312 117.125 23.925781 119.519531 22.628906 122.410156 C 22.496094 123.140625 21.878906 124.386719 20.785156 126.148438 C 19.722656 127.710938 19.1875 128.90625 19.1875 129.734375 L 19.636719 132.625 C 19.605469 133.09375 19.472656 133.457031 19.238281 133.722656 L 17.296875 134.769531 M 10.269531 133.375 L 10.316406 133.324219 L 10.316406 133.375 L 10.269531 133.375 M 54.226562 43.3125 L 54.277344 43.261719 L 54.277344 43.3125 L 54.226562 43.3125 M 47.699219 39.324219 C 47.398438 38.394531 47.265625 36.847656 47.300781 34.6875 L 47.398438 32.996094 L 48.792969 31.75 L 51.484375 29.605469 C 55.042969 28.242188 57.203125 27.246094 57.964844 26.613281 L 62.351562 26.8125 L 66.589844 26.265625 C 67.351562 26.066406 69.078125 26.382812 71.769531 27.214844 L 75.160156 27.859375 L 78.398438 29.65625 L 80.09375 30.851562 L 80.492188 31.152344 C 81.589844 32.046875 82.636719 33.109375 83.632812 34.339844 C 84.628906 35.238281 85.742188 36.847656 86.972656 39.175781 L 88.367188 41.964844 L 89.515625 43.808594 L 90.710938 46.253906 L 92.304688 49.640625 L 94 55.574219 C 95.828125 60.921875 96.742188 64.925781 96.742188 67.585938 C 96.742188 68.714844 96.476562 70.574219 95.945312 73.167969 C 95.378906 75.726562 95.097656 77.386719 95.097656 78.152344 L 95.097656 79.296875 C 95.164062 79.929688 95.296875 80.292969 95.496094 80.394531 L 95.496094 80.542969 C 95.496094 83.898438 95.679688 86.292969 96.042969 87.71875 L 96.890625 91.757812 L 96.890625 94.996094 L 96.34375 102.773438 C 95.976562 106.261719 95.792969 108.851562 95.792969 110.546875 L 95.792969 111.394531 C 95.828125 111.894531 95.976562 112.175781 96.242188 112.242188 C 96.34375 112.90625 96.660156 113.40625 97.191406 113.738281 L 97.886719 114.433594 C 97.65625 114.699219 97.289062 114.851562 96.792969 114.882812 L 95.546875 114.632812 C 95.347656 114.300781 95.128906 114.136719 94.898438 114.136719 C 94.664062 114.136719 94.5 114.21875 94.398438 114.386719 L 94.699219 115.132812 L 94.648438 115.132812 L 94.597656 115.980469 C 94.332031 116.445312 93.585938 116.695312 92.355469 116.726562 C 92.058594 116.695312 91.773438 116.542969 91.507812 116.277344 L 91.109375 115.78125 L 90.8125 115.230469 C 90.542969 115.429688 90.429688 115.699219 90.460938 116.03125 L 90.511719 116.328125 L 90.210938 116.675781 L 89.414062 116.925781 C 89.082031 116.925781 88.785156 116.695312 88.519531 116.230469 L 88.121094 115.382812 L 88.070312 115.382812 L 88.367188 114.832031 C 88.832031 114.136719 89.066406 113.671875 89.066406 113.4375 C 89.066406 113.105469 88.964844 112.941406 88.765625 112.941406 C 88.402344 112.90625 88.019531 113.421875 87.621094 114.484375 L 87.273438 113.488281 C 87.273438 113.089844 87.671875 112.640625 88.46875 112.140625 C 89.265625 111.644531 89.679688 111.144531 89.714844 110.648438 L 90.261719 107.558594 L 91.308594 104.21875 L 91.359375 101.328125 C 91.359375 97.007812 90.960938 93.085938 90.164062 89.5625 C 89.332031 86.007812 88.917969 83.132812 88.917969 80.941406 C 89.28125 77.816406 89.464844 74.976562 89.464844 72.417969 L 89.265625 68.53125 C 89.03125 66.40625 88.785156 65.140625 88.519531 64.742188 C 87.421875 63.183594 86.558594 61.355469 85.925781 59.261719 C 85.460938 57.699219 85.09375 56.933594 84.828125 56.96875 L 84.78125 56.96875 L 84.828125 56.769531 L 84.78125 56.621094 C 84.714844 56.519531 84.613281 56.46875 84.480469 56.46875 L 83.933594 56.46875 C 83.269531 56.4375 82.320312 57.730469 81.089844 60.355469 L 78.550781 66.039062 L 71.871094 75.609375 L 71.023438 73.214844 C 70.691406 72.285156 70.242188 71.589844 69.679688 71.121094 L 68.730469 74.0625 C 68.265625 75.460938 67.769531 76.15625 67.234375 76.15625 C 66.570312 76.15625 65.824219 75.125 64.992188 73.066406 C 64.195312 71.074219 63.8125 69.496094 63.847656 68.332031 L 64.097656 63.746094 L 64.59375 61.402344 L 65.042969 59.113281 C 65.042969 58.710938 64.34375 58.429688 62.949219 58.265625 C 61.519531 58.097656 60.804688 57.867188 60.804688 57.566406 L 62.300781 52.980469 L 62.203125 52.582031 L 61.953125 52.582031 L 61.953125 52.53125 L 63.449219 50.289062 L 63.945312 49.890625 L 64.296875 49.09375 L 64.195312 48.84375 L 63.746094 48.792969 L 63.148438 48.945312 L 62.898438 48.945312 L 57.714844 49.691406 L 56.121094 49.992188 L 55.273438 42.117188 L 55.523438 41.417969 C 55.488281 41.183594 55.375 41.085938 55.175781 41.117188 L 54.976562 41.167969 L 54.824219 41.167969 L 54.824219 41.269531 L 54.425781 41.71875 L 53.628906 42.761719 L 52.832031 43.660156 C 51.46875 44.324219 50.375 44.609375 49.542969 44.507812 L 49.441406 44.457031 L 49.492188 44.109375 L 49.34375 40.96875 C 49.34375 40.339844 49.476562 39.707031 49.742188 39.074219 L 50.140625 37.730469 L 50.089844 37.578125 L 50.089844 37.480469 L 49.941406 37.429688 L 49.742188 37.429688 C 49.242188 37.628906 48.644531 38.246094 47.949219 39.273438 L 47.847656 39.425781 L 47.699219 39.324219 M 78.75 14.054688 C 78.21875 13.058594 77.96875 12.09375 78 11.164062 C 77.96875 8.507812 78.21875 6.660156 78.75 5.632812 C 79.148438 4.769531 80.195312 3.738281 81.890625 2.542969 C 83.484375 1.347656 84.628906 0.746094 85.328125 0.746094 C 87.222656 0.746094 89.597656 1.3125 92.457031 2.441406 C 95.015625 3.40625 96.839844 4.351562 97.9375 5.28125 C 98.402344 5.683594 99.019531 6.929688 99.78125 9.019531 C 100.414062 10.847656 100.945312 11.761719 101.378906 11.761719 L 101.476562 11.761719 L 101.777344 11.664062 L 101.824219 10.617188 L 100.679688 5.632812 L 99.832031 2.292969 L 100.378906 2.742188 C 101.511719 3.539062 102.15625 4.105469 102.324219 4.4375 L 103.570312 8.175781 L 104.515625 12.359375 L 105.113281 15.699219 L 104.816406 19.039062 C 104.816406 19.96875 104.632812 20.734375 104.269531 21.332031 L 103.867188 22.078125 L 103.621094 22.378906 C 103.585938 22.609375 103.601562 22.710938 103.667969 22.675781 L 103.820312 22.675781 L 104.117188 23.027344 L 104.367188 22.726562 C 105.332031 22.628906 106.246094 21.597656 107.109375 19.636719 L 108.355469 16 L 108.40625 16.046875 C 108.40625 17.113281 108.554688 17.726562 108.851562 17.894531 L 109.101562 19.4375 L 109.101562 22.429688 C 109.070312 23.558594 108.871094 24.636719 108.503906 25.667969 C 107.90625 27.394531 106.761719 28.890625 105.066406 30.152344 L 104.46875 30.453125 C 103.070312 31.152344 102.375 31.566406 102.375 31.699219 L 102.523438 31.996094 L 102.871094 32.046875 C 103.304688 32.046875 103.886719 31.796875 104.617188 31.300781 L 106.511719 30.402344 L 103.96875 33.292969 C 101.476562 35.386719 98.550781 36.433594 95.195312 36.433594 L 93.800781 36.183594 L 93.054688 36.382812 C 93.550781 37.046875 94.347656 37.878906 95.445312 38.875 L 96.441406 39.722656 L 93.253906 39.472656 L 90.113281 38.726562 C 88.121094 37.5625 86.921875 36.980469 86.523438 36.980469 L 86.175781 37.082031 L 84.929688 35.289062 L 87.769531 35.335938 L 88.917969 34.9375 L 91.359375 34.6875 L 91.507812 34.289062 L 90.511719 33.441406 C 93.371094 33.441406 95.894531 31.449219 98.085938 27.460938 C 99.816406 24.238281 100.679688 21.546875 100.679688 19.386719 L 100.628906 19.238281 C 100.230469 19.40625 99.914062 19.703125 99.683594 20.136719 L 99.183594 20.832031 L 99.183594 20.785156 L 99.382812 16.746094 C 99.382812 15.183594 98.984375 13.871094 98.1875 12.808594 C 94.5 8.125 90.296875 5.78125 85.578125 5.78125 C 83.917969 5.78125 82.371094 6.59375 80.941406 8.222656 C 79.480469 9.851562 78.75 11.628906 78.75 13.558594 L 78.75 14.054688 M 79.445312 15.152344 L 79.445312 15.003906 L 79.546875 14.953125 L 79.597656 15.351562 L 79.445312 15.152344 M 100.28125 20.035156 L 100.179688 19.984375 L 100.230469 19.984375 L 100.28125 20.035156 M 97.988281 114.632812 L 97.988281 114.832031 L 97.9375 114.683594 L 97.988281 114.632812 M 55.871094 135.515625 L 56.46875 133.425781 L 57.167969 130.980469 L 56.820312 130.484375 L 55.972656 132.226562 C 55.375 131.398438 55.074219 130.832031 55.074219 130.535156 L 55.621094 127.84375 C 55.988281 126.546875 56.171875 125.417969 56.171875 124.453125 L 55.773438 117.523438 L 55.273438 113.1875 L 55.324219 113.1875 C 56.917969 112.160156 58.066406 110.847656 58.761719 109.25 C 59.328125 107.421875 59.894531 106.027344 60.457031 105.066406 L 60.507812 105.414062 L 60.058594 114.734375 L 60.308594 119.320312 C 60.273438 120.28125 60.558594 121.84375 61.15625 124.003906 C 61.355469 125.433594 62.21875 127.359375 63.746094 129.785156 L 65.941406 133.375 C 65.941406 134.472656 65.558594 135.167969 64.792969 135.46875 L 63.945312 134.871094 L 63.796875 135.765625 C 63.664062 136.199219 63.398438 136.429688 63 136.464844 C 62.667969 136.464844 62.316406 136.183594 61.953125 135.617188 L 61.355469 134.570312 C 61.1875 134.703125 61.121094 135.070312 61.15625 135.667969 C 61.089844 136.164062 60.65625 136.429688 59.859375 136.464844 C 58.929688 135.734375 58.332031 135.335938 58.066406 135.269531 L 57.867188 135.917969 C 57.667969 136.25 57.367188 136.429688 56.96875 136.464844 L 55.871094 135.515625 M 87.519531 114.734375 L 87.519531 114.683594 L 87.570312 114.683594 L 87.519531 114.734375 M 28.160156 82.089844 C 27.429688 82.488281 26.863281 82.917969 26.464844 83.382812 L 26.617188 83.980469 L 26.566406 84.179688 L 26.714844 84.480469 L 27.0625 84.578125 L 28.0625 83.734375 C 28.691406 83.132812 29.175781 82.785156 29.507812 82.6875 L 31.050781 81.789062 L 34.242188 81.140625 L 34.191406 81.042969 L 38.179688 80.890625 C 38.542969 80.890625 38.859375 81.023438 39.125 81.289062 C 39.390625 81.554688 39.691406 81.6875 40.023438 81.6875 L 40.371094 81.539062 L 40.421875 81.339844 C 40.023438 80.542969 38.59375 80.160156 36.136719 80.195312 C 34.339844 80.160156 32.664062 80.441406 31.101562 81.042969 C 30.070312 81.207031 29.089844 81.554688 28.160156 82.089844 M 16.296875 74.613281 C 16.296875 73.546875 16 73.035156 15.402344 73.066406 L 15.101562 73.117188 L 15.050781 73.414062 L 15.949219 74.8125 C 16.183594 74.8125 16.296875 74.746094 16.296875 74.613281 M 10.019531 73.214844 L 11.414062 75.261719 L 11.363281 75.308594 C 11.464844 76.074219 11.679688 76.640625 12.011719 77.003906 L 12.410156 77.601562 L 12.460938 77.800781 L 12.460938 78 L 12.359375 79.84375 L 12.960938 79.894531 L 13.207031 79.84375 L 13.207031 79.894531 L 13.507812 79.796875 L 13.558594 79.597656 L 13.558594 78.847656 C 13.558594 77.984375 13.273438 76.871094 12.710938 75.507812 L 12.761719 75.460938 C 12.226562 73.796875 11.613281 72.835938 10.914062 72.570312 C 10.152344 71.703125 9.421875 71.273438 8.722656 71.273438 L 8.421875 71.324219 L 8.375 71.570312 C 8.339844 71.671875 8.804688 72.035156 9.769531 72.667969 L 10.019531 73.066406 L 10.019531 73.214844 M 27.910156 75.609375 L 27.363281 75.507812 C 27.097656 75.574219 26.796875 75.773438 26.464844 76.105469 L 25.917969 76.804688 L 26.265625 77.304688 C 26.730469 77.105469 27.296875 76.605469 27.960938 75.808594 L 27.910156 75.609375 M 47.597656 97.539062 L 47.5 97.589844 L 47.597656 97.539062 M 20.433594 92.554688 L 20.433594 92.40625 L 20.335938 92.15625 L 19.988281 92.105469 L 13.457031 91.558594 C 13.058594 91.191406 12.59375 91.007812 12.0625 91.007812 C 11.761719 90.976562 11.628906 91.074219 11.664062 91.308594 C 11.628906 91.507812 11.761719 91.707031 12.0625 91.90625 C 13.890625 93.933594 15.035156 94.945312 15.5 94.945312 C 16.132812 94.945312 17.113281 94.613281 18.441406 93.949219 C 19.738281 93.285156 20.402344 92.820312 20.433594 92.554688 M 3.988281 82.039062 C 4.550781 87.222656 5.199219 89.878906 5.929688 90.011719 C 6.796875 91.972656 7.992188 93.667969 9.519531 95.097656 L 11.363281 96.542969 L 11.363281 98.136719 L 11.515625 98.285156 L 11.515625 99.035156 C 12.578125 102.65625 13.125 105.015625 13.160156 106.113281 C 12.792969 108.601562 11.496094 109.847656 9.269531 109.847656 L 8.824219 109.847656 C 9.519531 109.75 9.867188 109.5 9.867188 109.101562 C 9.867188 108.96875 9.15625 107.839844 7.726562 105.710938 C 6.199219 103.421875 5.265625 101.824219 4.933594 100.929688 C 4.535156 99.863281 4.304688 98.46875 4.238281 96.742188 L 4.085938 92.554688 L 4.039062 84.132812 L 3.988281 82.039062 M 7.675781 109.550781 L 7.675781 109.449219 L 7.675781 109.550781 "/>
<path style=" stroke:none;fill-rule:evenodd;fill:rgb(0%,0%,0%);fill-opacity:1;" d="M 80.394531 30.304688 L 81.492188 30.703125 L 84.980469 31.050781 C 86.308594 31.050781 87.753906 30.4375 89.316406 29.207031 C 90.644531 28.175781 91.558594 27.164062 92.058594 26.167969 C 92.886719 24.570312 93.304688 22.628906 93.304688 20.335938 L 93.054688 15.847656 C 92.820312 15.152344 92.105469 14.289062 90.910156 13.257812 L 88.917969 11.8125 L 82.335938 11.761719 L 82.238281 11.960938 C 82.269531 12.09375 82.15625 12.246094 81.890625 12.410156 L 81.089844 13.109375 L 80.195312 14.402344 L 80.59375 16.746094 L 80.542969 16.945312 L 80.246094 17.144531 L 80.195312 17.144531 L 79.796875 17.046875 L 79.746094 16.648438 L 77.652344 14.054688 C 77.386719 13.691406 77.269531 12.757812 77.304688 11.265625 C 77.304688 8.308594 77.570312 6.246094 78.101562 5.082031 C 78.332031 4.585938 79.332031 3.65625 81.089844 2.292969 C 83.050781 0.765625 84.464844 0 85.328125 0 C 87.222656 0 89.632812 0.582031 92.554688 1.746094 C 95.148438 2.773438 97.074219 3.789062 98.335938 4.785156 C 98.933594 5.25 99.730469 6.628906 100.730469 8.921875 L 98.785156 1.59375 L 98.835938 1.097656 L 98.785156 0.898438 L 99.132812 0.699219 L 99.183594 0.699219 C 99.515625 0.664062 100.179688 1.078125 101.175781 1.945312 C 102.207031 2.839844 102.855469 3.636719 103.121094 4.335938 L 104.269531 8.175781 L 105.113281 11.761719 L 105.8125 15.75 C 105.648438 17.910156 105.414062 19.605469 105.113281 20.832031 L 105.464844 20.484375 C 106.761719 18.757812 107.558594 16.695312 107.855469 14.304688 L 108.207031 14.253906 C 108.539062 14.253906 108.804688 14.621094 109.003906 15.351562 C 109.699219 15.484375 109.949219 16.828125 109.75 19.386719 L 109.851562 22.628906 C 109.785156 23.789062 109.550781 24.921875 109.152344 26.015625 C 108.820312 26.980469 108.039062 28.09375 106.808594 29.355469 L 107.359375 29.207031 L 107.507812 29.207031 L 107.605469 29.257812 L 107.804688 29.257812 L 107.804688 29.40625 L 107.855469 29.503906 C 107.824219 30.570312 106.246094 32.214844 103.121094 34.441406 C 99.730469 36.800781 97.089844 37.679688 95.195312 37.082031 L 95.046875 37.082031 L 97.839844 39.871094 L 97.839844 40.070312 C 97.839844 40.371094 97.441406 40.539062 96.640625 40.570312 C 93.585938 40.570312 91.011719 40.105469 88.917969 39.175781 L 86.675781 37.878906 L 86.074219 37.53125 L 86.074219 37.28125 L 86.175781 37.082031 L 86.523438 36.980469 C 86.921875 36.980469 88.121094 37.5625 90.113281 38.726562 L 93.253906 39.472656 L 96.441406 39.722656 L 95.445312 38.875 C 94.347656 37.878906 93.550781 37.046875 93.054688 36.382812 L 93.800781 36.183594 L 95.195312 36.433594 C 98.550781 36.433594 101.476562 35.386719 103.96875 33.292969 L 106.511719 30.402344 L 104.617188 31.300781 C 103.886719 31.796875 103.304688 32.046875 102.871094 32.046875 L 102.523438 31.996094 L 102.375 31.699219 C 102.375 31.566406 103.070312 31.152344 104.46875 30.453125 L 105.066406 30.152344 C 106.761719 28.890625 107.90625 27.394531 108.503906 25.667969 C 108.871094 24.636719 109.070312 23.558594 109.101562 22.429688 L 109.101562 19.4375 L 108.851562 17.894531 C 108.554688 17.726562 108.40625 17.113281 108.40625 16.046875 L 108.355469 15.949219 L 108.355469 16 L 107.109375 19.636719 C 106.246094 21.597656 105.332031 22.628906 104.367188 22.726562 L 104.117188 23.027344 L 103.820312 22.675781 L 103.667969 22.675781 C 103.601562 22.710938 103.585938 22.609375 103.621094 22.378906 L 103.867188 22.078125 L 104.269531 21.332031 C 104.632812 20.734375 104.816406 19.96875 104.816406 19.039062 L 105.113281 15.699219 L 104.515625 12.359375 L 103.570312 8.175781 L 102.324219 4.4375 C 102.15625 4.105469 101.511719 3.539062 100.378906 2.742188 L 99.832031 2.292969 L 100.679688 5.632812 L 101.824219 10.617188 L 101.777344 11.664062 L 101.476562 11.761719 L 101.378906 11.761719 C 100.945312 11.761719 100.414062 10.847656 99.78125 9.019531 C 99.019531 6.929688 98.402344 5.683594 97.9375 5.28125 C 96.839844 4.351562 95.015625 3.40625 92.457031 2.441406 C 89.597656 1.3125 87.222656 0.746094 85.328125 0.746094 C 84.628906 0.746094 83.484375 1.347656 81.890625 2.542969 C 80.195312 3.738281 79.148438 4.769531 78.75 5.632812 C 78.21875 6.660156 77.96875 8.507812 78 11.164062 C 77.96875 12.09375 78.21875 13.058594 78.75 14.054688 C 78.78125 14.820312 78.964844 15.234375 79.296875 15.300781 L 79.445312 15.152344 L 79.597656 15.351562 L 79.546875 14.953125 L 79.496094 14.402344 C 79.464844 13.738281 79.761719 13.140625 80.394531 12.609375 C 81.523438 11.578125 83.46875 11.082031 86.226562 11.113281 L 89.914062 11.3125 L 91.65625 13.308594 C 93.019531 14.570312 93.71875 15.351562 93.75 15.648438 L 94 20.285156 L 93.902344 23.574219 C 93.734375 24.671875 93.320312 25.703125 92.65625 26.664062 C 91.890625 27.726562 90.828125 28.773438 89.464844 29.804688 C 87.804688 31.132812 86.375 31.796875 85.179688 31.796875 L 81.789062 31.550781 C 81.226562 31.449219 80.792969 31.316406 80.492188 31.152344 L 80.09375 30.851562 L 79.894531 30.402344 L 80.246094 30.304688 L 80.394531 30.304688 "/>
<path style=" stroke:none;fill-rule:evenodd;fill:rgb(32.156864%,28.627452%,25.882354%);fill-opacity:1;" d="M 57.667969 75.609375 L 57.914062 75.707031 L 57.714844 75.957031 L 57.964844 78.847656 C 57.933594 80.011719 58.246094 81.6875 58.914062 83.882812 C 59.542969 86.140625 59.875 87.902344 59.910156 89.164062 C 59.875 91.292969 59.578125 93.484375 59.011719 95.746094 L 56.96875 102.375 L 54.527344 108.953125 C 53.863281 111.378906 52.398438 113.339844 50.140625 114.832031 L 50.238281 115.082031 L 50.089844 115.230469 L 49.839844 114.984375 C 49.277344 114.320312 48.996094 113.554688 48.996094 112.691406 C 48.996094 111.394531 49.773438 108.734375 51.335938 104.714844 L 52.929688 100.828125 C 53.398438 99.5 53.644531 98.371094 53.679688 97.4375 L 53.679688 96.890625 C 53.679688 93.070312 53.863281 89.515625 54.226562 86.226562 L 54.476562 80.84375 C 54.808594 78.714844 55.824219 76.972656 57.515625 75.609375 L 57.667969 75.609375 M 13.90625 92.503906 L 13.957031 92.304688 L 14.105469 92.304688 C 14.339844 92.304688 14.605469 92.4375 14.902344 92.703125 L 18.34375 93.003906 L 17.941406 93.253906 C 16.8125 93.882812 16.015625 94.214844 15.550781 94.25 L 14.105469 92.753906 L 14.105469 92.652344 L 13.90625 92.554688 L 13.90625 92.503906 "/>
<path style=" stroke:none;fill-rule:evenodd;fill:rgb(20.784314%,16.862746%,16.078432%);fill-opacity:1;" d="M 13.007812 96.640625 L 12.660156 96.492188 L 12.261719 96.492188 L 12.261719 96.34375 L 12.460938 96.292969 L 13.40625 96.191406 C 13.441406 96.160156 13.507812 96.210938 13.605469 96.34375 C 15.964844 96.441406 17.578125 96.875 18.441406 97.636719 L 19.1875 98.335938 C 17.0625 98.003906 15.21875 97.539062 13.65625 96.941406 L 13.007812 96.691406 L 13.007812 96.640625 "/>
</g>
</svg>
