<?xml version="1.0" encoding="UTF-8"?>
<svg xmlns="http://www.w3.org/2000/svg" xmlns:xlink="http://www.w3.org/1999/xlink" width="186px" height="116px" viewBox="0 0 186 116" version="1.1">
<g id="surface1">
<path style=" stroke:none;fill-rule:evenodd;fill:rgb(0%,0%,0%);fill-opacity:1;" d="M 179.25 101.960938 L 177.796875 103.585938 C 177.457031 104.90625 176.539062 105.566406 175.039062 105.566406 L 174.238281 105.425781 C 172.835938 106.273438 169.664062 106.71875 164.726562 106.765625 L 164.148438 106.835938 L 163.566406 106.765625 L 163.058594 106.695312 L 154.347656 106.980469 L 146.070312 106.90625 L 141.0625 106.554688 L 144.039062 106.554688 C 141.277344 106.320312 139.292969 106.34375 138.085938 106.625 C 131.9375 106.25 128.671875 105.589844 128.285156 104.644531 L 127.703125 103.941406 L 127.195312 102.878906 C 127.195312 102.597656 127.265625 102.386719 127.414062 102.242188 L 126.976562 101.820312 C 126.636719 102.335938 126.46875 103.140625 126.46875 104.222656 C 126.46875 104.695312 126.734375 105.542969 127.265625 106.765625 L 131.695312 108.179688 L 133.945312 108.886719 L 137.503906 108.746094 L 144.910156 109.167969 L 144.980469 109.3125 L 145.054688 109.453125 L 145.273438 109.242188 L 150.714844 109.382812 C 162.863281 109.382812 170.972656 108.652344 175.039062 107.191406 C 178.085938 106.011719 179.609375 104.882812 179.609375 103.796875 L 179.25 101.960938 M 179.683594 100.195312 C 180.265625 100.195312 180.628906 101.347656 180.773438 103.65625 C 180.773438 104.835938 180.628906 105.566406 180.335938 105.847656 L 176.5625 108.039062 C 175.253906 108.699219 171.382812 109.3125 164.945312 109.875 L 150.863281 110.582031 L 145.273438 110.230469 L 145.054688 109.945312 L 139.535156 110.300781 L 131.914062 109.59375 C 128.71875 109.074219 126.878906 108.441406 126.394531 107.6875 C 125.863281 107.496094 125.523438 106.933594 125.378906 105.988281 L 125.308594 104.222656 L 125.597656 102.101562 C 125.789062 101.253906 126.03125 100.6875 126.324219 100.40625 L 125.597656 97.226562 L 126.25 92.347656 L 126.03125 91.996094 C 126.03125 91.710938 126.152344 91.546875 126.394531 91.5 L 126.832031 88.957031 L 126.394531 88.460938 L 126.976562 87.894531 L 127.195312 87.894531 C 128.066406 88.039062 130.027344 89.78125 133.074219 93.125 L 135.542969 96.308594 L 137.214844 91.855469 C 137.746094 90.203125 139.898438 88.085938 143.675781 85.492188 L 148.175781 82.667969 C 152.773438 81.253906 156.402344 80.546875 159.066406 80.546875 C 161.96875 80.546875 164.390625 81.0625 166.324219 82.101562 C 168.457031 83.183594 169.519531 84.691406 169.519531 86.625 L 169.15625 87.332031 L 173.875 93.550781 C 173.875 93.972656 173.683594 94.1875 173.296875 94.1875 L 173.148438 94.117188 L 172.714844 94.1875 L 167.632812 93.550781 C 158.679688 93.550781 152.386719 95.503906 148.757812 99.417969 C 147.304688 100.972656 146.386719 102.125 145.996094 102.878906 L 145.273438 105.425781 L 156.378906 105.566406 L 158.265625 105.566406 C 158.363281 105.28125 158.652344 105.140625 159.136719 105.140625 C 159.523438 105.140625 159.71875 105.304688 159.71875 105.636719 L 162.695312 105.707031 L 163.421875 105.636719 L 164.074219 105.636719 L 164.726562 105.070312 C 165.210938 105.070312 165.480469 105.210938 165.527344 105.496094 L 171.988281 104.859375 C 172.617188 104.765625 173.417969 104.316406 174.382812 103.515625 L 175.109375 103.941406 L 175.835938 103.164062 C 175.835938 102.125 176.34375 101.605469 177.359375 101.605469 L 177.867188 101.75 L 179.175781 100.40625 C 179.273438 100.265625 179.441406 100.195312 179.683594 100.195312 M 148.757812 83.726562 C 148.222656 83.867188 146.746094 84.808594 144.328125 86.554688 C 140.746094 88.957031 138.6875 91.03125 138.15625 92.773438 L 136.269531 97.863281 L 136.34375 98.285156 C 136.292969 98.804688 136.125 99.0625 135.832031 99.0625 L 135.253906 100.335938 L 133.367188 104.433594 L 135.324219 104.71875 C 135.566406 101.65625 137.140625 97.957031 140.042969 93.621094 C 141.882812 90.839844 143.457031 88.863281 144.761719 87.683594 C 147.8125 84.902344 152.820312 83.515625 159.792969 83.515625 C 163.761719 83.515625 166.617188 84.410156 168.359375 86.199219 L 167.195312 84.503906 C 165.890625 82.617188 163.179688 81.675781 159.066406 81.675781 C 155.484375 81.675781 152.046875 82.359375 148.757812 83.726562 M 148.03125 86.554688 C 145.511719 87.824219 143.09375 90.558594 140.769531 94.75 C 139.558594 96.917969 138.449219 99.582031 137.429688 102.738281 L 136.703125 104.929688 L 139.390625 105.28125 L 141.207031 105.351562 L 141.933594 104.433594 L 141.570312 103.796875 C 141.570312 103.46875 141.835938 103.304688 142.367188 103.304688 C 142.65625 103.304688 143.261719 103.75 144.183594 104.644531 C 144.519531 102.714844 145.78125 100.664062 147.957031 98.496094 C 152.070312 94.445312 158.195312 92.417969 166.324219 92.417969 L 171.914062 92.773438 L 169.957031 90.511719 C 168.40625 88.769531 167.609375 87.566406 167.558594 86.90625 L 166.035156 85.988281 C 164.777344 85.140625 162.621094 84.714844 159.574219 84.714844 C 154.203125 84.714844 150.355469 85.328125 148.03125 86.554688 M 134.960938 97.789062 L 131.984375 93.761719 L 127.558594 89.664062 L 127.414062 91.640625 C 128.332031 92.113281 129.832031 93.503906 131.914062 95.8125 L 134.382812 99.132812 L 134.960938 97.789062 M 133.945312 100.40625 L 130.679688 96.308594 L 127.265625 93.265625 L 126.757812 97.226562 L 127.121094 100.265625 C 127.703125 100.5 128.523438 101.535156 129.589844 103.375 L 129.445312 103.941406 L 132.421875 104.292969 L 133.945312 100.40625 M 143.019531 105.425781 L 142.949219 105.351562 L 142.875 105.425781 L 143.019531 105.425781 M 71.003906 86.269531 L 67.589844 86.695312 C 66.863281 86.835938 65.679688 87.496094 64.03125 88.671875 C 61.804688 90.226562 60.160156 91.664062 59.097656 92.984375 C 58.226562 93.972656 56.894531 96.09375 55.101562 99.347656 L 55.320312 99.699219 L 57.789062 99.488281 L 58.152344 99.558594 L 62.507812 94.46875 L 65.195312 91.359375 C 65.4375 91.078125 66.164062 90.558594 67.371094 89.804688 L 69.332031 88.601562 L 69.695312 88.601562 L 69.984375 88.746094 L 70.132812 89.097656 L 70.496094 92.84375 L 70.710938 97.085938 C 70.710938 98.355469 69.71875 99.792969 67.734375 101.394531 C 65.652344 103.089844 63.308594 104.175781 60.691406 104.644531 C 45.398438 107.378906 34.050781 108.769531 26.644531 108.816406 L 22.941406 108.957031 C 18.390625 108.957031 14.59375 108.464844 11.542969 107.472656 L 7.695312 106.90625 L 3.992188 106.765625 L 3.414062 106.625 C 3.460938 108.464844 4.597656 109.640625 6.824219 110.160156 C 12.003906 111.289062 19.214844 111.855469 28.460938 111.855469 C 33.78125 111.855469 37.097656 111.503906 38.40625 110.796875 L 39.710938 110.9375 L 56.410156 107.261719 C 62.074219 106.882812 65.773438 106.035156 67.515625 104.71875 L 70.710938 101.890625 L 72.597656 89.945312 C 72.597656 88.910156 72.382812 88.015625 71.945312 87.261719 L 71.4375 86.199219 L 71.003906 86.269531 M 71.21875 85 C 71.269531 84.714844 71.488281 84.574219 71.875 84.574219 C 72.550781 84.574219 73.058594 85.46875 73.398438 87.261719 L 73.761719 89.875 C 73.761719 95.199219 73.132812 99.347656 71.875 102.3125 C 70.855469 104.574219 68.726562 106.128906 65.484375 106.980469 L 59.3125 107.828125 C 55.296875 108.488281 52.441406 109.167969 50.746094 109.875 L 38.550781 112.136719 L 37.898438 111.925781 L 31.074219 112.984375 C 19.410156 112.984375 10.867188 112.328125 5.445312 111.007812 C 3.316406 110.488281 2.25 108.957031 2.25 106.414062 C 2.25 105.328125 2.492188 104.789062 2.976562 104.789062 C 3.460938 104.789062 3.703125 104.976562 3.703125 105.351562 L 3.703125 105.425781 L 8.640625 105.847656 C 8.734375 105.566406 9.074219 105.425781 9.65625 105.425781 C 10.332031 105.425781 10.671875 105.613281 10.671875 105.988281 L 10.671875 106.203125 L 14.011719 106.765625 L 15.246094 106.980469 L 15.246094 106.90625 L 17.714844 105.636719 L 20.761719 106.554688 L 25.191406 107.402344 C 25.773438 107.402344 26.160156 107.238281 26.355469 106.90625 C 26.546875 106.53125 26.957031 106.34375 27.585938 106.34375 C 28.265625 106.34375 29.015625 106.671875 29.839844 107.332031 L 36.082031 106.554688 L 44.574219 105.636719 L 40.875 101.679688 C 37.628906 98.425781 34.726562 96.800781 32.160156 96.800781 C 20.835938 96.800781 13.769531 96.964844 10.960938 97.296875 L 10.019531 97.863281 L 10.164062 97.863281 L 9.875 97.863281 C 9.292969 97.863281 9.003906 97.671875 9.003906 97.296875 L 9.21875 97.15625 L 9.511719 96.941406 L 14.230469 93.410156 L 16.550781 91.359375 C 16.988281 91.03125 17.542969 90.769531 18.222656 90.582031 L 18.148438 90.300781 C 18.148438 89.96875 19.140625 89.308594 21.125 88.320312 L 23.523438 86.484375 L 26.28125 86.410156 C 36.636719 86.410156 43.945312 87.542969 48.207031 89.804688 C 52.5625 91.972656 55.199219 93.667969 56.121094 94.894531 L 58.152344 92.207031 C 62.167969 87.355469 66.210938 84.929688 70.277344 84.929688 L 71.21875 85 M 69.332031 93.125 L 69.113281 90.085938 L 65.992188 92.207031 L 63.453125 95.316406 L 58.585938 100.617188 L 60.332031 103.445312 C 63.039062 102.832031 64.929688 102.054688 65.992188 101.113281 C 68.363281 98.804688 69.550781 97.460938 69.550781 97.085938 L 69.332031 93.125 M 40.65625 88.816406 L 28.605469 87.542969 L 23.523438 87.683594 C 23.328125 87.777344 23.28125 88.039062 23.378906 88.460938 L 21.851562 89.378906 L 20.835938 90.015625 L 25.410156 89.734375 C 35.914062 89.734375 43.609375 91.078125 48.496094 93.761719 C 49.367188 94.1875 50.699219 95.175781 52.488281 96.730469 L 54.015625 98.144531 L 55.394531 95.882812 C 53.988281 94.515625 51.351562 92.796875 47.480469 90.722656 C 46.367188 90.15625 44.09375 89.523438 40.65625 88.816406 M 15.171875 94.328125 L 12.414062 96.308594 L 32.234375 95.601562 C 35.1875 95.601562 37.484375 96.355469 39.132812 97.863281 C 40.003906 98.664062 40.726562 99.605469 41.308594 100.6875 L 45.59375 105.566406 L 57.789062 103.941406 L 59.460938 103.65625 L 57.5 101.042969 L 54.738281 101.253906 L 54.085938 101.113281 L 53.796875 101.605469 L 53.144531 100.757812 L 53.503906 99.132812 C 52.488281 98.097656 51.183594 97.035156 49.585938 95.953125 C 44.40625 92.609375 36.398438 90.933594 25.554688 90.933594 C 20.957031 90.933594 18.148438 91.429688 17.132812 92.417969 L 15.171875 94.328125 "/>
<path style=" stroke:none;fill-rule:evenodd;fill:rgb(20%,20%,20%);fill-opacity:1;" d="M 179.25 101.960938 L 179.609375 103.796875 C 179.609375 104.882812 178.085938 106.011719 175.039062 107.191406 C 170.972656 108.652344 162.863281 109.382812 150.714844 109.382812 L 145.273438 109.242188 L 145.054688 109.453125 L 144.980469 109.3125 L 144.910156 109.167969 L 137.503906 108.746094 L 133.945312 108.886719 L 131.695312 108.179688 L 127.265625 106.765625 C 126.734375 105.542969 126.46875 104.695312 126.46875 104.222656 C 126.46875 103.140625 126.636719 102.335938 126.976562 101.820312 L 127.414062 102.242188 C 127.265625 102.386719 127.195312 102.597656 127.195312 102.878906 L 127.703125 103.941406 L 128.285156 104.644531 C 128.671875 105.589844 131.9375 106.25 138.085938 106.625 C 139.292969 106.34375 141.277344 106.320312 144.039062 106.554688 L 141.0625 106.554688 L 146.070312 106.90625 L 154.347656 106.980469 L 163.058594 106.695312 L 163.566406 106.765625 L 164.148438 106.835938 L 164.726562 106.765625 C 169.664062 106.71875 172.835938 106.273438 174.238281 105.425781 L 175.039062 105.566406 C 176.539062 105.566406 177.457031 104.90625 177.796875 103.585938 L 179.25 101.960938 M 134.960938 97.789062 L 134.382812 99.132812 L 131.914062 95.8125 C 129.832031 93.503906 128.332031 92.113281 127.414062 91.640625 L 127.558594 89.664062 L 131.984375 93.761719 L 134.960938 97.789062 M 148.03125 86.554688 C 150.355469 85.328125 154.203125 84.714844 159.574219 84.714844 C 162.621094 84.714844 164.777344 85.140625 166.035156 85.988281 L 167.558594 86.90625 C 167.609375 87.566406 168.40625 88.769531 169.957031 90.511719 L 171.914062 92.773438 L 166.324219 92.417969 C 158.195312 92.417969 152.070312 94.445312 147.957031 98.496094 C 145.78125 100.664062 144.519531 102.714844 144.183594 104.644531 C 143.261719 103.75 142.65625 103.304688 142.367188 103.304688 C 141.835938 103.304688 141.570312 103.46875 141.570312 103.796875 L 141.933594 104.433594 L 141.207031 105.351562 L 139.390625 105.28125 L 136.703125 104.929688 L 137.429688 102.738281 C 138.449219 99.582031 139.558594 96.917969 140.769531 94.75 C 143.09375 90.558594 145.511719 87.824219 148.03125 86.554688 M 71.003906 86.269531 L 71.4375 86.199219 L 71.945312 87.261719 C 72.382812 88.015625 72.597656 88.910156 72.597656 89.945312 L 70.710938 101.890625 L 67.515625 104.71875 C 65.773438 106.035156 62.074219 106.882812 56.410156 107.261719 L 39.710938 110.9375 L 38.40625 110.796875 C 37.097656 111.503906 33.78125 111.855469 28.460938 111.855469 C 19.214844 111.855469 12.003906 111.289062 6.824219 110.160156 C 4.597656 109.640625 3.460938 108.464844 3.414062 106.625 L 3.992188 106.765625 L 7.695312 106.90625 L 11.542969 107.472656 C 14.59375 108.464844 18.390625 108.957031 22.941406 108.957031 L 26.644531 108.816406 C 34.050781 108.769531 45.398438 107.378906 60.691406 104.644531 C 63.308594 104.175781 65.652344 103.089844 67.734375 101.394531 C 69.71875 99.792969 70.710938 98.355469 70.710938 97.085938 L 70.496094 92.84375 L 70.132812 89.097656 L 69.984375 88.746094 L 69.695312 88.601562 L 69.332031 88.601562 L 67.371094 89.804688 C 66.164062 90.558594 65.4375 91.078125 65.195312 91.359375 L 62.507812 94.46875 L 58.152344 99.558594 L 57.789062 99.488281 L 55.320312 99.699219 L 55.101562 99.347656 C 56.894531 96.09375 58.226562 93.972656 59.097656 92.984375 C 60.160156 91.664062 61.804688 90.226562 64.03125 88.671875 C 65.679688 87.496094 66.863281 86.835938 67.589844 86.695312 L 71.003906 86.269531 M 15.171875 94.328125 L 17.132812 92.417969 C 18.148438 91.429688 20.957031 90.933594 25.554688 90.933594 C 36.398438 90.933594 44.40625 92.609375 49.585938 95.953125 C 51.183594 97.035156 52.488281 98.097656 53.503906 99.132812 L 53.144531 100.757812 L 53.796875 101.605469 L 54.085938 101.113281 L 54.738281 101.253906 L 57.5 101.042969 L 59.460938 103.65625 L 57.789062 103.941406 L 45.59375 105.566406 L 41.308594 100.6875 C 40.726562 99.605469 40.003906 98.664062 39.132812 97.863281 C 37.484375 96.355469 35.1875 95.601562 32.234375 95.601562 L 12.414062 96.308594 L 15.171875 94.328125 "/>
<path style=" stroke:none;fill-rule:evenodd;fill:rgb(40.000001%,40.000001%,40.000001%);fill-opacity:1;" d="M 148.757812 83.726562 C 152.046875 82.359375 155.484375 81.675781 159.066406 81.675781 C 163.179688 81.675781 165.890625 82.617188 167.195312 84.503906 L 168.359375 86.199219 C 166.617188 84.410156 163.761719 83.515625 159.792969 83.515625 C 152.820312 83.515625 147.8125 84.902344 144.761719 87.683594 C 143.457031 88.863281 141.882812 90.839844 140.042969 93.621094 C 137.140625 97.957031 135.566406 101.65625 135.324219 104.71875 L 133.367188 104.433594 L 135.253906 100.335938 L 135.832031 99.0625 C 136.125 99.0625 136.292969 98.804688 136.34375 98.285156 L 136.269531 97.863281 L 138.15625 92.773438 C 138.6875 91.03125 140.746094 88.957031 144.328125 86.554688 C 146.746094 84.808594 148.222656 83.867188 148.757812 83.726562 M 40.65625 88.816406 C 44.09375 89.523438 46.367188 90.15625 47.480469 90.722656 C 51.351562 92.796875 53.988281 94.515625 55.394531 95.882812 L 54.015625 98.144531 L 52.488281 96.730469 C 50.699219 95.175781 49.367188 94.1875 48.496094 93.761719 C 43.609375 91.078125 35.914062 89.734375 25.410156 89.734375 L 20.835938 90.015625 L 21.851562 89.378906 L 23.378906 88.460938 C 23.28125 88.039062 23.328125 87.777344 23.523438 87.683594 L 28.605469 87.542969 L 40.65625 88.816406 "/>
</g>
</svg>
