<?xml version="1.0" encoding="UTF-8"?>
<svg xmlns="http://www.w3.org/2000/svg" xmlns:xlink="http://www.w3.org/1999/xlink" width="186px" height="116px" viewBox="0 0 186 116" version="1.1">
<g id="surface1">
<path style=" stroke:none;fill-rule:evenodd;fill:rgb(0%,0%,0%);fill-opacity:1;" d="M 67.371094 109.097656 L 64.976562 110.9375 C 64.492188 111.265625 64.273438 111.714844 64.324219 112.28125 C 64.421875 112.75 64.300781 113.082031 63.960938 113.269531 L 48.132812 114.046875 C 20.351562 114.046875 5.808594 113.222656 4.5 111.574219 C 3.921875 110.914062 3.265625 109.828125 2.539062 108.320312 L 2.539062 104.859375 L 2.179688 104.152344 C 2.179688 103.726562 2.394531 103.164062 2.832031 102.457031 L 2.832031 102.171875 C 2.832031 101.605469 3.21875 100.734375 3.992188 99.558594 L 3.992188 99.488281 C 3.992188 98.921875 4.332031 98.425781 5.007812 98.003906 C 5.832031 96.117188 7.839844 94.210938 11.035156 92.277344 L 21.996094 85.917969 L 23.449219 84.785156 L 23.230469 84.292969 L 24.101562 84.148438 C 26.957031 81.558594 30.683594 77.390625 35.285156 71.640625 C 35.285156 63.394531 35.792969 56.042969 36.808594 49.589844 C 37.777344 43.085938 38.261719 37.808594 38.261719 33.757812 L 36.515625 16.796875 L 36.878906 11.210938 L 37.242188 8.878906 L 37.097656 7.679688 C 37.097656 6.453125 37.316406 5.699219 37.75 5.417969 L 37.679688 5.0625 C 42.859375 3.085938 48.859375 2.09375 55.683594 2.09375 L 67.953125 2.308594 C 68.582031 2.449219 69.019531 2.800781 69.261719 3.367188 C 70.324219 3.792969 70.929688 4.191406 71.074219 4.570312 L 71.074219 4.640625 C 73.203125 4.875 74.582031 10.789062 75.214844 22.378906 C 75.214844 24.828125 74.4375 28.550781 72.890625 33.546875 C 71.292969 38.585938 70.496094 42.378906 70.496094 44.925781 C 69.574219 50.15625 69.1875 53.902344 69.332031 56.164062 L 69.261719 67.328125 L 69.042969 67.542969 C 69.527344 68.953125 70.011719 72.984375 70.496094 79.628906 C 71.316406 80.050781 71.996094 85.070312 72.527344 94.679688 L 72.238281 97.085938 C 72.769531 97.179688 72.960938 97.789062 72.816406 98.921875 C 72.816406 102.738281 71.777344 105.496094 69.695312 107.191406 L 67.445312 109.027344 L 67.445312 108.957031 L 67.515625 108.320312 L 67.515625 107.402344 L 69.476562 105.140625 L 70.785156 100.617188 L 71.292969 98.921875 L 69.621094 102.3125 L 68.96875 104.433594 C 68.582031 104.90625 67.855469 105.257812 66.792969 105.496094 L 66.5 105.140625 C 66.308594 105.234375 66.164062 105.398438 66.066406 105.636719 L 65.050781 105.707031 C 62.726562 105.800781 60.378906 106.226562 58.007812 106.980469 L 53.941406 108.039062 L 53.503906 108.039062 C 51.714844 108.980469 48.011719 109.453125 42.398438 109.453125 L 28.605469 108.675781 L 28.167969 108.605469 L 26.425781 108.464844 L 26.355469 108.390625 L 22.144531 108.179688 L 21.707031 108.320312 L 21.273438 108.320312 L 20.328125 108.179688 L 18.078125 108.179688 L 17.132812 108.320312 L 15.753906 108.320312 L 14.449219 108.605469 L 14.011719 108.179688 L 9.292969 108.179688 L 6.898438 107.898438 L 6.460938 108.039062 C 5.785156 108.039062 5.15625 107.804688 4.574219 107.332031 L 4.574219 108.957031 C 5.105469 110.183594 7.550781 111.03125 11.90625 111.503906 C 18.199219 112.160156 30.296875 112.492188 48.207031 112.492188 L 60.402344 111.429688 C 62.4375 110.867188 64.300781 109.945312 65.992188 108.675781 L 66.792969 109.167969 L 67.371094 109.097656 M 49.148438 3.933594 L 42.832031 4.78125 L 40.945312 5.417969 L 40.945312 5.910156 C 40.558594 6.902344 40.003906 7.75 39.277344 8.457031 L 38.695312 10.929688 C 38.210938 12.625 37.96875 14.582031 37.96875 16.796875 C 39.179688 25.84375 39.785156 31.472656 39.785156 33.6875 L 36.371094 71.144531 L 38.839844 70.652344 L 39.496094 71.144531 L 39.785156 70.722656 L 40.148438 70.792969 L 40.292969 71.289062 L 39.710938 71.851562 L 39.203125 71.78125 L 38.839844 72.207031 L 37.097656 72.628906 L 36.226562 72.558594 L 36.226562 72.628906 L 36.082031 72.628906 C 35.550781 73.808594 33.492188 76.328125 29.910156 80.191406 L 26.28125 83.9375 L 28.386719 83.867188 L 32.234375 83.515625 L 32.816406 83.867188 L 33.25 83.445312 L 34.703125 83.230469 C 38.429688 83.089844 41.382812 83.679688 43.558594 85 L 42.398438 85.847656 L 30.855469 86.269531 L 30.128906 85.492188 L 29.402344 86.269531 L 29.332031 86.269531 L 24.609375 85.632812 L 22.289062 87.753906 C 20.980469 88.839844 17.398438 90.886719 11.542969 93.902344 L 8.855469 96.449219 L 8.929688 96.730469 L 20.402344 95.882812 L 20.980469 95.953125 L 21.273438 95.882812 L 22.289062 95.882812 L 32.089844 95.035156 L 37.171875 94.117188 C 40.703125 94.117188 44.867188 97.554688 49.65625 104.433594 C 50.867188 103.632812 51.738281 103.210938 52.273438 103.164062 L 52.851562 103.234375 L 52.78125 101.820312 C 52.78125 92.160156 56.578125 85.515625 64.179688 81.886719 L 64.394531 82.101562 L 65.339844 81.394531 C 66.453125 80.921875 67.664062 80.5 68.96875 80.121094 L 69.042969 79.699219 C 68.21875 74.183594 67.808594 70.226562 67.808594 67.824219 C 67.808594 67.304688 68 67.023438 68.390625 66.976562 C 68 65.183594 67.808594 62.144531 67.808594 57.859375 C 67.808594 49.425781 68.800781 41.648438 70.785156 34.535156 C 72.769531 27.421875 73.761719 23.390625 73.761719 22.449219 L 72.816406 13.757812 C 72.1875 10.457031 71.21875 7.65625 69.914062 5.347656 L 69.984375 5.0625 L 68.460938 4.496094 L 64.179688 3.933594 L 61.636719 3.578125 L 60.984375 3.792969 L 55.902344 3.71875 L 49.148438 3.933594 M 115.144531 5.203125 L 115.289062 4.144531 L 115.214844 4.074219 L 115.144531 3.648438 C 115.144531 1.292969 124 0.117188 141.714844 0.117188 L 149.554688 0.679688 C 149.699219 0.492188 149.894531 0.398438 150.136719 0.398438 C 151.539062 0.398438 152.21875 4.664062 152.167969 13.191406 C 152.070312 24.40625 152.21875 31.261719 152.605469 33.757812 C 153.910156 42.097656 156.886719 53.171875 161.535156 66.976562 L 161.460938 67.257812 L 166.617188 79.203125 C 167.777344 81.9375 171.070312 86.222656 176.488281 92.066406 C 177.265625 92.394531 177.964844 92.960938 178.59375 93.761719 C 179.417969 94.375 180.121094 95.222656 180.699219 96.308594 L 180.699219 97.578125 L 180.992188 98.355469 C 180.992188 99.203125 180.652344 99.933594 179.972656 100.546875 C 180.457031 100.925781 180.601562 101.867188 180.410156 103.375 L 180.335938 106.625 C 180.046875 108.039062 179.128906 109.265625 177.578125 110.300781 C 173.078125 113.175781 162.984375 114.613281 147.304688 114.613281 L 133.511719 113.691406 C 129.6875 112.375 127.605469 109.003906 127.265625 103.585938 L 127.339844 103.515625 L 126.613281 101.679688 L 127.265625 79.699219 L 126.03125 69.804688 L 126.105469 68.882812 C 125.28125 67.09375 124.339844 63.347656 123.273438 57.648438 L 119.863281 37.503906 L 116.957031 18.914062 L 115.144531 5.203125 M 127.484375 2.589844 L 120.296875 3.015625 C 118.363281 3.957031 117.078125 4.425781 116.449219 4.425781 L 116.085938 4.425781 L 121.3125 36.160156 C 122.378906 42.144531 124.554688 53.171875 127.847656 69.238281 L 127.847656 69.308594 C 128.765625 70.675781 129.058594 74.136719 128.71875 79.699219 L 128.136719 95.601562 C 128.136719 98.851562 128.285156 100.878906 128.574219 101.679688 C 129.105469 103.234375 130.269531 104.597656 132.058594 105.777344 L 132.421875 105.777344 C 132.90625 105.777344 133.316406 105.894531 133.65625 106.128906 L 138.300781 106.273438 L 140.042969 105.917969 L 140.261719 105.917969 L 139.972656 103.445312 C 139.972656 102.3125 140.503906 101.136719 141.570312 99.910156 L 140.335938 99.628906 L 140.261719 99.203125 L 148.902344 97.296875 L 151.296875 97.933594 L 152.386719 97.085938 L 151.660156 96.730469 L 157.394531 95.527344 C 158.652344 95.292969 160.398438 94.632812 162.621094 93.550781 C 164.171875 92.984375 165.988281 92.609375 168.066406 92.417969 C 168.550781 92.84375 168.988281 93.054688 169.375 93.054688 L 170.027344 92.632812 L 170.101562 92.277344 L 171.988281 92.207031 L 173.296875 92.347656 L 173.585938 92.207031 L 173.511719 92.136719 C 172.15625 90.863281 170.585938 88.816406 168.792969 85.988281 L 168.722656 85.917969 L 165.164062 80.050781 L 162.042969 72.914062 C 160.734375 69.660156 159.984375 67.589844 159.792969 66.691406 L 157.539062 61.390625 C 155.945312 57.152344 154.902344 53.640625 154.417969 50.863281 C 152.773438 43.511719 151.660156 37.976562 151.078125 34.253906 C 150.742188 32.226562 150.570312 26.691406 150.570312 17.644531 C 150.523438 12.460938 150.183594 7.253906 149.554688 2.023438 L 146.214844 1.742188 L 145.707031 1.53125 L 145.199219 1.742188 L 141.640625 1.671875 L 129.371094 2.378906 L 127.484375 2.589844 M 137.359375 89.804688 L 136.851562 89.523438 C 136.65625 89.523438 136.4375 89.640625 136.195312 89.875 L 136.195312 89.945312 C 134.988281 89.851562 134.019531 87.777344 133.292969 83.726562 L 132.566406 77.4375 C 132.566406 76.257812 132.855469 75.199219 133.4375 74.253906 L 133.726562 74.328125 L 134.453125 73.054688 L 135.472656 72.207031 L 135.472656 72.136719 C 138.328125 70.15625 143.3125 69.050781 150.425781 68.8125 L 152.460938 68.671875 C 154.445312 68.671875 156.742188 70.085938 159.355469 72.914062 L 160.082031 74.042969 L 160.300781 74.042969 L 161.96875 76.09375 L 167.777344 85.210938 L 168.574219 85.988281 L 168.503906 86.339844 L 168.574219 86.484375 C 168.574219 86.71875 168.335938 86.835938 167.851562 86.835938 L 167.125 86.835938 L 165.527344 86.554688 L 165.382812 86.410156 L 165.089844 86.484375 L 156.523438 85.777344 C 151.347656 85.777344 146.773438 86.484375 142.804688 87.894531 L 137.359375 89.804688 M 135.617188 68.390625 L 135.398438 68.320312 L 134.597656 68.882812 L 133.875 69.167969 C 133.390625 69.027344 133.148438 68.765625 133.148438 68.390625 C 133.148438 67.777344 133.875 67.164062 135.324219 66.550781 L 139.464844 64.855469 C 139.996094 65.234375 140.40625 65.421875 140.699219 65.421875 L 141.425781 65.210938 C 141.425781 65.585938 139.488281 66.644531 135.617188 68.390625 M 141.351562 64.925781 L 141.132812 64.714844 L 141.277344 64.714844 L 141.351562 64.925781 M 179.464844 97.4375 C 176.996094 95.410156 175.0625 94.164062 173.65625 93.691406 L 173.222656 93.691406 C 168.914062 93.878906 165.527344 94.328125 163.058594 95.035156 L 158.628906 96.871094 C 152.242188 98.945312 147.230469 99.980469 143.601562 99.980469 L 142.875 99.980469 L 142.875 100.050781 L 142.003906 102.3125 C 142.683594 102.550781 143.917969 103.304688 145.707031 104.574219 L 150.425781 106.484375 L 156.015625 106.128906 C 156.839844 105.707031 158.339844 105.1875 160.515625 104.574219 C 161 104.765625 161.242188 105.09375 161.242188 105.566406 L 161.242188 105.847656 L 163.566406 105.707031 L 163.492188 105.28125 C 163.785156 105 164.390625 104.859375 165.308594 104.859375 C 166.472656 104.859375 167.074219 105.046875 167.125 105.425781 L 176.199219 104.789062 C 176.34375 102.902344 176.949219 101.394531 178.015625 100.265625 L 179.539062 98.285156 L 179.464844 97.4375 M 143.09375 112.984375 L 147.085938 113.058594 C 162.234375 113.058594 171.964844 111.808594 176.273438 109.3125 C 177.773438 108.464844 178.667969 107.402344 178.957031 106.128906 L 178.957031 103.445312 L 178.523438 101.960938 C 178.136719 102.574219 177.894531 103.351562 177.796875 104.292969 L 178.015625 105.070312 C 177.820312 105.589844 176.972656 106.035156 175.472656 106.414062 C 170.679688 107.6875 159.863281 108.320312 143.019531 108.320312 L 136.921875 108.390625 C 136.632812 108.15625 136.367188 108.039062 136.125 108.039062 C 135.929688 108.039062 135.761719 108.109375 135.617188 108.25 L 133.875 107.96875 L 133.148438 108.039062 C 131.890625 108.039062 130.628906 107.378906 129.371094 106.058594 C 129.324219 107.097656 129.347656 107.78125 129.445312 108.109375 C 130.121094 110.230469 132.761719 111.667969 137.359375 112.421875 C 138.328125 113.128906 139.679688 113.480469 141.425781 113.480469 C 142.34375 113.480469 142.898438 113.316406 143.09375 112.984375 M 154.128906 70.226562 C 144.882812 70.226562 138.835938 71.191406 135.980469 73.125 C 134.671875 74.019531 134.019531 75.480469 134.019531 77.507812 C 134.019531 81.183594 134.867188 84.714844 136.558594 88.109375 C 137.527344 87.542969 139.199219 86.90625 141.570312 86.199219 C 146.265625 84.832031 151.273438 84.148438 156.597656 84.148438 L 165.746094 84.574219 L 161.171875 78.566406 C 157.105469 73.007812 154.757812 70.226562 154.128906 70.226562 M 69.621094 80.96875 L 66.285156 82.738281 C 63.234375 84.148438 61.46875 85.1875 60.984375 85.847656 L 56.484375 92.703125 C 55.128906 94.539062 54.402344 96.871094 54.304688 99.699219 L 54.230469 104.222656 L 55.394531 104.011719 L 61.203125 104.503906 L 64.6875 104.363281 L 65.050781 104.363281 L 66.644531 102.386719 C 68 100.734375 69.089844 98.402344 69.914062 95.386719 C 69.914062 91.902344 70.035156 89.425781 70.277344 87.96875 L 69.621094 81.109375 L 69.621094 80.96875 M 62.074219 80.6875 C 55.34375 76.683594 50.964844 72.984375 48.933594 69.589844 L 49.65625 69.167969 L 55.683594 73.40625 C 59.75 76.46875 62.121094 78.777344 62.796875 80.332031 C 62.796875 80.570312 62.554688 80.6875 62.074219 80.6875 M 44.066406 71.214844 C 45.179688 71.214844 46.320312 72.464844 47.480469 74.960938 L 49.511719 80.40625 L 53.359375 89.523438 L 53.289062 90.511719 L 52.632812 90.722656 C 48.8125 82.148438 45.6875 75.785156 43.269531 71.640625 C 43.558594 71.359375 43.824219 71.214844 44.066406 71.214844 M 20.039062 107.332031 L 19.746094 107.472656 L 19.964844 107.472656 L 20.039062 107.332031 M 17.496094 106.273438 L 19.964844 105.707031 C 21.125 105.707031 21.804688 105.824219 21.996094 106.058594 L 22.359375 106.980469 L 22.433594 106.980469 L 22.433594 107.121094 L 22.578125 107.472656 L 22.578125 107.613281 L 26.136719 107.6875 C 26.234375 106.933594 27.128906 106.554688 28.820312 106.554688 C 29.933594 106.554688 30.804688 106.980469 31.4375 107.828125 L 38.332031 107.898438 C 38.527344 107.425781 39.445312 107.003906 41.089844 106.625 L 42.761719 106.625 L 42.6875 106.34375 C 42.6875 105.917969 43.65625 105.707031 45.59375 105.707031 L 47.699219 105.847656 L 48.0625 105.566406 L 48.640625 105.210938 C 43.703125 98.851562 40.414062 95.671875 38.769531 95.671875 L 21.125 96.871094 C 16.769531 96.871094 13.09375 97.273438 10.089844 98.074219 L 8.277344 99.347656 C 6.582031 100.523438 5.734375 101.75 5.734375 103.019531 L 5.082031 104.292969 L 5.589844 105.496094 L 6.898438 106.058594 L 7.332031 106.203125 L 7.984375 105.777344 C 8.855469 105.351562 9.488281 105.140625 9.875 105.140625 C 10.597656 105.140625 11.324219 105.753906 12.050781 106.980469 L 14.085938 107.121094 C 14.375 106.933594 14.882812 106.765625 15.609375 106.625 C 15.800781 106.4375 16.261719 106.296875 16.988281 106.203125 L 17.496094 106.273438 "/>
<path style=" stroke:none;fill-rule:evenodd;fill:rgb(20%,20%,20%);fill-opacity:1;" d="M 65.992188 108.675781 C 64.300781 109.945312 62.4375 110.867188 60.402344 111.429688 L 48.207031 112.492188 C 30.296875 112.492188 18.199219 112.160156 11.90625 111.503906 C 7.550781 111.03125 5.105469 110.183594 4.574219 108.957031 L 4.574219 107.332031 C 5.15625 107.804688 5.785156 108.039062 6.460938 108.039062 L 6.898438 107.898438 L 9.292969 108.179688 L 14.011719 108.179688 L 14.449219 108.605469 L 15.753906 108.320312 L 17.132812 108.320312 L 18.078125 108.179688 L 20.328125 108.179688 L 21.273438 108.320312 L 21.707031 108.320312 L 22.144531 108.179688 L 26.355469 108.390625 L 26.425781 108.464844 L 28.167969 108.605469 L 28.605469 108.675781 L 42.398438 109.453125 C 48.011719 109.453125 51.714844 108.980469 53.503906 108.039062 L 53.941406 108.039062 L 58.007812 106.980469 C 60.378906 106.226562 62.726562 105.800781 65.050781 105.707031 L 66.066406 105.636719 L 65.773438 106.835938 L 65.773438 108.039062 L 65.992188 108.675781 M 39.785156 70.722656 C 42.011719 66.859375 43.390625 62.996094 43.921875 59.128906 C 44.117188 57.625 44.214844 53.21875 44.214844 45.914062 C 44.457031 39.554688 44.457031 34.863281 44.214844 31.851562 L 42.980469 17.714844 L 44.792969 11.355469 C 45.808594 7.914062 47.671875 5.746094 50.382812 4.851562 L 50.238281 4.285156 L 49.222656 4.144531 L 49.148438 3.933594 L 55.902344 3.71875 L 60.984375 3.792969 L 60.765625 4.214844 L 60.839844 4.640625 C 65.292969 5.675781 67.515625 8.621094 67.515625 13.472656 C 66.742188 16.914062 66.355469 19.457031 66.355469 21.105469 L 66.355469 28.882812 C 65.144531 36.136719 64.539062 41.4375 64.539062 44.785156 C 64.539062 48.929688 64.25 53.40625 63.667969 58.210938 C 63.667969 61.511719 64.082031 67.351562 64.902344 75.738281 L 63.667969 81.109375 L 64.179688 81.886719 C 56.578125 85.515625 52.78125 92.160156 52.78125 101.820312 L 52.851562 103.234375 L 52.273438 103.164062 C 51.738281 103.210938 50.867188 103.632812 49.65625 104.433594 C 44.867188 97.554688 40.703125 94.117188 37.171875 94.117188 L 32.089844 95.035156 L 22.289062 95.882812 L 21.273438 95.882812 C 22.480469 95.363281 25.675781 92.230469 30.855469 86.484375 L 30.855469 86.269531 L 42.398438 85.847656 L 43.558594 85 C 41.382812 83.679688 38.429688 83.089844 34.703125 83.230469 L 33.25 83.445312 L 37.460938 77.578125 C 39.347656 74.703125 40.292969 72.984375 40.292969 72.417969 L 40.148438 71.921875 L 39.710938 71.851562 L 40.292969 71.289062 L 40.148438 70.792969 L 39.785156 70.722656 M 151.660156 96.730469 L 137.359375 89.804688 L 142.804688 87.894531 C 146.773438 86.484375 151.347656 85.777344 156.523438 85.777344 L 165.089844 86.484375 L 164.582031 86.554688 L 164.4375 87.261719 C 164.4375 87.589844 165.019531 88.578125 166.179688 90.226562 L 168.066406 92.417969 C 165.988281 92.609375 164.171875 92.984375 162.621094 93.550781 C 160.398438 94.632812 158.652344 95.292969 157.394531 95.527344 L 151.660156 96.730469 M 134.453125 73.054688 L 134.746094 72.347656 L 135.472656 72.136719 L 136.125 68.953125 L 135.617188 68.390625 C 139.488281 66.644531 141.425781 65.585938 141.425781 65.210938 L 141.425781 65.066406 L 141.351562 64.925781 L 141.277344 64.714844 L 141.132812 64.714844 C 135.519531 57.882812 131.476562 50.695312 129.007812 43.15625 C 127.558594 38.683594 126.660156 34.863281 126.324219 31.707031 C 126.128906 30.011719 126.03125 26.453125 126.03125 21.035156 L 126.03125 12.695312 C 126.03125 11.1875 126.492188 9.1875 127.414062 6.6875 L 128.136719 4.78125 L 128.429688 4.003906 L 128.136719 3.4375 L 127.414062 2.730469 L 127.484375 2.589844 L 129.371094 2.378906 L 141.640625 1.671875 L 145.199219 1.742188 C 145.054688 1.882812 144.980469 2.117188 144.980469 2.449219 L 145.5625 9.304688 C 145.5625 11.941406 145.273438 13.96875 144.691406 15.382812 C 144.109375 16.75 143.820312 18.820312 143.820312 21.601562 C 143.820312 24.804688 144.328125 29.445312 145.34375 35.523438 C 146.359375 41.554688 147.328125 45.65625 148.25 47.824219 C 154.105469 61.675781 157.808594 70.039062 159.355469 72.914062 C 156.742188 70.085938 154.445312 68.671875 152.460938 68.671875 L 150.425781 68.8125 C 143.3125 69.050781 138.328125 70.15625 135.472656 72.136719 L 135.472656 72.207031 L 134.453125 73.054688 M 168.722656 85.917969 L 168.792969 85.988281 L 168.574219 85.988281 L 168.722656 85.917969 M 136.921875 108.390625 L 143.019531 108.320312 C 159.863281 108.320312 170.679688 107.6875 175.472656 106.414062 C 176.972656 106.035156 177.820312 105.589844 178.015625 105.070312 L 177.796875 104.292969 C 177.894531 103.351562 178.136719 102.574219 178.523438 101.960938 L 178.957031 103.445312 L 178.957031 106.128906 C 178.667969 107.402344 177.773438 108.464844 176.273438 109.3125 C 171.964844 111.808594 162.234375 113.058594 147.085938 113.058594 L 143.09375 112.984375 L 143.167969 112.703125 L 143.019531 112.421875 C 139.972656 111.335938 138.300781 110.605469 138.011719 110.230469 L 136.921875 108.390625 M 62.074219 80.6875 C 62.554688 80.6875 62.796875 80.570312 62.796875 80.332031 C 62.121094 78.777344 59.75 76.46875 55.683594 73.40625 L 49.65625 69.167969 L 48.933594 69.589844 C 50.964844 72.984375 55.34375 76.683594 62.074219 80.6875 M 44.066406 71.214844 C 43.824219 71.214844 43.558594 71.359375 43.269531 71.640625 C 45.6875 75.785156 48.8125 82.148438 52.632812 90.722656 L 53.289062 90.511719 L 53.359375 89.523438 L 49.511719 80.40625 L 47.480469 74.960938 C 46.320312 72.464844 45.179688 71.214844 44.066406 71.214844 "/>
<path style=" stroke:none;fill-rule:evenodd;fill:rgb(40.000001%,40.000001%,40.000001%);fill-opacity:1;" d="M 67.445312 109.027344 L 67.371094 109.097656 L 66.792969 109.167969 L 65.992188 108.675781 L 65.773438 108.039062 L 65.773438 106.835938 L 66.066406 105.636719 C 66.164062 105.398438 66.308594 105.234375 66.5 105.140625 L 66.792969 105.496094 C 67.855469 105.257812 68.582031 104.90625 68.96875 104.433594 L 69.621094 102.3125 L 71.292969 98.921875 L 70.785156 100.617188 L 69.476562 105.140625 L 67.515625 107.402344 L 67.515625 108.320312 L 67.445312 108.957031 L 67.445312 109.027344 M 39.785156 70.722656 L 39.496094 71.144531 L 38.839844 70.652344 L 36.371094 71.144531 L 39.785156 33.6875 C 39.785156 31.472656 39.179688 25.84375 37.96875 16.796875 C 37.96875 14.582031 38.210938 12.625 38.695312 10.929688 L 39.277344 8.457031 C 40.003906 7.75 40.558594 6.902344 40.945312 5.910156 L 40.945312 5.417969 L 42.832031 4.78125 L 49.148438 3.933594 L 49.222656 4.144531 L 50.238281 4.285156 L 50.382812 4.851562 C 47.671875 5.746094 45.808594 7.914062 44.792969 11.355469 L 42.980469 17.714844 L 44.214844 31.851562 C 44.457031 34.863281 44.457031 39.554688 44.214844 45.914062 C 44.214844 53.21875 44.117188 57.625 43.921875 59.128906 C 43.390625 62.996094 42.011719 66.859375 39.785156 70.722656 M 60.984375 3.792969 L 61.636719 3.578125 L 64.179688 3.933594 L 68.460938 4.496094 L 69.984375 5.0625 L 69.914062 5.347656 C 71.21875 7.65625 72.1875 10.457031 72.816406 13.757812 L 73.761719 22.449219 C 73.761719 23.390625 72.769531 27.421875 70.785156 34.535156 C 68.800781 41.648438 67.808594 49.425781 67.808594 57.859375 C 67.808594 62.144531 68 65.183594 68.390625 66.976562 C 68 67.023438 67.808594 67.304688 67.808594 67.824219 C 67.808594 70.226562 68.21875 74.183594 69.042969 79.699219 L 68.96875 80.121094 C 67.664062 80.5 66.453125 80.921875 65.339844 81.394531 L 64.394531 82.101562 L 64.179688 81.886719 L 63.667969 81.109375 L 64.902344 75.738281 C 64.082031 67.351562 63.667969 61.511719 63.667969 58.210938 C 64.25 53.40625 64.539062 48.929688 64.539062 44.785156 C 64.539062 41.4375 65.144531 36.136719 66.355469 28.882812 L 66.355469 21.105469 C 66.355469 19.457031 66.742188 16.914062 67.515625 13.472656 C 67.515625 8.621094 65.292969 5.675781 60.839844 4.640625 L 60.765625 4.214844 L 60.984375 3.792969 M 21.273438 95.882812 L 20.980469 95.953125 L 20.402344 95.882812 L 8.929688 96.730469 L 8.855469 96.449219 L 11.542969 93.902344 C 17.398438 90.886719 20.980469 88.839844 22.289062 87.753906 L 24.609375 85.632812 L 29.332031 86.269531 L 29.402344 86.269531 L 30.128906 85.492188 L 30.855469 86.269531 L 30.855469 86.484375 C 25.675781 92.230469 22.480469 95.363281 21.273438 95.882812 M 33.25 83.445312 L 32.816406 83.867188 L 32.234375 83.515625 L 28.386719 83.867188 L 26.28125 83.9375 L 29.910156 80.191406 C 33.492188 76.328125 35.550781 73.808594 36.082031 72.628906 L 36.226562 72.628906 L 36.226562 72.558594 L 37.097656 72.628906 L 38.839844 72.207031 L 39.203125 71.78125 L 39.710938 71.851562 L 40.148438 71.921875 L 40.292969 72.417969 C 40.292969 72.984375 39.347656 74.703125 37.460938 77.578125 L 33.25 83.445312 M 140.042969 105.917969 L 138.300781 106.273438 L 133.65625 106.128906 C 133.316406 105.894531 132.90625 105.777344 132.421875 105.777344 L 132.058594 105.777344 C 130.269531 104.597656 129.105469 103.234375 128.574219 101.679688 C 128.285156 100.878906 128.136719 98.851562 128.136719 95.601562 L 128.71875 79.699219 C 129.058594 74.136719 128.765625 70.675781 127.847656 69.308594 L 127.847656 69.238281 C 124.554688 53.171875 122.378906 42.144531 121.3125 36.160156 L 116.085938 4.425781 L 116.449219 4.425781 C 117.078125 4.425781 118.363281 3.957031 120.296875 3.015625 L 127.484375 2.589844 L 127.414062 2.730469 L 128.136719 3.4375 L 128.429688 4.003906 L 128.136719 4.78125 L 127.414062 6.6875 C 126.492188 9.1875 126.03125 11.1875 126.03125 12.695312 L 126.03125 21.035156 C 126.03125 26.453125 126.128906 30.011719 126.324219 31.707031 C 126.660156 34.863281 127.558594 38.683594 129.007812 43.15625 C 131.476562 50.695312 135.519531 57.882812 141.132812 64.714844 L 141.351562 64.925781 L 141.425781 65.066406 L 141.425781 65.210938 L 140.699219 65.421875 C 140.40625 65.421875 139.996094 65.234375 139.464844 64.855469 L 135.324219 66.550781 C 133.875 67.164062 133.148438 67.777344 133.148438 68.390625 C 133.148438 68.765625 133.390625 69.027344 133.875 69.167969 L 134.597656 68.882812 L 135.398438 68.320312 L 135.617188 68.390625 L 136.125 68.953125 L 135.472656 72.136719 L 134.746094 72.347656 L 134.453125 73.054688 L 133.726562 74.328125 L 133.4375 74.253906 C 132.855469 75.199219 132.566406 76.257812 132.566406 77.4375 L 133.292969 83.726562 C 134.019531 87.777344 134.988281 89.851562 136.195312 89.945312 L 136.195312 89.875 C 136.4375 89.640625 136.65625 89.523438 136.851562 89.523438 L 137.359375 89.804688 L 151.660156 96.730469 L 152.386719 97.085938 L 151.296875 97.933594 L 148.902344 97.296875 L 140.261719 99.203125 L 140.335938 99.628906 L 141.570312 99.910156 C 140.503906 101.136719 139.972656 102.3125 139.972656 103.445312 L 140.261719 105.917969 L 140.042969 105.917969 M 145.199219 1.742188 L 145.707031 1.53125 L 146.214844 1.742188 L 149.554688 2.023438 C 150.183594 7.253906 150.523438 12.460938 150.570312 17.644531 C 150.570312 26.691406 150.742188 32.226562 151.078125 34.253906 C 151.660156 37.976562 152.773438 43.511719 154.417969 50.863281 C 154.902344 53.640625 155.945312 57.152344 157.539062 61.390625 L 159.792969 66.691406 C 159.984375 67.589844 160.734375 69.660156 162.042969 72.914062 L 165.164062 80.050781 L 168.722656 85.917969 L 168.574219 85.988281 L 167.777344 85.210938 L 161.96875 76.09375 L 160.300781 74.042969 L 160.082031 74.042969 L 159.355469 72.914062 C 157.808594 70.039062 154.105469 61.675781 148.25 47.824219 C 147.328125 45.65625 146.359375 41.554688 145.34375 35.523438 C 144.328125 29.445312 143.820312 24.804688 143.820312 21.601562 C 143.820312 18.820312 144.109375 16.75 144.691406 15.382812 C 145.273438 13.96875 145.5625 11.941406 145.5625 9.304688 L 144.980469 2.449219 C 144.980469 2.117188 145.054688 1.882812 145.199219 1.742188 M 168.792969 85.988281 C 170.585938 88.816406 172.15625 90.863281 173.511719 92.136719 L 173.296875 92.347656 L 171.988281 92.207031 L 170.101562 92.277344 L 170.027344 92.632812 L 169.375 93.054688 C 168.988281 93.054688 168.550781 92.84375 168.066406 92.417969 L 166.179688 90.226562 C 165.019531 88.578125 164.4375 87.589844 164.4375 87.261719 L 164.582031 86.554688 L 165.089844 86.484375 L 165.382812 86.410156 L 165.527344 86.554688 L 167.125 86.835938 L 167.851562 86.835938 C 168.335938 86.835938 168.574219 86.71875 168.574219 86.484375 L 168.503906 86.339844 L 168.574219 85.988281 L 168.792969 85.988281 M 136.921875 108.390625 L 138.011719 110.230469 C 138.300781 110.605469 139.972656 111.335938 143.019531 112.421875 L 143.167969 112.703125 L 143.09375 112.984375 C 142.898438 113.316406 142.34375 113.480469 141.425781 113.480469 C 139.679688 113.480469 138.328125 113.128906 137.359375 112.421875 C 132.761719 111.667969 130.121094 110.230469 129.445312 108.109375 C 129.347656 107.78125 129.324219 107.097656 129.371094 106.058594 C 130.628906 107.378906 131.890625 108.039062 133.148438 108.039062 L 133.875 107.96875 L 135.617188 108.25 C 135.761719 108.109375 135.929688 108.039062 136.125 108.039062 C 136.367188 108.039062 136.632812 108.15625 136.921875 108.390625 "/>
</g>
</svg>
